<?xml version="1.0" encoding="UTF-8" standalone="no"?><!DOCTYPE svg PUBLIC "-//W3C//DTD SVG 1.1//EN" "http://www.w3.org/Graphics/SVG/1.1/DTD/svg11.dtd"><svg width="100%" height="100%" viewBox="0 0 2000 150" version="1.1" xmlns="http://www.w3.org/2000/svg" xmlns:xlink="http://www.w3.org/1999/xlink" xml:space="preserve" xmlns:serif="http://www.serif.com/" style="fill-rule:evenodd;clip-rule:evenodd;stroke-linecap:round;stroke-linejoin:round;stroke-miterlimit:1.5"><polygon points="-2.95,92.01 14.66,109.94 38.04,131.46 58.37,141.75 104.93,150 139.86,150 162.26,146.25 195.25,137.61 224.03,125.52 256.99,106.46 282.82,127.45 299.35,134.75 318.23,141.58 338.37,143.99 354.55,145.23 375.83,143.56 391.58,140.4 407.61,135.5 421.26,127.45 449.81,106.2 456.87,112.91 463.93,117.25 476.43,121.16 488.56,121.69 503.01,121.02 517.34,120.34 531.34,118.81 540.22,112.73 551.31,104.23 557.4,96.27 567.13,102.31 580.73,107.42 595.35,112.5 609.74,115.81 626.31,120.2 649.87,124.98 676.09,124.13 702.54,122.48 735.99,117.64 825.76,88.75 834.35,100.29 849.9,107.81 869.52,117.73 893.36,121.23 911.71,121.43 942.05,119.57 962.67,115.78 986.44,106.58 1002.67,99.69 1021.55,91.11 1039.47,106.33 1054.65,113.54 1069.98,118.99 1085.55,122.97 1105.98,126.55 1121.74,127.56 1149.93,125.34 1175.34,120.13 1193.89,112.88 1233.33,93.02 1242.44,99.85 1249.49,107.41 1265.63,112.42 1286.69,116.42 1308.35,119.88 1331.37,120.41 1356.7,118.72 1386.01,112.23 1405.43,103.13 1429.32,91.79 1436.51,101.88 1446.58,112.59 1474.66,122.66 1508.04,130.63 1527.88,130.63 1561.72,127.73 1581.86,123.46 1610.3,117.32 1628.57,107.62 1655.66,92.87 1670.09,105.77 1692.68,117.17 1719.24,123.65 1745.34,129.59 1782.37,131.96 1818.22,131.44 1857.68,125.11 1900.85,115.42 1935.1,98.32 1969.89,69.97 2009.81,92.05 2043.86,109.63 2088.83,113.25 2162.78,115.29 2211.7,97.15 2239.38,59.73 2256.03,23.31 2231.38,-29.16 2204.36,-69.06 2182.67,-82.85 2197.34,-103.35 2204.83,-126.99 2189.82,-151.65 2177,-182.84 2151.11,-191.74 2115.56,-197.39 2077.73,-206.57 2041.93,-205.34 2006.23,-198.49 1966,-165.43 1931.43,-177.23 1906.05,-195.19 1874.14,-209.66 1849.06,-210.57 1823.84,-203.29 1805.89,-193.18 1788.62,-178.06 1766.92,-167.7 1756.71,-155.63 1742.75,-147.87 1727.01,-167.61 1689.39,-195.87 1644.58,-215.25 1612.74,-217.3 1568.42,-212.87 1540.51,-203.77 1511.71,-195.66 1482.85,-178.09 1461.54,-167.28 1439.63,-154.85 1398.17,-181.44 1351.49,-189.26 1323.74,-197.16 1296.38,-197.51 1258.49,-195.93 1233.73,-187.44 1211.3,-179.57 1191.84,-164.68 1170.42,-156.74 1152.09,-141.83 1133.63,-164.96 1098.46,-191.45 1072.23,-200.49 1039.95,-204.33 1016.58,-208.56 978.85,-216.73 949.6,-214.4 920.86,-196.46 890.32,-174.76 875.68,-164.24 844.15,-182.84 811.7,-200.35 784.34,-215.83 747.85,-215.83 697.89,-214.22 650.94,-209.19 625.37,-198.41 597.85,-183.54 570.57,-165.75 548.37,-159.3 520.11,-189.88 482.94,-206.42 462.2,-212.85 427.66,-214.07 410.74,-206.4 394.78,-193.95 380.08,-182.23 369.06,-171.23 353.04,-147.94 333.4,-176.67 296.28,-186.2 264.4,-197.97 231.77,-204.36 206.99,-201.34 172.63,-196.23 151.39,-184.69 116.37,-175.88 97.2,-161.49 66.95,-149.44 28.3,-159.25 -6.73,-171.49 -50.61,-180.06 -84.42,-185.88 -125.31,-194.31 -152.95,-200.43 -172.19,-207.97 -206.04,-210.52 -231.6,-197.24 -262.97,-176.3 -286.27,-199.42 -319.68,-206.3 -359,-206.3 -389.34,-187.01 -416.11,-162.39 -437.51,-140.61 -459,-112.61 -461.91,-91.73 -469.64,-74.31 -462.03,-52.11 -481.46,-26.52 -497,22.44 -498.34,48.95 -498.34,80.6 -497.1,107.35 -472.19,127.04 -416.7,139.57 -361.37,136.01 -323.36,129.51 -263.58,93.4 -248.62,118.43 -227.11,135.2 -198.34,139.04 -160.47,150 -120.04,140 -88.94,132 -65.25,119.6 -40.05,109.54 -22.45,99.99 -2.95,92.01 -2.95,92.01" fill="#6a5b46" stroke="#282118" stroke-width="3px" vector-effect="non-scaling-stroke" id="Cloud2.Duration:700ms.Effect:Loop"><animate id="Cloud2-1" begin="Cloud2-2.begin + 0s" fill="freeze" attributeName="points" dur="700ms" to="-2.95,92.01 14.66,109.94 38.04,131.46 58.37,141.75 104.93,150 139.86,150 162.26,146.25 195.25,137.61 224.03,125.52 256.99,106.46 282.82,127.45 299.35,134.75 318.23,141.58 338.37,143.99 354.55,145.23 375.83,143.56 391.58,140.4 407.61,135.5 421.26,127.45 449.81,106.2 456.87,112.91 463.93,117.25 476.43,121.16 488.56,121.69 503.01,121.02 517.34,120.34 531.34,118.81 540.22,112.73 551.31,104.23 557.4,96.27 567.13,102.31 580.73,107.42 595.35,112.5 609.74,115.81 626.31,120.2 649.87,124.98 676.09,124.13 702.54,122.48 735.99,117.64 825.76,88.75 834.35,100.29 849.9,107.81 869.52,117.73 893.36,121.23 911.71,121.43 942.05,119.57 962.67,115.78 986.44,106.58 1002.67,99.69 1021.55,91.11 1039.47,106.33 1054.65,113.54 1069.98,118.99 1085.55,122.97 1105.98,126.55 1121.74,127.56 1149.93,125.34 1175.34,120.13 1193.89,112.88 1233.33,93.02 1242.44,99.85 1249.49,107.41 1265.63,112.42 1286.69,116.42 1308.35,119.88 1331.37,120.41 1356.7,118.72 1386.01,112.23 1405.43,103.13 1429.32,91.79 1436.51,101.88 1446.58,112.59 1474.66,122.66 1508.04,130.63 1527.88,130.63 1561.72,127.73 1581.86,123.46 1610.3,117.32 1628.57,107.62 1655.66,92.87 1670.09,105.77 1692.68,117.17 1719.24,123.65 1745.34,129.59 1782.37,131.96 1818.22,131.44 1857.68,125.11 1900.85,115.42 1935.1,98.32 1969.89,69.97 2009.81,92.05 2043.86,109.63 2088.83,113.25 2162.78,115.29 2211.7,97.15 2239.38,59.73 2256.03,23.31 2231.38,-29.16 2204.36,-69.06 2182.67,-82.85 2197.34,-103.35 2204.83,-126.99 2189.82,-151.65 2177,-182.84 2151.11,-191.74 2115.56,-197.39 2077.73,-206.57 2041.93,-205.34 2006.23,-198.49 1966,-165.43 1931.43,-177.23 1906.05,-195.19 1874.14,-209.66 1849.06,-210.57 1823.84,-203.29 1805.89,-193.18 1788.62,-178.06 1766.92,-167.7 1756.71,-155.63 1742.75,-147.87 1727.01,-167.61 1689.39,-195.87 1644.58,-215.25 1612.74,-217.3 1568.42,-212.87 1540.51,-203.77 1511.71,-195.66 1482.85,-178.09 1461.54,-167.28 1439.63,-154.85 1398.17,-181.44 1351.49,-189.26 1323.74,-197.16 1296.38,-197.51 1258.49,-195.93 1233.73,-187.44 1211.3,-179.57 1191.84,-164.68 1170.42,-156.74 1152.09,-141.83 1133.63,-164.96 1098.46,-191.45 1072.23,-200.49 1039.95,-204.33 1016.58,-208.56 978.85,-216.73 949.6,-214.4 920.86,-196.46 890.32,-174.76 875.68,-164.24 844.15,-182.84 811.7,-200.35 784.34,-215.83 747.85,-215.83 697.89,-214.22 650.94,-209.19 625.37,-198.41 597.85,-183.54 570.57,-165.75 548.37,-159.3 520.11,-189.88 482.94,-206.42 462.2,-212.85 427.66,-214.07 410.74,-206.4 394.78,-193.95 380.08,-182.23 369.06,-171.23 353.04,-147.94 333.4,-176.67 296.28,-186.2 264.4,-197.97 231.77,-204.36 206.99,-201.34 172.63,-196.23 151.39,-184.69 116.37,-175.88 97.2,-161.49 66.95,-149.44 28.3,-159.25 -6.73,-171.49 -50.61,-180.06 -84.42,-185.88 -125.31,-194.31 -152.95,-200.43 -172.19,-207.97 -206.04,-210.52 -231.6,-197.24 -262.97,-176.3 -286.27,-199.42 -319.68,-206.3 -359,-206.3 -389.34,-187.01 -416.11,-162.39 -437.51,-140.61 -459,-112.61 -461.91,-91.73 -469.64,-74.31 -462.03,-52.11 -481.46,-26.52 -497,22.44 -498.34,48.95 -498.34,80.6 -497.1,107.35 -472.19,127.04 -416.7,139.57 -361.37,136.01 -323.36,129.51 -263.58,93.4 -248.62,118.43 -227.11,135.2 -198.34,139.04 -160.47,150 -120.04,140 -88.94,132 -65.25,119.6 -40.05,109.54 -22.45,99.99 -2.95,92.01 -2.95,92.01"/><animate id="Cloud2-2" begin="0; Cloud2-1.begin + 700ms" fill="freeze" attributeName="points" dur="700ms" to="256.99,106.46 282.82,127.45 299.35,134.75 318.23,141.58 338.37,143.99 354.55,145.23 375.83,143.56 391.58,140.4 407.61,135.5 421.26,127.45 449.81,106.2 456.87,112.91 463.93,117.25 476.43,121.16 488.56,121.69 503.01,121.02 517.34,120.34 531.34,118.81 540.22,112.73 551.31,104.23 557.4,96.27 567.13,102.31 580.73,107.42 595.35,112.5 609.74,115.81 626.31,120.2 649.87,124.98 676.09,124.13 702.54,122.48 735.99,117.64 825.76,88.75 834.35,100.29 849.9,107.81 869.52,117.73 893.36,121.23 911.71,121.43 942.05,119.57 962.67,115.78 986.44,106.58 1002.67,99.69 1021.55,91.11 1039.47,106.33 1054.65,113.54 1069.98,118.99 1085.55,122.97 1105.98,126.55 1121.74,127.56 1149.93,125.34 1175.34,120.13 1193.89,112.88 1233.33,93.02 1242.44,99.85 1249.49,107.41 1265.63,112.42 1286.69,116.42 1308.35,119.88 1331.37,120.41 1356.7,118.72 1386.01,112.23 1405.43,103.13 1429.32,91.79 1436.51,101.88 1446.58,112.59 1474.66,122.66 1508.04,130.63 1527.88,130.63 1561.72,127.73 1581.86,123.46 1610.3,117.32 1628.57,107.62 1655.66,92.87 1670.09,105.77 1692.68,117.17 1719.24,123.65 1745.34,129.59 1782.37,131.96 1818.22,131.44 1857.68,125.11 1900.85,115.42 1935.1,98.32 1969.89,69.97 2009.81,92.05 2043.86,109.63 2088.83,113.25 2162.78,115.29 2211.7,97.15 2239.38,59.73 2256.03,23.31 2231.38,-29.16 2204.36,-69.06 2182.67,-82.85 2197.34,-103.35 2204.83,-126.99 2189.82,-151.65 2177,-182.84 2151.11,-191.74 2115.56,-197.39 2077.73,-206.57 2041.93,-205.34 2006.23,-198.49 1966,-165.43 1931.43,-177.23 1906.05,-195.19 1874.14,-209.66 1849.06,-210.57 1823.84,-203.29 1805.89,-193.18 1788.62,-178.06 1766.92,-167.7 1756.71,-155.63 1742.75,-147.87 1727.01,-167.61 1689.39,-195.87 1644.58,-215.25 1612.74,-217.3 1568.42,-212.87 1540.51,-203.77 1511.71,-195.66 1482.85,-178.09 1461.54,-167.28 1439.63,-154.85 1398.17,-181.44 1351.49,-189.26 1323.74,-197.16 1296.38,-197.51 1258.49,-195.93 1233.73,-187.44 1211.3,-179.57 1191.84,-164.68 1170.42,-156.74 1152.09,-141.83 1133.63,-164.96 1098.46,-191.45 1072.23,-200.49 1039.95,-204.33 1016.58,-208.56 978.85,-216.73 949.6,-214.4 920.86,-196.46 890.32,-174.76 875.68,-164.24 844.15,-182.84 811.7,-200.35 784.34,-215.83 747.85,-215.83 697.89,-214.22 650.94,-209.19 625.37,-198.41 597.85,-183.54 570.57,-165.75 548.37,-159.3 520.11,-189.88 482.94,-206.42 462.2,-212.85 427.66,-214.07 410.74,-206.4 394.78,-193.95 380.08,-182.23 369.06,-171.23 353.04,-147.94 333.4,-176.67 296.28,-186.2 264.4,-197.97 231.77,-204.36 206.99,-201.34 172.63,-196.23 151.39,-184.69 116.37,-175.88 97.2,-161.49 66.95,-149.44 28.3,-159.25 -6.73,-171.49 -50.61,-180.06 -84.42,-185.88 -125.31,-194.31 -152.95,-200.43 -172.19,-207.97 -206.04,-210.52 -231.6,-197.24 -262.97,-176.3 -286.27,-199.42 -319.68,-206.3 -359,-206.3 -389.34,-187.01 -416.11,-162.39 -437.51,-140.61 -459,-112.61 -461.91,-91.73 -469.64,-74.31 -462.03,-52.11 -481.46,-26.52 -497,22.44 -498.34,48.95 -498.34,80.6 -497.1,107.35 -472.19,127.04 -416.7,139.57 -361.37,136.01 -323.36,129.51 -263.58,93.4 -248.62,118.43 -227.11,135.2 -198.34,139.04 -160.47,150 -120.04,140 -88.94,132 -65.25,119.6 -40.05,109.54 -22.45,99.99 -2.95,92.01 14.66,109.94 38.04,131.46 58.37,141.75 104.93,150 139.86,150 162.26,146.25 195.25,137.61 224.03,125.52 256.99,106.46 256.99,106.46"/></polygon><polygon points="93.79,11.76 53.3,22.05 16.61,34.88 -29.35,43.86 -64.77,49.96 -107.6,58.81 -136.55,65.22 -156.7,73.13 -192.17,75.81 -218.94,61.88 -251.8,39.92 -276.2,64.17 -311.19,71.38 -352.38,71.38 -384.16,51.15 -412.2,25.34 -434.63,2.5 -457.14,-26.86 -460.18,-48.75 -468.28,-67.02 -460.31,-90.3 -480.66,-117.13 -496.93,-168.47 -498.34,-196.25 -498.34,-229.44 -497.04,-257.49 -470.95,-278.14 -412.83,-291.28 -354.87,-287.54 -315.05,-280.73 -252.43,-242.87 -236.76,-269.11 -214.23,-286.69 -184.1,-290.72 -144.43,-302.21 -102.08,-291.73 -69.5,-283.33 -44.68,-270.34 -18.29,-259.79 0.14,-249.77 20.57,-241.41 39.01,-260.21 63.5,-282.78 84.8,-293.57 133.57,-302.21 170.16,-302.21 193.62,-298.28 228.18,-289.22 258.33,-276.55 292.85,-256.56 319.91,-278.56 337.22,-286.23 357,-293.38 378.1,-295.91 395.04,-297.21 417.33,-295.46 433.83,-292.14 450.62,-287.01 464.92,-278.57 494.83,-256.29 502.23,-263.33 509.62,-267.87 522.71,-271.97 535.41,-272.53 550.56,-271.82 565.56,-271.11 580.23,-269.51 589.53,-263.14 601.15,-254.22 607.53,-245.88 617.72,-252.2 631.97,-257.57 647.27,-262.9 662.35,-266.37 679.71,-270.97 704.39,-275.98 731.85,-275.09 759.56,-273.35 794.59,-268.28 888.62,-237.99 897.63,-250.09 913.91,-257.97 934.46,-268.38 959.44,-272.05 978.66,-272.26 1010.44,-270.3 1032.04,-266.33 1056.94,-256.68 1073.94,-249.46 1093.71,-240.46 1112.48,-256.42 1128.39,-263.98 1144.44,-269.69 1160.76,-273.87 1182.15,-277.62 1198.66,-278.68 1228.19,-276.35 1254.8,-270.89 1274.24,-263.29 1315.54,-242.47 1325.09,-249.63 1332.48,-257.56 1349.38,-262.81 1371.45,-267 1394.13,-270.63 1418.25,-271.19 1444.78,-269.42 1475.48,-262.61 1495.82,-253.07 1520.84,-241.18 1528.38,-251.76 1538.92,-262.99 1568.34,-273.55 1603.3,-281.91 1624.08,-281.91 1659.53,-278.86 1680.63,-274.39 1710.42,-267.94 1729.55,-257.78 1757.93,-242.31 1773.05,-255.84 1796.71,-267.79 1824.53,-274.59 1851.87,-280.81 1890.65,-283.3 1928.21,-282.75 1969.54,-276.11 2014.76,-265.95 2050.64,-248.02 2087.08,-218.29 2128.9,-241.45 2164.57,-259.88 2211.67,-263.68 2289.13,-265.82 2340.37,-246.8 2369.36,-207.56 2386.81,-169.38 2360.99,-114.36 2332.68,-72.53 2309.96,-58.06 2325.33,-36.57 2333.18,-11.78 2317.45,14.07 2304.03,46.78 2276.91,56.11 2239.67,62.03 2200.04,71.66 2162.54,70.38 2125.14,63.18 2083,28.53 2046.8,40.9 2020.21,59.73 1986.78,74.9 1960.51,75.85 1934.09,68.22 1915.29,57.63 1897.2,41.76 1874.48,30.9 1863.78,18.25 1849.15,10.11 1832.66,30.81 1793.26,60.44 1746.32,80.76 1712.97,82.91 1666.54,78.27 1637.32,68.73 1607.14,60.23 1576.91,41.8 1554.6,30.46 1531.65,17.43 1488.21,45.32 1439.32,53.51 1410.25,61.79 1381.59,62.17 1341.9,60.5 1315.97,51.61 1292.48,43.35 1272.09,27.73 1249.65,19.42 1230.45,3.78 1211.12,28.03 1174.27,55.81 1146.8,65.28 1112.99,69.31 1088.51,73.75 1048.98,82.31 1018.35,79.87 988.24,61.06 956.26,38.3 940.91,27.28 907.89,46.78 873.9,65.14 845.24,81.37 807.02,81.37 754.68,79.68 705.51,74.41 678.72,63.11 649.89,47.52 621.32,28.86 598.07,22.09 568.47,54.16 529.53,71.5 507.8,78.24 471.62,79.52 453.9,71.48 437.19,58.43 421.79,46.14 410.24,34.61 393.46,10.19 372.89,40.31 334.01,50.3 300.61,62.64 266.43,69.34 240.47,66.18 204.49,60.82 182.24,48.72 145.56,39.48 125.48,24.4 93.79,11.76 93.79,11.76" fill="#6a5b46" stroke="#282118" stroke-width="3px" vector-effect="non-scaling-stroke" id="Cloud.Duration:900ms.Effect:Loop"><animate id="Cloud-1" begin="Cloud-2.begin + 0s" fill="freeze" attributeName="points" dur="900ms" to="93.79,11.76 53.3,22.05 16.61,34.88 -29.35,43.86 -64.77,49.96 -107.6,58.81 -136.55,65.22 -156.7,73.13 -192.17,75.81 -218.94,61.88 -251.8,39.92 -276.2,64.17 -311.19,71.38 -352.38,71.38 -384.16,51.15 -412.2,25.34 -434.63,2.5 -457.14,-26.86 -460.18,-48.75 -468.28,-67.02 -460.31,-90.3 -480.66,-117.13 -496.93,-168.47 -498.34,-196.25 -498.34,-229.44 -497.04,-257.49 -470.95,-278.14 -412.83,-291.28 -354.87,-287.54 -315.05,-280.73 -252.43,-242.87 -236.76,-269.11 -214.23,-286.69 -184.1,-290.72 -144.43,-302.21 -102.08,-291.73 -69.5,-283.33 -44.68,-270.34 -18.29,-259.79 0.14,-249.77 20.57,-241.41 39.01,-260.21 63.5,-282.78 84.8,-293.57 133.57,-302.21 170.16,-302.21 193.62,-298.28 228.18,-289.22 258.33,-276.55 292.85,-256.56 319.91,-278.56 337.22,-286.23 357,-293.38 378.1,-295.91 395.04,-297.21 417.33,-295.46 433.83,-292.14 450.62,-287.01 464.92,-278.57 494.83,-256.29 502.23,-263.33 509.62,-267.87 522.71,-271.97 535.41,-272.53 550.56,-271.82 565.56,-271.11 580.23,-269.51 589.53,-263.14 601.15,-254.22 607.53,-245.88 617.72,-252.2 631.97,-257.57 647.27,-262.9 662.35,-266.37 679.71,-270.97 704.39,-275.98 731.85,-275.09 759.56,-273.35 794.59,-268.28 888.62,-237.99 897.63,-250.09 913.91,-257.97 934.46,-268.38 959.44,-272.05 978.66,-272.26 1010.44,-270.3 1032.04,-266.33 1056.94,-256.68 1073.94,-249.46 1093.71,-240.46 1112.48,-256.42 1128.39,-263.98 1144.44,-269.69 1160.76,-273.87 1182.15,-277.62 1198.66,-278.68 1228.19,-276.35 1254.8,-270.89 1274.24,-263.29 1315.54,-242.47 1325.09,-249.63 1332.48,-257.56 1349.38,-262.81 1371.45,-267 1394.13,-270.63 1418.25,-271.19 1444.78,-269.42 1475.48,-262.61 1495.82,-253.07 1520.84,-241.18 1528.38,-251.76 1538.92,-262.99 1568.34,-273.55 1603.3,-281.91 1624.08,-281.91 1659.53,-278.86 1680.63,-274.39 1710.42,-267.94 1729.55,-257.78 1757.93,-242.31 1773.05,-255.84 1796.71,-267.79 1824.53,-274.59 1851.87,-280.81 1890.65,-283.3 1928.21,-282.75 1969.54,-276.11 2014.76,-265.95 2050.64,-248.02 2087.08,-218.29 2128.9,-241.45 2164.57,-259.88 2211.67,-263.68 2289.13,-265.82 2340.37,-246.8 2369.36,-207.56 2386.81,-169.38 2360.99,-114.36 2332.68,-72.53 2309.96,-58.06 2325.33,-36.57 2333.18,-11.78 2317.45,14.07 2304.03,46.78 2276.91,56.11 2239.67,62.03 2200.04,71.66 2162.54,70.38 2125.14,63.18 2083,28.53 2046.8,40.9 2020.21,59.73 1986.78,74.9 1960.51,75.85 1934.09,68.22 1915.29,57.63 1897.2,41.76 1874.48,30.9 1863.78,18.25 1849.15,10.11 1832.66,30.81 1793.26,60.44 1746.32,80.76 1712.97,82.91 1666.54,78.27 1637.32,68.73 1607.14,60.23 1576.91,41.8 1554.6,30.46 1531.65,17.43 1488.21,45.32 1439.32,53.51 1410.25,61.79 1381.59,62.17 1341.9,60.5 1315.97,51.61 1292.48,43.35 1272.09,27.73 1249.65,19.42 1230.45,3.78 1211.12,28.03 1174.27,55.81 1146.8,65.28 1112.99,69.31 1088.51,73.75 1048.98,82.31 1018.35,79.87 988.24,61.06 956.26,38.3 940.91,27.28 907.89,46.78 873.9,65.14 845.24,81.37 807.02,81.37 754.68,79.68 705.51,74.41 678.72,63.11 649.89,47.52 621.32,28.86 598.07,22.09 568.47,54.16 529.53,71.5 507.8,78.24 471.62,79.52 453.9,71.48 437.19,58.43 421.79,46.14 410.24,34.61 393.46,10.19 372.89,40.31 334.01,50.3 300.61,62.64 266.43,69.34 240.47,66.18 204.49,60.82 182.24,48.72 145.56,39.48 125.48,24.4 93.79,11.76 93.79,11.76"/><animate id="Cloud-2" begin="0; Cloud-1.begin + 900ms" fill="freeze" attributeName="points" dur="900ms" to="598.07,22.09 568.47,54.17 529.53,71.5 507.8,78.25 471.63,79.52 453.9,71.48 437.19,58.43 421.79,46.14 410.24,34.61 393.46,10.19 372.89,40.31 334.01,50.3 300.61,62.64 266.43,69.34 240.48,66.18 204.49,60.82 182.24,48.72 145.56,39.49 125.48,24.4 93.79,11.76 53.3,22.05 16.61,34.88 -29.35,43.86 -64.77,49.96 -107.6,58.81 -136.55,65.22 -156.7,73.13 -192.17,75.81 -218.94,61.88 -251.8,39.92 -276.2,64.17 -311.19,71.38 -352.38,71.38 -384.16,51.15 -412.2,25.34 -434.62,2.5 -457.14,-26.86 -460.18,-48.75 -468.28,-67.02 -460.31,-90.3 -480.66,-117.12 -496.93,-168.47 -498.34,-196.25 -498.34,-229.44 -497.04,-257.49 -470.95,-278.14 -412.83,-291.28 -354.87,-287.54 -315.05,-280.73 -252.43,-242.87 -236.76,-269.11 -214.23,-286.69 -184.1,-290.72 -144.43,-302.21 -102.08,-291.73 -69.5,-283.33 -44.68,-270.34 -18.29,-259.79 0.14,-249.77 20.57,-241.41 39.02,-260.21 63.5,-282.78 84.8,-293.57 133.57,-302.21 170.16,-302.21 193.62,-298.28 228.18,-289.22 258.33,-276.55 292.85,-256.56 319.91,-278.56 337.23,-286.23 357,-293.38 378.1,-295.91 395.04,-297.21 417.33,-295.46 433.83,-292.14 450.62,-287.01 464.92,-278.57 494.83,-256.29 502.23,-263.33 509.62,-267.87 522.71,-271.97 535.41,-272.53 550.56,-271.82 565.56,-271.11 580.23,-269.51 589.53,-263.14 601.15,-254.22 607.53,-245.88 617.72,-252.2 631.97,-257.57 647.27,-262.9 662.35,-266.37 679.71,-270.97 704.39,-275.98 731.85,-275.09 759.56,-273.35 794.59,-268.28 888.63,-237.99 897.63,-250.09 913.91,-257.97 934.46,-268.38 959.44,-272.05 978.66,-272.26 1010.44,-270.3 1032.04,-266.33 1056.94,-256.68 1073.94,-249.46 1093.72,-240.46 1112.48,-256.42 1128.39,-263.98 1144.44,-269.69 1160.76,-273.87 1182.15,-277.62 1198.66,-278.68 1228.19,-276.35 1254.8,-270.89 1274.24,-263.29 1315.54,-242.47 1325.09,-249.63 1332.48,-257.56 1349.38,-262.81 1371.45,-267 1394.13,-270.63 1418.25,-271.19 1444.78,-269.42 1475.48,-262.61 1495.82,-253.07 1520.84,-241.18 1528.38,-251.76 1538.92,-262.99 1568.34,-273.55 1603.3,-281.91 1624.08,-281.91 1659.53,-278.86 1680.63,-274.39 1710.42,-267.94 1729.55,-257.78 1757.93,-242.31 1773.05,-255.84 1796.71,-267.79 1824.53,-274.59 1851.87,-280.81 1890.65,-283.3 1928.21,-282.75 1969.54,-276.11 2014.76,-265.95 2050.64,-248.02 2087.08,-218.29 2128.9,-241.45 2164.57,-259.88 2211.67,-263.68 2289.13,-265.82 2340.37,-246.8 2369.36,-207.56 2386.81,-169.38 2360.99,-114.36 2332.68,-72.53 2309.96,-58.06 2325.33,-36.57 2333.18,-11.78 2317.45,14.07 2304.03,46.78 2276.91,56.11 2239.67,62.03 2200.04,71.66 2162.54,70.38 2125.14,63.18 2083,28.53 2046.8,40.9 2020.21,59.73 1986.78,74.9 1960.51,75.85 1934.09,68.22 1915.29,57.63 1897.2,41.76 1874.48,30.9 1863.78,18.25 1849.15,10.11 1832.66,30.81 1793.26,60.44 1746.32,80.76 1712.97,82.91 1666.54,78.27 1637.32,68.73 1607.14,60.23 1576.91,41.8 1554.6,30.46 1531.65,17.43 1488.21,45.32 1439.32,53.51 1410.25,61.79 1381.59,62.17 1341.9,60.5 1315.97,51.61 1292.48,43.35 1272.09,27.73 1249.65,19.42 1230.45,3.78 1211.12,28.03 1174.27,55.81 1146.8,65.28 1112.99,69.31 1088.51,73.75 1048.99,82.31 1018.35,79.87 988.24,61.06 956.26,38.3 940.91,27.28 907.89,46.78 873.9,65.14 845.24,81.37 807.02,81.37 754.69,79.68 705.51,74.41 678.72,63.11 649.9,47.52 621.32,28.86 598.07,22.09 598.07,22.09"/></polygon></svg>