<?xml version="1.0" encoding="UTF-8" standalone="no"?><!DOCTYPE svg PUBLIC "-//W3C//DTD SVG 1.1//EN" "http://www.w3.org/Graphics/SVG/1.1/DTD/svg11.dtd"><svg width="100%" height="100%" viewBox="0 0 2000 150" version="1.1" xmlns="http://www.w3.org/2000/svg" xmlns:xlink="http://www.w3.org/1999/xlink" xml:space="preserve" xmlns:serif="http://www.serif.com/" style="fill-rule:evenodd;clip-rule:evenodd;stroke-linecap:round;stroke-linejoin:round;stroke-miterlimit:1.5"><polygon points="-2.95,92.01 14.66,109.94 38.04,131.46 58.37,141.75 104.93,150 139.86,150 162.26,146.25 195.25,137.61 224.03,125.52 256.99,106.46 282.82,127.45 299.35,134.75 318.23,141.58 338.37,143.99 354.55,145.23 375.83,143.56 391.58,140.4 407.61,135.5 421.26,127.45 449.81,106.2 456.87,112.91 463.93,117.25 476.43,121.16 488.56,121.69 503.01,121.02 517.34,120.34 531.34,118.81 540.22,112.73 551.31,104.23 557.4,96.27 567.13,102.31 580.73,107.42 595.35,112.5 609.74,115.81 626.31,120.2 649.87,124.98 676.09,124.13 702.54,122.48 735.99,117.64 825.76,88.75 834.35,100.29 849.9,107.81 869.52,117.73 893.36,121.23 911.71,121.43 942.05,119.57 962.67,115.78 986.44,106.58 1002.67,99.69 1021.55,91.11 1039.47,106.33 1054.65,113.54 1069.98,118.99 1085.55,122.97 1105.98,126.55 1121.74,127.56 1149.93,125.34 1175.34,120.13 1193.89,112.88 1233.33,93.02 1242.44,99.85 1249.49,107.41 1265.63,112.42 1286.69,116.42 1308.35,119.88 1331.37,120.41 1356.7,118.72 1386.01,112.23 1405.43,103.13 1429.32,91.79 1436.51,101.88 1446.58,112.59 1474.66,122.66 1508.04,130.63 1527.88,130.63 1561.72,127.73 1581.86,123.46 1610.3,117.32 1628.57,107.62 1655.66,92.87 1670.09,105.77 1692.68,117.17 1719.24,123.65 1745.34,129.59 1782.37,131.96 1818.22,131.44 1857.68,125.11 1900.85,115.42 1935.1,98.32 1969.89,69.97 2009.81,92.05 2043.86,109.63 2088.83,113.25 2162.78,115.29 2211.7,97.15 2239.38,59.73 2256.03,23.31 2231.38,-29.16 2204.36,-69.06 2182.67,-82.85 2197.34,-103.35 2204.83,-126.99 2189.82,-151.65 2177,-182.84 2151.11,-191.74 2115.56,-197.39 2077.73,-206.57 2041.93,-205.34 2006.23,-198.49 1966,-165.43 1931.43,-177.23 1906.05,-195.19 1874.14,-209.66 1849.06,-210.57 1823.84,-203.29 1805.89,-193.18 1788.62,-178.06 1766.92,-167.7 1756.71,-155.63 1742.75,-147.87 1727.01,-167.61 1689.39,-195.87 1644.58,-215.25 1612.74,-217.3 1568.42,-212.87 1540.51,-203.77 1511.71,-195.66 1482.85,-178.09 1461.54,-167.28 1439.63,-154.85 1398.17,-181.44 1351.49,-189.26 1323.74,-197.16 1296.38,-197.51 1258.49,-195.93 1233.73,-187.44 1211.3,-179.57 1191.84,-164.68 1170.42,-156.74 1152.09,-141.83 1133.63,-164.96 1098.46,-191.45 1072.23,-200.49 1039.95,-204.33 1016.58,-208.56 978.85,-216.73 949.6,-214.4 920.86,-196.46 890.32,-174.76 875.68,-164.24 844.15,-182.84 811.7,-200.35 784.34,-215.83 747.85,-215.83 697.89,-214.22 650.94,-209.19 625.37,-198.41 597.85,-183.54 570.57,-165.75 548.37,-159.3 520.11,-189.88 482.94,-206.42 462.2,-212.85 427.66,-214.07 410.74,-206.4 394.78,-193.95 380.08,-182.23 369.06,-171.23 353.04,-147.94 333.4,-176.67 296.28,-186.2 264.4,-197.97 231.77,-204.36 206.99,-201.34 172.63,-196.23 151.39,-184.69 116.37,-175.88 97.2,-161.49 66.95,-149.44 28.3,-159.25 -6.73,-171.49 -50.61,-180.06 -84.42,-185.88 -125.31,-194.31 -152.95,-200.43 -172.19,-207.97 -206.04,-210.52 -231.6,-197.24 -262.97,-176.3 -286.27,-199.42 -319.68,-206.3 -359,-206.3 -389.34,-187.01 -416.11,-162.39 -437.51,-140.61 -459,-112.61 -461.91,-91.73 -469.64,-74.31 -462.03,-52.11 -481.46,-26.52 -497,22.44 -498.34,48.95 -498.34,80.6 -497.1,107.35 -472.19,127.04 -416.7,139.57 -361.37,136.01 -323.36,129.51 -263.58,93.4 -248.62,118.43 -227.11,135.2 -198.34,139.04 -160.47,150 -120.04,140 -88.94,132 -65.25,119.6 -40.05,109.54 -22.45,99.99 -2.95,92.01 -2.95,92.01" fill="#6a5b46" stroke="#282118" stroke-width="3px" vector-effect="non-scaling-stroke" id="Cloud2.Duration:700ms.Effect:Loop"><animate id="Cloud2-1" begin="Cloud2-2.begin + 0s" fill="freeze" attributeName="points" dur="700ms" to="-2.95,92.01 14.66,109.94 38.04,131.46 58.37,141.75 104.93,150 139.86,150 162.26,146.25 195.25,137.61 224.03,125.52 256.99,106.46 282.82,127.45 299.35,134.75 318.23,141.58 338.37,143.99 354.55,145.23 375.83,143.56 391.58,140.4 407.61,135.5 421.26,127.45 449.81,106.2 456.87,112.91 463.93,117.25 476.43,121.16 488.56,121.69 503.01,121.02 517.34,120.34 531.34,118.81 540.22,112.73 551.31,104.23 557.4,96.27 567.13,102.31 580.73,107.42 595.35,112.5 609.74,115.81 626.31,120.2 649.87,124.98 676.09,124.13 702.54,122.48 735.99,117.64 825.76,88.75 834.35,100.29 849.9,107.81 869.52,117.73 893.36,121.23 911.71,121.43 942.05,119.57 962.67,115.78 986.44,106.58 1002.67,99.69 1021.55,91.11 1039.47,106.33 1054.65,113.54 1069.98,118.99 1085.55,122.97 1105.98,126.55 1121.74,127.56 1149.93,125.34 1175.34,120.13 1193.89,112.88 1233.33,93.02 1242.44,99.85 1249.49,107.41 1265.63,112.42 1286.69,116.42 1308.35,119.88 1331.37,120.41 1356.7,118.72 1386.01,112.23 1405.43,103.13 1429.32,91.79 1436.51,101.88 1446.58,112.59 1474.66,122.66 1508.04,130.63 1527.88,130.63 1561.72,127.73 1581.86,123.46 1610.3,117.32 1628.57,107.62 1655.66,92.87 1670.09,105.77 1692.68,117.17 1719.24,123.65 1745.34,129.59 1782.37,131.96 1818.22,131.44 1857.68,125.11 1900.85,115.42 1935.1,98.32 1969.89,69.97 2009.81,92.05 2043.86,109.63 2088.83,113.25 2162.78,115.29 2211.7,97.15 2239.38,59.73 2256.03,23.31 2231.38,-29.16 2204.36,-69.06 2182.67,-82.85 2197.34,-103.35 2204.83,-126.99 2189.82,-151.65 2177,-182.84 2151.11,-191.74 2115.56,-197.39 2077.73,-206.57 2041.93,-205.34 2006.23,-198.49 1966,-165.43 1931.43,-177.23 1906.05,-195.19 1874.14,-209.66 1849.06,-210.57 1823.84,-203.29 1805.89,-193.18 1788.62,-178.06 1766.92,-167.7 1756.71,-155.63 1742.75,-147.87 1727.01,-167.61 1689.39,-195.87 1644.58,-215.25 1612.74,-217.3 1568.42,-212.87 1540.51,-203.77 1511.71,-195.66 1482.85,-178.09 1461.54,-167.28 1439.63,-154.85 1398.17,-181.44 1351.49,-189.26 1323.74,-197.16 1296.38,-197.51 1258.49,-195.93 1233.73,-187.44 1211.3,-179.57 1191.84,-164.68 1170.42,-156.74 1152.09,-141.83 1133.63,-164.96 1098.46,-191.45 1072.23,-200.49 1039.95,-204.33 1016.58,-208.56 978.85,-216.73 949.6,-214.4 920.86,-196.46 890.32,-174.76 875.68,-164.24 844.15,-182.84 811.7,-200.35 784.34,-215.83 747.85,-215.83 697.89,-214.22 650.94,-209.19 625.37,-198.41 597.85,-183.54 570.57,-165.75 548.37,-159.3 520.11,-189.88 482.94,-206.42 462.2,-212.85 427.66,-214.07 410.74,-206.4 394.78,-193.95 380.08,-182.23 369.06,-171.23 353.04,-147.94 333.4,-176.67 296.28,-186.2 264.4,-197.97 231.77,-204.36 206.99,-201.34 172.63,-196.23 151.39,-184.69 116.37,-175.88 97.2,-161.49 66.95,-149.44 28.3,-159.25 -6.73,-171.49 -50.61,-180.06 -84.42,-185.88 -125.31,-194.31 -152.95,-200.43 -172.19,-207.97 -206.04,-210.52 -231.6,-197.24 -262.97,-176.3 -286.27,-199.42 -319.68,-206.3 -359,-206.3 -389.34,-187.01 -416.11,-162.39 -437.51,-140.61 -459,-112.61 -461.91,-91.73 -469.64,-74.31 -462.03,-52.11 -481.46,-26.52 -497,22.44 -498.34,48.95 -498.34,80.6 -497.1,107.35 -472.19,127.04 -416.7,139.57 -361.37,136.01 -323.36,129.51 -263.58,93.4 -248.62,118.43 -227.11,135.2 -198.34,139.04 -160.47,150 -120.04,140 -88.94,132 -65.25,119.6 -40.05,109.54 -22.45,99.99 -2.95,92.01 -2.95,92.01"/><animate id="Cloud2-2" begin="0; Cloud2-1.begin + 700ms" fill="freeze" attributeName="points" dur="700ms" to="256.99,106.46 282.82,127.45 299.35,134.75 318.23,141.58 338.37,143.99 354.55,145.23 375.83,143.56 391.58,140.4 407.61,135.5 421.26,127.45 449.81,106.2 456.87,112.91 463.93,117.25 476.43,121.16 488.56,121.69 503.01,121.02 517.34,120.34 531.34,118.81 540.22,112.73 551.31,104.23 557.4,96.27 567.13,102.31 580.73,107.42 595.35,112.5 609.74,115.81 626.31,120.2 649.87,124.98 676.09,124.13 702.54,122.48 735.99,117.64 825.76,88.75 834.35,100.29 849.9,107.81 869.52,117.73 893.36,121.23 911.71,121.43 942.05,119.57 962.67,115.78 986.44,106.58 1002.67,99.69 1021.55,91.11 1039.47,106.33 1054.65,113.54 1069.98,118.99 1085.55,122.97 1105.98,126.55 1121.74,127.56 1149.93,125.34 1175.34,120.13 1193.89,112.88 1233.33,93.02 1242.44,99.85 1249.49,107.41 1265.63,112.42 1286.69,116.42 1308.35,119.88 1331.37,120.41 1356.7,118.72 1386.01,112.23 1405.43,103.13 1429.32,91.79 1436.51,101.88 1446.58,112.59 1474.66,122.66 1508.04,130.63 1527.88,130.63 1561.72,127.73 1581.86,123.46 1610.3,117.32 1628.57,107.62 1655.66,92.87 1670.09,105.77 1692.68,117.17 1719.24,123.65 1745.34,129.59 1782.37,131.96 1818.22,131.44 1857.68,125.11 1900.85,115.42 1935.1,98.32 1969.89,69.97 2009.81,92.05 2043.86,109.63 2088.83,113.25 2162.78,115.29 2211.7,97.15 2239.38,59.73 2256.03,23.31 2231.38,-29.16 2204.36,-69.06 2182.67,-82.85 2197.34,-103.35 2204.83,-126.99 2189.82,-151.65 2177,-182.84 2151.11,-191.74 2115.56,-197.39 2077.73,-206.57 2041.93,-205.34 2006.23,-198.49 1966,-165.43 1931.43,-177.23 1906.05,-195.19 1874.14,-209.66 1849.06,-210.57 1823.84,-203.29 1805.89,-193.18 1788.62,-178.06 1766.92,-167.7 1756.71,-155.63 1742.75,-147.87 1727.01,-167.61 1689.39,-195.87 1644.58,-215.25 1612.74,-217.3 1568.42,-212.87 1540.51,-203.77 1511.71,-195.66 1482.85,-178.09 1461.54,-167.28 1439.63,-154.85 1398.17,-181.44 1351.49,-189.26 1323.74,-197.16 1296.38,-197.51 1258.49,-195.93 1233.73,-187.44 1211.3,-179.57 1191.84,-164.68 1170.42,-156.74 1152.09,-141.83 1133.63,-164.96 1098.46,-191.45 1072.23,-200.49 1039.95,-204.33 1016.58,-208.56 978.85,-216.73 949.6,-214.4 920.86,-196.46 890.32,-174.76 875.68,-164.24 844.15,-182.84 811.7,-200.35 784.34,-215.83 747.85,-215.83 697.89,-214.22 650.94,-209.19 625.37,-198.41 597.85,-183.54 570.57,-165.75 548.37,-159.3 520.11,-189.88 482.94,-206.42 462.2,-212.85 427.66,-214.07 410.74,-206.4 394.78,-193.95 380.08,-182.23 369.06,-171.23 353.04,-147.94 333.4,-176.67 296.28,-186.2 264.4,-197.97 231.77,-204.36 206.99,-201.34 172.63,-196.23 151.39,-184.69 116.37,-175.88 97.2,-161.49 66.95,-149.44 28.3,-159.25 -6.73,-171.49 -50.61,-180.06 -84.42,-185.88 -125.31,-194.31 -152.95,-200.43 -172.19,-207.97 -206.04,-210.52 -231.6,-197.24 -262.97,-176.3 -286.27,-199.42 -319.68,-206.3 -359,-206.3 -389.34,-187.01 -416.11,-162.39 -437.51,-140.61 -459,-112.61 -461.91,-91.73 -469.64,-74.31 -462.03,-52.11 -481.46,-26.52 -497,22.44 -498.34,48.95 -498.34,80.6 -497.1,107.35 -472.19,127.04 -416.7,139.57 -361.37,136.01 -323.36,129.51 -263.58,93.4 -248.62,118.43 -227.11,135.2 -198.34,139.04 -160.47,150 -120.04,140 -88.94,132 -65.25,119.6 -40.05,109.54 -22.45,99.99 -2.95,92.01 14.66,109.94 38.04,131.46 58.37,141.75 104.93,150 139.86,150 162.26,146.25 195.25,137.61 224.03,125.52 256.99,106.46 256.99,106.46"/></polygon><polygon points="221.49,4.99 186.4,14.62 154.6,26.63 114.77,35.04 84.07,40.75 46.95,49.03 21.86,55.03 4.4,62.44 -26.34,64.94 -49.54,51.9 -78.02,31.35 -99.16,54.05 -129.49,60.79 -165.19,60.79 -192.73,41.86 -217.03,17.7 -236.47,-3.68 -255.97,-31.16 -258.61,-51.65 -265.63,-68.75 -258.73,-90.54 -276.36,-115.65 -290.46,-163.7 -291.69,-189.71 -291.69,-220.78 -290.56,-247.03 -267.95,-266.36 -217.57,-278.66 -167.35,-275.16 -132.83,-268.78 -78.57,-233.34 -64.99,-257.91 -45.46,-274.36 -19.34,-278.14 15.03,-288.89 51.74,-279.08 79.97,-271.22 101.48,-259.06 124.35,-249.18 140.32,-239.81 158.03,-231.98 174.02,-249.57 195.24,-270.7 213.69,-280.8 255.97,-288.89 287.67,-288.89 308.01,-285.21 337.96,-276.73 364.08,-264.87 394.01,-246.16 417.45,-266.76 432.46,-273.93 449.6,-280.62 467.88,-282.99 482.57,-284.21 501.89,-282.57 516.18,-279.47 530.74,-274.66 543.13,-266.76 569.05,-245.91 575.46,-252.5 581.87,-256.75 593.21,-260.58 604.22,-261.11 617.34,-260.45 630.35,-259.78 643.06,-258.29 651.12,-252.32 661.19,-243.97 666.72,-236.16 675.55,-242.08 687.9,-247.1 701.17,-252.09 714.23,-255.34 729.27,-259.65 750.66,-264.34 774.46,-263.5 798.48,-261.88 828.84,-257.13 910.33,-228.78 918.13,-240.11 932.25,-247.48 950.06,-257.22 971.71,-260.66 988.36,-260.85 1015.9,-259.02 1034.63,-255.3 1056.2,-246.27 1070.94,-239.51 1088.07,-231.09 1104.34,-246.03 1118.12,-253.1 1132.04,-258.45 1146.18,-262.36 1164.72,-265.87 1179.03,-266.86 1204.62,-264.69 1227.68,-259.57 1244.53,-252.46 1280.32,-232.97 1288.6,-239.67 1295,-247.09 1309.65,-252.01 1328.77,-255.94 1348.43,-259.33 1369.33,-259.85 1392.32,-258.19 1418.93,-251.82 1436.56,-242.89 1458.25,-231.77 1464.78,-241.67 1473.91,-252.17 1499.41,-262.06 1529.71,-269.88 1547.72,-269.88 1578.44,-267.04 1596.72,-262.85 1622.54,-256.81 1639.12,-247.3 1663.72,-232.82 1676.82,-245.49 1697.33,-256.67 1721.44,-263.03 1745.13,-268.86 1778.74,-271.19 1811.29,-270.67 1847.11,-264.46 1886.3,-254.95 1917.39,-238.17 1948.97,-210.34 1985.22,-232.02 2016.13,-249.27 2056.95,-252.82 2124.08,-254.83 2168.49,-237.02 2193.62,-200.3 2208.74,-164.56 2186.36,-113.06 2161.83,-73.9 2142.14,-60.36 2155.46,-40.24 2162.26,-17.05 2148.63,7.16 2136.99,37.77 2113.49,46.51 2081.22,52.05 2046.88,61.06 2014.38,59.86 1981.97,53.13 1945.44,20.69 1914.07,32.27 1891.02,49.89 1862.05,64.1 1839.29,64.98 1816.39,57.84 1800.09,47.92 1784.42,33.08 1764.72,22.91 1755.45,11.07 1742.77,3.45 1728.49,22.82 1694.34,50.56 1653.66,69.57 1624.75,71.59 1584.52,67.24 1559.19,58.31 1533.04,50.36 1506.84,33.11 1487.5,22.5 1467.61,10.3 1429.97,36.4 1387.6,44.07 1362.4,51.82 1337.56,52.17 1303.17,50.61 1280.69,42.29 1260.33,34.56 1242.66,19.95 1223.22,12.16 1206.57,-2.48 1189.82,20.22 1157.89,46.22 1134.08,55.09 1104.78,58.86 1083.56,63.02 1049.31,71.03 1022.76,68.74 996.67,51.14 968.95,29.84 955.65,19.51 927.03,37.77 897.57,54.96 872.73,70.15 839.61,70.15 794.25,68.57 751.64,63.63 728.42,53.05 703.44,38.46 678.67,21 658.52,14.66 632.87,44.68 599.12,60.91 580.29,67.22 548.94,68.42 533.58,60.89 519.09,48.68 505.75,37.17 495.74,26.38 481.2,3.52 463.37,31.71 429.67,41.07 400.73,52.62 371.11,58.89 348.61,55.93 317.43,50.91 298.14,39.58 266.35,30.94 248.95,16.82 221.49,4.99 221.49,4.99" fill="#6a5b46" stroke="#282118" stroke-width="3px" vector-effect="non-scaling-stroke" id="Cloud2.Duration:600ms.Effect:Loop"><animate id="Cloud2-1" begin="Cloud2-2.begin + 0s" fill="freeze" attributeName="points" dur="600ms" to="221.49,4.99 186.4,14.62 154.6,26.63 114.77,35.04 84.07,40.75 46.95,49.03 21.86,55.03 4.4,62.44 -26.34,64.94 -49.54,51.9 -78.02,31.35 -99.16,54.05 -129.49,60.79 -165.19,60.79 -192.73,41.86 -217.03,17.7 -236.47,-3.68 -255.97,-31.16 -258.61,-51.65 -265.63,-68.75 -258.73,-90.54 -276.36,-115.65 -290.46,-163.7 -291.69,-189.71 -291.69,-220.78 -290.56,-247.03 -267.95,-266.36 -217.57,-278.66 -167.35,-275.16 -132.83,-268.78 -78.57,-233.34 -64.99,-257.91 -45.46,-274.36 -19.34,-278.14 15.03,-288.89 51.74,-279.08 79.97,-271.22 101.48,-259.06 124.35,-249.18 140.32,-239.81 158.03,-231.98 174.02,-249.57 195.24,-270.7 213.69,-280.8 255.97,-288.89 287.67,-288.89 308.01,-285.21 337.96,-276.73 364.08,-264.87 394.01,-246.16 417.45,-266.76 432.46,-273.93 449.6,-280.62 467.88,-282.99 482.57,-284.21 501.89,-282.57 516.18,-279.47 530.74,-274.66 543.13,-266.76 569.05,-245.91 575.46,-252.5 581.87,-256.75 593.21,-260.58 604.22,-261.11 617.34,-260.45 630.35,-259.78 643.06,-258.29 651.12,-252.32 661.19,-243.97 666.72,-236.16 675.55,-242.08 687.9,-247.1 701.17,-252.09 714.23,-255.34 729.27,-259.65 750.66,-264.34 774.46,-263.5 798.48,-261.88 828.84,-257.13 910.33,-228.78 918.13,-240.11 932.25,-247.48 950.06,-257.22 971.71,-260.66 988.36,-260.85 1015.9,-259.02 1034.63,-255.3 1056.2,-246.27 1070.94,-239.51 1088.07,-231.09 1104.34,-246.03 1118.12,-253.1 1132.04,-258.45 1146.18,-262.36 1164.72,-265.87 1179.03,-266.86 1204.62,-264.69 1227.68,-259.57 1244.53,-252.46 1280.32,-232.97 1288.6,-239.67 1295,-247.09 1309.65,-252.01 1328.77,-255.94 1348.43,-259.33 1369.33,-259.85 1392.32,-258.19 1418.93,-251.82 1436.56,-242.89 1458.25,-231.77 1464.78,-241.67 1473.91,-252.17 1499.41,-262.06 1529.71,-269.88 1547.72,-269.88 1578.44,-267.04 1596.72,-262.85 1622.54,-256.81 1639.12,-247.3 1663.72,-232.82 1676.82,-245.49 1697.33,-256.67 1721.44,-263.03 1745.13,-268.86 1778.74,-271.19 1811.29,-270.67 1847.11,-264.46 1886.3,-254.95 1917.39,-238.17 1948.97,-210.34 1985.22,-232.02 2016.13,-249.27 2056.95,-252.82 2124.08,-254.83 2168.49,-237.02 2193.62,-200.3 2208.74,-164.56 2186.36,-113.06 2161.83,-73.9 2142.14,-60.36 2155.46,-40.24 2162.26,-17.05 2148.63,7.16 2136.99,37.77 2113.49,46.51 2081.22,52.05 2046.88,61.06 2014.38,59.86 1981.97,53.13 1945.44,20.69 1914.07,32.27 1891.02,49.89 1862.05,64.1 1839.29,64.98 1816.39,57.84 1800.09,47.92 1784.42,33.08 1764.72,22.91 1755.45,11.07 1742.77,3.45 1728.49,22.82 1694.34,50.56 1653.66,69.57 1624.75,71.59 1584.52,67.24 1559.19,58.31 1533.04,50.36 1506.84,33.11 1487.5,22.5 1467.61,10.3 1429.97,36.4 1387.6,44.07 1362.4,51.82 1337.56,52.17 1303.17,50.61 1280.69,42.29 1260.33,34.56 1242.66,19.95 1223.22,12.16 1206.57,-2.48 1189.82,20.22 1157.89,46.22 1134.08,55.09 1104.78,58.86 1083.56,63.02 1049.31,71.03 1022.76,68.74 996.67,51.14 968.95,29.84 955.65,19.51 927.03,37.77 897.57,54.96 872.73,70.15 839.61,70.15 794.25,68.57 751.64,63.63 728.42,53.05 703.44,38.46 678.67,21 658.52,14.66 632.87,44.68 599.12,60.91 580.29,67.22 548.94,68.42 533.58,60.89 519.09,48.68 505.75,37.17 495.74,26.38 481.2,3.52 463.37,31.71 429.67,41.07 400.73,52.62 371.11,58.89 348.61,55.93 317.43,50.91 298.14,39.58 266.35,30.94 248.95,16.82 221.49,4.99 221.49,4.99"/><animate id="Cloud2-2" begin="0; Cloud2-1.begin + 600ms" fill="freeze" attributeName="points" dur="600ms" to="658.52,14.66 632.87,44.68 599.12,60.91 580.29,67.22 548.94,68.42 533.58,60.89 519.09,48.68 505.75,37.17 495.74,26.38 481.2,3.52 463.37,31.71 429.67,41.06 400.73,52.62 371.11,58.89 348.61,55.93 317.43,50.91 298.14,39.58 266.35,30.94 248.95,16.82 221.49,4.99 186.4,14.62 154.6,26.63 114.77,35.04 84.07,40.75 46.96,49.03 21.86,55.03 4.4,62.44 -26.34,64.94 -49.54,51.9 -78.02,31.35 -99.16,54.05 -129.49,60.79 -165.19,60.79 -192.73,41.86 -217.03,17.7 -236.46,-3.68 -255.97,-31.16 -258.61,-51.65 -265.63,-68.75 -258.73,-90.54 -276.36,-115.65 -290.46,-163.7 -291.69,-189.71 -291.69,-220.78 -290.55,-247.03 -267.95,-266.36 -217.57,-278.66 -167.35,-275.16 -132.83,-268.78 -78.57,-233.34 -64.98,-257.91 -45.46,-274.36 -19.34,-278.14 15.03,-288.89 51.74,-279.08 79.97,-271.22 101.48,-259.06 124.35,-249.18 140.33,-239.81 158.03,-231.98 174.02,-249.57 195.24,-270.7 213.7,-280.8 255.97,-288.89 287.67,-288.89 308.01,-285.21 337.96,-276.73 364.08,-264.87 394.01,-246.16 417.45,-266.76 432.46,-273.93 449.6,-280.62 467.88,-282.99 482.57,-284.21 501.89,-282.57 516.18,-279.47 530.74,-274.66 543.13,-266.76 569.05,-245.91 575.46,-252.5 581.87,-256.75 593.21,-260.58 604.22,-261.11 617.35,-260.45 630.35,-259.78 643.06,-258.29 651.12,-252.32 661.19,-243.97 666.72,-236.16 675.56,-242.08 687.9,-247.1 701.17,-252.09 714.23,-255.34 729.27,-259.65 750.66,-264.34 774.46,-263.5 798.48,-261.88 828.84,-257.13 910.33,-228.78 918.13,-240.11 932.25,-247.48 950.06,-257.22 971.71,-260.66 988.36,-260.85 1015.9,-259.02 1034.63,-255.3 1056.2,-246.27 1070.94,-239.51 1088.07,-231.09 1104.34,-246.03 1118.12,-253.1 1132.04,-258.45 1146.18,-262.36 1164.72,-265.87 1179.03,-266.86 1204.62,-264.69 1227.68,-259.57 1244.53,-252.46 1280.32,-232.97 1288.6,-239.67 1295,-247.09 1309.65,-252.01 1328.77,-255.94 1348.43,-259.33 1369.33,-259.85 1392.32,-258.19 1418.93,-251.82 1436.56,-242.89 1458.25,-231.77 1464.78,-241.67 1473.91,-252.17 1499.41,-262.06 1529.71,-269.88 1547.72,-269.88 1578.44,-267.04 1596.72,-262.85 1622.54,-256.81 1639.12,-247.3 1663.72,-232.82 1676.82,-245.49 1697.33,-256.67 1721.44,-263.03 1745.13,-268.86 1778.74,-271.19 1811.29,-270.67 1847.11,-264.46 1886.3,-254.95 1917.39,-238.17 1948.97,-210.34 1985.22,-232.02 2016.13,-249.27 2056.95,-252.82 2124.08,-254.83 2168.49,-237.02 2193.62,-200.3 2208.74,-164.56 2186.36,-113.06 2161.83,-73.9 2142.14,-60.36 2155.46,-40.24 2162.26,-17.05 2148.63,7.16 2136.99,37.77 2113.49,46.51 2081.22,52.05 2046.88,61.06 2014.38,59.86 1981.97,53.13 1945.44,20.69 1914.07,32.27 1891.02,49.89 1862.05,64.1 1839.29,64.98 1816.39,57.84 1800.09,47.92 1784.42,33.08 1764.72,22.91 1755.45,11.07 1742.77,3.45 1728.49,22.82 1694.34,50.56 1653.66,69.57 1624.75,71.59 1584.52,67.24 1559.19,58.31 1533.04,50.36 1506.84,33.11 1487.5,22.5 1467.61,10.3 1429.97,36.4 1387.6,44.07 1362.4,51.82 1337.56,52.17 1303.17,50.61 1280.69,42.29 1260.33,34.56 1242.66,19.95 1223.22,12.16 1206.57,-2.48 1189.82,20.22 1157.89,46.22 1134.08,55.09 1104.78,58.86 1083.56,63.02 1049.31,71.03 1022.76,68.74 996.67,51.14 968.95,29.84 955.65,19.51 927.03,37.77 897.57,54.96 872.73,70.15 839.61,70.15 794.25,68.57 751.64,63.63 728.42,53.05 703.44,38.46 678.67,21 658.52,14.66 658.52,14.66"/></polygon></svg>