<?xml version="1.0" encoding="UTF-8" standalone="no"?><!DOCTYPE svg PUBLIC "-//W3C//DTD SVG 1.1//EN" "http://www.w3.org/Graphics/SVG/1.1/DTD/svg11.dtd"><svg width="100%" height="100%" viewBox="0 0 225 113" version="1.1" xmlns="http://www.w3.org/2000/svg" xmlns:xlink="http://www.w3.org/1999/xlink" xml:space="preserve" xmlns:serif="http://www.serif.com/" style="fill-rule:evenodd;clip-rule:evenodd;stroke-linecap:square;stroke-miterlimit:1"><polygon points="17.11,127.32 17.11,123.58 17.01,119.59 17.44,115.32 18.69,111.58 20.85,107.19 24.15,101.83 27.3,98.79 31.9,95.55 38.14,91.52 42.73,87.42 46.08,84.41 49.49,80.5 52.8,76.46 55.79,72.22 56.75,69.21 57.5,74.69 57.92,78.23 58.86,82.07 58.78,86.92 58.68,91.52 58.23,94.63 56.82,98.23 55.38,100.37 58.16,100.14 61.15,98.19 64.46,91.52 69.13,85.41 72.97,80.7 77.61,77.2 81.82,74.68 87.36,70.87 93.7,66.37 100.42,61.14 108.35,56.2 115.94,51.28 119.48,49.49 123.07,49.38 121.33,51.98 120.55,54.57 120.29,59.52 120.29,64.09 128.67,60.83 135.03,57.05 138.43,53.63 144.13,46.79 146.94,42.1 150.45,37.31 154.44,31.81 157.7,26.69 160.96,21.4 165.48,17.97 164.33,22.57 164.41,25.83 165.14,29.61 165.81,33.61 166.94,37.2 167.53,36.85 169.27,31.77 171.69,27.02 175.56,20.57 179.73,15.86 183.55,11.84 187.38,8.58 193.32,3.39 196.64,2.17 203.45,0.53 206.68,1.3 204.57,3.45 202.99,6.28 202.65,12.56 202.5,16.69 202.94,24.06 203.99,28.72 205.36,32.89 206.68,37.11 209.03,40.12 209.94,42.53 210.28,44.89 210.73,39.9 212.9,36.03 218.26,31.75 227.84,29.49 232.22,29.49 236.75,29.69 234.49,33.03 233.08,38.39 233.05,43.19 233.84,50.71 234.21,56.23 235.09,62.06 239.33,57.03 245.51,52.4 254.49,52.24 260.42,53.51 257.43,55.6 256.45,62.06 256.57,68.53 257.34,76.61 257.73,79.23 264.36,74.78 270.53,72.25 274.62,72.52 277.31,73.1 274.43,78.81 273.22,85.89 273.18,91.52 275.53,98.22 277.8,95.04 281.45,91.52 288.46,87.34 297.3,85.21 292.61,90.48 289.97,96.61 288.66,102.85 287.79,110.55 287.7,116.55 287.52,123.58 290.51,119.28 295.76,117.54 304.12,119.7 299.25,121.3 297,123.58 292.32,131.03 289.66,136.8 284.73,144.38 275.86,151.02 266.57,154.99 258.75,159.37 249.5,163.45 238.2,166.28 226.09,168.3 215.61,168.85 197.83,170.3 167.78,169.36 155.74,170.46 144.46,170.63 131.55,170.32 120.27,169.75 109.92,169 98.44,168.72 84.81,166.28 71.25,163.36 57.19,158.23 44.53,153.57 33.63,149.63 26.7,146.37 17.21,141.75 12.1,137.25 5.71,131.67 3.16,128.18 1.22,123.58 0.53,121.5 1.22,118.95 5.99,123.58 12.24,126.9 17.11,127.32 17.11,127.32" fill="#f6be00" stroke="#77410e" stroke-width="3px" vector-effect="non-scaling-stroke" id="FlameBottomRight.Effect:Loop.Duration:500ms"><path id="FlameBottomRight-1" begin="FlameBottomRight-2.begin + 0s" attributeName="display" dur="500ms"/><path id="FlameBottomRight-2" begin="0; FlameBottomRight-1.begin + 500ms" attributeName="display" dur="500ms"/></polygon><polygon points="20.18,128.49 20.39,123.78 20.84,121.36 21.54,118.69 23.07,114.95 24.49,112.28 26.33,109.28 29.1,105.83 33.24,103.32 35.13,102 38.96,99.8 41.54,97.27 45.36,94.47 48.08,91.94 50.1,90 50.31,88.93 50.36,91.13 50.39,92.41 50.13,93.8 49.54,96.24 48.66,99.41 48.36,104.48 49.19,107.44 52.45,108.78 55.99,108.95 60.16,107.6 61.68,106.13 65.27,103.07 67.51,99.15 69.35,96.25 72.13,92.78 74.39,90 78.85,86.59 84.81,82.41 89.11,80.07 94.68,76.27 98.58,74.06 104.14,69.66 108.34,67.03 111.87,64.61 113.18,63.53 112.75,66.18 112.68,69.02 113.45,71.37 114.33,73.39 115.54,74.96 116.41,75.95 120.64,74.52 123.47,73.2 128.27,71.53 131.53,69.71 136.13,67.28 140.62,63.41 146.19,58.13 150.66,53.7 153.45,48.22 155.59,43.44 157.37,40.86 158.41,39.32 158.99,41.42 160.41,43.79 161.79,46.32 163.9,48.38 165.7,50.15 167.04,51.07 169.02,51.85 171.41,45.63 172.83,41.13 176.35,34.73 179.78,28.38 181.25,26.64 184.2,23.08 188.43,20.52 193.17,18.68 195.52,18.23 194.3,20.74 193.7,22.96 192.91,27.17 193.66,30.13 194.52,34.19 195.16,37.79 196.18,40.31 197.81,43.56 199.44,45.48 200.62,47.66 201.66,49.69 203.02,51.73 204.61,53.91 205.77,55.68 206.5,57.11 207.63,58.91 208.35,60.76 210.56,57.67 212.34,55.22 212.92,52.58 214.03,49.77 216.97,45.46 220.26,43.52 226.23,42.19 225.97,43.8 225.93,47.64 225.81,51.09 226.36,54.38 226.33,57.53 226.97,61.48 227.77,65.53 228.81,68.66 230.5,71.71 231.97,73.32 232.57,74.75 234.79,72.03 237.58,68.92 241.63,65.85 245.09,63.95 247.25,63.02 249.44,63.08 249.2,66.26 249.4,70.44 249.65,75.6 250.42,80.51 251.39,83.68 253.15,87.36 254.62,90.2 258.11,88.76 261.47,86.16 264.95,84.49 267.87,83.77 266.18,87.93 265.95,91.26 266.32,95.57 267.68,100.37 269.32,103.98 270.73,107.14 272.21,108.54 275.21,106.63 278.15,104.29 281.67,100.66 282.98,99.83 280.46,107.01 280.25,108.8 280.35,111.71 280.04,115.08 280.39,122.11 280.21,124.79 280.81,127.72 281.53,129.38 282.35,130.45 283.36,131.15 283.76,130.01 285.19,129.42 284.53,131.94 283.67,134.73 275.5,141.67 271.27,145.37 265.37,147.38 258.8,150.45 247.21,154.32 237.85,156.74 224.41,158.21 215.39,159.29 203.75,160.78 183.9,161.99 171.71,161.81 150.66,162.76 133.65,162.53 115.79,162.08 101.28,161.79 88.37,160.67 75.16,157.76 60.07,154.3 38.8,145.96 31.81,142.37 23.05,137.95 19.45,134.55 20.18,128.49 20.18,128.49" fill="#fceb4b" stroke="#915d00" stroke-width="3px" stroke-linecap="round" stroke-linejoin="round" stroke-miterlimit="1.5" vector-effect="non-scaling-stroke" id="FlameBottomRighInside.Effect:Loop.Duration:500ms"><path id="FlameBottomRighInside-1" begin="FlameBottomRighInside-2.begin + 0s" attributeName="display" dur="500ms"/><path id="FlameBottomRighInside-2" begin="0; FlameBottomRighInside-1.begin + 500ms" attributeName="display" dur="500ms"/></polygon></svg>