<?xml version="1.0" encoding="UTF-8" standalone="no"?><!DOCTYPE svg PUBLIC "-//W3C//DTD SVG 1.1//EN" "http://www.w3.org/Graphics/SVG/1.1/DTD/svg11.dtd"><svg width="100%" height="100%" viewBox="0 0 1024 600" version="1.1" xmlns="http://www.w3.org/2000/svg" xmlns:xlink="http://www.w3.org/1999/xlink" xml:space="preserve" xmlns:serif="http://www.serif.com/" style="fill-rule:evenodd;clip-rule:evenodd;stroke-linecap:square;stroke-miterlimit:1"><polygon points="559.02,544.98 561.68,520.4 579.49,495.19 603.86,477.15 625.37,458.42 644.65,434.03 646.33,454.14 644.09,478.85 646.75,500.97 648.07,510.84 659.67,486.01 674.15,461.52 693.82,446.85 717.64,428.49 743.69,412.03 768,395.62 784.62,385.81 781.83,407.56 780.85,434.47 795.52,422.96 813.25,406.24 832.67,384.93 845.94,365.38 856.98,340.49 863.05,326.73 873.04,333.83 877.37,347.84 883.59,357.65 890.64,346.46 901.19,326.98 923.96,306.29 943.3,291.4 963.84,284.48 982.91,286.5 970.34,305.35 954.69,330.18 955.53,352.81 960.98,369.66 980.81,357.46 992.96,334.96 1000.72,346.21 1004.35,383.8 995.2,405.99 978.4,431.02 1005.71,427.44 1026.07,410.27 1035.64,392.54 1035.01,422.02 1026.52,453.95 1012.38,477.15 1036.71,473.02 1053.89,461.42 1073.14,437.62 1075.38,452.89 1056.38,477.78 1044.93,493.87 1029.88,515.91 1023.84,544.72 1032.99,555.6 1051.72,544.64 1065.33,521.07 1069.69,532.33 1072.1,552.45 1059.25,569.81 1039.97,585.58 1013.57,602.43 947.5,613.24 848.74,612.86 767.79,611.04 674.75,606.2 626.42,598.41 568.38,563.77 559.02,544.98 559.02,544.98" style="fill:#c88b00;stroke:#662500;stroke-width:4px;"><animate id="flamaDerecha-1" begin="0; flamaDerecha-2.begin + 400ms" fill="freeze" attributeName="points" dur="400ms" to="559.02,544.98 561.68,520.4 579.49,495.19 603.86,477.15 625.37,458.42 644.65,434.03 646.33,454.14 644.09,478.85 646.75,500.97 648.07,510.84 659.67,486.01 674.15,461.52 693.82,446.85 717.64,428.49 743.69,412.03 768,395.62 784.62,385.81 781.83,407.56 780.85,434.47 795.52,422.96 813.25,406.24 832.67,384.93 845.94,365.38 856.98,340.49 863.05,326.73 873.04,333.83 877.37,347.84 883.59,357.65 890.64,346.46 901.19,326.98 923.96,306.29 943.3,291.4 963.84,284.48 982.91,286.5 970.34,305.35 954.69,330.18 955.53,352.81 960.98,369.66 980.81,357.46 992.96,334.96 1000.72,346.21 1004.35,383.8 995.2,405.99 978.4,431.02 1005.71,427.44 1026.07,410.27 1035.64,392.54 1035.01,422.02 1026.52,453.95 1012.38,477.15 1036.71,473.02 1053.89,461.42 1073.14,437.62 1075.38,452.89 1056.38,477.78 1044.93,493.87 1029.88,515.91 1023.84,544.72 1032.99,555.6 1051.72,544.64 1065.33,521.07 1069.69,532.33 1072.1,552.45 1059.25,569.81 1039.97,585.58 1013.57,602.43 947.5,613.24 848.74,612.86 767.79,611.04 674.75,606.2 626.42,598.41 568.38,563.77 559.02,544.98 559.02,544.98"/><animate id="flamaDerecha-2" begin="flamaDerecha-1.begin + 400ms" fill="freeze" attributeName="points" dur="400ms" to="567.21,532.51 569.82,496.13 584.9,477.96 589.65,500.46 603.82,516.36 611.01,481.78 641.19,450.29 658.03,443.18 675.88,440.78 658.89,471.56 670.14,501.57 690.6,464 723.03,438.08 750.17,424.62 770.38,411.32 788.03,401.04 804.57,400.75 768.49,440.89 764.35,460.21 779.94,448.6 819.96,434.32 827.34,393.39 851.27,353.53 894.79,309.85 878.67,357.46 883.86,380.4 897.54,400.5 903.28,347.83 925.01,321.99 952.86,291.73 1005.7,287.77 967.73,318.56 954.43,340.69 958.15,365.33 985.56,355.56 1010.52,333.81 1039.09,337.76 1007.48,376.04 997.09,395.26 996.03,434.9 1023.47,410.97 1069.72,389.03 1032.03,432.03 1034.68,486.87 1048.15,471.4 1066.02,451 1110.31,438.05 1089.6,471.28 1073.1,491.46 1060.42,514.16 1058.98,530.05 1079.15,516.97 1091.65,505.18 1108.68,502.02 1146.11,510.05 1112.09,513.63 1088.5,530.51 1070.93,550.27 1056.82,584.03 1077.12,578.72 1088.41,566.46 1088.55,582.51 1075.89,599.95 1031.34,612.27 992.64,611.26 928.35,613.57 885.37,616.87 817.3,613.6 752.33,612.04 665.19,600.75 626.42,598.41 577.16,559.77 567.21,532.51 567.21,532.51"/></polygon><polygon points="401.3,485.04 403.08,448.37 391.37,409.2 372.55,379.98 356.42,350.03 343.26,311.93 338.35,341.55 336.17,378.37 330.04,410.87 327.17,425.35 320.98,387.38 312.13,349.62 296.96,325.88 278.7,296.25 258.12,269.18 239.09,242.39 225.83,226.16 224.65,258.66 220.97,298.61 209.76,280.06 196.68,253.48 182.86,219.92 174.27,189.6 168.58,151.6 165.46,130.59 155.3,140.09 149.04,160.4 141.8,174.29 137.37,156.99 131.2,127.05 114.27,94.08 99.44,70.03 82.19,57.68 64.73,58.71 72.82,87.93 82.65,126.31 78.07,159.74 70.33,184.13 54.59,164.03 47.5,129.46 38.64,145.33 29.01,200.63 33.46,234.43 44.29,273.23 20.4,265.13 5.04,237.6 -0.55,210.36 -4.98,254.09 -2.76,302.26 5.99,338.06 -15.14,329.44 -28.59,310.51 -41.83,273.28 -46.43,295.66 -33.6,334.48 -26.04,359.49 -16.28,393.68 -15.73,436.97 -25.78,452.14 -40.74,433.98 -48.96,397.68 -54.77,413.9 -60.35,443.47 -51.75,470.49 -37.13,495.83 -16.29,523.49 41.16,546.29 129.84,555.86 202.78,561.47 287.08,563.85 331.77,557.26 389.72,511.92 401.3,485.04 401.3,485.04" style="fill:#c88b00;stroke:#662500;stroke-width:4px;"><animate id="flamaIzquierda-1" begin="0; flamaIzquierda-2.begin + 400ms" fill="freeze" attributeName="points" dur="400ms" to="401.3,485.04 403.08,448.37 391.37,409.2 372.55,379.98 356.42,350.03 343.26,311.93 338.35,341.55 336.17,378.37 330.04,410.87 327.17,425.35 320.98,387.38 312.13,349.62 296.96,325.88 278.7,296.25 258.12,269.18 239.09,242.39 225.83,226.16 224.65,258.66 220.97,298.61 209.76,280.06 196.68,253.48 182.86,219.92 174.27,189.6 168.58,151.6 165.46,130.59 155.3,140.09 149.04,160.4 141.8,174.29 137.37,156.99 131.2,127.05 114.27,94.08 99.44,70.03 82.19,57.68 64.73,58.71 72.82,87.93 82.65,126.31 78.07,159.74 70.33,184.13 54.59,164.03 47.5,129.46 38.64,145.33 29.01,200.63 33.46,234.43 44.29,273.23 20.4,265.13 5.04,237.6 -0.55,210.36 -4.98,254.09 -2.76,302.26 5.99,338.06 -15.14,329.44 -28.59,310.51 -41.83,273.28 -46.43,295.66 -33.6,334.48 -26.04,359.49 -16.28,393.68 -15.73,436.97 -25.78,452.14 -40.74,433.98 -48.96,397.68 -54.77,413.9 -60.35,443.47 -51.75,470.49 -37.13,495.83 -16.29,523.49 41.16,546.29 129.84,555.86 202.78,561.47 287.08,563.85 331.77,557.26 389.72,511.92 401.3,485.04 401.3,485.04"/><animate id="flamaIzquierda-2" begin="flamaIzquierda-1.begin + 400ms" fill="freeze" attributeName="points" dur="400ms" to="396.06,465.74 399.88,411.59 389.43,383.13 381.36,415.97 365.95,438.06 365.35,386.12 343.61,336.38 329.7,324.12 314.09,318.72 324.12,366.06 308.94,409.36 296.95,351.61 272.24,309.89 250.17,287.17 234.29,265.4 220.19,248.36 205.4,246.23 230.97,309.39 231.42,338.43 219.39,319.62 185.9,294.37 186.22,233 171.5,171.5 139.84,102.35 146.25,174.51 137.7,207.95 122.03,236.32 125.79,157.72 110.67,117.22 90.81,69.54 44.07,58.26 72.92,107.75 81.11,141.89 73.59,178.01 50.65,160.73 31.94,125.96 5.64,128.87 27.52,188.81 33.58,218.34 27.82,277.17 7.25,238.91 -30.53,201.67 -3.99,269.21 -15.66,350.17 -25.12,325.87 -37.71,293.83 -75.25,270.1 -62.3,321.44 -50.91,353.02 -43.38,387.95 -44.78,411.64 -60.66,390.19 -69.88,371.45 -84.63,365.02 -119.58,373.07 -89.65,381.87 -71.35,409.29 -58.92,440.35 -51.99,491.8 -69.3,481.86 -77.35,462.54 -80.2,486.3 -71.79,513.43 -33.91,536.25 0.99,538.72 58.29,548.74 96.29,558.03 157.93,560.18 216.49,564.53 296.59,556.75 331.77,557.26 382.51,505.09 396.06,465.74 396.06,465.74"/></polygon></svg>