<?xml version="1.0" encoding="UTF-8" standalone="no"?><!DOCTYPE svg PUBLIC "-//W3C//DTD SVG 1.1//EN" "http://www.w3.org/Graphics/SVG/1.1/DTD/svg11.dtd"><svg width="100%" height="100%" viewBox="0 0 593 339" version="1.1" xmlns="http://www.w3.org/2000/svg" xmlns:xlink="http://www.w3.org/1999/xlink" xml:space="preserve" xmlns:serif="http://www.serif.com/" style="fill-rule:evenodd;clip-rule:evenodd;stroke-linecap:square;stroke-miterlimit:1"><polygon points="2.83,263.32 5.48,238.74 23.29,213.54 47.67,195.5 69.18,176.76 88.46,152.37 90.13,172.49 87.9,197.19 90.55,219.32 91.88,229.19 103.47,204.36 117.96,179.87 137.63,165.2 161.44,146.84 187.5,130.37 211.8,113.97 228.43,104.16 225.63,125.91 224.65,152.81 239.32,141.31 257.06,124.59 276.48,103.28 289.75,83.73 300.78,58.84 306.86,45.07 316.85,52.17 321.18,66.19 327.4,76 334.45,64.81 345,45.32 367.77,24.64 387.11,9.74 407.65,2.83 426.71,4.84 414.14,23.7 398.5,48.53 399.33,71.16 404.78,88 424.62,75.81 436.77,53.31 444.52,64.56 448.16,102.15 439.01,124.34 422.21,149.37 449.52,145.79 469.88,128.61 479.45,110.89 478.82,140.37 470.32,172.3 456.19,195.5 480.52,191.36 497.69,179.77 516.95,155.97 519.19,171.23 500.19,196.13 488.73,212.22 473.69,234.26 467.64,263.07 476.79,273.94 495.53,262.98 509.14,239.42 513.5,250.67 515.9,270.8 503.05,288.15 483.78,303.93 457.38,320.78 391.3,331.59 292.54,331.21 211.59,329.39 118.56,324.55 70.23,316.75 12.19,282.12 2.83,263.32 2.83,263.32" style="fill:#c88b00;stroke:#662500;stroke-width:4px;" id="flamaDerecha"><animate id="flamaDerecha-1" begin="flamaDerecha-2.begin + 400ms" fill="freeze" attributeName="points" dur="400ms" to="2.83,263.32 5.48,238.74 23.29,213.54 47.67,195.5 69.18,176.76 88.46,152.37 90.13,172.49 87.9,197.19 90.55,219.32 91.88,229.19 103.47,204.36 117.96,179.87 137.63,165.2 161.44,146.84 187.5,130.37 211.8,113.97 228.43,104.16 225.63,125.91 224.65,152.81 239.32,141.31 257.06,124.59 276.48,103.28 289.75,83.73 300.78,58.84 306.86,45.07 316.85,52.17 321.18,66.19 327.4,76 334.45,64.81 345,45.32 367.77,24.64 387.11,9.74 407.65,2.83 426.71,4.84 414.14,23.7 398.5,48.53 399.33,71.16 404.78,88 424.62,75.81 436.77,53.31 444.52,64.56 448.16,102.15 439.01,124.34 422.21,149.37 449.52,145.79 469.88,128.61 479.45,110.89 478.82,140.37 470.32,172.3 456.19,195.5 480.52,191.36 497.69,179.77 516.95,155.97 519.19,171.23 500.19,196.13 488.73,212.22 473.69,234.26 467.64,263.07 476.79,273.94 495.53,262.98 509.14,239.42 513.5,250.67 515.9,270.8 503.05,288.15 483.78,303.93 457.38,320.78 391.3,331.59 292.54,331.21 211.59,329.39 118.56,324.55 70.23,316.75 12.19,282.12 2.83,263.32 2.83,263.32"/><animate id="flamaDerecha-2" begin="0; flamaDerecha-1.begin + 400ms" fill="freeze" attributeName="points" dur="400ms" to="11.02,250.86 13.63,214.48 28.71,196.31 33.45,218.81 47.62,234.7 54.82,200.13 85,168.64 101.84,161.53 119.69,159.12 102.7,189.91 113.95,219.92 134.41,182.35 166.84,156.43 193.98,142.97 214.19,129.67 231.84,119.39 248.38,119.09 212.3,159.24 208.15,178.56 223.75,166.94 263.77,152.67 271.14,111.74 295.08,71.88 338.6,28.2 322.48,75.81 327.67,98.74 341.34,118.84 347.09,66.17 368.82,40.34 396.67,10.07 449.51,6.12 411.54,36.91 398.24,59.03 401.96,83.67 429.37,73.91 454.33,52.16 482.9,56.11 451.28,94.39 440.9,113.6 439.84,153.25 467.28,129.32 513.53,107.38 475.83,150.37 478.48,205.21 491.95,189.74 509.83,169.35 554.12,156.4 533.41,189.63 516.9,209.8 504.23,232.51 502.79,248.4 522.95,235.32 535.45,223.53 552.49,220.37 589.92,228.4 555.89,231.98 532.31,248.86 514.73,268.62 500.63,302.38 520.92,297.07 532.22,284.81 532.36,300.86 519.7,318.3 475.15,330.62 436.45,329.61 372.16,331.92 329.18,335.21 261.1,331.95 196.14,330.38 109,319.09 70.23,316.75 20.97,278.12 11.02,250.86 11.02,250.86"/></polygon><polygon points="36.76,277.63 22,264.79 16.87,243.32 39.1,226.86 58.72,209.77 76.31,187.53 77.84,205.88 75.8,228.41 81.6,244.44 88.59,255.46 101.18,243.61 110.63,232.35 125.89,209.26 142.89,182.48 166.66,167.46 188.83,152.49 203.99,143.54 201.44,163.38 200.55,187.93 213.93,177.43 232.31,169.48 247.85,157.67 264.59,143.92 271.69,138.3 279.78,131.96 289.49,126.49 301.93,110.9 312.18,80.67 320.9,104.44 332.22,116.42 342.17,94.25 349.31,70.66 367.48,51.11 385.56,35.77 380.33,61.07 377.97,76.01 381.19,89.73 391.81,104.58 404.49,116.01 430.4,93.39 418.1,118.2 404.43,141.71 396.22,156.41 405.01,166.31 421.46,166.77 438.06,166.34 466.68,145.73 460.72,157.84 452.42,173.71 444.38,184.62 436.37,198.44 430.59,210.71 448.7,211.2 462.81,206.19 485.04,199.52 460.43,223.9 453.28,235.53 446.6,251.87 442.18,267.22 450.55,280.78 464.92,286.24 480.71,287.7 467.17,297.94 445.4,303.01 419.53,310.7 377.87,312.45 325.17,313.4 265.88,314.77 217.43,312.87 158.62,310.26 111.76,308.33 73.55,299.39 51.08,288.13 36.76,277.63 36.76,277.63" style="fill:#fedc00;stroke:#855200;stroke-width:4px;" id="flamaDerechaDentro"><animate id="flamaDerechaDentro-1" begin="flamaDerechaDentro-2.begin + 400ms" fill="freeze" attributeName="points" dur="400ms" to="36.76,277.63 22,264.79 16.87,243.32 39.1,226.86 58.72,209.77 76.31,187.53 77.84,205.88 75.8,228.41 81.6,244.44 88.59,255.46 101.18,243.61 110.63,232.35 125.89,209.26 142.89,182.48 166.66,167.46 188.83,152.49 203.99,143.54 201.44,163.38 200.55,187.93 213.93,177.43 232.31,169.48 247.85,157.67 264.59,143.92 271.69,138.3 279.78,131.96 289.49,126.49 301.93,110.9 312.18,80.67 320.9,104.44 332.22,116.42 342.17,94.25 349.31,70.66 367.48,51.11 385.56,35.77 380.33,61.07 377.97,76.01 381.19,89.73 391.81,104.58 404.49,116.01 430.4,93.39 418.1,118.2 404.43,141.71 396.22,156.41 405.01,166.31 421.46,166.77 438.06,166.34 466.68,145.73 460.72,157.84 452.42,173.71 444.38,184.62 436.37,198.44 430.59,210.71 448.7,211.2 462.81,206.19 485.04,199.52 460.43,223.9 453.28,235.53 446.6,251.87 442.18,267.22 450.55,280.78 464.92,286.24 480.71,287.7 467.17,297.94 445.4,303.01 419.53,310.7 377.87,312.45 325.17,313.4 265.88,314.77 217.43,312.87 158.62,310.26 111.76,308.33 73.55,299.39 51.08,288.13 36.76,277.63 36.76,277.63"/><animate id="flamaDerechaDentro-2" begin="0; flamaDerechaDentro-1.begin + 400ms" fill="freeze" attributeName="points" dur="400ms" to="39.67,267.69 32.43,252.71 27.27,235.02 54.13,259.52 69.28,217.36 84.13,189.64 87.63,211.09 95.22,227.73 102.47,240.12 124.91,242.77 134,226.87 144.6,211.59 157.21,192.97 169.44,181.42 182.87,177.31 192.51,165.63 200.77,158.08 191.15,190.21 210.35,210.24 218.48,189.57 241.8,182.31 268.91,169.59 280.33,154.15 288.43,142.02 287.83,122.46 297.95,96.65 309.99,79.23 309.91,115.16 340.55,139.97 361.88,137.37 359.9,111.78 360.76,82.19 367.74,69.81 384.53,48.13 380.33,61.07 377.97,76.01 381.19,89.73 391.81,104.58 405.15,107.63 430.4,93.39 419.74,108.56 418.74,121.87 417.36,137.1 416.07,148.71 413.3,173.26 414.15,181.66 428.18,191.42 435.14,180.42 444.42,173.06 456.84,166.44 453.95,174.79 453.49,182.31 457.02,195.65 456.54,206.27 459.17,217.64 467.58,234.25 489.61,214.77 485.48,234.11 480.2,264.6 500.62,260.35 484.58,280.27 459.23,297.52 479.89,305.1 446.26,313.98 419.53,310.7 377.86,312.45 325.17,313.41 265.88,314.77 217.43,312.87 158.62,310.26 111.45,301.4 73.55,299.39 53.4,283.67 39.67,267.69 39.67,267.69"/></polygon></svg>