<?xml version="1.0" encoding="UTF-8" standalone="no"?><!DOCTYPE svg PUBLIC "-//W3C//DTD SVG 1.1//EN" "http://www.w3.org/Graphics/SVG/1.1/DTD/svg11.dtd"><svg width="100%" height="100%" viewBox="0 0 523 335" version="1.1" xmlns="http://www.w3.org/2000/svg" xmlns:xlink="http://www.w3.org/1999/xlink" xml:space="preserve" xmlns:serif="http://www.serif.com/" style="fill-rule:evenodd;clip-rule:evenodd;stroke-linecap:square;stroke-miterlimit:1"><polygon points="2.83,263.32 5.48,238.74 23.29,213.54 47.67,195.5 69.18,176.76 88.46,152.37 90.13,172.49 87.9,197.19 90.55,219.32 91.88,229.19 103.47,204.36 117.96,179.87 137.63,165.2 161.44,146.84 187.5,130.37 211.8,113.97 228.43,104.16 225.63,125.91 224.65,152.81 239.32,141.31 257.06,124.59 276.48,103.28 289.75,83.73 300.78,58.84 306.86,45.07 316.85,52.17 321.18,66.19 327.4,76 334.45,64.81 345,45.32 367.77,24.64 387.11,9.74 407.65,2.83 426.71,4.84 414.14,23.7 398.5,48.53 399.33,71.16 404.78,88 424.62,75.81 436.77,53.31 444.52,64.56 448.16,102.15 439.01,124.34 422.21,149.37 449.52,145.79 469.88,128.61 479.45,110.89 478.82,140.37 470.32,172.3 456.19,195.5 480.52,191.36 497.69,179.77 516.95,155.97 519.19,171.23 500.19,196.13 488.73,212.22 473.69,234.26 467.64,263.07 476.79,273.94 495.53,262.98 509.14,239.42 513.5,250.67 515.9,270.8 503.05,288.15 483.78,303.93 457.38,320.78 391.3,331.59 292.54,331.21 211.59,329.39 118.56,324.55 70.23,316.75 12.19,282.12 2.83,263.32 2.83,263.32" style="fill:#c88b00;stroke:#662500;stroke-width:4px;" id="flamaDerecha.Effect:Loop"><animate id="flamaDerecha-1" begin="flamaDerecha-2.begin + 0s" fill="freeze" attributeName="points" dur="400ms" to="2.83,263.32 5.48,238.74 23.29,213.54 47.67,195.5 69.18,176.76 88.46,152.37 90.13,172.49 87.9,197.19 90.55,219.32 91.88,229.19 103.47,204.36 117.96,179.87 137.63,165.2 161.44,146.84 187.5,130.37 211.8,113.97 228.43,104.16 225.63,125.91 224.65,152.81 239.32,141.31 257.06,124.59 276.48,103.28 289.75,83.73 300.78,58.84 306.86,45.07 316.85,52.17 321.18,66.19 327.4,76 334.45,64.81 345,45.32 367.77,24.64 387.11,9.74 407.65,2.83 426.71,4.84 414.14,23.7 398.5,48.53 399.33,71.16 404.78,88 424.62,75.81 436.77,53.31 444.52,64.56 448.16,102.15 439.01,124.34 422.21,149.37 449.52,145.79 469.88,128.61 479.45,110.89 478.82,140.37 470.32,172.3 456.19,195.5 480.52,191.36 497.69,179.77 516.95,155.97 519.19,171.23 500.19,196.13 488.73,212.22 473.69,234.26 467.64,263.07 476.79,273.94 495.53,262.98 509.14,239.42 513.5,250.67 515.9,270.8 503.05,288.15 483.78,303.93 457.38,320.78 391.3,331.59 292.54,331.21 211.59,329.39 118.56,324.55 70.23,316.75 12.19,282.12 2.83,263.32 2.83,263.32"/><animate id="flamaDerecha-2" begin="0; flamaDerecha-1.begin + 400ms" fill="freeze" attributeName="points" dur="400ms" to="88.46,152.37 90.13,172.49 87.9,197.19 90.55,219.32 91.88,229.19 103.47,204.36 117.96,179.87 137.63,165.2 161.44,146.84 187.5,130.37 211.8,113.97 228.43,104.16 225.63,125.91 224.65,152.81 239.32,141.31 257.06,124.59 276.48,103.28 289.75,83.73 300.78,58.84 306.86,45.07 316.85,52.17 321.18,66.19 327.4,76 334.45,64.81 345,45.32 367.77,24.64 387.11,9.74 407.65,2.83 426.71,4.84 414.14,23.7 398.5,48.53 399.33,71.16 404.78,88 424.62,75.81 436.77,53.31 444.52,64.56 448.16,102.15 439.01,124.34 422.21,149.37 449.52,145.79 469.88,128.61 479.45,110.89 478.82,140.37 470.32,172.3 456.19,195.5 480.52,191.36 497.69,179.77 516.95,155.97 519.19,171.23 500.19,196.13 488.73,212.22 473.69,234.26 467.64,263.07 476.79,273.94 495.53,262.98 509.14,239.41 513.5,250.67 515.9,270.8 503.05,288.15 483.78,303.93 457.38,320.77 391.3,331.59 292.54,331.21 211.59,329.39 118.56,324.55 70.23,316.75 12.19,282.12 2.83,263.32 5.48,238.74 23.29,213.54 47.67,195.5 69.18,176.76 88.46,152.37 88.46,152.37"/></polygon><polygon points="36.76,277.63 22,264.79 16.87,243.32 39.1,226.86 58.72,209.77 76.31,187.53 77.84,205.88 75.8,228.41 81.6,244.44 88.59,255.46 101.18,243.61 110.63,232.35 125.89,209.26 142.89,182.48 166.66,167.46 188.83,152.49 203.99,143.54 201.44,163.38 200.55,187.93 213.93,177.43 232.31,169.48 247.85,157.67 264.59,143.92 271.69,138.3 279.78,131.96 289.49,126.49 301.93,110.9 312.18,80.67 320.9,104.44 332.22,116.42 342.17,94.25 349.31,70.66 367.48,51.11 385.56,35.77 380.33,61.07 377.97,76.01 381.19,89.73 391.81,104.58 404.49,116.01 430.4,93.39 418.1,118.2 404.43,141.71 396.22,156.41 405.01,166.31 421.46,166.77 438.06,166.34 466.68,145.73 460.72,157.84 452.42,173.71 444.38,184.62 436.37,198.44 430.59,210.71 448.7,211.2 462.81,206.19 485.04,199.52 460.43,223.9 453.28,235.53 446.6,251.87 442.18,267.22 450.55,280.78 464.92,286.24 480.71,287.7 467.17,297.94 445.4,303.01 419.53,310.7 377.87,312.45 325.17,313.4 265.88,314.77 217.43,312.87 158.62,310.26 111.76,308.33 73.55,299.39 51.08,288.13 36.76,277.63 36.76,277.63" style="fill:#fedc00;stroke:#855200;stroke-width:4px;" id="flamaDerechaDentro.Effect:Loop"><animate id="flamaDerechaDentro-1" begin="flamaDerechaDentro-2.begin + 0s" fill="freeze" attributeName="points" dur="400ms" to="36.76,277.63 22,264.79 16.87,243.32 39.1,226.86 58.72,209.77 76.31,187.53 77.84,205.88 75.8,228.41 81.6,244.44 88.59,255.46 101.18,243.61 110.63,232.35 125.89,209.26 142.89,182.48 166.66,167.46 188.83,152.49 203.99,143.54 201.44,163.38 200.55,187.93 213.93,177.43 232.31,169.48 247.85,157.67 264.59,143.92 271.69,138.3 279.78,131.96 289.49,126.49 301.93,110.9 312.18,80.67 320.9,104.44 332.22,116.42 342.17,94.25 349.31,70.66 367.48,51.11 385.56,35.77 380.33,61.07 377.97,76.01 381.19,89.73 391.81,104.58 404.49,116.01 430.4,93.39 418.1,118.2 404.43,141.71 396.22,156.41 405.01,166.31 421.46,166.77 438.06,166.34 466.68,145.73 460.72,157.84 452.42,173.71 444.38,184.62 436.37,198.44 430.59,210.71 448.7,211.2 462.81,206.19 485.04,199.52 460.43,223.9 453.28,235.53 446.6,251.87 442.18,267.22 450.55,280.78 464.92,286.24 480.71,287.7 467.17,297.94 445.4,303.01 419.53,310.7 377.87,312.45 325.17,313.4 265.88,314.77 217.43,312.87 158.62,310.26 111.76,308.33 73.55,299.39 51.08,288.13 36.76,277.63 36.76,277.63"/><animate id="flamaDerechaDentro-2" begin="0; flamaDerechaDentro-1.begin + 400ms" fill="freeze" attributeName="points" dur="400ms" to="76.31,187.53 77.84,205.88 75.8,228.41 81.6,244.44 88.59,255.46 101.18,243.61 110.63,232.35 125.89,209.26 142.89,182.48 166.66,167.46 188.83,152.49 203.99,143.54 201.44,163.38 200.55,187.93 213.93,177.43 232.31,169.48 247.85,157.67 264.59,143.92 271.69,138.3 279.78,131.96 289.49,126.49 301.93,110.9 312.18,80.67 320.9,104.44 332.22,116.42 342.17,94.25 349.31,70.66 367.48,51.11 385.56,35.77 380.33,61.07 377.97,76.01 381.19,89.73 391.81,104.58 404.49,116.01 430.4,93.39 418.1,118.2 404.43,141.71 396.22,156.41 405.01,166.31 421.46,166.77 438.06,166.34 466.68,145.73 460.72,157.84 452.42,173.71 444.38,184.62 436.37,198.44 430.59,210.71 448.7,211.2 462.81,206.19 485.04,199.52 460.43,223.9 453.28,235.53 446.6,251.87 442.18,267.22 450.55,280.78 464.92,286.24 480.71,287.7 467.17,297.94 445.4,303.01 419.53,310.7 377.87,312.45 325.17,313.4 265.88,314.77 217.43,312.87 158.62,310.26 111.76,308.33 73.55,299.39 51.08,288.13 36.76,277.63 22,264.79 16.87,243.32 39.1,226.86 58.72,209.77 76.31,187.52 76.31,187.53"/></polygon></svg>