<?xml version="1.0" encoding="UTF-8" standalone="no"?><!DOCTYPE svg PUBLIC "-//W3C//DTD SVG 1.1//EN" "http://www.w3.org/Graphics/SVG/1.1/DTD/svg11.dtd"><svg width="100%" height="100%" viewBox="0 0 2000 127" version="1.1" xmlns="http://www.w3.org/2000/svg" xmlns:xlink="http://www.w3.org/1999/xlink" xml:space="preserve" xmlns:serif="http://www.serif.com/" style="fill-rule:evenodd;clip-rule:evenodd;stroke-linecap:round;stroke-linejoin:round;stroke-miterlimit:1.5;"><g id="Cloud.Duration:7000ms.Effect:Loop"><path d="M0,58.657l20.865,0.483l63.321,-18.917l10.254,3.708l35.499,4.581l48.731,3.815l62.855,-8.198l30.537,-7.743l7.96,-6.191l18.44,-16.339l-8.916,8.931l-9.524,7.408l-3.98,15.213l19.4,21.64l33.095,24.105l47.397,13.717l57.172,11.356l75.633,1.975l47.013,-1.279l69.755,-22.295l42.384,-20.606l27.925,-22.812l11.722,-5.955l-20.75,13.33l-7.144,21.748l16.787,6.687l30.852,13.449l76.176,2.262l66.31,-5.574l50.674,-12.691l43.671,-17.821l15.213,-8.14l-26.163,17.03l-9.924,3.886l-7.32,4.326l0.102,5.572l14.566,11.046l36.102,9.05l31.374,4.923l41.794,0.071l28.467,-1.994l30.327,-11.873l28.225,-15.377l16.294,-10.74l18.064,22.079l22.602,15.577l33.175,13.995l50.163,-4.369l39.443,-2.821l32.513,-5.158l37.18,-16.095l26.923,-15.663l15.897,-12.56l-3.683,-8.667l10.341,9.391l27.165,11.725l28.694,13.382l35.92,12.859l38.867,2.856l35.605,0.835l33.2,-1.568l30.476,-11.834l29.322,-9.606l34.818,-27.727l28.3,-27.775l13.684,-0.708l22.611,13.55l27.192,9.312l55.729,2.582l48.612,1.124l34.788,-5.884c19.012,-7.419 35.683,-18.448 50.846,-31.796l13.327,10.001l34.488,12.47l35.499,4.581l48.731,3.815l62.855,-8.198l30.537,-7.743l7.96,-6.191l18.44,-16.339l-8.916,8.931l-9.524,7.408c-0,-0 -3.98,15.213 -3.98,15.213l19.4,21.64l33.095,24.105l47.397,13.717l57.171,11.356l75.634,1.975l47.013,-1.279l69.755,-22.295l42.384,-20.606l27.924,-22.812l11.723,-5.955l-20.75,13.33l-7.144,21.748l16.787,6.687l30.852,13.449l76.176,2.262l66.31,-5.574l50.674,-12.691l43.671,-17.821l15.213,-8.14l-26.163,17.03l-9.924,3.886l-7.32,4.326l0.102,5.572l14.566,11.046l36.102,9.05l31.374,4.923l41.794,0.071l28.467,-1.994l30.327,-11.873l28.225,-15.377l16.294,-10.74l18.064,22.079l22.602,15.577l33.175,13.995l50.163,-4.369l39.443,-2.821l32.513,-5.158l37.18,-16.095l26.923,-15.663l15.897,-12.56l-3.683,-8.667l10.341,9.391l27.165,11.725l28.693,13.382l35.921,12.859l38.867,2.856l35.605,0.835l33.2,-1.568l30.476,-11.834l29.322,-9.606l34.818,-27.727l28.3,-27.775l13.684,-0.708l22.611,13.55l27.192,9.312l55.729,2.582l48.612,1.124l64.016,-19.124l-0,-40.016l-3974.99,0" style="fill:#6a5b46;stroke:#000;stroke-width:1px;"/><path d="M-1974.99,58.657l20.865,0.483l63.321,-18.917l10.254,3.708l35.499,4.581l48.731,3.815l62.855,-8.198l30.537,-7.743l7.96,-6.191l18.44,-16.339l-8.916,8.931l-9.524,7.408l-3.98,15.213l19.4,21.64l33.095,24.105l47.397,13.717l57.172,11.356l75.633,1.975l47.013,-1.279l69.755,-22.295l42.384,-20.606l27.925,-22.812l11.723,-5.955l-20.751,13.33l-7.144,21.748l16.787,6.687l30.852,13.449l76.176,2.262l66.31,-5.574l50.674,-12.691l43.671,-17.821l15.213,-8.14l-26.163,17.03l-9.924,3.886l-7.319,4.326l0.101,5.572l14.566,11.046l36.102,9.05l31.374,4.923l41.794,0.071l28.467,-1.994l30.327,-11.873l28.225,-15.377l16.294,-10.74l18.064,22.079l22.602,15.577l33.175,13.995l50.163,-4.369l39.443,-2.821l32.513,-5.158l37.18,-16.095l26.923,-15.663l15.897,-12.56l-3.683,-8.667l10.341,9.391l27.165,11.725l28.694,13.382l35.92,12.859l38.867,2.856l35.605,0.835l33.2,-1.568l30.476,-11.834l29.322,-9.606l34.818,-27.727l28.3,-27.775l13.684,-0.708l22.611,13.55l27.192,9.312l55.729,2.582l48.612,1.124l34.788,-5.884c19.012,-7.419 35.683,-18.448 50.846,-31.796l13.327,10.001l34.488,12.47l35.499,4.581l48.731,3.815l62.855,-8.198l30.537,-7.743l7.96,-6.191l18.44,-16.339l-8.916,8.931l-9.524,7.408c-0,-0 -3.98,15.213 -3.98,15.213l19.4,21.64l33.095,24.105l47.397,13.717l57.172,11.356l75.633,1.975l47.013,-1.279l69.755,-22.295l42.384,-20.606l27.925,-22.812l11.722,-5.955l-20.75,13.33l-7.144,21.748l16.787,6.687l30.852,13.449l76.176,2.262l66.31,-5.574l50.674,-12.691l43.671,-17.821l15.213,-8.14l-26.163,17.03l-9.924,3.886l-7.32,4.326l0.102,5.572l14.566,11.046l36.102,9.05l31.374,4.923l41.794,0.071l28.467,-1.994l30.327,-11.873l28.225,-15.377l16.294,-10.74l18.064,22.079l22.602,15.577l33.175,13.995l50.163,-4.369l39.443,-2.821l32.513,-5.158l37.18,-16.095l26.923,-15.663l15.897,-12.56l-3.683,-8.667l10.341,9.391l27.165,11.725l28.694,13.382l35.92,12.859l38.867,2.856l35.605,0.835l33.2,-1.568l30.476,-11.834l29.322,-9.606l34.818,-27.727l28.3,-27.775l13.684,-0.708l22.611,13.55l27.192,9.312l55.729,2.582l48.612,1.124l64.016,-19.124l-0,-40.016l-3974.99,0" style="fill:#6a5b46;stroke:#000;stroke-width:1px;"/></g></svg>