<?xml version="1.0" encoding="UTF-8" standalone="no"?><!DOCTYPE svg PUBLIC "-//W3C//DTD SVG 1.1//EN" "http://www.w3.org/Graphics/SVG/1.1/DTD/svg11.dtd"><svg width="100%" height="100%" viewBox="0 0 2000 203" version="1.1" xmlns="http://www.w3.org/2000/svg" xmlns:xlink="http://www.w3.org/1999/xlink" xml:space="preserve" xmlns:serif="http://www.serif.com/" style="fill-rule:evenodd;clip-rule:evenodd;stroke-linecap:round;stroke-linejoin:round;stroke-miterlimit:1.5;"><g id="Cloud.Duration:7000ms.Effect:Loop"><path d="M6000.5,0l-6000,0l0,166.532l12.418,12.884l12.623,7.054l17.434,6.177l20.163,5.685l19.922,1.734l19.112,0l19.567,-3.605l21.109,-9.991l18.547,-7.054l25.705,-17.554l18.554,-11.625l8.533,-5.888l14.682,17.513l8.69,12.816l19.42,16.02l21.387,5.763l27.574,5.673l38.744,-0l23.812,-7.43l19.174,-8.234l20.609,-11.792l19.743,-16.189l16.185,16.189l17.171,11.792l21.852,8.234l46.576,-0l25.794,-8.234l16.669,-11.792l15.518,-12.816l9.934,7.53l11.988,5.286l14.542,0l18.043,-2.062l15.912,-3.745l11.771,-7.299l8.005,-5.997l-13.304,-9.576l-8.023,-6.182l24.419,13.134l12.988,6.9l31.606,11.123l32.17,6.694l33.446,-1.176l31.947,-6.051l28.622,-9.898l20.484,-9.571l16.028,-7.154l7.915,-2.982l-7.251,-11.865l15.245,22.713l18.077,12.432l16.351,6.51l23.802,1.938l23.097,-1.026l17.705,-2.752l23.583,-9.132l17.743,-7.926l13.39,-7.882l10.671,11.729l12.868,9.141l13.005,6.136l15.429,4.834l22.926,3.938l19.233,-0l18.554,-3.807l16.545,-4.447l16.629,-7.895l18.539,-9.942l11.872,-9.139l15.276,17.339l17.741,5.751l21.613,4.15l23.607,-0.733l21.416,-1.563l14.811,-4.06l18.981,-4.787l15.157,-4.916l19.068,-9.274l-10.097,9.274l10.194,9.468l27.55,10.086l13.835,6.644l21.125,3.387l29.444,-2.138l33.935,-8.725l20.181,-9.219l22.376,-11.075l11.468,-8.156l13.849,14.051l17.533,10.608l22.467,7.6l19.709,4.967l30.162,2.133l37.624,-1.418l33.539,-0.464l20.496,-6.212l18.86,-12.189l16.26,-12.218l13.818,-14.014l16.136,-17.835l10.584,14.66l12.421,10.206l22.254,12.974l23.086,11.449l21.493,3.135l29.786,0.043l25.021,-3.961l13.428,-2.733l0,-0.097l12.418,12.884l12.623,7.054l17.434,6.177l20.163,5.685l19.922,1.734l19.112,0l19.567,-3.605l21.109,-9.991l18.547,-7.054l25.705,-17.554l18.554,-11.625l8.533,-5.888l14.682,17.513l8.69,12.816l19.42,16.02l21.387,5.763l27.574,5.673l38.744,-0l23.812,-7.43l19.174,-8.234l20.609,-11.792l19.743,-16.189l16.185,16.189l17.171,11.792l21.852,8.234l46.576,-0l25.794,-8.234l16.669,-11.792l15.518,-12.816l9.934,7.53l11.988,5.286l14.542,0l18.043,-2.062l15.912,-3.745l11.771,-7.299l8.005,-5.997l-13.304,-9.576l-8.023,-6.182l24.419,13.134l12.988,6.9l31.606,11.123l32.17,6.694c0,0 33.446,-1.176 33.446,-1.176l31.947,-6.051l28.622,-9.898l20.484,-9.571l16.028,-7.154l7.915,-2.982l-7.251,-11.865l15.245,22.713l18.077,12.432l16.351,6.51l23.802,1.938c0,0 23.097,-1.026 23.097,-1.026l17.705,-2.752l23.583,-9.132l17.743,-7.926l13.39,-7.882l10.671,11.729l12.868,9.141l13.005,6.136l15.429,4.834l22.926,3.938l19.233,-0l18.554,-3.807l16.545,-4.447l16.629,-7.895l18.539,-9.942l11.872,-9.139l15.276,17.339l17.741,5.751l21.613,4.15c0,-0 23.607,-0.733 23.607,-0.733l21.416,-1.563l14.811,-4.06l18.981,-4.787l15.157,-4.916l19.068,-9.274l-10.097,9.274l10.194,9.468l27.55,10.086l13.835,6.644l21.125,3.387c0,-0 29.444,-2.138 29.444,-2.138l33.935,-8.725l20.181,-9.219l22.376,-11.075l11.468,-8.156l13.849,14.051l17.533,10.608l22.467,7.6l19.709,4.967l30.162,2.133c0,0 37.624,-1.418 37.624,-1.418l33.539,-0.464l20.496,-6.212l18.86,-12.189l16.26,-12.218l13.818,-14.014l16.136,-17.835l10.584,14.66l12.421,10.206l22.254,12.974l23.086,11.449l21.493,3.135c0,0 29.786,0.043 29.786,0.043l25.021,-3.961l13.428,-2.733l0,-0.097l12.418,12.884l12.623,7.054l17.434,6.177l20.163,5.685l19.922,1.734l19.112,0l19.567,-3.605l21.109,-9.991l18.547,-7.054l25.705,-17.554l18.554,-11.625l8.533,-5.888l14.682,17.513l8.69,12.816l19.42,16.02l21.387,5.763l27.574,5.673l38.744,-0l23.812,-7.43l19.174,-8.234l20.609,-11.792l19.743,-16.189l16.185,16.189l17.171,11.792l21.852,8.234l46.576,-0l25.794,-8.234l16.669,-11.792l15.518,-12.816l9.934,7.53l11.988,5.286l14.542,0l18.043,-2.062l15.912,-3.745l11.771,-7.299l8.005,-5.997l-13.304,-9.576l-8.023,-6.182l24.419,13.134l12.988,6.9l31.606,11.123l32.17,6.694l33.446,-1.176l31.947,-6.051l28.622,-9.898l20.484,-9.571l16.028,-7.154l7.915,-2.982l-7.251,-11.865l15.245,22.713l18.077,12.432l16.351,6.51l23.802,1.938l23.097,-1.026l17.705,-2.752l23.583,-9.132l17.743,-7.926l13.39,-7.882l10.671,11.729l12.868,9.141l13.005,6.136l15.429,4.834l22.926,3.938l19.233,-0l18.554,-3.807l16.545,-4.447l16.629,-7.895l18.539,-9.942l11.872,-9.139l15.276,17.339l17.741,5.751l21.613,4.15l23.607,-0.733l21.416,-1.563l14.811,-4.06l18.981,-4.787l15.157,-4.916l19.068,-9.274l-10.097,9.274l10.194,9.468l27.55,10.086l13.835,6.644l21.125,3.387l29.444,-2.138l33.935,-8.725l20.181,-9.219l22.376,-11.075l11.468,-8.156l13.849,14.051l17.533,10.608l22.467,7.6l19.709,4.967l30.162,2.133l37.624,-1.418l33.539,-0.464l20.496,-6.212l18.86,-12.189l16.26,-12.218l13.818,-14.014l16.136,-17.835l10.584,14.66l12.421,10.206l22.254,12.974l23.086,11.449l21.493,3.135l29.786,0.043l25.021,-3.961l13.428,-2.733l0,-166.629Z" style="fill:#6a5b46;stroke:#000;stroke-width:0.9px;"/><path d="M2000,0l-6000,0l-0,166.532l12.418,12.884l12.623,7.054l17.434,6.177l20.163,5.685l19.922,1.734l19.112,0l19.567,-3.605l21.109,-9.991l18.547,-7.054l25.705,-17.554l18.554,-11.625l8.533,-5.888l14.682,17.513l8.69,12.816l19.42,16.02l21.387,5.763l27.574,5.673l38.744,-0l23.812,-7.43l19.174,-8.234l20.609,-11.792l19.743,-16.189l16.185,16.189l17.171,11.792l21.852,8.234l46.576,-0l25.794,-8.234l16.669,-11.792l15.518,-12.816l9.934,7.53l11.988,5.286l14.542,0l18.043,-2.062l15.912,-3.745l11.771,-7.299l8.005,-5.997l-13.304,-9.576l-8.023,-6.182l24.419,13.134l12.988,6.9l31.606,11.123l32.17,6.694l33.446,-1.176l31.947,-6.051l28.622,-9.898l20.484,-9.571l16.028,-7.154l7.915,-2.982l-7.251,-11.865l15.245,22.713l18.077,12.432l16.351,6.51l23.802,1.938l23.097,-1.026l17.705,-2.752l23.583,-9.132l17.743,-7.926l13.39,-7.882l10.671,11.729l12.868,9.141l13.005,6.136l15.429,4.834l22.926,3.938l19.233,-0l18.554,-3.807l16.545,-4.447l16.629,-7.895l18.539,-9.942l11.872,-9.139l15.276,17.339l17.741,5.751l21.613,4.15l23.607,-0.733l21.416,-1.563l14.811,-4.06l18.981,-4.787l15.157,-4.916l19.068,-9.274l-10.097,9.274l10.194,9.468l27.55,10.086l13.835,6.644l21.125,3.387l29.444,-2.138l33.935,-8.725l20.181,-9.219l22.376,-11.075l11.468,-8.156l13.849,14.051l17.533,10.608l22.467,7.6l19.709,4.967l30.162,2.133l37.624,-1.418l33.539,-0.464l20.496,-6.212l18.86,-12.189l16.26,-12.218l13.818,-14.014l16.136,-17.835l10.584,14.66l12.421,10.206l22.254,12.974l23.086,11.449l21.493,3.135l29.786,0.043l25.021,-3.961l13.428,-2.733l-0,-0.097l12.418,12.884l12.623,7.054l17.434,6.177l20.163,5.685l19.922,1.734l19.112,0l19.567,-3.605l21.109,-9.991l18.547,-7.054l25.705,-17.554l18.554,-11.625l8.533,-5.888l14.682,17.513l8.69,12.816l19.42,16.02l21.387,5.763l27.574,5.673l38.744,-0l23.812,-7.43l19.174,-8.234l20.609,-11.792l19.743,-16.189l16.185,16.189l17.171,11.792l21.852,8.234l46.576,-0l25.794,-8.234l16.669,-11.792l15.518,-12.816l9.934,7.53l11.988,5.286l14.542,0l18.043,-2.062l15.912,-3.745l11.771,-7.299l8.005,-5.997l-13.304,-9.576l-8.023,-6.182l24.419,13.134l12.988,6.9l31.606,11.123l32.17,6.694c-0,0 33.446,-1.176 33.446,-1.176l31.947,-6.051l28.622,-9.898l20.484,-9.571l16.028,-7.154l7.915,-2.982l-7.251,-11.865l15.245,22.713l18.077,12.432l16.351,6.51l23.802,1.938c-0,0 23.097,-1.026 23.097,-1.026l17.705,-2.752l23.583,-9.132l17.743,-7.926l13.39,-7.882l10.671,11.729l12.868,9.141l13.005,6.136l15.429,4.834l22.926,3.938l19.233,-0l18.554,-3.807l16.545,-4.447l16.629,-7.895l18.539,-9.942l11.872,-9.139l15.276,17.339l17.741,5.751l21.613,4.15c-0,-0 23.607,-0.733 23.607,-0.733l21.416,-1.563l14.811,-4.06l18.981,-4.787l15.157,-4.916l19.068,-9.274l-10.097,9.274l10.194,9.468l27.55,10.086l13.835,6.644l21.125,3.387c-0,-0 29.444,-2.138 29.444,-2.138l33.935,-8.725l20.181,-9.219l22.376,-11.075l11.468,-8.156l13.849,14.051l17.533,10.608l22.467,7.6l19.709,4.967l30.162,2.133c-0,0 37.624,-1.418 37.624,-1.418l33.539,-0.464l20.496,-6.212l18.86,-12.189l16.26,-12.218l13.818,-14.014l16.136,-17.835l10.584,14.66l12.421,10.206l22.254,12.974l23.086,11.449l21.493,3.135c-0,0 29.786,0.043 29.786,0.043l25.021,-3.961l13.428,-2.733l-0,-0.097l12.418,12.884l12.623,7.054l17.434,6.177l20.163,5.685l19.922,1.734l19.112,0l19.567,-3.605l21.109,-9.991l18.547,-7.054l25.705,-17.554l18.554,-11.625l8.533,-5.888l14.682,17.513l8.69,12.816l19.42,16.02l21.387,5.763l27.574,5.673l38.744,-0l23.812,-7.43l19.174,-8.234l20.609,-11.792l19.743,-16.189l16.185,16.189l17.171,11.792l21.852,8.234l46.576,-0l25.794,-8.234l16.669,-11.792l15.518,-12.816l9.934,7.53l11.988,5.286l14.542,0l18.043,-2.062l15.912,-3.745l11.771,-7.299l8.005,-5.997l-13.304,-9.576l-8.023,-6.182l24.419,13.134l12.988,6.9l31.606,11.123l32.17,6.694l33.446,-1.176l31.947,-6.051l28.622,-9.898l20.484,-9.571l16.028,-7.154l7.915,-2.982l-7.251,-11.865l15.245,22.713l18.077,12.432l16.351,6.51l23.802,1.938l23.097,-1.026l17.705,-2.752l23.583,-9.132l17.743,-7.926l13.39,-7.882l10.671,11.729l12.868,9.141l13.005,6.136l15.429,4.834l22.926,3.938l19.233,-0l18.554,-3.807l16.545,-4.447l16.629,-7.895l18.539,-9.942l11.872,-9.139l15.276,17.339l17.741,5.751l21.613,4.15l23.607,-0.733l21.416,-1.563l14.811,-4.06l18.981,-4.787l15.157,-4.916l19.068,-9.274l-10.097,9.274l10.194,9.468l27.55,10.086l13.835,6.644l21.125,3.387l29.444,-2.138l33.935,-8.725l20.181,-9.219l22.376,-11.075l11.468,-8.156l13.849,14.051l17.533,10.608l22.467,7.6l19.709,4.967l30.162,2.133l37.624,-1.418l32.05,2.356l21.985,-9.032l18.86,-12.189l16.26,-12.218l13.818,-14.014l16.136,-17.835l10.584,14.66l12.421,10.206l22.254,12.974l23.086,11.449l21.493,3.135l29.786,0.043l25.021,-3.961l13.428,-2.733l0,-166.629Z" style="fill:#6a5b46;stroke:#000;stroke-width:0.9px;"/></g></svg>