<?xml version="1.0" encoding="UTF-8" standalone="no"?><!DOCTYPE svg PUBLIC "-//W3C//DTD SVG 1.1//EN" "http://www.w3.org/Graphics/SVG/1.1/DTD/svg11.dtd"><svg width="100%" height="100%" viewBox="0 0 263 213" version="1.1" xmlns="http://www.w3.org/2000/svg" xmlns:xlink="http://www.w3.org/1999/xlink" xml:space="preserve" xmlns:serif="http://www.serif.com/" style="fill-rule:evenodd;clip-rule:evenodd;stroke-linecap:round;stroke-linejoin:round;stroke-miterlimit:1.5;"><g id="TopFlameRight.Effect:Loop.Duration:700ms"><path d="M91.996,109.273l4.76,-3.718l6.208,-5.272l2.926,-20.012l3.325,-6.872l12.684,-17.752l6.765,-12.994l-0.332,-11.556l-4.264,-16.518l6.041,3.122l3.44,3.442l4.677,3.814l2.512,3.097l1.027,4.233l0.568,9.083l0.656,8.851l-0.051,10.458l3.349,-9.323l2.935,-5.734l5.237,-5.136l5.923,-4.635l4.724,-5.002l2.719,-4.632l2.95,-4.713l4.151,-6.106l1.663,8.659l2.205,11.711l3.316,10.55l3.63,11.478l6.478,9.085l3.415,7.286l1.108,10.091l2.065,9.063l2.512,-9.128l3.571,-7.922l3.176,-7.057l2.934,-4.753l3.994,-6.067l6.426,-6.286l5.783,-5.879l11.166,-8.348l1.063,3.053l0.279,2.331l0.26,2.254l0.68,2.487l0.804,1.94l1.283,1.837l1.626,1.225l1.686,0.604l3.903,-2.164l3.896,-6.997l1.533,-6.901l-0.167,-8.018l0,-15.446l1.468,-7.092l12.472,-6.619l0.567,5.819l-0.564,7.116l0.435,8.872l2.572,9.479l2.147,4.677l2.237,4.098l3.759,5.624l2.525,1.484l2.002,-1.517l0.929,-2.574l0.374,-2.96l-0,-2.296l-0.145,-2.697l-0.809,-2.465l-1.014,-2.291l-1.621,-2.236l4.741,1.533l6.124,3.687l5.01,3.8l2.044,3.239l3.232,5.283l2.185,4.354l1.716,4.678l1.257,4.732l2.79,-2.538l2.631,-2.685l4.06,-2.424l3.702,-1.885l5.895,-0.777l4.218,-0.716l5.537,-0.306l2.901,0.377l-5.492,5.207l-2.907,6.995l-2.264,8.514l-0.901,5.423l-1.046,8.625l-0.771,6.566l-1.178,7.856l0.724,7.418l2.734,0.363l2.857,-0.12l1.666,-0.036l1.964,-0.657l2.489,-1.892l3.731,-3.277l1.919,-2.843l1.991,-3.898l0.204,8.643l0.505,4.39l0.666,6.831l-0,4.453l-2.248,6.907l-3.634,4.67l-4.319,3.739l-3.857,3.6l0.068,2.394l2.459,2.439l4.733,1.896l7.917,-1.319l4.753,-1.326l3.138,-2.757l5.017,-3.662l2.365,-3.605l1.066,9.463l-0.109,3.857l-1.425,4.617l-1.349,5.418l-1.77,4.267l-2.074,4.29l-0.87,4.906l0.575,6.049l2.939,-0.25l2.494,-0.127l1.659,-0.395l2.207,-0.549l1.634,-0.787l1.756,-1.058l1.995,-1.43l1.099,-1.846l-0.576,4.131l-0.351,4.862l-1.576,4.496l-9.894,8.713l-5.492,3.292l-5.97,2.999l-6.65,1.248l-10.629,-0.606l0.353,1.396l0.961,1.408l0.936,1.284l1.066,0.935l1.099,0.816l0.606,0.437l0.501,0.182l0.257,0.277l-6.77,0.495l-2.494,-0.76l-5.007,-0.883l-3.176,-0.651l-4.092,-0.54l-2.543,-0.437l-3.063,-0.582l-6.154,-1.86l0.125,1.987l0.725,0.842l1.044,0.848l1.008,0.888l1.107,1.098l1.098,0.545l1.01,0.307l2.001,1.16l-9.541,0.724l-7.551,0.672l-6.015,-0.244l-4.892,-0.812l-6.289,-1.67l-3.611,-0.878l-6.855,-2.179l-5.667,-0.987l0.267,1.29l0.576,1.138l1.002,1.35l1.378,1.332l0.593,1.007l1.143,1.09l0.823,1.581l2.358,1.035l-11.873,0.143l-7.801,0.052l-8.656,-0.983l-3.414,-0.645l-7.765,-0.698l-6.053,-2.099l-5.01,-1.44l-4.852,-2.397l-0.645,2.034l0.323,1.566l0.694,1.017l0.879,1.279l0.801,0.767l0.738,1.125l0.891,1.096l1.508,0.908l-3.296,0.674l-5.316,0l-4.355,-1.01l-2.745,-1.104l-2.465,-1.55l-2.506,-1.867l-3.403,-3.309l-2.444,-1.135l-2.872,1.347l-3.999,3.197l-2.98,1.405l-3.737,0.684l-4.004,0.464l-4.798,0.6l-3.794,-0.544l-2.855,-1.411l1.71,-0.61l1.31,-0.46l0.963,-0.739l0.94,-0.926l0.46,-1.02l0.654,-1.427l0.233,-1.549l-0,-1.687l-4.006,1.995l-3.514,0.694l-4.445,1.795l-6.772,2.887l-3.661,1.131l-5.04,1.217l-3.761,0.353l-2.35,-0.616l2.318,-1.026l1.741,-1.413l0.901,-1.721l0.957,-1.543l0.218,-1.666l0.077,-1.495l0,-1.192l-0.287,-1.72l-4.166,1.822l-3.004,1.373l-3.962,2.144l-4.508,0.773l-3.901,2.005l-6.139,1.028l-5.612,0.039l-4.74,0.086l1.369,-1.033l1.074,-0.673l2.133,-1.109l1.105,-0.932l0.733,-0.724l0.653,-1.04l0.152,-1.173l0.081,-1.226l-6.115,0.46l-3.153,2.188l-3.128,0.828l-4.029,1.819l-6.045,1.454l-6.904,0.238l-6.417,0.138l-6.146,-0.86l1.462,-0.975l1.757,-0.95l2.124,-1.144l1.594,-0.879l0.539,-0.686l0.291,-0.981l0.036,-0.955l-0.14,-0.991l-7.124,1.115l-2.613,0.193l-2.232,0.207l-2.053,0.454l-4.774,0.266l-4.931,-0.31l-4.143,-0.258l-3.993,-0.412l0.784,-0.697l1.093,-0.817l0.632,-0.512l0.698,-0.759l0.778,-0.693l0.849,-0.883l0.843,-0.734l1.433,-1.848l-1.833,0.317l-2.84,1.23l-2.13,0.907l-3.594,0.458l-3.276,1.088l-2.341,0.152l-1.471,-0.151l-2.719,-0.239l0.926,-1.022l0.329,-0.966l0.401,-1.126l0.203,-1.059l0.296,-0.903l0.225,-1.323l0.049,-1.237l0.01,-2.414l-5.816,-1.148l-4.589,-1.339l-4.43,-2.007l-3.18,-0.961l-2.7,-0.701l-2.278,-0.579l-3.289,-1.15l-4.338,-3.428l-4.987,-14.708l-2.216,-6.711l0.104,-11.74l4.937,5.127l3.967,4.09l0.498,-0.953l0.901,-2.507l1.134,-2.353l1.622,-2.818l1.546,-2.336l1.724,-2.333l1.574,-1.17l4.07,0.168l5.435,0.175l2.213,-3.802l2.244,-4.984l1.601,-11.155l1.679,-9.344l4.128,-9.841l11.817,-13.447l3.75,-5.772l3.459,-9.485l10.899,-8.303l3.837,-6.134l0.371,12.226l0.163,6.655l0.42,8.9l4.758,9.564l3.198,5l3.349,6.124l4.004,4.993l2.219,2.346Z" style="fill:#f6be00;stroke:#77410e;stroke-width:0.75px;"/><path d="M142.938,60.679l3.349,-9.323l2.935,-5.734l5.237,-5.136l5.923,-4.635l4.724,-5.002l2.719,-4.632l2.95,-4.713l4.151,-6.106l1.663,8.659l2.205,11.711l3.316,10.55l3.63,11.478l6.478,9.085l3.415,7.286l1.108,10.091l2.065,9.063l2.512,-9.128l3.571,-7.922l3.176,-7.057l2.934,-4.753l3.994,-6.067l6.426,-6.286l5.783,-5.879l11.166,-8.348l1.063,3.053l0.279,2.331l0.26,2.254l0.68,2.487l0.804,1.94l1.283,1.837l1.626,1.225l1.686,0.604l3.903,-2.164l3.896,-6.997l1.533,-6.901l-0.167,-8.018l0,-15.446l1.468,-7.092l12.472,-6.619l0.567,5.819l-0.564,7.116l0.435,8.872l2.572,9.479l2.147,4.677l2.237,4.098l3.759,5.624l2.525,1.484l2.002,-1.517l0.929,-2.574l0.374,-2.96l-0,-2.296l-0.145,-2.697l-0.809,-2.465l-1.014,-2.291l-1.621,-2.236l4.741,1.533l6.124,3.687l5.01,3.8l2.044,3.239l3.232,5.283l2.185,4.354l1.716,4.678l1.257,4.732l2.79,-2.538l2.631,-2.685l4.06,-2.424l3.702,-1.885l5.895,-0.777l4.218,-0.716l5.537,-0.306l2.901,0.377l-5.492,5.207l-2.907,6.995l-2.264,8.514l-0.901,5.423l-1.046,8.625l-0.771,6.566l-1.178,7.856l0.724,7.418l2.734,0.363l2.857,-0.12l1.666,-0.036l1.964,-0.657l2.489,-1.892l3.731,-3.277l1.919,-2.843l1.991,-3.898l0.204,8.643l0.505,4.39l0.666,6.831l-0,4.453l-2.248,6.907l-3.634,4.67l-4.319,3.739l-3.857,3.6l0.068,2.394l2.459,2.439l4.733,1.896l7.917,-1.319l4.753,-1.326l3.138,-2.757l5.017,-3.662l2.365,-3.605l1.066,9.463l-0.109,3.857l-1.425,4.617l-1.349,5.418l-1.77,4.267l-2.074,4.29l-0.87,4.906l0.575,6.049l2.939,-0.25l2.494,-0.127l1.659,-0.395l2.207,-0.549l1.634,-0.787l1.756,-1.058l1.995,-1.43l1.099,-1.846l-0.576,4.131l-0.351,4.862l-1.576,4.496l-9.894,8.713l-5.492,3.292l-5.97,2.999l-6.65,1.248l-10.629,-0.606l0.353,1.396l0.961,1.408l0.936,1.284l1.066,0.935l1.099,0.816l0.606,0.437l0.501,0.182l0.257,0.277l-6.77,0.495l-2.494,-0.76l-5.007,-0.883l-3.176,-0.651l-4.092,-0.54l-2.543,-0.437l-3.063,-0.582l-6.154,-1.86l0.125,1.987l0.725,0.842l1.044,0.848l1.008,0.888l1.107,1.098l1.098,0.545l1.01,0.307l2.001,1.16l-9.541,0.724l-7.551,0.672l-6.015,-0.244l-4.892,-0.812l-6.289,-1.67l-3.611,-0.878l-6.855,-2.179l-5.667,-0.987l0.267,1.29l0.576,1.138l1.002,1.35l1.378,1.332l0.593,1.007l1.143,1.09l0.823,1.581l2.358,1.035l-11.873,0.143l-7.801,0.052l-8.656,-0.983l-3.414,-0.645l-7.765,-0.698l-6.053,-2.099l-5.01,-1.44l-4.852,-2.397l-0.645,2.034l0.323,1.566l0.694,1.017l0.879,1.279l0.801,0.767l0.738,1.125l0.891,1.096l1.508,0.908l-3.296,0.674l-5.316,0l-4.355,-1.01l-2.745,-1.104l-2.465,-1.55l-2.506,-1.867l-3.403,-3.309l-2.444,-1.135l-2.872,1.347l-3.999,3.197l-2.98,1.405l-3.737,0.684l-4.004,0.464l-4.798,0.6l-3.794,-0.544l-2.855,-1.411l1.71,-0.61l1.31,-0.46l0.963,-0.739l0.94,-0.926l0.46,-1.02l0.654,-1.427l0.233,-1.549l-0,-1.687l-4.006,1.995l-3.514,0.694l-4.445,1.795l-6.772,2.887l-3.661,1.131l-5.04,1.217l-3.761,0.353l-2.35,-0.616l2.318,-1.026l1.741,-1.413l0.901,-1.721l0.957,-1.543l0.218,-1.666l0.077,-1.495l0,-1.192l-0.287,-1.72l-4.166,1.822l-3.004,1.373l-3.962,2.144l-4.508,0.773l-3.901,2.005l-6.139,1.028l-5.612,0.039l-4.74,0.086l1.369,-1.033l1.074,-0.673l2.133,-1.109l1.105,-0.932l0.733,-0.724l0.653,-1.04l0.152,-1.173l0.081,-1.226l-6.115,0.46l-3.153,2.188l-3.128,0.828l-4.029,1.819l-6.045,1.454l-6.904,0.238l-6.417,0.138l-6.146,-0.86l1.462,-0.975l1.757,-0.95l2.124,-1.144l1.594,-0.879l0.539,-0.686l0.291,-0.981l0.036,-0.955l-0.14,-0.991l-7.124,1.115l-2.613,0.193l-2.232,0.207l-2.053,0.454l-4.774,0.266l-4.931,-0.31l-4.143,-0.258l-3.993,-0.412l0.784,-0.697l1.093,-0.817l0.632,-0.512l0.698,-0.759l0.778,-0.693l0.849,-0.883l0.843,-0.734l1.433,-1.848l-1.833,0.317l-2.84,1.23l-2.13,0.907l-3.594,0.458l-3.276,1.088l-2.341,0.152l-1.471,-0.151l-2.719,-0.239l0.926,-1.022l0.329,-0.966l0.401,-1.126l0.203,-1.059l0.296,-0.903l0.225,-1.323l0.049,-1.237l0.01,-2.414l-5.816,-1.148l-4.589,-1.339l-4.43,-2.007l-3.18,-0.961l-2.7,-0.701l-2.278,-0.579l-3.289,-1.15l-4.338,-3.428l-4.987,-14.708l-2.216,-6.711l0.104,-11.74l4.937,5.127l3.967,4.09l0.498,-0.953l0.901,-2.507l1.134,-2.353l1.622,-2.818l1.546,-2.336l1.724,-2.333l1.574,-1.17l4.07,0.168l5.435,0.175l2.213,-3.802l2.244,-4.984l1.601,-11.155l1.679,-9.344l4.128,-9.841l11.817,-13.447l3.75,-5.772l3.459,-9.485l10.899,-8.303l3.837,-6.134l0.371,12.226l0.163,6.655l0.42,8.9l4.758,9.564l3.198,5l3.349,6.124l4.004,4.993l2.219,2.346l4.76,-3.718l6.208,-5.272l2.926,-20.012l3.325,-6.872l12.684,-17.752l6.765,-12.994l-0.332,-11.556l-4.264,-16.518l6.041,3.122l3.44,3.442l4.677,3.814l2.512,3.097l1.027,4.233l0.568,9.083l0.656,8.851l-0.051,10.458Z" style="fill:#f6be00;stroke:#77410e;stroke-width:0.75px;"/></g><g id="TopFlameRightInside.Effect:Loop.Duration:700ms"><path d="M93.414,122.866l8.299,-2.837l5.427,-4.139l3.763,-7.757l2.976,-8.813l4.151,-7.706l4.514,-7.983l4.819,-7.36l4.813,-11.641l-0.5,11.641l1.202,4.762l0.852,5.013l0.639,4.999l1.066,3.972l1.764,3.593l1.51,3.909l1.394,3.667l2.636,-6.847l1.839,-6.499l1.851,-4.361l1.68,-4.574l1.509,-4.103l3.275,-5.984l5.094,-5.828l7.946,-6.748l1.772,4.19l1.131,5.398l4.004,7.337l3.872,5.958l1.825,4.13l1.74,6.93l2.139,6.951l0.059,11.379l5.603,0.373l7.77,-2.332l7.606,-5.37l6.599,-4.523l5.684,-6.838l4.627,-6.769l4.611,-6.948l3.073,-7.865l1.054,4.667l0.324,1.969l0.956,2.039l0.955,2.066l-0,1.711l0.591,2.016l0.978,1.685l0.719,2.399l4.63,-5.251l2.832,-3.37l4.726,-6.903l4.128,-4.888l3.866,-4.801l3.842,-4.836l3.615,-5.53l3.158,-4.353l1.752,5.11l1.602,3.599l3.104,2.755l2.66,3.303l2.935,1.909l1.937,2.193l1.501,1.794l4.336,3.745l0.808,-2.479l1.13,-3.025l1.652,-3.119l1.616,-3.175l0.597,-3.104l0.718,-2.278l0.967,-3.72l2.829,2.226l0.389,2.241l1.793,4.531l2.964,3.843l0.741,3.177l1.134,2.327l1.611,2.555l0.435,2.397l1.51,-2.397l0.726,-1.655l1.212,-2.224l2.24,-1.186l2.798,-1.35l1.834,-1.146l2.169,-0.357l4.438,-0.618l-0.565,3.925l-1.547,4.611l-0.062,3.913l-0.647,4.985l-0.337,6.811l0.061,7.293l0.325,6.913l-0,8.462l4.316,0.023l1.58,0.046l2.362,-0l1.509,-0.176l2.029,0.38l1.548,-0.321l2.142,-0.656l2.445,-0.144l-0.172,4.064l-2.385,4.862l-5.527,6.744l-4.226,5.893l-2.009,3.472l-1.98,1.827l-1.459,1.79l-1.447,2.428l4.001,2.084l4.036,1.594l7.106,1.903l3.735,1.036l4.337,2.475l2.87,0.033l4.038,-0.494l2.927,-0.633l-1.334,4.213l-2.105,4.79l0,3.015l-0.045,3.612l-0.294,3.873l-0.579,3.018l-0.274,2.137l-0.145,1.871l2.417,0.77l1.959,-0.056l0.876,-0.376l1.01,-0.213l0.956,-0.052l1.092,-0.038l1.083,-0.059l1.435,-0.049l1.543,2.003l0.602,1.187l0.605,0.652l0.859,1.253l0.569,1.162l0.627,1.062l1.231,2.064l-0.348,0.307l-5.492,3.292l-5.97,2.999l-6.65,1.248l-10.629,-0.606l0.353,1.396l0.961,1.408l0.936,1.284l1.066,0.935l1.099,0.816l0.606,0.437l0.501,0.182l0.257,0.277l-6.77,0.495l-2.494,-0.76l-5.007,-0.883l-3.176,-0.651l-4.092,-0.54l-2.543,-0.437l-3.063,-0.582l-6.154,-1.86l0.125,1.987l0.725,0.842l1.044,0.848l1.008,0.888l1.107,1.098l1.098,0.545l1.01,0.307l2.001,1.16l-9.541,0.724l-7.551,0.672l-6.015,-0.244l-4.892,-0.812l-6.289,-1.67l-3.611,-0.878l-6.855,-2.179l-5.667,-0.987l0.267,1.29l0.576,1.138l1.002,1.35l1.378,1.332l0.593,1.007l1.143,1.09l0.823,1.581l2.358,1.035l-11.873,0.143l-7.801,0.052l-8.656,-0.983l-3.414,-0.645l-7.765,-0.698l-6.053,-2.099l-5.01,-1.44l-4.852,-2.397l-0.645,2.034l0.323,1.566l0.694,1.017l0.879,1.279l0.801,0.767l0.738,1.125l0.891,1.096l1.508,0.908l-3.296,0.674l-5.316,0l-4.355,-1.01l-2.745,-1.104l-2.465,-1.55l-2.506,-1.867l-3.403,-3.309l-2.444,-1.135l-2.872,1.347l-3.999,3.197l-2.98,1.405l-3.737,0.684l-4.004,0.464l-4.798,0.6l-3.794,-0.544l-2.855,-1.411l1.71,-0.61l1.31,-0.46l0.963,-0.739l0.94,-0.926l0.46,-1.02l0.654,-1.427l0.233,-1.549l-0,-1.687l-4.006,1.995l-3.514,0.694l-4.445,1.795l-6.772,2.887l-3.661,1.131l-5.04,1.217l-3.761,0.353l-2.35,-0.616l2.318,-1.026l1.741,-1.413l0.901,-1.721l0.957,-1.543l0.218,-1.666l0.077,-1.495l0,-1.192l-0.287,-1.72l-4.166,1.822l-3.004,1.373l-3.962,2.144l-4.508,0.773l-3.901,2.005l-6.139,1.028l-5.612,0.039l-4.74,0.086l1.369,-1.033l1.074,-0.673l2.133,-1.109l1.105,-0.932l0.733,-0.724l0.653,-1.04l0.152,-1.173l0.081,-1.226l-6.115,0.46l-3.153,2.188l-3.128,0.828l-4.029,1.819l-6.045,1.454l-6.904,0.238l-6.417,0.138l-6.146,-0.86l1.462,-0.975l1.757,-0.95l2.124,-1.144l1.594,-0.879l0.539,-0.686l0.291,-0.981l0.036,-0.955l-0.14,-0.991l-7.124,1.115l-2.613,0.193l-2.232,0.207l-2.053,0.454l-4.774,0.266l-4.931,-0.31l-4.143,-0.258l-3.993,-0.412l0.784,-0.697l1.093,-0.817l0.632,-0.512l0.698,-0.759l0.778,-0.693l0.849,-0.883l0.843,-0.734l1.433,-1.848l-1.833,0.317l-2.84,1.23l-2.13,0.907l-3.594,0.458l-3.276,1.088l-2.341,0.152l-1.471,-0.151l-2.719,-0.239l0.926,-1.022l0.329,-0.966l0.401,-1.126l0.203,-1.059l0.296,-0.903l0.225,-1.323l0.049,-1.237l0.01,-2.414l-5.951,-0.71l-4.048,-1.071l-4.301,-2.723l-4.519,-2.12l-6.602,-7.33l-0.861,-7.589l0.678,-5.153l4.313,4.418l3.804,1.331l4.338,0.974l1.455,-3.711l-0.815,-5.983l-0.169,-2.58l1.859,-2.639l2.025,-1.326l2.948,-0.467l2.133,0.307l1.884,0.02l1.536,0.127l1.267,-0.546l2.848,0.011l3.15,-0.396l5.418,-2.118l-2.006,-5.297l-3.827,-7.494l0,-5.461l2.624,-12.322l5.08,-9.08l2.486,-4.304l4.773,-8.141l5.244,-8.415l3.049,9.99l5.98,7.575l3.065,3.295l2.717,4.647l4.052,2.732l3.642,3.792l2.417,2.711l3.53,2.798Z" style="fill:#fceb4b;stroke:#915d00;stroke-width:0.75px;"/><path d="M140.103,106.186l2.636,-6.847l1.839,-6.499l1.851,-4.361l1.68,-4.574l1.509,-4.103l3.275,-5.984l5.094,-5.828l7.946,-6.748l1.772,4.19l1.131,5.398l4.004,7.337l3.872,5.958l1.825,4.13l1.74,6.93l2.139,6.951l0.059,11.379l5.603,0.373l7.77,-2.332l7.606,-5.37l6.599,-4.523l5.684,-6.838l4.627,-6.769l4.611,-6.948l3.073,-7.865l1.054,4.667l0.324,1.969l0.956,2.039l0.955,2.066l-0,1.711l0.591,2.016l0.978,1.685l0.719,2.399l4.63,-5.251l2.832,-3.37l4.726,-6.903l4.128,-4.888l3.866,-4.801l3.842,-4.836l3.615,-5.53l3.158,-4.353l1.752,5.11l1.602,3.599l3.104,2.755l2.66,3.303l2.935,1.909l1.937,2.193l1.501,1.794l4.336,3.745l0.808,-2.479l1.13,-3.025l1.652,-3.119l1.616,-3.175l0.597,-3.104l0.718,-2.278l0.967,-3.72l2.829,2.226l0.389,2.241l1.793,4.531l2.964,3.843l0.741,3.177l1.134,2.327l1.611,2.555l0.435,2.397l1.51,-2.397l0.726,-1.655l1.212,-2.224l2.24,-1.186l2.798,-1.35l1.834,-1.146l2.169,-0.357l4.438,-0.618l-0.565,3.925l-1.547,4.611l-0.062,3.913l-0.647,4.985l-0.337,6.811l0.061,7.293l0.325,6.913l-0,8.462l4.316,0.023l1.58,0.046l2.362,-0l1.509,-0.176l2.029,0.38l1.548,-0.321l2.142,-0.656l2.445,-0.144l-0.172,4.064l-2.385,4.862l-5.527,6.744l-4.226,5.893l-2.009,3.472l-1.98,1.827l-1.459,1.79l-1.447,2.428l4.001,2.084l4.036,1.594l7.106,1.903l3.735,1.036l4.337,2.475l2.87,0.033l4.038,-0.494l2.927,-0.633l-1.334,4.213l-2.105,4.79l0,3.015l-0.045,3.612l-0.294,3.873l-0.579,3.018l-0.274,2.137l-0.145,1.871l2.417,0.77l1.959,-0.056l0.876,-0.376l1.01,-0.213l0.956,-0.052l1.092,-0.038l1.083,-0.059l1.435,-0.049l1.543,2.003l0.602,1.187l0.605,0.652l0.859,1.253l0.569,1.162l0.627,1.062l1.231,2.064l-0.348,0.307l-5.492,3.292l-5.97,2.999l-6.65,1.248l-10.629,-0.606l0.353,1.396l0.961,1.408l0.936,1.284l1.066,0.935l1.099,0.816l0.606,0.437l0.501,0.182l0.257,0.277l-6.77,0.495l-2.494,-0.76l-5.007,-0.883l-3.176,-0.651l-4.092,-0.54l-2.543,-0.437l-3.063,-0.582l-6.154,-1.86l0.125,1.987l0.725,0.842l1.044,0.848l1.008,0.888l1.107,1.098l1.098,0.545l1.01,0.307l2.001,1.16l-9.541,0.724l-7.551,0.672l-6.015,-0.244l-4.892,-0.812l-6.289,-1.67l-3.611,-0.878l-6.855,-2.179l-5.667,-0.987l0.267,1.29l0.576,1.138l1.002,1.35l1.378,1.332l0.593,1.007l1.143,1.09l0.823,1.581l2.358,1.035l-11.873,0.143l-7.801,0.052l-8.656,-0.983l-3.414,-0.645l-7.765,-0.698l-6.053,-2.099l-5.01,-1.44l-4.852,-2.397l-0.645,2.034l0.323,1.566l0.694,1.017l0.879,1.279l0.801,0.767l0.738,1.125l0.891,1.096l1.508,0.908l-3.296,0.674l-5.316,0l-4.355,-1.01l-2.745,-1.104l-2.465,-1.55l-2.506,-1.867l-3.403,-3.309l-2.444,-1.135l-2.872,1.347l-3.999,3.197l-2.98,1.405l-3.737,0.684l-4.004,0.464l-4.798,0.6l-3.794,-0.544l-2.855,-1.411l1.71,-0.61l1.31,-0.46l0.963,-0.739l0.94,-0.926l0.46,-1.02l0.654,-1.427l0.233,-1.549l-0,-1.687l-4.006,1.995l-3.514,0.694l-4.445,1.795l-6.772,2.887l-3.661,1.131l-5.04,1.217l-3.761,0.353l-2.35,-0.616l2.318,-1.026l1.741,-1.413l0.901,-1.721l0.957,-1.543l0.218,-1.666l0.077,-1.495l0,-1.192l-0.287,-1.72l-4.166,1.822l-3.004,1.373l-3.962,2.144l-4.508,0.773l-3.901,2.005l-6.139,1.028l-5.612,0.039l-4.74,0.086l1.369,-1.033l1.074,-0.673l2.133,-1.109l1.105,-0.932l0.733,-0.724l0.653,-1.04l0.152,-1.173l0.081,-1.226l-6.115,0.46l-3.153,2.188l-3.128,0.828l-4.029,1.819l-6.045,1.454l-6.904,0.238l-6.417,0.138l-6.146,-0.86l1.462,-0.975l1.757,-0.95l2.124,-1.144l1.594,-0.879l0.539,-0.686l0.291,-0.981l0.036,-0.955l-0.14,-0.991l-7.124,1.115l-2.613,0.193l-2.232,0.207l-2.053,0.454l-4.774,0.266l-4.931,-0.31l-4.143,-0.258l-3.993,-0.412l0.784,-0.697l1.093,-0.817l0.632,-0.512l0.698,-0.759l0.778,-0.693l0.849,-0.883l0.843,-0.734l1.433,-1.848l-1.833,0.317l-2.84,1.23l-2.13,0.907l-3.594,0.458l-3.276,1.088l-2.341,0.152l-1.471,-0.151l-2.719,-0.239l0.926,-1.022l0.329,-0.966l0.401,-1.126l0.203,-1.059l0.296,-0.903l0.225,-1.323l0.049,-1.237l0.01,-2.414l-5.951,-0.71l-4.048,-1.071l-4.301,-2.723l-4.519,-2.12l-6.602,-7.33l-0.861,-7.589l0.678,-5.153l4.313,4.418l3.804,1.331l4.338,0.974l1.455,-3.711l-0.815,-5.983l-0.169,-2.58l1.859,-2.639l2.025,-1.326l2.948,-0.467l2.133,0.307l1.884,0.02l1.536,0.127l1.267,-0.546l2.848,0.011l3.15,-0.396l5.418,-2.118l-2.006,-5.297l-3.827,-7.494l0,-5.461l2.624,-12.322l5.08,-9.08l2.486,-4.304l4.773,-8.141l5.244,-8.415l3.049,9.99l5.98,7.575l3.065,3.295l2.717,4.647l4.052,2.732l3.642,3.792l2.417,2.711l3.53,2.798l8.299,-2.837l5.427,-4.139l3.763,-7.757l2.976,-8.813l4.151,-7.706l4.514,-7.983l4.819,-7.36l4.813,-11.641l-0.5,11.641l1.202,4.762l0.852,5.013l0.639,4.999l1.066,3.972l1.764,3.593l1.51,3.909l1.394,3.667Z" style="fill:#fceb4b;stroke:#915d00;stroke-width:0.75px;"/></g><g id="Line.Effect:Default.Duration:1000ms.Type:Line"><path d="M62.435,166.301c1.158,8.035 1.512,16.695 7.507,22.69" style="fill:none;stroke:#77410e;stroke-width:0.75px;"/><path d="M60.935,162.551c1.158,8.035 1.512,16.695 7.507,22.69" style="fill:none;stroke:#77410e;stroke-width:0.75px;"/></g><g id="Line2.Effect:Default.Duration:1000ms.Type:Line"><path d="M70.662,175.819c-0,3.397 1.435,6.325 2.427,9.509c0.553,1.777 -0.193,3.148 1.128,4.469" style="fill:none;stroke:#77410e;stroke-width:0.75px;"/><path d="M69.162,170.569c-0,3.397 1.435,6.325 2.427,9.509c0.553,1.777 -0.193,3.148 1.128,4.469" style="fill:none;stroke:#77410e;stroke-width:0.75px;"/></g><g id="Line3.Effect:Default.Duration:1000ms.Type:Line"><path d="M74.724,171.284c-0,5.543 1.898,9.371 3.766,14.369c0.616,1.645 3.616,4.685 3.616,6.212" style="fill:none;stroke:#77410e;stroke-width:0.75px;"/><path d="M74.724,167.534c-0,5.543 1.898,9.371 3.766,14.369c0.616,1.645 3.616,4.685 3.616,6.212" style="fill:none;stroke:#77410e;stroke-width:0.75px;"/></g><g id="Line4.Effect:Default.Duration:1000ms.Type:Line"></g><g id="Line5.Effect:Default.Duration:1000ms.Type:Line"></g><g id="Line6.Effect:Default.Duration:1000ms.Type:Line"></g><g id="Line7.Effect:Default.Duration:1000ms.Type:Line"><path d="M136.971,185.939c0.375,-1.766 3.498,-7.029 4.898,-8.45" style="fill:none;stroke:#77410e;stroke-width:0.75px;"/><path d="M139.221,184.439c0.375,-1.766 3.498,-7.029 4.898,-8.45" style="fill:none;stroke:#77410e;stroke-width:0.75px;"/></g><g id="Line8.Effect:Default.Duration:1000ms.Type:Line"><path d="M130.667,188.675c-0,-5.818 9.165,-10.156 9.165,-15.822" style="fill:none;stroke:#77410e;stroke-width:0.75px;"/><path d="M131.417,185.675c-0,-5.818 9.165,-10.156 9.165,-15.822" style="fill:none;stroke:#77410e;stroke-width:0.75px;"/></g><g id="Line9.Effect:Default.Duration:1000ms.Type:Line"><path d="M214.418,184.877c-0,2.343 2.441,5.951 4.821,6.745c0.498,0.166 3.3,1.285 3.3,2.02" style="fill:none;stroke:#77410e;stroke-width:0.75px;"/><path d="M212.918,181.127c-0,2.343 2.441,5.951 4.821,6.745c0.498,0.166 3.3,1.285 3.3,2.02" style="fill:none;stroke:#77410e;stroke-width:0.75px;"/></g><g id="Line10.Effect:Default.Duration:1000ms.Type:Line"><path d="M218.926,180.818c0,5.981 8.519,15.057 14.736,15.057" style="fill:none;stroke:#77410e;stroke-width:0.75px;"/><path d="M217.426,177.818c0,5.981 8.519,15.057 14.736,15.057" style="fill:none;stroke:#77410e;stroke-width:0.75px;"/></g></svg>