<?xml version="1.0" encoding="UTF-8" standalone="no"?><!DOCTYPE svg PUBLIC "-//W3C//DTD SVG 1.1//EN" "http://www.w3.org/Graphics/SVG/1.1/DTD/svg11.dtd"><svg width="100%" height="100%" viewBox="0 0 2000 150" version="1.1" xmlns="http://www.w3.org/2000/svg" xmlns:xlink="http://www.w3.org/1999/xlink" xml:space="preserve" xmlns:serif="http://www.serif.com/" style="fill-rule:evenodd;clip-rule:evenodd;stroke-linecap:round;stroke-linejoin:round;stroke-miterlimit:1.5;"><g id="Cloud2.Duration:700ms.Effect:Loop"><path d="M-2.954,92.009l17.612,17.931l23.378,21.524l20.33,10.291l46.564,8.245l34.925,0l22.401,-3.749l32.997,-8.639l28.775,-12.088l32.962,-19.066l25.828,20.989l16.533,7.307l18.876,6.823l20.143,2.414l16.177,1.242l21.281,-1.672l15.75,-3.164l16.029,-4.892l13.648,-8.057l28.558,-21.246l7.061,6.713l7.06,4.336l12.493,3.905l12.129,0.539l14.457,-0.679l14.324,-0.677l14.007,-1.524l8.878,-6.083l11.088,-8.505l6.093,-7.952l9.732,6.032l13.6,5.117l14.612,5.081l14.393,3.309l16.569,4.389l23.563,4.778l26.215,-0.848l26.458,-1.656l33.443,-4.839l89.77,-28.889l8.593,11.545l15.545,7.513l19.62,9.922l23.848,3.506l18.347,0.197l30.339,-1.864l20.624,-3.79l23.77,-9.202l16.228,-6.886l18.879,-8.581l17.919,15.218l15.182,7.21l15.325,5.449l15.576,3.982l20.429,3.578l15.757,1.01l28.194,-2.218l25.405,-5.212l18.556,-7.249l39.431,-19.854l9.115,6.83l7.051,7.556l16.134,5.016l21.07,3.996l21.657,3.458l23.021,0.536l25.329,-1.693l29.309,-6.495l19.42,-9.096l23.889,-11.337l7.191,10.09l10.065,10.704l28.084,10.074l33.378,7.971l19.838,-0l33.842,-2.901l20.141,-4.267l28.439,-6.147l18.27,-9.694l27.092,-14.752l14.434,12.903l22.586,11.395l26.563,6.482l26.098,5.939l37.025,2.372l35.856,-0.527l39.46,-6.33l43.164,-9.688l34.253,-17.098l34.789,-28.354l39.924,22.088l34.052,17.576l44.966,3.62l73.952,2.045l48.914,-18.146l27.68,-37.417l16.657,-36.419l-24.649,-52.47l-27.025,-39.9l-21.69,-13.795l14.674,-20.499l7.488,-23.636l-15.012,-24.66l-12.817,-31.192l-25.888,-8.903l-35.553,-5.647l-37.828,-9.183l-35.8,1.227l-35.703,6.859l-40.231,33.054l-34.566,-11.803l-25.384,-17.956l-31.913,-14.472l-25.074,-0.903l-25.223,7.278l-17.953,10.104l-17.266,15.128l-21.697,10.358l-10.213,12.064l-13.964,7.763l-15.741,-19.738l-37.615,-28.264l-44.811,-19.372l-31.843,-2.055l-44.321,4.432l-27.901,9.096l-28.805,8.109l-28.864,17.575l-21.301,10.811l-21.91,12.432l-41.467,-26.599l-46.673,-7.811l-27.753,-7.904l-27.364,-0.355l-37.886,1.588l-24.758,8.483l-22.429,7.874l-19.464,14.892l-21.419,7.933l-18.335,14.916l-18.452,-23.131l-35.175,-26.492l-26.229,-9.034l-32.279,-3.847l-23.369,-4.232l-37.733,-8.166l-29.248,2.332l-28.741,17.941l-30.536,21.7l-14.648,10.518l-31.529,-18.602l-32.444,-17.512l-27.364,-15.476l-36.492,-0l-49.958,1.607l-46.945,5.03l-25.579,10.782l-27.517,14.867l-27.28,17.795l-22.199,6.452l-28.256,-30.587l-37.178,-16.533l-20.739,-6.433l-34.537,-1.217l-16.922,7.669l-15.954,12.443l-14.701,11.721l-11.025,11.001l-16.019,23.288l-19.641,-28.722l-37.118,-9.531l-31.884,-11.77l-32.628,-6.389l-24.781,3.014l-34.353,5.114l-21.242,11.541l-35.021,8.805l-19.168,14.39l-30.253,12.053l-38.654,-9.813l-35.027,-12.238l-43.878,-8.566l-33.81,-5.819l-40.889,-8.44l-27.641,-6.111l-19.238,-7.548l-33.857,-2.547l-25.556,13.285l-31.372,20.935l-23.295,-23.122l-33.408,-6.876l-39.323,-0l-30.341,19.289l-26.766,24.617l-21.408,21.783l-21.49,28.001l-2.907,20.882l-7.728,17.419l7.604,22.201l-19.428,25.586l-15.534,48.966l-1.347,26.501l0,31.654l1.247,26.75l24.905,19.694l55.489,12.53l55.329,-3.565l38.017,-6.501l59.778,-36.105l14.961,25.031l21.508,16.762l28.77,3.847l37.869,10.957l40.433,-9.998l31.098,-8.006l23.694,-12.393l25.194,-10.061l17.597,-9.555l19.501,-7.978Z" style="fill:#6a5b46;stroke:#282118;stroke-width:1px;"/><path d="M256.99,106.458l25.828,20.989l16.533,7.307l18.876,6.823l20.143,2.414l16.177,1.242l21.281,-1.672l15.75,-3.164l16.029,-4.892l13.648,-8.057l28.558,-21.246l7.061,6.713l7.06,4.336l12.493,3.905l12.129,0.539l14.457,-0.679l14.324,-0.677l14.007,-1.524l8.878,-6.083l11.088,-8.505l6.093,-7.952l9.732,6.032l13.6,5.117l14.612,5.081l14.393,3.309l16.569,4.389l23.563,4.778l26.215,-0.848l26.458,-1.656l33.443,-4.839l89.77,-28.889l8.593,11.545l15.545,7.513l19.62,9.922l23.848,3.506l18.347,0.197l30.339,-1.864l20.624,-3.79l23.77,-9.202l16.228,-6.886l18.879,-8.581l17.919,15.218l15.182,7.21l15.325,5.449l15.576,3.982l20.429,3.578l15.757,1.01l28.194,-2.218l25.405,-5.212l18.556,-7.249l39.431,-19.854l9.115,6.83l7.051,7.556l16.134,5.016l21.07,3.996l21.657,3.458l23.021,0.536l25.329,-1.693l29.309,-6.495l19.42,-9.096l23.889,-11.337l7.191,10.09l10.065,10.704l28.084,10.074l33.378,7.971l19.838,-0l33.842,-2.901l20.141,-4.267l28.439,-6.147l18.27,-9.694l27.092,-14.752l14.434,12.903l22.586,11.395l26.563,6.482l26.098,5.939l37.025,2.372l35.856,-0.527l39.46,-6.33l43.164,-9.688l34.253,-17.098l34.789,-28.354l39.924,22.088l34.052,17.576l44.966,3.62l73.952,2.045l48.914,-18.146l27.68,-37.417l16.657,-36.419l-24.649,-52.47l-27.025,-39.9l-21.69,-13.795l14.674,-20.499l7.488,-23.636l-15.012,-24.66l-12.817,-31.192l-25.888,-8.903l-35.553,-5.647l-37.828,-9.183l-35.8,1.227l-35.703,6.859l-40.231,33.054l-34.566,-11.803l-25.384,-17.956l-31.913,-14.472l-25.074,-0.903l-25.223,7.278l-17.953,10.104l-17.266,15.128l-21.697,10.358l-10.213,12.064l-13.964,7.763l-15.741,-19.738l-37.615,-28.264l-44.811,-19.372l-31.843,-2.055l-44.321,4.432l-27.901,9.096l-28.805,8.109l-28.864,17.575l-21.301,10.811l-21.91,12.432l-41.467,-26.599l-46.673,-7.811l-27.753,-7.904l-27.364,-0.355l-37.886,1.588l-24.758,8.483l-22.429,7.874l-19.464,14.892l-21.419,7.933l-18.335,14.916l-18.452,-23.131l-35.175,-26.492l-26.229,-9.034l-32.279,-3.847l-23.369,-4.232l-37.733,-8.166l-29.248,2.332l-28.741,17.941l-30.536,21.7l-14.648,10.518l-31.529,-18.602l-32.444,-17.512l-27.364,-15.476l-36.492,-0l-49.958,1.607l-46.945,5.03l-25.579,10.782l-27.517,14.867l-27.28,17.795l-22.199,6.452l-28.256,-30.587l-37.178,-16.533l-20.739,-6.433l-34.537,-1.217l-16.922,7.669l-15.954,12.443l-14.701,11.721l-11.025,11.001l-16.019,23.288l-19.641,-28.722l-37.118,-9.531l-31.884,-11.77l-32.628,-6.389l-24.781,3.014l-34.353,5.114l-21.242,11.541l-35.021,8.805l-19.168,14.39l-30.253,12.053l-38.654,-9.813l-35.027,-12.238l-43.878,-8.566l-33.81,-5.819l-40.889,-8.44l-27.641,-6.111l-19.238,-7.548l-33.857,-2.547l-25.556,13.285l-31.372,20.935l-23.295,-23.122l-33.408,-6.876l-39.323,-0l-30.341,19.289l-26.766,24.617l-21.408,21.783l-21.49,28.001l-2.907,20.882l-7.728,17.419l7.604,22.201l-19.428,25.586l-15.534,48.966l-1.347,26.501l0,31.654l1.247,26.75l24.905,19.694l55.489,12.53l55.329,-3.565l38.017,-6.501l59.778,-36.105l14.961,25.031l21.508,16.762l28.77,3.847l37.869,10.957l40.433,-9.998l31.098,-8.006l23.694,-12.393l25.194,-10.061l17.597,-9.555l19.501,-7.978l17.612,17.931l23.378,21.524l20.33,10.291l46.564,8.245l34.925,0l22.401,-3.749l32.997,-8.639l28.775,-12.088l32.962,-19.066Z" style="fill:#6a5b46;stroke:#282118;stroke-width:1px;"/></g><g id="Cloud2.Duration:600ms.Effect:Loop"><path d="M221.487,4.99l-35.091,9.63l-31.798,12.011l-39.832,8.407l-30.693,5.711l-37.118,8.283l-25.093,5.998l-17.465,7.408l-30.735,2.5l-23.199,-13.038l-28.48,-20.547l-21.147,22.693l-30.328,6.748l-35.697,0l-27.544,-18.931l-24.299,-24.16l-19.433,-21.378l-19.509,-27.482l-2.639,-20.494l-7.016,-17.096l6.903,-21.788l-17.636,-25.112l-14.102,-48.057l-1.223,-26.009l-0,-31.066l1.132,-26.254l22.609,-19.328l50.373,-12.297l50.227,3.499l34.512,6.38l54.266,35.435l13.583,-24.567l19.524,-16.45l26.117,-3.776l34.378,-10.754l36.705,9.812l28.231,7.858l21.509,12.163l22.872,9.875l15.974,9.377l17.703,7.83l15.988,-17.599l21.223,-21.123l18.456,-10.1l42.271,-8.093l31.704,0l20.336,3.68l29.954,8.478l26.123,11.863l29.923,18.713l23.446,-20.6l15.009,-7.17l17.135,-6.697l18.286,-2.369l14.685,-1.22l19.319,1.642l14.298,3.105l14.551,4.802l12.39,7.906l25.925,20.852l6.41,-6.589l6.409,-4.255l11.341,-3.832l11.011,-0.529l13.124,0.666l13.003,0.665l12.716,1.495l8.06,5.97l10.065,8.348l5.531,7.804l8.835,-5.92l12.346,-5.022l13.265,-4.987l13.066,-3.248l15.041,-4.307l21.39,-4.689l23.799,0.832l24.018,1.625l30.36,4.749l81.493,28.354l7.801,-11.332l14.111,-7.373l17.812,-9.738l21.649,-3.441l16.655,-0.193l27.542,1.83l18.722,3.719l21.579,9.031l14.732,6.758l17.138,8.422l16.267,-14.936l13.782,-7.076l13.912,-5.348l14.14,-3.907l18.545,-3.512l14.305,-0.991l25.594,2.176l23.063,5.116l16.845,7.114l35.796,19.485l8.274,-6.703l6.401,-7.416l14.647,-4.923l19.127,-3.922l19.66,-3.392l20.898,-0.527l22.994,1.662l26.607,6.374l17.629,8.927l21.687,11.126l6.528,-9.902l9.137,-10.505l25.494,-9.887l30.301,-7.823l18.009,0l30.722,2.847l18.284,4.188l25.817,6.033l16.585,9.514l24.594,14.477l13.103,-12.662l20.504,-11.184l24.114,-6.362l23.692,-5.829l33.611,-2.328l32.551,0.517l35.821,6.213l39.184,9.508l31.096,16.781l31.581,27.828l36.243,-21.679l30.912,-17.249l40.821,-3.553l67.133,-2.007l44.404,17.809l25.128,36.722l15.122,35.743l-22.377,51.497l-24.534,39.159l-19.69,13.538l13.321,20.119l6.798,23.197l-13.628,24.202l-11.635,30.614l-23.501,8.738l-32.275,5.542l-34.341,9.011l-32.499,-1.203l-32.411,-6.732l-36.521,-32.441l-31.379,11.584l-23.045,17.623l-28.97,14.204l-22.762,0.886l-22.898,-7.143l-16.297,-9.917l-15.675,-14.846l-19.696,-10.166l-9.271,-11.841l-12.677,-7.618l-14.289,19.371l-34.147,27.739l-40.68,19.013l-28.907,2.017l-40.234,-4.35l-25.329,-8.927l-26.149,-7.958l-26.203,-17.249l-19.337,-10.61l-19.89,-12.202l-37.644,26.105l-42.369,7.666l-25.195,7.757l-24.84,0.349l-34.394,-1.558l-22.475,-8.326l-20.361,-7.728l-17.669,-14.615l-19.444,-7.786l-16.645,-14.639l-16.751,22.702l-31.932,26l-23.81,8.865l-29.304,3.776l-21.214,4.153l-34.254,8.016l-26.551,-2.29l-26.091,-17.607l-27.721,-21.297l-13.297,-10.324l-28.622,18.258l-29.453,17.186l-24.841,15.189l-33.127,0l-45.353,-1.577l-42.616,-4.937l-23.221,-10.582l-24.979,-14.591l-24.766,-17.464l-20.152,-6.333l-25.65,30.02l-33.75,16.226l-18.828,6.313l-31.352,1.195l-15.362,-7.527l-14.483,-12.212l-13.345,-11.504l-10.01,-10.796l-14.541,-22.855l-17.83,28.188l-33.696,9.354l-28.944,11.552l-29.62,6.27l-22.496,-2.958l-31.186,-5.019l-19.283,-11.327l-31.792,-8.641l-17.401,-14.123l-27.463,-11.829Z" style="fill:#6a5b46;stroke:#282118;stroke-width:1px;"/><path d="M658.519,14.663l-25.65,30.02l-33.75,16.226l-18.828,6.313l-31.352,1.195l-15.362,-7.527l-14.483,-12.212l-13.345,-11.504l-10.01,-10.796l-14.541,-22.855l-17.83,28.188l-33.696,9.354l-28.944,11.552l-29.62,6.27l-22.496,-2.958l-31.186,-5.019l-19.283,-11.327l-31.792,-8.641l-17.401,-14.123l-27.463,-11.829l-35.091,9.63l-31.798,12.011l-39.832,8.407l-30.693,5.711l-37.118,8.283l-25.093,5.998l-17.465,7.408l-30.735,2.5l-23.199,-13.038l-28.48,-20.547l-21.147,22.693l-30.328,6.748l-35.697,0l-27.544,-18.931l-24.299,-24.16l-19.433,-21.378l-19.509,-27.482l-2.639,-20.494l-7.016,-17.096l6.903,-21.788l-17.636,-25.112l-14.102,-48.057l-1.223,-26.009l-0,-31.066l1.132,-26.254l22.609,-19.328l50.373,-12.297l50.227,3.499l34.512,6.38l54.266,35.435l13.583,-24.567l19.524,-16.45l26.117,-3.776l34.378,-10.754l36.705,9.812l28.231,7.858l21.509,12.163l22.872,9.875l15.974,9.377l17.703,7.83l15.988,-17.599l21.223,-21.123l18.456,-10.1l42.271,-8.093l31.704,0l20.336,3.68l29.954,8.478l26.123,11.863l29.923,18.713l23.446,-20.6l15.009,-7.17l17.135,-6.697l18.286,-2.369l14.685,-1.22l19.319,1.642l14.298,3.105l14.551,4.802l12.39,7.906l25.925,20.852l6.41,-6.589l6.409,-4.255l11.341,-3.832l11.011,-0.529l13.124,0.666l13.003,0.665l12.716,1.495l8.06,5.97l10.065,8.348l5.531,7.804l8.835,-5.92l12.346,-5.022l13.265,-4.987l13.066,-3.248l15.041,-4.307l21.39,-4.689l23.799,0.832l24.018,1.625l30.36,4.749l81.493,28.354l7.801,-11.332l14.111,-7.373l17.812,-9.738l21.649,-3.441l16.655,-0.193l27.542,1.83l18.722,3.719l21.579,9.031l14.732,6.758l17.138,8.422l16.267,-14.936l13.782,-7.076l13.912,-5.348l14.14,-3.907l18.545,-3.512l14.305,-0.991l25.594,2.176l23.063,5.116l16.845,7.114l35.796,19.485l8.274,-6.703l6.401,-7.416l14.647,-4.923l19.127,-3.922l19.66,-3.392l20.898,-0.527l22.994,1.662l26.607,6.374l17.629,8.927l21.687,11.126l6.528,-9.902l9.137,-10.505l25.494,-9.887l30.301,-7.823l18.009,0l30.722,2.847l18.284,4.188l25.817,6.033l16.585,9.514l24.594,14.477l13.103,-12.662l20.504,-11.184l24.114,-6.362l23.692,-5.829l33.611,-2.328l32.551,0.517l35.821,6.213l39.184,9.508l31.096,16.781l31.581,27.828l36.243,-21.679l30.912,-17.249l40.821,-3.553l67.133,-2.007l44.404,17.809l25.128,36.722l15.122,35.743l-22.377,51.497l-24.534,39.159l-19.69,13.538l13.321,20.119l6.798,23.197l-13.628,24.202l-11.635,30.614l-23.501,8.738l-32.275,5.542l-34.341,9.011l-32.499,-1.203l-32.411,-6.732l-36.521,-32.441l-31.379,11.584l-23.045,17.623l-28.97,14.204l-22.762,0.886l-22.898,-7.143l-16.297,-9.917l-15.675,-14.846l-19.696,-10.166l-9.271,-11.841l-12.677,-7.618l-14.289,19.371l-34.147,27.739l-40.68,19.013l-28.907,2.017l-40.234,-4.35l-25.329,-8.927l-26.149,-7.958l-26.203,-17.249l-19.337,-10.61l-19.89,-12.202l-37.644,26.105l-42.369,7.666l-25.195,7.757l-24.84,0.349l-34.394,-1.558l-22.475,-8.326l-20.361,-7.728l-17.669,-14.615l-19.444,-7.786l-16.645,-14.639l-16.751,22.702l-31.932,26l-23.81,8.865l-29.304,3.776l-21.214,4.153l-34.254,8.016l-26.551,-2.29l-26.091,-17.607l-27.721,-21.297l-13.297,-10.324l-28.622,18.258l-29.453,17.186l-24.841,15.189l-33.127,0l-45.353,-1.577l-42.616,-4.937l-23.221,-10.582l-24.979,-14.591l-24.766,-17.464l-20.152,-6.333Z" style="fill:#6a5b46;stroke:#282118;stroke-width:1px;"/></g></svg>