<?xml version="1.0" encoding="UTF-8" standalone="no"?><!DOCTYPE svg PUBLIC "-//W3C//DTD SVG 1.1//EN" "http://www.w3.org/Graphics/SVG/1.1/DTD/svg11.dtd"><svg width="100%" height="100%" viewBox="0 0 90 105" version="1.1" xmlns="http://www.w3.org/2000/svg" xmlns:xlink="http://www.w3.org/1999/xlink" xml:space="preserve" xmlns:serif="http://www.serif.com/" style="fill-rule:evenodd;clip-rule:evenodd;stroke-linecap:round;stroke-linejoin:round;stroke-miterlimit:1.5;"><g id="LeftFlameBottom.Effect:Loop.Duration:500ms"><path d="M80.078,97.04l0.167,-3.242l-0.039,-2.882l0.007,-3.812l-0.133,-3.963l-0.641,-4.939l-0.858,-3.004l-1.092,-4.028l-2.157,-3.087l-0.116,1.372l-0.033,1.091l-0.152,1.75l-0.188,1.231l-0.538,1.538l-0.697,1.66l-0.62,1.092l-0.94,1.548l-1.964,-5.511l-0.402,-3.756l0.062,-4.502l0.495,-3.786l0.004,-4.328l-0.075,-3.492l-0.295,-3.594l-2.074,-5.539l-0.283,2.591l-0.302,1.48l-0.353,1.472l-0.895,2.296l-0.612,1.74l-0.705,1.882l-0.559,1.599l-0.929,3.24l-1.516,-2.081l-1.258,-2.42l-1.222,-3.021l-1.104,-2.761l-0.821,-2.973l-0.609,-2.767l-0.074,-5.049l0.08,-5.649l-1.319,0.623l-0.609,0.85l-0.571,0.838l-0.531,0.741l-0.481,1.037l-0.651,0.964l-0.493,0.913l-0.745,1.447l-0.508,-3.855l-0.408,-3.014l0.549,-4.511l0.914,-3.344l0.174,-5.415l-1.157,-3.936l-2.093,-5.466l-4.858,-5.568l0.589,2.996l0.035,2.046l0.265,1.963l0.056,1.605l-0.055,1.833l-0.115,1.619l-0.664,2.261l-1.257,1.962l-1.576,-2.083l-1.458,-2.842l-3.148,-4.019l-2.034,-2.743l-3.175,-3.771l-4.744,-3.811l-4.803,-2.676l-4.654,-1.08l1.585,3.287l0.81,3.068l0.515,2.723l0.512,3.368l0.584,3.453l0.648,3.858l-0,2.999l-0.815,4.462l-1.673,-2.894l-1.598,-3.174l-1.602,-2.524l-1.786,-2.228l-2.359,-1.449l-3.543,-0.979l-3.207,-0.436l-3.395,0.133l2.413,3.756l0.912,2.986l0.878,4.254l0.4,3.559l-0.082,3.251l-0.295,3.041l-0.291,3.309l-0.436,4.602l-1.424,-1.419l-1.21,-1.701l-1.575,-1.699l-1.677,-1.97l-2.28,-1.883l-1.949,-1.292l-2.026,-1.129l-2.92,-0.846l2.521,3.241l1.576,2.401l1.044,3.179l0.578,3.404l0.254,3.281l-0.133,3.463l-0.074,3.178l-0.351,4.823l-0.959,-3.339l-1.227,-2.865l-1.886,-2.851l-2.396,-3.047l-2.486,-2.47l-2.234,-1.278l-3.007,-0.877l-3.625,-0.541l2.767,2.81l1.518,2.981l1.047,4.169l0.166,5.799l-0.015,5.5l0.236,4.807l-0.506,3.902l-0.86,4.025l-1.118,-3.109l-1.512,-3.818l-1.614,-2.666l-2.386,-4.025l-4.124,-1.985l-3.187,-1.193l-3.839,-0.626l-3.948,0.991l3.588,2.813l1.537,3.116l1.219,4.074l0.228,3.909l-0.32,3.375l-0.549,3.347l-0.734,2.684l-1.28,4.201l-1.332,-1.318l-1.004,-1.007l-1.248,-0.879l-1.755,-0.918l-1.475,-0.945l-2.239,-0.451l-1.699,0.282l-1.308,1.211l1.308,0.764l2.303,1.328l1.937,0.997l0.675,1.413l0.865,1.738l0.68,2.007l0.408,1.3l1.019,2.379l-1.539,-0.042l-0.893,-0.129l-1.09,0.567l-0.893,0.505l-0.776,0.919l-0.641,1.093l-0.296,0.871l-0.268,1.023l2.648,-0.439l1.864,0.313l2.986,0.841l2.746,2.163l2.552,2.39l1.22,2.855l2.283,2.597l3.076,1.019l-1.826,-2.092l-0.557,-1.046l-0.387,-0.766l-0.324,-0.636l-0.2,-0.737l-0.26,-0.88l-0.121,-0.788l0.081,-1.448l1.841,2.325l2.809,2.404l2.648,1.566l8.258,4.423l3.649,2.328l3.183,2.615l4.007,1.13l4.575,1.344l-1.317,-1.249l-1.098,-0.926l-0.98,-1.005l-1.138,-1.01l-1.107,-1.536l-0.911,-1.455l-0.274,-0.799l0.069,-1.107l3.844,3.542l6.08,2.949l6.66,2.069l4.568,-0.028l5.745,0.181l4.616,1.015l6.943,0.051l6.364,-0.525l-1.371,-1.192l-0.859,-0.485l-0.94,-0.834l-0.923,-0.808l-0.535,-0.923l-0.531,-0.706l0.055,-0.929l-0.021,-0.646l4.614,4.294l4.243,2.674l5.318,1.055l7.537,-1.495l5.128,-0.949l2.656,-0.902l3.827,-0.857l2.001,-0.382l-1.654,-0.758l-0.845,-0.84l-0.857,-0.905l-0.786,-0.836l-0.611,-0.588l-0.548,-0.764l-0.66,-0.663l-0.165,-0.777l2.191,1.466l1.359,0.774l2.502,1.035l2.492,0.352l2.737,-0.092l2.625,0.067l2.425,0.083l3.161,-0.216l2.095,-0.471l1.632,-0.57l1.288,-0.746l0.858,-0.531l0.873,-0.958l-0.331,-2.122l-0.645,-1.9l-0.192,-0.591l-0.146,-0.706l-0.08,-0.505l-0.201,-0.901l-0.189,-0.926l-0.183,-0.753l-0.151,-0.53l-0.335,-0.962l-0.621,-0.813l-0.269,-1.008l-0.155,-1.926l-0.059,-1.641l-0.198,-1.419l-0.182,-1.357l-0.414,-1.649l-0.93,-1.65l-0.626,1.073l-0.495,1.018l-0.421,1.08l-0.592,0.986l-0.451,0.828l-0.413,0.771l-0.535,0.86l-1.108,1.181Z" style="fill:#f3c700;stroke:#804b00;stroke-width:0.75px;"/><path d="M72.048,79.365l-1.964,-5.511l-0.402,-3.756l0.062,-4.502l0.495,-3.786l0.004,-4.328l-0.075,-3.492l-0.295,-3.594l-2.074,-5.539l-0.283,2.591l-0.302,1.48l-0.353,1.472l-0.895,2.296l-0.612,1.74l-0.705,1.882l-0.559,1.599l-0.929,3.24l-1.516,-2.081l-1.258,-2.42l-1.222,-3.021l-1.104,-2.761l-0.821,-2.973l-0.609,-2.767l-0.074,-5.049l0.08,-5.649l-1.319,0.623l-0.609,0.85l-0.571,0.838l-0.531,0.741l-0.481,1.037l-0.651,0.964l-0.493,0.913l-0.745,1.447l-0.508,-3.855l-0.408,-3.014l0.549,-4.511l0.914,-3.344l0.174,-5.415l-1.157,-3.936l-2.093,-5.466l-4.858,-5.568l0.589,2.996l0.035,2.046l0.265,1.963l0.056,1.605l-0.055,1.833l-0.115,1.619l-0.664,2.261l-1.257,1.962l-1.576,-2.083l-1.458,-2.842l-3.148,-4.019l-2.034,-2.743l-3.175,-3.771l-4.744,-3.811l-4.803,-2.676l-4.654,-1.08l1.585,3.287l0.81,3.068l0.515,2.723l0.512,3.368l0.584,3.453l0.648,3.858l-0,2.999l-0.815,4.462l-1.673,-2.894l-1.598,-3.174l-1.602,-2.524l-1.786,-2.228l-2.359,-1.449l-3.543,-0.979l-3.207,-0.436l-3.395,0.133l2.413,3.756l0.912,2.986l0.878,4.254l0.4,3.559l-0.082,3.251l-0.295,3.041l-0.291,3.309l-0.436,4.602l-1.424,-1.419l-1.21,-1.701l-1.575,-1.699l-1.677,-1.97l-2.28,-1.883l-1.949,-1.292l-2.026,-1.129l-2.92,-0.846l2.521,3.241l1.576,2.401l1.044,3.179l0.578,3.404l0.254,3.281l-0.133,3.463l-0.074,3.178l-0.351,4.823l-0.959,-3.339l-1.227,-2.865l-1.886,-2.851l-2.396,-3.047l-2.486,-2.47l-2.234,-1.278l-3.007,-0.877l-3.625,-0.541l2.767,2.81l1.518,2.981l1.047,4.169l0.166,5.799l-0.015,5.5l0.236,4.807l-0.506,3.902l-0.86,4.025l-1.118,-3.109l-1.512,-3.818l-1.614,-2.666l-2.386,-4.026l-4.124,-1.984l-3.187,-1.193l-3.839,-0.626l-3.948,0.991l3.588,2.812l1.537,3.117l1.219,4.074l0.228,3.909l-0.32,3.375l-0.549,3.347l-0.734,2.684l-1.28,4.201l-1.332,-1.318l-1.004,-1.007l-1.248,-0.879l-1.755,-0.918l-1.475,-0.945l-2.239,-0.451l-1.699,0.282l-1.308,1.211l1.308,0.764l2.303,1.328l1.937,0.997l0.675,1.413l0.865,1.738l0.68,2.007l0.408,1.3l1.019,2.379l-1.539,-0.042l-0.893,-0.129l-1.09,0.567l-0.893,0.505l-0.776,0.919l-0.641,1.093l-0.296,0.871l-0.268,1.023l2.648,-0.439l1.864,0.313l2.986,0.841l2.746,2.163l2.552,2.39l1.22,2.855l2.283,2.597l3.076,1.019l-1.826,-2.092l-0.557,-1.046l-0.387,-0.766l-0.324,-0.636l-0.2,-0.737l-0.26,-0.88l-0.121,-0.788l0.081,-1.448l1.841,2.325l2.809,2.404l2.648,1.566l8.258,4.423l3.649,2.328l3.183,2.615l4.007,1.13l4.575,1.344l-1.317,-1.249l-1.098,-0.926l-0.98,-1.005l-1.138,-1.01l-1.107,-1.536l-0.911,-1.455l-0.274,-0.799l0.069,-1.107l3.844,3.542l6.08,2.949l6.66,2.069l4.568,-0.028l5.745,0.181l4.616,1.015l6.943,0.051l6.364,-0.525l-1.371,-1.192l-0.859,-0.485l-0.94,-0.834l-0.923,-0.808l-0.535,-0.923l-0.531,-0.706l0.055,-0.929l-0.021,-0.646l4.614,4.294l4.243,2.674l5.318,1.055l7.537,-1.495l5.128,-0.949l2.656,-0.902l3.827,-0.857l2.001,-0.382l-1.654,-0.758l-0.845,-0.84l-0.857,-0.905l-0.786,-0.836l-0.611,-0.588l-0.548,-0.764l-0.66,-0.663l-0.165,-0.777l2.191,1.466l1.359,0.774l2.502,1.035l2.492,0.352l2.737,-0.092l2.625,0.067l2.425,0.083l3.161,-0.216l2.095,-0.471l1.632,-0.57l1.288,-0.746l0.858,-0.531l0.873,-0.958l-0.331,-2.122l-0.645,-1.9l-0.192,-0.591l-0.146,-0.706l-0.08,-0.505l-0.201,-0.901l-0.189,-0.926l-0.183,-0.753l-0.151,-0.53l-0.335,-0.962l-0.621,-0.813l-0.269,-1.008l-0.155,-1.926l-0.059,-1.641l-0.198,-1.419l-0.182,-1.357l-0.414,-1.649l-0.93,-1.65l-0.626,1.073l-0.495,1.018l-0.421,1.08l-0.592,0.986l-0.451,0.828l-0.413,0.771l-0.535,0.86l-1.108,1.181l0.167,-3.242l-0.039,-2.882l0.007,-3.812l-0.133,-3.963l-0.641,-4.939l-0.858,-3.004l-1.092,-4.028l-2.157,-3.087l-0.116,1.372l-0.033,1.091l-0.152,1.75l-0.188,1.231l-0.538,1.538l-0.697,1.66l-0.62,1.092l-0.94,1.548Z" style="fill:#f3c700;stroke:#804b00;stroke-width:0.75px;"/></g><g id="LeftFlameBottomInside.Effect:Loop.Duration:500ms"><path d="M78.344,110.513l-1.181,-3.712l-1.754,-1.109l-0.569,-1.689l-0.305,-4.115l0.383,-5.304l-0.789,-5.174l-0.457,0.946l-0,1.093l-0.459,0.838l-0.294,0.591l-0.632,0.617l-0.518,0.65l-0.305,0.577l-0.792,1.064l-0.808,-7.271l-1.22,-3.138l-1.098,-3.123l-0.995,-3.52l-0.508,-3.137l-0.293,-2.579l-0.205,-5.499l-0.896,0.551l-0.352,0.895l-0.369,0.903l-0.043,0.719l-0.213,1.216l-0.23,1.075l-0.128,1.782l-0.197,0.787l-1.733,-2.879l-1.266,-2.25l-1.819,-2.828l-2.066,-3.177l-1.09,-2.801l-1.252,-2.08l-1.254,-3.084l-1.138,-3.896l-1.452,1.034l-0.286,1.599l-0.072,1.301l-0.271,1.844l-0,2.009l0.053,1.224l-0.059,2.066l-0.116,1.616l-2.423,-4.553l-1.08,-3.84l-0.123,-2.652l-0.082,-3.579l-0.132,-2.57l-0.135,-2.695l-0.673,-3.271l-0.306,-5.143l-1.241,2.958l-0.488,1.457l-0.398,2.023l-0.85,1.446l-0.869,1.232l-0.332,1.605l-0.831,2.355l-0.576,1.65l-0.452,-7.299l-0.133,-3.423l-0.093,-2.642l-0.809,-3.081l-1.49,-2.46l-1.913,-1.633l-1.005,-1.222l-0.301,3.091l-0.263,1.88l-0.783,1.829l-0.684,0.997l-1.472,1.825l-1.34,1.419l-1.329,1.634l-1.109,0.892l-2.734,-0.859l-1.371,-1.984l-1.166,-1.972l-1.737,-2.523l-0.616,-0.689l-1.489,-1.84l-1.013,-0.695l-1.145,-0.951l-0.588,1.724l-0.402,3.519l-0.216,3.831l-0.356,2.486l-0.62,3.702l-0.26,1.968l-0.912,3.103l-0.706,2.651l-1.182,-0.909l-0.987,-0.449l-0.641,-0.4l-0.95,-0.52l-0.603,-0.471l-0.489,-0.203l-0.884,-0.431l0.299,1.869l-0.27,2.208l-0.089,2.971l-0.336,2.8l-0.332,3.002l-0.569,2.289l-0.864,2.991l-1.759,2.874l-1.205,-0.821l-1.058,-0.914l-1.116,-0.98l-1.093,-0.685l-0.759,-1.279l-0.605,-0.902l-0.899,-0.428l-1.146,-0.105l0.097,1.996l-0.44,3.188l-1.096,3.099l-0.798,2.497l-1.056,2.353l-0.834,1.879l-0.896,2.922l-1.892,2.594l-3.791,-1.299l-0.518,-1.265l-0.972,-1.362l-0.329,-0.762l-0.558,-0.78l-1.303,-1.049l-1.406,-1.104l-2.03,-0.903l-0.137,2.252l-0.715,3.494l-0.504,1.95l-0.62,1.758l-0.887,2.07l-1.013,1.704l-0.786,1.685l-1.442,0.656l5.228,8.096l1.725,3.137l2.119,1.827l3.421,2.892l2.464,2.132l3.548,2.144l5.866,2.778l3.783,0.533l-0.896,-1.771l-0.573,-0.961l-0.574,-1.758l0.208,-1.44l0.5,-0.775l0.853,-1.103l0.473,-1.25l0.22,2.71l2.848,1.708l4.998,1.807l5.457,3.085l5.104,3.435l7.389,1.361l51.992,8.085l7.99,1.943l7.07,1.037l2.877,-4.198l0.414,-4.162l-1.643,-4.093l-1.648,-3.225l-2.075,-3.026l-2.213,-0.47l-2.987,-1.738l-4.381,-2.153Z" style="fill:#f9ef42;stroke:#996900;stroke-width:0.75px;"/><path d="M70.672,95.786l-0.808,-7.271l-1.22,-3.138l-1.098,-3.123l-0.995,-3.52l-0.508,-3.137l-0.293,-2.579l-0.205,-5.499l-0.896,0.551l-0.352,0.895l-0.369,0.903l-0.043,0.719l-0.213,1.216l-0.23,1.075l-0.128,1.782l-0.197,0.787l-1.733,-2.879l-1.266,-2.25l-1.819,-2.828l-2.066,-3.177l-1.09,-2.801l-1.252,-2.08l-1.254,-3.084l-1.138,-3.896l-1.452,1.034l-0.286,1.599l-0.072,1.301l-0.271,1.844l-0,2.009l0.053,1.224l-0.059,2.066l-0.116,1.616l-2.423,-4.553l-1.08,-3.84l-0.123,-2.652l-0.082,-3.579l-0.132,-2.57l-0.135,-2.695l-0.673,-3.271l-0.306,-5.143l-1.241,2.958l-0.488,1.457l-0.398,2.023l-0.85,1.446l-0.869,1.232l-0.332,1.605l-0.831,2.355l-0.576,1.65l-0.452,-7.299l-0.133,-3.423l-0.093,-2.642l-0.809,-3.081l-1.49,-2.46l-1.913,-1.633l-1.005,-1.222l-0.301,3.091l-0.263,1.88l-0.783,1.829l-0.684,0.997l-1.472,1.825l-1.34,1.419l-1.329,1.634l-1.109,0.892l-2.734,-0.859l-1.371,-1.984l-1.166,-1.972l-1.737,-2.523l-0.616,-0.689l-1.489,-1.84l-1.013,-0.695l-1.145,-0.951l-0.588,1.724l-0.402,3.519l-0.216,3.831l-0.356,2.486l-0.62,3.702l-0.26,1.968l-0.912,3.103l-0.706,2.651l-1.182,-0.909l-0.987,-0.449l-0.641,-0.4l-0.95,-0.52l-0.603,-0.471l-0.489,-0.203l-0.884,-0.431l0.299,1.869l-0.27,2.208l-0.089,2.971l-0.336,2.8l-0.332,3.002l-0.569,2.289l-0.864,2.991l-1.759,2.874l-1.205,-0.821l-1.058,-0.914l-1.116,-0.98l-1.093,-0.685l-0.759,-1.279l-0.605,-0.902l-0.899,-0.428l-1.146,-0.105l0.097,1.996l-0.44,3.188l-1.096,3.099l-0.798,2.497l-1.056,2.353l-0.834,1.879l-0.896,2.922l-1.892,2.594l-3.791,-1.299l-0.518,-1.265l-0.972,-1.362l-0.329,-0.762l-0.558,-0.78l-1.303,-1.049l-1.406,-1.104l-2.03,-0.903l-0.137,2.252l-0.715,3.494l-0.504,1.95l-0.62,1.758l-0.887,2.07l-1.013,1.704l-0.786,1.685l-1.442,0.656l5.228,8.096l1.725,3.137l2.119,1.827l3.421,2.892l2.464,2.132l3.548,2.144l5.866,2.778l3.783,0.533l-0.896,-1.771l-0.573,-0.961l-0.574,-1.758l0.208,-1.44l0.5,-0.775l0.853,-1.103l0.473,-1.25l0.22,2.71l2.848,1.708l4.998,1.807l5.457,3.085l5.104,3.435l7.389,1.361l51.992,8.085l7.99,1.943l7.07,1.037l2.877,-4.198l0.414,-4.162l-1.643,-4.093l-1.648,-3.225l-2.075,-3.026l-2.213,-0.47l-2.987,-1.738l-4.381,-2.153l-1.181,-3.712l-1.754,-1.109l-0.569,-1.689l-0.305,-4.115l0.383,-5.304l-0.789,-5.174l-0.457,0.946l-0,1.093l-0.459,0.838l-0.294,0.591l-0.632,0.617l-0.518,0.65l-0.305,0.577l-0.792,1.064Z" style="fill:#f9ef42;stroke:#996900;stroke-width:0.75px;"/></g><g id="Line1.Duration:500ms.Effect:Loop.Duration:500ms"><path d="M32.341,79.387l0,2.306l0.249,2.859l0.988,3.285l1.672,4.404" style="fill:none;stroke:#804b00;stroke-width:0.75px;"/><path d="M32.341,75.892l-0.599,3.495l0.599,3.549l1.013,4.531l1.896,2.524" style="fill:none;stroke:#804b00;stroke-width:0.75px;"/></g></svg>