<?xml version="1.0" encoding="UTF-8" standalone="no"?><!DOCTYPE svg PUBLIC "-//W3C//DTD SVG 1.1//EN" "http://www.w3.org/Graphics/SVG/1.1/DTD/svg11.dtd"><svg width="100%" height="100%" viewBox="0 0 523 335" version="1.1" xmlns="http://www.w3.org/2000/svg" xmlns:xlink="http://www.w3.org/1999/xlink" xml:space="preserve" xmlns:serif="http://www.serif.com/" style="fill-rule:evenodd;clip-rule:evenodd;stroke-linecap:square;stroke-miterlimit:1;"><g id="flamaDerecha.Effect:Loop"><path d="M2.828,263.321l2.655,-24.577l17.811,-25.208l24.374,-18.04l21.513,-18.733l19.277,-24.389l1.676,20.115l-2.236,24.703l2.655,22.128l1.328,9.868l11.592,-24.83l14.485,-24.491l19.67,-14.67l23.817,-18.355l26.053,-16.469l24.305,-16.407l16.623,-9.806l-2.793,21.748l-0.978,26.906l14.668,-11.503l17.739,-16.722l19.418,-21.31l13.27,-19.549l11.035,-24.893l6.076,-13.765l9.987,7.102l4.331,14.017l6.216,9.808l7.054,-11.19l10.547,-19.487l22.77,-20.681l19.346,-14.897l20.534,-6.916l19.068,2.013l-12.571,18.859l-15.646,24.828l0.838,22.631l5.449,16.845l19.835,-12.195l12.153,-22.504l7.752,11.253l3.633,37.589l-9.149,22.191l-16.798,25.033l27.309,-3.58l20.358,-17.178l9.571,-17.727l-0.629,29.481l-8.495,31.934l-14.136,23.195l24.331,-4.133l17.174,-11.594l19.256,-23.804l2.239,15.267l-18.997,24.893l-11.456,16.091l-15.046,22.042l-6.045,28.813l9.149,10.873l18.736,-10.961l13.612,-23.568l4.355,11.257l2.409,20.129l-12.852,17.351l-19.275,15.778l-26.402,16.845l-66.072,10.812l-98.761,-0.378l-80.949,-1.823l-93.034,-4.84l-48.332,-7.793l-58.041,-34.636l-9.359,-18.796Z" style="fill:#c88b00;stroke:#662500;stroke-width:4px;"/><path d="M88.458,152.374l1.676,20.115l-2.236,24.703l2.655,22.128l1.328,9.868l11.592,-24.83l14.485,-24.491l19.67,-14.67l23.817,-18.355l26.053,-16.469l24.305,-16.407l16.623,-9.806l-2.793,21.748l-0.978,26.906l14.668,-11.503l17.739,-16.722l19.418,-21.31l13.27,-19.549l11.035,-24.893l6.076,-13.765l9.987,7.102l4.331,14.017l6.216,9.808l7.054,-11.19l10.547,-19.487l22.77,-20.681l19.346,-14.897l20.534,-6.916l19.068,2.013l-12.571,18.859l-15.646,24.828l0.838,22.631l5.449,16.845l19.835,-12.195l12.153,-22.504l7.752,11.253l3.633,37.589l-9.149,22.191l-16.798,25.033l27.309,-3.58l20.358,-17.178l9.571,-17.727l-0.629,29.481l-8.495,31.934l-14.136,23.195l24.331,-4.133l17.174,-11.594l19.256,-23.804l2.239,15.267l-18.997,24.893l-11.456,16.091l-15.046,22.042l-6.045,28.813l9.149,10.873l18.736,-10.961l13.612,-23.568l4.355,11.257l2.409,20.129l-12.852,17.351l-19.275,15.778l-26.402,16.845l-66.072,10.812l-98.761,-0.378l-80.949,-1.823l-93.034,-4.84l-48.332,-7.793l-58.041,-34.636l-9.359,-18.796l2.655,-24.577l17.811,-25.208l24.374,-18.04l21.513,-18.733l19.277,-24.389Z" style="fill:#c88b00;stroke:#662500;stroke-width:4px;"/></g><g id="flamaDerechaDentro.Effect:Loop"><path d="M36.762,277.627l-14.762,-12.836l-5.135,-21.473l22.235,-16.456l19.624,-17.088l17.585,-22.249l1.529,18.35l-2.039,22.534l5.8,16.027l6.995,11.025l12.591,-11.853l9.45,-11.262l15.259,-23.084l16.996,-26.783l23.766,-15.023l22.171,-14.967l15.164,-8.945l-2.548,19.839l-0.892,24.544l13.38,-10.494l18.375,-7.951l15.541,-11.809l16.741,-13.755l7.099,-5.614l8.097,-6.341l9.71,-5.471l12.434,-15.589l10.255,-30.234l8.714,23.773l11.324,11.981l9.951,-22.174l7.136,-23.587l18.171,-19.555l18.078,-15.336l-5.229,25.302l-2.356,14.94l3.223,13.72l10.612,14.845l12.678,11.433l25.918,-22.623l-12.307,24.808l-13.662,23.512l-8.21,14.701l8.786,9.902l16.451,0.456l16.597,-0.425l28.626,-20.61l-5.964,12.104l-8.296,15.87l-8.049,10.919l-8.009,13.818l-5.781,12.269l18.116,0.484l14.105,-5.009l22.235,-6.662l-24.613,24.377l-7.144,11.629l-6.683,16.337l-4.417,15.352l8.363,13.562l14.37,5.46l15.79,1.454l-13.541,10.243l-21.762,5.074l-25.873,7.685l-41.666,1.755l-52.694,0.952l-59.289,1.367l-48.448,-1.902l-58.813,-2.612l-46.862,-1.926l-38.207,-8.943l-22.468,-11.256l-14.322,-10.506Z" style="fill:#fedc00;stroke:#855200;stroke-width:4px;"/><path d="M76.309,187.525l1.529,18.35l-2.039,22.534l5.8,16.027l6.995,11.025l12.591,-11.853l9.45,-11.262l15.259,-23.084l16.996,-26.783l23.766,-15.023l22.171,-14.967l15.164,-8.945l-2.548,19.839l-0.892,24.544l13.38,-10.494l18.375,-7.951l15.541,-11.809l16.741,-13.755l7.099,-5.614l8.097,-6.341l9.71,-5.471l12.434,-15.589l10.255,-30.234l8.714,23.773l11.324,11.981l9.951,-22.174l7.136,-23.587l18.171,-19.555l18.078,-15.336l-5.229,25.302l-2.356,14.94l3.223,13.72l10.612,14.845l12.678,11.433l25.918,-22.623l-12.307,24.808l-13.662,23.512l-8.21,14.701l8.786,9.902l16.451,0.456l16.597,-0.425l28.626,-20.61l-5.964,12.104l-8.296,15.87l-8.049,10.919l-8.009,13.818l-5.781,12.269l18.116,0.484l14.105,-5.009l22.235,-6.662l-24.613,24.377l-7.144,11.629l-6.683,16.337l-4.417,15.352l8.363,13.562l14.37,5.46l15.79,1.454l-13.541,10.243l-21.762,5.074l-25.873,7.685l-41.666,1.755l-52.694,0.952l-59.289,1.367l-48.448,-1.902l-58.813,-2.612l-46.862,-1.926l-38.207,-8.943l-22.468,-11.256l-14.322,-10.506l-14.762,-12.836l-5.135,-21.473l22.235,-16.456l19.624,-17.088l17.585,-22.249Z" style="fill:#fedc00;stroke:#855200;stroke-width:4px;"/></g></svg>