<?xml version="1.0" encoding="UTF-8" standalone="no"?><!DOCTYPE svg PUBLIC "-//W3C//DTD SVG 1.1//EN" "http://www.w3.org/Graphics/SVG/1.1/DTD/svg11.dtd"><svg width="100%" height="100%" viewBox="0 0 593 339" version="1.1" xmlns="http://www.w3.org/2000/svg" xmlns:xlink="http://www.w3.org/1999/xlink" xml:space="preserve" xmlns:serif="http://www.serif.com/" style="fill-rule:evenodd;clip-rule:evenodd;stroke-linecap:square;stroke-miterlimit:1;"><g id="flamaDerecha"><path d="M2.828,263.321l2.655,-24.577l17.811,-25.208l24.374,-18.04l21.513,-18.733l19.277,-24.389l1.676,20.115l-2.236,24.703l2.655,22.128l1.328,9.868l11.592,-24.83l14.485,-24.491l19.67,-14.67l23.817,-18.355l26.053,-16.469l24.305,-16.407l16.623,-9.806l-2.793,21.748l-0.978,26.906l14.668,-11.503l17.739,-16.722l19.418,-21.31l13.27,-19.549l11.035,-24.893l6.076,-13.765l9.987,7.102l4.331,14.017l6.216,9.808l7.054,-11.19l10.547,-19.487l22.77,-20.681l19.346,-14.897l20.534,-6.916l19.068,2.013l-12.571,18.859l-15.646,24.828l0.838,22.631l5.449,16.845l19.835,-12.195l12.153,-22.504l7.752,11.253l3.633,37.589l-9.149,22.191l-16.798,25.033l27.309,-3.58l20.358,-17.178l9.571,-17.727l-0.629,29.481l-8.495,31.934l-14.136,23.195l24.331,-4.133l17.174,-11.594l19.256,-23.804l2.239,15.267l-18.997,24.893l-11.456,16.091l-15.046,22.042l-6.045,28.813l9.149,10.873l18.736,-10.961l13.612,-23.568l4.355,11.257l2.409,20.129l-12.852,17.351l-19.275,15.778l-26.402,16.845l-66.072,10.812l-98.761,-0.378l-80.949,-1.823l-93.034,-4.84l-48.332,-7.793l-58.041,-34.636l-9.359,-18.796Z" style="fill:#c88b00;stroke:#662500;stroke-width:4px;"/><path d="M11.021,250.858l2.609,-36.378l15.078,-18.171l4.745,22.501l14.171,15.893l7.193,-34.572l30.182,-31.492l16.84,-7.11l17.853,-2.406l-16.993,30.787l11.249,30.012l20.459,-37.575l32.431,-25.922l27.141,-13.458l20.21,-13.296l17.651,-10.283l16.539,-0.296l-36.08,40.148l-4.146,19.321l15.595,-11.618l40.022,-14.278l7.373,-40.927l23.932,-39.862l43.526,-43.676l-16.126,47.607l5.195,22.935l13.673,20.102l5.749,-52.67l21.726,-25.839l27.852,-30.263l52.835,-3.952l-37.965,30.785l-13.305,22.128l3.727,24.641l27.407,-9.769l24.956,-21.743l28.571,3.946l-31.613,38.277l-10.383,19.218l-1.06,39.649l27.438,-23.933l46.249,-21.94l-37.693,42.994l2.65,54.84l13.47,-15.47l17.875,-20.398l44.287,-12.948l-20.705,33.228l-16.508,20.178l-12.676,22.707l-1.437,15.891l20.164,-13.086l12.5,-11.788l17.031,-3.159l37.436,8.031l-34.027,3.58l-23.587,16.879l-17.573,19.758l-14.106,33.759l20.295,-5.307l11.293,-12.262l0.14,16.052l-12.66,17.443l-44.546,12.318l-38.704,-1.014l-64.291,2.311l-42.98,3.299l-68.072,-3.269l-64.965,-1.562l-87.138,-11.289l-38.772,-2.342l-49.258,-38.637l-9.949,-27.258Z" style="fill:none;stroke:#000;stroke-width:4px;"/></g><g id="flamaDerechaDentro"><path d="M36.762,277.627l-14.762,-12.836l-5.135,-21.473l22.235,-16.456l19.624,-17.088l17.585,-22.249l1.529,18.35l-2.039,22.534l5.8,16.027l6.995,11.025l12.591,-11.853l9.45,-11.262l15.259,-23.084l16.996,-26.783l23.766,-15.023l22.171,-14.967l15.164,-8.945l-2.548,19.839l-0.892,24.544l13.38,-10.494l18.375,-7.951l15.541,-11.809l16.741,-13.755l7.099,-5.614l8.097,-6.341l9.71,-5.471l12.434,-15.589l10.255,-30.234l8.714,23.773l11.324,11.981l9.951,-22.174l7.136,-23.587l18.171,-19.555l18.078,-15.336l-5.229,25.302l-2.356,14.94l3.223,13.72l10.612,14.845l12.678,11.433l25.918,-22.623l-12.307,24.808l-13.662,23.512l-8.21,14.701l8.786,9.902l16.451,0.456l16.597,-0.425l28.626,-20.61l-5.964,12.104l-8.296,15.87l-8.049,10.919l-8.009,13.818l-5.781,12.269l18.116,0.484l14.105,-5.009l22.235,-6.662l-24.613,24.377l-7.144,11.629l-6.683,16.337l-4.417,15.352l8.363,13.562l14.37,5.46l15.79,1.454l-13.541,10.243l-21.762,5.074l-25.873,7.685l-41.666,1.755l-52.694,0.952l-59.289,1.367l-48.448,-1.902l-58.813,-2.612l-46.862,-1.926l-38.207,-8.943l-22.468,-11.256l-14.322,-10.506Z" style="fill:#fedc00;stroke:#855200;stroke-width:4px;"/><path d="M39.675,267.688l-7.244,-14.98l-5.162,-17.686l26.857,24.496l15.151,-42.157l14.848,-27.723l3.504,21.453l7.594,16.64l7.247,12.384l22.442,2.655l9.09,-15.898l10.601,-15.284l12.605,-18.618l12.232,-11.55l13.427,-4.107l9.641,-11.681l8.267,-7.549l-9.622,32.131l19.195,20.023l8.135,-20.663l23.313,-7.262l27.114,-12.717l11.417,-15.44l8.105,-12.132l-0.597,-19.564l10.114,-25.808l12.041,-17.417l-0.079,35.923l30.642,24.809l21.328,-2.592l-1.976,-25.592l0.851,-29.589l6.987,-12.38l16.786,-21.68l-4.201,12.94l-2.356,14.94l3.223,13.72l10.612,14.845l13.345,3.051l25.251,-14.241l-10.663,15.171l-1.003,13.315l-1.38,15.226l-1.29,11.607l-2.769,24.554l0.852,8.402l14.03,9.759l6.958,-11.001l9.287,-7.364l12.42,-6.62l-2.896,8.356l-0.463,7.514l3.535,13.342l-0.482,10.621l2.636,11.375l8.408,16.601l22.029,-19.478l-4.129,19.339l-5.282,30.494l20.421,-4.253l-16.039,19.925l-25.357,17.242l20.667,7.587l-33.635,8.873l-26.727,-3.277l-41.666,1.755l-52.694,0.952l-59.289,1.367l-48.448,-1.902l-58.813,-2.612l-47.167,-8.855l-37.902,-2.014l-20.151,-15.717l-13.726,-15.984Z" style="fill:none;stroke:#000;stroke-width:4px;"/></g></svg>