<?xml version="1.0" encoding="UTF-8" standalone="no"?>
<!DOCTYPE svg PUBLIC "-//W3C//DTD SVG 1.1//EN" "http://www.w3.org/Graphics/SVG/1.1/DTD/svg11.dtd"><svg width="100%"
  height="100%" viewBox="0 0 1024 600" version="1.1" xmlns="http://www.w3.org/2000/svg"
  xmlns:xlink="http://www.w3.org/1999/xlink" xml:space="preserve" xmlns:serif="http://www.serif.com/"
  style="fill-rule:evenodd;clip-rule:evenodd;stroke-linecap:square;stroke-miterlimit:1;">
  <g id="flamaDerecha">
    <path
      d="M559.021,544.975l2.655,-24.578l17.81,-25.208l24.375,-18.04l21.513,-18.733l19.277,-24.389l1.676,20.115l-2.236,24.703l2.655,22.128l1.328,9.869l11.592,-24.831l14.485,-24.491l19.67,-14.67l23.817,-18.355l26.053,-16.469l24.305,-16.407l16.623,-9.806l-2.793,21.748l-0.978,26.906l14.668,-11.503l17.739,-16.722l19.417,-21.31l13.271,-19.549l11.035,-24.893l6.076,-13.765l9.987,7.102l4.331,14.017l6.216,9.809l7.054,-11.191l10.547,-19.487l22.77,-20.681l19.346,-14.896l20.534,-6.916l19.068,2.013l-12.571,18.858l-15.646,24.828l0.838,22.631l5.449,16.845l19.835,-12.194l12.153,-22.505l7.752,11.254l3.633,37.588l-9.149,22.191l-16.798,25.033l27.309,-3.58l20.358,-17.178l9.571,-17.727l-0.629,29.481l-8.495,31.934l-14.136,23.195l24.331,-4.133l17.174,-11.594l19.256,-23.804l2.239,15.267l-18.997,24.893l-11.456,16.091l-15.046,22.042l-6.045,28.813l9.149,10.873l18.735,-10.961l13.613,-23.568l4.355,11.257l2.409,20.129l-12.852,17.351l-19.275,15.778l-26.402,16.845l-66.072,10.812l-98.761,-0.378l-80.949,-1.823l-93.034,-4.84l-48.332,-7.793l-58.041,-34.636l-9.359,-18.795Z"
      style="fill:#c88b00;stroke:#662500;stroke-width:4px;" />
    <path
      d="M567.214,532.512l2.609,-36.379l15.078,-18.171l4.745,22.501l14.17,15.893l7.194,-34.572l30.182,-31.492l16.84,-7.11l17.853,-2.406l-16.993,30.787l11.249,30.012l20.459,-37.575l32.431,-25.922l27.14,-13.458l20.211,-13.295l17.651,-10.283l16.539,-0.296l-36.08,40.147l-4.146,19.321l15.595,-11.618l40.021,-14.278l7.374,-40.926l23.932,-39.863l43.526,-43.676l-16.126,47.607l5.195,22.936l13.673,20.101l5.749,-52.67l21.726,-25.839l27.852,-30.262l52.835,-3.953l-37.965,30.785l-13.305,22.128l3.727,24.641l27.407,-9.768l24.956,-21.744l28.571,3.946l-31.613,38.277l-10.383,19.218l-1.06,39.649l27.438,-23.933l46.249,-21.94l-37.693,42.994l2.65,54.84l13.47,-15.47l17.875,-20.398l44.287,-12.948l-20.705,33.228l-16.508,20.178l-12.676,22.707l-1.437,15.891l20.164,-13.086l12.5,-11.787l17.031,-3.159l37.436,8.03l-34.027,3.58l-23.587,16.879l-17.573,19.758l-14.107,33.759l20.296,-5.307l11.293,-12.261l0.139,16.051l-12.659,17.444l-44.546,12.317l-38.704,-1.014l-64.291,2.311l-42.98,3.299l-68.072,-3.269l-64.965,-1.561l-87.138,-11.29l-38.772,-2.342l-49.258,-38.636l-9.949,-27.258Z"
      style="fill:none;stroke:#000;stroke-width:4px;" />
  </g>
  <g id="flamaIzquierda">
    <path
      d="M401.298,485.042l1.781,-36.674l-11.711,-39.164l-18.815,-29.22l-16.13,-29.953l-13.166,-38.101l-4.911,29.62l-2.178,36.817l-6.13,32.502l-2.864,14.48l-6.196,-37.966l-8.848,-37.76l-15.165,-23.746l-18.262,-29.63l-20.587,-27.066l-19.029,-26.794l-13.255,-16.23l-1.178,32.498l-3.679,39.951l-11.213,-18.543l-13.085,-26.588l-13.813,-33.554l-8.596,-30.317l-5.685,-38.001l-3.12,-21.011l-10.165,9.494l-6.26,20.317l-7.239,13.889l-4.434,-17.298l-6.163,-29.944l-16.928,-32.968l-14.836,-24.049l-17.253,-12.35l-17.45,1.024l8.085,29.221l9.833,38.379l-4.585,33.434l-7.743,24.39l-15.731,-20.097l-7.094,-34.578l-8.862,15.871l-9.627,55.3l4.451,33.806l10.833,38.8l-23.898,-8.104l-15.357,-27.533l-5.585,-27.236l-4.43,43.728l2.213,48.17l8.756,35.805l-21.132,-8.619l-13.447,-18.934l-13.246,-37.232l-4.594,22.382l12.828,38.818l7.554,25.009l9.768,34.19l0.543,43.296l-10.051,15.165l-14.955,-18.156l-8.222,-36.304l-5.814,16.226l-5.571,29.566l8.592,27.017l14.623,25.347l20.837,27.658l57.454,22.795l88.681,9.575l72.943,5.607l84.298,2.377l44.688,-6.582l57.946,-45.344l11.581,-26.878Z"
      style="fill:#c88b00;stroke:#662500;stroke-width:4px;" />
    <path
      d="M396.058,465.742l3.821,-54.148l-10.451,-28.46l-8.069,32.839l-15.407,22.086l-0.599,-51.943l-21.747,-49.741l-13.906,-12.258l-15.612,-5.396l10.033,47.342l-15.178,43.297l-11.993,-57.752l-24.709,-41.721l-22.073,-22.718l-15.882,-21.766l-14.097,-17.042l-14.789,-2.135l25.573,63.165l0.447,29.041l-12.025,-18.807l-33.492,-25.255l0.316,-61.372l-14.722,-61.497l-31.656,-69.155l6.405,72.166l-8.547,33.436l-15.673,28.37l3.763,-78.6l-15.118,-40.499l-19.864,-47.681l-46.739,-11.276l28.851,49.492l8.19,34.139l-7.518,36.114l-22.937,-17.281l-18.71,-34.766l-26.305,2.913l21.882,59.937l6.062,29.529l-5.765,58.834l-20.566,-38.264l-37.782,-37.241l26.539,67.547l-11.667,80.952l-9.466,-24.295l-12.584,-32.046l-37.545,-23.723l12.95,51.34l11.395,31.58l7.527,34.932l-1.402,23.684l-15.877,-21.451l-9.219,-18.742l-14.746,-6.426l-34.952,8.052l29.926,8.795l18.306,27.419l12.421,31.067l6.939,51.449l-17.312,-9.942l-8.056,-19.321l-2.844,23.76l8.404,27.135l37.884,22.814l34.9,2.47l57.297,10.021l38.006,9.296l61.634,2.144l58.557,4.354l80.1,-7.779l35.186,0.51l50.743,-52.17l13.544,-39.352Z"
      style="fill:none;stroke:#000;stroke-width:4px;" />
  </g>
</svg>