<?xml version="1.0" encoding="UTF-8" standalone="no"?><!DOCTYPE svg PUBLIC "-//W3C//DTD SVG 1.1//EN" "http://www.w3.org/Graphics/SVG/1.1/DTD/svg11.dtd"><svg width="100%" height="100%" viewBox="0 0 2000 260" version="1.1" xmlns="http://www.w3.org/2000/svg" xmlns:xlink="http://www.w3.org/1999/xlink" xml:space="preserve" xmlns:serif="http://www.serif.com/" style="fill-rule:evenodd;clip-rule:evenodd;stroke-linecap:round;stroke-linejoin:round;stroke-miterlimit:1.5"><polygon points="6000.5,0 0.5,0 0.5,166.53 12.92,179.42 25.54,186.47 42.97,192.65 63.14,198.33 83.06,200.07 102.17,200.07 121.74,196.46 142.85,186.47 161.39,179.42 187.1,161.86 205.65,150.24 214.19,144.35 228.87,161.86 237.56,174.68 256.98,190.7 278.37,196.46 305.94,202.13 344.68,202.13 368.5,194.7 387.67,186.47 408.28,174.68 428.02,158.49 444.21,174.68 461.38,186.47 483.23,194.7 529.81,194.7 555.6,186.47 572.27,174.68 587.79,161.86 597.72,169.39 609.71,174.68 624.25,174.68 642.29,172.62 658.21,168.87 669.98,161.57 677.98,155.57 664.68,146 656.65,139.82 681.07,152.95 694.06,159.85 725.67,170.97 757.84,177.67 791.28,176.49 823.23,170.44 851.85,160.54 872.34,150.97 888.36,143.82 896.28,140.84 889.03,128.97 904.27,151.68 922.35,164.12 938.7,170.63 962.5,172.56 985.6,171.54 1003.31,168.79 1026.89,159.65 1044.63,151.73 1058.02,143.85 1068.69,155.57 1081.56,164.72 1094.57,170.85 1110,175.69 1132.92,179.62 1152.15,179.62 1170.71,175.82 1187.25,171.37 1203.88,163.47 1222.42,153.53 1234.29,144.39 1249.57,161.73 1267.31,167.48 1288.92,171.63 1312.53,170.9 1333.95,169.34 1348.76,165.28 1367.74,160.49 1382.89,155.57 1401.96,146.3 1391.87,155.57 1402.06,165.04 1429.61,175.13 1443.44,181.77 1464.57,185.16 1494.01,183.02 1527.95,174.3 1548.13,165.08 1570.51,154 1581.97,145.85 1595.82,159.9 1613.36,170.51 1635.82,178.11 1655.53,183.07 1685.69,185.21 1723.32,183.79 1756.86,183.32 1777.35,177.11 1796.21,164.92 1812.47,152.71 1826.29,138.69 1842.43,120.86 1853.01,135.52 1865.43,145.72 1887.69,158.7 1910.77,170.14 1932.26,173.28 1962.05,173.32 1987.07,169.36 2000.5,166.63 2000.5,166.53 2012.92,179.42 2025.54,186.47 2042.97,192.65 2063.14,198.33 2083.06,200.07 2102.17,200.07 2121.74,196.46 2142.85,186.47 2161.39,179.42 2187.1,161.86 2205.65,150.24 2214.19,144.35 2228.87,161.86 2237.56,174.68 2256.98,190.7 2278.37,196.46 2305.94,202.13 2344.68,202.13 2368.5,194.7 2387.67,186.47 2408.28,174.68 2428.02,158.49 2444.21,174.68 2461.38,186.47 2483.23,194.7 2529.81,194.7 2555.6,186.47 2572.27,174.68 2587.79,161.86 2597.72,169.39 2609.71,174.68 2624.25,174.68 2642.29,172.62 2658.21,168.87 2669.98,161.57 2677.98,155.57 2664.68,146 2656.65,139.82 2681.07,152.95 2694.06,159.85 2725.67,170.97 2757.84,177.67 2774.56,177.08 2791.28,176.49 2823.23,170.44 2851.85,160.54 2872.34,150.97 2888.36,143.82 2896.28,140.84 2889.03,128.97 2904.27,151.68 2922.35,164.12 2938.7,170.63 2962.5,172.56 2974.05,172.05 2985.6,171.54 3003.31,168.79 3026.89,159.65 3044.63,151.73 3058.02,143.85 3068.69,155.57 3081.56,164.72 3094.57,170.85 3109.99,175.69 3132.92,179.62 3152.15,179.62 3170.71,175.82 3187.25,171.37 3203.88,163.47 3222.42,153.53 3234.29,144.39 3249.57,161.73 3267.31,167.48 3288.92,171.63 3300.73,171.27 3312.53,170.9 3333.95,169.34 3348.76,165.28 3367.74,160.49 3382.89,155.57 3401.96,146.3 3391.87,155.57 3402.06,165.04 3429.61,175.13 3443.44,181.77 3464.57,185.16 3479.29,184.09 3494.01,183.02 3527.95,174.3 3548.13,165.08 3570.51,154 3581.97,145.85 3595.82,159.9 3613.36,170.51 3635.82,178.11 3655.53,183.07 3685.69,185.21 3704.51,184.5 3723.32,183.79 3756.86,183.32 3777.35,177.11 3796.21,164.92 3812.47,152.7 3826.29,138.69 3842.43,120.86 3853.01,135.52 3865.43,145.72 3887.69,158.7 3910.77,170.14 3932.26,173.28 3947.16,173.3 3962.05,173.32 3987.07,169.36 4000.5,166.63 4000.5,166.53 4012.92,179.42 4025.54,186.47 4042.97,192.65 4063.14,198.33 4083.06,200.07 4102.17,200.07 4121.74,196.46 4142.85,186.47 4161.39,179.42 4187.1,161.86 4205.65,150.24 4214.19,144.35 4228.87,161.86 4237.56,174.68 4256.98,190.7 4278.37,196.46 4305.94,202.13 4344.68,202.13 4368.5,194.7 4387.67,186.47 4408.28,174.68 4428.02,158.49 4444.21,174.68 4461.38,186.47 4483.23,194.7 4529.81,194.7 4555.6,186.47 4572.27,174.68 4587.79,161.86 4597.72,169.39 4609.71,174.68 4624.25,174.68 4642.29,172.62 4658.21,168.87 4669.98,161.57 4677.98,155.57 4664.68,146 4656.65,139.82 4681.07,152.95 4694.06,159.85 4725.67,170.97 4757.84,177.67 4791.28,176.49 4823.23,170.44 4851.85,160.54 4872.34,150.97 4888.37,143.82 4896.28,140.84 4889.03,128.97 4904.27,151.68 4922.35,164.12 4938.7,170.63 4962.5,172.56 4985.6,171.54 5003.31,168.79 5026.89,159.65 5044.63,151.73 5058.02,143.85 5068.69,155.57 5081.56,164.72 5094.57,170.85 5110,175.69 5132.92,179.62 5152.15,179.62 5170.71,175.82 5187.25,171.37 5203.88,163.47 5222.42,153.53 5234.29,144.39 5249.57,161.73 5267.31,167.48 5288.92,171.63 5312.53,170.9 5333.95,169.34 5348.76,165.28 5367.74,160.49 5382.9,155.57 5401.96,146.3 5391.87,155.57 5402.06,165.04 5429.61,175.13 5443.45,181.77 5464.57,185.16 5494.01,183.02 5527.95,174.3 5548.13,165.08 5570.51,154 5581.97,145.85 5595.82,159.9 5613.36,170.51 5635.82,178.11 5655.53,183.07 5685.69,185.21 5723.32,183.79 5756.86,183.32 5777.35,177.11 5796.21,164.92 5812.47,152.7 5826.29,138.69 5842.43,120.86 5853.01,135.52 5865.43,145.72 5887.69,158.7 5910.77,170.14 5932.27,173.28 5962.05,173.32 5987.07,169.36 6000.5,166.63 6000.5,0 6000.5,0" fill="#6a5b46" stroke="#000" stroke-width="3px" vector-effect="non-scaling-stroke" id="Cloud2.Duration:7000ms.Effect:Loop"><animate id="Cloud2-1" begin="Cloud2-2.begin + 0s" fill="freeze" attributeName="points" dur="7000ms" to="6000.5,0 0.5,0 0.5,166.53 12.92,179.42 25.54,186.47 42.97,192.65 63.14,198.33 83.06,200.07 102.17,200.07 121.74,196.46 142.85,186.47 161.39,179.42 187.1,161.86 205.65,150.24 214.19,144.35 228.87,161.86 237.56,174.68 256.98,190.7 278.37,196.46 305.94,202.13 344.68,202.13 368.5,194.7 387.67,186.47 408.28,174.68 428.02,158.49 444.21,174.68 461.38,186.47 483.23,194.7 529.81,194.7 555.6,186.47 572.27,174.68 587.79,161.86 597.72,169.39 609.71,174.68 624.25,174.68 642.29,172.62 658.21,168.87 669.98,161.57 677.98,155.57 664.68,146 656.65,139.82 681.07,152.95 694.06,159.85 725.67,170.97 757.84,177.67 791.28,176.49 823.23,170.44 851.85,160.54 872.34,150.97 888.36,143.82 896.28,140.84 889.03,128.97 904.27,151.68 922.35,164.12 938.7,170.63 962.5,172.56 985.6,171.54 1003.31,168.79 1026.89,159.65 1044.63,151.73 1058.02,143.85 1068.69,155.57 1081.56,164.72 1094.57,170.85 1110,175.69 1132.92,179.62 1152.15,179.62 1170.71,175.82 1187.25,171.37 1203.88,163.47 1222.42,153.53 1234.29,144.39 1249.57,161.73 1267.31,167.48 1288.92,171.63 1312.53,170.9 1333.95,169.34 1348.76,165.28 1367.74,160.49 1382.89,155.57 1401.96,146.3 1391.87,155.57 1402.06,165.04 1429.61,175.13 1443.44,181.77 1464.57,185.16 1494.01,183.02 1527.95,174.3 1548.13,165.08 1570.51,154 1581.97,145.85 1595.82,159.9 1613.36,170.51 1635.82,178.11 1655.53,183.07 1685.69,185.21 1723.32,183.79 1756.86,183.32 1777.35,177.11 1796.21,164.92 1812.47,152.71 1826.29,138.69 1842.43,120.86 1853.01,135.52 1865.43,145.72 1887.69,158.7 1910.77,170.14 1932.26,173.28 1962.05,173.32 1987.07,169.36 2000.5,166.63 2000.5,166.53 2012.92,179.42 2025.54,186.47 2042.97,192.65 2063.14,198.33 2083.06,200.07 2102.17,200.07 2121.74,196.46 2142.85,186.47 2161.39,179.42 2187.1,161.86 2205.65,150.24 2214.19,144.35 2228.87,161.86 2237.56,174.68 2256.98,190.7 2278.37,196.46 2305.94,202.13 2344.68,202.13 2368.5,194.7 2387.67,186.47 2408.28,174.68 2428.02,158.49 2444.21,174.68 2461.38,186.47 2483.23,194.7 2529.81,194.7 2555.6,186.47 2572.27,174.68 2587.79,161.86 2597.72,169.39 2609.71,174.68 2624.25,174.68 2642.29,172.62 2658.21,168.87 2669.98,161.57 2677.98,155.57 2664.68,146 2656.65,139.82 2681.07,152.95 2694.06,159.85 2725.67,170.97 2757.84,177.67 2774.56,177.08 2791.28,176.49 2823.23,170.44 2851.85,160.54 2872.34,150.97 2888.36,143.82 2896.28,140.84 2889.03,128.97 2904.27,151.68 2922.35,164.12 2938.7,170.63 2962.5,172.56 2974.05,172.05 2985.6,171.54 3003.31,168.79 3026.89,159.65 3044.63,151.73 3058.02,143.85 3068.69,155.57 3081.56,164.72 3094.57,170.85 3109.99,175.69 3132.92,179.62 3152.15,179.62 3170.71,175.82 3187.25,171.37 3203.88,163.47 3222.42,153.53 3234.29,144.39 3249.57,161.73 3267.31,167.48 3288.92,171.63 3300.73,171.27 3312.53,170.9 3333.95,169.34 3348.76,165.28 3367.74,160.49 3382.89,155.57 3401.96,146.3 3391.87,155.57 3402.06,165.04 3429.61,175.13 3443.44,181.77 3464.57,185.16 3479.29,184.09 3494.01,183.02 3527.95,174.3 3548.13,165.08 3570.51,154 3581.97,145.85 3595.82,159.9 3613.36,170.51 3635.82,178.11 3655.53,183.07 3685.69,185.21 3704.51,184.5 3723.32,183.79 3756.86,183.32 3777.35,177.11 3796.21,164.92 3812.47,152.7 3826.29,138.69 3842.43,120.86 3853.01,135.52 3865.43,145.72 3887.69,158.7 3910.77,170.14 3932.26,173.28 3947.16,173.3 3962.05,173.32 3987.07,169.36 4000.5,166.63 4000.5,166.53 4012.92,179.42 4025.54,186.47 4042.97,192.65 4063.14,198.33 4083.06,200.07 4102.17,200.07 4121.74,196.46 4142.85,186.47 4161.39,179.42 4187.1,161.86 4205.65,150.24 4214.19,144.35 4228.87,161.86 4237.56,174.68 4256.98,190.7 4278.37,196.46 4305.94,202.13 4344.68,202.13 4368.5,194.7 4387.67,186.47 4408.28,174.68 4428.02,158.49 4444.21,174.68 4461.38,186.47 4483.23,194.7 4529.81,194.7 4555.6,186.47 4572.27,174.68 4587.79,161.86 4597.72,169.39 4609.71,174.68 4624.25,174.68 4642.29,172.62 4658.21,168.87 4669.98,161.57 4677.98,155.57 4664.68,146 4656.65,139.82 4681.07,152.95 4694.06,159.85 4725.67,170.97 4757.84,177.67 4791.28,176.49 4823.23,170.44 4851.85,160.54 4872.34,150.97 4888.37,143.82 4896.28,140.84 4889.03,128.97 4904.27,151.68 4922.35,164.12 4938.7,170.63 4962.5,172.56 4985.6,171.54 5003.31,168.79 5026.89,159.65 5044.63,151.73 5058.02,143.85 5068.69,155.57 5081.56,164.72 5094.57,170.85 5110,175.69 5132.92,179.62 5152.15,179.62 5170.71,175.82 5187.25,171.37 5203.88,163.47 5222.42,153.53 5234.29,144.39 5249.57,161.73 5267.31,167.48 5288.92,171.63 5312.53,170.9 5333.95,169.34 5348.76,165.28 5367.74,160.49 5382.9,155.57 5401.96,146.3 5391.87,155.57 5402.06,165.04 5429.61,175.13 5443.45,181.77 5464.57,185.16 5494.01,183.02 5527.95,174.3 5548.13,165.08 5570.51,154 5581.97,145.85 5595.82,159.9 5613.36,170.51 5635.82,178.11 5655.53,183.07 5685.69,185.21 5723.32,183.79 5756.86,183.32 5777.35,177.11 5796.21,164.92 5812.47,152.7 5826.29,138.69 5842.43,120.86 5853.01,135.52 5865.43,145.72 5887.69,158.7 5910.77,170.14 5932.27,173.28 5962.05,173.32 5987.07,169.36 6000.5,166.63 6000.5,0 6000.5,0"/><animate id="Cloud2-2" begin="0; Cloud2-1.begin + 7000ms" fill="freeze" attributeName="points" dur="7000ms" to="2000,0 -4000,0 -4000,166.53 -3987.58,179.42 -3974.96,186.47 -3957.52,192.65 -3937.36,198.33 -3917.44,200.07 -3898.33,200.07 -3878.76,196.46 -3857.65,186.47 -3839.1,179.42 -3813.4,161.86 -3794.85,150.24 -3786.31,144.35 -3771.63,161.86 -3762.94,174.68 -3743.52,190.7 -3722.13,196.46 -3694.56,202.13 -3655.82,202.13 -3632,194.7 -3612.83,186.47 -3592.22,174.68 -3572.48,158.49 -3556.29,174.68 -3539.12,186.47 -3517.27,194.7 -3470.69,194.7 -3444.9,186.47 -3428.23,174.68 -3412.71,161.86 -3402.78,169.39 -3390.79,174.68 -3376.25,174.68 -3358.21,172.62 -3342.29,168.87 -3330.52,161.57 -3322.52,155.57 -3335.82,146 -3343.85,139.82 -3319.43,152.95 -3306.44,159.85 -3274.83,170.97 -3242.66,177.67 -3209.22,176.49 -3177.27,170.44 -3148.65,160.54 -3128.16,150.97 -3112.14,143.82 -3104.22,140.84 -3111.47,128.97 -3096.23,151.68 -3078.15,164.12 -3061.8,170.63 -3038,172.56 -3014.9,171.54 -2997.19,168.79 -2973.61,159.65 -2955.87,151.73 -2942.48,143.85 -2931.81,155.57 -2918.94,164.72 -2905.93,170.85 -2890.51,175.69 -2867.58,179.62 -2848.35,179.62 -2829.79,175.82 -2813.25,171.37 -2796.62,163.47 -2778.08,153.53 -2766.21,144.39 -2750.93,161.73 -2733.19,167.48 -2711.58,171.63 -2687.97,170.9 -2666.55,169.34 -2651.74,165.28 -2632.76,160.49 -2617.61,155.57 -2598.54,146.3 -2608.63,155.57 -2598.44,165.04 -2570.89,175.13 -2557.05,181.77 -2535.93,185.16 -2506.49,183.02 -2472.55,174.3 -2452.37,165.08 -2429.99,154 -2418.53,145.85 -2404.68,159.9 -2387.14,170.51 -2364.68,178.11 -2344.97,183.07 -2314.81,185.21 -2277.18,183.79 -2243.64,183.32 -2223.15,177.11 -2204.29,164.92 -2188.03,152.71 -2174.21,138.69 -2158.07,120.86 -2147.49,135.52 -2135.07,145.72 -2112.81,158.7 -2089.73,170.14 -2068.24,173.28 -2038.45,173.32 -2013.43,169.36 -2000,166.63 -2000,166.53 -1987.58,179.42 -1974.96,186.47 -1957.53,192.65 -1937.36,198.33 -1917.44,200.07 -1898.33,200.07 -1878.76,196.46 -1857.65,186.47 -1839.11,179.42 -1813.4,161.86 -1794.85,150.24 -1786.31,144.35 -1771.63,161.86 -1762.94,174.68 -1743.52,190.7 -1722.13,196.46 -1694.56,202.13 -1655.82,202.13 -1632,194.7 -1612.83,186.47 -1592.22,174.68 -1572.48,158.49 -1556.29,174.68 -1539.12,186.47 -1517.27,194.7 -1470.69,194.7 -1444.9,186.47 -1428.23,174.68 -1412.71,161.86 -1402.78,169.39 -1390.79,174.68 -1376.25,174.68 -1358.21,172.62 -1342.29,168.87 -1330.52,161.57 -1322.52,155.57 -1335.82,146 -1343.85,139.82 -1319.43,152.95 -1306.44,159.85 -1274.83,170.97 -1242.66,177.67 -1225.94,177.08 -1209.22,176.49 -1177.27,170.44 -1148.65,160.54 -1128.16,150.97 -1112.13,143.82 -1104.22,140.84 -1111.47,128.97 -1096.23,151.68 -1078.15,164.12 -1061.8,170.63 -1038,172.56 -1026.45,172.05 -1014.9,171.54 -997.19,168.79 -973.61,159.65 -955.87,151.73 -942.48,143.85 -931.81,155.57 -918.94,164.72 -905.93,170.85 -890.51,175.69 -867.58,179.62 -848.35,179.62 -829.79,175.82 -813.25,171.37 -796.62,163.47 -778.08,153.53 -766.21,144.39 -750.93,161.73 -733.19,167.48 -711.58,171.63 -699.77,171.27 -687.97,170.9 -666.55,169.34 -651.74,165.28 -632.76,160.49 -617.61,155.57 -598.54,146.3 -608.63,155.57 -598.44,165.04 -570.89,175.13 -557.06,181.77 -535.93,185.16 -521.21,184.09 -506.49,183.02 -472.55,174.3 -452.37,165.08 -429.99,154 -418.53,145.85 -404.68,159.9 -387.14,170.51 -364.68,178.11 -344.97,183.07 -314.81,185.21 -295.99,184.5 -277.18,183.79 -243.64,183.32 -223.15,177.11 -204.29,164.92 -188.03,152.7 -174.21,138.69 -158.07,120.86 -147.49,135.52 -135.07,145.72 -112.81,158.7 -89.73,170.14 -68.24,173.28 -53.34,173.3 -38.45,173.32 -13.43,169.36 0,166.63 0,166.53 12.42,179.42 25.04,186.47 42.47,192.65 62.64,198.33 82.56,200.07 101.67,200.07 121.24,196.46 142.35,186.47 160.89,179.42 186.6,161.86 205.15,150.24 213.69,144.35 228.37,161.86 237.06,174.68 256.48,190.7 277.87,196.46 305.44,202.13 344.18,202.13 368,194.7 387.17,186.47 407.78,174.68 427.52,158.49 443.71,174.68 460.88,186.47 482.73,194.7 529.31,194.7 555.1,186.47 571.77,174.68 587.29,161.86 597.22,169.39 609.21,174.68 623.75,174.68 641.79,172.62 657.71,168.87 669.48,161.57 677.48,155.57 664.18,146 656.15,139.82 680.57,152.95 693.56,159.85 725.17,170.97 757.34,177.67 790.78,176.49 822.73,170.44 851.35,160.54 871.84,150.97 887.86,143.82 895.78,140.84 888.53,128.97 903.77,151.68 921.85,164.12 938.2,170.63 962,172.56 985.1,171.54 1002.81,168.79 1026.39,159.65 1044.13,151.73 1057.52,143.85 1068.19,155.57 1081.06,164.72 1094.07,170.85 1109.49,175.69 1132.42,179.62 1151.65,179.62 1170.21,175.82 1186.75,171.37 1203.38,163.47 1221.92,153.53 1233.79,144.39 1249.07,161.73 1266.81,167.48 1288.42,171.63 1312.03,170.9 1333.45,169.34 1348.26,165.28 1367.24,160.49 1382.39,155.57 1401.46,146.3 1391.37,155.57 1401.56,165.04 1429.11,175.13 1442.94,181.77 1464.07,185.16 1493.51,183.02 1527.45,174.3 1547.63,165.08 1570.01,154 1581.47,145.85 1595.32,159.9 1612.86,170.51 1635.32,178.11 1655.03,183.07 1685.19,185.21 1722.82,183.79 1754.87,186.14 1776.85,177.11 1795.71,164.92 1811.97,152.7 1825.79,138.69 1841.93,120.86 1852.51,135.52 1864.93,145.72 1887.19,158.7 1910.27,170.14 1931.76,173.28 1961.55,173.32 1986.57,169.36 2000,166.63 2000,0 2000,0"/></polygon><text x="657.275px" y="175.219px" style="font-family:'Arial-Black', 'Arial Black', sans-serif;font-weight:900;font-size:132.709px">Er<tspan x="817.589px 878.631px 967.147px " y="175.219px 175.219px 175.219px ">ror</tspan> 404</text><polygon points="0,58.66 20.86,59.14 84.19,40.22 94.44,43.93 129.94,48.51 178.67,52.33 241.52,44.13 272.06,36.39 280.02,30.19 298.46,13.86 289.55,22.79 280.02,30.19 276.04,45.41 295.44,67.05 328.54,91.15 375.93,104.87 433.11,116.23 508.74,118.2 555.75,116.92 625.51,94.63 667.89,74.02 695.82,51.21 707.54,45.25 686.79,58.58 679.64,80.33 696.43,87.02 727.28,100.47 803.46,102.73 869.77,97.16 920.44,84.46 964.11,66.64 979.33,58.5 953.16,75.53 943.24,79.42 935.92,83.75 936.02,89.32 950.59,100.36 986.69,109.41 1018.06,114.34 1059.86,114.41 1088.32,112.41 1118.65,100.54 1146.88,85.16 1163.17,74.42 1181.23,96.5 1203.84,112.08 1237.01,126.07 1287.17,121.71 1326.62,118.88 1359.13,113.73 1396.31,97.63 1423.23,81.97 1439.13,69.41 1435.45,60.74 1445.79,70.13 1472.95,81.86 1501.65,95.24 1537.57,108.1 1576.43,110.95 1612.04,111.79 1645.24,110.22 1675.72,98.39 1705.04,88.78 1739.86,61.05 1768.16,33.28 1781.84,32.57 1804.45,46.12 1831.64,55.43 1887.37,58.02 1935.98,59.14 1970.77,53.26 1984.61,47.04 2009.95,31.02 2021.62,21.46 2034.94,31.46 2069.43,43.93 2104.93,48.51 2153.66,52.33 2216.52,44.13 2247.05,36.39 2255.01,30.19 2273.45,13.86 2264.54,22.79 2255.01,30.19 2253.02,37.8 2251.03,45.41 2270.43,67.05 2303.53,91.15 2350.93,104.87 2408.1,116.23 2483.73,118.2 2530.74,116.92 2600.5,94.63 2642.88,74.02 2670.81,51.21 2682.53,45.25 2661.78,58.58 2654.64,80.33 2671.42,87.02 2702.28,100.47 2778.45,102.73 2844.76,97.16 2895.44,84.46 2939.11,66.64 2954.32,58.5 2928.16,75.53 2918.23,79.42 2910.91,83.75 2911.01,89.32 2925.58,100.36 2961.68,109.41 2993.06,114.34 3034.85,114.41 3063.32,112.41 3093.64,100.54 3121.87,85.16 3138.16,74.42 3156.23,96.5 3178.83,112.08 3212,126.07 3262.17,121.71 3301.61,118.88 3334.12,113.73 3371.3,97.63 3398.23,81.97 3414.12,69.41 3410.44,60.74 3420.78,70.13 3447.95,81.86 3476.64,95.24 3512.56,108.1 3551.43,110.95 3587.03,111.79 3620.23,110.22 3650.71,98.39 3680.03,88.78 3714.85,61.05 3743.15,33.28 3756.83,32.57 3779.44,46.12 3806.64,55.43 3862.36,58.02 3910.98,59.14 3974.99,40.02 3974.99,0 0,0" fill="#6a5b46" stroke="#000" stroke-width="3px" vector-effect="non-scaling-stroke" id="Cloud.Duration:7000ms.Effect:Loop"><animate id="Cloud-1" begin="Cloud-2.begin + 0s" fill="freeze" attributeName="points" dur="7000ms" to="0,58.66 20.86,59.14 84.19,40.22 94.44,43.93 129.94,48.51 178.67,52.33 241.52,44.13 272.06,36.39 280.02,30.19 298.46,13.86 289.55,22.79 280.02,30.19 276.04,45.41 295.44,67.05 328.54,91.15 375.93,104.87 433.11,116.23 508.74,118.2 555.75,116.92 625.51,94.63 667.89,74.02 695.82,51.21 707.54,45.25 686.79,58.58 679.64,80.33 696.43,87.02 727.28,100.47 803.46,102.73 869.77,97.16 920.44,84.46 964.11,66.64 979.33,58.5 953.16,75.53 943.24,79.42 935.92,83.75 936.02,89.32 950.59,100.36 986.69,109.41 1018.06,114.34 1059.86,114.41 1088.32,112.41 1118.65,100.54 1146.88,85.16 1163.17,74.42 1181.23,96.5 1203.84,112.08 1237.01,126.07 1287.17,121.71 1326.62,118.88 1359.13,113.73 1396.31,97.63 1423.23,81.97 1439.13,69.41 1435.45,60.74 1445.79,70.13 1472.95,81.86 1501.65,95.24 1537.57,108.1 1576.43,110.95 1612.04,111.79 1645.24,110.22 1675.72,98.39 1705.04,88.78 1739.86,61.05 1768.16,33.28 1781.84,32.57 1804.45,46.12 1831.64,55.43 1887.37,58.02 1935.98,59.14 1970.77,53.26 1984.61,47.04 2009.95,31.02 2021.62,21.46 2034.94,31.46 2069.43,43.93 2104.93,48.51 2153.66,52.33 2216.52,44.13 2247.05,36.39 2255.01,30.19 2273.45,13.86 2264.54,22.79 2255.01,30.19 2253.02,37.8 2251.03,45.41 2270.43,67.05 2303.53,91.15 2350.93,104.87 2408.1,116.23 2483.73,118.2 2530.74,116.92 2600.5,94.63 2642.88,74.02 2670.81,51.21 2682.53,45.25 2661.78,58.58 2654.64,80.33 2671.42,87.02 2702.28,100.47 2778.45,102.73 2844.76,97.16 2895.44,84.46 2939.11,66.64 2954.32,58.5 2928.16,75.53 2918.23,79.42 2910.91,83.75 2911.01,89.32 2925.58,100.36 2961.68,109.41 2993.06,114.34 3034.85,114.41 3063.32,112.41 3093.64,100.54 3121.87,85.16 3138.16,74.42 3156.23,96.5 3178.83,112.08 3212,126.07 3262.17,121.71 3301.61,118.88 3334.12,113.73 3371.3,97.63 3398.23,81.97 3414.12,69.41 3410.44,60.74 3420.78,70.13 3447.95,81.86 3476.64,95.24 3512.56,108.1 3551.43,110.95 3587.03,111.79 3620.23,110.22 3650.71,98.39 3680.03,88.78 3714.85,61.05 3743.15,33.28 3756.83,32.57 3779.44,46.12 3806.64,55.43 3862.36,58.02 3910.98,59.14 3974.99,40.02 3974.99,0 0,0"/><animate id="Cloud-2" begin="0; Cloud-1.begin + 7000ms" fill="freeze" attributeName="points" dur="7000ms" to="-1974.99,58.66 -1954.13,59.14 -1890.8,40.22 -1880.55,43.93 -1845.05,48.51 -1796.32,52.33 -1733.47,44.13 -1702.93,36.39 -1694.97,30.19 -1676.53,13.86 -1685.44,22.79 -1694.97,30.19 -1698.95,45.41 -1679.55,67.05 -1646.45,91.15 -1599.06,104.87 -1541.88,116.23 -1466.25,118.2 -1419.24,116.92 -1349.48,94.63 -1307.1,74.02 -1279.17,51.21 -1267.45,45.25 -1288.2,58.58 -1295.35,80.33 -1278.56,87.02 -1247.71,100.47 -1171.53,102.73 -1105.22,97.16 -1054.55,84.46 -1010.88,66.64 -995.66,58.5 -1021.83,75.53 -1031.75,79.42 -1039.07,83.75 -1038.97,89.32 -1024.4,100.36 -988.3,109.41 -956.93,114.34 -915.13,114.41 -886.66,112.41 -856.34,100.54 -828.11,85.16 -811.82,74.42 -793.75,96.5 -771.15,112.08 -737.98,126.07 -687.81,121.71 -648.37,118.88 -615.86,113.73 -578.68,97.63 -551.76,81.97 -535.86,69.41 -539.54,60.74 -529.2,70.13 -502.04,81.86 -473.34,95.24 -437.42,108.1 -398.55,110.95 -362.95,111.79 -329.75,110.22 -299.27,98.39 -269.95,88.78 -235.13,61.05 -206.83,33.28 -193.15,32.57 -170.54,46.12 -143.35,55.43 -87.62,58.02 -39.01,59.14 -4.22,53.26 9.62,47.04 34.96,31.02 46.63,21.46 59.96,31.46 94.44,43.93 129.94,48.51 178.67,52.33 241.53,44.13 272.07,36.39 280.03,30.19 298.47,13.86 289.55,22.79 280.03,30.19 278.04,37.8 276.05,45.41 295.45,67.05 328.54,91.15 375.94,104.87 433.11,116.23 508.74,118.2 555.76,116.92 625.51,94.63 667.89,74.02 695.82,51.21 707.54,45.25 686.79,58.58 679.65,80.33 696.43,87.02 727.29,100.47 803.46,102.73 869.77,97.16 920.45,84.46 964.12,66.64 979.33,58.5 953.17,75.53 943.24,79.42 935.92,83.75 936.03,89.32 950.59,100.36 986.69,109.41 1018.07,114.34 1059.86,114.41 1088.33,112.41 1118.66,100.54 1146.88,85.16 1163.17,74.42 1181.24,96.5 1203.84,112.08 1237.02,126.07 1287.18,121.71 1326.62,118.88 1359.13,113.73 1396.31,97.63 1423.24,81.97 1439.13,69.41 1435.45,60.74 1445.79,70.13 1472.96,81.86 1501.65,95.24 1537.57,108.1 1576.44,110.95 1612.04,111.79 1645.24,110.22 1675.72,98.39 1705.04,88.78 1739.86,61.05 1768.16,33.28 1781.84,32.57 1804.45,46.12 1831.65,55.43 1887.38,58.02 1935.99,59.14 2000,40.02 2000,0 -1974.99,0"/></polygon></svg>