<?xml version="1.0" encoding="UTF-8" standalone="no"?><!DOCTYPE svg PUBLIC "-//W3C//DTD SVG 1.1//EN" "http://www.w3.org/Graphics/SVG/1.1/DTD/svg11.dtd"><svg width="100%" height="100%" viewBox="0 0 2000 127" version="1.1" xmlns="http://www.w3.org/2000/svg" xmlns:xlink="http://www.w3.org/1999/xlink" xml:space="preserve" xmlns:serif="http://www.serif.com/" style="fill-rule:evenodd;clip-rule:evenodd;stroke-linecap:round;stroke-linejoin:round;stroke-miterlimit:1.5"><polygon points="0,58.66 20.86,59.14 84.19,40.22 94.44,43.93 129.94,48.51 178.67,52.33 241.52,44.13 272.06,36.39 280.02,30.19 298.46,13.86 289.55,22.79 280.02,30.19 276.04,45.41 295.44,67.05 328.54,91.15 375.93,104.87 433.11,116.23 508.74,118.2 555.75,116.92 625.51,94.63 667.89,74.02 695.82,51.21 707.54,45.25 686.79,58.58 679.64,80.33 696.43,87.02 727.28,100.47 803.46,102.73 869.77,97.16 920.44,84.46 964.11,66.64 979.33,58.5 953.16,75.53 943.24,79.42 935.92,83.75 936.02,89.32 950.59,100.36 986.69,109.41 1018.06,114.34 1059.86,114.41 1088.32,112.41 1118.65,100.54 1146.88,85.16 1163.17,74.42 1181.23,96.5 1203.84,112.08 1237.01,126.07 1287.17,121.71 1326.62,118.88 1359.13,113.73 1396.31,97.63 1423.23,81.97 1439.13,69.41 1435.45,60.74 1445.79,70.13 1472.95,81.86 1501.65,95.24 1537.57,108.1 1576.43,110.95 1612.04,111.79 1645.24,110.22 1675.72,98.39 1705.04,88.78 1739.86,61.05 1768.16,33.28 1781.84,32.57 1804.45,46.12 1831.64,55.43 1887.37,58.02 1935.98,59.14 1970.77,53.26 1984.61,47.04 2009.95,31.02 2021.62,21.46 2034.94,31.46 2069.43,43.93 2104.93,48.51 2153.66,52.33 2216.52,44.13 2247.05,36.39 2255.01,30.19 2273.45,13.86 2264.54,22.79 2255.01,30.19 2253.02,37.8 2251.03,45.41 2270.43,67.05 2303.53,91.15 2350.93,104.87 2408.1,116.23 2483.73,118.2 2530.74,116.92 2600.5,94.63 2642.88,74.02 2670.81,51.21 2682.53,45.25 2661.78,58.58 2654.64,80.33 2671.42,87.02 2702.28,100.47 2778.45,102.73 2844.76,97.16 2895.44,84.46 2939.11,66.64 2954.32,58.5 2928.16,75.53 2918.23,79.42 2910.91,83.75 2911.01,89.32 2925.58,100.36 2961.68,109.41 2993.06,114.34 3034.85,114.41 3063.32,112.41 3093.64,100.54 3121.87,85.16 3138.16,74.42 3156.23,96.5 3178.83,112.08 3212,126.07 3262.17,121.71 3301.61,118.88 3334.12,113.73 3371.3,97.63 3398.23,81.97 3414.12,69.41 3410.44,60.74 3420.78,70.13 3447.95,81.86 3476.64,95.24 3512.56,108.1 3551.43,110.95 3587.03,111.79 3620.23,110.22 3650.71,98.39 3680.03,88.78 3714.85,61.05 3743.15,33.28 3756.83,32.57 3779.44,46.12 3806.64,55.43 3862.36,58.02 3910.98,59.14 3974.99,40.02 3974.99,0 0,0" fill="#6a5b46" stroke="#000" stroke-width="3px" vector-effect="non-scaling-stroke" id="Cloud.Duration:7000ms.Effect:Loop"><animate id="Cloud-1" begin="Cloud-2.begin + 0s" fill="freeze" attributeName="points" dur="7000ms" to="0,58.66 20.86,59.14 84.19,40.22 94.44,43.93 129.94,48.51 178.67,52.33 241.52,44.13 272.06,36.39 280.02,30.19 298.46,13.86 289.55,22.79 280.02,30.19 276.04,45.41 295.44,67.05 328.54,91.15 375.93,104.87 433.11,116.23 508.74,118.2 555.75,116.92 625.51,94.63 667.89,74.02 695.82,51.21 707.54,45.25 686.79,58.58 679.64,80.33 696.43,87.02 727.28,100.47 803.46,102.73 869.77,97.16 920.44,84.46 964.11,66.64 979.33,58.5 953.16,75.53 943.24,79.42 935.92,83.75 936.02,89.32 950.59,100.36 986.69,109.41 1018.06,114.34 1059.86,114.41 1088.32,112.41 1118.65,100.54 1146.88,85.16 1163.17,74.42 1181.23,96.5 1203.84,112.08 1237.01,126.07 1287.17,121.71 1326.62,118.88 1359.13,113.73 1396.31,97.63 1423.23,81.97 1439.13,69.41 1435.45,60.74 1445.79,70.13 1472.95,81.86 1501.65,95.24 1537.57,108.1 1576.43,110.95 1612.04,111.79 1645.24,110.22 1675.72,98.39 1705.04,88.78 1739.86,61.05 1768.16,33.28 1781.84,32.57 1804.45,46.12 1831.64,55.43 1887.37,58.02 1935.98,59.14 1970.77,53.26 1984.61,47.04 2009.95,31.02 2021.62,21.46 2034.94,31.46 2069.43,43.93 2104.93,48.51 2153.66,52.33 2216.52,44.13 2247.05,36.39 2255.01,30.19 2273.45,13.86 2264.54,22.79 2255.01,30.19 2253.02,37.8 2251.03,45.41 2270.43,67.05 2303.53,91.15 2350.93,104.87 2408.1,116.23 2483.73,118.2 2530.74,116.92 2600.5,94.63 2642.88,74.02 2670.81,51.21 2682.53,45.25 2661.78,58.58 2654.64,80.33 2671.42,87.02 2702.28,100.47 2778.45,102.73 2844.76,97.16 2895.44,84.46 2939.11,66.64 2954.32,58.5 2928.16,75.53 2918.23,79.42 2910.91,83.75 2911.01,89.32 2925.58,100.36 2961.68,109.41 2993.06,114.34 3034.85,114.41 3063.32,112.41 3093.64,100.54 3121.87,85.16 3138.16,74.42 3156.23,96.5 3178.83,112.08 3212,126.07 3262.17,121.71 3301.61,118.88 3334.12,113.73 3371.3,97.63 3398.23,81.97 3414.12,69.41 3410.44,60.74 3420.78,70.13 3447.95,81.86 3476.64,95.24 3512.56,108.1 3551.43,110.95 3587.03,111.79 3620.23,110.22 3650.71,98.39 3680.03,88.78 3714.85,61.05 3743.15,33.28 3756.83,32.57 3779.44,46.12 3806.64,55.43 3862.36,58.02 3910.98,59.14 3974.99,40.02 3974.99,0 0,0"/><animate id="Cloud-2" begin="0; Cloud-1.begin + 7000ms" fill="freeze" attributeName="points" dur="7000ms" to="-1974.99,58.66 -1954.13,59.14 -1890.8,40.22 -1880.55,43.93 -1845.05,48.51 -1796.32,52.33 -1733.47,44.13 -1702.93,36.39 -1694.97,30.19 -1676.53,13.86 -1685.44,22.79 -1694.97,30.19 -1698.95,45.41 -1679.55,67.05 -1646.45,91.15 -1599.06,104.87 -1541.88,116.23 -1466.25,118.2 -1419.24,116.92 -1349.48,94.63 -1307.1,74.02 -1279.17,51.21 -1267.45,45.25 -1288.2,58.58 -1295.35,80.33 -1278.56,87.02 -1247.71,100.47 -1171.53,102.73 -1105.22,97.16 -1054.55,84.46 -1010.88,66.64 -995.66,58.5 -1021.83,75.53 -1031.75,79.42 -1039.07,83.75 -1038.97,89.32 -1024.4,100.36 -988.3,109.41 -956.93,114.34 -915.13,114.41 -886.66,112.41 -856.34,100.54 -828.11,85.16 -811.82,74.42 -793.75,96.5 -771.15,112.08 -737.98,126.07 -687.81,121.71 -648.37,118.88 -615.86,113.73 -578.68,97.63 -551.76,81.97 -535.86,69.41 -539.54,60.74 -529.2,70.13 -502.04,81.86 -473.34,95.24 -437.42,108.1 -398.55,110.95 -362.95,111.79 -329.75,110.22 -299.27,98.39 -269.95,88.78 -235.13,61.05 -206.83,33.28 -193.15,32.57 -170.54,46.12 -143.35,55.43 -87.62,58.02 -39.01,59.14 -4.22,53.26 9.62,47.04 34.96,31.02 46.63,21.46 59.96,31.46 94.44,43.93 129.94,48.51 178.67,52.33 241.53,44.13 272.07,36.39 280.03,30.19 298.47,13.86 289.55,22.79 280.03,30.19 278.04,37.8 276.05,45.41 295.45,67.05 328.54,91.15 375.94,104.87 433.11,116.23 508.74,118.2 555.76,116.92 625.51,94.63 667.89,74.02 695.82,51.21 707.54,45.25 686.79,58.58 679.65,80.33 696.43,87.02 727.29,100.47 803.46,102.73 869.77,97.16 920.45,84.46 964.12,66.64 979.33,58.5 953.17,75.53 943.24,79.42 935.92,83.75 936.03,89.32 950.59,100.36 986.69,109.41 1018.07,114.34 1059.86,114.41 1088.33,112.41 1118.66,100.54 1146.88,85.16 1163.17,74.42 1181.24,96.5 1203.84,112.08 1237.02,126.07 1287.18,121.71 1326.62,118.88 1359.13,113.73 1396.31,97.63 1423.24,81.97 1439.13,69.41 1435.45,60.74 1445.79,70.13 1472.96,81.86 1501.65,95.24 1537.57,108.1 1576.44,110.95 1612.04,111.79 1645.24,110.22 1675.72,98.39 1705.04,88.78 1739.86,61.05 1768.16,33.28 1781.84,32.57 1804.45,46.12 1831.65,55.43 1887.38,58.02 1935.99,59.14 2000,40.02 2000,0 -1974.99,0"/></polygon></svg>