<?xml version="1.0" encoding="UTF-8" standalone="no"?><!DOCTYPE svg PUBLIC "-//W3C//DTD SVG 1.1//EN" "http://www.w3.org/Graphics/SVG/1.1/DTD/svg11.dtd"><svg width="100%" height="100%" viewBox="0 0 346 454" version="1.1" xmlns="http://www.w3.org/2000/svg" xmlns:xlink="http://www.w3.org/1999/xlink" xml:space="preserve" xmlns:serif="http://www.serif.com/" style="fill-rule:evenodd;clip-rule:evenodd;stroke-linejoin:round;stroke-miterlimit:2" fill-rule="evenodd" clip-rule="evenodd" stroke-linejoin="round" stroke-miterlimit="2" stroke-width="5px" vector-effect="non-scaling-stroke"><g id="Cara"><path id="Mechon" d="M98.586,47.144c0,-5.382 -12.071,-7.441 -15.436,-8.238c-4.386,-1.039 -8.769,-1.539 -13.206,-2.295c-10.046,-1.713 -24.84,-5.698 -32.785,3.647c-2.247,2.642 -3.402,11.674 -2.004,14.755c1.497,3.297 4.289,5.456 6.057,8.482c1.532,2.623 -2.698,3.253 -1.503,6.025c2.322,5.383 10.555,5.744 15.3,6.352c1.554,0.199 5.052,1.092 6.648,0.369c3.611,-1.636 7.383,-8.667 10.246,-11.394c6.307,-6.009 14.267,-9.402 20.9,-14.712c1.657,-1.327 2.456,-3.587 3.689,-4.671"/><path d="M97.114,50.319c0.448,0.208 0.947,0.325 1.472,0.325c1.932,-0 3.5,-1.569 3.5,-3.5c-0.07,-2.873 -1.828,-5.404 -4.899,-7.161c-4.179,-2.392 -10.876,-3.526 -13.334,-4.045c-1.374,-0.294 -2.745,-0.542 -4.119,-0.758c-3.097,-0.487 -6.196,-0.827 -9.326,-1.292c-6.209,-0.934 -14.176,-2.619 -21.299,-1.8c-5.241,0.602 -10.056,2.481 -13.599,6.768c-1.283,1.54 -2.354,4.876 -2.786,8.315c-0.431,3.43 -0.246,6.916 0.57,8.686c0.508,1.108 1.141,2.102 1.836,3.043c1.411,1.909 3.118,3.554 4.324,5.622c0.115,0.201 -0.146,0.262 -0.253,0.388c-0.164,0.192 -0.337,0.384 -0.502,0.58c-0.584,0.694 -1.042,1.46 -1.212,2.339c-0.142,0.734 -0.095,1.559 0.309,2.516c1.133,2.722 3.441,4.481 6.226,5.615c3.468,1.412 7.727,1.791 10.692,2.214c1.108,0.162 3.159,0.66 4.886,0.742c1.193,0.057 2.269,-0.112 3.063,-0.455c1.446,-0.623 2.949,-1.908 4.411,-3.513c2.433,-2.669 4.793,-6.353 6.72,-8.115c1.809,-1.646 3.756,-3.058 5.76,-4.373c5.085,-3.34 10.527,-6.045 15.34,-9.714c0.484,-0.368 0.914,-0.795 1.321,-1.244c0.335,-0.369 0.627,-0.775 0.899,-1.183Zm-4.654,-5.282c-0.481,-0.244 -0.989,-0.468 -1.51,-0.677c-3.252,-1.303 -6.907,-2.067 -8.503,-2.486c-1.252,-0.325 -2.504,-0.607 -3.76,-0.861c-3.055,-0.616 -6.118,-1.085 -9.207,-1.68c-5.792,-1.104 -13.2,-3.098 -19.911,-2.553c-4.09,0.333 -7.914,1.623 -10.761,4.88c-0.954,1.099 -1.593,3.572 -1.946,6.064c-0.359,2.534 -0.435,5.126 0.154,6.444c0.38,0.845 0.86,1.605 1.386,2.323c1.49,2.03 3.286,3.786 4.568,5.978c0.563,0.954 0.677,1.789 0.601,2.529c-0.095,0.923 -0.555,1.739 -1.18,2.503c-0.216,0.264 -0.453,0.524 -0.658,0.799c-0.082,0.11 -0.186,0.222 -0.11,0.394c0.734,1.645 2.262,2.576 3.982,3.223c3.158,1.187 7.017,1.348 9.699,1.652c0.896,0.099 2.454,0.425 3.9,0.523c0.559,0.038 1.094,0.096 1.447,-0.072c0.897,-0.426 1.746,-1.349 2.629,-2.396c2.44,-2.896 4.787,-6.833 6.731,-8.762c1.942,-1.938 4.048,-3.626 6.225,-5.206c4.791,-3.478 9.967,-6.343 14.476,-10.132c0.789,-0.666 1.264,-1.634 1.748,-2.487Z"/><path d="M290.913,162.886c-0.729,3.397 -2.265,8.656 -4.461,12.413c-2.196,3.757 -5.577,6.968 -8.716,10.129c-3.2,3.222 -7.132,5.982 -10.485,9.205c-3.576,3.438 -7.878,7.372 -10.972,11.421c-3.024,3.958 -5.893,8.189 -7.588,12.873c-1.701,4.699 -1.709,10.22 -2.615,15.32c-0.94,5.295 -1.666,11.175 -3.025,16.45c-1.334,5.18 -2.755,11.798 -5.127,15.205c-1.999,2.872 -6.327,3.102 -9.1,5.237c-3.807,2.931 -9.267,10.094 -13.741,12.344c-3.916,1.969 -8.75,0.613 -13.1,1.153c-7.404,0.919 -22.516,4.542 -31.326,4.361c-7.402,-0.152 -15.851,-3.442 -21.534,-5.445c-4.457,-1.572 -8.671,-3.891 -12.561,-6.576c-3.995,-2.757 -7.762,-6.473 -11.408,-9.967c-4.093,-3.922 -9.417,-8.936 -13.151,-13.566c-3.549,-4.4 -6.733,-10.251 -9.254,-14.212c-2.006,-3.153 -4.815,-6.914 -5.871,-9.552c-0.779,-1.948 -0.731,-4.757 -0.461,-6.276c0.204,-1.154 3.228,-2.615 2.077,-2.837c-1.436,-0.277 -7.107,1.076 -10.691,1.176c-4.524,0.127 -11.026,0.369 -16.457,-0.415c-5.623,-0.811 -12.604,-2.384 -17.279,-4.453c-4.081,-1.806 -8.233,-4.421 -10.767,-7.959c-2.533,-3.538 -3.817,-8.645 -4.434,-13.267c-0.897,-6.714 -0.683,-19.418 -0.947,-27.016c-0.216,-6.191 -1.593,-12.452 -0.641,-18.573c1.09,-7.003 4.616,-15.681 7.178,-23.441c3.825,-11.588 12.052,-35.997 15.774,-46.085c1.831,-4.961 2.828,-10.699 6.563,-14.443c5.14,-5.152 17.022,-12.282 24.277,-16.473c6.094,-3.521 12.553,-6.515 19.252,-8.675c7.716,-2.488 18.137,-5.238 27.046,-6.253c8.745,-0.996 17.637,-0.616 26.404,0.162c10.404,0.923 24.327,2.107 36.018,5.376c11.894,3.326 25.135,8.94 35.35,14.581c9.429,5.207 19.419,13.527 25.943,19.265c5.032,4.424 10.191,10.721 13.203,15.158c2.332,3.436 3.409,7.58 4.871,11.467c1.491,3.964 3.255,8.073 4.075,12.32c1.043,5.395 0.982,13.435 2.18,20.05c1.264,6.983 4.492,16.879 5.409,21.849c0.482,2.612 0.648,5.372 0.092,7.969Z" style="fill:#fff"/><path d="M94.209,223.149c-0.156,0.925 -0.245,2.216 -0.171,3.554c0.073,1.32 0.313,2.679 0.761,3.808c0.391,0.987 0.997,2.119 1.721,3.317c1.292,2.137 2.978,4.516 4.311,6.624c1.544,2.442 3.337,5.601 5.312,8.698c1.281,2.009 2.639,3.992 4.05,5.753c1.526,1.903 3.31,3.869 5.171,5.803c2.749,2.857 5.667,5.642 8.138,8.027c2.185,2.109 4.413,4.296 6.707,6.314c1.619,1.424 3.273,2.764 4.965,3.941c2.017,1.403 4.119,2.71 6.295,3.875c2.203,1.178 4.482,2.208 6.824,3.044c3.55,1.266 8.163,3.026 12.939,4.241c3.133,0.797 6.335,1.356 9.372,1.43c2.812,0.07 6.242,-0.223 9.869,-0.698c7.871,-1.03 16.713,-2.928 21.846,-3.541c2.994,-0.359 6.216,0.196 9.208,-0.08c1.678,-0.155 3.292,-0.538 4.807,-1.29c1.611,-0.802 3.35,-2.14 5.094,-3.728c3.258,-2.966 6.579,-6.875 9.143,-8.831c1.808,-1.379 4.335,-1.844 6.333,-2.922c1.353,-0.73 2.526,-1.662 3.411,-2.922c0.927,-1.319 1.748,-3.05 2.467,-5.003c1.262,-3.426 2.236,-7.598 3.16,-11.121c0.432,-1.649 0.805,-3.354 1.143,-5.083c0.756,-3.874 1.329,-7.868 2.004,-11.577c0.646,-3.532 0.861,-7.267 1.507,-10.789c0.253,-1.38 0.578,-2.724 1.046,-3.998c0.788,-2.143 1.853,-4.177 3.062,-6.131c1.258,-2.034 2.677,-3.978 4.129,-5.859c1.173,-1.519 2.531,-3.016 3.951,-4.476c2.233,-2.297 4.622,-4.495 6.75,-6.521c2.656,-2.527 5.676,-4.757 8.403,-7.165c0.753,-0.666 1.486,-1.345 2.187,-2.044c1.935,-1.929 3.954,-3.88 5.756,-5.954c1.327,-1.527 2.535,-3.123 3.535,-4.814c1.166,-1.971 2.172,-4.316 2.99,-6.64c0.865,-2.456 1.515,-4.884 1.93,-6.771c0.327,-1.57 0.446,-3.187 0.398,-4.805c-0.046,-1.522 -0.232,-3.045 -0.514,-4.525c-0.765,-4.028 -3.045,-11.26 -4.597,-17.601c-0.362,-1.475 -0.683,-2.899 -0.928,-4.216c-0.941,-5.043 -1.133,-10.933 -1.666,-15.798c-0.168,-1.533 -0.366,-2.973 -0.623,-4.27c-0.363,-1.83 -0.883,-3.636 -1.486,-5.416c-0.855,-2.521 -1.875,-4.991 -2.797,-7.407c-0.897,-2.351 -1.658,-4.795 -2.631,-7.124c-0.729,-1.74 -1.569,-3.42 -2.634,-4.972c-1.644,-2.398 -3.897,-5.321 -6.424,-8.215c-2.314,-2.649 -4.854,-5.275 -7.362,-7.458c-4.098,-3.569 -9.537,-8.127 -15.353,-12.324c-3.663,-2.644 -7.475,-5.145 -11.199,-7.178c-5.272,-2.878 -11.332,-5.746 -17.601,-8.308c-6.115,-2.5 -12.429,-4.712 -18.407,-6.356c-4.639,-1.276 -9.618,-2.234 -14.598,-2.976c-7.75,-1.155 -15.499,-1.793 -21.918,-2.335c-4.442,-0.376 -8.916,-0.651 -13.386,-0.703c-4.521,-0.052 -9.038,0.121 -13.516,0.647c-4.446,0.523 -9.261,1.468 -13.941,2.6c-4.85,1.174 -9.554,2.547 -13.544,3.849c-3.429,1.119 -6.797,2.451 -10.086,3.958c-3.276,1.501 -6.474,3.174 -9.578,4.982c-4.221,2.453 -9.996,5.9 -15.119,9.378c-3.846,2.612 -7.327,5.249 -9.57,7.509c-1.706,1.72 -2.921,3.797 -3.878,6.047c-1.254,2.951 -2.053,6.209 -3.145,9.192c-1.564,4.273 -3.924,11.106 -6.421,18.449c-3.415,10.037 -7.087,21.029 -9.289,27.735c-1.744,5.295 -3.934,11.016 -5.501,16.344c-0.763,2.595 -1.38,5.099 -1.74,7.425c-0.307,1.964 -0.392,3.942 -0.35,5.927c0.091,4.329 0.805,8.695 0.952,13.027c0.175,5.123 0.129,12.566 0.354,18.93c0.111,3.153 0.29,6.046 0.588,8.289c0.379,2.858 1.007,5.89 1.994,8.663c0.725,2.036 1.645,3.933 2.792,5.541c1.137,1.595 2.567,3.026 4.172,4.294c2.253,1.779 4.854,3.234 7.432,4.382c2.03,0.903 4.477,1.721 7.067,2.426c3.561,0.971 7.396,1.73 10.757,2.222c2.168,0.317 4.499,0.479 6.816,0.549c3.615,0.11 7.191,-0.005 10.009,-0.078c0.715,-0.019 1.505,-0.082 2.33,-0.173c1.318,-0.144 2.735,-0.385 4.015,-0.598Zm4.348,0.95l1.225,-1.112c0.705,-0.637 1.04,-1.312 1.127,-1.718c0.141,-0.656 0.021,-1.235 -0.295,-1.744c-0.257,-0.412 -0.714,-0.94 -1.702,-1.128c-0.377,-0.071 -0.944,-0.098 -1.652,-0.044c-2.215,0.167 -6.575,1.121 -9.518,1.212c-2.749,0.083 -6.238,0.212 -9.766,0.119c-2.149,-0.056 -4.313,-0.193 -6.324,-0.479c-2.682,-0.381 -5.68,-0.938 -8.578,-1.643c-2.982,-0.726 -5.859,-1.604 -8.154,-2.614c-1.898,-0.835 -3.814,-1.853 -5.553,-3.074c-1.696,-1.19 -3.226,-2.569 -4.377,-4.169c-1.173,-1.631 -2.041,-3.637 -2.695,-5.762c-0.661,-2.146 -1.099,-4.413 -1.389,-6.568c-0.287,-2.134 -0.456,-4.889 -0.567,-7.891c-0.236,-6.362 -0.202,-13.803 -0.384,-18.923c-0.154,-4.315 -0.875,-8.663 -0.973,-12.975c-0.039,-1.747 0.027,-3.488 0.294,-5.216c0.338,-2.162 0.92,-4.49 1.632,-6.901c1.562,-5.286 3.745,-10.961 5.482,-16.213c2.22,-6.688 5.909,-17.656 9.359,-27.664c2.514,-7.295 4.902,-14.079 6.48,-18.322c1.082,-2.91 1.87,-6.093 3.111,-8.97c0.748,-1.735 1.666,-3.354 2.991,-4.675c2.099,-2.093 5.366,-4.513 8.96,-6.925c5.051,-3.391 10.744,-6.746 14.904,-9.135c2.989,-1.713 6.066,-3.296 9.217,-4.713c3.14,-1.412 6.352,-2.656 9.623,-3.698c3.895,-1.24 8.486,-2.545 13.218,-3.654c4.496,-1.054 9.12,-1.931 13.389,-2.402c4.273,-0.471 8.581,-0.605 12.891,-0.522c4.348,0.084 8.697,0.389 13.016,0.79c6.319,0.587 13.946,1.276 21.571,2.478c4.76,0.751 9.519,1.704 13.948,2.962c5.765,1.639 11.85,3.827 17.738,6.296c6.045,2.535 11.881,5.369 16.955,8.203c3.503,1.957 7.082,4.362 10.522,6.896c5.617,4.137 10.862,8.623 14.813,12.132c2.29,2.034 4.602,4.479 6.71,6.94c2.326,2.716 4.4,5.457 5.909,7.703c0.811,1.208 1.436,2.52 1.986,3.871c0.926,2.277 1.639,4.667 2.49,6.966c0.872,2.351 1.841,4.753 2.645,7.205c0.499,1.518 0.931,3.055 1.224,4.613c0.805,4.282 0.882,10.251 1.485,15.817c0.156,1.44 0.346,2.855 0.585,4.214c0.251,1.433 0.581,2.983 0.957,4.59c1.454,6.23 3.627,13.337 4.335,17.292c0.201,1.127 0.335,2.285 0.357,3.441c0.021,1.068 -0.061,2.135 -0.289,3.168c-0.347,1.663 -0.897,3.802 -1.635,5.969c-0.648,1.901 -1.433,3.828 -2.367,5.444c-0.779,1.349 -1.733,2.617 -2.772,3.838c-1.676,1.969 -3.565,3.819 -5.368,5.653c-0.6,0.61 -1.227,1.203 -1.873,1.785c-2.761,2.489 -5.82,4.807 -8.507,7.416c-2.164,2.102 -4.592,4.387 -6.862,6.768c-1.578,1.656 -3.081,3.357 -4.381,5.076c-1.885,2.495 -3.71,5.092 -5.248,7.83c-1.071,1.906 -2.007,3.878 -2.737,5.927c-0.573,1.609 -0.976,3.301 -1.277,5.041c-0.611,3.531 -0.789,7.272 -1.399,10.813c-0.55,3.179 -1.022,6.568 -1.6,9.911c-0.372,2.153 -0.788,4.288 -1.303,6.329c-0.729,2.883 -1.48,6.221 -2.417,9.182c-0.633,1.999 -1.326,3.82 -2.21,5.103c-0.355,0.514 -0.859,0.859 -1.406,1.16c-2.24,1.235 -5.029,1.899 -7.052,3.471c-2.647,2.056 -6.088,6.124 -9.446,9.237c-1.308,1.212 -2.584,2.274 -3.797,2.891c-0.89,0.452 -1.849,0.658 -2.838,0.758c-3.035,0.308 -6.31,-0.212 -9.347,0.179c-5.142,0.661 -13.994,2.642 -21.879,3.746c-3.328,0.466 -6.475,0.778 -9.059,0.736c-2.668,-0.044 -5.483,-0.531 -8.24,-1.211c-4.619,-1.137 -9.081,-2.812 -12.516,-4.009c-2.117,-0.737 -4.177,-1.652 -6.17,-2.699c-2.015,-1.059 -3.963,-2.252 -5.833,-3.532c-1.553,-1.063 -3.069,-2.278 -4.557,-3.567c-2.253,-1.952 -4.441,-4.071 -6.588,-6.113c-2.45,-2.331 -5.344,-5.051 -8.069,-7.846c-1.771,-1.817 -3.471,-3.665 -4.924,-5.455c-1.321,-1.628 -2.59,-3.465 -3.791,-5.324c-1.99,-3.079 -3.798,-6.221 -5.354,-8.65c-1.331,-2.076 -3.014,-4.416 -4.304,-6.522c-0.585,-0.955 -1.088,-1.853 -1.406,-2.641c-0.287,-0.71 -0.416,-1.572 -0.467,-2.404c-0.053,-0.863 -0.019,-1.7 0.066,-2.344Z"/><path d="M260.554,153.88c-1.659,0.742 -2.488,2.654 -1.857,4.389c0.942,1.867 2.084,2.485 3.103,2.481c0.902,-0.003 2.277,0.037 3.232,-1.339c0.279,-0.402 0.709,-1.031 1.004,-1.911c0.476,-1.418 0.971,-3.594 1.326,-4.6c0.718,-1.899 1.507,-3.71 2.729,-5.217c1.176,-1.45 2.67,-2.622 4.482,-3.494c1.332,-0.519 2.897,-0.152 4.393,0.404c1.815,0.675 3.462,1.823 4.73,2.699l2.774,2.513c-0.042,-0.038 -0.192,-0.13 -0.192,-0.13c-0,-0 0.786,0.941 1.042,1.202c0.824,0.845 1.764,0.82 2.111,0.882c0.415,0.074 0.781,-0.057 1.121,-0.107c0.984,-0.142 1.58,-0.859 2.163,-1.659c0.88,-1.549 0.449,-3.488 -0.94,-4.529c0.173,-0.441 -1.221,-0.911 -1.452,-1.04l-3.782,-2.16c-2.043,-0.936 -4.861,-2.054 -7.614,-2.442c-2.158,-0.304 -4.262,-0.265 -6.031,0.627c-2.428,1.012 -4.367,2.527 -6.104,4.244c-1.716,1.696 -3.173,3.636 -4.445,5.816c-0.446,0.726 -1.143,2.189 -1.793,3.371Zm4.263,1.135c0.189,0.258 0.344,0.546 0.459,0.862c-0.088,-0.376 -0.259,-0.65 -0.459,-0.862Zm-4.938,-0.005l-0.092,0.071c-0,0 0.063,-0.03 0.086,-0.062l0.006,-0.009Zm26.768,-8.506c-0.007,0.008 -0.012,0.017 -0.017,0.027l0.017,-0.027Z"/><path d="M267.683,171.499c0.138,0.262 0.313,0.51 0.523,0.738c0.343,0.214 0.468,0.398 0.559,0.441c0.43,0.203 0.622,0.482 0.822,0.515c0.565,0.092 0.935,0.378 1.276,0.301c0.236,-0.054 0.459,0.048 0.653,-0.038c0.858,-0.378 1.747,-0.42 2.102,-1.185c0.213,-0.46 0.746,-0.813 0.716,-1.462c-0.015,-0.328 0.245,-0.727 0.046,-1.199c-0.069,-0.165 0.002,-0.415 -0.158,-0.651c-0.064,-0.095 -0.082,-0.391 -0.364,-0.683c-0.081,-0.084 -0.277,-0.386 -0.466,-0.275c-0.179,0.104 -0.193,0.36 -0.178,0.55c-0.017,-0.351 -0.116,-0.71 -0.064,-1.049c0.053,0.086 0.13,0.17 0.241,0.109c0.032,-0.017 -0.02,-0.076 -0.048,-0.13c-0.049,-0.053 -0.1,-0.104 -0.152,-0.154c0.01,-0.033 0.023,-0.066 0.038,-0.099c0.208,-0.454 0.423,-0.914 0.804,-1.209c0.528,-0.28 0.954,-0.444 1.342,-0.418c0.161,0.011 0.222,0.206 0.358,0.304c0.324,0.233 0.514,0.626 0.8,1.055c-0.096,1.067 0.297,2.165 1.158,2.932c1.442,1.284 3.656,1.156 4.941,-0.287c0.584,-1.124 1.221,-1.948 0.925,-2.915c-0.073,-0.236 -0.013,-0.489 -0.131,-0.715c-0.263,-0.508 -0.348,-1.153 -0.886,-1.588c-0.358,-0.29 -0.668,-0.671 -1.127,-0.906c-0.384,-0.197 -0.762,-0.336 -0.981,-0.459c-1.606,-0.975 -2.781,-1.587 -4.056,-1.682c-1.294,-0.098 -2.679,0.01 -4.396,1.13c-1.039,0.426 -1.865,1.236 -2.676,2.069c-0.865,0.889 -1.356,1.973 -1.788,3.104c-0.478,1.128 -0.375,3.372 0.167,3.856Zm9.513,-6.291c0.064,-0.088 0.134,-0.174 0.208,-0.258c-0.101,0.068 -0.163,0.159 -0.208,0.258Z"/><g id="Ropa"><path d="M263.862,284.722c2.353,0.791 -5.4,-5.617 -6.661,-6.5c-5.497,-3.854 -12.82,-8.323 -19.137,-10.47c-6.262,-2.127 -11.388,-6.671 -18.386,-7.261c-13.296,-1.12 -27.678,10.323 -33.862,21.531c-1.594,2.888 6.965,6.852 8.349,8.273c2.848,2.924 5.761,5.794 8.683,8.661c6.769,6.642 30.075,63.584 36.525,60.542" style="fill:#fff"/><path d="M239.393,355.997c-0.215,-0.279 -0.923,-0.515 -1.352,-0.987c-1.314,-1.448 -2.826,-3.555 -4.457,-6.115c-7.835,-12.299 -18.339,-34.246 -24.778,-45.13c-1.808,-3.058 -3.334,-5.302 -4.437,-6.36l-8.733,-8.543c-0.759,-0.773 -3.542,-2.288 -5.815,-3.971c-0.946,-0.701 -1.374,-2.183 -2.049,-2.189c2.983,-5.197 7.805,-10.417 13.448,-14.209c5.631,-3.785 12.085,-6.146 18.251,-5.54c1.815,0.183 3.478,0.681 5.066,1.324c4.352,1.762 8.187,4.558 12.616,6.157c2.99,1.081 6.203,2.733 9.318,4.578c3.169,1.877 6.224,3.969 8.848,5.894c0.759,0.557 3.935,5.326 5.527,5.589c0.411,0.703 1.069,1.266 1.901,1.545c1.603,0.499 2.615,0.103 3.096,-0.156c1.104,-0.594 3.324,-2.889 0.954,-5.779c-1.294,-1.578 -6.628,-5.842 -7.714,-6.568c-3.416,-2.289 -7.497,-4.788 -11.624,-6.877c-2.877,-1.456 -5.769,-2.725 -8.484,-3.59c-4.403,-1.403 -8.266,-4.006 -12.596,-5.584c-2.045,-0.746 -4.18,-1.299 -6.493,-1.457c-7.201,-0.506 -14.665,2.329 -21.133,6.873c-6.224,4.372 -11.54,10.281 -14.719,16.136c-0.764,1.397 -0.564,2.957 0.59,4.501c1.841,2.463 7.007,5.092 8.07,6.189l8.633,8.779c5.351,5.442 20.82,43.745 29.98,56.813c1.934,2.76 3.796,4.511 5.209,5.216c1.615,0.807 3.083,0.689 4.35,0.127c1.748,-0.824 2.497,-2.911 1.673,-4.658c-0.593,-1.258 -1.841,-1.999 -3.146,-2.008Zm24.918,-74.746c0.222,0.029 0.445,0.08 0.665,0.154c-0.239,-0.087 -0.461,-0.135 -0.665,-0.154Z"/><g id="Playera"><path d="M318.922,359.374c-1.439,-3.981 -19.21,-52.495 -25.238,-58.693c-4.823,-4.959 -10.793,-13.682 -15.278,-17.243c-3.634,-2.886 -8.858,-5.252 -12.182,-6.735c-2.453,-1.094 -5.511,-2.595 -7.762,-2.162c-0.531,0.102 -1.113,0.284 -1.698,0.534c-2.628,0.408 -5.362,1.647 -7.84,2.474c-4.415,1.472 -9.866,3.745 -14.097,6.797c-4.415,3.185 -10.135,9.08 -12.392,12.312c-1.368,1.96 -1.077,4.69 -1.148,7.08c-0.099,3.315 1.56,10.865 0.556,12.812c-1.003,1.948 -4.522,-0.276 -6.578,-1.127c-2.105,-0.872 -4.09,-3.399 -6.057,-4.104c-1.802,-0.646 -5.626,-1.279 -5.742,-0.125c-0.116,1.154 3.349,4.71 5.046,7.048c1.845,2.543 4.151,5.377 6.023,8.208c2.071,3.133 4.955,6.727 6.404,10.589c2.065,5.503 4.826,14.779 5.987,22.43c1.259,8.296 1.259,18.222 1.566,27.348c0.406,12.045 0.951,34.94 0.87,44.923c-0.041,5.012 -6.065,13.256 -1.357,14.974c8.47,3.091 39.24,3.457 52.176,3.571c8.536,0.076 16.929,-2.303 25.445,-2.882c9.444,-0.642 25.107,1.008 31.222,-0.971c3.867,-1.252 5.951,-6.866 5.465,-10.902c-0.783,-6.505 -7.236,-18.6 -10.164,-28.131c-3.898,-12.692 -8.829,-35.865 -13.227,-48.025Z" style="fill:#ffd78b"/><path d="M219.893,314.862c-0.339,-0.093 -0.768,-0.222 -1.079,-0.354c-0.957,-0.406 -1.912,-0.898 -2.67,-1.208c-1.519,-0.621 -2.941,-2.22 -4.371,-3.175c-0.601,-0.402 -1.204,-0.727 -1.801,-0.937c-1.538,-0.544 -4.286,-1.033 -5.843,-0.821c-1.89,0.257 -2.773,1.409 -2.888,2.603c-0.062,0.646 0.222,1.789 1.089,3.049c1.1,1.6 3.193,3.859 4.405,5.513l5.998,8.109c1.251,1.879 2.801,3.925 4.148,6.097c0.809,1.304 1.546,2.654 2.073,4.046c1.081,2.852 2.357,6.737 3.489,10.876c1.009,3.689 1.904,7.58 2.449,11.118c0.513,3.354 0.815,6.98 1.017,10.71c0.293,5.413 0.373,11.043 0.56,16.397c0.225,6.902 0.499,17.368 0.659,26.922c0.118,7.088 0.172,13.672 0.125,17.916c-0.024,1.962 -1.123,4.446 -1.953,6.788c-0.774,2.182 -1.34,4.271 -1.24,5.889c0.126,2.029 1.047,3.561 3.199,4.357c3.095,1.143 9.061,1.976 16.085,2.549c12.484,1.019 28.404,1.292 36.816,1.412c2.671,0.038 5.331,-0.156 7.985,-0.458c5.885,-0.671 11.743,-1.912 17.656,-2.276c7.062,-0.435 17.593,0.435 25.011,0.091c2.787,-0.129 5.175,-0.443 6.896,-0.987c2.232,-0.704 4.095,-2.394 5.411,-4.599c1.657,-2.776 2.392,-6.375 2.061,-9.304c-0.202,-1.794 -0.779,-3.977 -1.599,-6.404c-2.222,-6.579 -6.326,-15.161 -8.459,-22.295c-2.58,-8.637 -5.601,-22.12 -8.617,-33.685c-1.445,-5.541 -2.893,-10.65 -4.291,-14.617l-0,-0c-0.987,-2.665 -9.452,-25.239 -16.779,-41.777c-3.829,-8.644 -7.46,-15.668 -9.59,-17.827c-3.715,-3.767 -8.114,-9.744 -11.99,-13.903c-1.288,-1.382 -2.526,-2.579 -3.672,-3.476c-1.508,-1.181 -3.262,-2.285 -5.06,-3.279c-2.776,-1.533 -5.65,-2.811 -7.774,-3.742c-1.81,-0.792 -3.927,-1.763 -5.864,-2.18c-1.258,-0.271 -2.461,-0.33 -3.535,-0.116l-1.733,0.551c-0.868,0.148 -1.747,0.37 -2.625,0.639c-1.877,0.577 -3.753,1.375 -5.503,1.972c-2.344,0.8 -4.968,1.819 -7.559,3.052c-2.52,1.2 -5.008,2.597 -7.188,4.189c-2.164,1.58 -4.631,3.784 -6.875,6.034c-2.535,2.541 -4.788,5.137 -6.032,6.941c-0.596,0.864 -0.985,1.824 -1.216,2.849c-0.397,1.764 -0.285,3.747 -0.329,5.555c-0.053,2.179 0.626,6.136 0.865,9.228c0.059,0.767 0.155,1.455 0.138,1.968Zm-12.66,-1.7c0.48,0.085 0.922,0.183 1.212,0.288c1.409,0.513 2.774,2.136 4.249,3.151c0.556,0.383 1.123,0.707 1.692,0.945c1.844,0.774 4.744,2.265 6.55,2.08c1.297,-0.133 2.326,-0.754 2.98,-2.008c0.387,-0.744 0.618,-2.041 0.589,-3.658c-0.054,-3.068 -0.906,-7.743 -0.821,-10.151c0.047,-1.323 -0.037,-2.758 0.164,-4.088c0.091,-0.601 0.242,-1.178 0.587,-1.666c1.143,-1.617 3.219,-3.928 5.536,-6.199c2.075,-2.033 4.347,-4.029 6.341,-5.451c1.946,-1.386 4.167,-2.592 6.41,-3.625c2.413,-1.111 4.857,-2.018 7.036,-2.729c1.485,-0.484 3.063,-1.115 4.654,-1.627c0.924,-0.298 1.852,-0.551 2.766,-0.687c0.222,-0.034 0.439,-0.097 0.646,-0.185l1.149,-0.353c0.583,-0.108 1.245,0.072 1.937,0.281c1.419,0.43 2.893,1.156 4.189,1.745c1.985,0.902 4.674,2.135 7.264,3.613c1.517,0.865 2.999,1.816 4.267,2.837c1.363,1.098 2.861,2.733 4.432,4.578c3.474,4.082 7.224,9.155 10.462,12.53c1.873,1.954 4.822,8.371 8.123,16.137c7.012,16.493 15.047,38.989 15.984,41.644l0,0c1.407,3.794 2.877,8.686 4.352,13.994c3.219,11.586 6.464,25.105 9.194,33.754c2.26,7.17 6.519,15.778 8.861,22.387c0.695,1.962 1.221,3.721 1.407,5.176c0.193,1.509 -0.093,3.309 -0.771,4.87c-0.591,1.361 -1.427,2.613 -2.686,3.03c-1.957,0.649 -5,0.854 -8.49,0.928c-7.097,0.151 -15.89,-0.34 -22.048,0.119c-5.997,0.446 -11.929,1.774 -17.894,2.525c-2.443,0.307 -4.891,0.515 -7.353,0.506c-7.213,-0.025 -19.99,-0.088 -31.327,-0.687c-8.683,-0.458 -16.504,-1.19 -20.126,-2.495c-0.661,-0.238 -0.421,-0.917 -0.293,-1.647c0.593,-3.389 3.001,-8.005 3.014,-11.267c0.023,-4.27 -0.082,-10.895 -0.231,-18.028c-0.201,-9.574 -0.483,-20.064 -0.725,-26.98c-0.175,-5.38 -0.243,-11.037 -0.523,-16.476c-0.2,-3.871 -0.508,-7.632 -1.031,-11.113c-0.551,-3.686 -1.466,-7.742 -2.496,-11.589c-1.148,-4.289 -2.441,-8.319 -3.541,-11.277c-0.612,-1.647 -1.46,-3.251 -2.405,-4.796c-1.359,-2.221 -2.921,-4.317 -4.183,-6.239l-6.047,-8.306c-0.804,-1.12 -2.037,-2.524 -3.056,-3.791Z"/></g></g><path d="M159.324,239.691c-0.01,0.074 -0.017,0.148 -0.022,0.223c-0.096,1.356 0.319,3.128 1.498,4.591c1.258,1.606 6.07,5.326 9.338,5.172c2.055,-0.097 3.961,-0.935 4.529,-3.994c0.271,-1.25 0.052,-2.308 -0.466,-3.239c-0.844,-1.515 -2.73,-2.657 -4.122,-3.425c-2.68,-1.69 -7.259,-4.476 -11.322,-5.294c-2.668,-0.537 -5.095,-0.037 -7.195,1.307c-1.509,1.206 -1.755,3.41 -0.549,4.919c1.205,1.51 3.41,1.756 4.919,0.55c0.846,-0.827 2.068,-0.969 3.392,-0.81Zm7.107,2.303c0.602,0.811 1.565,1.846 2.613,2.502c0.325,0.204 0.631,0.41 0.952,0.507c0.097,0.03 0.18,0.088 0.272,0.095c0.05,0.005 -0.012,0.174 0.026,0.139c0.133,-0.119 0.251,-0.294 0.329,-0.55c0.079,-0.3 -0.123,-0.506 -0.328,-0.69c-0.636,-0.569 -1.529,-0.926 -2.187,-1.253c-0.498,-0.221 -1.063,-0.479 -1.677,-0.75Zm-1.549,0.712l-0.128,0.043c0.047,-0.008 0.09,-0.023 0.128,-0.043Z"/><path d="M240.524,91.322c-1.729,1.239 -3.011,4.957 -3.871,6.762c-2.62,5.502 -4.579,11.238 -6.421,17.049c-0.719,2.268 -3.497,5.205 -2.685,7.704c0.939,2.893 4.549,2.543 6.738,1.558c0.191,-0.086 2.864,-1.452 2.96,-1.189c0.968,2.662 -0.592,7.939 -0.592,10.821c0,1.484 -0.537,3.42 0.956,4.261c8.118,4.569 18.336,-0.799 27.049,0.45c3.06,0.439 6.332,0.075 9.334,0.616c6.775,1.22 13.616,6.764 19.763,0.573c1.108,-1.117 2.462,-2.202 3.461,-3.401c0.701,-0.842 0.814,-2.074 1.184,-3.074c3.432,-9.256 -3.032,-13.738 -5.418,-21.884c-0.926,-3.161 -0.366,-8.346 -2.96,-10.697c-0.547,-0.496 1.936,-2.418 2.185,-2.746c1.308,-1.722 1.674,-3.864 1.321,-6.024c-0.686,-4.195 -2.416,-4.681 -5.374,-6.885c-0.752,-0.56 -1.995,-2.485 -2.868,-2.746c-3.729,-1.114 -9.012,-0.022 -12.659,0.779c-6.276,1.378 -12.669,2.336 -19.08,2.336c-3.66,0 -8.273,-0.076 -11.703,1.475c-1.434,0.648 -4.413,2.735 -1.684,3.402"/><path d="M236.006,91.404c-0.997,1.728 -1.796,3.936 -2.387,5.235c-1.045,2.298 -1.983,4.63 -2.844,6.991c-1.269,3.481 -2.379,7.018 -3.442,10.584c-0.463,1.545 -1.883,3.413 -2.458,5.23c-0.467,1.472 -0.564,2.926 -0.096,4.292c0.75,2.194 2.266,3.42 4.122,3.932c1.846,0.509 4.103,0.222 5.883,-0.459c-0.206,2.417 -0.726,5.059 -0.699,6.818c0.017,1.302 -0.174,2.877 0.27,4.072c0.358,0.959 0.964,1.795 2.024,2.374c2.879,1.571 5.957,2.116 9.148,2.092c6.203,-0.046 12.849,-2.449 18.82,-1.66c2.488,0.338 5.108,0.164 7.62,0.343c0.557,0.04 1.109,0.098 1.65,0.191c4.139,0.722 8.317,3.005 12.334,3.358c3.177,0.278 6.282,-0.445 9.242,-3.443l3.582,-3.53c0.345,-0.412 0.609,-0.879 0.817,-1.379c0.305,-0.734 0.449,-1.567 0.717,-2.285c1.123,-2.982 1.316,-5.537 0.998,-7.874c-0.719,-5.292 -4.51,-9.374 -6.202,-15.341c-0.612,-2.176 -0.517,-5.296 -1.222,-7.812c-0.241,-0.858 -0.566,-1.655 -0.99,-2.368c0.52,-0.496 1.117,-1.072 1.214,-1.197c0.898,-1.151 1.467,-2.453 1.765,-3.828c0.281,-1.295 0.297,-2.662 0.089,-4.037c-0.302,-2.016 -0.853,-3.357 -1.55,-4.419c-1.057,-1.611 -2.578,-2.514 -4.705,-4.149c-0.532,-0.409 -1.298,-1.586 -2.004,-2.225c-0.567,-0.513 -1.157,-0.826 -1.655,-0.983c-1.778,-0.561 -3.861,-0.71 -6.001,-0.617c-2.811,0.121 -5.729,0.682 -8.032,1.149c-3.063,0.618 -6.151,1.13 -9.254,1.479c-3.062,0.343 -6.137,0.516 -9.213,0.464c-2.313,-0.041 -4.983,-0.097 -7.539,0.183c-1.973,0.215 -3.876,0.654 -5.564,1.379c-1.136,0.488 -2.854,1.62 -3.742,2.681c-0.654,0.782 -0.968,1.627 -1.083,2.367c-0.131,0.837 0.002,1.636 0.387,2.392Zm48.246,-6.46c-1.175,-0.281 -2.517,-0.284 -3.885,-0.182c-2.505,0.186 -5.087,0.794 -7.128,1.277c-3.206,0.762 -6.444,1.411 -9.703,1.889c-3.313,0.486 -6.646,0.784 -9.989,0.841c-2.058,0.036 -4.436,0.048 -6.7,0.379c-1.091,0.16 -2.15,0.405 -3.108,0.791c0.638,1.479 0.185,3.254 -1.177,4.229c-0.497,0.343 -0.844,1.103 -1.223,1.84c-0.659,1.283 -1.211,2.637 -1.652,3.521c-1.314,2.639 -2.473,5.335 -3.535,8.072c-1.08,2.785 -2.065,5.608 -3.021,8.451c-0.474,1.416 -1.675,3.087 -2.447,4.753c-0.185,0.399 -0.486,0.755 -0.369,1.133c0.115,0.375 0.524,0.334 0.868,0.331c0.684,-0.007 1.394,-0.173 1.958,-0.417c0.176,-0.076 2.216,-1.052 3.047,-1.275c2.28,-0.611 3.398,1.027 3.629,1.694c0.402,1.162 0.523,2.68 0.393,4.342c-0.199,2.536 -0.959,5.505 -0.988,7.414c-0.009,0.622 -0.077,1.822 -0.102,2.231c2.011,1.092 4.183,1.47 6.429,1.507c6.387,0.106 13.29,-2.141 19.419,-1.194c2.391,0.361 4.918,0.216 7.334,0.425c0.699,0.06 1.389,0.145 2.066,0.272c4.021,0.747 8.05,3.07 11.957,3.446c2.057,0.197 4.064,-0.284 5.992,-2.215l3.34,-3.271l0.834,-2.484c1.126,-3.085 0.987,-5.545 0.253,-7.807c-1.353,-4.17 -4.377,-7.766 -5.886,-12.747c-0.58,-1.905 -0.65,-4.532 -1.15,-6.86c-0.231,-1.071 -0.528,-2.08 -1.258,-2.725c-0.758,-0.67 -1.092,-1.617 -0.698,-2.828c0.145,-0.447 0.518,-1.053 1.05,-1.648c0.467,-0.521 1.346,-1.331 1.559,-1.525c0.396,-0.557 0.633,-1.182 0.757,-1.832c0.14,-0.733 0.113,-1.502 -0.023,-2.273c-0.245,-1.378 -0.598,-2.182 -1.182,-2.789c-0.82,-0.852 -1.928,-1.414 -3.31,-2.412c-0.553,-0.4 -1.983,-1.951 -2.351,-2.354Zm-43.163,2.145c-0.032,-0.011 -0.064,-0.019 -0.098,-0.027l0.098,0.027Z"/><path d="M100.137,44.233c2.812,-0.631 6.545,3.622 8.88,4.96c7.573,4.339 15.599,7.816 23.223,12.13c2.296,1.299 4.542,2.693 6.693,4.221c0.573,0.407 2.026,1.506 2.824,1.148c2.054,-0.921 3.019,-5.595 2.413,-7.5c-0.23,-0.725 -0.654,-1.365 -1.048,-2.008c-0.222,-0.363 -0.843,-1.48 -0.637,-1.107c1.684,3.054 6.781,4.785 9.426,6.886c9.82,7.8 19.019,16.111 32.33,17.09c2.052,0.15 7.166,1.505 8.197,-0.82c1.12,-2.527 -2.136,-5.384 -3.824,-6.721c-0.089,-0.07 -1.789,-1.506 -1.868,-1.435c-0.502,0.455 4.327,3.823 4.644,4.016c6.095,3.713 12.839,6.442 19.216,9.631c8.69,4.345 19.075,6.557 28.826,6.557c1.024,0 3.014,-0.824 3.095,-2.008c0.037,-0.547 0.214,-1.843 -0.09,-2.336c-0.165,-0.266 -1.57,-1.793 -1.003,-0.942c5.096,7.643 18.151,7.443 26.047,5.45c1.723,-0.435 3.802,-0.363 5.327,-1.393c1.943,-1.312 2.313,-2.877 3.188,-4.919c0.131,-0.306 0.119,-2.043 0.41,-2.13c1.292,-0.386 3.148,0.69 4.326,1.025c3.008,0.854 5.933,2.024 8.97,1.105c4.241,-1.282 9.046,-0.39 13.479,-1.72c1.631,-0.49 4.164,-1.785 4.371,-3.853c1.016,-10.164 -10.326,-16.705 -18.486,-19.877c-2.896,-1.125 -5.671,-2.302 -8.744,-2.827c-0.98,-0.168 -1.913,-0.316 -2.868,-0.573c-0.53,-0.143 -2.143,-0.41 -1.594,-0.41c3.186,-0 6.336,2.345 9.744,1.639c4.337,-0.898 0.338,-7.338 -1.229,-8.525c-2.193,-1.661 -4.873,-2.578 -7.286,-3.851c-4.964,-2.62 -9.226,-5.62 -14.845,-6.762c-3.54,-0.72 -6.965,-0.435 -10.519,-0.779c-0.566,-0.055 -2.887,0.067 -3.323,-0.328c-0.162,-0.147 3.904,-4.147 4.007,-5.164c0.388,-3.821 -4.319,-8.423 -7.104,-10.533c-5.046,-3.823 -11.528,-4.332 -17.622,-4.999c-1.974,-0.216 -5.331,-1.062 -7.332,-0.41c-2.894,0.943 -5.151,3.283 -7.832,4.589c-0.209,0.102 -2.136,1.251 -2.276,1.189c-0.274,-0.123 -0.761,-1.769 -0.911,-2.049c-1.049,-1.958 -2.273,-4.024 -3.643,-5.778c-2.209,-2.828 -7.631,-5.234 -11.202,-5.902c-8.448,-1.578 -14.451,1.488 -21.994,4.549c-0.986,0.4 -2.334,0.585 -3.142,1.312c-0.62,0.558 -2.232,4.242 -3.643,3.401c-2.613,-1.557 -4.809,-5.769 -7.058,-7.951c-4.307,-4.179 -12.819,-6.699 -18.851,-5.86c-3.093,0.43 -10.131,1.704 -12.431,3.648c-2.984,2.523 -6.608,7.535 -10.109,9.097c-1.1,0.491 -5.253,-2.749 -6.375,-3.237c-4.086,-1.776 -10.6,-0.654 -13.479,2.87c-5.804,7.1 -2.696,15.695 1.411,22.744c2.049,3.518 2.824,6.699 6.603,5.696"/><path d="M116.838,13.111c-0.441,-0.237 -1.07,-0.586 -1.509,-0.868c-1.334,-0.855 -2.615,-1.712 -3.188,-1.966c-2.57,-1.137 -5.906,-1.409 -9.062,-0.803c-3.269,0.628 -6.295,2.22 -8.191,4.508c-2.877,3.469 -3.991,7.25 -3.997,11.088c-0.008,5.258 2.232,10.673 4.963,15.439c0.425,0.742 0.8,1.467 1.159,2.147c-0.354,0.698 -0.476,1.519 -0.292,2.343c0.407,1.813 2.157,2.981 3.967,2.69c-0.066,0.785 1.648,0.791 2.488,1.424c1.529,1.155 2.994,2.409 4.137,3.053c1.558,0.879 3.133,1.723 4.721,2.544c6.169,3.191 12.515,6.045 18.608,9.437c1.109,0.617 2.207,1.257 3.287,1.925c1.071,0.662 2.125,1.351 3.156,2.073c0.689,0.482 2.256,1.494 3.473,1.711c0.922,0.165 1.773,0.057 2.495,-0.273c1.479,-0.676 2.845,-2.295 3.606,-4.399c0.196,-0.541 0.353,-1.109 0.472,-1.681c1.085,0.6 2.109,1.19 2.908,1.816c6.106,4.79 11.994,9.752 18.694,13.152c4.623,2.346 9.619,3.972 15.304,4.355c1.495,0.1 4.48,0.717 6.636,0.406c2.046,-0.295 3.556,-1.283 4.258,-2.894l0.099,-0.244c0.277,0.142 0.555,0.283 0.833,0.423c4.491,2.251 9.145,4.237 13.623,6.447c4.539,2.241 9.515,3.928 14.628,5.043c5.073,1.106 10.278,1.653 15.318,1.628c0.958,-0.004 2.458,-0.421 3.548,-1.181c0.388,-0.27 0.724,-0.578 0.998,-0.914c1.854,1.157 3.974,1.979 6.237,2.512c5.933,1.396 12.834,0.805 17.805,-0.472c1.221,-0.314 2.619,-0.383 3.878,-0.75c0.76,-0.221 1.48,-0.528 2.13,-0.971c1.03,-0.699 1.729,-1.452 2.273,-2.274c0.693,-1.045 1.097,-2.219 1.684,-3.599c0.034,-0.081 0.078,-0.296 0.123,-0.562l2.038,0.666c1.9,0.534 3.773,1.173 5.653,1.404c1.494,0.185 2.994,0.131 4.516,-0.334c3.297,-1.007 6.953,-0.623 10.486,-1.118c1.004,-0.141 1.999,-0.342 2.978,-0.639c1.23,-0.373 2.858,-1.129 4.026,-2.223c0.993,-0.93 1.67,-2.087 1.8,-3.415c0.469,-4.74 -1.351,-8.81 -4.371,-12.192c-4.053,-4.538 -10.323,-7.803 -15.433,-9.783l-0.744,-0.29c0.326,-0.589 0.49,-1.266 0.533,-1.994c0.172,-2.886 -2.608,-7.115 -3.976,-8.155c-0.74,-0.564 -1.529,-1.053 -2.346,-1.499c-1.696,-0.926 -3.52,-1.65 -5.213,-2.548c-3.017,-1.602 -5.778,-3.339 -8.735,-4.727c-2.079,-0.976 -4.251,-1.784 -6.653,-2.282c-1.142,-0.236 -2.272,-0.376 -3.399,-0.466c-2.169,-0.174 -4.322,-0.144 -6.517,-0.312c0.326,-0.384 0.629,-0.758 0.873,-1.093c0.633,-0.865 0.923,-1.658 0.969,-2.099c0.214,-2.031 -0.586,-4.269 -1.972,-6.352c-1.675,-2.518 -4.177,-4.829 -5.962,-6.191c-2.239,-1.712 -4.733,-2.84 -7.358,-3.62c-3.66,-1.088 -7.583,-1.475 -11.364,-1.908c-1.404,-0.161 -3.482,-0.621 -5.319,-0.685c-1.106,-0.039 -2.142,0.066 -3,0.341c-1.042,0.334 -2.017,0.815 -2.956,1.372c-1.769,1.049 -3.382,2.425 -5.2,3.3l-0.053,0.028c-0.523,-0.986 -1.09,-1.994 -1.694,-2.979c-0.65,-1.059 -1.346,-2.09 -2.08,-3.039c-1.074,-1.39 -2.775,-2.722 -4.724,-3.838c-2.596,-1.486 -5.632,-2.593 -7.957,-3.041c-3.671,-0.708 -6.927,-0.612 -10.036,-0.039c-4.497,0.828 -8.674,2.709 -13.431,4.608c-0.707,0.282 -1.592,0.463 -2.35,0.792c-0.594,0.258 -1.131,0.589 -1.587,0.995c-0.228,0.203 -0.558,0.596 -0.91,1.131c-0.152,0.231 -0.419,0.608 -0.676,0.966c-0.187,-0.195 -0.371,-0.404 -0.555,-0.62c-1.679,-1.964 -3.239,-4.478 -4.816,-6.027c-2.433,-2.393 -6.054,-4.348 -9.938,-5.559c-3.82,-1.19 -7.883,-1.644 -11.259,-1.197c-2.197,0.29 -6.271,0.981 -9.458,2.012c-1.913,0.62 -3.53,1.412 -4.515,2.233c-2.068,1.725 -4.449,4.615 -6.877,6.772c-0.571,0.507 -1.139,0.97 -1.708,1.331Zm54.387,2.937c-0.353,0.536 -2.043,3.052 -3.107,3.698c-1.265,0.768 -2.556,0.801 -3.805,0.067c-1.057,-0.623 -2.08,-1.566 -3.053,-2.678c-1.595,-1.82 -3.058,-4.179 -4.553,-5.611c-1.891,-1.81 -4.725,-3.207 -7.717,-4.095c-2.991,-0.889 -6.16,-1.254 -8.788,-0.87c-1.699,0.248 -4.655,0.773 -7.261,1.534c-1.506,0.439 -2.901,0.894 -3.628,1.517c-2.006,1.719 -4.295,4.595 -6.65,6.743c-1.366,1.246 -2.77,2.266 -4.14,2.888c-0.668,0.303 -1.625,0.454 -2.787,0.149c-1.719,-0.452 -5.094,-2.897 -6.109,-3.33c-1.508,-0.644 -3.462,-0.684 -5.3,-0.306c-1.739,0.358 -3.41,1.107 -4.406,2.341c-2.24,2.782 -2.688,5.854 -2.217,8.902c0.538,3.485 2.221,6.935 4.074,10.061c0.716,1.208 1.277,2.377 1.864,3.344c0.141,0.233 0.389,0.547 0.535,0.723c0.081,-0.026 0.229,0.003 0.344,-0.028c1.867,-0.496 3.785,0.617 4.28,2.484c0.118,0.442 0.145,0.886 0.093,1.313c0.664,0.535 1.283,1.008 1.827,1.325c1.474,0.859 2.967,1.685 4.471,2.489c6.181,3.308 12.544,6.281 18.646,9.79c1.187,0.682 2.36,1.388 3.515,2.125c1.152,0.735 2.286,1.498 3.395,2.297c0.111,-0.255 0.212,-0.519 0.265,-0.74c0.188,-0.774 0.342,-1.565 0.193,-2.046l-0.723,-1.335c-0.172,-0.286 -0.569,-0.998 -0.691,-1.217l-0.008,-0.015c-6.634,-11.829 -7.452,-16.529 -5.424,-16.113c0.811,-1.839 4.404,1.324 10.763,13.018l0.035,0.062l0.13,0.225c0.335,0.525 0.855,0.966 1.428,1.394c2.247,1.674 5.239,2.983 7.067,4.454c5.746,4.622 11.254,9.448 17.581,12.758c3.942,2.061 8.207,3.526 13.081,3.914c0.833,0.067 2.16,0.327 3.523,0.472c0.55,0.059 1.39,0.03 1.884,0.003c-0.026,-0.042 -0.053,-0.085 -0.076,-0.128c-0.152,-0.297 -0.351,-0.584 -0.572,-0.858c-1.222,-0.864 -3.428,-2.495 -4.234,-3.407c-1.649,-1.867 -0.708,-3.617 -0.011,-4.256c0.229,-0.211 1.779,-1.291 3.508,-0.11c0.513,0.35 1.731,1.358 1.808,1.419c0.811,0.634 1.886,1.57 2.831,2.652c1.658,1.012 3.365,1.95 5.1,2.845c4.453,2.297 9.077,4.321 13.521,6.572c4.165,2.109 8.74,3.707 13.446,4.784c4.716,1.078 9.562,1.637 14.259,1.661c0.183,0.001 0.569,-0.183 0.792,-0.298l0.019,-0.325l0.001,-0.024c-0.26,-0.32 -0.507,-0.653 -0.74,-0.999c-0.388,-0.578 -0.459,-0.964 -0.486,-1.106c-0.184,-0.985 0.216,-1.59 0.536,-1.959c0.388,-0.449 0.917,-0.756 1.64,-0.795c0.25,-0.013 0.927,-0.021 1.654,0.561c0.372,0.299 1.4,1.46 1.57,1.732c0.106,0.171 0.202,0.372 0.282,0.597c1.731,1.672 4.053,2.705 6.574,3.32c5.21,1.272 11.285,0.765 15.668,-0.322c1.051,-0.261 2.23,-0.34 3.343,-0.582c0.462,-0.101 0.915,-0.223 1.303,-0.483c0.492,-0.33 0.834,-0.681 1.096,-1.071c0.523,-0.779 0.809,-1.666 1.234,-2.679c0.041,-0.376 0.186,-1.641 0.332,-2.045c0.348,-0.966 1.036,-1.365 1.538,-1.514c0.722,-0.214 1.542,-0.22 2.393,-0.042c1.098,0.229 2.288,0.828 3.137,1.071c1.687,0.485 3.342,1.091 5.014,1.306c0.911,0.118 1.827,0.114 2.757,-0.165c0.979,-0.293 1.984,-0.487 3.006,-0.617c3.419,-0.435 7.068,-0.051 10.489,-1.067c0.627,-0.187 1.433,-0.52 2.095,-1.015c0.382,-0.286 0.773,-0.595 0.82,-1.053c0.357,-3.529 -1.084,-6.53 -3.327,-9.053c-3.62,-4.072 -9.27,-6.942 -13.842,-8.725c-1.7,-0.662 -3.356,-1.346 -5.06,-1.896l-0.295,-0.093c-0.243,-0.029 -0.485,-0.069 -0.726,-0.115c-0.742,-0.143 -1.474,-0.371 -2.199,-0.61l-0.068,-0.013l-3.054,-0.611c-0.417,-0.112 -1.465,-0.302 -1.738,-0.39c-2.31,-0.739 -1.275,-2.995 -0.872,-3.398c0.112,-0.112 0.525,-0.603 1.542,-0.604c1.583,-0.001 3.164,0.524 4.767,1.009l0.036,0.007c1.045,0.178 2.059,0.425 3.055,0.72c0.485,0.049 0.975,0.041 1.473,-0.063c0.302,-0.062 0.347,-0.295 0.32,-0.541c-0.06,-0.554 -0.286,-1.154 -0.562,-1.732c-0.553,-1.161 -1.318,-2.249 -1.813,-2.623c-0.578,-0.435 -1.196,-0.81 -1.832,-1.154c-1.686,-0.91 -3.499,-1.619 -5.181,-2.502c-2.962,-1.553 -5.671,-3.247 -8.574,-4.588c-1.791,-0.828 -3.66,-1.515 -5.728,-1.927c-0.966,-0.193 -1.923,-0.302 -2.877,-0.371c-2.469,-0.179 -4.915,-0.103 -7.427,-0.337c-0.443,-0.041 -1.91,0.014 -2.814,-0.122c-0.837,-0.126 -1.443,-0.461 -1.759,-0.746c-0.402,-0.361 -1.177,-1.278 -0.456,-2.674c0.08,-0.156 0.293,-0.474 0.635,-0.877c0.689,-0.813 2.741,-3.282 3.115,-3.733c-0.004,-1.35 -0.93,-2.757 -1.975,-4.077c-1.349,-1.704 -3.049,-3.207 -4.312,-4.157c-1.805,-1.355 -3.819,-2.222 -5.926,-2.827c-3.415,-0.98 -7.074,-1.275 -10.595,-1.643c-1.154,-0.121 -2.786,-0.459 -4.334,-0.577c-0.74,-0.056 -1.455,-0.084 -2.012,0.101c-0.698,0.231 -1.346,0.572 -1.974,0.953c-1.878,1.139 -3.602,2.601 -5.535,3.554c-0.174,0.086 -1.515,0.886 -2.086,1.149c-1.122,0.516 -2.004,0.186 -2.234,0.085c-0.332,-0.146 -0.831,-0.469 -1.232,-1.121c-0.268,-0.436 -0.807,-1.876 -0.875,-2.059c-0.495,-0.911 -1.03,-1.845 -1.601,-2.755c-0.566,-0.902 -1.168,-1.78 -1.804,-2.586c-0.929,-1.176 -2.568,-2.211 -4.311,-3.065c-1.845,-0.904 -3.831,-1.573 -5.412,-1.859c-2.981,-0.539 -5.619,-0.431 -8.133,0.062c-4.162,0.817 -7.998,2.654 -12.389,4.466l-2.273,0.812Z"/><path d="M249.533,152.656c-0.914,0.642 -3.32,3.561 -0.219,5.811c0.368,0.268 1.832,1.09 2.417,1.434l0.288,0.17c0.357,0.331 0.71,0.699 1.057,1.071c0.175,0.188 0.347,0.378 0.515,0.571c-1.916,-0.706 -3.691,-1.585 -4.613,-1.985l-2.973,-1.354c-0.278,-0.128 -0.974,-0.426 -1.173,-0.503c-0.645,-0.251 -1.086,-0.243 -1.17,-0.245c-0.427,-0.012 -5.996,4.24 -1.49,6.399c2.184,1.046 4.337,2.408 6.391,3.91c1.576,1.152 3.095,2.387 4.526,3.632c-1.467,-0.463 -2.93,-1.063 -4.24,-1.642l-0.282,-0.216c-3.574,-2.682 -7.377,-4.549 -10.739,-4.772c-1.742,-0.116 -2.485,0.794 -2.774,1.128c-0.632,0.729 -0.883,1.575 -0.764,2.534c0.063,0.502 0.265,1.37 1.191,2.135c0.287,0.237 1.659,0.897 2.216,1.168l4.928,2.336c0.791,0.344 1.901,0.873 3.191,1.452c3.682,2.941 7.034,6.629 9.077,9.141c0.116,0.142 0.809,1.104 1.419,1.954c-0.856,0.011 -1.784,-0.162 -2.723,-0.382c-0.967,-0.227 -1.944,-0.537 -2.898,-0.89c-2.228,-1.762 -4.936,-3.791 -7.575,-5.141c-2.15,-1.099 -4.288,-1.751 -6.181,-1.756c-0.023,0 -3.096,2.266 -2.63,4.338c-1.059,0.436 -1.47,1.162 -1.685,1.657c-0.373,0.86 -0.398,1.801 0.173,2.786c0.203,0.35 0.588,0.832 1.253,1.243c0.594,0.367 2.033,0.852 2.637,1.207l2.832,1.673c1.181,0.675 3.495,2.307 6.038,3.741c1.523,1.229 2.954,2.57 4.237,4.089c0.085,0.102 0.411,0.468 0.79,0.957c-0.375,-0.108 -0.759,-0.249 -1.146,-0.396c-0.945,-0.356 -1.892,-0.825 -2.794,-1.332l-0.232,-0.235c-1.512,-1.495 -3.169,-2.846 -4.92,-4.066c-0.279,-0.194 -1.999,-1.435 -3.177,-1.83c-1.221,-0.409 -2.276,-0.211 -2.973,0.163l-0.101,0.058c-0.377,-0.464 -0.8,-0.997 -0.975,-1.144c-0.892,-0.752 -1.75,-0.723 -2.172,-0.674c-1.042,0.121 -1.874,0.64 -2.305,1.802c-0.102,0.275 -0.363,0.932 -0.011,1.979c1.949,5.803 4.603,11.181 6.504,16.907c0.286,0.86 0.554,1.728 0.798,2.608c-0.922,-1.963 -1.804,-3.946 -2.664,-5.946l-2.282,-5.302c-0.051,-0.206 -0.407,-1.608 -0.63,-1.996c-0.427,-0.747 -1.017,-1.135 -1.557,-1.324c-0.803,-0.281 -1.805,-0.356 -2.857,0.603c-1.052,0.96 -1.396,2.099 -1.239,3.369c0.089,0.72 0.394,1.53 0.87,2.346c0.497,0.852 1.276,1.741 1.589,2.525c0.844,2.109 1.667,4.227 2.469,6.354c-0.346,-0.624 -0.754,-1.362 -0.922,-1.612c-0.311,-0.46 -0.623,-0.681 -0.752,-0.768c-0.779,-0.52 -1.476,-0.478 -1.952,-0.374c-0.656,0.143 -1.225,0.494 -1.628,1.159c-0.09,0.148 -0.694,0.938 -0.168,2.352c1.547,4.159 3.469,8.102 5.28,12.103c-0.916,-0.239 -1.909,-0.398 -2.786,-0.366c-1.354,-0.876 -2.381,-0.168 -2.792,0.147c-0.373,0.286 -0.811,0.759 -0.928,1.521c-0.202,0.242 -0.379,0.508 -0.529,0.797c-0.969,-0.981 -1.961,-1.94 -2.989,-2.86c-1.421,-1.271 -3.519,-3.142 -5.676,-4.198c-0.672,-0.329 -1.353,-0.586 -2.031,-0.759c-1.341,-1.291 -2.735,-2.518 -4.187,-3.67c-2.564,-2.033 -5.307,-3.832 -8.257,-5.338c-1.62,-0.826 -4.239,-2.131 -6.622,-2.45c-1.559,-0.208 -3.045,-0.037 -4.32,0.579c-0.838,0.405 -1.561,1.121 -1.825,2.291c-1.54,-0.926 -3.116,-1.763 -4.68,-2.414c-3.131,-1.304 -6.242,-1.884 -9.053,-1.362l-0.517,-0.281c-2.566,-1.382 -5.187,-2.627 -7.874,-3.596c-1.064,-0.384 -3.545,-1.024 -5.447,-0.855c-1.615,0.144 -2.907,0.822 -3.678,1.869c-0.247,0.335 -0.442,0.693 -0.586,1.068c-0.717,-0.411 -1.442,-0.799 -2.172,-1.157c-3.849,-1.888 -7.848,-2.928 -11.647,-2.28c-1.049,0.179 -1.82,0.58 -2.379,1.124c-0.752,-0.376 -1.513,-0.735 -2.282,-1.068c-2.368,-1.027 -4.807,-1.809 -7.302,-2.139c-4.292,-0.566 -5.816,1.311 -6.232,3.003c-0.153,0.62 -0.144,1.369 0.038,2.183l-0.232,-0.037c-2.454,-0.201 -3.98,0.463 -4.891,1.302c-0.66,0.608 -1.099,1.387 -1.295,2.283c-1.126,-0.504 -2.282,-0.945 -3.353,-1.212c-2.741,-0.686 -5.049,-0.177 -6.315,1.373c-0.159,0.195 -0.3,0.409 -0.419,0.64c-1.527,-0.872 -3.166,-1.685 -4.68,-2.178c-2.891,-0.941 -5.435,-0.644 -6.948,0.892c-1.297,1.316 -1.644,3.416 -0.979,5.806c0.029,0.103 0.059,0.207 0.092,0.312c-0.802,0.144 -1.495,0.557 -2.048,1.209c-0.505,0.593 -0.906,1.785 -0.689,3.346c0.298,2.141 1.652,5.572 1.821,6.199c0.378,1.404 0.77,2.815 1.186,4.225c-0.181,0.032 -0.347,0.086 -0.496,0.149c-0.503,0.21 -0.926,0.572 -1.194,1.164c-0.075,0.165 -0.476,0.906 0.087,2.093c0.389,0.821 0.849,1.6 1.345,2.358c0.535,0.816 1.112,1.606 1.671,2.406c0.05,0.105 0.098,0.209 0.146,0.316c0.312,0.693 0.61,1.467 1.137,2.801c1.715,4.344 3.392,11.816 6.28,17.368c1.544,2.968 3.448,5.41 5.76,6.817c0.722,0.44 1.379,0.425 1.939,0.251c0.546,-0.17 1.158,-0.558 1.514,-1.403c0.347,-0.823 0.213,-3.815 0.193,-4.06c-0.146,-1.776 -1.084,-4.545 -1.563,-7.115l2.988,3.837c2.15,2.622 5.36,7.551 8.86,10.802c1.938,1.8 3.992,3.098 5.998,3.52c1.47,0.31 2.955,-0.337 3.179,-2.726c0.019,-0.198 0.024,-0.426 0.016,-0.677l1.537,2.757c1.042,1.81 3.665,6.559 6.62,9.007c1.963,1.627 4.106,2.295 6.129,1.607c1.017,-0.346 1.745,-1.179 2.036,-2.392c0.166,-0.692 0.158,-1.558 0.093,-2.3c1.904,2.856 4.124,5.301 6.672,6.712c1.596,0.884 2.803,0.704 3.664,0.229c0.706,-0.388 1.287,-1.069 1.631,-2.039c0.825,-2.328 0.006,-7.18 -0.199,-7.998l-2.021,-6.713c2.105,3.046 4.169,6.132 6.312,9.158c1.468,2.074 2.973,4.12 4.552,6.108c0.538,0.677 1.879,2.606 3.319,3.52c1.127,0.716 2.328,0.927 3.46,0.528c1.108,-0.39 1.89,-1.386 2.134,-2.83c0.253,-1.5 -0.134,-3.628 -0.321,-4.431l-0.179,-0.738c0.788,1.01 1.624,1.984 2.515,2.915c0.66,0.69 2.638,2.854 4.506,3.775c1.457,0.718 2.896,0.764 4.066,0.075c0.611,-0.359 1.234,-1.182 1.203,-2.468c-0.023,-0.967 -0.47,-2.486 -0.684,-3.149c1.747,0.966 3.459,1.278 4.83,0.81c0.922,-0.314 1.674,-1.141 1.785,-2.534c0.107,-1.359 -0.623,-3.779 -0.754,-4.243l-0.037,-0.123c0.393,0.377 0.799,0.736 1.219,1.072c1.297,1.039 2.308,0.463 2.715,0.181c0.447,-0.309 0.966,-0.878 0.924,-1.901c-0.023,-0.591 -1.094,-2.942 -1.546,-3.893c-0.245,-0.515 -1.036,-1.713 -1.891,-3.094c0.876,0.848 1.711,1.731 2.526,2.632c2.629,2.908 5.05,5.995 7.824,8.78c0.505,0.506 2.438,2.366 4.042,2.842c1.533,0.455 2.904,0.127 3.862,-1.307c0.325,-0.487 0.574,-1.342 0.565,-2.361c-0.01,-1.187 -0.302,-2.694 -0.437,-3.244l-0.012,-0.046c0.57,0.726 1.162,1.386 1.675,1.689c0.689,0.406 1.368,0.502 1.974,0.403c0.669,-0.11 1.343,-0.444 1.884,-1.254c0.383,-0.573 0.604,-1.449 0.441,-2.511c-0.145,-0.941 -0.647,-2.181 -1.057,-3.11l0.15,-0.008c0.887,-0.065 1.709,-0.523 2.176,-1.609c0.455,-1.061 0.162,-4.239 0.073,-4.818c-0.228,-1.475 -0.8,-3.108 -1.471,-4.797c1.343,1.517 2.865,3.012 4.342,3.951c2.749,1.749 5.409,1.829 7.423,-0.394c0.652,-0.72 1.063,-1.873 1.091,-3.244c0.022,-1.082 -0.18,-2.337 -0.404,-3.364c1.293,0.369 2.596,0.313 3.847,-0.248c1.008,-0.451 1.713,-1.345 1.95,-2.649c0.166,-0.911 -0.002,-2.182 -0.236,-3.296c0.381,-0.197 0.73,-0.494 1.041,-0.898c0.328,-0.426 0.593,-1.043 0.727,-1.807c1.065,-0.403 1.78,-1.17 2.172,-2.118c0.864,-2.086 0.401,-4.811 -1.402,-7.468c-0.092,-0.136 -0.187,-0.271 -0.286,-0.406c0.191,-0.167 0.355,-0.356 0.498,-0.55c0.332,-0.453 0.61,-1.126 0.544,-2.023c-0.059,-0.808 -0.797,-2.474 -1.066,-3.314l-0.881,-2.784c0.103,-0.01 0.207,-0.026 0.311,-0.046c1.212,-0.23 2.543,-1.329 2.803,-3.538c0.24,-2.048 -0.412,-5.773 -0.511,-6.402c-0.437,-2.758 -1.131,-5.389 -1.97,-7.955c-0.34,-1.04 -0.705,-2.068 -1.087,-3.091c0.876,0.849 1.781,1.648 2.671,2.308c2.598,1.927 5.253,2.607 7.234,1.901c1.177,-0.419 2.014,-1.336 2.046,-2.924c0.009,-0.438 -0.097,-1.059 -0.336,-1.733c1.299,-0.017 2.521,-0.31 3.615,-0.914c1.539,-0.85 2.181,-2.254 1.919,-4.07c-0.155,-1.08 -0.97,-2.514 -1.752,-3.681c0.219,-0.071 0.43,-0.156 0.633,-0.252c0.987,-0.467 1.528,-1.211 1.781,-2.105c0.173,-0.608 0.206,-1.396 -0.14,-2.294l-0.029,-0.066c1.24,-0.182 2.396,-0.564 3.429,-1.168c1.654,-0.967 2.305,-2.477 2.083,-4.355c-0.121,-1.024 -0.64,-2.277 -1.378,-3.45c-0.916,-1.458 -2.14,-2.818 -2.355,-3.085c-0.497,-0.618 -1.065,-1.298 -1.692,-2.019c1.248,-0.13 2.376,-0.473 3.324,-1.038c1.343,-0.801 1.952,-2.017 1.819,-3.605c-0.067,-0.799 -0.509,-1.952 -1.343,-3.073c-0.562,-0.755 -1.308,-1.553 -1.906,-2.152c0.728,-0.26 1.367,-0.631 1.894,-1.104c0.842,-0.754 1.441,-1.972 1.17,-3.584c-0.048,-0.282 -0.148,-0.604 -0.275,-0.933c1.056,-0.425 1.814,-1.21 2.257,-2.16c0.672,-1.438 0.614,-3.28 -0.513,-5.195c-1.547,-2.629 -5.823,-5.877 -6.94,-6.719l-2.831,-1.849c-0.357,-0.203 -1.126,-0.694 -1.523,-0.877c-0.443,-0.204 -0.824,-0.292 -1.078,-0.332c-1.645,-0.258 -2.646,0.51 -3.223,1.172c-0.512,0.586 -1.68,2.065 -0.276,4.285c0.168,0.264 0.36,0.508 0.572,0.735c0.086,0.092 0.178,0.178 0.275,0.261Zm-119.819,54.797c0.593,0.865 1.415,2.018 2.113,2.827c1.274,0.617 3.512,1.731 4.451,2.411c1.686,1.22 1.502,2.869 1.286,3.442c-0.363,0.964 -1.47,2.212 -3.568,1.588c-1.267,-0.377 -4.39,-2.457 -4.435,-2.49c-0.299,-0.222 -0.641,-0.511 -1.006,-0.85l-3.813,-1.705l-1.52,-0.224c-0.233,-0.02 -0.495,-0.011 -0.71,0.006c0.121,0.398 0.328,1.008 0.569,1.412l0.071,0.112l0.076,0.044l3.609,2.21c0.404,0.271 1.294,0.763 1.615,1.086c0.563,0.568 0.747,1.184 0.794,1.652c0.097,0.963 -0.105,2.126 -1.759,2.726c-1.315,0.477 -3.131,0.19 -4.893,-1.036c-1.054,-0.732 -2.115,-1.799 -3,-2.98c-1.166,-0.681 -2.831,-1.623 -4.522,-2.349c-0.915,-0.393 -1.834,-0.727 -2.666,-0.878c-0.096,-0.017 -0.206,-0.029 -0.318,-0.036l0.095,0.222l0.137,0.302l0.548,0.381c0.23,0.159 2.866,2.422 3.825,3.394c2.062,2.089 -0.328,4.338 -0.738,4.462c-1.007,0.303 -2.242,0.169 -3.505,-0.555c-1.185,-0.68 -2.488,-1.962 -3.515,-3.441c-0.26,-0.375 -0.502,-0.763 -0.721,-1.154c-1.232,-0.841 -2.842,-1.88 -4.495,-2.733c-1.269,-0.655 -2.555,-1.214 -3.677,-1.392c-0.303,-0.047 -0.584,-0.184 -0.783,-0.084c-0.002,0.148 -0.001,0.521 0.048,0.766c0.145,0.732 0.456,1.528 0.824,2.315c0.59,1.264 1.33,2.496 1.941,3.444c1.329,1.251 2.412,2.436 2.778,2.822c0.127,0.133 2.264,2.264 2.74,3.311c0.476,1.048 0.277,1.927 -0.027,2.491c-0.508,0.94 -1.226,1.301 -1.925,1.432c-0.594,0.11 -1.286,0.036 -1.996,-0.387c-0.755,-0.451 -1.841,-1.971 -2.461,-2.71l-2.089,-2.806c-0.207,-0.302 -0.531,-0.776 -0.914,-1.367c-0.234,-0.211 -0.473,-0.418 -0.714,-0.616l-0.043,-0.035c0.441,1.539 0.951,3.328 1.041,3.667c1.114,4.193 2.347,8.457 3.957,12.551c0.612,1.559 1.28,3.093 2.017,4.587l0.476,0.707c0.388,0.633 1.215,2.27 1.419,2.743c0.55,1.279 -0.081,2.173 -0.152,2.281c-0.34,0.519 -0.776,0.858 -1.323,0.985c0.642,2.004 1.351,4.052 2.17,5.971c0.437,1.022 0.899,2.01 1.403,2.924c-0.401,-1.583 -0.865,-3.322 -1.049,-4.899c-0.22,-1.882 -0.052,-3.582 0.606,-4.837c0.516,-0.982 1.37,-1.465 2.588,-1.262c0.443,0.074 1.093,0.349 1.729,0.826c0.866,0.65 1.828,1.679 1.877,1.736l4.138,5.338c1.791,2.195 4.325,6.071 7.16,9.118c0.912,0.979 1.84,1.886 2.785,2.57c-0.499,-2.712 -1.268,-6.973 -1.304,-7.605c-0.043,-0.738 -0.357,-2.168 -0.23,-2.812c0.137,-0.695 0.486,-1.173 0.883,-1.488c0.519,-0.411 1.225,-0.701 2.224,-0.396c0.618,0.189 1.349,0.712 1.931,1.619c0.88,1.371 1.634,4.012 1.739,4.248l1.941,4.109l2.754,4.97c0.792,1.382 2.575,4.742 4.731,7.02c0.578,0.611 1.175,1.142 1.796,1.481c0.161,0.088 0.321,0.167 0.481,0.22c-0.019,-0.442 -0.05,-0.99 -0.089,-1.189c-0.239,-1.232 -0.578,-2.456 -0.968,-3.674c-0.962,-3.006 -2.219,-5.977 -3.137,-8.928l-0.97,-3.31c-0.112,-0.575 -0.346,-1.722 -0.255,-2.239c0.114,-0.648 0.434,-1.094 0.792,-1.39c0.489,-0.404 1.158,-0.698 2.115,-0.401c0.502,0.156 1.328,0.753 1.979,1.866c0.938,1.603 2.028,4.629 2.061,4.695c1.606,3.198 3.52,7.675 5.992,11.44c1.388,2.115 2.938,4.01 4.753,5.205c-0.051,-1.435 -0.168,-4.433 -0.277,-4.869l-2.409,-8.037c-0.562,-1.689 -1.721,-3.952 -2.316,-6.086c-0.335,-1.203 -0.502,-2.376 -0.41,-3.435c0.088,-1.032 0.664,-1.568 1.497,-1.795c0.27,-0.073 0.854,-0.208 1.578,0.211c0.096,0.056 0.306,0.199 0.566,0.434c0.65,0.588 2.208,2.197 2.27,2.275l4.424,6.286c2.126,3.078 4.208,6.198 6.371,9.257c1.424,2.013 2.883,4.001 4.414,5.931c0.235,0.296 1.01,1.135 1.636,1.803c-0.042,-0.643 -0.098,-1.32 -0.158,-1.577c-0.475,-2.035 -1.09,-4.047 -1.768,-6.042c-1.045,-3.073 -2.238,-6.107 -3.319,-9.131c-0.091,-0.254 -0.789,-1.699 -1.064,-2.935c-0.194,-0.873 -0.179,-1.687 0.009,-2.276c0.332,-1.039 0.995,-1.356 1.404,-1.495c0.619,-0.211 1.308,-0.186 1.99,0.343c0.212,0.165 0.498,0.463 0.735,0.929c0.306,0.603 0.683,2.009 0.962,2.614l1.341,2.815c1.495,2.94 3.071,5.865 4.92,8.597c1.201,1.773 2.519,3.465 4.01,5.02c0.366,0.382 1.222,1.356 2.213,2.158c-0.587,-1.516 -1.347,-2.931 -2.208,-4.286c-0.902,-1.419 -1.915,-2.771 -2.967,-4.097c-0.641,-0.81 -1.784,-1.412 -2.45,-2.195c-0.648,-0.762 -1.026,-1.625 -1.026,-2.63c-0,-1.064 0.554,-1.53 0.888,-1.767c0.525,-0.373 1.191,-0.558 2,-0.229c0.208,0.084 0.51,0.249 0.812,0.563c0.189,0.197 0.495,0.7 0.689,0.888l3.311,3.027c1.094,0.97 3.31,3.453 5.579,5.164c0.509,0.384 1.018,0.726 1.515,0.983c-0.133,-0.617 -0.269,-1.232 -0.31,-1.375c-0.342,-1.209 -0.852,-2.37 -1.439,-3.5c-0.951,-1.831 -2.101,-3.583 -3.15,-5.31c-0.591,-0.974 -1.557,-1.97 -2.013,-3.01c-0.381,-0.87 -0.51,-1.769 -0.293,-2.698c0.391,-1.682 1.469,-1.998 2.402,-1.966c0.457,0.015 1.068,0.187 1.68,0.7c0.403,0.339 0.912,1.001 1.418,1.686c-0.009,-0.789 0.175,-1.423 0.46,-1.829c0.487,-0.692 1.557,-1.369 3.125,-0.711c1.516,0.637 4.94,3.669 5.156,3.865c1.287,1.171 2.489,2.416 3.651,3.696c2.589,2.851 4.97,5.885 7.701,8.614c0.126,0.127 0.563,0.473 1.019,0.825c-0.043,-0.386 -0.09,-0.726 -0.127,-0.874c-0.463,-1.865 -1.059,-3.714 -1.738,-5.539c-1.036,-2.788 -2.264,-5.52 -3.512,-8.166l-1.524,-2.987c-0.324,-0.643 -1.187,-2.171 -1.239,-2.567c-0.137,-1.044 0.354,-1.67 0.816,-2.034c0.375,-0.297 1.262,-0.909 2.592,-0.116c0.284,0.169 0.593,0.425 0.903,0.756c-0.246,-0.499 -0.482,-1.001 -0.709,-1.507c-0.519,-1.155 -0.063,-1.853 0.003,-1.987c0.291,-0.585 0.735,-0.925 1.256,-1.107c0.426,-0.148 1.053,-0.256 1.799,0.154c0.12,0.066 0.413,0.234 0.717,0.62c0.171,0.219 0.714,1.076 0.955,1.409l2.2,3.256c0.859,1.363 2.288,4.713 4.04,7.247c0.117,0.169 0.235,0.334 0.355,0.494c-0.62,-3.017 -2.65,-6.63 -3.724,-9.988c-0.664,-2.077 -0.991,-4.078 -0.737,-5.857c0.143,-0.998 0.684,-1.439 1.055,-1.681c0.58,-0.377 1.253,-0.509 2.023,-0.245c0.285,0.097 0.693,0.303 1.076,0.735c0.233,0.265 0.603,0.938 0.818,1.22l2.178,2.982c0.655,0.856 2.693,3.824 5.015,6.114c0.874,0.862 1.779,1.631 2.663,2.069c0.315,0.156 0.616,0.341 0.871,0.23c-0.061,-0.564 -0.359,-3.21 -0.566,-3.9c-0.509,-1.706 -1.114,-3.538 -1.826,-5.372c-1.531,-2.076 -2.768,-4.197 -3.435,-5.264c-0.4,-0.64 -0.718,-1.182 -0.996,-1.728c-0.304,-0.595 -0.563,-1.194 -0.822,-1.918c-0.181,-0.506 -0.467,-1.798 -0.444,-2.108c0.033,-0.446 0.159,-0.798 0.326,-1.074c-0.778,-0.845 -1.56,-1.686 -2.354,-2.514l-0.003,-0.004c-0.558,0.96 -1.517,1.603 -2.81,1.861c-1.478,0.294 -3.681,-0.255 -4.507,-0.697c-0.77,-0.413 -1.906,-1.322 -3.016,-2.461c-0.306,0.083 -0.659,0.132 -1.065,0.133c-2.115,0.005 -4.538,-1.003 -6.903,-2.709c-1.627,-1.174 -3.258,-2.681 -4.756,-4.201c-0.245,0.447 -0.637,0.874 -1.247,1.24c-0.736,0.443 -1.821,0.682 -3.109,0.45c-1.788,-0.321 -4.45,-1.798 -4.816,-1.981c-1.867,-0.931 -3.694,-1.917 -5.467,-2.99c-1.806,-1.092 -3.554,-2.276 -5.231,-3.584c-0.069,-0.054 -2.234,-1.858 -3.689,-3.446c-0.611,-0.669 -1.095,-1.34 -1.411,-1.91c-0.275,-0.154 -0.551,-0.306 -0.827,-0.456c-2.309,-1.258 -4.665,-2.4 -7.085,-3.286c-0.319,-0.117 -1.146,-0.255 -1.872,-0.36c0.29,0.499 0.607,0.935 0.818,1.228c0.149,0.205 0.301,0.408 0.456,0.609c1.43,1.035 2.766,2.022 3.974,2.854l7.062,4.918c0.686,0.533 2.122,1.632 2.571,2.301c0.525,0.782 0.609,1.54 0.546,2.12c-0.114,1.028 -0.594,2.161 -2.348,2.585c-1.001,0.242 -2.153,0.116 -3.312,-0.359c-1.431,-0.587 -2.937,-1.801 -3.767,-2.391c-1.797,-1.279 -3.555,-2.684 -5.193,-4.215c-1.404,-1.312 -2.718,-2.718 -3.893,-4.216c-2.297,-1.66 -4.802,-3.354 -7.383,-4.633c-1.058,-0.525 -2.128,-0.984 -3.198,-1.324l3.876,2.329c0.951,0.623 2.673,2.205 3.154,3.178c0.616,1.246 0.372,2.323 -0.125,3.081c-0.352,0.537 -0.917,1.069 -1.923,1.289c-2.11,0.462 -4.376,0.029 -6.495,-1.001c-2.697,-1.31 -5.141,-3.591 -6.568,-5.618c-0.43,-0.611 -0.859,-1.509 -1.159,-2.482c-1.163,-0.63 -2.348,-1.228 -3.555,-1.757c-1.81,-0.793 -3.666,-1.429 -5.569,-1.728Zm102.066,40.385l0.266,0.322c0.74,0.876 1.526,1.674 2.344,2.201c0.166,0.107 0.329,0.211 0.493,0.291c-0.115,-0.575 -0.262,-1.295 -0.376,-1.793l-0.033,0.001c-0.574,-0.001 -1.504,-0.171 -2.503,-0.878l-0.191,-0.144Zm-34.83,-29.588c0.945,1.076 2.127,2.439 3.435,3.812l5.011,3.27l0.07,0.042c0.094,-0.408 0.241,-0.791 0.437,-1.147c-0.387,-0.331 -0.779,-0.655 -1.176,-0.973c-2.226,-1.783 -4.607,-3.366 -7.172,-4.69l-0.605,-0.314Z" style="fill-opacity:0.85"/><g id="Ojos"><path d="M83.376,171.56c-0.082,0.073 -0.226,3.096 -1.451,4.82c-2.492,3.509 -7.069,6.384 -11.112,7.639c-9.742,3.026 -23.139,0.795 -27.811,-9.238c-1.068,-2.295 -1.182,-4.355 -1.418,-6.839c-0.239,-2.515 -0.207,-4.817 0.381,-7.315c3.01,-12.805 14.006,-21.724 26.774,-23.887c4.465,-0.757 9.765,-0.766 13.864,1.523c2.445,1.367 5.681,3.18 7.492,5.391c3.887,4.744 1.197,11.442 -1.46,15.906c-1.384,2.326 -4.847,11.639 -5.259,12Z" style="fill:#fff"/><path d="M85.295,172.186c0.153,-0.273 0.321,-0.606 0.49,-0.996c1.116,-2.586 3.486,-8.787 4.569,-10.607c1.439,-2.418 2.87,-5.449 3.432,-8.51c0.624,-3.401 0.196,-6.83 -2.144,-9.686c-1.957,-2.39 -5.421,-4.393 -8.064,-5.87c-4.488,-2.507 -10.283,-2.578 -15.173,-1.749c-13.555,2.296 -25.191,11.807 -28.387,25.401c-0.64,2.719 -0.686,5.225 -0.425,7.962c0.259,2.725 0.424,4.977 1.596,7.494c5.09,10.931 19.604,13.601 30.217,10.304c4.428,-1.374 9.421,-4.548 12.15,-8.391c1.127,-1.586 1.626,-4.58 1.739,-5.352Zm-3.536,-1.806c-0.148,0.205 -0.308,0.513 -0.382,0.952c-0.078,0.458 -0.179,2.618 -1.082,3.89c-2.256,3.176 -6.416,5.751 -10.075,6.887c-8.872,2.756 -21.15,0.965 -25.405,-8.173c-0.965,-2.071 -1.027,-3.94 -1.24,-6.183c-0.218,-2.292 -0.199,-4.392 0.336,-6.668c2.826,-12.016 13.181,-20.344 25.162,-22.373c4.041,-0.685 8.845,-0.775 12.554,1.297c2.249,1.257 5.256,2.879 6.921,4.913c1.547,1.888 1.717,4.18 1.304,6.429c-0.476,2.59 -1.718,5.14 -2.936,7.186c-1.262,2.121 -4.243,9.97 -5.128,11.787l-0.029,0.056Zm2.943,2.677l-0.005,0.006l0.005,-0.006l0,0Z" style="fill-opacity:0.85"/><path d="M110.425,156.627c-0.277,-0.333 0.398,-0.792 0.635,-1.085c0.943,-1.17 1.999,-2.289 2.984,-3.43c4.039,-4.676 8.496,-9.482 14.986,-10.229c5.513,-0.634 10.152,3.211 13.503,7.143c1.526,1.79 2.401,3.675 3.535,5.715c0.629,1.131 1.568,2.245 1.884,3.524c0.606,2.456 0.421,5.067 0.127,7.544c-0.666,5.59 -1.032,11.958 -4.995,16.344c-2.202,2.437 -5.815,3.211 -8.848,3.791c-9.013,1.723 -19.414,0.963 -24.531,-7.677c-2.023,-3.415 -2.296,-6.87 -2.54,-10.743c-0.111,-1.774 -0.216,-4.077 0.551,-5.754c0.979,-2.14 3.162,-3.795 3.936,-5.981c0.174,-0.489 0.348,-0.946 0.614,-1.39c0.028,-0.047 0.451,-0.638 0.403,-0.667c-0.156,-0.093 -0.544,0.427 -0.614,0.514" style="fill:#fff"/><path d="M111.294,152.205c-0.346,0.284 -0.707,0.675 -0.796,0.786c-0.104,0.129 -0.189,0.266 -0.256,0.409c-0.244,0.285 -0.484,0.571 -0.717,0.86c-0.095,0.101 -0.79,0.849 -0.959,1.232c-0.262,0.594 -0.303,1.17 -0.095,1.716c-0.09,0.113 -0.181,0.225 -0.271,0.338c-0.869,1.085 -1.747,2.177 -2.303,3.392c-0.896,1.959 -0.858,4.64 -0.728,6.711c0.264,4.201 0.622,7.933 2.815,11.637c5.572,9.408 16.814,10.498 26.628,8.622c3.431,-0.656 7.465,-1.657 9.956,-4.414c4.242,-4.696 4.784,-11.465 5.497,-17.449c0.322,-2.712 0.492,-5.57 -0.172,-8.259c-0.357,-1.447 -1.366,-2.736 -2.077,-4.017c-1.201,-2.16 -2.145,-4.145 -3.761,-6.04c-3.761,-4.414 -9.065,-8.544 -15.254,-7.833c-7.006,0.806 -11.909,5.86 -16.271,10.909c-0.404,0.469 -0.821,0.934 -1.236,1.4Zm3.061,2.575c-0.188,0.336 -0.416,0.715 -0.416,0.715c-0,0 0.037,-0.058 0.044,-0.07c-0.197,0.329 -0.317,0.67 -0.446,1.032c-0.46,1.298 -1.307,2.457 -2.216,3.59c-0.66,0.825 -1.364,1.631 -1.786,2.555c-0.639,1.396 -0.466,3.32 -0.374,4.796c0.223,3.546 0.413,6.723 2.265,9.85c4.662,7.873 14.221,8.301 22.435,6.731c2.634,-0.504 5.826,-1.049 7.739,-3.167c3.684,-4.078 3.874,-10.043 4.493,-15.24c0.266,-2.241 0.465,-4.605 -0.083,-6.828c-0.274,-1.11 -1.144,-2.049 -1.69,-3.031c-1.068,-1.921 -1.873,-3.705 -3.309,-5.389c-2.941,-3.452 -6.914,-7.01 -11.753,-6.454c-5.973,0.687 -9.982,5.246 -13.701,9.55c-0.393,0.455 -0.798,0.907 -1.202,1.36Z" style="fill-opacity:0.85"/><path d="M55.511,150.721c-0.102,-0.136 -0.903,1.048 -1.016,1.201c-1,1.35 -2.241,2.338 -2.9,3.943c-1.538,3.742 -0.991,9.028 1.312,12.4c1.032,1.511 2.245,3.071 3.747,4.134c3.389,2.4 8.311,1.452 11.958,0.457c1.071,-0.292 2.483,-0.088 3.472,-0.571c2.542,-1.243 4.317,-3.279 6.222,-5.296c0.906,-0.958 2.103,-1.584 2.878,-2.667c0.557,-0.776 0.721,-1.774 1.271,-2.571c2.111,-3.062 4.287,-4.761 4.444,-8.762c0.103,-2.617 -1.605,-4.408 -3.386,-6.154c-5.744,-5.627 -16.397,-4.398 -22.774,-0.19c-1.72,1.134 -3.356,2.456 -4.869,3.81c-0.482,0.431 -1.143,0.779 -1.143,1.486"/><path d="M54.588,148.919c-0.188,0.091 -0.478,0.277 -0.77,0.594c-0.103,0.113 -0.226,0.266 -0.349,0.426l-0.037,0.044c-0.062,0.078 -0.122,0.158 -0.177,0.24c-0.175,0.238 -0.321,0.446 -0.367,0.508c-1.101,1.486 -2.418,2.608 -3.143,4.373c-1.772,4.313 -1.143,10.404 1.51,14.289c1.163,1.702 2.551,3.441 4.243,4.639c3.869,2.739 9.477,1.889 13.64,0.754c0.545,-0.149 1.195,-0.123 1.808,-0.186c0.727,-0.074 1.419,-0.226 2.016,-0.518c2.764,-1.351 4.726,-3.527 6.798,-5.719c0.967,-1.024 2.222,-1.719 3.05,-2.876c0.312,-0.435 0.546,-0.914 0.751,-1.41c0.167,-0.402 0.291,-0.829 0.54,-1.191c2.349,-3.406 4.622,-5.368 4.797,-9.819c0.126,-3.217 -1.796,-5.514 -3.986,-7.66c-2.623,-2.571 -6.129,-3.925 -9.875,-4.273c-5.37,-0.5 -11.224,1.086 -15.4,3.841c-1.781,1.176 -3.479,2.542 -5.049,3.944Zm1.001,4.826c-0.792,0.913 -1.659,1.698 -2.144,2.88c-1.304,3.173 -0.839,7.654 1.114,10.512c0.9,1.319 1.939,2.702 3.25,3.63c1.342,0.95 2.999,1.183 4.669,1.135c1.948,-0.057 3.924,-0.516 5.608,-0.975c0.548,-0.15 1.163,-0.211 1.788,-0.254c0.468,-0.032 0.953,0 1.331,-0.185c2.322,-1.134 3.908,-3.032 5.648,-4.873c0.843,-0.892 1.983,-1.448 2.705,-2.457c0.244,-0.341 0.362,-0.751 0.522,-1.141c0.201,-0.488 0.427,-0.965 0.728,-1.402c0.852,-1.235 1.713,-2.251 2.451,-3.282c0.884,-1.235 1.566,-2.492 1.642,-4.423c0.079,-2.019 -1.414,-3.3 -2.788,-4.646c-1.971,-1.932 -4.632,-2.886 -7.447,-3.147c-4.472,-0.416 -9.348,0.903 -12.826,3.197c-1.637,1.081 -3.195,2.341 -4.636,3.631c-0.137,0.123 -0.378,0.322 -0.528,0.444c-0.137,0.6 -0.544,1.097 -1.087,1.356Z" style="fill-opacity:0.85"/><path d="M115.61,161.713c-1.167,-0.42 -1.726,2.946 -1.82,3.562c-0.55,3.6 -0.112,7.499 1.947,10.63c2.356,3.582 7.13,4.54 11.091,4.362c2.213,-0.099 4.699,0.376 6.879,-0.019c5.281,-0.955 8.86,-8.193 9.948,-12.763c1.902,-7.99 -4.908,-17.873 -13.546,-17.201c-5.06,0.393 -9.841,4.316 -12.425,8.496c-0.596,0.965 -1.881,1.647 -2.37,2.533"/><path d="M113.471,160.537c-0.152,0.163 -0.296,0.349 -0.431,0.559c-0.718,1.113 -1.144,3.334 -1.227,3.877c-0.623,4.078 -0.079,8.485 2.253,12.031c2.746,4.174 8.237,5.469 12.852,5.261c2.298,-0.103 4.88,0.361 7.145,-0.048c2.553,-0.462 4.816,-2.078 6.65,-4.277c2.48,-2.974 4.177,-7.005 4.888,-9.992c1.083,-4.553 -0.268,-9.655 -3.168,-13.513c-2.952,-3.929 -7.467,-6.535 -12.479,-6.145c-5.668,0.44 -11.076,4.757 -13.971,9.438c-0.264,0.427 -0.741,0.749 -1.135,1.104c-0.532,0.48 -0.992,0.984 -1.285,1.515c-0.034,0.063 -0.065,0.126 -0.092,0.19Zm2.836,3.05c-0.167,0.578 -0.503,1.751 -0.54,1.99c-0.477,3.123 -0.145,6.513 1.641,9.229c1.968,2.991 6.023,3.612 9.331,3.463c2.126,-0.095 4.516,0.39 6.612,0.011c1.672,-0.302 3.088,-1.461 4.29,-2.902c2.072,-2.485 3.474,-5.86 4.069,-8.356c0.818,-3.438 -0.285,-7.271 -2.474,-10.184c-2.136,-2.843 -5.346,-4.842 -8.972,-4.56c-4.453,0.346 -8.605,3.876 -10.878,7.553c-0.335,0.541 -0.807,1.033 -1.317,1.49c-0.148,0.134 -0.308,0.257 -0.459,0.38c0.002,0.229 -0.036,0.462 -0.118,0.69c-0.208,0.576 -0.653,0.998 -1.185,1.196Zm-1.303,0.032l-0.072,-0.024c0.024,0.008 0.048,0.016 0.072,0.024Z" style="fill-opacity:0.85"/><path d="M119.314,159.809c-0.394,-0.429 -0.486,0.395 -0.486,0.666c-0,0.665 0.315,1.342 0.677,1.905c0.744,1.16 3.505,3.088 4.911,3.181c1.967,0.131 4.331,0.216 6.074,-0.857c1.821,-1.121 2.813,-5.186 2.561,-7.22c-0.55,-4.433 -7.241,-5.205 -9.927,-2.571c-0.663,0.65 -2.445,3.543 -3.492,3.543" style="fill:#fff"/><path d="M62.601,149.026c-0.202,-0.535 -1.547,1.686 -1.608,2.019c-0.304,1.639 0.118,4.016 1.333,5.219c2.729,2.704 8.747,1.943 10.71,-1.276c2.965,-4.86 -3.08,-6.762 -6.858,-6.762c-0.729,0 -1.472,0.015 -2.116,0.4c-0.325,0.194 -1.038,0.457 -1.038,0.457c0,-0 0.356,0.318 0.487,0.514" style="fill:#fff"/><path d="M70.856,163.904c-2.13,-1.315 -6.647,1.388 -4.996,4.076c1.345,2.188 4.126,3.585 6.753,2.572c1.251,-0.483 3.783,-2.338 3.132,-4.096c-0.409,-1.105 -2.894,-1.581 -3.894,-1.581c-0.229,-0 -1.503,0.096 -1.503,-0.134" style="fill:#fff"/><path d="M116.087,175.963c-0.063,-0.362 -0.805,0.938 -0.907,1.145c-0.463,0.932 -0.382,1.899 -0.382,2.912c-0,2.145 1.928,5.561 3.622,6.829c3.019,2.26 5.401,2.92 8.886,3.894c2.365,0.661 7.008,0.658 8.955,2.091c0.997,0.734 2.715,0.899 3.272,2.149c0.442,0.994 0.104,3.078 0.047,4.138c-0.147,2.753 1.563,10.675 -3.721,12.933c-5.003,2.138 -17.026,-1.327 -16.814,-0.867c1.417,3.075 6.244,7.045 10.55,8.872c11.901,5.05 53.728,14.696 53.262,7.175c-0.414,-6.701 10.18,-10.711 10.8,-11.987c0.738,-1.519 -24.248,4.965 -37.013,0.591c-7.754,-2.657 -6.076,-16.794 -5.556,-17.641c1.076,-1.75 17.237,-2.684 18.011,-4.641c0.718,-1.815 18.881,-6.744 18.092,-11.775c-0.097,-0.619 -36.798,4.426 -38.715,4.656c-5.109,0.611 -11.142,-2.658 -15.748,-4.509c-3.292,-1.324 -6.843,-2.753 -9.765,-4.72c-1.324,-0.892 -2.319,-2.108 -3.677,-2.953c-1.174,-0.73 -3.868,-1.675 -3.868,0.141" style="fill:#b0d6e3"/><path d="M112.097,175.499l-0.034,0.061c-0.353,0.734 -0.561,1.469 -0.652,2.224c-0.088,0.727 -0.065,1.471 -0.056,2.236c0.019,1.533 0.622,3.545 1.637,5.363c0.969,1.736 2.257,3.292 3.424,4.143c1.392,1.015 2.663,1.751 3.943,2.331c1.871,0.848 3.746,1.368 6.08,1.989c1.46,0.389 3.732,0.551 5.787,0.896c0.859,0.144 1.687,0.231 2.193,0.594c0.592,0.425 1.594,1.543 2.231,1.519c-0.024,0.701 -0.059,1.667 -0.077,2.105c-0.061,1.426 0.432,4.274 0.105,6.961c-0.172,1.416 -0.505,2.878 -1.94,3.51c-1.21,0.533 -2.957,0.581 -4.781,0.502c-3.277,-0.143 -6.776,-0.817 -8.749,-1.173c-0.927,-0.168 -1.598,-0.268 -1.902,-0.278c-2.021,-0.067 -2.645,1.379 -2.798,1.865c-0.177,0.568 -0.229,1.227 0.117,1.956c0.761,1.605 2.265,3.447 4.202,5.145c2.273,1.993 5.121,3.832 7.784,4.932c8.327,3.456 30.966,8.99 44.229,9.694c4.6,0.244 8.175,-0.173 9.965,-1.208c1.558,-0.901 2.263,-2.179 2.157,-3.762c-0.116,-1.723 0.841,-3.172 2.044,-4.42c2.313,-2.398 5.608,-4.075 7.059,-5.076c0.812,-0.559 1.263,-1.113 1.434,-1.465c0.384,-0.795 0.263,-1.473 -0.076,-2.044c-0.226,-0.382 -0.689,-0.924 -1.663,-1.083c-0.573,-0.093 -1.973,-0.001 -3.955,0.262c-7.06,0.94 -23.145,3.795 -32.482,0.579c-2.009,-0.703 -3.077,-2.503 -3.72,-4.486c-0.965,-2.972 -0.933,-6.438 -0.725,-8.623c0.035,-0.374 0.095,-0.771 0.148,-1.089c0.425,-0.131 1.099,-0.328 1.663,-0.447c3.959,-0.832 10.499,-1.528 13.546,-2.484c1.369,-0.429 2.25,-1.107 2.726,-1.712c0.199,-0.108 1.233,-0.659 2.164,-1.067c3.777,-1.651 9.945,-3.985 13.344,-6.53c2.484,-1.86 3.574,-4.063 3.285,-6.04c-0.051,-0.352 -0.599,-2.228 -2.944,-2.249c-0.629,-0.005 -1.957,0.087 -3.767,0.254c-9.527,0.879 -33.391,3.871 -34.928,4.037c-1.679,0.181 -3.467,-0.217 -5.257,-0.786c-3.15,-1.001 -6.275,-2.607 -8.923,-3.709c-1.886,-0.786 -3.86,-1.609 -5.738,-2.556c-1.175,-0.593 -2.307,-1.24 -3.349,-1.962l-3.746,-3.072c-1.379,-0.882 -4.013,-1.67 -5.612,-1.362c-1.159,0.222 -2.056,0.834 -2.707,1.699c-0.495,0.659 -0.848,1.537 -0.865,2.723c0,0.386 0.063,0.757 0.179,1.103Zm6.68,2.701c-0.144,0.174 -0.305,0.334 -0.481,0.477l-0.055,1.343c-0.008,0.614 0.329,1.391 0.717,2.129c0.431,0.818 0.934,1.614 1.466,2.023c1.225,0.94 2.317,1.567 3.464,2.05c1.306,0.549 2.667,0.943 4.285,1.417c1.555,0.456 4.133,0.617 6.219,1.121c1.494,0.361 2.8,0.883 3.711,1.572c0.312,0.236 0.752,0.352 1.147,0.536c0.705,0.33 1.364,0.718 1.895,1.219c0.489,0.463 0.899,0.999 1.181,1.652c0.268,0.621 0.447,1.446 0.468,2.365c0.026,1.094 -0.156,2.393 -0.207,3.178c-0.142,2.195 0.588,7.359 -1.104,10.991c-0.884,1.899 -2.288,3.487 -4.503,4.405c-1.496,0.62 -3.477,0.903 -5.638,0.881c-1.675,-0.017 -3.472,-0.2 -5.176,-0.445c1.407,1.053 2.941,1.983 4.414,2.624c6.001,2.606 19.786,6.476 31.702,8.595c7.023,1.249 13.376,1.924 16.977,1.286c0.575,-0.102 1.239,-0.375 1.484,-0.481c-0.065,-2.173 0.72,-4.133 2.004,-5.854c0.95,-1.273 2.188,-2.409 3.47,-3.399c-2.099,0.29 -4.509,0.609 -7.068,0.882c-7.788,0.831 -16.9,1.184 -23.184,-0.947c-3.318,-1.113 -5.337,-3.851 -6.437,-7.097c-1.437,-4.237 -1.241,-9.329 -0.905,-11.689c0.155,-1.088 0.437,-1.784 0.57,-2.002c0.25,-0.414 0.737,-0.905 1.55,-1.292c0.726,-0.346 1.918,-0.688 3.377,-1.004c3.441,-0.743 8.61,-1.424 11.73,-2.235c0.562,-0.146 1.247,-0.409 1.485,-0.503c0.48,-0.551 1.314,-1.229 2.531,-1.839c2.58,-1.295 7.43,-3.131 11.093,-5.215c-10.633,1.329 -30.719,4.324 -32.122,4.508c-2.471,0.326 -5.135,-0.08 -7.795,-0.855c-3.35,-0.977 -6.698,-2.572 -9.521,-3.668c-2.048,-0.794 -4.19,-1.631 -6.236,-2.597c-1.473,-0.696 -2.893,-1.465 -4.207,-2.325l-2.301,-1.807Zm-5.284,0.11c-0.432,-0.474 -0.737,-1.073 -0.855,-1.751c0.13,0.814 0.47,1.361 0.855,1.751Z" style="fill:#b0d6e3"/><path d="M46.279,184.562c-1.801,-2.496 -5.975,-13.566 -4.098,-13.157c2.802,0.612 7.886,4.157 12.496,6.206c3.881,1.725 7.313,0.967 9.693,1.377c1.8,0.311 17.406,-4.849 19.191,-4.429c1.957,0.461 -1.483,6.297 -1.932,7.513c-0.301,0.815 -10.824,6.938 -15.331,13.137c-0.906,1.246 0.096,6.503 -0.078,11.82c-0.211,6.452 25.508,6.558 24.417,9.323c-1.082,2.741 -24.846,0.165 -32.557,-2.867c-2.178,-0.857 -7.043,-2.722 -7.855,-5.109c-0.463,-1.361 2.251,-1.865 2.418,-4.642c0.276,-4.585 -2.241,-13.279 -3.463,-14.572c-1.263,-1.337 -1.844,-3.135 -2.901,-4.6Z" style="fill:#b0d6e3"/><path d="M46.615,191.364c0.112,0.212 0.436,0.839 0.643,1.37c0.587,1.507 1.215,3.554 1.669,5.611c0.416,1.885 0.722,3.77 0.665,5.206c-0.031,0.788 -0.679,1.086 -0.99,1.421c-0.645,0.697 -1.077,1.392 -1.252,2.093c-0.178,0.71 -0.207,1.453 0.086,2.261c0.455,1.25 1.472,2.508 2.937,3.531c2.076,1.45 5.059,2.581 6.7,3.188c4.828,1.805 15.638,3.384 23.745,3.713c4.518,0.184 8.24,-0.068 9.869,-0.732c1.149,-0.469 1.759,-1.185 2.016,-1.858c0.376,-0.983 0.261,-1.923 -0.512,-2.784c-0.459,-0.511 -1.492,-1.124 -3.06,-1.542c-3.727,-0.993 -11.547,-1.713 -16.856,-3.401c-1.388,-0.441 -2.586,-0.936 -3.405,-1.559c-0.326,-0.247 -0.634,-0.452 -0.623,-0.787l-0.272,-10.666c1.033,-1.395 2.404,-2.777 3.884,-4.087c3.701,-3.279 8.077,-6.096 10.053,-7.522c1.203,-0.868 1.751,-1.678 1.859,-1.958c0.363,-0.945 2.382,-4.52 2.702,-6.591c0.351,-2.276 -0.69,-3.621 -2.363,-4.043c-0.457,-0.115 -1.525,-0.106 -2.985,0.165c-3.332,0.62 -9.808,2.454 -13.909,3.395c-1.019,0.234 -2.245,0.427 -2.576,0.477c-1.563,-0.258 -3.556,-0.093 -5.806,-0.429c-0.941,-0.14 -1.937,-0.406 -2.973,-0.89c-3.354,-1.57 -6.946,-3.959 -9.71,-5.366c-1.243,-0.633 -2.368,-1.074 -3.289,-1.296c-1.189,-0.286 -2.122,0.061 -2.887,0.615c-0.712,0.516 -1.618,1.805 -1.458,3.956c0.24,3.231 3.366,11.496 4.924,13.755c0.715,0.945 1.206,2.053 1.858,3.05c0.393,0.6 0.816,1.18 1.316,1.704Zm-0.359,-14.717c2.292,1.21 4.83,2.614 7.237,3.628c1.616,0.683 3.156,1.036 4.607,1.197c2.275,0.253 4.26,-0.029 5.806,0.207c0.463,0.071 1.533,0.026 2.98,-0.313c3.301,-0.772 9.696,-2.818 13.754,-3.866c0.212,-0.055 0.432,-0.108 0.651,-0.158c-0.487,1.27 -1.204,2.633 -1.583,3.437c-0.258,0.208 -0.776,0.619 -1.273,0.983c-1.902,1.394 -4.95,3.549 -7.849,6.028c-2.268,1.938 -4.445,4.069 -5.966,6.2c-0.445,0.62 -0.776,1.842 -0.767,3.537c0.012,2.302 0.445,5.854 0.341,9.436c-0.043,1.385 0.531,2.635 1.705,3.709c1.266,1.158 3.396,2.131 5.956,2.904c1.043,0.315 2.162,0.602 3.315,0.866c-1.256,-0.162 -2.525,-0.347 -3.779,-0.548c-4.947,-0.796 -9.643,-1.868 -12.304,-2.97c-0.99,-0.412 -2.581,-1.065 -4.025,-1.888c-0.461,-0.263 -0.94,-0.506 -1.322,-0.774c0.07,-0.073 0.137,-0.145 0.197,-0.212c0.877,-0.985 1.608,-2.273 1.758,-4.132c0.215,-2.672 -0.382,-6.619 -1.203,-9.978c-0.85,-3.474 -2.138,-6.301 -2.858,-7.097l-2.517,-4.329c-0.731,-0.969 -1.932,-3.467 -2.861,-5.867Z" style="fill:#b0d6e3"/></g><g id="Brazo"><path d="M129.215,241.702c8.682,1.99 8.415,1.994 0,-0c-7.252,-1.719 -13.502,-6.047 -13.937,-6.176c-3.506,-1.043 -7.886,-6.35 -11.21,-7.913c-7.545,-3.549 -19.508,-13.167 -13.487,-20.825c0.357,-0.455 5.6,-4.954 12.41,-2.542c10.131,3.588 23.126,14.746 23.783,14.869c3.427,0.644 15.542,4.103 23.795,4.182c5.305,0.052 12.813,3.397 19.501,3.519c6.688,0.122 12.555,-2.98 14.579,-3.083c4.746,-0.241 6.978,-7.065 11.371,-8.665c8.05,-2.932 17.773,-6.254 26.422,-6.254c4.897,-0 15.546,0.202 18.865,4.937c2.537,3.619 -0.753,10.283 -3.19,12.542c-4.401,4.079 -28.149,10.473 -33.306,16.832c-5.707,7.038 -5.452,9.575 -5.938,13.544c-0.933,7.609 1.88,61.854 5.403,78.048c1.126,5.175 11.051,31.307 16.293,31.64c18.242,1.157 25.7,-22.492 34.19,-50.928c4.47,-14.971 -0.903,-31.563 6.246,-35.913c11.768,-7.159 25.76,3.437 29.977,15.171c1.624,4.519 4.938,20.801 3.858,25.538c-7.253,31.83 -29.447,61.412 -58.122,67.412c-5.438,1.138 -37.15,4.16 -43.089,-10.968c-8.675,-22.098 -1.103,-63.422 -9.078,-77.35c-8.342,-14.567 -16.796,-15.322 -18.299,-15.418c-12.076,-0.766 -29.026,-1.313 -37.297,-11.407c-0.989,-1.206 -2.138,-5.652 -0.209,-6.397c2.654,-1.024 5.44,0.479 7.878,1.103c0.847,0.216 1.678,0.409 2.511,0.667c0.594,0.268 1.24,0.516 1.462,0.399c0.405,-0.213 5.137,-0.216 4.702,-0.355l-6.164,-0.044c-0.444,-0.199 -0.858,-0.41 -1.047,-0.49c-2.477,-1.047 -5.045,-2.315 -7.32,-3.732c-2.299,-1.431 -5.201,-3.21 -7.293,-4.87c-2.229,-1.769 -4.473,-3.846 -6.43,-5.846c-3.03,-3.097 -4.804,-7.672 -6.773,-11.493c-0.67,-1.299 -1.671,-2.4 -1.953,-3.838c-0.238,-1.218 -0.981,-3.531 -0.487,-4.797c0.528,-1.352 5.497,2.388 7.446,2.725c0.56,0.177 8.021,4.82 13.937,6.176Z" style="fill:#fff"/><path d="M106.253,231.524c-0.113,0.168 -0.207,0.352 -0.284,0.549c-0.3,0.769 -0.364,1.788 -0.233,2.857c0.136,1.107 0.47,2.287 0.621,3.053c0.318,1.624 1.381,2.902 2.137,4.369c2.057,3.991 3.957,8.742 7.122,11.976c2.013,2.058 4.322,4.194 6.616,6.014c1.643,1.303 3.77,2.681 5.735,3.913c-1.191,0.484 -1.955,1.547 -2.189,3.009c-0.346,2.17 0.714,5.38 1.63,6.498c3.554,4.337 8.576,7.072 14.182,8.798c7.979,2.458 17.15,2.868 24.536,3.337c1.385,0.088 9.001,0.99 16.689,14.416c3.076,5.371 3.638,14.985 3.879,25.93c0.379,17.266 -0.203,37.716 5.073,51.157c2.607,6.641 9.617,10.277 17.619,11.951c11.271,2.357 24.38,0.947 27.742,0.244c29.368,-6.146 52.233,-36.326 59.662,-68.925c0.355,-1.559 0.321,-4.258 -0.011,-7.406c-0.724,-6.863 -2.75,-16.011 -3.915,-19.253c-2.26,-6.287 -7.138,-12.269 -13.028,-15.72c-6.128,-3.591 -13.31,-4.475 -19.87,-0.484c-3.338,2.031 -4.626,6.231 -4.957,11.799c-0.418,7.028 0.468,16.428 -2.166,25.251c-5.016,16.799 -9.612,31.922 -16.409,41.07c-4.159,5.596 -9.146,8.852 -15.739,8.434c-0.143,-0.009 -0.263,-0.146 -0.426,-0.272c-0.274,-0.211 -0.555,-0.484 -0.846,-0.806c-0.877,-0.972 -1.803,-2.339 -2.749,-3.944c-4.678,-7.938 -9.673,-21.507 -10.443,-25.047c-3.493,-16.055 -6.298,-69.836 -5.373,-77.38c0.45,-3.672 0.226,-6.015 5.507,-12.527c0.909,-1.122 2.5,-2.213 4.454,-3.321c3.257,-1.847 7.487,-3.65 11.682,-5.358c7.413,-3.017 14.688,-5.826 16.975,-7.946c1.677,-1.555 3.734,-4.912 4.461,-8.257c0.548,-2.525 0.325,-5.021 -0.993,-6.9c-1.567,-2.237 -4.459,-3.723 -7.809,-4.574c-4.426,-1.125 -9.636,-1.215 -12.693,-1.215c-8.871,-0 -18.85,3.368 -27.106,6.375c-2.49,0.906 -4.444,3.206 -6.372,5.401c-1.324,1.508 -2.568,3.052 -4.416,3.146c-0.72,0.036 -1.861,0.355 -3.305,0.833c-2.682,0.887 -6.716,2.328 -11.137,2.247c-3.196,-0.058 -6.585,-0.904 -9.813,-1.724c-3.547,-0.902 -6.918,-1.768 -9.705,-1.795c-7.866,-0.076 -19.288,-3.291 -23.086,-4.076l-0.11,-0.078c-2.73,-1.969 -14.427,-11.486 -23.734,-14.782c-8.06,-2.855 -14.226,2.652 -14.65,3.191c-2.976,3.786 -2.531,7.958 -0.167,11.884c3.059,5.08 9.549,9.717 14.375,11.986c0.944,0.444 1.97,1.216 3.037,2.102Zm23.505,36.344c-0.023,0.237 -0.056,0.699 -0.017,1.006c0.117,0.937 0.419,1.936 0.761,2.353c3.858,4.708 9.778,7.121 16.105,8.515c6.678,1.472 13.825,1.786 19.772,2.163c1.621,0.103 10.911,0.71 19.907,16.42c3.305,5.772 4.148,16.067 4.407,27.83c0.369,16.797 -0.336,36.707 4.798,49.784c2.144,5.462 8.132,8.119 14.714,9.496c10.606,2.219 22.94,0.907 26.103,0.245c27.982,-5.856 49.504,-34.839 56.582,-65.899c0.293,-1.283 0.184,-3.505 -0.089,-6.097c-0.689,-6.529 -2.593,-15.236 -3.701,-18.32c-1.958,-5.448 -6.184,-10.632 -11.286,-13.622c-4.865,-2.851 -10.562,-3.686 -15.769,-0.518c-1.041,0.634 -1.675,1.654 -2.117,2.919c-0.554,1.587 -0.796,3.523 -0.926,5.7c-0.434,7.283 0.403,17.016 -2.326,26.158c-5.173,17.325 -10.022,32.878 -17.032,42.312c-5.046,6.791 -11.201,10.547 -19.202,10.04c-0.99,-0.063 -2.15,-0.593 -3.315,-1.698c-1.214,-1.151 -2.554,-3.003 -3.899,-5.286c-4.896,-8.308 -10.1,-22.522 -10.906,-26.226c-3.553,-16.333 -6.375,-71.044 -5.434,-78.718c0.522,-4.264 0.237,-6.996 6.37,-14.56c2.71,-3.342 10.239,-6.812 17.735,-9.863c6.851,-2.789 13.65,-5.216 15.764,-7.176c1.248,-1.157 2.73,-3.682 3.271,-6.172c0.296,-1.366 0.354,-2.738 -0.359,-3.755c-1.088,-1.552 -3.195,-2.403 -5.519,-2.993c-4.081,-1.037 -8.889,-1.092 -11.708,-1.092c-8.428,-0 -17.893,3.276 -25.737,6.133c-1.042,0.379 -1.903,1.166 -2.737,2.036c-1.056,1.103 -2.044,2.357 -3.09,3.444c-1.765,1.834 -3.722,3.181 -6.127,3.304c-0.71,0.036 -1.944,0.54 -3.562,1.068c-2.941,0.96 -6.893,2.094 -11.156,2.016c-3.491,-0.063 -7.2,-0.951 -10.725,-1.847c-3.205,-0.814 -6.241,-1.646 -8.759,-1.671c-8.372,-0.081 -20.667,-3.563 -24.144,-4.217c-0.149,-0.027 -0.434,-0.098 -0.801,-0.319c-0.287,-0.173 -0.911,-0.632 -1.794,-1.304c-3.892,-2.962 -13.575,-10.523 -21.487,-13.326c-5.561,-1.969 -9.878,1.521 -10.17,1.893c-1.841,2.341 -1.347,4.921 0.115,7.349c2.679,4.45 8.423,8.441 12.651,10.43c1.788,0.841 3.883,2.659 5.979,4.436c1.715,1.454 3.408,2.911 4.95,3.37l0.011,0.004l0.022,0.006c0.023,0.007 0.057,0.021 0.101,0.043c0.221,0.098 0.653,0.321 1.243,0.674l0.096,0.057c2.322,1.293 7.002,3.856 11.201,5.064l0.075,0.021l0.062,0.017l0.499,0.133l0.516,0.127c3.927,0.9 6.032,1.396 6.39,1.487c2.791,0.707 -0.171,3.95 -0.407,3.954c-0.012,-0 -0.289,-0.055 -0.826,-0.169c0.085,0.034 0.227,0.086 0.227,0.086c-0,-0 -0.802,-0.191 -2.337,-0.549c-1.048,-0.234 -2.372,-0.538 -3.967,-0.916l-0.008,-0.002c-0.27,-0.062 -0.543,-0.131 -0.819,-0.206c-6.435,-1.704 -11.964,-5.219 -13.354,-6.027l-0.003,-0.002c-0.923,-0.259 -2.242,-0.917 -3.548,-1.617c-0.353,-0.189 -0.779,-0.397 -1.19,-0.59c0.149,0.758 0.347,1.487 0.45,2.01c0.245,1.251 1.185,2.175 1.767,3.306c1.882,3.651 3.53,8.051 6.426,11.011c1.9,1.942 4.078,3.959 6.243,5.677c2.038,1.617 4.867,3.345 7.107,4.74c2.189,1.362 4.659,2.579 7.042,3.587c0.141,0.06 0.404,0.189 0.714,0.335l5.732,0.041c0.202,0.001 0.402,0.033 0.594,0.094c1.031,0.33 1.253,1.061 1.341,1.365c0.155,0.537 0.107,1.073 -0.211,1.597c-0.129,0.212 -0.458,0.736 -1.306,0.931c-0.393,0.09 -4.106,0.266 -4.563,0.288c-0.236,0.075 -0.513,0.12 -0.832,0.107c-0.441,-0.017 -1.196,-0.242 -1.907,-0.55c-0.762,-0.231 -1.525,-0.407 -2.3,-0.605c-1.213,-0.311 -2.512,-0.84 -3.838,-1.165c-0.839,-0.205 -1.694,-0.339 -2.533,-0.105Z"/><path d="M244.276,323.535c-1.429,3.1 -9.017,10.508 -10.396,16.959c-0.733,3.431 8.592,6.375 11.198,8.251c5.374,3.868 20.861,22.464 23.787,24.042c2.14,1.154 15.519,-14.235 17.114,-16.827c6.248,-10.146 8.826,-24.225 10.562,-38.146c1.167,-9.358 -2.8,-21.56 -7.587,-29.333c-8.978,-14.582 -27.991,-22.2 -36.005,-0.668c-4.006,10.763 -3.778,25.102 -8.673,35.722Z" style="fill:#ffd78b"/><path d="M242.46,322.698c-0.682,1.479 -2.864,3.965 -5.01,6.872c-2.42,3.278 -4.784,7.034 -5.526,10.506c-0.356,1.666 0.455,3.412 2.296,4.91c2.683,2.184 7.846,4.055 9.689,5.382c3.708,2.669 12.278,12.471 18.088,18.633c2.741,2.907 4.966,5.033 5.918,5.546c0.481,0.259 1.103,0.394 1.868,0.231c0.66,-0.14 1.623,-0.618 2.731,-1.45c4.73,-3.55 13.848,-14.174 15.168,-16.319c6.382,-10.364 9.071,-24.728 10.844,-38.948c1.218,-9.766 -2.873,-22.515 -7.869,-30.629c-5.827,-9.464 -15.689,-16.012 -24.418,-14.868c-5.962,0.781 -11.612,5.006 -15.165,14.552c-2.044,5.492 -3.023,11.893 -4.1,18.279c-1.026,6.078 -2.137,12.145 -4.514,17.303l-0,-0Zm26.849,47.975c-0.936,-0.751 -2.491,-2.389 -4.402,-4.416c-5.98,-6.342 -14.845,-16.388 -18.661,-19.135c-1.582,-1.139 -5.607,-2.678 -8.417,-4.468c-0.603,-0.384 -1.141,-0.776 -1.549,-1.188c-0.13,-0.131 -0.244,-0.263 -0.335,-0.398c-0.038,-0.057 -0.084,-0.156 -0.101,-0.193c0.646,-2.969 2.757,-6.128 4.824,-8.93c2.351,-3.184 4.677,-5.953 5.424,-7.573l0,-0c2.518,-5.462 3.74,-11.875 4.826,-18.311c1.034,-6.129 1.944,-12.279 3.905,-17.55c2.859,-7.681 7.139,-11.353 11.936,-11.981c7.409,-0.971 15.546,4.965 20.492,12.999c4.577,7.434 8.422,19.089 7.306,28.037c-1.699,13.624 -4.167,27.416 -10.281,37.346c-1.083,1.76 -7.785,9.589 -12.411,13.752c-0.887,0.8 -1.69,1.458 -2.353,1.888c-0.063,0.04 -0.133,0.082 -0.203,0.121Z"/></g><g id="Lentes"><path d="M280.346,142.102c-1.034,-0.744 -3.53,-0.274 -4.726,-0.274c-3.367,0 -7.252,-0.098 -10.605,-0.599c-13.544,-2.025 -27.327,-1.451 -41.083,-1.745c-5.742,-0.122 -14.571,1.441 -20.118,-0.545" style="fill:#fff;fill-opacity:0.45"/><path d="M278.81,145.246c1.503,0.737 3.364,0.305 4.375,-1.098c1.13,-1.567 0.774,-3.757 -0.793,-4.886c-0.633,-0.405 -1.399,-0.774 -2.322,-0.89c-1.411,-0.178 -3.374,0.158 -4.45,0.216c-1.641,0.084 -3.402,0.163 -5.171,0.165c-1.719,0.002 -3.434,-0.046 -5.033,-0.207c-2.792,-0.297 -5.583,-0.463 -8.384,-0.605c-5.524,-0.28 -11.061,-0.244 -16.616,-0.325c-5.476,-0.08 -10.953,-0.34 -16.431,-0.607c-3.922,-0.274 -9.319,0.19 -14.078,-0.249c-1.813,-0.167 -3.498,-0.519 -4.914,-1.116c-1.818,-0.652 -3.823,0.296 -4.475,2.115c-0.651,1.819 0.297,3.824 2.116,4.475c2.067,0.613 4.465,0.878 7.02,0.847c4.843,-0.058 10.242,-1.014 14.225,-1.122c4.955,-0.041 9.902,-0.288 14.85,-0.297c3.278,-0.006 6.553,0.091 9.816,0.283c5.401,0.317 10.753,0.977 16.069,1.967c1.414,0.281 2.919,0.483 4.448,0.655c2.221,0.25 4.48,0.396 6.558,0.502c0.753,0.041 2.841,1.021 3.19,0.177Z"/><path d="M199.208,134.902c-0.677,0 0.969,0.947 1.394,1.473c0.727,0.902 1.224,2.077 1.757,3.109c1.809,3.497 2.545,7.533 2.545,11.453c0,11.637 -5.362,22.186 -14.118,30.05c-16.759,15.053 -39.216,19.82 -60.84,13.524c-8.808,-2.565 -16.385,-6.103 -21.269,-14.343c-3.86,-6.512 -4.054,-15.141 -3.271,-22.413c1.69,-15.716 9.649,-31.783 25.329,-37.958c11.549,-4.548 25.141,-2.674 37.085,-0.982c10.708,1.517 17.126,6.645 25.207,13.035c1.166,0.921 7.393,4.215 7.393,5.562" style="fill:#fff;fill-opacity:0.45"/><path d="M201.801,132.553c-0.641,-0.707 -1.566,-1.151 -2.593,-1.151c-0.194,0.003 -0.375,0.016 -0.546,0.04c-1.54,-0.962 -3.023,-1.82 -3.552,-2.226c-5.169,-3.969 -9.699,-7.444 -14.958,-9.894c-3.527,-1.643 -7.367,-2.851 -11.918,-3.432c-7.313,-0.939 -15.227,-1.925 -22.921,-1.553c-5.353,0.26 -10.601,1.158 -15.488,3.15c-8.286,3.359 -14.52,9.289 -18.882,16.487c-4.286,7.072 -6.776,15.361 -7.598,23.559c-0.473,4.537 -0.562,9.576 0.286,14.347c0.589,3.315 1.626,6.503 3.296,9.326c2.61,4.429 5.951,7.592 9.811,10.009c3.755,2.352 8.016,3.987 12.609,5.354c11.152,3.348 22.539,3.802 33.33,1.551c10.877,-2.27 21.15,-7.312 29.976,-15.055c4.693,-4.109 8.478,-8.953 11.144,-14.293c2.737,-5.483 4.266,-11.501 4.354,-17.835c0.031,-2.186 -0.155,-4.405 -0.581,-6.571c-0.441,-2.241 -1.162,-4.418 -2.177,-6.451c-0.39,-0.783 -0.769,-1.637 -1.218,-2.419c-0.265,-0.459 -0.559,-0.894 -0.875,-1.298c-0.288,-0.367 -1.012,-1.667 -1.499,-1.645Zm-4.472,6.5c-1.55,1.079 -5.499,-3.848 -6.384,-4.57c-4.661,-3.794 -8.715,-7.162 -13.5,-9.556c-2.955,-1.478 -6.189,-2.587 -10.04,-3.187c-6.977,-1.081 -14.527,-2.258 -21.901,-2.085c-4.771,0.113 -9.466,0.782 -13.859,2.452c-7.356,2.812 -12.935,7.952 -16.885,14.225c-4.065,6.457 -6.427,14.091 -7.294,21.644c-0.388,3.494 -0.557,7.316 -0.146,11.046c0.395,3.591 1.322,7.097 3.108,10.109c2.265,3.801 5.149,6.52 8.488,8.573c3.462,2.129 7.404,3.546 11.629,4.749c10.45,2.949 21.081,3.25 31.099,0.951c9.972,-2.29 19.317,-7.178 27.276,-14.495c4.019,-3.703 7.246,-8.016 9.457,-12.753c2.197,-4.71 3.355,-9.848 3.281,-15.219c-0.025,-1.732 -0.22,-3.485 -0.606,-5.191c-0.371,-1.636 -0.939,-3.222 -1.727,-4.693l-0.228,-0.401c-0.759,-0.31 -1.385,-0.88 -1.768,-1.599Z"/><path d="M116.07,137.249c1.099,-0.197 -2.85,-2.238 -3.272,-2.401c-2.473,-0.958 -5.181,-1.773 -7.816,-2.127c-5.04,-0.677 -11.229,-0.644 -16.241,0.219c-1.727,0.298 -3.114,0.503 -4.726,1.145c-0.406,0.162 -2.485,1.19 -2.485,0.872" style="fill:#fff;fill-opacity:0.45"/><path d="M80.97,131.502c-1.666,0.268 -2.94,1.714 -2.94,3.455c0.175,1.371 0.526,2.486 1.691,3.018c0.512,0.234 1.454,0.856 2.754,0.419c0.679,-0.228 2.335,-1.145 2.719,-1.352c0.622,-0.33 1.176,-0.611 1.778,-0.812c0.707,-0.236 1.418,-0.438 2.222,-0.663c2.366,-0.589 4.997,-1.118 7.682,-1.248c1.32,-0.065 2.647,-0.024 3.935,0.081c1.345,0.109 2.639,0.341 3.868,0.572c1.2,0.259 2.394,0.637 3.574,1.084c1.205,0.457 2.345,1.025 3.461,1.591c0.152,0.079 0.9,1.274 1.503,1.629c0.76,1.069 2.094,1.664 3.47,1.418c1.777,-0.534 2.577,-1.405 2.81,-2.301c0.241,-0.927 0.614,-2.269 -0.528,-3.5c-0.292,-0.315 -0.736,-0.833 -1.45,-1.224c-1.252,-0.685 -3.3,-1.531 -3.637,-1.62c-1.376,-0.38 -2.787,-0.721 -4.233,-0.988c-1.463,-0.271 -2.918,-0.512 -4.364,-0.59c-1.919,-0.178 -3.987,-0.184 -6.098,-0.228c-1.343,-0.028 -2.698,-0.076 -4.046,-0.098c-2.376,-0.041 -4.698,-0.029 -6.853,0.169c-1.138,0.076 -2.121,0.156 -3.133,0.296c-0.76,0.104 -1.501,0.292 -2.319,0.519c-0.237,0.064 -1.663,-0.042 -1.866,0.373Zm3.499,1.557c0.355,0.546 0.561,1.198 0.561,1.898c0.099,-0.776 -0.146,-1.378 -0.561,-1.898Zm30.239,0.966c0.234,-0.1 0.484,-0.175 0.745,-0.222c-0.297,0.019 -0.54,0.107 -0.745,0.222Z"/><path d="M86.258,134.631c3.847,-0 5.043,4.166 6.785,6.708c5.751,8.392 5.935,20.462 0.909,29.066c-12.797,21.91 -46.718,27.928 -67.382,15.053c-6.239,-3.887 -10.255,-10.292 -14.421,-16.087c-2.193,-3.05 -6.814,-4.889 -8,-8.564c-1.924,-5.963 0.849,-13.7 2.849,-19.25c1.342,-3.725 2.172,-8.14 4.424,-11.454c3.108,-4.575 7.046,-9.986 12.058,-12.598c11.967,-6.236 26.967,-0.101 38.417,4.091c6.864,2.513 14.11,5.974 20.3,9.872c0.716,0.45 5.515,2.372 5.515,3" style="fill:#fff;fill-opacity:0.45"/><path d="M90.543,132.392c-0.284,-0.43 -0.689,-0.86 -1.26,-1.242c-1.235,-0.827 -4.667,-2.186 -5.276,-2.556c-3.228,-1.962 -6.723,-3.81 -10.305,-5.476c-3.566,-1.659 -7.21,-3.146 -10.756,-4.385c-7.075,-2.475 -15.467,-5.615 -23.679,-6.367c-5.893,-0.54 -11.698,0.104 -16.941,2.923c-2.232,1.195 -4.277,2.873 -6.13,4.81c-2.569,2.684 -4.782,5.848 -6.681,8.709c-0.758,1.142 -1.375,2.393 -1.899,3.704c-1.078,2.701 -1.757,5.668 -2.681,8.302c-1.206,3.435 -2.675,7.679 -3.252,11.85c-0.423,3.058 -0.373,6.079 0.512,8.774c0.468,1.429 1.323,2.652 2.396,3.752c1.839,1.884 4.449,3.329 5.916,5.361c2.535,3.544 5.023,7.304 7.967,10.611c2.058,2.31 4.336,4.401 6.991,6.071c10.76,6.831 25.029,8.721 38.312,6.087c13.407,-2.66 25.766,-9.965 32.675,-21.455c2.864,-4.749 4.271,-10.488 4.193,-16.213c-0.078,-5.747 -1.703,-11.466 -4.842,-16.203c-1.382,-2.085 -2.587,-4.987 -4.636,-6.61c-0.201,-0.159 -0.408,-0.308 -0.624,-0.447Zm-7.205,4.167c-1.237,-0.746 -2.616,-2 -2.95,-2.218c-2.965,-1.933 -6.182,-3.77 -9.489,-5.433c-3.324,-1.672 -6.731,-3.178 -10.05,-4.449c-6.607,-2.528 -14.42,-5.793 -22.149,-6.715c-4.855,-0.579 -9.675,-0.239 -14.065,1.977c-1.808,0.917 -3.461,2.245 -4.979,3.763c-2.426,2.425 -4.518,5.312 -6.327,7.915c-0.815,1.171 -1.425,2.504 -1.945,3.892c-0.87,2.326 -1.505,4.792 -2.324,7.009c-1.174,3.177 -2.639,7.094 -3.228,10.966c-0.365,2.402 -0.402,4.783 0.272,6.911c0.265,0.835 0.791,1.531 1.412,2.176c1.961,2.035 4.708,3.65 6.275,5.838c2.467,3.414 4.874,7.051 7.742,10.229c1.811,2.007 3.812,3.825 6.143,5.263c9.938,6.078 23.027,7.583 35.113,4.919c11.869,-2.616 22.783,-9.287 28.663,-19.657c2.193,-3.877 3.175,-8.522 2.977,-13.117c-0.194,-4.503 -1.569,-8.961 -4.145,-12.598c-0.869,-1.229 -1.606,-2.858 -2.601,-4.171c-0.359,-0.474 -0.746,-0.939 -1.425,-0.928c-1.219,-0 -2.294,-0.625 -2.92,-1.572Z"/></g></g><path d="M127.484,171.2c-1.674,0.301 -4.223,3.281 -2.222,4.857c0.684,0.539 1.974,0.802 2.794,1.048c0.805,0.242 1.589,0.486 2.434,0.553c2.342,0.185 4.731,0.38 6.921,-0.553c0.724,-0.308 1.778,-0.578 1.99,-1.466c0.956,-4.014 -4.676,-5.03 -7.387,-5.03c-1.385,0 -2.508,0.599 -3.831,0.895c-0.462,0.104 -1.185,0.745 -1.185,0.134" style="fill:#fff"/></svg>