<?xml version="1.0" encoding="UTF-8" standalone="no"?><!DOCTYPE svg PUBLIC "-//W3C//DTD SVG 1.1//EN" "http://www.w3.org/Graphics/SVG/1.1/DTD/svg11.dtd"><svg width="100%" height="100%" viewBox="0 0 1490 1039" version="1.1" xmlns="http://www.w3.org/2000/svg" xmlns:xlink="http://www.w3.org/1999/xlink" xml:space="preserve" xmlns:serif="http://www.serif.com/" style="fill-rule:evenodd;clip-rule:evenodd;stroke-linecap:round;stroke-linejoin:round;stroke-miterlimit:1.5"><g id="Silla"><path id="Poste" d="M111.049,687.674l-3.106,-13.037l-3.108,-9.286l-3.658,-19.688l-6.762,-28.103l-4.258,-30.575l-5.269,-34.437l-2.836,-37.132l-4.678,-41.666l-4.05,-31.942l-2.339,-37.19l-0,-46.641l0.827,-11.414l19.184,-7.743l15.167,-0l4.813,9.893l-4.761,18.75l1.929,9.911l-0.143,18.371l0.373,20.47l3.36,27.197l1.08,28.372l4.104,34.717l5.903,31.822l1.141,31.208l3.365,17.454l7.205,38.134l5.156,31.094l6.199,9.138l5.221,7.811l0,8.242l-13.198,6.27l-16.859,5.246l-10.002,-5.246Z" style="fill:#dedede;stroke:#000;stroke-width:8.5px"/><g id="Patas"><g id="Llanta1"><path d="M43.902,911.74c-5.558,0.833 -13.31,1.778 -16.859,6.977c-4.925,7.217 -4.462,16.877 0.852,23.628c2.49,3.164 4.898,4.83 8.848,5.089c5.807,0.381 13.862,0.875 19.225,-2.075c3.269,-1.797 4.179,-8.17 4.711,-10.974c1.034,-5.452 0.602,-12.519 -3.555,-16.669c-3.122,-3.117 -9.42,-4.787 -13.222,-5.976Z" style="fill:#2b2b2b;stroke:#000;stroke-width:8.5px"/><path d="M37.149,923.63c-2.047,1.607 -5.938,4.49 -5.031,7.756c0.846,3.047 5.25,4.742 7.751,5.629c1.583,0.561 2.627,0.88 4.135,0.128c3.093,-1.543 4.852,-6.051 5.802,-9.006c0.683,-2.125 0.924,-3.627 -1.052,-4.851c-3.424,-2.122 -8.143,-0.655 -11.605,0.344Z" style="fill:#2b2b2b;stroke:#000;stroke-width:8.5px"/><path d="M38.303,914.071c6.056,-0 12.22,2.507 16.811,6.59c2.203,1.959 2.785,3.442 5.848,4.536c4.332,1.547 5.493,-2.201 5.215,-5.54c-0.415,-4.982 -2.864,-11.035 -8.026,-12.896c-6.604,-2.381 -14.367,-0.884 -21.016,0.398c-1.143,0.221 -2.271,0.583 -3.362,0.987c-0.773,0.287 -1.521,0.63 -2.247,1.019c-0.649,0.348 -2.847,3.009 -1.696,3.677c1.944,1.128 6.103,0.883 8.473,1.229Z" style="fill:#2b2b2b;stroke:#000;stroke-width:8.5px"/></g><path id="Llanta3" d="M219.618,933.573l16.565,1.205l0,32.689l-2.255,8.143l-11.359,-0l-5.01,-6.545l-0.275,-12.006l0.044,-14.248l2.29,-9.238Z" style="fill:#2b2b2b;stroke:#000;stroke-width:8.5px"/><g id="Llanta2"><path d="M403.801,925.982c-2.637,1.067 -5.604,2.268 -7.154,4.653c-1.621,2.494 -8.053,17.72 -2.648,22.343c4.062,3.473 9.877,4.198 15.062,5.492c7.785,1.942 22.512,3.906 28.564,-4.412c2.769,-3.805 -0.56,-19.318 -3.652,-23.423c-1.687,-2.241 -4.491,-3.421 -7.011,-4.653c-3.559,-1.74 -7.154,-4.209 -11.116,-4.209c-4.253,-0 -8.303,2.187 -12.045,4.209Z" style="fill:#2b2b2b;stroke:#000;stroke-width:8.5px"/><path d="M404.607,933.835c-1.342,1.738 -2.801,3.626 -3.129,5.797c-0.336,2.219 3.847,8.024 5.233,8.798c4.256,2.377 9.077,1.14 13.102,-0.732c2.056,-0.957 4.495,-1.799 5.692,-3.725c0.913,-1.468 0.264,-3.507 -0.154,-5.185c-1.431,-5.748 -3.451,-6.395 -9.523,-7.48c-2.706,-0.484 -5.561,-0.83 -8.243,-0.226c-1.319,0.297 -2.221,1.633 -2.978,2.753Z" style="fill:#2b2b2b;stroke:#000;stroke-width:8.5px"/><path d="M388.612,933.069c-0,-0.056 0.85,-5.96 5.995,-10.942c4.612,-4.466 11.525,-7.78 14.638,-8.453c6.96,-1.506 15.568,-0.706 21.65,3.952c1.932,1.479 11.748,7.682 6.51,10.174c-3.836,1.825 -9.41,0.043 -13.876,-1.554c-4.536,-1.622 -7.967,-3.068 -12.058,-2.223c-6.285,1.297 -15.128,15.497 -21.449,14.585c-1.883,-0.272 -1.41,-4.198 -1.41,-5.539Z" style="fill:#2b2b2b;stroke:#000;stroke-width:8.5px"/></g><g id="Llanta4"><path d="M138.263,862.909c-1.394,0.856 -2.963,1.82 -3.783,3.734c-0.857,2.001 -4.259,14.22 -1.4,17.93c2.148,2.787 5.223,3.369 7.965,4.407c4.117,1.559 11.906,3.135 15.106,-3.54c1.465,-3.054 -0.296,-15.503 -1.931,-18.797c-0.893,-1.798 -2.375,-2.746 -3.708,-3.734c-1.882,-1.397 -3.783,-3.378 -5.878,-3.378c-2.25,-0 -4.392,1.756 -6.371,3.378Z" style="fill:#2b2b2b;stroke:#000;stroke-width:8.5px"/><path d="M138.69,869.211c-0.71,1.395 -1.481,2.91 -1.655,4.652c-0.178,1.781 2.034,6.439 2.767,7.06c2.251,1.908 4.801,0.915 6.93,-0.587c1.087,-0.768 2.377,-1.444 3.01,-2.989c0.482,-1.179 0.139,-2.815 -0.082,-4.161c-0.757,-4.613 -1.825,-5.132 -5.036,-6.003c-1.431,-0.389 -2.941,-0.666 -4.359,-0.181c-0.698,0.238 -1.175,1.31 -1.575,2.209Z" style="fill:#2b2b2b;stroke:#000;stroke-width:8.5px"/></g><g id="Llanta5"><path d="M307.371,863.763l1.272,8.042l-0.822,9.131l-1.78,9.407l11.707,0l1.742,-15.406l-0.728,-6.54l-0.941,-3.956l-10.45,-0.678Z" style="fill:#2b2b2b;stroke:#000;stroke-width:8.5px"/><path d="M306.041,890.343l-2.974,-3.046l-2.157,-5.091l0.176,-7.269l0.213,-4.603l3.008,-4.16l1.734,-2.411l3.206,11.174l-0,5.441l-1.346,7.032l-1.86,2.933Z" style="fill:#3a3a3a;stroke:#000;stroke-width:8.5px"/></g><path d="M211.637,779.03c-1.973,15.354 1.45,15.457 0.895,30.847c-0.354,9.81 -0.428,12.236 -6.743,16.461c-6.36,4.255 -14.535,3.867 -22.334,5.253c-11.085,1.97 -22.14,4.845 -32.406,6.73c-11.813,2.169 -21.717,7.592 -32.799,11.828c-13.951,5.332 -22.402,6.93 -34.643,13.425c-11.562,6.135 -21.937,14.455 -30.243,24.588c-2.062,2.515 -4.673,14.946 -4.521,19.061c0.291,7.831 10.486,6.158 15.444,1.55c3.449,-3.205 1.233,-12.641 7.263,-15.815c1.874,-0.986 28.535,-17.507 40.943,-22.654c20.679,-8.578 42.007,-10.541 63.877,-16.113c8.84,-2.253 19.743,-4.351 29.264,-4.629c0.736,-0.022 9.511,-0.727 12.423,1.134c5.25,3.357 3.516,14.628 3.266,18.714c-0.97,15.87 -1.683,31.769 -3.358,47.58c-0.463,4.372 -5.159,9.868 -4.283,14.594c0.453,2.443 2.167,2.618 4.157,2.649c8.105,0.129 8.019,-0.854 16.089,0.188c2.443,0.315 7.842,3.151 10.047,-0.034c2.715,-3.921 -0.582,-9.454 -0.577,-13.382c0.019,-17.542 1.307,-35.066 1.33,-52.608c0.004,-3.18 -2.962,-17.898 4.858,-18.654c14.001,-1.354 22.596,3.797 36.286,6.935c30.459,6.983 60.555,10.677 87,28.93c4.82,3.326 14.797,5.91 20.479,11.594c4.616,4.617 5.394,12.646 6.34,13.815c0.403,0.497 0.931,4.241 1.45,4.724c4.964,4.614 16.181,6.55 20.388,-0.099c6.727,-10.631 -5.136,-24.067 -11.647,-30.77c-2.481,-2.554 -5.212,-4.861 -7.964,-7.121c-3.942,-3.235 -8.593,-2.904 -12.826,-5.748c-7.339,-4.931 -16.193,-7.541 -24.274,-9.908c-18.154,-5.318 -34.617,-14.903 -52.858,-20.179c-6.341,-1.834 -41.894,-9.778 -45.182,-10.367c-4.591,-0.823 -15.42,-0.914 -21.039,-2.791c-2.19,-0.731 1.498,-14.801 2.145,-21.289c0.495,-4.974 0.793,-14.776 0.535,-19.768c-0.558,-10.801 -1.441,-17.875 -2.493,-28.583c-0.194,-1.971 -17.472,-2.521 -20.416,-3.839c-1.436,-0.643 -3.029,-0.965 -4.599,-1.056c-12.159,-0.702 -9.659,17.399 -9.274,24.807Z" style="fill:#dedede;stroke:#000;stroke-width:8.5px"/></g><g id="Asiento"><path d="M49.433,716.326l11.669,4.119l16.64,0.457l11.621,1.635l18.577,0.271l8.702,0.763l14.599,1.247l20.197,2.163l15.193,0.99l14.788,-0.511l15.69,0.143l15.165,-0.023l22.892,2.105l40.435,0l30.985,-3.038l5.615,-0.143l18.804,-6.68l11.603,-3.498l12.072,-7.045l16.501,-7.763l16.459,-5.45l16.197,-5.528l12.889,-5.756l14.013,-3.78l11.812,-3.75l13.979,-5.509l10.968,-4.341l6.722,-2.053l-37.599,-5.187l-21.49,-2.487l-22.35,-1.243l-23.684,-1.993l-16.859,-1.861l-30.864,-1.513l-22.586,-0.651l-20.944,0.013l-20.076,-0.954l-27.135,-1.883l-10.847,-0.399l-17.439,-0.855l-10.932,-0.675l-8.942,0.812l-10.319,3.635l-11.406,3.868l-13.622,6.742l-9.005,4.631l-11.616,7.404l-8.627,4.969l-16.193,9.415l-13.511,5.374l-8.796,4.611l-9.815,6.084l-10.243,6.324l-9.887,6.794Z" style="fill:#a5ddaa;stroke:#000;stroke-width:8.5px"/><path d="M310.44,725.931l12.842,-5.291l15.711,-4.314l18.627,-9.592l18.367,-7.279l25.437,-9.246l17.091,-6.574l15.341,-4.16l21.714,-8.724l17.16,-5.4l2.86,1.522l-0,11.813l0.104,14.225l0.751,10.941l-0.472,12.474l-10.442,6.668l-15.37,7.346l-18.747,9.253l-27.444,14.61l-21.862,8.387l-30.03,13.838l-21.529,10.636l-18.348,5.016l-1.937,-18.233l-1.097,-15.632l-0.05,-13.778l0.429,-12.725l0.894,-5.781Z" style="fill:#a5ddaa;stroke:#000;stroke-width:8.5px"/><path d="M48.598,716.326l11.401,2.461l9.702,0.8l15.842,2.055l21.782,0.099l17.183,2.22l16.078,1.102l23.641,1.73l22.37,-0.455l29.868,1.435l26.269,1.217l21.535,-0.523l20.454,0.099l12.372,-1.756l9.448,-0.898l2.871,-0l0.033,10.687l0.429,12.227l0.579,16.521l1.126,13.638l0.62,11.696l-18.91,0.463l-27.786,-0.676l-15.514,-0.424l-28.078,1.611l-26.484,0.425l-18.999,-0.35l-18.806,-0.376l-25.584,-1.159l-19.327,-0.861l-21.208,-0l-17.872,-3.07l-16.43,-1.032l-9.666,-2.627l-2.967,-8.502l-0,-46.126l4.028,-11.651Z" style="fill:#a5ddaa;stroke:#000;stroke-width:8.5px"/></g><g id="Respaldo"><path d="M14.07,405.821l15.047,-6.679l26.576,-6.111l27.256,-4.452l23.598,-3.354l33.924,-3.844l26.667,-3.878l6.282,1.277l-3.762,19.282l-3.149,22.582l0.234,15.775l0.671,18.517l-0.233,26.674l3.737,24.374l6.828,30.865l0.609,12.724l5.236,22.884l5.729,23.614l0.958,8.199l-9.224,7.407l-18.049,12.193l-16.397,8.34l-20.612,13.453l-19.449,9.851l-23.371,8.742l-31.22,15.649l-11.886,-14.917l-4.698,-19.325l-7.561,-29.292l-7.352,-29.386l-4.522,-32.812l-3.374,-30.652l-2.204,-31.416l0.141,-34.685l0.483,-25.286l3.087,-26.313Z" style="fill:#a5ddaa;stroke:#000;stroke-width:8.5px"/><path d="M18.57,405.821l15.047,-6.679l26.576,-6.111l27.256,-4.452l23.598,-3.354l33.924,-3.844l26.667,-3.878l6.282,1.277l-3.762,19.282l-3.149,22.582l0.234,15.775l0.671,18.517l-0.233,26.674l3.737,24.374l6.828,30.865l0.609,12.724l5.236,22.884l5.729,23.614l0.958,8.199l-9.224,7.407l-18.049,12.193l-16.397,8.34l-20.612,13.453l-19.449,9.851l-23.371,8.742l-31.22,15.649l-11.886,-14.917l-4.698,-19.325l-7.561,-29.292l-7.352,-29.386l-4.522,-32.812l-3.374,-30.652l-2.204,-31.416l0.141,-34.685l0.483,-25.286l3.087,-26.313Z" style="fill:#a5ddaa;stroke:#000;stroke-width:8.5px"/><path d="M8.109,377.503l11.897,-2.272l16.841,-3.562l25.699,-4.285l18.719,-2.612l30.657,-2.106l24.604,-2.499l20.62,-0.856l11.986,0.457l7.508,0.958l-0.028,-14.627l-1.512,-26.275l0.1,-31.59l3.072,-29.991l4.295,-33.217l2.332,-16.221l-16.82,-6.21l-27.989,-2.167l-57.221,1.35l-40.708,1.838l-29.552,1.914l-10.609,13.717l0.698,20.907l1.059,22.117l0.169,39.25l0.505,24.722l-1.534,23.303l0.67,11.255l0.755,11.844l3.787,4.858Z" style="fill:#a5ddaa;stroke:#000;stroke-width:8.5px"/><path d="M13.359,377.503l11.897,-2.272l16.841,-3.562l25.699,-4.285l18.719,-2.612l30.657,-2.106l24.604,-2.499l20.62,-0.856l11.986,0.457l7.508,0.958l-0.028,-14.627l-1.512,-26.275l0.1,-31.59l3.072,-29.991l4.295,-33.217l2.332,-16.221l-16.82,-6.21l-27.989,-2.167l-57.221,1.35l-40.708,1.838l-29.552,1.914l-10.609,13.717l0.698,20.907l1.059,22.117l0.169,39.25l0.505,24.722l-1.534,23.303l0.67,11.255l0.755,11.844l3.787,4.858Z" style="fill:#a5ddaa;stroke:#000;stroke-width:8.5px"/></g></g><g id="Mesa"><path d="M1111.69,810.603l32.063,-3.433l-4.841,-72.214l-11.706,-42.747l-35.723,9.043l9.799,52.253l-3.829,53.665l14.237,3.433Z" style="fill:#c3834b;stroke:#3a3a3a;stroke-width:8.5px"/><g id="Pats1"><path d="M674.122,745.274l-0.654,42.711l0,31.274l-0.882,33.364l3.288,42.142l2.91,64.68l2.308,41.746l2.865,21.104l21.363,2.187l23.855,-0l15.677,-3.685l-5.584,-32.414l-6.201,-41.121l-2.031,-48.645l-1.817,-35.587l-6.021,-69.921l-0.761,-36.253l-0.035,-21.397l-27.349,-0.503l-17.655,0.692l-3.276,9.626Z" style="fill:#c3834b;stroke:#3a3a3a;stroke-width:8.5px"/></g><g id="Pata2"><path d="M1127.21,756.856l0,31.129l1.275,41.116l2.586,50.618l4.752,42.234l5.34,70.552l4.808,42.845l15.378,0.979l19.944,-1.585l15.471,-10.262l-6.416,-40.126l-3.515,-40.433l-5.516,-57.831l-3.309,-56.991l-1.634,-41.116l-0.764,-31.129l-5.6,-21.9l-32.786,0l-10.014,21.9Z" style="fill:#c3834b;stroke:#3a3a3a;stroke-width:8.5px"/></g><path d="M1471.67,596.577l-0.893,22.064l0.059,34.483l-0.222,26.176l1.567,31.476l-1.299,24.18l2.149,41.347l-0,19.778l-11.654,6.005l-21.734,4.881l-3.198,-6.52l-4.116,-32.537l-0.486,-32.954l-0.741,-22.685l3.52,-27.853l1.266,-25.952l-2.487,-11.215l-5.286,-18.332l0,-19.361l23.931,-14.021l19.624,1.04Z" style="fill:#c3834b;stroke:#3a3a3a;stroke-width:8.5px"/><path d="M665.107,711.464c-0.028,7.057 -0.057,14.115 -0,21.173c0.045,5.636 -4.901,14.743 0.304,16.907c10.243,4.258 22.057,-2.644 33.145,-3c20.041,-0.645 40.109,-0.535 60.153,-0c17.476,0.466 34.899,2.157 52.361,3c71.034,3.428 142.32,8.994 213.478,7.312c44.44,-1.05 46.217,-3.46 86.945,-3.478c1.904,-0.001 3.894,0.003 5.977,0.013c14.374,0.069 29.596,5.299 43.12,0.43c6.749,-2.43 8.191,-12.281 9.42,-19.348c1.989,-11.441 10.457,-29.788 -0,-34.84c-19.525,-9.432 -43.285,2.82 -64.959,3.458c-30.492,0.899 -61.01,-0.415 -91.515,-0.478c-50.347,-0.104 -62.921,0.648 -110.475,-2.761c-54.615,-3.916 -54.353,-7.101 -109.186,-5.572c-22.517,0.628 -44.981,2.732 -67.502,3.149c-13.355,0.247 -26.719,-1.89 -40.056,-1.156c-6.478,0.356 -13.685,0.624 -18.96,4.402c-2.987,2.139 -2.562,7.128 -2.25,10.789Z" style="fill:#c9814b;stroke:#000;stroke-width:8.5px"/><path d="M1164.66,753.505c11.073,-6.22 22.15,-12.443 33.416,-18.304c19.769,-10.286 39.668,-20.321 59.677,-30.131c7.043,-3.454 85.965,-40.621 96.059,-45.352c14.49,-6.793 29.372,-12.799 43.507,-20.304c12.768,-6.778 24.204,-15.919 37.085,-22.481c13.002,-6.624 28.295,-8.753 40.354,-16.97c3.682,-2.509 2.571,-8.545 3.491,-12.905c1.916,-9.08 3.67,-18.202 5.01,-27.383c0.334,-2.286 2.169,-7.727 0,-6.931c-18.655,6.853 -35.351,18.196 -53.388,26.542c-34.682,16.048 -71.251,27.11 -106.262,42.304c-11.713,5.084 -22.914,11.285 -34.546,16.551c-31.976,14.476 -32.626,12.567 -64.295,27.464c-20.949,9.855 -24.583,14.966 -45.839,28.675c-3.598,2.321 -8.28,3.134 -11.227,6.239c-3.99,4.206 -6.346,21.371 -6.349,25.049c-0.002,3.147 1.941,6.027 2.311,9.152c0.737,6.227 0.867,12.516 0.996,18.785Z" style="fill:#c3834b;stroke:#3a3a3a;stroke-width:8.5px"/><path d="M667.357,700.675c16.626,-6.126 33.264,-12.258 50.151,-17.624c81.575,-25.921 84.395,-25.03 162.8,-45.643c62.152,-16.34 61.558,-17.937 122.05,-39.82c19.583,-7.084 39.862,-12.167 59.355,-19.493c3.156,-1.187 72.345,-33.706 93.819,-35.112c29.004,-1.9 58.132,0.174 87.198,0.219c18.414,0.028 36.847,-0.873 55.24,-0c62.674,2.975 62.559,4.059 125.239,2.895c18.721,-0.348 37.501,-1.228 56.173,0.17c2.952,0.221 9.606,2.432 7.595,4.605c-17.943,19.388 -37.067,21.433 -59.852,30.296c-13.433,5.226 -26.428,11.542 -39.894,16.686c-20.342,7.769 -41.422,13.6 -61.494,22.04c-13.83,5.815 -26.359,14.386 -39.998,20.636c-39.38,18.045 -39.161,18.262 -77.123,39.243c-9.705,5.363 -20.3,9.019 -29.935,14.507c-3.317,1.89 -4.951,6.627 -8.671,7.484c-36.306,8.36 -60.078,5.322 -96.657,5.486c-16.939,0.076 -33.873,1.018 -50.81,0.789c-49.536,-0.67 -63.911,-2.603 -109.473,-5.087c-21.325,-1.162 -42.634,-3.052 -63.99,-3.206c-60.746,-0.437 -60.589,2.916 -121.315,1.658c-15.312,-0.317 -30.608,-1.269 -45.922,-1.454c-4.834,-0.058 -9.667,0.334 -14.486,0.725Z" style="fill:#cda171;stroke:#3a3a3a;stroke-width:8.5px"/></g><g id="Laptop"><path d="M1054.75,653.085l-23.204,-0l-19.265,-3.217l-22.919,-0.149l-33.993,-2.9l-20.984,0.457l21.197,-12.649l27.359,-9.498l31.68,-14.965l41.487,-14.504l40.777,-14.31l7.874,-2.895l15.309,-7.595l15.893,4.842l46.804,3.168l30.879,4.113l-23.038,10.752l-42.333,17.923l-40.782,13.471l-20.96,12.049l-19.453,11.318l-12.328,4.589Z" style="fill:#0d0936;stroke:#5953ad;stroke-width:8.5px"/><path d="M982.629,636.007c-0.04,-0.003 32.111,-11.977 39.337,-14.902c12.352,-5.001 25.374,-7.671 37.579,-12.787c12.28,-5.148 25.16,-8.8 37.111,-14.69c3.52,-1.735 7.36,-2.307 10.945,-3.772c5.18,-2.116 10.936,-6.199 16.976,-4.98c4.719,0.951 10.141,3.916 14.771,5.549c3.914,1.381 7.733,2.982 11.571,4.546c0.263,0.106 2.664,1.103 2.493,1.559c-0.414,1.099 -7.348,3.663 -7.868,3.91c-6.665,3.161 -13.417,6.125 -20.366,8.613c-9.06,3.243 -17.381,6.952 -26.032,10.895c-4.482,2.043 -9.443,2.829 -13.907,4.907c-7.571,3.525 -15.201,7.207 -22.653,10.945c-4.182,2.099 -9.554,5.509 -14.429,5.798c-4.499,0.267 -62.736,-5.416 -65.528,-5.591Z" style="fill:none;stroke:#5953ad;stroke-width:8.5px"/><path d="M1064.68,529.947l-4.447,40.913l-3.469,25.148l-1.084,35.093l-0.93,21.984l28.195,-11.961l27.138,-9.851l30.94,-14.795l35.108,-16.449l26.886,-9.488l10.742,-8.53l7.769,-33.892l7.107,-25.483l3.772,-19.498l4.434,-19.813l-0.24,-7.739l-28.686,4.849l-19.708,4.53l-30.504,9.195l-36.487,13.35l-38.271,13.909l-18.265,8.528Z" style="fill:#0c0935;stroke:#5953ad;stroke-width:8.5px"/><path d="M1146.96,546.821c-1.544,-0 -2.861,0.593 -4.195,1.325c-5.098,2.796 -6.528,7.055 -6.332,12.606c0.035,0.999 0.76,2.127 1.152,3.042c2.018,4.708 6.594,8.515 12.128,7.534c1.189,-0.211 2.471,-0.722 3.575,-1.203c0.819,-0.356 1.558,-0.834 2.196,-1.459c1.883,-1.846 1.894,-3.239 1.195,-5.658c-0.28,-0.971 -2.395,-2.511 -1.856,-3.618c0.944,-1.942 3.528,-2.703 4.588,-4.495c0.545,-0.92 0.754,-2.451 0.812,-3.483c0.049,-0.863 -0.064,-1.551 -0.397,-2.348c-1.689,-4.041 -5.796,-3.628 -9.473,-3.628c-1.708,0 -4.181,-0 -5.297,1.634c-0.251,0.367 -0.09,-0.902 -0.28,-1.305c-0.449,-0.953 -0.766,-1.936 -1.091,-2.936c-0.421,-1.296 -1.018,-3.085 -0.648,-4.464c0.417,-1.553 3.34,-3.256 4.959,-2.981c1.389,0.235 2.089,2.429 1.749,3.605c-0.839,2.9 -4.736,5.189 -4.736,8.444" style="fill:#5953ad;stroke:#5953ad;stroke-width:8.5px"/></g><g id="Taza"><path d="M860.793,594.235l-2.476,-4.038l2.132,-2.372l9.884,-1.931l16.086,-2.463l22.504,-1.053l8.827,0.98l2.927,2.536l-2.914,11.513l-18.311,10.911l-13.827,-0.26l-13.587,-2.058l-7.234,-5.131l-4.011,-6.634Z" style="fill:#ead099;stroke:#351400;stroke-width:8.5px"/><path d="M920.677,604.012l9.119,-2.825l10.102,1.084l7.05,3.524l5.803,7.843l1.889,13.249l-0.068,10.063l-7.179,7.632l-9.612,5.097l-10.86,-0.05l-6.244,-0.057l-3.668,-1.539l-1.115,-6.371l0.849,-4.296l5.676,-0.345l5.959,-0.456l6.379,-3.198l2.672,-6.48l0,-6.823l-5.608,-4.349l-14.838,-2.277l0.159,-5.12l3.535,-4.306Z" style="fill:#ead099;stroke:#351400;stroke-width:8.5px"/><path d="M866.587,595.931c6.486,-2.111 11.048,-3.297 17.639,-3.338c5.72,-0.036 11.461,-0.563 17.161,-0.086c5.569,0.465 8.964,1.503 9.743,7.565c0.366,2.849 0.209,5.74 0.278,8.611c0.015,0.622 0.122,2.194 -0.595,2.68c-1.936,1.311 -6.042,2.263 -8.102,2.657c-5.91,1.131 -11.988,1.929 -18.026,1.632c-3.338,-0.164 -10.25,-0.607 -12.82,-4.179c-3.404,-4.732 -4.198,-9.978 -5.278,-15.542Z" style="fill:#1a0a00;stroke:#1a0a00;stroke-width:8.5px"/><path d="M858.317,594.89l0.49,19.601l1.237,24.517l0.158,14.773l1.053,10.028l8.358,4.07l10.569,0l19.837,-0.37l13.205,-2.634l5.949,-9.226l0.764,-24.226l2.378,-23.415l0.104,-16.204l-0.193,-5.91l-4.978,7.173l-8.761,3.502l-11.533,3.483l-13.236,0.691l-15.207,-1.276l-8.419,-5.884l-1.775,1.307Z" style="fill:#ead099;stroke:#351400;stroke-width:8.5px"/></g><g id="Ropa"><g id="PieIzquierdo"><g id="Zapato"><path d="M454.398,767.421c-1.297,0.887 -2.354,2.15 -3.306,3.399c-0.696,0.912 -0.69,0.983 -1.109,2c-1.301,3.153 4.561,3.455 7.932,4.703c1.84,0.681 8.797,3.867 10.658,4.493c8.766,2.951 18.029,9.271 27.104,11.12c3.485,0.71 7.21,0.997 10.605,2.099c2.872,0.933 5.283,2.853 8.109,3.886c4.512,1.648 12.117,6.522 16.834,6.538c3.053,0.01 8.217,0.845 10.358,-1.261c1.871,-1.84 2.67,-3.132 4.47,-4.179c5.158,-3.003 -4.124,-6.29 -6.601,-7.374c-1.039,-0.455 -1.525,-0.652 -2.634,-1.042c-0.944,-0.331 -2.621,-0.861 -3.556,-1.162c-1.554,-0.5 -2.193,-0.655 -3.678,-1.344c-1.275,-0.591 -2.815,-1.516 -3.985,-2.222c-1.859,-1.121 -3.637,-2.369 -5.494,-3.487c-6.69,-4.026 -14.847,-5.16 -22.157,-7.67c-10.934,-3.756 -20.485,-8.392 -32.041,-9.676c-5.537,-0.615 -10.046,-1.318 -15.108,1.813" style="fill:#fff;stroke:#090909;stroke-width:8.5px"/><path d="M453.025,768.181c1.611,0.003 3.297,0.783 4.765,1.267c4.881,1.611 9.749,3.262 14.621,4.9c11.327,3.808 22.411,8.088 33.279,13.047c5.802,2.647 11.31,6.102 17.153,8.631c5.495,2.378 12.955,1.782 18.827,1.782c2.263,-0 4.68,0.346 6.301,-1.6c3.101,-3.722 0.585,-8.316 -0.845,-11.944c-0.995,-2.526 -1.758,-5.221 -2.419,-7.851c-0.622,-2.476 -1.366,-4.941 -2.939,-6.998c-8.743,-11.431 -23.323,-19.308 -35.918,-25.725c-4.874,-2.484 -10.489,-6.096 -16.025,-6.542c-8.982,-0.724 -14.412,2.743 -21.368,7.551c-7.749,5.357 -15.136,13.628 -15.136,23.755" style="fill:#fff;stroke:#090909;stroke-width:8.5px"/><path d="M471.301,761.205c4.747,-5.746 11.955,-9.215 18.591,-12.207c1.477,-0.666 6.233,-2.628 7.79,-1.065c2.059,2.066 -1.188,6.698 -2.191,8.402c-0.438,0.744 -0.885,1.484 -1.35,2.21c-0.349,0.545 -0.72,1.076 -1.094,1.604c-0.206,0.292 -2.878,4.108 -2.751,4.088c2.156,-0.353 4.446,-3.571 5.84,-4.92c3.101,-3.002 6.108,-6.229 9.51,-8.897c0.723,-0.567 6.112,-4.459 7.332,-2.528c1.04,1.644 0.059,4.136 -0.744,5.554c-2.268,4.008 -4.909,7.813 -7.328,11.731c-0.704,1.141 -2.991,3.721 -2.381,5.413c0.269,0.744 1.612,-0.188 2.307,-0.567c1.356,-0.741 3.159,-2.096 4.266,-3.069c3.735,-3.282 6.906,-7.197 10.719,-10.374c0.952,-0.793 3.042,-2.371 4.38,-1.325c1.966,1.538 0.845,4.497 -0.214,6.193c-1.897,3.036 -4.408,5.676 -6.483,8.591c-0.694,0.974 -1.87,2.146 -1.87,3.425" style="fill:none;stroke:#090909;stroke-width:8.5px"/></g><path d="M452.735,767.301c8.698,-9.175 18.341,-18.2 28.203,-23.711c4.762,-2.66 11.442,-0.334 15.072,-7.733c3.391,-6.91 0.292,-16.39 -0.183,-23.596c-1.439,-21.798 1.19,-45.145 -10.538,-60.861c-3.05,-4.086 -6.264,-7.868 -9.599,-11.313c-7.097,-7.332 -12.794,-11.654 -20.941,-15.144c-12.901,-5.527 -27.337,-4.642 -40.346,-6.937c-10.214,-1.801 -20.297,-5.363 -30.526,-6.922c-17.814,-2.714 -34.504,-1.725 -52.866,-2.453c-14.086,-0.558 -25.844,-1.263 -39.767,-5.159c-8.923,-2.497 -19.191,-6.875 -26.742,-15.812c-3.704,-4.383 -6.439,-10.716 -10.183,-15.007c-4.235,-4.853 -4.902,-3.296 -9.765,-4.684c-5.202,-1.485 -17.609,-9.226 -22.011,1.708c-10.108,25.11 7.096,53.143 19.362,64.982c2.946,2.844 6.014,5.392 9.188,7.491c4.966,3.285 10.053,6.101 15.184,8.627c4.981,2.452 10.061,4.35 15.126,6.293c10.496,4.027 21.075,7.467 31.553,11.614c13.806,5.464 27.554,14.07 41.994,14.121c5.699,0.02 11.379,-1.175 17.077,-1.362c13.535,-0.444 27.077,-0.127 40.614,-0.529c12.672,-0.377 33.367,-7.938 39.073,17.966c1.072,4.865 1.803,9.936 2.326,15.033c0.38,3.712 0.465,7.513 0.373,11.274c-0.343,14.056 -0.844,28.112 -1.678,42.114Z" style="fill:#77b6ec;stroke:#000;stroke-width:8.5px"/></g><g id="PieDerecho"><g id="Zapato1" serif:id="Zapato"><path d="M460.051,836.839c-1.85,16.992 -9.881,16.446 -25.58,16.446c-20.663,-0 -37.842,-2.384 -56.876,-10.811c-6.53,-2.892 -26.857,-4.013 -25.167,-14.912c1.238,-7.983 15.03,-5.596 20.023,-4.501c8.387,1.841 16.37,5.203 24.842,6.625c3.814,0.639 7.866,0.937 11.729,0.481c3.069,-0.362 6.067,-1.145 9.152,-1.439c3.109,-0.296 6.186,-0.321 9.305,-0.321c6.876,-0 29.887,-1.28 29.887,10.201" style="fill:#fff;stroke:#090909;stroke-width:8.5px"/><path d="M394.389,783.716l14.266,8.364l26.373,13.099l16.066,9.292l8.591,11.009l0.114,14.631l-35.114,3.332l-24.503,-4.33l-30.31,-7.415l-15.283,-6.218l-0.74,-20.45l33.257,-24.635l7.283,3.321Z" style="fill:#fff;stroke:#090909;stroke-width:8.5px"/><path d="M383.724,813.445c2.056,-4.639 10.464,-10.377 15.406,-12.326c0.813,-0.32 4.365,-1.973 5.245,-1.024c1.109,1.196 0.671,3.535 0.074,4.818c-1.898,4.069 -5.612,6.793 -6.702,11.257c-0.328,1.343 -1.288,6.076 1.257,6.007c2.028,-0.055 4.299,-1.325 5.58,-2.573c5.161,-5.028 9.284,-12.604 14.588,-17.467c1.98,-1.816 4.376,-3.311 6.852,-4.352c0.018,-0.008 1.551,-0.693 1.626,-0.335c0.513,2.483 -1.398,6.191 -2.431,8.244c-2.328,4.628 -4.301,9.496 -5.935,14.409c-0.046,0.136 -2.218,6.275 -1.703,6.371c7.082,1.334 13.048,-9.047 16.505,-13.526c0.699,-0.907 1.816,-2.848 2.963,-3.39c0.468,-0.221 1.709,0.839 1.709,1.273" style="fill:none;stroke:#090909;stroke-width:8.5px"/></g><path d="M108.956,617.704c2.019,8.864 0.759,19.181 5.094,27.36c2.979,5.621 6.799,10.604 9.722,16.263c3.559,6.89 4.788,15.599 10.239,21.121c16.493,16.71 40.401,14.541 60.642,13.679c29.535,-1.257 59.461,-4.241 88.941,0.369c4.285,0.67 8.84,3.843 12.975,5.035c3.826,1.104 16.059,3.215 21.399,5.398c8.527,3.485 14.655,10.534 20.499,18.281c4.794,6.356 10.153,13.013 11.452,21.709c2.849,19.084 5.564,38.773 3.515,58.207c-0.445,4.21 -1.419,8.323 -2.145,12.48c-0.306,1.75 -0.743,3.472 -0.949,5.241c-0.105,0.895 0.178,3.091 0.799,2.547c11.122,-9.731 21.611,-20.422 32.812,-30.03c2.892,-2.481 6.106,-4.463 9.388,-6.167c2.266,-1.176 6.674,-0.098 7.844,-3.747c3.881,-12.109 3.552,-25.355 3.572,-38.02c0.021,-12.831 0.563,-26.438 -3.978,-38.533c-6.935,-18.473 -18.215,-35.563 -33.483,-45.643c-10.619,-7.011 -16.238,-7.831 -27.526,-12.916c-9.867,-4.445 -18.926,-10.095 -29.27,-13.103c-7.511,-2.184 -23.899,-5.531 -31.512,-6.433c-13.001,-1.542 -32.913,-4.099 -49.58,-5.331c-7.41,-0.548 -13.424,-6.999 -17.269,-14.353c-2.103,-4.021 -3.394,-12.85 -8.897,-13.374c-10.358,-0.985 -26.653,0.723 -36.947,1.66c-15.646,1.424 -32.373,1.363 -46.711,10.102c-3.765,2.295 -7.153,5.348 -10.626,8.198Z" style="fill:#77b6ec;stroke:#000;stroke-width:8.5px"/></g><path d="M258.712,403.8c0.012,-0.042 -2.477,3.785 -3.593,5.125c-2.765,3.321 -5.099,8.152 -5.451,12.488c-1.162,14.341 -2.899,28.52 -3.715,42.921c-2.022,35.654 -0.389,61.928 11.645,94.645c1.959,5.329 5.561,19.535 -2.85,20.291c-7.925,0.711 -13.558,-3.903 -20.436,-6.689c-4.969,-2.012 -13.777,-1.793 -17.839,-5.462c-5.12,-4.624 -6.038,-18.183 -8.424,-24.416c-13.093,-34.214 -7.004,-79.888 11.768,-111.147c5.218,-8.689 13.028,-17.364 23.412,-19.287c6.894,-1.276 9.509,9.357 11.645,6.803" style="fill:#fff"/><path d="M249.62,409.525c-2.02,-1.193 -4.377,-1.793 -7.13,-1.246c-4.775,0.945 -9.079,3.09 -12.876,6.022c-5.313,4.103 -9.655,9.715 -12.954,15.359c-9.43,16.101 -15.587,35.836 -17.695,55.918c-2.112,20.113 -0.188,40.57 6.661,58.053c1.627,4.187 2.602,11.716 4.644,17.565c1.137,3.257 2.62,6.031 4.545,7.758c1.54,1.387 3.624,2.351 5.973,3.039c4.165,1.219 9.264,1.525 12.597,2.876c4.182,1.703 7.908,4.069 11.96,5.531c2.967,1.07 6.095,1.684 9.628,1.377c3.988,-0.338 6.157,-2.733 7.118,-6.132c1.496,-5.289 -0.595,-13.639 -2.02,-17.575c-5.859,-16.316 -9.139,-30.992 -10.622,-46.046c-1.462,-14.835 -1.17,-30.029 0.002,-47.492c0.289,-4.275 0.658,-8.53 1.073,-12.775c0.916,-9.376 2.044,-18.701 2.949,-28.095c0.493,0.067 0.978,0.056 1.448,-0.01c1.071,-0.151 2.184,-0.657 3.213,-1.853c1.505,-1.8 1.266,-4.482 -0.534,-5.987c-0.487,-0.407 -1.038,-0.687 -1.614,-0.841c0.694,-1.238 1.496,-2.387 2.34,-3.376c0.938,-1.099 2.773,-3.763 3.567,-4.924c0.052,-0.075 0.099,-0.149 0.142,-0.221c0.351,-0.438 0.619,-0.953 0.777,-1.529c0.035,-0.134 -5.053,-7.468 -7.979,-2.954c-0.654,1.008 -2.144,3.331 -2.921,4.288c-0.805,0.992 -1.58,2.094 -2.292,3.27Zm-3.315,7.796c-0.14,-0.135 -0.286,-0.263 -0.438,-0.385c-0.523,-0.418 -1.115,-0.81 -1.899,-0.676c-4.492,0.775 -8.431,3.043 -11.834,6.023c-3.645,3.195 -6.699,7.178 -9.16,11.169c-9.303,15.114 -15.584,33.76 -17.949,52.82c-2.378,19.155 -0.825,38.717 5.448,55.504c1.601,4.248 2.511,11.864 4.524,17.793c0.803,2.368 1.746,4.454 3.133,5.715c1.032,0.935 2.468,1.515 4.046,1.979c4.32,1.271 9.602,1.631 13.062,3.031c4.123,1.66 7.794,3.989 11.788,5.409c2.314,0.823 4.748,1.314 7.497,1.06c2.214,-0.21 2.78,-2.14 2.936,-4.295c0.313,-4.309 -1.288,-9.777 -2.334,-12.579c-6.289,-16.698 -9.849,-31.757 -11.655,-47.221c-1.768,-15.135 -1.843,-30.662 -1.015,-48.532c0.199,-4.351 0.485,-8.682 0.809,-13.005c0.749,-10.022 1.72,-19.993 2.414,-30.042c0.085,-1.231 0.301,-2.498 0.627,-3.768Z"/><path d="M183.948,364.97c-3.107,1.043 7.131,-7.418 8.795,-8.584c7.259,-5.089 16.928,-10.991 25.27,-13.825c8.268,-2.809 15.037,-8.809 24.278,-9.588c17.557,-1.479 36.549,13.631 44.714,28.431c2.104,3.814 -9.197,9.048 -11.025,10.924c-3.761,3.861 -7.607,7.651 -11.465,11.437c-8.939,8.77 -39.714,83.96 -48.231,79.943" style="fill:#fff"/><path d="M187.631,367.087c2.118,-0.318 6.382,-6.699 7.397,-7.441c3.478,-2.543 7.526,-5.303 11.725,-7.78c4.134,-2.44 8.399,-4.621 12.366,-6.048c5.846,-2.102 10.913,-5.783 16.659,-8.101c2.12,-0.855 4.341,-1.514 6.765,-1.754c8.196,-0.796 16.772,2.349 24.252,7.385c7.57,5.096 14.024,12.129 17.963,19.105c-0.061,0.127 -0.183,0.369 -0.295,0.52c-0.462,0.621 -1.14,1.238 -1.904,1.846c-3.057,2.434 -7.287,4.671 -8.365,5.769l-11.527,11.294c-1.445,1.388 -3.444,4.336 -5.812,8.351c-8.486,14.385 -22.315,43.393 -32.636,59.652c-2.16,3.404 -4.162,6.206 -5.904,8.132c-0.632,0.7 -1.703,1.027 -1.953,1.442c-1.62,-0.029 -3.186,0.876 -3.922,2.436c-1.001,2.122 -0.091,4.656 2.031,5.657c1.58,0.703 3.412,0.838 5.43,-0.165c1.833,-0.911 4.236,-3.19 6.749,-6.763c12.126,-17.24 32.634,-67.798 39.712,-74.976l11.404,-11.58c1.402,-1.445 8.214,-4.903 10.64,-8.149c1.465,-1.959 1.733,-3.937 0.763,-5.709c-4.187,-7.703 -11.184,-15.476 -19.378,-21.221c-8.497,-5.959 -18.299,-9.681 -27.752,-9.005c-3.028,0.21 -5.822,0.935 -8.499,1.916c-5.718,2.094 -10.818,5.542 -16.634,7.404c-3.568,1.143 -7.369,2.816 -11.15,4.738c-5.431,2.761 -10.804,6.061 -15.299,9.084c-1.42,0.953 -8.403,6.545 -10.095,8.615c-2.891,3.539 -0.214,6.349 1.139,7.073c0.591,0.317 1.833,0.801 3.8,0.185c1.024,-0.344 1.831,-1.042 2.33,-1.912Zm-4.281,-6.324c-0.234,0.025 -0.485,0.081 -0.756,0.178c0.251,-0.084 0.503,-0.143 0.756,-0.178Z"/><path id="Playera" d="M86.064,583.592c0,0 -3.711,-13.074 -1.938,-27.618c0.679,-5.575 0.078,-33.652 3.596,-60.473c3.505,-26.717 11.131,-52.187 11.524,-53.342c1.899,-5.577 10.673,-20.641 17.741,-29.783c7.676,-9.928 20.355,-21.601 28.314,-29.785c6.369,-6.549 13.52,-14.616 19.441,-19.317c4.799,-3.811 11.698,-6.936 16.087,-8.894c3.239,-1.445 7.277,-3.426 10.25,-2.854c0.7,0.135 1.469,0.374 2.241,0.704c3.47,0.539 7.08,2.176 10.353,3.267c5.83,1.944 13.028,4.946 18.614,8.976c5.83,4.206 13.383,11.99 16.363,16.258c1.807,2.588 1.423,6.193 1.517,9.348c0.13,4.378 -2.06,14.347 -0.735,16.918c1.325,2.572 5.972,-0.364 8.686,-1.488c2.78,-1.151 5.401,-4.489 7.998,-5.419c2.38,-0.853 7.429,-1.689 7.583,-0.165c0.153,1.523 -4.423,6.219 -6.664,9.307c-2.436,3.357 -5.481,7.1 -7.952,10.838c-2.735,4.136 -6.543,8.882 -8.457,13.982c-2.727,7.266 -6.373,19.515 -7.906,29.618c-0.691,4.554 -1.095,9.48 -1.359,14.548l3.315,20.787l1.124,9.637l3.043,15.519l6.516,21.947l9.047,15.789l11.626,17.446l9.085,8.931l5.697,4.368l-17.112,5.102l-15.107,5.857l-25.377,2.27l-25.769,0.936l-35.452,3.945l-17.152,3.724l-23.68,6.108l-12.209,2.099l-8.305,-8.017l-7.265,-11.634l-7.322,-19.44Z" style="fill:#ffd78b"/><path d="M241.551,405.429c-0.156,-0.752 -0.017,-1.94 0.085,-3.299c0.305,-4.064 1.185,-9.265 1.107,-12.128c-0.054,-1.961 0.054,-4.086 -0.228,-6.06c-0.243,-1.706 -0.764,-3.308 -1.732,-4.701c-1.635,-2.353 -4.592,-5.74 -7.918,-9.054c-2.946,-2.936 -6.181,-5.815 -9.019,-7.874c-2.849,-2.071 -6.099,-3.89 -9.391,-5.446c-3.399,-1.607 -6.842,-2.931 -9.915,-3.969c-2.306,-0.778 -4.778,-1.822 -7.252,-2.574c-1.143,-0.347 -2.286,-0.633 -3.417,-0.82c0.003,0.001 -2.265,-0.716 -2.265,-0.716c-1.321,-0.259 -2.801,-0.179 -4.347,0.159c-2.506,0.548 -5.242,1.817 -7.582,2.851c-2.782,1.229 -6.546,2.915 -10.181,4.936c-2.33,1.296 -4.605,2.73 -6.558,4.267c-2.009,1.58 -4.156,3.529 -6.365,5.675c-4.423,4.294 -9.112,9.395 -13.441,13.806c-5.594,5.698 -13.495,13.091 -20.394,20.403c-3.053,3.236 -5.912,6.457 -8.304,9.517c-3.884,4.967 -8.275,11.659 -11.822,17.681c-3.171,5.384 -5.657,10.259 -6.599,12.975c-0.262,0.755 -3.646,11.784 -7.003,26.799c-1.835,8.205 -3.66,17.603 -4.966,27.161c-1.132,8.236 -1.878,16.591 -2.39,24.391c-1.153,17.542 -1.085,32.221 -1.578,36.071c-0.671,5.237 -0.666,10.297 -0.37,14.694c0.576,8.539 2.27,14.579 2.27,14.579c0.032,0.114 0.069,0.227 0.111,0.337l7.448,19.392c0.096,0.254 0.217,0.498 0.361,0.729l7.341,11.588c0.174,0.279 0.382,0.535 0.618,0.764l8.356,7.964c0.906,0.875 2.174,1.265 3.415,1.052l12.196,-2.171c0.105,-0.018 0.209,-0.04 0.312,-0.067l23.595,-6.234c0,-0 16.877,-3.768 16.877,-3.768c-0,0 35.114,-4.116 35.114,-4.116c-0,-0 25.617,-1.071 25.617,-1.071c0.058,-0.002 0.116,-0.005 0.173,-0.01l25.366,-2.4c0.295,-0.026 0.584,-0.094 0.859,-0.201l14.977,-5.894c-0,-0 16.955,-5.143 16.955,-5.143c1.075,-0.321 1.88,-1.217 2.083,-2.321c0.203,-1.103 -0.229,-2.228 -1.12,-2.91l-5.581,-4.242c0,0 -8.778,-8.555 -8.778,-8.555c-0,-0 -11.481,-17.068 -11.481,-17.068c-0,0 -8.907,-15.392 -8.907,-15.392c0,-0 -6.458,-21.498 -6.458,-21.498c0,-0 -3.047,-15.286 -3.047,-15.286c-0,-0 -1.142,-9.525 -1.142,-9.525c-0.004,-0.036 -0.009,-0.072 -0.015,-0.107l-3.331,-20.522c0.12,-2.349 0.272,-4.666 0.469,-6.928c0.214,-2.444 0.481,-4.823 0.823,-7.106c0.704,-4.683 1.87,-9.835 3.186,-14.721c1.477,-5.482 3.144,-10.628 4.559,-14.408c0.698,-1.86 1.672,-3.668 2.747,-5.412c1.774,-2.877 3.818,-5.585 5.466,-8.073l7.903,-10.742c1.589,-2.186 4.338,-5.173 5.781,-7.288c1.056,-1.546 1.432,-2.935 1.353,-3.725c-0.139,-1.4 -1.197,-2.727 -3.415,-3.02c-1.997,-0.264 -5.519,0.378 -7.489,1.082c-0.751,0.268 -1.509,0.679 -2.265,1.188c-1.912,1.287 -3.817,3.426 -5.851,4.265c-1.162,0.478 -2.682,1.293 -4.139,1.854c-0.437,0.168 -1.082,0.31 -1.467,0.385Zm18.362,-3.702c-1.454,1.908 -3.585,4.253 -4.885,6.048l-8.003,10.934c-1.67,2.532 -3.735,5.292 -5.535,8.217c-1.241,2.017 -2.358,4.111 -3.166,6.262c-1.464,3.894 -3.189,9.197 -4.724,14.845c-1.376,5.066 -2.599,10.408 -3.342,15.263c-0.366,2.38 -0.655,4.86 -0.888,7.408c-0.22,2.408 -0.389,4.878 -0.525,7.382c-0.009,0.177 0,0.354 0.028,0.528l3.249,20.736c-0,0 1.087,9.595 1.087,9.595c0.008,0.066 0.019,0.133 0.032,0.199l2.993,15.529c0.016,0.083 0.036,0.164 0.06,0.245l6.446,21.967c0.06,0.203 0.144,0.397 0.249,0.581l8.98,15.828c0.031,0.055 0.065,0.109 0.1,0.161l11.55,17.496c0.111,0.166 0.238,0.32 0.38,0.46l9.047,8.97c0.086,0.085 0.177,0.164 0.273,0.238l1.039,0.804c-0,-0 -11.533,3.379 -11.533,3.379c-0.079,0.023 -0.156,0.05 -0.233,0.08l-14.705,5.615c-0,-0 -24.858,2.095 -24.858,2.095c-0,0 -25.705,0.792 -25.705,0.792c-0.085,0.004 -0.17,0.01 -0.254,0.019l-35.475,3.738c-0.124,0.014 -0.247,0.034 -0.369,0.06l-17.174,3.623c-0.047,0.011 -0.094,0.022 -0.141,0.034l-23.539,5.925c0,-0 -10.086,1.673 -10.086,1.673c0,0 -6.466,-6.322 -6.466,-6.322c-0,0 -6.716,-10.911 -6.716,-10.911c-0,0 -6.993,-18.939 -6.993,-18.939l-0.001,-0.006c-0.252,-0.921 -1.555,-5.918 -2.097,-12.715c-0.312,-3.914 -0.378,-8.422 0.162,-13.095c0.453,-3.911 0.228,-18.796 1.18,-36.6c0.408,-7.635 1.038,-15.816 2.046,-23.885c1.177,-9.359 2.864,-18.567 4.571,-26.608c3.104,-14.624 6.26,-25.378 6.507,-26.115c0.992,-2.965 4.015,-8.717 7.635,-14.765c2.978,-4.974 6.363,-10.138 9.426,-14.145c2.961,-3.872 6.69,-8.017 10.598,-12.11c6.067,-6.354 12.556,-12.584 17.332,-17.539c4.257,-4.418 8.864,-9.524 13.216,-13.827c2.034,-2.011 4.008,-3.843 5.861,-5.328c1.711,-1.372 3.711,-2.649 5.757,-3.809c3.451,-1.956 7.032,-3.583 9.677,-4.775c1.744,-0.785 3.729,-1.749 5.638,-2.321c1.047,-0.314 2.052,-0.543 2.932,-0.377l1.676,0.522c0.213,0.091 0.437,0.155 0.666,0.191c1.246,0.189 2.512,0.54 3.772,0.95c2.1,0.683 4.181,1.523 6.141,2.169c2.899,0.955 6.148,2.176 9.357,3.665c2.999,1.39 5.966,3.011 8.566,4.873c2.653,1.902 5.674,4.571 8.432,7.29c3.082,3.038 5.838,6.134 7.356,8.296c0.509,0.725 0.737,1.578 0.868,2.468c0.263,1.779 0.148,3.698 0.205,5.468c0.103,3.187 -1.041,9.372 -1.122,13.433c-0.041,2.018 0.229,3.64 0.711,4.569c0.766,1.478 1.981,2.204 3.508,2.364c2.316,0.242 6.024,-1.707 8.391,-2.693c0.721,-0.301 1.437,-0.71 2.143,-1.193c1.986,-1.358 3.841,-3.512 5.738,-4.194c0.774,-0.278 1.875,-0.552 2.954,-0.715Z"/><path d="M302.078,635.329c-16.529,-5.967 -32.077,-17.5 -48.482,-23.798c-8.127,-3.12 -26.779,-8.962 -34.276,-13.658c-3.139,-1.966 -5.338,-5.156 -7.712,-7.998c-5.654,-6.77 -12.845,-16.545 -15.814,-24.952c-4.371,-12.373 -5.493,-23.17 -8.335,-35.897c-3.57,-15.989 -10.338,-39.571 -12.097,-57.565c-1.883,-19.269 -0.574,-19.173 2.002,-38.372c0.855,-6.372 3.365,-16.503 -0.932,-22.31c-3.561,-4.812 -10.862,-8.297 -16.233,-10.376c-2.499,-0.967 -5.067,-1.84 -7.712,-2.265c-2.583,-0.416 -5.261,-0.65 -7.845,-0.238c-12.616,2.008 -15.942,13.747 -20.735,23.696c-2.49,5.168 -5.696,9.807 -6.587,15.648c-0.958,6.278 -1.467,12.646 -1.438,18.996c0.073,15.747 2.339,31.283 8.025,45.217c2.241,5.493 6.28,16.69 8.605,22.149c6.77,15.892 12.044,30.091 18.951,45.924c4.004,9.178 8.844,17.664 15.483,25.75c19.044,23.192 50.413,28.351 78.98,31.883c14.968,1.851 42.793,7.642 56.152,8.166Z" style="fill:#fff;stroke:#000;stroke-width:8.5px"/><path id="Manga" d="M182.23,356.665l-34.452,21.609l-13.177,13.381l-10.694,13.34l-8.026,15.264l-4.069,16.985l-0.123,9.915l-0,9.235l0.1,9.821l24.294,2.255l23.397,0.261l17.789,-0.862l4.961,-1.948l-0,-20.14l7.996,-14.569l4.874,-12.401l5.582,-9.732l8.592,-11.394" style="fill:#fcd78b;stroke:#000;stroke-width:8.5px"/></g><g id="Cara"><path id="Mechon" d="M400.688,60.255c0,-7.106 15.94,-9.826 20.384,-10.878c5.791,-1.371 11.579,-2.032 17.438,-3.031c13.266,-2.261 32.8,-7.523 43.291,4.816c2.967,3.49 4.493,15.416 2.646,19.484c-1.976,4.353 -5.663,7.204 -7.997,11.201c-2.023,3.463 3.562,4.295 1.984,7.955c-3.066,7.108 -13.938,7.585 -20.203,8.388c-2.052,0.262 -6.671,1.442 -8.779,0.487c-4.767,-2.161 -9.749,-11.444 -13.529,-15.045c-8.328,-7.935 -18.84,-12.415 -27.598,-19.428c-2.188,-1.752 -3.243,-4.736 -4.872,-6.167"/><path d="M402.744,63.974c0.407,0.617 0.841,1.242 1.347,1.802c0.521,0.577 1.075,1.126 1.696,1.599c6.338,4.852 13.511,8.432 20.21,12.849c2.654,1.751 5.234,3.631 7.629,5.819c2.546,2.336 5.662,7.214 8.874,10.751c1.899,2.09 3.851,3.765 5.731,4.579c1.017,0.442 2.4,0.652 3.93,0.581c2.272,-0.104 4.97,-0.758 6.428,-0.968c3.901,-0.553 9.503,-1.042 14.066,-2.895c3.622,-1.47 6.625,-3.751 8.102,-7.287c0.514,-1.215 0.574,-2.262 0.395,-3.194c-0.217,-1.125 -0.807,-2.102 -1.553,-2.99c-0.299,-0.357 -0.624,-0.697 -0.897,-1.054c-0.102,-0.133 -0.237,-0.265 -0.118,-0.472c1.597,-2.738 3.856,-4.916 5.723,-7.443c0.908,-1.23 1.736,-2.531 2.4,-3.98c1.065,-2.313 1.296,-6.87 0.73,-11.351c-0.567,-4.491 -1.957,-8.85 -3.634,-10.86c-4.642,-5.604 -10.946,-8.058 -17.806,-8.837c-9.383,-1.066 -19.875,1.174 -28.051,2.418c-4.13,0.62 -8.221,1.075 -12.308,1.726c-1.807,0.287 -3.612,0.616 -5.42,1.006c-3.225,0.688 -12.018,2.182 -17.497,5.332c-3.924,2.256 -6.2,5.476 -6.283,9.15c0,2.346 1.905,4.25 4.25,4.25c0.746,-0 1.447,-0.192 2.056,-0.531Zm5.532,-6.643c0.736,1.224 1.409,2.712 2.588,3.703c5.97,4.998 12.819,8.772 19.161,13.357c2.865,2.071 5.637,4.288 8.195,6.83c2.566,2.538 5.666,7.724 8.888,11.535c1.195,1.414 2.353,2.65 3.566,3.225c0.498,0.235 1.251,0.166 2.039,0.111c1.913,-0.132 3.975,-0.566 5.16,-0.699c3.556,-0.407 8.673,-0.632 12.86,-2.211c2.328,-0.879 4.385,-2.154 5.377,-4.383c0.141,-0.321 -0.022,-0.536 -0.173,-0.74c-0.273,-0.366 -0.589,-0.711 -0.877,-1.062c-0.797,-0.974 -1.388,-2.013 -1.51,-3.19c-0.097,-0.938 0.051,-1.997 0.765,-3.207c1.689,-2.888 4.056,-5.2 6.018,-7.875c0.704,-0.959 1.346,-1.975 1.854,-3.105c0.79,-1.764 0.704,-5.235 0.226,-8.628c-0.472,-3.341 -1.337,-6.653 -2.614,-8.127c-3.798,-4.353 -8.898,-6.093 -14.361,-6.544c-8.883,-0.734 -18.695,1.882 -26.365,3.331c-4.08,0.779 -8.128,1.391 -12.164,2.198c-1.664,0.333 -3.324,0.703 -4.984,1.131c-2.115,0.551 -6.962,1.554 -11.275,3.272c-0.824,0.329 -1.626,0.687 -2.374,1.078Z"/><path d="M146.728,213.089c0.962,4.486 2.991,11.429 5.891,16.39c2.899,4.961 7.364,9.202 11.508,13.375c4.226,4.256 9.418,7.9 13.845,12.156c4.723,4.539 10.404,9.734 14.488,15.08c3.993,5.227 7.782,10.815 10.02,17c2.246,6.204 2.257,13.494 3.453,20.229c1.241,6.992 2.2,14.755 3.994,21.722c1.762,6.839 3.639,15.578 6.77,20.077c2.64,3.793 8.355,4.097 12.018,6.916c5.026,3.869 12.236,13.328 18.143,16.299c5.171,2.6 11.554,0.81 17.299,1.523c9.777,1.213 29.731,5.997 41.364,5.758c9.775,-0.2 20.931,-4.545 28.435,-7.19c5.885,-2.075 11.451,-5.138 16.587,-8.683c5.275,-3.64 10.249,-8.548 15.063,-13.161c5.405,-5.179 12.435,-11.8 17.366,-17.913c4.686,-5.811 8.891,-13.537 12.219,-18.767c2.65,-4.164 6.359,-9.13 7.753,-12.613c1.029,-2.572 0.965,-6.282 0.609,-8.287c-0.27,-1.524 -4.262,-3.454 -2.742,-3.747c1.895,-0.365 9.384,1.421 14.116,1.554c5.975,0.167 14.56,0.486 21.732,-0.549c7.424,-1.071 16.643,-3.148 22.815,-5.88c5.389,-2.385 10.872,-5.838 14.218,-10.51c3.346,-4.671 5.041,-11.415 5.856,-17.518c1.184,-8.865 0.9,-25.641 1.25,-35.674c0.284,-8.175 2.103,-16.443 0.846,-24.525c-1.439,-9.246 -6.096,-20.707 -9.478,-30.953c-5.052,-15.301 -15.914,-47.533 -20.83,-60.854c-2.417,-6.55 -3.734,-14.127 -8.665,-19.071c-6.787,-6.803 -22.477,-16.218 -32.057,-21.752c-8.048,-4.65 -16.576,-8.603 -25.422,-11.456c-10.189,-3.285 -23.95,-6.915 -35.713,-8.256c-11.547,-1.316 -23.289,-0.813 -34.866,0.214c-13.738,1.218 -32.123,2.782 -47.56,7.098c-15.706,4.392 -33.19,11.805 -46.679,19.254c-12.451,6.876 -25.642,17.863 -34.257,25.439c-6.645,5.843 -13.456,14.156 -17.434,20.016c-3.08,4.537 -4.501,10.009 -6.432,15.141c-1.969,5.235 -4.298,10.66 -5.381,16.269c-1.377,7.123 -1.296,17.74 -2.878,26.475c-1.67,9.221 -5.932,22.288 -7.142,28.851c-0.637,3.45 -0.857,7.093 -0.122,10.523Z" style="fill:#fff"/><path d="M406.179,292.385c1.772,0.293 3.769,0.636 5.617,0.839c1.082,0.119 2.12,0.203 3.057,0.227c3.718,0.097 8.436,0.249 13.205,0.105c3.049,-0.091 6.119,-0.304 8.973,-0.721c4.43,-0.648 9.484,-1.648 14.179,-2.926c3.407,-0.927 6.627,-2.003 9.299,-3.191c3.388,-1.508 6.807,-3.419 9.768,-5.757c2.102,-1.66 3.976,-3.534 5.467,-5.623c1.503,-2.108 2.709,-4.594 3.658,-7.262c1.299,-3.647 2.125,-7.636 2.624,-11.395c0.392,-2.955 0.628,-6.769 0.775,-10.923c0.297,-8.404 0.238,-18.232 0.468,-24.996c0.195,-5.72 1.138,-11.485 1.259,-17.2c0.055,-2.609 -0.055,-5.208 -0.459,-7.789c-0.474,-3.062 -1.287,-6.36 -2.292,-9.776c-2.069,-7.034 -4.96,-14.586 -7.263,-21.575c-2.909,-8.853 -7.758,-23.367 -12.269,-36.619c-3.299,-9.694 -6.416,-18.714 -8.482,-24.354c-1.442,-3.936 -2.496,-8.234 -4.152,-12.127c-1.251,-2.944 -2.84,-5.662 -5.073,-7.911c-2.954,-2.976 -7.539,-6.447 -12.604,-9.885c-6.761,-4.588 -14.383,-9.135 -19.953,-12.371c-4.093,-2.382 -8.31,-4.586 -12.628,-6.563c-4.335,-1.985 -8.774,-3.739 -13.294,-5.213c-5.263,-1.716 -11.469,-3.526 -17.867,-5.072c-6.17,-1.491 -12.518,-2.735 -18.38,-3.423c-5.902,-0.692 -11.855,-0.919 -17.814,-0.848c-5.896,0.071 -11.796,0.435 -17.656,0.933c-8.471,0.719 -18.696,1.563 -28.923,3.091c-6.564,0.98 -13.128,2.245 -19.242,3.929c-7.883,2.171 -16.207,5.09 -24.27,8.389c-8.267,3.383 -16.257,7.167 -23.208,10.965c-4.906,2.68 -9.926,5.978 -14.752,9.464c-7.669,5.539 -14.841,11.554 -20.244,16.262c-3.3,2.876 -6.642,6.333 -9.686,9.822c-3.326,3.812 -6.292,7.662 -8.456,10.82c-1.392,2.031 -2.491,4.229 -3.443,6.508c-1.284,3.071 -2.285,6.296 -3.467,9.398c-1.215,3.187 -2.56,6.444 -3.686,9.769c-0.791,2.337 -1.473,4.708 -1.948,7.109c-0.337,1.704 -0.597,3.595 -0.816,5.61c-0.702,6.432 -0.954,14.22 -2.194,20.888c-0.325,1.744 -0.749,3.631 -1.227,5.586c-2.045,8.368 -5.05,17.91 -6.058,23.225c-0.367,1.937 -0.61,3.928 -0.669,5.918c-0.062,2.108 0.092,4.214 0.52,6.258l-0,0c0.543,2.48 1.397,5.671 2.532,8.899c1.071,3.045 2.389,6.121 3.915,8.704c1.309,2.215 2.891,4.305 4.627,6.305c2.373,2.733 5.033,5.304 7.581,7.846c0.92,0.918 1.882,1.81 2.871,2.685c3.602,3.184 7.593,6.134 11.101,9.475c2.812,2.678 5.969,5.587 8.92,8.623c1.883,1.938 3.684,3.927 5.239,5.943c1.924,2.494 3.803,5.072 5.47,7.768c1.607,2.6 3.021,5.307 4.068,8.158c0.624,1.7 1.057,3.493 1.394,5.334c0.851,4.651 1.133,9.584 1.983,14.249c0.89,4.896 1.644,10.169 2.641,15.284c0.444,2.276 0.934,4.521 1.502,6.692c1.217,4.643 2.497,10.142 4.158,14.657c0.939,2.552 2.009,4.813 3.219,6.536c1.141,1.625 2.654,2.824 4.399,3.766c2.65,1.431 6.001,2.057 8.399,3.887c3.391,2.588 7.783,7.759 12.09,11.683c2.279,2.077 4.552,3.829 6.658,4.877c1.966,0.979 4.063,1.474 6.242,1.676c3.954,0.366 8.21,-0.364 12.167,0.11c6.778,0.813 18.454,3.323 28.848,4.688c4.774,0.627 9.288,1.015 12.989,0.923c3.99,-0.096 8.198,-0.831 12.315,-1.877c6.298,-1.6 12.382,-3.919 17.063,-5.587c3.081,-1.098 6.079,-2.453 8.976,-4.002c2.865,-1.532 5.633,-3.252 8.289,-5.098c2.226,-1.548 4.402,-3.31 6.534,-5.185c3.027,-2.66 5.967,-5.545 8.849,-8.326c3.263,-3.146 7.114,-6.82 10.743,-10.59c2.452,-2.547 4.804,-5.137 6.815,-7.644c1.859,-2.318 3.647,-4.928 5.334,-7.574c2.609,-4.088 4.977,-8.258 7.017,-11.483c1.759,-2.782 3.986,-5.92 5.692,-8.741c0.948,-1.569 1.743,-3.051 2.256,-4.344c0.583,-1.468 0.894,-3.236 0.989,-4.954c0.102,-1.831 -0.03,-3.596 -0.25,-4.814c-0.008,-0.047 -0.018,-0.096 -0.029,-0.144Zm-5.228,1.425c0.121,0.873 0.173,2.027 0.1,3.217c-0.069,1.125 -0.245,2.29 -0.632,3.249c-0.424,1.052 -1.094,2.249 -1.874,3.524c-1.704,2.782 -3.926,5.874 -5.683,8.617c-2.054,3.208 -4.441,7.358 -7.068,11.425c-1.591,2.463 -3.27,4.896 -5.02,7.052c-1.922,2.37 -4.171,4.817 -6.515,7.222c-3.6,3.695 -7.422,7.289 -10.659,10.371c-2.836,2.699 -5.728,5.501 -8.704,8.082c-1.973,1.71 -3.982,3.32 -6.039,4.73c-2.478,1.697 -5.058,3.278 -7.728,4.682c-2.643,1.39 -5.374,2.604 -8.181,3.583c-4.543,1.584 -10.443,3.799 -16.549,5.306c-3.662,0.903 -7.399,1.55 -10.942,1.61c-3.424,0.056 -7.594,-0.354 -12.004,-0.97c-10.412,-1.454 -22.1,-4.065 -28.889,-4.936c-4.008,-0.514 -8.33,0.174 -12.335,-0.23c-1.344,-0.136 -2.645,-0.416 -3.853,-1.03c-1.622,-0.824 -3.332,-2.241 -5.082,-3.861c-4.429,-4.103 -8.966,-9.466 -12.457,-12.176c-2.661,-2.066 -6.329,-2.932 -9.274,-4.554c-0.765,-0.421 -1.466,-0.907 -1.963,-1.626c-1.183,-1.715 -2.115,-4.146 -2.962,-6.819c-1.241,-3.916 -2.235,-8.329 -3.2,-12.141c-0.685,-2.703 -1.236,-5.529 -1.73,-8.381c-0.765,-4.414 -1.39,-8.889 -2.117,-13.086c-0.807,-4.676 -1.045,-9.615 -1.853,-14.277c-0.395,-2.278 -0.923,-4.494 -1.674,-6.6c-0.959,-2.689 -2.188,-5.275 -3.593,-7.774c-2.025,-3.601 -4.427,-7.018 -6.909,-10.298c-1.71,-2.26 -3.687,-4.496 -5.763,-6.672c-2.994,-3.139 -6.198,-6.152 -9.054,-8.923c-3.547,-3.442 -7.583,-6.497 -11.227,-9.779c-0.859,-0.773 -1.694,-1.561 -2.491,-2.372c-2.388,-2.426 -4.889,-4.874 -7.109,-7.48c-1.387,-1.629 -2.661,-3.321 -3.701,-5.119c-1.245,-2.153 -2.294,-4.72 -3.158,-7.252c-0.981,-2.877 -1.713,-5.718 -2.175,-7.925l-0,-0c-0.306,-1.393 -0.416,-2.831 -0.388,-4.271c0.031,-1.545 0.211,-3.094 0.481,-4.601c0.937,-5.226 3.812,-14.617 5.738,-22.85c0.495,-2.114 0.93,-4.155 1.262,-6.041c0.315,-1.786 0.565,-3.647 0.771,-5.541c0.8,-7.359 0.908,-15.25 1.974,-20.911c0.391,-2.071 0.966,-4.116 1.629,-6.134c1.066,-3.241 2.348,-6.417 3.501,-9.525c1.127,-3.038 2.071,-6.196 3.297,-9.206c0.735,-1.805 1.571,-3.556 2.656,-5.17c2,-2.975 4.748,-6.603 7.83,-10.2c2.794,-3.259 5.859,-6.497 8.895,-9.191c5.225,-4.636 12.161,-10.564 19.589,-16.03c4.554,-3.352 9.292,-6.533 13.929,-9.121c6.711,-3.745 14.43,-7.488 22.423,-10.836c7.788,-3.263 15.834,-6.153 23.458,-8.317c5.86,-1.663 12.156,-2.921 18.453,-3.912c10.075,-1.585 20.153,-2.492 28.502,-3.266c5.709,-0.527 11.459,-0.929 17.207,-1.037c5.702,-0.108 11.402,0.07 17.055,0.695c5.646,0.625 11.762,1.787 17.709,3.183c6.255,1.468 12.324,3.194 17.471,4.835c4.327,1.38 8.578,3.028 12.731,4.897c4.168,1.875 8.238,3.971 12.19,6.237c5.497,3.158 13.019,7.593 19.693,12.075c4.758,3.196 9.084,6.403 11.863,9.175c1.77,1.766 2.997,3.929 3.996,6.246c1.639,3.804 2.681,8.011 4.111,11.858c2.082,5.604 5.234,14.564 8.553,24.2c4.553,13.217 9.424,27.7 12.354,36.533c2.295,6.938 5.178,14.433 7.24,21.416c0.943,3.193 1.714,6.276 2.161,9.139c0.355,2.296 0.443,4.607 0.391,6.926c-0.129,5.694 -1.08,11.437 -1.283,17.136c-0.241,6.761 -0.196,16.587 -0.506,24.988c-0.146,3.971 -0.371,7.617 -0.75,10.441c-0.384,2.857 -0.966,5.862 -1.841,8.708c-0.871,2.829 -2.028,5.5 -3.589,7.672c-1.534,2.133 -3.571,3.972 -5.83,5.559c-2.309,1.62 -4.852,2.972 -7.371,4.081c-3.041,1.339 -6.852,2.504 -10.804,3.466c-3.834,0.934 -7.8,1.672 -11.348,2.177c-2.664,0.379 -5.531,0.562 -8.377,0.636c-4.663,0.123 -9.274,-0.046 -12.909,-0.155c-3.888,-0.119 -9.651,-1.378 -12.578,-1.599c-0.909,-0.068 -1.636,-0.036 -2.12,0.056c-1.213,0.23 -1.777,0.875 -2.092,1.382c-0.386,0.621 -0.532,1.328 -0.361,2.13c0.109,0.508 0.535,1.348 1.416,2.144l1.685,1.534Z"/><path d="M145.841,190.361c-1.71,1.258 -2.245,3.628 -1.169,5.519c0.928,1.297 2.046,2.474 3.987,2.146c0.424,-0.072 1.564,-0.058 2.579,-1.08c0.337,-0.339 1.373,-1.563 1.373,-1.563c-0,-0 -0.173,0.104 -0.221,0.147l3.716,-3.3c2.001,-1.349 4.744,-3.178 7.624,-3.963c1.616,-0.44 3.248,-0.629 4.663,-0.065c2.424,1.16 4.425,2.721 6.004,4.653c1.636,2 2.721,4.398 3.695,6.921c0.479,1.322 1.157,4.19 1.801,6.054c0.385,1.115 0.923,1.922 1.282,2.43c1.183,1.672 2.851,1.649 3.954,1.643c1.245,-0.007 2.661,-0.747 3.789,-3.038c0.775,-2.13 -0.262,-4.481 -2.323,-5.36c-0.868,-1.596 -1.813,-3.637 -2.414,-4.632c-1.645,-2.865 -3.542,-5.42 -5.777,-7.649c-2.262,-2.255 -4.802,-4.233 -7.975,-5.563c-2.298,-1.15 -5.029,-1.201 -7.825,-0.792c-3.6,0.527 -7.287,2.013 -9.952,3.256l-4.941,2.871c-0.298,0.17 -2.11,0.794 -1.87,1.365Zm35.611,12.601c-0.225,0.251 -0.417,0.57 -0.522,0.998c0.132,-0.363 0.308,-0.697 0.522,-0.998Zm6.01,-0.033c0.032,0.028 0.065,0.049 0.065,0.049l-0.065,-0.049Zm-36.145,-12.208c0.286,0.274 0.537,0.594 0.743,0.955c-0.174,-0.394 -0.438,-0.696 -0.743,-0.955Zm-2.155,-1.116c0.431,0.082 0.848,0.231 1.235,0.441c-0.323,-0.218 -0.735,-0.374 -1.235,-0.441Z"/><path d="M165.345,218.497c0.506,-0.668 0.812,-1.292 1.317,-1.645c0.209,-0.146 0.344,-0.39 0.588,-0.405c0.544,-0.033 1.138,0.196 1.876,0.59c0.531,0.403 0.865,1.019 1.161,1.642c0.077,0.163 0.121,0.331 0.142,0.503c-0.079,0.072 -0.155,0.148 -0.228,0.227c-0.041,0.075 -0.108,0.154 -0.069,0.177c0.13,0.075 0.235,0.053 0.322,-0.013c-0.002,0.314 -0.043,0.634 -0.053,0.948c0.013,-0.205 -0.029,-0.478 -0.224,-0.586c-0.269,-0.15 -0.506,0.327 -0.618,0.447c-0.193,0.208 -0.241,0.411 -0.31,0.5c-0.672,0.866 -0.3,1.699 -0.357,2.051c-0.045,0.285 0.129,0.517 0.136,0.76c0.024,0.877 0.762,1.31 1.14,1.902c0.546,0.853 1.635,0.84 2.872,1.142c0.28,0.068 0.573,-0.114 0.934,-0.11c0.343,0.004 0.7,-0.347 1.327,-0.565c0.127,-0.044 0.391,-0.39 1.137,-0.879c0.253,-0.272 0.462,-0.569 0.63,-0.883c0.685,-0.597 0.828,-3.448 0.252,-4.881c-0.53,-1.457 -1.175,-2.852 -2.267,-4.005c-1.029,-1.086 -2.103,-2.124 -3.435,-2.686c-2.212,-1.43 -3.988,-1.591 -5.649,-1.45c-1.637,0.138 -3.159,0.929 -5.203,2.212c-0.494,0.284 -1.445,0.769 -2.209,1.301c-0.934,0.65 -1.205,1.665 -1.597,2.458c-0.708,1.431 0.055,2.766 0.98,4.465c1.56,1.752 4.248,1.908 6,0.348c1.047,-0.932 1.524,-2.268 1.405,-3.565Zm-0.547,0.641c-0.154,0.17 -0.32,0.359 -0.479,0.564c-0.029,0.037 -0.025,0.105 -0.017,0.169c0.133,-0.103 0.403,-0.226 0.422,-0.36c0.019,-0.126 0.044,-0.251 0.074,-0.373Zm-0.253,-2.758c-0.057,-0.122 -0.135,-0.232 -0.257,-0.318c0.092,0.103 0.177,0.209 0.257,0.318Z"/><g id="Cara"><g><path d="M312.461,314.697c0.674,3.233 6.548,5.865 9.028,7.078c11.992,5.866 15.991,8.705 28.63,8.51c2.902,-0.045 13.547,-2.832 16.392,-3.323c0.354,-0.061 11.681,-4.528 11.681,-5.333" style="fill:none;stroke:#000;stroke-width:7px"/><path d="M301.323,321.629c6.422,-0.036 15.285,-8.58 15.285,-16.448" style="fill:none;stroke:#000;stroke-width:7px"/><animate id="Cara-1" attributeName="display" values="inline;none" keyTimes="0;1" dur="400ms" begin="0s" restart="always" fill="remove"/></g></g><g id="Ojos"><path d="M297.943,208.996c-0.267,1.933 -0.189,20.234 4.004,23.897c4.86,4.245 12.149,11.409 19.572,9.745c4.244,-0.951 7.451,-4.172 10.785,-6.653c15.959,-11.878 22.491,-39.774 9.612,-56.13c-1.749,-2.222 -3.897,-3.892 -6.263,-5.402c-1.63,-1.039 -3.157,-2.45 -5.088,-2.897c-15.069,-3.488 -23.561,10.489 -28.998,21.401c-2.579,5.176 -2.895,10.753 -3.624,16.039Z"/><path d="M293.733,208.415c-0.202,1.467 -0.272,11.629 1.294,18.954c0.855,4.003 2.385,7.205 4.124,8.724c3.141,2.744 7.26,6.573 11.751,8.848c3.683,1.865 7.611,2.726 11.546,1.844c4.833,-1.082 8.597,-4.565 12.394,-7.391c8.78,-6.535 15.035,-17.436 17.256,-28.993c2.253,-11.725 0.346,-24.046 -6.842,-33.176c-2.05,-2.603 -4.545,-4.586 -7.317,-6.355c-2.028,-1.293 -4.013,-2.898 -6.416,-3.454c-9.137,-2.115 -16.303,0.987 -21.986,6.35c-5.045,4.76 -8.848,11.422 -11.774,17.296c-2.794,5.608 -3.24,11.627 -4.03,17.353Zm8.42,1.161c0.668,-4.844 0.854,-9.979 3.218,-14.724c2.51,-5.038 5.672,-10.821 10,-14.904c3.689,-3.482 8.304,-5.624 14.236,-4.251c1.46,0.338 2.528,1.553 3.76,2.339c1.96,1.25 3.761,2.608 5.21,4.448c5.691,7.227 6.957,17.031 5.174,26.313c-1.816,9.449 -6.806,18.436 -13.984,23.778c-2.873,2.138 -5.521,5.097 -9.177,5.916c-2.63,0.589 -5.176,-0.609 -7.554,-2.106c-3.161,-1.99 -6.005,-4.694 -8.293,-6.693c-0.394,-0.345 -0.553,-1.043 -0.807,-1.823c-0.473,-1.45 -0.817,-3.197 -1.08,-5.021c-0.829,-5.736 -0.85,-12.207 -0.703,-13.272Z"/><path d="M482.409,189.365c-0.58,-1.1 -11.185,-21.404 -18.407,-24.45c-7.422,-3.131 -14.421,11.254 -15.598,13.207c-2.598,4.315 -1.481,8.785 -4.2,13.088c-1.993,3.154 -1.79,6.819 -2.793,10.521c-2.342,8.64 -3.057,22.214 2.015,30.448c5.54,8.992 15.766,7.857 23.161,5.138c1.229,-0.451 2.642,-0.288 3.81,-0.944c2.724,-1.531 5.197,-4.922 7.391,-7.344c1.143,-1.261 2.721,-2.091 3.716,-3.529c6.585,-9.521 6.664,-25.22 0.905,-36.135Z"/><path d="M486.168,187.382c-0.421,-0.799 -5.948,-11.349 -11.788,-18.695c-2.944,-3.704 -6.083,-6.573 -8.726,-7.688c-3.631,-1.532 -7.241,-0.753 -10.511,1.539c-5.217,3.656 -9.46,11.866 -10.379,13.392c-1.321,2.192 -1.929,4.401 -2.353,6.63c-0.404,2.125 -0.483,4.295 -1.8,6.38c-2.222,3.517 -2.184,7.551 -3.302,11.679c-2.6,9.593 -3.133,24.647 2.499,33.789c6.789,11.021 19.182,10.23 28.245,6.898c0.504,-0.185 1.063,-0.168 1.595,-0.263c0.988,-0.175 1.94,-0.465 2.831,-0.965c3.079,-1.73 5.978,-5.458 8.458,-8.194c1.266,-1.397 2.961,-2.373 4.062,-3.966c7.388,-10.682 7.63,-28.291 1.169,-40.536Zm-17.777,45.241l-1.343,0.22c-0.659,0.108 -1.306,0.257 -1.928,0.485c-5.732,2.108 -13.781,3.592 -18.075,-3.378c-4.513,-7.326 -3.616,-19.42 -1.532,-27.107c0.441,-1.627 0.68,-3.246 0.936,-4.827c0.257,-1.588 0.468,-3.143 1.348,-4.536c1.393,-2.205 2.042,-4.429 2.482,-6.677c0.423,-2.159 0.486,-4.363 1.766,-6.488c0.647,-1.073 3.156,-6.283 6.573,-9.629c0.676,-0.662 1.381,-1.247 2.132,-1.633c0.514,-0.264 1.048,-0.455 1.601,-0.222c1.691,0.713 3.492,2.776 5.376,5.145c5.422,6.821 10.532,16.631 10.924,17.372c5.057,9.585 5.14,23.374 -0.642,31.735c-0.888,1.283 -2.35,1.967 -3.37,3.092c-1.888,2.084 -3.91,5.095 -6.248,6.448Z"/></g><path d="M213.264,118.591c2.284,1.636 3.977,6.546 5.112,8.929c3.46,7.266 6.047,14.84 8.479,22.513c0.949,2.994 4.617,6.873 3.546,10.173c-1.241,3.819 -6.008,3.357 -8.898,2.056c-0.252,-0.113 -3.782,-1.917 -3.908,-1.569c-1.278,3.514 0.781,10.484 0.781,14.288c-0,1.959 0.709,4.516 -1.263,5.627c-10.718,6.033 -24.211,-1.055 -35.716,0.595c-4.041,0.579 -8.362,0.098 -12.326,0.812c-8.946,1.611 -17.98,8.932 -26.096,0.757c-1.463,-1.474 -3.252,-2.907 -4.57,-4.491c-0.926,-1.112 -1.075,-2.739 -1.564,-4.059c-4.531,-12.223 4.004,-18.14 7.155,-28.897c1.223,-4.174 0.483,-11.02 3.909,-14.125c0.722,-0.654 -2.557,-3.193 -2.886,-3.626c-1.727,-2.274 -2.211,-5.103 -1.744,-7.954c0.906,-5.539 3.19,-6.181 7.095,-9.091c0.994,-0.741 2.636,-3.282 3.788,-3.626c4.924,-1.472 11.9,-0.03 16.716,1.028c8.287,1.82 16.728,3.085 25.194,3.085c4.833,-0 10.924,-0.101 15.454,1.947c1.894,0.856 5.827,3.612 2.224,4.492"/><path d="M144.427,131.018c-0.601,0.967 -1.055,2.058 -1.387,3.237c-0.933,3.321 -0.812,7.441 -1.623,10.314c-2.236,7.867 -7.245,13.244 -8.197,20.221c-0.417,3.055 -0.163,6.394 1.303,10.292c0.353,0.945 0.542,2.043 0.943,3.01c0.266,0.641 0.604,1.238 1.045,1.766l4.718,4.647c3.853,3.902 7.895,4.845 12.031,4.481c5.298,-0.467 10.808,-3.484 16.267,-4.439c0.722,-0.125 1.457,-0.203 2.2,-0.256c3.312,-0.238 6.767,-0.01 10.047,-0.457c7.893,-1.05 16.683,2.114 24.883,2.167c4.169,0.027 8.191,-0.683 11.95,-2.74c1.336,-0.731 2.102,-1.783 2.55,-2.993c0.576,-1.551 0.317,-3.596 0.337,-5.287c0.035,-2.431 -0.727,-6.142 -0.971,-9.451c2.352,0.996 5.478,1.463 8.004,0.763c2.357,-0.653 4.285,-2.208 5.235,-4.996c0.594,-1.743 0.467,-3.596 -0.13,-5.473c-0.763,-2.399 -2.643,-4.866 -3.257,-6.907c-1.408,-4.701 -2.877,-9.363 -4.557,-13.95c-1.138,-3.108 -2.378,-6.177 -3.758,-9.201c-0.793,-1.737 -1.868,-4.712 -3.213,-6.998l-0.037,-0.061c0.544,-0.981 0.736,-2.022 0.567,-3.117c-0.142,-0.92 -0.539,-1.97 -1.351,-2.944c-1.138,-1.365 -3.347,-2.814 -4.805,-3.443c-2.195,-0.947 -4.674,-1.516 -7.242,-1.801c-3.36,-0.373 -6.871,-0.301 -9.911,-0.252c-4.076,0.064 -8.15,-0.172 -12.207,-0.633c-4.105,-0.466 -8.191,-1.15 -12.243,-1.974c-3.027,-0.617 -6.862,-1.36 -10.558,-1.524c-2.79,-0.124 -5.507,0.067 -7.826,0.795c-0.627,0.197 -1.368,0.595 -2.081,1.24c-0.938,0.847 -1.96,2.406 -2.666,2.947c-2.782,2.133 -4.775,3.305 -6.158,5.407c-0.904,1.376 -1.615,3.115 -2.009,5.728c-0.271,1.784 -0.251,3.557 0.112,5.237c0.383,1.779 1.12,3.464 2.279,4.954c0.135,0.173 1.004,1.012 1.716,1.691Zm65.092,-14.434c-1.387,-0.608 -2.948,-0.979 -4.559,-1.212c-3.006,-0.435 -6.161,-0.446 -8.892,-0.49c-4.4,-0.069 -8.787,-0.457 -13.149,-1.091c-4.294,-0.624 -8.562,-1.474 -12.789,-2.472c-2.709,-0.638 -6.136,-1.437 -9.46,-1.68c-1.862,-0.136 -3.687,-0.123 -5.281,0.271c-0.447,0.491 -2.391,2.607 -3.135,3.146c-1.839,1.332 -3.312,2.087 -4.402,3.223c-0.8,0.834 -1.289,1.933 -1.623,3.824c-0.184,1.05 -0.216,2.097 -0.024,3.095c0.172,0.901 0.507,1.764 1.058,2.534c0.243,0.22 1.439,1.317 2.067,2.017c0.676,0.753 1.151,1.52 1.336,2.086c0.485,1.485 0.077,2.647 -0.853,3.471c-1,0.885 -1.417,2.265 -1.731,3.733c-0.657,3.068 -0.746,6.531 -1.507,9.041c-1.987,6.577 -5.975,11.326 -7.758,16.831c-0.981,3.029 -1.166,6.323 0.342,10.452c0.297,0.806 0.472,1.722 0.764,2.573c0.095,0.275 0.192,0.549 0.375,0.769l4.423,4.334c2.601,2.605 5.309,3.254 8.084,2.989c5.165,-0.495 10.493,-3.56 15.81,-4.545c0.887,-0.166 1.791,-0.277 2.705,-0.355c3.196,-0.274 6.538,-0.081 9.7,-0.557c8.085,-1.242 17.187,1.733 25.61,1.601c3.058,-0.048 6.014,-0.566 8.746,-2.083c-0.024,-0.464 -0.108,-2.22 -0.119,-3.108c-0.036,-2.525 -1.034,-6.453 -1.292,-9.807c-0.166,-2.15 -0.016,-4.114 0.506,-5.617c0.283,-0.814 1.655,-2.805 4.44,-2.056c1.086,0.293 3.751,1.574 3.982,1.674c0.777,0.337 1.755,0.571 2.698,0.581c0.587,0.006 1.252,-0.004 1.449,-0.642c0.175,-0.567 -0.218,-1.12 -0.495,-1.72c-1.011,-2.19 -2.59,-4.384 -3.21,-6.246c-1.509,-4.507 -3.073,-8.976 -4.842,-13.364c-1.161,-2.878 -2.416,-5.717 -3.802,-8.509c-0.669,-1.348 -1.534,-3.543 -2.593,-5.433c-0.411,-0.733 -0.797,-1.442 -1.308,-1.795c-1.756,-1.257 -2.268,-3.61 -1.271,-5.463Zm3.114,-3.229l0.104,-0.028c-0.036,0.008 -0.071,0.017 -0.104,0.028Z"/><path d="M398.641,56.411c-3.713,-0.832 -8.643,4.783 -11.725,6.549c-10.001,5.731 -20.599,10.321 -30.666,16.018c-3.032,1.715 -5.998,3.556 -8.838,5.574c-0.756,0.537 -2.675,1.988 -3.728,1.516c-2.713,-1.217 -3.987,-7.388 -3.187,-9.904c0.304,-0.957 0.864,-1.802 1.383,-2.651c0.293,-0.48 1.114,-1.954 0.842,-1.462c-2.224,4.033 -8.954,6.318 -12.447,9.093c-12.966,10.3 -25.114,21.274 -42.691,22.566c-2.709,0.199 -9.463,1.988 -10.824,-1.082c-1.479,-3.337 2.821,-7.109 5.051,-8.875c0.116,-0.093 2.361,-1.989 2.465,-1.895c0.663,0.601 -5.714,5.048 -6.132,5.303c-8.048,4.903 -16.953,8.506 -25.374,12.717c-11.475,5.737 -25.188,8.659 -38.063,8.659c-1.353,0 -3.98,-1.089 -4.087,-2.651c-0.05,-0.723 -0.283,-2.434 0.119,-3.085c0.217,-0.352 2.073,-2.368 1.324,-1.244c-6.729,10.093 -23.968,9.829 -34.394,7.196c-2.275,-0.574 -5.021,-0.479 -7.035,-1.839c-2.565,-1.732 -3.054,-3.799 -4.209,-6.495c-0.174,-0.404 -0.158,-2.699 -0.541,-2.813c-1.706,-0.51 -4.158,0.912 -5.713,1.353c-3.972,1.128 -7.834,2.673 -11.844,1.46c-5.601,-1.693 -11.945,-0.515 -17.799,-2.272c-2.154,-0.647 -5.499,-2.357 -5.772,-5.088c-1.342,-13.421 13.635,-22.058 24.411,-26.246c3.823,-1.485 7.488,-3.04 11.545,-3.733c1.295,-0.222 2.526,-0.418 3.788,-0.757c0.7,-0.188 2.829,-0.541 2.105,-0.541c-4.207,-0 -8.367,3.096 -12.867,2.164c-5.727,-1.186 -0.447,-9.689 1.623,-11.257c2.895,-2.193 6.435,-3.404 9.621,-5.086c6.554,-3.459 12.182,-7.42 19.602,-8.929c4.674,-0.95 9.197,-0.573 13.89,-1.028c0.747,-0.072 3.812,0.089 4.388,-0.433c0.214,-0.194 -5.155,-5.476 -5.292,-6.819c-0.512,-5.046 5.703,-11.122 9.381,-13.908c6.664,-5.048 15.223,-5.72 23.269,-6.601c2.608,-0.286 7.04,-1.403 9.682,-0.542c3.821,1.245 6.802,4.336 10.343,6.06c0.275,0.135 2.82,1.652 3.005,1.57c0.362,-0.162 1.004,-2.336 1.203,-2.706c1.384,-2.586 3,-5.312 4.81,-7.629c2.917,-3.734 10.076,-6.912 14.792,-7.793c11.155,-2.084 19.081,1.964 29.043,6.006c1.301,0.528 3.081,0.773 4.148,1.733c0.819,0.737 2.947,5.601 4.81,4.491c3.451,-2.057 6.351,-7.618 9.32,-10.499c5.688,-5.518 16.928,-8.847 24.892,-7.739c4.085,0.568 13.379,2.25 16.415,4.818c3.94,3.331 8.726,9.949 13.349,12.012c1.452,0.648 6.936,-3.631 8.418,-4.275c5.395,-2.345 13.996,-0.862 17.799,3.79c7.663,9.376 3.56,20.725 -1.863,30.033c-2.707,4.646 -3.73,8.846 -8.719,7.522"/><path d="M311.687,17.156c-0.398,-0.552 -0.858,-1.197 -1.101,-1.567c-0.446,-0.678 -0.863,-1.179 -1.153,-1.437c-0.58,-0.516 -1.264,-0.936 -2.019,-1.264c-0.998,-0.435 -2.164,-0.673 -3.096,-1.045c-6.262,-2.502 -11.759,-4.984 -17.679,-6.077c-4.074,-0.752 -8.341,-0.879 -13.151,0.046c-3.046,0.586 -7.024,2.036 -10.426,3.982c-2.542,1.453 -4.762,3.187 -6.162,4.998c-0.964,1.245 -1.878,2.598 -2.732,3.989c-0.831,1.353 -1.608,2.739 -2.323,4.09l-0.025,0.055l-0.293,-0.156c-2.407,-1.159 -4.542,-2.981 -6.883,-4.371c-1.224,-0.726 -2.494,-1.353 -3.851,-1.789c-1.109,-0.356 -2.448,-0.489 -3.877,-0.44c-2.418,0.084 -5.155,0.69 -7.004,0.901c-4.978,0.568 -10.144,1.075 -14.964,2.505c-3.439,1.021 -6.707,2.497 -9.641,4.739c-2.342,1.785 -5.623,4.815 -7.821,8.116c-1.797,2.7 -2.844,5.6 -2.568,8.233c0.059,0.559 0.434,1.561 1.236,2.659c0.393,0.536 0.898,1.151 1.434,1.772c-3.055,0.261 -6.045,0.205 -9.057,0.445c-1.479,0.117 -2.963,0.301 -4.46,0.611c-3.155,0.652 -6.007,1.713 -8.736,2.994c-3.902,1.831 -7.546,4.121 -11.527,6.235c-2.235,1.185 -4.642,2.14 -6.881,3.362c-1.069,0.583 -2.102,1.223 -3.071,1.96c-1.776,1.351 -5.388,6.837 -5.166,10.583c0.061,1.016 0.307,1.955 0.808,2.752l-1.224,0.478c-6.719,2.603 -14.966,6.893 -20.294,12.861c-3.946,4.42 -6.33,9.738 -5.717,15.933c0.167,1.7 1.037,3.18 2.309,4.37c1.517,1.42 3.633,2.401 5.231,2.885c1.281,0.389 2.584,0.651 3.898,0.835c4.677,0.655 9.517,0.149 13.881,1.481c1.979,0.604 3.928,0.672 5.87,0.432c2.472,-0.305 4.933,-1.146 7.43,-1.848c0.81,-0.228 1.854,-0.702 2.917,-1.061c0.075,0.485 0.154,0.916 0.211,1.051c0.769,1.808 1.297,3.346 2.204,4.716c0.703,1.061 1.608,2.035 2.939,2.938c0.839,0.571 1.767,0.967 2.747,1.252c1.661,0.483 3.504,0.573 5.114,0.986c6.533,1.676 15.601,2.452 23.397,0.615c3.038,-0.716 5.881,-1.83 8.351,-3.406c0.372,0.49 0.844,0.939 1.401,1.327c1.397,0.971 3.316,1.509 4.544,1.513c6.636,0.031 13.491,-0.692 20.17,-2.151c6.73,-1.47 13.28,-3.693 19.253,-6.645c5.911,-2.92 12.056,-5.545 17.983,-8.521c0.465,-0.233 0.929,-0.469 1.391,-0.708c0.065,0.201 0.142,0.401 0.229,0.6c0.89,2.039 2.808,3.277 5.398,3.65c2.828,0.406 6.741,-0.409 8.701,-0.542c7.463,-0.507 14.023,-2.645 20.09,-5.727c8.828,-4.485 16.583,-11.03 24.626,-17.346c0.448,-0.351 0.949,-0.694 1.487,-1.033c-0.077,-1.088 0.695,-3.447 2.786,-7.692c-0.411,1.502 -0.426,3.796 0.004,6.079l-1.098,0.612c-0.582,0.333 -0.573,0.327 -1.153,0.67l-0.539,0.331c0.09,1.284 1.363,0.796 3.047,-0.456c-0.1,-0.382 -0.185,-0.769 -0.257,-1.157c1.61,-0.892 3.294,-1.812 4.752,-2.852c-1.495,1.481 -3.129,2.995 -4.495,4.009c0.124,0.492 0.272,0.976 0.441,1.445c0.972,2.682 2.701,4.757 4.586,5.617c0.896,0.409 1.952,0.542 3.096,0.337c1.561,-0.28 3.567,-1.585 4.451,-2.205c1.366,-0.958 2.763,-1.871 4.182,-2.75c1.43,-0.886 2.884,-1.734 4.352,-2.553c8.046,-4.485 16.427,-8.26 24.573,-12.48c2.092,-1.083 4.169,-2.197 6.222,-3.356c1.846,-1.042 4.352,-3.392 6.866,-5.032c0.7,-0.456 2.043,-0.314 2.025,-0.948c2.233,0.411 4.412,-1.016 4.912,-3.25c0.239,-1.062 0.056,-2.122 -0.439,-3.004c0.505,-0.951 1.031,-1.976 1.633,-3.026c3.578,-6.238 6.522,-13.323 6.515,-20.206c-0.005,-4.991 -1.454,-9.908 -5.193,-14.421c-2.454,-2.966 -6.379,-5.021 -10.614,-5.837c-4.098,-0.789 -8.429,-0.44 -11.766,1.034c-0.749,0.332 -2.422,1.453 -4.166,2.57c-0.641,0.411 -1.583,0.924 -2.187,1.242c-0.819,-0.5 -1.636,-1.162 -2.457,-1.892c-3.202,-2.848 -6.341,-6.663 -9.068,-8.94c-1.277,-1.066 -3.376,-2.088 -5.856,-2.892c-4.188,-1.358 -9.544,-2.267 -12.432,-2.651c-4.418,-0.587 -9.736,0.008 -14.736,1.564c-5.081,1.581 -9.821,4.134 -13.006,7.262c-2.077,2.039 -4.132,5.351 -6.344,7.937c-0.326,0.381 -0.652,0.746 -0.985,1.075Zm75.787,40.274c-0.097,-0.577 -0.075,-1.182 0.085,-1.784c0.602,-2.267 2.931,-3.619 5.198,-3.017c0.266,0.073 0.446,0.248 0.609,0.16c0.193,-0.103 0.319,-0.301 0.468,-0.503c0.992,-1.344 1.803,-3.22 2.955,-5.166c2.466,-4.168 4.701,-8.77 5.415,-13.416c0.634,-4.119 0.018,-8.268 -3.011,-12.025c-1.361,-1.686 -3.641,-2.718 -6.019,-3.206c-2.496,-0.513 -5.15,-0.445 -7.198,0.43c-1.088,0.465 -4.344,2.881 -6.559,3.858c-2.099,0.925 -3.916,0.804 -4.92,0.348c-1.781,-0.808 -3.606,-2.135 -5.383,-3.755c-3.112,-2.837 -6.14,-6.635 -8.793,-8.905c-0.984,-0.843 -2.87,-1.47 -4.91,-2.064c-3.456,-1.006 -7.378,-1.701 -9.632,-2.029c-3.51,-0.51 -7.742,-0.023 -11.735,1.166c-3.999,1.19 -7.782,3.065 -10.309,5.486c-1.978,1.897 -3.915,5.02 -6.025,7.431c-1.262,1.443 -2.588,2.67 -3.96,3.478c-1.551,0.913 -3.155,0.867 -4.727,-0.087c-1.41,-0.855 -3.659,-4.25 -4.045,-4.844l-3.101,-1.127c-5.818,-2.397 -10.902,-4.825 -16.415,-5.904c-3.351,-0.656 -6.867,-0.798 -10.84,-0.077c-2.107,0.382 -4.756,1.275 -7.215,2.481c-2.339,1.148 -4.535,2.546 -5.781,4.125c-0.845,1.072 -1.645,2.239 -2.397,3.438c-0.775,1.237 -1.5,2.506 -2.169,3.742c-0.177,0.327 -0.711,1.987 -1.099,2.619c-0.492,0.801 -1.103,1.199 -1.512,1.379c-0.281,0.124 -1.363,0.52 -2.738,-0.112c-0.753,-0.347 -2.519,-1.4 -2.749,-1.513c-2.546,-1.255 -4.817,-3.18 -7.291,-4.679c-0.846,-0.513 -1.719,-0.97 -2.659,-1.281c-0.763,-0.253 -1.741,-0.221 -2.754,-0.144c-2.047,0.157 -4.205,0.605 -5.73,0.765c-4.664,0.489 -9.508,0.885 -14.031,2.184c-2.81,0.808 -5.495,1.967 -7.901,3.775c-1.98,1.489 -4.776,4.003 -6.644,6.769c-0.984,1.457 -1.769,2.956 -1.746,4.393c0.854,1.393 3.178,3.812 4.17,4.98c0.434,0.512 0.707,0.916 0.809,1.115c0.878,1.698 -0.064,2.813 -0.552,3.253c-0.397,0.356 -1.156,0.77 -2.203,0.928c-1.19,0.18 -3.121,0.106 -3.703,0.161c-3.315,0.31 -6.545,0.21 -9.803,0.447c-1.268,0.092 -2.541,0.238 -3.827,0.495c-2.747,0.549 -5.231,1.463 -7.612,2.563c-3.837,1.774 -7.416,4.013 -11.33,6.066c-2.222,1.167 -4.616,2.103 -6.843,3.307c-0.85,0.46 -1.675,0.96 -2.446,1.542c-0.817,0.616 -2.205,2.635 -2.894,4.582c-0.339,0.959 -0.846,2.037 0.267,2.268c0.685,0.143 1.36,0.153 2.027,0.085c1.314,-0.39 2.653,-0.717 4.033,-0.952l0.042,-0.009c2.107,-0.639 4.183,-1.331 6.264,-1.329c1.241,0.001 1.747,0.597 1.884,0.734c0.949,0.948 1.099,2.002 0.272,3.171c-0.128,0.181 -0.493,0.689 -1.338,0.959c-0.358,0.115 -1.737,0.365 -2.284,0.512l-4.013,0.803l-0.084,0.016c-0.962,0.316 -1.931,0.616 -2.915,0.806c-0.319,0.061 -0.639,0.114 -0.96,0.152l-0.413,0.131c-2.254,0.727 -4.445,1.631 -6.694,2.507c-6.065,2.364 -13.559,6.175 -18.362,11.577c-3.003,3.377 -4.926,7.396 -4.449,12.121c0.068,0.665 0.615,1.129 1.169,1.544c0.895,0.671 1.987,1.123 2.836,1.375c4.528,1.346 9.358,0.844 13.884,1.421c1.338,0.171 2.652,0.424 3.933,0.808c1.259,0.377 2.5,0.386 3.734,0.227c2.218,-0.286 4.415,-1.088 6.655,-1.73c1.117,-0.32 2.681,-1.109 4.126,-1.41c1.084,-0.226 2.128,-0.221 3.048,0.051c0.614,0.182 1.455,0.674 1.881,1.856c0.192,0.534 0.382,2.225 0.43,2.684c0.575,1.365 0.959,2.558 1.662,3.606c0.36,0.538 0.83,1.022 1.509,1.478c0.536,0.359 1.161,0.533 1.8,0.673c1.467,0.319 3.022,0.423 4.407,0.767c5.819,1.446 13.884,2.12 20.802,0.434c3.396,-0.827 6.519,-2.224 8.841,-4.486c0.102,-0.3 0.228,-0.566 0.368,-0.791c0.217,-0.35 1.539,-1.841 2.017,-2.225c0.886,-0.711 1.712,-0.703 2.016,-0.686c0.878,0.046 1.521,0.419 1.993,0.965c0.388,0.448 0.875,1.183 0.651,2.381c-0.033,0.175 -0.124,0.652 -0.605,1.367c-0.32,0.477 -0.661,0.934 -1.022,1.372l0.005,0.101l0.034,0.592c0.31,0.164 0.978,0.497 1.284,0.495c6.22,-0.028 12.638,-0.766 18.884,-2.191c6.235,-1.424 12.299,-3.538 17.818,-6.331c5.869,-2.97 11.977,-5.641 17.859,-8.672c2.316,-1.193 4.595,-2.445 6.808,-3.795c1.239,-1.422 2.653,-2.652 3.717,-3.485c0.101,-0.079 1.699,-1.404 2.372,-1.864c2.109,-1.442 4.001,-0.135 4.282,0.122c0.855,0.784 1.985,2.933 -0.038,5.225c-1.067,1.209 -4.013,3.381 -5.596,4.499c-0.306,0.379 -0.582,0.776 -0.793,1.185c-0.097,0.19 -0.216,0.376 -0.259,0.563c0.545,0.038 2.025,0.124 2.931,0.028c1.797,-0.19 3.547,-0.533 4.645,-0.62c6.479,-0.513 12.15,-2.456 17.391,-5.193c8.375,-4.375 15.667,-10.754 23.274,-16.867c2.413,-1.939 6.36,-3.663 9.325,-5.87c0.797,-0.594 1.517,-1.211 1.98,-1.943l0.17,-0.295c0.049,-0.086 0.08,-0.14 0.088,-0.153c6.919,-11.337 10.409,-4.075 6.572,3.587l-0.135,0.252l-0.015,0.025c-0.092,0.166 -0.69,1.237 -0.901,1.588l-0.99,1.834c-0.184,0.591 -0.038,1.529 0.156,2.481c0.128,0.632 0.317,1.269 0.566,1.842l0.35,-0.236c1.474,-1.062 2.981,-2.076 4.513,-3.052c1.52,-0.969 3.066,-1.898 4.628,-2.795c8.057,-4.627 16.458,-8.547 24.62,-12.908c1.99,-1.064 3.966,-2.155 5.918,-3.29c0.775,-0.452 1.667,-1.146 2.627,-1.92Z"/><path d="M184.307,213.46c-0.223,0.529 -0.406,1.062 -0.482,1.514c-0.333,1.98 0.397,3.478 1.43,4.405c0.792,0.71 1.782,1.236 2.923,1.561c-0.821,0.802 -2.029,2.047 -2.899,3.215c-1.054,1.416 -1.621,2.87 -1.705,3.879c-0.164,1.951 0.583,3.445 2.233,4.43c1.378,0.821 3.053,1.274 4.914,1.379c-1.006,1.139 -1.906,2.212 -2.677,3.169c-0.282,0.35 -1.887,2.131 -3.088,4.041c-0.946,1.502 -1.615,3.105 -1.77,4.417c-0.277,2.337 0.529,4.219 2.587,5.422c1.448,0.847 3.083,1.353 4.841,1.557c-0.09,0.169 -0.163,0.329 -0.22,0.478c-0.427,1.106 -0.388,2.076 -0.176,2.825c0.309,1.095 0.973,2.004 2.18,2.576c0.376,0.178 0.775,0.324 1.193,0.437c-1.079,1.563 -2.285,3.59 -2.502,5.092c-0.325,2.255 0.467,4.002 2.378,5.058c1.521,0.84 3.238,1.208 5.061,1.169c-0.409,1.003 -0.594,1.953 -0.581,2.592c0.039,1.945 1.061,3.069 2.502,3.583c2.542,0.906 5.94,0.004 9.273,-2.467c1.494,-1.108 3.019,-2.512 4.458,-3.974c-0.676,1.763 -1.322,3.538 -1.912,5.34c-1.103,3.373 -2.017,6.832 -2.591,10.458c-0.131,0.824 -0.989,5.695 -0.675,8.375c0.323,2.751 1.96,4.135 3.469,4.423c0.245,0.046 0.488,0.074 0.729,0.08l-1.275,4.023c-0.351,1.093 -1.319,3.26 -1.396,4.313c-0.081,1.103 0.258,1.931 0.667,2.489c0.24,0.326 0.529,0.641 0.89,0.889c-0.184,0.246 -0.36,0.493 -0.527,0.739c-2.297,3.388 -2.919,6.856 -1.817,9.515c0.492,1.186 1.396,2.141 2.745,2.627c0.15,1.083 0.501,1.954 0.952,2.538c0.43,0.558 0.918,0.951 1.455,1.191c-0.326,1.489 -0.576,3.229 -0.352,4.462c0.297,1.628 1.173,2.749 2.431,3.313c1.727,0.774 3.53,0.793 5.312,0.187c-0.329,1.407 -0.656,3.245 -0.624,4.807c0.035,1.742 0.548,3.21 1.377,4.125c2.574,2.841 5.975,2.713 9.49,0.478c2.288,-1.454 4.655,-3.923 6.624,-6.262c-1.101,2.686 -2.109,5.301 -2.466,7.622c-0.116,0.749 -0.51,4.86 0.079,6.231c0.573,1.336 1.581,1.902 2.672,1.982c0.178,0.013 0.357,0.017 0.537,0.011c-0.555,1.237 -1.318,3.039 -1.524,4.378c-0.205,1.333 0.066,2.433 0.547,3.153c0.67,1.003 1.504,1.419 2.332,1.555c0.754,0.124 1.596,0.001 2.452,-0.503c0.866,-0.511 1.904,-1.809 2.828,-3.061c-0.103,0.381 -0.201,0.763 -0.295,1.146c-0.176,0.716 -0.558,2.682 -0.571,4.231c-0.012,1.289 0.296,2.374 0.708,2.989c1.202,1.8 2.924,2.206 4.847,1.635c2.082,-0.618 4.587,-3.038 5.242,-3.696c3.661,-3.673 6.856,-7.747 10.326,-11.584c1.418,-1.568 2.883,-3.095 4.454,-4.53l0.062,-0.051c-1.404,2.363 -2.911,4.593 -3.313,5.437c-0.587,1.236 -1.989,4.286 -2.02,5.054c-0.051,1.248 0.58,1.942 1.124,2.32c0.499,0.345 1.735,1.04 3.323,-0.231c0.773,-0.618 1.509,-1.294 2.216,-2.013c-0.112,0.328 -0.213,0.659 -0.307,0.992c-0.17,0.604 -1.128,3.757 -0.988,5.526c0.137,1.732 1.064,2.767 2.21,3.158c1.892,0.646 4.286,0.12 6.702,-1.344l-0.052,0.129c-0.05,0.13 -0.992,2.908 -1.031,4.514c-0.038,1.597 0.725,2.623 1.483,3.068c1.486,0.875 3.313,0.805 5.164,-0.107c2.442,-1.204 5.026,-4.038 5.889,-4.94c1.415,-1.478 2.724,-3.04 3.947,-4.665c-0.176,0.661 -0.342,1.324 -0.497,1.989c-0.244,1.045 -0.751,3.814 -0.421,5.767c0.306,1.817 1.282,3.078 2.676,3.569c1.436,0.506 2.956,0.231 4.383,-0.675c1.881,-1.195 3.627,-3.717 4.33,-4.602c2.082,-2.622 4.067,-5.32 6.003,-8.055c2.87,-4.053 5.633,-8.186 8.452,-12.264l0.605,-0.86c-0.601,1.814 -1.21,3.717 -1.775,5.617c-0.447,1.502 -0.865,3.003 -1.229,4.455c-0.268,1.068 -1.345,7.399 -0.269,10.435c0.434,1.224 1.163,2.086 2.053,2.576c1.089,0.599 2.612,0.814 4.628,-0.302c3.406,-1.887 6.361,-5.187 8.89,-9.026c0.116,-0.177 0.232,-0.355 0.347,-0.535c-0.151,1.08 -0.268,2.678 0.019,3.873c0.364,1.518 1.269,2.567 2.542,2.999c2.603,0.884 5.355,0.01 7.88,-2.082c3.881,-3.216 7.321,-9.456 8.689,-11.834l2.511,-4.505c-0.066,0.722 -0.084,1.355 -0.038,1.849c0.279,2.96 2.102,3.781 3.923,3.397c2.614,-0.551 5.286,-2.247 7.81,-4.592c4.614,-4.286 8.843,-10.786 11.677,-14.243l4.514,-5.795c-0.557,3.63 -2.008,7.736 -2.218,10.29c-0.026,0.317 -0.212,4.187 0.237,5.25c0.436,1.035 1.184,1.512 1.852,1.72c0.685,0.212 1.487,0.229 2.369,-0.308c3.019,-1.838 5.501,-5.032 7.518,-8.91c3.809,-7.324 6.018,-17.181 8.28,-22.912c0.698,-1.767 1.092,-2.791 1.505,-3.709c0.069,-0.153 0.138,-0.303 0.21,-0.453c0.738,-1.056 1.501,-2.099 2.206,-3.176c0.649,-0.992 1.252,-2.011 1.761,-3.084c0.689,-1.453 0.204,-2.359 0.112,-2.562c-0.169,-0.375 -1.123,-1.444 -2.33,-1.621c0.577,-1.954 1.121,-3.91 1.645,-5.855c0.222,-0.825 2.006,-5.338 2.397,-8.156c0.273,-1.967 -0.217,-3.473 -0.852,-4.222c-0.759,-0.892 -1.725,-1.424 -2.849,-1.551c0.077,-0.231 0.146,-0.46 0.209,-0.687c0.849,-3.052 0.429,-5.737 -1.228,-7.418c-1.941,-1.969 -5.206,-2.321 -8.912,-1.113c-2.065,0.672 -4.307,1.798 -6.375,2.994c-0.171,-0.382 -0.388,-0.731 -0.642,-1.042c-1.617,-1.98 -4.571,-2.601 -8.072,-1.724c-1.498,0.374 -3.123,1.008 -4.692,1.726c-0.207,-1.264 -0.781,-2.359 -1.691,-3.197c-1.164,-1.073 -3.118,-1.906 -6.254,-1.648l-0.691,0.108c0.318,-1.177 0.362,-2.263 0.145,-3.145c-0.529,-2.145 -2.484,-4.477 -7.926,-3.757c-3.268,0.432 -6.464,1.459 -9.567,2.804c-1.075,0.466 -2.138,0.97 -3.189,1.499c-0.713,-0.75 -1.72,-1.305 -3.124,-1.545c-4.96,-0.845 -10.18,0.522 -15.205,2.987c-1.064,0.523 -2.121,1.094 -3.164,1.7c-0.186,-0.589 -0.467,-1.146 -0.848,-1.662c-0.972,-1.319 -2.604,-2.165 -4.64,-2.346c-2.466,-0.219 -5.683,0.615 -7.063,1.113c-3.534,1.275 -6.98,2.914 -10.355,4.731l-0.797,0.434c-3.679,-0.709 -7.756,0.053 -11.862,1.763c-2.191,0.913 -4.399,2.103 -6.55,3.415l-0.012,-0.097c-0.253,-1.637 -1.191,-2.614 -2.296,-3.148c-1.627,-0.786 -3.525,-1 -5.515,-0.734c-3.108,0.416 -6.522,2.124 -8.634,3.202c-3.875,1.978 -7.478,4.343 -10.847,7.015c-1.936,1.535 -3.794,3.174 -5.579,4.899c-0.897,0.222 -1.799,0.56 -2.688,0.996c-2.819,1.381 -5.559,3.829 -7.414,5.491c-1.481,1.326 -2.904,2.711 -4.293,4.132c-0.213,-0.508 -0.485,-0.964 -0.813,-1.367c-0.076,-1.078 -0.663,-1.727 -1.156,-2.105c-0.522,-0.4 -1.853,-1.313 -3.599,-0.04c-1.311,-0.039 -2.819,0.25 -4.136,0.642c2.47,-5.493 5.125,-10.889 7.246,-16.592c0.642,-1.728 -0.09,-2.693 -0.2,-2.874c-0.311,-0.513 -3.283,-2.955 -5.268,-0.012c-0.324,0.481 -1.326,2.345 -1.75,3.089l-1.223,2.193c1.46,-3.953 2.97,-7.886 4.532,-11.796c0.338,-0.846 1.116,-1.784 1.714,-2.716c0.81,-1.266 1.379,-2.546 1.515,-3.648c0.195,-1.584 -0.232,-3.007 -1.546,-4.205c-1.286,-1.172 -2.509,-1.083 -3.49,-0.74c-0.661,0.232 -1.382,0.708 -1.905,1.622c-0.291,0.508 -0.752,2.356 -0.81,2.591l-3.019,7.018c-1.251,2.911 -2.537,5.795 -3.888,8.647c-0.292,0.615 -0.586,1.229 -0.884,1.84c0.485,-2.145 1.09,-4.231 1.771,-6.282c2.509,-7.562 6.012,-14.663 8.584,-22.327c0.429,-1.279 0.114,-2.081 -0.011,-2.416c-0.524,-1.412 -1.534,-2.043 -2.8,-2.189c-0.514,-0.06 -1.557,-0.095 -2.644,0.821c-0.252,0.212 -0.897,1.04 -1.419,1.681c-0.105,-0.072 -0.218,-0.139 -0.338,-0.204c-0.863,-0.464 -2.171,-0.701 -3.684,-0.194c-1.528,0.512 -3.756,2.125 -4.117,2.377c-2.298,1.601 -4.474,3.374 -6.458,5.335l-0.353,0.354c-1.209,0.68 -2.479,1.31 -3.745,1.789c-0.81,0.305 -1.613,0.587 -2.375,0.717c0.698,-0.976 1.405,-1.769 1.556,-1.948c1.717,-2.034 3.633,-3.829 5.673,-5.474c3.357,-1.892 6.416,-4.051 7.976,-4.942l3.736,-2.207c0.796,-0.467 2.693,-1.105 3.477,-1.589c0.82,-0.507 1.296,-1.099 1.546,-1.531c0.696,-1.199 0.666,-2.346 0.212,-3.393c-0.27,-0.621 -0.793,-1.535 -2.16,-2.062c0.488,-0.79 0.482,-1.448 0.495,-1.659c0.091,-1.398 -0.474,-2.368 -1.276,-3.068c-0.543,-0.474 -1.318,-0.925 -2.466,-0.925c-2.455,0.006 -5.226,0.857 -8.014,2.282c-3.492,1.785 -7.074,4.474 -10.014,6.8c-1.279,0.475 -2.59,0.891 -3.887,1.196c-1.568,0.368 -3.113,0.626 -4.485,0.457c0.062,-0.1 0.123,-0.194 0.181,-0.278c0.951,-1.366 2.034,-2.533 2.244,-2.79c2.717,-3.343 7.184,-8.257 12.084,-12.163c1.716,-0.77 3.191,-1.474 4.24,-1.93l6.495,-3.077c0.717,-0.349 2.488,-1.193 2.858,-1.498c1.127,-0.931 1.373,-1.987 1.449,-2.598c0.146,-1.165 -0.16,-2.193 -0.928,-3.078c-0.352,-0.406 -1.258,-1.512 -3.38,-1.372c-4.384,0.291 -9.339,2.736 -13.999,6.233l-0.423,0.322c-2.139,0.946 -4.593,1.938 -6.981,2.586l-0.181,0.048c2.235,-2.001 4.65,-4.009 7.177,-5.857c2.73,-1.997 5.591,-3.807 8.494,-5.198c0.203,-0.098 0.322,-0.168 0.377,-0.2c3.066,-1.8 1.838,-4.735 1.677,-5.112c-0.38,-0.89 -1.306,-2.533 -3.856,-2.463c-0.103,0.003 -0.64,-0.006 -1.426,0.299c-0.26,0.102 -1.167,0.49 -1.53,0.657l-3.932,1.792c-1.422,0.617 -4.364,2.085 -7.359,3.065c0.485,-0.596 1.002,-1.195 1.539,-1.771c0.479,-0.514 0.968,-1.02 1.462,-1.473l0.396,-0.234c0.765,-0.451 2.681,-1.525 3.163,-1.874c1.001,-0.726 1.352,-1.51 1.48,-1.806c0.536,-1.244 0.391,-2.301 0.079,-3.127c-0.338,-0.893 -0.938,-1.698 -1.99,-2.239c-0.058,-0.029 -0.156,-0.087 -0.294,-0.15c0.261,-0.207 0.518,-0.418 0.741,-0.656c0.264,-0.282 0.504,-0.586 0.712,-0.915c1.71,-2.701 0.292,-4.502 -0.33,-5.216c-0.702,-0.804 -1.919,-1.736 -3.92,-1.423c-0.313,0.048 -0.78,0.157 -1.325,0.409c-0.517,0.238 -1.518,0.878 -1.983,1.142l-3.699,2.416c-1.458,1.099 -7.049,5.331 -9.07,8.762c-1.415,2.403 -1.504,4.715 -0.661,6.52c0.594,1.272 1.645,2.296 3.122,2.784Zm176.09,58.099c-0.137,0.008 -0.275,0.021 -0.409,0.04c-2.692,0.366 -5.315,1.248 -7.868,2.366c-1.636,0.716 -3.243,1.53 -4.818,2.385c-0.388,1.294 -0.959,2.494 -1.529,3.303c-1.86,2.643 -5.047,5.618 -8.563,7.328c-2.738,1.331 -5.666,1.896 -8.392,1.3c-1.236,-0.27 -1.931,-0.922 -2.363,-1.581c-0.611,-0.932 -0.905,-2.256 -0.148,-3.788c0.619,-1.254 2.842,-3.283 4.066,-4.086l6.823,-4.101c-2.074,0.433 -4.158,1.262 -6.21,2.279c-3.446,1.707 -6.789,3.971 -9.853,6.186c-1.544,1.969 -3.269,3.816 -5.113,5.54c-2.153,2.014 -4.465,3.861 -6.826,5.543c-1.083,0.77 -3.046,2.358 -4.915,3.125c-1.466,0.602 -2.924,0.766 -4.192,0.46c-2.144,-0.518 -2.736,-1.901 -2.874,-3.16c-0.078,-0.711 0.028,-1.642 0.672,-2.602c0.581,-0.865 2.444,-2.28 3.331,-2.969l9.31,-6.486c1.614,-1.112 3.4,-2.433 5.313,-3.818c0.209,-0.27 0.413,-0.544 0.613,-0.82c0.35,-0.483 0.914,-1.26 1.364,-2.126l0.019,-0.039c-1.093,0.144 -2.599,0.368 -3.121,0.558c-3.209,1.175 -6.334,2.688 -9.398,4.355c-0.396,0.216 -0.791,0.434 -1.185,0.655c-0.407,0.745 -1.047,1.636 -1.86,2.524c-1.904,2.082 -4.741,4.445 -4.831,4.515c-2.204,1.721 -4.502,3.277 -6.875,4.714c-2.334,1.412 -4.739,2.71 -7.197,3.937c-0.477,0.238 -3.943,2.169 -6.274,2.589c-1.61,0.289 -2.968,-0.002 -3.889,-0.555c-0.933,-0.561 -1.451,-1.235 -1.721,-1.93c-2.052,2.105 -4.309,4.215 -6.56,5.839c-3.058,2.207 -6.187,3.522 -8.922,3.516c-0.594,-0.001 -1.094,-0.086 -1.516,-0.227c-1.479,1.539 -3.008,2.775 -4.035,3.326c-1.049,0.562 -3.846,1.26 -5.722,0.886c-1.779,-0.353 -3.049,-1.294 -3.694,-2.709l-0.341,0.351c-1.09,1.137 -2.163,2.292 -3.231,3.453c0.281,0.366 0.51,0.866 0.56,1.547c0.029,0.395 -0.342,2.038 -0.573,2.681c-0.339,0.945 -0.677,1.727 -1.073,2.504c-0.365,0.715 -0.781,1.425 -1.305,2.262c-0.881,1.41 -2.517,4.221 -4.543,6.965c-0.947,2.438 -1.751,4.875 -2.429,7.143c-0.289,0.968 -0.688,4.769 -0.749,5.364c0.428,0.297 0.953,0.04 1.497,-0.23c1.188,-0.587 2.405,-1.62 3.579,-2.778c3.075,-3.033 5.776,-6.964 6.643,-8.098l2.875,-3.939c0.282,-0.369 0.764,-1.251 1.07,-1.597c0.469,-0.53 0.969,-0.783 1.318,-0.903c0.937,-0.321 1.755,-0.16 2.46,0.298c0.453,0.295 1.112,0.834 1.287,2.053c0.332,2.316 -0.099,4.921 -0.964,7.626c-1.496,4.681 -4.393,9.74 -5.039,13.855c-0.008,0.051 -0.018,0.143 -0.029,0.266c0.358,-0.421 0.705,-0.886 1.044,-1.377c2.315,-3.35 4.204,-7.777 5.339,-9.579l2.896,-4.287c0.317,-0.438 1.031,-1.566 1.256,-1.853c1.923,-2.448 4.344,-0.089 4.585,0.399c0.081,0.163 0.633,1.014 0.001,2.423c-1.754,3.91 -3.927,7.632 -6.082,11.376c0.576,-0.896 1.143,-1.797 1.702,-2.7c0.527,-0.851 1.539,-3.128 2.592,-4.793c0.776,-1.226 1.645,-2.163 2.375,-2.599c1.623,-0.968 2.706,-0.226 3.164,0.136c0.562,0.444 1.159,1.207 0.993,2.478c-0.067,0.511 -1.196,2.484 -1.614,3.317l-2.015,3.949c-1.65,3.5 -3.273,7.113 -4.644,10.801c-0.899,2.417 -1.689,4.867 -2.302,7.338c-0.066,0.265 -0.152,0.984 -0.228,1.701c0.744,-0.567 1.577,-1.214 1.785,-1.422c3.609,-3.608 6.754,-7.615 10.176,-11.384c1.529,-1.685 3.112,-3.323 4.806,-4.865c0.282,-0.257 4.76,-4.23 6.744,-5.064c1.934,-0.812 3.257,0.008 3.857,0.862c0.438,0.623 0.677,1.668 0.526,2.972c0.536,-0.747 1.09,-1.516 1.577,-2.056c1.01,-1.118 2.111,-1.538 2.786,-1.561c1.147,-0.039 2.468,0.356 2.95,2.427c0.275,1.179 0.11,2.32 -0.374,3.425c-0.598,1.365 -1.869,2.671 -2.645,3.949c-1.387,2.284 -2.908,4.602 -4.167,7.025c-0.781,1.505 -1.46,3.052 -1.916,4.662c-0.064,0.225 -0.299,1.316 -0.501,2.267l0.004,-0.002c0.791,-0.358 1.611,-0.895 2.43,-1.513c3.002,-2.263 5.934,-5.548 7.381,-6.831l4.379,-4.004c0.257,-0.248 0.664,-0.916 0.915,-1.178c0.371,-0.386 0.742,-0.589 0.997,-0.692c0.985,-0.4 1.795,-0.176 2.433,0.278c0.407,0.29 1.082,0.859 1.081,2.156c-0,1.274 -0.482,2.367 -1.303,3.332c-0.881,1.036 -2.391,1.833 -3.24,2.904c-1.393,1.757 -2.735,3.549 -3.93,5.429c-1.154,1.816 -2.171,3.713 -2.955,5.747c-0.009,0.023 -0.069,0.262 -0.151,0.591c0.287,-0.209 0.568,-0.438 0.838,-0.671c1.177,-1.012 2.166,-2.123 2.614,-2.591c1.977,-2.063 3.724,-4.306 5.317,-6.658c2.447,-3.614 4.532,-7.485 6.51,-11.375l1.774,-3.724c0.369,-0.798 0.864,-2.651 1.268,-3.445c0.294,-0.578 0.647,-0.949 0.911,-1.154c0.831,-0.645 1.67,-0.676 2.426,-0.419c0.501,0.17 1.311,0.561 1.717,1.835c0.239,0.749 0.254,1.784 0.007,2.893c-0.361,1.622 -1.278,3.518 -1.397,3.851c-1.427,3.994 -3.004,8.002 -4.383,12.06c-0.899,2.642 -1.712,5.305 -2.341,7.999c-0.107,0.46 -0.199,1.907 -0.251,2.941c0.185,-0.147 0.365,-0.303 0.502,-0.447c0.932,-0.981 1.688,-2.118 2.078,-2.61c2.024,-2.552 3.954,-5.179 5.836,-7.841c2.857,-4.04 5.607,-8.16 8.414,-12.225l5.834,-8.29c0.081,-0.101 2.122,-2.208 2.973,-2.977c2.263,-2.046 4.415,0.99 4.448,1.376c0.119,1.375 -0.099,2.898 -0.534,4.459c-0.785,2.815 -2.315,5.799 -3.056,8.026l-3.186,10.629c-0.178,0.712 -1.025,4.645 -0.55,6.986c2.643,-1.562 4.874,-4.241 6.854,-7.257c3.269,-4.979 5.802,-10.899 7.925,-15.127c0.044,-0.088 1.48,-4.076 2.716,-6.187c0.822,-1.406 1.854,-2.169 2.488,-2.365c1.17,-0.363 1.989,-0.006 2.587,0.489c0.439,0.362 0.83,0.91 0.969,1.703c0.117,0.664 -0.192,2.137 -0.336,2.876l-1.275,4.347c-1.212,3.897 -2.872,7.819 -4.143,11.788c-0.517,1.617 -0.968,3.242 -1.285,4.877c-0.061,0.315 -0.106,1.27 -0.129,1.902c0.324,-0.062 0.648,-0.207 0.972,-0.384c0.838,-0.458 1.647,-1.174 2.427,-1.999c2.86,-3.022 5.229,-7.477 6.28,-9.311l3.641,-6.571l2.571,-5.437c0.137,-0.31 1.124,-3.779 2.279,-5.579c0.732,-1.141 1.648,-1.805 2.426,-2.043c1.226,-0.374 2.092,-0.021 2.729,0.484c0.488,0.386 0.916,0.976 1.084,1.83c0.165,0.837 -0.252,2.696 -0.308,3.657c-0.05,0.874 -1.159,7.005 -1.81,10.55c1.416,-0.94 2.803,-2.274 4.161,-3.732c3.748,-4.026 7.098,-9.149 9.466,-12.05c-0,-0 5.463,-7.045 5.463,-7.045c0.063,-0.075 1.315,-1.412 2.439,-2.256c0.804,-0.603 1.622,-0.955 2.183,-1.048c1.492,-0.249 2.54,0.341 3.171,1.545c0.851,1.621 1.06,3.82 0.776,6.251c-0.305,2.605 -1.187,5.547 -1.764,7.998c0.997,-1.576 1.873,-3.378 2.681,-5.269c1.145,-2.682 2.127,-5.553 3.013,-8.346c-1.025,-0.254 -1.845,-0.969 -1.909,-1.066c-0.086,-0.132 -0.85,-1.223 -0.179,-2.782c0.266,-0.619 1.349,-2.764 1.856,-3.592l0.638,-0.947c0.979,-1.981 1.863,-4.014 2.676,-6.08c2.129,-5.414 3.761,-11.053 5.235,-16.598c0.133,-0.501 0.95,-3.374 1.566,-5.536c-0.23,0.156 -0.451,0.319 -0.647,0.481c-0.332,0.273 -0.662,0.559 -0.985,0.852c-0.509,0.787 -0.941,1.417 -1.215,1.817l-2.743,3.687c-0.804,0.958 -2.205,2.939 -3.185,3.523c-0.875,0.522 -1.728,0.616 -2.46,0.479c-0.86,-0.16 -1.741,-0.607 -2.366,-1.762c-0.374,-0.694 -0.613,-1.775 -0.028,-3.064c0.619,-1.363 3.407,-4.131 3.571,-4.304c0.485,-0.512 1.931,-2.097 3.698,-3.759c0.812,-1.26 1.797,-2.899 2.582,-4.579c0.495,-1.059 0.913,-2.132 1.108,-3.116c0.065,-0.328 0.104,-0.641 0.095,-0.932c-0.003,-0.087 0.061,-0.177 0.006,-0.233c-0.313,-0.315 -0.815,-0.125 -1.362,-0.039c-1.506,0.238 -3.232,0.984 -4.934,1.862c-2.218,1.144 -4.378,2.541 -6.019,3.662c-0.292,0.527 -0.616,1.048 -0.966,1.552c-1.331,1.919 -3.019,3.584 -4.556,4.466c-1.594,0.914 -3.152,1.092 -4.424,0.709c-0.906,-0.273 -1.48,-0.832 -1.831,-1.551c-0.251,-0.516 -0.618,-1.505 0.066,-2.77c0.106,-0.196 0.396,-0.626 0.902,-1.139c1.257,-1.274 4.711,-4.243 5.013,-4.451l0.765,-0.532c0.213,-0.464 0.388,-0.881 0.512,-1.185c-0.272,0.005 -0.56,0.043 -0.862,0.098c-1.115,0.203 -2.349,0.648 -3.576,1.175c-2.27,0.975 -4.505,2.242 -6.052,3.145c-1.156,1.553 -2.549,2.955 -3.93,3.916c-2.241,1.559 -4.546,1.943 -6.219,1.336c-2.017,-0.731 -2.266,-2.148 -2.148,-3.324c0.058,-0.572 0.285,-1.324 0.974,-2.019c0.414,-0.419 1.569,-1.05 2.091,-1.401l4.747,-2.908l0.17,-0.097l0.124,-0.203c0.344,-0.577 0.626,-1.162 0.799,-1.722c0.048,-0.156 0.082,-0.37 0.105,-0.544c-0.296,-0.026 -0.83,-0.056 -1.343,-0.012l-2.058,0.305l-5.12,2.284c-0.484,0.453 -0.938,0.837 -1.333,1.13c-0.058,0.043 -4.121,2.755 -5.771,3.247c-2.571,0.765 -3.933,-0.752 -4.378,-1.933c-0.266,-0.705 -0.471,-2.726 1.603,-4.229c1.314,-0.95 4.566,-2.549 6.159,-3.315c0.841,-0.847 1.758,-1.928 2.502,-3.021c0.227,-0.332 0.46,-0.771 0.658,-1.179Zm-134.405,52.186c-0.604,0.583 -1.176,1.091 -1.639,1.419c-1.238,0.875 -2.389,1.092 -3.099,1.094l-0.22,-0.006l-0.124,0.551c-0.156,0.743 -0.154,0.731 -0.307,1.487l-0.208,1.064c0.168,-0.051 0.336,-0.123 0.504,-0.204c0.862,-0.419 1.699,-1.121 2.513,-1.939c0.773,-0.777 1.516,-1.655 2.214,-2.564l0.24,-0.599l0.126,-0.303Zm46.173,-38.597c-0.877,0.407 -1.673,0.83 -2.316,1.162c-3.407,1.758 -6.57,3.859 -9.527,6.226c-0.603,0.483 -1.198,0.977 -1.784,1.482c0.391,0.635 0.653,1.344 0.768,2.118l0.519,-0.313l6.672,-4.355c2.24,-2.35 4.2,-4.677 5.565,-6.189l0.103,-0.131Z" style="fill-opacity:0.85"/><g id="Lentes"><path d="M160.681,185.644c1.365,-0.983 4.661,-0.361 6.241,-0.361c4.446,-0 9.576,-0.13 14.003,-0.792c17.885,-2.673 36.085,-1.916 54.249,-2.304c7.582,-0.161 19.241,1.903 26.565,-0.72" style="fill:#fff;fill-opacity:0.45"/><path d="M162.637,189.417c0.436,1.17 3.269,-0.149 4.285,-0.199c2.736,-0.128 5.713,-0.31 8.64,-0.627c2.01,-0.218 3.99,-0.48 5.85,-0.842c7.031,-1.289 14.112,-2.131 21.253,-2.537c4.311,-0.246 8.637,-0.37 12.967,-0.365c6.533,0.006 13.066,0.307 19.606,0.346c5.255,0.122 12.386,1.359 18.776,1.409c3.333,0.026 6.465,-0.321 9.158,-1.133c2.208,-0.791 3.359,-3.226 2.569,-5.434c-0.791,-2.209 -3.226,-3.36 -5.434,-2.569c-1.902,0.793 -4.168,1.246 -6.6,1.46c-6.288,0.553 -13.416,-0.086 -18.597,0.256c-6.326,0.311 -12.65,0.609 -18.975,0.71c-6.396,0.101 -12.779,0.083 -19.145,0.29c-5.534,0.181 -11.047,0.43 -16.552,1.051c-2.119,0.222 -4.394,0.298 -6.673,0.304c-2.341,0.006 -4.672,-0.086 -6.843,-0.189c-1.152,-0.057 -3.131,-0.42 -4.765,-0.371c-1.596,0.047 -2.953,0.567 -3.96,1.219c-1.903,1.371 -2.335,4.029 -0.964,5.933c1.249,1.732 3.564,2.245 5.404,1.288Z"/><path d="M267.822,176.137c0.892,0 -1.281,1.251 -1.841,1.945c-0.961,1.191 -1.617,2.743 -2.321,4.105c-2.389,4.618 -3.361,9.948 -3.361,15.124c0,15.366 7.081,29.295 18.643,39.68c22.13,19.877 51.784,26.172 80.337,17.858c11.631,-3.387 21.636,-8.06 28.085,-18.939c5.096,-8.6 5.353,-19.994 4.32,-29.597c-2.232,-20.752 -12.742,-41.968 -33.447,-50.122c-15.249,-6.005 -33.197,-3.531 -48.969,-1.296c-14.14,2.003 -22.614,8.774 -33.286,17.212c-1.539,1.217 -9.761,5.566 -9.761,7.344" style="fill:#fff;fill-opacity:0.45"/><path d="M268.605,171.949c-0.242,-0.036 -0.503,-0.058 -0.783,-0.062c-1.267,0 -2.404,0.555 -3.182,1.436c-0.628,-0.027 -1.564,1.643 -1.936,2.116c-0.407,0.519 -0.785,1.079 -1.126,1.67c-0.592,1.026 -1.088,2.146 -1.603,3.173c-1.328,2.654 -2.27,5.499 -2.85,8.426c-0.561,2.835 -0.806,5.741 -0.768,8.603c0.106,8.312 2.108,16.212 5.693,23.412c3.494,7.019 8.464,13.385 14.625,18.791c11.607,10.203 25.124,16.851 39.439,19.849c14.207,2.977 29.204,2.384 43.892,-2.015c6.046,-1.796 11.655,-3.944 16.599,-7.038c5.069,-3.173 9.455,-7.326 12.884,-13.14c2.193,-3.706 3.554,-7.891 4.327,-12.242c1.115,-6.28 0.994,-12.913 0.37,-18.884c-1.089,-10.792 -4.369,-21.702 -10.017,-31.007c-5.739,-9.455 -13.934,-17.245 -24.827,-21.651c-6.427,-2.612 -13.327,-3.788 -20.364,-4.121c-10.143,-0.482 -20.575,0.829 -30.213,2.077c-5.973,0.77 -11.011,2.358 -15.638,4.52c-6.918,3.232 -12.876,7.815 -19.673,13.047c-0.716,0.55 -2.761,1.73 -4.849,3.04Zm-0.883,11.477l-0.378,0.667c-1.053,1.972 -1.81,4.097 -2.304,6.29c-0.513,2.276 -0.768,4.617 -0.798,6.928c-0.091,7.143 1.46,13.974 4.389,20.234c2.942,6.289 7.234,12.011 12.577,16.923c10.554,9.685 22.944,16.146 36.16,19.169c13.27,3.035 27.348,2.627 41.183,-1.287c5.6,-1.598 10.822,-3.481 15.408,-6.303c4.438,-2.73 8.269,-6.344 11.279,-11.397c2.374,-4.003 3.607,-8.663 4.133,-13.434c0.544,-4.942 0.324,-10.005 -0.19,-14.634c-1.142,-10.007 -4.266,-20.124 -9.647,-28.682c-5.238,-8.331 -12.639,-15.162 -22.402,-18.904c-5.827,-2.222 -12.056,-3.119 -18.387,-3.274c-9.754,-0.239 -19.743,1.303 -28.973,2.725c-5.122,0.791 -9.425,2.26 -13.358,4.221c-6.343,3.164 -11.722,7.617 -17.903,12.637c-1.179,0.958 -6.447,7.527 -8.493,6.053c-0.476,0.947 -1.296,1.691 -2.296,2.068Z"/><path d="M377.602,179.235c-1.452,-0.259 3.763,-2.954 4.32,-3.169c3.267,-1.265 6.842,-2.341 10.321,-2.809c6.655,-0.895 14.827,-0.851 21.446,0.29c2.28,0.393 4.112,0.663 6.24,1.512c0.536,0.213 3.282,1.57 3.282,1.15" style="fill:#fff;fill-opacity:0.45"/><path d="M381.073,181.688c0.84,-0.395 1.951,-2.114 2.165,-2.223c1.486,-0.739 3.01,-1.475 4.612,-2.069c1.572,-0.583 3.164,-1.071 4.761,-1.406c1.629,-0.298 3.346,-0.594 5.128,-0.735c1.706,-0.135 3.462,-0.188 5.21,-0.108c3.557,0.163 7.052,0.827 10.19,1.589c1.067,0.29 2.013,0.547 2.952,0.852c0.812,0.264 1.567,0.624 2.407,1.061c0.5,0.264 2.657,1.451 3.541,1.739c1.591,0.518 2.744,-0.217 3.366,-0.509c1.408,-0.66 1.86,-2.003 2.056,-3.67c-0,-2.13 -1.571,-3.896 -3.616,-4.202c-0.237,-0.572 -2.167,-0.45 -2.484,-0.539c-1.06,-0.303 -2.026,-0.548 -3.012,-0.693c-1.326,-0.194 -2.618,-0.305 -4.11,-0.418c-2.831,-0.278 -5.886,-0.313 -9.01,-0.274c-1.774,0.022 -3.56,0.079 -5.328,0.117c-2.778,0.059 -5.501,0.082 -8.025,0.324c-1.895,0.116 -3.806,0.437 -5.721,0.806c-1.895,0.364 -3.747,0.824 -5.549,1.337c-0.436,0.119 -3.096,1.23 -4.712,2.134c-0.894,0.499 -1.461,1.142 -1.825,1.541c-1.379,1.514 -0.952,3.144 -0.648,4.272c0.294,1.09 1.259,2.174 3.432,2.805c1.675,0.3 3.298,-0.428 4.22,-1.731Zm37.891,-5.616c-0.008,0.043 -0.009,0.088 -0.003,0.137l0.003,-0.137Zm-39.456,-0.635c-0.306,-0.196 -0.679,-0.351 -1.157,-0.385c0.412,0.074 0.8,0.205 1.157,0.385Z"/><path d="M416.968,175.779c-5.08,-0 -6.66,5.501 -8.96,8.858c-7.593,11.082 -7.836,27.02 -1.2,38.381c16.898,28.931 61.69,36.878 88.975,19.877c8.238,-5.133 13.542,-13.59 19.043,-21.243c2.896,-4.028 8.998,-6.456 10.563,-11.308c2.541,-7.874 -1.12,-18.091 -3.761,-25.42c-1.772,-4.919 -2.869,-10.748 -5.842,-15.124c-4.105,-6.041 -9.305,-13.186 -15.923,-16.635c-15.801,-8.235 -35.609,-0.134 -50.728,5.402c-9.063,3.318 -18.631,7.888 -26.805,13.035c-0.945,0.595 -7.283,3.133 -7.283,3.961" style="fill:#fff;fill-opacity:0.45"/><path d="M411.584,173.083c-0.303,0.191 -0.594,0.399 -0.875,0.621c-2.679,2.117 -4.244,5.917 -6.052,8.638c-4.117,6.195 -6.245,13.681 -6.357,21.203c-0.111,7.501 1.727,15.02 5.472,21.246c9.067,15.113 25.312,24.723 42.934,28.234c17.475,3.482 36.254,1.004 50.42,-7.975c3.488,-2.192 6.481,-4.94 9.185,-7.975c3.884,-4.359 7.165,-9.317 10.509,-13.99c1.942,-2.692 5.396,-4.608 7.831,-7.104c1.393,-1.428 2.504,-3.015 3.112,-4.872c1.157,-3.527 1.219,-7.483 0.663,-11.486c-0.762,-5.491 -2.702,-11.079 -4.293,-15.601c-1.221,-3.474 -2.118,-7.387 -3.544,-10.949c-0.687,-1.715 -1.494,-3.352 -2.488,-4.846c-2.502,-3.763 -5.417,-7.928 -8.802,-11.458c-2.429,-2.534 -5.109,-4.733 -8.033,-6.295c-6.879,-3.689 -14.491,-4.527 -22.219,-3.81c-10.817,1.003 -21.869,5.154 -31.185,8.426c-4.671,1.638 -9.471,3.602 -14.165,5.793c-4.715,2.201 -9.316,4.64 -13.564,7.229c-0.802,0.489 -5.323,2.283 -6.948,3.375c-0.733,0.492 -1.246,1.047 -1.601,1.596Zm8.966,4.979c-0.754,1.182 -2.077,1.967 -3.582,1.967c-1.029,-0.015 -1.632,0.663 -2.175,1.382c-1.314,1.739 -2.286,3.895 -3.435,5.522c-3.433,4.86 -5.259,10.815 -5.511,16.827c-0.256,6.127 1.067,12.318 3.996,17.485c7.818,13.753 22.309,22.593 38.062,26.052c16.023,3.517 33.368,1.506 46.535,-6.557c3.096,-1.913 5.753,-4.328 8.158,-6.994c3.791,-4.202 6.973,-9.012 10.235,-13.527c2.063,-2.88 5.683,-5.004 8.266,-7.683c0.844,-0.876 1.556,-1.823 1.917,-2.958c0.901,-2.839 0.857,-6.018 0.371,-9.224c-0.777,-5.128 -2.711,-10.319 -4.263,-14.528c-1.08,-2.928 -1.917,-6.185 -3.063,-9.257c-0.692,-1.852 -1.504,-3.631 -2.59,-5.196c-2.395,-3.449 -5.163,-7.277 -8.374,-10.493c-2.023,-2.026 -4.226,-3.799 -6.636,-5.024c-5.843,-2.958 -12.259,-3.425 -18.725,-2.661c-10.232,1.208 -20.579,5.513 -29.328,8.848c-4.395,1.678 -8.907,3.664 -13.308,5.871c-4.381,2.198 -8.645,4.623 -12.573,7.177c-0.449,0.292 -2.321,1.992 -3.977,2.971Z"/></g></g></svg>