<?xml version="1.0" encoding="UTF-8" standalone="no"?><!DOCTYPE svg PUBLIC "-//W3C//DTD SVG 1.1//EN" "http://www.w3.org/Graphics/SVG/1.1/DTD/svg11.dtd"><svg width="100%" height="100%" viewBox="0 0 375 169" version="1.1" xmlns="http://www.w3.org/2000/svg" xmlns:xlink="http://www.w3.org/1999/xlink" xml:space="preserve" xmlns:serif="http://www.serif.com/" style="fill-rule:evenodd;clip-rule:evenodd;stroke-linecap:round;stroke-linejoin:round;stroke-miterlimit:1.5" fill-rule="evenodd" clip-rule="evenodd" stroke-linecap="round" stroke-linejoin="round" stroke-miterlimit="1.5" vector-effect="non-scaling-stroke"><path d="M88.443,4.174l-6.44,0.196l-18.538,0.3l-18.552,1.395l-11.203,0.92l-13.45,0.782l-10.48,3.781l0,11.333l1.099,27.529l-0.481,8.905l0.73,20.515l1.909,22.353l-0.679,17.009l-0.301,29.073l1.087,17.53l8.701,4.173l18.611,0.181l24.928,0.175l16.448,0.282l3.866,-0.658l-0.796,-13.656l-0.373,-21.621l-0.883,-14.734l0.359,-32.728l1.392,-40.559l0.785,-20.071l2.261,-22.405Z" style="fill:#80865f;stroke:#3a4212;stroke-width:0.75px"/><polygon points="-77.45,114.86 -73.08,111.47 -67.38,106.67 -64.7,88.43 -61.64,82.17 -50,65.99 -43.8,54.16 -44.1,43.63 -48.01,28.57 -42.47,31.42 -39.31,34.55 -35.02,38.03 -32.71,40.85 -31.77,44.71 -31.25,52.98 -30.65,61.05 -30.7,70.58 -27.62,62.08 -24.93,56.86 -20.12,52.18 -14.68,47.96 -10.35,43.4 -7.85,39.18 -5.15,34.88 -1.34,29.32 0.19,37.21 2.21,47.88 5.26,57.49 8.59,67.95 14.53,76.23 17.67,82.87 18.69,92.06 20.58,100.32 22.89,92.01 26.16,84.79 29.08,78.36 31.77,74.03 35.44,68.5 41.33,62.77 46.64,57.41 56.89,49.81 57.86,52.59 58.12,54.71 58.36,56.77 58.98,59.03 59.72,60.8 60.9,62.47 62.39,63.59 63.94,64.14 67.52,62.17 71.1,55.79 72.5,49.5 72.35,42.2 72.35,28.12 73.7,21.66 85.14,15.63 85.66,20.93 85.15,27.42 85.55,35.5 87.91,44.14 89.88,48.4 91.93,52.13 95.38,57.26 97.7,58.61 99.54,57.23 100.39,54.88 100.73,52.19 100.73,50.09 100.6,47.64 99.86,45.39 98.93,43.3 97.44,41.27 101.79,42.66 107.41,46.02 112.01,49.49 113.88,52.44 116.85,57.25 118.86,61.22 120.43,65.48 121.58,69.79 124.14,67.48 126.56,65.03 130.29,62.82 133.68,61.11 139.09,60.4 142.96,59.75 148.05,59.47 150.71,59.81 145.67,64.55 143,70.93 140.92,78.69 140.1,83.63 139.14,91.49 138.43,97.47 137.35,104.63 138.01,111.39 140.52,111.72 143.14,111.61 144.67,111.58 146.47,110.98 148.76,109.25 152.18,106.27 153.94,103.68 155.77,100.12 155.96,108 156.42,112 157.03,118.22 157.03,122.28 154.97,128.58 151.64,132.83 147.67,136.24 144.13,139.52 144.19,141.7 146.45,143.92 150.79,145.65 158.06,144.45 162.42,143.24 165.3,140.73 169.91,137.39 172.08,134.11 173.06,142.73 172.96,146.24 171.65,150.45 170.41,155.39 168.79,159.27 166.88,163.18 166.08,167.65 166.61,173.17 169.31,172.94 171.6,172.82 173.12,172.46 175.15,171.96 176.65,171.25 178.26,170.28 180.09,168.98 181.1,167.3 180.57,171.06 180.25,175.49 178.8,179.59 169.72,187.53 164.68,190.53 159.2,193.26 153.1,194.4 143.34,193.84 143.67,195.12 144.55,196.4 145.41,197.57 146.38,198.42 147.39,199.16 147.95,199.56 148.41,199.73 148.65,199.98 142.43,200.43 140.14,199.74 135.55,198.93 132.63,198.34 128.88,197.85 126.54,197.45 123.73,196.92 118.08,195.23 118.2,197.04 118.86,197.8 119.82,198.58 120.75,199.38 121.76,200.39 122.77,200.88 123.7,201.16 125.53,202.22 116.78,202.88 109.85,203.49 104.33,203.27 99.84,202.53 94.06,201.01 90.75,200.21 84.46,198.22 79.26,197.32 79.5,198.5 80.03,199.53 80.95,200.76 82.22,201.98 82.76,202.89 83.81,203.89 84.56,205.33 86.73,206.27 75.83,206.4 68.67,206.45 60.73,205.55 57.59,204.97 50.47,204.33 44.91,202.42 40.31,201.11 35.86,198.92 35.27,200.78 35.57,202.2 36.2,203.13 37.01,204.29 37.74,204.99 38.42,206.02 39.24,207.02 40.62,207.84 37.6,208.46 32.72,208.46 28.72,207.54 26.2,206.53 23.94,205.12 21.64,203.42 18.52,200.4 16.27,199.37 13.64,200.6 9.97,203.51 7.23,204.79 3.8,205.41 0.13,205.84 -4.27,206.38 -7.76,205.89 -10.38,204.6 -8.81,204.05 -7.61,203.63 -6.72,202.95 -5.86,202.11 -5.44,201.18 -4.84,199.88 -4.62,198.47 -4.62,196.93 -8.3,198.75 -11.52,199.38 -15.6,201.02 -21.82,203.65 -25.18,204.68 -29.8,205.79 -33.26,206.11 -35.41,205.55 -33.29,204.61 -31.69,203.32 -30.86,201.76 -29.98,200.35 -29.78,198.83 -29.71,197.47 -29.71,196.38 -29.97,194.82 -33.8,196.48 -36.56,197.73 -40.19,199.68 -44.33,200.39 -47.91,202.21 -53.54,203.15 -58.69,203.18 -63.04,203.26 -61.79,202.32 -60.8,201.71 -58.84,200.7 -57.83,199.85 -57.16,199.19 -56.56,198.24 -56.42,197.17 -56.34,196.06 -61.96,196.47 -64.85,198.47 -67.72,199.22 -71.42,200.88 -76.97,202.21 -83.3,202.42 -89.19,202.55 -94.83,201.76 -93.49,200.88 -91.88,200.01 -89.93,198.97 -88.47,198.17 -87.97,197.54 -87.71,196.65 -87.67,195.78 -87.8,194.88 -94.34,195.89 -96.74,196.07 -98.79,196.25 -100.67,196.67 -105.05,196.91 -109.58,196.63 -113.38,196.39 -117.04,196.02 -116.32,195.38 -115.32,194.64 -114.74,194.17 -114.1,193.48 -113.39,192.85 -112.61,192.04 -111.83,191.38 -110.52,189.69 -112.2,189.98 -114.81,191.1 -116.76,191.93 -120.06,192.34 -123.07,193.34 -125.22,193.47 -126.57,193.34 -129.06,193.12 -128.21,192.19 -127.91,191.31 -127.54,190.28 -127.36,189.32 -127.08,188.49 -126.88,187.29 -126.83,186.16 -126.82,183.96 -132.16,182.92 -136.37,181.7 -140.44,179.87 -143.36,178.99 -145.84,178.35 -147.93,177.82 -150.94,176.78 -154.93,173.65 -159.5,160.25 -161.54,154.14 -161.44,143.44 -156.91,148.11 -153.27,151.84 -152.81,150.97 -151.99,148.69 -150.94,146.54 -149.46,143.97 -148.04,141.85 -146.45,139.72 -145.01,138.65 -141.27,138.81 -136.29,138.97 -134.26,135.5 -132.2,130.96 -130.73,120.8 -129.19,112.28 -125.4,103.32 -114.55,91.06 -111.11,85.8 -107.94,77.16 -97.93,69.59 -94.41,64.01 -94.07,75.15 -93.92,81.21 -93.54,89.32 -89.17,98.03 -86.23,102.59 -83.16,108.17 -79.49,112.72 -77.45,114.86 -77.45,114.86" fill="#f6be00" stroke="#77410e" stroke-width="3px" vector-effect="non-scaling-stroke" id="DoorFire.Effect:Loop.Duration:700ms"><animate id="DoorFire-1" begin="DoorFire-2.begin + 0s" fill="freeze" attributeName="points" dur="700ms" to="-77.45,114.86 -73.08,111.47 -67.38,106.67 -64.7,88.43 -61.64,82.17 -50,65.99 -43.8,54.16 -44.1,43.63 -48.01,28.57 -42.47,31.42 -39.31,34.55 -35.02,38.03 -32.71,40.85 -31.77,44.71 -31.25,52.98 -30.65,61.05 -30.7,70.58 -27.62,62.08 -24.93,56.86 -20.12,52.18 -14.68,47.96 -10.35,43.4 -7.85,39.18 -5.15,34.88 -1.34,29.32 0.19,37.21 2.21,47.88 5.26,57.49 8.59,67.95 14.53,76.23 17.67,82.87 18.69,92.06 20.58,100.32 22.89,92.01 26.16,84.79 29.08,78.36 31.77,74.03 35.44,68.5 41.33,62.77 46.64,57.41 56.89,49.81 57.86,52.59 58.12,54.71 58.36,56.77 58.98,59.03 59.72,60.8 60.9,62.47 62.39,63.59 63.94,64.14 67.52,62.17 71.1,55.79 72.5,49.5 72.35,42.2 72.35,28.12 73.7,21.66 85.14,15.63 85.66,20.93 85.15,27.42 85.55,35.5 87.91,44.14 89.88,48.4 91.93,52.13 95.38,57.26 97.7,58.61 99.54,57.23 100.39,54.88 100.73,52.19 100.73,50.09 100.6,47.64 99.86,45.39 98.93,43.3 97.44,41.27 101.79,42.66 107.41,46.02 112.01,49.49 113.88,52.44 116.85,57.25 118.86,61.22 120.43,65.48 121.58,69.79 124.14,67.48 126.56,65.03 130.29,62.82 133.68,61.11 139.09,60.4 142.96,59.75 148.05,59.47 150.71,59.81 145.67,64.55 143,70.93 140.92,78.69 140.1,83.63 139.14,91.49 138.43,97.47 137.35,104.63 138.01,111.39 140.52,111.72 143.14,111.61 144.67,111.58 146.47,110.98 148.76,109.25 152.18,106.27 153.94,103.68 155.77,100.12 155.96,108 156.42,112 157.03,118.22 157.03,122.28 154.97,128.58 151.64,132.83 147.67,136.24 144.13,139.52 144.19,141.7 146.45,143.92 150.79,145.65 158.06,144.45 162.42,143.24 165.3,140.73 169.91,137.39 172.08,134.11 173.06,142.73 172.96,146.24 171.65,150.45 170.41,155.39 168.79,159.27 166.88,163.18 166.08,167.65 166.61,173.17 169.31,172.94 171.6,172.82 173.12,172.46 175.15,171.96 176.65,171.25 178.26,170.28 180.09,168.98 181.1,167.3 180.57,171.06 180.25,175.49 178.8,179.59 169.72,187.53 164.68,190.53 159.2,193.26 153.1,194.4 143.34,193.84 143.67,195.12 144.55,196.4 145.41,197.57 146.38,198.42 147.39,199.16 147.95,199.56 148.41,199.73 148.65,199.98 142.43,200.43 140.14,199.74 135.55,198.93 132.63,198.34 128.88,197.85 126.54,197.45 123.73,196.92 118.08,195.23 118.2,197.04 118.86,197.8 119.82,198.58 120.75,199.38 121.76,200.39 122.77,200.88 123.7,201.16 125.53,202.22 116.78,202.88 109.85,203.49 104.33,203.27 99.84,202.53 94.06,201.01 90.75,200.21 84.46,198.22 79.26,197.32 79.5,198.5 80.03,199.53 80.95,200.76 82.22,201.98 82.76,202.89 83.81,203.89 84.56,205.33 86.73,206.27 75.83,206.4 68.67,206.45 60.73,205.55 57.59,204.97 50.47,204.33 44.91,202.42 40.31,201.11 35.86,198.92 35.27,200.78 35.57,202.2 36.2,203.13 37.01,204.29 37.74,204.99 38.42,206.02 39.24,207.02 40.62,207.84 37.6,208.46 32.72,208.46 28.72,207.54 26.2,206.53 23.94,205.12 21.64,203.42 18.52,200.4 16.27,199.37 13.64,200.6 9.97,203.51 7.23,204.79 3.8,205.41 0.13,205.84 -4.27,206.38 -7.76,205.89 -10.38,204.6 -8.81,204.05 -7.61,203.63 -6.72,202.95 -5.86,202.11 -5.44,201.18 -4.84,199.88 -4.62,198.47 -4.62,196.93 -8.3,198.75 -11.52,199.38 -15.6,201.02 -21.82,203.65 -25.18,204.68 -29.8,205.79 -33.26,206.11 -35.41,205.55 -33.29,204.61 -31.69,203.32 -30.86,201.76 -29.98,200.35 -29.78,198.83 -29.71,197.47 -29.71,196.38 -29.97,194.82 -33.8,196.48 -36.56,197.73 -40.19,199.68 -44.33,200.39 -47.91,202.21 -53.54,203.15 -58.69,203.18 -63.04,203.26 -61.79,202.32 -60.8,201.71 -58.84,200.7 -57.83,199.85 -57.16,199.19 -56.56,198.24 -56.42,197.17 -56.34,196.06 -61.96,196.47 -64.85,198.47 -67.72,199.22 -71.42,200.88 -76.97,202.21 -83.3,202.42 -89.19,202.55 -94.83,201.76 -93.49,200.88 -91.88,200.01 -89.93,198.97 -88.47,198.17 -87.97,197.54 -87.71,196.65 -87.67,195.78 -87.8,194.88 -94.34,195.89 -96.74,196.07 -98.79,196.25 -100.67,196.67 -105.05,196.91 -109.58,196.63 -113.38,196.39 -117.04,196.02 -116.32,195.38 -115.32,194.64 -114.74,194.17 -114.1,193.48 -113.39,192.85 -112.61,192.04 -111.83,191.38 -110.52,189.69 -112.2,189.98 -114.81,191.1 -116.76,191.93 -120.06,192.34 -123.07,193.34 -125.22,193.47 -126.57,193.34 -129.06,193.12 -128.21,192.19 -127.91,191.31 -127.54,190.28 -127.36,189.32 -127.08,188.49 -126.88,187.29 -126.83,186.16 -126.82,183.96 -132.16,182.92 -136.37,181.7 -140.44,179.87 -143.36,178.99 -145.84,178.35 -147.93,177.82 -150.94,176.78 -154.93,173.65 -159.5,160.25 -161.54,154.14 -161.44,143.44 -156.91,148.11 -153.27,151.84 -152.81,150.97 -151.99,148.69 -150.94,146.54 -149.46,143.97 -148.04,141.85 -146.45,139.72 -145.01,138.65 -141.27,138.81 -136.29,138.97 -134.26,135.5 -132.2,130.96 -130.73,120.8 -129.19,112.28 -125.4,103.32 -114.55,91.06 -111.11,85.8 -107.94,77.16 -97.93,69.59 -94.41,64.01 -94.07,75.15 -93.92,81.21 -93.54,89.32 -89.17,98.03 -86.23,102.59 -83.16,108.17 -79.49,112.72 -77.45,114.86 -77.45,114.86"/><animate id="DoorFire-2" begin="0; DoorFire-1.begin + 700ms" fill="freeze" attributeName="points" dur="700ms" to="-30.7,70.58 -27.62,62.08 -24.93,56.86 -20.12,52.18 -14.68,47.96 -10.35,43.4 -7.85,39.18 -5.14,34.88 -1.34,29.32 0.19,37.21 2.21,47.88 5.26,57.49 8.59,67.95 14.53,76.23 17.67,82.87 18.69,92.06 20.58,100.32 22.89,92.01 26.16,84.79 29.08,78.36 31.77,74.03 35.44,68.5 41.34,62.77 46.64,57.41 56.89,49.81 57.87,52.59 58.12,54.71 58.36,56.77 58.99,59.03 59.72,60.8 60.9,62.47 62.39,63.59 63.94,64.14 67.52,62.17 71.1,55.79 72.51,49.5 72.35,42.2 72.35,28.12 73.7,21.66 85.15,15.63 85.67,20.93 85.15,27.42 85.55,35.5 87.91,44.14 89.88,48.4 91.93,52.13 95.38,57.26 97.7,58.61 99.54,57.23 100.39,54.88 100.73,52.19 100.73,50.09 100.6,47.64 99.86,45.39 98.93,43.3 97.44,41.27 101.79,42.66 107.41,46.02 112.01,49.49 113.88,52.44 116.85,57.25 118.86,61.22 120.43,65.48 121.58,69.79 124.14,67.48 126.56,65.03 130.29,62.82 133.68,61.11 139.09,60.4 142.96,59.75 148.05,59.47 150.71,59.81 145.67,64.55 143,70.93 140.92,78.69 140.1,83.63 139.14,91.49 138.43,97.47 137.35,104.63 138.01,111.39 140.52,111.72 143.14,111.61 144.67,111.58 146.47,110.98 148.76,109.25 152.18,106.27 153.94,103.68 155.77,100.12 155.96,108 156.42,112 157.03,118.22 157.03,122.28 154.97,128.58 151.64,132.83 147.67,136.24 144.13,139.52 144.19,141.7 146.45,143.92 150.79,145.65 158.06,144.45 162.42,143.24 165.3,140.73 169.91,137.39 172.08,134.11 173.06,142.73 172.96,146.24 171.65,150.45 170.41,155.39 168.79,159.27 166.88,163.18 166.08,167.65 166.61,173.17 169.31,172.94 171.6,172.82 173.12,172.46 175.15,171.96 176.65,171.25 178.26,170.28 180.09,168.98 181.1,167.3 180.57,171.06 180.25,175.49 178.8,179.59 169.72,187.53 164.68,190.53 159.2,193.26 153.1,194.4 143.34,193.84 143.67,195.12 144.55,196.4 145.41,197.57 146.38,198.42 147.39,199.16 147.95,199.56 148.41,199.73 148.65,199.98 142.43,200.43 140.14,199.74 135.55,198.93 132.63,198.34 128.88,197.85 126.54,197.45 123.73,196.92 118.08,195.23 118.2,197.04 118.86,197.8 119.82,198.58 120.75,199.38 121.76,200.39 122.77,200.88 123.7,201.16 125.53,202.22 116.78,202.88 109.85,203.49 104.33,203.27 99.84,202.53 94.06,201.01 90.75,200.21 84.46,198.22 79.26,197.32 79.5,198.5 80.03,199.53 80.95,200.76 82.22,201.98 82.76,202.89 83.81,203.89 84.56,205.33 86.73,206.27 75.83,206.4 68.67,206.45 60.73,205.55 57.59,204.97 50.47,204.33 44.91,202.42 40.31,201.11 35.86,198.92 35.27,200.78 35.57,202.2 36.2,203.13 37.01,204.29 37.74,204.99 38.42,206.02 39.24,207.02 40.62,207.84 37.6,208.46 32.72,208.46 28.72,207.54 26.2,206.53 23.94,205.12 21.64,203.42 18.52,200.4 16.27,199.37 13.64,200.6 9.97,203.51 7.23,204.79 3.8,205.41 0.13,205.84 -4.27,206.38 -7.76,205.89 -10.38,204.6 -8.81,204.05 -7.61,203.63 -6.72,202.95 -5.86,202.11 -5.44,201.18 -4.84,199.88 -4.62,198.47 -4.62,196.93 -8.3,198.75 -11.52,199.38 -15.6,201.02 -21.82,203.65 -25.18,204.68 -29.8,205.79 -33.26,206.11 -35.41,205.55 -33.29,204.61 -31.69,203.32 -30.86,201.76 -29.98,200.35 -29.78,198.83 -29.71,197.47 -29.71,196.38 -29.97,194.82 -33.8,196.48 -36.56,197.73 -40.19,199.68 -44.33,200.39 -47.91,202.21 -53.54,203.15 -58.69,203.18 -63.04,203.26 -61.79,202.32 -60.8,201.71 -58.84,200.7 -57.83,199.85 -57.16,199.19 -56.56,198.24 -56.42,197.17 -56.34,196.06 -61.96,196.47 -64.85,198.47 -67.72,199.22 -71.42,200.88 -76.97,202.21 -83.3,202.42 -89.19,202.55 -94.83,201.76 -93.49,200.88 -91.88,200.01 -89.93,198.97 -88.47,198.17 -87.97,197.54 -87.71,196.65 -87.67,195.78 -87.8,194.88 -94.34,195.89 -96.74,196.07 -98.79,196.25 -100.67,196.67 -105.05,196.91 -109.58,196.63 -113.38,196.39 -117.04,196.02 -116.32,195.38 -115.32,194.64 -114.74,194.17 -114.1,193.48 -113.39,192.85 -112.61,192.04 -111.83,191.38 -110.52,189.69 -112.2,189.98 -114.81,191.1 -116.76,191.93 -120.06,192.34 -123.07,193.34 -125.22,193.47 -126.57,193.34 -129.06,193.12 -128.21,192.19 -127.91,191.31 -127.54,190.28 -127.36,189.32 -127.08,188.49 -126.88,187.29 -126.83,186.16 -126.82,183.96 -132.16,182.92 -136.37,181.7 -140.44,179.87 -143.36,178.99 -145.84,178.35 -147.93,177.82 -150.94,176.78 -154.93,173.65 -159.5,160.25 -161.54,154.14 -161.44,143.44 -156.91,148.11 -153.27,151.84 -152.81,150.97 -151.99,148.69 -150.94,146.54 -149.46,143.97 -148.04,141.85 -146.45,139.72 -145.01,138.65 -141.27,138.81 -136.29,138.97 -134.26,135.5 -132.2,130.96 -130.73,120.8 -129.19,112.28 -125.4,103.32 -114.55,91.06 -111.11,85.8 -107.94,77.16 -97.93,69.59 -94.41,64.01 -94.07,75.15 -93.92,81.21 -93.54,89.32 -89.17,98.03 -86.23,102.59 -83.16,108.17 -79.49,112.72 -77.45,114.86 -73.08,111.47 -67.38,106.67 -64.7,88.43 -61.64,82.17 -50,65.99 -43.8,54.15 -44.1,43.62 -48.01,28.57 -42.47,31.42 -39.31,34.55 -35.02,38.03 -32.71,40.85 -31.77,44.71 -31.25,52.98 -30.65,61.05 -30.7,70.58 -30.7,70.58"/></polygon><polygon points="-76.15,127.24 -68.53,124.66 -63.55,120.89 -60.1,113.82 -57.36,105.79 -53.55,98.77 -49.41,91.49 -44.99,84.79 -40.57,74.18 -41.03,84.79 -39.93,89.12 -39.15,93.69 -38.56,98.25 -37.58,101.87 -35.96,105.14 -34.58,108.7 -33.3,112.04 -30.88,105.8 -29.19,99.88 -27.49,95.91 -25.95,91.74 -24.56,88 -21.56,82.55 -16.88,77.24 -9.59,71.09 -7.96,74.91 -6.93,79.83 -3.25,86.51 0.3,91.94 1.98,95.71 3.57,102.02 5.54,108.35 5.59,118.72 10.73,119.06 17.86,116.94 24.85,112.04 30.9,107.92 36.12,101.69 40.37,95.52 44.6,89.19 47.42,82.03 48.39,86.28 48.68,88.07 49.56,89.93 50.44,91.81 50.44,93.37 50.98,95.21 51.88,96.75 52.54,98.93 56.79,94.15 59.39,91.08 63.72,84.79 67.51,80.33 71.06,75.96 74.59,71.55 77.9,66.51 80.8,62.55 82.41,67.2 83.88,70.48 86.73,72.99 89.17,76 91.86,77.74 93.64,79.74 95.02,81.37 99,84.79 99.74,82.53 100.78,79.77 102.29,76.93 103.78,74.04 104.32,71.21 104.98,69.13 105.87,65.74 108.47,67.77 108.83,69.81 110.47,73.94 113.19,77.44 113.87,80.34 114.91,82.46 116.39,84.79 116.79,86.97 118.18,84.79 118.84,83.28 119.95,81.25 122.01,80.17 124.58,78.94 126.26,77.9 128.25,77.57 132.33,77.01 131.81,80.59 130.39,84.79 130.33,88.35 129.74,92.89 129.43,99.1 129.48,105.75 129.78,112.05 129.78,119.76 133.74,119.78 135.19,119.82 137.36,119.82 138.74,119.66 140.61,120 142.03,119.71 143.99,119.11 146.24,118.98 146.08,122.69 143.89,127.12 138.82,133.26 134.94,138.63 133.1,141.79 131.28,143.46 129.94,145.09 128.61,147.3 132.28,149.2 135.99,150.65 142.51,152.39 145.94,153.33 149.92,155.59 152.55,155.62 156.26,155.17 158.94,154.59 157.72,158.43 155.79,162.79 155.79,165.54 155.75,168.83 155.48,172.36 154.95,175.11 154.69,177.06 154.56,178.76 156.78,179.46 158.58,179.41 159.38,179.07 160.31,178.88 161.19,178.83 162.19,178.79 163.18,178.74 164.5,178.7 165.92,180.52 166.47,181.6 167.02,182.2 167.81,183.34 168.33,184.4 168.91,185.37 170.04,187.25 169.72,187.53 164.68,190.53 159.2,193.26 153.1,194.4 143.34,193.84 143.67,195.12 144.55,196.4 145.41,197.57 146.38,198.42 147.39,199.16 147.95,199.56 148.41,199.73 148.65,199.98 142.43,200.43 140.14,199.74 135.55,198.93 132.63,198.34 128.88,197.85 126.54,197.45 123.73,196.92 118.08,195.23 118.2,197.04 118.86,197.8 119.82,198.58 120.75,199.38 121.76,200.39 122.77,200.88 123.7,201.16 125.53,202.22 116.78,202.88 109.85,203.49 104.33,203.27 99.84,202.53 94.06,201.01 90.75,200.21 84.46,198.22 79.26,197.32 79.5,198.5 80.03,199.53 80.95,200.76 82.22,201.98 82.76,202.89 83.81,203.89 84.56,205.33 86.73,206.27 75.83,206.4 68.67,206.45 60.73,205.55 57.59,204.97 50.47,204.33 44.91,202.42 40.31,201.11 35.86,198.92 35.27,200.77 35.57,202.2 36.2,203.13 37.01,204.29 37.74,204.99 38.42,206.02 39.24,207.02 40.62,207.84 37.6,208.46 32.72,208.46 28.72,207.54 26.2,206.53 23.94,205.12 21.64,203.42 18.52,200.4 16.27,199.37 13.64,200.6 9.97,203.51 7.23,204.79 3.8,205.41 0.13,205.84 -4.27,206.38 -7.76,205.89 -10.38,204.6 -8.81,204.04 -7.61,203.63 -6.72,202.95 -5.86,202.11 -5.44,201.18 -4.84,199.88 -4.62,198.47 -4.62,196.93 -8.3,198.75 -11.52,199.38 -15.6,201.02 -21.82,203.65 -25.18,204.68 -29.8,205.79 -33.26,206.11 -35.41,205.55 -33.29,204.61 -31.69,203.32 -30.86,201.76 -29.98,200.35 -29.78,198.83 -29.71,197.47 -29.71,196.38 -29.97,194.82 -33.8,196.48 -36.56,197.73 -40.19,199.68 -44.33,200.39 -47.91,202.21 -53.54,203.15 -58.69,203.18 -63.04,203.26 -61.79,202.32 -60.8,201.71 -58.84,200.7 -57.83,199.85 -57.16,199.19 -56.56,198.24 -56.42,197.17 -56.34,196.06 -61.96,196.47 -64.85,198.47 -67.72,199.22 -71.42,200.88 -76.97,202.21 -83.3,202.42 -89.19,202.55 -94.83,201.76 -93.49,200.88 -91.88,200.01 -89.93,198.97 -88.47,198.17 -87.97,197.54 -87.71,196.65 -87.67,195.78 -87.8,194.87 -94.34,195.89 -96.74,196.07 -98.79,196.25 -100.67,196.67 -105.05,196.91 -109.58,196.63 -113.38,196.39 -117.04,196.02 -116.32,195.38 -115.32,194.64 -114.74,194.17 -114.1,193.48 -113.39,192.85 -112.61,192.04 -111.83,191.38 -110.52,189.69 -112.2,189.98 -114.81,191.1 -116.76,191.93 -120.06,192.34 -123.07,193.34 -125.22,193.47 -126.57,193.34 -129.06,193.12 -128.21,192.19 -127.91,191.31 -127.54,190.28 -127.36,189.32 -127.08,188.49 -126.88,187.29 -126.83,186.16 -126.82,183.96 -132.28,183.31 -136,182.34 -139.95,179.86 -144.1,177.93 -150.15,171.25 -150.94,164.33 -150.32,159.64 -146.36,163.66 -142.87,164.88 -138.89,165.76 -137.56,162.38 -138.3,156.93 -138.46,154.58 -136.75,152.17 -134.89,150.97 -132.19,150.54 -130.23,150.82 -128.5,150.84 -127.09,150.95 -125.93,150.46 -123.32,150.47 -120.43,150.11 -115.45,148.18 -117.29,143.35 -120.81,136.52 -120.81,131.55 -118.4,120.32 -113.74,112.04 -111.45,108.12 -107.07,100.7 -102.26,93.04 -99.46,102.14 -93.97,109.04 -91.16,112.04 -88.67,116.28 -84.95,118.77 -81.61,122.22 -79.39,124.69 -76.15,127.24 -76.15,127.24" fill="#fceb4b" stroke="#915d00" stroke-width="3px" vector-effect="non-scaling-stroke" id="DoorFireInside.Effect:Loop.Duration:700ms"><animate id="DoorFireInside-1" begin="DoorFireInside-2.begin + 0s" fill="freeze" attributeName="points" dur="700ms" to="-76.15,127.24 -68.53,124.66 -63.55,120.89 -60.1,113.82 -57.36,105.79 -53.55,98.77 -49.41,91.49 -44.99,84.79 -40.57,74.18 -41.03,84.79 -39.93,89.12 -39.15,93.69 -38.56,98.25 -37.58,101.87 -35.96,105.14 -34.58,108.7 -33.3,112.04 -30.88,105.8 -29.19,99.88 -27.49,95.91 -25.95,91.74 -24.56,88 -21.56,82.55 -16.88,77.24 -9.59,71.09 -7.96,74.91 -6.93,79.83 -3.25,86.51 0.3,91.94 1.98,95.71 3.57,102.02 5.54,108.35 5.59,118.72 10.73,119.06 17.86,116.94 24.85,112.04 30.9,107.92 36.12,101.69 40.37,95.52 44.6,89.19 47.42,82.03 48.39,86.28 48.68,88.07 49.56,89.93 50.44,91.81 50.44,93.37 50.98,95.21 51.88,96.75 52.54,98.93 56.79,94.15 59.39,91.08 63.72,84.79 67.51,80.33 71.06,75.96 74.59,71.55 77.9,66.51 80.8,62.55 82.41,67.2 83.88,70.48 86.73,72.99 89.17,76 91.86,77.74 93.64,79.74 95.02,81.37 99,84.79 99.74,82.53 100.78,79.77 102.29,76.93 103.78,74.04 104.32,71.21 104.98,69.13 105.87,65.74 108.47,67.77 108.83,69.81 110.47,73.94 113.19,77.44 113.87,80.34 114.91,82.46 116.39,84.79 116.79,86.97 118.18,84.79 118.84,83.28 119.95,81.25 122.01,80.17 124.58,78.94 126.26,77.9 128.25,77.57 132.33,77.01 131.81,80.59 130.39,84.79 130.33,88.35 129.74,92.89 129.43,99.1 129.48,105.75 129.78,112.05 129.78,119.76 133.74,119.78 135.19,119.82 137.36,119.82 138.74,119.66 140.61,120 142.03,119.71 143.99,119.11 146.24,118.98 146.08,122.69 143.89,127.12 138.82,133.26 134.94,138.63 133.1,141.79 131.28,143.46 129.94,145.09 128.61,147.3 132.28,149.2 135.99,150.65 142.51,152.39 145.94,153.33 149.92,155.59 152.55,155.62 156.26,155.17 158.94,154.59 157.72,158.43 155.79,162.79 155.79,165.54 155.75,168.83 155.48,172.36 154.95,175.11 154.69,177.06 154.56,178.76 156.78,179.46 158.58,179.41 159.38,179.07 160.31,178.88 161.19,178.83 162.19,178.79 163.18,178.74 164.5,178.7 165.92,180.52 166.47,181.6 167.02,182.2 167.81,183.34 168.33,184.4 168.91,185.37 170.04,187.25 169.72,187.53 164.68,190.53 159.2,193.26 153.1,194.4 143.34,193.84 143.67,195.12 144.55,196.4 145.41,197.57 146.38,198.42 147.39,199.16 147.95,199.56 148.41,199.73 148.65,199.98 142.43,200.43 140.14,199.74 135.55,198.93 132.63,198.34 128.88,197.85 126.54,197.45 123.73,196.92 118.08,195.23 118.2,197.04 118.86,197.8 119.82,198.58 120.75,199.38 121.76,200.39 122.77,200.88 123.7,201.16 125.53,202.22 116.78,202.88 109.85,203.49 104.33,203.27 99.84,202.53 94.06,201.01 90.75,200.21 84.46,198.22 79.26,197.32 79.5,198.5 80.03,199.53 80.95,200.76 82.22,201.98 82.76,202.89 83.81,203.89 84.56,205.33 86.73,206.27 75.83,206.4 68.67,206.45 60.73,205.55 57.59,204.97 50.47,204.33 44.91,202.42 40.31,201.11 35.86,198.92 35.27,200.77 35.57,202.2 36.2,203.13 37.01,204.29 37.74,204.99 38.42,206.02 39.24,207.02 40.62,207.84 37.6,208.46 32.72,208.46 28.72,207.54 26.2,206.53 23.94,205.12 21.64,203.42 18.52,200.4 16.27,199.37 13.64,200.6 9.97,203.51 7.23,204.79 3.8,205.41 0.13,205.84 -4.27,206.38 -7.76,205.89 -10.38,204.6 -8.81,204.04 -7.61,203.63 -6.72,202.95 -5.86,202.11 -5.44,201.18 -4.84,199.88 -4.62,198.47 -4.62,196.93 -8.3,198.75 -11.52,199.38 -15.6,201.02 -21.82,203.65 -25.18,204.68 -29.8,205.79 -33.26,206.11 -35.41,205.55 -33.29,204.61 -31.69,203.32 -30.86,201.76 -29.98,200.35 -29.78,198.83 -29.71,197.47 -29.71,196.38 -29.97,194.82 -33.8,196.48 -36.56,197.73 -40.19,199.68 -44.33,200.39 -47.91,202.21 -53.54,203.15 -58.69,203.18 -63.04,203.26 -61.79,202.32 -60.8,201.71 -58.84,200.7 -57.83,199.85 -57.16,199.19 -56.56,198.24 -56.42,197.17 -56.34,196.06 -61.96,196.47 -64.85,198.47 -67.72,199.22 -71.42,200.88 -76.97,202.21 -83.3,202.42 -89.19,202.55 -94.83,201.76 -93.49,200.88 -91.88,200.01 -89.93,198.97 -88.47,198.17 -87.97,197.54 -87.71,196.65 -87.67,195.78 -87.8,194.87 -94.34,195.89 -96.74,196.07 -98.79,196.25 -100.67,196.67 -105.05,196.91 -109.58,196.63 -113.38,196.39 -117.04,196.02 -116.32,195.38 -115.32,194.64 -114.74,194.17 -114.1,193.48 -113.39,192.85 -112.61,192.04 -111.83,191.38 -110.52,189.69 -112.2,189.98 -114.81,191.1 -116.76,191.93 -120.06,192.34 -123.07,193.34 -125.22,193.47 -126.57,193.34 -129.06,193.12 -128.21,192.19 -127.91,191.31 -127.54,190.28 -127.36,189.32 -127.08,188.49 -126.88,187.29 -126.83,186.16 -126.82,183.96 -132.28,183.31 -136,182.34 -139.95,179.86 -144.1,177.93 -150.15,171.25 -150.94,164.33 -150.32,159.64 -146.36,163.66 -142.87,164.88 -138.89,165.76 -137.56,162.38 -138.3,156.93 -138.46,154.58 -136.75,152.17 -134.89,150.97 -132.19,150.54 -130.23,150.82 -128.5,150.84 -127.09,150.95 -125.93,150.46 -123.32,150.47 -120.43,150.11 -115.45,148.18 -117.29,143.35 -120.81,136.52 -120.81,131.55 -118.4,120.32 -113.74,112.04 -111.45,108.12 -107.07,100.7 -102.26,93.04 -99.46,102.14 -93.97,109.04 -91.16,112.04 -88.67,116.28 -84.95,118.77 -81.61,122.22 -79.39,124.69 -76.15,127.24 -76.15,127.24"/><animate id="DoorFireInside-2" begin="0; DoorFireInside-1.begin + 700ms" fill="freeze" attributeName="points" dur="700ms" to="-33.3,112.05 -30.88,105.81 -29.19,99.88 -27.49,95.91 -25.95,91.74 -24.56,88 -21.56,82.55 -16.88,77.24 -9.59,71.09 -7.96,74.91 -6.93,79.83 -3.25,86.51 0.3,91.94 1.98,95.71 3.58,102.02 5.54,108.35 5.59,118.72 10.74,119.06 17.87,116.94 24.85,112.05 30.9,107.92 36.12,101.69 40.37,95.53 44.6,89.19 47.42,82.03 48.39,86.28 48.68,88.07 49.56,89.93 50.44,91.82 50.44,93.37 50.98,95.21 51.88,96.75 52.54,98.93 56.79,94.15 59.39,91.08 63.72,84.79 67.51,80.33 71.06,75.96 74.59,71.55 77.9,66.51 80.8,62.55 82.41,67.2 83.88,70.48 86.73,72.99 89.17,76 91.86,77.74 93.64,79.74 95.02,81.37 99,84.79 99.74,82.53 100.78,79.77 102.29,76.93 103.78,74.04 104.32,71.21 104.98,69.13 105.87,65.74 108.47,67.77 108.83,69.81 110.47,73.94 113.19,77.44 113.87,80.34 114.91,82.46 116.39,84.79 116.79,86.97 118.18,84.79 118.84,83.28 119.95,81.25 122.01,80.17 124.58,78.94 126.26,77.9 128.25,77.57 132.33,77.01 131.81,80.59 130.39,84.79 130.33,88.35 129.74,92.89 129.43,99.1 129.48,105.75 129.78,112.05 129.78,119.76 133.74,119.78 135.19,119.82 137.36,119.82 138.74,119.66 140.61,120 142.03,119.71 143.99,119.11 146.24,118.98 146.08,122.69 143.89,127.12 138.82,133.26 134.94,138.63 133.1,141.79 131.28,143.46 129.94,145.09 128.61,147.3 132.28,149.2 135.99,150.65 142.51,152.39 145.94,153.33 149.92,155.59 152.55,155.62 156.26,155.17 158.94,154.59 157.72,158.43 155.79,162.79 155.79,165.54 155.75,168.83 155.48,172.36 154.95,175.11 154.69,177.06 154.56,178.76 156.78,179.46 158.58,179.41 159.38,179.07 160.31,178.88 161.19,178.83 162.19,178.79 163.18,178.74 164.5,178.7 165.92,180.52 166.47,181.6 167.02,182.2 167.81,183.34 168.33,184.4 168.91,185.37 170.04,187.25 169.72,187.53 164.68,190.53 159.2,193.26 153.1,194.4 143.34,193.84 143.67,195.12 144.55,196.4 145.41,197.57 146.38,198.42 147.39,199.16 147.95,199.56 148.41,199.73 148.65,199.98 142.43,200.43 140.14,199.74 135.55,198.93 132.63,198.34 128.88,197.85 126.54,197.45 123.73,196.92 118.08,195.23 118.2,197.04 118.86,197.8 119.82,198.58 120.75,199.38 121.76,200.39 122.77,200.88 123.7,201.16 125.53,202.22 116.78,202.88 109.85,203.49 104.33,203.27 99.84,202.53 94.07,201.01 90.75,200.21 84.46,198.22 79.26,197.32 79.5,198.5 80.03,199.53 80.95,200.76 82.22,201.98 82.76,202.9 83.81,203.89 84.57,205.33 86.73,206.27 75.83,206.4 68.67,206.45 60.73,205.55 57.6,204.97 50.47,204.33 44.91,202.42 40.32,201.11 35.86,198.92 35.27,200.78 35.57,202.2 36.2,203.13 37.01,204.29 37.75,204.99 38.42,206.02 39.24,207.02 40.62,207.84 37.6,208.46 32.72,208.46 28.72,207.54 26.2,206.53 23.94,205.12 21.64,203.42 18.52,200.4 16.27,199.37 13.64,200.6 9.97,203.51 7.23,204.79 3.8,205.41 0.13,205.84 -4.27,206.38 -7.76,205.89 -10.38,204.6 -8.81,204.05 -7.61,203.63 -6.72,202.95 -5.86,202.11 -5.44,201.18 -4.84,199.88 -4.62,198.47 -4.62,196.93 -8.3,198.75 -11.52,199.38 -15.6,201.02 -21.82,203.65 -25.18,204.68 -29.8,205.79 -33.26,206.11 -35.41,205.55 -33.28,204.61 -31.69,203.32 -30.86,201.76 -29.98,200.35 -29.78,198.83 -29.71,197.47 -29.71,196.38 -29.97,194.82 -33.8,196.48 -36.55,197.73 -40.19,199.68 -44.33,200.39 -47.91,202.21 -53.54,203.15 -58.69,203.19 -63.04,203.26 -61.79,202.32 -60.8,201.71 -58.84,200.7 -57.83,199.85 -57.16,199.19 -56.56,198.24 -56.42,197.17 -56.34,196.06 -61.96,196.48 -64.85,198.47 -67.72,199.22 -71.42,200.88 -76.97,202.21 -83.3,202.42 -89.19,202.55 -94.83,201.76 -93.49,200.88 -91.88,200.01 -89.93,198.97 -88.47,198.17 -87.97,197.54 -87.7,196.65 -87.67,195.78 -87.8,194.88 -94.34,195.89 -96.74,196.07 -98.79,196.26 -100.67,196.67 -105.05,196.91 -109.58,196.63 -113.38,196.39 -117.04,196.02 -116.32,195.38 -115.32,194.64 -114.74,194.17 -114.1,193.48 -113.39,192.85 -112.61,192.04 -111.83,191.38 -110.52,189.69 -112.2,189.98 -114.81,191.1 -116.76,191.93 -120.06,192.34 -123.07,193.34 -125.22,193.47 -126.57,193.34 -129.06,193.12 -128.21,192.19 -127.91,191.31 -127.54,190.28 -127.36,189.32 -127.08,188.49 -126.88,187.29 -126.83,186.16 -126.82,183.96 -132.28,183.31 -136,182.34 -139.95,179.86 -144.09,177.93 -150.15,171.25 -150.94,164.33 -150.32,159.64 -146.36,163.66 -142.87,164.88 -138.89,165.76 -137.56,162.38 -138.3,156.93 -138.46,154.58 -136.75,152.17 -134.89,150.97 -132.19,150.54 -130.23,150.82 -128.5,150.84 -127.09,150.95 -125.93,150.46 -123.32,150.47 -120.43,150.11 -115.45,148.18 -117.29,143.35 -120.81,136.52 -120.81,131.55 -118.4,120.32 -113.74,112.04 -111.45,108.12 -107.07,100.7 -102.26,93.04 -99.46,102.14 -93.97,109.04 -91.16,112.04 -88.67,116.28 -84.95,118.77 -81.61,122.22 -79.39,124.69 -76.15,127.24 -68.53,124.66 -63.55,120.89 -60.1,113.82 -57.36,105.79 -53.55,98.77 -49.41,91.49 -44.99,84.79 -40.57,74.18 -41.03,84.79 -39.93,89.12 -39.15,93.69 -38.56,98.25 -37.58,101.87 -35.96,105.14 -34.58,108.7 -33.3,112.04 -33.3,112.05"/></polygon><path d="M118.865,-3.941l-122.895,0l0,174.547l16.52,0l-0.437,-22.341l0.301,-29.073l0.679,-17.009l-1.909,-22.353l-0.729,-20.515l0.481,-8.905l-1.099,-27.529l-0,-11.333l10.477,-3.781l13.447,-0.782l11.2,-0.92l18.547,-1.395l18.533,-0.3l6.439,-0.196l-2.261,22.405l-0.784,20.071l-1.392,40.559l-0.359,32.728l0.882,14.734l0.374,21.621l-0.06,14.314l34.045,0l-0,3.094l295.025,0l-0,-183.702l-295.025,-0l-0,6.061Z" style="fill:#bfd57b;stroke:#290d00;stroke-width:1px"/><g><path d="M282.566,23.903l0.502,17.356l0.316,24.945l0.398,11.987l0.28,6.711l7.335,0.668l21.464,-0.386l16.668,-0.936l7.95,-2.123l1.602,-10.547l-0.288,-11.282l0.062,-16.682l-1.179,-18.464l0,-18.727l-1.671,-4.21l-10.624,-0l-9.147,0.277l-15.535,2.109l-13.141,0.185l-3.608,0.113l-0.343,8.484l-1.041,10.522Z" style="fill:#0b1d02;stroke:#0b1d02;stroke-width:1px"/><path d="M282.566,23.153l0.502,17.356l0.316,24.945l0.398,11.987l0.28,6.711l7.335,0.668l21.464,-0.386l16.668,-0.936l7.95,-2.123l1.602,-10.547l-0.288,-11.282l0.062,-16.682l-1.179,-18.464l0,-18.727l-1.671,-4.21l-10.624,-0l-9.147,0.277l-15.535,2.109l-13.141,0.185l-3.608,0.113l-0.343,8.484l-1.041,10.522Z" style="fill:#7c8570;stroke:#0b1d02;stroke-width:1px"/><path d="M291.861,17.869l-0.528,20.375l-0.055,17.411l0.682,12.172l0.943,4.827l9.116,0.753l15.661,1.112l9.051,0.041l2.947,-0.737l-0.045,-9.738l0.208,-17.418l0.613,-19.961l-0.353,-9.312l-2.234,-3.572l-12.22,0.466l-17.512,-0l-3.318,0.044l-2.622,0.667l-0.334,2.87Z" style="fill:#95a592;stroke:#0b1d02;stroke-width:1px"/><path d="M299.521,42.92c0.359,-2.037 3.16,-4.222 4.369,-5.738c1.801,-2.258 2.601,-5.026 4.338,-7.265c0.614,-0.791 1.166,-1.831 1.561,-2.751c0.067,-0.156 0.456,-0.831 0.126,-0.831" style="fill:none;stroke:#0b1d02;stroke-width:1px"/><path d="M302.887,59.08c-0,-2.369 2.383,-5.057 3.382,-7.061c2.411,-4.836 5.082,-9.614 8.032,-14.124c1.557,-2.379 3.905,-4.669 5.056,-7.28c0.616,-1.397 0.296,-1.613 0.296,-2.98c0,-0.105 -0.047,-1.348 0.041,-1.348" style="fill:none;stroke:#0b1d02;stroke-width:1px"/><path d="M312.598,59.457c0,-3.371 3.531,-6.627 5.036,-9.343c0.775,-1.398 1.874,-2.355 1.874,-3.973" style="fill:none;stroke:#0b1d02;stroke-width:1px"/><path d="M317.535,60.756c0.692,-2.221 2.885,-5.111 4.266,-6.958c0.225,-0.301 1.257,-1.15 1.257,-1.587" style="fill:none;stroke:#0b1d02;stroke-width:1px"/><path d="M319.464,69.779c0.144,-1.188 1.396,-2.296 2.067,-3.275c1.725,-2.517 3.711,-5.501 5.797,-7.618" style="fill:none;stroke:#0b1d02;stroke-width:1px"/></g><path d="M88.443,4.174l-2.261,22.405l-0.785,20.071l-1.392,40.559l-0.359,32.728l0.883,14.734l0.373,21.621l0.305,14.483l14.694,-0l0.526,-26.774l-1.743,-16.908l-0.43,-46.202l0.948,-18.328l-0.089,-16.028l1.217,-19.695l0.644,-14.343l-0.644,-8.684l-11.887,0.361Z" style="fill:#290d00"/></svg>