<svg viewBox="0 0 1306 1328" xmlns="http://www.w3.org/2000/svg" xml:space="preserve" style="fill-rule:evenodd;clip-rule:evenodd;stroke-linejoin:round;stroke-miterlimit:2"><path d="M93.378 787.827c3.034 14.154 9.436 36.064 18.587 51.717 9.15 15.654 23.237 29.036 36.315 42.205 13.334 13.427 29.717 24.927 43.688 38.356 14.9 14.324 32.826 30.715 45.715 47.586 12.6 16.493 24.556 34.123 31.618 53.64 7.086 19.579 7.121 42.58 10.894 63.834 3.917 22.062 6.944 46.558 12.605 68.54 5.558 21.582 11.481 49.156 21.362 63.352 8.331 11.97 26.363 12.928 37.92 21.824 15.862 12.209 38.611 42.057 57.25 51.43 16.319 8.206 36.459 2.556 54.585 4.806 30.852 3.83 93.817 18.924 130.525 18.171 30.843-.633 66.047-14.342 89.724-22.689 18.571-6.548 36.132-16.212 52.339-27.397 16.645-11.488 32.341-26.974 47.532-41.531 17.055-16.342 39.237-37.233 54.796-56.523 14.789-18.335 28.055-42.716 38.558-59.22 8.362-13.137 20.066-28.808 24.464-39.8 3.246-8.114 3.044-19.819 1.922-26.147-.853-4.809-13.45-10.898-8.654-11.822 5.981-1.154 29.611 4.483 44.543 4.901 18.853.529 45.943 1.535 68.574-1.73 23.427-3.381 52.516-9.935 71.992-18.554 17.006-7.527 34.307-18.424 44.864-33.164 10.557-14.74 15.905-36.021 18.478-55.279 3.737-27.974 2.842-80.909 3.944-112.568.898-25.796 6.637-51.883 2.669-77.387-4.54-29.176-19.233-65.338-29.907-97.671-15.939-48.282-50.215-149.987-65.727-192.02-7.628-20.67-11.783-44.578-27.343-60.177-21.416-21.47-70.925-51.176-101.153-68.64-25.395-14.672-52.304-27.146-80.218-36.146-32.151-10.367-75.572-21.823-112.69-26.053-36.438-4.152-73.489-2.566-110.019.674-43.349 3.846-101.363 8.778-150.073 22.399-49.561 13.859-104.73 37.251-147.295 60.755-39.288 21.695-80.911 56.365-108.096 80.27-20.966 18.437-42.46 44.671-55.011 63.16-9.718 14.316-14.203 31.582-20.294 47.777-6.213 16.519-13.563 33.639-16.982 51.335-4.344 22.479-4.089 55.978-9.08 83.54-5.27 29.097-18.718 70.331-22.538 91.039-2.008 10.886-2.703 22.383-.383 33.207Z" style="fill:#fff"/><path d="M912.977 1038.92c5.332.891 11.239 1.895 16.729 2.496 3.436.376 6.73.641 9.706.718 11.744.305 26.645.782 41.708.326 9.651-.292 19.366-.966 28.396-2.288 14.005-2.051 29.984-5.214 44.824-9.256 10.79-2.94 20.985-6.348 29.445-10.113 10.74-4.78 21.579-10.844 30.967-18.258 6.686-5.281 12.644-11.243 17.384-17.89 4.778-6.701 8.612-14.605 11.631-23.087 4.112-11.553 6.73-24.19 8.309-36.098 1.241-9.342 1.986-21.399 2.45-34.534.937-26.518.748-57.531 1.473-78.875.614-18.05 3.588-36.245 3.969-54.281.174-8.272-.178-16.513-1.458-24.696-1.501-9.69-4.072-20.126-7.25-30.935-6.53-22.203-15.654-46.042-22.921-68.102-9.177-27.94-24.477-73.741-38.703-115.563-10.408-30.595-20.237-59.067-26.756-76.869-4.55-12.43-7.88-26.006-13.105-38.302-3.985-9.375-9.047-18.03-16.157-25.195-9.345-9.417-23.849-20.406-39.874-31.286-21.345-14.493-45.41-28.855-62.997-39.078-12.935-7.534-26.261-14.503-39.907-20.756-13.705-6.279-27.737-11.828-42.028-16.493-16.622-5.425-36.223-11.146-56.433-16.037-19.497-4.718-39.56-8.654-58.087-10.832-18.658-2.194-37.479-2.916-56.316-2.696-18.625.217-37.265 1.361-55.775 2.929-26.748 2.258-59.033 4.914-91.325 9.727-20.75 3.093-41.497 7.084-60.825 12.4-24.91 6.852-51.215 16.069-76.694 26.484-26.124 10.677-51.373 22.624-73.34 34.616-15.517 8.47-31.398 18.894-46.662 29.909-24.234 17.489-46.897 36.481-63.97 51.348-10.449 9.099-21.034 20.039-30.675 31.078-10.529 12.057-19.916 24.239-26.768 34.227-4.435 6.467-7.939 13.466-10.973 20.72-4.057 9.7-7.225 19.885-10.964 29.682-3.842 10.068-8.093 20.357-11.654 30.862-2.514 7.418-4.68 14.943-6.191 22.566-1.071 5.403-1.898 11.403-2.598 17.794-2.218 20.27-3.019 44.812-6.939 65.824-1.024 5.485-2.361 11.419-3.866 17.565-6.469 26.422-15.969 56.554-19.158 73.337-1.172 6.169-1.948 12.515-2.138 18.854-.202 6.745.293 13.481 1.657 20.022 1.728 7.864 4.437 17.979 8.04 28.214 3.408 9.68 7.603 19.455 12.459 27.665 4.167 7.047 9.201 13.697 14.729 20.059 7.509 8.642 15.923 16.771 23.985 24.808a207.215 207.215 0 0 0 9.113 8.516c11.36 10.034 23.946 19.327 35.011 29.856 8.868 8.439 18.821 17.601 28.126 27.169 5.916 6.083 11.574 12.323 16.46 18.651 6.052 7.839 11.965 15.939 17.208 24.413 5.037 8.141 9.473 16.617 12.756 25.547 1.951 5.307 3.305 10.905 4.36 16.655 2.691 14.675 3.588 30.24 6.277 44.957 2.814 15.452 5.2 32.097 8.352 48.238 1.406 7.203 2.96 14.308 4.761 21.176 3.851 14.68 7.906 32.063 13.165 46.338 2.999 8.14 6.418 15.35 10.28 20.845 3.689 5.251 8.576 9.135 14.215 12.178 8.324 4.49 18.853 6.43 26.385 12.174 10.685 8.149 24.523 24.439 38.097 36.797 7.266 6.615 14.514 12.192 21.227 15.53 6.308 3.137 13.035 4.732 20.026 5.376 12.468 1.151 25.891-1.16 38.37.333 21.384 2.557 58.225 10.463 91.022 14.757 15.113 1.979 29.404 3.2 41.121 2.907 12.654-.308 25.996-2.64 39.05-5.96 19.9-5.063 39.122-12.393 53.913-17.67 9.76-3.482 19.255-7.774 28.433-12.684 9.066-4.852 17.827-10.297 26.231-16.144 7.049-4.904 13.939-10.487 20.688-16.423 9.557-8.407 18.841-17.52 27.942-26.306 10.299-9.938 22.455-21.542 33.911-33.448 7.752-8.056 15.189-16.249 21.543-24.177 5.883-7.339 11.539-15.599 16.877-23.971 8.228-12.905 15.699-26.067 22.133-36.244 5.553-8.782 12.578-18.693 17.962-27.6 3.017-4.99 5.542-9.706 7.173-13.82 1.865-4.701 2.866-10.365 3.17-15.868.309-5.571-.062-10.951-.712-14.808Zm-18.119 3.96c.354 2.683.498 6.17.278 9.765-.213 3.469-.752 7.06-1.946 10.018-1.326 3.285-3.421 7.024-5.861 11.004-5.376 8.774-12.388 18.526-17.93 27.175-6.484 10.12-14.02 23.212-22.311 36.044-5.005 7.746-10.29 15.397-15.796 22.18-6.053 7.46-13.137 15.159-20.516 22.729-11.356 11.649-23.414 22.981-33.622 32.694-8.944 8.506-18.062 17.338-27.448 25.47-6.201 5.373-12.519 10.434-18.986 14.862-7.793 5.335-15.91 10.304-24.307 14.717-8.304 4.364-16.887 8.175-25.707 11.248-14.313 4.986-32.905 11.963-52.149 16.704-11.49 2.831-23.217 4.859-34.336 5.045-10.765.172-23.877-1.127-37.743-3.068-32.857-4.601-69.738-12.852-91.163-15.609-12.654-1.628-26.299.537-38.946-.744-4.124-.418-8.12-1.275-11.828-3.16-5.051-2.568-10.37-6.994-15.817-12.043-13.994-12.97-28.33-29.922-39.36-38.49-8.431-6.55-20.049-9.315-29.385-14.46-2.277-1.255-4.378-2.693-5.856-4.837-3.685-5.346-6.572-12.931-9.209-21.261-3.906-12.339-7.033-26.244-10.069-38.259-2.15-8.504-3.881-17.397-5.432-26.37-2.408-13.931-4.374-28.051-6.665-41.297-2.542-14.755-3.284-30.341-5.829-45.053-1.254-7.249-2.934-14.299-5.321-21.002-3.042-8.541-6.943-16.756-11.404-24.696-6.409-11.409-14.012-22.233-21.868-32.625-5.416-7.163-11.68-14.252-18.256-21.152-9.455-9.921-19.571-19.441-28.59-28.199-11.198-10.874-23.94-20.528-35.444-30.899a178.58 178.58 0 0 1-7.808-7.441c-7.512-7.641-15.379-15.348-22.366-23.554-4.33-5.086-8.303-10.371-11.549-15.989-3.89-6.732-7.163-14.764-9.861-22.683a217.518 217.518 0 0 1-6.815-24.873c-.948-4.305-1.288-8.749-1.204-13.2.092-4.817.65-9.642 1.49-14.337 2.949-16.48 12.001-46.092 18.063-72.051 1.563-6.693 2.94-13.154 3.988-19.124.994-5.661 1.784-11.557 2.435-17.558 2.513-23.193 2.836-48.062 6.189-65.905 1.221-6.49 3.022-12.897 5.097-19.221 3.353-10.216 7.391-20.225 11.021-30.021 3.55-9.578 6.518-19.535 10.378-29.022 2.292-5.631 4.893-11.096 8.274-16.13 6.288-9.361 14.928-20.779 24.622-32.099 8.78-10.254 18.414-20.441 27.957-28.915 16.464-14.62 38.317-33.314 61.721-50.551 14.334-10.558 29.243-20.579 43.84-28.732 21.144-11.81 45.461-23.616 70.646-34.177 24.536-10.289 49.888-19.408 73.909-26.234 18.455-5.245 38.285-9.213 58.119-12.341 31.769-5.01 63.55-7.881 89.877-10.329 17.995-1.669 36.118-2.94 54.235-3.288 17.957-.346 35.907.209 53.711 2.173 17.786 1.962 37.054 5.617 55.788 10.009 19.718 4.622 38.847 10.058 55.074 15.226 13.628 4.34 27.015 9.526 40.096 15.408 13.128 5.902 25.951 12.499 38.404 19.637 17.333 9.953 41.056 23.932 62.103 38.061 14.972 10.05 28.586 20.132 37.331 28.853 5.522 5.507 9.345 12.252 12.461 19.479 5.171 11.99 8.454 25.254 12.965 37.379 6.574 17.678 16.524 45.944 27 76.341 14.373 41.7 29.747 87.397 38.994 115.266 7.239 21.885 16.335 45.527 22.842 67.554 2.968 10.047 5.393 19.744 6.8 28.752 1.115 7.204 1.389 14.457 1.224 21.736-.408 17.965-3.41 36.083-4.051 54.06-.76 21.337-.62 52.34-1.6 78.848-.462 12.506-1.169 23.987-2.365 32.881-1.207 8.979-3.034 18.424-5.787 27.366-2.724 8.852-6.342 17.211-11.228 24.006-4.797 6.667-11.171 12.414-18.236 17.372-7.247 5.086-15.232 9.327-23.14 12.807-9.564 4.209-21.549 7.868-33.975 10.891-12.076 2.938-24.568 5.26-35.741 6.848-8.381 1.192-17.397 1.764-26.351 1.997-14.698.384-29.235-.152-40.693-.497-12.259-.378-30.428-4.355-39.656-5.051-2.951-.223-5.312-.113-6.884.185-4.116.781-6.022 2.98-7.091 4.7-1.317 2.118-1.816 4.53-1.231 7.267.363 1.692 1.759 4.504 4.697 7.158l5.103 4.632Z"/><path d="M89.786 715.235c-5.791 4.336-7.587 12.416-3.916 18.867 2.429 3.334 4.91 6.321 9.011 6.916 1.415.205 2.942.754 4.672.445 1.442-.258 5.361-.155 8.796-3.673 1.064-1.09 4.341-5.012 4.341-5.012s-.628.385-.802.541l11.559-10.471c5.284-3.647 12.145-8.43 19.709-11.243 6.234-2.318 12.754-3.846 18.302-1.684 7.55 3.632 13.778 8.515 18.675 14.557 5.091 6.28 8.378 13.825 11.371 21.739 1.478 4.191 3.542 13.257 5.526 19.168 1.229 3.663 3.021 6.287 4.183 7.961 3.979 5.736 9.708 5.565 13.469 5.579 4.246.016 9.003-2.56 12.927-10.338 2.628-7.228-.823-15.195-7.736-18.285-2.711-4.925-5.614-11.024-7.473-14.046-5.3-9.085-11.37-17.17-18.519-24.236-7.237-7.152-15.317-13.466-25.435-17.681-7.368-3.719-16.139-3.882-25.127-2.615-11.471 1.617-23.216 6.278-31.726 10.177l-15.759 8.998c-.962.54-6.773 2.495-6.048 4.336Zm112.323 39.793a7.662 7.662 0 0 0-1.911 3.591 14.445 14.445 0 0 1 1.911-3.591Zm20.577-.02.025.037c.092.135.358.261.358.261l-.383-.298Zm-114.01-38.605a14.41 14.41 0 0 1 2.544 3.276c-.583-1.361-1.495-2.389-2.544-3.276Zm-7.358-3.823c1.469.284 2.892.793 4.212 1.512-1.099-.758-2.503-1.288-4.212-1.512ZM153.292 804.8c1.193-1.788 1.986-3.426 3.332-4.394.569-.409.824-1.223 1.495-1.268 1.617-.108 3.39.574 5.59 1.741 1.587 1.231 2.485 3.146 3.35 5.036.062.137.116.275.16.416-.219.205-.43.419-.636.641-.121.232-.302.481-.18.55.407.227.746.188 1.029.015.084 1.271-.247 2.596-.31 3.893.063-.791.003-1.86-.741-2.294-.79-.46-1.606.798-1.944 1.148-.662.687-.802 1.375-1.04 1.67-.828 1.023-.609 2.138-.928 2.75-.852 1.637-.089 3.153-.293 4.278-.177.982.459 1.769.465 2.607.022 3.027 2.65 4.461 3.913 6.527 1.65 2.7 5.089 2.596 8.603 3.866 1.255.455 2.664-.379 4.44-.319 1.182.039 2.381-1.232 4.564-1.941.434-.141 1.277-1.341 3.826-2.936a14.51 14.51 0 0 0 2.181-3.072c2.26-2.019 2.689-11.367.696-16.067-1.801-4.712-3.847-9.231-7.452-12.934-3.378-3.471-6.82-6.847-11.15-8.621-7.154-4.667-12.924-5.115-18.313-4.71-5.316.399-10.209 2.947-16.901 7.011-.913.512-2.488 1.092-4.087 1.911-1.915.981-3.204 2.568-4.698 3.776-2.24 1.811-2.596 4.5-3.693 6.616-.488.942-.242 1.995-.543 2.978-1.234 4.03 1.421 7.462 3.853 12.148 5.353 6.011 14.578 6.546 20.59 1.193 3.587-3.194 5.224-7.768 4.822-12.215Zm-2.761-7.299c-.188-.414-.448-.791-.868-1.075.31.347.599.706.868 1.075ZM658.028 731.478c.704-2.391.8-4.996.156-7.588-3.114-7.679-6.996-11.618-12.478-12.046-2.873-.225-6.275-.803-9.607.946-3.676 1.929-8.397 5.783-10.026 7.733-4.502 5.131-12.741 20.441-13.267 32.328-.391 8.816 1.87 16.026 8.739 19.391 2.468 1.285 5.027 2.095 7.709 2.432 2.874.361 5.85.323 8.703.268 2.818.081 5.241-.175 7.614-.626 2.576-.49 5.035-1.428 7.809-2.859 8.916-4.263 14.476-14.242 14.873-22.752.303-6.525-2.838-12.407-10.225-17.227Zm-12.398 20.785c-1.42.263-4.308 1.677-5.842 1.403a14.647 14.647 0 0 1-7.487 1.22c-.163 1.124.089 2.565-.76 2.643l-.086-.001c.395.163.807.273 1.233.329 1.746.231 3.543.183 5.269.215 1.348-.039 2.512-.162 3.622-.482.905-.261 1.66-.864 2.583-1.501 1.082-.796 1.212-2.448 1.468-3.826Zm-.435-2.815c.11-.1.2-.213.268-.34l-.268.34ZM1057.53 707.472c-3.989-.222-12.509 1.528-18.38 4.272-6.939 3.244-9.036 9.744-9.94 15.657 0 5.216 2.743 9.795 6.868 12.371-.202 2.725.075 5.379 1.257 7.909.981 2.211 2.181 4.4 4.334 5.987 3.268 2.409 8.537 4.283 14.579 4.459 10.492.306 22.031-3.975 24.784-9.131 5.677-8.513 4.602-17.954.975-25.769a14.527 14.527 0 0 0-.204-11.267c-3.247-7.365-11.862-10.708-19.227-7.461a117.516 117.516 0 0 1-5.046 2.973Zm7.782 26.258-.328.24c-1.131.921-2.59 1.95-4.008 3.192 2.283.102 4.503.696 5.666 1.776.285-1.886-.354-3.695-1.33-5.208ZM641.662 1107.85c5.517-.665 10.612-.073 14.135 3.374 6.289 5.024 15.473 3.998 20.497-2.29 5.024-6.289 3.998-15.473-2.291-20.497-8.747-5.603-18.861-7.686-29.977-5.447-16.929 3.411-36.007 15.017-47.175 22.057-5.799 3.203-13.657 7.959-17.173 14.272-2.161 3.879-3.071 8.287-1.942 13.495 2.364 12.747 10.308 16.24 18.869 16.644 13.616.643 33.668-14.86 38.908-21.553 4.914-6.093 6.64-13.476 6.243-19.126a14.249 14.249 0 0 0-.094-.929Zm-29.611 9.593c-2.559 1.13-4.912 2.206-6.987 3.128-2.744 1.363-6.461 2.848-9.112 5.22-.854.764-1.698 1.626-1.368 2.875.258.847 1.285 1.446 1.443 1.935a.659.659 0 0 0 .036-.221c-.031-.383.731-.274 1.132-.396 1.338-.407 2.613-1.263 3.969-2.113 4.368-2.734 8.377-7.046 10.887-10.428Zm6.455 2.97c.158.081.335.142.533.18l-.533-.18Z"/><path d="M303.328 489.643c7.208 5.16 12.548 20.654 16.13 28.175 10.919 22.926 19.081 46.825 26.755 71.036 2.995 9.449 14.571 21.688 11.189 32.101-3.914 12.053-18.956 10.593-28.075 6.489-.796-.358-11.935-6.048-12.333-4.952-4.033 11.089 2.464 33.081 2.464 45.085 0 6.184 2.24 14.252-3.984 17.755-33.822 19.037-76.397-3.327-112.701 1.877-12.752 1.829-26.386.312-38.895 2.565-28.228 5.082-56.733 28.184-82.343 2.388-4.617-4.652-10.261-9.173-14.422-14.17-2.922-3.51-3.39-8.644-4.934-12.809-14.297-38.568 12.634-57.241 22.578-91.185 3.858-13.171 1.522-34.771 12.333-44.568 2.279-2.066-8.069-10.075-9.106-11.442-5.45-7.175-6.977-16.102-5.504-25.101 2.86-17.477 10.068-19.503 22.39-28.685 3.135-2.336 8.316-10.355 11.952-11.442 15.539-4.645 37.549-.093 52.748 3.245 26.148 5.743 52.785 9.734 79.497 9.734 15.251 0 34.471-.317 48.764 6.143 5.976 2.702 18.386 11.398 7.017 14.176"/><path d="M85.128 528.988c-1.769 2.972-3.124 6.292-4.126 9.865-2.937 10.483-2.542 23.484-5.094 32.553-7.049 24.861-22.845 41.868-25.842 63.917-1.324 9.74-.518 20.385 4.159 32.809 1.117 2.992 1.717 6.464 2.987 9.522.867 2.085 1.969 4.029 3.405 5.747l14.927 14.709c12.33 12.491 25.268 15.503 38.509 14.342 16.736-1.467 34.145-10.981 51.39-13.989 2.255-.389 4.552-.631 6.873-.796 10.468-.747 21.386-.022 31.752-1.429 24.879-3.288 52.572 6.724 78.416 6.917 13.295.099 26.122-2.172 38.115-8.718 4.418-2.411 6.946-5.895 8.433-9.891 1.853-4.977 1.056-11.542 1.127-16.969.113-7.326-2.054-18.335-2.913-28.408 7.416 2.84 16.822 4.035 24.514 1.914 7.734-2.132 14.048-7.242 17.176-16.383 1.948-5.693 1.542-11.748-.4-17.884-2.397-7.569-8.314-15.352-10.245-21.79-4.427-14.861-9.051-29.598-14.339-44.1-3.587-9.839-7.498-19.555-11.852-29.129-2.462-5.414-5.79-14.612-9.945-21.812 1.605-3.151 2.159-6.479 1.614-9.969-.481-3.081-1.789-6.604-4.513-9.86-3.702-4.423-10.86-9.14-15.594-11.174-7.03-3.02-14.96-4.847-23.181-5.746-10.653-1.166-21.777-.931-31.414-.762-12.818.217-25.629-.502-38.389-1.934-12.928-1.451-25.795-3.585-38.555-6.161-9.599-1.944-21.753-4.282-33.47-4.788-8.914-.385-17.593.236-25 2.57-2.078.656-4.537 1.961-6.898 4.099-2.94 2.663-6.132 7.566-8.348 9.269-8.866 6.813-15.204 10.574-19.608 17.287-2.902 4.425-5.2 10.012-6.457 18.412-.864 5.73-.798 11.424.371 16.82 1.242 5.731 3.615 11.157 7.353 15.953.404.518 2.892 2.921 5.062 4.987Zm204.805-45.107c-3.992-1.611-8.404-2.633-12.948-3.298-9.436-1.38-19.343-1.429-27.918-1.579-13.928-.236-27.815-1.479-41.62-3.504-13.578-1.993-27.07-4.696-40.431-7.869-8.504-2.014-19.262-4.546-29.698-5.323-5.7-.425-11.291-.414-16.189.757-1.533 1.68-7.492 8.145-9.796 9.81-5.755 4.158-10.375 6.499-13.79 10.049-2.434 2.531-3.903 5.879-4.925 11.622-.567 3.212-.678 6.417-.096 9.469.517 2.711 1.506 5.313 3.154 7.634.886.81 4.549 4.185 6.494 6.356 2.218 2.477 3.771 5.002 4.377 6.865 1.641 5.046.252 8.991-2.91 11.784-3.039 2.686-4.28 6.891-5.239 11.353-2.085 9.699-2.378 20.647-4.793 28.583-6.288 20.756-18.887 35.738-24.525 53.113-3.059 9.426-3.637 19.678 1.053 32.532l3.476 10.348 13.918 13.63c8.032 8.045 16.395 10.049 24.964 9.227 16.28-1.563 33.067-11.244 49.823-14.356 2.822-.529 5.697-.883 8.606-1.134 10.069-.869 20.597-.265 30.559-1.769 25.54-3.948 54.303 5.414 80.913 4.972 9.358-.155 18.409-1.726 26.787-6.279-.103-1.705-.388-6.704-.422-9.297-.123-7.954-3.288-20.324-4.116-30.888-.543-6.926-.042-13.251 1.634-18.094.961-2.779 5.622-9.602 15.123-7.057 3.463.928 11.96 4.996 12.696 5.314 2.35 1.014 5.306 1.708 8.156 1.735 1.434.013 3.14.182 3.619-1.377.485-1.576-.769-3.06-1.54-4.724-3.217-6.942-8.221-13.901-10.194-19.803-3.983-11.847-8.089-23.608-12.589-35.211-4.423-11.407-9.252-22.637-14.73-33.633-1.835-3.684-4.136-9.326-6.882-14.672-1.577-3.071-3.025-6.239-5.096-7.667-5.675-4.064-7.563-11.46-4.905-17.619Zm11.045-11.879.408-.111a4.657 4.657 0 0 0-.408.111Z"/><path d="M888.278 293.437c-11.719-2.627-27.274 15.092-37 20.665-31.556 18.083-65 32.567-96.765 50.542-9.565 5.413-18.924 11.221-27.888 17.59-2.385 1.695-8.441 6.273-11.764 4.782-8.558-3.838-12.579-23.312-10.056-31.249.96-3.022 2.726-5.688 4.365-8.367.926-1.514 3.515-6.166 2.658-4.612-7.02 12.724-28.255 19.936-39.277 28.691-40.915 32.502-79.245 67.13-134.709 71.207-8.548.629-29.859 6.273-34.154-3.415-4.667-10.528 8.902-22.433 15.936-28.005.368-.291 7.452-6.276 7.78-5.979 2.092 1.896-18.03 15.93-19.351 16.734-25.395 15.47-53.493 26.841-80.066 40.127-36.208 18.104-79.478 27.325-120.105 27.325-4.269 0-12.558-3.437-12.897-8.367-.157-2.281-.892-7.679.376-9.734.684-1.11 6.541-7.472 4.177-3.926-21.231 31.847-75.629 31.014-108.529 22.707-7.178-1.812-15.843-1.513-22.196-5.803-8.095-5.466-9.639-11.989-13.284-20.494-.546-1.275-.496-8.516-1.707-8.878-5.383-1.609-13.118 2.878-18.025 4.272-12.534 3.559-24.721 8.432-37.375 4.606-17.672-5.344-37.692-1.627-56.163-7.17-6.796-2.04-17.351-7.437-18.212-16.053-4.235-42.352 43.024-69.605 77.027-82.819 12.064-4.688 23.629-9.594 36.43-11.781 4.085-.698 7.97-1.318 11.952-2.388 2.208-.594 8.928-1.708 6.642-1.708-13.276 0-26.403 9.771-40.602 6.83-18.072-3.744-1.409-30.575 5.122-35.521 9.137-6.921 20.304-10.742 30.358-16.048 20.683-10.915 38.442-23.413 61.854-28.175 14.75-3 29.021-1.809 43.829-3.245 2.357-.228 12.028.282 13.847-1.367.674-.61-16.268-17.277-16.698-21.515-1.617-15.923 17.995-35.097 29.601-43.888 21.027-15.929 48.033-18.05 73.424-20.83 8.227-.9 22.214-4.424 30.552-1.707 12.057 3.929 21.462 13.68 32.634 19.122.87.424 8.9 5.212 9.482 4.952 1.142-.51 3.17-7.369 3.796-8.537 4.37-8.16 9.469-16.764 15.179-24.074 9.204-11.783 31.795-21.81 46.675-24.59 35.201-6.578 60.211 6.197 91.643 18.951 4.105 1.666 9.722 2.44 13.09 5.469 2.585 2.325 9.299 17.673 15.179 14.169 10.888-6.488 20.039-24.038 29.407-33.127 17.948-17.413 53.415-27.916 78.547-24.42 12.888 1.793 42.215 7.101 51.797 15.203 12.431 10.509 27.533 31.394 42.122 37.903 4.582 2.044 21.886-11.457 26.562-13.489 17.024-7.401 44.164-2.722 56.162 11.957 24.182 29.586 11.234 65.4-5.879 94.771-8.54 14.658-11.768 27.912-27.512 23.733"/><path d="M613.996 168.16c-1.072-1.492-2.182-3.065-2.816-4.029-1.465-2.226-2.84-3.865-3.791-4.711-1.901-1.69-4.138-3.068-6.612-4.144-3.157-1.372-6.846-2.126-9.795-3.303-19.82-7.909-37.222-15.748-55.96-19.199-12.954-2.385-26.522-2.787-41.815.163-9.689 1.869-22.338 6.481-33.156 12.673-8.122 4.648-15.209 10.2-19.684 15.989-3.057 3.954-5.957 8.249-8.666 12.664-2.519 4.103-4.879 8.305-7.06 12.411l-.221-.117c-7.575-3.644-14.294-9.38-21.663-13.75-3.915-2.32-7.978-4.324-12.316-5.714-3.578-1.147-7.895-1.586-12.504-1.424-7.651.268-16.312 2.186-22.161 2.855-15.753 1.804-32.098 3.419-47.349 7.95-10.937 3.25-21.331 7.951-30.661 15.084-7.437 5.677-17.86 15.306-24.84 25.796-5.774 8.678-9.108 18.005-8.218 26.466.193 1.837 1.4 5.143 4.038 8.747 1.019 1.394 2.281 2.955 3.64 4.554-9.148.699-18.12.577-27.157 1.298-4.695.375-9.405.96-14.16 1.945-10.01 2.073-19.06 5.439-27.721 9.506-12.321 5.786-23.828 13.021-36.399 19.698-7.053 3.741-14.653 6.759-21.72 10.617-3.402 1.858-6.69 3.896-9.775 6.243-5.701 4.336-17.281 21.955-16.566 33.982.18 3.03.865 5.854 2.222 8.307l-3.102 1.21c-21.292 8.247-47.417 21.851-64.304 40.762-12.58 14.089-20.165 31.047-18.212 50.799.542 5.532 3.362 10.354 7.5 14.229 4.867 4.556 11.651 7.709 16.778 9.264 4.078 1.237 8.223 2.073 12.405 2.66 14.722 2.064 29.956.464 43.693 4.661 6.341 1.937 12.59 2.159 18.816 1.391 7.835-.966 15.636-3.626 23.553-5.85l8.495-2.777c.186 1.108.37 2.007.512 2.34 2.446 5.753 4.129 10.643 7.014 14.999 2.267 3.423 5.182 6.561 9.47 9.475 2.712 1.844 5.711 3.126 8.876 4.047 5.248 1.527 11.071 1.816 16.159 3.123 20.713 5.321 49.465 7.783 74.187 1.966 9.428-2.218 18.264-5.645 25.987-10.465 1.145 1.399 2.543 2.684 4.16 3.809 4.543 3.164 10.791 4.903 14.785 4.919 20.997.106 42.687-2.175 63.822-6.782 21.305-4.645 42.039-11.677 60.951-21.012 18.658-9.208 38.052-17.483 56.761-26.866 1.16-.582 2.317-1.167 3.472-1.76l.412 1.017c2.926 6.713 9.217 10.827 17.744 12.056 8.983 1.295 21.421-1.272 27.648-1.691 23.687-1.595 44.506-8.372 63.766-18.145 27.918-14.166 52.452-34.842 77.893-54.798a39.088 39.088 0 0 1 1.669-1.239c-.152-3.948 2.703-12.402 10.227-27.535-1.457 5.154-1.46 13.294.22 21.203-3.798 2.104-7.415 4.175-10.447 6.332.186 4.965 5.121 2.82 11.509-2.125l-.313-1.065-.499-1.98-.25-1.162c5.551-3.086 11.489-6.249 16.546-9.876-5.046 5.056-10.677 10.363-15.484 14.083.27.949.574 1.883.905 2.798 3.17 8.77 8.865 15.515 15.025 18.33 3.009 1.374 6.554 1.825 10.398 1.138 5.07-.905 11.597-5.12 14.468-7.13a276.252 276.252 0 0 1 13.15-8.636 344.848 344.848 0 0 1 13.697-8.022c25.387-14.133 51.83-26.024 77.532-39.321 6.616-3.422 13.182-6.938 19.674-10.599 4.762-2.684 10.865-7.911 17.237-12.719 3.5-2.642 10.639-2.664 10.364-5.937 7.545 1.213 14.834-3.652 16.529-11.208a14.52 14.52 0 0 0-1.215-9.763c1.495-2.832 3.06-5.854 4.83-8.944 11.376-19.86 20.713-42.423 20.677-64.331-.026-15.991-4.666-31.745-16.654-46.2-7.899-9.533-20.507-16.166-34.126-18.78-13.154-2.525-27.054-1.393-37.759 3.346-2.388 1.057-7.726 4.626-13.285 8.192-1.828 1.173-4.451 2.626-6.289 3.613-2.371-1.503-4.736-3.432-7.114-5.545-10.118-8.988-20.038-21.029-28.653-28.214-4.106-3.425-10.843-6.724-18.814-9.304-13.278-4.299-30.254-7.175-39.409-8.387-14.066-1.861-30.997.029-46.911 4.989-16.184 5.044-31.273 13.192-41.412 23.162-6.568 6.453-13.07 16.929-20.063 25.112a63.34 63.34 0 0 1-2.315 2.586Zm257.446 112.328c.608-.735 1.64-2.041 2.229-3.012 2.445-4.03 4.786-8.902 7.769-13.936 7.717-13.024 14.731-27.397 16.974-41.919 1.961-12.699.095-25.502-9.239-37.09-4.147-5.144-11.109-8.264-18.359-9.756-7.655-1.575-15.799-1.407-22.081 1.274-4.23 1.806-18.291 11.993-25.454 13.876-4.842 1.273-8.83.644-11.615-.621-5.706-2.592-11.559-6.84-17.25-12.033-9.809-8.952-19.348-20.932-27.707-28.095-3.028-2.595-8.84-4.492-15.115-6.323-10.858-3.169-23.176-5.359-30.257-6.392-10.95-1.598-24.153-.078-36.616 3.625-12.467 3.703-24.275 9.521-32.155 17.065-6.227 5.966-12.325 15.796-18.968 23.38-4.056 4.631-8.316 8.563-12.724 11.155-5.202 3.059-10.582 2.924-15.852-.276-4.431-2.691-11.476-13.178-12.944-15.41l-9.473-3.382c-18.297-7.549-34.281-15.206-51.621-18.609-10.476-2.055-21.467-2.505-33.888-.259-6.585 1.191-14.863 3.978-22.549 7.744-7.261 3.558-14.092 7.874-17.962 12.774-2.65 3.359-5.161 7.016-7.517 10.772-2.38 3.794-4.609 7.684-6.67 11.481-.284.764-2.529 6.763-3.646 8.58-1.67 2.716-3.749 4.061-5.135 4.67-.956.422-4.634 1.797-9.306-.355-2.381-1.097-7.968-4.43-8.693-4.788-8.053-3.972-15.238-10.061-23.064-14.805-2.618-1.588-5.315-3.01-8.225-3.974-2.322-.769-5.299-.655-8.381-.42-6.451.492-13.252 1.901-18.058 2.403-14.674 1.534-29.917 2.766-44.146 6.849-8.78 2.519-17.172 6.132-24.692 11.776-5.265 3.958-12.347 10.223-17.966 17.321-4.356 5.503-8.215 11.365-8.233 16.989 1.562 1.881 10.109 12.168 12.982 15.554 1.423 1.677 2.31 3.005 2.646 3.654 3.004 5.818-.228 9.636-1.899 11.14-1.321 1.188-3.843 2.584-7.329 3.11-3.767.568-9.883.336-11.726.508-10.466.976-20.661.658-30.948 1.404-3.972.288-7.961.742-11.988 1.546-8.613 1.719-16.402 4.581-23.865 8.028-12.097 5.588-23.382 12.647-35.723 19.118-7.01 3.68-14.564 6.632-21.588 10.427-2.652 1.433-5.226 2.992-7.633 4.807-2.064 1.556-5.254 6.092-7.557 10.928-1.148 2.409-2.09 4.908-2.341 7.218-.111 1.023.074 1.993 1.332 2.255 2.075.432 4.119.464 6.138.261 4.15-1.227 8.375-2.258 12.731-2.999l.151-.03c6.679-2.021 13.265-4.208 19.862-4.203 4.235.004 5.956 2.047 6.423 2.514 3.258 3.255 3.772 6.871.936 10.878-.439.621-1.682 2.36-4.569 3.284-1.137.363-5.505 1.158-7.241 1.623l-12.724 2.547-.283.052c-3.023.997-6.072 1.945-9.166 2.541a43.175 43.175 0 0 1-3.023.481l-1.231.389c-7.097 2.292-13.999 5.139-21.081 7.9-19.05 7.428-42.593 19.386-57.677 36.353-9.345 10.513-15.347 23.016-13.86 37.722.194 1.908 1.825 3.195 3.415 4.386 2.757 2.064 6.119 3.451 8.732 4.227 14.253 4.234 29.456 2.637 43.701 4.449 4.261.542 8.447 1.35 12.526 2.571 3.875 1.159 7.693 1.177 11.488.687 6.964-.899 13.861-3.422 20.893-5.441 3.537-1.016 8.493-3.51 13.07-4.466 3.544-.74 6.96-.713 9.969.177 2.091.619 4.958 2.282 6.41 6.306.607 1.683 1.213 6.958 1.382 8.524 1.772 4.22 2.965 7.915 5.143 11.163 1.089 1.625 2.515 3.084 4.566 4.461 1.615 1.082 3.502 1.594 5.43 2.013 4.635 1.006 9.549 1.336 13.928 2.423 18.262 4.53 43.574 6.642 65.282 1.344 10.506-2.565 20.18-6.867 27.392-13.833.333-.94.735-1.775 1.178-2.487.706-1.135 4.99-5.974 6.542-7.218 3.019-2.422 5.837-2.392 6.875-2.338 3.013.157 5.218 1.433 6.839 3.302 1.335 1.538 3.012 4.059 2.241 8.173-.11.588-.405 2.198-2.025 4.607a57.033 57.033 0 0 1-3.083 4.162l.005.1.08 1.354c.926.48 2.538 1.246 3.301 1.243 19.568-.099 39.759-2.428 59.411-6.922 19.606-4.484 38.671-11.143 56.026-19.932 18.514-9.378 37.782-17.814 56.336-27.384 7.228-3.728 14.341-7.638 21.252-11.852 3.938-4.51 8.415-8.409 11.793-11.051.322-.252 5.397-4.454 7.534-5.914 7.204-4.919 13.661-.42 14.618.458 2.902 2.663 6.824 9.958-.046 17.734-3.36 3.802-12.552 10.597-17.642 14.198-.922 1.142-1.751 2.339-2.385 3.572-.094.183-.206.36-.315.536 2.057.111 5.558.231 7.85-.012 5.679-.604 11.208-1.689 14.679-1.966 20.308-1.618 38.08-7.723 54.504-16.312 26.364-13.788 49.311-33.897 73.255-53.158 7.617-6.128 20.081-11.583 29.443-18.558 2.389-1.78 4.556-3.621 5.953-5.808l.539-.937c.163-.284.267-.462.294-.505 23.738-38.851 35.709-13.936 22.548 12.306l-.448.838-.036.062c-.228.409-2.192 3.934-2.875 5.069l-3.014 5.564c-.622 2.006.018 5.298.802 8.523.224.923.641 2.024 1.107 3.085a303.085 303.085 0 0 1 14.146-9.572c4.81-3.068 9.7-6.01 14.643-8.852 25.424-14.621 51.938-27.011 77.692-40.791 6.267-3.354 12.486-6.794 18.632-10.373 2.264-1.318 4.842-3.293 7.613-5.519a14.421 14.421 0 0 1 .383-5.47c2.065-7.78 10.057-12.419 17.837-10.354.478.131 1.095.01 1.431.119Z"/><path d="M210.46 789.694c-.53 1.371-.948 2.712-1.145 3.888-1.13 6.718 1.365 11.793 4.872 14.937 2.198 1.97 4.86 3.516 7.893 4.596-2.49 2.499-5.601 5.821-7.942 8.967-3.475 4.672-5.317 9.477-5.596 12.807-.554 6.616 1.983 11.682 7.58 15.019 3.948 2.354 8.648 3.784 13.852 4.327a284.484 284.484 0 0 0-7.051 8.409c-.897 1.115-5.996 6.779-9.816 12.854-3.074 4.889-5.234 10.109-5.739 14.376-.925 7.827 1.789 14.12 8.678 18.147 4.306 2.517 9.124 4.108 14.288 4.866l-.119.276c-1.443 3.742-1.304 7.023-.587 9.559 1.055 3.725 3.312 6.824 7.423 8.771.845.4 1.725.751 2.639 1.049-3.258 4.863-6.654 10.837-7.303 15.337-1.091 7.565 1.587 13.418 7.998 16.959 4.556 2.516 9.651 3.736 15.061 3.807-.995 2.808-1.436 5.398-1.4 7.222.133 6.616 3.622 10.436 8.526 12.183 8.256 2.941 19.318.11 30.143-7.919 3.709-2.752 7.478-6.079 11.127-9.616a328.066 328.066 0 0 0-4.528 12.878c-3.496 10.689-6.389 21.652-8.207 33.143-.415 2.624-3.132 18.142-2.129 26.677 1.081 9.205 6.628 13.781 11.677 14.742.435.083.868.147 1.298.191l-3.674 11.6c-1.12 3.499-4.194 10.441-4.441 13.81-.275 3.737.883 6.54 2.269 8.427a14.055 14.055 0 0 0 2.074 2.291c-.413.563-.81 1.128-1.193 1.692-7.51 11.07-9.443 22.424-5.843 31.117 1.635 3.949 4.615 7.148 9.05 8.824.561 3.185 1.662 5.756 3.03 7.531 1.296 1.682 2.75 2.92 4.339 3.74-.976 4.644-1.677 9.94-.985 13.736.99 5.43 3.928 9.158 8.126 11.037 5.214 2.335 10.641 2.571 16.031 1.031-.936 4.279-1.778 9.51-1.685 14.017.117 5.713 1.828 10.517 4.546 13.518 8.391 9.261 19.474 8.928 30.931 1.643 6.154-3.914 12.494-10.142 18.089-16.466-2.794 7.039-5.18 13.842-6.127 19.99-.371 2.412-1.595 15.655.303 20.073 1.945 4.527 5.37 6.435 9.066 6.706l.624.032c-1.706 3.873-3.799 9.04-4.402 12.957-.682 4.428.241 8.076 1.839 10.466 2.252 3.372 5.062 4.766 7.846 5.222 2.529.415 5.357.013 8.227-1.679 2.135-1.259 4.605-4.01 6.979-7.037l-.049.194c-.563 2.29-1.78 8.569-1.823 13.516-.036 4.244 1 7.809 2.354 9.836 3.994 5.976 9.704 7.342 16.092 5.445 6.682-1.983 14.737-9.731 16.841-11.842 11.559-11.6 21.647-24.466 32.603-36.581 3.395-3.755 6.876-7.435 10.525-10.969-3.563 5.755-6.861 10.748-7.881 12.894-1.885 3.963-6.344 13.757-6.443 16.221-.173 4.263 1.988 6.633 3.85 7.921 1.699 1.176 5.91 3.573 11.316-.756a75.578 75.578 0 0 0 5.077-4.465l-.153.511c-.545 1.932-3.59 12.019-3.141 17.679.461 5.803 3.596 9.251 7.437 10.561 5.713 1.95 12.845.648 20.123-3.377-.889 2.764-2.754 9.091-2.851 13.12-.128 5.362 2.47 8.789 5.015 10.287 4.876 2.868 10.87 2.678 16.943-.316 7.78-3.836 16.025-12.855 18.773-15.727a158.837 158.837 0 0 0 10.478-12.147l-.744 3.077c-.781 3.343-2.393 12.211-1.338 18.463 1.015 6.013 4.275 10.163 8.89 11.79 4.72 1.663 9.723.782 14.417-2.199 6.002-3.811 11.59-11.847 13.832-14.67 6.577-8.283 12.848-16.807 18.965-25.447 8.93-12.611 17.531-25.468 26.301-38.159l-8.422 27.97c-.855 3.41-4.266 23.626-.828 33.324 1.432 4.041 3.852 6.88 6.793 8.499 3.591 1.976 8.618 2.726 15.267-.955 10.619-5.879 19.869-16.067 27.803-27.97-.271 3.093-.304 6.704.387 9.586 1.211 5.053 4.243 8.525 8.481 9.965 8.432 2.866 17.36.084 25.54-6.693 12.313-10.201 23.241-29.989 27.584-37.531l6.403-11.489a22.657 22.657 0 0 0 .065 2.824c.936 9.953 7.123 12.647 13.246 11.357 8.36-1.76 16.917-7.167 24.991-14.667 14.583-13.546 27.958-34.085 36.918-45.009l12.451-15.985c-1.995 10.708-5.903 22.243-6.514 29.645-.084 1.02-.641 13.488.803 16.915 1.485 3.522 4.036 5.139 6.309 5.846 2.336.727 5.074.787 8.082-1.045 9.631-5.863 17.564-16.038 23.997-28.406 12.034-23.132 19.021-54.264 26.168-72.367 2.197-5.558 3.438-8.78 4.737-11.669.2-.444.401-.88.61-1.316 2.328-3.334 4.734-6.626 6.96-10.026 2.067-3.158 3.987-6.404 5.608-9.824 2.344-4.946.672-8.032.36-8.721-.538-1.19-3.372-4.423-7.069-5.385a762.922 762.922 0 0 0 4.969-17.692c.704-2.612 6.347-16.907 7.587-25.83.904-6.5-.768-11.466-2.869-13.94-2.307-2.717-5.193-4.437-8.533-5.038.135-.435.263-.869.383-1.3 2.77-9.957 1.325-18.705-4.08-24.191-6.306-6.399-16.903-7.637-28.949-3.715-6.308 2.054-13.14 5.442-19.5 9.074a15.252 15.252 0 0 0-1.749-2.668c-5.273-6.459-14.892-8.577-26.312-5.72-4.459 1.115-9.276 2.952-13.968 5.049-.816-3.732-2.648-6.977-5.397-9.511-3.795-3.497-10.154-6.261-20.38-5.423l-.964.152c.756-3.392.793-6.514.157-9.095-1.736-7.05-8.085-14.873-25.97-12.511-10.392 1.372-20.555 4.633-30.423 8.908a190.267 190.267 0 0 0-9.51 4.454c-2.326-2.269-5.538-3.94-9.909-4.685-15.831-2.701-32.494 1.633-48.532 9.499a158.745 158.745 0 0 0-9.049 4.823 18.79 18.79 0 0 0-2.442-4.452c-3.214-4.36-8.596-7.185-15.324-7.785-7.924-.706-18.264 1.961-22.698 3.56-11.195 4.037-22.113 9.226-32.807 14.983l-2.154 1.172c-11.711-2.176-24.673.243-37.72 5.674-6.518 2.713-13.084 6.201-19.501 10.058-1.101-4.874-4.112-7.855-7.602-9.543-5.312-2.568-11.508-3.279-18.003-2.412-9.929 1.326-20.842 6.764-27.589 10.207-12.293 6.272-23.722 13.771-34.407 22.242-6.05 4.797-11.858 9.91-17.445 15.291-2.824.72-5.661 1.791-8.461 3.162-8.988 4.401-17.732 12.194-23.649 17.491-4.284 3.835-8.416 7.829-12.455 11.918a18.1 18.1 0 0 0-2.206-3.319c-.487-3.18-2.315-5.152-3.87-6.341-1.715-1.312-5.992-4.261-11.628-.61-3.653-.136-7.792.529-11.611 1.525 7.548-16.672 15.556-33.103 22.002-50.429 2.192-5.893-.326-9.185-.699-9.801-1.067-1.761-11.249-10.156-18.051-.07-.701 1.039-2.401 4.114-3.842 6.714 3.343-8.86 6.772-17.685 10.286-26.473 1.306-3.266 4.55-6.972 6.622-10.522 1.984-3.399 3.255-6.774 3.625-9.776.654-5.288-.778-10.036-5.163-14.034-4.384-3.997-8.559-3.683-11.903-2.514-2.251.788-4.708 2.403-6.49 5.515-.927 1.62-2.409 7.459-2.623 8.317l-9.507 22.093c-3.583 8.333-7.258 16.595-11.103 24.773a232.647 232.647 0 0 1 3.326-10.865c7.922-23.86 18.98-46.265 27.1-70.445 1.466-4.365.38-7.103-.045-8.247-1.796-4.84-5.262-7.004-9.605-7.507-1.758-.204-5.331-.327-9.049 2.805-.729.615-2.492 2.837-4.061 4.77l-.424-.244c-2.901-1.559-7.298-2.384-12.387-.678-4.908 1.646-12.075 6.815-13.236 7.624-7.294 5.085-14.201 10.715-20.499 16.943l-.967.98c-3.761 2.111-7.704 4.065-11.641 5.551-1.613.609-3.215 1.199-4.778 1.65 1.582-2.042 2.937-3.565 3.294-3.988 5.346-6.33 11.306-11.919 17.653-17.04 10.594-5.976 20.237-12.774 25.159-15.586l11.8-6.973c2.515-1.478 8.511-3.498 10.988-5.029 2.771-1.712 4.374-3.719 5.219-5.178 2.379-4.104 2.278-8.026.722-11.606-.85-1.956-2.432-4.777-6.352-6.609 1.814-3.778 1.324-6.83.827-8.743-1.327-5.102-4.609-9.629-12.454-9.629-7.887.02-16.799 2.736-25.755 7.317-10.997 5.626-22.278 14.077-31.561 21.42-3.976 1.472-8.047 2.762-12.077 3.707-3.912.918-7.777 1.638-11.343 1.593 2.538-3.54 5.427-7.549 5.91-8.142 8.511-10.465 22.481-25.835 37.821-38.086 5.375-2.412 9.999-4.617 13.296-6.05l20.534-9.732c2.318-1.131 8.037-3.881 9.233-4.869 3.86-3.188 4.699-6.803 4.96-8.895.499-3.998-.547-7.523-3.182-10.56-1.205-1.389-4.297-5.184-11.556-4.7-14.009.932-29.857 8.708-44.746 19.886l-1.178.896c-5.456 2.413-11.556 4.91-17.666 6.845 5.965-5.19 12.292-10.333 18.858-15.134 8.561-6.259 17.53-11.933 26.629-16.292.685-.328 1.087-.564 1.272-.672 10.352-6.073 6.397-15.947 5.884-17.231-1.257-3.15-4.411-9.04-13.411-8.76-.351.011-2.167-.014-4.826 1.019-.831.323-3.73 1.564-4.89 2.096l-12.387 5.644c-3.841 1.667-11.238 5.331-19.218 8.271a87.378 87.378 0 0 1 2.143-2.378c1.448-1.553 2.919-3.084 4.407-4.463l1.198-.708c2.438-1.437 8.537-4.862 10.071-5.974 3.423-2.484 4.617-5.165 5.053-6.178 1.834-4.262 1.341-7.883.273-10.712-1.09-2.889-2.975-5.506-6.205-7.352.39-.338.765-.689 1.112-1.062a20.657 20.657 0 0 0 2.382-3.062c5.851-9.247.985-15.411-1.147-17.854-2.407-2.757-6.575-5.956-13.43-4.882a17.018 17.018 0 0 0-4.491 1.384c-1.653.763-4.858 2.805-6.346 3.652l-11.796 7.707c-4.653 3.508-22.472 17.039-28.918 27.992-4.695 7.979-4.939 15.658-2.139 21.65 1.849 3.957 5.007 7.226 9.407 8.996Zm554.579 183.827c-7.93 1.248-15.664 3.895-23.206 7.2-5.026 2.203-9.965 4.698-14.813 7.32-1.248 4.055-3.035 7.795-4.827 10.341-5.946 8.445-16.131 17.949-27.366 23.409-8.83 4.291-18.274 6.095-27.064 4.172-4.19-.917-6.546-3.134-8.011-5.37-2.071-3.161-3.088-7.647-.523-12.838 2.004-4.057 9.181-10.645 13.143-13.243l16.151-9.703c-4.461 1.417-8.917 3.328-13.327 5.514-10.755 5.332-21.19 12.388-30.762 19.305-4.897 6.242-10.371 12.099-16.22 17.567-6.825 6.38-14.152 12.235-21.639 17.563-3.456 2.46-9.731 7.517-15.695 9.963-4.827 1.98-9.629 2.504-13.802 1.495-7.305-1.766-9.308-6.486-9.779-10.772-.265-2.413.086-5.575 2.273-8.833 1.87-2.787 7.855-7.366 10.713-9.584l29.425-20.493c5.035-3.467 10.599-7.578 16.559-11.893a99.66 99.66 0 0 0 1.897-2.539c.881-1.218 2.203-3.036 3.411-5.116-3.028.441-6.47 1.015-7.8 1.502-10.084 3.692-19.9 8.449-29.523 13.689-1.151.627-2.298 1.26-3.443 1.902-1.318 2.375-3.335 5.173-5.883 7.957-6.059 6.62-15.083 14.136-15.369 14.359-6.987 5.451-14.272 10.384-21.795 14.936-7.388 4.47-15.002 8.577-22.781 12.458-1.525.761-12.614 6.915-20.066 8.254-5.365.965-9.886-.031-12.954-1.875-2.541-1.528-4.175-3.304-5.194-5.168-6.241 6.335-13.039 12.611-19.819 17.502-9.855 7.109-19.95 11.31-28.763 11.289-1.691-.005-3.159-.208-4.436-.554-4.626 4.744-9.36 8.535-12.566 10.253-3.44 1.843-12.623 4.131-18.781 2.905-5.388-1.073-9.382-3.752-11.707-7.751l-.015.014a718.87 718.87 0 0 0-9.804 10.473c.695 1.154 1.221 2.618 1.358 4.477.095 1.293-1.096 6.677-1.851 8.783-1.081 3.015-2.16 5.511-3.425 7.992-1.16 2.274-2.484 4.535-4.15 7.199-2.781 4.446-7.932 13.284-14.315 21.935-2.963 7.64-5.484 15.276-7.609 22.383-.86 2.877-2.1 13.901-2.357 16.249 1.062.462 2.319-.308 3.632-.958 3.683-1.822 7.453-5.03 11.095-8.622 9.674-9.54 18.166-21.905 20.894-25.472l9.075-12.425c.898-1.176 2.437-3.982 3.411-5.082 1.595-1.803 3.294-2.66 4.48-3.066 3.21-1.101 6.013-.549 8.427 1.021 1.547 1.007 3.802 2.844 4.398 7.007 1.062 7.411-.304 15.749-3.071 24.402-4.473 13.99-12.932 29.045-15.513 41.617.498-.665.99-1.353 1.478-2.058 7.299-10.561 13.254-24.517 16.832-30.195l9.166-13.568c1.004-1.387 3.267-4.96 3.982-5.87 6.59-8.39 14.887-.284 15.713 1.386.277.558 2.175 3.465.017 8.278a190.926 190.926 0 0 1-2.956 6.279c1.291-1.379 2.579-2.442 3.762-3.148 5.54-3.305 9.238-.755 10.802.481 1.922 1.52 3.969 4.128 3.399 8.479-.216 1.647-3.815 8.014-5.164 10.696l-6.349 12.445c-5.199 11.025-10.316 22.406-14.635 34.024-2.827 7.603-5.312 15.308-7.242 23.079-.153.616-.347 2.032-.528 3.641 1.9-1.465 3.719-2.91 4.245-3.436 11.381-11.373 21.3-24.011 32.089-35.893 4.842-5.332 9.851-10.518 15.214-15.399.897-.817 15.165-13.451 21.481-16.104 6.534-2.743 10.994.077 13.02 2.962 1.189 1.692 1.957 4.334 1.917 7.622 2.11-2.855 4.232-5.614 5.91-7.024 2.549-2.141 5.093-2.856 7.001-2.921 3.885-.13 8.376 1.184 10.008 8.192.901 3.871.366 7.618-1.223 11.244-1.899 4.332-5.923 8.484-8.387 12.542-4.369 7.193-9.163 14.493-13.127 22.125-2.445 4.709-4.57 9.544-5.995 14.581-.169.597-.734 3.16-1.289 5.731 2.07-1.069 4.19-2.497 6.311-4.096 9.456-7.128 18.688-17.477 23.246-21.518l13.797-12.613c.806-.78 2.082-2.876 2.871-3.699 1.256-1.309 2.517-1.995 3.381-2.346 3.373-1.368 6.147-.601 8.333.954 1.392.989 3.704 2.931 3.702 7.363-.002 4.188-1.577 7.785-4.276 10.959-2.775 3.263-7.535 5.771-10.21 9.145-4.38 5.525-8.601 11.16-12.36 17.073-3.587 5.644-6.754 11.541-9.202 17.858 4.131-3.343 7.697-7.4 9.224-8.992 6.212-6.481 11.701-13.529 16.706-20.919 7.706-11.381 14.27-23.571 20.5-35.821l5.587-11.727c1.166-2.522 2.734-8.381 4.01-10.892.988-1.943 2.178-3.183 3.064-3.871 2.84-2.204 5.71-2.307 8.291-1.429 1.702.579 4.468 1.898 5.848 6.227.783 2.455.846 5.849.037 9.483-1.146 5.151-4.053 11.173-4.432 12.233-4.502 12.599-9.476 25.242-13.829 38.044-2.827 8.314-5.388 16.696-7.366 25.177-.25 1.07-.484 3.889-.66 6.568 2.607-2.781 5.84-6.278 6.817-7.51 6.379-8.044 12.459-16.325 18.392-24.715 9.013-12.746 17.689-25.744 26.545-38.568l18.435-26.194c.257-.324 6.749-7.03 9.456-9.478 7.733-6.993 15.06 3.47 15.174 4.791.38 4.411-.313 9.3-1.709 14.311-2.478 8.895-7.309 18.321-9.652 25.359l-10.037 33.489c-.453 1.818-.942 14.307-1.153 20.288 7.564-4.978 14.022-12.878 19.805-21.689 10.298-15.687 18.276-34.343 24.965-47.665.139-.277 4.68-12.886 8.588-19.564 2.714-4.639 6.154-7.126 8.247-7.775 3.986-1.236 6.772-.012 8.809 1.671 1.493 1.233 2.829 3.094 3.302 5.791.378 2.154-.596 6.934-1.063 9.33l-4.04 13.79c-3.825 12.299-9.062 24.676-13.072 37.203-1.625 5.075-3.039 10.176-4.034 15.309-.161.828-.291 3.109-.37 4.951.668-.22 1.335-.548 2.004-.914 2.587-1.414 5.077-3.628 7.485-6.173 8.981-9.493 16.413-23.489 19.71-29.251l11.475-20.708 8.09-17.117c.437-.986 3.579-11.99 7.244-17.704 2.423-3.777 5.473-5.956 8.048-6.742 4.162-1.272 7.101-.065 9.266 1.649 1.655 1.31 3.107 3.304 3.678 6.198.53 2.683-.78 8.642-.958 11.719-.152 2.631-3.356 20.386-5.434 31.687 3.939-2.852 7.805-6.629 11.603-10.71 11.813-12.694 22.372-28.844 29.834-37.991l17.244-22.24c.203-.241 4.213-4.528 7.818-7.233 2.651-1.99 5.358-3.137 7.207-3.445 5.073-.846 8.632 1.167 10.78 5.26 2.744 5.227 3.444 12.313 2.528 20.154-.767 6.569-2.701 13.818-4.374 20.413 2.102-3.807 4.028-7.924 5.846-12.185 3.504-8.208 6.523-16.979 9.255-25.54-3.123-1.023-5.525-3.136-5.726-3.442-.294-.451-2.922-4.175-.629-9.504.847-1.97 4.295-8.794 5.908-11.432l1.984-2.942c3.074-6.228 5.854-12.62 8.408-19.116 6.705-17.055 11.842-34.823 16.484-52.292.375-1.414 2.503-8.87 4.338-15.281l-.179.144a86.63 86.63 0 0 0-2.975 2.57 245.156 245.156 0 0 1-3.81 5.694l-8.703 11.694c-2.583 3.076-7.106 9.412-10.252 11.288-2.959 1.765-5.844 2.074-8.318 1.613-2.913-.543-5.905-2.051-8.02-5.966-1.269-2.35-2.097-6.01-.113-10.377 1.982-4.364 10.889-13.242 11.416-13.798 1.524-1.608 6.037-6.545 11.576-11.757 2.546-3.952 5.629-9.085 8.087-14.349 1.532-3.279 2.831-6.599 3.435-9.649.202-1.02.206-2.573.197-3.192-.827-.415-1.999.154-3.26.353-4.677.741-10.035 3.068-15.323 5.798-6.885 3.553-13.596 7.884-18.728 11.388a58.768 58.768 0 0 1-3.006 4.809c-4.277 6.163-9.708 11.505-14.646 14.337-5.259 3.016-10.405 3.574-14.602 2.311-3.107-.935-5.078-2.854-6.279-5.32-.862-1.768-2.123-5.156.221-9.491.351-.65 1.306-2.079 2.984-3.778 3.997-4.05 14.978-13.482 15.936-14.143l2.282-1.586.574-1.262.395-.924c-.466.031-.927.079-1.327.152-3.464.63-7.294 2.019-11.106 3.657-7.047 3.026-13.986 6.951-18.842 9.786-3.688 4.925-8.11 9.367-12.5 12.42-7.341 5.107-14.908 6.303-20.389 4.315-6.891-2.498-7.732-7.345-7.328-11.36.196-1.947.962-4.515 3.309-6.881 1.336-1.348 5.046-3.396 6.727-4.526l15.04-9.209.316-.18.295-.471c1.002-1.681 1.868-4.223 2.373-5.881-.896-.069-1.99-.109-2.962-.026l-6.332.936-15.889 7.101c-1.519 1.416-2.946 2.62-4.19 3.542-.186.138-13.199 8.806-18.48 10.377-8.742 2.601-13.352-2.602-14.866-6.617-.899-2.387-1.667-9.258 5.359-14.344 3.91-2.83 13.235-7.472 18.547-10.043 2.906-3.374 6.332-8.175 8.803-11.78Zm-425.276 168.27-.796.602c-4.16 2.943-8.038 3.652-10.428 3.658l-.14-.004c-.472 2.076-1.086 5.075-1.564 7.47.681-.336 1.363-.767 2.054-1.211 3.409-2.196 6.685-5.521 9.768-9.172l1.106-1.343Zm145.128-123.282-2.525 1.307c-10.686 5.519-20.607 12.113-29.881 19.54a199.989 199.989 0 0 0-4.902 4.056 18.252 18.252 0 0 1 1.821 4.781l.295-.178 20.877-13.622c5.451-5.721 10.375-11.402 14.315-15.884Z" style="fill-opacity:.85"/><path d="M137.407 701.225c4.305-3.102 14.705-1.14 19.691-1.14 14.029 0 30.217-.411 44.185-2.499 56.436-8.436 113.865-6.046 171.181-7.269 23.925-.51 60.714 6.003 83.826-2.272" style="fill:#fff;fill-opacity:.45"/><path d="M143.806 714.327c1.452 3.517 10.154-.57 13.292-.739 8.657-.441 18.069-1.049 27.325-2.09 6.37-.717 12.64-1.562 18.532-2.732 22.15-4.126 44.451-6.874 66.955-8.195a676.955 676.955 0 0 1 40.897-1.181c20.619.038 41.233 1.068 61.877 1.239 16.595.451 39.09 4.434 59.271 4.676 10.645.128 20.638-.975 29.251-3.53 7.578-2.713 11.527-11.068 8.814-18.646-2.713-7.577-11.068-11.527-18.645-8.814-5.899 2.488-12.92 3.955-20.474 4.651-19.83 1.829-42.316-.104-58.657 1.039-22.827 1.112-45.648 2.196-68.462 2.528-23.146.337-46.22.189-69.237 1.356-11.669.591-23.298 1.281-34.933 2.517-6.661.674-13.807.875-20.969.865-7.372-.01-14.71-.336-21.545-.689-4.485-.242-12.665-1.641-18.542-.9-3.847.486-7.04 2.022-9.674 3.711-6.531 4.705-8.012 13.826-3.307 20.357 4.213 5.848 11.968 7.647 18.231 4.577Z"/><path d="M475.482 671.227c2.817 0-4.04 3.945-5.809 6.137-3.03 3.755-5.1 8.654-7.324 12.953-7.536 14.572-10.603 31.388-10.603 47.722 0 48.485 22.341 92.439 58.825 125.208 69.83 62.72 163.403 82.584 253.5 56.35 36.702-10.687 68.273-25.432 88.62-59.762 16.083-27.136 16.891-63.088 13.633-93.391-7.042-65.482-40.205-132.427-105.54-158.157-48.119-18.95-104.753-11.143-154.519-4.091-44.617 6.322-71.359 27.686-105.032 54.312-4.857 3.84-30.803 17.563-30.803 23.174" style="fill:#fff;fill-opacity:.45"/><path d="M477.755 656.807a18.708 18.708 0 0 0-2.273-.164c-4.282 0-8.135 1.85-10.804 4.794-2.029-.092-5.048 5.326-6.247 6.856a46.022 46.022 0 0 0-3.645 5.409c-1.874 3.257-3.45 6.815-5.078 10.077-4.229 8.471-7.232 17.543-9.069 26.881-1.776 9.024-2.551 18.271-2.421 27.379.367 26.39 6.737 51.466 18.143 74.313 11.107 22.247 26.877 42.43 46.433 59.554 36.772 32.262 79.576 53.27 124.899 62.726 44.961 9.381 92.408 7.489 138.875-6.461 19.136-5.694 36.89-12.508 52.539-22.309 16.082-10.072 30-23.251 40.879-41.704 6.959-11.763 11.279-25.046 13.733-38.858 3.533-19.877 3.162-40.876 1.191-59.779-3.427-34.16-13.801-68.696-31.659-98.162-18.177-29.991-44.15-54.7-78.676-68.697-20.363-8.3-42.229-12.042-64.531-13.122-32.058-1.553-65.035 2.554-95.506 6.467-18.964 2.423-34.963 7.457-49.659 14.302-21.909 10.206-40.788 24.689-62.323 41.225-2.206 1.691-8.383 5.268-14.801 9.273Zm-1.813 38.375-.951 1.673c-3.282 6.129-5.649 12.736-7.194 19.553-1.61 7.107-2.42 14.415-2.523 21.631-.311 22.378 4.514 43.787 13.67 63.41 9.21 19.741 22.656 37.71 39.404 53.139 33.16 30.489 72.097 50.855 113.65 60.394 41.742 9.582 86.037 8.326 129.576-3.96 17.608-5.014 34.033-10.918 48.456-19.787 13.914-8.556 25.928-19.883 35.366-35.723 7.443-12.55 11.305-27.159 12.951-42.118 1.711-15.545 1.008-31.467-.61-46.026-3.611-31.471-13.451-63.281-30.391-90.183-16.458-26.138-39.703-47.554-70.353-59.273-18.304-6.959-37.868-9.747-57.746-10.214-30.727-.722-62.184 4.179-91.255 8.686-16.044 2.498-29.52 7.12-41.834 13.28-19.936 9.973-36.829 24.008-56.249 39.817-3.687 3.007-20.142 23.537-26.6 19.04a14.622 14.622 0 0 1-7.367 6.661Z"/><path d="M821.889 681.002c-4.581-.82 11.875-9.321 13.632-10.002 10.307-3.99 21.588-7.385 32.567-8.862 20.999-2.823 46.787-2.685 67.671.914 7.195 1.239 12.974 2.093 19.692 4.77 1.69.674 10.353 4.957 10.353 3.631" style="fill:#fff;fill-opacity:.45"/><path d="M833.776 689.449c2.513-1.479 5.628-6.455 6.261-6.785 4.65-2.36 9.403-4.726 14.424-6.63 4.915-1.863 9.888-3.437 14.888-4.518 5.123-.961 10.516-1.93 16.118-2.385 5.369-.435 10.895-.605 16.396-.337 11.189.544 22.152 2.747 32.011 5.202 3.347.939 6.309 1.777 9.255 2.762 2.51.839 4.82 2.008 7.411 3.383 1.597.863 8.5 4.682 11.33 5.634 5.414 1.822 9.34-.772 11.472-1.746 4.855-2.218 6.319-6.863 7.046-12.576 0-7.255-5.31-13.28-12.252-14.395-.844-1.727-6.786-1.288-7.774-1.555-3.406-.944-6.495-1.726-9.659-2.163-4.218-.581-8.313-.915-13.058-1.232-8.979-.826-18.651-.873-28.554-.706-5.613.095-11.262.293-16.857.409-8.795.184-17.411.21-25.407.95-6.024.327-12.089 1.331-18.185 2.458-6.024 1.114-11.902 2.536-17.636 4.118-1.405.371-9.94 3.898-15.155 6.751-2.976 1.629-4.824 3.787-6.041 5.099-4.759 5.129-3.203 10.722-2.199 14.584.969 3.732 4.301 7.361 11.708 9.586 5.733 1.027 11.288-1.455 14.457-5.908Zm117.458-18.493a1.543 1.543 0 0 0-.013.497l.013-.497Zm-122.688-2.93a8.12 8.12 0 0 0-4.088-1.379c1.461.262 2.833.733 4.088 1.379Z"/><path d="M946.105 670.095c-16.029 0-21.013 17.357-28.273 27.952-23.959 34.967-24.726 85.259-3.786 121.109 53.321 91.289 194.659 116.365 280.757 62.721 25.996-16.198 42.73-42.884 60.09-67.031 9.136-12.709 28.392-20.372 33.332-35.683 8.016-24.846-3.537-57.085-11.868-80.21-5.592-15.521-9.054-33.915-18.435-47.722-12.952-19.065-29.36-41.609-50.244-52.493-49.859-25.986-112.362-.423-160.07 17.045-28.599 10.471-58.791 24.892-84.583 41.132-2.981 1.876-22.979 9.885-22.979 12.5" style="fill:#fff;fill-opacity:.45"/><path d="M928.249 660.768a32.233 32.233 0 0 0-2.597 1.862c-8.537 6.764-13.56 18.855-19.316 27.54-13.082 19.738-19.85 43.567-20.177 67.512-.326 23.857 5.538 47.769 17.47 67.558 28.789 47.874 80.284 78.312 136.147 89.392 55.345 10.978 114.8 3.1 159.635-25.36 11.06-6.957 20.553-15.671 29.126-25.299 12.268-13.777 22.635-29.443 33.196-44.21 6.112-8.468 16.99-14.487 24.651-22.336 4.473-4.584 8.033-9.68 9.984-15.636 3.689-11.227 3.896-23.816 2.134-36.559-2.403-17.376-8.525-35.062-13.552-49.375-3.849-10.973-6.676-23.335-11.171-34.589-2.183-5.464-4.754-10.675-7.912-15.435-7.91-11.921-17.132-25.105-27.835-36.289-7.721-8.067-16.245-15.062-25.542-20.039-21.846-11.746-46.033-14.431-70.59-12.182-34.217 3.135-69.184 16.217-98.66 26.529-14.777 5.164-29.962 11.36-44.817 18.271-14.924 6.944-29.487 14.645-42.937 22.819-2.537 1.54-16.84 7.202-21.984 10.649-2.378 1.594-4.067 3.386-5.253 5.177Zm30.023 17.361c-2.61 3.945-7.087 6.549-12.167 6.549-2.827-.044-4.442 1.892-5.939 3.868-4.142 5.471-7.213 12.26-10.837 17.378-10.732 15.156-16.463 33.73-17.272 52.493-.825 19.145 3.269 38.499 12.405 54.655 24.502 43.207 69.978 71.004 119.43 81.904 50.36 11.101 104.895 4.826 146.303-20.495 9.716-5.996 18.052-13.57 25.599-21.932 11.951-13.24 21.978-28.394 32.258-42.621 6.527-9.114 17.974-15.844 26.143-24.322 2.59-2.688 4.781-5.588 5.887-9.07 2.807-8.864 2.651-18.786 1.129-28.794-2.453-16.132-8.558-32.455-13.448-45.693-3.412-9.238-6.058-19.511-9.684-29.202-2.164-5.783-4.706-11.337-8.101-16.219-7.541-10.843-16.258-22.874-26.364-32.977-6.326-6.325-13.214-11.859-20.748-15.68-18.292-9.236-38.374-10.65-58.604-8.238-32.205 3.841-64.756 17.447-92.286 27.98-13.831 5.297-28.026 11.569-41.875 18.536-13.778 6.932-27.184 14.585-39.538 22.639-1.391.908-7.136 6.132-12.291 9.241Z"/><path d="M39.005 534.365C-9.712 382.218 92.317 247.958 197.107 145.422c43.172-42.244 77.109-83.785 136.184-105.101 119.145-42.99 260.137-28.14 376.922 15.176 48.611 18.031 192.181 110.083 214.976 158.754 14.42 30.788 1.693 65.011-43.38 73.092" style="fill:#fff"/><path d="M52.894 529.918c-19.344-57.945-15.458-113.429 2.558-165.452 27.618-79.747 87.621-151.395 148.429-212.12 25.638-25.437 47.885-50.656 74.402-71.307 16.872-13.139 35.497-24.4 57.928-32.625 58.535-21.072 122.448-28.1 186.027-24.132 63.744 3.978 127.074 19.034 184.417 40.808 27.599 10.574 86.325 46.098 134.997 83.374 33.694 25.804 62.754 52.103 71.517 71.416 5.524 12.192 5.662 25.053-.936 35.152-5.915 9.055-17.052 15.318-32.998 17.957-7.922 1.42-13.201 9.005-11.781 16.928 1.421 7.922 9.006 13.201 16.928 11.781 25.5-4.926 42.211-16.965 51.335-31.756 11.046-17.911 11.66-40.305 1.492-61.321-10.364-21.451-42.721-51.211-81.219-79.327-51.443-37.569-113.314-73.018-142.22-83.389C654.386 24.399 588.922 10.36 523.254 6.819c-65.971-3.557-132.207 3.465-192.883 25.409-24.346 8.642-44.602 20.615-63.017 34.6-27.325 20.754-50.491 46.068-77.022 71.67C125.87 200.301 62.67 273.885 32.113 356.089c-21.197 57.026-26.789 118.183-6.997 182.723 2.455 7.666 10.671 11.896 18.336 9.442 7.666-2.455 11.896-10.671 9.442-18.336Z" style="fill-opacity:.85"/><path d="M364.061 586.727c-5.582-2.51 23.655-9.664 26.989-11.005 20.106-8.083 42.976-15.218 63.666-21.617 14.603-4.516 28.004-16.574 43-21.63 45.964-15.5 102.356-20.626 150.513-25.425 92.134-9.182 190.155-12.908 282.903-12.908 43.742 0 95.75 13.868 138.297 1.148 15.371-4.596 14.131-43.828 11.382-54.644-32.087-126.219-102.174-179.008-120.467-216.161-30.891-62.741-143.738-11.254-199.96-4.68-154.18 18.029-301.87 49.531-447.759 103.967-72.959 27.223-146.231 46.99-206.59 98.66-32.552 27.866-57.762 57.816-77.665 96.043-21.124 40.572 14.433 64.656 31.641 98.275 5.488 10.721 36.72 80.556 43.494 76.994 39.642-20.842 76.702-46.15 117.631-65.647 28.472-13.563 57.674-24.691 87.695-33.769 10.159-3.072 19.886-6.478 30.353-8.358 5.082-.912 20.353-3.037 15.19-3.037-6.843 0-13.43.077-20.249.769" style="fill:#abe9f6"/><path d="M354.64 597.986a17.87 17.87 0 0 0 3.441 2.041c5.272 2.371 11.214 1.347 15.366-2.138 5.041 1.774 20.798-7.943 22.965-8.831 7.826-3.208 16.085-6.273 24.469-9.201 12.721-4.442 25.719-8.581 37.947-12.454 3.698-1.171 7.341-2.706 10.938-4.51 10.727-5.378 20.974-13.635 32.293-17.537 17.848-6.153 37.342-10.684 57.298-14.229 30.314-5.386 61.67-8.532 90.12-11.555 45.842-4.845 93.156-8.342 140.555-10.694 47.415-2.353 94.91-3.567 141.1-3.842 30.357-.16 64.729 6.331 97.124 6.003 15.292-.155 30.168-1.765 44.087-6.001 7.906-2.407 14.011-9.846 17.083-20.459 4.513-15.592 3.081-38.192.96-46.367-9.723-37.595-22.724-68.791-36.723-95.072-33.224-62.373-72.264-96.357-85.302-122.602-11.815-23.827-33.635-33.71-60.274-35.334-47.28-2.883-110.751 21.656-148.691 26.158-77.434 9.003-153.216 21.501-228.008 38.357-74.828 16.864-148.675 38.096-222.07 65.189-44.183 16.246-88.451 29.821-129.995 49.245-28.256 13.21-55.252 29.113-80.179 50.23-16.875 14.281-31.841 29.126-45.198 45.303-13.408 16.239-25.178 33.834-35.596 53.572-10.416 19.727-9.571 36.319-3.727 51.744 7.327 19.338 24.338 36.583 34.726 57.205 4.444 8.823 25.692 56.574 37.47 73.309 4.913 6.98 10.303 9.97 13.225 10.606 3.462.754 6.55.163 9.305-1.263 28.003-14.492 54.747-31.192 82.44-46.537 11.484-6.364 23.137-12.485 35.123-18.1a589.087 589.087 0 0 1 42.362-17.836c14.353-5.4 28.896-10.236 43.634-14.577 6.011-1.771 11.87-3.663 17.824-5.276 3.6-.974 7.239-1.834 10.981-2.479 2.878-.495 8.798-1.362 12.927-2.068Zm7.121-27.975c8.104-3.135 21.628-6.718 23.927-7.624 8.326-3.282 17.105-6.411 26.016-9.388 13.044-4.359 26.365-8.408 38.899-12.192 10.993-3.319 21.197-11.357 32.102-16.755 3.498-1.731 7.045-3.265 10.667-4.459 19.199-6.33 40.127-10.939 61.546-14.452 30.99-5.084 63.007-7.908 92.063-10.613 46.339-4.339 94.147-7.302 142.027-9.106 47.772-1.799 95.61-2.451 142.124-2.173 30.346.159 64.636 7.022 97.02 7.026 13.286.002 26.234-1.173 38.362-4.733 1.638-.481 2.072-2.534 2.848-4.565 1.329-3.48 2.128-7.646 2.603-11.925 1.14-10.286.452-21.226-.729-25.971-8.99-35.987-21.14-65.898-34.319-91.104-32.825-62.782-71.705-97.142-84.589-123.545-8.719-17.833-25.468-24.45-45.346-25.751-46.284-3.03-108.445 21.286-145.611 25.568-76.806 9.032-152.017 21.313-226.143 38.344-73.977 16.996-146.857 38.723-219.296 66.042-43.484 16.463-87.105 30.221-127.945 49.812-26.489 12.707-51.79 27.904-75.062 48.034-15.71 13.603-29.635 27.701-42.019 43.049-12.29 15.232-23.04 31.709-32.516 50.162-6.493 12.65-6.059 23.208-2.214 32.993 7.3 18.577 24.214 34.834 34.497 54.607 4.14 7.96 23.019 49.429 34.726 67.126 24.82-13.7 48.75-28.927 73.476-43.05 11.922-6.81 24.027-13.362 36.485-19.396a619.185 619.185 0 0 1 44.054-19.251 658.58 658.58 0 0 1 45.34-15.874c5.86-1.818 11.577-3.739 17.373-5.424a14.538 14.538 0 0 1 10.527-6.23l21.72-.696c3.179.023 5.589.673 7.387 1.514Zm11.874 5.715c-.94-.857-2.113-1.647-3.594-2.3a14.487 14.487 0 0 1 3.594 2.3Z"/><path d="M439.109 256.612c.695-1.046-14.137 17.608-18.123 22.765-12.686 16.407-24.396 32.358-33.313 51.227-26.632 56.356-36.319 129.829-40.47 191.623-5.475 81.482-20.092 162.098-29.089 243.228-6.609 59.597-6.906 120.083-14.759 179.484-5.722 43.283-5.489 86.201-5.489 129.769 0 13.909-.952 27.773 2.529 41.357 1.846 7.201 14.187 21.253 6.754 21.253-9.822 0-28.766-31.943-33.73-38.32-37.842-48.618-54.456-97.933-76.73-154.816C157.05 842.953 84.898 754.62 61.44 649.102c-12.644-56.875-51.819-89.774-46.333-148.987 5.876-63.431 4.479-82.04 29.06-139.625" style="fill:#fff"/><path d="M290.362 1108.72c-4.569-6.547-8.387-12.541-10.244-14.932-14.618-18.901-25.973-37.895-35.672-57.427-14.95-30.108-26.014-61.468-39.156-95.542-27.212-70.954-70.331-135.719-101.602-204.376-13.2-28.98-24.211-58.675-30.871-89.866-8.603-40.49-30.513-69.127-40.604-103.376-3.742-12.703-5.616-26.281-4.024-41.87 3.896-37.986 4.884-59.532 10.796-83.432 3.653-14.773 9.264-30.44 18.594-51.68 3.16-7.403-.285-15.978-7.687-19.138-7.403-3.16-15.978.285-19.138 7.687-9.671 23.328-15.334 40.533-18.985 56.692-5.675 25.117-6.451 47.645-9.745 87.447-1.607 19.318.981 36.073 5.906 51.697 10.578 33.563 32.906 61.29 42.134 101.032 7.551 32.669 19.628 63.691 33.973 93.941 32.179 67.858 75.976 131.732 104.052 201.977 13.702 34.47 25.363 66.159 40.798 96.613 10.351 20.421 22.364 40.301 37.833 60.049 3.829 4.907 15.819 24.476 25.805 34.042 5.266 5.044 10.635 7.495 14.624 7.49 3.759-.004 6.138-1.397 7.73-2.941 2.4-2.327 3.937-6.095 2.497-11.195-1.291-4.572-7.533-12.72-8.787-17.643-1.248-4.902-1.838-9.846-2.117-14.814-.456-8.099-.095-16.263-.082-24.443.063-26.023.019-51.813 1.267-77.584.823-16.994 2.222-33.977 4.545-51.016 2.46-17.994 4.218-36.09 5.696-54.231 3.404-41.763 5.214-83.77 10.075-125.329 6.733-56.716 16.191-113.158 23.395-169.837 3.115-24.506 5.819-49.052 7.689-73.688 2.757-36.25 7.464-76.575 16.522-114.928 5.992-25.372 13.921-49.857 24.477-71.639 3.375-6.964 7.177-13.481 11.265-19.774 6.393-9.844 13.523-19.116 20.975-28.561 3.038-3.851 12.364-15.369 16.341-20.202.254-.308.49-.612.706-.916a14.59 14.59 0 0 0 1.913-2.321c.168-.258.182-.768.055-1.462 1.306-4.326-1.125-7.708-4.894-10.175-4.966-7.036-12.926-12.906-20.44-3.396-3.967 5.022-13.272 16.985-16.301 20.984-7.795 10.289-15.225 20.402-21.877 31.097-4.563 7.336-8.781 14.93-12.509 23.022-10.907 23.679-18.979 50.194-24.922 77.637-8.62 39.801-12.832 81.537-15.019 119.041-1.42 24.27-3.642 48.468-6.311 72.629-6.279 56.831-14.921 113.447-20.782 170.302-4.386 41.841-5.647 84.099-8.631 126.123-1.266 17.822-2.859 35.6-5.117 53.285-2.25 17.564-3.526 35.064-4.26 52.568-1.093 26.038-.97 52.086-.906 78.371.013 8.508-.312 17 .188 25.422.17 2.871.434 5.733.832 8.586Z" style="fill-opacity:.85"/><path d="M258.803 1075.33c.639-2.313-40.709 20.82-46.376 29.218-17.522 25.964-26.246 74.803-20.666 105.871 11.782 65.602 112.401 102.589 167.385 75.882 28.677-13.929 46.693-134.361 18.123-160.122-19.619-17.69-55.607-42.883-83.054-42.883-8.031 0-74.513 1.148-43 1.148" style="fill:#fff"/><path d="M236.025 1070.82a54.797 54.797 0 0 0-3.47.748c-12.239 2.198-17.654 6.178-18.406 10.415-1.023 1.554-1.506 3.145-1.337 4.702-5.449 4.162-9.724 7.949-11.338 10.473-9.288 14.466-16.29 35.057-19.827 56.373-3.454 20.815-3.826 42.209-.472 58.79 7.034 35.785 37.54 63.842 74.347 78.923 36.126 14.801 77.877 17.184 107.32 2.669 5.359-2.572 10.633-7.837 15.322-15.379 9.666-15.548 17.388-41.839 21.033-68.787 3.066-22.662 3.196-45.73-.541-63.22-2.674-12.515-7.605-22.347-14.089-28.441-11.983-11.296-29.987-25.382-48.632-35.253-14.137-7.483-28.751-12.296-41.72-12.604-2.684-.067-11.84-.165-21.731-.238a13.62 13.62 0 0 0-1.88-3.317c-1.874-2.454-6.357-7.806-15.197-5.738-1.279.299-4.214 1.264-8.027 3.272-3.024 1.592-6.999 3.908-11.355 6.612Zm7.81 27.866c-4.239 2.4-8.539 4.978-12.3 7.442-3.727 2.441-7.054 4.263-8.156 5.813-8.235 11.621-14.516 28.519-18.233 46.031-3.772 17.772-5.06 36.157-2.799 50.547 4.828 29.67 30.182 52.919 60.237 66.022 30.988 13.51 67.224 16.419 92.865 4.151 4.487-2.212 8.139-8.163 11.665-15.838 6.596-14.353 11.364-34.7 13.55-55.343 1.809-17.089 1.751-34.398-.629-48.711-1.807-10.871-4.7-19.879-10.064-24.526-11.18-9.64-27.82-21.612-44.922-29.684-10.592-4.999-21.338-8.45-30.834-8.225-4.12.103-23.744.901-37.393 1.543a14.494 14.494 0 0 1-5.607 1.12c-2.61-.069-5.067-.183-7.38-.342Z"/><path d="M523.967 227.056c-10.649-18.021-11.465-21.76-16.831-29.389-2.857-4.063-6.949-9.223-14.434-18.045-31.813-37.559-65.114-50.227-97.14-47.422-46.975 4.115-92.385 43.378-126.444 90.712-6.988 9.666-11.186 19.224-13.801 28.861-5.736 21.135-3.158 42.596-8.856 66.377-3.681 15.159-6.141 29.185-7.97 42.699-4.453 32.904-4.981 62.714-9.681 98.781-3.7 26.702-12.646 52.188-18.22 78.661-2.475 11.752-4.327 23.687-4.843 35.995-2.182 49.039-1.475 98.506 3.016 147.578 4.518 49.363 12.912 98.307 26.593 145.991 7.023 24.61 9.079 47.314 16.075 69.548 3.246 10.315 7.525 20.504 13.546 30.745 4.2 6.866 13.184 9.031 20.05 4.831 6.867-4.2 9.031-13.184 4.831-20.05-6.994-10.998-11.342-22.045-14.649-33.346-5.539-18.924-8.511-38.437-15.175-59.209-14.64-45.822-24.341-93.004-29.97-140.74-5.665-48.032-7.251-96.578-6.186-144.744.279-11.299 1.769-22.283 3.901-33.094 5.308-26.912 14.21-52.82 17.731-79.924 4.971-35.98 5.626-65.758 10.422-98.569 1.887-12.908 4.456-26.289 8.174-40.742 6.096-23.407 3.854-44.703 9.969-65.484 2.19-7.444 5.633-14.791 11.234-22.177 25.579-33.59 57.019-63.241 90.519-74.315 31.748-10.495 64.879-2.372 95.714 36.402 6.405 8.072 9.931 12.759 12.356 16.46 4.779 7.293 5.322 10.867 14.719 28.032 3.98 6.996 12.891 9.444 19.887 5.464 6.996-3.98 9.444-12.892 5.463-19.887Z" style="fill:#aeebf9;fill-opacity:.62"/><path d="M685.863 196.743c-8.987-12.638-17.978-26.895-26.883-39.305-4.522-6.302-9.017-12.161-13.485-17.174-16.776-18.829-40.257-40.958-65.343-58.257-17.729-12.225-36.242-22.079-53.83-26.947-41.372-11.487-107.419-1.18-170.718 19.602-61.872 20.313-121.106 50.227-151.336 77.871-11.844 10.774-22.253 23.772-31.385 37.85-13.286 20.481-23.875 43.257-32.132 64.692-18.249 46.455-41.92 100.986-56.295 155.575-10.035 38.114-15.542 76.278-11.659 112.002 2.454 22.944 7.677 44.742 14.245 66.018 14.924 48.347 37.205 93.833 49.746 143.956 9.297 37.314 19.023 64.4 27.421 96.361a551.11 551.11 0 0 1 9.106 40.805c1.569 7.894 9.252 13.029 17.147 11.46 7.894-1.569 13.029-9.252 11.46-17.146-3.348-15.677-6.966-29.536-10.78-42.59-9.24-31.63-19.618-58.382-29.861-95.334-13.884-50.288-37.488-95.659-53.654-144.122-6.625-19.86-11.961-40.252-14.719-61.772-4.221-33.4.38-69.257 9.312-105.085 13.477-54.066 36.66-108.015 54.264-154.029 6.645-17.03 14.784-34.981 24.755-51.746 9.767-16.419 21.292-31.696 34.835-43.788 29.232-25.937 86.264-53.494 145.638-71.779 58.835-18.119 119.999-27.368 157.985-15.917 15.116 4.569 30.847 13.634 45.921 24.59 22.884 16.632 44.103 37.781 59.217 55.66 3.755 4.446 7.492 9.641 11.264 15.205 8.554 12.617 17.142 27.081 25.771 39.929 4.577 6.621 13.668 8.28 20.289 3.704 6.621-4.577 8.28-13.668 3.704-20.289ZM784.266 191.919c-4.921-14.157-8.915-21.698-13.424-27.157-6.651-8.052-14.111-10.559-27.298-27.251-5.806-8.065-14.623-16.472-24.109-25.703-5.858-5.701-11.877-11.802-17.986-17.914a746.453 746.453 0 0 1-17.393-17.982c-8.63-9.236-16.135-18.247-21.658-26.266-5.155-6.182-14.358-7.016-20.54-1.861-6.182 5.154-7.016 14.358-1.861 20.539 10.182 10.242 25.082 21.307 40.348 33.11 8.826 6.824 17.819 13.71 25.657 20.975 9.318 8.637 16.853 17.704 21.945 25.664 10.508 18.273 17.61 21.721 22.803 30.672 2.446 4.217 3.647 9.996 5.208 20.197 1.938 7.812 9.853 12.581 17.665 10.643 7.812-1.938 12.581-9.854 10.643-17.666Z" style="fill:#aeebf9;fill-opacity:.62"/></svg>