<?xml version="1.0" encoding="UTF-8" standalone="no"?><!DOCTYPE svg PUBLIC "-//W3C//DTD SVG 1.1//EN" "http://www.w3.org/Graphics/SVG/1.1/DTD/svg11.dtd"><svg width="100%" height="100%" viewBox="0 0 25 25" version="1.1" xmlns="http://www.w3.org/2000/svg" xmlns:xlink="http://www.w3.org/1999/xlink" xml:space="preserve" xmlns:serif="http://www.serif.com/" style="fill-rule:evenodd;clip-rule:evenodd;stroke-linejoin:round;stroke-miterlimit:2"><g id="Cara"><g id="Light.Mechon"><path d="M16.814,5.868c0,-0.413 0.928,-0.572 1.187,-0.633c0.337,-0.08 0.674,-0.118 1.015,-0.176c0.772,-0.132 1.91,-0.438 2.52,0.28c0.173,0.203 0.262,0.897 0.154,1.134c-0.115,0.254 -0.329,0.419 -0.465,0.652c-0.118,0.202 0.207,0.25 0.115,0.463c-0.178,0.414 -0.811,0.442 -1.176,0.489c-0.119,0.015 -0.388,0.083 -0.511,0.028c-0.277,-0.126 -0.567,-0.666 -0.787,-0.876c-0.485,-0.462 -1.097,-0.723 -1.607,-1.131c-0.127,-0.102 -0.189,-0.276 -0.284,-0.359" class="dark:hidden"/><path d="M16.813,6.368c0.053,0.038 0.106,0.073 0.147,0.103c0.381,0.278 0.807,0.481 1.208,0.733c0.148,0.093 0.293,0.191 0.427,0.309c0.175,0.154 0.398,0.501 0.619,0.705c0.099,0.091 0.198,0.164 0.295,0.204c0.08,0.033 0.188,0.054 0.307,0.047c0.138,-0.009 0.302,-0.049 0.39,-0.064c0.284,-0.044 0.711,-0.089 1.011,-0.265c0.177,-0.103 0.319,-0.242 0.397,-0.434c0.082,-0.198 0.047,-0.498 -0.043,-0.573c0.074,-0.096 0.157,-0.184 0.229,-0.282c0.059,-0.079 0.113,-0.164 0.156,-0.257c0.071,-0.151 0.093,-0.449 0.058,-0.742c-0.035,-0.296 -0.133,-0.58 -0.242,-0.713c-0.294,-0.365 -0.698,-0.526 -1.139,-0.583c-0.561,-0.073 -1.192,0.048 -1.683,0.114l-1.049,0.141c-0.202,0.038 -0.748,0.128 -1.094,0.317c-0.319,0.173 -0.479,0.446 -0.493,0.74c0,0.276 0.224,0.499 0.499,0.5Zm4.223,1.152c-0.047,-0.069 -0.119,-0.186 -0.127,-0.265c-0.007,-0.081 0.003,-0.173 0.065,-0.277c0.101,-0.172 0.242,-0.311 0.359,-0.471c0.035,-0.048 0.066,-0.098 0.091,-0.155c0.039,-0.086 0.023,-0.255 -0.001,-0.421c-0.024,-0.16 -0.06,-0.322 -0.122,-0.392c-0.195,-0.217 -0.457,-0.294 -0.734,-0.313c-0.502,-0.033 -1.053,0.132 -1.485,0.221l-0.981,0.212c-0.07,0.02 -0.206,0.128 -0.352,0.223c0.288,0.223 0.6,0.414 0.893,0.636c0.173,0.131 0.34,0.268 0.494,0.427c0.15,0.154 0.33,0.465 0.518,0.695c0.044,0.055 0.082,0.109 0.126,0.138c0.057,-0.005 0.272,-0.024 0.342,-0.03c0.17,-0.017 0.402,-0.025 0.614,-0.079c0.116,-0.03 0.233,-0.064 0.3,-0.149Z" class="dark:hidden"/></g><path d="M1.954,14.765c0.056,0.261 0.174,0.666 0.343,0.954c0.168,0.289 0.428,0.536 0.67,0.779c0.245,0.248 0.548,0.46 0.805,0.708c0.275,0.264 0.606,0.566 0.844,0.877c0.232,0.305 0.453,0.63 0.583,0.99c0.131,0.361 0.132,0.786 0.201,1.178c0.072,0.407 0.128,0.859 0.233,1.264c0.102,0.398 0.212,0.907 0.394,1.169c0.153,0.221 0.486,0.238 0.699,0.403c0.293,0.225 0.713,0.775 1.057,0.948c0.301,0.152 0.672,0.048 1.007,0.089c0.569,0.071 1.73,0.349 2.408,0.335c0.569,-0.011 1.218,-0.264 1.655,-0.418c0.342,-0.121 0.666,-0.299 0.965,-0.506c0.307,-0.212 0.597,-0.497 0.877,-0.766c0.315,-0.301 0.724,-0.687 1.011,-1.043c0.273,-0.338 0.518,-0.788 0.712,-1.092c0.154,-0.243 0.37,-0.532 0.451,-0.734c0.06,-0.15 0.056,-0.366 0.035,-0.483c-0.015,-0.089 -0.248,-0.201 -0.159,-0.218c0.11,-0.021 0.546,0.083 0.821,0.09c0.348,0.01 0.848,0.029 1.266,-0.031c0.432,-0.063 0.968,-0.184 1.328,-0.343c0.313,-0.139 0.633,-0.34 0.827,-0.612c0.195,-0.272 0.294,-0.664 0.341,-1.019c0.069,-0.516 0.053,-1.493 0.073,-2.077c0.017,-0.476 0.122,-0.957 0.049,-1.428c-0.083,-0.538 -0.355,-1.205 -0.551,-1.802c-0.295,-0.89 -0.927,-2.767 -1.213,-3.542c-0.141,-0.382 -0.217,-0.823 -0.504,-1.11c-0.396,-0.396 -1.309,-0.944 -1.867,-1.267c-0.468,-0.27 -0.965,-0.501 -1.48,-0.667c-0.593,-0.191 -1.394,-0.402 -2.078,-0.48c-0.673,-0.077 -1.356,-0.048 -2.03,0.012c-0.8,0.071 -1.87,0.162 -2.769,0.413c-0.914,0.256 -1.932,0.688 -2.717,1.121c-0.725,0.401 -1.493,1.04 -1.994,1.481c-0.387,0.34 -0.784,0.824 -1.015,1.165c-0.18,0.265 -0.262,0.583 -0.375,0.882c-0.114,0.305 -0.25,0.62 -0.313,0.947c-0.08,0.415 -0.075,1.033 -0.167,1.541c-0.098,0.537 -0.346,1.298 -0.416,1.68c-0.037,0.2 -0.05,0.413 -0.007,0.612Z" style="fill:#fff"/><path d="M17.235,19.561l0.323,0.04c0.219,0.005 0.496,0.013 0.777,0.004c0.184,-0.006 0.369,-0.019 0.54,-0.044c0.264,-0.039 0.564,-0.099 0.844,-0.176c0.206,-0.057 0.401,-0.122 0.562,-0.195c0.209,-0.093 0.419,-0.211 0.601,-0.355c0.133,-0.106 0.252,-0.226 0.347,-0.359c0.095,-0.133 0.171,-0.291 0.231,-0.46c0.079,-0.222 0.13,-0.465 0.16,-0.693c0.023,-0.176 0.037,-0.403 0.046,-0.651c0.017,-0.489 0.013,-1.061 0.026,-1.455c0.011,-0.334 0.066,-0.67 0.072,-1.003c0.004,-0.161 -0.003,-0.32 -0.028,-0.479c-0.029,-0.184 -0.077,-0.383 -0.138,-0.588c-0.12,-0.411 -0.289,-0.853 -0.423,-1.261l-1.204,-3.557c-0.1,-0.276 -0.171,-0.582 -0.303,-0.844c-0.07,-0.14 -0.157,-0.268 -0.267,-0.38c-0.177,-0.179 -0.452,-0.389 -0.756,-0.596c-0.396,-0.27 -0.842,-0.538 -1.169,-0.729c-0.242,-0.142 -0.492,-0.274 -0.748,-0.392c-0.258,-0.119 -0.522,-0.224 -0.791,-0.313c-0.309,-0.102 -0.675,-0.21 -1.051,-0.302c-0.366,-0.09 -0.743,-0.164 -1.09,-0.206c-0.351,-0.043 -0.705,-0.057 -1.06,-0.054c-0.348,0.003 -0.695,0.023 -1.041,0.051c-0.497,0.04 -1.096,0.088 -1.696,0.175c-0.39,0.056 -0.78,0.13 -1.144,0.229c-0.466,0.126 -0.959,0.297 -1.437,0.491c-0.489,0.197 -0.962,0.419 -1.374,0.642c-0.294,0.158 -0.594,0.354 -0.883,0.561c-0.454,0.324 -0.878,0.677 -1.198,0.953c-0.2,0.173 -0.403,0.381 -0.588,0.591c-0.201,0.228 -0.38,0.459 -0.511,0.648c-0.069,0.1 -0.126,0.206 -0.178,0.316c-0.098,0.211 -0.168,0.438 -0.252,0.656c-0.073,0.187 -0.153,0.379 -0.22,0.576c-0.05,0.145 -0.093,0.293 -0.123,0.442l-0.183,1.544l-0.433,1.675c-0.024,0.125 -0.04,0.255 -0.044,0.384c-0.005,0.142 0.006,0.285 0.034,0.423c0.04,0.18 0.107,0.421 0.198,0.655c0.061,0.156 0.131,0.309 0.21,0.442c0.085,0.141 0.185,0.275 0.297,0.402c0.143,0.163 0.302,0.316 0.455,0.468l0.821,0.708c0.163,0.153 0.345,0.319 0.516,0.493c0.103,0.106 0.203,0.214 0.289,0.324c0.108,0.139 0.214,0.281 0.307,0.431c0.086,0.138 0.163,0.281 0.22,0.433c0.032,0.087 0.055,0.178 0.072,0.272c0.051,0.271 0.069,0.558 0.12,0.829c0.053,0.286 0.098,0.594 0.158,0.892c0.027,0.137 0.057,0.272 0.092,0.403c0.073,0.276 0.151,0.603 0.251,0.871c0.063,0.168 0.134,0.316 0.214,0.429c0.061,0.085 0.134,0.156 0.218,0.215c0.095,0.066 0.205,0.116 0.319,0.161c0.088,0.034 0.182,0.058 0.255,0.113c0.194,0.147 0.445,0.442 0.693,0.665c0.148,0.135 0.297,0.247 0.434,0.314c0.137,0.068 0.283,0.104 0.434,0.117c0.229,0.02 0.475,-0.023 0.704,0.003c0.394,0.046 1.073,0.189 1.678,0.266c0.288,0.036 0.561,0.058 0.785,0.052c0.246,-0.007 0.505,-0.052 0.758,-0.117c0.372,-0.096 0.732,-0.234 1.008,-0.334c0.188,-0.067 0.37,-0.15 0.547,-0.245c0.172,-0.093 0.339,-0.197 0.499,-0.309c0.134,-0.095 0.266,-0.202 0.395,-0.316c0.178,-0.157 0.35,-0.327 0.519,-0.492c0.191,-0.185 0.416,-0.401 0.628,-0.623c0.146,-0.152 0.286,-0.307 0.406,-0.457c0.111,-0.14 0.219,-0.297 0.32,-0.457c0.151,-0.238 0.288,-0.482 0.407,-0.67c0.102,-0.163 0.232,-0.347 0.331,-0.512c0.06,-0.1 0.111,-0.195 0.143,-0.278c0.033,-0.082 0.054,-0.178 0.063,-0.276c0.006,-0.061 0.008,-0.123 0.006,-0.181Zm-0.636,-0.023c0.001,0.032 0.001,0.068 -0.001,0.104c-0.003,0.048 -0.01,0.098 -0.026,0.139c-0.022,0.054 -0.058,0.115 -0.098,0.18c-0.099,0.161 -0.228,0.34 -0.33,0.498c-0.12,0.187 -0.26,0.428 -0.413,0.664c-0.09,0.138 -0.185,0.274 -0.283,0.395c-0.11,0.134 -0.238,0.272 -0.371,0.408c-0.208,0.212 -0.43,0.419 -0.618,0.597c-0.163,0.155 -0.33,0.315 -0.502,0.463c-0.11,0.095 -0.222,0.184 -0.337,0.262c-0.139,0.094 -0.284,0.182 -0.433,0.26c-0.146,0.076 -0.298,0.143 -0.453,0.196c-0.26,0.09 -0.598,0.216 -0.948,0.301c-0.199,0.048 -0.403,0.083 -0.596,0.086c-0.191,0.002 -0.424,-0.023 -0.67,-0.058c-0.606,-0.088 -1.287,-0.243 -1.683,-0.295c-0.209,-0.028 -0.434,-0.004 -0.648,-0.012c-0.079,-0.003 -0.158,-0.01 -0.228,-0.046c-0.08,-0.041 -0.163,-0.114 -0.249,-0.194c-0.261,-0.245 -0.53,-0.562 -0.736,-0.724c-0.065,-0.05 -0.136,-0.092 -0.212,-0.129c-0.084,-0.042 -0.175,-0.075 -0.262,-0.112c-0.05,-0.021 -0.104,-0.032 -0.134,-0.075c-0.058,-0.086 -0.101,-0.208 -0.143,-0.342c-0.07,-0.224 -0.125,-0.477 -0.179,-0.695c-0.038,-0.152 -0.068,-0.312 -0.095,-0.472c-0.044,-0.258 -0.079,-0.518 -0.12,-0.763c-0.046,-0.272 -0.059,-0.56 -0.104,-0.832c-0.025,-0.145 -0.059,-0.287 -0.106,-0.422c-0.06,-0.168 -0.136,-0.331 -0.224,-0.488c-0.122,-0.219 -0.266,-0.427 -0.416,-0.627c-0.104,-0.139 -0.225,-0.276 -0.351,-0.41c-0.176,-0.186 -0.364,-0.365 -0.531,-0.529l-0.791,-0.707c-0.135,-0.138 -0.275,-0.276 -0.4,-0.424c-0.071,-0.084 -0.135,-0.171 -0.188,-0.263c-0.064,-0.113 -0.117,-0.247 -0.161,-0.379c-0.053,-0.157 -0.092,-0.312 -0.116,-0.433c-0.014,-0.061 -0.02,-0.125 -0.019,-0.189c0.001,-0.077 0.009,-0.154 0.022,-0.229l0.399,-1.684l0.152,-1.539c0.021,-0.11 0.051,-0.22 0.086,-0.328c0.06,-0.186 0.133,-0.368 0.198,-0.547c0.064,-0.175 0.117,-0.357 0.187,-0.53c0.036,-0.091 0.077,-0.18 0.131,-0.261c0.112,-0.168 0.265,-0.373 0.437,-0.576c0.156,-0.182 0.326,-0.365 0.495,-0.516c0.298,-0.268 0.695,-0.61 1.12,-0.926c0.257,-0.191 0.525,-0.373 0.787,-0.521c0.383,-0.216 0.825,-0.433 1.282,-0.627c0.445,-0.189 0.905,-0.356 1.341,-0.482c0.334,-0.096 0.692,-0.169 1.051,-0.227c0.582,-0.094 1.164,-0.149 1.647,-0.195c0.328,-0.032 0.658,-0.057 0.988,-0.064c0.324,-0.007 0.649,0.001 0.97,0.036c0.323,0.035 0.672,0.1 1.011,0.178c0.36,0.083 0.709,0.181 1.006,0.275c0.246,0.077 0.488,0.17 0.724,0.275c0.238,0.106 0.471,0.225 0.697,0.354c0.317,0.181 0.752,0.436 1.138,0.694c0.268,0.179 0.512,0.357 0.669,0.513c0.089,0.088 0.15,0.198 0.2,0.314c0.095,0.219 0.156,0.461 0.238,0.682c0.122,0.325 0.307,0.845 0.501,1.404c0.266,0.769 0.55,1.611 0.721,2.125c0.115,0.345 0.254,0.714 0.367,1.067c0.077,0.242 0.143,0.475 0.176,0.688c0.019,0.125 0.024,0.251 0.021,0.377c-0.008,0.331 -0.064,0.665 -0.076,0.996c-0.014,0.393 -0.012,0.965 -0.03,1.454c-0.009,0.226 -0.022,0.433 -0.043,0.594c-0.022,0.158 -0.054,0.325 -0.103,0.483c-0.046,0.148 -0.106,0.289 -0.188,0.403c-0.08,0.11 -0.187,0.205 -0.304,0.287c-0.127,0.088 -0.266,0.162 -0.404,0.222c-0.17,0.074 -0.383,0.139 -0.604,0.192c-0.218,0.053 -0.444,0.094 -0.646,0.122c-0.15,0.021 -0.31,0.031 -0.47,0.035c-0.268,0.006 -0.534,-0.004 -0.743,-0.011c-0.224,-0.007 -0.556,-0.081 -0.725,-0.094c-0.071,-0.006 -0.127,-0.002 -0.165,0.005c-0.133,0.025 -0.193,0.098 -0.227,0.153c-0.044,0.071 -0.061,0.151 -0.041,0.242c0.008,0.042 0.029,0.094 0.072,0.148c0.017,0.022 0.073,0.073 0.11,0.106Z"/><path d="M5.827,9.264c0.133,0.095 0.231,0.381 0.298,0.52c0.201,0.423 0.352,0.864 0.493,1.31c0.055,0.175 0.269,0.401 0.207,0.593c-0.073,0.222 -0.35,0.195 -0.518,0.119c-0.015,-0.006 -0.221,-0.111 -0.228,-0.091c-0.074,0.205 0.046,0.61 0.046,0.832c-0,0.114 0.041,0.263 -0.074,0.327c-0.624,0.352 -1.409,-0.061 -2.079,0.035c-0.235,0.034 -0.487,0.006 -0.718,0.047c-0.52,0.094 -1.046,0.52 -1.519,0.044c-0.085,-0.085 -0.189,-0.169 -0.266,-0.261c-0.054,-0.065 -0.062,-0.16 -0.091,-0.236c-0.264,-0.712 0.233,-1.056 0.417,-1.683c0.071,-0.243 0.028,-0.641 0.227,-0.822c0.042,-0.038 -0.149,-0.186 -0.168,-0.211c-0.1,-0.132 -0.129,-0.297 -0.101,-0.463c0.052,-0.322 0.185,-0.36 0.413,-0.529c0.057,-0.043 0.153,-0.191 0.22,-0.211c0.287,-0.086 0.693,-0.002 0.973,0.06c0.483,0.106 0.974,0.179 1.467,0.179c0.281,0 0.636,-0.006 0.9,0.114c0.11,0.049 0.339,0.21 0.129,0.261"/><path d="M1.614,10.025c-0.013,0.034 -0.024,0.068 -0.034,0.104c-0.052,0.195 -0.043,0.435 -0.089,0.603c-0.128,0.466 -0.418,0.787 -0.472,1.2c-0.026,0.2 -0.01,0.418 0.086,0.672c0.022,0.056 0.033,0.122 0.058,0.18c0.021,0.051 0.048,0.098 0.083,0.14l0.284,0.28c0.192,0.196 0.393,0.279 0.596,0.303c0.38,0.046 0.785,-0.185 1.182,-0.253l0.708,-0.035c0.454,-0.056 0.956,0.134 1.427,0.143c0.273,0.004 0.536,-0.044 0.784,-0.175c0.121,-0.065 0.189,-0.162 0.231,-0.271c0.042,-0.108 0.031,-0.251 0.033,-0.369c0.003,-0.079 -0.008,-0.18 -0.021,-0.288c0.104,0.01 0.209,0.005 0.303,-0.02c0.202,-0.052 0.363,-0.188 0.447,-0.424c0.038,-0.105 0.041,-0.215 0.024,-0.328c-0.026,-0.177 -0.168,-0.371 -0.212,-0.524c-0.079,-0.279 -0.162,-0.556 -0.257,-0.829c-0.065,-0.188 -0.137,-0.373 -0.217,-0.556c-0.035,-0.081 -0.081,-0.204 -0.135,-0.321c0.016,-0.065 0.02,-0.132 0.008,-0.202c-0.016,-0.091 -0.05,-0.198 -0.133,-0.293c-0.09,-0.105 -0.259,-0.221 -0.373,-0.268c-0.15,-0.061 -0.317,-0.102 -0.492,-0.118c-0.206,-0.019 -0.421,-0.014 -0.607,-0.008c-0.228,0.008 -0.456,-0.001 -0.683,-0.023c-0.233,-0.023 -0.466,-0.057 -0.696,-0.1c-0.186,-0.035 -0.421,-0.077 -0.648,-0.084c-0.186,-0.006 -0.367,0.009 -0.521,0.059c-0.058,0.019 -0.128,0.053 -0.193,0.113c-0.053,0.049 -0.157,0.177 -0.157,0.177c-0,0 0.011,-0.009 0.016,-0.013c-0.181,0.143 -0.308,0.224 -0.397,0.364c-0.063,0.098 -0.116,0.22 -0.142,0.406c-0.018,0.126 -0.016,0.251 0.011,0.369c0.029,0.128 0.081,0.25 0.167,0.357c0.003,0.005 0.015,0.017 0.031,0.032Zm3.716,-0.709c-0.029,-0.005 -0.058,-0.01 -0.088,-0.013c-0.143,-0.017 -0.288,-0.021 -0.416,-0.025c-0.266,-0.008 -0.531,-0.035 -0.794,-0.077c-0.255,-0.041 -0.509,-0.095 -0.76,-0.159c-0.127,-0.032 -0.282,-0.072 -0.438,-0.093c-0.098,-0.013 -0.197,-0.024 -0.285,-0.012c-0.046,0.048 -0.127,0.131 -0.162,0.155c-0.104,0.074 -0.191,0.097 -0.245,0.171c-0.019,0.028 -0.032,0.064 -0.042,0.118c-0.007,0.039 -0.012,0.079 -0.005,0.116c0.005,0.028 0.012,0.056 0.028,0.08c0.054,0.058 0.199,0.221 0.22,0.287c0.052,0.165 0.007,0.292 -0.096,0.382c-0.034,0.029 -0.042,0.077 -0.053,0.125c-0.041,0.183 -0.049,0.389 -0.096,0.538c-0.12,0.384 -0.355,0.659 -0.462,0.981c-0.049,0.148 -0.058,0.309 0.015,0.512c0.016,0.045 0.042,0.137 0.047,0.158l0.243,0.236c0.113,0.114 0.232,0.142 0.353,0.13c0.297,-0.029 0.601,-0.209 0.907,-0.268l0.726,-0.059c0.477,-0.078 1.016,0.09 1.513,0.077c0.111,-0.003 0.219,-0.019 0.322,-0.059c-0.002,-0.026 -0.004,-0.052 -0.004,-0.07c-0.005,-0.173 -0.085,-0.455 -0.089,-0.67c-0.003,-0.112 0.015,-0.212 0.043,-0.296c0.03,-0.092 0.181,-0.322 0.498,-0.242c0.013,0.003 0.031,0.009 0.05,0.016c-0.023,-0.045 -0.042,-0.088 -0.056,-0.129c-0.076,-0.215 -0.154,-0.428 -0.239,-0.638c-0.082,-0.203 -0.173,-0.402 -0.274,-0.598c-0.045,-0.086 -0.264,-0.26 -0.187,-0.344c-0.101,-0.086 -0.161,-0.205 -0.174,-0.33Zm0.362,-0.591c0.014,-0.005 0.029,-0.009 0.044,-0.013c-0.016,0.004 -0.031,0.008 -0.044,0.013Z"/><path d="M16.618,5.644c-0.216,-0.048 -0.503,0.279 -0.682,0.382c-0.582,0.333 -1.199,0.601 -1.785,0.932c-0.177,0.1 -0.349,0.207 -0.515,0.325c-0.044,0.031 -0.156,0.115 -0.217,0.088c-0.158,-0.071 -0.232,-0.43 -0.185,-0.577c0.017,-0.055 0.05,-0.105 0.08,-0.154c0.017,-0.028 0.065,-0.114 0.049,-0.085c-0.129,0.235 -0.521,0.368 -0.724,0.529c-0.755,0.6 -1.462,1.239 -2.486,1.314c-0.157,0.011 -0.55,0.116 -0.63,-0.063c-0.086,-0.194 0.165,-0.414 0.294,-0.517c0.007,-0.005 0.138,-0.116 0.144,-0.11c0.038,0.035 -0.333,0.294 -0.357,0.309c-0.469,0.285 -0.987,0.495 -1.477,0.74c-0.668,0.334 -1.467,0.504 -2.216,0.504c-0.079,0 -0.232,-0.063 -0.238,-0.154c-0.003,-0.042 -0.016,-0.142 0.007,-0.18c0.013,-0.02 0.121,-0.138 0.077,-0.072c-0.392,0.587 -1.395,0.572 -2.002,0.419c-0.133,-0.034 -0.292,-0.028 -0.41,-0.107c-0.149,-0.101 -0.178,-0.222 -0.245,-0.379c-0.01,-0.023 -0.009,-0.157 -0.031,-0.163c-0.1,-0.03 -0.242,0.053 -0.333,0.078c-0.231,0.066 -0.456,0.156 -0.689,0.085c-0.326,-0.098 -0.696,-0.03 -1.036,-0.132c-0.126,-0.037 -0.321,-0.137 -0.336,-0.296c-0.079,-0.781 0.793,-1.284 1.421,-1.528c0.222,-0.086 0.436,-0.177 0.672,-0.217c0.075,-0.013 0.147,-0.025 0.22,-0.044c0.041,-0.011 0.165,-0.032 0.123,-0.032c-0.245,0 -0.487,0.18 -0.749,0.126c-0.334,-0.069 -0.026,-0.564 0.094,-0.655c0.169,-0.128 0.375,-0.198 0.56,-0.296c0.382,-0.202 0.709,-0.432 1.141,-0.52c0.272,-0.055 0.536,-0.033 0.809,-0.06c0.043,-0.004 0.222,0.005 0.255,-0.025c0.013,-0.011 -0.3,-0.319 -0.308,-0.397c-0.029,-0.294 0.332,-0.647 0.546,-0.81c0.388,-0.293 0.887,-0.333 1.355,-0.384c0.152,-0.017 0.41,-0.082 0.564,-0.031c0.222,0.072 0.396,0.252 0.602,0.352c0.016,0.008 0.164,0.097 0.175,0.092c0.021,-0.01 0.058,-0.136 0.07,-0.158c0.08,-0.15 0.174,-0.309 0.28,-0.444c0.17,-0.217 0.586,-0.402 0.861,-0.454c0.649,-0.121 1.111,0.115 1.69,0.35c0.076,0.031 0.18,0.045 0.242,0.101c0.048,0.043 0.172,0.326 0.28,0.261c0.201,-0.119 0.37,-0.443 0.543,-0.611c0.331,-0.321 0.985,-0.515 1.449,-0.45c0.237,0.033 0.778,0.131 0.955,0.28c0.23,0.194 0.508,0.579 0.777,0.699c0.085,0.038 0.404,-0.211 0.49,-0.248c0.314,-0.137 0.815,-0.051 1.036,0.22c0.447,0.546 0.208,1.207 -0.108,1.749c-0.158,0.27 -0.217,0.515 -0.508,0.437"/><path d="M11.555,3.039c-0.049,-0.042 -0.106,-0.078 -0.169,-0.106c-0.06,-0.025 -0.13,-0.04 -0.186,-0.062c-0.378,-0.148 -0.71,-0.295 -1.067,-0.359c-0.258,-0.046 -0.529,-0.054 -0.834,0.007c-0.193,0.038 -0.446,0.13 -0.662,0.255c-0.17,0.098 -0.317,0.216 -0.41,0.338l-0.217,0.349c-0.09,-0.057 -0.176,-0.123 -0.268,-0.177c-0.083,-0.048 -0.168,-0.09 -0.26,-0.119c-0.081,-0.026 -0.179,-0.037 -0.283,-0.033c-0.146,0.006 -0.31,0.042 -0.421,0.055c-0.299,0.036 -0.61,0.068 -0.899,0.155c-0.219,0.066 -0.427,0.161 -0.613,0.305c-0.147,0.113 -0.353,0.304 -0.49,0.512c-0.127,0.192 -0.195,0.399 -0.175,0.585c0.003,0.026 0.01,0.061 0.026,0.101c-0.084,0.003 -0.167,0.006 -0.252,0.013c-0.092,0.008 -0.185,0.019 -0.278,0.039c-0.196,0.041 -0.373,0.107 -0.542,0.187c-0.229,0.109 -0.443,0.243 -0.677,0.368c-0.13,0.07 -0.271,0.126 -0.402,0.198c-0.068,0.037 -0.135,0.079 -0.197,0.126c-0.124,0.095 -0.374,0.481 -0.358,0.743c0.001,0.023 0.004,0.045 0.008,0.067c-0.398,0.161 -0.868,0.416 -1.177,0.763c-0.258,0.288 -0.41,0.636 -0.371,1.04c0.013,0.135 0.08,0.254 0.181,0.349c0.105,0.099 0.252,0.169 0.363,0.203c0.082,0.025 0.166,0.042 0.25,0.054c0.264,0.037 0.538,0.007 0.784,0.083c0.137,0.042 0.271,0.047 0.405,0.031c0.152,-0.018 0.303,-0.068 0.456,-0.111c0.008,-0.002 0.018,-0.005 0.029,-0.009c0.034,0.082 0.065,0.155 0.108,0.221c0.051,0.078 0.117,0.149 0.214,0.215c0.062,0.042 0.132,0.072 0.204,0.094c0.099,0.029 0.208,0.035 0.303,0.06c0.401,0.104 0.959,0.152 1.439,0.041c0.149,-0.035 0.291,-0.085 0.42,-0.152c0.114,0.082 0.273,0.128 0.374,0.129c0.399,0.004 0.811,-0.038 1.212,-0.124c0.407,-0.087 0.802,-0.22 1.164,-0.396c0.317,-0.155 0.645,-0.295 0.964,-0.45c0.062,0.072 0.145,0.126 0.244,0.161c0.194,0.069 0.531,0.016 0.688,0.006c0.463,-0.029 0.871,-0.16 1.249,-0.349c0.326,-0.163 0.627,-0.372 0.923,-0.597c-0.018,-0.143 0.102,-0.497 0.454,-1.184c-0.049,0.152 -0.043,0.432 0.039,0.663c0.013,0.036 0.028,0.071 0.044,0.104l-0.345,0.27c-0.06,0.046 -0.12,0.092 -0.18,0.138l-0.012,0.009c0.026,0.196 0.312,-0.005 0.619,-0.284c-0.03,-0.04 -0.058,-0.085 -0.082,-0.133l0.014,-0.01c0.137,-0.107 0.361,-0.198 0.53,-0.318l0.017,-0.013c-0.14,0.147 -0.312,0.322 -0.479,0.474c0.075,0.101 0.167,0.177 0.26,0.22c0.091,0.042 0.199,0.056 0.315,0.036c0.123,-0.021 0.282,-0.118 0.351,-0.166l0.479,-0.292l1.8,-0.911c0.119,-0.067 0.495,-0.154 0.465,-0.307c0.219,-0.011 0.412,-0.166 0.462,-0.39c0.017,-0.074 0.016,-0.147 0.001,-0.216c0.012,-0.022 0.024,-0.044 0.036,-0.066c0.227,-0.401 0.409,-0.858 0.405,-1.299c-0.003,-0.343 -0.101,-0.681 -0.36,-0.99c-0.176,-0.21 -0.453,-0.361 -0.755,-0.418c-0.286,-0.053 -0.588,-0.026 -0.82,0.079c-0.039,0.017 -0.17,0.098 -0.269,0.161c-0.023,-0.021 -0.046,-0.042 -0.069,-0.065c-0.167,-0.159 -0.329,-0.345 -0.472,-0.463c-0.091,-0.074 -0.237,-0.151 -0.413,-0.206c-0.258,-0.082 -0.586,-0.137 -0.763,-0.159c-0.284,-0.036 -0.626,0.001 -0.947,0.103c-0.328,0.104 -0.632,0.272 -0.837,0.475l-0.288,0.349Zm4.634,2.125c0.033,-0.058 0.075,-0.131 0.108,-0.185c0.129,-0.215 0.252,-0.451 0.29,-0.691c0.029,-0.176 0.01,-0.356 -0.118,-0.517c-0.048,-0.06 -0.13,-0.091 -0.214,-0.109c-0.098,-0.02 -0.202,-0.026 -0.283,0.008c-0.083,0.034 -0.36,0.227 -0.499,0.263c-0.147,0.038 -0.267,0.016 -0.351,-0.023c-0.123,-0.056 -0.249,-0.146 -0.371,-0.258c-0.179,-0.165 -0.352,-0.385 -0.504,-0.517c-0.054,-0.047 -0.172,-0.073 -0.288,-0.103c-0.167,-0.044 -0.34,-0.076 -0.447,-0.092c-0.177,-0.027 -0.392,-0.003 -0.594,0.056c-0.2,0.058 -0.393,0.146 -0.52,0.266c-0.135,0.128 -0.267,0.35 -0.415,0.496c-0.066,0.067 -0.135,0.123 -0.206,0.164c-0.157,0.091 -0.318,0.091 -0.476,-0.006c-0.08,-0.049 -0.201,-0.209 -0.261,-0.292c-0.038,-0.012 -0.096,-0.032 -0.127,-0.045c-0.326,-0.136 -0.609,-0.276 -0.918,-0.339c-0.174,-0.035 -0.356,-0.044 -0.563,-0.008c-0.108,0.019 -0.246,0.065 -0.373,0.126c-0.11,0.054 -0.217,0.114 -0.276,0.188l-0.247,0.384c-0.015,0.039 -0.054,0.135 -0.074,0.168c-0.054,0.087 -0.122,0.13 -0.166,0.149c-0.031,0.014 -0.152,0.064 -0.303,-0.007c-0.045,-0.021 -0.151,-0.084 -0.164,-0.091l-0.556,-0.341l-0.423,0.041c-0.262,0.026 -0.534,0.046 -0.789,0.118c-0.145,0.041 -0.284,0.098 -0.408,0.191c-0.089,0.067 -0.21,0.172 -0.306,0.292c-0.048,0.06 -0.1,0.119 -0.116,0.18l0.198,0.237c0.186,0.221 0.025,0.45 0.001,0.472c-0.032,0.029 -0.08,0.061 -0.147,0.079c-0.074,0.021 -0.241,0.019 -0.287,0.023l-0.778,0.05c-0.148,0.029 -0.282,0.078 -0.41,0.136c-0.221,0.102 -0.428,0.231 -0.654,0.348l-0.521,0.269c-0.018,0.014 -0.029,0.062 -0.043,0.112c0.042,-0.01 0.085,-0.019 0.129,-0.026l0.006,-0.001c0.13,-0.038 0.258,-0.079 0.386,-0.079c0.139,-0 0.196,0.068 0.211,0.084c0.115,0.112 0.133,0.238 0.031,0.377c-0.015,0.021 -0.056,0.077 -0.15,0.107c-0.022,0.007 -0.106,0.023 -0.14,0.032l-0.247,0.05l-0.009,0.001c-0.054,0.019 -0.107,0.036 -0.162,0.047c-0.018,0.003 -0.036,0.006 -0.055,0.008l-0.008,0.003c-0.128,0.042 -0.253,0.093 -0.381,0.144c-0.334,0.13 -0.748,0.338 -1.012,0.635c-0.139,0.157 -0.235,0.342 -0.224,0.558c0.04,-0.02 0.092,0.064 0.131,0.076c0.256,0.075 0.529,0.043 0.785,0.075c0.086,0.011 0.171,0.027 0.253,0.052c0.069,0.02 0.137,0.012 0.204,-0.001c0.105,-0.021 0.209,-0.059 0.315,-0.089c0.067,-0.02 0.163,-0.067 0.251,-0.086c0.09,-0.019 0.176,-0.016 0.253,0.006c0.068,0.02 0.159,0.071 0.208,0.196c0.013,0.032 0.027,0.13 0.034,0.176c0.022,0.054 0.04,0.104 0.065,0.148c0.012,0.022 0.029,0.042 0.056,0.059l0.312,0.061c0.268,0.065 0.623,0.1 0.955,0.054c0.222,-0.031 0.437,-0.095 0.588,-0.23c0.007,-0.015 0.014,-0.028 0.022,-0.04c0.017,-0.027 0.118,-0.143 0.155,-0.172c0.1,-0.08 0.193,-0.079 0.227,-0.077c0.106,0.005 0.183,0.049 0.239,0.115c0.045,0.052 0.102,0.138 0.075,0.277c-0.001,0.005 -0.002,0.013 -0.005,0.024c0.294,-0.014 0.592,-0.056 0.884,-0.124c0.348,-0.081 0.687,-0.202 0.995,-0.359c0.34,-0.175 0.695,-0.331 1.036,-0.509c0.118,-0.062 0.234,-0.127 0.348,-0.196c0.077,-0.087 0.162,-0.162 0.229,-0.213c0.006,-0.005 0.106,-0.087 0.149,-0.116c0.241,-0.163 0.455,-0.006 0.487,0.023c0.092,0.086 0.233,0.317 0.022,0.563c0.301,-0.041 0.569,-0.141 0.818,-0.274c0.475,-0.251 0.885,-0.618 1.315,-0.967c0.128,-0.105 0.326,-0.201 0.495,-0.313c0.044,-0.029 0.09,-0.054 0.111,-0.093c-0.048,0.091 -0.094,0.177 -0.136,0.259l0.147,-0.279c0,0 0.172,0.439 0.387,0.587l0.547,-0.354l1.77,-0.954l0.027,-0.017c0.002,-0.016 0.006,-0.032 0.01,-0.049c0.057,-0.216 0.248,-0.361 0.46,-0.371Zm-2.621,1.784c-0.039,-0.008 -0.09,-0.009 -0.136,-0.008c0.044,0.019 0.09,0.024 0.136,0.008Z"/><path d="M3.865,14.912c-0.002,0.029 -0.001,0.056 0.002,0.08c0.015,0.118 0.062,0.213 0.131,0.288c-0.012,0.016 -0.023,0.033 -0.033,0.048c-0.067,0.106 -0.097,0.209 -0.103,0.287c-0.018,0.212 0.064,0.375 0.244,0.482l0.005,0.002c-0.05,0.062 -0.114,0.148 -0.16,0.232c-0.056,0.101 -0.091,0.204 -0.101,0.292c-0.027,0.233 0.056,0.419 0.261,0.539c0.047,0.027 0.097,0.05 0.149,0.069c0.002,0.027 0.008,0.053 0.014,0.077c0.022,0.076 0.059,0.145 0.117,0.201c-0.032,0.064 -0.056,0.128 -0.064,0.181c-0.032,0.228 0.052,0.403 0.245,0.509c0.051,0.028 0.104,0.05 0.16,0.065c0.013,0.201 0.126,0.317 0.28,0.371c0.14,0.05 0.308,0.046 0.484,-0.028c-0.029,0.114 -0.054,0.23 -0.072,0.349c-0.006,0.04 -0.041,0.234 -0.045,0.392c-0.003,0.12 0.013,0.227 0.04,0.295c0.039,0.103 0.099,0.174 0.169,0.219l-0.016,0.052c-0.024,0.074 -0.084,0.223 -0.09,0.294c-0.004,0.057 0.003,0.107 0.016,0.15c-0.17,0.268 -0.193,0.543 -0.107,0.754c0.052,0.126 0.145,0.229 0.285,0.284c0.007,0.011 0.013,0.02 0.02,0.029c0.013,0.016 0.026,0.031 0.039,0.045c-0.01,0.074 -0.013,0.148 -0.002,0.206c0.029,0.158 0.117,0.264 0.24,0.319c0.058,0.026 0.119,0.042 0.179,0.048c-0.002,0.03 -0.003,0.061 -0.003,0.089c0.003,0.148 0.053,0.271 0.123,0.349c0.164,0.18 0.362,0.217 0.577,0.147c0.056,-0.018 0.114,-0.047 0.174,-0.084c-0.007,0.113 -0.008,0.287 0.023,0.359c0.032,0.072 0.075,0.123 0.125,0.157c-0.015,0.044 -0.027,0.088 -0.033,0.126c-0.019,0.125 0.011,0.227 0.056,0.295c0.069,0.103 0.156,0.144 0.241,0.158c0.041,0.007 0.085,0.007 0.13,-0.003l0.001,0.007c0.006,0.088 0.034,0.159 0.065,0.206c0.083,0.124 0.195,0.173 0.318,0.176c0.077,0.001 0.167,-0.021 0.252,-0.069c0.11,-0.062 0.22,-0.171 0.254,-0.204l0.307,-0.337c0.023,0.077 0.073,0.126 0.117,0.157c0.035,0.023 0.099,0.064 0.185,0.059c-0.004,0.081 0.009,0.153 0.03,0.202c0.04,0.097 0.11,0.158 0.199,0.188c0.072,0.025 0.152,0.031 0.237,0.018c-0.006,0.048 -0.008,0.092 -0.002,0.123c0.022,0.108 0.084,0.177 0.152,0.216c0.126,0.075 0.282,0.077 0.44,-0.001c0.113,-0.055 0.231,-0.163 0.31,-0.242c0.004,0.044 0.012,0.085 0.024,0.119c0.043,0.115 0.123,0.192 0.227,0.229c0.125,0.044 0.258,0.025 0.382,-0.054c0.124,-0.078 0.242,-0.242 0.289,-0.3c0.123,-0.155 0.24,-0.314 0.354,-0.475l0.057,-0.082c-0.016,0.156 -0.022,0.356 0.021,0.477c0.039,0.11 0.107,0.186 0.187,0.23c0.097,0.053 0.233,0.081 0.413,-0.018c0.132,-0.073 0.255,-0.179 0.367,-0.306c0.046,0.079 0.114,0.134 0.199,0.163c0.199,0.068 0.412,0.012 0.605,-0.147c0.22,-0.183 0.421,-0.521 0.518,-0.689l0.004,0.003c0.077,0.068 0.172,0.1 0.291,0.075c0.176,-0.037 0.359,-0.147 0.529,-0.305c0.202,-0.187 0.393,-0.446 0.547,-0.651c-0.002,0.087 0.001,0.276 0.026,0.337c0.049,0.116 0.134,0.168 0.209,0.191c0.077,0.024 0.168,0.026 0.268,-0.034c0.198,-0.121 0.364,-0.327 0.497,-0.582c0.225,-0.431 0.357,-1.011 0.49,-1.348l0.142,-0.303l0.186,-0.293c0.077,-0.163 0.018,-0.264 0.007,-0.287c-0.009,-0.021 -0.041,-0.063 -0.087,-0.102c0.021,-0.074 0.042,-0.148 0.062,-0.222c0.013,-0.05 0.12,-0.324 0.144,-0.495c0.025,-0.178 -0.031,-0.311 -0.088,-0.379c-0.028,-0.033 -0.059,-0.061 -0.092,-0.084c0.002,-0.013 0.004,-0.026 0.005,-0.039c0.02,-0.186 -0.034,-0.34 -0.144,-0.452c-0.125,-0.127 -0.306,-0.183 -0.525,-0.15c-0.131,0.02 -0.286,0.083 -0.435,0.159c-0.108,-0.102 -0.26,-0.153 -0.446,-0.138c-0.086,0.007 -0.185,0.034 -0.286,0.071c-0.021,-0.033 -0.047,-0.064 -0.077,-0.091c-0.07,-0.065 -0.175,-0.125 -0.33,-0.142c-0.002,-0.014 -0.004,-0.028 -0.007,-0.041c-0.046,-0.186 -0.198,-0.421 -0.669,-0.36c-0.207,0.027 -0.41,0.091 -0.607,0.176c-0.028,0.012 -0.056,0.024 -0.083,0.037c-0.05,-0.027 -0.108,-0.047 -0.177,-0.058c-0.257,-0.045 -0.524,-0.003 -0.787,0.095c-0.08,0.03 -0.159,0.066 -0.237,0.105c-0.089,-0.095 -0.219,-0.159 -0.379,-0.173c-0.174,-0.016 -0.402,0.04 -0.5,0.075c-0.205,0.074 -0.406,0.168 -0.602,0.272c-0.236,-0.031 -0.493,0.018 -0.751,0.125c-0.068,0.027 -0.135,0.06 -0.203,0.095c-0.039,-0.038 -0.083,-0.067 -0.13,-0.09c-0.133,-0.065 -0.288,-0.085 -0.45,-0.064c-0.207,0.028 -0.436,0.137 -0.577,0.209c-0.239,0.122 -0.462,0.267 -0.671,0.432c-0.1,0.079 -0.197,0.163 -0.291,0.251c-0.05,0.015 -0.101,0.036 -0.151,0.06c-0.184,0.089 -0.365,0.247 -0.486,0.355l-0.07,0.071c-0.041,-0.027 -0.086,-0.049 -0.136,-0.067c-0.037,-0.013 -0.079,-0.023 -0.124,-0.029c0.095,-0.206 0.188,-0.413 0.268,-0.627c0.073,-0.196 -0.015,-0.306 -0.028,-0.326c-0.017,-0.029 -0.105,-0.11 -0.218,-0.149l0.024,-0.065c0.021,-0.054 0.077,-0.113 0.111,-0.171c0.05,-0.085 0.08,-0.171 0.09,-0.247c0.019,-0.154 -0.024,-0.292 -0.152,-0.409c-0.068,-0.063 -0.134,-0.093 -0.197,-0.103c0.016,-0.045 0.032,-0.091 0.048,-0.136c0.049,-0.146 0.01,-0.238 -0.004,-0.276c-0.048,-0.129 -0.13,-0.202 -0.235,-0.236l0.002,-0.003c0.08,-0.139 0.077,-0.271 0.024,-0.392c-0.033,-0.076 -0.098,-0.194 -0.285,-0.249c-0.077,-0.022 -0.152,-0.029 -0.227,-0.021l-0,-0.316c-0.114,0 -0.239,0.025 -0.366,0.07l0.014,-0.006l0.386,-0.184c0.054,-0.027 0.185,-0.095 0.213,-0.118c0.13,-0.107 0.158,-0.228 0.167,-0.299c0.018,-0.138 -0.017,-0.259 -0.108,-0.364c-0.038,-0.043 -0.129,-0.158 -0.337,-0.161c0.018,-0.118 -0.017,-0.218 -0.024,-0.24c-0.038,-0.115 -0.144,-0.345 -0.48,-0.329c-0.008,0.001 -0.035,0.001 -0.078,0.011c-0.004,-0.04 -0.014,-0.076 -0.026,-0.11c-0.01,-0.026 -0.021,-0.052 -0.035,-0.077c0.141,-0.279 -0.009,-0.466 -0.077,-0.543c-0.082,-0.093 -0.224,-0.203 -0.457,-0.166c-0.042,0.007 -0.212,0.082 -0.278,0.12l-0.242,0.159c-0.096,0.073 -0.459,0.357 -0.592,0.584c-0.132,0.225 -0.129,0.443 -0.05,0.612c0.034,0.071 0.077,0.132 0.132,0.182Zm9.712,3.989c-0.122,0.13 -0.28,0.257 -0.45,0.339c-0.2,0.097 -0.415,0.134 -0.614,0.09c-0.195,-0.043 -0.274,-0.163 -0.307,-0.283c-0.08,0.094 -0.167,0.184 -0.258,0.269c-0.133,0.124 -0.274,0.237 -0.419,0.339c-0.072,0.051 -0.203,0.154 -0.327,0.204c-0.128,0.052 -0.257,0.063 -0.367,0.036c-0.229,-0.055 -0.298,-0.199 -0.318,-0.334c-0.026,0.016 -0.052,0.032 -0.079,0.048c-0.141,0.085 -0.286,0.163 -0.434,0.237c-0.032,0.016 -0.267,0.141 -0.423,0.169c-0.145,0.026 -0.268,-0.001 -0.355,-0.049c-0.085,0.08 -0.173,0.154 -0.26,0.217c-0.221,0.159 -0.449,0.246 -0.647,0.247c-0.081,0.075 -0.16,0.133 -0.216,0.163c-0.059,0.031 -0.185,0.076 -0.307,0.085c-0.12,0.008 -0.235,-0.015 -0.319,-0.056l-0.011,-0.005l-0.037,0.038c-0.009,0.053 -0.023,0.117 -0.035,0.15l-0.154,0.311c-0.051,0.082 -0.145,0.24 -0.261,0.399c-0.039,0.102 -0.074,0.204 -0.104,0.302c0.151,-0.161 0.279,-0.347 0.323,-0.404l0.168,-0.229c0.018,-0.024 0.05,-0.08 0.07,-0.102c0.052,-0.059 0.108,-0.086 0.146,-0.099c0.11,-0.038 0.205,-0.019 0.287,0.035c0.051,0.034 0.127,0.094 0.147,0.233c0.007,0.051 0.01,0.104 0.007,0.159c0.216,-0.22 0.472,0.029 0.499,0.081c0.006,0.011 0.032,0.049 0.039,0.112c0.063,0.012 0.109,0.045 0.136,0.067c0.065,0.051 0.135,0.139 0.116,0.286c-0.005,0.037 -0.079,0.183 -0.109,0.243l-0.116,0.226c-0.083,0.177 -0.166,0.358 -0.238,0.543c0.087,-0.101 0.174,-0.203 0.264,-0.301c0.092,-0.102 0.188,-0.201 0.29,-0.293c0.018,-0.017 0.308,-0.269 0.436,-0.323c0.179,-0.074 0.307,-0.01 0.379,0.068c0.067,-0.048 0.133,-0.063 0.184,-0.064c0.123,-0.004 0.27,0.033 0.322,0.256c0.023,0.101 0.011,0.199 -0.031,0.293c-0.037,0.085 -0.114,0.168 -0.163,0.247c-0.051,0.084 -0.105,0.168 -0.156,0.254c0.048,-0.048 0.089,-0.089 0.119,-0.115l0.25,-0.229c-0.004,0.004 -0.014,0.015 -0.014,0.015c0,-0 0.143,-0.143 0.172,-0.154c0.115,-0.047 0.209,-0.021 0.283,0.032c0.012,0.008 0.026,0.019 0.04,0.032l0.022,-0.044l0.101,-0.212c0.022,-0.047 0.053,-0.158 0.077,-0.205c0.03,-0.059 0.066,-0.096 0.093,-0.116c0.096,-0.074 0.192,-0.077 0.279,-0.048c0.055,0.019 0.147,0.06 0.192,0.201c0.016,0.052 0.023,0.116 0.014,0.188c-0.015,0.115 -0.088,0.273 -0.097,0.298c-0.079,0.222 -0.167,0.445 -0.244,0.671l0.071,-0.1c0.166,-0.235 0.326,-0.474 0.489,-0.71l0.345,-0.491c0.005,-0.006 0.135,-0.142 0.189,-0.191c0.26,-0.235 0.5,0.132 0.504,0.177c0.008,0.096 -0.005,0.202 -0.036,0.311c-0.046,0.167 -0.136,0.343 -0.18,0.475l-0.181,0.608l-0.002,0.009c0.035,-0.045 0.069,-0.093 0.101,-0.143c0.187,-0.285 0.331,-0.624 0.452,-0.866c0.003,-0.006 0.125,-0.327 0.208,-0.438c0.062,-0.082 0.134,-0.12 0.184,-0.136c0.132,-0.04 0.223,0.001 0.29,0.056c0.049,0.041 0.094,0.101 0.109,0.189c0.009,0.052 -0.009,0.166 -0.02,0.222l-0.078,0.269c-0.056,0.182 -0.129,0.364 -0.193,0.548c0.07,-0.109 0.125,-0.211 0.157,-0.268l0.209,-0.377l0.145,-0.309c0.008,-0.019 0.072,-0.234 0.143,-0.346c0.067,-0.104 0.155,-0.161 0.226,-0.183c0.135,-0.041 0.23,-0 0.3,0.055c0.053,0.042 0.1,0.105 0.119,0.198c0.011,0.058 -0.011,0.186 -0.015,0.252c-0.001,0.018 -0.011,0.079 -0.025,0.158c0.172,-0.206 0.323,-0.433 0.436,-0.572l0.32,-0.412c0.004,-0.006 0.09,-0.098 0.167,-0.156c0.072,-0.054 0.146,-0.082 0.196,-0.091c0.078,-0.013 0.145,-0.005 0.2,0.021c0.003,-0.009 0.007,-0.018 0.011,-0.027c0.017,-0.039 0.087,-0.177 0.119,-0.23l0.03,-0.044c0.055,-0.111 0.104,-0.225 0.149,-0.34c0.066,-0.169 0.124,-0.342 0.176,-0.515c-0.022,0.02 -0.043,0.036 -0.061,0.046c-0.088,0.048 -0.174,0.056 -0.249,0.042c-0.093,-0.018 -0.19,-0.065 -0.257,-0.19c-0.041,-0.075 -0.071,-0.192 -0.008,-0.331c0.043,-0.093 0.229,-0.285 0.24,-0.297c0.025,-0.026 0.09,-0.096 0.173,-0.176l0.012,-0.022c0.015,-0.028 0.029,-0.055 0.043,-0.083l0.035,-0.069c-0.102,0.054 -0.202,0.117 -0.284,0.173c-0.014,0.024 -0.029,0.047 -0.045,0.07c-0.118,0.17 -0.28,0.305 -0.412,0.355c-0.111,0.042 -0.216,0.043 -0.308,0.015c-0.107,-0.032 -0.175,-0.099 -0.216,-0.184c-0.014,-0.03 -0.032,-0.074 -0.036,-0.128c-0.074,0.071 -0.153,0.128 -0.226,0.164c-0.154,0.075 -0.301,0.078 -0.418,0.035c-0.224,-0.082 -0.256,-0.238 -0.245,-0.37c-0.058,0.032 -0.113,0.06 -0.151,0.071c-0.285,0.084 -0.432,-0.093 -0.481,-0.225c-0.002,-0.005 -0.004,-0.011 -0.006,-0.017Z"/><g id="Lentes"><path d="M2.766,13.168c0.079,-0.058 0.271,-0.021 0.363,-0.021c0.259,-0 0.558,-0.008 0.815,-0.047c1.042,-0.155 2.101,-0.111 3.158,-0.134c0.442,-0.009 1.12,0.111 1.547,-0.042" style="fill:#fff;fill-opacity:0.45"/><path d="M2.919,13.643c0.037,0.038 0.163,-0.029 0.21,-0.034c0.164,-0.015 0.341,-0.033 0.516,-0.06c0.123,-0.019 0.243,-0.038 0.357,-0.065c0.249,-0.057 0.498,-0.107 0.751,-0.14c0.257,-0.033 0.515,-0.057 0.774,-0.068c0.209,-0.008 0.419,-0.009 0.628,-0.004c0.319,0.009 0.636,0.035 0.955,0.048c0.309,0.021 0.722,0.11 1.098,0.131c0.222,0.013 0.428,-0.011 0.609,-0.056c0.26,-0.093 0.396,-0.379 0.303,-0.639c-0.093,-0.26 -0.38,-0.395 -0.64,-0.302c-0.123,0.059 -0.277,0.096 -0.443,0.111c-0.33,0.03 -0.678,0.019 -0.942,0.048c-0.315,0.025 -0.628,0.056 -0.943,0.066c-0.299,0.01 -0.597,0.011 -0.894,0.011c-0.459,-0.001 -0.914,-0.011 -1.371,0.027c-0.118,0.007 -0.243,0.003 -0.37,-0.002c-0.133,-0.006 -0.264,-0.02 -0.388,-0.031c-0.092,-0.01 -0.26,-0.037 -0.382,-0.027c-0.11,0.009 -0.197,0.061 -0.273,0.105c-0.224,0.161 -0.275,0.474 -0.114,0.698c0.13,0.18 0.358,0.248 0.559,0.183Z"/><path d="M9.004,12.114l-0.001,0c-0.135,0 -0.258,0.054 -0.348,0.141c-0.047,-0.007 -0.117,0.125 -0.145,0.161l-0.183,0.326c-0.085,0.175 -0.147,0.362 -0.182,0.554c-0.033,0.182 -0.049,0.368 -0.044,0.551c0.014,0.518 0.141,1.01 0.37,1.457c0.221,0.43 0.529,0.821 0.913,1.15c0.707,0.608 1.527,1.002 2.393,1.175c0.855,0.171 1.755,0.132 2.636,-0.139c0.444,-0.134 0.848,-0.301 1.19,-0.561c0.234,-0.179 0.441,-0.4 0.609,-0.687c0.136,-0.231 0.221,-0.491 0.27,-0.762c0.067,-0.379 0.062,-0.78 0.026,-1.141c-0.062,-0.651 -0.258,-1.31 -0.594,-1.874c-0.349,-0.584 -0.85,-1.065 -1.518,-1.342c-0.391,-0.164 -0.813,-0.24 -1.244,-0.265c-0.602,-0.036 -1.222,0.035 -1.796,0.102c-0.373,0.043 -0.687,0.141 -0.978,0.272c-0.42,0.189 -0.783,0.461 -1.197,0.771c-0.031,0.023 -0.097,0.063 -0.177,0.111Zm0.168,1.119c-0.042,0.082 -0.074,0.17 -0.096,0.26c-0.028,0.116 -0.044,0.236 -0.047,0.354c-0.01,0.381 0.064,0.747 0.217,1.083c0.155,0.344 0.383,0.659 0.671,0.93c0.584,0.548 1.27,0.92 2.008,1.095c0.744,0.178 1.536,0.161 2.316,-0.053c0.313,-0.087 0.606,-0.188 0.862,-0.345c0.239,-0.146 0.446,-0.34 0.609,-0.612c0.128,-0.215 0.193,-0.466 0.221,-0.723c0.03,-0.277 0.016,-0.56 -0.014,-0.82c-0.068,-0.559 -0.246,-1.124 -0.551,-1.6c-0.289,-0.452 -0.697,-0.82 -1.232,-1.019c-0.321,-0.118 -0.664,-0.161 -1.011,-0.165c-0.557,-0.008 -1.125,0.09 -1.65,0.177c-0.273,0.046 -0.501,0.13 -0.71,0.237c-0.352,0.182 -0.647,0.438 -0.99,0.724c-0.062,0.052 -0.339,0.4 -0.455,0.336c-0.039,0.057 -0.09,0.105 -0.148,0.141Z"/><path d="M15.394,12.794c-0.085,-0.015 0.219,-0.171 0.251,-0.184c0.19,-0.074 0.398,-0.136 0.601,-0.164c0.387,-0.052 0.863,-0.049 1.248,0.017c0.133,0.023 0.24,0.039 0.364,0.088c0.031,0.013 0.191,0.092 0.191,0.067" style="fill:#fff;fill-opacity:0.45"/><path d="M15.861,12.971c0.058,-0.037 0.116,-0.073 0.18,-0.103c0.082,-0.039 0.163,-0.075 0.248,-0.1c0.091,-0.021 0.185,-0.047 0.285,-0.057c0.096,-0.01 0.195,-0.013 0.294,-0.005c0.2,0.016 0.388,0.078 0.562,0.133c0.058,0.022 0.108,0.043 0.159,0.065c0.037,0.016 0.063,0.045 0.1,0.07c0.033,0.022 0.18,0.105 0.24,0.132c0.1,0.046 0.185,0.001 0.24,-0.001c0.075,-0.001 0.12,-0.059 0.175,-0.082c0.03,-0.013 0.043,-0.045 0.069,-0.062c0.104,-0.069 0.102,-0.2 0.136,-0.343c-0,-0.276 -0.224,-0.5 -0.5,-0.5c-0.02,0 -0.04,0.001 -0.059,0.004c-0.06,-0.012 -0.115,-0.025 -0.173,-0.028c-0.085,-0.004 -0.163,-0.008 -0.258,-0.006l-1.356,0.037c-0.097,-0.001 -0.192,0.012 -0.291,0.02c-0.145,0.013 -0.283,0.039 -0.422,0.065c-0.031,0.005 -0.215,0.076 -0.335,0.128c-0.088,0.038 -0.13,0.107 -0.167,0.14c-0.102,0.091 -0.086,0.213 -0.105,0.294c-0.009,0.038 0.01,0.074 0.01,0.111c-0.002,0.141 0.116,0.231 0.265,0.352c0.034,0.028 0.088,0.027 0.148,0.052c0.24,0.043 0.472,-0.095 0.555,-0.316Zm-0.041,0.026l-0.02,0.013c0.002,-0.001 0.01,-0.006 0.014,-0.001l0.001,0.002l0.005,-0.014Zm1.734,-0.449c-0.006,0.022 -0.011,0.045 -0.005,0.07c-0,-0.024 0.001,-0.047 0.005,-0.07Zm0.087,-0.219c-0.041,0.044 -0.071,0.091 -0.074,0.155c0.016,-0.056 0.041,-0.108 0.074,-0.155Zm-1.955,0.06l-0.019,-0.014c0.014,0.008 0.026,0.017 0.037,0.028l-0.018,-0.014Zm-0.115,-0.062c-0.025,-0.014 -0.054,-0.026 -0.089,-0.025c0.031,0.006 0.06,0.014 0.089,0.025Z"/><path d="M17.179,12.267l-0.01,0.008c-0.173,0.141 -0.284,0.384 -0.399,0.564c-0.259,0.401 -0.395,0.881 -0.396,1.364c-0,0.478 0.119,0.956 0.363,1.349c0.566,0.919 1.562,1.504 2.644,1.708c1.061,0.201 2.196,0.045 3.05,-0.506c0.215,-0.136 0.399,-0.306 0.566,-0.494c0.228,-0.258 0.422,-0.551 0.619,-0.828c0.11,-0.151 0.306,-0.256 0.443,-0.396c0.098,-0.099 0.174,-0.211 0.217,-0.341c0.075,-0.225 0.081,-0.479 0.047,-0.735c-0.043,-0.331 -0.157,-0.668 -0.25,-0.941c-0.071,-0.205 -0.122,-0.435 -0.204,-0.645c-0.044,-0.111 -0.096,-0.217 -0.159,-0.314c-0.148,-0.228 -0.323,-0.48 -0.525,-0.696c-0.153,-0.163 -0.324,-0.302 -0.509,-0.404c-0.431,-0.237 -0.91,-0.295 -1.397,-0.256c-0.648,0.052 -1.311,0.29 -1.871,0.478c-0.28,0.094 -0.568,0.208 -0.85,0.335c-0.285,0.128 -0.562,0.271 -0.819,0.423c-0.048,0.028 -0.319,0.133 -0.418,0.197c-0.061,0.039 -0.107,0.084 -0.142,0.13Zm0.611,0.815c0.027,0.089 -0.169,0.21 -0.232,0.297c-0.178,0.244 -0.279,0.544 -0.296,0.849c-0.017,0.317 0.041,0.638 0.189,0.907c0.42,0.759 1.209,1.253 2.071,1.451c0.89,0.205 1.857,0.104 2.593,-0.339c0.169,-0.103 0.314,-0.234 0.445,-0.378c0.218,-0.24 0.4,-0.516 0.587,-0.774c0.124,-0.173 0.34,-0.303 0.495,-0.464c0.033,-0.035 0.062,-0.071 0.076,-0.116c0.045,-0.144 0.038,-0.306 0.013,-0.469c-0.046,-0.288 -0.159,-0.578 -0.248,-0.814c-0.064,-0.17 -0.114,-0.359 -0.182,-0.537c-0.036,-0.095 -0.079,-0.185 -0.136,-0.265c-0.136,-0.191 -0.293,-0.404 -0.474,-0.582c-0.106,-0.103 -0.22,-0.193 -0.345,-0.255c-0.309,-0.151 -0.647,-0.165 -0.986,-0.12c-0.579,0.076 -1.16,0.332 -1.652,0.527c-0.248,0.099 -0.502,0.216 -0.75,0.344c-0.245,0.128 -0.483,0.269 -0.702,0.417c-0.021,0.014 -0.098,0.085 -0.178,0.141c-0.07,0.09 -0.172,0.155 -0.288,0.18Z"/></g></g><g id="Dark.Gorro"><path d="M0.951,10.089c-0.899,-2.807 0.983,-5.284 2.916,-7.175c0.797,-0.78 1.423,-1.546 2.513,-1.939c2.198,-0.793 4.799,-0.519 6.953,0.28c0.897,0.332 3.546,2.031 3.966,2.929c0.266,0.568 0.032,1.199 -0.8,1.348" style="fill:#fff" class="hidden dark:block"/><path d="M1.427,9.937c-0.352,-1.018 -0.297,-1.996 0.012,-2.916c0.487,-1.451 1.567,-2.759 2.661,-3.87c0.466,-0.468 0.869,-0.932 1.351,-1.312c0.3,-0.236 0.63,-0.438 1.029,-0.587c1.063,-0.382 2.223,-0.511 3.377,-0.435c1.161,0.077 2.312,0.363 3.354,0.767c0.499,0.196 1.557,0.853 2.434,1.538c0.584,0.456 1.093,0.916 1.242,1.255c0.068,0.153 0.072,0.315 -0.013,0.441c-0.082,0.123 -0.245,0.188 -0.463,0.222c-0.272,0.049 -0.453,0.309 -0.404,0.58c0.049,0.272 0.309,0.453 0.58,0.404c0.546,-0.112 0.9,-0.375 1.093,-0.695c0.236,-0.394 0.258,-0.882 0.031,-1.338c-0.204,-0.413 -0.826,-0.991 -1.575,-1.527c-0.971,-0.695 -2.137,-1.349 -2.681,-1.538c-1.112,-0.394 -2.336,-0.646 -3.563,-0.708c-1.236,-0.062 -2.476,0.068 -3.612,0.479c-0.465,0.163 -0.851,0.39 -1.203,0.654c-0.511,0.384 -0.945,0.852 -1.442,1.325c-1.219,1.149 -2.409,2.522 -2.996,4.058c-0.418,1.091 -0.532,2.264 -0.165,3.508c0.085,0.263 0.366,0.408 0.629,0.323c0.263,-0.084 0.408,-0.365 0.324,-0.628Z" style="fill-opacity:0.85" class="hidden dark:block"/><path d="M6.947,11.055c-0.103,-0.046 0.437,-0.178 0.498,-0.203c0.371,-0.149 0.793,-0.281 1.175,-0.399c0.269,-0.083 0.516,-0.305 0.793,-0.399c0.848,-0.286 1.888,-0.38 2.777,-0.469c1.7,-0.169 3.508,-0.238 5.219,-0.238c0.807,0 1.766,0.256 2.551,0.021c0.284,-0.084 0.261,-0.808 0.21,-1.008c-0.592,-2.328 -1.885,-3.302 -2.222,-3.988c-0.57,-1.157 -2.652,-0.207 -3.689,-0.086c-2.844,0.333 -5.569,0.914 -8.261,1.918c-1.346,0.502 -2.697,0.867 -3.811,1.82c-0.6,0.514 -1.065,1.067 -1.433,1.772c-0.389,0.749 0.267,1.193 0.584,1.813c0.101,0.198 0.677,1.486 0.802,1.421c0.732,-0.385 1.416,-0.852 2.171,-1.212c0.525,-0.25 1.064,-0.455 1.617,-0.623c0.188,-0.056 0.367,-0.119 0.56,-0.154c0.094,-0.017 0.376,-0.056 0.281,-0.056c-0.127,0 -0.248,0.002 -0.374,0.014" style="fill:#abe9f6" class="hidden dark:block"/><path d="M6.722,11.501l0.02,0.01c0.162,0.073 0.341,0.053 0.479,-0.037c0.088,0.067 0.37,-0.149 0.408,-0.165l1.132,-0.4c0.079,-0.025 0.157,-0.058 0.233,-0.097c0.19,-0.096 0.368,-0.246 0.568,-0.316c0.319,-0.112 0.667,-0.195 1.023,-0.261c0.554,-0.101 1.128,-0.162 1.648,-0.22c0.841,-0.094 1.71,-0.163 2.581,-0.21c0.872,-0.048 1.745,-0.075 2.595,-0.084c0.56,-0.006 1.195,0.111 1.793,0.102c0.298,-0.004 0.587,-0.037 0.858,-0.12c0.191,-0.059 0.349,-0.23 0.423,-0.487c0.09,-0.316 0.059,-0.774 0.016,-0.939c-0.186,-0.706 -0.432,-1.292 -0.697,-1.786c-0.616,-1.147 -1.337,-1.771 -1.579,-2.254c-0.243,-0.487 -0.685,-0.696 -1.23,-0.728c-0.881,-0.052 -2.062,0.403 -2.768,0.488c-1.433,0.165 -2.836,0.398 -4.221,0.707c-1.387,0.31 -2.757,0.698 -4.119,1.196c-0.821,0.298 -1.642,0.547 -2.414,0.904c-0.536,0.248 -1.047,0.547 -1.52,0.944c-0.321,0.269 -0.605,0.549 -0.859,0.854c-0.256,0.307 -0.481,0.641 -0.681,1.015c-0.163,0.306 -0.193,0.578 -0.154,0.83c0.036,0.235 0.141,0.455 0.278,0.67c0.139,0.22 0.316,0.435 0.438,0.679c0.082,0.167 0.479,1.065 0.699,1.381c0.131,0.189 0.285,0.258 0.364,0.275c0.113,0.026 0.214,0.005 0.305,-0.041c0.52,-0.266 1.016,-0.572 1.53,-0.853c0.209,-0.114 0.42,-0.223 0.638,-0.324c0.252,-0.116 0.508,-0.222 0.768,-0.318c0.26,-0.096 0.524,-0.181 0.791,-0.258l0.507,-0.134l0.147,-0.023Zm13.085,-2.452c0.011,-0.034 0.031,-0.1 0.038,-0.148c0.025,-0.177 0.017,-0.375 -0.003,-0.457c-0.16,-0.651 -0.377,-1.193 -0.614,-1.65c-0.602,-1.161 -1.318,-1.798 -1.555,-2.286c-0.187,-0.385 -0.607,-0.431 -1.07,-0.396c-0.794,0.06 -1.721,0.396 -2.31,0.464c-1.412,0.166 -2.795,0.391 -4.157,0.707c-1.359,0.314 -2.695,0.719 -4.024,1.225c-0.797,0.305 -1.596,0.561 -2.344,0.923c-0.475,0.231 -0.928,0.506 -1.345,0.869c-0.28,0.246 -0.529,0.5 -0.75,0.777c-0.218,0.272 -0.408,0.568 -0.575,0.898c-0.09,0.177 -0.083,0.324 -0.029,0.46c0.134,0.337 0.446,0.629 0.635,0.987c0.065,0.124 0.33,0.697 0.538,1.057c0.399,-0.23 0.787,-0.477 1.187,-0.708c0.223,-0.129 0.45,-0.254 0.684,-0.368c0.271,-0.134 0.547,-0.255 0.826,-0.367c0.279,-0.111 0.562,-0.212 0.85,-0.303l0.233,-0.066c0.08,-0.09 0.193,-0.152 0.323,-0.165l0.424,-0.012c0.052,0.001 0.097,0.007 0.138,0.016c0.148,-0.05 0.319,-0.097 0.354,-0.111c0.158,-0.061 0.324,-0.119 0.493,-0.175c0.243,-0.079 0.491,-0.153 0.725,-0.223c0.192,-0.056 0.369,-0.198 0.56,-0.291c0.074,-0.036 0.149,-0.069 0.225,-0.093c0.365,-0.118 0.762,-0.204 1.169,-0.269c0.577,-0.091 1.173,-0.141 1.714,-0.188c0.859,-0.076 1.745,-0.127 2.632,-0.155c0.884,-0.029 1.769,-0.037 2.63,-0.027c0.56,0.005 1.192,0.135 1.789,0.137c0.21,0.001 0.415,-0.013 0.609,-0.062Zm-12.512,1.647c-0.035,-0.036 -0.081,-0.07 -0.143,-0.097c0.055,0.025 0.103,0.058 0.143,0.097Z" class="hidden dark:block"/><path d="M8.332,4.965c0.013,-0.019 -0.261,0.325 -0.334,0.42c-0.234,0.303 -0.451,0.597 -0.615,0.945c-0.491,1.04 -0.67,2.395 -0.747,3.535c-0.101,1.504 -0.37,2.991 -0.536,4.488c-0.122,1.099 -0.128,2.215 -0.273,3.311c-0.105,0.798 -0.101,1.59 -0.101,2.394c0,0.256 -0.017,0.512 0.047,0.763c0.034,0.133 0.262,0.392 0.124,0.392c-0.181,-0 -0.53,-0.589 -0.622,-0.707c-0.698,-0.897 -1.004,-1.807 -1.415,-2.856c-0.732,-1.868 -2.063,-3.497 -2.496,-5.444c-0.233,-1.049 -0.956,-1.656 -0.854,-2.749c0.108,-1.17 0.082,-1.513 0.536,-2.576" style="fill:#fff" class="hidden dark:block"/><path d="M5.433,20.232c-0.229,-0.311 -0.411,-0.623 -0.569,-0.944c-0.272,-0.552 -0.471,-1.128 -0.71,-1.754c-0.495,-1.314 -1.285,-2.516 -1.855,-3.789c-0.234,-0.525 -0.428,-1.062 -0.545,-1.626c-0.153,-0.753 -0.554,-1.288 -0.736,-1.925c-0.061,-0.212 -0.088,-0.437 -0.06,-0.695c0.062,-0.562 0.089,-0.928 0.156,-1.278c0.064,-0.337 0.172,-0.656 0.392,-1.143c0.108,-0.254 -0.01,-0.548 -0.264,-0.656c-0.254,-0.109 -0.548,0.009 -0.656,0.263c-0.181,0.447 -0.286,0.777 -0.353,1.086c-0.103,0.473 -0.116,0.896 -0.172,1.645c-0.029,0.386 0.023,0.72 0.124,1.031c0.199,0.614 0.614,1.118 0.789,1.846c0.147,0.614 0.378,1.197 0.652,1.765c0.601,1.246 1.414,2.417 1.939,3.707c0.257,0.639 0.477,1.226 0.765,1.791c0.197,0.384 0.423,0.758 0.715,1.129c0.073,0.092 0.301,0.461 0.49,0.642c0.129,0.123 0.265,0.175 0.362,0.175c0.172,-0.001 0.253,-0.088 0.299,-0.178c0.029,-0.06 0.047,-0.141 0.022,-0.24c-0.021,-0.085 -0.141,-0.242 -0.164,-0.335c-0.021,-0.082 -0.03,-0.165 -0.035,-0.248c-0.008,-0.147 -0.001,-0.295 -0.001,-0.443c0.003,-0.478 0.002,-0.952 0.027,-1.425c0.016,-0.31 0.042,-0.619 0.086,-0.929c0.031,-0.224 0.056,-0.448 0.078,-0.673c0.088,-0.878 0.122,-1.765 0.229,-2.641c0.131,-1.045 0.312,-2.085 0.452,-3.13c0.061,-0.454 0.115,-0.91 0.153,-1.367c0.055,-0.659 0.146,-1.392 0.316,-2.088c0.111,-0.452 0.257,-0.887 0.449,-1.274c0.074,-0.151 0.161,-0.289 0.255,-0.423c0.1,-0.144 0.209,-0.282 0.322,-0.423c0.056,-0.07 0.229,-0.279 0.302,-0.367l0.007,-0.008c0.02,-0.021 0.038,-0.044 0.054,-0.068c0.003,-0.005 0.005,-0.011 0.005,-0.02c0.098,-0.186 -0.009,-0.322 -0.176,-0.413c-0.165,-0.242 -0.42,-0.434 -0.667,-0.117c-0.073,0.094 -0.244,0.318 -0.3,0.393c-0.147,0.197 -0.286,0.39 -0.411,0.594c-0.088,0.144 -0.169,0.292 -0.241,0.45c-0.203,0.453 -0.354,0.957 -0.463,1.48c-0.155,0.746 -0.229,1.527 -0.265,2.229c-0.023,0.445 -0.06,0.888 -0.106,1.331c-0.108,1.05 -0.261,2.096 -0.362,3.146c-0.077,0.774 -0.096,1.556 -0.148,2.333c-0.022,0.326 -0.05,0.652 -0.09,0.976c-0.041,0.328 -0.063,0.655 -0.076,0.982c-0.019,0.482 -0.016,0.965 -0.014,1.452c0,0.058 -0.001,0.116 -0.001,0.174Z" style="fill-opacity:0.85" class="hidden dark:block"/><path d="M5.006,20.069c0.011,-0.042 -0.752,0.384 -0.856,0.539c-0.323,0.479 -0.484,1.38 -0.381,1.954c0.217,1.21 2.073,1.892 3.088,1.399c0.529,-0.257 0.861,-2.478 0.334,-2.954c-0.362,-0.326 -1.026,-0.791 -1.532,-0.791c-0.148,0 -1.375,0.021 -0.793,0.021" style="fill:#fff" class="hidden dark:block"/><path d="M4.537,19.753c-0.12,0.012 -0.236,0.035 -0.342,0.065c-0.374,0.083 -0.54,0.213 -0.563,0.35c-0.059,0.103 -0.043,0.211 0.076,0.305c-0.146,0.278 -0.258,0.635 -0.312,1.004c-0.06,0.408 -0.062,0.827 0.01,1.15c0.149,0.708 0.75,1.266 1.483,1.558c0.708,0.282 1.521,0.324 2.094,0.037c0.118,-0.056 0.236,-0.169 0.34,-0.333c0.188,-0.299 0.343,-0.803 0.419,-1.322c0.065,-0.437 0.07,-0.882 0.003,-1.222c-0.053,-0.271 -0.166,-0.481 -0.304,-0.615c-0.227,-0.222 -0.57,-0.497 -0.926,-0.695c-0.288,-0.159 -0.589,-0.255 -0.856,-0.267c-0.047,-0.002 -0.198,-0.007 -0.368,-0.011c-0.131,-0.151 -0.329,-0.247 -0.598,-0.098c-0.043,0.024 -0.097,0.056 -0.156,0.094Zm0.246,0.98c-0.143,0.08 -0.27,0.155 -0.27,0.155c-0,-0 0.008,-0.021 0.012,-0.026c-0.142,0.193 -0.255,0.474 -0.323,0.767c-0.071,0.304 -0.105,0.619 -0.07,0.867c0.074,0.499 0.497,0.892 0.999,1.116c0.532,0.238 1.156,0.298 1.599,0.089c0.062,-0.032 0.102,-0.123 0.15,-0.23c0.115,-0.255 0.193,-0.616 0.227,-0.981c0.028,-0.301 0.021,-0.606 -0.025,-0.857c-0.028,-0.154 -0.064,-0.284 -0.141,-0.348c-0.169,-0.141 -0.409,-0.307 -0.662,-0.438c-0.21,-0.109 -0.431,-0.191 -0.62,-0.183c-0.068,0.004 -0.369,0.022 -0.61,0.039c-0.057,0.022 -0.119,0.034 -0.183,0.034l-0.083,-0.004Z" class="hidden dark:block"/></g></svg>