<svg viewBox="0 0 25 23" xmlns="http://www.w3.org/2000/svg" xml:space="preserve" style="fill-rule:evenodd;clip-rule:evenodd;stroke-linejoin:round;stroke-miterlimit:2"><path d="M16.645 3.855c0-.414.928-.572 1.186-.633.337-.08.674-.119 1.015-.177.773-.131 1.91-.438 2.521.281.172.203.261.897.154 1.134-.115.253-.33.419-.466.652-.118.201.207.25.116.463-.179.414-.812.441-1.176.488-.12.015-.389.084-.512.029-.277-.126-.567-.667-.787-.876-.485-.462-1.097-.723-1.607-1.131-.127-.102-.188-.276-.283-.359"/><path d="M16.643 4.355c.053.038.107.073.148.103.38.278.806.481 1.207.733.148.093.293.191.428.308.174.154.397.502.618.705.1.092.199.164.296.205.08.033.187.054.306.047.139-.009.302-.05.391-.064.284-.044.711-.089 1.011-.265a.894.894 0 0 0 .396-.434c.082-.198.048-.498-.042-.573.073-.096.156-.184.229-.282.059-.08.112-.164.156-.258.07-.151.092-.448.057-.741-.035-.296-.133-.581-.242-.714-.294-.364-.698-.525-1.139-.582-.561-.073-1.191.048-1.683.113l-1.049.142c-.202.038-.748.128-1.094.316-.318.174-.479.446-.492.741a.5.5 0 0 0 .498.5Zm4.223 1.152c-.047-.07-.119-.187-.126-.265a.435.435 0 0 1 .064-.277c.101-.172.242-.311.359-.471a.856.856 0 0 0 .092-.155c.038-.086.022-.256-.002-.421-.024-.161-.06-.322-.122-.392-.195-.218-.457-.294-.734-.313-.502-.034-1.052.131-1.484.221l-.981.212c-.071.02-.206.128-.353.223.288.223.6.414.893.635.173.131.341.269.494.428.15.154.33.465.518.695.044.054.082.108.126.137l.342-.03c.17-.017.403-.024.614-.079.116-.029.233-.063.3-.148Z"/><path d="M1.784 12.752c.056.261.174.665.343.954.169.289.429.536.67.779.246.247.548.459.806.707.275.264.605.567.843.878.233.304.453.63.584.99.13.361.131.785.2 1.177.073.407.129.859.233 1.265.103.398.212.907.394 1.169.154.22.486.238.7.402.292.225.712.776 1.056.949.301.151.672.047 1.007.089.569.07 1.731.349 2.408.335.569-.012 1.218-.265 1.655-.419.343-.12.667-.299.966-.505.307-.212.596-.498.877-.766.314-.302.724-.687 1.011-1.043.272-.338.517-.788.711-1.093.154-.242.37-.531.451-.734.06-.15.056-.365.036-.482-.016-.089-.248-.201-.16-.218.11-.022.546.082.822.09.348.01.847.028 1.265-.032.432-.062.969-.183 1.328-.342.314-.139.633-.34.828-.612.194-.272.293-.664.341-1.02.069-.516.052-1.492.072-2.076.017-.476.123-.958.05-1.428-.084-.538-.355-1.206-.552-1.802-.294-.891-.927-2.767-1.213-3.543-.14-.381-.217-.822-.504-1.11-.395-.396-1.309-.944-1.866-1.266a7.685 7.685 0 0 0-1.48-.667c-.593-.191-1.394-.402-2.079-.481-.672-.076-1.356-.047-2.03.013-.8.071-1.87.162-2.768.413-.915.256-1.933.687-2.718 1.121-.725.4-1.493 1.04-1.994 1.481-.387.34-.783.824-1.015 1.165-.179.264-.262.583-.374.881-.115.305-.251.621-.314.948-.08.414-.075 1.032-.167 1.541-.097.537-.345 1.297-.416 1.679-.037.201-.05.413-.007.613Z" style="fill:#fff"/><path d="m17.066 17.548.322.039c.219.005.497.014.778.005.183-.006.368-.019.54-.045.263-.039.564-.099.843-.175.206-.057.401-.123.563-.195.208-.093.418-.211.6-.356.134-.105.253-.225.347-.358a1.89 1.89 0 0 0 .232-.46c.078-.222.129-.465.159-.694.023-.176.037-.403.046-.65.017-.489.013-1.062.026-1.455.011-.334.066-.67.073-1.004.003-.16-.004-.32-.029-.479a4.641 4.641 0 0 0-.137-.588c-.121-.411-.29-.852-.424-1.26l-1.203-3.557c-.101-.276-.171-.582-.303-.844a1.507 1.507 0 0 0-.267-.38 5.48 5.48 0 0 0-.756-.596 19.908 19.908 0 0 0-1.169-.729 8.46 8.46 0 0 0-.749-.392 7.455 7.455 0 0 0-.79-.313 14.19 14.19 0 0 0-1.052-.302 9.373 9.373 0 0 0-1.09-.207 8.514 8.514 0 0 0-1.06-.054c-.347.003-.695.024-1.041.052-.497.04-1.096.087-1.696.174a9.81 9.81 0 0 0-1.144.23 14.107 14.107 0 0 0-2.811 1.132 8.73 8.73 0 0 0-.883.561 17.25 17.25 0 0 0-1.198.954c-.2.173-.403.381-.587.59-.201.229-.38.46-.511.649a2.123 2.123 0 0 0-.178.315c-.099.211-.169.439-.253.656-.073.188-.153.38-.22.576-.05.146-.093.293-.123.443l-.183 1.544-.433 1.675c-.024.125-.04.254-.044.383-.005.143.006.285.034.424.041.18.107.421.198.655.061.156.131.309.211.441.084.142.185.275.296.403.143.163.303.316.456.467l.821.709c.162.153.344.319.515.493.104.105.203.214.289.324.108.138.214.281.308.431.086.138.163.281.219.432.032.087.055.179.073.273.051.271.068.558.119.829.053.285.099.593.158.892.027.136.057.272.092.402.074.276.152.604.252.872.062.167.134.315.214.428a.84.84 0 0 0 .218.215c.095.066.204.117.318.162.088.034.183.058.255.113.194.147.446.442.693.665a2 2 0 0 0 .434.314c.137.068.283.103.435.117.228.02.474-.024.703.003.394.045 1.073.188 1.678.265.289.037.562.059.785.053.246-.007.505-.052.758-.118.373-.096.732-.234 1.009-.333.187-.068.37-.151.546-.246.172-.093.339-.197.499-.309.135-.094.266-.201.395-.315.178-.157.351-.328.52-.492.19-.185.415-.401.628-.623a5.05 5.05 0 0 0 .725-.914c.151-.239.289-.482.407-.67.102-.163.232-.347.332-.513.06-.1.11-.195.142-.277a1.05 1.05 0 0 0 .064-.276c.006-.061.007-.123.006-.181Zm-.637-.024a.742.742 0 0 1-.027.243 1.228 1.228 0 0 1-.098.181c-.099.161-.228.339-.33.498-.12.186-.26.427-.413.663a4.424 4.424 0 0 1-.653.803c-.209.213-.431.42-.618.597-.164.155-.331.316-.503.464-.11.094-.222.184-.337.261a4.214 4.214 0 0 1-.433.261 3.409 3.409 0 0 1-.452.196c-.261.09-.599.215-.949.3a2.655 2.655 0 0 1-.596.086 4.395 4.395 0 0 1-.669-.058c-.607-.087-1.288-.242-1.683-.294-.21-.028-.434-.004-.648-.012a.54.54 0 0 1-.229-.046 1.226 1.226 0 0 1-.249-.195c-.261-.244-.529-.562-.736-.723a1.136 1.136 0 0 0-.212-.13c-.084-.041-.174-.075-.262-.111-.049-.021-.104-.032-.133-.075a1.318 1.318 0 0 1-.143-.342c-.07-.224-.126-.477-.18-.696a6.154 6.154 0 0 1-.095-.472c-.044-.257-.079-.518-.12-.762-.046-.273-.058-.56-.104-.832a2.632 2.632 0 0 0-.329-.91 5.515 5.515 0 0 0-.768-1.038c-.176-.186-.363-.364-.531-.528l-.791-.707c-.134-.138-.275-.277-.4-.425a1.822 1.822 0 0 1-.188-.262 2.17 2.17 0 0 1-.161-.38 3.557 3.557 0 0 1-.116-.432.798.798 0 0 1-.019-.189c.001-.077.01-.154.023-.229l.399-1.684.152-1.539c.02-.111.05-.22.085-.328.06-.186.133-.369.198-.547.064-.175.117-.357.187-.53a1.49 1.49 0 0 1 .131-.262 6.495 6.495 0 0 1 .932-1.091c.299-.268.695-.611 1.121-.927.257-.191.524-.372.786-.52.384-.217.825-.433 1.282-.627a11.79 11.79 0 0 1 1.342-.482c.333-.096.692-.17 1.05-.228.582-.093 1.165-.148 1.647-.195.328-.031.658-.056.988-.063.325-.008.649.001.971.036.322.034.671.099 1.011.178.359.083.709.181 1.005.274.246.078.488.17.724.276.238.106.471.225.697.353.318.182.753.437 1.139.694.267.179.512.358.668.513.089.089.15.198.201.315.095.218.155.461.238.682.122.325.306.845.5 1.404.266.768.55 1.611.722 2.124.114.345.253.714.367 1.068.077.241.142.475.175.687.019.125.024.251.021.378-.008.331-.063.664-.075.995-.015.394-.013.966-.031 1.455a6.25 6.25 0 0 1-.043.593 3.056 3.056 0 0 1-.102.483 1.374 1.374 0 0 1-.189.403c-.08.111-.187.205-.304.288a2.451 2.451 0 0 1-.404.222c-.17.074-.383.138-.604.192a6.989 6.989 0 0 1-.646.122c-.149.021-.31.031-.47.035-.268.006-.533-.004-.743-.011-.224-.007-.556-.081-.725-.095a.68.68 0 0 0-.165.006.322.322 0 0 0-.227.153.318.318 0 0 0-.041.242.362.362 0 0 0 .072.148c.018.022.073.072.11.105Z"/><path d="M1.562 11.241a.5.5 0 0 0-.117.634c.095.108.165.231.31.237.049.002.1.031.158.015.047-.013.188.008.293-.121l.084-.106s-.031.017-.037.024l.18-.205c.085-.069.186-.169.313-.225.082-.035.163-.082.239-.056a.818.818 0 0 1 .291.244c.081.11.112.244.153.381.021.082.044.251.071.366.023.098.078.159.104.205.033.06.092.078.127.11.096.09.216.06.317.071.127.012.224-.088.36-.211.03-.028.037-.078.069-.128a.501.501 0 0 0-.119-.528c-.052-.08-.177-.178-.213-.226a2.472 2.472 0 0 0-.398-.467 1.704 1.704 0 0 0-.523-.351c-.159-.088-.35-.089-.549-.072a2.51 2.51 0 0 0-.649.169l-.324.154c-.022.01-.147.044-.14.086Zm1.997.842a.106.106 0 0 0-.021.051.549.549 0 0 1 .021-.051Zm-1.283-.759a.424.424 0 0 1 .038.056.143.143 0 0 0-.038-.056Zm-.184-.148a.46.46 0 0 1 .143.101.245.245 0 0 0-.143-.101Zm-.226-.048-.021.001-.024.002a.14.14 0 0 1 .045-.003Z"/><path d="M2.867 13.525c.022.046.082.069.099.12.023.074.118.055.171.114.015.017.041.004.06.019.032.028.078-.007.123.015.047.022.091-.04.169-.032.03.003.045-.042.093-.048.015-.001.026-.051.117-.085a.5.5 0 0 0-.003-.682.44.44 0 0 0-.122-.156c-.09-.07-.16-.157-.267-.187-.165-.119-.305-.111-.434-.114-.13-.003-.23.062-.407.136-.005.002-.009-.01-.018-.008-.032.008-.055.03-.09.042-.047.015-.062.059-.101.08-.083.044-.065.139-.113.2-.055.069.008.148-.011.232-.006.023.017.039.015.063-.003.027.026.042.027.071.002.048.058.064.073.117a.5.5 0 0 0 .619.103Zm.921-.265c-.003.018-.01.036-.007.057a.52.52 0 0 1 .007.069c.011-.025.022-.045.014-.064a.159.159 0 0 1-.014-.062Zm-.005-.11c-.001.026-.006.054.003.082l.002.007c.001-.035.007-.065-.005-.089Zm-.797-.047c.01.01.02.021.028.016.003-.003.004.005.006.011a.023.023 0 0 0-.006-.02c-.008-.005-.019-.006-.028-.007Zm-.019-.157a.002.002 0 0 0-.002.002l.002-.002Zm.051-.161c-.004-.012-.01-.022-.023-.028a.566.566 0 0 1 .023.028Zm2.639-5.534c.133.095.232.381.298.52.201.423.352.863.493 1.31.056.174.269.4.207.592-.072.223-.35.196-.518.12-.015-.007-.22-.112-.228-.091-.074.204.046.61.046.831 0 .115.041.263-.074.328-.624.351-1.409-.061-2.079.035-.235.033-.487.005-.717.047-.521.094-1.047.52-1.52.044-.085-.086-.189-.169-.266-.261-.053-.065-.062-.16-.091-.237-.263-.711.233-1.056.417-1.682.071-.243.028-.641.227-.822.042-.038-.148-.186-.168-.211a.595.595 0 0 1-.101-.463c.053-.323.186-.36.413-.53.058-.043.153-.191.22-.211.287-.085.693-.001.974.06.482.106.973.18 1.466.18.282 0 .636-.006.9.113.11.05.339.21.129.262"/><path d="M1.445 8.012a.846.846 0 0 0-.035.104c-.052.194-.043.434-.088.602-.129.466-.419.788-.472 1.201-.026.2-.011.418.086.671.021.057.033.123.057.181a.511.511 0 0 0 .084.14l.283.28a.976.976 0 0 0 .597.303c.379.045.784-.185 1.181-.253l.709-.036c.453-.055.956.135 1.426.143.273.005.536-.043.784-.175a.487.487 0 0 0 .231-.27c.042-.108.031-.251.034-.37a2.333 2.333 0 0 0-.021-.288.85.85 0 0 0 .303-.019.63.63 0 0 0 .446-.424.662.662 0 0 0 .024-.328c-.026-.177-.168-.371-.211-.524-.079-.28-.162-.557-.257-.83a8.004 8.004 0 0 0-.218-.556c-.035-.081-.081-.203-.135-.32a.472.472 0 0 0 .008-.202.603.603 0 0 0-.132-.294 1.185 1.185 0 0 0-.373-.267 1.703 1.703 0 0 0-.493-.118 4.775 4.775 0 0 0-.607-.008 5.355 5.355 0 0 1-.682-.023 8.176 8.176 0 0 1-.697-.1 4.184 4.184 0 0 0-.647-.084 1.534 1.534 0 0 0-.522.059.51.51 0 0 0-.192.112c-.054.05-.158.178-.158.178l.016-.013c-.18.143-.307.224-.396.363a.971.971 0 0 0-.143.407 1.03 1.03 0 0 0 .011.368.877.877 0 0 0 .167.358l.032.032Zm3.715-.709a.87.87 0 0 0-.087-.013c-.143-.018-.288-.021-.417-.025a6.392 6.392 0 0 1-.793-.077 9.34 9.34 0 0 1-.761-.159c-.127-.032-.281-.072-.438-.093a1.104 1.104 0 0 0-.284-.013 2.025 2.025 0 0 1-.162.156c-.105.073-.192.096-.245.171a.287.287 0 0 0-.042.118.304.304 0 0 0-.006.116.202.202 0 0 0 .028.079c.054.059.2.222.22.288.052.164.007.292-.096.382-.033.028-.042.076-.053.125-.041.182-.049.389-.096.538-.119.383-.355.659-.461.98a.744.744 0 0 0 .014.512c.017.045.042.137.048.159l.242.236a.412.412 0 0 0 .353.13c.297-.03.602-.21.907-.268l.727-.059c.476-.078 1.015.09 1.512.076a.975.975 0 0 0 .322-.058c-.002-.026-.004-.052-.004-.071-.005-.172-.085-.454-.089-.67a.886.886 0 0 1 .043-.295.4.4 0 0 1 .498-.242.4.4 0 0 1 .05.016 1.377 1.377 0 0 1-.056-.13 14.331 14.331 0 0 0-.239-.637 6.84 6.84 0 0 0-.274-.598c-.044-.087-.263-.261-.187-.345a.497.497 0 0 1-.174-.329Zm.362-.591a.59.59 0 0 1 .045-.013c-.017.003-.031.008-.045.013Z"/><path d="M16.449 3.631c-.216-.048-.503.279-.683.381-.582.334-1.199.601-1.785.933-.176.1-.349.207-.515.324-.044.032-.155.116-.217.089-.157-.071-.232-.431-.185-.577.018-.056.05-.105.08-.154.018-.028.065-.114.049-.085-.129.234-.521.367-.724.529-.755.599-1.462 1.238-2.485 1.314-.158.011-.551.115-.63-.063-.087-.195.164-.414.294-.517.006-.006.137-.116.143-.11.039.035-.332.293-.357.308-.468.286-.987.495-1.477.741a5.07 5.07 0 0 1-2.216.504c-.078 0-.231-.064-.238-.155-.003-.042-.016-.141.007-.179.013-.021.121-.138.077-.073-.391.588-1.395.572-2.002.419-.132-.033-.292-.028-.409-.107-.15-.101-.178-.221-.245-.378-.011-.023-.01-.157-.032-.164-.099-.029-.242.053-.332.079-.232.066-.457.156-.69.085-.326-.099-.695-.03-1.036-.132-.125-.038-.32-.137-.336-.296-.078-.782.794-1.284 1.421-1.528.223-.087.436-.177.672-.218.075-.012.147-.024.221-.044.04-.011.164-.031.122-.031-.245 0-.487.18-.749.126-.333-.069-.026-.564.095-.655.168-.128.374-.199.56-.297.381-.201.709-.431 1.141-.519.272-.056.535-.034.808-.06.044-.004.222.005.256-.025.012-.012-.3-.319-.308-.397-.03-.294.332-.648.546-.81.388-.294.886-.333 1.354-.384.152-.017.41-.082.564-.032.222.073.396.253.602.353.016.008.164.096.175.091.021-.009.058-.136.07-.157a3.19 3.19 0 0 1 .28-.444c.17-.218.587-.403.861-.454.65-.121 1.111.114 1.691.35.076.03.179.045.241.101.048.043.172.326.28.261.201-.12.37-.443.543-.611.331-.321.985-.515 1.449-.451.238.033.779.131.955.281.23.194.508.579.778.699.084.038.403-.211.49-.249.314-.136.814-.05 1.036.221.446.546.207 1.206-.109 1.748-.157.271-.217.515-.507.438"/><path d="M11.385 1.026a.62.62 0 0 0-.169-.106c-.06-.026-.13-.04-.186-.062-.377-.149-.71-.295-1.066-.359a2.216 2.216 0 0 0-.835.006 2.325 2.325 0 0 0-.661.256c-.17.098-.318.216-.411.338l-.217.349c-.09-.057-.176-.123-.268-.177a1.239 1.239 0 0 0-.259-.119.819.819 0 0 0-.284-.033c-.145.005-.31.042-.421.055-.299.035-.609.068-.899.155a1.874 1.874 0 0 0-.613.305 2.3 2.3 0 0 0-.49.512c-.126.191-.194.398-.174.584a.39.39 0 0 0 .026.102 5.314 5.314 0 0 0-.252.013 2.08 2.08 0 0 0-.279.039 2.442 2.442 0 0 0-.542.187c-.229.108-.443.243-.676.368-.131.069-.272.126-.402.197a1.584 1.584 0 0 0-.198.127c-.124.095-.374.48-.358.742.002.023.004.046.008.068-.398.16-.867.416-1.177.762-.258.288-.41.637-.37 1.041.013.135.08.254.18.349a.976.976 0 0 0 .364.202c.082.025.165.042.249.054.264.038.538.008.784.084a.969.969 0 0 0 .406.031c.151-.018.302-.069.455-.111l.029-.009a1.3 1.3 0 0 0 .109.221.771.771 0 0 0 .213.214.706.706 0 0 0 .205.094c.098.029.207.035.302.06.402.105.959.153 1.439.041.149-.034.291-.084.42-.151a.74.74 0 0 0 .374.129 5.57 5.57 0 0 0 1.213-.124c.406-.087.802-.22 1.163-.396.317-.155.645-.295.965-.45a.568.568 0 0 0 .244.161c.193.069.53.015.687.006.464-.029.872-.16 1.25-.35.325-.162.626-.372.923-.596-.019-.143.101-.497.453-1.185-.049.152-.043.432.039.663a.829.829 0 0 0 .045.105l-.346.27-.179.138-.012.009c.025.196.312-.005.618-.285a.861.861 0 0 1-.081-.132l.013-.01c.138-.107.362-.198.53-.319l.018-.013c-.14.147-.313.322-.48.474a.699.699 0 0 0 .26.22.526.526 0 0 0 .316.037c.122-.021.281-.118.35-.166l.479-.293 1.801-.911c.118-.066.494-.153.464-.307a.501.501 0 0 0 .463-.605l.036-.066c.227-.402.409-.858.406-1.3a1.509 1.509 0 0 0-.361-.989 1.301 1.301 0 0 0-.754-.418 1.432 1.432 0 0 0-.821.078 4.11 4.11 0 0 0-.268.161l-.07-.064c-.166-.159-.329-.345-.472-.463a1.276 1.276 0 0 0-.413-.207 4.965 4.965 0 0 0-.762-.159 2.289 2.289 0 0 0-.947.103c-.328.104-.633.272-.838.476l-.288.349Zm4.635 2.125c.032-.058.074-.131.107-.185.13-.216.252-.451.291-.692a.627.627 0 0 0-.119-.516c-.047-.06-.13-.091-.214-.109a.492.492 0 0 0-.283.007c-.082.035-.359.228-.499.264a.523.523 0 0 1-.351-.023 1.485 1.485 0 0 1-.371-.258c-.178-.165-.351-.386-.503-.517-.055-.048-.172-.073-.288-.104a4.864 4.864 0 0 0-.448-.092 1.457 1.457 0 0 0-.594.056c-.2.059-.392.147-.52.267-.134.128-.267.35-.414.496a1.074 1.074 0 0 1-.206.163.437.437 0 0 1-.477-.005c-.08-.049-.201-.209-.261-.292-.038-.013-.096-.032-.127-.045-.325-.137-.609-.277-.918-.339a1.485 1.485 0 0 0-.562-.008 1.479 1.479 0 0 0-.373.126.807.807 0 0 0-.277.188l-.246.383c-.016.04-.054.136-.075.169a.376.376 0 0 1-.166.149.365.365 0 0 1-.303-.007c-.045-.021-.15-.084-.164-.091l-.556-.341-.422.041c-.263.026-.535.045-.789.117a1.253 1.253 0 0 0-.409.191c-.089.067-.21.173-.305.292-.048.061-.1.12-.117.18l.198.237c.187.222.026.45.001.472a.366.366 0 0 1-.147.08c-.074.02-.241.019-.287.023l-.778.05a1.795 1.795 0 0 0-.41.136c-.221.102-.428.23-.653.348l-.521.268c-.019.014-.03.063-.044.113.043-.01.086-.019.129-.026l.007-.002c.129-.038.257-.079.385-.079.139.001.196.069.211.084.115.113.134.239.031.378-.015.02-.056.077-.15.107-.022.007-.106.023-.139.032l-.247.049-.01.002a1.149 1.149 0 0 1-.216.055l-.009.003c-.128.041-.253.093-.381.143-.334.131-.747.338-1.012.636-.139.157-.234.341-.223.557.039-.019.091.065.13.076.256.076.529.044.785.076.086.011.171.027.254.052a.41.41 0 0 0 .203-.002c.105-.021.209-.058.315-.089.068-.019.163-.066.251-.085a.524.524 0 0 1 .253.006c.069.02.159.071.208.196a1.1 1.1 0 0 1 .034.176c.022.054.04.103.065.148a.173.173 0 0 0 .056.059l.312.06c.268.066.623.1.955.054.222-.03.437-.095.589-.229a.313.313 0 0 1 .021-.041c.017-.027.118-.142.155-.171a.334.334 0 0 1 .466.037.313.313 0 0 1 .076.278l-.005.023c.293-.014.592-.055.883-.123.349-.082.687-.202.995-.36.34-.174.695-.331 1.036-.509.118-.062.235-.126.348-.195.078-.087.163-.162.229-.214.007-.005.107-.087.149-.115a.399.399 0 0 1 .487.023.39.39 0 0 1 .022.563c.301-.042.569-.142.819-.274.474-.251.884-.618 1.314-.968.129-.104.326-.2.496-.313.044-.029.09-.053.111-.092l-.136.258.147-.278s.172.438.387.587l.547-.355 1.77-.953.026-.017.01-.049a.5.5 0 0 1 .461-.371Zm-2.621 1.783a.752.752 0 0 0-.137-.007.186.186 0 0 0 .137.007Zm-9.704 7.964a.494.494 0 0 0 .134.368.64.64 0 0 0-.137.335.48.48 0 0 0 .245.483l.004.002a1.8 1.8 0 0 0-.16.232.815.815 0 0 0-.101.292.51.51 0 0 0 .262.539c.047.027.096.05.148.068a.442.442 0 0 0 .131.279.637.637 0 0 0-.064.181c-.032.228.052.403.245.509.051.028.105.05.16.065.013.2.126.316.28.371.141.05.309.046.485-.028-.03.114-.054.23-.073.349-.006.039-.041.234-.045.392a.825.825 0 0 0 .04.295.439.439 0 0 0 .169.219l-.016.052c-.024.074-.084.222-.089.294a.416.416 0 0 0 .015.15c-.169.268-.193.543-.106.754a.498.498 0 0 0 .285.284.34.34 0 0 0 .059.073.69.69 0 0 0-.003.207.411.411 0 0 0 .24.318.535.535 0 0 0 .18.048c-.003.031-.004.061-.003.09a.53.53 0 0 0 .123.348c.163.18.361.217.576.148a.836.836 0 0 0 .174-.084c-.006.112-.007.287.024.358a.345.345 0 0 0 .125.158.715.715 0 0 0-.034.125.412.412 0 0 0 .057.295.346.346 0 0 0 .371.156v.006c.006.089.034.16.065.206a.371.371 0 0 0 .318.176.504.504 0 0 0 .253-.069c.109-.061.219-.17.253-.204l.308-.336a.283.283 0 0 0 .117.156.296.296 0 0 0 .184.06.476.476 0 0 0 .03.202c.041.097.11.158.199.188a.491.491 0 0 0 .237.018.384.384 0 0 0-.001.122.314.314 0 0 0 .151.217c.127.075.282.077.44-.001.113-.056.231-.163.31-.242a.456.456 0 0 0 .025.118.368.368 0 0 0 .227.23.43.43 0 0 0 .382-.054c.124-.079.242-.242.288-.3.123-.155.24-.314.354-.475l.058-.082c-.016.155-.023.355.02.476a.409.409 0 0 0 .188.23c.097.054.233.082.412-.017.133-.074.255-.179.367-.306a.359.359 0 0 0 .2.163c.198.068.411.012.604-.148.221-.182.421-.521.518-.689l.004.004c.077.068.172.1.291.075.177-.037.359-.147.529-.305.203-.188.393-.446.547-.651-.001.087.001.276.027.337a.322.322 0 0 0 .208.191.312.312 0 0 0 .268-.035c.198-.12.365-.327.497-.581.225-.431.357-1.011.491-1.348l.141-.304.186-.292c.077-.163.018-.265.008-.287a.362.362 0 0 0-.088-.102l.062-.222c.013-.05.12-.325.144-.496a.49.49 0 0 0-.088-.379.512.512 0 0 0-.092-.083l.005-.039a.538.538 0 0 0-.144-.452c-.125-.127-.306-.184-.525-.15-.131.02-.286.083-.434.158a.568.568 0 0 0-.447-.138 1.14 1.14 0 0 0-.285.071.56.56 0 0 0-.407-.233l-.008-.041c-.046-.185-.197-.421-.668-.359a2.283 2.283 0 0 0-.691.213.57.57 0 0 0-.176-.059 1.513 1.513 0 0 0-.788.096c-.079.03-.159.065-.237.105a.584.584 0 0 0-.379-.174 1.389 1.389 0 0 0-.499.076 4.57 4.57 0 0 0-.603.272 1.482 1.482 0 0 0-.751.124 2.47 2.47 0 0 0-.203.096.46.46 0 0 0-.13-.09.785.785 0 0 0-.45-.064c-.207.027-.436.137-.577.209a4.006 4.006 0 0 0-.67.431c-.101.08-.198.164-.291.251a1.13 1.13 0 0 0-.151.06c-.185.09-.365.248-.487.356l-.07.071a.654.654 0 0 0-.26-.097c.095-.205.188-.412.268-.626.073-.197-.015-.306-.027-.327a.515.515 0 0 0-.219-.149l.024-.065c.022-.053.077-.112.112-.17a.681.681 0 0 0 .089-.247.45.45 0 0 0-.151-.41.391.391 0 0 0-.198-.103l.048-.136c.049-.146.011-.237-.004-.275a.363.363 0 0 0-.235-.236l.003-.004a.415.415 0 0 0 .024-.391.417.417 0 0 0-.285-.249.575.575 0 0 0-.228-.021v-.317a1.122 1.122 0 0 0-.366.071l.014-.007.387-.184c.054-.026.185-.094.212-.117a.449.449 0 0 0 .168-.299.443.443 0 0 0-.109-.364c-.037-.043-.129-.159-.336-.162a.521.521 0 0 0-.025-.24c-.037-.115-.143-.345-.479-.328a.4.4 0 0 0-.078.01.511.511 0 0 0-.062-.186c.141-.28-.009-.466-.077-.543a.474.474 0 0 0-.456-.167 1.585 1.585 0 0 0-.278.121l-.243.159c-.096.072-.459.357-.592.584-.132.225-.129.443-.05.611a.558.558 0 0 0 .132.182Zm9.712 3.989c-.121.131-.28.257-.45.34a.947.947 0 0 1-.614.09.377.377 0 0 1-.307-.284 3.13 3.13 0 0 1-.258.27 4.086 4.086 0 0 1-.419.339c-.072.051-.203.153-.327.204a.602.602 0 0 1-.367.036c-.228-.056-.298-.2-.317-.335a6.29 6.29 0 0 1-.514.286c-.032.016-.266.141-.423.169a.552.552 0 0 1-.355-.049 2.577 2.577 0 0 1-.26.217c-.22.158-.449.246-.646.246-.082.075-.16.134-.217.164a.857.857 0 0 1-.307.084.639.639 0 0 1-.319-.055l-.011-.006-.037.039a1.052 1.052 0 0 1-.035.15l-.154.31c-.051.082-.144.24-.26.399-.04.103-.074.205-.105.302.152-.16.28-.346.324-.404l.167-.229c.019-.023.051-.079.07-.102a.346.346 0 0 1 .147-.099.313.313 0 0 1 .286.036.308.308 0 0 1 .147.233c.008.051.01.104.007.159.217-.22.472.028.5.081.005.011.032.049.038.111a.33.33 0 0 1 .136.067c.065.052.136.14.116.287-.005.037-.079.183-.109.243l-.116.226a8.783 8.783 0 0 0-.237.542c.087-.1.173-.202.263-.301.092-.101.188-.2.29-.293.018-.016.309-.268.436-.322.179-.075.307-.01.379.068a.339.339 0 0 1 .184-.065c.124-.004.27.034.322.257.023.1.011.198-.03.293-.038.085-.115.167-.164.247-.05.083-.104.168-.155.254.048-.048.088-.089.118-.115l.25-.229-.013.014s.143-.142.172-.154a.279.279 0 0 1 .282.033.254.254 0 0 1 .04.032l.023-.044.101-.212c.022-.047.052-.158.076-.205a.345.345 0 0 1 .094-.117.28.28 0 0 1 .278-.047c.055.019.147.06.192.201a.434.434 0 0 1 .014.188c-.015.115-.087.273-.096.298-.08.222-.167.445-.245.67l.071-.099c.166-.235.326-.474.489-.711l.345-.49c.005-.007.135-.142.19-.191.259-.235.5.132.504.176a.912.912 0 0 1-.036.312c-.047.166-.137.343-.18.474l-.182.608-.002.01c.035-.045.069-.093.101-.143.187-.285.331-.624.453-.866.003-.006.124-.328.208-.438a.375.375 0 0 1 .184-.136.29.29 0 0 1 .29.056.31.31 0 0 1 .109.189.858.858 0 0 1-.02.222l-.079.269c-.056.181-.129.364-.193.547.07-.108.125-.211.158-.268l.208-.377.145-.308c.009-.019.072-.234.144-.346a.423.423 0 0 1 .226-.183.31.31 0 0 1 .3.055c.053.042.1.105.118.198.012.057-.011.185-.015.251-.001.019-.011.08-.025.159.172-.206.324-.433.437-.572l.319-.413c.004-.005.09-.097.168-.156a.48.48 0 0 1 .196-.09.335.335 0 0 1 .2.021l.01-.027c.017-.04.087-.177.119-.23l.03-.045c.055-.11.104-.224.149-.339.066-.169.124-.342.176-.516a.3.3 0 0 1-.06.046.368.368 0 0 1-.25.042.347.347 0 0 1-.257-.189.36.36 0 0 1-.007-.331c.042-.093.228-.286.24-.298.024-.026.089-.095.173-.175l.012-.022.043-.083.035-.069a3.152 3.152 0 0 0-.285.172 1.06 1.06 0 0 1-.045.071c-.118.17-.28.305-.411.354a.481.481 0 0 1-.309.016.335.335 0 0 1-.215-.185.356.356 0 0 1-.037-.128.926.926 0 0 1-.226.165.539.539 0 0 1-.418.035c-.224-.082-.256-.238-.244-.37a.891.891 0 0 1-.151.07c-.286.085-.433-.093-.482-.224a.189.189 0 0 1-.006-.018Z"/><path d="M2.596 11.154c.08-.057.272-.021.364-.021.258 0 .557-.007.815-.046 1.041-.156 2.1-.111 3.158-.134.441-.009 1.12.111 1.546-.042" style="fill:#fff;fill-opacity:.45"/><path d="M2.75 11.63c.036.037.162-.029.21-.034.164-.015.341-.033.516-.06.123-.019.243-.038.356-.066a7.997 7.997 0 0 1 1.525-.207c.209-.008.419-.01.629-.004.318.008.635.035.954.048.309.021.723.11 1.099.131.221.013.427-.012.609-.056a.5.5 0 0 0-.337-.942 1.327 1.327 0 0 1-.444.112c-.329.03-.678.018-.942.047-.315.026-.628.056-.943.067-.298.01-.596.011-.894.01-.459-.001-.914-.01-1.371.028a3.51 3.51 0 0 1-.369-.003c-.134-.006-.265-.019-.388-.031-.093-.009-.261-.036-.383-.026-.11.008-.196.06-.273.105a.498.498 0 0 0 .446.881Z"/><path d="M8.834 10.101h-.001a.493.493 0 0 0-.347.141c-.047-.008-.117.124-.145.161l-.183.326a2.185 2.185 0 0 0-.183.554 2.68 2.68 0 0 0-.043.55 3.35 3.35 0 0 0 .37 1.458c.22.43.528.82.912 1.149a5.226 5.226 0 0 0 2.393 1.176 5.36 5.36 0 0 0 2.636-.139c.444-.134.848-.301 1.19-.561.234-.179.441-.401.609-.687.137-.231.221-.492.27-.763.068-.379.063-.779.026-1.14a4.516 4.516 0 0 0-.594-1.874c-.348-.585-.85-1.065-1.517-1.342a3.75 3.75 0 0 0-1.245-.265c-.602-.036-1.222.034-1.795.101a3.224 3.224 0 0 0-.978.272c-.42.19-.784.462-1.198.772-.03.022-.097.062-.177.111Zm.168 1.118c-.041.083-.074.17-.095.261a1.694 1.694 0 0 0-.048.353c-.01.382.065.748.217 1.084.156.344.384.659.671.929.584.548 1.271.92 2.008 1.096a4.65 4.65 0 0 0 2.317-.053c.312-.087.605-.189.861-.345.24-.146.447-.34.609-.612.128-.215.193-.466.221-.723.03-.277.016-.561-.014-.82a3.833 3.833 0 0 0-.55-1.6 2.491 2.491 0 0 0-1.232-1.019 3.026 3.026 0 0 0-1.012-.166c-.556-.007-1.124.091-1.65.178a2.373 2.373 0 0 0-.71.237c-.352.182-.647.438-.989.723-.063.053-.339.401-.456.337a.495.495 0 0 1-.148.14Z"/><path d="M15.224 10.781c-.085-.015.219-.172.251-.184a2.69 2.69 0 0 1 .601-.164 4.43 4.43 0 0 1 1.249.017c.132.023.239.039.363.088.031.012.191.091.191.067" style="fill:#fff;fill-opacity:.45"/><path d="M15.692 10.958a1.655 1.655 0 0 1 .428-.203c.09-.022.184-.047.284-.057.096-.01.196-.014.294-.006.2.016.388.078.562.133.059.022.108.043.159.066.037.016.063.045.101.069.033.023.18.106.24.133.1.045.184 0 .239-.001.076-.002.121-.059.175-.083.03-.012.044-.044.07-.061.103-.07.101-.2.135-.343a.5.5 0 0 0-.559-.496c-.06-.013-.114-.026-.172-.028-.085-.004-.164-.008-.259-.006l-1.356.037c-.097-.001-.192.011-.29.02a4.08 4.08 0 0 0-.422.065 3.279 3.279 0 0 0-.336.128c-.087.037-.13.107-.167.14-.102.091-.085.212-.104.293-.009.039.009.074.009.112-.001.141.116.23.265.352.034.027.089.027.148.051a.5.5 0 0 0 .556-.315Zm-.042.026-.02.012c.002-.001.01-.005.014 0l.001.002.005-.014Zm1.734-.45a.142.142 0 0 0-.005.071c0-.024.002-.048.005-.071Zm.087-.218a.235.235 0 0 0-.074.154.499.499 0 0 1 .074-.154Zm-1.954.06-.02-.014a.207.207 0 0 1 .037.027l-.017-.013Zm-.116-.062a.166.166 0 0 0-.089-.025.434.434 0 0 1 .089.025Z"/><path d="m17.01 10.254-.011.007c-.173.142-.283.384-.399.565a2.526 2.526 0 0 0-.395 1.364c-.001.477.118.955.362 1.348.567.92 1.562 1.505 2.644 1.709 1.061.2 2.197.044 3.051-.506.214-.137.399-.306.565-.494.229-.258.423-.551.62-.828.109-.151.305-.257.443-.396a.892.892 0 0 0 .216-.341c.076-.226.082-.479.048-.736-.044-.33-.157-.667-.251-.94-.07-.205-.122-.435-.204-.646a1.7 1.7 0 0 0-.158-.313 5.01 5.01 0 0 0-.526-.696 2.069 2.069 0 0 0-.509-.404c-.43-.238-.909-.295-1.397-.256-.647.052-1.311.29-1.871.478-.28.094-.567.208-.85.335a8.628 8.628 0 0 0-.819.422c-.048.029-.319.133-.417.197a.534.534 0 0 0-.142.131Zm.611.815c.026.088-.17.21-.233.297a1.597 1.597 0 0 0-.295.849c-.018.316.041.638.188.906.42.76 1.209 1.254 2.071 1.452.89.205 1.857.103 2.594-.34.168-.103.313-.233.444-.378.218-.24.4-.515.588-.773.123-.174.339-.303.494-.465a.293.293 0 0 0 .076-.115c.045-.145.039-.307.013-.47-.046-.288-.158-.578-.247-.814-.064-.169-.114-.358-.183-.537a1.194 1.194 0 0 0-.135-.264 4.235 4.235 0 0 0-.475-.582 1.352 1.352 0 0 0-.345-.255c-.309-.152-.647-.165-.986-.121-.578.076-1.159.332-1.652.528a8.185 8.185 0 0 0-.749.344 7.52 7.52 0 0 0-.703.416c-.021.014-.098.085-.177.141a.498.498 0 0 1-.288.181Z"/></svg>