<svg viewBox="0 0 25 25" xmlns="http://www.w3.org/2000/svg" xml:space="preserve" style="fill-rule:evenodd;clip-rule:evenodd;stroke-linejoin:round;stroke-miterlimit:2"><path d="M1.954 14.765c.056.261.174.666.343.954.168.289.428.536.67.779.245.248.548.46.805.708.275.264.606.566.844.877.232.305.453.63.583.99.131.361.132.786.201 1.178.072.407.128.859.233 1.264.102.398.212.907.394 1.169.153.221.486.238.699.403.293.225.713.775 1.057.948.301.152.672.048 1.007.089.569.071 1.73.349 2.408.335.569-.011 1.218-.264 1.655-.418.342-.121.666-.299.965-.506.307-.212.597-.497.877-.766.315-.301.724-.687 1.011-1.043.273-.338.518-.788.712-1.092.154-.243.37-.532.451-.734.06-.15.056-.366.035-.483-.015-.089-.248-.201-.159-.218.11-.021.546.083.821.09.348.01.848.029 1.266-.031.432-.063.968-.184 1.328-.343.313-.139.633-.34.827-.612.195-.272.294-.664.341-1.019.069-.516.053-1.493.073-2.077.017-.476.122-.957.049-1.428-.083-.538-.355-1.205-.551-1.802-.295-.89-.927-2.767-1.213-3.542-.141-.382-.217-.823-.504-1.11-.396-.396-1.309-.944-1.867-1.267a7.718 7.718 0 0 0-1.48-.667c-.593-.191-1.394-.402-2.078-.48-.673-.077-1.356-.048-2.03.012-.8.071-1.87.162-2.769.413-.914.256-1.932.688-2.717 1.121-.725.401-1.493 1.04-1.994 1.481-.387.34-.784.824-1.015 1.165-.18.265-.262.583-.375.882-.114.305-.25.62-.313.947-.08.415-.075 1.033-.167 1.541-.098.537-.346 1.298-.416 1.68-.037.2-.05.413-.007.612Z" style="fill:#fff"/><path d="m17.235 19.561.323.04c.219.005.496.013.777.004.184-.006.369-.019.54-.044.264-.039.564-.099.844-.176.206-.057.401-.122.562-.195.209-.093.419-.211.601-.355.133-.106.252-.226.347-.359a1.87 1.87 0 0 0 .231-.46c.079-.222.13-.465.16-.693a7.41 7.41 0 0 0 .046-.651c.017-.489.013-1.061.026-1.455.011-.334.066-.67.072-1.003a2.646 2.646 0 0 0-.028-.479 4.613 4.613 0 0 0-.138-.588c-.12-.411-.289-.853-.423-1.261l-1.204-3.557c-.1-.276-.171-.582-.303-.844a1.482 1.482 0 0 0-.267-.38 5.42 5.42 0 0 0-.756-.596c-.396-.27-.842-.538-1.169-.729a8.57 8.57 0 0 0-.748-.392 7.557 7.557 0 0 0-.791-.313c-.309-.102-.675-.21-1.051-.302a9.405 9.405 0 0 0-1.09-.206 8.146 8.146 0 0 0-1.06-.054 14.45 14.45 0 0 0-1.041.051c-.497.04-1.096.088-1.696.175-.39.056-.78.13-1.144.229a12.72 12.72 0 0 0-1.437.491c-.489.197-.962.419-1.374.642a8.29 8.29 0 0 0-.883.561c-.454.324-.878.677-1.198.953a7.339 7.339 0 0 0-1.099 1.239c-.069.1-.126.206-.178.316-.098.211-.168.438-.252.656-.073.187-.153.379-.22.576-.05.145-.093.293-.123.442l-.183 1.544-.433 1.675c-.024.125-.04.255-.044.384-.005.142.006.285.034.423.04.18.107.421.198.655.061.156.131.309.21.442.085.141.185.275.297.402.143.163.302.316.455.468l.821.708c.163.153.345.319.516.493.103.106.203.214.289.324.108.139.214.281.307.431.086.138.163.281.22.433.032.087.055.178.072.272.051.271.069.558.12.829.053.286.098.594.158.892.027.137.057.272.092.403.073.276.151.603.251.871.063.168.134.316.214.429a.908.908 0 0 0 .218.215c.095.066.205.116.319.161.088.034.182.058.255.113.194.147.445.442.693.665.148.135.297.247.434.314.137.068.283.104.434.117.229.02.475-.023.704.003.394.046 1.073.189 1.678.266.288.036.561.058.785.052.246-.007.505-.052.758-.117.372-.096.732-.234 1.008-.334.188-.067.37-.15.547-.245.172-.093.339-.197.499-.309.134-.095.266-.202.395-.316.178-.157.35-.327.519-.492.191-.185.416-.401.628-.623.146-.152.286-.307.406-.457.111-.14.219-.297.32-.457.151-.238.288-.482.407-.67.102-.163.232-.347.331-.512.06-.1.111-.195.143-.278a.995.995 0 0 0 .063-.276c.006-.061.008-.123.006-.181Zm-.636-.023c.001.032.001.068-.001.104a.476.476 0 0 1-.026.139 1.323 1.323 0 0 1-.098.18c-.099.161-.228.34-.33.498-.12.187-.26.428-.413.664a4.8 4.8 0 0 1-.283.395c-.11.134-.238.272-.371.408-.208.212-.43.419-.618.597-.163.155-.33.315-.502.463-.11.095-.222.184-.337.262a4.51 4.51 0 0 1-.433.26 3.295 3.295 0 0 1-.453.196c-.26.09-.598.216-.948.301a2.775 2.775 0 0 1-.596.086 4.68 4.68 0 0 1-.67-.058c-.606-.088-1.287-.243-1.683-.295-.209-.028-.434-.004-.648-.012a.535.535 0 0 1-.228-.046 1.226 1.226 0 0 1-.249-.194c-.261-.245-.53-.562-.736-.724a1.223 1.223 0 0 0-.212-.129c-.084-.042-.175-.075-.262-.112-.05-.021-.104-.032-.134-.075a1.375 1.375 0 0 1-.143-.342c-.07-.224-.125-.477-.179-.695a6.252 6.252 0 0 1-.095-.472c-.044-.258-.079-.518-.12-.763-.046-.272-.059-.56-.104-.832a2.659 2.659 0 0 0-.106-.422 3.205 3.205 0 0 0-.224-.488 5.584 5.584 0 0 0-.416-.627 4.866 4.866 0 0 0-.351-.41c-.176-.186-.364-.365-.531-.529l-.791-.707c-.135-.138-.275-.276-.4-.424a1.809 1.809 0 0 1-.188-.263 2.192 2.192 0 0 1-.161-.379 3.568 3.568 0 0 1-.116-.433.793.793 0 0 1-.019-.189c.001-.077.009-.154.022-.229l.399-1.684.152-1.539c.021-.11.051-.22.086-.328.06-.186.133-.368.198-.547.064-.175.117-.357.187-.53.036-.091.077-.18.131-.261.112-.168.265-.373.437-.576a5.53 5.53 0 0 1 .495-.516c.298-.268.695-.61 1.12-.926.257-.191.525-.373.787-.521a12.985 12.985 0 0 1 2.623-1.109 9.091 9.091 0 0 1 1.051-.227c.582-.094 1.164-.149 1.647-.195.328-.032.658-.057.988-.064.324-.007.649.001.97.036.323.035.672.1 1.011.178.36.083.709.181 1.006.275.246.077.488.17.724.275.238.106.471.225.697.354.317.181.752.436 1.138.694.268.179.512.357.669.513.089.088.15.198.2.314.095.219.156.461.238.682.122.325.307.845.501 1.404.266.769.55 1.611.721 2.125.115.345.254.714.367 1.067.077.242.143.475.176.688.019.125.024.251.021.377-.008.331-.064.665-.076.996-.014.393-.012.965-.03 1.454a7.053 7.053 0 0 1-.043.594 3.084 3.084 0 0 1-.103.483 1.41 1.41 0 0 1-.188.403c-.08.11-.187.205-.304.287a2.38 2.38 0 0 1-.404.222c-.17.074-.383.139-.604.192a6.671 6.671 0 0 1-.646.122c-.15.021-.31.031-.47.035-.268.006-.534-.004-.743-.011-.224-.007-.556-.081-.725-.094a.638.638 0 0 0-.165.005.317.317 0 0 0-.227.153.314.314 0 0 0-.041.242.345.345 0 0 0 .072.148c.017.022.073.073.11.106Z"/><path d="M1.732 13.254a.501.501 0 0 0-.118.634c.096.108.166.231.311.238.049.002.1.03.158.014.047-.013.188.009.292-.12l.085-.107s-.031.017-.038.024l.18-.205c.086-.069.187-.168.314-.224.081-.036.163-.082.238-.057a.82.82 0 0 1 .291.244c.081.11.112.245.153.381.021.082.044.251.071.366.023.098.079.159.105.205.033.06.092.078.127.111.096.089.216.06.316.07.128.013.224-.088.36-.211.031-.028.038-.078.07-.128a.5.5 0 0 0-.119-.527c-.052-.08-.177-.179-.213-.227a2.542 2.542 0 0 0-.398-.467c-.154-.138-.315-.27-.523-.351-.159-.088-.351-.088-.55-.071-.234.019-.47.102-.648.168l-.324.154c-.022.01-.148.044-.14.086Zm1.997.843a.114.114 0 0 0-.022.05l.022-.05Zm-1.283-.76a.565.565 0 0 1 .038.057.159.159 0 0 0-.038-.057Zm-.184-.148a.509.509 0 0 1 .143.101.256.256 0 0 0-.143-.101Zm-.226-.048-.022.001-.023.002c.015-.003.03-.005.045-.003Z"/><path d="M3.037 15.538c.022.046.082.069.098.121.024.073.118.054.172.114.015.016.041.003.059.019.033.028.079-.008.124.014.047.023.091-.04.169-.032.03.003.045-.042.093-.047.015-.002.025-.052.117-.086a.501.501 0 0 0-.003-.682.44.44 0 0 0-.122-.155c-.09-.071-.161-.158-.267-.188-.165-.119-.306-.11-.434-.113-.13-.003-.231.062-.407.135-.005.002-.01-.01-.018-.008-.032.009-.056.031-.091.042-.047.016-.061.06-.101.08-.082.044-.064.14-.112.2-.056.07.008.148-.012.233-.005.023.018.038.015.062-.002.028.027.043.028.072.002.047.057.064.073.116a.5.5 0 0 0 .619.103Zm.921-.265c-.003.018-.011.037-.007.057a.519.519 0 0 1 .007.07c.01-.026.022-.046.014-.064a.15.15 0 0 1-.014-.063Zm-.005-.11c-.001.026-.006.054.003.082l.002.008c.001-.035.007-.066-.005-.09Zm-.797-.047c.009.011.02.022.027.016.004-.003.004.005.006.011a.022.022 0 0 0-.006-.02c-.007-.004-.018-.005-.027-.007Zm-.019-.157c-.001 0-.002.001-.002.003l.002-.003Zm.051-.16c-.004-.012-.01-.023-.023-.029l.023.029Zm8.564 5.349a.5.5 0 0 0-.466.27 5.86 5.86 0 0 0-.109.077c-.126.072-.292.183-.369.321a.49.49 0 0 0-.052.347.53.53 0 0 0 .13.27c.088.111.216.139.355.155.304.034.755-.299.883-.44a.524.524 0 0 0 .118-.197.5.5 0 0 0 .568-.82c-.223-.117-.455-.191-.719-.116a2.015 2.015 0 0 0-.339.133Zm-.191.969a.053.053 0 0 0 .022.008l-.022-.008Zm.627-.203-.003-.002.003.002ZM5.827 9.264c.133.095.231.381.298.52.201.423.352.864.493 1.31.055.175.269.401.207.593-.073.222-.35.195-.518.119-.015-.006-.221-.111-.228-.091-.074.205.046.61.046.832 0 .114.041.263-.074.327-.624.352-1.409-.061-2.079.035-.235.034-.487.006-.718.047-.52.094-1.046.52-1.519.044-.085-.085-.189-.169-.266-.261-.054-.065-.062-.16-.091-.236-.264-.712.233-1.056.417-1.683.071-.243.028-.641.227-.822.042-.038-.149-.186-.168-.211a.59.59 0 0 1-.101-.463c.052-.322.185-.36.413-.529.057-.043.153-.191.22-.211.287-.086.693-.002.973.06a6.86 6.86 0 0 0 1.467.179c.281 0 .636-.006.9.114.11.049.339.21.129.261"/><path d="M1.614 10.025a1.15 1.15 0 0 0-.034.104c-.052.195-.043.435-.089.603-.128.466-.418.787-.472 1.2-.026.2-.01.418.086.672.022.056.033.122.058.18a.534.534 0 0 0 .083.14l.284.28a.966.966 0 0 0 .596.303c.38.046.785-.185 1.182-.253l.708-.035c.454-.056.956.134 1.427.143.273.004.536-.044.784-.175a.493.493 0 0 0 .231-.271c.042-.108.031-.251.033-.369a1.997 1.997 0 0 0-.021-.288.87.87 0 0 0 .303-.02.628.628 0 0 0 .447-.424.66.66 0 0 0 .024-.328c-.026-.177-.168-.371-.212-.524a14.722 14.722 0 0 0-.257-.829 7.522 7.522 0 0 0-.217-.556c-.035-.081-.081-.204-.135-.321a.489.489 0 0 0 .008-.202.59.59 0 0 0-.133-.293 1.162 1.162 0 0 0-.373-.268 1.73 1.73 0 0 0-.492-.118 4.968 4.968 0 0 0-.607-.008 5.192 5.192 0 0 1-.683-.023 8.153 8.153 0 0 1-.696-.1 4.306 4.306 0 0 0-.648-.084 1.556 1.556 0 0 0-.521.059.525.525 0 0 0-.193.113c-.053.049-.157.177-.157.177l.016-.013c-.181.143-.308.224-.397.364a.962.962 0 0 0-.142.406c-.018.126-.016.251.011.369.029.128.081.25.167.357a.258.258 0 0 0 .031.032Zm3.716-.709c-.029-.005-.058-.01-.088-.013-.143-.017-.288-.021-.416-.025a6.221 6.221 0 0 1-.794-.077 8.618 8.618 0 0 1-.76-.159c-.127-.032-.282-.072-.438-.093a1.108 1.108 0 0 0-.285-.012 1.711 1.711 0 0 1-.162.155c-.104.074-.191.097-.245.171a.302.302 0 0 0-.042.118.326.326 0 0 0-.005.116.207.207 0 0 0 .028.08c.054.058.199.221.22.287.052.165.007.292-.096.382-.034.029-.042.077-.053.125-.041.183-.049.389-.096.538-.12.384-.355.659-.462.981a.744.744 0 0 0 .015.512c.016.045.042.137.047.158l.243.236a.41.41 0 0 0 .353.13c.297-.029.601-.209.907-.268l.726-.059c.477-.078 1.016.09 1.513.077a.951.951 0 0 0 .322-.059c-.002-.026-.004-.052-.004-.07-.005-.173-.085-.455-.089-.67a.863.863 0 0 1 .043-.296.4.4 0 0 1 .498-.242.46.46 0 0 1 .05.016.99.99 0 0 1-.056-.129 15.197 15.197 0 0 0-.239-.638 7.148 7.148 0 0 0-.274-.598c-.045-.086-.264-.26-.187-.344a.501.501 0 0 1-.174-.33Zm.362-.591.044-.013a.388.388 0 0 0-.044.013Z"/><path d="M16.618 5.644c-.216-.048-.503.279-.682.382-.582.333-1.199.601-1.785.932-.177.1-.349.207-.515.325-.044.031-.156.115-.217.088-.158-.071-.232-.43-.185-.577.017-.055.05-.105.08-.154l.049-.085c-.129.235-.521.368-.724.529-.755.6-1.462 1.239-2.486 1.314-.157.011-.55.116-.63-.063-.086-.194.165-.414.294-.517.007-.005.138-.116.144-.11.038.035-.333.294-.357.309-.469.285-.987.495-1.477.74a5.074 5.074 0 0 1-2.216.504c-.079 0-.232-.063-.238-.154-.003-.042-.016-.142.007-.18.013-.02.121-.138.077-.072-.392.587-1.395.572-2.002.419-.133-.034-.292-.028-.41-.107-.149-.101-.178-.222-.245-.379-.01-.023-.009-.157-.031-.163-.1-.03-.242.053-.333.078-.231.066-.456.156-.689.085-.326-.098-.696-.03-1.036-.132C.885 8.619.69 8.519.675 8.36c-.079-.781.793-1.284 1.421-1.528.222-.086.436-.177.672-.217.075-.013.147-.025.22-.044.041-.011.165-.032.123-.032-.245 0-.487.18-.749.126-.334-.069-.026-.564.094-.655.169-.128.375-.198.56-.296.382-.202.709-.432 1.141-.52.272-.055.536-.033.809-.06.043-.004.222.005.255-.025.013-.011-.3-.319-.308-.397-.029-.294.332-.647.546-.81.388-.293.887-.333 1.355-.384.152-.017.41-.082.564-.031.222.072.396.252.602.352.016.008.164.097.175.092.021-.01.058-.136.07-.158.08-.15.174-.309.28-.444.17-.217.586-.402.861-.454.649-.121 1.111.115 1.69.35.076.031.18.045.242.101.048.043.172.326.28.261.201-.119.37-.443.543-.611.331-.321.985-.515 1.449-.45.237.033.778.131.955.28.23.194.508.579.777.699.085.038.404-.211.49-.248.314-.137.815-.051 1.036.22.447.546.208 1.207-.108 1.749-.158.27-.217.515-.508.437"/><path d="M11.555 3.039a.69.69 0 0 0-.169-.106c-.06-.025-.13-.04-.186-.062-.378-.148-.71-.295-1.067-.359a2.191 2.191 0 0 0-.834.007c-.193.038-.446.13-.662.255-.17.098-.317.216-.41.338l-.217.349c-.09-.057-.176-.123-.268-.177a1.3 1.3 0 0 0-.26-.119.838.838 0 0 0-.283-.033c-.146.006-.31.042-.421.055-.299.036-.61.068-.899.155a1.864 1.864 0 0 0-.613.305 2.3 2.3 0 0 0-.49.512c-.127.192-.195.399-.175.585.003.026.01.061.026.101a5.383 5.383 0 0 0-.252.013 2.239 2.239 0 0 0-.82.226c-.229.109-.443.243-.677.368-.13.07-.271.126-.402.198a1.566 1.566 0 0 0-.197.126c-.124.095-.374.481-.358.743a.49.49 0 0 0 .008.067c-.398.161-.868.416-1.177.763-.258.288-.41.636-.371 1.04.013.135.08.254.181.349a.975.975 0 0 0 .363.203c.082.025.166.042.25.054.264.037.538.007.784.083a.965.965 0 0 0 .405.031c.152-.018.303-.068.456-.111a.299.299 0 0 0 .029-.009c.034.082.065.155.108.221a.752.752 0 0 0 .418.309c.099.029.208.035.303.06.401.104.959.152 1.439.041.149-.035.291-.085.42-.152a.731.731 0 0 0 .374.129c.399.004.811-.038 1.212-.124a5.12 5.12 0 0 0 1.164-.396c.317-.155.645-.295.964-.45a.565.565 0 0 0 .244.161c.194.069.531.016.688.006a3.2 3.2 0 0 0 1.249-.349c.326-.163.627-.372.923-.597-.018-.143.102-.497.454-1.184-.049.152-.043.432.039.663.013.036.028.071.044.104l-.345.27-.18.138-.012.009c.026.196.312-.005.619-.284a.876.876 0 0 1-.082-.133l.014-.01c.137-.107.361-.198.53-.318l.017-.013c-.14.147-.312.322-.479.474a.7.7 0 0 0 .26.22.531.531 0 0 0 .315.036c.123-.021.282-.118.351-.166l.479-.292 1.8-.911c.119-.067.495-.154.465-.307a.5.5 0 0 0 .463-.606l.036-.066c.227-.401.409-.858.405-1.299a1.512 1.512 0 0 0-.36-.99 1.31 1.31 0 0 0-.755-.418 1.421 1.421 0 0 0-.82.079c-.039.017-.17.098-.269.161a2.058 2.058 0 0 1-.069-.065c-.167-.159-.329-.345-.472-.463a1.287 1.287 0 0 0-.413-.206 4.767 4.767 0 0 0-.763-.159 2.292 2.292 0 0 0-.947.103c-.328.104-.632.272-.837.475l-.288.349Zm4.634 2.125c.033-.058.075-.131.108-.185.129-.215.252-.451.29-.691a.628.628 0 0 0-.118-.517c-.048-.06-.13-.091-.214-.109a.5.5 0 0 0-.283.008c-.083.034-.36.227-.499.263a.517.517 0 0 1-.351-.023 1.467 1.467 0 0 1-.371-.258c-.179-.165-.352-.385-.504-.517-.054-.047-.172-.073-.288-.103a4.48 4.48 0 0 0-.447-.092 1.438 1.438 0 0 0-.594.056c-.2.058-.393.146-.52.266-.135.128-.267.35-.415.496a.989.989 0 0 1-.206.164.437.437 0 0 1-.476-.006c-.08-.049-.201-.209-.261-.292a1.843 1.843 0 0 1-.127-.045c-.326-.136-.609-.276-.918-.339a1.49 1.49 0 0 0-.563-.008 1.534 1.534 0 0 0-.373.126.826.826 0 0 0-.276.188l-.247.384a1.607 1.607 0 0 1-.074.168.357.357 0 0 1-.469.142c-.045-.021-.151-.084-.164-.091l-.556-.341-.423.041c-.262.026-.534.046-.789.118a1.219 1.219 0 0 0-.408.191c-.089.067-.21.172-.306.292-.048.06-.1.119-.116.18l.198.237c.186.221.025.45.001.472a.354.354 0 0 1-.147.079c-.074.021-.241.019-.287.023l-.778.05a1.845 1.845 0 0 0-.41.136c-.221.102-.428.231-.654.348l-.521.269c-.018.014-.029.062-.043.112a1.73 1.73 0 0 1 .129-.026l.006-.001c.13-.038.258-.079.386-.079.139 0 .196.068.211.084.115.112.133.238.031.377a.278.278 0 0 1-.15.107c-.022.007-.106.023-.14.032l-.247.05-.009.001a1.193 1.193 0 0 1-.162.047l-.055.008-.008.003c-.128.042-.253.093-.381.144-.334.13-.748.338-1.012.635-.139.157-.235.342-.224.558.04-.02.092.064.131.076.256.075.529.043.785.075.086.011.171.027.253.052.069.02.137.012.204-.001.105-.021.209-.059.315-.089.067-.02.163-.067.251-.086a.524.524 0 0 1 .253.006c.068.02.159.071.208.196.013.032.027.13.034.176.022.054.04.104.065.148a.156.156 0 0 0 .056.059l.312.061c.268.065.623.1.955.054.222-.031.437-.095.588-.23a.3.3 0 0 1 .022-.04c.017-.027.118-.143.155-.172.1-.08.193-.079.227-.077a.32.32 0 0 1 .239.115.307.307 0 0 1 .075.277l-.005.024c.294-.014.592-.056.884-.124a4.4 4.4 0 0 0 .995-.359c.34-.175.695-.331 1.036-.509.118-.062.234-.127.348-.196.077-.087.162-.162.229-.213a3.04 3.04 0 0 1 .149-.116.4.4 0 0 1 .487.023c.092.086.233.317.022.563a2.41 2.41 0 0 0 .818-.274c.475-.251.885-.618 1.315-.967.128-.105.326-.201.495-.313.044-.029.09-.054.111-.093l-.136.259.147-.279s.172.439.387.587l.547-.354 1.77-.954.027-.017c.002-.016.006-.032.01-.049a.5.5 0 0 1 .46-.371Zm-2.621 1.784c-.039-.008-.09-.009-.136-.008.044.019.09.024.136.008Zm-9.703 7.964a.51.51 0 0 0 .133.368l-.033.048a.647.647 0 0 0-.103.287.476.476 0 0 0 .244.482l.005.002c-.05.062-.114.148-.16.232a.815.815 0 0 0-.101.292.512.512 0 0 0 .261.539c.047.027.097.05.149.069a.457.457 0 0 0 .131.278.648.648 0 0 0-.064.181c-.032.228.052.403.245.509.051.028.104.05.16.065a.395.395 0 0 0 .28.371c.14.05.308.046.484-.028-.029.114-.054.23-.072.349-.006.04-.041.234-.045.392a.8.8 0 0 0 .04.295.434.434 0 0 0 .169.219l-.016.052c-.024.074-.084.223-.09.294a.414.414 0 0 0 .016.15c-.17.268-.193.543-.107.754a.5.5 0 0 0 .285.284.364.364 0 0 0 .059.074.68.68 0 0 0-.002.206.413.413 0 0 0 .24.319.58.58 0 0 0 .179.048l-.003.089a.54.54 0 0 0 .123.349c.164.18.362.217.577.147a.81.81 0 0 0 .174-.084c-.007.113-.008.287.023.359a.361.361 0 0 0 .125.157.787.787 0 0 0-.033.126.418.418 0 0 0 .056.295.346.346 0 0 0 .241.158.336.336 0 0 0 .13-.003l.001.007a.432.432 0 0 0 .065.206.374.374 0 0 0 .318.176.51.51 0 0 0 .252-.069c.11-.062.22-.171.254-.204l.307-.337a.294.294 0 0 0 .117.157.3.3 0 0 0 .185.059.473.473 0 0 0 .03.202c.04.097.11.158.199.188a.491.491 0 0 0 .237.018.428.428 0 0 0-.002.123.313.313 0 0 0 .152.216c.126.075.282.077.44-.001a1.3 1.3 0 0 0 .31-.242.5.5 0 0 0 .024.119.37.37 0 0 0 .227.229.43.43 0 0 0 .382-.054c.124-.078.242-.242.289-.3.123-.155.24-.314.354-.475l.057-.082c-.016.156-.022.356.021.477.039.11.107.186.187.23.097.053.233.081.413-.018.132-.073.255-.179.367-.306a.36.36 0 0 0 .199.163c.199.068.412.012.605-.147.22-.183.421-.521.518-.689l.004.003c.077.068.172.1.291.075.176-.037.359-.147.529-.305.202-.187.393-.446.547-.651-.002.087.001.276.026.337a.322.322 0 0 0 .209.191.315.315 0 0 0 .268-.034c.198-.121.364-.327.497-.582.225-.431.357-1.011.49-1.348l.142-.303.186-.293c.077-.163.018-.264.007-.287a.35.35 0 0 0-.087-.102l.062-.222c.013-.05.12-.324.144-.495a.488.488 0 0 0-.088-.379.483.483 0 0 0-.092-.084l.005-.039a.539.539 0 0 0-.144-.452c-.125-.127-.306-.183-.525-.15-.131.02-.286.083-.435.159a.562.562 0 0 0-.446-.138 1.136 1.136 0 0 0-.286.071.443.443 0 0 0-.077-.091.56.56 0 0 0-.33-.142.5.5 0 0 0-.007-.041c-.046-.186-.198-.421-.669-.36-.207.027-.41.091-.607.176l-.083.037a.55.55 0 0 0-.177-.058 1.509 1.509 0 0 0-.787.095 2.48 2.48 0 0 0-.237.105.579.579 0 0 0-.379-.173 1.379 1.379 0 0 0-.5.075 4.691 4.691 0 0 0-.602.272c-.236-.031-.493.018-.751.125-.068.027-.135.06-.203.095a.497.497 0 0 0-.13-.09.788.788 0 0 0-.45-.064c-.207.028-.436.137-.577.209a4.062 4.062 0 0 0-.962.683c-.05.015-.101.036-.151.06-.184.089-.365.247-.486.355l-.07.071a.638.638 0 0 0-.26-.096c.095-.206.188-.413.268-.627.073-.196-.015-.306-.028-.326a.486.486 0 0 0-.218-.149l.024-.065c.021-.054.077-.113.111-.171a.672.672 0 0 0 .09-.247.45.45 0 0 0-.152-.409.374.374 0 0 0-.197-.103l.048-.136c.049-.146.01-.238-.004-.276a.363.363 0 0 0-.235-.236l.002-.003a.414.414 0 0 0 .024-.392.415.415 0 0 0-.285-.249.589.589 0 0 0-.227-.021v-.316c-.114 0-.239.025-.366.07l.014-.006.386-.184a2.16 2.16 0 0 0 .213-.118.444.444 0 0 0 .167-.299.443.443 0 0 0-.108-.364c-.038-.043-.129-.158-.337-.161.018-.118-.017-.218-.024-.24-.038-.115-.144-.345-.48-.329-.008.001-.035.001-.078.011a.466.466 0 0 0-.061-.187c.141-.279-.009-.466-.077-.543a.477.477 0 0 0-.457-.166 1.605 1.605 0 0 0-.278.12l-.242.159c-.096.073-.459.357-.592.584-.132.225-.129.443-.05.612a.58.58 0 0 0 .132.182Zm9.712 3.989c-.122.13-.28.257-.45.339a.947.947 0 0 1-.614.09.376.376 0 0 1-.307-.283c-.08.094-.167.184-.258.269a3.932 3.932 0 0 1-.419.339c-.072.051-.203.154-.327.204a.603.603 0 0 1-.367.036c-.229-.055-.298-.199-.318-.334l-.079.048a6.268 6.268 0 0 1-.434.237c-.032.016-.267.141-.423.169a.537.537 0 0 1-.355-.049c-.085.08-.173.154-.26.217-.221.159-.449.246-.647.247-.081.075-.16.133-.216.163a.882.882 0 0 1-.307.085.65.65 0 0 1-.319-.056l-.011-.005-.037.038a1.052 1.052 0 0 1-.035.15l-.154.311c-.051.082-.145.24-.261.399a4.719 4.719 0 0 0-.104.302c.151-.161.279-.347.323-.404l.168-.229c.018-.024.05-.08.07-.102a.34.34 0 0 1 .146-.099.311.311 0 0 1 .287.035.312.312 0 0 1 .147.233c.007.051.01.104.007.159.216-.22.472.029.499.081.006.011.032.049.039.112a.307.307 0 0 1 .136.067.295.295 0 0 1 .116.286c-.005.037-.079.183-.109.243l-.116.226a8.82 8.82 0 0 0-.238.543c.087-.101.174-.203.264-.301.092-.102.188-.201.29-.293.018-.017.308-.269.436-.323.179-.074.307-.01.379.068a.326.326 0 0 1 .184-.064c.123-.004.27.033.322.256a.455.455 0 0 1-.031.293c-.037.085-.114.168-.163.247-.051.084-.105.168-.156.254.048-.048.089-.089.119-.115l.25-.229a.69.69 0 0 0-.014.015s.143-.143.172-.154a.278.278 0 0 1 .283.032.328.328 0 0 1 .04.032l.022-.044.101-.212c.022-.047.053-.158.077-.205a.33.33 0 0 1 .093-.116.285.285 0 0 1 .279-.048c.055.019.147.06.192.201a.451.451 0 0 1 .014.188c-.015.115-.088.273-.097.298-.079.222-.167.445-.244.671l.071-.1c.166-.235.326-.474.489-.71l.345-.491c.005-.006.135-.142.189-.191.26-.235.5.132.504.177a.883.883 0 0 1-.036.311c-.046.167-.136.343-.18.475l-.181.608-.002.009c.035-.045.069-.093.101-.143.187-.285.331-.624.452-.866.003-.006.125-.327.208-.438a.38.38 0 0 1 .184-.136.292.292 0 0 1 .29.056.308.308 0 0 1 .109.189.85.85 0 0 1-.02.222l-.078.269c-.056.182-.129.364-.193.548.07-.109.125-.211.157-.268l.209-.377.145-.309c.008-.019.072-.234.143-.346a.432.432 0 0 1 .226-.183c.135-.041.23 0 .3.055a.33.33 0 0 1 .119.198c.011.058-.011.186-.015.252a2.36 2.36 0 0 1-.025.158c.172-.206.323-.433.436-.572l.32-.412c.004-.006.09-.098.167-.156a.49.49 0 0 1 .196-.091.333.333 0 0 1 .2.021l.011-.027c.017-.039.087-.177.119-.23l.03-.044a4.27 4.27 0 0 0 .149-.34c.066-.169.124-.342.176-.515a.347.347 0 0 1-.31.088.352.352 0 0 1-.257-.19.36.36 0 0 1-.008-.331c.043-.093.229-.285.24-.297.025-.026.09-.096.173-.176l.012-.022a3.28 3.28 0 0 0 .043-.083l.035-.069a3.042 3.042 0 0 0-.284.173 1.039 1.039 0 0 1-.045.07c-.118.17-.28.305-.412.355a.471.471 0 0 1-.308.015.364.364 0 0 1-.252-.312.94.94 0 0 1-.226.164.53.53 0 0 1-.418.035c-.224-.082-.256-.238-.245-.37a.873.873 0 0 1-.151.071c-.285.084-.432-.093-.481-.225l-.006-.017Z"/><path d="M2.766 13.168c.079-.058.271-.021.363-.021.259 0 .558-.008.815-.047 1.042-.155 2.101-.111 3.158-.134.442-.009 1.12.111 1.547-.042" style="fill:#fff;fill-opacity:.45"/><path d="M2.919 13.643c.037.038.163-.029.21-.034.164-.015.341-.033.516-.06a4.63 4.63 0 0 0 .357-.065 8.001 8.001 0 0 1 1.525-.208c.209-.008.419-.009.628-.004.319.009.636.035.955.048.309.021.722.11 1.098.131.222.013.428-.011.609-.056a.5.5 0 1 0-.337-.941 1.315 1.315 0 0 1-.443.111c-.33.03-.678.019-.942.048-.315.025-.628.056-.943.066-.299.01-.597.011-.894.011-.459-.001-.914-.011-1.371.027a3.82 3.82 0 0 1-.37-.002c-.133-.006-.264-.02-.388-.031-.092-.01-.26-.037-.382-.027-.11.009-.197.061-.273.105a.5.5 0 0 0 .445.881Z"/><path d="M9.004 12.114h-.001a.5.5 0 0 0-.348.141c-.047-.007-.117.125-.145.161l-.183.326a2.156 2.156 0 0 0-.182.554 2.69 2.69 0 0 0-.044.551c.014.518.141 1.01.37 1.457.221.43.529.821.913 1.15a5.23 5.23 0 0 0 2.393 1.175 5.36 5.36 0 0 0 2.636-.139c.444-.134.848-.301 1.19-.561.234-.179.441-.4.609-.687.136-.231.221-.491.27-.762.067-.379.062-.78.026-1.141a4.535 4.535 0 0 0-.594-1.874c-.349-.584-.85-1.065-1.518-1.342a3.764 3.764 0 0 0-1.244-.265c-.602-.036-1.222.035-1.796.102a3.232 3.232 0 0 0-.978.272c-.42.189-.783.461-1.197.771a2.883 2.883 0 0 1-.177.111Zm.168 1.119c-.042.082-.074.17-.096.26a1.702 1.702 0 0 0-.047.354c-.01.381.064.747.217 1.083.155.344.383.659.671.93a4.42 4.42 0 0 0 2.008 1.095 4.647 4.647 0 0 0 2.316-.053c.313-.087.606-.188.862-.345.239-.146.446-.34.609-.612.128-.215.193-.466.221-.723a3.73 3.73 0 0 0-.014-.82 3.848 3.848 0 0 0-.551-1.6 2.488 2.488 0 0 0-1.232-1.019 3.02 3.02 0 0 0-1.011-.165c-.557-.008-1.125.09-1.65.177-.273.046-.501.13-.71.237-.352.182-.647.438-.99.724-.062.052-.339.4-.455.336a.497.497 0 0 1-.148.141Z"/><path d="M15.394 12.794c-.085-.015.219-.171.251-.184.19-.074.398-.136.601-.164a4.422 4.422 0 0 1 1.248.017c.133.023.24.039.364.088.031.013.191.092.191.067" style="fill:#fff;fill-opacity:.45"/><path d="M15.861 12.971a1.692 1.692 0 0 1 .428-.203c.091-.021.185-.047.285-.057a1.6 1.6 0 0 1 .294-.005c.2.016.388.078.562.133.058.022.108.043.159.065.037.016.063.045.1.07.033.022.18.105.24.132.1.046.185.001.24-.001.075-.001.12-.059.175-.082.03-.013.043-.045.069-.062.104-.069.102-.2.136-.343a.5.5 0 0 0-.559-.496c-.06-.012-.115-.025-.173-.028-.085-.004-.163-.008-.258-.006l-1.356.037c-.097-.001-.192.012-.291.02-.145.013-.283.039-.422.065a3.38 3.38 0 0 0-.335.128c-.088.038-.13.107-.167.14-.102.091-.086.213-.105.294-.009.038.01.074.01.111-.002.141.116.231.265.352.034.028.088.027.148.052a.5.5 0 0 0 .555-.316Zm-.041.026-.02.013c.002-.001.01-.006.014-.001l.001.002.005-.014Zm1.734-.449a.137.137 0 0 0-.005.07c0-.024.001-.047.005-.07Zm.087-.219a.237.237 0 0 0-.074.155.515.515 0 0 1 .074-.155Zm-1.955.06-.019-.014a.172.172 0 0 1 .037.028l-.018-.014Zm-.115-.062a.169.169 0 0 0-.089-.025c.031.006.06.014.089.025Z"/><path d="m17.179 12.267-.01.008c-.173.141-.284.384-.399.564a2.535 2.535 0 0 0-.396 1.364c0 .478.119.956.363 1.349.566.919 1.562 1.504 2.644 1.708 1.061.201 2.196.045 3.05-.506.215-.136.399-.306.566-.494.228-.258.422-.551.619-.828.11-.151.306-.256.443-.396a.876.876 0 0 0 .217-.341c.075-.225.081-.479.047-.735-.043-.331-.157-.668-.25-.941-.071-.205-.122-.435-.204-.645a1.778 1.778 0 0 0-.159-.314 5.04 5.04 0 0 0-.525-.696 2.092 2.092 0 0 0-.509-.404c-.431-.237-.91-.295-1.397-.256-.648.052-1.311.29-1.871.478a9.289 9.289 0 0 0-1.669.758c-.048.028-.319.133-.418.197a.546.546 0 0 0-.142.13Zm.611.815c.027.089-.169.21-.232.297a1.598 1.598 0 0 0-.296.849c-.017.317.041.638.189.907.42.759 1.209 1.253 2.071 1.451.89.205 1.857.104 2.593-.339.169-.103.314-.234.445-.378.218-.24.4-.516.587-.774.124-.173.34-.303.495-.464a.304.304 0 0 0 .076-.116c.045-.144.038-.306.013-.469-.046-.288-.159-.578-.248-.814-.064-.17-.114-.359-.182-.537a1.163 1.163 0 0 0-.136-.265 4.364 4.364 0 0 0-.474-.582 1.394 1.394 0 0 0-.345-.255c-.309-.151-.647-.165-.986-.12-.579.076-1.16.332-1.652.527a8.614 8.614 0 0 0-.75.344 7.297 7.297 0 0 0-.702.417c-.021.014-.098.085-.178.141a.498.498 0 0 1-.288.18Z"/><path d="M.951 10.089c-.899-2.807.983-5.284 2.916-7.175.797-.78 1.423-1.546 2.513-1.939 2.198-.793 4.799-.519 6.953.28.897.332 3.546 2.031 3.966 2.929.266.568.032 1.199-.8 1.348" style="fill:#fff"/><path d="M1.427 9.937c-.352-1.018-.297-1.996.012-2.916.487-1.451 1.567-2.759 2.661-3.87.466-.468.869-.932 1.351-1.312.3-.236.63-.438 1.029-.587C7.543.87 8.703.741 9.857.817c1.161.077 2.312.363 3.354.767.499.196 1.557.853 2.434 1.538.584.456 1.093.916 1.242 1.255.068.153.072.315-.013.441-.082.123-.245.188-.463.222a.5.5 0 0 0 .176.984c.546-.112.9-.375 1.093-.695.236-.394.258-.882.031-1.338-.204-.413-.826-.991-1.575-1.527-.971-.695-2.137-1.349-2.681-1.538A12.702 12.702 0 0 0 9.892.218C8.656.156 7.416.286 6.28.697c-.465.163-.851.39-1.203.654-.511.384-.945.852-1.442 1.325C2.416 3.825 1.226 5.198.639 6.734.221 7.825.107 8.998.474 10.242a.5.5 0 0 0 .953-.305Z" style="fill-opacity:.85"/><path d="M6.947 11.055c-.103-.046.437-.178.498-.203.371-.149.793-.281 1.175-.399.269-.083.516-.305.793-.399.848-.286 1.888-.38 2.777-.469 1.7-.169 3.508-.238 5.219-.238.807 0 1.766.256 2.551.021.284-.084.261-.808.21-1.008-.592-2.328-1.885-3.302-2.222-3.988-.57-1.157-2.652-.207-3.689-.086-2.844.333-5.569.914-8.261 1.918-1.346.502-2.697.867-3.811 1.82-.6.514-1.065 1.067-1.433 1.772-.389.749.267 1.193.584 1.813.101.198.677 1.486.802 1.421.732-.385 1.416-.852 2.171-1.212.525-.25 1.064-.455 1.617-.623.188-.056.367-.119.56-.154.094-.017.376-.056.281-.056-.127 0-.248.002-.374.014" style="fill:#abe9f6"/><path d="m6.722 11.501.02.01a.499.499 0 0 0 .479-.037c.088.067.37-.149.408-.165l1.132-.4a1.51 1.51 0 0 0 .233-.097c.19-.096.368-.246.568-.316a6.925 6.925 0 0 1 1.023-.261c.554-.101 1.128-.162 1.648-.22.841-.094 1.71-.163 2.581-.21a58.723 58.723 0 0 1 2.595-.084c.56-.006 1.195.111 1.793.102.298-.004.587-.037.858-.12.191-.059.349-.23.423-.487.09-.316.059-.774.016-.939a8.125 8.125 0 0 0-.697-1.786c-.616-1.147-1.337-1.771-1.579-2.254-.243-.487-.685-.696-1.23-.728-.881-.052-2.062.403-2.768.488a40.745 40.745 0 0 0-4.221.707c-1.387.31-2.757.698-4.119 1.196-.821.298-1.642.547-2.414.904a6.707 6.707 0 0 0-1.52.944 6.733 6.733 0 0 0-.859.854 5.955 5.955 0 0 0-.681 1.015 1.286 1.286 0 0 0-.154.83c.036.235.141.455.278.67.139.22.316.435.438.679.082.167.479 1.065.699 1.381.131.189.285.258.364.275a.439.439 0 0 0 .305-.041c.52-.266 1.016-.572 1.53-.853.209-.114.42-.223.638-.324a10.697 10.697 0 0 1 1.559-.576l.507-.134.147-.023Zm13.085-2.452c.011-.034.031-.1.038-.148a1.498 1.498 0 0 0-.003-.457 7.383 7.383 0 0 0-.614-1.65c-.602-1.161-1.318-1.798-1.555-2.286-.187-.385-.607-.431-1.07-.396-.794.06-1.721.396-2.31.464a37.958 37.958 0 0 0-4.157.707 30.687 30.687 0 0 0-4.024 1.225c-.797.305-1.596.561-2.344.923a6.03 6.03 0 0 0-1.345.869c-.28.246-.529.5-.75.777a5.119 5.119 0 0 0-.575.898.525.525 0 0 0-.029.46c.134.337.446.629.635.987.065.124.33.697.538 1.057.399-.23.787-.477 1.187-.708a10.92 10.92 0 0 1 1.51-.735c.279-.111.562-.212.85-.303l.233-.066a.497.497 0 0 1 .323-.165l.424-.012a.698.698 0 0 1 .138.016c.148-.05.319-.097.354-.111.158-.061.324-.119.493-.175.243-.079.491-.153.725-.223.192-.056.369-.198.56-.291.074-.036.149-.069.225-.093a7.863 7.863 0 0 1 1.169-.269c.577-.091 1.173-.141 1.714-.188a46.758 46.758 0 0 1 2.632-.155 59.493 59.493 0 0 1 2.63-.027c.56.005 1.192.135 1.789.137.21.001.415-.013.609-.062ZM7.295 10.696Z"/><path d="M8.332 4.965c.013-.019-.261.325-.334.42-.234.303-.451.597-.615.945-.491 1.04-.67 2.395-.747 3.535-.101 1.504-.37 2.991-.536 4.488-.122 1.099-.128 2.215-.273 3.311-.105.798-.101 1.59-.101 2.394 0 .256-.017.512.047.763.034.133.262.392.124.392-.181 0-.53-.589-.622-.707-.698-.897-1.004-1.807-1.415-2.856-.732-1.868-2.063-3.497-2.496-5.444C1.131 11.157.408 10.55.51 9.457c.108-1.17.082-1.513.536-2.576" style="fill:#fff"/><path d="M5.433 20.232a6.149 6.149 0 0 1-.569-.944c-.272-.552-.471-1.128-.71-1.754-.495-1.314-1.285-2.516-1.855-3.789a7.972 7.972 0 0 1-.545-1.626c-.153-.753-.554-1.288-.736-1.925a1.766 1.766 0 0 1-.06-.695c.062-.562.089-.928.156-1.278.064-.337.172-.656.392-1.143a.5.5 0 0 0-.92-.393 6.544 6.544 0 0 0-.353 1.086c-.103.473-.116.896-.172 1.645-.029.386.023.72.124 1.031.199.614.614 1.118.789 1.846.147.614.378 1.197.652 1.765.601 1.246 1.414 2.417 1.939 3.707.257.639.477 1.226.765 1.791.197.384.423.758.715 1.129.073.092.301.461.49.642.129.123.265.175.362.175.172-.001.253-.088.299-.178a.345.345 0 0 0 .022-.24c-.021-.085-.141-.242-.164-.335a1.311 1.311 0 0 1-.035-.248c-.008-.147-.001-.295-.001-.443.003-.478.002-.952.027-1.425.016-.31.042-.619.086-.929.031-.224.056-.448.078-.673.088-.878.122-1.765.229-2.641.131-1.045.312-2.085.452-3.13a27.2 27.2 0 0 0 .153-1.367c.055-.659.146-1.392.316-2.088.111-.452.257-.887.449-1.274.074-.151.161-.289.255-.423.1-.144.209-.282.322-.423a44.5 44.5 0 0 1 .302-.367l.007-.008a.504.504 0 0 0 .054-.068.037.037 0 0 0 .005-.02c.098-.186-.009-.322-.176-.413-.165-.242-.42-.434-.667-.117l-.3.393c-.147.197-.286.39-.411.594a4.197 4.197 0 0 0-.241.45 7.265 7.265 0 0 0-.463 1.48 14.882 14.882 0 0 0-.265 2.229c-.023.445-.06.888-.106 1.331-.108 1.05-.261 2.096-.362 3.146-.077.774-.096 1.556-.148 2.333-.022.326-.05.652-.09.976a11.62 11.62 0 0 0-.076.982c-.019.482-.016.965-.014 1.452l-.001.174Z" style="fill-opacity:.85"/><path d="M5.006 20.069c.011-.042-.752.384-.856.539-.323.479-.484 1.38-.381 1.954.217 1.21 2.073 1.892 3.088 1.399.529-.257.861-2.478.334-2.954-.362-.326-1.026-.791-1.532-.791-.148 0-1.375.021-.793.021" style="fill:#fff"/><path d="M4.537 19.753c-.12.012-.236.035-.342.065-.374.083-.54.213-.563.35-.059.103-.043.211.076.305a3.224 3.224 0 0 0-.312 1.004c-.06.408-.062.827.01 1.15.149.708.75 1.266 1.483 1.558.708.282 1.521.324 2.094.037a.876.876 0 0 0 .34-.333c.188-.299.343-.803.419-1.322.065-.437.07-.882.003-1.222-.053-.271-.166-.481-.304-.615a4.627 4.627 0 0 0-.926-.695 2.018 2.018 0 0 0-.856-.267 25.268 25.268 0 0 0-.368-.011c-.131-.151-.329-.247-.598-.098a2.94 2.94 0 0 0-.156.094Zm.246.98c-.143.08-.27.155-.27.155s.008-.021.012-.026c-.142.193-.255.474-.323.767-.071.304-.105.619-.07.867.074.499.497.892.999 1.116.532.238 1.156.298 1.599.089.062-.032.102-.123.15-.23.115-.255.193-.616.227-.981a3.257 3.257 0 0 0-.025-.857c-.028-.154-.064-.284-.141-.348a3.836 3.836 0 0 0-.662-.438c-.21-.109-.431-.191-.62-.183-.068.004-.369.022-.61.039a.508.508 0 0 1-.183.034l-.083-.004Z"/></svg>