<?xml version="1.0" encoding="UTF-8" standalone="no"?><!DOCTYPE svg PUBLIC "-//W3C//DTD SVG 1.1//EN" "http://www.w3.org/Graphics/SVG/1.1/DTD/svg11.dtd"><svg width="100%" height="100%" viewBox="0 0 25 23" version="1.1" xmlns="http://www.w3.org/2000/svg" xmlns:xlink="http://www.w3.org/1999/xlink" xml:space="preserve" xmlns:serif="http://www.serif.com/" style="fill-rule:evenodd;clip-rule:evenodd;stroke-linejoin:round;stroke-miterlimit:2;"><g id="Cara"><path d="M16.645,3.855c-0,-0.414 0.928,-0.572 1.186,-0.633c0.337,-0.08 0.674,-0.119 1.015,-0.177c0.773,-0.131 1.91,-0.438 2.521,0.281c0.172,0.203 0.261,0.897 0.154,1.134c-0.115,0.253 -0.33,0.419 -0.466,0.652c-0.118,0.201 0.207,0.25 0.116,0.463c-0.179,0.414 -0.812,0.441 -1.176,0.488c-0.12,0.015 -0.389,0.084 -0.512,0.029c-0.277,-0.126 -0.567,-0.667 -0.787,-0.876c-0.485,-0.462 -1.097,-0.723 -1.607,-1.131c-0.127,-0.102 -0.188,-0.276 -0.283,-0.359"/><path d="M16.643,4.355c0.053,0.038 0.107,0.073 0.148,0.103c0.38,0.278 0.806,0.481 1.207,0.733c0.148,0.093 0.293,0.191 0.428,0.308c0.174,0.154 0.397,0.502 0.618,0.705c0.1,0.092 0.199,0.164 0.296,0.205c0.08,0.033 0.187,0.054 0.306,0.047c0.139,-0.009 0.302,-0.05 0.391,-0.064c0.284,-0.044 0.711,-0.089 1.011,-0.265c0.176,-0.103 0.318,-0.242 0.396,-0.434c0.082,-0.198 0.048,-0.498 -0.042,-0.573c0.073,-0.096 0.156,-0.184 0.229,-0.282c0.059,-0.08 0.112,-0.164 0.156,-0.258c0.07,-0.151 0.092,-0.448 0.057,-0.741c-0.035,-0.296 -0.133,-0.581 -0.242,-0.714c-0.294,-0.364 -0.698,-0.525 -1.139,-0.582c-0.561,-0.073 -1.191,0.048 -1.683,0.113l-1.049,0.142c-0.202,0.038 -0.748,0.128 -1.094,0.316c-0.318,0.174 -0.479,0.446 -0.492,0.741c-0,0.275 0.223,0.499 0.498,0.5Zm4.223,1.152c-0.047,-0.07 -0.119,-0.187 -0.126,-0.265c-0.008,-0.081 0.002,-0.173 0.064,-0.277c0.101,-0.172 0.242,-0.311 0.359,-0.471c0.035,-0.048 0.067,-0.099 0.092,-0.155c0.038,-0.086 0.022,-0.256 -0.002,-0.421c-0.024,-0.161 -0.06,-0.322 -0.122,-0.392c-0.195,-0.218 -0.457,-0.294 -0.734,-0.313c-0.502,-0.034 -1.052,0.131 -1.484,0.221l-0.981,0.212c-0.071,0.02 -0.206,0.128 -0.353,0.223c0.288,0.223 0.6,0.414 0.893,0.635c0.173,0.131 0.341,0.269 0.494,0.428c0.15,0.154 0.33,0.465 0.518,0.695c0.044,0.054 0.082,0.108 0.126,0.137c0.057,-0.004 0.272,-0.023 0.342,-0.03c0.17,-0.017 0.403,-0.024 0.614,-0.079c0.116,-0.029 0.233,-0.063 0.3,-0.148Z"/><path d="M1.784,12.752c0.056,0.261 0.174,0.665 0.343,0.954c0.169,0.289 0.429,0.536 0.67,0.779c0.246,0.247 0.548,0.459 0.806,0.707c0.275,0.264 0.605,0.567 0.843,0.878c0.233,0.304 0.453,0.63 0.584,0.99c0.13,0.361 0.131,0.785 0.2,1.177c0.073,0.407 0.129,0.859 0.233,1.265c0.103,0.398 0.212,0.907 0.394,1.169c0.154,0.22 0.486,0.238 0.7,0.402c0.292,0.225 0.712,0.776 1.056,0.949c0.301,0.151 0.672,0.047 1.007,0.089c0.569,0.07 1.731,0.349 2.408,0.335c0.569,-0.012 1.218,-0.265 1.655,-0.419c0.343,-0.12 0.667,-0.299 0.966,-0.505c0.307,-0.212 0.596,-0.498 0.877,-0.766c0.314,-0.302 0.724,-0.687 1.011,-1.043c0.272,-0.338 0.517,-0.788 0.711,-1.093c0.154,-0.242 0.37,-0.531 0.451,-0.734c0.06,-0.15 0.056,-0.365 0.036,-0.482c-0.016,-0.089 -0.248,-0.201 -0.16,-0.218c0.11,-0.022 0.546,0.082 0.822,0.09c0.348,0.01 0.847,0.028 1.265,-0.032c0.432,-0.062 0.969,-0.183 1.328,-0.342c0.314,-0.139 0.633,-0.34 0.828,-0.612c0.194,-0.272 0.293,-0.664 0.341,-1.02c0.069,-0.516 0.052,-1.492 0.072,-2.076c0.017,-0.476 0.123,-0.958 0.05,-1.428c-0.084,-0.538 -0.355,-1.206 -0.552,-1.802c-0.294,-0.891 -0.927,-2.767 -1.213,-3.543c-0.14,-0.381 -0.217,-0.822 -0.504,-1.11c-0.395,-0.396 -1.309,-0.944 -1.866,-1.266c-0.469,-0.271 -0.965,-0.501 -1.48,-0.667c-0.593,-0.191 -1.394,-0.402 -2.079,-0.481c-0.672,-0.076 -1.356,-0.047 -2.03,0.013c-0.8,0.071 -1.87,0.162 -2.768,0.413c-0.915,0.256 -1.933,0.687 -2.718,1.121c-0.725,0.4 -1.493,1.04 -1.994,1.481c-0.387,0.34 -0.783,0.824 -1.015,1.165c-0.179,0.264 -0.262,0.583 -0.374,0.881c-0.115,0.305 -0.251,0.621 -0.314,0.948c-0.08,0.414 -0.075,1.032 -0.167,1.541c-0.097,0.537 -0.345,1.297 -0.416,1.679c-0.037,0.201 -0.05,0.413 -0.007,0.613Z" style="fill:#fff;"/><path d="M17.066,17.548l0.322,0.039c0.219,0.005 0.497,0.014 0.778,0.005c0.183,-0.006 0.368,-0.019 0.54,-0.045c0.263,-0.039 0.564,-0.099 0.843,-0.175c0.206,-0.057 0.401,-0.123 0.563,-0.195c0.208,-0.093 0.418,-0.211 0.6,-0.356c0.134,-0.105 0.253,-0.225 0.347,-0.358c0.095,-0.134 0.172,-0.291 0.232,-0.46c0.078,-0.222 0.129,-0.465 0.159,-0.694c0.023,-0.176 0.037,-0.403 0.046,-0.65c0.017,-0.489 0.013,-1.062 0.026,-1.455c0.011,-0.334 0.066,-0.67 0.073,-1.004c0.003,-0.16 -0.004,-0.32 -0.029,-0.479c-0.028,-0.184 -0.077,-0.382 -0.137,-0.588c-0.121,-0.411 -0.29,-0.852 -0.424,-1.26l-1.203,-3.557c-0.101,-0.276 -0.171,-0.582 -0.303,-0.844c-0.071,-0.14 -0.157,-0.268 -0.267,-0.38c-0.178,-0.179 -0.452,-0.389 -0.756,-0.596c-0.396,-0.271 -0.843,-0.539 -1.169,-0.729c-0.243,-0.143 -0.493,-0.274 -0.749,-0.392c-0.257,-0.119 -0.521,-0.224 -0.79,-0.313c-0.31,-0.102 -0.675,-0.21 -1.052,-0.302c-0.366,-0.09 -0.742,-0.165 -1.09,-0.207c-0.351,-0.042 -0.705,-0.056 -1.06,-0.054c-0.347,0.003 -0.695,0.024 -1.041,0.052c-0.497,0.04 -1.096,0.087 -1.696,0.174c-0.39,0.057 -0.78,0.131 -1.144,0.23c-0.466,0.126 -0.959,0.297 -1.437,0.49c-0.489,0.198 -0.962,0.42 -1.374,0.642c-0.293,0.159 -0.594,0.355 -0.883,0.561c-0.454,0.325 -0.878,0.678 -1.198,0.954c-0.2,0.173 -0.403,0.381 -0.587,0.59c-0.201,0.229 -0.38,0.46 -0.511,0.649c-0.069,0.099 -0.127,0.206 -0.178,0.315c-0.099,0.211 -0.169,0.439 -0.253,0.656c-0.073,0.188 -0.153,0.38 -0.22,0.576c-0.05,0.146 -0.093,0.293 -0.123,0.443l-0.183,1.544l-0.433,1.675c-0.024,0.125 -0.04,0.254 -0.044,0.383c-0.005,0.143 0.006,0.285 0.034,0.424c0.041,0.18 0.107,0.421 0.198,0.655c0.061,0.156 0.131,0.309 0.211,0.441c0.084,0.142 0.185,0.275 0.296,0.403c0.143,0.163 0.303,0.316 0.456,0.467l0.821,0.709c0.162,0.153 0.344,0.319 0.515,0.493c0.104,0.105 0.203,0.214 0.289,0.324c0.108,0.138 0.214,0.281 0.308,0.431c0.086,0.138 0.163,0.281 0.219,0.432c0.032,0.087 0.055,0.179 0.073,0.273c0.051,0.271 0.068,0.558 0.119,0.829c0.053,0.285 0.099,0.593 0.158,0.892c0.027,0.136 0.057,0.272 0.092,0.402c0.074,0.276 0.152,0.604 0.252,0.872c0.062,0.167 0.134,0.315 0.214,0.428c0.06,0.086 0.133,0.157 0.218,0.215c0.095,0.066 0.204,0.117 0.318,0.162c0.088,0.034 0.183,0.058 0.255,0.113c0.194,0.147 0.446,0.442 0.693,0.665c0.148,0.134 0.297,0.247 0.434,0.314c0.137,0.068 0.283,0.103 0.435,0.117c0.228,0.02 0.474,-0.024 0.703,0.003c0.394,0.045 1.073,0.188 1.678,0.265c0.289,0.037 0.562,0.059 0.785,0.053c0.246,-0.007 0.505,-0.052 0.758,-0.118c0.373,-0.096 0.732,-0.234 1.009,-0.333c0.187,-0.068 0.37,-0.151 0.546,-0.246c0.172,-0.093 0.339,-0.197 0.499,-0.309c0.135,-0.094 0.266,-0.201 0.395,-0.315c0.178,-0.157 0.351,-0.328 0.52,-0.492c0.19,-0.185 0.415,-0.401 0.628,-0.623c0.145,-0.153 0.286,-0.308 0.405,-0.458c0.112,-0.139 0.219,-0.297 0.32,-0.456c0.151,-0.239 0.289,-0.482 0.407,-0.67c0.102,-0.163 0.232,-0.347 0.332,-0.513c0.06,-0.1 0.11,-0.195 0.142,-0.277c0.033,-0.083 0.054,-0.179 0.064,-0.276c0.006,-0.061 0.007,-0.123 0.006,-0.181Zm-0.637,-0.024c0.002,0.032 0.002,0.068 -0.001,0.105c-0.003,0.048 -0.009,0.097 -0.026,0.138c-0.022,0.054 -0.057,0.116 -0.098,0.181c-0.099,0.161 -0.228,0.339 -0.33,0.498c-0.12,0.186 -0.26,0.427 -0.413,0.663c-0.09,0.138 -0.184,0.275 -0.283,0.395c-0.109,0.134 -0.237,0.272 -0.37,0.408c-0.209,0.213 -0.431,0.42 -0.618,0.597c-0.164,0.155 -0.331,0.316 -0.503,0.464c-0.11,0.094 -0.222,0.184 -0.337,0.261c-0.139,0.095 -0.283,0.183 -0.433,0.261c-0.146,0.076 -0.297,0.142 -0.452,0.196c-0.261,0.09 -0.599,0.215 -0.949,0.3c-0.199,0.049 -0.403,0.084 -0.596,0.086c-0.191,0.003 -0.423,-0.022 -0.669,-0.058c-0.607,-0.087 -1.288,-0.242 -1.683,-0.294c-0.21,-0.028 -0.434,-0.004 -0.648,-0.012c-0.08,-0.003 -0.158,-0.01 -0.229,-0.046c-0.08,-0.041 -0.162,-0.114 -0.249,-0.195c-0.261,-0.244 -0.529,-0.562 -0.736,-0.723c-0.064,-0.051 -0.136,-0.093 -0.212,-0.13c-0.084,-0.041 -0.174,-0.075 -0.262,-0.111c-0.049,-0.021 -0.104,-0.032 -0.133,-0.075c-0.059,-0.086 -0.102,-0.209 -0.143,-0.342c-0.07,-0.224 -0.126,-0.477 -0.18,-0.696c-0.038,-0.152 -0.068,-0.311 -0.095,-0.472c-0.044,-0.257 -0.079,-0.518 -0.12,-0.762c-0.046,-0.273 -0.058,-0.56 -0.104,-0.832c-0.025,-0.146 -0.059,-0.287 -0.106,-0.422c-0.059,-0.169 -0.136,-0.331 -0.223,-0.488c-0.122,-0.22 -0.267,-0.428 -0.417,-0.628c-0.104,-0.138 -0.224,-0.276 -0.351,-0.41c-0.176,-0.186 -0.363,-0.364 -0.531,-0.528l-0.791,-0.707c-0.134,-0.138 -0.275,-0.277 -0.4,-0.425c-0.07,-0.083 -0.135,-0.17 -0.188,-0.262c-0.064,-0.113 -0.117,-0.247 -0.161,-0.38c-0.053,-0.156 -0.092,-0.312 -0.116,-0.432c-0.014,-0.062 -0.02,-0.125 -0.019,-0.189c0.001,-0.077 0.01,-0.154 0.023,-0.229l0.399,-1.684l0.152,-1.539c0.02,-0.111 0.05,-0.22 0.085,-0.328c0.06,-0.186 0.133,-0.369 0.198,-0.547c0.064,-0.175 0.117,-0.357 0.187,-0.53c0.037,-0.091 0.077,-0.18 0.131,-0.262c0.112,-0.167 0.265,-0.372 0.438,-0.575c0.155,-0.183 0.325,-0.365 0.494,-0.516c0.299,-0.268 0.695,-0.611 1.121,-0.927c0.257,-0.191 0.524,-0.372 0.786,-0.52c0.384,-0.217 0.825,-0.433 1.282,-0.627c0.445,-0.189 0.905,-0.357 1.342,-0.482c0.333,-0.096 0.692,-0.17 1.05,-0.228c0.582,-0.093 1.165,-0.148 1.647,-0.195c0.328,-0.031 0.658,-0.056 0.988,-0.063c0.325,-0.008 0.649,0.001 0.971,0.036c0.322,0.034 0.671,0.099 1.011,0.178c0.359,0.083 0.709,0.181 1.005,0.274c0.246,0.078 0.488,0.17 0.724,0.276c0.238,0.106 0.471,0.225 0.697,0.353c0.318,0.182 0.753,0.437 1.139,0.694c0.267,0.179 0.512,0.358 0.668,0.513c0.089,0.089 0.15,0.198 0.201,0.315c0.095,0.218 0.155,0.461 0.238,0.682c0.122,0.325 0.306,0.845 0.5,1.404c0.266,0.768 0.55,1.611 0.722,2.124c0.114,0.345 0.253,0.714 0.367,1.068c0.077,0.241 0.142,0.475 0.175,0.687c0.019,0.125 0.024,0.251 0.021,0.378c-0.008,0.331 -0.063,0.664 -0.075,0.995c-0.015,0.394 -0.013,0.966 -0.031,1.455c-0.008,0.226 -0.021,0.433 -0.043,0.593c-0.021,0.159 -0.054,0.325 -0.102,0.483c-0.046,0.149 -0.106,0.289 -0.189,0.403c-0.08,0.111 -0.187,0.205 -0.304,0.288c-0.127,0.088 -0.266,0.161 -0.404,0.222c-0.17,0.074 -0.383,0.138 -0.604,0.192c-0.218,0.052 -0.444,0.094 -0.646,0.122c-0.149,0.021 -0.31,0.031 -0.47,0.035c-0.268,0.006 -0.533,-0.004 -0.743,-0.011c-0.224,-0.007 -0.556,-0.081 -0.725,-0.095c-0.07,-0.005 -0.127,-0.001 -0.165,0.006c-0.132,0.025 -0.192,0.098 -0.227,0.153c-0.044,0.07 -0.06,0.151 -0.041,0.242c0.009,0.041 0.029,0.094 0.072,0.148c0.018,0.022 0.073,0.072 0.11,0.105Z"/><path d="M1.562,11.241c-0.185,0.152 -0.24,0.419 -0.117,0.634c0.095,0.108 0.165,0.231 0.31,0.237c0.049,0.002 0.1,0.031 0.158,0.015c0.047,-0.013 0.188,0.008 0.293,-0.121c0.019,-0.024 0.084,-0.106 0.084,-0.106c0,-0 -0.031,0.017 -0.037,0.024l0.18,-0.205c0.085,-0.069 0.186,-0.169 0.313,-0.225c0.082,-0.035 0.163,-0.082 0.239,-0.056c0.119,0.061 0.217,0.143 0.291,0.244c0.081,0.11 0.112,0.244 0.153,0.381c0.021,0.082 0.044,0.251 0.071,0.366c0.023,0.098 0.078,0.159 0.104,0.205c0.033,0.06 0.092,0.078 0.127,0.11c0.096,0.09 0.216,0.06 0.317,0.071c0.127,0.012 0.224,-0.088 0.36,-0.211c0.03,-0.028 0.037,-0.078 0.069,-0.128c0.069,-0.19 0.016,-0.395 -0.119,-0.528c-0.052,-0.08 -0.177,-0.178 -0.213,-0.226c-0.12,-0.177 -0.246,-0.331 -0.398,-0.467c-0.154,-0.139 -0.315,-0.27 -0.523,-0.351c-0.159,-0.088 -0.35,-0.089 -0.549,-0.072c-0.235,0.02 -0.471,0.102 -0.649,0.169l-0.324,0.154c-0.022,0.01 -0.147,0.044 -0.14,0.086Zm1.997,0.842c-0.01,0.014 -0.019,0.031 -0.021,0.051c0.006,-0.017 0.013,-0.034 0.021,-0.051Zm-1.283,-0.759c0.014,0.018 0.027,0.036 0.038,0.056c-0.007,-0.022 -0.022,-0.04 -0.038,-0.056Zm-0.184,-0.148c0.053,0.024 0.102,0.058 0.143,0.101c-0.033,-0.052 -0.082,-0.082 -0.143,-0.101Zm-0.226,-0.048l-0.021,0.001l-0.024,0.002c0.016,-0.003 0.031,-0.005 0.045,-0.003Z"/><path d="M2.867,13.525c0.022,0.046 0.082,0.069 0.099,0.12c0.023,0.074 0.118,0.055 0.171,0.114c0.015,0.017 0.041,0.004 0.06,0.019c0.032,0.028 0.078,-0.007 0.123,0.015c0.047,0.022 0.091,-0.04 0.169,-0.032c0.03,0.003 0.045,-0.042 0.093,-0.048c0.015,-0.001 0.026,-0.051 0.117,-0.085c0.179,-0.194 0.176,-0.493 -0.003,-0.682c-0.03,-0.058 -0.064,-0.111 -0.122,-0.156c-0.09,-0.07 -0.16,-0.157 -0.267,-0.187c-0.165,-0.119 -0.305,-0.111 -0.434,-0.114c-0.13,-0.003 -0.23,0.062 -0.407,0.136c-0.005,0.002 -0.009,-0.01 -0.018,-0.008c-0.032,0.008 -0.055,0.03 -0.09,0.042c-0.047,0.015 -0.062,0.059 -0.101,0.08c-0.083,0.044 -0.065,0.139 -0.113,0.2c-0.055,0.069 0.008,0.148 -0.011,0.232c-0.006,0.023 0.017,0.039 0.015,0.063c-0.003,0.027 0.026,0.042 0.027,0.071c0.002,0.048 0.058,0.064 0.073,0.117c0.159,0.179 0.419,0.216 0.619,0.103Zm0.921,-0.265c-0.003,0.018 -0.01,0.036 -0.007,0.057c0.004,0.022 0.006,0.046 0.007,0.069c0.011,-0.025 0.022,-0.045 0.014,-0.064c-0.01,-0.021 -0.013,-0.042 -0.014,-0.062Zm-0.005,-0.11c-0.001,0.026 -0.006,0.054 0.003,0.082l0.002,0.007c0.001,-0.035 0.007,-0.065 -0.005,-0.089Zm-0.797,-0.047c0.01,0.01 0.02,0.021 0.028,0.016c0.003,-0.003 0.004,0.005 0.006,0.011c0.001,-0.008 -0.001,-0.015 -0.006,-0.02c-0.008,-0.005 -0.019,-0.006 -0.028,-0.007Zm-0.019,-0.157c-0.001,0 -0.002,0.001 -0.002,0.002l0.002,-0.002Zm0.051,-0.161c-0.004,-0.012 -0.01,-0.022 -0.023,-0.028c0.008,0.009 0.016,0.019 0.023,0.028Z"/><path d="M11.582,18.134c-0.193,-0.008 -0.376,0.097 -0.465,0.271c-0.04,0.026 -0.077,0.052 -0.11,0.076c-0.126,0.072 -0.291,0.184 -0.369,0.322c-0.056,0.099 -0.078,0.212 -0.052,0.346c0.018,0.125 0.078,0.205 0.13,0.271c0.088,0.11 0.217,0.139 0.356,0.155c0.303,0.034 0.754,-0.299 0.882,-0.44c0.058,-0.06 0.095,-0.128 0.118,-0.198c0.211,0.127 0.489,0.08 0.646,-0.117c0.173,-0.216 0.137,-0.531 -0.078,-0.703c-0.223,-0.116 -0.455,-0.19 -0.719,-0.115c-0.111,0.031 -0.226,0.078 -0.339,0.132Zm-0.191,0.97c0.007,0.004 0.014,0.007 0.022,0.008l-0.022,-0.008Zm0.627,-0.204l-0.002,-0.002c0,0.001 0.001,0.002 0.002,0.002Z"/><path d="M5.657,7.251c0.133,0.095 0.232,0.381 0.298,0.52c0.201,0.423 0.352,0.863 0.493,1.31c0.056,0.174 0.269,0.4 0.207,0.592c-0.072,0.223 -0.35,0.196 -0.518,0.12c-0.015,-0.007 -0.22,-0.112 -0.228,-0.091c-0.074,0.204 0.046,0.61 0.046,0.831c-0,0.115 0.041,0.263 -0.074,0.328c-0.624,0.351 -1.409,-0.061 -2.079,0.035c-0.235,0.033 -0.487,0.005 -0.717,0.047c-0.521,0.094 -1.047,0.52 -1.52,0.044c-0.085,-0.086 -0.189,-0.169 -0.266,-0.261c-0.053,-0.065 -0.062,-0.16 -0.091,-0.237c-0.263,-0.711 0.233,-1.056 0.417,-1.682c0.071,-0.243 0.028,-0.641 0.227,-0.822c0.042,-0.038 -0.148,-0.186 -0.168,-0.211c-0.1,-0.133 -0.128,-0.297 -0.101,-0.463c0.053,-0.323 0.186,-0.36 0.413,-0.53c0.058,-0.043 0.153,-0.191 0.22,-0.211c0.287,-0.085 0.693,-0.001 0.974,0.06c0.482,0.106 0.973,0.18 1.466,0.18c0.282,-0 0.636,-0.006 0.9,0.113c0.11,0.05 0.339,0.21 0.129,0.262"/><path d="M1.445,8.012c-0.014,0.033 -0.025,0.068 -0.035,0.104c-0.052,0.194 -0.043,0.434 -0.088,0.602c-0.129,0.466 -0.419,0.788 -0.472,1.201c-0.026,0.2 -0.011,0.418 0.086,0.671c0.021,0.057 0.033,0.123 0.057,0.181c0.021,0.051 0.048,0.098 0.084,0.14l0.283,0.28c0.192,0.195 0.393,0.278 0.597,0.303c0.379,0.045 0.784,-0.185 1.181,-0.253l0.709,-0.036c0.453,-0.055 0.956,0.135 1.426,0.143c0.273,0.005 0.536,-0.043 0.784,-0.175c0.122,-0.065 0.189,-0.161 0.231,-0.27c0.042,-0.108 0.031,-0.251 0.034,-0.37c0.002,-0.079 -0.009,-0.18 -0.021,-0.288c0.103,0.011 0.208,0.006 0.303,-0.019c0.201,-0.053 0.362,-0.188 0.446,-0.424c0.038,-0.106 0.041,-0.216 0.024,-0.328c-0.026,-0.177 -0.168,-0.371 -0.211,-0.524c-0.079,-0.28 -0.162,-0.557 -0.257,-0.83c-0.066,-0.188 -0.138,-0.373 -0.218,-0.556c-0.035,-0.081 -0.081,-0.203 -0.135,-0.32c0.017,-0.065 0.02,-0.132 0.008,-0.202c-0.016,-0.091 -0.05,-0.198 -0.132,-0.294c-0.091,-0.104 -0.259,-0.22 -0.373,-0.267c-0.15,-0.062 -0.318,-0.102 -0.493,-0.118c-0.206,-0.02 -0.421,-0.014 -0.607,-0.008c-0.228,0.007 -0.455,-0.001 -0.682,-0.023c-0.234,-0.023 -0.466,-0.057 -0.697,-0.1c-0.186,-0.035 -0.421,-0.078 -0.647,-0.084c-0.187,-0.006 -0.368,0.008 -0.522,0.059c-0.058,0.019 -0.128,0.052 -0.192,0.112c-0.054,0.05 -0.158,0.178 -0.158,0.178c-0,-0 0.012,-0.009 0.016,-0.013c-0.18,0.143 -0.307,0.224 -0.396,0.363c-0.063,0.099 -0.117,0.221 -0.143,0.407c-0.017,0.126 -0.016,0.25 0.011,0.368c0.029,0.129 0.082,0.251 0.167,0.358c0.004,0.004 0.016,0.016 0.032,0.032Zm3.715,-0.709c-0.029,-0.006 -0.058,-0.01 -0.087,-0.013c-0.143,-0.018 -0.288,-0.021 -0.417,-0.025c-0.266,-0.009 -0.53,-0.035 -0.793,-0.077c-0.256,-0.042 -0.51,-0.096 -0.761,-0.159c-0.127,-0.032 -0.281,-0.072 -0.438,-0.093c-0.098,-0.013 -0.197,-0.025 -0.284,-0.013c-0.047,0.049 -0.128,0.131 -0.162,0.156c-0.105,0.073 -0.192,0.096 -0.245,0.171c-0.02,0.028 -0.032,0.064 -0.042,0.118c-0.008,0.039 -0.013,0.078 -0.006,0.116c0.005,0.028 0.012,0.055 0.028,0.079c0.054,0.059 0.2,0.222 0.22,0.288c0.052,0.164 0.007,0.292 -0.096,0.382c-0.033,0.028 -0.042,0.076 -0.053,0.125c-0.041,0.182 -0.049,0.389 -0.096,0.538c-0.119,0.383 -0.355,0.659 -0.461,0.98c-0.049,0.148 -0.059,0.31 0.014,0.512c0.017,0.045 0.042,0.137 0.048,0.159l0.242,0.236c0.114,0.114 0.232,0.142 0.353,0.13c0.297,-0.03 0.602,-0.21 0.907,-0.268l0.727,-0.059c0.476,-0.078 1.015,0.09 1.512,0.076c0.111,-0.003 0.219,-0.019 0.322,-0.058c-0.002,-0.026 -0.004,-0.052 -0.004,-0.071c-0.005,-0.172 -0.085,-0.454 -0.089,-0.67c-0.002,-0.111 0.015,-0.211 0.043,-0.295c0.031,-0.093 0.181,-0.323 0.498,-0.242c0.014,0.003 0.031,0.009 0.05,0.016c-0.022,-0.045 -0.041,-0.089 -0.056,-0.13c-0.075,-0.214 -0.154,-0.427 -0.239,-0.637c-0.082,-0.203 -0.172,-0.402 -0.274,-0.598c-0.044,-0.087 -0.263,-0.261 -0.187,-0.345c-0.101,-0.085 -0.161,-0.204 -0.174,-0.329Zm0.362,-0.591c0.015,-0.005 0.029,-0.009 0.045,-0.013c-0.017,0.003 -0.031,0.008 -0.045,0.013Z"/><path d="M16.449,3.631c-0.216,-0.048 -0.503,0.279 -0.683,0.381c-0.582,0.334 -1.199,0.601 -1.785,0.933c-0.176,0.1 -0.349,0.207 -0.515,0.324c-0.044,0.032 -0.155,0.116 -0.217,0.089c-0.157,-0.071 -0.232,-0.431 -0.185,-0.577c0.018,-0.056 0.05,-0.105 0.08,-0.154c0.018,-0.028 0.065,-0.114 0.049,-0.085c-0.129,0.234 -0.521,0.367 -0.724,0.529c-0.755,0.599 -1.462,1.238 -2.485,1.314c-0.158,0.011 -0.551,0.115 -0.63,-0.063c-0.087,-0.195 0.164,-0.414 0.294,-0.517c0.006,-0.006 0.137,-0.116 0.143,-0.11c0.039,0.035 -0.332,0.293 -0.357,0.308c-0.468,0.286 -0.987,0.495 -1.477,0.741c-0.668,0.334 -1.466,0.504 -2.216,0.504c-0.078,-0 -0.231,-0.064 -0.238,-0.155c-0.003,-0.042 -0.016,-0.141 0.007,-0.179c0.013,-0.021 0.121,-0.138 0.077,-0.073c-0.391,0.588 -1.395,0.572 -2.002,0.419c-0.132,-0.033 -0.292,-0.028 -0.409,-0.107c-0.15,-0.101 -0.178,-0.221 -0.245,-0.378c-0.011,-0.023 -0.01,-0.157 -0.032,-0.164c-0.099,-0.029 -0.242,0.053 -0.332,0.079c-0.232,0.066 -0.457,0.156 -0.69,0.085c-0.326,-0.099 -0.695,-0.03 -1.036,-0.132c-0.125,-0.038 -0.32,-0.137 -0.336,-0.296c-0.078,-0.782 0.794,-1.284 1.421,-1.528c0.223,-0.087 0.436,-0.177 0.672,-0.218c0.075,-0.012 0.147,-0.024 0.221,-0.044c0.04,-0.011 0.164,-0.031 0.122,-0.031c-0.245,-0 -0.487,0.18 -0.749,0.126c-0.333,-0.069 -0.026,-0.564 0.095,-0.655c0.168,-0.128 0.374,-0.199 0.56,-0.297c0.381,-0.201 0.709,-0.431 1.141,-0.519c0.272,-0.056 0.535,-0.034 0.808,-0.06c0.044,-0.004 0.222,0.005 0.256,-0.025c0.012,-0.012 -0.3,-0.319 -0.308,-0.397c-0.03,-0.294 0.332,-0.648 0.546,-0.81c0.388,-0.294 0.886,-0.333 1.354,-0.384c0.152,-0.017 0.41,-0.082 0.564,-0.032c0.222,0.073 0.396,0.253 0.602,0.353c0.016,0.008 0.164,0.096 0.175,0.091c0.021,-0.009 0.058,-0.136 0.07,-0.157c0.081,-0.151 0.175,-0.309 0.28,-0.444c0.17,-0.218 0.587,-0.403 0.861,-0.454c0.65,-0.121 1.111,0.114 1.691,0.35c0.076,0.03 0.179,0.045 0.241,0.101c0.048,0.043 0.172,0.326 0.28,0.261c0.201,-0.12 0.37,-0.443 0.543,-0.611c0.331,-0.321 0.985,-0.515 1.449,-0.451c0.238,0.033 0.779,0.131 0.955,0.281c0.23,0.194 0.508,0.579 0.778,0.699c0.084,0.038 0.403,-0.211 0.49,-0.249c0.314,-0.136 0.814,-0.05 1.036,0.221c0.446,0.546 0.207,1.206 -0.109,1.748c-0.157,0.271 -0.217,0.515 -0.507,0.438"/><path d="M11.385,1.026c-0.049,-0.043 -0.105,-0.079 -0.169,-0.106c-0.06,-0.026 -0.13,-0.04 -0.186,-0.062c-0.377,-0.149 -0.71,-0.295 -1.066,-0.359c-0.259,-0.046 -0.53,-0.054 -0.835,0.006c-0.193,0.039 -0.446,0.131 -0.661,0.256c-0.17,0.098 -0.318,0.216 -0.411,0.338l-0.217,0.349c-0.09,-0.057 -0.176,-0.123 -0.268,-0.177c-0.082,-0.049 -0.168,-0.09 -0.259,-0.119c-0.082,-0.026 -0.179,-0.038 -0.284,-0.033c-0.145,0.005 -0.31,0.042 -0.421,0.055c-0.299,0.035 -0.609,0.068 -0.899,0.155c-0.219,0.066 -0.426,0.161 -0.613,0.305c-0.147,0.112 -0.352,0.304 -0.49,0.512c-0.126,0.191 -0.194,0.398 -0.174,0.584c0.003,0.027 0.01,0.062 0.026,0.102c-0.084,0.003 -0.168,0.006 -0.252,0.013c-0.093,0.007 -0.185,0.019 -0.279,0.039c-0.195,0.041 -0.372,0.107 -0.542,0.187c-0.229,0.108 -0.443,0.243 -0.676,0.368c-0.131,0.069 -0.272,0.126 -0.402,0.197c-0.069,0.038 -0.135,0.079 -0.198,0.127c-0.124,0.095 -0.374,0.48 -0.358,0.742c0.002,0.023 0.004,0.046 0.008,0.068c-0.398,0.16 -0.867,0.416 -1.177,0.762c-0.258,0.288 -0.41,0.637 -0.37,1.041c0.013,0.135 0.08,0.254 0.18,0.349c0.106,0.099 0.252,0.168 0.364,0.202c0.082,0.025 0.165,0.042 0.249,0.054c0.264,0.038 0.538,0.008 0.784,0.084c0.137,0.042 0.271,0.047 0.406,0.031c0.151,-0.018 0.302,-0.069 0.455,-0.111c0.008,-0.002 0.018,-0.006 0.029,-0.009c0.034,0.082 0.065,0.154 0.109,0.221c0.051,0.077 0.117,0.148 0.213,0.214c0.063,0.043 0.132,0.073 0.205,0.094c0.098,0.029 0.207,0.035 0.302,0.06c0.402,0.105 0.959,0.153 1.439,0.041c0.149,-0.034 0.291,-0.084 0.42,-0.151c0.114,0.081 0.273,0.128 0.374,0.129c0.399,0.004 0.811,-0.038 1.213,-0.124c0.406,-0.087 0.802,-0.22 1.163,-0.396c0.317,-0.155 0.645,-0.295 0.965,-0.45c0.062,0.072 0.144,0.125 0.244,0.161c0.193,0.069 0.53,0.015 0.687,0.006c0.464,-0.029 0.872,-0.16 1.25,-0.35c0.325,-0.162 0.626,-0.372 0.923,-0.596c-0.019,-0.143 0.101,-0.497 0.453,-1.185c-0.049,0.152 -0.043,0.432 0.039,0.663c0.013,0.037 0.028,0.072 0.045,0.105l-0.346,0.27c-0.06,0.046 -0.12,0.092 -0.179,0.138l-0.012,0.009c0.025,0.196 0.312,-0.005 0.618,-0.285c-0.03,-0.04 -0.057,-0.084 -0.081,-0.132l0.013,-0.01c0.138,-0.107 0.362,-0.198 0.53,-0.319l0.018,-0.013c-0.14,0.147 -0.313,0.322 -0.48,0.474c0.076,0.102 0.167,0.177 0.26,0.22c0.091,0.043 0.199,0.057 0.316,0.037c0.122,-0.021 0.281,-0.118 0.35,-0.166l0.479,-0.293l1.801,-0.911c0.118,-0.066 0.494,-0.153 0.464,-0.307c0.219,-0.011 0.412,-0.166 0.463,-0.389c0.016,-0.074 0.015,-0.147 0,-0.216c0.012,-0.022 0.024,-0.044 0.036,-0.066c0.227,-0.402 0.409,-0.858 0.406,-1.3c-0.003,-0.343 -0.102,-0.681 -0.361,-0.989c-0.176,-0.21 -0.452,-0.362 -0.754,-0.418c-0.287,-0.053 -0.589,-0.026 -0.821,0.078c-0.038,0.017 -0.17,0.099 -0.268,0.161c-0.023,-0.02 -0.046,-0.042 -0.07,-0.064c-0.166,-0.159 -0.329,-0.345 -0.472,-0.463c-0.09,-0.075 -0.237,-0.151 -0.413,-0.207c-0.257,-0.081 -0.585,-0.136 -0.762,-0.159c-0.285,-0.036 -0.627,0.001 -0.947,0.103c-0.328,0.104 -0.633,0.272 -0.838,0.476l-0.288,0.349Zm4.635,2.125c0.032,-0.058 0.074,-0.131 0.107,-0.185c0.13,-0.216 0.252,-0.451 0.291,-0.692c0.028,-0.176 0.01,-0.355 -0.119,-0.516c-0.047,-0.06 -0.13,-0.091 -0.214,-0.109c-0.098,-0.021 -0.202,-0.027 -0.283,0.007c-0.082,0.035 -0.359,0.228 -0.499,0.264c-0.147,0.037 -0.267,0.016 -0.351,-0.023c-0.122,-0.056 -0.249,-0.146 -0.371,-0.258c-0.178,-0.165 -0.351,-0.386 -0.503,-0.517c-0.055,-0.048 -0.172,-0.073 -0.288,-0.104c-0.168,-0.044 -0.341,-0.075 -0.448,-0.092c-0.177,-0.027 -0.391,-0.002 -0.594,0.056c-0.2,0.059 -0.392,0.147 -0.52,0.267c-0.134,0.128 -0.267,0.35 -0.414,0.496c-0.067,0.066 -0.136,0.122 -0.206,0.163c-0.157,0.092 -0.319,0.092 -0.477,-0.005c-0.08,-0.049 -0.201,-0.209 -0.261,-0.292c-0.038,-0.013 -0.096,-0.032 -0.127,-0.045c-0.325,-0.137 -0.609,-0.277 -0.918,-0.339c-0.174,-0.035 -0.356,-0.044 -0.562,-0.008c-0.109,0.019 -0.246,0.064 -0.373,0.126c-0.111,0.053 -0.218,0.114 -0.277,0.188l-0.246,0.383c-0.016,0.04 -0.054,0.136 -0.075,0.169c-0.054,0.087 -0.121,0.129 -0.166,0.149c-0.031,0.013 -0.151,0.063 -0.303,-0.007c-0.045,-0.021 -0.15,-0.084 -0.164,-0.091l-0.556,-0.341l-0.422,0.041c-0.263,0.026 -0.535,0.045 -0.789,0.117c-0.145,0.041 -0.284,0.099 -0.409,0.191c-0.089,0.067 -0.21,0.173 -0.305,0.292c-0.048,0.061 -0.1,0.12 -0.117,0.18l0.198,0.237c0.187,0.222 0.026,0.45 0.001,0.472c-0.032,0.029 -0.08,0.061 -0.147,0.08c-0.074,0.02 -0.241,0.019 -0.287,0.023l-0.778,0.05c-0.148,0.029 -0.282,0.077 -0.41,0.136c-0.221,0.102 -0.428,0.23 -0.653,0.348l-0.521,0.268c-0.019,0.014 -0.03,0.063 -0.044,0.113c0.043,-0.01 0.086,-0.019 0.129,-0.026l0.007,-0.002c0.129,-0.038 0.257,-0.079 0.385,-0.079c0.139,0.001 0.196,0.069 0.211,0.084c0.115,0.113 0.134,0.239 0.031,0.378c-0.015,0.02 -0.056,0.077 -0.15,0.107c-0.022,0.007 -0.106,0.023 -0.139,0.032l-0.247,0.049l-0.01,0.002c-0.053,0.018 -0.107,0.036 -0.162,0.046c-0.018,0.004 -0.036,0.007 -0.054,0.009l-0.009,0.003c-0.128,0.041 -0.253,0.093 -0.381,0.143c-0.334,0.131 -0.747,0.338 -1.012,0.636c-0.139,0.157 -0.234,0.341 -0.223,0.557c0.039,-0.019 0.091,0.065 0.13,0.076c0.256,0.076 0.529,0.044 0.785,0.076c0.086,0.011 0.171,0.027 0.254,0.052c0.068,0.02 0.136,0.012 0.203,-0.002c0.105,-0.021 0.209,-0.058 0.315,-0.089c0.068,-0.019 0.163,-0.066 0.251,-0.085c0.09,-0.019 0.177,-0.016 0.253,0.006c0.069,0.02 0.159,0.071 0.208,0.196c0.013,0.032 0.028,0.129 0.034,0.176c0.022,0.054 0.04,0.103 0.065,0.148c0.013,0.022 0.029,0.041 0.056,0.059l0.312,0.06c0.268,0.066 0.623,0.1 0.955,0.054c0.222,-0.03 0.437,-0.095 0.589,-0.229c0.006,-0.015 0.014,-0.029 0.021,-0.041c0.017,-0.027 0.118,-0.142 0.155,-0.171c0.1,-0.08 0.193,-0.079 0.228,-0.078c0.105,0.005 0.183,0.05 0.238,0.115c0.045,0.053 0.102,0.139 0.076,0.278c-0.001,0.005 -0.003,0.013 -0.005,0.023c0.293,-0.014 0.592,-0.055 0.883,-0.123c0.349,-0.082 0.687,-0.202 0.995,-0.36c0.34,-0.174 0.695,-0.331 1.036,-0.509c0.118,-0.062 0.235,-0.126 0.348,-0.195c0.078,-0.087 0.163,-0.162 0.229,-0.214c0.007,-0.005 0.107,-0.087 0.149,-0.115c0.241,-0.163 0.456,-0.007 0.487,0.023c0.093,0.085 0.233,0.316 0.022,0.563c0.301,-0.042 0.569,-0.142 0.819,-0.274c0.474,-0.251 0.884,-0.618 1.314,-0.968c0.129,-0.104 0.326,-0.2 0.496,-0.313c0.044,-0.029 0.09,-0.053 0.111,-0.092c-0.049,0.091 -0.094,0.177 -0.136,0.258l0.147,-0.278c-0,0 0.172,0.438 0.387,0.587l0.547,-0.355l1.77,-0.953l0.026,-0.017c0.003,-0.016 0.006,-0.033 0.01,-0.049c0.058,-0.216 0.248,-0.362 0.461,-0.371Zm-2.621,1.783c-0.039,-0.007 -0.091,-0.008 -0.137,-0.007c0.045,0.019 0.091,0.023 0.137,0.007Z"/><path d="M3.695,12.898c-0.002,0.029 -0,0.056 0.003,0.081c0.014,0.117 0.061,0.213 0.131,0.287c-0.013,0.017 -0.024,0.033 -0.034,0.049c-0.067,0.105 -0.097,0.208 -0.103,0.286c-0.017,0.213 0.065,0.376 0.245,0.483l0.004,0.002c-0.049,0.062 -0.113,0.147 -0.16,0.232c-0.056,0.101 -0.091,0.204 -0.101,0.292c-0.027,0.233 0.056,0.419 0.262,0.539c0.047,0.027 0.096,0.05 0.148,0.068c0.003,0.028 0.008,0.054 0.015,0.077c0.022,0.077 0.058,0.146 0.116,0.202c-0.032,0.064 -0.056,0.127 -0.064,0.181c-0.032,0.228 0.052,0.403 0.245,0.509c0.051,0.028 0.105,0.05 0.16,0.065c0.013,0.2 0.126,0.316 0.28,0.371c0.141,0.05 0.309,0.046 0.485,-0.028c-0.03,0.114 -0.054,0.23 -0.073,0.349c-0.006,0.039 -0.041,0.234 -0.045,0.392c-0.003,0.12 0.014,0.226 0.04,0.295c0.039,0.103 0.099,0.173 0.169,0.219l-0.016,0.052c-0.024,0.074 -0.084,0.222 -0.089,0.294c-0.004,0.057 0.002,0.107 0.015,0.15c-0.169,0.268 -0.193,0.543 -0.106,0.754c0.051,0.126 0.145,0.229 0.285,0.284c0.006,0.01 0.013,0.02 0.019,0.028c0.013,0.017 0.026,0.032 0.04,0.045c-0.01,0.074 -0.014,0.149 -0.003,0.207c0.029,0.158 0.118,0.264 0.24,0.318c0.059,0.027 0.119,0.043 0.18,0.048c-0.003,0.031 -0.004,0.061 -0.003,0.09c0.003,0.148 0.052,0.271 0.123,0.348c0.163,0.18 0.361,0.217 0.576,0.148c0.056,-0.019 0.115,-0.047 0.174,-0.084c-0.006,0.112 -0.007,0.287 0.024,0.358c0.031,0.073 0.074,0.124 0.125,0.158c-0.016,0.044 -0.028,0.088 -0.034,0.125c-0.019,0.125 0.011,0.228 0.057,0.295c0.069,0.103 0.155,0.145 0.24,0.159c0.042,0.006 0.085,0.006 0.131,-0.003l0,0.006c0.006,0.089 0.034,0.16 0.065,0.206c0.084,0.125 0.195,0.174 0.318,0.176c0.078,0.002 0.167,-0.021 0.253,-0.069c0.109,-0.061 0.219,-0.17 0.253,-0.204l0.308,-0.336c0.023,0.077 0.072,0.126 0.117,0.156c0.034,0.024 0.099,0.064 0.184,0.06c-0.004,0.081 0.009,0.152 0.03,0.202c0.041,0.097 0.11,0.158 0.199,0.188c0.072,0.025 0.152,0.031 0.237,0.018c-0.006,0.048 -0.008,0.092 -0.001,0.122c0.022,0.109 0.083,0.177 0.151,0.217c0.127,0.075 0.282,0.077 0.44,-0.001c0.113,-0.056 0.231,-0.163 0.31,-0.242c0.004,0.043 0.012,0.084 0.025,0.118c0.043,0.116 0.122,0.193 0.227,0.23c0.125,0.044 0.257,0.025 0.382,-0.054c0.124,-0.079 0.242,-0.242 0.288,-0.3c0.123,-0.155 0.24,-0.314 0.354,-0.475l0.058,-0.082c-0.016,0.155 -0.023,0.355 0.02,0.476c0.039,0.111 0.108,0.186 0.188,0.23c0.097,0.054 0.233,0.082 0.412,-0.017c0.133,-0.074 0.255,-0.179 0.367,-0.306c0.046,0.079 0.114,0.134 0.2,0.163c0.198,0.068 0.411,0.012 0.604,-0.148c0.221,-0.182 0.421,-0.521 0.518,-0.689l0.004,0.004c0.077,0.068 0.172,0.1 0.291,0.075c0.177,-0.037 0.359,-0.147 0.529,-0.305c0.203,-0.188 0.393,-0.446 0.547,-0.651c-0.001,0.087 0.001,0.276 0.027,0.337c0.048,0.116 0.133,0.167 0.208,0.191c0.077,0.024 0.168,0.026 0.268,-0.035c0.198,-0.12 0.365,-0.327 0.497,-0.581c0.225,-0.431 0.357,-1.011 0.491,-1.348l0.141,-0.304l0.186,-0.292c0.077,-0.163 0.018,-0.265 0.008,-0.287c-0.01,-0.022 -0.042,-0.063 -0.088,-0.102c0.021,-0.074 0.042,-0.148 0.062,-0.222c0.013,-0.05 0.12,-0.325 0.144,-0.496c0.025,-0.177 -0.031,-0.311 -0.088,-0.379c-0.028,-0.032 -0.059,-0.06 -0.092,-0.083c0.002,-0.013 0.004,-0.026 0.005,-0.039c0.02,-0.186 -0.034,-0.341 -0.144,-0.452c-0.125,-0.127 -0.306,-0.184 -0.525,-0.15c-0.131,0.02 -0.286,0.083 -0.434,0.158c-0.109,-0.101 -0.26,-0.153 -0.447,-0.138c-0.085,0.007 -0.184,0.034 -0.285,0.071c-0.022,-0.033 -0.048,-0.063 -0.078,-0.09c-0.07,-0.066 -0.175,-0.125 -0.329,-0.143c-0.002,-0.014 -0.005,-0.027 -0.008,-0.041c-0.046,-0.185 -0.197,-0.421 -0.668,-0.359c-0.208,0.027 -0.411,0.091 -0.608,0.176c-0.028,0.012 -0.055,0.024 -0.083,0.037c-0.049,-0.027 -0.108,-0.047 -0.176,-0.059c-0.257,-0.044 -0.525,-0.003 -0.788,0.096c-0.079,0.03 -0.159,0.065 -0.237,0.105c-0.089,-0.095 -0.219,-0.159 -0.379,-0.174c-0.174,-0.015 -0.402,0.041 -0.499,0.076c-0.206,0.074 -0.406,0.167 -0.603,0.272c-0.235,-0.031 -0.492,0.017 -0.751,0.124c-0.067,0.028 -0.135,0.06 -0.203,0.096c-0.038,-0.038 -0.083,-0.068 -0.13,-0.09c-0.132,-0.065 -0.287,-0.085 -0.45,-0.064c-0.207,0.027 -0.436,0.137 -0.577,0.209c-0.239,0.121 -0.462,0.267 -0.67,0.431c-0.101,0.08 -0.198,0.164 -0.291,0.251c-0.051,0.016 -0.101,0.036 -0.151,0.06c-0.185,0.09 -0.365,0.248 -0.487,0.356l-0.07,0.071c-0.041,-0.027 -0.086,-0.049 -0.135,-0.067c-0.038,-0.013 -0.08,-0.023 -0.125,-0.03c0.095,-0.205 0.188,-0.412 0.268,-0.626c0.073,-0.197 -0.015,-0.306 -0.027,-0.327c-0.018,-0.028 -0.106,-0.109 -0.219,-0.149l0.024,-0.065c0.022,-0.053 0.077,-0.112 0.112,-0.17c0.05,-0.086 0.079,-0.172 0.089,-0.247c0.019,-0.155 -0.023,-0.293 -0.151,-0.41c-0.068,-0.062 -0.135,-0.092 -0.198,-0.103c0.016,-0.045 0.032,-0.09 0.048,-0.136c0.049,-0.146 0.011,-0.237 -0.004,-0.275c-0.048,-0.129 -0.13,-0.202 -0.235,-0.236l0.003,-0.004c0.08,-0.138 0.076,-0.271 0.024,-0.391c-0.034,-0.076 -0.098,-0.194 -0.285,-0.249c-0.077,-0.023 -0.153,-0.029 -0.228,-0.021l0,-0.317c-0.114,0.001 -0.238,0.025 -0.366,0.071l0.014,-0.007l0.387,-0.184c0.054,-0.026 0.185,-0.094 0.212,-0.117c0.13,-0.107 0.159,-0.229 0.168,-0.299c0.018,-0.138 -0.018,-0.26 -0.109,-0.364c-0.037,-0.043 -0.129,-0.159 -0.336,-0.162c0.017,-0.118 -0.017,-0.217 -0.025,-0.24c-0.037,-0.115 -0.143,-0.345 -0.479,-0.328c-0.008,0 -0.036,0.001 -0.078,0.01c-0.005,-0.039 -0.015,-0.076 -0.027,-0.109c-0.009,-0.026 -0.021,-0.052 -0.035,-0.077c0.141,-0.28 -0.009,-0.466 -0.077,-0.543c-0.082,-0.094 -0.223,-0.204 -0.456,-0.167c-0.043,0.007 -0.212,0.083 -0.278,0.121l-0.243,0.159c-0.096,0.072 -0.459,0.357 -0.592,0.584c-0.132,0.225 -0.129,0.443 -0.05,0.611c0.034,0.072 0.077,0.133 0.132,0.182Zm9.712,3.989c-0.121,0.131 -0.28,0.257 -0.45,0.34c-0.2,0.097 -0.415,0.134 -0.614,0.09c-0.195,-0.043 -0.273,-0.163 -0.307,-0.284c-0.08,0.095 -0.167,0.185 -0.258,0.27c-0.132,0.123 -0.274,0.236 -0.419,0.339c-0.072,0.051 -0.203,0.153 -0.327,0.204c-0.128,0.052 -0.256,0.063 -0.367,0.036c-0.228,-0.056 -0.298,-0.2 -0.317,-0.335c-0.027,0.017 -0.053,0.033 -0.079,0.049c-0.141,0.085 -0.287,0.163 -0.435,0.237c-0.032,0.016 -0.266,0.141 -0.423,0.169c-0.144,0.025 -0.267,-0.002 -0.355,-0.049c-0.084,0.079 -0.172,0.154 -0.26,0.217c-0.22,0.158 -0.449,0.246 -0.646,0.246c-0.082,0.075 -0.16,0.134 -0.217,0.164c-0.059,0.031 -0.184,0.076 -0.307,0.084c-0.12,0.009 -0.235,-0.014 -0.319,-0.055l-0.011,-0.006l-0.037,0.039c-0.009,0.053 -0.023,0.117 -0.035,0.15l-0.154,0.31c-0.051,0.082 -0.144,0.24 -0.26,0.399c-0.04,0.103 -0.074,0.205 -0.105,0.302c0.152,-0.16 0.28,-0.346 0.324,-0.404l0.167,-0.229c0.019,-0.023 0.051,-0.079 0.07,-0.102c0.052,-0.058 0.108,-0.086 0.147,-0.099c0.109,-0.037 0.204,-0.018 0.286,0.036c0.051,0.033 0.128,0.094 0.147,0.233c0.008,0.051 0.01,0.104 0.007,0.159c0.217,-0.22 0.472,0.028 0.5,0.081c0.005,0.011 0.032,0.049 0.038,0.111c0.063,0.013 0.109,0.046 0.136,0.067c0.065,0.052 0.136,0.14 0.116,0.287c-0.005,0.037 -0.079,0.183 -0.109,0.243l-0.116,0.226c-0.083,0.176 -0.165,0.358 -0.237,0.542c0.087,-0.1 0.173,-0.202 0.263,-0.301c0.092,-0.101 0.188,-0.2 0.29,-0.293c0.018,-0.016 0.309,-0.268 0.436,-0.322c0.179,-0.075 0.307,-0.01 0.379,0.068c0.067,-0.048 0.134,-0.063 0.184,-0.065c0.124,-0.004 0.27,0.034 0.322,0.257c0.023,0.1 0.011,0.198 -0.03,0.293c-0.038,0.085 -0.115,0.167 -0.164,0.247c-0.05,0.083 -0.104,0.168 -0.155,0.254c0.048,-0.048 0.088,-0.089 0.118,-0.115l0.25,-0.229c-0.004,0.004 -0.013,0.014 -0.013,0.014c-0,0 0.143,-0.142 0.172,-0.154c0.114,-0.046 0.208,-0.02 0.282,0.033c0.012,0.008 0.026,0.018 0.04,0.032l0.023,-0.044l0.101,-0.212c0.022,-0.047 0.052,-0.158 0.076,-0.205c0.03,-0.059 0.067,-0.096 0.094,-0.117c0.095,-0.074 0.191,-0.077 0.278,-0.047c0.055,0.019 0.147,0.06 0.192,0.201c0.017,0.051 0.023,0.116 0.014,0.188c-0.015,0.115 -0.087,0.273 -0.096,0.298c-0.08,0.222 -0.167,0.445 -0.245,0.67l0.071,-0.099c0.166,-0.235 0.326,-0.474 0.489,-0.711l0.345,-0.49c0.005,-0.007 0.135,-0.142 0.19,-0.191c0.259,-0.235 0.5,0.132 0.504,0.176c0.008,0.096 -0.006,0.203 -0.036,0.312c-0.047,0.166 -0.137,0.343 -0.18,0.474l-0.182,0.608l-0.002,0.01c0.035,-0.045 0.069,-0.093 0.101,-0.143c0.187,-0.285 0.331,-0.624 0.453,-0.866c0.003,-0.006 0.124,-0.328 0.208,-0.438c0.062,-0.082 0.133,-0.12 0.184,-0.136c0.131,-0.041 0.223,0.001 0.29,0.056c0.049,0.04 0.093,0.101 0.109,0.189c0.009,0.051 -0.009,0.165 -0.02,0.222l-0.079,0.269c-0.056,0.181 -0.129,0.364 -0.193,0.547c0.07,-0.108 0.125,-0.211 0.158,-0.268l0.208,-0.377l0.145,-0.308c0.009,-0.019 0.072,-0.234 0.144,-0.346c0.067,-0.105 0.154,-0.161 0.226,-0.183c0.135,-0.041 0.229,-0 0.3,0.055c0.053,0.042 0.1,0.105 0.118,0.198c0.012,0.057 -0.011,0.185 -0.015,0.251c-0.001,0.019 -0.011,0.08 -0.025,0.159c0.172,-0.206 0.324,-0.433 0.437,-0.572l0.319,-0.413c0.004,-0.005 0.09,-0.097 0.168,-0.156c0.071,-0.053 0.146,-0.082 0.196,-0.09c0.077,-0.013 0.144,-0.005 0.2,0.021c0.003,-0.009 0.006,-0.018 0.01,-0.027c0.017,-0.04 0.087,-0.177 0.119,-0.23l0.03,-0.045c0.055,-0.11 0.104,-0.224 0.149,-0.339c0.066,-0.169 0.124,-0.342 0.176,-0.516c-0.022,0.02 -0.042,0.037 -0.06,0.046c-0.089,0.049 -0.175,0.056 -0.25,0.042c-0.093,-0.017 -0.19,-0.064 -0.257,-0.189c-0.04,-0.075 -0.071,-0.192 -0.007,-0.331c0.042,-0.093 0.228,-0.286 0.24,-0.298c0.024,-0.026 0.089,-0.095 0.173,-0.175l0.012,-0.022c0.014,-0.028 0.028,-0.056 0.043,-0.083l0.035,-0.069c-0.103,0.054 -0.203,0.117 -0.285,0.172c-0.014,0.024 -0.029,0.048 -0.045,0.071c-0.118,0.17 -0.28,0.305 -0.411,0.354c-0.111,0.042 -0.217,0.043 -0.309,0.016c-0.107,-0.033 -0.175,-0.099 -0.215,-0.185c-0.015,-0.03 -0.032,-0.073 -0.037,-0.128c-0.074,0.071 -0.152,0.129 -0.226,0.165c-0.153,0.074 -0.3,0.077 -0.418,0.035c-0.224,-0.082 -0.256,-0.238 -0.244,-0.37c-0.058,0.032 -0.114,0.059 -0.151,0.07c-0.286,0.085 -0.433,-0.093 -0.482,-0.224c-0.002,-0.005 -0.004,-0.011 -0.006,-0.018Z"/><g id="Lentes"><path d="M2.596,11.154c0.08,-0.057 0.272,-0.021 0.364,-0.021c0.258,0 0.557,-0.007 0.815,-0.046c1.041,-0.156 2.1,-0.111 3.158,-0.134c0.441,-0.009 1.12,0.111 1.546,-0.042" style="fill:#fff;fill-opacity:0.45;"/><path d="M2.75,11.63c0.036,0.037 0.162,-0.029 0.21,-0.034c0.164,-0.015 0.341,-0.033 0.516,-0.06c0.123,-0.019 0.243,-0.038 0.356,-0.066c0.249,-0.056 0.498,-0.107 0.751,-0.139c0.257,-0.033 0.515,-0.057 0.774,-0.068c0.209,-0.008 0.419,-0.01 0.629,-0.004c0.318,0.008 0.635,0.035 0.954,0.048c0.309,0.021 0.723,0.11 1.099,0.131c0.221,0.013 0.427,-0.012 0.609,-0.056c0.26,-0.093 0.395,-0.38 0.302,-0.639c-0.093,-0.26 -0.38,-0.396 -0.639,-0.303c-0.124,0.059 -0.278,0.097 -0.444,0.112c-0.329,0.03 -0.678,0.018 -0.942,0.047c-0.315,0.026 -0.628,0.056 -0.943,0.067c-0.298,0.01 -0.596,0.011 -0.894,0.01c-0.459,-0.001 -0.914,-0.01 -1.371,0.028c-0.118,0.007 -0.243,0.003 -0.369,-0.003c-0.134,-0.006 -0.265,-0.019 -0.388,-0.031c-0.093,-0.009 -0.261,-0.036 -0.383,-0.026c-0.11,0.008 -0.196,0.06 -0.273,0.105c-0.224,0.161 -0.275,0.474 -0.113,0.697c0.13,0.181 0.358,0.249 0.559,0.184Z"/><path d="M8.834,10.101l-0.001,-0c-0.135,-0 -0.257,0.053 -0.347,0.141c-0.047,-0.008 -0.117,0.124 -0.145,0.161l-0.183,0.326c-0.085,0.175 -0.147,0.361 -0.183,0.554c-0.033,0.182 -0.048,0.367 -0.043,0.55c0.013,0.519 0.14,1.011 0.37,1.458c0.22,0.43 0.528,0.82 0.912,1.149c0.708,0.609 1.527,1.003 2.393,1.176c0.855,0.171 1.756,0.132 2.636,-0.139c0.444,-0.134 0.848,-0.301 1.19,-0.561c0.234,-0.179 0.441,-0.401 0.609,-0.687c0.137,-0.231 0.221,-0.492 0.27,-0.763c0.068,-0.379 0.063,-0.779 0.026,-1.14c-0.061,-0.652 -0.258,-1.31 -0.594,-1.874c-0.348,-0.585 -0.85,-1.065 -1.517,-1.342c-0.392,-0.165 -0.814,-0.24 -1.245,-0.265c-0.602,-0.036 -1.222,0.034 -1.795,0.101c-0.373,0.043 -0.688,0.141 -0.978,0.272c-0.42,0.19 -0.784,0.462 -1.198,0.772c-0.03,0.022 -0.097,0.062 -0.177,0.111Zm0.168,1.118c-0.041,0.083 -0.074,0.17 -0.095,0.261c-0.028,0.116 -0.045,0.235 -0.048,0.353c-0.01,0.382 0.065,0.748 0.217,1.084c0.156,0.344 0.384,0.659 0.671,0.929c0.584,0.548 1.271,0.92 2.008,1.096c0.745,0.178 1.537,0.161 2.317,-0.053c0.312,-0.087 0.605,-0.189 0.861,-0.345c0.24,-0.146 0.447,-0.34 0.609,-0.612c0.128,-0.215 0.193,-0.466 0.221,-0.723c0.03,-0.277 0.016,-0.561 -0.014,-0.82c-0.067,-0.559 -0.245,-1.124 -0.55,-1.6c-0.29,-0.453 -0.698,-0.82 -1.232,-1.019c-0.322,-0.119 -0.664,-0.161 -1.012,-0.166c-0.556,-0.007 -1.124,0.091 -1.65,0.178c-0.273,0.046 -0.501,0.129 -0.71,0.237c-0.352,0.182 -0.647,0.438 -0.989,0.723c-0.063,0.053 -0.339,0.401 -0.456,0.337c-0.039,0.056 -0.089,0.104 -0.148,0.14Z"/><path d="M15.224,10.781c-0.085,-0.015 0.219,-0.172 0.251,-0.184c0.191,-0.074 0.399,-0.137 0.601,-0.164c0.388,-0.052 0.863,-0.049 1.249,0.017c0.132,0.023 0.239,0.039 0.363,0.088c0.031,0.012 0.191,0.091 0.191,0.067" style="fill:#fff;fill-opacity:0.45;"/><path d="M15.692,10.958c0.057,-0.037 0.115,-0.074 0.179,-0.104c0.082,-0.038 0.163,-0.075 0.249,-0.099c0.09,-0.022 0.184,-0.047 0.284,-0.057c0.096,-0.01 0.196,-0.014 0.294,-0.006c0.2,0.016 0.388,0.078 0.562,0.133c0.059,0.022 0.108,0.043 0.159,0.066c0.037,0.016 0.063,0.045 0.101,0.069c0.033,0.023 0.18,0.106 0.24,0.133c0.1,0.045 0.184,0 0.239,-0.001c0.076,-0.002 0.121,-0.059 0.175,-0.083c0.03,-0.012 0.044,-0.044 0.07,-0.061c0.103,-0.07 0.101,-0.2 0.135,-0.343c-0,-0.276 -0.224,-0.5 -0.5,-0.5c-0.02,-0 -0.039,0.001 -0.059,0.004c-0.06,-0.013 -0.114,-0.026 -0.172,-0.028c-0.085,-0.004 -0.164,-0.008 -0.259,-0.006l-1.356,0.037c-0.097,-0.001 -0.192,0.011 -0.29,0.02c-0.146,0.013 -0.283,0.038 -0.422,0.065c-0.032,0.005 -0.216,0.076 -0.336,0.128c-0.087,0.037 -0.13,0.107 -0.167,0.14c-0.102,0.091 -0.085,0.212 -0.104,0.293c-0.009,0.039 0.009,0.074 0.009,0.112c-0.001,0.141 0.116,0.23 0.265,0.352c0.034,0.027 0.089,0.027 0.148,0.051c0.241,0.043 0.472,-0.094 0.556,-0.315Zm-0.042,0.026l-0.02,0.012c0.002,-0.001 0.01,-0.005 0.014,-0l0.001,0.002l0.005,-0.014Zm1.734,-0.45c-0.006,0.023 -0.011,0.046 -0.005,0.071c-0,-0.024 0.002,-0.048 0.005,-0.071Zm0.087,-0.218c-0.041,0.043 -0.071,0.091 -0.074,0.154c0.016,-0.056 0.041,-0.108 0.074,-0.154Zm-1.954,0.06l-0.02,-0.014c0.014,0.008 0.026,0.017 0.037,0.027l-0.017,-0.013Zm-0.116,-0.062c-0.025,-0.014 -0.053,-0.026 -0.089,-0.025c0.031,0.005 0.061,0.014 0.089,0.025Z"/><path d="M17.01,10.254l-0.011,0.007c-0.173,0.142 -0.283,0.384 -0.399,0.565c-0.259,0.401 -0.395,0.881 -0.395,1.364c-0.001,0.477 0.118,0.955 0.362,1.348c0.567,0.92 1.562,1.505 2.644,1.709c1.061,0.2 2.197,0.044 3.051,-0.506c0.214,-0.137 0.399,-0.306 0.565,-0.494c0.229,-0.258 0.423,-0.551 0.62,-0.828c0.109,-0.151 0.305,-0.257 0.443,-0.396c0.097,-0.1 0.173,-0.211 0.216,-0.341c0.076,-0.226 0.082,-0.479 0.048,-0.736c-0.044,-0.33 -0.157,-0.667 -0.251,-0.94c-0.07,-0.205 -0.122,-0.435 -0.204,-0.646c-0.043,-0.111 -0.095,-0.216 -0.158,-0.313c-0.149,-0.229 -0.324,-0.481 -0.526,-0.696c-0.153,-0.163 -0.324,-0.303 -0.509,-0.404c-0.43,-0.238 -0.909,-0.295 -1.397,-0.256c-0.647,0.052 -1.311,0.29 -1.871,0.478c-0.28,0.094 -0.567,0.208 -0.85,0.335c-0.284,0.128 -0.562,0.271 -0.819,0.422c-0.048,0.029 -0.319,0.133 -0.417,0.197c-0.062,0.04 -0.108,0.085 -0.142,0.131Zm0.611,0.815c0.026,0.088 -0.17,0.21 -0.233,0.297c-0.178,0.244 -0.278,0.544 -0.295,0.849c-0.018,0.316 0.041,0.638 0.188,0.906c0.42,0.76 1.209,1.254 2.071,1.452c0.89,0.205 1.857,0.103 2.594,-0.34c0.168,-0.103 0.313,-0.233 0.444,-0.378c0.218,-0.24 0.4,-0.515 0.588,-0.773c0.123,-0.174 0.339,-0.303 0.494,-0.465c0.033,-0.034 0.062,-0.07 0.076,-0.115c0.045,-0.145 0.039,-0.307 0.013,-0.47c-0.046,-0.288 -0.158,-0.578 -0.247,-0.814c-0.064,-0.169 -0.114,-0.358 -0.183,-0.537c-0.036,-0.094 -0.079,-0.185 -0.135,-0.264c-0.136,-0.192 -0.293,-0.404 -0.475,-0.582c-0.105,-0.104 -0.22,-0.193 -0.345,-0.255c-0.309,-0.152 -0.647,-0.165 -0.986,-0.121c-0.578,0.076 -1.159,0.332 -1.652,0.528c-0.248,0.099 -0.502,0.215 -0.749,0.344c-0.246,0.128 -0.483,0.269 -0.703,0.416c-0.021,0.014 -0.098,0.085 -0.177,0.141c-0.071,0.091 -0.172,0.156 -0.288,0.181Z"/></g></g></svg>