<?xml version="1.0" encoding="UTF-8" standalone="no"?><!DOCTYPE svg PUBLIC "-//W3C//DTD SVG 1.1//EN" "http://www.w3.org/Graphics/SVG/1.1/DTD/svg11.dtd"><svg width="100%" height="100%" viewBox="0 0 19 19" version="1.1" xmlns="http://www.w3.org/2000/svg" xmlns:xlink="http://www.w3.org/1999/xlink" xml:space="preserve" xmlns:serif="http://www.serif.com/" style="fill-rule:evenodd;clip-rule:evenodd;stroke-linejoin:round;stroke-miterlimit:2" fill-rule="evenodd" clip-rule="evenodd" stroke-linejoin="round" stroke-miterlimit="2" vector-effect="non-scaling-stroke"><g id="Cara"><g id="Light.Hair"><path d="M12.611,4.401c-0,-0.31 0.696,-0.429 0.89,-0.475c0.253,-0.06 0.505,-0.089 0.761,-0.132c0.579,-0.099 1.432,-0.329 1.89,0.21c0.13,0.153 0.196,0.673 0.116,0.851c-0.087,0.19 -0.247,0.314 -0.349,0.489c-0.089,0.151 0.155,0.187 0.086,0.347c-0.134,0.311 -0.608,0.331 -0.882,0.366c-0.089,0.012 -0.291,0.063 -0.383,0.022c-0.208,-0.095 -0.426,-0.5 -0.591,-0.657c-0.363,-0.347 -0.822,-0.542 -1.205,-0.848c-0.095,-0.077 -0.141,-0.207 -0.212,-0.27" class="dark:hidden"/><path d="M12.61,4.776c0.039,0.029 0.08,0.055 0.11,0.077c0.286,0.209 0.605,0.361 0.906,0.55c0.111,0.07 0.22,0.143 0.321,0.232c0.13,0.115 0.298,0.376 0.463,0.528c0.075,0.069 0.149,0.123 0.222,0.154c0.06,0.024 0.141,0.04 0.23,0.035c0.104,-0.007 0.226,-0.037 0.293,-0.048c0.213,-0.033 0.533,-0.067 0.758,-0.199c0.132,-0.077 0.239,-0.181 0.297,-0.325c0.062,-0.149 0.036,-0.374 -0.032,-0.43c0.056,-0.072 0.118,-0.138 0.172,-0.211c0.044,-0.06 0.085,-0.123 0.117,-0.194c0.053,-0.113 0.069,-0.336 0.043,-0.556c-0.026,-0.222 -0.099,-0.435 -0.181,-0.535c-0.221,-0.274 -0.524,-0.394 -0.854,-0.437c-0.421,-0.055 -0.894,0.036 -1.263,0.085l-0.787,0.106c-0.151,0.029 -0.56,0.097 -0.82,0.238c-0.239,0.13 -0.359,0.334 -0.369,0.555c-0,0.207 0.167,0.375 0.374,0.375Zm3.167,0.864c-0.035,-0.052 -0.089,-0.14 -0.095,-0.199c-0.006,-0.06 0.002,-0.129 0.048,-0.207c0.076,-0.13 0.182,-0.234 0.27,-0.354c0.026,-0.035 0.05,-0.073 0.068,-0.116c0.029,-0.064 0.017,-0.192 -0.001,-0.316c-0.018,-0.12 -0.045,-0.241 -0.091,-0.294c-0.147,-0.163 -0.343,-0.22 -0.551,-0.234c-0.377,-0.025 -0.789,0.098 -1.113,0.166l-0.736,0.158c-0.053,0.015 -0.155,0.096 -0.264,0.168c0.216,0.167 0.45,0.31 0.669,0.476c0.13,0.098 0.256,0.202 0.371,0.321c0.112,0.116 0.247,0.348 0.388,0.521c0.034,0.041 0.062,0.081 0.095,0.103c0.043,-0.003 0.204,-0.017 0.257,-0.022c0.127,-0.013 0.301,-0.019 0.46,-0.059c0.087,-0.023 0.175,-0.048 0.225,-0.112Z" class="dark:hidden"/></g><path d="M1.465,11.074c0.042,0.196 0.131,0.499 0.257,0.716c0.127,0.216 0.322,0.401 0.503,0.583c0.184,0.186 0.411,0.345 0.604,0.531c0.207,0.198 0.455,0.425 0.633,0.659c0.174,0.228 0.34,0.472 0.437,0.742c0.098,0.271 0.099,0.589 0.151,0.883c0.054,0.305 0.096,0.644 0.175,0.948c0.076,0.299 0.158,0.681 0.295,0.877c0.115,0.166 0.365,0.179 0.525,0.302c0.219,0.169 0.534,0.582 0.792,0.712c0.226,0.113 0.504,0.035 0.755,0.066c0.427,0.053 1.298,0.262 1.806,0.251c0.427,-0.008 0.914,-0.198 1.242,-0.314c0.257,-0.09 0.5,-0.224 0.724,-0.379c0.23,-0.159 0.447,-0.373 0.657,-0.574c0.236,-0.226 0.543,-0.515 0.759,-0.782c0.204,-0.254 0.388,-0.591 0.533,-0.82c0.116,-0.181 0.278,-0.398 0.339,-0.55c0.045,-0.113 0.042,-0.275 0.026,-0.362c-0.012,-0.067 -0.186,-0.151 -0.119,-0.164c0.082,-0.016 0.409,0.062 0.616,0.068c0.261,0.007 0.636,0.021 0.949,-0.024c0.324,-0.047 0.726,-0.137 0.996,-0.257c0.235,-0.104 0.474,-0.254 0.621,-0.458c0.146,-0.204 0.22,-0.499 0.255,-0.765c0.052,-0.387 0.04,-1.12 0.055,-1.558c0.012,-0.357 0.092,-0.718 0.037,-1.071c-0.063,-0.403 -0.266,-0.904 -0.414,-1.351c-0.221,-0.668 -0.695,-2.075 -0.91,-2.657c-0.105,-0.286 -0.163,-0.617 -0.378,-0.833c-0.296,-0.297 -0.981,-0.708 -1.399,-0.949c-0.352,-0.203 -0.724,-0.376 -1.11,-0.5c-0.445,-0.144 -1.046,-0.302 -1.56,-0.361c-0.504,-0.057 -1.016,-0.035 -1.522,0.009c-0.6,0.054 -1.402,0.122 -2.076,0.31c-0.686,0.192 -1.449,0.516 -2.038,0.841c-0.544,0.3 -1.12,0.78 -1.496,1.111c-0.29,0.255 -0.588,0.618 -0.761,0.874c-0.135,0.198 -0.197,0.437 -0.281,0.661c-0.086,0.228 -0.188,0.465 -0.235,0.71c-0.06,0.311 -0.057,0.774 -0.126,1.156c-0.073,0.402 -0.259,0.973 -0.311,1.259c-0.028,0.151 -0.038,0.31 -0.006,0.46Z" style="fill:#fff"/><path d="M12.927,14.671l0.241,0.029c0.165,0.004 0.373,0.011 0.583,0.004c0.138,-0.005 0.277,-0.014 0.405,-0.034c0.198,-0.029 0.424,-0.074 0.633,-0.131c0.155,-0.043 0.301,-0.092 0.422,-0.146c0.156,-0.07 0.314,-0.159 0.45,-0.267c0.1,-0.079 0.19,-0.169 0.261,-0.269c0.071,-0.1 0.128,-0.218 0.173,-0.345c0.059,-0.166 0.097,-0.348 0.12,-0.52c0.017,-0.132 0.028,-0.302 0.034,-0.488c0.013,-0.367 0.01,-0.796 0.02,-1.091c0.008,-0.25 0.049,-0.503 0.054,-0.753c0.003,-0.12 -0.003,-0.24 -0.021,-0.359c-0.022,-0.138 -0.058,-0.287 -0.103,-0.441c-0.091,-0.308 -0.217,-0.639 -0.318,-0.945l-0.902,-2.668c-0.076,-0.207 -0.129,-0.436 -0.228,-0.633c-0.052,-0.105 -0.117,-0.201 -0.2,-0.285c-0.133,-0.134 -0.339,-0.292 -0.567,-0.447c-0.297,-0.203 -0.632,-0.404 -0.877,-0.547c-0.182,-0.107 -0.369,-0.205 -0.561,-0.294c-0.193,-0.089 -0.391,-0.168 -0.593,-0.234c-0.232,-0.077 -0.506,-0.158 -0.789,-0.227c-0.274,-0.067 -0.556,-0.123 -0.817,-0.155c-0.263,-0.032 -0.529,-0.043 -0.795,-0.04c-0.261,0.002 -0.522,0.017 -0.781,0.038c-0.372,0.03 -0.822,0.066 -1.272,0.131c-0.293,0.043 -0.585,0.098 -0.858,0.172c-0.35,0.095 -0.719,0.223 -1.077,0.368c-0.367,0.148 -0.722,0.315 -1.031,0.481c-0.22,0.119 -0.446,0.266 -0.663,0.421c-0.34,0.244 -0.658,0.508 -0.898,0.716c-0.15,0.129 -0.302,0.285 -0.441,0.442c-0.15,0.172 -0.284,0.345 -0.383,0.487c-0.051,0.074 -0.095,0.154 -0.133,0.236c-0.074,0.159 -0.127,0.329 -0.19,0.492c-0.054,0.141 -0.114,0.285 -0.165,0.432c-0.037,0.109 -0.069,0.22 -0.092,0.332l-0.137,1.158l-0.325,1.256c-0.018,0.094 -0.03,0.191 -0.033,0.288c-0.004,0.107 0.004,0.214 0.026,0.317l-0,0.001c0.03,0.135 0.08,0.316 0.148,0.491c0.046,0.117 0.099,0.232 0.158,0.331c0.063,0.106 0.139,0.206 0.223,0.302c0.107,0.122 0.226,0.237 0.341,0.351l0.616,0.531c0.122,0.115 0.258,0.239 0.386,0.369c0.078,0.08 0.153,0.161 0.217,0.244c0.081,0.104 0.16,0.211 0.231,0.323c0.064,0.103 0.122,0.211 0.164,0.324c0.024,0.065 0.042,0.134 0.055,0.205c0.038,0.203 0.051,0.418 0.089,0.621c0.04,0.215 0.074,0.445 0.119,0.669c0.02,0.103 0.043,0.204 0.069,0.302c0.055,0.207 0.113,0.453 0.189,0.654c0.046,0.126 0.1,0.237 0.16,0.321c0.045,0.064 0.1,0.118 0.163,0.162c0.072,0.049 0.154,0.087 0.24,0.121c0.065,0.025 0.136,0.043 0.191,0.084c0.145,0.11 0.334,0.332 0.519,0.499c0.112,0.101 0.223,0.185 0.326,0.236c0.103,0.051 0.212,0.077 0.326,0.087c0.171,0.016 0.356,-0.017 0.527,0.003c0.296,0.034 0.805,0.141 1.259,0.199c0.216,0.027 0.421,0.044 0.589,0.039c0.184,-0.005 0.378,-0.039 0.568,-0.088c0.279,-0.072 0.549,-0.175 0.757,-0.25c0.14,-0.051 0.277,-0.113 0.409,-0.184c0.13,-0.07 0.255,-0.148 0.375,-0.232c0.101,-0.071 0.199,-0.151 0.296,-0.237c0.133,-0.118 0.263,-0.245 0.389,-0.368c0.144,-0.139 0.312,-0.301 0.471,-0.468c0.11,-0.114 0.215,-0.23 0.305,-0.343c0.083,-0.105 0.164,-0.223 0.24,-0.342c0.113,-0.179 0.216,-0.362 0.305,-0.503c0.077,-0.122 0.174,-0.26 0.248,-0.384c0.046,-0.075 0.083,-0.146 0.107,-0.208c0.025,-0.062 0.041,-0.134 0.048,-0.207c0.005,-0.046 0.006,-0.093 0.005,-0.136Zm-0.478,-0.018c0.001,0.024 0.001,0.051 -0,0.079c-0.003,0.036 -0.008,0.073 -0.02,0.103c-0.017,0.041 -0.043,0.087 -0.073,0.136c-0.075,0.121 -0.172,0.255 -0.248,0.374c-0.09,0.139 -0.195,0.32 -0.31,0.497c-0.067,0.104 -0.138,0.206 -0.212,0.296c-0.082,0.101 -0.178,0.204 -0.278,0.306c-0.157,0.16 -0.323,0.315 -0.464,0.448c-0.122,0.116 -0.248,0.237 -0.376,0.348c-0.083,0.071 -0.167,0.137 -0.253,0.196c-0.104,0.071 -0.213,0.137 -0.325,0.195c-0.11,0.057 -0.223,0.107 -0.339,0.147c-0.196,0.067 -0.449,0.162 -0.711,0.226c-0.15,0.036 -0.303,0.062 -0.447,0.064c-0.144,0.002 -0.318,-0.017 -0.503,-0.044c-0.455,-0.065 -0.965,-0.181 -1.262,-0.221c-0.157,-0.02 -0.325,-0.002 -0.486,-0.008c-0.06,-0.002 -0.118,-0.008 -0.171,-0.035c-0.06,-0.031 -0.122,-0.085 -0.187,-0.146c-0.196,-0.183 -0.397,-0.421 -0.552,-0.542c-0.048,-0.038 -0.102,-0.07 -0.159,-0.098c-0.063,-0.031 -0.131,-0.056 -0.196,-0.083c-0.038,-0.016 -0.079,-0.024 -0.101,-0.056c-0.044,-0.065 -0.076,-0.157 -0.107,-0.257c-0.052,-0.168 -0.094,-0.358 -0.135,-0.521c-0.028,-0.115 -0.051,-0.234 -0.071,-0.354c-0.033,-0.193 -0.059,-0.389 -0.09,-0.572c-0.034,-0.205 -0.044,-0.42 -0.078,-0.624c-0.018,-0.109 -0.044,-0.216 -0.079,-0.317c-0.045,-0.126 -0.102,-0.248 -0.168,-0.366c-0.091,-0.164 -0.2,-0.321 -0.312,-0.47c-0.078,-0.105 -0.169,-0.208 -0.264,-0.308c-0.131,-0.139 -0.272,-0.273 -0.398,-0.396l-0.593,-0.531c-0.101,-0.103 -0.207,-0.207 -0.3,-0.318c-0.053,-0.063 -0.101,-0.128 -0.141,-0.197c-0.048,-0.084 -0.088,-0.185 -0.121,-0.284c-0.04,-0.118 -0.069,-0.234 -0.087,-0.325l-0,0c-0.011,-0.046 -0.015,-0.094 -0.014,-0.142c0.001,-0.057 0.007,-0.115 0.017,-0.171l0.299,-1.263l0.114,-1.154c0.015,-0.083 0.038,-0.166 0.064,-0.246c0.045,-0.14 0.1,-0.277 0.149,-0.411c0.048,-0.131 0.088,-0.268 0.14,-0.398c0.027,-0.068 0.058,-0.134 0.098,-0.195c0.084,-0.126 0.199,-0.28 0.328,-0.432c0.117,-0.137 0.244,-0.274 0.371,-0.387c0.224,-0.201 0.522,-0.458 0.841,-0.695c0.192,-0.143 0.393,-0.28 0.589,-0.39c0.288,-0.163 0.619,-0.325 0.962,-0.471c0.334,-0.141 0.679,-0.267 1.006,-0.361c0.25,-0.072 0.519,-0.127 0.788,-0.171c0.436,-0.07 0.873,-0.111 1.235,-0.146c0.246,-0.024 0.494,-0.042 0.741,-0.048c0.244,-0.005 0.487,0.001 0.728,0.027c0.242,0.026 0.504,0.075 0.758,0.134c0.27,0.062 0.532,0.136 0.754,0.206c0.185,0.058 0.366,0.127 0.543,0.206c0.179,0.08 0.354,0.169 0.523,0.265c0.238,0.137 0.564,0.328 0.854,0.521c0.201,0.134 0.384,0.268 0.501,0.385c0.067,0.066 0.113,0.148 0.151,0.235c0.071,0.164 0.116,0.346 0.178,0.512c0.092,0.244 0.23,0.634 0.375,1.053c0.2,0.577 0.413,1.208 0.542,1.593c0.085,0.259 0.19,0.536 0.275,0.801c0.058,0.181 0.107,0.356 0.132,0.516c0.014,0.094 0.017,0.188 0.015,0.283c-0.006,0.248 -0.047,0.498 -0.056,0.747c-0.011,0.295 -0.009,0.724 -0.023,1.09c-0.007,0.17 -0.016,0.325 -0.032,0.445c-0.016,0.119 -0.041,0.244 -0.077,0.363c-0.035,0.111 -0.08,0.216 -0.142,0.302c-0.059,0.083 -0.14,0.154 -0.228,0.216c-0.095,0.066 -0.199,0.121 -0.303,0.166c-0.127,0.056 -0.287,0.104 -0.453,0.144c-0.163,0.039 -0.333,0.071 -0.484,0.092c-0.112,0.016 -0.233,0.023 -0.353,0.026c-0.201,0.005 -0.4,-0.003 -0.557,-0.008c-0.168,-0.006 -0.417,-0.061 -0.543,-0.071c-0.054,-0.004 -0.096,-0.001 -0.124,0.004c-0.1,0.018 -0.145,0.073 -0.171,0.115c-0.033,0.052 -0.045,0.113 -0.031,0.181c0.007,0.031 0.022,0.071 0.055,0.111c0.013,0.017 0.054,0.055 0.082,0.079Z"/><path d="M1.299,9.941c-0.139,0.113 -0.18,0.314 -0.088,0.475c0.071,0.081 0.124,0.173 0.233,0.178c0.036,0.002 0.074,0.023 0.118,0.011c0.036,-0.01 0.141,0.006 0.22,-0.09c0.014,-0.018 0.063,-0.08 0.063,-0.08c0,-0 -0.024,0.013 -0.028,0.018l0.135,-0.154c0.064,-0.052 0.14,-0.126 0.235,-0.168c0.061,-0.027 0.122,-0.062 0.179,-0.042c0.09,0.045 0.162,0.107 0.218,0.182c0.061,0.083 0.084,0.184 0.115,0.286c0.015,0.062 0.033,0.189 0.053,0.275c0.017,0.073 0.059,0.119 0.078,0.154c0.025,0.044 0.07,0.058 0.096,0.082c0.072,0.067 0.161,0.045 0.237,0.053c0.096,0.01 0.168,-0.066 0.27,-0.158c0.023,-0.021 0.028,-0.059 0.052,-0.096c0.052,-0.142 0.012,-0.296 -0.089,-0.396c-0.039,-0.06 -0.133,-0.134 -0.16,-0.17c-0.09,-0.132 -0.185,-0.248 -0.299,-0.35c-0.115,-0.104 -0.236,-0.202 -0.392,-0.263c-0.119,-0.066 -0.263,-0.066 -0.412,-0.054c-0.175,0.015 -0.353,0.077 -0.486,0.127l-0.243,0.115c-0.017,0.008 -0.111,0.033 -0.105,0.065Zm1.498,0.631c-0.008,0.011 -0.015,0.023 -0.017,0.039c0.005,-0.014 0.011,-0.026 0.017,-0.039Zm-0.962,-0.569c0.01,0.013 0.019,0.027 0.028,0.042c-0.006,-0.017 -0.017,-0.03 -0.028,-0.042Zm-0.138,-0.111c0.039,0.018 0.075,0.044 0.107,0.076c-0.025,-0.04 -0.062,-0.062 -0.107,-0.076Zm-0.17,-0.036l-0.016,0.001l-0.018,0.001c0.012,-0.002 0.023,-0.004 0.034,-0.002Z"/><path d="M2.278,11.654c0.016,0.034 0.061,0.052 0.073,0.09c0.018,0.055 0.089,0.041 0.129,0.085c0.011,0.013 0.031,0.003 0.045,0.015c0.024,0.021 0.059,-0.006 0.092,0.011c0.035,0.017 0.069,-0.03 0.127,-0.024c0.023,0.002 0.034,-0.032 0.07,-0.036c0.011,-0.001 0.019,-0.039 0.087,-0.064c0.135,-0.146 0.132,-0.37 -0.002,-0.512c-0.022,-0.043 -0.048,-0.083 -0.091,-0.116c-0.068,-0.053 -0.121,-0.118 -0.201,-0.141c-0.123,-0.089 -0.228,-0.083 -0.325,-0.085c-0.097,-0.002 -0.173,0.047 -0.305,0.102c-0.004,0.001 -0.007,-0.008 -0.013,-0.006c-0.025,0.006 -0.042,0.022 -0.069,0.031c-0.035,0.012 -0.046,0.045 -0.075,0.06c-0.062,0.033 -0.049,0.105 -0.085,0.15c-0.041,0.052 0.006,0.111 -0.008,0.175c-0.004,0.017 0.013,0.029 0.011,0.046c-0.002,0.021 0.02,0.032 0.021,0.054c0.001,0.036 0.043,0.048 0.054,0.087c0.12,0.135 0.314,0.163 0.465,0.078Zm0.69,-0.199c-0.002,0.014 -0.008,0.027 -0.005,0.043c0.003,0.016 0.005,0.034 0.005,0.052c0.008,-0.019 0.017,-0.034 0.011,-0.048c-0.008,-0.017 -0.01,-0.032 -0.011,-0.047Zm-0.003,-0.083c-0.001,0.02 -0.005,0.041 0.002,0.062l0.001,0.005c0.001,-0.026 0.006,-0.049 -0.003,-0.067Zm-0.598,-0.035c0.007,0.008 0.015,0.016 0.02,0.012c0.003,-0.002 0.003,0.004 0.005,0.009c0.001,-0.006 -0,-0.011 -0.004,-0.016c-0.006,-0.003 -0.014,-0.004 -0.021,-0.005Zm-0.014,-0.117c-0.001,-0 -0.002,0 -0.002,0.001l0.002,-0.001Zm0.038,-0.121c-0.003,-0.009 -0.008,-0.017 -0.018,-0.021c0.007,0.007 0.012,0.014 0.018,0.021Z"/><path d="M4.37,6.948c0.1,0.072 0.174,0.286 0.223,0.39c0.151,0.317 0.264,0.648 0.371,0.983c0.041,0.131 0.201,0.3 0.154,0.444c-0.054,0.167 -0.262,0.147 -0.388,0.09c-0.011,-0.005 -0.165,-0.084 -0.171,-0.069c-0.056,0.154 0.034,0.458 0.034,0.624c0,0.086 0.031,0.197 -0.055,0.246c-0.468,0.263 -1.057,-0.046 -1.559,0.026c-0.177,0.025 -0.365,0.004 -0.538,0.035c-0.391,0.071 -0.785,0.39 -1.14,0.033c-0.064,-0.064 -0.142,-0.127 -0.199,-0.196c-0.041,-0.048 -0.047,-0.119 -0.068,-0.177c-0.198,-0.534 0.174,-0.792 0.312,-1.262c0.053,-0.182 0.021,-0.481 0.171,-0.616c0.031,-0.029 -0.112,-0.14 -0.126,-0.159c-0.076,-0.099 -0.097,-0.222 -0.077,-0.347c0.04,-0.242 0.14,-0.27 0.31,-0.397c0.044,-0.032 0.115,-0.143 0.166,-0.158c0.215,-0.064 0.519,-0.001 0.729,0.045c0.362,0.079 0.731,0.134 1.1,0.134c0.211,0 0.477,-0.004 0.675,0.085c0.083,0.038 0.255,0.158 0.097,0.197"/><path d="M1.211,7.519c-0.01,0.025 -0.019,0.051 -0.026,0.078c-0.039,0.146 -0.032,0.326 -0.067,0.452c-0.096,0.349 -0.313,0.591 -0.354,0.9c-0.019,0.15 -0.008,0.313 0.065,0.504c0.016,0.042 0.025,0.092 0.043,0.135c0.016,0.038 0.036,0.074 0.063,0.105l0.212,0.21c0.144,0.147 0.295,0.209 0.448,0.227c0.284,0.034 0.588,-0.139 0.886,-0.189l0.531,-0.027c0.341,-0.042 0.717,0.101 1.07,0.107c0.205,0.004 0.402,-0.032 0.588,-0.131c0.091,-0.049 0.142,-0.121 0.174,-0.203c0.031,-0.081 0.022,-0.188 0.025,-0.277c0.001,-0.059 -0.007,-0.135 -0.016,-0.216c0.077,0.008 0.156,0.004 0.227,-0.015c0.151,-0.039 0.272,-0.141 0.335,-0.318c0.028,-0.079 0.03,-0.161 0.018,-0.246c-0.019,-0.132 -0.126,-0.278 -0.159,-0.393c-0.059,-0.209 -0.121,-0.417 -0.192,-0.622c-0.049,-0.141 -0.104,-0.28 -0.164,-0.417c-0.026,-0.06 -0.06,-0.153 -0.101,-0.24c0.013,-0.049 0.015,-0.099 0.006,-0.151c-0.012,-0.069 -0.037,-0.149 -0.099,-0.221c-0.068,-0.078 -0.194,-0.165 -0.28,-0.2c-0.113,-0.047 -0.238,-0.077 -0.369,-0.089c-0.155,-0.015 -0.316,-0.01 -0.456,-0.006c-0.17,0.006 -0.341,-0.001 -0.512,-0.017c-0.175,-0.017 -0.349,-0.043 -0.522,-0.075c-0.139,-0.026 -0.316,-0.058 -0.485,-0.063c-0.14,-0.004 -0.276,0.006 -0.392,0.044c-0.043,0.014 -0.095,0.039 -0.144,0.085c-0.04,0.037 -0.118,0.133 -0.118,0.133c-0,-0 0.008,-0.007 0.012,-0.01c-0.136,0.107 -0.231,0.168 -0.298,0.273c-0.047,0.073 -0.087,0.165 -0.106,0.304c-0.013,0.095 -0.013,0.188 0.008,0.277c0.022,0.096 0.061,0.188 0.125,0.268c0.003,0.003 0.012,0.012 0.024,0.024Zm2.786,-0.532c-0.021,-0.004 -0.043,-0.007 -0.065,-0.01c-0.107,-0.013 -0.216,-0.015 -0.313,-0.019c-0.199,-0.006 -0.397,-0.025 -0.595,-0.057c-0.191,-0.031 -0.382,-0.072 -0.57,-0.119c-0.095,-0.024 -0.211,-0.054 -0.328,-0.07c-0.074,-0.01 -0.148,-0.018 -0.214,-0.01c-0.035,0.037 -0.095,0.099 -0.122,0.117c-0.078,0.055 -0.143,0.073 -0.183,0.129c-0.015,0.02 -0.024,0.048 -0.032,0.088c-0.005,0.029 -0.009,0.059 -0.004,0.087c0.004,0.021 0.009,0.042 0.021,0.059c0.04,0.044 0.15,0.167 0.165,0.216c0.039,0.123 0.006,0.219 -0.072,0.286c-0.025,0.022 -0.031,0.058 -0.04,0.094c-0.03,0.137 -0.036,0.292 -0.072,0.404c-0.089,0.288 -0.266,0.494 -0.346,0.735c-0.036,0.111 -0.044,0.232 0.011,0.384c0.012,0.034 0.031,0.103 0.036,0.119l0.181,0.177c0.086,0.085 0.175,0.107 0.265,0.098c0.223,-0.023 0.452,-0.158 0.68,-0.201l0.546,-0.044c0.357,-0.059 0.761,0.067 1.134,0.057c0.083,-0.002 0.164,-0.015 0.241,-0.044c-0.001,-0.02 -0.002,-0.039 -0.003,-0.053c-0.004,-0.13 -0.063,-0.341 -0.067,-0.503c-0.001,-0.083 0.012,-0.158 0.033,-0.221c0.023,-0.069 0.136,-0.242 0.373,-0.182c0.011,0.003 0.024,0.007 0.038,0.012c-0.017,-0.033 -0.031,-0.066 -0.042,-0.097c-0.057,-0.161 -0.116,-0.32 -0.179,-0.478c-0.062,-0.152 -0.13,-0.302 -0.206,-0.448c-0.033,-0.065 -0.197,-0.196 -0.14,-0.259c-0.076,-0.064 -0.121,-0.153 -0.131,-0.247Zm0.272,-0.443c0.011,-0.004 0.022,-0.007 0.033,-0.01c-0.012,0.003 -0.023,0.006 -0.033,0.01Z"/><path d="M12.464,4.233c-0.162,-0.036 -0.378,0.209 -0.512,0.286c-0.437,0.25 -0.899,0.451 -1.339,0.7c-0.132,0.074 -0.262,0.155 -0.386,0.243c-0.033,0.023 -0.117,0.087 -0.163,0.066c-0.118,-0.053 -0.174,-0.322 -0.139,-0.432c0.013,-0.042 0.038,-0.079 0.061,-0.116c0.012,-0.021 0.048,-0.085 0.036,-0.064c-0.097,0.176 -0.391,0.276 -0.543,0.397c-0.566,0.45 -1.097,0.929 -1.864,0.985c-0.118,0.009 -0.413,0.087 -0.473,-0.047c-0.064,-0.146 0.124,-0.31 0.221,-0.387c0.005,-0.004 0.103,-0.087 0.108,-0.083c0.029,0.026 -0.25,0.22 -0.268,0.231c-0.352,0.215 -0.74,0.372 -1.108,0.556c-0.501,0.25 -1.1,0.378 -1.662,0.378c-0.059,-0 -0.174,-0.048 -0.178,-0.116c-0.002,-0.032 -0.013,-0.106 0.005,-0.135c0.009,-0.015 0.09,-0.103 0.058,-0.054c-0.294,0.441 -1.047,0.429 -1.502,0.314c-0.099,-0.025 -0.219,-0.021 -0.307,-0.08c-0.112,-0.076 -0.133,-0.166 -0.184,-0.284c-0.007,-0.017 -0.007,-0.117 -0.023,-0.123c-0.075,-0.022 -0.182,0.04 -0.25,0.06c-0.173,0.049 -0.342,0.116 -0.517,0.063c-0.244,-0.074 -0.521,-0.022 -0.777,-0.099c-0.094,-0.028 -0.24,-0.103 -0.252,-0.222c-0.059,-0.586 0.595,-0.963 1.066,-1.146c0.167,-0.065 0.327,-0.133 0.504,-0.163c0.056,-0.01 0.11,-0.018 0.165,-0.033c0.031,-0.008 0.124,-0.024 0.092,-0.024c-0.184,0 -0.365,0.136 -0.562,0.095c-0.25,-0.052 -0.019,-0.423 0.071,-0.492c0.127,-0.095 0.281,-0.148 0.42,-0.222c0.286,-0.151 0.532,-0.324 0.856,-0.389c0.204,-0.042 0.402,-0.026 0.606,-0.045c0.033,-0.004 0.167,0.004 0.192,-0.019c0.009,-0.009 -0.225,-0.239 -0.231,-0.298c-0.022,-0.22 0.249,-0.486 0.41,-0.607c0.291,-0.221 0.664,-0.25 1.016,-0.288c0.113,-0.013 0.307,-0.062 0.422,-0.024c0.167,0.054 0.297,0.189 0.452,0.265c0.012,0.005 0.123,0.072 0.131,0.068c0.016,-0.007 0.044,-0.102 0.053,-0.118c0.06,-0.113 0.131,-0.232 0.21,-0.333c0.127,-0.163 0.439,-0.302 0.645,-0.34c0.487,-0.091 0.833,0.085 1.268,0.262c0.057,0.023 0.135,0.034 0.181,0.075c0.036,0.033 0.129,0.245 0.21,0.197c0.151,-0.09 0.278,-0.333 0.407,-0.459c0.249,-0.241 0.739,-0.386 1.087,-0.338c0.179,0.025 0.584,0.099 0.717,0.211c0.172,0.145 0.381,0.434 0.583,0.524c0.063,0.028 0.303,-0.158 0.367,-0.187c0.236,-0.102 0.611,-0.037 0.777,0.166c0.335,0.409 0.156,0.905 -0.081,1.311c-0.118,0.203 -0.163,0.386 -0.381,0.329"/><path d="M8.666,2.28c-0.036,-0.033 -0.079,-0.06 -0.126,-0.08c-0.045,-0.019 -0.098,-0.03 -0.14,-0.047c-0.283,-0.111 -0.532,-0.221 -0.8,-0.269c-0.194,-0.035 -0.397,-0.04 -0.626,0.005c-0.145,0.029 -0.334,0.098 -0.496,0.191c-0.127,0.074 -0.238,0.163 -0.308,0.254l-0.163,0.262c-0.067,-0.043 -0.132,-0.092 -0.2,-0.133c-0.062,-0.036 -0.127,-0.068 -0.195,-0.089c-0.061,-0.019 -0.135,-0.028 -0.213,-0.025c-0.109,0.004 -0.232,0.031 -0.316,0.041c-0.224,0.027 -0.457,0.051 -0.674,0.117c-0.164,0.049 -0.32,0.121 -0.46,0.228c-0.11,0.085 -0.264,0.228 -0.367,0.385c-0.095,0.143 -0.146,0.298 -0.131,0.438c0.002,0.02 0.008,0.046 0.02,0.076c-0.063,0.002 -0.126,0.004 -0.189,0.01c-0.07,0.005 -0.139,0.014 -0.209,0.029c-0.147,0.031 -0.28,0.08 -0.407,0.14c-0.172,0.081 -0.332,0.183 -0.507,0.276c-0.098,0.052 -0.204,0.094 -0.302,0.148c-0.051,0.028 -0.101,0.059 -0.148,0.095c-0.093,0.071 -0.28,0.36 -0.268,0.557c0.001,0.017 0.003,0.034 0.006,0.051c-0.299,0.12 -0.651,0.312 -0.883,0.571c-0.194,0.217 -0.308,0.478 -0.278,0.781c0.01,0.101 0.06,0.19 0.136,0.262c0.079,0.074 0.189,0.126 0.272,0.151c0.061,0.019 0.124,0.032 0.187,0.041c0.198,0.028 0.404,0.006 0.588,0.063c0.103,0.031 0.204,0.035 0.304,0.023c0.114,-0.014 0.227,-0.051 0.342,-0.083c0.006,-0.002 0.013,-0.004 0.022,-0.007c0.025,0.061 0.048,0.116 0.081,0.166c0.038,0.058 0.088,0.111 0.16,0.161c0.047,0.032 0.099,0.054 0.154,0.07c0.073,0.022 0.155,0.026 0.226,0.045c0.301,0.078 0.72,0.114 1.08,0.031c0.112,-0.026 0.218,-0.064 0.315,-0.114c0.085,0.061 0.204,0.096 0.28,0.097c0.299,0.003 0.608,-0.029 0.909,-0.093c0.305,-0.065 0.602,-0.165 0.873,-0.297c0.238,-0.116 0.484,-0.221 0.723,-0.337c0.047,0.053 0.109,0.093 0.183,0.12c0.146,0.052 0.398,0.012 0.516,0.005c0.348,-0.022 0.654,-0.12 0.937,-0.262c0.244,-0.123 0.47,-0.28 0.692,-0.448c-0.013,-0.107 0.077,-0.372 0.341,-0.888c-0.037,0.114 -0.033,0.324 0.029,0.497c0.009,0.028 0.021,0.054 0.033,0.079l-0.259,0.202c-0.045,0.034 -0.09,0.069 -0.135,0.103l-0.009,0.007c0.02,0.147 0.234,-0.004 0.464,-0.213c-0.022,-0.03 -0.043,-0.064 -0.061,-0.099l0.01,-0.008c0.103,-0.08 0.272,-0.149 0.398,-0.239l0.013,-0.01c-0.105,0.11 -0.234,0.242 -0.36,0.356c0.057,0.076 0.126,0.133 0.195,0.165c0.069,0.032 0.149,0.042 0.237,0.027c0.092,-0.016 0.211,-0.088 0.263,-0.124l0.359,-0.22l1.35,-0.683c0.089,-0.05 0.371,-0.115 0.349,-0.23c0.164,-0.008 0.309,-0.125 0.347,-0.293c0.012,-0.055 0.012,-0.11 0,-0.161c0.009,-0.017 0.018,-0.033 0.027,-0.05c0.17,-0.301 0.307,-0.644 0.304,-0.975c-0.002,-0.257 -0.076,-0.51 -0.27,-0.741c-0.132,-0.158 -0.339,-0.272 -0.566,-0.314c-0.215,-0.04 -0.441,-0.02 -0.615,0.059c-0.029,0.013 -0.128,0.074 -0.202,0.12c-0.017,-0.015 -0.034,-0.031 -0.052,-0.048c-0.125,-0.119 -0.247,-0.259 -0.354,-0.347c-0.068,-0.056 -0.178,-0.113 -0.31,-0.155c-0.193,-0.061 -0.439,-0.102 -0.572,-0.119c-0.213,-0.027 -0.469,0 -0.71,0.077c-0.246,0.078 -0.474,0.204 -0.628,0.357l-0.216,0.262Zm3.476,1.593c0.025,-0.043 0.056,-0.098 0.081,-0.139c0.097,-0.161 0.189,-0.338 0.218,-0.518c0.021,-0.132 0.007,-0.267 -0.089,-0.388c-0.036,-0.044 -0.098,-0.068 -0.161,-0.081c-0.073,-0.016 -0.152,-0.02 -0.212,0.005c-0.062,0.026 -0.27,0.171 -0.374,0.198c-0.11,0.028 -0.201,0.012 -0.264,-0.017c-0.091,-0.042 -0.187,-0.11 -0.278,-0.194c-0.134,-0.123 -0.263,-0.289 -0.378,-0.388c-0.04,-0.035 -0.128,-0.054 -0.215,-0.077c-0.126,-0.033 -0.256,-0.057 -0.336,-0.069c-0.133,-0.02 -0.294,-0.002 -0.446,0.042c-0.15,0.044 -0.294,0.109 -0.389,0.2c-0.101,0.096 -0.201,0.262 -0.311,0.372c-0.05,0.049 -0.102,0.091 -0.155,0.122c-0.118,0.069 -0.239,0.069 -0.358,-0.004c-0.059,-0.037 -0.15,-0.156 -0.195,-0.219c-0.029,-0.009 -0.072,-0.024 -0.095,-0.034c-0.245,-0.102 -0.457,-0.207 -0.689,-0.254c-0.13,-0.026 -0.267,-0.033 -0.422,-0.006c-0.081,0.015 -0.184,0.048 -0.28,0.095c-0.082,0.04 -0.163,0.085 -0.207,0.141l-0.185,0.287c-0.011,0.03 -0.04,0.102 -0.055,0.126c-0.041,0.066 -0.092,0.098 -0.125,0.112c-0.024,0.01 -0.114,0.048 -0.227,-0.005c-0.034,-0.016 -0.113,-0.063 -0.123,-0.068l-0.417,-0.256l-0.317,0.031c-0.197,0.02 -0.401,0.034 -0.592,0.088c-0.109,0.031 -0.213,0.074 -0.306,0.143c-0.067,0.05 -0.158,0.129 -0.23,0.219c-0.036,0.045 -0.075,0.09 -0.087,0.135l0.149,0.178c0.14,0.166 0.019,0.338 0,0.354c-0.024,0.022 -0.06,0.046 -0.11,0.06c-0.055,0.015 -0.181,0.014 -0.215,0.017l-0.584,0.037c-0.111,0.022 -0.211,0.058 -0.307,0.103c-0.166,0.076 -0.321,0.172 -0.49,0.261l-0.391,0.201c-0.014,0.01 -0.022,0.047 -0.033,0.084c0.032,-0.007 0.065,-0.014 0.097,-0.02l0.005,-0.001c0.097,-0.028 0.193,-0.059 0.289,-0.059c0.105,0 0.147,0.052 0.159,0.063c0.085,0.085 0.099,0.179 0.023,0.284c-0.011,0.015 -0.042,0.057 -0.113,0.08c-0.016,0.005 -0.079,0.017 -0.104,0.024l-0.186,0.037l-0.007,0.001c-0.04,0.014 -0.08,0.027 -0.121,0.035c-0.014,0.002 -0.028,0.005 -0.041,0.006l-0.006,0.002c-0.097,0.031 -0.19,0.07 -0.286,0.108c-0.251,0.098 -0.561,0.254 -0.759,0.477c-0.105,0.118 -0.176,0.256 -0.168,0.418c0.03,-0.015 0.068,0.048 0.098,0.057c0.192,0.056 0.397,0.032 0.589,0.056c0.064,0.008 0.128,0.021 0.19,0.039c0.051,0.015 0.102,0.009 0.152,-0.001c0.079,-0.016 0.157,-0.043 0.236,-0.066c0.051,-0.015 0.123,-0.051 0.189,-0.064c0.067,-0.015 0.132,-0.013 0.19,0.004c0.051,0.015 0.119,0.053 0.156,0.147c0.009,0.024 0.02,0.097 0.025,0.132c0.017,0.04 0.03,0.077 0.049,0.111c0.009,0.017 0.022,0.031 0.042,0.044l0.234,0.045c0.201,0.05 0.467,0.075 0.716,0.041c0.167,-0.023 0.328,-0.071 0.442,-0.172c0.004,-0.011 0.01,-0.021 0.016,-0.031c0.012,-0.02 0.088,-0.106 0.116,-0.128c0.075,-0.06 0.145,-0.059 0.171,-0.058c0.079,0.004 0.137,0.037 0.179,0.086c0.033,0.039 0.076,0.104 0.056,0.208c-0.001,0.004 -0.002,0.01 -0.004,0.018c0.22,-0.011 0.444,-0.042 0.663,-0.093c0.261,-0.061 0.515,-0.151 0.746,-0.269c0.255,-0.131 0.521,-0.249 0.777,-0.382c0.089,-0.047 0.176,-0.095 0.261,-0.147c0.058,-0.065 0.122,-0.122 0.172,-0.16c0.005,-0.004 0.08,-0.065 0.111,-0.086c0.181,-0.123 0.342,-0.005 0.366,0.017c0.069,0.064 0.175,0.237 0.016,0.422c0.226,-0.031 0.427,-0.106 0.614,-0.206c0.356,-0.188 0.664,-0.463 0.986,-0.725c0.096,-0.078 0.245,-0.151 0.372,-0.235c0.033,-0.022 0.067,-0.04 0.083,-0.069c-0.036,0.068 -0.071,0.132 -0.102,0.194l0.11,-0.209c0,-0 0.129,0.329 0.291,0.44l0.41,-0.266l1.327,-0.715l0.02,-0.013c0.002,-0.012 0.005,-0.024 0.008,-0.037c0.043,-0.162 0.186,-0.271 0.345,-0.278Zm-1.966,1.338c-0.029,-0.006 -0.068,-0.007 -0.102,-0.006c0.033,0.014 0.068,0.018 0.102,0.006Z"/><path d="M2.898,11.184c-0.001,0.022 0,0.042 0.002,0.06c0.011,0.088 0.047,0.16 0.099,0.216c-0.01,0.012 -0.018,0.024 -0.026,0.036c-0.049,0.079 -0.072,0.157 -0.077,0.215c-0.013,0.16 0.049,0.282 0.184,0.362l0.003,0.002c-0.037,0.046 -0.085,0.11 -0.12,0.173c-0.042,0.076 -0.068,0.154 -0.076,0.219c-0.02,0.175 0.042,0.315 0.196,0.404c0.036,0.021 0.073,0.038 0.112,0.052c0.002,0.021 0.006,0.04 0.011,0.058c0.016,0.057 0.044,0.109 0.087,0.151c-0.024,0.048 -0.042,0.095 -0.048,0.135c-0.024,0.172 0.039,0.303 0.184,0.383c0.038,0.021 0.078,0.037 0.12,0.048c0.01,0.15 0.094,0.237 0.21,0.278c0.105,0.038 0.231,0.035 0.363,-0.021c-0.022,0.086 -0.04,0.173 -0.054,0.262c-0.005,0.03 -0.031,0.176 -0.034,0.294c-0.002,0.09 0.01,0.17 0.03,0.222c0.03,0.076 0.074,0.13 0.127,0.164l-0.012,0.038c-0.018,0.056 -0.063,0.168 -0.067,0.221c-0.003,0.043 0.002,0.08 0.011,0.113c-0.127,0.201 -0.145,0.407 -0.08,0.565c0.039,0.094 0.109,0.172 0.214,0.213c0.005,0.008 0.01,0.015 0.015,0.022c0.009,0.012 0.019,0.023 0.029,0.033c-0.007,0.056 -0.01,0.112 -0.002,0.155c0.022,0.118 0.089,0.198 0.18,0.239c0.045,0.02 0.09,0.032 0.135,0.036c-0.002,0.023 -0.003,0.046 -0.002,0.067c0.002,0.111 0.039,0.203 0.092,0.262c0.123,0.135 0.271,0.162 0.432,0.11c0.042,-0.014 0.086,-0.035 0.131,-0.063c-0.005,0.084 -0.005,0.215 0.018,0.269c0.023,0.054 0.056,0.093 0.093,0.118c-0.011,0.033 -0.02,0.066 -0.025,0.094c-0.014,0.094 0.009,0.171 0.043,0.221c0.051,0.078 0.116,0.109 0.18,0.119c0.031,0.005 0.064,0.005 0.098,-0.002l0,0.005c0.005,0.066 0.026,0.12 0.049,0.154c0.063,0.094 0.146,0.13 0.239,0.132c0.058,0.002 0.125,-0.015 0.189,-0.051c0.082,-0.046 0.165,-0.128 0.19,-0.153l0.231,-0.253c0.017,0.058 0.054,0.095 0.088,0.118c0.025,0.017 0.074,0.048 0.138,0.045c-0.003,0.06 0.007,0.114 0.022,0.151c0.031,0.072 0.083,0.118 0.15,0.141c0.054,0.018 0.114,0.023 0.177,0.013c-0.004,0.036 -0.005,0.069 -0.001,0.092c0.017,0.082 0.063,0.133 0.114,0.163c0.095,0.056 0.212,0.057 0.33,-0.001c0.084,-0.042 0.173,-0.123 0.233,-0.182c0.002,0.033 0.008,0.064 0.018,0.089c0.032,0.087 0.092,0.145 0.17,0.172c0.094,0.033 0.193,0.019 0.287,-0.04c0.092,-0.059 0.181,-0.181 0.216,-0.225c0.092,-0.116 0.18,-0.236 0.266,-0.357l0.043,-0.061c-0.012,0.117 -0.017,0.267 0.015,0.358c0.029,0.082 0.08,0.139 0.141,0.172c0.072,0.04 0.174,0.061 0.309,-0.013c0.099,-0.055 0.191,-0.135 0.275,-0.23c0.035,0.06 0.086,0.101 0.15,0.123c0.149,0.051 0.308,0.009 0.453,-0.111c0.166,-0.137 0.316,-0.391 0.388,-0.517l0.003,0.003c0.058,0.051 0.13,0.075 0.219,0.056c0.132,-0.027 0.269,-0.11 0.397,-0.229c0.152,-0.14 0.294,-0.334 0.41,-0.488c-0.001,0.065 0,0.207 0.02,0.253c0.036,0.087 0.1,0.126 0.156,0.143c0.058,0.018 0.126,0.02 0.201,-0.026c0.149,-0.09 0.273,-0.245 0.373,-0.436c0.168,-0.323 0.268,-0.758 0.368,-1.011l0.106,-0.228l0.139,-0.219c0.058,-0.122 0.014,-0.198 0.006,-0.215c-0.007,-0.016 -0.031,-0.047 -0.066,-0.077c0.016,-0.055 0.032,-0.111 0.047,-0.166c0.01,-0.038 0.09,-0.243 0.108,-0.372c0.019,-0.133 -0.023,-0.233 -0.066,-0.284c-0.021,-0.024 -0.044,-0.045 -0.069,-0.062c0.001,-0.01 0.003,-0.02 0.004,-0.03c0.014,-0.139 -0.026,-0.255 -0.108,-0.339c-0.094,-0.095 -0.23,-0.138 -0.394,-0.112c-0.099,0.015 -0.214,0.062 -0.326,0.119c-0.081,-0.077 -0.195,-0.115 -0.335,-0.104c-0.064,0.005 -0.138,0.026 -0.214,0.053c-0.016,-0.025 -0.036,-0.047 -0.058,-0.068c-0.053,-0.049 -0.131,-0.093 -0.247,-0.106c-0.002,-0.011 -0.004,-0.021 -0.006,-0.031c-0.034,-0.139 -0.148,-0.316 -0.501,-0.27c-0.156,0.02 -0.308,0.068 -0.456,0.132c-0.021,0.009 -0.041,0.018 -0.062,0.028c-0.037,-0.02 -0.081,-0.035 -0.133,-0.044c-0.192,-0.033 -0.393,-0.002 -0.59,0.072c-0.06,0.022 -0.119,0.049 -0.178,0.078c-0.067,-0.071 -0.164,-0.119 -0.284,-0.13c-0.131,-0.012 -0.302,0.031 -0.375,0.057c-0.154,0.055 -0.304,0.125 -0.452,0.204c-0.176,-0.023 -0.369,0.013 -0.563,0.093c-0.05,0.021 -0.101,0.045 -0.152,0.072c-0.029,-0.029 -0.062,-0.051 -0.097,-0.068c-0.1,-0.048 -0.216,-0.063 -0.338,-0.047c-0.156,0.02 -0.327,0.102 -0.433,0.156c-0.179,0.091 -0.346,0.2 -0.503,0.324c-0.075,0.059 -0.148,0.122 -0.218,0.188c-0.038,0.012 -0.076,0.027 -0.113,0.045c-0.138,0.067 -0.274,0.185 -0.365,0.267l-0.053,0.053c-0.03,-0.02 -0.064,-0.037 -0.101,-0.05c-0.029,-0.01 -0.06,-0.018 -0.094,-0.022c0.071,-0.155 0.141,-0.31 0.201,-0.47c0.055,-0.148 -0.011,-0.23 -0.02,-0.245c-0.013,-0.022 -0.08,-0.083 -0.164,-0.112l0.018,-0.049c0.016,-0.04 0.058,-0.084 0.083,-0.128c0.038,-0.064 0.06,-0.128 0.067,-0.185c0.015,-0.116 -0.017,-0.219 -0.113,-0.307c-0.051,-0.047 -0.101,-0.07 -0.148,-0.077c0.012,-0.034 0.024,-0.068 0.036,-0.102c0.037,-0.11 0.008,-0.178 -0.003,-0.207c-0.036,-0.097 -0.098,-0.151 -0.176,-0.177l0.001,-0.003c0.06,-0.103 0.058,-0.203 0.018,-0.293c-0.024,-0.057 -0.073,-0.146 -0.213,-0.187c-0.058,-0.017 -0.115,-0.022 -0.171,-0.015l0,-0.238c-0.085,0 -0.179,0.019 -0.275,0.053l0.011,-0.005l0.29,-0.138c0.04,-0.02 0.139,-0.071 0.16,-0.088c0.097,-0.081 0.118,-0.172 0.125,-0.224c0.013,-0.104 -0.013,-0.195 -0.081,-0.273c-0.028,-0.033 -0.097,-0.119 -0.253,-0.122c0.014,-0.088 -0.013,-0.162 -0.018,-0.179c-0.028,-0.087 -0.108,-0.259 -0.36,-0.247c-0.006,0.001 -0.027,0.001 -0.058,0.008c-0.004,-0.03 -0.011,-0.057 -0.02,-0.082c-0.007,-0.02 -0.016,-0.039 -0.026,-0.058c0.105,-0.209 -0.007,-0.349 -0.058,-0.407c-0.062,-0.07 -0.168,-0.153 -0.342,-0.125c-0.032,0.005 -0.159,0.062 -0.209,0.09l-0.182,0.119c-0.072,0.055 -0.344,0.268 -0.444,0.438c-0.099,0.17 -0.097,0.333 -0.037,0.459c0.025,0.054 0.058,0.1 0.098,0.137Zm7.285,2.992c-0.091,0.097 -0.21,0.192 -0.338,0.254c-0.15,0.073 -0.311,0.101 -0.46,0.068c-0.147,-0.033 -0.205,-0.123 -0.231,-0.213c-0.06,0.071 -0.125,0.139 -0.193,0.202c-0.099,0.093 -0.206,0.177 -0.314,0.255c-0.054,0.038 -0.153,0.114 -0.245,0.152c-0.097,0.04 -0.193,0.048 -0.276,0.027c-0.171,-0.041 -0.223,-0.149 -0.238,-0.251c-0.02,0.013 -0.039,0.025 -0.059,0.037c-0.106,0.064 -0.215,0.122 -0.326,0.178c-0.024,0.011 -0.2,0.106 -0.317,0.126c-0.109,0.02 -0.201,-0.001 -0.267,-0.036c-0.063,0.059 -0.129,0.115 -0.195,0.162c-0.165,0.119 -0.336,0.185 -0.485,0.185c-0.061,0.056 -0.12,0.1 -0.162,0.123c-0.044,0.023 -0.138,0.057 -0.23,0.063c-0.09,0.007 -0.176,-0.01 -0.239,-0.041l-0.009,-0.004l-0.027,0.028c-0.007,0.04 -0.018,0.088 -0.027,0.113l-0.115,0.233c-0.038,0.061 -0.108,0.18 -0.195,0.299c-0.03,0.077 -0.056,0.153 -0.079,0.227c0.114,-0.121 0.21,-0.26 0.243,-0.303l0.126,-0.172c0.013,-0.018 0.037,-0.06 0.052,-0.077c0.039,-0.044 0.081,-0.064 0.11,-0.074c0.082,-0.028 0.153,-0.014 0.214,0.026c0.039,0.026 0.096,0.071 0.111,0.175c0.005,0.039 0.007,0.078 0.005,0.119c0.162,-0.164 0.354,0.022 0.375,0.061c0.004,0.008 0.024,0.037 0.028,0.084c0.048,0.009 0.082,0.034 0.102,0.05c0.049,0.039 0.102,0.105 0.088,0.215c-0.004,0.028 -0.06,0.137 -0.082,0.182l-0.087,0.17c-0.063,0.132 -0.124,0.268 -0.178,0.407c0.065,-0.076 0.13,-0.152 0.197,-0.226c0.069,-0.076 0.141,-0.15 0.218,-0.22c0.013,-0.012 0.231,-0.201 0.327,-0.241c0.134,-0.057 0.23,-0.008 0.284,0.05c0.051,-0.035 0.1,-0.047 0.138,-0.048c0.093,-0.003 0.203,0.025 0.242,0.192c0.017,0.076 0.008,0.149 -0.023,0.22c-0.028,0.064 -0.086,0.126 -0.123,0.186c-0.038,0.062 -0.078,0.125 -0.116,0.19c0.035,-0.036 0.066,-0.067 0.088,-0.087l0.188,-0.171c-0.003,0.003 -0.01,0.011 -0.01,0.011c-0,-0 0.107,-0.107 0.129,-0.116c0.085,-0.035 0.156,-0.015 0.212,0.024c0.009,0.007 0.019,0.015 0.03,0.025l0.017,-0.033l0.075,-0.159c0.017,-0.036 0.039,-0.119 0.057,-0.154c0.023,-0.044 0.051,-0.072 0.071,-0.088c0.071,-0.055 0.143,-0.057 0.208,-0.035c0.042,0.014 0.111,0.045 0.145,0.151c0.012,0.038 0.017,0.087 0.01,0.141c-0.011,0.086 -0.066,0.204 -0.072,0.223c-0.06,0.167 -0.126,0.334 -0.184,0.503l0.054,-0.075c0.124,-0.176 0.244,-0.355 0.366,-0.532l0.259,-0.368c0.004,-0.005 0.101,-0.107 0.142,-0.144c0.195,-0.176 0.375,0.1 0.378,0.133c0.006,0.072 -0.004,0.152 -0.027,0.233c-0.035,0.125 -0.102,0.257 -0.135,0.356l-0.136,0.456l-0.001,0.007c0.026,-0.034 0.051,-0.07 0.076,-0.107c0.14,-0.213 0.248,-0.468 0.339,-0.649c0.002,-0.005 0.093,-0.246 0.156,-0.329c0.046,-0.061 0.1,-0.09 0.138,-0.102c0.098,-0.03 0.167,0.001 0.217,0.042c0.037,0.031 0.07,0.076 0.082,0.142c0.007,0.038 -0.007,0.124 -0.015,0.167l-0.059,0.201c-0.042,0.136 -0.096,0.273 -0.145,0.411c0.053,-0.082 0.094,-0.159 0.118,-0.201l0.157,-0.283l0.109,-0.231c0.006,-0.015 0.054,-0.176 0.107,-0.26c0.051,-0.078 0.116,-0.121 0.17,-0.137c0.101,-0.031 0.172,-0 0.225,0.041c0.039,0.032 0.075,0.079 0.089,0.148c0.008,0.044 -0.009,0.14 -0.012,0.189c-0,0.014 -0.008,0.06 -0.018,0.119c0.129,-0.154 0.242,-0.325 0.327,-0.429l0.239,-0.309c0.004,-0.004 0.068,-0.073 0.126,-0.117c0.054,-0.041 0.11,-0.062 0.147,-0.068c0.058,-0.01 0.108,-0.004 0.15,0.016c0.003,-0.007 0.005,-0.014 0.008,-0.021c0.013,-0.029 0.065,-0.132 0.09,-0.172l0.022,-0.033c0.041,-0.083 0.078,-0.169 0.112,-0.255c0.049,-0.127 0.092,-0.256 0.131,-0.387c-0.016,0.015 -0.031,0.028 -0.045,0.035c-0.066,0.036 -0.131,0.042 -0.187,0.031c-0.07,-0.013 -0.142,-0.048 -0.193,-0.142c-0.03,-0.056 -0.053,-0.144 -0.005,-0.248c0.032,-0.07 0.171,-0.214 0.18,-0.223c0.018,-0.02 0.067,-0.072 0.13,-0.132l0.008,-0.016c0.011,-0.021 0.022,-0.042 0.033,-0.063l0.026,-0.051c-0.077,0.04 -0.152,0.087 -0.213,0.129c-0.011,0.018 -0.022,0.036 -0.034,0.053c-0.089,0.127 -0.21,0.229 -0.309,0.266c-0.083,0.031 -0.162,0.032 -0.231,0.011c-0.08,-0.024 -0.131,-0.074 -0.162,-0.138c-0.011,-0.023 -0.024,-0.055 -0.027,-0.096c-0.056,0.053 -0.114,0.097 -0.17,0.123c-0.115,0.056 -0.225,0.058 -0.313,0.026c-0.168,-0.061 -0.192,-0.178 -0.184,-0.277c-0.043,0.024 -0.085,0.045 -0.113,0.053c-0.214,0.063 -0.324,-0.07 -0.361,-0.168c-0.001,-0.004 -0.003,-0.009 -0.004,-0.013Z"/><g id="Lentes"><path d="M2.074,9.876c0.06,-0.043 0.204,-0.016 0.273,-0.016c0.194,-0 0.418,-0.006 0.611,-0.035c0.781,-0.116 1.576,-0.083 2.369,-0.1c0.331,-0.007 0.84,0.083 1.16,-0.032" style="fill:#fff;fill-opacity:0.45"/><path d="M2.19,10.233c0.027,0.028 0.122,-0.022 0.157,-0.026c0.123,-0.012 0.256,-0.025 0.387,-0.045c0.092,-0.014 0.182,-0.029 0.267,-0.049c0.187,-0.043 0.374,-0.08 0.564,-0.105c0.192,-0.025 0.386,-0.043 0.58,-0.051c0.157,-0.006 0.314,-0.007 0.471,-0.003c0.24,0.007 0.477,0.027 0.716,0.036c0.232,0.016 0.542,0.083 0.824,0.099c0.166,0.009 0.321,-0.009 0.457,-0.043c0.195,-0.069 0.296,-0.284 0.227,-0.479c-0.07,-0.195 -0.285,-0.297 -0.48,-0.227c-0.093,0.044 -0.208,0.073 -0.332,0.084c-0.248,0.022 -0.509,0.014 -0.707,0.036c-0.236,0.019 -0.471,0.041 -0.707,0.049c-0.224,0.008 -0.448,0.009 -0.671,0.008c-0.344,-0.001 -0.685,-0.008 -1.028,0.021c-0.088,0.005 -0.182,0.002 -0.277,-0.002c-0.1,-0.004 -0.199,-0.014 -0.291,-0.023c-0.07,-0.007 -0.195,-0.028 -0.287,-0.02c-0.082,0.006 -0.147,0.045 -0.205,0.078c-0.168,0.121 -0.206,0.356 -0.085,0.524c0.098,0.135 0.269,0.186 0.42,0.138Z"/><path d="M6.753,9.086l-0.001,-0c-0.101,-0 -0.193,0.04 -0.26,0.105c-0.036,-0.005 -0.088,0.094 -0.109,0.121l-0.138,0.245c-0.063,0.131 -0.11,0.271 -0.136,0.415c-0.025,0.136 -0.037,0.276 -0.033,0.413c0.01,0.389 0.105,0.758 0.278,1.093c0.165,0.322 0.396,0.616 0.684,0.862c0.531,0.457 1.145,0.752 1.795,0.882c0.641,0.128 1.316,0.099 1.976,-0.104c0.334,-0.101 0.637,-0.226 0.893,-0.421c0.176,-0.134 0.331,-0.3 0.457,-0.516c0.102,-0.173 0.166,-0.368 0.202,-0.571c0.051,-0.285 0.047,-0.585 0.02,-0.856c-0.046,-0.488 -0.194,-0.982 -0.446,-1.405c-0.261,-0.438 -0.637,-0.799 -1.138,-1.007c-0.294,-0.123 -0.61,-0.179 -0.933,-0.199c-0.452,-0.026 -0.917,0.026 -1.347,0.077c-0.28,0.032 -0.515,0.105 -0.733,0.204c-0.315,0.142 -0.588,0.346 -0.899,0.578c-0.022,0.017 -0.072,0.047 -0.132,0.084Zm0.126,0.838c-0.031,0.062 -0.056,0.128 -0.072,0.196c-0.021,0.087 -0.033,0.176 -0.035,0.265c-0.008,0.286 0.048,0.561 0.162,0.813c0.117,0.258 0.288,0.494 0.504,0.697c0.438,0.411 0.953,0.69 1.505,0.822c0.559,0.133 1.153,0.12 1.738,-0.04c0.235,-0.066 0.454,-0.142 0.646,-0.259c0.18,-0.11 0.335,-0.255 0.457,-0.459c0.096,-0.161 0.145,-0.35 0.166,-0.542c0.022,-0.208 0.011,-0.421 -0.011,-0.615c-0.05,-0.42 -0.184,-0.843 -0.413,-1.201c-0.217,-0.339 -0.523,-0.614 -0.924,-0.764c-0.241,-0.089 -0.498,-0.12 -0.758,-0.124c-0.418,-0.005 -0.844,0.068 -1.238,0.134c-0.205,0.034 -0.376,0.097 -0.532,0.177c-0.265,0.136 -0.486,0.329 -0.742,0.543c-0.047,0.039 -0.255,0.3 -0.342,0.252c-0.029,0.042 -0.067,0.078 -0.111,0.105Z"/><path d="M11.545,9.596c-0.063,-0.011 0.165,-0.129 0.189,-0.139c0.142,-0.055 0.299,-0.102 0.45,-0.122c0.291,-0.039 0.648,-0.037 0.937,0.012c0.099,0.018 0.179,0.029 0.272,0.066c0.024,0.01 0.144,0.069 0.144,0.051" style="fill:#fff;fill-opacity:0.45"/><path d="M11.896,9.728c0.043,-0.027 0.086,-0.055 0.134,-0.077c0.062,-0.029 0.123,-0.057 0.187,-0.075c0.068,-0.016 0.139,-0.035 0.214,-0.043c0.072,-0.007 0.146,-0.01 0.22,-0.004c0.15,0.012 0.291,0.059 0.421,0.1c0.044,0.016 0.081,0.032 0.12,0.049c0.027,0.012 0.047,0.034 0.075,0.052c0.025,0.017 0.135,0.08 0.18,0.1c0.075,0.034 0.138,0 0.18,-0.001c0.056,-0.001 0.09,-0.044 0.131,-0.062c0.023,-0.01 0.033,-0.033 0.052,-0.046c0.078,-0.052 0.076,-0.15 0.102,-0.257c-0,-0.207 -0.169,-0.375 -0.375,-0.375c-0.015,-0 -0.03,0.001 -0.045,0.002c-0.045,-0.009 -0.086,-0.018 -0.129,-0.021c-0.064,-0.003 -0.123,-0.005 -0.194,-0.004l-1.017,0.028c-0.072,-0.001 -0.144,0.009 -0.218,0.015c-0.109,0.01 -0.212,0.029 -0.316,0.049c-0.024,0.003 -0.162,0.057 -0.252,0.096c-0.065,0.028 -0.097,0.08 -0.125,0.105c-0.077,0.068 -0.064,0.159 -0.078,0.22c-0.007,0.028 0.007,0.055 0.007,0.083c-0.001,0.106 0.087,0.173 0.198,0.264c0.026,0.021 0.067,0.021 0.111,0.039c0.181,0.032 0.355,-0.071 0.417,-0.237Zm-0.031,0.02l-0.015,0.009c0.001,-0.001 0.007,-0.004 0.01,-0l0.001,0.002l0.004,-0.011Zm1.3,-0.337c-0.004,0.017 -0.008,0.034 -0.003,0.053c-0,-0.018 0.001,-0.036 0.003,-0.053Zm0.066,-0.164c-0.031,0.032 -0.053,0.068 -0.056,0.116c0.012,-0.042 0.031,-0.081 0.056,-0.116Zm-1.466,0.045l-0.015,-0.01c0.011,0.005 0.02,0.012 0.028,0.02l-0.013,-0.01Zm-0.087,-0.047c-0.019,-0.01 -0.04,-0.019 -0.067,-0.018c0.024,0.004 0.046,0.01 0.067,0.018Z"/><path d="M12.884,9.2l-0.007,0.006c-0.13,0.106 -0.213,0.288 -0.3,0.423c-0.194,0.301 -0.296,0.661 -0.296,1.023c-0.001,0.359 0.089,0.717 0.272,1.012c0.424,0.689 1.171,1.128 1.983,1.281c0.795,0.151 1.647,0.033 2.288,-0.38c0.16,-0.102 0.299,-0.229 0.423,-0.37c0.172,-0.193 0.318,-0.413 0.465,-0.621c0.082,-0.113 0.23,-0.192 0.333,-0.297c0.073,-0.075 0.13,-0.158 0.162,-0.255c0.057,-0.17 0.061,-0.36 0.036,-0.552c-0.033,-0.248 -0.118,-0.501 -0.189,-0.705c-0.052,-0.154 -0.091,-0.327 -0.153,-0.485c-0.032,-0.083 -0.071,-0.162 -0.118,-0.235c-0.112,-0.171 -0.243,-0.36 -0.394,-0.522c-0.115,-0.122 -0.243,-0.227 -0.382,-0.303c-0.323,-0.178 -0.682,-0.221 -1.048,-0.192c-0.486,0.039 -0.983,0.218 -1.403,0.359c-0.21,0.07 -0.426,0.156 -0.638,0.251c-0.213,0.096 -0.421,0.203 -0.614,0.317c-0.036,0.021 -0.239,0.1 -0.313,0.147c-0.046,0.03 -0.081,0.064 -0.107,0.098Zm0.459,0.612c0.019,0.066 -0.127,0.157 -0.175,0.222c-0.133,0.184 -0.209,0.408 -0.221,0.637c-0.014,0.237 0.03,0.478 0.141,0.68c0.315,0.569 0.907,0.94 1.553,1.089c0.668,0.153 1.393,0.077 1.946,-0.255c0.126,-0.077 0.235,-0.175 0.333,-0.283c0.163,-0.18 0.3,-0.387 0.441,-0.581c0.092,-0.13 0.254,-0.227 0.37,-0.348c0.025,-0.026 0.047,-0.053 0.057,-0.086c0.034,-0.109 0.029,-0.231 0.01,-0.353c-0.034,-0.216 -0.119,-0.433 -0.186,-0.61c-0.048,-0.128 -0.085,-0.269 -0.136,-0.403c-0.027,-0.071 -0.06,-0.139 -0.102,-0.198c-0.102,-0.144 -0.22,-0.303 -0.356,-0.437c-0.079,-0.077 -0.165,-0.145 -0.259,-0.191c-0.231,-0.114 -0.485,-0.124 -0.739,-0.091c-0.434,0.057 -0.87,0.25 -1.239,0.396c-0.186,0.074 -0.376,0.162 -0.562,0.258c-0.184,0.096 -0.362,0.202 -0.527,0.312c-0.016,0.011 -0.074,0.064 -0.133,0.106c-0.053,0.068 -0.129,0.117 -0.216,0.136Z"/></g></g><g id="Dark.Hat"><path d="M0.713,7.567c-0.674,-2.105 0.738,-3.963 2.187,-5.382c0.598,-0.584 1.067,-1.159 1.885,-1.454c1.648,-0.595 3.599,-0.389 5.215,0.21c0.673,0.25 2.659,1.523 2.975,2.197c0.199,0.426 0.023,0.899 -0.601,1.011" style="fill:#fff" class="hidden dark:block"/><path d="M1.07,7.453c-0.264,-0.764 -0.222,-1.497 0.009,-2.187c0.365,-1.089 1.176,-2.069 1.996,-2.903c0.349,-0.351 0.651,-0.699 1.014,-0.984c0.224,-0.177 0.472,-0.329 0.771,-0.44c0.797,-0.286 1.668,-0.383 2.533,-0.326c0.871,0.057 1.734,0.272 2.516,0.575c0.374,0.147 1.167,0.64 1.825,1.153c0.438,0.343 0.819,0.687 0.931,0.941c0.051,0.116 0.054,0.237 -0.009,0.331c-0.062,0.093 -0.184,0.142 -0.348,0.167c-0.204,0.036 -0.339,0.231 -0.303,0.435c0.037,0.204 0.232,0.34 0.435,0.303c0.41,-0.084 0.676,-0.282 0.82,-0.521c0.177,-0.295 0.194,-0.662 0.024,-1.004c-0.154,-0.309 -0.62,-0.743 -1.182,-1.145c-0.728,-0.521 -1.603,-1.011 -2.01,-1.154c-0.834,-0.295 -1.753,-0.484 -2.673,-0.53c-0.927,-0.047 -1.857,0.05 -2.709,0.359c-0.349,0.122 -0.638,0.292 -0.902,0.49c-0.383,0.288 -0.709,0.639 -1.082,0.994c-0.914,0.861 -1.806,1.892 -2.247,3.043c-0.313,0.819 -0.399,1.699 -0.123,2.631c0.063,0.197 0.274,0.306 0.471,0.243c0.197,-0.063 0.306,-0.274 0.243,-0.471Z" style="fill-opacity:0.85" class="hidden dark:block"/><path d="M5.211,8.291c-0.078,-0.034 0.327,-0.133 0.373,-0.152c0.278,-0.112 0.595,-0.21 0.881,-0.299c0.202,-0.062 0.387,-0.229 0.595,-0.299c0.636,-0.215 1.416,-0.286 2.082,-0.352c1.275,-0.127 2.631,-0.179 3.915,-0.179c0.605,0 1.325,0.192 1.913,0.016c0.213,-0.063 0.196,-0.606 0.158,-0.756c-0.444,-1.746 -1.414,-2.477 -1.667,-2.991c-0.427,-0.868 -1.989,-0.155 -2.767,-0.064c-2.133,0.249 -4.177,0.685 -6.195,1.438c-1.01,0.377 -2.023,0.65 -2.859,1.365c-0.45,0.386 -0.799,0.8 -1.074,1.329c-0.293,0.561 0.199,0.895 0.438,1.36c0.075,0.148 0.508,1.114 0.601,1.065c0.549,-0.288 1.062,-0.638 1.628,-0.908c0.394,-0.188 0.798,-0.342 1.213,-0.467c0.141,-0.043 0.275,-0.09 0.42,-0.116c0.071,-0.013 0.282,-0.042 0.21,-0.042c-0.094,-0 -0.185,0.001 -0.28,0.011" style="fill:#abe9f6" class="hidden dark:block"/><path d="M5.042,8.626l0.015,0.007c0.121,0.055 0.255,0.04 0.359,-0.028c0.066,0.051 0.278,-0.111 0.306,-0.123l0.849,-0.3c0.059,-0.019 0.117,-0.043 0.175,-0.073c0.142,-0.072 0.276,-0.184 0.426,-0.237c0.239,-0.084 0.5,-0.146 0.767,-0.196c0.416,-0.076 0.845,-0.121 1.235,-0.165c0.632,-0.07 1.284,-0.122 1.937,-0.157c0.653,-0.036 1.309,-0.056 1.946,-0.064c0.42,-0.004 0.896,0.084 1.344,0.077c0.224,-0.003 0.441,-0.027 0.644,-0.09c0.143,-0.044 0.262,-0.172 0.317,-0.365c0.067,-0.237 0.045,-0.58 0.012,-0.704c-0.139,-0.53 -0.324,-0.969 -0.522,-1.339c-0.462,-0.861 -1.004,-1.329 -1.185,-1.691c-0.182,-0.365 -0.514,-0.522 -0.923,-0.546c-0.66,-0.039 -1.546,0.302 -2.075,0.365c-1.075,0.125 -2.127,0.299 -3.166,0.531c-1.041,0.233 -2.068,0.524 -3.089,0.897c-0.616,0.224 -1.232,0.41 -1.811,0.678c-0.402,0.186 -0.785,0.41 -1.14,0.708c-0.24,0.202 -0.453,0.412 -0.644,0.64c-0.192,0.231 -0.361,0.481 -0.511,0.762c-0.122,0.229 -0.144,0.433 -0.115,0.622c0.027,0.177 0.106,0.341 0.208,0.503c0.104,0.165 0.237,0.326 0.328,0.509c0.062,0.125 0.36,0.799 0.525,1.036c0.098,0.141 0.214,0.193 0.273,0.206c0.085,0.019 0.161,0.004 0.229,-0.031c0.389,-0.199 0.762,-0.429 1.148,-0.64c0.156,-0.085 0.314,-0.167 0.477,-0.242c0.19,-0.088 0.382,-0.167 0.577,-0.239c0.195,-0.072 0.393,-0.136 0.593,-0.194l0.38,-0.1l0.111,-0.017Zm9.813,-1.84c0.008,-0.025 0.023,-0.074 0.029,-0.11c0.019,-0.133 0.013,-0.281 -0.002,-0.343c-0.121,-0.489 -0.283,-0.895 -0.461,-1.237c-0.452,-0.871 -0.989,-1.349 -1.166,-1.715c-0.14,-0.289 -0.455,-0.323 -0.803,-0.297c-0.595,0.045 -1.291,0.297 -1.732,0.348c-1.059,0.125 -2.097,0.293 -3.118,0.53c-1.019,0.236 -2.021,0.54 -3.018,0.919c-0.598,0.229 -1.197,0.421 -1.758,0.693c-0.356,0.172 -0.696,0.379 -1.008,0.651c-0.211,0.184 -0.397,0.375 -0.563,0.582c-0.164,0.205 -0.306,0.427 -0.432,0.674c-0.067,0.133 -0.062,0.243 -0.021,0.345c0.101,0.253 0.334,0.472 0.476,0.74c0.049,0.093 0.247,0.523 0.404,0.793c0.298,-0.172 0.59,-0.357 0.89,-0.531c0.167,-0.097 0.337,-0.19 0.512,-0.276c0.204,-0.1 0.411,-0.191 0.62,-0.275c0.21,-0.083 0.422,-0.159 0.638,-0.227l0.175,-0.05c0.06,-0.068 0.144,-0.114 0.241,-0.124l0.318,-0.008c0.039,0 0.074,0.005 0.104,0.012c0.112,-0.038 0.239,-0.073 0.266,-0.084c0.118,-0.046 0.243,-0.089 0.369,-0.131c0.183,-0.06 0.369,-0.115 0.544,-0.167c0.144,-0.042 0.277,-0.149 0.42,-0.219c0.056,-0.027 0.112,-0.051 0.169,-0.069c0.274,-0.089 0.572,-0.154 0.877,-0.202c0.433,-0.068 0.88,-0.106 1.285,-0.141c0.644,-0.057 1.309,-0.095 1.974,-0.117c0.663,-0.021 1.327,-0.027 1.973,-0.02c0.42,0.004 0.894,0.102 1.342,0.104c0.157,0 0.311,-0.011 0.456,-0.048Zm-9.384,1.236c-0.026,-0.027 -0.061,-0.053 -0.107,-0.073c0.041,0.019 0.077,0.044 0.107,0.073Z" class="hidden dark:block"/><path d="M6.249,3.724c0.01,-0.015 -0.196,0.243 -0.251,0.315c-0.175,0.227 -0.337,0.448 -0.461,0.709c-0.368,0.779 -0.502,1.796 -0.56,2.651c-0.075,1.127 -0.278,2.243 -0.402,3.365c-0.092,0.825 -0.096,1.662 -0.204,2.484c-0.08,0.599 -0.076,1.193 -0.076,1.795c-0,0.193 -0.014,0.385 0.035,0.573c0.025,0.099 0.196,0.294 0.093,0.294c-0.136,-0 -0.398,-0.442 -0.467,-0.531c-0.523,-0.672 -0.753,-1.355 -1.061,-2.142c-0.549,-1.4 -1.547,-2.623 -1.872,-4.083c-0.175,-0.786 -0.717,-1.242 -0.641,-2.061c0.082,-0.878 0.062,-1.135 0.402,-1.932" style="fill:#fff" class="hidden dark:block"/><path d="M4.075,15.174c-0.172,-0.233 -0.309,-0.467 -0.427,-0.708c-0.204,-0.414 -0.354,-0.846 -0.532,-1.315c-0.372,-0.986 -0.964,-1.888 -1.391,-2.842c-0.176,-0.394 -0.322,-0.797 -0.409,-1.22c-0.115,-0.564 -0.416,-0.966 -0.553,-1.444c-0.045,-0.158 -0.066,-0.327 -0.044,-0.521c0.046,-0.421 0.066,-0.696 0.116,-0.958c0.049,-0.253 0.13,-0.492 0.294,-0.858c0.081,-0.19 -0.007,-0.411 -0.197,-0.492c-0.191,-0.081 -0.411,0.008 -0.493,0.198c-0.135,0.335 -0.214,0.582 -0.265,0.814c-0.077,0.355 -0.086,0.672 -0.128,1.234c-0.022,0.289 0.017,0.54 0.093,0.774c0.149,0.46 0.46,0.838 0.592,1.384c0.11,0.46 0.283,0.897 0.488,1.324c0.451,0.934 1.061,1.812 1.455,2.78c0.193,0.479 0.357,0.92 0.574,1.343c0.147,0.288 0.317,0.568 0.536,0.847c0.054,0.069 0.226,0.345 0.367,0.481c0.097,0.092 0.199,0.131 0.272,0.131c0.129,0 0.19,-0.065 0.224,-0.133c0.022,-0.045 0.035,-0.106 0.016,-0.18c-0.015,-0.064 -0.105,-0.181 -0.123,-0.251c-0.015,-0.062 -0.022,-0.124 -0.026,-0.186c-0.006,-0.11 -0.001,-0.221 -0,-0.333c0.001,-0.358 0.001,-0.713 0.019,-1.068c0.012,-0.233 0.033,-0.464 0.065,-0.697c0.024,-0.168 0.042,-0.336 0.059,-0.505c0.066,-0.659 0.091,-1.324 0.171,-1.981c0.099,-0.783 0.234,-1.563 0.34,-2.347c0.045,-0.341 0.085,-0.682 0.114,-1.026c0.041,-0.494 0.11,-1.043 0.238,-1.565c0.083,-0.339 0.192,-0.666 0.336,-0.956c0.056,-0.113 0.121,-0.217 0.191,-0.317c0.075,-0.108 0.157,-0.212 0.242,-0.317c0.042,-0.053 0.171,-0.209 0.226,-0.275l0.005,-0.007c0.015,-0.015 0.029,-0.032 0.041,-0.051c0.002,-0.003 0.004,-0.008 0.004,-0.014c0.074,-0.14 -0.007,-0.242 -0.133,-0.31c-0.123,-0.182 -0.315,-0.326 -0.499,-0.088c-0.055,0.071 -0.184,0.239 -0.226,0.295c-0.109,0.147 -0.214,0.292 -0.308,0.445c-0.066,0.108 -0.127,0.219 -0.18,0.338c-0.153,0.339 -0.266,0.718 -0.348,1.11c-0.116,0.559 -0.172,1.145 -0.199,1.671c-0.017,0.334 -0.044,0.667 -0.079,0.999c-0.081,0.787 -0.196,1.572 -0.272,2.359c-0.058,0.581 -0.072,1.167 -0.111,1.75c-0.016,0.245 -0.037,0.489 -0.067,0.732c-0.031,0.246 -0.048,0.491 -0.057,0.736c-0.014,0.362 -0.012,0.724 -0.011,1.089c0.001,0.044 0,0.087 -0,0.131Z" style="fill-opacity:0.85" class="hidden dark:block"/><path d="M3.754,15.052c0.009,-0.032 -0.563,0.288 -0.642,0.404c-0.242,0.36 -0.363,1.035 -0.285,1.465c0.163,0.908 1.555,1.42 2.316,1.05c0.396,-0.193 0.646,-1.859 0.25,-2.215c-0.271,-0.245 -0.769,-0.594 -1.149,-0.594c-0.111,0 -1.031,0.016 -0.595,0.016" style="fill:#fff" class="hidden dark:block"/><path d="M3.403,14.815c-0.09,0.009 -0.177,0.026 -0.257,0.049c-0.28,0.062 -0.405,0.16 -0.422,0.262c-0.044,0.077 -0.033,0.158 0.057,0.229c-0.11,0.208 -0.193,0.476 -0.234,0.753c-0.045,0.306 -0.046,0.62 0.007,0.862c0.112,0.531 0.563,0.949 1.113,1.169c0.531,0.211 1.141,0.242 1.571,0.028c0.088,-0.042 0.176,-0.127 0.254,-0.251c0.142,-0.223 0.257,-0.602 0.315,-0.991c0.048,-0.328 0.052,-0.662 0.002,-0.916c-0.04,-0.204 -0.125,-0.361 -0.228,-0.462c-0.17,-0.166 -0.428,-0.372 -0.695,-0.52c-0.216,-0.12 -0.442,-0.192 -0.642,-0.201c-0.035,-0.001 -0.148,-0.005 -0.276,-0.009c-0.098,-0.113 -0.247,-0.184 -0.448,-0.073c-0.033,0.018 -0.073,0.043 -0.117,0.071Zm0.184,0.735c-0.107,0.06 -0.202,0.116 -0.202,0.116c-0,-0 0.006,-0.015 0.009,-0.02c-0.107,0.145 -0.192,0.356 -0.243,0.576c-0.053,0.228 -0.078,0.464 -0.052,0.65c0.055,0.374 0.373,0.669 0.749,0.837c0.399,0.179 0.867,0.223 1.199,0.066c0.047,-0.023 0.077,-0.091 0.113,-0.172c0.086,-0.191 0.145,-0.461 0.17,-0.735c0.021,-0.226 0.016,-0.455 -0.019,-0.643c-0.021,-0.116 -0.048,-0.213 -0.105,-0.261c-0.127,-0.106 -0.307,-0.23 -0.497,-0.329c-0.157,-0.082 -0.323,-0.143 -0.465,-0.137c-0.051,0.003 -0.276,0.017 -0.458,0.029c-0.042,0.017 -0.088,0.026 -0.137,0.026l-0.062,-0.003Z" class="hidden dark:block"/></g></svg>