<?xml version="1.0" encoding="UTF-8" standalone="no"?><!DOCTYPE svg PUBLIC "-//W3C//DTD SVG 1.1//EN" "http://www.w3.org/Graphics/SVG/1.1/DTD/svg11.dtd"><svg width="100%" height="100%" viewBox="0 0 1306 1328" version="1.1" xmlns="http://www.w3.org/2000/svg" xmlns:xlink="http://www.w3.org/1999/xlink" xml:space="preserve" xmlns:serif="http://www.serif.com/" style="fill-rule:evenodd;clip-rule:evenodd;stroke-linejoin:round;stroke-miterlimit:2;"><g id="Cara"><path d="M93.378,787.827c3.034,14.154 9.436,36.064 18.587,51.717c9.15,15.654 23.237,29.036 36.315,42.205c13.334,13.427 29.717,24.927 43.688,38.356c14.9,14.324 32.826,30.715 45.715,47.586c12.6,16.493 24.556,34.123 31.618,53.64c7.086,19.579 7.121,42.58 10.894,63.834c3.917,22.062 6.944,46.558 12.605,68.54c5.558,21.582 11.481,49.156 21.362,63.352c8.331,11.97 26.363,12.928 37.92,21.824c15.862,12.209 38.611,42.057 57.25,51.43c16.319,8.206 36.459,2.556 54.585,4.806c30.852,3.83 93.817,18.924 130.525,18.171c30.843,-0.633 66.047,-14.342 89.724,-22.689c18.571,-6.548 36.132,-16.212 52.339,-27.397c16.645,-11.488 32.341,-26.974 47.532,-41.531c17.055,-16.342 39.237,-37.233 54.796,-56.523c14.789,-18.335 28.055,-42.716 38.558,-59.22c8.362,-13.137 20.066,-28.808 24.464,-39.8c3.246,-8.114 3.044,-19.819 1.922,-26.147c-0.853,-4.809 -13.45,-10.898 -8.654,-11.822c5.981,-1.154 29.611,4.483 44.543,4.901c18.853,0.529 45.943,1.535 68.574,-1.73c23.427,-3.381 52.516,-9.935 71.992,-18.554c17.006,-7.527 34.307,-18.424 44.864,-33.164c10.557,-14.74 15.905,-36.021 18.478,-55.279c3.737,-27.974 2.842,-80.909 3.944,-112.568c0.898,-25.796 6.637,-51.883 2.669,-77.387c-4.54,-29.176 -19.233,-65.338 -29.907,-97.671c-15.939,-48.282 -50.215,-149.987 -65.727,-192.02c-7.628,-20.67 -11.783,-44.578 -27.343,-60.177c-21.416,-21.47 -70.925,-51.176 -101.153,-68.64c-25.395,-14.672 -52.304,-27.146 -80.218,-36.146c-32.151,-10.367 -75.572,-21.823 -112.69,-26.053c-36.438,-4.152 -73.489,-2.566 -110.019,0.674c-43.349,3.846 -101.363,8.778 -150.073,22.399c-49.561,13.859 -104.73,37.251 -147.295,60.755c-39.288,21.695 -80.911,56.365 -108.096,80.27c-20.966,18.437 -42.46,44.671 -55.011,63.16c-9.718,14.316 -14.203,31.582 -20.294,47.777c-6.213,16.519 -13.563,33.639 -16.982,51.335c-4.344,22.479 -4.089,55.978 -9.08,83.54c-5.27,29.097 -18.718,70.331 -22.538,91.039c-2.008,10.886 -2.703,22.383 -0.383,33.207Z" style="fill:#fff;"/><path d="M912.977,1038.92c5.332,0.891 11.239,1.895 16.729,2.496c3.436,0.376 6.73,0.641 9.706,0.718c11.744,0.305 26.645,0.782 41.708,0.326c9.651,-0.292 19.366,-0.966 28.396,-2.288c14.005,-2.051 29.984,-5.214 44.824,-9.256c10.79,-2.94 20.985,-6.348 29.445,-10.113c10.74,-4.78 21.579,-10.844 30.967,-18.258c6.686,-5.281 12.644,-11.243 17.384,-17.89c4.778,-6.701 8.612,-14.605 11.631,-23.087c4.112,-11.553 6.73,-24.19 8.309,-36.098c1.241,-9.342 1.986,-21.399 2.45,-34.534c0.937,-26.518 0.748,-57.531 1.473,-78.875c0.614,-18.05 3.588,-36.245 3.969,-54.281c0.174,-8.272 -0.178,-16.513 -1.458,-24.696c-1.501,-9.69 -4.072,-20.126 -7.25,-30.935c-6.53,-22.203 -15.654,-46.042 -22.921,-68.102c-9.177,-27.94 -24.477,-73.741 -38.703,-115.563c-10.408,-30.595 -20.237,-59.067 -26.756,-76.869c-4.55,-12.43 -7.88,-26.006 -13.105,-38.302c-3.985,-9.375 -9.047,-18.03 -16.157,-25.195c-9.345,-9.417 -23.849,-20.406 -39.874,-31.286c-21.345,-14.493 -45.41,-28.855 -62.997,-39.078c-12.935,-7.534 -26.261,-14.503 -39.907,-20.756c-13.705,-6.279 -27.737,-11.828 -42.028,-16.493c-16.622,-5.425 -36.223,-11.146 -56.433,-16.037c-19.497,-4.718 -39.56,-8.654 -58.087,-10.832c-18.658,-2.194 -37.479,-2.916 -56.316,-2.696c-18.625,0.217 -37.265,1.361 -55.775,2.929c-26.748,2.258 -59.033,4.914 -91.325,9.727c-20.75,3.093 -41.497,7.084 -60.825,12.4c-24.91,6.852 -51.215,16.069 -76.694,26.484c-26.124,10.677 -51.373,22.624 -73.34,34.616c-15.517,8.47 -31.398,18.894 -46.662,29.909c-24.234,17.489 -46.897,36.481 -63.97,51.348c-10.449,9.099 -21.034,20.039 -30.675,31.078c-10.529,12.057 -19.916,24.239 -26.768,34.227c-4.435,6.467 -7.939,13.466 -10.973,20.72c-4.057,9.7 -7.225,19.885 -10.964,29.682c-3.842,10.068 -8.093,20.357 -11.654,30.862c-2.514,7.418 -4.68,14.943 -6.191,22.566c-1.071,5.403 -1.898,11.403 -2.598,17.794c-2.218,20.27 -3.019,44.812 -6.939,65.824c-1.024,5.485 -2.361,11.419 -3.866,17.565c-6.469,26.422 -15.969,56.554 -19.158,73.337c-1.172,6.169 -1.948,12.515 -2.138,18.854c-0.202,6.745 0.293,13.481 1.657,20.022c1.728,7.864 4.437,17.979 8.04,28.214c3.408,9.68 7.603,19.455 12.459,27.665c4.167,7.047 9.201,13.697 14.729,20.059c7.509,8.642 15.923,16.771 23.985,24.808c2.921,2.911 5.972,5.742 9.113,8.516c11.36,10.034 23.946,19.327 35.011,29.856c8.868,8.439 18.821,17.601 28.126,27.169c5.916,6.083 11.574,12.323 16.46,18.651c6.052,7.839 11.965,15.939 17.208,24.413c5.037,8.141 9.473,16.617 12.756,25.547c1.951,5.307 3.305,10.905 4.36,16.655c2.691,14.675 3.588,30.24 6.277,44.957c2.814,15.452 5.2,32.097 8.352,48.238c1.406,7.203 2.96,14.308 4.761,21.176c3.851,14.68 7.906,32.063 13.165,46.338c2.999,8.14 6.418,15.35 10.28,20.845c3.689,5.251 8.576,9.135 14.215,12.178c8.324,4.49 18.853,6.43 26.385,12.174c10.685,8.149 24.523,24.439 38.097,36.797c7.266,6.615 14.514,12.192 21.227,15.53c6.308,3.137 13.035,4.732 20.026,5.376c12.468,1.151 25.891,-1.16 38.37,0.333c21.384,2.557 58.225,10.463 91.022,14.757c15.113,1.979 29.404,3.2 41.121,2.907c12.654,-0.308 25.996,-2.64 39.05,-5.96c19.9,-5.063 39.122,-12.393 53.913,-17.67c9.76,-3.482 19.255,-7.774 28.433,-12.684c9.066,-4.852 17.827,-10.297 26.231,-16.144c7.049,-4.904 13.939,-10.487 20.688,-16.423c9.557,-8.407 18.841,-17.52 27.942,-26.306c10.299,-9.938 22.455,-21.542 33.911,-33.448c7.752,-8.056 15.189,-16.249 21.543,-24.177c5.883,-7.339 11.539,-15.599 16.877,-23.971c8.228,-12.905 15.699,-26.067 22.133,-36.244c5.553,-8.782 12.578,-18.693 17.962,-27.6c3.017,-4.99 5.542,-9.706 7.173,-13.82c1.865,-4.701 2.866,-10.365 3.17,-15.868c0.309,-5.571 -0.062,-10.951 -0.712,-14.808Zm-18.119,3.96c0.354,2.683 0.498,6.17 0.278,9.765c-0.213,3.469 -0.752,7.06 -1.946,10.018c-1.326,3.285 -3.421,7.024 -5.861,11.004c-5.376,8.774 -12.388,18.526 -17.93,27.175c-6.484,10.12 -14.02,23.212 -22.311,36.044c-5.005,7.746 -10.29,15.397 -15.796,22.18c-6.053,7.46 -13.137,15.159 -20.516,22.729c-11.356,11.649 -23.414,22.981 -33.622,32.694c-8.944,8.506 -18.062,17.338 -27.448,25.47c-6.201,5.373 -12.519,10.434 -18.986,14.862c-7.793,5.335 -15.91,10.304 -24.307,14.717c-8.304,4.364 -16.887,8.175 -25.707,11.248c-14.313,4.986 -32.905,11.963 -52.149,16.704c-11.49,2.831 -23.217,4.859 -34.336,5.045c-10.765,0.172 -23.877,-1.127 -37.743,-3.068c-32.857,-4.601 -69.738,-12.852 -91.163,-15.609c-12.654,-1.628 -26.299,0.537 -38.946,-0.744c-4.124,-0.418 -8.12,-1.275 -11.828,-3.16c-5.051,-2.568 -10.37,-6.994 -15.817,-12.043c-13.994,-12.97 -28.33,-29.922 -39.36,-38.49c-8.431,-6.55 -20.049,-9.315 -29.385,-14.46c-2.277,-1.255 -4.378,-2.693 -5.856,-4.837c-3.685,-5.346 -6.572,-12.931 -9.209,-21.261c-3.906,-12.339 -7.033,-26.244 -10.069,-38.259c-2.15,-8.504 -3.881,-17.397 -5.432,-26.37c-2.408,-13.931 -4.374,-28.051 -6.665,-41.297c-2.542,-14.755 -3.284,-30.341 -5.829,-45.053c-1.254,-7.249 -2.934,-14.299 -5.321,-21.002c-3.042,-8.541 -6.943,-16.756 -11.404,-24.696c-6.409,-11.409 -14.012,-22.233 -21.868,-32.625c-5.416,-7.163 -11.68,-14.252 -18.256,-21.152c-9.455,-9.921 -19.571,-19.441 -28.59,-28.199c-11.198,-10.874 -23.94,-20.528 -35.444,-30.899c-2.692,-2.426 -5.307,-4.897 -7.808,-7.441c-7.512,-7.641 -15.379,-15.348 -22.366,-23.554c-4.33,-5.086 -8.303,-10.371 -11.549,-15.989c-3.89,-6.732 -7.163,-14.764 -9.861,-22.683c-3.076,-9.029 -5.367,-17.945 -6.815,-24.873c-0.948,-4.305 -1.288,-8.749 -1.204,-13.2c0.092,-4.817 0.65,-9.642 1.49,-14.337c2.949,-16.48 12.001,-46.092 18.063,-72.051c1.563,-6.693 2.94,-13.154 3.988,-19.124c0.994,-5.661 1.784,-11.557 2.435,-17.558c2.513,-23.193 2.836,-48.062 6.189,-65.905c1.221,-6.49 3.022,-12.897 5.097,-19.221c3.353,-10.216 7.391,-20.225 11.021,-30.021c3.55,-9.578 6.518,-19.535 10.378,-29.022c2.292,-5.631 4.893,-11.096 8.274,-16.13c6.288,-9.361 14.928,-20.779 24.622,-32.099c8.78,-10.254 18.414,-20.441 27.957,-28.915c16.464,-14.62 38.317,-33.314 61.721,-50.551c14.334,-10.558 29.243,-20.579 43.84,-28.732c21.144,-11.81 45.461,-23.616 70.646,-34.177c24.536,-10.289 49.888,-19.408 73.909,-26.234c18.455,-5.245 38.285,-9.213 58.119,-12.341c31.769,-5.01 63.55,-7.881 89.877,-10.329c17.995,-1.669 36.118,-2.94 54.235,-3.288c17.957,-0.346 35.907,0.209 53.711,2.173c17.786,1.962 37.054,5.617 55.788,10.009c19.718,4.622 38.847,10.058 55.074,15.226c13.628,4.34 27.015,9.526 40.096,15.408c13.128,5.902 25.951,12.499 38.404,19.637c17.333,9.953 41.056,23.932 62.103,38.061c14.972,10.05 28.586,20.132 37.331,28.853c5.522,5.507 9.345,12.252 12.461,19.479c5.171,11.99 8.454,25.254 12.965,37.379c6.574,17.678 16.524,45.944 27,76.341c14.373,41.7 29.747,87.397 38.994,115.266c7.239,21.885 16.335,45.527 22.842,67.554c2.968,10.047 5.393,19.744 6.8,28.752c1.115,7.204 1.389,14.457 1.224,21.736c-0.408,17.965 -3.41,36.083 -4.051,54.06c-0.76,21.337 -0.62,52.34 -1.6,78.848c-0.462,12.506 -1.169,23.987 -2.365,32.881c-1.207,8.979 -3.034,18.424 -5.787,27.366c-2.724,8.852 -6.342,17.211 -11.228,24.006c-4.797,6.667 -11.171,12.414 -18.236,17.372c-7.247,5.086 -15.232,9.327 -23.14,12.807c-9.564,4.209 -21.549,7.868 -33.975,10.891c-12.076,2.938 -24.568,5.26 -35.741,6.848c-8.381,1.192 -17.397,1.764 -26.351,1.997c-14.698,0.384 -29.235,-0.152 -40.693,-0.497c-12.259,-0.378 -30.428,-4.355 -39.656,-5.051c-2.951,-0.223 -5.312,-0.113 -6.884,0.185c-4.116,0.781 -6.022,2.98 -7.091,4.7c-1.317,2.118 -1.816,4.53 -1.231,7.267c0.363,1.692 1.759,4.504 4.697,7.158l5.103,4.632Z"/><path d="M89.786,715.235c-5.791,4.336 -7.587,12.416 -3.916,18.867c2.429,3.334 4.91,6.321 9.011,6.916c1.415,0.205 2.942,0.754 4.672,0.445c1.442,-0.258 5.361,-0.155 8.796,-3.673c1.064,-1.09 4.341,-5.012 4.341,-5.012c0,-0 -0.628,0.385 -0.802,0.541c-0,-0 11.559,-10.471 11.559,-10.471c5.284,-3.647 12.145,-8.43 19.709,-11.243c6.234,-2.318 12.754,-3.846 18.302,-1.684c7.55,3.632 13.778,8.515 18.675,14.557c5.091,6.28 8.378,13.825 11.371,21.739c1.478,4.191 3.542,13.257 5.526,19.168c1.229,3.663 3.021,6.287 4.183,7.961c3.979,5.736 9.708,5.565 13.469,5.579c4.246,0.016 9.003,-2.56 12.927,-10.338c2.628,-7.228 -0.823,-15.195 -7.736,-18.285c-2.711,-4.925 -5.614,-11.024 -7.473,-14.046c-5.3,-9.085 -11.37,-17.17 -18.519,-24.236c-7.237,-7.152 -15.317,-13.466 -25.435,-17.681c-7.368,-3.719 -16.139,-3.882 -25.127,-2.615c-11.471,1.617 -23.216,6.278 -31.726,10.177l-15.759,8.998c-0.962,0.54 -6.773,2.495 -6.048,4.336Zm112.323,39.793c-0.831,0.886 -1.545,2.026 -1.911,3.591c0.478,-1.313 1.125,-2.516 1.911,-3.591Zm20.577,-0.02l0.025,0.037c0.092,0.135 0.358,0.261 0.358,0.261l-0.383,-0.298Zm-114.01,-38.605c0.98,0.941 1.839,2.037 2.544,3.276c-0.583,-1.361 -1.495,-2.389 -2.544,-3.276Zm-7.358,-3.823c1.469,0.284 2.892,0.793 4.212,1.512c-1.099,-0.758 -2.503,-1.288 -4.212,-1.512Z"/><path d="M153.292,804.8c1.193,-1.788 1.986,-3.426 3.332,-4.394c0.569,-0.409 0.824,-1.223 1.495,-1.268c1.617,-0.108 3.39,0.574 5.59,1.741c1.587,1.231 2.485,3.146 3.35,5.036c0.062,0.137 0.116,0.275 0.16,0.416c-0.219,0.205 -0.43,0.419 -0.636,0.641c-0.121,0.232 -0.302,0.481 -0.18,0.55c0.407,0.227 0.746,0.188 1.029,0.015c0.084,1.271 -0.247,2.596 -0.31,3.893c0.063,-0.791 0.003,-1.86 -0.741,-2.294c-0.79,-0.46 -1.606,0.798 -1.944,1.148c-0.662,0.687 -0.802,1.375 -1.04,1.67c-0.828,1.023 -0.609,2.138 -0.928,2.75c-0.852,1.637 -0.089,3.153 -0.293,4.278c-0.177,0.982 0.459,1.769 0.465,2.607c0.022,3.027 2.65,4.461 3.913,6.527c1.65,2.7 5.089,2.596 8.603,3.866c1.255,0.455 2.664,-0.379 4.44,-0.319c1.182,0.039 2.381,-1.232 4.564,-1.941c0.434,-0.141 1.277,-1.341 3.826,-2.936c0.877,-0.948 1.604,-1.981 2.181,-3.072c2.26,-2.019 2.689,-11.367 0.696,-16.067c-1.801,-4.712 -3.847,-9.231 -7.452,-12.934c-3.378,-3.471 -6.82,-6.847 -11.15,-8.621c-7.154,-4.667 -12.924,-5.115 -18.313,-4.71c-5.316,0.399 -10.209,2.947 -16.901,7.011c-0.913,0.512 -2.488,1.092 -4.087,1.911c-1.915,0.981 -3.204,2.568 -4.698,3.776c-2.24,1.811 -2.596,4.5 -3.693,6.616c-0.488,0.942 -0.242,1.995 -0.543,2.978c-1.234,4.03 1.421,7.462 3.853,12.148c5.353,6.011 14.578,6.546 20.59,1.193c3.587,-3.194 5.224,-7.768 4.822,-12.215Zm-2.761,-7.299c-0.188,-0.414 -0.448,-0.791 -0.868,-1.075c0.31,0.347 0.599,0.706 0.868,1.075Z"/><g id="Ojos"><path d="M658.028,731.478c0.704,-2.391 0.8,-4.996 0.156,-7.588c-3.114,-7.679 -6.996,-11.618 -12.478,-12.046c-2.873,-0.225 -6.275,-0.803 -9.607,0.946c-3.676,1.929 -8.397,5.783 -10.026,7.733c-4.502,5.131 -12.741,20.441 -13.267,32.328c-0.391,8.816 1.87,16.026 8.739,19.391c2.468,1.285 5.027,2.095 7.709,2.432c2.874,0.361 5.85,0.323 8.703,0.268c2.818,0.081 5.241,-0.175 7.614,-0.626c2.576,-0.49 5.035,-1.428 7.809,-2.859c8.916,-4.263 14.476,-14.242 14.873,-22.752c0.303,-6.525 -2.838,-12.407 -10.225,-17.227Zm-12.398,20.785c-1.42,0.263 -4.308,1.677 -5.842,1.403c-2.345,1.058 -4.934,1.478 -7.487,1.22c-0.163,1.124 0.089,2.565 -0.76,2.643l-0.086,-0.001c0.395,0.163 0.807,0.273 1.233,0.329c1.746,0.231 3.543,0.183 5.269,0.215c1.348,-0.039 2.512,-0.162 3.622,-0.482c0.905,-0.261 1.66,-0.864 2.583,-1.501c1.082,-0.796 1.212,-2.448 1.468,-3.826Zm-0.435,-2.815c0.11,-0.1 0.2,-0.213 0.268,-0.34l-0.268,0.34Z"/><path d="M1057.53,707.472c-3.989,-0.222 -12.509,1.528 -18.38,4.272c-6.939,3.244 -9.036,9.744 -9.94,15.657c-0,5.216 2.743,9.795 6.868,12.371c-0.202,2.725 0.075,5.379 1.257,7.909c0.981,2.211 2.181,4.4 4.334,5.987c3.268,2.409 8.537,4.283 14.579,4.459c10.492,0.306 22.031,-3.975 24.784,-9.131c5.677,-8.513 4.602,-17.954 0.975,-25.769c1.395,-3.505 1.437,-7.545 -0.204,-11.267c-3.247,-7.365 -11.862,-10.708 -19.227,-7.461c-2.116,1.321 -3.736,2.238 -5.046,2.973Zm7.782,26.258l-0.328,0.24c-1.131,0.921 -2.59,1.95 -4.008,3.192c2.283,0.102 4.503,0.696 5.666,1.776c0.285,-1.886 -0.354,-3.695 -1.33,-5.208Z"/></g><path d="M641.662,1107.85c5.517,-0.665 10.612,-0.073 14.135,3.374c6.289,5.024 15.473,3.998 20.497,-2.29c5.024,-6.289 3.998,-15.473 -2.291,-20.497c-8.747,-5.603 -18.861,-7.686 -29.977,-5.447c-16.929,3.411 -36.007,15.017 -47.175,22.057c-5.799,3.203 -13.657,7.959 -17.173,14.272c-2.161,3.879 -3.071,8.287 -1.942,13.495c2.364,12.747 10.308,16.24 18.869,16.644c13.616,0.643 33.668,-14.86 38.908,-21.553c4.914,-6.093 6.64,-13.476 6.243,-19.126c-0.022,-0.312 -0.052,-0.622 -0.094,-0.929Zm-29.611,9.593c-2.559,1.13 -4.912,2.206 -6.987,3.128c-2.744,1.363 -6.461,2.848 -9.112,5.22c-0.854,0.764 -1.698,1.626 -1.368,2.875c0.258,0.847 1.285,1.446 1.443,1.935c0.025,-0.084 0.041,-0.164 0.036,-0.221c-0.031,-0.383 0.731,-0.274 1.132,-0.396c1.338,-0.407 2.613,-1.263 3.969,-2.113c4.368,-2.734 8.377,-7.046 10.887,-10.428Zm6.455,2.97c0.158,0.081 0.335,0.142 0.533,0.18l-0.533,-0.18Z"/><path d="M303.328,489.643c7.208,5.16 12.548,20.654 16.13,28.175c10.919,22.926 19.081,46.825 26.755,71.036c2.995,9.449 14.571,21.688 11.189,32.101c-3.914,12.053 -18.956,10.593 -28.075,6.489c-0.796,-0.358 -11.935,-6.048 -12.333,-4.952c-4.033,11.089 2.464,33.081 2.464,45.085c-0,6.184 2.24,14.252 -3.984,17.755c-33.822,19.037 -76.397,-3.327 -112.701,1.877c-12.752,1.829 -26.386,0.312 -38.895,2.565c-28.228,5.082 -56.733,28.184 -82.343,2.388c-4.617,-4.652 -10.261,-9.173 -14.422,-14.17c-2.922,-3.51 -3.39,-8.644 -4.934,-12.809c-14.297,-38.568 12.634,-57.241 22.578,-91.185c3.858,-13.171 1.522,-34.771 12.333,-44.568c2.279,-2.066 -8.069,-10.075 -9.106,-11.442c-5.45,-7.175 -6.977,-16.102 -5.504,-25.101c2.86,-17.477 10.068,-19.503 22.39,-28.685c3.135,-2.336 8.316,-10.355 11.952,-11.442c15.539,-4.645 37.549,-0.093 52.748,3.245c26.148,5.743 52.785,9.734 79.497,9.734c15.251,0 34.471,-0.317 48.764,6.143c5.976,2.702 18.386,11.398 7.017,14.176"/><path d="M85.128,528.988c-1.769,2.972 -3.124,6.292 -4.126,9.865c-2.937,10.483 -2.542,23.484 -5.094,32.553c-7.049,24.861 -22.845,41.868 -25.842,63.917c-1.324,9.74 -0.518,20.385 4.159,32.809c1.117,2.992 1.717,6.464 2.987,9.522c0.867,2.085 1.969,4.029 3.405,5.747l14.927,14.709c12.33,12.491 25.268,15.503 38.509,14.342c16.736,-1.467 34.145,-10.981 51.39,-13.989c2.255,-0.389 4.552,-0.631 6.873,-0.796c10.468,-0.747 21.386,-0.022 31.752,-1.429c24.879,-3.288 52.572,6.724 78.416,6.917c13.295,0.099 26.122,-2.172 38.115,-8.718c4.418,-2.411 6.946,-5.895 8.433,-9.891c1.853,-4.977 1.056,-11.542 1.127,-16.969c0.113,-7.326 -2.054,-18.335 -2.913,-28.408c7.416,2.84 16.822,4.035 24.514,1.914c7.734,-2.132 14.048,-7.242 17.176,-16.383c1.948,-5.693 1.542,-11.748 -0.4,-17.884c-2.397,-7.569 -8.314,-15.352 -10.245,-21.79c-4.427,-14.861 -9.051,-29.598 -14.339,-44.1c-3.587,-9.839 -7.498,-19.555 -11.852,-29.129c-2.462,-5.414 -5.79,-14.612 -9.945,-21.812c1.605,-3.151 2.159,-6.479 1.614,-9.969c-0.481,-3.081 -1.789,-6.604 -4.513,-9.86c-3.702,-4.423 -10.86,-9.14 -15.594,-11.174c-7.03,-3.02 -14.96,-4.847 -23.181,-5.746c-10.653,-1.166 -21.777,-0.931 -31.414,-0.762c-12.818,0.217 -25.629,-0.502 -38.389,-1.934c-12.928,-1.451 -25.795,-3.585 -38.555,-6.161c-9.599,-1.944 -21.753,-4.282 -33.47,-4.788c-8.914,-0.385 -17.593,0.236 -25,2.57c-2.078,0.656 -4.537,1.961 -6.898,4.099c-2.94,2.663 -6.132,7.566 -8.348,9.269c-8.866,6.813 -15.204,10.574 -19.608,17.287c-2.902,4.425 -5.2,10.012 -6.457,18.412c-0.864,5.73 -0.798,11.424 0.371,16.82c1.242,5.731 3.615,11.157 7.353,15.953c0.404,0.518 2.892,2.921 5.062,4.987Zm204.805,-45.107c-3.992,-1.611 -8.404,-2.633 -12.948,-3.298c-9.436,-1.38 -19.343,-1.429 -27.918,-1.579c-13.928,-0.236 -27.815,-1.479 -41.62,-3.504c-13.578,-1.993 -27.07,-4.696 -40.431,-7.869c-8.504,-2.014 -19.262,-4.546 -29.698,-5.323c-5.7,-0.425 -11.291,-0.414 -16.189,0.757c-1.533,1.68 -7.492,8.145 -9.796,9.81c-5.755,4.158 -10.375,6.499 -13.79,10.049c-2.434,2.531 -3.903,5.879 -4.925,11.622c-0.567,3.212 -0.678,6.417 -0.096,9.469c0.517,2.711 1.506,5.313 3.154,7.634c0.886,0.81 4.549,4.185 6.494,6.356c2.218,2.477 3.771,5.002 4.377,6.865c1.641,5.046 0.252,8.991 -2.91,11.784c-3.039,2.686 -4.28,6.891 -5.239,11.353c-2.085,9.699 -2.378,20.647 -4.793,28.583c-6.288,20.756 -18.887,35.738 -24.525,53.113c-3.059,9.426 -3.637,19.678 1.053,32.532l3.476,10.348l13.918,13.63c8.032,8.045 16.395,10.049 24.964,9.227c16.28,-1.563 33.067,-11.244 49.823,-14.356c2.822,-0.529 5.697,-0.883 8.606,-1.134c10.069,-0.869 20.597,-0.265 30.559,-1.769c25.54,-3.948 54.303,5.414 80.913,4.972c9.358,-0.155 18.409,-1.726 26.787,-6.279c-0.103,-1.705 -0.388,-6.704 -0.422,-9.297c-0.123,-7.954 -3.288,-20.324 -4.116,-30.888c-0.543,-6.926 -0.042,-13.251 1.634,-18.094c0.961,-2.779 5.622,-9.602 15.123,-7.057c3.463,0.928 11.96,4.996 12.696,5.314c2.35,1.014 5.306,1.708 8.156,1.735c1.434,0.013 3.14,0.182 3.619,-1.377c0.485,-1.576 -0.769,-3.06 -1.54,-4.724c-3.217,-6.942 -8.221,-13.901 -10.194,-19.803c-3.983,-11.847 -8.089,-23.608 -12.589,-35.211c-4.423,-11.407 -9.252,-22.637 -14.73,-33.633c-1.835,-3.684 -4.136,-9.326 -6.882,-14.672c-1.577,-3.071 -3.025,-6.239 -5.096,-7.667c-5.675,-4.064 -7.563,-11.46 -4.905,-17.619Zm11.045,-11.879l0.408,-0.111c-0.142,0.032 -0.278,0.069 -0.408,0.111Z"/><path d="M888.278,293.437c-11.719,-2.627 -27.274,15.092 -37,20.665c-31.556,18.083 -65,32.567 -96.765,50.542c-9.565,5.413 -18.924,11.221 -27.888,17.59c-2.385,1.695 -8.441,6.273 -11.764,4.782c-8.558,-3.838 -12.579,-23.312 -10.056,-31.249c0.96,-3.022 2.726,-5.688 4.365,-8.367c0.926,-1.514 3.515,-6.166 2.658,-4.612c-7.02,12.724 -28.255,19.936 -39.277,28.691c-40.915,32.502 -79.245,67.13 -134.709,71.207c-8.548,0.629 -29.859,6.273 -34.154,-3.415c-4.667,-10.528 8.902,-22.433 15.936,-28.005c0.368,-0.291 7.452,-6.276 7.78,-5.979c2.092,1.896 -18.03,15.93 -19.351,16.734c-25.395,15.47 -53.493,26.841 -80.066,40.127c-36.208,18.104 -79.478,27.325 -120.105,27.325c-4.269,-0 -12.558,-3.437 -12.897,-8.367c-0.157,-2.281 -0.892,-7.679 0.376,-9.734c0.684,-1.11 6.541,-7.472 4.177,-3.926c-21.231,31.847 -75.629,31.014 -108.529,22.707c-7.178,-1.812 -15.843,-1.513 -22.196,-5.803c-8.095,-5.466 -9.639,-11.989 -13.284,-20.494c-0.546,-1.275 -0.496,-8.516 -1.707,-8.878c-5.383,-1.609 -13.118,2.878 -18.025,4.272c-12.534,3.559 -24.721,8.432 -37.375,4.606c-17.672,-5.344 -37.692,-1.627 -56.163,-7.17c-6.796,-2.04 -17.351,-7.437 -18.212,-16.053c-4.235,-42.352 43.024,-69.605 77.027,-82.819c12.064,-4.688 23.629,-9.594 36.43,-11.781c4.085,-0.698 7.97,-1.318 11.952,-2.388c2.208,-0.594 8.928,-1.708 6.642,-1.708c-13.276,0 -26.403,9.771 -40.602,6.83c-18.072,-3.744 -1.409,-30.575 5.122,-35.521c9.137,-6.921 20.304,-10.742 30.358,-16.048c20.683,-10.915 38.442,-23.413 61.854,-28.175c14.75,-3 29.021,-1.809 43.829,-3.245c2.357,-0.228 12.028,0.282 13.847,-1.367c0.674,-0.61 -16.268,-17.277 -16.698,-21.515c-1.617,-15.923 17.995,-35.097 29.601,-43.888c21.027,-15.929 48.033,-18.05 73.424,-20.83c8.227,-0.9 22.214,-4.424 30.552,-1.707c12.057,3.929 21.462,13.68 32.634,19.122c0.87,0.424 8.9,5.212 9.482,4.952c1.142,-0.51 3.17,-7.369 3.796,-8.537c4.37,-8.16 9.469,-16.764 15.179,-24.074c9.204,-11.783 31.795,-21.81 46.675,-24.59c35.201,-6.578 60.211,6.197 91.643,18.951c4.105,1.666 9.722,2.44 13.09,5.469c2.585,2.325 9.299,17.673 15.179,14.169c10.888,-6.488 20.039,-24.038 29.407,-33.127c17.948,-17.413 53.415,-27.916 78.547,-24.42c12.888,1.793 42.215,7.101 51.797,15.203c12.431,10.509 27.533,31.394 42.122,37.903c4.582,2.044 21.886,-11.457 26.562,-13.489c17.024,-7.401 44.164,-2.722 56.162,11.957c24.182,29.586 11.234,65.4 -5.879,94.771c-8.54,14.658 -11.768,27.912 -27.512,23.733"/><path d="M613.996,168.16c-1.072,-1.492 -2.182,-3.065 -2.816,-4.029c-1.465,-2.226 -2.84,-3.865 -3.791,-4.711c-1.901,-1.69 -4.138,-3.068 -6.612,-4.144c-3.157,-1.372 -6.846,-2.126 -9.795,-3.303c-19.82,-7.909 -37.222,-15.748 -55.96,-19.199c-12.954,-2.385 -26.522,-2.787 -41.815,0.163c-9.689,1.869 -22.338,6.481 -33.156,12.673c-8.122,4.648 -15.209,10.2 -19.684,15.989c-3.057,3.954 -5.957,8.249 -8.666,12.664c-2.519,4.103 -4.879,8.305 -7.06,12.411l-0.221,-0.117c-7.575,-3.644 -14.294,-9.38 -21.663,-13.75c-3.915,-2.32 -7.978,-4.324 -12.316,-5.714c-3.578,-1.147 -7.895,-1.586 -12.504,-1.424c-7.651,0.268 -16.312,2.186 -22.161,2.855c-15.753,1.804 -32.098,3.419 -47.349,7.95c-10.937,3.25 -21.331,7.951 -30.661,15.084c-7.437,5.677 -17.86,15.306 -24.84,25.796c-5.774,8.678 -9.108,18.005 -8.218,26.466c0.193,1.837 1.4,5.143 4.038,8.747c1.019,1.394 2.281,2.955 3.64,4.554c-9.148,0.699 -18.12,0.577 -27.157,1.298c-4.695,0.375 -9.405,0.96 -14.16,1.945c-10.01,2.073 -19.06,5.439 -27.721,9.506c-12.321,5.786 -23.828,13.021 -36.399,19.698c-7.053,3.741 -14.653,6.759 -21.72,10.617c-3.402,1.858 -6.69,3.896 -9.775,6.243c-5.701,4.336 -17.281,21.955 -16.566,33.982c0.18,3.03 0.865,5.854 2.222,8.307l-3.102,1.21c-21.292,8.247 -47.417,21.851 -64.304,40.762c-12.58,14.089 -20.165,31.047 -18.212,50.799c0.542,5.532 3.362,10.354 7.5,14.229c4.867,4.556 11.651,7.709 16.778,9.264c4.078,1.237 8.223,2.073 12.405,2.66c14.722,2.064 29.956,0.464 43.693,4.661c6.341,1.937 12.59,2.159 18.816,1.391c7.835,-0.966 15.636,-3.626 23.553,-5.85l8.495,-2.777c0.186,1.108 0.37,2.007 0.512,2.34c2.446,5.753 4.129,10.643 7.014,14.999c2.267,3.423 5.182,6.561 9.47,9.475c2.712,1.844 5.711,3.126 8.876,4.047c5.248,1.527 11.071,1.816 16.159,3.123c20.713,5.321 49.465,7.783 74.187,1.966c9.428,-2.218 18.264,-5.645 25.987,-10.465c1.145,1.399 2.543,2.684 4.16,3.809c4.543,3.164 10.791,4.903 14.785,4.919c20.997,0.106 42.687,-2.175 63.822,-6.782c21.305,-4.645 42.039,-11.677 60.951,-21.012c18.658,-9.208 38.052,-17.483 56.761,-26.866c1.16,-0.582 2.317,-1.167 3.472,-1.76l0.412,1.017c2.926,6.713 9.217,10.827 17.744,12.056c8.983,1.295 21.421,-1.272 27.648,-1.691c23.687,-1.595 44.506,-8.372 63.766,-18.145c27.918,-14.166 52.452,-34.842 77.893,-54.798c0.533,-0.418 1.089,-0.832 1.669,-1.239c-0.152,-3.948 2.703,-12.402 10.227,-27.535c-1.457,5.154 -1.46,13.294 0.22,21.203c-3.798,2.104 -7.415,4.175 -10.447,6.332c0.186,4.965 5.121,2.82 11.509,-2.125l-0.313,-1.065c-0.166,-0.66 -0.333,-1.32 -0.499,-1.98l-0.25,-1.162c5.551,-3.086 11.489,-6.249 16.546,-9.876c-5.046,5.056 -10.677,10.363 -15.484,14.083c0.27,0.949 0.574,1.883 0.905,2.798c3.17,8.77 8.865,15.515 15.025,18.33c3.009,1.374 6.554,1.825 10.398,1.138c5.07,-0.905 11.597,-5.12 14.468,-7.13c4.296,-3.008 8.689,-5.877 13.15,-8.636c4.501,-2.785 9.076,-5.449 13.697,-8.022c25.387,-14.133 51.83,-26.024 77.532,-39.321c6.616,-3.422 13.182,-6.938 19.674,-10.599c4.762,-2.684 10.865,-7.911 17.237,-12.719c3.5,-2.642 10.639,-2.664 10.364,-5.937c7.545,1.213 14.834,-3.652 16.529,-11.208c0.769,-3.43 0.258,-6.852 -1.215,-9.763c1.495,-2.832 3.06,-5.854 4.83,-8.944c11.376,-19.86 20.713,-42.423 20.677,-64.331c-0.026,-15.991 -4.666,-31.745 -16.654,-46.2c-7.899,-9.533 -20.507,-16.166 -34.126,-18.78c-13.154,-2.525 -27.054,-1.393 -37.759,3.346c-2.388,1.057 -7.726,4.626 -13.285,8.192c-1.828,1.173 -4.451,2.626 -6.289,3.613c-2.371,-1.503 -4.736,-3.432 -7.114,-5.545c-10.118,-8.988 -20.038,-21.029 -28.653,-28.214c-4.106,-3.425 -10.843,-6.724 -18.814,-9.304c-13.278,-4.299 -30.254,-7.175 -39.409,-8.387c-14.066,-1.861 -30.997,0.029 -46.911,4.989c-16.184,5.044 -31.273,13.192 -41.412,23.162c-6.568,6.453 -13.07,16.929 -20.063,25.112c-0.769,0.9 -1.537,1.771 -2.315,2.586Zm257.446,112.328c0.608,-0.735 1.64,-2.041 2.229,-3.012c2.445,-4.03 4.786,-8.902 7.769,-13.936c7.717,-13.024 14.731,-27.397 16.974,-41.919c1.961,-12.699 0.095,-25.502 -9.239,-37.09c-4.147,-5.144 -11.109,-8.264 -18.359,-9.756c-7.655,-1.575 -15.799,-1.407 -22.081,1.274c-4.23,1.806 -18.291,11.993 -25.454,13.876c-4.842,1.273 -8.83,0.644 -11.615,-0.621c-5.706,-2.592 -11.559,-6.84 -17.25,-12.033c-9.809,-8.952 -19.348,-20.932 -27.707,-28.095c-3.028,-2.595 -8.84,-4.492 -15.115,-6.323c-10.858,-3.169 -23.176,-5.359 -30.257,-6.392c-10.95,-1.598 -24.153,-0.078 -36.616,3.625c-12.467,3.703 -24.275,9.521 -32.155,17.065c-6.227,5.966 -12.325,15.796 -18.968,23.38c-4.056,4.631 -8.316,8.563 -12.724,11.155c-5.202,3.059 -10.582,2.924 -15.852,-0.276c-4.431,-2.691 -11.476,-13.178 -12.944,-15.41l-9.473,-3.382c-18.297,-7.549 -34.281,-15.206 -51.621,-18.609c-10.476,-2.055 -21.467,-2.505 -33.888,-0.259c-6.585,1.191 -14.863,3.978 -22.549,7.744c-7.261,3.558 -14.092,7.874 -17.962,12.774c-2.65,3.359 -5.161,7.016 -7.517,10.772c-2.38,3.794 -4.609,7.684 -6.67,11.481c-0.284,0.764 -2.529,6.763 -3.646,8.58c-1.67,2.716 -3.749,4.061 -5.135,4.67c-0.956,0.422 -4.634,1.797 -9.306,-0.355c-2.381,-1.097 -7.968,-4.43 -8.693,-4.788c-8.053,-3.972 -15.238,-10.061 -23.064,-14.805c-2.618,-1.588 -5.315,-3.01 -8.225,-3.974c-2.322,-0.769 -5.299,-0.655 -8.381,-0.42c-6.451,0.492 -13.252,1.901 -18.058,2.403c-14.674,1.534 -29.917,2.766 -44.146,6.849c-8.78,2.519 -17.172,6.132 -24.692,11.776c-5.265,3.958 -12.347,10.223 -17.966,17.321c-4.356,5.503 -8.215,11.365 -8.233,16.989c1.562,1.881 10.109,12.168 12.982,15.554c1.423,1.677 2.31,3.005 2.646,3.654c3.004,5.818 -0.228,9.636 -1.899,11.14c-1.321,1.188 -3.843,2.584 -7.329,3.11c-3.767,0.568 -9.883,0.336 -11.726,0.508c-10.466,0.976 -20.661,0.658 -30.948,1.404c-3.972,0.288 -7.961,0.742 -11.988,1.546c-8.613,1.719 -16.402,4.581 -23.865,8.028c-12.097,5.588 -23.382,12.647 -35.723,19.118c-7.01,3.68 -14.564,6.632 -21.588,10.427c-2.652,1.433 -5.226,2.992 -7.633,4.807c-2.064,1.556 -5.254,6.092 -7.557,10.928c-1.148,2.409 -2.09,4.908 -2.341,7.218c-0.111,1.023 0.074,1.993 1.332,2.255c2.075,0.432 4.119,0.464 6.138,0.261c4.15,-1.227 8.375,-2.258 12.731,-2.999l0.151,-0.03c6.679,-2.021 13.265,-4.208 19.862,-4.203c4.235,0.004 5.956,2.047 6.423,2.514c3.258,3.255 3.772,6.871 0.936,10.878c-0.439,0.621 -1.682,2.36 -4.569,3.284c-1.137,0.363 -5.505,1.158 -7.241,1.623l-12.724,2.547l-0.283,0.052c-3.023,0.997 -6.072,1.945 -9.166,2.541c-1.004,0.194 -2.011,0.359 -3.023,0.481l-1.231,0.389c-7.097,2.292 -13.999,5.139 -21.081,7.9c-19.05,7.428 -42.593,19.386 -57.677,36.353c-9.345,10.513 -15.347,23.016 -13.86,37.722c0.194,1.908 1.825,3.195 3.415,4.386c2.757,2.064 6.119,3.451 8.732,4.227c14.253,4.234 29.456,2.637 43.701,4.449c4.261,0.542 8.447,1.35 12.526,2.571c3.875,1.159 7.693,1.177 11.488,0.687c6.964,-0.899 13.861,-3.422 20.893,-5.441c3.537,-1.016 8.493,-3.51 13.07,-4.466c3.544,-0.74 6.96,-0.713 9.969,0.177c2.091,0.619 4.958,2.282 6.41,6.306c0.607,1.683 1.213,6.958 1.382,8.524c1.772,4.22 2.965,7.915 5.143,11.163c1.089,1.625 2.515,3.084 4.566,4.461c1.615,1.082 3.502,1.594 5.43,2.013c4.635,1.006 9.549,1.336 13.928,2.423c18.262,4.53 43.574,6.642 65.282,1.344c10.506,-2.565 20.18,-6.867 27.392,-13.833c0.333,-0.94 0.735,-1.775 1.178,-2.487c0.706,-1.135 4.99,-5.974 6.542,-7.218c3.019,-2.422 5.837,-2.392 6.875,-2.338c3.013,0.157 5.218,1.433 6.839,3.302c1.335,1.538 3.012,4.059 2.241,8.173c-0.11,0.588 -0.405,2.198 -2.025,4.607c-0.971,1.443 -1.999,2.83 -3.083,4.162l0.005,0.1l0.08,1.354c0.926,0.48 2.538,1.246 3.301,1.243c19.568,-0.099 39.759,-2.428 59.411,-6.922c19.606,-4.484 38.671,-11.143 56.026,-19.932c18.514,-9.378 37.782,-17.814 56.336,-27.384c7.228,-3.728 14.341,-7.638 21.252,-11.852c3.938,-4.51 8.415,-8.409 11.793,-11.051c0.322,-0.252 5.397,-4.454 7.534,-5.914c7.204,-4.919 13.661,-0.42 14.618,0.458c2.902,2.663 6.824,9.958 -0.046,17.734c-3.36,3.802 -12.552,10.597 -17.642,14.198c-0.922,1.142 -1.751,2.339 -2.385,3.572c-0.094,0.183 -0.206,0.36 -0.315,0.536c2.057,0.111 5.558,0.231 7.85,-0.012c5.679,-0.604 11.208,-1.689 14.679,-1.966c20.308,-1.618 38.08,-7.723 54.504,-16.312c26.364,-13.788 49.311,-33.897 73.255,-53.158c7.617,-6.128 20.081,-11.583 29.443,-18.558c2.389,-1.78 4.556,-3.621 5.953,-5.808l0.539,-0.937c0.163,-0.284 0.267,-0.462 0.294,-0.505c23.738,-38.851 35.709,-13.936 22.548,12.306l-0.448,0.838l-0.036,0.062c-0.228,0.409 -2.192,3.934 -2.875,5.069l-3.014,5.564c-0.622,2.006 0.018,5.298 0.802,8.523c0.224,0.923 0.641,2.024 1.107,3.085c4.62,-3.328 9.345,-6.509 14.146,-9.572c4.81,-3.068 9.7,-6.01 14.643,-8.852c25.424,-14.621 51.938,-27.011 77.692,-40.791c6.267,-3.354 12.486,-6.794 18.632,-10.373c2.264,-1.318 4.842,-3.293 7.613,-5.519c-0.219,-1.781 -0.105,-3.631 0.383,-5.47c2.065,-7.78 10.057,-12.419 17.837,-10.354c0.478,0.131 1.095,0.01 1.431,0.119Z"/><path d="M210.46,789.694c-0.53,1.371 -0.948,2.712 -1.145,3.888c-1.13,6.718 1.365,11.793 4.872,14.937c2.198,1.97 4.86,3.516 7.893,4.596c-2.49,2.499 -5.601,5.821 -7.942,8.967c-3.475,4.672 -5.317,9.477 -5.596,12.807c-0.554,6.616 1.983,11.682 7.58,15.019c3.948,2.354 8.648,3.784 13.852,4.327c-2.616,3.003 -4.981,5.838 -7.051,8.409c-0.897,1.115 -5.996,6.779 -9.816,12.854c-3.074,4.889 -5.234,10.109 -5.739,14.376c-0.925,7.827 1.789,14.12 8.678,18.147c4.306,2.517 9.124,4.108 14.288,4.866l-0.119,0.276c-1.443,3.742 -1.304,7.023 -0.587,9.559c1.055,3.725 3.312,6.824 7.423,8.771c0.845,0.4 1.725,0.751 2.639,1.049c-3.258,4.863 -6.654,10.837 -7.303,15.337c-1.091,7.565 1.587,13.418 7.998,16.959c4.556,2.516 9.651,3.736 15.061,3.807c-0.995,2.808 -1.436,5.398 -1.4,7.222c0.133,6.616 3.622,10.436 8.526,12.183c8.256,2.941 19.318,0.11 30.143,-7.919c3.709,-2.752 7.478,-6.079 11.127,-9.616c-1.591,4.258 -3.111,8.544 -4.528,12.878c-3.496,10.689 -6.389,21.652 -8.207,33.143c-0.415,2.624 -3.132,18.142 -2.129,26.677c1.081,9.205 6.628,13.781 11.677,14.742c0.435,0.083 0.868,0.147 1.298,0.191l-3.674,11.6c-1.12,3.499 -4.194,10.441 -4.441,13.81c-0.275,3.737 0.883,6.54 2.269,8.427c0.593,0.808 1.276,1.595 2.074,2.291c-0.413,0.563 -0.81,1.128 -1.193,1.692c-7.51,11.07 -9.443,22.424 -5.843,31.117c1.635,3.949 4.615,7.148 9.05,8.824c0.561,3.185 1.662,5.756 3.03,7.531c1.296,1.682 2.75,2.92 4.339,3.74c-0.976,4.644 -1.677,9.94 -0.985,13.736c0.99,5.43 3.928,9.158 8.126,11.037c5.214,2.335 10.641,2.571 16.031,1.031c-0.936,4.279 -1.778,9.51 -1.685,14.017c0.117,5.713 1.828,10.517 4.546,13.518c8.391,9.261 19.474,8.928 30.931,1.643c6.154,-3.914 12.494,-10.142 18.089,-16.466c-2.794,7.039 -5.18,13.842 -6.127,19.99c-0.371,2.412 -1.595,15.655 0.303,20.073c1.945,4.527 5.37,6.435 9.066,6.706l0.624,0.032c-1.706,3.873 -3.799,9.04 -4.402,12.957c-0.682,4.428 0.241,8.076 1.839,10.466c2.252,3.372 5.062,4.766 7.846,5.222c2.529,0.415 5.357,0.013 8.227,-1.679c2.135,-1.259 4.605,-4.01 6.979,-7.037l-0.049,0.194c-0.563,2.29 -1.78,8.569 -1.823,13.516c-0.036,4.244 1,7.809 2.354,9.836c3.994,5.976 9.704,7.342 16.092,5.445c6.682,-1.983 14.737,-9.731 16.841,-11.842c11.559,-11.6 21.647,-24.466 32.603,-36.581c3.395,-3.755 6.876,-7.435 10.525,-10.969c-3.563,5.755 -6.861,10.748 -7.881,12.894c-1.885,3.963 -6.344,13.757 -6.443,16.221c-0.173,4.263 1.988,6.633 3.85,7.921c1.699,1.176 5.91,3.573 11.316,-0.756c1.749,-1.4 3.439,-2.894 5.077,-4.465l-0.153,0.511c-0.545,1.932 -3.59,12.019 -3.141,17.679c0.461,5.803 3.596,9.251 7.437,10.561c5.713,1.95 12.845,0.648 20.123,-3.377c-0.889,2.764 -2.754,9.091 -2.851,13.12c-0.128,5.362 2.47,8.789 5.015,10.287c4.876,2.868 10.87,2.678 16.943,-0.316c7.78,-3.836 16.025,-12.855 18.773,-15.727c3.712,-3.879 7.195,-7.938 10.478,-12.147l-0.744,3.077c-0.781,3.343 -2.393,12.211 -1.338,18.463c1.015,6.013 4.275,10.163 8.89,11.79c4.72,1.663 9.723,0.782 14.417,-2.199c6.002,-3.811 11.59,-11.847 13.832,-14.67c6.577,-8.283 12.848,-16.807 18.965,-25.447c8.93,-12.611 17.531,-25.468 26.301,-38.159l-8.422,27.97c-0.855,3.41 -4.266,23.626 -0.828,33.324c1.432,4.041 3.852,6.88 6.793,8.499c3.591,1.976 8.618,2.726 15.267,-0.955c10.619,-5.879 19.869,-16.067 27.803,-27.97c-0.271,3.093 -0.304,6.704 0.387,9.586c1.211,5.053 4.243,8.525 8.481,9.965c8.432,2.866 17.36,0.084 25.54,-6.693c12.313,-10.201 23.241,-29.989 27.584,-37.531l6.403,-11.489c-0.034,1.049 -0.013,1.998 0.065,2.824c0.936,9.953 7.123,12.647 13.246,11.357c8.36,-1.76 16.917,-7.167 24.991,-14.667c14.583,-13.546 27.958,-34.085 36.918,-45.009l12.451,-15.985c-1.995,10.708 -5.903,22.243 -6.514,29.645c-0.084,1.02 -0.641,13.488 0.803,16.915c1.485,3.522 4.036,5.139 6.309,5.846c2.336,0.727 5.074,0.787 8.082,-1.045c9.631,-5.863 17.564,-16.038 23.997,-28.406c12.034,-23.132 19.021,-54.264 26.168,-72.367c2.197,-5.558 3.438,-8.78 4.737,-11.669c0.2,-0.444 0.401,-0.88 0.61,-1.316c2.328,-3.334 4.734,-6.626 6.96,-10.026c2.067,-3.158 3.987,-6.404 5.608,-9.824c2.344,-4.946 0.672,-8.032 0.36,-8.721c-0.538,-1.19 -3.372,-4.423 -7.069,-5.385c1.744,-5.903 3.385,-11.813 4.969,-17.692c0.704,-2.612 6.347,-16.907 7.587,-25.83c0.904,-6.5 -0.768,-11.466 -2.869,-13.94c-2.307,-2.717 -5.193,-4.437 -8.533,-5.038c0.135,-0.435 0.263,-0.869 0.383,-1.3c2.77,-9.957 1.325,-18.705 -4.08,-24.191c-6.306,-6.399 -16.903,-7.637 -28.949,-3.715c-6.308,2.054 -13.14,5.442 -19.5,9.074c-0.496,-0.963 -1.084,-1.854 -1.749,-2.668c-5.273,-6.459 -14.892,-8.577 -26.312,-5.72c-4.459,1.115 -9.276,2.952 -13.968,5.049c-0.816,-3.732 -2.648,-6.977 -5.397,-9.511c-3.795,-3.497 -10.154,-6.261 -20.38,-5.423l-0.964,0.152c0.756,-3.392 0.793,-6.514 0.157,-9.095c-1.736,-7.05 -8.085,-14.873 -25.97,-12.511c-10.392,1.372 -20.555,4.633 -30.423,8.908c-3.203,1.388 -6.374,2.884 -9.51,4.454c-2.326,-2.269 -5.538,-3.94 -9.909,-4.685c-15.831,-2.701 -32.494,1.633 -48.532,9.499c-3.041,1.491 -6.061,3.11 -9.049,4.823c-0.598,-1.564 -1.411,-3.054 -2.442,-4.452c-3.214,-4.36 -8.596,-7.185 -15.324,-7.785c-7.924,-0.706 -18.264,1.961 -22.698,3.56c-11.195,4.037 -22.113,9.226 -32.807,14.983l-2.154,1.172c-11.711,-2.176 -24.673,0.243 -37.72,5.674c-6.518,2.713 -13.084,6.201 -19.501,10.058c-1.101,-4.874 -4.112,-7.855 -7.602,-9.543c-5.312,-2.568 -11.508,-3.279 -18.003,-2.412c-9.929,1.326 -20.842,6.764 -27.589,10.207c-12.293,6.272 -23.722,13.771 -34.407,22.242c-6.05,4.797 -11.858,9.91 -17.445,15.291c-2.824,0.72 -5.661,1.791 -8.461,3.162c-8.988,4.401 -17.732,12.194 -23.649,17.491c-4.284,3.835 -8.416,7.829 -12.455,11.918c-0.625,-1.207 -1.363,-2.314 -2.206,-3.319c-0.487,-3.18 -2.315,-5.152 -3.87,-6.341c-1.715,-1.312 -5.992,-4.261 -11.628,-0.61c-3.653,-0.136 -7.792,0.529 -11.611,1.525c7.548,-16.672 15.556,-33.103 22.002,-50.429c2.192,-5.893 -0.326,-9.185 -0.699,-9.801c-1.067,-1.761 -11.249,-10.156 -18.051,-0.07c-0.701,1.039 -2.401,4.114 -3.842,6.714c3.343,-8.86 6.772,-17.685 10.286,-26.473c1.306,-3.266 4.55,-6.972 6.622,-10.522c1.984,-3.399 3.255,-6.774 3.625,-9.776c0.654,-5.288 -0.778,-10.036 -5.163,-14.034c-4.384,-3.997 -8.559,-3.683 -11.903,-2.514c-2.251,0.788 -4.708,2.403 -6.49,5.515c-0.927,1.62 -2.409,7.459 -2.623,8.317l-9.507,22.093c-3.583,8.333 -7.258,16.595 -11.103,24.773c1.02,-3.664 2.137,-7.281 3.326,-10.865c7.922,-23.86 18.98,-46.265 27.1,-70.445c1.466,-4.365 0.38,-7.103 -0.045,-8.247c-1.796,-4.84 -5.262,-7.004 -9.605,-7.507c-1.758,-0.204 -5.331,-0.327 -9.049,2.805c-0.729,0.615 -2.492,2.837 -4.061,4.77l-0.424,-0.244c-2.901,-1.559 -7.298,-2.384 -12.387,-0.678c-4.908,1.646 -12.075,6.815 -13.236,7.624c-7.294,5.085 -14.201,10.715 -20.499,16.943l-0.967,0.98c-3.761,2.111 -7.704,4.065 -11.641,5.551c-1.613,0.609 -3.215,1.199 -4.778,1.65c1.582,-2.042 2.937,-3.565 3.294,-3.988c5.346,-6.33 11.306,-11.919 17.653,-17.04c10.594,-5.976 20.237,-12.774 25.159,-15.586l11.8,-6.973c2.515,-1.478 8.511,-3.498 10.988,-5.029c2.771,-1.712 4.374,-3.719 5.219,-5.178c2.379,-4.104 2.278,-8.026 0.722,-11.606c-0.85,-1.956 -2.432,-4.777 -6.352,-6.609c1.814,-3.778 1.324,-6.83 0.827,-8.743c-1.327,-5.102 -4.609,-9.629 -12.454,-9.629c-7.887,0.02 -16.799,2.736 -25.755,7.317c-10.997,5.626 -22.278,14.077 -31.561,21.42c-3.976,1.472 -8.047,2.762 -12.077,3.707c-3.912,0.918 -7.777,1.638 -11.343,1.593c2.538,-3.54 5.427,-7.549 5.91,-8.142c8.511,-10.465 22.481,-25.835 37.821,-38.086c5.375,-2.412 9.999,-4.617 13.296,-6.05l20.534,-9.732c2.318,-1.131 8.037,-3.881 9.233,-4.869c3.86,-3.188 4.699,-6.803 4.96,-8.895c0.499,-3.998 -0.547,-7.523 -3.182,-10.56c-1.205,-1.389 -4.297,-5.184 -11.556,-4.7c-14.009,0.932 -29.857,8.708 -44.746,19.886l-1.178,0.896c-5.456,2.413 -11.556,4.91 -17.666,6.845c5.965,-5.19 12.292,-10.333 18.858,-15.134c8.561,-6.259 17.53,-11.933 26.629,-16.292c0.685,-0.328 1.087,-0.564 1.272,-0.672c10.352,-6.073 6.397,-15.947 5.884,-17.231c-1.257,-3.15 -4.411,-9.04 -13.411,-8.76c-0.351,0.011 -2.167,-0.014 -4.826,1.019c-0.831,0.323 -3.73,1.564 -4.89,2.096l-12.387,5.644c-3.841,1.667 -11.238,5.331 -19.218,8.271c0.698,-0.804 1.414,-1.598 2.143,-2.378c1.448,-1.553 2.919,-3.084 4.407,-4.463l1.198,-0.708c2.438,-1.437 8.537,-4.862 10.071,-5.974c3.423,-2.484 4.617,-5.165 5.053,-6.178c1.834,-4.262 1.341,-7.883 0.273,-10.712c-1.09,-2.889 -2.975,-5.506 -6.205,-7.352c0.39,-0.338 0.765,-0.689 1.112,-1.062c0.884,-0.946 1.685,-1.96 2.382,-3.062c5.851,-9.247 0.985,-15.411 -1.147,-17.854c-2.407,-2.757 -6.575,-5.956 -13.43,-4.882c-1.061,0.166 -2.646,0.532 -4.491,1.384c-1.653,0.763 -4.858,2.805 -6.346,3.652l-11.796,7.707c-4.653,3.508 -22.472,17.039 -28.918,27.992c-4.695,7.979 -4.939,15.658 -2.139,21.65c1.849,3.957 5.007,7.226 9.407,8.996Zm554.579,183.827c-7.93,1.248 -15.664,3.895 -23.206,7.2c-5.026,2.203 -9.965,4.698 -14.813,7.32c-1.248,4.055 -3.035,7.795 -4.827,10.341c-5.946,8.445 -16.131,17.949 -27.366,23.409c-8.83,4.291 -18.274,6.095 -27.064,4.172c-4.19,-0.917 -6.546,-3.134 -8.011,-5.37c-2.071,-3.161 -3.088,-7.647 -0.523,-12.838c2.004,-4.057 9.181,-10.645 13.143,-13.243l16.151,-9.703c-4.461,1.417 -8.917,3.328 -13.327,5.514c-10.755,5.332 -21.19,12.388 -30.762,19.305c-4.897,6.242 -10.371,12.099 -16.22,17.567c-6.825,6.38 -14.152,12.235 -21.639,17.563c-3.456,2.46 -9.731,7.517 -15.695,9.963c-4.827,1.98 -9.629,2.504 -13.802,1.495c-7.305,-1.766 -9.308,-6.486 -9.779,-10.772c-0.265,-2.413 0.086,-5.575 2.273,-8.833c1.87,-2.787 7.855,-7.366 10.713,-9.584l29.425,-20.493c5.035,-3.467 10.599,-7.578 16.559,-11.893c0.646,-0.836 1.278,-1.683 1.897,-2.539c0.881,-1.218 2.203,-3.036 3.411,-5.116c-3.028,0.441 -6.47,1.015 -7.8,1.502c-10.084,3.692 -19.9,8.449 -29.523,13.689c-1.151,0.627 -2.298,1.26 -3.443,1.902c-1.318,2.375 -3.335,5.173 -5.883,7.957c-6.059,6.62 -15.083,14.136 -15.369,14.359c-6.987,5.451 -14.272,10.384 -21.795,14.936c-7.388,4.47 -15.002,8.577 -22.781,12.458c-1.525,0.761 -12.614,6.915 -20.066,8.254c-5.365,0.965 -9.886,-0.031 -12.954,-1.875c-2.541,-1.528 -4.175,-3.304 -5.194,-5.168c-6.241,6.335 -13.039,12.611 -19.819,17.502c-9.855,7.109 -19.95,11.31 -28.763,11.289c-1.691,-0.005 -3.159,-0.208 -4.436,-0.554c-4.626,4.744 -9.36,8.535 -12.566,10.253c-3.44,1.843 -12.623,4.131 -18.781,2.905c-5.388,-1.073 -9.382,-3.752 -11.707,-7.751l-0.015,0.014c-3.308,3.451 -6.564,6.955 -9.804,10.473c0.695,1.154 1.221,2.618 1.358,4.477c0.095,1.293 -1.096,6.677 -1.851,8.783c-1.081,3.015 -2.16,5.511 -3.425,7.992c-1.16,2.274 -2.484,4.535 -4.15,7.199c-2.781,4.446 -7.932,13.284 -14.315,21.935c-2.963,7.64 -5.484,15.276 -7.609,22.383c-0.86,2.877 -2.1,13.901 -2.357,16.249c1.062,0.462 2.319,-0.308 3.632,-0.958c3.683,-1.822 7.453,-5.03 11.095,-8.622c9.674,-9.54 18.166,-21.905 20.894,-25.472l9.075,-12.425c0.898,-1.176 2.437,-3.982 3.411,-5.082c1.595,-1.803 3.294,-2.66 4.48,-3.066c3.21,-1.101 6.013,-0.549 8.427,1.021c1.547,1.007 3.802,2.844 4.398,7.007c1.062,7.411 -0.304,15.749 -3.071,24.402c-4.473,13.99 -12.932,29.045 -15.513,41.617c0.498,-0.665 0.99,-1.353 1.478,-2.058c7.299,-10.561 13.254,-24.517 16.832,-30.195l9.166,-13.568c1.004,-1.387 3.267,-4.96 3.982,-5.87c6.59,-8.39 14.887,-0.284 15.713,1.386c0.277,0.558 2.175,3.465 0.017,8.278c-0.947,2.111 -1.933,4.204 -2.956,6.279c1.291,-1.379 2.579,-2.442 3.762,-3.148c5.54,-3.305 9.238,-0.755 10.802,0.481c1.922,1.52 3.969,4.128 3.399,8.479c-0.216,1.647 -3.815,8.014 -5.164,10.696l-6.349,12.445c-5.199,11.025 -10.316,22.406 -14.635,34.024c-2.827,7.603 -5.312,15.308 -7.242,23.079c-0.153,0.616 -0.347,2.032 -0.528,3.641c1.9,-1.465 3.719,-2.91 4.245,-3.436c11.381,-11.373 21.3,-24.011 32.089,-35.893c4.842,-5.332 9.851,-10.518 15.214,-15.399c0.897,-0.817 15.165,-13.451 21.481,-16.104c6.534,-2.743 10.994,0.077 13.02,2.962c1.189,1.692 1.957,4.334 1.917,7.622c2.11,-2.855 4.232,-5.614 5.91,-7.024c2.549,-2.141 5.093,-2.856 7.001,-2.921c3.885,-0.13 8.376,1.184 10.008,8.192c0.901,3.871 0.366,7.618 -1.223,11.244c-1.899,4.332 -5.923,8.484 -8.387,12.542c-4.369,7.193 -9.163,14.493 -13.127,22.125c-2.445,4.709 -4.57,9.544 -5.995,14.581c-0.169,0.597 -0.734,3.16 -1.289,5.731c2.07,-1.069 4.19,-2.497 6.311,-4.096c9.456,-7.128 18.688,-17.477 23.246,-21.518l13.797,-12.613c0.806,-0.78 2.082,-2.876 2.871,-3.699c1.256,-1.309 2.517,-1.995 3.381,-2.346c3.373,-1.368 6.147,-0.601 8.333,0.954c1.392,0.989 3.704,2.931 3.702,7.363c-0.002,4.188 -1.577,7.785 -4.276,10.959c-2.775,3.263 -7.535,5.771 -10.21,9.145c-4.38,5.525 -8.601,11.16 -12.36,17.073c-3.587,5.644 -6.754,11.541 -9.202,17.858c4.131,-3.343 7.697,-7.4 9.224,-8.992c6.212,-6.481 11.701,-13.529 16.706,-20.919c7.706,-11.381 14.27,-23.571 20.5,-35.821l5.587,-11.727c1.166,-2.522 2.734,-8.381 4.01,-10.892c0.988,-1.943 2.178,-3.183 3.064,-3.871c2.84,-2.204 5.71,-2.307 8.291,-1.429c1.702,0.579 4.468,1.898 5.848,6.227c0.783,2.455 0.846,5.849 0.037,9.483c-1.146,5.151 -4.053,11.173 -4.432,12.233c-4.502,12.599 -9.476,25.242 -13.829,38.044c-2.827,8.314 -5.388,16.696 -7.366,25.177c-0.25,1.07 -0.484,3.889 -0.66,6.568c2.607,-2.781 5.84,-6.278 6.817,-7.51c6.379,-8.044 12.459,-16.325 18.392,-24.715c9.013,-12.746 17.689,-25.744 26.545,-38.568c-0,0 18.435,-26.194 18.435,-26.194c0.257,-0.324 6.749,-7.03 9.456,-9.478c7.733,-6.993 15.06,3.47 15.174,4.791c0.38,4.411 -0.313,9.3 -1.709,14.311c-2.478,8.895 -7.309,18.321 -9.652,25.359l-10.037,33.489c-0.453,1.818 -0.942,14.307 -1.153,20.288c7.564,-4.978 14.022,-12.878 19.805,-21.689c10.298,-15.687 18.276,-34.343 24.965,-47.665c0.139,-0.277 4.68,-12.886 8.588,-19.564c2.714,-4.639 6.154,-7.126 8.247,-7.775c3.986,-1.236 6.772,-0.012 8.809,1.671c1.493,1.233 2.829,3.094 3.302,5.791c0.378,2.154 -0.596,6.934 -1.063,9.33l-4.04,13.79c-3.825,12.299 -9.062,24.676 -13.072,37.203c-1.625,5.075 -3.039,10.176 -4.034,15.309c-0.161,0.828 -0.291,3.109 -0.37,4.951c0.668,-0.22 1.335,-0.548 2.004,-0.914c2.587,-1.414 5.077,-3.628 7.485,-6.173c8.981,-9.493 16.413,-23.489 19.71,-29.251l11.475,-20.708l8.09,-17.117c0.437,-0.986 3.579,-11.99 7.244,-17.704c2.423,-3.777 5.473,-5.956 8.048,-6.742c4.162,-1.272 7.101,-0.065 9.266,1.649c1.655,1.31 3.107,3.304 3.678,6.198c0.53,2.683 -0.78,8.642 -0.958,11.719c-0.152,2.631 -3.356,20.386 -5.434,31.687c3.939,-2.852 7.805,-6.629 11.603,-10.71c11.813,-12.694 22.372,-28.844 29.834,-37.991c-0,0 17.244,-22.24 17.244,-22.24c0.203,-0.241 4.213,-4.528 7.818,-7.233c2.651,-1.99 5.358,-3.137 7.207,-3.445c5.073,-0.846 8.632,1.167 10.78,5.26c2.744,5.227 3.444,12.313 2.528,20.154c-0.767,6.569 -2.701,13.818 -4.374,20.413c2.102,-3.807 4.028,-7.924 5.846,-12.185c3.504,-8.208 6.523,-16.979 9.255,-25.54c-3.123,-1.023 -5.525,-3.136 -5.726,-3.442c-0.294,-0.451 -2.922,-4.175 -0.629,-9.504c0.847,-1.97 4.295,-8.794 5.908,-11.432l1.984,-2.942c3.074,-6.228 5.854,-12.62 8.408,-19.116c6.705,-17.055 11.842,-34.823 16.484,-52.292c0.375,-1.414 2.503,-8.87 4.338,-15.281l-0.179,0.144c-1.002,0.825 -1.998,1.688 -2.975,2.57c-1.595,2.463 -2.947,4.437 -3.81,5.694l-8.703,11.694c-2.583,3.076 -7.106,9.412 -10.252,11.288c-2.959,1.765 -5.844,2.074 -8.318,1.613c-2.913,-0.543 -5.905,-2.051 -8.02,-5.966c-1.269,-2.35 -2.097,-6.01 -0.113,-10.377c1.982,-4.364 10.889,-13.242 11.416,-13.798c1.524,-1.608 6.037,-6.545 11.576,-11.757c2.546,-3.952 5.629,-9.085 8.087,-14.349c1.532,-3.279 2.831,-6.599 3.435,-9.649c0.202,-1.02 0.206,-2.573 0.197,-3.192c-0.827,-0.415 -1.999,0.154 -3.26,0.353c-4.677,0.741 -10.035,3.068 -15.323,5.798c-6.885,3.553 -13.596,7.884 -18.728,11.388c-0.912,1.63 -1.92,3.245 -3.006,4.809c-4.277,6.163 -9.708,11.505 -14.646,14.337c-5.259,3.016 -10.405,3.574 -14.602,2.311c-3.107,-0.935 -5.078,-2.854 -6.279,-5.32c-0.862,-1.768 -2.123,-5.156 0.221,-9.491c0.351,-0.65 1.306,-2.079 2.984,-3.778c3.997,-4.05 14.978,-13.482 15.936,-14.143l2.282,-1.586l0.574,-1.262l0.395,-0.924c-0.466,0.031 -0.927,0.079 -1.327,0.152c-3.464,0.63 -7.294,2.019 -11.106,3.657c-7.047,3.026 -13.986,6.951 -18.842,9.786c-3.688,4.925 -8.11,9.367 -12.5,12.42c-7.341,5.107 -14.908,6.303 -20.389,4.315c-6.891,-2.498 -7.732,-7.345 -7.328,-11.36c0.196,-1.947 0.962,-4.515 3.309,-6.881c1.336,-1.348 5.046,-3.396 6.727,-4.526l15.04,-9.209l0.316,-0.18l0.295,-0.471c1.002,-1.681 1.868,-4.223 2.373,-5.881c-0.896,-0.069 -1.99,-0.109 -2.962,-0.026l-6.332,0.936l-15.889,7.101c-1.519,1.416 -2.946,2.62 -4.19,3.542c-0.186,0.138 -13.199,8.806 -18.48,10.377c-8.742,2.601 -13.352,-2.602 -14.866,-6.617c-0.899,-2.387 -1.667,-9.258 5.359,-14.344c3.91,-2.83 13.235,-7.472 18.547,-10.043c2.906,-3.374 6.332,-8.175 8.803,-11.78Zm-425.276,168.27l-0.796,0.602c-4.16,2.943 -8.038,3.652 -10.428,3.658l-0.14,-0.004c-0.472,2.076 -1.086,5.075 -1.564,7.47c0.681,-0.336 1.363,-0.767 2.054,-1.211c3.409,-2.196 6.685,-5.521 9.768,-9.172l1.106,-1.343Zm145.128,-123.282l-2.525,1.307c-10.686,5.519 -20.607,12.113 -29.881,19.54c-1.655,1.326 -3.29,2.678 -4.902,4.056c0.818,1.484 1.434,3.079 1.821,4.781l0.295,-0.178l20.877,-13.622c5.451,-5.721 10.375,-11.402 14.315,-15.884Z" style="fill-opacity:0.85;"/><g id="Lentes"><path d="M137.407,701.225c4.305,-3.102 14.705,-1.14 19.691,-1.14c14.029,-0 30.217,-0.411 44.185,-2.499c56.436,-8.436 113.865,-6.046 171.181,-7.269c23.925,-0.51 60.714,6.003 83.826,-2.272" style="fill:#fff;fill-opacity:0.45;"/><path d="M143.806,714.327c1.452,3.517 10.154,-0.57 13.292,-0.739c8.657,-0.441 18.069,-1.049 27.325,-2.09c6.37,-0.717 12.64,-1.562 18.532,-2.732c22.15,-4.126 44.451,-6.874 66.955,-8.195c13.595,-0.798 27.24,-1.206 40.897,-1.181c20.619,0.038 41.233,1.068 61.877,1.239c16.595,0.451 39.09,4.434 59.271,4.676c10.645,0.128 20.638,-0.975 29.251,-3.53c7.578,-2.713 11.527,-11.068 8.814,-18.646c-2.713,-7.577 -11.068,-11.527 -18.645,-8.814c-5.899,2.488 -12.92,3.955 -20.474,4.651c-19.83,1.829 -42.316,-0.104 -58.657,1.039c-22.827,1.112 -45.648,2.196 -68.462,2.528c-23.146,0.337 -46.22,0.189 -69.237,1.356c-11.669,0.591 -23.298,1.281 -34.933,2.517c-6.661,0.674 -13.807,0.875 -20.969,0.865c-7.372,-0.01 -14.71,-0.336 -21.545,-0.689c-4.485,-0.242 -12.665,-1.641 -18.542,-0.9c-3.847,0.486 -7.04,2.022 -9.674,3.711c-6.531,4.705 -8.012,13.826 -3.307,20.357c4.213,5.848 11.968,7.647 18.231,4.577Z"/><path d="M475.482,671.227c2.817,-0 -4.04,3.945 -5.809,6.137c-3.03,3.755 -5.1,8.654 -7.324,12.953c-7.536,14.572 -10.603,31.388 -10.603,47.722c0,48.485 22.341,92.439 58.825,125.208c69.83,62.72 163.403,82.584 253.5,56.35c36.702,-10.687 68.273,-25.432 88.62,-59.762c16.083,-27.136 16.891,-63.088 13.633,-93.391c-7.042,-65.482 -40.205,-132.427 -105.54,-158.157c-48.119,-18.95 -104.753,-11.143 -154.519,-4.091c-44.617,6.322 -71.359,27.686 -105.032,54.312c-4.857,3.84 -30.803,17.563 -30.803,23.174" style="fill:#fff;fill-opacity:0.45;"/><path d="M477.755,656.807c-0.711,-0.098 -1.468,-0.152 -2.273,-0.164c-4.282,0 -8.135,1.85 -10.804,4.794c-2.029,-0.092 -5.048,5.326 -6.247,6.856c-1.318,1.683 -2.542,3.493 -3.645,5.409c-1.874,3.257 -3.45,6.815 -5.078,10.077c-4.229,8.471 -7.232,17.543 -9.069,26.881c-1.776,9.024 -2.551,18.271 -2.421,27.379c0.367,26.39 6.737,51.466 18.143,74.313c11.107,22.247 26.877,42.43 46.433,59.554c36.772,32.262 79.576,53.27 124.899,62.726c44.961,9.381 92.408,7.489 138.875,-6.461c19.136,-5.694 36.89,-12.508 52.539,-22.309c16.082,-10.072 30,-23.251 40.879,-41.704c6.959,-11.763 11.279,-25.046 13.733,-38.858c3.533,-19.877 3.162,-40.876 1.191,-59.779c-3.427,-34.16 -13.801,-68.696 -31.659,-98.162c-18.177,-29.991 -44.15,-54.7 -78.676,-68.697c-20.363,-8.3 -42.229,-12.042 -64.531,-13.122c-32.058,-1.553 -65.035,2.554 -95.506,6.467c-18.964,2.423 -34.963,7.457 -49.659,14.302c-21.909,10.206 -40.788,24.689 -62.323,41.225c-2.206,1.691 -8.383,5.268 -14.801,9.273Zm-1.813,38.375l-0.951,1.673c-3.282,6.129 -5.649,12.736 -7.194,19.553c-1.61,7.107 -2.42,14.415 -2.523,21.631c-0.311,22.378 4.514,43.787 13.67,63.41c9.21,19.741 22.656,37.71 39.404,53.139c33.16,30.489 72.097,50.855 113.65,60.394c41.742,9.582 86.037,8.326 129.576,-3.96c17.608,-5.014 34.033,-10.918 48.456,-19.787c13.914,-8.556 25.928,-19.883 35.366,-35.723c7.443,-12.55 11.305,-27.159 12.951,-42.118c1.711,-15.545 1.008,-31.467 -0.61,-46.026c-3.611,-31.471 -13.451,-63.281 -30.391,-90.183c-16.458,-26.138 -39.703,-47.554 -70.353,-59.273c-18.304,-6.959 -37.868,-9.747 -57.746,-10.214c-30.727,-0.722 -62.184,4.179 -91.255,8.686c-16.044,2.498 -29.52,7.12 -41.834,13.28c-19.936,9.973 -36.829,24.008 -56.249,39.817c-3.687,3.007 -20.142,23.537 -26.6,19.04c-1.594,2.996 -4.203,5.37 -7.367,6.661Z"/><path d="M821.889,681.002c-4.581,-0.82 11.875,-9.321 13.632,-10.002c10.307,-3.99 21.588,-7.385 32.567,-8.862c20.999,-2.823 46.787,-2.685 67.671,0.914c7.195,1.239 12.974,2.093 19.692,4.77c1.69,0.674 10.353,4.957 10.353,3.631" style="fill:#fff;fill-opacity:0.45;"/><path d="M833.776,689.449c2.513,-1.479 5.628,-6.455 6.261,-6.785c4.65,-2.36 9.403,-4.726 14.424,-6.63c4.915,-1.863 9.888,-3.437 14.888,-4.518c5.123,-0.961 10.516,-1.93 16.118,-2.385c5.369,-0.435 10.895,-0.605 16.396,-0.337c11.189,0.544 22.152,2.747 32.011,5.202c3.347,0.939 6.309,1.777 9.255,2.762c2.51,0.839 4.82,2.008 7.411,3.383c1.597,0.863 8.5,4.682 11.33,5.634c5.414,1.822 9.34,-0.772 11.472,-1.746c4.855,-2.218 6.319,-6.863 7.046,-12.576c-0,-7.255 -5.31,-13.28 -12.252,-14.395c-0.844,-1.727 -6.786,-1.288 -7.774,-1.555c-3.406,-0.944 -6.495,-1.726 -9.659,-2.163c-4.218,-0.581 -8.313,-0.915 -13.058,-1.232c-8.979,-0.826 -18.651,-0.873 -28.554,-0.706c-5.613,0.095 -11.262,0.293 -16.857,0.409c-8.795,0.184 -17.411,0.21 -25.407,0.95c-6.024,0.327 -12.089,1.331 -18.185,2.458c-6.024,1.114 -11.902,2.536 -17.636,4.118c-1.405,0.371 -9.94,3.898 -15.155,6.751c-2.976,1.629 -4.824,3.787 -6.041,5.099c-4.759,5.129 -3.203,10.722 -2.199,14.584c0.969,3.732 4.301,7.361 11.708,9.586c5.733,1.027 11.288,-1.455 14.457,-5.908Zm117.458,-18.493c-0.031,0.153 -0.035,0.318 -0.013,0.497l0.013,-0.497Zm-122.688,-2.93c-1.072,-0.71 -2.384,-1.273 -4.088,-1.379c1.461,0.262 2.833,0.733 4.088,1.379Z"/><path d="M946.105,670.095c-16.029,-0 -21.013,17.357 -28.273,27.952c-23.959,34.967 -24.726,85.259 -3.786,121.109c53.321,91.289 194.659,116.365 280.757,62.721c25.996,-16.198 42.73,-42.884 60.09,-67.031c9.136,-12.709 28.392,-20.372 33.332,-35.683c8.016,-24.846 -3.537,-57.085 -11.868,-80.21c-5.592,-15.521 -9.054,-33.915 -18.435,-47.722c-12.952,-19.065 -29.36,-41.609 -50.244,-52.493c-49.859,-25.986 -112.362,-0.423 -160.07,17.045c-28.599,10.471 -58.791,24.892 -84.583,41.132c-2.981,1.876 -22.979,9.885 -22.979,12.5" style="fill:#fff;fill-opacity:0.45;"/><path d="M928.249,660.768c-0.897,0.576 -1.76,1.199 -2.597,1.862c-8.537,6.764 -13.56,18.855 -19.316,27.54c-13.082,19.738 -19.85,43.567 -20.177,67.512c-0.326,23.857 5.538,47.769 17.47,67.558c28.789,47.874 80.284,78.312 136.147,89.392c55.345,10.978 114.8,3.1 159.635,-25.36c11.06,-6.957 20.553,-15.671 29.126,-25.299c12.268,-13.777 22.635,-29.443 33.196,-44.21c6.112,-8.468 16.99,-14.487 24.651,-22.336c4.473,-4.584 8.033,-9.68 9.984,-15.636c3.689,-11.227 3.896,-23.816 2.134,-36.559c-2.403,-17.376 -8.525,-35.062 -13.552,-49.375c-3.849,-10.973 -6.676,-23.335 -11.171,-34.589c-2.183,-5.464 -4.754,-10.675 -7.912,-15.435c-7.91,-11.921 -17.132,-25.105 -27.835,-36.289c-7.721,-8.067 -16.245,-15.062 -25.542,-20.039c-21.846,-11.746 -46.033,-14.431 -70.59,-12.182c-34.217,3.135 -69.184,16.217 -98.66,26.529c-14.777,5.164 -29.962,11.36 -44.817,18.271c-14.924,6.944 -29.487,14.645 -42.937,22.819c-2.537,1.54 -16.84,7.202 -21.984,10.649c-2.378,1.594 -4.067,3.386 -5.253,5.177Zm30.023,17.361c-2.61,3.945 -7.087,6.549 -12.167,6.549c-2.827,-0.044 -4.442,1.892 -5.939,3.868c-4.142,5.471 -7.213,12.26 -10.837,17.378c-10.732,15.156 -16.463,33.73 -17.272,52.493c-0.825,19.145 3.269,38.499 12.405,54.655c24.502,43.207 69.978,71.004 119.43,81.904c50.36,11.101 104.895,4.826 146.303,-20.495c9.716,-5.996 18.052,-13.57 25.599,-21.932c11.951,-13.24 21.978,-28.394 32.258,-42.621c6.527,-9.114 17.974,-15.844 26.143,-24.322c2.59,-2.688 4.781,-5.588 5.887,-9.07c2.807,-8.864 2.651,-18.786 1.129,-28.794c-2.453,-16.132 -8.558,-32.455 -13.448,-45.693c-3.412,-9.238 -6.058,-19.511 -9.684,-29.202c-2.164,-5.783 -4.706,-11.337 -8.101,-16.219c-7.541,-10.843 -16.258,-22.874 -26.364,-32.977c-6.326,-6.325 -13.214,-11.859 -20.748,-15.68c-18.292,-9.236 -38.374,-10.65 -58.604,-8.238c-32.205,3.841 -64.756,17.447 -92.286,27.98c-13.831,5.297 -28.026,11.569 -41.875,18.536c-13.778,6.932 -27.184,14.585 -39.538,22.639c-1.391,0.908 -7.136,6.132 -12.291,9.241Z"/></g></g><g id="Gorro-dormir" serif:id="Gorro dormir"><path d="M39.005,534.365c-48.717,-152.147 53.312,-286.407 158.102,-388.943c43.172,-42.244 77.109,-83.785 136.184,-105.101c119.145,-42.99 260.137,-28.14 376.922,15.176c48.611,18.031 192.181,110.083 214.976,158.754c14.42,30.788 1.693,65.011 -43.38,73.092" style="fill:#fff;"/><path d="M52.894,529.918c-19.344,-57.945 -15.458,-113.429 2.558,-165.452c27.618,-79.747 87.621,-151.395 148.429,-212.12c25.638,-25.437 47.885,-50.656 74.402,-71.307c16.872,-13.139 35.497,-24.4 57.928,-32.625c58.535,-21.072 122.448,-28.1 186.027,-24.132c63.744,3.978 127.074,19.034 184.417,40.808c27.599,10.574 86.325,46.098 134.997,83.374c33.694,25.804 62.754,52.103 71.517,71.416c5.524,12.192 5.662,25.053 -0.936,35.152c-5.915,9.055 -17.052,15.318 -32.998,17.957c-7.922,1.42 -13.201,9.005 -11.781,16.928c1.421,7.922 9.006,13.201 16.928,11.781c25.5,-4.926 42.211,-16.965 51.335,-31.756c11.046,-17.911 11.66,-40.305 1.492,-61.321c-10.364,-21.451 -42.721,-51.211 -81.219,-79.327c-51.443,-37.569 -113.314,-73.018 -142.22,-83.389c-59.384,-21.506 -124.848,-35.545 -190.516,-39.086c-65.971,-3.557 -132.207,3.465 -192.883,25.409c-24.346,8.642 -44.602,20.615 -63.017,34.6c-27.325,20.754 -50.491,46.068 -77.022,71.67c-64.462,61.803 -127.662,135.387 -158.219,217.591c-21.197,57.026 -26.789,118.183 -6.997,182.723c2.455,7.666 10.671,11.896 18.336,9.442c7.666,-2.455 11.896,-10.671 9.442,-18.336Z" style="fill-opacity:0.85;"/><path d="M364.061,586.727c-5.582,-2.51 23.655,-9.664 26.989,-11.005c20.106,-8.083 42.976,-15.218 63.666,-21.617c14.603,-4.516 28.004,-16.574 43,-21.63c45.964,-15.5 102.356,-20.626 150.513,-25.425c92.134,-9.182 190.155,-12.908 282.903,-12.908c43.742,0 95.75,13.868 138.297,1.148c15.371,-4.596 14.131,-43.828 11.382,-54.644c-32.087,-126.219 -102.174,-179.008 -120.467,-216.161c-30.891,-62.741 -143.738,-11.254 -199.96,-4.68c-154.18,18.029 -301.87,49.531 -447.759,103.967c-72.959,27.223 -146.231,46.99 -206.59,98.66c-32.552,27.866 -57.762,57.816 -77.665,96.043c-21.124,40.572 14.433,64.656 31.641,98.275c5.488,10.721 36.72,80.556 43.494,76.994c39.642,-20.842 76.702,-46.15 117.631,-65.647c28.472,-13.563 57.674,-24.691 87.695,-33.769c10.159,-3.072 19.886,-6.478 30.353,-8.358c5.082,-0.912 20.353,-3.037 15.19,-3.037c-6.843,-0 -13.43,0.077 -20.249,0.769" style="fill:#abe9f6;"/><path d="M354.64,597.986c0.967,0.74 2.104,1.429 3.441,2.041c5.272,2.371 11.214,1.347 15.366,-2.138c5.041,1.774 20.798,-7.943 22.965,-8.831c7.826,-3.208 16.085,-6.273 24.469,-9.201c12.721,-4.442 25.719,-8.581 37.947,-12.454c3.698,-1.171 7.341,-2.706 10.938,-4.51c10.727,-5.378 20.974,-13.635 32.293,-17.537c17.848,-6.153 37.342,-10.684 57.298,-14.229c30.314,-5.386 61.67,-8.532 90.12,-11.555c45.842,-4.845 93.156,-8.342 140.555,-10.694c47.415,-2.353 94.91,-3.567 141.1,-3.842c30.357,-0.16 64.729,6.331 97.124,6.003c15.292,-0.155 30.168,-1.765 44.087,-6.001c7.906,-2.407 14.011,-9.846 17.083,-20.459c4.513,-15.592 3.081,-38.192 0.96,-46.367c-9.723,-37.595 -22.724,-68.791 -36.723,-95.072c-33.224,-62.373 -72.264,-96.357 -85.302,-122.602c-11.815,-23.827 -33.635,-33.71 -60.274,-35.334c-47.28,-2.883 -110.751,21.656 -148.691,26.158c-77.434,9.003 -153.216,21.501 -228.008,38.357c-74.828,16.864 -148.675,38.096 -222.07,65.189c-44.183,16.246 -88.451,29.821 -129.995,49.245c-28.256,13.21 -55.252,29.113 -80.179,50.23c-16.875,14.281 -31.841,29.126 -45.198,45.303c-13.408,16.239 -25.178,33.834 -35.596,53.572c-10.416,19.727 -9.571,36.319 -3.727,51.744c7.327,19.338 24.338,36.583 34.726,57.205c4.444,8.823 25.692,56.574 37.47,73.309c4.913,6.98 10.303,9.97 13.225,10.606c3.462,0.754 6.55,0.163 9.305,-1.263c28.003,-14.492 54.747,-31.192 82.44,-46.537c11.484,-6.364 23.137,-12.485 35.123,-18.1c13.942,-6.527 28.06,-12.455 42.362,-17.836c14.353,-5.4 28.896,-10.236 43.634,-14.577c6.011,-1.771 11.87,-3.663 17.824,-5.276c3.6,-0.974 7.239,-1.834 10.981,-2.479c2.878,-0.495 8.798,-1.362 12.927,-2.068Zm7.121,-27.975c8.104,-3.135 21.628,-6.718 23.927,-7.624c8.326,-3.282 17.105,-6.411 26.016,-9.388c13.044,-4.359 26.365,-8.408 38.899,-12.192c10.993,-3.319 21.197,-11.357 32.102,-16.755c3.498,-1.731 7.045,-3.265 10.667,-4.459c19.199,-6.33 40.127,-10.939 61.546,-14.452c30.99,-5.084 63.007,-7.908 92.063,-10.613c46.339,-4.339 94.147,-7.302 142.027,-9.106c47.772,-1.799 95.61,-2.451 142.124,-2.173c30.346,0.159 64.636,7.022 97.02,7.026c13.286,0.002 26.234,-1.173 38.362,-4.733c1.638,-0.481 2.072,-2.534 2.848,-4.565c1.329,-3.48 2.128,-7.646 2.603,-11.925c1.14,-10.286 0.452,-21.226 -0.729,-25.971c-8.99,-35.987 -21.14,-65.898 -34.319,-91.104c-32.825,-62.782 -71.705,-97.142 -84.589,-123.545c-8.719,-17.833 -25.468,-24.45 -45.346,-25.751c-46.284,-3.03 -108.445,21.286 -145.611,25.568c-76.806,9.032 -152.017,21.313 -226.143,38.344c-73.977,16.996 -146.857,38.723 -219.296,66.042c-43.484,16.463 -87.105,30.221 -127.945,49.812c-26.489,12.707 -51.79,27.904 -75.062,48.034c-15.71,13.603 -29.635,27.701 -42.019,43.049c-12.29,15.232 -23.04,31.709 -32.516,50.162c-6.493,12.65 -6.059,23.208 -2.214,32.993c7.3,18.577 24.214,34.834 34.497,54.607c4.14,7.96 23.019,49.429 34.726,67.126c24.82,-13.7 48.75,-28.927 73.476,-43.05c11.922,-6.81 24.027,-13.362 36.485,-19.396c14.49,-7.023 29.174,-13.416 44.054,-19.251c14.908,-5.847 30.018,-11.12 45.34,-15.874c5.86,-1.818 11.577,-3.739 17.373,-5.424c2.343,-3.397 6.105,-5.782 10.527,-6.23l21.72,-0.696c3.179,0.023 5.589,0.673 7.387,1.514Zm11.874,5.715c-0.94,-0.857 -2.113,-1.647 -3.594,-2.3c1.338,0.602 2.542,1.381 3.594,2.3Z"/><path d="M439.109,256.612c0.695,-1.046 -14.137,17.608 -18.123,22.765c-12.686,16.407 -24.396,32.358 -33.313,51.227c-26.632,56.356 -36.319,129.829 -40.47,191.623c-5.475,81.482 -20.092,162.098 -29.089,243.228c-6.609,59.597 -6.906,120.083 -14.759,179.484c-5.722,43.283 -5.489,86.201 -5.489,129.769c-0,13.909 -0.952,27.773 2.529,41.357c1.846,7.201 14.187,21.253 6.754,21.253c-9.822,-0 -28.766,-31.943 -33.73,-38.32c-37.842,-48.618 -54.456,-97.933 -76.73,-154.816c-39.639,-101.229 -111.791,-189.562 -135.249,-295.08c-12.644,-56.875 -51.819,-89.774 -46.333,-148.987c5.876,-63.431 4.479,-82.04 29.06,-139.625" style="fill:#fff;"/><path d="M290.362,1108.72c-4.569,-6.547 -8.387,-12.541 -10.244,-14.932c-14.618,-18.901 -25.973,-37.895 -35.672,-57.427c-14.95,-30.108 -26.014,-61.468 -39.156,-95.542c-27.212,-70.954 -70.331,-135.719 -101.602,-204.376c-13.2,-28.98 -24.211,-58.675 -30.871,-89.866c-8.603,-40.49 -30.513,-69.127 -40.604,-103.376c-3.742,-12.703 -5.616,-26.281 -4.024,-41.87c3.896,-37.986 4.884,-59.532 10.796,-83.432c3.653,-14.773 9.264,-30.44 18.594,-51.68c3.16,-7.403 -0.285,-15.978 -7.687,-19.138c-7.403,-3.16 -15.978,0.285 -19.138,7.687c-9.671,23.328 -15.334,40.533 -18.985,56.692c-5.675,25.117 -6.451,47.645 -9.745,87.447c-1.607,19.318 0.981,36.073 5.906,51.697c10.578,33.563 32.906,61.29 42.134,101.032c7.551,32.669 19.628,63.691 33.973,93.941c32.179,67.858 75.976,131.732 104.052,201.977c13.702,34.47 25.363,66.159 40.798,96.613c10.351,20.421 22.364,40.301 37.833,60.049c3.829,4.907 15.819,24.476 25.805,34.042c5.266,5.044 10.635,7.495 14.624,7.49c3.759,-0.004 6.138,-1.397 7.73,-2.941c2.4,-2.327 3.937,-6.095 2.497,-11.195c-1.291,-4.572 -7.533,-12.72 -8.787,-17.643c-1.248,-4.902 -1.838,-9.846 -2.117,-14.814c-0.456,-8.099 -0.095,-16.263 -0.082,-24.443c0.063,-26.023 0.019,-51.813 1.267,-77.584c0.823,-16.994 2.222,-33.977 4.545,-51.016c2.46,-17.994 4.218,-36.09 5.696,-54.231c3.404,-41.763 5.214,-83.77 10.075,-125.329c6.733,-56.716 16.191,-113.158 23.395,-169.837c3.115,-24.506 5.819,-49.052 7.689,-73.688c2.757,-36.25 7.464,-76.575 16.522,-114.928c5.992,-25.372 13.921,-49.857 24.477,-71.639c3.375,-6.964 7.177,-13.481 11.265,-19.774c6.393,-9.844 13.523,-19.116 20.975,-28.561c3.038,-3.851 12.364,-15.369 16.341,-20.202c0.254,-0.308 0.49,-0.612 0.706,-0.916c0.703,-0.692 1.345,-1.467 1.913,-2.321c0.168,-0.258 0.182,-0.768 0.055,-1.462c1.306,-4.326 -1.125,-7.708 -4.894,-10.175c-4.966,-7.036 -12.926,-12.906 -20.44,-3.396c-3.967,5.022 -13.272,16.985 -16.301,20.984c-7.795,10.289 -15.225,20.402 -21.877,31.097c-4.563,7.336 -8.781,14.93 -12.509,23.022c-10.907,23.679 -18.979,50.194 -24.922,77.637c-8.62,39.801 -12.832,81.537 -15.019,119.041c-1.42,24.27 -3.642,48.468 -6.311,72.629c-6.279,56.831 -14.921,113.447 -20.782,170.302c-4.386,41.841 -5.647,84.099 -8.631,126.123c-1.266,17.822 -2.859,35.6 -5.117,53.285c-2.25,17.564 -3.526,35.064 -4.26,52.568c-1.093,26.038 -0.97,52.086 -0.906,78.371c0.013,8.508 -0.312,17 0.188,25.422c0.17,2.871 0.434,5.733 0.832,8.586Z" style="fill-opacity:0.85;"/><path d="M258.803,1075.33c0.639,-2.313 -40.709,20.82 -46.376,29.218c-17.522,25.964 -26.246,74.803 -20.666,105.871c11.782,65.602 112.401,102.589 167.385,75.882c28.677,-13.929 46.693,-134.361 18.123,-160.122c-19.619,-17.69 -55.607,-42.883 -83.054,-42.883c-8.031,0 -74.513,1.148 -43,1.148" style="fill:#fff;"/><path d="M236.025,1070.82c-1.182,0.215 -2.341,0.466 -3.47,0.748c-12.239,2.198 -17.654,6.178 -18.406,10.415c-1.023,1.554 -1.506,3.145 -1.337,4.702c-5.449,4.162 -9.724,7.949 -11.338,10.473c-9.288,14.466 -16.29,35.057 -19.827,56.373c-3.454,20.815 -3.826,42.209 -0.472,58.79c7.034,35.785 37.54,63.842 74.347,78.923c36.126,14.801 77.877,17.184 107.32,2.669c5.359,-2.572 10.633,-7.837 15.322,-15.379c9.666,-15.548 17.388,-41.839 21.033,-68.787c3.066,-22.662 3.196,-45.73 -0.541,-63.22c-2.674,-12.515 -7.605,-22.347 -14.089,-28.441c-11.983,-11.296 -29.987,-25.382 -48.632,-35.253c-14.137,-7.483 -28.751,-12.296 -41.72,-12.604c-2.684,-0.067 -11.84,-0.165 -21.731,-0.238c-0.477,-1.223 -1.123,-2.325 -1.88,-3.317c-1.874,-2.454 -6.357,-7.806 -15.197,-5.738c-1.279,0.299 -4.214,1.264 -8.027,3.272c-3.024,1.592 -6.999,3.908 -11.355,6.612Zm7.81,27.866c-4.239,2.4 -8.539,4.978 -12.3,7.442c-3.727,2.441 -7.054,4.263 -8.156,5.813c-8.235,11.621 -14.516,28.519 -18.233,46.031c-3.772,17.772 -5.06,36.157 -2.799,50.547c4.828,29.67 30.182,52.919 60.237,66.022c30.988,13.51 67.224,16.419 92.865,4.151c4.487,-2.212 8.139,-8.163 11.665,-15.838c6.596,-14.353 11.364,-34.7 13.55,-55.343c1.809,-17.089 1.751,-34.398 -0.629,-48.711c-1.807,-10.871 -4.7,-19.879 -10.064,-24.526c-11.18,-9.64 -27.82,-21.612 -44.922,-29.684c-10.592,-4.999 -21.338,-8.45 -30.834,-8.225c-4.12,0.103 -23.744,0.901 -37.393,1.543c-1.726,0.722 -3.62,1.12 -5.607,1.12c-2.61,-0.069 -5.067,-0.183 -7.38,-0.342Z"/><path d="M523.967,227.056c-10.649,-18.021 -11.465,-21.76 -16.831,-29.389c-2.857,-4.063 -6.949,-9.223 -14.434,-18.045c-31.813,-37.559 -65.114,-50.227 -97.14,-47.422c-46.975,4.115 -92.385,43.378 -126.444,90.712c-6.988,9.666 -11.186,19.224 -13.801,28.861c-5.736,21.135 -3.158,42.596 -8.856,66.377c-3.681,15.159 -6.141,29.185 -7.97,42.699c-4.453,32.904 -4.981,62.714 -9.681,98.781c-3.7,26.702 -12.646,52.188 -18.22,78.661c-2.475,11.752 -4.327,23.687 -4.843,35.995c-2.182,49.039 -1.475,98.506 3.016,147.578c4.518,49.363 12.912,98.307 26.593,145.991c7.023,24.61 9.079,47.314 16.075,69.548c3.246,10.315 7.525,20.504 13.546,30.745c4.2,6.866 13.184,9.031 20.05,4.831c6.867,-4.2 9.031,-13.184 4.831,-20.05c-6.994,-10.998 -11.342,-22.045 -14.649,-33.346c-5.539,-18.924 -8.511,-38.437 -15.175,-59.209c-14.64,-45.822 -24.341,-93.004 -29.97,-140.74c-5.665,-48.032 -7.251,-96.578 -6.186,-144.744c0.279,-11.299 1.769,-22.283 3.901,-33.094c5.308,-26.912 14.21,-52.82 17.731,-79.924c4.971,-35.98 5.626,-65.758 10.422,-98.569c1.887,-12.908 4.456,-26.289 8.174,-40.742c6.096,-23.407 3.854,-44.703 9.969,-65.484c2.19,-7.444 5.633,-14.791 11.234,-22.177c25.579,-33.59 57.019,-63.241 90.519,-74.315c31.748,-10.495 64.879,-2.372 95.714,36.402c6.405,8.072 9.931,12.759 12.356,16.46c4.779,7.293 5.322,10.867 14.719,28.032c3.98,6.996 12.891,9.444 19.887,5.464c6.996,-3.98 9.444,-12.892 5.463,-19.887Z" style="fill:#aeebf9;fill-opacity:0.62;"/><path d="M685.863,196.743c-8.987,-12.638 -17.978,-26.895 -26.883,-39.305c-4.522,-6.302 -9.017,-12.161 -13.485,-17.174c-16.776,-18.829 -40.257,-40.958 -65.343,-58.257c-17.729,-12.225 -36.242,-22.079 -53.83,-26.947c-41.372,-11.487 -107.419,-1.18 -170.718,19.602c-61.872,20.313 -121.106,50.227 -151.336,77.871c-11.844,10.774 -22.253,23.772 -31.385,37.85c-13.286,20.481 -23.875,43.257 -32.132,64.692c-18.249,46.455 -41.92,100.986 -56.295,155.575c-10.035,38.114 -15.542,76.278 -11.659,112.002c2.454,22.944 7.677,44.742 14.245,66.018c14.924,48.347 37.205,93.833 49.746,143.956c9.297,37.314 19.023,64.4 27.421,96.361c3.289,12.517 6.344,25.802 9.106,40.805c1.569,7.894 9.252,13.029 17.147,11.46c7.894,-1.569 13.029,-9.252 11.46,-17.146c-3.348,-15.677 -6.966,-29.536 -10.78,-42.59c-9.24,-31.63 -19.618,-58.382 -29.861,-95.334c-13.884,-50.288 -37.488,-95.659 -53.654,-144.122c-6.625,-19.86 -11.961,-40.252 -14.719,-61.772c-4.221,-33.4 0.38,-69.257 9.312,-105.085c13.477,-54.066 36.66,-108.015 54.264,-154.029c6.645,-17.03 14.784,-34.981 24.755,-51.746c9.767,-16.419 21.292,-31.696 34.835,-43.788c29.232,-25.937 86.264,-53.494 145.638,-71.779c58.835,-18.119 119.999,-27.368 157.985,-15.917c15.116,4.569 30.847,13.634 45.921,24.59c22.884,16.632 44.103,37.781 59.217,55.66c3.755,4.446 7.492,9.641 11.264,15.205c8.554,12.617 17.142,27.081 25.771,39.929c4.577,6.621 13.668,8.28 20.289,3.704c6.621,-4.577 8.28,-13.668 3.704,-20.289Z" style="fill:#aeebf9;fill-opacity:0.62;"/><path d="M784.266,191.919c-4.921,-14.157 -8.915,-21.698 -13.424,-27.157c-6.651,-8.052 -14.111,-10.559 -27.298,-27.251c-5.806,-8.065 -14.623,-16.472 -24.109,-25.703c-5.858,-5.701 -11.877,-11.802 -17.986,-17.914c-5.962,-5.964 -11.815,-12.013 -17.393,-17.982c-8.63,-9.236 -16.135,-18.247 -21.658,-26.266c-5.155,-6.182 -14.358,-7.016 -20.54,-1.861c-6.182,5.154 -7.016,14.358 -1.861,20.539c10.182,10.242 25.082,21.307 40.348,33.11c8.826,6.824 17.819,13.71 25.657,20.975c9.318,8.637 16.853,17.704 21.945,25.664c10.508,18.273 17.61,21.721 22.803,30.672c2.446,4.217 3.647,9.996 5.208,20.197c1.938,7.812 9.853,12.581 17.665,10.643c7.812,-1.938 12.581,-9.854 10.643,-17.666Z" style="fill:#aeebf9;fill-opacity:0.62;"/></g></svg>