<svg viewBox="0 0 1297 1219" xmlns="http://www.w3.org/2000/svg" xml:space="preserve" style="fill-rule:evenodd;clip-rule:evenodd;stroke-linejoin:round;stroke-miterlimit:2"><path d="M889.706 196.432c0-22.422 50.297-31.004 64.318-34.324 18.274-4.327 36.54-6.414 55.025-9.564 41.86-7.134 103.501-23.739 136.604 15.196 9.361 11.011 14.177 48.643 8.35 61.479-6.237 13.737-17.87 22.734-25.236 35.345-6.382 10.927 11.241 13.553 6.261 25.101-9.675 22.43-43.98 23.934-63.75 26.467-6.473.83-21.048 4.552-27.7 1.538-15.044-6.817-30.763-36.11-42.691-47.473-26.28-25.038-59.448-39.175-87.083-61.303-6.906-5.529-10.233-14.945-15.373-19.462"/><path d="M895.839 209.661c1.135 1.7 2.354 3.393 3.747 4.93 1.695 1.87 3.489 3.651 5.506 5.183 20.055 15.289 42.729 26.561 63.917 40.474 8.347 5.481 16.462 11.366 23.997 18.221 8.03 7.345 17.866 22.693 28 33.816 6.093 6.688 12.357 12.038 18.381 14.636 3.307 1.43 7.793 2.132 12.762 1.896 7.198-.342 15.742-2.417 20.359-3.09 12.356-1.765 30.101-3.343 44.551-9.227 11.604-4.725 21.218-12.056 25.941-23.397 1.684-3.988 1.877-7.424 1.287-10.48-.708-3.664-2.618-6.855-5.05-9.749-.687-.817-1.407-1.614-2.09-2.417-.447-.525-1.536-.78-1.055-1.615 5.026-8.616 12.138-15.471 18.015-23.426 2.895-3.919 5.534-8.064 7.65-12.677 3.4-7.376 4.17-21.903 2.374-36.193-1.8-14.33-6.263-28.231-11.607-34.647-14.761-17.86-34.824-25.69-56.662-28.201-29.677-3.412-62.876 3.61-88.746 7.504-13.041 1.934-25.953 3.35-38.858 5.38a317.19 317.19 0 0 0-17.162 3.159c-10.243 2.165-38.148 6.888-55.56 16.854-12.795 7.323-20.121 17.869-20.413 29.837 0 8.049 6.534 14.583 14.583 14.583 2.191 0 4.27-.484 6.133-1.354Zm19.393-22.006c2.016 3.553 3.998 7.587 7.283 10.36 18.787 15.79 40.353 27.728 60.318 42.218 9.069 6.582 17.844 13.618 25.936 21.691 8.1 8.038 17.879 24.441 28.047 36.507 3.678 4.365 7.217 8.211 10.954 9.988 1.47.696 3.699.456 6.03.298 6.022-.408 12.517-1.766 16.249-2.179 11.175-1.268 27.255-1.937 40.414-6.885 7.165-2.694 13.533-6.573 16.592-13.427.317-.72-.12-1.186-.459-1.642-.853-1.148-1.843-2.228-2.742-3.328-2.603-3.185-4.522-6.586-4.918-10.433-.317-3.081.158-6.562 2.506-10.537 5.342-9.134 12.825-16.449 19.032-24.908 2.193-2.99 4.191-6.155 5.774-9.679 2.455-5.491 2.138-16.29.642-26.849-1.471-10.385-4.132-20.688-8.107-25.269-11.865-13.567-27.796-18.945-44.839-20.331-27.962-2.272-58.827 6.039-82.962 10.636-12.869 2.479-25.633 4.435-38.363 7.003-5.23 1.056-10.447 2.23-15.666 3.585-6.648 1.745-21.878 4.928-35.429 10.359a78.477 78.477 0 0 0-6.292 2.822Z"/><path d="M84.18 678.693c3.034 14.154 9.437 36.064 18.587 51.718 9.151 15.654 23.238 29.036 36.315 42.205 13.334 13.426 29.717 24.926 43.688 38.356 14.901 14.324 32.827 30.714 45.716 47.585 12.6 16.493 24.555 34.124 31.618 53.641 7.085 19.579 7.121 42.58 10.894 63.833 3.916 22.063 6.943 46.559 12.605 68.541 5.557 21.581 11.481 49.156 21.361 63.351 8.331 11.971 26.364 12.929 37.921 21.824 15.861 12.21 38.611 42.058 57.25 51.431 16.318 8.205 36.459 2.556 54.585 4.806 30.851 3.829 93.816 18.924 130.525 18.171 30.843-.633 66.046-14.342 89.723-22.69 18.572-6.547 36.132-16.211 52.339-27.396 16.645-11.488 32.341-26.974 47.533-41.531 17.055-16.342 39.237-37.233 54.796-56.524 14.788-18.335 28.054-42.716 38.558-59.219 8.361-13.137 20.066-28.809 24.463-39.8 3.247-8.114 3.045-19.819 1.923-26.148-.853-4.809-13.45-10.897-8.655-11.822 5.982-1.153 29.612 4.483 44.544 4.902 18.852.529 45.943 1.535 68.573-1.731 23.428-3.381 52.517-9.934 71.993-18.554 17.006-7.526 34.307-18.423 44.863-33.163 10.557-14.741 15.906-36.022 18.478-55.279 3.737-27.975 2.842-80.909 3.944-112.569.898-25.795 6.638-51.882 2.669-77.386-4.539-29.177-19.233-65.339-29.907-97.672-15.938-48.281-50.214-149.987-65.726-192.019-7.628-20.67-11.784-44.579-27.344-60.177-21.416-21.47-70.924-51.176-101.153-68.64-25.394-14.672-52.304-27.147-80.217-36.147-32.151-10.366-75.573-21.822-112.691-26.052-36.438-4.152-73.488-2.567-110.018.674-43.349 3.845-101.363 8.778-150.073 22.399-49.562 13.859-104.73 37.251-147.295 60.755-39.288 21.695-80.912 56.365-108.096 80.27-20.966 18.437-42.46 44.671-55.011 63.16-9.718 14.316-14.204 31.582-20.295 47.777-6.213 16.519-13.562 33.638-16.981 51.335-4.344 22.479-4.089 55.978-9.081 83.54-5.27 29.096-18.717 70.331-22.537 91.039-2.009 10.886-2.704 22.383-.384 33.206Z" style="fill:#fff"/><path d="M903.78 929.786c5.332.891 11.238 1.894 16.729 2.495 3.436.376 6.73.642 9.705.719 11.744.305 26.646.782 41.708.326 9.651-.293 19.367-.966 28.396-2.288 14.005-2.051 29.985-5.214 44.825-9.257 10.789-2.939 20.984-6.347 29.444-10.112 10.741-4.781 21.58-10.844 30.967-18.259 6.686-5.28 12.645-11.242 17.385-17.889 4.778-6.701 8.612-14.606 11.631-23.087 4.112-11.553 6.729-24.19 8.309-36.098 1.24-9.342 1.986-21.4 2.45-34.534.937-26.519.747-57.531 1.473-78.875.614-18.05 3.588-36.245 3.968-54.282.175-8.272-.177-16.512-1.457-24.695-1.502-9.69-4.072-20.127-7.251-30.936-6.529-22.203-15.653-46.041-22.921-68.101-9.176-27.94-24.476-73.741-38.703-115.563-10.407-30.596-20.237-59.067-26.756-76.869-4.55-12.431-7.879-26.006-13.105-38.302-3.984-9.376-9.047-18.03-16.156-25.195-9.345-9.417-23.849-20.406-39.875-31.287-21.345-14.492-45.409-28.855-62.997-39.078-12.935-7.533-26.26-14.503-39.907-20.755-13.705-6.28-27.737-11.829-42.027-16.493-16.622-5.425-36.224-11.146-56.433-16.037-19.498-4.718-39.56-8.654-58.087-10.833-18.659-2.194-37.48-2.915-56.316-2.696-18.625.217-37.265 1.361-55.776 2.929-26.747 2.259-59.032 4.915-91.325 9.728-20.749 3.093-41.497 7.083-60.824 12.4-24.91 6.852-51.215 16.069-76.695 26.483-26.123 10.678-51.373 22.625-73.339 34.616-15.518 8.471-31.398 18.894-46.662 29.91-24.235 17.489-46.897 36.481-63.97 51.348-10.449 9.099-21.035 20.039-30.675 31.078-10.529 12.057-19.917 24.238-26.768 34.227-4.436 6.467-7.939 13.466-10.973 20.72-4.058 9.7-7.225 19.885-10.964 29.682-3.843 10.067-8.094 20.357-11.654 30.861-2.515 7.418-4.68 14.944-6.191 22.566-1.072 5.403-1.899 11.403-2.598 17.794-2.219 20.27-3.02 44.812-6.939 65.824-1.024 5.486-2.361 11.419-3.866 17.565-6.47 26.422-15.969 56.555-19.158 73.338-1.173 6.169-1.949 12.515-2.139 18.853-.202 6.746.294 13.481 1.658 20.023a247.471 247.471 0 0 0 8.04 28.214c3.408 9.68 7.603 19.455 12.458 27.665 4.167 7.046 9.201 13.697 14.729 20.058 7.51 8.643 15.924 16.772 23.986 24.808a207.235 207.235 0 0 0 9.113 8.517c11.359 10.033 23.946 19.327 35.01 29.856 8.868 8.439 18.822 17.601 28.126 27.169 5.916 6.083 11.575 12.322 16.46 18.651 6.052 7.839 11.966 15.939 17.208 24.413 5.038 8.141 9.474 16.616 12.756 25.546 1.952 5.308 3.306 10.906 4.36 16.656 2.692 14.674 3.588 30.24 6.278 44.957 2.814 15.451 5.2 32.096 8.352 48.237 1.406 7.203 2.96 14.309 4.761 21.177 3.851 14.68 7.906 32.062 13.165 46.337 2.999 8.14 6.418 15.35 10.279 20.846 3.69 5.251 8.576 9.135 14.216 12.177 8.324 4.491 18.852 6.431 26.384 12.175 10.685 8.148 24.523 24.439 38.098 36.797 7.266 6.615 14.514 12.192 21.226 15.53 6.309 3.137 13.036 4.731 20.026 5.376 12.469 1.15 25.891-1.16 38.37.332 21.384 2.557 58.225 10.464 91.023 14.758 15.112 1.978 29.404 3.2 41.12 2.907 12.654-.308 25.997-2.64 39.051-5.961 19.9-5.063 39.122-12.392 53.912-17.669 9.761-3.482 19.256-7.774 28.434-12.685 9.066-4.851 17.827-10.297 26.23-16.143 7.049-4.904 13.94-10.487 20.689-16.424 9.557-8.406 18.841-17.52 27.942-26.306 10.298-9.937 22.454-21.542 33.911-33.447 7.752-8.057 15.188-16.25 21.543-24.178 5.883-7.338 11.538-15.599 16.876-23.971 8.228-12.905 15.7-26.066 22.134-36.243 5.552-8.783 12.578-18.694 17.962-27.601 3.016-4.989 5.542-9.706 7.173-13.819 1.865-4.702 2.865-10.365 3.17-15.868.308-5.571-.063-10.951-.712-14.808Zm-18.119 3.959c.354 2.684.498 6.171.277 9.766-.213 3.469-.752 7.059-1.946 10.017-1.326 3.286-3.421 7.024-5.86 11.005-5.376 8.774-12.389 18.525-17.931 27.175-6.483 10.119-14.019 23.212-22.31 36.043-5.005 7.747-10.291 15.398-15.796 22.181-6.054 7.459-13.137 15.159-20.516 22.728-11.357 11.649-23.415 22.981-33.622 32.695-8.944 8.506-18.062 17.338-27.448 25.47-6.201 5.373-12.519 10.433-18.987 14.862-7.793 5.335-15.909 10.303-24.307 14.716-8.304 4.364-16.887 8.176-25.706 11.248-14.314 4.987-32.906 11.964-52.149 16.705-11.49 2.831-23.217 4.859-34.336 5.044-10.765.173-23.878-1.126-37.744-3.068-32.856-4.601-69.738-12.852-91.162-15.608-12.654-1.629-26.3.536-38.947-.744-4.123-.418-8.119-1.275-11.827-3.16-5.052-2.569-10.37-6.995-15.818-12.044-13.993-12.97-28.33-29.921-39.359-38.49-8.431-6.549-20.049-9.314-29.385-14.459-2.277-1.255-4.378-2.693-5.856-4.837-3.685-5.346-6.572-12.931-9.209-21.261-3.906-12.339-7.033-26.245-10.07-38.259-2.149-8.504-3.881-17.398-5.432-26.371-2.407-13.93-4.374-28.05-6.664-41.296-2.543-14.755-3.285-30.341-5.829-45.053-1.254-7.249-2.934-14.299-5.322-21.002-3.042-8.541-6.942-16.756-11.403-24.696-6.41-11.409-14.012-22.233-21.869-32.625-5.415-7.164-11.68-14.253-18.255-21.153-9.455-9.921-19.572-19.441-28.59-28.198-11.198-10.874-23.94-20.528-35.444-30.899a179.205 179.205 0 0 1-7.808-7.441c-7.512-7.641-15.38-15.348-22.366-23.555-4.33-5.086-8.304-10.37-11.55-15.988-3.89-6.733-7.162-14.764-9.86-22.683a217.518 217.518 0 0 1-6.815-24.873c-.948-4.306-1.289-8.749-1.204-13.2.092-4.817.649-9.642 1.49-14.338 2.948-16.479 12.001-46.091 18.063-72.05 1.563-6.693 2.939-13.154 3.987-19.124.994-5.661 1.785-11.557 2.435-17.559 2.513-23.192 2.836-48.062 6.189-65.904 1.222-6.49 3.022-12.897 5.098-19.221 3.352-10.217 7.391-20.226 11.021-30.021 3.549-9.578 6.517-19.536 10.378-29.022 2.291-5.631 4.893-11.097 8.274-16.13 6.288-9.361 14.928-20.779 24.621-32.099 8.781-10.254 18.415-20.442 27.958-28.916 16.464-14.62 38.317-33.313 61.72-50.551 14.334-10.557 29.244-20.579 43.84-28.732 21.144-11.809 45.462-23.615 70.647-34.177 24.535-10.289 49.888-19.407 73.908-26.233 18.456-5.245 38.285-9.213 58.12-12.341 31.768-5.011 63.549-7.882 89.877-10.329 17.995-1.669 36.118-2.941 54.235-3.289 17.957-.345 35.906.21 53.71 2.174 17.787 1.962 37.054 5.617 55.789 10.009 19.717 4.622 38.847 10.058 55.074 15.225 13.627 4.341 27.014 9.526 40.096 15.408 13.128 5.903 25.95 12.5 38.404 19.637 17.333 9.953 41.055 23.933 62.102 38.061 14.972 10.051 28.587 20.133 37.332 28.854 5.522 5.506 9.344 12.252 12.461 19.479 5.17 11.99 8.454 25.254 12.965 37.378 6.574 17.679 16.523 45.945 27 76.342 14.372 41.7 29.746 87.397 38.993 115.266 7.24 21.884 16.336 45.527 22.843 67.554 2.968 10.047 5.392 19.743 6.8 28.752 1.114 7.203 1.389 14.456 1.223 21.735-.408 17.965-3.41 36.083-4.05 54.061-.76 21.337-.621 52.339-1.6 78.848-.463 12.506-1.17 23.987-2.365 32.88-1.207 8.98-3.035 18.424-5.787 27.367-2.725 8.852-6.342 17.211-11.229 24.005-4.796 6.668-11.17 12.415-18.236 17.373-7.246 5.085-15.231 9.327-23.139 12.807-9.564 4.209-21.55 7.868-33.976 10.891-12.075 2.937-24.568 5.259-35.741 6.848-8.381 1.191-17.397 1.763-26.351 1.997-14.698.384-29.235-.153-40.692-.498-12.26-.378-30.428-4.354-39.656-5.051-2.952-.222-5.312-.112-6.884.186-4.116.78-6.022 2.98-7.091 4.699-1.318 2.119-1.817 4.531-1.231 7.268.362 1.692 1.759 4.504 4.696 7.158l5.104 4.631Z"/><path d="M80.588 606.102c-5.79 4.335-7.586 12.416-3.916 18.867 2.429 3.333 4.911 6.321 9.012 6.916 1.415.205 2.942.754 4.671.444 1.443-.257 5.362-.155 8.796-3.673 1.064-1.09 4.342-5.011 4.342-5.011s-.629.385-.803.541l11.559-10.471c5.284-3.648 12.145-8.43 19.709-11.243 6.235-2.319 12.755-3.847 18.303-1.684 7.55 3.632 13.777 8.514 18.675 14.556 5.091 6.281 8.378 13.826 11.37 21.739 1.479 4.191 3.543 13.258 5.526 19.168 1.23 3.664 3.022 6.287 4.183 7.961 3.979 5.736 9.709 5.566 13.47 5.58 4.246.016 9.003-2.561 12.927-10.339 2.628-7.227-.823-15.194-7.737-18.285-2.711-4.925-5.614-11.023-7.472-14.045-5.301-9.086-11.37-17.171-18.52-24.237-7.236-7.152-15.317-13.465-25.434-17.68-7.369-3.72-16.139-3.883-25.128-2.616-11.47 1.617-23.215 6.279-31.725 10.178l-15.76 8.997c-.961.54-6.772 2.496-6.048 4.337Zm112.324 39.793a7.662 7.662 0 0 0-1.911 3.591 14.38 14.38 0 0 1 1.911-3.591Zm20.577-.021.024.037c.093.135.359.261.359.261l-.383-.298Zm-114.01-38.605a14.46 14.46 0 0 1 2.544 3.276c-.583-1.36-1.495-2.388-2.544-3.276Zm-7.358-3.822c1.469.284 2.892.793 4.212 1.512-1.099-.758-2.503-1.289-4.212-1.512ZM144.094 695.667c1.193-1.788 1.986-3.427 3.333-4.395.568-.408.824-1.222 1.495-1.267 1.617-.108 3.389.574 5.59 1.741 1.586 1.231 2.484 3.146 3.349 5.036.063.137.117.275.16.416-.218.204-.429.418-.635.641-.121.232-.303.481-.18.549.407.227.746.189 1.028.016.084 1.271-.246 2.595-.31 3.893.064-.791.003-1.861-.741-2.294-.79-.461-1.605.798-1.943 1.148-.663.687-.803 1.374-1.041 1.669-.828 1.024-.608 2.139-.927 2.751-.853 1.637-.09 3.153-.293 4.278-.177.981.458 1.769.464 2.607.022 3.027 2.651 4.46 3.914 6.527 1.65 2.7 5.088 2.595 8.602 3.866 1.256.454 2.665-.379 4.44-.32 1.182.04 2.381-1.232 4.565-1.94.433-.141 1.276-1.341 3.826-2.937a14.48 14.48 0 0 0 2.181-3.071c2.26-2.019 2.688-11.367.695-16.067-1.801-4.712-3.847-9.231-7.451-12.934-3.379-3.471-6.82-6.848-11.151-8.621-7.154-4.667-12.923-5.116-18.313-4.711-5.315.4-10.209 2.948-16.901 7.012-.912.512-2.488 1.092-4.086 1.911-1.915.981-3.205 2.568-4.699 3.776-2.239 1.81-2.595 4.5-3.692 6.615-.489.943-.242 1.996-.543 2.978-1.235 4.031 1.42 7.463 3.853 12.148 5.352 6.012 14.578 6.546 20.589 1.194 3.588-3.194 5.225-7.768 4.822-12.215Zm-2.761-7.299c-.188-.414-.447-.792-.867-1.075.309.347.599.705.867 1.075ZM648.831 622.344c.704-2.391.799-4.995.156-7.588-3.114-7.678-6.996-11.618-12.478-12.046-2.874-.224-6.276-.803-9.608.946-3.676 1.93-8.396 5.784-10.025 7.734-4.502 5.131-12.741 20.44-13.268 32.327-.39 8.817 1.87 16.027 8.739 19.391 2.469 1.285 5.028 2.095 7.71 2.432 2.874.361 5.85.324 8.703.269 2.817.081 5.24-.175 7.613-.626 2.577-.49 5.036-1.428 7.809-2.86 8.917-4.262 14.477-14.242 14.873-22.752.304-6.524-2.837-12.406-10.224-17.227Zm-12.399 20.786c-1.42.263-4.308 1.677-5.842 1.403a14.654 14.654 0 0 1-7.487 1.22c-.163 1.124.089 2.564-.759 2.642h-.086c.395.163.807.272 1.233.329 1.745.231 3.542.183 5.269.215 1.347-.039 2.511-.162 3.621-.482.906-.261 1.661-.864 2.584-1.501 1.081-.796 1.212-2.449 1.467-3.826Zm-.435-2.815c.11-.101.201-.214.268-.34l-.268.34ZM1048.33 598.338c-3.99-.221-12.51 1.528-18.38 4.273-6.939 3.244-9.037 9.743-9.941 15.657 0 5.215 2.744 9.795 6.868 12.371-.201 2.725.076 5.378 1.257 7.908.981 2.212 2.181 4.401 4.334 5.988 3.268 2.408 8.538 4.283 14.58 4.459 10.491.306 22.03-3.975 24.784-9.131 5.676-8.513 4.602-17.954.974-25.769a14.522 14.522 0 0 0-.203-11.267c-3.247-7.365-11.862-10.708-19.227-7.461a116.88 116.88 0 0 1-5.046 2.972Zm7.782 26.259-.328.239c-1.132.921-2.59 1.95-4.009 3.193 2.284.101 4.504.695 5.667 1.775.285-1.885-.354-3.694-1.33-5.207ZM632.464 998.714c5.518-.665 10.612-.074 14.136 3.374 6.288 5.024 15.472 3.997 20.496-2.291 5.024-6.288 3.998-15.472-2.29-20.496-8.747-5.603-18.862-7.686-29.977-5.447-16.929 3.41-36.007 15.017-47.176 22.057-5.798 3.202-13.656 7.959-17.173 14.272-2.161 3.879-3.071 8.287-1.941 13.495 2.364 12.747 10.308 16.239 18.868 16.643 13.616.643 33.669-14.859 38.909-21.552 4.913-6.093 6.64-13.476 6.243-19.126a14.109 14.109 0 0 0-.095-.929Zm-29.611 9.593c-2.558 1.13-4.911 2.206-6.986 3.128-2.744 1.363-6.462 2.847-9.113 5.22-.854.764-1.698 1.626-1.367 2.875.258.847 1.284 1.445 1.443 1.934a.681.681 0 0 0 .036-.221c-.032-.383.731-.273 1.132-.395 1.337-.407 2.613-1.264 3.969-2.113 4.367-2.734 8.377-7.046 10.886-10.428Zm6.455 2.969c.159.082.336.143.533.18l-.533-.18Z"/><path d="M294.131 380.509c7.207 5.161 12.548 20.655 16.13 28.176 10.918 22.925 19.08 46.825 26.755 71.036 2.995 9.449 14.57 21.688 11.189 32.101-3.914 12.053-18.957 10.593-28.076 6.489-.795-.358-11.934-6.049-12.333-4.952-4.032 11.089 2.465 33.08 2.465 45.085 0 6.183 2.239 14.251-3.984 17.755-33.822 19.037-76.397-3.327-112.701 1.877-12.752 1.828-26.387.312-38.895 2.564-28.229 5.083-56.733 28.185-82.343 2.388-4.618-4.651-10.261-9.172-14.422-14.17-2.922-3.509-3.391-8.643-4.935-12.808-14.297-38.568 12.634-57.241 22.578-91.185 3.859-13.171 1.523-34.772 12.333-44.569 2.279-2.065-8.068-10.075-9.106-11.441-5.449-7.175-6.976-16.102-5.503-25.101 2.86-17.477 10.068-19.504 22.39-28.686 3.134-2.336 8.316-10.354 11.951-11.441 15.539-4.646 37.549-.093 52.748 3.245 26.148 5.742 52.785 9.734 79.497 9.734 15.252 0 34.471-.318 48.764 6.143 5.976 2.701 18.386 11.397 7.018 14.175"/><path d="M75.93 419.854c-1.769 2.973-3.124 6.292-4.125 9.866-2.937 10.483-2.542 23.483-5.094 32.553-7.05 24.861-22.845 41.868-25.842 63.917-1.324 9.74-.518 20.384 4.159 32.808 1.116 2.993 1.716 6.465 2.987 9.522.867 2.086 1.968 4.029 3.405 5.747l14.926 14.709c12.331 12.491 25.269 15.504 38.509 14.343 16.736-1.467 34.145-10.981 51.39-13.99 2.256-.389 4.553-.63 6.874-.796 10.467-.747 21.385-.022 31.751-1.428 24.879-3.288 52.573 6.724 78.416 6.916 13.296.099 26.123-2.171 38.116-8.717 4.418-2.411 6.945-5.895 8.433-9.892 1.853-4.977 1.055-11.541 1.126-16.968.113-7.326-2.054-18.335-2.913-28.408 7.417 2.84 16.823 4.034 24.514 1.914 7.734-2.133 14.049-7.243 17.176-16.383 1.948-5.694 1.543-11.749-.4-17.884-2.397-7.569-8.314-15.352-10.244-21.79-4.427-14.861-9.052-29.598-14.339-44.101-3.587-9.839-7.499-19.554-11.853-29.128-2.462-5.414-5.79-14.612-9.944-21.812 1.605-3.152 2.158-6.479 1.613-9.97-.481-3.081-1.788-6.604-4.513-9.859-3.701-4.423-10.859-9.14-15.594-11.174-7.029-3.02-14.959-4.847-23.181-5.747-10.652-1.166-21.777-.93-31.414-.762-12.817.218-25.629-.502-38.388-1.933-12.928-1.451-25.796-3.585-38.555-6.161-9.599-1.944-21.754-4.283-33.47-4.789-8.914-.384-17.593.237-25 2.571-2.079.655-4.537 1.96-6.899 4.099-2.939 2.662-6.131 7.566-8.347 9.269-8.867 6.813-15.204 10.574-19.608 17.287-2.903 4.424-5.2 10.012-6.458 18.412-.864 5.73-.797 11.424.372 16.82 1.242 5.731 3.614 11.156 7.353 15.953.403.518 2.891 2.92 5.061 4.986Zm204.805-45.107c-3.992-1.611-8.404-2.632-12.948-3.297-9.435-1.38-19.342-1.429-27.918-1.579-13.927-.237-27.815-1.479-41.619-3.504-13.578-1.993-27.07-4.696-40.431-7.869-8.504-2.015-19.262-4.547-29.699-5.324-5.699-.424-11.29-.413-16.189.758-1.532 1.68-7.491 8.145-9.795 9.809-5.756 4.158-10.376 6.5-13.79 10.05-2.435 2.53-3.903 5.878-4.925 11.622-.567 3.212-.678 6.416-.096 9.469.516 2.71 1.505 5.313 3.153 7.634.887.81 4.549 4.184 6.494 6.356 2.219 2.476 3.772 5.002 4.378 6.865 1.641 5.046.251 8.991-2.91 11.784-3.04 2.686-4.28 6.891-5.239 11.353-2.085 9.699-2.379 20.647-4.794 28.583-6.288 20.755-18.886 35.737-24.525 53.113-3.059 9.426-3.636 19.678 1.053 32.531l3.477 10.349 13.917 13.63c8.032 8.045 16.396 10.049 24.964 9.226 16.28-1.563 33.068-11.244 49.823-14.355 2.822-.529 5.698-.883 8.606-1.134 10.07-.869 20.598-.265 30.559-1.77 25.541-3.948 54.303 5.414 80.914 4.973 9.357-.155 18.409-1.727 26.786-6.279-.102-1.705-.387-6.705-.421-9.297-.123-7.954-3.289-20.325-4.117-30.889-.543-6.925-.041-13.25 1.635-18.094.961-2.778 5.621-9.602 15.123-7.056 3.463.927 11.96 4.996 12.696 5.314 2.349 1.013 5.306 1.708 8.156 1.734 1.433.013 3.139.183 3.619-1.377.484-1.576-.769-3.059-1.54-4.724-3.217-6.941-8.221-13.9-10.194-19.802-3.984-11.848-8.089-23.609-12.589-35.212-4.423-11.406-9.253-22.637-14.73-33.632-1.835-3.684-4.136-9.326-6.882-14.673-1.577-3.071-3.025-6.239-5.096-7.667-5.675-4.063-7.563-11.459-4.906-17.619Zm11.045-11.878.409-.111a4.587 4.587 0 0 0-.409.111Z"/><path d="M879.08 184.304c-11.718-2.628-27.273 15.091-36.999 20.665-31.557 18.083-65 32.567-96.765 50.542-9.566 5.412-18.925 11.221-27.888 17.59-2.385 1.695-8.441 6.272-11.764 4.782-8.559-3.838-12.579-23.313-10.057-31.25.96-3.021 2.726-5.687 4.365-8.367.926-1.513 3.515-6.165 2.658-4.611-7.02 12.724-28.254 19.936-39.276 28.691-40.916 32.502-79.246 67.129-134.709 71.207-8.548.628-29.86 6.273-34.154-3.415-4.668-10.529 8.901-22.433 15.935-28.005.369-.292 7.453-6.276 7.781-5.979 2.092 1.896-18.03 15.929-19.351 16.734-25.395 15.47-53.493 26.84-80.066 40.127-36.209 18.104-79.479 27.324-120.106 27.324-4.268 0-12.558-3.436-12.896-8.367-.157-2.28-.893-7.678.375-9.734.685-1.109 6.542-7.471 4.178-3.925-21.231 31.847-75.629 31.013-108.529 22.707-7.178-1.812-15.844-1.513-22.197-5.803-8.095-5.466-9.638-11.989-13.283-20.495-.547-1.275-.497-8.515-1.708-8.877-5.382-1.609-13.117 2.878-18.024 4.271-12.535 3.56-24.721 8.433-37.376 4.606-17.671-5.344-37.691-1.626-56.162-7.17-6.797-2.039-17.351-7.436-18.213-16.053-4.235-42.351 43.024-69.604 77.027-82.818 12.065-4.688 23.629-9.595 36.431-11.782 4.084-.698 7.97-1.317 11.952-2.388 2.207-.593 8.928-1.707 6.642-1.707-13.276 0-26.403 9.771-40.603 6.829-18.071-3.743-1.408-30.574 5.123-35.521 9.136-6.92 20.304-10.742 30.357-16.047 20.684-10.915 38.442-23.413 61.854-28.175 14.751-3 29.022-1.81 43.83-3.245 2.357-.228 12.028.282 13.847-1.367.674-.611-16.268-17.277-16.699-21.516-1.617-15.922 17.996-35.096 29.601-43.888 21.028-15.929 48.034-18.049 73.425-20.829 8.227-.901 22.214-4.424 30.551-1.707 12.057 3.928 21.463 13.679 32.635 19.121.87.424 8.899 5.212 9.481 4.952 1.143-.509 3.171-7.368 3.797-8.537 4.369-8.159 9.468-16.764 15.179-24.073 9.204-11.783 31.795-21.81 46.675-24.591 35.2-6.577 60.21 6.197 91.642 18.952 4.106 1.666 9.723 2.439 13.09 5.468 2.586 2.326 9.3 17.674 15.179 14.17 10.889-6.488 20.04-24.038 29.408-33.127 17.947-17.414 53.414-27.917 78.546-24.42 12.889 1.793 42.215 7.101 51.798 15.202 12.431 10.51 27.533 31.395 42.122 37.903 4.581 2.045 21.885-11.456 26.561-13.489 17.025-7.4 44.165-2.721 56.163 11.958 24.182 29.585 11.234 65.399-5.879 94.77-8.541 14.659-11.769 27.913-27.512 23.734"/><path d="M604.799 59.027c-1.072-1.493-2.182-3.066-2.816-4.029-1.465-2.226-2.84-3.866-3.791-4.712-1.901-1.689-4.138-3.068-6.613-4.143-3.157-1.372-6.845-2.127-9.794-3.303-19.821-7.909-37.223-15.748-55.96-19.199-12.955-2.386-26.522-2.787-41.816.163-9.688 1.868-22.337 6.481-33.156 12.672-8.122 4.649-15.209 10.201-19.683 15.99-3.058 3.954-5.957 8.249-8.667 12.664-2.518 4.103-4.879 8.304-7.06 12.411l-.22-.117c-7.576-3.644-14.294-9.38-21.664-13.75-3.914-2.321-7.977-4.325-12.316-5.715-3.578-1.146-7.895-1.585-12.503-1.423-7.651.268-16.312 2.185-22.161 2.855-15.754 1.803-32.099 3.419-47.349 7.95-10.937 3.25-21.332 7.95-30.662 15.084-7.437 5.676-17.86 15.306-24.84 25.796-5.773 8.678-9.108 18.005-8.218 26.465.194 1.838 1.401 5.143 4.038 8.748 1.02 1.393 2.282 2.954 3.641 4.554-9.148.699-18.12.576-27.157 1.298-4.695.375-9.405.959-14.161 1.944-10.01 2.074-19.06 5.439-27.721 9.507-12.32 5.785-23.827 13.02-36.398 19.697-7.053 3.742-14.653 6.759-21.72 10.618-3.403 1.858-6.691 3.896-9.775 6.243-5.701 4.336-17.281 21.955-16.567 33.982.18 3.029.865 5.853 2.222 8.307l-3.101 1.209c-21.292 8.247-47.417 21.852-64.304 40.762-12.581 14.089-20.166 31.048-18.213 50.8.543 5.531 3.363 10.354 7.501 14.228 4.867 4.557 11.651 7.71 16.777 9.265 4.078 1.236 8.224 2.073 12.406 2.659 14.722 2.065 29.956.464 43.692 4.661 6.342 1.938 12.59 2.159 18.817 1.392 7.834-.966 15.636-3.626 23.553-5.85l8.495-2.778c.186 1.109.37 2.007.512 2.341 2.445 5.753 4.128 10.643 7.013 14.999 2.267 3.423 5.183 6.561 9.471 9.474 2.712 1.845 5.711 3.127 8.875 4.048 5.249 1.527 11.072 1.816 16.159 3.123 20.713 5.321 49.466 7.782 74.188 1.966 9.428-2.219 18.263-5.645 25.987-10.466 1.145 1.4 2.542 2.684 4.159 3.81 4.543 3.163 10.792 4.902 14.785 4.919 20.998.106 42.687-2.175 63.823-6.783 21.305-4.644 42.038-11.677 60.951-21.012 18.658-9.207 38.052-17.483 56.76-26.865 1.16-.582 2.317-1.168 3.472-1.76l.412 1.017c2.927 6.713 9.217 10.827 17.744 12.056 8.984 1.295 21.422-1.272 27.648-1.691 23.687-1.595 44.507-8.372 63.767-18.145 27.917-14.166 52.451-34.843 77.892-54.798.533-.418 1.09-.832 1.67-1.239-.153-3.948 2.703-12.403 10.226-27.535-1.456 5.153-1.459 13.294.221 21.203-3.799 2.104-7.415 4.175-10.447 6.332.185 4.965 5.12 2.819 11.508-2.126l-.312-1.065-.5-1.979-.249-1.162c5.55-3.087 11.489-6.25 16.546-9.877-5.047 5.057-10.677 10.363-15.485 14.083.27.95.575 1.884.906 2.799 3.169 8.77 8.864 15.515 15.025 18.329 3.008 1.374 6.553 1.825 10.398 1.139 5.07-.905 11.596-5.12 14.467-7.13a276.78 276.78 0 0 1 13.15-8.637 345.37 345.37 0 0 1 13.698-8.021c25.386-14.134 51.829-26.025 77.531-39.321 6.616-3.423 13.182-6.938 19.675-10.599 4.761-2.685 10.864-7.911 17.236-12.719 3.501-2.642 10.639-2.665 10.365-5.938 7.544 1.214 14.834-3.651 16.528-11.207.77-3.431.259-6.852-1.215-9.764 1.495-2.831 3.06-5.853 4.83-8.943 11.377-19.861 20.713-42.423 20.678-64.332-.026-15.991-4.667-31.745-16.655-46.199-7.898-9.533-20.507-16.166-34.126-18.78-13.153-2.525-27.053-1.393-37.758 3.346-2.389 1.057-7.726 4.626-13.285 8.192-1.828 1.172-4.451 2.625-6.29 3.613-2.37-1.504-4.736-3.432-7.114-5.545-10.117-8.988-20.038-21.029-28.653-28.215-4.105-3.424-10.842-6.723-18.813-9.304-13.279-4.298-30.254-7.175-39.41-8.386-14.065-1.861-30.996.028-46.911 4.988-16.184 5.045-31.272 13.193-41.411 23.162-6.568 6.454-13.071 16.93-20.064 25.112-.769.9-1.536 1.772-2.314 2.587Zm257.446 112.328c.607-.735 1.64-2.041 2.229-3.012 2.445-4.031 4.785-8.902 7.769-13.937 7.717-13.023 14.731-27.396 16.974-41.919 1.961-12.698.094-25.501-9.239-37.09-4.148-5.144-11.11-8.263-18.36-9.755-7.654-1.576-15.798-1.407-22.081 1.274-4.229 1.805-18.29 11.993-25.453 13.875-4.843 1.273-8.83.644-11.615-.621-5.707-2.592-11.559-6.839-17.25-12.033-9.81-8.951-19.349-20.932-27.708-28.095-3.028-2.595-8.839-4.492-15.114-6.323-10.858-3.168-23.177-5.358-30.257-6.391-10.95-1.598-24.153-.079-36.616 3.624-12.467 3.704-24.275 9.521-32.155 17.065-6.228 5.967-12.326 15.796-18.968 23.38-4.056 4.631-8.316 8.563-12.724 11.155-5.202 3.059-10.582 2.925-15.852-.275-4.432-2.692-11.476-13.178-12.944-15.41l-9.473-3.383c-18.298-7.549-34.281-15.206-51.622-18.608-10.475-2.055-21.466-2.506-33.888-.259-6.585 1.191-14.862 3.978-22.548 7.744-7.262 3.558-14.093 7.874-17.962 12.774-2.651 3.358-5.161 7.016-7.517 10.772-2.381 3.793-4.61 7.684-6.671 11.48-.283.764-2.528 6.764-3.645 8.58-1.671 2.716-3.75 4.061-5.135 4.671-.957.421-4.634 1.796-9.307-.356-2.381-1.096-7.967-4.429-8.693-4.787-8.052-3.972-15.238-10.061-23.063-14.806-2.618-1.587-5.316-3.009-8.226-3.973-2.321-.769-5.298-.655-8.38-.42-6.452.491-13.253 1.901-18.058 2.403-14.674 1.534-29.917 2.765-44.146 6.848-8.781 2.52-17.172 6.132-24.693 11.777-5.264 3.958-12.347 10.223-17.965 17.32-4.357 5.504-8.215 11.366-8.233 16.99 1.561 1.88 10.109 12.168 12.982 15.554 1.423 1.677 2.31 3.004 2.645 3.654 3.004 5.818-.227 9.636-1.899 11.14-1.32 1.188-3.843 2.584-7.329 3.109-3.767.568-9.882.337-11.725.508-10.467.976-20.662.658-30.948 1.405-3.973.288-7.961.741-11.988 1.545-8.614 1.72-16.402 4.581-23.865 8.029-12.097 5.588-23.382 12.647-35.724 19.118-7.01 3.68-14.563 6.631-21.587 10.427-2.653 1.433-5.226 2.992-7.634 4.807-2.064 1.556-5.253 6.091-7.557 10.927-1.147 2.409-2.09 4.908-2.34 7.218-.111 1.024.073 1.994 1.331 2.256 2.075.431 4.119.464 6.139.261 4.15-1.228 8.374-2.258 12.731-2.999l.151-.03c6.679-2.022 13.265-4.209 19.862-4.203 4.234.004 5.955 2.047 6.423 2.514 3.258 3.255 3.772 6.87.936 10.878-.439.62-1.683 2.359-4.57 3.283-1.136.364-5.504 1.159-7.24 1.624l-12.724 2.547-.283.052c-3.024.997-6.072 1.945-9.166 2.541a43.175 43.175 0 0 1-3.023.481l-1.231.389c-7.098 2.291-14 5.139-21.081 7.9-19.051 7.427-42.593 19.385-57.677 36.353-9.345 10.513-15.348 23.016-13.861 37.722.195 1.908 1.825 3.195 3.415 4.385 2.758 2.065 6.119 3.452 8.732 4.228 14.254 4.233 29.456 2.637 43.701 4.449 4.262.542 8.447 1.349 12.526 2.57 3.875 1.16 7.693 1.178 11.488.688 6.965-.899 13.862-3.423 20.893-5.441 3.538-1.016 8.493-3.511 13.071-4.466 3.543-.74 6.959-.713 9.969.177 2.091.619 4.957 2.282 6.409 6.306.608 1.683 1.214 6.958 1.383 8.524 1.772 4.22 2.964 7.915 5.142 11.163 1.09 1.625 2.515 3.084 4.567 4.461 1.614 1.082 3.502 1.593 5.43 2.012 4.634 1.007 9.549 1.337 13.928 2.423 18.262 4.53 43.573 6.642 65.281 1.344 10.506-2.564 20.181-6.866 27.392-13.832.333-.941.735-1.775 1.179-2.488.706-1.134 4.99-5.973 6.541-7.217 3.02-2.422 5.837-2.393 6.876-2.338 3.012.157 5.217 1.433 6.839 3.302 1.334 1.538 3.011 4.059 2.241 8.172-.11.589-.405 2.199-2.026 4.607a56.686 56.686 0 0 1-3.083 4.163l.006.1.08 1.354c.926.48 2.538 1.246 3.3 1.243 19.569-.099 39.759-2.429 59.411-6.923 19.607-4.483 38.672-11.142 56.026-19.932 18.514-9.377 37.782-17.813 56.336-27.383 7.228-3.728 14.341-7.639 21.253-11.853 3.937-4.509 8.414-8.408 11.793-11.051.322-.252 5.396-4.454 7.533-5.913 7.204-4.919 13.662-.42 14.618.458 2.903 2.663 6.824 9.958-.046 17.733-3.359 3.802-12.552 10.598-17.642 14.198-.922 1.143-1.751 2.339-2.385 3.573-.093.182-.205.36-.315.536 2.058.111 5.559.231 7.85-.013 5.679-.603 11.209-1.689 14.679-1.965 20.309-1.619 38.081-7.723 54.504-16.312 26.365-13.788 49.312-33.897 73.256-53.158 7.617-6.128 20.081-11.583 29.443-18.558 2.389-1.78 4.556-3.621 5.953-5.809l.539-.937c.163-.284.267-.461.293-.504 23.738-38.851 35.709-13.936 22.548 12.306l-.447.837-.037.063c-.227.409-2.191 3.933-2.875 5.069l-3.013 5.563c-.623 2.006.018 5.298.801 8.523.225.924.642 2.025 1.108 3.086a302.803 302.803 0 0 1 14.145-9.572c4.81-3.069 9.7-6.01 14.643-8.853 25.425-14.62 51.938-27.01 77.693-40.791 6.267-3.353 12.486-6.794 18.632-10.372 2.264-1.319 4.842-3.293 7.612-5.52a14.424 14.424 0 0 1 .384-5.47c2.065-7.779 10.057-12.418 17.836-10.353.479.13 1.095.01 1.432.119Z"/><path d="M201.262 680.561c-.53 1.37-.947 2.712-1.145 3.888-1.13 6.718 1.365 11.792 4.873 14.936 2.197 1.97 4.859 3.517 7.893 4.597-2.491 2.499-5.601 5.82-7.942 8.967-3.476 4.672-5.318 9.477-5.597 12.807-.554 6.615 1.984 11.682 7.58 15.019 3.948 2.353 8.649 3.784 13.852 4.327a286.042 286.042 0 0 0-7.051 8.409c-.897 1.114-5.995 6.779-9.815 12.854-3.074 4.889-5.235 10.108-5.739 14.376-.925 7.827 1.789 14.119 8.677 18.146 4.306 2.518 9.124 4.109 14.289 4.867l-.119.276c-1.444 3.742-1.305 7.023-.587 9.559 1.054 3.725 3.312 6.824 7.422 8.771.846.4 1.726.751 2.639 1.049-3.258 4.863-6.653 10.837-7.302 15.337-1.091 7.565 1.586 13.417 7.998 16.958 4.556 2.516 9.651 3.737 15.06 3.808-.995 2.808-1.435 5.398-1.399 7.221.133 6.617 3.621 10.437 8.525 12.184 8.256 2.941 19.318.11 30.143-7.92 3.709-2.751 7.478-6.079 11.127-9.616a332.543 332.543 0 0 0-4.528 12.878c-3.495 10.689-6.389 21.653-8.206 33.144-.415 2.623-3.133 18.141-2.13 26.676 1.082 9.206 6.629 13.782 11.678 14.743.435.082.868.147 1.298.191l-3.674 11.6c-1.12 3.499-4.194 10.44-4.442 13.81-.274 3.737.883 6.539 2.269 8.427a13.97 13.97 0 0 0 2.075 2.29c-.413.564-.81 1.129-1.193 1.693-7.511 11.07-9.443 22.424-5.843 31.117 1.635 3.949 4.614 7.148 9.05 8.824.56 3.185 1.662 5.756 3.03 7.53 1.296 1.682 2.75 2.92 4.338 3.741-.976 4.644-1.677 9.94-.985 13.736.991 5.43 3.929 9.157 8.127 11.037 5.213 2.334 10.641 2.571 16.03 1.03-.936 4.28-1.777 9.51-1.684 14.018.117 5.712 1.828 10.517 4.546 13.517 8.39 9.262 19.473 8.929 30.93 1.644 6.155-3.914 12.494-10.142 18.09-16.466-2.794 7.039-5.181 13.842-6.127 19.989-.372 2.413-1.595 15.656.303 20.074 1.944 4.526 5.37 6.435 9.065 6.705l.624.033c-1.705 3.873-3.799 9.039-4.402 12.957-.681 4.428.242 8.075 1.839 10.466 2.253 3.371 5.062 4.766 7.847 5.222 2.528.414 5.357.012 8.227-1.68 2.135-1.258 4.604-4.01 6.979-7.036l-.05.194c-.563 2.289-1.78 8.569-1.822 13.516-.037 4.244 1 7.809 2.354 9.835 3.993 5.977 9.704 7.342 16.092 5.446 6.682-1.983 14.737-9.732 16.84-11.842 11.559-11.601 21.648-24.466 32.603-36.582 3.395-3.754 6.876-7.434 10.525-10.968-3.563 5.755-6.86 10.748-7.881 12.894-1.884 3.962-6.343 13.756-6.443 16.221-.172 4.263 1.989 6.633 3.851 7.921 1.699 1.175 5.909 3.572 11.316-.756a75.842 75.842 0 0 0 5.077-4.466l-.153.511c-.545 1.933-3.591 12.019-3.141 17.679.461 5.804 3.595 9.251 7.436 10.562 5.713 1.949 12.846.648 20.123-3.377-.889 2.763-2.754 9.09-2.85 13.12-.129 5.361 2.469 8.789 5.014 10.286 4.877 2.869 10.87 2.679 16.943-.316 7.781-3.836 16.025-12.854 18.774-15.726a159.445 159.445 0 0 0 10.478-12.147l-.744 3.076c-.781 3.344-2.393 12.211-1.338 18.463 1.015 6.014 4.274 10.164 8.889 11.79 4.721 1.664 9.724.783 14.418-2.198 6.002-3.811 11.589-11.847 13.831-14.67 6.578-8.283 12.848-16.808 18.966-25.447 8.929-12.611 17.531-25.468 26.3-38.159l-8.421 27.97c-.855 3.409-4.266 23.625-.829 33.323 1.432 4.042 3.853 6.881 6.794 8.499 3.591 1.976 8.618 2.726 15.266-.955 10.619-5.879 19.87-16.067 27.803-27.969-.27 3.093-.304 6.704.387 9.586 1.212 5.053 4.244 8.525 8.482 9.965 8.431 2.866 17.359.084 25.539-6.693 12.313-10.201 23.241-29.989 27.584-37.531l6.403-11.49a22.863 22.863 0 0 0 .065 2.825c.937 9.953 7.124 12.647 13.247 11.357 8.359-1.761 16.917-7.167 24.991-14.667 14.583-13.546 27.958-34.085 36.918-45.01l12.451-15.984c-1.995 10.708-5.903 22.242-6.514 29.644-.084 1.02-.642 13.489.803 16.916 1.484 3.522 4.036 5.139 6.309 5.846 2.336.727 5.074.787 8.082-1.045 9.631-5.864 17.563-16.039 23.997-28.406 12.034-23.132 19.02-54.264 26.168-72.367 2.197-5.558 3.437-8.781 4.736-11.669.2-.445.402-.881.61-1.316 2.329-3.334 4.735-6.627 6.96-10.026 2.068-3.159 3.987-6.405 5.608-9.824 2.345-4.946.672-8.032.36-8.722-.537-1.189-3.372-4.422-7.068-5.385a772.933 772.933 0 0 0 4.969-17.691c.704-2.612 6.347-16.907 7.587-25.83.903-6.5-.768-11.467-2.869-13.94-2.307-2.718-5.193-4.438-8.533-5.039.135-.434.262-.868.382-1.299 2.771-9.957 1.326-18.706-4.08-24.191-6.305-6.399-16.903-7.638-28.948-3.715-6.308 2.054-13.14 5.442-19.5 9.074a15.215 15.215 0 0 0-1.749-2.668c-5.273-6.459-14.892-8.577-26.312-5.721-4.46 1.116-9.276 2.952-13.968 5.05-.817-3.733-2.649-6.978-5.398-9.512-3.794-3.497-10.153-6.261-20.379-5.423l-.965.152c.757-3.391.793-6.514.158-9.095-1.736-7.05-8.085-14.872-25.97-12.511-10.393 1.373-20.555 4.634-30.424 8.909a189.347 189.347 0 0 0-9.509 4.454c-2.327-2.269-5.539-3.94-9.909-4.686-15.831-2.7-32.494 1.633-48.532 9.499a159.4 159.4 0 0 0-9.049 4.824 18.806 18.806 0 0 0-2.442-4.452c-3.214-4.36-8.596-7.186-15.324-7.785-7.924-.706-18.264 1.961-22.698 3.559-11.195 4.037-22.114 9.227-32.807 14.983l-2.154 1.172c-11.712-2.176-24.674.243-37.721 5.675-6.517 2.713-13.083 6.201-19.5 10.058-1.101-4.875-4.112-7.856-7.602-9.543-5.313-2.569-11.508-3.28-18.004-2.412-9.928 1.325-20.842 6.764-27.589 10.206-12.293 6.273-23.722 13.771-34.406 22.243a240.898 240.898 0 0 0-17.446 15.291c-2.824.72-5.661 1.791-8.461 3.162-8.987 4.401-17.731 12.194-23.648 17.491-4.284 3.835-8.417 7.828-12.456 11.918a18.052 18.052 0 0 0-2.205-3.32c-.487-3.18-2.315-5.151-3.87-6.341-1.715-1.312-5.993-4.26-11.628-.61-3.654-.135-7.792.529-11.611 1.525 7.547-16.672 15.556-33.102 22.001-50.428 2.192-5.893-.325-9.186-.699-9.802-1.066-1.76-11.249-10.155-18.051-.069-.7 1.039-2.4 4.113-3.841 6.713 3.342-8.86 6.772-17.684 10.285-26.472 1.306-3.266 4.55-6.973 6.622-10.522 1.985-3.399 3.255-6.774 3.626-9.776.653-5.288-.779-10.037-5.164-14.035-4.383-3.996-8.558-3.683-11.903-2.513-2.25.787-4.708 2.403-6.489 5.515-.927 1.619-2.409 7.459-2.623 8.316l-9.508 22.094c-3.583 8.333-7.257 16.595-11.102 24.773a229.907 229.907 0 0 1 3.326-10.865c7.921-23.86 18.979-46.265 27.099-70.445 1.466-4.365.381-7.103-.044-8.248-1.797-4.84-5.263-7.003-9.605-7.507-1.759-.204-5.331-.327-9.049 2.806-.729.615-2.493 2.836-4.062 4.77l-.423-.244c-2.902-1.559-7.299-2.384-12.387-.678-4.908 1.645-12.076 6.815-13.236 7.624-7.295 5.084-14.201 10.714-20.5 16.943l-.966.979c-3.762 2.112-7.705 4.065-11.641 5.551-1.613.609-3.216 1.2-4.779 1.65 1.583-2.041 2.937-3.565 3.295-3.988 5.346-6.329 11.306-11.918 17.652-17.039 10.595-5.977 20.238-12.774 25.159-15.587l11.801-6.972c2.514-1.478 8.511-3.498 10.988-5.029 2.771-1.713 4.373-3.719 5.219-5.178 2.379-4.104 2.277-8.027.721-11.607-.85-1.956-2.432-4.776-6.351-6.608 1.813-3.778 1.324-6.831.827-8.743-1.328-5.103-4.609-9.629-12.454-9.629-7.887.02-16.799 2.735-25.755 7.317-10.997 5.625-22.279 14.077-31.561 21.42-3.977 1.472-8.047 2.761-12.078 3.707-3.911.918-7.777 1.638-11.343 1.593 2.539-3.54 5.428-7.549 5.91-8.143 8.512-10.464 22.482-25.834 37.822-38.085 5.374-2.412 9.999-4.618 13.295-6.051l20.534-9.732c2.319-1.131 8.038-3.881 9.233-4.869 3.86-3.188 4.7-6.802 4.961-8.895.499-3.998-.548-7.523-3.183-10.559-1.205-1.389-4.297-5.184-11.556-4.701-14.008.933-29.857 8.709-44.745 19.887l-1.178.896c-5.457 2.413-11.556 4.91-17.666 6.845 5.964-5.19 12.292-10.334 18.858-15.134 8.561-6.259 17.529-11.933 26.629-16.292a15.842 15.842 0 0 0 1.271-.673c10.352-6.072 6.398-15.947 5.885-17.231-1.258-3.149-4.411-9.039-13.411-8.759-.351.011-2.168-.014-4.826 1.019-.832.323-3.73 1.564-4.891 2.096l-12.386 5.644c-3.842 1.667-11.239 5.33-19.218 8.27a92.25 92.25 0 0 1 2.142-2.378c1.449-1.552 2.92-3.084 4.408-4.463l1.197-.707c2.439-1.437 8.538-4.862 10.071-5.975 3.423-2.483 4.618-5.164 5.054-6.177 1.833-4.262 1.34-7.883.272-10.713-1.09-2.889-2.974-5.505-6.205-7.351.391-.338.765-.69 1.113-1.062a20.748 20.748 0 0 0 2.382-3.063c5.851-9.247.985-15.411-1.148-17.854-2.406-2.757-6.574-5.955-13.429-4.881a17.024 17.024 0 0 0-4.492 1.383c-1.653.764-4.857 2.806-6.345 3.652l-11.797 7.708c-4.653 3.508-22.471 17.039-28.917 27.992-4.695 7.979-4.939 15.657-2.139 21.65 1.849 3.957 5.007 7.226 9.406 8.996Zm554.579 183.826c-7.93 1.248-15.664 3.896-23.205 7.201-5.026 2.202-9.965 4.697-14.814 7.32-1.247 4.055-3.034 7.795-4.827 10.341-5.945 8.445-16.13 17.949-27.366 23.409-8.829 4.291-18.273 6.095-27.063 4.172-4.19-.917-6.546-3.135-8.011-5.371-2.072-3.16-3.088-7.646-.524-12.837 2.004-4.057 9.181-10.645 13.144-13.243l16.15-9.703c-4.46 1.416-8.917 3.328-13.326 5.514-10.755 5.331-21.191 12.388-30.763 19.304-4.897 6.242-10.371 12.1-16.219 17.567-6.825 6.381-14.153 12.236-21.639 17.564-3.456 2.459-9.731 7.516-15.696 9.963-4.827 1.979-9.629 2.504-13.801 1.495-7.305-1.766-9.309-6.486-9.78-10.772-.265-2.413.086-5.575 2.273-8.834 1.871-2.787 7.855-7.365 10.714-9.584l29.425-20.493c5.034-3.466 10.599-7.577 16.559-11.892.645-.837 1.277-1.684 1.896-2.539.881-1.218 2.203-3.036 3.411-5.116-3.027.44-6.47 1.015-7.8 1.502-10.083 3.691-19.9 8.448-29.523 13.689-1.15.626-2.297 1.26-3.442 1.902-1.318 2.375-3.335 5.173-5.883 7.957-6.059 6.62-15.083 14.136-15.369 14.359-6.988 5.451-14.272 10.384-21.795 14.935-7.388 4.471-15.003 8.578-22.782 12.459-1.524.76-12.613 6.914-20.065 8.254-5.365.965-9.886-.031-12.954-1.875-2.541-1.528-4.175-3.304-5.195-5.168-6.241 6.335-13.039 12.611-19.819 17.502-9.854 7.109-19.949 11.31-28.762 11.288-1.691-.004-3.16-.207-4.436-.554-4.626 4.745-9.36 8.536-12.566 10.253-3.441 1.844-12.624 4.132-18.782 2.905-5.387-1.073-9.382-3.752-11.707-7.751l-.014.015c-3.308 3.45-6.564 6.954-9.805 10.473.696 1.154 1.221 2.618 1.358 4.477.096 1.293-1.095 6.676-1.851 8.783-1.081 3.015-2.16 5.511-3.425 7.991-1.16 2.274-2.483 4.536-4.15 7.199-2.78 4.446-7.932 13.285-14.314 21.936-2.964 7.639-5.484 15.275-7.609 22.383-.86 2.876-2.1 13.901-2.357 16.248 1.062.462 2.319-.308 3.631-.957 3.684-1.823 7.454-5.031 11.095-8.622 9.675-9.541 18.166-21.905 20.894-25.473l9.076-12.425c.898-1.176 2.437-3.982 3.411-5.082 1.595-1.802 3.294-2.659 4.479-3.066 3.21-1.1 6.014-.549 8.427 1.022 1.547 1.006 3.803 2.843 4.399 7.007 1.061 7.411-.304 15.749-3.071 24.402-4.474 13.99-12.932 29.045-15.514 41.617a66.32 66.32 0 0 0 1.478-2.058c7.299-10.561 13.255-24.517 16.833-30.195l9.166-13.569c1.003-1.387 3.266-4.959 3.981-5.869 6.591-8.39 14.887-.285 15.714 1.386.276.558 2.175 3.465.016 8.278a192.855 192.855 0 0 1-2.955 6.279c1.291-1.379 2.578-2.442 3.762-3.148 5.54-3.305 9.237-.755 10.801.481 1.922 1.52 3.97 4.128 3.399 8.478-.216 1.648-3.815 8.014-5.164 10.696l-6.349 12.446c-5.198 11.024-10.315 22.406-14.634 34.023-2.827 7.604-5.313 15.308-7.242 23.079-.153.617-.347 2.033-.528 3.642 1.9-1.466 3.719-2.91 4.245-3.436 11.381-11.374 21.299-24.011 32.088-35.893 4.842-5.332 9.852-10.518 15.214-15.399.898-.817 15.165-13.452 21.482-16.104 6.534-2.744 10.994.077 13.02 2.961 1.188 1.692 1.956 4.334 1.917 7.623 2.109-2.856 4.232-5.615 5.91-7.025 2.549-2.141 5.093-2.856 7-2.92 3.886-.131 8.376 1.184 10.008 8.192.902 3.871.367 7.617-1.223 11.244-1.899 4.331-5.922 8.484-8.387 12.542-4.368 7.193-9.163 14.493-13.126 22.125-2.446 4.708-4.571 9.544-5.996 14.581-.169.597-.734 3.16-1.289 5.731 2.071-1.07 4.191-2.498 6.311-4.096 9.457-7.128 18.689-17.477 23.246-21.519l13.798-12.612c.806-.78 2.081-2.877 2.871-3.699 1.256-1.309 2.516-1.996 3.381-2.346 3.373-1.369 6.147-.601 8.332.953 1.392.99 3.704 2.931 3.702 7.363-.001 4.188-1.577 7.785-4.276 10.96-2.774 3.263-7.535 5.771-10.209 9.144-4.381 5.526-8.602 11.16-12.361 17.074-3.587 5.643-6.753 11.541-9.201 17.857 4.131-3.342 7.697-7.399 9.224-8.992 6.212-6.481 11.701-13.528 16.705-20.919 7.707-11.38 14.27-23.57 20.501-35.82l5.586-11.727c1.166-2.522 2.735-8.382 4.011-10.892.988-1.943 2.177-3.183 3.064-3.871 2.84-2.205 5.709-2.307 8.291-1.429 1.702.579 4.467 1.898 5.848 6.227.783 2.454.846 5.848.037 9.483-1.147 5.151-4.054 11.173-4.432 12.232-4.503 12.599-9.477 25.243-13.829 38.044-2.827 8.315-5.389 16.696-7.367 25.178-.249 1.069-.483 3.889-.659 6.568 2.607-2.782 5.84-6.279 6.816-7.51 6.38-8.045 12.46-16.325 18.393-24.715 9.013-12.746 17.689-25.744 26.544-38.568l18.436-26.195c.257-.324 6.749-7.03 9.456-9.477 7.733-6.993 15.06 3.47 15.174 4.79.38 4.411-.313 9.301-1.709 14.312-2.479 8.895-7.309 18.321-9.653 25.359l-10.036 33.488c-.453 1.819-.942 14.307-1.153 20.289 7.564-4.979 14.021-12.878 19.805-21.689 10.297-15.687 18.275-34.343 24.965-47.666.138-.276 4.68-12.885 8.587-19.563 2.715-4.64 6.155-7.126 8.248-7.775 3.985-1.237 6.772-.013 8.809 1.67 1.493 1.234 2.828 3.094 3.302 5.792.378 2.154-.597 6.933-1.063 9.33l-4.04 13.79c-3.825 12.299-9.062 24.676-13.072 37.202-1.625 5.076-3.039 10.176-4.035 15.31-.16.828-.29 3.108-.37 4.951.668-.221 1.335-.548 2.005-.914 2.587-1.414 5.077-3.629 7.485-6.174 8.981-9.492 16.412-23.489 19.71-29.251l11.475-20.707 8.09-17.118c.436-.986 3.578-11.989 7.244-17.703 2.423-3.777 5.473-5.956 8.047-6.743 4.163-1.272 7.102-.064 9.267 1.65 1.654 1.309 3.107 3.304 3.678 6.198.529 2.682-.78 8.642-.958 11.719-.152 2.63-3.356 20.385-5.435 31.687 3.94-2.852 7.806-6.629 11.604-10.71 11.813-12.694 22.372-28.844 29.834-37.991l17.243-22.241c.203-.24 4.214-4.528 7.818-7.232 2.652-1.99 5.358-3.137 7.208-3.446 5.072-.846 8.632 1.168 10.78 5.26 2.743 5.228 3.443 12.314 2.528 20.154-.768 6.57-2.701 13.819-4.374 20.414 2.101-3.808 4.027-7.925 5.846-12.185 3.504-8.208 6.522-16.979 9.254-25.54-3.123-1.023-5.525-3.137-5.725-3.443-.294-.45-2.922-4.175-.63-9.504.848-1.969 4.296-8.794 5.909-11.431l1.984-2.942c3.073-6.228 5.854-12.62 8.407-19.116 6.705-17.056 11.843-34.823 16.484-52.292.376-1.414 2.503-8.871 4.339-15.281l-.18.144a86.717 86.717 0 0 0-2.974 2.569 248.99 248.99 0 0 1-3.81 5.695l-8.703 11.693c-2.583 3.076-7.106 9.413-10.252 11.289-2.96 1.764-5.844 2.074-8.318 1.613-2.914-.543-5.906-2.051-8.02-5.966-1.269-2.351-2.097-6.011-.114-10.377 1.982-4.364 10.889-13.243 11.416-13.799 1.524-1.607 6.038-6.545 11.576-11.756 2.546-3.952 5.629-9.086 8.088-14.35 1.531-3.279 2.831-6.599 3.435-9.649.202-1.019.205-2.573.197-3.192-.827-.415-1.999.154-3.26.354-4.677.74-10.036 3.068-15.323 5.797-6.886 3.554-13.596 7.884-18.728 11.388a59.058 59.058 0 0 1-3.006 4.81c-4.277 6.163-9.708 11.505-14.646 14.336-5.259 3.016-10.405 3.575-14.603 2.312-3.107-.935-5.077-2.854-6.279-5.32-.861-1.768-2.122-5.156.221-9.491.352-.65 1.306-2.079 2.984-3.779 3.997-4.049 14.979-13.481 15.936-14.142l2.282-1.587.575-1.261.395-.924c-.466.03-.928.079-1.327.152-3.464.63-7.294 2.019-11.106 3.656-7.048 3.027-13.986 6.951-18.843 9.787-3.687 4.924-8.11 9.367-12.499 12.42-7.342 5.106-14.908 6.303-20.39 4.315-6.891-2.499-7.732-7.345-7.328-11.36.196-1.948.963-4.515 3.309-6.882 1.337-1.348 5.047-3.395 6.728-4.525l15.039-9.209.316-.181.296-.47c1.002-1.682 1.867-4.223 2.372-5.882-.895-.069-1.99-.109-2.961-.025l-6.332.936-15.889 7.1c-1.519 1.417-2.946 2.62-4.19 3.543-.186.137-13.199 8.805-18.481 10.377-8.741 2.601-13.352-2.602-14.865-6.618-.9-2.387-1.667-9.257 5.359-14.343 3.91-2.831 13.235-7.472 18.547-10.043 2.906-3.374 6.332-8.175 8.802-11.781Zm-425.275 168.27-.797.603c-4.16 2.943-8.037 3.652-10.428 3.658l-.139-.004c-.472 2.076-1.087 5.074-1.564 7.469.681-.335 1.363-.766 2.053-1.211 3.409-2.195 6.685-5.52 9.768-9.172l1.107-1.343Zm145.127-123.281-2.525 1.307c-10.686 5.518-20.606 12.112-29.881 19.54a195.477 195.477 0 0 0-4.901 4.056 18.315 18.315 0 0 1 1.821 4.78l.294-.177 20.878-13.622c5.451-5.722 10.375-11.402 14.314-15.884Z" style="fill-opacity:.85"/><path d="M128.209 592.091c4.305-3.101 14.706-1.14 19.692-1.14 14.029 0 30.216-.41 44.185-2.498 56.435-8.436 113.864-6.046 171.181-7.269 23.924-.511 60.713 6.002 83.826-2.272" style="fill:#fff;fill-opacity:.45"/><path d="M134.609 605.193c1.451 3.517 10.154-.57 13.292-.739 8.657-.441 18.068-1.049 27.324-2.09 6.371-.716 12.641-1.561 18.532-2.731 22.15-4.127 44.452-6.874 66.956-8.195a676.112 676.112 0 0 1 40.897-1.181c20.619.038 41.232 1.067 61.877 1.238 16.595.452 39.09 4.435 59.27 4.677 10.645.128 20.639-.976 29.252-3.531 7.577-2.713 11.527-11.067 8.814-18.645-2.713-7.578-11.068-11.527-18.646-8.814-5.898 2.488-12.919 3.954-20.473 4.651-19.83 1.828-42.316-.105-58.657 1.039-22.828 1.111-45.649 2.195-68.463 2.528-23.146.337-46.22.189-69.237 1.355-11.668.591-23.297 1.282-34.932 2.518-6.661.673-13.807.875-20.97.865-7.372-.01-14.709-.337-21.544-.689-4.485-.242-12.665-1.641-18.542-.9-3.847.485-7.041 2.021-9.675 3.71-6.53 4.705-8.012 13.827-3.307 20.357 4.214 5.848 11.969 7.648 18.232 4.577Z"/><path d="M466.285 562.093c2.817 0-4.041 3.945-5.809 6.137-3.03 3.756-5.101 8.654-7.324 12.954-7.536 14.572-10.603 31.387-10.603 47.722 0 48.485 22.341 92.439 58.825 125.208 69.83 62.72 163.402 82.583 253.5 56.349 36.702-10.686 68.273-25.431 88.62-59.761 16.083-27.137 16.891-63.088 13.632-93.391-7.042-65.483-40.205-132.427-105.54-158.157-48.119-18.951-104.752-11.143-154.518-4.092-44.618 6.322-71.36 27.687-105.033 54.312-4.856 3.84-30.802 17.564-30.802 23.174" style="fill:#fff;fill-opacity:.45"/><path d="M468.557 547.674a18.677 18.677 0 0 0-2.272-.164 14.546 14.546 0 0 0-10.805 4.793c-2.029-.091-5.047 5.326-6.246 6.857a45.764 45.764 0 0 0-3.645 5.408c-1.874 3.258-3.45 6.816-5.079 10.078-4.228 8.47-7.231 17.542-9.069 26.881-1.775 9.024-2.55 18.271-2.42 27.379.366 26.39 6.736 51.466 18.143 74.313 11.106 22.247 26.876 42.429 46.433 59.553 36.772 32.263 79.575 53.271 124.899 62.727 44.96 9.381 92.407 7.489 138.874-6.461 19.137-5.695 36.891-12.509 52.54-22.309 16.081-10.072 30-23.252 40.878-41.704 6.959-11.764 11.279-25.047 13.734-38.858 3.533-19.878 3.161-40.876 1.191-59.779-3.428-34.161-13.801-68.696-31.66-98.163-18.176-29.991-44.149-54.7-78.676-68.697-20.363-8.299-42.229-12.041-64.53-13.122-32.058-1.553-65.036 2.555-95.506 6.468-18.964 2.422-34.963 7.456-49.659 14.302-21.91 10.206-40.788 24.688-62.323 41.225-2.206 1.691-8.384 5.267-14.802 9.273Zm-1.813 38.375-.951 1.672c-3.281 6.13-5.648 12.737-7.193 19.554-1.611 7.107-2.421 14.414-2.524 21.631-.31 22.378 4.515 43.787 13.67 63.41 9.211 19.74 22.657 37.71 39.405 53.139 33.159 30.488 72.097 50.855 113.65 60.393 41.741 9.582 86.037 8.327 129.576-3.959 17.608-5.015 34.033-10.919 48.456-19.787 13.914-8.556 25.928-19.884 35.366-35.724 7.443-12.549 11.305-27.159 12.951-42.118 1.71-15.544 1.008-31.467-.611-46.026-3.611-31.47-13.451-63.28-30.39-90.183-16.459-26.137-39.704-47.553-70.353-59.272-18.304-6.959-37.868-9.747-57.746-10.214-30.727-.723-62.184 4.179-91.255 8.686-16.045 2.498-29.52 7.12-41.835 13.28-19.936 9.972-36.828 24.008-56.248 39.816-3.687 3.008-20.142 23.538-26.601 19.041a14.622 14.622 0 0 1-7.367 6.661Z"/><path d="M812.691 571.869c-4.58-.82 11.875-9.322 13.633-10.002 10.306-3.99 21.588-7.386 32.567-8.862 20.998-2.824 46.787-2.685 67.671.913 7.194 1.24 12.974 2.093 19.692 4.771 1.69.674 10.353 4.957 10.353 3.631" style="fill:#fff;fill-opacity:.45"/><path d="M824.578 580.316c2.513-1.48 5.629-6.456 6.262-6.786 4.65-2.359 9.402-4.725 14.424-6.629 4.915-1.863 9.888-3.437 14.888-4.519 5.122-.96 10.515-1.93 16.118-2.384 5.368-.436 10.894-.605 16.395-.338 11.189.545 22.152 2.747 32.011 5.202 3.348.939 6.31 1.778 9.256 2.763 2.509.839 4.819 2.007 7.411 3.383 1.596.863 8.499 4.682 11.329 5.634 5.414 1.821 9.341-.772 11.473-1.746 4.855-2.218 6.318-6.863 7.045-12.576 0-7.255-5.309-13.28-12.251-14.395-.844-1.727-6.786-1.288-7.775-1.555-3.405-.945-6.494-1.727-9.659-2.163-4.217-.582-8.313-.915-13.057-1.232-8.979-.827-18.651-.873-28.555-.706-5.613.094-11.261.292-16.857.409-8.794.183-17.41.21-25.406.95-6.025.327-12.089 1.331-18.185 2.458-6.025 1.114-11.902 2.535-17.637 4.117-1.404.372-9.94 3.898-15.154 6.752-2.976 1.628-4.825 3.787-6.042 5.099-4.759 5.129-3.203 10.721-2.199 14.584.97 3.732 4.301 7.361 11.709 9.586 5.732 1.026 11.288-1.455 14.456-5.908Zm117.458-18.494c-.03.153-.034.318-.012.498l.012-.498Zm-122.687-2.929a8.123 8.123 0 0 0-4.088-1.379c1.461.261 2.832.732 4.088 1.379Z"/><path d="M936.908 560.961c-16.03 0-21.014 17.358-28.273 27.953-23.959 34.967-24.726 85.259-3.787 121.108 53.321 91.29 194.66 116.366 280.758 62.721 25.996-16.197 42.73-42.883 60.089-67.031 9.137-12.708 28.393-20.371 33.333-35.682 8.015-24.846-3.537-57.086-11.869-80.211-5.591-15.52-9.053-33.914-18.434-47.722-12.952-19.064-29.361-41.609-50.244-52.492-49.86-25.986-112.362-.423-160.07 17.044-28.6 10.471-58.791 24.893-84.584 41.132-2.98 1.877-22.978 9.886-22.978 12.501" style="fill:#fff;fill-opacity:.45"/><path d="M919.052 551.634c-.897.576-1.761 1.2-2.597 1.863-8.537 6.763-13.56 18.855-19.316 27.54-13.082 19.738-19.85 43.567-20.177 67.511-.326 23.857 5.537 47.769 17.47 67.558 28.789 47.875 80.283 78.312 136.147 89.393 55.345 10.978 114.799 3.1 159.635-25.36 11.06-6.958 20.553-15.671 29.126-25.299 12.267-13.777 22.634-29.443 33.196-44.21 6.112-8.468 16.989-14.487 24.65-22.337 4.474-4.583 8.033-9.68 9.984-15.636 3.69-11.226 3.897-23.816 2.135-36.558-2.404-17.376-8.525-35.062-13.552-49.376-3.849-10.973-6.677-23.334-11.172-34.588-2.182-5.464-4.753-10.675-7.912-15.435-7.909-11.921-17.131-25.106-27.834-36.289-7.721-8.067-16.245-15.062-25.542-20.04-21.846-11.746-46.033-14.431-70.591-12.181-34.216 3.135-69.183 16.217-98.659 26.529-14.777 5.164-29.962 11.36-44.817 18.271-14.925 6.944-29.487 14.645-42.937 22.818-2.538 1.54-16.841 7.203-21.984 10.649-2.379 1.594-4.067 3.387-5.253 5.177Zm30.022 17.361c-2.609 3.946-7.086 6.55-12.166 6.55-2.828-.044-4.442 1.892-5.939 3.868-4.143 5.471-7.214 12.259-10.838 17.378-10.732 15.156-16.463 33.729-17.271 52.492-.825 19.145 3.269 38.499 12.404 54.655 24.503 43.208 69.979 71.004 119.43 81.905 50.361 11.1 104.895 4.826 146.304-20.495 9.716-5.996 18.051-13.571 25.599-21.932 11.95-13.24 21.977-28.394 32.258-42.621 6.526-9.114 17.973-15.844 26.143-24.322 2.59-2.688 4.781-5.588 5.887-9.07 2.806-8.865 2.651-18.787 1.129-28.794-2.453-16.133-8.558-32.455-13.448-45.694-3.412-9.238-6.059-19.511-9.684-29.202-2.164-5.782-4.707-11.336-8.102-16.218-7.54-10.843-16.258-22.874-26.363-32.978-6.326-6.324-13.214-11.859-20.748-15.679-18.292-9.236-38.375-10.65-58.605-8.238-32.204 3.84-64.755 17.447-92.285 27.98-13.831 5.297-28.027 11.569-41.875 18.536-13.779 6.932-27.185 14.584-39.538 22.639-1.391.908-7.137 6.132-12.292 9.24Z"/></svg>