<?xml version="1.0" encoding="UTF-8" standalone="no"?><!DOCTYPE svg PUBLIC "-//W3C//DTD SVG 1.1//EN" "http://www.w3.org/Graphics/SVG/1.1/DTD/svg11.dtd"><svg width="100%" height="100%" viewBox="0 0 263 213" version="1.1" xmlns="http://www.w3.org/2000/svg" xmlns:xlink="http://www.w3.org/1999/xlink" xml:space="preserve" xmlns:serif="http://www.serif.com/" style="fill-rule:evenodd;clip-rule:evenodd;stroke-linecap:round;stroke-linejoin:round;stroke-miterlimit:1.5"><polygon points="92,109.27 96.76,105.55 102.96,100.28 105.89,80.27 109.22,73.4 121.9,55.65 128.66,42.65 128.33,31.1 124.07,14.58 130.11,17.7 133.55,21.14 138.23,24.96 140.74,28.05 141.76,32.29 142.33,41.37 142.99,50.22 142.94,60.68 146.29,51.36 149.22,45.62 154.46,40.49 160.38,35.85 165.11,30.85 167.82,26.22 170.77,21.5 174.93,15.4 176.59,24.06 178.79,35.77 182.11,46.32 185.74,57.8 192.22,66.88 195.63,74.17 196.74,84.26 198.81,93.32 201.32,84.19 204.89,76.27 208.06,69.21 211,64.46 214.99,58.39 221.42,52.11 227.2,46.23 238.37,37.88 239.43,40.93 239.71,43.26 239.97,45.52 240.65,48.01 241.45,49.95 242.74,51.78 244.36,53.01 246.05,53.61 249.95,51.45 253.85,44.45 255.38,37.55 255.21,29.53 255.21,14.09 256.68,6.99 269.15,0.37 269.72,6.19 269.16,13.31 269.59,22.18 272.16,31.66 274.31,36.34 276.55,40.44 280.31,46.06 282.83,47.54 284.83,46.03 285.76,43.45 286.14,40.49 286.14,38.2 285.99,35.5 285.18,33.03 284.17,30.74 282.55,28.51 287.29,30.04 293.41,33.73 298.42,37.53 300.47,40.77 303.7,46.05 305.88,50.4 307.6,55.08 308.86,59.81 311.65,57.28 314.28,54.59 318.34,52.17 322.04,50.28 327.93,49.5 332.15,48.79 337.69,48.48 340.59,48.86 335.1,54.07 332.19,61.06 329.93,69.58 329.03,75 327.98,83.62 327.21,90.19 326.03,98.05 326.76,105.46 329.49,105.83 332.35,105.71 334.01,105.67 335.98,105.01 338.47,103.12 342.2,99.84 344.12,97 346.11,93.1 346.31,101.75 346.82,106.14 347.48,112.97 347.48,117.42 345.23,124.33 341.6,129 337.28,132.74 333.42,136.34 333.49,138.73 335.95,141.17 340.68,143.07 348.6,141.75 353.35,140.42 356.49,137.66 361.51,134 363.87,130.4 364.94,139.86 364.83,143.72 363.41,148.33 362.06,153.75 360.29,158.02 358.21,162.31 357.34,167.21 357.92,173.26 360.86,173.01 363.35,172.89 365.01,172.49 367.22,171.94 368.85,171.16 370.61,170.1 372.6,168.67 373.7,166.82 373.12,170.95 372.77,175.81 371.2,180.31 361.3,189.02 355.81,192.32 349.84,195.31 343.19,196.56 332.56,195.96 332.92,197.35 333.88,198.76 334.81,200.04 335.88,200.98 336.98,201.8 337.58,202.23 338.08,202.41 338.34,202.69 331.57,203.19 329.08,202.43 324.07,201.54 320.89,200.89 316.8,200.35 314.26,199.92 311.2,199.33 305.04,197.47 305.17,199.46 305.89,200.3 306.94,201.15 307.94,202.04 309.05,203.14 310.15,203.68 311.16,203.99 313.16,205.15 303.62,205.87 296.07,206.54 290.05,206.3 285.16,205.49 278.87,203.82 275.26,202.94 268.41,200.76 262.74,199.77 263.01,201.06 263.58,202.2 264.58,203.55 265.96,204.88 266.56,205.89 267.7,206.98 268.52,208.56 270.88,209.6 259.01,209.74 251.21,209.79 242.55,208.81 239.14,208.16 231.37,207.47 225.32,205.37 220.31,203.93 215.46,201.53 214.81,203.56 215.13,205.13 215.83,206.15 216.71,207.43 217.51,208.19 218.25,209.32 219.14,210.41 220.64,211.32 217.35,212 212.03,212 207.68,210.99 204.93,209.88 202.47,208.33 199.96,206.47 196.56,203.16 194.11,202.02 191.24,203.37 187.24,206.57 184.26,207.97 180.53,208.65 176.52,209.12 171.72,209.72 167.93,209.17 165.08,207.76 166.79,207.15 168.1,206.69 169.06,205.95 170,205.03 170.46,204.01 171.11,202.58 171.35,201.03 171.35,199.35 167.34,201.34 163.83,202.03 159.38,203.83 152.61,206.72 148.95,207.85 143.91,209.06 140.15,209.42 137.8,208.8 140.11,207.78 141.86,206.36 142.76,204.64 143.71,203.1 143.93,201.43 144.01,199.94 144.01,198.75 143.72,197.03 139.56,198.85 136.55,200.22 132.59,202.36 128.08,203.14 124.18,205.14 118.04,206.17 112.43,206.21 107.69,206.3 109.06,205.26 110.13,204.59 112.27,203.48 113.37,202.55 114.1,201.82 114.76,200.78 114.91,199.61 114.99,198.39 108.87,198.85 105.72,201.03 102.59,201.86 98.56,203.68 92.52,205.13 85.62,205.37 79.2,205.51 73.05,204.65 74.51,203.68 76.27,202.73 78.4,201.58 79.99,200.7 80.53,200.02 80.82,199.04 80.86,198.08 80.72,197.09 73.59,198.2 70.98,198.4 68.75,198.6 66.69,199.06 61.92,199.32 56.99,199.01 52.85,198.76 48.85,198.34 49.64,197.65 50.73,196.83 51.36,196.32 52.06,195.56 52.84,194.87 53.69,193.98 54.53,193.25 55.96,191.4 54.13,191.72 51.29,192.95 49.16,193.86 45.57,194.31 42.29,195.4 39.95,195.55 38.48,195.4 35.76,195.16 36.68,194.14 37.01,193.18 37.41,192.05 37.62,190.99 37.91,190.09 38.14,188.76 38.19,187.53 38.2,185.11 32.38,183.97 27.79,182.63 23.36,180.62 20.18,179.66 17.48,178.96 15.2,178.38 11.92,177.23 7.58,173.8 2.59,159.09 0.37,152.38 0.48,140.64 5.42,145.77 9.38,149.86 9.88,148.91 10.78,146.4 11.92,144.05 13.54,141.23 15.08,138.89 16.81,136.56 18.38,135.39 22.45,135.56 27.89,135.73 30.1,131.93 32.34,126.95 33.94,115.79 35.62,106.45 39.75,96.61 51.57,83.16 55.32,77.39 58.78,67.9 69.68,59.6 73.51,53.46 73.88,65.69 74.05,72.35 74.47,81.25 79.23,90.81 82.42,95.81 85.77,101.93 89.78,106.93 92,109.27 92,109.27" fill="#f6be00" stroke="#77410e" stroke-width="3px" vector-effect="non-scaling-stroke" id="TopFlameRight.Effect:Loop.Duration:700ms"><animate id="TopFlameRight-1" begin="TopFlameRight-2.begin + 0s" fill="freeze" attributeName="points" dur="700ms" to="92,109.27 96.76,105.55 102.96,100.28 105.89,80.27 109.22,73.4 121.9,55.65 128.66,42.65 128.33,31.1 124.07,14.58 130.11,17.7 133.55,21.14 138.23,24.96 140.74,28.05 141.76,32.29 142.33,41.37 142.99,50.22 142.94,60.68 146.29,51.36 149.22,45.62 154.46,40.49 160.38,35.85 165.11,30.85 167.82,26.22 170.77,21.5 174.93,15.4 176.59,24.06 178.79,35.77 182.11,46.32 185.74,57.8 192.22,66.88 195.63,74.17 196.74,84.26 198.81,93.32 201.32,84.19 204.89,76.27 208.06,69.21 211,64.46 214.99,58.39 221.42,52.11 227.2,46.23 238.37,37.88 239.43,40.93 239.71,43.26 239.97,45.52 240.65,48.01 241.45,49.95 242.74,51.78 244.36,53.01 246.05,53.61 249.95,51.45 253.85,44.45 255.38,37.55 255.21,29.53 255.21,14.09 256.68,6.99 269.15,0.37 269.72,6.19 269.16,13.31 269.59,22.18 272.16,31.66 274.31,36.34 276.55,40.44 280.31,46.06 282.83,47.54 284.83,46.03 285.76,43.45 286.14,40.49 286.14,38.2 285.99,35.5 285.18,33.03 284.17,30.74 282.55,28.51 287.29,30.04 293.41,33.73 298.42,37.53 300.47,40.77 303.7,46.05 305.88,50.4 307.6,55.08 308.86,59.81 311.65,57.28 314.28,54.59 318.34,52.17 322.04,50.28 327.93,49.5 332.15,48.79 337.69,48.48 340.59,48.86 335.1,54.07 332.19,61.06 329.93,69.58 329.03,75 327.98,83.62 327.21,90.19 326.03,98.05 326.76,105.46 329.49,105.83 332.35,105.71 334.01,105.67 335.98,105.01 338.47,103.12 342.2,99.84 344.12,97 346.11,93.1 346.31,101.75 346.82,106.14 347.48,112.97 347.48,117.42 345.23,124.33 341.6,129 337.28,132.74 333.42,136.34 333.49,138.73 335.95,141.17 340.68,143.07 348.6,141.75 353.35,140.42 356.49,137.66 361.51,134 363.87,130.4 364.94,139.86 364.83,143.72 363.41,148.33 362.06,153.75 360.29,158.02 358.21,162.31 357.34,167.21 357.92,173.26 360.86,173.01 363.35,172.89 365.01,172.49 367.22,171.94 368.85,171.16 370.61,170.1 372.6,168.67 373.7,166.82 373.12,170.95 372.77,175.81 371.2,180.31 361.3,189.02 355.81,192.32 349.84,195.31 343.19,196.56 332.56,195.96 332.92,197.35 333.88,198.76 334.81,200.04 335.88,200.98 336.98,201.8 337.58,202.23 338.08,202.41 338.34,202.69 331.57,203.19 329.08,202.43 324.07,201.54 320.89,200.89 316.8,200.35 314.26,199.92 311.2,199.33 305.04,197.47 305.17,199.46 305.89,200.3 306.94,201.15 307.94,202.04 309.05,203.14 310.15,203.68 311.16,203.99 313.16,205.15 303.62,205.87 296.07,206.54 290.05,206.3 285.16,205.49 278.87,203.82 275.26,202.94 268.41,200.76 262.74,199.77 263.01,201.06 263.58,202.2 264.58,203.55 265.96,204.88 266.56,205.89 267.7,206.98 268.52,208.56 270.88,209.6 259.01,209.74 251.21,209.79 242.55,208.81 239.14,208.16 231.37,207.47 225.32,205.37 220.31,203.93 215.46,201.53 214.81,203.56 215.13,205.13 215.83,206.15 216.71,207.43 217.51,208.19 218.25,209.32 219.14,210.41 220.64,211.32 217.35,212 212.03,212 207.68,210.99 204.93,209.88 202.47,208.33 199.96,206.47 196.56,203.16 194.11,202.02 191.24,203.37 187.24,206.57 184.26,207.97 180.53,208.65 176.52,209.12 171.72,209.72 167.93,209.17 165.08,207.76 166.79,207.15 168.1,206.69 169.06,205.95 170,205.03 170.46,204.01 171.11,202.58 171.35,201.03 171.35,199.35 167.34,201.34 163.83,202.03 159.38,203.83 152.61,206.72 148.95,207.85 143.91,209.06 140.15,209.42 137.8,208.8 140.11,207.78 141.86,206.36 142.76,204.64 143.71,203.1 143.93,201.43 144.01,199.94 144.01,198.75 143.72,197.03 139.56,198.85 136.55,200.22 132.59,202.36 128.08,203.14 124.18,205.14 118.04,206.17 112.43,206.21 107.69,206.3 109.06,205.26 110.13,204.59 112.27,203.48 113.37,202.55 114.1,201.82 114.76,200.78 114.91,199.61 114.99,198.39 108.87,198.85 105.72,201.03 102.59,201.86 98.56,203.68 92.52,205.13 85.62,205.37 79.2,205.51 73.05,204.65 74.51,203.68 76.27,202.73 78.4,201.58 79.99,200.7 80.53,200.02 80.82,199.04 80.86,198.08 80.72,197.09 73.59,198.2 70.98,198.4 68.75,198.6 66.69,199.06 61.92,199.32 56.99,199.01 52.85,198.76 48.85,198.34 49.64,197.65 50.73,196.83 51.36,196.32 52.06,195.56 52.84,194.87 53.69,193.98 54.53,193.25 55.96,191.4 54.13,191.72 51.29,192.95 49.16,193.86 45.57,194.31 42.29,195.4 39.95,195.55 38.48,195.4 35.76,195.16 36.68,194.14 37.01,193.18 37.41,192.05 37.62,190.99 37.91,190.09 38.14,188.76 38.19,187.53 38.2,185.11 32.38,183.97 27.79,182.63 23.36,180.62 20.18,179.66 17.48,178.96 15.2,178.38 11.92,177.23 7.58,173.8 2.59,159.09 0.37,152.38 0.48,140.64 5.42,145.77 9.38,149.86 9.88,148.91 10.78,146.4 11.92,144.05 13.54,141.23 15.08,138.89 16.81,136.56 18.38,135.39 22.45,135.56 27.89,135.73 30.1,131.93 32.34,126.95 33.94,115.79 35.62,106.45 39.75,96.61 51.57,83.16 55.32,77.39 58.78,67.9 69.68,59.6 73.51,53.46 73.88,65.69 74.05,72.35 74.47,81.25 79.23,90.81 82.42,95.81 85.77,101.93 89.78,106.93 92,109.27 92,109.27"/><animate id="TopFlameRight-2" begin="0; TopFlameRight-1.begin + 700ms" fill="freeze" attributeName="points" dur="700ms" to="142.94,60.68 146.29,51.36 149.22,45.62 154.46,40.49 160.38,35.85 165.11,30.85 167.82,26.22 170.77,21.5 174.93,15.4 176.59,24.06 178.79,35.77 182.11,46.32 185.74,57.8 192.22,66.88 195.63,74.17 196.74,84.26 198.81,93.32 201.32,84.19 204.89,76.27 208.06,69.21 211,64.46 214.99,58.39 221.42,52.11 227.2,46.23 238.37,37.88 239.43,40.93 239.71,43.27 239.97,45.52 240.65,48.01 241.45,49.95 242.74,51.78 244.36,53.01 246.05,53.61 249.95,51.45 253.85,44.45 255.38,37.55 255.21,29.53 255.21,14.09 256.68,6.99 269.15,0.37 269.72,6.19 269.16,13.31 269.59,22.18 272.16,31.66 274.31,36.34 276.55,40.44 280.31,46.06 282.83,47.54 284.83,46.03 285.76,43.45 286.14,40.49 286.14,38.2 285.99,35.5 285.18,33.03 284.17,30.74 282.55,28.51 287.29,30.04 293.41,33.73 298.42,37.53 300.47,40.77 303.7,46.05 305.88,50.4 307.6,55.08 308.86,59.81 311.65,57.28 314.28,54.59 318.34,52.17 322.04,50.28 327.93,49.5 332.15,48.79 337.69,48.48 340.59,48.86 335.1,54.07 332.19,61.06 329.93,69.58 329.03,75 327.98,83.62 327.21,90.19 326.03,98.05 326.76,105.46 329.49,105.83 332.35,105.71 334.01,105.67 335.98,105.01 338.47,103.12 342.2,99.84 344.12,97 346.11,93.1 346.31,101.75 346.82,106.14 347.48,112.97 347.48,117.42 345.23,124.33 341.6,129 337.28,132.74 333.42,136.34 333.49,138.73 335.95,141.17 340.68,143.07 348.6,141.75 353.35,140.42 356.49,137.66 361.51,134 363.87,130.4 364.94,139.86 364.83,143.72 363.41,148.33 362.06,153.75 360.29,158.02 358.21,162.31 357.34,167.21 357.92,173.26 360.86,173.01 363.35,172.89 365.01,172.49 367.22,171.94 368.85,171.16 370.61,170.1 372.6,168.67 373.7,166.82 373.12,170.95 372.77,175.81 371.2,180.31 361.3,189.02 355.81,192.32 349.84,195.31 343.19,196.56 332.56,195.96 332.92,197.35 333.88,198.76 334.81,200.04 335.88,200.98 336.98,201.8 337.58,202.23 338.08,202.41 338.34,202.69 331.57,203.19 329.08,202.43 324.07,201.54 320.89,200.89 316.8,200.35 314.26,199.92 311.2,199.33 305.04,197.47 305.17,199.46 305.89,200.3 306.94,201.15 307.94,202.04 309.05,203.14 310.15,203.68 311.16,203.99 313.16,205.15 303.62,205.87 296.07,206.54 290.05,206.3 285.16,205.49 278.87,203.82 275.26,202.94 268.41,200.76 262.74,199.77 263.01,201.06 263.58,202.2 264.58,203.55 265.96,204.88 266.56,205.89 267.7,206.98 268.52,208.56 270.88,209.6 259.01,209.74 251.21,209.79 242.55,208.81 239.14,208.16 231.37,207.47 225.32,205.37 220.31,203.93 215.46,201.53 214.81,203.56 215.13,205.13 215.83,206.15 216.71,207.43 217.51,208.19 218.25,209.32 219.14,210.41 220.64,211.32 217.35,212 212.03,212 207.68,210.99 204.93,209.88 202.47,208.33 199.96,206.47 196.56,203.16 194.11,202.02 191.24,203.37 187.24,206.57 184.26,207.97 180.53,208.65 176.52,209.12 171.72,209.72 167.93,209.17 165.08,207.76 166.79,207.15 168.1,206.69 169.06,205.95 170,205.03 170.46,204.01 171.11,202.58 171.35,201.03 171.35,199.35 167.34,201.34 163.83,202.03 159.38,203.83 152.61,206.72 148.95,207.85 143.91,209.06 140.15,209.42 137.8,208.8 140.11,207.78 141.86,206.36 142.76,204.64 143.71,203.1 143.93,201.43 144.01,199.94 144.01,198.75 143.72,197.03 139.56,198.85 136.55,200.22 132.59,202.36 128.08,203.14 124.18,205.14 118.04,206.17 112.43,206.21 107.69,206.3 109.06,205.26 110.13,204.59 112.27,203.48 113.37,202.55 114.1,201.82 114.76,200.78 114.91,199.61 114.99,198.39 108.87,198.85 105.72,201.03 102.59,201.86 98.56,203.68 92.52,205.13 85.62,205.37 79.2,205.51 73.05,204.65 74.51,203.68 76.27,202.73 78.4,201.58 79.99,200.7 80.53,200.02 80.82,199.04 80.86,198.08 80.72,197.09 73.59,198.2 70.98,198.4 68.75,198.6 66.69,199.06 61.92,199.32 56.99,199.01 52.85,198.76 48.85,198.34 49.64,197.65 50.73,196.83 51.36,196.32 52.06,195.56 52.84,194.87 53.69,193.98 54.53,193.25 55.96,191.4 54.13,191.72 51.29,192.95 49.16,193.86 45.57,194.31 42.29,195.4 39.95,195.55 38.48,195.4 35.76,195.16 36.68,194.14 37.01,193.18 37.41,192.05 37.62,190.99 37.91,190.09 38.14,188.76 38.19,187.53 38.2,185.11 32.38,183.97 27.79,182.63 23.36,180.62 20.18,179.66 17.48,178.96 15.2,178.38 11.92,177.23 7.58,173.8 2.59,159.09 0.37,152.38 0.48,140.64 5.42,145.77 9.38,149.86 9.88,148.91 10.78,146.4 11.92,144.05 13.54,141.23 15.08,138.89 16.81,136.56 18.38,135.39 22.45,135.56 27.89,135.73 30.1,131.93 32.34,126.95 33.94,115.79 35.62,106.45 39.75,96.61 51.57,83.16 55.32,77.39 58.78,67.9 69.68,59.6 73.51,53.46 73.88,65.69 74.05,72.35 74.47,81.25 79.23,90.81 82.42,95.81 85.77,101.93 89.78,106.93 92,109.27 96.76,105.55 102.96,100.28 105.89,80.27 109.21,73.4 121.9,55.65 128.66,42.65 128.33,31.1 124.07,14.58 130.11,17.7 133.55,21.14 138.23,24.96 140.74,28.05 141.76,32.29 142.33,41.37 142.99,50.22 142.94,60.68 142.94,60.68"/></polygon><polygon points="93.41,122.87 101.71,120.03 107.14,115.89 110.9,108.13 113.88,99.32 118.03,91.61 122.54,83.63 127.36,76.27 132.18,64.63 131.68,76.27 132.88,81.03 133.73,86.05 134.37,91.04 135.44,95.02 137.2,98.61 138.71,102.52 140.1,106.19 142.74,99.34 144.58,92.84 146.43,88.48 148.11,83.91 149.62,79.8 152.89,73.82 157.99,67.99 165.93,61.24 167.7,65.43 168.84,70.83 172.84,78.17 176.71,84.13 178.54,88.26 180.28,95.19 182.42,102.14 182.47,113.52 188.08,113.89 195.85,111.56 203.45,106.19 210.05,101.66 215.74,94.83 220.36,88.06 224.97,81.11 228.05,73.24 229.1,77.91 229.43,79.88 230.38,81.92 231.34,83.98 231.34,85.7 231.93,87.71 232.91,89.4 233.63,91.8 238.26,86.54 241.09,83.17 245.81,76.27 249.94,71.38 253.81,66.58 257.65,61.75 261.26,56.22 264.42,51.86 266.17,56.97 267.78,60.57 270.88,63.33 273.54,66.63 276.48,68.54 278.41,70.73 279.91,72.53 284.25,76.27 285.06,73.79 286.19,70.77 287.84,67.65 289.46,64.47 290.05,61.37 290.77,59.09 291.74,55.37 294.57,57.6 294.96,59.84 296.75,64.37 299.71,68.21 300.45,71.39 301.59,73.72 303.2,76.27 303.63,78.67 305.14,76.27 305.87,74.62 307.08,72.39 309.32,71.21 312.12,69.86 313.95,68.71 316.12,68.35 320.56,67.74 320,71.66 318.45,76.27 318.39,80.18 317.74,85.17 317.4,91.98 317.46,99.27 317.79,106.19 317.79,114.65 322.1,114.67 323.68,114.72 326.05,114.72 327.55,114.54 329.58,114.92 331.13,114.6 333.27,113.94 335.72,113.8 335.55,117.86 333.16,122.73 327.63,129.47 323.41,135.36 321.4,138.84 319.42,140.66 317.96,142.45 316.51,144.88 320.51,146.96 324.55,148.56 331.66,150.46 335.39,151.5 339.73,153.97 342.6,154 346.64,153.51 349.56,152.88 348.23,157.09 346.12,161.88 346.12,164.9 346.08,168.51 345.79,172.38 345.21,175.4 344.93,177.54 344.79,179.41 347.2,180.18 349.16,180.12 350.04,179.74 351.05,179.53 352.01,179.48 353.1,179.44 354.18,179.38 355.62,179.33 357.16,181.34 357.76,182.52 358.37,183.18 359.22,184.43 359.79,185.59 360.42,186.65 361.65,188.72 361.3,189.02 355.81,192.32 349.84,195.31 343.19,196.56 332.56,195.96 332.92,197.35 333.88,198.76 334.81,200.04 335.88,200.98 336.98,201.8 337.58,202.23 338.08,202.41 338.34,202.69 331.57,203.19 329.08,202.43 324.07,201.54 320.89,200.89 316.8,200.35 314.26,199.92 311.2,199.33 305.04,197.47 305.17,199.46 305.89,200.3 306.94,201.15 307.94,202.04 309.05,203.14 310.15,203.68 311.16,203.99 313.16,205.15 303.62,205.87 296.07,206.54 290.05,206.3 285.16,205.49 278.87,203.82 275.26,202.94 268.41,200.76 262.74,199.77 263.01,201.06 263.58,202.2 264.58,203.55 265.96,204.88 266.56,205.89 267.7,206.98 268.52,208.56 270.88,209.6 259.01,209.74 251.21,209.79 242.55,208.81 239.14,208.16 231.37,207.47 225.32,205.37 220.31,203.93 215.46,201.53 214.81,203.56 215.13,205.13 215.83,206.15 216.71,207.43 217.51,208.19 218.25,209.32 219.14,210.41 220.64,211.32 217.35,212 212.03,212 207.68,210.99 204.93,209.88 202.47,208.33 199.96,206.47 196.56,203.16 194.11,202.02 191.24,203.37 187.24,206.57 184.26,207.97 180.53,208.65 176.52,209.12 171.72,209.72 167.93,209.17 165.08,207.76 166.79,207.15 168.1,206.69 169.06,205.95 170,205.03 170.46,204.01 171.11,202.58 171.35,201.03 171.35,199.35 167.34,201.34 163.83,202.03 159.38,203.83 152.61,206.72 148.95,207.85 143.91,209.06 140.15,209.42 137.8,208.8 140.11,207.78 141.86,206.36 142.76,204.64 143.71,203.1 143.93,201.43 144.01,199.94 144.01,198.75 143.72,197.03 139.56,198.85 136.55,200.22 132.59,202.36 128.08,203.14 124.18,205.14 118.04,206.17 112.43,206.21 107.69,206.3 109.06,205.26 110.13,204.59 112.27,203.48 113.37,202.55 114.1,201.82 114.76,200.78 114.91,199.61 114.99,198.39 108.88,198.85 105.72,201.03 102.59,201.86 98.56,203.68 92.52,205.13 85.62,205.37 79.2,205.51 73.05,204.65 74.52,203.68 76.27,202.73 78.4,201.58 79.99,200.7 80.53,200.02 80.82,199.04 80.86,198.08 80.72,197.09 73.59,198.2 70.98,198.4 68.75,198.6 66.69,199.06 61.92,199.32 56.99,199.01 52.85,198.76 48.85,198.34 49.64,197.65 50.73,196.83 51.36,196.32 52.06,195.56 52.84,194.87 53.69,193.98 54.53,193.25 55.96,191.4 54.13,191.72 51.29,192.95 49.16,193.86 45.57,194.31 42.29,195.4 39.95,195.55 38.48,195.4 35.76,195.16 36.69,194.14 37.01,193.18 37.42,192.05 37.62,190.99 37.91,190.09 38.14,188.76 38.19,187.53 38.2,185.11 32.25,184.4 28.2,183.33 23.9,180.61 19.38,178.49 12.78,171.16 11.92,163.57 12.59,158.42 16.91,162.84 20.71,164.17 25.05,165.14 26.5,161.43 25.69,155.45 25.52,152.87 27.38,150.23 29.4,148.9 32.35,148.43 34.49,148.74 36.37,148.76 37.91,148.89 39.17,148.34 42.02,148.35 45.17,147.96 50.59,145.84 48.58,140.54 44.76,133.05 44.76,127.59 47.38,115.27 52.46,106.19 54.95,101.88 59.72,93.74 64.96,85.33 68.01,95.32 73.99,102.89 77.06,106.19 79.77,110.83 83.83,113.56 87.47,117.36 89.88,120.07 93.41,122.87 93.41,122.87" fill="#fceb4b" stroke="#915d00" stroke-width="3px" vector-effect="non-scaling-stroke" id="TopFlameRightInside.Effect:Loop.Duration:700ms"><animate id="TopFlameRightInside-1" begin="TopFlameRightInside-2.begin + 0s" fill="freeze" attributeName="points" dur="700ms" to="93.41,122.87 101.71,120.03 107.14,115.89 110.9,108.13 113.88,99.32 118.03,91.61 122.54,83.63 127.36,76.27 132.18,64.63 131.68,76.27 132.88,81.03 133.73,86.05 134.37,91.04 135.44,95.02 137.2,98.61 138.71,102.52 140.1,106.19 142.74,99.34 144.58,92.84 146.43,88.48 148.11,83.91 149.62,79.8 152.89,73.82 157.99,67.99 165.93,61.24 167.7,65.43 168.84,70.83 172.84,78.17 176.71,84.13 178.54,88.26 180.28,95.19 182.42,102.14 182.47,113.52 188.08,113.89 195.85,111.56 203.45,106.19 210.05,101.66 215.74,94.83 220.36,88.06 224.97,81.11 228.05,73.24 229.1,77.91 229.43,79.88 230.38,81.92 231.34,83.98 231.34,85.7 231.93,87.71 232.91,89.4 233.63,91.8 238.26,86.54 241.09,83.17 245.81,76.27 249.94,71.38 253.81,66.58 257.65,61.75 261.26,56.22 264.42,51.86 266.17,56.97 267.78,60.57 270.88,63.33 273.54,66.63 276.48,68.54 278.41,70.73 279.91,72.53 284.25,76.27 285.06,73.79 286.19,70.77 287.84,67.65 289.46,64.47 290.05,61.37 290.77,59.09 291.74,55.37 294.57,57.6 294.96,59.84 296.75,64.37 299.71,68.21 300.45,71.39 301.59,73.72 303.2,76.27 303.63,78.67 305.14,76.27 305.87,74.62 307.08,72.39 309.32,71.21 312.12,69.86 313.95,68.71 316.12,68.35 320.56,67.74 320,71.66 318.45,76.27 318.39,80.18 317.74,85.17 317.4,91.98 317.46,99.27 317.79,106.19 317.79,114.65 322.1,114.67 323.68,114.72 326.05,114.72 327.55,114.54 329.58,114.92 331.13,114.6 333.27,113.94 335.72,113.8 335.55,117.86 333.16,122.73 327.63,129.47 323.41,135.36 321.4,138.84 319.42,140.66 317.96,142.45 316.51,144.88 320.51,146.96 324.55,148.56 331.66,150.46 335.39,151.5 339.73,153.97 342.6,154 346.64,153.51 349.56,152.88 348.23,157.09 346.12,161.88 346.12,164.9 346.08,168.51 345.79,172.38 345.21,175.4 344.93,177.54 344.79,179.41 347.2,180.18 349.16,180.12 350.04,179.74 351.05,179.53 352.01,179.48 353.1,179.44 354.18,179.38 355.62,179.33 357.16,181.34 357.76,182.52 358.37,183.18 359.22,184.43 359.79,185.59 360.42,186.65 361.65,188.72 361.3,189.02 355.81,192.32 349.84,195.31 343.19,196.56 332.56,195.96 332.92,197.35 333.88,198.76 334.81,200.04 335.88,200.98 336.98,201.8 337.58,202.23 338.08,202.41 338.34,202.69 331.57,203.19 329.08,202.43 324.07,201.54 320.89,200.89 316.8,200.35 314.26,199.92 311.2,199.33 305.04,197.47 305.17,199.46 305.89,200.3 306.94,201.15 307.94,202.04 309.05,203.14 310.15,203.68 311.16,203.99 313.16,205.15 303.62,205.87 296.07,206.54 290.05,206.3 285.16,205.49 278.87,203.82 275.26,202.94 268.41,200.76 262.74,199.77 263.01,201.06 263.58,202.2 264.58,203.55 265.96,204.88 266.56,205.89 267.7,206.98 268.52,208.56 270.88,209.6 259.01,209.74 251.21,209.79 242.55,208.81 239.14,208.16 231.37,207.47 225.32,205.37 220.31,203.93 215.46,201.53 214.81,203.56 215.13,205.13 215.83,206.15 216.71,207.43 217.51,208.19 218.25,209.32 219.14,210.41 220.64,211.32 217.35,212 212.03,212 207.68,210.99 204.93,209.88 202.47,208.33 199.96,206.47 196.56,203.16 194.11,202.02 191.24,203.37 187.24,206.57 184.26,207.97 180.53,208.65 176.52,209.12 171.72,209.72 167.93,209.17 165.08,207.76 166.79,207.15 168.1,206.69 169.06,205.95 170,205.03 170.46,204.01 171.11,202.58 171.35,201.03 171.35,199.35 167.34,201.34 163.83,202.03 159.38,203.83 152.61,206.72 148.95,207.85 143.91,209.06 140.15,209.42 137.8,208.8 140.11,207.78 141.86,206.36 142.76,204.64 143.71,203.1 143.93,201.43 144.01,199.94 144.01,198.75 143.72,197.03 139.56,198.85 136.55,200.22 132.59,202.36 128.08,203.14 124.18,205.14 118.04,206.17 112.43,206.21 107.69,206.3 109.06,205.26 110.13,204.59 112.27,203.48 113.37,202.55 114.1,201.82 114.76,200.78 114.91,199.61 114.99,198.39 108.88,198.85 105.72,201.03 102.59,201.86 98.56,203.68 92.52,205.13 85.62,205.37 79.2,205.51 73.05,204.65 74.52,203.68 76.27,202.73 78.4,201.58 79.99,200.7 80.53,200.02 80.82,199.04 80.86,198.08 80.72,197.09 73.59,198.2 70.98,198.4 68.75,198.6 66.69,199.06 61.92,199.32 56.99,199.01 52.85,198.76 48.85,198.34 49.64,197.65 50.73,196.83 51.36,196.32 52.06,195.56 52.84,194.87 53.69,193.98 54.53,193.25 55.96,191.4 54.13,191.72 51.29,192.95 49.16,193.86 45.57,194.31 42.29,195.4 39.95,195.55 38.48,195.4 35.76,195.16 36.69,194.14 37.01,193.18 37.42,192.05 37.62,190.99 37.91,190.09 38.14,188.76 38.19,187.53 38.2,185.11 32.25,184.4 28.2,183.33 23.9,180.61 19.38,178.49 12.78,171.16 11.92,163.57 12.59,158.42 16.91,162.84 20.71,164.17 25.05,165.14 26.5,161.43 25.69,155.45 25.52,152.87 27.38,150.23 29.4,148.9 32.35,148.43 34.49,148.74 36.37,148.76 37.91,148.89 39.17,148.34 42.02,148.35 45.17,147.96 50.59,145.84 48.58,140.54 44.76,133.05 44.76,127.59 47.38,115.27 52.46,106.19 54.95,101.88 59.72,93.74 64.96,85.33 68.01,95.32 73.99,102.89 77.06,106.19 79.77,110.83 83.83,113.56 87.47,117.36 89.88,120.07 93.41,122.87 93.41,122.87"/><animate id="TopFlameRightInside-2" begin="0; TopFlameRightInside-1.begin + 700ms" fill="freeze" attributeName="points" dur="700ms" to="140.1,106.19 142.74,99.34 144.58,92.84 146.43,88.48 148.11,83.91 149.62,79.8 152.89,73.82 157.99,67.99 165.93,61.24 167.7,65.43 168.84,70.83 172.84,78.17 176.71,84.13 178.54,88.26 180.28,95.19 182.42,102.14 182.47,113.52 188.08,113.89 195.85,111.56 203.45,106.19 210.05,101.66 215.74,94.83 220.36,88.06 224.97,81.11 228.05,73.24 229.1,77.91 229.43,79.88 230.38,81.92 231.34,83.98 231.34,85.7 231.93,87.71 232.91,89.4 233.63,91.8 238.26,86.54 241.09,83.17 245.81,76.27 249.94,71.38 253.81,66.58 257.65,61.75 261.26,56.22 264.42,51.86 266.17,56.97 267.78,60.57 270.88,63.33 273.54,66.63 276.48,68.54 278.41,70.73 279.91,72.53 284.25,76.27 285.06,73.79 286.19,70.77 287.84,67.65 289.46,64.47 290.05,61.37 290.77,59.09 291.74,55.37 294.57,57.6 294.96,59.84 296.75,64.37 299.71,68.21 300.45,71.39 301.59,73.72 303.2,76.27 303.63,78.67 305.14,76.27 305.87,74.62 307.08,72.39 309.32,71.21 312.12,69.86 313.95,68.71 316.12,68.35 320.56,67.74 320,71.66 318.45,76.27 318.39,80.18 317.74,85.17 317.4,91.98 317.46,99.27 317.79,106.19 317.79,114.65 322.1,114.67 323.68,114.72 326.05,114.72 327.55,114.54 329.58,114.92 331.13,114.6 333.27,113.94 335.72,113.8 335.55,117.86 333.16,122.73 327.63,129.47 323.41,135.36 321.4,138.84 319.42,140.66 317.96,142.45 316.51,144.88 320.51,146.96 324.55,148.56 331.66,150.46 335.39,151.5 339.73,153.97 342.6,154 346.64,153.51 349.56,152.88 348.23,157.09 346.12,161.88 346.12,164.9 346.08,168.51 345.79,172.38 345.21,175.4 344.93,177.54 344.79,179.41 347.2,180.18 349.16,180.12 350.04,179.74 351.05,179.53 352.01,179.48 353.1,179.44 354.18,179.38 355.62,179.33 357.16,181.34 357.76,182.52 358.37,183.18 359.22,184.43 359.79,185.59 360.42,186.65 361.65,188.72 361.3,189.02 355.81,192.32 349.84,195.31 343.19,196.56 332.56,195.96 332.92,197.35 333.88,198.76 334.81,200.04 335.88,200.98 336.98,201.8 337.58,202.23 338.08,202.41 338.34,202.69 331.57,203.19 329.08,202.43 324.07,201.54 320.89,200.89 316.8,200.35 314.26,199.92 311.2,199.33 305.04,197.47 305.17,199.46 305.89,200.3 306.94,201.15 307.94,202.04 309.05,203.14 310.15,203.68 311.16,203.99 313.16,205.15 303.62,205.87 296.07,206.54 290.05,206.3 285.16,205.49 278.87,203.82 275.26,202.94 268.41,200.76 262.74,199.77 263.01,201.06 263.58,202.2 264.58,203.55 265.96,204.88 266.56,205.89 267.7,206.98 268.52,208.56 270.88,209.6 259.01,209.74 251.21,209.79 242.55,208.81 239.14,208.16 231.37,207.47 225.32,205.37 220.31,203.93 215.46,201.53 214.81,203.56 215.13,205.13 215.83,206.15 216.71,207.43 217.51,208.19 218.25,209.32 219.14,210.41 220.64,211.32 217.35,212 212.03,212 207.68,210.99 204.93,209.88 202.47,208.33 199.96,206.47 196.56,203.16 194.11,202.02 191.24,203.37 187.24,206.57 184.26,207.97 180.53,208.65 176.52,209.12 171.72,209.72 167.93,209.17 165.08,207.76 166.79,207.15 168.1,206.69 169.06,205.95 170,205.03 170.46,204.01 171.11,202.58 171.35,201.03 171.35,199.35 167.34,201.34 163.83,202.03 159.38,203.83 152.61,206.72 148.95,207.85 143.91,209.06 140.15,209.42 137.8,208.8 140.11,207.78 141.86,206.36 142.76,204.64 143.71,203.1 143.93,201.43 144.01,199.94 144.01,198.75 143.72,197.03 139.56,198.85 136.55,200.22 132.59,202.36 128.08,203.14 124.18,205.14 118.04,206.17 112.43,206.21 107.69,206.3 109.06,205.26 110.13,204.59 112.27,203.48 113.37,202.55 114.1,201.82 114.76,200.78 114.91,199.61 114.99,198.39 108.88,198.85 105.72,201.03 102.59,201.86 98.56,203.68 92.52,205.13 85.62,205.37 79.2,205.51 73.05,204.65 74.52,203.68 76.27,202.73 78.4,201.58 79.99,200.7 80.53,200.02 80.82,199.04 80.86,198.08 80.72,197.09 73.59,198.2 70.98,198.4 68.75,198.6 66.69,199.06 61.92,199.32 56.99,199.01 52.85,198.76 48.85,198.34 49.64,197.65 50.73,196.83 51.36,196.32 52.06,195.56 52.84,194.87 53.69,193.98 54.53,193.25 55.96,191.4 54.13,191.72 51.29,192.95 49.16,193.86 45.57,194.31 42.29,195.4 39.95,195.55 38.48,195.4 35.76,195.16 36.69,194.14 37.01,193.18 37.42,192.05 37.62,190.99 37.91,190.09 38.14,188.76 38.19,187.53 38.2,185.11 32.25,184.4 28.2,183.33 23.9,180.61 19.38,178.49 12.78,171.16 11.92,163.57 12.59,158.42 16.91,162.84 20.71,164.17 25.05,165.14 26.5,161.43 25.69,155.45 25.52,152.87 27.38,150.23 29.4,148.9 32.35,148.43 34.49,148.74 36.37,148.76 37.91,148.89 39.17,148.34 42.02,148.35 45.17,147.96 50.59,145.84 48.58,140.54 44.76,133.05 44.76,127.59 47.38,115.27 52.46,106.19 54.95,101.88 59.72,93.74 64.96,85.33 68.01,95.32 73.99,102.89 77.06,106.19 79.77,110.83 83.83,113.56 87.47,117.36 89.88,120.07 93.41,122.87 101.71,120.03 107.14,115.89 110.9,108.13 113.88,99.32 118.03,91.61 122.54,83.63 127.36,76.27 132.18,64.63 131.68,76.27 132.88,81.03 133.73,86.05 134.37,91.04 135.44,95.02 137.2,98.61 138.71,102.52 140.1,106.19 140.1,106.19"/></polygon><polyline points="62.44,166.3 63.25,172.39 66.4,184.05 69.94,188.99" fill="none" stroke="#77410e" stroke-width="3px" vector-effect="non-scaling-stroke" id="Line.Effect:Default.Duration:1000ms.Type:Line"><animate attributeName="points" values="62.44,166.3 63.25,172.39 66.4,184.05 69.94,188.99;60.94,162.55 61.75,168.64 64.9,180.3 68.44,185.24;62.44,166.3 63.25,172.39 66.4,184.05 69.94,188.99" dur="1000ms" begin="0s" fill="freeze" repeatCount="indefinite"/></polyline><polyline points="70.66,175.82 71.5,180.65 73.09,185.33 73.37,187.73 74.22,189.8" fill="none" stroke="#77410e" stroke-width="3px" vector-effect="non-scaling-stroke" id="Line2.Effect:Default.Duration:1000ms.Type:Line"><animate attributeName="points" values="70.66,175.82 71.5,180.65 73.09,185.33 73.37,187.73 74.22,189.8;69.16,170.57 70,175.4 71.59,180.08 71.87,182.48 72.72,184.55;70.66,175.82 71.5,180.65 73.09,185.33 73.37,187.73 74.22,189.8" dur="1000ms" begin="0s" fill="freeze" repeatCount="indefinite"/></polyline><polyline points="74.72,171.28 75.91,178.67 78.49,185.65 80.53,188.8 82.11,191.86" fill="none" stroke="#77410e" stroke-width="3px" vector-effect="non-scaling-stroke" id="Line3.Effect:Default.Duration:1000ms.Type:Line"><animate attributeName="points" values="74.72,171.28 75.91,178.67 78.49,185.65 80.53,188.8 82.11,191.86;74.72,167.53 75.91,174.92 78.49,181.9 80.53,185.05 82.11,188.11;74.72,171.28 75.91,178.67 78.49,185.65 80.53,188.8 82.11,191.86" dur="1000ms" begin="0s" fill="freeze" repeatCount="indefinite"/></polyline><g id="Line4.Effect:Default.Duration:1000ms.Type:Line"/><g id="Line5.Effect:Default.Duration:1000ms.Type:Line"/><g id="Line6.Effect:Default.Duration:1000ms.Type:Line"/><polyline points="136.97,185.94 139.04,181.58 141.87,177.49" fill="none" stroke="#77410e" stroke-width="3px" vector-effect="non-scaling-stroke" id="Line7.Effect:Default.Duration:1000ms.Type:Line"><animate attributeName="points" values="136.97,185.94 139.04,181.58 141.87,177.49;139.22,184.44 141.29,180.08 144.12,175.99;136.97,185.94 139.04,181.58 141.87,177.49" dur="1000ms" begin="0s" fill="freeze" repeatCount="indefinite"/></polyline><polyline points="130.67,188.68 132.1,184.55 138.4,176.9 139.83,172.85" fill="none" stroke="#77410e" stroke-width="3px" vector-effect="non-scaling-stroke" id="Line8.Effect:Default.Duration:1000ms.Type:Line"><animate attributeName="points" values="130.67,188.68 132.1,184.55 138.4,176.9 139.83,172.85;131.42,185.68 132.85,181.55 139.15,173.9 140.58,169.85;130.67,188.68 132.1,184.55 138.4,176.9 139.83,172.85" dur="1000ms" begin="0s" fill="freeze" repeatCount="indefinite"/></polyline><polyline points="214.42,184.88 215.94,188.83 219.24,191.62 221.08,192.42 222.54,193.64" fill="none" stroke="#77410e" stroke-width="3px" vector-effect="non-scaling-stroke" id="Line9.Effect:Default.Duration:1000ms.Type:Line"><animate attributeName="points" values="214.42,184.88 215.94,188.83 219.24,191.62 221.08,192.42 222.54,193.64;212.92,181.13 214.44,185.08 217.74,187.87 219.58,188.67 221.04,189.89;214.42,184.88 215.94,188.83 219.24,191.62 221.08,192.42 222.54,193.64" dur="1000ms" begin="0s" fill="freeze" repeatCount="indefinite"/></polyline><polyline points="218.93,180.82 220.35,185.69 228.74,194.36 233.66,195.88" fill="none" stroke="#77410e" stroke-width="3px" vector-effect="non-scaling-stroke" id="Line10.Effect:Default.Duration:1000ms.Type:Line"><animate attributeName="points" values="218.93,180.82 220.35,185.69 228.74,194.36 233.66,195.88;217.43,177.82 218.85,182.69 227.24,191.36 232.16,192.88;218.93,180.82 220.35,185.69 228.74,194.36 233.66,195.88" dur="1000ms" begin="0s" fill="freeze" repeatCount="indefinite"/></polyline></svg>