<?xml version="1.0" encoding="UTF-8" standalone="no"?><!DOCTYPE svg PUBLIC "-//W3C//DTD SVG 1.1//EN" "http://www.w3.org/Graphics/SVG/1.1/DTD/svg11.dtd"><svg width="100%" height="100%" viewBox="0 0 90 105" version="1.1" xmlns="http://www.w3.org/2000/svg" xmlns:xlink="http://www.w3.org/1999/xlink" xml:space="preserve" xmlns:serif="http://www.serif.com/" style="fill-rule:evenodd;clip-rule:evenodd;stroke-linecap:round;stroke-linejoin:round;stroke-miterlimit:1.5"><polygon points="80.08,97.04 80.25,93.8 80.21,90.92 80.21,87.1 80.08,83.14 79.44,78.2 78.58,75.2 77.49,71.17 75.33,68.08 75.22,69.45 75.18,70.55 75.03,72.3 74.84,73.53 74.31,75.06 73.61,76.72 72.99,77.82 72.05,79.36 70.08,73.85 69.68,70.1 69.74,65.6 70.24,61.81 70.24,57.48 70.17,53.99 69.87,50.4 67.8,44.86 67.52,47.45 67.21,48.93 66.86,50.4 65.97,52.7 65.35,54.44 64.65,56.32 64.09,57.92 63.16,61.16 61.65,59.08 60.39,56.66 59.17,53.63 58.06,50.87 57.24,47.9 56.63,45.13 56.56,40.08 56.64,34.44 55.32,35.06 54.71,35.91 54.14,36.75 53.61,37.49 53.13,38.52 52.48,39.49 51.98,40.4 51.24,41.85 50.73,37.99 50.32,34.98 50.87,30.47 51.78,27.12 51.96,21.71 50.8,17.77 48.71,12.31 43.85,6.74 44.44,9.74 44.47,11.78 44.74,13.74 44.79,15.35 44.74,17.18 44.62,18.8 43.96,21.06 42.7,23.02 41.13,20.94 39.67,18.1 36.52,14.08 34.49,11.34 31.31,7.57 26.57,3.76 21.77,1.08 17.11,0 18.7,3.29 19.51,6.35 20.02,9.08 20.53,12.45 21.12,15.9 21.77,19.76 21.77,22.76 20.95,27.22 19.28,24.32 17.68,21.15 16.08,18.63 14.29,16.4 11.93,14.95 8.39,13.97 5.18,13.53 1.79,13.67 4.2,17.42 5.11,20.41 5.99,24.66 6.39,28.22 6.31,31.47 6.01,34.51 5.72,37.82 5.29,42.42 3.86,41.01 2.65,39.3 1.08,37.61 -0.6,35.64 -2.88,33.75 -4.83,32.46 -6.85,31.33 -9.77,30.49 -7.25,33.73 -5.68,36.13 -4.63,39.31 -4.06,42.71 -3.8,45.99 -3.93,49.45 -4.01,52.63 -4.36,57.46 -5.32,54.12 -6.55,51.25 -8.43,48.4 -10.83,45.35 -13.31,42.88 -15.55,41.61 -18.55,40.73 -22.18,40.19 -19.41,43 -17.89,45.98 -16.85,50.15 -16.68,55.95 -16.7,61.45 -16.46,66.25 -16.97,70.16 -17.83,74.18 -18.94,71.07 -20.46,67.25 -22.07,64.59 -24.46,60.56 -28.58,58.58 -31.77,57.38 -35.61,56.76 -39.55,57.75 -35.97,60.56 -34.43,63.68 -33.21,67.75 -32.98,71.66 -33.3,75.04 -33.85,78.38 -34.59,81.07 -35.87,85.27 -37.2,83.95 -38.2,82.94 -39.45,82.06 -41.2,81.15 -42.68,80.2 -44.92,79.75 -46.62,80.03 -47.92,81.24 -46.62,82.01 -44.31,83.34 -42.38,84.33 -41.7,85.75 -40.84,87.48 -40.16,89.49 -39.75,90.79 -38.73,93.17 -40.27,93.13 -41.16,93 -42.25,93.57 -43.15,94.07 -43.92,94.99 -44.56,96.08 -44.86,96.95 -45.13,97.98 -42.48,97.54 -40.61,97.85 -37.63,98.69 -34.88,100.85 -32.33,103.24 -31.11,106.1 -28.83,108.7 -25.75,109.72 -27.58,107.62 -28.13,106.58 -28.52,105.81 -28.85,105.18 -29.05,104.44 -29.31,103.56 -29.43,102.77 -29.35,101.32 -27.5,103.65 -24.7,106.05 -22.05,107.62 -13.79,112.04 -10.14,114.37 -6.96,116.98 -2.95,118.11 1.62,119.46 0.31,118.21 -0.79,117.28 -1.77,116.28 -2.91,115.27 -4.02,113.73 -4.93,112.28 -5.2,111.48 -5.13,110.37 -1.29,113.91 4.79,116.86 11.45,118.93 16.02,118.9 21.77,119.08 26.38,120.1 33.32,120.15 39.69,119.62 38.32,118.43 37.46,117.95 36.52,117.11 35.6,116.31 35.06,115.38 34.53,114.68 34.58,113.75 34.56,113.1 39.18,117.4 43.42,120.07 48.74,121.12 56.28,119.63 61.4,118.68 64.06,117.78 67.89,116.92 69.89,116.54 68.23,115.78 67.39,114.94 66.53,114.04 65.75,113.2 65.13,112.61 64.59,111.85 63.93,111.19 63.76,110.41 65.95,111.87 67.31,112.65 69.81,113.68 72.31,114.04 75.04,113.94 77.67,114.01 80.09,114.09 83.25,113.88 85.35,113.41 86.98,112.84 88.27,112.09 89.13,111.56 90,110.6 89.67,108.48 89.02,106.58 88.83,105.99 88.69,105.28 88.61,104.78 88.41,103.88 88.22,102.95 88.03,102.2 87.88,101.67 87.55,100.71 86.93,99.89 86.66,98.88 86.5,96.96 86.44,95.32 86.25,93.9 86.06,92.54 85.65,90.89 84.72,89.24 84.09,90.32 83.6,91.33 83.18,92.41 82.58,93.4 82.13,94.23 81.72,95 81.19,95.86 80.08,97.04 80.08,97.04" fill="#f3c700" stroke="#804b00" stroke-width="3px" vector-effect="non-scaling-stroke" id="LeftFlameBottom.Effect:Loop.Duration:500ms"><animate id="LeftFlameBottom-1" begin="LeftFlameBottom-2.begin + 0s" fill="freeze" attributeName="points" dur="500ms" to="80.08,97.04 80.25,93.8 80.21,90.92 80.21,87.1 80.08,83.14 79.44,78.2 78.58,75.2 77.49,71.17 75.33,68.08 75.22,69.45 75.18,70.55 75.03,72.3 74.84,73.53 74.31,75.06 73.61,76.72 72.99,77.82 72.05,79.36 70.08,73.85 69.68,70.1 69.74,65.6 70.24,61.81 70.24,57.48 70.17,53.99 69.87,50.4 67.8,44.86 67.52,47.45 67.21,48.93 66.86,50.4 65.97,52.7 65.35,54.44 64.65,56.32 64.09,57.92 63.16,61.16 61.65,59.08 60.39,56.66 59.17,53.63 58.06,50.87 57.24,47.9 56.63,45.13 56.56,40.08 56.64,34.44 55.32,35.06 54.71,35.91 54.14,36.75 53.61,37.49 53.13,38.52 52.48,39.49 51.98,40.4 51.24,41.85 50.73,37.99 50.32,34.98 50.87,30.47 51.78,27.12 51.96,21.71 50.8,17.77 48.71,12.31 43.85,6.74 44.44,9.74 44.47,11.78 44.74,13.74 44.79,15.35 44.74,17.18 44.62,18.8 43.96,21.06 42.7,23.02 41.13,20.94 39.67,18.1 36.52,14.08 34.49,11.34 31.31,7.57 26.57,3.76 21.77,1.08 17.11,0 18.7,3.29 19.51,6.35 20.02,9.08 20.53,12.45 21.12,15.9 21.77,19.76 21.77,22.76 20.95,27.22 19.28,24.32 17.68,21.15 16.08,18.63 14.29,16.4 11.93,14.95 8.39,13.97 5.18,13.53 1.79,13.67 4.2,17.42 5.11,20.41 5.99,24.66 6.39,28.22 6.31,31.47 6.01,34.51 5.72,37.82 5.29,42.42 3.86,41.01 2.65,39.3 1.08,37.61 -0.6,35.64 -2.88,33.75 -4.83,32.46 -6.85,31.33 -9.77,30.49 -7.25,33.73 -5.68,36.13 -4.63,39.31 -4.06,42.71 -3.8,45.99 -3.93,49.45 -4.01,52.63 -4.36,57.46 -5.32,54.12 -6.55,51.25 -8.43,48.4 -10.83,45.35 -13.31,42.88 -15.55,41.61 -18.55,40.73 -22.18,40.19 -19.41,43 -17.89,45.98 -16.85,50.15 -16.68,55.95 -16.7,61.45 -16.46,66.25 -16.97,70.16 -17.83,74.18 -18.94,71.07 -20.46,67.25 -22.07,64.59 -24.46,60.56 -28.58,58.58 -31.77,57.38 -35.61,56.76 -39.55,57.75 -35.97,60.56 -34.43,63.68 -33.21,67.75 -32.98,71.66 -33.3,75.04 -33.85,78.38 -34.59,81.07 -35.87,85.27 -37.2,83.95 -38.2,82.94 -39.45,82.06 -41.2,81.15 -42.68,80.2 -44.92,79.75 -46.62,80.03 -47.92,81.24 -46.62,82.01 -44.31,83.34 -42.38,84.33 -41.7,85.75 -40.84,87.48 -40.16,89.49 -39.75,90.79 -38.73,93.17 -40.27,93.13 -41.16,93 -42.25,93.57 -43.15,94.07 -43.92,94.99 -44.56,96.08 -44.86,96.95 -45.13,97.98 -42.48,97.54 -40.61,97.85 -37.63,98.69 -34.88,100.85 -32.33,103.24 -31.11,106.1 -28.83,108.7 -25.75,109.72 -27.58,107.62 -28.13,106.58 -28.52,105.81 -28.85,105.18 -29.05,104.44 -29.31,103.56 -29.43,102.77 -29.35,101.32 -27.5,103.65 -24.7,106.05 -22.05,107.62 -13.79,112.04 -10.14,114.37 -6.96,116.98 -2.95,118.11 1.62,119.46 0.31,118.21 -0.79,117.28 -1.77,116.28 -2.91,115.27 -4.02,113.73 -4.93,112.28 -5.2,111.48 -5.13,110.37 -1.29,113.91 4.79,116.86 11.45,118.93 16.02,118.9 21.77,119.08 26.38,120.1 33.32,120.15 39.69,119.62 38.32,118.43 37.46,117.95 36.52,117.11 35.6,116.31 35.06,115.38 34.53,114.68 34.58,113.75 34.56,113.1 39.18,117.4 43.42,120.07 48.74,121.12 56.28,119.63 61.4,118.68 64.06,117.78 67.89,116.92 69.89,116.54 68.23,115.78 67.39,114.94 66.53,114.04 65.75,113.2 65.13,112.61 64.59,111.85 63.93,111.19 63.76,110.41 65.95,111.87 67.31,112.65 69.81,113.68 72.31,114.04 75.04,113.94 77.67,114.01 80.09,114.09 83.25,113.88 85.35,113.41 86.98,112.84 88.27,112.09 89.13,111.56 90,110.6 89.67,108.48 89.02,106.58 88.83,105.99 88.69,105.28 88.61,104.78 88.41,103.88 88.22,102.95 88.03,102.2 87.88,101.67 87.55,100.71 86.93,99.89 86.66,98.88 86.5,96.96 86.44,95.32 86.25,93.9 86.06,92.54 85.65,90.89 84.72,89.24 84.09,90.32 83.6,91.33 83.18,92.41 82.58,93.4 82.13,94.23 81.72,95 81.19,95.86 80.08,97.04 80.08,97.04"/><animate id="LeftFlameBottom-2" begin="0; LeftFlameBottom-1.begin + 500ms" fill="freeze" attributeName="points" dur="500ms" to="72.05,79.36 70.08,73.85 69.68,70.1 69.74,65.6 70.24,61.81 70.24,57.48 70.17,53.99 69.87,50.4 67.8,44.86 67.52,47.45 67.21,48.93 66.86,50.4 65.97,52.7 65.35,54.44 64.65,56.32 64.09,57.92 63.16,61.16 61.65,59.08 60.39,56.66 59.17,53.63 58.06,50.87 57.24,47.9 56.63,45.13 56.56,40.08 56.64,34.44 55.32,35.06 54.71,35.91 54.14,36.75 53.61,37.49 53.13,38.52 52.48,39.49 51.98,40.4 51.24,41.85 50.73,37.99 50.32,34.98 50.87,30.47 51.78,27.12 51.96,21.71 50.8,17.77 48.71,12.31 43.85,6.74 44.44,9.74 44.47,11.78 44.74,13.74 44.79,15.35 44.74,17.18 44.62,18.8 43.96,21.06 42.7,23.02 41.13,20.94 39.67,18.1 36.52,14.08 34.49,11.34 31.31,7.57 26.57,3.76 21.77,1.08 17.11,0 18.7,3.29 19.51,6.35 20.02,9.08 20.53,12.45 21.12,15.9 21.77,19.76 21.77,22.76 20.95,27.22 19.28,24.32 17.68,21.15 16.08,18.63 14.29,16.4 11.93,14.95 8.39,13.97 5.18,13.53 1.79,13.67 4.2,17.42 5.11,20.41 5.99,24.66 6.39,28.22 6.31,31.47 6.01,34.51 5.72,37.82 5.29,42.42 3.86,41.01 2.65,39.3 1.08,37.61 -0.6,35.64 -2.88,33.75 -4.83,32.46 -6.85,31.33 -9.77,30.49 -7.25,33.73 -5.68,36.13 -4.63,39.31 -4.06,42.71 -3.8,45.99 -3.93,49.45 -4.01,52.63 -4.36,57.46 -5.32,54.12 -6.55,51.25 -8.43,48.4 -10.83,45.35 -13.31,42.88 -15.55,41.61 -18.55,40.73 -22.18,40.19 -19.41,43 -17.89,45.98 -16.85,50.15 -16.68,55.95 -16.7,61.45 -16.46,66.25 -16.97,70.16 -17.83,74.18 -18.94,71.07 -20.46,67.25 -22.07,64.59 -24.46,60.56 -28.58,58.58 -31.77,57.38 -35.61,56.76 -39.55,57.75 -35.97,60.56 -34.43,63.68 -33.21,67.75 -32.98,71.66 -33.3,75.04 -33.85,78.38 -34.59,81.07 -35.87,85.27 -37.2,83.95 -38.2,82.94 -39.45,82.06 -41.2,81.15 -42.68,80.2 -44.92,79.75 -46.62,80.03 -47.92,81.24 -46.62,82.01 -44.31,83.34 -42.38,84.33 -41.7,85.75 -40.84,87.48 -40.16,89.49 -39.75,90.79 -38.73,93.17 -40.27,93.13 -41.16,93 -42.25,93.57 -43.15,94.07 -43.92,94.99 -44.56,96.08 -44.86,96.95 -45.13,97.98 -42.48,97.54 -40.61,97.85 -37.63,98.69 -34.88,100.85 -32.33,103.24 -31.11,106.1 -28.83,108.7 -25.75,109.72 -27.58,107.62 -28.13,106.58 -28.52,105.81 -28.85,105.18 -29.05,104.44 -29.31,103.56 -29.43,102.77 -29.35,101.32 -27.5,103.65 -24.7,106.05 -22.05,107.62 -13.79,112.04 -10.14,114.37 -6.96,116.98 -2.95,118.11 1.62,119.46 0.31,118.21 -0.79,117.28 -1.77,116.28 -2.91,115.27 -4.02,113.73 -4.93,112.28 -5.2,111.48 -5.13,110.37 -1.29,113.91 4.79,116.86 11.45,118.93 16.02,118.9 21.77,119.08 26.38,120.1 33.32,120.15 39.69,119.62 38.32,118.43 37.46,117.95 36.52,117.11 35.6,116.31 35.06,115.38 34.53,114.68 34.58,113.75 34.56,113.1 39.18,117.4 43.42,120.07 48.74,121.12 56.28,119.63 61.4,118.68 64.06,117.78 67.89,116.92 69.89,116.54 68.23,115.78 67.39,114.94 66.53,114.04 65.75,113.2 65.13,112.61 64.59,111.85 63.93,111.19 63.76,110.41 65.95,111.87 67.31,112.65 69.81,113.68 72.31,114.04 75.04,113.94 77.67,114.01 80.09,114.09 83.25,113.88 85.35,113.41 86.98,112.84 88.27,112.09 89.13,111.56 90,110.6 89.67,108.48 89.02,106.58 88.83,105.99 88.69,105.28 88.61,104.78 88.41,103.88 88.22,102.95 88.03,102.2 87.88,101.67 87.55,100.71 86.93,99.89 86.66,98.88 86.5,96.96 86.44,95.32 86.25,93.9 86.06,92.54 85.65,90.89 84.72,89.24 84.09,90.32 83.6,91.33 83.18,92.41 82.58,93.4 82.13,94.23 81.72,95 81.19,95.86 80.08,97.04 80.25,93.8 80.21,90.92 80.21,87.1 80.08,83.14 79.44,78.2 78.58,75.2 77.49,71.17 75.33,68.08 75.22,69.45 75.18,70.55 75.03,72.3 74.84,73.53 74.31,75.06 73.61,76.72 72.99,77.82 72.05,79.36 72.05,79.36"/></polygon><polygon points="78.34,110.51 77.16,106.8 75.41,105.69 74.84,104 74.53,99.89 74.92,94.58 74.13,89.41 73.67,90.36 73.67,91.45 73.21,92.29 72.92,92.88 72.29,93.5 71.77,94.15 71.46,94.72 70.67,95.79 69.86,88.52 68.64,85.38 67.55,82.25 66.55,78.73 66.04,75.6 65.75,73.02 65.54,67.52 64.65,68.07 64.3,68.97 63.93,69.87 63.88,70.59 63.67,71.8 63.44,72.88 63.31,74.66 63.12,75.45 61.38,72.57 60.12,70.32 58.3,67.49 56.23,64.31 55.14,61.51 53.89,59.43 52.64,56.35 51.5,52.45 50.05,53.49 49.76,55.08 49.69,56.39 49.42,58.23 49.42,60.24 49.47,61.46 49.41,63.53 49.3,65.14 46.87,60.59 45.79,56.75 45.67,54.1 45.59,50.52 45.46,47.95 45.32,45.26 44.65,41.98 44.34,36.84 43.1,39.8 42.61,41.26 42.21,43.28 41.36,44.73 40.5,45.96 40.16,47.56 39.33,49.92 38.76,51.57 38.3,44.27 38.17,40.85 38.08,38.2 37.27,35.12 35.78,32.66 33.87,31.03 32.86,29.81 32.56,32.9 32.3,34.78 31.51,36.61 30.83,37.6 29.36,39.43 28.02,40.85 26.69,42.48 25.58,43.37 22.85,42.52 21.48,40.53 20.31,38.56 18.57,36.04 17.96,35.35 16.47,33.51 15.45,32.81 14.31,31.86 13.72,33.59 13.32,37.1 13.1,40.94 12.75,43.42 12.13,47.12 11.87,49.09 10.96,52.19 10.25,54.85 9.07,53.94 8.08,53.49 7.44,53.09 6.49,52.57 5.89,52.1 5.4,51.89 4.51,51.46 4.81,53.33 4.54,55.54 4.45,58.51 4.12,61.31 3.79,64.31 3.22,66.6 2.35,69.59 0.59,72.47 -0.61,71.65 -1.67,70.73 -2.79,69.75 -3.88,69.07 -4.64,67.79 -5.24,66.89 -6.14,66.46 -7.29,66.35 -7.19,68.35 -7.63,71.54 -8.73,74.64 -9.52,77.13 -10.58,79.49 -11.41,81.36 -12.31,84.29 -14.2,86.88 -17.99,85.58 -18.51,84.32 -19.48,82.95 -19.81,82.19 -20.37,81.41 -21.67,80.36 -23.08,79.26 -25.11,78.36 -25.25,80.61 -25.96,84.1 -26.47,86.05 -27.09,87.81 -27.97,89.88 -28.99,91.58 -29.77,93.27 -31.21,93.93 -25.99,102.02 -24.26,105.16 -22.14,106.99 -18.72,109.88 -16.26,112.01 -12.71,114.15 -6.84,116.93 -3.06,117.46 -3.96,115.69 -4.53,114.73 -5.1,112.97 -4.89,111.53 -4.39,110.76 -3.54,109.66 -3.07,108.41 -2.85,111.12 0,112.82 5,114.63 10.45,117.72 15.56,121.15 22.95,122.51 74.94,130.6 82.93,132.54 90,133.58 92.88,129.38 93.29,125.22 91.65,121.12 90,117.9 87.92,114.87 85.71,114.4 82.72,112.67 78.34,110.51 78.34,110.51" fill="#f9ef42" stroke="#996900" stroke-width="3px" vector-effect="non-scaling-stroke" id="LeftFlameBottomInside.Effect:Loop.Duration:500ms"><animate id="LeftFlameBottomInside-1" begin="LeftFlameBottomInside-2.begin + 0s" fill="freeze" attributeName="points" dur="500ms" to="78.34,110.51 77.16,106.8 75.41,105.69 74.84,104 74.53,99.89 74.92,94.58 74.13,89.41 73.67,90.36 73.67,91.45 73.21,92.29 72.92,92.88 72.29,93.5 71.77,94.15 71.46,94.72 70.67,95.79 69.86,88.52 68.64,85.38 67.55,82.25 66.55,78.73 66.04,75.6 65.75,73.02 65.54,67.52 64.65,68.07 64.3,68.97 63.93,69.87 63.88,70.59 63.67,71.8 63.44,72.88 63.31,74.66 63.12,75.45 61.38,72.57 60.12,70.32 58.3,67.49 56.23,64.31 55.14,61.51 53.89,59.43 52.64,56.35 51.5,52.45 50.05,53.49 49.76,55.08 49.69,56.39 49.42,58.23 49.42,60.24 49.47,61.46 49.41,63.53 49.3,65.14 46.87,60.59 45.79,56.75 45.67,54.1 45.59,50.52 45.46,47.95 45.32,45.26 44.65,41.98 44.34,36.84 43.1,39.8 42.61,41.26 42.21,43.28 41.36,44.73 40.5,45.96 40.16,47.56 39.33,49.92 38.76,51.57 38.3,44.27 38.17,40.85 38.08,38.2 37.27,35.12 35.78,32.66 33.87,31.03 32.86,29.81 32.56,32.9 32.3,34.78 31.51,36.61 30.83,37.6 29.36,39.43 28.02,40.85 26.69,42.48 25.58,43.37 22.85,42.52 21.48,40.53 20.31,38.56 18.57,36.04 17.96,35.35 16.47,33.51 15.45,32.81 14.31,31.86 13.72,33.59 13.32,37.1 13.1,40.94 12.75,43.42 12.13,47.12 11.87,49.09 10.96,52.19 10.25,54.85 9.07,53.94 8.08,53.49 7.44,53.09 6.49,52.57 5.89,52.1 5.4,51.89 4.51,51.46 4.81,53.33 4.54,55.54 4.45,58.51 4.12,61.31 3.79,64.31 3.22,66.6 2.35,69.59 0.59,72.47 -0.61,71.65 -1.67,70.73 -2.79,69.75 -3.88,69.07 -4.64,67.79 -5.24,66.89 -6.14,66.46 -7.29,66.35 -7.19,68.35 -7.63,71.54 -8.73,74.64 -9.52,77.13 -10.58,79.49 -11.41,81.36 -12.31,84.29 -14.2,86.88 -17.99,85.58 -18.51,84.32 -19.48,82.95 -19.81,82.19 -20.37,81.41 -21.67,80.36 -23.08,79.26 -25.11,78.36 -25.25,80.61 -25.96,84.1 -26.47,86.05 -27.09,87.81 -27.97,89.88 -28.99,91.58 -29.77,93.27 -31.21,93.93 -25.99,102.02 -24.26,105.16 -22.14,106.99 -18.72,109.88 -16.26,112.01 -12.71,114.15 -6.84,116.93 -3.06,117.46 -3.96,115.69 -4.53,114.73 -5.1,112.97 -4.89,111.53 -4.39,110.76 -3.54,109.66 -3.07,108.41 -2.85,111.12 0,112.82 5,114.63 10.45,117.72 15.56,121.15 22.95,122.51 74.94,130.6 82.93,132.54 90,133.58 92.88,129.38 93.29,125.22 91.65,121.12 90,117.9 87.92,114.87 85.71,114.4 82.72,112.67 78.34,110.51 78.34,110.51"/><animate id="LeftFlameBottomInside-2" begin="0; LeftFlameBottomInside-1.begin + 500ms" fill="freeze" attributeName="points" dur="500ms" to="70.67,95.79 69.86,88.52 68.64,85.38 67.55,82.25 66.55,78.73 66.04,75.6 65.75,73.02 65.54,67.52 64.65,68.07 64.3,68.97 63.93,69.87 63.88,70.59 63.67,71.8 63.44,72.88 63.31,74.66 63.12,75.45 61.38,72.57 60.12,70.32 58.3,67.49 56.23,64.31 55.14,61.51 53.89,59.43 52.64,56.35 51.5,52.45 50.05,53.49 49.76,55.08 49.69,56.39 49.42,58.23 49.42,60.24 49.47,61.46 49.41,63.53 49.3,65.14 46.87,60.59 45.79,56.75 45.67,54.1 45.59,50.52 45.46,47.95 45.32,45.26 44.65,41.98 44.34,36.84 43.1,39.8 42.61,41.26 42.21,43.28 41.36,44.73 40.5,45.96 40.16,47.56 39.33,49.92 38.76,51.57 38.3,44.27 38.17,40.85 38.08,38.2 37.27,35.12 35.78,32.66 33.87,31.03 32.86,29.81 32.56,32.9 32.3,34.78 31.51,36.61 30.83,37.6 29.36,39.43 28.02,40.85 26.69,42.48 25.58,43.37 22.85,42.52 21.48,40.53 20.31,38.56 18.57,36.04 17.96,35.35 16.47,33.51 15.45,32.81 14.31,31.86 13.72,33.59 13.32,37.1 13.1,40.94 12.75,43.42 12.13,47.12 11.87,49.09 10.96,52.19 10.25,54.85 9.07,53.94 8.08,53.49 7.44,53.09 6.49,52.57 5.89,52.1 5.4,51.89 4.51,51.46 4.81,53.33 4.54,55.54 4.45,58.51 4.12,61.31 3.79,64.31 3.22,66.6 2.35,69.59 0.59,72.47 -0.61,71.65 -1.67,70.73 -2.79,69.75 -3.88,69.07 -4.64,67.79 -5.24,66.89 -6.14,66.46 -7.29,66.35 -7.19,68.35 -7.63,71.54 -8.73,74.64 -9.52,77.13 -10.58,79.49 -11.41,81.36 -12.31,84.29 -14.2,86.88 -17.99,85.58 -18.51,84.32 -19.48,82.95 -19.81,82.19 -20.37,81.41 -21.67,80.36 -23.08,79.26 -25.11,78.36 -25.25,80.61 -25.96,84.1 -26.47,86.05 -27.09,87.81 -27.97,89.88 -28.99,91.58 -29.77,93.27 -31.21,93.93 -25.99,102.02 -24.26,105.16 -22.14,106.99 -18.72,109.88 -16.26,112.01 -12.71,114.15 -6.84,116.93 -3.06,117.46 -3.96,115.69 -4.53,114.73 -5.1,112.97 -4.89,111.53 -4.39,110.76 -3.54,109.66 -3.07,108.41 -2.85,111.12 0,112.82 5,114.63 10.45,117.72 15.56,121.15 22.95,122.51 74.94,130.6 82.93,132.54 90,133.58 92.88,129.38 93.29,125.22 91.65,121.12 90,117.9 87.92,114.87 85.71,114.4 82.72,112.67 78.34,110.51 77.16,106.8 75.41,105.69 74.84,104 74.53,99.89 74.92,94.58 74.13,89.41 73.67,90.36 73.67,91.45 73.21,92.29 72.92,92.88 72.29,93.49 71.77,94.14 71.46,94.72 70.67,95.79 70.67,95.79"/></polygon><polyline points="62.76,92.47 62.94,95.03 63.72,97.55 64.76,99.18 65.52,100.86" fill="none" stroke="#804b00" stroke-width="3px" vector-effect="non-scaling-stroke" id="Line.Effect:Default.Duration:1000ms.Type:Line"><animate attributeName="points" values="62.76,92.47 62.94,95.03 63.72,97.55 64.76,99.18 65.52,100.86;62.76,90.22 62.94,92.78 63.72,95.3 64.76,96.93 65.52,98.61;62.76,92.47 62.94,95.03 63.72,97.55 64.76,99.18 65.52,100.86" dur="1000ms" begin="0s" fill="freeze" repeatCount="indefinite"/></polyline><polyline points="54.87,91.81 55.26,95.07 56.31,98.18 57.1,99.71 57.66,101.28" fill="none" stroke="#804b00" stroke-width="3px" vector-effect="non-scaling-stroke" id="Line1.Effect:Default.Duration:1000ms.Type:Line"><animate attributeName="points" values="54.87,91.81 55.26,95.07 56.31,98.18 57.1,99.71 57.66,101.28;54.87,90.31 55.26,93.57 56.31,96.68 57.1,98.21 57.66,99.78;54.87,91.81 55.26,95.07 56.31,98.18 57.1,99.71 57.66,101.28" dur="1000ms" begin="0s" fill="freeze" repeatCount="indefinite"/></polyline><polyline points="57.88,90.23 58.33,94 59.5,97.62 60.69,99.49 61.6,101.44" fill="none" stroke="#804b00" stroke-width="3px" vector-effect="non-scaling-stroke" id="Line2.Effect:Default.Duration:1000ms.Type:Line"><animate attributeName="points" values="57.88,90.23 58.33,94 59.5,97.62 60.69,99.49 61.6,101.44;57.88,89.48 58.33,93.25 59.5,96.87 60.69,98.74 61.6,100.69;57.88,90.23 58.33,94 59.5,97.62 60.69,99.49 61.6,101.44" dur="1000ms" begin="0s" fill="freeze" repeatCount="indefinite"/></polyline><polyline points="46.35,85.45 46.27,87.53 46.32,89.61 47.32,93.27 48.77,96.81 49.72,98.59 50.81,100.3 51.21,100.8 51.49,101.35" fill="none" stroke="#804b00" stroke-width="3px" vector-effect="non-scaling-stroke" id="Line3.Effect:Default.Duration:1000ms.Type:Line"><animate attributeName="points" values="46.35,85.45 46.27,87.53 46.32,89.61 47.32,93.27 48.77,96.81 49.72,98.59 50.81,100.3 51.21,100.8 51.49,101.35;46.35,83.95 46.27,86.03 46.32,88.11 47.32,91.77 48.77,95.31 49.72,97.09 50.81,98.8 51.21,99.3 51.49,99.85;46.35,85.45 46.27,87.53 46.32,89.61 47.32,93.27 48.77,96.81 49.72,98.59 50.81,100.3 51.21,100.8 51.49,101.35" dur="1000ms" begin="0s" fill="freeze" repeatCount="indefinite"/></polyline></svg>