<?xml version="1.0" encoding="UTF-8" standalone="no"?><!DOCTYPE svg PUBLIC "-//W3C//DTD SVG 1.1//EN" "http://www.w3.org/Graphics/SVG/1.1/DTD/svg11.dtd"><svg width="100%" height="100%" viewBox="0 0 720 405" version="1.1" xmlns="http://www.w3.org/2000/svg" xmlns:xlink="http://www.w3.org/1999/xlink" xml:space="preserve" xmlns:serif="http://www.serif.com/" style="fill-rule:evenodd;clip-rule:evenodd;stroke-linejoin:round;stroke-miterlimit:2;"><path d="M153.416,329.519l-48.751,-15.916l-42.006,-25.024l-26.423,-30.657l-19.769,-44.798l-7.359,-34.355l8.216,-54.348l14.972,-30.517l25.639,-35.789l37.954,-30.331l70.833,-13.771l88.393,-6.144l96.548,-7.869l71.596,4.661l76.421,4.185l100.56,12.407l60.459,24.005l25.151,42.401l22.349,62.226l2.693,42.277l-5.718,42.663l-29.431,45.344l-42.342,34.715l-60.159,18.075l-52.796,13.599l-173.377,5.649l-120.335,-13.524c-10.624,9.418 -21.561,17.984 -33.416,25.248c-46.456,28.46 -89.916,41.069 -142.558,41.069c-3.253,0 -50.47,-0.523 -50.757,-0.878c-0.137,-0.17 3.873,-1.443 4.39,-1.573c5.504,-1.381 10.839,-3.624 16.499,-4.993c15.311,-3.705 31.288,-6.72 46.33,-11.575c40.935,-13.212 62.07,-27.761 86.194,-56.462Z" style="fill:#fff;"/><path d="M146.504,331.452c-10.847,12.418 -21.321,21.988 -33.702,29.96c-12.757,8.214 -27.525,14.735 -46.738,20.983c-5.929,1.928 -12.008,3.566 -18.133,5.074c-9.309,2.291 -18.725,4.283 -27.901,6.523c-1.181,0.289 -2.349,0.612 -3.507,0.958c-4.399,1.316 -8.652,2.973 -13.014,4.077c-0.462,0.117 -3.392,1.046 -4.523,1.525c-0.766,0.325 -1.237,0.696 -1.426,0.871c-0.739,0.687 -0.992,1.409 -1.101,1.928c-0.243,1.145 0.007,2.159 0.727,3.047c0.111,0.136 0.987,1.26 3.07,1.399c0.794,0.053 2.458,0.109 4.723,0.163c12.358,0.291 43.173,0.564 45.781,0.559c26.923,-0.055 51.468,-3.364 75.222,-10.347c23.265,-6.838 45.775,-17.198 69.015,-31.501c6.046,-3.721 11.856,-7.775 17.507,-12.106c5.203,-3.987 10.272,-8.208 15.267,-12.62c-0,0 119.182,13.172 119.182,13.172l0.21,-0.007l173.656,-5.952l0.278,-0.071l52.824,-13.694c0.048,-0.015 60.645,-18.322 60.645,-18.322l0.375,-0.308l42.586,-34.998l0.2,-0.309l29.659,-45.812l0.069,-0.513l5.697,-42.891l-0.014,-0.221l-2.755,-42.586l-0.105,-0.294l-22.464,-62.404l-0.105,-0.178l-25.537,-43.024l-0.681,-0.27l-60.711,-24.122l-0.275,-0.034l-100.629,-12.467c-0.075,-0.005 -76.477,-4.276 -76.477,-4.276c-0,0 -71.756,-4.764 -71.756,-4.764l-0.175,0.014l-96.541,7.706c0,-0 -88.562,5.977 -88.562,5.977l-0.165,0.032l-71.56,13.755l-0.555,0.443l-38.357,30.495l-0.243,0.339l-25.882,35.934l-0.114,0.233l-15.268,30.923l-0.075,0.49l-8.447,54.932l0.129,0.599l7.345,34.719l0.143,0.323l19.857,45.343l0.348,0.404l26.726,31.191l0.517,0.308l42.3,25.368l0.407,0.133l43.033,14.191Zm-124.587,69.629c9.138,-2.188 18.511,-4.134 27.779,-6.373c6.31,-1.524 12.572,-3.184 18.683,-5.141c19.98,-6.4 35.328,-13.144 48.614,-21.615c14.522,-9.26 26.59,-20.587 39.485,-35.859l-1.82,-6.376l-48.402,-15.643c-0,-0 -41.193,-24.375 -41.193,-24.375c-0,-0 -25.77,-29.721 -25.77,-29.721c-0,-0 -19.535,-43.93 -19.535,-43.93c0,-0 -7.242,-33.391 -7.242,-33.391c-0,-0 7.913,-53.273 7.913,-53.273c0,-0 14.563,-29.877 14.563,-29.877c0,0 25.155,-35.304 25.155,-35.304c-0,0 36.997,-29.722 36.997,-29.722c-0,-0 69.94,-13.753 69.94,-13.753c0,-0 88.223,-6.31 88.223,-6.31c0.016,-0.001 96.379,-8.018 96.379,-8.018c-0,0 71.435,4.557 71.435,4.557c0.012,0.001 76.364,4.096 76.364,4.096c0,-0 100.216,12.311 100.216,12.311c-0,-0 59.525,23.619 59.525,23.619c0,-0 24.659,41.6 24.659,41.6c0,0 22.13,61.753 22.13,61.753c0,-0 2.617,41.744 2.617,41.744c0,0 -5.669,41.924 -5.669,41.924c-0,-0 -29.001,44.567 -29.001,44.567c-0,-0 -41.722,34.124 -41.722,34.124c-0,0.001 -59.673,17.829 -59.673,17.829c0,0 -52.489,13.433 -52.489,13.433c-0,0 -172.889,5.34 -172.889,5.34c0,0 -121.489,-13.879 -121.489,-13.879l-1.041,0.924c-5.234,4.62 -10.543,9.033 -16.003,13.181c-5.495,4.176 -11.142,8.084 -17.017,11.667c-22.762,13.881 -44.786,23.93 -67.542,30.519c-23.173,6.71 -47.104,9.825 -73.337,9.772c-1.73,-0.003 -15.921,-0.181 -28.843,-0.4Z"/></svg>