<?xml version="1.0" encoding="UTF-8" standalone="no"?><!DOCTYPE svg PUBLIC "-//W3C//DTD SVG 1.1//EN" "http://www.w3.org/Graphics/SVG/1.1/DTD/svg11.dtd"><svg width="100%" height="100%" viewBox="0 0 720 405" version="1.1" xmlns="http://www.w3.org/2000/svg" xmlns:xlink="http://www.w3.org/1999/xlink" xml:space="preserve" xmlns:serif="http://www.serif.com/" style="fill-rule:evenodd;clip-rule:evenodd;stroke-linejoin:round;stroke-miterlimit:2" fill-rule="evenodd" clip-rule="evenodd" stroke-linejoin="round" stroke-miterlimit="2" vector-effect="non-scaling-stroke"><path d="M153.416,334.867l-48.751,-13.852l-42.006,-21.781l-26.423,-26.683l-19.769,-38.991l-7.359,-29.901l8.216,-47.303l14.972,-26.561l25.639,-31.149l37.954,-26.4l70.833,-11.986l88.393,-5.347l96.548,-6.849l71.596,4.056l76.421,3.643l100.56,10.798l60.459,20.894l25.151,36.905l22.349,54.159l2.693,36.796l-5.718,37.133l-29.431,39.466l-42.342,30.215l-60.159,15.732l-52.796,11.836l-173.377,4.917l-120.335,-11.771c-10.624,8.198 -21.561,15.653 -33.416,21.975c-46.456,24.771 -89.916,35.746 -142.558,35.746c-3.253,-0 -50.47,-0.455 -50.757,-0.765c-0.137,-0.148 3.873,-1.256 4.39,-1.369c5.504,-1.202 10.839,-3.154 16.499,-4.346c15.311,-3.224 31.288,-5.849 46.33,-10.074c40.935,-11.5 62.07,-24.162 86.194,-49.143Z" style="fill:#fff"/><path d="M145.841,336.851c-10.774,10.627 -21.24,18.827 -33.639,25.673c-12.593,6.954 -27.162,12.519 -46,17.857c-5.948,1.686 -12.046,3.118 -18.19,4.436c-9.301,1.995 -18.708,3.73 -27.875,5.681l-16.518,4.387c-0.456,0.101 -3.337,0.896 -4.461,1.31c-0.703,0.259 -1.155,0.554 -1.339,0.696c-1.293,0.996 -1.436,2.184 -1.438,2.881c-0.003,0.902 0.279,1.748 0.97,2.489c0.104,0.112 0.975,1.091 2.939,1.205c0.792,0.046 2.449,0.093 4.703,0.139c12.356,0.249 43.16,0.476 45.767,0.471c26.623,-0.056 50.917,-2.886 74.424,-8.843c23.487,-5.952 46.19,-15.024 69.639,-27.591c6.012,-3.222 11.789,-6.729 17.41,-10.476c5.26,-3.506 10.382,-7.22 15.43,-11.104c0,0.001 119.306,11.442 119.306,11.442l0.182,-0.006l173.618,-5.223l0.243,-0.055l52.82,-11.931c0.042,-0.011 60.606,-15.944 60.606,-15.944l0.361,-0.257l42.603,-30.48l0.219,-0.293l29.722,-39.958l0.087,-0.561l5.712,-37.391l-0.019,-0.253l-2.753,-37.146l-0.134,-0.327l-22.474,-54.351l-0.127,-0.185l-25.562,-37.485l-0.673,-0.233l-60.686,-20.987l-0.243,-0.026l-100.62,-10.862c-0.065,-0.003 -76.469,-3.734 -76.469,-3.734c-0,-0 -71.736,-4.166 -71.736,-4.166l-0.154,0.011l-96.541,6.68c-0,0 -88.544,5.167 -88.544,5.167l-0.147,0.024l-71.508,11.93l-0.539,0.375l-38.37,26.54l-0.269,0.326l-25.898,31.296l-0.137,0.243l-15.317,27.008l-0.096,0.551l-8.462,47.978l0.169,0.686l7.374,30.305l0.179,0.352l19.907,39.551l0.396,0.4l26.751,27.177l0.516,0.268l42.285,22.088l0.373,0.106l42.227,12.14l0,-0.001Zm-119.705,59.904c7.747,-1.556 15.621,-3.012 23.422,-4.649c6.31,-1.324 12.572,-2.766 18.683,-4.468c19.53,-5.438 34.629,-11.164 47.701,-18.305c14.911,-8.145 27.2,-18.131 40.352,-31.687l-1.784,-6.626l-48.431,-13.601c-0,-0 -41.21,-21.208 -41.21,-21.208c-0,0 -25.697,-25.791 -25.697,-25.791c-0,-0 -19.448,-38.079 -19.448,-38.079c-0,0 -7.173,-28.811 -7.173,-28.811c0,0 7.877,-46.076 7.877,-46.076c0,0 14.492,-25.87 14.492,-25.87c0,0 25.113,-30.675 25.113,-30.675c-0,-0 36.999,-25.883 36.999,-25.883c0,0 70.011,-12.014 70.011,-12.014c0,-0 88.241,-5.528 88.241,-5.528c0.013,-0.001 96.4,-7.007 96.4,-7.007c-0,0 71.454,3.948 71.454,3.948c0.011,0 76.372,3.551 76.372,3.551c0,-0 100.256,10.708 100.256,10.708c0,0 59.559,20.568 59.559,20.568c0,-0 24.613,36.138 24.613,36.138c-0,0 22.09,53.641 22.09,53.641c0,0 2.615,36.192 2.615,36.192c0,0 -5.637,36.314 -5.637,36.314c-0,-0 -28.92,38.681 -28.92,38.681c0,0 -41.719,29.694 -41.719,29.694c-0,-0 -59.711,15.52 -59.711,15.52c0,0 -52.528,11.688 -52.528,11.688c0,-0 -172.954,4.605 -172.954,4.605c0,-0 -121.366,-12.103 -121.366,-12.103l-0.977,0.754c-5.262,4.042 -10.6,7.901 -16.09,11.527c-5.467,3.611 -11.085,6.991 -16.929,10.091c-23.001,12.203 -45.252,21 -68.264,26.729c-23.002,5.727 -46.763,8.383 -72.788,8.328c-1.543,-0.003 -12.997,-0.13 -24.624,-0.296Z"/></svg>