<svg viewBox="0 0 1889 2093" xmlns="http://www.w3.org/2000/svg" xml:space="preserve" style="fill-rule:evenodd;clip-rule:evenodd;stroke-linejoin:round;stroke-miterlimit:2" fill-rule="evenodd" clip-rule="evenodd" stroke-linejoin="round" stroke-miterlimit="2" stroke-width="5px" vector-effect="non-scaling-stroke"><path d="M865.188 1341.32c-10.279 7.813-15.775 1.581-10.359-10.285 9.123-19.986 19.373-40.12 33.738-56.895 17.868-20.866 43.087-34.038 64.551-50.685 13.271-10.293 24.91-23.061 38.782-32.514 28.485-19.411 76.062-15.13 48.878-58.818-14.823-23.821-41.807-33.429-66.408-43.751-33.42-14.023-77.439-25.397-113.963-22.229-52.44 4.548-109.414 36.02-153.805 61.684-27.704 16.017-62.537 32.471-81.022 59.762-18.869 27.861 2.75 46.732 25.77 60.732 25.519 15.52 53.719 23.389 80.488 36.095 20.254 9.614 37.624 23.86 58.177 33.475 15.199 7.111 32.192 17.06 48.614 20.554 3.804.809 35.862 5.181 24.439 0" style="fill:#fff"/><path d="M845.897 1349.75c4.242 5.364 13.584 8.784 25.594-.133a10.343 10.343 0 0 0 3.766-5.644c.613-1.626.762-3.367.547-5.186-.202-1.7-1.278-6.471-8.433-9.825l-.417-.176c4.348-9.536 9.029-19.021 14.41-28.052 4.279-7.184 8.982-14.091 14.334-20.484 4.942-5.904 10.504-11.171 16.419-16.068 14.702-12.173 31.397-22.228 46.236-33.974 9.304-7.365 17.801-15.932 26.823-23.741 3.627-3.138 7.338-6.154 11.252-8.878 8.801-6.126 19.615-9.774 29.188-13.464 9.046-3.488 17.106-7.101 22.438-11.978 9.423-8.619 13.145-21.239-1.167-43.821-6.566-10.372-15.193-18.285-24.965-24.705-13.756-9.039-29.796-15.094-44.991-21.35-17.086-7.063-36.871-13.425-57.037-17.624-20.394-4.246-41.177-6.284-60.015-4.583-21.687 1.902-44.113 8.314-66.177 16.938-32.141 12.562-63.521 29.891-90.329 45.243-16.791 9.563-36.128 19.305-53.033 31.409-11.962 8.564-22.704 18.321-30.695 29.919-9.102 13.212-10.188 24.889-7.004 35.143 4.537 14.609 19.086 26.65 34.635 36.307 7.865 4.885 15.988 9.055 24.244 12.876 18.617 8.616 37.955 15.334 56.573 24.41 15.962 7.789 30.038 18.531 45.413 27.481 4.065 2.367 8.219 4.609 12.502 6.669 9.092 4.376 18.82 9.762 28.69 14.199 7.256 3.262 14.6 5.994 21.84 7.625 1.194.268 4.927.876 9.359 1.467Zm-1.291-20.556c.295-.775.631-1.562 1.007-2.362 5.771-12.278 11.959-24.605 19.221-36.197 4.979-7.948 10.441-15.564 16.602-22.598 5.815-6.638 12.311-12.545 19.207-18.014 15.068-11.949 32.059-21.778 47.241-33.314 9.249-7.028 17.714-15.266 26.696-22.734 4.128-3.431 8.354-6.713 12.792-9.674 9.974-6.653 22.059-10.672 32.835-14.6 7.1-2.588 13.586-4.988 17.805-8.719 5.516-4.878 4.693-11.898-3.343-25.053-5.314-8.689-12.427-15.311-20.458-20.754-12.909-8.751-28.086-14.575-42.403-20.695-16.32-6.949-35.23-13.287-54.541-17.486-19.12-4.157-38.629-6.238-56.333-4.765-20.584 1.766-41.903 7.769-62.816 16.019-31.512 12.431-62.095 29.883-88.286 45.169-16.284 9.555-35.096 19.25-51.442 31.312-10.498 7.747-19.952 16.487-26.874 26.884-7.322 11.004-7.006 20.139-2.223 27.894 5.467 8.863 15.737 15.931 26.131 22.119 7.389 4.4 15.007 8.13 22.744 11.526 18.899 8.297 38.496 14.64 57.415 23.379 16.508 7.62 31.185 18.245 47.117 27.067 3.686 2.041 7.446 3.971 11.321 5.734 9.034 4.106 18.707 9.213 28.511 13.354 6.061 2.56 12.171 4.723 18.189 5.929.611.122 2.027.337 3.885.579Z"/><path d="M868.926 1306.52c-9.768-1.248 2.877-71.906-2.212-80.561-27.717-47.148-76.881-95.241-124.038-122.131-68.322-38.959-145.009 18.149-200.38 53.719-62.013 39.836-126.611 69.357-185.048 115.821-51.787 41.177-90.768 93.388-133.37 143.444-24.545 28.839-33.145 59.912-47.678 93.921-11.121 26.026-26.463 49.852-36.345 76.516-14.456 39.006-21.943 80.354-35.335 119.729-22.502 66.161-56.596 127.713-75.351 195.359-9.884 35.646-41.069 142.112 8.661 164.436 62.602 28.104 136.59 8.847 202.06 5.702 39.571-1.901 78.812 3.716 118.358 2.104 94.638-3.858 188.806-13.179 282.742-22.21 44.078-4.237 89.694 3.322 133.36-5.702 13.019-2.69 39.689-8.513 46.688-21.003 7.033-12.552-19.071-59.444-23.344-71.722-17.176-49.355-26.066-110.105-18.333-162.034 8.359-56.134 25.147-107.897 38.676-162.642 6.899-27.915 9.195-54.998 19.663-82.229 10.629-27.65 31.484-47.51 44.347-72.918 13.436-26.541 14.954-57.193 25.343-85.218 8.718-23.516 19.893-46.721 33.676-67.516 36.448-54.991-49.845-12.017-72.14-14.865Z" style="fill:#ffd78b"/><path d="M875.621 1295.93c-1.057-13.44 1.939-38.786 2.419-55.027.293-9.872-.958-17.276-2.616-20.071-14.34-24.183-34.156-48.61-56.49-70.41-22.372-21.835-47.251-41.043-71.585-54.797-29.949-16.927-61.285-17.141-91.978-8.529-42.702 11.982-84.131 41.399-117.755 63.159-43.442 28.113-88.177 51.142-131.142 78.523-18.453 11.76-36.584 24.311-54.157 38.381-20.965 16.784-39.849 35.346-57.719 54.84-26.494 28.902-50.749 59.86-76.302 90.055-10.102 11.938-17.608 24.225-23.908 36.929-9.268 18.692-15.882 38.291-24.654 58.98-7.706 18.148-17.482 35.224-25.999 52.95-3.756 7.817-7.274 15.755-10.291 23.953-4.374 11.884-8.113 23.979-11.566 36.171-7.906 27.921-14.288 56.352-23.562 83.824-15.647 46.262-36.978 90.275-54.745 135.696-7.698 19.681-14.736 39.623-20.383 60.115-6.783 24.552-23.257 82.063-17.751 123.812 2.9 21.995 11.865 39.725 29.91 47.813 25.966 11.64 53.814 15.431 82.236 15.546 41.075.165 83.365-7.425 122.6-9.286 7.78-.364 15.547-.433 23.306-.322 31.693.455 63.253 3.84 95.014 2.591 37.899-1.469 75.724-3.818 113.492-6.663 56.667-4.27 113.202-9.667 169.652-14.966 30.702-2.868 62.137.033 93.143-1.01 13.789-.463 27.494-1.692 41.023-4.45 9.325-1.9 25.251-5.393 36.874-11.491 6.631-3.478 11.907-7.895 14.778-12.987 3.072-5.445 2.339-16.135-1.655-28.327-6.037-18.424-18.154-41.425-20.934-49.496-8.335-24.197-14.626-51.177-17.876-78.463-3.232-27.142-3.447-54.59.401-79.875 3.372-22.122 8.072-43.551 13.362-64.752 8.063-32.321 17.493-64.116 25.746-96.994 4.921-19.604 7.565-38.805 12.374-57.928 1.942-7.723 4.251-15.432 7.251-23.152 2.959-7.613 6.768-14.579 10.952-21.239 10.835-17.25 24.049-32.587 33.301-50.698 4.353-8.522 7.563-17.441 10.214-26.569 5.689-19.586 8.619-40.194 15.86-59.51 4.28-11.408 9.156-22.737 14.645-33.735 5.471-10.962 11.558-21.59 18.273-31.633 18.692-27.956 9.223-39.711-3.031-42.883-7.74-2.003-21.027-.069-35.12 3.393-10.577 2.599-21.725 5.849-30.732 7.656-1.744.349-3.379.66-4.875.876Zm-18.101-65.68c.075 1.162.361 5.999.213 9.975-.678 18.213-4.135 47.247-2.48 60.634.705 5.695 2.616 9.649 4.503 11.784 2.23 2.525 4.918 3.816 7.85 4.202 5.041.623 12.829-.424 21.805-2.563 12.731-3.033 28.461-8.07 40.873-10.131 2.767-.459 6.32-.556 8.673-.559-1.126 2.873-3.271 7.811-6.205 12.276-7.087 10.788-13.502 22.193-19.255 33.952-5.699 11.649-10.756 23.64-15.177 35.711-7.27 19.833-10.201 40.934-15.88 61.032-2.261 8.004-4.979 15.843-8.734 23.327-8.87 17.68-21.702 32.633-32.118 49.488-4.731 7.656-9 15.674-12.322 24.41-3.215 8.454-5.686 16.889-7.745 25.338-4.67 19.165-7.176 38.392-11.955 58.039-8.014 32.942-17.205 64.81-25.039 97.192-5.258 21.73-9.911 43.689-13.205 66.347-3.885 26.673-3.526 55.597.062 84.179 3.563 28.38 10.292 56.421 19.128 81.552 2.479 7.05 12.156 25.461 18.686 42.295 2.686 6.924 4.851 13.537 5.486 18.788.228 1.885.52 3.47-.074 4.538-2.233 4.01-7.332 6.806-12.964 9.246-9.794 4.243-21.505 6.762-28.758 8.281-12.728 2.666-25.631 3.87-38.615 4.377-31.268 1.221-62.989-1.492-93.94 1.568-56.345 5.544-112.773 11.2-169.34 15.703-37.601 2.993-75.262 5.473-113 7.086-31.532 1.33-62.875-1.961-94.345-2.33-8.007-.093-16.022-.003-24.05.392-39.035 1.9-81.1 9.582-121.967 9.422-26.72-.104-52.92-3.597-77.319-14.565-18.717-8.416-23.813-30.444-23.791-55.128.035-37.602 12.941-81.682 18.628-102.12 5.595-20.055 12.555-39.565 20.159-58.818 17.99-45.554 39.546-89.685 55.416-136.089 9.469-27.634 16.045-56.242 24.139-84.335 3.411-11.842 7.097-23.59 11.403-35.128 2.901-7.773 6.283-15.296 9.885-22.704 8.694-17.883 18.64-35.111 26.516-53.425 8.769-20.362 15.376-39.674 24.623-58.064 5.862-11.657 12.812-22.937 22.169-33.87 25.589-29.895 49.867-60.579 76.401-89.169 17.447-18.799 35.878-36.682 56.319-52.823 17.208-13.588 34.953-25.687 53.002-37.02 43.191-27.117 88.121-49.87 131.795-77.718 32.411-20.667 72.184-48.979 113.25-60.185 26.011-7.097 52.556-7.132 77.776 7.376 22.899 13.173 46.247 31.539 67.232 52.336 20.64 20.454 38.985 43.275 52.286 65.898Zm325.57-1075.043c-4.704-21.596 38.621-39.692 50.505-45.63 15.487-7.739 31.437-13.318 47.361-19.966 36.061-15.052 87.881-43.093 125.751-12.062 10.708 8.775 22.924 44.08 20.389 57.581-2.713 14.45-11.262 25.388-15.225 38.974-3.434 11.772 12.929 10.857 10.883 22.952-3.974 23.495-34.437 31.648-51.643 37.952-5.634 2.064-17.929 8.497-24.53 6.894-14.928-3.625-35.177-28.766-48.262-37.379-28.832-18.979-61.557-26.112-90.994-42.023-7.355-3.975-12.316-12.394-17.876-15.74"/><path d="M1190.9 167.521c1.138 1.134 2.332 2.233 3.607 3.211 1.967 1.509 3.999 2.911 6.19 4.018 21.309 10.832 44.112 17.268 66.144 26.561 8.581 3.62 17.044 7.666 25.192 12.75 8.718 5.472 20.722 18.224 32.119 26.94 7.032 5.377 13.952 9.396 20.031 10.749 3.447.77 7.839.587 12.484-.674 6.438-1.748 13.728-5.435 17.761-6.996 10.929-4.195 26.878-9.305 38.743-18.048 9.298-6.851 16.306-15.74 18.138-27.528.647-4.027.141-7.269-.979-10.012-1.389-3.407-3.767-6.093-6.559-8.408-.802-.665-1.631-1.302-2.426-1.953-.573-.469-1.627-.646-1.34-1.652 2.709-9.3 7.67-17.307 11.279-26.141 1.764-4.318 3.254-8.804 4.182-13.635 1.499-7.706-.826-21.718-5.369-35.027-4.593-13.455-11.522-26.002-17.654-31.137-17.027-14.394-36.731-18.078-56.928-16.321-27.644 2.404-56.347 15.826-79.013 24.74-11.309 4.42-22.609 8.315-33.777 12.801a274.67 274.67 0 0 0-14.823 6.44c-8.943 4.184-33.671 14.539-47.3 27.925-9.663 9.49-13.951 20.747-11.768 32.187 1.713 7.864 9.489 12.858 17.353 11.145a14.518 14.518 0 0 0 4.713-1.935Zm14.209-26.077c2.598 3.074 5.216 6.723 8.83 8.806 20.139 11.55 41.977 18.832 62.9 28.907 9.494 4.572 18.822 9.634 27.751 15.828 8.909 6.145 21.045 19.97 32.643 29.616 4.162 3.461 8.051 6.484 11.733 7.454 1.795.471 4.29-.653 6.822-1.515 4.633-1.578 9.158-3.623 11.993-4.604 9.778-3.413 24.157-7.187 34.871-14.617 5.61-3.892 10.264-8.773 11.533-15.711.156-.876-.332-1.345-.794-1.779-1.014-.951-2.142-1.807-3.19-2.701-2.99-2.553-5.416-5.421-6.557-9.051-.89-2.832-1.158-6.179.078-10.347 2.881-9.863 8.074-18.386 11.867-27.77 1.331-3.294 2.448-6.717 3.124-10.403 1.049-5.796-1.507-16.172-5.088-26.099-3.528-9.778-8.107-19.241-12.669-22.899-13.171-10.459-28.197-12.56-43.374-10.686-25.564 3.157-51.506 17.252-72.185 26.392-9.485 4.216-18.98 8.044-28.379 12.187-5.974 2.633-11.892 5.41-17.744 8.503-5.615 2.989-18.742 9.081-29.739 17.026a68.611 68.611 0 0 0-4.426 3.463Z"/><path d="M561.552 777.129c5.692 13.04 16.033 32.891 27.527 46.179 11.494 13.289 26.941 23.424 41.437 33.552 14.78 10.325 31.892 18.199 47.244 28.404 16.374 10.883 35.897 23.166 51 36.896 14.765 13.422 29.191 28.067 39.622 45.484 10.465 17.472 15.323 39.619 23.167 59.351 8.143 20.484 15.998 43.486 25.69 63.551 9.514 19.7 20.614 45.1 32.457 56.842 9.986 9.9 26.366 7.299 38.601 13.608 16.793 8.659 43.466 32.961 62.156 38.345 16.362 4.714 33.247-4.663 49.982-6.039 28.483-2.342 88.143-.11 120.919-8.01 27.54-6.637 56.248-26.721 75.74-39.389 15.289-9.936 29.016-22.675 41.21-36.616 12.524-14.318 23.358-32.3 33.933-49.29 11.873-19.073 27.392-43.53 37.304-65.15 9.421-20.549 16.208-46.625 22.17-64.572 4.745-14.288 11.958-31.669 13.598-43.115 1.21-8.449-1.427-19.684-3.762-25.559-1.774-4.465-14.353-7.867-10.245-9.695 5.125-2.28 27.509-1.47 40.993-3.985 17.026-3.176 41.542-7.501 61.161-15.069 20.31-7.835 45.034-19.833 60.699-31.941 13.679-10.573 26.915-24.449 33.294-40.71 6.379-16.26 6.713-37.802 4.98-56.852-2.516-27.674-14.426-78.483-20.079-109.191-4.607-25.02-4.931-51.267-13.842-75.056-10.195-27.213-30.965-59.171-47.325-88.226-24.43-43.387-76.521-134.644-99.257-172.096-11.181-18.418-19.926-40.632-37.159-52.615-23.719-16.493-74.371-35.427-105.156-46.34-25.862-9.168-52.623-15.923-79.555-19.136-31.021-3.701-72.382-6.248-106.572-3.067-33.563 3.122-66.473 11.891-98.568 22.152-38.085 12.176-89.101 28.265-129.946 50.904-41.558 23.034-86.148 56.347-119.406 87.304-30.697 28.574-60.768 70.101-80.142 98.438-14.943 21.855-28.723 51.323-36.105 71.584-5.715 15.688-6.117 33.194-8.184 49.982-2.108 17.124-5.11 35.05-4.465 52.762.819 22.499 8.076 54.714 9.38 82.236 1.377 29.054-2.037 71.397-1.119 92.088.482 10.877 2.27 22.086 6.623 32.057Z" style="fill:#fff"/><path d="M1350.41 858.867c4.704-.158 9.841-.336 14.573-.799 3.205-.313 6.257-.707 8.98-1.221 10.625-2.006 24.125-4.464 37.574-7.855 8.647-2.18 17.271-4.743 25.14-7.798 12.204-4.739 25.957-10.945 38.488-17.779 9.091-4.958 17.546-10.251 24.369-15.549 7.28-5.652 14.434-12.19 20.623-19.476 6.446-7.589 11.847-15.985 15.37-25.021 2.892-7.422 4.677-15.83 5.598-24.634 1.242-11.861.932-24.461-.146-36.164-.847-9.23-2.708-20.976-5.046-33.704-4.726-25.722-11.404-55.549-15.233-76.246-3.238-17.502-4.389-35.605-7.832-53.049-1.574-7.975-3.611-15.818-6.468-23.425-3.367-9.006-7.844-18.519-12.941-28.271-10.519-20.124-23.718-41.321-34.876-61.165-14.086-25.113-37.41-66.224-58.932-103.721-15.751-27.442-30.534-52.953-40.113-68.83-7.862-13.032-14.584-27.884-23.759-39.891-4.582-5.997-9.757-11.317-15.824-15.561-10.344-7.235-25.618-14.971-42.244-22.313-22.256-9.828-46.966-19.002-64.954-25.436-13.176-4.727-26.583-8.836-40.129-12.193-13.695-3.395-27.533-6.015-41.418-7.724-16.058-1.977-34.849-3.656-54.015-4.418-18.568-.739-37.485-.607-54.645.924-17.268 1.541-34.372 4.538-51.293 8.448-16.703 3.859-33.225 8.616-49.541 13.757-23.574 7.421-52.047 16.313-80.069 27.291-18.004 7.052-35.815 14.972-52.075 23.89-21.021 11.529-42.805 25.629-63.585 40.726-21.179 15.386-41.305 31.819-58.489 47.653-12.231 11.269-24.379 24.512-35.839 38.203-18.042 21.554-34.36 44.226-46.546 61.854-7.512 10.868-14.759 23.553-21.126 36.141-6.895 13.631-12.743 27.149-16.788 38.077-2.632 7.112-4.311 14.557-5.514 22.155-1.6 10.105-2.309 20.5-3.61 30.635-1.341 10.459-3.004 21.211-4 32.036-.698 7.596-1.063 15.226-.825 22.822.169 5.398.682 11.322 1.39 17.596 2.253 19.974 6.67 43.787 7.551 64.809.229 5.491.271 11.474.207 17.696-.276 26.708-2.497 57.586-1.847 74.372.237 6.133.864 12.358 2.013 18.462 1.219 6.478 3.056 12.812 5.625 18.792v.001c3.767 8.504 9.409 19.739 16.06 30.398 4.337 6.95 9.091 13.66 14.021 19.298 5.2 5.948 11.087 11.349 17.356 16.379 8.594 6.896 17.899 13.111 26.868 19.307a197.287 197.287 0 0 0 9.978 6.429c12.302 7.445 25.554 13.935 37.697 21.914 9.747 6.404 20.624 13.294 30.999 20.704 6.552 4.679 12.907 9.558 18.592 14.671 7.107 6.392 14.146 13.066 20.654 20.235 6.21 6.841 11.954 14.121 16.764 22.057 2.89 4.767 5.301 9.933 7.473 15.307 5.494 13.597 9.57 28.398 15.073 42.034 5.772 14.323 11.41 29.878 17.629 44.798 2.774 6.657 5.66 13.191 8.718 19.447 6.518 13.335 13.782 29.219 21.472 41.908 4.411 7.279 9.008 13.58 13.639 18.128 4.444 4.365 9.667 7.169 15.395 9.029 8.405 2.729 18.295 2.504 26.268 6.568 11.256 5.737 27.016 18.652 41.741 27.884 8.034 5.037 15.843 9.057 22.67 10.989 6.483 1.835 13.013 2.072 19.585 1.315 11.438-1.317 23.004-6.178 34.524-7.18 19.711-1.713 54.399-1.297 84.712-3.565 14.085-1.054 27.268-2.685 37.799-5.275 11.434-2.805 23.068-7.719 34.222-13.546 16.795-8.776 32.504-19.589 44.672-27.565 8.107-5.314 15.802-11.365 23.075-17.959 7.111-6.446 13.825-13.403 20.135-20.674 5.329-6.141 10.372-12.911 15.21-19.997 6.794-9.948 13.197-20.52 19.505-30.742 7.166-11.607 15.652-25.191 23.443-38.926 5.251-9.258 10.191-18.584 14.22-27.446 3.746-8.241 7.094-17.33 10.131-26.462 4.661-14.014 8.592-28.122 12.22-39.164 3.142-9.561 7.373-20.501 10.333-30.145 1.647-5.366 2.914-10.373 3.511-14.633.68-4.857.388-10.47-.49-15.79-.874-5.293-2.292-10.281-3.653-13.827Zm-17.041 7.278c.897 2.548 1.778 5.942 2.345 9.518.544 3.432.815 7.046.357 10.174-.501 3.417-1.593 7.419-2.943 11.72-2.986 9.513-7.245 20.298-10.41 29.73-3.692 10.998-7.704 25.056-12.446 39.016-2.872 8.457-6.017 16.878-9.542 24.503-3.855 8.338-8.577 17.106-13.593 25.808-7.757 13.459-16.217 26.753-23.352 38.12-6.224 9.912-12.536 20.17-19.231 29.812-4.437 6.389-9.044 12.5-13.919 18.03-5.827 6.608-12.016 12.93-18.57 18.778-6.514 5.814-13.393 11.15-20.641 15.82-11.744 7.567-26.887 17.873-43.081 26.172-9.635 4.938-19.648 9.162-29.505 11.496-9.56 2.257-21.522 3.554-34.288 4.389-30.44 1.99-65.244 1.256-85.039 2.79-11.725.908-23.546 5.678-35.191 6.908-3.581.378-7.144.338-10.664-.694-5.035-1.476-10.683-4.699-16.589-8.479-15.255-9.764-31.639-23.25-43.312-29.339-9.017-4.703-20.114-5.085-29.636-8.276-2.171-.727-4.229-1.669-5.903-3.344-4.458-4.461-8.659-11.256-12.798-18.826-6.073-11.109-11.776-23.862-17.005-34.82-3.718-7.79-7.14-16.038-10.417-24.398-5.074-12.942-9.791-26.153-14.617-38.459-5.363-13.702-9.289-28.554-14.642-42.216-2.635-6.722-5.609-13.171-9.145-19.146-4.484-7.578-9.662-14.679-15.281-21.411-8.163-9.781-17.285-18.757-26.545-27.265-6.347-5.832-13.438-11.427-20.768-16.781-10.586-7.732-21.689-14.945-31.641-21.637-12.337-8.294-25.804-15.11-38.31-22.861a168.897 168.897 0 0 1-8.504-5.604c-8.357-5.905-17.05-11.804-25.048-18.362-4.91-4.026-9.543-8.313-13.601-13.055-4.927-5.757-9.566-12.897-13.663-20.038a227.615 227.615 0 0 1-11.311-22.622v-.001c-1.78-4.014-3.039-8.283-3.912-12.644-.939-4.696-1.46-9.491-1.696-14.217-.822-16.457 1.069-46.767 1.045-72.966-.006-6.731-.13-13.204-.445-19.141-.299-5.633-.829-11.453-1.507-17.346-2.627-22.842-7.568-46.871-8.313-64.722-.27-6.5-.005-13.033.527-19.541.859-10.514 2.379-20.962 3.578-31.124 1.167-9.896 1.737-20.043 3.197-29.914.874-5.909 2.06-11.717 4.048-17.26 3.657-10.201 8.978-22.822 15.261-35.563 5.727-11.615 12.239-23.34 19.033-33.387 11.654-17.233 27.261-39.411 44.562-60.513 10.652-12.992 21.938-25.586 33.338-36.307 16.41-15.429 35.648-31.47 55.922-46.496 19.853-14.712 40.692-28.461 60.816-39.732 15.381-8.615 32.254-16.273 49.309-23.129 27.438-11.031 55.342-20.001 78.44-27.499 15.757-5.11 31.712-9.866 47.855-13.731 15.972-3.825 32.126-6.787 48.446-8.368 16.338-1.582 34.361-1.823 52.057-1.252 18.597.6 36.836 2.092 52.427 3.893 13.132 1.516 26.225 3.896 39.189 7.007 12.948 3.106 25.769 6.933 38.374 11.348 17.678 6.21 41.966 15.059 63.847 24.575 15.431 6.71 29.654 13.71 39.267 20.356 6.152 4.252 11.012 10.053 15.346 16.456 7.111 10.505 12.823 22.575 19.388 33.321 9.618 15.746 24.495 41.033 40.287 68.271 21.654 37.345 45.035 78.343 59.183 103.371 11.101 19.685 24.24 40.704 34.708 60.668 4.767 9.091 8.973 17.951 12.125 26.349 2.52 6.744 4.295 13.701 5.679 20.771 3.403 17.384 4.508 35.423 7.704 52.866 3.793 20.697 10.419 50.527 15.099 76.249 2.212 12.154 3.987 23.369 4.781 32.182.798 8.864 1.139 18.292.553 27.425-.585 9.119-2.081 17.936-5.061 25.482-2.863 7.253-7.298 13.944-12.506 20.022-5.429 6.335-11.714 11.996-18.089 16.901-7.634 5.874-17.534 11.69-27.959 16.989-10.2 5.184-20.906 9.856-30.582 13.565-7.22 2.767-15.135 5.063-23.064 7.025-13.082 3.237-26.212 5.557-36.544 7.46-11.058 2.029-28.16 1.746-36.572 2.877-2.854.384-5.069.996-6.496 1.626-4.03 1.777-5.353 4.551-5.943 6.692-.583 2.118-.492 4.356.548 6.673.695 1.547 2.525 3.883 5.685 5.846l5.514 3.436Z"/><path d="M541.983 708.359c-4.241 5.328-4.28 13.088.283 18.486 3.162 2.946 6.228 5.418 10.358 5.158 1.554-.098 3.307.159 5.064-.609 1.354-.592 5.374-1.383 7.889-5.812.718-1.264 2.804-5.672 2.804-5.672s-.542.561-.677.766l7.976-12.212c3.872-4.454 8.838-10.281 14.899-14.405 4.838-3.291 10.037-6.071 15.223-5.13 7.533 1.999 14.144 5.489 19.759 10.37 5.77 5.015 10.126 11.572 14.355 18.532 2.145 3.738 5.761 12.015 8.696 17.334 1.778 3.222 3.885 5.387 5.23 6.786 5.002 5.203 10.792 3.838 14.396 3.21 4.217-.735 8.667-4.218 10.859-13.287.827-7.341-3.959-14.03-10.936-15.772-3.5-4.177-7.385-9.352-9.698-11.861-6.659-7.611-13.712-14.231-21.599-19.513-4.158-2.786-8.442-5.25-12.988-7.343-4.466-2.055-9.096-3.901-14.101-5.108-7.664-2.248-15.884-.618-24.013 2.497-10.072 3.86-19.745 10.752-26.679 16.242l-12.449 11.878c-.767.72-5.731 3.904-4.651 5.465Zm109.209 16.16c-.64 1.08-1.101 2.401-1.078 4.092a14.445 14.445 0 0 1 1.078-4.092Zm20.68-4.277.018.018c.127.127.431.222.431.222l-.449-.24Zm-110.478-15.011a14.434 14.434 0 0 1 3.145 2.783c-.834-1.264-1.94-2.109-3.145-2.783Zm-3.432-1.652c-1.359-.622-3.011-.9-4.933-.722 1.669-.043 3.34.199 4.933.722Z"/><path d="M1029.12 958.335c-.026-8.953 39.257-18.083 46.131-19.513 37.503-7.798 72.739-13.822 111.638-13.706 14.217.042 35.544-4.132 43.699 10.336 5.369 9.526-10.946 40.514-16.374 48.439-4.791 6.997-7.736 19.536-15.328 24.199-26.451 16.249-86.344-9.274-110.341-22.529-15.933-8.8-42.937-14.252-56.063-25.945-.696-.62 6.222-.744 6.715-.743" style="fill:#fff"/><path d="M1025.9 972.557c4.795 3.432 10.553 6.453 16.907 9.025 13.186 5.339 29.036 9.059 39.885 14.57 14.9 7.651 42.687 19.252 68.656 24.172 20.398 3.864 39.703 3.472 52.221-4.606 3.407-2.182 6.283-5.322 8.641-9.114 3.538-5.691 5.828-13.09 9.029-17.9 3.85-5.617 12.761-22.049 16.781-35.476 2.754-9.199 2.676-17.379.104-22.026-3.549-6.521-8.961-10.476-15.346-12.865-10.758-4.027-25.16-2.47-35.864-2.699-19.87-.571-38.82.536-57.65 2.509-18.775 1.966-37.381 4.853-56.607 8.215-5.572.951-30.336 6.053-43.299 12.425-10.633 5.227-14.627 13.682-14.824 19.591.02 6.928 4.879 12.72 11.366 14.179Zm36.01-12.146c11.414 4.936 23.675 9.289 32.481 14.56 13.149 7.791 37.76 20.107 61.188 25.834 14.857 3.631 29.142 5.193 38.619-.343 1.899-1.117 3.212-3.152 4.453-5.323 3.109-5.441 5.51-11.762 8.533-16.06 2.504-3.644 7.499-12.518 11.274-21.658 1.9-4.6 3.482-9.27 4.225-13.305.34-1.847.941-3.41.363-4.415-2.061-3.532-5.653-4.785-9.497-5.457-8.649-1.514-18.814.223-26.692.349-18.92.431-36.901 2.309-54.69 5.217-18.085 2.956-35.911 7.026-54.328 11.473-2.258.555-8.836 5.104-15.929 9.128Z"/><path d="M1085.63 948.033c1.291-3.471 29.394 5.45 32.487 6.226 20.712 5.2 42.383 3.44 63.553 3.503 8.518.025 33.683-2.861 38.872-12.134 4.634-8.279-6.842-20.207-13.209-17.9" style="fill:#fff"/><path d="M1205.07 942.132c-1.495 1.316-3.142 2.698-4.936 3.262-7.079 2.227-14.596 3.413-18.435 3.641-5.135.068-10.293.38-15.467.399-7.484.027-14.978-.258-22.401-1.042-7.839-.828-15.457-2.569-22.965-5.071-2.704-.967-23.156-9.095-31.539-10.294-10.733-1.534-15.464 6.095-17.361 9.923-2.806 7.544 1.041 15.946 8.584 18.752a14.508 14.508 0 0 0 7.805.658c2.397 5.787 24.775 2.501 27.02 2.837 6.929 1.159 13.818 1.667 20.802 1.805 7.727.152 15.446-.193 23.21-.418 7.437-.217 14.881-.161 22.261-.095 6.477.456 21.468-.428 32.656-3.75 7.763-2.306 13.402-6.689 16.577-11.326 5.423-7.763 3.168-17.841-1.878-26.101-4.097-6.707-11.309-10.522-17.117-11.969-3.312-.826-6.475-.059-9.517.674-7.568 2.742-11.485 11.112-8.743 18.679 1.872 5.168 6.369 8.633 11.444 9.436Zm-105.876 11.257a1.13 1.13 0 0 0 .109-.272l-.109.272Zm112.842-11.86a1.04 1.04 0 0 0 .269-.09l-.269.09Zm-592.188-160.55c.511-1.667.791-3.131 1.658-4.186.313-.381.058-1.13.502-1.264 1.276-.386 2.826-.125 4.824.482 1.641.852 2.737 2.513 3.852 4.142.074.108.142.219.202.332-.276.406-.536.83-.775 1.272-.053.24-.16.513-.029.546.755.188.828-.935.936-1.208l.076-.168c.576 1.407.41 3.058.639 4.615-.077-.692-.46-1.527-1.18-1.753-.879-.275-1.376 1.148-1.628 1.573-3.043 5.131.143 9.196.224 9.877.122 1.017 1.016 1.576 1.284 2.409.841 2.616 3.573 3.15 5.244 4.733 2.475 2.345 6.015 1.092 10.364 1.13 1.219.01 2.18-1.188 3.791-1.656 1.02-.296 1.762-1.921 3.828-3.466.338-.253.669-1.274 2.087-2.723a14.491 14.491 0 0 0 1.356-3.519c1.602-2.452-.168-11.084-2.994-15.073-2.654-4.076-5.401-7.906-9.387-10.732-3.916-2.777-7.796-5.45-12.2-6.357-7.788-3.334-13.379-2.477-18.419-.909-4.802 1.494-8.746 5.043-14.122 10.427-.741.69-2.077 1.586-3.39 2.724-1.609 1.395-2.412 3.252-3.567 4.786-1.66 2.207-1.31 4.808-1.879 7.075-1.241 4.95 2.347 8.453 5.987 13.278 6.34 4.96 15.513 3.839 20.472-2.5 3.194-4.082 3.866-9.339 2.244-13.887Zm-4.127-6.073a1.507 1.507 0 0 0-.617-.512c.212.166.418.336.617.512Zm473.199-236.062c.4-2.482.16-5.1-.824-7.609-4.499-7.318-8.501-10.131-12.393-10.092-1.233.013-2.423-.438-3.622-.131-2.031.52-4.367.437-6.258 1.967-1.44 1.165-3.536 2.113-4.768 4.272-1.462 2.563-3.224 6.182-3.65 7.982-1.402 5.15-2.621 20.086.001 30.981 1.821 7.567 4.824 13.452 9.452 15.641 2.356 1.265 4.638 1.842 6.912 1.914 2.361.074 4.689-.396 6.919-.885 2.518-.415 4.519-1.316 6.497-2.444 1.818-1.036 3.392-2.6 5.191-4.737 4.628-5.155 6.488-14.424 5.748-22.303-.593-6.318-4.057-11.033-9.205-14.556Zm-11.645 24.556-.637.292-.584.235c-.006.48.015.951.06 1.411.032.316.165.671.281 1.006.252.012.491.01.684-.032.232-.062.42-.184.61-.28.182-.091-.236-.412-.098-.648.297-.567.159-1.295-.144-2.073l-.172.089Zm7.147-7.67c.36-.606.612-1.263.648-2.027a14.476 14.476 0 0 1-.648 2.027Zm348.798-122.667c-3.21 1.383-7.47 4.239-10.939 7.553-4.315 4.12-4.662 9.922-4.522 15.905 1.034 4.748 4.278 8.449 8.418 10.257.416 2.336 1.113 4.562 2.375 6.566 3.314 5.666 9.315 8.937 16.467 7.958 8.449-1.157 16.67-7.402 17.378-14.173 1.95-7.933.03-15.693-3.216-21.871 1.557-5.118.228-10.907-3.915-14.835-5.842-5.537-15.08-5.29-20.617.551-.52.797-.993 1.486-1.429 2.089Zm-745.862 15.839c7.549 3.562 15.591 17.441 20.383 23.984 14.606 19.947 26.943 41.371 38.909 63.189 4.669 8.515 17.623 18.041 16.774 28.731-.983 12.374-14.786 13.908-23.828 11.737-.789-.189-11.977-3.493-12.105-2.359-1.291 11.469 9.152 31.38 11.671 42.942 1.297 5.955 4.999 13.288.15 17.879-26.35 24.945-69.241 11.727-100.721 23.835-11.057 4.253-23.608 5.457-34.359 10.071-24.26 10.413-44.987 38.234-73.377 18.394-5.119-3.577-11.131-6.829-15.912-10.829-3.358-2.809-4.856-7.662-7.115-11.372-20.919-34.352-.674-57.601 1.125-92.237.699-13.439-5.929-33.787 1.715-45.336 1.611-2.435-9.353-8.127-10.571-9.24-6.394-5.846-9.637-14.145-10.204-23.1-1.101-17.392 4.941-20.752 14.07-32.004 2.322-2.863 5.289-11.599 8.323-13.356 12.967-7.511 33.669-7.429 48.006-7.184 24.665.42 49.401-.942 73.367-6.162 13.683-2.981 30.861-7.043 45.04-3.614 5.929 1.433 18.887 7.383 9.27 12.281"/><path d="M499.094 529.573c-1.012 3.311-1.553 6.891-1.689 10.654-.385 10.624 2.688 22.981 2.318 32.161-.893 21.148-8.705 38.102-9.807 55.886-.797 12.86 1.354 26.131 10.668 41.242 1.621 2.648 2.882 5.856 4.651 8.541 1.22 1.852 2.626 3.519 4.285 4.901l16.497 11.27c13.923 9.792 26.404 10.137 38.253 6.404 14.799-4.662 28.514-17.308 43.442-23.614 1.9-.799 3.868-1.464 5.871-2.064 9.264-2.777 19.24-4.228 28.274-7.623 21.616-8.032 48.536-3.764 71.732-8.658 12.127-2.559 23.315-7.347 32.856-16.133 3.571-3.289 5.177-7.24 5.649-11.526.555-5.043-1.502-11.043-2.541-16.152-1.398-6.947-5.511-16.879-8.373-26.257 7.378 1.001 15.892.038 22.249-3.59 6.441-3.675 11.112-9.813 12.019-19.254.548-5.701-1.036-11.287-3.954-16.664-3.721-6.86-10.691-13.237-13.777-19.091-7.047-13.426-14.247-26.694-21.987-39.609-5.268-8.788-10.801-17.394-16.702-25.776-3.372-4.789-8.348-13.145-13.636-19.287.819-3.327.688-6.622-.532-9.851-1.295-3.427-3.992-7.298-8.373-10.226-4.299-2.874-10.428-5.255-14.46-6.147-7.109-1.571-14.777-1.806-22.519-1.055-9.918.961-19.968 3.377-28.678 5.444-11.381 2.694-22.954 4.492-34.631 5.595-11.842 1.119-23.774 1.575-35.703 1.585-9.105.005-20.606.134-31.32 1.951-8.298 1.407-16.158 3.765-22.476 7.558-1.851 1.111-3.962 2.975-5.748 5.69-2.051 3.118-3.84 8.393-5.451 10.443-6.68 8.501-11.647 13.419-14.164 21.007-1.568 4.727-2.394 10.442-1.76 18.516.429 5.593 1.662 10.977 3.805 15.869 2.318 5.291 5.596 10.059 9.972 13.955.481.428 3.324 2.321 5.74 3.905Zm173.946-83.451c-3.637-.682-7.497-.785-11.396-.557-8.675.507-17.498 2.385-25.156 3.905-12.643 2.518-25.458 4.055-38.364 4.81-12.638.739-25.347.778-38.036.334-7.964-.276-18.033-.624-27.459.654-4.89.663-9.616 1.668-13.556 3.585-1.128 2.11-4.971 9.197-6.648 11.199-4.318 5.156-8.006 8.289-10.297 12.426-1.606 2.899-2.191 6.399-1.919 12.06.162 3.247.734 6.396 1.901 9.263 1.04 2.556 2.479 4.915 4.478 6.86 3.487 2.289 10.809 7.483 12.549 10.688 2.391 4.404 1.898 8.37-.296 11.591-2.189 3.215-2.385 7.546-2.307 12.081.166 9.711 2.162 20.25 1.65 28.326-1.314 21.294-9.552 38.228-10.934 56.133-.749 9.704.911 19.723 7.822 31.213l5.293 9.301 15.328 10.388c8.546 5.935 16.149 6.321 23.372 3.977 14.291-4.64 27.303-17.282 41.688-23.554 2.459-1.078 5.004-1.995 7.601-2.817 8.826-2.795 18.374-4.256 26.971-7.639 22.164-8.817 50.055-5.411 73.915-11.076 8.052-1.912 15.556-5.073 21.891-10.824-.452-1.65-1.771-6.519-2.361-9.06-1.792-7.642-7.247-18.95-10.228-28.971-1.925-6.474-2.805-12.581-2.333-17.504.302-3.145 3.401-10.944 13.383-10.28 3.358.223 11.964 2.504 12.702 2.669 1.681.374 3.628.48 5.535.312 1.477-.131 3.458.012 3.57-1.764.109-1.728-1.355-3.066-2.472-4.624-4.346-6.063-10.323-11.781-13.345-17.082-7.285-12.728-14.701-25.304-22.643-37.51-5.22-8.023-10.685-15.864-16.486-23.483-2.416-3.174-5.657-8.125-9.235-12.719-2.043-2.625-3.944-5.381-6.083-6.342-6.157-2.905-9.339-9.575-8.095-15.969Z"/><path d="M1171.01 145.603c-11.065-.241-21.303 19.866-28.86 27.134-24.519 23.584-51.485 44.071-76.214 67.592-7.446 7.082-14.625 14.506-21.33 22.392-1.785 2.099-6.258 7.691-9.552 6.905-8.484-2.024-16.177-19.995-15.579-28.132.228-3.098 1.253-6.011 2.161-8.912.513-1.639 1.86-6.625 1.417-4.961-3.629 13.627-21.167 24.724-29.219 35.31-29.89 39.301-57.015 80.143-105.921 94.911-7.538 2.276-25.474 11.878-31.36 3.386-6.396-9.229 3.28-23.346 8.422-30.088.269-.352 5.37-7.501 5.726-7.279 2.275 1.417-12.834 18.866-13.85 19.899-19.539 19.864-42.363 36.307-63.417 54.297-28.688 24.514-65.575 41.851-102.026 49.791-3.829.835-11.988-.855-13.326-5.538-.619-2.166-2.412-7.221-1.705-9.448.381-1.203 4.301-8.475 2.924-4.597-12.367 34.822-61.348 44.651-92.608 43.081-6.82-.342-14.532 1.64-21.132-1.251-8.41-3.682-11.163-9.663-16.218-17.143-.758-1.121-2.232-8.104-3.395-8.216-5.167-.498-11.165 5.335-15.275 7.637-10.499 5.878-20.411 12.953-32.567 11.741-16.976-1.694-34.158 5.8-51.894 4.071-6.525-.637-17.127-3.772-19.708-11.902-12.685-39.963 23.998-75.448 51.733-94.821 9.84-6.873 19.186-13.859 30.213-18.467 3.519-1.471 6.875-2.827 10.223-4.636 1.856-1.003 7.651-3.39 5.6-2.943-11.91 2.595-21.638 14.571-34.995 14.514-16.999-.074-7.679-29.173-2.857-35.213 6.746-8.452 15.963-14.315 23.87-21.39 16.267-14.555 29.578-30.063 49.584-39.225 12.605-5.773 25.658-7.415 38.643-11.692 2.067-.68 10.851-2.079 12.137-4.023.476-.719-18.221-13.46-19.496-17.459-4.792-15.019 8.782-37.32 17.35-48.056 15.523-19.451 39.308-26.771 61.506-34.412 7.192-2.475 19.002-8.602 27.053-7.615 11.641 1.427 22.126 8.981 33.291 12.039.87.238 9.078 3.28 9.546 2.916.918-.714 1.299-7.717 1.615-8.964 2.209-8.713 4.978-17.997 8.568-26.154 5.786-13.147 23.95-27.22 36.717-32.806 30.202-13.215 55.322-5.799 86.198.342 4.033.802 9.235.449 12.892 2.709 2.808 1.734 12.051 15.204 16.592 10.68 8.408-8.377 12.936-27.068 19.434-37.653 12.449-20.28 42.066-37.328 65.348-38.872 11.94-.792 39.365-1.412 49.662 4.519 13.359 7.692 31.29 24.856 45.745 28.273 4.539 1.074 17.232-15.311 21.001-18.183 13.721-10.455 39.053-11.253 52.898.54 27.903 23.769 23.8 60.793 14.609 92.426-4.587 15.788-4.703 29.184-19.705 28.236"/><path d="M898.548 77.483c-2.664-2.572-5.754-5.467-6.767-6.084-2.133-1.3-4.502-2.22-7.031-2.796-3.151-.718-6.655-.726-9.579-1.289-19.484-3.749-36.791-7.891-54.359-7.581-12.372.218-24.877 2.508-38.246 8.457-8.468 3.768-19.082 10.838-27.628 19.095-6.292 6.08-11.461 12.803-14.26 19.257-1.917 4.418-3.62 9.137-5.126 13.933a226.132 226.132 0 0 0-3.498 12.457c-7.173-2.096-14.064-6.044-21.229-8.684-4.1-1.51-8.27-2.675-12.56-3.178-3.599-.422-7.734.004-12.01 1.105-6.847 1.763-14.261 5.316-19.398 7.114-13.904 4.868-28.384 9.677-41.235 17.127-9.155 5.308-17.516 11.903-24.415 20.63-5.552 7.012-12.996 18.511-17.044 30.134-3.239 9.303-4.237 18.706-1.709 26.525.552 1.708 2.291 4.568 5.359 7.477 1.245 1.181 2.763 2.484 4.378 3.805-7.881 2.371-15.774 3.986-23.553 6.393-4.182 1.294-8.333 2.795-12.44 4.695-8.675 4.013-16.196 9.101-23.212 14.802-9.806 7.968-18.595 17.159-28.447 26.023-5.557 4.996-11.76 9.399-17.303 14.514-2.676 2.469-5.21 5.09-7.498 7.969-4.168 5.245-10.892 24.203-7.86 35.632.801 3.023 2.061 5.699 3.886 7.846l-2.375 1.663c-17.737 12.358-38.792 31.039-49.906 53.111-7.909 15.704-10.923 33.075-5.178 51.25 1.608 5.111 5.059 9.103 9.452 12.007 5.478 3.621 12.503 5.408 17.613 5.922 3.977.4 7.93.396 11.863.141 13.579-.882 26.852-5.407 39.995-4.055 6.303.648 12.147-.393 17.756-2.42 6.875-2.484 13.369-6.593 20.054-10.309 1.729-.961 3.767-2.446 5.928-3.936l.085-.056c.345.875.644 1.563.818 1.823 3.357 4.999 5.868 9.337 9.305 12.938 2.81 2.944 6.16 5.462 10.739 7.484 2.901 1.284 5.945 1.955 9.065 2.237 5.061.458 10.382-.409 15.253-.142 20.063 1.097 46.916-2.269 68.177-13.022 7.551-3.819 14.395-8.562 20.11-14.304a20.156 20.156 0 0 0 3.707 2.236c5.02 2.351 11.442 2.823 15.271 2.007 19.036-4.04 38.194-10.546 56.353-19.211 18.168-8.669 35.32-19.523 50.362-32.235 14.832-12.533 30.521-24.309 45.361-37.023l1.579-1.363.063.097c4.165 6.094 10.852 8.782 18.998 8.343 8.497-.458 19.42-5.456 25.048-7.115 21.371-6.3 38.97-17.17 54.49-30.694 21.73-18.935 39.235-43.277 57.632-67.163-1.304-3.53-.672-12.474 3.131-29.676-.202 5.417 1.65 13.538 5.017 20.926-2.937 2.784-5.646 5.502-7.722 8.195l-.426.555c1.482 4.013 5.47 1.024 10.152-4.789l-.331-.584-.896-1.735-.777-1.642c4.592-4.354 9.742-8.869 13.904-13.701-3.766 6.252-8.066 12.904-11.9 17.662l.621 1.101c4.754 8.045 11.579 13.547 17.834 15.088 3.367.83 7.06.529 10.789-1.084 4.522-1.957 9.722-7.464 11.957-10.053a252.985 252.985 0 0 1 9.933-10.824 312.954 312.954 0 0 1 10.589-10.381c19.82-18.574 41.057-35.194 61.334-53.024a560.471 560.471 0 0 0 15.458-14.076c3.721-3.527 8.124-9.755 12.844-15.654 2.39-2.986 8.146-4.616 7.455-7.254 7.288-.661 13.078-6.715 13.241-14.202a14.514 14.514 0 0 0-3.207-9.439c.763-3.099 1.547-6.414 2.513-9.839 5.993-21.248 9.631-44.672 5.016-65.667-3.369-15.325-10.839-29.505-24.576-41.028-9.238-7.756-22.102-11.728-35.073-11.639-12.829.089-25.578 4.034-34.531 10.956-1.941 1.502-6.035 6.018-10.318 10.589-1.149 1.227-2.755 2.767-4.053 3.98-2.149-.945-4.358-2.19-6.612-3.566-10.946-6.682-22.348-16.297-31.568-21.519-4.488-2.542-11.318-4.452-19.147-5.405-12.952-1.577-29-1.03-37.57-.4-13.34.98-28.531 6.246-42.075 14.372-13.494 8.096-25.333 18.932-32.361 30.566-4.526 7.484-8.158 18.813-12.695 28.057l-.784 1.545Zm252.397 58.837c-1.909-3.39 4.55-11.043 6.526-17.647 4.222-14.118 7.519-29.417 6.486-43.909-.907-12.731-5.25-24.824-16.144-34.248-4.55-3.932-11.089-5.542-17.556-5.589-6.852-.05-13.804 1.562-18.637 5.191-3.432 2.576-13.983 15.161-20.059 18.428-4.584 2.466-8.759 2.645-11.856 1.89-5.796-1.414-12.103-4.431-18.443-8.427-10.626-6.696-21.626-16.314-30.581-21.556-3.122-1.827-8.511-2.463-14.266-2.982-10.341-.933-21.807-.637-28.341-.25-10.007.592-21.365 4.622-31.6 10.567-10.152 5.896-19.296 13.635-24.662 22.239-4.317 6.93-7.714 17.522-12.06 26.097-2.719 5.365-5.788 10.085-9.269 13.51-4.524 4.453-10.004 5.483-16.091 3.041-4.477-1.796-12.81-10.302-14.689-12.265l-8.869-1.288c-17.842-3.664-33.646-7.894-49.775-7.809-9.686.051-19.495 1.723-30.017 6.25-5.609 2.413-12.4 6.698-18.444 11.798-5.621 4.745-10.714 10.116-13.103 15.462-1.678 3.76-3.168 7.782-4.498 11.869-1.34 4.116-2.525 8.295-3.579 12.351-.088.74-.839 6.941-1.456 8.913-.97 3.099-2.699 4.909-3.864 5.805-.867.668-4.331 3.03-9.574 1.717-2.377-.595-8.09-2.713-8.816-2.916-8.067-2.255-15.806-6.712-23.828-9.764-2.617-.995-5.266-1.827-8.012-2.178-2.078-.266-4.525.412-7.04 1.18-5.671 1.73-11.462 4.412-15.657 5.832-12.831 4.341-26.244 8.491-38.127 15.224-7.178 4.067-13.794 9.089-19.236 15.843-3.918 4.87-9.002 12.362-12.546 20.354-2.735 6.169-4.89 12.608-3.686 18.031 1.706 1.432 11.633 9.76 14.939 12.477 6.729 5.53 4.22 12.992 3.673 13.813-1.009 1.511-3.102 3.47-6.347 4.752-3.285 1.297-8.88 2.287-10.513 2.818-9.199 2.99-18.424 4.679-27.509 7.413-3.449 1.038-6.878 2.234-10.269 3.771-7.323 3.32-13.665 7.58-19.599 12.336-9.631 7.721-18.238 16.685-27.91 25.291-5.527 4.921-11.696 9.245-17.208 14.285-2.04 1.864-3.985 3.833-5.731 6.01-1.52 1.894-3.4 6.866-4.444 11.955-.522 2.547-.835 5.144-.586 7.427.104.949.129 2.015 1.242 2.021 1.766.009 3.435-.317 5.04-.838 3.484-1.999 7.076-3.822 10.846-5.394l.201-.091c5.615-3.268 11.114-6.669 17.075-7.962 4.422-.959 6.626.968 7.206 1.393 3.277 2.402 4.458 5.589 2.958 9.715-.278.763-1.058 2.857-3.743 4.491-.947.576-4.739 2.217-6.214 3.013l-10.985 4.989-.306.132c-2.463 1.534-4.961 3.025-7.573 4.188-.853.38-1.716.735-2.591 1.051l-.976.587c-5.857 3.579-11.424 7.651-17.17 11.674-15.679 10.98-34.529 27.336-44.324 46.903-5.897 11.779-8.394 24.771-4.057 38.376.559 1.746 2.208 2.713 3.827 3.536 2.828 1.438 6.075 2.108 8.525 2.339 13.615 1.286 26.858-3.228 39.959-4.259 4.001-.315 7.989-.354 11.969.031 3.533.342 6.787-.365 9.922-1.519 5.993-2.207 11.582-5.952 17.402-9.234 2.974-1.677 6.917-5.054 10.84-6.883 3.253-1.517 6.559-2.194 9.665-1.905 2.079.194 5.289 1.238 7.517 5.001.891 1.506 2.525 6.447 2.984 7.861 2.475 3.712 4.321 7.03 6.937 9.738 1.296 1.342 2.854 2.467 4.959 3.381 1.539.666 3.198.767 4.867.793 4.394.069 8.898-.578 13.079-.386 17.28.791 40.408-2.127 58.629-11.546 8.528-4.409 15.977-10.276 20.817-18.096.1-.963.284-1.838.53-2.602.402-1.25 3.287-6.837 4.428-8.346 3.903-5.156 9.08-4.17 10.466-3.798 2.778.744 7.29 2.657 7.24 9.462-.004.565-.029 1.962-.854 4.252a56.64 56.64 0 0 1-1.915 4.659l.055.205.404 1.466c.746.24 1.865.543 2.366.431 17.493-3.909 35.075-10.094 51.714-18.257 16.483-8.086 32.03-18.136 45.622-29.88 14.65-12.659 30.177-24.557 44.82-37.411 5.617-4.932 11.096-10.012 16.336-15.338 2.599-5.131 5.812-9.773 8.302-12.994.237-.307 3.923-5.359 5.547-7.198 6.026-6.825 13.75-3.457 14.901-2.729 3.141 1.986 8.113 7.936 3.686 16.644-2.184 4.294-8.979 12.626-12.869 17.19-.605 1.314-1.108 2.667-1.413 4.014l-.156.615c1.72-.302 4.232-.804 5.888-1.366 5.009-1.699 9.788-3.845 12.867-4.797 17.87-5.524 32.472-14.929 45.351-26.452 20.491-18.333 36.683-41.951 53.944-64.957 5.572-7.427 15.68-15.155 22.613-23.755 1.681-2.084 3.156-4.196 3.924-6.468l.298-1.041c.089-.315.147-.511.162-.558 17.719-56.29 34.572-35.609 24.822 6.566l-.213.837-.013.043c-.082.305-1.135 4.212-1.517 5.464l-1.539 6.01c-.14 2.111 1.125 5.246 2.537 8.285.248.536.579 1.124.955 1.719a274.86 274.86 0 0 1 9.391-10.472 338.081 338.081 0 0 1 11.334-11.447c19.746-19.063 40.941-36.188 61.161-54.506a531.988 531.988 0 0 0 14.475-13.577c1.696-1.656 3.501-4.104 5.444-6.791a14.493 14.493 0 0 1-.769-5.681c.477-7.543 6.621-13.391 14.021-13.653Z"/><path d="M665.895 756.285c-.203 1.481-.307 2.916-.232 4.131.397 6.52 3.748 10.804 7.464 13.09 2.462 1.516 5.249 2.533 8.272 3.029-1.763 2.966-3.972 6.961-5.462 10.598-2.1 5.123-2.732 10-2.27 13.218.919 6.399 4.417 10.631 10.093 12.734 4.036 1.495 8.529 2.016 13.287 1.627a274.57 274.57 0 0 0-4.633 9.621c-.575 1.258-3.996 7.779-6.15 14.426-1.698 5.238-2.529 10.585-2.084 14.732.822 7.672 4.759 13.067 11.752 15.587 4.367 1.574 8.984 2.213 13.735 2.017l-.092.572c-1.147 9.283 3.557 14.193 10.271 15.95a21.31 21.31 0 0 0 2.412.483c-1.931 5.344-3.775 11.848-3.4 16.356.619 7.461 4.449 12.452 10.921 14.601 4.567 1.517 9.331 1.785 14.142.952-.293 2.799-.161 5.286.237 6.985 1.52 6.481 5.793 9.401 10.641 10.138 8.503 1.292 18.601-3.808 27.091-14.342 1.895-2.352 3.758-4.968 5.56-7.723a315.16 315.16 0 0 0-1.048 10.643c-.883 10.92-1.172 21.986-.393 33.348.218 3.175 1.815 24.164 5.849 30.819 3.229 5.327 7.772 7.198 12.049 7.143l.625-.023-.865 11.959c-.264 3.514-1.56 10.607-1.112 13.885.442 3.228 1.783 5.518 3.137 7.002.869.951 1.841 1.825 2.938 2.508a63.03 63.03 0 0 0-1.043 2.718c-4.207 11.795-3.589 22.703 1.333 30.177 2.41 3.659 5.906 6.145 10.416 6.929 1.151 2.862 2.645 5.054 4.199 6.454 1.55 1.397 3.146 2.34 4.777 2.864.085 4.594.543 9.766 1.927 13.266 2.047 5.18 5.672 8.214 9.921 9.224 5.052 1.203 9.91.555 14.405-1.671.067 4.191.413 9.174 1.402 13.341 1.287 5.426 3.838 9.687 6.874 12.021 10.076 7.743 20.611 5.004 29.889-5.012 3.838-4.143 7.46-9.774 10.665-15.627-.803 6.239-1.283 12.187-.902 17.455.169 2.344 1.758 15.011 4.315 18.898 2.845 4.324 6.724 5.455 10.308 4.981-.72 4.058-1.522 9.458-1.236 13.351.314 4.274 1.88 7.52 3.763 9.456 2.958 3.043 6.069 3.801 8.879 3.65 2.615-.141 5.382-1.203 7.842-3.709 1.138-1.159 2.273-3.029 3.356-5.195.088 2.941.396 7.468 1.159 11.11.841 4.018 2.498 7.2 4.107 8.855 5.223 5.372 11.064 5.404 16.82 2.041 5.657-3.305 11.372-12.441 12.837-14.92 7.93-13.423 14.279-27.775 21.559-41.577a247.417 247.417 0 0 1 4.601-8.363c-1.513 4.642-2.8 8.471-3.17 10.277-.839 4.086-2.797 14.071-2.416 16.508 1.1 7.057 6.113 8.22 9.988 7.718 1.356-.176 4.011-.689 6.48-3.962a68.748 68.748 0 0 0 2.232-3.142c-.158 3.339-.458 11.645.898 16.288 1.638 5.61 5.442 8.3 9.216 8.819 5.395.741 11.392-1.555 17.011-6.345-.211 3.061-.454 8.782.237 12.354.999 5.165 4.18 7.94 6.761 8.878 5.381 1.957 11.185.504 16.386-3.959 6.164-5.288 11.663-15.541 13.526-18.844a149.47 149.47 0 0 0 5.512-10.787l-.005.677c.001 3.988.765 15.318 4.138 20.98 2.283 3.833 5.529 6.021 9.259 6.574 4.995.741 9.727-1.235 13.611-5.426 4.535-4.893 7.844-13.64 9.256-16.78 4.17-9.28 8.014-18.732 11.696-28.265 4.818-12.474 9.357-25.086 14.008-37.62l-1.473 24.916c-.051 3.359 1.023 22.73 5.88 31.494 2.79 5.033 6.804 7.627 11.053 8.043 3.319.325 7.469-.557 11.925-4.715 7.769-7.248 13.702-17.887 18.234-29.888.664 3.459 1.749 7.151 3.415 9.525 2.193 3.126 5.139 4.923 8.537 5.386 8.668 1.18 16.655-3.516 22.887-12.273 8.748-12.293 14.32-33.154 16.612-41.186l2.497-9.221c3.017 9.777 9.951 10.855 15.342 8.338 7.352-3.434 14.14-10.556 19.968-19.682 10.142-15.882 17.776-38.071 23.488-50.266l6.411-14.619c.207 9.954-.633 20.488.287 27.133.135.972 2.127 12.717 4.081 15.768 1.99 3.106 4.646 4.256 6.75 4.639 2.79.509 5.871.098 8.751-2.827 7.536-7.658 12.613-19.252 15.806-32.688 5.835-24.548 5.596-55.621 8.198-74.329.805-5.769 1.243-9.115 1.801-12.145l.291-1.439c1.391-3.673 2.861-7.321 4.145-11.037 1.187-3.434 2.223-6.923 2.957-10.52.804-3.94-.302-6.059-.577-6.656-.736-1.601-4.346-4.96-8.382-5.579.327-6.027.56-12.041.75-18.014.084-2.65 2.152-17.503 1.393-26.323-.544-6.323-3.08-10.714-5.441-12.652-2.668-2.189-5.626-3.351-8.757-3.415.036-.496.061-.987.079-1.472.37-9.971-2.79-17.979-8.703-22.145-7.392-5.208-17.713-4.296-28.265 2.229-4.902 3.031-9.967 7.262-14.652 11.685a14.579 14.579 0 0 0-1.508-1.487c-6.437-5.491-15.999-5.639-26.21-.345-3.424 1.775-6.987 4.173-10.434 6.803-1.387-2.843-3.352-5.186-5.791-6.904-4.369-3.079-11.094-4.879-20.948-1.87-.045-2.825-.508-5.349-1.341-7.413-2.975-7.367-10.489-14.233-27.523-7.911-9.22 3.422-17.828 8.658-25.943 14.839a164.992 164.992 0 0 0-6.665 5.368c-2.602-1.519-5.818-2.341-9.779-2.209-11.888.398-23.315 5.099-33.984 12.459-4.995 3.446-9.828 7.507-14.47 11.896a18.766 18.766 0 0 0-2.522-2.909c-4.017-3.779-9.71-5.474-16.221-4.718-7.543.877-16.651 5.636-20.443 8.141-9.289 6.137-18.084 13.344-26.552 21.058l-1.174 1.08c-11.197.38-22.569 5.407-33.344 13.412-4.707 3.497-9.32 7.588-13.771 11.969-2.1-3.857-5.354-5.838-8.606-6.718-5.674-1.536-11.777-.976-17.817 1.289-8.79 3.297-17.624 10.777-23.055 15.499-9.834 8.549-18.619 18.127-26.515 28.511-4.323 5.686-8.377 11.617-12.189 17.756-2.421 1.299-4.779 2.931-7.036 4.843-7.154 6.058-13.394 15.288-17.608 21.57a254.456 254.456 0 0 0-7.593 12.08 17.64 17.64 0 0 0-2.077-1.873 9.854 9.854 0 0 0-1.814-2.741c-2.342-2.532-5.226-3.628-8.676-3.221-1.22.144-3.52.455-5.839 2.679-2.902.572-5.978 1.743-8.856 3.155 3.258-17.403 6.962-34.676 9.098-52.5.53-4.415-.972-6.584-1.274-7.118-1.345-2.381-13.33-10.243-18.567.238.836-6.434 1.714-12.858 2.633-19.273.394-2.749 1.977-6.05 3.038-9.218 1.489-4.442 2.255-8.758 1.897-12.262-.524-5.14-2.853-9.326-7.555-12.276-5.772-3.621-10.15-1.943-13.369.484-1.721 1.297-3.532 3.414-4.401 6.726-.452 1.724-.527 7.425-.535 8.233l-3.903 23.157a848.17 848.17 0 0 1-1.903 10.914c2.258-23.383 7.126-46.125 9.247-69.904.48-5.395-1.862-7.993-2.678-8.979-3.03-3.661-6.808-4.824-11.151-4.02-1.654.306-4.859 1.162-7.504 4.839-.458.637-1.368 2.6-2.264 4.539-3.219-.787-7.49-.512-11.833 2.233-4.147 2.621-9.612 9.106-10.501 10.132-5.545 6.401-10.619 13.259-15.006 20.584l-.475.815a93.155 93.155 0 0 1-5.085 4.484c-1.934 1.577-3.916 3.043-5.928 4.251.844-1.876 1.562-3.266 1.765-3.685 3.443-7.086 7.586-13.586 12.167-19.714 8.223-7.814 15.418-16.194 19.235-19.856l9.134-9.031c1.973-1.942 7.007-5.118 8.9-7.092 2.31-2.407 3.349-4.835 3.786-6.547 1.054-4.137.182-7.66-1.898-10.63-1.218-1.738-3.232-4.029-7.066-5.096.621-2.482.218-4.251.118-4.891-.718-4.598-3.216-7.346-6.138-9.088-2.285-1.363-5.338-2.398-9.35-1.524-7.381 1.628-15.17 6.168-22.546 12.634-8.615 7.552-16.895 17.799-23.646 26.63-3.116 2.089-6.346 4.03-9.612 5.659-3.045 1.519-6.083 2.904-9.024 3.565 1.727-4.449 3.834-8.312 4.235-9.178 5.423-11.698 14.693-29.16 25.849-43.905 4.229-3.299 7.838-6.257 10.455-8.251l16.434-13.427c1.912-1.6 6.603-5.519 7.49-6.742 3.478-4.795 2.875-9.167 2.249-11.555-.959-3.66-3.081-6.688-6.916-8.652-1.498-.768-4.857-2.541-10.396-.913-12.753 3.746-25.817 14.684-37.135 28.841l-.386.49c-3.611 2.786-7.601 5.71-11.732 8.368 4.001-5.74 8.293-11.482 12.833-16.98 6.342-7.68 13.17-14.88 20.395-20.837.583-.481.916-.808 1.072-.96 3.061-2.996 3.528-5.655 3.737-6.456 1.217-4.648-.007-8.139-1.521-10.677-2.075-3.478-5.836-7.436-13.291-6.753-.396.036-3.296.066-6.891 2.577-.692.483-3.081 2.282-4.03 3.036l-9.904 7.837c-2.697 2.052-7.509 6.108-13.035 10.014l.781-1.478c.959-1.758 1.931-3.506 2.951-5.108l.899-.886c1.906-1.881 6.702-6.418 7.859-7.806 8.818-10.581-.641-19.947-2.706-21.344-.402-.272-1.51-1.118-3.193-1.787.34-.473.656-.96.933-1.468a20.622 20.622 0 0 0 1.498-3.428c2.603-7.911-.914-12.362-2.525-14.313-3.207-3.884-8.478-7.399-16.468-4.447-1.095.405-2.761 1.164-4.571 2.608-1.349 1.076-3.866 3.731-5.051 4.864l-9.076 9.848c-3.488 4.35-16.854 21.161-20.258 33.083-2.362 8.27-1.035 15.386 2.608 20.433 2.57 3.561 6.127 6.123 10.485 7.06Zm537.238 68.653c-6.669 2.719-12.88 6.704-18.798 11.253-3.897 2.996-7.663 6.236-11.328 9.578-.281 4.126-1.114 8.068-2.183 10.857-3.562 9.291-10.683 20.398-19.576 27.926-7.386 6.251-15.962 10.046-24.717 9.904-4.402-.071-7.225-1.883-9.164-4.001-2.326-2.54-4.035-6.439-2.924-11.614.936-4.362 6.085-12.247 9.155-15.589l10.712-10.752c-2.674 1.823-5.288 3.881-7.851 6.07-8.332 7.119-16.036 15.75-23.025 24.104-3.065 6.935-6.726 13.613-10.801 19.993-4.826 7.557-10.224 14.7-15.878 21.359-2.605 3.068-7.219 9.195-12.091 12.774-4.271 3.137-8.882 4.692-13.199 4.522-7.296-.288-10.281-4.341-11.654-8.606-.704-2.186-1.002-5.127.193-8.526 1.089-3.099 5.569-8.797 7.715-11.552l22.141-25.53c3.748-4.275 7.83-9.242 12.215-14.481.41-.946.804-1.897 1.185-2.854.402-1.013.983-3.149 1.515-5.274-1.948.809-3.839 1.657-4.639 2.191-8.246 5.508-16.025 11.992-23.532 18.902-.801.737-1.599 1.479-2.393 2.226-.682 2.51-1.884 5.54-3.557 8.674-4.069 7.624-10.68 16.75-10.891 17.023-5.136 6.628-10.645 12.815-16.449 18.682-5.733 5.796-11.748 11.283-17.961 16.582-1.232 1.051-10.079 9.273-16.616 12.093-5.101 2.201-9.81 2.107-13.279.807-2.037-.764-3.619-1.761-4.847-2.906-3.968 6.69-8.348 13.337-12.958 18.888-7.676 9.244-16.324 15.541-24.6 17.322a17.968 17.968 0 0 1-3.509.422c-3.106 5.253-6.445 9.62-8.894 11.84-2.937 2.662-11.446 6.971-17.696 6.919-4.604-.038-8.51-1.396-11.455-4.087l-1.85 3.32-2.776 5.087-1.224 2.271c.883.986 1.678 2.313 2.166 4.108.332 1.222.337 6.367.112 8.448-.334 3.094-.775 5.693-1.384 8.311-.564 2.424-1.278 4.866-2.217 7.766-1.563 4.832-4.337 14.375-8.258 23.973-1.057 7.94-1.718 15.79-2.134 23.053-.168 2.937 1.04 13.668 1.341 16.26.617-.095 1.157-.907 1.819-1.482 2.882-2.505 5.542-6.323 8.015-10.463 6.581-11.014 11.523-24.351 13.205-28.28l5.538-13.741c.555-1.299 1.34-4.279 1.979-5.533 1.111-2.181 2.571-3.433 3.603-4.106 3.149-2.052 6.263-2.072 9.22-.749 1.54.689 3.935 2.03 5.293 5.784 2.477 6.85 2.99 15.044 2.336 23.812-.979 13.137-4.773 27.8-5.181 39.886 3.96-11.296 6.245-24.81 8.168-30.683l5.381-14.864c.611-1.535 1.895-5.428 2.346-6.443 5-11.264 15.89-2.736 16.995-.239.212.479 1.243 2.316.601 5.818a180.59 180.59 0 0 1-.862 4.397c.304-.388.613-.733.919-1.039 5.733-5.717 10.656-2.484 12.642-.825 1.381 1.153 3.06 3.131 3.296 6.52.115 1.644-1.776 8.208-2.404 10.971l-3.088 13.233c-2.358 11.661-4.566 23.651-6.006 35.713-.939 7.868-1.551 15.766-1.652 23.619-.007.483.065 1.423.177 2.556.87-1.143 1.58-2.114 1.828-2.531 7.814-13.161 14.055-27.25 21.231-40.785 3.239-6.108 6.66-12.108 10.463-17.882.638-.967 10.85-15.981 16.015-19.847 5.862-4.389 10.933-2.447 13.607.182 1.116 1.098 2.119 2.816 2.806 5.05.984-2.308 1.966-4.39 2.883-5.683 2.015-2.842 4.425-4.135 6.285-4.613 3.621-.931 8.423-.747 11.495 5.985 1.568 3.436 1.867 7.024 1.243 10.701-.777 4.577-3.54 9.397-4.91 13.821-2.418 7.806-5.199 15.8-7.155 23.952-1.201 5.005-2.088 10.071-2.309 15.192-.024.553.001 2.715.041 5.047 1.24-1.227 2.46-2.638 3.66-4.145 6.919-8.687 12.958-20.31 16.173-25.054l9.723-14.828c.555-.902 1.25-3.152 1.783-4.096.927-1.643 2.029-2.631 2.79-3.175 3.322-2.374 6.478-2.076 9.225-.573 1.309.717 3.576 2.156 4.419 6.035.854 3.928.206 7.59-1.473 11.085-1.796 3.738-5.6 7.13-7.313 10.95-2.782 6.203-5.397 12.48-7.534 18.938-1.678 5.074-3.061 10.261-3.973 15.615 2.042-2.805 3.94-5.489 4.549-6.566 4.234-7.492 7.691-15.392 10.639-23.529 4.501-12.425 7.819-25.4 10.828-38.367l2.553-12.393c.512-2.633.687-8.514 1.295-11.191.451-1.985 1.209-3.4 1.821-4.241 2.305-3.171 5.261-3.924 8.042-3.635 1.751.182 4.875.83 7.167 4.993 1.185 2.153 1.929 5.321 1.968 8.882.057 5.176-1.291 11.544-1.408 12.637-1.399 13.029-3.214 26.193-4.432 39.388-.79 8.559-1.325 17.131-1.318 25.684.001.886.257 2.888.575 5.027 1.447-2.691 2.924-5.493 3.416-6.591 4.041-9.005 7.762-18.18 11.329-27.432 5.406-14.024 10.457-28.224 15.706-42.292l11.047-28.84c.163-.363 4.589-8.108 6.516-11.014 5.832-8.797 15.558-.057 15.962 1.272 1.248 4.113 1.645 8.883 1.451 13.906-.348 9.063-2.71 19.108-3.335 26.356l-1.976 34.24c-.028 2.077.167 12.657 2.414 19.674 5.539-6.274 9.527-15.014 12.778-24.454 5.869-17.039 9.089-36.395 12.273-50.438.066-.292 1.482-13.225 3.571-20.427 1.511-5.205 4.299-8.425 6.103-9.496 4.057-2.41 7.327-1.536 9.916.178 1.399.927 2.832 2.42 3.702 4.746.738 1.971.817 6.543.897 8.844l-.729 14.032c-.848 12.603-2.948 25.557-3.914 38.415-.391 5.209-.588 10.4-.403 15.541.027.772.339 2.724.639 4.449.658-.594 1.275-1.359 1.922-2.13 2.414-2.873 4.474-6.675 6.297-10.706 4.568-10.096 7.504-21.638 8.995-26.918l5.948-22.189 3.666-18.075c.184-1.027.683-12.111 2.739-18.331 1.437-4.345 3.925-7.195 6.175-8.517 4.238-2.492 7.667-1.653 10.399.077 1.554.984 3.122 2.595 4.114 5.104.977 2.47 1.008 8.238 1.478 11.138.4 2.467 1.208 19.012 1.721 30.327 2.457-3.248 4.729-7.102 6.927-11.155 7.848-14.472 13.875-31.903 18.614-42.094l10.804-24.795c.133-.272 2.833-5.19 5.514-8.533 2.081-2.593 4.445-4.337 6.141-5.051 4.838-2.037 8.845-.887 11.92 2.999 3.518 4.447 5.61 11.065 6.425 18.706.475 4.444.524 9.303.468 14.073.417-2.06.791-4.164 1.138-6.294 1.424-8.743 2.282-17.935 2.931-26.834-4.072-1.091-7.721-4.058-7.965-4.652-.166-.405-1.098-2.444-.542-5.74.348-2.064 2.008-9.298 2.902-12.15l1.133-3.139c1.476-6.674 2.641-13.454 3.576-20.291 2.421-17.704 3.296-35.782 3.791-53.479.037-1.331.329-7.944.606-14.119l-.303.45a240.546 240.546 0 0 1-2.456 6.916l-5.365 12.983c-1.67 3.462-4.413 10.444-6.836 12.923-2.579 2.637-5.479 3.612-8.095 3.678-2.939.074-6.268-.75-9.196-4.368-1.576-1.946-3.024-5.158-2.223-9.561.838-4.602 7.025-15.001 7.384-15.646 1.027-1.841 4.022-7.425 7.879-13.498 1.467-4.342 3.176-9.955 4.28-15.562.681-3.463 1.141-6.917 1.036-9.973-.03-.86-.266-2.042-.44-2.8l-.304.051c-1.093.272-2.22.776-3.388 1.391-3.415 1.8-6.954 4.552-10.381 7.571-5.305 4.672-10.294 10.016-14.099 14.318a57.362 57.362 0 0 1-1.521 4.759c-3.121 8.48-8.259 16.069-13.113 19.522-3.666 2.609-7.485 3.565-11.055 3.214-3.213-.315-5.577-1.802-7.287-4.116-1.098-1.487-2.823-4.337-1.712-8.752.178-.707.734-2.296 1.912-4.314 2.745-4.7 10.695-16.031 11.421-16.861l2.017-2.321c-2.235.749-5.304 1.264-7.487 2.837-6.125 4.415-12.055 10.046-16.105 14.013-3.108 7.281-7.559 14.018-12.105 17.911-5.019 4.299-10.436 5.792-15.149 5.047-6.792-1.073-8.746-5.311-9.303-9.274-.272-1.935-.134-4.525 1.457-7.294.925-1.608 3.914-4.424 5.235-5.897l11.621-11.869.083-.079c.588-2.145.865-4.875.991-6.657-.485.109-.999.256-1.546.429l-5.2 2.016-12.45 9.716c-1.055 1.638-2.073 3.057-2.986 4.178-.141.172-10.194 11.244-14.696 13.856-8.081 4.689-13.77.517-16.199-3.428-1.324-2.15-3.337-8.292 1.9-14.603 3.053-3.68 11.131-10.515 15.275-13.954 1.87-3.206 3.792-7.22 5.137-11.094.146-.421.284-.892.408-1.387Zm-348.192 247.697c-2.409 2.065-4.791 3.108-6.574 3.588.018 1.799.08 4.171.148 6.276l.317-.357c2.295-2.528 4.302-5.881 6.109-9.507Zm104.321-147.582c-8.106 7.216-15.35 15.268-21.886 23.956a181.907 181.907 0 0 0-3.47 4.769 18.822 18.822 0 0 1 2.239 3.273l14.575-15.791c3.246-5.789 6.132-11.467 8.542-16.207Z" style="fill-opacity:.85"/><path d="M582.885 685.114c3.211-3.829 12.954-3.972 17.428-4.946 12.586-2.742 27.024-6.301 39.119-11.043 48.864-19.155 100.89-28.077 152.058-40.457 21.358-5.168 55.732-6.085 74.732-18.572" style="fill:#fff;fill-opacity:.45"/><path d="M591.86 696.609c2.061 2.561 8.664-2.504 11.326-3.25 7.715-2.134 16.071-4.57 24.195-7.403 5.609-1.955 11.099-4.007 16.176-6.307 18.928-8.285 38.277-15.284 58.126-20.944a573.222 573.222 0 0 1 36.415-9.129c18.522-3.994 37.243-7.019 55.817-10.884 15.02-2.805 36.056-3.351 54.256-7.062 9.785-1.996 18.688-5.115 26.06-9.347 6.727-4.421 8.599-13.47 4.178-20.196-4.42-6.727-13.47-8.599-20.196-4.178-6.21 4.63-14.572 7.846-23.585 10.29-15.792 4.281-32.992 6.699-45.563 10.445-20.245 5.54-40.485 11.059-60.886 15.839-20.733 4.859-41.501 9.227-61.952 14.851-10.38 2.855-20.701 5.798-30.921 9.268-5.788 1.93-12.101 3.49-18.473 4.863-6.592 1.421-13.213 2.524-19.394 3.511-4.184.658-12.005.97-17.257 2.888-3.597 1.314-6.296 3.577-8.47 5.878-5.173 6.167-4.366 15.373 1.801 20.545 5.368 4.504 13.04 4.475 18.347.322Z"/><path d="M879.912 590.147c2.528-.551-2.797 4.589-3.924 7.046-1.931 4.209-2.76 9.331-3.853 13.907-3.704 15.508-2.928 32.303.499 48.036 10.173 46.697 39.439 84.665 79.048 109.095 75.811 46.761 163.932 47.604 239.263 4.728 30.687-17.466 55.919-37.838 66.971-74.88 8.737-29.279 1.919-64.063-7.363-92.613-20.057-61.692-63.856-119.688-127.873-131.7-47.148-8.847-96.322 9.741-139.493 26.259-38.704 14.809-58.214 40.613-82.84 72.838-3.552 4.648-23.951 22.937-22.773 28.34" style="fill:#fff;fill-opacity:.45"/><path d="M878.454 575.632c-.53.063-1.078.151-1.646.265a14.54 14.54 0 0 0-9.759 7.391c-1.91.383-3.425 6.145-4.19 7.883a45.463 45.463 0 0 0-2.145 5.966c-.988 3.491-1.648 7.211-2.417 10.658-2 8.97-2.776 18.283-2.444 27.622.32 8.954 1.569 17.926 3.594 26.591 5.825 24.986 16.638 47.589 31.41 67.15 14.754 19.535 33.347 36.103 54.754 48.917 39.666 23.801 82.335 35.709 124.848 36.144 42.882.438 85.64-10.695 124.904-33.499 16.274-9.397 31.019-19.629 43.155-32.432 12.116-12.781 21.702-28.089 27.526-47.784 3.782-12.716 4.86-26.387 4.15-40.199-1.015-19.736-5.719-39.781-11.415-57.513-10.035-31.683-26.186-62.399-47.793-87.068-22.829-26.065-51.806-45.321-86.385-52.194-20.147-4.044-40.694-3.375-61.078-.038-29.224 4.784-58.095 15.237-84.744 25.013-16.873 6.178-30.432 14.357-42.416 24.071-17.418 14.119-31.311 31.719-47.133 51.792-1.569 1.986-6.055 6.369-10.776 11.264Zm7.972 37.159-.453 1.614c-1.685 6.61-2.44 13.506-2.402 20.442.04 7.19.836 14.416 2.251 21.416 4.353 21.483 13.024 41.064 25.174 58.122 12.42 17.436 28.342 32.303 46.757 44.003 35.666 22.606 74.331 34.57 113.122 35.78 39.518 1.232 79.091-8.581 115.653-28.971 14.855-8.333 28.445-17.301 39.546-28.809 10.45-10.834 18.654-23.924 23.715-40.734 4.069-13.622 4.461-28.538 2.773-43.354-1.743-15.29-5.724-30.468-10.234-44.159-9.729-29.168-24.938-57.473-45.343-79.926-20.346-22.387-45.913-38.861-76.226-44.213-17.686-3.089-35.619-1.958-53.346 1.428-27.646 5.28-54.756 16.126-79.818 26.116-13.837 5.525-24.89 12.615-34.585 20.959-15.563 13.394-27.614 30.045-41.546 48.854-2.662 3.601-12.783 25.951-19.751 23.405a14.619 14.619 0 0 1-5.287 8.027Z"/><path d="M1192.76 531.858c-4.282.106 8.698-11.299 10.132-12.298 8.41-5.857 17.82-11.332 27.36-14.9 18.248-6.824 41.414-11.73 60.907-12.346 6.714-.212 12.079-.52 18.668.746 1.658.319 10.329 2.75 10.051 1.473" style="fill:#fff;fill-opacity:.45"/><path d="M1206.44 536.893c1.719-2.073 3.125-6.691 3.578-7.096 3.609-3.145 7.278-6.321 11.321-9.106 3.954-2.723 8.012-5.193 12.216-7.189 4.359-1.91 8.951-3.885 13.848-5.405 4.698-1.458 9.597-2.692 14.561-3.501 10.079-1.642 20.27-1.632 29.541-1.186 3.173.253 5.971.493 8.793.869 2.33.31 4.522 1.004 7.023 1.798 1.649.538 8.825 2.891 11.63 3.268 3.614.486 6.122-1.164 7.808-1.817 2.215-.858 3.38-2.72 4.731-4.086 2.934-2.966 3.015-7.094 2.633-12.013-1.512-6.94-7.746-11.645-14.596-11.474-1.199-1.271-6.283.148-7.203.088-3.349-.242-6.353-.415-9.363-.208-3.973.273-7.765.746-12.157 1.383-8.311.977-17.065 2.823-25.989 4.945-5.047 1.201-10.101 2.508-15.128 3.725-7.902 1.913-15.676 3.638-22.745 5.93-5.422 1.515-10.725 3.715-16.053 6.027-5.231 2.27-10.25 4.813-15.131 7.479-1.222.65-8.372 5.891-12.589 9.757-2.471 2.265-3.663 4.819-4.518 6.391-3.046 5.603-.551 10.336 1.019 13.742 1.706 3.698 5.79 6.459 13.445 7.223 6.151-.151 11.323-4.098 13.325-9.544Zm-9.368-18.963c-1.292-.575-2.813-.931-4.675-.651a14.42 14.42 0 0 1 4.675.651Zm108.436-20.901c.001.191.039.393.116.608l-.116-.608Z"/><path d="M1301.92 497.075c-14.381 3.133-15.211 20.825-19.501 32.448-14.16 38.361-4.296 86.949 22.012 117.385 66.993 77.503 199.064 74.031 265.055 5.536 19.926-20.681 29.34-49.654 39.849-76.304 5.531-14.026 21.2-25.17 22.419-40.882 1.979-25.497-15.15-54.29-27.477-74.935-8.273-13.856-15.238-30.895-26.552-42.36-15.621-15.83-35.072-34.337-56.092-40.738-50.186-15.283-100.9 21.554-140.039 47.702-23.463 15.674-47.525 35.465-67.259 56.147-2.28 2.39-18.542 14.012-17.993 16.531" style="fill:#fff;fill-opacity:.45"/><path d="M1282.79 492.052a31.29 31.29 0 0 0-2.175 2.647c-6.028 8.181-7.987 20.641-11.269 30-7.541 21.5-8.586 45.707-3.815 68.761 4.74 22.908 15.007 44.66 29.819 61.295 35.753 40.257 87.941 59.537 140.125 59.671 52.817.135 105.505-19.192 140.285-55.934 8.569-8.976 15.329-19.364 21.052-30.465 8.039-15.592 14.021-32.605 20.358-48.797 3.727-9.396 12.296-17.36 17.518-26.473 3.003-5.241 5.098-10.782 5.598-16.837.957-11.449-1.469-23.526-5.674-35.369-5.776-16.274-14.967-32.118-22.468-44.927-5.725-9.792-10.825-21.116-17.179-31.059-3.109-4.863-6.519-9.404-10.363-13.39-9.526-9.88-20.481-20.705-32.33-29.367-8.757-6.402-18.037-11.583-27.586-14.618-22.384-7.151-44.982-4.96-66.875 2.132-30.149 9.765-58.907 29.261-83.293 45.017-12.262 7.918-24.674 16.922-36.639 26.553-11.95 9.621-23.414 19.898-33.787 30.411-1.973 1.997-13.738 10.346-17.618 14.685-1.83 2.045-2.986 4.113-3.684 6.064Zm32.928 9.734c-1.6 4.668-5.528 8.412-10.697 9.538-2.149.432-2.736 2.494-3.511 4.359-2.515 6.047-3.861 13.085-6.024 18.664-6.514 16.8-7.787 35.93-4.581 54.271 3.268 18.686 10.992 36.606 22.601 50.443 30.536 36.301 76.281 54.191 122.244 55.332 47.615 1.182 95.512-15.42 127.457-47.996 7.494-7.708 13.395-16.685 18.421-26.266 7.877-15.015 13.662-31.464 19.866-47.082 3.963-10.108 12.89-18.858 18.431-28.685 1.724-3.056 3.036-6.248 3.292-9.768.653-9.125-1.575-18.69-5.059-28.07-5.607-15.102-14.554-29.676-21.753-41.504-5-8.206-9.533-17.552-14.816-26.157-3.177-5.175-6.647-10.054-10.746-14.113-8.984-8.897-19.253-18.697-30.356-26.417-7.004-4.87-14.347-8.871-21.913-11.075-18.077-5.237-36.11-2.681-53.473 3.504-27.928 9.947-54.087 29.317-76.437 44.75-11.281 7.794-22.68 16.601-33.62 26.008-10.821 9.305-21.154 19.225-30.471 29.323-1.041 1.13-4.953 6.988-8.855 10.941Z"/><path d="M1081.74 1445.95c14.877-7.209 130.01-95.268 134.791-97.938 33.277-18.581 67.49-38.676 99.929-58.976 12.961-8.111 29.706-12.018 39.962-24.326 29.355-35.232 31.2-81.872 52.152-121.733 13.951-26.542 36.149-40.894 55.562-62.306 13.632-15.034 23.784-33.868 37.744-48.437 24.198-25.252 56.73-34.371 86.905-48.167 16.623-7.6 34.375-22.169 52.28-25.05 3.769-.606 22.816-4.695 25.418-.489 5.424 8.766 3.004 31.354-4.275 37.953-28.768 26.084-69.216 30.208-85.172 72.151-1.299 3.414-14.578 28.051-11.622 31.253 8.05 8.72 42.558 9.929 53.51 12.986 53.211 14.852 110.069 33.61 165.28 36.094 20.096.904 74.851-1.958 88.164 19.959 10.896 17.94-49.798 65.132-62.391 71.657-34.23 17.737-74.977 19.393-112.373 28.094-54.001 12.564-124.822 35.767-174.872 59.591-76.605 36.463-123.026 102.318-174.49 168.577-15.694 20.206-31.211 42.184-43.939 64.547-2.123 6.428-4.722 12.684-7.702 18.77-1.361 4.833-29.869 45.677-43.645 60.98-65.077 72.295-180.603 115.002-276.805 120.283-86.23 4.733-184.735-24.026-244.706-90.322-58.628-64.813-86.179-150.702-121.988-228.365-28.456-61.714-46.337-127.275-26.401-193.903 8.229-27.505 21.728-55.756 48.036-70.202 29.858-16.395 63.917-6.516 94.176 2.353 12.93 3.79 28.471 6.95 39.234 15.628 15.617 12.59 26.636 34.377 34.718 52.221 16.868 37.242 33.691 73.643 51.611 110.222 9.563 19.521 18.873 42.051 33.527 58.427 10.412 11.636 25.623 17.663 39.241 24.614 17.262 8.812 37.525 20.253 56.596 24.401 33.654 7.319 71.898-6.182 101.545-20.547Z" style="fill:#fff"/><path d="m1304.45 1583.23-.249.651a165.34 165.34 0 0 0 4.39-9.755 151.11 151.11 0 0 0 3.472-9.292c6.121-10.708 12.891-21.342 20.019-31.716 7.346-10.692 15.073-21.107 22.836-31.09 30.592-39.327 59.349-78.546 93.86-111.399 22.652-21.564 47.804-40.361 77.679-54.542 24.773-11.735 54.687-23.299 85.082-33.478 30.436-10.192 61.356-18.991 88.108-25.163 26.213-6.04 54.051-8.657 80.18-15.689 11.909-3.205 23.472-7.306 34.419-12.941 8.646-4.451 38.852-26.911 55.726-47.332 6.342-7.674 10.8-15.224 12.42-21.547 1.564-6.1.829-11.496-1.869-15.963-5.369-8.894-15.821-15.095-28.825-18.739-22.475-6.298-52.982-5.377-67.051-6.047-21.643-1.043-43.533-4.673-65.346-9.569-33.085-7.427-65.983-17.77-97.594-26.706-6.493-1.836-21.06-3.123-33.795-5.568-3.881-.745-7.567-1.602-10.654-2.688 3.013-6.795 8.964-20.265 9.723-22.241 3.95-10.28 9.62-17.892 16.272-24.048 19.323-17.881 45.814-25.174 66.393-43.684 5.17-4.65 9.4-14.717 10.579-25.431 1.126-10.235-.547-20.69-4.191-26.631-1.989-3.244-6.478-6.521-13.369-7.103-7.514-.635-20.233 1.816-23.397 2.312-6.547 1.027-13.097 3.326-19.584 6.342-12.223 5.685-24.237 14.193-35.704 19.381-18.479 8.36-37.807 15.025-55.65 24.57-12.647 6.765-24.555 14.939-35.082 25.838-3.083 3.192-5.997 6.573-8.808 10.073-10.039 12.497-18.588 26.676-29.341 38.442-13.866 15.172-29.097 26.813-41.847 41.725-5.844 6.834-11.189 14.311-15.771 22.944-14.953 28.163-20.53 59.695-32.727 88.274-4.666 10.934-10.402 21.396-18.396 30.904-3.053 3.63-6.96 6.145-11.057 8.378-8.522 4.646-17.896 8.089-25.901 13.049a2183.59 2183.59 0 0 1-49.432 29.696 2470.302 2470.302 0 0 1-50.179 28.488c-3.225 1.782-55.93 41.364-95.431 69.991-18.735 13.577-34.216 24.623-38.974 26.902-13.939 6.837-29.885 13.528-46.335 17.615-15.318 3.805-31.076 5.44-45.859 2.299-6.842-1.454-13.852-3.988-20.802-6.971-11.303-4.853-22.432-10.862-32.519-15.951-7.849-3.959-16.265-7.558-23.896-12.231-4.208-2.577-8.182-5.477-11.501-9.152-5.285-5.857-9.781-12.62-13.854-19.726-6.651-11.601-12.206-24.079-17.86-35.496-9.011-18.193-17.748-36.343-26.354-54.578-8.604-18.23-17.077-36.542-25.563-55.065-5.151-11.244-11.442-23.957-19.182-35.206-5.659-8.226-12.085-15.688-19.32-21.47-5.321-4.252-11.538-7.489-18.157-10.038-8.366-3.223-17.388-5.348-25.451-7.674-19.239-5.549-39.953-11.337-60.234-11.408-14.777-.053-29.34 2.797-43.121 10.442-12.014 6.665-21.723 15.789-29.583 26.424-11.105 15.027-18.511 33.082-23.757 50.894-10.389 35.201-10.851 70.076-4.841 104.281 5.839 33.234 17.789 65.836 32.498 97.425 21.712 46.651 40.475 96.271 64.731 142.513 16.529 31.512 35.581 61.471 59.704 87.969 31.11 34.173 72.079 58.703 116.464 74.005 44.172 15.228 91.705 21.339 136.061 18.795 48.907-2.799 102.689-15.093 152.539-35.864 50.371-20.988 96.715-50.63 130.091-87.826 7.281-8.101 18.604-23.184 28.016-36.55 8.657-12.293 15.559-23.384 17.151-27.054ZM1658.118 968c.409 2.605.251 5.798-.066 8.902-.47 4.611-1.069 9.364-3.276 11.381-20.483 18.719-46.949 26.286-66.187 44.354-8.812 8.276-16.316 18.47-21.491 32.215-1.134 3.011-10.765 21.654-12.274 29.807-1.124 6.074.913 10.273 2.86 12.367 2.904 3.125 7.885 5.99 14.328 7.996 13.71 4.268 35.751 5.5 44.135 7.81 32.013 8.822 65.343 19.032 98.835 26.323 22.971 5 46.019 8.639 68.785 9.591 11.522.488 34.706-.394 54.529 3.175 11.232 2.022 21.579 4.85 25.922 11.957.238.391-.138.848-.273 1.384-.289 1.153-.782 2.366-1.415 3.636-3.714 7.459-11.472 16.071-19.992 24.247-14.339 13.759-30.992 26.164-36.824 29.205-9.752 5.087-20.075 8.777-30.701 11.692-25.875 7.099-53.479 9.765-79.446 15.866-27.231 6.389-58.699 15.464-89.668 25.963-31.048 10.525-61.593 22.48-86.886 34.577-31.557 15.062-58.134 34.955-82.044 57.798-35.051 33.488-64.332 73.36-95.397 113.416-7.949 10.247-15.846 20.949-23.379 31.914-7.558 11.002-14.749 22.269-21.228 33.638a8.458 8.458 0 0 0-.679 1.529l-7.278 17.701a8.47 8.47 0 0 0-.544 1.425c-.708 2.504-9.652 15.285-19.328 28.689-7.973 11.045-16.611 22.36-22.5 28.892-31.87 35.293-76.137 63.256-124.145 83.039-48.015 19.786-99.795 31.364-146.837 33.836-42.047 2.205-87.077-3.767-128.856-18.434-41.222-14.472-79.282-37.427-108.029-69.41-22.804-25.371-40.712-54.039-56.246-84.143-23.797-46.118-42.047-95.586-63.296-142.103-13.665-29.931-24.814-60.767-30.093-92.188-5.183-30.854-4.648-62.274 4.948-93.914 3.874-12.747 8.931-25.679 16.116-37.073 6.679-10.591 15.241-19.829 26.617-26.012 10.08-5.479 20.736-7.306 31.493-7.176 18.063.22 36.411 5.826 53.504 10.917 7.392 2.201 15.686 4.161 23.35 7.189 4.18 1.652 8.161 3.63 11.509 6.353 5.359 4.359 10.012 10.047 14.181 16.218 6.809 10.082 12.25 21.49 16.753 31.548 8.366 18.684 16.722 37.158 25.21 55.55 8.518 18.457 17.169 36.831 26.095 55.251 5.783 11.935 11.49 24.958 18.309 37.093 4.972 8.849 10.543 17.228 17.03 24.541 5.024 5.665 10.959 10.276 17.358 14.276 8.221 5.139 17.264 9.197 25.728 13.568 10.514 5.43 22.126 11.805 33.916 17 8.654 3.813 17.418 6.981 25.955 8.88 15.264 3.396 31.382 3.075 47.383.343 22.419-3.829 44.61-12.476 63.513-21.523 4.086-2.003 15.298-9.609 29.677-20.055 38.407-27.899 101.994-76.949 105.5-78.927a2503.76 2503.76 0 0 0 50.477-29.258c16.809-10.011 33.513-20.236 49.77-30.511 9.07-5.732 20.005-9.414 29.259-15.352 5.094-3.269 9.766-7.1 13.707-11.873 9.596-11.623 16.534-24.322 22.081-37.636 11.685-28.05 16.708-58.991 31.1-86.653 4.926-9.463 11.044-17.196 17.687-24.306 11.332-12.129 24.088-22.593 35.82-35.635 11.003-12.233 19.782-26.887 30.043-39.869 2.328-2.946 4.737-5.8 7.295-8.49 8.672-9.123 18.566-15.918 29.026-21.62 17.309-9.437 36.114-16.019 54.052-24.306 11.499-5.313 23.53-13.957 35.785-19.775 4.474-2.124 8.96-3.857 13.487-4.603 1.865-.308 7.681-1.556 13.162-2.085a32.125 32.125 0 0 1 2.088-.122Z"/><path d="M561.969 1184.55c-2.192 20.604-17.119 34.825-21.004 55.812-19.217 103.814-31.089 174.673 15.003 273.968 14.08 30.333 22.082 79.433 63.349 75.321 72.789-7.254 86.511-84.589 122.358-134.432 43.478-60.455 115.565-85.246 87.364-169.85-4.455-13.364-13.842-24.248-20.343-36.604-8.961-17.027-17.128-33.631-29.335-48.615-18.391-22.576-33.95-44.461-60.019-59.112-39.421-22.155-93.981-5.382-129.369 15.9-13.355 8.03-49.312 29.153-33.335 45.315" style="fill:#ffd78b"/><path d="M545.008 1204.1c-5.137 10.938-11.423 21.49-13.691 34.469-11.264 64.208-19.763 116.006-14.065 169.329 3.698 34.606 13.288 69.869 32.086 109.503 8.568 18.132 15.182 42.816 27.581 59.269 9.936 13.186 23.233 21.648 43.054 19.553 31.184-3.254 52.182-18.432 68.592-38.976 22.983-28.774 36.544-68.551 58.002-98.517 26.403-36.45 63.062-59.976 82.098-91.375 13.435-22.161 18.763-48.025 6.95-84.185-1.44-4.425-3.369-8.607-5.557-12.663-4.614-8.551-10.496-16.478-14.963-25.116-5.375-10.402-10.475-20.639-16.331-30.476-4.021-6.755-8.402-13.317-13.45-19.621-11.166-13.945-21.319-27.595-33.376-39.583-8.306-8.259-17.51-15.724-28.472-22.018-17.25-9.915-37.229-13.043-57.505-11.658-29.003 1.981-58.602 13.376-81.004 26.555-9.823 5.766-30.277 18.16-38.242 30.83-5.194 8.26-6.406 16.677-1.707 24.68Zm26.894-22.69c.423 1.328.581 2.762.425 4.235-.571 4.892-1.706 9.483-3.254 13.884-5.065 14.4-15.274 26.323-18.459 42.612-12.108 62.146-21.588 112.272-16.969 164.152 2.945 33.075 11.645 66.845 28.953 104.953 7.964 17.471 13.678 41.323 25.345 57.228 7.024 9.574 16.446 15.926 30.719 14.591 27.27-2.591 45.69-15.812 60.146-33.664 23.031-28.442 36.529-68.015 57.976-97.707 25.909-36.287 62.266-59.686 80.831-90.968 11.482-19.347 15.478-41.905 4.847-73.172-1.23-3.605-2.877-6.997-4.715-10.29-4.78-8.564-10.819-16.486-15.451-25.138-5.386-10.053-10.481-19.961-16.336-29.45-3.763-6.099-7.853-12.015-12.551-17.684-10.999-13.272-20.964-26.324-32.8-37.684-7.437-7.139-15.644-13.578-25.391-18.939-18.072-9.928-39.537-10.669-60.467-6.745-21.802 4.087-43.053 13.377-59.763 23.647-5.557 3.423-15.328 9.307-23.086 16.139Zm1282.458-8.89c-10.874 4.885-33.223 11.754-37.749 13.198-13.11 3.889-26.598 5.85-40.267 6.307-8.371.28-16.788 0-25.173-.413-12.977-.639-25.864-1.773-38.587-1.869-7.834-.21-34.989-12.634-41.505-6.87a10.352 10.352 0 0 0-5.192-3.358c-5.537-1.545-11.288 1.696-12.833 7.233-1.256 5.802.209 12.477 8.934 15.764 10.495 3.955 41.16 3.149 51.008 2.347 14.519-.866 29.356-.894 44.216-.73 10.101.111 20.193.281 30.227-.082 11.092-.402 22.095-1.299 32.97-3.677 5.712-1.149 36.632-7.361 46.386-11.472 7.431-3.132 8.492-9.285 8.525-11.739.043-3.212-1.476-7.852-8.673-10.366-5.015-1.399-10.204 1.126-12.287 5.727Zm-180.999 18.742c-.059.362-.14.725-.241 1.087.126-.365.203-.727.241-1.087Zm186.538-4.798c.335.166.714.304 1.147.395a9.87 9.87 0 0 1-1.147-.395Z"/><path d="M1858.64 1188.05c-8.199-.584-28.971 16.375-31.961 17.434a202.93 202.93 0 0 1-37.592 8.558c-7.775 1.002-15.656 1.548-23.49 1.897-12.172.544-24.226.424-35.783.722-9.249.046-33.52 1.487-43.983 2.106-2.136.126-3.689.219-4.437.267-.327.021-.546.051-.651.06-.381.032-.621.115-.738.133-1.845.283-2.79 1.074-3.18 1.278-3.513 1.839-4.193 4.799-4.711 6.475-1.182 3.826-.367 8.194 5.299 11.648a10.37 10.37 0 0 0 7.495.84c.801-.155 1.938-.373 3.344-.63 10.092-1.846 33.532-5.974 42.519-7.073 13.401-1.317 27.466-2.695 41.637-3.93 9.402-.82 18.832-1.593 28.116-2.678 10.395-1.214 20.599-2.651 30.38-5.033 4.107-.924 34.615-9.74 42.444-15.013 5.961-4.016 5.887-9.556 5.333-12.665-.52-2.924-2.661-6.435-8.639-8.555-4.41-1.231-8.955.574-11.402 4.159Zm4.934 15.621c.259.123.546.22.867.286a9.163 9.163 0 0 1-.867-.286Z"/><path d="M1805.15 1226.51c-2.953-1.779-9.875 3.846-12.684 4.491-9.83 1.96-19.697 5.61-29.861 8.674-4.065 1.225-8.182 2.311-12.311 3.153-9.007 1.837-18.005 2.483-26.655 1.618-3.569-.492-16.501-3.162-24.339-3.297-7.322-.126-11.739 3.755-13.583 6.276-2.912 4.958-1.252 11.346 3.705 14.258a10.411 10.411 0 0 0 10.372.101c2.936 4.536 19.772-1.834 23.157-1.998 10.391-.086 20.82-2.749 31.499-5.416 6.5-1.624 13.101-3.154 19.666-4.472a142.135 142.135 0 0 1 20.459-2.557c2.514-.081 6.826.043 10.998-.287 3.663-.29 7.071-1.287 9.802-2.431 4.406-1.846 6.681-5.394 8.144-9.068 1.545-5.538-1.695-11.288-7.233-12.834-4.255-1.188-8.637.451-11.136 3.789Zm-101.553 31.6a.595.595 0 0 0 .083-.132l-.083.132Zm99.91-28.336a.764.764 0 0 0-.055.18l.055-.18Zm38.103-48.284c-.435-2.294-.691-4.826-.257-6.995.105-.528.441-1.09.566-1.528 1.338.07 2.753.445 4.103.965 2.024.779 3.402 2.483 4.68 3.826.894 1.03 4.223 4.933 5.805 5.382.775.464 1.623.832 2.534 1.086 1.461.017 2.248.436 2.673.348 1.104-.23 1.966.098 2.554-.185 2.175-1.048 4.043-1.194 4.848-2.391 1.52-2.261 3.647-3.766 3.376-6.223-.065-.587.278-1.152.106-1.75-.235-.818.102-1.767-.404-2.615-.602-1.009-.514-2.864-2.213-3.994-.484-.321-1.08-1.763-3.002-2.26-.842-.218-2.892-.739-4.898-1.163l-.363-.067c.333-.05.697-.052 1.096.076.15.048.417-.054.763-.08a10.327 10.327 0 0 0-2.585-.112c-.378-.054-.671-.088-.671-.088s.025.085.064.158l-.121.019c-3.24-1.444-7.015-2.634-11.127-3.047-4.106-.412-8.225-.725-11.665.37-5.034.415-10.792 11.608-13.017 20.819-1.058 4.382-.306 8.011.173 10.434.223 1.128 1.057 1.815 1.454 2.688.94 2.067 3.064 2.583 4.614 3.725 5.314 2.195 11.409-.337 13.604-5.651 1.734-4.197.518-8.883-2.69-11.747Zm.162.817c.122.6.255 1.176.387 1.718.051.21.29.379.505.516 0-.455.127-1.154-.096-1.369a9.83 9.83 0 0 1-.796-.865Zm-1.694-1.952c-.415-.373-.87-.639-1.429-.723.502.208.978.45 1.429.723Zm23.499-16.433c.302-.028.665.002 1.065.238a10.318 10.318 0 0 0-1.065-.238Z"/><path d="M1837.47 1218.97c-.263-1.559-1.072-2.647-.98-4.27.104-1.856-.308-3.839.86-5.125.403-.443 1.093-.383 1.674-.506.387-.081.581.492.99.565 1.136.204.632 2.037 1.784 3.031 5.538 1.546 11.288-1.695 12.834-7.232 1.545-5.538-1.695-11.288-7.233-12.834-4.381.748-7.26.31-10.094 2.181-.794.524-1.593.649-2.334 1.186-1.917 1.389-3.618 2.558-5.255 4.209a69.188 69.188 0 0 1-2.904 2.731c-1.084.975-1.882 2.051-3.007 3.054-2.657 2.366-4.166 4.71-6.402 7.409-1.545 5.537 1.696 11.288 7.233 12.833 5.538 1.546 11.288-1.695 12.834-7.232Z"/></svg>