<?xml version="1.0" encoding="UTF-8" standalone="no"?><!DOCTYPE svg PUBLIC "-//W3C//DTD SVG 1.1//EN" "http://www.w3.org/Graphics/SVG/1.1/DTD/svg11.dtd"><svg width="100%" height="100%" viewBox="0 0 1889 2093" version="1.1" xmlns="http://www.w3.org/2000/svg" xmlns:xlink="http://www.w3.org/1999/xlink" xml:space="preserve" xmlns:serif="http://www.serif.com/" style="fill-rule:evenodd;clip-rule:evenodd;stroke-linejoin:round;stroke-miterlimit:2;"><path d="M865.188,1341.32c-10.279,7.813 -15.775,1.581 -10.359,-10.285c9.123,-19.986 19.373,-40.12 33.738,-56.895c17.868,-20.866 43.087,-34.038 64.551,-50.685c13.271,-10.293 24.91,-23.061 38.782,-32.514c28.485,-19.411 76.062,-15.13 48.878,-58.818c-14.823,-23.821 -41.807,-33.429 -66.408,-43.751c-33.42,-14.023 -77.439,-25.397 -113.963,-22.229c-52.44,4.548 -109.414,36.02 -153.805,61.684c-27.704,16.017 -62.537,32.471 -81.022,59.762c-18.869,27.861 2.75,46.732 25.77,60.732c25.519,15.52 53.719,23.389 80.488,36.095c20.254,9.614 37.624,23.86 58.177,33.475c15.199,7.111 32.192,17.06 48.614,20.554c3.804,0.809 35.862,5.181 24.439,-0" style="fill:#fff;"/><path d="M845.897,1349.75c4.242,5.364 13.584,8.784 25.594,-0.133c1.926,-1.464 3.2,-3.47 3.766,-5.644c0.613,-1.626 0.762,-3.367 0.547,-5.186c-0.202,-1.7 -1.278,-6.471 -8.433,-9.825l-0.417,-0.176c4.348,-9.536 9.029,-19.021 14.41,-28.052c4.279,-7.184 8.982,-14.091 14.334,-20.484c4.942,-5.904 10.504,-11.171 16.419,-16.068c14.702,-12.173 31.397,-22.228 46.236,-33.974c9.304,-7.365 17.801,-15.932 26.823,-23.741c3.627,-3.138 7.338,-6.154 11.252,-8.878c8.801,-6.126 19.615,-9.774 29.188,-13.464c9.046,-3.488 17.106,-7.101 22.438,-11.978c9.423,-8.619 13.145,-21.239 -1.167,-43.821c-6.566,-10.372 -15.193,-18.285 -24.965,-24.705c-13.756,-9.039 -29.796,-15.094 -44.991,-21.35c-17.086,-7.063 -36.871,-13.425 -57.037,-17.624c-20.394,-4.246 -41.177,-6.284 -60.015,-4.583c-21.687,1.902 -44.113,8.314 -66.177,16.938c-32.141,12.562 -63.521,29.891 -90.329,45.243c-16.791,9.563 -36.128,19.305 -53.033,31.409c-11.962,8.564 -22.704,18.321 -30.695,29.919c-9.102,13.212 -10.188,24.889 -7.004,35.143c4.537,14.609 19.086,26.65 34.635,36.307c7.865,4.885 15.988,9.055 24.244,12.876c18.617,8.616 37.955,15.334 56.573,24.41c15.962,7.789 30.038,18.531 45.413,27.481c4.065,2.367 8.219,4.609 12.502,6.669c9.092,4.376 18.82,9.762 28.69,14.199c7.256,3.262 14.6,5.994 21.84,7.625c1.194,0.268 4.927,0.876 9.359,1.467Zm-1.291,-20.556c0.295,-0.775 0.631,-1.562 1.007,-2.362c5.771,-12.278 11.959,-24.605 19.221,-36.197c4.979,-7.948 10.441,-15.564 16.602,-22.598c5.815,-6.638 12.311,-12.545 19.207,-18.014c15.068,-11.949 32.059,-21.778 47.241,-33.314c9.249,-7.028 17.714,-15.266 26.696,-22.734c4.128,-3.431 8.354,-6.713 12.792,-9.674c9.974,-6.653 22.059,-10.672 32.835,-14.6c7.1,-2.588 13.586,-4.988 17.805,-8.719c5.516,-4.878 4.693,-11.898 -3.343,-25.053c-5.314,-8.689 -12.427,-15.311 -20.458,-20.754c-12.909,-8.751 -28.086,-14.575 -42.403,-20.695c-16.32,-6.949 -35.23,-13.287 -54.541,-17.486c-19.12,-4.157 -38.629,-6.238 -56.333,-4.765c-20.584,1.766 -41.903,7.769 -62.816,16.019c-31.512,12.431 -62.095,29.883 -88.286,45.169c-16.284,9.555 -35.096,19.25 -51.442,31.312c-10.498,7.747 -19.952,16.487 -26.874,26.884c-7.322,11.004 -7.006,20.139 -2.223,27.894c5.467,8.863 15.737,15.931 26.131,22.119c7.389,4.4 15.007,8.13 22.744,11.526c18.899,8.297 38.496,14.64 57.415,23.379c16.508,7.62 31.185,18.245 47.117,27.067c3.686,2.041 7.446,3.971 11.321,5.734c9.034,4.106 18.707,9.213 28.511,13.354c6.061,2.56 12.171,4.723 18.189,5.929c0.611,0.122 2.027,0.337 3.885,0.579Z"/><path d="M868.926,1306.52c-9.768,-1.248 2.877,-71.906 -2.212,-80.561c-27.717,-47.148 -76.881,-95.241 -124.038,-122.131c-68.322,-38.959 -145.009,18.149 -200.38,53.719c-62.013,39.836 -126.611,69.357 -185.048,115.821c-51.787,41.177 -90.768,93.388 -133.37,143.444c-24.545,28.839 -33.145,59.912 -47.678,93.921c-11.121,26.026 -26.463,49.852 -36.345,76.516c-14.456,39.006 -21.943,80.354 -35.335,119.729c-22.502,66.161 -56.596,127.713 -75.351,195.359c-9.884,35.646 -41.069,142.112 8.661,164.436c62.602,28.104 136.59,8.847 202.06,5.702c39.571,-1.901 78.812,3.716 118.358,2.104c94.638,-3.858 188.806,-13.179 282.742,-22.21c44.078,-4.237 89.694,3.322 133.36,-5.702c13.019,-2.69 39.689,-8.513 46.688,-21.003c7.033,-12.552 -19.071,-59.444 -23.344,-71.722c-17.176,-49.355 -26.066,-110.105 -18.333,-162.034c8.359,-56.134 25.147,-107.897 38.676,-162.642c6.899,-27.915 9.195,-54.998 19.663,-82.229c10.629,-27.65 31.484,-47.51 44.347,-72.918c13.436,-26.541 14.954,-57.193 25.343,-85.218c8.718,-23.516 19.893,-46.721 33.676,-67.516c36.448,-54.991 -49.845,-12.017 -72.14,-14.865Z" style="fill:#ffd78b;"/><path d="M875.621,1295.93c-1.057,-13.44 1.939,-38.786 2.419,-55.027c0.293,-9.872 -0.958,-17.276 -2.616,-20.071c-14.34,-24.183 -34.156,-48.61 -56.49,-70.41c-22.372,-21.835 -47.251,-41.043 -71.585,-54.797c-29.949,-16.927 -61.285,-17.141 -91.978,-8.529c-42.702,11.982 -84.131,41.399 -117.755,63.159c-43.442,28.113 -88.177,51.142 -131.142,78.523c-18.453,11.76 -36.584,24.311 -54.157,38.381c-20.965,16.784 -39.849,35.346 -57.719,54.84c-26.494,28.902 -50.749,59.86 -76.302,90.055c-10.102,11.938 -17.608,24.225 -23.908,36.929c-9.268,18.692 -15.882,38.291 -24.654,58.98c-7.706,18.148 -17.482,35.224 -25.999,52.95c-3.756,7.817 -7.274,15.755 -10.291,23.953c-4.374,11.884 -8.113,23.979 -11.566,36.171c-7.906,27.921 -14.288,56.352 -23.562,83.824c-15.647,46.262 -36.978,90.275 -54.745,135.696c-7.698,19.681 -14.736,39.623 -20.383,60.115c-6.783,24.552 -23.257,82.063 -17.751,123.812c2.9,21.995 11.865,39.725 29.91,47.813c25.966,11.64 53.814,15.431 82.236,15.546c41.075,0.165 83.365,-7.425 122.6,-9.286c7.78,-0.364 15.547,-0.433 23.306,-0.322c31.693,0.455 63.253,3.84 95.014,2.591c37.899,-1.469 75.724,-3.818 113.492,-6.663c56.667,-4.27 113.202,-9.667 169.652,-14.966c30.702,-2.868 62.137,0.033 93.143,-1.01c13.789,-0.463 27.494,-1.692 41.023,-4.45c9.325,-1.9 25.251,-5.393 36.874,-11.491c6.631,-3.478 11.907,-7.895 14.778,-12.987c3.072,-5.445 2.339,-16.135 -1.655,-28.327c-6.037,-18.424 -18.154,-41.425 -20.934,-49.496c-8.335,-24.197 -14.626,-51.177 -17.876,-78.463c-3.232,-27.142 -3.447,-54.59 0.401,-79.875c3.372,-22.122 8.072,-43.551 13.362,-64.752c8.063,-32.321 17.493,-64.116 25.746,-96.994c4.921,-19.604 7.565,-38.805 12.374,-57.928c1.942,-7.723 4.251,-15.432 7.251,-23.152c2.959,-7.613 6.768,-14.579 10.952,-21.239c10.835,-17.25 24.049,-32.587 33.301,-50.698c4.353,-8.522 7.563,-17.441 10.214,-26.569c5.689,-19.586 8.619,-40.194 15.86,-59.51c4.28,-11.408 9.156,-22.737 14.645,-33.735c5.471,-10.962 11.558,-21.59 18.273,-31.633c18.692,-27.956 9.223,-39.711 -3.031,-42.883c-7.74,-2.003 -21.027,-0.069 -35.12,3.393c-10.577,2.599 -21.725,5.849 -30.732,7.656c-1.744,0.349 -3.379,0.66 -4.875,0.876Zm-18.101,-65.68c0.075,1.162 0.361,5.999 0.213,9.975c-0.678,18.213 -4.135,47.247 -2.48,60.634c0.705,5.695 2.616,9.649 4.503,11.784c2.23,2.525 4.918,3.816 7.85,4.202c5.041,0.623 12.829,-0.424 21.805,-2.563c12.731,-3.033 28.461,-8.07 40.873,-10.131c2.767,-0.459 6.32,-0.556 8.673,-0.559c-1.126,2.873 -3.271,7.811 -6.205,12.276c-7.087,10.788 -13.502,22.193 -19.255,33.952c-5.699,11.649 -10.756,23.64 -15.177,35.711c-7.27,19.833 -10.201,40.934 -15.88,61.032c-2.261,8.004 -4.979,15.843 -8.734,23.327c-8.87,17.68 -21.702,32.633 -32.118,49.488c-4.731,7.656 -9,15.674 -12.322,24.41c-3.215,8.454 -5.686,16.889 -7.745,25.338c-4.67,19.165 -7.176,38.392 -11.955,58.039c-8.014,32.942 -17.205,64.81 -25.039,97.192c-5.258,21.73 -9.911,43.689 -13.205,66.347c-3.885,26.673 -3.526,55.597 0.062,84.179c3.563,28.38 10.292,56.421 19.128,81.552c2.479,7.05 12.156,25.461 18.686,42.295c2.686,6.924 4.851,13.537 5.486,18.788c0.228,1.885 0.52,3.47 -0.074,4.538c-2.233,4.01 -7.332,6.806 -12.964,9.246c-9.794,4.243 -21.505,6.762 -28.758,8.281c-12.728,2.666 -25.631,3.87 -38.615,4.377c-31.268,1.221 -62.989,-1.492 -93.94,1.568c-56.345,5.544 -112.773,11.2 -169.34,15.703c-37.601,2.993 -75.262,5.473 -113,7.086c-31.532,1.33 -62.875,-1.961 -94.345,-2.33c-8.007,-0.093 -16.022,-0.003 -24.05,0.392c-39.035,1.9 -81.1,9.582 -121.967,9.422c-26.72,-0.104 -52.92,-3.597 -77.319,-14.565c-18.717,-8.416 -23.813,-30.444 -23.791,-55.128c0.035,-37.602 12.941,-81.682 18.628,-102.12c5.595,-20.055 12.555,-39.565 20.159,-58.818c17.99,-45.554 39.546,-89.685 55.416,-136.089c9.469,-27.634 16.045,-56.242 24.139,-84.335c3.411,-11.842 7.097,-23.59 11.403,-35.128c2.901,-7.773 6.283,-15.296 9.885,-22.704c8.694,-17.883 18.64,-35.111 26.516,-53.425c8.769,-20.362 15.376,-39.674 24.623,-58.064c5.862,-11.657 12.812,-22.937 22.169,-33.87c25.589,-29.895 49.867,-60.579 76.401,-89.169c17.447,-18.799 35.878,-36.682 56.319,-52.823c17.208,-13.588 34.953,-25.687 53.002,-37.02c43.191,-27.117 88.121,-49.87 131.795,-77.718c32.411,-20.667 72.184,-48.979 113.25,-60.185c26.011,-7.097 52.556,-7.132 77.776,7.376c22.899,13.173 46.247,31.539 67.232,52.336c20.64,20.454 38.985,43.275 52.286,65.898Z"/><g id="Cara"><path d="M1183.09,155.207c-4.704,-21.596 38.621,-39.692 50.505,-45.63c15.487,-7.739 31.437,-13.318 47.361,-19.966c36.061,-15.052 87.881,-43.093 125.751,-12.062c10.708,8.775 22.924,44.08 20.389,57.581c-2.713,14.45 -11.262,25.388 -15.225,38.974c-3.434,11.772 12.929,10.857 10.883,22.952c-3.974,23.495 -34.437,31.648 -51.643,37.952c-5.634,2.064 -17.929,8.497 -24.53,6.894c-14.928,-3.625 -35.177,-28.766 -48.262,-37.379c-28.832,-18.979 -61.557,-26.112 -90.994,-42.023c-7.355,-3.975 -12.316,-12.394 -17.876,-15.74"/><path d="M1190.9,167.521c1.138,1.134 2.332,2.233 3.607,3.211c1.967,1.509 3.999,2.911 6.19,4.018c21.309,10.832 44.112,17.268 66.144,26.561c8.581,3.62 17.044,7.666 25.192,12.75c8.718,5.472 20.722,18.224 32.119,26.94c7.032,5.377 13.952,9.396 20.031,10.749c3.447,0.77 7.839,0.587 12.484,-0.674c6.438,-1.748 13.728,-5.435 17.761,-6.996c10.929,-4.195 26.878,-9.305 38.743,-18.048c9.298,-6.851 16.306,-15.74 18.138,-27.528c0.647,-4.027 0.141,-7.269 -0.979,-10.012c-1.389,-3.407 -3.767,-6.093 -6.559,-8.408c-0.802,-0.665 -1.631,-1.302 -2.426,-1.953c-0.573,-0.469 -1.627,-0.646 -1.34,-1.652c2.709,-9.3 7.67,-17.307 11.279,-26.141c1.764,-4.318 3.254,-8.804 4.182,-13.635c1.499,-7.706 -0.826,-21.718 -5.369,-35.027c-4.593,-13.455 -11.522,-26.002 -17.654,-31.137c-17.027,-14.394 -36.731,-18.078 -56.928,-16.321c-27.644,2.404 -56.347,15.826 -79.013,24.74c-11.309,4.42 -22.609,8.315 -33.777,12.801c-4.976,1.998 -9.913,4.125 -14.823,6.44c-8.943,4.184 -33.671,14.539 -47.3,27.925c-9.663,9.49 -13.951,20.747 -11.768,32.187c1.713,7.864 9.489,12.858 17.353,11.145c1.723,-0.375 3.307,-1.041 4.713,-1.935Zm14.209,-26.077c2.598,3.074 5.216,6.723 8.83,8.806c20.139,11.55 41.977,18.832 62.9,28.907c9.494,4.572 18.822,9.634 27.751,15.828c8.909,6.145 21.045,19.97 32.643,29.616c4.162,3.461 8.051,6.484 11.733,7.454c1.795,0.471 4.29,-0.653 6.822,-1.515c4.633,-1.578 9.158,-3.623 11.993,-4.604c9.778,-3.413 24.157,-7.187 34.871,-14.617c5.61,-3.892 10.264,-8.773 11.533,-15.711c0.156,-0.876 -0.332,-1.345 -0.794,-1.779c-1.014,-0.951 -2.142,-1.807 -3.19,-2.701c-2.99,-2.553 -5.416,-5.421 -6.557,-9.051c-0.89,-2.832 -1.158,-6.179 0.078,-10.347c2.881,-9.863 8.074,-18.386 11.867,-27.77c1.331,-3.294 2.448,-6.717 3.124,-10.403c1.049,-5.796 -1.507,-16.172 -5.088,-26.099c-3.528,-9.778 -8.107,-19.241 -12.669,-22.899c-13.171,-10.459 -28.197,-12.56 -43.374,-10.686c-25.564,3.157 -51.506,17.252 -72.185,26.392c-9.485,4.216 -18.98,8.044 -28.379,12.187c-5.974,2.633 -11.892,5.41 -17.744,8.503c-5.615,2.989 -18.742,9.081 -29.739,17.026c-1.54,1.112 -3.029,2.268 -4.426,3.463Z"/><path d="M561.552,777.129c5.692,13.04 16.033,32.891 27.527,46.179c11.494,13.289 26.941,23.424 41.437,33.552c14.78,10.325 31.892,18.199 47.244,28.404c16.374,10.883 35.897,23.166 51,36.896c14.765,13.422 29.191,28.067 39.622,45.484c10.465,17.472 15.323,39.619 23.167,59.351c8.143,20.484 15.998,43.486 25.69,63.551c9.514,19.7 20.614,45.1 32.457,56.842c9.986,9.9 26.366,7.299 38.601,13.608c16.793,8.659 43.466,32.961 62.156,38.345c16.362,4.714 33.247,-4.663 49.982,-6.039c28.483,-2.342 88.143,-0.11 120.919,-8.01c27.54,-6.637 56.248,-26.721 75.74,-39.389c15.289,-9.936 29.016,-22.675 41.21,-36.616c12.524,-14.318 23.358,-32.3 33.933,-49.29c11.873,-19.073 27.392,-43.53 37.304,-65.15c9.421,-20.549 16.208,-46.625 22.17,-64.572c4.745,-14.288 11.958,-31.669 13.598,-43.115c1.21,-8.449 -1.427,-19.684 -3.762,-25.559c-1.774,-4.465 -14.353,-7.867 -10.245,-9.695c5.125,-2.28 27.509,-1.47 40.993,-3.985c17.026,-3.176 41.542,-7.501 61.161,-15.069c20.31,-7.835 45.034,-19.833 60.699,-31.941c13.679,-10.573 26.915,-24.449 33.294,-40.71c6.379,-16.26 6.713,-37.802 4.98,-56.852c-2.516,-27.674 -14.426,-78.483 -20.079,-109.191c-4.607,-25.02 -4.931,-51.267 -13.842,-75.056c-10.195,-27.213 -30.965,-59.171 -47.325,-88.226c-24.43,-43.387 -76.521,-134.644 -99.257,-172.096c-11.181,-18.418 -19.926,-40.632 -37.159,-52.615c-23.719,-16.493 -74.371,-35.427 -105.156,-46.34c-25.862,-9.168 -52.623,-15.923 -79.555,-19.136c-31.021,-3.701 -72.382,-6.248 -106.572,-3.067c-33.563,3.122 -66.473,11.891 -98.568,22.152c-38.085,12.176 -89.101,28.265 -129.946,50.904c-41.558,23.034 -86.148,56.347 -119.406,87.304c-30.697,28.574 -60.768,70.101 -80.142,98.438c-14.943,21.855 -28.723,51.323 -36.105,71.584c-5.715,15.688 -6.117,33.194 -8.184,49.982c-2.108,17.124 -5.11,35.05 -4.465,52.762c0.819,22.499 8.076,54.714 9.38,82.236c1.377,29.054 -2.037,71.397 -1.119,92.088c0.482,10.877 2.27,22.086 6.623,32.057Z" style="fill:#fff;"/><path d="M1350.41,858.867c4.704,-0.158 9.841,-0.336 14.573,-0.799c3.205,-0.313 6.257,-0.707 8.98,-1.221c10.625,-2.006 24.125,-4.464 37.574,-7.855c8.647,-2.18 17.271,-4.743 25.14,-7.798c12.204,-4.739 25.957,-10.945 38.488,-17.779c9.091,-4.958 17.546,-10.251 24.369,-15.549c7.28,-5.652 14.434,-12.19 20.623,-19.476c6.446,-7.589 11.847,-15.985 15.37,-25.021c2.892,-7.422 4.677,-15.83 5.598,-24.634c1.242,-11.861 0.932,-24.461 -0.146,-36.164c-0.847,-9.23 -2.708,-20.976 -5.046,-33.704c-4.726,-25.722 -11.404,-55.549 -15.233,-76.246c-3.238,-17.502 -4.389,-35.605 -7.832,-53.049c-1.574,-7.975 -3.611,-15.818 -6.468,-23.425c-3.367,-9.006 -7.844,-18.519 -12.941,-28.271c-10.519,-20.124 -23.718,-41.321 -34.876,-61.165c-14.086,-25.113 -37.41,-66.224 -58.932,-103.721c-15.751,-27.442 -30.534,-52.953 -40.113,-68.83c-7.862,-13.032 -14.584,-27.884 -23.759,-39.891c-4.582,-5.997 -9.757,-11.317 -15.824,-15.561c-10.344,-7.235 -25.618,-14.971 -42.244,-22.313c-22.256,-9.828 -46.966,-19.002 -64.954,-25.436c-13.176,-4.727 -26.583,-8.836 -40.129,-12.193c-13.695,-3.395 -27.533,-6.015 -41.418,-7.724c-16.058,-1.977 -34.849,-3.656 -54.015,-4.418c-18.568,-0.739 -37.485,-0.607 -54.645,0.924c-17.268,1.541 -34.372,4.538 -51.293,8.448c-16.703,3.859 -33.225,8.616 -49.541,13.757c-23.574,7.421 -52.047,16.313 -80.069,27.291c-18.004,7.052 -35.815,14.972 -52.075,23.89c-21.021,11.529 -42.805,25.629 -63.585,40.726c-21.179,15.386 -41.305,31.819 -58.489,47.653c-12.231,11.269 -24.379,24.512 -35.839,38.203c-18.042,21.554 -34.36,44.226 -46.546,61.854c-7.512,10.868 -14.759,23.553 -21.126,36.141c-6.895,13.631 -12.743,27.149 -16.788,38.077c-2.632,7.112 -4.311,14.557 -5.514,22.155c-1.6,10.105 -2.309,20.5 -3.61,30.635c-1.341,10.459 -3.004,21.211 -4,32.036c-0.698,7.596 -1.063,15.226 -0.825,22.822c0.169,5.398 0.682,11.322 1.39,17.596c2.253,19.974 6.67,43.787 7.551,64.809c0.229,5.491 0.271,11.474 0.207,17.696c-0.276,26.708 -2.497,57.586 -1.847,74.372c0.237,6.133 0.864,12.358 2.013,18.462c1.219,6.478 3.056,12.812 5.625,18.792l0,0.001c3.767,8.504 9.409,19.739 16.06,30.398c4.337,6.95 9.091,13.66 14.021,19.298c5.2,5.948 11.087,11.349 17.356,16.379c8.594,6.896 17.899,13.111 26.868,19.307c3.237,2.236 6.573,4.368 9.978,6.429c12.302,7.445 25.554,13.935 37.697,21.914c9.747,6.404 20.624,13.294 30.999,20.704c6.552,4.679 12.907,9.558 18.592,14.671c7.107,6.392 14.146,13.066 20.654,20.235c6.21,6.841 11.954,14.121 16.764,22.057c2.89,4.767 5.301,9.933 7.473,15.307c5.494,13.597 9.57,28.398 15.073,42.034c5.772,14.323 11.41,29.878 17.629,44.798c2.774,6.657 5.66,13.191 8.718,19.447c6.518,13.335 13.782,29.219 21.472,41.908c4.411,7.279 9.008,13.58 13.639,18.128c4.444,4.365 9.667,7.169 15.395,9.029c8.405,2.729 18.295,2.504 26.268,6.568c11.256,5.737 27.016,18.652 41.741,27.884c8.034,5.037 15.843,9.057 22.67,10.989c6.483,1.835 13.013,2.072 19.585,1.315c11.438,-1.317 23.004,-6.178 34.524,-7.18c19.711,-1.713 54.399,-1.297 84.712,-3.565c14.085,-1.054 27.268,-2.685 37.799,-5.275c11.434,-2.805 23.068,-7.719 34.222,-13.546c16.795,-8.776 32.504,-19.589 44.672,-27.565c8.107,-5.314 15.802,-11.365 23.075,-17.959c7.111,-6.446 13.825,-13.403 20.135,-20.674c5.329,-6.141 10.372,-12.911 15.21,-19.997c6.794,-9.948 13.197,-20.52 19.505,-30.742c7.166,-11.607 15.652,-25.191 23.443,-38.926c5.251,-9.258 10.191,-18.584 14.22,-27.446c3.746,-8.241 7.094,-17.33 10.131,-26.462c4.661,-14.014 8.592,-28.122 12.22,-39.164c3.142,-9.561 7.373,-20.501 10.333,-30.145c1.647,-5.366 2.914,-10.373 3.511,-14.633c0.68,-4.857 0.388,-10.47 -0.49,-15.79c-0.874,-5.293 -2.292,-10.281 -3.653,-13.827Zm-17.041,7.278c0.897,2.548 1.778,5.942 2.345,9.518c0.544,3.432 0.815,7.046 0.357,10.174c-0.501,3.417 -1.593,7.419 -2.943,11.72c-2.986,9.513 -7.245,20.298 -10.41,29.73c-3.692,10.998 -7.704,25.056 -12.446,39.016c-2.872,8.457 -6.017,16.878 -9.542,24.503c-3.855,8.338 -8.577,17.106 -13.593,25.808c-7.757,13.459 -16.217,26.753 -23.352,38.12c-6.224,9.912 -12.536,20.17 -19.231,29.812c-4.437,6.389 -9.044,12.5 -13.919,18.03c-5.827,6.608 -12.016,12.93 -18.57,18.778c-6.514,5.814 -13.393,11.15 -20.641,15.82c-11.744,7.567 -26.887,17.873 -43.081,26.172c-9.635,4.938 -19.648,9.162 -29.505,11.496c-9.56,2.257 -21.522,3.554 -34.288,4.389c-30.44,1.99 -65.244,1.256 -85.039,2.79c-11.725,0.908 -23.546,5.678 -35.191,6.908c-3.581,0.378 -7.144,0.338 -10.664,-0.694c-5.035,-1.476 -10.683,-4.699 -16.589,-8.479c-15.255,-9.764 -31.639,-23.25 -43.312,-29.339c-9.017,-4.703 -20.114,-5.085 -29.636,-8.276c-2.171,-0.727 -4.229,-1.669 -5.903,-3.344c-4.458,-4.461 -8.659,-11.256 -12.798,-18.826c-6.073,-11.109 -11.776,-23.862 -17.005,-34.82c-3.718,-7.79 -7.14,-16.038 -10.417,-24.398c-5.074,-12.942 -9.791,-26.153 -14.617,-38.459c-5.363,-13.702 -9.289,-28.554 -14.642,-42.216c-2.635,-6.722 -5.609,-13.171 -9.145,-19.146c-4.484,-7.578 -9.662,-14.679 -15.281,-21.411c-8.163,-9.781 -17.285,-18.757 -26.545,-27.265c-6.347,-5.832 -13.438,-11.427 -20.768,-16.781c-10.586,-7.732 -21.689,-14.945 -31.641,-21.637c-12.337,-8.294 -25.804,-15.11 -38.31,-22.861c-2.903,-1.799 -5.747,-3.656 -8.504,-5.604c-8.357,-5.905 -17.05,-11.804 -25.048,-18.362c-4.91,-4.026 -9.543,-8.313 -13.601,-13.055c-4.927,-5.757 -9.566,-12.897 -13.663,-20.038c-4.645,-8.096 -8.562,-16.232 -11.311,-22.622l0,-0.001c-1.78,-4.014 -3.039,-8.283 -3.912,-12.644c-0.939,-4.696 -1.46,-9.491 -1.696,-14.217c-0.822,-16.457 1.069,-46.767 1.045,-72.966c-0.006,-6.731 -0.13,-13.204 -0.445,-19.141c-0.299,-5.633 -0.829,-11.453 -1.507,-17.346c-2.627,-22.842 -7.568,-46.871 -8.313,-64.722c-0.27,-6.5 -0.005,-13.033 0.527,-19.541c0.859,-10.514 2.379,-20.962 3.578,-31.124c1.167,-9.896 1.737,-20.043 3.197,-29.914c0.874,-5.909 2.06,-11.717 4.048,-17.26c3.657,-10.201 8.978,-22.822 15.261,-35.563c5.727,-11.615 12.239,-23.34 19.033,-33.387c11.654,-17.233 27.261,-39.411 44.562,-60.513c10.652,-12.992 21.938,-25.586 33.338,-36.307c16.41,-15.429 35.648,-31.47 55.922,-46.496c19.853,-14.712 40.692,-28.461 60.816,-39.732c15.381,-8.615 32.254,-16.273 49.309,-23.129c27.438,-11.031 55.342,-20.001 78.44,-27.499c15.757,-5.11 31.712,-9.866 47.855,-13.731c15.972,-3.825 32.126,-6.787 48.446,-8.368c16.338,-1.582 34.361,-1.823 52.057,-1.252c18.597,0.6 36.836,2.092 52.427,3.893c13.132,1.516 26.225,3.896 39.189,7.007c12.948,3.106 25.769,6.933 38.374,11.348c17.678,6.21 41.966,15.059 63.847,24.575c15.431,6.71 29.654,13.71 39.267,20.356c6.152,4.252 11.012,10.053 15.346,16.456c7.111,10.505 12.823,22.575 19.388,33.321c9.618,15.746 24.495,41.033 40.287,68.271c21.654,37.345 45.035,78.343 59.183,103.371c11.101,19.685 24.24,40.704 34.708,60.668c4.767,9.091 8.973,17.951 12.125,26.349c2.52,6.744 4.295,13.701 5.679,20.771c3.403,17.384 4.508,35.423 7.704,52.866c3.793,20.697 10.419,50.527 15.099,76.249c2.212,12.154 3.987,23.369 4.781,32.182c0.798,8.864 1.139,18.292 0.553,27.425c-0.585,9.119 -2.081,17.936 -5.061,25.482c-2.863,7.253 -7.298,13.944 -12.506,20.022c-5.429,6.335 -11.714,11.996 -18.089,16.901c-7.634,5.874 -17.534,11.69 -27.959,16.989c-10.2,5.184 -20.906,9.856 -30.582,13.565c-7.22,2.767 -15.135,5.063 -23.064,7.025c-13.082,3.237 -26.212,5.557 -36.544,7.46c-11.058,2.029 -28.16,1.746 -36.572,2.877c-2.854,0.384 -5.069,0.996 -6.496,1.626c-4.03,1.777 -5.353,4.551 -5.943,6.692c-0.583,2.118 -0.492,4.356 0.548,6.673c0.695,1.547 2.525,3.883 5.685,5.846l5.514,3.436Z"/><path d="M541.983,708.359c-4.241,5.328 -4.28,13.088 0.283,18.486c3.162,2.946 6.228,5.418 10.358,5.158c1.554,-0.098 3.307,0.159 5.064,-0.609c1.354,-0.592 5.374,-1.383 7.889,-5.812c0.718,-1.264 2.804,-5.672 2.804,-5.672c-0,-0 -0.542,0.561 -0.677,0.766l7.976,-12.212c3.872,-4.454 8.838,-10.281 14.899,-14.405c4.838,-3.291 10.037,-6.071 15.223,-5.13c7.533,1.999 14.144,5.489 19.759,10.37c5.77,5.015 10.126,11.572 14.355,18.532c2.145,3.738 5.761,12.015 8.696,17.334c1.778,3.222 3.885,5.387 5.23,6.786c5.002,5.203 10.792,3.838 14.396,3.21c4.217,-0.735 8.667,-4.218 10.859,-13.287c0.827,-7.341 -3.959,-14.03 -10.936,-15.772c-3.5,-4.177 -7.385,-9.352 -9.698,-11.861c-6.659,-7.611 -13.712,-14.231 -21.599,-19.513c-4.158,-2.786 -8.442,-5.25 -12.988,-7.343c-4.466,-2.055 -9.096,-3.901 -14.101,-5.108c-7.664,-2.248 -15.884,-0.618 -24.013,2.497c-10.072,3.86 -19.745,10.752 -26.679,16.242l-12.449,11.878c-0.767,0.72 -5.731,3.904 -4.651,5.465Zm109.209,16.16c-0.64,1.08 -1.101,2.401 -1.078,4.092c0.162,-1.446 0.532,-2.819 1.078,-4.092Zm20.68,-4.277l0.018,0.018c0.127,0.127 0.431,0.222 0.431,0.222l-0.449,-0.24Zm-110.478,-15.011c1.152,0.751 2.213,1.68 3.145,2.783c-0.834,-1.264 -1.94,-2.109 -3.145,-2.783Zm-3.432,-1.652c-1.359,-0.622 -3.011,-0.9 -4.933,-0.722c1.669,-0.043 3.34,0.199 4.933,0.722Z"/><g id="Boca"><path d="M1029.12,958.335c-0.026,-8.953 39.257,-18.083 46.131,-19.513c37.503,-7.798 72.739,-13.822 111.638,-13.706c14.217,0.042 35.544,-4.132 43.699,10.336c5.369,9.526 -10.946,40.514 -16.374,48.439c-4.791,6.997 -7.736,19.536 -15.328,24.199c-26.451,16.249 -86.344,-9.274 -110.341,-22.529c-15.933,-8.8 -42.937,-14.252 -56.063,-25.945c-0.696,-0.62 6.222,-0.744 6.715,-0.743" style="fill:#fff;"/><path d="M1025.9,972.557c4.795,3.432 10.553,6.453 16.907,9.025c13.186,5.339 29.036,9.059 39.885,14.57c14.9,7.651 42.687,19.252 68.656,24.172c20.398,3.864 39.703,3.472 52.221,-4.606c3.407,-2.182 6.283,-5.322 8.641,-9.114c3.538,-5.691 5.828,-13.09 9.029,-17.9c3.85,-5.617 12.761,-22.049 16.781,-35.476c2.754,-9.199 2.676,-17.379 0.104,-22.026c-3.549,-6.521 -8.961,-10.476 -15.346,-12.865c-10.758,-4.027 -25.16,-2.47 -35.864,-2.699c-19.87,-0.571 -38.82,0.536 -57.65,2.509c-18.775,1.966 -37.381,4.853 -56.607,8.215c-5.572,0.951 -30.336,6.053 -43.299,12.425c-10.633,5.227 -14.627,13.682 -14.824,19.591c0.02,6.928 4.879,12.72 11.366,14.179Zm36.01,-12.146c11.414,4.936 23.675,9.289 32.481,14.56c13.149,7.791 37.76,20.107 61.188,25.834c14.857,3.631 29.142,5.193 38.619,-0.343c1.899,-1.117 3.212,-3.152 4.453,-5.323c3.109,-5.441 5.51,-11.762 8.533,-16.06c2.504,-3.644 7.499,-12.518 11.274,-21.658c1.9,-4.6 3.482,-9.27 4.225,-13.305c0.34,-1.847 0.941,-3.41 0.363,-4.415c-2.061,-3.532 -5.653,-4.785 -9.497,-5.457c-8.649,-1.514 -18.814,0.223 -26.692,0.349c-18.92,0.431 -36.901,2.309 -54.69,5.217c-18.085,2.956 -35.911,7.026 -54.328,11.473c-2.258,0.555 -8.836,5.104 -15.929,9.128Z"/><path d="M1085.63,948.033c1.291,-3.471 29.394,5.45 32.487,6.226c20.712,5.2 42.383,3.44 63.553,3.503c8.518,0.025 33.683,-2.861 38.872,-12.134c4.634,-8.279 -6.842,-20.207 -13.209,-17.9" style="fill:#fff;"/><path d="M1205.07,942.132c-1.495,1.316 -3.142,2.698 -4.936,3.262c-7.079,2.227 -14.596,3.413 -18.435,3.641c-5.135,0.068 -10.293,0.38 -15.467,0.399c-7.484,0.027 -14.978,-0.258 -22.401,-1.042c-7.839,-0.828 -15.457,-2.569 -22.965,-5.071c-2.704,-0.967 -23.156,-9.095 -31.539,-10.294c-10.733,-1.534 -15.464,6.095 -17.361,9.923c-2.806,7.544 1.041,15.946 8.584,18.752c2.588,0.962 5.277,1.142 7.805,0.658c2.397,5.787 24.775,2.501 27.02,2.837c6.929,1.159 13.818,1.667 20.802,1.805c7.727,0.152 15.446,-0.193 23.21,-0.418c7.437,-0.217 14.881,-0.161 22.261,-0.095c6.477,0.456 21.468,-0.428 32.656,-3.75c7.763,-2.306 13.402,-6.689 16.577,-11.326c5.423,-7.763 3.168,-17.841 -1.878,-26.101c-4.097,-6.707 -11.309,-10.522 -17.117,-11.969c-3.312,-0.826 -6.475,-0.059 -9.517,0.674c-7.568,2.742 -11.485,11.112 -8.743,18.679c1.872,5.168 6.369,8.633 11.444,9.436Zm-105.876,11.257c0.048,-0.085 0.084,-0.176 0.109,-0.272l-0.109,0.272Zm112.842,-11.86c0.095,-0.018 0.184,-0.048 0.269,-0.09l-0.269,0.09Z"/></g><path d="M619.848,780.979c0.511,-1.667 0.791,-3.131 1.658,-4.186c0.313,-0.381 0.058,-1.13 0.502,-1.264c1.276,-0.386 2.826,-0.125 4.824,0.482c1.641,0.852 2.737,2.513 3.852,4.142c0.074,0.108 0.142,0.219 0.202,0.332c-0.276,0.406 -0.536,0.83 -0.775,1.272c-0.053,0.24 -0.16,0.513 -0.029,0.546c0.755,0.188 0.828,-0.935 0.936,-1.208l0.076,-0.168c0.576,1.407 0.41,3.058 0.639,4.615c-0.077,-0.692 -0.46,-1.527 -1.18,-1.753c-0.879,-0.275 -1.376,1.148 -1.628,1.573c-3.043,5.131 0.143,9.196 0.224,9.877c0.122,1.017 1.016,1.576 1.284,2.409c0.841,2.616 3.573,3.15 5.244,4.733c2.475,2.345 6.015,1.092 10.364,1.13c1.219,0.01 2.18,-1.188 3.791,-1.656c1.02,-0.296 1.762,-1.921 3.828,-3.466c0.338,-0.253 0.669,-1.274 2.087,-2.723c0.617,-1.136 1.066,-2.318 1.356,-3.519c1.602,-2.452 -0.168,-11.084 -2.994,-15.073c-2.654,-4.076 -5.401,-7.906 -9.387,-10.732c-3.916,-2.777 -7.796,-5.45 -12.2,-6.357c-7.788,-3.334 -13.379,-2.477 -18.419,-0.909c-4.802,1.494 -8.746,5.043 -14.122,10.427c-0.741,0.69 -2.077,1.586 -3.39,2.724c-1.609,1.395 -2.412,3.252 -3.567,4.786c-1.66,2.207 -1.31,4.808 -1.879,7.075c-1.241,4.95 2.347,8.453 5.987,13.278c6.34,4.96 15.513,3.839 20.472,-2.5c3.194,-4.082 3.866,-9.339 2.244,-13.887Zm-4.127,-6.073c-0.16,-0.214 -0.352,-0.399 -0.617,-0.512c0.212,0.166 0.418,0.336 0.617,0.512Z"/><g id="Ojos"><path d="M1088.92,538.844c0.4,-2.482 0.16,-5.1 -0.824,-7.609c-4.499,-7.318 -8.501,-10.131 -12.393,-10.092c-1.233,0.013 -2.423,-0.438 -3.622,-0.131c-2.031,0.52 -4.367,0.437 -6.258,1.967c-1.44,1.165 -3.536,2.113 -4.768,4.272c-1.462,2.563 -3.224,6.182 -3.65,7.982c-1.402,5.15 -2.621,20.086 0.001,30.981c1.821,7.567 4.824,13.452 9.452,15.641c2.356,1.265 4.638,1.842 6.912,1.914c2.361,0.074 4.689,-0.396 6.919,-0.885c2.518,-0.415 4.519,-1.316 6.497,-2.444c1.818,-1.036 3.392,-2.6 5.191,-4.737c4.628,-5.155 6.488,-14.424 5.748,-22.303c-0.593,-6.318 -4.057,-11.033 -9.205,-14.556Zm-11.645,24.556c-0.212,0.097 -0.425,0.195 -0.637,0.292l-0.584,0.235c-0.006,0.48 0.015,0.951 0.06,1.411c0.032,0.316 0.165,0.671 0.281,1.006c0.252,0.012 0.491,0.01 0.684,-0.032c0.232,-0.062 0.42,-0.184 0.61,-0.28c0.182,-0.091 -0.236,-0.412 -0.098,-0.648c0.297,-0.567 0.159,-1.295 -0.144,-2.073l-0.172,0.089Zm7.147,-7.67c0.36,-0.606 0.612,-1.263 0.648,-2.027c-0.169,0.701 -0.386,1.378 -0.648,2.027Z"/><path d="M1433.22,433.063c-3.21,1.383 -7.47,4.239 -10.939,7.553c-4.315,4.12 -4.662,9.922 -4.522,15.905c1.034,4.748 4.278,8.449 8.418,10.257c0.416,2.336 1.113,4.562 2.375,6.566c3.314,5.666 9.315,8.937 16.467,7.958c8.449,-1.157 16.67,-7.402 17.378,-14.173c1.95,-7.933 0.03,-15.693 -3.216,-21.871c1.557,-5.118 0.228,-10.907 -3.915,-14.835c-5.842,-5.537 -15.08,-5.29 -20.617,0.551c-0.52,0.797 -0.993,1.486 -1.429,2.089Z"/></g><path d="M687.358,448.902c7.549,3.562 15.591,17.441 20.383,23.984c14.606,19.947 26.943,41.371 38.909,63.189c4.669,8.515 17.623,18.041 16.774,28.731c-0.983,12.374 -14.786,13.908 -23.828,11.737c-0.789,-0.189 -11.977,-3.493 -12.105,-2.359c-1.291,11.469 9.152,31.38 11.671,42.942c1.297,5.955 4.999,13.288 0.15,17.879c-26.35,24.945 -69.241,11.727 -100.721,23.835c-11.057,4.253 -23.608,5.457 -34.359,10.071c-24.26,10.413 -44.987,38.234 -73.377,18.394c-5.119,-3.577 -11.131,-6.829 -15.912,-10.829c-3.358,-2.809 -4.856,-7.662 -7.115,-11.372c-20.919,-34.352 -0.674,-57.601 1.125,-92.237c0.699,-13.439 -5.929,-33.787 1.715,-45.336c1.611,-2.435 -9.353,-8.127 -10.571,-9.24c-6.394,-5.846 -9.637,-14.145 -10.204,-23.1c-1.101,-17.392 4.941,-20.752 14.07,-32.004c2.322,-2.863 5.289,-11.599 8.323,-13.356c12.967,-7.511 33.669,-7.429 48.006,-7.184c24.665,0.42 49.401,-0.942 73.367,-6.162c13.683,-2.981 30.861,-7.043 45.04,-3.614c5.929,1.433 18.887,7.383 9.27,12.281"/><path d="M499.094,529.573c-1.012,3.311 -1.553,6.891 -1.689,10.654c-0.385,10.624 2.688,22.981 2.318,32.161c-0.893,21.148 -8.705,38.102 -9.807,55.886c-0.797,12.86 1.354,26.131 10.668,41.242c1.621,2.648 2.882,5.856 4.651,8.541c1.22,1.852 2.626,3.519 4.285,4.901l16.497,11.27c13.923,9.792 26.404,10.137 38.253,6.404c14.799,-4.662 28.514,-17.308 43.442,-23.614c1.9,-0.799 3.868,-1.464 5.871,-2.064c9.264,-2.777 19.24,-4.228 28.274,-7.623c21.616,-8.032 48.536,-3.764 71.732,-8.658c12.127,-2.559 23.315,-7.347 32.856,-16.133c3.571,-3.289 5.177,-7.24 5.649,-11.526c0.555,-5.043 -1.502,-11.043 -2.541,-16.152c-1.398,-6.947 -5.511,-16.879 -8.373,-26.257c7.378,1.001 15.892,0.038 22.249,-3.59c6.441,-3.675 11.112,-9.813 12.019,-19.254c0.548,-5.701 -1.036,-11.287 -3.954,-16.664c-3.721,-6.86 -10.691,-13.237 -13.777,-19.091c-7.047,-13.426 -14.247,-26.694 -21.987,-39.609c-5.268,-8.788 -10.801,-17.394 -16.702,-25.776c-3.372,-4.789 -8.348,-13.145 -13.636,-19.287l-0,0c0.819,-3.327 0.688,-6.622 -0.532,-9.851c-1.295,-3.427 -3.992,-7.298 -8.373,-10.226c-4.299,-2.874 -10.428,-5.255 -14.46,-6.147c-7.109,-1.571 -14.777,-1.806 -22.519,-1.055c-9.918,0.961 -19.968,3.377 -28.678,5.444c-11.381,2.694 -22.954,4.492 -34.631,5.595c-11.842,1.119 -23.774,1.575 -35.703,1.585c-9.105,0.005 -20.606,0.134 -31.32,1.951c-8.298,1.407 -16.158,3.765 -22.476,7.558c-1.851,1.111 -3.962,2.975 -5.748,5.69c-2.051,3.118 -3.84,8.393 -5.451,10.443c-6.68,8.501 -11.647,13.419 -14.164,21.007c-1.568,4.727 -2.394,10.442 -1.76,18.516c0.429,5.593 1.662,10.977 3.805,15.869c2.318,5.291 5.596,10.059 9.972,13.955c0.481,0.428 3.324,2.321 5.74,3.905Zm173.946,-83.451c-3.637,-0.682 -7.497,-0.785 -11.396,-0.557c-8.675,0.507 -17.498,2.385 -25.156,3.905c-12.643,2.518 -25.458,4.055 -38.364,4.81c-12.638,0.739 -25.347,0.778 -38.036,0.334c-7.964,-0.276 -18.033,-0.624 -27.459,0.654c-4.89,0.663 -9.616,1.668 -13.556,3.585c-1.128,2.11 -4.971,9.197 -6.648,11.199c-4.318,5.156 -8.006,8.289 -10.297,12.426c-1.606,2.899 -2.191,6.399 -1.919,12.06c0.162,3.247 0.734,6.396 1.901,9.263c1.04,2.556 2.479,4.915 4.478,6.86c3.487,2.289 10.809,7.483 12.549,10.688c2.391,4.404 1.898,8.37 -0.296,11.591c-2.189,3.215 -2.385,7.546 -2.307,12.081c0.166,9.711 2.162,20.25 1.65,28.326c-1.314,21.294 -9.552,38.228 -10.934,56.133c-0.749,9.704 0.911,19.723 7.822,31.213l5.293,9.301l15.328,10.388c8.546,5.935 16.149,6.321 23.372,3.977c14.291,-4.64 27.303,-17.282 41.688,-23.554c2.459,-1.078 5.004,-1.995 7.601,-2.817c8.826,-2.795 18.374,-4.256 26.971,-7.639c22.164,-8.817 50.055,-5.411 73.915,-11.076c8.052,-1.912 15.556,-5.073 21.891,-10.824c-0.452,-1.65 -1.771,-6.519 -2.361,-9.06c-1.792,-7.642 -7.247,-18.95 -10.228,-28.971c-1.925,-6.474 -2.805,-12.581 -2.333,-17.504c0.302,-3.145 3.401,-10.944 13.383,-10.28c3.358,0.223 11.964,2.504 12.702,2.669c1.681,0.374 3.628,0.48 5.535,0.312c1.477,-0.131 3.458,0.012 3.57,-1.764c0.109,-1.728 -1.355,-3.066 -2.472,-4.624c-4.346,-6.063 -10.323,-11.781 -13.345,-17.082c-7.285,-12.728 -14.701,-25.304 -22.643,-37.51c-5.22,-8.023 -10.685,-15.864 -16.486,-23.483c-2.416,-3.174 -5.657,-8.125 -9.235,-12.719c-2.043,-2.625 -3.944,-5.381 -6.083,-6.342c-6.157,-2.905 -9.339,-9.575 -8.095,-15.969Z"/><path d="M1171.01,145.603c-11.065,-0.241 -21.303,19.866 -28.86,27.134c-24.519,23.584 -51.485,44.071 -76.214,67.592c-7.446,7.082 -14.625,14.506 -21.33,22.392c-1.785,2.099 -6.258,7.691 -9.552,6.905c-8.484,-2.024 -16.177,-19.995 -15.579,-28.132c0.228,-3.098 1.253,-6.011 2.161,-8.912c0.513,-1.639 1.86,-6.625 1.417,-4.961c-3.629,13.627 -21.167,24.724 -29.219,35.31c-29.89,39.301 -57.015,80.143 -105.921,94.911c-7.538,2.276 -25.474,11.878 -31.36,3.386c-6.396,-9.229 3.28,-23.346 8.422,-30.088c0.269,-0.352 5.37,-7.501 5.726,-7.279c2.275,1.417 -12.834,18.866 -13.85,19.899c-19.539,19.864 -42.363,36.307 -63.417,54.297c-28.688,24.514 -65.575,41.851 -102.026,49.791c-3.829,0.835 -11.988,-0.855 -13.326,-5.538c-0.619,-2.166 -2.412,-7.221 -1.705,-9.448c0.381,-1.203 4.301,-8.475 2.924,-4.597c-12.367,34.822 -61.348,44.651 -92.608,43.081c-6.82,-0.342 -14.532,1.64 -21.132,-1.251c-8.41,-3.682 -11.163,-9.663 -16.218,-17.143c-0.758,-1.121 -2.232,-8.104 -3.395,-8.216c-5.167,-0.498 -11.165,5.335 -15.275,7.637c-10.499,5.878 -20.411,12.953 -32.567,11.741c-16.976,-1.694 -34.158,5.8 -51.894,4.071c-6.525,-0.637 -17.127,-3.772 -19.708,-11.902c-12.685,-39.963 23.998,-75.448 51.733,-94.821c9.84,-6.873 19.186,-13.859 30.213,-18.467c3.519,-1.471 6.875,-2.827 10.223,-4.636c1.856,-1.003 7.651,-3.39 5.6,-2.943c-11.91,2.595 -21.638,14.571 -34.995,14.514c-16.999,-0.074 -7.679,-29.173 -2.857,-35.213c6.746,-8.452 15.963,-14.315 23.87,-21.39c16.267,-14.555 29.578,-30.063 49.584,-39.225c12.605,-5.773 25.658,-7.415 38.643,-11.692c2.067,-0.68 10.851,-2.079 12.137,-4.023c0.476,-0.719 -18.221,-13.46 -19.496,-17.459c-4.792,-15.019 8.782,-37.32 17.35,-48.056c15.523,-19.451 39.308,-26.771 61.506,-34.412c7.192,-2.475 19.002,-8.602 27.053,-7.615c11.641,1.427 22.126,8.981 33.291,12.039c0.87,0.238 9.078,3.28 9.546,2.916c0.918,-0.714 1.299,-7.717 1.615,-8.964c2.209,-8.713 4.978,-17.997 8.568,-26.154c5.786,-13.147 23.95,-27.22 36.717,-32.806c30.202,-13.215 55.322,-5.799 86.198,0.342c4.033,0.802 9.235,0.449 12.892,2.709c2.808,1.734 12.051,15.204 16.592,10.68c8.408,-8.377 12.936,-27.068 19.434,-37.653c12.449,-20.28 42.066,-37.328 65.348,-38.872c11.94,-0.792 39.365,-1.412 49.662,4.519c13.359,7.692 31.29,24.856 45.745,28.273c4.539,1.074 17.232,-15.311 21.001,-18.183c13.721,-10.455 39.053,-11.253 52.898,0.54c27.903,23.769 23.8,60.793 14.609,92.426c-4.587,15.788 -4.703,29.184 -19.705,28.236"/><path d="M898.548,77.483c-2.664,-2.572 -5.754,-5.467 -6.767,-6.084c-2.133,-1.3 -4.502,-2.22 -7.031,-2.796c-3.151,-0.718 -6.655,-0.726 -9.579,-1.289c-19.484,-3.749 -36.791,-7.891 -54.359,-7.581c-12.372,0.218 -24.877,2.508 -38.246,8.457c-8.468,3.768 -19.082,10.838 -27.628,19.095c-6.292,6.08 -11.461,12.803 -14.26,19.257c-1.917,4.418 -3.62,9.137 -5.126,13.933c-1.303,4.149 -2.464,8.353 -3.498,12.457c-7.173,-2.096 -14.064,-6.044 -21.229,-8.684c-4.1,-1.51 -8.27,-2.675 -12.56,-3.178c-3.599,-0.422 -7.734,0.004 -12.01,1.105c-6.847,1.763 -14.261,5.316 -19.398,7.114c-13.904,4.868 -28.384,9.677 -41.235,17.127c-9.155,5.308 -17.516,11.903 -24.415,20.63c-5.552,7.012 -12.996,18.511 -17.044,30.134c-3.239,9.303 -4.237,18.706 -1.709,26.525c0.552,1.708 2.291,4.568 5.359,7.477c1.245,1.181 2.763,2.484 4.378,3.805c-7.881,2.371 -15.774,3.986 -23.553,6.393c-4.182,1.294 -8.333,2.795 -12.44,4.695c-8.675,4.013 -16.196,9.101 -23.212,14.802c-9.806,7.968 -18.595,17.159 -28.447,26.023c-5.557,4.996 -11.76,9.399 -17.303,14.514c-2.676,2.469 -5.21,5.09 -7.498,7.969c-4.168,5.245 -10.892,24.203 -7.86,35.632c0.801,3.023 2.061,5.699 3.886,7.846l-2.375,1.663c-17.737,12.358 -38.792,31.039 -49.906,53.111c-7.909,15.704 -10.923,33.075 -5.178,51.25c1.608,5.111 5.059,9.103 9.452,12.007c5.478,3.621 12.503,5.408 17.613,5.922c3.977,0.4 7.93,0.396 11.863,0.141c13.579,-0.882 26.852,-5.407 39.995,-4.055c6.303,0.648 12.147,-0.393 17.756,-2.42c6.875,-2.484 13.369,-6.593 20.054,-10.309c1.729,-0.961 3.767,-2.446 5.928,-3.936l0.085,-0.056c0.345,0.875 0.644,1.563 0.818,1.823c3.357,4.999 5.868,9.337 9.305,12.938c2.81,2.944 6.16,5.462 10.739,7.484c2.901,1.284 5.945,1.955 9.065,2.237c5.061,0.458 10.382,-0.409 15.253,-0.142c20.063,1.097 46.916,-2.269 68.177,-13.022c7.551,-3.819 14.395,-8.562 20.11,-14.304c1.116,0.855 2.359,1.604 3.707,2.236c5.02,2.351 11.442,2.823 15.271,2.007c19.036,-4.04 38.194,-10.546 56.353,-19.211c18.168,-8.669 35.32,-19.523 50.362,-32.235c14.832,-12.533 30.521,-24.309 45.361,-37.023l1.579,-1.363l0.063,0.097c4.165,6.094 10.852,8.782 18.998,8.343c8.497,-0.458 19.42,-5.456 25.048,-7.115c21.371,-6.3 38.97,-17.17 54.49,-30.694c21.73,-18.935 39.235,-43.277 57.632,-67.163c-1.304,-3.53 -0.672,-12.474 3.131,-29.676c-0.202,5.417 1.65,13.538 5.017,20.926c-2.937,2.784 -5.646,5.502 -7.722,8.195l-0.426,0.555c1.482,4.013 5.47,1.024 10.152,-4.789l-0.331,-0.584c-0.298,-0.578 -0.597,-1.157 -0.896,-1.735l-0.777,-1.642c4.592,-4.354 9.742,-8.869 13.904,-13.701c-3.766,6.252 -8.066,12.904 -11.9,17.662l0.621,1.101c4.754,8.045 11.579,13.547 17.834,15.088c3.367,0.83 7.06,0.529 10.789,-1.084c4.522,-1.957 9.722,-7.464 11.957,-10.053c3.207,-3.715 6.529,-7.315 9.933,-10.824c3.449,-3.554 6.989,-7.007 10.589,-10.381c19.82,-18.574 41.057,-35.194 61.334,-53.024c5.228,-4.597 10.391,-9.274 15.458,-14.076c3.721,-3.527 8.124,-9.755 12.844,-15.654c2.39,-2.986 8.146,-4.616 7.455,-7.254c7.288,-0.661 13.078,-6.715 13.241,-14.202c0.077,-3.564 -1.133,-6.859 -3.207,-9.439c0.763,-3.099 1.547,-6.414 2.513,-9.839c5.993,-21.248 9.631,-44.672 5.016,-65.667c-3.369,-15.325 -10.839,-29.505 -24.576,-41.028c-9.238,-7.756 -22.102,-11.728 -35.073,-11.639c-12.829,0.089 -25.578,4.034 -34.531,10.956c-1.941,1.502 -6.035,6.018 -10.318,10.589c-1.149,1.227 -2.755,2.767 -4.053,3.98c-2.149,-0.945 -4.358,-2.19 -6.612,-3.566c-10.946,-6.682 -22.348,-16.297 -31.568,-21.519c-4.488,-2.542 -11.318,-4.452 -19.147,-5.405c-12.952,-1.577 -29,-1.03 -37.57,-0.4c-13.34,0.98 -28.531,6.246 -42.075,14.372c-13.494,8.096 -25.333,18.932 -32.361,30.566c-4.526,7.484 -8.158,18.813 -12.695,28.057l-0.784,1.545Zm252.397,58.837c-1.909,-3.39 4.55,-11.043 6.526,-17.647c4.222,-14.118 7.519,-29.417 6.486,-43.909c-0.907,-12.731 -5.25,-24.824 -16.144,-34.248c-4.55,-3.932 -11.089,-5.542 -17.556,-5.589c-6.852,-0.05 -13.804,1.562 -18.637,5.191c-3.432,2.576 -13.983,15.161 -20.059,18.428c-4.584,2.466 -8.759,2.645 -11.856,1.89c-5.796,-1.414 -12.103,-4.431 -18.443,-8.427c-10.626,-6.696 -21.626,-16.314 -30.581,-21.556c-3.122,-1.827 -8.511,-2.463 -14.266,-2.982c-10.341,-0.933 -21.807,-0.637 -28.341,-0.25c-10.007,0.592 -21.365,4.622 -31.6,10.567c-10.152,5.896 -19.296,13.635 -24.662,22.239c-4.317,6.93 -7.714,17.522 -12.06,26.097c-2.719,5.365 -5.788,10.085 -9.269,13.51c-4.524,4.453 -10.004,5.483 -16.091,3.041c-4.477,-1.796 -12.81,-10.302 -14.689,-12.265l-8.869,-1.288c-17.842,-3.664 -33.646,-7.894 -49.775,-7.809c-9.686,0.051 -19.495,1.723 -30.017,6.25c-5.609,2.413 -12.4,6.698 -18.444,11.798c-5.621,4.745 -10.714,10.116 -13.103,15.462c-1.678,3.76 -3.168,7.782 -4.498,11.869c-1.34,4.116 -2.525,8.295 -3.579,12.351c-0.088,0.74 -0.839,6.941 -1.456,8.913c-0.97,3.099 -2.699,4.909 -3.864,5.805c-0.867,0.668 -4.331,3.03 -9.574,1.717c-2.377,-0.595 -8.09,-2.713 -8.816,-2.916c-8.067,-2.255 -15.806,-6.712 -23.828,-9.764c-2.617,-0.995 -5.266,-1.827 -8.012,-2.178c-2.078,-0.266 -4.525,0.412 -7.04,1.18c-5.671,1.73 -11.462,4.412 -15.657,5.832c-12.831,4.341 -26.244,8.491 -38.127,15.224c-7.178,4.067 -13.794,9.089 -19.236,15.843c-3.918,4.87 -9.002,12.362 -12.546,20.354c-2.735,6.169 -4.89,12.608 -3.686,18.031c1.706,1.432 11.633,9.76 14.939,12.477c6.729,5.53 4.22,12.992 3.673,13.813c-1.009,1.511 -3.102,3.47 -6.347,4.752c-3.285,1.297 -8.88,2.287 -10.513,2.818c-9.199,2.99 -18.424,4.679 -27.509,7.413c-3.449,1.038 -6.878,2.234 -10.269,3.771c-7.323,3.32 -13.665,7.58 -19.599,12.336c-9.631,7.721 -18.238,16.685 -27.91,25.291c-5.527,4.921 -11.696,9.245 -17.208,14.285c-2.04,1.864 -3.985,3.833 -5.731,6.01c-1.52,1.894 -3.4,6.866 -4.444,11.955c-0.522,2.547 -0.835,5.144 -0.586,7.427c0.104,0.949 0.129,2.015 1.242,2.021c1.766,0.009 3.435,-0.317 5.04,-0.838c3.484,-1.999 7.076,-3.822 10.846,-5.394l0.201,-0.091c5.615,-3.268 11.114,-6.669 17.075,-7.962c4.422,-0.959 6.626,0.968 7.206,1.393c3.277,2.402 4.458,5.589 2.958,9.715c-0.278,0.763 -1.058,2.857 -3.743,4.491c-0.947,0.576 -4.739,2.217 -6.214,3.013l-10.985,4.989l-0.306,0.132c-2.463,1.534 -4.961,3.025 -7.573,4.188c-0.853,0.38 -1.716,0.735 -2.591,1.051l-0.976,0.587c-5.857,3.579 -11.424,7.651 -17.17,11.674c-15.679,10.98 -34.529,27.336 -44.324,46.903c-5.897,11.779 -8.394,24.771 -4.057,38.376c0.559,1.746 2.208,2.713 3.827,3.536c2.828,1.438 6.075,2.108 8.525,2.339c13.615,1.286 26.858,-3.228 39.959,-4.259c4.001,-0.315 7.989,-0.354 11.969,0.031c3.533,0.342 6.787,-0.365 9.922,-1.519c5.993,-2.207 11.582,-5.952 17.402,-9.234c2.974,-1.677 6.917,-5.054 10.84,-6.883c3.253,-1.517 6.559,-2.194 9.665,-1.905c2.079,0.194 5.289,1.238 7.517,5.001c0.891,1.506 2.525,6.447 2.984,7.861c2.475,3.712 4.321,7.03 6.937,9.738c1.296,1.342 2.854,2.467 4.959,3.381c1.539,0.666 3.198,0.767 4.867,0.793c4.394,0.069 8.898,-0.578 13.079,-0.386c17.28,0.791 40.408,-2.127 58.629,-11.546c8.528,-4.409 15.977,-10.276 20.817,-18.096c0.1,-0.963 0.284,-1.838 0.53,-2.602c0.402,-1.25 3.287,-6.837 4.428,-8.346c3.903,-5.156 9.08,-4.17 10.466,-3.798c2.778,0.744 7.29,2.657 7.24,9.462c-0.004,0.565 -0.029,1.962 -0.854,4.252c-0.575,1.595 -1.213,3.148 -1.915,4.659l0.055,0.205l0.404,1.466c0.746,0.24 1.865,0.543 2.366,0.431c17.493,-3.909 35.075,-10.094 51.714,-18.257c16.483,-8.086 32.03,-18.136 45.622,-29.88c14.65,-12.659 30.177,-24.557 44.82,-37.411c5.617,-4.932 11.096,-10.012 16.336,-15.338c2.599,-5.131 5.812,-9.773 8.302,-12.994c0.237,-0.307 3.923,-5.359 5.547,-7.198c6.026,-6.825 13.75,-3.457 14.901,-2.729c3.141,1.986 8.113,7.936 3.686,16.644c-2.184,4.294 -8.979,12.626 -12.869,17.19c-0.605,1.314 -1.108,2.667 -1.413,4.014l-0.156,0.615c1.72,-0.302 4.232,-0.804 5.888,-1.366c5.009,-1.699 9.788,-3.845 12.867,-4.797c17.87,-5.524 32.472,-14.929 45.351,-26.452c20.491,-18.333 36.683,-41.951 53.944,-64.957c5.572,-7.427 15.68,-15.155 22.613,-23.755c1.681,-2.084 3.156,-4.196 3.924,-6.468l0.298,-1.041c0.089,-0.315 0.147,-0.511 0.162,-0.558c17.719,-56.29 34.572,-35.609 24.822,6.566l-0.213,0.837l-0.013,0.043c-0.082,0.305 -1.135,4.212 -1.517,5.464l-1.539,6.01c-0.14,2.111 1.125,5.246 2.537,8.285c0.248,0.536 0.579,1.124 0.955,1.719c3.041,-3.58 6.181,-7.063 9.391,-10.472c3.688,-3.916 7.477,-7.724 11.334,-11.447c19.746,-19.063 40.941,-36.188 61.161,-54.506c4.897,-4.436 9.733,-8.948 14.475,-13.577c1.696,-1.656 3.501,-4.104 5.444,-6.791c-0.615,-1.772 -0.895,-3.693 -0.769,-5.681c0.477,-7.543 6.621,-13.391 14.021,-13.653Z"/><path d="M665.895,756.285c-0.203,1.481 -0.307,2.916 -0.232,4.131c0.397,6.52 3.748,10.804 7.464,13.09c2.462,1.516 5.249,2.533 8.272,3.029c-1.763,2.966 -3.972,6.961 -5.462,10.598c-2.1,5.123 -2.732,10 -2.27,13.218c0.919,6.399 4.417,10.631 10.093,12.734c4.036,1.495 8.529,2.016 13.287,1.627c-1.746,3.456 -3.297,6.698 -4.633,9.621c-0.575,1.258 -3.996,7.779 -6.15,14.426c-1.698,5.238 -2.529,10.585 -2.084,14.732c0.822,7.672 4.759,13.067 11.752,15.587c4.367,1.574 8.984,2.213 13.735,2.017l-0.092,0.572c-1.147,9.283 3.557,14.193 10.271,15.95c0.787,0.206 1.592,0.367 2.412,0.483c-1.931,5.344 -3.775,11.848 -3.4,16.356c0.619,7.461 4.449,12.452 10.921,14.601c4.567,1.517 9.331,1.785 14.142,0.952c-0.293,2.799 -0.161,5.286 0.237,6.985c1.52,6.481 5.793,9.401 10.641,10.138c8.503,1.292 18.601,-3.808 27.091,-14.342c1.895,-2.352 3.758,-4.968 5.56,-7.723c-0.407,3.536 -0.76,7.081 -1.048,10.643c-0.883,10.92 -1.172,21.986 -0.393,33.348c0.218,3.175 1.815,24.164 5.849,30.819c3.229,5.327 7.772,7.198 12.049,7.143l0.625,-0.023l-0.865,11.959c-0.264,3.514 -1.56,10.607 -1.112,13.885c0.442,3.228 1.783,5.518 3.137,7.002c0.869,0.951 1.841,1.825 2.938,2.508c-0.374,0.912 -0.722,1.819 -1.043,2.718c-4.207,11.795 -3.589,22.703 1.333,30.177c2.41,3.659 5.906,6.145 10.416,6.929c1.151,2.862 2.645,5.054 4.199,6.454c1.55,1.397 3.146,2.34 4.777,2.864c0.085,4.594 0.543,9.766 1.927,13.266c2.047,5.18 5.672,8.214 9.921,9.224c5.052,1.203 9.91,0.555 14.405,-1.671c0.067,4.191 0.413,9.174 1.402,13.341c1.287,5.426 3.838,9.687 6.874,12.021c10.076,7.743 20.611,5.004 29.889,-5.012c3.838,-4.143 7.46,-9.774 10.665,-15.627c-0.803,6.239 -1.283,12.187 -0.902,17.455c0.169,2.344 1.758,15.011 4.315,18.898c2.845,4.324 6.724,5.455 10.308,4.981c-0.72,4.058 -1.522,9.458 -1.236,13.351c0.314,4.274 1.88,7.52 3.763,9.456c2.958,3.043 6.069,3.801 8.879,3.65c2.615,-0.141 5.382,-1.203 7.842,-3.709c1.138,-1.159 2.273,-3.029 3.356,-5.195c0.088,2.941 0.396,7.468 1.159,11.11c0.841,4.018 2.498,7.2 4.107,8.855c5.223,5.372 11.064,5.404 16.82,2.041c5.657,-3.305 11.372,-12.441 12.837,-14.92c7.93,-13.423 14.279,-27.775 21.559,-41.577c1.485,-2.816 3.01,-5.609 4.601,-8.363c-1.513,4.642 -2.8,8.471 -3.17,10.277c-0.839,4.086 -2.797,14.071 -2.416,16.508c1.1,7.057 6.113,8.22 9.988,7.718c1.356,-0.176 4.011,-0.689 6.48,-3.962c0.769,-1.02 1.513,-2.068 2.232,-3.142c-0.158,3.339 -0.458,11.645 0.898,16.288c1.638,5.61 5.442,8.3 9.216,8.819c5.395,0.741 11.392,-1.555 17.011,-6.345c-0.211,3.061 -0.454,8.782 0.237,12.354c0.999,5.165 4.18,7.94 6.761,8.878c5.381,1.957 11.185,0.504 16.386,-3.959c6.164,-5.288 11.663,-15.541 13.526,-18.844c1.985,-3.519 3.818,-7.118 5.512,-10.787l-0.005,0.677c0.001,3.988 0.765,15.318 4.138,20.98c2.283,3.833 5.529,6.021 9.259,6.574c4.995,0.741 9.727,-1.235 13.611,-5.426c4.535,-4.893 7.844,-13.64 9.256,-16.78c4.17,-9.28 8.014,-18.732 11.696,-28.265c4.818,-12.474 9.357,-25.086 14.008,-37.62l-1.473,24.916c-0.051,3.359 1.023,22.73 5.88,31.494c2.79,5.033 6.804,7.627 11.053,8.043c3.319,0.325 7.469,-0.557 11.925,-4.715c7.769,-7.248 13.702,-17.887 18.234,-29.888c0.664,3.459 1.749,7.151 3.415,9.525c2.193,3.126 5.139,4.923 8.537,5.386c8.668,1.18 16.655,-3.516 22.887,-12.273c8.748,-12.293 14.32,-33.154 16.612,-41.186l2.497,-9.221c3.017,9.777 9.951,10.855 15.342,8.338c7.352,-3.434 14.14,-10.556 19.968,-19.682c10.142,-15.882 17.776,-38.071 23.488,-50.266l6.411,-14.619c0.207,9.954 -0.633,20.488 0.287,27.133c0.135,0.972 2.127,12.717 4.081,15.768c1.99,3.106 4.646,4.256 6.75,4.639c2.79,0.509 5.871,0.098 8.751,-2.827c7.536,-7.658 12.613,-19.252 15.806,-32.688c5.835,-24.548 5.596,-55.621 8.198,-74.329c0.805,-5.769 1.243,-9.115 1.801,-12.145l0.291,-1.439c1.391,-3.673 2.861,-7.321 4.145,-11.037c1.187,-3.434 2.223,-6.923 2.957,-10.52c0.804,-3.94 -0.302,-6.059 -0.577,-6.656c-0.736,-1.601 -4.346,-4.96 -8.382,-5.579c0.327,-6.027 0.56,-12.041 0.75,-18.014c0.084,-2.65 2.152,-17.503 1.393,-26.323c-0.544,-6.323 -3.08,-10.714 -5.441,-12.652c-2.668,-2.189 -5.626,-3.351 -8.757,-3.415c0.036,-0.496 0.061,-0.987 0.079,-1.472c0.37,-9.971 -2.79,-17.979 -8.703,-22.145c-7.392,-5.208 -17.713,-4.296 -28.265,2.229c-4.902,3.031 -9.967,7.262 -14.652,11.685c-0.473,-0.54 -0.978,-1.035 -1.508,-1.487c-6.437,-5.491 -15.999,-5.639 -26.21,-0.345c-3.424,1.775 -6.987,4.173 -10.434,6.803c-1.387,-2.843 -3.352,-5.186 -5.791,-6.904c-4.369,-3.079 -11.094,-4.879 -20.948,-1.87c-0.045,-2.825 -0.508,-5.349 -1.341,-7.413c-2.975,-7.367 -10.489,-14.233 -27.523,-7.911c-9.22,3.422 -17.828,8.658 -25.943,14.839c-2.26,1.722 -4.482,3.518 -6.665,5.368c-2.602,-1.519 -5.818,-2.341 -9.779,-2.209c-11.888,0.398 -23.315,5.099 -33.984,12.459c-4.995,3.446 -9.828,7.507 -14.47,11.896c-0.733,-1.046 -1.574,-2.018 -2.522,-2.909c-4.017,-3.779 -9.71,-5.474 -16.221,-4.718c-7.543,0.877 -16.651,5.636 -20.443,8.141c-9.289,6.137 -18.084,13.344 -26.552,21.058l-1.174,1.08c-11.197,0.38 -22.569,5.407 -33.344,13.412c-4.707,3.497 -9.32,7.588 -13.771,11.969c-2.1,-3.857 -5.354,-5.838 -8.606,-6.718c-5.674,-1.536 -11.777,-0.976 -17.817,1.289c-8.79,3.297 -17.624,10.777 -23.055,15.499c-9.834,8.549 -18.619,18.127 -26.515,28.511c-4.323,5.686 -8.377,11.617 -12.189,17.756c-2.421,1.299 -4.779,2.931 -7.036,4.843c-7.154,6.058 -13.394,15.288 -17.608,21.57c-2.646,3.944 -5.164,7.98 -7.593,12.08c-0.653,-0.689 -1.346,-1.313 -2.077,-1.873c-0.529,-1.202 -1.213,-2.091 -1.814,-2.741c-2.342,-2.532 -5.226,-3.628 -8.676,-3.221c-1.22,0.144 -3.52,0.455 -5.839,2.679c-2.902,0.572 -5.978,1.743 -8.856,3.155c3.258,-17.403 6.962,-34.676 9.098,-52.5c0.53,-4.415 -0.972,-6.584 -1.274,-7.118c-1.345,-2.381 -13.33,-10.243 -18.567,0.238c0.836,-6.434 1.714,-12.858 2.633,-19.273c0.394,-2.749 1.977,-6.05 3.038,-9.218c1.489,-4.442 2.255,-8.758 1.897,-12.262c-0.524,-5.14 -2.853,-9.326 -7.555,-12.276c-5.772,-3.621 -10.15,-1.943 -13.369,0.484c-1.721,1.297 -3.532,3.414 -4.401,6.726c-0.452,1.724 -0.527,7.425 -0.535,8.233l-3.903,23.157c-0.613,3.647 -1.244,7.284 -1.903,10.914c2.258,-23.383 7.126,-46.125 9.247,-69.904c0.48,-5.395 -1.862,-7.993 -2.678,-8.979c-3.03,-3.661 -6.808,-4.824 -11.151,-4.02c-1.654,0.306 -4.859,1.162 -7.504,4.839c-0.458,0.637 -1.368,2.6 -2.264,4.539c-3.219,-0.787 -7.49,-0.512 -11.833,2.233c-4.147,2.621 -9.612,9.106 -10.501,10.132c-5.545,6.401 -10.619,13.259 -15.006,20.584l-0.475,0.815c-1.638,1.548 -3.34,3.061 -5.085,4.484c-1.934,1.577 -3.916,3.043 -5.928,4.251c0.844,-1.876 1.562,-3.266 1.765,-3.685c3.443,-7.086 7.586,-13.586 12.167,-19.714c8.223,-7.814 15.418,-16.194 19.235,-19.856l9.134,-9.031c1.973,-1.942 7.007,-5.118 8.9,-7.092c2.31,-2.407 3.349,-4.835 3.786,-6.547c1.054,-4.137 0.182,-7.66 -1.898,-10.63c-1.218,-1.738 -3.232,-4.029 -7.066,-5.096c0.621,-2.482 0.218,-4.251 0.118,-4.891c-0.718,-4.598 -3.216,-7.346 -6.138,-9.088c-2.285,-1.363 -5.338,-2.398 -9.35,-1.524c-7.381,1.628 -15.17,6.168 -22.546,12.634c-8.615,7.552 -16.895,17.799 -23.646,26.63c-3.116,2.089 -6.346,4.03 -9.612,5.659c-3.045,1.519 -6.083,2.904 -9.024,3.565c1.727,-4.449 3.834,-8.312 4.235,-9.178c5.423,-11.698 14.693,-29.16 25.849,-43.905c4.229,-3.299 7.838,-6.257 10.455,-8.251l16.434,-13.427c1.912,-1.6 6.603,-5.519 7.49,-6.742c3.478,-4.795 2.875,-9.167 2.249,-11.555c-0.959,-3.66 -3.081,-6.688 -6.916,-8.652c-1.498,-0.768 -4.857,-2.541 -10.396,-0.913c-12.753,3.746 -25.817,14.684 -37.135,28.841l-0.386,0.49c-3.611,2.786 -7.601,5.71 -11.732,8.368c4.001,-5.74 8.293,-11.482 12.833,-16.98c6.342,-7.68 13.17,-14.88 20.395,-20.837c0.583,-0.481 0.916,-0.808 1.072,-0.96c3.061,-2.996 3.528,-5.655 3.737,-6.456c1.217,-4.648 -0.007,-8.139 -1.521,-10.677c-2.075,-3.478 -5.836,-7.436 -13.291,-6.753c-0.396,0.036 -3.296,0.066 -6.891,2.577c-0.692,0.483 -3.081,2.282 -4.03,3.036l-9.904,7.837c-2.697,2.052 -7.509,6.108 -13.035,10.014l0.781,-1.478c0.959,-1.758 1.931,-3.506 2.951,-5.108l0.899,-0.886c1.906,-1.881 6.702,-6.418 7.859,-7.806c8.818,-10.581 -0.641,-19.947 -2.706,-21.344c-0.402,-0.272 -1.51,-1.118 -3.193,-1.787c0.34,-0.473 0.656,-0.96 0.933,-1.468c0.594,-1.089 1.102,-2.226 1.498,-3.428c2.603,-7.911 -0.914,-12.362 -2.525,-14.313c-3.207,-3.884 -8.478,-7.399 -16.468,-4.447c-1.095,0.405 -2.761,1.164 -4.571,2.608c-1.349,1.076 -3.866,3.731 -5.051,4.864l-9.076,9.848c-3.488,4.35 -16.854,21.161 -20.258,33.083c-2.362,8.27 -1.035,15.386 2.608,20.433c2.57,3.561 6.127,6.123 10.485,7.06Zm537.238,68.653c-6.669,2.719 -12.88,6.704 -18.798,11.253c-3.897,2.996 -7.663,6.236 -11.328,9.578c-0.281,4.126 -1.114,8.068 -2.183,10.857c-3.562,9.291 -10.683,20.398 -19.576,27.926c-7.386,6.251 -15.962,10.046 -24.717,9.904c-4.402,-0.071 -7.225,-1.883 -9.164,-4.001c-2.326,-2.54 -4.035,-6.439 -2.924,-11.614c0.936,-4.362 6.085,-12.247 9.155,-15.589l10.712,-10.752c-2.674,1.823 -5.288,3.881 -7.851,6.07c-8.332,7.119 -16.036,15.75 -23.025,24.104c-3.065,6.935 -6.726,13.613 -10.801,19.993c-4.826,7.557 -10.224,14.7 -15.878,21.359c-2.605,3.068 -7.219,9.195 -12.091,12.774c-4.271,3.137 -8.882,4.692 -13.199,4.522c-7.296,-0.288 -10.281,-4.341 -11.654,-8.606c-0.704,-2.186 -1.002,-5.127 0.193,-8.526c1.089,-3.099 5.569,-8.797 7.715,-11.552l22.141,-25.53c3.748,-4.275 7.83,-9.242 12.215,-14.481c0.41,-0.946 0.804,-1.897 1.185,-2.854c0.402,-1.013 0.983,-3.149 1.515,-5.274c-1.948,0.809 -3.839,1.657 -4.639,2.191c-8.246,5.508 -16.025,11.992 -23.532,18.902c-0.801,0.737 -1.599,1.479 -2.393,2.226c-0.682,2.51 -1.884,5.54 -3.557,8.674c-4.069,7.624 -10.68,16.75 -10.891,17.023c-5.136,6.628 -10.645,12.815 -16.449,18.682c-5.733,5.796 -11.748,11.283 -17.961,16.582c-1.232,1.051 -10.079,9.273 -16.616,12.093c-5.101,2.201 -9.81,2.107 -13.279,0.807c-2.037,-0.764 -3.619,-1.761 -4.847,-2.906c-3.968,6.69 -8.348,13.337 -12.958,18.888c-7.676,9.244 -16.324,15.541 -24.6,17.322c-1.269,0.273 -2.436,0.406 -3.509,0.422c-3.106,5.253 -6.445,9.62 -8.894,11.84c-2.937,2.662 -11.446,6.971 -17.696,6.919c-4.604,-0.038 -8.51,-1.396 -11.455,-4.087l-1.85,3.32c-0.925,1.695 -1.85,3.391 -2.776,5.087l-1.224,2.271c0.883,0.986 1.678,2.313 2.166,4.108c0.332,1.222 0.337,6.367 0.112,8.448c-0.334,3.094 -0.775,5.693 -1.384,8.311c-0.564,2.424 -1.278,4.866 -2.217,7.766c-1.563,4.832 -4.337,14.375 -8.258,23.973c-1.057,7.94 -1.718,15.79 -2.134,23.053c-0.168,2.937 1.04,13.668 1.341,16.26c0.617,-0.095 1.157,-0.907 1.819,-1.482c2.882,-2.505 5.542,-6.323 8.015,-10.463c6.581,-11.014 11.523,-24.351 13.205,-28.28l5.538,-13.741c0.555,-1.299 1.34,-4.279 1.979,-5.533c1.111,-2.181 2.571,-3.433 3.603,-4.106c3.149,-2.052 6.263,-2.072 9.22,-0.749c1.54,0.689 3.935,2.03 5.293,5.784c2.477,6.85 2.99,15.044 2.336,23.812c-0.979,13.137 -4.773,27.8 -5.181,39.886c3.96,-11.296 6.245,-24.81 8.168,-30.683l5.381,-14.864c0.611,-1.535 1.895,-5.428 2.346,-6.443c5,-11.264 15.89,-2.736 16.995,-0.239c0.212,0.479 1.243,2.316 0.601,5.818c-0.27,1.47 -0.556,2.936 -0.862,4.397c0.304,-0.388 0.613,-0.733 0.919,-1.039c5.733,-5.717 10.656,-2.484 12.642,-0.825c1.381,1.153 3.06,3.131 3.296,6.52c0.115,1.644 -1.776,8.208 -2.404,10.971l-3.088,13.233c-2.358,11.661 -4.566,23.651 -6.006,35.713c-0.939,7.868 -1.551,15.766 -1.652,23.619c-0.007,0.483 0.065,1.423 0.177,2.556c0.87,-1.143 1.58,-2.114 1.828,-2.531c7.814,-13.161 14.055,-27.25 21.231,-40.785c3.239,-6.108 6.66,-12.108 10.463,-17.882c0.638,-0.967 10.85,-15.981 16.015,-19.847c5.862,-4.389 10.933,-2.447 13.607,0.182c1.116,1.098 2.119,2.816 2.806,5.05c0.984,-2.308 1.966,-4.39 2.883,-5.683c2.015,-2.842 4.425,-4.135 6.285,-4.613c3.621,-0.931 8.423,-0.747 11.495,5.985c1.568,3.436 1.867,7.024 1.243,10.701c-0.777,4.577 -3.54,9.397 -4.91,13.821c-2.418,7.806 -5.199,15.8 -7.155,23.952c-1.201,5.005 -2.088,10.071 -2.309,15.192c-0.024,0.553 0.001,2.715 0.041,5.047c1.24,-1.227 2.46,-2.638 3.66,-4.145c6.919,-8.687 12.958,-20.31 16.173,-25.054l9.723,-14.828c0.555,-0.902 1.25,-3.152 1.783,-4.096c0.927,-1.643 2.029,-2.631 2.79,-3.175c3.322,-2.374 6.478,-2.076 9.225,-0.573c1.309,0.717 3.576,2.156 4.419,6.035c0.854,3.928 0.206,7.59 -1.473,11.085c-1.796,3.738 -5.6,7.13 -7.313,10.95c-2.782,6.203 -5.397,12.48 -7.534,18.938c-1.678,5.074 -3.061,10.261 -3.973,15.615c2.042,-2.805 3.94,-5.489 4.549,-6.566c4.234,-7.492 7.691,-15.392 10.639,-23.529c4.501,-12.425 7.819,-25.4 10.828,-38.367l2.553,-12.393c0.512,-2.633 0.687,-8.514 1.295,-11.191c0.451,-1.985 1.209,-3.4 1.821,-4.241c2.305,-3.171 5.261,-3.924 8.042,-3.635c1.751,0.182 4.875,0.83 7.167,4.993c1.185,2.153 1.929,5.321 1.968,8.882c0.057,5.176 -1.291,11.544 -1.408,12.637c-1.399,13.029 -3.214,26.193 -4.432,39.388c-0.79,8.559 -1.325,17.131 -1.318,25.684c0.001,0.886 0.257,2.888 0.575,5.027c1.447,-2.691 2.924,-5.493 3.416,-6.591c4.041,-9.005 7.762,-18.18 11.329,-27.432c5.406,-14.024 10.457,-28.224 15.706,-42.292l11.047,-28.84c0.163,-0.363 4.589,-8.108 6.516,-11.014c5.832,-8.797 15.558,-0.057 15.962,1.272c1.248,4.113 1.645,8.883 1.451,13.906c-0.348,9.063 -2.71,19.108 -3.335,26.356l-1.976,34.24c-0.028,2.077 0.167,12.657 2.414,19.674c5.539,-6.274 9.527,-15.014 12.778,-24.454c5.869,-17.039 9.089,-36.395 12.273,-50.438c0.066,-0.292 1.482,-13.225 3.571,-20.427c1.511,-5.205 4.299,-8.425 6.103,-9.496c4.057,-2.41 7.327,-1.536 9.916,0.178c1.399,0.927 2.832,2.42 3.702,4.746c0.738,1.971 0.817,6.543 0.897,8.844l-0.729,14.032c-0.848,12.603 -2.948,25.557 -3.914,38.415c-0.391,5.209 -0.588,10.4 -0.403,15.541c0.027,0.772 0.339,2.724 0.639,4.449c0.658,-0.594 1.275,-1.359 1.922,-2.13c2.414,-2.873 4.474,-6.675 6.297,-10.706c4.568,-10.096 7.504,-21.638 8.995,-26.918l5.948,-22.189c0,0 3.666,-18.075 3.666,-18.075c0.184,-1.027 0.683,-12.111 2.739,-18.331c1.437,-4.345 3.925,-7.195 6.175,-8.517c4.238,-2.492 7.667,-1.653 10.399,0.077c1.554,0.984 3.122,2.595 4.114,5.104c0.977,2.47 1.008,8.238 1.478,11.138c0.4,2.467 1.208,19.012 1.721,30.327c2.457,-3.248 4.729,-7.102 6.927,-11.155c7.848,-14.472 13.875,-31.903 18.614,-42.094l10.804,-24.795c0.133,-0.272 2.833,-5.19 5.514,-8.533c2.081,-2.593 4.445,-4.337 6.141,-5.051c4.838,-2.037 8.845,-0.887 11.92,2.999c3.518,4.447 5.61,11.065 6.425,18.706c0.475,4.444 0.524,9.303 0.468,14.073c0.417,-2.06 0.791,-4.164 1.138,-6.294c1.424,-8.743 2.282,-17.935 2.931,-26.834c-4.072,-1.091 -7.721,-4.058 -7.965,-4.652c-0.166,-0.405 -1.098,-2.444 -0.542,-5.74c0.348,-2.064 2.008,-9.298 2.902,-12.15l1.133,-3.139c1.476,-6.674 2.641,-13.454 3.576,-20.291c2.421,-17.704 3.296,-35.782 3.791,-53.479c0.037,-1.331 0.329,-7.944 0.606,-14.119l-0.303,0.45c-1.011,3.002 -1.903,5.421 -2.456,6.916l-5.365,12.983c-1.67,3.462 -4.413,10.444 -6.836,12.923c-2.579,2.637 -5.479,3.612 -8.095,3.678c-2.939,0.074 -6.268,-0.75 -9.196,-4.368c-1.576,-1.946 -3.024,-5.158 -2.223,-9.561c0.838,-4.602 7.025,-15.001 7.384,-15.646c1.027,-1.841 4.022,-7.425 7.879,-13.498c1.467,-4.342 3.176,-9.955 4.28,-15.562c0.681,-3.463 1.141,-6.917 1.036,-9.973c-0.03,-0.86 -0.266,-2.042 -0.44,-2.8l-0.304,0.051c-1.093,0.272 -2.22,0.776 -3.388,1.391c-3.415,1.8 -6.954,4.552 -10.381,7.571c-5.305,4.672 -10.294,10.016 -14.099,14.318c-0.433,1.594 -0.943,3.188 -1.521,4.759c-3.121,8.48 -8.259,16.069 -13.113,19.522c-3.666,2.609 -7.485,3.565 -11.055,3.214c-3.213,-0.315 -5.577,-1.802 -7.287,-4.116c-1.098,-1.487 -2.823,-4.337 -1.712,-8.752c0.178,-0.707 0.734,-2.296 1.912,-4.314c2.745,-4.7 10.695,-16.031 11.421,-16.861l2.017,-2.321c-2.235,0.749 -5.304,1.264 -7.487,2.837c-6.125,4.415 -12.055,10.046 -16.105,14.013c-3.108,7.281 -7.559,14.018 -12.105,17.911c-5.019,4.299 -10.436,5.792 -15.149,5.047c-6.792,-1.073 -8.746,-5.311 -9.303,-9.274c-0.272,-1.935 -0.134,-4.525 1.457,-7.294c0.925,-1.608 3.914,-4.424 5.235,-5.897l11.621,-11.869l0.083,-0.079c0.588,-2.145 0.865,-4.875 0.991,-6.657c-0.485,0.109 -0.999,0.256 -1.546,0.429l-5.2,2.016l-12.45,9.716c-1.055,1.638 -2.073,3.057 -2.986,4.178c-0.141,0.172 -10.194,11.244 -14.696,13.856c-8.081,4.689 -13.77,0.517 -16.199,-3.428c-1.324,-2.15 -3.337,-8.292 1.9,-14.603c3.053,-3.68 11.131,-10.515 15.275,-13.954c1.87,-3.206 3.792,-7.22 5.137,-11.094c0.146,-0.421 0.284,-0.892 0.408,-1.387Zm-348.192,247.697c-2.409,2.065 -4.791,3.108 -6.574,3.588c0.018,1.799 0.08,4.171 0.148,6.276l0.317,-0.357c2.295,-2.528 4.302,-5.881 6.109,-9.507Zm104.321,-147.582c-8.106,7.216 -15.35,15.268 -21.886,23.956c-1.181,1.569 -2.338,3.159 -3.47,4.769c0.847,0.995 1.599,2.086 2.239,3.273l14.575,-15.791c3.246,-5.789 6.132,-11.467 8.542,-16.207Z" style="fill-opacity:0.85;"/><g id="Lentes"><path d="M582.885,685.114c3.211,-3.829 12.954,-3.972 17.428,-4.946c12.586,-2.742 27.024,-6.301 39.119,-11.043c48.864,-19.155 100.89,-28.077 152.058,-40.457c21.358,-5.168 55.732,-6.085 74.732,-18.572" style="fill:#fff;fill-opacity:0.45;"/><path d="M591.86,696.609c2.061,2.561 8.664,-2.504 11.326,-3.25c7.715,-2.134 16.071,-4.57 24.195,-7.403c5.609,-1.955 11.099,-4.007 16.176,-6.307c18.928,-8.285 38.277,-15.284 58.126,-20.944c12.018,-3.428 24.165,-6.488 36.415,-9.129c18.522,-3.994 37.243,-7.019 55.817,-10.884c15.02,-2.805 36.056,-3.351 54.256,-7.062c9.785,-1.996 18.688,-5.115 26.06,-9.347c6.727,-4.421 8.599,-13.47 4.178,-20.196c-4.42,-6.727 -13.47,-8.599 -20.196,-4.178c-6.21,4.63 -14.572,7.846 -23.585,10.29c-15.792,4.281 -32.992,6.699 -45.563,10.445c-20.245,5.54 -40.485,11.059 -60.886,15.839c-20.733,4.859 -41.501,9.227 -61.952,14.851c-10.38,2.855 -20.701,5.798 -30.921,9.268c-5.788,1.93 -12.101,3.49 -18.473,4.863c-6.592,1.421 -13.213,2.524 -19.394,3.511c-4.184,0.658 -12.005,0.97 -17.257,2.888c-3.597,1.314 -6.296,3.577 -8.47,5.878c-5.173,6.167 -4.366,15.373 1.801,20.545c5.368,4.504 13.04,4.475 18.347,0.322Z"/><path d="M879.912,590.147c2.528,-0.551 -2.797,4.589 -3.924,7.046c-1.931,4.209 -2.76,9.331 -3.853,13.907c-3.704,15.508 -2.928,32.303 0.499,48.036c10.173,46.697 39.439,84.665 79.048,109.095c75.811,46.761 163.932,47.604 239.263,4.728c30.687,-17.466 55.919,-37.838 66.971,-74.88c8.737,-29.279 1.919,-64.063 -7.363,-92.613c-20.057,-61.692 -63.856,-119.688 -127.873,-131.7c-47.148,-8.847 -96.322,9.741 -139.493,26.259c-38.704,14.809 -58.214,40.613 -82.84,72.838c-3.552,4.648 -23.951,22.937 -22.773,28.34" style="fill:#fff;fill-opacity:0.45;"/><path d="M878.454,575.632c-0.53,0.063 -1.078,0.151 -1.646,0.265c-4.347,0.947 -7.817,3.747 -9.759,7.391c-1.91,0.383 -3.425,6.145 -4.19,7.883c-0.834,1.891 -1.558,3.89 -2.145,5.966c-0.988,3.491 -1.648,7.211 -2.417,10.658c-2,8.97 -2.776,18.283 -2.444,27.622c0.32,8.954 1.569,17.926 3.594,26.591c5.825,24.986 16.638,47.589 31.41,67.15c14.754,19.535 33.347,36.103 54.754,48.917c39.666,23.801 82.335,35.709 124.848,36.144c42.882,0.438 85.64,-10.695 124.904,-33.499c16.274,-9.397 31.019,-19.629 43.155,-32.432c12.116,-12.781 21.702,-28.089 27.526,-47.784c3.782,-12.716 4.86,-26.387 4.15,-40.199c-1.015,-19.736 -5.719,-39.781 -11.415,-57.513c-10.035,-31.683 -26.186,-62.399 -47.793,-87.068c-22.829,-26.065 -51.806,-45.321 -86.385,-52.194c-20.147,-4.044 -40.694,-3.375 -61.078,-0.038c-29.224,4.784 -58.095,15.237 -84.744,25.013c-16.873,6.178 -30.432,14.357 -42.416,24.071c-17.418,14.119 -31.311,31.719 -47.133,51.792c-1.569,1.986 -6.055,6.369 -10.776,11.264Zm7.972,37.159l-0.453,1.614c-1.685,6.61 -2.44,13.506 -2.402,20.442c0.04,7.19 0.836,14.416 2.251,21.416c4.353,21.483 13.024,41.064 25.174,58.122c12.42,17.436 28.342,32.303 46.757,44.003c35.666,22.606 74.331,34.57 113.122,35.78c39.518,1.232 79.091,-8.581 115.653,-28.971c14.855,-8.333 28.445,-17.301 39.546,-28.809c10.45,-10.834 18.654,-23.924 23.715,-40.734c4.069,-13.622 4.461,-28.538 2.773,-43.354c-1.743,-15.29 -5.724,-30.468 -10.234,-44.159c-9.729,-29.168 -24.938,-57.473 -45.343,-79.926c-20.346,-22.387 -45.913,-38.861 -76.226,-44.213c-17.686,-3.089 -35.619,-1.958 -53.346,1.428c-27.646,5.28 -54.756,16.126 -79.818,26.116c-13.837,5.525 -24.89,12.615 -34.585,20.959c-15.563,13.394 -27.614,30.045 -41.546,48.854c-2.662,3.601 -12.783,25.951 -19.751,23.405c-0.804,3.187 -2.671,6.028 -5.287,8.027Z"/><path d="M1192.76,531.858c-4.282,0.106 8.698,-11.299 10.132,-12.298c8.41,-5.857 17.82,-11.332 27.36,-14.9c18.248,-6.824 41.414,-11.73 60.907,-12.346c6.714,-0.212 12.079,-0.52 18.668,0.746c1.658,0.319 10.329,2.75 10.051,1.473" style="fill:#fff;fill-opacity:0.45;"/><path d="M1206.44,536.893c1.719,-2.073 3.125,-6.691 3.578,-7.096c3.609,-3.145 7.278,-6.321 11.321,-9.106c3.954,-2.723 8.012,-5.193 12.216,-7.189c4.359,-1.91 8.951,-3.885 13.848,-5.405c4.698,-1.458 9.597,-2.692 14.561,-3.501c10.079,-1.642 20.27,-1.632 29.541,-1.186c3.173,0.253 5.971,0.493 8.793,0.869c2.33,0.31 4.522,1.004 7.023,1.798c1.649,0.538 8.825,2.891 11.63,3.268c3.614,0.486 6.122,-1.164 7.808,-1.817c2.215,-0.858 3.38,-2.72 4.731,-4.086c2.934,-2.966 3.015,-7.094 2.633,-12.013c-1.512,-6.94 -7.746,-11.645 -14.596,-11.474c-1.199,-1.271 -6.283,0.148 -7.203,0.088c-3.349,-0.242 -6.353,-0.415 -9.363,-0.208c-3.973,0.273 -7.765,0.746 -12.157,1.383c-8.311,0.977 -17.065,2.823 -25.989,4.945c-5.047,1.201 -10.101,2.508 -15.128,3.725c-7.902,1.913 -15.676,3.638 -22.745,5.93c-5.422,1.515 -10.725,3.715 -16.053,6.027c-5.231,2.27 -10.25,4.813 -15.131,7.479c-1.222,0.65 -8.372,5.891 -12.589,9.757c-2.471,2.265 -3.663,4.819 -4.518,6.391c-3.046,5.603 -0.551,10.336 1.019,13.742c1.706,3.698 5.79,6.459 13.445,7.223c6.151,-0.151 11.323,-4.098 13.325,-9.544Zm-9.368,-18.963c-1.292,-0.575 -2.813,-0.931 -4.675,-0.651c1.628,-0.04 3.201,0.189 4.675,0.651Zm108.436,-20.901c0.001,0.191 0.039,0.393 0.116,0.608l-0.116,-0.608Z"/><path d="M1301.92,497.075c-14.381,3.133 -15.211,20.825 -19.501,32.448c-14.16,38.361 -4.296,86.949 22.012,117.385c66.993,77.503 199.064,74.031 265.055,5.536c19.926,-20.681 29.34,-49.654 39.849,-76.304c5.531,-14.026 21.2,-25.17 22.419,-40.882c1.979,-25.497 -15.15,-54.29 -27.477,-74.935c-8.273,-13.856 -15.238,-30.895 -26.552,-42.36c-15.621,-15.83 -35.072,-34.337 -56.092,-40.738c-50.186,-15.283 -100.9,21.554 -140.039,47.702c-23.463,15.674 -47.525,35.465 -67.259,56.147c-2.28,2.39 -18.542,14.012 -17.993,16.531" style="fill:#fff;fill-opacity:0.45;"/><path d="M1282.79,492.052c-0.77,0.836 -1.493,1.721 -2.175,2.647c-6.028,8.181 -7.987,20.641 -11.269,30c-7.541,21.5 -8.586,45.707 -3.815,68.761c4.74,22.908 15.007,44.66 29.819,61.295c35.753,40.257 87.941,59.537 140.125,59.671c52.817,0.135 105.505,-19.192 140.285,-55.934c8.569,-8.976 15.329,-19.364 21.052,-30.465c8.039,-15.592 14.021,-32.605 20.358,-48.797c3.727,-9.396 12.296,-17.36 17.518,-26.473c3.003,-5.241 5.098,-10.782 5.598,-16.837c0.957,-11.449 -1.469,-23.526 -5.674,-35.369c-5.776,-16.274 -14.967,-32.118 -22.468,-44.927c-5.725,-9.792 -10.825,-21.116 -17.179,-31.059c-3.109,-4.863 -6.519,-9.404 -10.363,-13.39c-9.526,-9.88 -20.481,-20.705 -32.33,-29.367c-8.757,-6.402 -18.037,-11.583 -27.586,-14.618c-22.384,-7.151 -44.982,-4.96 -66.875,2.132c-30.149,9.765 -58.907,29.261 -83.293,45.017c-12.262,7.918 -24.674,16.922 -36.639,26.553c-11.95,9.621 -23.414,19.898 -33.787,30.411c-1.973,1.997 -13.738,10.346 -17.618,14.685c-1.83,2.045 -2.986,4.113 -3.684,6.064Zm32.928,9.734c-1.6,4.668 -5.528,8.412 -10.697,9.538c-2.149,0.432 -2.736,2.494 -3.511,4.359c-2.515,6.047 -3.861,13.085 -6.024,18.664c-6.514,16.8 -7.787,35.93 -4.581,54.271c3.268,18.686 10.992,36.606 22.601,50.443c30.536,36.301 76.281,54.191 122.244,55.332c47.615,1.182 95.512,-15.42 127.457,-47.996c7.494,-7.708 13.395,-16.685 18.421,-26.266c7.877,-15.015 13.662,-31.464 19.866,-47.082c3.963,-10.108 12.89,-18.858 18.431,-28.685c1.724,-3.056 3.036,-6.248 3.292,-9.768c0.653,-9.125 -1.575,-18.69 -5.059,-28.07c-5.607,-15.102 -14.554,-29.676 -21.753,-41.504c-5,-8.206 -9.533,-17.552 -14.816,-26.157c-3.177,-5.175 -6.647,-10.054 -10.746,-14.113c-8.984,-8.897 -19.253,-18.697 -30.356,-26.417c-7.004,-4.87 -14.347,-8.871 -21.913,-11.075c-18.077,-5.237 -36.11,-2.681 -53.473,3.504c-27.928,9.947 -54.087,29.317 -76.437,44.75c-11.281,7.794 -22.68,16.601 -33.62,26.008c-10.821,9.305 -21.154,19.225 -30.471,29.323c-1.041,1.13 -4.953,6.988 -8.855,10.941Z"/></g></g><g id="Mano"><path d="M1081.74,1445.95c14.877,-7.209 130.01,-95.268 134.791,-97.938c33.277,-18.581 67.49,-38.676 99.929,-58.976c12.961,-8.111 29.706,-12.018 39.962,-24.326c29.355,-35.232 31.2,-81.872 52.152,-121.733c13.951,-26.542 36.149,-40.894 55.562,-62.306c13.632,-15.034 23.784,-33.868 37.744,-48.437c24.198,-25.252 56.73,-34.371 86.905,-48.167c16.623,-7.6 34.375,-22.169 52.28,-25.05c3.769,-0.606 22.816,-4.695 25.418,-0.489c5.424,8.766 3.004,31.354 -4.275,37.953c-28.768,26.084 -69.216,30.208 -85.172,72.151c-1.299,3.414 -14.578,28.051 -11.622,31.253c8.05,8.72 42.558,9.929 53.51,12.986c53.211,14.852 110.069,33.61 165.28,36.094c20.096,0.904 74.851,-1.958 88.164,19.959c10.896,17.94 -49.798,65.132 -62.391,71.657c-34.23,17.737 -74.977,19.393 -112.373,28.094c-54.001,12.564 -124.822,35.767 -174.872,59.591c-76.605,36.463 -123.026,102.318 -174.49,168.577c-15.694,20.206 -31.211,42.184 -43.939,64.547c-2.123,6.428 -4.722,12.684 -7.702,18.77c-1.361,4.833 -29.869,45.677 -43.645,60.98c-65.077,72.295 -180.603,115.002 -276.805,120.283c-86.23,4.733 -184.735,-24.026 -244.706,-90.322c-58.628,-64.813 -86.179,-150.702 -121.988,-228.365c-28.456,-61.714 -46.337,-127.275 -26.401,-193.903c8.229,-27.505 21.728,-55.756 48.036,-70.202c29.858,-16.395 63.917,-6.516 94.176,2.353c12.93,3.79 28.471,6.95 39.234,15.628c15.617,12.59 26.636,34.377 34.718,52.221c16.868,37.242 33.691,73.643 51.611,110.222c9.563,19.521 18.873,42.051 33.527,58.427c10.412,11.636 25.623,17.663 39.241,24.614c17.262,8.812 37.525,20.253 56.596,24.401c33.654,7.319 71.898,-6.182 101.545,-20.547Z" style="fill:#fff;"/><path d="M1304.45,1583.23l-0.249,0.651c1.568,-3.207 3.035,-6.459 4.39,-9.755c1.257,-3.059 2.418,-6.156 3.472,-9.292c6.121,-10.708 12.891,-21.342 20.019,-31.716c7.346,-10.692 15.073,-21.107 22.836,-31.09c30.592,-39.327 59.349,-78.546 93.86,-111.399c22.652,-21.564 47.804,-40.361 77.679,-54.542c24.773,-11.735 54.687,-23.299 85.082,-33.478c30.436,-10.192 61.356,-18.991 88.108,-25.163c26.213,-6.04 54.051,-8.657 80.18,-15.689c11.909,-3.205 23.472,-7.306 34.419,-12.941c8.646,-4.451 38.852,-26.911 55.726,-47.332c6.342,-7.674 10.8,-15.224 12.42,-21.547c1.564,-6.1 0.829,-11.496 -1.869,-15.963c-5.369,-8.894 -15.821,-15.095 -28.825,-18.739c-22.475,-6.298 -52.982,-5.377 -67.051,-6.047c-21.643,-1.043 -43.533,-4.673 -65.346,-9.569c-33.085,-7.427 -65.983,-17.77 -97.594,-26.706c-6.493,-1.836 -21.06,-3.123 -33.795,-5.568c-3.881,-0.745 -7.567,-1.602 -10.654,-2.688c3.013,-6.795 8.964,-20.265 9.723,-22.241c3.95,-10.28 9.62,-17.892 16.272,-24.048c19.323,-17.881 45.814,-25.174 66.393,-43.684c5.17,-4.65 9.4,-14.717 10.579,-25.431c1.126,-10.235 -0.547,-20.69 -4.191,-26.631c-1.989,-3.244 -6.478,-6.521 -13.369,-7.103c-7.514,-0.635 -20.233,1.816 -23.397,2.312c-6.547,1.027 -13.097,3.326 -19.584,6.342c-12.223,5.685 -24.237,14.193 -35.704,19.381c-18.479,8.36 -37.807,15.025 -55.65,24.57c-12.647,6.765 -24.555,14.939 -35.082,25.838c-3.083,3.192 -5.997,6.573 -8.808,10.073c-10.039,12.497 -18.588,26.676 -29.341,38.442c-13.866,15.172 -29.097,26.813 -41.847,41.725c-5.844,6.834 -11.189,14.311 -15.771,22.944c-14.953,28.163 -20.53,59.695 -32.727,88.274c-4.666,10.934 -10.402,21.396 -18.396,30.904c-3.053,3.63 -6.96,6.145 -11.057,8.378c-8.522,4.646 -17.896,8.089 -25.901,13.049c-16.15,10.005 -32.739,19.957 -49.432,29.696c-16.735,9.765 -33.575,19.314 -50.179,28.488c-3.225,1.782 -55.93,41.364 -95.431,69.991c-18.735,13.577 -34.216,24.623 -38.974,26.902c-13.939,6.837 -29.885,13.528 -46.335,17.615c-15.318,3.805 -31.076,5.44 -45.859,2.299c-6.842,-1.454 -13.852,-3.988 -20.802,-6.971c-11.303,-4.853 -22.432,-10.862 -32.519,-15.951c-7.849,-3.959 -16.265,-7.558 -23.896,-12.231c-4.208,-2.577 -8.182,-5.477 -11.501,-9.152c-5.285,-5.857 -9.781,-12.62 -13.854,-19.726c-6.651,-11.601 -12.206,-24.079 -17.86,-35.496c-9.011,-18.193 -17.748,-36.343 -26.354,-54.578c-8.604,-18.23 -17.077,-36.542 -25.563,-55.065c-5.151,-11.244 -11.442,-23.957 -19.182,-35.206c-5.659,-8.226 -12.085,-15.688 -19.32,-21.47c-5.321,-4.252 -11.538,-7.489 -18.157,-10.038c-8.366,-3.223 -17.388,-5.348 -25.451,-7.674c-19.239,-5.549 -39.953,-11.337 -60.234,-11.408c-14.777,-0.053 -29.34,2.797 -43.121,10.442c-12.014,6.665 -21.723,15.789 -29.583,26.424c-11.105,15.027 -18.511,33.082 -23.757,50.894c-10.389,35.201 -10.851,70.076 -4.841,104.281c5.839,33.234 17.789,65.836 32.498,97.425c21.712,46.651 40.475,96.271 64.731,142.513c16.529,31.512 35.581,61.471 59.704,87.969c31.11,34.173 72.079,58.703 116.464,74.005c44.172,15.228 91.705,21.339 136.061,18.795c48.907,-2.799 102.689,-15.093 152.539,-35.864c50.371,-20.988 96.715,-50.63 130.091,-87.826c7.281,-8.101 18.604,-23.184 28.016,-36.55c8.657,-12.293 15.559,-23.384 17.151,-27.054Zm353.668,-615.23c0.409,2.605 0.251,5.798 -0.066,8.902c-0.47,4.611 -1.069,9.364 -3.276,11.381c-20.483,18.719 -46.949,26.286 -66.187,44.354c-8.812,8.276 -16.316,18.47 -21.491,32.215c-1.134,3.011 -10.765,21.654 -12.274,29.807c-1.124,6.074 0.913,10.273 2.86,12.367c2.904,3.125 7.885,5.99 14.328,7.996c13.71,4.268 35.751,5.5 44.135,7.81c32.013,8.822 65.343,19.032 98.835,26.323c22.971,5 46.019,8.639 68.785,9.591c11.522,0.488 34.706,-0.394 54.529,3.175c11.232,2.022 21.579,4.85 25.922,11.957c0.238,0.391 -0.138,0.848 -0.273,1.384c-0.289,1.153 -0.782,2.366 -1.415,3.636c-3.714,7.459 -11.472,16.071 -19.992,24.247c-14.339,13.759 -30.992,26.164 -36.824,29.205c-9.752,5.087 -20.075,8.777 -30.701,11.692c-25.875,7.099 -53.479,9.765 -79.446,15.866c-27.231,6.389 -58.699,15.464 -89.668,25.963c-31.048,10.525 -61.593,22.48 -86.886,34.577c-31.557,15.062 -58.134,34.955 -82.044,57.798c-35.051,33.488 -64.332,73.36 -95.397,113.416c-7.949,10.247 -15.846,20.949 -23.379,31.914c-7.558,11.002 -14.749,22.269 -21.228,33.638c-0.276,0.486 -0.504,0.998 -0.679,1.529l-7.278,17.701c-0.224,0.458 -0.406,0.935 -0.544,1.425c-0.708,2.504 -9.652,15.285 -19.328,28.689c-7.973,11.045 -16.611,22.36 -22.5,28.892c-31.87,35.293 -76.137,63.256 -124.145,83.039c-48.015,19.786 -99.795,31.364 -146.837,33.836c-42.047,2.205 -87.077,-3.767 -128.856,-18.434c-41.222,-14.472 -79.282,-37.427 -108.029,-69.41c-22.804,-25.371 -40.712,-54.039 -56.246,-84.143c-23.797,-46.118 -42.047,-95.586 -63.296,-142.103c-13.665,-29.931 -24.814,-60.767 -30.093,-92.188c-5.183,-30.854 -4.648,-62.274 4.948,-93.914c3.874,-12.747 8.931,-25.679 16.116,-37.073c6.679,-10.591 15.241,-19.829 26.617,-26.012c10.08,-5.479 20.736,-7.306 31.493,-7.176c18.063,0.22 36.411,5.826 53.504,10.917c7.392,2.201 15.686,4.161 23.35,7.189c4.18,1.652 8.161,3.63 11.509,6.353c5.359,4.359 10.012,10.047 14.181,16.218c6.809,10.082 12.25,21.49 16.753,31.548c8.366,18.684 16.722,37.158 25.21,55.55c8.518,18.457 17.169,36.831 26.095,55.251c5.783,11.935 11.49,24.958 18.309,37.093c4.972,8.849 10.543,17.228 17.03,24.541c5.024,5.665 10.959,10.276 17.358,14.276c8.221,5.139 17.264,9.197 25.728,13.568c10.514,5.43 22.126,11.805 33.916,17c8.654,3.813 17.418,6.981 25.955,8.88c15.264,3.396 31.382,3.075 47.383,0.343c22.419,-3.829 44.61,-12.476 63.513,-21.523c4.086,-2.003 15.298,-9.609 29.677,-20.055c38.407,-27.899 101.994,-76.949 105.5,-78.927c16.705,-9.426 33.644,-19.234 50.477,-29.258c16.809,-10.011 33.513,-20.236 49.77,-30.511c9.07,-5.732 20.005,-9.414 29.259,-15.352c5.094,-3.269 9.766,-7.1 13.707,-11.873c9.596,-11.623 16.534,-24.322 22.081,-37.636c11.685,-28.05 16.708,-58.991 31.1,-86.653c4.926,-9.463 11.044,-17.196 17.687,-24.306c11.332,-12.129 24.088,-22.593 35.82,-35.635c11.003,-12.233 19.782,-26.887 30.043,-39.869c2.328,-2.946 4.737,-5.8 7.295,-8.49c8.672,-9.123 18.566,-15.918 29.026,-21.62c17.309,-9.437 36.114,-16.019 54.052,-24.306c11.499,-5.313 23.53,-13.957 35.785,-19.775c4.474,-2.124 8.96,-3.857 13.487,-4.603c1.865,-0.308 7.681,-1.556 13.162,-2.085c0.627,-0.061 1.368,-0.101 2.088,-0.122Z"/><path d="M561.969,1184.55c-2.192,20.604 -17.119,34.825 -21.004,55.812c-19.217,103.814 -31.089,174.673 15.003,273.968c14.08,30.333 22.082,79.433 63.349,75.321c72.789,-7.254 86.511,-84.589 122.358,-134.432c43.478,-60.455 115.565,-85.246 87.364,-169.85c-4.455,-13.364 -13.842,-24.248 -20.343,-36.604c-8.961,-17.027 -17.128,-33.631 -29.335,-48.615c-18.391,-22.576 -33.95,-44.461 -60.019,-59.112c-39.421,-22.155 -93.981,-5.382 -129.369,15.9c-13.355,8.03 -49.312,29.153 -33.335,45.315" style="fill:#ffd78b;"/><path d="M545.008,1204.1c-5.137,10.938 -11.423,21.49 -13.691,34.469c-11.264,64.208 -19.763,116.006 -14.065,169.329c3.698,34.606 13.288,69.869 32.086,109.503c8.568,18.132 15.182,42.816 27.581,59.269c9.936,13.186 23.233,21.648 43.054,19.553c31.184,-3.254 52.182,-18.432 68.592,-38.976c22.983,-28.774 36.544,-68.551 58.002,-98.517c26.403,-36.45 63.062,-59.976 82.098,-91.375c13.435,-22.161 18.763,-48.025 6.95,-84.185c-1.44,-4.425 -3.369,-8.607 -5.557,-12.663c-4.614,-8.551 -10.496,-16.478 -14.963,-25.116c-5.375,-10.402 -10.475,-20.639 -16.331,-30.476c-4.021,-6.755 -8.402,-13.317 -13.45,-19.621c-11.166,-13.945 -21.319,-27.595 -33.376,-39.583c-8.306,-8.259 -17.51,-15.724 -28.472,-22.018c-17.25,-9.915 -37.229,-13.043 -57.505,-11.658c-29.003,1.981 -58.602,13.376 -81.004,26.555c-9.823,5.766 -30.277,18.16 -38.242,30.83c-5.194,8.26 -6.406,16.677 -1.707,24.68Zm26.894,-22.69c0.423,1.328 0.581,2.762 0.425,4.235c-0.571,4.892 -1.706,9.483 -3.254,13.884c-5.065,14.4 -15.274,26.323 -18.459,42.612c-12.108,62.146 -21.588,112.272 -16.969,164.152c2.945,33.075 11.645,66.845 28.953,104.953c7.964,17.471 13.678,41.323 25.345,57.228c7.024,9.574 16.446,15.926 30.719,14.591c27.27,-2.591 45.69,-15.812 60.146,-33.664c23.031,-28.442 36.529,-68.015 57.976,-97.707c25.909,-36.287 62.266,-59.686 80.831,-90.968c11.482,-19.347 15.478,-41.905 4.847,-73.172c-1.23,-3.605 -2.877,-6.997 -4.715,-10.29c-4.78,-8.564 -10.819,-16.486 -15.451,-25.138c-5.386,-10.053 -10.481,-19.961 -16.336,-29.45c-3.763,-6.099 -7.853,-12.015 -12.551,-17.684c-10.999,-13.272 -20.964,-26.324 -32.8,-37.684c-7.437,-7.139 -15.644,-13.578 -25.391,-18.939c-18.072,-9.928 -39.537,-10.669 -60.467,-6.745c-21.802,4.087 -43.053,13.377 -59.763,23.647c-5.557,3.423 -15.328,9.307 -23.086,16.139Z"/><path d="M1854.36,1172.52c-10.874,4.885 -33.223,11.754 -37.749,13.198c-13.11,3.889 -26.598,5.85 -40.267,6.307c-8.371,0.28 -16.788,0 -25.173,-0.413c-12.977,-0.639 -25.864,-1.773 -38.587,-1.869c-7.834,-0.21 -34.989,-12.634 -41.505,-6.87c-1.304,-1.568 -3.081,-2.768 -5.192,-3.358c-5.537,-1.545 -11.288,1.696 -12.833,7.233c-1.256,5.802 0.209,12.477 8.934,15.764c10.495,3.955 41.16,3.149 51.008,2.347c14.519,-0.866 29.356,-0.894 44.216,-0.73c10.101,0.111 20.193,0.281 30.227,-0.082c11.092,-0.402 22.095,-1.299 32.97,-3.677c5.712,-1.149 36.632,-7.361 46.386,-11.472c7.431,-3.132 8.492,-9.285 8.525,-11.739c0.043,-3.212 -1.476,-7.852 -8.673,-10.366c-5.015,-1.399 -10.204,1.126 -12.287,5.727Zm-180.999,18.742c-0.059,0.362 -0.14,0.725 -0.241,1.087c0.126,-0.365 0.203,-0.727 0.241,-1.087Zm186.538,-4.798c0.335,0.166 0.714,0.304 1.147,0.395c-0.395,-0.11 -0.777,-0.241 -1.147,-0.395Z"/><path d="M1858.64,1188.05c-8.199,-0.584 -28.971,16.375 -31.961,17.434c-11.907,3.934 -24.572,6.88 -37.592,8.558c-7.775,1.002 -15.656,1.548 -23.49,1.897c-12.172,0.544 -24.226,0.424 -35.783,0.722c-9.249,0.046 -33.52,1.487 -43.983,2.106c-2.136,0.126 -3.689,0.219 -4.437,0.267c-0.327,0.021 -0.546,0.051 -0.651,0.06c-0.381,0.032 -0.621,0.115 -0.738,0.133c-1.845,0.283 -2.79,1.074 -3.18,1.278c-3.513,1.839 -4.193,4.799 -4.711,6.475c-1.182,3.826 -0.367,8.194 5.299,11.648c2.399,1.257 5.067,1.484 7.495,0.84c0.801,-0.155 1.938,-0.373 3.344,-0.63c10.092,-1.846 33.532,-5.974 42.519,-7.073c13.401,-1.317 27.466,-2.695 41.637,-3.93c9.402,-0.82 18.832,-1.593 28.116,-2.678c10.395,-1.214 20.599,-2.651 30.38,-5.033c4.107,-0.924 34.615,-9.74 42.444,-15.013c5.961,-4.016 5.887,-9.556 5.333,-12.665c-0.52,-2.924 -2.661,-6.435 -8.639,-8.555c-4.41,-1.231 -8.955,0.574 -11.402,4.159Zm4.934,15.621c0.259,0.123 0.546,0.22 0.867,0.286c-0.296,-0.082 -0.586,-0.177 -0.867,-0.286Z"/><path d="M1805.15,1226.51c-2.953,-1.779 -9.875,3.846 -12.684,4.491c-9.83,1.96 -19.697,5.61 -29.861,8.674c-4.065,1.225 -8.182,2.311 -12.311,3.153c-9.007,1.837 -18.005,2.483 -26.655,1.618c-3.569,-0.492 -16.501,-3.162 -24.339,-3.297c-7.322,-0.126 -11.739,3.755 -13.583,6.276c-2.912,4.958 -1.252,11.346 3.705,14.258c3.307,1.942 7.25,1.85 10.372,0.101c2.936,4.536 19.772,-1.834 23.157,-1.998c10.391,-0.086 20.82,-2.749 31.499,-5.416c6.5,-1.624 13.101,-3.154 19.666,-4.472c6.913,-1.388 13.771,-2.203 20.459,-2.557c2.514,-0.081 6.826,0.043 10.998,-0.287c3.663,-0.29 7.071,-1.287 9.802,-2.431c4.406,-1.846 6.681,-5.394 8.144,-9.068c1.545,-5.538 -1.695,-11.288 -7.233,-12.834c-4.255,-1.188 -8.637,0.451 -11.136,3.789Zm-101.553,31.6c0.034,-0.041 0.062,-0.086 0.083,-0.132l-0.083,0.132Zm99.91,-28.336c-0.026,0.058 -0.044,0.118 -0.055,0.18l0.055,-0.18Z"/><path d="M1841.61,1181.49c-0.435,-2.294 -0.691,-4.826 -0.257,-6.995c0.105,-0.528 0.441,-1.09 0.566,-1.528c1.338,0.07 2.753,0.445 4.103,0.965c2.024,0.779 3.402,2.483 4.68,3.826c0.894,1.03 4.223,4.933 5.805,5.382c0.775,0.464 1.623,0.832 2.534,1.086c1.461,0.017 2.248,0.436 2.673,0.348c1.104,-0.23 1.966,0.098 2.554,-0.185c2.175,-1.048 4.043,-1.194 4.848,-2.391c1.52,-2.261 3.647,-3.766 3.376,-6.223c-0.065,-0.587 0.278,-1.152 0.106,-1.75c-0.235,-0.818 0.102,-1.767 -0.404,-2.615c-0.602,-1.009 -0.514,-2.864 -2.213,-3.994c-0.484,-0.321 -1.08,-1.763 -3.002,-2.26c-0.842,-0.218 -2.892,-0.739 -4.898,-1.163l-0.363,-0.067c0.333,-0.05 0.697,-0.052 1.096,0.076c0.15,0.048 0.417,-0.054 0.763,-0.08c-0.869,-0.148 -1.736,-0.182 -2.585,-0.112c-0.378,-0.054 -0.671,-0.088 -0.671,-0.088c-0,0 0.025,0.085 0.064,0.158l-0.121,0.019c-3.24,-1.444 -7.015,-2.634 -11.127,-3.047c-4.106,-0.412 -8.225,-0.725 -11.665,0.37c-5.034,0.415 -10.792,11.608 -13.017,20.819c-1.058,4.382 -0.306,8.011 0.173,10.434c0.223,1.128 1.057,1.815 1.454,2.688c0.94,2.067 3.064,2.583 4.614,3.725c5.314,2.195 11.409,-0.337 13.604,-5.651c1.734,-4.197 0.518,-8.883 -2.69,-11.747Zm0.162,0.817c0.122,0.6 0.255,1.176 0.387,1.718c0.051,0.21 0.29,0.379 0.505,0.516c0,-0.455 0.127,-1.154 -0.096,-1.369c-0.291,-0.278 -0.554,-0.571 -0.796,-0.865Zm-1.694,-1.952c-0.415,-0.373 -0.87,-0.639 -1.429,-0.723c0.502,0.208 0.978,0.45 1.429,0.723Zm23.499,-16.433c0.302,-0.028 0.665,0.002 1.065,0.238c-0.354,-0.099 -0.709,-0.178 -1.065,-0.238Z"/><path d="M1837.47,1218.97c-0.263,-1.559 -1.072,-2.647 -0.98,-4.27c0.104,-1.856 -0.308,-3.839 0.86,-5.125c0.403,-0.443 1.093,-0.383 1.674,-0.506c0.387,-0.081 0.581,0.492 0.99,0.565c1.136,0.204 0.632,2.037 1.784,3.031c5.538,1.546 11.288,-1.695 12.834,-7.232c1.545,-5.538 -1.695,-11.288 -7.233,-12.834c-4.381,0.748 -7.26,0.31 -10.094,2.181c-0.794,0.524 -1.593,0.649 -2.334,1.186c-1.917,1.389 -3.618,2.558 -5.255,4.209c-0.928,0.936 -1.894,1.823 -2.904,2.731c-1.084,0.975 -1.882,2.051 -3.007,3.054c-2.657,2.366 -4.166,4.71 -6.402,7.409c-1.545,5.537 1.696,11.288 7.233,12.833c5.538,1.546 11.288,-1.695 12.834,-7.232Z"/></g></svg>