<?xml version="1.0" encoding="UTF-8" standalone="no"?><!DOCTYPE svg PUBLIC "-//W3C//DTD SVG 1.1//EN" "http://www.w3.org/Graphics/SVG/1.1/DTD/svg11.dtd"><svg width="100%" height="100%" viewBox="0 0 1449 2007" version="1.1" xmlns="http://www.w3.org/2000/svg" xmlns:xlink="http://www.w3.org/1999/xlink" xml:space="preserve" xmlns:serif="http://www.serif.com/" style="fill-rule:evenodd;clip-rule:evenodd;stroke-linejoin:round;stroke-miterlimit:2;"><g id="Playera"><path d="M584.975,1418c0.037,-0.133 -7.815,11.942 -11.337,16.172c-8.725,10.479 -16.091,25.722 -17.2,39.404c-3.669,45.252 -9.148,89.994 -11.725,135.436c-6.379,112.506 -1.228,195.409 36.745,298.648c6.184,16.814 17.548,61.643 -8.993,64.025c-25.006,2.246 -42.781,-12.315 -64.484,-21.104c-15.679,-6.349 -43.471,-5.659 -56.29,-17.236c-16.155,-14.59 -19.053,-57.377 -26.579,-77.043c-41.317,-107.961 -22.103,-252.083 37.131,-350.719c16.465,-27.417 41.111,-54.791 73.876,-60.859c21.752,-4.028 30.006,29.526 36.745,21.467" style="fill:#fff;"/><path d="M555.89,1434.54c-6.376,-3.523 -13.756,-5.209 -22.307,-3.501c-15.235,3.035 -28.967,9.875 -41.073,19.245c-16.858,13.046 -30.641,30.87 -41.1,48.802c-29.771,50.943 -49.185,113.362 -55.801,176.872c-6.625,63.601 -0.508,128.275 21.185,183.536c5.14,13.204 8.224,36.948 14.671,55.394c3.636,10.401 8.389,19.251 14.539,24.763c4.928,4.437 11.594,7.532 19.112,9.734c13.12,3.841 29.184,4.8 39.686,9.056c13.202,5.379 24.969,12.85 37.76,17.467c9.454,3.412 19.42,5.367 30.676,4.389c12.922,-1.089 19.958,-8.839 23.078,-19.851c4.766,-16.817 -1.846,-43.379 -6.372,-55.898c-18.428,-51.431 -28.737,-97.687 -33.373,-145.131c-4.571,-46.773 -3.597,-94.668 0.146,-149.715c0.923,-13.483 2.101,-26.897 3.423,-40.282c2.882,-29.194 6.417,-58.228 9.283,-87.464c1.28,0.084 2.539,0.021 3.768,-0.15c3.62,-0.506 7.38,-2.212 10.861,-6.251c5.163,-6.174 4.342,-15.379 -1.833,-20.542c-1.274,-1.065 -2.676,-1.876 -4.148,-2.433c1.99,-3.37 4.231,-6.502 6.571,-9.237c2.982,-3.486 8.817,-11.94 11.346,-15.626l0.436,-0.672c1.18,-1.491 2.085,-3.239 2.618,-5.189c0.119,-0.459 -17.271,-25.758 -27.283,-10.28c-2.042,3.157 -6.695,10.444 -9.125,13.443c-2.355,2.907 -4.632,6.11 -6.744,9.521Zm-11.316,26.527c-0.27,-0.244 -0.547,-0.48 -0.832,-0.708c-1.41,-1.13 -2.971,-2.292 -5.087,-1.931c-13.976,2.395 -26.239,9.436 -36.832,18.698c-11.437,10 -21.021,22.473 -28.747,34.972c-29.337,47.556 -49.176,106.239 -56.674,166.242c-7.536,60.312 -2.69,121.915 17.027,174.788c5.045,13.413 7.911,37.459 14.256,56.176c2.491,7.351 5.39,13.838 9.693,17.753c3.187,2.887 7.627,4.666 12.501,6.1c13.653,4.016 30.345,5.159 41.281,9.583c13.001,5.232 24.576,12.579 37.172,17.054c7.211,2.561 14.796,4.092 23.361,3.298c6.609,-0.63 8.161,-6.482 8.624,-12.913c0.971,-13.496 -4.063,-30.615 -7.345,-39.389c-19.905,-52.743 -31.173,-100.311 -36.918,-149.165c-5.621,-47.798 -5.908,-96.839 -3.344,-153.284c0.617,-13.741 1.509,-27.418 2.516,-41.069c2.334,-31.625 5.362,-63.088 7.519,-94.797c0.252,-3.732 0.883,-7.564 1.829,-11.408Z"/><path d="M349.06,1295.48c-9.805,3.293 22.501,-23.406 27.751,-27.087c22.907,-16.058 53.418,-34.679 79.739,-43.622c26.091,-8.865 47.45,-27.797 76.608,-30.254c55.402,-4.669 115.328,43.012 141.093,89.71c6.64,12.036 -29.02,28.553 -34.787,34.472c-11.868,12.182 -24.006,24.143 -36.18,36.087c-28.205,27.675 -125.313,264.932 -152.19,252.257" style="fill:#fff;"/><path d="M361.627,1302.86c6.633,-1.094 19.865,-20.966 23.026,-23.286c10.936,-8.023 23.663,-16.74 36.868,-24.56c12.98,-7.687 26.366,-14.571 38.826,-19.073c18.452,-6.665 34.434,-18.313 52.568,-25.657c6.616,-2.679 13.544,-4.754 21.108,-5.513c25.691,-2.526 52.582,7.312 76.045,23.08c23.512,15.801 43.604,37.551 56.034,59.204c-2.813,0.025 -4.596,6.202 -8.541,9.123c-9.469,7.012 -21.064,13.326 -24.226,16.545l-36.39,35.598c-4.593,4.405 -10.951,13.756 -18.487,26.496c-26.827,45.353 -70.595,136.8 -103.241,188.045c-6.796,10.667 -13.097,19.443 -18.571,25.476c-1.787,1.97 -4.739,2.952 -5.633,4.116c-5.436,0.035 -10.637,3.122 -13.109,8.363c-3.433,7.28 -0.31,15.978 6.97,19.411c5.279,2.339 11.398,2.831 18.128,-0.529c5.888,-2.94 13.644,-10.234 21.704,-21.733c38.165,-54.451 102.621,-214.046 124.917,-236.724l35.97,-36.577c4.429,-4.57 25.951,-15.525 33.625,-25.79c4.808,-6.431 5.643,-12.931 2.459,-18.75c-13.246,-24.398 -35.398,-49.017 -61.329,-67.234c-26.952,-18.933 -58.05,-30.747 -88.054,-28.638c-9.64,0.656 -18.533,2.96 -27.058,6.068c-18.04,6.578 -34.137,17.425 -52.483,23.269c-11.312,3.603 -23.361,8.89 -35.349,14.959c-17.194,8.705 -34.201,19.117 -48.434,28.653c-4.523,3.026 -26.749,20.79 -32.141,27.366c-9.872,12.041 -0.625,21.605 3.978,24.08c2.003,1.078 6.217,2.73 12.896,0.651c3.468,-1.165 6.209,-3.509 7.924,-6.439Zm-14.438,-21.848c-0.853,0.079 -1.776,0.279 -2.773,0.639c0.918,-0.309 1.846,-0.521 2.773,-0.639Z"/><path d="M497.673,1928c-1.632,-0 23.206,-9.112 29.753,-10.581c23.721,-5.323 57.774,1.814 57.774,-28.342c-0,-19.354 -19.963,-39.803 -21.794,-59.774c-2.332,-25.435 6.696,-53.654 2.076,-78.155c-10.27,-54.458 -7.824,-235.223 -2.681,-291.313c2.964,-32.325 -94.451,162.054 -99.728,208.483c-5.767,50.736 -23.945,102.486 -12.454,154.127c6.242,28.048 13.518,56.902 21.098,84.382c1.724,6.248 6.029,22.114 13.845,22.114" style="fill:#aeebf9;"/><path d="M492.201,1936.96c1.292,0.787 3.061,1.422 5.472,1.451c2.139,0 4.128,-0.646 5.783,-1.755l0.803,-0.349c6.021,-2.504 20.671,-7.984 25.366,-9.095c9.013,-2.134 19.6,-2.378 29.105,-3.715c9.006,-1.267 17.173,-3.498 23.238,-7.801c7.435,-5.275 12.582,-13.277 12.425,-26.624c-0.057,-5.113 -1.149,-10.293 -3,-15.492c-2.843,-7.982 -7.475,-16.093 -11.713,-24.205c-3.643,-6.973 -7.082,-13.896 -7.793,-20.854c-2.034,-19.907 3.043,-41.611 2.795,-61.79c-0.071,-5.808 -0.534,-11.501 -1.633,-17.015c-4.435,-22.509 -6.9,-66.922 -7.768,-115.033c-1.214,-67.316 0.67,-141.802 3.514,-174.303c0.363,-3.941 -0.665,-6.307 -1.53,-7.456c-1.969,-2.614 -4.798,-3.827 -8.718,-1.949c-1.269,0.608 -3.102,2.028 -5.155,4.471c-4.637,5.517 -12.155,17.822 -21.051,33.977c-29.057,52.768 -72.932,147.315 -76.638,178.053c-4.425,35.685 -14.914,71.81 -17.073,108.13c-0.965,16.237 -0.284,32.505 3.15,48.801c2.973,14.113 6.211,28.425 9.604,42.675c3.406,14.3 6.974,28.531 10.625,42.418c1.306,4.973 4.173,14.951 8.524,21.143c3.987,5.673 9.348,8.637 15.029,8.71c2.522,-0 4.836,-0.898 6.639,-2.393Zm12.354,-16.779c-1.276,-1.227 -3.378,-2.645 -6.882,-2.603c2.637,0 5.047,0.983 6.882,2.603Zm51.131,-446.897c-15.822,25.494 -43.769,82.109 -63.449,129.708c-11.663,28.209 -20.427,53.161 -21.795,66.159c-3.152,30.451 -10.787,61.305 -13.76,92.245c-1.893,19.694 -1.831,39.419 2.777,59.077c3.255,13.883 6.764,27.961 10.448,41.969c3.698,14.066 7.576,28.053 11.519,41.702c1.005,3.475 9.242,10.911 6.724,14.701c0.965,0.247 1.876,0.629 2.711,1.126c0.482,-0.401 1.04,-0.789 1.686,-1.153c0.563,-0.318 1.954,-0.987 3.97,-1.77c6.818,-2.646 23.418,-8.31 28.711,-9.433c13.327,-2.826 29.955,-1.431 41.732,-5.465c5.319,-1.821 8.956,-5.445 9.046,-13.078c0.072,-6.652 -2.9,-13.419 -6.256,-20.325c-3.86,-7.946 -8.352,-15.974 -11.31,-23.954c-1.826,-4.925 -3.119,-9.839 -3.515,-14.717c-1.661,-20.458 3.853,-42.617 4.029,-63.316c0.041,-4.835 -0.22,-9.582 -1.04,-14.19c-4.158,-23.086 -5.845,-68.528 -6.125,-117.727c-0.339,-59.43 1.36,-124.38 3.897,-161.559Z"/><path d="M338.463,1254.13c-0.449,-0.602 -8.448,6.849 -9.759,8.111c-10.428,10.037 -21.81,18.927 -31.677,29.588c-24.093,26.033 -53.265,46.867 -79.567,70.532c-18.421,16.575 -35.128,37.609 -49.695,57.561c-6.489,8.887 -13.81,16.864 -20.869,25.265c-5.59,6.652 -10.822,13.577 -16.514,20.136c-5.02,5.784 -9.35,11.883 -13.961,17.967c-11.94,15.756 -33.473,42.831 -27.322,65.128c2.146,7.783 21.356,14.381 27.772,17.703c28.857,14.939 65.104,41.628 48.34,77.422c-15.619,33.35 -41.257,62.776 -58.099,95.797c-20.567,40.325 -33.189,84.051 -54.649,124.035c-10.072,18.765 -16.323,38.525 -17.865,59.589c-0.331,4.517 -2.594,13.693 -0.297,17.838c2.292,4.135 8.026,6.755 12.01,8.914c10.608,5.747 25.11,5.553 36.631,7.433c24.347,3.972 48.505,7.633 73.114,9.865c80.558,7.309 159.717,12.16 240.506,12.16c28.582,-0 54.785,-2.437 82.422,-9.323c5.959,-1.485 22.981,-6.55 24.922,-13.65c1.495,-5.463 -4.902,-10.38 -6.156,-15.265c-3.236,-12.612 -2.217,-28.413 -1.648,-41.348c1.461,-33.201 0.459,-66.807 2.549,-99.985c1.265,-20.091 4.058,-39.567 4.058,-59.859c-0,-30.567 -6.149,-63.223 -2.252,-93.634c2.464,-19.231 12.164,-37.092 15.91,-55.94c6.065,-30.507 5.383,-65.491 23.72,-92.557c5.965,-8.805 11.492,-18.697 18.771,-26.482c5.574,-5.962 13.222,-9.505 18.765,-15.674c12.509,-13.921 29.385,-41.097 24.923,-61.075c-1.087,-4.864 -14.905,1.591 -16.965,2.433c-8.962,3.662 -47.548,44.012 -76.304,85.105c-20.943,29.926 -33.731,63.99 -40.493,66.202c-1.734,0.567 10.788,-44.109 20.417,-92.034c10.464,-52.076 18.065,-107.988 14.806,-113.858c-11.141,-20.06 -13.929,-43.318 -34.03,-56.887c-11.826,-7.984 -28.014,-7.594 -41.134,-12.702c-20.798,-8.099 -37.339,-15.385 -60.504,-16.078c-3.004,-0.09 -16.923,-2.967 -19.067,-1.082c-1.257,1.104 -1.015,8.485 -1.351,10.405" style="fill:#aeebf9;"/><path d="M488.626,1499.34c3.035,-12.758 6.286,-26.981 9.274,-41.504c5.854,-28.45 10.859,-58.043 13.699,-80.119c1.948,-15.134 2.832,-26.909 2.447,-32.776c-0.232,-3.535 -1.086,-5.947 -1.816,-7.277c-7.889,-14.362 -11.657,-30.274 -20.219,-43.306c-4.234,-6.444 -9.52,-12.244 -16.596,-17.069c-4.386,-2.993 -9.255,-5.075 -14.379,-6.655c-9.342,-2.881 -19.703,-3.742 -28.587,-7.254c-13.016,-5.145 -24.426,-9.932 -36.726,-13.119c-8.387,-2.173 -17.174,-3.607 -27.077,-3.954c-2.733,-0.096 -13.826,-2.174 -18.655,-1.684c-2.09,0.212 -3.804,0.783 -5.16,1.476c-2.76,-1.974 -7.869,-3.999 -13.533,0.09c-2.646,1.91 -8.601,7.453 -9.774,8.593c-7.233,7.03 -14.936,13.499 -22.257,20.407c-3.326,3.138 -6.578,6.36 -9.685,9.75c-6.982,7.618 -14.41,14.782 -22.074,21.704c-18.418,16.633 -38.159,31.906 -56.49,48.56c-7.626,6.929 -14.971,14.593 -21.992,22.636c-10.3,11.8 -19.915,24.407 -28.743,36.621c-2.459,3.403 -5.045,6.667 -7.692,9.874c-4.158,5.038 -8.46,9.941 -12.667,14.996l-16.335,20.098l-14.259,18.489c-7.4,9.852 -18.268,23.958 -24.543,38.648c-4.897,11.466 -7.003,23.303 -3.965,34.137c1.162,4.142 4.801,8.539 10.244,12.12c7.092,4.666 17.461,8.51 21.924,10.797c15.853,8.121 34.333,19.796 43.37,35.077c5.413,9.152 7.053,19.678 1.6,31.451c-3.021,6.523 -6.437,12.893 -10.1,19.169c-15.051,25.786 -34.073,50.056 -47.474,76.594c-16.4,32.44 -27.701,67.039 -42.518,100.17c-3.62,8.092 -7.451,16.096 -11.633,23.954c-5.212,9.785 -9.431,19.827 -12.545,30.162c-3.146,10.443 -5.173,21.184 -5.952,32.267c-0.224,3.185 -1.328,8.599 -1.296,13.099c0.024,3.368 0.671,6.368 1.888,8.55c1.101,1.971 2.659,3.759 4.536,5.329c3.072,2.57 7.096,4.561 10.214,6.239c3.754,2.019 7.913,3.431 12.277,4.433c8.738,2.008 18.354,2.316 26.511,3.623c14.691,2.353 29.313,4.591 44.005,6.479c9.821,1.262 19.673,2.37 29.598,3.246c40.349,3.579 80.348,6.529 120.372,8.595c40.086,2.07 80.199,3.254 120.719,3.205c14.496,-0.012 28.389,-0.642 42.161,-2.141c13.865,-1.509 27.608,-3.898 41.717,-7.425c4.367,-1.087 14.157,-3.99 20.774,-8.089c4.481,-2.776 7.544,-6.29 8.509,-9.813c0.83,-3.027 0.447,-5.975 -0.742,-8.844c-1.373,-3.314 -4.579,-6.385 -5.38,-9.513c-1.204,-4.703 -1.746,-9.888 -1.954,-15.182c-0.326,-8.293 0.177,-16.845 0.514,-24.398c1.059,-23.274 0.91,-46.748 1.462,-70.134c0.234,-9.933 0.598,-19.85 1.237,-29.727c0.923,-14.09 2.597,-27.875 3.532,-41.854c0.407,-6.083 0.674,-12.202 0.69,-18.396c0.054,-21.368 -2.883,-43.763 -3.315,-65.695c-0.181,-9.155 0.086,-18.228 1.246,-27.099c0.707,-5.414 2.04,-10.707 3.637,-15.947c4.033,-13.223 9.66,-26.123 12.362,-39.512c3.688,-18.226 4.951,-38.068 9.347,-56.835c2.743,-11.707 6.737,-22.988 13.61,-33.058c3.573,-5.236 6.99,-10.861 10.719,-16.189c2.31,-3.302 4.743,-6.485 7.441,-9.35c4.302,-4.571 9.922,-7.589 14.715,-11.668c1.477,-1.257 2.89,-2.597 4.209,-4.055c7.932,-8.766 17.487,-22.505 23.008,-36.664c4.137,-10.608 5.931,-21.474 3.857,-30.937c-1.006,-4.591 -4.37,-7.495 -10.005,-7.711c-5.415,-0.208 -15.347,3.973 -17.218,4.729c-5.106,2.062 -19.502,14.799 -36.23,33.187c-14.027,15.42 -30.022,34.794 -43.818,54.34c-4.712,6.675 -9.026,13.555 -12.969,20.254l-1.052,1.805Zm-129.913,-233.405c-0.259,0.777 -0.475,1.412 -0.532,1.751c-0.994,5.663 -6.397,9.454 -12.06,8.461c-4.151,-0.729 -7.297,-3.827 -8.286,-7.66c-0.95,0.55 -1.707,0.983 -1.951,1.215c-7.375,7.031 -15.215,13.496 -22.678,20.403c-2.996,2.772 -5.931,5.616 -8.734,8.616c-7.488,8.013 -15.438,15.547 -23.644,22.815c-18.567,16.446 -38.446,31.519 -56.926,47.986c-8.935,7.961 -17.458,17.003 -25.521,26.453c-8.201,9.614 -15.931,19.643 -23.135,29.41c-2.728,3.698 -5.589,7.247 -8.521,10.73c-4.223,5.017 -8.587,9.897 -12.858,14.931l-16.693,20.173l-13.662,17.446c-6.796,8.889 -16.922,21.52 -22.734,34.812c-3.284,7.51 -5.31,15.2 -3.481,22.353c0.291,0.308 1.36,1.42 2.173,2.021c1.748,1.295 3.855,2.507 6.035,3.638c5.804,3.012 12.084,5.481 15.247,7.136c18.381,9.615 39.354,23.916 49.727,41.802c7.886,13.597 10.193,29.178 1.983,46.513c-3.29,6.947 -6.997,13.73 -10.97,20.409c-15.112,25.404 -34.175,49.257 -47.653,75.423c-16.519,32.104 -27.96,66.402 -42.912,99.204c-3.811,8.362 -7.845,16.629 -12.237,24.742c-4.829,8.929 -8.759,18.094 -11.667,27.539c-2.908,9.447 -4.801,19.171 -5.566,29.211c-0.173,2.276 -0.825,5.714 -1.164,9.118c-0.187,1.876 -0.657,3.754 -0.022,4.907c0.642,1.167 1.882,2.002 3.13,2.817c2.05,1.338 4.3,2.439 6.141,3.443c3.653,1.993 7.863,3.114 12.216,3.906c7.505,1.367 15.412,1.767 22.259,2.904c14.541,2.416 29.014,4.723 43.56,6.672c9.642,1.292 19.317,2.426 29.064,3.335c40.176,3.725 80.004,6.854 119.864,9.04c39.863,2.186 79.756,3.43 120.057,3.479c14.047,0.01 27.512,-0.574 40.86,-2.006c13.328,-1.431 26.541,-3.705 40.107,-7.074c2.748,-0.685 8.031,-2.182 12.873,-4.333c2.337,-1.038 4.576,-2.214 6.254,-3.566c0.63,-0.508 1.271,-0.905 1.433,-1.499c0.367,-1.344 -0.913,-2.391 -1.708,-3.627c-1.297,-2.013 -2.675,-4.01 -3.564,-5.974c-0.388,-0.857 -0.698,-1.716 -0.918,-2.571c-1.411,-5.485 -2.093,-11.527 -2.343,-17.703c-0.35,-8.637 0.145,-17.545 0.487,-25.414c0.986,-23.188 0.768,-46.573 1.243,-69.872c0.206,-10.102 0.54,-20.189 1.155,-30.237c0.853,-14.099 2.457,-27.896 3.321,-41.884c0.36,-5.815 0.588,-11.664 0.574,-17.584c-0.054,-21.279 -3.102,-43.565 -3.643,-65.404c-0.243,-9.819 0.012,-19.549 1.208,-29.07c0.772,-6.144 2.231,-12.161 4.01,-18.113c3.834,-12.825 9.272,-25.328 11.812,-38.308c3.59,-18.39 4.747,-38.387 9.048,-57.327c3.047,-13.42 7.647,-26.314 15.434,-37.894c3.568,-5.306 6.979,-11.001 10.703,-16.402c2.686,-3.894 5.535,-7.637 8.679,-11.023c1.321,-1.423 2.741,-2.732 4.221,-3.973c4.704,-3.943 10.21,-6.973 14.386,-11.652c6.899,-7.733 15.229,-19.814 19.975,-32.262c2.186,-5.735 3.649,-11.54 3.599,-16.951c-2.898,0.969 -6.588,2.217 -7.301,2.512c-4.39,1.815 -16.098,13.555 -30.399,29.533c-13.511,15.096 -28.907,34.046 -42.161,53.15c-16.245,23.43 -27.483,49.372 -34.833,60.609c-3.51,5.367 -7.151,8.134 -9.668,8.97c-3.509,1.166 -6.397,0.272 -8.786,-2.186c-0.739,-0.76 -2.752,-3.04 -2.383,-7.431c0.128,-1.526 0.744,-4.802 1.788,-9.474c3.443,-15.415 11.714,-48.223 18.477,-82.708c3.758,-19.162 7.122,-38.843 9.705,-56.327c2.744,-18.573 4.603,-34.631 5.077,-44.835c0.138,-2.974 0.002,-6.247 -0.055,-7.384c-6.414,-11.765 -10.135,-24.556 -16.246,-35.794c-3.452,-6.351 -7.777,-12.147 -14.443,-16.602c-2.794,-1.866 -5.923,-3.071 -9.175,-4.037c-9.862,-2.932 -20.742,-3.859 -30.128,-7.459c-12.238,-4.693 -22.947,-9.133 -34.496,-11.999c-7.042,-1.748 -14.412,-2.878 -22.708,-3.083c-1.218,-0.03 -5.51,-0.472 -9.32,-0.886Zm-21.115,-1.427c-2.868,-0.238 -5.623,-1.658 -7.479,-4.142c1.565,2.117 3.907,3.981 7.479,4.143l-0,-0.001Z"/><path d="M136.794,1523.54c-3.971,-0 -12.411,13.466 -14.946,16.579c-18.535,22.752 -24.474,53.894 -32.31,81.306c-15.072,52.726 -35.703,102.3 -41.002,157.917c-3.708,38.911 2.38,77.664 3.47,116.324c0.46,16.303 -8.392,81.924 15.988,91.31c10.105,3.89 21.102,3.312 31.623,4.062c77.736,5.539 62.894,-49.735 71.571,-112.263c7.522,-54.207 17.109,-111.37 34.394,-163.225c14.17,-42.507 37.784,-78.336 53.51,-119.461c3.199,-8.368 18.964,-39.713 10.078,-39.713" style="fill:#fff;"/><path d="M256.536,1563.65c-0.458,1.831 -1.057,4.028 -1.667,5.746c-3.037,8.554 -7.22,17.771 -8.665,21.763c-10.473,28.798 -24.857,55.05 -37.108,82.812c-5.405,12.251 -10.428,24.769 -14.567,37.893c-6.755,21.285 -12.234,43.414 -16.841,65.861c-6.804,33.156 -11.715,66.984 -15.846,99.751c-4.667,35.887 -0.562,69.363 -12.98,89.426c-7.481,12.085 -21.796,17.551 -48.646,15.718c-6.19,-0.458 -12.55,-0.435 -18.785,-1.185c-3.528,-0.424 -7.014,-1.111 -10.374,-2.415c-2.738,-1.063 -4.516,-3.559 -5.994,-6.599c-2.573,-5.292 -3.917,-12.198 -4.68,-19.616c-2.254,-21.909 0.893,-47.974 0.693,-57.397c-0.487,-27.063 -3.458,-54.192 -3.733,-81.368c-0.113,-11.235 0.272,-22.474 1.486,-33.719c2.348,-21.498 7.072,-42.022 12.857,-62.171c8.987,-31.297 20.537,-61.671 30.073,-93.233c4.851,-15.948 9.034,-33.212 15.597,-49.201c3.95,-9.625 8.842,-18.736 15.499,-26.632c1.687,-2 13.107,-8.636 10.431,-12.49c4.795,-2.388 8.091,-7.34 8.091,-13.056c0,-8.049 -6.534,-14.584 -14.583,-14.584c-3.536,0.061 -8.966,1.553 -13.862,6.427c-4.469,4.45 -10.074,13.204 -12.092,15.769c-8.175,10.389 -14.181,22.179 -18.82,34.663c-6.315,16.998 -10.18,35.224 -14.703,52.117c-8.608,31.912 -19.225,62.706 -27.328,94.326c-5.502,21.476 -9.892,43.309 -11.747,66.104c-0.997,12.059 -1.094,24.09 -0.7,36.105c0.892,27.222 4.354,54.347 5.394,81.455c0.393,11.194 -3.166,45.164 1.866,69.123c3.105,14.783 9.788,25.936 20.13,29.885c4.712,1.799 9.579,2.802 14.517,3.368c6.498,0.746 13.119,0.713 19.568,1.155c35.998,2.674 54.241,-7.291 64.461,-23.384c13.65,-21.491 11.358,-57.368 17.056,-95.997c4.87,-32.141 10.457,-65.324 18.03,-97.767c5.028,-21.536 10.962,-42.725 18.072,-63.07c4.268,-12.142 9.356,-23.686 14.783,-34.972c13.421,-27.906 28.913,-54.226 40.56,-83.246c1.866,-4.628 7.64,-16.178 11.063,-25.74c2.535,-7.081 3.541,-13.566 3.182,-17.586c-0.494,-5.539 -3.091,-9.331 -6.074,-11.932c-2.747,-2.396 -6.329,-3.878 -10.98,-3.966c-8.048,-0 -14.583,6.534 -14.583,14.583c0,2.65 0.708,5.135 1.949,7.276Zm10.791,7.187c0.583,0.09 1.197,0.132 1.843,0.12c-0.624,0 -1.24,-0.039 -1.843,-0.12Z"/><path d="M295.557,1299.22c-1.31,-4.747 -35.997,23.663 -39.012,26.741c-35.545,36.278 -66.116,76.069 -96.653,116.432c-28.489,37.657 -62.21,75.857 -85.235,117.24c-45.885,82.467 -64.24,169.261 -64.24,263.105c-0,33.102 3.859,68.534 9.606,101.302c1.036,5.904 4.135,26.194 10.211,28.904c17.636,7.869 51.924,-6.768 69.929,-9.996c10.627,-1.906 64.466,-0.609 70.84,-6.21c16.266,-14.295 7.098,-59.449 10.201,-78.878c10.356,-64.843 32.734,-131.015 57.928,-191.532c9.179,-22.047 28.381,-38.391 37.824,-59.692c9.52,-21.475 11.527,-46.355 21.608,-68.073c1.278,-2.754 22.401,-36.932 21.608,-37.286c-2.301,-1.026 -9.16,4.024 -11.407,4.864" style="fill:#aeebf9;"/><path d="M304.769,1496.52c-5.154,2.135 -7.73,7.996 -5.762,13.263c0.572,1.528 1.464,2.843 2.574,3.897c-5.462,9.366 -11.329,19.272 -11.982,20.716c-2.127,4.699 -3.919,9.525 -5.486,14.433c-5.732,17.955 -8.262,37.065 -15.617,54.052c-7.255,16.753 -20.757,30.383 -30.324,46.293c-2.661,4.427 -5.061,9.004 -7.02,13.827c-12.443,30.581 -24.152,62.58 -34.021,95.103c-9.905,32.644 -17.967,65.81 -22.973,98.626c-2.01,13.124 1.593,37.871 -0.743,57.089c-0.893,7.349 -2.459,13.851 -6.529,17.678c-0.442,0.148 -1.983,0.648 -3.165,0.886c-3.619,0.73 -8.549,1.247 -14.066,1.649c-18.699,1.363 -43.691,1.43 -50.605,2.703c-12.108,2.216 -31.61,9.693 -48.397,11.852c-6.694,0.861 -12.895,0.947 -17.684,-1.079c-0.204,-0.275 -0.9,-1.243 -1.262,-1.971c-1.07,-2.154 -1.952,-4.9 -2.707,-7.718c-1.568,-5.854 -2.541,-12.021 -3.036,-14.826c-2.831,-16.216 -5.201,-33.089 -6.85,-50.005c-1.649,-16.917 -2.576,-33.876 -2.553,-50.255c0.195,-46.412 4.873,-91.07 15.308,-134.278c10.398,-43.056 26.528,-84.652 49.388,-125.155c9.206,-16.255 20.111,-31.986 31.688,-47.381c17.554,-23.344 36.652,-45.904 53.871,-68.293c18.444,-23.962 36.891,-47.721 56.423,-70.624c12.901,-15.128 26.282,-29.87 40.437,-44.059c2.173,-2.179 21.932,-18.171 31.373,-23.325c1.078,0.056 2.182,-0.059 3.278,-0.362c5.542,-1.529 8.8,-7.269 7.271,-12.811c-0.801,-2.806 -2.361,-4.858 -4.529,-6.277c-2.104,-1.377 -7.662,-3.136 -14.614,0.531c-10.365,5.467 -34.479,25.608 -37.041,28.27c-14.249,14.806 -27.69,30.17 -40.647,45.907c-19.325,23.472 -37.574,47.763 -55.798,72.274c-16.891,22.699 -35.65,45.608 -52.872,69.262c-11.735,16.119 -22.767,32.575 -32.041,49.543c-23.017,41.969 -39.019,84.993 -49.264,129.413c-10.21,44.269 -14.719,89.929 -14.52,137.365c0.024,16.77 1.031,34.13 2.758,51.446c1.717,17.218 4.144,34.394 7.053,50.898c0.715,4.104 2.412,14.801 5.295,22.422c2.115,5.593 5.287,9.593 8.384,10.979c6.562,2.95 15.115,3.399 24.415,2.263c17.01,-2.077 36.824,-9.435 49.099,-11.59c7.699,-1.343 38.214,-0.845 56.615,-2.648c8.804,-0.863 15.279,-2.852 17.496,-4.781c6.426,-5.586 9.973,-15.008 11.466,-26.19c2.539,-19.013 -0.761,-43.575 1.396,-56.551c5.349,-32.051 13.671,-64.409 23.847,-96.213c10.201,-31.885 22.277,-63.202 35.016,-93.122c1.686,-3.954 3.747,-7.691 6.007,-11.308c10.28,-16.448 24.417,-30.587 32.297,-47.956c7.893,-17.398 10.964,-37.036 17.215,-55.455c1.411,-4.157 3.011,-8.24 4.899,-12.207c1.019,-2.144 14.637,-23.726 19.712,-32.588c1.249,-2.18 2.07,-3.823 2.397,-4.617c3.561,-8.627 -3.622,-12.888 -5.272,-13.644c-1.842,-0.843 -4.184,-1.271 -6.934,-0.893c-2.051,0.281 -4.828,1.311 -7.576,2.744c-1.91,0.996 -5.659,1.577 -5.088,2.798Zm-18.351,-192.308c-0.38,-0.69 -0.684,-1.435 -0.903,-2.227c0.218,0.819 0.523,1.559 0.903,2.227Z"/><path d="M475.347,1320.56c-15.348,11.962 -34.818,20.376 -49.222,33.229c-1.453,1.297 27.757,87.193 18.181,95.873c-22.151,20.081 -45.267,5.393 -51.107,36.186c-2.235,11.781 21.646,31.45 25.337,42.802c9.218,28.341 7.217,67.395 10.29,96.895c0.78,7.486 -8.419,83.447 0.185,83.99c2.204,0.139 24.866,-47.305 31.03,-62.113c15.913,-38.222 41.657,-68.694 56.128,-107.781c5.524,-14.92 21.127,-26.05 28.514,-39.439c1.748,-3.169 -16.571,-10.412 -16.206,-11.074c6.126,-11.103 114.904,-64.733 108.067,-70.092c-6.345,-4.974 -39.078,-31.021 -44.44,-35.805c-5.407,-4.825 -18.764,16.271 -20.708,19.186c-18.378,27.568 -42.301,50.441 -61.232,76.984c-10.185,14.279 -20.423,29.272 -32.116,42.409c-3.691,4.147 -7.319,7.864 -9.606,12.967c-1.076,2.399 -2.998,9.925 -2.998,7.295c-0,-17.385 15.901,-40.073 18.313,-58.893c3.371,-26.308 3.877,-53.771 6.302,-80.224c1.967,-21.453 11.192,-39.999 9.301,-62.402c-0.908,-10.751 -8.969,-20.065 -8.969,-29.734" style="fill:#fff;"/><path d="M479.987,1311.23c-3.475,-1.724 -7.781,-1.431 -11.043,1.112c-10.397,8.257 -22.785,14.817 -34.064,22.354c-5.432,3.629 -10.634,7.458 -15.328,11.725c-0.863,0.784 -4.216,3.903 -3.12,9.995c0.293,1.633 1.183,5.015 2.51,9.591c4.56,15.72 14.532,47.557 17.475,67.59c0.645,4.387 -1.581,9.78 0.206,10.844c-8.246,6.822 -16.685,8.258 -23.842,10.208c-6,1.635 -11.353,3.567 -15.817,7.084c-5.434,4.281 -9.936,10.787 -12.066,22.539c-0.803,4.425 0.258,9.659 3.179,15.128c3.522,6.597 9.845,13.994 15.336,20.782c3.333,4.122 6.438,7.842 7.477,10.952c2.756,8.248 4.503,17.468 5.699,27.093c2.831,22.782 2.69,47.719 4.957,68.074c0.67,6.07 -4.927,57.228 -2.49,76.621c0.577,4.593 1.768,7.904 3.035,9.66c1.822,2.527 4.113,3.598 6.492,3.735c1.187,0.068 3.715,-0.019 6.048,-2.665c0.852,-0.967 2.351,-3.239 4.161,-6.513c7.31,-13.229 22.356,-45.447 27.197,-57.243c12.608,-30.571 31.531,-56.195 45.92,-85.24c3.656,-7.38 7.039,-14.969 9.965,-22.905c1.463,-3.972 3.768,-7.623 6.411,-11.133c7.098,-9.429 16.401,-17.933 21.67,-27.509c1.29,-2.333 1.452,-5.324 -1.043,-8.383c-1.65,-2.024 -6.173,-4.693 -10.268,-6.896c2.963,-2.024 7.041,-4.492 11.75,-7.372c23.758,-14.532 63.376,-35.485 81.091,-47.374c4.62,-3.101 7.894,-5.76 9.466,-7.601c4.437,-5.194 2.399,-9.351 -0.398,-11.564c0,-0 -43.924,-35.76 -43.924,-35.76c-3.51,-3.172 -8.505,-3.505 -13.904,0.169c-6.778,4.614 -15.536,17.832 -17.144,20.21c-5.413,8.006 -11.309,15.596 -17.411,22.996c-14.782,17.925 -30.739,34.755 -44.247,53.414c-4.471,6.169 -8.953,12.473 -13.563,18.697c0.974,-3.189 1.724,-6.317 2.14,-9.348c1.105,-8.06 1.943,-16.228 2.653,-24.445c1.613,-18.677 2.534,-37.602 4.387,-56.029c1.51,-14.959 6.622,-28.443 8.892,-42.883c1.074,-6.827 1.556,-13.841 1.004,-21.24c-0.21,-2.803 -0.784,-5.537 -1.569,-8.218c-1.273,-4.346 -3.213,-8.528 -4.894,-12.635c-1.11,-2.712 -2.192,-5.333 -2.165,-8.03c0,-5.749 -4.667,-10.417 -10.417,-10.417c-5.749,-0 -10.416,4.668 -10.416,10.417l0.012,0.413Zm3.894,15.304c-0.58,0.829 -1.291,1.586 -2.13,2.24c-10.991,8.405 -23.978,15.074 -35.873,22.712c-3.072,1.972 -6.068,4.009 -8.908,6.186l0.065,0.259c3.271,12.441 11.239,39.514 15.429,60.887c2.093,10.674 3.211,20.063 2.698,26.04c-0.484,5.638 -2.532,9.421 -4.82,11.461c-9.833,8.77 -19.697,11.855 -28.629,14.087c-5.387,1.346 -10.365,2.016 -14.202,4.94c-2.903,2.212 -4.787,5.893 -6.011,12.075c-0.155,0.781 0.25,1.617 0.638,2.561c0.692,1.686 1.703,3.455 2.888,5.273c7.024,10.776 18.628,22.912 21.156,30.906c2.921,9.233 4.74,19.522 5.909,30.26c2.493,22.898 2.031,47.91 4.016,68.363c0.507,5.174 -3.964,42.987 -3.929,66.063c7.712,-14.945 18.05,-36.749 21.916,-45.903c12.929,-30.768 32.2,-56.503 46.863,-85.746c3.497,-6.975 6.714,-14.16 9.508,-21.671c1.881,-5.059 4.763,-9.746 8.144,-14.213c5.849,-7.727 13.348,-14.723 18.527,-22.346c-2.931,-1.658 -7.704,-4.334 -9.757,-5.392c-1.414,-0.729 -2.369,-1.379 -2.766,-1.723c-3.408,-2.954 -2.23,-6.189 -1.428,-7.646c1.132,-2.056 4.867,-5.557 10.765,-9.602c20.515,-14.07 69.992,-40.289 90.315,-54.18c1.073,-0.734 2.175,-1.562 3.169,-2.344l-37.536,-29.933c-1.035,0.915 -2.629,2.393 -3.734,3.685c-4.188,4.897 -8.005,11.019 -8.952,12.459c-3.709,5.643 -7.647,11.094 -11.721,16.428c-15.954,20.883 -34.126,39.842 -49.086,61.13c-6.084,8.668 -12.187,17.592 -18.614,26.222c-4.389,5.895 -8.933,11.648 -13.713,17.103c-2.028,2.313 -4.045,4.475 -5.775,6.862c-0.912,1.259 -1.726,2.595 -2.383,4.09c-0.853,1.947 -2.265,6.992 -2.886,8.173c-1.357,2.58 -3.272,3.511 -4.23,3.927c-3.648,1.582 -6.89,0.92 -9.652,-2.353c-0.545,-0.646 -1.949,-2.314 -1.98,-5.804c-0.04,-4.564 0.809,-9.448 2.231,-14.522c4.106,-14.644 13.909,-31.217 15.611,-45.492c0.928,-7.785 1.595,-15.671 2.14,-23.6c1.292,-18.793 1.888,-37.825 3.425,-56.372c1.263,-15.329 6.167,-29.23 8.211,-44.043c0.739,-5.36 1.038,-10.857 0.494,-16.639c-0.368,-3.899 -2.13,-7.481 -3.714,-11.023c-0.576,-1.288 -1.147,-2.569 -1.689,-3.845Z"/><path d="M422.282,1982.42c-0.261,-8.82 0.965,-28.241 1.413,-33.581c1.307,-15.288 2.199,-30.286 2.715,-45.328c0.513,-14.997 0.673,-30.015 0.344,-45.384c-0.365,-24.332 -0.632,-48.846 0.079,-73.381c0.471,-16.27 1.321,-32.549 2.67,-48.767c3.378,-40.607 9.664,-80.826 19.282,-119.974c1.182,-4.672 6.06,-18.136 11.634,-32.974c7.574,-20.163 16.477,-42.745 19.421,-49.891c2.049,-5.371 -0.648,-11.396 -6.019,-13.445c-5.372,-2.05 -11.396,0.648 -13.446,6.019c-2.963,8.413 -12.646,37.567 -19.705,59.995c-3.869,12.294 -6.973,22.605 -7.799,26.664c-6.731,32.184 -10.819,65.016 -13.717,98.076c-2.15,24.538 -3.522,49.202 -4.561,73.852c-1.042,24.684 -1.928,49.334 -2.295,73.826c-0.323,15.068 -1.052,29.776 -2.243,44.44c-1.194,14.696 -2.87,29.319 -4.908,44.211c-0.825,5.959 -3.376,28.339 -3.428,37.171c-0.021,3.537 0.668,5.994 1.096,7.078c1.867,4.735 5.537,5.947 8.159,6.442c2.706,0.511 6.711,0.279 10.311,-4.287c2.391,-3.225 2.64,-7.382 0.997,-10.762Zm-12.004,-5.515c-1.916,0.339 -3.972,1.346 -5.729,3.869c1.47,-1.982 3.512,-3.292 5.729,-3.869Z"/></g><g id="Cara"><path d="M236.348,787.827c3.034,14.154 9.437,36.064 18.587,51.717c9.151,15.654 23.238,29.036 36.315,42.205c13.334,13.427 29.717,24.927 43.688,38.356c14.901,14.324 32.827,30.715 45.716,47.586c12.6,16.493 24.555,34.123 31.618,53.64c7.085,19.579 7.121,42.58 10.894,63.834c3.916,22.062 6.943,46.558 12.604,68.54c5.558,21.582 11.482,49.156 21.362,63.352c8.331,11.97 26.363,12.928 37.92,21.824c15.862,12.209 38.612,42.057 57.251,51.43c16.318,8.206 36.459,2.556 54.585,4.806c30.851,3.83 93.816,18.924 130.524,18.171c30.843,-0.633 66.047,-14.342 89.724,-22.689c18.572,-6.548 36.132,-16.212 52.339,-27.397c16.645,-11.488 32.341,-26.974 47.533,-41.531c17.054,-16.342 39.237,-37.233 54.796,-56.523c14.788,-18.335 28.054,-42.716 38.558,-59.22c8.361,-13.137 20.065,-28.808 24.463,-39.8c3.246,-8.114 3.044,-19.819 1.922,-26.147c-0.852,-4.809 -13.449,-10.898 -8.654,-11.822c5.982,-1.154 29.612,4.483 44.543,4.901c18.853,0.529 45.943,1.535 68.574,-1.73c23.428,-3.381 52.517,-9.935 71.993,-18.554c17.005,-7.527 34.306,-18.424 44.863,-33.164c10.557,-14.74 15.906,-36.021 18.478,-55.279c3.737,-27.974 2.842,-80.909 3.944,-112.568c0.898,-25.796 6.637,-51.883 2.669,-77.387c-4.539,-29.176 -19.233,-65.338 -29.907,-97.671c-15.939,-48.282 -50.214,-149.987 -65.726,-192.02c-7.628,-20.67 -11.784,-44.578 -27.344,-60.177c-21.416,-21.47 -70.924,-51.176 -101.153,-68.64c-25.394,-14.672 -52.304,-27.146 -80.217,-36.146c-32.151,-10.367 -75.573,-21.823 -112.691,-26.053c-36.438,-4.152 -73.488,-2.566 -110.019,0.674c-43.348,3.846 -101.363,8.778 -150.072,22.399c-49.562,13.859 -104.73,37.251 -147.295,60.755c-39.289,21.695 -80.912,56.365 -108.096,80.27c-20.966,18.437 -42.46,44.671 -55.011,63.16c-9.718,14.316 -14.204,31.582 -20.295,47.777c-6.213,16.519 -13.562,33.639 -16.982,51.335c-4.343,22.479 -4.088,55.978 -9.08,83.54c-5.27,29.097 -18.717,70.331 -22.538,91.039c-2.008,10.886 -2.703,22.383 -0.383,33.207Z" style="fill:#fff;"/><path d="M1055.95,1038.92c5.332,0.891 11.238,1.895 16.729,2.496c3.436,0.376 6.73,0.641 9.705,0.718c11.744,0.305 26.646,0.782 41.708,0.326c9.651,-0.292 19.366,-0.966 28.396,-2.288c14.005,-2.051 29.985,-5.214 44.824,-9.256c10.79,-2.94 20.985,-6.348 29.445,-10.113c10.741,-4.78 21.58,-10.844 30.967,-18.258c6.686,-5.281 12.645,-11.243 17.385,-17.89c4.777,-6.701 8.612,-14.605 11.631,-23.087c4.112,-11.553 6.729,-24.19 8.309,-36.098c1.24,-9.342 1.985,-21.399 2.45,-34.534c0.937,-26.518 0.747,-57.531 1.473,-78.875c0.613,-18.05 3.588,-36.245 3.968,-54.281c0.175,-8.272 -0.177,-16.513 -1.457,-24.696c-1.502,-9.69 -4.072,-20.126 -7.251,-30.935c-6.529,-22.203 -15.653,-46.042 -22.921,-68.102c-9.176,-27.94 -24.476,-73.741 -38.703,-115.563c-10.407,-30.595 -20.237,-59.067 -26.756,-76.869c-4.55,-12.43 -7.879,-26.006 -13.105,-38.302c-3.984,-9.375 -9.047,-18.03 -16.156,-25.195c-9.345,-9.417 -23.849,-20.406 -39.875,-31.286c-21.345,-14.493 -45.409,-28.855 -62.997,-39.078c-12.935,-7.534 -26.26,-14.503 -39.907,-20.756c-13.705,-6.279 -27.737,-11.828 -42.028,-16.493c-16.621,-5.425 -36.223,-11.146 -56.433,-16.037c-19.497,-4.718 -39.559,-8.654 -58.086,-10.832c-18.659,-2.194 -37.48,-2.916 -56.316,-2.696c-18.625,0.217 -37.266,1.361 -55.776,2.929c-26.747,2.258 -59.032,4.914 -91.325,9.727c-20.749,3.093 -41.497,7.084 -60.824,12.4c-24.91,6.852 -51.215,16.069 -76.695,26.484c-26.123,10.677 -51.373,22.624 -73.34,34.616c-15.517,8.47 -31.397,18.894 -46.661,29.909c-24.235,17.489 -46.897,36.481 -63.971,51.348c-10.449,9.099 -21.034,20.039 -30.674,31.078c-10.529,12.057 -19.917,24.239 -26.768,34.227c-4.436,6.467 -7.939,13.466 -10.973,20.72c-4.058,9.7 -7.225,19.885 -10.965,29.682c-3.842,10.068 -8.093,20.357 -11.653,30.862c-2.515,7.418 -4.68,14.943 -6.191,22.566c-1.072,5.403 -1.899,11.403 -2.598,17.794c-2.219,20.27 -3.02,44.812 -6.939,65.824c-1.024,5.485 -2.361,11.419 -3.866,17.565c-6.47,26.422 -15.969,56.554 -19.159,73.337c-1.172,6.169 -1.948,12.515 -2.138,18.854c-0.202,6.745 0.294,13.481 1.658,20.022c1.728,7.864 4.436,17.979 8.04,28.214c3.408,9.68 7.603,19.455 12.458,27.665c4.167,7.047 9.201,13.697 14.729,20.059c7.51,8.642 15.924,16.771 23.986,24.808c2.921,2.911 5.972,5.742 9.113,8.516c11.359,10.034 23.946,19.327 35.01,29.856c8.868,8.439 18.822,17.601 28.126,27.169c5.916,6.083 11.575,12.323 16.46,18.651c6.052,7.839 11.965,15.939 17.208,24.413c5.037,8.141 9.474,16.617 12.756,25.547c1.951,5.307 3.306,10.905 4.36,16.655c2.691,14.675 3.588,30.24 6.277,44.957c2.815,15.452 5.2,32.097 8.352,48.238c1.407,7.203 2.96,14.308 4.762,21.176c3.851,14.68 7.906,32.063 13.165,46.338c2.999,8.14 6.418,15.35 10.279,20.845c3.69,5.251 8.576,9.135 14.216,12.178c8.323,4.49 18.852,6.43 26.384,12.174c10.685,8.149 24.523,24.439 38.098,36.797c7.266,6.615 14.513,12.192 21.226,15.53c6.309,3.137 13.036,4.732 20.026,5.376c12.469,1.151 25.891,-1.16 38.37,0.333c21.384,2.557 58.225,10.463 91.023,14.757c15.112,1.979 29.404,3.2 41.12,2.907c12.654,-0.308 25.997,-2.64 39.05,-5.96c19.901,-5.063 39.123,-12.393 53.913,-17.67c9.761,-3.482 19.256,-7.774 28.433,-12.684c9.067,-4.852 17.827,-10.297 26.231,-16.144c7.049,-4.904 13.939,-10.487 20.688,-16.423c9.557,-8.407 18.842,-17.52 27.943,-26.306c10.298,-9.938 22.454,-21.542 33.911,-33.448c7.752,-8.056 15.188,-16.249 21.543,-24.177c5.882,-7.339 11.538,-15.599 16.876,-23.971c8.228,-12.905 15.699,-26.067 22.133,-36.244c5.553,-8.782 12.579,-18.693 17.963,-27.6c3.016,-4.99 5.542,-9.706 7.173,-13.82c1.865,-4.701 2.865,-10.365 3.17,-15.868c0.308,-5.571 -0.063,-10.951 -0.712,-14.808Zm-18.119,3.96c0.354,2.683 0.498,6.17 0.277,9.765c-0.213,3.469 -0.752,7.06 -1.946,10.018c-1.326,3.285 -3.421,7.024 -5.86,11.004c-5.376,8.774 -12.389,18.526 -17.931,27.175c-6.484,10.12 -14.019,23.212 -22.31,36.044c-5.005,7.746 -10.291,15.397 -15.796,22.18c-6.054,7.46 -13.137,15.159 -20.516,22.729c-11.357,11.649 -23.415,22.981 -33.623,32.694c-8.943,8.506 -18.061,17.338 -27.447,25.47c-6.201,5.373 -12.519,10.434 -18.987,14.862c-7.793,5.335 -15.91,10.304 -24.307,14.717c-8.304,4.364 -16.887,8.175 -25.707,11.248c-14.313,4.986 -32.905,11.963 -52.148,16.704c-11.49,2.831 -23.217,4.859 -34.336,5.045c-10.765,0.172 -23.878,-1.127 -37.744,-3.068c-32.856,-4.601 -69.738,-12.852 -91.163,-15.609c-12.654,-1.628 -26.299,0.537 -38.946,-0.744c-4.124,-0.418 -8.119,-1.275 -11.828,-3.16c-5.051,-2.568 -10.369,-6.994 -15.817,-12.043c-13.993,-12.97 -28.33,-29.922 -39.359,-38.49c-8.431,-6.55 -20.049,-9.315 -29.385,-14.46c-2.277,-1.255 -4.378,-2.693 -5.856,-4.837c-3.686,-5.346 -6.572,-12.931 -9.21,-21.261c-3.905,-12.339 -7.032,-26.244 -10.069,-38.259c-2.15,-8.504 -3.881,-17.397 -5.432,-26.37c-2.408,-13.931 -4.374,-28.051 -6.664,-41.297c-2.543,-14.755 -3.285,-30.341 -5.83,-45.053c-1.254,-7.249 -2.933,-14.299 -5.321,-21.002c-3.042,-8.541 -6.942,-16.756 -11.403,-24.696c-6.41,-11.409 -14.013,-22.233 -21.869,-32.625c-5.415,-7.163 -11.68,-14.252 -18.255,-21.152c-9.455,-9.921 -19.572,-19.441 -28.59,-28.199c-11.198,-10.874 -23.94,-20.528 -35.444,-30.899c-2.692,-2.426 -5.308,-4.897 -7.808,-7.441c-7.512,-7.641 -15.38,-15.348 -22.366,-23.554c-4.33,-5.086 -8.304,-10.371 -11.55,-15.989c-3.89,-6.732 -7.162,-14.764 -9.86,-22.683c-3.076,-9.029 -5.367,-17.945 -6.815,-24.873c-0.948,-4.305 -1.289,-8.749 -1.204,-13.2c0.091,-4.817 0.649,-9.642 1.489,-14.337c2.949,-16.48 12.002,-46.092 18.064,-72.051c1.562,-6.693 2.939,-13.154 3.987,-19.124c0.994,-5.661 1.785,-11.557 2.435,-17.558c2.513,-23.193 2.836,-48.062 6.189,-65.905c1.222,-6.49 3.022,-12.897 5.097,-19.221c3.353,-10.216 7.392,-20.225 11.022,-30.021c3.549,-9.578 6.517,-19.535 10.378,-29.022c2.291,-5.631 4.892,-11.096 8.273,-16.13c6.289,-9.361 14.929,-20.779 24.622,-32.099c8.781,-10.254 18.415,-20.441 27.958,-28.915c16.464,-14.62 38.317,-33.314 61.72,-50.551c14.334,-10.558 29.244,-20.579 43.84,-28.732c21.144,-11.81 45.462,-23.616 70.646,-34.177c24.536,-10.289 49.889,-19.408 73.909,-26.234c18.456,-5.245 38.285,-9.213 58.119,-12.341c31.769,-5.01 63.55,-7.881 89.878,-10.329c17.994,-1.669 36.118,-2.94 54.235,-3.288c17.957,-0.346 35.906,0.209 53.71,2.173c17.787,1.962 37.054,5.617 55.789,10.009c19.717,4.622 38.847,10.058 55.073,15.226c13.628,4.34 27.015,9.526 40.096,15.408c13.128,5.902 25.951,12.499 38.404,19.637c17.334,9.953 41.056,23.932 62.103,38.061c14.972,10.05 28.587,20.132 37.332,28.853c5.522,5.507 9.344,12.252 12.461,19.479c5.17,11.99 8.453,25.254 12.964,37.379c6.575,17.678 16.524,45.944 27.001,76.341c14.372,41.7 29.746,87.397 38.993,115.266c7.24,21.885 16.336,45.527 22.842,67.554c2.968,10.047 5.393,19.744 6.801,28.752c1.114,7.204 1.388,14.457 1.223,21.736c-0.408,17.965 -3.41,36.083 -4.05,54.06c-0.76,21.337 -0.621,52.34 -1.6,78.848c-0.463,12.506 -1.17,23.987 -2.365,32.881c-1.207,8.979 -3.035,18.424 -5.787,27.366c-2.725,8.852 -6.343,17.211 -11.229,24.006c-4.796,6.667 -11.17,12.414 -18.236,17.372c-7.246,5.086 -15.231,9.327 -23.14,12.807c-9.564,4.209 -21.549,7.868 -33.975,10.891c-12.076,2.938 -24.568,5.26 -35.741,6.848c-8.381,1.192 -17.397,1.764 -26.351,1.997c-14.698,0.384 -29.235,-0.152 -40.692,-0.497c-12.26,-0.378 -30.428,-4.355 -39.656,-5.051c-2.952,-0.223 -5.312,-0.113 -6.884,0.185c-4.116,0.781 -6.022,2.98 -7.092,4.7c-1.317,2.118 -1.816,4.53 -1.23,7.267c0.362,1.692 1.759,4.504 4.696,7.158l5.104,4.632Z"/><path d="M232.756,715.235c-5.79,4.336 -7.587,12.416 -3.916,18.867c2.429,3.334 4.911,6.321 9.012,6.916c1.415,0.205 2.942,0.754 4.671,0.445c1.443,-0.258 5.362,-0.155 8.796,-3.673c1.064,-1.09 4.342,-5.012 4.342,-5.012c-0,-0 -0.629,0.385 -0.803,0.541c0,-0 11.559,-10.471 11.559,-10.471c5.284,-3.647 12.145,-8.43 19.709,-11.243c6.235,-2.318 12.755,-3.846 18.302,-1.684c7.55,3.632 13.778,8.515 18.676,14.557c5.09,6.28 8.378,13.825 11.37,21.739c1.479,4.191 3.543,13.257 5.526,19.168c1.23,3.663 3.022,6.287 4.183,7.961c3.979,5.736 9.709,5.565 13.47,5.579c4.246,0.016 9.003,-2.56 12.926,-10.338c2.629,-7.228 -0.822,-15.195 -7.736,-18.285c-2.711,-4.925 -5.614,-11.024 -7.473,-14.046c-5.3,-9.085 -11.369,-17.17 -18.519,-24.236c-7.236,-7.152 -15.317,-13.466 -25.435,-17.681c-7.368,-3.719 -16.138,-3.882 -25.127,-2.615c-11.47,1.617 -23.215,6.278 -31.725,10.177l-15.76,8.998c-0.962,0.54 -6.772,2.495 -6.048,4.336Zm112.324,39.793c-0.832,0.886 -1.545,2.026 -1.911,3.591c0.477,-1.313 1.124,-2.516 1.911,-3.591Zm20.577,-0.02l0.024,0.037c0.093,0.135 0.359,0.261 0.359,0.261l-0.383,-0.298Zm-114.01,-38.605c0.979,0.941 1.839,2.037 2.544,3.276c-0.583,-1.361 -1.495,-2.389 -2.544,-3.276Zm-7.359,-3.823c1.47,0.284 2.892,0.793 4.213,1.512c-1.099,-0.758 -2.503,-1.288 -4.213,-1.512Z"/><path d="M296.262,804.8c1.193,-1.788 1.986,-3.426 3.333,-4.394c0.568,-0.409 0.824,-1.223 1.495,-1.268c1.617,-0.108 3.389,0.574 5.59,1.741c1.586,1.231 2.484,3.146 3.349,5.036c0.063,0.137 0.117,0.275 0.16,0.416c-0.219,0.205 -0.43,0.419 -0.635,0.641c-0.121,0.232 -0.303,0.481 -0.18,0.55c0.407,0.227 0.746,0.188 1.028,0.015c0.084,1.271 -0.246,2.596 -0.31,3.893c0.064,-0.791 0.003,-1.86 -0.741,-2.294c-0.79,-0.46 -1.605,0.798 -1.943,1.148c-0.663,0.687 -0.803,1.375 -1.041,1.67c-0.828,1.023 -0.608,2.138 -0.927,2.75c-0.853,1.637 -0.09,3.153 -0.293,4.278c-0.178,0.982 0.458,1.769 0.464,2.607c0.022,3.027 2.651,4.461 3.914,6.527c1.65,2.7 5.088,2.596 8.602,3.866c1.256,0.455 2.665,-0.379 4.44,-0.319c1.182,0.039 2.381,-1.232 4.565,-1.941c0.433,-0.141 1.276,-1.341 3.826,-2.936c0.877,-0.948 1.604,-1.981 2.181,-3.072c2.259,-2.019 2.688,-11.367 0.695,-16.067c-1.801,-4.712 -3.847,-9.231 -7.451,-12.934c-3.379,-3.471 -6.82,-6.847 -11.151,-8.621c-7.154,-4.667 -12.923,-5.115 -18.313,-4.71c-5.315,0.399 -10.209,2.947 -16.901,7.011c-0.912,0.512 -2.488,1.092 -4.086,1.911c-1.915,0.981 -3.205,2.568 -4.699,3.776c-2.239,1.811 -2.596,4.5 -3.692,6.616c-0.489,0.942 -0.242,1.995 -0.543,2.978c-1.235,4.03 1.42,7.462 3.853,12.148c5.352,6.011 14.578,6.546 20.589,1.193c3.588,-3.194 5.224,-7.768 4.822,-12.215Zm-2.761,-7.299c-0.188,-0.414 -0.447,-0.791 -0.867,-1.075c0.309,0.347 0.599,0.706 0.867,1.075Z"/><g id="Ojos-Ojerosos" serif:id="Ojos Ojerosos"><path d="M759.362,760.311c0,-10.039 -13.85,-10.425 -20.97,-11.49c-17.303,-2.586 -38.296,11.473 -36.014,30.156c0.992,8.118 6.58,12.984 10.024,19.695c6.07,11.826 9.639,26.11 21.203,34.462c40.134,28.986 107.175,26.125 131.294,-20.308c10.938,-21.055 9.264,-36.453 -5.47,-53.128c-4.11,-4.651 -12.131,-14.288 -19.377,-11.694c-13.257,4.746 -20.137,15.797 -36.697,15.797c-10.151,-0 -21.82,1.561 -31.685,-0.205c-1.284,-0.23 -8.663,-1.158 -8.663,-2.671" style="fill:#71582c;fill-opacity:0.21;"/><path d="M1172.65,745.803c-1.901,-1.131 8.392,4.126 11.456,5.159c8.763,2.955 17.692,6.915 27.25,6.915c7.09,-0 14.398,-0.978 20.821,-4.274c10.951,-5.621 9.768,-16.979 23.478,-8.427c2.116,1.321 3.854,2.487 5.587,4.274c2.417,2.491 4.123,4.606 5.173,7.925c1.269,4.014 3.979,7.246 4.749,11.443c0.964,5.256 2.143,13.199 0.138,18.236c-4.566,11.473 -19.409,20.813 -29.761,26.413c-6.677,3.612 -12.673,8.856 -19.986,11.317c-23.543,7.924 -46.114,-6.609 -57.15,-26.537c-6.961,-12.568 -27.694,-36.178 -14.114,-50.806c2.765,-2.978 14.496,-13.614 19.701,-10.942c3.973,2.039 5.545,7.883 10.341,6.037" style="fill:#71582c;fill-opacity:0.21;"/><path d="M799.662,721.993c0.173,-0.231 -15.759,-2.269 -19.833,2.015c-8.277,8.703 -23.221,32.278 -12.736,44.818c25.677,30.706 44.972,-33.356 5.616,-33.356" style="fill:#e7253b;"/><path d="M767.463,726.474c-3.093,1.805 -5.171,5.159 -5.171,8.996c-0,0.222 0.007,0.442 0.023,0.661c-1.723,3.797 -3.175,7.792 -4.09,11.741c-2.163,9.342 -1.657,18.36 4.188,24.868c8.432,10.333 16.87,11.808 23.418,10.009c7.821,-2.149 13.966,-10.351 16.213,-20.247c1.536,-6.763 0.819,-14.096 -1.972,-20.516c-1.875,-4.312 -4.835,-8.113 -9.064,-11.028c1.877,0.181 3.656,0.518 4.97,0.777c4.232,1.605 9.186,0.298 12.029,-3.507c0.325,-0.52 2.843,-16.406 -9.209,-16.756c-3.637,-0.105 -10.483,-0.094 -15.703,1.331c-4.2,1.146 -7.697,2.804 -9.624,5.159c-1.823,2.187 -3.931,5.117 -6.008,8.512Zm6.426,19.328c-1.015,1.888 -1.895,3.838 -2.565,5.806c-1.632,4.792 -2.385,9.659 0.45,13.304c4.019,4.69 7.337,6.751 10.311,5.726c3.498,-1.206 4.969,-5.907 5.431,-10.514c0.486,-4.854 -1.18,-10.14 -5.538,-13.008c-2.026,-1.332 -4.746,-1.525 -8.089,-1.314Z"/><path d="M1212.99,724.355c-15.377,-6.562 -42.289,13.288 -24.707,24.256c20.147,12.568 58.572,-6.862 44.181,-22.913c-8.858,-9.88 -37.139,5.883 -36.32,6.067" style="fill:#e7253b;"/><path d="M1216.54,714.601c-4.12,-1.308 -8.554,-1.872 -13.078,-1.132c-9.085,1.487 -18.415,6.577 -23.481,13.164c-3.772,4.903 -5.75,10.198 -4.834,15.22c0.816,4.47 3.223,9.219 9.469,12.637c9.143,5.3 21.019,5.464 31.628,2.529c4.466,-1.235 8.688,-2.952 12.375,-5.006c13.497,-7.524 18.711,-19.807 9.391,-31.286c-4.137,-5.309 -11.616,-6.902 -19.988,-6.266c-0.491,0.037 -0.985,0.084 -1.482,0.14Zm-26.626,25.486c-0.007,0.075 0.003,0.153 0.035,0.236c0.313,0.827 0.936,1.657 2.002,2.409c7.128,4.72 17.402,4.4 25.456,1.201c4.414,-1.753 8.092,-4.492 10.212,-7.499c0.752,-1.065 1.096,-2.22 1.018,-3.354c-0.062,-0.904 -0.865,-1.565 -1.716,-2.411c-0.446,-0.434 -1.161,-0.139 -1.831,-0.195c-1.279,-0.105 -2.647,0.197 -4.078,0.526c-2.357,2.849 -6.098,4.252 -9.767,3.623c-2.84,1.42 -5.352,2.942 -7.149,4.073c-0.731,0.46 -1.342,1.411 -1.676,1.378c-2.358,1.781 -5.454,2.552 -8.559,1.854c-1.569,-0.504 -2.881,-1.119 -3.947,-1.841Z"/></g><path d="M784.632,1107.85c5.518,-0.665 10.612,-0.073 14.136,3.374c6.288,5.024 15.472,3.998 20.496,-2.29c5.024,-6.289 3.998,-15.473 -2.29,-20.497c-8.747,-5.603 -18.862,-7.686 -29.978,-5.447c-16.928,3.411 -36.006,15.017 -47.175,22.057c-5.799,3.203 -13.656,7.959 -17.173,14.272c-2.161,3.879 -3.071,8.287 -1.942,13.495c2.365,12.747 10.308,16.24 18.869,16.644c13.616,0.643 33.669,-14.86 38.909,-21.553c4.913,-6.093 6.64,-13.476 6.242,-19.126c-0.021,-0.312 -0.052,-0.622 -0.094,-0.929Zm-29.611,9.593c-2.559,1.13 -4.912,2.206 -6.986,3.128c-2.744,1.363 -6.462,2.848 -9.113,5.22c-0.854,0.764 -1.698,1.626 -1.367,2.875c0.258,0.847 1.284,1.446 1.443,1.935c0.024,-0.084 0.041,-0.164 0.036,-0.221c-0.032,-0.383 0.731,-0.274 1.132,-0.396c1.337,-0.407 2.613,-1.263 3.969,-2.113c4.367,-2.734 8.376,-7.046 10.886,-10.428Zm6.455,2.97c0.159,0.081 0.336,0.142 0.533,0.18l-0.533,-0.18Z"/><path d="M446.299,489.643c7.207,5.16 12.548,20.654 16.129,28.175c10.919,22.926 19.081,46.825 26.756,71.036c2.995,9.449 14.57,21.688 11.189,32.101c-3.914,12.053 -18.957,10.593 -28.076,6.489c-0.796,-0.358 -11.934,-6.048 -12.333,-4.952c-4.032,11.089 2.464,33.081 2.464,45.085c0,6.184 2.24,14.252 -3.984,17.755c-33.821,19.037 -76.396,-3.327 -112.7,1.877c-12.752,1.829 -26.387,0.312 -38.895,2.565c-28.229,5.082 -56.733,28.184 -82.343,2.388c-4.618,-4.652 -10.262,-9.173 -14.422,-14.17c-2.922,-3.51 -3.391,-8.644 -4.935,-12.809c-14.297,-38.568 12.634,-57.241 22.578,-91.185c3.858,-13.171 1.523,-34.771 12.333,-44.568c2.279,-2.066 -8.068,-10.075 -9.106,-11.442c-5.449,-7.175 -6.976,-16.102 -5.504,-25.101c2.86,-17.477 10.069,-19.503 22.39,-28.685c3.135,-2.336 8.317,-10.355 11.952,-11.442c15.539,-4.645 37.549,-0.093 52.748,3.245c26.148,5.743 52.785,9.734 79.497,9.734c15.251,0 34.471,-0.317 48.764,6.143c5.976,2.702 18.386,11.398 7.018,14.176"/><path d="M228.098,528.988c-1.769,2.972 -3.124,6.292 -4.125,9.865c-2.937,10.483 -2.543,23.484 -5.094,32.553c-7.05,24.861 -22.846,41.868 -25.842,63.917c-1.324,9.74 -0.519,20.385 4.158,32.809c1.117,2.992 1.717,6.464 2.988,9.522c0.867,2.085 1.968,4.029 3.405,5.747l14.926,14.709c12.331,12.491 25.269,15.503 38.509,14.342c16.736,-1.467 34.145,-10.981 51.39,-13.989c2.256,-0.389 4.552,-0.631 6.874,-0.796c10.467,-0.747 21.385,-0.022 31.751,-1.429c24.879,-3.288 52.572,6.724 78.416,6.917c13.296,0.099 26.123,-2.172 38.116,-8.718c4.418,-2.411 6.945,-5.895 8.433,-9.891c1.853,-4.977 1.055,-11.542 1.126,-16.969c0.113,-7.326 -2.054,-18.335 -2.913,-28.408c7.416,2.84 16.823,4.035 24.514,1.914c7.734,-2.132 14.049,-7.242 17.176,-16.383c1.948,-5.693 1.543,-11.748 -0.4,-17.884c-2.397,-7.569 -8.314,-15.352 -10.244,-21.79c-4.427,-14.861 -9.052,-29.598 -14.339,-44.1c-3.587,-9.839 -7.499,-19.555 -11.853,-29.129c-2.462,-5.414 -5.79,-14.612 -9.945,-21.812c1.606,-3.151 2.159,-6.479 1.614,-9.969c-0.481,-3.081 -1.789,-6.604 -4.513,-9.86c-3.701,-4.423 -10.859,-9.14 -15.594,-11.174c-7.029,-3.02 -14.959,-4.847 -23.181,-5.746c-10.652,-1.166 -21.777,-0.931 -31.414,-0.762c-12.817,0.217 -25.629,-0.502 -38.388,-1.934c-12.928,-1.451 -25.796,-3.585 -38.556,-6.161c-9.598,-1.944 -21.753,-4.282 -33.469,-4.788c-8.915,-0.385 -17.593,0.236 -25,2.57c-2.079,0.656 -4.538,1.961 -6.899,4.099c-2.939,2.663 -6.131,7.566 -8.348,9.269c-8.866,6.813 -15.203,10.574 -19.607,17.287c-2.903,4.425 -5.2,10.012 -6.458,18.412c-0.864,5.73 -0.797,11.424 0.372,16.82c1.241,5.731 3.614,11.157 7.353,15.953c0.403,0.518 2.891,2.921 5.061,4.987Zm204.805,-45.107c-3.992,-1.611 -8.404,-2.633 -12.948,-3.298c-9.435,-1.38 -19.342,-1.429 -27.918,-1.579c-13.928,-0.236 -27.815,-1.479 -41.619,-3.504c-13.579,-1.993 -27.071,-4.696 -40.431,-7.869c-8.504,-2.014 -19.263,-4.546 -29.699,-5.323c-5.7,-0.425 -11.29,-0.414 -16.189,0.757c-1.533,1.68 -7.491,8.145 -9.796,9.81c-5.755,4.158 -10.375,6.499 -13.789,10.049c-2.435,2.531 -3.903,5.879 -4.925,11.622c-0.567,3.212 -0.678,6.417 -0.096,9.469c0.516,2.711 1.505,5.313 3.153,7.634c0.887,0.81 4.549,4.185 6.494,6.356c2.219,2.477 3.772,5.002 4.378,6.865c1.641,5.046 0.251,8.991 -2.91,11.784c-3.04,2.686 -4.28,6.891 -5.239,11.353c-2.085,9.699 -2.379,20.647 -4.794,28.583c-6.288,20.756 -18.886,35.738 -24.525,53.113c-3.059,9.426 -3.636,19.678 1.053,32.532l3.477,10.348l13.917,13.63c8.032,8.045 16.395,10.049 24.964,9.227c16.28,-1.563 33.068,-11.244 49.823,-14.356c2.822,-0.529 5.698,-0.883 8.606,-1.134c10.069,-0.869 20.598,-0.265 30.559,-1.769c25.54,-3.948 54.303,5.414 80.914,4.972c9.357,-0.155 18.408,-1.726 26.786,-6.279c-0.103,-1.705 -0.388,-6.704 -0.421,-9.297c-0.123,-7.954 -3.289,-20.324 -4.117,-30.888c-0.543,-6.926 -0.042,-13.251 1.635,-18.094c0.961,-2.779 5.621,-9.602 15.123,-7.057c3.463,0.928 11.96,4.996 12.696,5.314c2.349,1.014 5.306,1.708 8.155,1.735c1.434,0.013 3.14,0.182 3.62,-1.377c0.484,-1.576 -0.769,-3.06 -1.541,-4.724c-3.216,-6.942 -8.22,-13.901 -10.193,-19.803c-3.984,-11.847 -8.089,-23.608 -12.589,-35.211c-4.423,-11.407 -9.253,-22.637 -14.731,-33.633c-1.835,-3.684 -4.135,-9.326 -6.881,-14.672c-1.577,-3.071 -3.025,-6.239 -5.096,-7.667c-5.675,-4.064 -7.564,-11.46 -4.906,-17.619Zm11.045,-11.879l0.409,-0.111c-0.143,0.032 -0.279,0.069 -0.409,0.111Z"/><path d="M353.43,789.694c-0.53,1.371 -0.947,2.712 -1.145,3.888c-1.13,6.718 1.365,11.793 4.872,14.937c2.198,1.97 4.86,3.516 7.893,4.596c-2.49,2.499 -5.601,5.821 -7.941,8.967c-3.476,4.672 -5.318,9.477 -5.597,12.807c-0.554,6.616 1.984,11.682 7.58,15.019c3.948,2.354 8.649,3.784 13.852,4.327c-2.616,3.003 -4.981,5.838 -7.051,8.409c-0.897,1.115 -5.995,6.779 -9.815,12.854c-3.074,4.889 -5.235,10.109 -5.739,14.376c-0.925,7.827 1.788,14.12 8.677,18.147c4.306,2.517 9.124,4.108 14.289,4.866l-0.119,0.276c-1.444,3.742 -1.305,7.023 -0.587,9.559c1.054,3.725 3.312,6.824 7.422,8.771c0.846,0.4 1.726,0.751 2.639,1.049c-3.258,4.863 -6.653,10.837 -7.302,15.337c-1.091,7.565 1.586,13.418 7.998,16.959c4.556,2.516 9.65,3.736 15.06,3.807c-0.995,2.808 -1.436,5.398 -1.399,7.222c0.132,6.616 3.621,10.436 8.525,12.183c8.256,2.941 19.318,0.11 30.143,-7.919c3.709,-2.752 7.478,-6.079 11.127,-9.616c-1.59,4.258 -3.111,8.544 -4.528,12.878c-3.496,10.689 -6.389,21.652 -8.206,33.143c-0.415,2.624 -3.133,18.142 -2.13,26.677c1.082,9.205 6.628,13.781 11.678,14.742c0.435,0.083 0.867,0.147 1.298,0.191l-3.674,11.6c-1.121,3.499 -4.194,10.441 -4.442,13.81c-0.274,3.737 0.883,6.54 2.269,8.427c0.593,0.808 1.276,1.595 2.075,2.291c-0.413,0.563 -0.81,1.128 -1.193,1.692c-7.511,11.07 -9.443,22.424 -5.844,31.117c1.635,3.949 4.615,7.148 9.051,8.824c0.56,3.185 1.662,5.756 3.03,7.531c1.296,1.682 2.75,2.92 4.338,3.74c-0.976,4.644 -1.677,9.94 -0.985,13.736c0.99,5.43 3.929,9.158 8.127,11.037c5.213,2.335 10.641,2.571 16.03,1.031c-0.936,4.279 -1.777,9.51 -1.685,14.017c0.118,5.713 1.828,10.517 4.547,13.518c8.39,9.261 19.473,8.928 30.93,1.643c6.154,-3.914 12.494,-10.142 18.089,-16.466c-2.793,7.039 -5.18,13.842 -6.126,19.99c-0.372,2.412 -1.596,15.655 0.302,20.073c1.945,4.527 5.371,6.435 9.066,6.706l0.624,0.032c-1.705,3.873 -3.799,9.04 -4.402,12.957c-0.681,4.428 0.242,8.076 1.839,10.466c2.253,3.372 5.062,4.766 7.847,5.222c2.528,0.415 5.357,0.013 8.227,-1.679c2.135,-1.259 4.604,-4.01 6.979,-7.037l-0.05,0.194c-0.563,2.29 -1.78,8.569 -1.822,13.516c-0.037,4.244 1,7.809 2.354,9.836c3.993,5.976 9.703,7.342 16.091,5.445c6.683,-1.983 14.738,-9.731 16.841,-11.842c11.559,-11.6 21.648,-24.466 32.603,-36.581c3.395,-3.755 6.876,-7.435 10.525,-10.969c-3.563,5.755 -6.86,10.748 -7.881,12.894c-1.884,3.963 -6.343,13.757 -6.443,16.221c-0.172,4.263 1.988,6.633 3.85,7.921c1.7,1.176 5.91,3.573 11.316,-0.756c1.749,-1.4 3.439,-2.894 5.078,-4.465l-0.153,0.511c-0.545,1.932 -3.591,12.019 -3.141,17.679c0.461,5.803 3.595,9.251 7.436,10.561c5.713,1.95 12.846,0.648 20.123,-3.377c-0.889,2.764 -2.754,9.091 -2.85,13.12c-0.129,5.362 2.469,8.789 5.014,10.287c4.877,2.868 10.87,2.678 16.943,-0.316c7.78,-3.836 16.025,-12.855 18.773,-15.727c3.713,-3.879 7.195,-7.938 10.479,-12.147l-0.745,3.077c-0.781,3.343 -2.392,12.211 -1.337,18.463c1.015,6.013 4.274,10.163 8.889,11.79c4.721,1.663 9.724,0.782 14.417,-2.199c6.003,-3.811 11.59,-11.847 13.832,-14.67c6.578,-8.283 12.848,-16.807 18.965,-25.447c8.93,-12.611 17.532,-25.468 26.301,-38.159l-8.421,27.97c-0.855,3.41 -4.266,23.626 -0.829,33.324c1.432,4.041 3.853,6.88 6.794,8.499c3.591,1.976 8.618,2.726 15.266,-0.955c10.619,-5.879 19.87,-16.067 27.803,-27.97c-0.271,3.093 -0.304,6.704 0.387,9.586c1.212,5.053 4.244,8.525 8.482,9.965c8.431,2.866 17.359,0.084 25.539,-6.693c12.313,-10.201 23.241,-29.989 27.584,-37.531l6.403,-11.489c-0.033,1.049 -0.013,1.998 0.065,2.824c0.937,9.953 7.124,12.647 13.247,11.357c8.359,-1.76 16.917,-7.167 24.991,-14.667c14.583,-13.546 27.958,-34.085 36.918,-45.009l12.45,-15.985c-1.994,10.708 -5.902,22.243 -6.513,29.645c-0.084,1.02 -0.642,13.488 0.803,16.915c1.484,3.522 4.036,5.139 6.309,5.846c2.336,0.727 5.073,0.787 8.082,-1.045c9.631,-5.863 17.563,-16.038 23.997,-28.406c12.034,-23.132 19.02,-54.264 26.168,-72.367c2.197,-5.558 3.437,-8.78 4.736,-11.669c0.2,-0.444 0.402,-0.88 0.61,-1.316c2.329,-3.334 4.735,-6.626 6.96,-10.026c2.068,-3.158 3.987,-6.404 5.608,-9.824c2.345,-4.946 0.672,-8.032 0.36,-8.721c-0.537,-1.19 -3.372,-4.423 -7.068,-5.385c1.743,-5.903 3.384,-11.813 4.969,-17.692c0.704,-2.612 6.347,-16.907 7.587,-25.83c0.903,-6.5 -0.769,-11.466 -2.869,-13.94c-2.307,-2.717 -5.193,-4.437 -8.533,-5.038c0.135,-0.435 0.262,-0.869 0.382,-1.3c2.77,-9.957 1.326,-18.705 -4.08,-24.191c-6.306,-6.399 -16.903,-7.637 -28.949,-3.715c-6.307,2.054 -13.139,5.442 -19.5,9.074c-0.495,-0.963 -1.083,-1.854 -1.748,-2.668c-5.273,-6.459 -14.892,-8.577 -26.312,-5.72c-4.46,1.115 -9.276,2.952 -13.968,5.049c-0.817,-3.732 -2.649,-6.977 -5.398,-9.511c-3.794,-3.497 -10.153,-6.261 -20.38,-5.423l-0.964,0.152c0.757,-3.392 0.793,-6.514 0.158,-9.095c-1.736,-7.05 -8.085,-14.873 -25.97,-12.511c-10.393,1.372 -20.555,4.633 -30.424,8.908c-3.202,1.388 -6.374,2.884 -9.509,4.454c-2.327,-2.269 -5.539,-3.94 -9.909,-4.685c-15.831,-2.701 -32.494,1.633 -48.532,9.499c-3.041,1.491 -6.061,3.11 -9.049,4.823c-0.598,-1.564 -1.412,-3.054 -2.442,-4.452c-3.214,-4.36 -8.596,-7.185 -15.325,-7.785c-7.923,-0.706 -18.263,1.961 -22.697,3.56c-11.195,4.037 -22.114,9.226 -32.807,14.983l-2.154,1.172c-11.712,-2.176 -24.674,0.243 -37.721,5.674c-6.517,2.713 -13.083,6.201 -19.5,10.058c-1.102,-4.874 -4.112,-7.855 -7.603,-9.543c-5.312,-2.568 -11.507,-3.279 -18.003,-2.412c-9.929,1.326 -20.842,6.764 -27.589,10.207c-12.293,6.272 -23.722,13.771 -34.407,22.242c-6.049,4.797 -11.858,9.91 -17.445,15.291c-2.824,0.72 -5.661,1.791 -8.461,3.162c-8.987,4.401 -17.731,12.194 -23.649,17.491c-4.284,3.835 -8.416,7.829 -12.455,11.918c-0.624,-1.207 -1.363,-2.314 -2.205,-3.319c-0.487,-3.18 -2.315,-5.152 -3.87,-6.341c-1.715,-1.312 -5.993,-4.261 -11.628,-0.61c-3.654,-0.136 -7.792,0.529 -11.611,1.525c7.547,-16.672 15.555,-33.103 22.001,-50.429c2.192,-5.893 -0.326,-9.185 -0.699,-9.801c-1.066,-1.761 -11.249,-10.156 -18.051,-0.07c-0.701,1.039 -2.4,4.114 -3.841,6.714c3.342,-8.86 6.772,-17.685 10.285,-26.473c1.306,-3.266 4.55,-6.972 6.622,-10.522c1.984,-3.399 3.255,-6.774 3.626,-9.776c0.653,-5.288 -0.779,-10.036 -5.164,-14.034c-4.383,-3.997 -8.558,-3.683 -11.903,-2.514c-2.251,0.788 -4.708,2.403 -6.489,5.515c-0.927,1.62 -2.409,7.459 -2.623,8.317l-9.508,22.093c-3.583,8.333 -7.258,16.595 -11.102,24.773c1.019,-3.664 2.136,-7.281 3.326,-10.865c7.921,-23.86 18.979,-46.265 27.099,-70.445c1.466,-4.365 0.381,-7.103 -0.044,-8.247c-1.797,-4.84 -5.263,-7.004 -9.605,-7.507c-1.759,-0.204 -5.331,-0.327 -9.049,2.805c-0.73,0.615 -2.493,2.837 -4.062,4.77l-0.424,-0.244c-2.901,-1.559 -7.298,-2.384 -12.386,-0.678c-4.908,1.646 -12.076,6.815 -13.236,7.624c-7.295,5.085 -14.201,10.715 -20.5,16.943l-0.967,0.98c-3.761,2.111 -7.704,4.065 -11.64,5.551c-1.613,0.609 -3.216,1.199 -4.779,1.65c1.583,-2.042 2.937,-3.565 3.295,-3.988c5.345,-6.33 11.306,-11.919 17.652,-17.04c10.595,-5.976 20.238,-12.774 25.159,-15.586l11.8,-6.973c2.515,-1.478 8.511,-3.498 10.989,-5.029c2.77,-1.712 4.373,-3.719 5.219,-5.178c2.379,-4.104 2.277,-8.026 0.721,-11.606c-0.85,-1.956 -2.432,-4.777 -6.352,-6.609c1.814,-3.778 1.325,-6.83 0.827,-8.743c-1.327,-5.102 -4.608,-9.629 -12.453,-9.629c-7.888,0.02 -16.799,2.736 -25.755,7.317c-10.998,5.626 -22.279,14.077 -31.561,21.42c-3.977,1.472 -8.047,2.762 -12.078,3.707c-3.911,0.918 -7.777,1.638 -11.343,1.593c2.539,-3.54 5.427,-7.549 5.91,-8.142c8.512,-10.465 22.482,-25.835 37.822,-38.086c5.374,-2.412 9.998,-4.617 13.295,-6.05l20.534,-9.732c2.319,-1.131 8.037,-3.881 9.233,-4.869c3.86,-3.188 4.7,-6.803 4.961,-8.895c0.499,-3.998 -0.548,-7.523 -3.183,-10.56c-1.205,-1.389 -4.297,-5.184 -11.556,-4.7c-14.008,0.932 -29.857,8.708 -44.745,19.886l-1.178,0.896c-5.457,2.413 -11.556,4.91 -17.666,6.845c5.964,-5.19 12.292,-10.333 18.857,-15.134c8.561,-6.259 17.53,-11.933 26.63,-16.292c0.685,-0.328 1.087,-0.564 1.271,-0.672c10.352,-6.073 6.397,-15.947 5.885,-17.231c-1.258,-3.15 -4.411,-9.04 -13.411,-8.76c-0.352,0.011 -2.168,-0.014 -4.826,1.019c-0.832,0.323 -3.73,1.564 -4.891,2.096l-12.386,5.644c-3.842,1.667 -11.239,5.331 -19.218,8.271c0.698,-0.804 1.414,-1.598 2.142,-2.378c1.449,-1.553 2.92,-3.084 4.408,-4.463l1.197,-0.708c2.439,-1.437 8.538,-4.862 10.071,-5.974c3.423,-2.484 4.618,-5.165 5.054,-6.178c1.833,-4.262 1.34,-7.883 0.272,-10.712c-1.09,-2.889 -2.974,-5.506 -6.205,-7.352c0.391,-0.338 0.765,-0.689 1.113,-1.062c0.883,-0.946 1.684,-1.96 2.382,-3.062c5.851,-9.247 0.985,-15.411 -1.148,-17.854c-2.407,-2.757 -6.574,-5.956 -13.429,-4.882c-1.061,0.166 -2.646,0.532 -4.492,1.384c-1.653,0.763 -4.857,2.805 -6.346,3.652l-11.796,7.707c-4.653,3.508 -22.472,17.039 -28.917,27.992c-4.695,7.979 -4.939,15.658 -2.139,21.65c1.849,3.957 5.006,7.226 9.406,8.996Zm554.579,183.827c-7.93,1.248 -15.664,3.895 -23.205,7.2c-5.026,2.203 -9.965,4.698 -14.814,7.32c-1.248,4.055 -3.035,7.795 -4.827,10.341c-5.945,8.445 -16.131,17.949 -27.366,23.409c-8.829,4.291 -18.273,6.095 -27.063,4.172c-4.191,-0.917 -6.546,-3.134 -8.012,-5.37c-2.071,-3.161 -3.087,-7.647 -0.523,-12.838c2.004,-4.057 9.181,-10.645 13.143,-13.243l16.151,-9.703c-4.46,1.417 -8.917,3.328 -13.326,5.514c-10.755,5.332 -21.191,12.388 -30.763,19.305c-4.897,6.242 -10.371,12.099 -16.219,17.567c-6.825,6.38 -14.153,12.235 -21.639,17.563c-3.456,2.46 -9.731,7.517 -15.696,9.963c-4.827,1.98 -9.629,2.504 -13.801,1.495c-7.305,-1.766 -9.309,-6.486 -9.78,-10.772c-0.265,-2.413 0.086,-5.575 2.273,-8.833c1.871,-2.787 7.855,-7.366 10.714,-9.584l29.425,-20.493c5.034,-3.467 10.599,-7.578 16.559,-11.893c0.645,-0.836 1.277,-1.683 1.896,-2.539c0.881,-1.218 2.203,-3.036 3.411,-5.116c-3.027,0.441 -6.47,1.015 -7.8,1.502c-10.083,3.692 -19.9,8.449 -29.523,13.689c-1.15,0.627 -2.297,1.26 -3.442,1.902c-1.319,2.375 -3.335,5.173 -5.883,7.957c-6.059,6.62 -15.083,14.136 -15.37,14.359c-6.987,5.451 -14.272,10.384 -21.794,14.936c-7.388,4.47 -15.003,8.577 -22.782,12.458c-1.524,0.761 -12.614,6.915 -20.065,8.254c-5.365,0.965 -9.886,-0.031 -12.954,-1.875c-2.542,-1.528 -4.176,-3.304 -5.195,-5.168c-6.241,6.335 -13.039,12.611 -19.819,17.502c-9.854,7.109 -19.95,11.31 -28.762,11.289c-1.692,-0.005 -3.16,-0.208 -4.436,-0.554c-4.627,4.744 -9.361,8.535 -12.566,10.253c-3.441,1.843 -12.624,4.131 -18.782,2.905c-5.387,-1.073 -9.382,-3.752 -11.707,-7.751l-0.014,0.014c-3.308,3.451 -6.564,6.955 -9.805,10.473c0.696,1.154 1.221,2.618 1.358,4.477c0.096,1.293 -1.095,6.677 -1.851,8.783c-1.081,3.015 -2.16,5.511 -3.425,7.992c-1.16,2.274 -2.483,4.535 -4.15,7.199c-2.781,4.446 -7.932,13.284 -14.314,21.935c-2.964,7.64 -5.485,15.276 -7.609,22.383c-0.86,2.877 -2.101,13.901 -2.357,16.249c1.061,0.462 2.319,-0.308 3.631,-0.958c3.683,-1.822 7.454,-5.03 11.095,-8.622c9.675,-9.54 18.166,-21.905 20.894,-25.472l9.075,-12.425c0.899,-1.176 2.438,-3.982 3.411,-5.082c1.596,-1.803 3.294,-2.66 4.48,-3.066c3.21,-1.101 6.013,-0.549 8.427,1.021c1.547,1.007 3.803,2.844 4.399,7.007c1.061,7.411 -0.305,15.749 -3.071,24.402c-4.474,13.99 -12.932,29.045 -15.514,41.617c0.498,-0.665 0.991,-1.353 1.478,-2.058c7.299,-10.561 13.254,-24.517 16.833,-30.195l9.166,-13.568c1.003,-1.387 3.266,-4.96 3.981,-5.87c6.591,-8.39 14.887,-0.284 15.714,1.386c0.276,0.558 2.175,3.465 0.016,8.278c-0.947,2.111 -1.932,4.204 -2.955,6.279c1.291,-1.379 2.578,-2.442 3.761,-3.148c5.541,-3.305 9.238,-0.755 10.802,0.481c1.922,1.52 3.97,4.128 3.399,8.479c-0.216,1.647 -3.815,8.014 -5.164,10.696l-6.349,12.445c-5.199,11.025 -10.315,22.406 -14.634,34.024c-2.827,7.603 -5.313,15.308 -7.242,23.079c-0.153,0.616 -0.347,2.032 -0.528,3.641c1.9,-1.465 3.719,-2.91 4.245,-3.436c11.381,-11.373 21.299,-24.011 32.088,-35.893c4.842,-5.332 9.852,-10.518 15.214,-15.399c0.898,-0.817 15.165,-13.451 21.482,-16.104c6.534,-2.743 10.993,0.077 13.02,2.962c1.188,1.692 1.956,4.334 1.917,7.622c2.109,-2.855 4.231,-5.614 5.91,-7.024c2.549,-2.141 5.093,-2.856 7,-2.921c3.885,-0.13 8.376,1.184 10.008,8.192c0.901,3.871 0.366,7.618 -1.223,11.244c-1.899,4.332 -5.923,8.484 -8.387,12.542c-4.368,7.193 -9.163,14.493 -13.126,22.125c-2.446,4.709 -4.571,9.544 -5.996,14.581c-0.169,0.597 -0.734,3.16 -1.289,5.731c2.07,-1.069 4.191,-2.497 6.311,-4.096c9.457,-7.128 18.688,-17.477 23.246,-21.518l13.798,-12.613c0.806,-0.78 2.081,-2.876 2.871,-3.699c1.256,-1.309 2.516,-1.995 3.38,-2.346c3.374,-1.368 6.148,-0.601 8.333,0.954c1.392,0.989 3.704,2.931 3.702,7.363c-0.001,4.188 -1.577,7.785 -4.276,10.959c-2.775,3.263 -7.535,5.771 -10.209,9.145c-4.381,5.525 -8.602,11.16 -12.361,17.073c-3.587,5.644 -6.753,11.541 -9.201,17.858c4.13,-3.343 7.697,-7.4 9.224,-8.992c6.212,-6.481 11.701,-13.529 16.705,-20.919c7.706,-11.381 14.27,-23.571 20.501,-35.821l5.586,-11.727c1.166,-2.522 2.735,-8.381 4.011,-10.892c0.988,-1.943 2.177,-3.183 3.064,-3.871c2.84,-2.204 5.709,-2.307 8.291,-1.429c1.702,0.579 4.467,1.898 5.848,6.227c0.783,2.455 0.846,5.849 0.037,9.483c-1.147,5.151 -4.054,11.173 -4.432,12.233c-4.503,12.599 -9.477,25.242 -13.829,38.044c-2.827,8.314 -5.389,16.696 -7.367,25.177c-0.249,1.07 -0.483,3.889 -0.66,6.568c2.608,-2.781 5.84,-6.278 6.817,-7.51c6.38,-8.044 12.46,-16.325 18.393,-24.715c9.013,-12.746 17.688,-25.744 26.544,-38.568c0,0 18.436,-26.194 18.436,-26.194c0.257,-0.324 6.749,-7.03 9.455,-9.478c7.734,-6.993 15.061,3.47 15.175,4.791c0.38,4.411 -0.313,9.3 -1.709,14.311c-2.479,8.895 -7.31,18.321 -9.653,25.359l-10.037,33.489c-0.453,1.818 -0.941,14.307 -1.152,20.288c7.563,-4.978 14.021,-12.878 19.805,-21.689c10.297,-15.687 18.275,-34.343 24.965,-47.665c0.138,-0.277 4.679,-12.886 8.587,-19.564c2.715,-4.639 6.155,-7.126 8.247,-7.775c3.986,-1.236 6.773,-0.012 8.81,1.671c1.493,1.233 2.828,3.094 3.302,5.791c0.378,2.154 -0.597,6.934 -1.064,9.33l-4.04,13.79c-3.824,12.299 -9.061,24.676 -13.072,37.203c-1.624,5.075 -3.038,10.176 -4.034,15.309c-0.16,0.828 -0.291,3.109 -0.37,4.951c0.668,-0.22 1.335,-0.548 2.005,-0.914c2.587,-1.414 5.077,-3.628 7.485,-6.173c8.981,-9.493 16.412,-23.489 19.71,-29.251l11.475,-20.708l8.089,-17.117c0.437,-0.986 3.579,-11.99 7.245,-17.704c2.423,-3.777 5.472,-5.956 8.047,-6.742c4.163,-1.272 7.102,-0.065 9.267,1.649c1.654,1.31 3.107,3.304 3.678,6.198c0.529,2.683 -0.78,8.642 -0.958,11.719c-0.152,2.631 -3.356,20.386 -5.435,31.687c3.94,-2.852 7.806,-6.629 11.604,-10.71c11.813,-12.694 22.372,-28.844 29.833,-37.991c0,0 17.244,-22.24 17.244,-22.24c0.203,-0.241 4.214,-4.528 7.818,-7.233c2.652,-1.99 5.358,-3.137 7.208,-3.445c5.072,-0.846 8.631,1.167 10.78,5.26c2.743,5.227 3.443,12.313 2.527,20.154c-0.767,6.569 -2.7,13.818 -4.373,20.413c2.101,-3.807 4.027,-7.924 5.846,-12.185c3.504,-8.208 6.522,-16.979 9.254,-25.54c-3.123,-1.023 -5.525,-3.136 -5.725,-3.442c-0.295,-0.451 -2.922,-4.175 -0.63,-9.504c0.848,-1.97 4.296,-8.794 5.909,-11.432l1.984,-2.942c3.073,-6.228 5.854,-12.62 8.407,-19.116c6.705,-17.055 11.843,-34.823 16.484,-52.292c0.376,-1.414 2.503,-8.87 4.338,-15.281l-0.179,0.144c-1.002,0.825 -1.998,1.688 -2.975,2.57c-1.595,2.463 -2.946,4.437 -3.809,5.694l-8.703,11.694c-2.583,3.076 -7.107,9.412 -10.252,11.288c-2.96,1.765 -5.844,2.074 -8.318,1.613c-2.914,-0.543 -5.906,-2.051 -8.02,-5.966c-1.27,-2.35 -2.097,-6.01 -0.114,-10.377c1.982,-4.364 10.889,-13.242 11.416,-13.798c1.524,-1.608 6.038,-6.545 11.576,-11.757c2.546,-3.952 5.629,-9.085 8.088,-14.349c1.531,-3.279 2.83,-6.599 3.435,-9.649c0.202,-1.02 0.205,-2.573 0.197,-3.192c-0.827,-0.415 -1.999,0.154 -3.26,0.353c-4.677,0.741 -10.036,3.068 -15.324,5.798c-6.885,3.553 -13.595,7.884 -18.727,11.388c-0.913,1.63 -1.92,3.245 -3.006,4.809c-4.277,6.163 -9.708,11.505 -14.646,14.337c-5.259,3.016 -10.405,3.574 -14.603,2.311c-3.107,-0.935 -5.077,-2.854 -6.279,-5.32c-0.861,-1.768 -2.123,-5.156 0.221,-9.491c0.351,-0.65 1.306,-2.079 2.984,-3.778c3.997,-4.05 14.979,-13.482 15.936,-14.143l2.282,-1.586l0.575,-1.262l0.394,-0.924c-0.465,0.031 -0.927,0.079 -1.326,0.152c-3.464,0.63 -7.294,2.019 -11.106,3.657c-7.048,3.026 -13.986,6.951 -18.843,9.786c-3.687,4.925 -8.11,9.367 -12.499,12.42c-7.342,5.107 -14.908,6.303 -20.39,4.315c-6.891,-2.498 -7.732,-7.345 -7.328,-11.36c0.196,-1.947 0.963,-4.515 3.309,-6.881c1.337,-1.348 5.046,-3.396 6.728,-4.526l15.039,-9.209l0.316,-0.18l0.296,-0.471c1.002,-1.681 1.867,-4.223 2.372,-5.881c-0.896,-0.069 -1.99,-0.109 -2.961,-0.026l-6.332,0.936l-15.889,7.101c-1.519,1.416 -2.946,2.62 -4.191,3.542c-0.185,0.138 -13.198,8.806 -18.48,10.377c-8.741,2.601 -13.352,-2.602 -14.865,-6.617c-0.9,-2.387 -1.667,-9.258 5.359,-14.344c3.909,-2.83 13.235,-7.472 18.547,-10.043c2.906,-3.374 6.331,-8.175 8.802,-11.78Zm-425.275,168.27l-0.797,0.602c-4.16,2.943 -8.037,3.652 -10.428,3.658l-0.139,-0.004c-0.472,2.076 -1.087,5.075 -1.565,7.47c0.681,-0.336 1.363,-0.767 2.054,-1.211c3.409,-2.196 6.685,-5.521 9.768,-9.172l1.107,-1.343Zm145.127,-123.282l-2.525,1.307c-10.686,5.519 -20.606,12.113 -29.881,19.54c-1.655,1.326 -3.289,2.678 -4.902,4.056c0.818,1.484 1.434,3.079 1.822,4.781l0.294,-0.178l20.878,-13.622c5.451,-5.721 10.374,-11.402 14.314,-15.884Z" style="fill-opacity:0.85;"/></g><g id="Lentes"><path d="M280.377,701.225c4.305,-3.102 14.705,-1.14 19.692,-1.14c14.028,-0 30.216,-0.411 44.185,-2.499c56.435,-8.436 113.864,-6.046 171.181,-7.269c23.924,-0.51 60.713,6.003 83.826,-2.272" style="fill:#fff;fill-opacity:0.45;"/><path d="M286.776,714.327c1.452,3.517 10.155,-0.57 13.293,-0.739c8.656,-0.441 18.068,-1.049 27.324,-2.09c6.371,-0.717 12.641,-1.562 18.532,-2.732c22.15,-4.126 44.452,-6.874 66.956,-8.195c13.595,-0.798 27.239,-1.206 40.897,-1.181c20.619,0.038 41.232,1.068 61.877,1.239c16.595,0.451 39.09,4.434 59.27,4.676c10.645,0.128 20.639,-0.975 29.251,-3.53c7.578,-2.713 11.528,-11.068 8.815,-18.646c-2.713,-7.577 -11.068,-11.527 -18.646,-8.814c-5.898,2.488 -12.919,3.955 -20.474,4.651c-19.83,1.829 -42.315,-0.104 -58.656,1.039c-22.828,1.112 -45.649,2.196 -68.463,2.528c-23.146,0.337 -46.22,0.189 -69.237,1.356c-11.669,0.591 -23.297,1.281 -34.932,2.517c-6.661,0.674 -13.807,0.875 -20.97,0.865c-7.372,-0.01 -14.709,-0.336 -21.544,-0.689c-4.486,-0.242 -12.665,-1.641 -18.542,-0.9c-3.848,0.486 -7.041,2.022 -9.675,3.711c-6.53,4.705 -8.012,13.826 -3.307,20.357c4.214,5.848 11.969,7.647 18.231,4.577Z"/><path d="M618.453,671.227c2.816,-0 -4.041,3.945 -5.809,6.137c-3.031,3.755 -5.101,8.654 -7.324,12.953c-7.536,14.572 -10.603,31.388 -10.603,47.722c-0,48.485 22.341,92.439 58.824,125.208c69.83,62.72 163.403,82.584 253.5,56.35c36.703,-10.687 68.274,-25.432 88.62,-59.762c16.083,-27.136 16.892,-63.088 13.633,-93.391c-7.042,-65.482 -40.205,-132.427 -105.54,-158.157c-48.119,-18.95 -104.753,-11.143 -154.519,-4.091c-44.617,6.322 -71.359,27.686 -105.032,54.312c-4.857,3.84 -30.802,17.563 -30.802,23.174" style="fill:#fff;fill-opacity:0.45;"/><path d="M620.725,656.807c-0.71,-0.098 -1.467,-0.152 -2.272,-0.164c-4.282,0 -8.136,1.85 -10.805,4.794c-2.029,-0.092 -5.047,5.326 -6.246,6.856c-1.319,1.683 -2.543,3.493 -3.645,5.409c-1.875,3.257 -3.45,6.815 -5.079,10.077c-4.228,8.471 -7.231,17.543 -9.069,26.881c-1.775,9.024 -2.55,18.271 -2.42,27.379c0.366,26.39 6.736,51.466 18.142,74.313c11.107,22.247 26.877,42.43 46.433,59.554c36.772,32.262 79.576,53.27 124.9,62.726c44.96,9.381 92.407,7.489 138.874,-6.461c19.137,-5.694 36.891,-12.508 52.539,-22.309c16.082,-10.072 30.001,-23.251 40.879,-41.704c6.959,-11.763 11.279,-25.046 13.734,-38.858c3.532,-19.877 3.161,-40.876 1.191,-59.779c-3.428,-34.16 -13.802,-68.696 -31.66,-98.162c-18.176,-29.991 -44.149,-54.7 -78.676,-68.697c-20.363,-8.3 -42.229,-12.042 -64.53,-13.122c-32.058,-1.553 -65.036,2.554 -95.507,6.467c-18.964,2.423 -34.962,7.457 -49.658,14.302c-21.91,10.206 -40.788,24.689 -62.323,41.225c-2.206,1.691 -8.384,5.268 -14.802,9.273Zm-1.813,38.375l-0.951,1.673c-3.281,6.129 -5.649,12.736 -7.193,19.553c-1.611,7.107 -2.421,14.415 -2.524,21.631c-0.31,22.378 4.515,43.787 13.67,63.41c9.21,19.741 22.657,37.71 39.404,53.139c33.16,30.489 72.098,50.855 113.65,60.394c41.742,9.582 86.037,8.326 129.577,-3.96c17.608,-5.014 34.033,-10.918 48.455,-19.787c13.915,-8.556 25.929,-19.883 35.367,-35.723c7.443,-12.55 11.305,-27.159 12.951,-42.118c1.71,-15.545 1.008,-31.467 -0.611,-46.026c-3.611,-31.471 -13.451,-63.281 -30.391,-90.183c-16.458,-26.138 -39.703,-47.554 -70.352,-59.273c-18.304,-6.959 -37.868,-9.747 -57.747,-10.214c-30.726,-0.722 -62.183,4.179 -91.255,8.686c-16.044,2.498 -29.519,7.12 -41.834,13.28c-19.936,9.973 -36.828,24.008 -56.248,39.817c-3.687,3.007 -20.142,23.537 -26.601,19.04c-1.594,2.996 -4.202,5.37 -7.367,6.661Z"/><path d="M964.859,681.002c-4.58,-0.82 11.875,-9.321 13.633,-10.002c10.306,-3.99 21.588,-7.385 32.567,-8.862c20.998,-2.823 46.787,-2.685 67.671,0.914c7.194,1.239 12.974,2.093 19.692,4.77c1.69,0.674 10.353,4.957 10.353,3.631" style="fill:#fff;fill-opacity:0.45;"/><path d="M976.746,689.449c2.513,-1.479 5.629,-6.455 6.261,-6.785c4.651,-2.36 9.403,-4.726 14.425,-6.63c4.914,-1.863 9.888,-3.437 14.888,-4.518c5.122,-0.961 10.515,-1.93 16.118,-2.385c5.368,-0.435 10.894,-0.605 16.395,-0.337c11.189,0.544 22.152,2.747 32.011,5.202c3.347,0.939 6.31,1.777 9.255,2.762c2.51,0.839 4.82,2.008 7.412,3.383c1.596,0.863 8.499,4.682 11.329,5.634c5.414,1.822 9.341,-0.772 11.473,-1.746c4.855,-2.218 6.318,-6.863 7.045,-12.576c0,-7.255 -5.309,-13.28 -12.251,-14.395c-0.844,-1.727 -6.786,-1.288 -7.775,-1.555c-3.406,-0.944 -6.494,-1.726 -9.659,-2.163c-4.217,-0.581 -8.313,-0.915 -13.057,-1.232c-8.979,-0.826 -18.651,-0.873 -28.555,-0.706c-5.613,0.095 -11.262,0.293 -16.857,0.409c-8.794,0.184 -17.41,0.21 -25.406,0.95c-6.025,0.327 -12.089,1.331 -18.185,2.458c-6.025,1.114 -11.902,2.536 -17.637,4.118c-1.404,0.371 -9.94,3.898 -15.154,6.751c-2.976,1.629 -4.825,3.787 -6.042,5.099c-4.759,5.129 -3.203,10.722 -2.199,14.584c0.97,3.732 4.301,7.361 11.708,9.586c5.733,1.027 11.289,-1.455 14.457,-5.908Zm117.458,-18.493c-0.03,0.153 -0.034,0.318 -0.012,0.497l0.012,-0.497Zm-122.687,-2.93c-1.072,-0.71 -2.385,-1.273 -4.088,-1.379c1.461,0.262 2.832,0.733 4.088,1.379Z"/><path d="M1089.08,670.095c-16.029,-0 -21.013,17.357 -28.272,27.952c-23.959,34.967 -24.726,85.259 -3.787,121.109c53.321,91.289 194.66,116.365 280.758,62.721c25.996,-16.198 42.729,-42.884 60.089,-67.031c9.137,-12.709 28.393,-20.372 33.332,-35.683c8.016,-24.846 -3.537,-57.085 -11.868,-80.21c-5.591,-15.521 -9.053,-33.915 -18.434,-47.722c-12.953,-19.065 -29.361,-41.609 -50.244,-52.493c-49.86,-25.986 -112.362,-0.423 -160.071,17.045c-28.599,10.471 -58.79,24.892 -84.583,41.132c-2.98,1.876 -22.979,9.885 -22.979,12.5" style="fill:#fff;fill-opacity:0.45;"/><path d="M1071.22,660.768c-0.897,0.576 -1.761,1.199 -2.598,1.862c-8.536,6.764 -13.559,18.855 -19.315,27.54c-13.082,19.738 -19.85,43.567 -20.177,67.512c-0.327,23.857 5.537,47.769 17.47,67.558c28.789,47.874 80.283,78.312 136.147,89.392c55.345,10.978 114.799,3.1 159.634,-25.36c11.061,-6.957 20.554,-15.671 29.127,-25.299c12.267,-13.777 22.634,-29.443 33.196,-44.21c6.112,-8.468 16.989,-14.487 24.65,-22.336c4.474,-4.584 8.033,-9.68 9.984,-15.636c3.69,-11.227 3.897,-23.816 2.134,-36.559c-2.403,-17.376 -8.524,-35.062 -13.551,-49.375c-3.849,-10.973 -6.677,-23.335 -11.172,-34.589c-2.182,-5.464 -4.753,-10.675 -7.912,-15.435c-7.91,-11.921 -17.132,-25.105 -27.834,-36.289c-7.721,-8.067 -16.246,-15.062 -25.542,-20.039c-21.846,-11.746 -46.033,-14.431 -70.591,-12.182c-34.216,3.135 -69.184,16.217 -98.66,26.529c-14.776,5.164 -29.961,11.36 -44.816,18.271c-14.925,6.944 -29.488,14.645 -42.937,22.819c-2.538,1.54 -16.841,7.202 -21.984,10.649c-2.379,1.594 -4.067,3.386 -5.253,5.177Zm30.022,17.361c-2.609,3.945 -7.086,6.549 -12.167,6.549c-2.827,-0.044 -4.442,1.892 -5.938,3.868c-4.143,5.471 -7.214,12.26 -10.838,17.378c-10.732,15.156 -16.463,33.73 -17.271,52.493c-0.825,19.145 3.269,38.499 12.404,54.655c24.503,43.207 69.979,71.004 119.43,81.904c50.36,11.101 104.895,4.826 146.304,-20.495c9.716,-5.996 18.051,-13.57 25.599,-21.932c11.95,-13.24 21.977,-28.394 32.258,-42.621c6.526,-9.114 17.973,-15.844 26.143,-24.322c2.59,-2.688 4.78,-5.588 5.886,-9.07c2.807,-8.864 2.652,-18.786 1.13,-28.794c-2.454,-16.132 -8.558,-32.455 -13.448,-45.693c-3.412,-9.238 -6.059,-19.511 -9.685,-29.202c-2.163,-5.783 -4.706,-11.337 -8.101,-16.219c-7.54,-10.843 -16.258,-22.874 -26.363,-32.977c-6.326,-6.325 -13.214,-11.859 -20.748,-15.68c-18.292,-9.236 -38.375,-10.65 -58.605,-8.238c-32.204,3.841 -64.755,17.447 -92.285,27.98c-13.832,5.297 -28.027,11.569 -41.875,18.536c-13.779,6.932 -27.185,14.585 -39.538,22.639c-1.391,0.908 -7.137,6.132 -12.292,9.241Z"/></g><g id="Gorro-dormir" serif:id="Gorro dormir"><path d="M181.976,534.365c-48.718,-152.147 53.312,-286.407 158.101,-388.943c43.173,-42.244 77.109,-83.785 136.184,-105.101c119.145,-42.99 260.138,-28.14 376.922,15.176c48.611,18.031 192.181,110.083 214.977,158.754c14.419,30.788 1.692,65.011 -43.381,73.092" style="fill:#fff;"/><path d="M195.864,529.918c-19.343,-57.945 -15.458,-113.429 2.558,-165.452c27.618,-79.747 87.622,-151.395 148.43,-212.12c25.637,-25.437 47.884,-50.656 74.402,-71.307c16.871,-13.139 35.497,-24.4 57.927,-32.625c58.536,-21.072 122.449,-28.1 186.028,-24.132c63.744,3.978 127.073,19.034 184.416,40.808c27.599,10.574 86.325,46.098 134.998,83.374c33.693,25.804 62.754,52.103 71.517,71.416c5.523,12.192 5.661,25.053 -0.937,35.152c-5.915,9.055 -17.051,15.318 -32.998,17.957c-7.922,1.42 -13.201,9.005 -11.78,16.928c1.42,7.922 9.005,13.201 16.928,11.781c25.499,-4.926 42.211,-16.965 51.334,-31.756c11.047,-17.911 11.661,-40.305 1.493,-61.321c-10.364,-21.451 -42.721,-51.211 -81.22,-79.327c-51.443,-37.569 -113.314,-73.018 -142.219,-83.389c-59.384,-21.506 -124.848,-35.545 -190.517,-39.086c-65.971,-3.557 -132.207,3.465 -192.883,25.409c-24.346,8.642 -44.602,20.615 -63.016,34.6c-27.326,20.754 -50.491,46.068 -77.023,71.67c-64.462,61.803 -127.662,135.387 -158.218,217.591c-21.198,57.026 -26.79,118.183 -6.997,182.723c2.454,7.666 10.67,11.896 18.336,9.442c7.665,-2.455 11.896,-10.671 9.441,-18.336Z" style="fill-opacity:0.85;"/><path d="M507.031,586.727c-5.581,-2.51 23.656,-9.664 26.99,-11.005c20.105,-8.083 42.975,-15.218 63.665,-21.617c14.603,-4.516 28.005,-16.574 43,-21.63c45.965,-15.5 102.356,-20.626 150.513,-25.425c92.135,-9.182 190.156,-12.908 282.904,-12.908c43.741,0 95.75,13.868 138.296,1.148c15.372,-4.596 14.132,-43.828 11.382,-54.644c-32.087,-126.219 -102.173,-179.008 -120.466,-216.161c-30.892,-62.741 -143.739,-11.254 -199.961,-4.68c-154.18,18.029 -301.87,49.531 -447.758,103.967c-72.959,27.223 -146.232,46.99 -206.591,98.66c-32.552,27.866 -57.762,57.816 -77.665,96.043c-21.123,40.572 14.433,64.656 31.642,98.275c5.488,10.721 36.719,80.556 43.494,76.994c39.641,-20.842 76.701,-46.15 117.63,-65.647c28.473,-13.563 57.675,-24.691 87.696,-33.769c10.158,-3.072 19.886,-6.478 30.353,-8.358c5.082,-0.912 20.352,-3.037 15.189,-3.037c-6.842,-0 -13.429,0.077 -20.248,0.769" style="fill:#abe9f6;"/><path d="M497.61,597.986c0.967,0.74 2.104,1.429 3.441,2.041c5.272,2.371 11.215,1.347 15.367,-2.138c5.04,1.774 20.797,-7.943 22.964,-8.831c7.827,-3.208 16.086,-6.273 24.469,-9.201c12.721,-4.442 25.719,-8.581 37.948,-12.454c3.697,-1.171 7.341,-2.706 10.938,-4.51c10.727,-5.378 20.974,-13.635 32.293,-17.537c17.847,-6.153 37.341,-10.684 57.298,-14.229c30.314,-5.386 61.669,-8.532 90.119,-11.555c45.843,-4.845 93.156,-8.342 140.555,-10.694c47.415,-2.353 94.91,-3.567 141.101,-3.842c30.357,-0.16 64.729,6.331 97.123,6.003c15.293,-0.155 30.169,-1.765 44.087,-6.001c7.906,-2.407 14.011,-9.846 17.083,-20.459c4.513,-15.592 3.082,-38.192 0.96,-46.367c-9.722,-37.595 -22.724,-68.791 -36.723,-95.072c-33.223,-62.373 -72.264,-96.357 -85.302,-122.602c-11.814,-23.827 -33.634,-33.71 -60.273,-35.334c-47.28,-2.883 -110.752,21.656 -148.691,26.158c-77.435,9.003 -153.216,21.501 -228.009,38.357c-74.827,16.864 -148.675,38.096 -222.07,65.189c-44.183,16.246 -88.451,29.821 -129.995,49.245c-28.256,13.21 -55.252,29.113 -80.178,50.23c-16.875,14.281 -31.841,29.126 -45.199,45.303c-13.408,16.239 -25.177,33.834 -35.596,53.572c-10.416,19.727 -9.571,36.319 -3.726,51.744c7.326,19.338 24.338,36.583 34.726,57.205c4.444,8.823 25.691,56.574 37.469,73.309c4.913,6.98 10.303,9.97 13.226,10.606c3.462,0.754 6.549,0.163 9.305,-1.263c28.003,-14.492 54.746,-31.192 82.439,-46.537c11.485,-6.364 23.137,-12.485 35.123,-18.1c13.943,-6.527 28.06,-12.455 42.363,-17.836c14.353,-5.4 28.896,-10.236 43.633,-14.577c6.012,-1.771 11.87,-3.663 17.824,-5.276c3.601,-0.974 7.239,-1.834 10.981,-2.479c2.878,-0.495 8.798,-1.362 12.927,-2.068Zm7.122,-27.975c8.104,-3.135 21.627,-6.718 23.927,-7.624c8.325,-3.282 17.104,-6.411 26.015,-9.388c13.044,-4.359 26.366,-8.408 38.899,-12.192c10.993,-3.319 21.197,-11.357 32.103,-16.755c3.498,-1.731 7.045,-3.265 10.666,-4.459c19.199,-6.33 40.128,-10.939 61.546,-14.452c30.99,-5.084 63.007,-7.908 92.063,-10.613c46.339,-4.339 94.147,-7.302 142.028,-9.106c47.771,-1.799 95.61,-2.451 142.124,-2.173c30.346,0.159 64.635,7.022 97.019,7.026c13.286,0.002 26.235,-1.173 38.363,-4.733c1.638,-0.481 2.072,-2.534 2.847,-4.565c1.329,-3.48 2.129,-7.646 2.603,-11.925c1.141,-10.286 0.453,-21.226 -0.729,-25.971c-8.99,-35.987 -21.14,-65.898 -34.318,-91.104c-32.825,-62.782 -71.706,-97.142 -84.589,-123.545c-8.719,-17.833 -25.469,-24.45 -45.346,-25.751c-46.285,-3.03 -108.445,21.286 -145.612,25.568c-76.806,9.032 -152.016,21.313 -226.143,38.344c-73.976,16.996 -146.856,38.723 -219.295,66.042c-43.485,16.463 -87.105,30.221 -127.946,49.812c-26.489,12.707 -51.789,27.904 -75.061,48.034c-15.711,13.603 -29.636,27.701 -42.019,43.049c-12.291,15.232 -23.041,31.709 -32.516,50.162c-6.494,12.65 -6.06,23.208 -2.215,32.993c7.3,18.577 24.214,34.834 34.498,54.607c4.139,7.96 23.018,49.429 34.725,67.126c24.82,-13.7 48.751,-28.927 73.476,-43.05c11.923,-6.81 24.028,-13.362 36.486,-19.396c14.49,-7.023 29.173,-13.416 44.053,-19.251c14.909,-5.847 30.018,-11.12 45.341,-15.874c5.859,-1.818 11.577,-3.739 17.373,-5.424c2.342,-3.397 6.104,-5.782 10.527,-6.23l21.719,-0.696c3.179,0.023 5.589,0.673 7.388,1.514Zm11.873,5.715c-0.939,-0.857 -2.113,-1.647 -3.593,-2.3c1.338,0.602 2.541,1.381 3.593,2.3Z"/><path d="M582.079,256.612c0.696,-1.046 -14.136,17.608 -18.123,22.765c-12.685,16.407 -24.396,32.358 -33.312,51.227c-26.633,56.356 -36.319,129.829 -40.471,191.623c-5.475,81.482 -20.092,162.098 -29.088,243.228c-6.609,59.597 -6.906,120.083 -14.76,179.484c-5.722,43.283 -5.489,86.201 -5.489,129.769c0,13.909 -0.951,27.773 2.53,41.357c1.845,7.201 14.187,21.253 6.754,21.253c-9.822,-0 -28.767,-31.943 -33.73,-38.32c-37.842,-48.618 -54.456,-97.933 -76.73,-154.816c-39.639,-101.229 -111.791,-189.562 -135.249,-295.08c-12.644,-56.875 -51.82,-89.774 -46.334,-148.987c5.877,-63.431 4.479,-82.04 29.06,-139.625" style="fill:#fff;"/><path d="M433.333,1108.72c-4.569,-6.547 -8.388,-12.541 -10.244,-14.932c-14.618,-18.901 -25.973,-37.895 -35.672,-57.427c-14.951,-30.108 -26.015,-61.468 -39.157,-95.542c-27.211,-70.954 -70.33,-135.719 -101.602,-204.376c-13.2,-28.98 -24.211,-58.675 -30.871,-89.866c-8.602,-40.49 -30.513,-69.127 -40.603,-103.376c-3.743,-12.703 -5.616,-26.281 -4.024,-41.87c3.895,-37.986 4.884,-59.532 10.795,-83.432c3.654,-14.773 9.265,-30.44 18.595,-51.68c3.159,-7.403 -0.285,-15.978 -7.688,-19.138c-7.402,-3.16 -15.978,0.285 -19.137,7.687c-9.671,23.328 -15.335,40.533 -18.985,56.692c-5.676,25.117 -6.452,47.645 -9.746,87.447c-1.606,19.318 0.982,36.073 5.906,51.697c10.579,33.563 32.907,61.29 42.135,101.032c7.551,32.669 19.628,63.691 33.973,93.941c32.179,67.858 75.975,131.732 104.052,201.977c13.701,34.47 25.362,66.159 40.798,96.613c10.35,20.421 22.364,40.301 37.833,60.049c3.829,4.907 15.819,24.476 25.804,34.042c5.266,5.044 10.635,7.495 14.625,7.49c3.758,-0.004 6.137,-1.397 7.73,-2.941c2.4,-2.327 3.936,-6.095 2.496,-11.195c-1.291,-4.572 -7.533,-12.72 -8.786,-17.643c-1.248,-4.902 -1.839,-9.846 -2.118,-14.814c-0.455,-8.099 -0.094,-16.263 -0.081,-24.443c0.063,-26.023 0.019,-51.813 1.267,-77.584c0.823,-16.994 2.222,-33.977 4.545,-51.016c2.46,-17.994 4.217,-36.09 5.696,-54.231c3.403,-41.763 5.213,-83.77 10.074,-125.329c6.733,-56.716 16.191,-113.158 23.396,-169.837c3.115,-24.506 5.818,-49.052 7.688,-73.688c2.757,-36.25 7.465,-76.575 16.522,-114.928c5.992,-25.372 13.922,-49.857 24.478,-71.639c3.374,-6.964 7.177,-13.481 11.264,-19.774c6.394,-9.844 13.524,-19.116 20.975,-28.561c3.038,-3.851 12.365,-15.369 16.341,-20.202c0.254,-0.308 0.49,-0.612 0.706,-0.916c0.704,-0.692 1.346,-1.467 1.913,-2.321c0.168,-0.258 0.182,-0.768 0.056,-1.462c1.305,-4.326 -1.126,-7.708 -4.895,-10.175c-4.965,-7.036 -12.926,-12.906 -20.439,-3.396c-3.968,5.022 -13.272,16.985 -16.302,20.984c-7.795,10.289 -15.225,20.402 -21.877,31.097c-4.563,7.336 -8.781,14.93 -12.508,23.022c-10.908,23.679 -18.979,50.194 -24.923,77.637c-8.62,39.801 -12.832,81.537 -15.019,119.041c-1.419,24.27 -3.641,48.468 -6.311,72.629c-6.279,56.831 -14.921,113.447 -20.782,170.302c-4.386,41.841 -5.646,84.099 -8.631,126.123c-1.265,17.822 -2.858,35.6 -5.117,53.285c-2.249,17.564 -3.526,35.064 -4.26,52.568c-1.092,26.038 -0.97,52.086 -0.906,78.371c0.014,8.508 -0.312,17 0.188,25.422c0.171,2.871 0.434,5.733 0.833,8.586Z" style="fill-opacity:0.85;"/><path d="M401.774,1075.33c0.638,-2.313 -40.709,20.82 -46.377,29.218c-17.521,25.964 -26.246,74.803 -20.666,105.871c11.783,65.602 112.401,102.589 167.385,75.882c28.677,-13.929 46.694,-134.361 18.123,-160.122c-19.619,-17.69 -55.607,-42.883 -83.053,-42.883c-8.031,0 -74.514,1.148 -43,1.148" style="fill:#fff;"/><path d="M378.996,1070.82c-1.183,0.215 -2.341,0.466 -3.47,0.748c-12.24,2.198 -17.655,6.178 -18.406,10.415c-1.023,1.554 -1.507,3.145 -1.337,4.702c-5.449,4.162 -9.724,7.949 -11.338,10.473c-9.289,14.466 -16.29,35.057 -19.828,56.373c-3.454,20.815 -3.825,42.209 -0.471,58.79c7.034,35.785 37.54,63.842 74.347,78.923c36.125,14.801 77.877,17.184 107.319,2.669c5.36,-2.572 10.634,-7.837 15.322,-15.379c9.666,-15.548 17.389,-41.839 21.034,-68.787c3.065,-22.662 3.196,-45.73 -0.542,-63.22c-2.674,-12.515 -7.605,-22.347 -14.089,-28.441c-11.982,-11.296 -29.986,-25.382 -48.632,-35.253c-14.137,-7.483 -28.751,-12.296 -41.719,-12.604c-2.685,-0.067 -11.841,-0.165 -21.732,-0.238c-0.477,-1.223 -1.123,-2.325 -1.88,-3.317c-1.873,-2.454 -6.356,-7.806 -15.196,-5.738c-1.28,0.299 -4.214,1.264 -8.028,3.272c-3.023,1.592 -6.999,3.908 -11.354,6.612Zm7.81,27.866c-4.239,2.4 -8.539,4.978 -12.301,7.442c-3.727,2.441 -7.054,4.263 -8.156,5.813c-8.235,11.621 -14.516,28.519 -18.233,46.031c-3.772,17.772 -5.06,36.157 -2.799,50.547c4.828,29.67 30.183,52.919 60.237,66.022c30.989,13.51 67.224,16.419 92.866,4.151c4.486,-2.212 8.138,-8.163 11.665,-15.838c6.595,-14.353 11.364,-34.7 13.549,-55.343c1.809,-17.089 1.751,-34.398 -0.628,-48.711c-1.807,-10.871 -4.7,-19.879 -10.065,-24.526c-11.179,-9.64 -27.819,-21.612 -44.921,-29.684c-10.592,-4.999 -21.338,-8.45 -30.834,-8.225c-4.121,0.103 -23.744,0.901 -37.393,1.543c-1.727,0.722 -3.621,1.12 -5.607,1.12c-2.611,-0.069 -5.068,-0.183 -7.38,-0.342Z"/><path d="M666.938,227.056c-10.649,-18.021 -11.466,-21.76 -16.831,-29.389c-2.858,-4.063 -6.95,-9.223 -14.434,-18.045c-31.814,-37.559 -65.114,-50.227 -97.14,-47.422c-46.976,4.115 -92.385,43.378 -126.444,90.712c-6.989,9.666 -11.187,19.224 -13.802,28.861c-5.735,21.135 -3.157,42.596 -8.856,66.377c-3.681,15.159 -6.141,29.185 -7.969,42.699c-4.454,32.904 -4.981,62.714 -9.682,98.781c-3.7,26.702 -12.646,52.188 -18.22,78.661c-2.475,11.752 -4.327,23.687 -4.842,35.995c-2.183,49.039 -1.475,98.506 3.016,147.578c4.517,49.363 12.912,98.307 26.592,145.991c7.024,24.61 9.08,47.314 16.076,69.548c3.246,10.315 7.525,20.504 13.546,30.745c4.2,6.866 13.184,9.031 20.05,4.831c6.866,-4.2 9.031,-13.184 4.831,-20.05c-6.994,-10.998 -11.342,-22.045 -14.649,-33.346c-5.539,-18.924 -8.511,-38.437 -15.175,-59.209c-14.641,-45.822 -24.341,-93.004 -29.971,-140.74c-5.665,-48.032 -7.25,-96.578 -6.186,-144.744c0.279,-11.299 1.769,-22.283 3.902,-33.094c5.307,-26.912 14.21,-52.82 17.731,-79.924c4.97,-35.98 5.626,-65.758 10.421,-98.569c1.887,-12.908 4.457,-26.289 8.174,-40.742c6.096,-23.407 3.854,-44.703 9.969,-65.484c2.191,-7.444 5.634,-14.791 11.234,-22.177c25.579,-33.59 57.019,-63.241 90.519,-74.315c31.748,-10.495 64.879,-2.372 95.714,36.402c6.406,8.072 9.931,12.759 12.357,16.46c4.779,7.293 5.322,10.867 14.718,28.032c3.98,6.996 12.892,9.444 19.887,5.464c6.996,-3.98 9.444,-12.892 5.464,-19.887Z" style="fill:#aeebf9;fill-opacity:0.62;"/><path d="M828.833,196.743c-8.987,-12.638 -17.978,-26.895 -26.882,-39.305c-4.522,-6.302 -9.017,-12.161 -13.486,-17.174c-16.776,-18.829 -40.256,-40.958 -65.342,-58.257c-17.729,-12.225 -36.243,-22.079 -53.83,-26.947c-41.372,-11.487 -107.419,-1.18 -170.718,19.602c-61.872,20.313 -121.106,50.227 -151.337,77.871c-11.843,10.774 -22.252,23.772 -31.385,37.85c-13.285,20.481 -23.874,43.257 -32.132,64.692c-18.248,46.455 -41.92,100.986 -56.294,155.575c-10.036,38.114 -15.543,76.278 -11.659,112.002c2.454,22.944 7.676,44.742 14.244,66.018c14.925,48.347 37.205,93.833 49.747,143.956c9.296,37.314 19.023,64.4 27.42,96.361c3.289,12.517 6.345,25.802 9.106,40.805c1.57,7.894 9.253,13.029 17.147,11.46c7.894,-1.569 13.03,-9.252 11.46,-17.146c-3.348,-15.677 -6.966,-29.536 -10.779,-42.59c-9.241,-31.63 -19.619,-58.382 -29.861,-95.334c-13.884,-50.288 -37.488,-95.659 -53.654,-144.122c-6.625,-19.86 -11.962,-40.252 -14.719,-61.772c-4.222,-33.4 0.38,-69.257 9.311,-105.085c13.478,-54.066 36.661,-108.015 54.265,-154.029c6.644,-17.03 14.783,-34.981 24.755,-51.746c9.766,-16.419 21.291,-31.696 34.835,-43.788c29.231,-25.937 86.264,-53.494 145.637,-71.779c58.835,-18.119 119.999,-27.368 157.986,-15.917c15.115,4.569 30.847,13.634 45.921,24.59c22.883,16.632 44.103,37.781 59.216,55.66c3.756,4.446 7.493,9.641 11.265,15.205c8.553,12.617 17.141,27.081 25.77,39.929c4.577,6.621 13.668,8.28 20.289,3.704c6.621,-4.577 8.281,-13.668 3.704,-20.289Z" style="fill:#aeebf9;fill-opacity:0.62;"/><path d="M927.237,191.919c-4.922,-14.157 -8.916,-21.698 -13.425,-27.157c-6.65,-8.052 -14.11,-10.559 -27.297,-27.251c-5.806,-8.065 -14.624,-16.472 -24.109,-25.703c-5.859,-5.701 -11.877,-11.802 -17.986,-17.914c-5.962,-5.964 -11.815,-12.013 -17.394,-17.982c-8.63,-9.236 -16.135,-18.247 -21.658,-26.266c-5.154,-6.182 -14.358,-7.016 -20.539,-1.861c-6.182,5.154 -7.016,14.358 -1.862,20.539c10.182,10.242 25.083,21.307 40.349,33.11c8.826,6.824 17.818,13.71 25.656,20.975c9.318,8.637 16.853,17.704 21.946,25.664c10.507,18.273 17.61,21.721 22.802,30.672c2.446,4.217 3.647,9.996 5.208,20.197c1.938,7.812 9.854,12.581 17.666,10.643c7.812,-1.938 12.581,-9.854 10.643,-17.666Z" style="fill:#aeebf9;fill-opacity:0.62;"/></g></svg>