<svg viewBox="0 0 1449 2007" xmlns="http://www.w3.org/2000/svg" xml:space="preserve" style="fill-rule:evenodd;clip-rule:evenodd;stroke-linejoin:round;stroke-miterlimit:2"><path d="M584.975 1418c.037-.133-7.815 11.942-11.337 16.172-8.725 10.479-16.091 25.722-17.2 39.404-3.669 45.252-9.148 89.994-11.725 135.436-6.379 112.506-1.228 195.409 36.745 298.648 6.184 16.814 17.548 61.643-8.993 64.025-25.006 2.246-42.781-12.315-64.484-21.104-15.679-6.349-43.471-5.659-56.29-17.236-16.155-14.59-19.053-57.377-26.579-77.043-41.317-107.961-22.103-252.083 37.131-350.719 16.465-27.417 41.111-54.791 73.876-60.859 21.752-4.028 30.006 29.526 36.745 21.467" style="fill:#fff"/><path d="M555.89 1434.54c-6.376-3.523-13.756-5.209-22.307-3.501-15.235 3.035-28.967 9.875-41.073 19.245-16.858 13.046-30.641 30.87-41.1 48.802-29.771 50.943-49.185 113.362-55.801 176.872-6.625 63.601-.508 128.275 21.185 183.536 5.14 13.204 8.224 36.948 14.671 55.394 3.636 10.401 8.389 19.251 14.539 24.763 4.928 4.437 11.594 7.532 19.112 9.734 13.12 3.841 29.184 4.8 39.686 9.056 13.202 5.379 24.969 12.85 37.76 17.467 9.454 3.412 19.42 5.367 30.676 4.389 12.922-1.089 19.958-8.839 23.078-19.851 4.766-16.817-1.846-43.379-6.372-55.898-18.428-51.431-28.737-97.687-33.373-145.131-4.571-46.773-3.597-94.668.146-149.715.923-13.483 2.101-26.897 3.423-40.282 2.882-29.194 6.417-58.228 9.283-87.464 1.28.084 2.539.021 3.768-.15 3.62-.506 7.38-2.212 10.861-6.251 5.163-6.174 4.342-15.379-1.833-20.542a14.417 14.417 0 0 0-4.148-2.433c1.99-3.37 4.231-6.502 6.571-9.237 2.982-3.486 8.817-11.94 11.346-15.626l.436-.672a14.499 14.499 0 0 0 2.618-5.189c.119-.459-17.271-25.758-27.283-10.28-2.042 3.157-6.695 10.444-9.125 13.443a92.743 92.743 0 0 0-6.744 9.521Zm-11.316 26.527c-.27-.244-.547-.48-.832-.708-1.41-1.13-2.971-2.292-5.087-1.931-13.976 2.395-26.239 9.436-36.832 18.698-11.437 10-21.021 22.473-28.747 34.972-29.337 47.556-49.176 106.239-56.674 166.242-7.536 60.312-2.69 121.915 17.027 174.788 5.045 13.413 7.911 37.459 14.256 56.176 2.491 7.351 5.39 13.838 9.693 17.753 3.187 2.887 7.627 4.666 12.501 6.1 13.653 4.016 30.345 5.159 41.281 9.583 13.001 5.232 24.576 12.579 37.172 17.054 7.211 2.561 14.796 4.092 23.361 3.298 6.609-.63 8.161-6.482 8.624-12.913.971-13.496-4.063-30.615-7.345-39.389-19.905-52.743-31.173-100.311-36.918-149.165-5.621-47.798-5.908-96.839-3.344-153.284.617-13.741 1.509-27.418 2.516-41.069 2.334-31.625 5.362-63.088 7.519-94.797.252-3.732.883-7.564 1.829-11.408Z"/><path d="M349.06 1295.48c-9.805 3.293 22.501-23.406 27.751-27.087 22.907-16.058 53.418-34.679 79.739-43.622 26.091-8.865 47.45-27.797 76.608-30.254 55.402-4.669 115.328 43.012 141.093 89.71 6.64 12.036-29.02 28.553-34.787 34.472-11.868 12.182-24.006 24.143-36.18 36.087-28.205 27.675-125.313 264.932-152.19 252.257" style="fill:#fff"/><path d="M361.627 1302.86c6.633-1.094 19.865-20.966 23.026-23.286 10.936-8.023 23.663-16.74 36.868-24.56 12.98-7.687 26.366-14.571 38.826-19.073 18.452-6.665 34.434-18.313 52.568-25.657 6.616-2.679 13.544-4.754 21.108-5.513 25.691-2.526 52.582 7.312 76.045 23.08 23.512 15.801 43.604 37.551 56.034 59.204-2.813.025-4.596 6.202-8.541 9.123-9.469 7.012-21.064 13.326-24.226 16.545l-36.39 35.598c-4.593 4.405-10.951 13.756-18.487 26.496-26.827 45.353-70.595 136.8-103.241 188.045-6.796 10.667-13.097 19.443-18.571 25.476-1.787 1.97-4.739 2.952-5.633 4.116-5.436.035-10.637 3.122-13.109 8.363-3.433 7.28-.31 15.978 6.97 19.411 5.279 2.339 11.398 2.831 18.128-.529 5.888-2.94 13.644-10.234 21.704-21.733 38.165-54.451 102.621-214.046 124.917-236.724l35.97-36.577c4.429-4.57 25.951-15.525 33.625-25.79 4.808-6.431 5.643-12.931 2.459-18.75-13.246-24.398-35.398-49.017-61.329-67.234-26.952-18.933-58.05-30.747-88.054-28.638-9.64.656-18.533 2.96-27.058 6.068-18.04 6.578-34.137 17.425-52.483 23.269-11.312 3.603-23.361 8.89-35.349 14.959-17.194 8.705-34.201 19.117-48.434 28.653-4.523 3.026-26.749 20.79-32.141 27.366-9.872 12.041-.625 21.605 3.978 24.08 2.003 1.078 6.217 2.73 12.896.651a14.499 14.499 0 0 0 7.924-6.439Zm-14.438-21.848c-.853.079-1.776.279-2.773.639a14.381 14.381 0 0 1 2.773-.639Z"/><path d="M497.673 1928c-1.632 0 23.206-9.112 29.753-10.581 23.721-5.323 57.774 1.814 57.774-28.342 0-19.354-19.963-39.803-21.794-59.774-2.332-25.435 6.696-53.654 2.076-78.155-10.27-54.458-7.824-235.223-2.681-291.313 2.964-32.325-94.451 162.054-99.728 208.483-5.767 50.736-23.945 102.486-12.454 154.127 6.242 28.048 13.518 56.902 21.098 84.382 1.724 6.248 6.029 22.114 13.845 22.114" style="fill:#aeebf9"/><path d="M492.201 1936.96c1.292.787 3.061 1.422 5.472 1.451 2.139 0 4.128-.646 5.783-1.755l.803-.349c6.021-2.504 20.671-7.984 25.366-9.095 9.013-2.134 19.6-2.378 29.105-3.715 9.006-1.267 17.173-3.498 23.238-7.801 7.435-5.275 12.582-13.277 12.425-26.624-.057-5.113-1.149-10.293-3-15.492-2.843-7.982-7.475-16.093-11.713-24.205-3.643-6.973-7.082-13.896-7.793-20.854-2.034-19.907 3.043-41.611 2.795-61.79-.071-5.808-.534-11.501-1.633-17.015-4.435-22.509-6.9-66.922-7.768-115.033-1.214-67.316.67-141.802 3.514-174.303.363-3.941-.665-6.307-1.53-7.456-1.969-2.614-4.798-3.827-8.718-1.949-1.269.608-3.102 2.028-5.155 4.471-4.637 5.517-12.155 17.822-21.051 33.977-29.057 52.768-72.932 147.315-76.638 178.053-4.425 35.685-14.914 71.81-17.073 108.13-.965 16.237-.284 32.505 3.15 48.801 2.973 14.113 6.211 28.425 9.604 42.675 3.406 14.3 6.974 28.531 10.625 42.418 1.306 4.973 4.173 14.951 8.524 21.143 3.987 5.673 9.348 8.637 15.029 8.71 2.522 0 4.836-.898 6.639-2.393Zm12.354-16.779c-1.276-1.227-3.378-2.645-6.882-2.603 2.637 0 5.047.983 6.882 2.603Zm51.131-446.897c-15.822 25.494-43.769 82.109-63.449 129.708-11.663 28.209-20.427 53.161-21.795 66.159-3.152 30.451-10.787 61.305-13.76 92.245-1.893 19.694-1.831 39.419 2.777 59.077a1614.974 1614.974 0 0 0 10.448 41.969 1797.08 1797.08 0 0 0 11.519 41.702c1.005 3.475 9.242 10.911 6.724 14.701.965.247 1.876.629 2.711 1.126.482-.401 1.04-.789 1.686-1.153.563-.318 1.954-.987 3.97-1.77 6.818-2.646 23.418-8.31 28.711-9.433 13.327-2.826 29.955-1.431 41.732-5.465 5.319-1.821 8.956-5.445 9.046-13.078.072-6.652-2.9-13.419-6.256-20.325-3.86-7.946-8.352-15.974-11.31-23.954-1.826-4.925-3.119-9.839-3.515-14.717-1.661-20.458 3.853-42.617 4.029-63.316.041-4.835-.22-9.582-1.04-14.19-4.158-23.086-5.845-68.528-6.125-117.727-.339-59.43 1.36-124.38 3.897-161.559Z"/><path d="M338.463 1254.13c-.449-.602-8.448 6.849-9.759 8.111-10.428 10.037-21.81 18.927-31.677 29.588-24.093 26.033-53.265 46.867-79.567 70.532-18.421 16.575-35.128 37.609-49.695 57.561-6.489 8.887-13.81 16.864-20.869 25.265-5.59 6.652-10.822 13.577-16.514 20.136-5.02 5.784-9.35 11.883-13.961 17.967-11.94 15.756-33.473 42.831-27.322 65.128 2.146 7.783 21.356 14.381 27.772 17.703 28.857 14.939 65.104 41.628 48.34 77.422-15.619 33.35-41.257 62.776-58.099 95.797-20.567 40.325-33.189 84.051-54.649 124.035-10.072 18.765-16.323 38.525-17.865 59.589-.331 4.517-2.594 13.693-.297 17.838 2.292 4.135 8.026 6.755 12.01 8.914 10.608 5.747 25.11 5.553 36.631 7.433 24.347 3.972 48.505 7.633 73.114 9.865 80.558 7.309 159.717 12.16 240.506 12.16 28.582 0 54.785-2.437 82.422-9.323 5.959-1.485 22.981-6.55 24.922-13.65 1.495-5.463-4.902-10.38-6.156-15.265-3.236-12.612-2.217-28.413-1.648-41.348 1.461-33.201.459-66.807 2.549-99.985 1.265-20.091 4.058-39.567 4.058-59.859 0-30.567-6.149-63.223-2.252-93.634 2.464-19.231 12.164-37.092 15.91-55.94 6.065-30.507 5.383-65.491 23.72-92.557 5.965-8.805 11.492-18.697 18.771-26.482 5.574-5.962 13.222-9.505 18.765-15.674 12.509-13.921 29.385-41.097 24.923-61.075-1.087-4.864-14.905 1.591-16.965 2.433-8.962 3.662-47.548 44.012-76.304 85.105-20.943 29.926-33.731 63.99-40.493 66.202-1.734.567 10.788-44.109 20.417-92.034 10.464-52.076 18.065-107.988 14.806-113.858-11.141-20.06-13.929-43.318-34.03-56.887-11.826-7.984-28.014-7.594-41.134-12.702-20.798-8.099-37.339-15.385-60.504-16.078-3.004-.09-16.923-2.967-19.067-1.082-1.257 1.104-1.015 8.485-1.351 10.405" style="fill:#aeebf9"/><path d="M488.626 1499.34c3.035-12.758 6.286-26.981 9.274-41.504 5.854-28.45 10.859-58.043 13.699-80.119 1.948-15.134 2.832-26.909 2.447-32.776-.232-3.535-1.086-5.947-1.816-7.277-7.889-14.362-11.657-30.274-20.219-43.306-4.234-6.444-9.52-12.244-16.596-17.069-4.386-2.993-9.255-5.075-14.379-6.655-9.342-2.881-19.703-3.742-28.587-7.254-13.016-5.145-24.426-9.932-36.726-13.119-8.387-2.173-17.174-3.607-27.077-3.954-2.733-.096-13.826-2.174-18.655-1.684-2.09.212-3.804.783-5.16 1.476-2.76-1.974-7.869-3.999-13.533.09-2.646 1.91-8.601 7.453-9.774 8.593-7.233 7.03-14.936 13.499-22.257 20.407-3.326 3.138-6.578 6.36-9.685 9.75-6.982 7.618-14.41 14.782-22.074 21.704-18.418 16.633-38.159 31.906-56.49 48.56-7.626 6.929-14.971 14.593-21.992 22.636-10.3 11.8-19.915 24.407-28.743 36.621-2.459 3.403-5.045 6.667-7.692 9.874-4.158 5.038-8.46 9.941-12.667 14.996l-16.335 20.098-14.259 18.489c-7.4 9.852-18.268 23.958-24.543 38.648-4.897 11.466-7.003 23.303-3.965 34.137 1.162 4.142 4.801 8.539 10.244 12.12 7.092 4.666 17.461 8.51 21.924 10.797 15.853 8.121 34.333 19.796 43.37 35.077 5.413 9.152 7.053 19.678 1.6 31.451-3.021 6.523-6.437 12.893-10.1 19.169-15.051 25.786-34.073 50.056-47.474 76.594-16.4 32.44-27.701 67.039-42.518 100.17-3.62 8.092-7.451 16.096-11.633 23.954-5.212 9.785-9.431 19.827-12.545 30.162-3.146 10.443-5.173 21.184-5.952 32.267-.224 3.185-1.328 8.599-1.296 13.099.024 3.368.671 6.368 1.888 8.55 1.101 1.971 2.659 3.759 4.536 5.329 3.072 2.57 7.096 4.561 10.214 6.239 3.754 2.019 7.913 3.431 12.277 4.433 8.738 2.008 18.354 2.316 26.511 3.623 14.691 2.353 29.313 4.591 44.005 6.479 9.821 1.262 19.673 2.37 29.598 3.246 40.349 3.579 80.348 6.529 120.372 8.595 40.086 2.07 80.199 3.254 120.719 3.205 14.496-.012 28.389-.642 42.161-2.141 13.865-1.509 27.608-3.898 41.717-7.425 4.367-1.087 14.157-3.99 20.774-8.089 4.481-2.776 7.544-6.29 8.509-9.813.83-3.027.447-5.975-.742-8.844-1.373-3.314-4.579-6.385-5.38-9.513-1.204-4.703-1.746-9.888-1.954-15.182-.326-8.293.177-16.845.514-24.398 1.059-23.274.91-46.748 1.462-70.134.234-9.933.598-19.85 1.237-29.727.923-14.09 2.597-27.875 3.532-41.854.407-6.083.674-12.202.69-18.396.054-21.368-2.883-43.763-3.315-65.695-.181-9.155.086-18.228 1.246-27.099.707-5.414 2.04-10.707 3.637-15.947 4.033-13.223 9.66-26.123 12.362-39.512 3.688-18.226 4.951-38.068 9.347-56.835 2.743-11.707 6.737-22.988 13.61-33.058 3.573-5.236 6.99-10.861 10.719-16.189 2.31-3.302 4.743-6.485 7.441-9.35 4.302-4.571 9.922-7.589 14.715-11.668a44.809 44.809 0 0 0 4.209-4.055c7.932-8.766 17.487-22.505 23.008-36.664 4.137-10.608 5.931-21.474 3.857-30.937-1.006-4.591-4.37-7.495-10.005-7.711-5.415-.208-15.347 3.973-17.218 4.729-5.106 2.062-19.502 14.799-36.23 33.187-14.027 15.42-30.022 34.794-43.818 54.34-4.712 6.675-9.026 13.555-12.969 20.254l-1.052 1.805Zm-129.913-233.405c-.259.777-.475 1.412-.532 1.751-.994 5.663-6.397 9.454-12.06 8.461a10.419 10.419 0 0 1-8.286-7.66c-.95.55-1.707.983-1.951 1.215-7.375 7.031-15.215 13.496-22.678 20.403-2.996 2.772-5.931 5.616-8.734 8.616-7.488 8.013-15.438 15.547-23.644 22.815-18.567 16.446-38.446 31.519-56.926 47.986-8.935 7.961-17.458 17.003-25.521 26.453-8.201 9.614-15.931 19.643-23.135 29.41-2.728 3.698-5.589 7.247-8.521 10.73-4.223 5.017-8.587 9.897-12.858 14.931l-16.693 20.173-13.662 17.446c-6.796 8.889-16.922 21.52-22.734 34.812-3.284 7.51-5.31 15.2-3.481 22.353.291.308 1.36 1.42 2.173 2.021 1.748 1.295 3.855 2.507 6.035 3.638 5.804 3.012 12.084 5.481 15.247 7.136 18.381 9.615 39.354 23.916 49.727 41.802 7.886 13.597 10.193 29.178 1.983 46.513-3.29 6.947-6.997 13.73-10.97 20.409-15.112 25.404-34.175 49.257-47.653 75.423-16.519 32.104-27.96 66.402-42.912 99.204-3.811 8.362-7.845 16.629-12.237 24.742-4.829 8.929-8.759 18.094-11.667 27.539-2.908 9.447-4.801 19.171-5.566 29.211-.173 2.276-.825 5.714-1.164 9.118-.187 1.876-.657 3.754-.022 4.907.642 1.167 1.882 2.002 3.13 2.817 2.05 1.338 4.3 2.439 6.141 3.443 3.653 1.993 7.863 3.114 12.216 3.906 7.505 1.367 15.412 1.767 22.259 2.904 14.541 2.416 29.014 4.723 43.56 6.672 9.642 1.292 19.317 2.426 29.064 3.335 40.176 3.725 80.004 6.854 119.864 9.04 39.863 2.186 79.756 3.43 120.057 3.479 14.047.01 27.512-.574 40.86-2.006 13.328-1.431 26.541-3.705 40.107-7.074 2.748-.685 8.031-2.182 12.873-4.333 2.337-1.038 4.576-2.214 6.254-3.566.63-.508 1.271-.905 1.433-1.499.367-1.344-.913-2.391-1.708-3.627-1.297-2.013-2.675-4.01-3.564-5.974a15.794 15.794 0 0 1-.918-2.571c-1.411-5.485-2.093-11.527-2.343-17.703-.35-8.637.145-17.545.487-25.414.986-23.188.768-46.573 1.243-69.872.206-10.102.54-20.189 1.155-30.237.853-14.099 2.457-27.896 3.321-41.884.36-5.815.588-11.664.574-17.584-.054-21.279-3.102-43.565-3.643-65.404-.243-9.819.012-19.549 1.208-29.07.772-6.144 2.231-12.161 4.01-18.113 3.834-12.825 9.272-25.328 11.812-38.308 3.59-18.39 4.747-38.387 9.048-57.327 3.047-13.42 7.647-26.314 15.434-37.894 3.568-5.306 6.979-11.001 10.703-16.402 2.686-3.894 5.535-7.637 8.679-11.023 1.321-1.423 2.741-2.732 4.221-3.973 4.704-3.943 10.21-6.973 14.386-11.652 6.899-7.733 15.229-19.814 19.975-32.262 2.186-5.735 3.649-11.54 3.599-16.951-2.898.969-6.588 2.217-7.301 2.512-4.39 1.815-16.098 13.555-30.399 29.533-13.511 15.096-28.907 34.046-42.161 53.15-16.245 23.43-27.483 49.372-34.833 60.609-3.51 5.367-7.151 8.134-9.668 8.97-3.509 1.166-6.397.272-8.786-2.186-.739-.76-2.752-3.04-2.383-7.431.128-1.526.744-4.802 1.788-9.474 3.443-15.415 11.714-48.223 18.477-82.708 3.758-19.162 7.122-38.843 9.705-56.327 2.744-18.573 4.603-34.631 5.077-44.835.138-2.974.002-6.247-.055-7.384-6.414-11.765-10.135-24.556-16.246-35.794-3.452-6.351-7.777-12.147-14.443-16.602-2.794-1.866-5.923-3.071-9.175-4.037-9.862-2.932-20.742-3.859-30.128-7.459-12.238-4.693-22.947-9.133-34.496-11.999-7.042-1.748-14.412-2.878-22.708-3.083-1.218-.03-5.51-.472-9.32-.886Zm-21.115-1.427a10.381 10.381 0 0 1-7.479-4.142c1.565 2.117 3.907 3.981 7.479 4.143v-.001Z"/><path d="M136.794 1523.54c-3.971 0-12.411 13.466-14.946 16.579-18.535 22.752-24.474 53.894-32.31 81.306-15.072 52.726-35.703 102.3-41.002 157.917-3.708 38.911 2.38 77.664 3.47 116.324.46 16.303-8.392 81.924 15.988 91.31 10.105 3.89 21.102 3.312 31.623 4.062 77.736 5.539 62.894-49.735 71.571-112.263 7.522-54.207 17.109-111.37 34.394-163.225 14.17-42.507 37.784-78.336 53.51-119.461 3.199-8.368 18.964-39.713 10.078-39.713" style="fill:#fff"/><path d="M256.536 1563.65c-.458 1.831-1.057 4.028-1.667 5.746-3.037 8.554-7.22 17.771-8.665 21.763-10.473 28.798-24.857 55.05-37.108 82.812-5.405 12.251-10.428 24.769-14.567 37.893-6.755 21.285-12.234 43.414-16.841 65.861-6.804 33.156-11.715 66.984-15.846 99.751-4.667 35.887-.562 69.363-12.98 89.426-7.481 12.085-21.796 17.551-48.646 15.718-6.19-.458-12.55-.435-18.785-1.185-3.528-.424-7.014-1.111-10.374-2.415-2.738-1.063-4.516-3.559-5.994-6.599-2.573-5.292-3.917-12.198-4.68-19.616-2.254-21.909.893-47.974.693-57.397-.487-27.063-3.458-54.192-3.733-81.368-.113-11.235.272-22.474 1.486-33.719 2.348-21.498 7.072-42.022 12.857-62.171 8.987-31.297 20.537-61.671 30.073-93.233 4.851-15.948 9.034-33.212 15.597-49.201 3.95-9.625 8.842-18.736 15.499-26.632 1.687-2 13.107-8.636 10.431-12.49 4.795-2.388 8.091-7.34 8.091-13.056 0-8.049-6.534-14.584-14.583-14.584-3.536.061-8.966 1.553-13.862 6.427-4.469 4.45-10.074 13.204-12.092 15.769-8.175 10.389-14.181 22.179-18.82 34.663-6.315 16.998-10.18 35.224-14.703 52.117-8.608 31.912-19.225 62.706-27.328 94.326-5.502 21.476-9.892 43.309-11.747 66.104-.997 12.059-1.094 24.09-.7 36.105.892 27.222 4.354 54.347 5.394 81.455.393 11.194-3.166 45.164 1.866 69.123 3.105 14.783 9.788 25.936 20.13 29.885 4.712 1.799 9.579 2.802 14.517 3.368 6.498.746 13.119.713 19.568 1.155 35.998 2.674 54.241-7.291 64.461-23.384 13.65-21.491 11.358-57.368 17.056-95.997 4.87-32.141 10.457-65.324 18.03-97.767 5.028-21.536 10.962-42.725 18.072-63.07 4.268-12.142 9.356-23.686 14.783-34.972 13.421-27.906 28.913-54.226 40.56-83.246 1.866-4.628 7.64-16.178 11.063-25.74 2.535-7.081 3.541-13.566 3.182-17.586-.494-5.539-3.091-9.331-6.074-11.932-2.747-2.396-6.329-3.878-10.98-3.966-8.048 0-14.583 6.534-14.583 14.583 0 2.65.708 5.135 1.949 7.276Zm10.791 7.187c.583.09 1.197.132 1.843.12-.624 0-1.24-.039-1.843-.12Z"/><path d="M295.557 1299.22c-1.31-4.747-35.997 23.663-39.012 26.741-35.545 36.278-66.116 76.069-96.653 116.432-28.489 37.657-62.21 75.857-85.235 117.24-45.885 82.467-64.24 169.261-64.24 263.105 0 33.102 3.859 68.534 9.606 101.302 1.036 5.904 4.135 26.194 10.211 28.904 17.636 7.869 51.924-6.768 69.929-9.996 10.627-1.906 64.466-.609 70.84-6.21 16.266-14.295 7.098-59.449 10.201-78.878 10.356-64.843 32.734-131.015 57.928-191.532 9.179-22.047 28.381-38.391 37.824-59.692 9.52-21.475 11.527-46.355 21.608-68.073 1.278-2.754 22.401-36.932 21.608-37.286-2.301-1.026-9.16 4.024-11.407 4.864" style="fill:#aeebf9"/><path d="M304.769 1496.52c-5.154 2.135-7.73 7.996-5.762 13.263a10.369 10.369 0 0 0 2.574 3.897c-5.462 9.366-11.329 19.272-11.982 20.716-2.127 4.699-3.919 9.525-5.486 14.433-5.732 17.955-8.262 37.065-15.617 54.052-7.255 16.753-20.757 30.383-30.324 46.293-2.661 4.427-5.061 9.004-7.02 13.827-12.443 30.581-24.152 62.58-34.021 95.103-9.905 32.644-17.967 65.81-22.973 98.626-2.01 13.124 1.593 37.871-.743 57.089-.893 7.349-2.459 13.851-6.529 17.678-.442.148-1.983.648-3.165.886-3.619.73-8.549 1.247-14.066 1.649-18.699 1.363-43.691 1.43-50.605 2.703-12.108 2.216-31.61 9.693-48.397 11.852-6.694.861-12.895.947-17.684-1.079-.204-.275-.9-1.243-1.262-1.971-1.07-2.154-1.952-4.9-2.707-7.718-1.568-5.854-2.541-12.021-3.036-14.826-2.831-16.216-5.201-33.089-6.85-50.005-1.649-16.917-2.576-33.876-2.553-50.255.195-46.412 4.873-91.07 15.308-134.278 10.398-43.056 26.528-84.652 49.388-125.155 9.206-16.255 20.111-31.986 31.688-47.381 17.554-23.344 36.652-45.904 53.871-68.293 18.444-23.962 36.891-47.721 56.423-70.624 12.901-15.128 26.282-29.87 40.437-44.059 2.173-2.179 21.932-18.171 31.373-23.325a10.282 10.282 0 0 0 3.278-.362c5.542-1.529 8.8-7.269 7.271-12.811-.801-2.806-2.361-4.858-4.529-6.277-2.104-1.377-7.662-3.136-14.614.531-10.365 5.467-34.479 25.608-37.041 28.27-14.249 14.806-27.69 30.17-40.647 45.907-19.325 23.472-37.574 47.763-55.798 72.274-16.891 22.699-35.65 45.608-52.872 69.262-11.735 16.119-22.767 32.575-32.041 49.543-23.017 41.969-39.019 84.993-49.264 129.413-10.21 44.269-14.719 89.929-14.52 137.365.024 16.77 1.031 34.13 2.758 51.446 1.717 17.218 4.144 34.394 7.053 50.898.715 4.104 2.412 14.801 5.295 22.422 2.115 5.593 5.287 9.593 8.384 10.979 6.562 2.95 15.115 3.399 24.415 2.263 17.01-2.077 36.824-9.435 49.099-11.59 7.699-1.343 38.214-.845 56.615-2.648 8.804-.863 15.279-2.852 17.496-4.781 6.426-5.586 9.973-15.008 11.466-26.19 2.539-19.013-.761-43.575 1.396-56.551 5.349-32.051 13.671-64.409 23.847-96.213 10.201-31.885 22.277-63.202 35.016-93.122 1.686-3.954 3.747-7.691 6.007-11.308 10.28-16.448 24.417-30.587 32.297-47.956 7.893-17.398 10.964-37.036 17.215-55.455 1.411-4.157 3.011-8.24 4.899-12.207 1.019-2.144 14.637-23.726 19.712-32.588 1.249-2.18 2.07-3.823 2.397-4.617 3.561-8.627-3.622-12.888-5.272-13.644-1.842-.843-4.184-1.271-6.934-.893-2.051.281-4.828 1.311-7.576 2.744-1.91.996-5.659 1.577-5.088 2.798Zm-18.351-192.308c-.38-.69-.684-1.435-.903-2.227.218.819.523 1.559.903 2.227Z"/><path d="M475.347 1320.56c-15.348 11.962-34.818 20.376-49.222 33.229-1.453 1.297 27.757 87.193 18.181 95.873-22.151 20.081-45.267 5.393-51.107 36.186-2.235 11.781 21.646 31.45 25.337 42.802 9.218 28.341 7.217 67.395 10.29 96.895.78 7.486-8.419 83.447.185 83.99 2.204.139 24.866-47.305 31.03-62.113 15.913-38.222 41.657-68.694 56.128-107.781 5.524-14.92 21.127-26.05 28.514-39.439 1.748-3.169-16.571-10.412-16.206-11.074 6.126-11.103 114.904-64.733 108.067-70.092-6.345-4.974-39.078-31.021-44.44-35.805-5.407-4.825-18.764 16.271-20.708 19.186-18.378 27.568-42.301 50.441-61.232 76.984-10.185 14.279-20.423 29.272-32.116 42.409-3.691 4.147-7.319 7.864-9.606 12.967-1.076 2.399-2.998 9.925-2.998 7.295 0-17.385 15.901-40.073 18.313-58.893 3.371-26.308 3.877-53.771 6.302-80.224 1.967-21.453 11.192-39.999 9.301-62.402-.908-10.751-8.969-20.065-8.969-29.734" style="fill:#fff"/><path d="M479.987 1311.23c-3.475-1.724-7.781-1.431-11.043 1.112-10.397 8.257-22.785 14.817-34.064 22.354-5.432 3.629-10.634 7.458-15.328 11.725-.863.784-4.216 3.903-3.12 9.995.293 1.633 1.183 5.015 2.51 9.591 4.56 15.72 14.532 47.557 17.475 67.59.645 4.387-1.581 9.78.206 10.844-8.246 6.822-16.685 8.258-23.842 10.208-6 1.635-11.353 3.567-15.817 7.084-5.434 4.281-9.936 10.787-12.066 22.539-.803 4.425.258 9.659 3.179 15.128 3.522 6.597 9.845 13.994 15.336 20.782 3.333 4.122 6.438 7.842 7.477 10.952 2.756 8.248 4.503 17.468 5.699 27.093 2.831 22.782 2.69 47.719 4.957 68.074.67 6.07-4.927 57.228-2.49 76.621.577 4.593 1.768 7.904 3.035 9.66 1.822 2.527 4.113 3.598 6.492 3.735 1.187.068 3.715-.019 6.048-2.665.852-.967 2.351-3.239 4.161-6.513 7.31-13.229 22.356-45.447 27.197-57.243 12.608-30.571 31.531-56.195 45.92-85.24 3.656-7.38 7.039-14.969 9.965-22.905 1.463-3.972 3.768-7.623 6.411-11.133 7.098-9.429 16.401-17.933 21.67-27.509 1.29-2.333 1.452-5.324-1.043-8.383-1.65-2.024-6.173-4.693-10.268-6.896 2.963-2.024 7.041-4.492 11.75-7.372 23.758-14.532 63.376-35.485 81.091-47.374 4.62-3.101 7.894-5.76 9.466-7.601 4.437-5.194 2.399-9.351-.398-11.564l-43.924-35.76c-3.51-3.172-8.505-3.505-13.904.169-6.778 4.614-15.536 17.832-17.144 20.21-5.413 8.006-11.309 15.596-17.411 22.996-14.782 17.925-30.739 34.755-44.247 53.414-4.471 6.169-8.953 12.473-13.563 18.697.974-3.189 1.724-6.317 2.14-9.348 1.105-8.06 1.943-16.228 2.653-24.445 1.613-18.677 2.534-37.602 4.387-56.029 1.51-14.959 6.622-28.443 8.892-42.883 1.074-6.827 1.556-13.841 1.004-21.24-.21-2.803-.784-5.537-1.569-8.218-1.273-4.346-3.213-8.528-4.894-12.635-1.11-2.712-2.192-5.333-2.165-8.03 0-5.749-4.667-10.417-10.417-10.417-5.749 0-10.416 4.668-10.416 10.417l.012.413Zm3.894 15.304a10.387 10.387 0 0 1-2.13 2.24c-10.991 8.405-23.978 15.074-35.873 22.712-3.072 1.972-6.068 4.009-8.908 6.186l.065.259c3.271 12.441 11.239 39.514 15.429 60.887 2.093 10.674 3.211 20.063 2.698 26.04-.484 5.638-2.532 9.421-4.82 11.461-9.833 8.77-19.697 11.855-28.629 14.087-5.387 1.346-10.365 2.016-14.202 4.94-2.903 2.212-4.787 5.893-6.011 12.075-.155.781.25 1.617.638 2.561.692 1.686 1.703 3.455 2.888 5.273 7.024 10.776 18.628 22.912 21.156 30.906 2.921 9.233 4.74 19.522 5.909 30.26 2.493 22.898 2.031 47.91 4.016 68.363.507 5.174-3.964 42.987-3.929 66.063 7.712-14.945 18.05-36.749 21.916-45.903 12.929-30.768 32.2-56.503 46.863-85.746 3.497-6.975 6.714-14.16 9.508-21.671 1.881-5.059 4.763-9.746 8.144-14.213 5.849-7.727 13.348-14.723 18.527-22.346-2.931-1.658-7.704-4.334-9.757-5.392-1.414-.729-2.369-1.379-2.766-1.723-3.408-2.954-2.23-6.189-1.428-7.646 1.132-2.056 4.867-5.557 10.765-9.602 20.515-14.07 69.992-40.289 90.315-54.18a60.537 60.537 0 0 0 3.169-2.344l-37.536-29.933c-1.035.915-2.629 2.393-3.734 3.685-4.188 4.897-8.005 11.019-8.952 12.459-3.709 5.643-7.647 11.094-11.721 16.428-15.954 20.883-34.126 39.842-49.086 61.13-6.084 8.668-12.187 17.592-18.614 26.222-4.389 5.895-8.933 11.648-13.713 17.103-2.028 2.313-4.045 4.475-5.775 6.862-.912 1.259-1.726 2.595-2.383 4.09-.853 1.947-2.265 6.992-2.886 8.173-1.357 2.58-3.272 3.511-4.23 3.927-3.648 1.582-6.89.92-9.652-2.353-.545-.646-1.949-2.314-1.98-5.804-.04-4.564.809-9.448 2.231-14.522 4.106-14.644 13.909-31.217 15.611-45.492.928-7.785 1.595-15.671 2.14-23.6 1.292-18.793 1.888-37.825 3.425-56.372 1.263-15.329 6.167-29.23 8.211-44.043.739-5.36 1.038-10.857.494-16.639-.368-3.899-2.13-7.481-3.714-11.023a223.509 223.509 0 0 1-1.689-3.845Z"/><path d="M422.282 1982.42c-.261-8.82.965-28.241 1.413-33.581a887.147 887.147 0 0 0 2.715-45.328c.513-14.997.673-30.015.344-45.384-.365-24.332-.632-48.846.079-73.381.471-16.27 1.321-32.549 2.67-48.767 3.378-40.607 9.664-80.826 19.282-119.974 1.182-4.672 6.06-18.136 11.634-32.974 7.574-20.163 16.477-42.745 19.421-49.891 2.049-5.371-.648-11.396-6.019-13.445-5.372-2.05-11.396.648-13.446 6.019-2.963 8.413-12.646 37.567-19.705 59.995-3.869 12.294-6.973 22.605-7.799 26.664-6.731 32.184-10.819 65.016-13.717 98.076-2.15 24.538-3.522 49.202-4.561 73.852-1.042 24.684-1.928 49.334-2.295 73.826-.323 15.068-1.052 29.776-2.243 44.44-1.194 14.696-2.87 29.319-4.908 44.211-.825 5.959-3.376 28.339-3.428 37.171-.021 3.537.668 5.994 1.096 7.078 1.867 4.735 5.537 5.947 8.159 6.442 2.706.511 6.711.279 10.311-4.287a10.413 10.413 0 0 0 .997-10.762Zm-12.004-5.515c-1.916.339-3.972 1.346-5.729 3.869a10.36 10.36 0 0 1 5.729-3.869Z"/><path d="M236.348 787.827c3.034 14.154 9.437 36.064 18.587 51.717 9.151 15.654 23.238 29.036 36.315 42.205 13.334 13.427 29.717 24.927 43.688 38.356 14.901 14.324 32.827 30.715 45.716 47.586 12.6 16.493 24.555 34.123 31.618 53.64 7.085 19.579 7.121 42.58 10.894 63.834 3.916 22.062 6.943 46.558 12.604 68.54 5.558 21.582 11.482 49.156 21.362 63.352 8.331 11.97 26.363 12.928 37.92 21.824 15.862 12.209 38.612 42.057 57.251 51.43 16.318 8.206 36.459 2.556 54.585 4.806 30.851 3.83 93.816 18.924 130.524 18.171 30.843-.633 66.047-14.342 89.724-22.689 18.572-6.548 36.132-16.212 52.339-27.397 16.645-11.488 32.341-26.974 47.533-41.531 17.054-16.342 39.237-37.233 54.796-56.523 14.788-18.335 28.054-42.716 38.558-59.22 8.361-13.137 20.065-28.808 24.463-39.8 3.246-8.114 3.044-19.819 1.922-26.147-.852-4.809-13.449-10.898-8.654-11.822 5.982-1.154 29.612 4.483 44.543 4.901 18.853.529 45.943 1.535 68.574-1.73 23.428-3.381 52.517-9.935 71.993-18.554 17.005-7.527 34.306-18.424 44.863-33.164 10.557-14.74 15.906-36.021 18.478-55.279 3.737-27.974 2.842-80.909 3.944-112.568.898-25.796 6.637-51.883 2.669-77.387-4.539-29.176-19.233-65.338-29.907-97.671-15.939-48.282-50.214-149.987-65.726-192.02-7.628-20.67-11.784-44.578-27.344-60.177-21.416-21.47-70.924-51.176-101.153-68.64-25.394-14.672-52.304-27.146-80.217-36.146-32.151-10.367-75.573-21.823-112.691-26.053-36.438-4.152-73.488-2.566-110.019.674-43.348 3.846-101.363 8.778-150.072 22.399-49.562 13.859-104.73 37.251-147.295 60.755-39.289 21.695-80.912 56.365-108.096 80.27-20.966 18.437-42.46 44.671-55.011 63.16-9.718 14.316-14.204 31.582-20.295 47.777-6.213 16.519-13.562 33.639-16.982 51.335-4.343 22.479-4.088 55.978-9.08 83.54-5.27 29.097-18.717 70.331-22.538 91.039-2.008 10.886-2.703 22.383-.383 33.207Z" style="fill:#fff"/><path d="M1055.95 1038.92c5.332.891 11.238 1.895 16.729 2.496 3.436.376 6.73.641 9.705.718 11.744.305 26.646.782 41.708.326 9.651-.292 19.366-.966 28.396-2.288 14.005-2.051 29.985-5.214 44.824-9.256 10.79-2.94 20.985-6.348 29.445-10.113 10.741-4.78 21.58-10.844 30.967-18.258 6.686-5.281 12.645-11.243 17.385-17.89 4.777-6.701 8.612-14.605 11.631-23.087 4.112-11.553 6.729-24.19 8.309-36.098 1.24-9.342 1.985-21.399 2.45-34.534.937-26.518.747-57.531 1.473-78.875.613-18.05 3.588-36.245 3.968-54.281.175-8.272-.177-16.513-1.457-24.696-1.502-9.69-4.072-20.126-7.251-30.935-6.529-22.203-15.653-46.042-22.921-68.102-9.176-27.94-24.476-73.741-38.703-115.563-10.407-30.595-20.237-59.067-26.756-76.869-4.55-12.43-7.879-26.006-13.105-38.302-3.984-9.375-9.047-18.03-16.156-25.195-9.345-9.417-23.849-20.406-39.875-31.286-21.345-14.493-45.409-28.855-62.997-39.078-12.935-7.534-26.26-14.503-39.907-20.756-13.705-6.279-27.737-11.828-42.028-16.493-16.621-5.425-36.223-11.146-56.433-16.037-19.497-4.718-39.559-8.654-58.086-10.832-18.659-2.194-37.48-2.916-56.316-2.696-18.625.217-37.266 1.361-55.776 2.929-26.747 2.258-59.032 4.914-91.325 9.727-20.749 3.093-41.497 7.084-60.824 12.4-24.91 6.852-51.215 16.069-76.695 26.484-26.123 10.677-51.373 22.624-73.34 34.616-15.517 8.47-31.397 18.894-46.661 29.909-24.235 17.489-46.897 36.481-63.971 51.348-10.449 9.099-21.034 20.039-30.674 31.078-10.529 12.057-19.917 24.239-26.768 34.227-4.436 6.467-7.939 13.466-10.973 20.72-4.058 9.7-7.225 19.885-10.965 29.682-3.842 10.068-8.093 20.357-11.653 30.862-2.515 7.418-4.68 14.943-6.191 22.566-1.072 5.403-1.899 11.403-2.598 17.794-2.219 20.27-3.02 44.812-6.939 65.824-1.024 5.485-2.361 11.419-3.866 17.565-6.47 26.422-15.969 56.554-19.159 73.337-1.172 6.169-1.948 12.515-2.138 18.854-.202 6.745.294 13.481 1.658 20.022a247.471 247.471 0 0 0 8.04 28.214c3.408 9.68 7.603 19.455 12.458 27.665 4.167 7.047 9.201 13.697 14.729 20.059 7.51 8.642 15.924 16.771 23.986 24.808a207.215 207.215 0 0 0 9.113 8.516c11.359 10.034 23.946 19.327 35.01 29.856 8.868 8.439 18.822 17.601 28.126 27.169 5.916 6.083 11.575 12.323 16.46 18.651 6.052 7.839 11.965 15.939 17.208 24.413 5.037 8.141 9.474 16.617 12.756 25.547 1.951 5.307 3.306 10.905 4.36 16.655 2.691 14.675 3.588 30.24 6.277 44.957 2.815 15.452 5.2 32.097 8.352 48.238 1.407 7.203 2.96 14.308 4.762 21.176 3.851 14.68 7.906 32.063 13.165 46.338 2.999 8.14 6.418 15.35 10.279 20.845 3.69 5.251 8.576 9.135 14.216 12.178 8.323 4.49 18.852 6.43 26.384 12.174 10.685 8.149 24.523 24.439 38.098 36.797 7.266 6.615 14.513 12.192 21.226 15.53 6.309 3.137 13.036 4.732 20.026 5.376 12.469 1.151 25.891-1.16 38.37.333 21.384 2.557 58.225 10.463 91.023 14.757 15.112 1.979 29.404 3.2 41.12 2.907 12.654-.308 25.997-2.64 39.05-5.96 19.901-5.063 39.123-12.393 53.913-17.67 9.761-3.482 19.256-7.774 28.433-12.684 9.067-4.852 17.827-10.297 26.231-16.144 7.049-4.904 13.939-10.487 20.688-16.423 9.557-8.407 18.842-17.52 27.943-26.306 10.298-9.938 22.454-21.542 33.911-33.448 7.752-8.056 15.188-16.249 21.543-24.177 5.882-7.339 11.538-15.599 16.876-23.971 8.228-12.905 15.699-26.067 22.133-36.244 5.553-8.782 12.579-18.693 17.963-27.6 3.016-4.99 5.542-9.706 7.173-13.82 1.865-4.701 2.865-10.365 3.17-15.868.308-5.571-.063-10.951-.712-14.808Zm-18.119 3.96c.354 2.683.498 6.17.277 9.765-.213 3.469-.752 7.06-1.946 10.018-1.326 3.285-3.421 7.024-5.86 11.004-5.376 8.774-12.389 18.526-17.931 27.175-6.484 10.12-14.019 23.212-22.31 36.044-5.005 7.746-10.291 15.397-15.796 22.18-6.054 7.46-13.137 15.159-20.516 22.729-11.357 11.649-23.415 22.981-33.623 32.694-8.943 8.506-18.061 17.338-27.447 25.47-6.201 5.373-12.519 10.434-18.987 14.862-7.793 5.335-15.91 10.304-24.307 14.717-8.304 4.364-16.887 8.175-25.707 11.248-14.313 4.986-32.905 11.963-52.148 16.704-11.49 2.831-23.217 4.859-34.336 5.045-10.765.172-23.878-1.127-37.744-3.068-32.856-4.601-69.738-12.852-91.163-15.609-12.654-1.628-26.299.537-38.946-.744-4.124-.418-8.119-1.275-11.828-3.16-5.051-2.568-10.369-6.994-15.817-12.043-13.993-12.97-28.33-29.922-39.359-38.49-8.431-6.55-20.049-9.315-29.385-14.46-2.277-1.255-4.378-2.693-5.856-4.837-3.686-5.346-6.572-12.931-9.21-21.261-3.905-12.339-7.032-26.244-10.069-38.259-2.15-8.504-3.881-17.397-5.432-26.37-2.408-13.931-4.374-28.051-6.664-41.297-2.543-14.755-3.285-30.341-5.83-45.053-1.254-7.249-2.933-14.299-5.321-21.002-3.042-8.541-6.942-16.756-11.403-24.696-6.41-11.409-14.013-22.233-21.869-32.625-5.415-7.163-11.68-14.252-18.255-21.152-9.455-9.921-19.572-19.441-28.59-28.199-11.198-10.874-23.94-20.528-35.444-30.899a178.015 178.015 0 0 1-7.808-7.441c-7.512-7.641-15.38-15.348-22.366-23.554-4.33-5.086-8.304-10.371-11.55-15.989-3.89-6.732-7.162-14.764-9.86-22.683a217.518 217.518 0 0 1-6.815-24.873c-.948-4.305-1.289-8.749-1.204-13.2.091-4.817.649-9.642 1.489-14.337 2.949-16.48 12.002-46.092 18.064-72.051 1.562-6.693 2.939-13.154 3.987-19.124.994-5.661 1.785-11.557 2.435-17.558 2.513-23.193 2.836-48.062 6.189-65.905 1.222-6.49 3.022-12.897 5.097-19.221 3.353-10.216 7.392-20.225 11.022-30.021 3.549-9.578 6.517-19.535 10.378-29.022 2.291-5.631 4.892-11.096 8.273-16.13 6.289-9.361 14.929-20.779 24.622-32.099 8.781-10.254 18.415-20.441 27.958-28.915 16.464-14.62 38.317-33.314 61.72-50.551 14.334-10.558 29.244-20.579 43.84-28.732 21.144-11.81 45.462-23.616 70.646-34.177 24.536-10.289 49.889-19.408 73.909-26.234 18.456-5.245 38.285-9.213 58.119-12.341 31.769-5.01 63.55-7.881 89.878-10.329 17.994-1.669 36.118-2.94 54.235-3.288 17.957-.346 35.906.209 53.71 2.173 17.787 1.962 37.054 5.617 55.789 10.009 19.717 4.622 38.847 10.058 55.073 15.226 13.628 4.34 27.015 9.526 40.096 15.408 13.128 5.902 25.951 12.499 38.404 19.637 17.334 9.953 41.056 23.932 62.103 38.061 14.972 10.05 28.587 20.132 37.332 28.853 5.522 5.507 9.344 12.252 12.461 19.479 5.17 11.99 8.453 25.254 12.964 37.379 6.575 17.678 16.524 45.944 27.001 76.341 14.372 41.7 29.746 87.397 38.993 115.266 7.24 21.885 16.336 45.527 22.842 67.554 2.968 10.047 5.393 19.744 6.801 28.752 1.114 7.204 1.388 14.457 1.223 21.736-.408 17.965-3.41 36.083-4.05 54.06-.76 21.337-.621 52.34-1.6 78.848-.463 12.506-1.17 23.987-2.365 32.881-1.207 8.979-3.035 18.424-5.787 27.366-2.725 8.852-6.343 17.211-11.229 24.006-4.796 6.667-11.17 12.414-18.236 17.372-7.246 5.086-15.231 9.327-23.14 12.807-9.564 4.209-21.549 7.868-33.975 10.891-12.076 2.938-24.568 5.26-35.741 6.848-8.381 1.192-17.397 1.764-26.351 1.997-14.698.384-29.235-.152-40.692-.497-12.26-.378-30.428-4.355-39.656-5.051-2.952-.223-5.312-.113-6.884.185-4.116.781-6.022 2.98-7.092 4.7-1.317 2.118-1.816 4.53-1.23 7.267.362 1.692 1.759 4.504 4.696 7.158l5.104 4.632Z"/><path d="M232.756 715.235c-5.79 4.336-7.587 12.416-3.916 18.867 2.429 3.334 4.911 6.321 9.012 6.916 1.415.205 2.942.754 4.671.445 1.443-.258 5.362-.155 8.796-3.673 1.064-1.09 4.342-5.012 4.342-5.012s-.629.385-.803.541l11.559-10.471c5.284-3.647 12.145-8.43 19.709-11.243 6.235-2.318 12.755-3.846 18.302-1.684 7.55 3.632 13.778 8.515 18.676 14.557 5.09 6.28 8.378 13.825 11.37 21.739 1.479 4.191 3.543 13.257 5.526 19.168 1.23 3.663 3.022 6.287 4.183 7.961 3.979 5.736 9.709 5.565 13.47 5.579 4.246.016 9.003-2.56 12.926-10.338 2.629-7.228-.822-15.195-7.736-18.285-2.711-4.925-5.614-11.024-7.473-14.046-5.3-9.085-11.369-17.17-18.519-24.236-7.236-7.152-15.317-13.466-25.435-17.681-7.368-3.719-16.138-3.882-25.127-2.615-11.47 1.617-23.215 6.278-31.725 10.177l-15.76 8.998c-.962.54-6.772 2.495-6.048 4.336Zm112.324 39.793c-.832.886-1.545 2.026-1.911 3.591a14.38 14.38 0 0 1 1.911-3.591Zm20.577-.02.024.037c.093.135.359.261.359.261l-.383-.298Zm-114.01-38.605a14.439 14.439 0 0 1 2.544 3.276c-.583-1.361-1.495-2.389-2.544-3.276Zm-7.359-3.823c1.47.284 2.892.793 4.213 1.512-1.099-.758-2.503-1.288-4.213-1.512ZM296.262 804.8c1.193-1.788 1.986-3.426 3.333-4.394.568-.409.824-1.223 1.495-1.268 1.617-.108 3.389.574 5.59 1.741 1.586 1.231 2.484 3.146 3.349 5.036.063.137.117.275.16.416-.219.205-.43.419-.635.641-.121.232-.303.481-.18.55.407.227.746.188 1.028.015.084 1.271-.246 2.596-.31 3.893.064-.791.003-1.86-.741-2.294-.79-.46-1.605.798-1.943 1.148-.663.687-.803 1.375-1.041 1.67-.828 1.023-.608 2.138-.927 2.75-.853 1.637-.09 3.153-.293 4.278-.178.982.458 1.769.464 2.607.022 3.027 2.651 4.461 3.914 6.527 1.65 2.7 5.088 2.596 8.602 3.866 1.256.455 2.665-.379 4.44-.319 1.182.039 2.381-1.232 4.565-1.941.433-.141 1.276-1.341 3.826-2.936a14.51 14.51 0 0 0 2.181-3.072c2.259-2.019 2.688-11.367.695-16.067-1.801-4.712-3.847-9.231-7.451-12.934-3.379-3.471-6.82-6.847-11.151-8.621-7.154-4.667-12.923-5.115-18.313-4.71-5.315.399-10.209 2.947-16.901 7.011-.912.512-2.488 1.092-4.086 1.911-1.915.981-3.205 2.568-4.699 3.776-2.239 1.811-2.596 4.5-3.692 6.616-.489.942-.242 1.995-.543 2.978-1.235 4.03 1.42 7.462 3.853 12.148 5.352 6.011 14.578 6.546 20.589 1.193 3.588-3.194 5.224-7.768 4.822-12.215Zm-2.761-7.299c-.188-.414-.447-.791-.867-1.075.309.347.599.706.867 1.075Z"/><path d="M759.362 760.311c0-10.039-13.85-10.425-20.97-11.49-17.303-2.586-38.296 11.473-36.014 30.156.992 8.118 6.58 12.984 10.024 19.695 6.07 11.826 9.639 26.11 21.203 34.462 40.134 28.986 107.175 26.125 131.294-20.308 10.938-21.055 9.264-36.453-5.47-53.128-4.11-4.651-12.131-14.288-19.377-11.694-13.257 4.746-20.137 15.797-36.697 15.797-10.151 0-21.82 1.561-31.685-.205-1.284-.23-8.663-1.158-8.663-2.671M1172.65 745.803c-1.901-1.131 8.392 4.126 11.456 5.159 8.763 2.955 17.692 6.915 27.25 6.915 7.09 0 14.398-.978 20.821-4.274 10.951-5.621 9.768-16.979 23.478-8.427 2.116 1.321 3.854 2.487 5.587 4.274 2.417 2.491 4.123 4.606 5.173 7.925 1.269 4.014 3.979 7.246 4.749 11.443.964 5.256 2.143 13.199.138 18.236-4.566 11.473-19.409 20.813-29.761 26.413-6.677 3.612-12.673 8.856-19.986 11.317-23.543 7.924-46.114-6.609-57.15-26.537-6.961-12.568-27.694-36.178-14.114-50.806 2.765-2.978 14.496-13.614 19.701-10.942 3.973 2.039 5.545 7.883 10.341 6.037" style="fill:#71582c;fill-opacity:.21"/><path d="M799.662 721.993c.173-.231-15.759-2.269-19.833 2.015-8.277 8.703-23.221 32.278-12.736 44.818 25.677 30.706 44.972-33.356 5.616-33.356" style="fill:#e7253b"/><path d="M767.463 726.474a10.406 10.406 0 0 0-5.148 9.657c-1.723 3.797-3.175 7.792-4.09 11.741-2.163 9.342-1.657 18.36 4.188 24.868 8.432 10.333 16.87 11.808 23.418 10.009 7.821-2.149 13.966-10.351 16.213-20.247 1.536-6.763.819-14.096-1.972-20.516-1.875-4.312-4.835-8.113-9.064-11.028 1.877.181 3.656.518 4.97.777 4.232 1.605 9.186.298 12.029-3.507.325-.52 2.843-16.406-9.209-16.756-3.637-.105-10.483-.094-15.703 1.331-4.2 1.146-7.697 2.804-9.624 5.159-1.823 2.187-3.931 5.117-6.008 8.512Zm6.426 19.328c-1.015 1.888-1.895 3.838-2.565 5.806-1.632 4.792-2.385 9.659.45 13.304 4.019 4.69 7.337 6.751 10.311 5.726 3.498-1.206 4.969-5.907 5.431-10.514.486-4.854-1.18-10.14-5.538-13.008-2.026-1.332-4.746-1.525-8.089-1.314Z"/><path d="M1212.99 724.355c-15.377-6.562-42.289 13.288-24.707 24.256 20.147 12.568 58.572-6.862 44.181-22.913-8.858-9.88-37.139 5.883-36.32 6.067" style="fill:#e7253b"/><path d="M1216.54 714.601c-4.12-1.308-8.554-1.872-13.078-1.132-9.085 1.487-18.415 6.577-23.481 13.164-3.772 4.903-5.75 10.198-4.834 15.22.816 4.47 3.223 9.219 9.469 12.637 9.143 5.3 21.019 5.464 31.628 2.529 4.466-1.235 8.688-2.952 12.375-5.006 13.497-7.524 18.711-19.807 9.391-31.286-4.137-5.309-11.616-6.902-19.988-6.266-.491.037-.985.084-1.482.14Zm-26.626 25.486a.513.513 0 0 0 .035.236c.313.827.936 1.657 2.002 2.409 7.128 4.72 17.402 4.4 25.456 1.201 4.414-1.753 8.092-4.492 10.212-7.499.752-1.065 1.096-2.22 1.018-3.354-.062-.904-.865-1.565-1.716-2.411-.446-.434-1.161-.139-1.831-.195-1.279-.105-2.647.197-4.078.526a10.428 10.428 0 0 1-9.767 3.623c-2.84 1.42-5.352 2.942-7.149 4.073-.731.46-1.342 1.411-1.676 1.378a10.386 10.386 0 0 1-8.559 1.854c-1.569-.504-2.881-1.119-3.947-1.841ZM784.632 1107.85c5.518-.665 10.612-.073 14.136 3.374 6.288 5.024 15.472 3.998 20.496-2.29 5.024-6.289 3.998-15.473-2.29-20.497-8.747-5.603-18.862-7.686-29.978-5.447-16.928 3.411-36.006 15.017-47.175 22.057-5.799 3.203-13.656 7.959-17.173 14.272-2.161 3.879-3.071 8.287-1.942 13.495 2.365 12.747 10.308 16.24 18.869 16.644 13.616.643 33.669-14.86 38.909-21.553 4.913-6.093 6.64-13.476 6.242-19.126a13.587 13.587 0 0 0-.094-.929Zm-29.611 9.593c-2.559 1.13-4.912 2.206-6.986 3.128-2.744 1.363-6.462 2.848-9.113 5.22-.854.764-1.698 1.626-1.367 2.875.258.847 1.284 1.446 1.443 1.935a.685.685 0 0 0 .036-.221c-.032-.383.731-.274 1.132-.396 1.337-.407 2.613-1.263 3.969-2.113 4.367-2.734 8.376-7.046 10.886-10.428Zm6.455 2.97c.159.081.336.142.533.18l-.533-.18ZM446.299 489.643c7.207 5.16 12.548 20.654 16.129 28.175 10.919 22.926 19.081 46.825 26.756 71.036 2.995 9.449 14.57 21.688 11.189 32.101-3.914 12.053-18.957 10.593-28.076 6.489-.796-.358-11.934-6.048-12.333-4.952-4.032 11.089 2.464 33.081 2.464 45.085 0 6.184 2.24 14.252-3.984 17.755-33.821 19.037-76.396-3.327-112.7 1.877-12.752 1.829-26.387.312-38.895 2.565-28.229 5.082-56.733 28.184-82.343 2.388-4.618-4.652-10.262-9.173-14.422-14.17-2.922-3.51-3.391-8.644-4.935-12.809-14.297-38.568 12.634-57.241 22.578-91.185 3.858-13.171 1.523-34.771 12.333-44.568 2.279-2.066-8.068-10.075-9.106-11.442-5.449-7.175-6.976-16.102-5.504-25.101 2.86-17.477 10.069-19.503 22.39-28.685 3.135-2.336 8.317-10.355 11.952-11.442 15.539-4.645 37.549-.093 52.748 3.245 26.148 5.743 52.785 9.734 79.497 9.734 15.251 0 34.471-.317 48.764 6.143 5.976 2.702 18.386 11.398 7.018 14.176"/><path d="M228.098 528.988c-1.769 2.972-3.124 6.292-4.125 9.865-2.937 10.483-2.543 23.484-5.094 32.553-7.05 24.861-22.846 41.868-25.842 63.917-1.324 9.74-.519 20.385 4.158 32.809 1.117 2.992 1.717 6.464 2.988 9.522.867 2.085 1.968 4.029 3.405 5.747l14.926 14.709c12.331 12.491 25.269 15.503 38.509 14.342 16.736-1.467 34.145-10.981 51.39-13.989 2.256-.389 4.552-.631 6.874-.796 10.467-.747 21.385-.022 31.751-1.429 24.879-3.288 52.572 6.724 78.416 6.917 13.296.099 26.123-2.172 38.116-8.718 4.418-2.411 6.945-5.895 8.433-9.891 1.853-4.977 1.055-11.542 1.126-16.969.113-7.326-2.054-18.335-2.913-28.408 7.416 2.84 16.823 4.035 24.514 1.914 7.734-2.132 14.049-7.242 17.176-16.383 1.948-5.693 1.543-11.748-.4-17.884-2.397-7.569-8.314-15.352-10.244-21.79-4.427-14.861-9.052-29.598-14.339-44.1-3.587-9.839-7.499-19.555-11.853-29.129-2.462-5.414-5.79-14.612-9.945-21.812 1.606-3.151 2.159-6.479 1.614-9.969-.481-3.081-1.789-6.604-4.513-9.86-3.701-4.423-10.859-9.14-15.594-11.174-7.029-3.02-14.959-4.847-23.181-5.746-10.652-1.166-21.777-.931-31.414-.762-12.817.217-25.629-.502-38.388-1.934-12.928-1.451-25.796-3.585-38.556-6.161-9.598-1.944-21.753-4.282-33.469-4.788-8.915-.385-17.593.236-25 2.57-2.079.656-4.538 1.961-6.899 4.099-2.939 2.663-6.131 7.566-8.348 9.269-8.866 6.813-15.203 10.574-19.607 17.287-2.903 4.425-5.2 10.012-6.458 18.412-.864 5.73-.797 11.424.372 16.82 1.241 5.731 3.614 11.157 7.353 15.953.403.518 2.891 2.921 5.061 4.987Zm204.805-45.107c-3.992-1.611-8.404-2.633-12.948-3.298-9.435-1.38-19.342-1.429-27.918-1.579-13.928-.236-27.815-1.479-41.619-3.504-13.579-1.993-27.071-4.696-40.431-7.869-8.504-2.014-19.263-4.546-29.699-5.323-5.7-.425-11.29-.414-16.189.757-1.533 1.68-7.491 8.145-9.796 9.81-5.755 4.158-10.375 6.499-13.789 10.049-2.435 2.531-3.903 5.879-4.925 11.622-.567 3.212-.678 6.417-.096 9.469.516 2.711 1.505 5.313 3.153 7.634.887.81 4.549 4.185 6.494 6.356 2.219 2.477 3.772 5.002 4.378 6.865 1.641 5.046.251 8.991-2.91 11.784-3.04 2.686-4.28 6.891-5.239 11.353-2.085 9.699-2.379 20.647-4.794 28.583-6.288 20.756-18.886 35.738-24.525 53.113-3.059 9.426-3.636 19.678 1.053 32.532l3.477 10.348 13.917 13.63c8.032 8.045 16.395 10.049 24.964 9.227 16.28-1.563 33.068-11.244 49.823-14.356 2.822-.529 5.698-.883 8.606-1.134 10.069-.869 20.598-.265 30.559-1.769 25.54-3.948 54.303 5.414 80.914 4.972 9.357-.155 18.408-1.726 26.786-6.279-.103-1.705-.388-6.704-.421-9.297-.123-7.954-3.289-20.324-4.117-30.888-.543-6.926-.042-13.251 1.635-18.094.961-2.779 5.621-9.602 15.123-7.057 3.463.928 11.96 4.996 12.696 5.314 2.349 1.014 5.306 1.708 8.155 1.735 1.434.013 3.14.182 3.62-1.377.484-1.576-.769-3.06-1.541-4.724-3.216-6.942-8.22-13.901-10.193-19.803-3.984-11.847-8.089-23.608-12.589-35.211-4.423-11.407-9.253-22.637-14.731-33.633-1.835-3.684-4.135-9.326-6.881-14.672-1.577-3.071-3.025-6.239-5.096-7.667-5.675-4.064-7.564-11.46-4.906-17.619Zm11.045-11.879.409-.111a4.587 4.587 0 0 0-.409.111Z"/><path d="M353.43 789.694c-.53 1.371-.947 2.712-1.145 3.888-1.13 6.718 1.365 11.793 4.872 14.937 2.198 1.97 4.86 3.516 7.893 4.596-2.49 2.499-5.601 5.821-7.941 8.967-3.476 4.672-5.318 9.477-5.597 12.807-.554 6.616 1.984 11.682 7.58 15.019 3.948 2.354 8.649 3.784 13.852 4.327a284.484 284.484 0 0 0-7.051 8.409c-.897 1.115-5.995 6.779-9.815 12.854-3.074 4.889-5.235 10.109-5.739 14.376-.925 7.827 1.788 14.12 8.677 18.147 4.306 2.517 9.124 4.108 14.289 4.866l-.119.276c-1.444 3.742-1.305 7.023-.587 9.559 1.054 3.725 3.312 6.824 7.422 8.771.846.4 1.726.751 2.639 1.049-3.258 4.863-6.653 10.837-7.302 15.337-1.091 7.565 1.586 13.418 7.998 16.959 4.556 2.516 9.65 3.736 15.06 3.807-.995 2.808-1.436 5.398-1.399 7.222.132 6.616 3.621 10.436 8.525 12.183 8.256 2.941 19.318.11 30.143-7.919 3.709-2.752 7.478-6.079 11.127-9.616a329.708 329.708 0 0 0-4.528 12.878c-3.496 10.689-6.389 21.652-8.206 33.143-.415 2.624-3.133 18.142-2.13 26.677 1.082 9.205 6.628 13.781 11.678 14.742.435.083.867.147 1.298.191l-3.674 11.6c-1.121 3.499-4.194 10.441-4.442 13.81-.274 3.737.883 6.54 2.269 8.427a14.017 14.017 0 0 0 2.075 2.291c-.413.563-.81 1.128-1.193 1.692-7.511 11.07-9.443 22.424-5.844 31.117 1.635 3.949 4.615 7.148 9.051 8.824.56 3.185 1.662 5.756 3.03 7.531 1.296 1.682 2.75 2.92 4.338 3.74-.976 4.644-1.677 9.94-.985 13.736.99 5.43 3.929 9.158 8.127 11.037 5.213 2.335 10.641 2.571 16.03 1.031-.936 4.279-1.777 9.51-1.685 14.017.118 5.713 1.828 10.517 4.547 13.518 8.39 9.261 19.473 8.928 30.93 1.643 6.154-3.914 12.494-10.142 18.089-16.466-2.793 7.039-5.18 13.842-6.126 19.99-.372 2.412-1.596 15.655.302 20.073 1.945 4.527 5.371 6.435 9.066 6.706l.624.032c-1.705 3.873-3.799 9.04-4.402 12.957-.681 4.428.242 8.076 1.839 10.466 2.253 3.372 5.062 4.766 7.847 5.222 2.528.415 5.357.013 8.227-1.679 2.135-1.259 4.604-4.01 6.979-7.037l-.05.194c-.563 2.29-1.78 8.569-1.822 13.516-.037 4.244 1 7.809 2.354 9.836 3.993 5.976 9.703 7.342 16.091 5.445 6.683-1.983 14.738-9.731 16.841-11.842 11.559-11.6 21.648-24.466 32.603-36.581 3.395-3.755 6.876-7.435 10.525-10.969-3.563 5.755-6.86 10.748-7.881 12.894-1.884 3.963-6.343 13.757-6.443 16.221-.172 4.263 1.988 6.633 3.85 7.921 1.7 1.176 5.91 3.573 11.316-.756a75.841 75.841 0 0 0 5.078-4.465l-.153.511c-.545 1.932-3.591 12.019-3.141 17.679.461 5.803 3.595 9.251 7.436 10.561 5.713 1.95 12.846.648 20.123-3.377-.889 2.764-2.754 9.091-2.85 13.12-.129 5.362 2.469 8.789 5.014 10.287 4.877 2.868 10.87 2.678 16.943-.316 7.78-3.836 16.025-12.855 18.773-15.727a158.85 158.85 0 0 0 10.479-12.147l-.745 3.077c-.781 3.343-2.392 12.211-1.337 18.463 1.015 6.013 4.274 10.163 8.889 11.79 4.721 1.663 9.724.782 14.417-2.199 6.003-3.811 11.59-11.847 13.832-14.67 6.578-8.283 12.848-16.807 18.965-25.447 8.93-12.611 17.532-25.468 26.301-38.159l-8.421 27.97c-.855 3.41-4.266 23.626-.829 33.324 1.432 4.041 3.853 6.88 6.794 8.499 3.591 1.976 8.618 2.726 15.266-.955 10.619-5.879 19.87-16.067 27.803-27.97-.271 3.093-.304 6.704.387 9.586 1.212 5.053 4.244 8.525 8.482 9.965 8.431 2.866 17.359.084 25.539-6.693 12.313-10.201 23.241-29.989 27.584-37.531l6.403-11.489a22.852 22.852 0 0 0 .065 2.824c.937 9.953 7.124 12.647 13.247 11.357 8.359-1.76 16.917-7.167 24.991-14.667 14.583-13.546 27.958-34.085 36.918-45.009l12.45-15.985c-1.994 10.708-5.902 22.243-6.513 29.645-.084 1.02-.642 13.488.803 16.915 1.484 3.522 4.036 5.139 6.309 5.846 2.336.727 5.073.787 8.082-1.045 9.631-5.863 17.563-16.038 23.997-28.406 12.034-23.132 19.02-54.264 26.168-72.367 2.197-5.558 3.437-8.78 4.736-11.669.2-.444.402-.88.61-1.316 2.329-3.334 4.735-6.626 6.96-10.026 2.068-3.158 3.987-6.404 5.608-9.824 2.345-4.946.672-8.032.36-8.721-.537-1.19-3.372-4.423-7.068-5.385a773.008 773.008 0 0 0 4.969-17.692c.704-2.612 6.347-16.907 7.587-25.83.903-6.5-.769-11.466-2.869-13.94-2.307-2.717-5.193-4.437-8.533-5.038.135-.435.262-.869.382-1.3 2.77-9.957 1.326-18.705-4.08-24.191-6.306-6.399-16.903-7.637-28.949-3.715-6.307 2.054-13.139 5.442-19.5 9.074a15.19 15.19 0 0 0-1.748-2.668c-5.273-6.459-14.892-8.577-26.312-5.72-4.46 1.115-9.276 2.952-13.968 5.049-.817-3.732-2.649-6.977-5.398-9.511-3.794-3.497-10.153-6.261-20.38-5.423l-.964.152c.757-3.392.793-6.514.158-9.095-1.736-7.05-8.085-14.873-25.97-12.511-10.393 1.372-20.555 4.633-30.424 8.908a190.234 190.234 0 0 0-9.509 4.454c-2.327-2.269-5.539-3.94-9.909-4.685-15.831-2.701-32.494 1.633-48.532 9.499a158.745 158.745 0 0 0-9.049 4.823 18.825 18.825 0 0 0-2.442-4.452c-3.214-4.36-8.596-7.185-15.325-7.785-7.923-.706-18.263 1.961-22.697 3.56-11.195 4.037-22.114 9.226-32.807 14.983l-2.154 1.172c-11.712-2.176-24.674.243-37.721 5.674-6.517 2.713-13.083 6.201-19.5 10.058-1.102-4.874-4.112-7.855-7.603-9.543-5.312-2.568-11.507-3.279-18.003-2.412-9.929 1.326-20.842 6.764-27.589 10.207-12.293 6.272-23.722 13.771-34.407 22.242-6.049 4.797-11.858 9.91-17.445 15.291-2.824.72-5.661 1.791-8.461 3.162-8.987 4.401-17.731 12.194-23.649 17.491-4.284 3.835-8.416 7.829-12.455 11.918a18.095 18.095 0 0 0-2.205-3.319c-.487-3.18-2.315-5.152-3.87-6.341-1.715-1.312-5.993-4.261-11.628-.61-3.654-.136-7.792.529-11.611 1.525 7.547-16.672 15.555-33.103 22.001-50.429 2.192-5.893-.326-9.185-.699-9.801-1.066-1.761-11.249-10.156-18.051-.07-.701 1.039-2.4 4.114-3.841 6.714 3.342-8.86 6.772-17.685 10.285-26.473 1.306-3.266 4.55-6.972 6.622-10.522 1.984-3.399 3.255-6.774 3.626-9.776.653-5.288-.779-10.036-5.164-14.034-4.383-3.997-8.558-3.683-11.903-2.514-2.251.788-4.708 2.403-6.489 5.515-.927 1.62-2.409 7.459-2.623 8.317l-9.508 22.093c-3.583 8.333-7.258 16.595-11.102 24.773a230.267 230.267 0 0 1 3.326-10.865c7.921-23.86 18.979-46.265 27.099-70.445 1.466-4.365.381-7.103-.044-8.247-1.797-4.84-5.263-7.004-9.605-7.507-1.759-.204-5.331-.327-9.049 2.805-.73.615-2.493 2.837-4.062 4.77l-.424-.244c-2.901-1.559-7.298-2.384-12.386-.678-4.908 1.646-12.076 6.815-13.236 7.624-7.295 5.085-14.201 10.715-20.5 16.943l-.967.98c-3.761 2.111-7.704 4.065-11.64 5.551-1.613.609-3.216 1.199-4.779 1.65 1.583-2.042 2.937-3.565 3.295-3.988 5.345-6.33 11.306-11.919 17.652-17.04 10.595-5.976 20.238-12.774 25.159-15.586l11.8-6.973c2.515-1.478 8.511-3.498 10.989-5.029 2.77-1.712 4.373-3.719 5.219-5.178 2.379-4.104 2.277-8.026.721-11.606-.85-1.956-2.432-4.777-6.352-6.609 1.814-3.778 1.325-6.83.827-8.743-1.327-5.102-4.608-9.629-12.453-9.629-7.888.02-16.799 2.736-25.755 7.317-10.998 5.626-22.279 14.077-31.561 21.42-3.977 1.472-8.047 2.762-12.078 3.707-3.911.918-7.777 1.638-11.343 1.593 2.539-3.54 5.427-7.549 5.91-8.142 8.512-10.465 22.482-25.835 37.822-38.086 5.374-2.412 9.998-4.617 13.295-6.05l20.534-9.732c2.319-1.131 8.037-3.881 9.233-4.869 3.86-3.188 4.7-6.803 4.961-8.895.499-3.998-.548-7.523-3.183-10.56-1.205-1.389-4.297-5.184-11.556-4.7-14.008.932-29.857 8.708-44.745 19.886l-1.178.896c-5.457 2.413-11.556 4.91-17.666 6.845 5.964-5.19 12.292-10.333 18.857-15.134 8.561-6.259 17.53-11.933 26.63-16.292.685-.328 1.087-.564 1.271-.672 10.352-6.073 6.397-15.947 5.885-17.231-1.258-3.15-4.411-9.04-13.411-8.76-.352.011-2.168-.014-4.826 1.019-.832.323-3.73 1.564-4.891 2.096l-12.386 5.644c-3.842 1.667-11.239 5.331-19.218 8.271a89.031 89.031 0 0 1 2.142-2.378c1.449-1.553 2.92-3.084 4.408-4.463l1.197-.708c2.439-1.437 8.538-4.862 10.071-5.974 3.423-2.484 4.618-5.165 5.054-6.178 1.833-4.262 1.34-7.883.272-10.712-1.09-2.889-2.974-5.506-6.205-7.352.391-.338.765-.689 1.113-1.062a20.792 20.792 0 0 0 2.382-3.062c5.851-9.247.985-15.411-1.148-17.854-2.407-2.757-6.574-5.956-13.429-4.882a17.034 17.034 0 0 0-4.492 1.384c-1.653.763-4.857 2.805-6.346 3.652l-11.796 7.707c-4.653 3.508-22.472 17.039-28.917 27.992-4.695 7.979-4.939 15.658-2.139 21.65 1.849 3.957 5.006 7.226 9.406 8.996Zm554.579 183.827c-7.93 1.248-15.664 3.895-23.205 7.2-5.026 2.203-9.965 4.698-14.814 7.32-1.248 4.055-3.035 7.795-4.827 10.341-5.945 8.445-16.131 17.949-27.366 23.409-8.829 4.291-18.273 6.095-27.063 4.172-4.191-.917-6.546-3.134-8.012-5.37-2.071-3.161-3.087-7.647-.523-12.838 2.004-4.057 9.181-10.645 13.143-13.243l16.151-9.703c-4.46 1.417-8.917 3.328-13.326 5.514-10.755 5.332-21.191 12.388-30.763 19.305-4.897 6.242-10.371 12.099-16.219 17.567-6.825 6.38-14.153 12.235-21.639 17.563-3.456 2.46-9.731 7.517-15.696 9.963-4.827 1.98-9.629 2.504-13.801 1.495-7.305-1.766-9.309-6.486-9.78-10.772-.265-2.413.086-5.575 2.273-8.833 1.871-2.787 7.855-7.366 10.714-9.584l29.425-20.493c5.034-3.467 10.599-7.578 16.559-11.893.645-.836 1.277-1.683 1.896-2.539.881-1.218 2.203-3.036 3.411-5.116-3.027.441-6.47 1.015-7.8 1.502-10.083 3.692-19.9 8.449-29.523 13.689-1.15.627-2.297 1.26-3.442 1.902-1.319 2.375-3.335 5.173-5.883 7.957-6.059 6.62-15.083 14.136-15.37 14.359-6.987 5.451-14.272 10.384-21.794 14.936-7.388 4.47-15.003 8.577-22.782 12.458-1.524.761-12.614 6.915-20.065 8.254-5.365.965-9.886-.031-12.954-1.875-2.542-1.528-4.176-3.304-5.195-5.168-6.241 6.335-13.039 12.611-19.819 17.502-9.854 7.109-19.95 11.31-28.762 11.289-1.692-.005-3.16-.208-4.436-.554-4.627 4.744-9.361 8.535-12.566 10.253-3.441 1.843-12.624 4.131-18.782 2.905-5.387-1.073-9.382-3.752-11.707-7.751l-.014.014c-3.308 3.451-6.564 6.955-9.805 10.473.696 1.154 1.221 2.618 1.358 4.477.096 1.293-1.095 6.677-1.851 8.783-1.081 3.015-2.16 5.511-3.425 7.992-1.16 2.274-2.483 4.535-4.15 7.199-2.781 4.446-7.932 13.284-14.314 21.935-2.964 7.64-5.485 15.276-7.609 22.383-.86 2.877-2.101 13.901-2.357 16.249 1.061.462 2.319-.308 3.631-.958 3.683-1.822 7.454-5.03 11.095-8.622 9.675-9.54 18.166-21.905 20.894-25.472l9.075-12.425c.899-1.176 2.438-3.982 3.411-5.082 1.596-1.803 3.294-2.66 4.48-3.066 3.21-1.101 6.013-.549 8.427 1.021 1.547 1.007 3.803 2.844 4.399 7.007 1.061 7.411-.305 15.749-3.071 24.402-4.474 13.99-12.932 29.045-15.514 41.617a66.32 66.32 0 0 0 1.478-2.058c7.299-10.561 13.254-24.517 16.833-30.195l9.166-13.568c1.003-1.387 3.266-4.96 3.981-5.87 6.591-8.39 14.887-.284 15.714 1.386.276.558 2.175 3.465.016 8.278a190.903 190.903 0 0 1-2.955 6.279c1.291-1.379 2.578-2.442 3.761-3.148 5.541-3.305 9.238-.755 10.802.481 1.922 1.52 3.97 4.128 3.399 8.479-.216 1.647-3.815 8.014-5.164 10.696l-6.349 12.445c-5.199 11.025-10.315 22.406-14.634 34.024-2.827 7.603-5.313 15.308-7.242 23.079-.153.616-.347 2.032-.528 3.641 1.9-1.465 3.719-2.91 4.245-3.436 11.381-11.373 21.299-24.011 32.088-35.893 4.842-5.332 9.852-10.518 15.214-15.399.898-.817 15.165-13.451 21.482-16.104 6.534-2.743 10.993.077 13.02 2.962 1.188 1.692 1.956 4.334 1.917 7.622 2.109-2.855 4.231-5.614 5.91-7.024 2.549-2.141 5.093-2.856 7-2.921 3.885-.13 8.376 1.184 10.008 8.192.901 3.871.366 7.618-1.223 11.244-1.899 4.332-5.923 8.484-8.387 12.542-4.368 7.193-9.163 14.493-13.126 22.125-2.446 4.709-4.571 9.544-5.996 14.581-.169.597-.734 3.16-1.289 5.731 2.07-1.069 4.191-2.497 6.311-4.096 9.457-7.128 18.688-17.477 23.246-21.518l13.798-12.613c.806-.78 2.081-2.876 2.871-3.699 1.256-1.309 2.516-1.995 3.38-2.346 3.374-1.368 6.148-.601 8.333.954 1.392.989 3.704 2.931 3.702 7.363-.001 4.188-1.577 7.785-4.276 10.959-2.775 3.263-7.535 5.771-10.209 9.145-4.381 5.525-8.602 11.16-12.361 17.073-3.587 5.644-6.753 11.541-9.201 17.858 4.13-3.343 7.697-7.4 9.224-8.992 6.212-6.481 11.701-13.529 16.705-20.919 7.706-11.381 14.27-23.571 20.501-35.821l5.586-11.727c1.166-2.522 2.735-8.381 4.011-10.892.988-1.943 2.177-3.183 3.064-3.871 2.84-2.204 5.709-2.307 8.291-1.429 1.702.579 4.467 1.898 5.848 6.227.783 2.455.846 5.849.037 9.483-1.147 5.151-4.054 11.173-4.432 12.233-4.503 12.599-9.477 25.242-13.829 38.044-2.827 8.314-5.389 16.696-7.367 25.177-.249 1.07-.483 3.889-.66 6.568 2.608-2.781 5.84-6.278 6.817-7.51 6.38-8.044 12.46-16.325 18.393-24.715 9.013-12.746 17.688-25.744 26.544-38.568l18.436-26.194c.257-.324 6.749-7.03 9.455-9.478 7.734-6.993 15.061 3.47 15.175 4.791.38 4.411-.313 9.3-1.709 14.311-2.479 8.895-7.31 18.321-9.653 25.359l-10.037 33.489c-.453 1.818-.941 14.307-1.152 20.288 7.563-4.978 14.021-12.878 19.805-21.689 10.297-15.687 18.275-34.343 24.965-47.665.138-.277 4.679-12.886 8.587-19.564 2.715-4.639 6.155-7.126 8.247-7.775 3.986-1.236 6.773-.012 8.81 1.671 1.493 1.233 2.828 3.094 3.302 5.791.378 2.154-.597 6.934-1.064 9.33l-4.04 13.79c-3.824 12.299-9.061 24.676-13.072 37.203-1.624 5.075-3.038 10.176-4.034 15.309-.16.828-.291 3.109-.37 4.951.668-.22 1.335-.548 2.005-.914 2.587-1.414 5.077-3.628 7.485-6.173 8.981-9.493 16.412-23.489 19.71-29.251l11.475-20.708 8.089-17.117c.437-.986 3.579-11.99 7.245-17.704 2.423-3.777 5.472-5.956 8.047-6.742 4.163-1.272 7.102-.065 9.267 1.649 1.654 1.31 3.107 3.304 3.678 6.198.529 2.683-.78 8.642-.958 11.719-.152 2.631-3.356 20.386-5.435 31.687 3.94-2.852 7.806-6.629 11.604-10.71 11.813-12.694 22.372-28.844 29.833-37.991l17.244-22.24c.203-.241 4.214-4.528 7.818-7.233 2.652-1.99 5.358-3.137 7.208-3.445 5.072-.846 8.631 1.167 10.78 5.26 2.743 5.227 3.443 12.313 2.527 20.154-.767 6.569-2.7 13.818-4.373 20.413 2.101-3.807 4.027-7.924 5.846-12.185 3.504-8.208 6.522-16.979 9.254-25.54-3.123-1.023-5.525-3.136-5.725-3.442-.295-.451-2.922-4.175-.63-9.504.848-1.97 4.296-8.794 5.909-11.432l1.984-2.942c3.073-6.228 5.854-12.62 8.407-19.116 6.705-17.055 11.843-34.823 16.484-52.292.376-1.414 2.503-8.87 4.338-15.281l-.179.144a86.63 86.63 0 0 0-2.975 2.57 245.79 245.79 0 0 1-3.809 5.694l-8.703 11.694c-2.583 3.076-7.107 9.412-10.252 11.288-2.96 1.765-5.844 2.074-8.318 1.613-2.914-.543-5.906-2.051-8.02-5.966-1.27-2.35-2.097-6.01-.114-10.377 1.982-4.364 10.889-13.242 11.416-13.798 1.524-1.608 6.038-6.545 11.576-11.757 2.546-3.952 5.629-9.085 8.088-14.349 1.531-3.279 2.83-6.599 3.435-9.649.202-1.02.205-2.573.197-3.192-.827-.415-1.999.154-3.26.353-4.677.741-10.036 3.068-15.324 5.798-6.885 3.553-13.595 7.884-18.727 11.388a59.042 59.042 0 0 1-3.006 4.809c-4.277 6.163-9.708 11.505-14.646 14.337-5.259 3.016-10.405 3.574-14.603 2.311-3.107-.935-5.077-2.854-6.279-5.32-.861-1.768-2.123-5.156.221-9.491.351-.65 1.306-2.079 2.984-3.778 3.997-4.05 14.979-13.482 15.936-14.143l2.282-1.586.575-1.262.394-.924c-.465.031-.927.079-1.326.152-3.464.63-7.294 2.019-11.106 3.657-7.048 3.026-13.986 6.951-18.843 9.786-3.687 4.925-8.11 9.367-12.499 12.42-7.342 5.107-14.908 6.303-20.39 4.315-6.891-2.498-7.732-7.345-7.328-11.36.196-1.947.963-4.515 3.309-6.881 1.337-1.348 5.046-3.396 6.728-4.526l15.039-9.209.316-.18.296-.471c1.002-1.681 1.867-4.223 2.372-5.881-.896-.069-1.99-.109-2.961-.026l-6.332.936-15.889 7.101c-1.519 1.416-2.946 2.62-4.191 3.542-.185.138-13.198 8.806-18.48 10.377-8.741 2.601-13.352-2.602-14.865-6.617-.9-2.387-1.667-9.258 5.359-14.344 3.909-2.83 13.235-7.472 18.547-10.043 2.906-3.374 6.331-8.175 8.802-11.78Zm-425.275 168.27-.797.602c-4.16 2.943-8.037 3.652-10.428 3.658l-.139-.004c-.472 2.076-1.087 5.075-1.565 7.47.681-.336 1.363-.767 2.054-1.211 3.409-2.196 6.685-5.521 9.768-9.172l1.107-1.343Zm145.127-123.282-2.525 1.307c-10.686 5.519-20.606 12.113-29.881 19.54a201.896 201.896 0 0 0-4.902 4.056 18.289 18.289 0 0 1 1.822 4.781l.294-.178 20.878-13.622c5.451-5.721 10.374-11.402 14.314-15.884Z" style="fill-opacity:.85"/><path d="M280.377 701.225c4.305-3.102 14.705-1.14 19.692-1.14 14.028 0 30.216-.411 44.185-2.499 56.435-8.436 113.864-6.046 171.181-7.269 23.924-.51 60.713 6.003 83.826-2.272" style="fill:#fff;fill-opacity:.45"/><path d="M286.776 714.327c1.452 3.517 10.155-.57 13.293-.739 8.656-.441 18.068-1.049 27.324-2.09 6.371-.717 12.641-1.562 18.532-2.732 22.15-4.126 44.452-6.874 66.956-8.195a676.932 676.932 0 0 1 40.897-1.181c20.619.038 41.232 1.068 61.877 1.239 16.595.451 39.09 4.434 59.27 4.676 10.645.128 20.639-.975 29.251-3.53 7.578-2.713 11.528-11.068 8.815-18.646-2.713-7.577-11.068-11.527-18.646-8.814-5.898 2.488-12.919 3.955-20.474 4.651-19.83 1.829-42.315-.104-58.656 1.039-22.828 1.112-45.649 2.196-68.463 2.528-23.146.337-46.22.189-69.237 1.356-11.669.591-23.297 1.281-34.932 2.517-6.661.674-13.807.875-20.97.865-7.372-.01-14.709-.336-21.544-.689-4.486-.242-12.665-1.641-18.542-.9-3.848.486-7.041 2.022-9.675 3.711-6.53 4.705-8.012 13.826-3.307 20.357 4.214 5.848 11.969 7.647 18.231 4.577Z"/><path d="M618.453 671.227c2.816 0-4.041 3.945-5.809 6.137-3.031 3.755-5.101 8.654-7.324 12.953-7.536 14.572-10.603 31.388-10.603 47.722 0 48.485 22.341 92.439 58.824 125.208 69.83 62.72 163.403 82.584 253.5 56.35 36.703-10.687 68.274-25.432 88.62-59.762 16.083-27.136 16.892-63.088 13.633-93.391-7.042-65.482-40.205-132.427-105.54-158.157-48.119-18.95-104.753-11.143-154.519-4.091-44.617 6.322-71.359 27.686-105.032 54.312-4.857 3.84-30.802 17.563-30.802 23.174" style="fill:#fff;fill-opacity:.45"/><path d="M620.725 656.807a18.677 18.677 0 0 0-2.272-.164c-4.282 0-8.136 1.85-10.805 4.794-2.029-.092-5.047 5.326-6.246 6.856a45.777 45.777 0 0 0-3.645 5.409c-1.875 3.257-3.45 6.815-5.079 10.077-4.228 8.471-7.231 17.543-9.069 26.881-1.775 9.024-2.55 18.271-2.42 27.379.366 26.39 6.736 51.466 18.142 74.313 11.107 22.247 26.877 42.43 46.433 59.554 36.772 32.262 79.576 53.27 124.9 62.726 44.96 9.381 92.407 7.489 138.874-6.461 19.137-5.694 36.891-12.508 52.539-22.309 16.082-10.072 30.001-23.251 40.879-41.704 6.959-11.763 11.279-25.046 13.734-38.858 3.532-19.877 3.161-40.876 1.191-59.779-3.428-34.16-13.802-68.696-31.66-98.162-18.176-29.991-44.149-54.7-78.676-68.697-20.363-8.3-42.229-12.042-64.53-13.122-32.058-1.553-65.036 2.554-95.507 6.467-18.964 2.423-34.962 7.457-49.658 14.302-21.91 10.206-40.788 24.689-62.323 41.225-2.206 1.691-8.384 5.268-14.802 9.273Zm-1.813 38.375-.951 1.673c-3.281 6.129-5.649 12.736-7.193 19.553-1.611 7.107-2.421 14.415-2.524 21.631-.31 22.378 4.515 43.787 13.67 63.41 9.21 19.741 22.657 37.71 39.404 53.139 33.16 30.489 72.098 50.855 113.65 60.394 41.742 9.582 86.037 8.326 129.577-3.96 17.608-5.014 34.033-10.918 48.455-19.787 13.915-8.556 25.929-19.883 35.367-35.723 7.443-12.55 11.305-27.159 12.951-42.118 1.71-15.545 1.008-31.467-.611-46.026-3.611-31.471-13.451-63.281-30.391-90.183-16.458-26.138-39.703-47.554-70.352-59.273-18.304-6.959-37.868-9.747-57.747-10.214-30.726-.722-62.183 4.179-91.255 8.686-16.044 2.498-29.519 7.12-41.834 13.28-19.936 9.973-36.828 24.008-56.248 39.817-3.687 3.007-20.142 23.537-26.601 19.04a14.618 14.618 0 0 1-7.367 6.661Z"/><path d="M964.859 681.002c-4.58-.82 11.875-9.321 13.633-10.002 10.306-3.99 21.588-7.385 32.567-8.862 20.998-2.823 46.787-2.685 67.671.914 7.194 1.239 12.974 2.093 19.692 4.77 1.69.674 10.353 4.957 10.353 3.631" style="fill:#fff;fill-opacity:.45"/><path d="M976.746 689.449c2.513-1.479 5.629-6.455 6.261-6.785 4.651-2.36 9.403-4.726 14.425-6.63 4.914-1.863 9.888-3.437 14.888-4.518 5.122-.961 10.515-1.93 16.118-2.385 5.368-.435 10.894-.605 16.395-.337 11.189.544 22.152 2.747 32.011 5.202 3.347.939 6.31 1.777 9.255 2.762 2.51.839 4.82 2.008 7.412 3.383 1.596.863 8.499 4.682 11.329 5.634 5.414 1.822 9.341-.772 11.473-1.746 4.855-2.218 6.318-6.863 7.045-12.576 0-7.255-5.309-13.28-12.251-14.395-.844-1.727-6.786-1.288-7.775-1.555-3.406-.944-6.494-1.726-9.659-2.163-4.217-.581-8.313-.915-13.057-1.232-8.979-.826-18.651-.873-28.555-.706-5.613.095-11.262.293-16.857.409-8.794.184-17.41.21-25.406.95-6.025.327-12.089 1.331-18.185 2.458-6.025 1.114-11.902 2.536-17.637 4.118-1.404.371-9.94 3.898-15.154 6.751-2.976 1.629-4.825 3.787-6.042 5.099-4.759 5.129-3.203 10.722-2.199 14.584.97 3.732 4.301 7.361 11.708 9.586 5.733 1.027 11.289-1.455 14.457-5.908Zm117.458-18.493c-.03.153-.034.318-.012.497l.012-.497Zm-122.687-2.93a8.123 8.123 0 0 0-4.088-1.379c1.461.262 2.832.733 4.088 1.379Z"/><path d="M1089.08 670.095c-16.029 0-21.013 17.357-28.272 27.952-23.959 34.967-24.726 85.259-3.787 121.109 53.321 91.289 194.66 116.365 280.758 62.721 25.996-16.198 42.729-42.884 60.089-67.031 9.137-12.709 28.393-20.372 33.332-35.683 8.016-24.846-3.537-57.085-11.868-80.21-5.591-15.521-9.053-33.915-18.434-47.722-12.953-19.065-29.361-41.609-50.244-52.493-49.86-25.986-112.362-.423-160.071 17.045-28.599 10.471-58.79 24.892-84.583 41.132-2.98 1.876-22.979 9.885-22.979 12.5" style="fill:#fff;fill-opacity:.45"/><path d="M1071.22 660.768a32.25 32.25 0 0 0-2.598 1.862c-8.536 6.764-13.559 18.855-19.315 27.54-13.082 19.738-19.85 43.567-20.177 67.512-.327 23.857 5.537 47.769 17.47 67.558 28.789 47.874 80.283 78.312 136.147 89.392 55.345 10.978 114.799 3.1 159.634-25.36 11.061-6.957 20.554-15.671 29.127-25.299 12.267-13.777 22.634-29.443 33.196-44.21 6.112-8.468 16.989-14.487 24.65-22.336 4.474-4.584 8.033-9.68 9.984-15.636 3.69-11.227 3.897-23.816 2.134-36.559-2.403-17.376-8.524-35.062-13.551-49.375-3.849-10.973-6.677-23.335-11.172-34.589-2.182-5.464-4.753-10.675-7.912-15.435-7.91-11.921-17.132-25.105-27.834-36.289-7.721-8.067-16.246-15.062-25.542-20.039-21.846-11.746-46.033-14.431-70.591-12.182-34.216 3.135-69.184 16.217-98.66 26.529-14.776 5.164-29.961 11.36-44.816 18.271-14.925 6.944-29.488 14.645-42.937 22.819-2.538 1.54-16.841 7.202-21.984 10.649-2.379 1.594-4.067 3.386-5.253 5.177Zm30.022 17.361c-2.609 3.945-7.086 6.549-12.167 6.549-2.827-.044-4.442 1.892-5.938 3.868-4.143 5.471-7.214 12.26-10.838 17.378-10.732 15.156-16.463 33.73-17.271 52.493-.825 19.145 3.269 38.499 12.404 54.655 24.503 43.207 69.979 71.004 119.43 81.904 50.36 11.101 104.895 4.826 146.304-20.495 9.716-5.996 18.051-13.57 25.599-21.932 11.95-13.24 21.977-28.394 32.258-42.621 6.526-9.114 17.973-15.844 26.143-24.322 2.59-2.688 4.78-5.588 5.886-9.07 2.807-8.864 2.652-18.786 1.13-28.794-2.454-16.132-8.558-32.455-13.448-45.693-3.412-9.238-6.059-19.511-9.685-29.202-2.163-5.783-4.706-11.337-8.101-16.219-7.54-10.843-16.258-22.874-26.363-32.977-6.326-6.325-13.214-11.859-20.748-15.68-18.292-9.236-38.375-10.65-58.605-8.238-32.204 3.841-64.755 17.447-92.285 27.98-13.832 5.297-28.027 11.569-41.875 18.536-13.779 6.932-27.185 14.585-39.538 22.639-1.391.908-7.137 6.132-12.292 9.241Z"/><path d="M181.976 534.365c-48.718-152.147 53.312-286.407 158.101-388.943 43.173-42.244 77.109-83.785 136.184-105.101 119.145-42.99 260.138-28.14 376.922 15.176 48.611 18.031 192.181 110.083 214.977 158.754 14.419 30.788 1.692 65.011-43.381 73.092" style="fill:#fff"/><path d="M195.864 529.918c-19.343-57.945-15.458-113.429 2.558-165.452 27.618-79.747 87.622-151.395 148.43-212.12 25.637-25.437 47.884-50.656 74.402-71.307 16.871-13.139 35.497-24.4 57.927-32.625 58.536-21.072 122.449-28.1 186.028-24.132 63.744 3.978 127.073 19.034 184.416 40.808 27.599 10.574 86.325 46.098 134.998 83.374 33.693 25.804 62.754 52.103 71.517 71.416 5.523 12.192 5.661 25.053-.937 35.152-5.915 9.055-17.051 15.318-32.998 17.957-7.922 1.42-13.201 9.005-11.78 16.928 1.42 7.922 9.005 13.201 16.928 11.781 25.499-4.926 42.211-16.965 51.334-31.756 11.047-17.911 11.661-40.305 1.493-61.321-10.364-21.451-42.721-51.211-81.22-79.327-51.443-37.569-113.314-73.018-142.219-83.389C797.357 24.399 731.893 10.36 666.224 6.819c-65.971-3.557-132.207 3.465-192.883 25.409-24.346 8.642-44.602 20.615-63.016 34.6-27.326 20.754-50.491 46.068-77.023 71.67-64.462 61.803-127.662 135.387-158.218 217.591-21.198 57.026-26.79 118.183-6.997 182.723 2.454 7.666 10.67 11.896 18.336 9.442 7.665-2.455 11.896-10.671 9.441-18.336Z" style="fill-opacity:.85"/><path d="M507.031 586.727c-5.581-2.51 23.656-9.664 26.99-11.005 20.105-8.083 42.975-15.218 63.665-21.617 14.603-4.516 28.005-16.574 43-21.63 45.965-15.5 102.356-20.626 150.513-25.425 92.135-9.182 190.156-12.908 282.904-12.908 43.741 0 95.75 13.868 138.296 1.148 15.372-4.596 14.132-43.828 11.382-54.644-32.087-126.219-102.173-179.008-120.466-216.161-30.892-62.741-143.739-11.254-199.961-4.68-154.18 18.029-301.87 49.531-447.758 103.967-72.959 27.223-146.232 46.99-206.591 98.66-32.552 27.866-57.762 57.816-77.665 96.043-21.123 40.572 14.433 64.656 31.642 98.275 5.488 10.721 36.719 80.556 43.494 76.994 39.641-20.842 76.701-46.15 117.63-65.647 28.473-13.563 57.675-24.691 87.696-33.769 10.158-3.072 19.886-6.478 30.353-8.358 5.082-.912 20.352-3.037 15.189-3.037-6.842 0-13.429.077-20.248.769" style="fill:#abe9f6"/><path d="M497.61 597.986a17.87 17.87 0 0 0 3.441 2.041c5.272 2.371 11.215 1.347 15.367-2.138 5.04 1.774 20.797-7.943 22.964-8.831 7.827-3.208 16.086-6.273 24.469-9.201 12.721-4.442 25.719-8.581 37.948-12.454 3.697-1.171 7.341-2.706 10.938-4.51 10.727-5.378 20.974-13.635 32.293-17.537 17.847-6.153 37.341-10.684 57.298-14.229 30.314-5.386 61.669-8.532 90.119-11.555 45.843-4.845 93.156-8.342 140.555-10.694 47.415-2.353 94.91-3.567 141.101-3.842 30.357-.16 64.729 6.331 97.123 6.003 15.293-.155 30.169-1.765 44.087-6.001 7.906-2.407 14.011-9.846 17.083-20.459 4.513-15.592 3.082-38.192.96-46.367-9.722-37.595-22.724-68.791-36.723-95.072-33.223-62.373-72.264-96.357-85.302-122.602-11.814-23.827-33.634-33.71-60.273-35.334-47.28-2.883-110.752 21.656-148.691 26.158-77.435 9.003-153.216 21.501-228.009 38.357-74.827 16.864-148.675 38.096-222.07 65.189-44.183 16.246-88.451 29.821-129.995 49.245-28.256 13.21-55.252 29.113-80.178 50.23-16.875 14.281-31.841 29.126-45.199 45.303-13.408 16.239-25.177 33.834-35.596 53.572-10.416 19.727-9.571 36.319-3.726 51.744 7.326 19.338 24.338 36.583 34.726 57.205 4.444 8.823 25.691 56.574 37.469 73.309 4.913 6.98 10.303 9.97 13.226 10.606 3.462.754 6.549.163 9.305-1.263 28.003-14.492 54.746-31.192 82.439-46.537 11.485-6.364 23.137-12.485 35.123-18.1a589.11 589.11 0 0 1 42.363-17.836c14.353-5.4 28.896-10.236 43.633-14.577 6.012-1.771 11.87-3.663 17.824-5.276 3.601-.974 7.239-1.834 10.981-2.479 2.878-.495 8.798-1.362 12.927-2.068Zm7.122-27.975c8.104-3.135 21.627-6.718 23.927-7.624 8.325-3.282 17.104-6.411 26.015-9.388 13.044-4.359 26.366-8.408 38.899-12.192 10.993-3.319 21.197-11.357 32.103-16.755 3.498-1.731 7.045-3.265 10.666-4.459 19.199-6.33 40.128-10.939 61.546-14.452 30.99-5.084 63.007-7.908 92.063-10.613 46.339-4.339 94.147-7.302 142.028-9.106 47.771-1.799 95.61-2.451 142.124-2.173 30.346.159 64.635 7.022 97.019 7.026 13.286.002 26.235-1.173 38.363-4.733 1.638-.481 2.072-2.534 2.847-4.565 1.329-3.48 2.129-7.646 2.603-11.925 1.141-10.286.453-21.226-.729-25.971-8.99-35.987-21.14-65.898-34.318-91.104-32.825-62.782-71.706-97.142-84.589-123.545-8.719-17.833-25.469-24.45-45.346-25.751-46.285-3.03-108.445 21.286-145.612 25.568-76.806 9.032-152.016 21.313-226.143 38.344-73.976 16.996-146.856 38.723-219.295 66.042-43.485 16.463-87.105 30.221-127.946 49.812-26.489 12.707-51.789 27.904-75.061 48.034-15.711 13.603-29.636 27.701-42.019 43.049-12.291 15.232-23.041 31.709-32.516 50.162-6.494 12.65-6.06 23.208-2.215 32.993 7.3 18.577 24.214 34.834 34.498 54.607 4.139 7.96 23.018 49.429 34.725 67.126 24.82-13.7 48.751-28.927 73.476-43.05 11.923-6.81 24.028-13.362 36.486-19.396a619.162 619.162 0 0 1 44.053-19.251 658.607 658.607 0 0 1 45.341-15.874c5.859-1.818 11.577-3.739 17.373-5.424a14.534 14.534 0 0 1 10.527-6.23l21.719-.696c3.179.023 5.589.673 7.388 1.514Zm11.873 5.715c-.939-.857-2.113-1.647-3.593-2.3a14.48 14.48 0 0 1 3.593 2.3Z"/><path d="M582.079 256.612c.696-1.046-14.136 17.608-18.123 22.765-12.685 16.407-24.396 32.358-33.312 51.227-26.633 56.356-36.319 129.829-40.471 191.623-5.475 81.482-20.092 162.098-29.088 243.228-6.609 59.597-6.906 120.083-14.76 179.484-5.722 43.283-5.489 86.201-5.489 129.769 0 13.909-.951 27.773 2.53 41.357 1.845 7.201 14.187 21.253 6.754 21.253-9.822 0-28.767-31.943-33.73-38.32-37.842-48.618-54.456-97.933-76.73-154.816-39.639-101.229-111.791-189.562-135.249-295.08-12.644-56.875-51.82-89.774-46.334-148.987 5.877-63.431 4.479-82.04 29.06-139.625" style="fill:#fff"/><path d="M433.333 1108.72c-4.569-6.547-8.388-12.541-10.244-14.932-14.618-18.901-25.973-37.895-35.672-57.427-14.951-30.108-26.015-61.468-39.157-95.542-27.211-70.954-70.33-135.719-101.602-204.376-13.2-28.98-24.211-58.675-30.871-89.866-8.602-40.49-30.513-69.127-40.603-103.376-3.743-12.703-5.616-26.281-4.024-41.87 3.895-37.986 4.884-59.532 10.795-83.432 3.654-14.773 9.265-30.44 18.595-51.68 3.159-7.403-.285-15.978-7.688-19.138-7.402-3.16-15.978.285-19.137 7.687-9.671 23.328-15.335 40.533-18.985 56.692-5.676 25.117-6.452 47.645-9.746 87.447-1.606 19.318.982 36.073 5.906 51.697 10.579 33.563 32.907 61.29 42.135 101.032 7.551 32.669 19.628 63.691 33.973 93.941 32.179 67.858 75.975 131.732 104.052 201.977 13.701 34.47 25.362 66.159 40.798 96.613 10.35 20.421 22.364 40.301 37.833 60.049 3.829 4.907 15.819 24.476 25.804 34.042 5.266 5.044 10.635 7.495 14.625 7.49 3.758-.004 6.137-1.397 7.73-2.941 2.4-2.327 3.936-6.095 2.496-11.195-1.291-4.572-7.533-12.72-8.786-17.643-1.248-4.902-1.839-9.846-2.118-14.814-.455-8.099-.094-16.263-.081-24.443.063-26.023.019-51.813 1.267-77.584.823-16.994 2.222-33.977 4.545-51.016 2.46-17.994 4.217-36.09 5.696-54.231 3.403-41.763 5.213-83.77 10.074-125.329 6.733-56.716 16.191-113.158 23.396-169.837 3.115-24.506 5.818-49.052 7.688-73.688 2.757-36.25 7.465-76.575 16.522-114.928 5.992-25.372 13.922-49.857 24.478-71.639 3.374-6.964 7.177-13.481 11.264-19.774 6.394-9.844 13.524-19.116 20.975-28.561 3.038-3.851 12.365-15.369 16.341-20.202.254-.308.49-.612.706-.916a14.483 14.483 0 0 0 1.913-2.321c.168-.258.182-.768.056-1.462 1.305-4.326-1.126-7.708-4.895-10.175-4.965-7.036-12.926-12.906-20.439-3.396-3.968 5.022-13.272 16.985-16.302 20.984-7.795 10.289-15.225 20.402-21.877 31.097-4.563 7.336-8.781 14.93-12.508 23.022-10.908 23.679-18.979 50.194-24.923 77.637-8.62 39.801-12.832 81.537-15.019 119.041-1.419 24.27-3.641 48.468-6.311 72.629-6.279 56.831-14.921 113.447-20.782 170.302-4.386 41.841-5.646 84.099-8.631 126.123-1.265 17.822-2.858 35.6-5.117 53.285-2.249 17.564-3.526 35.064-4.26 52.568-1.092 26.038-.97 52.086-.906 78.371.014 8.508-.312 17 .188 25.422.171 2.871.434 5.733.833 8.586Z" style="fill-opacity:.85"/><path d="M401.774 1075.33c.638-2.313-40.709 20.82-46.377 29.218-17.521 25.964-26.246 74.803-20.666 105.871 11.783 65.602 112.401 102.589 167.385 75.882 28.677-13.929 46.694-134.361 18.123-160.122-19.619-17.69-55.607-42.883-83.053-42.883-8.031 0-74.514 1.148-43 1.148" style="fill:#fff"/><path d="M378.996 1070.82a54.647 54.647 0 0 0-3.47.748c-12.24 2.198-17.655 6.178-18.406 10.415-1.023 1.554-1.507 3.145-1.337 4.702-5.449 4.162-9.724 7.949-11.338 10.473-9.289 14.466-16.29 35.057-19.828 56.373-3.454 20.815-3.825 42.209-.471 58.79 7.034 35.785 37.54 63.842 74.347 78.923 36.125 14.801 77.877 17.184 107.319 2.669 5.36-2.572 10.634-7.837 15.322-15.379 9.666-15.548 17.389-41.839 21.034-68.787 3.065-22.662 3.196-45.73-.542-63.22-2.674-12.515-7.605-22.347-14.089-28.441-11.982-11.296-29.986-25.382-48.632-35.253-14.137-7.483-28.751-12.296-41.719-12.604-2.685-.067-11.841-.165-21.732-.238a13.62 13.62 0 0 0-1.88-3.317c-1.873-2.454-6.356-7.806-15.196-5.738-1.28.299-4.214 1.264-8.028 3.272-3.023 1.592-6.999 3.908-11.354 6.612Zm7.81 27.866c-4.239 2.4-8.539 4.978-12.301 7.442-3.727 2.441-7.054 4.263-8.156 5.813-8.235 11.621-14.516 28.519-18.233 46.031-3.772 17.772-5.06 36.157-2.799 50.547 4.828 29.67 30.183 52.919 60.237 66.022 30.989 13.51 67.224 16.419 92.866 4.151 4.486-2.212 8.138-8.163 11.665-15.838 6.595-14.353 11.364-34.7 13.549-55.343 1.809-17.089 1.751-34.398-.628-48.711-1.807-10.871-4.7-19.879-10.065-24.526-11.179-9.64-27.819-21.612-44.921-29.684-10.592-4.999-21.338-8.45-30.834-8.225-4.121.103-23.744.901-37.393 1.543a14.502 14.502 0 0 1-5.607 1.12 175.233 175.233 0 0 1-7.38-.342Z"/><path d="M666.938 227.056c-10.649-18.021-11.466-21.76-16.831-29.389-2.858-4.063-6.95-9.223-14.434-18.045-31.814-37.559-65.114-50.227-97.14-47.422-46.976 4.115-92.385 43.378-126.444 90.712-6.989 9.666-11.187 19.224-13.802 28.861-5.735 21.135-3.157 42.596-8.856 66.377-3.681 15.159-6.141 29.185-7.969 42.699-4.454 32.904-4.981 62.714-9.682 98.781-3.7 26.702-12.646 52.188-18.22 78.661-2.475 11.752-4.327 23.687-4.842 35.995-2.183 49.039-1.475 98.506 3.016 147.578 4.517 49.363 12.912 98.307 26.592 145.991 7.024 24.61 9.08 47.314 16.076 69.548 3.246 10.315 7.525 20.504 13.546 30.745 4.2 6.866 13.184 9.031 20.05 4.831 6.866-4.2 9.031-13.184 4.831-20.05-6.994-10.998-11.342-22.045-14.649-33.346-5.539-18.924-8.511-38.437-15.175-59.209-14.641-45.822-24.341-93.004-29.971-140.74-5.665-48.032-7.25-96.578-6.186-144.744.279-11.299 1.769-22.283 3.902-33.094 5.307-26.912 14.21-52.82 17.731-79.924 4.97-35.98 5.626-65.758 10.421-98.569 1.887-12.908 4.457-26.289 8.174-40.742 6.096-23.407 3.854-44.703 9.969-65.484 2.191-7.444 5.634-14.791 11.234-22.177 25.579-33.59 57.019-63.241 90.519-74.315 31.748-10.495 64.879-2.372 95.714 36.402 6.406 8.072 9.931 12.759 12.357 16.46 4.779 7.293 5.322 10.867 14.718 28.032 3.98 6.996 12.892 9.444 19.887 5.464 6.996-3.98 9.444-12.892 5.464-19.887Z" style="fill:#aeebf9;fill-opacity:.62"/><path d="M828.833 196.743c-8.987-12.638-17.978-26.895-26.882-39.305-4.522-6.302-9.017-12.161-13.486-17.174-16.776-18.829-40.256-40.958-65.342-58.257-17.729-12.225-36.243-22.079-53.83-26.947-41.372-11.487-107.419-1.18-170.718 19.602-61.872 20.313-121.106 50.227-151.337 77.871-11.843 10.774-22.252 23.772-31.385 37.85-13.285 20.481-23.874 43.257-32.132 64.692-18.248 46.455-41.92 100.986-56.294 155.575-10.036 38.114-15.543 76.278-11.659 112.002 2.454 22.944 7.676 44.742 14.244 66.018 14.925 48.347 37.205 93.833 49.747 143.956 9.296 37.314 19.023 64.4 27.42 96.361a550.602 550.602 0 0 1 9.106 40.805c1.57 7.894 9.253 13.029 17.147 11.46 7.894-1.569 13.03-9.252 11.46-17.146-3.348-15.677-6.966-29.536-10.779-42.59-9.241-31.63-19.619-58.382-29.861-95.334-13.884-50.288-37.488-95.659-53.654-144.122-6.625-19.86-11.962-40.252-14.719-61.772-4.222-33.4.38-69.257 9.311-105.085 13.478-54.066 36.661-108.015 54.265-154.029 6.644-17.03 14.783-34.981 24.755-51.746 9.766-16.419 21.291-31.696 34.835-43.788 29.231-25.937 86.264-53.494 145.637-71.779 58.835-18.119 119.999-27.368 157.986-15.917 15.115 4.569 30.847 13.634 45.921 24.59 22.883 16.632 44.103 37.781 59.216 55.66 3.756 4.446 7.493 9.641 11.265 15.205 8.553 12.617 17.141 27.081 25.77 39.929 4.577 6.621 13.668 8.28 20.289 3.704 6.621-4.577 8.281-13.668 3.704-20.289ZM927.237 191.919c-4.922-14.157-8.916-21.698-13.425-27.157-6.65-8.052-14.11-10.559-27.297-27.251-5.806-8.065-14.624-16.472-24.109-25.703-5.859-5.701-11.877-11.802-17.986-17.914a748.44 748.44 0 0 1-17.394-17.982c-8.63-9.236-16.135-18.247-21.658-26.266-5.154-6.182-14.358-7.016-20.539-1.861-6.182 5.154-7.016 14.358-1.862 20.539 10.182 10.242 25.083 21.307 40.349 33.11 8.826 6.824 17.818 13.71 25.656 20.975 9.318 8.637 16.853 17.704 21.946 25.664 10.507 18.273 17.61 21.721 22.802 30.672 2.446 4.217 3.647 9.996 5.208 20.197 1.938 7.812 9.854 12.581 17.666 10.643 7.812-1.938 12.581-9.854 10.643-17.666Z" style="fill:#aeebf9;fill-opacity:.62"/></svg>