<?xml version="1.0" encoding="UTF-8" standalone="no"?><!DOCTYPE svg PUBLIC "-//W3C//DTD SVG 1.1//EN" "http://www.w3.org/Graphics/SVG/1.1/DTD/svg11.dtd"><svg width="100%" height="100%" viewBox="0 0 33 34" version="1.1" xmlns="http://www.w3.org/2000/svg" xmlns:xlink="http://www.w3.org/1999/xlink" xml:space="preserve" xmlns:serif="http://www.serif.com/" style="fill-rule:evenodd;clip-rule:evenodd;stroke-linejoin:round;stroke-miterlimit:2"><g id="Cara"><path id="Light.Mechon" d="M22.296,7.873c0,-0.549 1.231,-0.759 1.575,-0.84c0.447,-0.106 0.894,-0.157 1.347,-0.234c1.024,-0.175 2.533,-0.581 3.344,0.372c0.229,0.269 0.347,1.191 0.204,1.505c-0.153,0.336 -0.437,0.556 -0.618,0.865c-0.156,0.268 0.275,0.332 0.153,0.615c-0.236,0.549 -1.076,0.585 -1.56,0.647c-0.159,0.021 -0.515,0.112 -0.678,0.038c-0.368,-0.167 -0.753,-0.884 -1.045,-1.162c-0.644,-0.613 -1.456,-0.959 -2.132,-1.501c-0.169,-0.135 -0.251,-0.366 -0.376,-0.476"/><path d="M22.27,8.623c0.061,0.042 0.121,0.081 0.168,0.115c0.509,0.367 1.077,0.635 1.613,0.967c0.194,0.121 0.385,0.247 0.561,0.399c0.233,0.203 0.53,0.662 0.824,0.93c0.139,0.127 0.276,0.228 0.411,0.283c0.114,0.046 0.265,0.078 0.434,0.067c0.185,-0.013 0.404,-0.068 0.523,-0.087c0.382,-0.061 0.957,-0.124 1.36,-0.362c0.244,-0.144 0.441,-0.337 0.547,-0.603c0.109,-0.263 0.075,-0.654 -0.033,-0.789c0.09,-0.113 0.188,-0.219 0.274,-0.335c0.081,-0.109 0.154,-0.224 0.213,-0.351c0.096,-0.206 0.128,-0.612 0.081,-1.012c-0.047,-0.404 -0.183,-0.792 -0.331,-0.975c-0.398,-0.497 -0.947,-0.716 -1.546,-0.796c-0.751,-0.1 -1.594,0.057 -2.251,0.142l-1.398,0.181c-0.273,0.05 -1.009,0.171 -1.477,0.423c-0.454,0.244 -0.676,0.635 -0.697,1.053c0,0.405 0.322,0.736 0.724,0.75Zm5.455,1.511c-0.102,-0.157 -0.109,-0.556 0.046,-0.813c0.136,-0.231 0.324,-0.416 0.48,-0.63c0.044,-0.06 0.084,-0.125 0.116,-0.196c0.048,-0.109 0.024,-0.323 -0.007,-0.532c-0.031,-0.201 -0.074,-0.404 -0.152,-0.492c-0.249,-0.276 -0.586,-0.369 -0.938,-0.391c-0.662,-0.042 -1.385,0.181 -1.953,0.302l-1.296,0.287c-0.074,0.022 -0.205,0.12 -0.353,0.222c0.356,0.271 0.736,0.51 1.094,0.785c0.231,0.177 0.456,0.362 0.661,0.577c0.199,0.207 0.438,0.622 0.687,0.93c0.051,0.063 0.092,0.127 0.141,0.164l0.427,-0.037c0.223,-0.022 0.528,-0.029 0.806,-0.1c0.083,-0.021 0.168,-0.041 0.241,-0.076Z"/><path d="M2.679,19.679c0.074,0.346 0.231,0.883 0.455,1.266c0.224,0.383 0.569,0.711 0.889,1.033c0.326,0.329 0.727,0.61 1.069,0.939c0.365,0.351 0.804,0.752 1.119,1.165c0.309,0.404 0.602,0.835 0.774,1.313c0.174,0.479 0.175,1.042 0.267,1.563c0.096,0.54 0.17,1.139 0.309,1.678c0.136,0.528 0.281,1.203 0.523,1.55c0.204,0.293 0.645,0.317 0.928,0.535c0.388,0.298 0.945,1.029 1.401,1.259c0.4,0.2 0.893,0.062 1.337,0.117c0.755,0.094 2.296,0.464 3.195,0.445c0.755,-0.015 1.617,-0.351 2.196,-0.555c0.455,-0.161 0.885,-0.397 1.282,-0.671c0.407,-0.281 0.791,-0.66 1.163,-1.017c0.418,-0.4 0.961,-0.911 1.342,-1.383c0.362,-0.449 0.686,-1.046 0.943,-1.45c0.205,-0.322 0.492,-0.705 0.599,-0.974c0.08,-0.199 0.075,-0.486 0.047,-0.64c-0.021,-0.118 -0.329,-0.267 -0.212,-0.29c0.147,-0.028 0.725,0.11 1.091,0.12c0.461,0.013 1.125,0.038 1.679,-0.042c0.573,-0.083 1.285,-0.243 1.762,-0.454c0.416,-0.185 0.84,-0.451 1.098,-0.812c0.259,-0.361 0.39,-0.882 0.453,-1.353c0.091,-0.685 0.069,-1.981 0.096,-2.756c0.022,-0.632 0.163,-1.27 0.065,-1.895c-0.111,-0.714 -0.47,-1.599 -0.732,-2.391c-0.39,-1.181 -1.229,-3.671 -1.609,-4.7c-0.186,-0.506 -0.288,-1.091 -0.669,-1.473c-0.524,-0.526 -1.736,-1.253 -2.476,-1.681c-0.622,-0.359 -1.281,-0.664 -1.964,-0.884c-0.787,-0.254 -1.85,-0.535 -2.759,-0.638c-0.892,-0.102 -1.799,-0.063 -2.693,0.016c-1.061,0.094 -2.481,0.215 -3.674,0.549c-1.213,0.339 -2.563,0.912 -3.605,1.487c-0.962,0.531 -1.981,1.38 -2.647,1.965c-0.513,0.451 -1.039,1.093 -1.346,1.546c-0.238,0.351 -0.348,0.773 -0.497,1.17c-0.152,0.404 -0.332,0.823 -0.416,1.256c-0.106,0.551 -0.1,1.371 -0.222,2.045c-0.129,0.713 -0.458,1.722 -0.552,2.229c-0.049,0.266 -0.066,0.548 -0.009,0.813Z" style="fill:#fff"/><path d="M23.012,26.103l0.371,0.046c0.291,0.007 0.661,0.018 1.034,0.005c0.246,-0.008 0.493,-0.025 0.723,-0.06c0.352,-0.052 0.753,-0.132 1.125,-0.234c0.277,-0.076 0.538,-0.165 0.755,-0.262c0.28,-0.125 0.562,-0.284 0.807,-0.478c0.181,-0.144 0.342,-0.306 0.47,-0.487c0.129,-0.181 0.233,-0.394 0.314,-0.623c0.105,-0.298 0.173,-0.624 0.214,-0.931c0.031,-0.235 0.05,-0.538 0.061,-0.868c0.022,-0.649 0.017,-1.408 0.034,-1.931c0.015,-0.443 0.087,-0.889 0.096,-1.332c0.005,-0.216 -0.005,-0.431 -0.039,-0.644c-0.038,-0.247 -0.102,-0.512 -0.183,-0.787c-0.16,-0.546 -0.384,-1.132 -0.562,-1.674l-1.595,-4.722c-0.134,-0.369 -0.229,-0.776 -0.404,-1.126c-0.096,-0.191 -0.214,-0.366 -0.364,-0.518c-0.237,-0.24 -0.604,-0.521 -1.011,-0.799c-0.526,-0.359 -1.12,-0.716 -1.554,-0.97c-0.323,-0.19 -0.656,-0.365 -0.997,-0.523c-0.344,-0.159 -0.696,-0.3 -1.055,-0.419c-0.412,-0.136 -0.899,-0.28 -1.4,-0.403c-0.487,-0.12 -0.989,-0.22 -1.453,-0.276c-0.468,-0.057 -0.941,-0.077 -1.414,-0.073c-0.462,0.003 -0.926,0.03 -1.386,0.066c-0.66,0.053 -1.457,0.115 -2.255,0.231c-0.52,0.075 -1.04,0.173 -1.525,0.304c-0.622,0.168 -1.279,0.395 -1.915,0.652c-0.652,0.262 -1.283,0.557 -1.832,0.853c-0.392,0.211 -0.794,0.472 -1.18,0.748c-0.605,0.431 -1.17,0.9 -1.596,1.268c-0.269,0.231 -0.54,0.509 -0.788,0.79c-0.269,0.304 -0.509,0.613 -0.684,0.866c-0.094,0.136 -0.173,0.28 -0.243,0.43c-0.132,0.281 -0.226,0.585 -0.338,0.875c-0.097,0.25 -0.204,0.505 -0.294,0.766c-0.068,0.197 -0.125,0.396 -0.167,0.598l-0.245,2.049l-0.577,2.222c-0.034,0.17 -0.055,0.346 -0.061,0.522c-0.007,0.196 0.008,0.392 0.047,0.582c0.054,0.243 0.144,0.567 0.267,0.882c0.083,0.211 0.178,0.419 0.286,0.598c0.115,0.192 0.251,0.373 0.403,0.546c0.191,0.217 0.404,0.422 0.609,0.624l1.092,0.94c0.215,0.202 0.457,0.422 0.682,0.651c0.136,0.138 0.267,0.279 0.379,0.423c0.142,0.181 0.281,0.368 0.404,0.565c0.112,0.178 0.212,0.363 0.285,0.559c0.042,0.111 0.071,0.228 0.094,0.349c0.068,0.359 0.092,0.739 0.16,1.099l0.334,1.723c0.099,0.369 0.203,0.805 0.337,1.163c0.086,0.229 0.184,0.431 0.293,0.585c0.086,0.12 0.189,0.221 0.307,0.303c0.131,0.09 0.281,0.161 0.438,0.222c0.111,0.043 0.23,0.071 0.321,0.139c0.257,0.194 0.589,0.584 0.916,0.878c0.203,0.183 0.406,0.336 0.593,0.427c0.189,0.093 0.39,0.143 0.6,0.162c0.303,0.026 0.629,-0.032 0.932,0.002c0.523,0.06 1.424,0.249 2.226,0.35c0.387,0.049 0.753,0.078 1.052,0.069c0.331,-0.009 0.679,-0.07 1.02,-0.158c0.496,-0.128 0.975,-0.312 1.343,-0.446c0.252,-0.091 0.497,-0.202 0.733,-0.33c0.231,-0.124 0.454,-0.264 0.668,-0.414c0.18,-0.126 0.357,-0.27 0.529,-0.423c0.237,-0.21 0.466,-0.436 0.691,-0.655c0.253,-0.247 0.552,-0.534 0.834,-0.829c0.195,-0.204 0.382,-0.411 0.541,-0.612c0.149,-0.187 0.293,-0.397 0.428,-0.611c0.201,-0.316 0.383,-0.64 0.539,-0.889c0.137,-0.217 0.309,-0.462 0.441,-0.682c0.081,-0.136 0.149,-0.264 0.193,-0.376c0.045,-0.114 0.074,-0.247 0.087,-0.381c0.007,-0.063 0.009,-0.125 0.009,-0.186Zm-0.954,-0.066c0.001,0.034 0,0.072 -0.002,0.11c-0.004,0.058 -0.011,0.117 -0.031,0.166l-0.565,0.891c-0.159,0.247 -0.344,0.567 -0.548,0.88c-0.118,0.181 -0.243,0.36 -0.372,0.519c-0.144,0.176 -0.313,0.358 -0.489,0.537c-0.276,0.281 -0.57,0.555 -0.819,0.79c-0.217,0.204 -0.438,0.417 -0.665,0.612c-0.144,0.124 -0.292,0.241 -0.442,0.343c-0.182,0.124 -0.373,0.239 -0.569,0.341c-0.192,0.1 -0.389,0.186 -0.593,0.256c-0.344,0.118 -0.79,0.284 -1.252,0.396c-0.261,0.063 -0.526,0.108 -0.777,0.111c-0.251,0.003 -0.556,-0.03 -0.879,-0.077c-0.805,-0.117 -1.708,-0.324 -2.233,-0.394c-0.281,-0.037 -0.581,-0.006 -0.867,-0.017c-0.095,-0.003 -0.189,-0.011 -0.274,-0.054c-0.101,-0.052 -0.205,-0.146 -0.314,-0.248c-0.348,-0.326 -0.706,-0.749 -0.981,-0.965c-0.089,-0.07 -0.188,-0.128 -0.293,-0.18c-0.113,-0.055 -0.235,-0.101 -0.351,-0.15c-0.053,-0.022 -0.115,-0.028 -0.146,-0.074c-0.074,-0.109 -0.127,-0.266 -0.179,-0.435c-0.093,-0.296 -0.165,-0.63 -0.237,-0.919l-0.282,-1.633c-0.061,-0.362 -0.077,-0.743 -0.137,-1.104c-0.033,-0.198 -0.079,-0.39 -0.143,-0.573c-0.08,-0.228 -0.183,-0.448 -0.301,-0.66c-0.164,-0.295 -0.358,-0.574 -0.558,-0.842c-0.14,-0.187 -0.302,-0.372 -0.471,-0.552c-0.234,-0.247 -0.484,-0.485 -0.706,-0.704l-1.047,-0.938c-0.177,-0.182 -0.362,-0.365 -0.526,-0.56c-0.09,-0.107 -0.173,-0.218 -0.24,-0.336c-0.083,-0.145 -0.15,-0.318 -0.206,-0.488c-0.069,-0.205 -0.119,-0.407 -0.151,-0.564c-0.017,-0.076 -0.024,-0.153 -0.023,-0.232c0.001,-0.097 0.011,-0.195 0.028,-0.29l0.526,-2.235l0.199,-2.041c0.026,-0.144 0.065,-0.286 0.11,-0.426c0.079,-0.246 0.175,-0.487 0.261,-0.723c0.085,-0.232 0.155,-0.473 0.247,-0.702c0.046,-0.116 0.097,-0.229 0.166,-0.333c0.146,-0.221 0.347,-0.49 0.574,-0.757c0.203,-0.24 0.426,-0.48 0.647,-0.679c0.395,-0.354 0.919,-0.808 1.481,-1.226c0.338,-0.253 0.69,-0.493 1.035,-0.688c0.507,-0.286 1.089,-0.574 1.693,-0.831c0.588,-0.25 1.196,-0.472 1.772,-0.639c0.44,-0.127 0.913,-0.224 1.386,-0.301c0.771,-0.125 1.542,-0.198 2.181,-0.261c0.434,-0.042 0.87,-0.075 1.307,-0.085c0.428,-0.01 0.855,0.001 1.28,0.046c0.425,0.045 0.886,0.131 1.334,0.234c0.476,0.11 0.938,0.239 1.33,0.362c0.325,0.102 0.644,0.224 0.956,0.362c0.314,0.14 0.621,0.296 0.92,0.466c0.42,0.24 0.997,0.577 1.508,0.918c0.352,0.235 0.673,0.469 0.879,0.673c0.114,0.113 0.191,0.252 0.256,0.4c0.125,0.29 0.205,0.61 0.315,0.903l1.623,4.679c0.152,0.458 0.337,0.947 0.487,1.417c0.102,0.317 0.187,0.624 0.231,0.904c0.025,0.163 0.031,0.327 0.027,0.492c-0.01,0.439 -0.084,0.882 -0.1,1.321c-0.019,0.522 -0.016,1.281 -0.041,1.93c-0.011,0.297 -0.028,0.57 -0.057,0.782c-0.028,0.208 -0.07,0.426 -0.134,0.633c-0.059,0.191 -0.137,0.373 -0.243,0.519c-0.103,0.143 -0.241,0.264 -0.392,0.37c-0.165,0.115 -0.347,0.21 -0.527,0.289c-0.223,0.097 -0.503,0.181 -0.793,0.251c-0.288,0.069 -0.586,0.124 -0.852,0.161c-0.196,0.028 -0.408,0.04 -0.618,0.045c-0.354,0.009 -0.705,-0.005 -0.982,-0.014c-0.297,-0.011 -0.736,-0.109 -0.96,-0.127c-0.1,-0.007 -0.18,-0.001 -0.233,0.008c-0.197,0.037 -0.286,0.146 -0.338,0.228c-0.066,0.105 -0.09,0.225 -0.061,0.361c0.013,0.062 0.043,0.14 0.107,0.22c0.021,0.027 0.085,0.086 0.134,0.131Z"/><path d="M2.541,17.485l-0.003,0.001l-0.028,0.012c-0.051,0.018 -0.191,0.059 -0.183,0.112c-0.276,0.227 -0.356,0.627 -0.174,0.948c0.149,0.159 0.247,0.352 0.466,0.356c0.074,0.001 0.15,0.048 0.236,0.022c0.074,-0.023 0.193,0.006 0.297,-0.083c0.031,-0.026 0.095,-0.037 0.141,-0.097c0.026,-0.034 0.115,-0.148 0.115,-0.148c0,-0 -0.05,0.027 -0.06,0.039l0.227,-0.277c0.109,-0.092 0.233,-0.228 0.397,-0.304c0.096,-0.044 0.189,-0.114 0.279,-0.084c0.152,0.078 0.274,0.185 0.366,0.314c0.103,0.144 0.133,0.32 0.182,0.498c0.026,0.11 0.051,0.336 0.083,0.491c0.029,0.141 0.113,0.226 0.148,0.294c0.09,0.171 0.264,0.183 0.364,0.241c0.118,0.068 0.244,0.012 0.368,0.016c0.172,0.006 0.289,-0.149 0.476,-0.315c0.044,-0.039 0.05,-0.111 0.096,-0.179c0.11,-0.303 0.013,-0.631 -0.219,-0.828c-0.082,-0.089 -0.201,-0.181 -0.241,-0.232c-0.169,-0.237 -0.337,-0.448 -0.55,-0.627c-0.132,-0.11 -0.264,-0.215 -0.415,-0.306c-0.095,-0.058 -0.191,-0.119 -0.298,-0.169c-0.219,-0.124 -0.485,-0.122 -0.762,-0.103c-0.319,0.022 -0.64,0.131 -0.884,0.216l-0.424,0.192Zm2.418,1.265c-0.017,0.022 -0.031,0.047 -0.035,0.08c0.011,-0.028 0.022,-0.055 0.035,-0.08Zm0.098,-0.149c-0.013,0.013 -0.024,0.027 -0.033,0.043c0.01,-0.015 0.021,-0.029 0.033,-0.043Zm-1.656,-0.869c0.02,0.026 0.039,0.054 0.056,0.084c-0.01,-0.034 -0.032,-0.06 -0.056,-0.084Zm-0.272,-0.221c0.077,0.037 0.149,0.087 0.211,0.15c-0.049,-0.08 -0.122,-0.122 -0.211,-0.15Zm-0.343,-0.074c-0.023,-0.003 -0.047,-0.001 -0.072,0.006c0.024,-0.003 0.048,-0.005 0.072,-0.006Z"/><path d="M4.083,20.817c0.031,0.059 0.12,0.075 0.146,0.146c0.039,0.112 0.185,0.06 0.273,0.151c0.023,0.024 0.06,-0.002 0.088,0.021c0.048,0.038 0.109,-0.024 0.175,0.007c0.055,0.026 0.101,-0.052 0.181,-0.036c0.025,0.004 0.037,-0.029 0.065,-0.026c0.039,0.003 0.052,-0.056 0.11,-0.061c0.024,-0.002 0.028,-0.041 0.065,-0.048c0.019,-0.004 0.025,-0.049 0.097,-0.071c0.281,-0.304 0.263,-0.779 -0.041,-1.06l-0.016,-0.015c-0.032,-0.047 -0.07,-0.091 -0.123,-0.128c-0.132,-0.095 -0.226,-0.222 -0.378,-0.26c-0.231,-0.171 -0.43,-0.157 -0.612,-0.16c-0.054,-0.001 -0.099,0.024 -0.156,0.026c-0.137,0.006 -0.236,0.091 -0.419,0.156c-0.007,0.002 -0.01,-0.019 -0.021,-0.016c-0.047,0.01 -0.077,0.042 -0.129,0.056c-0.07,0.02 -0.086,0.087 -0.146,0.115c-0.127,0.06 -0.089,0.206 -0.166,0.294c-0.089,0.102 0.019,0.219 -0.017,0.345c-0.01,0.035 0.028,0.057 0.022,0.093c-0.006,0.042 0.042,0.062 0.041,0.106c-0.001,0.073 0.089,0.092 0.108,0.174c0.219,0.246 0.566,0.313 0.853,0.191Zm1.322,-0.651c0.004,0.049 -0.017,0.103 0.004,0.159c0.016,0.042 -0.017,0.077 -0.007,0.123c0.007,0.03 0.011,0.063 0.013,0.094c0.018,-0.042 0.042,-0.073 0.026,-0.103c-0.015,-0.03 0.015,-0.058 -0.002,-0.082c-0.046,-0.069 0.003,-0.144 -0.034,-0.191Zm-1.123,0.03l0.007,0.006c-0.001,-0.001 -0.002,-0.003 -0.004,-0.004l-0.003,-0.002Zm1.039,-0.196l0.029,0.053c-0.005,-0.021 -0.012,-0.04 -0.029,-0.053Zm-1.134,-0.124c-0.002,0 -0.004,0.002 -0.004,0.005l0.004,-0.005Zm0.199,-0.204c-0.006,-0.019 -0.014,-0.036 -0.036,-0.044c0.013,0.014 0.025,0.029 0.036,0.044Z"/><g id="Light.Ojos"><path d="M15.326,18.054l-0.019,0.014c-0.102,0.138 -0.151,0.298 -0.149,0.457c-0.019,0.089 -0.027,0.177 -0.022,0.261c0.019,0.334 0.082,0.611 0.352,0.716c0.09,0.041 0.177,0.075 0.272,0.083c0.083,0.007 0.168,0.009 0.25,0.006c0.089,0.005 0.165,-0.007 0.24,-0.017c0.087,-0.012 0.166,-0.048 0.262,-0.089c0.327,-0.117 0.479,-0.486 0.526,-0.782c0.011,-0.07 -0.02,-0.132 -0.026,-0.202c-0.006,-0.094 -0.044,-0.172 -0.105,-0.246c0.006,-0.077 -0.001,-0.157 -0.02,-0.236c-0.052,-0.087 -0.046,-0.179 -0.104,-0.23c-0.047,-0.042 -0.057,-0.105 -0.106,-0.132c-0.145,-0.081 -0.235,-0.224 -0.393,-0.213c-0.138,0.01 -0.3,-0.064 -0.446,0.043c-0.124,0.091 -0.303,0.205 -0.352,0.285c-0.043,0.064 -0.103,0.163 -0.16,0.282Zm1.1,1.005c0.038,-0.023 0.068,-0.05 0.083,-0.093c-0.026,0.034 -0.053,0.065 -0.083,0.093Z" class="dark:hidden"/><path d="M26.101,17.391c-0.096,0.012 -0.21,0.036 -0.322,0.052c-0.125,0.018 -0.2,0.112 -0.294,0.158c-0.048,0.023 -0.063,0.075 -0.103,0.103c-0.164,0.116 -0.129,0.317 -0.187,0.496c-0,0.282 0.156,0.527 0.386,0.655c0.119,0.172 0.337,0.344 0.65,0.336c0.357,-0.009 0.737,-0.173 0.826,-0.35c0.126,-0.158 0.157,-0.331 0.142,-0.502c0.115,-0.2 0.136,-0.449 0.036,-0.676c-0.167,-0.379 -0.61,-0.551 -0.989,-0.384c-0.058,0.05 -0.105,0.085 -0.145,0.112Z" class="dark:hidden"/></g><g id="Dark.Ojos"><path d="M15.482,19.005c0,-0.245 -0.339,-0.255 -0.513,-0.281c-0.424,-0.063 -0.938,0.281 -0.882,0.738c0.024,0.199 0.161,0.318 0.246,0.482c0.148,0.29 0.236,0.64 0.519,0.844c0.982,0.71 2.623,0.64 3.214,-0.497c0.267,-0.516 0.226,-0.893 -0.134,-1.301c-0.101,-0.114 -0.297,-0.349 -0.475,-0.286c-0.324,0.116 -0.493,0.387 -0.898,0.387c-0.248,-0 -0.534,0.038 -0.776,-0.005c-0.031,-0.006 -0.212,-0.029 -0.212,-0.066" style="fill:#71582c;fill-opacity:0.21" class="hidden dark:block"/><path d="M25.599,18.65c-0.046,-0.028 0.206,0.101 0.281,0.126c0.214,0.073 0.433,0.17 0.667,0.17c0.173,-0 0.352,-0.024 0.51,-0.105c0.268,-0.138 0.239,-0.416 0.574,-0.206c0.052,0.032 0.095,0.061 0.137,0.104c0.059,0.061 0.101,0.113 0.127,0.194c0.031,0.099 0.097,0.178 0.116,0.281c0.024,0.128 0.052,0.323 0.003,0.446c-0.111,0.281 -0.475,0.509 -0.728,0.647c-0.164,0.088 -0.31,0.216 -0.489,0.277c-0.577,0.194 -1.129,-0.162 -1.399,-0.65c-0.171,-0.308 -0.678,-0.886 -0.346,-1.244c0.068,-0.073 0.355,-0.333 0.482,-0.268c0.098,0.05 0.136,0.193 0.253,0.148" style="fill:#71582c;fill-opacity:0.21" class="hidden dark:block"/><path d="M16.469,18.067c0.004,-0.005 -0.386,-0.055 -0.486,0.05c-0.202,0.213 -0.568,0.79 -0.312,1.097c0.629,0.751 1.101,-0.817 0.138,-0.817" style="fill:#e7253b" class="hidden dark:block"/><path d="M15.507,17.711c-0.264,0.116 -0.448,0.38 -0.448,0.686c-0,0.11 0.024,0.214 0.066,0.308c-0.003,0.033 -0.004,0.066 -0.004,0.099c0.001,0.265 0.033,0.512 0.213,0.692c0.213,0.262 0.439,0.336 0.62,0.365c0.417,0.066 0.756,-0.277 0.918,-0.746c0.049,-0.141 0.044,-0.287 0.032,-0.437c0.061,-0.044 0.118,-0.098 0.166,-0.162c0.017,-0.04 0.278,-1.295 -0.568,-1.19c-0.26,0.032 -0.839,0.12 -0.977,0.355l-0.018,0.03Zm0.299,1.436c0.001,0.001 0.002,0.001 0.003,0l-0.003,0Zm0.036,-1.491c0.008,-0.013 0.017,-0.025 0.026,-0.038c-0.013,0.011 -0.024,0.023 -0.034,0.036l0.008,0.002Z" class="hidden dark:block"/><path d="M26.587,18.125c-0.376,-0.161 -1.035,0.325 -0.605,0.594c0.493,0.308 1.434,-0.168 1.082,-0.561c-0.217,-0.242 -0.909,0.144 -0.889,0.148" style="fill:#e7253b" class="hidden dark:block"/><path d="M27.054,17.538c-0.052,-0.041 -0.109,-0.076 -0.173,-0.103c-0.134,-0.023 -0.259,-0.08 -0.398,-0.056c-0.384,0.068 -0.814,0.232 -0.994,0.544c-0.173,0.301 -0.285,0.588 -0.131,0.845c0.076,0.127 0.154,0.289 0.36,0.374c0.35,0.18 0.795,0.154 1.17,0.013c0.173,-0.066 0.327,-0.148 0.449,-0.241c0.123,-0.094 0.19,-0.217 0.25,-0.331c0.125,-0.238 0.061,-0.49 -0.124,-0.783c-0.086,-0.146 -0.231,-0.221 -0.409,-0.262Z" class="hidden dark:block"/></g><path d="M15.71,26.736c-0.314,-0.025 -0.615,0.152 -0.744,0.446c-0.025,0.018 -0.05,0.036 -0.073,0.053c-0.174,0.101 -0.401,0.257 -0.509,0.449c-0.081,0.142 -0.111,0.303 -0.075,0.496c0.023,0.178 0.11,0.291 0.184,0.385c0.125,0.161 0.311,0.197 0.512,0.224c0.422,0.055 1.049,-0.407 1.232,-0.599c0.058,-0.057 0.1,-0.12 0.132,-0.186c0.303,0.133 0.67,0.052 0.887,-0.219c0.258,-0.324 0.205,-0.796 -0.118,-1.054c-0.32,-0.158 -0.643,-0.273 -1.016,-0.16c-0.135,0.042 -0.275,0.099 -0.412,0.165Zm-0.317,1.451c0.011,0.007 0.023,0.012 0.038,0.013c-0.013,-0.004 -0.026,-0.008 -0.038,-0.013Zm0.818,-0.277l-0.009,-0.007c0.002,0.003 0.005,0.005 0.009,0.007Z"/><path d="M7.818,12.379c0.177,0.127 0.308,0.506 0.395,0.69c0.268,0.561 0.467,1.146 0.655,1.739c0.074,0.231 0.357,0.531 0.274,0.786c-0.096,0.295 -0.464,0.259 -0.687,0.159c-0.02,-0.009 -0.292,-0.148 -0.302,-0.121c-0.099,0.271 0.06,0.809 0.06,1.103c0,0.152 0.055,0.349 -0.097,0.435c-0.828,0.466 -1.87,-0.082 -2.759,0.046c-0.312,0.045 -0.646,0.007 -0.952,0.063c-0.691,0.124 -1.389,0.69 -2.016,0.058c-0.113,-0.114 -0.251,-0.225 -0.353,-0.347c-0.072,-0.086 -0.083,-0.211 -0.121,-0.313c-0.35,-0.945 0.309,-1.402 0.553,-2.233c0.094,-0.322 0.037,-0.851 0.302,-1.091c0.056,-0.05 -0.198,-0.246 -0.223,-0.28c-0.134,-0.175 -0.171,-0.394 -0.135,-0.614c0.07,-0.428 0.247,-0.478 0.548,-0.702c0.077,-0.058 0.204,-0.254 0.293,-0.28c0.38,-0.114 0.919,-0.003 1.291,0.079c0.64,0.141 1.292,0.238 1.946,0.238c0.373,0 0.844,-0.008 1.194,0.151c0.146,0.066 0.45,0.279 0.172,0.347"/><path d="M2.6,11.332c-0.231,0.183 -0.396,0.294 -0.512,0.477c-0.087,0.137 -0.163,0.306 -0.197,0.564c-0.024,0.175 -0.023,0.348 0.015,0.511c0.041,0.179 0.114,0.35 0.234,0.499c0.003,0.003 0.011,0.011 0.022,0.022c-0.013,0.035 -0.024,0.07 -0.034,0.107c-0.068,0.258 -0.055,0.576 -0.115,0.799c-0.17,0.622 -0.554,1.051 -0.625,1.602c-0.035,0.272 -0.014,0.569 0.118,0.915c0.029,0.076 0.044,0.164 0.077,0.241c0.03,0.072 0.069,0.14 0.119,0.199l0.379,0.375c0.264,0.269 0.541,0.383 0.822,0.417c0.507,0.061 1.05,-0.245 1.582,-0.335l0.938,-0.045c0.601,-0.072 1.264,0.183 1.886,0.196c0.373,0.007 0.731,-0.059 1.07,-0.238c0.177,-0.093 0.274,-0.234 0.336,-0.392c0.058,-0.149 0.044,-0.347 0.049,-0.511l-0.021,-0.307c0.121,0.005 0.241,-0.005 0.351,-0.033c0.29,-0.074 0.519,-0.27 0.641,-0.608c0.055,-0.151 0.058,-0.309 0.035,-0.471c-0.034,-0.237 -0.223,-0.499 -0.281,-0.705c-0.103,-0.373 -0.212,-0.742 -0.337,-1.106c-0.087,-0.252 -0.183,-0.5 -0.289,-0.746c-0.043,-0.101 -0.1,-0.252 -0.166,-0.4c0.018,-0.087 0.024,-0.176 0.008,-0.268c-0.024,-0.134 -0.073,-0.292 -0.195,-0.432c-0.128,-0.147 -0.365,-0.312 -0.526,-0.378c-0.207,-0.084 -0.437,-0.14 -0.678,-0.161c-0.277,-0.025 -0.566,-0.017 -0.816,-0.008c-0.299,0.011 -0.598,0.002 -0.896,-0.026c-0.308,-0.029 -0.614,-0.072 -0.919,-0.128c-0.25,-0.046 -0.566,-0.102 -0.87,-0.11c-0.256,-0.007 -0.504,0.013 -0.715,0.083c-0.084,0.028 -0.186,0.076 -0.28,0.163c-0.069,0.066 -0.205,0.232 -0.21,0.238Zm4.482,1.186l-0.046,-0.006c-0.187,-0.023 -0.377,-0.029 -0.546,-0.036c-0.356,-0.012 -0.71,-0.048 -1.062,-0.107c-0.341,-0.056 -0.68,-0.129 -1.015,-0.215c-0.166,-0.043 -0.368,-0.097 -0.573,-0.125c-0.117,-0.016 -0.236,-0.032 -0.342,-0.021c-0.064,0.066 -0.162,0.164 -0.205,0.195c-0.132,0.092 -0.245,0.116 -0.312,0.21c-0.022,0.031 -0.036,0.072 -0.047,0.131c-0.009,0.045 -0.017,0.09 -0.009,0.133c0.005,0.029 0.01,0.058 0.027,0.084c0.08,0.088 0.271,0.306 0.299,0.396c0.075,0.245 0.01,0.435 -0.145,0.568c-0.035,0.03 -0.041,0.083 -0.053,0.134c-0.056,0.244 -0.067,0.519 -0.13,0.719c-0.16,0.509 -0.474,0.874 -0.616,1.301c-0.062,0.186 -0.075,0.39 0.017,0.646c0.02,0.055 0.051,0.166 0.06,0.201l0.313,0.305c0.138,0.138 0.282,0.172 0.429,0.157c0.392,-0.039 0.795,-0.279 1.198,-0.356l0.966,-0.081c0.635,-0.105 1.353,0.116 2.015,0.096c0.124,-0.004 0.245,-0.021 0.361,-0.06l-0.003,-0.052c-0.008,-0.23 -0.115,-0.604 -0.122,-0.89c-0.003,-0.156 0.022,-0.297 0.061,-0.414c0.042,-0.131 0.244,-0.443 0.664,-0.38c-0.008,-0.016 -0.014,-0.032 -0.019,-0.046c-0.101,-0.283 -0.206,-0.564 -0.32,-0.841c-0.109,-0.267 -0.23,-0.529 -0.364,-0.785c-0.057,-0.109 -0.354,-0.336 -0.245,-0.441c-0.126,-0.113 -0.207,-0.262 -0.236,-0.42Zm-4.146,0.225c-0.01,-0.011 -0.019,-0.021 -0.019,-0.021l0.019,0.021Zm4.642,-1.148c0.032,-0.013 0.065,-0.024 0.1,-0.032c-0.038,0.008 -0.071,0.019 -0.1,0.032Z"/><path d="M22.138,7.576c-0.287,-0.064 -0.668,0.37 -0.906,0.506c-0.772,0.443 -1.591,0.797 -2.369,1.237c-0.234,0.133 -0.463,0.275 -0.682,0.431c-0.059,0.042 -0.207,0.154 -0.288,0.117c-0.21,-0.094 -0.308,-0.571 -0.246,-0.765c0.023,-0.074 0.066,-0.139 0.106,-0.205c0.023,-0.037 0.086,-0.151 0.065,-0.113c-0.171,0.312 -0.691,0.488 -0.961,0.703c-1.002,0.795 -1.94,1.643 -3.298,1.743c-0.209,0.015 -0.731,0.153 -0.836,-0.084c-0.114,-0.257 0.218,-0.549 0.39,-0.685c0.009,-0.007 0.183,-0.154 0.191,-0.147c0.051,0.047 -0.442,0.39 -0.474,0.41c-0.622,0.379 -1.309,0.657 -1.96,0.982c-0.886,0.444 -1.946,0.669 -2.94,0.669c-0.105,0 -0.308,-0.084 -0.316,-0.205c-0.004,-0.055 -0.022,-0.188 0.009,-0.238c0.017,-0.027 0.161,-0.183 0.103,-0.096c-0.52,0.78 -1.852,0.759 -2.657,0.556c-0.176,-0.044 -0.388,-0.037 -0.543,-0.142c-0.199,-0.134 -0.236,-0.294 -0.326,-0.502c-0.013,-0.031 -0.012,-0.208 -0.041,-0.217c-0.132,-0.04 -0.322,0.07 -0.442,0.104c-0.307,0.087 -0.605,0.207 -0.915,0.113c-0.432,-0.131 -0.922,-0.04 -1.375,-0.175c-0.166,-0.05 -0.424,-0.182 -0.445,-0.393c-0.104,-1.037 1.053,-1.704 1.885,-2.028c0.296,-0.115 0.579,-0.235 0.892,-0.288c0.1,-0.017 0.195,-0.032 0.293,-0.059c0.054,-0.014 0.218,-0.041 0.162,-0.041c-0.325,-0 -0.646,0.239 -0.994,0.167c-0.442,-0.092 -0.034,-0.749 0.126,-0.87c0.223,-0.169 0.497,-0.263 0.743,-0.393c0.506,-0.267 0.941,-0.573 1.514,-0.689c0.361,-0.074 0.71,-0.045 1.073,-0.08c0.058,-0.005 0.294,0.007 0.339,-0.033c0.016,-0.015 -0.398,-0.423 -0.409,-0.527c-0.039,-0.39 0.441,-0.859 0.725,-1.074c0.515,-0.39 1.176,-0.442 1.797,-0.51c0.202,-0.022 0.544,-0.109 0.748,-0.042c0.295,0.096 0.526,0.335 0.799,0.468c0.021,0.01 0.218,0.128 0.232,0.121c0.028,-0.012 0.078,-0.18 0.093,-0.209c0.107,-0.199 0.232,-0.41 0.372,-0.589c0.225,-0.288 0.778,-0.534 1.142,-0.602c0.862,-0.161 1.474,0.152 2.244,0.464c0.1,0.041 0.238,0.06 0.32,0.134c0.063,0.057 0.228,0.432 0.372,0.347c0.266,-0.159 0.49,-0.589 0.72,-0.811c0.439,-0.427 1.307,-0.684 1.922,-0.598c0.316,0.044 1.034,0.174 1.268,0.372c0.305,0.257 0.674,0.769 1.031,0.928c0.113,0.05 0.536,-0.28 0.651,-0.33c0.416,-0.181 1.081,-0.067 1.375,0.292c0.592,0.725 0.275,1.601 -0.144,2.32c-0.209,0.359 -0.288,0.684 -0.674,0.581"/><path d="M15.41,4.027c-0.057,-0.043 -0.12,-0.08 -0.188,-0.109c-0.081,-0.034 -0.174,-0.054 -0.249,-0.083c-0.506,-0.198 -0.951,-0.393 -1.428,-0.478c-0.351,-0.062 -0.718,-0.073 -1.131,0.01c-0.262,0.052 -0.605,0.177 -0.897,0.347c-0.233,0.135 -0.435,0.297 -0.562,0.464l-0.26,0.418c-0.101,-0.067 -0.2,-0.141 -0.305,-0.202c-0.114,-0.066 -0.231,-0.124 -0.357,-0.163c-0.113,-0.036 -0.25,-0.053 -0.396,-0.047c-0.195,0.008 -0.415,0.056 -0.563,0.074c-0.4,0.048 -0.815,0.093 -1.202,0.21c-0.297,0.09 -0.579,0.219 -0.831,0.414c-0.199,0.152 -0.477,0.412 -0.663,0.693c-0.175,0.266 -0.268,0.553 -0.24,0.812c0.003,0.022 0.007,0.049 0.015,0.079c-0.088,0.003 -0.176,0.007 -0.265,0.014c-0.124,0.011 -0.249,0.027 -0.376,0.053c-0.263,0.056 -0.502,0.145 -0.73,0.253c-0.305,0.144 -0.589,0.324 -0.9,0.49c-0.173,0.092 -0.36,0.167 -0.534,0.262c-0.093,0.052 -0.183,0.108 -0.268,0.173c-0.172,0.131 -0.517,0.665 -0.495,1.028c0.001,0.019 0.003,0.037 0.005,0.055c-0.527,0.217 -1.137,0.556 -1.544,1.01c-0.352,0.393 -0.558,0.868 -0.504,1.42c0.018,0.191 0.113,0.36 0.256,0.495c0.145,0.137 0.348,0.233 0.501,0.28c0.112,0.034 0.225,0.057 0.339,0.074c0.348,0.05 0.709,0.009 1.033,0.109c0.188,0.059 0.374,0.066 0.559,0.044c0.202,-0.024 0.403,-0.09 0.606,-0.147c0.039,0.095 0.078,0.179 0.13,0.259c0.071,0.108 0.163,0.207 0.298,0.299c0.088,0.06 0.184,0.102 0.287,0.132c0.13,0.039 0.276,0.047 0.402,0.08c0.54,0.142 1.291,0.206 1.936,0.057c0.191,-0.044 0.372,-0.107 0.539,-0.189c0.158,0.103 0.367,0.161 0.502,0.163c0.533,0.005 1.084,-0.051 1.622,-0.165c0.544,-0.115 1.074,-0.293 1.558,-0.529c0.405,-0.197 0.824,-0.376 1.234,-0.572c0.085,0.086 0.193,0.152 0.32,0.198c0.264,0.095 0.725,0.025 0.939,0.012c0.625,-0.038 1.176,-0.214 1.686,-0.469c0.357,-0.178 0.692,-0.398 1.02,-0.636c-0.023,-0.223 0.164,-0.765 0.701,-1.815c-0.069,0.213 -0.063,0.607 0.051,0.932c0.029,0.081 0.065,0.157 0.106,0.226l-0.389,0.303c-0.181,0.139 -0.178,0.138 -0.36,0.274l-0.109,0.08c0.034,0.32 0.504,-0.025 0.989,-0.477c-0.047,-0.053 -0.091,-0.114 -0.131,-0.18l0.091,-0.07c0.182,-0.141 0.479,-0.261 0.702,-0.42l0.03,-0.022c-0.199,0.21 -0.447,0.465 -0.692,0.692c0.097,0.11 0.207,0.193 0.317,0.245c0.134,0.062 0.293,0.083 0.465,0.053c0.173,-0.029 0.398,-0.165 0.497,-0.233l0.629,-0.382l2.391,-1.206c0.154,-0.085 0.636,-0.198 0.606,-0.395c0.317,-0.028 0.593,-0.257 0.667,-0.584c0.022,-0.099 0.023,-0.199 0.007,-0.294l0.03,-0.056c0.307,-0.546 0.552,-1.167 0.547,-1.766c-0.005,-0.473 -0.14,-0.94 -0.498,-1.364c-0.245,-0.292 -0.628,-0.504 -1.048,-0.582c-0.397,-0.073 -0.814,-0.035 -1.136,0.11c-0.046,0.021 -0.192,0.111 -0.317,0.19l-0.047,-0.044c-0.222,-0.212 -0.44,-0.46 -0.631,-0.617c-0.126,-0.104 -0.329,-0.211 -0.573,-0.288c-0.346,-0.109 -0.787,-0.182 -1.025,-0.212c-0.387,-0.048 -0.852,0.001 -1.287,0.14c-0.446,0.143 -0.861,0.372 -1.139,0.65l-0.343,0.42Zm3.543,0.284c-0.039,-0.016 -0.233,-0.096 -0.361,-0.13c-0.22,-0.058 -0.447,-0.101 -0.586,-0.122c-0.226,-0.035 -0.499,-0.004 -0.758,0.07c-0.255,0.074 -0.5,0.183 -0.662,0.336c-0.179,0.169 -0.355,0.463 -0.55,0.656c-0.093,0.092 -0.189,0.17 -0.287,0.227c-0.232,0.134 -0.47,0.136 -0.702,-0.007c-0.106,-0.066 -0.266,-0.271 -0.353,-0.39c-0.049,-0.016 -0.115,-0.039 -0.152,-0.054c-0.427,-0.18 -0.799,-0.365 -1.205,-0.448c-0.223,-0.045 -0.458,-0.058 -0.723,-0.012c-0.14,0.025 -0.316,0.082 -0.479,0.161c-0.138,0.067 -0.273,0.14 -0.346,0.232l-0.322,0.499c-0.023,0.058 -0.073,0.183 -0.101,0.226c-0.08,0.13 -0.181,0.193 -0.247,0.222c-0.047,0.02 -0.226,0.096 -0.452,-0.01c-0.059,-0.028 -0.2,-0.112 -0.218,-0.121l-0.73,-0.451l-0.536,0.056c-0.345,0.034 -0.703,0.059 -1.038,0.153c-0.186,0.052 -0.365,0.125 -0.524,0.244c-0.116,0.086 -0.272,0.222 -0.396,0.377c-0.052,0.066 -0.113,0.128 -0.138,0.192l0.244,0.292c0.277,0.329 0.033,0.669 -0.004,0.702c-0.047,0.042 -0.117,0.09 -0.216,0.117c-0.101,0.027 -0.328,0.026 -0.39,0.032l-1.027,0.064c-0.192,0.038 -0.366,0.1 -0.533,0.177c-0.293,0.134 -0.566,0.304 -0.865,0.46l-0.685,0.351c-0.009,0.007 -0.016,0.023 -0.023,0.043c0.033,-0.007 0.065,-0.013 0.098,-0.018l0.01,-0.002c0.174,-0.051 0.346,-0.106 0.518,-0.106c0.213,0.001 0.298,0.107 0.321,0.131c0.163,0.167 0.19,0.351 0.046,0.556c-0.022,0.031 -0.084,0.119 -0.229,0.166c-0.029,0.009 -0.143,0.03 -0.188,0.042l-0.332,0.067l-0.015,0.003c-0.069,0.024 -0.14,0.047 -0.212,0.061c-0.023,0.004 -0.047,0.008 -0.072,0.012l-0.005,0.001c-0.169,0.055 -0.334,0.124 -0.503,0.19c-0.369,0.144 -0.811,0.362 -1.151,0.66c-0.258,0.227 -0.461,0.501 -0.457,0.841c0.044,-0.004 0.098,0.075 0.139,0.087c0.337,0.099 0.696,0.056 1.033,0.098c0.117,0.014 0.232,0.037 0.345,0.07c0.083,0.024 0.164,0.013 0.245,-0.004c0.137,-0.027 0.274,-0.076 0.413,-0.117c0.116,-0.033 0.287,-0.114 0.432,-0.129c0.094,-0.009 0.184,-0 0.267,0.024c0.102,0.03 0.237,0.106 0.311,0.291c0.016,0.043 0.036,0.172 0.046,0.238c0.028,0.068 0.051,0.13 0.082,0.186c0.013,0.023 0.03,0.042 0.057,0.06l0.397,0.071c0.351,0.086 0.814,0.13 1.247,0.07c0.278,-0.039 0.548,-0.117 0.74,-0.283c0.009,-0.018 0.018,-0.035 0.028,-0.051c0.024,-0.038 0.166,-0.2 0.219,-0.242c0.151,-0.12 0.292,-0.118 0.344,-0.115c0.154,0.009 0.267,0.073 0.35,0.168c0.064,0.074 0.145,0.192 0.123,0.379c0.362,-0.022 0.73,-0.076 1.09,-0.16c0.457,-0.108 0.901,-0.266 1.305,-0.474c0.451,-0.232 0.921,-0.44 1.373,-0.677c0.151,-0.079 0.3,-0.162 0.445,-0.25c0.105,-0.117 0.219,-0.218 0.309,-0.288c0.009,-0.006 0.144,-0.117 0.201,-0.155c0.361,-0.243 0.681,-0.008 0.729,0.036c0.12,0.111 0.298,0.388 0.13,0.701c0.329,-0.064 0.627,-0.183 0.908,-0.332c0.625,-0.332 1.165,-0.817 1.731,-1.279l0.782,-0.516l0.018,-0.03c0,-0 0.207,0.522 0.481,0.792l0.048,-0.035l0.736,-0.479l2.344,-1.268l0.009,-0.037c0.082,-0.308 0.345,-0.521 0.644,-0.553c0.039,-0.068 0.084,-0.145 0.12,-0.205c0.167,-0.277 0.327,-0.578 0.377,-0.887c0.035,-0.212 0.016,-0.428 -0.138,-0.623c-0.052,-0.066 -0.145,-0.097 -0.237,-0.117c-0.109,-0.023 -0.226,-0.035 -0.318,-0.001c-0.073,0.045 -0.517,0.314 -0.684,0.356c-0.216,0.056 -0.394,0.024 -0.518,-0.034c-0.168,-0.078 -0.343,-0.201 -0.511,-0.356c-0.232,-0.215 -0.457,-0.502 -0.656,-0.678Zm-0.721,4.978c-0.022,-0.018 -0.044,-0.034 -0.061,-0.041c-0.1,-0.043 -0.361,-0.021 -0.428,-0.015c0.134,0.13 0.283,0.199 0.433,0.117l0.056,-0.061Z"/><path d="M5.13,19.911c-0,0.028 0.002,0.054 0.005,0.078c0.018,0.151 0.072,0.277 0.153,0.38l-0.01,0.013c-0.096,0.154 -0.139,0.304 -0.149,0.417c-0.023,0.288 0.076,0.514 0.296,0.672c-0.056,0.074 -0.117,0.161 -0.164,0.248c-0.08,0.144 -0.129,0.291 -0.143,0.415c-0.04,0.343 0.082,0.617 0.384,0.792c0.054,0.032 0.111,0.059 0.17,0.082c0.003,0.023 0.008,0.044 0.014,0.065c0.028,0.098 0.073,0.188 0.14,0.264c-0.035,0.076 -0.06,0.149 -0.069,0.212c-0.048,0.336 0.076,0.594 0.361,0.75c0.059,0.032 0.12,0.058 0.183,0.079c0.034,0.267 0.196,0.425 0.412,0.502c0.168,0.059 0.364,0.067 0.571,0.005c-0.026,0.113 -0.049,0.228 -0.067,0.344c-0.015,0.095 -0.087,0.728 -0.003,0.947c0.051,0.132 0.125,0.228 0.211,0.295l-0.006,0.02c-0.032,0.102 -0.114,0.307 -0.121,0.406c-0.004,0.061 -0,0.117 0.009,0.167c-0.038,0.058 -0.071,0.116 -0.098,0.172c-0.155,0.324 -0.155,0.636 -0.048,0.898c0.08,0.193 0.226,0.351 0.446,0.432l0.019,0.023l0.009,0.01c-0.01,0.094 -0.013,0.187 0,0.26c0.043,0.232 0.174,0.387 0.353,0.466c0.067,0.03 0.135,0.051 0.204,0.062c-0.003,0.068 -0.002,0.133 0.007,0.191c0.023,0.158 0.085,0.286 0.168,0.377c0.234,0.257 0.517,0.311 0.825,0.211c0.05,-0.016 0.102,-0.039 0.155,-0.066c-0.003,0.146 0.004,0.318 0.038,0.398c0.04,0.092 0.092,0.16 0.153,0.21c-0.015,0.048 -0.027,0.094 -0.033,0.136c-0.028,0.182 0.017,0.331 0.083,0.429c0.102,0.152 0.23,0.213 0.356,0.234c0.043,0.007 0.088,0.009 0.134,0.004c0.015,0.106 0.051,0.191 0.091,0.25c0.121,0.182 0.284,0.253 0.464,0.257c0.111,0.002 0.239,-0.03 0.362,-0.098c0.15,-0.085 0.301,-0.233 0.347,-0.28l0.355,-0.388c0.039,0.071 0.093,0.12 0.143,0.155c0.043,0.03 0.121,0.079 0.222,0.088c0.002,0.094 0.019,0.176 0.044,0.236c0.06,0.143 0.164,0.233 0.295,0.278c0.085,0.029 0.178,0.041 0.276,0.033c-0.003,0.045 -0.003,0.085 0.003,0.115c0.033,0.161 0.124,0.262 0.225,0.321c0.144,0.085 0.309,0.106 0.485,0.058c0.167,-0.047 0.36,-0.197 0.501,-0.325c0.005,0.027 0.012,0.053 0.021,0.076c0.062,0.169 0.179,0.28 0.331,0.334c0.18,0.064 0.372,0.037 0.551,-0.076c0.169,-0.108 0.331,-0.33 0.395,-0.41l0.445,-0.626c-0.01,0.181 -0.005,0.376 0.041,0.505c0.056,0.16 0.156,0.269 0.272,0.333c0.14,0.077 0.337,0.12 0.597,-0.024c0.163,-0.09 0.315,-0.215 0.456,-0.366c0.065,0.086 0.151,0.147 0.254,0.182c0.28,0.096 0.58,0.019 0.852,-0.205c0.276,-0.228 0.528,-0.636 0.668,-0.875c0.106,0.077 0.234,0.11 0.389,0.077c0.242,-0.05 0.493,-0.201 0.727,-0.418c0.231,-0.213 0.45,-0.496 0.637,-0.744c0.003,0.12 0.013,0.253 0.037,0.31c0.072,0.172 0.199,0.249 0.31,0.284c0.116,0.036 0.252,0.039 0.401,-0.051c0.271,-0.165 0.499,-0.446 0.68,-0.793c0.3,-0.574 0.476,-1.345 0.654,-1.794l0.184,-0.393l0.249,-0.394c0.115,-0.243 0.026,-0.395 0.011,-0.428c-0.013,-0.028 -0.049,-0.077 -0.103,-0.128c0.025,-0.088 0.049,-0.176 0.073,-0.264c0.023,-0.084 0.209,-0.598 0.204,-0.826c-0.005,-0.175 -0.07,-0.303 -0.141,-0.387c-0.031,-0.037 -0.066,-0.07 -0.102,-0.098l0.002,-0.021c0.028,-0.266 -0.051,-0.487 -0.208,-0.647c-0.178,-0.182 -0.436,-0.265 -0.749,-0.217c-0.167,0.026 -0.364,0.103 -0.555,0.198c-0.153,-0.128 -0.359,-0.192 -0.609,-0.172c-0.105,0.008 -0.226,0.039 -0.349,0.082c-0.025,-0.034 -0.054,-0.065 -0.085,-0.094c-0.093,-0.086 -0.229,-0.167 -0.425,-0.198l-0.003,-0.014c-0.065,-0.268 -0.28,-0.614 -0.958,-0.526c-0.281,0.036 -0.556,0.123 -0.823,0.238c-0.027,0.012 -0.053,0.023 -0.08,0.036c-0.065,-0.032 -0.141,-0.056 -0.228,-0.071c-0.352,-0.061 -0.718,-0.005 -1.08,0.13c-0.091,0.035 -0.183,0.075 -0.274,0.119c-0.127,-0.118 -0.302,-0.198 -0.513,-0.217c-0.241,-0.022 -0.557,0.056 -0.693,0.104c-0.266,0.095 -0.527,0.216 -0.783,0.351c-0.32,-0.038 -0.668,0.028 -1.017,0.172c-0.075,0.031 -0.151,0.066 -0.226,0.104c-0.047,-0.039 -0.099,-0.072 -0.153,-0.098c-0.19,-0.092 -0.41,-0.122 -0.642,-0.092c-0.284,0.038 -0.598,0.187 -0.791,0.285c-0.322,0.163 -0.622,0.359 -0.903,0.581c-0.129,0.102 -0.254,0.209 -0.375,0.322c-0.067,0.021 -0.133,0.048 -0.198,0.08c-0.252,0.122 -0.499,0.336 -0.664,0.483l-0.05,0.05c-0.044,-0.024 -0.091,-0.045 -0.141,-0.063c-0.029,-0.011 -0.061,-0.02 -0.094,-0.027c0.112,-0.243 0.22,-0.489 0.315,-0.743c0.11,-0.293 -0.023,-0.456 -0.041,-0.487c-0.023,-0.037 -0.125,-0.134 -0.262,-0.197l0.011,-0.03c0.027,-0.069 0.1,-0.144 0.144,-0.218c0.071,-0.122 0.113,-0.245 0.127,-0.353c0.028,-0.226 -0.035,-0.428 -0.222,-0.599c-0.074,-0.068 -0.146,-0.11 -0.217,-0.134c0.013,-0.038 0.027,-0.075 0.039,-0.113c0.074,-0.218 0.016,-0.355 -0.005,-0.412c-0.059,-0.16 -0.155,-0.263 -0.276,-0.322c0.084,-0.183 0.073,-0.359 0.002,-0.52c-0.018,-0.041 -0.042,-0.09 -0.078,-0.14c0.003,-0.119 -0.033,-0.209 -0.047,-0.248l-0.083,0.119c-0.056,-0.041 -0.127,-0.076 -0.216,-0.103c-0.11,-0.032 -0.217,-0.042 -0.323,-0.031l-0,-0.395l0.08,-0.038c0.076,-0.037 0.259,-0.134 0.298,-0.166c0.194,-0.161 0.237,-0.343 0.251,-0.448c0.026,-0.206 -0.026,-0.387 -0.159,-0.542c-0.051,-0.059 -0.168,-0.208 -0.421,-0.24c0.003,-0.136 -0.035,-0.242 -0.044,-0.27c-0.056,-0.173 -0.215,-0.518 -0.719,-0.493c-0.005,0 -0.015,0 -0.031,0.002c-0.006,-0.028 -0.014,-0.054 -0.024,-0.079c-0.009,-0.025 -0.019,-0.049 -0.03,-0.073c0.182,-0.399 -0.034,-0.666 -0.133,-0.779c-0.123,-0.139 -0.335,-0.305 -0.684,-0.249c-0.06,0.01 -0.304,0.116 -0.398,0.17l-0.331,0.217c-0.131,0.1 -0.626,0.49 -0.808,0.8c-0.192,0.329 -0.185,0.646 -0.069,0.892c0.043,0.093 0.099,0.175 0.167,0.243Zm12.952,5.371c-0.156,0.153 -0.346,0.296 -0.548,0.394c-0.28,0.135 -0.58,0.186 -0.858,0.125c-0.229,-0.051 -0.35,-0.173 -0.415,-0.31c-0.086,0.096 -0.178,0.189 -0.273,0.278c-0.178,0.165 -0.369,0.317 -0.563,0.455c-0.123,0.087 -0.367,0.266 -0.574,0.32c-0.142,0.038 -0.279,0.039 -0.404,0.009c-0.282,-0.069 -0.402,-0.229 -0.451,-0.397l-0.021,0.013c-0.188,0.114 -0.383,0.218 -0.582,0.317c-0.044,0.022 -0.366,0.193 -0.58,0.231c-0.185,0.032 -0.344,0.006 -0.467,-0.047c-0.104,0.095 -0.211,0.184 -0.317,0.26c-0.295,0.212 -0.6,0.331 -0.867,0.341c-0.108,0.097 -0.211,0.172 -0.285,0.212c-0.085,0.044 -0.264,0.109 -0.44,0.121c-0.156,0.011 -0.307,-0.015 -0.424,-0.063l-0.024,0.025c-0.011,0.057 -0.025,0.114 -0.037,0.147l-0.209,0.423c-0.068,0.109 -0.192,0.317 -0.345,0.528c-0.015,0.038 -0.029,0.077 -0.043,0.115c0.113,-0.139 0.2,-0.263 0.238,-0.314l0.223,-0.303c0.025,-0.032 0.068,-0.109 0.095,-0.139c0.078,-0.087 0.161,-0.128 0.219,-0.147c0.163,-0.056 0.305,-0.028 0.427,0.052c0.077,0.05 0.192,0.141 0.222,0.349c0.004,0.034 0.008,0.069 0.009,0.104c0.301,-0.187 0.618,0.126 0.655,0.197c0.008,0.014 0.038,0.058 0.053,0.13c0.074,0.023 0.129,0.064 0.164,0.091c0.097,0.077 0.203,0.209 0.173,0.429c-0.006,0.052 -0.108,0.255 -0.15,0.339l-0.153,0.299c-0.065,0.137 -0.129,0.276 -0.19,0.417c0.045,-0.052 0.091,-0.104 0.137,-0.154c0.124,-0.136 0.252,-0.269 0.389,-0.393c0.025,-0.022 0.42,-0.364 0.594,-0.437c0.241,-0.101 0.42,-0.029 0.53,0.072c0.086,-0.051 0.17,-0.068 0.235,-0.071c0.184,-0.006 0.402,0.049 0.479,0.38c0.033,0.145 0.016,0.285 -0.044,0.421c-0.05,0.115 -0.154,0.226 -0.219,0.334l-0.005,0.008l0.208,-0.19c-0.006,0.006 -0.022,0.024 -0.022,0.024c-0,0 0.208,-0.204 0.249,-0.22c0.172,-0.07 0.313,-0.03 0.424,0.049l0.007,0.005l0.001,-0.003l0.133,-0.279c0.029,-0.064 0.07,-0.211 0.102,-0.274c0.044,-0.087 0.099,-0.141 0.138,-0.172c0.143,-0.11 0.287,-0.115 0.416,-0.07c0.083,0.028 0.22,0.088 0.287,0.298c0.024,0.075 0.034,0.168 0.021,0.272c-0.021,0.156 -0.119,0.372 -0.131,0.406c-0.058,0.162 -0.119,0.324 -0.18,0.487l0.51,-0.718l0.46,-0.654c0.007,-0.008 0.183,-0.192 0.257,-0.259c0.388,-0.351 0.747,0.201 0.752,0.267c0.012,0.133 -0.007,0.281 -0.049,0.431c-0.061,0.222 -0.181,0.457 -0.239,0.632l-0.154,0.515c0.225,-0.361 0.401,-0.773 0.551,-1.073c0.004,-0.008 0.168,-0.44 0.281,-0.589c0.091,-0.12 0.196,-0.175 0.27,-0.198c0.196,-0.061 0.333,0.001 0.433,0.084c0.073,0.06 0.139,0.15 0.162,0.281c0.013,0.072 -0.011,0.233 -0.027,0.313l-0.105,0.362c-0.018,0.06 -0.038,0.119 -0.059,0.179l0.192,-0.348l0.192,-0.406c0.011,-0.026 0.097,-0.315 0.194,-0.466c0.097,-0.152 0.225,-0.233 0.329,-0.265c0.2,-0.062 0.342,-0.001 0.446,0.082c0.079,0.062 0.149,0.156 0.176,0.293c0.016,0.08 -0.014,0.257 -0.019,0.348l-0.002,0.016c0.177,-0.226 0.332,-0.453 0.454,-0.602l0.424,-0.549c0.006,-0.007 0.124,-0.134 0.231,-0.215c0.104,-0.078 0.212,-0.118 0.284,-0.13c0.091,-0.015 0.171,-0.011 0.242,0.01c0.03,-0.067 0.115,-0.232 0.156,-0.299l0.038,-0.056c0.071,-0.145 0.135,-0.294 0.194,-0.446c0.068,-0.172 0.128,-0.348 0.184,-0.524c-0.113,0.049 -0.222,0.055 -0.319,0.036c-0.138,-0.026 -0.282,-0.095 -0.382,-0.281c-0.06,-0.112 -0.106,-0.285 -0.012,-0.491c0.059,-0.129 0.314,-0.395 0.329,-0.411c0.031,-0.032 0.107,-0.113 0.206,-0.209l-0.046,0.026l-0.124,0.069c-0.01,0.016 -0.02,0.032 -0.031,0.048c-0.165,0.236 -0.392,0.423 -0.574,0.492c-0.162,0.061 -0.315,0.062 -0.448,0.022c-0.161,-0.049 -0.263,-0.148 -0.324,-0.277c-0.011,-0.022 -0.022,-0.048 -0.032,-0.079c-0.078,0.066 -0.158,0.12 -0.235,0.157c-0.221,0.107 -0.433,0.111 -0.602,0.049c-0.275,-0.101 -0.356,-0.276 -0.367,-0.445c-0.046,0.023 -0.087,0.041 -0.119,0.05c-0.376,0.111 -0.59,-0.084 -0.685,-0.266Z" style="fill-opacity:0.85"/><g id="Lentes"><path d="M3.757,17.559c0.105,-0.076 0.36,-0.028 0.482,-0.028c0.343,-0 0.739,-0.01 1.081,-0.061c1.382,-0.207 2.788,-0.148 4.191,-0.178c0.586,-0.013 1.486,0.147 2.052,-0.056" style="fill:#fff;fill-opacity:0.45"/><path d="M3.971,18.277c0.053,0.04 0.208,-0.045 0.268,-0.052l1.167,-0.18c0.263,-0.064 0.523,-0.125 0.79,-0.166c0.406,-0.062 0.814,-0.106 1.225,-0.125c0.277,-0.012 0.556,-0.013 0.833,-0.005c0.424,0.013 0.844,0.053 1.268,0.073c0.411,0.033 0.959,0.157 1.459,0.192c0.304,0.021 0.585,-0.014 0.835,-0.072c0.389,-0.139 0.593,-0.569 0.453,-0.959c-0.139,-0.389 -0.569,-0.592 -0.959,-0.453c-0.156,0.077 -0.348,0.133 -0.559,0.154c-0.438,0.045 -0.901,0.035 -1.251,0.078c-0.559,0.044 -1.114,0.098 -1.673,0.112c-0.341,0.009 -0.682,-0 -1.023,-0.003c-0.525,-0.005 -1.045,-0.013 -1.57,0.024l-0.995,-0.058c-0.127,-0.015 -0.355,-0.051 -0.523,-0.04c-0.16,0.011 -0.285,0.09 -0.398,0.153c-0.336,0.242 -0.412,0.711 -0.17,1.047c0.192,0.266 0.526,0.369 0.823,0.28Z"/><path d="M12.033,16.825c0.069,-0 -0.099,0.096 -0.142,0.15c-0.075,0.092 -0.125,0.212 -0.18,0.317c-0.184,0.357 -0.259,0.768 -0.259,1.168c-0,1.187 0.547,2.263 1.44,3.065c1.709,1.536 4,2.022 6.205,1.38c0.899,-0.262 1.672,-0.623 2.17,-1.463c0.393,-0.665 0.413,-1.545 0.333,-2.287c-0.172,-1.603 -0.984,-3.241 -2.583,-3.871c-1.178,-0.464 -2.564,-0.273 -3.783,-0.1c-1.092,0.154 -1.747,0.677 -2.571,1.329c-0.119,0.094 -0.754,0.43 -0.754,0.567" style="fill:#fff;fill-opacity:0.45"/><path d="M12.017,16.075c-0.194,0.004 -0.37,0.082 -0.501,0.206c-0.066,-0.012 -0.164,0.175 -0.204,0.227l-0.251,0.448c-0.115,0.239 -0.2,0.493 -0.247,0.756c-0.045,0.247 -0.065,0.5 -0.058,0.748c0.02,0.7 0.193,1.364 0.504,1.966c0.299,0.578 0.714,1.104 1.232,1.544c0.95,0.813 2.048,1.338 3.209,1.567c1.144,0.226 2.348,0.174 3.525,-0.191c0.595,-0.181 1.137,-0.406 1.594,-0.755c0.316,-0.242 0.595,-0.54 0.822,-0.927c0.184,-0.311 0.298,-0.663 0.364,-1.028c0.091,-0.508 0.085,-1.045 0.036,-1.528c-0.081,-0.873 -0.343,-1.754 -0.792,-2.511c-0.467,-0.787 -1.141,-1.433 -2.038,-1.808c-0.526,-0.223 -1.093,-0.325 -1.671,-0.361c-0.803,-0.05 -1.63,0.042 -2.396,0.129c-0.503,0.056 -0.928,0.188 -1.321,0.364c-0.563,0.252 -1.05,0.614 -1.607,1.028c-0.036,0.026 -0.11,0.071 -0.2,0.126Zm0.303,1.633c-0.047,0.095 -0.084,0.196 -0.109,0.3c-0.037,0.148 -0.059,0.301 -0.064,0.452c-0.014,0.494 0.079,0.969 0.275,1.405c0.201,0.449 0.496,0.861 0.87,1.215c0.764,0.721 1.663,1.214 2.63,1.447c0.979,0.236 2.021,0.216 3.047,-0.063c0.41,-0.114 0.795,-0.246 1.131,-0.451c0.311,-0.189 0.58,-0.441 0.792,-0.794c0.166,-0.28 0.25,-0.606 0.287,-0.94c0.039,-0.363 0.019,-0.736 -0.02,-1.076c-0.09,-0.734 -0.325,-1.476 -0.727,-2.1c-0.379,-0.589 -0.913,-1.066 -1.61,-1.324c-0.42,-0.154 -0.868,-0.207 -1.322,-0.211c-0.735,-0.007 -1.484,0.125 -2.177,0.242c-0.354,0.061 -0.648,0.171 -0.919,0.312c-0.462,0.24 -0.847,0.579 -1.295,0.956c-0.08,0.067 -0.429,0.576 -0.595,0.447l-0.003,0.002c-0.052,0.071 -0.117,0.132 -0.191,0.181Z"/><path d="M20.513,17.064c-0.112,-0.02 0.29,-0.228 0.333,-0.245c0.253,-0.098 0.529,-0.181 0.798,-0.217c0.514,-0.069 1.145,-0.066 1.656,0.022c0.176,0.031 0.318,0.052 0.482,0.117c0.042,0.017 0.254,0.122 0.254,0.089" style="fill:#fff;fill-opacity:0.45"/><path d="M21.215,17.327c0.055,-0.038 0.111,-0.074 0.173,-0.104c0.107,-0.053 0.21,-0.105 0.321,-0.139c0.119,-0.029 0.241,-0.065 0.373,-0.08c0.126,-0.014 0.257,-0.019 0.386,-0.007c0.264,0.024 0.508,0.114 0.735,0.19c0.077,0.031 0.14,0.061 0.207,0.093c0.046,0.021 0.074,0.063 0.12,0.095c0.026,0.018 0.113,0.084 0.18,0.129c0.054,0.037 0.112,0.039 0.15,0.058c0.148,0.072 0.274,-0.002 0.356,-0.002c0.114,0.001 0.179,-0.091 0.263,-0.124c0.046,-0.018 0.064,-0.067 0.104,-0.092c0.159,-0.1 0.146,-0.3 0.203,-0.514c-0,-0.414 -0.336,-0.75 -0.75,-0.75c-0.037,0 -0.073,0.003 -0.108,0.008c-0.062,-0.012 -0.12,-0.024 -0.182,-0.025c-0.115,-0.003 -0.22,-0.007 -0.349,-0.001c-0.181,0.001 -0.364,0.011 -0.56,0.025c-0.178,0.012 -0.357,0.029 -0.537,0.033c-0.25,0.006 -0.494,-0.013 -0.721,-0l-0.965,0.099c-0.044,0.006 -0.297,0.104 -0.466,0.171c-0.129,0.052 -0.187,0.157 -0.243,0.204c-0.156,0.132 -0.123,0.317 -0.155,0.437c-0.015,0.058 0.016,0.112 0.014,0.169c-0.007,0.212 0.178,0.337 0.397,0.525c0.05,0.043 0.132,0.038 0.22,0.077c0.362,0.065 0.71,-0.142 0.834,-0.475Zm-0.059,0.04c-0.026,0.017 -0.051,0.035 -0.077,0.052c0.003,-0.003 0.016,-0.012 0.024,-0.003c0.006,0.008 0.005,0.023 -0.001,0.041c0.02,-0.021 0.038,-0.04 0.044,-0.063c0.003,-0.009 0.006,-0.018 0.01,-0.027Zm2.137,-0.643c-0.009,0.034 -0.017,0.068 -0.007,0.106c-0,-0.036 0.002,-0.072 0.007,-0.106Zm0.131,-0.327c-0.063,0.064 -0.109,0.135 -0.111,0.232c0.024,-0.085 0.062,-0.163 0.111,-0.232Zm-2.512,0.032c0.03,0.019 0.058,0.039 0.084,0.061c-0.023,-0.024 -0.05,-0.045 -0.084,-0.061Zm-0.131,-0.065c-0.038,-0.023 -0.081,-0.042 -0.136,-0.038c0.047,0.008 0.093,0.021 0.136,0.038Zm3.204,-0.265l0.05,0.009c0.007,0.001 0.024,-0.002 0.045,-0.004l-0.034,-0.001l-0.061,-0.004Z"/><path d="M23.554,16.797c-0.393,-0 -0.515,0.425 -0.693,0.684c-0.586,0.856 -0.605,2.087 -0.092,2.965c1.305,2.235 4.765,2.848 6.873,1.535c0.636,-0.396 1.046,-1.05 1.471,-1.641c0.223,-0.311 0.695,-0.498 0.816,-0.873c0.196,-0.608 -0.087,-1.398 -0.291,-1.964c-0.137,-0.38 -0.222,-0.83 -0.451,-1.168c-0.317,-0.467 -0.719,-1.019 -1.23,-1.285c-1.221,-0.636 -2.751,-0.01 -3.919,0.417c-0.7,0.257 -1.439,0.61 -2.07,1.007c-0.073,0.046 -0.563,0.242 -0.563,0.306" style="fill:#fff;fill-opacity:0.45"/><path d="M23.601,15.847l-0.001,-0.004c-0.063,-0.145 -0.452,0.196 -0.579,0.277c-0.089,0.058 -0.157,0.123 -0.208,0.19c-0.234,0.194 -0.386,0.521 -0.543,0.766c-0.349,0.547 -0.535,1.199 -0.533,1.855c0.002,0.648 0.164,1.296 0.496,1.828c0.765,1.233 2.103,2.018 3.558,2.289c1.423,0.265 2.945,0.054 4.088,-0.686c0.288,-0.184 0.537,-0.412 0.76,-0.665c0.305,-0.345 0.563,-0.735 0.825,-1.104c0.144,-0.198 0.403,-0.336 0.584,-0.52c0.135,-0.137 0.24,-0.292 0.299,-0.471c0.103,-0.307 0.112,-0.651 0.066,-1c-0.058,-0.442 -0.208,-0.893 -0.333,-1.258c-0.093,-0.273 -0.161,-0.58 -0.27,-0.86c-0.058,-0.151 -0.129,-0.294 -0.215,-0.427c-0.198,-0.306 -0.431,-0.644 -0.701,-0.933c-0.207,-0.221 -0.439,-0.411 -0.69,-0.549c-0.582,-0.323 -1.229,-0.402 -1.889,-0.351c-0.865,0.066 -1.753,0.381 -2.501,0.63c-0.375,0.124 -0.76,0.275 -1.137,0.443c-0.374,0.167 -0.738,0.353 -1.076,0.55Zm0.156,1.672c0.008,0.113 -0.226,0.26 -0.304,0.367c-0.229,0.312 -0.361,0.693 -0.384,1.083c-0.024,0.405 0.047,0.819 0.235,1.164c0.545,0.993 1.574,1.642 2.699,1.904c1.166,0.271 2.435,0.143 3.402,-0.436c0.219,-0.134 0.408,-0.304 0.579,-0.492c0.288,-0.317 0.529,-0.681 0.777,-1.022c0.165,-0.231 0.453,-0.406 0.66,-0.622c0.038,-0.04 0.073,-0.082 0.089,-0.133c0.057,-0.185 0.047,-0.392 0.014,-0.601c-0.061,-0.378 -0.21,-0.759 -0.328,-1.069c-0.085,-0.225 -0.152,-0.475 -0.243,-0.711c-0.047,-0.121 -0.102,-0.237 -0.175,-0.338c-0.179,-0.252 -0.386,-0.53 -0.625,-0.763c-0.136,-0.132 -0.283,-0.246 -0.444,-0.325c-0.399,-0.195 -0.835,-0.208 -1.273,-0.149c-0.762,0.103 -1.525,0.445 -2.173,0.705c-0.326,0.131 -0.66,0.286 -0.986,0.457c-0.322,0.169 -0.633,0.357 -0.922,0.552c-0.029,0.02 -0.145,0.143 -0.258,0.223c-0.091,0.097 -0.208,0.169 -0.34,0.206Z"/></g></g><g id="Dark.Gorro"><path d="M1.348,13.474c-1.193,-3.724 1.305,-7.011 3.87,-9.521c1.057,-1.034 1.888,-2.051 3.334,-2.573c2.917,-1.052 6.368,-0.689 9.227,0.372c1.19,0.441 4.704,2.694 5.262,3.886c0.353,0.754 0.042,1.591 -1.061,1.789" style="fill:#fff" class="hidden dark:block"/><path d="M2.062,13.245c-0.464,-1.331 -0.398,-2.611 0.003,-3.817c0.638,-1.919 2.061,-3.648 3.502,-5.119c0.615,-0.62 1.147,-1.237 1.786,-1.741c0.392,-0.31 0.826,-0.576 1.349,-0.772c1.404,-0.504 2.937,-0.676 4.462,-0.573c1.534,0.103 3.055,0.486 4.432,1.022c0.658,0.261 2.052,1.133 3.207,2.041c0.762,0.598 1.426,1.198 1.62,1.641c0.078,0.178 0.082,0.364 -0.015,0.508c-0.099,0.147 -0.299,0.214 -0.561,0.254c-0.407,0.073 -0.679,0.463 -0.606,0.87c0.073,0.408 0.463,0.679 0.871,0.606c0.752,-0.157 1.24,-0.521 1.504,-0.963c0.326,-0.546 0.36,-1.223 0.044,-1.854c-0.277,-0.553 -1.111,-1.331 -2.119,-2.048c-1.298,-0.923 -2.854,-1.791 -3.579,-2.042c-1.482,-0.522 -3.112,-0.853 -4.746,-0.933c-1.647,-0.081 -3.3,0.09 -4.814,0.639c-0.622,0.217 -1.14,0.52 -1.611,0.873c-0.68,0.51 -1.26,1.131 -1.921,1.76c-1.629,1.526 -3.216,3.355 -4.005,5.4c-0.565,1.463 -0.719,3.036 -0.231,4.706c0.126,0.394 0.548,0.612 0.943,0.485c0.394,-0.126 0.611,-0.548 0.485,-0.943Z" style="fill-opacity:0.85" class="hidden dark:block"/><path d="M9.305,14.756c-0.136,-0.061 0.579,-0.237 0.661,-0.269c0.492,-0.198 1.052,-0.373 1.558,-0.53c0.358,-0.11 0.686,-0.405 1.053,-0.529c1.125,-0.38 2.506,-0.505 3.685,-0.622c2.255,-0.225 4.655,-0.316 6.925,-0.316c1.071,-0 2.344,0.339 3.385,0.028c0.377,-0.113 0.346,-1.073 0.279,-1.338c-0.785,-3.09 -2.501,-4.382 -2.949,-5.292c-0.756,-1.536 -3.519,-0.275 -4.895,-0.114c-3.774,0.441 -7.39,1.212 -10.961,2.545c-1.786,0.666 -3.58,1.15 -5.057,2.415c-0.797,0.682 -1.414,1.415 -1.902,2.351c-0.517,0.993 0.354,1.583 0.775,2.406c0.134,0.262 0.899,1.972 1.065,1.885c0.97,-0.51 1.877,-1.13 2.879,-1.607c0.697,-0.332 1.412,-0.605 2.147,-0.827c0.249,-0.075 0.487,-0.159 0.743,-0.205c0.125,-0.022 0.498,-0.074 0.372,-0.074c-0.167,0 -0.329,0.002 -0.496,0.019" style="fill:#abe9f6" class="hidden dark:block"/><path d="M8.99,15.436l0.008,0.004c0.237,0.107 0.5,0.08 0.705,-0.048c0.118,0.085 0.489,-0.199 0.539,-0.22l1.494,-0.531c0.109,-0.035 0.216,-0.08 0.322,-0.134c0.248,-0.126 0.481,-0.324 0.742,-0.417c0.419,-0.148 0.877,-0.258 1.346,-0.345c0.733,-0.136 1.491,-0.217 2.18,-0.295c1.115,-0.126 2.267,-0.219 3.421,-0.284c1.156,-0.065 2.314,-0.102 3.44,-0.116c0.743,-0.008 1.586,0.145 2.379,0.133c0.401,-0.006 0.792,-0.051 1.156,-0.164c0.27,-0.084 0.498,-0.323 0.601,-0.687c0.122,-0.43 0.08,-1.052 0.021,-1.277c-0.249,-0.942 -0.578,-1.723 -0.932,-2.381c-0.819,-1.521 -1.776,-2.348 -2.098,-2.989c-0.331,-0.663 -0.933,-0.95 -1.676,-0.994c-1.171,-0.068 -2.743,0.535 -3.682,0.649c-1.904,0.22 -3.767,0.528 -5.606,0.939c-1.844,0.411 -3.664,0.924 -5.474,1.584c-1.091,0.395 -2.183,0.725 -3.21,1.198c-0.716,0.33 -1.399,0.729 -2.032,1.259c-0.429,0.359 -0.809,0.732 -1.149,1.14c-0.344,0.41 -0.645,0.857 -0.913,1.357c-0.225,0.421 -0.264,0.796 -0.212,1.143c0.049,0.322 0.192,0.621 0.378,0.916c0.182,0.29 0.416,0.574 0.576,0.896c0.11,0.222 0.638,1.421 0.93,1.843c0.343,0.495 0.819,0.416 0.983,0.332c0.691,-0.351 1.352,-0.757 2.035,-1.129c0.275,-0.15 0.554,-0.294 0.841,-0.426c0.334,-0.153 0.672,-0.291 1.015,-0.417c0.344,-0.127 0.692,-0.239 1.045,-0.34l0.663,-0.173l0.164,-0.026Zm17.322,-3.391c0.02,-0.152 0.075,-0.622 0.047,-0.74c-0.211,-0.859 -0.496,-1.574 -0.808,-2.177c-0.798,-1.542 -1.748,-2.388 -2.061,-3.037c-0.238,-0.491 -0.777,-0.541 -1.369,-0.497c-1.052,0.079 -2.282,0.525 -3.063,0.614c-1.872,0.222 -3.705,0.519 -5.511,0.939c-1.8,0.417 -3.57,0.956 -5.331,1.628c-1.055,0.406 -2.114,0.745 -3.104,1.227c-0.625,0.304 -1.221,0.667 -1.769,1.146c-0.369,0.324 -0.695,0.659 -0.986,1.023c-0.286,0.36 -0.535,0.748 -0.754,1.182c-0.108,0.214 -0.1,0.391 -0.034,0.556c0.178,0.444 0.591,0.828 0.841,1.301c0.083,0.157 0.408,0.857 0.678,1.333c0.506,-0.295 1.001,-0.61 1.51,-0.906c0.298,-0.172 0.6,-0.338 0.911,-0.492c0.362,-0.179 0.73,-0.341 1.102,-0.49c0.372,-0.15 0.75,-0.284 1.132,-0.406l0.284,-0.081c0.119,-0.127 0.283,-0.213 0.47,-0.232l0.571,-0.015c0.067,0.001 0.127,0.007 0.18,0.018c0.192,-0.063 0.397,-0.121 0.442,-0.138l1.623,-0.527c0.251,-0.074 0.482,-0.26 0.731,-0.381c0.102,-0.049 0.204,-0.094 0.31,-0.128c0.488,-0.157 1.019,-0.271 1.563,-0.356c0.768,-0.121 1.561,-0.186 2.28,-0.247c1.142,-0.1 2.318,-0.165 3.497,-0.202c1.174,-0.036 2.35,-0.045 3.493,-0.031c0.743,0.008 1.581,0.182 2.374,0.186c0.258,0.002 0.511,-0.015 0.751,-0.07Zm-16.472,2.186c-0.054,-0.06 -0.127,-0.116 -0.227,-0.159c0.088,0.039 0.164,0.094 0.227,0.159Z" class="hidden dark:block"/><path d="M11.142,6.675c0.017,-0.026 -0.346,0.431 -0.443,0.557c-0.311,0.402 -0.598,0.792 -0.816,1.254c-0.652,1.38 -0.889,3.178 -0.991,4.691c-0.134,1.995 -0.491,3.968 -0.712,5.954c-0.161,1.459 -0.169,2.94 -0.361,4.394c-0.14,1.06 -0.134,2.11 -0.134,3.177c-0,0.34 -0.024,0.68 0.062,1.012c0.045,0.176 0.347,0.52 0.165,0.52c-0.24,0 -0.704,-0.782 -0.826,-0.938c-0.926,-1.19 -1.333,-2.397 -1.878,-3.79c-0.97,-2.478 -2.737,-4.64 -3.311,-7.223c-0.309,-1.392 -1.268,-2.198 -1.134,-3.647c0.144,-1.553 0.109,-2.009 0.711,-3.418" style="fill:#fff" class="hidden dark:block"/><path d="M7.246,26.777c-0.26,-0.368 -0.473,-0.74 -0.659,-1.119c-0.36,-0.733 -0.622,-1.496 -0.937,-2.325c-0.654,-1.746 -1.701,-3.344 -2.454,-5.035c-0.308,-0.692 -0.562,-1.402 -0.714,-2.145c-0.202,-1.002 -0.733,-1.715 -0.973,-2.562c-0.077,-0.272 -0.111,-0.561 -0.073,-0.893c0.084,-0.743 0.119,-1.226 0.209,-1.689c0.086,-0.441 0.23,-0.859 0.519,-1.497c0.162,-0.381 -0.015,-0.822 -0.395,-0.984c-0.381,-0.163 -0.822,0.015 -0.985,0.395c-0.24,0.6 -0.381,1.041 -0.47,1.456c-0.135,0.631 -0.152,1.195 -0.224,2.194c-0.038,0.524 0.032,0.977 0.17,1.398c0.265,0.813 0.818,1.479 1.052,2.442c0.197,0.82 0.506,1.597 0.873,2.355c0.8,1.65 1.882,3.201 2.581,4.912c0.343,0.849 0.636,1.629 1.02,2.379c0.263,0.512 0.565,1.011 0.956,1.505c0.097,0.124 0.402,0.616 0.654,0.857c0.184,0.175 0.377,0.247 0.516,0.247c0.254,-0.001 0.374,-0.13 0.44,-0.264c0.044,-0.087 0.07,-0.207 0.034,-0.353c-0.028,-0.112 -0.187,-0.321 -0.218,-0.445c-0.027,-0.106 -0.039,-0.212 -0.044,-0.319c-0.011,-0.194 -0.002,-0.389 -0.001,-0.585c0.003,-0.634 0.003,-1.262 0.036,-1.889c0.021,-0.409 0.057,-0.818 0.115,-1.228c0.042,-0.297 0.076,-0.596 0.106,-0.895c0.117,-1.165 0.164,-2.341 0.307,-3.503c0.177,-1.386 0.419,-2.765 0.608,-4.151c0.083,-0.604 0.155,-1.21 0.207,-1.818c0.075,-0.871 0.198,-1.838 0.425,-2.758c0.146,-0.593 0.34,-1.165 0.593,-1.673c0.098,-0.196 0.212,-0.375 0.334,-0.549c0.133,-0.19 0.277,-0.371 0.426,-0.556c0.075,-0.093 0.303,-0.368 0.401,-0.484l0.006,-0.008c0.029,-0.03 0.056,-0.064 0.08,-0.1c0.004,-0.006 0.006,-0.014 0.007,-0.025c0.159,-0.286 -0.007,-0.494 -0.265,-0.63c-0.245,-0.363 -0.626,-0.652 -0.993,-0.177c-0.097,0.126 -0.325,0.424 -0.399,0.524c-0.195,0.264 -0.382,0.522 -0.548,0.796c-0.117,0.194 -0.227,0.394 -0.323,0.607c-0.271,0.606 -0.472,1.282 -0.616,1.982c-0.204,0.994 -0.302,2.034 -0.347,2.969c-0.029,0.589 -0.077,1.177 -0.136,1.764c-0.141,1.393 -0.342,2.781 -0.474,4.175c-0.101,1.028 -0.124,2.066 -0.191,3.098c-0.029,0.432 -0.065,0.863 -0.118,1.292c-0.054,0.437 -0.084,0.872 -0.1,1.308c-0.025,0.641 -0.021,1.282 -0.018,1.929l0,0.075Z" style="fill-opacity:0.85" class="hidden dark:block"/><path d="M6.728,26.717c0.016,-0.057 -0.996,0.51 -1.135,0.715c-0.429,0.636 -0.642,1.831 -0.506,2.592c0.289,1.606 2.752,2.511 4.098,1.858c0.702,-0.341 1.143,-3.29 0.443,-3.92c-0.48,-0.433 -1.361,-1.05 -2.033,-1.05c-0.196,0 -1.824,0.028 -1.052,0.028" style="fill:#fff" class="hidden dark:block"/><path d="M6.088,26.21c-0.233,0.02 -0.455,0.067 -0.653,0.133c-0.469,0.123 -0.69,0.299 -0.733,0.483c-0.098,0.172 -0.06,0.353 0.179,0.506c-0.167,0.357 -0.295,0.791 -0.358,1.24c-0.078,0.551 -0.079,1.114 0.02,1.55c0.206,0.957 1.016,1.713 2.01,2.106c0.954,0.377 2.05,0.432 2.822,0.045c0.163,-0.077 0.327,-0.234 0.472,-0.462c0.254,-0.4 0.463,-1.077 0.568,-1.773c0.089,-0.588 0.097,-1.185 0.009,-1.642c-0.072,-0.376 -0.23,-0.664 -0.42,-0.85c-0.303,-0.301 -0.764,-0.671 -1.241,-0.938c-0.392,-0.221 -0.803,-0.35 -1.168,-0.368c-0.058,-0.003 -0.241,-0.01 -0.452,-0.017c-0.193,-0.216 -0.48,-0.344 -0.867,-0.127c-0.053,0.03 -0.117,0.069 -0.188,0.114Zm0.357,1.474c-0.173,0.095 -0.318,0.179 -0.318,0.179c-0,-0 0.021,-0.039 0.029,-0.051c-0.185,0.248 -0.334,0.609 -0.424,0.988c-0.094,0.395 -0.143,0.803 -0.1,1.126c0.092,0.643 0.638,1.151 1.284,1.443c0.691,0.311 1.503,0.392 2.079,0.121c0.075,-0.038 0.117,-0.151 0.175,-0.281c0.149,-0.334 0.249,-0.808 0.292,-1.286c0.035,-0.395 0.023,-0.794 -0.038,-1.123c-0.035,-0.186 -0.077,-0.344 -0.171,-0.422c-0.222,-0.183 -0.537,-0.398 -0.87,-0.568c-0.267,-0.137 -0.548,-0.238 -0.788,-0.226c-0.087,0.005 -0.463,0.03 -0.777,0.054c-0.085,0.034 -0.178,0.052 -0.275,0.052l-0.098,-0.006Z" class="hidden dark:block"/><path d="M13.561,5.757c-0.278,-0.452 -0.301,-0.547 -0.44,-0.738c-0.076,-0.104 -0.183,-0.237 -0.382,-0.463c-0.89,-1.015 -1.809,-1.344 -2.686,-1.253c-1.226,0.128 -2.419,1.136 -3.29,2.385c-0.189,0.268 -0.304,0.531 -0.373,0.797c-0.135,0.522 -0.067,1.05 -0.201,1.637c-0.09,0.38 -0.149,0.732 -0.193,1.071c-0.104,0.807 -0.115,1.537 -0.227,2.421c-0.093,0.649 -0.312,1.267 -0.452,1.909c-0.066,0.3 -0.115,0.605 -0.132,0.92c-0.069,1.213 -0.062,2.436 0.031,3.651c0.095,1.231 0.285,2.452 0.606,3.645c0.162,0.61 0.204,1.17 0.367,1.721c0.083,0.281 0.197,0.557 0.355,0.838c0.216,0.353 0.678,0.465 1.032,0.249c0.353,-0.216 0.464,-0.678 0.248,-1.032c-0.155,-0.234 -0.258,-0.468 -0.333,-0.71c-0.145,-0.463 -0.227,-0.942 -0.4,-1.451c-0.37,-1.097 -0.627,-2.227 -0.779,-3.375c-0.154,-1.162 -0.206,-2.337 -0.194,-3.505c0.004,-0.263 0.035,-0.519 0.083,-0.771c0.126,-0.664 0.343,-1.304 0.427,-1.973c0.107,-0.757 0.135,-1.403 0.218,-2.079c0.051,-0.411 0.126,-0.833 0.25,-1.302c0.136,-0.501 0.122,-0.963 0.213,-1.412c0.044,-0.214 0.124,-0.423 0.286,-0.632c0.6,-0.763 1.328,-1.439 2.102,-1.681c0.661,-0.207 1.329,0.011 1.954,0.825c0.143,0.187 0.221,0.296 0.275,0.382c0.109,0.174 0.117,0.259 0.331,0.668c0.205,0.36 0.663,0.485 1.023,0.281c0.36,-0.205 0.486,-0.663 0.281,-1.023Z" style="fill:#aeebf9;fill-opacity:0.62" class="hidden dark:block"/><path d="M17.506,4.986c-0.225,-0.307 -0.45,-0.653 -0.673,-0.954c-0.121,-0.164 -0.241,-0.317 -0.36,-0.447c-0.434,-0.473 -1.038,-1.029 -1.682,-1.461c-0.471,-0.315 -0.96,-0.569 -1.424,-0.692c-1.059,-0.28 -2.742,-0.017 -4.351,0.53c-1.548,0.526 -3.028,1.288 -3.782,1.988c-0.303,0.279 -0.569,0.614 -0.803,0.977c-0.332,0.516 -0.598,1.089 -0.804,1.628c-0.456,1.143 -1.042,2.486 -1.406,3.829c-0.261,0.964 -0.407,1.929 -0.317,2.835c0.055,0.581 0.183,1.133 0.342,1.674c0.349,1.182 0.876,2.296 1.166,3.521c0.214,0.919 0.444,1.586 0.638,2.373c0.074,0.299 0.14,0.617 0.2,0.975c0.081,0.406 0.476,0.67 0.882,0.589c0.406,-0.08 0.67,-0.475 0.589,-0.881c-0.09,-0.393 -0.185,-0.74 -0.286,-1.067c-0.238,-0.77 -0.5,-1.42 -0.764,-2.32c-0.358,-1.233 -0.953,-2.342 -1.366,-3.53c-0.162,-0.468 -0.296,-0.947 -0.367,-1.455c-0.107,-0.787 -0.008,-1.633 0.197,-2.48c0.318,-1.316 0.878,-2.629 1.301,-3.749c0.159,-0.406 0.353,-0.833 0.592,-1.232c0.228,-0.38 0.498,-0.733 0.814,-1.013c0.701,-0.612 2.068,-1.253 3.488,-1.675c1.38,-0.409 2.811,-0.618 3.696,-0.34c0.422,0.134 0.858,0.43 1.264,0.765c0.435,0.359 0.827,0.775 1.12,1.133l0.862,1.332c0.236,0.34 0.703,0.426 1.044,0.19c0.34,-0.235 0.425,-0.703 0.19,-1.043Z" style="fill:#aeebf9;fill-opacity:0.62" class="hidden dark:block"/><path d="M19.973,4.997c-0.185,-0.4 -0.292,-0.613 -0.439,-0.759c-0.101,-0.1 -0.184,-0.184 -0.301,-0.266c-0.109,-0.077 -0.246,-0.155 -0.428,-0.355c-0.165,-0.218 -0.426,-0.434 -0.685,-0.694c-0.205,-0.206 -0.402,-0.438 -0.596,-0.669c-0.261,-0.314 -0.464,-0.63 -0.614,-0.897c-0.265,-0.318 -0.738,-0.361 -1.056,-0.096c-0.318,0.265 -0.361,0.738 -0.096,1.056c0.29,0.241 0.687,0.487 1.107,0.764c0.228,0.15 0.459,0.299 0.653,0.474c0.217,0.196 0.373,0.419 0.485,0.605c0.197,0.412 0.36,0.555 0.477,0.73c0.064,0.096 0.023,0.207 0.037,0.468c0.1,0.401 0.507,0.647 0.909,0.547c0.402,-0.1 0.647,-0.507 0.547,-0.908Z" style="fill:#aeebf9;fill-opacity:0.62" class="hidden dark:block"/></g></svg>