<?xml version="1.0" encoding="UTF-8" standalone="no"?><!DOCTYPE svg PUBLIC "-//W3C//DTD SVG 1.1//EN" "http://www.w3.org/Graphics/SVG/1.1/DTD/svg11.dtd"><svg width="100%" height="100%" viewBox="0 0 346 456" version="1.1" xmlns="http://www.w3.org/2000/svg" xmlns:xlink="http://www.w3.org/1999/xlink" xml:space="preserve" xmlns:serif="http://www.serif.com/" style="fill-rule:evenodd;clip-rule:evenodd;stroke-linejoin:round;stroke-miterlimit:2;"><g id="Ropa"><path d="M138.64,314.129c0.009,-0.032 -1.875,2.866 -2.721,3.881c-2.094,2.515 -3.862,6.173 -4.128,9.457c-0.88,10.861 -2.195,21.599 -2.814,32.505c-1.531,27.001 -0.294,46.898 8.819,71.675c1.484,4.036 4.212,14.795 -2.158,15.366c-6.002,0.539 -10.268,-2.955 -15.476,-5.065c-3.763,-1.523 -10.433,-1.358 -13.51,-4.136c-3.877,-3.502 -4.573,-13.771 -6.379,-18.491c-9.916,-25.91 -5.305,-60.5 8.912,-84.172c3.951,-6.58 9.866,-13.15 17.73,-14.606c5.22,-0.967 7.201,7.086 8.819,5.152" style="fill:#fff;"/><path d="M131.66,318.096c-1.53,-0.845 -3.302,-1.25 -5.354,-0.84c-3.656,0.729 -6.952,2.37 -9.858,4.619c-4.045,3.131 -7.353,7.409 -9.863,11.712c-7.145,12.227 -11.805,27.207 -13.393,42.45c-1.59,15.264 -0.122,30.786 5.085,44.048c1.233,3.169 1.973,8.868 3.521,13.295c0.872,2.496 2.013,4.62 3.489,5.943c1.183,1.065 2.783,1.808 4.587,2.336c3.149,0.922 7.004,1.152 9.525,2.174c3.168,1.291 5.992,3.084 9.062,4.192c2.269,0.818 4.661,1.288 7.362,1.053c3.102,-0.261 4.79,-2.121 5.539,-4.764c1.144,-4.036 -0.443,-10.411 -1.529,-13.416c-4.423,-12.343 -6.897,-23.444 -8.01,-34.831c-1.097,-11.226 -0.863,-22.72 0.035,-35.932c0.222,-3.236 0.505,-6.455 0.822,-9.667c0.691,-7.007 1.54,-13.975 2.228,-20.992c0.307,0.02 0.609,0.005 0.904,-0.036c0.869,-0.121 1.771,-0.531 2.607,-1.5c1.239,-1.482 1.042,-3.691 -0.44,-4.93c-0.306,-0.256 -0.643,-0.45 -0.996,-0.584c0.478,-0.809 1.016,-1.56 1.577,-2.217c0.716,-0.837 2.116,-2.866 2.723,-3.75l0.105,-0.161c0.283,-0.358 0.5,-0.778 0.628,-1.246c0.029,-0.11 -4.145,-6.182 -6.548,-2.467c-0.49,0.758 -1.606,2.507 -2.19,3.226c-0.565,0.698 -1.111,1.467 -1.618,2.285Zm-2.716,6.367c-0.065,-0.059 -0.131,-0.115 -0.2,-0.17c-0.338,-0.271 -0.713,-0.55 -1.221,-0.464c-3.354,0.575 -6.297,2.265 -8.839,4.488c-2.745,2.4 -5.045,5.394 -6.899,8.393c-7.041,11.414 -11.803,25.498 -13.602,39.898c-1.809,14.475 -0.646,29.26 4.086,41.95c1.211,3.219 1.899,8.99 3.421,13.482c0.598,1.764 1.294,3.321 2.327,4.26c0.765,0.693 1.83,1.12 3,1.464c3.277,0.964 7.283,1.239 9.908,2.3c3.12,1.256 5.898,3.019 8.921,4.093c1.73,0.615 3.551,0.982 5.606,0.792c1.587,-0.151 1.959,-1.556 2.07,-3.099c0.233,-3.239 -0.975,-7.348 -1.762,-9.454c-4.778,-12.658 -7.482,-24.074 -8.861,-35.799c-1.349,-11.472 -1.418,-23.242 -0.802,-36.788c0.148,-3.298 0.362,-6.581 0.603,-9.857c0.56,-7.59 1.287,-15.141 1.805,-22.751c0.061,-0.896 0.212,-1.815 0.439,-2.738Z"/><path d="M82.02,284.722c-2.353,0.791 5.401,-5.617 6.661,-6.5c5.497,-3.854 12.82,-8.323 19.137,-10.47c6.262,-2.127 11.388,-6.671 18.386,-7.261c13.297,-1.12 27.679,10.323 33.862,21.531c1.594,2.888 -6.964,6.852 -8.348,8.273c-2.849,2.924 -5.762,5.794 -8.684,8.661c-6.769,6.642 -30.075,63.584 -36.525,60.542" style="fill:#fff;"/><path d="M85.037,286.495c1.592,-0.263 4.767,-5.032 5.526,-5.589c2.625,-1.925 5.679,-4.017 8.848,-5.894c3.115,-1.845 6.328,-3.497 9.318,-4.578c4.429,-1.599 8.265,-4.395 12.617,-6.157c1.588,-0.643 3.25,-1.141 5.066,-1.324c6.166,-0.606 12.619,1.755 18.25,5.54c5.643,3.792 10.465,9.012 13.449,14.209c-0.675,0.006 -1.103,1.488 -2.05,2.189c-2.273,1.683 -5.056,3.198 -5.814,3.971l-8.734,8.543c-1.102,1.058 -2.628,3.302 -4.437,6.36c-6.438,10.884 -16.943,32.831 -24.778,45.13c-1.631,2.56 -3.143,4.667 -4.457,6.115c-0.429,0.472 -1.137,0.708 -1.352,0.987c-1.304,0.009 -2.553,0.75 -3.146,2.008c-0.824,1.747 -0.074,3.834 1.673,4.658c1.267,0.562 2.735,0.68 4.351,-0.127c1.413,-0.705 3.274,-2.456 5.209,-5.216c9.159,-13.068 24.629,-51.371 29.98,-56.813l8.632,-8.779c1.063,-1.097 6.229,-3.726 8.07,-6.189c1.154,-1.544 1.355,-3.104 0.591,-4.501c-3.179,-5.855 -8.496,-11.764 -14.719,-16.136c-6.469,-4.544 -13.932,-7.379 -21.133,-6.873c-2.314,0.158 -4.448,0.711 -6.494,1.457c-4.33,1.578 -8.193,4.181 -12.596,5.584c-2.715,0.865 -5.607,2.134 -8.484,3.59c-4.126,2.089 -8.208,4.588 -11.624,6.877c-1.086,0.726 -6.42,4.99 -7.714,6.568c-2.369,2.89 -0.15,5.185 0.955,5.779c0.481,0.259 1.492,0.655 3.095,0.156c0.832,-0.279 1.49,-0.842 1.902,-1.545Zm-3.466,-5.244c-0.204,0.019 -0.426,0.067 -0.665,0.154c0.22,-0.074 0.443,-0.125 0.665,-0.154Z"/><g id="Light.Playera"><path d="M32.359,347.904c-3.399,-0.458 -7.451,-1.287 -9.68,-1.938c-1.777,-0.519 -5.401,-1.035 -4.804,-2.788c1.439,-4.223 8.083,-15.631 13.436,-22.555c5.813,-7.518 15.414,-16.358 21.442,-22.556c4.823,-4.959 10.239,-11.068 14.723,-14.629c3.634,-2.886 8.859,-5.252 12.183,-6.735c2.453,-1.094 5.511,-2.595 7.762,-2.162c0.53,0.102 1.112,0.284 1.697,0.534c2.628,0.408 5.362,1.647 7.841,2.474c4.414,1.472 9.866,3.745 14.096,6.797c4.415,3.185 10.135,9.08 12.392,12.312c1.369,1.96 1.077,4.69 1.149,7.08c0.098,3.315 -1.561,10.865 -0.557,12.812c1.004,1.948 4.523,-0.276 6.578,-1.127c2.106,-0.872 4.09,-3.399 6.057,-4.104c1.802,-0.646 5.626,-1.279 5.743,-0.125c0.116,1.154 -3.35,4.71 -5.047,7.048c-1.844,2.543 -4.151,5.377 -6.022,8.208c-2.071,3.133 -4.955,6.727 -6.405,10.589c-2.065,5.503 -4.826,14.779 -5.987,22.43c-1.259,8.296 -1.258,18.222 -1.566,27.348c-0.406,12.045 -0.951,34.94 -0.87,44.923c0.041,5.012 6.066,13.256 1.358,14.974c-8.47,3.091 -39.24,3.457 -52.177,3.571c-8.535,0.076 -16.928,-2.303 -25.444,-2.882c-9.445,-0.642 -25.108,1.008 -31.222,-0.971c-3.868,-1.252 -5.951,-6.866 -5.465,-10.902c0.783,-6.505 7.236,-18.6 10.163,-28.131c3.898,-12.692 8.83,-35.865 13.227,-48.025c1.44,-3.981 3.337,-7.763 5.399,-11.47Z" style="fill:#ffd78b;"/><path d="M125.986,314.866c-0.018,-0.514 0.078,-1.204 0.137,-1.972c0.239,-3.092 0.916,-7.049 0.863,-9.227c-0.044,-1.808 0.067,-3.791 -0.331,-5.555c-0.23,-1.023 -0.619,-1.982 -1.215,-2.845c-1.244,-1.803 -3.497,-4.399 -6.031,-6.939c-2.245,-2.249 -4.712,-4.452 -6.875,-6.031c-2.18,-1.591 -4.668,-2.987 -7.188,-4.185c-2.591,-1.232 -5.215,-2.251 -7.558,-3.049c-1.75,-0.596 -3.626,-1.394 -5.504,-1.97c-0.879,-0.27 -1.759,-0.492 -2.63,-0.64c0.007,0.001 -1.725,-0.549 -1.725,-0.549c-1.072,-0.214 -2.272,-0.154 -3.527,0.116c-1.935,0.418 -4.051,1.388 -5.859,2.181c-2.124,0.931 -4.997,2.208 -7.772,3.742c-1.796,0.994 -3.549,2.097 -5.056,3.278c-1.539,1.206 -3.184,2.694 -4.878,4.332c-3.36,3.248 -6.923,7.108 -10.211,10.445c-4.249,4.309 -10.249,9.899 -15.489,15.43c-2.334,2.463 -4.518,4.917 -6.347,7.247c-2.967,3.779 -6.323,8.871 -9.034,13.454c-2.444,4.13 -4.354,7.875 -5.082,9.959c-0.632,1.813 -0.166,3.311 1.03,4.567c0.566,0.594 1.419,1.138 2.451,1.55c1.142,0.456 2.601,0.761 3.563,1.05c1.275,0.383 3.113,0.825 5.102,1.232l0.223,0.045c-0.247,0.501 -0.489,1.005 -0.726,1.51c-0.946,2.018 -1.811,4.071 -2.554,6.176c-1.398,3.965 -2.846,9.07 -4.293,14.608c-3.022,11.564 -6.051,25.047 -8.636,33.683c-2.135,7.134 -6.241,15.716 -8.465,22.296c-0.819,2.421 -1.396,4.599 -1.598,6.388c-0.33,2.916 0.403,6.497 2.051,9.262c1.305,2.191 3.155,3.873 5.372,4.575c1.716,0.543 4.099,0.858 6.879,0.989c7.419,0.348 17.95,-0.522 25.012,-0.086c5.913,0.369 11.771,1.615 17.657,2.288c2.653,0.303 5.31,0.497 7.98,0.459c8.412,-0.116 24.331,-0.381 36.814,-1.396c7.022,-0.571 12.987,-1.404 16.08,-2.546c2.144,-0.792 3.061,-2.319 3.186,-4.34c0.1,-1.615 -0.465,-3.701 -1.238,-5.881c-0.831,-2.343 -1.929,-4.83 -1.952,-6.794c-0.045,-4.244 0.011,-10.828 0.133,-17.916c0.165,-9.554 0.444,-20.02 0.671,-26.922c0.187,-5.353 0.268,-10.984 0.56,-16.396c0.202,-3.731 0.504,-7.357 1.017,-10.711c0.545,-3.537 1.442,-7.428 2.451,-11.117c1.132,-4.139 2.407,-8.024 3.488,-10.876c0.527,-1.392 1.263,-2.741 2.071,-4.045c1.348,-2.173 2.897,-4.218 4.148,-6.098l5.998,-8.109c1.211,-1.654 3.303,-3.913 4.404,-5.513c0.866,-1.261 1.15,-2.404 1.088,-3.05c-0.114,-1.194 -0.998,-2.346 -2.888,-2.603c-1.556,-0.211 -4.305,0.278 -5.843,0.822c-0.596,0.21 -1.199,0.535 -1.8,0.937c-1.43,0.955 -2.852,2.555 -4.371,3.176c-0.758,0.31 -1.713,0.802 -2.669,1.208c-0.312,0.133 -0.744,0.263 -1.084,0.356Zm12.663,-1.705c-1.019,1.267 -2.252,2.671 -3.057,3.791l-6.047,8.306c-1.263,1.922 -2.825,4.017 -4.184,6.239c-0.945,1.545 -1.794,3.149 -2.406,4.795c-1.1,2.959 -2.394,6.988 -3.542,11.278c-1.03,3.847 -1.943,7.904 -2.494,11.59c-0.524,3.48 -0.831,7.242 -1.031,11.113c-0.281,5.439 -0.349,11.096 -0.524,16.476c-0.238,6.916 -0.516,17.406 -0.712,26.981c-0.145,7.132 -0.247,13.757 -0.223,18.027c0.014,3.261 2.422,7.876 3.016,11.264c0.129,0.74 0.365,1.427 -0.306,1.669c-3.623,1.306 -11.445,2.041 -20.131,2.502c-11.337,0.602 -24.115,0.671 -31.328,0.699c-2.464,0.009 -4.914,-0.199 -7.358,-0.505c-5.965,-0.748 -11.897,-2.072 -17.893,-2.514c-6.157,-0.457 -14.949,0.034 -22.045,-0.113c-3.498,-0.073 -6.547,-0.277 -8.509,-0.925c-1.275,-0.422 -2.13,-1.684 -2.729,-3.061c-0.683,-1.572 -0.972,-3.386 -0.778,-4.906c0.187,-1.459 0.713,-3.223 1.409,-5.191c2.34,-6.609 6.597,-15.217 8.855,-22.387c2.724,-8.649 5.961,-22.169 9.175,-33.756c1.474,-5.311 2.943,-10.207 4.35,-14.003c0.697,-1.88 1.505,-3.711 2.383,-5.51c0.895,-1.834 1.867,-3.633 2.877,-5.415c0.563,-1.011 0.589,-2.235 0.071,-3.269c-0.519,-1.035 -1.515,-1.746 -2.662,-1.901c-1.501,-0.19 -3.135,-0.454 -4.67,-0.744c-1.76,-0.332 -3.387,-0.693 -4.516,-1.014l-1.721,-0.483c1.074,-2.352 2.837,-5.596 4.844,-8.965c2.232,-3.747 4.77,-7.638 7.068,-10.657c2.222,-2.917 5.021,-6.041 7.955,-9.127c4.584,-4.821 9.486,-9.549 13.094,-13.309c3.214,-3.348 6.691,-7.219 9.976,-10.48c1.521,-1.51 2.995,-2.886 4.38,-4.001c1.27,-1.021 2.753,-1.973 4.271,-2.838c2.592,-1.478 5.281,-2.711 7.268,-3.612c1.297,-0.589 2.771,-1.315 4.191,-1.745c0.696,-0.211 1.361,-0.39 1.947,-0.281l1.153,0.355c0.206,0.087 0.421,0.149 0.641,0.183c0.915,0.136 1.844,0.391 2.769,0.689c1.591,0.512 3.169,1.144 4.654,1.628c2.179,0.712 4.623,1.62 7.036,2.732c2.244,1.035 4.465,2.242 6.411,3.63c1.994,1.422 4.266,3.419 6.341,5.453c2.317,2.271 4.393,4.584 5.536,6.201c0.346,0.49 0.497,1.068 0.588,1.67c0.2,1.33 0.117,2.766 0.164,4.089c0.083,2.408 -0.77,7.083 -0.825,10.151c-0.029,1.616 0.201,2.913 0.589,3.657c0.652,1.253 1.68,1.873 2.977,2.006c1.806,0.185 4.705,-1.306 6.548,-2.079c0.569,-0.238 1.136,-0.561 1.692,-0.944c1.475,-1.016 2.84,-2.638 4.25,-3.151c0.29,-0.105 0.732,-0.203 1.212,-0.288Z"/></g><path d="M31.077,339.457c-0.953,-0 -2.979,3.232 -3.587,3.979c-4.449,5.46 -5.874,12.934 -7.755,19.513c-3.617,12.654 -8.568,24.552 -9.84,37.9c-0.89,9.339 0.571,18.639 0.833,27.918c0.11,3.912 -2.015,19.662 3.837,21.914c2.425,0.934 5.064,0.795 7.589,0.975c18.657,1.33 15.095,-11.936 17.177,-26.943c1.806,-13.01 4.107,-26.729 8.255,-39.174c3.401,-10.202 9.068,-18.801 12.842,-28.671c0.768,-2.008 4.552,-9.531 2.419,-9.531" style="fill:#fff;"/><path d="M59.815,349.083c-0.11,0.44 -0.254,0.967 -0.4,1.38c-0.729,2.053 -1.733,4.265 -2.08,5.223c-2.513,6.911 -5.966,13.212 -8.906,19.875c-1.297,2.94 -2.503,5.944 -3.496,9.094c-1.621,5.108 -2.936,10.419 -4.042,15.806c-1.633,7.958 -2.811,16.077 -3.803,23.941c-1.12,8.613 -0.135,16.647 -3.115,21.462c-1.795,2.9 -5.231,4.212 -11.675,3.772c-1.485,-0.11 -3.012,-0.104 -4.508,-0.284c-0.847,-0.102 -1.684,-0.267 -2.49,-0.58c-0.657,-0.255 -1.084,-0.854 -1.439,-1.583c-0.617,-1.271 -0.94,-2.928 -1.123,-4.708c-0.541,-5.258 0.214,-11.514 0.167,-13.775c-0.118,-6.496 -0.831,-13.007 -0.896,-19.529c-0.028,-2.696 0.065,-5.394 0.356,-8.092c0.564,-5.16 1.697,-10.086 3.086,-14.922c2.157,-7.511 4.929,-14.801 7.217,-22.375c1.164,-3.828 2.168,-7.971 3.744,-11.809c0.948,-2.31 2.122,-4.496 3.719,-6.391c0.405,-0.48 3.146,-2.073 2.504,-2.998c1.151,-0.573 1.942,-1.762 1.942,-3.133c-0,-1.932 -1.569,-3.5 -3.5,-3.5c-0.849,0.014 -2.152,0.372 -3.327,1.542c-1.073,1.068 -2.418,3.169 -2.902,3.784c-1.962,2.494 -3.404,5.323 -4.517,8.32c-1.516,4.079 -2.443,8.453 -3.529,12.508c-2.066,7.659 -4.614,15.049 -6.558,22.638c-1.321,5.154 -2.374,10.394 -2.82,15.865c-0.239,2.894 -0.262,5.781 -0.168,8.665c0.214,6.533 1.045,13.043 1.295,19.549c0.094,2.687 -0.76,10.84 0.448,16.59c0.745,3.548 2.349,6.225 4.831,7.172c1.131,0.432 2.299,0.673 3.484,0.809c1.559,0.179 3.149,0.171 4.696,0.277c8.64,0.641 13.018,-1.75 15.471,-5.612c3.276,-5.158 2.726,-13.769 4.093,-23.04c1.169,-7.714 2.51,-15.677 4.328,-23.464c1.206,-5.168 2.63,-10.254 4.337,-15.137c1.024,-2.914 2.245,-5.684 3.548,-8.393c3.221,-6.697 6.939,-13.014 9.734,-19.979c0.448,-1.111 1.834,-3.883 2.655,-6.177c0.609,-1.7 0.85,-3.256 0.764,-4.221c-0.119,-1.329 -0.742,-2.24 -1.458,-2.864c-0.659,-0.575 -1.519,-0.931 -2.635,-0.952c-1.932,0 -3.5,1.569 -3.5,3.5c0,0.636 0.17,1.233 0.468,1.746Zm2.59,1.725c0.14,0.022 0.287,0.032 0.442,0.029c-0.15,0 -0.298,-0.009 -0.442,-0.029Z"/><g id="Light.Manga"><path d="M76.385,278.433c-0.822,0.589 -2.004,0.865 -2.93,1.45c-4.801,3.032 -9.576,6.557 -14.065,10.049c-2.961,2.302 -5.073,5.561 -7.766,8.122c-4.776,4.541 -10.183,8.819 -14.417,13.899c-3.055,3.667 -5.74,7.787 -8.351,11.788c-3.143,4.817 -5.38,9.47 -7.268,14.901c-0.345,0.993 -2.209,3.777 -1.553,4.958c1.305,2.348 6.371,3.159 8.586,3.877c4.537,1.471 8.89,3.573 13.392,5.01c3.539,1.13 7.194,1.825 10.667,3.166c2.563,0.989 4.802,2.135 7.589,2.135c0.892,0 2.112,0.218 2.813,-0.474c1.183,-1.169 1.655,-3.332 2.256,-4.827c0.887,-2.204 2.187,-4.225 2.96,-6.513c1.948,-5.769 5.211,-10.83 8.116,-16.062c1.438,-2.588 4.289,-6.232 6.741,-7.885c0.909,-0.614 4.333,-2.827 3.487,-2.321" style="fill:#ffd78b;"/><path d="M84.288,317.115c-0.846,0.592 -2.451,1.692 -3.029,2.102c-1.179,0.838 -2.454,2.047 -3.634,3.432c-1.589,1.865 -3.052,4.008 -3.962,5.736c-1.693,3.215 -3.518,6.369 -5.104,9.65c-1.101,2.278 -2.098,4.609 -2.866,7.059l-2.778,6.418c-0.332,0.875 -0.611,1.981 -1.024,2.978c-0.097,0.233 -0.189,0.465 -0.306,0.671c-0.279,-0.164 -0.953,0.164 -1.316,0.17c-0.877,0.014 -1.687,-0.112 -2.473,-0.321c-1.433,-0.383 -2.799,-0.986 -4.278,-1.529c-1.107,-0.406 -2.229,-0.753 -3.36,-1.069c-2.485,-0.695 -5.01,-1.24 -7.484,-1.996l-13.424,-4.877c-1.273,-0.409 -3.513,-0.833 -5.396,-1.596c-0.756,-0.306 -1.478,-0.615 -1.879,-1.101c0.079,-0.253 0.265,-0.823 0.432,-1.179c0.445,-0.951 0.951,-1.854 1.124,-2.346c0.937,-2.627 1.955,-5.066 3.13,-7.427c1.171,-2.354 2.502,-4.627 4.047,-6.94c1.58,-2.351 3.185,-4.744 4.883,-7.055c1.113,-1.513 2.268,-2.986 3.477,-4.392c1.667,-1.932 3.516,-3.735 5.434,-5.478c2.982,-2.711 6.131,-5.274 9.052,-7.942c1.956,-1.786 3.632,-3.921 5.51,-5.828c0.685,-0.695 1.405,-1.349 2.186,-1.932c2.253,-1.672 4.576,-3.348 6.937,-4.969c2.339,-1.605 4.716,-3.148 7.096,-4.576c0.656,-0.393 1.461,-0.584 2.129,-0.907c0.361,-0.175 0.696,-0.378 1.011,-0.592c1.571,-1.125 1.933,-3.313 0.808,-4.884c-1.125,-1.57 -3.313,-1.932 -4.883,-0.808l-2.722,1.401c-2.423,1.609 -4.837,3.34 -7.209,5.133c-2.347,1.773 -4.653,3.599 -6.887,5.419c-0.994,0.806 -1.907,1.698 -2.768,2.646c-1.734,1.91 -3.254,4.042 -5.068,5.838c-3.285,3.249 -6.874,6.378 -10.162,9.728c-1.47,1.499 -2.886,3.035 -4.185,4.65c-1.239,1.536 -2.416,3.144 -3.552,4.789c-1.664,2.411 -3.242,4.896 -4.791,7.342c-1.596,2.504 -2.958,4.964 -4.162,7.5c-1.2,2.528 -2.247,5.13 -3.196,7.933c-0.283,0.824 -1.482,2.806 -1.723,4.25c-0.155,0.929 -0.021,1.745 0.331,2.374c0.596,1.063 1.682,1.963 3.058,2.648c2.159,1.075 5.106,1.663 6.681,2.177l13.359,5.143c2.482,0.828 5.025,1.437 7.518,2.214c1.003,0.312 1.994,0.656 2.971,1.052c1.601,0.648 3.082,1.343 4.639,1.813c1.199,0.362 2.44,0.587 3.789,0.609c0.806,0.013 1.812,0.096 2.665,-0.107c0.723,-0.171 1.363,-0.521 1.91,-1.041c0.56,-0.532 1.022,-1.206 1.419,-1.952c0.626,-1.177 1.036,-2.598 1.498,-3.684c0.635,-1.494 1.473,-2.893 2.187,-4.362c0.355,-0.729 0.677,-1.475 0.955,-2.246c0.779,-2.152 1.764,-4.187 2.834,-6.173c1.698,-3.15 3.628,-6.161 5.428,-9.241c0.661,-1.129 1.65,-2.475 2.739,-3.724c1.011,-1.161 2.123,-2.225 3.146,-2.879c0.676,-0.432 2.718,-1.688 3.427,-2.139c0.186,-0.118 0.312,-0.208 0.37,-0.249c2.559,-1.811 3.231,-9.822 -4.002,-5.747c-0.202,0.121 -0.388,0.26 -0.557,0.413Z"/></g></g><g id="Cara"><path id="Light.Mechon" d="M247.296,47.144c-0,-5.382 12.071,-7.441 15.436,-8.238c4.386,-1.039 8.77,-1.539 13.206,-2.295c10.047,-1.713 24.84,-5.698 32.785,3.647c2.247,2.642 3.403,11.674 2.004,14.755c-1.497,3.297 -4.289,5.456 -6.056,8.482c-1.532,2.623 2.697,3.253 1.502,6.025c-2.322,5.383 -10.555,5.744 -15.3,6.352c-1.553,0.199 -5.051,1.092 -6.648,0.369c-3.61,-1.636 -7.383,-8.667 -10.246,-11.394c-6.307,-6.009 -14.267,-9.402 -20.9,-14.712c-1.657,-1.327 -2.456,-3.587 -3.689,-4.671"/><path d="M248.768,50.319c0.272,0.408 0.565,0.814 0.899,1.183c0.407,0.449 0.837,0.876 1.322,1.244c4.813,3.669 10.254,6.374 15.34,9.714c2.003,1.315 3.95,2.727 5.759,4.373c1.927,1.762 4.288,5.446 6.72,8.115c1.462,1.605 2.966,2.89 4.411,3.513c0.794,0.343 1.871,0.512 3.063,0.455c1.728,-0.082 3.778,-0.58 4.886,-0.742c2.966,-0.423 7.225,-0.802 10.693,-2.214c2.785,-1.134 5.092,-2.893 6.226,-5.615c0.404,-0.957 0.45,-1.782 0.308,-2.516c-0.17,-0.879 -0.628,-1.645 -1.212,-2.339c-0.164,-0.196 -0.337,-0.388 -0.501,-0.58c-0.108,-0.126 -0.369,-0.187 -0.253,-0.388c1.206,-2.068 2.913,-3.713 4.323,-5.622c0.695,-0.941 1.328,-1.935 1.836,-3.043c0.816,-1.77 1.001,-5.256 0.57,-8.686c-0.432,-3.439 -1.503,-6.775 -2.786,-8.315c-3.542,-4.287 -8.357,-6.166 -13.599,-6.768c-7.122,-0.819 -15.09,0.866 -21.299,1.8c-3.13,0.465 -6.228,0.805 -9.326,1.292c-1.373,0.216 -2.744,0.464 -4.118,0.758c-2.459,0.519 -9.156,1.653 -13.335,4.045c-3.071,1.757 -4.829,4.288 -4.899,7.161c-0,1.931 1.568,3.5 3.5,3.5c0.526,-0 1.025,-0.117 1.472,-0.325Zm4.654,-5.282c0.484,0.853 0.96,1.821 1.748,2.487c4.509,3.789 9.685,6.654 14.476,10.132c2.177,1.58 4.283,3.268 6.225,5.206c1.944,1.929 4.291,5.866 6.731,8.762c0.883,1.047 1.732,1.97 2.629,2.396c0.353,0.168 0.888,0.11 1.448,0.072c1.445,-0.098 3.004,-0.424 3.899,-0.523c2.682,-0.304 6.541,-0.465 9.7,-1.652c1.719,-0.647 3.247,-1.578 3.982,-3.223c0.076,-0.172 -0.029,-0.284 -0.11,-0.394c-0.205,-0.275 -0.443,-0.535 -0.659,-0.799c-0.624,-0.764 -1.085,-1.58 -1.18,-2.503c-0.076,-0.74 0.038,-1.575 0.602,-2.529c1.282,-2.192 3.078,-3.948 4.567,-5.978c0.527,-0.718 1.006,-1.478 1.386,-2.323c0.589,-1.318 0.513,-3.91 0.154,-6.444c-0.353,-2.492 -0.992,-4.965 -1.946,-6.064c-2.847,-3.257 -6.671,-4.547 -10.761,-4.88c-6.711,-0.545 -14.118,1.449 -19.911,2.553c-3.088,0.595 -6.152,1.064 -9.207,1.68c-1.255,0.254 -2.507,0.536 -3.76,0.861c-1.595,0.419 -5.251,1.183 -8.503,2.486c-0.52,0.209 -1.029,0.433 -1.51,0.677Z"/><path d="M54.97,162.886c0.728,3.397 2.265,8.656 4.461,12.413c2.196,3.757 5.577,6.968 8.715,10.129c3.2,3.222 7.132,5.982 10.485,9.205c3.576,3.438 7.879,7.372 10.972,11.421c3.024,3.958 5.893,8.189 7.588,12.873c1.701,4.699 1.709,10.22 2.615,15.32c0.94,5.295 1.666,11.175 3.025,16.45c1.334,5.18 2.756,11.798 5.127,15.205c1.999,2.872 6.327,3.102 9.101,5.237c3.807,2.931 9.266,10.094 13.74,12.344c3.916,1.969 8.75,0.613 13.1,1.153c7.405,0.919 22.516,4.542 31.326,4.361c7.402,-0.152 15.851,-3.442 21.534,-5.445c4.457,-1.572 8.672,-3.891 12.561,-6.576c3.995,-2.757 7.762,-6.473 11.408,-9.967c4.093,-3.922 9.417,-8.936 13.151,-13.566c3.549,-4.4 6.733,-10.251 9.254,-14.212c2.007,-3.153 4.816,-6.914 5.871,-9.552c0.779,-1.948 0.731,-4.757 0.462,-6.276c-0.205,-1.154 -3.228,-2.615 -2.077,-2.837c1.435,-0.277 7.106,1.076 10.69,1.176c4.525,0.127 11.026,0.369 16.458,-0.415c5.622,-0.811 12.604,-2.384 17.278,-4.453c4.081,-1.806 8.233,-4.421 10.767,-7.959c2.534,-3.538 3.817,-8.645 4.435,-13.267c0.897,-6.714 0.682,-19.418 0.946,-27.016c0.216,-6.191 1.593,-12.452 0.641,-18.573c-1.09,-7.003 -4.616,-15.681 -7.178,-23.441c-3.825,-11.588 -12.051,-35.997 -15.774,-46.085c-1.831,-4.961 -2.828,-10.699 -6.563,-14.443c-5.139,-5.152 -17.021,-12.282 -24.276,-16.473c-6.095,-3.521 -12.553,-6.515 -19.252,-8.675c-7.717,-2.488 -18.138,-5.238 -27.046,-6.253c-8.745,-0.996 -17.637,-0.616 -26.405,0.162c-10.403,0.923 -24.327,2.107 -36.017,5.376c-11.895,3.326 -25.135,8.94 -35.351,14.581c-9.429,5.207 -19.419,13.527 -25.943,19.265c-5.032,4.424 -10.19,10.721 -13.203,15.158c-2.332,3.436 -3.409,7.58 -4.87,11.467c-1.491,3.964 -3.255,8.073 -4.076,12.32c-1.042,5.395 -0.981,13.435 -2.179,20.05c-1.265,6.983 -4.492,16.879 -5.409,21.849c-0.482,2.612 -0.649,5.372 -0.092,7.969Z" style="fill:#fff;"/><path d="M251.674,223.149c1.279,0.213 2.697,0.454 4.015,0.598c0.824,0.091 1.615,0.154 2.329,0.173c2.818,0.073 6.395,0.188 10.01,0.078c2.316,-0.07 4.648,-0.232 6.815,-0.549c3.361,-0.492 7.196,-1.251 10.758,-2.222c2.589,-0.705 5.036,-1.523 7.066,-2.426c2.578,-1.148 5.18,-2.603 7.433,-4.382c1.604,-1.268 3.034,-2.699 4.172,-4.294c1.146,-1.608 2.067,-3.505 2.791,-5.541c0.987,-2.773 1.615,-5.805 1.994,-8.663c0.298,-2.243 0.477,-5.136 0.588,-8.289c0.225,-6.364 0.18,-13.807 0.354,-18.93c0.147,-4.332 0.861,-8.698 0.952,-13.027c0.042,-1.985 -0.042,-3.963 -0.349,-5.927c-0.361,-2.326 -0.978,-4.83 -1.741,-7.425c-1.567,-5.328 -3.756,-11.049 -5.501,-16.344c-2.202,-6.706 -5.874,-17.698 -9.288,-27.735c-2.498,-7.343 -4.857,-14.176 -6.422,-18.449c-1.092,-2.983 -1.891,-6.241 -3.145,-9.192c-0.956,-2.25 -2.171,-4.327 -3.878,-6.047c-2.242,-2.26 -5.723,-4.897 -9.569,-7.509c-5.123,-3.478 -10.899,-6.925 -15.12,-9.378c-3.104,-1.808 -6.302,-3.481 -9.577,-4.982c-3.29,-1.507 -6.657,-2.839 -10.087,-3.958c-3.989,-1.302 -8.694,-2.675 -13.544,-3.849c-4.679,-1.132 -9.494,-2.077 -13.941,-2.6c-4.478,-0.526 -8.995,-0.699 -13.516,-0.647c-4.47,0.052 -8.943,0.327 -13.386,0.703c-6.419,0.542 -14.168,1.18 -21.918,2.335c-4.98,0.742 -9.959,1.7 -14.598,2.976c-5.978,1.644 -12.291,3.856 -18.406,6.356c-6.27,2.562 -12.33,5.43 -17.602,8.308c-3.724,2.033 -7.535,4.534 -11.199,7.178c-5.816,4.197 -11.255,8.755 -15.353,12.324c-2.507,2.183 -5.048,4.809 -7.361,7.458c-2.527,2.894 -4.78,5.817 -6.425,8.215c-1.064,1.552 -1.905,3.232 -2.633,4.972c-0.974,2.329 -1.734,4.773 -2.632,7.124c-0.922,2.416 -1.942,4.886 -2.797,7.407c-0.603,1.78 -1.123,3.586 -1.486,5.416c-0.257,1.297 -0.455,2.737 -0.623,4.27c-0.532,4.865 -0.725,10.755 -1.665,15.798c-0.246,1.317 -0.567,2.741 -0.928,4.216c-1.553,6.341 -3.833,13.573 -4.598,17.601c-0.281,1.48 -0.468,3.003 -0.513,4.525c-0.049,1.618 0.07,3.235 0.398,4.805c0.414,1.887 1.064,4.315 1.929,6.771c0.818,2.324 1.825,4.669 2.99,6.64c1,1.691 2.208,3.287 3.535,4.814c1.802,2.074 3.822,4.025 5.757,5.954c0.701,0.699 1.433,1.378 2.187,2.044c2.726,2.408 5.747,4.638 8.402,7.165c2.129,2.026 4.517,4.224 6.75,6.521c1.42,1.46 2.778,2.957 3.951,4.476c1.452,1.881 2.872,3.825 4.13,5.859c1.209,1.954 2.273,3.988 3.061,6.131c0.469,1.274 0.794,2.618 1.047,3.998c0.646,3.522 0.861,7.257 1.506,10.789c0.676,3.709 1.248,7.703 2.005,11.577c0.337,1.729 0.71,3.434 1.142,5.083c0.925,3.523 1.898,7.695 3.16,11.121c0.72,1.953 1.54,3.684 2.467,5.003c0.886,1.26 2.058,2.192 3.412,2.922c1.997,1.078 4.524,1.543 6.332,2.922c2.564,1.956 5.885,5.865 9.143,8.831c1.744,1.588 3.484,2.926 5.095,3.728c1.514,0.752 3.128,1.135 4.806,1.29c2.992,0.276 6.214,-0.279 9.209,0.08c5.132,0.613 13.974,2.511 21.845,3.541c3.627,0.475 7.057,0.768 9.869,0.698c3.037,-0.074 6.239,-0.633 9.372,-1.43c4.776,-1.215 9.39,-2.975 12.939,-4.241c2.343,-0.836 4.622,-1.866 6.824,-3.044c2.176,-1.165 4.279,-2.472 6.296,-3.875c1.691,-1.177 3.345,-2.517 4.965,-3.941c2.293,-2.018 4.522,-4.205 6.706,-6.314c2.472,-2.385 5.389,-5.17 8.139,-8.027c1.86,-1.934 3.645,-3.9 5.17,-5.803c1.412,-1.761 2.769,-3.744 4.05,-5.753c1.975,-3.097 3.768,-6.256 5.312,-8.698c1.333,-2.108 3.019,-4.487 4.311,-6.624c0.724,-1.198 1.33,-2.33 1.722,-3.317c0.447,-1.129 0.687,-2.488 0.76,-3.808c0.075,-1.338 -0.015,-2.629 -0.17,-3.554Zm-4.349,0.95c0.085,0.644 0.12,1.481 0.067,2.344c-0.052,0.832 -0.181,1.694 -0.467,2.404c-0.319,0.788 -0.821,1.686 -1.407,2.641c-1.29,2.106 -2.973,4.446 -4.303,6.522c-1.556,2.429 -3.365,5.571 -5.355,8.65c-1.201,1.859 -2.469,3.696 -3.791,5.324c-1.453,1.79 -3.153,3.638 -4.924,5.455c-2.725,2.795 -5.619,5.515 -8.069,7.846c-2.146,2.042 -4.335,4.161 -6.587,6.113c-1.489,1.289 -3.005,2.504 -4.557,3.567c-1.871,1.28 -3.819,2.473 -5.834,3.532c-1.993,1.047 -4.053,1.962 -6.169,2.699c-3.436,1.197 -7.898,2.872 -12.516,4.009c-2.758,0.68 -5.572,1.167 -8.241,1.211c-2.583,0.042 -5.73,-0.27 -9.058,-0.736c-7.886,-1.104 -16.737,-3.085 -21.879,-3.746c-3.037,-0.391 -6.312,0.129 -9.347,-0.179c-0.99,-0.1 -1.949,-0.306 -2.839,-0.758c-1.212,-0.617 -2.489,-1.679 -3.796,-2.891c-3.359,-3.113 -6.799,-7.181 -9.446,-9.237c-2.024,-1.572 -4.812,-2.236 -7.053,-3.471c-0.546,-0.301 -1.051,-0.646 -1.405,-1.16c-0.885,-1.283 -1.578,-3.104 -2.211,-5.103c-0.937,-2.961 -1.687,-6.299 -2.416,-9.182c-0.516,-2.041 -0.932,-4.176 -1.304,-6.329c-0.578,-3.343 -1.05,-6.732 -1.599,-9.911c-0.611,-3.541 -0.789,-7.282 -1.399,-10.813c-0.301,-1.74 -0.704,-3.432 -1.277,-5.041c-0.731,-2.049 -1.667,-4.021 -2.737,-5.927c-1.539,-2.738 -3.363,-5.335 -5.249,-7.83c-1.299,-1.719 -2.803,-3.42 -4.381,-5.076c-2.269,-2.381 -4.697,-4.666 -6.862,-6.768c-2.687,-2.609 -5.745,-4.927 -8.506,-7.416c-0.646,-0.582 -1.274,-1.175 -1.874,-1.785c-1.803,-1.834 -3.691,-3.684 -5.368,-5.653c-1.039,-1.221 -1.993,-2.489 -2.772,-3.838c-0.933,-1.616 -1.719,-3.543 -2.366,-5.444c-0.739,-2.167 -1.288,-4.306 -1.636,-5.969c-0.227,-1.033 -0.309,-2.1 -0.289,-3.168c0.022,-1.156 0.156,-2.314 0.358,-3.441c0.707,-3.955 2.88,-11.062 4.335,-17.292c0.375,-1.607 0.705,-3.157 0.957,-4.59c0.238,-1.359 0.428,-2.774 0.584,-4.214c0.603,-5.566 0.681,-11.535 1.486,-15.817c0.293,-1.558 0.725,-3.095 1.223,-4.613c0.805,-2.452 1.774,-4.854 2.645,-7.205c0.852,-2.299 1.564,-4.689 2.491,-6.966c0.55,-1.351 1.174,-2.663 1.985,-3.871c1.51,-2.246 3.583,-4.987 5.91,-7.703c2.107,-2.461 4.419,-4.906 6.709,-6.94c3.952,-3.509 9.197,-7.995 14.813,-12.132c3.44,-2.534 7.019,-4.939 10.522,-6.896c5.074,-2.834 10.911,-5.668 16.955,-8.203c5.889,-2.469 11.973,-4.657 17.738,-6.296c4.429,-1.258 9.189,-2.211 13.949,-2.962c7.624,-1.202 15.252,-1.891 21.57,-2.478c4.319,-0.401 8.669,-0.706 13.017,-0.79c4.309,-0.083 8.617,0.051 12.89,0.522c4.269,0.471 8.893,1.348 13.389,2.402c4.733,1.109 9.324,2.414 13.218,3.654c3.271,1.042 6.484,2.286 9.623,3.698c3.151,1.417 6.228,3 9.217,4.713c4.16,2.389 9.853,5.744 14.905,9.135c3.593,2.412 6.861,4.832 8.959,6.925c1.326,1.321 2.243,2.94 2.991,4.675c1.241,2.877 2.029,6.06 3.112,8.97c1.577,4.243 3.965,11.027 6.48,18.322c3.449,10.008 7.139,20.976 9.358,27.664c1.738,5.252 3.921,10.927 5.482,16.213c0.713,2.411 1.294,4.739 1.632,6.901c0.268,1.728 0.334,3.469 0.294,5.216c-0.098,4.312 -0.819,8.66 -0.972,12.975c-0.183,5.12 -0.149,12.561 -0.384,18.923c-0.111,3.002 -0.281,5.757 -0.568,7.891c-0.289,2.155 -0.728,4.422 -1.389,6.568c-0.654,2.125 -1.522,4.131 -2.695,5.762c-1.151,1.6 -2.68,2.979 -4.376,4.169c-1.739,1.221 -3.656,2.239 -5.554,3.074c-2.295,1.01 -5.172,1.888 -8.154,2.614c-2.898,0.705 -5.896,1.262 -8.578,1.643c-2.011,0.286 -4.175,0.423 -6.324,0.479c-3.527,0.093 -7.016,-0.036 -9.766,-0.119c-2.942,-0.091 -7.303,-1.045 -9.517,-1.212c-0.709,-0.054 -1.275,-0.027 -1.653,0.044c-0.987,0.188 -1.445,0.716 -1.702,1.128c-0.316,0.509 -0.435,1.088 -0.295,1.744c0.087,0.406 0.422,1.081 1.127,1.718l1.225,1.112Z"/><path d="M54.108,145.464c-1.39,1.041 -1.821,2.98 -0.94,4.529c0.583,0.8 1.178,1.517 2.163,1.659c0.339,0.05 0.706,0.181 1.121,0.107c0.346,-0.062 1.286,-0.037 2.111,-0.882c0.255,-0.261 1.042,-1.202 1.042,-1.202c-0,-0 -0.151,0.092 -0.193,0.13l2.774,-2.513c1.268,-0.876 2.915,-2.024 4.73,-2.699c1.497,-0.556 3.062,-0.923 4.393,-0.404c1.812,0.872 3.307,2.044 4.482,3.494c1.222,1.507 2.011,3.318 2.729,5.217c0.355,1.006 0.85,3.182 1.326,4.6c0.295,0.88 0.725,1.509 1.004,1.911c0.955,1.377 2.33,1.336 3.233,1.339c1.019,0.004 2.161,-0.614 3.102,-2.481c0.631,-1.735 -0.197,-3.647 -1.856,-4.389c-0.651,-1.182 -1.348,-2.645 -1.794,-3.371c-1.272,-2.18 -2.729,-4.12 -4.444,-5.816c-1.737,-1.717 -3.677,-3.232 -6.105,-4.244c-1.768,-0.892 -3.873,-0.931 -6.03,-0.627c-2.753,0.388 -5.572,1.506 -7.615,2.442l-3.782,2.16c-0.231,0.129 -1.625,0.599 -1.451,1.04Zm26.957,9.551c-0.199,0.212 -0.37,0.486 -0.458,0.862c0.114,-0.316 0.27,-0.604 0.458,-0.862Zm4.939,-0.005l0.006,0.009c0.022,0.032 0.086,0.062 0.086,0.062l-0.092,-0.071Zm-27.363,-9.265c0.235,0.225 0.442,0.489 0.611,0.786c-0.14,-0.327 -0.359,-0.573 -0.611,-0.786Zm-1.766,-0.918c0.353,0.068 0.694,0.19 1.011,0.363c-0.263,-0.182 -0.6,-0.309 -1.011,-0.363Z"/><path d="M69.349,166.96c0.286,-0.429 0.477,-0.822 0.8,-1.055c0.136,-0.098 0.198,-0.293 0.359,-0.304c0.388,-0.026 0.813,0.138 1.341,0.418c0.381,0.295 0.597,0.755 0.804,1.209c0.015,0.033 0.028,0.066 0.039,0.099c-0.053,0.05 -0.104,0.101 -0.153,0.154c-0.029,0.056 -0.073,0.116 -0.043,0.132c0.098,0.055 0.179,0.045 0.247,0.004c0.02,0.305 -0.059,0.623 -0.075,0.934c0.016,-0.19 0.001,-0.446 -0.177,-0.55c-0.19,-0.111 -0.386,0.191 -0.467,0.275c-0.159,0.165 -0.193,0.33 -0.25,0.401c-0.198,0.246 -0.146,0.513 -0.222,0.66c-0.205,0.393 -0.022,0.757 -0.071,1.027c-0.042,0.235 0.11,0.424 0.112,0.625c0.005,0.727 0.636,1.071 0.939,1.567c0.396,0.648 1.221,0.623 2.065,0.928c0.301,0.109 0.639,-0.091 1.065,-0.077c0.284,0.009 0.572,-0.296 1.096,-0.466c0.104,-0.033 0.306,-0.322 0.918,-0.704c0.21,-0.228 0.385,-0.476 0.523,-0.738c0.543,-0.484 0.646,-2.728 0.167,-3.856c-0.432,-1.131 -0.923,-2.215 -1.788,-3.104c-0.811,-0.833 -1.637,-1.643 -2.676,-2.069c-1.717,-1.12 -3.102,-1.228 -4.395,-1.13c-1.276,0.095 -2.45,0.707 -4.056,1.682c-0.219,0.123 -0.598,0.262 -0.981,0.459c-0.46,0.235 -0.769,0.616 -1.128,0.906c-0.537,0.435 -0.623,1.08 -0.886,1.588c-0.117,0.226 -0.058,0.479 -0.13,0.715c-0.297,0.967 0.341,1.791 0.924,2.915c1.285,1.443 3.499,1.571 4.942,0.287c0.861,-0.767 1.254,-1.865 1.157,-2.932Zm-0.663,-1.752c-0.045,-0.099 -0.107,-0.19 -0.208,-0.258c0.074,0.084 0.144,0.17 0.208,0.258Z"/><g id="Light.Ojos"><path d="M190.486,149.363c0.169,-0.574 0.192,-1.199 0.037,-1.822c-0.747,-1.842 -1.679,-2.788 -2.994,-2.891c-0.69,-0.053 -1.507,-0.192 -2.306,0.228c-0.883,0.463 -2.015,1.388 -2.406,1.856c-1.081,1.231 -3.058,4.905 -3.185,7.758c-0.093,2.116 0.449,3.847 2.098,4.654c0.592,0.308 1.206,0.503 1.85,0.584c0.69,0.086 1.404,0.077 2.089,0.064c0.676,0.02 1.258,-0.042 1.827,-0.15c0.618,-0.118 1.209,-0.343 1.874,-0.686c2.14,-1.023 3.475,-3.418 3.57,-5.461c0.073,-1.566 -0.681,-2.977 -2.454,-4.134Zm-2.976,4.988c-0.341,0.063 -1.034,0.403 -1.402,0.337c-0.562,0.254 -1.184,0.355 -1.797,0.293c-0.039,0.27 0.022,0.615 -0.182,0.634l-0.021,-0c0.095,0.039 0.194,0.065 0.296,0.079c0.419,0.055 0.85,0.044 1.265,0.051c0.323,-0.009 0.603,-0.039 0.869,-0.115c0.217,-0.063 0.399,-0.208 0.62,-0.361c0.26,-0.191 0.291,-0.587 0.352,-0.918Zm-0.104,-0.675c0.026,-0.025 0.048,-0.052 0.064,-0.082l-0.064,0.082Z"/><path d="M286.366,143.601c-0.957,-0.053 -3.002,0.367 -4.411,1.026c-1.665,0.778 -2.169,2.338 -2.386,3.757c0,1.252 0.659,2.351 1.649,2.969c-0.049,0.654 0.018,1.291 0.301,1.898c0.236,0.531 0.524,1.056 1.041,1.437c0.784,0.578 2.049,1.028 3.499,1.071c2.518,0.073 5.287,-0.955 5.948,-2.192c1.362,-2.043 1.104,-4.309 0.234,-6.184c0.335,-0.842 0.345,-1.811 -0.049,-2.705c-0.779,-1.767 -2.847,-2.569 -4.615,-1.79c-0.508,0.317 -0.896,0.537 -1.211,0.713Zm1.868,6.302l-0.079,0.058c-0.271,0.221 -0.621,0.468 -0.962,0.766c0.548,0.024 1.081,0.167 1.36,0.426c0.069,-0.452 -0.085,-0.887 -0.319,-1.25Z"/></g><path d="M186.558,239.691c1.324,-0.159 2.547,-0.017 3.392,0.81c1.51,1.206 3.714,0.96 4.92,-0.55c1.205,-1.509 0.959,-3.713 -0.55,-4.919c-2.099,-1.344 -4.527,-1.844 -7.195,-1.307c-4.063,0.818 -8.641,3.604 -11.322,5.294c-1.391,0.768 -3.277,1.91 -4.121,3.425c-0.519,0.931 -0.737,1.989 -0.466,3.239c0.567,3.059 2.474,3.897 4.528,3.994c3.268,0.154 8.081,-3.566 9.338,-5.172c1.18,-1.463 1.594,-3.235 1.499,-4.591c-0.006,-0.075 -0.013,-0.149 -0.023,-0.223Zm-7.107,2.303c-0.614,0.271 -1.179,0.529 -1.676,0.75c-0.659,0.327 -1.551,0.684 -2.188,1.253c-0.204,0.184 -0.407,0.39 -0.328,0.69c0.062,0.203 0.309,0.347 0.347,0.464c0.006,-0.02 0.009,-0.039 0.008,-0.053c-0.007,-0.092 0.176,-0.065 0.272,-0.095c0.321,-0.097 0.627,-0.303 0.953,-0.507c1.048,-0.656 2.01,-1.691 2.612,-2.502Zm1.549,0.712c0.039,0.02 0.081,0.035 0.128,0.043l-0.128,-0.043Z"/><path d="M105.358,91.322c1.73,1.239 3.011,4.957 3.871,6.762c2.621,5.502 4.579,11.238 6.421,17.049c0.719,2.268 3.497,5.205 2.686,7.704c-0.94,2.893 -4.55,2.543 -6.738,1.558c-0.191,-0.086 -2.865,-1.452 -2.96,-1.189c-0.968,2.662 0.591,7.939 0.591,10.821c-0,1.484 0.538,3.42 -0.956,4.261c-8.117,4.569 -18.335,-0.799 -27.048,0.45c-3.061,0.439 -6.333,0.075 -9.335,0.616c-6.775,1.22 -13.616,6.764 -19.762,0.573c-1.109,-1.117 -2.463,-2.202 -3.462,-3.401c-0.701,-0.842 -0.813,-2.074 -1.184,-3.074c-3.431,-9.256 3.032,-13.738 5.419,-21.884c0.926,-3.161 0.365,-8.346 2.96,-10.697c0.547,-0.496 -1.937,-2.418 -2.186,-2.746c-1.308,-1.722 -1.674,-3.864 -1.321,-6.024c0.687,-4.195 2.417,-4.681 5.374,-6.885c0.752,-0.56 1.996,-2.485 2.868,-2.746c3.73,-1.114 9.012,-0.022 12.66,0.779c6.275,1.378 12.668,2.336 19.079,2.336c3.66,0 8.273,-0.076 11.703,1.475c1.435,0.648 4.413,2.735 1.685,3.402"/><path d="M52.99,100.765c-0.425,0.713 -0.75,1.51 -0.99,2.368c-0.705,2.516 -0.611,5.636 -1.223,7.812c-1.692,5.967 -5.483,10.049 -6.202,15.341c-0.318,2.337 -0.124,4.892 0.998,7.874c0.268,0.718 0.412,1.551 0.717,2.285c0.208,0.5 0.472,0.967 0.817,1.379l3.583,3.53c2.959,2.998 6.064,3.721 9.242,3.443c4.016,-0.353 8.195,-2.636 12.333,-3.358c0.542,-0.093 1.093,-0.151 1.65,-0.191c2.512,-0.179 5.133,-0.005 7.62,-0.343c5.971,-0.789 12.618,1.614 18.82,1.66c3.191,0.024 6.27,-0.521 9.148,-2.092c1.06,-0.579 1.667,-1.415 2.024,-2.374c0.445,-1.195 0.253,-2.77 0.27,-4.072c0.027,-1.759 -0.493,-4.401 -0.699,-6.818c1.78,0.681 4.038,0.968 5.883,0.459c1.857,-0.512 3.372,-1.738 4.123,-3.932c0.467,-1.366 0.37,-2.82 -0.096,-4.292c-0.576,-1.817 -1.996,-3.685 -2.459,-5.23c-1.062,-3.566 -2.172,-7.103 -3.441,-10.584c-0.861,-2.361 -1.8,-4.693 -2.845,-6.991c-0.591,-1.299 -1.39,-3.507 -2.387,-5.235c0.386,-0.756 0.518,-1.555 0.388,-2.392c-0.116,-0.74 -0.43,-1.585 -1.084,-2.367c-0.888,-1.061 -2.606,-2.193 -3.742,-2.681c-1.687,-0.725 -3.59,-1.164 -5.564,-1.379c-2.556,-0.28 -5.226,-0.224 -7.539,-0.183c-3.076,0.052 -6.151,-0.121 -9.213,-0.464c-3.103,-0.349 -6.191,-0.861 -9.253,-1.479c-2.304,-0.467 -5.221,-1.028 -8.033,-1.149c-2.14,-0.093 -4.222,0.056 -6,0.617c-0.499,0.157 -1.089,0.47 -1.656,0.983c-0.705,0.639 -1.471,1.816 -2.003,2.225c-2.128,1.635 -3.649,2.538 -4.706,4.149c-0.697,1.062 -1.248,2.403 -1.55,4.419c-0.207,1.375 -0.191,2.742 0.089,4.037c0.298,1.375 0.868,2.677 1.765,3.828c0.097,0.125 0.694,0.701 1.215,1.197Zm49.153,-10.826c-0.958,-0.386 -2.017,-0.631 -3.108,-0.791c-2.264,-0.331 -4.642,-0.343 -6.7,-0.379c-3.343,-0.057 -6.676,-0.355 -9.989,-0.841c-3.258,-0.478 -6.496,-1.127 -9.703,-1.889c-2.041,-0.483 -4.623,-1.091 -7.128,-1.277c-1.368,-0.102 -2.709,-0.099 -3.885,0.182c-0.368,0.403 -1.798,1.954 -2.351,2.354c-1.381,0.998 -2.49,1.56 -3.31,2.412c-0.584,0.607 -0.936,1.411 -1.182,2.789c-0.136,0.771 -0.162,1.54 -0.023,2.273c0.124,0.65 0.362,1.275 0.757,1.832c0.213,0.194 1.092,1.004 1.559,1.525c0.532,0.595 0.905,1.201 1.05,1.648c0.394,1.211 0.061,2.158 -0.698,2.828c-0.729,0.645 -1.027,1.654 -1.257,2.725c-0.501,2.328 -0.571,4.955 -1.151,6.86c-1.509,4.981 -4.533,8.577 -5.886,12.747c-0.734,2.262 -0.872,4.722 0.253,7.807l0.834,2.484l3.341,3.271c1.927,1.931 3.934,2.412 5.991,2.215c3.907,-0.376 7.936,-2.699 11.957,-3.446c0.678,-0.127 1.368,-0.212 2.066,-0.272c2.416,-0.209 4.943,-0.064 7.334,-0.425c6.13,-0.947 13.033,1.3 19.419,1.194c2.246,-0.037 4.418,-0.415 6.429,-1.507c-0.025,-0.409 -0.093,-1.609 -0.101,-2.231c-0.03,-1.909 -0.789,-4.878 -0.988,-7.414c-0.13,-1.662 -0.01,-3.18 0.392,-4.342c0.231,-0.667 1.349,-2.305 3.63,-1.694c0.831,0.223 2.87,1.199 3.047,1.275c0.564,0.244 1.273,0.41 1.957,0.417c0.344,0.003 0.754,0.044 0.869,-0.331c0.116,-0.378 -0.185,-0.734 -0.37,-1.133c-0.772,-1.666 -1.973,-3.337 -2.447,-4.753c-0.955,-2.843 -1.941,-5.666 -3.021,-8.451c-1.061,-2.737 -2.22,-5.433 -3.535,-8.072c-0.44,-0.884 -0.993,-2.238 -1.652,-3.521c-0.378,-0.737 -0.726,-1.497 -1.223,-1.84c-1.362,-0.975 -1.815,-2.75 -1.177,-4.229Zm2.651,-2.85l0.098,-0.027c-0.034,0.008 -0.067,0.016 -0.098,0.027Z"/><path d="M245.746,44.233c-2.813,-0.631 -6.546,3.622 -8.88,4.96c-7.574,4.339 -15.6,7.816 -23.224,12.13c-2.295,1.299 -4.542,2.693 -6.693,4.221c-0.572,0.407 -2.026,1.506 -2.823,1.148c-2.054,-0.921 -3.019,-5.595 -2.414,-7.5c0.231,-0.725 0.654,-1.365 1.048,-2.008c0.222,-0.363 0.843,-1.48 0.638,-1.107c-1.685,3.054 -6.781,4.785 -9.427,6.886c-9.819,7.8 -19.019,16.111 -32.33,17.09c-2.051,0.15 -7.166,1.505 -8.197,-0.82c-1.12,-2.527 2.137,-5.384 3.825,-6.721c0.088,-0.07 1.788,-1.506 1.867,-1.435c0.502,0.455 -4.327,3.823 -4.644,4.016c-6.095,3.713 -12.838,6.442 -19.216,9.631c-8.69,4.345 -19.075,6.557 -28.825,6.557c-1.025,0 -3.014,-0.824 -3.096,-2.008c-0.037,-0.547 -0.214,-1.843 0.091,-2.336c0.164,-0.266 1.57,-1.793 1.002,-0.942c-5.095,7.643 -18.151,7.443 -26.047,5.45c-1.722,-0.435 -3.802,-0.363 -5.327,-1.393c-1.943,-1.312 -2.313,-2.877 -3.188,-4.919c-0.131,-0.306 -0.119,-2.043 -0.41,-2.13c-1.292,-0.386 -3.148,0.69 -4.326,1.025c-3.008,0.854 -5.933,2.024 -8.97,1.105c-4.241,-1.282 -9.046,-0.39 -13.479,-1.72c-1.631,-0.49 -4.164,-1.785 -4.371,-3.853c-1.016,-10.164 10.326,-16.705 18.487,-19.877c2.895,-1.125 5.671,-2.302 8.743,-2.827c0.98,-0.168 1.913,-0.316 2.869,-0.573c0.529,-0.143 2.142,-0.41 1.594,-0.41c-3.187,-0 -6.337,2.345 -9.745,1.639c-4.337,-0.898 -0.338,-7.338 1.229,-8.525c2.193,-1.661 4.873,-2.578 7.286,-3.851c4.964,-2.62 9.226,-5.62 14.845,-6.762c3.54,-0.72 6.965,-0.435 10.519,-0.779c0.566,-0.055 2.887,0.067 3.324,-0.328c0.161,-0.147 -3.905,-4.147 -4.008,-5.164c-0.388,-3.821 4.319,-8.423 7.104,-10.533c5.047,-3.823 11.528,-4.332 17.622,-4.999c1.975,-0.216 5.331,-1.062 7.332,-0.41c2.894,0.943 5.151,3.283 7.833,4.589c0.208,0.102 2.136,1.251 2.275,1.189c0.274,-0.123 0.761,-1.769 0.911,-2.049c1.049,-1.958 2.273,-4.024 3.643,-5.778c2.209,-2.828 7.631,-5.234 11.202,-5.902c8.448,-1.578 14.451,1.488 21.995,4.549c0.985,0.4 2.333,0.585 3.141,1.312c0.621,0.558 2.232,4.242 3.643,3.401c2.613,-1.557 4.81,-5.769 7.058,-7.951c4.307,-4.179 12.819,-6.699 18.851,-5.86c3.093,0.43 10.132,1.704 12.431,3.648c2.984,2.523 6.608,7.535 10.11,9.097c1.099,0.491 5.252,-2.749 6.375,-3.237c4.085,-1.776 10.599,-0.654 13.479,2.87c5.803,7.1 2.696,15.695 -1.411,22.744c-2.05,3.518 -2.825,6.699 -6.603,5.696"/><path d="M179.918,14.166c-0.257,-0.358 -0.524,-0.735 -0.676,-0.966c-0.351,-0.535 -0.681,-0.928 -0.91,-1.131c-0.456,-0.406 -0.993,-0.737 -1.586,-0.995c-0.758,-0.329 -1.643,-0.51 -2.351,-0.792c-4.757,-1.899 -8.934,-3.78 -13.431,-4.608c-3.109,-0.573 -6.365,-0.669 -10.035,0.039c-2.326,0.448 -5.361,1.555 -7.958,3.041c-1.949,1.116 -3.65,2.448 -4.724,3.838c-0.734,0.949 -1.429,1.98 -2.08,3.039c-0.604,0.985 -1.171,1.993 -1.694,2.979l-0.053,-0.028c-1.818,-0.875 -3.431,-2.251 -5.199,-3.3c-0.94,-0.557 -1.915,-1.038 -2.956,-1.372c-0.859,-0.275 -1.895,-0.38 -3.001,-0.341c-1.836,0.064 -3.915,0.524 -5.319,0.685c-3.78,0.433 -7.703,0.82 -11.363,1.908c-2.625,0.78 -5.12,1.908 -7.359,3.62c-1.785,1.362 -4.287,3.673 -5.962,6.191c-1.385,2.083 -2.186,4.321 -1.972,6.352c0.046,0.441 0.336,1.234 0.969,2.099c0.245,0.335 0.548,0.709 0.874,1.093c-2.196,0.168 -4.349,0.138 -6.518,0.312c-1.127,0.09 -2.257,0.23 -3.398,0.466c-2.403,0.498 -4.575,1.306 -6.653,2.282c-2.957,1.388 -5.719,3.125 -8.736,4.727c-1.693,0.898 -3.517,1.622 -5.213,2.548c-0.816,0.446 -1.606,0.935 -2.346,1.499c-1.368,1.04 -4.147,5.269 -3.976,8.155c0.043,0.728 0.208,1.405 0.533,1.994l-0.744,0.29c-5.11,1.98 -11.38,5.245 -15.433,9.783c-3.019,3.382 -4.84,7.452 -4.371,12.192c0.13,1.328 0.807,2.485 1.8,3.415c1.168,1.094 2.796,1.85 4.027,2.223c0.979,0.297 1.974,0.498 2.977,0.639c3.533,0.495 7.19,0.111 10.486,1.118c1.522,0.465 3.022,0.519 4.516,0.334c1.881,-0.231 3.753,-0.87 5.653,-1.404l2.039,-0.666c0.044,0.266 0.089,0.481 0.123,0.562c0.587,1.38 0.991,2.554 1.683,3.599c0.544,0.822 1.244,1.575 2.273,2.274c0.651,0.443 1.37,0.75 2.13,0.971c1.26,0.367 2.657,0.436 3.878,0.75c4.971,1.277 11.872,1.868 17.805,0.472c2.263,-0.533 4.383,-1.355 6.237,-2.512c0.275,0.336 0.61,0.644 0.998,0.914c1.091,0.76 2.59,1.177 3.549,1.181c5.039,0.025 10.245,-0.522 15.317,-1.628c5.113,-1.115 10.089,-2.802 14.628,-5.043c4.478,-2.21 9.133,-4.196 13.623,-6.447c0.278,-0.14 0.556,-0.281 0.833,-0.423l0.099,0.244c0.702,1.611 2.212,2.599 4.259,2.894c2.156,0.311 5.141,-0.306 6.635,-0.406c5.685,-0.383 10.682,-2.009 15.304,-4.355c6.7,-3.4 12.588,-8.362 18.694,-13.152c0.128,-0.1 0.262,-0.199 0.401,-0.297c-0.037,-0.947 0.649,-2.976 2.454,-6.608c-0.349,1.237 -0.35,3.19 0.053,5.089c-0.911,0.505 -1.779,1.002 -2.507,1.519c0.044,1.192 1.229,0.677 2.762,-0.51l-0.075,-0.256c-0.04,-0.158 -0.08,-0.316 -0.12,-0.475l-0.06,-0.278c1.332,-0.741 2.758,-1.5 3.971,-2.371c-1.211,1.214 -2.562,2.487 -3.716,3.38c0.065,0.228 0.138,0.452 0.217,0.672c0.761,2.104 2.128,3.723 3.606,4.399c0.722,0.33 1.573,0.438 2.496,0.273c1.217,-0.217 2.783,-1.229 3.472,-1.711c1.031,-0.722 2.085,-1.411 3.156,-2.073c1.08,-0.668 2.178,-1.308 3.287,-1.925c6.093,-3.392 12.439,-6.246 18.608,-9.437c1.588,-0.821 3.164,-1.665 4.722,-2.544c1.143,-0.644 2.607,-1.898 4.137,-3.053c0.84,-0.633 2.553,-0.639 2.487,-1.424c1.811,0.291 3.56,-0.877 3.967,-2.69c0.185,-0.824 0.062,-1.645 -0.292,-2.343c0.359,-0.68 0.735,-1.405 1.16,-2.147c2.73,-4.766 4.971,-10.181 4.962,-15.439c-0.006,-3.838 -1.12,-7.619 -3.997,-11.088c-1.896,-2.288 -4.922,-3.88 -8.19,-4.508c-3.157,-0.606 -6.493,-0.334 -9.062,0.803c-0.573,0.254 -1.854,1.111 -3.189,1.966c-0.438,0.282 -1.068,0.631 -1.509,0.868c-0.569,-0.361 -1.137,-0.824 -1.707,-1.331c-2.429,-2.157 -4.81,-5.047 -6.877,-6.772c-0.986,-0.821 -2.602,-1.613 -4.515,-2.233c-3.187,-1.031 -7.261,-1.722 -9.459,-2.012c-3.375,-0.447 -7.439,0.007 -11.258,1.197c-3.884,1.211 -7.506,3.166 -9.939,5.559c-1.576,1.549 -3.137,4.063 -4.815,6.027c-0.185,0.216 -0.369,0.425 -0.556,0.62Zm61.787,26.959c0.146,-0.176 0.394,-0.49 0.535,-0.723c0.587,-0.967 1.149,-2.136 1.865,-3.344c1.852,-3.126 3.535,-6.576 4.073,-10.061c0.471,-3.048 0.023,-6.12 -2.217,-8.902c-0.995,-1.234 -2.666,-1.983 -4.406,-2.341c-1.837,-0.378 -3.792,-0.338 -5.3,0.306c-1.015,0.433 -4.389,2.878 -6.108,3.33c-1.163,0.305 -2.12,0.154 -2.788,-0.149c-1.37,-0.622 -2.774,-1.642 -4.14,-2.888c-2.354,-2.148 -4.644,-5.024 -6.65,-6.743c-0.727,-0.623 -2.121,-1.078 -3.627,-1.517c-2.606,-0.761 -5.563,-1.286 -7.262,-1.534c-2.628,-0.384 -5.797,-0.019 -8.788,0.87c-2.992,0.888 -5.826,2.285 -7.717,4.095c-1.495,1.432 -2.958,3.791 -4.552,5.611c-0.974,1.112 -1.996,2.055 -3.054,2.678c-1.249,0.734 -2.54,0.701 -3.805,-0.067c-1.063,-0.646 -2.754,-3.162 -3.106,-3.698l-2.274,-0.812c-4.391,-1.812 -8.227,-3.649 -12.389,-4.466c-2.514,-0.493 -5.152,-0.601 -8.133,-0.062c-1.58,0.286 -3.567,0.955 -5.412,1.859c-1.742,0.854 -3.382,1.889 -4.311,3.065c-0.636,0.806 -1.238,1.684 -1.804,2.586c-0.571,0.91 -1.106,1.844 -1.6,2.755c-0.069,0.183 -0.607,1.623 -0.875,2.059c-0.401,0.652 -0.9,0.975 -1.233,1.121c-0.229,0.101 -1.112,0.431 -2.233,-0.085c-0.572,-0.263 -1.913,-1.063 -2.087,-1.149c-1.932,-0.953 -3.657,-2.415 -5.535,-3.554c-0.628,-0.381 -1.276,-0.722 -1.974,-0.953c-0.557,-0.185 -1.272,-0.157 -2.011,-0.101c-1.549,0.118 -3.181,0.456 -4.334,0.577c-3.522,0.368 -7.18,0.663 -10.595,1.643c-2.108,0.605 -4.122,1.472 -5.926,2.827c-1.264,0.95 -2.964,2.453 -4.312,4.157c-1.046,1.32 -1.972,2.727 -1.976,4.077c0.375,0.451 2.426,2.92 3.115,3.733c0.342,0.403 0.555,0.721 0.635,0.877c0.721,1.396 -0.054,2.313 -0.455,2.674c-0.317,0.285 -0.923,0.62 -1.759,0.746c-0.904,0.136 -2.372,0.081 -2.814,0.122c-2.512,0.234 -4.959,0.158 -7.428,0.337c-0.953,0.069 -1.911,0.178 -2.877,0.371c-2.067,0.412 -3.936,1.099 -5.728,1.927c-2.903,1.341 -5.611,3.035 -8.573,4.588c-1.683,0.883 -3.495,1.592 -5.181,2.502c-0.637,0.344 -1.255,0.719 -1.832,1.154c-0.496,0.374 -1.261,1.462 -1.814,2.623c-0.275,0.578 -0.502,1.178 -0.562,1.732c-0.026,0.246 0.018,0.479 0.32,0.541c0.498,0.104 0.988,0.112 1.473,0.063c0.996,-0.295 2.01,-0.542 3.056,-0.72l0.036,-0.007c1.603,-0.485 3.183,-1.01 4.767,-1.009c1.016,0.001 1.429,0.492 1.541,0.604c0.782,0.781 0.905,1.649 0.225,2.61c-0.106,0.149 -0.404,0.567 -1.097,0.788c-0.273,0.088 -1.321,0.278 -1.738,0.39l-3.053,0.611l-0.068,0.013c-0.726,0.239 -1.458,0.467 -2.2,0.61c-0.241,0.046 -0.483,0.086 -0.726,0.115l-0.295,0.093c-1.704,0.55 -3.36,1.234 -5.06,1.896c-4.572,1.783 -10.222,4.653 -13.842,8.725c-2.243,2.523 -3.683,5.524 -3.327,9.053c0.047,0.458 0.439,0.767 0.82,1.053c0.662,0.495 1.469,0.828 2.096,1.015c3.421,1.016 7.069,0.632 10.488,1.067c1.023,0.13 2.027,0.324 3.006,0.617c0.93,0.279 1.847,0.283 2.757,0.165c1.672,-0.215 3.327,-0.821 5.015,-1.306c0.849,-0.243 2.038,-0.842 3.137,-1.071c0.85,-0.178 1.67,-0.172 2.392,0.042c0.502,0.149 1.19,0.548 1.538,1.514c0.146,0.404 0.292,1.669 0.332,2.045c0.426,1.013 0.712,1.9 1.234,2.679c0.262,0.39 0.604,0.741 1.096,1.071c0.388,0.26 0.841,0.382 1.304,0.483c1.112,0.242 2.291,0.321 3.342,0.582c4.383,1.087 10.458,1.594 15.668,0.322c2.521,-0.615 4.843,-1.648 6.574,-3.32c0.08,-0.225 0.176,-0.426 0.283,-0.597c0.169,-0.272 1.197,-1.433 1.57,-1.732c0.724,-0.581 1.401,-0.574 1.65,-0.561c0.723,0.038 1.252,0.344 1.641,0.792c0.321,0.37 0.723,0.975 0.538,1.962c-0.026,0.141 -0.097,0.528 -0.486,1.106c-0.233,0.346 -0.48,0.679 -0.74,0.999l0.001,0.024l0.02,0.325c0.222,0.115 0.609,0.299 0.792,0.298c4.696,-0.024 9.542,-0.583 14.258,-1.661c4.706,-1.077 9.281,-2.675 13.447,-4.784c4.443,-2.251 9.067,-4.275 13.52,-6.572c1.735,-0.895 3.442,-1.833 5.101,-2.845c0.945,-1.082 2.019,-2.018 2.83,-2.652c0.077,-0.061 1.295,-1.069 1.808,-1.419c1.729,-1.181 3.279,-0.101 3.509,0.11c0.696,0.639 1.637,2.389 -0.012,4.256c-0.806,0.912 -3.012,2.543 -4.234,3.407c-0.221,0.274 -0.42,0.561 -0.572,0.858c-0.022,0.043 -0.049,0.086 -0.076,0.128c0.494,0.027 1.334,0.056 1.884,-0.003c1.363,-0.145 2.69,-0.405 3.523,-0.472c4.874,-0.388 9.14,-1.853 13.081,-3.914c6.328,-3.31 11.835,-8.136 17.582,-12.758c1.828,-1.471 4.819,-2.78 7.066,-4.454c0.573,-0.428 1.093,-0.869 1.429,-1.394l0.129,-0.225c0.039,-0.068 0.064,-0.111 0.07,-0.121c5.698,-9.324 8.571,-3.345 5.412,2.953l-0.107,0.201l-0.009,0.015c-0.055,0.098 -0.526,0.944 -0.69,1.217l-0.723,1.335c-0.15,0.481 0.004,1.272 0.192,2.046c0.054,0.221 0.154,0.485 0.266,0.74c1.108,-0.799 2.242,-1.562 3.395,-2.297c1.154,-0.737 2.328,-1.443 3.514,-2.125c6.102,-3.509 12.465,-6.482 18.646,-9.79c1.504,-0.804 2.997,-1.63 4.472,-2.489c0.543,-0.317 1.162,-0.79 1.827,-1.325c-0.053,-0.427 -0.025,-0.871 0.092,-1.313c0.495,-1.867 2.414,-2.98 4.281,-2.484c0.114,0.031 0.262,0.002 0.343,0.028Z"/><path d="M83.069,163.335c-0.127,0.329 -0.227,0.651 -0.274,0.933c-0.272,1.612 0.327,2.83 1.169,3.584c0.527,0.473 1.166,0.844 1.894,1.104c-0.597,0.599 -1.344,1.397 -1.906,2.152c-0.834,1.121 -1.276,2.274 -1.343,3.073c-0.133,1.588 0.476,2.804 1.819,3.605c0.948,0.565 2.076,0.908 3.325,1.038c-0.628,0.721 -1.196,1.401 -1.692,2.019c-0.216,0.267 -1.439,1.627 -2.356,3.085c-0.738,1.173 -1.256,2.426 -1.378,3.45c-0.222,1.878 0.43,3.388 2.083,4.355c1.034,0.604 2.19,0.986 3.429,1.168l-0.028,0.066c-0.347,0.898 -0.313,1.686 -0.141,2.294c0.253,0.894 0.795,1.638 1.781,2.105c0.203,0.096 0.414,0.181 0.634,0.252c-0.782,1.167 -1.597,2.601 -1.753,3.681c-0.262,1.816 0.381,3.22 1.92,4.07c1.093,0.604 2.316,0.897 3.614,0.914c-0.239,0.674 -0.345,1.295 -0.336,1.733c0.032,1.588 0.869,2.505 2.046,2.924c1.982,0.706 4.637,0.026 7.235,-1.901c0.89,-0.66 1.794,-1.459 2.67,-2.308c-0.382,1.023 -0.746,2.051 -1.087,3.091c-0.839,2.566 -1.533,5.197 -1.969,7.955c-0.1,0.629 -0.752,4.354 -0.511,6.402c0.259,2.209 1.591,3.308 2.802,3.538c0.105,0.02 0.209,0.036 0.312,0.046l-0.882,2.784c-0.269,0.84 -1.006,2.506 -1.066,3.314c-0.066,0.897 0.212,1.57 0.545,2.023c0.142,0.194 0.306,0.383 0.498,0.55c-0.1,0.135 -0.195,0.27 -0.287,0.406c-1.802,2.657 -2.266,5.382 -1.402,7.468c0.392,0.948 1.107,1.715 2.172,2.118c0.134,0.764 0.399,1.381 0.727,1.807c0.311,0.404 0.66,0.701 1.041,0.898c-0.234,1.114 -0.402,2.385 -0.236,3.296c0.238,1.304 0.943,2.198 1.95,2.649c1.252,0.561 2.554,0.617 3.848,0.248c-0.225,1.027 -0.427,2.282 -0.405,3.364c0.028,1.371 0.439,2.524 1.091,3.244c2.014,2.223 4.674,2.143 7.424,0.394c1.477,-0.939 2.998,-2.434 4.341,-3.951c-0.67,1.689 -1.243,3.322 -1.47,4.797c-0.089,0.579 -0.383,3.757 0.072,4.818c0.467,1.086 1.289,1.544 2.176,1.609l0.15,0.008c-0.409,0.929 -0.912,2.169 -1.057,3.11c-0.163,1.062 0.058,1.938 0.442,2.511c0.54,0.81 1.215,1.144 1.883,1.254c0.607,0.099 1.286,0.003 1.975,-0.403c0.512,-0.303 1.104,-0.963 1.674,-1.689l-0.011,0.046c-0.136,0.55 -0.428,2.057 -0.438,3.244c-0.009,1.019 0.24,1.874 0.565,2.361c0.959,1.434 2.329,1.762 3.862,1.307c1.604,-0.476 3.537,-2.336 4.042,-2.842c2.774,-2.785 5.195,-5.872 7.825,-8.78c0.814,-0.901 1.65,-1.784 2.526,-2.632c-0.855,1.381 -1.647,2.579 -1.892,3.094c-0.452,0.951 -1.522,3.302 -1.546,3.893c-0.042,1.023 0.477,1.592 0.924,1.901c0.408,0.282 1.418,0.858 2.716,-0.181c0.419,-0.336 0.825,-0.695 1.218,-1.072l-0.036,0.123c-0.131,0.464 -0.862,2.884 -0.754,4.243c0.11,1.393 0.863,2.22 1.785,2.534c1.371,0.468 3.082,0.156 4.829,-0.81c-0.213,0.663 -0.661,2.182 -0.684,3.149c-0.031,1.286 0.593,2.109 1.203,2.468c1.171,0.689 2.609,0.643 4.067,-0.075c1.867,-0.921 3.846,-3.085 4.505,-3.775c0.891,-0.931 1.727,-1.905 2.515,-2.915l-0.179,0.738c-0.187,0.803 -0.574,2.931 -0.321,4.431c0.244,1.444 1.026,2.44 2.134,2.83c1.133,0.399 2.333,0.188 3.46,-0.528c1.441,-0.914 2.782,-2.843 3.32,-3.52c1.578,-1.988 3.083,-4.034 4.551,-6.108c2.143,-3.026 4.208,-6.112 6.312,-9.158l-2.021,6.713c-0.205,0.818 -1.024,5.67 -0.199,7.998c0.344,0.97 0.925,1.651 1.631,2.039c0.862,0.475 2.068,0.655 3.664,-0.229c2.548,-1.411 4.769,-3.856 6.673,-6.712c-0.065,0.742 -0.073,1.608 0.092,2.3c0.291,1.213 1.019,2.046 2.036,2.392c2.024,0.688 4.166,0.02 6.129,-1.607c2.956,-2.448 5.578,-7.197 6.621,-9.007l1.536,-2.757c-0.008,0.251 -0.003,0.479 0.016,0.677c0.225,2.389 1.71,3.036 3.179,2.726c2.006,-0.422 4.06,-1.72 5.998,-3.52c3.5,-3.251 6.71,-8.18 8.86,-10.802l2.988,-3.837c-0.478,2.57 -1.416,5.339 -1.563,7.115c-0.02,0.245 -0.154,3.237 0.193,4.06c0.356,0.845 0.969,1.233 1.514,1.403c0.561,0.174 1.218,0.189 1.94,-0.251c2.311,-1.407 4.215,-3.849 5.759,-6.817c2.888,-5.552 4.565,-13.024 6.28,-17.368c0.528,-1.334 0.825,-2.108 1.137,-2.801c0.048,-0.107 0.096,-0.211 0.146,-0.316c0.559,-0.8 1.137,-1.59 1.671,-2.406c0.496,-0.758 0.957,-1.537 1.346,-2.358c0.563,-1.187 0.161,-1.928 0.086,-2.093c-0.129,-0.285 -0.809,-1.061 -1.696,-1.292c0.418,-1.417 0.812,-2.835 1.192,-4.246c0.169,-0.627 1.524,-4.058 1.821,-6.2c0.217,-1.56 -0.184,-2.752 -0.688,-3.345c-0.554,-0.652 -1.247,-1.065 -2.048,-1.209c0.032,-0.105 0.063,-0.209 0.092,-0.312c0.664,-2.39 0.318,-4.49 -0.98,-5.806c-1.513,-1.536 -4.056,-1.833 -6.947,-0.892c-1.514,0.493 -3.154,1.306 -4.68,2.178c-0.119,-0.231 -0.26,-0.445 -0.42,-0.64c-1.266,-1.55 -3.574,-2.059 -6.315,-1.373c-1.07,0.267 -2.226,0.708 -3.352,1.212c-0.196,-0.896 -0.636,-1.675 -1.296,-2.283c-0.91,-0.839 -2.436,-1.503 -4.891,-1.302l-0.231,0.037c0.181,-0.814 0.19,-1.563 0.038,-2.183c-0.417,-1.692 -1.941,-3.569 -6.233,-3.003c-2.494,0.33 -4.933,1.112 -7.302,2.139c-0.769,0.333 -1.53,0.692 -2.282,1.068c-0.559,-0.544 -1.329,-0.945 -2.378,-1.124c-3.8,-0.648 -7.799,0.392 -11.648,2.28c-0.73,0.358 -1.455,0.746 -2.172,1.157c-0.143,-0.375 -0.339,-0.733 -0.586,-1.068c-0.771,-1.047 -2.063,-1.725 -3.678,-1.869c-1.901,-0.169 -4.383,0.471 -5.447,0.855c-2.687,0.969 -5.307,2.214 -7.874,3.596l-0.517,0.281c-2.81,-0.522 -5.921,0.058 -9.053,1.362c-1.564,0.651 -3.14,1.488 -4.68,2.414c-0.264,-1.17 -0.987,-1.886 -1.824,-2.291c-1.275,-0.616 -2.762,-0.787 -4.321,-0.579c-2.383,0.319 -5.002,1.624 -6.621,2.45c-2.951,1.506 -5.694,3.305 -8.258,5.338c-1.452,1.152 -2.846,2.379 -4.187,3.67c-0.678,0.173 -1.359,0.43 -2.031,0.759c-2.157,1.056 -4.255,2.927 -5.675,4.198c-1.028,0.92 -2.02,1.879 -2.99,2.86c-0.149,-0.29 -0.327,-0.555 -0.529,-0.797c-0.117,-0.763 -0.555,-1.236 -0.929,-1.521c-0.411,-0.315 -1.438,-1.023 -2.79,-0.147c-0.877,-0.032 -1.87,0.127 -2.787,0.366c1.811,-4.001 3.733,-7.944 5.28,-12.103c0.526,-1.414 -0.078,-2.204 -0.167,-2.352c-0.256,-0.422 -2.7,-2.437 -4.333,-0.017c-0.168,0.25 -0.576,0.988 -0.922,1.612c0.803,-2.127 1.626,-4.245 2.469,-6.354c0.313,-0.784 1.092,-1.673 1.589,-2.525c0.476,-0.816 0.781,-1.626 0.87,-2.346c0.157,-1.27 -0.187,-2.409 -1.239,-3.369c-1.052,-0.959 -2.054,-0.884 -2.857,-0.603c-0.54,0.189 -1.13,0.577 -1.557,1.324c-0.223,0.388 -0.578,1.79 -0.63,1.996l-2.281,5.302c-0.86,2 -1.742,3.983 -2.665,5.946c0.245,-0.88 0.513,-1.748 0.798,-2.608c1.901,-5.726 4.555,-11.104 6.504,-16.907c0.352,-1.047 0.091,-1.704 -0.011,-1.979c-0.431,-1.162 -1.263,-1.681 -2.305,-1.802c-0.422,-0.049 -1.279,-0.078 -2.172,0.674c-0.175,0.147 -0.598,0.68 -0.974,1.144l-0.102,-0.058c-0.696,-0.374 -1.752,-0.572 -2.973,-0.163c-1.178,0.395 -2.898,1.636 -3.177,1.83c-1.75,1.22 -3.408,2.571 -4.919,4.066l-0.232,0.235c-0.903,0.507 -1.849,0.976 -2.794,1.332c-0.387,0.147 -0.772,0.288 -1.147,0.396c0.38,-0.489 0.705,-0.855 0.791,-0.957c1.283,-1.519 2.713,-2.86 4.236,-4.089c2.543,-1.434 4.857,-3.066 6.038,-3.741l2.832,-1.673c0.604,-0.355 2.043,-0.84 2.638,-1.207c0.665,-0.411 1.049,-0.893 1.252,-1.243c0.571,-0.985 0.547,-1.926 0.173,-2.786c-0.204,-0.469 -0.583,-1.146 -1.524,-1.586c0.435,-0.906 0.318,-1.639 0.198,-2.098c-0.318,-1.225 -1.106,-2.311 -2.988,-2.311c-1.893,0.005 -4.032,0.657 -6.182,1.756c-2.639,1.35 -5.346,3.379 -7.574,5.141c-0.955,0.353 -1.932,0.663 -2.899,0.89c-0.939,0.22 -1.866,0.393 -2.722,0.382c0.609,-0.85 1.302,-1.812 1.418,-1.954c2.043,-2.512 5.396,-6.2 9.077,-9.141c1.29,-0.579 2.4,-1.108 3.191,-1.452l4.928,-2.336c0.557,-0.271 1.929,-0.931 2.216,-1.168c0.927,-0.765 1.128,-1.633 1.191,-2.135c0.12,-0.959 -0.132,-1.805 -0.764,-2.534c-0.289,-0.334 -1.031,-1.244 -2.773,-1.128c-3.362,0.223 -7.166,2.09 -10.739,4.772l-0.283,0.216c-1.31,0.579 -2.773,1.178 -4.24,1.642c1.432,-1.245 2.95,-2.48 4.526,-3.632c2.055,-1.502 4.207,-2.864 6.391,-3.91c0.164,-0.079 0.261,-0.135 0.305,-0.161c2.485,-1.458 1.536,-3.828 1.413,-4.136c-0.302,-0.756 -1.059,-2.169 -3.219,-2.102c-0.084,0.003 -0.52,-0.003 -1.158,0.245c-0.2,0.077 -0.896,0.375 -1.174,0.503l-2.973,1.354c-0.922,0.4 -2.697,1.279 -4.612,1.985c0.167,-0.193 0.339,-0.383 0.514,-0.571c0.348,-0.372 0.701,-0.74 1.058,-1.071l0.287,-0.17c0.585,-0.344 2.049,-1.166 2.417,-1.434c0.822,-0.596 1.108,-1.239 1.213,-1.482c0.44,-1.023 0.322,-1.892 0.066,-2.571c-0.262,-0.693 -0.714,-1.321 -1.49,-1.764c0.094,-0.082 0.184,-0.166 0.267,-0.255c0.212,-0.227 0.405,-0.471 0.572,-0.735c1.404,-2.22 0.236,-3.699 -0.275,-4.285c-0.578,-0.662 -1.578,-1.43 -3.224,-1.172c-0.254,0.04 -0.635,0.128 -1.078,0.332c-0.396,0.183 -1.165,0.674 -1.522,0.877l-2.832,1.849c-1.116,0.842 -5.393,4.09 -6.94,6.719c-1.127,1.915 -1.185,3.757 -0.513,5.195c0.444,0.95 1.201,1.735 2.257,2.16Zm133.099,44.118c-1.903,0.299 -3.759,0.935 -5.569,1.728c-1.206,0.529 -2.392,1.127 -3.555,1.757c-0.3,0.973 -0.729,1.871 -1.159,2.482c-1.427,2.027 -3.871,4.308 -6.567,5.618c-2.12,1.03 -4.386,1.463 -6.496,1.001c-1.005,-0.22 -1.571,-0.752 -1.922,-1.289c-0.498,-0.758 -0.741,-1.835 -0.126,-3.081c0.481,-0.973 2.203,-2.555 3.154,-3.178l3.877,-2.329c-1.071,0.34 -2.141,0.799 -3.199,1.324c-2.581,1.279 -5.086,2.973 -7.383,4.633c-1.175,1.498 -2.489,2.904 -3.893,4.216c-1.637,1.531 -3.396,2.936 -5.193,4.215c-0.829,0.59 -2.335,1.804 -3.767,2.391c-1.158,0.475 -2.311,0.601 -3.312,0.359c-1.753,-0.424 -2.234,-1.557 -2.347,-2.585c-0.064,-0.58 0.02,-1.338 0.545,-2.12c0.449,-0.669 1.886,-1.768 2.572,-2.301l7.062,-4.918c1.208,-0.832 2.543,-1.819 3.974,-2.854c0.155,-0.201 0.306,-0.404 0.455,-0.609c0.211,-0.293 0.529,-0.729 0.819,-1.228c-0.727,0.105 -1.553,0.243 -1.873,0.36c-2.42,0.886 -4.776,2.028 -7.085,3.286c-0.276,0.15 -0.551,0.302 -0.826,0.456c-0.317,0.57 -0.801,1.242 -1.412,1.91c-1.454,1.588 -3.62,3.392 -3.689,3.446c-1.677,1.308 -3.425,2.492 -5.23,3.584c-1.774,1.073 -3.601,2.059 -5.468,2.99c-0.366,0.183 -3.027,1.66 -4.816,1.981c-1.287,0.232 -2.372,-0.007 -3.109,-0.45c-0.61,-0.366 -1.002,-0.793 -1.246,-1.24c-1.498,1.52 -3.13,3.027 -4.757,4.201c-2.365,1.706 -4.788,2.714 -6.903,2.709c-0.406,-0.001 -0.758,-0.05 -1.065,-0.133c-1.11,1.139 -2.246,2.048 -3.015,2.461c-0.826,0.442 -3.03,0.991 -4.508,0.697c-1.293,-0.258 -2.252,-0.901 -2.81,-1.861l-0.003,0.004c-0.794,0.828 -1.576,1.669 -2.353,2.514c0.167,0.276 0.293,0.628 0.326,1.074c0.023,0.31 -0.263,1.602 -0.445,2.108c-0.259,0.724 -0.518,1.323 -0.822,1.918c-0.278,0.546 -0.596,1.088 -0.996,1.728c-0.667,1.067 -1.903,3.188 -3.435,5.264c-0.711,1.834 -1.316,3.666 -1.826,5.372c-0.207,0.69 -0.504,3.336 -0.566,3.9c0.255,0.111 0.557,-0.074 0.872,-0.23c0.884,-0.438 1.789,-1.207 2.662,-2.069c2.322,-2.29 4.36,-5.258 5.015,-6.114l2.178,-2.982c0.216,-0.282 0.585,-0.955 0.819,-1.22c0.383,-0.432 0.79,-0.638 1.075,-0.735c0.77,-0.264 1.443,-0.132 2.022,0.245c0.372,0.241 0.913,0.682 1.056,1.681c0.255,1.779 -0.073,3.78 -0.737,5.857c-1.074,3.358 -3.104,6.971 -3.723,9.988c0.119,-0.16 0.237,-0.325 0.354,-0.494c1.752,-2.534 3.181,-5.884 4.04,-7.247l2.2,-3.256c0.241,-0.333 0.784,-1.19 0.956,-1.409c1.581,-2.013 3.573,-0.068 3.771,0.333c0.066,0.134 0.522,0.832 0.004,1.987c-0.227,0.506 -0.464,1.008 -0.71,1.507c0.31,-0.331 0.619,-0.587 0.903,-0.756c1.33,-0.793 2.217,-0.181 2.593,0.116c0.461,0.364 0.952,0.99 0.815,2.034c-0.051,0.396 -0.915,1.924 -1.239,2.567l-1.524,2.987c-1.247,2.646 -2.475,5.378 -3.512,8.166c-0.678,1.825 -1.275,3.674 -1.738,5.539c-0.037,0.148 -0.083,0.488 -0.127,0.874c0.456,-0.352 0.893,-0.698 1.019,-0.825c2.732,-2.729 5.112,-5.763 7.701,-8.614c1.162,-1.28 2.365,-2.525 3.652,-3.696c0.215,-0.196 3.639,-3.228 5.155,-3.865c1.568,-0.658 2.639,0.019 3.125,0.711c0.285,0.406 0.47,1.04 0.46,1.829c0.506,-0.685 1.016,-1.347 1.419,-1.686c0.611,-0.513 1.222,-0.685 1.68,-0.7c0.932,-0.032 2.01,0.284 2.402,1.966c0.216,0.929 0.087,1.828 -0.294,2.698c-0.456,1.04 -1.421,2.036 -2.013,3.01c-1.048,1.727 -2.199,3.479 -3.15,5.31c-0.587,1.13 -1.097,2.291 -1.439,3.5c-0.041,0.143 -0.176,0.758 -0.309,1.375c0.496,-0.257 1.005,-0.599 1.514,-0.983c2.27,-1.711 4.485,-4.194 5.579,-5.164l3.312,-3.027c0.193,-0.188 0.499,-0.691 0.689,-0.888c0.301,-0.314 0.604,-0.479 0.811,-0.563c0.81,-0.329 1.475,-0.144 2,0.229c0.334,0.237 0.889,0.703 0.888,1.767c-0,1.005 -0.378,1.868 -1.026,2.63c-0.666,0.783 -1.808,1.385 -2.45,2.195c-1.051,1.326 -2.065,2.678 -2.967,4.097c-0.861,1.355 -1.621,2.77 -2.208,4.286c0.991,-0.802 1.847,-1.776 2.214,-2.158c1.491,-1.555 2.808,-3.247 4.009,-5.02c1.85,-2.732 3.425,-5.657 4.92,-8.597l1.341,-2.815c0.28,-0.605 0.656,-2.011 0.962,-2.614c0.238,-0.466 0.523,-0.764 0.736,-0.929c0.681,-0.529 1.37,-0.554 1.99,-0.343c0.408,0.139 1.072,0.456 1.403,1.495c0.188,0.589 0.203,1.403 0.009,2.276c-0.275,1.236 -0.973,2.681 -1.064,2.935c-1.08,3.024 -2.274,6.058 -3.319,9.131c-0.678,1.995 -1.293,4.007 -1.768,6.042c-0.059,0.257 -0.116,0.934 -0.158,1.577c0.626,-0.668 1.402,-1.507 1.636,-1.803c1.531,-1.93 2.99,-3.918 4.414,-5.931c2.163,-3.059 4.246,-6.179 6.371,-9.257l4.425,-6.286c0.061,-0.078 1.619,-1.687 2.269,-2.275c1.856,-1.678 3.614,0.833 3.642,1.15c0.091,1.059 -0.075,2.232 -0.41,3.435c-0.595,2.134 -1.755,4.397 -2.317,6.086l-2.409,8.037c-0.109,0.436 -0.226,3.434 -0.276,4.869c1.815,-1.195 3.365,-3.09 4.753,-5.205c2.471,-3.765 4.386,-8.242 5.991,-11.44c0.034,-0.066 1.123,-3.092 2.061,-4.695c0.652,-1.113 1.477,-1.71 1.98,-1.866c0.956,-0.297 1.625,-0.003 2.114,0.401c0.358,0.296 0.679,0.742 0.792,1.39c0.091,0.517 -0.143,1.664 -0.255,2.239l-0.969,3.31c-0.918,2.951 -2.175,5.922 -3.138,8.928c-0.39,1.218 -0.729,2.442 -0.968,3.674c-0.038,0.199 -0.07,0.747 -0.089,1.189c0.161,-0.053 0.321,-0.132 0.481,-0.22c0.621,-0.339 1.219,-0.87 1.797,-1.481c2.155,-2.278 3.939,-5.638 4.73,-7.02l2.754,-4.97l1.942,-4.109c0.104,-0.236 0.859,-2.877 1.738,-4.248c0.582,-0.907 1.314,-1.43 1.932,-1.619c0.999,-0.305 1.704,-0.015 2.224,0.396c0.397,0.315 0.745,0.793 0.882,1.488c0.127,0.644 -0.187,2.074 -0.23,2.812c-0.036,0.632 -0.805,4.893 -1.304,7.605c0.946,-0.684 1.874,-1.591 2.785,-2.57c2.835,-3.047 5.369,-6.923 7.16,-9.118l4.139,-5.338c0.048,-0.057 1.011,-1.086 1.876,-1.736c0.636,-0.477 1.286,-0.752 1.73,-0.826c1.217,-0.203 2.071,0.28 2.587,1.262c0.658,1.255 0.826,2.955 0.607,4.837c-0.185,1.577 -0.649,3.316 -1.05,4.899c0.504,-0.914 0.966,-1.902 1.403,-2.924c0.841,-1.97 1.565,-4.075 2.221,-6.13c-0.75,-0.245 -1.326,-0.753 -1.374,-0.826c-0.071,-0.108 -0.701,-1.002 -0.151,-2.281c0.203,-0.473 1.031,-2.11 1.418,-2.743l0.476,-0.707c0.738,-1.494 1.405,-3.028 2.018,-4.587c1.609,-4.094 2.842,-8.358 3.956,-12.551c0.09,-0.339 0.601,-2.128 1.041,-3.667l-0.043,0.035c-0.24,0.198 -0.479,0.405 -0.714,0.616c-0.383,0.591 -0.707,1.065 -0.914,1.367l-2.089,2.806c-0.62,0.739 -1.705,2.259 -2.46,2.71c-0.711,0.423 -1.403,0.497 -1.997,0.387c-0.699,-0.131 -1.417,-0.492 -1.924,-1.432c-0.305,-0.564 -0.504,-1.443 -0.028,-2.491c0.476,-1.047 2.614,-3.178 2.74,-3.311c0.366,-0.386 1.449,-1.571 2.778,-2.822c0.611,-0.948 1.351,-2.18 1.941,-3.444c0.368,-0.787 0.68,-1.583 0.825,-2.315c0.048,-0.245 0.049,-0.618 0.047,-0.766c-0.198,-0.1 -0.48,0.037 -0.782,0.084c-1.123,0.178 -2.409,0.737 -3.678,1.392c-1.652,0.853 -3.263,1.892 -4.495,2.733c-0.219,0.391 -0.46,0.779 -0.721,1.154c-1.027,1.479 -2.33,2.761 -3.515,3.441c-1.262,0.724 -2.497,0.858 -3.505,0.555c-0.745,-0.225 -1.218,-0.685 -1.507,-1.277c-0.206,-0.424 -0.509,-1.238 0.053,-2.278c0.085,-0.156 0.314,-0.499 0.717,-0.907c0.959,-0.972 3.594,-3.235 3.824,-3.394l0.548,-0.381l0.138,-0.302l0.095,-0.222c-0.112,0.007 -0.223,0.019 -0.319,0.036c-0.831,0.151 -1.75,0.485 -2.665,0.878c-1.692,0.726 -3.357,1.668 -4.523,2.349c-0.884,1.181 -1.946,2.248 -2.999,2.98c-1.762,1.226 -3.578,1.513 -4.894,1.036c-1.654,-0.6 -1.856,-1.763 -1.759,-2.726c0.047,-0.468 0.231,-1.084 0.795,-1.652c0.32,-0.324 1.211,-0.815 1.614,-1.086l3.61,-2.21l0.075,-0.044l0.071,-0.112c0.241,-0.404 0.449,-1.014 0.57,-1.412c-0.215,-0.017 -0.478,-0.026 -0.711,-0.006l-1.52,0.224l-3.813,1.705c-0.365,0.339 -0.707,0.628 -1.006,0.85c-0.044,0.033 -3.167,2.113 -4.435,2.49c-2.098,0.624 -3.204,-0.624 -3.568,-1.588c-0.216,-0.573 -0.4,-2.222 1.286,-3.442c0.939,-0.68 3.177,-1.794 4.452,-2.411c0.697,-0.809 1.519,-1.962 2.112,-2.827Zm-102.066,40.385l-0.191,0.144c-0.998,0.707 -1.929,0.877 -2.503,0.878l-0.033,-0.001c-0.113,0.499 -0.261,1.218 -0.376,1.793c0.164,-0.08 0.328,-0.184 0.493,-0.291c0.819,-0.527 1.605,-1.325 2.345,-2.201l0.265,-0.322Zm34.831,-29.588l-0.606,0.314c-2.565,1.324 -4.946,2.907 -7.172,4.69c-0.397,0.318 -0.789,0.642 -1.176,0.973c0.196,0.356 0.344,0.739 0.437,1.147l0.071,-0.042l5.01,-3.27c1.309,-1.373 2.49,-2.736 3.436,-3.812Z" style="fill-opacity:0.85;"/><g id="Lentes"><path d="M65.537,142.102c1.033,-0.744 3.529,-0.274 4.726,-0.274c3.367,0 7.252,-0.098 10.604,-0.599c13.545,-2.025 27.328,-1.451 41.084,-1.745c5.741,-0.122 14.571,1.441 20.118,-0.545" style="fill:#fff;fill-opacity:0.45;"/><path d="M67.073,145.246c0.348,0.844 2.437,-0.136 3.19,-0.177c2.077,-0.106 4.336,-0.252 6.558,-0.502c1.528,-0.172 3.033,-0.374 4.447,-0.655c5.316,-0.99 10.669,-1.65 16.07,-1.967c3.262,-0.192 6.537,-0.289 9.815,-0.283c4.948,0.009 9.896,0.256 14.85,0.297c3.983,0.108 9.382,1.064 14.225,1.122c2.555,0.031 4.953,-0.234 7.021,-0.847c1.818,-0.651 2.766,-2.656 2.115,-4.475c-0.651,-1.819 -2.656,-2.767 -4.475,-2.115c-1.416,0.597 -3.101,0.949 -4.914,1.116c-4.759,0.439 -10.155,-0.025 -14.077,0.249c-5.479,0.267 -10.956,0.527 -16.431,0.607c-5.555,0.081 -11.093,0.045 -16.617,0.325c-2.801,0.142 -5.592,0.308 -8.384,0.605c-1.599,0.161 -3.314,0.209 -5.033,0.207c-1.769,-0.002 -3.53,-0.081 -5.17,-0.165c-1.077,-0.058 -3.04,-0.394 -4.45,-0.216c-0.924,0.116 -1.69,0.485 -2.322,0.89c-1.568,1.129 -1.923,3.319 -0.794,4.886c1.011,1.403 2.872,1.835 4.376,1.098Z"/><path d="M146.675,134.902c0.676,0 -0.97,0.947 -1.394,1.473c-0.728,0.902 -1.224,2.077 -1.758,3.109c-1.809,3.497 -2.545,7.533 -2.545,11.453c0,11.637 5.362,22.186 14.118,30.05c16.759,15.053 39.217,19.82 60.84,13.524c8.809,-2.565 16.386,-6.103 21.269,-14.343c3.86,-6.512 4.054,-15.141 3.272,-22.413c-1.69,-15.716 -9.649,-31.783 -25.33,-37.958c-11.548,-4.548 -25.14,-2.674 -37.084,-0.982c-10.708,1.517 -17.127,6.645 -25.208,13.035c-1.166,0.921 -7.393,4.215 -7.393,5.562" style="fill:#fff;fill-opacity:0.45;"/><path d="M147.22,131.442c-0.17,-0.024 -0.352,-0.037 -0.545,-0.04c-1.028,0 -1.953,0.444 -2.593,1.151c-0.487,-0.022 -1.212,1.278 -1.499,1.645c-0.317,0.404 -0.611,0.839 -0.875,1.298c-0.45,0.782 -0.828,1.636 -1.219,2.419c-1.015,2.033 -1.736,4.21 -2.177,6.451c-0.426,2.166 -0.612,4.385 -0.581,6.571c0.088,6.334 1.617,12.352 4.355,17.835c2.665,5.34 6.45,10.184 11.144,14.293c8.825,7.743 19.098,12.785 29.975,15.055c10.791,2.251 22.178,1.797 33.33,-1.551c4.593,-1.367 8.854,-3.002 12.61,-5.354c3.859,-2.417 7.2,-5.58 9.811,-10.009c1.67,-2.823 2.707,-6.011 3.296,-9.326c0.848,-4.771 0.758,-9.81 0.286,-14.347c-0.823,-8.198 -3.313,-16.487 -7.599,-23.559c-4.362,-7.198 -10.596,-13.128 -18.882,-16.487c-4.887,-1.992 -10.135,-2.89 -15.487,-3.15c-7.694,-0.372 -15.609,0.614 -22.922,1.553c-4.551,0.581 -8.391,1.789 -11.918,3.432c-5.258,2.45 -9.789,5.925 -14.957,9.894c-0.53,0.406 -2.012,1.264 -3.553,2.226Zm-0.435,9.21l-0.228,0.401c-0.788,1.471 -1.356,3.057 -1.727,4.693c-0.386,1.706 -0.58,3.459 -0.605,5.191c-0.075,5.371 1.083,10.509 3.281,15.219c2.21,4.737 5.437,9.05 9.457,12.753c7.958,7.317 17.303,12.205 27.276,14.495c10.018,2.299 20.648,1.998 31.098,-0.951c4.226,-1.203 8.168,-2.62 11.629,-4.749c3.34,-2.053 6.223,-4.772 8.488,-8.573c1.786,-3.012 2.713,-6.518 3.108,-10.109c0.411,-3.73 0.242,-7.552 -0.146,-11.046c-0.867,-7.553 -3.228,-15.187 -7.294,-21.644c-3.95,-6.273 -9.529,-11.413 -16.885,-14.225c-4.393,-1.67 -9.088,-2.339 -13.859,-2.452c-7.374,-0.173 -14.924,1.004 -21.901,2.085c-3.851,0.6 -7.085,1.709 -10.04,3.187c-4.785,2.394 -8.839,5.762 -13.5,9.556c-0.885,0.722 -4.834,5.649 -6.384,4.57c-0.382,0.719 -1.008,1.289 -1.768,1.599Z"/><path d="M229.812,137.249c-1.099,-0.197 2.85,-2.238 3.272,-2.401c2.474,-0.958 5.181,-1.773 7.816,-2.127c5.04,-0.677 11.229,-0.644 16.241,0.219c1.727,0.298 3.114,0.503 4.726,1.145c0.406,0.162 2.485,1.19 2.485,0.872" style="fill:#fff;fill-opacity:0.45;"/><path d="M232.665,139.276c0.603,-0.355 1.351,-1.55 1.503,-1.629c1.116,-0.566 2.257,-1.134 3.462,-1.591c1.179,-0.447 2.373,-0.825 3.573,-1.084c1.229,-0.231 2.524,-0.463 3.868,-0.572c1.289,-0.105 2.615,-0.146 3.935,-0.081c2.686,0.13 5.317,0.659 7.683,1.248c0.803,0.225 1.514,0.427 2.221,0.663c0.602,0.201 1.157,0.482 1.779,0.812c0.383,0.207 2.04,1.124 2.719,1.352c1.299,0.437 2.242,-0.185 2.753,-0.419c1.165,-0.532 1.517,-1.647 1.691,-3.018c0,-1.741 -1.274,-3.187 -2.94,-3.455c-0.203,-0.415 -1.629,-0.309 -1.866,-0.373c-0.817,-0.227 -1.559,-0.415 -2.318,-0.519c-1.012,-0.14 -1.995,-0.22 -3.134,-0.296c-2.155,-0.198 -4.476,-0.21 -6.853,-0.169c-1.347,0.022 -2.703,0.07 -4.046,0.098c-2.11,0.044 -4.178,0.05 -6.097,0.228c-1.446,0.078 -2.902,0.319 -4.365,0.59c-1.446,0.267 -2.856,0.608 -4.233,0.988c-0.337,0.089 -2.385,0.935 -3.637,1.62c-0.714,0.391 -1.158,0.909 -1.45,1.224c-1.142,1.231 -0.768,2.573 -0.527,3.5c0.232,0.896 1.032,1.767 2.81,2.301c1.376,0.246 2.709,-0.349 3.469,-1.418Zm28.19,-4.439c-0.007,0.037 -0.008,0.077 -0.003,0.12l0.003,-0.12Zm-29.445,-0.703c-0.257,-0.17 -0.572,-0.305 -0.981,-0.331c0.351,0.063 0.68,0.176 0.981,0.331Z"/><path d="M259.624,134.631c-3.847,-0 -5.043,4.166 -6.785,6.708c-5.75,8.392 -5.934,20.462 -0.909,29.066c12.797,21.91 46.718,27.928 67.382,15.053c6.239,-3.887 10.255,-10.292 14.421,-16.087c2.193,-3.05 6.815,-4.889 8,-8.564c1.924,-5.963 -0.849,-13.7 -2.848,-19.25c-1.342,-3.725 -2.173,-8.14 -4.425,-11.454c-3.108,-4.575 -7.046,-9.986 -12.058,-12.598c-11.966,-6.236 -26.967,-0.101 -38.417,4.091c-6.864,2.513 -14.11,5.974 -20.3,9.872c-0.715,0.45 -5.515,2.372 -5.515,3" style="fill:#fff;fill-opacity:0.45;"/><path d="M255.339,132.392c-0.215,0.139 -0.423,0.288 -0.623,0.447c-2.049,1.623 -3.255,4.525 -4.636,6.61c-3.14,4.737 -4.764,10.456 -4.843,16.203c-0.078,5.725 1.329,11.464 4.193,16.213c6.909,11.49 19.268,18.795 32.675,21.455c13.283,2.634 27.552,0.744 38.313,-6.087c2.654,-1.67 4.932,-3.761 6.99,-6.071c2.944,-3.307 5.432,-7.067 7.967,-10.611c1.467,-2.032 4.078,-3.477 5.916,-5.361c1.074,-1.1 1.928,-2.323 2.396,-3.752c0.886,-2.695 0.936,-5.716 0.513,-8.774c-0.577,-4.171 -2.046,-8.415 -3.253,-11.85c-0.924,-2.634 -1.602,-5.601 -2.681,-8.302c-0.524,-1.311 -1.141,-2.562 -1.899,-3.704c-1.898,-2.861 -4.112,-6.025 -6.68,-8.709c-1.853,-1.937 -3.899,-3.615 -6.13,-4.81c-5.243,-2.819 -11.048,-3.463 -16.942,-2.923c-8.212,0.752 -16.604,3.892 -23.678,6.367c-3.547,1.239 -7.191,2.726 -10.756,4.385c-3.582,1.666 -7.077,3.514 -10.305,5.476c-0.609,0.37 -4.042,1.729 -5.276,2.556c-0.571,0.382 -0.977,0.812 -1.261,1.242Zm7.205,4.167c-0.626,0.947 -1.7,1.572 -2.92,1.572c-0.678,-0.011 -1.066,0.454 -1.425,0.928c-0.994,1.313 -1.731,2.942 -2.601,4.171c-2.576,3.637 -3.951,8.095 -4.145,12.598c-0.198,4.595 0.784,9.24 2.977,13.117c5.881,10.37 16.795,17.041 28.663,19.657c12.087,2.664 25.175,1.159 35.113,-4.919c2.332,-1.438 4.332,-3.256 6.144,-5.263c2.868,-3.178 5.274,-6.815 7.742,-10.229c1.566,-2.188 4.313,-3.803 6.274,-5.838c0.622,-0.645 1.147,-1.341 1.413,-2.176c0.673,-2.128 0.636,-4.509 0.271,-6.911c-0.589,-3.872 -2.054,-7.789 -3.228,-10.966c-0.819,-2.217 -1.454,-4.683 -2.324,-7.009c-0.519,-1.388 -1.13,-2.721 -1.944,-3.892c-1.81,-2.603 -3.902,-5.49 -6.327,-7.915c-1.519,-1.518 -3.172,-2.846 -4.98,-3.763c-4.39,-2.216 -9.21,-2.556 -14.065,-1.977c-7.729,0.922 -15.541,4.187 -22.149,6.715c-3.319,1.271 -6.726,2.777 -10.05,4.449c-3.306,1.663 -6.524,3.5 -9.489,5.433c-0.334,0.218 -1.712,1.472 -2.95,2.218Z"/></g></g></svg>