<svg viewBox="0 0 1442 1897" xmlns="http://www.w3.org/2000/svg" xml:space="preserve" style="fill-rule:evenodd;clip-rule:evenodd;stroke-linejoin:round;stroke-miterlimit:2"><path d="M577.668 1308.87c.036-.134-7.816 11.942-11.338 16.172-8.724 10.478-16.09 25.721-17.2 39.404-3.669 45.252-9.148 89.993-11.724 135.436-6.379 112.505-1.228 195.409 36.744 298.648 6.185 16.813 17.549 61.642-8.992 64.025-25.007 2.245-42.782-12.315-64.485-21.104-15.679-6.349-43.47-5.659-56.29-17.236-16.155-14.59-19.053-57.377-26.579-77.043-41.317-107.961-22.102-252.084 37.131-350.719 16.465-27.418 41.111-54.791 73.877-60.859 21.751-4.028 30.006 29.525 36.745 21.467" style="fill:#fff"/><path d="M548.582 1325.4c-6.375-3.523-13.756-5.21-22.306-3.501-15.235 3.035-28.967 9.875-41.074 19.244-16.858 13.046-30.64 30.87-41.1 48.803-29.771 50.943-49.185 113.362-55.8 176.872-6.625 63.6-.509 128.275 21.185 183.536 5.139 13.204 8.223 36.948 14.67 55.394 3.636 10.401 8.389 19.25 14.539 24.763 4.929 4.436 11.594 7.532 19.113 9.733 13.119 3.841 29.184 4.8 39.685 9.057 13.203 5.379 24.969 12.85 37.761 17.466 9.454 3.412 19.419 5.367 30.675 4.389 12.922-1.088 19.958-8.838 23.079-19.851 4.765-16.816-1.846-43.378-6.373-55.897-18.427-51.432-28.737-97.687-33.373-145.131-4.571-46.773-3.596-94.668.146-149.716.924-13.482 2.102-26.896 3.423-40.281 2.883-29.194 6.418-58.229 9.283-87.464a18.5 18.5 0 0 0 3.768-.151c3.62-.505 7.38-2.211 10.861-6.25 5.163-6.175 4.342-15.379-1.832-20.543a14.453 14.453 0 0 0-4.148-2.433c1.989-3.37 4.23-6.501 6.57-9.236 2.983-3.487 8.818-11.94 11.346-15.627l.436-.671a14.507 14.507 0 0 0 2.618-5.189c.119-.46-17.27-25.758-27.282-10.281-2.043 3.158-6.695 10.444-9.126 13.444a92.634 92.634 0 0 0-6.744 9.521Zm-11.315 26.526c-.271-.244-.548-.48-.832-.707-1.41-1.13-2.972-2.293-5.087-1.932-13.977 2.395-26.239 9.437-36.833 18.699-11.437 10-21.021 22.472-28.746 34.971-29.337 47.557-49.177 106.239-56.674 166.243-7.536 60.312-2.691 121.915 17.026 174.788 5.046 13.413 7.911 37.459 14.256 56.176 2.492 7.35 5.39 13.837 9.693 17.753 3.187 2.887 7.627 4.665 12.501 6.099 13.654 4.017 30.346 5.159 41.281 9.583 13.001 5.233 24.576 12.579 37.173 17.054 7.21 2.562 14.795 4.093 23.36 3.299 6.61-.63 8.161-6.483 8.624-12.914.972-13.496-4.062-30.615-7.344-39.388-19.905-52.743-31.173-100.312-36.918-149.165-5.622-47.798-5.909-96.84-3.345-153.285.617-13.74 1.509-27.417 2.516-41.069 2.334-31.624 5.362-63.088 7.519-94.796.253-3.732.883-7.564 1.83-11.409Z"/><path d="M341.752 1186.34c-9.804 3.293 22.501-23.406 27.752-27.088 22.906-16.057 53.417-34.679 79.738-43.622 26.091-8.865 47.45-27.797 76.608-30.254 55.402-4.669 115.328 43.012 141.093 89.711 6.641 12.036-29.02 28.553-34.787 34.472-39.363 40.404-81.709 78.391-118.429 121.354-18.798 21.995-40.915 43.134-55.504 68.244-4.76 8.194-7.633 17.676-11.325 26.386-.709 1.672-4.69 13.299-4.69 10.202" style="fill:#fff"/><path d="M354.324 1193.72c6.636-1.122 19.828-21.006 22.985-23.33 10.93-8.038 23.649-16.771 36.847-24.61 12.98-7.709 26.364-14.616 38.827-19.139 18.446-6.676 34.422-18.327 52.549-25.686 6.633-2.693 13.578-4.784 21.163-5.555 25.74-2.515 52.685 7.339 76.172 23.164 23.511 15.841 43.566 37.662 55.964 59.357-2.833-.054-4.674 6.123-8.647 9.03-9.524 6.97-21.159 13.25-24.343 16.458-27.995 27.883-57.358 54.615-85.39 82.6-12.177 12.156-24.119 24.517-35.547 37.366-11.593 12.967-24.358 25.595-36.012 38.985-8.272 9.504-15.942 19.408-22.405 29.981-1.759 2.866-3.292 5.885-4.74 8.967-2.879 6.127-5.24 12.589-7.995 18.666-.434.958-5.336 6.49-4.075 8.319a14.481 14.481 0 0 0-2.053 7.455c.277 10.641 7.243 13.412 9.875 14.261 2.899.936 6.072 1.313 9.486.079 1.72-.621 5.609-2.037 8.31-6.863 1.271-2.272 4.148-10.589 4.748-12.107 2.408-6.094 4.397-12.552 6.928-18.7.907-2.204 1.856-4.376 2.989-6.439 5.277-9.568 11.68-18.567 18.593-27.264 10.966-13.797 23.073-26.883 33.997-40.257 14.186-17.265 29.22-33.796 44.701-49.941 23.513-24.52 47.937-48.201 71.221-72.802 4.401-4.592 25.858-15.648 33.467-25.951 4.77-6.459 5.624-12.959 2.404-18.757-13.283-24.361-35.47-48.918-61.409-67.094-26.932-18.871-57.972-30.678-87.928-28.555-9.618.645-18.494 2.934-27.002 6.028-18.047 6.563-34.15 17.405-52.502 23.239-11.309 3.585-23.357 8.855-35.346 14.905-17.201 8.682-34.215 19.074-48.458 28.591-4.526 3.019-26.77 20.752-32.171 27.319-9.888 12.023-.624 21.592 3.973 24.073 2.002 1.081 6.214 2.723 12.896.654a14.502 14.502 0 0 0 7.928-6.447Zm101.613 237.109c.554 1.537.854 3.193.854 4.919.054-2.053-.334-3.662-.854-4.919Zm-116.02-258.954c-.863.076-1.798.277-2.809.643.93-.312 1.87-.525 2.809-.643Z"/><path d="M134.828 1449.6c-14.16-1.907-31.046-5.361-40.332-8.073-7.405-2.164-22.504-4.314-20.017-11.617 5.995-17.599 33.679-65.132 55.983-93.979 24.22-31.327 64.227-68.161 89.341-93.984 20.099-20.665 42.662-46.119 61.347-60.956 15.141-12.023 36.911-21.885 50.761-28.063 10.22-4.559 22.963-10.812 32.342-9.006 2.21.426 4.636 1.181 7.072 2.223 10.95 1.701 22.342 6.864 32.67 10.308 18.394 6.135 41.108 15.606 58.736 28.323 18.394 13.271 42.229 37.834 51.631 51.3 5.703 8.167 4.49 19.541 4.786 29.498.411 13.814-6.5 45.271-2.319 53.386 4.182 8.115 18.844-1.15 27.408-4.696 8.774-3.633 17.043-14.165 25.238-17.102 7.509-2.691 23.444-5.328 23.927-.52.484 4.808-13.955 19.623-21.026 29.368-7.686 10.595-17.296 22.404-25.093 34.198-8.63 13.053-20.647 28.028-26.686 44.12-8.606 22.929-20.109 61.58-24.946 93.459-5.245 34.568-5.244 75.927-6.526 113.951-1.691 50.188-3.962 145.584-3.624 187.179.17 20.881 25.273 55.232 5.656 62.391-35.291 12.879-163.5 14.403-217.403 14.881-35.564.316-70.534-9.598-106.017-12.011-39.352-2.676-104.616 4.2-130.093-4.045-16.115-5.215-24.795-28.609-22.771-45.425 3.263-27.106 30.151-77.5 42.348-117.212 16.243-52.886 36.79-149.436 55.112-200.104 5.999-16.589 13.903-32.347 22.495-47.792Z" style="fill:#ffd78b"/><path d="M524.941 1311.94c-.072-2.142.325-5.014.572-8.215.995-12.884 3.817-29.369 3.593-38.447-.183-7.533.28-15.794-1.375-23.143-.96-4.264-2.581-8.259-5.064-11.858-5.184-7.511-14.569-18.328-25.131-28.911-9.352-9.37-19.631-18.55-28.645-25.128-9.083-6.629-19.451-12.447-29.95-17.439-10.795-5.133-21.729-9.376-31.492-12.702-7.292-2.485-15.107-5.81-22.931-8.211-3.662-1.124-7.331-2.047-10.958-2.664.027.004-7.191-2.289-7.191-2.289-4.464-.89-9.466-.643-14.694.485-8.064 1.74-16.879 5.784-24.414 9.086-8.849 3.878-20.818 9.202-32.38 15.593-7.487 4.139-14.788 8.738-21.067 13.656-6.413 5.025-13.269 11.225-20.328 18.05-13.999 13.536-28.843 29.618-42.546 43.524-17.702 17.954-42.701 41.244-64.536 64.289-9.723 10.263-18.823 20.487-26.445 30.195-12.362 15.747-26.345 36.966-37.644 56.061-10.182 17.209-18.141 32.81-21.172 41.496-2.635 7.553-.692 13.796 4.289 19.028 2.358 2.476 5.914 4.741 10.215 6.459 4.757 1.901 10.835 3.172 14.846 4.376 5.311 1.594 12.968 3.437 21.256 5.131l.931.189a352.724 352.724 0 0 0-3.027 6.293c-3.941 8.408-7.546 16.96-10.64 25.731-5.827 16.519-11.861 37.793-17.89 60.867-12.59 48.184-25.209 104.362-35.98 140.345-8.898 29.724-26.006 65.485-35.274 92.899-3.41 10.087-5.814 19.163-6.657 26.619-1.375 12.148 1.682 27.071 8.544 38.591 5.44 9.131 13.146 16.135 22.385 19.061 7.15 2.265 17.079 3.578 28.663 4.121 30.911 1.45 74.792-2.173 104.216-.356 24.64 1.536 49.048 6.728 73.573 9.532 11.052 1.264 22.125 2.069 33.249 1.912 35.05-.482 101.378-1.587 153.393-5.818 29.257-2.379 54.11-5.848 66.999-10.608 8.933-3.299 12.753-9.661 13.274-18.08.417-6.732-1.938-15.422-5.157-24.505-3.462-9.765-8.037-20.125-8.136-28.309-.187-17.682.048-45.117.556-74.652.685-39.806 1.849-83.416 2.798-112.171.778-22.308 1.114-45.767 2.332-68.321.84-15.544 2.099-30.652 4.237-44.627 2.272-14.738 6.008-30.95 10.212-46.321 4.717-17.245 10.03-33.433 14.532-45.317 2.196-5.798 5.264-11.421 8.632-16.854 5.614-9.053 12.07-17.576 17.282-25.407l24.991-33.789c5.047-6.892 13.765-16.305 18.349-22.972 3.611-5.253 4.795-10.017 4.536-12.705-.478-4.977-4.158-9.778-12.033-10.847-6.486-.88-17.938 1.158-24.346 3.423-2.486.878-4.996 2.229-7.502 3.904-5.957 3.982-11.882 10.648-18.213 13.236-3.157 1.291-7.136 3.341-11.121 5.034-1.3.553-3.097 1.093-4.516 1.48Zm52.762-7.101c-4.243 5.276-9.382 11.127-12.737 15.795l-25.197 34.607c-5.26 8.009-11.77 16.739-17.432 25.995-3.938 6.438-7.475 13.122-10.025 19.983-4.584 12.328-9.976 29.115-14.76 46.99-4.29 16.03-8.095 32.931-10.388 48.29-2.183 14.503-3.466 30.177-4.299 46.303-1.17 22.664-1.454 46.236-2.183 68.652-.992 28.818-2.15 72.526-2.965 112.419-.606 29.717-1.031 57.322-.93 75.114.058 13.588 10.093 32.817 12.566 46.932.54 3.085 1.52 5.949-1.273 6.957-15.097 5.443-47.69 8.501-83.88 10.423-47.239 2.508-100.479 2.798-130.535 2.913-10.265.037-20.473-.827-30.657-2.105-24.855-3.117-49.569-8.632-74.554-10.473-25.655-1.904-62.288.141-91.855-.473-14.575-.303-27.278-1.151-35.452-3.853-5.313-1.757-8.874-7.015-11.371-12.755-2.849-6.55-4.05-14.107-3.241-20.441.775-6.079 2.968-13.43 5.87-21.628 9.748-27.537 27.485-63.404 36.894-93.278 11.352-36.041 24.839-92.374 38.232-140.652 6.139-22.131 12.261-42.527 18.122-58.345 2.903-7.835 6.27-15.463 9.93-22.96 3.73-7.641 7.782-15.136 11.989-22.56a14.582 14.582 0 0 0-10.797-21.542c-6.253-.795-13.063-1.894-19.459-3.102-7.331-1.384-14.113-2.886-18.817-4.222l-7.168-2.013c4.472-9.802 11.818-23.319 20.182-37.356 9.302-15.612 19.873-31.824 29.451-44.403 9.255-12.157 20.921-25.173 33.146-38.03 19.097-20.086 39.524-39.786 54.557-55.454 13.391-13.951 27.878-30.079 41.568-43.668 6.336-6.289 12.479-12.025 18.25-16.67 5.288-4.256 11.471-8.22 17.795-11.826 10.799-6.155 22.004-11.293 30.281-15.05 5.404-2.453 11.548-5.478 17.465-7.269 2.9-.878 5.67-1.626 8.111-1.172l4.807 1.478c.855.366 1.752.623 2.671.766 3.81.566 7.683 1.626 11.537 2.868 6.628 2.135 13.201 4.767 19.389 6.786 9.081 2.964 19.264 6.748 29.319 11.384 9.35 4.31 18.603 9.339 26.711 15.121 8.309 5.926 17.777 14.247 26.423 22.723 9.653 9.464 18.303 19.098 23.064 25.837 1.441 2.04 2.07 4.45 2.449 6.959.836 5.542.488 11.524.683 17.037.349 10.034-3.208 29.512-3.436 42.294-.12 6.737.838 12.138 2.453 15.237 2.72 5.222 7.003 7.806 12.404 8.36 7.525.773 19.604-5.44 27.285-8.66 2.373-.995 4.732-2.341 7.051-3.937 6.146-4.23 11.834-10.991 17.709-13.126 1.205-.438 3.046-.848 5.047-1.2Z"/><path d="M129.486 1414.4c-3.971 0-12.41 13.467-14.946 16.58-18.534 22.751-24.474 53.894-32.31 81.306-15.072 52.726-35.703 102.299-41.002 157.917-3.708 38.911 2.381 77.663 3.471 116.324.459 16.302-8.393 81.924 15.988 91.31 10.105 3.89 21.102 3.311 31.622 4.061 77.737 5.54 62.895-49.735 71.571-112.262 7.523-54.207 17.11-111.37 34.395-163.225 14.169-42.508 37.783-78.336 53.509-119.461 3.2-8.368 18.964-39.713 10.079-39.713" style="fill:#fff"/><path d="M249.229 1454.51c-.459 1.831-1.058 4.029-1.668 5.747-3.037 8.554-7.22 17.771-8.664 21.762-10.473 28.799-24.858 55.051-37.108 82.813-5.406 12.25-10.429 24.768-14.568 37.892-6.755 21.286-12.234 43.415-16.84 65.862-6.804 33.156-11.715 66.983-15.846 99.751-4.668 35.886-.562 69.363-12.981 89.425-7.481 12.085-21.796 17.551-48.645 15.719-6.19-.458-12.551-.435-18.786-1.185-3.527-.425-7.014-1.112-10.374-2.416-2.737-1.062-4.515-3.559-5.994-6.598-2.573-5.293-3.917-12.198-4.68-19.616-2.253-21.909.893-47.974.694-57.397-.488-27.064-3.459-54.193-3.733-81.368-.114-11.236.272-22.474 1.485-33.719 2.348-21.499 7.072-42.023 12.858-62.172 8.986-31.296 20.537-61.67 30.073-93.233 4.85-15.947 9.033-33.212 15.596-49.201 3.951-9.625 8.842-18.735 15.5-26.631 1.687-2.001 13.106-8.636 10.431-12.491 4.795-2.387 8.091-7.34 8.091-13.056 0-8.049-6.535-14.583-14.584-14.583-3.536.061-8.965 1.553-13.861 6.427-4.469 4.449-10.074 13.203-12.093 15.768-8.175 10.39-14.181 22.18-18.819 34.664-6.316 16.997-10.181 35.223-14.704 52.116-8.607 31.913-19.225 62.707-27.327 94.327-5.503 21.475-9.892 43.308-11.747 66.103-.998 12.06-1.095 24.09-.701 36.105.893 27.222 4.354 54.348 5.394 81.456.394 11.193-3.166 45.164 1.866 69.123 3.105 14.782 9.788 25.936 20.131 29.885 4.711 1.799 9.578 2.801 14.516 3.368 6.498.746 13.12.712 19.568 1.154 35.999 2.674 54.241-7.291 64.462-23.384 13.649-21.49 11.358-57.367 17.055-95.996 4.87-32.142 10.457-65.324 18.031-97.768 5.027-21.535 10.961-42.724 18.071-63.07 4.268-12.142 9.356-23.685 14.784-34.972 13.42-27.905 28.913-54.226 40.56-83.245 1.866-4.629 7.64-16.179 11.062-25.74 2.535-7.082 3.542-13.566 3.183-17.587-.495-5.538-3.092-9.33-6.074-11.931-2.747-2.396-6.329-3.879-10.98-3.967-8.049 0-14.584 6.535-14.584 14.584 0 2.649.709 5.135 1.95 7.275Zm10.79 7.188c.584.09 1.197.132 1.844.12-.625 0-1.24-.039-1.844-.12Z"/><path d="M318.273 1160.14c-3.426 2.453-8.352 3.604-12.211 6.041-20.004 12.634-39.899 27.321-58.604 41.869-12.335 9.595-21.138 23.173-32.358 33.843-19.901 18.923-42.431 36.747-60.069 57.912-12.733 15.28-23.919 32.448-34.797 49.119-13.095 20.068-22.416 39.459-30.282 62.085-1.439 4.141-9.207 15.738-6.472 20.661 5.436 9.784 26.546 13.16 35.776 16.153 18.902 6.129 37.04 14.885 55.798 20.876 14.745 4.709 29.973 7.602 44.444 13.189 10.681 4.123 20.01 8.899 31.623 8.899 3.716 0 8.799.906 11.72-1.978 4.931-4.871 6.895-13.883 9.401-20.11 3.697-9.186 9.11-17.603 12.332-27.14 8.119-24.036 21.713-45.122 33.819-66.922 5.989-10.784 17.869-25.967 28.085-32.856 3.79-2.557 18.056-11.78 14.529-9.67" style="fill:#ffd78b"/><path d="M351.201 1321.31c-3.524 2.464-10.214 7.048-12.62 8.757-4.916 3.493-10.227 8.532-15.143 14.299-6.623 7.773-12.717 16.701-16.507 23.901-7.058 13.398-14.658 26.538-21.268 40.209-4.589 9.491-8.742 19.205-11.943 29.411l-11.572 26.744c-1.387 3.645-2.547 8.252-4.269 12.406-.403.971-.789 1.938-1.273 2.797-1.166-.684-3.974.685-5.485.71-3.652.059-7.029-.466-10.305-1.34-5.972-1.593-11.663-4.105-17.825-6.369-4.611-1.694-9.286-3.138-13.997-4.456-10.356-2.896-20.879-5.167-31.184-8.314l-55.936-20.32c-5.303-1.706-14.638-3.472-22.482-6.652-3.149-1.276-6.159-2.564-7.831-4.588.332-1.053 1.107-3.428 1.801-4.912 1.854-3.963 3.964-7.724 4.685-9.775 3.904-10.946 8.146-21.109 13.041-30.947 4.88-9.807 10.425-19.278 16.861-28.917 6.585-9.795 13.273-19.767 20.349-29.393 4.634-6.305 9.448-12.445 14.486-18.3 6.947-8.053 14.649-15.563 22.64-22.827 12.428-11.297 25.545-21.974 37.716-33.091 8.152-7.441 15.135-16.34 22.961-24.283 2.853-2.896 5.852-5.622 9.107-8.05 9.388-6.967 19.066-13.951 28.904-20.704 9.747-6.69 19.652-13.119 29.568-19.067 2.733-1.639 6.085-2.435 8.87-3.78 1.505-.727 2.9-1.573 4.213-2.467 6.544-4.686 8.052-13.803 3.367-20.347-4.686-6.545-13.804-8.053-20.348-3.367l-11.339 5.835c-10.096 6.707-20.155 13.918-30.041 21.389-9.776 7.389-19.386 14.996-28.694 22.579-4.14 3.357-7.946 7.073-11.533 11.024-7.226 7.958-13.557 16.841-21.116 24.327-13.686 13.537-28.644 26.571-42.341 40.533-6.126 6.244-12.024 12.646-17.44 19.374-5.162 6.398-10.066 13.099-14.798 19.952-6.935 10.046-13.511 20.404-19.962 30.594-6.653 10.435-12.328 20.684-17.344 31.251-5 10.534-9.361 21.373-13.317 33.054-1.179 3.431-6.173 11.69-7.176 17.705-.646 3.872-.088 7.275 1.379 9.893 2.482 4.429 7.007 8.178 12.74 11.034 8.994 4.48 21.273 6.93 27.838 9.069l55.66 21.432c10.344 3.449 20.939 5.988 31.328 9.222 4.176 1.301 8.308 2.737 12.38 4.386 6.67 2.701 12.841 5.595 19.328 7.554 4.995 1.509 10.167 2.444 15.787 2.536 3.357.055 7.551.399 11.103-.443 3.013-.715 5.68-2.172 7.96-4.339 2.331-2.215 4.256-5.024 5.91-8.132 2.61-4.905 4.32-10.826 6.243-15.35 2.647-6.229 6.136-12.056 9.113-18.177 1.477-3.038 2.822-6.145 3.978-9.359 3.249-8.967 7.35-17.447 11.81-25.721 7.073-13.122 15.115-25.669 22.618-38.502 2.752-4.707 6.874-10.312 11.409-15.519 4.214-4.837 8.847-9.269 13.109-11.995 2.817-1.801 11.324-7.032 14.282-8.912.772-.491 1.3-.867 1.542-1.038 10.661-7.547 13.459-40.923-16.675-23.945a14.553 14.553 0 0 0-2.322 1.721ZM1034.57 196.432c0-22.422 50.297-31.004 64.319-34.324 18.273-4.327 36.539-6.414 55.024-9.564 41.861-7.134 103.501-23.739 136.605 15.196 9.361 11.011 14.176 48.643 8.349 61.479-6.237 13.737-17.87 22.734-25.236 35.345-6.382 10.927 11.241 13.553 6.261 25.101-9.675 22.43-43.98 23.934-63.749 26.467-6.474.83-21.049 4.552-27.7 1.538-15.045-6.817-30.764-36.11-42.691-47.473-26.281-25.038-59.449-39.175-87.084-61.303-6.905-5.529-10.233-14.945-15.373-19.462"/><path d="M1040.7 209.661c1.134 1.7 2.353 3.393 3.746 4.93 1.695 1.87 3.489 3.651 5.507 5.183 20.054 15.289 42.728 26.561 63.916 40.474 8.348 5.481 16.462 11.366 23.997 18.221 8.03 7.345 17.866 22.693 28.001 33.816 6.093 6.688 12.356 12.038 18.38 14.636 3.307 1.43 7.793 2.132 12.762 1.896 7.199-.342 15.742-2.417 20.359-3.09 12.356-1.765 30.102-3.343 44.551-9.227 11.605-4.725 21.219-12.056 25.942-23.397 1.683-3.988 1.876-7.424 1.286-10.48-.708-3.664-2.618-6.855-5.05-9.749-.687-.817-1.407-1.614-2.09-2.417-.447-.525-1.535-.78-1.055-1.615 5.026-8.616 12.138-15.471 18.015-23.426 2.895-3.919 5.534-8.064 7.65-12.677 3.4-7.376 4.17-21.903 2.375-36.193-1.801-14.33-6.263-28.231-11.608-34.647-14.76-17.86-34.823-25.69-56.662-28.201-29.677-3.412-62.875 3.61-88.746 7.504-13.041 1.934-25.953 3.35-38.858 5.38-5.723.9-11.436 1.933-17.161 3.159-10.244 2.165-38.148 6.888-55.561 16.854-12.795 7.323-20.121 17.869-20.413 29.837 0 8.049 6.535 14.583 14.583 14.583 2.191 0 4.27-.484 6.134-1.354Zm19.392-22.006c2.016 3.553 3.998 7.587 7.283 10.36 18.788 15.79 40.354 27.728 60.318 42.218 9.069 6.582 17.844 13.618 25.936 21.691 8.1 8.038 17.879 24.441 28.047 36.507 3.678 4.365 7.217 8.211 10.955 9.988 1.469.696 3.698.456 6.03.298 6.022-.408 12.516-1.766 16.248-2.179 11.175-1.268 27.255-1.937 40.414-6.885 7.166-2.694 13.533-6.573 16.592-13.427.317-.72-.12-1.186-.459-1.642-.853-1.148-1.843-2.228-2.742-3.328-2.603-3.185-4.522-6.586-4.917-10.433-.317-3.081.158-6.562 2.505-10.537 5.342-9.134 12.826-16.449 19.032-24.908 2.194-2.99 4.191-6.155 5.775-9.679 2.454-5.491 2.137-16.29.641-26.849-1.471-10.385-4.132-20.688-8.107-25.269-11.864-13.567-27.796-18.945-44.839-20.331-27.962-2.272-58.827 6.039-82.962 10.636-12.869 2.479-25.632 4.435-38.362 7.003a292.998 292.998 0 0 0-15.667 3.585c-6.648 1.745-21.878 4.928-35.428 10.359a78.66 78.66 0 0 0-6.293 2.822Z"/><path d="M229.041 678.693c3.034 14.154 9.436 36.064 18.587 51.718 9.15 15.654 23.237 29.036 36.315 42.205 13.333 13.426 29.717 24.926 43.687 38.356 14.901 14.324 32.827 30.714 45.716 47.585 12.6 16.493 24.555 34.124 31.618 53.641 7.085 19.579 7.121 42.58 10.894 63.833 3.916 22.063 6.944 46.559 12.605 68.541 5.558 21.581 11.481 49.156 21.361 63.351 8.332 11.971 26.364 12.929 37.921 21.824 15.862 12.21 38.611 42.058 57.25 51.431 16.319 8.205 36.459 2.556 54.585 4.806 30.852 3.829 93.817 18.924 130.525 18.171 30.843-.633 66.047-14.342 89.724-22.69 18.571-6.547 36.132-16.211 52.338-27.396 16.646-11.488 32.342-26.974 47.533-41.531 17.055-16.342 39.237-37.233 54.796-56.524 14.788-18.335 28.055-42.716 38.558-59.219 8.361-13.137 20.066-28.809 24.463-39.8 3.247-8.114 3.045-19.819 1.923-26.148-.853-4.809-13.45-10.897-8.654-11.822 5.981-1.153 29.611 4.483 44.543 4.902 18.853.529 45.943 1.535 68.574-1.731 23.427-3.381 52.516-9.934 71.992-18.554 17.006-7.526 34.307-18.423 44.864-33.163 10.557-14.741 15.905-36.022 18.478-55.279 3.737-27.975 2.841-80.909 3.944-112.569.898-25.795 6.637-51.882 2.669-77.386-4.54-29.177-19.234-65.339-29.907-97.672-15.939-48.281-50.215-149.987-65.727-192.019-7.628-20.67-11.783-44.579-27.343-60.177-21.416-21.47-70.925-51.176-101.153-68.64-25.395-14.672-52.304-27.147-80.218-36.147-32.151-10.366-75.572-21.822-112.691-26.052-36.437-4.152-73.488-2.567-110.018.674-43.349 3.845-101.363 8.778-150.073 22.399-49.561 13.859-104.73 37.251-147.295 60.755-39.288 21.695-80.911 56.365-108.096 80.27-20.966 18.437-42.46 44.671-55.011 63.16-9.718 14.316-14.204 31.582-20.295 47.777-6.212 16.519-13.562 33.638-16.981 51.335-4.344 22.479-4.089 55.978-9.081 83.54-5.269 29.096-18.717 70.331-22.537 91.039-2.008 10.886-2.703 22.383-.383 33.206Z" style="fill:#fff"/><path d="M1048.64 929.786c5.332.891 11.238 1.894 16.729 2.495 3.436.376 6.73.642 9.705.719 11.744.305 26.646.782 41.708.326 9.652-.293 19.367-.966 28.396-2.288 14.005-2.051 29.985-5.214 44.825-9.257 10.79-2.939 20.985-6.347 29.444-10.112 10.741-4.781 21.58-10.844 30.968-18.259 6.686-5.28 12.644-11.242 17.384-17.889 4.778-6.701 8.612-14.606 11.631-23.087 4.112-11.553 6.73-24.19 8.309-36.098 1.24-9.342 1.986-21.4 2.45-34.534.937-26.519.747-57.531 1.473-78.875.614-18.05 3.588-36.245 3.969-54.282.174-8.272-.178-16.512-1.458-24.695-1.501-9.69-4.072-20.127-7.251-30.936-6.529-22.203-15.653-46.041-22.92-68.101-9.177-27.94-24.477-73.741-38.703-115.563-10.408-30.596-20.237-59.067-26.756-76.869-4.55-12.431-7.88-26.006-13.105-38.302-3.985-9.376-9.048-18.03-16.157-25.195-9.345-9.417-23.849-20.406-39.875-31.287-21.344-14.492-45.409-28.855-62.996-39.078-12.935-7.533-26.261-14.503-39.908-20.755-13.705-6.28-27.736-11.829-42.027-16.493-16.622-5.425-36.223-11.146-56.433-16.037-19.498-4.718-39.56-8.654-58.087-10.833-18.659-2.194-37.479-2.915-56.316-2.696-18.625.217-37.265 1.361-55.776 2.929-26.747 2.259-59.032 4.915-91.324 9.728-20.75 3.093-41.498 7.083-60.825 12.4-24.91 6.852-51.215 16.069-76.695 26.483-26.123 10.678-51.372 22.625-73.339 34.616-15.517 8.471-31.398 18.894-46.662 29.91-24.234 17.489-46.897 36.481-63.97 51.348-10.449 9.099-21.035 20.039-30.675 31.078-10.529 12.057-19.916 24.238-26.768 34.227-4.436 6.467-7.939 13.466-10.973 20.72-4.058 9.7-7.225 19.885-10.964 29.682-3.842 10.067-8.093 20.357-11.654 30.861-2.514 7.418-4.68 14.944-6.191 22.566-1.071 5.403-1.898 11.403-2.598 17.794-2.218 20.27-3.02 44.812-6.939 65.824-1.024 5.486-2.361 11.419-3.866 17.565-6.469 26.422-15.969 56.555-19.158 73.338-1.172 6.169-1.949 12.515-2.138 18.853-.202 6.746.293 13.481 1.657 20.023 1.728 7.864 4.437 17.979 8.04 28.214 3.408 9.68 7.603 19.455 12.458 27.665 4.167 7.046 9.202 13.697 14.729 20.058 7.51 8.643 15.924 16.772 23.986 24.808a207.235 207.235 0 0 0 9.113 8.517c11.359 10.033 23.946 19.327 35.011 29.856 8.868 8.439 18.821 17.601 28.126 27.169 5.916 6.083 11.574 12.322 16.46 18.651 6.051 7.839 11.965 15.939 17.208 24.413 5.037 8.141 9.473 16.616 12.756 25.546 1.951 5.308 3.305 10.906 4.36 16.656 2.691 14.674 3.588 30.24 6.277 44.957 2.814 15.451 5.2 32.096 8.352 48.237 1.406 7.203 2.96 14.309 4.761 21.177 3.851 14.68 7.906 32.062 13.165 46.337 2.999 8.14 6.418 15.35 10.28 20.846 3.689 5.251 8.575 9.135 14.215 12.177 8.324 4.491 18.852 6.431 26.384 12.175 10.686 8.148 24.523 24.439 38.098 36.797 7.266 6.615 14.514 12.192 21.227 15.53 6.308 3.137 13.035 4.731 20.025 5.376 12.469 1.15 25.892-1.16 38.37.332 21.385 2.557 58.226 10.464 91.023 14.758 15.113 1.978 29.404 3.2 41.12 2.907 12.655-.308 25.997-2.64 39.051-5.961 19.9-5.063 39.122-12.392 53.913-17.669 9.76-3.482 19.255-7.774 28.433-12.685 9.066-4.851 17.827-10.297 26.23-16.143 7.05-4.904 13.94-10.487 20.689-16.424 9.557-8.406 18.841-17.52 27.942-26.306 10.299-9.937 22.455-21.542 33.911-33.447 7.752-8.057 15.188-16.25 21.543-24.178 5.883-7.338 11.538-15.599 16.876-23.971 8.229-12.905 15.7-26.066 22.134-36.243 5.552-8.783 12.578-18.694 17.962-27.601 3.016-4.989 5.542-9.706 7.173-13.819 1.865-4.702 2.865-10.365 3.17-15.868.308-5.571-.063-10.951-.712-14.808Zm-18.119 3.959c.354 2.684.498 6.171.277 9.766-.213 3.469-.752 7.059-1.945 10.017-1.327 3.286-3.421 7.024-5.861 11.005-5.376 8.774-12.389 18.525-17.931 27.175-6.483 10.119-14.019 23.212-22.31 36.043-5.005 7.747-10.291 15.398-15.796 22.181-6.054 7.459-13.137 15.159-20.516 22.728-11.356 11.649-23.414 22.981-33.622 32.695-8.944 8.506-18.062 17.338-27.448 25.47-6.201 5.373-12.519 10.433-18.987 14.862-7.792 5.335-15.909 10.303-24.307 14.716-8.304 4.364-16.886 8.176-25.706 11.248-14.313 4.987-32.905 11.964-52.149 16.705-11.49 2.831-23.217 4.859-34.336 5.044-10.765.173-23.877-1.126-37.743-3.068-32.857-4.601-69.738-12.852-91.163-15.608-12.654-1.629-26.3.536-38.947-.744-4.123-.418-8.119-1.275-11.827-3.16-5.051-2.569-10.37-6.995-15.817-12.044-13.994-12.97-28.33-29.921-39.36-38.49-8.431-6.549-20.049-9.314-29.385-14.459-2.277-1.255-4.378-2.693-5.856-4.837-3.685-5.346-6.572-12.931-9.209-21.261-3.906-12.339-7.033-26.245-10.07-38.259-2.149-8.504-3.88-17.398-5.431-26.371-2.408-13.93-4.375-28.05-6.665-41.296-2.542-14.755-3.284-30.341-5.829-45.053-1.254-7.249-2.934-14.299-5.322-21.002-3.042-8.541-6.942-16.756-11.403-24.696-6.41-11.409-14.012-22.233-21.868-32.625-5.416-7.164-11.681-14.253-18.256-21.153-9.455-9.921-19.571-19.441-28.59-28.198-11.198-10.874-23.94-20.528-35.444-30.899a179.205 179.205 0 0 1-7.808-7.441c-7.512-7.641-15.38-15.348-22.366-23.555-4.33-5.086-8.303-10.37-11.549-15.988-3.89-6.733-7.163-14.764-9.861-22.683a217.518 217.518 0 0 1-6.815-24.873c-.948-4.306-1.288-8.749-1.204-13.2.092-4.817.65-9.642 1.49-14.338 2.949-16.479 12.001-46.091 18.063-72.05 1.563-6.693 2.94-13.154 3.988-19.124.994-5.661 1.784-11.557 2.434-17.559 2.514-23.192 2.837-48.062 6.19-65.904 1.221-6.49 3.021-12.897 5.097-19.221 3.353-10.217 7.391-20.226 11.021-30.021 3.549-9.578 6.518-19.536 10.378-29.022 2.291-5.631 4.893-11.097 8.274-16.13 6.288-9.361 14.928-20.779 24.622-32.099 8.78-10.254 18.414-20.442 27.957-28.916 16.464-14.62 38.317-33.313 61.721-50.551 14.333-10.557 29.243-20.579 43.84-28.732 21.143-11.809 45.461-23.615 70.646-34.177 24.536-10.289 49.888-19.407 73.909-26.233 18.455-5.245 38.285-9.213 58.119-12.341 31.769-5.011 63.549-7.882 89.877-10.329 17.995-1.669 36.118-2.941 54.235-3.289 17.957-.345 35.906.21 53.711 2.174 17.786 1.962 37.054 5.617 55.788 10.009 19.717 4.622 38.847 10.058 55.074 15.225 13.628 4.341 27.015 9.526 40.096 15.408 13.128 5.903 25.95 12.5 38.404 19.637 17.333 9.953 41.055 23.933 62.102 38.061 14.972 10.051 28.587 20.133 37.332 28.854 5.522 5.506 9.345 12.252 12.461 19.479 5.17 11.99 8.454 25.254 12.965 37.378 6.574 17.679 16.523 45.945 27 76.342 14.373 41.7 29.747 87.397 38.994 115.266 7.239 21.884 16.335 45.527 22.842 67.554 2.968 10.047 5.393 19.743 6.8 28.752 1.115 7.203 1.389 14.456 1.223 21.735-.407 17.965-3.409 36.083-4.05 54.061-.76 21.337-.62 52.339-1.6 78.848-.462 12.506-1.169 23.987-2.365 32.88-1.207 8.98-3.034 18.424-5.787 27.367-2.724 8.852-6.342 17.211-11.229 24.005-4.796 6.668-11.17 12.415-18.235 17.373-7.247 5.085-15.232 9.327-23.14 12.807-9.564 4.209-21.549 7.868-33.976 10.891-12.075 2.937-24.567 5.259-35.74 6.848-8.382 1.191-17.398 1.763-26.351 1.997-14.699.384-29.236-.153-40.693-.498-12.259-.378-30.428-4.354-39.656-5.051-2.952-.222-5.312-.112-6.884.186-4.116.78-6.022 2.98-7.091 4.699-1.317 2.119-1.816 4.531-1.231 7.268.362 1.692 1.759 4.504 4.697 7.158l5.103 4.631Z"/><path d="M225.449 606.102c-5.791 4.335-7.587 12.416-3.917 18.867 2.43 3.333 4.911 6.321 9.012 6.916 1.415.205 2.942.754 4.671.444 1.443-.257 5.362-.155 8.796-3.673 1.064-1.09 4.342-5.011 4.342-5.011s-.629.385-.802.541l11.559-10.471c5.284-3.648 12.145-8.43 19.709-11.243 6.234-2.319 12.754-3.847 18.302-1.684 7.55 3.632 13.778 8.514 18.675 14.556 5.091 6.281 8.378 13.826 11.37 21.739 1.479 4.191 3.543 13.258 5.527 19.168 1.229 3.664 3.021 6.287 4.182 7.961 3.979 5.736 9.709 5.566 13.47 5.58 4.246.016 9.003-2.561 12.927-10.339 2.628-7.227-.823-15.194-7.736-18.285-2.712-4.925-5.614-11.023-7.473-14.045-5.301-9.086-11.37-17.171-18.519-24.237-7.237-7.152-15.318-13.465-25.435-17.68-7.369-3.72-16.139-3.883-25.128-2.616-11.47 1.617-23.215 6.279-31.725 10.178l-15.759 8.997c-.962.54-6.773 2.496-6.048 4.337Zm112.323 39.793a7.662 7.662 0 0 0-1.911 3.591 14.445 14.445 0 0 1 1.911-3.591Zm20.577-.021.025.037c.092.135.358.261.358.261l-.383-.298Zm-114.01-38.605c.98.941 1.839 2.038 2.544 3.276-.583-1.36-1.495-2.388-2.544-3.276Zm-7.358-3.822c1.469.284 2.892.793 4.212 1.512-1.099-.758-2.503-1.289-4.212-1.512Zm51.974 92.22c1.192-1.788 1.985-3.427 3.332-4.395.569-.408.824-1.222 1.495-1.267 1.617-.108 3.39.574 5.59 1.741 1.587 1.231 2.485 3.146 3.35 5.036.062.137.116.275.159.416-.218.204-.429.418-.635.641-.121.232-.303.481-.18.549.407.227.746.189 1.028.016.084 1.271-.246 2.595-.31 3.893.064-.791.003-1.861-.74-2.294-.79-.461-1.606.798-1.944 1.148-.663.687-.802 1.374-1.041 1.669-.827 1.024-.608 2.139-.927 2.751-.852 1.637-.089 3.153-.293 4.278-.177.981.458 1.769.464 2.607.023 3.027 2.651 4.46 3.914 6.527 1.65 2.7 5.089 2.595 8.602 3.866 1.256.454 2.665-.379 4.44-.32 1.183.04 2.381-1.232 4.565-1.94.434-.141 1.277-1.341 3.826-2.937a14.48 14.48 0 0 0 2.181-3.071c2.26-2.019 2.689-11.367.696-16.067-1.801-4.712-3.847-9.231-7.452-12.934-3.378-3.471-6.82-6.848-11.151-8.621-7.153-4.667-12.923-5.116-18.312-4.711-5.316.4-10.21 2.948-16.902 7.012-.912.512-2.487 1.092-4.086 1.911-1.915.981-3.204 2.568-4.698 3.776-2.24 1.81-2.596 4.5-3.693 6.615-.488.943-.242 1.996-.543 2.978-1.235 4.031 1.421 7.463 3.853 12.148 5.352 6.012 14.578 6.546 20.589 1.194 3.588-3.194 5.225-7.768 4.823-12.215Zm-2.761-7.299c-.188-.414-.448-.792-.868-1.075.309.347.599.705.868 1.075Zm507.497-66.024c.704-2.391.799-4.995.156-7.588-3.114-7.678-6.996-11.618-12.478-12.046-2.874-.224-6.275-.803-9.607.946-3.677 1.93-8.397 5.784-10.026 7.734-4.502 5.131-12.741 20.44-13.267 32.327-.391 8.817 1.87 16.027 8.739 19.391 2.468 1.285 5.027 2.095 7.709 2.432 2.874.361 5.85.324 8.703.269 2.818.081 5.241-.175 7.613-.626 2.577-.49 5.036-1.428 7.81-2.86 8.916-4.262 14.476-14.242 14.872-22.752.304-6.524-2.837-12.406-10.224-17.227Zm-12.398 20.786c-1.421.263-4.308 1.677-5.843 1.403a14.652 14.652 0 0 1-7.486 1.22c-.163 1.124.088 2.564-.76 2.642h-.086c.395.163.807.272 1.233.329 1.746.231 3.543.183 5.269.215 1.348-.039 2.512-.162 3.622-.482.905-.261 1.66-.864 2.583-1.501 1.082-.796 1.212-2.449 1.468-3.826Zm-.435-2.815c.11-.101.2-.214.267-.34l-.267.34Zm412.332-41.977c-3.99-.221-12.51 1.528-18.38 4.273-6.939 3.244-9.037 9.743-9.941 15.657 0 5.215 2.744 9.795 6.868 12.371-.201 2.725.076 5.378 1.258 7.908.981 2.212 2.181 4.401 4.334 5.988 3.268 2.408 8.537 4.283 14.579 4.459 10.492.306 22.031-3.975 24.784-9.131 5.677-8.513 4.602-17.954.975-25.769a14.527 14.527 0 0 0-.204-11.267c-3.247-7.365-11.862-10.708-19.227-7.461a116.27 116.27 0 0 1-5.046 2.972Zm7.782 26.259-.328.239c-1.131.921-2.59 1.95-4.008 3.193 2.283.101 4.503.695 5.666 1.775.285-1.885-.354-3.694-1.33-5.207ZM777.324 998.714c5.518-.665 10.613-.074 14.136 3.374 6.288 5.024 15.473 3.997 20.497-2.291 5.024-6.288 3.997-15.472-2.291-20.496-8.747-5.603-18.862-7.686-29.977-5.447-16.929 3.41-36.007 15.017-47.175 22.057-5.799 3.202-13.657 7.959-17.174 14.272-2.16 3.879-3.071 8.287-1.941 13.495 2.364 12.747 10.308 16.239 18.869 16.643 13.615.643 33.668-14.859 38.908-21.552 4.914-6.093 6.64-13.476 6.243-19.126a14.109 14.109 0 0 0-.095-.929Zm-29.61 9.593c-2.559 1.13-4.912 2.206-6.987 3.128-2.744 1.363-6.462 2.847-9.112 5.22-.854.764-1.699 1.626-1.368 2.875.258.847 1.285 1.445 1.443 1.934a.655.655 0 0 0 .036-.221c-.032-.383.731-.273 1.132-.395 1.337-.407 2.613-1.264 3.969-2.113 4.367-2.734 8.377-7.046 10.887-10.428Zm6.454 2.969c.159.082.336.143.533.18l-.533-.18Z"/><path d="M438.991 380.509c7.207 5.161 12.548 20.655 16.13 28.176 10.919 22.925 19.081 46.825 26.755 71.036 2.995 9.449 14.571 21.688 11.189 32.101-3.914 12.053-18.956 10.593-28.075 6.489-.796-.358-11.935-6.049-12.334-4.952-4.032 11.089 2.465 33.08 2.465 45.085 0 6.183 2.24 14.251-3.984 17.755-33.822 19.037-76.397-3.327-112.701 1.877-12.752 1.828-26.386.312-38.895 2.564-28.229 5.083-56.733 28.185-82.343 2.388-4.617-4.651-10.261-9.172-14.422-14.17-2.922-3.509-3.39-8.643-4.934-12.808-14.298-38.568 12.634-57.241 22.577-91.185 3.859-13.171 1.523-34.772 12.334-44.569 2.279-2.065-8.069-10.075-9.107-11.441-5.449-7.175-6.976-16.102-5.503-25.101 2.86-17.477 10.068-19.504 22.39-28.686 3.135-2.336 8.316-10.354 11.952-11.441 15.539-4.646 37.549-.093 52.747 3.245 26.149 5.742 52.785 9.734 79.498 9.734 15.251 0 34.471-.318 48.764 6.143 5.976 2.701 18.386 11.397 7.017 14.175"/><path d="M220.79 419.854c-1.768 2.973-3.124 6.292-4.125 9.866-2.937 10.483-2.542 23.483-5.094 32.553-7.049 24.861-22.845 41.868-25.842 63.917-1.324 9.74-.518 20.384 4.159 32.808 1.116 2.993 1.716 6.465 2.987 9.522.867 2.086 1.968 4.029 3.405 5.747l14.927 14.709c12.33 12.491 25.268 15.504 38.509 14.343 16.735-1.467 34.145-10.981 51.39-13.99 2.255-.389 4.552-.63 6.873-.796 10.467-.747 21.386-.022 31.751-1.428 24.88-3.288 52.573 6.724 78.417 6.916 13.295.099 26.122-2.171 38.115-8.717 4.418-2.411 6.945-5.895 8.433-9.892 1.853-4.977 1.056-11.541 1.127-16.968.113-7.326-2.054-18.335-2.914-28.408 7.417 2.84 16.823 4.034 24.514 1.914 7.735-2.133 14.049-7.243 17.176-16.383 1.948-5.694 1.543-11.749-.4-17.884-2.397-7.569-8.313-15.352-10.244-21.79-4.427-14.861-9.051-29.598-14.339-44.101-3.587-9.839-7.498-19.554-11.852-29.128-2.462-5.414-5.791-14.612-9.945-21.812 1.605-3.152 2.158-6.479 1.614-9.97-.481-3.081-1.789-6.604-4.514-9.859-3.701-4.423-10.859-9.14-15.593-11.174-7.03-3.02-14.96-4.847-23.182-5.747-10.652-1.166-21.776-.93-31.413-.762-12.818.218-25.629-.502-38.389-1.933-12.928-1.451-25.796-3.585-38.555-6.161-9.599-1.944-21.754-4.283-33.47-4.789-8.914-.384-17.593.237-25 2.571-2.079.655-4.537 1.96-6.899 4.099-2.939 2.662-6.131 7.566-8.347 9.269-8.867 6.813-15.204 10.574-19.608 17.287-2.903 4.424-5.2 10.012-6.458 18.412-.864 5.73-.797 11.424.372 16.82 1.242 5.731 3.614 11.156 7.353 15.953.404.518 2.891 2.92 5.061 4.986Zm204.806-45.107c-3.992-1.611-8.405-2.632-12.948-3.297-9.436-1.38-19.343-1.429-27.918-1.579-13.928-.237-27.816-1.479-41.62-3.504-13.578-1.993-27.07-4.696-40.431-7.869-8.504-2.015-19.262-4.547-29.698-5.324-5.7-.424-11.291-.413-16.189.758-1.533 1.68-7.492 8.145-9.796 9.809-5.756 4.158-10.375 6.5-13.79 10.05-2.434 2.53-3.903 5.878-4.925 11.622-.567 3.212-.678 6.416-.096 9.469.516 2.71 1.506 5.313 3.154 7.634.886.81 4.549 4.184 6.494 6.356 2.218 2.476 3.771 5.002 4.377 6.865 1.641 5.046.251 8.991-2.91 11.784-3.039 2.686-4.28 6.891-5.239 11.353-2.085 9.699-2.378 20.647-4.793 28.583-6.288 20.755-18.887 35.737-24.526 53.113-3.059 9.426-3.636 19.678 1.054 32.531l3.476 10.349 13.918 13.63c8.031 8.045 16.395 10.049 24.964 9.226 16.28-1.563 33.067-11.244 49.823-14.355 2.822-.529 5.697-.883 8.606-1.134 10.069-.869 20.597-.265 30.559-1.77 25.54-3.948 54.302 5.414 80.913 4.973 9.357-.155 18.409-1.727 26.787-6.279-.103-1.705-.388-6.705-.422-9.297-.123-7.954-3.288-20.325-4.117-30.889-.542-6.925-.041-13.25 1.635-18.094.961-2.778 5.622-9.602 15.123-7.056 3.463.927 11.96 4.996 12.696 5.314 2.35 1.013 5.306 1.708 8.156 1.734 1.434.013 3.139.183 3.619-1.377.485-1.576-.769-3.059-1.54-4.724-3.217-6.941-8.221-13.9-10.194-19.802-3.983-11.848-8.089-23.609-12.589-35.212-4.423-11.406-9.253-22.637-14.73-33.632-1.835-3.684-4.136-9.326-6.882-14.673-1.577-3.071-3.025-6.239-5.096-7.667-5.675-4.063-7.563-11.459-4.905-17.619Zm11.045-11.878.408-.111a4.657 4.657 0 0 0-.408.111Z"/><path d="M1023.94 184.304c-11.719-2.628-27.274 15.091-37 20.665-31.556 18.083-65 32.567-96.765 50.542-9.565 5.412-18.925 11.221-27.888 17.59-2.385 1.695-8.441 6.272-11.764 4.782-8.559-3.838-12.579-23.313-10.057-31.25.961-3.021 2.727-5.687 4.366-8.367.926-1.513 3.515-6.165 2.658-4.611-7.021 12.724-28.255 19.936-39.277 28.691-40.915 32.502-79.245 67.129-134.709 71.207-8.548.628-29.859 6.273-34.154-3.415-4.667-10.529 8.901-22.433 15.936-28.005.368-.292 7.452-6.276 7.78-5.979 2.092 1.896-18.03 15.929-19.351 16.734-25.395 15.47-53.493 26.84-80.066 40.127-36.208 18.104-79.478 27.324-120.106 27.324-4.268 0-12.558-3.436-12.896-8.367-.157-2.28-.892-7.678.375-9.734.685-1.109 6.542-7.471 4.178-3.925-21.231 31.847-75.629 31.013-108.529 22.707-7.178-1.812-15.843-1.513-22.196-5.803-8.095-5.466-9.639-11.989-13.284-20.495-.547-1.275-.496-8.515-1.708-8.877-5.382-1.609-13.117 2.878-18.024 4.271-12.535 3.56-24.721 8.433-37.375 4.606-17.672-5.344-37.692-1.626-56.163-7.17-6.797-2.039-17.351-7.436-18.212-16.053-4.236-42.351 43.024-69.604 77.027-82.818 12.064-4.688 23.628-9.595 36.43-11.782 4.085-.698 7.97-1.317 11.952-2.388 2.208-.593 8.928-1.707 6.642-1.707-13.276 0-26.403 9.771-40.602 6.829-18.072-3.743-1.409-30.574 5.122-35.521 9.137-6.92 20.304-10.742 30.358-16.047 20.683-10.915 38.442-23.413 61.854-28.175 14.75-3 29.021-1.81 43.829-3.245 2.357-.228 12.028.282 13.847-1.367.674-.611-16.268-17.277-16.698-21.516-1.618-15.922 17.995-35.096 29.601-43.888 21.027-15.929 48.033-18.049 73.424-20.829 8.227-.901 22.214-4.424 30.552-1.707 12.056 3.928 21.462 13.679 32.634 19.121.87.424 8.9 5.212 9.482 4.952 1.142-.509 3.17-7.368 3.796-8.537 4.37-8.159 9.469-16.764 15.179-24.073 9.204-11.783 31.795-21.81 46.675-24.591 35.2-6.577 60.211 6.197 91.643 18.952 4.105 1.666 9.722 2.439 13.09 5.468 2.585 2.326 9.299 17.674 15.179 14.17 10.888-6.488 20.039-24.038 29.407-33.127 17.948-17.414 53.415-27.917 78.547-24.42 12.888 1.793 42.215 7.101 51.797 15.202 12.431 10.51 27.533 31.395 42.122 37.903 4.582 2.045 21.886-11.456 26.562-13.489 17.024-7.4 44.164-2.721 56.162 11.958 24.182 29.585 11.234 65.399-5.879 94.77-8.541 14.659-11.768 27.913-27.512 23.734"/><path d="M749.659 59.027c-1.072-1.493-2.182-3.066-2.816-4.029-1.465-2.226-2.84-3.866-3.791-4.712-1.901-1.689-4.138-3.068-6.612-4.143-3.158-1.372-6.846-2.127-9.795-3.303-19.821-7.909-37.222-15.748-55.96-19.199-12.955-2.386-26.522-2.787-41.816.163-9.688 1.868-22.337 6.481-33.155 12.672-8.122 4.649-15.21 10.201-19.684 15.99-3.057 3.954-5.957 8.249-8.667 12.664-2.518 4.103-4.879 8.304-7.059 12.411l-.221-.117c-7.575-3.644-14.294-9.38-21.663-13.75-3.915-2.321-7.978-4.325-12.317-5.715-3.577-1.146-7.895-1.585-12.503-1.423-7.651.268-16.312 2.185-22.161 2.855-15.753 1.803-32.099 3.419-47.349 7.95-10.937 3.25-21.331 7.95-30.662 15.084-7.437 5.676-17.86 15.306-24.839 25.796-5.774 8.678-9.109 18.005-8.218 26.465.193 1.838 1.4 5.143 4.037 8.748 1.02 1.393 2.282 2.954 3.641 4.554-9.148.699-18.12.576-27.157 1.298-4.695.375-9.405.959-14.161 1.944-10.009 2.074-19.059 5.439-27.72 9.507-12.321 5.785-23.828 13.02-36.399 19.697-7.053 3.742-14.653 6.759-21.72 10.618-3.402 1.858-6.69 3.896-9.775 6.243-5.701 4.336-17.281 21.955-16.566 33.982.18 3.029.864 5.853 2.222 8.307l-3.102 1.209c-21.292 8.247-47.417 21.852-64.304 40.762-12.581 14.089-20.165 31.048-18.212 50.8.542 5.531 3.362 10.354 7.5 14.228 4.867 4.557 11.651 7.71 16.777 9.265 4.078 1.236 8.224 2.073 12.406 2.659 14.722 2.065 29.956.464 43.692 4.661 6.342 1.938 12.591 2.159 18.817 1.392 7.835-.966 15.636-3.626 23.553-5.85l8.495-2.778c.186 1.109.37 2.007.512 2.341 2.446 5.753 4.129 10.643 7.014 14.999 2.267 3.423 5.182 6.561 9.47 9.474 2.712 1.845 5.711 3.127 8.876 4.048 5.248 1.527 11.071 1.816 16.159 3.123 20.713 5.321 49.465 7.782 74.187 1.966 9.428-2.219 18.263-5.645 25.987-10.466 1.145 1.4 2.543 2.684 4.16 3.81 4.543 3.163 10.791 4.902 14.784 4.919 20.998.106 42.688-2.175 63.823-6.783 21.305-4.644 42.039-11.677 60.951-21.012 18.658-9.207 38.052-17.483 56.761-26.865a451.56 451.56 0 0 0 3.471-1.76l.413 1.017c2.926 6.713 9.216 10.827 17.743 12.056 8.984 1.295 21.422-1.272 27.648-1.691 23.688-1.595 44.507-8.372 63.767-18.145 27.918-14.166 52.451-34.843 77.893-54.798a38.466 38.466 0 0 1 1.669-1.239c-.152-3.948 2.703-12.403 10.227-27.535-1.457 5.153-1.46 13.294.22 21.203-3.799 2.104-7.415 4.175-10.447 6.332.186 4.965 5.121 2.819 11.508-2.126l-.312-1.065-.5-1.979-.249-1.162c5.551-3.087 11.489-6.25 16.546-9.877-5.046 5.057-10.677 10.363-15.485 14.083.27.95.575 1.884.906 2.799 3.17 8.77 8.865 15.515 15.025 18.329 3.008 1.374 6.553 1.825 10.398 1.139 5.07-.905 11.597-5.12 14.468-7.13a276.271 276.271 0 0 1 13.15-8.637 345.332 345.332 0 0 1 13.697-8.021c25.386-14.134 51.83-26.025 77.532-39.321 6.616-3.423 13.182-6.938 19.674-10.599 4.761-2.685 10.865-7.911 17.237-12.719 3.5-2.642 10.638-2.665 10.364-5.938 7.545 1.214 14.834-3.651 16.529-11.207a14.523 14.523 0 0 0-1.215-9.764c1.494-2.831 3.06-5.853 4.83-8.943 11.376-19.861 20.713-42.423 20.677-64.332-.026-15.991-4.666-31.745-16.655-46.199-7.898-9.533-20.506-16.166-34.126-18.78-13.153-2.525-27.053-1.393-37.758 3.346-2.388 1.057-7.726 4.626-13.285 8.192-1.828 1.172-4.451 2.625-6.29 3.613-2.37-1.504-4.735-3.432-7.113-5.545-10.118-8.988-20.039-21.029-28.654-28.215-4.105-3.424-10.842-6.723-18.813-9.304-13.278-4.298-30.254-7.175-39.409-8.386-14.066-1.861-30.997.028-46.911 4.988-16.184 5.045-31.273 13.193-41.412 23.162-6.568 6.454-13.07 16.93-20.063 25.112-.769.9-1.537 1.772-2.315 2.587Zm257.446 112.328c.608-.735 1.64-2.041 2.229-3.012 2.445-4.031 4.786-8.902 7.769-13.937 7.717-13.023 14.731-27.396 16.974-41.919 1.961-12.698.095-25.501-9.239-37.09-4.147-5.144-11.11-8.263-18.36-9.755-7.654-1.576-15.798-1.407-22.081 1.274-4.229 1.805-18.29 11.993-25.453 13.875-4.842 1.273-8.83.644-11.615-.621-5.706-2.592-11.559-6.839-17.25-12.033-9.81-8.951-19.349-20.932-27.707-28.095-3.028-2.595-8.84-4.492-15.115-6.323-10.858-3.168-23.176-5.358-30.257-6.391-10.95-1.598-24.153-.079-36.616 3.624-12.467 3.704-24.275 9.521-32.155 17.065-6.227 5.967-12.325 15.796-18.968 23.38-4.056 4.631-8.316 8.563-12.724 11.155-5.202 3.059-10.582 2.925-15.852-.275-4.432-2.692-11.476-13.178-12.944-15.41l-9.473-3.383c-18.297-7.549-34.281-15.206-51.621-18.608-10.476-2.055-21.467-2.506-33.889-.259-6.584 1.191-14.862 3.978-22.548 7.744-7.261 3.558-14.092 7.874-17.962 12.774-2.65 3.358-5.161 7.016-7.517 10.772-2.38 3.793-4.61 7.684-6.67 11.48-.284.764-2.529 6.764-3.646 8.58-1.67 2.716-3.75 4.061-5.135 4.671-.957.421-4.634 1.796-9.306-.356-2.382-1.096-7.968-4.429-8.693-4.787-8.053-3.972-15.238-10.061-23.064-14.806-2.618-1.587-5.315-3.009-8.225-3.973-2.322-.769-5.299-.655-8.381-.42-6.452.491-13.253 1.901-18.058 2.403-14.674 1.534-29.917 2.765-44.146 6.848-8.78 2.52-17.172 6.132-24.692 11.777-5.265 3.958-12.347 10.223-17.966 17.32-4.356 5.504-8.215 11.366-8.233 16.99 1.562 1.88 10.109 12.168 12.982 15.554 1.423 1.677 2.31 3.004 2.646 3.654 3.004 5.818-.228 9.636-1.899 11.14-1.321 1.188-3.844 2.584-7.329 3.109-3.767.568-9.883.337-11.726.508-10.467.976-20.661.658-30.948 1.405-3.972.288-7.961.741-11.988 1.545-8.613 1.72-16.402 4.581-23.865 8.029-12.097 5.588-23.382 12.647-35.723 19.118-7.011 3.68-14.564 6.631-21.588 10.427-2.653 1.433-5.226 2.992-7.633 4.807-2.064 1.556-5.254 6.091-7.557 10.927-1.148 2.409-2.09 4.908-2.341 7.218-.111 1.024.074 1.994 1.331 2.256 2.076.431 4.12.464 6.139.261 4.15-1.228 8.375-2.258 12.731-2.999l.151-.03c6.679-2.022 13.265-4.209 19.862-4.203 4.234.004 5.956 2.047 6.423 2.514 3.258 3.255 3.772 6.87.936 10.878-.439.62-1.682 2.359-4.569 3.283-1.137.364-5.505 1.159-7.241 1.624l-12.724 2.547-.283.052c-3.023.997-6.072 1.945-9.166 2.541a43.175 43.175 0 0 1-3.023.481l-1.231.389c-7.098 2.291-13.999 5.139-21.081 7.9-19.05 7.427-42.593 19.385-57.677 36.353-9.345 10.513-15.348 23.016-13.86 37.722.194 1.908 1.825 3.195 3.415 4.385 2.757 2.065 6.118 3.452 8.731 4.228 14.254 4.233 29.456 2.637 43.702 4.449 4.261.542 8.447 1.349 12.526 2.57 3.874 1.16 7.692 1.178 11.488.688 6.964-.899 13.861-3.423 20.892-5.441 3.538-1.016 8.494-3.511 13.071-4.466 3.544-.74 6.96-.713 9.969.177 2.091.619 4.958 2.282 6.41 6.306.607 1.683 1.213 6.958 1.382 8.524 1.772 4.22 2.965 7.915 5.143 11.163 1.089 1.625 2.515 3.084 4.566 4.461 1.614 1.082 3.502 1.593 5.43 2.012 4.635 1.007 9.549 1.337 13.928 2.423 18.262 4.53 43.574 6.642 65.281 1.344 10.506-2.564 20.181-6.866 27.393-13.832.332-.941.735-1.775 1.178-2.488.706-1.134 4.99-5.973 6.542-7.217 3.019-2.422 5.836-2.393 6.875-2.338 3.012.157 5.218 1.433 6.839 3.302 1.335 1.538 3.012 4.059 2.241 8.172-.11.589-.405 2.199-2.025 4.607a57.269 57.269 0 0 1-3.083 4.163l.005.1.08 1.354c.926.48 2.538 1.246 3.3 1.243 19.569-.099 39.76-2.429 59.412-6.923 19.606-4.483 38.671-11.142 56.026-19.932 18.514-9.377 37.782-17.813 56.335-27.383 7.228-3.728 14.341-7.639 21.253-11.853 3.937-4.509 8.415-8.408 11.793-11.051.322-.252 5.397-4.454 7.534-5.913 7.204-4.919 13.661-.42 14.618.458 2.902 2.663 6.824 9.958-.046 17.733-3.36 3.802-12.553 10.598-17.642 14.198-.922 1.143-1.752 2.339-2.385 3.573-.094.182-.206.36-.315.536 2.057.111 5.558.231 7.85-.013 5.679-.603 11.208-1.689 14.678-1.965 20.309-1.619 38.081-7.723 54.505-16.312 26.364-13.788 49.311-33.897 73.255-53.158 7.617-6.128 20.081-11.583 29.443-18.558 2.389-1.78 4.556-3.621 5.953-5.809l.539-.937c.163-.284.267-.461.293-.504 23.738-38.851 35.71-13.936 22.549 12.306l-.448.837-.036.063c-.228.409-2.192 3.933-2.876 5.069l-3.013 5.563c-.622 2.006.018 5.298.802 8.523.224.924.641 2.025 1.107 3.086a302.305 302.305 0 0 1 14.146-9.572c4.809-3.069 9.7-6.01 14.643-8.853 25.424-14.62 51.937-27.01 77.692-40.791 6.267-3.353 12.486-6.794 18.632-10.372 2.264-1.319 4.842-3.293 7.612-5.52a14.444 14.444 0 0 1 .384-5.47c2.065-7.779 10.057-12.418 17.837-10.353.478.13 1.095.01 1.431.119Z"/><path d="M273.07 592.091c4.305-3.101 14.705-1.14 19.691-1.14 14.029 0 30.216-.41 44.185-2.498 56.436-8.436 113.865-6.046 171.181-7.269 23.924-.511 60.714 6.002 83.826-2.272" style="fill:#fff;fill-opacity:.45"/><path d="M279.469 605.193c1.452 3.517 10.154-.57 13.292-.739 8.657-.441 18.069-1.049 27.325-2.09 6.37-.716 12.64-1.561 18.531-2.731 22.15-4.127 44.452-6.874 66.956-8.195a676.112 676.112 0 0 1 40.897-1.181c20.619.038 41.233 1.067 61.877 1.238 16.595.452 39.09 4.435 59.27 4.677 10.646.128 20.639-.976 29.252-3.531 7.578-2.713 11.527-11.067 8.814-18.645-2.713-7.578-11.068-11.527-18.645-8.814-5.899 2.488-12.92 3.954-20.474 4.651-19.83 1.828-42.316-.105-58.657 1.039-22.827 1.111-45.649 2.195-68.463 2.528-23.146.337-46.219.189-69.236 1.355-11.669.591-23.298 1.282-34.933 2.518-6.661.673-13.807.875-20.969.865-7.373-.01-14.71-.337-21.545-.689-4.485-.242-12.665-1.641-18.542-.9-3.847.485-7.04 2.021-9.674 3.71-6.531 4.705-8.013 13.827-3.307 20.357 4.213 5.848 11.968 7.648 18.231 4.577Z"/><path d="M611.145 562.093c2.817 0-4.04 3.945-5.809 6.137-3.03 3.756-5.1 8.654-7.324 12.954-7.536 14.572-10.603 31.387-10.603 47.722 0 48.485 22.341 92.439 58.825 125.208 69.83 62.72 163.402 82.583 253.5 56.349 36.702-10.686 68.273-25.431 88.62-59.761 16.083-27.137 16.891-63.088 13.632-93.391-7.041-65.483-40.204-132.427-105.539-158.157-48.119-18.951-104.753-11.143-154.519-4.092-44.617 6.322-71.359 27.687-105.032 54.312-4.857 3.84-30.803 17.564-30.803 23.174" style="fill:#fff;fill-opacity:.45"/><path d="M613.418 547.674a18.708 18.708 0 0 0-2.273-.164 14.544 14.544 0 0 0-10.804 4.793c-2.029-.091-5.048 5.326-6.247 6.857a45.886 45.886 0 0 0-3.645 5.408c-1.874 3.258-3.45 6.816-5.079 10.078-4.228 8.47-7.231 17.542-9.068 26.881-1.776 9.024-2.551 18.271-2.421 27.379.366 26.39 6.737 51.466 18.143 74.313 11.107 22.247 26.877 42.429 46.433 59.553 36.772 32.263 79.576 53.271 124.899 62.727 44.961 9.381 92.408 7.489 138.875-6.461 19.136-5.695 36.89-12.509 52.539-22.309 16.082-10.072 30-23.252 40.879-41.704 6.959-11.764 11.278-25.047 13.733-38.858 3.533-19.878 3.162-40.876 1.191-59.779-3.428-34.161-13.801-68.696-31.66-98.163-18.176-29.991-44.149-54.7-78.676-68.697-20.363-8.299-42.228-12.041-64.53-13.122-32.058-1.553-65.036 2.555-95.506 6.468-18.964 2.422-34.963 7.456-49.659 14.302-21.91 10.206-40.788 24.688-62.323 41.225-2.206 1.691-8.383 5.267-14.801 9.273Zm-1.813 38.375-.951 1.672c-3.282 6.13-5.649 12.737-7.194 19.554-1.61 7.107-2.42 14.414-2.523 21.631-.311 22.378 4.514 43.787 13.67 63.41 9.21 19.74 22.656 37.71 39.404 53.139 33.16 30.488 72.097 50.855 113.65 60.393 41.742 9.582 86.037 8.327 129.576-3.959 17.608-5.015 34.033-10.919 48.456-19.787 13.914-8.556 25.928-19.884 35.366-35.724 7.443-12.549 11.305-27.159 12.951-42.118 1.711-15.544 1.008-31.467-.61-46.026-3.611-31.47-13.451-63.28-30.391-90.183-16.458-26.137-39.703-47.553-70.353-59.272-18.304-6.959-37.868-9.747-57.746-10.214-30.727-.723-62.184 4.179-91.255 8.686-16.045 2.498-29.52 7.12-41.835 13.28-19.936 9.972-36.828 24.008-56.248 39.816-3.687 3.008-20.142 23.538-26.6 19.041a14.63 14.63 0 0 1-7.367 6.661Z"/><path d="M957.552 571.869c-4.581-.82 11.875-9.322 13.632-10.002 10.307-3.99 21.588-7.386 32.567-8.862 20.999-2.824 46.787-2.685 67.671.913 7.194 1.24 12.974 2.093 19.692 4.771 1.69.674 10.353 4.957 10.353 3.631" style="fill:#fff;fill-opacity:.45"/><path d="M969.439 580.316c2.513-1.48 5.628-6.456 6.261-6.786 4.65-2.359 9.403-4.725 14.424-6.629 4.915-1.863 9.888-3.437 14.888-4.519 5.123-.96 10.516-1.93 16.118-2.384 5.369-.436 10.895-.605 16.396-.338 11.189.545 22.152 2.747 32.011 5.202 3.347.939 6.309 1.778 9.255 2.763 2.51.839 4.819 2.007 7.411 3.383 1.596.863 8.499 4.682 11.329 5.634 5.414 1.821 9.341-.772 11.473-1.746 4.855-2.218 6.318-6.863 7.046-12.576 0-7.255-5.31-13.28-12.252-14.395-.844-1.727-6.786-1.288-7.774-1.555-3.406-.945-6.495-1.727-9.66-2.163-4.217-.582-8.313-.915-13.057-1.232-8.979-.827-18.651-.873-28.554-.706-5.613.094-11.262.292-16.858.409-8.794.183-17.41.21-25.406.95-6.024.327-12.089 1.331-18.185 2.458-6.024 1.114-11.902 2.535-17.637 4.117-1.404.372-9.94 3.898-15.154 6.752-2.976 1.628-4.825 3.787-6.042 5.099-4.759 5.129-3.203 10.721-2.199 14.584.97 3.732 4.301 7.361 11.709 9.586 5.733 1.026 11.288-1.455 14.457-5.908Zm117.457-18.494c-.03.153-.034.318-.012.498l.012-.498Zm-122.687-2.929a8.12 8.12 0 0 0-4.088-1.379c1.461.261 2.832.732 4.088 1.379Z"/><path d="M1081.77 560.961c-16.03 0-21.013 17.358-28.273 27.953-23.959 34.967-24.726 85.259-3.787 121.108 53.322 91.29 194.66 116.366 280.758 62.721 25.996-16.197 42.73-42.883 60.09-67.031 9.136-12.708 28.392-20.371 33.332-35.682 8.016-24.846-3.537-57.086-11.868-80.211-5.592-15.52-9.054-33.914-18.435-47.722-12.952-19.064-29.36-41.609-50.244-52.492-49.859-25.986-112.362-.423-160.07 17.044-28.6 10.471-58.791 24.893-84.583 41.132-2.981 1.877-22.979 9.886-22.979 12.501" style="fill:#fff;fill-opacity:.45"/><path d="M1063.91 551.634c-.897.576-1.761 1.2-2.597 1.863-8.537 6.763-13.56 18.855-19.316 27.54-13.082 19.738-19.85 43.567-20.177 67.511-.326 23.857 5.537 47.769 17.47 67.558 28.789 47.875 80.284 78.312 136.147 89.393 55.345 10.978 114.8 3.1 159.635-25.36 11.06-6.958 20.553-15.671 29.126-25.299 12.267-13.777 22.635-29.443 33.196-44.21 6.112-8.468 16.99-14.487 24.651-22.337 4.473-4.583 8.033-9.68 9.984-15.636 3.689-11.226 3.896-23.816 2.134-36.558-2.403-17.376-8.525-35.062-13.552-49.376-3.849-10.973-6.677-23.334-11.172-34.588-2.182-5.464-4.753-10.675-7.911-15.435-7.91-11.921-17.132-25.106-27.835-36.289-7.721-8.067-16.245-15.062-25.542-20.04-21.846-11.746-46.033-14.431-70.591-12.181-34.216 3.135-69.183 16.217-98.659 26.529-14.777 5.164-29.962 11.36-44.817 18.271-14.925 6.944-29.487 14.645-42.937 22.818-2.538 1.54-16.84 7.203-21.984 10.649-2.378 1.594-4.067 3.387-5.253 5.177Zm30.022 17.361c-2.609 3.946-7.086 6.55-12.166 6.55-2.827-.044-4.442 1.892-5.939 3.868-4.142 5.471-7.213 12.259-10.837 17.378-10.732 15.156-16.463 33.729-17.272 52.492-.825 19.145 3.269 38.499 12.405 54.655 24.502 43.208 69.978 71.004 119.429 81.905 50.361 11.1 104.895 4.826 146.304-20.495 9.716-5.996 18.052-13.571 25.599-21.932 11.95-13.24 21.978-28.394 32.258-42.621 6.527-9.114 17.973-15.844 26.143-24.322 2.59-2.688 4.781-5.588 5.887-9.07 2.807-8.865 2.651-18.787 1.129-28.794-2.453-16.133-8.558-32.455-13.448-45.694-3.412-9.238-6.058-19.511-9.684-29.202-2.164-5.782-4.707-11.336-8.101-16.218-7.541-10.843-16.258-22.874-26.364-32.978-6.326-6.324-13.214-11.859-20.748-15.679-18.292-9.236-38.374-10.65-58.604-8.238-32.205 3.84-64.756 17.447-92.286 27.98-13.831 5.297-28.026 11.569-41.875 18.536-13.779 6.932-27.184 14.584-39.538 22.639-1.391.908-7.136 6.132-12.292 9.24Z"/><path d="M346.123 680.561c-.53 1.37-.948 2.712-1.146 3.888-1.129 6.718 1.366 11.792 4.873 14.936 2.197 1.97 4.86 3.517 7.893 4.597-2.49 2.499-5.601 5.82-7.942 8.967-3.476 4.672-5.317 9.477-5.596 12.807-.554 6.615 1.983 11.682 7.58 15.019 3.948 2.353 8.648 3.784 13.852 4.327a284.484 284.484 0 0 0-7.051 8.409c-.898 1.114-5.996 6.779-9.816 12.854-3.074 4.889-5.234 10.108-5.739 14.376-.925 7.827 1.789 14.119 8.677 18.146 4.307 2.518 9.124 4.109 14.289 4.867l-.119.276c-1.444 3.742-1.304 7.023-.587 9.559 1.054 3.725 3.312 6.824 7.422 8.771.846.4 1.726.751 2.64 1.049-3.258 4.863-6.654 10.837-7.303 15.337-1.091 7.565 1.587 13.417 7.998 16.958 4.556 2.516 9.651 3.737 15.06 3.808-.994 2.808-1.435 5.398-1.399 7.221.133 6.617 3.622 10.437 8.525 12.184 8.257 2.941 19.319.11 30.143-7.92 3.709-2.751 7.479-6.079 11.128-9.616a329.219 329.219 0 0 0-4.528 12.878c-3.496 10.689-6.39 21.653-8.207 33.144-.415 2.623-3.132 18.141-2.13 26.676 1.082 9.206 6.629 13.782 11.678 14.743.435.082.868.147 1.298.191l-3.674 11.6c-1.12 3.499-4.194 10.44-4.441 13.81-.275 3.737.883 6.539 2.269 8.427a14.008 14.008 0 0 0 2.074 2.29c-.413.564-.81 1.129-1.193 1.693-7.51 11.07-9.443 22.424-5.843 31.117 1.635 3.949 4.614 7.148 9.05 8.824.56 3.185 1.662 5.756 3.03 7.53 1.296 1.682 2.75 2.92 4.339 3.741-.976 4.644-1.677 9.94-.985 13.736.99 5.43 3.928 9.157 8.126 11.037 5.214 2.334 10.641 2.571 16.031 1.03-.937 4.28-1.778 9.51-1.685 14.018.117 5.712 1.828 10.517 4.546 13.517 8.391 9.262 19.474 8.929 30.93 1.644 6.155-3.914 12.495-10.142 18.09-16.466-2.794 7.039-5.18 13.842-6.127 19.989-.371 2.413-1.595 15.656.303 20.074 1.945 4.526 5.37 6.435 9.065 6.705l.625.033c-1.706 3.873-3.799 9.039-4.402 12.957-.682 4.428.241 8.075 1.838 10.466 2.253 3.371 5.062 4.766 7.847 5.222 2.529.414 5.357.012 8.227-1.68 2.135-1.258 4.604-4.01 6.979-7.036l-.049.194c-.564 2.289-1.78 8.569-1.823 13.516-.036 4.244 1 7.809 2.354 9.835 3.993 5.977 9.704 7.342 16.092 5.446 6.682-1.983 14.737-9.732 16.841-11.842 11.559-11.601 21.647-24.466 32.603-36.582 3.394-3.754 6.875-7.434 10.525-10.968-3.563 5.755-6.861 10.748-7.881 12.894-1.885 3.962-6.344 13.756-6.443 16.221-.173 4.263 1.988 6.633 3.85 7.921 1.699 1.175 5.91 3.572 11.316-.756a75.594 75.594 0 0 0 5.077-4.466l-.153.511c-.545 1.933-3.59 12.019-3.141 17.679.461 5.804 3.595 9.251 7.437 10.562 5.713 1.949 12.845.648 20.122-3.377-.888 2.763-2.753 9.09-2.85 13.12-.129 5.361 2.469 8.789 5.014 10.286 4.877 2.869 10.87 2.679 16.944-.316 7.78-3.836 16.024-12.854 18.773-15.726a159.221 159.221 0 0 0 10.478-12.147l-.744 3.076c-.781 3.344-2.393 12.211-1.338 18.463 1.015 6.014 4.275 10.164 8.889 11.79 4.721 1.664 9.724.783 14.418-2.198 6.002-3.811 11.59-11.847 13.831-14.67 6.578-8.283 12.849-16.808 18.966-25.447 8.929-12.611 17.531-25.468 26.301-38.159l-8.422 27.97c-.855 3.409-4.266 23.625-.829 33.323 1.433 4.042 3.853 6.881 6.794 8.499 3.591 1.976 8.618 2.726 15.267-.955 10.618-5.879 19.869-16.067 27.803-27.969-.271 3.093-.305 6.704.387 9.586 1.211 5.053 4.243 8.525 8.481 9.965 8.432 2.866 17.359.084 25.539-6.693 12.314-10.201 23.242-29.989 27.585-37.531l6.403-11.49a22.878 22.878 0 0 0 .064 2.825c.937 9.953 7.124 12.647 13.247 11.357 8.36-1.761 16.917-7.167 24.991-14.667 14.583-13.546 27.958-34.085 36.918-45.01l12.451-15.984c-1.995 10.708-5.903 22.242-6.514 29.644-.084 1.02-.641 13.489.803 16.916 1.485 3.522 4.036 5.139 6.309 5.846 2.336.727 5.074.787 8.082-1.045 9.631-5.864 17.564-16.039 23.997-28.406 12.034-23.132 19.021-54.264 26.168-72.367 2.197-5.558 3.437-8.781 4.736-11.669.2-.445.402-.881.61-1.316 2.329-3.334 4.735-6.627 6.961-10.026 2.067-3.159 3.987-6.405 5.608-9.824 2.344-4.946.671-8.032.36-8.722-.538-1.189-3.373-4.422-7.069-5.385a767.857 767.857 0 0 0 4.969-17.691c.704-2.612 6.347-16.907 7.587-25.83.904-6.5-.768-11.467-2.869-13.94-2.307-2.718-5.193-4.438-8.533-5.039.135-.434.263-.868.383-1.299 2.77-9.957 1.325-18.706-4.081-24.191-6.305-6.399-16.902-7.638-28.948-3.715-6.308 2.054-13.14 5.442-19.5 9.074a15.215 15.215 0 0 0-1.749-2.668c-5.273-6.459-14.892-8.577-26.312-5.721-4.459 1.116-9.276 2.952-13.968 5.05-.817-3.733-2.648-6.978-5.398-9.512-3.794-3.497-10.153-6.261-20.379-5.423l-.964.152c.756-3.391.793-6.514.157-9.095-1.736-7.05-8.085-14.872-25.97-12.511-10.392 1.373-20.555 4.634-30.424 8.909a189.762 189.762 0 0 0-9.509 4.454c-2.326-2.269-5.538-3.94-9.909-4.686-15.831-2.7-32.494 1.633-48.532 9.499a159.4 159.4 0 0 0-9.049 4.824 18.806 18.806 0 0 0-2.442-4.452c-3.214-4.36-8.596-7.186-15.324-7.785-7.924-.706-18.264 1.961-22.698 3.559-11.195 4.037-22.114 9.227-32.807 14.983l-2.154 1.172c-11.711-2.176-24.673.243-37.72 5.675-6.518 2.713-13.084 6.201-19.501 10.058-1.101-4.875-4.112-7.856-7.602-9.543-5.313-2.569-11.508-3.28-18.003-2.412-9.929 1.325-20.842 6.764-27.589 10.206-12.293 6.273-23.723 13.771-34.407 22.243a240.898 240.898 0 0 0-17.446 15.291c-2.824.72-5.661 1.791-8.46 3.162-8.988 4.401-17.732 12.194-23.649 17.491-4.284 3.835-8.417 7.828-12.455 11.918a18.107 18.107 0 0 0-2.206-3.32c-.487-3.18-2.315-5.151-3.87-6.341-1.715-1.312-5.992-4.26-11.628-.61-3.654-.135-7.792.529-11.611 1.525 7.547-16.672 15.556-33.102 22.001-50.428 2.193-5.893-.325-9.186-.698-9.802-1.067-1.76-11.25-10.155-18.051-.069-.701 1.039-2.401 4.113-3.842 6.713 3.343-8.86 6.772-17.684 10.286-26.472 1.306-3.266 4.55-6.973 6.622-10.522 1.984-3.399 3.255-6.774 3.625-9.776.654-5.288-.779-10.037-5.163-14.035-4.384-3.996-8.559-3.683-11.904-2.513-2.25.787-4.707 2.403-6.489 5.515-.927 1.619-2.409 7.459-2.623 8.316l-9.508 22.094c-3.582 8.333-7.257 16.595-11.102 24.773a229.907 229.907 0 0 1 3.326-10.865c7.922-23.86 18.98-46.265 27.1-70.445 1.466-4.365.38-7.103-.045-8.248-1.796-4.84-5.262-7.003-9.605-7.507-1.758-.204-5.331-.327-9.049 2.806-.729.615-2.492 2.836-4.061 4.77l-.424-.244c-2.901-1.559-7.299-2.384-12.387-.678-4.908 1.645-12.075 6.815-13.236 7.624-7.295 5.084-14.201 10.714-20.499 16.943l-.967.979c-3.761 2.112-7.704 4.065-11.641 5.551-1.613.609-3.215 1.2-4.778 1.65 1.582-2.041 2.936-3.565 3.294-3.988 5.346-6.329 11.306-11.918 17.653-17.039 10.594-5.977 20.237-12.774 25.158-15.587l11.801-6.972c2.514-1.478 8.511-3.498 10.988-5.029 2.771-1.713 4.373-3.719 5.219-5.178 2.379-4.104 2.277-8.027.722-11.607-.85-1.956-2.432-4.776-6.352-6.608 1.814-3.778 1.324-6.831.827-8.743-1.327-5.103-4.609-9.629-12.454-9.629-7.887.02-16.799 2.735-25.755 7.317-10.997 5.625-22.278 14.077-31.561 21.42-3.976 1.472-8.047 2.761-12.078 3.707-3.911.918-7.777 1.638-11.342 1.593 2.538-3.54 5.427-7.549 5.91-8.143 8.511-10.464 22.481-25.834 37.821-38.085 5.375-2.412 9.999-4.618 13.295-6.051l20.535-9.732c2.318-1.131 8.037-3.881 9.233-4.869 3.86-3.188 4.699-6.802 4.96-8.895.499-3.998-.548-7.523-3.182-10.559-1.205-1.389-4.298-5.184-11.557-4.701-14.008.933-29.856 8.709-44.745 19.887l-1.178.896c-5.457 2.413-11.556 4.91-17.666 6.845 5.964-5.19 12.292-10.334 18.858-15.134 8.561-6.259 17.53-11.933 26.629-16.292a15.842 15.842 0 0 0 1.271-.673c10.352-6.072 6.398-15.947 5.885-17.231-1.257-3.149-4.411-9.039-13.411-8.759-.351.011-2.168-.014-4.826 1.019-.831.323-3.73 1.564-4.89 2.096l-12.387 5.644c-3.842 1.667-11.238 5.33-19.218 8.27a92.25 92.25 0 0 1 2.142-2.378c1.449-1.552 2.92-3.084 4.408-4.463l1.197-.707c2.439-1.437 8.538-4.862 10.072-5.975 3.423-2.483 4.617-5.164 5.053-6.177 1.834-4.262 1.341-7.883.273-10.713-1.091-2.889-2.975-5.505-6.205-7.351.39-.338.764-.69 1.112-1.062a20.68 20.68 0 0 0 2.382-3.063c5.851-9.247.985-15.411-1.147-17.854-2.407-2.757-6.575-5.955-13.43-4.881a17.008 17.008 0 0 0-4.491 1.383c-1.653.764-4.858 2.806-6.346 3.652l-11.796 7.708c-4.653 3.508-22.472 17.039-28.918 27.992-4.695 7.979-4.939 15.657-2.139 21.65 1.849 3.957 5.007 7.226 9.407 8.996Zm554.579 183.826c-7.93 1.248-15.664 3.896-23.206 7.201-5.026 2.202-9.965 4.697-14.813 7.32-1.248 4.055-3.035 7.795-4.827 10.341-5.946 8.445-16.131 17.949-27.366 23.409-8.83 4.291-18.274 6.095-27.064 4.172-4.19-.917-6.546-3.135-8.011-5.371-2.071-3.16-3.088-7.646-.523-12.837 2.004-4.057 9.181-10.645 13.143-13.243l16.151-9.703c-4.461 1.416-8.917 3.328-13.327 5.514-10.755 5.331-21.19 12.388-30.762 19.304-4.897 6.242-10.371 12.1-16.22 17.567-6.825 6.381-14.153 12.236-21.639 17.564-3.456 2.459-9.731 7.516-15.696 9.963-4.826 1.979-9.628 2.504-13.801 1.495-7.305-1.766-9.308-6.486-9.779-10.772-.265-2.413.085-5.575 2.273-8.834 1.87-2.787 7.855-7.365 10.713-9.584l29.425-20.493c5.034-3.466 10.599-7.577 16.559-11.892a103.34 103.34 0 0 0 1.897-2.539c.881-1.218 2.203-3.036 3.411-5.116-3.028.44-6.47 1.015-7.801 1.502-10.083 3.691-19.899 8.448-29.523 13.689-1.15.626-2.297 1.26-3.442 1.902-1.318 2.375-3.335 5.173-5.883 7.957-6.059 6.62-15.083 14.136-15.369 14.359-6.987 5.451-14.272 10.384-21.795 14.935-7.388 4.471-15.002 8.578-22.781 12.459-1.525.76-12.614 6.914-20.066 8.254-5.365.965-9.886-.031-12.954-1.875-2.541-1.528-4.175-3.304-5.194-5.168-6.241 6.335-13.039 12.611-19.819 17.502-9.855 7.109-19.95 11.31-28.763 11.288-1.691-.004-3.159-.207-4.436-.554-4.626 4.745-9.36 8.536-12.566 10.253-3.441 1.844-12.623 4.132-18.781 2.905-5.388-1.073-9.382-3.752-11.708-7.751l-.014.015a708.72 708.72 0 0 0-9.804 10.473c.695 1.154 1.22 2.618 1.358 4.477.095 1.293-1.096 6.676-1.851 8.783-1.081 3.015-2.161 5.511-3.426 7.991-1.159 2.274-2.483 4.536-4.149 7.199-2.781 4.446-7.932 13.285-14.315 21.936-2.963 7.639-5.484 15.275-7.609 22.383-.86 2.876-2.1 13.901-2.357 16.248 1.062.462 2.319-.308 3.632-.957 3.683-1.823 7.453-5.031 11.095-8.622 9.674-9.541 18.166-21.905 20.894-25.473l9.075-12.425c.898-1.176 2.437-3.982 3.411-5.082 1.595-1.802 3.294-2.659 4.48-3.066 3.21-1.1 6.013-.549 8.427 1.022 1.547 1.006 3.802 2.843 4.398 7.007 1.062 7.411-.304 15.749-3.071 24.402-4.473 13.99-12.932 29.045-15.513 41.617.498-.665.99-1.353 1.477-2.058 7.3-10.561 13.255-24.517 16.833-30.195l9.166-13.569c1.004-1.387 3.267-4.959 3.981-5.869 6.591-8.39 14.888-.285 15.714 1.386.277.558 2.175 3.465.016 8.278a190.782 190.782 0 0 1-2.955 6.279c1.291-1.379 2.579-2.442 3.762-3.148 5.54-3.305 9.238-.755 10.801.481 1.922 1.52 3.97 4.128 3.4 8.478-.216 1.648-3.815 8.014-5.164 10.696l-6.35 12.446c-5.198 11.024-10.315 22.406-14.634 34.023-2.827 7.604-5.313 15.308-7.242 23.079-.153.617-.347 2.033-.528 3.642 1.9-1.466 3.719-2.91 4.245-3.436 11.381-11.374 21.299-24.011 32.088-35.893 4.842-5.332 9.852-10.518 15.215-15.399.897-.817 15.164-13.452 21.481-16.104 6.534-2.744 10.994.077 13.02 2.961 1.188 1.692 1.957 4.334 1.917 7.623 2.11-2.856 4.232-5.615 5.91-7.025 2.549-2.141 5.093-2.856 7.001-2.92 3.885-.131 8.376 1.184 10.007 8.192.902 3.871.367 7.617-1.223 11.244-1.898 4.331-5.922 8.484-8.387 12.542-4.368 7.193-9.163 14.493-13.126 22.125-2.445 4.708-4.571 9.544-5.996 14.581-.169.597-.734 3.16-1.289 5.731 2.071-1.07 4.191-2.498 6.312-4.096 9.456-7.128 18.688-17.477 23.246-21.519l13.797-12.612c.806-.78 2.081-2.877 2.871-3.699 1.256-1.309 2.516-1.996 3.381-2.346 3.373-1.369 6.147-.601 8.333.953 1.392.99 3.703 2.931 3.702 7.363-.002 4.188-1.577 7.785-4.277 10.96-2.774 3.263-7.535 5.771-10.209 9.144-4.381 5.526-8.602 11.16-12.36 17.074-3.587 5.643-6.754 11.541-9.202 17.857 4.131-3.342 7.697-7.399 9.224-8.992 6.212-6.481 11.701-13.528 16.706-20.919 7.706-11.38 14.27-23.57 20.5-35.82l5.587-11.727c1.165-2.522 2.734-8.382 4.01-10.892.988-1.943 2.178-3.183 3.064-3.871 2.84-2.205 5.71-2.307 8.291-1.429 1.702.579 4.467 1.898 5.848 6.227.783 2.454.846 5.848.037 9.483-1.146 5.151-4.053 11.173-4.432 12.232-4.502 12.599-9.477 25.243-13.829 38.044-2.827 8.315-5.388 16.696-7.367 25.178-.249 1.069-.483 3.889-.659 6.568 2.607-2.782 5.84-6.279 6.816-7.51 6.38-8.045 12.46-16.325 18.393-24.715 9.013-12.746 17.689-25.744 26.545-38.568l18.435-26.195c.257-.324 6.749-7.03 9.456-9.477 7.733-6.993 15.06 3.47 15.174 4.79.38 4.411-.313 9.301-1.709 14.312-2.479 8.895-7.309 18.321-9.652 25.359l-10.037 33.488c-.453 1.819-.942 14.307-1.153 20.289 7.564-4.979 14.021-12.878 19.805-21.689 10.297-15.687 18.275-34.343 24.965-47.666.139-.276 4.68-12.885 8.587-19.563 2.715-4.64 6.155-7.126 8.248-7.775 3.986-1.237 6.772-.013 8.809 1.67 1.493 1.234 2.828 3.094 3.302 5.792.378 2.154-.597 6.933-1.063 9.33l-4.04 13.79c-3.825 12.299-9.062 24.676-13.072 37.202-1.625 5.076-3.039 10.176-4.034 15.31-.161.828-.291 3.108-.37 4.951.668-.221 1.334-.548 2.004-.914 2.587-1.414 5.077-3.629 7.485-6.174 8.981-9.492 16.412-23.489 19.71-29.251l11.475-20.707 8.09-17.118c.437-.986 3.579-11.989 7.244-17.703 2.423-3.777 5.473-5.956 8.048-6.743 4.162-1.272 7.101-.064 9.266 1.65 1.654 1.309 3.107 3.304 3.678 6.198.53 2.682-.78 8.642-.958 11.719-.152 2.63-3.356 20.385-5.435 31.687 3.94-2.852 7.806-6.629 11.604-10.71 11.813-12.694 22.372-28.844 29.834-37.991l17.244-22.241c.203-.24 4.213-4.528 7.818-7.232 2.651-1.99 5.357-3.137 7.207-3.446 5.073-.846 8.632 1.168 10.78 5.26 2.744 5.228 3.444 12.314 2.528 20.154-.768 6.57-2.701 13.819-4.374 20.414 2.102-3.808 4.027-7.925 5.846-12.185 3.504-8.208 6.523-16.979 9.254-25.54-3.122-1.023-5.525-3.137-5.725-3.443-.294-.45-2.922-4.175-.63-9.504.848-1.969 4.296-8.794 5.909-11.431l1.984-2.942c3.074-6.228 5.854-12.62 8.408-19.116 6.705-17.056 11.842-34.823 16.484-52.292.375-1.414 2.503-8.871 4.338-15.281l-.179.144a86.746 86.746 0 0 0-2.975 2.569 248.99 248.99 0 0 1-3.81 5.695l-8.703 11.693c-2.583 3.076-7.106 9.413-10.252 11.289-2.959 1.764-5.844 2.074-8.318 1.613-2.914-.543-5.905-2.051-8.02-5.966-1.269-2.351-2.097-6.011-.114-10.377 1.983-4.364 10.89-13.243 11.417-13.799 1.524-1.607 6.037-6.545 11.576-11.756 2.546-3.952 5.628-9.086 8.087-14.35 1.532-3.279 2.831-6.599 3.435-9.649.202-1.019.205-2.573.197-3.192-.827-.415-1.999.154-3.26.354-4.677.74-10.035 3.068-15.323 5.797-6.885 3.554-13.596 7.884-18.728 11.388a58.784 58.784 0 0 1-3.006 4.81c-4.277 6.163-9.708 11.505-14.646 14.336-5.259 3.016-10.405 3.575-14.602 2.312-3.108-.935-5.078-2.854-6.279-5.32-.862-1.768-2.123-5.156.22-9.491.352-.65 1.307-2.079 2.985-3.779 3.996-4.049 14.978-13.481 15.936-14.142l2.281-1.587.575-1.261.395-.924c-.466.03-.927.079-1.327.152-3.464.63-7.294 2.019-11.106 3.656-7.047 3.027-13.986 6.951-18.842 9.787-3.688 4.924-8.111 9.367-12.5 12.42-7.341 5.106-14.908 6.303-20.389 4.315-6.891-2.499-7.732-7.345-7.328-11.36.196-1.948.962-4.515 3.309-6.882 1.336-1.348 5.046-3.395 6.727-4.525l15.039-9.209.317-.181.295-.47c1.002-1.682 1.868-4.223 2.373-5.882-.896-.069-1.99-.109-2.962-.025l-6.332.936-15.889 7.1c-1.519 1.417-2.946 2.62-4.19 3.543-.186.137-13.199 8.805-18.48 10.377-8.742 2.601-13.353-2.602-14.866-6.618-.899-2.387-1.667-9.257 5.359-14.343 3.91-2.831 13.235-7.472 18.547-10.043 2.906-3.374 6.332-8.175 8.803-11.781Zm-425.276 168.27-.796.603c-4.161 2.943-8.038 3.652-10.428 3.658l-.14-.004c-.472 2.076-1.087 5.074-1.564 7.469.681-.335 1.363-.766 2.054-1.211 3.409-2.195 6.685-5.52 9.768-9.172l1.106-1.343Zm145.127-123.281-2.525 1.307c-10.685 5.518-20.606 12.112-29.881 19.54a195.477 195.477 0 0 0-4.901 4.056 18.28 18.28 0 0 1 1.821 4.78l.295-.177 20.877-13.622c5.451-5.722 10.375-11.402 14.314-15.884Z" style="fill-opacity:.85"/></svg>