<?xml version="1.0" encoding="UTF-8" standalone="no"?><!DOCTYPE svg PUBLIC "-//W3C//DTD SVG 1.1//EN" "http://www.w3.org/Graphics/SVG/1.1/DTD/svg11.dtd"><svg width="100%" height="100%" viewBox="0 0 187 249" version="1.1" xmlns="http://www.w3.org/2000/svg" xmlns:xlink="http://www.w3.org/1999/xlink" xml:space="preserve" xmlns:serif="http://www.serif.com/" style="fill-rule:evenodd;clip-rule:evenodd;stroke-linejoin:round;stroke-miterlimit:2"><path d="M27.947,22.976c-0.281,-0.254 -1.983,5.303 -2.064,5.752c-1.103,6.122 -0.964,12.561 -1.374,18.753c-1.151,17.365 -0.787,34.807 -0.787,52.198c-0,34.106 0.884,68.16 0.884,102.274c0,9.95 0.59,19.885 0.59,29.812c-0,2.538 -1.263,8.906 -0,11.235c0.5,0.922 7.053,0.532 7.864,0.532c9.367,0 18.355,-0.025 27.624,-1.505c28.362,-4.526 60.62,0.973 89.548,0.973c3.901,0 27.864,0.002 30.18,-2.033c1.821,-1.6 0.847,-21.823 0.49,-24.241c-3.225,-21.825 -4.331,-44.114 -6.879,-66.087c-4.322,-37.269 0.415,-75.19 -3.049,-112.445c-0.7,-7.523 -0.098,-15.356 -0.098,-22.914c0,-0.451 2.142,-9.478 1.575,-9.731c-3.046,-1.359 -9.897,0.217 -13.075,0.352c-10.389,0.444 -20.772,1.042 -31.161,1.505c-22.968,1.025 -45.846,3.043 -68.714,4.068c-10.235,0.458 -22.569,-4.169 -32.536,-1.946c-2.033,0.454 0.525,13.11 1.867,13.713" style="fill:#fff"/><path d="M22.837,21.976c-0.715,1.878 -1.76,5.482 -1.828,5.874c-0.344,2 -0.572,4.029 -0.726,6.072c-0.33,4.407 -0.317,8.884 -0.572,13.241c-0.412,7.033 -0.581,14.076 -0.624,21.123c-0.064,10.466 0.146,20.937 0.226,31.393l1.581,102.274l0.764,29.812c0.009,1.706 -0.541,5.144 -0.517,7.922c0.018,2.042 0.37,3.823 1.001,4.97c0.384,0.699 1.26,1.675 2.922,2.071c2.033,0.486 7.241,0.238 7.996,0.233c5.695,-0.03 11.25,-0.071 16.811,-0.43c3.76,-0.243 7.523,-0.628 11.331,-1.253c8.472,-1.392 17.303,-1.874 26.29,-1.867c20.902,0.016 42.63,2.612 62.74,2.544c2.869,-0.004 16.457,-0.026 24.568,-0.826c3.895,-0.385 6.719,-1.253 7.536,-1.973c0.444,-0.391 0.979,-1.11 1.305,-2.25c0.283,-0.992 0.495,-2.574 0.61,-4.495c0.404,-6.783 -0.22,-18.295 -0.489,-20.107c-0.957,-6.519 -1.73,-13.079 -2.397,-19.661c-1.561,-15.427 -2.579,-30.968 -4.318,-46.354c-0.827,-7.383 -1.296,-14.789 -1.537,-22.211c-0.975,-30.052 1.67,-60.334 -0.953,-90.217c-0.188,-2.171 -0.259,-4.368 -0.27,-6.577c-0.028,-5.337 0.301,-10.736 0.335,-16.004c0.002,-0.352 1.443,-6.107 1.679,-8.403c0.314,-3.064 -1.71,-4.54 -2.298,-4.807c-1.394,-0.632 -3.34,-0.924 -5.507,-0.901c-3.232,0.034 -7.111,0.763 -9.286,0.842l-31.179,1.284l-68.737,3.562c-6.904,0.255 -14.762,-1.923 -22.177,-2.568c-3.893,-0.339 -7.679,-0.284 -11.215,0.474c-1.419,0.305 -2.727,1.144 -3.642,2.778c-0.517,0.923 -0.959,2.564 -0.956,4.661c0.003,2.798 0.72,6.879 1.533,9.774Zm145.502,-13.142l-0.845,0.06c-2.912,0.209 -6.068,0.805 -7.951,0.898l-31.145,1.725l-68.69,4.573c-7.248,0.382 -15.547,-1.674 -23.346,-2.226c-1.173,-0.084 -2.332,-0.128 -3.469,-0.111c0.88,2.363 1.123,5.809 -0.085,6.456c1.074,1.412 1.362,3.352 0.584,5.082c-0.289,0.644 -0.698,1.196 -1.189,1.642c-0.463,1.127 -1.413,2.498 -1.446,2.673c-0.426,2.265 -0.667,4.577 -0.832,6.905c-0.266,3.77 -0.344,7.574 -0.618,11.288c-0.508,6.861 -0.777,13.735 -0.924,20.615c-0.224,10.421 -0.173,20.852 -0.253,31.265l0.188,102.274l0.416,29.812c-0.008,1.512 -0.453,4.35 -0.578,6.929c-0.023,0.461 -0.066,0.911 -0.081,1.32c1.739,0.033 4.574,0.087 4.985,0.089c5.559,0.029 10.982,0.053 16.413,-0.244c3.547,-0.194 7.097,-0.525 10.692,-1.082c8.823,-1.367 18.011,-1.784 27.357,-1.702c20.897,0.183 42.603,2.902 62.71,2.971c2.18,0.003 10.668,0.016 18.081,-0.334c3.692,-0.174 7.108,-0.431 9.269,-0.841c0.179,-0.034 0.379,-0.081 0.564,-0.129c0.055,-0.279 0.112,-0.605 0.146,-0.894c0.324,-2.784 0.336,-7.224 0.237,-11.301c-0.107,-4.424 -0.343,-8.42 -0.487,-9.398c-0.982,-6.601 -1.765,-13.245 -2.465,-19.909c-1.618,-15.395 -2.753,-30.9 -4.578,-46.25c-0.905,-7.536 -1.438,-15.1 -1.753,-22.68c-1.244,-29.902 1.062,-60.067 -1.856,-89.783c-0.235,-2.362 -0.346,-4.754 -0.389,-7.159c-0.096,-5.363 0.163,-10.794 0.13,-16.088c-0.002,-0.277 0.726,-3.663 1.208,-6.446Zm-142.193,18.807l0.027,0.009l-0.054,-0.02l0.027,0.011Zm-0.205,-0.085c-0.483,-0.21 -0.94,-0.502 -1.352,-0.875c0.423,0.39 0.877,0.675 1.352,0.875Z"/><path d="M38.17,33.415c0,-2.719 -1.37,5.452 -1.474,6.369c-0.516,4.541 -0.777,9.055 -0.885,13.625c-0.322,13.622 1.464,27.009 1.769,40.61c0.742,33.063 0.162,66.441 1.672,99.44c0.366,7.976 -2.901,23.885 1.277,31.229c0.729,1.28 15.014,-1.427 16.419,-1.593c17.096,-2.019 33.265,-3.186 50.525,-3.186c12.325,0 26.362,0.382 38.437,2.478c4.182,0.726 7.944,1.319 11.992,2.654c0.422,0.139 5.745,1.739 5.8,1.592c2.029,-5.348 -0.844,-13.875 -2.067,-19.196c-2.459,-10.699 -3.497,-22.013 -4.815,-32.91c-2.134,-17.639 -5.896,-36.673 -4.523,-54.499c1.787,-23.216 5.74,-45.332 0.589,-68.477c-1.49,-6.696 -0.046,-20.126 -3.243,-25.921c-0.968,-1.753 -14.144,1.117 -15.531,1.326c-16.778,2.52 -33.442,4.584 -50.231,6.636c-10.377,1.268 -20.824,0.355 -31.259,0.355c-3.323,0 -12.877,-1.171 -12.877,-0.708" style="fill:#fff"/><path d="M39.797,28.169c-1.214,-0.435 -2.496,-0.465 -3.828,0.173c-0.55,0.264 -1.902,0.934 -2.633,2.883c-0.431,1.15 -1.449,7.159 -1.536,8.003c-0.245,2.355 -0.427,4.701 -0.553,7.052c-0.126,2.332 -0.201,4.666 -0.234,7.015c-0.06,4.194 0.07,8.363 0.3,12.522c0.521,9.433 1.548,18.811 1.85,28.301c0.713,23.118 0.786,46.393 1.367,69.582c0.25,9.998 0.591,19.978 1.123,29.924c0.286,5.418 -1.079,14.51 -0.657,22.077c0.233,4.169 1.009,7.922 2.592,10.66c0.408,0.707 1.842,2.033 4.493,2.041c4.027,0.013 14.071,-1.895 15.252,-2.042c8.491,-1.05 16.751,-1.895 25.035,-2.477c8.264,-0.579 16.549,-0.898 25.105,-0.934c7.29,-0.028 15.186,0.064 22.913,0.594c5.163,0.354 10.249,0.906 15.023,1.727c2.47,0.425 4.79,0.801 7.112,1.319c1.475,0.329 2.952,0.716 4.471,1.214c0.352,0.115 3.971,1.199 5.44,1.552c2.566,0.617 3.9,-1.48 3.981,-1.693c0.768,-2.034 0.993,-4.442 0.838,-6.994c-0.29,-4.765 -1.923,-10.106 -2.788,-13.882c-0.96,-4.211 -1.697,-8.52 -2.313,-12.86c-0.935,-6.588 -1.595,-13.248 -2.362,-19.758c-1.222,-10.532 -3.028,-21.565 -3.961,-32.536c-0.613,-7.201 -0.844,-14.374 -0.268,-21.353c1.174,-14.026 3.116,-27.647 3.407,-41.344c0.198,-9.317 -0.365,-18.668 -2.409,-28.201c-0.947,-4.419 -0.527,-11.822 -1.122,-17.917c-0.353,-3.615 -1.086,-6.83 -2.316,-9.105c-0.554,-1.027 -1.986,-2.33 -4.566,-2.58c-3.916,-0.38 -13.824,1.583 -15.052,1.756c-6.689,0.944 -13.358,1.814 -20.025,2.64c-10.04,1.245 -20.071,2.389 -30.149,3.528c-3.975,0.449 -7.957,0.556 -11.944,0.525c-6.247,-0.048 -12.504,-0.441 -18.761,-0.504c-2.539,-0.025 -8.763,-0.792 -11.43,-0.918c-0.533,-0.025 -1.001,-0.016 -1.395,0.01Zm107.007,0.882c-3.884,0.104 -11.105,1.816 -12.081,1.972c-6.717,1.071 -13.416,2.068 -20.113,3.021c-10.047,1.43 -20.088,2.758 -30.175,4.083c-3.262,0.429 -6.533,0.648 -9.809,0.754c-7.319,0.236 -14.666,-0.136 -22.004,-0.063c-2.237,0.022 -7.258,-0.446 -10.388,-0.627c-0.303,1.011 -0.613,1.913 -0.642,2.149c-0.269,2.187 -0.479,4.368 -0.637,6.553c-0.16,2.203 -0.272,4.409 -0.346,6.629c-0.131,3.971 -0.079,7.923 0.064,11.867c0.346,9.507 1.2,18.969 1.324,28.53c0.326,23.145 -0.004,46.437 0.202,69.651c0.088,9.929 0.277,19.843 0.652,29.724c0.211,5.423 -1.282,14.497 -0.964,22.07c0.098,2.333 0.34,4.508 0.975,6.286c4.159,-0.131 12.648,-1.702 13.7,-1.82c8.616,-0.969 16.997,-1.719 25.397,-2.225c8.401,-0.507 16.821,-0.772 25.514,-0.735c7.426,0.029 15.465,0.206 23.332,0.788c5.363,0.397 10.647,0.977 15.605,1.845c2.566,0.45 4.976,0.851 7.389,1.397c1.655,0.374 3.31,0.814 5.013,1.378c0.191,0.064 1.428,0.441 2.686,0.804c0.079,-1.203 -0.015,-2.498 -0.185,-3.818c-0.512,-3.963 -1.798,-8.113 -2.506,-11.177c-1.011,-4.363 -1.788,-8.828 -2.449,-13.325c-0.975,-6.627 -1.693,-13.326 -2.506,-19.876c-1.333,-10.581 -3.247,-21.662 -4.301,-32.687c-0.723,-7.556 -1.041,-15.086 -0.517,-22.422c0.977,-13.89 2.747,-27.388 2.839,-40.942c0.06,-8.758 -0.598,-17.538 -2.658,-26.467c-1.064,-4.61 -0.821,-12.36 -1.547,-18.73c-0.193,-1.696 -0.439,-3.276 -0.864,-4.587Zm-103.621,7.815c1.219,-1.079 1.575,-2.398 1.562,-3.627c-0,1.428 -0.6,2.717 -1.562,3.627Zm-9.995,-3.044l0,0.002l-0.002,-0.028l0.002,0.026Zm-0.012,-0.16l-0.006,-0.247c-0.001,0.086 0.001,0.168 0.006,0.247Z"/><path d="M112.019,41.318c0.787,1.409 1.689,3.038 2.375,3.806c1.713,1.962 3.457,3.864 5.125,5.863c1.069,1.282 2.101,2.58 3.079,3.937c1.731,2.525 3.643,5.117 5.565,7.828c1.216,1.716 2.459,3.459 3.666,5.248c3.003,4.452 6.027,8.988 9.205,13.254c2.955,3.967 5.932,7.684 9.044,10.945c2.073,1.822 5.235,1.618 7.057,-0.455c1.821,-2.073 1.617,-5.235 -0.456,-7.056c-5.433,-4.057 -10.972,-9.143 -15.912,-14.88c-1.947,-2.26 -3.816,-4.59 -5.494,-7c-2.661,-3.819 -4.853,-7.793 -6.944,-11.444l-6.934,-11.43c-0.422,-0.691 -0.753,-2.211 -1.148,-3.357c-0.45,-1.307 -1.011,-2.311 -1.307,-2.775c-1.068,-1.676 -2.633,-1.855 -3.463,-2.034c-1.362,-0.295 -5.23,-0.088 -5.729,5.362c-0,1.753 0.904,3.296 2.271,4.188Zm-1.031,-1.76c-0.019,-0.02 -0.036,-0.036 -0.036,-0.036l0.036,0.036Zm8.551,-0.998c0.161,-0.374 0.263,-0.841 0.209,-1.43c-0,0.497 -0.073,0.977 -0.209,1.43Z"/><g id="Light.up"><path d="M40.918,124.723c0.825,-0 -0.469,1.612 -0.588,2.442c-0.248,1.741 -0.091,3.584 -0.091,5.338c0,5.201 1.405,10.234 1.405,15.48c-0,9.224 0.313,18.65 -0.136,27.853c-0.176,3.606 -1.266,7.148 -1.721,10.72c-0.631,4.945 -0.59,9.977 -0.997,14.941c-0.527,6.416 -0.335,11.582 2.536,17.341c0.166,0.333 0.072,2.471 0.271,2.649c0.64,0.571 5.558,-0.987 6.521,-1.2c5.068,-1.119 10.679,-0.188 15.713,-1.449c23.35,-5.848 45.308,-1.161 68.644,-1.161c6.787,-0 15.297,2.676 22.155,2.866c5.825,0.161 -0.848,-20.962 -4.043,-43.477c-3.186,-22.452 2.599,-53.349 -6.58,-54.87c-6.935,-1.15 -100.481,1.361 -103.45,2.774c-0.048,0.023 0.827,0.581 0.905,0.622" style="fill:#fff" class="dark:hidden"/><path d="M41.792,119.788c-0.274,-0.039 -0.564,-0.061 -0.874,-0.065c-2.355,-0 -4.332,1.631 -4.859,3.826c-0.551,0.369 -0.556,2.267 -0.639,2.915c-0.091,0.706 -0.142,1.423 -0.154,2.146c-0.022,1.299 0.071,2.618 0.089,3.893c0.016,1.183 0.09,2.358 0.208,3.528c0.405,3.98 1.359,7.892 1.416,11.952c0.091,6.437 0.342,12.968 0.368,19.458c0.011,2.741 -0.018,5.473 -0.116,8.186c-0.034,0.924 -0.135,1.844 -0.274,2.761c-0.385,2.554 -0.99,5.093 -1.283,7.644c-0.181,1.57 -0.301,3.147 -0.385,4.728c-0.185,3.47 -0.205,6.956 -0.445,10.413c-0.241,3.476 -0.288,6.612 0.114,9.654c0.404,3.057 1.228,6.027 2.746,9.124c0.031,0.553 0.095,1.55 0.161,1.919c0.235,1.312 0.896,2.058 1.267,2.38c0.557,0.486 1.614,1.114 3.205,1.055c1.714,-0.063 5.67,-1.266 6.564,-1.474c3.902,-0.904 8.155,-0.519 12.181,-0.984c1.217,-0.14 2.418,-0.342 3.59,-0.648c8.972,-2.334 17.744,-3.062 26.479,-3.084c13.675,-0.034 27.254,1.6 41.324,1.509c1.308,-0.003 2.686,0.104 4.106,0.273c5.908,0.705 12.466,2.401 17.969,2.541c2.784,0.073 4.879,-1.727 5.222,-6.024c0.551,-6.916 -3.763,-23.452 -6.142,-40.78c-2.02,-15.205 0.099,-34.236 -1.152,-45.45c-0.45,-4.036 -1.407,-7.196 -2.808,-9.21c-1.3,-1.87 -3.004,-2.96 -5.075,-3.328c-3.924,-0.702 -35.393,-0.617 -62.827,-0.159c-15.975,0.266 -30.569,0.645 -37.483,1.072c-0.934,0.058 -1.767,0.137 -2.493,0.229Zm112.014,97.818c0.085,-0.2 0.188,-0.429 0.204,-0.643c0.511,-6.708 -4.007,-22.683 -6.466,-39.465c-1.952,-12.947 -0.971,-28.711 -1.518,-40.09c-0.178,-3.706 -0.516,-6.902 -1.239,-9.283c-0.203,-0.669 -0.44,-1.256 -0.727,-1.744c-0.181,-0.306 -0.336,-0.589 -0.642,-0.636c-2.869,-0.439 -20.736,-0.017 -40.724,0.694c-21.188,0.753 -44.718,1.889 -55.65,2.76c-0.627,0.05 -1.255,0.166 -1.845,0.297l-0.075,3.007c-0.057,4.025 0.776,7.956 1.066,11.967c0.084,1.165 0.135,2.334 0.118,3.513c-0.078,5.531 -0.047,11.134 -0.13,16.719c-0.056,3.8 -0.16,7.59 -0.393,11.343c-0.076,1.244 -0.238,2.482 -0.456,3.714c-0.432,2.448 -1.086,4.875 -1.429,7.322l-1.164,14.74c-0.276,2.908 -0.41,5.535 -0.137,8.092c0.248,2.322 0.822,4.584 1.931,6.96c1.193,-0.099 2.457,-0.057 2.806,-0.13c1.176,-0.247 2.376,-0.405 3.591,-0.5c4.008,-0.313 8.206,0.158 12.062,-0.765c7.161,-1.723 14.184,-2.495 21.153,-2.728c16.081,-0.537 31.856,1.869 48.333,1.98c1.534,0.003 3.15,0.13 4.814,0.336c5.41,0.67 11.373,2.233 16.517,2.54Z" class="dark:hidden"/><path d="M113.705,41.515c-0.745,0 -1.005,4.492 -1.155,5.439c-0.905,5.709 -0.542,11.651 -0.542,17.419c-0,6.774 0.046,13.411 0.271,20.168c0.03,0.92 -0.608,5.314 0.204,6.05c8.436,7.645 15.894,14.373 23.496,23.04c3.72,4.242 6.635,8.902 11.883,11.489c0.299,0.147 4.427,-34.127 3.347,-40.404c-0.962,-5.597 -1.774,-2.63 -5.587,-6.286c-5.851,-5.609 -9.54,-12.864 -14.465,-19.191c-4.25,-5.46 -6.779,-11.826 -10.321,-17.724c-0.986,-1.642 -1.266,-3.659 -2.921,-4.767c-1.204,-0.806 -5.757,-1.65 -2.988,-1.65" style="fill:#fff" class="dark:hidden"/><path d="M109.934,38.073c-0.461,0.48 -0.87,1.101 -1.181,1.903c-0.545,1.403 -0.855,5.262 -0.978,6.221c-0.323,2.505 -0.446,5.04 -0.438,7.588c0.01,3.538 0.237,7.09 0.337,10.588l0.791,20.295c0.042,0.72 -0.234,3.479 -0.026,5.143c0.213,1.713 0.917,2.916 1.584,3.493c5.147,4.479 9.944,8.617 14.617,13.076c3.04,2.901 6.022,5.937 9.037,9.27c2.316,2.58 4.349,5.305 6.757,7.647c1.781,1.732 3.749,3.274 6.139,4.438c0.238,0.116 3.671,0.752 4.257,-2.467c0.115,-0.629 0.289,-1.962 0.532,-3.779c1.261,-9.445 3.93,-32.258 3.117,-37.335c-0.446,-2.96 -1.148,-4.251 -1.789,-5.031c-0.584,-0.71 -1.249,-1.135 -2.082,-1.522c-0.561,-0.26 -1.354,-0.492 -2.562,-1.699c-1.584,-1.59 -2.974,-3.319 -4.277,-5.113c-3.308,-4.556 -6.03,-9.531 -9.379,-14.066c-1.121,-1.526 -2.082,-3.129 -2.985,-4.763c-2.321,-4.203 -4.191,-8.63 -6.567,-12.848c-0.69,-1.234 -1.035,-2.635 -1.75,-3.793c-0.619,-1.003 -1.444,-1.854 -2.48,-2.595c-0.361,-0.258 -1.144,-0.616 -1.948,-0.949c-0.915,-1.029 -2.249,-1.677 -3.733,-1.677c-1.483,0.047 -2.297,0.289 -2.639,0.436c-1.875,0.805 -2.606,2.036 -2.916,2.992c-0.273,0.839 -0.403,1.695 -0.215,2.581c0.111,0.524 0.292,1.25 0.777,1.966Zm8.115,7.82c-0.295,0.791 -0.674,1.55 -0.724,1.818c-0.391,2.075 -0.61,4.185 -0.726,6.313c-0.189,3.452 -0.16,6.931 -0.257,10.349l-0.249,20.041c0.005,0.607 0.729,3.714 -0.021,4.532c4.61,4.351 8.924,8.453 13.158,12.792c3.037,3.111 6.039,6.332 9.05,9.874c2.164,2.525 4.024,5.21 6.297,7.494c0.358,0.359 0.727,0.709 1.112,1.043c1.149,-9.295 3.114,-30.176 2.25,-34.871c-0.109,-0.567 -0.281,-1.179 -0.393,-1.55c-0.257,-0.101 -0.609,-0.244 -0.88,-0.368c-0.9,-0.412 -2.022,-1.071 -3.469,-2.402c-1.928,-1.766 -3.641,-3.702 -5.258,-5.716c-3.502,-4.363 -6.462,-9.155 -10.014,-13.487c-1.434,-1.74 -2.692,-3.578 -3.874,-5.462c-2.125,-3.387 -3.942,-6.95 -6.002,-10.4Zm-3.353,0.524c-0.32,0.064 -0.652,0.098 -0.991,0.098c0.334,0.01 0.665,-0.024 0.991,-0.098Z" class="dark:hidden"/><path d="M7.856,86.886c22.791,-0 46.364,-1.635 69.565,-0.514c13.199,0.638 26.284,0.011 38.022,5.462c4.353,2.022 16.088,19.284 22.385,24.574c3.235,2.718 7.265,9.386 10.925,11.467c2.004,1.139 -17.794,0.478 -23.781,0.478c-22.04,-0 -63.299,5.839 -81.5,-6.741c-9.208,-6.364 -20.383,-14.967 -28.029,-23.208c-0.642,-0.691 -11.908,-10.377 -9.343,-12.8c1.535,-1.45 1.293,0.483 1.293,1.622" style="fill:#fff" class="dark:hidden"/><path d="M10.924,81.931c-0.842,-0.97 -1.887,-1.566 -3.152,-1.737c-1.006,-0.136 -2.907,-0.291 -5.06,1.824c-1.925,1.892 -2.795,5.244 -0.453,9.098c2.451,4.034 9.277,9.883 9.801,10.427c3.263,3.394 7.111,6.847 11.19,10.171c5.92,4.824 12.302,9.396 17.965,13.164c6.417,4.289 15.367,6.571 25.396,7.549c19.564,1.91 43.363,-0.963 58.361,-1.128c4.541,-0.009 16.965,0.327 21.977,0.027c1.371,-0.082 2.344,-0.264 2.785,-0.427c1.21,-0.448 1.668,-1.272 1.875,-1.808c0.369,-0.957 0.617,-2.582 -1.417,-3.746c-0.943,-0.54 -1.889,-1.489 -2.861,-2.561c-2.651,-2.927 -5.321,-6.726 -7.592,-8.65c-4.487,-3.835 -11.741,-13.975 -17.002,-19.971c-2.379,-2.711 -4.512,-4.624 -5.917,-5.295c-5.038,-2.415 -10.324,-3.763 -15.764,-4.582c-7.595,-1.143 -15.505,-1.203 -23.452,-1.702c-6.999,-0.453 -14.034,-0.649 -21.075,-0.729c-15.298,-0.173 -30.612,0.254 -45.605,0.076Zm136.225,48.376c0.053,0.033 0.108,0.066 0.166,0.099l-0.166,-0.099Zm-5.091,-4.671c-2.162,-2.529 -4.282,-5.404 -6.141,-6.953c-4.696,-3.877 -12.398,-14.176 -17.946,-20.256c-1.632,-1.788 -2.953,-3.196 -3.906,-3.626c-4.476,-2.013 -9.152,-3.07 -13.948,-3.662c-7.424,-0.917 -15.128,-0.715 -22.879,-0.978c-6.869,-0.22 -13.764,-0.197 -20.662,-0.039c-13.868,0.315 -27.731,1.158 -41.375,1.58c1.807,1.86 3.399,3.311 3.624,3.564c3.621,4.042 8.086,8.189 12.749,12.111c4.747,3.994 9.685,7.762 14.155,10.97c7.047,5.029 17.94,6.981 29.704,7.689c17.447,1.05 36.75,-0.765 49.539,-0.63c3.409,0.007 11.331,0.249 17.086,0.23Z" class="dark:hidden"/><path d="M12.53,39.658c0,-1.244 -1.138,5.853 -1.196,6.321c-0.321,2.599 -0.463,5.192 -0.884,7.785c-1.207,7.418 -2.859,14.951 -3.144,22.471c-0.126,3.329 -0.782,6.485 -1.377,9.731c-0.119,0.652 -0.392,1.948 -0.392,1.948l1.867,0c3.031,0 6.133,-0.196 9.14,0.177c6.787,0.84 13.454,1.509 20.252,2.477c11.591,1.651 22.986,-1.122 34.503,-1.681c9.008,-0.437 17.875,0.761 26.836,-0.444c3.373,-0.453 13.839,2.003 16.318,-0.176c1.184,-1.041 0,-9.871 0,-11.591c0,-10.291 -0.589,-20.314 -1.179,-30.52c-0.094,-1.613 1.09,-8.773 -0,-9.731c-2.375,-2.086 -14.346,1.574 -17.009,1.857c-16.994,1.81 -33.976,4.776 -51.115,4.776c-8.201,-0 -15.841,-2.21 -23.985,-2.21c-2.76,-0 -8.359,-0.859 -7.04,-0.596" style="fill:#fff" class="dark:hidden"/><path d="M12.665,35.358c-2.195,-0.424 -4.492,0.164 -5.174,3.579c-0.313,1.57 -0.952,6.063 -0.992,6.446l-0.711,7.623c-0.642,4.486 -1.442,9.014 -2.015,13.553c-0.4,3.171 -0.7,6.344 -0.764,9.513c-0.024,1.182 -0.119,2.34 -0.261,3.49c-0.234,1.89 -0.57,3.758 -0.885,5.658l-0.339,1.851c-0.254,1.209 0.05,2.468 0.829,3.428c0.779,0.959 1.948,1.516 3.184,1.516l1.867,-0.031c1.8,-0.03 3.623,-0.132 5.438,-0.14c1.08,-0.004 2.157,0.019 3.221,0.133l20.227,2.145c3.685,0.472 7.343,0.535 10.991,0.359c8.075,-0.388 16.086,-1.954 24.171,-2.443c6.269,-0.357 12.476,0.08 18.69,-0.055c2.792,-0.061 5.585,-0.228 8.385,-0.623c2.485,-0.342 8.89,0.943 12.968,0.688c2.185,-0.137 3.891,-0.745 4.868,-1.608c0.63,-0.555 1.399,-2.088 1.489,-4.3c0.125,-3.073 -0.49,-8.192 -0.487,-9.464c0.026,-4.142 -0.05,-8.241 -0.168,-12.327c-0.177,-6.124 -0.462,-12.217 -0.757,-18.377c-0.055,-1.173 0.609,-5.293 0.547,-7.793c-0.053,-2.142 -0.871,-3.617 -1.543,-4.224c-1.021,-0.921 -3.029,-1.559 -5.652,-1.489c-4.567,0.121 -11.88,2.127 -13.899,2.314c-10.205,0.921 -20.406,2.27 -30.638,3.122c-6.69,0.557 -13.388,0.888 -20.105,0.765c-6.439,-0.12 -12.494,-1.648 -18.753,-2.323c-1.727,-0.187 -3.467,-0.308 -5.232,-0.344c-1.801,-0.037 -4.913,-0.527 -6.115,-0.694c-0.55,-0.076 -0.917,-0.095 -1.031,-0.099c-0.57,-0.02 -1.019,0.057 -1.354,0.151Zm96.799,3.766c-4.286,0.291 -10.955,2.436 -12.826,2.661c-11.909,1.464 -23.8,3.482 -35.759,4.678c-5.229,0.523 -10.468,0.89 -15.729,0.986c-1.755,0.032 -3.486,-0.037 -5.205,-0.155c-6.301,-0.433 -12.393,-1.72 -18.78,-1.598c-1.24,0.025 -3.011,-0.097 -4.559,-0.233c-0.236,0.589 -0.424,1.023 -0.437,1.113l-1.058,7.946c-0.804,4.409 -1.771,8.853 -2.504,13.318c-0.467,2.848 -0.844,5.701 -1.004,8.558c-0.081,1.473 -0.245,2.915 -0.47,4.343c-0.165,1.044 -0.359,2.081 -0.564,3.12c0.792,0 1.585,0.007 2.376,0.03c1.37,0.041 2.734,0.124 4.081,0.314l20.276,2.809c3.256,0.511 6.499,0.655 9.738,0.584c8.044,-0.178 16.05,-1.567 24.106,-1.861c6.349,-0.254 12.621,0.299 18.91,0.256c2.558,-0.018 5.118,-0.138 7.687,-0.466c2.299,-0.302 7.766,0.65 11.982,0.743c0.749,0.016 1.448,0.003 2.06,-0.071c0.088,-0.011 0.187,-0.029 0.287,-0.049c0.22,-2.808 -0.528,-8.194 -0.531,-9.474c-0.026,-4.069 -0.138,-8.094 -0.319,-12.105c-0.275,-6.078 -0.7,-12.121 -1.115,-18.232c-0.068,-0.98 -1.076,-5.097 -0.643,-7.215Zm-101.871,1.326c-0.042,-0.258 -0.063,-0.522 -0.063,-0.792c-0.006,0.311 0.022,0.574 0.063,0.792Zm7.645,-5.071c-0.039,-0.011 -0.084,-0.021 -0.136,-0.031l0.136,0.031Z" class="dark:hidden"/></g><g id="Dark.down"><path d="M147.769,136.765c-0.783,-0 0.445,-1.73 0.558,-2.62c0.236,-1.868 0.086,-3.846 0.086,-5.727c0,-5.58 -1.333,-10.981 -1.333,-16.608c0,-9.896 -0.298,-20.01 0.129,-29.884c0.167,-3.868 1.201,-7.668 1.634,-11.501c0.598,-5.305 0.559,-10.704 0.946,-16.03c0.499,-6.884 0.318,-12.426 -2.407,-18.605c-0.158,-0.357 -0.069,-2.652 -0.258,-2.843c-0.607,-0.612 -5.274,1.06 -6.189,1.288c-4.81,1.201 -10.135,0.202 -14.913,1.555c-22.162,6.274 -43.003,1.246 -65.151,1.246c-6.442,-0 -9.85,-1.071 -16.36,-1.275c-5.528,-0.172 -3.864,20.69 -0.831,44.845c3.024,24.089 -2.467,57.238 6.245,58.87c6.582,1.234 95.369,-1.46 98.187,-2.977c0.045,-0.024 -0.785,-0.623 -0.859,-0.666" style="fill:#fff" class="hidden dark:block"/><path d="M146.939,141.708c0.262,0.034 0.538,0.053 0.83,0.057c2.292,-0 4.226,-1.546 4.814,-3.651l0.068,-0.163c0.035,-0.099 0.071,-0.199 0.107,-0.299l0.043,-0.146c0.384,-0.578 0.377,-2.139 0.444,-2.74l0.044,-6.348c-0.018,-1.242 -0.088,-2.475 -0.201,-3.703c-0.393,-4.297 -1.307,-8.523 -1.37,-12.905c-0.084,-5.932 -0.282,-11.938 -0.356,-17.928c-0.05,-3.942 -0.046,-7.875 0.073,-11.773c0.032,-1.021 0.129,-2.038 0.262,-3.052c0.361,-2.731 0.93,-5.447 1.203,-8.174l0.759,-16.207c0.219,-3.652 0.259,-6.948 -0.114,-10.145c-0.381,-3.262 -1.164,-6.426 -2.613,-9.734c-0.026,-0.556 -0.088,-1.712 -0.153,-2.127c-0.194,-1.24 -0.778,-1.965 -1.086,-2.269c-0.574,-0.568 -1.644,-1.259 -3.282,-1.196c-1.652,0.064 -5.474,1.361 -6.336,1.586c-3.686,0.962 -7.706,0.538 -11.509,1.031c-1.176,0.152 -2.336,0.371 -3.468,0.705c-8.46,2.474 -16.734,3.237 -24.972,3.249c-12.991,0.02 -25.89,-1.755 -39.255,-1.678c-1.745,0.004 -3.255,-0.075 -4.666,-0.194c-3.775,-0.32 -6.887,-0.905 -11.603,-1.041c-1.942,-0.057 -3.623,0.859 -4.794,3.041c-0.848,1.582 -1.438,4.133 -1.683,7.486c-0.609,8.329 0.661,22.314 2.505,37.599c1.883,16.177 -0.1,36.396 1.007,48.46c0.382,4.172 1.194,7.487 2.413,9.644c1.287,2.275 3.075,3.545 5.203,3.97c3.733,0.75 33.677,0.629 59.779,0.095c15.183,-0.31 29.052,-0.742 35.618,-1.212c0.849,-0.061 1.614,-0.144 2.289,-0.238Zm-2.938,-104.598c-0.977,0.256 -1.92,0.501 -2.206,0.569c-1.138,0.272 -2.297,0.447 -3.471,0.552c-3.781,0.339 -7.74,-0.166 -11.378,0.822c-6.818,1.866 -13.505,2.712 -20.14,2.976c-15.284,0.607 -30.276,-1.959 -45.935,-2.055c-1.935,-0.005 -3.609,-0.1 -5.173,-0.24c-3.477,-0.31 -6.373,-0.859 -10.567,-1.045c-0.024,0.415 -0.66,1.042 -0.818,1.807c-0.587,2.837 -0.656,7.078 -0.406,12.252c0.37,7.66 1.481,17.271 2.822,27.476c1.855,13.777 0.967,30.529 1.477,42.703c0.168,4.012 0.486,7.488 1.157,10.111c0.201,0.788 0.439,1.481 0.723,2.065c0.172,0.354 0.212,0.734 0.511,0.786c2.716,0.474 19.619,0.03 38.528,-0.701c20.1,-0.778 42.419,-1.955 52.781,-2.871c0.522,-0.046 1.043,-0.142 1.539,-0.254l0.092,-3.645c0.062,-4.347 -0.723,-8.59 -0.992,-12.921c-0.076,-1.222 -0.12,-2.45 -0.103,-3.687c0.098,-6.932 0.056,-13.97 0.208,-20.957c0.066,-3.051 0.164,-6.091 0.333,-9.11c0.073,-1.301 0.225,-2.596 0.428,-3.885c0.416,-2.638 1.043,-5.254 1.374,-7.891l1.133,-15.853c0.27,-3.162 0.402,-6.021 0.146,-8.802c-0.247,-2.684 -0.843,-5.294 -2.02,-8.05c-0.014,-0.034 -0.029,-0.085 -0.043,-0.152Z" class="hidden dark:block"/><path d="M112.784,223.71c-0.743,0 -1.002,-4.492 -1.151,-5.439c-0.902,-5.708 -0.54,-11.65 -0.54,-17.418c-0,-6.775 0.046,-13.411 0.27,-20.168c0.03,-0.921 -0.606,-5.315 0.203,-6.05c8.406,-7.646 15.838,-14.373 23.413,-23.041c3.706,-4.241 6.612,-8.901 11.841,-11.488c0.297,-0.147 4.411,34.127 3.335,40.404c-0.959,5.596 -1.768,2.629 -5.568,6.286c-5.83,5.609 -9.505,12.863 -14.413,19.191c-4.234,5.46 -6.755,11.825 -10.284,17.723c-0.983,1.643 -1.262,3.66 -2.911,4.767c-1.2,0.806 -5.737,1.651 -2.978,1.651" style="fill:#fff" class="hidden dark:block"/><path d="M109.013,227.152c-0.479,0.708 -0.661,1.424 -0.774,1.943c-0.165,0.756 -0.306,5.839 5.762,6.033c1.486,-0 2.822,-0.65 3.737,-1.681c0.802,-0.334 1.581,-0.692 1.941,-0.95c1.034,-0.741 1.857,-1.594 2.475,-2.599c0.711,-1.157 1.055,-2.558 1.742,-3.791c2.366,-4.217 4.229,-8.643 6.542,-12.846c0.899,-1.634 1.857,-3.238 2.973,-4.763c3.336,-4.536 6.048,-9.509 9.344,-14.065c1.298,-1.794 2.683,-3.523 4.261,-5.113c1.205,-1.208 1.996,-1.438 2.554,-1.699c0.833,-0.389 1.499,-0.816 2.082,-1.532c0.635,-0.78 1.331,-2.07 1.774,-5.019c0.81,-5.077 -1.852,-27.888 -3.109,-37.332c-0.241,-1.817 -0.415,-3.15 -0.529,-3.779c-0.079,-0.435 -0.169,-0.717 -0.216,-0.845c-0.993,-2.689 -3.371,-1.952 -4.045,-1.622c-2.384,1.166 -4.347,2.709 -6.123,4.442c-2.398,2.342 -4.424,5.067 -6.731,7.646c-3.003,3.332 -5.975,6.368 -9.004,9.269c-4.657,4.46 -9.437,8.598 -14.567,13.077c-0.664,0.577 -1.366,1.779 -1.578,3.491c-0.206,1.664 0.068,4.421 0.026,5.141l-0.79,20.295c-0.1,3.497 -0.327,7.05 -0.338,10.587c-0.007,2.548 0.114,5.082 0.435,7.586c0.123,0.958 0.43,4.812 0.972,6.215c0.312,0.806 0.722,1.43 1.184,1.911Zm35.633,-82.062c-0.377,0.33 -0.739,0.674 -1.091,1.028c-2.264,2.283 -4.116,4.967 -6.271,7.491c-3.001,3.542 -5.992,6.763 -9.017,9.873c-4.219,4.339 -8.518,8.442 -13.111,12.793c0.752,0.816 0.025,3.929 0.02,4.536l0.25,20.042c0.098,3.418 0.069,6.897 0.257,10.349c0.117,2.128 0.335,4.239 0.725,6.315c0.05,0.264 0.417,1.004 0.711,1.782c2.042,-3.438 3.848,-6.986 5.957,-10.36c1.178,-1.884 2.432,-3.722 3.861,-5.463c3.54,-4.331 6.49,-9.123 9.979,-13.486c1.612,-2.015 3.32,-3.952 5.242,-5.719c1.761,-1.626 3.59,-2.473 4.336,-2.775c0.111,-0.371 0.281,-0.981 0.39,-1.547c0.86,-4.693 -1.093,-25.556 -2.238,-34.859Zm-30.867,73.72c-0.328,-0.075 -0.659,-0.11 -0.995,-0.1c0.34,0 0.673,0.034 0.995,0.1Z" class="hidden dark:block"/><path d="M7.311,178.34c22.71,0 46.199,1.634 69.317,0.513c13.152,-0.638 26.191,-0.011 37.888,-5.462c4.337,-2.021 16.03,-19.284 22.305,-24.574c3.223,-2.717 7.24,-9.386 10.887,-11.467c1.997,-1.139 -17.732,-0.477 -23.697,-0.477c-21.962,0 -63.074,-5.84 -81.21,6.74c-9.176,6.365 -20.311,14.968 -27.93,23.208c-0.64,0.692 -11.866,10.378 -9.31,12.8c1.53,1.451 1.288,-0.482 1.288,-1.621" style="fill:#fff" class="hidden dark:block"/><path d="M10.381,183.295c14.936,-0.178 30.191,0.249 45.43,0.076c7.017,-0.08 14.026,-0.276 21.001,-0.729c7.921,-0.499 15.804,-0.559 23.374,-1.702c5.422,-0.82 10.69,-2.168 15.712,-4.583c1.4,-0.672 3.528,-2.587 5.9,-5.299c5.242,-5.997 12.468,-16.135 16.938,-19.97c2.263,-1.924 4.923,-5.722 7.565,-8.649c0.968,-1.072 1.91,-2.02 2.849,-2.56c2.017,-1.159 1.78,-2.773 1.42,-3.725c-0.204,-0.542 -0.661,-1.372 -1.876,-1.825c-0.44,-0.164 -1.412,-0.347 -2.782,-0.429c-4.994,-0.3 -17.376,0.035 -21.901,0.027c-14.947,-0.165 -38.666,-3.038 -58.163,-1.127c-9.995,0.979 -18.914,3.262 -25.309,7.553c-5.645,3.768 -12.007,8.341 -17.907,13.167c-4.064,3.323 -7.898,6.776 -11.149,10.169c-0.523,0.544 -7.329,6.396 -9.77,10.431c-2.328,3.847 -1.462,7.192 0.454,9.081c2.167,2.137 4.082,1.969 5.092,1.826c1.25,-0.176 2.287,-0.769 3.122,-1.732Zm130.648,-43.705c-5.735,-0.019 -13.623,0.223 -17.018,0.23c-12.745,0.134 -31.981,-1.681 -49.368,-0.631c-11.715,0.708 -22.563,2.659 -29.581,7.685c-4.454,3.208 -9.374,6.977 -14.105,10.971c-4.644,3.921 -9.092,8.067 -12.699,12.109c-0.225,0.253 -1.814,1.706 -3.617,3.57c13.591,0.422 27.401,1.264 41.217,1.58c6.873,0.157 13.743,0.18 20.587,-0.04c7.723,-0.263 15.4,-0.061 22.798,-0.978c4.776,-0.592 9.433,-1.649 13.89,-3.66c0.949,-0.43 2.265,-1.838 3.89,-3.625c5.53,-6.08 13.204,-16.378 17.884,-20.255c1.853,-1.55 3.967,-4.427 6.122,-6.956Zm5.072,-4.67l0.164,-0.098c-0.057,0.032 -0.112,0.065 -0.164,0.098Z" class="hidden dark:block"/><path d="M11.952,222.608c-0,1.245 -1.118,-2.893 -1.176,-3.362c-0.319,-2.599 -0.461,-5.192 -0.881,-7.785c-1.202,-7.417 -2.848,-14.95 -3.132,-22.471c-0.126,-3.328 -0.779,-6.484 -1.372,-9.73c-0.119,-0.652 -0.391,-1.949 -0.391,-1.949l1.86,0c3.021,0 6.111,0.196 9.108,-0.176c6.763,-0.84 13.406,-1.51 20.18,-2.478c11.55,-1.65 22.904,1.123 34.38,1.681c8.977,0.437 17.812,-0.761 26.741,0.444c3.362,0.454 13.79,-2.002 16.26,0.177c1.18,1.04 0,9.871 0,11.591c0,10.291 -0.586,20.314 -1.175,30.52c-0.093,1.613 1.087,8.772 0,9.731c-2.366,2.086 -14.295,-1.574 -16.948,-1.858c-16.934,-1.809 -33.855,-4.775 -50.934,-4.775c-8.172,-0 -24.405,0.44 -32.52,0.44" style="fill:#fff" class="hidden dark:block"/><path d="M13.548,227.556l30.924,-1.019c6.693,-0.124 13.368,0.206 20.034,0.763c10.195,0.852 20.36,2.204 30.528,3.127c2.013,0.187 9.3,2.193 13.851,2.313c2.613,0.07 4.614,-0.567 5.631,-1.488c0.666,-0.604 1.477,-2.074 1.53,-4.208c0.062,-2.499 -0.596,-6.619 -0.541,-7.792c0.294,-6.16 0.575,-12.253 0.755,-18.377c0.119,-4.085 0.2,-8.184 0.177,-12.325c-0.002,-1.273 0.611,-6.39 0.49,-9.463c-0.087,-2.213 -0.854,-3.746 -1.481,-4.302c-0.975,-0.866 -2.679,-1.476 -4.862,-1.613c-4.063,-0.256 -10.445,1.029 -12.92,0.688c-2.792,-0.399 -5.576,-0.57 -8.359,-0.633c-6.191,-0.14 -12.375,0.297 -18.622,-0.063c-8.057,-0.491 -16.038,-2.061 -24.085,-2.45c-3.638,-0.176 -7.287,-0.113 -10.962,0.359l-20.155,2.138c-1.059,0.113 -2.129,0.136 -3.203,0.131c-1.809,-0.007 -3.625,-0.109 -5.418,-0.14l-1.86,-0.031c-1.247,-0 -2.428,0.562 -3.214,1.53c-0.786,0.968 -1.094,2.239 -0.838,3.459l0.337,1.85c0.314,1.9 0.648,3.767 0.88,5.658c0.142,1.148 0.236,2.306 0.26,3.486c0.061,3.17 0.357,6.345 0.755,9.517c0.568,4.54 1.366,9.068 2.005,13.553l0.706,7.623c0.056,0.544 1.068,4.368 1.511,5.236c1.776,3.478 4.985,2.853 6.146,2.473Zm97.593,-48.477l-0.273,-0.046c-0.609,-0.075 -1.304,-0.088 -2.048,-0.071c-4.204,0.093 -9.654,1.045 -11.945,0.743c-2.559,-0.325 -5.109,-0.441 -7.656,-0.457c-6.268,-0.037 -12.518,0.516 -18.845,0.264c-8.027,-0.292 -16.005,-1.678 -24.02,-1.854c-3.224,-0.07 -6.453,0.074 -9.694,0.584l-20.204,2.817c-1.344,0.19 -2.706,0.273 -4.074,0.314c-0.767,0.023 -1.536,0.03 -2.304,0.031c0.201,1.024 0.391,2.047 0.553,3.077c0.225,1.429 0.389,2.872 0.47,4.345c0.161,2.857 0.541,5.708 1.007,8.554c0.732,4.466 1.696,8.909 2.497,13.318l0.922,6.931l28.945,0.17c5.243,0.096 10.464,0.463 15.675,0.986c11.916,1.196 23.764,3.211 35.631,4.675c1.866,0.225 8.517,2.373 12.787,2.662c-0.442,-2.114 0.57,-6.251 0.638,-7.234c0.413,-6.111 0.839,-12.154 1.11,-18.232c0.179,-4.012 0.286,-8.038 0.309,-12.106c0.001,-1.279 0.739,-6.662 0.519,-9.471Zm-104.05,42.36c-0.089,0.32 -0.148,0.706 -0.139,1.169c-0,-0.402 0.047,-0.794 0.139,-1.169Z" class="hidden dark:block"/></g></svg>