<svg viewBox="0 0 775 1036" xmlns="http://www.w3.org/2000/svg" xml:space="preserve" style="fill-rule:evenodd;clip-rule:evenodd;stroke-linejoin:round;stroke-miterlimit:2"><path d="M114.208 95.735c-1.171-1.061-8.263 22.094-8.6 23.965-4.595 25.51-4.016 52.337-5.725 78.137-4.794 72.356-3.281 145.029-3.281 217.491 0 142.111 3.686 284 3.686 426.141 0 41.462 2.458 82.858 2.458 124.218 0 10.577-5.264 37.11 0 46.814 2.084 3.843 29.386 2.216 32.767 2.216 39.029 0 76.478-.106 115.098-6.269 118.178-18.862 252.583 4.053 373.12 4.053 16.254 0 116.097.009 125.75-8.474 7.584-6.665 3.528-90.925 2.039-101-13.438-90.939-18.047-183.811-28.664-275.363-18.007-155.289 1.731-313.292-12.704-468.522-2.915-31.344-.405-63.983-.405-95.477 0-1.879 8.924-39.49 6.561-40.545-12.692-5.662-41.236.904-54.477 1.469-43.291 1.849-86.551 4.338-129.841 6.27-95.697 4.271-191.025 12.677-286.307 16.948-42.645 1.911-94.036-17.371-135.566-8.107-8.47 1.89 2.187 54.624 7.777 57.137" style="fill:#fff"/><path d="M92.918 91.567c-2.98 7.823-7.337 22.843-7.618 24.475-1.435 8.332-2.385 16.785-3.023 25.3-1.377 18.364-1.321 37.014-2.385 55.171-1.716 29.305-2.422 58.651-2.602 88.013-.267 43.606.609 87.238.943 130.802l6.588 426.141 3.181 124.218c.041 7.109-2.252 21.434-2.151 33.01.073 8.508 1.542 15.926 4.17 20.706 1.601 2.913 5.252 6.979 12.175 8.632 8.47 2.023 30.171.988 33.317.971 23.727-.125 46.874-.296 70.043-1.793 15.67-1.012 31.349-2.616 47.216-5.223 35.299-5.8 72.094-7.807 109.54-7.778 87.091.069 177.624 10.884 261.419 10.599 11.951-.016 68.57-.107 102.363-3.442 16.229-1.602 27.998-5.221 31.403-8.22 1.847-1.628 4.076-4.625 5.434-9.375 1.182-4.133 2.066-10.723 2.543-18.727 1.685-28.266-.915-76.232-2.038-83.781-3.988-27.163-7.208-54.497-9.984-81.921-6.507-64.279-10.75-129.032-17.996-193.142-3.442-30.76-5.4-61.621-6.402-92.543-4.061-125.218 6.96-251.393-3.97-375.906-.783-9.046-1.081-18.201-1.128-27.404-.113-22.237 1.258-44.735 1.398-66.685.01-1.465 6.014-25.443 6.994-35.011 1.308-12.768-7.122-18.916-9.573-20.028-5.807-2.636-13.916-3.85-22.947-3.755-13.464.143-29.63 3.181-38.69 3.51l-129.913 5.348-286.404 14.842c-28.768 1.062-61.507-8.012-92.403-10.7-16.223-1.411-31.998-1.185-46.73 1.976-5.915 1.269-11.364 4.764-15.177 11.573-2.154 3.846-3.993 10.684-3.983 19.422.013 11.657 3.002 28.663 6.39 40.725Zm606.257-54.76-3.521.253c-12.133.87-25.285 3.353-33.131 3.738L532.754 47.99 246.546 67.042c-30.2 1.593-64.78-6.974-97.277-9.277-4.884-.347-9.713-.534-14.454-.462 3.669 9.846 4.682 24.206-.353 26.902 4.473 5.881 5.675 13.967 2.433 21.175a20.673 20.673 0 0 1-4.955 6.843c-1.93 4.694-5.887 10.408-6.024 11.135-1.774 9.436-2.781 19.073-3.465 28.769-1.108 15.71-1.433 31.559-2.577 47.035-2.114 28.588-3.236 57.231-3.85 85.897-.931 43.42-.72 86.883-1.052 130.269l.783 426.141 1.734 124.218c-.036 6.3-1.889 18.127-2.411 28.87-.093 1.922-.272 3.797-.336 5.501 7.246.139 19.058.362 20.771.371 23.16.122 45.756.222 68.385-1.016 14.779-.809 29.573-2.187 44.551-4.508 36.765-5.695 75.046-7.434 113.99-7.092 87.071.763 177.512 12.093 261.292 12.378 9.079.012 44.448.069 75.336-1.39 15.381-.727 29.615-1.797 38.62-3.504a35.498 35.498 0 0 0 2.348-.54 49.02 49.02 0 0 0 .609-3.725c1.351-11.597 1.402-30.1.991-47.087-.446-18.434-1.432-35.084-2.031-39.157-4.091-27.505-7.352-55.189-10.27-82.955-6.742-64.145-11.473-128.75-19.077-192.708-3.769-31.399-5.99-62.915-7.304-94.499-5.182-124.592 4.426-250.281-7.732-374.095-.979-9.842-1.442-19.81-1.622-29.832-.399-22.346.682-44.973.541-67.034-.008-1.152 3.028-15.261 5.035-26.858Zm-592.47 78.366.11.037-.223-.084.113.047Zm-.854-.356a20.646 20.646 0 0 1-5.633-3.644 19.387 19.387 0 0 0 5.633 3.644Z"/><path d="M156.805 139.231c0-11.331-5.709 22.713-6.143 26.536-2.149 18.922-3.236 37.73-3.686 56.77-1.341 56.759 6.1 112.538 7.372 169.207 3.091 137.764.671 276.839 6.966 414.336 1.521 33.233-12.09 99.521 5.32 130.12 3.035 5.334 62.558-5.946 68.41-6.637 71.234-8.412 138.606-13.274 210.524-13.274 51.351 0 109.84 1.588 160.152 10.322 17.424 3.025 33.1 5.499 49.968 11.058 1.758.579 23.935 7.248 24.167 6.637 8.453-22.287-3.517-57.815-8.613-79.987-10.247-44.578-14.57-91.72-20.064-137.124-8.891-73.494-24.567-152.804-18.847-227.079 7.45-96.733 23.917-188.881 2.457-285.319-6.208-27.901-.193-83.859-13.514-108.004-4.031-7.305-58.935 4.655-64.712 5.522-69.908 10.502-139.339 19.103-209.296 27.651-43.237 5.283-86.766 1.482-130.246 1.482-13.847 0-53.654-4.883-53.654-2.952" style="fill:#fff"/><path d="M163.584 117.372c-5.061-1.812-10.402-1.939-15.949.72-2.293 1.099-7.926 3.89-10.972 12.012-1.797 4.791-6.037 29.83-6.402 33.346a588.674 588.674 0 0 0-2.304 29.382 742.425 742.425 0 0 0-.974 29.232c-.249 17.472.293 34.843 1.25 52.174 2.169 39.304 6.452 78.377 7.71 117.919 2.969 96.325 3.275 193.304 5.695 289.928 1.043 41.656 2.46 83.242 4.68 124.682 1.191 22.575-4.499 60.46-2.74 91.987.97 17.37 4.203 33.008 10.8 44.419 1.702 2.943 7.675 8.467 18.721 8.503 16.78.055 58.631-7.898 63.551-8.507 35.379-4.379 69.798-7.9 104.314-10.321a1581.517 1581.517 0 0 1 104.604-3.895c30.375-.118 63.274.27 95.468 2.477 21.513 1.475 42.705 3.774 62.598 7.196 10.289 1.771 19.957 3.338 29.633 5.496 6.147 1.37 12.299 2.98 18.628 5.056 1.466.481 16.545 4.999 22.667 6.469 10.693 2.568 16.251-6.166 16.587-7.057 3.2-8.475 4.138-18.505 3.492-29.141-1.208-19.852-8.012-42.107-11.614-57.839-4.001-17.549-7.073-35.501-9.64-53.587-3.896-27.448-6.647-55.198-9.842-82.324-5.091-43.884-12.616-89.852-16.506-135.566-2.553-30.004-3.515-59.892-1.113-88.97 4.892-58.442 12.983-115.195 14.195-172.268.825-38.822-1.521-77.781-10.036-117.501-3.947-18.415-2.198-49.259-4.677-74.659-1.469-15.06-4.523-28.458-9.65-37.934-2.31-4.278-8.274-9.71-19.026-10.753-16.316-1.582-57.598 6.599-62.716 7.32-27.87 3.931-55.658 7.556-83.436 11-41.834 5.186-83.632 9.952-125.623 14.699-16.561 1.871-33.153 2.318-49.764 2.189-26.033-.203-52.103-1.841-78.173-2.101-10.58-.105-36.514-3.301-47.624-3.824a50.92 50.92 0 0 0-5.812.041Zm445.863 3.674c-16.185.435-46.273 7.568-50.339 8.216-27.988 4.463-55.9 8.617-83.804 12.588-41.864 5.958-83.699 11.494-125.729 17.014-13.593 1.785-27.22 2.698-40.87 3.138-30.499.985-61.111-.564-91.685-.262-9.319.093-30.241-1.857-43.283-2.611-1.262 4.211-2.553 7.972-2.674 8.954a547.968 547.968 0 0 0-2.657 27.304 701.888 701.888 0 0 0-1.438 27.622c-.546 16.545-.331 33.01.267 49.444 1.441 39.616 4.997 79.04 5.517 118.878 1.356 96.438-.018 193.485.84 290.213.367 41.37 1.154 82.676 2.718 123.85.877 22.593-5.342 60.403-4.019 91.957.408 9.721 1.417 18.783 4.062 26.19 17.332-.546 52.701-7.092 57.084-7.584 35.899-4.035 70.82-7.159 105.82-9.27 35.004-2.111 70.087-3.215 106.311-3.063 30.938.12 64.437.861 97.215 3.285 22.346 1.653 44.363 4.069 65.022 7.687 10.691 1.873 20.734 3.546 30.785 5.819 6.896 1.559 13.793 3.394 20.891 5.745.794.263 5.948 1.835 11.189 3.349.329-5.012-.062-10.41-.771-15.907-2.132-16.516-7.492-33.807-10.442-46.574-4.213-18.179-7.449-36.781-10.204-55.518-4.06-27.614-7.051-55.529-10.441-82.819-5.554-44.089-13.529-90.257-17.922-136.196-3.011-31.482-4.337-62.859-2.153-93.426 4.07-57.874 11.446-114.116 11.831-170.588.248-36.494-2.493-73.078-11.076-110.28-4.433-19.21-3.423-51.5-6.446-78.044-.805-7.065-1.829-13.648-3.599-19.111Zm-431.755 32.563c5.079-4.497 6.561-9.993 6.507-15.113 0 5.95-2.499 11.32-6.507 15.113Zm-41.647-12.685.002.008-.009-.115.007.107Zm-.048-.666-.026-1.027c-.003.356.005.698.026 1.027Z"/><path d="M464.507 172.157c3.278 5.874 7.04 12.658 9.895 15.861 7.141 8.175 14.407 16.1 21.356 24.429 4.455 5.34 8.756 10.748 12.83 16.404 7.211 10.52 15.178 21.32 23.186 32.617 5.067 7.149 10.245 14.411 15.276 21.867 12.512 18.546 25.113 37.449 38.355 55.225 12.311 16.526 24.714 32.017 37.683 45.603 8.637 7.591 21.811 6.741 29.402-1.896 7.59-8.637 6.74-21.812-1.897-29.402-22.638-16.901-45.719-38.093-66.304-61.998-8.109-9.417-15.896-19.124-22.89-29.165-11.086-15.915-20.222-32.474-28.933-47.684l-28.892-47.628c-1.757-2.878-3.137-9.212-4.783-13.988-1.875-5.442-4.213-9.629-5.444-11.56-4.449-6.982-10.973-7.729-14.431-8.476-5.676-1.226-21.791-.365-23.871 22.343 0 7.303 3.766 13.733 9.462 17.448Zm-4.294-7.33c-.082-.087-.151-.152-.151-.152l.151.152Zm35.628-4.159c.671-1.558 1.096-3.505.871-5.959 0 2.071-.303 4.072-.871 5.959Z"/><path d="M168.255 519.678c3.438 0-1.957 6.719-2.45 10.174-1.036 7.255-.38 14.937-.38 22.245 0 21.669 5.852 42.642 5.852 64.498 0 38.433 1.308 77.709-.566 116.056-.734 15.023-5.272 29.781-7.17 44.666-2.627 20.603-2.457 41.57-4.154 62.253-2.194 26.734-1.396 48.259 10.566 72.255.692 1.389.301 10.298 1.132 11.039 2.665 2.379 23.155-4.114 27.171-5.001 21.114-4.662 44.493-.785 65.468-6.038 97.291-24.365 188.783-4.838 286.016-4.838 28.281 0 63.739 11.151 92.316 11.941 24.268.671-3.534-87.342-16.848-181.152-13.276-93.551 10.829-222.287-27.417-228.627-28.896-4.791-418.672 5.672-431.041 11.56-.199.095 3.446 2.421 3.769 2.59" style="fill:#fff"/><path d="M171.896 499.118a28.91 28.91 0 0 0-3.641-.273c-9.812 0-18.05 6.799-20.249 15.941-2.295 1.537-2.314 9.448-2.661 12.145a81.029 81.029 0 0 0-.643 8.945c-.089 5.411.296 10.908.372 16.221.069 4.93.374 9.825.869 14.7 1.686 16.584 5.66 32.882 5.899 49.798.379 26.82 1.425 54.035 1.533 81.077.046 11.418-.077 22.802-.486 34.109-.139 3.849-.561 7.681-1.137 11.504-1.606 10.641-4.129 21.221-5.349 31.847-.751 6.543-1.253 13.114-1.604 19.703-.771 14.456-.853 28.983-1.853 43.386-1.006 14.483-1.202 27.551.474 40.224 1.685 12.738 5.118 25.114 11.443 38.017.126 2.305.395 6.458.67 7.996.979 5.466 3.732 8.574 5.278 9.918 2.323 2.023 6.728 4.64 13.355 4.395 7.142-.264 23.627-5.276 27.351-6.141 16.26-3.769 33.978-2.162 50.752-4.1 5.074-.586 10.078-1.425 14.962-2.702 37.38-9.724 73.931-12.756 110.326-12.848 56.98-.143 113.56 6.664 172.183 6.287 5.452-.013 11.194.433 17.108 1.138 24.618 2.935 51.941 10.005 74.874 10.587 11.6.303 20.329-7.196 21.756-25.102 2.295-28.815-15.677-97.714-25.591-169.913-8.418-63.354.412-142.652-4.798-189.377-1.875-16.816-5.866-29.983-11.701-38.375-5.418-7.791-12.519-12.332-21.145-13.867-16.352-2.926-147.473-2.571-261.782-.663-66.562 1.111-127.368 2.689-156.176 4.467-3.893.24-7.364.572-10.389.956Zm466.725 407.573c.352-.834.781-1.786.849-2.677 2.131-27.951-16.694-94.513-26.94-164.439-8.136-53.945-4.049-119.628-6.328-167.04-.742-15.441-2.149-28.76-5.16-38.679-.847-2.791-1.833-5.236-3.03-7.268-.752-1.277-1.399-2.453-2.673-2.649-11.955-1.83-86.402-.071-169.685 2.89-88.283 3.14-186.324 7.869-231.875 11.499-2.611.208-5.228.692-7.686 1.238l-.316 12.531c-.237 16.771 3.237 33.15 4.444 49.863.35 4.852.561 9.725.492 14.635-.326 23.046-.199 46.394-.542 69.664-.234 15.834-.668 31.626-1.638 47.263-.318 5.184-.992 10.34-1.899 15.474-1.801 10.2-4.525 20.311-5.955 30.507l-4.851 61.416c-1.147 12.117-1.708 23.062-.569 33.719 1.034 9.673 3.425 19.1 8.046 29.001 4.969-.415 10.236-.238 11.69-.542 4.902-1.029 9.9-1.69 14.962-2.085 16.702-1.304 34.192.657 50.26-3.189 29.836-7.177 59.1-10.393 88.135-11.363 67.006-2.24 132.735 7.785 201.388 8.247 6.394.015 13.128.543 20.06 1.401 22.542 2.792 47.388 9.306 68.821 10.583Z"/><path d="M471.532 172.981c-3.104 0-4.187 18.717-4.813 22.661-3.77 23.787-2.257 48.545-2.257 72.579 0 28.226.191 55.879 1.129 84.032.127 3.836-2.533 22.144.848 25.208 35.153 31.857 66.228 59.889 97.901 96.002 15.499 17.673 27.649 37.091 49.515 47.87 1.244.613 18.444-142.196 13.946-168.349-4.01-23.321-7.393-10.958-23.282-26.192-24.379-23.373-39.747-53.599-60.268-79.964-17.708-22.749-28.247-49.272-43.005-73.847-4.11-6.844-5.276-15.248-12.171-19.862-5.018-3.359-23.988-6.878-12.451-6.878" style="fill:#fff"/><path d="M455.82 158.639c-1.92 1.998-3.624 4.588-4.922 7.93-2.27 5.845-3.56 21.921-4.075 25.92-1.346 10.436-1.855 20.997-1.824 31.614.044 14.742.99 29.545 1.405 44.118l3.294 84.562c.177 3-.972 14.495-.109 21.43.889 7.137 3.822 12.149 6.603 14.556 21.446 18.662 41.433 35.901 60.904 54.481 12.665 12.086 25.092 24.739 37.654 38.624 9.649 10.751 18.119 22.106 28.154 31.865 7.419 7.216 15.62 13.639 25.579 18.491.991.483 15.295 3.134 17.738-10.279.477-2.621 1.204-8.174 2.215-15.745 5.254-39.355 16.377-134.409 12.99-155.565-1.861-12.334-4.786-17.712-7.455-20.961-2.432-2.959-5.205-4.728-8.675-6.341-2.337-1.087-5.642-2.052-10.677-7.082-6.599-6.623-12.39-13.829-17.818-21.303-13.784-18.984-25.128-39.71-39.082-58.609-4.669-6.357-8.674-13.038-12.435-19.847-9.672-17.511-17.465-35.958-27.364-53.531-2.875-5.14-4.314-10.981-7.291-15.804-2.581-4.181-6.016-7.726-10.333-10.812-1.504-1.075-4.766-2.567-8.116-3.956-3.814-4.287-9.372-6.987-15.556-6.987-6.179.198-9.571 1.204-10.996 1.816-7.811 3.357-10.857 8.484-12.151 12.466-1.136 3.498-1.677 7.064-.894 10.755.465 2.185 1.216 5.207 3.237 8.194Zm33.815 32.581c-1.23 3.296-2.809 6.46-3.019 7.576-1.629 8.646-2.542 17.439-3.026 26.304-.786 14.384-.664 28.88-1.07 43.121l-1.037 83.503c.02 2.529 3.039 15.474-.086 18.884 19.207 18.128 37.181 35.222 54.825 53.3 12.651 12.962 25.16 26.384 37.708 41.144 9.016 10.52 16.764 21.708 26.236 31.222a87.817 87.817 0 0 0 4.633 4.347c4.789-38.73 12.974-125.733 9.378-145.295-.457-2.365-1.172-4.913-1.638-6.457a82.892 82.892 0 0 1-3.668-1.537c-3.751-1.716-8.426-4.461-14.452-10.006-8.036-7.358-15.172-15.425-21.91-23.82-14.592-18.178-26.927-38.145-41.727-56.194-5.975-7.251-11.214-14.908-16.139-22.758-8.855-14.113-16.428-28.958-25.008-43.334Zm-13.973 2.182a20.735 20.735 0 0 1-4.13.412c1.394.041 2.77-.101 4.13-.412Z"/><path d="M30.497 362.023c94.962 0 193.182-6.809 289.852-2.138 54.995 2.658 109.515.046 158.425 22.758 18.139 8.424 67.032 80.35 93.271 102.392 13.478 11.322 30.272 39.107 45.523 47.778 8.349 4.747-74.145 1.989-99.09 1.989-91.833 0-263.743 24.333-339.581-28.084-38.369-26.52-84.93-62.366-116.789-96.699-2.675-2.883-49.615-43.239-38.93-53.334 6.398-6.045 5.388 2.01 5.388 6.755" style="fill:#fff"/><path d="M43.279 341.378c-3.508-4.042-7.863-6.524-13.132-7.237-4.195-.568-12.113-1.213-21.085 7.602-8.022 7.882-11.644 21.85-1.888 37.908 10.211 16.808 38.654 41.179 40.84 43.446 13.593 14.139 29.628 28.526 46.624 42.377 24.665 20.1 51.257 39.149 74.855 54.85 26.737 17.872 64.028 27.379 105.813 31.457 81.517 7.955 180.68-4.016 243.172-4.701 18.921-.037 70.687 1.36 91.57.111 5.713-.341 9.768-1.099 11.605-1.779 5.041-1.867 6.951-5.298 7.812-7.532 1.537-3.987 2.571-10.76-5.903-15.611-3.93-2.25-7.871-6.202-11.919-10.67-11.049-12.195-22.173-28.024-31.637-36.04-18.694-15.978-48.92-58.23-70.841-83.215-9.909-11.294-18.798-19.266-24.651-22.063-20.992-10.059-43.018-15.676-65.686-19.089-31.647-4.763-64.602-5.013-97.717-7.092-29.163-1.886-58.472-2.705-87.811-3.037-63.742-.721-127.551 1.056-190.021.315Zm567.603 201.568c.221.139.452.276.691.411l-.691-.411Zm-21.21-19.463c-9.008-10.535-17.843-22.518-25.587-28.971-19.567-16.156-51.659-59.067-74.778-84.399-6.798-7.449-12.304-13.318-16.274-15.108-18.648-8.387-38.132-12.791-58.117-15.259-30.933-3.821-63.034-2.981-95.33-4.075-28.619-.916-57.348-.819-86.088-.165-57.786 1.317-115.549 4.828-172.396 6.584 7.529 7.753 14.159 13.797 15.1 14.85 15.085 16.845 33.691 34.122 53.12 50.466 19.779 16.639 40.354 32.341 58.979 45.707 29.36 20.952 74.749 29.089 123.765 32.038 72.697 4.375 153.125-3.188 206.412-2.626 14.203.027 47.215 1.038 71.194.958Z"/><path d="M49.971 165.242c0-5.185-4.742 24.387-4.983 26.338-1.337 10.829-1.929 21.633-3.686 32.438-5.026 30.907-11.909 62.294-13.097 93.629-.526 13.869-3.257 27.019-5.738 40.544-.498 2.716-1.634 8.119-1.634 8.119h7.777c12.633 0 25.554-.817 38.088.735 28.277 3.501 56.057 6.29 84.382 10.323 48.295 6.877 95.773-4.677 143.761-7.005 37.534-1.82 74.48 3.172 111.817-1.849 14.056-1.89 57.663 8.343 67.992-.734 4.934-4.337 0-41.13 0-48.297 0-42.88-2.454-84.642-4.915-127.168-.388-6.721 4.544-36.551 0-40.544-9.892-8.694-59.774 6.558-70.867 7.739-70.81 7.538-141.566 19.898-212.982 19.898-34.17 0-66.003-9.208-99.936-9.208-11.498 0-34.829-3.579-29.334-2.484" style="fill:#fff"/><path d="M50.532 147.326c-9.146-1.769-18.718.683-21.558 14.913-1.304 6.539-3.965 25.259-4.131 26.855l-2.962 31.766c-2.676 18.689-6.009 37.555-8.396 56.47-1.667 13.212-2.92 26.433-3.183 39.638-.104 4.923-.499 9.75-1.091 14.539-.973 7.878-2.373 15.661-3.687 23.577l-1.412 7.711a17.088 17.088 0 0 0 16.721 20.602l7.777-.131c7.501-.126 15.096-.551 22.66-.581 4.5-.017 8.986.077 13.423.551l84.278 8.94c15.353 1.967 30.597 2.226 45.795 1.496 33.647-1.617 67.024-8.144 100.711-10.182 26.124-1.487 51.985.337 77.877-.227 11.632-.253 23.269-.949 34.938-2.595 10.354-1.425 37.04 3.93 54.032 2.866 9.105-.57 16.214-3.104 20.282-6.701 2.625-2.312 5.829-8.699 6.205-17.917.521-12.805-2.041-34.131-2.028-39.433.109-17.258-.208-34.337-.701-51.361-.738-25.516-1.924-50.903-3.153-76.57-.227-4.891 2.539-22.056 2.281-32.471-.221-8.928-3.632-15.073-6.432-17.601-4.252-3.839-12.622-6.497-23.548-6.207-19.03.504-49.499 8.862-57.915 9.644-42.519 3.839-85.025 9.459-127.658 13.009-27.874 2.321-55.783 3.698-83.771 3.187-26.829-.501-52.055-6.867-78.135-9.681-7.197-.776-14.448-1.284-21.801-1.432-7.506-.152-20.471-2.196-25.48-2.892-2.29-.318-3.822-.394-4.297-.411-2.373-.085-4.244.238-5.641.629Zm403.33 15.691c-17.859 1.212-45.644 10.149-53.44 11.085-49.623 6.104-99.167 14.511-148.996 19.495-21.789 2.18-43.618 3.706-65.54 4.106-7.311.134-14.526-.152-21.688-.644-26.252-1.804-51.636-7.168-78.248-6.659-5.166.105-12.546-.406-18.995-.97-.985 2.452-1.769 4.26-1.823 4.636l-4.409 33.111c-3.347 18.37-7.379 36.885-10.43 55.491-1.946 11.865-3.519 23.752-4.185 35.658-.336 6.138-1.021 12.144-1.96 18.094-.687 4.352-1.492 8.673-2.346 13 3.299.002 6.602.028 9.896.126 5.71.17 11.395.518 17.004 1.308l84.486 11.705c13.565 2.127 27.079 2.728 40.573 2.431 33.517-.738 66.878-6.528 100.443-7.753 26.455-1.06 52.589 1.245 78.794 1.066 10.654-.073 21.321-.574 32.026-1.942 9.578-1.259 32.357 2.708 49.927 3.097 3.118.069 6.032.014 8.581-.298a15.13 15.13 0 0 0 1.197-.202c.916-11.7-2.2-34.143-2.212-39.475-.108-16.952-.575-33.725-1.331-50.438-1.146-25.325-2.917-50.505-4.644-75.967-.284-4.083-4.483-21.235-2.68-30.061Zm-424.461 5.525a20.506 20.506 0 0 1-.264-3.3 15.932 15.932 0 0 0 .264 3.3Zm31.854-21.129a5.942 5.942 0 0 0-.566-.128l.566.128Z"/></svg>