<?xml version="1.0" encoding="UTF-8" standalone="no"?><!DOCTYPE svg PUBLIC "-//W3C//DTD SVG 1.1//EN" "http://www.w3.org/Graphics/SVG/1.1/DTD/svg11.dtd"><svg width="100%" height="100%" viewBox="0 0 775 1036" version="1.1" xmlns="http://www.w3.org/2000/svg" xmlns:xlink="http://www.w3.org/1999/xlink" xml:space="preserve" xmlns:serif="http://www.serif.com/" style="fill-rule:evenodd;clip-rule:evenodd;stroke-linejoin:round;stroke-miterlimit:2;"><g id="Cara"></g><path d="M92.918,91.567c-2.98,7.823 -7.337,22.843 -7.618,24.475c-1.435,8.332 -2.385,16.785 -3.023,25.3c-1.377,18.364 -1.321,37.014 -2.385,55.171c-1.716,29.305 -2.422,58.651 -2.602,88.013c-0.267,43.606 0.609,87.238 0.943,130.802l6.588,426.141l3.181,124.218c0.041,7.109 -2.252,21.434 -2.151,33.01c0.073,8.508 1.542,15.926 4.17,20.706c1.601,2.913 5.252,6.979 12.175,8.632c8.47,2.023 30.171,0.988 33.317,0.971c23.727,-0.125 46.874,-0.296 70.043,-1.793c15.67,-1.012 31.349,-2.616 47.216,-5.223c35.299,-5.8 72.094,-7.807 109.54,-7.778c87.091,0.069 177.624,10.884 261.419,10.599c11.951,-0.016 68.57,-0.107 102.363,-3.442c16.229,-1.602 27.998,-5.221 31.403,-8.22c1.847,-1.628 4.076,-4.625 5.434,-9.375c1.182,-4.133 2.066,-10.723 2.543,-18.727c1.685,-28.266 -0.915,-76.232 -2.038,-83.781c-3.988,-27.163 -7.208,-54.497 -9.984,-81.921c-6.507,-64.279 -10.75,-129.032 -17.996,-193.142c-3.442,-30.76 -5.4,-61.621 -6.402,-92.543c-4.061,-125.218 6.96,-251.393 -3.97,-375.906c-0.783,-9.046 -1.081,-18.201 -1.128,-27.404c-0.113,-22.237 1.258,-44.735 1.398,-66.685c0.01,-1.465 6.014,-25.443 6.994,-35.011c1.308,-12.768 -7.122,-18.916 -9.573,-20.028c-5.807,-2.636 -13.916,-3.85 -22.947,-3.755c-13.464,0.143 -29.63,3.181 -38.69,3.51l-129.913,5.348l-286.404,14.842c-28.768,1.062 -61.507,-8.012 -92.403,-10.7c-16.223,-1.411 -31.998,-1.185 -46.73,1.976c-5.915,1.269 -11.364,4.764 -15.177,11.573c-2.154,3.846 -3.993,10.684 -3.983,19.422c0.013,11.657 3.002,28.663 6.39,40.725Zm606.257,-54.76l-3.521,0.253c-12.133,0.87 -25.285,3.353 -33.131,3.738l-129.769,7.192l-286.208,19.052c-30.2,1.593 -64.78,-6.974 -97.277,-9.277c-4.884,-0.347 -9.713,-0.534 -14.454,-0.462c3.669,9.846 4.682,24.206 -0.353,26.902c4.473,5.881 5.675,13.967 2.433,21.175c-1.205,2.681 -2.908,4.982 -4.955,6.843c-1.93,4.694 -5.887,10.408 -6.024,11.135c-1.774,9.436 -2.781,19.073 -3.465,28.769c-1.108,15.71 -1.433,31.559 -2.577,47.035c-2.114,28.588 -3.236,57.231 -3.85,85.897c-0.931,43.42 -0.72,86.883 -1.052,130.269l0.783,426.141l1.734,124.218c-0.036,6.3 -1.889,18.127 -2.411,28.87c-0.093,1.922 -0.272,3.797 -0.336,5.501c7.246,0.139 19.058,0.362 20.771,0.371c23.16,0.122 45.756,0.222 68.385,-1.016c14.779,-0.809 29.573,-2.187 44.551,-4.508c36.765,-5.695 75.046,-7.434 113.99,-7.092c87.071,0.763 177.512,12.093 261.292,12.378c9.079,0.012 44.448,0.069 75.336,-1.39c15.381,-0.727 29.615,-1.797 38.62,-3.504c0.747,-0.141 1.579,-0.338 2.348,-0.54c0.231,-1.16 0.469,-2.521 0.609,-3.725c1.351,-11.597 1.402,-30.1 0.991,-47.087c-0.446,-18.434 -1.432,-35.084 -2.031,-39.157c-4.091,-27.505 -7.352,-55.189 -10.27,-82.955c-6.742,-64.145 -11.473,-128.75 -19.077,-192.708c-3.769,-31.399 -5.99,-62.915 -7.304,-94.499c-5.182,-124.592 4.426,-250.281 -7.732,-374.095c-0.979,-9.842 -1.442,-19.81 -1.622,-29.832c-0.399,-22.346 0.682,-44.973 0.541,-67.034c-0.008,-1.152 3.028,-15.261 5.035,-26.858Zm-592.47,78.366l0.11,0.037l-0.223,-0.084l0.113,0.047Zm-0.854,-0.356c-2.013,-0.875 -3.917,-2.09 -5.633,-3.644c1.762,1.622 3.653,2.809 5.633,3.644Z"/><path d="M163.584,117.372c-5.061,-1.812 -10.402,-1.939 -15.949,0.72c-2.293,1.099 -7.926,3.89 -10.972,12.012c-1.797,4.791 -6.037,29.83 -6.402,33.346c-1.021,9.812 -1.778,19.59 -2.304,29.382c-0.522,9.717 -0.834,19.445 -0.974,29.232c-0.249,17.472 0.293,34.843 1.25,52.174c2.169,39.304 6.452,78.377 7.71,117.919c2.969,96.325 3.275,193.304 5.695,289.928c1.043,41.656 2.46,83.242 4.68,124.682c1.191,22.575 -4.499,60.46 -2.74,91.987c0.97,17.37 4.203,33.008 10.8,44.419c1.702,2.943 7.675,8.467 18.721,8.503c16.78,0.055 58.631,-7.898 63.551,-8.507c35.379,-4.379 69.798,-7.9 104.314,-10.321c34.43,-2.416 68.952,-3.745 104.604,-3.895c30.375,-0.118 63.274,0.27 95.468,2.477c21.513,1.475 42.705,3.774 62.598,7.196c10.289,1.771 19.957,3.338 29.633,5.496c6.147,1.37 12.299,2.98 18.628,5.056c1.466,0.481 16.545,4.999 22.667,6.469c10.693,2.568 16.251,-6.166 16.587,-7.057c3.2,-8.475 4.138,-18.505 3.492,-29.141c-1.208,-19.852 -8.012,-42.107 -11.614,-57.839c-4.001,-17.549 -7.073,-35.501 -9.64,-53.587c-3.896,-27.448 -6.647,-55.198 -9.842,-82.324c-5.091,-43.884 -12.616,-89.852 -16.506,-135.566c-2.553,-30.004 -3.515,-59.892 -1.113,-88.97c4.892,-58.442 12.983,-115.195 14.195,-172.268c0.825,-38.822 -1.521,-77.781 -10.036,-117.501c-3.947,-18.415 -2.198,-49.259 -4.677,-74.659c-1.469,-15.06 -4.523,-28.458 -9.65,-37.934c-2.31,-4.278 -8.274,-9.71 -19.026,-10.753c-16.316,-1.582 -57.598,6.599 -62.716,7.32c-27.87,3.931 -55.658,7.556 -83.436,11c-41.834,5.186 -83.632,9.952 -125.623,14.699c-16.561,1.871 -33.153,2.318 -49.764,2.189c-26.033,-0.203 -52.103,-1.841 -78.173,-2.101c-10.58,-0.105 -36.514,-3.301 -47.624,-3.824c-2.22,-0.105 -4.172,-0.07 -5.812,0.041Zm445.863,3.674c-16.185,0.435 -46.273,7.568 -50.339,8.216c-27.988,4.463 -55.9,8.617 -83.804,12.588c-41.864,5.958 -83.699,11.494 -125.729,17.014c-13.593,1.785 -27.22,2.698 -40.87,3.138c-30.499,0.985 -61.111,-0.564 -91.685,-0.262c-9.319,0.093 -30.241,-1.857 -43.283,-2.611c-1.262,4.211 -2.553,7.972 -2.674,8.954c-1.122,9.114 -1.996,18.2 -2.657,27.304c-0.666,9.178 -1.132,18.37 -1.438,27.622c-0.546,16.545 -0.331,33.01 0.267,49.444c1.441,39.616 4.997,79.04 5.517,118.878c1.356,96.438 -0.018,193.485 0.84,290.213c0.367,41.37 1.154,82.676 2.718,123.85c0.877,22.593 -5.342,60.403 -4.019,91.957c0.408,9.721 1.417,18.783 4.062,26.19c17.332,-0.546 52.701,-7.092 57.084,-7.584c35.899,-4.035 70.82,-7.159 105.82,-9.27c35.004,-2.111 70.087,-3.215 106.311,-3.063c30.938,0.12 64.437,0.861 97.215,3.285c22.346,1.653 44.363,4.069 65.022,7.687c10.691,1.873 20.734,3.546 30.785,5.819c6.896,1.559 13.793,3.394 20.891,5.745c0.794,0.263 5.948,1.835 11.189,3.349c0.329,-5.012 -0.062,-10.41 -0.771,-15.907c-2.132,-16.516 -7.492,-33.807 -10.442,-46.574c-4.213,-18.179 -7.449,-36.781 -10.204,-55.518c-4.06,-27.614 -7.051,-55.529 -10.441,-82.819c-5.554,-44.089 -13.529,-90.257 -17.922,-136.196c-3.011,-31.482 -4.337,-62.859 -2.153,-93.426c4.07,-57.874 11.446,-114.116 11.831,-170.588c0.248,-36.494 -2.493,-73.078 -11.076,-110.28c-4.433,-19.21 -3.423,-51.5 -6.446,-78.044c-0.805,-7.065 -1.829,-13.648 -3.599,-19.111Zm-431.755,32.563c5.079,-4.497 6.561,-9.993 6.507,-15.113c0,5.95 -2.499,11.32 -6.507,15.113Zm-41.647,-12.685l0.002,0.008l-0.009,-0.115l0.007,0.107Zm-0.048,-0.666l-0.026,-1.027c-0.003,0.356 0.005,0.698 0.026,1.027Z"/><path d="M464.507,172.157c3.278,5.874 7.04,12.658 9.895,15.861c7.141,8.175 14.407,16.1 21.356,24.429c4.455,5.34 8.756,10.748 12.83,16.404c7.211,10.52 15.178,21.32 23.186,32.617c5.067,7.149 10.245,14.411 15.276,21.867c12.512,18.546 25.113,37.449 38.355,55.225c12.311,16.526 24.714,32.017 37.683,45.603c8.637,7.591 21.811,6.741 29.402,-1.896c7.59,-8.637 6.74,-21.812 -1.897,-29.402c-22.638,-16.901 -45.719,-38.093 -66.304,-61.998c-8.109,-9.417 -15.896,-19.124 -22.89,-29.165c-11.086,-15.915 -20.222,-32.474 -28.933,-47.684l-28.892,-47.628c-1.757,-2.878 -3.137,-9.212 -4.783,-13.988c-1.875,-5.442 -4.213,-9.629 -5.444,-11.56c-4.449,-6.982 -10.973,-7.729 -14.431,-8.476c-5.676,-1.226 -21.791,-0.365 -23.871,22.343c0,7.303 3.766,13.733 9.462,17.448Zm-4.294,-7.33c-0.082,-0.087 -0.151,-0.152 -0.151,-0.152l0.151,0.152Zm35.628,-4.159c0.671,-1.558 1.096,-3.505 0.871,-5.959c-0,2.071 -0.303,4.072 -0.871,5.959Z"/><path d="M30.497,362.023c94.962,-0 193.182,-6.809 289.852,-2.138c54.995,2.658 109.515,0.046 158.425,22.758c18.139,8.424 67.032,80.35 93.271,102.392c13.478,11.322 27.923,22.26 43.174,30.931c8.349,4.746 30.664,14.798 21.968,18.836c-20.027,9.3 -93.764,0 -118.709,0c-91.833,0 -263.743,24.333 -339.581,-28.084c-38.369,-26.52 -84.93,-62.366 -116.789,-96.699c-2.675,-2.883 -49.615,-43.239 -38.93,-53.334c6.398,-6.045 5.388,2.01 5.388,6.755" style="fill:#fff;"/><path d="M43.281,341.372c-3.506,-4.041 -7.864,-6.52 -13.133,-7.236c-4.195,-0.57 -12.112,-1.211 -21.091,7.602c-8.03,7.88 -11.647,21.852 -1.896,37.921c10.203,16.813 38.638,41.198 40.823,43.466c13.588,14.146 29.618,28.543 46.608,42.403c24.657,20.114 51.244,39.177 74.836,54.891c26.746,17.889 64.054,27.425 105.862,31.506c81.522,7.958 180.692,-4.053 243.188,-4.751c16.395,-0.065 53.899,3.718 83.335,3.802c17.587,0.05 32.608,-1.542 40.481,-5.176c5.07,-2.337 7.247,-5.798 8.289,-8.905c1.463,-4.361 1.014,-10.144 -4.121,-15.628c-4.91,-5.243 -18.691,-12.197 -25.204,-15.925c-7.229,-4.14 -14.271,-8.813 -21.085,-13.82c-6.93,-5.094 -13.617,-10.541 -20.087,-16.058c-18.688,-15.98 -48.892,-58.237 -70.812,-83.218c-9.927,-11.312 -18.838,-19.29 -24.702,-22.09c-21.004,-10.067 -43.042,-15.694 -65.724,-19.108c-31.651,-4.764 -64.611,-5.005 -97.73,-7.079c-29.166,-1.873 -58.478,-2.679 -87.818,-2.997c-63.742,-0.693 -127.551,1.113 -190.019,0.4Zm566.341,185.471l-0.443,-0.254c-8.042,-4.539 -15.863,-9.691 -23.474,-15.162c-7.456,-5.359 -14.707,-11.033 -21.7,-16.82c-19.574,-16.154 -51.686,-59.059 -74.807,-84.397c-6.78,-7.43 -12.264,-13.293 -16.223,-15.08c-18.636,-8.379 -38.108,-12.773 -58.079,-15.24c-30.929,-3.821 -63.025,-2.989 -95.317,-4.089c-28.616,-0.928 -57.343,-0.845 -86.081,-0.203c-57.771,1.29 -115.522,4.774 -172.34,6.505c7.519,7.733 14.134,13.759 15.073,14.81c15.092,16.835 33.706,34.1 53.14,50.432c19.785,16.628 40.367,32.318 58.996,45.673c29.347,20.937 74.716,29.049 123.705,31.998c72.695,4.377 153.121,-3.157 206.406,-2.585c16.419,0.064 53.945,4.328 83.423,4.46c2.659,0.012 5.244,0.004 7.721,-0.048Z"/><path d="M49.902,177.572c0,-5.186 -4.673,12.057 -4.914,14.008c-1.337,10.829 -1.929,21.633 -3.686,32.438c-5.026,30.907 -11.909,62.294 -13.097,93.629c-0.526,13.869 -3.257,27.019 -5.738,40.544c-0.498,2.716 -1.634,8.119 -1.634,8.119l7.777,0c12.633,0 25.554,-0.817 38.088,0.735c28.277,3.501 56.057,6.29 84.382,10.323c48.295,6.877 95.773,-4.677 143.761,-7.005c37.534,-1.82 74.48,3.172 111.817,-1.849c14.056,-1.89 57.663,8.343 67.992,-0.734c4.934,-4.337 -0,-41.13 -0,-48.297c-0,-42.88 -2.454,-84.642 -4.915,-127.168c-0.388,-6.721 4.544,-36.551 0,-40.544c-9.892,-8.694 -59.774,6.558 -70.867,7.739c-70.81,7.538 -141.566,19.898 -212.982,19.898c-34.17,0 -66.003,-9.208 -99.936,-9.208c-11.498,-0 -22.865,-0.747 -34.401,-0.747c-5.873,-0 -23.492,-0 -17.619,-0c5.581,-0 10.895,0.019 16.39,1.114" style="fill:#fff;"/><path d="M48.108,149.275c-0.923,-0.094 -1.845,-0.163 -2.768,-0.214c-3.772,-0.205 -7.534,-0.189 -11.41,-0.112l-1.179,0.027c-40.987,-0.752 -73.967,3.22 -93.132,8.97c-12.995,3.43 -18.691,7.47 -18.305,11.507c-0.394,4.036 5.305,8.077 18.305,11.506c17.865,5.357 47.741,9.171 84.917,9.055l-2.886,30.809c-2.683,18.689 -6.032,37.554 -8.419,56.47c-1.669,13.221 -2.912,26.452 -3.17,39.666c-0.105,4.915 -0.502,9.733 -1.094,14.514c-0.976,7.874 -2.379,15.653 -3.695,23.565l-1.413,7.704c-1.076,5.114 0.213,10.441 3.506,14.499c3.294,4.058 8.242,6.415 13.468,6.415l7.777,-0.128c7.5,-0.124 15.094,-0.546 22.656,-0.573c4.49,-0.016 8.966,0.08 13.393,0.554l84.276,8.92c15.368,1.974 30.627,2.242 45.841,1.512c33.648,-1.617 67.025,-8.162 100.713,-10.208c26.12,-1.509 51.979,0.3 77.868,-0.289c11.638,-0.265 23.281,-0.975 34.954,-2.637c10.349,-1.436 37.032,3.876 54.017,2.803c9.126,-0.577 16.251,-3.114 20.329,-6.719c2.628,-2.324 5.858,-8.727 6.212,-17.972c0.49,-12.81 -2.143,-34.133 -2.147,-39.436c0.069,-17.256 -0.297,-34.333 -0.822,-51.354c-0.786,-25.513 -1.994,-50.898 -3.259,-76.561c-0.235,-4.89 2.513,-22.06 2.227,-32.475c-0.241,-8.791 -3.57,-14.854 -6.336,-17.333c-4.211,-3.784 -12.489,-6.381 -23.286,-6.081c-19.021,0.529 -49.475,8.876 -57.887,9.659c-42.513,3.892 -85.014,9.572 -127.644,13.167c-27.891,2.353 -55.821,3.753 -83.829,3.266c-26.848,-0.48 -52.096,-6.845 -78.198,-9.62c-7.176,-0.763 -14.408,-1.253 -21.738,-1.384l-34.401,-1.424l-3.441,-0.068Zm409.79,13.2c-17.407,-0.123 -49.103,10.198 -57.521,11.206c-42.457,5.155 -84.861,11.987 -127.43,16.96c-28.929,3.38 -57.916,5.898 -87.061,6.404c-7.291,0.131 -14.487,-0.153 -21.63,-0.65c-26.272,-1.827 -51.671,-7.239 -78.306,-6.763l-17.207,-0.035c-0.572,2.642 -2.195,5.62 -3.474,5.298l-0.023,-0.011l-4.292,32.33c-3.339,18.37 -7.356,36.887 -10.407,55.491c-1.944,11.856 -3.527,23.733 -4.198,35.63c-0.334,6.146 -1.018,12.161 -1.956,18.12c-0.67,4.251 -1.452,8.473 -2.282,12.699c3.198,0.002 6.398,0.028 9.591,0.122c5.72,0.168 11.415,0.515 17.034,1.305l84.488,11.725c13.551,2.12 27.049,2.712 40.528,2.415c33.515,-0.738 66.876,-6.51 100.44,-7.727c26.46,-1.038 52.595,1.281 78.803,1.128c10.649,-0.062 21.309,-0.546 32.01,-1.901c9.585,-1.246 32.37,2.761 49.947,3.161c3.114,0.071 6.025,0.014 8.571,-0.297l1.137,-0.191c0.929,-11.708 -2.087,-34.09 -2.082,-39.411c-0.068,-16.953 -0.485,-33.73 -1.21,-50.445c-1.098,-25.328 -2.846,-50.512 -4.539,-75.976c-0.274,-4.059 0.611,-21.922 1.069,-30.587Z"/><path d="M170.075,912.792c-0.455,2.502 -0.873,5.219 -0.665,8.664l0.056,0.706l-0.007,0.18c-3.738,123.895 29.422,174.168 40.152,1.049c0.39,0.175 0.612,-0.808 0.961,-1.301c4.4,-7.116 3.994,-15.857 -0.325,-22.418c0.019,-0.788 0.014,-1.584 -0.008,-2.385c-0.216,-7.747 -1.669,-16.133 -2.045,-23.012l-4.98,-92.527c-0.361,-14.071 -1.122,-28.133 -1.63,-42.234c-0.504,-14.021 -0.951,-28.06 -1.275,-42.113c-0.646,-27.985 -1.093,-55.974 -1.21,-83.982c-0.156,-37.181 0.769,-74.162 2.706,-111.087c0,-11.498 -9.335,-20.833 -20.833,-20.833c-11.498,0 -20.833,9.335 -20.833,20.833c2.045,39.355 6.049,78.584 9.559,118.06c2.312,25.991 4.565,51.974 6.072,78.007c0.805,13.903 1.339,27.816 1.526,41.716c0.187,13.899 -0.174,27.771 -0.53,41.633l-3.358,92.527c-0.319,5.829 0.063,12.832 -0.218,19.528c-0.114,2.697 -0.532,5.271 -1.271,7.489c-0.848,2.516 -1.45,7.138 -1.844,11.5Z"/><path d="M192.945,930.787c2.662,-0.277 6.567,-2.049 8.248,-2.281l30.492,-3.743c14.906,-2.916 30.07,-6.079 45.179,-9.599c15.245,-3.551 30.372,-7.382 45.01,-11.769c30.341,-8.679 57.441,-14.195 83.217,-16.388c19.397,-1.651 38.012,-1.71 56.476,-0.136c44.255,3.773 87.555,15.827 140.514,29.432c13.043,3.567 56.454,11.252 79.665,5.878c16.984,-3.932 25.712,-14.877 27.823,-27.934c1.257,-11.43 -7.002,-21.729 -18.431,-22.986c-8.643,-0.95 -16.64,3.541 -20.566,10.731c-3.713,-0.748 -10.487,4.297 -17.098,4.576c-17.338,0.732 -36.645,-1.4 -44.116,-2.72c-31.584,-5.862 -59.894,-10.819 -86.847,-14.836c-30.49,-4.545 -59.227,-7.249 -89.12,-7.495c-36.252,-0.297 -74.214,2.76 -118.896,13.124c-14.299,3.066 -29.016,5.605 -43.837,7.781c-14.915,2.189 -29.867,3.931 -44.542,5.506l-28.507,0.665c-4.164,0.175 -13.044,0.011 -16.992,0.862c-5.972,1.288 -9.516,4.741 -11.788,7.153c-4.17,4.427 -5.26,9.823 -5.104,15.524c0.11,4.011 1.752,9.351 7.598,15.018c6.129,5.386 14.543,6.522 21.622,3.637Zm9.369,-30.992c-0.805,-1.339 -1.909,-2.689 -3.486,-3.944c1.354,1.191 2.517,2.518 3.486,3.944Zm465.878,-10.397c-0.021,0.097 -0.034,0.195 -0.04,0.294l0.04,-0.294Z"/></svg>