<?xml version="1.0" encoding="UTF-8" standalone="no"?><!DOCTYPE svg PUBLIC "-//W3C//DTD SVG 1.1//EN" "http://www.w3.org/Graphics/SVG/1.1/DTD/svg11.dtd"><svg width="100%" height="100%" viewBox="0 0 775 1036" version="1.1" xmlns="http://www.w3.org/2000/svg" xmlns:xlink="http://www.w3.org/1999/xlink" xml:space="preserve" xmlns:serif="http://www.serif.com/" style="fill-rule:evenodd;clip-rule:evenodd;stroke-linejoin:round;stroke-miterlimit:2;"><path d="M114.208,95.735c-1.171,-1.061 -8.263,22.094 -8.6,23.965c-4.595,25.51 -4.016,52.337 -5.725,78.137c-4.794,72.356 -3.281,145.029 -3.281,217.491c0,142.111 3.686,284 3.686,426.141c0,41.462 2.458,82.858 2.458,124.218c-0,10.577 -5.264,37.11 -0,46.814c2.084,3.843 29.386,2.216 32.767,2.216c39.029,0 76.478,-0.106 115.098,-6.269c118.178,-18.862 252.583,4.053 373.12,4.053c16.254,-0 116.097,0.009 125.75,-8.474c7.584,-6.665 3.528,-90.925 2.039,-101c-13.438,-90.939 -18.047,-183.811 -28.664,-275.363c-18.007,-155.289 1.731,-313.292 -12.704,-468.522c-2.915,-31.344 -0.405,-63.983 -0.405,-95.477c-0,-1.879 8.924,-39.49 6.561,-40.545c-12.692,-5.662 -41.236,0.904 -54.477,1.469c-43.291,1.849 -86.551,4.338 -129.841,6.27c-95.697,4.271 -191.025,12.677 -286.307,16.948c-42.645,1.911 -94.036,-17.371 -135.566,-8.107c-8.47,1.89 2.187,54.624 7.777,57.137" style="fill:#fff;"/><path d="M92.918,91.567c-2.98,7.823 -7.337,22.843 -7.618,24.475c-1.435,8.332 -2.385,16.785 -3.023,25.3c-1.377,18.364 -1.321,37.014 -2.385,55.171c-1.716,29.305 -2.422,58.651 -2.602,88.013c-0.267,43.606 0.609,87.238 0.943,130.802l6.588,426.141l3.181,124.218c0.041,7.109 -2.252,21.434 -2.151,33.01c0.073,8.508 1.542,15.926 4.17,20.706c1.601,2.913 5.252,6.979 12.175,8.632c8.47,2.023 30.171,0.988 33.317,0.971c23.727,-0.125 46.874,-0.296 70.043,-1.793c15.67,-1.012 31.349,-2.616 47.216,-5.223c35.299,-5.8 72.094,-7.807 109.54,-7.778c87.091,0.069 177.624,10.884 261.419,10.599c11.951,-0.016 68.57,-0.107 102.363,-3.442c16.229,-1.602 27.998,-5.221 31.403,-8.22c1.847,-1.628 4.076,-4.625 5.434,-9.375c1.182,-4.133 2.066,-10.723 2.543,-18.727c1.685,-28.266 -0.915,-76.232 -2.038,-83.781c-3.988,-27.163 -7.208,-54.497 -9.984,-81.921c-6.507,-64.279 -10.75,-129.032 -17.996,-193.142c-3.442,-30.76 -5.4,-61.621 -6.402,-92.543c-4.061,-125.218 6.96,-251.393 -3.97,-375.906c-0.783,-9.046 -1.081,-18.201 -1.128,-27.404c-0.113,-22.237 1.258,-44.735 1.398,-66.685c0.01,-1.465 6.014,-25.443 6.994,-35.011c1.308,-12.768 -7.122,-18.916 -9.573,-20.028c-5.807,-2.636 -13.916,-3.85 -22.947,-3.755c-13.464,0.143 -29.63,3.181 -38.69,3.51l-129.913,5.348l-286.404,14.842c-28.768,1.062 -61.507,-8.012 -92.403,-10.7c-16.223,-1.411 -31.998,-1.185 -46.73,1.976c-5.915,1.269 -11.364,4.764 -15.177,11.573c-2.154,3.846 -3.993,10.684 -3.983,19.422c0.013,11.657 3.002,28.663 6.39,40.725Zm606.257,-54.76l-3.521,0.253c-12.133,0.87 -25.285,3.353 -33.131,3.738l-129.769,7.192l-286.208,19.052c-30.2,1.593 -64.78,-6.974 -97.277,-9.277c-4.884,-0.347 -9.713,-0.534 -14.454,-0.462c3.669,9.846 4.682,24.206 -0.353,26.902c4.473,5.881 5.675,13.967 2.433,21.175c-1.205,2.681 -2.908,4.982 -4.955,6.843c-1.93,4.694 -5.887,10.408 -6.024,11.135c-1.774,9.436 -2.781,19.073 -3.465,28.769c-1.108,15.71 -1.433,31.559 -2.577,47.035c-2.114,28.588 -3.236,57.231 -3.85,85.897c-0.931,43.42 -0.72,86.883 -1.052,130.269l0.783,426.141l1.734,124.218c-0.036,6.3 -1.889,18.127 -2.411,28.87c-0.093,1.922 -0.272,3.797 -0.336,5.501c7.246,0.139 19.058,0.362 20.771,0.371c23.16,0.122 45.756,0.222 68.385,-1.016c14.779,-0.809 29.573,-2.187 44.551,-4.508c36.765,-5.695 75.046,-7.434 113.99,-7.092c87.071,0.763 177.512,12.093 261.292,12.378c9.079,0.012 44.448,0.069 75.336,-1.39c15.381,-0.727 29.615,-1.797 38.62,-3.504c0.747,-0.141 1.579,-0.338 2.348,-0.54c0.231,-1.16 0.469,-2.521 0.609,-3.725c1.351,-11.597 1.402,-30.1 0.991,-47.087c-0.446,-18.434 -1.432,-35.084 -2.031,-39.157c-4.091,-27.505 -7.352,-55.189 -10.27,-82.955c-6.742,-64.145 -11.473,-128.75 -19.077,-192.708c-3.769,-31.399 -5.99,-62.915 -7.304,-94.499c-5.182,-124.592 4.426,-250.281 -7.732,-374.095c-0.979,-9.842 -1.442,-19.81 -1.622,-29.832c-0.399,-22.346 0.682,-44.973 0.541,-67.034c-0.008,-1.152 3.028,-15.261 5.035,-26.858Zm-592.47,78.366l0.11,0.037l-0.223,-0.084l0.113,0.047Zm-0.854,-0.356c-2.013,-0.875 -3.917,-2.09 -5.633,-3.644c1.762,1.622 3.653,2.809 5.633,3.644Z"/><path d="M156.805,139.231c-0,-11.331 -5.709,22.713 -6.143,26.536c-2.149,18.922 -3.236,37.73 -3.686,56.77c-1.341,56.759 6.1,112.538 7.372,169.207c3.091,137.764 0.671,276.839 6.966,414.336c1.521,33.233 -12.09,99.521 5.32,130.12c3.035,5.334 62.558,-5.946 68.41,-6.637c71.234,-8.412 138.606,-13.274 210.524,-13.274c51.351,-0 109.84,1.588 160.152,10.322c17.424,3.025 33.1,5.499 49.968,11.058c1.758,0.579 23.935,7.248 24.167,6.637c8.453,-22.287 -3.517,-57.815 -8.613,-79.987c-10.247,-44.578 -14.57,-91.72 -20.064,-137.124c-8.891,-73.494 -24.567,-152.804 -18.847,-227.079c7.45,-96.733 23.917,-188.881 2.457,-285.319c-6.208,-27.901 -0.193,-83.859 -13.514,-108.004c-4.031,-7.305 -58.935,4.655 -64.712,5.522c-69.908,10.502 -139.339,19.103 -209.296,27.651c-43.237,5.283 -86.766,1.482 -130.246,1.482c-13.847,-0 -53.654,-4.883 -53.654,-2.952" style="fill:#fff;"/><path d="M163.584,117.372c-5.061,-1.812 -10.402,-1.939 -15.949,0.72c-2.293,1.099 -7.926,3.89 -10.972,12.012c-1.797,4.791 -6.037,29.83 -6.402,33.346c-1.021,9.812 -1.778,19.59 -2.304,29.382c-0.522,9.717 -0.834,19.445 -0.974,29.232c-0.249,17.472 0.293,34.843 1.25,52.174c2.169,39.304 6.452,78.377 7.71,117.919c2.969,96.325 3.275,193.304 5.695,289.928c1.043,41.656 2.46,83.242 4.68,124.682c1.191,22.575 -4.499,60.46 -2.74,91.987c0.97,17.37 4.203,33.008 10.8,44.419c1.702,2.943 7.675,8.467 18.721,8.503c16.78,0.055 58.631,-7.898 63.551,-8.507c35.379,-4.379 69.798,-7.9 104.314,-10.321c34.43,-2.416 68.952,-3.745 104.604,-3.895c30.375,-0.118 63.274,0.27 95.468,2.477c21.513,1.475 42.705,3.774 62.598,7.196c10.289,1.771 19.957,3.338 29.633,5.496c6.147,1.37 12.299,2.98 18.628,5.056c1.466,0.481 16.545,4.999 22.667,6.469c10.693,2.568 16.251,-6.166 16.587,-7.057c3.2,-8.475 4.138,-18.505 3.492,-29.141c-1.208,-19.852 -8.012,-42.107 -11.614,-57.839c-4.001,-17.549 -7.073,-35.501 -9.64,-53.587c-3.896,-27.448 -6.647,-55.198 -9.842,-82.324c-5.091,-43.884 -12.616,-89.852 -16.506,-135.566c-2.553,-30.004 -3.515,-59.892 -1.113,-88.97c4.892,-58.442 12.983,-115.195 14.195,-172.268c0.825,-38.822 -1.521,-77.781 -10.036,-117.501c-3.947,-18.415 -2.198,-49.259 -4.677,-74.659c-1.469,-15.06 -4.523,-28.458 -9.65,-37.934c-2.31,-4.278 -8.274,-9.71 -19.026,-10.753c-16.316,-1.582 -57.598,6.599 -62.716,7.32c-27.87,3.931 -55.658,7.556 -83.436,11c-41.834,5.186 -83.632,9.952 -125.623,14.699c-16.561,1.871 -33.153,2.318 -49.764,2.189c-26.033,-0.203 -52.103,-1.841 -78.173,-2.101c-10.58,-0.105 -36.514,-3.301 -47.624,-3.824c-2.22,-0.105 -4.172,-0.07 -5.812,0.041Zm445.863,3.674c-16.185,0.435 -46.273,7.568 -50.339,8.216c-27.988,4.463 -55.9,8.617 -83.804,12.588c-41.864,5.958 -83.699,11.494 -125.729,17.014c-13.593,1.785 -27.22,2.698 -40.87,3.138c-30.499,0.985 -61.111,-0.564 -91.685,-0.262c-9.319,0.093 -30.241,-1.857 -43.283,-2.611c-1.262,4.211 -2.553,7.972 -2.674,8.954c-1.122,9.114 -1.996,18.2 -2.657,27.304c-0.666,9.178 -1.132,18.37 -1.438,27.622c-0.546,16.545 -0.331,33.01 0.267,49.444c1.441,39.616 4.997,79.04 5.517,118.878c1.356,96.438 -0.018,193.485 0.84,290.213c0.367,41.37 1.154,82.676 2.718,123.85c0.877,22.593 -5.342,60.403 -4.019,91.957c0.408,9.721 1.417,18.783 4.062,26.19c17.332,-0.546 52.701,-7.092 57.084,-7.584c35.899,-4.035 70.82,-7.159 105.82,-9.27c35.004,-2.111 70.087,-3.215 106.311,-3.063c30.938,0.12 64.437,0.861 97.215,3.285c22.346,1.653 44.363,4.069 65.022,7.687c10.691,1.873 20.734,3.546 30.785,5.819c6.896,1.559 13.793,3.394 20.891,5.745c0.794,0.263 5.948,1.835 11.189,3.349c0.329,-5.012 -0.062,-10.41 -0.771,-15.907c-2.132,-16.516 -7.492,-33.807 -10.442,-46.574c-4.213,-18.179 -7.449,-36.781 -10.204,-55.518c-4.06,-27.614 -7.051,-55.529 -10.441,-82.819c-5.554,-44.089 -13.529,-90.257 -17.922,-136.196c-3.011,-31.482 -4.337,-62.859 -2.153,-93.426c4.07,-57.874 11.446,-114.116 11.831,-170.588c0.248,-36.494 -2.493,-73.078 -11.076,-110.28c-4.433,-19.21 -3.423,-51.5 -6.446,-78.044c-0.805,-7.065 -1.829,-13.648 -3.599,-19.111Zm-431.755,32.563c5.079,-4.497 6.561,-9.993 6.507,-15.113c0,5.95 -2.499,11.32 -6.507,15.113Zm-41.647,-12.685l0.002,0.008l-0.009,-0.115l0.007,0.107Zm-0.048,-0.666l-0.026,-1.027c-0.003,0.356 0.005,0.698 0.026,1.027Z"/><path d="M464.507,172.157c3.278,5.874 7.04,12.658 9.895,15.861c7.141,8.175 14.407,16.1 21.356,24.429c4.455,5.34 8.756,10.748 12.83,16.404c7.211,10.52 15.178,21.32 23.186,32.617c5.067,7.149 10.245,14.411 15.276,21.867c12.512,18.546 25.113,37.449 38.355,55.225c12.311,16.526 24.714,32.017 37.683,45.603c8.637,7.591 21.811,6.741 29.402,-1.896c7.59,-8.637 6.74,-21.812 -1.897,-29.402c-22.638,-16.901 -45.719,-38.093 -66.304,-61.998c-8.109,-9.417 -15.896,-19.124 -22.89,-29.165c-11.086,-15.915 -20.222,-32.474 -28.933,-47.684l-28.892,-47.628c-1.757,-2.878 -3.137,-9.212 -4.783,-13.988c-1.875,-5.442 -4.213,-9.629 -5.444,-11.56c-4.449,-6.982 -10.973,-7.729 -14.431,-8.476c-5.676,-1.226 -21.791,-0.365 -23.871,22.343c0,7.303 3.766,13.733 9.462,17.448Zm-4.294,-7.33c-0.082,-0.087 -0.151,-0.152 -0.151,-0.152l0.151,0.152Zm35.628,-4.159c0.671,-1.558 1.096,-3.505 0.871,-5.959c-0,2.071 -0.303,4.072 -0.871,5.959Z"/><g id="up"><path d="M168.255,519.678c3.438,0 -1.957,6.719 -2.45,10.174c-1.036,7.255 -0.38,14.937 -0.38,22.245c0,21.669 5.852,42.642 5.852,64.498c0,38.433 1.308,77.709 -0.566,116.056c-0.734,15.023 -5.272,29.781 -7.17,44.666c-2.627,20.603 -2.457,41.57 -4.154,62.253c-2.194,26.734 -1.396,48.259 10.566,72.255c0.692,1.389 0.301,10.298 1.132,11.039c2.665,2.379 23.155,-4.114 27.171,-5.001c21.114,-4.662 44.493,-0.785 65.468,-6.038c97.291,-24.365 188.783,-4.838 286.016,-4.838c28.281,-0 63.739,11.151 92.316,11.941c24.268,0.671 -3.534,-87.342 -16.848,-181.152c-13.276,-93.551 10.829,-222.287 -27.417,-228.627c-28.896,-4.791 -418.672,5.672 -431.041,11.56c-0.199,0.095 3.446,2.421 3.769,2.59" style="fill:#fff;"/><path d="M171.896,499.118c-1.14,-0.162 -2.352,-0.254 -3.641,-0.273c-9.812,-0 -18.05,6.799 -20.249,15.941c-2.295,1.537 -2.314,9.448 -2.661,12.145c-0.377,2.944 -0.593,5.932 -0.643,8.945c-0.089,5.411 0.296,10.908 0.372,16.221c0.069,4.93 0.374,9.825 0.869,14.7c1.686,16.584 5.66,32.882 5.899,49.798c0.379,26.82 1.425,54.035 1.533,81.077c0.046,11.418 -0.077,22.802 -0.486,34.109c-0.139,3.849 -0.561,7.681 -1.137,11.504c-1.606,10.641 -4.129,21.221 -5.349,31.847c-0.751,6.543 -1.253,13.114 -1.604,19.703c-0.771,14.456 -0.853,28.983 -1.853,43.386c-1.006,14.483 -1.202,27.551 0.474,40.224c1.685,12.738 5.118,25.114 11.443,38.017c0.126,2.305 0.395,6.458 0.67,7.996c0.979,5.466 3.732,8.574 5.278,9.918c2.323,2.023 6.728,4.64 13.355,4.395c7.142,-0.264 23.627,-5.276 27.351,-6.141c16.26,-3.769 33.978,-2.162 50.752,-4.1c5.074,-0.586 10.078,-1.425 14.962,-2.702c37.38,-9.724 73.931,-12.756 110.326,-12.848c56.98,-0.143 113.56,6.664 172.183,6.287c5.452,-0.013 11.194,0.433 17.108,1.138c24.618,2.935 51.941,10.005 74.874,10.587c11.6,0.303 20.329,-7.196 21.756,-25.102c2.295,-28.815 -15.677,-97.714 -25.591,-169.913c-8.418,-63.354 0.412,-142.652 -4.798,-189.377c-1.875,-16.816 -5.866,-29.983 -11.701,-38.375c-5.418,-7.791 -12.519,-12.332 -21.145,-13.867c-16.352,-2.926 -147.473,-2.571 -261.782,-0.663c-66.562,1.111 -127.368,2.689 -156.176,4.467c-3.893,0.24 -7.364,0.572 -10.389,0.956Zm466.725,407.573c0.352,-0.834 0.781,-1.786 0.849,-2.677c2.131,-27.951 -16.694,-94.513 -26.94,-164.439c-8.136,-53.945 -4.049,-119.628 -6.328,-167.04c-0.742,-15.441 -2.149,-28.76 -5.16,-38.679c-0.847,-2.791 -1.833,-5.236 -3.03,-7.268c-0.752,-1.277 -1.399,-2.453 -2.673,-2.649c-11.955,-1.83 -86.402,-0.071 -169.685,2.89c-88.283,3.14 -186.324,7.869 -231.875,11.499c-2.611,0.208 -5.228,0.692 -7.686,1.238l-0.316,12.531c-0.237,16.771 3.237,33.15 4.444,49.863c0.35,4.852 0.561,9.725 0.492,14.635c-0.326,23.046 -0.199,46.394 -0.542,69.664c-0.234,15.834 -0.668,31.626 -1.638,47.263c-0.318,5.184 -0.992,10.34 -1.899,15.474c-1.801,10.2 -4.525,20.311 -5.955,30.507l-4.851,61.416c-1.147,12.117 -1.708,23.062 -0.569,33.719c1.034,9.673 3.425,19.1 8.046,29.001c4.969,-0.415 10.236,-0.238 11.69,-0.542c4.902,-1.029 9.9,-1.69 14.962,-2.085c16.702,-1.304 34.192,0.657 50.26,-3.189c29.836,-7.177 59.1,-10.393 88.135,-11.363c67.006,-2.24 132.735,7.785 201.388,8.247c6.394,0.015 13.128,0.543 20.06,1.401c22.542,2.792 47.388,9.306 68.821,10.583Z"/><path d="M471.532,172.981c-3.104,-0 -4.187,18.717 -4.813,22.661c-3.77,23.787 -2.257,48.545 -2.257,72.579c-0,28.226 0.191,55.879 1.129,84.032c0.127,3.836 -2.533,22.144 0.848,25.208c35.153,31.857 66.228,59.889 97.901,96.002c15.499,17.673 27.649,37.091 49.515,47.87c1.244,0.613 18.444,-142.196 13.946,-168.349c-4.01,-23.321 -7.393,-10.958 -23.282,-26.192c-24.379,-23.373 -39.747,-53.599 -60.268,-79.964c-17.708,-22.749 -28.247,-49.272 -43.005,-73.847c-4.11,-6.844 -5.276,-15.248 -12.171,-19.862c-5.018,-3.359 -23.988,-6.878 -12.451,-6.878" style="fill:#fff;"/><path d="M455.82,158.639c-1.92,1.998 -3.624,4.588 -4.922,7.93c-2.27,5.845 -3.56,21.921 -4.075,25.92c-1.346,10.436 -1.855,20.997 -1.824,31.614c0.044,14.742 0.99,29.545 1.405,44.118l3.294,84.562c0.177,3 -0.972,14.495 -0.109,21.43c0.889,7.137 3.822,12.149 6.603,14.556c21.446,18.662 41.433,35.901 60.904,54.481c12.665,12.086 25.092,24.739 37.654,38.624c9.649,10.751 18.119,22.106 28.154,31.865c7.419,7.216 15.62,13.639 25.579,18.491c0.991,0.483 15.295,3.134 17.738,-10.279c0.477,-2.621 1.204,-8.174 2.215,-15.745c5.254,-39.355 16.377,-134.409 12.99,-155.565c-1.861,-12.334 -4.786,-17.712 -7.455,-20.961c-2.432,-2.959 -5.205,-4.728 -8.675,-6.341c-2.337,-1.087 -5.642,-2.052 -10.677,-7.082c-6.599,-6.623 -12.39,-13.829 -17.818,-21.303c-13.784,-18.984 -25.128,-39.71 -39.082,-58.609c-4.669,-6.357 -8.674,-13.038 -12.435,-19.847c-9.672,-17.511 -17.465,-35.958 -27.364,-53.531c-2.875,-5.14 -4.314,-10.981 -7.291,-15.804c-2.581,-4.181 -6.016,-7.726 -10.333,-10.812c-1.504,-1.075 -4.766,-2.567 -8.116,-3.956c-3.814,-4.287 -9.372,-6.987 -15.556,-6.987c-6.179,0.198 -9.571,1.204 -10.996,1.816c-7.811,3.357 -10.857,8.484 -12.151,12.466c-1.136,3.498 -1.677,7.064 -0.894,10.755c0.465,2.185 1.216,5.207 3.237,8.194Zm33.815,32.581c-1.23,3.296 -2.809,6.46 -3.019,7.576c-1.629,8.646 -2.542,17.439 -3.026,26.304c-0.786,14.384 -0.664,28.88 -1.07,43.121l-1.037,83.503c0.02,2.529 3.039,15.474 -0.086,18.884c19.207,18.128 37.181,35.222 54.825,53.3c12.651,12.962 25.16,26.384 37.708,41.144c9.016,10.52 16.764,21.708 26.236,31.222c1.492,1.499 3.03,2.954 4.633,4.347c4.789,-38.73 12.974,-125.733 9.378,-145.295c-0.457,-2.365 -1.172,-4.913 -1.638,-6.457c-1.073,-0.424 -2.54,-1.021 -3.668,-1.537c-3.751,-1.716 -8.426,-4.461 -14.452,-10.006c-8.036,-7.358 -15.172,-15.425 -21.91,-23.82c-14.592,-18.178 -26.927,-38.145 -41.727,-56.194c-5.975,-7.251 -11.214,-14.908 -16.139,-22.758c-8.855,-14.113 -16.428,-28.958 -25.008,-43.334Zm-13.973,2.182c-1.334,0.271 -2.716,0.412 -4.13,0.412c1.394,0.041 2.77,-0.101 4.13,-0.412Z"/><path d="M30.497,362.023c94.962,-0 193.182,-6.809 289.852,-2.138c54.995,2.658 109.515,0.046 158.425,22.758c18.139,8.424 67.032,80.35 93.271,102.392c13.478,11.322 30.272,39.107 45.523,47.778c8.349,4.747 -74.145,1.989 -99.09,1.989c-91.833,0 -263.743,24.333 -339.581,-28.084c-38.369,-26.52 -84.93,-62.366 -116.789,-96.699c-2.675,-2.883 -49.615,-43.239 -38.93,-53.334c6.398,-6.045 5.388,2.01 5.388,6.755" style="fill:#fff;"/><path d="M43.279,341.378c-3.508,-4.042 -7.863,-6.524 -13.132,-7.237c-4.195,-0.568 -12.113,-1.213 -21.085,7.602c-8.022,7.882 -11.644,21.85 -1.888,37.908c10.211,16.808 38.654,41.179 40.84,43.446c13.593,14.139 29.628,28.526 46.624,42.377c24.665,20.1 51.257,39.149 74.855,54.85c26.737,17.872 64.028,27.379 105.813,31.457c81.517,7.955 180.68,-4.016 243.172,-4.701c18.921,-0.037 70.687,1.36 91.57,0.111c5.713,-0.341 9.768,-1.099 11.605,-1.779c5.041,-1.867 6.951,-5.298 7.812,-7.532c1.537,-3.987 2.571,-10.76 -5.903,-15.611c-3.93,-2.25 -7.871,-6.202 -11.919,-10.67c-11.049,-12.195 -22.173,-28.024 -31.637,-36.04c-18.694,-15.978 -48.92,-58.23 -70.841,-83.215c-9.909,-11.294 -18.798,-19.266 -24.651,-22.063c-20.992,-10.059 -43.018,-15.676 -65.686,-19.089c-31.647,-4.763 -64.602,-5.013 -97.717,-7.092c-29.163,-1.886 -58.472,-2.705 -87.811,-3.037c-63.742,-0.721 -127.551,1.056 -190.021,0.315Zm567.603,201.568c0.221,0.139 0.452,0.276 0.691,0.411l-0.691,-0.411Zm-21.21,-19.463c-9.008,-10.535 -17.843,-22.518 -25.587,-28.971c-19.567,-16.156 -51.659,-59.067 -74.778,-84.399c-6.798,-7.449 -12.304,-13.318 -16.274,-15.108c-18.648,-8.387 -38.132,-12.791 -58.117,-15.259c-30.933,-3.821 -63.034,-2.981 -95.33,-4.075c-28.619,-0.916 -57.348,-0.819 -86.088,-0.165c-57.786,1.317 -115.549,4.828 -172.396,6.584c7.529,7.753 14.159,13.797 15.1,14.85c15.085,16.845 33.691,34.122 53.12,50.466c19.779,16.639 40.354,32.341 58.979,45.707c29.36,20.952 74.749,29.089 123.765,32.038c72.697,4.375 153.125,-3.188 206.412,-2.626c14.203,0.027 47.215,1.038 71.194,0.958Z"/><path d="M49.971,165.242c-0,-5.185 -4.742,24.387 -4.983,26.338c-1.337,10.829 -1.929,21.633 -3.686,32.438c-5.026,30.907 -11.909,62.294 -13.097,93.629c-0.526,13.869 -3.257,27.019 -5.738,40.544c-0.498,2.716 -1.634,8.119 -1.634,8.119l7.777,0c12.633,0 25.554,-0.817 38.088,0.735c28.277,3.501 56.057,6.29 84.382,10.323c48.295,6.877 95.773,-4.677 143.761,-7.005c37.534,-1.82 74.48,3.172 111.817,-1.849c14.056,-1.89 57.663,8.343 67.992,-0.734c4.934,-4.337 -0,-41.13 -0,-48.297c-0,-42.88 -2.454,-84.642 -4.915,-127.168c-0.388,-6.721 4.544,-36.551 0,-40.544c-9.892,-8.694 -59.774,6.558 -70.867,7.739c-70.81,7.538 -141.566,19.898 -212.982,19.898c-34.17,0 -66.003,-9.208 -99.936,-9.208c-11.498,-0 -34.829,-3.579 -29.334,-2.484" style="fill:#fff;"/><path d="M50.532,147.326c-9.146,-1.769 -18.718,0.683 -21.558,14.913c-1.304,6.539 -3.965,25.259 -4.131,26.855l-2.962,31.766c-2.676,18.689 -6.009,37.555 -8.396,56.47c-1.667,13.212 -2.92,26.433 -3.183,39.638c-0.104,4.923 -0.499,9.75 -1.091,14.539c-0.973,7.878 -2.373,15.661 -3.687,23.577l-1.412,7.711c-1.059,5.038 0.21,10.286 3.454,14.283c3.245,3.998 8.119,6.319 13.267,6.319l7.777,-0.131c7.501,-0.126 15.096,-0.551 22.66,-0.581c4.5,-0.017 8.986,0.077 13.423,0.551l84.278,8.94c15.353,1.967 30.597,2.226 45.795,1.496c33.647,-1.617 67.024,-8.144 100.711,-10.182c26.124,-1.487 51.985,0.337 77.877,-0.227c11.632,-0.253 23.269,-0.949 34.938,-2.595c10.354,-1.425 37.04,3.93 54.032,2.866c9.105,-0.57 16.214,-3.104 20.282,-6.701c2.625,-2.312 5.829,-8.699 6.205,-17.917c0.521,-12.805 -2.041,-34.131 -2.028,-39.433c0.109,-17.258 -0.208,-34.337 -0.701,-51.361c-0.738,-25.516 -1.924,-50.903 -3.153,-76.57c-0.227,-4.891 2.539,-22.056 2.281,-32.471c-0.221,-8.928 -3.632,-15.073 -6.432,-17.601c-4.252,-3.839 -12.622,-6.497 -23.548,-6.207c-19.03,0.504 -49.499,8.862 -57.915,9.644c-42.519,3.839 -85.025,9.459 -127.658,13.009c-27.874,2.321 -55.783,3.698 -83.771,3.187c-26.829,-0.501 -52.055,-6.867 -78.135,-9.681c-7.197,-0.776 -14.448,-1.284 -21.801,-1.432c-7.506,-0.152 -20.471,-2.196 -25.48,-2.892c-2.29,-0.318 -3.822,-0.394 -4.297,-0.411c-2.373,-0.085 -4.244,0.238 -5.641,0.629Zm403.33,15.691c-17.859,1.212 -45.644,10.149 -53.44,11.085c-49.623,6.104 -99.167,14.511 -148.996,19.495c-21.789,2.18 -43.618,3.706 -65.54,4.106c-7.311,0.134 -14.526,-0.152 -21.688,-0.644c-26.252,-1.804 -51.636,-7.168 -78.248,-6.659c-5.166,0.105 -12.546,-0.406 -18.995,-0.97c-0.985,2.452 -1.769,4.26 -1.823,4.636l-4.409,33.111c-3.347,18.37 -7.379,36.885 -10.43,55.491c-1.946,11.865 -3.519,23.752 -4.185,35.658c-0.336,6.138 -1.021,12.144 -1.96,18.094c-0.687,4.352 -1.492,8.673 -2.346,13c3.299,0.002 6.602,0.028 9.896,0.126c5.71,0.17 11.395,0.518 17.004,1.308l84.486,11.705c13.565,2.127 27.079,2.728 40.573,2.431c33.517,-0.738 66.878,-6.528 100.443,-7.753c26.455,-1.06 52.589,1.245 78.794,1.066c10.654,-0.073 21.321,-0.574 32.026,-1.942c9.578,-1.259 32.357,2.708 49.927,3.097c3.118,0.069 6.032,0.014 8.581,-0.298c0.367,-0.044 0.782,-0.117 1.197,-0.202c0.916,-11.7 -2.2,-34.143 -2.212,-39.475c-0.108,-16.952 -0.575,-33.725 -1.331,-50.438c-1.146,-25.325 -2.917,-50.505 -4.644,-75.967c-0.284,-4.083 -4.483,-21.235 -2.68,-30.061Zm-424.461,5.525c-0.175,-1.074 -0.264,-2.176 -0.264,-3.3c-0.025,1.297 0.091,2.391 0.264,3.3Zm31.854,-21.129c-0.164,-0.046 -0.352,-0.09 -0.566,-0.128l0.566,0.128Z"/></g></svg>