<?xml version="1.0" encoding="UTF-8" standalone="no"?><!DOCTYPE svg PUBLIC "-//W3C//DTD SVG 1.1//EN" "http://www.w3.org/Graphics/SVG/1.1/DTD/svg11.dtd"><svg width="100%" height="100%" viewBox="0 0 778 1036" version="1.1" xmlns="http://www.w3.org/2000/svg" xmlns:xlink="http://www.w3.org/1999/xlink" xml:space="preserve" xmlns:serif="http://www.serif.com/" style="fill-rule:evenodd;clip-rule:evenodd;stroke-linejoin:round;stroke-miterlimit:2;"><path d="M116.446,95.735c-1.171,-1.061 -8.263,22.094 -8.6,23.965c-4.595,25.51 -4.016,52.337 -5.725,78.137c-4.794,72.356 -3.281,145.029 -3.281,217.491c0,142.111 3.686,284 3.686,426.141c0,41.462 2.457,82.858 2.457,124.218c0,10.577 -5.263,37.11 0,46.814c2.084,3.843 29.387,2.216 32.768,2.216c39.029,0 76.478,-0.106 115.097,-6.269c118.179,-18.862 252.583,4.053 373.121,4.053c16.253,-0 116.097,0.009 125.749,-8.474c7.585,-6.665 3.528,-90.925 2.04,-101c-13.438,-90.939 -18.047,-183.811 -28.664,-275.363c-18.008,-155.289 1.731,-313.292 -12.704,-468.522c-2.915,-31.344 -0.405,-63.983 -0.405,-95.477c-0,-1.879 8.924,-39.49 6.561,-40.545c-12.692,-5.662 -41.237,0.904 -54.478,1.469c-43.29,1.849 -86.55,4.338 -129.841,6.27c-95.696,4.271 -191.024,12.677 -286.306,16.948c-42.645,1.911 -94.036,-17.371 -135.566,-8.107c-8.47,1.89 2.187,54.624 7.777,57.137" style="fill:#fff;"/><path d="M95.156,91.567c-2.98,7.823 -7.337,22.843 -7.618,24.475c-1.435,8.332 -2.385,16.785 -3.024,25.3c-1.376,18.364 -1.321,37.014 -2.384,55.171c-1.717,29.305 -2.422,58.651 -2.602,88.013c-0.267,43.606 0.609,87.238 0.942,130.802l6.589,426.141l3.181,124.218c0.04,7.109 -2.252,21.434 -2.152,33.01c0.074,8.508 1.543,15.926 4.17,20.706c1.602,2.913 5.252,6.979 12.176,8.632c8.47,2.023 30.171,0.988 33.317,0.971c23.726,-0.125 46.874,-0.296 70.043,-1.793c15.67,-1.012 31.349,-2.616 47.216,-5.223c35.298,-5.8 72.093,-7.807 109.54,-7.778c87.091,0.069 177.623,10.884 261.419,10.599c11.951,-0.016 68.57,-0.107 102.363,-3.442c16.229,-1.602 27.998,-5.221 31.402,-8.22c1.848,-1.628 4.077,-4.625 5.435,-9.375c1.182,-4.133 2.066,-10.723 2.543,-18.727c1.685,-28.266 -0.916,-76.232 -2.038,-83.781c-3.988,-27.163 -7.208,-54.497 -9.984,-81.921c-6.507,-64.279 -10.75,-129.032 -17.996,-193.142c-3.443,-30.76 -5.4,-61.621 -6.403,-92.543c-4.06,-125.218 6.961,-251.393 -3.969,-375.906c-0.783,-9.046 -1.081,-18.201 -1.128,-27.404c-0.113,-22.237 1.258,-44.735 1.398,-66.685c0.009,-1.465 6.014,-25.443 6.994,-35.011c1.308,-12.768 -7.122,-18.916 -9.574,-20.028c-5.806,-2.636 -13.915,-3.85 -22.946,-3.755c-13.464,0.143 -29.63,3.181 -38.69,3.51l-129.913,5.348l-286.404,14.842c-28.768,1.062 -61.507,-8.012 -92.403,-10.7c-16.223,-1.411 -31.998,-1.185 -46.73,1.976c-5.915,1.269 -11.364,4.764 -15.177,11.573c-2.154,3.846 -3.993,10.684 -3.984,19.422c0.013,11.657 3.002,28.663 6.391,40.725Zm606.256,-54.76l-3.521,0.253c-12.133,0.87 -25.284,3.353 -33.13,3.738l-129.769,7.192l-286.209,19.052c-30.199,1.593 -64.779,-6.974 -97.276,-9.277c-4.885,-0.347 -9.714,-0.534 -14.455,-0.462c3.669,9.846 4.683,24.206 -0.352,26.902c4.473,5.881 5.674,13.967 2.433,21.175c-1.205,2.681 -2.909,4.982 -4.955,6.843c-1.93,4.694 -5.887,10.408 -6.024,11.135c-1.775,9.436 -2.781,19.073 -3.465,28.769c-1.108,15.71 -1.433,31.559 -2.577,47.035c-2.114,28.588 -3.236,57.231 -3.85,85.897c-0.931,43.42 -0.72,86.883 -1.052,130.269l0.783,426.141l1.733,124.218c-0.035,6.3 -1.888,18.127 -2.41,28.87c-0.093,1.922 -0.273,3.797 -0.336,5.501c7.245,0.139 19.058,0.362 20.771,0.371c23.159,0.122 45.756,0.222 68.385,-1.016c14.779,-0.809 29.572,-2.187 44.551,-4.508c36.765,-5.695 75.046,-7.434 113.989,-7.092c87.072,0.763 177.513,12.093 261.293,12.378c9.079,0.012 44.448,0.069 75.336,-1.39c15.381,-0.727 29.615,-1.797 38.619,-3.504c0.747,-0.141 1.58,-0.338 2.349,-0.54c0.231,-1.16 0.469,-2.521 0.609,-3.725c1.351,-11.597 1.401,-30.1 0.991,-47.087c-0.446,-18.434 -1.432,-35.084 -2.032,-39.157c-4.09,-27.505 -7.352,-55.189 -10.27,-82.955c-6.741,-64.145 -11.472,-128.75 -19.077,-192.708c-3.768,-31.399 -5.989,-62.915 -7.303,-94.499c-5.183,-124.592 4.426,-250.281 -7.733,-374.095c-0.978,-9.842 -1.442,-19.81 -1.621,-29.832c-0.4,-22.346 0.681,-44.973 0.54,-67.034c-0.007,-1.152 3.029,-15.261 5.035,-26.858Zm-592.47,78.366l0.11,0.037l-0.222,-0.084l0.112,0.047Zm-0.853,-0.356c-2.014,-0.875 -3.918,-2.09 -5.633,-3.644c1.762,1.622 3.653,2.809 5.633,3.644Z"/><path d="M159.043,139.231c-0,-11.331 -5.709,22.713 -6.144,26.536c-2.148,18.922 -3.236,37.73 -3.685,56.77c-1.341,56.759 6.1,112.538 7.371,169.207c3.092,137.764 0.672,276.839 6.967,414.336c1.521,33.233 -12.09,99.521 5.319,130.12c3.035,5.334 62.559,-5.946 68.411,-6.637c71.234,-8.412 138.606,-13.274 210.524,-13.274c51.351,-0 109.84,1.588 160.151,10.322c17.425,3.025 33.101,5.499 49.968,11.058c1.758,0.579 23.936,7.248 24.167,6.637c8.454,-22.287 -3.516,-57.815 -8.613,-79.987c-10.246,-44.578 -14.57,-91.72 -20.063,-137.124c-8.892,-73.494 -24.567,-152.804 -18.847,-227.079c7.45,-96.733 23.917,-188.881 2.457,-285.319c-6.209,-27.901 -0.193,-83.859 -13.515,-108.004c-4.03,-7.305 -58.934,4.655 -64.711,5.522c-69.909,10.502 -139.34,19.103 -209.296,27.651c-43.237,5.283 -86.766,1.482 -130.246,1.482c-13.847,-0 -53.654,-4.883 -53.654,-2.952" style="fill:#fff;"/><path d="M165.822,117.372c-5.061,-1.812 -10.402,-1.939 -15.949,0.72c-2.293,1.099 -7.926,3.89 -10.973,12.012c-1.797,4.791 -6.036,29.83 -6.402,33.346c-1.021,9.812 -1.777,19.59 -2.304,29.382c-0.522,9.717 -0.834,19.445 -0.973,29.232c-0.249,17.472 0.293,34.843 1.25,52.174c2.169,39.304 6.452,78.377 7.71,117.919c2.969,96.325 3.275,193.304 5.694,289.928c1.043,41.656 2.46,83.242 4.681,124.682c1.19,22.575 -4.499,60.46 -2.74,91.987c0.97,17.37 4.203,33.008 10.8,44.419c1.702,2.943 7.675,8.467 18.721,8.503c16.78,0.055 58.63,-7.898 63.551,-8.507c35.378,-4.379 69.797,-7.9 104.313,-10.321c34.43,-2.416 68.952,-3.745 104.605,-3.895c30.375,-0.118 63.274,0.27 95.467,2.477c21.514,1.475 42.706,3.774 62.598,7.196c10.29,1.771 19.958,3.338 29.634,5.496c6.147,1.37 12.298,2.98 18.627,5.056c1.467,0.481 16.545,4.999 22.668,6.469c10.693,2.568 16.251,-6.166 16.587,-7.057c3.2,-8.475 4.138,-18.505 3.491,-29.141c-1.207,-19.852 -8.012,-42.107 -11.614,-57.839c-4,-17.549 -7.072,-35.501 -9.639,-53.587c-3.896,-27.448 -6.648,-55.198 -9.842,-82.324c-5.091,-43.884 -12.616,-89.852 -16.506,-135.566c-2.553,-30.004 -3.515,-59.892 -1.114,-88.97c4.892,-58.442 12.984,-115.195 14.196,-172.268c0.825,-38.822 -1.522,-77.781 -10.037,-117.501c-3.946,-18.415 -2.197,-49.259 -4.676,-74.659c-1.47,-15.06 -4.524,-28.458 -9.65,-37.934c-2.311,-4.278 -8.274,-9.71 -19.026,-10.753c-16.316,-1.582 -57.599,6.599 -62.716,7.32c-27.87,3.931 -55.659,7.556 -83.436,11c-41.834,5.186 -83.632,9.952 -125.623,14.699c-16.561,1.871 -33.154,2.318 -49.765,2.189c-26.032,-0.203 -52.102,-1.841 -78.172,-2.101c-10.58,-0.105 -36.514,-3.301 -47.625,-3.824c-2.219,-0.105 -4.172,-0.07 -5.811,0.041Zm445.863,3.674c-16.185,0.435 -46.273,7.568 -50.339,8.216c-27.989,4.463 -55.9,8.617 -83.804,12.588c-41.864,5.958 -83.699,11.494 -125.729,17.014c-13.593,1.785 -27.22,2.698 -40.871,3.138c-30.498,0.985 -61.11,-0.564 -91.684,-0.262c-9.319,0.093 -30.241,-1.857 -43.283,-2.611c-1.263,4.211 -2.554,7.972 -2.675,8.954c-1.121,9.114 -1.995,18.2 -2.656,27.304c-0.666,9.178 -1.132,18.37 -1.438,27.622c-0.546,16.545 -0.332,33.01 0.266,49.444c1.442,39.616 4.997,79.04 5.517,118.878c1.357,96.438 -0.018,193.485 0.84,290.213c0.368,41.37 1.155,82.676 2.718,123.85c0.878,22.593 -5.341,60.403 -4.018,91.957c0.407,9.721 1.417,18.783 4.062,26.19c17.332,-0.546 52.701,-7.092 57.084,-7.584c35.899,-4.035 70.82,-7.159 105.82,-9.27c35.004,-2.111 70.087,-3.215 106.311,-3.063c30.938,0.12 64.437,0.861 97.215,3.285c22.346,1.653 44.362,4.069 65.022,7.687c10.69,1.873 20.734,3.546 30.785,5.819c6.895,1.559 13.793,3.394 20.89,5.745c0.795,0.263 5.949,1.835 11.19,3.349c0.329,-5.012 -0.062,-10.41 -0.772,-15.907c-2.131,-16.516 -7.492,-33.807 -10.442,-46.574c-4.213,-18.179 -7.448,-36.781 -10.203,-55.518c-4.061,-27.614 -7.052,-55.529 -10.442,-82.819c-5.553,-44.089 -13.529,-90.257 -17.921,-136.196c-3.011,-31.482 -4.337,-62.859 -2.154,-93.426c4.071,-57.874 11.447,-114.116 11.832,-170.588c0.248,-36.494 -2.493,-73.078 -11.076,-110.28c-4.433,-19.21 -3.423,-51.5 -6.446,-78.044c-0.805,-7.065 -1.829,-13.648 -3.599,-19.111Zm-431.755,32.563c5.079,-4.497 6.561,-9.993 6.507,-15.113c-0,5.95 -2.499,11.32 -6.507,15.113Zm-41.647,-12.685l0.001,0.008l-0.009,-0.115l0.008,0.107Zm-0.048,-0.666l-0.026,-1.027c-0.003,0.356 0.005,0.698 0.026,1.027Z"/><path d="M466.745,172.157c3.278,5.874 7.04,12.658 9.895,15.861c7.14,8.175 14.407,16.1 21.355,24.429c4.456,5.34 8.756,10.748 12.831,16.404c7.21,10.52 15.178,21.32 23.185,32.617c5.068,7.149 10.246,14.411 15.277,21.867c12.512,18.546 25.113,37.449 38.355,55.225c12.311,16.526 24.714,32.017 37.683,45.603c8.637,7.591 21.811,6.741 29.401,-1.896c7.591,-8.637 6.741,-21.812 -1.897,-29.402c-22.637,-16.901 -45.718,-38.093 -66.303,-61.998c-8.109,-9.417 -15.896,-19.124 -22.89,-29.165c-11.086,-15.915 -20.222,-32.474 -28.934,-47.684l-28.891,-47.628c-1.757,-2.878 -3.137,-9.212 -4.783,-13.988c-1.875,-5.442 -4.213,-9.629 -5.444,-11.56c-4.45,-6.982 -10.974,-7.729 -14.431,-8.476c-5.677,-1.226 -21.791,-0.365 -23.871,22.343c-0,7.303 3.765,13.733 9.462,17.448Zm-4.294,-7.33c-0.082,-0.087 -0.152,-0.152 -0.152,-0.152l0.152,0.152Zm35.628,-4.159c0.67,-1.558 1.096,-3.505 0.871,-5.959c-0,2.071 -0.303,4.072 -0.871,5.959Z"/><g id="up"><path d="M615.703,569.854c-3.263,0 1.857,-7.208 2.326,-10.916c0.983,-7.783 0.359,-16.025 0.359,-23.865c0,-23.249 -5.554,-45.75 -5.554,-69.2c0,-41.233 -1.241,-83.372 0.537,-124.515c0.697,-16.117 5.005,-31.951 6.806,-47.921c2.493,-22.105 2.332,-44.6 3.943,-66.791c2.082,-28.682 1.324,-51.775 -10.029,-77.521c-0.656,-1.489 -0.285,-11.048 -1.074,-11.844c-2.529,-2.552 -21.977,4.414 -25.789,5.366c-20.039,5.002 -42.229,0.842 -62.137,6.478c-92.34,26.142 -179.177,5.191 -271.463,5.191c-26.842,0 -41.042,-4.463 -68.164,-5.31c-23.034,-0.72 -16.101,86.207 -3.465,186.854c12.601,100.369 -10.277,238.488 26.023,245.291c27.426,5.14 397.37,-6.085 409.109,-12.403c0.189,-0.102 -3.27,-2.598 -3.577,-2.778" style="fill:#fff;"/><path d="M612.245,590.45c1.091,0.14 2.242,0.22 3.458,0.237c9.55,0 17.608,-6.44 20.058,-15.211l0.284,-0.68c0.148,-0.414 0.297,-0.829 0.446,-1.244l0.182,-0.612c1.598,-2.408 1.57,-8.912 1.85,-11.413l0.182,-26.454c-0.074,-5.174 -0.368,-10.311 -0.836,-15.427c-1.641,-17.906 -5.449,-35.511 -5.71,-53.773c-0.352,-24.715 -1.175,-49.741 -1.486,-74.697c-0.205,-16.427 -0.188,-32.816 0.308,-49.057c0.13,-4.254 0.534,-8.489 1.091,-12.714c1.501,-11.382 3.875,-22.695 5.012,-34.061l3.163,-67.527c0.911,-15.215 1.08,-28.951 -0.477,-42.273c-1.587,-13.588 -4.848,-26.774 -10.887,-40.555c-0.108,-2.319 -0.366,-7.136 -0.637,-8.864c-0.808,-5.165 -3.24,-8.186 -4.524,-9.454c-2.394,-2.365 -6.852,-5.246 -13.678,-4.982c-6.883,0.266 -22.808,5.671 -26.398,6.607c-15.358,4.006 -32.107,2.241 -47.954,4.296c-4.901,0.635 -9.733,1.547 -14.45,2.936c-35.25,10.311 -69.725,13.489 -104.052,13.54c-54.128,0.082 -107.874,-7.313 -163.562,-6.993c-7.269,0.017 -13.56,-0.312 -19.439,-0.81c-15.729,-1.333 -28.697,-3.768 -48.348,-4.337c-8.091,-0.235 -15.094,3.579 -19.972,12.673c-3.536,6.59 -5.993,17.221 -7.015,31.19c-2.539,34.705 2.754,92.977 10.439,156.664c7.843,67.404 -0.418,151.65 4.193,201.916c1.595,17.383 4.977,31.197 10.058,40.182c5.362,9.482 12.81,14.773 21.676,16.544c15.553,3.124 140.321,2.619 249.079,0.396c63.264,-1.293 121.052,-3.094 148.409,-5.053c3.539,-0.254 6.724,-0.599 9.537,-0.99Zm-12.241,-435.824c-4.07,1.067 -8.001,2.087 -9.193,2.372c-4.739,1.13 -9.569,1.859 -14.462,2.298c-15.752,1.413 -32.25,-0.694 -47.409,3.426c-28.408,7.775 -56.271,11.299 -83.915,12.398c-63.685,2.532 -126.149,-8.162 -191.397,-8.563c-8.061,-0.019 -15.037,-0.414 -21.554,-0.997c-14.486,-1.294 -26.553,-3.579 -44.029,-4.357c-0.101,1.731 -2.749,4.341 -3.409,7.531c-2.446,11.822 -2.732,29.49 -1.691,51.049c1.542,31.916 6.171,71.962 11.761,114.482c7.726,57.408 4.027,127.207 6.152,177.931c0.7,16.715 2.027,31.2 4.82,42.13c0.839,3.284 1.832,6.171 3.015,8.605c0.715,1.473 0.881,3.055 2.13,3.274c11.313,1.973 81.745,0.126 160.532,-2.923c83.748,-3.24 176.746,-8.146 219.922,-11.962c2.173,-0.192 4.345,-0.592 6.411,-1.058l0.384,-15.189c0.259,-18.108 -3.013,-35.79 -4.134,-53.833c-0.316,-5.094 -0.502,-10.21 -0.429,-15.367c0.407,-28.881 0.233,-58.206 0.865,-87.32c0.276,-12.712 0.686,-25.38 1.388,-37.956c0.303,-5.424 0.939,-10.817 1.785,-16.189c1.733,-10.993 4.343,-21.892 5.723,-32.878l4.723,-66.054c1.124,-13.178 1.672,-25.088 0.606,-36.678c-1.029,-11.183 -3.512,-22.056 -8.414,-33.541c-0.06,-0.139 -0.122,-0.354 -0.181,-0.631Z"/><path d="M469.932,932.126c-3.093,0 -4.172,-18.717 -4.795,-22.662c-3.757,-23.786 -2.25,-48.544 -2.25,-72.578c0,-28.226 0.191,-55.879 1.125,-84.033c0.127,-3.836 -2.524,-22.143 0.846,-25.208c35.027,-31.856 65.992,-59.888 97.553,-96.001c15.444,-17.673 27.55,-37.091 49.338,-47.87c1.24,-0.613 18.379,142.196 13.898,168.349c-3.996,23.321 -7.367,10.958 -23.2,26.192c-24.292,23.373 -39.606,53.598 -60.054,79.964c-17.645,22.749 -28.147,49.272 -42.853,73.847c-4.095,6.844 -5.257,15.248 -12.127,19.862c-5.001,3.358 -23.903,6.877 -12.407,6.877" style="fill:#fff;"/><path d="M454.22,946.466c-1.996,2.951 -2.752,5.934 -3.224,8.098c-0.687,3.15 -1.276,24.327 24.01,25.135c6.192,-0 11.756,-2.707 15.571,-7.005c3.338,-1.389 6.587,-2.881 8.085,-3.956c4.309,-3.09 7.738,-6.641 10.312,-10.829c2.963,-4.82 4.395,-10.658 7.258,-15.795c9.86,-17.57 17.623,-36.016 27.258,-53.525c3.747,-6.81 7.738,-13.492 12.391,-19.849c13.9,-18.896 25.2,-39.619 38.932,-58.601c5.408,-7.475 11.178,-14.682 17.754,-21.306c5.021,-5.034 8.316,-5.992 10.643,-7.08c3.469,-1.621 6.243,-3.4 8.673,-6.383c2.647,-3.248 5.546,-8.624 7.392,-20.912c3.374,-21.153 -7.717,-116.199 -12.953,-155.551c-1.007,-7.57 -1.731,-13.123 -2.206,-15.744c-0.329,-1.813 -0.702,-2.989 -0.898,-3.521c-4.138,-11.205 -14.046,-8.132 -16.856,-6.758c-9.932,4.857 -18.111,11.286 -25.51,18.509c-9.995,9.758 -18.434,21.109 -28.046,31.857c-12.516,13.884 -24.898,26.535 -37.517,38.62c-19.404,18.582 -39.323,35.824 -60.696,54.489c-2.768,2.405 -5.692,7.414 -6.576,14.544c-0.86,6.933 0.283,18.424 0.106,21.423l-3.292,84.56c-0.415,14.572 -1.36,29.375 -1.405,44.115c-0.032,10.615 0.474,21.173 1.813,31.606c0.512,3.995 1.792,20.053 4.05,25.897c1.298,3.358 3.006,5.957 4.931,7.962Zm148.47,-341.925c-1.571,1.375 -3.079,2.809 -4.543,4.285c-9.434,9.512 -17.152,20.695 -26.132,31.211c-12.501,14.758 -24.964,28.178 -37.567,41.138c-17.582,18.079 -35.493,35.174 -54.632,53.303c3.133,3.403 0.104,16.371 0.085,18.903l1.042,83.505c0.406,14.241 0.287,28.738 1.071,43.122c0.484,8.868 1.396,17.665 3.02,26.314c0.207,1.098 1.739,4.184 2.961,7.423c8.511,-14.324 16.033,-29.107 24.823,-43.165c4.909,-7.851 10.131,-15.51 16.086,-22.763c14.749,-18.048 27.041,-38.013 41.581,-56.19c6.717,-8.398 13.831,-16.469 21.841,-23.83c7.338,-6.775 14.956,-10.306 18.064,-11.565c0.465,-1.546 1.174,-4.087 1.628,-6.444c3.583,-19.553 -4.555,-106.483 -9.328,-145.247Zm-128.611,307.167c-1.366,-0.313 -2.747,-0.457 -4.147,-0.415c1.42,-0 2.807,0.142 4.147,0.415Z"/><path d="M30.462,743.084c94.625,-0 192.497,6.809 288.823,2.138c54.8,-2.658 109.127,-0.046 157.863,-22.758c18.075,-8.424 66.795,-80.35 92.941,-102.393c13.429,-11.322 30.163,-39.107 45.36,-47.778c8.32,-4.746 -73.881,-1.988 -98.737,-1.988c-91.508,-0 -262.807,-24.333 -338.376,28.084c-38.233,26.519 -84.628,62.365 -116.375,96.699c-2.665,2.883 -49.439,43.239 -38.791,53.334c6.375,6.045 5.368,-2.01 5.368,-6.755" style="fill:#fff;"/><path d="M43.252,763.729c62.236,-0.74 125.798,1.037 189.293,0.317c29.237,-0.332 58.444,-1.15 87.506,-3.036c33.004,-2.08 65.849,-2.329 97.389,-7.095c22.593,-3.414 44.545,-9.033 65.467,-19.095c5.836,-2.799 14.703,-10.777 24.583,-22.08c21.842,-24.985 51.952,-67.229 70.577,-83.206c9.429,-8.016 20.513,-23.843 31.521,-36.038c4.032,-4.466 7.957,-8.419 11.872,-10.668c8.401,-4.826 7.414,-11.551 5.915,-15.521c-0.852,-2.256 -2.752,-5.717 -7.816,-7.603c-1.833,-0.683 -5.884,-1.445 -11.593,-1.788c-20.809,-1.25 -72.399,0.149 -91.254,0.111c-62.28,-0.684 -161.11,-12.656 -242.347,-4.695c-41.643,4.081 -78.805,13.595 -105.453,31.47c-23.521,15.704 -50.027,34.758 -74.61,54.863c-16.935,13.849 -32.911,28.234 -46.456,42.372c-2.179,2.267 -30.538,26.652 -40.71,43.462c-9.7,16.031 -6.089,29.97 1.891,37.839c9.03,8.903 17.01,8.202 21.221,7.608c5.208,-0.734 9.526,-3.202 13.004,-7.217Zm544.368,-182.105c-23.895,-0.08 -56.763,0.93 -70.908,0.958c-53.103,0.561 -133.254,-7.004 -205.697,-2.628c-48.815,2.949 -94.017,11.08 -123.255,32.021c-18.559,13.367 -39.062,29.071 -58.771,45.712c-19.353,16.34 -37.886,33.612 -52.913,50.453c-0.938,1.054 -7.56,7.112 -15.071,14.877c56.627,1.756 114.172,5.266 171.738,6.581c28.637,0.655 57.261,0.751 85.777,-0.165c32.181,-1.094 64.169,-0.253 94.992,-4.075c19.902,-2.468 39.306,-6.869 57.877,-15.251c3.954,-1.79 9.436,-7.657 16.208,-15.104c23.039,-25.334 55.017,-68.24 74.514,-84.394c7.72,-6.457 16.529,-18.449 25.509,-28.985Zm21.133,-19.456l0.686,-0.409c-0.238,0.135 -0.467,0.271 -0.686,0.409Z"/><path d="M49.799,927.535c0,5.185 -4.657,-12.057 -4.897,-14.009c-1.332,-10.828 -1.922,-21.633 -3.673,-32.438c-5.008,-30.906 -11.866,-62.293 -13.05,-93.628c-0.524,-13.869 -3.246,-27.019 -5.718,-40.545c-0.496,-2.715 -1.628,-8.119 -1.628,-8.119l7.75,0c12.587,0 25.463,0.817 37.952,-0.734c28.176,-3.501 55.858,-6.29 84.082,-10.323c48.124,-6.877 95.433,4.677 143.251,7.004c37.401,1.82 74.216,-3.171 111.42,1.85c14.006,1.89 57.459,-8.343 67.751,0.734c4.917,4.337 -0,41.13 -0,48.296c-0,42.881 -2.445,84.642 -4.897,127.169c-0.388,6.721 4.528,36.551 -0,40.544c-9.858,8.694 -59.563,-6.558 -70.616,-7.739c-70.559,-7.538 -141.064,-19.898 -212.226,-19.898c-34.048,-0 -101.689,1.836 -135.501,1.836" style="fill:#fff;"/><path d="M56.449,948.149l128.851,-4.246c27.888,-0.514 55.698,0.858 83.473,3.18c42.482,3.552 84.836,9.182 127.203,13.028c8.386,0.781 38.75,9.138 57.713,9.64c10.886,0.289 19.223,-2.364 23.459,-6.203c2.776,-2.516 6.157,-8.64 6.378,-17.529c0.259,-10.415 -2.484,-27.58 -2.255,-32.47c1.226,-25.666 2.398,-51.053 3.144,-76.568c0.498,-17.023 0.835,-34.101 0.739,-51.358c-0.009,-5.301 2.546,-26.622 2.043,-39.429c-0.362,-9.217 -3.559,-15.608 -6.17,-17.924c-4.064,-3.607 -11.163,-6.148 -20.26,-6.721c-16.928,-1.065 -43.519,4.291 -53.835,2.866c-11.631,-1.661 -23.231,-2.374 -34.827,-2.636c-25.797,-0.585 -51.565,1.238 -77.593,-0.26c-33.569,-2.048 -66.826,-8.588 -100.355,-10.211c-15.158,-0.733 -30.361,-0.472 -45.674,1.495l-83.98,8.909c-4.411,0.473 -8.871,0.565 -13.345,0.548c-7.536,-0.03 -15.103,-0.456 -22.575,-0.583l-7.75,-0.132c-5.195,0 -10.114,2.342 -13.39,6.375c-3.276,4.033 -4.559,9.328 -3.494,14.413l1.404,7.709c1.308,7.914 2.702,15.696 3.67,23.573c0.588,4.786 0.98,9.608 1.082,14.528c0.252,13.209 1.488,26.435 3.143,39.652c2.369,18.916 5.692,37.783 8.354,56.474l2.945,31.761c0.234,2.267 4.448,18.199 6.294,21.816c7.399,14.492 20.771,11.888 25.608,10.303Zm406.64,-201.987l-1.139,-0.192c-2.535,-0.311 -5.434,-0.366 -8.535,-0.297c-17.514,0.388 -40.221,4.356 -49.77,3.097c-10.664,-1.355 -21.287,-1.837 -31.899,-1.901c-26.115,-0.158 -52.157,2.147 -78.521,1.099c-33.446,-1.216 -66.689,-6.992 -100.085,-7.724c-13.433,-0.295 -26.885,0.305 -40.388,2.43l-84.186,11.737c-5.599,0.792 -11.274,1.141 -16.974,1.312c-3.196,0.095 -6.401,0.122 -9.602,0.126c0.838,4.268 1.629,8.53 2.305,12.823c0.938,5.954 1.621,11.964 1.958,18.105c0.672,11.901 2.254,23.781 4.198,35.641c3.049,18.605 7.066,37.121 10.405,55.49l3.839,28.881l120.605,0.705c21.846,0.402 43.598,1.932 65.311,4.111c49.651,4.984 99.02,13.38 148.466,19.479c7.773,0.937 35.486,9.886 53.278,11.09c-1.84,-8.808 2.376,-26.045 2.658,-30.139c1.72,-25.462 3.494,-50.643 4.625,-75.97c0.747,-16.713 1.192,-33.489 1.286,-50.442c0.006,-5.329 3.081,-27.755 2.165,-39.461Zm-433.544,176.503c-0.37,1.332 -0.617,2.94 -0.579,4.87c-0,-1.677 0.198,-3.309 0.579,-4.87Z"/></g></svg>