<svg viewBox="0 0 778 1036" xmlns="http://www.w3.org/2000/svg" xml:space="preserve" style="fill-rule:evenodd;clip-rule:evenodd;stroke-linejoin:round;stroke-miterlimit:2"><path d="M116.446 95.735c-1.171-1.061-8.263 22.094-8.6 23.965-4.595 25.51-4.016 52.337-5.725 78.137-4.794 72.356-3.281 145.029-3.281 217.491 0 142.111 3.686 284 3.686 426.141 0 41.462 2.457 82.858 2.457 124.218 0 10.577-5.263 37.11 0 46.814 2.084 3.843 29.387 2.216 32.768 2.216 39.029 0 76.478-.106 115.097-6.269 118.179-18.862 252.583 4.053 373.121 4.053 16.253 0 116.097.009 125.749-8.474 7.585-6.665 3.528-90.925 2.04-101-13.438-90.939-18.047-183.811-28.664-275.363-18.008-155.289 1.731-313.292-12.704-468.522-2.915-31.344-.405-63.983-.405-95.477 0-1.879 8.924-39.49 6.561-40.545-12.692-5.662-41.237.904-54.478 1.469-43.29 1.849-86.55 4.338-129.841 6.27-95.696 4.271-191.024 12.677-286.306 16.948-42.645 1.911-94.036-17.371-135.566-8.107-8.47 1.89 2.187 54.624 7.777 57.137" style="fill:#fff"/><path d="M95.156 91.567c-2.98 7.823-7.337 22.843-7.618 24.475-1.435 8.332-2.385 16.785-3.024 25.3-1.376 18.364-1.321 37.014-2.384 55.171-1.717 29.305-2.422 58.651-2.602 88.013-.267 43.606.609 87.238.942 130.802l6.589 426.141 3.181 124.218c.04 7.109-2.252 21.434-2.152 33.01.074 8.508 1.543 15.926 4.17 20.706 1.602 2.913 5.252 6.979 12.176 8.632 8.47 2.023 30.171.988 33.317.971 23.726-.125 46.874-.296 70.043-1.793 15.67-1.012 31.349-2.616 47.216-5.223 35.298-5.8 72.093-7.807 109.54-7.778 87.091.069 177.623 10.884 261.419 10.599 11.951-.016 68.57-.107 102.363-3.442 16.229-1.602 27.998-5.221 31.402-8.22 1.848-1.628 4.077-4.625 5.435-9.375 1.182-4.133 2.066-10.723 2.543-18.727 1.685-28.266-.916-76.232-2.038-83.781-3.988-27.163-7.208-54.497-9.984-81.921-6.507-64.279-10.75-129.032-17.996-193.142-3.443-30.76-5.4-61.621-6.403-92.543-4.06-125.218 6.961-251.393-3.969-375.906-.783-9.046-1.081-18.201-1.128-27.404-.113-22.237 1.258-44.735 1.398-66.685.009-1.465 6.014-25.443 6.994-35.011 1.308-12.768-7.122-18.916-9.574-20.028-5.806-2.636-13.915-3.85-22.946-3.755-13.464.143-29.63 3.181-38.69 3.51l-129.913 5.348-286.404 14.842c-28.768 1.062-61.507-8.012-92.403-10.7-16.223-1.411-31.998-1.185-46.73 1.976-5.915 1.269-11.364 4.764-15.177 11.573-2.154 3.846-3.993 10.684-3.984 19.422.013 11.657 3.002 28.663 6.391 40.725Zm606.256-54.76-3.521.253c-12.133.87-25.284 3.353-33.13 3.738L534.992 47.99 248.783 67.042c-30.199 1.593-64.779-6.974-97.276-9.277-4.885-.347-9.714-.534-14.455-.462 3.669 9.846 4.683 24.206-.352 26.902 4.473 5.881 5.674 13.967 2.433 21.175a20.687 20.687 0 0 1-4.955 6.843c-1.93 4.694-5.887 10.408-6.024 11.135-1.775 9.436-2.781 19.073-3.465 28.769-1.108 15.71-1.433 31.559-2.577 47.035-2.114 28.588-3.236 57.231-3.85 85.897-.931 43.42-.72 86.883-1.052 130.269l.783 426.141 1.733 124.218c-.035 6.3-1.888 18.127-2.41 28.87-.093 1.922-.273 3.797-.336 5.501 7.245.139 19.058.362 20.771.371 23.159.122 45.756.222 68.385-1.016 14.779-.809 29.572-2.187 44.551-4.508 36.765-5.695 75.046-7.434 113.989-7.092 87.072.763 177.513 12.093 261.293 12.378 9.079.012 44.448.069 75.336-1.39 15.381-.727 29.615-1.797 38.619-3.504.747-.141 1.58-.338 2.349-.54a49.02 49.02 0 0 0 .609-3.725c1.351-11.597 1.401-30.1.991-47.087-.446-18.434-1.432-35.084-2.032-39.157-4.09-27.505-7.352-55.189-10.27-82.955-6.741-64.145-11.472-128.75-19.077-192.708-3.768-31.399-5.989-62.915-7.303-94.499-5.183-124.592 4.426-250.281-7.733-374.095-.978-9.842-1.442-19.81-1.621-29.832-.4-22.346.681-44.973.54-67.034-.007-1.152 3.029-15.261 5.035-26.858Zm-592.47 78.366.11.037-.222-.084.112.047Zm-.853-.356a20.616 20.616 0 0 1-5.633-3.644 19.387 19.387 0 0 0 5.633 3.644Z"/><path d="M159.043 139.231c0-11.331-5.709 22.713-6.144 26.536-2.148 18.922-3.236 37.73-3.685 56.77-1.341 56.759 6.1 112.538 7.371 169.207 3.092 137.764.672 276.839 6.967 414.336 1.521 33.233-12.09 99.521 5.319 130.12 3.035 5.334 62.559-5.946 68.411-6.637 71.234-8.412 138.606-13.274 210.524-13.274 51.351 0 109.84 1.588 160.151 10.322 17.425 3.025 33.101 5.499 49.968 11.058 1.758.579 23.936 7.248 24.167 6.637 8.454-22.287-3.516-57.815-8.613-79.987-10.246-44.578-14.57-91.72-20.063-137.124-8.892-73.494-24.567-152.804-18.847-227.079 7.45-96.733 23.917-188.881 2.457-285.319-6.209-27.901-.193-83.859-13.515-108.004-4.03-7.305-58.934 4.655-64.711 5.522-69.909 10.502-139.34 19.103-209.296 27.651-43.237 5.283-86.766 1.482-130.246 1.482-13.847 0-53.654-4.883-53.654-2.952" style="fill:#fff"/><path d="M165.822 117.372c-5.061-1.812-10.402-1.939-15.949.72-2.293 1.099-7.926 3.89-10.973 12.012-1.797 4.791-6.036 29.83-6.402 33.346a589.87 589.87 0 0 0-2.304 29.382 740.501 740.501 0 0 0-.973 29.232c-.249 17.472.293 34.843 1.25 52.174 2.169 39.304 6.452 78.377 7.71 117.919 2.969 96.325 3.275 193.304 5.694 289.928 1.043 41.656 2.46 83.242 4.681 124.682 1.19 22.575-4.499 60.46-2.74 91.987.97 17.37 4.203 33.008 10.8 44.419 1.702 2.943 7.675 8.467 18.721 8.503 16.78.055 58.63-7.898 63.551-8.507 35.378-4.379 69.797-7.9 104.313-10.321a1581.522 1581.522 0 0 1 104.605-3.895c30.375-.118 63.274.27 95.467 2.477 21.514 1.475 42.706 3.774 62.598 7.196 10.29 1.771 19.958 3.338 29.634 5.496 6.147 1.37 12.298 2.98 18.627 5.056 1.467.481 16.545 4.999 22.668 6.469 10.693 2.568 16.251-6.166 16.587-7.057 3.2-8.475 4.138-18.505 3.491-29.141-1.207-19.852-8.012-42.107-11.614-57.839-4-17.549-7.072-35.501-9.639-53.587-3.896-27.448-6.648-55.198-9.842-82.324-5.091-43.884-12.616-89.852-16.506-135.566-2.553-30.004-3.515-59.892-1.114-88.97 4.892-58.442 12.984-115.195 14.196-172.268.825-38.822-1.522-77.781-10.037-117.501-3.946-18.415-2.197-49.259-4.676-74.659-1.47-15.06-4.524-28.458-9.65-37.934-2.311-4.278-8.274-9.71-19.026-10.753-16.316-1.582-57.599 6.599-62.716 7.32-27.87 3.931-55.659 7.556-83.436 11-41.834 5.186-83.632 9.952-125.623 14.699-16.561 1.871-33.154 2.318-49.765 2.189-26.032-.203-52.102-1.841-78.172-2.101-10.58-.105-36.514-3.301-47.625-3.824a50.902 50.902 0 0 0-5.811.041Zm445.863 3.674c-16.185.435-46.273 7.568-50.339 8.216-27.989 4.463-55.9 8.617-83.804 12.588-41.864 5.958-83.699 11.494-125.729 17.014-13.593 1.785-27.22 2.698-40.871 3.138-30.498.985-61.11-.564-91.684-.262-9.319.093-30.241-1.857-43.283-2.611-1.263 4.211-2.554 7.972-2.675 8.954a549.155 549.155 0 0 0-2.656 27.304 701.888 701.888 0 0 0-1.438 27.622c-.546 16.545-.332 33.01.266 49.444 1.442 39.616 4.997 79.04 5.517 118.878 1.357 96.438-.018 193.485.84 290.213.368 41.37 1.155 82.676 2.718 123.85.878 22.593-5.341 60.403-4.018 91.957.407 9.721 1.417 18.783 4.062 26.19 17.332-.546 52.701-7.092 57.084-7.584 35.899-4.035 70.82-7.159 105.82-9.27 35.004-2.111 70.087-3.215 106.311-3.063 30.938.12 64.437.861 97.215 3.285 22.346 1.653 44.362 4.069 65.022 7.687 10.69 1.873 20.734 3.546 30.785 5.819 6.895 1.559 13.793 3.394 20.89 5.745.795.263 5.949 1.835 11.19 3.349.329-5.012-.062-10.41-.772-15.907-2.131-16.516-7.492-33.807-10.442-46.574-4.213-18.179-7.448-36.781-10.203-55.518-4.061-27.614-7.052-55.529-10.442-82.819-5.553-44.089-13.529-90.257-17.921-136.196-3.011-31.482-4.337-62.859-2.154-93.426 4.071-57.874 11.447-114.116 11.832-170.588.248-36.494-2.493-73.078-11.076-110.28-4.433-19.21-3.423-51.5-6.446-78.044-.805-7.065-1.829-13.648-3.599-19.111ZM179.93 153.609c5.079-4.497 6.561-9.993 6.507-15.113 0 5.95-2.499 11.32-6.507 15.113Zm-41.647-12.685.001.008-.009-.115.008.107Zm-.048-.666-.026-1.027c-.003.356.005.698.026 1.027Z"/><path d="M466.745 172.157c3.278 5.874 7.04 12.658 9.895 15.861 7.14 8.175 14.407 16.1 21.355 24.429 4.456 5.34 8.756 10.748 12.831 16.404 7.21 10.52 15.178 21.32 23.185 32.617 5.068 7.149 10.246 14.411 15.277 21.867 12.512 18.546 25.113 37.449 38.355 55.225 12.311 16.526 24.714 32.017 37.683 45.603 8.637 7.591 21.811 6.741 29.401-1.896 7.591-8.637 6.741-21.812-1.897-29.402-22.637-16.901-45.718-38.093-66.303-61.998-8.109-9.417-15.896-19.124-22.89-29.165-11.086-15.915-20.222-32.474-28.934-47.684l-28.891-47.628c-1.757-2.878-3.137-9.212-4.783-13.988-1.875-5.442-4.213-9.629-5.444-11.56-4.45-6.982-10.974-7.729-14.431-8.476-5.677-1.226-21.791-.365-23.871 22.343 0 7.303 3.765 13.733 9.462 17.448Zm-4.294-7.33c-.082-.087-.152-.152-.152-.152l.152.152Zm35.628-4.159c.67-1.558 1.096-3.505.871-5.959 0 2.071-.303 4.072-.871 5.959Z"/><path d="M615.703 569.854c-3.263 0 1.857-7.208 2.326-10.916.983-7.783.359-16.025.359-23.865 0-23.249-5.554-45.75-5.554-69.2 0-41.233-1.241-83.372.537-124.515.697-16.117 5.005-31.951 6.806-47.921 2.493-22.105 2.332-44.6 3.943-66.791 2.082-28.682 1.324-51.775-10.029-77.521-.656-1.489-.285-11.048-1.074-11.844-2.529-2.552-21.977 4.414-25.789 5.366-20.039 5.002-42.229.842-62.137 6.478-92.34 26.142-179.177 5.191-271.463 5.191-26.842 0-41.042-4.463-68.164-5.31-23.034-.72-16.101 86.207-3.465 186.854 12.601 100.369-10.277 238.488 26.023 245.291 27.426 5.14 397.37-6.085 409.109-12.403.189-.102-3.27-2.598-3.577-2.778" style="fill:#fff"/><path d="M612.245 590.45c1.091.14 2.242.22 3.458.237 9.55 0 17.608-6.44 20.058-15.211l.284-.68.446-1.244.182-.612c1.598-2.408 1.57-8.912 1.85-11.413l.182-26.454a200.708 200.708 0 0 0-.836-15.427c-1.641-17.906-5.449-35.511-5.71-53.773-.352-24.715-1.175-49.741-1.486-74.697-.205-16.427-.188-32.816.308-49.057.13-4.254.534-8.489 1.091-12.714 1.501-11.382 3.875-22.695 5.012-34.061l3.163-67.527c.911-15.215 1.08-28.951-.477-42.273-1.587-13.588-4.848-26.774-10.887-40.555-.108-2.319-.366-7.136-.637-8.864-.808-5.165-3.24-8.186-4.524-9.454-2.394-2.365-6.852-5.246-13.678-4.982-6.883.266-22.808 5.671-26.398 6.607-15.358 4.006-32.107 2.241-47.954 4.296-4.901.635-9.733 1.547-14.45 2.936-35.25 10.311-69.725 13.489-104.052 13.54-54.128.082-107.874-7.313-163.562-6.993-7.269.017-13.56-.312-19.439-.81-15.729-1.333-28.697-3.768-48.348-4.337-8.091-.235-15.094 3.579-19.972 12.673-3.536 6.59-5.993 17.221-7.015 31.19-2.539 34.705 2.754 92.977 10.439 156.664 7.843 67.404-.418 151.65 4.193 201.916 1.595 17.383 4.977 31.197 10.058 40.182 5.362 9.482 12.81 14.773 21.676 16.544 15.553 3.124 140.321 2.619 249.079.396 63.264-1.293 121.052-3.094 148.409-5.053 3.539-.254 6.724-.599 9.537-.99Zm-12.241-435.824c-4.07 1.067-8.001 2.087-9.193 2.372-4.739 1.13-9.569 1.859-14.462 2.298-15.752 1.413-32.25-.694-47.409 3.426-28.408 7.775-56.271 11.299-83.915 12.398-63.685 2.532-126.149-8.162-191.397-8.563a243.934 243.934 0 0 1-21.554-.997c-14.486-1.294-26.553-3.579-44.029-4.357-.101 1.731-2.749 4.341-3.409 7.531-2.446 11.822-2.732 29.49-1.691 51.049 1.542 31.916 6.171 71.962 11.761 114.482 7.726 57.408 4.027 127.207 6.152 177.931.7 16.715 2.027 31.2 4.82 42.13.839 3.284 1.832 6.171 3.015 8.605.715 1.473.881 3.055 2.13 3.274 11.313 1.973 81.745.126 160.532-2.923 83.748-3.24 176.746-8.146 219.922-11.962 2.173-.192 4.345-.592 6.411-1.058l.384-15.189c.259-18.108-3.013-35.79-4.134-53.833-.316-5.094-.502-10.21-.429-15.367.407-28.881.233-58.206.865-87.32.276-12.712.686-25.38 1.388-37.956.303-5.424.939-10.817 1.785-16.189 1.733-10.993 4.343-21.892 5.723-32.878l4.723-66.054c1.124-13.178 1.672-25.088.606-36.678-1.029-11.183-3.512-22.056-8.414-33.541a3.605 3.605 0 0 1-.181-.631Z"/><path d="M469.932 932.126c-3.093 0-4.172-18.717-4.795-22.662-3.757-23.786-2.25-48.544-2.25-72.578 0-28.226.191-55.879 1.125-84.033.127-3.836-2.524-22.143.846-25.208 35.027-31.856 65.992-59.888 97.553-96.001 15.444-17.673 27.55-37.091 49.338-47.87 1.24-.613 18.379 142.196 13.898 168.349-3.996 23.321-7.367 10.958-23.2 26.192-24.292 23.373-39.606 53.598-60.054 79.964-17.645 22.749-28.147 49.272-42.853 73.847-4.095 6.844-5.257 15.248-12.127 19.862-5.001 3.358-23.903 6.877-12.407 6.877" style="fill:#fff"/><path d="M454.22 946.466c-1.996 2.951-2.752 5.934-3.224 8.098-.687 3.15-1.276 24.327 24.01 25.135 6.192 0 11.756-2.707 15.571-7.005 3.338-1.389 6.587-2.881 8.085-3.956 4.309-3.09 7.738-6.641 10.312-10.829 2.963-4.82 4.395-10.658 7.258-15.795 9.86-17.57 17.623-36.016 27.258-53.525 3.747-6.81 7.738-13.492 12.391-19.849 13.9-18.896 25.2-39.619 38.932-58.601 5.408-7.475 11.178-14.682 17.754-21.306 5.021-5.034 8.316-5.992 10.643-7.08 3.469-1.621 6.243-3.4 8.673-6.383 2.647-3.248 5.546-8.624 7.392-20.912 3.374-21.153-7.717-116.199-12.953-155.551-1.007-7.57-1.731-13.123-2.206-15.744-.329-1.813-.702-2.989-.898-3.521-4.138-11.205-14.046-8.132-16.856-6.758-9.932 4.857-18.111 11.286-25.51 18.509-9.995 9.758-18.434 21.109-28.046 31.857-12.516 13.884-24.898 26.535-37.517 38.62-19.404 18.582-39.323 35.824-60.696 54.489-2.768 2.405-5.692 7.414-6.576 14.544-.86 6.933.283 18.424.106 21.423l-3.292 84.56c-.415 14.572-1.36 29.375-1.405 44.115-.032 10.615.474 21.173 1.813 31.606.512 3.995 1.792 20.053 4.05 25.897 1.298 3.358 3.006 5.957 4.931 7.962Zm148.47-341.925a88.528 88.528 0 0 0-4.543 4.285c-9.434 9.512-17.152 20.695-26.132 31.211-12.501 14.758-24.964 28.178-37.567 41.138-17.582 18.079-35.493 35.174-54.632 53.303 3.133 3.403.104 16.371.085 18.903l1.042 83.505c.406 14.241.287 28.738 1.071 43.122.484 8.868 1.396 17.665 3.02 26.314.207 1.098 1.739 4.184 2.961 7.423 8.511-14.324 16.033-29.107 24.823-43.165 4.909-7.851 10.131-15.51 16.086-22.763 14.749-18.048 27.041-38.013 41.581-56.19 6.717-8.398 13.831-16.469 21.841-23.83 7.338-6.775 14.956-10.306 18.064-11.565.465-1.546 1.174-4.087 1.628-6.444 3.583-19.553-4.555-106.483-9.328-145.247ZM474.079 911.708a16.302 16.302 0 0 0-4.147-.415c1.42 0 2.807.142 4.147.415Z"/><path d="M30.462 743.084c94.625 0 192.497 6.809 288.823 2.138 54.8-2.658 109.127-.046 157.863-22.758 18.075-8.424 66.795-80.35 92.941-102.393 13.429-11.322 30.163-39.107 45.36-47.778 8.32-4.746-73.881-1.988-98.737-1.988-91.508 0-262.807-24.333-338.376 28.084-38.233 26.519-84.628 62.365-116.375 96.699-2.665 2.883-49.439 43.239-38.791 53.334 6.375 6.045 5.368-2.01 5.368-6.755" style="fill:#fff"/><path d="M43.252 763.729c62.236-.74 125.798 1.037 189.293.317 29.237-.332 58.444-1.15 87.506-3.036 33.004-2.08 65.849-2.329 97.389-7.095 22.593-3.414 44.545-9.033 65.467-19.095 5.836-2.799 14.703-10.777 24.583-22.08 21.842-24.985 51.952-67.229 70.577-83.206 9.429-8.016 20.513-23.843 31.521-36.038 4.032-4.466 7.957-8.419 11.872-10.668 8.401-4.826 7.414-11.551 5.915-15.521-.852-2.256-2.752-5.717-7.816-7.603-1.833-.683-5.884-1.445-11.593-1.788-20.809-1.25-72.399.149-91.254.111-62.28-.684-161.11-12.656-242.347-4.695-41.643 4.081-78.805 13.595-105.453 31.47-23.521 15.704-50.027 34.758-74.61 54.863-16.935 13.849-32.911 28.234-46.456 42.372-2.179 2.267-30.538 26.652-40.71 43.462-9.7 16.031-6.089 29.97 1.891 37.839 9.03 8.903 17.01 8.202 21.221 7.608 5.208-.734 9.526-3.202 13.004-7.217ZM587.62 581.624c-23.895-.08-56.763.93-70.908.958-53.103.561-133.254-7.004-205.697-2.628-48.815 2.949-94.017 11.08-123.255 32.021-18.559 13.367-39.062 29.071-58.771 45.712-19.353 16.34-37.886 33.612-52.913 50.453-.938 1.054-7.56 7.112-15.071 14.877 56.627 1.756 114.172 5.266 171.738 6.581 28.637.655 57.261.751 85.777-.165 32.181-1.094 64.169-.253 94.992-4.075 19.902-2.468 39.306-6.869 57.877-15.251 3.954-1.79 9.436-7.657 16.208-15.104 23.039-25.334 55.017-68.24 74.514-84.394 7.72-6.457 16.529-18.449 25.509-28.985Zm21.133-19.456.686-.409c-.238.135-.467.271-.686.409Z"/><path d="M49.799 927.535c0 5.185-4.657-12.057-4.897-14.009-1.332-10.828-1.922-21.633-3.673-32.438-5.008-30.906-11.866-62.293-13.05-93.628-.524-13.869-3.246-27.019-5.718-40.545-.496-2.715-1.628-8.119-1.628-8.119h7.75c12.587 0 25.463.817 37.952-.734 28.176-3.501 55.858-6.29 84.082-10.323 48.124-6.877 95.433 4.677 143.251 7.004 37.401 1.82 74.216-3.171 111.42 1.85 14.006 1.89 57.459-8.343 67.751.734 4.917 4.337 0 41.13 0 48.296 0 42.881-2.445 84.642-4.897 127.169-.388 6.721 4.528 36.551 0 40.544-9.858 8.694-59.563-6.558-70.616-7.739-70.559-7.538-141.064-19.898-212.226-19.898-34.048 0-101.689 1.836-135.501 1.836" style="fill:#fff"/><path d="m56.449 948.149 128.851-4.246c27.888-.514 55.698.858 83.473 3.18 42.482 3.552 84.836 9.182 127.203 13.028 8.386.781 38.75 9.138 57.713 9.64 10.886.289 19.223-2.364 23.459-6.203 2.776-2.516 6.157-8.64 6.378-17.529.259-10.415-2.484-27.58-2.255-32.47 1.226-25.666 2.398-51.053 3.144-76.568.498-17.023.835-34.101.739-51.358-.009-5.301 2.546-26.622 2.043-39.429-.362-9.217-3.559-15.608-6.17-17.924-4.064-3.607-11.163-6.148-20.26-6.721-16.928-1.065-43.519 4.291-53.835 2.866-11.631-1.661-23.231-2.374-34.827-2.636-25.797-.585-51.565 1.238-77.593-.26-33.569-2.048-66.826-8.588-100.355-10.211-15.158-.733-30.361-.472-45.674 1.495l-83.98 8.909c-4.411.473-8.871.565-13.345.548-7.536-.03-15.103-.456-22.575-.583l-7.75-.132a17.252 17.252 0 0 0-16.884 20.788l1.404 7.709c1.308 7.914 2.702 15.696 3.67 23.573.588 4.786.98 9.608 1.082 14.528.252 13.209 1.488 26.435 3.143 39.652 2.369 18.916 5.692 37.783 8.354 56.474l2.945 31.761c.234 2.267 4.448 18.199 6.294 21.816 7.399 14.492 20.771 11.888 25.608 10.303Zm406.64-201.987-1.139-.192c-2.535-.311-5.434-.366-8.535-.297-17.514.388-40.221 4.356-49.77 3.097-10.664-1.355-21.287-1.837-31.899-1.901-26.115-.158-52.157 2.147-78.521 1.099-33.446-1.216-66.689-6.992-100.085-7.724-13.433-.295-26.885.305-40.388 2.43l-84.186 11.737c-5.599.792-11.274 1.141-16.974 1.312-3.196.095-6.401.122-9.602.126.838 4.268 1.629 8.53 2.305 12.823.938 5.954 1.621 11.964 1.958 18.105.672 11.901 2.254 23.781 4.198 35.641 3.049 18.605 7.066 37.121 10.405 55.49l3.839 28.881 120.605.705c21.846.402 43.598 1.932 65.311 4.111 49.651 4.984 99.02 13.38 148.466 19.479 7.773.937 35.486 9.886 53.278 11.09-1.84-8.808 2.376-26.045 2.658-30.139 1.72-25.462 3.494-50.643 4.625-75.97a1288.13 1288.13 0 0 0 1.286-50.442c.006-5.329 3.081-27.755 2.165-39.461ZM29.545 922.665c-.37 1.332-.617 2.94-.579 4.87 0-1.677.198-3.309.579-4.87Z"/></svg>