<svg viewBox="0 0 1183 1787" xmlns="http://www.w3.org/2000/svg" xml:space="preserve" style="fill-rule:evenodd;clip-rule:evenodd;stroke-linejoin:round;stroke-miterlimit:2"><path d="M824.321 783.639c.061.053-13.532 8.191-14.832 8.97-10.08 6.042-20.59 11.17-31.889 14.544-44.42 13.266-97.78 25.59-143.04 8.772-28.861-10.724-64.183-6.208-92.34-17.941-10.841-4.516-24.029-5.032-34.321-10.559-6.7-3.598-14.618-15.427-21.919-16.742-21.443-3.862-52.234 14.945-72.188 22.125-52.51 18.892-106.298 24.418-155.003 53.603-18.29 10.96-27.036 29.352-38.75 46.235-15.515 22.361-35.66 41.943-50.262 64.573-8.514 13.195-13.571 28.793-20.598 42.846-31.844 63.689-61.403 127.88-81.925 196.095-12.191 40.525-9.229 81.913-13.065 123.36-4.53 48.946-14.971 97.074-20.372 145.684-1.758 15.826-8.068 30.609-10.627 46.235-9.854 60.159-22.9 149.405 35.203 192.507 18.722 13.888 46.154 12.559 68.203 12.559 83.305 0 152.679-69.896 210.578-122.367 1.589-1.44-1.158 4.128-1.767 6.183-1.174 3.971-1.471 8.317-2.882 12.155-4.168 11.33-14.349 20.547-17.27 33.676-3.545 15.933 10.84 29.101 13.729 43.846 2.901 14.801 3.889 31.369 4.424 46.433.207 5.848-1.416 19.636 2.664 24.515 5.577 6.67 29.152 10.956 37.86 10.956 37.673 0 76.554-6.124 114.479-7.772 57.567-2.501 115.711 1.008 173.163-2.588 35.111-2.198 69.697-9.45 104.734-12.552 30.282-2.681 61.084-3.027 91.231-6.779 51.129-6.364 93.252-15.165 144.15-11.36 5.857.437 16.052 2.469 20.152-2.787 6.546-8.391-1.904-15.591-.89-11.956 12.502 44.816 102.748 54.922 123.559 11.155 10.453-21.985-1.265-48.79 1.992-72.14 5.554-39.818 17.584-80.036 18.605-120.566.446-17.695-4.732-33.967-5.314-51.419-1.284-38.565-2.355-79.182 1.103-117.581 2.658-29.507 7.973-56.991 6.204-87.088-2.695-45.853-18.086-90.977-22.81-136.316-6.054-58.106-13.668-116.121-44.064-167.198-22.705-38.155-46.218-77.793-84.363-102.633-20.503-13.351-44.259-28.204-66.21-38.463-14.342-6.703-32.312-11.051-44.947-21.125-18.643-14.863-35.04-31.778-59.123-38.264-12.119-3.264-28.495-.322-35.429 10.963" style="fill:#ffd78b"/><path d="M315.04 1626c-1.147 1.8-2.259 3.636-3.265 5.538-2.103 3.973-3.834 8.176-4.852 12.766-1.411 6.362-.753 12.395 1.094 18.246 3.133 9.925 10.659 19.103 12.623 29.088 1.12 5.696 1.942 11.665 2.562 17.705.944 9.201 1.421 18.561 1.74 27.394.149 4.126-.515 12.033.313 18.306.623 4.73 2.16 8.737 4.331 11.331 3.085 3.683 10.096 7.332 18.338 9.713 9.476 2.737 20.477 4.25 26.008 4.246 11.574.005 23.261-.557 34.999-1.391 26.591-1.889 53.453-5.2 79.848-6.333 40.179-1.697 80.635-.459 120.941-.76 17.505-.131 34.982-.548 52.398-1.612 10.721-.646 21.396-1.756 32.05-3.076 24.312-3.013 48.513-7.15 72.929-9.256 21.142-1.824 42.535-2.505 63.783-4.01 9.301-.658 18.575-1.473 27.789-2.599 30.588-3.738 57.941-8.373 85.892-10.613 18.182-1.457 36.622-1.882 56.419-.347 4.752.37 11.908 1.367 17.523.143a21.136 21.136 0 0 0 4.518-1.512c12.93 14.414 33.954 23.578 55.907 25.769 30.956 3.089 62.55-7.831 74.68-33.142 3.848-8.029 5.309-16.585 5.474-25.419.305-16.363-4.636-33.814-2.381-49.625 3.976-27.807 11.119-55.797 15.451-83.964 1.931-12.551 3.311-25.137 3.674-37.754.167-5.783-.208-11.429-.841-17.013-1.325-11.699-3.934-23.087-4.289-35.039-.681-22.932-1.285-46.593-.892-70.072.26-15.548.962-31.015 2.378-46.129 1.669-17.813 4.297-34.886 5.767-52.243 1.012-11.951 1.481-24.03.798-36.547-.778-14.241-2.736-28.419-5.228-42.558-5.562-31.558-13.913-62.905-17.057-94.341-3.561-35.605-7.754-71.168-17.153-105.218-6.431-23.296-15.299-45.882-27.948-67.339-13.89-23.562-28.134-47.635-45.698-68.697-12.241-14.68-26.093-27.898-42.427-38.63-12.397-8.15-25.973-16.839-39.632-24.766-9.434-5.476-18.914-10.584-28.087-14.922-8.655-4.093-18.622-7.352-27.962-11.493-5.07-2.247-9.942-4.766-14.075-8.092-11.547-9.293-22.287-19.302-34.401-27.316-8.975-5.937-18.671-10.808-29.751-13.847-10.031-2.751-22.175-2.357-32.409 1.652-7.932 3.107-14.702 8.354-19.19 15.581a14.485 14.485 0 0 0-2.072 6.048 134.787 134.787 0 0 1-7.733 3.946c-4.664 2.188-9.457 4.096-14.432 5.605-25.469 7.726-53.988 15.247-82.125 16.547-17.84.823-35.524-.837-52.025-6.888-23.622-8.663-51.361-7.637-76.32-12.764-5.413-1.112-10.679-2.549-15.678-4.606-8.02-3.302-17.208-4.651-25.762-7.06-2.602-.733-5.135-1.571-7.452-2.802-4.87-2.589-10.299-9.959-15.744-13.644-3.377-2.286-6.806-3.762-10.093-4.34-8.566-1.505-18.332-.413-28.438 2.459-17.574 4.994-36.54 15.493-50.371 20.535-36.817 13.405-74.289 20.22-110.165 33.261-15.945 5.796-31.585 12.772-46.749 21.937-8.52 5.15-15.306 11.621-21.193 18.864-7.778 9.571-13.902 20.542-21.089 30.985-12.219 17.755-27.388 33.751-40.33 50.935-3.477 4.616-6.804 9.312-9.891 14.138-2.804 4.38-5.273 8.993-7.548 13.732-4.778 9.955-8.664 20.498-13.514 30.292-19.088 38.541-37.338 77.265-53.304 116.921-10.699 26.577-20.381 53.569-28.591 81.21-3.774 12.687-6.149 25.448-7.703 38.268-3.499 28.859-2.765 58.011-5.374 87.203-1.295 14.491-3.112 28.91-5.166 43.292-4.876 34.147-11.048 68.086-14.741 102.255-.47 4.329-1.319 8.573-2.331 12.779-2.65 11.008-6.304 21.787-8.107 32.976-5.95 36.916-12.873 84.5-4.871 126.226 5.688 29.66 18.774 56.418 44.156 75.146 8.665 6.404 18.903 10.08 29.748 12.052 14.546 2.645 30.205 2.196 43.875 2.172 35.269-.063 68.173-11.949 98.814-29.886 32.349-18.937 62.168-44.651 89.63-69.597Zm168.052-842.557c-6.786-1.07-14.678 1.039-22.762 3.833-15.085 5.212-30.527 13.355-42.23 17.51-36.938 13.132-74.48 19.667-110.473 32.441-14.52 5.153-28.785 11.35-42.619 19.568-6.064 3.602-10.844 8.222-15.054 13.322-7.45 9.026-13.269 19.442-20.165 29.299-12.549 17.94-28.044 34.1-41.322 51.455-3.152 4.12-6.175 8.308-8.98 12.619-2.328 3.578-4.37 7.357-6.267 11.234-4.893 10-8.901 20.596-13.866 30.433-15.937 31.573-31.316 63.268-45.279 95.537-13.903 32.13-26.408 64.824-36.676 98.523-4.703 15.456-7.078 31.054-8.499 46.735-2.239 24.698-2.169 49.599-4.555 74.513-1.421 14.836-3.376 29.597-5.571 44.317-5.053 33.896-11.393 67.578-15.265 101.504-.587 5.156-1.605 10.212-2.837 15.219-2.589 10.52-6.2 20.799-7.98 31.495-5.821 34.976-12.962 80.048-5.578 119.653 4.685 25.128 15.3 48.03 36.7 63.991 6.431 4.788 14.112 7.372 22.176 8.868 13.454 2.497 27.954 2.002 40.606 2.025 32.099.057 62.012-10.902 89.951-27.136 42.666-24.79 80.754-61.788 114.869-92.613 5.362-4.852 9.79-1.904 11.388-.686 1.562 1.191 3.625 3.421 3.421 7.456-.062 1.23-1.986 6.133-2.599 8.2l-3.066 12.678c-3.088 8.378-9.228 15.703-13.688 24.104-1.403 2.642-2.604 5.418-3.285 8.471-.734 3.286-.255 6.394.695 9.418 3.302 10.514 10.982 20.362 13.047 30.939 1.209 6.194 2.101 12.685 2.766 19.253.97 9.578 1.459 19.321 1.779 28.515.101 2.922-.249 7.812-.129 12.598.067 2.68-.328 5.428.812 6.794 2.082 2.493 7.85 3.872 13.595 5.283 6.817 1.673 13.919 2.667 17.78 2.67 11.177-.004 22.461-.56 33.795-1.376 26.747-1.925 53.765-5.276 80.316-6.444 40.369-1.803 81.024-.657 121.525-1.071 17.193-.175 34.359-.638 51.462-1.734 10.352-.671 20.656-1.793 30.94-3.114 24.518-3.15 48.921-7.42 73.549-9.657 21.224-1.927 42.705-2.711 64.037-4.318 8.989-.677 17.95-1.503 26.853-2.631 30.844-3.909 58.423-8.678 86.612-11.08 19.128-1.63 38.532-2.18 59.376-.681 2.338.168 7.306.249 10.215.278a43.798 43.798 0 0 1-.927-2.955c-1.718-6.234 1.408-9.485 3.294-10.989 2.412-1.924 6.424-3.525 11.238-.866 2.389 1.32 7.868 7.229 7.787 15.089 8.743 13.709 27.739 21.414 46.82 23.201 22.339 2.092 45.95-3.884 54.587-22.192 2.544-5.393 3.316-11.165 3.39-17.083.216-17.198-4.765-35.522-2.497-52.153 3.794-27.898 10.758-56.003 14.902-84.265 1.713-11.69 2.929-23.407 3.182-35.148.103-4.752-.261-9.386-.813-13.969-1.482-12.29-4.22-24.254-4.684-36.817-.858-23.263-1.638-47.266-1.41-71.091.154-16.131.773-32.18 2.129-47.869 1.534-17.75 4.039-34.77 5.369-52.066.838-10.901 1.192-21.917.474-33.322-.837-13.3-2.796-26.53-5.233-39.721-5.934-32.113-14.633-64.001-18.101-96.011-3.702-34.159-7.913-68.29-17.208-100.911-6.011-21.096-14.179-41.55-25.82-60.929-13.354-22.232-26.951-45.011-43.77-64.844-10.668-12.58-22.66-23.948-36.831-33.093-12.061-7.78-25.261-16.083-38.543-23.635-8.79-4.998-17.617-9.66-26.157-13.604-10.085-4.657-21.933-8.168-32.515-13.273-5.512-2.66-10.708-5.73-15.344-9.391-10.929-8.632-21.039-18.028-32.489-25.453-6.541-4.241-13.559-7.786-21.604-9.914a21.564 21.564 0 0 0-3.51-.615 14.145 14.145 0 0 1-1.604 3.553c-.401.643-1.293 2.159-3.395 3.799-.186.145-.578.453-1.2.853-.278.179-.865.545-1.671 1.033-3.577 2.166-12.466 7.436-13.51 8.055-5.494 3.261-11.103 6.275-16.876 8.923-5.937 2.723-12.041 5.076-18.364 6.935-27.668 8.132-58.673 15.824-89.171 16.97-21.565.81-42.883-1.602-62.759-9.085-22.304-8.397-48.664-7.205-72.264-12.265-7.061-1.513-13.909-3.501-20.419-6.247-8.357-3.524-18.188-4.522-26.867-7.539-2.972-1.034-5.843-2.243-8.559-3.717-2.217-1.202-4.571-2.922-6.93-5.013-2.66-2.358-5.436-5.285-8.229-7.853-1.056-.971-2.92-2.358-3.418-2.723Z"/><path d="M951.682 1143.83c-3.237 4.539-.273 17.472-.734 21.513-2.109 18.141-3.553 36.885-4.118 55.721-.564 18.771-.314 37.595 1.099 55.961.778 10.597 4.321 20.731 6.044 31.099.354 2.135.637 4.278.732 6.447.75 18.669.453 37.473 1.21 56.193.521 12.877 1.495 25.716 3.76 38.445 4.871 30.164 12.408 59.282 17.273 88.991 3.131 19.12 5.038 38.482 4.69 58.473-.567 24.236-1.404 47.338-.485 70.585.625 15.823 2.096 31.684 5.008 47.995.985 5.612 2.552 11.244 4.332 16.867 2.407 7.605 5.305 15.15 7.779 22.473 1.085 3.213 9.303 15.831 12.818 19.561 7.193 7.635 15.489 4.597 17.824 3.526 3.36-1.541 9.915-5.793 7.832-16.745a14.49 14.49 0 0 0-4.902-8.051c-.321-2.547-7.407-8.596-7.407-8.596s.107.445.157.569c-2.826-7.018-6.087-14.226-8.864-21.524-1.678-4.412-3.223-8.83-4.266-13.269-3.479-14.999-5.615-29.648-6.916-44.306-2.014-22.699-2.18-45.346-2.735-69.085-.287-15.842-2.011-31.24-4.399-46.449-5.472-34.861-14.847-68.638-21.024-103.821-1.89-11.977-2.629-24.034-2.797-36.119-.259-18.723.797-37.497.673-56.17-.01-2.966-.259-5.907-.622-8.841-1.211-9.778-4.254-19.391-4.559-29.347-.475-17.615.143-35.616 1.619-53.52 1.488-18.039 3.904-35.936 6.88-53.224.777-4.459 3.8-13.48 4.826-21.207.784-5.902.251-11.315-1.112-15.381-2.779-8.293-8.839-13.273-19.243-13.592-8.049 0-14.584 6.535-14.584 14.584 0 3.992 1.608 7.612 4.211 10.244Zm56.271 579.319c-.121 1.152-.082 2.506.312 4.071a14.391 14.391 0 0 1-.312-4.071Zm-46.569-574.997c.216.02.44.024.671.017l-.671-.017Z"/><path d="M344.926 1284.05c-3.42 0-4.829-12.883-5.533-15.743-4.73-19.212-12.038-40.143-13.291-59.787-1.626-25.489 6.56-60.853 21.261-82.308 10.052-14.67 30.827-24.949 32.328-44.044 1.254-15.947-1.38-33.059-4.43-48.625-2.31-11.786-8.932-20.295.883-31.088 12.901-14.187 58.504-6.563 68.428 9.963 5.669 9.44 8.854 17.398 8.854 28.698v14.949c0-5.354 10.091-12.908 13.285-16.544 23.579-26.844 35.356-64.058 60.231-90.471 10.129-10.754 25.254-19.067 36.978-28.301 5.956-4.692 38.135-30.911 48.495-21.522 12.613 11.43 8.319 30.993 2.211 43.838-11.44 24.061-32.404 53.513-37.196 79.72-4.972 27.191 34.5 57.577 44.948 79.515 19.744 41.457-4.807 102.933-27.233 139.698-18.296 29.995-53.739 48.812-79.72 72.147-12.094 10.862-19.716 27.464-32.766 36.265-8.746 5.898-27.3-.073-38.313 3.787-18.164 6.367-28.639 25.431-50.925 18.735-27.721-8.329-48.72-44.285-59.787-69.154-7.398-16.625-1.993-26.883-1.993-42.846" style="fill:#fff"/><path d="M462.52 1029.36a56.315 56.315 0 0 0-1.635-6.423c-1.687-5.317-4.179-10.378-7.409-15.866-6.011-10.215-22.43-18.717-39.921-21.679-18.439-3.123-37.181.473-45.641 9.579-6.173 6.644-8.05 12.931-8.245 19.058-.217 6.779 2.826 13.598 4.328 21.721 1.649 8.921 3.149 18.369 3.795 27.782.409 5.967.449 11.918-.068 17.695-.454 5.084-3.361 9.001-6.655 12.727-7.654 8.654-17.781 16.12-24.101 25.135-8.247 11.74-14.783 27.309-19.047 43.485-4.244 16.105-6.143 32.806-5.42 46.814.341 6.603 1.307 13.342 2.615 20.127 1.427 7.398 3.304 14.85 5.223 22.207a14.51 14.51 0 0 0-3.281 9.21c.13 10.017-1.851 17.84-1.551 26.328.239 6.787 1.498 13.924 5.317 22.218 7.237 15.738 18.295 35.583 32.292 50.958 10.694 11.748 23.071 20.948 36.596 24.84 9.13 2.628 16.848 2.269 23.821.199 6.288-1.867 11.971-5.152 17.504-8.987 5.484-3.802 10.754-8.345 17.356-10.746 3.057-1.112 6.974-.911 10.951-.813 6.083.149 12.283.442 17.529-.305 4.787-.682 8.996-2.112 12.373-4.447 4.821-3.334 9.072-7.486 12.986-12.117 6.979-8.259 12.753-18.25 20.708-25.547 17.937-16.441 40.457-30.757 58.602-48.098 8.625-8.243 16.329-17.123 22.298-27.113 13.61-22.75 27.861-54.506 32.997-85.54 3.74-22.6 2.675-44.823-6.297-63.349-7.27-15.033-28.061-33.982-39.116-53.199-4.052-7.044-6.816-14.039-5.59-20.892 1.351-7.499 4.158-15.283 7.681-23.121 8.473-18.852 20.897-37.944 28.769-54.495 4.3-8.999 7.668-20.873 6.597-31.779-.811-8.248-4.034-15.976-10.711-22.051-5.417-4.928-14.631-5.398-24.899-1.234-13.865 5.624-30.565 18.899-34.794 22.197-8.152 6.354-17.938 12.254-26.557 18.842-4.193 3.205-8.121 6.573-11.551 10.178-5.334 5.597-10.106 11.661-14.543 18.002-15.48 22.124-26.397 47.981-43.306 68.499Zm144.42-123.512c-.467.014-2.053.08-3.079.336-3.954.984-8.442 3.294-12.846 5.921-9.672 5.768-18.801 13.285-21.653 15.554-8.126 6.467-17.895 12.499-26.489 19.205-3.394 2.648-6.589 5.408-9.357 8.377-4.641 4.987-8.779 10.384-12.614 16.022-16.554 24.33-27.888 52.83-46.836 74.719-2.233 2.586-6.536 12.748-10.657 11.667.259 42.735-4.863 56.882-9.983 52.49-5.171 4.431-10.343-10.043-9.975-53.765l-.003-.214-.135-15.044c-.04-4.438-.702-8.216-1.912-11.806-1.311-3.892-3.283-7.548-5.733-11.545-3.794-6.193-14.735-9.59-25.486-11.195-6.495-.969-13.093-1.009-18.621.148-2.98.624-5.623 1.463-7.187 3.221-1.932 2.17-2.341 4.062-2.04 6.03.734 4.79 3.01 9.666 4.19 15.367 2.015 9.727 3.852 20.039 4.78 30.329.652 7.22.829 14.43.354 21.444-.55 8.095-3.545 15.097-7.916 21.473-7.131 10.399-19.147 18.542-25.983 28.753-6.452 9.655-11.277 22.446-14.415 35.617-3.184 13.363-4.518 27.164-3.642 38.701.546 7.178 2.042 14.523 3.862 21.887 2.959 11.967 6.835 23.947 9.784 35.331.393 1.518 4.611 7.955 3.059 10.197a14.49 14.49 0 0 1 3.102 8.982c0 7.468-5.626 13.633-12.868 14.479 5.899 13.639 14.789 30.82 26.398 44.202 7.057 8.137 14.985 15.005 24.09 17.857 5.069 1.588 9.115.948 12.794-.738 10.173-4.66 18.866-13.313 30.377-17.198 3.301-1.115 7.041-1.737 11.041-1.906 5.226-.221 11.012.292 16.45.459 3.198.099 6.259.768 8.281-.562 3.194-2.1 5.975-4.803 8.594-7.766 7.774-8.795 14.442-19.361 23.243-27.1 18.179-15.997 40.911-29.746 59.298-46.654 7.393-6.798 14.065-14.111 19.243-22.428 12.883-20.719 26.657-49.665 31.815-78.151 3.366-18.594 3.152-36.98-4.049-52.357-6.942-14.801-27.193-33.5-37.832-52.419-6.14-10.92-9.329-21.969-7.358-32.519 1.626-8.76 4.899-17.861 9.041-27.015 8.569-18.934 20.99-38.166 28.902-54.81 2.601-5.497 4.869-12.423 5.055-19.199.145-5.279-1.005-10.519-5.084-14.377Z"/><path d="M150.734 1401.63c0-7.368 25.254-25.764 30.109-31.889 29.052-36.652 77.566-63.186 121.792-76.522 9.741-2.938 26.297-16.196 35.868-13.75 31.782 8.12 51.924 42.456 78.165 59.985 19.239 12.851 41.337 21.62 61.56 32.684 7.976 4.363 20.431 8.679 17.934 19.926-4.067 18.323-28.764 38.475-41.188 51.618-19.191 20.301-35.344 44.238-52.473 66.36-12.837 16.578-28.887 33.116-40.08 50.816-7.698 12.175-10.851 27.66-24.583 34.677" style="fill:#ffd78b"/><path d="M164.755 1405.63c8.504 4.434 22.848-22.483 26.643-27.526 13.239-17.528 31.071-32.804 50.798-45.339 20.197-12.832 42.269-22.888 63.396-29.743 5.94-1.911 14.284-7.367 22.203-11.304 3.172-1.577 5.976-3.537 8.336-2.972 8.513 2.04 16.107 6.239 23.196 11.524 18.582 13.856 34.143 34.167 52.606 46.269 6.03 3.993 12.337 7.579 18.753 11.011 14.33 7.666 29.3 14.401 43.382 22.191 3.511 1.977 8.034 3.889 11.408 6.592 1.184.949 2.272 2.024 1.86 3.769-1.481 6.28-6.148 12.621-11.565 18.84-9.155 10.509-20.788 20.288-28.141 27.794-6.088 6.199-11.877 12.756-17.528 19.484-12.746 15.17-24.649 31.292-36.999 46.543-9.22 11.333-19.993 22.597-29.612 34.288-4.471 5.435-8.671 10.973-12.434 16.618-4.769 7.126-7.936 15.471-12.692 22.441-1.806 2.647-4.017 4.933-7.163 6.436-7.167 3.662-10.012 12.455-6.35 19.622 3.663 7.167 12.455 10.012 19.622 6.35 5.974-3.258 10.664-7.421 14.398-12.387 6.241-8.302 9.472-18.966 14.914-28.089 3.04-5.074 6.475-10.068 10.141-14.989 9.059-12.162 19.292-23.954 27.971-35.738 9.968-13.476 19.549-27.598 29.693-41.196 6.593-8.837 13.411-17.449 20.727-25.498 8.522-9.331 22.774-22.151 32.252-35.287 5.134-7.116 8.97-14.36 10.418-21.314 1.263-6.061.106-10.967-2.491-15.079-4.134-6.545-13.239-10.766-20.108-14.412-14.206-7.685-29.358-14.181-43.746-21.865-5.927-3.166-11.702-6.569-17.24-10.301-17.993-12.248-32.995-32.509-50.988-46.601-8.976-7.03-18.649-12.619-29.541-15.577-3.691-1.002-8.042-.778-12.742.492-9.314 2.518-20.942 10.61-28.454 12.733-23.079 6.436-47.282 16.354-69.659 29.22-22.942 13.191-43.831 29.617-59.731 48.742-3.652 4.376-18.523 15.026-26.059 23.246-5.804 6.331-7.974 12.872-8.079 17.009 0 8.049 6.535 14.584 14.584 14.584 6.66 0 12.284-4.475 14.021-10.581Z"/><path d="M844.025 124.234c.911 5.782 16.19 11.239 20.46 14.382 20.609 15.167 40.274 29.685 59.128 47.178 43.47 40.333 86.03 101.591 98.764 161.095 10.728 50.129 24.812 120.939-30.364 148.432-10.821 5.392-45.018 2.861-51.784 12.652-11.017 15.943-6.41 47.423-8.629 65.593-3.696 30.259-26.257 71.247-41.87 97.805-45.943 78.15-125.552 99.787-210.951 114.203-58.234 9.831-116.015 13.649-169.724-16.111-23.994-13.295-46.789-35.696-65.523-55.52-19.602-20.743-42.842-38.437-58.812-62.42-23.71-35.606-38.905-88.475-49.54-130.028-4.898-19.139-18.085-58.584-9.271-78.244 15.641-34.892 28.348-16.984 54.976-29.05 6.157-2.79 3.232-13.152 4.152-19.848 11.834-86.169-7.825-167.055 70.959-230.137 13.236-10.598 29.752-20.532 45.705-26.46 58.594-21.773 124.906-18.128 186.349-18.128 29.963 0 60.708-4.464 90.452.86 7.436 1.332 72.877 5.682 72.877 14.392" style="fill:#fff"/><path d="M374.862 406.086c-8.85 3.61-15.95 3.388-22.099 3.926-5.491.481-10.457 1.42-15.236 3.927-6.758 3.545-13.574 10.289-20.265 25.436-3.33 7.529-4.251 17.428-3.378 28.205 1.6 19.741 8.968 42.797 12.451 56.179 6.503 24.993 14.674 54.022 25.281 81.023 7.384 18.798 15.946 36.623 25.932 51.517 5.059 7.558 10.798 14.523 16.919 21.155 13.601 14.736 29.145 27.773 42.916 42.299 11.414 12.069 24.323 25.056 38.06 36.471 9.502 7.896 19.401 15.045 29.501 20.658 22.342 12.416 45.364 19.264 68.825 22.39 34.772 4.632 70.54.992 106.482-4.979 52.485-8.653 102.778-20.171 144.892-45.087 28.729-16.997 53.703-40.175 73.105-72.828 9.493-15.94 21.463-37.005 30.508-57.928 6.574-15.207 11.562-30.377 13.255-43.613 1.383-10.814.413-26.314 1.677-40.502.668-7.501 1.833-14.618 5.214-19.727.385-.183 1.844-.861 2.831-1.167 2.322-.72 5.027-1.221 7.899-1.652 10.109-1.517 21.948-2.053 29.803-3.828 2.995-.677 5.562-1.561 7.601-2.559 26.102-12.786 39.02-33.934 44.29-58.488 6.962-32.43-.375-71.355-6.843-102.616-6.428-31.127-20.589-62.778-38.809-91.96-18.112-29.011-40.262-55.548-62.672-76.663-7.707-7.262-15.554-14.032-23.542-20.557-11.821-9.655-23.962-18.75-36.448-28.088-2.957-2.212-12.164-13.595-16.319-10.019-2.915-5.112-8.784-8.152-14.939-7.182a14.494 14.494 0 0 0-7.197 3.315c-20.562-3.554-48.777-5.58-53.595-6.402-9.652-1.646-19.39-2.369-29.173-2.528-21.231-.345-42.668 1.992-63.739 2.151-37.19.275-76.15-.735-114.11 3.211-26.212 2.725-51.953 7.77-76.375 17.05-8.565 3.255-17.284 7.565-25.623 12.524-8.241 4.901-16.123 10.411-23.124 16.101-32.742 26.563-49.4 55.919-58.262 87.341-13.06 46.305-8.411 97.319-15.382 150.407-.448 3.397-.362 10.512-.312 13.087ZM839.97 143.954c-16.05-5.625-58.161-8.639-63.929-9.72-11.057-2.072-22.275-2.678-33.541-2.68-18.172-.003-36.457 1.472-54.45 1.337-36.4-.268-74.515-1.885-111.722 1.429-24.145 2.15-47.904 6.362-70.491 14.566-7.38 2.68-14.897 6.28-22.104 10.425-7.316 4.207-14.324 8.953-20.559 13.871-28.827 22.779-43.723 48.141-51.783 75.425-13.345 45.173-9.052 95.21-16.492 147.101-.376 2.634-.002 5.92-.047 8.96-.061 4.063-.683 7.848-2.114 10.816-1.626 3.371-4.105 6.032-7.792 7.679-10.588 4.728-19.219 5.465-26.763 5.913-4.362.259-8.213.114-11.812 1.951-4.173 2.132-7.606 6.844-11.816 16.1-3.063 6.747-2.617 16.335-1.226 26.369 2.328 16.798 7.921 34.705 10.697 45.735 6.143 24.412 13.834 52.787 23.983 79.179 6.777 17.622 14.637 34.355 23.883 48.337 4.527 6.834 9.677 13.13 15.17 19.129 13.488 14.731 28.948 27.745 42.619 42.256 10.964 11.611 23.33 24.143 36.545 35.106 8.674 7.196 17.714 13.708 26.94 18.806 25.679 14.187 52.331 20.33 79.508 21.744 27.816 1.446 56.17-2.043 84.633-6.933 50.073-8.65 98.154-19.669 138.18-43.813 25.934-15.643 48.4-36.889 65.725-66.679 8.941-15.408 20.233-35.75 28.69-55.937 5.585-13.331 9.941-26.569 11.287-38.132 1.457-12.524-.306-31.3 1.931-47.071 1.278-9.008 3.855-17.142 8.146-23.443 2.784-4.088 8.018-7.531 15.147-9.638 7.681-2.269 18.153-3.259 27.455-4.376 5.405-.649 10.316-1.103 13.122-2.525 18.841-9.549 27.819-25.191 31.406-43.086 5.897-29.419-1.89-64.48-8.125-92.676-6.257-28.248-19.685-56.82-36.663-83.136-17.25-26.736-38.235-51.108-59.384-70.43-7.325-6.693-14.778-12.919-22.355-18.916-11.654-9.223-23.615-17.891-35.911-26.795a19.157 19.157 0 0 0-1.638-1.036c-.95.195-1.934.297-2.941.297a14.543 14.543 0 0 1-11.409-5.509Z"/><path d="M405.864 591.241a67.396 67.396 0 0 0-2.234 5.184c-3.118 8.208-4.648 16.923-3.178 26.637.97 6.408 3.999 10.472 7.794 13.12 2.685 1.873 5.96 3.115 9.712 3.443-4.409 11.995-9.289 28.225-10.014 41.274-.922 16.583 5.194 28.606 16.908 32.366.397.128.794.245 1.195.348-1.579 6.117-2.764 12.255-3.469 18.35-.463 4.01-1.568 12.621-.653 19.221.82 5.917 3.269 10.643 6.579 13.42 5.68 4.767 12.279 5.848 19.167 4.177 8.935-2.167 18.738-10.488 23.666-14.402 8.902-7.073 20.564-19.935 32.781-29.974 2.853-2.346 5.708-4.567 8.551-6.433.135 6.675.525 14.543 1.584 21.724 1.184 8.027 3.304 15.267 6.322 20.045 3.137 4.968 7.271 7.962 12.004 9 1.392.304 2.789.477 4.187.508.453 10.974 3.909 20.091 10.695 25.518 12.386 9.904 25.99 6.929 38.296-4.339 5.85-5.355 11.342-12.746 16.097-20.759 1.62 5.308 4.09 10.119 7.561 14.058 4.994 5.666 11.986 9.79 21.76 11.048 13.764 1.771 24.246-1.756 32.424-8.769 6.934-5.947 12.216-14.66 16.099-25.357 5.191 9.234 12.125 17.604 20.289 23.537 13.266 9.641 29.522 13.221 46.83 5.198 3.917-1.816 7.808-5.504 11.04-10.793 1.188-1.944 2.309-4.124 3.342-6.482 7.497 11.76 18.066 24.872 29.523 31.679 10.378 6.166 21.428 7.662 32.112 1.698 8.704-4.853 13.847-16.696 15.078-31.777.846-10.377.109-22.341-1.21-33.467 12.925 7.081 28.116 8.262 43.517-.745 10.235-5.986 15.843-17.038 17.977-29.942 1.881-11.376 1.064-24.194-.437-34.751 4.573-.327 8.82-1.965 12.333-4.902 4.221-3.53 7.644-9.207 8.527-17.887 1.602-15.772-5.624-44.71-19.01-64.904-11.242-16.958-26.846-27.286-43.852-24.153-7.491 1.38-12.307 7.088-13.599 15.655-.575 3.819-.242 8.272.613 12.587-6.496-3.758-12.908-7.474-19.184-10.883a104.833 104.833 0 0 1-8.797-5.338 94.065 94.065 0 0 1-7.8-5.895c-.436-.682-4.744-7.396-6.43-9.244-2.405-2.637-5.017-3.727-6.92-4.161a11.907 11.907 0 0 0-2.962-.308c-3.254-3.384-6.682-6.673-10.196-9.7-9.301-8.012-19.321-14.077-28.484-16.279-12.916-3.103-22.643-.375-30.686 4.984-8.044 5.36-14.21 14.092-20.128 22.711-1.41 2.054-2.757 4.137-4.162 6.071-.893-1.821-1.948-3.402-3.092-4.684-4.099-4.595-9.599-8.423-15.615-10.695-6.6-2.492-13.801-3.041-20.675-1.116-9.062 2.538-16.294 7.463-22.362 13.756-6.492 6.733-11.357 15.384-16.018 23.702-4.29-4.589-9.537-8.486-15.28-11.123-7.812-3.587-16.534-4.799-25.305-2.705-11.108 2.652-19.731 8.925-26.909 17.209-6.476 7.474-11.679 16.757-16.831 25.82-4.186 7.364-8.228 14.616-13.662 19.646-7.021 6.498-15.854 5.561-24.58 4.893l-2.301-.187c.082-8.031-6.239-11.918-9.59-12.671-4.132-.929-10.301.125-15.91 5.557-1.939 1.877-4.012 4.457-5.985 7.18-4.891 1.023-9.585 2.746-14.035 5.37-2.561 1.509-4.748 3.104-6.624 4.765 2.066-5.345 3.969-9.573 5.056-11.686.566-1.1 4.177-7.162 6.711-11.387 2.05-1.431 4.11-2.919 5.265-4.024 2.165-2.069 3.339-4.121 3.912-5.554 2.075-5.19.981-9.474-1.399-12.839-1.569-2.218-4.641-5.894-11.649-5.849-3.587.023-9.344 1.939-14.106 7.811a33.908 33.908 0 0 0-1.378 1.826l-1.341.943c-.731.537-3.131 1.648-5.693 2.761a33.947 33.947 0 0 1 1.23-3.685c3.42-8.667 9.427-16.426 14.099-24.694 2.714-4.802 1.935-8.285 1.657-9.764-1.009-5.364-4.181-8.486-8.519-10.211-2.057-.819-6.182-1.998-11.408.587-.48.237-1.953 1.24-3.316 2.191.28-.848.591-1.715.866-2.595 3.261-10.445 8.699-21.401 9.716-29.506.682-5.434-1.477-14.782-4.477-24.931-2.035-6.886 1.238-18.125-2.915-20.813 5.927-3.442 8.773-10.718 6.422-17.424-2.662-7.595-10.99-11.6-18.586-8.938-9.795 3.505-15.023 10.253-17.097 19.077-2.011 8.552-.033 20.299 3.294 31.524 1.44 4.862 3.03 9.614 4.136 13.746.484 1.807 1.169 3.289 1.044 4.405-.936 8.315-7.607 19.92-9.809 30.425-1.736 8.284-1.414 16.111 1.685 22.773 1.755 3.773 5.071 7.255 10.216 9.197Zm383.961-1.33c-5.901-8.093-14.799-18.437-24.42-26.528-6.234-5.242-12.681-9.626-18.779-11.012-5.036-1.144-8.853-.333-11.955 1.79-7.003 4.791-11.359 13.621-16.534 21.008-5.623 8.025-11.948 14.784-19.767 18.33-4.275 1.939-7.94 1.621-11.073.501-3.565-1.275-7.132-4.308-9.299-9.594-.998-2.433-2.624-8.432-3.031-9.956a15.231 15.231 0 0 0-5.31-3.314c-1.64-.596-3.413-.87-5.108-.373-6.257 1.836-10.566 6.167-14.24 11.1-8.041 10.796-13.299 24.465-20.389 34.078-5.271 7.145-11.243 6.783-15.925 5.218-2.514-.84-5.506-2.706-7.86-6.425-1.422-2.247-4.304-10.044-4.843-11.519-2.18-2.604-4.992-4.85-8.14-6.249-2.536-1.127-5.34-1.635-8.162-.925-5.419 1.365-9.392 4.794-12.855 8.891-6.486 7.675-11.177 17.67-16.36 26.755-4.641 8.137-9.656 15.643-15.666 21.358-5.842 5.555-12.274 8.889-19.046 10.849-11.193 3.239-23.581 2.105-35.716 1.248l-2.118-.153-1.286 2.409c-4.959 8.31-15.946 27.917-28.184 38.244-.52.438-1.043.862-1.57 1.268-3.376 9.165-5.901 18.521-7.079 27.786-.258 2.031-.492 7.86-.615 11.458 1.192-.495 2.554-1.12 3.481-1.716 3.942-2.538 7.464-5.642 9.738-7.407 10.454-8.114 24.741-23.969 39.209-34.205 8.235-5.826 16.623-9.934 24.526-11.078 1.685-.243 11.605-.141 12.302 10.325.069 1.033.067 3.235.035 6.228-.089 8.263-.358 24.01 2.4 34.997.456 1.817 1.525 4.224 2.029 5.31l.276-.034.165-.042c2.944-15.636 8.462-31.242 10.929-38.713 2.178-6.595 3.92-11.84 6.073-17.126a132.363 132.363 0 0 1 5.304-11.418c1.231-2.365 4.051-7.088 5.924-8.668 2.457-2.073 5.037-2.627 7.121-2.612 3.391.024 7.186 1.201 9.517 6.394 2.172 4.837 2.844 12.913 1.449 22.529-1.819 12.535-6.863 28.211-13.651 41.232-4.43 8.496-9.703 15.827-15.215 20.877-.414 4.03-.507 7.893-.029 11.355.437 3.158 1.139 5.984 3.231 7.684 2.603 2.115 5.384 1.992 8.097.658 4.005-1.969 7.84-5.688 11.484-10.148 11.117-13.611 20.203-34.13 21.503-44.469l.123-3.005c.068-1.282.259-2.063.302-2.236a8.602 8.602 0 0 1 1.408-3.044c1.972-2.775 4.428-3.527 6.345-3.75 1.902-.221 3.817.102 5.689 1.215 1.031.613 3.117 1.923 4.089 5.315.08.279.277.943.341 2.05a24.578 24.578 0 0 1-.185 4.323c-.129 2.869-.34 7.103-.502 8.883l-.642 15.886c-.017 6.46.824 12.835 3.743 17.786 2.383 4.041 6.356 6.834 12.383 7.642 7.876 1.056 13.98-.573 18.684-4.564 5.161-4.379 8.719-11.111 11.553-19.149l4.501-17.677c.527-2.803.913-9.84 1.093-11.825.184-2.021.723-3.184.83-3.415 1.8-3.882 4.8-4.653 6.457-4.921 1.045-.169 9.323-.731 10.032 7.872.018.221.045.704.043 1.494-.019 12.871 6.603 28.761 16.97 39.684 9.362 9.862 22.086 15.678 36.019 9.254 2.039-.941 3.498-3.603 5.062-6.703 2.331-4.622 4.18-10.406 5.394-16.379-1.206-2.892-2.015-5.022-2.613-7.145-.922-3.272-1.387-6.536-1.81-12.343-.26-3.509-1.472-10.993-1.14-14.423.265-2.734 1.276-4.653 2.186-5.801 1.72-2.172 3.914-3.224 6.419-3.405 1.789-.129 4.411.112 7.229 2.643 3.354 3.013 5.919 7.827 7.208 13.989 1.439 6.88 1.384 15.721.069 24.614 4.029 9.055 14.011 26.034 26.103 36.194 6.559 5.51 13.676 9.416 20.731 5.453 2.279-1.284 3.423-3.992 4.402-7.169 1.699-5.509 2.229-12.435 2.179-19.788-.1-14.633-2.64-30.845-4.861-42.204-9.165-12.936-14.328-29.074-13.068-42.974.695-7.662 6.11-8.73 8.278-8.939 2.075-.199 5.235.076 7.959 3.296 1.546 1.828 5.063 11.495 6.349 15.477l4.932 17.39c.431 1.824.996 4.36 1.622 7.434a50.62 50.62 0 0 0 4.149 4.58c9.166 8.945 21.696 13.562 34.462 5.981 5.644-3.352 7.871-9.957 9.003-17.108 2.09-13.194-.302-28.625-2.368-38.373l-.032-.104c-9.962-7.544-17.135-20.699-13.471-35.185.505-1.996 1.299-3.467 2.192-4.563a266.123 266.123 0 0 1-8.81-4.27c-9.678-4.896-19.321-10.401-28.768-15.71 25.43 45.143-3.701 30.111-37.317-16.336l-1.514-2.143Zm104.15 31.455c.201 2.462-.206 4.478-.702 5.749-1.089 2.791-2.987 4.704-5.401 5.946a11.71 11.71 0 0 1-2.246.885c1.745 3.496 3.464 7.749 4.319 10.18l3.277 11.036c1.409.489 2.784.544 4.008-.082 1.342-.687 1.535-2.514 1.762-4.97.672-7.264-1.236-17.929-5.017-28.744Zm-30.485-38.285c-.161 1.372-.683 3.118-.424 4.475.454 2.38 1.859 5.782 2.164 6.503 1.291 1.171 3.037 1.598 4.659 2.148 2.575.873 5.141 1.638 7.414 2.61 2.483 1.062 4.686 2.385 6.546 4.002 1.456 1.265 3.259 3.527 4.92 6.053a93.682 93.682 0 0 0-1.313-2.589c-3.635-6.915-8.001-13.204-13.053-17.68-3.34-2.96-6.966-5.114-10.913-5.522Z" style="fill:#5c5c5c"/><path d="M580.694 427.891c-15.557-3.782-31.04 13.78-15.667 27.617 12.539 11.284 35.89-4.536 30.691-20.421-8.863-27.083-51.176 25.979-26.529 12.938" style="fill:#fff"/><path d="M548.069 447.847c-.131 1.591.226 3.046.384 4.379.44 3.688 3.274 9.085 10.138 10.816 10.002 7.869 23.178 6.596 33.26-.473 9.836-6.897 16.061-18.488 12.449-30.291-1.47-5.746-4.528-9.152-7.542-11.542a15.264 15.264 0 0 0-5.353-2.738 14.494 14.494 0 0 0-7.266-4.278c-14.155-1.806-27.749 4.3-33.257 15.185-2.946 5.823-4.575 12.361-2.813 18.942Zm39.42-7.06a14.448 14.448 0 0 1-4.872 1.558 14.43 14.43 0 0 1 1.132 4.903c2.01-1.709 3.523-3.997 3.74-6.461Z"/><path d="M781.099 429.621c-3.836-1.249-7.597-2.751-11.506-3.747-7.988-2.036-17.718 8.441-13.739 16.398 7.913 15.827 46.32 7.962 38.667-14.095-12.481-35.975-80.403 19.561-33.241 19.561" style="fill:#fff"/><path d="M768.902 460.169c4.949.383 10.096-.234 14.944-1.943 8.311-2.929 15.329-8.229 18.343-15.455 2.063-4.946 2.69-10.74.311-17.362-1.79-5.564-4.765-9.471-8.057-12.43-12.936-11.631-36.757-4.719-50.614 6.496-7.342 5.942-10.873 13.476-11.597 19.441-.435 3.585.708 6.86 2.161 10.076 2.666 5.904 10.331 11.72 26.887 13.33 2.793 0 5.404-.787 7.622-2.153Z"/><path d="M357.595 478.805c-1.429 2.88-3.166 1.633-1.917-1.72 4.081-10.958 34.516-14.776 34.516-2.303" style="fill:#fff"/><path d="M349.733 466.524a14.472 14.472 0 0 0-4.73 4.932c-.337.425-.66.857-.971 1.291-2.04 2.498-1.379 5.111-1.949 6.944-.704 2.264.857 3.885.958 5.554.101 1.684 1.696 2.417 2.195 3.739.352.931 1.425 1.125 1.911 1.917 1.473 2.398 4.503 1.821 6.929 3.085 2.51 1.306 5.08-.886 8.8-1.416 1.365-.194 2.054-1.742 3.703-2.491 1.575-.716 2.065-2.862 4.08-4.792a14.503 14.503 0 0 0 1.274-9.131 8.525 8.525 0 0 1 1.74-.359 6.532 6.532 0 0 1 1.986.122c.577 7.519 6.869 13.446 14.535 13.446 8.048 0 14.583-6.534 14.583-14.583-1.83-4.976-1.735-9.505-5.642-11.971-.907-.572-1.327-1.552-2.331-1.997-1.709-.758-2.889-2.169-4.896-2.519-2.777-.485-5.4-1.552-8.746-1.206-3.023.314-6.096.539-9.427 1.325-1.87.441-3.779.807-5.69 1.187-2.23.443-4.379.979-6.525 1.392-4.893.941-8.717 2.979-11.787 5.531Zm18.767 11.225-.636.389c-1.036.65-1.398 1.808-2.052 2.667-.169.223.189.733.275.949.345-.028 1.22-.004 1.236-.331.021-.561.869-.728.788-1.131-.203-1.003.362-1.847.389-2.543Zm7.543-1.748c-.022 1.145 1.913 1.485 2.217 2.631.113.423.877.242 1.073.644.186.383.944-.241 1.238.109.105.125.439-.477.324-.349-.371.417-.29-1.22-.877-1.476-1.231-.537-2.552-1.218-3.975-1.559Zm-.427-1.007-.006-.212a.26.26 0 0 0 .006.212Zm-30.907-3.007a.526.526 0 0 0-.178.336l.178-.336Z"/><path d="M379.647 470.759c-19.408-4.066-4.478 33.514-4.478 39.122" style="fill:#fff"/><path d="M360.614 510.746c.446 7.647 6.797 13.719 14.555 13.719 8.049 0 14.584-6.535 14.584-14.584-.464-1.18-.2-2.946-1.503-5.059-1.645-2.669-4.311-6.236-6.821-11.168-1.13-2.221-2.306-4.499-2.776-6.974a9.806 9.806 0 0 1-.159-1.387c7.21.584 13.905-4.28 15.426-11.543 1.651-7.878-3.405-15.614-11.282-17.264-6.628.938-11.122.405-14.173 3.382-1.225 1.194-2.841 1.565-3.697 2.969-.977 1.601-2.49 2.588-3.037 4.456-1.341 4.574-2.304 10.089-.701 16.882.386 1.634.782 3.332.955 5.107.405 4.172.423 8.332.358 12.276-.064 3.849-2.617 8.043-1.729 9.188Zm-.025-.738-.003-.127a.192.192 0 0 0 .003.127Zm20.042-31.334c-.128.078-.735.068-.835.314-.325.794-.913 1.515-1.043 2.491a39.756 39.756 0 0 0-.181 1.527c.929-.343 1.036-2.042 1.99-2.541.357-.188.007-.851.328-1.118.139-.115-.134-.49-.259-.673Zm484.534-342.183c-13.637-4.112 62.923-35.375 64.238-34.526 14.673 9.479 30.343 35.42 39.636 50.054.704 1.109 5.617 12.365 3.202 13.809-.277.166-5.003 2.4-4.477 2.876 2.318 2.101 26.778-7.799 36.76 14.669 6.634 14.933.51 33.866-3.203 48.334-3.14 12.238 6.174 29.038 7.038 41.998.012.182.176 6.868 0 6.9-4.127.738-26.166 6.775-28.447 5.752-16.489-7.394-36.747-46.027-50.825-59.83-13.723-13.452-28.862-15.221-44.43-24.167-15.826-9.094-35.525-47.875-38.994-65.009-7.883-38.929 100.34-10.4 58.169-.86"/><path d="M886.133 105.1c-11.93-1.27-24.534-.712-33.664 2.716-8.572 3.217-14.779 8.52-17.552 15.804-1.708 4.487-2.446 9.803-.997 16.109 2.477 10.885 10.981 29.812 21.293 45.468 7.797 11.837 16.627 21.785 24.361 26.008 11.237 6.174 22.187 8.686 32.614 14.424 3.541 1.949 7.03 4.308 10.412 7.515 10.775 10.309 25.311 34.857 38.824 49.181 5.157 5.466 10.267 9.617 15.033 11.735 1.057.47 3.716 1.106 7.475.597 6.769-.915 22.49-5.056 25.929-5.659.571-.1 6.861-1.958 7.092-8.826.065-1.938-.046-6.871-.056-7.036-.53-9.138-5.02-20.174-6.797-30.262-.561-3.182-.826-6.227-.097-8.939 2.48-9.124 5.789-19.946 6.686-30.555.703-8.311-.127-16.49-3.296-23.948-3.872-9.163-9.735-14.36-15.863-17.501-4.326-2.216-9.915-3.177-14.956-3.535-1.342-5.412-3.68-11.298-4.263-12.264-5.419-9.005-13.053-22.063-21.42-33.373-6.588-8.904-13.799-16.624-20.691-21.315-.96-.654-4.545-2.93-10.58-1.541-1.25.287-3.806 1.107-7.274 2.321-7.608 2.662-20.206 7.595-32.213 12.876Zm38.611 11.938-2.382 1.015c.79.791 1.463 1.58 2.036 2.332 3.413 4.482 3.919 9.257 3.108 13.726-.87 4.802-5.428 12.743-20.456 16.604-7.851 1.776-15.666-3.156-17.442-11.006a14.456 14.456 0 0 1-.09-6c-3.845 2.069-7.327 4.081-10.114 5.913-.075.362-.169.721-.277 1.079-2.183 7.24-9.503 11.535-16.77 10.101 2.13 5.316 4.787 11.032 7.746 16.565 6.033 11.279 12.933 22.098 19.636 26.148 10.952 6.577 21.743 9.522 31.921 15.604 4.757 2.844 9.424 6.243 13.913 10.792 9.435 9.487 21.545 30.205 33.557 45.252 4.424 5.542 8.672 10.316 12.812 12.74 4.324-.62 12.018-2.545 17.841-4.003-.739-8.469-5.197-18.52-7.022-27.792-1.161-5.897-1.364-11.554-.122-16.629 1.981-8.2 4.815-17.909 5.326-27.395.278-5.151-.202-10.225-2.311-14.771-2.321-4.974-5.767-7.256-9.288-8.176-6.418-1.677-12.915.15-16.035.354-4.997.327-8.107-1.64-9.644-2.978-3.259-2.837-6.535-9.102-.467-15.401-.252-1.489-.304-2.982-.453-3.205-5.519-8.246-13.275-20.239-21.678-30.527-3.529-4.319-7.157-8.317-10.773-11.409l-2.572 1.067Z"/><path d="M852.701 122.396c1.633 0-3.544-14.027-4.162-15.538-5.454-13.346-17.89-21.816-29.722-29.05-23.55-14.398-70.261-68.947-102.283-54.66-.883.394 9.595 7.574 9.914 7.769 1.841 1.126 23.011 9.998 23.011 11.219 0 7.702-14.599-4.963-22.052-6.91-16.146-4.217-33.312-4.45-49.866-5.752-10.43-.821-24.838-2.869-35.159 0-3.094.859-3.981 11.655-1.601 9.499 3.453-3.13-10.124-12.505-11.506-13.236-17.894-9.467-41.057-9.24-60.729-9.489-12.18-.153-45.687-5.468-55.935 3.737-11.582 10.403 37.822 16.852 41.553 16.971 2.131.068 6.396 2.132 6.396 0 0-6.162-48.261-4.873-52.101-4.606-38.185 2.652-77.504 17.725-112.513 32.223-3.786 1.568-26.724 8.355-28.447 12.948-2.351 6.27 40.649 9.593 44.43 9.776.933.045 15.636 1.18 15.024 1.73-13.415 12.063-40.508 15.892-56.578 25.313-4.219 2.474-15.92 7.058-18.533 11.792-1.39 2.52 11.258.886 8.629-.286-1.81-.808-6.714 2.821-7.67 3.449-15.94 10.482-25.8 24.289-35.801 39.982-1.787 2.806 3.835 9.213 3.835 9.213s-19.513 11.423-27.488 19.274c-12.66 12.465-22.973 36.603-15.34 54.937 2.547 6.12 12.282-.755 15.656 2.303 5.877 5.326 6.325 8.052 18.86 0 6.629-4.258 19.185-13.808 19.185-13.808s-2.708 3.696-4.161 5.466c-7.921 9.649-12.502 20.696-10.863 33.369 1.632 12.623 25.149 17.906 35.158 16.112 10.505-1.884 20.749-14.365 29.723-19.848 27.992-17.105 53.116-42.426 83.107-55.807 1.065-.475-3.02 21.95-1.285 22.724 5.383 2.402 15.803-3.804 20.46-5.752 17.134-7.168 29.085-15.997 40.269-30.78 1.248-1.65 18.77-24.257 20.777-22.438 3.079 2.79 2 9.887 6.395 13.235 16.203 12.346 56.526-8.708 71.592-14.964 6.428-2.669 13.338-5.644 19.186-9.489 2.568-1.689 6.711-9.401 6.711-6.326 0 13.856 4.142 13.335 19.818 12.365 19.003-1.176 38.038-8.313 55.936-14.382 5.539-1.878 10.291-3.604 15.656-5.752 2.911-1.166 11.493-2.469 8.629-3.747-6.576-2.934-22.705 16.348-16.941 18.702 11.7 4.778 29.448-1.354 40.595-4.31 15.075-3.998 45.173-7.55 57.21-18.128 5.006-4.399 27.548.701 34.526-1.146 8.443-2.236 18.363-5.997 24.612-12.376 27.107-27.666-46.521-59.649-63.932-40.842"/><path d="M500.138 23.085c-13.474 1.541-27.032 4.452-40.459 8.232-23.223 6.538-46.061 15.656-67.322 24.589-2.896 1.217-16.649 5.509-24.279 9.558-5.263 2.794-8.311 6.387-9.21 8.821-1.685 4.566-.706 11.109 7.739 14.825 5.804 2.554 18.438 4.48 28.874 5.693-10.565 3.745-21.413 7.204-29.525 11.999-2.926 1.73-9.349 4.486-14.036 7.581-3.566 2.355-6.287 5.058-7.659 7.566-.73 1.334-1.137 2.585-1.278 3.761-4.767 3.601-9.014 7.503-12.914 11.671-7.646 8.172-13.941 17.373-20.258 27.315-1.416 2.23-2.021 4.968-1.504 8.018.158.93.484 1.926.908 2.928-3.047 1.929-6.695 4.313-10.234 6.808-4.428 3.121-8.68 6.428-11.572 9.283-7.238 7.145-13.82 17.638-17.443 28.969-3.76 11.758-4.289 24.353.233 35.249 1.596 3.844 4.212 5.923 7.3 7.034 2.022.727 4.378.958 6.893.721 1.469-.139 3.901-.562 5.359-.834 3.712 3.257 6.439 5.122 9.786 5.566 2.16.287 4.929.026 8.869-1.591-.818 4.566-.965 9.329-.336 14.298.988 7.916 7.004 14.517 15.559 18.69 9.763 4.761 22.615 6.292 29.779 5.041 4.422-.772 8.863-2.838 13.183-5.683 6.94-4.571 13.604-11.511 19.684-15.189 19.688-11.909 37.993-27.838 57.525-40.898a201.478 201.478 0 0 1 9.755-6.153c-.161 1.745-.259 3.295-.248 4.447.067 6.802 4.394 9.841 6.144 10.634 3.411 1.547 7.848 1.8 12.625.678 5.613-1.318 12.066-4.785 15.551-6.218 9.41-3.869 17.384-8.241 24.571-13.62 7.272-5.442 13.728-11.94 19.978-20.097.488-.636 5.001-5.855 9.229-10.725.991 1.36 2.176 2.6 3.587 3.689 7.228 5.59 17.901 7.096 29.89 5.235 18.827-2.923 41.547-14.035 52.191-18.365 4.099-1.668 8.377-3.462 12.493-5.491a85.25 85.25 0 0 0 3.678-1.919c.321.342.654.657.994.954 2.666 2.329 6.172 3.894 11.022 4.43 3.39.375 7.963.161 14.037-.171 8.343-.454 16.699-1.956 24.984-4.01 8.678-2.152 17.273-4.94 25.668-7.731 1.436 2.911 3.828 5.154 7.275 6.596 5.158 2.156 11.137 2.949 17.435 2.722 10.734-.385 22.63-4.039 31.051-6.198 10.481-2.687 28.027-5.161 42.09-9.791 7.242-2.385 13.645-5.434 18.47-9.02 2.292.053 9.851.253 14.407.631 7.029.584 13.447.57 16.966-.331 5.993-1.534 12.59-3.774 18.544-6.873 4.656-2.424 8.9-5.419 12.391-8.922 8.249-8.266 10.617-17.07 9.822-25.375-.989-10.328-8.119-20.803-19.329-28.936-12.983-9.42-31.388-15.717-46.337-16.126-5.229-4.2-10.942-7.875-16.574-11.252-16.135-9.675-43.135-37.583-68.858-50.338-16.291-8.078-32.311-10.505-46.08-4.22-1.667.761-5.017 3.772-6.71 7.812-8.69-.733-17.434-1.065-26.02-1.675-6.455-.458-14.379-1.342-21.994-1.349-6.159-.006-12.14.54-17.293 2.014l-.492.152c-1.966-1.464-3.511-2.486-3.997-2.739-8.332-4.327-17.601-6.936-27.22-8.399-12.948-1.97-26.527-1.905-38.809-1.967-8.394-.042-26.672-2.329-40.943-.99-9.562.896-17.601 3.619-22.301 7.905-4.093 3.723-5.36 7.587-5.305 11.081Zm65.379 4.196c4.006 2.937 5.386 6.935 5.403 9.675.022 3.505-1.333 5.927-3.033 7.756-1.51 1.625-3.547 2.846-6.19 3.361-1.774.345-7.281-.568-8.317-.747-3.272-.233-17.368-2.084-29.495-5.211-7.448-.028-13.508.156-14.731.233-14.695.933-29.574 3.786-44.298 7.756-22.522 6.072-44.677 14.711-65.321 23.135l-.884.35c6.777 2.257 12.574 4.645 13.714 4.705.788.041 10.746.843 14.599 1.466 11.313 1.832 7.502 14.57 5.98 15.929-4.934 4.405-11.393 7.949-18.588 10.945-13.067 5.439-28.839 9.009-39.561 15.244l-5.41 2.97c.341 1.965-.028 3.941-1.202 5.904-.691 1.155-3.395 3.852-7.803 4.788-1.04.504-2.569.753-2.854.94-7.239 4.746-13.095 10.255-18.286 16.346-4.794 5.626-9.032 11.738-13.232 18.207l1.224 1.844a8.507 8.507 0 0 1-2.098 12.957s-8.487 4.951-16.399 10.495c-3.602 2.524-7.096 5.155-9.45 7.466-5.521 5.422-10.511 13.421-13.27 22.041-2.184 6.825-3.021 14.077-1.219 20.636 2.254-.378 5.556-.845 7.253-.73 2.934.198 5.377 1.239 7.305 2.983l2.118 1.937c1.093-.812 4.003-1.233 6.454-2.813l18.595-13.474a8.57 8.57 0 0 1 12.099 11.886l-4.436 5.85c-3.284 4.023-5.904 8.317-7.497 12.941-1.489 4.323-2.039 8.939-1.389 13.865.165 1.233 1.184 2.076 2.25 2.919 1.851 1.463 4.22 2.573 6.717 3.46 5.696 2.022 12.143 2.825 16.012 2.114 2.192-.404 4.3-1.641 6.433-3.073 7.096-4.766 13.925-11.913 20.144-15.751 19.355-11.946 37.298-27.866 56.473-40.972 8.831-6.035 17.915-11.494 27.466-15.82 3.467-1.572 6.529-1.014 9.258.798 1.332.883 3.201 2.528 4.013 5.807.184.742.405 2.551.21 5.09-.13 1.686-.425 4.85-.734 8.035 2.573-1.187 4.903-2.408 6.528-3.099 7.706-3.279 14.249-6.912 20.11-11.41 5.81-4.46 10.92-9.794 15.878-16.433 1.078-1.443 13.607-17.646 19.48-22.791 7.146-6.259 14.132-3.092 16.27-1.177 1.855 1.66 3.271 3.83 4.291 6.426.761 1.939 3.978 5.412 2.393 6.719 1.369.694 3.031.902 4.81 1.004 4.417.251 9.451-.673 14.648-2.051 15.595-4.133 32.278-12.712 40.739-16.297 3.604-1.528 7.371-3.157 10.986-5.005 1.957-1 3.864-2.071 5.659-3.239.628-.827 3.271-4.278 4.257-5.322 1.481-1.569 2.96-2.446 4.004-2.939 4.443-2.103 8.16-1.109 11.059.737 1.945 1.239 5.244 3.819 5.289 10.051.003.439.022.9.05 1.349 2.122-.046 5.133-.143 7.902-.335 6.911-.479 13.814-1.863 20.655-3.674 10.971-2.903 21.769-6.934 32.183-10.562l11.602-4.375c2.763-2.242 5.625-4.037 8.193-4.997 4.975-1.86 9.55-1.599 13.203.067 5.129 2.339 6.615 5.877 7.248 8.186.67 2.438.744 4.947-.15 7.421 3.046-.863 5.901-1.737 8.402-2.423 8.773-2.404 22.691-4.69 35.092-8.321 6.681-1.956 12.93-4.104 16.684-7.459 2.83-2.529 7.901-4.669 14.599-5.09 5.278-.332 12.242.252 18.402.637 2.564.16 6.32.126 7.041.116 3.407-.942 7.086-2.189 10.547-3.841 2.795-1.334 5.45-2.945 7.464-5.036 1.004-1.044 1.74-1.989 1.901-3.034.282-1.825-1.373-3.196-2.835-4.787-3.043-3.31-7.399-6.132-12.163-8.49l-.416-.199c.851 2.716 1.58 5.34 1.832 7.017 2.135 14.193-9.597 18.067-14.676 18.112-7.873 0-14.297-6.252-14.57-14.057-2.393-.595-2.612-9.731-2.959-10.602a25.19 25.19 0 0 0-1.698-3.452c-5.517 4.029-13.295 3.728-18.495-1.085-4.98-4.61-6.014-11.897-2.939-17.61l-.566-.356c-12.359-7.703-31.053-26.553-50.687-40.71-1.468 3.271-3.944 5.265-6.54 6.569-2.753 1.383-6.499 2.211-11.056 1.068-2.831-.71-6.774-2.588-10.823-4.941-2.901-1.686-5.882-3.863-8.124-4.468-5.872-1.581-11.897-2.58-17.978-3.295-9.875-1.162-19.886-1.626-29.677-2.471-5.958-.514-13.262-1.485-20.297-1.599a74.617 74.617 0 0 0-3.176.009c-.515 2.979-2.126 5.6-4.428 7.718-3.668 3.375-7.297 3.561-9.99 3.245-3.848-.452-9.873-3.401-10.927-11.617-1.709-1.495-3.611-3.131-3.936-3.306-6.076-3.275-12.899-5.181-19.953-6.364-11.816-1.982-24.244-2.021-35.477-2.248a72.788 72.788 0 0 1-2.888-.127Zm275.962 85.806a14.554 14.554 0 0 1 11.222-5.274c-4.543-.04-8.45 1.513-11.222 5.274Z"/><path d="M320.519 260.47c.882-7.217-12.982.741-15.667 2.303-13.292 7.734-32.339 19.818-36.75 35.673-2.345 8.431.083 28.3 10.863 31.066 5.45 1.399 11.913.573 17.575.573h8.955c-15.887 0-29.464 28.997-25.887 42.572 4.574 17.36 32.393 1.889 36.433 9.212 20.365 36.91 37.075 21.528 69.359 6.9 4.98-2.257 12.33 3.059 17.584.86 19.473-8.151 16.615-33.425 16.615-50.341 0-40.05-21.756-42.286-43.145-66.739-11.729-13.41-14.12-27.821-30.364-38.539-15.643-10.321-43.788-6.904-43.788 13.808"/><path d="M290.019 255.67c-6.75 4.518-13.927 9.897-19.827 16.035-6.726 6.998-11.993 14.842-14.114 23.396-1.705 6.822-1.448 19.036 2.45 28.57 3.553 8.692 9.622 15.201 17.569 17.017l.561.121c-6.169 11.594-8.849 25.594-6.361 34.302 2.546 9.004 8.278 13.265 15.585 14.821 5.305 1.13 11.735.519 17.637-.338 2.198-.32 5.242.499 6.762.121 9.073 14.752 17.996 21.047 26.945 22.948 13.786 2.929 29.421-5.995 51.071-15.887.14.988 2.298.337 3.486.643 2.453.631 4.943 1.21 7.284 1.342 2.552.143 4.984-.235 7.254-1.16 10.591-4.255 16.395-12.278 19.547-21.866 3.757-11.433 3.088-25.543 3.272-36.447.366-17.251-3.241-28.475-8.647-37.368-8.163-13.427-21.885-20.68-35.404-36.924-8.081-9.791-11.339-19.965-18.391-29.031-3.518-4.522-7.847-8.741-13.509-12.715-12.413-8.726-30.95-10.555-44.423-5.412-12.244 4.674-20.561 14.748-21.047 29.98 0 2.891.843 5.587 2.3 7.852Zm109.9 125.856c4.982-2.271 7.443-6.434 8.824-11.125 2.893-9.824 1.472-21.834 1.316-31.113-.26-12.231-2.711-20.201-6.828-26.324-8.282-12.314-21.906-18.167-35.412-32.862-8.745-9.439-12.685-19.509-20.349-28.273-2.243-2.565-4.982-4.893-8.48-7.059-3.858-2.39-8.903-3.165-13.561-2.853-1.959.131-4.01.462-5.608 1.255.668.037 1.298.115 1.88.215 4.278.734 7.428 3.051 9.867 5.997 2.309 2.789 3.974 6.857 3.427 12.854-.976 7.99-8.255 13.684-16.244 12.708a14.466 14.466 0 0 1-4.293-1.211c-1.164.498-2.186.951-2.557 1.153-6.116 3.317-13.616 7.467-20.089 12.675-5.119 4.118-9.945 8.603-11.685 14.228-.655 2.135-.783 5.476-.321 8.81.313 2.249.748 4.54 1.709 6.41.264.515.807 1.415.807 1.415s-.325-.043-.489-.09c1.356.387 2.817.57 4.312.634 3.491.15 7.084-.043 10.395.045l9.141.242.416.013c49.971-1.273 64.544 4.778 56.961 10.815 7.585 6.039-6.988 12.09-56.961 10.815l-.416.014-1.166.031c-4.265.575-7.6 5.485-10.425 10.403-3.693 6.428-6.368 13.906-5.171 18.856.354 1.449 1.652 1.582 2.91 1.691 1.646.144 3.395.097 5.144-.04 6.431-.504 12.867-1.546 16.979-.862 4.806.799 8.085 3.107 9.93 6.551 5.991 11.154 10.904 16.962 17.022 18.355 4.439 1.012 9.089-.34 14.379-2.422 7.71-3.035 16.359-7.79 26.615-12.437 2.284-1.052 4.793-1.442 7.459-1.321 2.287.103 4.758.672 7.225 1.255 1.025.242 2.814.485 3.337.552Z"/><path d="M708.221 591.862c-.639-4.076-13.286-2.225-16.615-1.147-10.108 3.274-48.408 27.228-34.2 44.292 11.356 13.638 51.648-5.17 25.245-5.17" style="fill:#fff"/><path d="M668.068 629.844c-1.42.166-2.754.247-3.661-.666-4.11-4.924 1.657-10.144 7.121-14.813 8.12-6.938 19.397-11.024 23.856-11.985.747-.139 2.829.986 4.548 1.471a14.508 14.508 0 0 0 10.549 2.418c7.952-1.247 13.395-8.716 12.148-16.667-1.778-5.962-4.979-12.442-13.441-13.492-6.405-.796-17.75 1.229-21.36 2.94-5.58 2.458-18.508 11.135-28.262 21.615-3.786 4.068-7.183 8.23-9.633 12.402-5.557 9.462-6.432 18.923.472 27.769 8.609 12.911 33.865 10.348 44.577 5.578 6.56-2.922 8.504-8.439 9.48-11.666 1.629-5.388-.742-10.423-7.347-15.455-2.191-1.67-6.709-2.945-14.464-4.039-8.049 0-14.584 6.534-14.584 14.583l.001.007Zm25.858-35.11-.112-.612c.005.218.043.422.112.612Z"/><path d="M474.576 360.865c-17.89 44.726-48.502 91.369-14.382 137.501 30.87 41.736 114.757 25.393 157.26 16.111 13.544-2.957 40.714-10.369 48.265-23.297 5.369-9.192 3.083-28.457 1.591-38.549-8.532-57.743-45.454-72.719-92.052-93.782-13.577-6.137-24.296-15.242-39.953-15.242-12.261 0-68.083 17.615-68.083 32.796" style="fill:#fff;fill-opacity:.45"/><path d="M479.19 347.033c-7.269-2.433-15.271 1.209-18.154 8.416a387.333 387.333 0 0 1-2.199 5.778 28.702 28.702 0 0 0-2.378 3.038c-2.68 3.987-3.708 8.153-3.82 12.138l.006.267c-8.785 21.553-17.733 43.46-19.609 65.251-1.82 21.144 2.224 42.279 18.296 63 14.816 19.237 39.248 27.843 66.663 29.713 35.407 2.414 75.676-5.891 101.283-11.801 8.411-1.87 21.76-5.449 32.999-10.766 9.195-4.35 16.926-10.036 20.788-16.596 2.849-4.786 4.28-11.704 4.614-19.144.4-8.925-.686-18.655-1.545-25-3.23-24.445-11.451-41.866-22.885-55.601-17.524-21.051-43.381-33.083-73.267-47.33-9.911-4.778-18.355-10.927-28.186-14.359-5.089-1.776-10.507-2.822-16.491-2.97-8.563-.218-36.38 6.58-56.115 15.966Zm3.917 30.336c-10.327 22.064-22.416 44.43-25.496 67.266-2.099 15.563.267 31.315 11.446 47.176 10.733 15.118 29.687 21.347 50.566 23.429 33.399 3.331 71.662-4.103 96.006-9.118 7.493-1.607 19.443-4.568 29.439-9.295 5.741-2.715 10.922-5.826 13.304-9.938 1.596-2.784 1.94-6.871 2.045-11.162.192-7.8-1.046-16.27-1.93-21.792-3.286-20.098-10.192-34.438-20.034-45.438-16.42-18.351-40.554-27.49-67.92-39.195-8.136-3.439-15.263-7.973-23.024-10.941-3.755-1.435-7.714-2.325-12.204-2.213-4.814.119-17.13 3.967-29.315 8.921-8.873 3.608-17.73 7.83-22.883 12.3Z"/><path d="M738.586 349.933c-32.097 8.555-63.167 72.029-43.145 103.558 31.704 49.926 83.856 50.637 136.483 50.637 25.441 0 63.931-5.411 79.905-27.903 43.476-61.22-25.619-138.719-85.025-153.622-24.679-6.191-56.253-.081-76.713 14.678-6.487 4.68-27.078 20.421-26.845 20.421" style="fill:#fff;fill-opacity:.45"/><path d="M709.987 351.383c-10.023 9.68-18.838 22.732-24.722 37.14-10.183 24.934-11.835 52.873.389 71.183 14.345 21.577 31.973 34.606 51.717 42.409 28.428 11.234 61.361 11.428 94.553 10.924 15.977-.122 36.771-2.389 54.582-9.079 13.209-4.961 24.799-12.348 32.225-22.833 19.936-27.454 19.209-58.043 7.102-85.995-17.167-39.635-58.312-73.603-96.178-83.896-13.857-3.836-29.731-4.186-45.099-1.633-15.582 2.588-30.538 8.419-42.465 16.587-5.203 3.546-19.16 13.602-25.104 17.966-1.343.986-2.31 1.723-2.769 2.08-.676.527-1.072.946-1.266 1.129-1.493 1.411-2.4 2.809-2.965 4.018Zm19.529 19.486c-8.057 6.628-15.236 16.98-20.402 28.071-7.746 16.632-11.634 35.495-3.885 48.336 10.787 17.803 24.439 28.968 40.064 35.807 25.736 11.263 56.126 11.672 86.631 12.135 14.207.109 32.779-1.41 48.669-7.217 9.898-3.618 18.766-8.86 24.333-16.678 19.245-27.789 12.407-59.007-5.559-84.639-18.26-26.052-48.102-46.445-75.415-52.714-10.764-2.424-22.943-1.96-34.627.57-11.567 2.506-22.606 7.283-31.233 13.832a386.689 386.689 0 0 0-5.133 4.014c-.93 5.445-4.934 10.124-10.617 11.639-2.706.648-5.383 1.809-7.994 3.397-.754.735-1.321 1.557-1.569 1.307a14.547 14.547 0 0 1-3.263 2.14Z"/><path d="M911.173 398.581c-.908 4.513-.039 8.495 4.442 9.967.244.247.475.412.685.488 2.094.471 4.184.465 6.157.05 5.092-.187 14.017-.414 22.873-.665 9.022.02 17.909-.195 26.851.317 5.897.338 11.789.804 17.604 1.804 9.577 1.647 18.83 4.597 28.172 7.608 5.2 1.974 24.715 12.446 29.543 10.044a14.55 14.55 0 0 0 3.688.472c3.522-.477 5.518-.713 6.271-1.081 8.855-4.33 10.548-10.147 9.896-14.121-.417-2.549-.409-5.616-2.796-8.093-.757-.785-3.358-5.131-9.95-5.761-5.774-.551-25.572-.893-31.573-1.674-7.716-1.314-15.382-2.075-23.073-3.076-5.07-.659-10.119-1.415-15.164-2.209-5.028-.791-10.023-1.674-15.039-2.585-7.489-1.361-14.867-2.886-22.401-4.265a7459.741 7459.741 0 0 0-23.593-4.934 12.531 12.531 0 0 0-1.069-.287.87.87 0 0 0-.291.023c-12.861-2.198-13.493 8.984-11.233 17.978Zm138.901.965c.368-.033.739-.047 1.114-.047a2.986 2.986 0 0 0-1.114.047Zm-701.248 15.048c-.9.154-1.916.182-3.062.049l25.56 2.791c.491-.021.976-.066 1.453-.135l2.455.439c5.729 1.476 11.287 2.517 16.714 3.665a818.118 818.118 0 0 0 16.87 3.376c10.832 2.057 21.575 3.775 33.794 5.33 8.049 0 14.583-6.535 14.583-14.584 0-8.048-6.534-14.583-14.583-14.583-13.89 1.702-25.948 3.467-38.467 3.185-6.213-.14-12.42-.847-18.871-1.845v-.041c-.344-8.041-7.151-14.291-15.193-13.947l-24.315 3.937c-9.951 1.156-11.507 8.241-11.572 8.914-.099 1.029-1.028 12.814 9.502 13.376.904.049 2.97.059 5.132.073Zm299.947-8.962a14.505 14.505 0 0 0-9.762 2.406c-1.752 1.9-2.903 2.641-3.203 3.082-.968 1.422-2.049 2.031-2.309 2.745-.627 1.725-1.729 2.775-1.776 3.922-.219 5.299-.737 9.24 1.92 11.672 1.988 1.819 3.313 4.818 6.703 5.242 1.502.187 3.297 1.569 5.712.849.71-.212 1.741.114 2.818-.463.473-.254 1.848-.316 3.412-1.567l1.716-1.422a.749.749 0 0 0 .071.409c.106.238.668-.075 1.266-.302a14.466 14.466 0 0 0 4.702-5.224c5.491-4.634 12.075-10.048 14.579-11.199 1.428-.361 4.055-.413 7.079-.089 1.921.205 3.894.691 5.923 1.202 1.23.31 2.441.663 3.617 1.047 2.419 5.854 8.495 9.655 15.1 8.913 4.552-1.701 7.293-2.185 8.393-3.245 2.547-2.453 4.947-3.667 5.466-5.723 1.101-4.361 3.163-8.171.567-11.815-.834-1.17-1.032-2.903-2.494-3.964-1.439-1.045-4.474-4.47-10.511-4.72-5.915-.244-16.542.446-25.272.925-5.268.289-9.794.167-12.251.844-2.292.309-7.43 2.542-13.338 4.559-2.455.838-5.386 1.413-8.128 1.916Zm7.992 24.126-1.639 1.389c.224-.089.419-.157.507-.219a4.024 4.024 0 0 0 1.132-1.17Zm41.871-8.997c1.301.941 3.681 2.065 3.681 2.065s-.449-.593-.881-.796a116.02 116.02 0 0 0-2.8-1.269Z"/></svg>