<?xml version="1.0" encoding="UTF-8" standalone="no"?><!DOCTYPE svg PUBLIC "-//W3C//DTD SVG 1.1//EN" "http://www.w3.org/Graphics/SVG/1.1/DTD/svg11.dtd"><svg width="100%" height="100%" viewBox="0 0 1183 1787" version="1.1" xmlns="http://www.w3.org/2000/svg" xmlns:xlink="http://www.w3.org/1999/xlink" xml:space="preserve" xmlns:serif="http://www.serif.com/" style="fill-rule:evenodd;clip-rule:evenodd;stroke-linejoin:round;stroke-miterlimit:2;"><path d="M824.321,783.639c0.061,0.053 -13.532,8.191 -14.832,8.97c-10.08,6.042 -20.59,11.17 -31.889,14.544c-44.42,13.266 -97.78,25.59 -143.04,8.772c-28.861,-10.724 -64.183,-6.208 -92.34,-17.941c-10.841,-4.516 -24.029,-5.032 -34.321,-10.559c-6.7,-3.598 -14.618,-15.427 -21.919,-16.742c-21.443,-3.862 -52.234,14.945 -72.188,22.125c-52.51,18.892 -106.298,24.418 -155.003,53.603c-18.29,10.96 -27.036,29.352 -38.75,46.235c-15.515,22.361 -35.66,41.943 -50.262,64.573c-8.514,13.195 -13.571,28.793 -20.598,42.846c-31.844,63.689 -61.403,127.88 -81.925,196.095c-12.191,40.525 -9.229,81.913 -13.065,123.36c-4.53,48.946 -14.971,97.074 -20.372,145.684c-1.758,15.826 -8.068,30.609 -10.627,46.235c-9.854,60.159 -22.9,149.405 35.203,192.507c18.722,13.888 46.154,12.559 68.203,12.559c83.305,-0 152.679,-69.896 210.578,-122.367c1.589,-1.44 -1.158,4.128 -1.767,6.183c-1.174,3.971 -1.471,8.317 -2.882,12.155c-4.168,11.33 -14.349,20.547 -17.27,33.676c-3.545,15.933 10.84,29.101 13.729,43.846c2.901,14.801 3.889,31.369 4.424,46.433c0.207,5.848 -1.416,19.636 2.664,24.515c5.577,6.67 29.152,10.956 37.86,10.956c37.673,0 76.554,-6.124 114.479,-7.772c57.567,-2.501 115.711,1.008 173.163,-2.588c35.111,-2.198 69.697,-9.45 104.734,-12.552c30.282,-2.681 61.084,-3.027 91.231,-6.779c51.129,-6.364 93.252,-15.165 144.15,-11.36c5.857,0.437 16.052,2.469 20.152,-2.787c6.546,-8.391 -1.904,-15.591 -0.89,-11.956c12.502,44.816 102.748,54.922 123.559,11.155c10.453,-21.985 -1.265,-48.79 1.992,-72.14c5.554,-39.818 17.584,-80.036 18.605,-120.566c0.446,-17.695 -4.732,-33.967 -5.314,-51.419c-1.284,-38.565 -2.355,-79.182 1.103,-117.581c2.658,-29.507 7.973,-56.991 6.204,-87.088c-2.695,-45.853 -18.086,-90.977 -22.81,-136.316c-6.054,-58.106 -13.668,-116.121 -44.064,-167.198c-22.705,-38.155 -46.218,-77.793 -84.363,-102.633c-20.503,-13.351 -44.259,-28.204 -66.21,-38.463c-14.342,-6.703 -32.312,-11.051 -44.947,-21.125c-18.643,-14.863 -35.04,-31.778 -59.123,-38.264c-12.119,-3.264 -28.495,-0.322 -35.429,10.963" style="fill:#ffd78b;"/><path d="M315.04,1626c-1.147,1.8 -2.259,3.636 -3.265,5.538c-2.103,3.973 -3.834,8.176 -4.852,12.766c-1.411,6.362 -0.753,12.395 1.094,18.246c3.133,9.925 10.659,19.103 12.623,29.088c1.12,5.696 1.942,11.665 2.562,17.705c0.944,9.201 1.421,18.561 1.74,27.394c0.149,4.126 -0.515,12.033 0.313,18.306c0.623,4.73 2.16,8.737 4.331,11.331c3.085,3.683 10.096,7.332 18.338,9.713c9.476,2.737 20.477,4.25 26.008,4.246c11.574,0.005 23.261,-0.557 34.999,-1.391c26.591,-1.889 53.453,-5.2 79.848,-6.333c40.179,-1.697 80.635,-0.459 120.941,-0.76c17.505,-0.131 34.982,-0.548 52.398,-1.612c10.721,-0.646 21.396,-1.756 32.05,-3.076c24.312,-3.013 48.513,-7.15 72.929,-9.256c21.142,-1.824 42.535,-2.505 63.783,-4.01c9.301,-0.658 18.575,-1.473 27.789,-2.599c30.588,-3.738 57.941,-8.373 85.892,-10.613c18.182,-1.457 36.622,-1.882 56.419,-0.347c4.752,0.37 11.908,1.367 17.523,0.143c1.605,-0.35 3.118,-0.852 4.518,-1.512c12.93,14.414 33.954,23.578 55.907,25.769c30.956,3.089 62.55,-7.831 74.68,-33.142c3.848,-8.029 5.309,-16.585 5.474,-25.419c0.305,-16.363 -4.636,-33.814 -2.381,-49.625c3.976,-27.807 11.119,-55.797 15.451,-83.964c1.931,-12.551 3.311,-25.137 3.674,-37.754c0.167,-5.783 -0.208,-11.429 -0.841,-17.013c-1.325,-11.699 -3.934,-23.087 -4.289,-35.039c-0.681,-22.932 -1.285,-46.593 -0.892,-70.072c0.26,-15.548 0.962,-31.015 2.378,-46.129c1.669,-17.813 4.297,-34.886 5.767,-52.243c1.012,-11.951 1.481,-24.03 0.798,-36.547c-0.778,-14.241 -2.736,-28.419 -5.228,-42.558c-5.562,-31.558 -13.913,-62.905 -17.057,-94.341c-3.561,-35.605 -7.754,-71.168 -17.153,-105.218c-6.431,-23.296 -15.299,-45.882 -27.948,-67.339c-13.89,-23.562 -28.134,-47.635 -45.698,-68.697c-12.241,-14.68 -26.093,-27.898 -42.427,-38.63c-12.397,-8.15 -25.973,-16.839 -39.632,-24.766c-9.434,-5.476 -18.914,-10.584 -28.087,-14.922c-8.655,-4.093 -18.622,-7.352 -27.962,-11.493c-5.07,-2.247 -9.942,-4.766 -14.075,-8.092c-11.547,-9.293 -22.287,-19.302 -34.401,-27.316c-8.975,-5.937 -18.671,-10.808 -29.751,-13.847c-10.031,-2.751 -22.175,-2.357 -32.409,1.652c-7.932,3.107 -14.702,8.354 -19.19,15.581c-1.168,1.901 -1.848,3.965 -2.072,6.048c-2.539,1.397 -5.115,2.718 -7.733,3.946c-4.664,2.188 -9.457,4.096 -14.432,5.605c-25.469,7.726 -53.988,15.247 -82.125,16.547c-17.84,0.823 -35.524,-0.837 -52.025,-6.888c-23.622,-8.663 -51.361,-7.637 -76.32,-12.764c-5.413,-1.112 -10.679,-2.549 -15.678,-4.606c-8.02,-3.302 -17.208,-4.651 -25.762,-7.06c-2.602,-0.733 -5.135,-1.571 -7.452,-2.802c-4.87,-2.589 -10.299,-9.959 -15.744,-13.644c-3.377,-2.286 -6.806,-3.762 -10.093,-4.34c-8.566,-1.505 -18.332,-0.413 -28.438,2.459c-17.574,4.994 -36.54,15.493 -50.371,20.535c-36.817,13.405 -74.289,20.22 -110.165,33.261c-15.945,5.796 -31.585,12.772 -46.749,21.937c-8.52,5.15 -15.306,11.621 -21.193,18.864c-7.778,9.571 -13.902,20.542 -21.089,30.985c-12.219,17.755 -27.388,33.751 -40.33,50.935c-3.477,4.616 -6.804,9.312 -9.891,14.138c-2.804,4.38 -5.273,8.993 -7.548,13.732c-4.778,9.955 -8.664,20.498 -13.514,30.292c-19.088,38.541 -37.338,77.265 -53.304,116.921c-10.699,26.577 -20.381,53.569 -28.591,81.21c-3.774,12.687 -6.149,25.448 -7.703,38.268c-3.499,28.859 -2.765,58.011 -5.374,87.203c-1.295,14.491 -3.112,28.91 -5.166,43.292c-4.876,34.147 -11.048,68.086 -14.741,102.255c-0.47,4.329 -1.319,8.573 -2.331,12.779c-2.65,11.008 -6.304,21.787 -8.107,32.976c-5.95,36.916 -12.873,84.5 -4.871,126.226c5.688,29.66 18.774,56.418 44.156,75.146c8.665,6.404 18.903,10.08 29.748,12.052c14.546,2.645 30.205,2.196 43.875,2.172c35.269,-0.063 68.173,-11.949 98.814,-29.886c32.349,-18.937 62.168,-44.651 89.63,-69.597Zm168.052,-842.557c-6.786,-1.07 -14.678,1.039 -22.762,3.833c-15.085,5.212 -30.527,13.355 -42.23,17.51c-36.938,13.132 -74.48,19.667 -110.473,32.441c-14.52,5.153 -28.785,11.35 -42.619,19.568c-6.064,3.602 -10.844,8.222 -15.054,13.322c-7.45,9.026 -13.269,19.442 -20.165,29.299c-12.549,17.94 -28.044,34.1 -41.322,51.455c-3.152,4.12 -6.175,8.308 -8.98,12.619c-2.328,3.578 -4.37,7.357 -6.267,11.234c-4.893,10 -8.901,20.596 -13.866,30.433c-15.937,31.573 -31.316,63.268 -45.279,95.537c-13.903,32.13 -26.408,64.824 -36.676,98.523c-4.703,15.456 -7.078,31.054 -8.499,46.735c-2.239,24.698 -2.169,49.599 -4.555,74.513c-1.421,14.836 -3.376,29.597 -5.571,44.317c-5.053,33.896 -11.393,67.578 -15.265,101.504c-0.587,5.156 -1.605,10.212 -2.837,15.219c-2.589,10.52 -6.2,20.799 -7.98,31.495c-5.821,34.976 -12.962,80.048 -5.578,119.653c4.685,25.128 15.3,48.03 36.7,63.991c6.431,4.788 14.112,7.372 22.176,8.868c13.454,2.497 27.954,2.002 40.606,2.025c32.099,0.057 62.012,-10.902 89.951,-27.136c42.666,-24.79 80.754,-61.788 114.869,-92.613c5.362,-4.852 9.79,-1.904 11.388,-0.686c1.562,1.191 3.625,3.421 3.421,7.456c-0.062,1.23 -1.986,6.133 -2.599,8.2l-3.066,12.678c-3.088,8.378 -9.228,15.703 -13.688,24.104c-1.403,2.642 -2.604,5.418 -3.285,8.471c-0.734,3.286 -0.255,6.394 0.695,9.418c3.302,10.514 10.982,20.362 13.047,30.939c1.209,6.194 2.101,12.685 2.766,19.253c0.97,9.578 1.459,19.321 1.779,28.515c0.101,2.922 -0.249,7.812 -0.129,12.598c0.067,2.68 -0.328,5.428 0.812,6.794c2.082,2.493 7.85,3.872 13.595,5.283c6.817,1.673 13.919,2.667 17.78,2.67c11.177,-0.004 22.461,-0.56 33.795,-1.376c26.747,-1.925 53.765,-5.276 80.316,-6.444c40.369,-1.803 81.024,-0.657 121.525,-1.071c17.193,-0.175 34.359,-0.638 51.462,-1.734c10.352,-0.671 20.656,-1.793 30.94,-3.114c24.518,-3.15 48.921,-7.42 73.549,-9.657c21.224,-1.927 42.705,-2.711 64.037,-4.318c8.989,-0.677 17.95,-1.503 26.853,-2.631c30.844,-3.909 58.423,-8.678 86.612,-11.08c19.128,-1.63 38.532,-2.18 59.376,-0.681c2.338,0.168 7.306,0.249 10.215,0.278c-0.344,-0.973 -0.652,-1.958 -0.927,-2.955c-1.718,-6.234 1.408,-9.485 3.294,-10.989c2.412,-1.924 6.424,-3.525 11.238,-0.866c2.389,1.32 7.868,7.229 7.787,15.089c8.743,13.709 27.739,21.414 46.82,23.201c22.339,2.092 45.95,-3.884 54.587,-22.192c2.544,-5.393 3.316,-11.165 3.39,-17.083c0.216,-17.198 -4.765,-35.522 -2.497,-52.153c3.794,-27.898 10.758,-56.003 14.902,-84.265c1.713,-11.69 2.929,-23.407 3.182,-35.148c0.103,-4.752 -0.261,-9.386 -0.813,-13.969c-1.482,-12.29 -4.22,-24.254 -4.684,-36.817c-0.858,-23.263 -1.638,-47.266 -1.41,-71.091c0.154,-16.131 0.773,-32.18 2.129,-47.869c1.534,-17.75 4.039,-34.77 5.369,-52.066c0.838,-10.901 1.192,-21.917 0.474,-33.322c-0.837,-13.3 -2.796,-26.53 -5.233,-39.721c-5.934,-32.113 -14.633,-64.001 -18.101,-96.011c-3.702,-34.159 -7.913,-68.29 -17.208,-100.911c-6.011,-21.096 -14.179,-41.55 -25.82,-60.929c-13.354,-22.232 -26.951,-45.011 -43.77,-64.844c-10.668,-12.58 -22.66,-23.948 -36.831,-33.093c-12.061,-7.78 -25.261,-16.083 -38.543,-23.635c-8.79,-4.998 -17.617,-9.66 -26.157,-13.604c-10.085,-4.657 -21.933,-8.168 -32.515,-13.273c-5.512,-2.66 -10.708,-5.73 -15.344,-9.391c-10.929,-8.632 -21.039,-18.028 -32.489,-25.453c-6.541,-4.241 -13.559,-7.786 -21.604,-9.914c-1.121,-0.296 -2.3,-0.503 -3.51,-0.615c-0.32,1.109 -0.827,2.303 -1.604,3.553c-0.401,0.643 -1.293,2.159 -3.395,3.799c-0.186,0.145 -0.578,0.453 -1.2,0.853c-0.278,0.179 -0.865,0.545 -1.671,1.033c-3.577,2.166 -12.466,7.436 -13.51,8.055c-5.494,3.261 -11.103,6.275 -16.876,8.923c-5.937,2.723 -12.041,5.076 -18.364,6.935c-27.668,8.132 -58.673,15.824 -89.171,16.97c-21.565,0.81 -42.883,-1.602 -62.759,-9.085c-22.304,-8.397 -48.664,-7.205 -72.264,-12.265c-7.061,-1.513 -13.909,-3.501 -20.419,-6.247c-8.357,-3.524 -18.188,-4.522 -26.867,-7.539c-2.972,-1.034 -5.843,-2.243 -8.559,-3.717c-2.217,-1.202 -4.571,-2.922 -6.93,-5.013c-2.66,-2.358 -5.436,-5.285 -8.229,-7.853c-1.056,-0.971 -2.92,-2.358 -3.418,-2.723Z"/><path d="M951.682,1143.83c-3.237,4.539 -0.273,17.472 -0.734,21.513c-2.109,18.141 -3.553,36.885 -4.118,55.721c-0.564,18.771 -0.314,37.595 1.099,55.961c0.778,10.597 4.321,20.731 6.044,31.099c0.354,2.135 0.637,4.278 0.732,6.447c0.75,18.669 0.453,37.473 1.21,56.193c0.521,12.877 1.495,25.716 3.76,38.445c4.871,30.164 12.408,59.282 17.273,88.991c3.131,19.12 5.038,38.482 4.69,58.473c-0.567,24.236 -1.404,47.338 -0.485,70.585c0.625,15.823 2.096,31.684 5.008,47.995c0.985,5.612 2.552,11.244 4.332,16.867c2.407,7.605 5.305,15.15 7.779,22.473c1.085,3.213 9.303,15.831 12.818,19.561c7.193,7.635 15.489,4.597 17.824,3.526c3.36,-1.541 9.915,-5.793 7.832,-16.745c-0.724,-3.28 -2.502,-6.057 -4.902,-8.051c-0.321,-2.547 -7.407,-8.596 -7.407,-8.596c-0,0 0.107,0.445 0.157,0.569c-2.826,-7.018 -6.087,-14.226 -8.864,-21.524c-1.678,-4.412 -3.223,-8.83 -4.266,-13.269c-3.479,-14.999 -5.615,-29.648 -6.916,-44.306c-2.014,-22.699 -2.18,-45.346 -2.735,-69.085c-0.287,-15.842 -2.011,-31.24 -4.399,-46.449c-5.472,-34.861 -14.847,-68.638 -21.024,-103.821c-1.89,-11.977 -2.629,-24.034 -2.797,-36.119c-0.259,-18.723 0.797,-37.497 0.673,-56.17c-0.01,-2.966 -0.259,-5.907 -0.622,-8.841c-1.211,-9.778 -4.254,-19.391 -4.559,-29.347c-0.475,-17.615 0.143,-35.616 1.619,-53.52c1.488,-18.039 3.904,-35.936 6.88,-53.224c0.777,-4.459 3.8,-13.48 4.826,-21.207c0.784,-5.902 0.251,-11.315 -1.112,-15.381c-2.779,-8.293 -8.839,-13.273 -19.243,-13.592c-8.049,0 -14.584,6.535 -14.584,14.584c0,3.992 1.608,7.612 4.211,10.244Zm56.271,579.319c-0.121,1.152 -0.082,2.506 0.312,4.071c-0.303,-1.37 -0.401,-2.738 -0.312,-4.071Zm-46.569,-574.997c0.216,0.02 0.44,0.024 0.671,0.017l-0.671,-0.017Z"/><path d="M344.926,1284.05c-3.42,-0 -4.829,-12.883 -5.533,-15.743c-4.73,-19.212 -12.038,-40.143 -13.291,-59.787c-1.626,-25.489 6.56,-60.853 21.261,-82.308c10.052,-14.67 30.827,-24.949 32.328,-44.044c1.254,-15.947 -1.38,-33.059 -4.43,-48.625c-2.31,-11.786 -8.932,-20.295 0.883,-31.088c12.901,-14.187 58.504,-6.563 68.428,9.963c5.669,9.44 8.854,17.398 8.854,28.698l0,10.368c0,1.527 0,6.108 0,4.581c0,-5.354 10.091,-12.908 13.285,-16.544c23.579,-26.844 35.356,-64.058 60.231,-90.471c10.129,-10.754 25.254,-19.067 36.978,-28.301c5.956,-4.692 38.135,-30.911 48.495,-21.522c12.613,11.43 8.319,30.993 2.211,43.838c-11.44,24.061 -32.404,53.513 -37.196,79.72c-4.972,27.191 34.5,57.577 44.948,79.515c19.744,41.457 -4.807,102.933 -27.233,139.698c-18.296,29.995 -53.739,48.812 -79.72,72.147c-12.094,10.862 -19.716,27.464 -32.766,36.265c-8.746,5.898 -27.3,-0.073 -38.313,3.787c-18.164,6.367 -28.639,25.431 -50.925,18.735c-27.721,-8.329 -48.72,-44.285 -59.787,-69.154c-7.398,-16.625 -1.993,-26.883 -1.993,-42.846" style="fill:#fff;"/><path d="M462.52,1029.36c-0.424,-2.206 -0.972,-4.333 -1.635,-6.423c-1.687,-5.317 -4.179,-10.378 -7.409,-15.866c-6.011,-10.215 -22.43,-18.717 -39.921,-21.679c-18.439,-3.123 -37.181,0.473 -45.641,9.579c-6.173,6.644 -8.05,12.931 -8.245,19.058c-0.217,6.779 2.826,13.598 4.328,21.721c1.649,8.921 3.149,18.369 3.795,27.782c0.409,5.967 0.449,11.918 -0.068,17.695c-0.454,5.084 -3.361,9.001 -6.655,12.727c-7.654,8.654 -17.781,16.12 -24.101,25.135c-8.247,11.74 -14.783,27.309 -19.047,43.485c-4.244,16.105 -6.143,32.806 -5.42,46.814c0.341,6.603 1.307,13.342 2.615,20.127c1.427,7.398 3.304,14.85 5.223,22.207c-2.051,2.511 -3.281,5.718 -3.281,9.21c0.13,10.017 -1.851,17.84 -1.551,26.328c0.239,6.787 1.498,13.924 5.317,22.218c7.237,15.738 18.295,35.583 32.292,50.958c10.694,11.748 23.071,20.948 36.596,24.84c9.13,2.628 16.848,2.269 23.821,0.199c6.288,-1.867 11.971,-5.152 17.504,-8.987c5.484,-3.802 10.754,-8.345 17.356,-10.746c3.057,-1.112 6.974,-0.911 10.951,-0.813c6.083,0.149 12.283,0.442 17.529,-0.305c4.787,-0.682 8.996,-2.112 12.373,-4.447c4.821,-3.334 9.072,-7.486 12.986,-12.117c6.979,-8.259 12.753,-18.25 20.708,-25.547c17.937,-16.441 40.457,-30.757 58.602,-48.098c8.625,-8.243 16.329,-17.123 22.298,-27.113c13.61,-22.75 27.861,-54.506 32.997,-85.54c3.74,-22.6 2.675,-44.823 -6.297,-63.349c-7.27,-15.033 -28.061,-33.982 -39.116,-53.199c-4.052,-7.044 -6.816,-14.039 -5.59,-20.892c1.351,-7.499 4.158,-15.283 7.681,-23.121c8.473,-18.852 20.897,-37.944 28.769,-54.495c4.3,-8.999 7.668,-20.873 6.597,-31.779c-0.811,-8.248 -4.034,-15.976 -10.711,-22.051c-5.417,-4.928 -14.631,-5.398 -24.899,-1.234c-13.865,5.624 -30.565,18.899 -34.794,22.197c-8.152,6.354 -17.938,12.254 -26.557,18.842c-4.193,3.205 -8.121,6.573 -11.551,10.178c-5.334,5.597 -10.106,11.661 -14.543,18.002c-15.48,22.124 -26.397,47.981 -43.306,68.499Zm144.42,-123.512c-0.467,0.014 -2.053,0.08 -3.079,0.336c-3.954,0.984 -8.442,3.294 -12.846,5.921c-9.672,5.768 -18.801,13.285 -21.653,15.554c-8.126,6.467 -17.895,12.499 -26.489,19.205c-3.394,2.648 -6.589,5.408 -9.357,8.377c-4.641,4.987 -8.779,10.384 -12.614,16.022c-16.554,24.33 -27.888,52.83 -46.836,74.719c-2.233,2.586 -6.536,12.748 -10.657,11.667c0.259,42.735 -4.863,56.882 -9.983,52.49c-5.171,4.431 -10.343,-10.043 -9.975,-53.765l-0.003,-0.214l-0.135,-15.044c-0.04,-4.438 -0.702,-8.216 -1.912,-11.806c-1.311,-3.892 -3.283,-7.548 -5.733,-11.545c-3.794,-6.193 -14.735,-9.59 -25.486,-11.195c-6.495,-0.969 -13.093,-1.009 -18.621,0.148c-2.98,0.624 -5.623,1.463 -7.187,3.221c-1.932,2.17 -2.341,4.062 -2.04,6.03c0.734,4.79 3.01,9.666 4.19,15.367c2.015,9.727 3.852,20.039 4.78,30.329c0.652,7.22 0.829,14.43 0.354,21.444c-0.55,8.095 -3.545,15.097 -7.916,21.473c-7.131,10.399 -19.147,18.542 -25.983,28.753c-6.452,9.655 -11.277,22.446 -14.415,35.617c-3.184,13.363 -4.518,27.164 -3.642,38.701c0.546,7.178 2.042,14.523 3.862,21.887c2.959,11.967 6.835,23.947 9.784,35.331c0.393,1.518 4.611,7.955 3.059,10.197c1.944,2.475 3.102,5.594 3.102,8.982c-0,7.468 -5.626,13.633 -12.868,14.479c5.899,13.639 14.789,30.82 26.398,44.202c7.057,8.137 14.985,15.005 24.09,17.857c5.069,1.588 9.115,0.948 12.794,-0.738c10.173,-4.66 18.866,-13.313 30.377,-17.198c3.301,-1.115 7.041,-1.737 11.041,-1.906c5.226,-0.221 11.012,0.292 16.45,0.459c3.198,0.099 6.259,0.768 8.281,-0.562c3.194,-2.1 5.975,-4.803 8.594,-7.766c7.774,-8.795 14.442,-19.361 23.243,-27.1c18.179,-15.997 40.911,-29.746 59.298,-46.654c7.393,-6.798 14.065,-14.111 19.243,-22.428c12.883,-20.719 26.657,-49.665 31.815,-78.151c3.366,-18.594 3.152,-36.98 -4.049,-52.357c-6.942,-14.801 -27.193,-33.5 -37.832,-52.419c-6.14,-10.92 -9.329,-21.969 -7.358,-32.519c1.626,-8.76 4.899,-17.861 9.041,-27.015c8.569,-18.934 20.99,-38.166 28.902,-54.81c2.601,-5.497 4.869,-12.423 5.055,-19.199c0.145,-5.279 -1.005,-10.519 -5.084,-14.377Z"/><path d="M150.734,1401.63c-0,-7.368 25.254,-25.764 30.109,-31.889c29.052,-36.652 77.566,-63.186 121.792,-76.522c9.741,-2.938 26.297,-16.196 35.868,-13.75c31.782,8.12 51.924,42.456 78.165,59.985c19.239,12.851 41.337,21.62 61.56,32.684c7.976,4.363 20.431,8.679 17.934,19.926c-4.067,18.323 -28.764,38.475 -41.188,51.618c-19.191,20.301 -35.344,44.238 -52.473,66.36c-12.837,16.578 -28.887,33.116 -40.08,50.816c-7.698,12.175 -10.851,27.66 -24.583,34.677" style="fill:#ffd78b;"/><path d="M164.755,1405.63c8.504,4.434 22.848,-22.483 26.643,-27.526c13.239,-17.528 31.071,-32.804 50.798,-45.339c20.197,-12.832 42.269,-22.888 63.396,-29.743c5.94,-1.911 14.284,-7.367 22.203,-11.304c3.172,-1.577 5.976,-3.537 8.336,-2.972c8.513,2.04 16.107,6.239 23.196,11.524c18.582,13.856 34.143,34.167 52.606,46.269c6.03,3.993 12.337,7.579 18.753,11.011c14.33,7.666 29.3,14.401 43.382,22.191c3.511,1.977 8.034,3.889 11.408,6.592c1.184,0.949 2.272,2.024 1.86,3.769c-1.481,6.28 -6.148,12.621 -11.565,18.84c-9.155,10.509 -20.788,20.288 -28.141,27.794c-6.088,6.199 -11.877,12.756 -17.528,19.484c-12.746,15.17 -24.649,31.292 -36.999,46.543c-9.22,11.333 -19.993,22.597 -29.612,34.288c-4.471,5.435 -8.671,10.973 -12.434,16.618c-4.769,7.126 -7.936,15.471 -12.692,22.441c-1.806,2.647 -4.017,4.933 -7.163,6.436c-7.167,3.662 -10.012,12.455 -6.35,19.622c3.663,7.167 12.455,10.012 19.622,6.35c5.974,-3.258 10.664,-7.421 14.398,-12.387c6.241,-8.302 9.472,-18.966 14.914,-28.089c3.04,-5.074 6.475,-10.068 10.141,-14.989c9.059,-12.162 19.292,-23.954 27.971,-35.738c9.968,-13.476 19.549,-27.598 29.693,-41.196c6.593,-8.837 13.411,-17.449 20.727,-25.498c8.522,-9.331 22.774,-22.151 32.252,-35.287c5.134,-7.116 8.97,-14.36 10.418,-21.314c1.263,-6.061 0.106,-10.967 -2.491,-15.079c-4.134,-6.545 -13.239,-10.766 -20.108,-14.412c-14.206,-7.685 -29.358,-14.181 -43.746,-21.865c-5.927,-3.166 -11.702,-6.569 -17.24,-10.301c-17.993,-12.248 -32.995,-32.509 -50.988,-46.601c-8.976,-7.03 -18.649,-12.619 -29.541,-15.577c-3.691,-1.002 -8.042,-0.778 -12.742,0.492c-9.314,2.518 -20.942,10.61 -28.454,12.733c-23.079,6.436 -47.282,16.354 -69.659,29.22c-22.942,13.191 -43.831,29.617 -59.731,48.742c-3.652,4.376 -18.523,15.026 -26.059,23.246c-5.804,6.331 -7.974,12.872 -8.079,17.009c0,8.049 6.535,14.584 14.584,14.584c6.66,-0 12.284,-4.475 14.021,-10.581Z"/><g><path d="M844.025,124.234c0.911,5.782 16.19,11.239 20.46,14.382c20.609,15.167 40.274,29.685 59.128,47.178c43.47,40.333 86.03,101.591 98.764,161.095c10.728,50.129 24.812,120.939 -30.364,148.432c-10.821,5.392 -45.018,2.861 -51.784,12.652c-11.017,15.943 -6.41,47.423 -8.629,65.593c-3.696,30.259 -26.257,71.247 -41.87,97.805c-45.943,78.15 -125.552,99.787 -210.951,114.203c-58.234,9.831 -116.015,13.649 -169.724,-16.111c-23.994,-13.295 -46.789,-35.696 -65.523,-55.52c-19.602,-20.743 -42.842,-38.437 -58.812,-62.42c-23.71,-35.606 -38.905,-88.475 -49.54,-130.028c-4.898,-19.139 -18.085,-58.584 -9.271,-78.244c15.641,-34.892 28.348,-16.984 54.976,-29.05c6.157,-2.79 3.232,-13.152 4.152,-19.848c11.834,-86.169 -7.825,-167.055 70.959,-230.137c13.236,-10.598 29.752,-20.532 45.705,-26.46c58.594,-21.773 124.906,-18.128 186.349,-18.128c29.963,0 60.708,-4.464 90.452,0.86c7.436,1.332 72.877,5.682 72.877,14.392" style="fill:#fff;"/><path d="M374.862,406.086c-8.85,3.61 -15.95,3.388 -22.099,3.926c-5.491,0.481 -10.457,1.42 -15.236,3.927c-6.758,3.545 -13.574,10.289 -20.265,25.436c-3.33,7.529 -4.251,17.428 -3.378,28.205c1.6,19.741 8.968,42.797 12.451,56.179c6.503,24.993 14.674,54.022 25.281,81.023c7.384,18.798 15.946,36.623 25.932,51.517c5.059,7.558 10.798,14.523 16.919,21.155c13.601,14.736 29.145,27.773 42.916,42.299c11.414,12.069 24.323,25.056 38.06,36.471c9.502,7.896 19.401,15.045 29.501,20.658c22.342,12.416 45.364,19.264 68.825,22.39c34.772,4.632 70.54,0.992 106.482,-4.979c52.485,-8.653 102.778,-20.171 144.892,-45.087c28.729,-16.997 53.703,-40.175 73.105,-72.828c9.493,-15.94 21.463,-37.005 30.508,-57.928c6.574,-15.207 11.562,-30.377 13.255,-43.613c1.383,-10.814 0.413,-26.314 1.677,-40.502c0.668,-7.501 1.833,-14.618 5.214,-19.727c0.385,-0.183 1.844,-0.861 2.831,-1.167c2.322,-0.72 5.027,-1.221 7.899,-1.652c10.109,-1.517 21.948,-2.053 29.803,-3.828c2.995,-0.677 5.562,-1.561 7.601,-2.559c26.102,-12.786 39.02,-33.934 44.29,-58.488c6.962,-32.43 -0.375,-71.355 -6.843,-102.616c-6.428,-31.127 -20.589,-62.778 -38.809,-91.96c-18.112,-29.011 -40.262,-55.548 -62.672,-76.663c-7.707,-7.262 -15.554,-14.032 -23.542,-20.557c-11.821,-9.655 -23.962,-18.75 -36.448,-28.088c-2.957,-2.212 -12.164,-13.595 -16.319,-10.019c-2.915,-5.112 -8.784,-8.152 -14.939,-7.182c-2.761,0.435 -5.218,1.62 -7.197,3.315c-20.562,-3.554 -48.777,-5.58 -53.595,-6.402c-9.652,-1.646 -19.39,-2.369 -29.173,-2.528c-21.231,-0.345 -42.668,1.992 -63.739,2.151c-37.19,0.275 -76.15,-0.735 -114.11,3.211c-26.212,2.725 -51.953,7.77 -76.375,17.05c-8.565,3.255 -17.284,7.565 -25.623,12.524c-8.241,4.901 -16.123,10.411 -23.124,16.101c-32.742,26.563 -49.4,55.919 -58.262,87.341c-13.06,46.305 -8.411,97.319 -15.382,150.407c-0.448,3.397 -0.362,10.512 -0.312,13.087Zm465.108,-262.132c-16.05,-5.625 -58.161,-8.639 -63.929,-9.72c-11.057,-2.072 -22.275,-2.678 -33.541,-2.68c-18.172,-0.003 -36.457,1.472 -54.45,1.337c-36.4,-0.268 -74.515,-1.885 -111.722,1.429c-24.145,2.15 -47.904,6.362 -70.491,14.566c-7.38,2.68 -14.897,6.28 -22.104,10.425c-7.316,4.207 -14.324,8.953 -20.559,13.871c-28.827,22.779 -43.723,48.141 -51.783,75.425c-13.345,45.173 -9.052,95.21 -16.492,147.101c-0.376,2.634 -0.002,5.92 -0.047,8.96c-0.061,4.063 -0.683,7.848 -2.114,10.816c-1.626,3.371 -4.105,6.032 -7.792,7.679c-10.588,4.728 -19.219,5.465 -26.763,5.913c-4.362,0.259 -8.213,0.114 -11.812,1.951c-4.173,2.132 -7.606,6.844 -11.816,16.1c-3.063,6.747 -2.617,16.335 -1.226,26.369c2.328,16.798 7.921,34.705 10.697,45.735c6.143,24.412 13.834,52.787 23.983,79.179c6.777,17.622 14.637,34.355 23.883,48.337c4.527,6.834 9.677,13.13 15.17,19.129c13.488,14.731 28.948,27.745 42.619,42.256c10.964,11.611 23.33,24.143 36.545,35.106c8.674,7.196 17.714,13.708 26.94,18.806c25.679,14.187 52.331,20.33 79.508,21.744c27.816,1.446 56.17,-2.043 84.633,-6.933c50.073,-8.65 98.154,-19.669 138.18,-43.813c25.934,-15.643 48.4,-36.889 65.725,-66.679c8.941,-15.408 20.233,-35.75 28.69,-55.937c5.585,-13.331 9.941,-26.569 11.287,-38.132c1.457,-12.524 -0.306,-31.3 1.931,-47.071c1.278,-9.008 3.855,-17.142 8.146,-23.443c2.784,-4.088 8.018,-7.531 15.147,-9.638c7.681,-2.269 18.153,-3.259 27.455,-4.376c5.405,-0.649 10.316,-1.103 13.122,-2.525c18.841,-9.549 27.819,-25.191 31.406,-43.086c5.897,-29.419 -1.89,-64.48 -8.125,-92.676c-6.257,-28.248 -19.685,-56.82 -36.663,-83.136c-17.25,-26.736 -38.235,-51.108 -59.384,-70.43c-7.325,-6.693 -14.778,-12.919 -22.355,-18.916c-11.654,-9.223 -23.615,-17.891 -35.911,-26.795c-0.444,-0.321 -0.998,-0.668 -1.638,-1.036c-0.95,0.195 -1.934,0.297 -2.941,0.297c-4.619,0 -8.739,-2.151 -11.409,-5.509Z"/><path d="M405.864,591.241c-0.817,1.705 -1.568,3.431 -2.234,5.184c-3.118,8.208 -4.648,16.923 -3.178,26.637c0.97,6.408 3.999,10.472 7.794,13.12c2.685,1.873 5.96,3.115 9.712,3.443c-4.409,11.995 -9.289,28.225 -10.014,41.274c-0.922,16.583 5.194,28.606 16.908,32.366c0.397,0.128 0.794,0.245 1.195,0.348c-1.579,6.117 -2.764,12.255 -3.469,18.35c-0.463,4.01 -1.568,12.621 -0.653,19.221c0.82,5.917 3.269,10.643 6.579,13.42c5.68,4.767 12.279,5.848 19.167,4.177c8.935,-2.167 18.738,-10.488 23.666,-14.402c8.902,-7.073 20.564,-19.935 32.781,-29.974c2.853,-2.346 5.708,-4.567 8.551,-6.433c0.135,6.675 0.525,14.543 1.584,21.724c1.184,8.027 3.304,15.267 6.322,20.045c3.137,4.968 7.271,7.962 12.004,9c1.392,0.304 2.789,0.477 4.187,0.508c0.453,10.974 3.909,20.091 10.695,25.518c12.386,9.904 25.99,6.929 38.296,-4.339c5.85,-5.355 11.342,-12.746 16.097,-20.759c1.62,5.308 4.09,10.119 7.561,14.058c4.994,5.666 11.986,9.79 21.76,11.048c13.764,1.771 24.246,-1.756 32.424,-8.769c6.934,-5.947 12.216,-14.66 16.099,-25.357c5.191,9.234 12.125,17.604 20.289,23.537c13.266,9.641 29.522,13.221 46.83,5.198c3.917,-1.816 7.808,-5.504 11.04,-10.793c1.188,-1.944 2.309,-4.124 3.342,-6.482c7.497,11.76 18.066,24.872 29.523,31.679c10.378,6.166 21.428,7.662 32.112,1.698c8.704,-4.853 13.847,-16.696 15.078,-31.777c0.846,-10.377 0.109,-22.341 -1.21,-33.467c12.925,7.081 28.116,8.262 43.517,-0.745c10.235,-5.986 15.843,-17.038 17.977,-29.942c1.881,-11.376 1.064,-24.194 -0.437,-34.751c4.573,-0.327 8.82,-1.965 12.333,-4.902c4.221,-3.53 7.644,-9.207 8.527,-17.887c1.602,-15.772 -5.624,-44.71 -19.01,-64.904c-11.242,-16.958 -26.846,-27.286 -43.852,-24.153c-7.491,1.38 -12.307,7.088 -13.599,15.655c-0.575,3.819 -0.242,8.272 0.613,12.587c-6.496,-3.758 -12.908,-7.474 -19.184,-10.883c-3.059,-1.661 -5.977,-3.428 -8.797,-5.338c-2.682,-1.816 -5.27,-3.769 -7.8,-5.895c-0.436,-0.682 -4.744,-7.396 -6.43,-9.244c-2.405,-2.637 -5.017,-3.727 -6.92,-4.161c-1.014,-0.232 -2.001,-0.332 -2.962,-0.308c-3.254,-3.384 -6.682,-6.673 -10.196,-9.7c-9.301,-8.012 -19.321,-14.077 -28.484,-16.279c-12.916,-3.103 -22.643,-0.375 -30.686,4.984c-8.044,5.36 -14.21,14.092 -20.128,22.711c-1.41,2.054 -2.757,4.137 -4.162,6.071c-0.893,-1.821 -1.948,-3.402 -3.092,-4.684c-4.099,-4.595 -9.599,-8.423 -15.615,-10.695c-6.6,-2.492 -13.801,-3.041 -20.675,-1.116c-9.062,2.538 -16.294,7.463 -22.362,13.756c-6.492,6.733 -11.357,15.384 -16.018,23.702c-4.29,-4.589 -9.537,-8.486 -15.28,-11.123c-7.812,-3.587 -16.534,-4.799 -25.305,-2.705c-11.108,2.652 -19.731,8.925 -26.909,17.209c-6.476,7.474 -11.679,16.757 -16.831,25.82c-4.186,7.364 -8.228,14.616 -13.662,19.646c-7.021,6.498 -15.854,5.561 -24.58,4.893l-2.301,-0.187c0.082,-8.031 -6.239,-11.918 -9.59,-12.671c-4.132,-0.929 -10.301,0.125 -15.91,5.557c-1.939,1.877 -4.012,4.457 -5.985,7.18c-4.891,1.023 -9.585,2.746 -14.035,5.37c-2.561,1.509 -4.748,3.104 -6.624,4.765c2.066,-5.345 3.969,-9.573 5.056,-11.686c0.566,-1.1 4.177,-7.162 6.711,-11.387c2.05,-1.431 4.11,-2.919 5.265,-4.024c2.165,-2.069 3.339,-4.121 3.912,-5.554c2.075,-5.19 0.981,-9.474 -1.399,-12.839c-1.569,-2.218 -4.641,-5.894 -11.649,-5.849c-3.587,0.023 -9.344,1.939 -14.106,7.811c-0.455,0.561 -0.918,1.173 -1.378,1.826l-1.341,0.943c-0.731,0.537 -3.131,1.648 -5.693,2.761c0.336,-1.256 0.755,-2.481 1.23,-3.685c3.42,-8.667 9.427,-16.426 14.099,-24.694c2.714,-4.802 1.935,-8.285 1.657,-9.764c-1.009,-5.364 -4.181,-8.486 -8.519,-10.211c-2.057,-0.819 -6.182,-1.998 -11.408,0.587c-0.48,0.237 -1.953,1.24 -3.316,2.191c0.28,-0.848 0.591,-1.715 0.866,-2.595c3.261,-10.445 8.699,-21.401 9.716,-29.506c0.682,-5.434 -1.477,-14.782 -4.477,-24.931c-2.035,-6.886 1.238,-18.125 -2.915,-20.813c5.927,-3.442 8.773,-10.718 6.422,-17.424c-2.662,-7.595 -10.99,-11.6 -18.586,-8.938c-9.795,3.505 -15.023,10.253 -17.097,19.077c-2.011,8.552 -0.033,20.299 3.294,31.524c1.44,4.862 3.03,9.614 4.136,13.746c0.484,1.807 1.169,3.289 1.044,4.405c-0.936,8.315 -7.607,19.92 -9.809,30.425c-1.736,8.284 -1.414,16.111 1.685,22.773c1.755,3.773 5.071,7.255 10.216,9.197Zm383.961,-1.33c-5.901,-8.093 -14.799,-18.437 -24.42,-26.528c-6.234,-5.242 -12.681,-9.626 -18.779,-11.012c-5.036,-1.144 -8.853,-0.333 -11.955,1.79c-7.003,4.791 -11.359,13.621 -16.534,21.008c-5.623,8.025 -11.948,14.784 -19.767,18.33c-4.275,1.939 -7.94,1.621 -11.073,0.501c-3.565,-1.275 -7.132,-4.308 -9.299,-9.594c-0.998,-2.433 -2.624,-8.432 -3.031,-9.956c-1.475,-1.425 -3.323,-2.591 -5.31,-3.314c-1.64,-0.596 -3.413,-0.87 -5.108,-0.373c-6.257,1.836 -10.566,6.167 -14.24,11.1c-8.041,10.796 -13.299,24.465 -20.389,34.078c-5.271,7.145 -11.243,6.783 -15.925,5.218c-2.514,-0.84 -5.506,-2.706 -7.86,-6.425c-1.422,-2.247 -4.304,-10.044 -4.843,-11.519c-2.18,-2.604 -4.992,-4.85 -8.14,-6.249c-2.536,-1.127 -5.34,-1.635 -8.162,-0.925c-5.419,1.365 -9.392,4.794 -12.855,8.891c-6.486,7.675 -11.177,17.67 -16.36,26.755c-4.641,8.137 -9.656,15.643 -15.666,21.358c-5.842,5.555 -12.274,8.889 -19.046,10.849c-11.193,3.239 -23.581,2.105 -35.716,1.248l-2.118,-0.153l-1.286,2.409c-4.959,8.31 -15.946,27.917 -28.184,38.244c-0.52,0.438 -1.043,0.862 -1.57,1.268c-3.376,9.165 -5.901,18.521 -7.079,27.786c-0.258,2.031 -0.492,7.86 -0.615,11.458c1.192,-0.495 2.554,-1.12 3.481,-1.716c3.942,-2.538 7.464,-5.642 9.738,-7.407c10.454,-8.114 24.741,-23.969 39.209,-34.205c8.235,-5.826 16.623,-9.934 24.526,-11.078c1.685,-0.243 11.605,-0.141 12.302,10.325c0.069,1.033 0.067,3.235 0.035,6.228c-0.089,8.263 -0.358,24.01 2.4,34.997c0.456,1.817 1.525,4.224 2.029,5.31l0.276,-0.034l0.165,-0.042c2.944,-15.636 8.462,-31.242 10.929,-38.713c2.178,-6.595 3.92,-11.84 6.073,-17.126c1.486,-3.649 3.167,-7.314 5.304,-11.418c1.231,-2.365 4.051,-7.088 5.924,-8.668c2.457,-2.073 5.037,-2.627 7.121,-2.612c3.391,0.024 7.186,1.201 9.517,6.394c2.172,4.837 2.844,12.913 1.449,22.529c-1.819,12.535 -6.863,28.211 -13.651,41.232c-4.43,8.496 -9.703,15.827 -15.215,20.877c-0.414,4.03 -0.507,7.893 -0.029,11.355c0.437,3.158 1.139,5.984 3.231,7.684c2.603,2.115 5.384,1.992 8.097,0.658c4.005,-1.969 7.84,-5.688 11.484,-10.148c11.117,-13.611 20.203,-34.13 21.503,-44.469l0.123,-3.005c0.068,-1.282 0.259,-2.063 0.302,-2.236c0.394,-1.571 1.035,-2.519 1.408,-3.044c1.972,-2.775 4.428,-3.527 6.345,-3.75c1.902,-0.221 3.817,0.102 5.689,1.215c1.031,0.613 3.117,1.923 4.089,5.315c0.08,0.279 0.277,0.943 0.341,2.05c0.01,0.176 0.023,0.56 0.024,1.189c0.004,0.936 -0.065,1.986 -0.209,3.134c-0.129,2.869 -0.34,7.103 -0.502,8.883l-0.642,15.886c-0.017,6.46 0.824,12.835 3.743,17.786c2.383,4.041 6.356,6.834 12.383,7.642c7.876,1.056 13.98,-0.573 18.684,-4.564c5.161,-4.379 8.719,-11.111 11.553,-19.149l4.501,-17.677c0.527,-2.803 0.913,-9.84 1.093,-11.825c0.184,-2.021 0.723,-3.184 0.83,-3.415c1.8,-3.882 4.8,-4.653 6.457,-4.921c1.045,-0.169 9.323,-0.731 10.032,7.872c0.018,0.221 0.045,0.704 0.043,1.494c-0.019,12.871 6.603,28.761 16.97,39.684c9.362,9.862 22.086,15.678 36.019,9.254c2.039,-0.941 3.498,-3.603 5.062,-6.703c2.331,-4.622 4.18,-10.406 5.394,-16.379c-1.206,-2.892 -2.015,-5.022 -2.613,-7.145c-0.922,-3.272 -1.387,-6.536 -1.81,-12.343c-0.26,-3.509 -1.472,-10.993 -1.14,-14.423c0.265,-2.734 1.276,-4.653 2.186,-5.801c1.72,-2.172 3.914,-3.224 6.419,-3.405c1.789,-0.129 4.411,0.112 7.229,2.643c3.354,3.013 5.919,7.827 7.208,13.989c1.439,6.88 1.384,15.721 0.069,24.614c4.029,9.055 14.011,26.034 26.103,36.194c6.559,5.51 13.676,9.416 20.731,5.453c2.279,-1.284 3.423,-3.992 4.402,-7.169c1.699,-5.509 2.229,-12.435 2.179,-19.788c-0.1,-14.633 -2.64,-30.845 -4.861,-42.204c-9.165,-12.936 -14.328,-29.074 -13.068,-42.974c0.695,-7.662 6.11,-8.73 8.278,-8.939c2.075,-0.199 5.235,0.076 7.959,3.296c1.546,1.828 5.063,11.495 6.349,15.477l4.932,17.39c0.431,1.824 0.996,4.36 1.622,7.434c1.299,1.621 2.687,3.154 4.149,4.58c9.166,8.945 21.696,13.562 34.462,5.981c5.644,-3.352 7.871,-9.957 9.003,-17.108c2.09,-13.194 -0.302,-28.625 -2.368,-38.373l-0.032,-0.104c-9.962,-7.544 -17.135,-20.699 -13.471,-35.185c0.505,-1.996 1.299,-3.467 2.192,-4.563c-2.939,-1.354 -5.876,-2.785 -8.81,-4.27c-9.678,-4.896 -19.321,-10.401 -28.768,-15.71c25.43,45.143 -3.701,30.111 -37.317,-16.336l-1.514,-2.143Zm104.15,31.455c0.201,2.462 -0.206,4.478 -0.702,5.749c-1.089,2.791 -2.987,4.704 -5.401,5.946c-0.65,0.333 -1.397,0.652 -2.246,0.885c1.745,3.496 3.464,7.749 4.319,10.18l3.277,11.036c1.409,0.489 2.784,0.544 4.008,-0.082c1.342,-0.687 1.535,-2.514 1.762,-4.97c0.672,-7.264 -1.236,-17.929 -5.017,-28.744Zm-30.485,-38.285c-0.161,1.372 -0.683,3.118 -0.424,4.475c0.454,2.38 1.859,5.782 2.164,6.503c1.291,1.171 3.037,1.598 4.659,2.148c2.575,0.873 5.141,1.638 7.414,2.61c2.483,1.062 4.686,2.385 6.546,4.002c1.456,1.265 3.259,3.527 4.92,6.053c-0.425,-0.871 -0.863,-1.735 -1.313,-2.589c-3.635,-6.915 -8.001,-13.204 -13.053,-17.68c-3.34,-2.96 -6.966,-5.114 -10.913,-5.522Z" style="fill:#5c5c5c;"/><path d="M580.694,427.891c-15.557,-3.782 -31.04,13.78 -15.667,27.617c12.539,11.284 35.89,-4.536 30.691,-20.421c-8.863,-27.083 -51.176,25.979 -26.529,12.938" style="fill:#fff;"/><path d="M548.069,447.847c-0.131,1.591 0.226,3.046 0.384,4.379c0.44,3.688 3.274,9.085 10.138,10.816c10.002,7.869 23.178,6.596 33.26,-0.473c9.836,-6.897 16.061,-18.488 12.449,-30.291c-1.47,-5.746 -4.528,-9.152 -7.542,-11.542c-1.629,-1.292 -3.426,-2.189 -5.353,-2.738c-1.882,-2.045 -4.367,-3.573 -7.266,-4.278c-14.155,-1.806 -27.749,4.3 -33.257,15.185c-2.946,5.823 -4.575,12.361 -2.813,18.942Zm39.42,-7.06c-1.506,0.797 -3.154,1.332 -4.872,1.558c0.676,1.593 1.047,3.25 1.132,4.903c2.01,-1.709 3.523,-3.997 3.74,-6.461Z"/><path d="M781.099,429.621c-3.836,-1.249 -7.597,-2.751 -11.506,-3.747c-7.988,-2.036 -17.718,8.441 -13.739,16.398c7.913,15.827 46.32,7.962 38.667,-14.095c-12.481,-35.975 -80.403,19.561 -33.241,19.561" style="fill:#fff;"/><path d="M768.902,460.169c4.949,0.383 10.096,-0.234 14.944,-1.943c8.311,-2.929 15.329,-8.229 18.343,-15.455c2.063,-4.946 2.69,-10.74 0.311,-17.362c-1.79,-5.564 -4.765,-9.471 -8.057,-12.43c-12.936,-11.631 -36.757,-4.719 -50.614,6.496c-7.342,5.942 -10.873,13.476 -11.597,19.441c-0.435,3.585 0.708,6.86 2.161,10.076c2.666,5.904 10.331,11.72 26.887,13.33c2.793,-0 5.404,-0.787 7.622,-2.153Z"/><path d="M357.595,478.805c-1.429,2.88 -3.166,1.633 -1.917,-1.72c4.081,-10.958 34.516,-14.776 34.516,-2.303" style="fill:#fff;"/><path d="M349.733,466.524c-1.897,1.211 -3.534,2.876 -4.73,4.932c-0.337,0.425 -0.66,0.857 -0.971,1.291c-2.04,2.498 -1.379,5.111 -1.949,6.944c-0.704,2.264 0.857,3.885 0.958,5.554c0.101,1.684 1.696,2.417 2.195,3.739c0.352,0.931 1.425,1.125 1.911,1.917c1.473,2.398 4.503,1.821 6.929,3.085c2.51,1.306 5.08,-0.886 8.8,-1.416c1.365,-0.194 2.054,-1.742 3.703,-2.491c1.575,-0.716 2.065,-2.862 4.08,-4.792c1.458,-2.938 1.832,-6.133 1.274,-9.131c0.566,-0.178 1.148,-0.302 1.74,-0.359c0.683,-0.065 1.345,-0.014 1.986,0.122c0.577,7.519 6.869,13.446 14.535,13.446c8.048,0 14.583,-6.534 14.583,-14.583c-1.83,-4.976 -1.735,-9.505 -5.642,-11.971c-0.907,-0.572 -1.327,-1.552 -2.331,-1.997c-1.709,-0.758 -2.889,-2.169 -4.896,-2.519c-2.777,-0.485 -5.4,-1.552 -8.746,-1.206c-3.023,0.314 -6.096,0.539 -9.427,1.325c-1.87,0.441 -3.779,0.807 -5.69,1.187c-2.23,0.443 -4.379,0.979 -6.525,1.392c-4.893,0.941 -8.717,2.979 -11.787,5.531Zm18.767,11.225l-0.636,0.389c-1.036,0.65 -1.398,1.808 -2.052,2.667c-0.169,0.223 0.189,0.733 0.275,0.949c0.345,-0.028 1.22,-0.004 1.236,-0.331c0.021,-0.561 0.869,-0.728 0.788,-1.131c-0.203,-1.003 0.362,-1.847 0.389,-2.543Zm7.543,-1.748c-0.022,1.145 1.913,1.485 2.217,2.631c0.113,0.423 0.877,0.242 1.073,0.644c0.186,0.383 0.944,-0.241 1.238,0.109c0.105,0.125 0.439,-0.477 0.324,-0.349c-0.371,0.417 -0.29,-1.22 -0.877,-1.476c-1.231,-0.537 -2.552,-1.218 -3.975,-1.559Zm-0.427,-1.007l-0.006,-0.212c-0.029,0.076 -0.025,0.147 0.006,0.212Zm-30.907,-3.007c-0.094,0.086 -0.161,0.193 -0.178,0.336l0.178,-0.336Z"/><path d="M379.647,470.759c-19.408,-4.066 -4.478,33.514 -4.478,39.122" style="fill:#fff;"/><path d="M360.614,510.746c0.446,7.647 6.797,13.719 14.555,13.719c8.049,-0 14.584,-6.535 14.584,-14.584c-0.464,-1.18 -0.2,-2.946 -1.503,-5.059c-1.645,-2.669 -4.311,-6.236 -6.821,-11.168c-1.13,-2.221 -2.306,-4.499 -2.776,-6.974c-0.088,-0.463 -0.138,-0.926 -0.159,-1.387c7.21,0.584 13.905,-4.28 15.426,-11.543c1.651,-7.878 -3.405,-15.614 -11.282,-17.264c-6.628,0.938 -11.122,0.405 -14.173,3.382c-1.225,1.194 -2.841,1.565 -3.697,2.969c-0.977,1.601 -2.49,2.588 -3.037,4.456c-1.341,4.574 -2.304,10.089 -0.701,16.882c0.386,1.634 0.782,3.332 0.955,5.107c0.405,4.172 0.423,8.332 0.358,12.276c-0.064,3.849 -2.617,8.043 -1.729,9.188Zm-0.025,-0.738l-0.003,-0.127c-0.014,0.036 -0.012,0.079 0.003,0.127Zm20.042,-31.334c-0.128,0.078 -0.735,0.068 -0.835,0.314c-0.325,0.794 -0.913,1.515 -1.043,2.491c-0.066,0.496 -0.132,1.006 -0.181,1.527c0.929,-0.343 1.036,-2.042 1.99,-2.541c0.357,-0.188 0.007,-0.851 0.328,-1.118c0.139,-0.115 -0.134,-0.49 -0.259,-0.673Z"/><path d="M865.165,136.491c-13.637,-4.112 62.923,-35.375 64.238,-34.526c14.673,9.479 30.343,35.42 39.636,50.054c0.704,1.109 5.617,12.365 3.202,13.809c-0.277,0.166 -5.003,2.4 -4.477,2.876c2.318,2.101 26.778,-7.799 36.76,14.669c6.634,14.933 0.51,33.866 -3.203,48.334c-3.14,12.238 6.174,29.038 7.038,41.998c0.012,0.182 0.176,6.868 -0,6.9c-4.127,0.738 -26.166,6.775 -28.447,5.752c-16.489,-7.394 -36.747,-46.027 -50.825,-59.83c-13.723,-13.452 -28.862,-15.221 -44.43,-24.167c-15.826,-9.094 -35.525,-47.875 -38.994,-65.009c-7.883,-38.929 100.34,-10.4 58.169,-0.86"/><path d="M886.133,105.1c-11.93,-1.27 -24.534,-0.712 -33.664,2.716c-8.572,3.217 -14.779,8.52 -17.552,15.804c-1.708,4.487 -2.446,9.803 -0.997,16.109c2.477,10.885 10.981,29.812 21.293,45.468c7.797,11.837 16.627,21.785 24.361,26.008c11.237,6.174 22.187,8.686 32.614,14.424c3.541,1.949 7.03,4.308 10.412,7.515c10.775,10.309 25.311,34.857 38.824,49.181c5.157,5.466 10.267,9.617 15.033,11.735c1.057,0.47 3.716,1.106 7.475,0.597c6.769,-0.915 22.49,-5.056 25.929,-5.659c0.571,-0.1 6.861,-1.958 7.092,-8.826c0.065,-1.938 -0.046,-6.871 -0.056,-7.036c-0.53,-9.138 -5.02,-20.174 -6.797,-30.262c-0.561,-3.182 -0.826,-6.227 -0.097,-8.939c2.48,-9.124 5.789,-19.946 6.686,-30.555c0.703,-8.311 -0.127,-16.49 -3.296,-23.948c-3.872,-9.163 -9.735,-14.36 -15.863,-17.501c-4.326,-2.216 -9.915,-3.177 -14.956,-3.535c-1.342,-5.412 -3.68,-11.298 -4.263,-12.264c-5.419,-9.005 -13.053,-22.063 -21.42,-33.373c-6.588,-8.904 -13.799,-16.624 -20.691,-21.315c-0.96,-0.654 -4.545,-2.93 -10.58,-1.541c-1.25,0.287 -3.806,1.107 -7.274,2.321c-7.608,2.662 -20.206,7.595 -32.213,12.876Zm38.611,11.938l-2.382,1.015c0.79,0.791 1.463,1.58 2.036,2.332c3.413,4.482 3.919,9.257 3.108,13.726c-0.87,4.802 -5.428,12.743 -20.456,16.604c-7.851,1.776 -15.666,-3.156 -17.442,-11.006c-0.461,-2.038 -0.47,-4.074 -0.09,-6c-3.845,2.069 -7.327,4.081 -10.114,5.913c-0.075,0.362 -0.169,0.721 -0.277,1.079c-2.183,7.24 -9.503,11.535 -16.77,10.101c2.13,5.316 4.787,11.032 7.746,16.565c6.033,11.279 12.933,22.098 19.636,26.148c10.952,6.577 21.743,9.522 31.921,15.604c4.757,2.844 9.424,6.243 13.913,10.792c9.435,9.487 21.545,30.205 33.557,45.252c4.424,5.542 8.672,10.316 12.812,12.74c4.324,-0.62 12.018,-2.545 17.841,-4.003c-0.739,-8.469 -5.197,-18.52 -7.022,-27.792c-1.161,-5.897 -1.364,-11.554 -0.122,-16.629c1.981,-8.2 4.815,-17.909 5.326,-27.395c0.278,-5.151 -0.202,-10.225 -2.311,-14.771c-2.321,-4.974 -5.767,-7.256 -9.288,-8.176c-6.418,-1.677 -12.915,0.15 -16.035,0.354c-4.997,0.327 -8.107,-1.64 -9.644,-2.978c-3.259,-2.837 -6.535,-9.102 -0.467,-15.401c-0.252,-1.489 -0.304,-2.982 -0.453,-3.205c-5.519,-8.246 -13.275,-20.239 -21.678,-30.527c-3.529,-4.319 -7.157,-8.317 -10.773,-11.409l-2.572,1.067Z"/><path d="M852.701,122.396c1.633,0 -3.544,-14.027 -4.162,-15.538c-5.454,-13.346 -17.89,-21.816 -29.722,-29.05c-23.55,-14.398 -70.261,-68.947 -102.283,-54.66c-0.883,0.394 9.595,7.574 9.914,7.769c1.841,1.126 23.011,9.998 23.011,11.219c-0,7.702 -14.599,-4.963 -22.052,-6.91c-16.146,-4.217 -33.312,-4.45 -49.866,-5.752c-10.43,-0.821 -24.838,-2.869 -35.159,-0c-3.094,0.859 -3.981,11.655 -1.601,9.499c3.453,-3.13 -10.124,-12.505 -11.506,-13.236c-17.894,-9.467 -41.057,-9.24 -60.729,-9.489c-12.18,-0.153 -45.687,-5.468 -55.935,3.737c-11.582,10.403 37.822,16.852 41.553,16.971c2.131,0.068 6.396,2.132 6.396,0c-0,-6.162 -48.261,-4.873 -52.101,-4.606c-38.185,2.652 -77.504,17.725 -112.513,32.223c-3.786,1.568 -26.724,8.355 -28.447,12.948c-2.351,6.27 40.649,9.593 44.43,9.776c0.933,0.045 15.636,1.18 15.024,1.73c-13.415,12.063 -40.508,15.892 -56.578,25.313c-4.219,2.474 -15.92,7.058 -18.533,11.792c-1.39,2.52 11.258,0.886 8.629,-0.286c-1.81,-0.808 -6.714,2.821 -7.67,3.449c-15.94,10.482 -25.8,24.289 -35.801,39.982c-1.787,2.806 3.835,9.213 3.835,9.213c0,-0 -19.513,11.423 -27.488,19.274c-12.66,12.465 -22.973,36.603 -15.34,54.937c2.547,6.12 12.282,-0.755 15.656,2.303c5.877,5.326 6.325,8.052 18.86,0c6.629,-4.258 19.185,-13.808 19.185,-13.808c0,-0 -2.708,3.696 -4.161,5.466c-7.921,9.649 -12.502,20.696 -10.863,33.369c1.632,12.623 25.149,17.906 35.158,16.112c10.505,-1.884 20.749,-14.365 29.723,-19.848c27.992,-17.105 53.116,-42.426 83.107,-55.807c1.065,-0.475 -3.02,21.95 -1.285,22.724c5.383,2.402 15.803,-3.804 20.46,-5.752c17.134,-7.168 29.085,-15.997 40.269,-30.78c1.248,-1.65 18.77,-24.257 20.777,-22.438c3.079,2.79 2,9.887 6.395,13.235c16.203,12.346 56.526,-8.708 71.592,-14.964c6.428,-2.669 13.338,-5.644 19.186,-9.489c2.568,-1.689 6.711,-9.401 6.711,-6.326c0,13.856 4.142,13.335 19.818,12.365c19.003,-1.176 38.038,-8.313 55.936,-14.382c5.539,-1.878 10.291,-3.604 15.656,-5.752c2.911,-1.166 11.493,-2.469 8.629,-3.747c-6.576,-2.934 -22.705,16.348 -16.941,18.702c11.7,4.778 29.448,-1.354 40.595,-4.31c15.075,-3.998 45.173,-7.55 57.21,-18.128c5.006,-4.399 27.548,0.701 34.526,-1.146c8.443,-2.236 18.363,-5.997 24.612,-12.376c27.107,-27.666 -46.521,-59.649 -63.932,-40.842"/><path d="M500.138,23.085c-13.474,1.541 -27.032,4.452 -40.459,8.232c-23.223,6.538 -46.061,15.656 -67.322,24.589c-2.896,1.217 -16.649,5.509 -24.279,9.558c-5.263,2.794 -8.311,6.387 -9.21,8.821c-1.685,4.566 -0.706,11.109 7.739,14.825c5.804,2.554 18.438,4.48 28.874,5.693c-10.565,3.745 -21.413,7.204 -29.525,11.999c-2.926,1.73 -9.349,4.486 -14.036,7.581c-3.566,2.355 -6.287,5.058 -7.659,7.566c-0.73,1.334 -1.137,2.585 -1.278,3.761c-4.767,3.601 -9.014,7.503 -12.914,11.671c-7.646,8.172 -13.941,17.373 -20.258,27.315c-1.416,2.23 -2.021,4.968 -1.504,8.018c0.158,0.93 0.484,1.926 0.908,2.928c-3.047,1.929 -6.695,4.313 -10.234,6.808c-4.428,3.121 -8.68,6.428 -11.572,9.283c-7.238,7.145 -13.82,17.638 -17.443,28.969c-3.76,11.758 -4.289,24.353 0.233,35.249c1.596,3.844 4.212,5.923 7.3,7.034c2.022,0.727 4.378,0.958 6.893,0.721c1.469,-0.139 3.901,-0.562 5.359,-0.834c3.712,3.257 6.439,5.122 9.786,5.566c2.16,0.287 4.929,0.026 8.869,-1.591c-0.818,4.566 -0.965,9.329 -0.336,14.298c0.988,7.916 7.004,14.517 15.559,18.69c9.763,4.761 22.615,6.292 29.779,5.041c4.422,-0.772 8.863,-2.838 13.183,-5.683c6.94,-4.571 13.604,-11.511 19.684,-15.189c19.688,-11.909 37.993,-27.838 57.525,-40.898c3.211,-2.147 6.458,-4.212 9.755,-6.153c-0.161,1.745 -0.259,3.295 -0.248,4.447c0.067,6.802 4.394,9.841 6.144,10.634c3.411,1.547 7.848,1.8 12.625,0.678c5.613,-1.318 12.066,-4.785 15.551,-6.218c9.41,-3.869 17.384,-8.241 24.571,-13.62c7.272,-5.442 13.728,-11.94 19.978,-20.097c0.488,-0.636 5.001,-5.855 9.229,-10.725c0.991,1.36 2.176,2.6 3.587,3.689c7.228,5.59 17.901,7.096 29.89,5.235c18.827,-2.923 41.547,-14.035 52.191,-18.365c4.099,-1.668 8.377,-3.462 12.493,-5.491c1.245,-0.614 2.475,-1.251 3.678,-1.919c0.321,0.342 0.654,0.657 0.994,0.954c2.666,2.329 6.172,3.894 11.022,4.43c3.39,0.375 7.963,0.161 14.037,-0.171c8.343,-0.454 16.699,-1.956 24.984,-4.01c8.678,-2.152 17.273,-4.94 25.668,-7.731c1.436,2.911 3.828,5.154 7.275,6.596c5.158,2.156 11.137,2.949 17.435,2.722c10.734,-0.385 22.63,-4.039 31.051,-6.198c10.481,-2.687 28.027,-5.161 42.09,-9.791c7.242,-2.385 13.645,-5.434 18.47,-9.02c2.292,0.053 9.851,0.253 14.407,0.631c7.029,0.584 13.447,0.57 16.966,-0.331c5.993,-1.534 12.59,-3.774 18.544,-6.873c4.656,-2.424 8.9,-5.419 12.391,-8.922c8.249,-8.266 10.617,-17.07 9.822,-25.375c-0.989,-10.328 -8.119,-20.803 -19.329,-28.936c-12.983,-9.42 -31.388,-15.717 -46.337,-16.126c-5.229,-4.2 -10.942,-7.875 -16.574,-11.252c-16.135,-9.675 -43.135,-37.583 -68.858,-50.338c-16.291,-8.078 -32.311,-10.505 -46.08,-4.22c-1.667,0.761 -5.017,3.772 -6.71,7.812c-8.69,-0.733 -17.434,-1.065 -26.02,-1.675c-6.455,-0.458 -14.379,-1.342 -21.994,-1.349c-6.159,-0.006 -12.14,0.54 -17.293,2.014l-0.492,0.152c-1.966,-1.464 -3.511,-2.486 -3.997,-2.739c-8.332,-4.327 -17.601,-6.936 -27.22,-8.399c-12.948,-1.97 -26.527,-1.905 -38.809,-1.967c-8.394,-0.042 -26.672,-2.329 -40.943,-0.99c-9.562,0.896 -17.601,3.619 -22.301,7.905c-4.093,3.723 -5.36,7.587 -5.305,11.081Zm65.379,4.196c4.006,2.937 5.386,6.935 5.403,9.675c0.022,3.505 -1.333,5.927 -3.033,7.756c-1.51,1.625 -3.547,2.846 -6.19,3.361c-1.774,0.345 -7.281,-0.568 -8.317,-0.747c-3.272,-0.233 -17.368,-2.084 -29.495,-5.211c-7.448,-0.028 -13.508,0.156 -14.731,0.233c-14.695,0.933 -29.574,3.786 -44.298,7.756c-22.522,6.072 -44.677,14.711 -65.321,23.135l-0.884,0.35c6.777,2.257 12.574,4.645 13.714,4.705c0.788,0.041 10.746,0.843 14.599,1.466c11.313,1.832 7.502,14.57 5.98,15.929c-4.934,4.405 -11.393,7.949 -18.588,10.945c-13.067,5.439 -28.839,9.009 -39.561,15.244l-5.41,2.97c0.341,1.965 -0.028,3.941 -1.202,5.904c-0.691,1.155 -3.395,3.852 -7.803,4.788c-1.04,0.504 -2.569,0.753 -2.854,0.94c-7.239,4.746 -13.095,10.255 -18.286,16.346c-4.794,5.626 -9.032,11.738 -13.232,18.207l1.224,1.844c1.675,1.908 2.41,4.465 2.004,6.972c-0.406,2.507 -1.91,4.702 -4.102,5.985c0,-0 -8.487,4.951 -16.399,10.495c-3.602,2.524 -7.096,5.155 -9.45,7.466c-5.521,5.422 -10.511,13.421 -13.27,22.041c-2.184,6.825 -3.021,14.077 -1.219,20.636c2.254,-0.378 5.556,-0.845 7.253,-0.73c2.934,0.198 5.377,1.239 7.305,2.983l2.118,1.937c1.093,-0.812 4.003,-1.233 6.454,-2.813l18.595,-13.474c3.388,-2.577 8.155,-2.275 11.192,0.708c3.037,2.983 3.423,7.744 0.907,11.178l-4.436,5.85c-3.284,4.023 -5.904,8.317 -7.497,12.941c-1.489,4.323 -2.039,8.939 -1.389,13.865c0.165,1.233 1.184,2.076 2.25,2.919c1.851,1.463 4.22,2.573 6.717,3.46c5.696,2.022 12.143,2.825 16.012,2.114c2.192,-0.404 4.3,-1.641 6.433,-3.073c7.096,-4.766 13.925,-11.913 20.144,-15.751c19.355,-11.946 37.298,-27.866 56.473,-40.972c8.831,-6.035 17.915,-11.494 27.466,-15.82c3.467,-1.572 6.529,-1.014 9.258,0.798c1.332,0.883 3.201,2.528 4.013,5.807c0.184,0.742 0.405,2.551 0.21,5.09c-0.13,1.686 -0.425,4.85 -0.734,8.035c2.573,-1.187 4.903,-2.408 6.528,-3.099c7.706,-3.279 14.249,-6.912 20.11,-11.41c5.81,-4.46 10.92,-9.794 15.878,-16.433c1.078,-1.443 13.607,-17.646 19.48,-22.791c7.146,-6.259 14.132,-3.092 16.27,-1.177c1.855,1.66 3.271,3.83 4.291,6.426c0.761,1.939 3.978,5.412 2.393,6.719c1.369,0.694 3.031,0.902 4.81,1.004c4.417,0.251 9.451,-0.673 14.648,-2.051c15.595,-4.133 32.278,-12.712 40.739,-16.297c3.604,-1.528 7.371,-3.157 10.986,-5.005c1.957,-1 3.864,-2.071 5.659,-3.239c0.628,-0.827 3.271,-4.278 4.257,-5.322c1.481,-1.569 2.96,-2.446 4.004,-2.939c4.443,-2.103 8.16,-1.109 11.059,0.737c1.945,1.239 5.244,3.819 5.289,10.051c0.003,0.439 0.022,0.9 0.05,1.349c2.122,-0.046 5.133,-0.143 7.902,-0.335c6.911,-0.479 13.814,-1.863 20.655,-3.674c10.971,-2.903 21.769,-6.934 32.183,-10.562l11.602,-4.375c2.763,-2.242 5.625,-4.037 8.193,-4.997c4.975,-1.86 9.55,-1.599 13.203,0.067c5.129,2.339 6.615,5.877 7.248,8.186c0.67,2.438 0.744,4.947 -0.15,7.421c3.046,-0.863 5.901,-1.737 8.402,-2.423c8.773,-2.404 22.691,-4.69 35.092,-8.321c6.681,-1.956 12.93,-4.104 16.684,-7.459c2.83,-2.529 7.901,-4.669 14.599,-5.09c5.278,-0.332 12.242,0.252 18.402,0.637c2.564,0.16 6.32,0.126 7.041,0.116c3.407,-0.942 7.086,-2.189 10.547,-3.841c2.795,-1.334 5.45,-2.945 7.464,-5.036c1.004,-1.044 1.74,-1.989 1.901,-3.034c0.282,-1.825 -1.373,-3.196 -2.835,-4.787c-3.043,-3.31 -7.399,-6.132 -12.163,-8.49l-0.416,-0.199c0.851,2.716 1.58,5.34 1.832,7.017c2.135,14.193 -9.597,18.067 -14.676,18.112c-7.873,-0 -14.297,-6.252 -14.57,-14.057c-2.393,-0.595 -2.612,-9.731 -2.959,-10.602c-0.483,-1.209 -1.053,-2.358 -1.698,-3.452c-5.517,4.029 -13.295,3.728 -18.495,-1.085c-4.98,-4.61 -6.014,-11.897 -2.939,-17.61l-0.566,-0.356c-12.359,-7.703 -31.053,-26.553 -50.687,-40.71c-1.468,3.271 -3.944,5.265 -6.54,6.569c-2.753,1.383 -6.499,2.211 -11.056,1.068c-2.831,-0.71 -6.774,-2.588 -10.823,-4.941c-2.901,-1.686 -5.882,-3.863 -8.124,-4.468c-5.872,-1.581 -11.897,-2.58 -17.978,-3.295c-9.875,-1.162 -19.886,-1.626 -29.677,-2.471c-5.958,-0.514 -13.262,-1.485 -20.297,-1.599c-1.069,-0.017 -2.13,-0.019 -3.176,0.009c-0.515,2.979 -2.126,5.6 -4.428,7.718c-3.668,3.375 -7.297,3.561 -9.99,3.245c-3.848,-0.452 -9.873,-3.401 -10.927,-11.617c-1.709,-1.495 -3.611,-3.131 -3.936,-3.306c-6.076,-3.275 -12.899,-5.181 -19.953,-6.364c-11.816,-1.982 -24.244,-2.021 -35.477,-2.248c-0.86,-0.018 -1.828,-0.062 -2.888,-0.127Zm275.962,85.806c2.675,-3.221 6.71,-5.274 11.222,-5.274c-4.543,-0.04 -8.45,1.513 -11.222,5.274Z"/><path d="M320.519,260.47c0.882,-7.217 -12.982,0.741 -15.667,2.303c-13.292,7.734 -32.339,19.818 -36.75,35.673c-2.345,8.431 0.083,28.3 10.863,31.066c5.45,1.399 11.913,0.573 17.575,0.573c2.985,0 11.94,0 8.955,0c-15.887,0 -29.464,28.997 -25.887,42.572c4.574,17.36 32.393,1.889 36.433,9.212c20.365,36.91 37.075,21.528 69.359,6.9c4.98,-2.257 12.33,3.059 17.584,0.86c19.473,-8.151 16.615,-33.425 16.615,-50.341c0,-40.05 -21.756,-42.286 -43.145,-66.739c-11.729,-13.41 -14.12,-27.821 -30.364,-38.539c-15.643,-10.321 -43.788,-6.904 -43.788,13.808"/><path d="M290.019,255.67c-6.75,4.518 -13.927,9.897 -19.827,16.035c-6.726,6.998 -11.993,14.842 -14.114,23.396c-1.705,6.822 -1.448,19.036 2.45,28.57c3.553,8.692 9.622,15.201 17.569,17.017l0.561,0.121c-6.169,11.594 -8.849,25.594 -6.361,34.302c2.546,9.004 8.278,13.265 15.585,14.821c5.305,1.13 11.735,0.519 17.637,-0.338c2.198,-0.32 5.242,0.499 6.762,0.121c9.073,14.752 17.996,21.047 26.945,22.948c13.786,2.929 29.421,-5.995 51.071,-15.887c0.14,0.988 2.298,0.337 3.486,0.643c2.453,0.631 4.943,1.21 7.284,1.342c2.552,0.143 4.984,-0.235 7.254,-1.16c10.591,-4.255 16.395,-12.278 19.547,-21.866c3.757,-11.433 3.088,-25.543 3.272,-36.447c0.366,-17.251 -3.241,-28.475 -8.647,-37.368c-8.163,-13.427 -21.885,-20.68 -35.404,-36.924c-8.081,-9.791 -11.339,-19.965 -18.391,-29.031c-3.518,-4.522 -7.847,-8.741 -13.509,-12.715c-12.413,-8.726 -30.95,-10.555 -44.423,-5.412c-12.244,4.674 -20.561,14.748 -21.047,29.98c-0,2.891 0.843,5.587 2.3,7.852Zm109.9,125.856c4.982,-2.271 7.443,-6.434 8.824,-11.125c2.893,-9.824 1.472,-21.834 1.316,-31.113c-0.26,-12.231 -2.711,-20.201 -6.828,-26.324c-8.282,-12.314 -21.906,-18.167 -35.412,-32.862c-8.745,-9.439 -12.685,-19.509 -20.349,-28.273c-2.243,-2.565 -4.982,-4.893 -8.48,-7.059c-3.858,-2.39 -8.903,-3.165 -13.561,-2.853c-1.959,0.131 -4.01,0.462 -5.608,1.255c0.668,0.037 1.298,0.115 1.88,0.215c4.278,0.734 7.428,3.051 9.867,5.997c2.309,2.789 3.974,6.857 3.427,12.854c-0.976,7.99 -8.255,13.684 -16.244,12.708c-1.525,-0.186 -2.967,-0.602 -4.293,-1.211c-1.164,0.498 -2.186,0.951 -2.557,1.153c-6.116,3.317 -13.616,7.467 -20.089,12.675c-5.119,4.118 -9.945,8.603 -11.685,14.228c-0.655,2.135 -0.783,5.476 -0.321,8.81c0.313,2.249 0.748,4.54 1.709,6.41c0.264,0.515 0.807,1.415 0.807,1.415c-0,-0 -0.325,-0.043 -0.489,-0.09c1.356,0.387 2.817,0.57 4.312,0.634c3.491,0.15 7.084,-0.043 10.395,0.045c2.192,0.058 7.601,0.201 9.141,0.242l0.416,0.013c49.971,-1.273 64.544,4.778 56.961,10.815c7.585,6.039 -6.988,12.09 -56.961,10.815l-0.416,0.014l-1.166,0.031c-4.265,0.575 -7.6,5.485 -10.425,10.403c-3.693,6.428 -6.368,13.906 -5.171,18.856c0.354,1.449 1.652,1.582 2.91,1.691c1.646,0.144 3.395,0.097 5.144,-0.04c6.431,-0.504 12.867,-1.546 16.979,-0.862c4.806,0.799 8.085,3.107 9.93,6.551c5.991,11.154 10.904,16.962 17.022,18.355c4.439,1.012 9.089,-0.34 14.379,-2.422c7.71,-3.035 16.359,-7.79 26.615,-12.437c2.284,-1.052 4.793,-1.442 7.459,-1.321c2.287,0.103 4.758,0.672 7.225,1.255c1.025,0.242 2.814,0.485 3.337,0.552Z"/><path d="M708.221,591.862c-0.639,-4.076 -13.286,-2.225 -16.615,-1.147c-10.108,3.274 -48.408,27.228 -34.2,44.292c11.356,13.638 51.648,-5.17 25.245,-5.17" style="fill:#fff;"/><path d="M668.068,629.844c-1.42,0.166 -2.754,0.247 -3.661,-0.666c-4.11,-4.924 1.657,-10.144 7.121,-14.813c8.12,-6.938 19.397,-11.024 23.856,-11.985c0.747,-0.139 2.829,0.986 4.548,1.471c2.969,2.059 6.702,3.021 10.549,2.418c7.952,-1.247 13.395,-8.716 12.148,-16.667c-1.778,-5.962 -4.979,-12.442 -13.441,-13.492c-6.405,-0.796 -17.75,1.229 -21.36,2.94c-5.58,2.458 -18.508,11.135 -28.262,21.615c-3.786,4.068 -7.183,8.23 -9.633,12.402c-5.557,9.462 -6.432,18.923 0.472,27.769c8.609,12.911 33.865,10.348 44.577,5.578c6.56,-2.922 8.504,-8.439 9.48,-11.666c1.629,-5.388 -0.742,-10.423 -7.347,-15.455c-2.191,-1.67 -6.709,-2.945 -14.464,-4.039c-8.049,-0 -14.584,6.534 -14.584,14.583l0.001,0.007Zm25.858,-35.11l-0.112,-0.612c0.005,0.218 0.043,0.422 0.112,0.612Z"/><g><path d="M474.576,360.865c-17.89,44.726 -48.502,91.369 -14.382,137.501c30.87,41.736 114.757,25.393 157.26,16.111c13.544,-2.957 40.714,-10.369 48.265,-23.297c5.369,-9.192 3.083,-28.457 1.591,-38.549c-8.532,-57.743 -45.454,-72.719 -92.052,-93.782c-13.577,-6.137 -24.296,-15.242 -39.953,-15.242c-12.261,0 -68.083,17.615 -68.083,32.796" style="fill:#fff;fill-opacity:0.45;"/><path d="M479.19,347.033c-7.269,-2.433 -15.271,1.209 -18.154,8.416c-0.713,1.921 -1.447,3.847 -2.199,5.778c-0.913,1.026 -1.708,2.042 -2.378,3.038c-2.68,3.987 -3.708,8.153 -3.82,12.138l0.006,0.267c-8.785,21.553 -17.733,43.46 -19.609,65.251c-1.82,21.144 2.224,42.279 18.296,63c14.816,19.237 39.248,27.843 66.663,29.713c35.407,2.414 75.676,-5.891 101.283,-11.801c8.411,-1.87 21.76,-5.449 32.999,-10.766c9.195,-4.35 16.926,-10.036 20.788,-16.596c2.849,-4.786 4.28,-11.704 4.614,-19.144c0.4,-8.925 -0.686,-18.655 -1.545,-25c-3.23,-24.445 -11.451,-41.866 -22.885,-55.601c-17.524,-21.051 -43.381,-33.083 -73.267,-47.33c-9.911,-4.778 -18.355,-10.927 -28.186,-14.359c-5.089,-1.776 -10.507,-2.822 -16.491,-2.97c-8.563,-0.218 -36.38,6.58 -56.115,15.966Zm3.917,30.336c-10.327,22.064 -22.416,44.43 -25.496,67.266c-2.099,15.563 0.267,31.315 11.446,47.176c10.733,15.118 29.687,21.347 50.566,23.429c33.399,3.331 71.662,-4.103 96.006,-9.118c7.493,-1.607 19.443,-4.568 29.439,-9.295c5.741,-2.715 10.922,-5.826 13.304,-9.938c1.596,-2.784 1.94,-6.871 2.045,-11.162c0.192,-7.8 -1.046,-16.27 -1.93,-21.792c-3.286,-20.098 -10.192,-34.438 -20.034,-45.438c-16.42,-18.351 -40.554,-27.49 -67.92,-39.195c-8.136,-3.439 -15.263,-7.973 -23.024,-10.941c-3.755,-1.435 -7.714,-2.325 -12.204,-2.213c-4.814,0.119 -17.13,3.967 -29.315,8.921c-8.873,3.608 -17.73,7.83 -22.883,12.3Z"/><path d="M738.586,349.933c-32.097,8.555 -63.167,72.029 -43.145,103.558c31.704,49.926 83.856,50.637 136.483,50.637c25.441,0 63.931,-5.411 79.905,-27.903c43.476,-61.22 -25.619,-138.719 -85.025,-153.622c-24.679,-6.191 -56.253,-0.081 -76.713,14.678c-6.487,4.68 -27.078,20.421 -26.845,20.421" style="fill:#fff;fill-opacity:0.45;"/><path d="M709.987,351.383c-10.023,9.68 -18.838,22.732 -24.722,37.14c-10.183,24.934 -11.835,52.873 0.389,71.183c14.345,21.577 31.973,34.606 51.717,42.409c28.428,11.234 61.361,11.428 94.553,10.924c15.977,-0.122 36.771,-2.389 54.582,-9.079c13.209,-4.961 24.799,-12.348 32.225,-22.833c19.936,-27.454 19.209,-58.043 7.102,-85.995c-17.167,-39.635 -58.312,-73.603 -96.178,-83.896c-13.857,-3.836 -29.731,-4.186 -45.099,-1.633c-15.582,2.588 -30.538,8.419 -42.465,16.587c-5.203,3.546 -19.16,13.602 -25.104,17.966c-1.343,0.986 -2.31,1.723 -2.769,2.08c-0.676,0.527 -1.072,0.946 -1.266,1.129c-1.493,1.411 -2.4,2.809 -2.965,4.018Zm19.529,19.486c-8.057,6.628 -15.236,16.98 -20.402,28.071c-7.746,16.632 -11.634,35.495 -3.885,48.336c10.787,17.803 24.439,28.968 40.064,35.807c25.736,11.263 56.126,11.672 86.631,12.135c14.207,0.109 32.779,-1.41 48.669,-7.217c9.898,-3.618 18.766,-8.86 24.333,-16.678c19.245,-27.789 12.407,-59.007 -5.559,-84.639c-18.26,-26.052 -48.102,-46.445 -75.415,-52.714c-10.764,-2.424 -22.943,-1.96 -34.627,0.57c-11.567,2.506 -22.606,7.283 -31.233,13.832c-1.256,0.958 -3.057,2.369 -5.133,4.014c-0.93,5.445 -4.934,10.124 -10.617,11.639c-2.706,0.648 -5.383,1.809 -7.994,3.397c-0.754,0.735 -1.321,1.557 -1.569,1.307c-0.982,0.852 -2.078,1.574 -3.263,2.14Z"/><path d="M911.173,398.581c-0.908,4.513 -0.039,8.495 4.442,9.967c0.244,0.247 0.475,0.412 0.685,0.488c2.094,0.471 4.184,0.465 6.157,0.05c5.092,-0.187 14.017,-0.414 22.873,-0.665c9.022,0.02 17.909,-0.195 26.851,0.317c5.897,0.338 11.789,0.804 17.604,1.804c9.577,1.647 18.83,4.597 28.172,7.608c5.2,1.974 24.715,12.446 29.543,10.044c1.177,0.308 2.413,0.472 3.688,0.472c3.522,-0.477 5.518,-0.713 6.271,-1.081c8.855,-4.33 10.548,-10.147 9.896,-14.121c-0.417,-2.549 -0.409,-5.616 -2.796,-8.093c-0.757,-0.785 -3.358,-5.131 -9.95,-5.761c-5.774,-0.551 -25.572,-0.893 -31.573,-1.674c-7.716,-1.314 -15.382,-2.075 -23.073,-3.076c-5.07,-0.659 -10.119,-1.415 -15.164,-2.209c-5.028,-0.791 -10.023,-1.674 -15.039,-2.585c-7.489,-1.361 -14.867,-2.886 -22.401,-4.265c-9.351,-1.966 -18.78,-3.943 -23.593,-4.934c-0.349,-0.111 -0.706,-0.206 -1.069,-0.287c-0.09,-0.009 -0.187,-0.002 -0.291,0.023c-12.861,-2.198 -13.493,8.984 -11.233,17.978Zm138.901,0.965c0.368,-0.033 0.739,-0.047 1.114,-0.047c-0.426,-0.058 -0.795,-0.03 -1.114,0.047Z"/><path d="M348.826,414.594c-0.9,0.154 -1.916,0.182 -3.062,0.049l25.56,2.791c0.491,-0.021 0.976,-0.066 1.453,-0.135l2.455,0.439c5.729,1.476 11.287,2.517 16.714,3.665c5.702,1.207 11.233,2.305 16.87,3.376c10.832,2.057 21.575,3.775 33.794,5.33c8.049,-0 14.583,-6.535 14.583,-14.584c0,-8.048 -6.534,-14.583 -14.583,-14.583c-13.89,1.702 -25.948,3.467 -38.467,3.185c-6.213,-0.14 -12.42,-0.847 -18.871,-1.845l-0,-0.041c-0.344,-8.041 -7.151,-14.291 -15.193,-13.947l-24.315,3.937c-9.951,1.156 -11.507,8.241 -11.572,8.914c-0.099,1.029 -1.028,12.814 9.502,13.376c0.904,0.049 2.97,0.059 5.132,0.073Z"/><path d="M648.773,405.632c-3.319,-0.371 -6.781,0.392 -9.762,2.406c-1.752,1.9 -2.903,2.641 -3.203,3.082c-0.968,1.422 -2.049,2.031 -2.309,2.745c-0.627,1.725 -1.729,2.775 -1.776,3.922c-0.219,5.299 -0.737,9.24 1.92,11.672c1.988,1.819 3.313,4.818 6.703,5.242c1.502,0.187 3.297,1.569 5.712,0.849c0.71,-0.212 1.741,0.114 2.818,-0.463c0.473,-0.254 1.848,-0.316 3.412,-1.567l1.716,-1.422c-0.017,0.122 0.004,0.258 0.071,0.409c0.106,0.238 0.668,-0.075 1.266,-0.302c2.042,-1.38 3.623,-3.187 4.702,-5.224c5.491,-4.634 12.075,-10.048 14.579,-11.199c1.428,-0.361 4.055,-0.413 7.079,-0.089c1.921,0.205 3.894,0.691 5.923,1.202c1.23,0.31 2.441,0.663 3.617,1.047c2.419,5.854 8.495,9.655 15.1,8.913c4.552,-1.701 7.293,-2.185 8.393,-3.245c2.547,-2.453 4.947,-3.667 5.466,-5.723c1.101,-4.361 3.163,-8.171 0.567,-11.815c-0.834,-1.17 -1.032,-2.903 -2.494,-3.964c-1.439,-1.045 -4.474,-4.47 -10.511,-4.72c-5.915,-0.244 -16.542,0.446 -25.272,0.925c-5.268,0.289 -9.794,0.167 -12.251,0.844c-2.292,0.309 -7.43,2.542 -13.338,4.559c-2.455,0.838 -5.386,1.413 -8.128,1.916Zm7.992,24.126l-1.639,1.389c0.224,-0.089 0.419,-0.157 0.507,-0.219c0.507,-0.349 0.866,-0.752 1.132,-1.17Zm41.871,-8.997c1.301,0.941 3.681,2.065 3.681,2.065c0,-0 -0.449,-0.593 -0.881,-0.796c-0.831,-0.389 -1.771,-0.82 -2.8,-1.269Z"/></g></g></svg>