<?xml version="1.0" encoding="UTF-8" standalone="no"?><!DOCTYPE svg PUBLIC "-//W3C//DTD SVG 1.1//EN" "http://www.w3.org/Graphics/SVG/1.1/DTD/svg11.dtd"><svg width="100%" height="100%" viewBox="0 0 800 600" version="1.1" xmlns="http://www.w3.org/2000/svg" xmlns:xlink="http://www.w3.org/1999/xlink" xml:space="preserve" xmlns:serif="http://www.serif.com/" style="fill-rule:evenodd;clip-rule:evenodd;stroke-linejoin:round;stroke-miterlimit:2;"><path d="M548.019,87.296c1.365,10.931 3.854,21.882 5.337,31.909c0.056,0.377 -0.068,-1.101 0.314,-1.101c1.372,0 15.402,0.988 15.97,1.687c0.805,0.989 -0.769,3.884 0.024,4.91c4.011,5.185 11.515,12.392 13.255,18.837c2.89,10.699 5.196,22.165 6.648,33.124c1.175,8.861 -1.269,20.461 1.667,30.033c4.052,13.214 18.439,22.484 21.089,35.5c2.223,10.923 -0.124,23.197 1.339,34.361c2.277,17.383 3.667,35.024 6.59,52.301c1.461,8.641 5.348,17.504 6.028,26.231c0.64,8.215 -4.658,13.891 -7.729,20.986c-3.709,8.572 -5.755,18.107 -10.621,26.112c-6.649,10.941 -16.911,20.938 -20.489,33.451c-4.844,16.942 2.776,33.667 4.423,50.308c1.322,13.361 0.845,27.156 0.506,40.77c-10.375,5.397 -20.105,9.455 -26.178,9.062c-10.402,-0.675 -1.066,-11.073 -9.307,-16.366c-4.28,-2.749 -24.622,5.577 -29.545,4.282c-1.243,-0.326 -12.498,5.636 -13.17,4.797c-3.424,-4.276 5.088,-14.757 1.39,-19.228c-6.212,-7.51 -39.212,17.098 -46.059,10.149c-8.869,-9.001 10.305,-48.629 10.305,-61.27c0,-4.289 0.196,-11.934 4.79,-11.004l0.04,9.678l0.316,-9.616l-0.356,-0.062c-0.073,-28.983 -0.608,-57.923 -1.657,-86.909c-0.932,-25.759 -2.314,-51.503 -3.507,-77.251c-0.883,-19.058 -3.39,-40.492 2.425,-59.014c4.879,-15.537 15.861,-28.449 19.374,-44.438c2.096,-9.54 -2.555,-16.511 -1.671,-25.457c0.274,-2.767 2.687,-4.316 4.374,-6.239c1.155,-1.316 1.16,-22.265 1.346,-23.954c1.976,-17.912 28.088,-24.139 42.739,-36.579Z" style="fill:#4c7083;"/><path d="M501.12,146.189c-1.225,1.317 -2.648,2.546 -3.544,4.066c-0.612,1.04 -1.035,2.186 -1.161,3.502c-0.629,6.6 1.58,12.159 2.161,18.383c0.198,2.119 0.174,4.329 -0.343,6.726c-0.992,4.589 -2.633,8.913 -4.562,13.123c-4.755,10.382 -11.167,20.105 -14.579,31.106c-2.386,7.695 -3.397,15.869 -3.672,24.174c-0.399,12.044 0.748,24.365 1.317,35.833c0.891,18.02 1.875,36.036 2.73,54.059c0.366,7.717 0.707,15.436 1.009,23.156c0.562,14.475 0.996,28.939 1.307,43.403c0.295,13.772 0.48,27.543 0.558,41.324c-1.305,0.394 -2.302,1.347 -3.049,2.682c-1.467,2.624 -1.67,7.302 -1.664,10.415c0.018,9.322 -10.46,33.406 -12.266,48.889c-0.724,6.214 0.038,11.171 2.666,13.832c2.124,2.151 6.278,2.299 11.454,0.756c7.545,-2.25 17.679,-7.63 25.551,-10.31c2.383,-0.812 4.535,-1.373 6.305,-1.45c1.152,-0.05 2.106,0.028 2.66,0.697c0.889,1.074 0.522,2.652 0.087,4.369c-0.795,3.139 -2.321,6.634 -2.68,9.488c-0.266,2.116 0.07,3.951 1.184,5.344c0.269,0.336 0.659,0.636 1.238,0.772c0.402,0.095 1.234,0.079 2.323,-0.268c2.253,-0.719 6.694,-2.843 9.522,-3.976c0.586,-0.235 1.278,-0.457 1.544,-0.541c1.23,0.214 3.073,0.099 5.28,-0.301c5.326,-0.964 13.187,-3.45 18.764,-4.285c2.038,-0.305 3.682,-0.557 4.516,-0.02c2.452,1.577 2.814,3.775 2.885,5.866c0.08,2.365 -0.107,4.664 0.482,6.44c0.753,2.268 2.444,4.101 6.915,4.393c3.125,0.207 7.16,-0.636 11.734,-2.253c4.714,-1.666 10.043,-4.147 15.55,-7.001c0.68,-0.353 1.114,-1.049 1.133,-1.815c0.215,-8.165 0.48,-16.395 0.379,-24.558c-0.068,-5.536 -0.304,-11.042 -0.833,-16.477c-1.128,-11.635 -5.192,-23.315 -5.84,-35.076c-0.264,-4.783 0.057,-9.581 1.445,-14.394c1.037,-3.6 2.665,-6.975 4.596,-10.225c4.671,-7.867 11.075,-15.014 15.724,-22.626c1.537,-2.513 2.809,-5.171 3.94,-7.904c2.507,-6.058 4.298,-12.498 6.9,-18.465c2.215,-5.079 5.525,-9.451 7.085,-14.506c0.732,-2.371 1.105,-4.88 0.898,-7.642c-0.209,-2.776 -0.723,-5.565 -1.386,-8.358c-1.437,-6.063 -3.604,-12.139 -4.597,-18.108c-0.856,-5.157 -1.574,-10.346 -2.219,-15.551c-1.515,-12.211 -2.634,-24.506 -4.189,-36.677c-1.127,-8.833 0.161,-18.356 -0.37,-27.352c-0.145,-2.452 -0.419,-4.866 -0.891,-7.222c-0.602,-3.009 -1.762,-5.841 -3.275,-8.568c-2.656,-4.789 -6.441,-9.249 -9.986,-13.841c-3.237,-4.195 -6.281,-8.498 -7.766,-13.398c-0.791,-2.608 -1.134,-5.381 -1.271,-8.2c-0.358,-7.374 0.625,-15.051 -0.19,-21.363c-0.715,-5.553 -1.646,-11.235 -2.76,-16.884c-1.112,-5.644 -2.406,-11.254 -3.848,-16.672c-0.621,-2.333 -1.871,-4.767 -3.471,-7.178c-2.88,-4.339 -6.946,-8.642 -9.73,-12.14c0.138,-0.751 0.391,-2.251 0.365,-2.966c-0.04,-1.112 -0.41,-2.022 -0.971,-2.718c-0.245,-0.303 -0.659,-0.71 -1.359,-1.024c-0.372,-0.168 -1.147,-0.394 -2.223,-0.574c-2.909,-0.486 -9.043,-0.999 -12.524,-1.236c-0.969,-5.972 -2.187,-12.217 -3.236,-18.548c-0.52,-3.138 -0.998,-6.297 -1.38,-9.454c-0.159,-1.276 -1.005,-2.361 -2.203,-2.828c-1.198,-0.466 -2.555,-0.239 -3.535,0.594c-9.759,8.352 -24.646,13.951 -34.019,22.094c-5.315,4.617 -8.986,10.003 -9.708,16.794c-0.148,1.39 -0.128,15.821 -0.756,21.626c-0.039,0.354 -0.104,0.769 -0.151,1.047Zm54.718,-24.605c2.768,0.169 7.44,0.522 10.426,0.895c-0.082,0.599 -0.144,1.21 -0.127,1.598c0.048,1.069 0.385,1.958 0.919,2.642c2.369,3.04 5.957,6.777 8.857,10.649c1.756,2.344 3.276,4.715 3.905,7.007c1.445,5.276 2.748,10.74 3.873,16.238c1.127,5.504 2.077,11.042 2.814,16.455c0.838,6.159 -0.109,13.664 0.289,20.864c0.183,3.318 0.633,6.575 1.584,9.639c1.726,5.566 5.13,10.495 8.846,15.245c3.392,4.337 7.042,8.523 9.592,13.051c1.236,2.195 2.21,4.469 2.712,6.896c0.652,3.155 0.899,6.429 0.973,9.756c0.18,8.116 -0.612,16.529 0.444,24.392c1.632,12.154 2.831,24.435 4.423,36.628c0.689,5.271 1.45,10.525 2.35,15.747c1.044,6.075 3.269,12.257 4.767,18.426c0.614,2.528 1.103,5.054 1.305,7.57c0.23,2.854 -0.379,5.355 -1.344,7.728c-1.664,4.093 -4.3,7.839 -6.129,12.097c-2.582,6.011 -4.351,12.49 -6.837,18.59c-1.023,2.51 -2.17,4.954 -3.565,7.264c-4.624,7.646 -11.005,14.837 -15.65,22.738c-2.115,3.596 -3.88,7.336 -5.008,11.314c-1.509,5.321 -1.859,10.619 -1.545,15.899c0.701,11.823 4.815,23.553 5.995,35.247c0.534,5.313 0.78,10.696 0.863,16.109c0.118,7.694 -0.092,15.449 -0.275,23.151c-4.919,2.534 -9.662,4.734 -13.895,6.244c-3.932,1.403 -7.385,2.224 -10.075,2.054c-1.981,-0.128 -2.937,-0.57 -3.271,-1.575c-0.485,-1.453 -0.214,-3.344 -0.282,-5.28c-0.116,-3.31 -0.895,-6.687 -4.778,-9.177c-1.362,-0.874 -4.019,-1.08 -7.342,-0.579c-4.858,0.733 -11.429,2.697 -16.6,3.858c-2.726,0.612 -4.988,1.079 -6.195,0.762c-0.373,-0.098 -1.247,-0.097 -2.408,0.299c-2.398,0.819 -7.421,3.283 -10.119,4.233c-0.165,-0.955 0.178,-2.139 0.527,-3.411c0.866,-3.158 2.38,-6.699 2.638,-9.612c0.182,-2.058 -0.212,-3.861 -1.372,-5.265c-0.908,-1.099 -2.175,-1.784 -3.777,-2.052c-2.001,-0.334 -4.647,0.033 -7.67,0.92c-7.482,2.195 -17.63,7.561 -25.574,10.266c-2.375,0.808 -4.532,1.374 -6.324,1.479c-1.195,0.07 -2.188,0.004 -2.804,-0.623c-1.218,-1.239 -1.644,-3.241 -1.726,-5.692c-0.102,-3.069 0.429,-6.777 1.301,-10.807c3.316,-15.328 11.42,-35.046 11.436,-43.32c0.003,-1.728 0.03,-4.041 0.417,-6.039l0.011,4.722c0.005,1.212 0.98,2.196 2.191,2.214c1.212,0.017 2.214,-0.939 2.254,-2.15l0.334,-9.615l-0.389,0.377l-0.003,-0.481l0.038,-0.037c0,-14.507 -0.116,-29.004 -0.353,-43.501c-0.237,-14.493 -0.595,-28.986 -1.083,-43.492c-0.343,-10.313 -0.759,-20.624 -1.204,-30.934c-0.667,-15.452 -1.403,-30.901 -2.071,-46.352c-0.487,-11.324 -1.557,-23.493 -1.082,-35.378c0.311,-7.785 1.289,-15.445 3.577,-22.644c3.414,-10.739 9.804,-20.185 14.528,-30.309c2.144,-4.594 3.958,-9.322 5.079,-14.339c0.684,-3.06 0.75,-5.886 0.516,-8.597c-0.503,-5.831 -2.672,-11.033 -2.04,-17.207c0.051,-0.497 0.295,-0.888 0.571,-1.255c0.871,-1.158 2.093,-2.105 3.054,-3.193c0.27,-0.304 0.621,-0.833 0.862,-1.649c0.258,-0.876 0.495,-2.677 0.659,-4.963c0.472,-6.6 0.544,-17.87 0.682,-19.085c0.583,-5.096 3.546,-9.015 7.565,-12.451c7.975,-6.82 19.877,-11.789 29.301,-18.161l0,0c0.205,1.287 0.42,2.571 0.642,3.852c1.325,7.647 2.9,15.165 3.971,22.225c0.069,0.456 0.17,0.702 0.206,0.793c0.566,1.437 1.577,1.808 2.045,1.969c1.093,0.376 2.161,0.265 3.171,-0.518c0.114,-0.088 0.256,-0.203 0.404,-0.359Z"/><path d="M571.946,24.344c1.689,-0.051 3.631,0.165 5.862,0.653c7.268,1.59 14.564,6.521 20.567,10.549c13.976,9.38 -7.762,25.507 -3.768,36.921c10.586,30.248 24.289,61.351 28.134,101.113c1.293,13.374 31.23,52.031 32.462,65.489c1.458,15.936 26.497,77.323 32.113,92.096c9.423,24.791 8.711,125.467 12.64,136.513c0.028,0.079 -5.7,11.055 -4.899,9.082c1.807,-4.451 -5.215,6.067 -8.4,8.392c-8.23,6.007 -24.954,28.939 -33.642,34.259c-17.499,10.716 0.236,-22.215 -18.292,-15.75c-7.826,2.73 -25.905,14.556 -42.353,23.054c0.339,-13.614 0.816,-27.409 -0.506,-40.77c-1.647,-16.641 -9.267,-33.366 -4.423,-50.308c3.578,-12.513 13.84,-22.51 20.489,-33.451c4.866,-8.005 6.912,-17.54 10.621,-26.112c3.071,-7.095 8.369,-12.771 7.729,-20.986c-0.68,-8.727 -4.567,-17.59 -6.028,-26.231c-2.923,-17.277 -4.313,-34.918 -6.59,-52.301c-1.463,-11.164 0.884,-23.438 -1.339,-34.361c-2.65,-13.016 -17.037,-22.286 -21.089,-35.5c-2.936,-9.572 -0.492,-21.172 -1.667,-30.033c-1.452,-10.959 -3.758,-22.425 -6.648,-33.124c-1.74,-6.445 -9.244,-13.652 -13.255,-18.837c-0.793,-1.026 0.781,-3.921 -0.024,-4.91c-0.568,-0.699 -14.598,-1.687 -15.97,-1.687c-0.382,0 -0.258,1.478 -0.314,1.101c-1.483,-10.027 -3.972,-20.978 -5.337,-31.909c3.838,-3.185 6.877,-6.818 8.527,-11.177c4.788,-12.65 3.15,-27.603 4.292,-38.18l4.462,-5.775c1.569,-1.887 3.138,-3.774 4.708,-5.661l1.938,-2.159Z" style="fill:#284259;"/><path d="M555.735,121.332c2.832,0.172 7.782,0.546 10.8,0.938c-0.097,0.658 -0.177,1.366 -0.158,1.797c0.045,1.014 0.363,1.857 0.868,2.506c2.37,3.042 5.957,6.78 8.857,10.654c1.774,2.37 3.305,4.771 3.94,7.088c1.445,5.28 2.747,10.75 3.871,16.253c1.126,5.51 2.075,11.052 2.811,16.471c0.838,6.164 -0.109,13.675 0.289,20.881c0.183,3.3 0.63,6.539 1.575,9.587c1.718,5.541 5.108,10.446 8.806,15.177c3.397,4.346 7.052,8.543 9.605,13.081c1.247,2.214 2.226,4.509 2.732,6.957c0.654,3.166 0.9,6.453 0.974,9.794c0.177,8.108 -0.619,16.513 0.434,24.37c1.626,12.155 2.819,24.436 4.403,36.63c0.685,5.27 1.441,10.523 2.338,15.742c1.042,6.072 3.264,12.251 4.76,18.417c0.616,2.537 1.105,5.071 1.307,7.594c0.232,2.881 -0.383,5.406 -1.357,7.8c-1.666,4.093 -4.303,7.84 -6.134,12.099c-2.584,6.008 -4.354,12.485 -6.845,18.583c-1.027,2.516 -2.18,4.965 -3.581,7.28c-4.627,7.644 -11.01,14.832 -15.658,22.731c-2.111,3.587 -3.873,7.316 -5,11.284c-1.507,5.307 -1.857,10.592 -1.546,15.86c0.696,11.821 4.803,23.551 5.979,35.243c0.532,5.316 0.776,10.702 0.856,16.118c0.119,8.109 -0.128,16.285 -0.323,24.397c-0.018,0.718 0.344,1.393 0.953,1.774c0.609,0.381 1.374,0.413 2.012,0.083c11.864,-6.131 24.574,-13.994 33.684,-18.928c3.409,-1.847 6.293,-3.276 8.406,-4.012c2.837,-0.988 4.498,-1.078 5.463,-0.072c1.277,1.332 1.279,3.805 1.335,6.281c0.066,2.954 0.001,5.961 0.598,8.002c0.586,2.003 1.74,3.288 3.538,3.703c1.59,0.367 4.082,-0.084 7.76,-2.334c2.159,-1.32 4.801,-3.659 7.674,-6.565c8.762,-8.86 19.899,-23.205 26.135,-27.746c1.531,-1.114 4.41,-4.454 6.376,-6.829c0.834,-0.007 1.911,-0.762 3,-2.675c0.963,-1.691 3.213,-5.967 4.161,-7.825c0.726,-1.422 0.55,-2.523 0.538,-2.559c-2.667,-7.543 -3.009,-57.064 -6.013,-95.362c-1.403,-17.892 -3.4,-33.382 -6.386,-41.293c-3.688,-9.78 -15.835,-39.993 -24.023,-63.917c-4.092,-11.956 -7.208,-22.298 -7.674,-27.566c-0.312,-3.525 -2.383,-8.699 -5.466,-14.67c-5.578,-10.804 -14.437,-24.5 -20.512,-35.713c-3.38,-6.238 -5.93,-11.614 -6.26,-15.141c-1.407,-15.036 -4.212,-28.852 -7.723,-41.861c-5.837,-21.632 -13.644,-41.011 -20.233,-60.048c-0.542,-1.568 -0.315,-3.254 0.183,-5.007c0.553,-1.947 1.476,-3.95 2.481,-5.975c2.32,-4.677 5.01,-9.454 5.846,-13.84c0.984,-5.165 -0.146,-9.938 -5.923,-13.844c-3.691,-2.496 -7.862,-5.317 -12.217,-7.545c-3.105,-1.588 -6.307,-2.872 -9.499,-3.582c-1.147,-0.255 -2.225,-0.443 -3.239,-0.568c-1.247,-0.155 -2.403,-0.213 -3.472,-0.184c-0.956,0.029 -1.859,0.448 -2.498,1.159l-1.931,2.167c-0.029,0.032 -0.058,0.066 -0.087,0.1l-4.687,5.679c-0.026,0.031 -0.052,0.064 -0.078,0.097l-4.44,5.791c-0.387,0.502 -0.628,1.101 -0.696,1.731c-0.686,6.576 -0.297,14.833 -1.032,23.185c-0.424,4.813 -1.227,9.663 -2.925,14.198c-0.715,1.912 -1.744,3.661 -3.014,5.281c-1.285,1.64 -2.809,3.15 -4.504,4.567c-0.852,0.706 -1.284,1.798 -1.147,2.896c0.417,3.251 0.931,6.504 1.49,9.734c1.323,7.65 2.896,15.17 3.964,22.232c0.064,0.425 0.158,0.655 0.192,0.739c0.524,1.332 1.462,1.676 1.896,1.826c1.013,0.348 2.002,0.245 2.94,-0.481c0.124,-0.096 0.286,-0.228 0.451,-0.415Zm141.94,346.151l-0.051,0.101c-0.703,1.388 -2.143,4.155 -3.202,6.125c-0.199,0.085 -0.405,0.204 -0.617,0.362c-1.196,0.893 -5.931,7.585 -8.388,9.383c-6.336,4.637 -17.684,19.218 -26.585,28.251c-2.587,2.625 -4.944,4.763 -6.889,5.955c-1.561,0.958 -2.786,1.537 -3.767,1.77c-0.502,0.118 -0.858,0.221 -1.086,-0.011c-0.701,-0.711 -0.675,-2.136 -0.74,-3.735c-0.13,-3.218 0.052,-7.057 -0.799,-9.848c-0.603,-1.975 -1.684,-3.5 -3.385,-4.353c-1.743,-0.873 -4.32,-1.068 -8.113,0.257c-2.26,0.791 -5.351,2.308 -8.999,4.286c-8.311,4.506 -19.632,11.447 -30.561,17.277c0.184,-7.024 0.361,-14.083 0.27,-21.093c-0.071,-5.533 -0.308,-11.036 -0.84,-16.468c-1.133,-11.636 -5.203,-23.316 -5.856,-35.079c-0.266,-4.796 0.054,-9.607 1.443,-14.434c1.04,-3.61 2.67,-6.996 4.604,-10.256c4.669,-7.868 11.07,-15.018 15.717,-22.632c1.53,-2.508 2.796,-5.161 3.923,-7.888c2.504,-6.061 4.293,-12.502 6.893,-18.472c2.211,-5.074 5.518,-9.441 7.075,-14.49c0.725,-2.354 1.096,-4.844 0.89,-7.585c-0.209,-2.767 -0.723,-5.549 -1.384,-8.333c-1.44,-6.066 -3.609,-12.145 -4.604,-18.117c-0.86,-5.159 -1.582,-10.35 -2.231,-15.557c-1.523,-12.209 -2.648,-24.504 -4.209,-36.674c-1.131,-8.836 0.153,-18.365 -0.381,-27.364c-0.145,-2.442 -0.418,-4.847 -0.889,-7.194c-0.599,-2.987 -1.752,-5.799 -3.255,-8.507c-2.653,-4.779 -6.434,-9.228 -9.973,-13.811c-3.255,-4.215 -6.313,-8.541 -7.807,-13.465c-0.796,-2.625 -1.141,-5.416 -1.279,-8.254c-0.358,-7.368 0.625,-15.038 -0.19,-21.345c-0.716,-5.548 -1.649,-11.224 -2.763,-16.869c-1.112,-5.638 -2.407,-11.243 -3.85,-16.656c-0.616,-2.31 -1.856,-4.72 -3.441,-7.107c-2.901,-4.368 -7.006,-8.698 -9.789,-12.205c0.134,-0.72 0.405,-2.288 0.378,-3.023c-0.039,-1.053 -0.386,-1.915 -0.919,-2.574c-0.229,-0.284 -0.615,-0.663 -1.269,-0.957c-0.363,-0.163 -1.117,-0.381 -2.164,-0.555c-2.96,-0.494 -9.27,-1.015 -12.699,-1.244c-0.976,-6.029 -2.211,-12.339 -3.273,-18.737c-0.427,-2.57 -0.826,-5.154 -1.167,-7.74c1.524,-1.364 2.909,-2.806 4.126,-4.337c1.703,-2.142 3.075,-4.463 4.044,-6.997c1.466,-3.83 2.383,-7.861 2.966,-11.928c1.321,-9.222 0.859,-18.639 1.563,-26.085c0,-0 3.84,-4.932 3.84,-4.932c-0,0 4.646,-5.544 4.646,-5.544l0.84,-0.928c0.323,0.021 0.656,0.051 1,0.091c0.809,0.095 1.669,0.24 2.585,0.437c2.645,0.57 5.292,1.637 7.87,2.933c4.115,2.069 8.054,4.714 11.547,7.04c2.942,1.959 3.593,4.347 3.113,6.968c-0.864,4.709 -4.263,9.867 -6.436,14.85c-2.052,4.705 -3.062,9.297 -1.625,13.357c6.674,18.863 14.579,38.052 20.517,59.499c3.51,12.677 6.331,26.148 7.795,40.818c0.351,3.523 2.471,8.705 5.622,14.685c5.664,10.754 14.609,24.394 20.735,35.582c3.417,6.242 5.992,11.63 6.329,15.186c0.52,5.501 3.77,16.305 8.116,28.77c8.343,23.933 20.664,54.156 24.412,63.94c2.925,7.642 4.848,22.639 6.278,39.95c3.093,37.419 3.83,85.44 6.338,95.51Z"/><g id="Cuerpo"><path d="M390.3,309.634c-0.641,-1.162 -25.729,13.395 -27.003,13.649c-6.743,1.344 -13.21,3.433 -17.575,7.707c-2.63,2.575 -4.497,5.945 -5.2,10.423c-2.476,15.788 20.203,5.012 22.413,15.027c0.635,2.88 0.683,13.912 -0.455,5.879c-0.13,-0.919 0.348,-3.126 -0.09,-3.92c-1.153,-2.09 -8.141,-0.903 -8.62,1.714c-1.048,5.73 -0.951,12.453 5.716,14.702c2.902,0.978 6.745,0.034 8.531,-2.369c0.588,-0.792 0.5,-2.36 0.179,-1.796c-2.916,5.126 -0.364,11.161 6.443,9.636c1.449,-0.324 3.075,-4.575 1.905,-5.634c-0.267,-0.243 -0.642,2.279 -0.179,2.694c1.813,1.626 6.114,1.301 7.531,-0.817c2.161,-3.23 -2.665,-6.823 -1.725,-10.127c1.625,-5.715 10.612,-7.491 2.542,-18.293c-4.564,-6.109 -20.827,-4.574 -27.767,-10.863c-0.184,-0.166 -0.001,-1.465 0.09,-1.633c4.015,-7.402 19.9,-3.051 25.045,-10.124c3.765,-5.177 15.541,-12.476 13.499,-9.423" style="fill:#fff;"/><path d="M362.388,320.343c-4.048,0.874 -7.988,2.014 -11.465,3.686c-2.708,1.303 -5.149,2.913 -7.174,4.946c-1.587,1.594 -2.934,3.433 -3.955,5.584c-0.899,1.895 -1.562,4.026 -1.91,6.441c-0.88,6.094 1.234,9.121 4.41,10.801c3.542,1.874 9.127,1.623 13.655,2.296c1.35,0.2 2.625,0.434 3.523,1.064c-0.698,0.004 -1.43,0.078 -2.151,0.223c-2.878,0.581 -5.309,2.408 -5.651,4.345c-0.691,3.908 -0.814,8.214 0.789,11.563c1.147,2.399 3.115,4.38 6.371,5.467c1.8,0.602 3.886,0.634 5.806,0.128c0.18,-0.048 0.358,-0.1 0.533,-0.158c0.177,0.843 0.477,1.63 0.891,2.332c1.511,2.562 4.538,4.223 9.028,3.233c0.674,-0.148 1.427,-0.602 2.075,-1.382c0.163,-0.196 0.321,-0.416 0.473,-0.654c0.904,0.225 1.889,0.301 2.866,0.212c2.148,-0.195 4.159,-1.203 5.199,-2.734c0.74,-1.088 0.986,-2.208 0.938,-3.343c-0.068,-1.577 -0.866,-3.228 -1.624,-4.847c-0.407,-0.87 -0.923,-1.696 -0.68,-2.528c0.509,-1.72 1.884,-2.953 3.038,-4.316c1.702,-2.01 3.069,-4.184 3.031,-7.131c-0.029,-2.292 -0.962,-5.165 -3.72,-8.935c-1.327,-1.818 -3.447,-3.162 -6.079,-4.178c-3.425,-1.321 -7.81,-2.101 -12.026,-3.132c-3.122,-0.764 -6.159,-1.634 -8.443,-3.16c1.147,-1.204 2.981,-1.657 4.961,-2.058c4.388,-0.889 9.595,-1.04 13.609,-2.495c2.457,-0.89 4.511,-2.251 5.987,-4.224c2.128,-2.836 7.047,-6.353 9.981,-7.943c1.408,0.378 2.96,-0.157 3.815,-1.434c1.611,-2.494 0.542,-4.211 -0.104,-4.917c-0.57,-0.622 -2.34,-1.85 -4.947,-0.743c-3.012,1.278 -10.932,6.925 -13.97,11.237c-1.576,2.23 -4.628,2.797 -7.78,3.353c-4.017,0.707 -8.279,1.137 -11.52,2.495c-2.475,1.037 -4.447,2.553 -5.636,4.818c-0.14,0.268 -0.543,1.839 -0.49,2.791c0.065,1.191 0.637,1.968 1.007,2.294c1.676,1.479 3.778,2.607 6.142,3.471c4.43,1.618 9.826,2.336 14.423,3.451c3.051,0.74 5.752,1.523 7.127,3.32c2.613,3.425 3.296,5.595 2.75,7.392c-0.416,1.371 -1.4,2.444 -2.326,3.556c-1.335,1.602 -2.608,3.242 -3.159,5.256c-0.302,1.09 -0.251,2.197 0.06,3.313c0.385,1.383 1.229,2.795 1.818,4.185c0.294,0.696 0.644,1.375 0.208,2.038c-0.381,0.578 -1.207,0.804 -2.009,0.889c-0.367,0.038 -0.745,0.05 -1.099,0.014c0.047,-1.346 -0.365,-2.504 -1.038,-3.12c-0.68,-0.626 -1.409,-0.68 -2.121,-0.446c-0.369,0.121 -1.046,0.483 -1.411,1.427c-0.244,0.63 -0.453,2.152 -0.317,3.1c0.032,0.227 0.085,0.435 0.152,0.624c-0.131,0.225 -0.259,0.422 -0.327,0.523c-2.11,0.414 -3.633,-0.114 -4.366,-1.344c-0.443,-0.744 -0.604,-1.657 -0.504,-2.628c0.214,-0.222 0.412,-0.457 0.594,-0.703c0.716,-0.968 0.905,-2.541 0.784,-3.259c-0.119,-0.711 -0.473,-1.145 -0.724,-1.367c-0.441,-0.39 -0.939,-0.546 -1.457,-0.526c-0.441,0.016 -1.237,0.124 -1.814,1.143c-0.473,0.83 -0.825,1.679 -1.064,2.525c-0.525,0.346 -1.134,0.598 -1.767,0.762c-1.146,0.297 -2.391,0.298 -3.462,-0.066c-2.553,-0.871 -3.849,-2.591 -4.396,-4.647c-0.628,-2.359 -0.367,-5.091 0.104,-7.614c0.069,-0.059 0.354,-0.292 0.558,-0.401c0.503,-0.269 1.118,-0.457 1.744,-0.576c0.722,-0.136 1.64,0.324 2.165,0.272c-0.052,0.84 -0.116,2.208 -0.047,2.728c0.276,2.079 0.58,3.127 0.751,3.475c0.508,1.031 1.287,1.235 1.725,1.314c0.511,0.092 2.498,-0.157 2.8,-2.465c0.228,-1.745 0.079,-7.074 -0.333,-9.019c-0.869,-4.129 -4.183,-5.886 -8.505,-6.618c-3.957,-0.67 -8.905,-0.297 -11.972,-2.01c-1.534,-0.857 -2.078,-2.513 -1.576,-5.482c0.31,-1.825 0.846,-3.432 1.564,-4.852c0.779,-1.54 1.792,-2.845 2.971,-3.97c1.615,-1.542 3.559,-2.724 5.691,-3.684c3.193,-1.438 6.812,-2.342 10.51,-3.031c0.286,-0.052 1.518,-0.552 3.309,-1.473c5.04,-2.592 16.395,-8.79 21.705,-11.139c0.667,-0.295 1.575,-0.299 1.704,-0.558c0.469,-0.041 0.938,-0.179 1.377,-0.421c1.691,-0.933 2.307,-3.064 1.373,-4.756c-0.487,-0.853 -1.541,-2.14 -3.766,-1.838c-0.608,0.082 -1.892,0.489 -3.575,1.292c-5.327,2.541 -16.691,9.158 -21.737,11.938c-0.792,0.436 -1.67,0.891 -1.898,1.008Zm30.204,-6.1l0.078,-0.123c-0.028,0.041 -0.054,0.082 -0.078,0.123Zm-4.91,-2.287c-0.169,-0.189 -0.319,-0.4 -0.447,-0.631c0.122,0.227 0.27,0.439 0.447,0.631Z"/><path d="M355.009,419.338c0.165,-0.313 2.179,-11.993 7.696,-22.097c8.56,-15.675 21.933,-32.991 21.933,-40.185c-0,-8.311 0.961,-32.836 -4.674,-52.726c-4.943,-17.447 -16.546,-30.973 -16.886,-31.649c-2.022,-4.021 -17.623,-4.669 -15.681,-9.756c2.041,-5.346 29.892,-11.38 35.781,-10.099c0.884,0.192 2.33,1.383 3.603,2.456c0.502,0.256 0.924,0.484 1.116,0.618c2.962,2.067 5.313,4.761 7.791,7.325c1.584,1.639 3.901,7.172 7.194,10.744c15.333,2.586 28.486,9.414 38.659,21.519c2.978,3.544 6.956,6.356 9.459,10.286c3.618,5.68 7.512,15.521 10.536,25.955c3.552,12.256 5.906,25.331 5.206,33.447c-1.287,14.907 -6.087,31.062 -15.177,43.009c-2.721,3.577 -26.919,33.24 -29.973,40.933c-9.293,23.407 -8.109,34.41 -0.396,58.794c3.074,9.718 6.941,20.66 12.231,29.471c2.234,3.722 12.534,22.235 14.965,25.831c0.08,0.119 -28.715,-25.869 -33.637,-32.04c-11.341,-14.219 -17.971,-34.775 -22.926,-52.405c-2.676,-9.525 -1.423,-20.288 -1.886,-30.063c-0.397,-8.395 4.065,-17.635 7.851,-25.131c0.333,-0.658 1.544,-2.905 2.519,-5.047l-6.984,0.188c-0.974,0.941 -1.86,1.89 -2.632,2.69c-0.195,0.202 -0.413,0.383 -0.602,0.592c-9.044,9.984 -13.245,22.319 -14.042,35.524c-1.414,23.413 -1.221,52.539 8.68,73.901c3.304,7.129 18.602,37.502 16.661,36.101c-7.402,-5.344 -22.437,-24.2 -26.511,-32.274c-6.14,-12.164 -9.75,-21.374 -17.087,-32.879c-3.699,-5.798 -3.004,-12.659 -5.417,-19.203c-2.705,-7.335 -0.934,-24.9 -0.258,-32.949c0.476,-5.664 0.196,-25.789 2.888,-30.881Zm29.217,-165.309c0.567,0.274 1.683,0.806 2.555,1.253c0.488,0.41 0.951,0.803 1.347,1.117l1.117,0.678c-0.2,0 -0.603,-0.272 -1.117,-0.678l-3.902,-2.37c-0.387,-0.186 -0.519,-0.253 -0.149,-0.091l0.149,0.091Z" style="fill:#fff;"/><path d="M351.701,418.149c-0.921,2.073 -1.606,5.728 -1.987,9.977c-0.709,7.894 -0.653,18.043 -0.954,21.81c-0.44,5.506 -1.357,15.388 -1.071,23.534c0.151,4.312 0.66,8.169 1.649,10.82c1.666,4.468 1.827,9.097 3.024,13.41c0.613,2.21 1.46,4.348 2.763,6.375c2.857,4.442 5.142,8.535 7.235,12.595c3.269,6.343 6.078,12.606 9.816,19.946c2.117,4.154 7.048,11.094 12.427,17.664c5.405,6.602 11.263,12.823 15.107,15.577c0.968,0.693 1.816,0.642 2.347,0.537c0.635,-0.125 1.177,-0.422 1.614,-0.909c0.338,-0.376 0.955,-1.202 0.719,-2.625c-0.098,-0.591 -0.605,-2.042 -1.483,-4.047c-3.518,-8.038 -13.143,-27.086 -15.694,-32.539c-3.931,-8.412 -6.301,-18.072 -7.659,-28.1c-2.026,-14.958 -1.8,-30.728 -1.013,-44.502c0.367,-6.36 1.547,-12.514 3.731,-18.28c2.16,-5.702 5.298,-11.026 9.592,-15.792l0.549,-0.538l1.946,-2.001c0,-0 2.101,-0.062 2.101,-0.062c-0,-0 -0.755,1.521 -0.755,1.521c-2.291,4.567 -4.817,9.768 -6.407,15.037c-1.141,3.779 -1.804,7.595 -1.62,11.257c0.338,6.84 -0.155,14.165 0.43,21.211c0.265,3.19 0.746,6.325 1.6,9.341c2.996,10.579 6.596,22.201 11.435,32.899c3.339,7.384 7.267,14.328 11.979,20.211c3.897,4.874 22.596,22.022 30.448,29.138c1.492,1.352 2.59,2.341 3.118,2.812c0.168,0.15 0.282,0.251 0.337,0.299c0.057,0.049 0.096,0.08 0.114,0.094c0.747,0.581 1.373,0.43 1.467,0.42c0.619,-0.065 1.04,-0.355 1.34,-0.709c0.282,-0.333 0.5,-0.774 0.481,-1.378c-0.006,-0.194 -0.021,-0.594 -0.349,-1.078c-0.814,-1.204 -2.525,-4.11 -4.517,-7.563c-3.929,-6.81 -8.924,-15.71 -10.401,-18.169c-2.075,-3.461 -3.924,-7.26 -5.591,-11.182c-2.513,-5.914 -4.609,-12.106 -6.427,-17.863c-3.734,-11.83 -5.932,-20.442 -6.062,-28.909c-0.132,-8.58 1.881,-16.996 6.464,-28.495c0.962,-2.412 4.113,-7.04 7.978,-12.335c8.307,-11.378 19.94,-25.644 21.779,-28.053c4.709,-6.161 8.316,-13.412 10.909,-21.049c2.563,-7.548 4.134,-15.474 4.808,-23.084c0.338,-3.821 0.04,-8.704 -0.742,-14.086c-0.922,-6.346 -2.513,-13.404 -4.47,-20.214c-1.654,-5.767 -3.571,-11.355 -5.562,-16.185c-1.708,-4.141 -3.478,-7.731 -5.184,-10.426c-0.828,-1.309 -1.802,-2.508 -2.852,-3.65c-2.18,-2.371 -4.717,-4.467 -6.766,-6.92c-5.265,-6.3 -11.309,-11.231 -18.02,-14.937c-6.464,-3.57 -13.551,-5.999 -21.173,-7.4c-0.549,-0.666 -1.064,-1.387 -1.551,-2.121c-2.173,-3.277 -3.867,-6.776 -5.097,-8.057c-1.512,-1.575 -2.979,-3.196 -4.561,-4.7c-1.127,-1.071 -2.311,-2.082 -3.6,-2.988l-1.095,-0.622c-0.253,-0.214 -0.511,-0.429 -0.771,-0.639c-0.032,-0.649 -0.456,-1.166 -1.531,-1.389c-0.095,-0.058 -0.193,-0.112 -0.295,-0.161l0.153,0.142c0.04,0.001 0.081,0.006 0.123,0.015l0.019,0.004c0.437,0.265 0.802,0.617 1.078,1.024c-0.125,-0.099 -0.25,-0.196 -0.374,-0.29c-0.231,-0.285 -0.51,-0.535 -0.829,-0.737l-0.017,-0.016l-0.009,-0c-0.137,-0.087 -0.283,-0.163 -0.436,-0.23c-0.089,-0.007 -0.165,-0.018 -0.232,-0.033c-0.545,-0.297 -1.05,-0.492 -1.469,-0.584c-3.526,-0.78 -14.532,0.747 -23.796,3.374c-4.977,1.411 -9.446,3.137 -12.052,4.862c-1.702,1.127 -2.735,2.38 -3.168,3.502c-1.031,2.675 -0.035,4.919 2.664,6.66c2.234,1.441 6.106,2.519 9.41,3.683c1.125,0.396 2.169,0.802 2.986,1.273c0.286,0.164 0.573,0.254 0.677,0.463c0.22,0.441 5.152,6.309 9.943,15.148c2.503,4.619 4.966,10.085 6.626,16.02c1.826,6.537 2.914,13.586 3.561,20.368c1.294,13.56 0.819,26.074 0.798,31.531c-0.01,2.514 -2.087,6.342 -4.818,11.01c-4.718,8.064 -11.67,18.097 -16.873,27.541c-2.072,3.76 -3.683,7.73 -4.905,11.303c-1.594,4.66 -2.518,8.633 -2.945,10.529l-0.162,0.71Zm29.169,-162.812c-3.476,-0.01 -9.735,1.087 -15.796,2.611c-4.529,1.14 -8.946,2.556 -12.043,4.065c-0.978,0.476 -1.809,0.954 -2.433,1.44c-0.069,0.054 -0.137,0.101 -0.201,0.147c0.668,0.375 2.01,1.096 3.094,1.478c2.522,0.889 5.438,1.682 7.645,2.643c2.251,0.98 3.848,2.281 4.543,3.652c0.221,0.435 5.158,6.198 9.957,14.913c2.731,4.959 5.415,10.834 7.247,17.217c1.972,6.866 3.182,14.275 3.916,21.407c1.423,13.818 1.051,26.582 1.072,32.146c0.01,2.46 -1.186,5.983 -3.315,10.133c-4.411,8.599 -12.837,20.559 -18.858,31.686c-1.845,3.41 -3.265,7.01 -4.344,10.245c-1.451,4.353 -2.281,8.062 -2.666,9.831c-0.267,1.228 -0.533,1.924 -0.585,2.023c-0.779,1.459 -1.163,4.393 -1.497,7.8c-0.771,7.86 -0.794,17.975 -1.124,21.727c-0.407,4.623 -1.199,12.426 -1.264,19.571c-0.043,4.74 0.181,9.175 1.202,11.975c1.7,4.663 1.882,9.472 3.095,13.97c0.433,1.608 1.016,3.173 1.951,4.651c2.94,4.647 5.29,8.926 7.438,13.17c3.227,6.376 5.995,12.668 9.685,20.046c1.961,3.921 6.587,10.455 11.6,16.67c1.315,1.631 2.656,3.241 3.985,4.775c-4.1,-8.649 -9.185,-18.975 -10.921,-22.756c-4.093,-8.906 -6.563,-19.112 -7.929,-29.708c-1.972,-15.302 -1.655,-31.42 -0.76,-45.493c0.433,-6.868 1.757,-13.505 4.15,-19.721c2.402,-6.239 5.876,-12.056 10.612,-17.256l0.656,-0.646l2.697,-2.741c0.427,-0.412 0.993,-0.65 1.587,-0.666l6.984,-0.169c0.812,-0.021 1.578,0.377 2.027,1.054c0.449,0.677 0.517,1.538 0.18,2.277l-2.574,5.127c-2.203,4.333 -4.65,9.26 -6.191,14.266c-1.002,3.255 -1.624,6.541 -1.483,9.702c0.307,6.795 -0.224,14.067 0.328,21.068c0.229,2.903 0.648,5.759 1.414,8.506c2.899,10.396 6.378,21.821 11.085,32.341c3.161,7.065 6.874,13.721 11.352,19.358c2.968,3.731 14.712,14.754 23.427,22.78c-3.386,-5.938 -6.921,-12.226 -8.122,-14.228c-2.173,-3.614 -4.113,-7.579 -5.859,-11.674c-2.572,-6.032 -4.723,-12.348 -6.585,-18.222c-3.899,-12.3 -6.136,-21.266 -6.289,-30.072c-0.156,-9.058 1.874,-17.961 6.68,-30.113c1.023,-2.588 4.323,-7.597 8.447,-13.284c8.292,-11.434 19.907,-25.773 21.743,-28.194c4.4,-5.81 7.746,-12.646 10.15,-19.834c2.414,-7.215 3.875,-14.786 4.485,-22.052c0.297,-3.534 -0.026,-8.044 -0.771,-13.016c-0.922,-6.148 -2.5,-12.982 -4.428,-19.576c-1.634,-5.577 -3.519,-10.981 -5.475,-15.649c-1.606,-3.833 -3.255,-7.161 -4.851,-9.652c-0.678,-1.058 -1.48,-2.021 -2.336,-2.942c-2.247,-2.416 -4.85,-4.558 -6.963,-7.059c-4.881,-5.774 -10.467,-10.29 -16.668,-13.666c-6.252,-3.404 -13.129,-5.646 -20.526,-6.87c-0.572,-0.096 -1.096,-0.38 -1.489,-0.806c-0.948,-1.022 -1.826,-2.187 -2.634,-3.388c-1.977,-2.937 -3.433,-6.135 -4.549,-7.281c-1.466,-1.506 -2.886,-3.06 -4.419,-4.497c-0.941,-0.883 -1.927,-1.721 -3.003,-2.466l-0.801,-0.424c-0.062,-0.032 -0.123,-0.066 -0.182,-0.104l-0.623,-0.094c0.097,-0.014 0.194,-0.033 0.289,-0.056l-0.173,-0.055l-0.184,-0.055c-0.091,0.017 -0.183,0.029 -0.276,0.038l-0.07,0.066l0.414,0.062c-0.171,0.027 -0.345,0.04 -0.521,0.04l0.107,-0.102l-0.349,-0.053c-0.283,-0.007 -0.565,-0.049 -0.837,-0.127l-0.443,-0.067c0.161,0.078 0.327,0.143 0.498,0.194c0.506,0.1 1.024,0.155 1.024,0.155c-0.348,-0 -0.693,-0.052 -1.024,-0.155c-0.582,-0.11 -1.148,-0.278 -0.899,-0.483l0.077,-0.058c-0.03,-0.009 -0.054,-0.015 -0.073,-0.018c-0.356,-0.057 -0.455,-0.313 -0.536,-0.341c-0.222,-0.078 -0.265,-0.297 -0.392,-0.366c-0.354,-0.192 -0.37,-0.559 -0.509,-0.771Zm2.953,1.746c0.054,0.052 0.1,0.102 0.137,0.147l0.085,-0.017l0.034,-0.008l0.001,-0.054l-0.079,-0.022l-0.178,-0.046Z"/><path d="M414.511,308.485c-1.54,-0.122 -3.032,0.793 -3.574,2.318l-0.77,5.962c-0.075,3.308 1.267,4.351 2.54,4.557c1.174,0.19 3.137,-0.646 4.859,-2.303c0.685,-0.658 1.323,-1.386 1.883,-2.132c1.112,-1.479 1.299,-3.12 1.19,-4.496c-0.04,-0.512 -0.332,-0.92 -0.525,-1.398c-0.498,-1.231 -1.806,-1.941 -3.926,-2.704c-0.587,-0.075 -1.159,-0 -1.677,0.196Z" style="fill-opacity:0.46;"/><path d="M394.359,312.743c-1.54,-0.123 -3.032,0.793 -3.573,2.317l-0.771,5.962c-0.074,3.308 1.268,4.352 2.541,4.558c1.173,0.189 3.136,-0.646 4.859,-2.303c0.684,-0.658 1.322,-1.387 1.883,-2.133c1.112,-1.479 1.298,-3.119 1.19,-4.495c-0.041,-0.512 -0.332,-0.92 -0.526,-1.398c-0.497,-1.232 -1.805,-1.942 -3.925,-2.704c-0.587,-0.076 -1.16,-0 -1.678,0.196Z" style="fill-opacity:0.46;"/><path d="M422.805,288.448c-4.023,-0 -4.975,9.844 -0.362,10.534c5.986,0.895 10.86,-5.587 16.062,-7.922c9.648,-4.331 30.091,-13.522 39.925,-15.355c1.786,-0.333 11.771,-3.192 13.52,-1.552c2.935,2.751 12.583,4.999 16.786,3.921c2.133,-0.548 3.26,-4.967 5.354,-6.042c4.459,-2.289 8.53,1.307 12.342,-0.081c3.655,-1.332 -0.634,-11.484 -3.267,-12.659c-2.642,-1.179 -7.888,3.28 -9.075,2.203c-1.252,-1.136 -1.515,-5.868 -1.271,-7.593c1.029,-7.262 12.634,-25.37 7.352,-31.687c-10.555,-12.622 -8.153,20.353 -14.519,23.193c-1.446,0.645 -1.271,-9.161 -1.271,-10.372c0,-6.951 -1.474,-11.528 -8.802,-13.719c-6.364,-1.902 3.879,19.626 -0.18,23.193c-4.113,3.614 -4.889,-24.31 -13.885,-14.129c-6.168,6.981 16.733,20.774 7.26,34.79c-1.364,2.017 -8.557,1.611 -11.16,2.778c-11.025,4.944 -22.809,9.556 -34.574,12.33c-5.206,1.227 -10.462,2.211 -15.608,3.839c-2.29,0.725 -6.094,5.676 -3.628,4.083" style="fill:#fff;"/><path d="M507.168,238.285c-0.341,-1.552 -0.718,-2.896 -0.717,-3.249c0.016,-3.92 -0.467,-7.153 -1.918,-9.73c-1.509,-2.682 -4.044,-4.743 -8.338,-6.051c-1.125,-0.343 -2.013,-0.233 -2.699,0.053c-0.923,0.385 -1.625,1.148 -1.982,2.352c-0.334,1.125 -0.302,2.901 0.031,5.026c0.432,2.756 1.322,6.232 1.943,9.445c0.162,0.834 0.305,1.648 0.412,2.422c-1.138,-3.582 -2.411,-7.932 -4.195,-10.295c-1.201,-1.59 -2.663,-2.451 -4.25,-2.557c-1.603,-0.107 -3.599,0.593 -5.794,3.042c-2.437,2.714 -2.095,6.221 -0.012,10.281c2.32,4.524 6.981,10.004 8.38,15.88c0.658,2.762 0.462,5.619 -1.415,8.476c-0.239,0.077 -1.094,0.346 -1.704,0.452c-1.742,0.3 -3.819,0.434 -5.506,0.692c-1.189,0.183 -2.223,0.446 -2.978,0.776c-5.47,2.39 -11.125,4.695 -16.871,6.733c-5.698,2.022 -11.484,3.774 -17.262,5.078c-3.142,0.707 -6.301,1.325 -9.445,2.048c-2.16,0.497 -4.312,1.044 -6.448,1.696c-1.791,0.545 -4.29,2.814 -5.601,4.451c-0.837,0.303 -1.596,0.8 -2.261,1.474c-1.468,1.49 -2.491,4.036 -2.589,6.668c-0.162,4.324 2.081,8.316 5.997,8.861c2.545,0.355 4.947,-0.185 7.243,-1.306c3.704,-1.809 7.072,-5.404 10.619,-7.04c5.568,-2.562 14.763,-6.803 23.401,-10.27c6.025,-2.417 11.764,-4.468 15.733,-5.244c1.418,-0.277 8.35,-2.423 11.413,-2.09l0.082,0.012c1.837,1.5 5.314,2.925 8.978,3.734c3.721,0.821 7.594,1.037 9.949,0.413c0.929,-0.245 1.803,-0.806 2.571,-1.664c0.74,-0.825 1.413,-1.978 2.093,-3.074c0.388,-0.626 0.687,-1.294 1.187,-1.556c0.832,-0.434 1.645,-0.558 2.441,-0.535c1.698,0.049 3.337,0.596 4.927,0.831c1.59,0.235 3.141,0.224 4.66,-0.341c2.173,-0.808 3.284,-3.191 2.85,-6.351c-0.341,-2.482 -1.551,-5.476 -2.907,-7.572c-1.012,-1.564 -2.169,-2.643 -3.091,-3.048c-1.221,-0.536 -2.795,-0.484 -4.449,0.063c-1.199,0.396 -2.468,1.028 -3.587,1.555c-0.198,0.093 -0.428,0.191 -0.647,0.28c-0.135,-0.476 -0.285,-1.072 -0.344,-1.545c-0.162,-1.292 -0.189,-2.63 -0.091,-3.354c0.651,-4.737 5.857,-14.144 7.813,-21.795c1.22,-4.773 1.113,-8.953 -1.041,-11.516c-3.728,-4.442 -6.631,-4.203 -8.596,-2.467c-1.131,1 -2.099,2.869 -2.83,5.287c-0.976,3.229 -1.655,7.533 -2.455,11.451c-0.222,1.083 -0.45,2.135 -0.7,3.118Zm18.147,31.527c-0.022,-0.175 0.185,-0.478 0.18,-0.739c-0.029,-1.258 -0.481,-2.797 -1.083,-4.204c-0.422,-0.987 -0.919,-1.912 -1.434,-2.631c-0.279,-0.39 -0.489,-0.747 -0.742,-0.862c-0.194,-0.088 -0.429,0.008 -0.686,0.066c-0.534,0.12 -1.098,0.334 -1.66,0.573c-1.682,0.714 -3.35,1.579 -4.439,1.792c-1.27,0.248 -2.224,-0.085 -2.855,-0.664c-0.661,-0.606 -1.279,-1.79 -1.609,-3.282c-0.473,-2.136 -0.519,-4.957 -0.326,-6.265c0.705,-4.835 6.044,-14.425 8.096,-22.23c0.849,-3.228 1.287,-6.088 -0.163,-7.832c-1.108,-1.329 -1.834,-2.123 -2.571,-2.138c-0.208,-0.004 -0.301,0.22 -0.452,0.422c-0.344,0.461 -0.635,1.074 -0.908,1.788c-1.851,4.838 -2.621,13.523 -4.442,18.624c-0.928,2.599 -2.246,4.37 -3.739,5.038c-1.163,0.521 -2.731,0.273 -3.445,-1.908c-0.76,-2.325 -0.722,-9.286 -0.725,-10.324c-0.013,-3.076 -0.282,-5.636 -1.439,-7.648c-0.977,-1.699 -2.628,-2.921 -5.207,-3.786c0.002,0.535 0.024,1.264 0.115,1.874c0.595,4.006 2.359,9.801 2.774,14.009c0.309,3.146 -0.325,5.575 -1.641,6.749c-1.046,0.932 -2.083,1.04 -3.02,0.802c-0.818,-0.208 -1.727,-0.853 -2.469,-2.088c-1.52,-2.532 -2.819,-9.002 -4.933,-12.781c-0.29,-0.519 -0.594,-0.971 -0.933,-1.312c-0.13,-0.13 -0.236,-0.272 -0.395,-0.28c-0.565,-0.03 -1.035,0.57 -1.796,1.444c-0.431,0.495 -0.482,1.077 -0.379,1.707c0.15,0.915 0.593,1.892 1.155,2.945c2.566,4.805 7.507,10.673 9.113,16.941c1.088,4.246 0.79,8.66 -2.17,13.122c-0.625,0.944 -1.838,1.772 -3.53,2.274c-2.595,0.771 -6.907,0.74 -8.755,1.59c-5.55,2.553 -11.294,5.021 -17.133,7.219c-5.896,2.219 -11.89,4.156 -17.882,5.63c-3.116,0.769 -6.25,1.449 -9.367,2.235c-1.996,0.503 -3.985,1.053 -5.955,1.699c-0.241,0.079 -0.47,0.346 -0.737,0.579c-0.157,0.138 -0.302,0.323 -0.436,0.52c-0.085,1.048 -0.638,2.047 -1.589,2.661c-0.799,0.503 -1.517,0.755 -2.151,0.839c0.237,0.597 -0.826,1.726 -0.737,2.607c0.029,0.278 0.072,0.549 0.159,0.795c0.031,0.088 0.095,0.222 0.131,0.294c1.131,0.139 2.199,-0.167 3.238,-0.65c3.771,-1.749 7.249,-5.291 10.859,-6.869c5.68,-2.486 15.064,-6.596 23.866,-9.944c6.458,-2.456 12.613,-4.501 16.851,-5.252c1.381,-0.244 7.496,-1.876 11.261,-1.993c2.18,-0.068 3.82,0.498 4.596,1.238c1.242,1.185 3.979,2.176 6.798,2.847c2.765,0.658 5.639,1.009 7.441,0.597c0.124,-0.137 0.66,-0.737 0.938,-1.161c0.651,-0.992 1.287,-2.096 1.991,-2.947c0.618,-0.746 1.295,-1.336 2.021,-1.702c1.667,-0.84 3.284,-1.088 4.866,-1.02c1.621,0.07 3.197,0.497 4.728,0.818c0.941,0.198 1.857,0.395 2.756,0.174Z"/><rect id="Censored" x="308.484" y="373.466" width="206.544" height="47.866"/><path d="M518.528,373.466c0,-1.933 -1.567,-3.5 -3.5,-3.5c0,0 -66.416,0.576 -123.926,0.94c-43.906,0.279 -82.618,0.421 -82.618,0.421c-1.182,0 -2.139,0.958 -2.139,2.139l0.108,47.867c-0,1.122 0.909,2.031 2.031,2.031c0,0 38.713,0.016 82.618,0.226c57.51,0.275 123.926,0.846 123.926,0.846c1.714,0 3.103,-1.389 3.103,-3.103l0.397,-47.867Zm-6.971,3.471l0.342,41.319c-13.789,0.115 -70.675,0.58 -120.797,0.819c-37.975,0.182 -72.066,0.219 -80.582,0.225c0,0 0.099,-43.686 0.099,-43.686c8.677,0.034 42.652,0.173 80.483,0.412c49.717,0.315 106.09,0.788 120.455,0.911l-0,-0Z"/></g><path d="M408.693,283.296c-25.575,11.702 17.663,29.898 26.695,15.614c1.41,-2.229 -2.629,-6.904 -3.77,-8.478c-3.873,-5.342 -16.696,-5.798 -23.083,-5.3c-2.379,0.185 -4.308,1.505 -6.279,2.685c-1.005,0.602 -4.073,1.874 -2.906,1.979c0.87,0.078 1.797,-0 2.671,-0" style="fill:#fff;"/><path d="M400.202,285.262c-0.822,0.399 -2.109,0.948 -2.718,1.332c-0.593,0.374 -0.937,0.817 -1.153,1.108c-0.932,1.258 -0.687,2.472 -0.287,3.431c0.215,0.514 0.691,1.288 1.827,1.737c0.568,3.078 2.837,6.021 6.45,8.334c9.429,6.036 27.282,7.887 32.782,-1.209c0.779,-1.21 0.784,-2.864 0.111,-4.64c-0.891,-2.351 -3.032,-5.049 -3.835,-6.2c-1.834,-2.673 -5.49,-4.458 -9.723,-5.535c-3.81,-0.97 -8.092,-1.37 -11.65,-1.451c-0.037,-0.111 -0.081,-0.221 -0.131,-0.329c-0.803,-1.757 -2.882,-2.53 -4.638,-1.727c-3.253,1.652 -5.529,3.402 -7.035,5.149Zm3.674,7.501c0.821,2.537 3.921,4.779 7.643,6.456c7.623,3.434 18.258,4.538 22.154,-1.393c0.112,-0.179 -0.074,-0.394 -0.156,-0.646c-0.185,-0.564 -0.508,-1.155 -0.869,-1.736c-0.962,-1.55 -2.233,-2.996 -2.792,-3.735c-1.407,-1.838 -4.191,-2.761 -7.254,-3.344c-4.795,-0.912 -10.343,-0.694 -13.838,-0.298c-0.616,0.073 -1.165,0.306 -1.701,0.558c-0.539,0.253 -1.052,0.559 -1.555,0.885c0.009,0.094 0.013,0.19 0.013,0.286c-0,1.25 -0.657,2.348 -1.645,2.967Z" style="fill:#fff;"/><g id="pies"><path d="M446.879,556.38c-4.195,-3.744 -38.816,1.689 -33.073,12.604c8.81,16.741 28.978,10.759 37.663,-1.587c4.188,-5.954 2.592,-14.406 -5.063,-14.406"/><path d="M443.063,551.952c-0.221,-0.011 -0.446,-0.018 -0.676,-0.021c-5.333,-0.062 -13.578,1.336 -20.143,3.869c-3.965,1.53 -7.33,3.452 -9.239,5.66c-2.196,2.54 -2.869,5.399 -1.124,8.537c2.85,5.272 6.733,8.417 10.987,10.036c3.169,1.205 6.56,1.55 9.979,1.186c7.928,-0.844 15.938,-5.616 20.875,-12.237c3.345,-4.395 3.794,-10.041 1.876,-13.983c-1.526,-3.138 -4.571,-5.32 -9.192,-5.508c-1.57,0 -2.9,1.036 -3.343,2.461Zm6.907,6.07c-0.128,0.243 -0.288,0.474 -0.479,0.688c-1.226,1.374 -3.295,1.553 -4.734,0.452c-0.531,0.864 -2.729,-0.71 -4.884,-0.737c-4.651,-0.057 -10.807,0.692 -15.913,2.292c-3.166,0.991 -5.94,2.23 -7.517,3.874c-0.932,0.972 -1.352,2.09 -0.711,3.38c2.188,4.273 5.166,6.986 8.574,8.282c2.537,0.965 5.286,1.148 8.009,0.751c6.61,-0.963 13.078,-5.425 16.901,-11.192c1.408,-2.169 1.818,-4.723 1.228,-6.771c-0.108,-0.374 -0.267,-0.716 -0.474,-1.019Z"/><path d="M401.213,563.794c-6.501,-2.592 -46.945,-11.858 -45.782,4.025c1.183,16.157 42.605,22.323 52.374,10.591c4.585,-5.507 -5.707,-18.32 -8.004,-14.085"/><path d="M400.931,560.04c-6.431,-1.851 -23.808,-5.168 -35.291,-3.438c-7.814,1.177 -12.999,4.669 -12.374,11.376c0.661,8.977 12.363,15.507 25.408,17.834c7.78,1.388 15.93,1.407 22.169,-0.318c3.907,-1.08 7.074,-2.87 9.168,-5.247c1.607,-1.816 2.129,-4.211 1.881,-6.779c-0.266,-2.747 -1.579,-5.713 -3.213,-8.113c-1.502,-2.206 -3.359,-3.857 -4.911,-4.649c-0.991,-0.507 -1.961,-0.669 -2.814,-0.666l-0.023,0Zm-4.255,5.857c-5.745,-1.798 -16.544,-4.368 -25.608,-4.551c-4.294,-0.086 -8.185,0.3 -10.802,1.723c-1.736,0.944 -2.791,2.4 -2.67,4.592c0.544,7.473 10.891,12.196 21.791,13.892c10.556,1.642 21.96,0.377 26.211,-4.98c0.348,-0.444 0.394,-1.008 0.389,-1.583c-0.011,-1.226 -0.532,-2.532 -1.185,-3.764c-0.714,-1.345 -1.68,-2.565 -2.64,-3.465c-0.159,-0.149 -0.363,-0.3 -0.564,-0.433c-1.026,0.613 -2.34,0.684 -3.465,0.074c-0.653,-0.354 -1.148,-0.887 -1.457,-1.505Z"/></g><g id="Cara"><path d="M308.431,118.671c0,-3.542 -7.779,-4.897 -9.947,-5.422c-2.826,-0.683 -5.651,-1.013 -8.51,-1.51c-6.475,-1.127 -16.008,-3.75 -21.128,2.4c-1.447,1.739 -2.192,7.683 -1.291,9.71c0.965,2.17 2.764,3.591 3.903,5.583c0.987,1.726 -1.739,2.14 -0.968,3.964c1.496,3.543 6.802,3.781 9.859,4.181c1.001,0.131 3.255,0.719 4.284,0.243c2.327,-1.077 4.758,-5.704 6.603,-7.499c4.064,-3.954 9.194,-6.187 13.468,-9.682c1.068,-0.873 1.583,-2.361 2.378,-3.074"/><path d="M269.369,129.921c-0.158,0.224 -0.289,0.611 -0.433,0.82c-0.298,0.432 -0.506,0.907 -0.606,1.428c-0.114,0.594 -0.077,1.262 0.24,2.038c0.79,1.976 2.411,3.264 4.377,4.103c2.297,0.981 5.13,1.265 7.101,1.568c0.733,0.116 2.089,0.456 3.233,0.522c0.925,0.053 1.757,-0.103 2.375,-0.37c0.769,-0.331 1.555,-0.92 2.341,-1.668c1.843,-1.756 3.695,-4.746 5.151,-6.076c1.139,-1.032 2.368,-1.907 3.627,-2.729c3.333,-2.176 6.885,-3.932 10.046,-6.329c0.375,-0.282 0.7,-0.62 1.016,-0.966l0.121,-0.124c0.155,0.022 0.313,0.033 0.473,0.033c1.932,-0 3.5,-1.569 3.5,-3.5c-0.085,-2.261 -1.345,-4.302 -3.722,-5.661c-2.83,-1.617 -7.346,-2.389 -9.008,-2.726c-0.909,-0.188 -1.813,-0.348 -2.721,-0.484c-2.005,-0.299 -4.007,-0.501 -6.032,-0.785c-4.089,-0.585 -9.338,-1.653 -14.014,-1.056c-3.576,0.457 -6.857,1.784 -9.253,4.793c-0.879,1.089 -1.645,3.43 -1.932,5.853c-0.284,2.401 -0.125,4.837 0.438,6.075c0.348,0.771 0.781,1.465 1.256,2.12c0.777,1.073 1.697,2.015 2.426,3.121Zm33.433,-12.152c-0.055,-0.029 -0.111,-0.054 -0.167,-0.076c-1.916,-0.75 -3.941,-1.217 -4.868,-1.478l-8.267,-1.753c-3.662,-0.751 -8.335,-2.125 -12.589,-1.804c-2.419,0.182 -4.7,0.914 -6.399,2.868c-0.56,0.652 -0.906,2.135 -1.119,3.62c-0.218,1.522 -0.314,3.08 0.03,3.873c0.224,0.511 0.506,0.971 0.817,1.405c0.973,1.358 2.146,2.532 2.985,3.997c0.452,0.778 0.534,1.462 0.476,2.065c-0.054,0.57 -0.268,1.088 -0.585,1.575c-0.138,0.211 -0.399,0.547 -0.577,0.771c0.432,0.732 1.203,1.137 2.029,1.45c1.98,0.749 4.402,0.812 6.082,0.994c0.644,0.067 2.666,0.249 3.052,0.283c0.448,-0.262 0.847,-0.781 1.291,-1.331c1.57,-1.946 3.078,-4.574 4.331,-5.872c1.271,-1.327 2.657,-2.48 4.086,-3.568c3.038,-2.311 6.323,-4.224 9.177,-6.738c0.09,-0.079 0.157,-0.177 0.215,-0.281Z"/><path d="M433.014,194.842c-0.469,2.235 -1.46,5.696 -2.875,8.168c-1.415,2.473 -3.594,4.586 -5.616,6.666c-2.063,2.121 -4.596,3.937 -6.757,6.058c-2.305,2.263 -5.077,4.852 -7.071,7.516c-1.948,2.605 -3.797,5.39 -4.89,8.473c-1.095,3.092 -1.101,6.725 -1.684,10.082c-0.606,3.485 -1.074,7.354 -1.95,10.826c-0.859,3.408 -1.776,7.763 -3.304,10.006c-1.288,1.89 -4.077,2.042 -5.864,3.447c-2.454,1.928 -5.972,6.642 -8.855,8.123c-2.524,1.296 -5.638,0.404 -8.442,0.759c-4.771,0.605 -14.51,2.989 -20.187,2.87c-4.77,-0.1 -10.215,-2.265 -13.877,-3.584c-2.872,-1.034 -5.588,-2.56 -8.094,-4.327c-2.575,-1.814 -5.002,-4.26 -7.352,-6.559c-2.637,-2.582 -6.068,-5.881 -8.474,-8.928c-2.288,-2.896 -4.339,-6.747 -5.964,-9.354c-1.293,-2.075 -3.103,-4.55 -3.783,-6.286c-0.502,-1.281 -0.471,-3.13 -0.298,-4.13c0.132,-0.759 2.081,-1.721 1.339,-1.867c-0.925,-0.182 -4.58,0.708 -6.889,0.774c-2.916,0.084 -7.106,0.243 -10.606,-0.273c-3.623,-0.534 -8.122,-1.569 -11.134,-2.931c-2.63,-1.188 -5.306,-2.91 -6.939,-5.238c-1.633,-2.328 -2.46,-5.689 -2.858,-8.731c-0.578,-4.418 -0.439,-12.779 -0.61,-17.779c-0.138,-4.075 -1.026,-8.195 -0.412,-12.223c0.702,-4.609 2.974,-10.32 4.625,-15.427c2.465,-7.626 7.766,-23.69 10.165,-30.329c1.18,-3.265 1.823,-7.041 4.229,-9.504c3.312,-3.392 10.969,-8.083 15.645,-10.842c3.927,-2.317 8.089,-4.288 12.406,-5.709c4.973,-1.637 11.688,-3.447 17.429,-4.115c5.635,-0.656 11.366,-0.405 17.015,0.107c6.705,0.607 15.677,1.386 23.211,3.537c7.665,2.189 16.197,5.884 22.78,9.596c6.077,3.427 12.514,8.903 16.718,12.679c3.243,2.912 6.567,7.055 8.508,9.976c1.503,2.261 2.197,4.988 3.139,7.546c0.961,2.609 2.098,5.313 2.626,8.108c0.672,3.55 0.633,8.841 1.405,13.195c0.815,4.595 2.895,11.108 3.485,14.379c0.311,1.719 0.419,3.535 0.06,5.245Z" style="fill:#fff;"/><path d="M305.365,235.364c-0.033,0.468 -0.04,0.987 -0.013,1.516c0.05,0.949 0.224,1.924 0.537,2.735c0.264,0.683 0.671,1.465 1.159,2.293c0.833,1.413 1.921,2.986 2.78,4.379c0.993,1.609 2.145,3.69 3.414,5.73c0.839,1.349 1.729,2.679 2.654,3.862c0.995,1.271 2.158,2.584 3.371,3.876c1.777,1.893 3.662,3.738 5.259,5.318c1.413,1.398 2.855,2.848 4.338,4.187c1.068,0.963 2.159,1.868 3.275,2.664c1.325,0.944 2.706,1.824 4.135,2.609c1.459,0.801 2.97,1.5 4.522,2.069c2.308,0.846 5.307,2.018 8.412,2.831c2.091,0.548 4.229,0.929 6.257,0.983c1.856,0.052 4.12,-0.139 6.514,-0.454c5.069,-0.666 10.764,-1.9 14.069,-2.296c1.924,-0.231 3.991,0.141 5.912,-0.036c1.208,-0.112 2.367,-0.399 3.458,-0.95c1.111,-0.561 2.315,-1.496 3.519,-2.61c2.081,-1.926 4.198,-4.467 5.835,-5.736c1.128,-0.874 2.715,-1.144 3.961,-1.828c1.01,-0.555 1.876,-1.272 2.539,-2.23c0.641,-0.928 1.213,-2.144 1.713,-3.519c0.828,-2.279 1.47,-5.054 2.078,-7.397c0.287,-1.104 0.534,-2.246 0.758,-3.404c0.495,-2.552 0.871,-5.184 1.313,-7.627c0.422,-2.323 0.567,-4.78 0.99,-7.095c0.155,-0.851 0.354,-1.679 0.639,-2.463c0.487,-1.342 1.147,-2.612 1.892,-3.834c0.796,-1.307 1.696,-2.554 2.614,-3.762c0.733,-0.964 1.583,-1.912 2.47,-2.839c1.434,-1.497 2.968,-2.93 4.334,-4.251l6.862,-6.063c1.271,-1.288 2.596,-2.591 3.781,-3.977c0.902,-1.055 1.72,-2.16 2.402,-3.33c0.641,-1.1 1.212,-2.37 1.703,-3.666c0.742,-1.959 1.289,-3.979 1.618,-5.488c0.225,-1.12 0.31,-2.272 0.273,-3.426c-0.035,-1.06 -0.162,-2.121 -0.357,-3.153l-3.603,-14.347c-0.611,-3.291 -0.744,-7.137 -1.093,-10.313c-0.115,-1.041 -0.249,-2.019 -0.422,-2.899c-0.246,-1.248 -0.593,-2.479 -1,-3.693c-0.559,-1.671 -1.225,-3.308 -1.829,-4.909c-0.585,-1.555 -1.083,-3.171 -1.718,-4.71c-0.5,-1.212 -1.076,-2.381 -1.806,-3.461c-1.081,-1.601 -2.561,-3.555 -4.222,-5.487c-1.528,-1.779 -3.206,-3.542 -4.862,-5.007c-2.665,-2.357 -6.2,-5.368 -9.98,-8.14c-2.404,-1.762 -4.904,-3.43 -7.347,-4.784c-3.431,-1.901 -7.373,-3.795 -11.451,-5.486c-3.985,-1.653 -8.099,-3.117 -11.994,-4.202c-3.027,-0.843 -6.276,-1.476 -9.525,-1.964c-5.019,-0.753 -10.036,-1.164 -14.193,-1.514c-2.886,-0.243 -5.792,-0.42 -8.696,-0.448c-2.953,-0.03 -5.903,0.09 -8.828,0.447c-2.9,0.354 -6.04,0.987 -9.091,1.747c-3.146,0.784 -6.197,1.699 -8.785,2.567c-2.241,0.752 -4.442,1.644 -6.591,2.655c-2.131,1.002 -4.212,2.118 -6.232,3.325c-2.733,1.627 -6.474,3.914 -9.79,6.221c-2.519,1.753 -4.797,3.524 -6.265,5.04c-0.892,0.921 -1.592,1.983 -2.161,3.138c-1.097,2.225 -1.681,4.817 -2.518,7.162l-10.098,30.426c-1.125,3.493 -2.538,7.267 -3.549,10.781c-0.499,1.736 -0.901,3.412 -1.137,4.968c-0.204,1.331 -0.262,2.67 -0.234,4.015c0.057,2.851 0.516,5.728 0.61,8.582c0.11,3.371 0.079,8.27 0.222,12.459c0.072,2.099 0.188,4.025 0.382,5.518c0.248,1.924 0.663,3.965 1.312,5.832c0.488,1.406 1.111,2.715 1.885,3.826c0.768,1.103 1.732,2.092 2.815,2.969c1.502,1.216 3.238,2.212 4.958,2.996c1.339,0.61 2.952,1.164 4.661,1.641c2.326,0.651 4.832,1.16 7.029,1.49c1.425,0.215 2.959,0.326 4.483,0.375c2.346,0.075 4.668,0.001 6.497,-0.045l3.176,-0.389Zm4.45,0.099c0.283,-0.254 0.807,-0.734 0.97,-0.932c0.335,-0.405 0.491,-0.801 0.556,-1.108c0.132,-0.625 0.023,-1.177 -0.265,-1.661c-0.244,-0.411 -0.673,-0.944 -1.633,-1.128c-0.293,-0.056 -0.733,-0.085 -1.283,-0.041c-1.418,0.111 -4.211,0.742 -6.096,0.805c-1.759,0.056 -3.991,0.143 -6.247,0.085c-1.354,-0.035 -2.716,-0.12 -3.983,-0.303c-1.706,-0.246 -3.613,-0.605 -5.456,-1.061c-1.873,-0.463 -3.681,-1.022 -5.123,-1.668c-1.182,-0.53 -2.377,-1.174 -3.459,-1.949c-1.023,-0.733 -1.95,-1.578 -2.645,-2.563c-0.718,-1.016 -1.246,-2.269 -1.647,-3.595c-0.415,-1.375 -0.69,-2.828 -0.872,-4.209c-0.183,-1.387 -0.291,-3.179 -0.363,-5.13c-0.153,-4.186 -0.134,-9.082 -0.253,-12.452c-0.1,-2.837 -0.566,-5.695 -0.63,-8.53c-0.025,-1.111 0.014,-2.219 0.18,-3.319c0.283,-1.84 0.833,-3.864 1.488,-5.954c0.949,-3.032 2.118,-6.193 3.077,-9.151c1.434,-4.398 3.815,-11.611 6.044,-18.192c1.624,-4.794 3.169,-9.251 4.188,-12.038c0.696,-1.9 1.202,-3.98 1.998,-5.859c0.447,-1.057 0.99,-2.047 1.782,-2.851c1.325,-1.346 3.391,-2.897 5.659,-4.448c3.244,-2.218 6.902,-4.411 9.574,-5.973c1.903,-1.11 3.863,-2.134 5.869,-3.051c1.997,-0.912 4.041,-1.716 6.121,-2.388c2.491,-0.805 5.427,-1.651 8.453,-2.369c2.864,-0.68 5.81,-1.245 8.528,-1.547c2.715,-0.3 5.452,-0.38 8.189,-0.321c2.779,0.06 5.559,0.266 8.318,0.533c4.055,0.394 8.948,0.856 13.839,1.655c3.026,0.494 6.05,1.119 8.864,1.943c3.679,1.076 7.561,2.513 11.317,4.132c3.851,1.661 7.568,3.517 10.799,5.371c2.222,1.275 4.488,2.843 6.668,4.491c3.581,2.71 6.923,5.646 9.442,7.942c1.44,1.313 2.892,2.894 4.216,4.481c1.463,1.756 2.766,3.526 3.715,4.977c0.483,0.738 0.848,1.542 1.174,2.367c0.589,1.489 1.039,3.051 1.58,4.555c0.553,1.537 1.169,3.107 1.679,4.71c0.304,0.956 0.567,1.924 0.745,2.904c0.507,2.798 0.54,6.696 0.915,10.332c0.101,0.972 0.224,1.927 0.379,2.845c0.163,0.961 0.377,2.002 0.62,3.08c0.921,4.082 2.302,8.74 2.748,11.331c0.118,0.685 0.194,1.388 0.205,2.09c0.009,0.615 -0.041,1.228 -0.171,1.822c-0.213,1.056 -0.549,2.417 -1.004,3.794c-0.39,1.182 -0.859,2.383 -1.424,3.388c-0.464,0.827 -1.033,1.605 -1.654,2.355c-1.06,1.279 -2.255,2.48 -3.395,3.671l-6.653,6.053c-1.401,1.397 -2.974,2.917 -4.443,4.5c-1.042,1.123 -2.035,2.276 -2.893,3.441c-1.24,1.686 -2.441,3.441 -3.451,5.29c-0.713,1.306 -1.338,2.656 -1.823,4.06c-0.385,1.114 -0.658,2.284 -0.859,3.489c-0.387,2.324 -0.495,4.786 -0.882,7.117c-0.349,2.093 -0.647,4.324 -1.014,6.524c-0.232,1.394 -0.491,2.775 -0.814,4.096c-0.46,1.88 -0.932,4.056 -1.525,5.988c-0.374,1.215 -0.767,2.328 -1.291,3.109c-0.137,0.204 -0.342,0.33 -0.553,0.45c-1.487,0.844 -3.333,1.314 -4.677,2.385c-1.718,1.37 -3.955,4.072 -6.135,6.146c-0.767,0.731 -1.507,1.383 -2.22,1.755c-0.458,0.239 -0.953,0.344 -1.463,0.398c-1.964,0.208 -4.085,-0.129 -6.051,0.134c-3.315,0.444 -9.02,1.76 -14.104,2.499c-2.089,0.304 -4.064,0.513 -5.687,0.49c-1.652,-0.024 -3.395,-0.331 -5.102,-0.757c-2.946,-0.735 -5.791,-1.821 -7.982,-2.596c-1.324,-0.468 -2.614,-1.049 -3.861,-1.715c-1.268,-0.678 -2.494,-1.441 -3.672,-2.26c-0.976,-0.68 -1.931,-1.458 -2.867,-2.283c-1.444,-1.273 -2.846,-2.655 -4.222,-3.986c-1.576,-1.525 -3.438,-3.305 -5.192,-5.135c-1.125,-1.174 -2.205,-2.369 -3.128,-3.527c-0.837,-1.049 -1.641,-2.233 -2.402,-3.432c-1.284,-2.023 -2.452,-4.087 -3.457,-5.682c-0.857,-1.362 -1.942,-2.897 -2.774,-4.277c-0.354,-0.588 -0.661,-1.139 -0.854,-1.624c-0.158,-0.4 -0.225,-0.886 -0.254,-1.355c-0.026,-0.415 -0.02,-0.821 0.009,-1.163Z"/><path d="M411.848,188.593c-0.887,0.926 -1.231,2.307 -0.772,3.597c1.048,1.817 2.067,2.499 3.069,2.424c0.712,-0.053 1.557,0.092 2.255,-0.535c0.247,-0.221 0.642,-0.38 0.883,-0.791c0.2,-0.341 0.58,-0.823 0.77,-1.548c0.253,-0.962 0.488,-2.403 0.681,-3.085c0.383,-1.198 0.738,-2.36 1.453,-3.318c0.669,-0.898 1.544,-1.625 2.611,-2.166c0.705,-0.259 1.5,0.076 2.271,0.403c1.095,0.462 2.017,1.269 2.766,1.851l1.604,1.708c-0.048,-0.05 -0.234,-0.169 -0.234,-0.169c0,0 0.514,0.676 0.68,0.871c0.761,0.896 1.74,0.793 2.078,0.876c0.424,0.104 0.796,-0.078 1.149,-0.109c0.997,-0.089 1.524,-0.896 2.16,-1.682c0.837,-1.501 0.448,-3.356 -0.837,-4.408c0.086,-0.329 -0.917,-0.635 -1.089,-0.721l-2.621,-1.368c-1.43,-0.592 -3.358,-1.313 -5.254,-1.52c-1.581,-0.174 -3.11,-0.157 -4.381,0.539c-1.683,0.691 -3.001,1.773 -4.232,2.949c-1.199,1.147 -2.216,2.444 -3.148,3.919c-0.327,0.478 -1.593,1.553 -1.862,2.283Zm5.234,0.206c0.248,0.302 0.45,0.653 0.588,1.043c-0.079,-0.49 -0.319,-0.806 -0.588,-1.043Zm12.335,-5.684c-0.106,0.117 -0.205,0.241 -0.26,0.399c0.079,-0.141 0.165,-0.274 0.26,-0.399Zm1.757,-1.238c-0.679,0.136 -1.166,0.453 -1.475,0.906c0.414,-0.428 0.923,-0.735 1.475,-0.906Z"/><path d="M416.943,197.793c-0.669,1.265 -0.516,2.867 0.5,3.988c0.349,0.164 0.421,0.364 0.508,0.393c0.397,0.128 0.509,0.446 0.704,0.46c0.196,0.014 0.295,0.195 0.449,0.184c0.536,-0.038 0.891,0.326 1.226,0.17c0.273,-0.127 0.562,0.041 0.772,-0.124c0.599,-0.469 1.437,-0.37 1.665,-1.059c0.049,-0.147 0.233,-0.191 0.264,-0.349c0.043,-0.222 0.306,-0.331 0.306,-0.579c0,-0.205 0.121,-0.411 0.217,-0.635c0.045,0.043 0.091,0.086 0.139,0.128c1.456,1.269 3.669,1.118 4.938,-0.338c0.127,-0.354 0.477,-0.506 0.508,-0.832c0.019,-0.195 0.197,-0.313 0.189,-0.5c-0.032,-0.761 0.455,-1.422 0.029,-2.054c-0.301,-0.449 -0.245,-1.094 -0.792,-1.444c-0.274,-0.175 -0.411,-0.48 -0.745,-0.62c-0.347,-0.146 -0.672,-0.255 -0.874,-0.342c-1.313,-0.652 -2.141,-1.141 -3.13,-1.158c-1.002,-0.018 -2.086,-0.032 -3.382,0.891c-0.811,0.277 -1.387,0.934 -2.058,1.527c-0.719,0.635 -1.013,1.452 -1.433,2.293Zm6.633,1.119l-0.004,0.09c0.012,-0.035 0.017,-0.069 0.004,-0.09l-0,-0Zm-1.075,-1.399c-0.147,0.153 -0.104,0.412 -0.177,0.625c-0.075,0.218 0.26,0.354 0.295,0.577c-0.005,-0.023 -0.006,-0.047 -0.004,-0.07c-0.099,-0.369 -0.138,-0.751 -0.114,-1.132Zm0.295,0.406l-0.011,0.08c-0.012,0.06 0.001,0.113 0.025,0.164c0.031,-0.085 0.038,-0.168 -0.014,-0.244Zm0.008,-0.146l-0.003,0.083l0.011,-0.004l0.027,-0.007l-0.015,-0.031c-0.005,-0.017 -0.01,-0.033 -0.016,-0.049l-0.005,-0.026l0.001,0.034Zm0.112,-0.372c-0.024,0.005 -0.048,0.01 -0.072,0.015l-0.076,0.013l0.02,0.12l0.011,0.111c0.004,-0.039 0.02,-0.074 0.049,-0.107c0.03,-0.034 0.062,-0.1 0.089,-0.16l-0.021,0.008Zm-0.348,-0.386l0.003,-0.013l-0.026,-0.011l0.023,0.024Zm0.631,-1.39c0.049,-0.066 0.101,-0.13 0.156,-0.194c-0.083,0.044 -0.125,0.115 -0.156,0.194Z"/><path d="M400.543,147.745c-1.115,0.815 -1.941,3.262 -2.495,4.45c-1.688,3.621 -2.951,7.396 -4.138,11.22c-0.463,1.492 -2.253,3.425 -1.73,5.07c0.605,1.904 2.932,1.673 4.342,1.025c0.123,-0.057 1.846,-0.955 1.907,-0.782c0.624,1.751 -0.381,5.225 -0.381,7.121c0,0.976 -0.346,2.251 0.616,2.804c5.231,3.007 11.816,-0.525 17.431,0.297c1.972,0.288 4.081,0.049 6.015,0.405c4.366,0.802 8.774,4.451 12.735,0.377c0.714,-0.735 1.587,-1.449 2.231,-2.238c0.452,-0.555 0.524,-1.365 0.763,-2.023c2.211,-6.092 -1.954,-9.041 -3.492,-14.403c-0.597,-2.08 -0.235,-5.492 -1.907,-7.039c-0.353,-0.326 1.248,-1.591 1.408,-1.807c0.843,-1.133 1.079,-2.543 0.851,-3.965c-0.442,-2.76 -1.557,-3.08 -3.463,-4.531c-0.484,-0.368 -1.286,-1.635 -1.848,-1.807c-2.403,-0.733 -5.807,-0.014 -8.158,0.513c-4.044,0.907 -8.164,1.537 -12.295,1.537c-2.359,0 -5.331,-0.05 -7.542,0.971c-0.924,0.426 -2.844,1.8 -1.085,2.239"/><path d="M396.289,147.747c-0.526,1.069 -0.958,2.272 -1.286,3.028c-0.67,1.545 -1.274,3.111 -1.823,4.698c-0.802,2.317 -1.503,4.668 -2.171,7.041c-0.364,1.283 -1.555,2.905 -1.773,4.391c-0.125,0.844 -0.098,1.67 0.175,2.461c0.618,1.794 1.826,2.807 3.318,3.221c0.938,0.261 2.017,0.26 3.032,0.071c-0.139,1.188 -0.296,2.341 -0.276,3.191c0.019,0.941 -0.087,2.077 0.231,2.94c0.303,0.822 0.807,1.543 1.701,2.034c2.002,1.097 4.13,1.491 6.34,1.461c3.964,-0.053 8.201,-1.664 12.021,-1.17l5.949,0.324c3.3,0.58 6.66,2.564 9.811,2.178c1.623,-0.199 3.228,-0.882 4.76,-2.472l2.35,-2.368c0.267,-0.325 0.472,-0.692 0.633,-1.087c0.2,-0.489 0.296,-1.045 0.472,-1.524c0.772,-2.079 0.9,-3.862 0.691,-5.495c-0.451,-3.518 -2.887,-6.244 -3.968,-10.212c-0.386,-1.433 -0.313,-3.483 -0.755,-5.141c-0.112,-0.42 -0.253,-0.82 -0.426,-1.196c0.229,-0.221 0.427,-0.417 0.471,-0.473c0.659,-0.853 1.072,-1.822 1.296,-2.845c0.206,-0.941 0.217,-1.935 0.076,-2.937c-0.203,-1.469 -0.61,-2.444 -1.098,-3.224c-0.722,-1.154 -1.758,-1.813 -3.228,-2.986c0.026,0.021 0.089,0.068 0.089,0.068c-0,-0 -0.866,-1.077 -1.308,-1.493c-0.483,-0.455 -1.001,-0.715 -1.428,-0.856c-1.247,-0.412 -2.71,-0.527 -4.215,-0.473c-1.87,0.068 -3.812,0.434 -5.346,0.738c-1.946,0.383 -3.907,0.694 -5.877,0.902c-1.926,0.204 -3.859,0.292 -5.792,0.242c-1.54,-0.042 -3.316,-0.085 -5.02,0.089c-1.4,0.144 -2.745,0.469 -3.946,0.982c-0.878,0.375 -2.186,1.28 -2.875,2.107c-0.576,0.692 -0.828,1.452 -0.936,2.111c-0.094,0.579 -0.045,1.136 0.131,1.674Zm31.955,-3.365c-0.812,-0.144 -1.74,-0.061 -2.661,0.06c-1.331,0.174 -2.648,0.51 -3.727,0.782c-2.093,0.527 -4.207,0.975 -6.336,1.313c-2.183,0.347 -4.38,0.56 -6.585,0.618c-1.093,0.029 -2.327,0.051 -3.542,0.192c-0.461,0.053 -0.918,0.128 -1.355,0.239c0.048,1.07 -0.395,2.143 -1.274,2.864c0.728,0.747 -1.271,2.366 -1.671,3.165c-0.85,1.701 -1.606,3.436 -2.296,5.202c-0.708,1.812 -1.357,3.647 -1.986,5.498c-0.22,0.655 -0.598,1.387 -1.033,2.13c-0.075,0.128 -0.163,0.29 -0.253,0.46c0.415,-0.192 1.466,-0.675 1.942,-0.801c2.242,-0.594 3.317,1.037 3.538,1.707c0.284,0.862 0.389,1.984 0.284,3.213c-0.141,1.651 -0.648,3.581 -0.677,4.825c-0.005,0.248 -0.034,0.659 -0.06,0.972c1.021,0.468 2.108,0.645 3.229,0.672c4.151,0.097 8.649,-1.359 12.631,-0.708l6.081,0.486c2.572,0.495 5.141,2.033 7.64,2.281c1.119,0.111 2.209,-0.162 3.259,-1.233l2.112,-2.107l0.421,-1.436c0.658,-1.858 0.575,-3.339 0.139,-4.698c-0.884,-2.751 -2.853,-5.115 -3.845,-8.399c-0.386,-1.267 -0.446,-3.015 -0.781,-4.564c-0.116,-0.532 -0.232,-1.047 -0.59,-1.366c-0.709,-0.631 -1.025,-1.527 -0.672,-2.676c0.169,-0.55 1.423,-1.934 1.787,-2.326c0.181,-0.271 0.276,-0.577 0.332,-0.891c0.07,-0.39 0.039,-0.798 -0.035,-1.208c-0.124,-0.682 -0.281,-1.086 -0.566,-1.386c-0.5,-0.527 -1.188,-0.852 -2.033,-1.465c-0.31,-0.225 -1.062,-1.029 -1.417,-1.415Zm-26.839,-0.526c-0.077,-0.029 -0.16,-0.054 -0.25,-0.073c0.085,0.021 0.169,0.045 0.25,0.073Z"/><path d="M310.075,116.755c1.812,-0.415 4.218,2.384 5.722,3.264c4.88,2.856 10.053,5.144 14.966,7.983c1.479,0.855 2.926,1.772 4.313,2.778c0.369,0.268 1.305,0.991 1.819,0.755c1.324,-0.606 1.946,-3.682 1.555,-4.935c-0.148,-0.478 -0.421,-0.899 -0.675,-1.322c-0.143,-0.239 -0.543,-0.974 -0.411,-0.728c1.086,2.009 4.37,3.149 6.075,4.531c6.328,5.134 12.256,10.603 20.834,11.247c1.322,0.099 4.618,0.991 5.282,-0.539c0.722,-1.663 -1.377,-3.543 -2.464,-4.423c-0.057,-0.047 -1.153,-0.992 -1.204,-0.945c-0.323,0.3 2.789,2.516 2.993,2.643c3.928,2.444 8.273,4.24 12.383,6.338c5.6,2.86 12.292,4.316 18.576,4.316c0.66,-0 1.942,-0.543 1.994,-1.322c0.024,-0.36 0.138,-1.212 -0.058,-1.537c-0.106,-0.175 -1.012,-1.18 -0.646,-0.62c3.284,5.03 11.697,4.898 16.785,3.586c1.11,-0.286 2.45,-0.239 3.433,-0.916c1.252,-0.863 1.491,-1.894 2.054,-3.237c0.085,-0.202 0.077,-1.345 0.265,-1.402c0.832,-0.254 2.028,0.454 2.787,0.674c1.939,0.563 3.824,1.332 5.781,0.728c2.733,-0.844 5.829,-0.257 8.686,-1.133c1.051,-0.322 2.683,-1.174 2.817,-2.535c0.655,-6.689 -6.655,-10.994 -11.913,-13.081c-1.866,-0.74 -3.655,-1.515 -5.635,-1.861c-0.632,-0.11 -1.232,-0.208 -1.848,-0.377c-0.342,-0.094 -1.381,-0.27 -1.028,-0.27c2.054,0 4.084,1.544 6.28,1.079c2.795,-0.591 0.218,-4.829 -0.792,-5.61c-1.413,-1.093 -3.14,-1.697 -4.695,-2.535c-3.199,-1.724 -5.946,-3.698 -9.567,-4.45c-2.281,-0.474 -4.488,-0.286 -6.778,-0.513c-0.365,-0.036 -1.861,0.045 -2.142,-0.216c-0.104,-0.096 2.516,-2.728 2.583,-3.398c0.25,-2.515 -2.784,-5.543 -4.578,-6.932c-3.253,-2.516 -7.429,-2.851 -11.356,-3.29c-1.273,-0.142 -3.436,-0.698 -4.725,-0.269c-1.865,0.62 -3.32,2.16 -5.048,3.02c-0.134,0.067 -1.376,0.823 -1.466,0.782c-0.177,-0.08 -0.49,-1.164 -0.587,-1.348c-0.676,-1.289 -1.465,-2.648 -2.348,-3.803c-1.423,-1.861 -4.917,-3.445 -7.218,-3.884c-5.445,-1.039 -9.313,0.979 -14.174,2.994c-0.635,0.263 -1.504,0.385 -2.024,0.863c-0.4,0.368 -1.439,2.792 -2.348,2.238c-1.684,-1.024 -3.099,-3.796 -4.548,-5.232c-2.776,-2.75 -8.261,-4.409 -12.148,-3.857c-1.994,0.283 -6.529,1.122 -8.011,2.401c-1.923,1.66 -4.258,4.959 -6.515,5.987c-0.708,0.323 -3.385,-1.81 -4.108,-2.131c-2.633,-1.169 -6.83,-0.429 -8.686,1.889c-3.74,4.673 -1.737,10.33 0.909,14.969c1.321,2.315 1.82,4.408 4.255,3.748"/><path d="M320.795,94.975c-0.836,-0.539 -2.158,-1.38 -2.516,-1.543c-1.857,-0.847 -4.271,-1.061 -6.557,-0.618c-2.376,0.46 -4.56,1.664 -5.944,3.357c-2.039,2.491 -2.825,5.216 -2.84,7.981c-0.02,3.644 1.469,7.405 3.308,10.715c0.168,0.303 0.325,0.601 0.474,0.891c-0.168,0.559 -0.197,1.169 -0.057,1.778c0.373,1.63 1.83,2.732 3.436,2.719c-0.046,0.517 1.247,0.691 1.79,1.127c0.801,0.642 1.556,1.24 2.177,1.595l15.073,7.835l4.063,2.55c0.533,0.379 1.757,1.15 2.697,1.319c0.858,0.155 1.647,0.05 2.316,-0.265c1.128,-0.531 2.227,-1.737 2.834,-3.356c0.176,0.117 0.341,0.237 0.494,0.358c3.991,3.175 7.844,6.461 12.217,8.715c3.115,1.605 6.478,2.717 10.305,2.968c1.273,0.083 4.014,0.555 5.582,-0.02c0.859,-0.315 1.545,-0.812 2.022,-1.5c2.793,1.406 5.676,2.661 8.455,4.052c2.991,1.498 6.268,2.627 9.635,3.368c3.339,0.735 6.764,1.097 10.08,1.071c0.753,-0.005 1.937,-0.33 2.79,-0.944c0.101,-0.072 0.198,-0.149 0.29,-0.228c1.111,0.618 2.34,1.075 3.64,1.387c3.967,0.951 8.583,0.551 11.905,-0.329c0.795,-0.21 1.706,-0.26 2.526,-0.506c0.569,-0.171 1.108,-0.408 1.595,-0.748c0.759,-0.528 1.274,-1.095 1.673,-1.716c0.415,-0.643 0.682,-1.354 1.015,-2.174c0.229,0.079 0.44,0.149 0.583,0.19c1.264,0.36 2.51,0.787 3.76,0.943c1.074,0.134 2.15,0.091 3.243,-0.251c2.085,-0.654 4.4,-0.396 6.635,-0.72c0.686,-0.099 1.366,-0.24 2.035,-0.449c0.888,-0.276 2.061,-0.84 2.9,-1.649c0.756,-0.729 1.263,-1.636 1.361,-2.673c0.318,-3.299 -0.901,-6.137 -2.949,-8.495c-2.643,-3.042 -6.722,-5.254 -10.096,-6.605c0.078,-0.288 0.123,-0.592 0.141,-0.907c0.117,-2.104 -1.855,-5.179 -2.829,-5.938c-0.506,-0.393 -1.044,-0.735 -1.602,-1.047c-1.095,-0.613 -2.274,-1.093 -3.367,-1.687c-1.952,-1.062 -3.74,-2.211 -5.653,-3.133c-1.394,-0.672 -2.852,-1.226 -4.465,-1.57c-0.768,-0.164 -1.528,-0.262 -2.287,-0.325c-0.941,-0.079 -1.878,-0.096 -2.822,-0.134c0.343,-0.568 0.493,-1.074 0.524,-1.375c0.156,-1.48 -0.388,-3.118 -1.371,-4.639c-1.126,-1.74 -2.814,-3.341 -4.018,-4.284c-1.518,-1.191 -3.21,-1.978 -4.991,-2.524c-2.408,-0.739 -4.99,-1.01 -7.478,-1.307c-0.923,-0.11 -2.289,-0.418 -3.497,-0.465c-0.823,-0.031 -1.594,0.058 -2.234,0.266c-0.735,0.238 -1.424,0.583 -2.087,0.982c-0.881,0.53 -1.699,1.194 -2.568,1.725c-0.299,-0.554 -0.618,-1.109 -0.953,-1.649c-0.359,-0.578 -0.738,-1.138 -1.133,-1.662c-0.747,-0.992 -1.926,-1.95 -3.284,-2.75c-1.765,-1.041 -3.836,-1.812 -5.419,-2.128c-2.498,-0.5 -4.715,-0.434 -6.834,-0.041c-2.957,0.548 -5.708,1.796 -8.839,3.06c-0.466,0.189 -1.048,0.311 -1.547,0.531c-0.478,0.211 -0.907,0.487 -1.275,0.819c-0.078,0.07 -0.228,0.258 -0.404,0.494c-0.932,-1.208 -1.818,-2.588 -2.708,-3.487c-1.66,-1.68 -4.131,-3.06 -6.788,-3.918c-2.62,-0.847 -5.414,-1.158 -7.735,-0.853c-1.463,0.193 -4.177,0.659 -6.3,1.353c-1.389,0.454 -2.55,1.058 -3.267,1.664c-1.342,1.135 -2.891,3.038 -4.468,4.459c-0.131,0.118 -0.261,0.233 -0.392,0.34Zm35.733,3.965c-0.427,0.624 -1.448,2.054 -2.11,2.472c-1.162,0.734 -2.352,0.744 -3.504,0.058c-0.555,-0.332 -1.097,-0.783 -1.621,-1.317c-1.233,-1.255 -2.345,-3.163 -3.474,-4.261c-1.117,-1.084 -2.799,-1.896 -4.562,-2.426c-1.775,-0.533 -3.655,-0.755 -5.212,-0.517c-0.907,0.139 -2.385,0.41 -3.812,0.791c-1.069,0.286 -2.141,0.552 -2.643,0.994c-1.28,1.129 -2.736,3.015 -4.239,4.426c-0.971,0.913 -1.981,1.648 -2.957,2.105c-0.616,0.289 -1.5,0.445 -2.576,0.159c-1.149,-0.305 -3.418,-1.94 -4.096,-2.233c-0.774,-0.334 -1.779,-0.31 -2.719,-0.108c-0.846,0.182 -1.671,0.531 -2.153,1.146c-1.229,1.571 -1.435,3.31 -1.169,5.025c0.335,2.159 1.388,4.284 2.52,6.216c0.415,0.71 1.254,1.413 1.479,1.953c1.462,0.084 2.772,1.088 3.176,2.578c0.062,0.228 0.1,0.457 0.115,0.684c0.196,0.144 0.382,0.271 0.557,0.376l14.858,8.131l2.842,1.872l-0.107,-0.196c-0.116,-0.198 -0.386,-0.697 -0.463,-0.839l-0.007,-0.013c-6.639,-11.98 -7.362,-16.636 -5.241,-16.074c0.766,-2.006 4.328,1.116 10.626,13.064l0.019,0.033l0.087,0.152c0.237,0.363 0.657,0.631 1.081,0.916c1.407,0.947 3.048,1.758 4.111,2.638c3.632,3.004 7.105,6.149 11.106,8.308c2.421,1.306 5.04,2.249 8.041,2.503c0.228,0.019 0.513,0.061 0.832,0.111c-0.537,-0.43 -1.034,-0.861 -1.304,-1.171c-1.536,-1.768 -0.577,-3.417 0.071,-4.028c0.225,-0.213 1.767,-1.335 3.477,-0.15c0.345,0.239 1.164,0.926 1.216,0.967c0.546,0.433 1.251,1.066 1.889,1.801c0.991,0.614 2.009,1.189 3.044,1.738c2.863,1.52 5.838,2.859 8.696,4.347c2.613,1.361 5.484,2.396 8.438,3.094c2.725,0.645 5.52,1.011 8.249,1.085c-0.25,-0.42 -0.3,-0.704 -0.323,-0.818c-0.163,-0.802 0.097,-1.339 0.305,-1.68c0.361,-0.592 0.9,-0.965 1.645,-1.078c0.262,-0.039 1.041,-0.129 1.86,0.538c0.283,0.23 1.062,1.133 1.191,1.344c0.068,0.11 0.132,0.235 0.188,0.372c1.339,1.256 3.249,1.867 5.237,2.148c2.837,0.4 5.876,0.093 8.172,-0.484l2.745,-0.579c0.296,-0.202 0.475,-0.422 0.611,-0.673c0.223,-0.412 0.385,-0.868 0.591,-1.371c0.039,-0.329 0.141,-1.126 0.236,-1.395c0.334,-0.942 1.01,-1.324 1.489,-1.468c0.585,-0.175 1.249,-0.192 1.938,-0.043c0.727,0.156 1.515,0.556 2.076,0.722c1.048,0.309 2.073,0.701 3.111,0.84c0.478,0.064 0.959,0.071 1.448,-0.077c0.672,-0.204 1.361,-0.341 2.063,-0.431c2.164,-0.278 4.473,-0.012 6.638,-0.666l1.373,-0.748c0.21,-2.108 -0.639,-3.897 -1.943,-5.408c-2.254,-2.613 -5.803,-4.442 -8.666,-5.584c-1.08,-0.431 -2.133,-0.876 -3.216,-1.234l-0.117,-0.037c-0.152,-0.02 -0.304,-0.046 -0.456,-0.076c-0.465,-0.092 -0.922,-0.24 -1.376,-0.397l-0.067,-0.013l-2.038,-0.416c-0.277,-0.076 -0.974,-0.208 -1.155,-0.267c-2.265,-0.74 -1.255,-2.95 -0.865,-3.355c0.11,-0.115 0.513,-0.626 1.529,-0.627c1.055,-0.001 2.11,0.348 3.18,0.672l0.044,0.009c0.57,0.099 1.127,0.229 1.675,0.383c-0.309,-0.66 -0.382,-1.727 -0.667,-1.946c-0.467,-0.359 -0.979,-0.648 -1.503,-0.916c-0.965,-0.493 -1.973,-0.914 -2.919,-1.419c-1.897,-1.013 -3.631,-2.119 -5.49,-2.993c-1.102,-0.518 -2.253,-0.947 -3.525,-1.204c-0.59,-0.119 -1.174,-0.185 -1.756,-0.227c-1.597,-0.115 -3.179,-0.062 -4.804,-0.214c-0.375,-0.035 -1.737,-0.015 -2.34,-0.187c-0.484,-0.137 -0.83,-0.371 -1.063,-0.584c-0.172,-0.157 -1.253,-1.762 0.048,-3.335c0.378,-0.456 1.42,-1.734 1.815,-2.217c-0.09,-0.669 -0.596,-1.342 -1.105,-1.998c-0.828,-1.066 -1.875,-2.005 -2.652,-2.599c-1.081,-0.825 -2.289,-1.345 -3.55,-1.712c-2.157,-0.628 -4.468,-0.805 -6.692,-1.036c-0.737,-0.077 -1.78,-0.296 -2.769,-0.37c-0.349,-0.026 -0.688,-0.06 -0.95,0.03c-0.389,0.132 -0.746,0.333 -1.095,0.55c-1.229,0.766 -2.36,1.742 -3.626,2.383c-0.113,0.058 -0.989,0.593 -1.363,0.77c-1.091,0.517 -1.958,0.159 -2.182,0.06c-0.314,-0.141 -0.795,-0.449 -1.175,-1.078c-0.168,-0.277 -0.49,-1.115 -0.596,-1.398l-2.12,-3.381c-0.531,-0.683 -1.483,-1.262 -2.477,-1.757c-1.11,-0.552 -2.306,-0.959 -3.257,-1.132c-1.793,-0.326 -3.379,-0.249 -4.89,0.059c-2.617,0.534 -5.024,1.735 -7.784,2.908c-0.302,0.128 -0.893,0.329 -1.197,0.43Z"/><path d="M404.753,188.093c-0.446,0.645 -0.848,1.541 -0.748,2.487l-0.23,-0.098c-0.717,-0.283 -1.21,-0.25 -1.297,-0.249c-0.309,0.003 -3.896,2.731 -2.989,4.92c-0.204,-0.031 -0.406,-0.053 -0.606,-0.066c-1.779,-0.124 -2.512,0.847 -2.799,1.197c-0.585,0.715 -0.82,1.54 -0.698,2.478c0.064,0.492 0.265,1.328 1.147,2.076c0.216,0.183 1.241,0.713 1.661,0.923l3.221,1.563c0.489,0.218 1.163,0.544 1.947,0.903c1.807,1.489 3.478,3.259 4.715,4.712c-0.166,-0.055 -0.33,-0.114 -0.493,-0.174c-1.439,-1.156 -3.161,-2.455 -4.838,-3.337c-1.568,-0.822 -3.135,-1.287 -4.516,-1.292c-0.019,-0.001 -2.188,1.54 -2.651,3.25c-0.65,0.418 -0.94,0.963 -1.111,1.358c-0.359,0.832 -0.382,1.741 0.146,2.694c0.132,0.238 0.345,0.54 0.679,0.835c-0.178,0.004 -0.331,0.025 -0.448,0.045c-0.979,0.169 -1.802,0.691 -2.19,1.884c-0.084,0.26 -0.302,0.864 0.013,1.817c0.217,0.656 0.447,1.304 0.686,1.945c-0.647,-0.082 -1.375,0.067 -2.126,0.769c-0.909,0.848 -1.218,1.85 -1.082,2.97c0.07,0.575 0.298,1.225 0.67,1.876c0.301,0.524 0.783,1.064 0.973,1.546l0.411,1.135c-0.313,0.012 -0.589,0.088 -0.817,0.174c-0.554,0.209 -1.06,0.582 -1.389,1.26c-0.07,0.143 -0.529,0.845 -0.078,2.079c0.785,2.15 1.719,4.213 2.651,6.274c-0.193,-0.004 -0.381,0.003 -0.56,0.022l-0.17,0.024c-0.933,-0.155 -1.62,0.399 -1.934,0.68l-0.025,0.025c-0.129,0.085 -0.252,0.178 -0.368,0.277c-0.324,-0.319 -0.654,-0.632 -0.99,-0.938c-0.979,-0.892 -2.432,-2.195 -3.918,-2.937c-0.427,-0.214 -0.859,-0.387 -1.29,-0.517c-0.811,-0.784 -1.651,-1.53 -2.523,-2.235c-1.716,-1.387 -3.551,-2.614 -5.525,-3.64c-1.134,-0.589 -2.975,-1.502 -4.643,-1.728c-1.249,-0.169 -2.438,-0.016 -3.459,0.489c-0.443,0.22 -0.858,0.53 -1.183,0.957c-0.678,-0.379 -1.362,-0.722 -2.042,-1.011c-2.121,-0.902 -4.232,-1.307 -6.157,-1.024c-1.687,-0.923 -3.41,-1.754 -5.175,-2.402c-0.776,-0.285 -2.589,-0.749 -3.974,-0.62c-1.346,0.126 -2.413,0.716 -3.068,1.599c-0.753,-0.405 -1.517,-0.767 -2.284,-1.062c-2.132,-0.823 -4.294,-1.171 -6.373,-0.807c-0.608,0.107 -1.107,0.301 -1.515,0.563c-0.305,-0.148 -0.611,-0.291 -0.919,-0.427c-1.613,-0.712 -3.275,-1.252 -4.974,-1.48c-3.582,-0.479 -4.743,1.267 -5.064,2.722c-0.046,0.205 -0.071,0.428 -0.075,0.665c-1.428,0.064 -2.357,0.577 -2.954,1.157c-0.29,0.281 -0.53,0.604 -0.713,0.963c-0.93,-0.369 -1.855,-0.647 -2.644,-0.713c-1.529,-0.128 -2.757,0.33 -3.586,1.25c-0.816,-0.442 -1.657,-0.837 -2.447,-1.099c-2.254,-0.75 -4.222,-0.419 -5.399,0.804c-0.915,0.95 -1.283,2.401 -0.951,4.079c-0.36,0.192 -0.684,0.462 -0.966,0.802c-0.415,0.501 -0.801,1.495 -0.621,2.81c0.198,1.44 1.085,3.751 1.196,4.173c0.19,0.715 0.385,1.434 0.587,2.153c-0.379,0.24 -0.708,0.597 -0.904,1.135c-0.058,0.157 -0.365,0.812 0.119,1.856c0.265,0.572 0.578,1.115 0.915,1.643c0.343,0.535 0.713,1.054 1.071,1.579l0.049,0.105c0.198,0.448 0.387,0.948 0.721,1.809c1.112,2.871 2.207,7.803 4.076,11.475c1.069,2.101 2.405,3.818 4.006,4.812c0.736,0.457 1.404,0.428 1.972,0.234c0.507,-0.173 1.094,-0.548 1.424,-1.364c0.248,-0.613 0.185,-2.815 0.17,-2.996c-0.03,-0.378 -0.111,-0.822 -0.22,-1.307c1.392,1.799 3.367,4.801 5.504,6.83c1.371,1.301 2.836,2.221 4.254,2.525c0.875,0.187 1.569,-0.055 2.131,-0.572c0.111,-0.104 0.227,-0.232 0.336,-0.389l0.087,0.159c0.694,1.228 2.449,4.435 4.413,6.105c1.506,1.281 3.168,1.752 4.72,1.212c0.706,-0.246 1.248,-0.74 1.577,-1.468c0.04,-0.088 0.075,-0.183 0.103,-0.284c1.013,1.262 2.137,2.315 3.368,3.01c0.997,0.563 1.814,0.574 2.434,0.417c0.919,-0.233 1.672,-0.895 2.053,-2.027c0.547,-1.625 0.031,-4.945 -0.119,-5.585c0.479,0.712 0.961,1.422 1.45,2.127c0.954,1.375 1.932,2.732 2.957,4.051c0.372,0.477 1.31,1.821 2.303,2.469c0.941,0.614 1.949,0.77 2.896,0.429c0.764,-0.275 1.346,-0.851 1.658,-1.717c0.179,-0.497 0.223,-1.175 0.202,-1.836l0.023,0.025c0.452,0.483 1.816,1.983 3.095,2.631c1.201,0.608 2.388,0.607 3.351,0.028c0.476,-0.286 0.91,-0.776 1.064,-1.556c0.071,-0.362 0.001,-0.962 -0.107,-1.545c0.854,0.245 1.664,0.248 2.355,0.007c0.82,-0.286 1.534,-1.015 1.631,-2.282c0.025,-0.334 -0.017,-0.758 -0.087,-1.184c0.924,0.315 1.618,-0.169 1.932,-0.422c0.378,-0.306 0.829,-0.85 0.785,-1.785c-0.002,-0.044 -0.011,-0.1 -0.027,-0.166c1.034,1.233 2.07,2.465 3.194,3.619c0.269,0.275 1.145,1.166 2.022,1.669c0.655,0.375 1.335,0.555 1.925,0.543c0.904,-0.019 1.725,-0.38 2.336,-1.312c0.225,-0.344 0.422,-0.867 0.468,-1.519c0.014,-0.201 0.013,-0.425 -0,-0.657c0.503,0.217 0.995,0.255 1.442,0.182c0.616,-0.1 1.247,-0.403 1.745,-1.164c0.323,-0.493 0.532,-1.241 0.396,-2.154c-0.063,-0.42 -0.224,-0.927 -0.406,-1.407c0.492,-0.23 0.92,-0.649 1.201,-1.324c0.328,-0.786 0.157,-3.128 0.093,-3.556c-0.013,-0.087 -0.028,-0.175 -0.045,-0.264c0.21,0.167 0.42,0.321 0.628,0.457c2.18,1.427 4.287,1.411 5.885,-0.387c0.52,-0.586 0.876,-1.517 0.899,-2.634c0.008,-0.399 -0.025,-0.832 -0.081,-1.258c0.623,0.006 1.242,-0.123 1.843,-0.398c0.88,-0.401 1.522,-1.185 1.728,-2.348c0.094,-0.529 0.041,-1.224 -0.065,-1.895c0.162,-0.142 0.315,-0.308 0.46,-0.499c0.132,-0.176 0.255,-0.39 0.36,-0.639c0.946,-0.402 1.586,-1.121 1.944,-2.006c0.66,-1.636 0.411,-3.772 -0.933,-5.854c0.196,-0.392 0.33,-0.901 0.283,-1.527c-0.043,-0.578 -0.534,-1.767 -0.721,-2.364l-0.292,-0.946c0.655,-0.312 1.224,-0.882 1.566,-1.805c0.476,-1.286 0.002,-4.98 -0.083,-5.536c-0.225,-1.461 -0.554,-2.87 -0.954,-4.246c0.109,0.071 0.218,0.136 0.326,0.198c1.611,0.916 3.172,1.056 4.44,0.597c1.116,-0.405 1.94,-1.281 1.97,-2.82c0.002,-0.087 -0.001,-0.182 -0.011,-0.283c0.578,-0.118 1.128,-0.32 1.641,-0.609c1.367,-0.769 1.972,-2.03 1.742,-3.676c-0.076,-0.544 -0.367,-1.212 -0.721,-1.858c0.394,-0.294 0.682,-0.657 0.896,-1.055c0.241,-0.448 0.411,-1.009 0.381,-1.662c0.541,-0.163 1.054,-0.386 1.532,-0.671c1.456,-0.866 2.057,-2.213 1.865,-3.9c-0.091,-0.8 -0.472,-1.783 -1.034,-2.7c-0.619,-1.01 -1.445,-1.954 -1.591,-2.14l-0.007,-0.009c0.278,-0.112 0.542,-0.244 0.79,-0.394c1.248,-0.758 1.831,-1.903 1.713,-3.407c-0.053,-0.669 -0.389,-1.642 -1.071,-2.583c-0.112,-0.154 -0.235,-0.312 -0.364,-0.466c0.078,-0.062 0.153,-0.127 0.227,-0.194c0.607,-0.554 1.029,-1.303 1.143,-2.264c0.033,-0.275 0.032,-0.603 -0.015,-0.959c0.511,-0.389 0.907,-0.908 1.196,-1.537c0.565,-1.231 0.564,-2.81 -0.373,-4.451c-1.064,-1.864 -4.011,-4.196 -4.786,-4.794l-1.957,-1.309c-0.51,-0.297 -1.818,-0.906 -2.141,-0.955c-1.756,-0.271 -2.776,0.605 -3.354,1.374c-0.428,0.571 -1.406,1.966 -0.141,4.014l0.017,0.026Zm-69.584,40.801c0.082,0.554 -0.019,1.031 -0.113,1.285c-0.351,0.955 -1.404,2.207 -3.441,1.589c-0.535,-0.162 -1.537,-0.755 -2.267,-1.214c0.252,0.406 0.347,0.808 0.378,1.135c0.088,0.946 -0.117,2.071 -1.707,2.662c-0.89,0.331 -2.007,0.297 -3.17,-0.285c-0.951,-0.476 -1.994,-1.421 -2.839,-2.516l-0.156,-0.094l-0.188,-0.109c1.442,1.937 -0.761,3.862 -1.134,3.977c-0.692,0.213 -1.487,0.201 -2.324,-0.128c-1.028,-0.403 -2.29,-1.502 -3.212,-2.862c-0.143,-0.21 -0.276,-0.425 -0.398,-0.644c-0.825,-0.571 -1.877,-1.253 -2.935,-1.782c-0.3,-0.15 -0.682,-0.291 -1.032,-0.406c0.037,0.111 0.076,0.218 0.117,0.313c0.372,0.872 0.878,1.742 1.294,2.402c0.818,0.79 1.472,1.509 1.703,1.757c0.089,0.096 1.581,1.651 1.916,2.406c0.434,0.978 0.234,1.796 -0.045,2.324c-0.48,0.911 -1.175,1.248 -1.839,1.374c-0.544,0.103 -1.169,0.045 -1.813,-0.317c-0.497,-0.28 -1.23,-1.207 -1.714,-1.806c0.591,2.183 1.253,4.376 2.067,6.498c0.387,1.008 0.807,2 1.274,2.966l0.271,0.409c0.263,0.439 0.826,1.575 0.965,1.902c0.119,0.284 0.178,0.544 0.198,0.776c0.483,-0.425 1.119,-0.594 1.915,-0.457c0.374,0.065 0.929,0.287 1.464,0.698c0.615,0.472 1.296,1.219 1.331,1.261l2.673,3.525c1.143,1.433 2.757,3.963 4.567,5.955l0.089,0.097c-0.237,-1.335 -0.452,-2.601 -0.467,-2.868c-0.03,-0.526 -0.226,-1.545 -0.139,-2.007c0.121,-0.645 0.439,-1.093 0.792,-1.391c0.509,-0.431 1.202,-0.742 2.197,-0.43c0.526,0.164 1.172,0.599 1.666,1.389c0.585,0.936 1.096,2.727 1.166,2.888l1.231,2.666l1.758,3.245c0.427,0.764 1.31,2.454 2.409,3.853c0.133,0.169 0.269,0.334 0.407,0.491c-0.106,-0.418 -0.227,-0.836 -0.357,-1.252c-0.619,-1.981 -1.429,-3.938 -2.02,-5.884l-0.642,-2.249c-0.083,-0.437 -0.234,-1.308 -0.169,-1.703c0.101,-0.609 0.396,-1.032 0.719,-1.316c0.485,-0.428 1.151,-0.743 2.116,-0.437c0.37,0.117 0.89,0.406 1.341,1.016c0.687,0.93 1.673,3.621 1.699,3.674c1.022,2.081 2.237,4.994 3.809,7.446c0.52,0.811 1.073,1.575 1.679,2.214c-0.038,-0.672 -0.082,-1.302 -0.117,-1.447l-1.536,-5.241c-0.365,-1.121 -1.116,-2.624 -1.502,-4.041c-0.237,-0.871 -0.349,-1.722 -0.285,-2.489c0.087,-1.033 0.665,-1.564 1.48,-1.793c0.272,-0.076 0.869,-0.222 1.604,0.214c0.083,0.049 0.264,0.171 0.486,0.376c0.443,0.409 1.499,1.529 1.541,1.583l2.877,4.174c1.368,2.023 2.707,4.074 4.099,6.085c0.668,0.965 1.349,1.921 2.051,2.86c-0.207,-0.733 -0.435,-1.461 -0.677,-2.186c-0.672,-2.02 -1.441,-4.014 -2.137,-6.001c-0.061,-0.174 -0.524,-1.166 -0.709,-2.013c-0.153,-0.704 -0.127,-1.361 0.021,-1.837c0.317,-1.016 0.977,-1.31 1.368,-1.442c0.616,-0.208 1.307,-0.186 1.985,0.363c0.187,0.151 0.443,0.418 0.651,0.838c0.2,0.402 0.447,1.336 0.63,1.738l0.853,1.83c0.156,0.313 0.313,0.625 0.473,0.937c0.177,-0.322 0.413,-0.518 0.584,-0.647c0.534,-0.404 1.213,-0.602 2.044,-0.26c0.214,0.089 1.28,1.193 1.28,1.193c-0,0 -0.053,-0.059 -0.076,-0.082l2.112,1.971c0.572,0.518 1.62,1.69 2.777,2.715c-0.147,-0.357 -0.313,-0.709 -0.489,-1.056c-0.607,-1.193 -1.342,-2.333 -2.011,-3.457c-0.397,-0.667 -1.036,-1.356 -1.341,-2.068c-0.302,-0.706 -0.397,-1.436 -0.225,-2.189c0.367,-1.61 1.418,-1.878 2.292,-1.848c0.419,0.014 0.988,0.161 1.549,0.644l0.073,0.068l0.023,-0.036c0.459,-0.668 1.459,-1.362 2.943,-0.725c1.037,0.446 3.387,2.544 3.534,2.68c0.848,0.787 1.639,1.623 2.405,2.483c1.246,1.401 2.417,2.868 3.664,4.268c-0.166,-0.525 -0.345,-1.048 -0.535,-1.568c-0.662,-1.817 -1.447,-3.596 -2.245,-5.32l-0.975,-1.949c-0.233,-0.472 -0.825,-1.603 -0.865,-1.896c-0.131,-0.963 0.298,-1.563 0.689,-1.921c0.249,-0.228 0.735,-0.629 1.446,-0.617c-0.045,-0.519 0.123,-0.839 0.157,-0.928c0.31,-0.816 0.89,-1.208 1.57,-1.366c0.385,-0.09 0.921,-0.125 1.543,0.206c0.12,0.064 0.428,0.231 0.739,0.634c0.114,0.148 0.475,0.727 0.634,0.951l0.119,0.179l-0.024,-0.103c-0.229,-1.036 -0.299,-2.03 -0.171,-2.946c0.134,-0.966 0.658,-1.395 1.008,-1.632c0.588,-0.398 1.273,-0.535 2.059,-0.259c0.272,0.096 0.667,0.295 1.034,0.718c0.159,0.184 0.414,0.648 0.561,0.844l1.405,1.961c0.4,0.534 1.615,2.339 3.022,3.794c0.226,0.234 0.537,0.492 0.838,0.723c-0.058,-0.375 -0.121,-0.722 -0.167,-0.88c-0.314,-1.069 -0.685,-2.214 -1.119,-3.363c-0.979,-1.367 -1.768,-2.738 -2.198,-3.441l-1.242,-2.551c-0.141,-0.403 -0.345,-1.434 -0.329,-1.684l0.001,-0.007l-0.581,-0.617c-0.141,0.095 -0.29,0.181 -0.447,0.26c-0.628,0.317 -1.491,0.492 -2.396,0.426c-0.934,-0.069 -1.894,-0.412 -2.342,-0.656c-0.474,-0.258 -1.145,-0.779 -1.832,-1.444c-0.073,0.005 -0.148,0.007 -0.224,0.007c-1.569,0.006 -3.385,-0.719 -5.141,-2.012c-0.809,-0.596 -1.62,-1.318 -2.395,-2.075c-0.07,0.05 -0.143,0.099 -0.221,0.147c-0.655,0.403 -1.618,0.645 -2.766,0.435c-1.258,-0.231 -3.138,-1.27 -3.395,-1.4c-1.232,-0.626 -2.436,-1.288 -3.606,-2.009c-0.504,-0.311 -1.002,-0.633 -1.492,-0.969c0.059,0.315 0.061,0.607 0.034,0.863c-0.106,1.012 -0.568,2.111 -2.256,2.53c-0.84,0.209 -1.81,0.119 -2.783,-0.289c-0.995,-0.416 -2.048,-1.264 -2.625,-1.682c-1.196,-0.867 -2.366,-1.821 -3.457,-2.86c-0.932,-0.889 -1.805,-1.841 -2.587,-2.856l-0.111,-0.082l-0.223,-0.162c0.042,0.393 -0,0.753 -0.084,1.066c-0.235,0.879 -0.792,1.739 -2.186,2.052c-1.575,0.354 -3.272,0.043 -4.855,-0.744c-1.753,-0.872 -3.353,-2.342 -4.368,-3.706Zm20.113,0.826l-0.026,-0.044l-0.183,-0.105l0.209,0.149Zm-21.439,-2.855l0.085,0.059c0.126,0.093 0.241,0.189 0.344,0.288l-0.05,-0.143l-0.379,-0.204Z" style="fill-opacity:0.85;"/></g><g><g id="Ojos"><path d="M282.845,193.803c1.542,0.571 3.647,-0.129 5.213,-1.533l0.021,-0.019c1.001,-0.737 1.795,-1.662 2.143,-2.614c0.513,-1.264 0.359,-2.289 -0.037,-3.114c0.693,-0.629 1.232,-1.406 1.707,-2.227c0.922,-1.595 1.226,-3.572 1.411,-5.303c0,-1.932 -1.568,-3.5 -3.5,-3.5c-1.931,-0 -3.5,1.568 -3.5,3.5c0.082,0.766 0.245,1.628 0.07,2.435c-0.093,0.432 -0.047,0.939 -0.427,1.203c-1.747,1.176 -4.714,1.726 -5.926,3.36c-0.796,1.072 -1.363,2.43 -0.801,4.432c0.542,2.148 1.916,3.165 3.626,3.38Z"/><path d="M341.605,187.833c-0.126,0.177 -0.241,0.373 -0.34,0.593c-0.937,1.968 -0.461,3.672 1.102,5.068c0.242,0.216 0.515,0.422 0.81,0.617c0.416,0.845 1.151,1.831 2.687,1.813c0.311,-0.004 0.739,-0.037 1.193,-0.119c1.238,0.349 2.354,0.503 2.958,0.416c0.622,-0.057 1.665,-0.253 2.401,-0.651c0.733,-0.395 1.173,-1.05 1.44,-1.81c0.474,-1.326 0.154,-2.482 -0.401,-3.568c-0.981,-1.918 -4.313,-3.348 -5.661,-4.679c0.028,-0.177 0.042,-0.358 0.042,-0.543c-0,-1.932 -1.568,-3.5 -3.5,-3.5c-1.406,0.166 -2.344,0.563 -2.852,1.32c-0.311,0.463 -0.69,0.91 -0.766,1.521c-0.083,0.662 -0.244,1.727 0.403,2.804c0.136,0.225 0.302,0.469 0.484,0.718Z"/><path d="M280.161,175.591c-0.332,-0.106 -0.686,-0.162 -1.054,-0.162c-1.932,-0 -3.5,1.568 -3.5,3.5c0.327,1.717 0.754,2.766 1.608,3.192c0.46,0.229 0.846,0.603 1.387,0.63c0.733,0.036 1.79,0.26 2.872,-0.519c1.456,-1.049 4.049,-4.568 6.197,-7.204c0.424,-0.52 0.839,-0.979 1.202,-1.357c0.611,0.43 1.362,1.016 2.033,1.637c-0.264,1.086 -0.003,2.28 0.801,3.172c1.294,1.434 3.509,1.548 4.943,0.254c0.802,-1.082 1.46,-1.932 1.333,-2.962c-0.057,-0.458 0.026,-0.931 -0.187,-1.378c-0.25,-0.529 -0.426,-1.165 -0.963,-1.676c-1.491,-1.419 -5.03,-2.919 -6.695,-3.458c-1.777,-0.574 -2.998,0.129 -2.999,0.13c-0.163,0.167 -0.627,0.813 -1.363,1.635c-0.539,0.601 -1.245,1.297 -2.027,1.996c-0.867,0.777 -1.83,1.508 -2.751,2.161c-0.247,0.175 -0.54,0.304 -0.837,0.409Zm2.432,3.03c0.01,0.102 0.014,0.204 0.014,0.308c0.021,-0.112 0.012,-0.214 -0.014,-0.308Zm8.807,-2.776l0.018,0.192c0.003,0.046 0.042,0.094 0.095,0.141c-0.031,-0.11 -0.065,-0.23 -0.113,-0.333Zm0.416,-2.168c0.047,-0.048 0.095,-0.095 0.146,-0.14c-0.063,0.036 -0.109,0.085 -0.146,0.14Z"/><path d="M340.97,182.479c-0.236,-0.912 -0.493,-2.051 -0.688,-2.964c0.159,-0.019 0.317,-0.024 0.458,0.007c0.635,0.139 1.273,0.421 1.917,0.714c1.281,0.584 2.421,1.336 3.274,1.91c0.122,0.142 0.257,0.275 0.404,0.398c0.272,0.227 0.568,0.406 0.879,0.537c0.502,0.361 0.779,0.409 0.897,0.245c1.151,0.156 2.355,-0.266 3.154,-1.222c0.029,-0.061 2.363,-4.851 -1.412,-5.48c-0.196,-0.032 -0.571,-0.108 -1.128,-0.196c-1.296,-0.206 -3.33,-0.526 -5.376,-0.737c-0.777,-0.081 -1.525,-0.165 -2.225,-0.249c-2.1,-0.253 -3.79,-0.01 -4.679,0.716c-0.148,0.101 -0.412,0.509 -0.678,0.989c-0.218,0.393 -0.244,0.909 -0.265,1.065c-0.211,1.083 -0.753,4.517 -0.913,5.989c-0.105,0.968 0.284,1.569 0.356,1.843c0.237,0.903 1.042,1.118 1.432,1.469c0.196,0.176 0.468,0.162 0.679,0.284c0.897,0.517 1.81,-0.013 2.975,-0.452c1.602,-1.08 2.025,-3.257 0.945,-4.858l-0.006,-0.008Zm0.054,0.205c0.084,0.323 0.165,0.61 0.239,0.839c0.016,0.052 0.09,0.099 0.09,0.099c0,0 -0.13,-0.701 -0.245,-0.833l-0.084,-0.105Zm-4.048,-1.563c-0.309,0.058 -0.612,0.153 -0.859,0.421c0.273,-0.184 0.561,-0.324 0.859,-0.421Zm1.897,-0.084c-0.367,-0.144 -0.723,-0.198 -1.098,-0.08c0.369,-0.031 0.74,-0.004 1.098,0.08Z"/></g><g id="Lentes"><path d="M423.442,175.959c-0.63,-0.454 -2.152,-0.167 -2.882,-0.167c-2.054,-0 -4.424,-0.06 -6.469,-0.366c-8.262,-1.235 -16.67,-0.885 -25.061,-1.064c-3.503,-0.075 -8.889,0.879 -12.273,-0.333" style="fill:#fff;fill-opacity:0.45;"/><path d="M422.282,179.261c1.426,0.502 3.072,0.033 4,-1.256c1.129,-1.567 0.774,-3.757 -0.794,-4.886c-0.55,-0.327 -1.184,-0.686 -1.974,-0.759c-0.943,-0.086 -2.239,0.128 -2.954,0.191c-0.985,0.084 -2.035,0.174 -3.099,0.21c-1.015,0.033 -2.022,0.049 -2.969,-0.018c-3.609,-0.329 -7.207,-0.288 -10.834,-0.296c-2.358,-0.004 -4.72,-0.013 -7.085,-0.085c-2.502,-0.077 -4.992,-0.289 -7.491,-0.475c-2.09,-0.209 -4.854,-0.092 -7.467,-0.298c-1.371,-0.108 -2.652,-0.38 -3.678,-0.855c-1.819,-0.651 -3.824,0.297 -4.475,2.116c-0.651,1.818 0.297,3.823 2.116,4.475c1.395,0.361 2.986,0.541 4.693,0.464c2.976,-0.134 6.26,-0.81 8.706,-0.952c2.528,-0.08 5.043,-0.267 7.571,-0.324c1.664,-0.038 3.329,-0.027 4.99,0.036c2.062,0.079 4.113,0.255 6.156,0.504c2.019,0.246 4.006,0.622 5.996,1.056c0.889,0.205 1.834,0.35 2.798,0.489c1.38,0.199 2.778,0.327 4.072,0.435c0.39,0.034 1.456,0.582 1.722,0.228Z"/><path d="M373.948,171.567c-0.413,0 0.591,0.578 0.85,0.899c0.444,0.549 0.747,1.267 1.072,1.896c1.104,2.133 1.553,4.595 1.553,6.987c-0,7.098 -3.271,13.533 -8.612,18.33c-10.224,9.183 -23.923,12.091 -37.113,8.25c-5.374,-1.565 -9.996,-3.723 -12.974,-8.749c-2.355,-3.973 -2.473,-9.236 -1.996,-13.673c1.031,-9.587 5.886,-19.387 15.451,-23.154c7.045,-2.775 15.336,-1.632 22.622,-0.599c6.532,0.925 10.447,4.053 15.377,7.951c0.711,0.562 4.509,2.571 4.509,3.393" style="fill:#fff;fill-opacity:0.45;"/><path d="M376.407,169.078l-0.107,-0.101c-0.672,-0.583 -1.463,-0.887 -2.352,-0.91l-0.091,0.005c-0.717,-0.437 -1.336,-0.805 -1.597,-1.001c-3.255,-2.452 -6.106,-4.598 -9.408,-6.101c-2.265,-1.031 -4.723,-1.795 -7.637,-2.142c-4.527,-0.543 -9.425,-1.111 -14.181,-0.843c-3.379,0.191 -6.688,0.776 -9.765,2.058c-5.234,2.161 -9.17,5.924 -11.908,10.498c-2.655,4.435 -4.203,9.617 -4.694,14.745c-0.29,2.839 -0.333,5.991 0.199,8.975c0.378,2.117 1.041,4.152 2.107,5.956c1.318,2.243 2.933,3.974 4.768,5.371c2.685,2.044 5.865,3.349 9.357,4.399c6.94,2.123 14.033,2.423 20.767,1.063c6.814,-1.377 13.255,-4.49 18.812,-9.293c2.998,-2.583 5.407,-5.646 7.127,-9.019c1.781,-3.493 2.773,-7.338 2.865,-11.389c0.034,-1.423 -0.085,-2.866 -0.349,-4.278c-0.279,-1.486 -0.756,-2.926 -1.416,-4.278c-0.245,-0.503 -0.486,-1.049 -0.769,-1.551c-0.191,-0.339 -0.41,-0.655 -0.639,-0.953c-0.21,-0.273 -0.736,-1.254 -1.089,-1.211Zm-4.63,5.964c-0.931,0.538 -3.175,-2.282 -3.682,-2.703c-2.747,-2.278 -5.122,-4.317 -7.95,-5.764c-1.694,-0.866 -3.545,-1.532 -5.759,-1.896c-4.191,-0.686 -8.724,-1.445 -13.161,-1.376c-2.797,0.044 -5.554,0.4 -8.136,1.36c-4.304,1.614 -7.585,4.587 -9.911,8.236c-2.434,3.82 -3.855,8.348 -4.389,12.83c-0.236,2.076 -0.348,4.346 -0.106,6.564c0.226,2.077 0.758,4.107 1.791,5.849c1.314,2.197 2.985,3.767 4.92,4.95c2.054,1.256 4.397,2.076 6.903,2.779c6.237,1.724 12.573,1.871 18.535,0.463c5.909,-1.396 11.422,-4.356 16.112,-8.733c2.324,-2.176 4.176,-4.708 5.44,-7.479c1.241,-2.72 1.862,-5.684 1.792,-8.773c-0.023,-0.969 -0.149,-1.947 -0.374,-2.898c-0.191,-0.808 -0.48,-1.589 -0.861,-2.321c-0.467,-0.269 -0.865,-0.642 -1.164,-1.088Z"/><path d="M323.233,172.998c0.671,-0.12 -1.738,-1.364 -1.996,-1.464c-1.509,-0.584 -3.16,-1.081 -4.768,-1.297c-3.074,-0.414 -6.849,-0.394 -9.907,0.133c-1.053,0.182 -1.899,0.307 -2.883,0.699c-0.247,0.098 -1.515,0.725 -1.515,0.531" style="fill:#fff;fill-opacity:0.45;"/><path d="M302.458,168.114c-0.097,-0.01 -0.195,-0.014 -0.294,-0.014l-0.029,0.001c-0.242,-0.013 -0.532,-0.016 -0.668,0.069c-1.598,0.323 -2.803,1.737 -2.803,3.43c0.26,1.248 0.391,2.348 1.424,2.827c0.379,0.176 0.707,0.56 1.236,0.587c0.387,0.019 0.981,0.306 1.692,0.007c0.46,-0.194 1.586,-0.832 1.842,-0.996c0.316,-0.196 0.56,-0.41 0.87,-0.537c0.413,-0.17 0.815,-0.325 1.287,-0.491c1.394,-0.417 2.918,-0.864 4.519,-0.98c0.786,-0.057 1.579,-0.029 2.346,0.046c0.801,0.077 1.559,0.263 2.287,0.424c0.69,0.186 1.354,0.459 2.025,0.758c0.625,0.278 1.189,0.627 1.759,0.967c0.575,1.562 2.205,2.535 3.899,2.231c1.55,-0.59 2.397,-1.179 2.618,-1.981c0.15,-0.546 0.474,-1.048 0.351,-1.635c-0.12,-0.57 -0.036,-1.41 -0.734,-2.063c-0.265,-0.248 -0.59,-0.734 -1.215,-1.021c-0.902,-0.414 -2.311,-0.963 -2.549,-1.008c-0.9,-0.188 -1.793,-0.366 -2.732,-0.486c-0.954,-0.12 -1.882,-0.259 -2.817,-0.263l-10.662,-0.242c-0.738,0.001 -1.356,0.034 -2.015,0.08c-0.526,0.037 -1.022,0.171 -1.594,0.288l-0.043,0.002Zm3.171,2.997c0.023,0.159 0.035,0.323 0.035,0.489c0.036,-0.172 0.005,-0.333 -0.035,-0.489Zm15.179,-0.636c-0.163,0.134 -0.291,0.286 -0.394,0.452c0.118,-0.161 0.25,-0.312 0.394,-0.452Zm-15.777,-0.879c0.225,0.32 0.398,0.68 0.505,1.067c-0.032,-0.432 -0.231,-0.765 -0.505,-1.067Zm16.687,0.247c0.278,-0.134 0.579,-0.233 0.898,-0.29c-0.376,-0.004 -0.66,0.131 -0.898,0.29Zm-17.864,-1.307l0.008,0.004l-0.008,-0.004Zm-0.103,-0.054l0.063,0.032l-0.041,-0.022l-0.022,-0.01Z"/><path d="M305.048,171.401c2.346,0 3.076,2.542 4.139,4.093c3.507,5.119 3.62,12.482 0.554,17.73c-7.806,13.365 -28.498,17.036 -41.103,9.183c-3.806,-2.372 -6.256,-6.279 -8.798,-9.814c-1.337,-1.86 -4.156,-2.982 -4.879,-5.224c-1.174,-3.637 0.517,-8.357 1.737,-11.743c0.819,-2.272 1.326,-4.965 2.699,-6.986c1.896,-2.791 4.298,-6.092 7.356,-7.685c7.299,-3.805 16.45,-0.062 23.434,2.495c4.187,1.533 8.607,3.644 12.384,6.022c0.436,0.275 3.364,1.447 3.364,1.83" style="fill:#fff;fill-opacity:0.45;"/><path d="M308.697,169.112c-0.25,-0.334 -0.583,-0.66 -1.028,-0.952c-0.772,-0.505 -2.908,-1.336 -3.289,-1.562c-2.022,-1.201 -4.205,-2.333 -6.445,-3.349c-2.223,-1.008 -4.491,-1.914 -6.699,-2.662c-4.409,-1.497 -9.638,-3.393 -14.743,-3.816c-3.799,-0.315 -7.533,0.124 -10.895,1.968c-1.442,0.785 -2.77,1.873 -3.964,3.138c-1.594,1.689 -2.97,3.671 -4.144,5.467c-0.491,0.751 -0.894,1.569 -1.231,2.43c-0.653,1.664 -1.064,3.488 -1.623,5.109c-0.742,2.147 -1.641,4.799 -1.989,7.401c-0.267,1.994 -0.224,3.962 0.359,5.716c0.327,0.987 0.91,1.837 1.654,2.596c1.097,1.12 2.664,1.968 3.539,3.177c1.559,2.188 3.093,4.505 4.904,6.547c1.302,1.469 2.747,2.797 4.429,3.862c6.722,4.317 15.657,5.535 23.995,3.94c8.481,-1.623 16.29,-6.215 20.714,-13.438c1.885,-3.063 2.811,-6.78 2.795,-10.494c-0.016,-3.749 -1.073,-7.477 -3.09,-10.587c-0.901,-1.389 -1.739,-3.275 -3.084,-4.363l-0.165,-0.128Zm-6.429,4.415c-0.664,-0.452 -1.33,-1.064 -1.507,-1.182c-1.758,-1.172 -3.664,-2.293 -5.629,-3.306c-1.982,-1.021 -4.011,-1.945 -5.993,-2.726c-3.941,-1.55 -8.59,-3.572 -13.212,-4.164c-2.761,-0.354 -5.51,-0.219 -8.019,1.022c-1.02,0.507 -1.955,1.244 -2.814,2.091c-1.45,1.43 -2.705,3.135 -3.79,4.673c-0.461,0.652 -0.809,1.395 -1.105,2.169c-0.539,1.415 -0.932,2.916 -1.438,4.265c-0.709,1.889 -1.604,4.214 -1.964,6.518c-0.21,1.337 -0.253,2.665 0.118,3.852c0.124,0.393 0.378,0.716 0.67,1.02c1.22,1.271 2.922,2.289 3.897,3.654c1.492,2.058 2.944,4.252 4.679,6.165c1.056,1.166 2.224,2.22 3.583,3.054c5.9,3.564 13.654,4.397 20.795,2.773c6.942,-1.58 13.307,-5.538 16.702,-11.641c1.214,-2.192 1.715,-4.814 1.579,-7.398c-0.131,-2.505 -0.939,-4.971 -2.392,-6.982c-0.547,-0.756 -2.174,-1.708 -1.853,-2.515c-0.938,-0.127 -1.758,-0.625 -2.307,-1.342Z"/></g></g><g id="Boca"><path d="M328.047,242.825c0.716,-0.092 0.91,0.691 1.21,1.261c0.757,1.438 0.659,2.77 0.659,4.358c-0,0.775 -0.49,1.638 0.424,1.93c3.831,1.227 4.681,-3.839 3.016,-6.173c-0.542,-0.76 -1.624,-1.59 -2.548,-1.797c-0.345,-0.077 -1.656,0.01 -1.656,-0.306"/><path d="M326.715,239.588c-1.428,0.587 -2.345,2.077 -2.14,3.681c0.177,1.378 1.133,2.466 2.369,2.878c0.071,0.104 0.127,0.214 0.16,0.339c0.162,0.623 0.261,1.251 0.368,1.958c0.102,0.852 -0.051,1.787 0.285,2.392c0.361,0.651 0.794,1.393 1.917,1.621c1.503,0.378 2.696,0.234 3.649,-0.242c0.792,-0.396 1.415,-0.995 1.937,-1.73c1.474,-2.078 1.507,-5.547 0.238,-7.811c-0.388,-0.793 -1.172,-1.535 -1.95,-2.241c-0.626,-0.568 -1.382,-0.845 -2.047,-1.122c-0.194,-0.083 -0.855,-0.55 -1.219,-0.525c-0.355,-0.122 -0.735,-0.188 -1.13,-0.188c-0.948,0 -1.808,0.377 -2.437,0.99Zm1.524,6.73c0.083,0.009 0.167,0.006 0.252,-0.022c-0.084,0.011 -0.168,0.019 -0.252,0.022Zm4.099,-5.667c0.202,0.441 0.314,0.931 0.314,1.447c0.106,-0.533 -0.025,-1 -0.314,-1.447Z"/><path d="M336.372,236.575c0.319,-0.29 -0.85,-0.201 -1.232,-0.402c-0.686,-0.361 -1.164,-0.934 -1.805,-1.357c-2.37,-1.563 -5.316,-1.273 -7.645,0.153c-0.358,0.22 -1.321,0.578 -1.466,1.033c-0.755,2.371 1.46,5.148 3.674,5.81c1.109,0.331 2.391,-0.248 3.526,-0.057c3.068,0.516 3.791,3.587 3.419,6.249c-0.815,5.831 -7.355,-1.088 -10.045,3.747c-0.339,0.61 -0.425,1.238 -0.425,1.93c0,0.725 -0.054,1.432 0.212,2.121c1.644,4.253 7.695,4.609 10.746,1.434c1.557,-1.62 2.852,-4.681 4.906,-5.676c1.914,-0.928 3.662,-0.214 5.628,0.038c0.599,0.077 1.932,0.777 1.932,-0.172" style="fill:#fff;"/><path d="M332.624,248.31c-0.273,-0.339 -1.155,0.051 -1.796,-0.07c-1.671,-0.315 -3.445,-0.56 -4.963,-0.015c-1.088,0.391 -2.088,1.135 -2.886,2.514c-0.235,0.399 -0.391,0.809 -0.51,1.225c-0.157,0.547 -0.214,1.115 -0.23,1.717c-0.015,0.508 -0.038,1.007 -0.003,1.502c0.034,0.475 0.136,0.941 0.302,1.411c1.062,3.057 3.775,4.726 6.749,5.124c2.814,0.376 5.844,-0.576 7.982,-2.619c1.031,-0.973 1.991,-2.477 3.067,-3.749c0.376,-0.445 0.774,-0.835 1.237,-1.031c0.394,-0.167 0.766,-0.043 1.134,0.014c0.894,0.14 1.779,0.433 2.73,0.608c-0.051,-0.01 -0.169,-0.021 -0.169,-0.021c0,0 1.373,0.409 1.969,0.451c0.974,0.068 1.768,-0.303 2.425,-0.721c0.884,-0.562 1.537,-1.54 1.635,-3.224c-0,-1.932 -1.568,-3.5 -3.5,-3.5c-0.532,-0 -1.035,0.118 -1.486,0.331l-0.018,-0.002c-1.627,-0.12 -3.137,-0.485 -4.652,-0.285c-0.905,0.119 -1.824,0.327 -2.741,0.831c-0.968,0.532 -1.871,1.288 -2.635,2.268c-1.061,1.363 -1.88,3.166 -2.872,4.304c-0.922,1.046 -2.315,1.609 -3.651,1.535c-1.288,-0.072 -2.564,-0.617 -3.11,-1.897l-0.124,-1.33l0.109,-0.918c0.371,-0.689 0.932,-0.84 1.521,-0.82c0.805,0.026 1.641,0.242 2.427,0.388c1.705,0.318 3.244,0.257 4.377,-0.482c0.899,-0.586 1.682,-1.619 1.992,-3.552c0.354,-2.133 0.045,-4.449 -1.034,-6.152c-0.844,-1.331 -2.17,-2.306 -4.089,-2.693l-3.205,-0.006c-0.595,-0.205 -1.11,-0.774 -1.486,-1.375c-0.097,-0.153 -0.177,-0.318 -0.225,-0.486c0.127,-0.06 0.242,-0.116 0.305,-0.151c0.75,-0.411 1.599,-0.589 2.429,-0.581c0.674,0.007 1.308,0.289 1.888,0.718c0.373,0.276 0.655,0.628 0.999,0.922c0.314,0.268 0.664,0.49 1.032,0.709c0.386,0.23 1.548,0.993 1.925,0.754c1.108,0.295 2.339,0.038 3.251,-0.789c0.907,-0.919 1.172,-1.763 1.186,-2.405c0.021,-0.929 -0.137,-1.808 -0.8,-2.529c-0.336,-0.366 -0.789,-0.857 -1.557,-1.097c-0.269,-0.083 -1.172,-0.647 -1.426,-0.407l-0.974,-0.668c-1.831,-1.072 -3.805,-1.553 -5.777,-1.372c-1.822,0.168 -3.638,0.755 -5.196,1.815c-0.37,0.252 -1.209,0.671 -1.66,1.129c-0.48,0.486 -0.828,0.994 -0.968,1.517c-0.446,1.668 -0.23,3.429 0.649,4.977c1.099,1.936 3.047,3.559 4.99,4.05c0.441,0.114 0.888,0.185 1.347,0.179c0.825,-0.012 1.691,-0.404 2.498,-0.299c0.674,0.091 1.136,0.419 1.375,0.923c0.38,0.803 0.448,1.802 0.34,2.732c-0.023,0.195 -0.046,0.369 -0.091,0.52c-0.007,0.026 -0.021,0.052 -0.036,0.078Zm11.731,2.485c-0.048,0.19 -0.072,0.398 -0.058,0.631c-0,-0.216 0.019,-0.426 0.058,-0.631Zm-11.041,-15.923c0.18,-0.325 0.416,-0.625 0.705,-0.889c-0.349,0.284 -0.562,0.593 -0.705,0.889Z"/></g></svg>