<?xml version="1.0" encoding="UTF-8" standalone="no"?><!DOCTYPE svg PUBLIC "-//W3C//DTD SVG 1.1//EN" "http://www.w3.org/Graphics/SVG/1.1/DTD/svg11.dtd"><svg width="100%" height="100%" viewBox="0 0 453 568" version="1.1" xmlns="http://www.w3.org/2000/svg" xmlns:xlink="http://www.w3.org/1999/xlink" xml:space="preserve" xmlns:serif="http://www.serif.com/" style="fill-rule:evenodd;clip-rule:evenodd;stroke-linejoin:round;stroke-miterlimit:2" fill-rule="evenodd" clip-rule="evenodd" stroke-linejoin="round" stroke-miterlimit="2" vector-effect="non-scaling-stroke"><path d="M296.954,66.459c1.365,10.931 3.855,21.882 5.337,31.909c0.056,0.377 -0.068,-1.101 0.314,-1.101c1.373,0 15.402,0.988 15.971,1.687c0.804,0.989 -0.77,3.884 0.024,4.91c4.011,5.185 11.514,12.392 13.255,18.837c2.889,10.699 5.195,22.165 6.648,33.124c1.174,8.861 -1.27,20.461 1.666,30.034c4.053,13.213 18.44,22.483 21.089,35.499c2.224,10.924 -0.123,23.197 1.339,34.361c2.277,17.383 3.668,35.024 6.59,52.301c1.462,8.642 5.348,17.504 6.028,26.231c0.64,8.216 -4.657,13.891 -7.728,20.987c-3.71,8.571 -5.756,18.106 -10.621,26.111c-6.65,10.941 -16.911,20.938 -20.49,33.451c-4.844,16.942 2.777,33.667 4.423,50.308c1.323,13.361 0.845,27.156 0.506,40.77c-10.375,5.397 -20.105,9.455 -26.178,9.062c-10.402,-0.674 -1.065,-11.073 -9.306,-16.366c-4.281,-2.749 -24.622,5.577 -29.546,4.282c-1.242,-0.326 -12.497,5.636 -13.17,4.797c-3.424,-4.276 5.089,-14.757 1.391,-19.227c-6.213,-7.511 -39.213,17.097 -46.06,10.148c-8.869,-9.001 10.306,-48.629 10.306,-61.27c-0,-4.289 0.195,-11.934 4.789,-11.004l0.04,9.678l0.317,-9.615l-0.357,-0.063c-0.072,-28.983 -0.607,-57.923 -1.656,-86.909c-0.933,-25.759 -2.315,-51.502 -3.507,-77.25c-0.883,-19.059 -3.391,-40.493 2.425,-59.015c4.878,-15.537 15.86,-28.449 19.373,-44.438c2.096,-9.54 -2.555,-16.511 -1.671,-25.457c0.274,-2.767 2.687,-4.316 4.375,-6.239c1.154,-1.316 1.159,-22.265 1.346,-23.954c1.976,-17.911 28.087,-24.139 42.738,-36.579Z" style="fill:#4c7083"/><path d="M250.055,125.352c-1.224,1.317 -2.647,2.546 -3.543,4.067c-0.612,1.039 -1.036,2.185 -1.161,3.501c-0.629,6.601 1.579,12.159 2.161,18.383c0.198,2.119 0.174,4.33 -0.344,6.726c-0.991,4.589 -2.633,8.913 -4.561,13.123c-4.756,10.382 -11.168,20.105 -14.579,31.106c-2.387,7.695 -3.397,15.869 -3.672,24.175c-0.399,12.043 0.748,24.364 1.317,35.832c0.89,18.02 1.874,36.037 2.729,54.059c0.366,7.718 0.708,15.436 1.009,23.157c0.562,14.475 0.996,28.938 1.307,43.402c0.296,13.772 0.48,27.543 0.558,41.324c-1.305,0.394 -2.302,1.347 -3.048,2.682c-1.468,2.624 -1.67,7.302 -1.664,10.415c0.017,9.322 -10.461,33.407 -12.266,48.889c-0.725,6.214 0.037,11.171 2.665,13.832c2.124,2.151 6.279,2.299 11.454,0.756c7.546,-2.25 17.679,-7.629 25.551,-10.31c2.383,-0.812 4.535,-1.373 6.306,-1.45c1.152,-0.05 2.106,0.029 2.659,0.697c0.889,1.074 0.523,2.652 0.088,4.369c-0.795,3.139 -2.322,6.634 -2.681,9.489c-0.265,2.115 0.07,3.95 1.184,5.343c0.269,0.336 0.659,0.636 1.238,0.773c0.402,0.094 1.234,0.078 2.323,-0.269c2.253,-0.719 6.695,-2.843 9.522,-3.976c0.586,-0.234 1.278,-0.457 1.544,-0.54c1.23,0.213 3.073,0.098 5.28,-0.302c5.326,-0.964 13.188,-3.45 18.765,-4.285c2.038,-0.305 3.681,-0.556 4.516,-0.02c2.451,1.577 2.813,3.776 2.884,5.867c0.08,2.364 -0.107,4.663 0.483,6.439c0.753,2.268 2.444,4.101 6.915,4.394c3.124,0.206 7.16,-0.637 11.733,-2.254c4.714,-1.666 10.043,-4.146 15.55,-7c0.68,-0.354 1.114,-1.05 1.133,-1.816c0.216,-8.165 0.48,-16.395 0.38,-24.558c-0.068,-5.536 -0.304,-11.042 -0.834,-16.477c-1.128,-11.635 -5.191,-23.314 -5.84,-35.075c-0.263,-4.784 0.057,-9.582 1.445,-14.395c1.038,-3.6 2.666,-6.975 4.596,-10.225c4.672,-7.866 11.075,-15.014 15.724,-22.626c1.537,-2.513 2.809,-5.171 3.94,-7.904c2.507,-6.058 4.299,-12.498 6.901,-18.465c2.214,-5.079 5.525,-9.451 7.084,-14.506c0.732,-2.371 1.106,-4.88 0.898,-7.642c-0.208,-2.775 -0.723,-5.565 -1.385,-8.358c-1.438,-6.063 -3.605,-12.139 -4.598,-18.107c-0.856,-5.158 -1.573,-10.347 -2.219,-15.552c-1.515,-12.21 -2.634,-24.506 -4.188,-36.677c-1.128,-8.833 0.16,-18.356 -0.371,-27.351c-0.144,-2.452 -0.419,-4.867 -0.89,-7.223c-0.602,-3.008 -1.762,-5.841 -3.275,-8.568c-2.657,-4.789 -6.442,-9.248 -9.986,-13.841c-3.238,-4.195 -6.282,-8.498 -7.767,-13.397c-0.791,-2.609 -1.133,-5.381 -1.27,-8.201c-0.358,-7.374 0.624,-15.051 -0.19,-21.363c-0.715,-5.553 -1.647,-11.234 -2.76,-16.884c-1.112,-5.643 -2.407,-11.254 -3.848,-16.672c-0.621,-2.333 -1.871,-4.767 -3.471,-7.177c-2.88,-4.34 -6.947,-8.643 -9.731,-12.141c0.138,-0.75 0.392,-2.251 0.366,-2.966c-0.041,-1.112 -0.41,-2.021 -0.972,-2.717c-0.245,-0.304 -0.659,-0.711 -1.359,-1.025c-0.372,-0.168 -1.147,-0.394 -2.222,-0.574c-2.909,-0.486 -9.044,-0.999 -12.524,-1.236c-0.97,-5.972 -2.188,-12.217 -3.237,-18.548c-0.52,-3.138 -0.997,-6.297 -1.38,-9.454c-0.159,-1.276 -1.005,-2.361 -2.203,-2.828c-1.198,-0.466 -2.555,-0.238 -3.535,0.594c-9.759,8.352 -24.645,13.952 -34.018,22.094c-5.315,4.617 -8.986,10.004 -9.709,16.794c-0.148,1.39 -0.127,15.821 -0.756,21.626c-0.038,0.354 -0.104,0.77 -0.151,1.047Zm54.719,-24.605c2.767,0.169 7.439,0.522 10.426,0.895c-0.083,0.6 -0.145,1.21 -0.127,1.598c0.048,1.069 0.385,1.958 0.918,2.642c2.37,3.041 5.957,6.777 8.858,10.649c1.756,2.344 3.276,4.715 3.904,7.008c1.445,5.275 2.748,10.739 3.874,16.237c1.126,5.504 2.076,11.042 2.814,16.455c0.837,6.159 -0.109,13.664 0.288,20.864c0.184,3.318 0.633,6.575 1.584,9.639c1.727,5.566 5.13,10.495 8.846,15.245c3.392,4.337 7.042,8.523 9.592,13.051c1.237,2.196 2.21,4.47 2.712,6.897c0.653,3.154 0.899,6.428 0.973,9.756c0.181,8.115 -0.612,16.528 0.444,24.392c1.633,12.153 2.832,24.434 4.424,36.627c0.688,5.271 1.449,10.526 2.349,15.747c1.045,6.075 3.269,12.257 4.767,18.426c0.615,2.529 1.103,5.054 1.306,7.57c0.23,2.854 -0.38,5.356 -1.344,7.728c-1.664,4.093 -4.301,7.839 -6.13,12.097c-2.582,6.011 -4.35,12.49 -6.837,18.59c-1.023,2.51 -2.169,4.954 -3.565,7.264c-4.624,7.646 -11.005,14.837 -15.65,22.738c-2.115,3.596 -3.88,7.336 -5.008,11.314c-1.509,5.321 -1.858,10.619 -1.545,15.899c0.701,11.823 4.815,23.553 5.996,35.247c0.534,5.313 0.779,10.696 0.862,16.109c0.118,7.694 -0.091,15.449 -0.275,23.152c-4.918,2.533 -9.661,4.733 -13.895,6.243c-3.931,1.403 -7.385,2.224 -10.074,2.054c-1.982,-0.127 -2.937,-0.57 -3.272,-1.575c-0.484,-1.453 -0.213,-3.344 -0.281,-5.28c-0.117,-3.31 -0.896,-6.687 -4.779,-9.177c-1.362,-0.874 -4.019,-1.08 -7.342,-0.579c-4.857,0.733 -11.428,2.697 -16.6,3.858c-2.726,0.612 -4.987,1.079 -6.194,0.762c-0.374,-0.098 -1.248,-0.097 -2.408,0.3c-2.399,0.819 -7.422,3.282 -10.12,4.232c-0.165,-0.955 0.178,-2.139 0.527,-3.411c0.866,-3.158 2.381,-6.699 2.638,-9.612c0.182,-2.058 -0.212,-3.861 -1.372,-5.265c-0.908,-1.099 -2.175,-1.783 -3.777,-2.051c-2.001,-0.335 -4.646,0.033 -7.67,0.919c-7.481,2.195 -17.63,7.561 -25.574,10.266c-2.375,0.808 -4.531,1.374 -6.323,1.479c-1.195,0.07 -2.189,0.004 -2.805,-0.623c-1.217,-1.239 -1.643,-3.241 -1.725,-5.692c-0.102,-3.069 0.429,-6.777 1.3,-10.806c3.316,-15.329 11.42,-35.047 11.436,-43.321c0.003,-1.728 0.03,-4.04 0.418,-6.039l0.011,4.723c0.005,1.211 0.979,2.196 2.191,2.213c1.211,0.017 2.213,-0.939 2.253,-2.15l0.335,-9.615l-0.39,0.377l-0.002,-0.481l0.037,-0.037c0,-14.507 -0.116,-29.004 -0.353,-43.501c-0.237,-14.493 -0.595,-28.986 -1.082,-43.492c-0.343,-10.313 -0.759,-20.624 -1.205,-30.934c-0.667,-15.452 -1.402,-30.901 -2.07,-46.352c-0.488,-11.324 -1.557,-23.493 -1.083,-35.378c0.311,-7.784 1.29,-15.445 3.578,-22.644c3.413,-10.739 9.803,-20.184 14.528,-30.308c2.144,-4.595 3.958,-9.323 5.078,-14.34c0.684,-3.06 0.751,-5.886 0.517,-8.597c-0.504,-5.83 -2.673,-11.033 -2.041,-17.207c0.051,-0.497 0.295,-0.888 0.571,-1.255c0.871,-1.158 2.093,-2.104 3.055,-3.193c0.269,-0.304 0.621,-0.833 0.861,-1.649c0.258,-0.876 0.496,-2.677 0.659,-4.963c0.472,-6.6 0.544,-17.87 0.683,-19.085c0.582,-5.095 3.545,-9.014 7.564,-12.451c7.975,-6.819 19.877,-11.789 29.302,-18.161l-0,0c0.204,1.287 0.419,2.571 0.641,3.852c1.326,7.647 2.901,15.165 3.971,22.226c0.069,0.455 0.17,0.701 0.206,0.792c0.566,1.437 1.578,1.808 2.046,1.969c1.092,0.376 2.16,0.265 3.171,-0.518c0.114,-0.088 0.256,-0.203 0.404,-0.359Z"/><path d="M320.882,3.507c1.689,-0.051 3.63,0.165 5.861,0.653c7.268,1.59 14.564,6.521 20.567,10.55c13.977,9.379 -7.762,25.506 -3.767,36.92c10.585,30.249 24.289,61.351 28.133,101.113c1.293,13.374 31.231,52.032 32.462,65.489c1.458,15.936 26.497,77.323 32.113,92.096c9.424,24.791 8.712,125.467 12.641,136.513c0.028,0.08 -5.7,11.055 -4.899,9.082c1.807,-4.451 -5.216,6.067 -8.401,8.392c-8.229,6.008 -24.953,28.939 -33.641,34.259c-17.5,10.716 0.236,-22.215 -18.292,-15.75c-7.826,2.73 -25.906,14.556 -42.354,23.054c0.339,-13.614 0.817,-27.409 -0.506,-40.77c-1.646,-16.641 -9.267,-33.366 -4.423,-50.308c3.579,-12.513 13.84,-22.51 20.49,-33.451c4.865,-8.005 6.911,-17.54 10.621,-26.111c3.071,-7.096 8.368,-12.771 7.728,-20.987c-0.68,-8.727 -4.566,-17.589 -6.028,-26.231c-2.922,-17.277 -4.313,-34.918 -6.59,-52.301c-1.462,-11.164 0.885,-23.437 -1.339,-34.361c-2.649,-13.016 -17.036,-22.286 -21.089,-35.499c-2.936,-9.573 -0.492,-21.173 -1.666,-30.034c-1.453,-10.959 -3.759,-22.425 -6.648,-33.124c-1.741,-6.445 -9.244,-13.652 -13.255,-18.837c-0.794,-1.026 0.78,-3.921 -0.024,-4.91c-0.569,-0.699 -14.598,-1.687 -15.971,-1.687c-0.382,0 -0.258,1.478 -0.314,1.101c-1.482,-10.027 -3.972,-20.978 -5.337,-31.909c3.838,-3.185 6.877,-6.818 8.527,-11.177c4.789,-12.65 3.15,-27.603 4.292,-38.18l4.462,-5.775c1.569,-1.887 3.139,-3.774 4.708,-5.661l1.939,-2.159Z" style="fill:#284259"/><path d="M304.67,100.495c2.832,0.172 7.782,0.546 10.8,0.938c-0.097,0.659 -0.177,1.366 -0.157,1.797c0.045,1.014 0.362,1.857 0.868,2.506c2.369,3.042 5.956,6.781 8.856,10.655c1.775,2.37 3.306,4.77 3.94,7.087c1.445,5.281 2.747,10.75 3.872,16.253c1.125,5.51 2.074,11.053 2.811,16.471c0.838,6.164 -0.109,13.676 0.289,20.882c0.182,3.299 0.629,6.538 1.575,9.586c1.717,5.541 5.108,10.446 8.806,15.177c3.397,4.346 7.051,8.543 9.605,13.081c1.246,2.214 2.226,4.509 2.731,6.957c0.655,3.167 0.901,6.454 0.974,9.794c0.178,8.108 -0.618,16.514 0.434,24.37c1.626,12.155 2.819,24.436 4.404,36.631c0.684,5.269 1.441,10.522 2.337,15.741c1.043,6.072 3.265,12.251 4.761,18.417c0.615,2.537 1.104,5.071 1.307,7.595c0.231,2.88 -0.383,5.405 -1.358,7.799c-1.665,4.093 -4.303,7.84 -6.134,12.099c-2.584,6.008 -4.354,12.486 -6.844,18.583c-1.027,2.516 -2.18,4.965 -3.582,7.28c-4.626,7.644 -11.01,14.832 -15.658,22.731c-2.11,3.587 -3.873,7.316 -5,11.284c-1.507,5.308 -1.856,10.592 -1.546,15.86c0.696,11.821 4.804,23.551 5.979,35.243c0.532,5.316 0.776,10.702 0.856,16.118c0.12,8.109 -0.127,16.285 -0.323,24.397c-0.018,0.718 0.345,1.393 0.954,1.774c0.608,0.381 1.373,0.413 2.012,0.083c11.863,-6.131 24.573,-13.994 33.683,-18.928c3.41,-1.847 6.294,-3.276 8.407,-4.012c2.837,-0.988 4.497,-1.078 5.462,-0.072c1.277,1.332 1.28,3.806 1.335,6.281c0.066,2.954 0.002,5.961 0.599,8.002c0.586,2.004 1.74,3.288 3.537,3.703c1.591,0.367 4.082,-0.084 7.761,-2.334c2.158,-1.32 4.8,-3.658 7.674,-6.565c8.761,-8.86 19.898,-23.205 26.135,-27.746c1.53,-1.114 4.409,-4.454 6.375,-6.829c0.834,-0.007 1.911,-0.762 3,-2.675c0.964,-1.691 3.213,-5.967 4.161,-7.825c0.727,-1.422 0.551,-2.523 0.538,-2.559c-2.667,-7.543 -3.009,-57.064 -6.012,-95.361c-1.403,-17.893 -3.4,-33.383 -6.386,-41.294c-3.689,-9.78 -15.836,-39.992 -24.024,-63.917c-4.091,-11.955 -7.208,-22.297 -7.674,-27.566c-0.311,-3.525 -2.383,-8.698 -5.466,-14.67c-5.577,-10.803 -14.437,-24.5 -20.511,-35.713c-3.38,-6.238 -5.93,-11.614 -6.26,-15.141c-1.407,-15.036 -4.212,-28.852 -7.723,-41.861c-5.838,-21.631 -13.645,-41.011 -20.233,-60.048c-0.543,-1.567 -0.316,-3.253 0.183,-5.007c0.553,-1.947 1.476,-3.95 2.48,-5.975c2.321,-4.677 5.011,-9.454 5.846,-13.84c0.984,-5.165 -0.146,-9.938 -5.922,-13.844c-3.691,-2.496 -7.863,-5.317 -12.217,-7.544c-3.106,-1.589 -6.307,-2.872 -9.5,-3.583c-1.147,-0.255 -2.225,-0.443 -3.238,-0.568c-1.248,-0.155 -2.403,-0.213 -3.473,-0.184c-0.956,0.029 -1.859,0.448 -2.498,1.159l-1.93,2.167c-0.03,0.033 -0.059,0.066 -0.087,0.1l-4.687,5.679c-0.027,0.032 -0.053,0.064 -0.078,0.097l-4.44,5.791c-0.388,0.502 -0.629,1.101 -0.697,1.731c-0.685,6.576 -0.297,14.833 -1.032,23.185c-0.424,4.813 -1.226,9.663 -2.924,14.199c-0.716,1.911 -1.745,3.66 -3.015,5.281c-1.284,1.639 -2.808,3.149 -4.504,4.566c-0.851,0.706 -1.284,1.798 -1.147,2.896c0.417,3.252 0.932,6.504 1.49,9.734c1.323,7.65 2.896,15.17 3.964,22.232c0.065,0.425 0.159,0.655 0.192,0.74c0.525,1.331 1.463,1.676 1.897,1.825c1.012,0.348 2.002,0.245 2.939,-0.48c0.125,-0.097 0.287,-0.229 0.451,-0.416Zm141.94,346.151l-0.05,0.101c-0.704,1.388 -2.143,4.155 -3.203,6.125c-0.198,0.085 -0.404,0.204 -0.617,0.363c-1.195,0.892 -5.931,7.584 -8.387,9.382c-6.336,4.637 -17.684,19.219 -26.585,28.251c-2.587,2.625 -4.944,4.763 -6.889,5.956c-1.561,0.957 -2.787,1.537 -3.768,1.769c-0.502,0.119 -0.858,0.221 -1.086,-0.01c-0.701,-0.712 -0.675,-2.136 -0.74,-3.736c-0.13,-3.218 0.053,-7.057 -0.799,-9.848c-0.603,-1.974 -1.683,-3.5 -3.384,-4.352c-1.743,-0.874 -4.32,-1.069 -8.113,0.257c-2.261,0.79 -5.352,2.307 -9,4.285c-8.311,4.506 -19.631,11.447 -30.561,17.278c0.185,-7.025 0.361,-14.084 0.271,-21.094c-0.071,-5.533 -0.309,-11.036 -0.84,-16.468c-1.134,-11.636 -5.203,-23.316 -5.857,-35.079c-0.266,-4.796 0.054,-9.607 1.444,-14.434c1.039,-3.61 2.669,-6.995 4.604,-10.255c4.669,-7.869 11.07,-15.019 15.716,-22.633c1.531,-2.508 2.797,-5.161 3.923,-7.888c2.504,-6.061 4.294,-12.502 6.893,-18.472c2.211,-5.074 5.518,-9.44 7.075,-14.49c0.726,-2.354 1.097,-4.844 0.89,-7.585c-0.209,-2.767 -0.722,-5.548 -1.383,-8.332c-1.44,-6.067 -3.61,-12.146 -4.605,-18.118c-0.859,-5.159 -1.582,-10.35 -2.231,-15.557c-1.522,-12.209 -2.647,-24.504 -4.208,-36.674c-1.132,-8.836 0.153,-18.364 -0.381,-27.364c-0.145,-2.442 -0.419,-4.847 -0.89,-7.194c-0.598,-2.987 -1.752,-5.799 -3.255,-8.507c-2.653,-4.778 -6.434,-9.228 -9.973,-13.81c-3.255,-4.216 -6.312,-8.541 -7.807,-13.466c-0.795,-2.625 -1.141,-5.416 -1.279,-8.253c-0.357,-7.368 0.625,-15.039 -0.189,-21.346c-0.717,-5.548 -1.649,-11.224 -2.763,-16.869c-1.113,-5.637 -2.408,-11.243 -3.85,-16.655c-0.616,-2.311 -1.856,-4.721 -3.442,-7.108c-2.901,-4.368 -7.006,-8.698 -9.789,-12.205c0.134,-0.72 0.405,-2.287 0.378,-3.023c-0.039,-1.052 -0.386,-1.915 -0.918,-2.574c-0.229,-0.284 -0.616,-0.663 -1.27,-0.957c-0.362,-0.162 -1.117,-0.38 -2.163,-0.555c-2.961,-0.493 -9.27,-1.015 -12.7,-1.244c-0.976,-6.029 -2.21,-12.339 -3.273,-18.737c-0.427,-2.569 -0.825,-5.154 -1.166,-7.74c1.523,-1.363 2.908,-2.806 4.125,-4.337c1.703,-2.142 3.075,-4.463 4.045,-6.997c1.466,-3.83 2.382,-7.861 2.965,-11.928c1.322,-9.222 0.859,-18.639 1.564,-26.085c-0,-0 3.839,-4.932 3.839,-4.932c-0,0 4.646,-5.544 4.646,-5.544l0.84,-0.927c0.323,0.02 0.657,0.05 1,0.091c0.809,0.094 1.67,0.24 2.586,0.437c2.645,0.569 5.291,1.636 7.869,2.933c4.116,2.069 8.055,4.713 11.548,7.039c2.941,1.959 3.593,4.347 3.112,6.968c-0.863,4.709 -4.262,9.867 -6.436,14.851c-2.051,4.705 -3.061,9.296 -1.625,13.356c6.674,18.863 14.579,38.052 20.518,59.499c3.51,12.677 6.33,26.148 7.794,40.818c0.352,3.523 2.472,8.705 5.622,14.686c5.665,10.753 14.61,24.393 20.735,35.581c3.418,6.242 5.993,11.63 6.329,15.187c0.52,5.5 3.771,16.304 8.116,28.769c8.344,23.933 20.664,54.157 24.412,63.94c2.926,7.643 4.848,22.639 6.279,39.95c3.093,37.419 3.83,85.44 6.337,95.51Z"/><g id="Cuerpo"><path d="M139.235,288.797c-0.641,-1.162 -25.729,13.395 -27.003,13.649c-6.742,1.344 -13.21,3.433 -17.574,7.707c-2.631,2.576 -4.498,5.945 -5.2,10.424c-2.477,15.787 20.202,5.012 22.412,15.026c0.636,2.88 0.683,13.912 -0.455,5.879c-0.13,-0.919 0.349,-3.126 -0.089,-3.92c-1.153,-2.09 -8.142,-0.903 -8.621,1.715c-1.047,5.729 -0.95,12.453 5.716,14.701c2.902,0.978 6.745,0.034 8.531,-2.369c0.589,-0.792 0.5,-2.36 0.18,-1.796c-2.917,5.126 -0.365,11.161 6.442,9.637c1.449,-0.325 3.075,-4.575 1.906,-5.635c-0.268,-0.243 -0.642,2.279 -0.18,2.694c1.814,1.626 6.115,1.302 7.532,-0.817c2.161,-3.23 -2.666,-6.823 -1.726,-10.127c1.626,-5.715 10.613,-7.491 2.542,-18.293c-4.564,-6.109 -20.827,-4.574 -27.766,-10.862c-0.184,-0.167 -0.001,-1.466 0.09,-1.634c4.014,-7.402 19.9,-3.05 25.044,-10.124c3.765,-5.177 15.541,-12.476 13.499,-9.423" style="fill:#fff"/><path d="M111.324,299.506c-4.049,0.874 -7.989,2.014 -11.466,3.686c-2.708,1.303 -5.149,2.913 -7.173,4.946c-1.588,1.594 -2.935,3.433 -3.955,5.585c-0.899,1.894 -1.563,4.025 -1.91,6.44c-0.88,6.095 1.233,9.121 4.409,10.801c3.542,1.874 9.127,1.623 13.655,2.296c1.351,0.201 2.625,0.434 3.524,1.064c-0.699,0.004 -1.431,0.078 -2.151,0.223c-2.878,0.581 -5.309,2.408 -5.652,4.345c-0.691,3.908 -0.814,8.215 0.789,11.563c1.148,2.399 3.116,4.38 6.372,5.467c1.799,0.603 3.886,0.634 5.805,0.128c0.18,-0.048 0.358,-0.1 0.534,-0.158c0.176,0.843 0.476,1.63 0.89,2.332c1.512,2.562 4.538,4.223 9.029,3.233c0.674,-0.148 1.427,-0.602 2.074,-1.382c0.163,-0.196 0.322,-0.416 0.473,-0.654c0.904,0.225 1.89,0.301 2.866,0.212c2.149,-0.195 4.159,-1.203 5.199,-2.734c0.74,-1.088 0.986,-2.208 0.938,-3.343c-0.067,-1.577 -0.865,-3.228 -1.624,-4.847c-0.407,-0.869 -0.923,-1.696 -0.679,-2.528c0.508,-1.72 1.884,-2.953 3.037,-4.316c1.702,-2.01 3.069,-4.183 3.032,-7.131c-0.029,-2.292 -0.962,-5.165 -3.72,-8.935c-1.327,-1.818 -3.447,-3.162 -6.079,-4.177c-3.425,-1.322 -7.811,-2.102 -12.027,-3.133c-3.121,-0.764 -6.158,-1.634 -8.442,-3.16c1.147,-1.203 2.981,-1.657 4.961,-2.058c4.388,-0.888 9.594,-1.04 13.608,-2.495c2.458,-0.89 4.511,-2.251 5.988,-4.224c2.128,-2.836 7.046,-6.353 9.981,-7.943c1.407,0.378 2.959,-0.156 3.814,-1.434c1.611,-2.494 0.542,-4.211 -0.104,-4.916c-0.57,-0.623 -2.34,-1.851 -4.947,-0.744c-3.012,1.278 -10.931,6.925 -13.97,11.237c-1.575,2.23 -4.627,2.798 -7.78,3.353c-4.016,0.707 -8.278,1.137 -11.519,2.495c-2.476,1.037 -4.448,2.554 -5.636,4.818c-0.141,0.268 -0.543,1.839 -0.491,2.791c0.066,1.192 0.638,1.968 1.007,2.294c1.676,1.479 3.778,2.607 6.143,3.471c4.429,1.618 9.826,2.336 14.422,3.451c3.052,0.74 5.753,1.523 7.128,3.32c2.613,3.425 3.295,5.595 2.75,7.392c-0.417,1.371 -1.4,2.445 -2.327,3.556c-1.334,1.602 -2.608,3.242 -3.159,5.256c-0.301,1.09 -0.251,2.197 0.06,3.313c0.385,1.383 1.23,2.795 1.818,4.185c0.295,0.696 0.645,1.375 0.208,2.038c-0.38,0.578 -1.206,0.804 -2.009,0.889c-0.367,0.039 -0.745,0.051 -1.099,0.014c0.047,-1.346 -0.364,-2.504 -1.037,-3.12c-0.681,-0.626 -1.41,-0.68 -2.122,-0.446c-0.369,0.122 -1.046,0.483 -1.411,1.427c-0.244,0.63 -0.453,2.152 -0.317,3.1c0.032,0.227 0.085,0.435 0.152,0.624c-0.131,0.225 -0.259,0.422 -0.327,0.523c-2.109,0.415 -3.633,-0.114 -4.366,-1.344c-0.442,-0.744 -0.604,-1.657 -0.504,-2.628c0.214,-0.222 0.413,-0.457 0.595,-0.703c0.716,-0.968 0.904,-2.541 0.784,-3.259c-0.12,-0.711 -0.474,-1.144 -0.725,-1.367c-0.441,-0.39 -0.938,-0.545 -1.457,-0.526c-0.44,0.016 -1.237,0.124 -1.813,1.143c-0.473,0.83 -0.826,1.679 -1.065,2.525c-0.524,0.346 -1.134,0.599 -1.767,0.763c-1.146,0.296 -2.39,0.297 -3.462,-0.067c-2.552,-0.871 -3.849,-2.591 -4.396,-4.647c-0.628,-2.359 -0.366,-5.09 0.104,-7.614c0.07,-0.059 0.354,-0.292 0.558,-0.401c0.503,-0.269 1.118,-0.457 1.744,-0.576c0.723,-0.136 1.64,0.324 2.165,0.272c-0.051,0.841 -0.116,2.208 -0.047,2.728c0.277,2.079 0.58,3.127 0.752,3.475c0.507,1.031 1.287,1.236 1.725,1.315c0.51,0.092 2.498,-0.158 2.799,-2.466c0.228,-1.745 0.079,-7.074 -0.333,-9.018c-0.869,-4.13 -4.183,-5.886 -8.505,-6.618c-3.956,-0.671 -8.904,-0.298 -11.972,-2.011c-1.533,-0.856 -2.078,-2.513 -1.575,-5.482c0.31,-1.825 0.846,-3.431 1.564,-4.852c0.779,-1.539 1.792,-2.845 2.971,-3.97c1.614,-1.542 3.558,-2.724 5.691,-3.684c3.192,-1.437 6.811,-2.342 10.509,-3.03c0.287,-0.053 1.518,-0.552 3.31,-1.474c5.039,-2.592 16.395,-8.79 21.704,-11.139c0.667,-0.295 1.576,-0.299 1.704,-0.558c0.47,-0.041 0.938,-0.179 1.377,-0.421c1.691,-0.933 2.307,-3.064 1.374,-4.755c-0.488,-0.854 -1.541,-2.141 -3.767,-1.839c-0.607,0.082 -1.892,0.489 -3.575,1.292c-5.326,2.541 -16.691,9.159 -21.736,11.938c-0.792,0.437 -1.67,0.891 -1.898,1.008Zm30.204,-6.1l0.078,-0.123c-0.029,0.041 -0.055,0.082 -0.078,0.123Zm-4.911,-2.286c-0.169,-0.19 -0.319,-0.401 -0.446,-0.632c0.121,0.227 0.269,0.439 0.446,0.632Z"/><path d="M103.944,398.501c0.166,-0.312 2.179,-11.993 7.697,-22.097c8.56,-15.675 21.932,-32.99 21.932,-40.185c0,-8.311 0.961,-32.836 -4.674,-52.726c-4.943,-17.447 -16.546,-30.973 -16.886,-31.649c-2.022,-4.021 -17.623,-4.668 -15.681,-9.756c2.041,-5.346 29.892,-11.38 35.781,-10.099c0.884,0.192 2.33,1.383 3.604,2.456c0.502,0.256 0.924,0.484 1.115,0.618c2.963,2.068 5.313,4.762 7.791,7.325c1.585,1.639 3.901,7.172 7.194,10.744c15.334,2.586 28.486,9.414 38.66,21.52c2.977,3.543 6.955,6.355 9.458,10.285c3.619,5.68 7.512,15.521 10.537,25.956c3.552,12.255 5.905,25.33 5.205,33.446c-1.286,14.907 -6.087,31.062 -15.176,43.009c-2.722,3.577 -26.919,33.24 -29.973,40.933c-9.294,23.407 -8.11,34.41 -0.397,58.795c3.074,9.717 6.941,20.659 12.231,29.47c2.234,3.722 12.534,22.235 14.966,25.832c0.08,0.118 -28.715,-25.869 -33.638,-32.041c-11.341,-14.219 -17.971,-34.774 -22.925,-52.405c-2.677,-9.525 -1.424,-20.287 -1.886,-30.062c-0.398,-8.396 4.065,-17.636 7.851,-25.131c0.332,-0.659 1.543,-2.906 2.519,-5.048l-6.984,0.188c-0.975,0.941 -1.861,1.89 -2.632,2.69c-0.196,0.202 -0.414,0.384 -0.603,0.592c-9.044,9.984 -13.245,22.319 -14.042,35.524c-1.414,23.413 -1.22,52.539 8.68,73.902c3.304,7.128 18.602,37.501 16.662,36.1c-7.403,-5.344 -22.437,-24.2 -26.512,-32.274c-6.139,-12.164 -9.749,-21.374 -17.087,-32.878c-3.699,-5.799 -3.004,-12.659 -5.417,-19.204c-2.705,-7.335 -0.934,-24.899 -0.258,-32.949c0.476,-5.664 0.196,-25.789 2.888,-30.881Zm29.217,-165.309c0.568,0.274 1.683,0.807 2.556,1.253c0.488,0.41 0.95,0.804 1.347,1.117l1.117,0.678c-0.201,0 -0.603,-0.271 -1.117,-0.678l-3.903,-2.37c-0.386,-0.186 -0.519,-0.253 -0.149,-0.091l0.149,0.091Z" style="fill:#fff"/><path d="M100.636,397.312c-0.921,2.073 -1.605,5.728 -1.987,9.977c-0.709,7.894 -0.653,18.043 -0.954,21.81c-0.439,5.506 -1.357,15.388 -1.071,23.534c0.151,4.312 0.66,8.169 1.649,10.82c1.666,4.468 1.827,9.097 3.024,13.41c0.614,2.211 1.46,4.348 2.764,6.375c2.856,4.442 5.141,8.535 7.234,12.596c3.269,6.342 6.079,12.605 9.817,19.945c2.116,4.155 7.047,11.094 12.427,17.665c5.404,6.601 11.262,12.822 15.107,15.576c0.968,0.693 1.815,0.642 2.346,0.538c0.636,-0.126 1.177,-0.423 1.614,-0.91c0.338,-0.376 0.955,-1.202 0.719,-2.625c-0.098,-0.59 -0.604,-2.042 -1.482,-4.047c-3.519,-8.038 -13.143,-27.086 -15.694,-32.539c-3.931,-8.411 -6.302,-18.072 -7.66,-28.1c-2.025,-14.958 -1.8,-30.728 -1.012,-44.502c0.366,-6.36 1.547,-12.514 3.731,-18.28c2.159,-5.702 5.298,-11.025 9.591,-15.792l0.549,-0.538l1.947,-2.001c-0,0 2.1,-0.062 2.1,-0.062c0,-0 -0.754,1.522 -0.754,1.522c-2.291,4.566 -4.817,9.767 -6.408,15.036c-1.141,3.779 -1.803,7.595 -1.62,11.257c0.339,6.84 -0.155,14.165 0.431,21.212c0.265,3.189 0.745,6.324 1.599,9.34c2.996,10.579 6.597,22.202 11.435,32.899c3.339,7.384 7.268,14.329 11.979,20.212c3.897,4.873 22.596,22.021 30.448,29.137c1.492,1.352 2.59,2.342 3.118,2.812c0.168,0.151 0.283,0.252 0.338,0.299c0.057,0.049 0.095,0.08 0.113,0.094c0.747,0.581 1.374,0.43 1.467,0.42c0.62,-0.065 1.041,-0.355 1.34,-0.709c0.282,-0.333 0.5,-0.774 0.481,-1.378c-0.006,-0.194 -0.021,-0.594 -0.348,-1.077c-0.815,-1.205 -2.526,-4.111 -4.518,-7.564c-3.929,-6.809 -8.923,-15.71 -10.4,-18.168c-2.076,-3.462 -3.925,-7.261 -5.591,-11.182c-2.513,-5.915 -4.61,-12.107 -6.427,-17.864c-3.734,-11.83 -5.932,-20.442 -6.063,-28.909c-0.132,-8.58 1.881,-16.996 6.464,-28.495c0.962,-2.412 4.113,-7.04 7.978,-12.334c8.308,-11.379 19.94,-25.645 21.779,-28.054c4.71,-6.161 8.317,-13.412 10.91,-21.048c2.563,-7.549 4.133,-15.475 4.807,-23.085c0.339,-3.821 0.04,-8.703 -0.742,-14.086c-0.922,-6.346 -2.513,-13.404 -4.469,-20.214c-1.654,-5.767 -3.571,-11.355 -5.563,-16.184c-1.707,-4.142 -3.478,-7.732 -5.183,-10.427c-0.829,-1.309 -1.803,-2.508 -2.853,-3.65c-2.18,-2.37 -4.717,-4.467 -6.766,-6.919c-5.264,-6.301 -11.309,-11.232 -18.02,-14.938c-6.464,-3.57 -13.551,-5.999 -21.172,-7.4c-0.549,-0.666 -1.065,-1.387 -1.552,-2.121c-2.173,-3.277 -3.866,-6.776 -5.097,-8.057c-1.512,-1.575 -2.979,-3.196 -4.561,-4.7c-1.126,-1.071 -2.311,-2.082 -3.599,-2.988l-1.096,-0.622c-0.253,-0.213 -0.511,-0.429 -0.771,-0.639c-0.031,-0.649 -0.456,-1.165 -1.531,-1.389c-0.094,-0.058 -0.193,-0.112 -0.294,-0.161l0.152,0.142c0.041,0.001 0.082,0.006 0.124,0.015l0.018,0.004c0.438,0.265 0.802,0.617 1.078,1.025c-0.125,-0.1 -0.25,-0.197 -0.374,-0.291c-0.231,-0.285 -0.51,-0.535 -0.829,-0.737l-0.017,-0.016l-0.008,-0c-0.138,-0.086 -0.284,-0.163 -0.436,-0.23c-0.089,-0.007 -0.166,-0.018 -0.232,-0.032c-0.545,-0.298 -1.05,-0.493 -1.47,-0.585c-3.526,-0.78 -14.531,0.747 -23.795,3.374c-4.977,1.411 -9.446,3.137 -12.053,4.863c-1.701,1.126 -2.735,2.38 -3.168,3.502c-1.031,2.674 -0.035,4.918 2.664,6.659c2.234,1.442 6.106,2.519 9.41,3.683c1.125,0.396 2.169,0.802 2.987,1.273c0.285,0.164 0.573,0.255 0.677,0.463c0.219,0.441 5.152,6.309 9.942,15.148c2.503,4.619 4.966,10.085 6.626,16.02c1.826,6.537 2.914,13.586 3.561,20.368c1.294,13.561 0.819,26.074 0.798,31.531c-0.009,2.514 -2.086,6.342 -4.817,11.01c-4.718,8.064 -11.67,18.098 -16.874,27.541c-2.072,3.76 -3.683,7.73 -4.905,11.303c-1.593,4.66 -2.517,8.633 -2.945,10.529l-0.162,0.71Zm29.17,-162.812c-3.477,-0.01 -9.736,1.087 -15.796,2.612c-4.529,1.139 -8.946,2.555 -12.044,4.064c-0.977,0.476 -1.809,0.954 -2.433,1.441c-0.068,0.053 -0.136,0.1 -0.2,0.146c0.668,0.375 2.009,1.096 3.094,1.478c2.522,0.889 5.437,1.682 7.644,2.643c2.251,0.981 3.848,2.281 4.544,3.652c0.22,0.435 5.157,6.198 9.957,14.914c2.731,4.958 5.415,10.834 7.246,17.216c1.973,6.867 3.182,14.275 3.916,21.408c1.423,13.817 1.051,26.581 1.073,32.145c0.009,2.46 -1.186,5.983 -3.315,10.134c-4.411,8.598 -12.837,20.558 -18.859,31.685c-1.845,3.41 -3.265,7.01 -4.343,10.245c-1.452,4.353 -2.282,8.062 -2.667,9.831c-0.267,1.228 -0.533,1.924 -0.585,2.023c-0.779,1.459 -1.162,4.393 -1.497,7.8c-0.771,7.86 -0.793,17.975 -1.124,21.727c-0.407,4.623 -1.199,12.426 -1.264,19.571c-0.042,4.741 0.182,9.175 1.202,11.975c1.7,4.663 1.882,9.472 3.095,13.97c0.434,1.608 1.016,3.173 1.952,4.651c2.94,4.648 5.289,8.926 7.438,13.17c3.227,6.376 5.994,12.668 9.684,20.046c1.961,3.922 6.587,10.455 11.6,16.671c1.315,1.63 2.657,3.24 3.985,4.774c-4.1,-8.648 -9.185,-18.974 -10.921,-22.756c-4.093,-8.906 -6.562,-19.112 -7.928,-29.708c-1.973,-15.302 -1.656,-31.42 -0.761,-45.493c0.434,-6.868 1.757,-13.505 4.15,-19.721c2.402,-6.239 5.876,-12.056 10.612,-17.256l0.656,-0.646l2.698,-2.741c0.427,-0.412 0.993,-0.65 1.586,-0.666l6.984,-0.168c0.812,-0.022 1.578,0.376 2.027,1.053c0.449,0.677 0.517,1.538 0.18,2.278l-2.573,5.126c-2.204,4.333 -4.651,9.26 -6.192,14.266c-1.002,3.256 -1.624,6.541 -1.483,9.702c0.307,6.795 -0.223,14.067 0.329,21.068c0.229,2.903 0.647,5.759 1.413,8.506c2.9,10.397 6.379,21.821 11.086,32.341c3.161,7.065 6.873,13.721 11.351,19.358c2.969,3.731 14.713,14.754 23.428,22.78c-3.386,-5.938 -6.921,-12.225 -8.122,-14.228c-2.173,-3.614 -4.113,-7.579 -5.859,-11.674c-2.573,-6.032 -4.723,-12.348 -6.585,-18.222c-3.899,-12.3 -6.137,-21.266 -6.289,-30.072c-0.157,-9.058 1.874,-17.961 6.68,-30.113c1.022,-2.588 4.322,-7.597 8.446,-13.284c8.292,-11.434 19.908,-25.773 21.744,-28.194c4.4,-5.81 7.745,-12.646 10.15,-19.834c2.413,-7.215 3.875,-14.786 4.485,-22.051c0.296,-3.535 -0.026,-8.045 -0.772,-13.017c-0.922,-6.148 -2.5,-12.982 -4.427,-19.575c-1.634,-5.578 -3.52,-10.982 -5.475,-15.65c-1.606,-3.833 -3.255,-7.161 -4.852,-9.652c-0.678,-1.058 -1.48,-2.021 -2.336,-2.941c-2.247,-2.416 -4.849,-4.559 -6.963,-7.059c-4.88,-5.775 -10.467,-10.291 -16.667,-13.667c-6.253,-3.404 -13.129,-5.646 -20.527,-6.869c-0.572,-0.097 -1.095,-0.381 -1.488,-0.807c-0.949,-1.021 -1.827,-2.187 -2.635,-3.388c-1.976,-2.937 -3.433,-6.135 -4.549,-7.28c-1.466,-1.507 -2.885,-3.061 -4.418,-4.498c-0.942,-0.883 -1.928,-1.72 -3.003,-2.466l-0.801,-0.424c-0.063,-0.032 -0.124,-0.066 -0.183,-0.103l-0.623,-0.095c0.098,-0.014 0.194,-0.033 0.289,-0.055l-0.173,-0.056l-0.183,-0.055c-0.091,0.017 -0.184,0.029 -0.277,0.038l-0.069,0.066l0.413,0.062c-0.17,0.027 -0.344,0.04 -0.521,0.04l0.108,-0.102l-0.349,-0.053c-0.284,-0.007 -0.565,-0.049 -0.837,-0.126l-0.444,-0.067c0.161,0.077 0.328,0.143 0.499,0.194c0.506,0.099 1.023,0.154 1.023,0.154c-0.348,-0 -0.693,-0.052 -1.023,-0.154c-0.582,-0.111 -1.149,-0.279 -0.899,-0.484l0.077,-0.058c-0.031,-0.008 -0.055,-0.015 -0.074,-0.018c-0.356,-0.057 -0.455,-0.313 -0.536,-0.341c-0.222,-0.078 -0.265,-0.297 -0.392,-0.366c-0.354,-0.191 -0.37,-0.559 -0.508,-0.771Zm2.953,1.746c0.053,0.052 0.1,0.102 0.137,0.147l0.085,-0.016l0.033,-0.009l0.001,-0.054l-0.079,-0.022l-0.177,-0.046Z"/><path d="M163.446,287.648c-1.54,-0.122 -3.032,0.794 -3.573,2.318l-0.771,5.962c-0.074,3.308 1.268,4.351 2.541,4.557c1.173,0.19 3.136,-0.646 4.859,-2.303c0.684,-0.658 1.322,-1.386 1.883,-2.132c1.111,-1.479 1.298,-3.12 1.19,-4.496c-0.041,-0.512 -0.332,-0.92 -0.526,-1.398c-0.497,-1.231 -1.805,-1.941 -3.925,-2.704c-0.587,-0.075 -1.16,0 -1.678,0.196Z" style="fill-opacity:0.46"/><path d="M143.295,291.906c-1.54,-0.123 -3.032,0.793 -3.574,2.317l-0.77,5.962c-0.075,3.309 1.267,4.352 2.54,4.558c1.174,0.189 3.136,-0.646 4.859,-2.303c0.685,-0.658 1.322,-1.387 1.883,-2.133c1.112,-1.479 1.299,-3.119 1.19,-4.495c-0.04,-0.512 -0.332,-0.92 -0.525,-1.398c-0.498,-1.231 -1.806,-1.941 -3.926,-2.704c-0.587,-0.075 -1.159,-0 -1.677,0.196Z" style="fill-opacity:0.46"/><path d="M171.74,267.611c-4.023,-0 -4.974,9.844 -0.362,10.534c5.986,0.895 10.861,-5.586 16.063,-7.922c9.648,-4.331 30.09,-13.522 39.925,-15.355c1.786,-0.332 11.77,-3.192 13.52,-1.551c2.934,2.751 12.582,4.998 16.786,3.92c2.132,-0.548 3.259,-4.967 5.354,-6.042c4.459,-2.289 8.529,1.307 12.341,-0.081c3.655,-1.332 -0.633,-11.484 -3.266,-12.659c-2.643,-1.179 -7.888,3.28 -9.075,2.203c-1.252,-1.136 -1.516,-5.868 -1.271,-7.593c1.028,-7.262 12.634,-25.37 7.352,-31.687c-10.555,-12.622 -8.154,20.353 -14.519,23.193c-1.447,0.645 -1.271,-9.161 -1.271,-10.372c-0,-6.951 -1.474,-11.528 -8.803,-13.719c-6.363,-1.902 3.879,19.626 -0.18,23.193c-4.113,3.614 -4.889,-24.31 -13.884,-14.129c-6.168,6.981 16.732,20.774 7.259,34.79c-1.363,2.018 -8.556,1.611 -11.16,2.778c-11.024,4.944 -22.809,9.556 -34.574,12.33c-5.205,1.228 -10.461,2.211 -15.607,3.839c-2.291,0.725 -6.094,5.676 -3.629,4.083" style="fill:#fff"/><path d="M256.104,217.448c-0.342,-1.551 -0.719,-2.895 -0.718,-3.249c0.016,-3.92 -0.467,-7.153 -1.917,-9.73c-1.509,-2.682 -4.045,-4.743 -8.339,-6.051c-1.125,-0.343 -2.013,-0.233 -2.699,0.053c-0.922,0.386 -1.624,1.148 -1.982,2.352c-0.333,1.125 -0.302,2.901 0.031,5.026c0.432,2.756 1.322,6.232 1.944,9.445c0.161,0.834 0.304,1.648 0.411,2.423c-1.138,-3.583 -2.41,-7.933 -4.195,-10.296c-1.201,-1.59 -2.663,-2.451 -4.25,-2.557c-1.602,-0.107 -3.599,0.593 -5.794,3.042c-2.436,2.714 -2.094,6.222 -0.012,10.281c2.321,4.524 6.981,10.004 8.381,15.88c0.657,2.762 0.462,5.619 -1.416,8.476c-0.239,0.077 -1.093,0.346 -1.704,0.452c-1.741,0.3 -3.819,0.434 -5.505,0.693c-1.189,0.182 -2.224,0.445 -2.979,0.775c-5.469,2.391 -11.125,4.696 -16.87,6.733c-5.699,2.022 -11.485,3.775 -17.263,5.079c-3.142,0.706 -6.301,1.324 -9.445,2.047c-2.16,0.497 -4.312,1.045 -6.448,1.696c-1.791,0.546 -4.289,2.814 -5.601,4.451c-0.836,0.304 -1.596,0.8 -2.261,1.474c-1.467,1.49 -2.491,4.037 -2.589,6.668c-0.162,4.324 2.082,8.316 5.997,8.862c2.545,0.354 4.948,-0.186 7.243,-1.307c3.704,-1.809 7.072,-5.404 10.62,-7.039c5.567,-2.563 14.762,-6.804 23.4,-10.27c6.026,-2.418 11.765,-4.469 15.733,-5.245c1.419,-0.277 8.351,-2.422 11.413,-2.09l0.083,0.012c1.836,1.5 5.313,2.925 8.978,3.734c3.721,0.821 7.593,1.037 9.948,0.414c0.929,-0.246 1.804,-0.807 2.572,-1.664c0.739,-0.826 1.412,-1.979 2.092,-3.075c0.388,-0.625 0.687,-1.294 1.188,-1.556c0.831,-0.434 1.645,-0.557 2.441,-0.535c1.698,0.049 3.336,0.597 4.926,0.831c1.591,0.235 3.142,0.225 4.661,-0.341c2.173,-0.807 3.283,-3.191 2.849,-6.351c-0.341,-2.482 -1.551,-5.476 -2.907,-7.572c-1.011,-1.563 -2.169,-2.643 -3.09,-3.048c-1.222,-0.536 -2.796,-0.483 -4.45,0.063c-1.198,0.396 -2.467,1.028 -3.586,1.555c-0.199,0.093 -0.428,0.192 -0.647,0.28c-0.135,-0.476 -0.286,-1.071 -0.345,-1.545c-0.161,-1.292 -0.189,-2.63 -0.09,-3.353c0.651,-4.738 5.857,-14.145 7.813,-21.796c1.22,-4.773 1.113,-8.953 -1.042,-11.516c-3.727,-4.442 -6.63,-4.203 -8.595,-2.467c-1.132,1.001 -2.099,2.869 -2.83,5.287c-0.976,3.23 -1.656,7.533 -2.456,11.452c-0.221,1.082 -0.45,2.134 -0.699,3.117Zm18.146,31.527c-0.021,-0.175 0.186,-0.478 0.18,-0.739c-0.028,-1.258 -0.48,-2.796 -1.082,-4.204c-0.422,-0.987 -0.92,-1.912 -1.434,-2.631c-0.28,-0.39 -0.489,-0.746 -0.743,-0.861c-0.194,-0.088 -0.429,0.007 -0.685,0.065c-0.535,0.12 -1.099,0.335 -1.66,0.573c-1.683,0.714 -3.35,1.579 -4.44,1.792c-1.269,0.248 -2.224,-0.084 -2.855,-0.664c-0.66,-0.606 -1.279,-1.79 -1.609,-3.282c-0.473,-2.135 -0.518,-4.957 -0.325,-6.265c0.705,-4.835 6.044,-14.425 8.096,-22.23c0.848,-3.227 1.287,-6.088 -0.164,-7.832c-1.107,-1.329 -1.833,-2.123 -2.57,-2.138c-0.209,-0.004 -0.302,0.221 -0.453,0.422c-0.344,0.461 -0.635,1.074 -0.908,1.788c-1.851,4.838 -2.62,13.523 -4.442,18.624c-0.928,2.599 -2.246,4.37 -3.738,5.038c-1.163,0.521 -2.731,0.273 -3.445,-1.908c-0.761,-2.325 -0.723,-9.286 -0.726,-10.324c-0.012,-3.076 -0.282,-5.636 -1.439,-7.648c-0.977,-1.699 -2.628,-2.921 -5.206,-3.785c0.001,0.534 0.023,1.263 0.114,1.873c0.596,4.006 2.36,9.802 2.774,14.009c0.31,3.146 -0.324,5.575 -1.641,6.749c-1.045,0.932 -2.082,1.04 -3.019,0.802c-0.818,-0.207 -1.728,-0.853 -2.469,-2.088c-1.52,-2.532 -2.82,-9.002 -4.933,-12.781c-0.29,-0.518 -0.594,-0.971 -0.934,-1.312c-0.13,-0.13 -0.235,-0.271 -0.394,-0.28c-0.565,-0.029 -1.036,0.57 -1.797,1.444c-0.431,0.495 -0.482,1.078 -0.378,1.707c0.15,0.915 0.592,1.892 1.155,2.945c2.565,4.805 7.507,10.673 9.112,16.942c1.088,4.245 0.79,8.659 -2.17,13.121c-0.625,0.944 -1.838,1.773 -3.529,2.275c-2.596,0.77 -6.907,0.739 -8.756,1.589c-5.55,2.553 -11.293,5.021 -17.132,7.219c-5.896,2.219 -11.89,4.156 -17.883,5.63c-3.115,0.769 -6.25,1.45 -9.367,2.235c-1.996,0.504 -3.984,1.053 -5.955,1.699c-0.24,0.079 -0.47,0.346 -0.736,0.579c-0.158,0.139 -0.302,0.323 -0.437,0.52c-0.084,1.048 -0.638,2.047 -1.588,2.661c-0.8,0.504 -1.517,0.755 -2.151,0.839c0.236,0.597 -0.826,1.727 -0.737,2.607c0.028,0.278 0.071,0.549 0.158,0.795c0.032,0.088 0.095,0.222 0.131,0.294c1.132,0.14 2.199,-0.167 3.238,-0.649c3.771,-1.75 7.249,-5.292 10.859,-6.87c5.68,-2.486 15.064,-6.596 23.866,-9.944c6.459,-2.456 12.614,-4.5 16.852,-5.252c1.38,-0.244 7.496,-1.876 11.26,-1.993c2.18,-0.068 3.821,0.498 4.596,1.238c1.243,1.186 3.979,2.176 6.798,2.847c2.765,0.658 5.64,1.009 7.441,0.597c0.124,-0.137 0.66,-0.737 0.938,-1.16c0.651,-0.993 1.287,-2.097 1.991,-2.948c0.618,-0.746 1.295,-1.336 2.022,-1.702c1.666,-0.84 3.283,-1.088 4.866,-1.02c1.621,0.071 3.196,0.497 4.727,0.818c0.941,0.198 1.857,0.395 2.756,0.174Z"/><rect id="Censored" x="57.419" y="352.63" width="206.544" height="47.866"/><path d="M267.464,352.63c-0,-1.933 -1.567,-3.5 -3.5,-3.5c-0,-0 -66.416,0.575 -123.927,0.94c-43.905,0.278 -82.618,0.42 -82.618,0.42c-1.181,0 -2.139,0.958 -2.139,2.14l0.108,47.866c0,1.122 0.91,2.031 2.031,2.031c0,0 38.713,0.017 82.618,0.226c57.511,0.275 123.927,0.846 123.927,0.846c1.713,0 3.103,-1.389 3.103,-3.103l0.397,-47.866Zm-6.972,3.47l0.343,41.319c-13.789,0.116 -70.676,0.58 -120.798,0.82c-37.975,0.181 -72.066,0.218 -80.582,0.224c0,0 0.099,-43.686 0.099,-43.686c8.677,0.034 42.652,0.173 80.483,0.413c49.718,0.315 106.09,0.787 120.455,0.91l0,-0Z"/></g><path d="M157.628,262.459c-25.575,11.702 17.663,29.898 26.696,15.614c1.409,-2.229 -2.63,-6.904 -3.771,-8.478c-3.873,-5.342 -16.696,-5.798 -23.083,-5.3c-2.379,0.185 -4.307,1.505 -6.278,2.685c-1.006,0.602 -4.074,1.874 -2.907,1.979c0.87,0.078 1.797,-0 2.671,-0" style="fill:#fff"/><path d="M149.138,264.425c-0.822,0.399 -2.11,0.949 -2.718,1.332c-0.594,0.374 -0.937,0.817 -1.153,1.108c-0.933,1.258 -0.688,2.472 -0.287,3.431c0.214,0.514 0.691,1.289 1.827,1.737c0.567,3.078 2.836,6.022 6.45,8.335c9.428,6.035 27.281,7.886 32.782,-1.21c0.778,-1.21 0.784,-2.864 0.111,-4.64c-0.891,-2.351 -3.032,-5.048 -3.836,-6.2c-1.833,-2.673 -5.49,-4.458 -9.722,-5.535c-3.811,-0.97 -8.092,-1.369 -11.65,-1.451c-0.038,-0.111 -0.081,-0.22 -0.131,-0.329c-0.804,-1.757 -2.882,-2.53 -4.639,-1.726c-3.252,1.652 -5.529,3.401 -7.034,5.148Zm3.673,7.501c0.821,2.538 3.921,4.779 7.643,6.456c7.624,3.435 18.258,4.538 22.155,-1.393c0.111,-0.179 -0.075,-0.394 -0.157,-0.646c-0.184,-0.564 -0.508,-1.155 -0.868,-1.736c-0.962,-1.55 -2.233,-2.996 -2.792,-3.735c-1.407,-1.838 -4.191,-2.76 -7.255,-3.343c-4.795,-0.913 -10.343,-0.694 -13.838,-0.298c-0.616,0.072 -1.165,0.306 -1.701,0.557c-0.538,0.253 -1.051,0.559 -1.554,0.885c0.008,0.094 0.012,0.19 0.012,0.286c0,1.25 -0.657,2.348 -1.645,2.967Z" style="fill:#fff"/><g id="pies"><path d="M195.815,535.543c-4.196,-3.744 -38.817,1.689 -33.073,12.604c8.809,16.741 28.977,10.76 37.662,-1.587c4.189,-5.954 2.593,-14.405 -5.062,-14.405"/><path d="M191.999,531.115c-0.221,-0.011 -0.447,-0.018 -0.677,-0.02c-5.332,-0.063 -13.577,1.335 -20.143,3.868c-3.965,1.53 -7.33,3.453 -9.239,5.66c-2.196,2.541 -2.868,5.399 -1.124,8.537c2.85,5.272 6.733,8.417 10.988,10.036c3.169,1.205 6.559,1.55 9.978,1.186c7.929,-0.844 15.939,-5.615 20.875,-12.237c3.345,-4.395 3.794,-10.041 1.877,-13.982c-1.527,-3.139 -4.572,-5.32 -9.192,-5.508c-1.57,-0 -2.9,1.035 -3.343,2.46Zm6.906,6.07c-0.128,0.243 -0.288,0.474 -0.479,0.688c-1.226,1.374 -3.295,1.553 -4.734,0.452c-0.531,0.864 -2.728,-0.71 -4.884,-0.737c-4.65,-0.057 -10.806,0.692 -15.913,2.292c-3.165,0.991 -5.94,2.23 -7.517,3.875c-0.932,0.971 -1.352,2.089 -0.711,3.379c2.188,4.273 5.166,6.986 8.575,8.282c2.536,0.966 5.285,1.149 8.009,0.751c6.609,-0.963 13.077,-5.425 16.901,-11.192c1.407,-2.169 1.818,-4.723 1.227,-6.771c-0.108,-0.374 -0.266,-0.716 -0.474,-1.019Z"/><path d="M150.149,542.957c-6.502,-2.592 -46.946,-11.858 -45.783,4.025c1.184,16.157 42.606,22.324 52.374,10.592c4.586,-5.508 -5.706,-18.321 -8.003,-14.086"/><path d="M149.866,539.204c-6.43,-1.852 -23.807,-5.169 -35.291,-3.439c-7.813,1.177 -12.998,4.669 -12.373,11.376c0.66,8.977 12.363,15.507 25.407,17.834c7.781,1.388 15.93,1.407 22.17,-0.318c3.906,-1.08 7.074,-2.87 9.167,-5.246c1.608,-1.817 2.13,-4.212 1.881,-6.78c-0.265,-2.747 -1.579,-5.713 -3.213,-8.113c-1.501,-2.205 -3.359,-3.857 -4.911,-4.649c-0.991,-0.506 -1.961,-0.669 -2.814,-0.666l-0.023,0.001Zm-4.255,5.857c-5.745,-1.799 -16.544,-4.368 -25.607,-4.552c-4.295,-0.086 -8.185,0.3 -10.803,1.723c-1.736,0.944 -2.791,2.4 -2.67,4.592c0.545,7.474 10.891,12.196 21.791,13.892c10.556,1.643 21.96,0.377 26.212,-4.979c0.348,-0.445 0.394,-1.009 0.389,-1.583c-0.012,-1.226 -0.533,-2.532 -1.186,-3.765c-0.713,-1.345 -1.679,-2.565 -2.64,-3.465c-0.159,-0.149 -0.363,-0.299 -0.564,-0.433c-1.026,0.613 -2.339,0.684 -3.465,0.074c-0.653,-0.354 -1.148,-0.886 -1.457,-1.504Z"/></g><g id="Cara"><path d="M57.367,97.834c-0,-3.542 -7.779,-4.897 -9.948,-5.422c-2.826,-0.683 -5.651,-1.013 -8.51,-1.51c-6.474,-1.127 -16.008,-3.75 -21.127,2.4c-1.448,1.739 -2.193,7.683 -1.292,9.71c0.965,2.17 2.764,3.591 3.903,5.583c0.987,1.726 -1.738,2.141 -0.968,3.964c1.496,3.543 6.802,3.781 9.86,4.181c1.001,0.131 3.255,0.719 4.284,0.243c2.326,-1.077 4.758,-5.704 6.602,-7.498c4.065,-3.955 9.195,-6.188 13.469,-9.683c1.068,-0.873 1.582,-2.36 2.377,-3.074"/><path d="M18.305,109.085c-0.159,0.224 -0.29,0.61 -0.434,0.819c-0.298,0.433 -0.506,0.907 -0.605,1.428c-0.114,0.594 -0.078,1.262 0.239,2.038c0.79,1.977 2.412,3.264 4.378,4.103c2.297,0.981 5.129,1.265 7.1,1.568c0.733,0.116 2.089,0.456 3.233,0.522c0.925,0.053 1.757,-0.103 2.376,-0.37c0.769,-0.331 1.554,-0.919 2.34,-1.668c1.843,-1.756 3.696,-4.746 5.151,-6.075c1.14,-1.033 2.369,-1.908 3.627,-2.729c3.334,-2.177 6.886,-3.933 10.046,-6.33c0.375,-0.282 0.701,-0.619 1.017,-0.966l0.12,-0.124c0.155,0.022 0.313,0.033 0.474,0.033c1.931,-0 3.5,-1.569 3.5,-3.5c-0.085,-2.261 -1.346,-4.301 -3.723,-5.66c-2.829,-1.618 -7.345,-2.39 -9.008,-2.727c-0.908,-0.188 -1.813,-0.348 -2.721,-0.483c-2.004,-0.299 -4.007,-0.502 -6.032,-0.785c-4.089,-0.586 -9.338,-1.654 -14.013,-1.057c-3.576,0.457 -6.857,1.784 -9.254,4.793c-0.878,1.089 -1.645,3.43 -1.931,5.853c-0.284,2.401 -0.126,4.838 0.437,6.075c0.349,0.771 0.781,1.465 1.256,2.12c0.777,1.073 1.697,2.016 2.427,3.122Zm33.432,-12.153c-0.055,-0.029 -0.11,-0.054 -0.167,-0.076c-1.916,-0.75 -3.941,-1.217 -4.868,-1.478l-8.267,-1.753c-3.662,-0.751 -8.335,-2.125 -12.588,-1.804c-2.419,0.182 -4.701,0.915 -6.4,2.868c-0.56,0.652 -0.906,2.135 -1.118,3.62c-0.218,1.522 -0.315,3.08 0.03,3.873c0.223,0.511 0.505,0.971 0.816,1.405c0.973,1.358 2.146,2.533 2.985,3.997c0.453,0.778 0.534,1.462 0.476,2.066c-0.054,0.569 -0.267,1.087 -0.585,1.574c-0.137,0.211 -0.398,0.547 -0.577,0.771c0.432,0.732 1.204,1.137 2.03,1.45c1.98,0.75 4.401,0.812 6.082,0.994c0.643,0.067 2.666,0.249 3.051,0.283c0.448,-0.262 0.847,-0.78 1.292,-1.331c1.57,-1.946 3.078,-4.574 4.33,-5.872c1.271,-1.327 2.657,-2.48 4.086,-3.567c3.038,-2.312 6.323,-4.225 9.178,-6.739c0.089,-0.079 0.156,-0.177 0.214,-0.281Z"/><path d="M181.949,174.005c-0.469,2.235 -1.459,5.696 -2.874,8.168c-1.416,2.473 -3.594,4.586 -5.617,6.666c-2.062,2.121 -4.596,3.937 -6.757,6.059c-2.304,2.262 -5.077,4.851 -7.07,7.516c-1.949,2.605 -3.798,5.389 -4.89,8.472c-1.096,3.092 -1.101,6.725 -1.685,10.082c-0.606,3.485 -1.074,7.354 -1.949,10.826c-0.86,3.408 -1.776,7.764 -3.304,10.006c-1.289,1.89 -4.078,2.042 -5.865,3.447c-2.453,1.928 -5.972,6.643 -8.854,8.123c-2.524,1.296 -5.639,0.404 -8.442,0.759c-4.772,0.605 -14.51,2.989 -20.187,2.87c-4.771,-0.1 -10.215,-2.265 -13.877,-3.584c-2.872,-1.034 -5.588,-2.56 -8.095,-4.327c-2.574,-1.814 -5.002,-4.26 -7.351,-6.559c-2.638,-2.582 -6.069,-5.881 -8.475,-8.928c-2.287,-2.896 -4.339,-6.747 -5.963,-9.353c-1.294,-2.075 -3.104,-4.551 -3.784,-6.287c-0.502,-1.281 -0.471,-3.13 -0.297,-4.13c0.132,-0.759 2.08,-1.721 1.338,-1.867c-0.925,-0.182 -4.579,0.708 -6.889,0.774c-2.916,0.084 -7.105,0.243 -10.605,-0.273c-3.624,-0.534 -8.123,-1.569 -11.135,-2.93c-2.63,-1.189 -5.306,-2.91 -6.938,-5.239c-1.633,-2.328 -2.46,-5.689 -2.858,-8.731c-0.578,-4.418 -0.44,-12.779 -0.61,-17.779c-0.139,-4.075 -1.027,-8.195 -0.413,-12.223c0.702,-4.608 2.975,-10.32 4.625,-15.427c2.466,-7.626 7.767,-23.69 10.166,-30.329c1.179,-3.264 1.822,-7.041 4.229,-9.504c3.312,-3.391 10.969,-8.083 15.644,-10.842c3.928,-2.317 8.089,-4.287 12.406,-5.709c4.973,-1.637 11.689,-3.447 17.429,-4.115c5.636,-0.656 11.366,-0.405 17.016,0.107c6.704,0.607 15.677,1.386 23.21,3.538c7.665,2.188 16.197,5.883 22.781,9.596c6.076,3.426 12.513,8.902 16.718,12.678c3.242,2.912 6.567,7.055 8.508,9.976c1.503,2.261 2.196,4.988 3.139,7.546c0.96,2.609 2.097,5.313 2.626,8.108c0.672,3.55 0.632,8.841 1.404,13.195c0.815,4.595 2.895,11.108 3.486,14.379c0.311,1.719 0.418,3.535 0.059,5.245Z" style="fill:#fff"/><path d="M54.3,214.527c-0.032,0.468 -0.04,0.987 -0.012,1.516c0.05,0.949 0.223,1.925 0.536,2.735c0.264,0.683 0.671,1.466 1.159,2.293c0.833,1.413 1.921,2.986 2.781,4.379c0.992,1.609 2.144,3.69 3.413,5.73c0.839,1.349 1.73,2.68 2.655,3.862c0.994,1.271 2.158,2.585 3.371,3.876c1.776,1.893 3.661,3.738 5.258,5.318c1.413,1.398 2.855,2.848 4.339,4.187c1.068,0.963 2.159,1.868 3.275,2.664c1.324,0.945 2.705,1.824 4.134,2.609c1.46,0.801 2.97,1.5 4.523,2.069c2.307,0.846 5.306,2.018 8.411,2.832c2.091,0.547 4.23,0.928 6.258,0.983c1.855,0.051 4.119,-0.14 6.514,-0.455c5.069,-0.666 10.764,-1.9 14.069,-2.296c1.923,-0.231 3.99,0.141 5.912,-0.036c1.207,-0.111 2.367,-0.399 3.458,-0.95c1.111,-0.561 2.315,-1.496 3.519,-2.61c2.08,-1.926 4.197,-4.467 5.834,-5.735c1.129,-0.875 2.716,-1.145 3.961,-1.829c1.01,-0.555 1.877,-1.272 2.539,-2.23c0.642,-0.928 1.214,-2.144 1.713,-3.519c0.828,-2.279 1.471,-5.053 2.079,-7.397c0.286,-1.104 0.533,-2.246 0.758,-3.404c0.494,-2.552 0.87,-5.184 1.312,-7.627c0.422,-2.323 0.568,-4.78 0.99,-7.095c0.155,-0.851 0.354,-1.679 0.639,-2.463c0.487,-1.342 1.148,-2.612 1.893,-3.834c0.796,-1.307 1.695,-2.554 2.613,-3.761c0.733,-0.965 1.584,-1.913 2.471,-2.84c1.433,-1.497 2.968,-2.93 4.334,-4.251l6.861,-6.063c1.272,-1.288 2.596,-2.591 3.781,-3.976c0.902,-1.056 1.721,-2.161 2.402,-3.331c0.642,-1.1 1.212,-2.37 1.703,-3.665c0.742,-1.96 1.289,-3.979 1.619,-5.489c0.225,-1.12 0.309,-2.272 0.272,-3.426c-0.034,-1.06 -0.161,-2.121 -0.356,-3.152l-3.604,-14.347c-0.611,-3.292 -0.743,-7.138 -1.093,-10.314c-0.114,-1.041 -0.248,-2.019 -0.422,-2.899c-0.245,-1.247 -0.593,-2.479 -0.999,-3.692c-0.56,-1.672 -1.226,-3.309 -1.829,-4.91c-0.586,-1.555 -1.083,-3.171 -1.718,-4.71c-0.5,-1.212 -1.077,-2.381 -1.806,-3.461c-1.082,-1.601 -2.562,-3.555 -4.222,-5.487c-1.529,-1.779 -3.207,-3.542 -4.863,-5.007c-2.664,-2.357 -6.2,-5.368 -9.98,-8.14c-2.404,-1.762 -4.904,-3.43 -7.347,-4.783c-3.431,-1.902 -7.372,-3.796 -11.45,-5.487c-3.986,-1.653 -8.1,-3.117 -11.995,-4.202c-3.027,-0.843 -6.275,-1.476 -9.524,-1.963c-5.02,-0.753 -10.037,-1.165 -14.194,-1.515c-2.886,-0.243 -5.792,-0.419 -8.695,-0.448c-2.953,-0.03 -5.904,0.09 -8.828,0.447c-2.9,0.354 -6.04,0.987 -9.091,1.747c-3.147,0.784 -6.198,1.699 -8.785,2.567c-2.242,0.752 -4.442,1.644 -6.591,2.655c-2.132,1.002 -4.213,2.118 -6.232,3.325c-2.734,1.628 -6.474,3.915 -9.79,6.221c-2.52,1.753 -4.797,3.524 -6.266,5.04c-0.892,0.921 -1.592,1.983 -2.161,3.138c-1.096,2.225 -1.681,4.817 -2.517,7.162l-10.099,30.427c-1.125,3.492 -2.538,7.266 -3.548,10.781c-0.499,1.735 -0.902,3.411 -1.138,4.967c-0.204,1.331 -0.261,2.67 -0.234,4.015c0.058,2.852 0.516,5.728 0.61,8.582c0.111,3.372 0.079,8.27 0.222,12.459c0.072,2.099 0.189,4.026 0.382,5.519c0.249,1.923 0.664,3.964 1.312,5.831c0.488,1.406 1.111,2.715 1.885,3.826c0.768,1.103 1.733,2.093 2.816,2.969c1.502,1.216 3.237,2.212 4.957,2.996c1.339,0.61 2.953,1.164 4.661,1.641c2.327,0.651 4.833,1.16 7.029,1.491c1.426,0.214 2.96,0.325 4.484,0.374c2.346,0.075 4.667,0.002 6.497,-0.045l3.175,-0.389Zm4.451,0.099c0.283,-0.254 0.806,-0.734 0.97,-0.932c0.334,-0.405 0.49,-0.8 0.555,-1.108c0.132,-0.625 0.024,-1.176 -0.264,-1.661c-0.244,-0.411 -0.674,-0.943 -1.634,-1.128c-0.293,-0.056 -0.732,-0.084 -1.282,-0.041c-1.419,0.111 -4.211,0.743 -6.096,0.805c-1.759,0.056 -3.991,0.143 -6.248,0.085c-1.353,-0.034 -2.716,-0.12 -3.983,-0.303c-1.705,-0.245 -3.612,-0.605 -5.456,-1.061c-1.873,-0.463 -3.681,-1.022 -5.123,-1.668c-1.182,-0.53 -2.376,-1.174 -3.459,-1.949c-1.023,-0.733 -1.95,-1.578 -2.645,-2.562c-0.718,-1.017 -1.246,-2.27 -1.646,-3.596c-0.415,-1.375 -0.69,-2.828 -0.873,-4.209c-0.183,-1.387 -0.291,-3.178 -0.362,-5.129c-0.154,-4.187 -0.134,-9.083 -0.253,-12.453c-0.101,-2.836 -0.566,-5.695 -0.631,-8.53c-0.025,-1.111 0.015,-2.219 0.181,-3.319c0.282,-1.84 0.833,-3.864 1.487,-5.954c0.95,-3.031 2.119,-6.192 3.078,-9.15c1.433,-4.399 3.814,-11.612 6.043,-18.193c1.624,-4.794 3.169,-9.251 4.189,-12.038c0.695,-1.9 1.201,-3.98 1.997,-5.859c0.448,-1.057 0.99,-2.047 1.782,-2.851c1.326,-1.346 3.391,-2.897 5.659,-4.448c3.244,-2.217 6.902,-4.411 9.574,-5.973c1.904,-1.109 3.864,-2.134 5.87,-3.05c1.997,-0.913 4.04,-1.717 6.12,-2.389c2.491,-0.805 5.427,-1.65 8.453,-2.369c2.864,-0.68 5.81,-1.245 8.529,-1.546c2.715,-0.301 5.451,-0.381 8.189,-0.322c2.779,0.06 5.558,0.266 8.318,0.533c4.054,0.394 8.948,0.856 13.839,1.655c3.025,0.494 6.05,1.119 8.864,1.943c3.679,1.076 7.56,2.513 11.316,4.133c3.851,1.66 7.568,3.516 10.8,5.371c2.221,1.274 4.487,2.842 6.667,4.491c3.582,2.709 6.923,5.645 9.442,7.942c1.441,1.313 2.892,2.893 4.216,4.481c1.464,1.755 2.767,3.525 3.716,4.976c0.482,0.738 0.848,1.542 1.174,2.367c0.588,1.489 1.038,3.052 1.579,4.555c0.553,1.537 1.169,3.107 1.68,4.71c0.304,0.956 0.566,1.924 0.744,2.904c0.507,2.798 0.541,6.696 0.916,10.332c0.1,0.973 0.224,1.928 0.379,2.845c0.162,0.962 0.376,2.002 0.62,3.08c0.92,4.083 2.301,8.74 2.747,11.331c0.118,0.685 0.194,1.388 0.205,2.09c0.01,0.615 -0.04,1.228 -0.17,1.822c-0.213,1.057 -0.549,2.417 -1.005,3.794c-0.39,1.182 -0.858,2.383 -1.423,3.388c-0.465,0.827 -1.034,1.606 -1.655,2.355c-1.06,1.279 -2.255,2.48 -3.395,3.671l-6.652,6.053c-1.402,1.398 -2.974,2.917 -4.443,4.5c-1.043,1.123 -2.036,2.276 -2.893,3.442c-1.241,1.685 -2.441,3.44 -3.452,5.289c-0.713,1.306 -1.337,2.656 -1.822,4.06c-0.386,1.114 -0.659,2.284 -0.859,3.489c-0.387,2.324 -0.495,4.786 -0.882,7.117c-0.349,2.093 -0.648,4.324 -1.015,6.525c-0.232,1.393 -0.49,2.774 -0.814,4.095c-0.46,1.88 -0.932,4.056 -1.525,5.988c-0.373,1.215 -0.767,2.328 -1.291,3.109c-0.137,0.204 -0.341,0.33 -0.553,0.45c-1.487,0.844 -3.333,1.314 -4.676,2.385c-1.719,1.37 -3.955,4.072 -6.135,6.147c-0.768,0.73 -1.508,1.382 -2.22,1.754c-0.458,0.239 -0.953,0.344 -1.463,0.398c-1.965,0.208 -4.086,-0.128 -6.052,0.134c-3.315,0.444 -9.02,1.761 -14.104,2.5c-2.089,0.303 -4.064,0.512 -5.686,0.49c-1.652,-0.025 -3.395,-0.332 -5.103,-0.758c-2.945,-0.735 -5.791,-1.821 -7.982,-2.596c-1.324,-0.468 -2.613,-1.049 -3.86,-1.715c-1.268,-0.678 -2.495,-1.44 -3.672,-2.26c-0.977,-0.68 -1.931,-1.457 -2.868,-2.283c-1.443,-1.272 -2.846,-2.654 -4.222,-3.985c-1.576,-1.526 -3.438,-3.306 -5.191,-5.136c-1.125,-1.174 -2.206,-2.369 -3.129,-3.526c-0.837,-1.05 -1.64,-2.234 -2.402,-3.433c-1.284,-2.023 -2.452,-4.087 -3.456,-5.682c-0.858,-1.362 -1.943,-2.896 -2.774,-4.277c-0.354,-0.588 -0.661,-1.138 -0.854,-1.624c-0.159,-0.399 -0.226,-0.886 -0.255,-1.355c-0.025,-0.415 -0.019,-0.82 0.01,-1.163Z"/><path d="M160.783,167.756c-0.887,0.926 -1.231,2.307 -0.772,3.597c1.048,1.817 2.068,2.499 3.069,2.425c0.713,-0.054 1.558,0.091 2.256,-0.535c0.247,-0.222 0.641,-0.38 0.883,-0.792c0.199,-0.341 0.58,-0.823 0.77,-1.548c0.252,-0.962 0.488,-2.403 0.68,-3.084c0.384,-1.199 0.739,-2.361 1.453,-3.319c0.67,-0.898 1.544,-1.625 2.611,-2.166c0.706,-0.259 1.5,0.077 2.272,0.403c1.094,0.462 2.016,1.269 2.765,1.852l1.605,1.707c-0.049,-0.05 -0.234,-0.168 -0.234,-0.168c-0,-0 0.514,0.675 0.679,0.87c0.761,0.896 1.741,0.793 2.078,0.876c0.424,0.104 0.796,-0.078 1.149,-0.109c0.997,-0.089 1.525,-0.896 2.161,-1.681c0.836,-1.502 0.448,-3.357 -0.838,-4.409c0.086,-0.329 -0.916,-0.635 -1.089,-0.721l-2.62,-1.368c-1.43,-0.592 -3.359,-1.313 -5.255,-1.52c-1.58,-0.173 -3.109,-0.157 -4.38,0.539c-1.683,0.691 -3.002,1.773 -4.232,2.949c-1.199,1.147 -2.216,2.444 -3.149,3.92c-0.327,0.477 -1.593,1.552 -1.862,2.282Zm5.234,0.206c0.249,0.303 0.45,0.653 0.589,1.043c-0.079,-0.49 -0.319,-0.806 -0.589,-1.043Zm12.336,-5.684c-0.106,0.117 -0.205,0.241 -0.26,0.399c0.078,-0.141 0.165,-0.274 0.26,-0.399Zm1.756,-1.238c-0.678,0.136 -1.165,0.453 -1.474,0.906c0.413,-0.427 0.923,-0.735 1.474,-0.906Z"/><path d="M165.878,176.956c-0.669,1.265 -0.515,2.867 0.501,3.988c0.348,0.164 0.421,0.365 0.507,0.393c0.398,0.128 0.51,0.446 0.704,0.46c0.197,0.014 0.295,0.195 0.449,0.184c0.537,-0.038 0.891,0.326 1.227,0.17c0.273,-0.127 0.562,0.041 0.771,-0.124c0.599,-0.469 1.437,-0.37 1.666,-1.059c0.048,-0.147 0.232,-0.191 0.263,-0.349c0.043,-0.222 0.307,-0.331 0.307,-0.579c-0,-0.205 0.12,-0.411 0.217,-0.635c0.044,0.044 0.091,0.086 0.138,0.128c1.456,1.269 3.669,1.118 4.939,-0.338c0.126,-0.354 0.476,-0.506 0.508,-0.832c0.019,-0.195 0.196,-0.313 0.188,-0.5c-0.031,-0.761 0.455,-1.422 0.03,-2.054c-0.302,-0.449 -0.246,-1.094 -0.792,-1.444c-0.275,-0.175 -0.412,-0.48 -0.745,-0.62c-0.348,-0.146 -0.672,-0.255 -0.875,-0.342c-1.313,-0.652 -2.141,-1.141 -3.129,-1.158c-1.002,-0.018 -2.087,-0.032 -3.383,0.891c-0.811,0.277 -1.386,0.934 -2.057,1.527c-0.719,0.635 -1.014,1.452 -1.434,2.293Zm6.633,1.119l-0.003,0.09c0.011,-0.035 0.016,-0.069 0.003,-0.09l0,-0Zm-1.074,-1.398c-0.148,0.152 -0.104,0.411 -0.178,0.625c-0.074,0.217 0.26,0.353 0.295,0.576c-0.004,-0.023 -0.006,-0.047 -0.004,-0.07c-0.099,-0.369 -0.137,-0.751 -0.113,-1.131Zm0.294,0.405l-0.011,0.081c-0.011,0.059 0.001,0.112 0.026,0.163c0.03,-0.085 0.037,-0.168 -0.015,-0.244Zm0.009,-0.145l-0.003,0.083l0.01,-0.005l0.028,-0.007l-0.015,-0.031c-0.006,-0.016 -0.011,-0.033 -0.016,-0.049l-0.006,-0.026l0.002,0.035Zm0.112,-0.373c-0.024,0.005 -0.048,0.01 -0.072,0.015l-0.077,0.013l0.02,0.12l0.012,0.111c0.004,-0.039 0.019,-0.074 0.048,-0.107c0.03,-0.033 0.062,-0.1 0.09,-0.16l-0.021,0.008Zm-0.349,-0.386l0.003,-0.013l-0.026,-0.011l0.023,0.024Zm0.632,-1.39c0.048,-0.066 0.101,-0.13 0.155,-0.193c-0.083,0.043 -0.125,0.115 -0.155,0.193Z"/><path d="M149.478,126.908c-1.114,0.815 -1.94,3.262 -2.494,4.45c-1.689,3.621 -2.951,7.396 -4.138,11.22c-0.464,1.492 -2.254,3.426 -1.731,5.07c0.606,1.904 2.932,1.673 4.342,1.025c0.123,-0.056 1.846,-0.955 1.908,-0.782c0.623,1.751 -0.381,5.225 -0.381,7.121c-0,0.977 -0.347,2.251 0.616,2.804c5.231,3.007 11.815,-0.525 17.43,0.297c1.972,0.288 4.081,0.049 6.016,0.405c4.365,0.803 8.774,4.451 12.735,0.377c0.714,-0.735 1.587,-1.449 2.23,-2.238c0.452,-0.554 0.525,-1.365 0.763,-2.023c2.212,-6.092 -1.954,-9.041 -3.491,-14.402c-0.597,-2.081 -0.236,-5.492 -1.908,-7.04c-0.352,-0.326 1.248,-1.591 1.408,-1.807c0.843,-1.133 1.079,-2.543 0.852,-3.965c-0.443,-2.76 -1.558,-3.08 -3.463,-4.53c-0.485,-0.369 -1.286,-1.636 -1.849,-1.807c-2.403,-0.734 -5.807,-0.015 -8.158,0.512c-4.044,0.907 -8.163,1.537 -12.295,1.537c-2.358,0 -5.331,-0.05 -7.542,0.971c-0.924,0.426 -2.843,1.8 -1.085,2.239"/><path d="M145.224,126.91c-0.526,1.069 -0.957,2.272 -1.285,3.028c-0.671,1.546 -1.274,3.111 -1.823,4.698c-0.802,2.317 -1.504,4.668 -2.171,7.042c-0.365,1.282 -1.556,2.904 -1.774,4.39c-0.124,0.844 -0.098,1.67 0.175,2.461c0.619,1.794 1.827,2.807 3.319,3.222c0.938,0.26 2.016,0.259 3.031,0.07c-0.138,1.188 -0.296,2.341 -0.276,3.191c0.019,0.941 -0.086,2.077 0.232,2.94c0.303,0.822 0.806,1.543 1.701,2.034c2.001,1.098 4.129,1.491 6.339,1.462c3.965,-0.054 8.201,-1.665 12.021,-1.171l5.949,0.324c3.3,0.58 6.66,2.564 9.812,2.178c1.622,-0.199 3.228,-0.882 4.76,-2.472l2.35,-2.368c0.266,-0.325 0.472,-0.692 0.632,-1.087c0.2,-0.489 0.296,-1.045 0.472,-1.524c0.773,-2.078 0.901,-3.862 0.691,-5.495c-0.451,-3.518 -2.887,-6.244 -3.968,-10.212c-0.385,-1.433 -0.313,-3.483 -0.754,-5.14c-0.112,-0.421 -0.254,-0.821 -0.426,-1.196c0.229,-0.221 0.427,-0.418 0.47,-0.474c0.66,-0.852 1.073,-1.822 1.296,-2.845c0.206,-0.941 0.217,-1.935 0.077,-2.936c-0.204,-1.47 -0.61,-2.445 -1.098,-3.225c-0.723,-1.154 -1.759,-1.813 -3.229,-2.986c0.026,0.021 0.089,0.068 0.089,0.068c-0,0 -0.866,-1.077 -1.308,-1.493c-0.483,-0.455 -1,-0.715 -1.428,-0.856c-1.246,-0.412 -2.71,-0.527 -4.214,-0.472c-1.871,0.067 -3.812,0.433 -5.347,0.737c-1.946,0.383 -3.907,0.694 -5.876,0.902c-1.927,0.204 -3.86,0.292 -5.793,0.242c-1.539,-0.041 -3.315,-0.085 -5.019,0.089c-1.4,0.144 -2.745,0.469 -3.947,0.982c-0.877,0.375 -2.185,1.28 -2.874,2.107c-0.576,0.692 -0.829,1.453 -0.936,2.111c-0.095,0.579 -0.046,1.136 0.13,1.674Zm31.955,-3.365c-0.812,-0.144 -1.739,-0.061 -2.661,0.06c-1.331,0.174 -2.648,0.511 -3.726,0.782c-2.094,0.527 -4.208,0.975 -6.337,1.313c-2.183,0.347 -4.379,0.56 -6.585,0.618c-1.093,0.029 -2.327,0.051 -3.542,0.192c-0.46,0.053 -0.917,0.129 -1.354,0.239c0.048,1.07 -0.396,2.143 -1.275,2.864c0.729,0.747 -1.271,2.366 -1.671,3.165c-0.85,1.701 -1.605,3.436 -2.295,5.202c-0.708,1.812 -1.357,3.648 -1.986,5.498c-0.221,0.656 -0.599,1.387 -1.033,2.13c-0.075,0.128 -0.164,0.29 -0.254,0.46c0.416,-0.192 1.466,-0.675 1.942,-0.801c2.242,-0.594 3.318,1.038 3.538,1.707c0.284,0.863 0.389,1.984 0.285,3.213c-0.142,1.652 -0.649,3.581 -0.678,4.825c-0.005,0.248 -0.034,0.659 -0.059,0.972c1.021,0.468 2.108,0.646 3.228,0.672c4.152,0.097 8.649,-1.359 12.631,-0.708l6.082,0.486c2.571,0.495 5.141,2.033 7.64,2.281c1.118,0.112 2.208,-0.162 3.259,-1.233l2.111,-2.107l0.422,-1.436c0.657,-1.857 0.575,-3.338 0.138,-4.698c-0.884,-2.751 -2.852,-5.114 -3.845,-8.399c-0.386,-1.266 -0.445,-3.015 -0.781,-4.564c-0.115,-0.532 -0.232,-1.047 -0.59,-1.366c-0.709,-0.631 -1.024,-1.527 -0.671,-2.676c0.169,-0.55 1.422,-1.934 1.786,-2.326c0.181,-0.27 0.277,-0.577 0.333,-0.89c0.069,-0.391 0.038,-0.799 -0.035,-1.209c-0.125,-0.681 -0.282,-1.086 -0.566,-1.386c-0.501,-0.526 -1.189,-0.852 -2.034,-1.465c-0.31,-0.225 -1.061,-1.028 -1.417,-1.415Zm-26.839,-0.526c-0.077,-0.029 -0.16,-0.054 -0.249,-0.073c0.085,0.021 0.168,0.045 0.249,0.073Z"/><path d="M59.01,95.918c1.812,-0.415 4.218,2.384 5.722,3.264c4.881,2.856 10.053,5.144 14.966,7.983c1.479,0.855 2.927,1.772 4.313,2.778c0.369,0.268 1.306,0.991 1.82,0.756c1.323,-0.607 1.945,-3.683 1.555,-4.936c-0.149,-0.477 -0.422,-0.899 -0.675,-1.322c-0.143,-0.239 -0.544,-0.973 -0.411,-0.728c1.085,2.01 4.37,3.149 6.074,4.532c6.328,5.133 12.256,10.602 20.834,11.246c1.322,0.1 4.618,0.991 5.283,-0.539c0.721,-1.663 -1.377,-3.543 -2.465,-4.423c-0.057,-0.046 -1.153,-0.992 -1.203,-0.945c-0.324,0.3 2.788,2.516 2.992,2.643c3.928,2.444 8.274,4.24 12.384,6.338c5.599,2.86 12.292,4.316 18.575,4.316c0.66,0 1.942,-0.543 1.995,-1.321c0.024,-0.361 0.138,-1.213 -0.058,-1.538c-0.106,-0.175 -1.012,-1.18 -0.647,-0.62c3.284,5.03 11.697,4.899 16.786,3.587c1.11,-0.287 2.45,-0.239 3.432,-0.917c1.252,-0.863 1.491,-1.894 2.055,-3.237c0.084,-0.201 0.077,-1.345 0.264,-1.402c0.832,-0.254 2.029,0.454 2.788,0.675c1.938,0.562 3.823,1.331 5.78,0.727c2.733,-0.844 5.829,-0.257 8.686,-1.132c1.051,-0.323 2.684,-1.175 2.817,-2.536c0.655,-6.689 -6.654,-10.994 -11.913,-13.081c-1.866,-0.74 -3.654,-1.515 -5.634,-1.861c-0.632,-0.11 -1.233,-0.208 -1.849,-0.377c-0.341,-0.094 -1.381,-0.27 -1.027,-0.27c2.053,0 4.083,1.544 6.279,1.079c2.795,-0.591 0.218,-4.829 -0.792,-5.61c-1.413,-1.093 -3.14,-1.697 -4.695,-2.535c-3.199,-1.724 -5.945,-3.698 -9.566,-4.45c-2.282,-0.474 -4.489,-0.286 -6.779,-0.512c-0.364,-0.037 -1.86,0.044 -2.142,-0.216c-0.104,-0.097 2.517,-2.729 2.583,-3.399c0.25,-2.515 -2.783,-5.543 -4.578,-6.932c-3.252,-2.515 -7.429,-2.85 -11.356,-3.289c-1.272,-0.143 -3.435,-0.699 -4.725,-0.27c-1.865,0.62 -3.319,2.16 -5.047,3.02c-0.135,0.067 -1.377,0.823 -1.467,0.782c-0.176,-0.08 -0.49,-1.164 -0.587,-1.348c-0.676,-1.289 -1.464,-2.648 -2.347,-3.803c-1.424,-1.861 -4.918,-3.444 -7.219,-3.883c-5.444,-1.039 -9.312,0.978 -14.174,2.993c-0.634,0.263 -1.503,0.385 -2.024,0.864c-0.4,0.367 -1.438,2.791 -2.348,2.238c-1.684,-1.025 -3.099,-3.797 -4.548,-5.233c-2.776,-2.75 -8.261,-4.409 -12.148,-3.857c-1.993,0.283 -6.529,1.122 -8.011,2.401c-1.922,1.66 -4.258,4.959 -6.514,5.987c-0.709,0.323 -3.385,-1.809 -4.108,-2.13c-2.633,-1.169 -6.831,-0.43 -8.687,1.888c-3.739,4.673 -1.737,10.33 0.91,14.969c1.321,2.315 1.82,4.408 4.255,3.748"/><path d="M69.731,74.138c-0.836,-0.539 -2.159,-1.38 -2.517,-1.543c-1.857,-0.847 -4.271,-1.06 -6.557,-0.618c-2.376,0.46 -4.559,1.664 -5.943,3.357c-2.04,2.492 -2.826,5.216 -2.841,7.981c-0.02,3.644 1.47,7.405 3.308,10.715c0.169,0.303 0.325,0.601 0.475,0.891c-0.168,0.559 -0.197,1.169 -0.058,1.778c0.373,1.63 1.83,2.732 3.436,2.719c-0.046,0.517 1.248,0.691 1.791,1.127c0.8,0.642 1.555,1.241 2.176,1.595l15.073,7.835l4.063,2.551c0.534,0.378 1.757,1.149 2.698,1.319c0.857,0.154 1.646,0.049 2.315,-0.266c1.129,-0.531 2.227,-1.737 2.835,-3.356c0.175,0.118 0.341,0.237 0.494,0.358c3.991,3.176 7.844,6.461 12.217,8.715c3.114,1.605 6.478,2.717 10.304,2.968c1.273,0.083 4.015,0.555 5.583,-0.02c0.858,-0.315 1.544,-0.812 2.021,-1.5c2.793,1.406 5.676,2.661 8.455,4.052c2.992,1.498 6.268,2.627 9.635,3.368c3.339,0.735 6.765,1.097 10.08,1.071c0.753,-0.005 1.938,-0.33 2.791,-0.943c0.101,-0.073 0.198,-0.149 0.289,-0.229c1.112,0.618 2.341,1.076 3.641,1.387c3.966,0.952 8.583,0.551 11.905,-0.328c0.795,-0.211 1.705,-0.261 2.526,-0.507c0.569,-0.17 1.107,-0.408 1.595,-0.748c0.758,-0.528 1.273,-1.095 1.673,-1.715c0.414,-0.644 0.681,-1.354 1.014,-2.175c0.229,0.079 0.441,0.149 0.583,0.19c1.264,0.36 2.511,0.787 3.761,0.943c1.073,0.134 2.15,0.091 3.242,-0.251c2.085,-0.654 4.4,-0.396 6.636,-0.72c0.686,-0.099 1.366,-0.24 2.035,-0.448c0.887,-0.277 2.06,-0.841 2.899,-1.65c0.756,-0.729 1.264,-1.636 1.362,-2.673c0.317,-3.298 -0.902,-6.137 -2.95,-8.495c-2.643,-3.042 -6.722,-5.254 -10.095,-6.605c0.078,-0.287 0.123,-0.592 0.14,-0.907c0.117,-2.104 -1.855,-5.179 -2.829,-5.938c-0.505,-0.393 -1.044,-0.735 -1.601,-1.047c-1.096,-0.613 -2.274,-1.092 -3.368,-1.686c-1.952,-1.063 -3.74,-2.212 -5.652,-3.133c-1.395,-0.672 -2.853,-1.227 -4.465,-1.571c-0.768,-0.164 -1.529,-0.261 -2.287,-0.325c-0.942,-0.078 -1.879,-0.096 -2.823,-0.134c0.344,-0.568 0.493,-1.074 0.525,-1.375c0.155,-1.48 -0.389,-3.118 -1.372,-4.639c-1.125,-1.74 -2.813,-3.341 -4.018,-4.283c-1.518,-1.191 -3.21,-1.979 -4.991,-2.525c-2.408,-0.738 -4.989,-1.01 -7.478,-1.307c-0.923,-0.11 -2.289,-0.418 -3.496,-0.464c-0.824,-0.032 -1.595,0.057 -2.235,0.265c-0.735,0.238 -1.423,0.583 -2.087,0.982c-0.88,0.53 -1.698,1.194 -2.567,1.725c-0.3,-0.553 -0.619,-1.109 -0.954,-1.649c-0.359,-0.578 -0.738,-1.137 -1.132,-1.662c-0.747,-0.992 -1.927,-1.95 -3.284,-2.75c-1.766,-1.041 -3.836,-1.811 -5.42,-2.128c-2.498,-0.5 -4.715,-0.434 -6.833,-0.041c-2.957,0.548 -5.709,1.796 -8.839,3.06c-0.467,0.189 -1.049,0.311 -1.548,0.531c-0.478,0.211 -0.907,0.487 -1.275,0.819c-0.077,0.07 -0.228,0.258 -0.404,0.495c-0.932,-1.209 -1.817,-2.589 -2.708,-3.488c-1.66,-1.679 -4.131,-3.06 -6.787,-3.918c-2.621,-0.847 -5.414,-1.158 -7.735,-0.853c-1.464,0.193 -4.178,0.659 -6.301,1.353c-1.388,0.454 -2.55,1.058 -3.266,1.664c-1.343,1.136 -2.892,3.038 -4.468,4.459c-0.132,0.119 -0.262,0.233 -0.392,0.34Zm35.732,3.965c-0.426,0.624 -1.448,2.054 -2.11,2.472c-1.161,0.734 -2.352,0.745 -3.503,0.058c-0.556,-0.332 -1.098,-0.783 -1.622,-1.317c-1.232,-1.255 -2.345,-3.163 -3.474,-4.26c-1.117,-1.085 -2.799,-1.897 -4.561,-2.427c-1.776,-0.533 -3.655,-0.754 -5.213,-0.517c-0.907,0.139 -2.384,0.41 -3.812,0.791c-1.069,0.286 -2.141,0.552 -2.642,0.994c-1.28,1.129 -2.737,3.015 -4.239,4.427c-0.972,0.912 -1.981,1.647 -2.957,2.104c-0.617,0.289 -1.5,0.446 -2.576,0.159c-1.15,-0.305 -3.419,-1.94 -4.097,-2.233c-0.774,-0.334 -1.778,-0.31 -2.719,-0.108c-0.845,0.182 -1.671,0.532 -2.153,1.147c-1.229,1.57 -1.435,3.309 -1.169,5.025c0.336,2.158 1.388,4.283 2.52,6.215c0.416,0.71 1.255,1.413 1.479,1.954c1.462,0.083 2.773,1.087 3.177,2.578c0.062,0.228 0.099,0.456 0.114,0.683c0.196,0.144 0.383,0.271 0.557,0.376l14.859,8.131l2.842,1.872l-0.108,-0.196c-0.116,-0.198 -0.386,-0.697 -0.462,-0.839l-0.008,-0.013c-6.639,-11.98 -7.361,-16.636 -5.24,-16.074c0.766,-2.006 4.327,1.117 10.626,13.064l0.019,0.033l0.086,0.152c0.238,0.363 0.658,0.632 1.081,0.917c1.407,0.947 3.048,1.757 4.112,2.637c3.632,3.004 7.104,6.149 11.105,8.308c2.422,1.307 5.041,2.249 8.041,2.503c0.228,0.019 0.513,0.061 0.832,0.111c-0.537,-0.43 -1.034,-0.861 -1.304,-1.171c-1.536,-1.768 -0.576,-3.417 0.071,-4.028c0.226,-0.213 1.767,-1.335 3.478,-0.15c0.345,0.239 1.164,0.926 1.216,0.967c0.545,0.433 1.251,1.066 1.888,1.801c0.992,0.615 2.01,1.19 3.044,1.738c2.864,1.52 5.839,2.859 8.697,4.347c2.613,1.361 5.483,2.396 8.437,3.095c2.726,0.644 5.52,1.01 8.25,1.084c-0.25,-0.42 -0.3,-0.704 -0.323,-0.818c-0.164,-0.802 0.096,-1.339 0.304,-1.68c0.361,-0.591 0.901,-0.965 1.645,-1.078c0.262,-0.039 1.042,-0.129 1.86,0.538c0.283,0.23 1.063,1.133 1.192,1.344c0.068,0.11 0.131,0.235 0.188,0.372c1.339,1.256 3.249,1.867 5.236,2.148c2.838,0.4 5.877,0.093 8.173,-0.483l2.744,-0.579c0.296,-0.203 0.475,-0.423 0.611,-0.674c0.224,-0.412 0.385,-0.867 0.591,-1.371c0.039,-0.328 0.142,-1.126 0.237,-1.394c0.333,-0.943 1.009,-1.324 1.488,-1.468c0.586,-0.176 1.25,-0.193 1.939,-0.044c0.726,0.156 1.514,0.556 2.076,0.722c1.047,0.309 2.073,0.701 3.111,0.84c0.478,0.064 0.959,0.072 1.447,-0.077c0.672,-0.204 1.362,-0.341 2.064,-0.431c2.163,-0.278 4.473,-0.012 6.638,-0.665l1.372,-0.749c0.21,-2.107 -0.639,-3.897 -1.943,-5.408c-2.253,-2.613 -5.803,-4.442 -8.665,-5.584c-1.081,-0.431 -2.133,-0.876 -3.217,-1.234l-0.117,-0.037c-0.152,-0.02 -0.304,-0.046 -0.455,-0.076c-0.465,-0.091 -0.923,-0.24 -1.376,-0.397l-0.068,-0.012l-2.037,-0.417c-0.277,-0.076 -0.974,-0.208 -1.155,-0.267c-2.265,-0.74 -1.256,-2.95 -0.866,-3.355c0.111,-0.115 0.514,-0.626 1.53,-0.627c1.055,-0.001 2.11,0.348 3.18,0.672l0.043,0.009c0.571,0.099 1.128,0.229 1.675,0.383c-0.308,-0.66 -0.382,-1.727 -0.666,-1.946c-0.468,-0.359 -0.979,-0.648 -1.504,-0.915c-0.965,-0.493 -1.972,-0.915 -2.918,-1.42c-1.897,-1.012 -3.631,-2.119 -5.49,-2.992c-1.103,-0.519 -2.253,-0.948 -3.525,-1.205c-0.59,-0.119 -1.175,-0.184 -1.756,-0.226c-1.597,-0.116 -3.18,-0.063 -4.804,-0.215c-0.375,-0.035 -1.738,-0.015 -2.341,-0.187c-0.483,-0.137 -0.83,-0.37 -1.063,-0.583c-0.171,-0.157 -1.253,-1.763 0.049,-3.336c0.377,-0.456 1.42,-1.734 1.814,-2.217c-0.09,-0.669 -0.595,-1.342 -1.104,-1.998c-0.828,-1.066 -1.876,-2.005 -2.652,-2.599c-1.081,-0.824 -2.29,-1.345 -3.55,-1.712c-2.157,-0.628 -4.469,-0.804 -6.693,-1.036c-0.737,-0.077 -1.78,-0.295 -2.769,-0.37c-0.349,-0.026 -0.687,-0.06 -0.95,0.03c-0.388,0.133 -0.745,0.333 -1.095,0.55c-1.229,0.766 -2.36,1.742 -3.625,2.384c-0.114,0.057 -0.99,0.592 -1.363,0.769c-1.092,0.517 -1.959,0.16 -2.182,0.06c-0.315,-0.141 -0.795,-0.448 -1.176,-1.078c-0.167,-0.277 -0.489,-1.115 -0.596,-1.398l-2.119,-3.381c-0.532,-0.683 -1.483,-1.261 -2.478,-1.756c-1.11,-0.553 -2.306,-0.96 -3.256,-1.133c-1.794,-0.325 -3.38,-0.249 -4.89,0.059c-2.618,0.534 -5.024,1.735 -7.785,2.908c-0.302,0.129 -0.892,0.33 -1.197,0.43Z"/><path d="M153.688,167.256c-0.446,0.645 -0.848,1.541 -0.748,2.487l-0.229,-0.098c-0.718,-0.283 -1.211,-0.25 -1.297,-0.249c-0.31,0.003 -3.897,2.731 -2.99,4.92c-0.204,-0.03 -0.406,-0.052 -0.606,-0.066c-1.778,-0.123 -2.512,0.847 -2.798,1.197c-0.586,0.715 -0.82,1.541 -0.698,2.478c0.064,0.492 0.264,1.328 1.147,2.076c0.216,0.183 1.24,0.713 1.66,0.923l3.221,1.563c0.49,0.219 1.163,0.544 1.947,0.903c1.807,1.489 3.478,3.26 4.715,4.712c-0.165,-0.055 -0.329,-0.113 -0.493,-0.174c-1.439,-1.156 -3.16,-2.455 -4.838,-3.336c-1.567,-0.823 -3.135,-1.288 -4.516,-1.293c-0.018,-0 -2.187,1.54 -2.651,3.25c-0.65,0.418 -0.94,0.963 -1.11,1.358c-0.359,0.832 -0.383,1.741 0.145,2.695c0.132,0.237 0.346,0.539 0.679,0.834c-0.178,0.004 -0.33,0.025 -0.448,0.045c-0.978,0.169 -1.801,0.691 -2.189,1.884c-0.085,0.26 -0.302,0.864 0.012,1.817c0.217,0.656 0.447,1.304 0.686,1.946c-0.647,-0.083 -1.375,0.067 -2.126,0.768c-0.909,0.848 -1.217,1.85 -1.081,2.971c0.07,0.574 0.297,1.224 0.67,1.875c0.3,0.524 0.783,1.064 0.972,1.546l0.412,1.135c-0.313,0.013 -0.59,0.089 -0.818,0.175c-0.553,0.208 -1.06,0.581 -1.389,1.259c-0.07,0.143 -0.529,0.845 -0.078,2.079c0.786,2.15 1.72,4.213 2.652,6.275c-0.194,-0.005 -0.381,0.002 -0.561,0.021l-0.169,0.024c-0.934,-0.155 -1.621,0.4 -1.934,0.68l-0.026,0.025c-0.129,0.085 -0.251,0.178 -0.368,0.277c-0.324,-0.319 -0.654,-0.632 -0.99,-0.938c-0.978,-0.892 -2.432,-2.195 -3.917,-2.937c-0.427,-0.213 -0.859,-0.387 -1.291,-0.517c-0.811,-0.784 -1.651,-1.53 -2.523,-2.235c-1.716,-1.387 -3.551,-2.614 -5.525,-3.64c-1.134,-0.589 -2.975,-1.502 -4.643,-1.728c-1.249,-0.169 -2.438,-0.016 -3.459,0.49c-0.442,0.219 -0.858,0.529 -1.182,0.957c-0.678,-0.379 -1.362,-0.723 -2.043,-1.012c-2.12,-0.901 -4.232,-1.307 -6.157,-1.024c-1.687,-0.923 -3.409,-1.754 -5.175,-2.402c-0.776,-0.284 -2.589,-0.748 -3.974,-0.619c-1.345,0.125 -2.412,0.715 -3.067,1.598c-0.753,-0.405 -1.517,-0.767 -2.284,-1.062c-2.132,-0.822 -4.294,-1.171 -6.373,-0.807c-0.608,0.107 -1.108,0.301 -1.516,0.563c-0.304,-0.148 -0.61,-0.291 -0.918,-0.427c-1.614,-0.712 -3.276,-1.252 -4.975,-1.48c-3.582,-0.479 -4.743,1.267 -5.064,2.722c-0.045,0.205 -0.071,0.428 -0.075,0.665c-1.427,0.064 -2.357,0.577 -2.954,1.157c-0.289,0.281 -0.529,0.604 -0.713,0.963c-0.929,-0.369 -1.854,-0.647 -2.644,-0.713c-1.529,-0.128 -2.756,0.33 -3.586,1.25c-0.815,-0.442 -1.657,-0.837 -2.446,-1.099c-2.254,-0.75 -4.222,-0.419 -5.4,0.804c-0.914,0.95 -1.282,2.401 -0.951,4.079c-0.36,0.192 -0.683,0.462 -0.965,0.802c-0.416,0.501 -0.801,1.496 -0.621,2.81c0.197,1.441 1.084,3.751 1.196,4.173c0.189,0.715 0.384,1.434 0.587,2.153c-0.38,0.24 -0.708,0.597 -0.905,1.135c-0.057,0.157 -0.364,0.812 0.119,1.857c0.265,0.571 0.578,1.114 0.916,1.642c0.342,0.535 0.712,1.054 1.071,1.579l0.049,0.105c0.197,0.448 0.386,0.948 0.721,1.809c1.112,2.871 2.206,7.803 4.075,11.475c1.07,2.102 2.405,3.818 4.007,4.812c0.735,0.457 1.403,0.428 1.971,0.235c0.508,-0.174 1.094,-0.549 1.424,-1.365c0.249,-0.613 0.186,-2.815 0.171,-2.995c-0.031,-0.379 -0.112,-0.823 -0.221,-1.308c1.392,1.799 3.368,4.801 5.505,6.83c1.37,1.301 2.835,2.221 4.254,2.525c0.874,0.187 1.569,-0.054 2.13,-0.572c0.112,-0.103 0.228,-0.232 0.337,-0.389l0.086,0.159c0.694,1.228 2.45,4.435 4.413,6.105c1.506,1.281 3.168,1.752 4.72,1.212c0.706,-0.246 1.249,-0.74 1.578,-1.468c0.039,-0.088 0.074,-0.183 0.103,-0.284c1.012,1.262 2.137,2.315 3.368,3.01c0.996,0.563 1.814,0.575 2.433,0.418c0.919,-0.233 1.672,-0.896 2.053,-2.028c0.547,-1.625 0.032,-4.945 -0.119,-5.585c0.479,0.712 0.962,1.422 1.45,2.127c0.954,1.375 1.932,2.732 2.958,4.051c0.371,0.477 1.309,1.821 2.302,2.469c0.941,0.614 1.95,0.77 2.896,0.429c0.764,-0.275 1.347,-0.851 1.659,-1.717c0.179,-0.497 0.223,-1.175 0.202,-1.836l0.023,0.025c0.451,0.483 1.816,1.983 3.095,2.631c1.2,0.608 2.387,0.607 3.351,0.028c0.476,-0.285 0.91,-0.775 1.063,-1.556c0.071,-0.362 0.001,-0.962 -0.107,-1.545c0.855,0.245 1.664,0.248 2.355,0.007c0.82,-0.285 1.534,-1.015 1.631,-2.282c0.026,-0.334 -0.016,-0.758 -0.086,-1.184c0.923,0.315 1.618,-0.168 1.931,-0.422c0.378,-0.305 0.829,-0.85 0.786,-1.785c-0.002,-0.043 -0.012,-0.099 -0.028,-0.166c1.035,1.233 2.07,2.465 3.195,3.619c0.268,0.275 1.145,1.166 2.021,1.669c0.655,0.375 1.335,0.555 1.925,0.543c0.904,-0.019 1.726,-0.38 2.336,-1.312c0.225,-0.343 0.422,-0.867 0.468,-1.519c0.014,-0.2 0.013,-0.425 0,-0.657c0.504,0.217 0.996,0.255 1.442,0.182c0.617,-0.1 1.247,-0.403 1.746,-1.164c0.322,-0.493 0.532,-1.241 0.395,-2.154c-0.063,-0.42 -0.224,-0.927 -0.406,-1.407c0.492,-0.23 0.92,-0.648 1.201,-1.323c0.328,-0.787 0.158,-3.129 0.094,-3.557c-0.013,-0.087 -0.028,-0.175 -0.045,-0.264c0.209,0.168 0.419,0.321 0.628,0.457c2.179,1.427 4.286,1.411 5.884,-0.387c0.521,-0.586 0.876,-1.517 0.9,-2.633c0.008,-0.4 -0.026,-0.833 -0.082,-1.259c0.623,0.007 1.242,-0.123 1.843,-0.398c0.88,-0.401 1.522,-1.185 1.728,-2.348c0.094,-0.529 0.042,-1.224 -0.065,-1.895c0.162,-0.141 0.315,-0.308 0.46,-0.499c0.133,-0.175 0.256,-0.39 0.361,-0.639c0.946,-0.402 1.586,-1.12 1.943,-2.006c0.661,-1.636 0.411,-3.772 -0.933,-5.854c0.196,-0.392 0.33,-0.901 0.284,-1.527c-0.043,-0.577 -0.535,-1.766 -0.721,-2.364l-0.292,-0.946c0.654,-0.312 1.223,-0.882 1.565,-1.805c0.477,-1.286 0.003,-4.979 -0.083,-5.536c-0.224,-1.461 -0.554,-2.87 -0.953,-4.246c0.108,0.071 0.217,0.136 0.325,0.198c1.611,0.916 3.172,1.056 4.44,0.597c1.117,-0.405 1.94,-1.281 1.971,-2.82c0.001,-0.086 -0.002,-0.181 -0.011,-0.283c0.577,-0.118 1.127,-0.32 1.641,-0.609c1.367,-0.769 1.971,-2.03 1.742,-3.676c-0.076,-0.544 -0.368,-1.212 -0.722,-1.857c0.394,-0.295 0.683,-0.657 0.897,-1.056c0.24,-0.448 0.411,-1.008 0.381,-1.662c0.54,-0.163 1.053,-0.386 1.531,-0.671c1.456,-0.866 2.057,-2.213 1.865,-3.9c-0.091,-0.8 -0.471,-1.783 -1.034,-2.7c-0.619,-1.01 -1.445,-1.954 -1.59,-2.139l-0.008,-0.01c0.279,-0.111 0.543,-0.243 0.791,-0.394c1.248,-0.757 1.831,-1.903 1.712,-3.407c-0.052,-0.669 -0.388,-1.642 -1.07,-2.583c-0.113,-0.154 -0.236,-0.312 -0.365,-0.466c0.078,-0.062 0.154,-0.127 0.227,-0.194c0.607,-0.554 1.029,-1.302 1.143,-2.263c0.033,-0.276 0.032,-0.604 -0.015,-0.959c0.511,-0.39 0.907,-0.909 1.196,-1.537c0.566,-1.232 0.564,-2.811 -0.372,-4.452c-1.065,-1.864 -4.012,-4.195 -4.787,-4.794l-1.957,-1.309c-0.51,-0.297 -1.818,-0.905 -2.14,-0.955c-1.757,-0.271 -2.776,0.605 -3.354,1.375c-0.429,0.57 -1.407,1.965 -0.142,4.013l0.017,0.026Zm-69.583,40.802c0.081,0.553 -0.02,1.03 -0.113,1.285c-0.351,0.954 -1.405,2.206 -3.442,1.588c-0.534,-0.162 -1.537,-0.754 -2.267,-1.214c0.252,0.406 0.347,0.808 0.378,1.136c0.089,0.945 -0.116,2.071 -1.707,2.661c-0.889,0.331 -2.007,0.297 -3.17,-0.285c-0.95,-0.475 -1.993,-1.421 -2.838,-2.516l-0.157,-0.093l-0.188,-0.11c1.442,1.937 -0.761,3.862 -1.133,3.977c-0.693,0.214 -1.487,0.201 -2.324,-0.128c-1.029,-0.403 -2.291,-1.502 -3.213,-2.862c-0.142,-0.21 -0.275,-0.425 -0.398,-0.644c-0.824,-0.571 -1.877,-1.253 -2.935,-1.781c-0.3,-0.15 -0.682,-0.292 -1.031,-0.407c0.036,0.112 0.076,0.218 0.116,0.313c0.372,0.872 0.879,1.742 1.294,2.402c0.818,0.79 1.472,1.509 1.703,1.757c0.09,0.096 1.582,1.652 1.917,2.406c0.433,0.978 0.233,1.796 -0.045,2.324c-0.481,0.911 -1.176,1.249 -1.839,1.374c-0.544,0.103 -1.169,0.046 -1.813,-0.317c-0.497,-0.28 -1.231,-1.207 -1.715,-1.806c0.592,2.184 1.253,4.376 2.067,6.498c0.387,1.008 0.808,2 1.275,2.966l0.27,0.41c0.264,0.438 0.826,1.574 0.965,1.902c0.12,0.283 0.178,0.543 0.199,0.775c0.482,-0.424 1.118,-0.594 1.915,-0.456c0.373,0.064 0.929,0.287 1.464,0.698c0.614,0.472 1.296,1.218 1.33,1.26l2.673,3.525c1.143,1.434 2.758,3.963 4.567,5.955l0.09,0.097c-0.238,-1.335 -0.453,-2.601 -0.468,-2.867c-0.029,-0.527 -0.225,-1.546 -0.139,-2.008c0.121,-0.645 0.439,-1.093 0.792,-1.391c0.51,-0.431 1.202,-0.741 2.197,-0.43c0.526,0.164 1.172,0.599 1.667,1.39c0.585,0.935 1.096,2.726 1.165,2.887l1.231,2.666l1.758,3.245c0.428,0.764 1.31,2.455 2.409,3.853c0.133,0.169 0.269,0.334 0.408,0.491c-0.106,-0.418 -0.227,-0.835 -0.357,-1.251c-0.62,-1.982 -1.43,-3.939 -2.021,-5.884l-0.641,-2.25c-0.083,-0.437 -0.235,-1.308 -0.169,-1.703c0.101,-0.609 0.396,-1.032 0.718,-1.316c0.486,-0.428 1.151,-0.743 2.117,-0.437c0.369,0.117 0.89,0.406 1.341,1.016c0.687,0.93 1.672,3.621 1.698,3.674c1.022,2.081 2.237,4.994 3.809,7.446c0.52,0.811 1.073,1.575 1.68,2.215c-0.038,-0.673 -0.082,-1.302 -0.118,-1.448l-1.535,-5.241c-0.366,-1.121 -1.117,-2.624 -1.503,-4.041c-0.237,-0.871 -0.349,-1.722 -0.284,-2.489c0.087,-1.033 0.665,-1.563 1.479,-1.792c0.273,-0.077 0.87,-0.223 1.605,0.214c0.082,0.048 0.264,0.17 0.486,0.375c0.442,0.409 1.499,1.529 1.54,1.583l2.878,4.175c1.367,2.023 2.707,4.073 4.099,6.084c0.668,0.965 1.348,1.922 2.05,2.86c-0.206,-0.733 -0.435,-1.461 -0.676,-2.186c-0.673,-2.02 -1.442,-4.014 -2.138,-6.001c-0.061,-0.174 -0.524,-1.166 -0.708,-2.012c-0.154,-0.704 -0.128,-1.362 0.021,-1.837c0.317,-1.017 0.976,-1.311 1.368,-1.443c0.616,-0.208 1.307,-0.185 1.985,0.363c0.187,0.151 0.442,0.418 0.651,0.838c0.199,0.403 0.447,1.336 0.629,1.739l0.854,1.829c0.156,0.313 0.313,0.626 0.473,0.937c0.176,-0.322 0.413,-0.518 0.584,-0.647c0.534,-0.404 1.212,-0.602 2.043,-0.259c0.214,0.088 1.28,1.192 1.28,1.192c0,0 -0.053,-0.059 -0.076,-0.081l2.112,1.97c0.572,0.518 1.62,1.69 2.778,2.715c-0.148,-0.357 -0.313,-0.709 -0.49,-1.056c-0.606,-1.193 -1.341,-2.333 -2.01,-3.457c-0.397,-0.667 -1.037,-1.356 -1.342,-2.068c-0.301,-0.706 -0.396,-1.436 -0.225,-2.189c0.367,-1.61 1.418,-1.878 2.292,-1.848c0.419,0.014 0.988,0.161 1.549,0.644l0.074,0.068l0.022,-0.036c0.459,-0.668 1.46,-1.362 2.943,-0.725c1.038,0.446 3.387,2.544 3.534,2.68c0.848,0.787 1.64,1.623 2.405,2.483c1.247,1.401 2.418,2.868 3.665,4.269c-0.166,-0.526 -0.346,-1.049 -0.535,-1.569c-0.663,-1.816 -1.448,-3.596 -2.245,-5.32l-0.976,-1.949c-0.232,-0.472 -0.824,-1.603 -0.864,-1.896c-0.132,-0.963 0.298,-1.563 0.688,-1.921c0.249,-0.228 0.735,-0.629 1.446,-0.617c-0.045,-0.519 0.123,-0.839 0.157,-0.928c0.31,-0.816 0.891,-1.208 1.57,-1.366c0.386,-0.09 0.922,-0.125 1.543,0.206c0.121,0.064 0.428,0.231 0.739,0.635c0.114,0.147 0.475,0.726 0.635,0.951l0.118,0.178l-0.024,-0.103c-0.229,-1.036 -0.299,-2.029 -0.171,-2.945c0.135,-0.967 0.658,-1.395 1.008,-1.633c0.589,-0.398 1.274,-0.535 2.06,-0.258c0.272,0.095 0.667,0.295 1.033,0.718c0.159,0.183 0.415,0.648 0.561,0.843l1.405,1.961c0.401,0.534 1.616,2.339 3.022,3.794c0.227,0.234 0.538,0.492 0.838,0.723c-0.058,-0.375 -0.121,-0.722 -0.167,-0.88c-0.314,-1.069 -0.684,-2.214 -1.119,-3.363c-0.978,-1.367 -1.768,-2.738 -2.198,-3.441l-1.241,-2.551c-0.142,-0.403 -0.346,-1.434 -0.329,-1.684l0,-0.007l-0.581,-0.617c-0.14,0.095 -0.289,0.181 -0.446,0.26c-0.628,0.317 -1.492,0.492 -2.396,0.426c-0.934,-0.069 -1.895,-0.411 -2.343,-0.656c-0.473,-0.258 -1.144,-0.779 -1.832,-1.443c-0.073,0.004 -0.147,0.006 -0.224,0.006c-1.568,0.006 -3.385,-0.719 -5.14,-2.012c-0.81,-0.596 -1.621,-1.318 -2.395,-2.075c-0.07,0.05 -0.144,0.099 -0.221,0.147c-0.656,0.403 -1.618,0.645 -2.766,0.435c-1.258,-0.23 -3.139,-1.27 -3.396,-1.4c-1.231,-0.626 -2.436,-1.288 -3.606,-2.009c-0.504,-0.311 -1.002,-0.633 -1.491,-0.968c0.059,0.314 0.06,0.606 0.033,0.862c-0.106,1.012 -0.568,2.112 -2.255,2.53c-0.84,0.209 -1.811,0.119 -2.784,-0.288c-0.994,-0.417 -2.048,-1.265 -2.624,-1.683c-1.197,-0.867 -2.367,-1.821 -3.458,-2.86c-0.932,-0.889 -1.804,-1.841 -2.586,-2.855l-0.111,-0.083l-0.224,-0.162c0.043,0.393 0,0.754 -0.083,1.066c-0.235,0.879 -0.793,1.739 -2.187,2.052c-1.575,0.354 -3.272,0.043 -4.854,-0.744c-1.754,-0.872 -3.354,-2.342 -4.368,-3.705Zm20.112,0.825l-0.026,-0.044l-0.183,-0.104l0.209,0.148Zm-21.438,-2.855l0.084,0.059c0.127,0.094 0.241,0.19 0.345,0.288l-0.051,-0.143l-0.378,-0.204Z" style="fill-opacity:0.85"/></g><g><g id="Ojos"><g id="Der"><path d="M90.548,154.798c-0.299,0.282 -0.563,0.646 -0.783,1.104c-0.828,1.662 -0.375,3.121 0.947,4.321c0.383,0.347 0.849,0.666 1.362,0.952c0.328,0.516 0.874,1.003 1.814,1.022c0.139,0.003 0.305,-0.004 0.488,-0.023c1.43,0.478 2.804,0.705 3.483,0.606c0.557,-0.061 1.501,-0.219 2.154,-0.587c0.578,-0.326 0.949,-0.833 1.15,-1.443c0.539,-1.602 -0.065,-2.915 -1.176,-4.084c-1.333,-1.403 -3.972,-2.413 -4.984,-3.466c-0.047,-0.05 -0.166,-0.281 -0.289,-0.535c0.038,-0.171 0.057,-0.349 0.057,-0.532c0,-1.38 -1.12,-2.5 -2.5,-2.5c-1.033,0.087 -1.708,0.423 -2.098,0.965c-0.237,0.33 -0.489,0.669 -0.56,1.112c-0.08,0.508 -0.146,1.322 0.326,2.168c0.159,0.286 0.375,0.605 0.609,0.92Zm2.428,2.83c-0.055,-0.041 -0.113,-0.074 -0.175,-0.099c-0.048,-0.019 -0.132,-0.07 -0.132,-0.07l0.039,-0.083c-0,-0 -0.09,0.043 -0.12,0.091c-0.101,0.164 -0.049,0.313 0.056,0.451l0.039,-0.038c0.048,-0.043 0.096,-0.086 0.144,-0.129l0.149,-0.123Z"/><path d="M88.906,149.642c-0.237,-0.912 -0.493,-2.051 -0.689,-2.964c0.16,-0.019 0.317,-0.024 0.459,0.007c0.634,0.139 1.273,0.421 1.917,0.714c1.281,0.584 2.421,1.336 3.274,1.911c0.121,0.141 0.256,0.274 0.403,0.397c0.272,0.227 0.569,0.406 0.879,0.538c0.502,0.36 0.78,0.408 0.897,0.244c1.151,0.156 2.355,-0.266 3.155,-1.222c0.029,-0.061 2.362,-4.851 -1.413,-5.479c-0.196,-0.033 -0.571,-0.109 -1.127,-0.197c-1.297,-0.206 -3.331,-0.526 -5.376,-0.737c-0.777,-0.08 -1.526,-0.165 -2.226,-0.249c-2.099,-0.253 -3.789,-0.01 -4.678,0.716c-0.149,0.102 -0.412,0.509 -0.679,0.989c-0.218,0.393 -0.243,0.909 -0.265,1.066c-0.21,1.082 -0.752,4.516 -0.913,5.989c-0.105,0.967 0.285,1.568 0.357,1.843c0.236,0.903 1.042,1.117 1.431,1.468c0.196,0.176 0.469,0.162 0.68,0.284c0.897,0.517 1.81,-0.013 2.975,-0.451c1.601,-1.081 2.025,-3.258 0.944,-4.859l-0.005,-0.008Zm0.054,0.205c0.083,0.323 0.165,0.611 0.238,0.839c0.017,0.052 0.091,0.099 0.091,0.099c-0,0 -0.13,-0.701 -0.245,-0.833l-0.084,-0.105Zm-4.048,-1.563c-0.309,0.058 -0.613,0.153 -0.859,0.421c0.272,-0.184 0.561,-0.324 0.859,-0.421Zm1.897,-0.083c-0.368,-0.145 -0.724,-0.199 -1.098,-0.081c0.369,-0.031 0.74,-0.004 1.098,0.081Z"/></g><g id="Izq"><path d="M36.331,157.232c0.946,-0.586 1.609,-1.439 2.103,-2.402c0.731,-1.425 0.974,-3.162 1.055,-4.674c-0,-0.966 -0.784,-1.75 -1.75,-1.75c-0.966,-0 -1.75,0.784 -1.75,1.75c0.049,0.92 0.066,1.965 -0.191,2.919c-0.206,0.766 -0.53,1.5 -1.233,1.939c-0.863,0.535 -2.092,0.832 -3.175,1.25c-1.043,0.403 -1.973,0.898 -2.563,1.636c-0.651,0.811 -1.018,1.885 -0.625,3.456c0.483,2.047 2.005,2.754 3.752,2.62c2.127,-0.163 4.553,-1.775 5.165,-3.523c0.455,-1.233 0.165,-2.151 -0.351,-2.8c-0.124,-0.157 -0.271,-0.297 -0.437,-0.421Zm-2.839,4.132l0.062,0.01l0.004,-0.002l-0.07,-0.009l0.004,0.001Z"/><path d="M28.097,146.754c-0.333,-0.105 -0.687,-0.162 -1.054,-0.162c-1.932,-0 -3.5,1.568 -3.5,3.5c0.326,1.717 0.754,2.766 1.608,3.192c0.459,0.229 0.845,0.604 1.386,0.63c0.734,0.036 1.79,0.26 2.872,-0.519c1.456,-1.049 4.049,-4.568 6.197,-7.204c0.424,-0.52 0.839,-0.979 1.202,-1.357c0.611,0.43 1.363,1.016 2.033,1.637c-0.263,1.086 -0.003,2.28 0.802,3.172c1.293,1.434 3.508,1.548 4.943,0.254c0.801,-1.081 1.46,-1.931 1.332,-2.961c-0.057,-0.459 0.026,-0.931 -0.186,-1.379c-0.251,-0.529 -0.426,-1.165 -0.963,-1.676c-1.492,-1.419 -5.03,-2.919 -6.696,-3.457c-1.777,-0.575 -2.998,0.129 -2.999,0.13c-0.162,0.166 -0.626,0.812 -1.363,1.634c-0.539,0.601 -1.245,1.297 -2.026,1.996c-0.867,0.777 -1.831,1.508 -2.752,2.161c-0.246,0.175 -0.54,0.304 -0.836,0.409Zm2.431,3.03c0.01,0.102 0.015,0.204 0.015,0.308c0.021,-0.112 0.011,-0.213 -0.015,-0.308Zm8.807,-2.776l0.019,0.192c0.002,0.047 0.042,0.095 0.095,0.141c-0.031,-0.11 -0.065,-0.23 -0.114,-0.333Zm0.416,-2.168c0.047,-0.048 0.096,-0.095 0.146,-0.14c-0.062,0.037 -0.109,0.085 -0.146,0.14Z"/></g></g><g id="Lentes"><path d="M172.378,155.122c-0.63,-0.454 -2.153,-0.167 -2.883,-0.167c-2.054,0 -4.424,-0.06 -6.469,-0.366c-8.262,-1.235 -16.67,-0.885 -25.061,-1.064c-3.503,-0.075 -8.889,0.879 -12.272,-0.332" style="fill:#fff;fill-opacity:0.45"/><path d="M171.217,158.424c1.427,0.502 3.072,0.033 4.001,-1.256c1.129,-1.567 0.773,-3.756 -0.794,-4.886c-0.551,-0.326 -1.184,-0.686 -1.974,-0.758c-0.944,-0.087 -2.24,0.127 -2.955,0.19c-0.985,0.084 -2.035,0.175 -3.098,0.21c-1.015,0.033 -2.023,0.049 -2.97,-0.018c-3.608,-0.328 -7.207,-0.288 -10.833,-0.296c-2.358,-0.004 -4.721,-0.013 -7.085,-0.085c-2.503,-0.077 -4.992,-0.288 -7.491,-0.475c-2.091,-0.209 -4.855,-0.092 -7.468,-0.297c-1.37,-0.108 -2.651,-0.381 -3.677,-0.856c-1.819,-0.651 -3.824,0.297 -4.475,2.116c-0.652,1.818 0.296,3.824 2.115,4.475c1.396,0.361 2.986,0.541 4.693,0.464c2.976,-0.134 6.26,-0.81 8.706,-0.952c2.529,-0.08 5.044,-0.267 7.571,-0.324c1.665,-0.038 3.33,-0.027 4.99,0.036c2.062,0.079 4.113,0.255 6.156,0.504c2.02,0.247 4.006,0.622 5.996,1.057c0.889,0.204 1.834,0.349 2.798,0.488c1.381,0.199 2.778,0.327 4.072,0.435c0.39,0.034 1.456,0.582 1.722,0.228Z"/><path d="M122.883,150.73c-0.412,0 0.592,0.578 0.85,0.899c0.444,0.55 0.747,1.267 1.073,1.896c1.103,2.134 1.552,4.595 1.552,6.987c0,7.098 -3.271,13.533 -8.612,18.33c-10.223,9.183 -23.922,12.091 -37.113,8.25c-5.373,-1.564 -9.995,-3.723 -12.974,-8.749c-2.355,-3.973 -2.473,-9.236 -1.996,-13.673c1.031,-9.586 5.886,-19.387 15.451,-23.154c7.045,-2.775 15.336,-1.632 22.622,-0.599c6.532,0.925 10.447,4.053 15.377,7.951c0.711,0.562 4.51,2.572 4.51,3.393" style="fill:#fff;fill-opacity:0.45"/><path d="M125.342,148.242l-0.106,-0.102c-0.672,-0.582 -1.464,-0.887 -2.353,-0.91l-0.09,0.005c-0.718,-0.437 -1.337,-0.804 -1.598,-1c-3.254,-2.453 -6.106,-4.599 -9.408,-6.102c-2.265,-1.03 -4.722,-1.795 -7.636,-2.141c-4.528,-0.543 -9.425,-1.112 -14.182,-0.843c-3.378,0.19 -6.688,0.775 -9.764,2.057c-5.235,2.161 -9.17,5.924 -11.908,10.498c-2.655,4.436 -4.204,9.617 -4.695,14.745c-0.29,2.839 -0.333,5.991 0.2,8.975c0.378,2.117 1.04,4.153 2.106,5.956c1.318,2.243 2.934,3.974 4.768,5.371c2.685,2.044 5.866,3.349 9.358,4.399c6.939,2.123 14.033,2.423 20.767,1.063c6.813,-1.376 13.255,-4.49 18.811,-9.293c2.999,-2.582 5.408,-5.646 7.127,-9.018c1.781,-3.494 2.774,-7.339 2.866,-11.39c0.033,-1.422 -0.085,-2.866 -0.35,-4.278c-0.278,-1.486 -0.756,-2.926 -1.415,-4.278c-0.246,-0.503 -0.487,-1.049 -0.77,-1.551c-0.191,-0.339 -0.409,-0.655 -0.638,-0.953c-0.21,-0.273 -0.737,-1.254 -1.09,-1.21Zm-4.629,5.963c-0.931,0.538 -3.176,-2.282 -3.682,-2.703c-2.747,-2.278 -5.122,-4.317 -7.951,-5.764c-1.693,-0.866 -3.545,-1.531 -5.758,-1.896c-4.192,-0.686 -8.724,-1.444 -13.161,-1.375c-2.797,0.043 -5.554,0.399 -8.137,1.359c-4.304,1.614 -7.585,4.587 -9.91,8.236c-2.435,3.82 -3.855,8.348 -4.39,12.83c-0.236,2.076 -0.347,4.347 -0.106,6.564c0.227,2.077 0.758,4.107 1.792,5.849c1.313,2.197 2.985,3.768 4.919,4.95c2.054,1.256 4.397,2.076 6.903,2.779c6.237,1.724 12.574,1.871 18.535,0.463c5.909,-1.396 11.423,-4.356 16.112,-8.733c2.325,-2.176 4.176,-4.708 5.44,-7.479c1.241,-2.72 1.863,-5.684 1.792,-8.773c-0.022,-0.968 -0.149,-1.946 -0.374,-2.898c-0.191,-0.808 -0.48,-1.588 -0.861,-2.321c-0.466,-0.269 -0.865,-0.642 -1.163,-1.088Z"/><path d="M72.169,152.161c0.67,-0.12 -1.739,-1.364 -1.996,-1.464c-1.509,-0.584 -3.161,-1.081 -4.768,-1.297c-3.074,-0.414 -6.85,-0.393 -9.907,0.133c-1.054,0.182 -1.9,0.307 -2.883,0.699c-0.248,0.099 -1.516,0.726 -1.516,0.531" style="fill:#fff;fill-opacity:0.45"/><path d="M51.394,147.277c-0.097,-0.009 -0.196,-0.014 -0.295,-0.014l-0.029,0.001c-0.241,-0.013 -0.532,-0.016 -0.667,0.069c-1.599,0.323 -2.804,1.737 -2.804,3.43c0.26,1.248 0.392,2.348 1.424,2.828c0.379,0.175 0.707,0.559 1.237,0.586c0.386,0.019 0.981,0.306 1.691,0.007c0.461,-0.194 1.586,-0.832 1.842,-0.996c0.316,-0.196 0.56,-0.41 0.87,-0.537c0.414,-0.17 0.815,-0.325 1.287,-0.491c1.394,-0.417 2.919,-0.864 4.519,-0.98c0.786,-0.057 1.579,-0.029 2.347,0.046c0.8,0.078 1.558,0.263 2.286,0.424c0.69,0.186 1.355,0.459 2.026,0.758c0.625,0.279 1.188,0.627 1.758,0.968c0.575,1.561 2.205,2.534 3.899,2.231c1.55,-0.591 2.398,-1.18 2.618,-1.982c0.15,-0.546 0.475,-1.047 0.351,-1.635c-0.12,-0.57 -0.035,-1.41 -0.734,-2.063c-0.265,-0.248 -0.589,-0.733 -1.215,-1.02c-0.901,-0.414 -2.31,-0.964 -2.549,-1.009c-0.899,-0.188 -1.793,-0.366 -2.732,-0.485c-0.953,-0.121 -1.882,-0.26 -2.817,-0.264l-10.662,-0.242c-0.737,0.001 -1.356,0.034 -2.014,0.081c-0.527,0.037 -1.022,0.17 -1.595,0.287l-0.042,0.002Zm3.17,2.997c0.023,0.159 0.035,0.323 0.035,0.489c0.036,-0.172 0.005,-0.333 -0.035,-0.489Zm15.179,-0.635c-0.162,0.134 -0.291,0.286 -0.394,0.452c0.118,-0.162 0.25,-0.313 0.394,-0.452Zm-15.776,-0.88c0.225,0.32 0.397,0.68 0.504,1.068c-0.032,-0.432 -0.23,-0.766 -0.504,-1.068Zm16.687,0.247c0.278,-0.134 0.579,-0.233 0.898,-0.29c-0.377,-0.004 -0.661,0.131 -0.898,0.29Zm-17.864,-1.307l0.007,0.005l-0.007,-0.005Zm-0.103,-0.054l0.062,0.032l-0.041,-0.022l-0.021,-0.01Z"/><path d="M53.983,150.565c2.347,-0 3.076,2.541 4.139,4.092c3.508,5.119 3.62,12.482 0.555,17.73c-7.807,13.365 -28.499,17.036 -41.104,9.183c-3.806,-2.371 -6.256,-6.278 -8.797,-9.814c-1.338,-1.86 -4.157,-2.982 -4.88,-5.224c-1.173,-3.637 0.518,-8.357 1.738,-11.743c0.818,-2.272 1.325,-4.965 2.698,-6.986c1.897,-2.791 4.299,-6.092 7.356,-7.685c7.3,-3.805 16.45,-0.062 23.435,2.495c4.187,1.533 8.607,3.644 12.383,6.022c0.436,0.275 3.364,1.447 3.364,1.83" style="fill:#fff;fill-opacity:0.45"/><path d="M57.632,148.275c-0.249,-0.334 -0.583,-0.66 -1.028,-0.951c-0.772,-0.506 -2.908,-1.337 -3.289,-1.563c-2.022,-1.2 -4.205,-2.333 -6.445,-3.349c-2.223,-1.007 -4.49,-1.914 -6.699,-2.662c-4.408,-1.497 -9.637,-3.393 -14.742,-3.816c-3.799,-0.315 -7.534,0.124 -10.896,1.968c-1.442,0.785 -2.77,1.873 -3.963,3.138c-1.594,1.689 -2.97,3.671 -4.144,5.467c-0.491,0.751 -0.895,1.57 -1.232,2.43c-0.653,1.664 -1.064,3.488 -1.623,5.109c-0.741,2.147 -1.64,4.799 -1.989,7.401c-0.267,1.994 -0.223,3.962 0.36,5.716c0.326,0.987 0.909,1.837 1.653,2.596c1.098,1.12 2.664,1.968 3.539,3.178c1.559,2.187 3.093,4.504 4.904,6.546c1.303,1.47 2.748,2.797 4.429,3.862c6.722,4.317 15.658,5.535 23.995,3.94c8.481,-1.623 16.29,-6.215 20.714,-13.438c1.885,-3.063 2.811,-6.78 2.795,-10.494c-0.016,-3.749 -1.072,-7.477 -3.09,-10.587c-0.901,-1.388 -1.738,-3.275 -3.084,-4.363l-0.165,-0.128Zm-6.428,4.415c-0.664,-0.451 -1.331,-1.064 -1.507,-1.181c-1.759,-1.173 -3.665,-2.294 -5.63,-3.306c-1.981,-1.022 -4.011,-1.946 -5.993,-2.727c-3.941,-1.549 -8.59,-3.572 -13.212,-4.164c-2.761,-0.353 -5.51,-0.219 -8.019,1.022c-1.019,0.508 -1.954,1.245 -2.813,2.091c-1.451,1.43 -2.705,3.135 -3.791,4.673c-0.46,0.653 -0.809,1.395 -1.104,2.169c-0.539,1.415 -0.933,2.916 -1.439,4.265c-0.709,1.889 -1.603,4.214 -1.964,6.518c-0.209,1.337 -0.253,2.665 0.118,3.852c0.124,0.393 0.379,0.716 0.67,1.02c1.22,1.271 2.923,2.289 3.898,3.654c1.491,2.058 2.944,4.252 4.678,6.166c1.057,1.165 2.224,2.219 3.583,3.053c5.9,3.564 13.654,4.397 20.795,2.773c6.943,-1.58 13.307,-5.538 16.703,-11.641c1.213,-2.192 1.714,-4.814 1.579,-7.398c-0.132,-2.505 -0.939,-4.971 -2.393,-6.982c-0.547,-0.756 -2.173,-1.708 -1.853,-2.515c-0.937,-0.127 -1.757,-0.625 -2.306,-1.342Z"/></g></g><g id="Boca"><path d="M76.982,221.988c0.717,-0.092 0.911,0.691 1.211,1.261c0.756,1.438 0.658,2.771 0.658,4.358c0,0.775 -0.49,1.638 0.425,1.931c3.831,1.226 4.68,-3.84 3.015,-6.174c-0.542,-0.76 -1.624,-1.589 -2.548,-1.797c-0.345,-0.077 -1.656,0.01 -1.656,-0.306"/><path d="M75.65,218.751c-1.428,0.587 -2.345,2.078 -2.139,3.681c0.176,1.378 1.133,2.466 2.369,2.878c0.071,0.104 0.127,0.214 0.159,0.339c0.163,0.623 0.261,1.251 0.368,1.958c0.102,0.852 -0.051,1.787 0.285,2.392c0.362,0.651 0.795,1.393 1.917,1.621c1.503,0.378 2.696,0.234 3.649,-0.242c0.792,-0.395 1.416,-0.995 1.937,-1.73c1.474,-2.077 1.507,-5.546 0.238,-7.811c-0.388,-0.793 -1.172,-1.534 -1.95,-2.241c-0.625,-0.568 -1.382,-0.845 -2.046,-1.122c-0.194,-0.083 -0.855,-0.55 -1.22,-0.525c-0.354,-0.122 -0.735,-0.188 -1.13,-0.188c-0.947,0 -1.807,0.378 -2.437,0.99Zm1.525,6.73c0.082,0.009 0.166,0.006 0.252,-0.022c-0.084,0.011 -0.168,0.019 -0.252,0.022Zm4.098,-5.667c0.202,0.441 0.314,0.931 0.314,1.447c0.106,-0.533 -0.025,-1 -0.314,-1.447Z"/><path d="M85.307,215.738c0.32,-0.29 -0.849,-0.201 -1.231,-0.402c-0.687,-0.361 -1.165,-0.934 -1.806,-1.356c-2.369,-1.564 -5.316,-1.274 -7.645,0.153c-0.357,0.219 -1.32,0.577 -1.466,1.032c-0.755,2.371 1.461,5.148 3.675,5.81c1.109,0.332 2.39,-0.248 3.525,-0.057c3.069,0.516 3.791,3.587 3.419,6.249c-0.815,5.832 -7.354,-1.088 -10.045,3.747c-0.339,0.61 -0.424,1.238 -0.424,1.93c-0,0.725 -0.055,1.433 0.212,2.121c1.644,4.253 7.695,4.609 10.746,1.434c1.556,-1.619 2.851,-4.681 4.905,-5.676c1.914,-0.928 3.662,-0.214 5.628,0.038c0.599,0.077 1.932,0.777 1.932,-0.172" style="fill:#fff"/><path d="M81.56,227.473c-0.274,-0.338 -1.156,0.051 -1.797,-0.07c-1.67,-0.315 -3.445,-0.56 -4.962,-0.015c-1.088,0.391 -2.088,1.136 -2.886,2.514c-0.235,0.399 -0.391,0.809 -0.511,1.226c-0.157,0.546 -0.213,1.114 -0.23,1.716c-0.014,0.508 -0.038,1.008 -0.003,1.502c0.034,0.475 0.136,0.942 0.303,1.411c1.062,3.057 3.774,4.726 6.748,5.124c2.814,0.376 5.844,-0.576 7.983,-2.619c1.03,-0.972 1.99,-2.477 3.066,-3.749c0.377,-0.444 0.774,-0.835 1.238,-1.031c0.393,-0.166 0.766,-0.043 1.134,0.014c0.893,0.14 1.779,0.433 2.729,0.608c-0.051,-0.01 -0.168,-0.021 -0.168,-0.021c-0,0 1.373,0.409 1.969,0.451c0.973,0.068 1.768,-0.302 2.425,-0.721c0.884,-0.562 1.536,-1.54 1.634,-3.224c0,-1.932 -1.568,-3.5 -3.5,-3.5c-0.531,-0 -1.035,0.119 -1.486,0.331l-0.018,-0.002c-1.627,-0.12 -3.137,-0.485 -4.651,-0.285c-0.905,0.119 -1.825,0.327 -2.742,0.831c-0.967,0.532 -1.871,1.288 -2.634,2.268c-1.061,1.363 -1.881,3.166 -2.872,4.305c-0.923,1.045 -2.315,1.609 -3.652,1.534c-1.288,-0.072 -2.563,-0.617 -3.109,-1.897l-0.125,-1.33l0.109,-0.918c0.372,-0.688 0.932,-0.84 1.521,-0.82c0.805,0.026 1.641,0.242 2.427,0.388c1.706,0.318 3.244,0.257 4.377,-0.482c0.899,-0.586 1.682,-1.619 1.993,-3.552c0.353,-2.132 0.044,-4.449 -1.035,-6.151c-0.843,-1.332 -2.17,-2.307 -4.088,-2.693l-3.206,-0.007c-0.595,-0.205 -1.109,-0.773 -1.486,-1.374c-0.097,-0.154 -0.176,-0.318 -0.225,-0.486c0.128,-0.061 0.242,-0.117 0.305,-0.151c0.75,-0.412 1.599,-0.589 2.429,-0.581c0.674,0.006 1.308,0.288 1.889,0.718c0.372,0.275 0.654,0.627 0.998,0.921c0.314,0.268 0.665,0.49 1.032,0.709c0.387,0.23 1.549,0.994 1.925,0.755c1.109,0.294 2.34,0.038 3.251,-0.79c0.908,-0.919 1.172,-1.763 1.187,-2.405c0.021,-0.928 -0.138,-1.807 -0.801,-2.529c-0.336,-0.366 -0.789,-0.857 -1.557,-1.096c-0.269,-0.084 -1.172,-0.648 -1.426,-0.408l-0.974,-0.668c-1.831,-1.072 -3.805,-1.553 -5.777,-1.372c-1.822,0.168 -3.637,0.755 -5.196,1.816c-0.369,0.251 -1.208,0.67 -1.659,1.128c-0.481,0.487 -0.829,0.994 -0.969,1.518c-0.445,1.667 -0.229,3.429 0.649,4.976c1.099,1.936 3.047,3.559 4.991,4.051c0.441,0.113 0.888,0.184 1.346,0.178c0.826,-0.011 1.691,-0.404 2.499,-0.299c0.674,0.092 1.135,0.42 1.374,0.923c0.38,0.803 0.448,1.802 0.341,2.732c-0.023,0.196 -0.047,0.369 -0.091,0.52c-0.008,0.026 -0.022,0.052 -0.036,0.078Zm11.73,2.485c-0.047,0.19 -0.071,0.398 -0.058,0.631c0,-0.215 0.02,-0.426 0.058,-0.631Zm-11.04,-15.923c0.179,-0.325 0.415,-0.625 0.705,-0.888c-0.349,0.283 -0.562,0.593 -0.705,0.888Z"/></g></svg>