<?xml version="1.0" encoding="UTF-8" standalone="no"?><!DOCTYPE svg PUBLIC "-//W3C//DTD SVG 1.1//EN" "http://www.w3.org/Graphics/SVG/1.1/DTD/svg11.dtd"><svg width="100%" height="100%" viewBox="0 0 322 464" version="1.1" xmlns="http://www.w3.org/2000/svg" xmlns:xlink="http://www.w3.org/1999/xlink" xml:space="preserve" xmlns:serif="http://www.serif.com/" style="fill-rule:evenodd;clip-rule:evenodd;stroke-linejoin:round;stroke-miterlimit:2" fill-rule="evenodd" clip-rule="evenodd" stroke-linejoin="round" stroke-miterlimit="2" vector-effect="non-scaling-stroke"><g id="Ropa"><path d="M156.492,321.996c0.008,-0.032 -1.876,2.866 -2.721,3.882c-2.094,2.514 -3.862,6.173 -4.128,9.457c-0.881,10.86 -2.196,21.598 -2.814,32.504c-1.531,27.002 -0.295,46.898 8.819,71.676c1.484,4.035 4.211,14.794 -2.159,15.366c-6.001,0.539 -10.267,-2.956 -15.476,-5.065c-3.763,-1.524 -10.433,-1.358 -13.51,-4.137c-3.877,-3.501 -4.572,-13.77 -6.379,-18.49c-9.916,-25.911 -5.304,-60.5 8.912,-84.173c3.952,-6.58 9.866,-13.15 17.73,-14.606c5.221,-0.967 7.202,7.086 8.819,5.152" style="fill:#fff"/><path d="M149.511,325.964c-1.53,-0.846 -3.301,-1.251 -5.353,-0.84c-3.657,0.728 -6.952,2.37 -9.858,4.618c-4.046,3.131 -7.354,7.409 -9.864,11.713c-7.145,12.226 -11.805,27.207 -13.392,42.449c-1.59,15.264 -0.122,30.786 5.084,44.049c1.234,3.169 1.974,8.867 3.521,13.294c0.873,2.497 2.014,4.62 3.49,5.943c1.182,1.065 2.782,1.808 4.587,2.336c3.148,0.922 7.004,1.152 9.524,2.174c3.169,1.291 5.993,3.084 9.063,4.192c2.268,0.819 4.66,1.288 7.362,1.053c3.101,-0.261 4.79,-2.121 5.539,-4.764c1.143,-4.036 -0.444,-10.411 -1.53,-13.415c-4.423,-12.344 -6.897,-23.445 -8.009,-34.832c-1.097,-11.225 -0.864,-22.72 0.035,-35.931c0.221,-3.236 0.504,-6.456 0.821,-9.668c0.692,-7.007 1.54,-13.975 2.228,-20.991c0.307,0.02 0.61,0.005 0.904,-0.037c0.869,-0.121 1.772,-0.53 2.607,-1.5c1.239,-1.482 1.042,-3.691 -0.44,-4.93c-0.306,-0.255 -0.642,-0.45 -0.995,-0.584c0.477,-0.809 1.015,-1.56 1.577,-2.216c0.715,-0.837 2.116,-2.866 2.723,-3.751l0.104,-0.161c0.283,-0.358 0.501,-0.778 0.629,-1.245c0.028,-0.111 -4.145,-6.182 -6.548,-2.468c-0.49,0.758 -1.607,2.507 -2.19,3.227c-0.566,0.697 -1.112,1.466 -1.619,2.285Zm-2.716,6.366c-0.064,-0.058 -0.131,-0.115 -0.199,-0.17c-0.339,-0.271 -0.713,-0.55 -1.221,-0.463c-3.354,0.575 -6.298,2.265 -8.84,4.487c-2.745,2.4 -5.045,5.394 -6.899,8.394c-7.041,11.413 -11.802,25.497 -13.602,39.898c-1.808,14.475 -0.646,29.259 4.086,41.949c1.211,3.219 1.899,8.99 3.422,13.482c0.598,1.764 1.294,3.321 2.326,4.261c0.765,0.693 1.831,1.12 3.001,1.464c3.276,0.964 7.282,1.238 9.907,2.3c3.12,1.255 5.898,3.019 8.921,4.093c1.731,0.614 3.551,0.982 5.607,0.791c1.586,-0.151 1.959,-1.556 2.07,-3.099c0.233,-3.239 -0.975,-7.348 -1.763,-9.453c-4.777,-12.659 -7.482,-24.075 -8.86,-35.8c-1.349,-11.471 -1.418,-23.241 -0.803,-36.788c0.148,-3.298 0.362,-6.58 0.604,-9.857c0.56,-7.59 1.287,-15.141 1.804,-22.751c0.061,-0.895 0.212,-1.815 0.439,-2.738Z"/><path d="M99.872,292.59c-2.353,0.79 5.4,-5.618 6.66,-6.501c5.498,-3.854 12.821,-8.323 19.138,-10.47c6.261,-2.127 11.388,-6.671 18.386,-7.26c13.296,-1.121 27.678,10.322 33.862,21.53c1.593,2.889 -6.965,6.853 -8.349,8.273c-2.848,2.924 -5.761,5.795 -8.683,8.661c-6.77,6.642 -30.075,63.584 -36.526,60.542" style="fill:#fff"/><path d="M102.888,294.362c1.592,-0.262 4.768,-5.032 5.526,-5.588c2.625,-1.926 5.679,-4.018 8.849,-5.895c3.115,-1.845 6.327,-3.497 9.318,-4.577c4.428,-1.6 8.264,-4.395 12.616,-6.158c1.588,-0.643 3.251,-1.141 5.066,-1.323c6.166,-0.606 12.62,1.755 18.251,5.539c5.643,3.792 10.465,9.012 13.448,14.209c-0.675,0.006 -1.103,1.489 -2.05,2.189c-2.272,1.683 -5.055,3.199 -5.814,3.971l-8.734,8.544c-1.102,1.057 -2.628,3.301 -4.436,6.359c-6.439,10.885 -16.943,32.832 -24.778,45.131c-1.631,2.56 -3.144,4.666 -4.457,6.114c-0.429,0.473 -1.138,0.708 -1.352,0.988c-1.305,0.008 -2.553,0.749 -3.146,2.007c-0.824,1.747 -0.075,3.835 1.672,4.658c1.267,0.562 2.736,0.68 4.351,-0.127c1.413,-0.705 3.275,-2.456 5.209,-5.215c9.16,-13.069 24.629,-51.371 29.98,-56.814l8.633,-8.779c1.063,-1.097 6.228,-3.726 8.07,-6.189c1.154,-1.544 1.354,-3.104 0.59,-4.5c-3.179,-5.856 -8.495,-11.764 -14.719,-16.136c-6.468,-4.544 -13.932,-7.38 -21.133,-6.874c-2.313,0.158 -4.448,0.711 -6.494,1.457c-4.329,1.578 -8.193,4.182 -12.596,5.584c-2.714,0.865 -5.606,2.134 -8.484,3.591c-4.126,2.089 -8.208,4.588 -11.624,6.876c-1.085,0.726 -6.419,4.99 -7.713,6.568c-2.37,2.89 -0.15,5.185 0.954,5.779c0.481,0.259 1.492,0.656 3.095,0.157c0.833,-0.28 1.491,-0.843 1.902,-1.546Zm-3.465,-5.243c-0.205,0.019 -0.426,0.067 -0.666,0.153c0.221,-0.074 0.444,-0.125 0.666,-0.153Z"/><g id="Light.Playera"><path d="M50.21,355.771c-3.398,-0.457 -7.451,-1.286 -9.68,-1.937c-1.777,-0.519 -5.4,-1.036 -4.804,-2.788c1.439,-4.224 8.083,-15.632 13.436,-22.555c5.813,-7.519 15.415,-16.359 21.442,-22.556c4.824,-4.96 10.239,-11.069 14.723,-14.63c3.634,-2.885 8.859,-5.252 12.183,-6.735c2.453,-1.094 5.511,-2.595 7.762,-2.161c0.53,0.102 1.113,0.283 1.697,0.533c2.628,0.408 5.362,1.647 7.841,2.474c4.415,1.472 9.866,3.746 14.097,6.798c4.414,3.185 10.135,9.08 12.391,12.312c1.369,1.96 1.078,4.689 1.149,7.079c0.099,3.315 -1.56,10.865 -0.557,12.813c1.004,1.947 4.523,-0.276 6.578,-1.127c2.106,-0.872 4.091,-3.4 6.057,-4.105c1.803,-0.646 5.627,-1.279 5.743,-0.125c0.116,1.154 -3.349,4.71 -5.046,7.049c-1.845,2.542 -4.151,5.377 -6.023,8.207c-2.071,3.133 -4.955,6.727 -6.404,10.589c-2.066,5.503 -4.826,14.779 -5.987,22.43c-1.259,8.297 -1.259,18.223 -1.567,27.348c-0.406,12.046 -0.951,34.94 -0.869,44.923c0.041,5.012 6.065,13.256 1.357,14.974c-8.47,3.091 -39.24,3.457 -52.177,3.572c-8.535,0.075 -16.928,-2.304 -25.444,-2.883c-9.444,-0.642 -25.108,1.008 -31.222,-0.971c-3.868,-1.251 -5.951,-6.866 -5.465,-10.902c0.783,-6.505 7.236,-18.6 10.163,-28.131c3.899,-12.692 8.83,-35.864 13.227,-48.025c1.44,-3.981 3.337,-7.763 5.399,-11.47Z" style="fill:#ffd78b" class="dark:hidden"/><path d="M143.837,322.733c-0.017,-0.514 0.078,-1.204 0.138,-1.972c0.238,-3.092 0.916,-7.048 0.862,-9.227c-0.044,-1.808 0.067,-3.79 -0.33,-5.554c-0.231,-1.024 -0.619,-1.983 -1.215,-2.846c-1.245,-1.803 -3.497,-4.399 -6.032,-6.939c-2.244,-2.249 -4.711,-4.452 -6.875,-6.031c-2.18,-1.59 -4.668,-2.987 -7.188,-4.185c-2.591,-1.232 -5.215,-2.25 -7.558,-3.048c-1.75,-0.597 -3.625,-1.395 -5.503,-1.971c-0.879,-0.27 -1.76,-0.491 -2.63,-0.64c0.006,0.002 -1.726,-0.549 -1.726,-0.549c-1.071,-0.213 -2.272,-0.154 -3.527,0.117c-1.935,0.417 -4.051,1.388 -5.859,2.18c-2.124,0.931 -4.996,2.209 -7.771,3.743c-1.797,0.993 -3.549,2.097 -5.056,3.277c-1.539,1.206 -3.185,2.694 -4.879,4.332c-3.36,3.249 -6.922,7.108 -10.211,10.446c-4.248,4.309 -10.248,9.898 -15.489,15.429c-2.333,2.463 -4.517,4.917 -6.346,7.247c-2.967,3.779 -6.323,8.872 -9.035,13.455c-2.444,4.13 -4.354,7.874 -5.081,9.959c-0.633,1.812 -0.166,3.311 1.029,4.566c0.566,0.595 1.419,1.138 2.452,1.551c1.141,0.456 2.6,0.761 3.563,1.05c1.274,0.382 3.112,0.825 5.101,1.231l0.223,0.045c-0.246,0.502 -0.489,1.005 -0.726,1.511c-0.946,2.018 -1.811,4.07 -2.553,6.175c-1.399,3.965 -2.847,9.071 -4.294,14.608c-3.022,11.565 -6.05,25.047 -8.635,33.683c-2.136,7.134 -6.242,15.716 -8.466,22.296c-0.818,2.421 -1.395,4.599 -1.598,6.388c-0.33,2.916 0.404,6.498 2.051,9.262c1.305,2.192 3.155,3.873 5.372,4.575c1.716,0.544 4.099,0.859 6.879,0.989c7.419,0.348 17.95,-0.522 25.012,-0.085c5.914,0.368 11.772,1.614 17.658,2.287c2.652,0.304 5.31,0.497 7.98,0.459c8.411,-0.116 24.33,-0.381 36.814,-1.396c7.021,-0.571 12.986,-1.404 16.08,-2.546c2.143,-0.792 3.06,-2.319 3.185,-4.339c0.1,-1.616 -0.465,-3.702 -1.237,-5.881c-0.831,-2.344 -1.929,-4.831 -1.953,-6.795c-0.045,-4.243 0.012,-10.828 0.134,-17.916c0.164,-9.554 0.443,-20.02 0.671,-26.921c0.187,-5.354 0.267,-10.984 0.56,-16.397c0.201,-3.731 0.503,-7.357 1.016,-10.711c0.546,-3.537 1.442,-7.428 2.451,-11.117c1.132,-4.139 2.408,-8.024 3.488,-10.876c0.527,-1.391 1.263,-2.741 2.072,-4.045c1.347,-2.172 2.897,-4.218 4.148,-6.097l5.997,-8.11c1.211,-1.654 3.304,-3.913 4.404,-5.513c0.867,-1.261 1.151,-2.404 1.089,-3.049c-0.115,-1.195 -0.998,-2.347 -2.888,-2.604c-1.557,-0.211 -4.305,0.278 -5.843,0.822c-0.597,0.211 -1.199,0.535 -1.801,0.937c-1.43,0.956 -2.851,2.555 -4.371,3.177c-0.758,0.309 -1.713,0.801 -2.669,1.208c-0.312,0.132 -0.743,0.262 -1.084,0.355Zm12.663,-1.704c-1.018,1.266 -2.252,2.67 -3.057,3.79l-6.047,8.306c-1.262,1.922 -2.825,4.017 -4.184,6.239c-0.945,1.545 -1.794,3.149 -2.406,4.796c-1.1,2.958 -2.394,6.987 -3.542,11.277c-1.03,3.848 -1.943,7.904 -2.493,11.59c-0.524,3.481 -0.832,7.242 -1.032,11.113c-0.281,5.439 -0.349,11.096 -0.524,16.476c-0.238,6.917 -0.516,17.407 -0.711,26.981c-0.146,7.132 -0.248,13.757 -0.224,18.027c0.014,3.261 2.423,7.876 3.016,11.264c0.13,0.74 0.365,1.428 -0.305,1.669c-3.624,1.307 -11.446,2.041 -20.132,2.502c-11.337,0.602 -24.114,0.672 -31.328,0.699c-2.464,0.009 -4.913,-0.198 -7.358,-0.505c-5.965,-0.748 -11.896,-2.072 -17.893,-2.514c-6.157,-0.457 -14.949,0.034 -22.045,-0.113c-3.498,-0.073 -6.546,-0.276 -8.508,-0.925c-1.275,-0.421 -2.13,-1.683 -2.729,-3.061c-0.684,-1.572 -0.972,-3.386 -0.778,-4.906c0.186,-1.459 0.712,-3.223 1.409,-5.191c2.339,-6.609 6.596,-15.216 8.854,-22.386c2.725,-8.65 5.962,-22.17 9.176,-33.757c1.473,-5.311 2.943,-10.206 4.349,-14.003c0.697,-1.88 1.505,-3.711 2.383,-5.51c0.896,-1.834 1.868,-3.633 2.878,-5.414c0.562,-1.012 0.589,-2.236 0.07,-3.27c-0.518,-1.035 -1.515,-1.746 -2.662,-1.901c-1.5,-0.19 -3.135,-0.454 -4.67,-0.744c-1.759,-0.332 -3.387,-0.693 -4.516,-1.013l-1.72,-0.483c1.073,-2.353 2.836,-5.597 4.843,-8.966c2.233,-3.747 4.77,-7.637 7.069,-10.657c2.221,-2.917 5.021,-6.041 7.955,-9.127c4.583,-4.82 9.485,-9.548 13.093,-13.309c3.214,-3.348 6.691,-7.219 9.977,-10.48c1.52,-1.509 2.995,-2.886 4.38,-4.001c1.269,-1.021 2.753,-1.973 4.271,-2.838c2.591,-1.477 5.28,-2.71 7.267,-3.612c1.297,-0.589 2.772,-1.315 4.192,-1.745c0.696,-0.21 1.361,-0.39 1.946,-0.281l1.154,0.355c0.205,0.088 0.42,0.149 0.641,0.184c0.914,0.136 1.844,0.39 2.769,0.688c1.591,0.512 3.168,1.144 4.653,1.629c2.18,0.711 4.624,1.619 7.037,2.732c2.244,1.034 4.464,2.241 6.41,3.629c1.995,1.422 4.267,3.419 6.342,5.453c2.317,2.272 4.393,4.584 5.535,6.201c0.346,0.49 0.497,1.068 0.588,1.67c0.201,1.331 0.117,2.766 0.164,4.089c0.084,2.408 -0.77,7.083 -0.825,10.151c-0.029,1.617 0.202,2.913 0.589,3.657c0.653,1.253 1.681,1.873 2.977,2.006c1.806,0.186 4.705,-1.305 6.549,-2.078c0.569,-0.239 1.135,-0.562 1.692,-0.945c1.475,-1.015 2.84,-2.638 4.25,-3.15c0.289,-0.105 0.731,-0.204 1.211,-0.288Z" class="dark:hidden"/></g><path d="M48.928,347.324c-0.953,-0 -2.978,3.232 -3.587,3.979c-4.448,5.46 -5.874,12.935 -7.754,19.513c-3.618,12.655 -8.569,24.552 -9.841,37.9c-0.89,9.339 0.571,18.64 0.833,27.918c0.11,3.913 -2.014,19.662 3.837,21.915c2.425,0.933 5.065,0.794 7.59,0.974c18.656,1.33 15.094,-11.936 17.177,-26.943c1.805,-13.009 4.106,-26.728 8.254,-39.174c3.401,-10.201 9.068,-18.8 12.843,-28.67c0.768,-2.009 4.551,-9.531 2.418,-9.531" style="fill:#fff"/><path d="M77.666,356.951c-0.11,0.439 -0.254,0.967 -0.4,1.379c-0.729,2.053 -1.733,4.265 -2.079,5.223c-2.514,6.911 -5.966,13.212 -8.906,19.875c-1.298,2.94 -2.503,5.944 -3.496,9.094c-1.622,5.109 -2.937,10.42 -4.042,15.807c-1.633,7.957 -2.812,16.076 -3.803,23.94c-1.12,8.613 -0.135,16.647 -3.116,21.462c-1.795,2.901 -5.231,4.212 -11.675,3.773c-1.485,-0.11 -3.012,-0.105 -4.508,-0.285c-0.847,-0.102 -1.683,-0.267 -2.49,-0.579c-0.657,-0.255 -1.084,-0.855 -1.438,-1.584c-0.618,-1.27 -0.94,-2.928 -1.124,-4.708c-0.54,-5.258 0.215,-11.514 0.167,-13.775c-0.117,-6.495 -0.83,-13.006 -0.896,-19.529c-0.027,-2.696 0.065,-5.393 0.357,-8.092c0.563,-5.16 1.697,-10.085 3.085,-14.921c2.157,-7.511 4.929,-14.801 7.218,-22.376c1.164,-3.828 2.168,-7.971 3.743,-11.808c0.948,-2.31 2.122,-4.497 3.72,-6.392c0.405,-0.48 3.145,-2.073 2.503,-2.998c1.151,-0.573 1.942,-1.761 1.942,-3.133c0,-1.932 -1.568,-3.5 -3.5,-3.5c-0.849,0.014 -2.152,0.372 -3.327,1.542c-1.072,1.068 -2.417,3.169 -2.902,3.785c-1.962,2.493 -3.403,5.323 -4.517,8.319c-1.515,4.079 -2.443,8.454 -3.528,12.508c-2.066,7.659 -4.614,15.049 -6.559,22.638c-1.321,5.154 -2.374,10.394 -2.819,15.865c-0.24,2.894 -0.263,5.782 -0.168,8.665c0.214,6.534 1.045,13.044 1.294,19.55c0.095,2.686 -0.76,10.839 0.448,16.589c0.745,3.548 2.349,6.225 4.831,7.173c1.131,0.431 2.299,0.672 3.484,0.808c1.56,0.179 3.149,0.171 4.697,0.277c8.639,0.642 13.017,-1.75 15.47,-5.612c3.276,-5.158 2.726,-13.768 4.094,-23.039c1.168,-7.714 2.509,-15.678 4.327,-23.465c1.207,-5.168 2.631,-10.253 4.337,-15.136c1.024,-2.914 2.246,-5.685 3.548,-8.394c3.221,-6.697 6.939,-13.014 9.735,-19.979c0.447,-1.11 1.833,-3.882 2.655,-6.177c0.608,-1.7 0.85,-3.256 0.763,-4.221c-0.118,-1.329 -0.742,-2.239 -1.457,-2.863c-0.66,-0.576 -1.519,-0.931 -2.636,-0.952c-1.931,-0 -3.5,1.568 -3.5,3.5c0,0.635 0.17,1.232 0.468,1.746Zm2.59,1.725c0.14,0.021 0.287,0.031 0.442,0.029c-0.149,-0 -0.297,-0.01 -0.442,-0.029Z"/><g id="Light.Manga"><path d="M94.237,286.3c-0.822,0.589 -2.005,0.865 -2.931,1.45c-4.801,3.032 -9.575,6.557 -14.065,10.049c-2.96,2.303 -5.073,5.561 -7.766,8.122c-4.776,4.542 -10.183,8.819 -14.416,13.899c-3.056,3.667 -5.741,7.788 -8.352,11.789c-3.142,4.816 -5.379,9.47 -7.267,14.9c-0.346,0.994 -2.21,3.777 -1.553,4.959c1.304,2.348 6.371,3.158 8.586,3.876c4.536,1.471 8.889,3.573 13.391,5.011c3.539,1.13 7.194,1.824 10.667,3.165c2.563,0.989 4.802,2.136 7.589,2.136c0.892,-0 2.112,0.217 2.813,-0.475c1.184,-1.169 1.655,-3.332 2.257,-4.826c0.887,-2.205 2.186,-4.225 2.959,-6.514c1.949,-5.769 5.211,-10.829 8.117,-16.061c1.437,-2.588 4.288,-6.232 6.74,-7.886c0.91,-0.613 4.334,-2.827 3.487,-2.321" style="fill:#ffd78b" class="dark:hidden"/><path d="M102.14,324.983c-0.846,0.591 -2.452,1.691 -3.029,2.101c-1.18,0.838 -2.455,2.048 -3.634,3.432c-1.59,1.865 -3.053,4.008 -3.962,5.736c-1.694,3.216 -3.518,6.369 -5.105,9.65c-1.101,2.278 -2.098,4.609 -2.866,7.059l-2.777,6.418c-0.333,0.875 -0.611,1.981 -1.025,2.978c-0.096,0.233 -0.189,0.465 -0.305,0.671c-0.28,-0.164 -0.954,0.165 -1.317,0.17c-0.876,0.015 -1.686,-0.111 -2.473,-0.321c-1.433,-0.382 -2.799,-0.985 -4.278,-1.529c-1.106,-0.406 -2.228,-0.753 -3.359,-1.069c-2.485,-0.695 -5.011,-1.24 -7.484,-1.995l-13.425,-4.877c-1.272,-0.41 -3.513,-0.833 -5.395,-1.597c-0.756,-0.306 -1.479,-0.615 -1.88,-1.101c0.08,-0.252 0.266,-0.822 0.432,-1.179c0.445,-0.951 0.952,-1.853 1.125,-2.346c0.937,-2.627 1.955,-5.066 3.13,-7.427c1.171,-2.354 2.502,-4.627 4.046,-6.94c1.581,-2.351 3.186,-4.744 4.884,-7.054c1.112,-1.514 2.267,-2.987 3.477,-4.392c1.667,-1.933 3.515,-3.735 5.433,-5.479c2.983,-2.711 6.131,-5.274 9.052,-7.942c1.956,-1.785 3.632,-3.921 5.511,-5.828c0.684,-0.695 1.404,-1.349 2.185,-1.932c2.253,-1.672 4.576,-3.348 6.937,-4.969c2.34,-1.605 4.717,-3.148 7.097,-4.576c0.655,-0.393 1.46,-0.584 2.128,-0.907c0.362,-0.174 0.696,-0.377 1.011,-0.592c1.571,-1.125 1.933,-3.313 0.809,-4.883c-1.125,-1.571 -3.313,-1.933 -4.884,-0.808l-2.721,1.4c-2.423,1.61 -4.838,3.34 -7.21,5.134c-2.346,1.773 -4.653,3.599 -6.887,5.418c-0.993,0.806 -1.907,1.698 -2.768,2.646c-1.734,1.91 -3.253,4.042 -5.067,5.839c-3.285,3.249 -6.875,6.377 -10.162,9.728c-1.471,1.498 -2.886,3.035 -4.186,4.649c-1.239,1.536 -2.416,3.144 -3.551,4.789c-1.665,2.411 -3.243,4.897 -4.791,7.342c-1.597,2.505 -2.959,4.965 -4.163,7.501c-1.2,2.528 -2.246,5.129 -3.196,7.933c-0.283,0.823 -1.481,2.805 -1.722,4.249c-0.155,0.929 -0.021,1.746 0.331,2.374c0.596,1.063 1.681,1.963 3.058,2.648c2.158,1.075 5.105,1.663 6.68,2.177l13.359,5.144c2.482,0.827 5.025,1.437 7.519,2.213c1.002,0.312 1.994,0.657 2.971,1.052c1.601,0.649 3.082,1.343 4.639,1.813c1.198,0.363 2.44,0.587 3.788,0.609c0.806,0.013 1.813,0.096 2.665,-0.106c0.723,-0.172 1.363,-0.522 1.911,-1.042c0.559,-0.531 1.021,-1.205 1.418,-1.951c0.626,-1.178 1.037,-2.599 1.498,-3.684c0.636,-1.495 1.473,-2.894 2.187,-4.363c0.355,-0.729 0.678,-1.475 0.955,-2.246c0.78,-2.152 1.764,-4.187 2.835,-6.173c1.697,-3.149 3.627,-6.161 5.428,-9.24c0.66,-1.13 1.65,-2.475 2.738,-3.725c1.011,-1.161 2.123,-2.225 3.146,-2.879c0.676,-0.432 2.718,-1.688 3.428,-2.139c0.185,-0.118 0.312,-0.208 0.37,-0.249c2.559,-1.811 3.23,-9.821 -4.002,-5.747c-0.203,0.122 -0.389,0.26 -0.557,0.414Z" class="dark:hidden"/></g></g><g id="Cara"><path id="Light.Mechon" d="M200.883,37.09c-1.182,-5.25 10.142,-9.91 13.25,-11.427c4.05,-1.976 8.217,-3.428 12.379,-5.14c9.425,-3.877 22.983,-11.014 32.786,-3.643c2.772,2.085 5.883,10.642 5.196,13.955c-0.736,3.545 -2.986,6.264 -4.046,9.606c-0.918,2.894 3.347,2.58 2.789,5.547c-1.083,5.761 -9.035,7.922 -13.531,9.557c-1.472,0.536 -4.688,2.175 -6.404,1.82c-3.882,-0.803 -9.107,-6.833 -12.499,-8.864c-7.473,-4.477 -15.984,-6.039 -23.621,-9.763c-1.908,-0.931 -3.184,-2.96 -4.625,-3.747"/><path d="M203.016,39.864c0.356,0.339 0.73,0.671 1.138,0.957c0.495,0.349 1.009,0.671 1.562,0.923c5.502,2.523 11.405,3.967 17.099,6.108c2.243,0.843 4.454,1.793 6.579,3.001c2.267,1.296 5.38,4.371 8.339,6.442c1.779,1.244 3.528,2.167 5.075,2.457c0.85,0.161 1.937,0.089 3.088,-0.228c1.667,-0.46 3.558,-1.396 4.604,-1.797c2.8,-1.065 6.872,-2.37 9.945,-4.509c2.468,-1.718 4.332,-3.941 4.84,-6.846c0.184,-1.022 0.048,-1.837 -0.251,-2.521c-0.359,-0.821 -0.974,-1.467 -1.696,-2.017c-0.204,-0.155 -0.415,-0.303 -0.617,-0.455c-0.132,-0.1 -0.401,-0.102 -0.332,-0.323c0.722,-2.282 2.026,-4.262 2.983,-6.435c0.471,-1.07 0.87,-2.179 1.123,-3.371c0.407,-1.906 -0.179,-5.348 -1.352,-8.599c-1.177,-3.261 -2.955,-6.28 -4.544,-7.501c-4.398,-3.403 -9.508,-4.179 -14.754,-3.616c-7.128,0.766 -14.531,4.16 -20.383,6.435c-2.952,1.141 -5.9,2.153 -8.815,3.309c-1.292,0.512 -2.576,1.055 -3.851,1.644c-2.285,1.047 -8.569,3.624 -12.121,6.875c-2.61,2.389 -3.769,5.245 -3.206,8.062c0.424,1.885 2.298,3.07 4.183,2.646c0.513,-0.116 0.974,-0.339 1.364,-0.641Zm3.381,-6.174c0.659,0.725 1.336,1.565 2.251,2.041c5.232,2.707 10.91,4.366 16.349,6.706c2.47,1.063 4.895,2.248 7.216,3.711c2.32,1.455 5.474,4.78 8.491,7.069c1.091,0.829 2.123,1.542 3.091,1.761c0.381,0.086 0.89,-0.088 1.428,-0.248c1.389,-0.413 2.838,-1.073 3.69,-1.366c2.549,-0.886 6.279,-1.891 9.099,-3.743c1.536,-1.008 2.822,-2.252 3.177,-4.018c0.036,-0.186 -0.09,-0.272 -0.194,-0.361c-0.26,-0.223 -0.549,-0.424 -0.817,-0.634c-0.778,-0.609 -1.406,-1.304 -1.702,-2.184c-0.236,-0.704 -0.309,-1.544 0.032,-2.599c0.769,-2.42 2.135,-4.527 3.143,-6.835c0.356,-0.816 0.656,-1.662 0.841,-2.571c0.286,-1.415 -0.358,-3.927 -1.265,-6.32c-0.892,-2.354 -2.058,-4.626 -3.23,-5.489c-3.493,-2.551 -7.507,-2.971 -11.57,-2.397c-6.667,0.942 -13.456,4.515 -18.864,6.864c-2.883,1.259 -5.768,2.39 -8.613,3.662c-1.169,0.523 -2.329,1.073 -3.479,1.665c-1.465,0.759 -4.863,2.307 -7.75,4.293c-0.462,0.318 -0.908,0.649 -1.324,0.993Z"/><path d="M38.676,192.25c1.457,3.155 4.111,7.947 7.078,11.13c2.968,3.183 6.972,5.573 10.728,7.967c3.83,2.441 8.272,4.27 12.251,6.678c4.244,2.568 9.305,5.461 13.212,8.732c3.82,3.197 7.548,6.695 10.231,10.892c2.691,4.211 3.912,9.594 5.916,14.372c2.08,4.959 4.08,10.535 6.564,15.383c2.439,4.76 5.28,10.904 8.341,13.707c2.582,2.364 6.854,1.638 10.029,3.111c4.358,2.023 11.258,7.812 16.116,9.024c4.253,1.061 8.671,-1.323 13.034,-1.752c7.425,-0.73 22.964,-0.515 31.519,-2.626c7.188,-1.774 14.708,-6.84 19.811,-10.043c4.004,-2.512 7.606,-5.7 10.811,-9.173c3.291,-3.567 6.15,-8.021 8.94,-12.23c3.131,-4.725 7.224,-10.786 9.85,-16.123c2.496,-5.072 4.317,-11.48 5.906,-15.898c1.265,-3.517 3.18,-7.803 3.63,-10.608c0.332,-2.071 -0.332,-4.801 -0.928,-6.224c-0.454,-1.081 -3.724,-1.842 -2.65,-2.312c1.34,-0.585 7.17,-0.511 10.688,-1.2c4.442,-0.87 10.838,-2.063 15.964,-4.02c5.307,-2.027 11.773,-5.095 15.879,-8.14c3.585,-2.658 7.061,-6.122 8.756,-10.129c1.694,-4.008 1.825,-9.273 1.412,-13.917c-0.6,-6.747 -3.6,-19.094 -5.011,-26.565c-1.149,-6.087 -1.181,-12.498 -3.454,-18.26c-2.601,-6.592 -7.948,-14.284 -12.151,-21.292c-6.277,-10.465 -19.664,-32.471 -25.512,-41.495c-2.875,-4.437 -5.109,-9.816 -9.574,-12.648c-6.146,-3.898 -19.304,-8.243 -27.302,-10.739c-6.72,-2.097 -13.678,-3.599 -20.688,-4.235c-8.074,-0.732 -18.845,-1.125 -27.759,-0.159c-8.75,0.949 -17.342,3.273 -25.724,5.958c-9.947,3.185 -23.27,7.398 -33.957,13.155c-10.874,5.858 -22.558,14.243 -31.285,21.99c-8.055,7.151 -15.973,17.463 -21.078,24.493c-3.937,5.422 -7.587,12.697 -9.551,17.688c-1.52,3.864 -1.66,8.143 -2.233,12.256c-0.584,4.195 -1.402,8.591 -1.27,12.915c0.168,5.492 1.994,13.322 2.278,20.038c0.3,7.091 -0.675,17.454 -0.478,22.504c0.104,2.655 0.547,5.383 1.661,7.795Z" style="fill:#fff"/><path d="M243.813,207.836c1.295,-0.073 2.731,-0.149 4.048,-0.298c0.825,-0.093 1.61,-0.205 2.311,-0.343c2.765,-0.548 6.28,-1.222 9.782,-2.123c2.244,-0.577 4.484,-1.247 6.528,-2.032c3.171,-1.219 6.746,-2.802 10.007,-4.531c2.372,-1.257 4.579,-2.592 6.361,-3.919c2.263,-1.686 4.481,-3.677 6.289,-5.908c1.287,-1.589 2.368,-3.299 3.127,-5.105c0.765,-1.821 1.246,-3.874 1.506,-6.019c0.354,-2.921 0.301,-6.018 0.043,-8.89c-0.202,-2.252 -0.663,-5.115 -1.247,-8.215c-1.179,-6.258 -2.858,-13.509 -3.813,-18.545c-0.808,-4.259 -1.071,-8.676 -1.932,-12.919c-0.396,-1.946 -0.912,-3.856 -1.644,-5.705c-0.862,-2.19 -2.014,-4.498 -3.328,-6.861c-2.699,-4.854 -6.092,-9.955 -8.957,-14.737c-3.621,-6.058 -9.618,-15.975 -15.154,-25.017c-4.049,-6.615 -7.851,-12.764 -10.316,-16.588c-1.721,-2.671 -3.216,-5.674 -5.088,-8.277c-1.427,-1.985 -3.069,-3.745 -5.111,-5.048c-2.684,-1.712 -6.659,-3.52 -10.985,-5.223c-5.762,-2.268 -12.154,-4.362 -16.81,-5.829c-3.426,-1.082 -6.913,-2.011 -10.438,-2.756c-3.54,-0.748 -7.118,-1.307 -10.71,-1.646c-4.178,-0.394 -9.069,-0.7 -14.059,-0.78c-4.813,-0.077 -9.718,0.059 -14.171,0.526c-4.484,0.47 -8.929,1.293 -13.328,2.337c-4.349,1.033 -8.653,2.283 -12.905,3.626c-6.143,1.939 -13.562,4.263 -20.87,7.092c-4.695,1.818 -9.342,3.846 -13.587,6.11c-5.472,2.917 -11.145,6.462 -16.562,10.244c-5.553,3.877 -10.835,8.005 -15.346,11.971c-3.187,2.801 -6.356,6.079 -9.349,9.463c-4.752,5.372 -9.057,11.013 -12.271,15.394c-1.967,2.682 -3.869,5.801 -5.544,8.894c-1.83,3.378 -3.385,6.725 -4.463,9.425c-0.698,1.748 -1.149,3.571 -1.477,5.43c-0.439,2.485 -0.644,5.036 -1.003,7.527c-0.369,2.56 -0.821,5.193 -1.101,7.841c-0.198,1.869 -0.308,3.745 -0.26,5.609c0.034,1.322 0.156,2.77 0.329,4.304c0.55,4.863 1.656,10.651 1.846,15.777c0.049,1.339 0.049,2.799 0.02,4.317c-0.121,6.527 -0.757,14.083 -0.619,18.181c0.05,1.506 0.203,3.033 0.493,4.527c0.308,1.59 0.779,3.141 1.444,4.601c0.819,1.75 1.986,3.976 3.369,6.182c1.309,2.087 2.806,4.154 4.376,5.821c1.347,1.43 2.876,2.722 4.506,3.92c2.214,1.627 4.612,3.087 6.923,4.544c0.838,0.528 1.701,1.029 2.583,1.513c3.189,1.751 6.626,3.263 9.771,5.145c2.522,1.509 5.335,3.129 8.018,4.879c1.706,1.112 3.36,2.275 4.837,3.499c1.83,1.517 3.642,3.101 5.316,4.809c1.609,1.641 3.094,3.391 4.333,5.309c0.737,1.14 1.349,2.379 1.899,3.67c1.404,3.294 2.434,6.891 3.84,10.195c1.473,3.47 2.909,7.241 4.498,10.854c0.709,1.613 1.448,3.194 2.231,4.708c1.676,3.234 3.542,7.09 5.526,10.155c1.131,1.748 2.311,3.256 3.505,4.339c1.141,1.035 2.49,1.687 3.971,2.102c2.185,0.612 4.753,0.511 6.819,1.459c2.931,1.345 7.03,4.43 10.86,6.608c2.05,1.165 4.041,2.089 5.789,2.517c1.642,0.402 3.301,0.42 4.972,0.203c2.98,-0.388 6.001,-1.637 9.001,-1.945c5.142,-0.529 14.185,-0.619 22.09,-1.343c3.643,-0.333 7.053,-0.801 9.781,-1.487c2.947,-0.739 5.948,-1.988 8.829,-3.454c4.393,-2.235 8.507,-4.964 11.692,-6.979c2.102,-1.33 4.099,-2.835 5.989,-4.469c1.867,-1.614 3.631,-3.351 5.29,-5.163c1.392,-1.519 2.711,-3.19 3.978,-4.936c1.795,-2.472 3.488,-5.095 5.156,-7.632c1.887,-2.87 4.122,-6.227 6.177,-9.619c1.39,-2.295 2.699,-4.605 3.769,-6.796c0.991,-2.029 1.879,-4.261 2.688,-6.503c1.246,-3.455 2.302,-6.93 3.272,-9.652c0.837,-2.349 1.959,-5.04 2.75,-7.41c0.444,-1.327 0.786,-2.564 0.951,-3.613c0.189,-1.2 0.125,-2.578 -0.094,-3.883c-0.221,-1.321 -0.592,-2.561 -0.947,-3.429Zm-4.034,1.882c0.225,0.609 0.442,1.418 0.58,2.272c0.133,0.823 0.196,1.692 0.072,2.448c-0.137,0.839 -0.43,1.825 -0.792,2.885c-0.796,2.338 -1.924,4.991 -2.765,7.308c-0.985,2.711 -2.059,6.174 -3.324,9.616c-0.764,2.077 -1.598,4.147 -2.529,6.025c-1.025,2.066 -2.277,4.242 -3.606,6.404c-2.045,3.326 -4.271,6.615 -6.149,9.427c-1.645,2.463 -3.315,5.012 -5.084,7.411c-1.168,1.584 -2.381,3.102 -3.662,4.48c-1.543,1.66 -3.181,3.251 -4.915,4.727c-1.714,1.46 -3.523,2.805 -5.426,3.989c-3.088,1.922 -7.074,4.536 -11.329,6.66c-2.541,1.269 -5.18,2.362 -7.774,2.991c-2.511,0.608 -5.65,0.995 -8.999,1.272c-7.935,0.654 -17.006,0.667 -22.167,1.151c-3.049,0.286 -6.13,1.512 -9.159,1.879c-0.987,0.119 -1.968,0.129 -2.935,-0.117c-1.319,-0.335 -2.797,-1.091 -4.339,-1.986c-3.96,-2.299 -8.21,-5.512 -11.244,-6.937c-2.32,-1.089 -5.186,-1.124 -7.643,-1.836c-0.599,-0.174 -1.167,-0.4 -1.626,-0.824c-1.145,-1.058 -2.22,-2.681 -3.277,-4.493c-1.565,-2.683 -3.03,-5.774 -4.374,-8.427c-0.952,-1.878 -1.826,-3.869 -2.662,-5.888c-1.298,-3.135 -2.503,-6.337 -3.738,-9.318c-1.373,-3.32 -2.368,-6.931 -3.74,-10.241c-0.675,-1.631 -1.44,-3.193 -2.353,-4.637c-1.162,-1.839 -2.508,-3.557 -3.971,-5.181c-2.103,-2.334 -4.453,-4.467 -6.841,-6.486c-1.645,-1.392 -3.486,-2.722 -5.389,-3.99c-2.737,-1.825 -5.607,-3.521 -8.18,-5.096c-3.196,-1.955 -6.688,-3.544 -9.928,-5.366c-0.758,-0.426 -1.501,-0.867 -2.22,-1.331c-2.162,-1.393 -4.411,-2.782 -6.479,-4.336c-1.282,-0.962 -2.491,-1.99 -3.547,-3.134c-1.266,-1.372 -2.455,-3.08 -3.504,-4.791c-1.197,-1.952 -2.203,-3.919 -2.907,-5.465c-0.449,-0.958 -0.763,-1.98 -0.978,-3.027c-0.232,-1.133 -0.356,-2.292 -0.407,-3.436c-0.178,-4.014 0.38,-11.424 0.431,-17.822c0.013,-1.649 -0.005,-3.234 -0.074,-4.688c-0.066,-1.377 -0.192,-2.799 -0.356,-4.239c-0.634,-5.563 -1.869,-11.403 -2.025,-15.757c-0.056,-1.584 0.028,-3.179 0.18,-4.769c0.247,-2.569 0.665,-5.125 0.998,-7.61c0.326,-2.43 0.496,-4.918 0.9,-7.342c0.24,-1.44 0.561,-2.857 1.087,-4.213c0.979,-2.524 2.4,-5.652 4.073,-8.814c1.515,-2.864 3.234,-5.757 5.022,-8.244c3.084,-4.291 7.215,-9.82 11.786,-15.09c2.8,-3.227 5.762,-6.359 8.75,-9.038c4.328,-3.879 9.399,-7.926 14.739,-11.726c5.203,-3.703 10.658,-7.174 15.922,-10.039c4.045,-2.201 8.479,-4.175 12.958,-5.953c7.174,-2.848 14.464,-5.195 20.499,-7.156c4.125,-1.339 8.302,-2.593 12.525,-3.629c4.187,-1.028 8.418,-1.844 12.691,-2.323c4.267,-0.478 8.972,-0.638 13.59,-0.597c4.86,0.043 9.625,0.307 13.697,0.662c3.42,0.297 6.827,0.806 10.2,1.494c3.385,0.69 6.735,1.558 10.027,2.573c4.583,1.417 10.875,3.439 16.547,5.638c4.036,1.564 7.755,3.207 10.262,4.788c1.583,0.998 2.834,2.376 3.945,3.903c1.842,2.535 3.31,5.468 5.006,8.069c2.471,3.792 6.29,9.886 10.346,16.451c5.563,9.006 11.572,18.895 15.206,24.933c2.849,4.742 6.225,9.798 8.909,14.613c1.225,2.196 2.304,4.338 3.108,6.373c0.641,1.628 1.087,3.312 1.432,5.025c0.852,4.228 1.104,8.628 1.902,12.871c0.947,5.036 2.614,12.287 3.782,18.546c0.551,2.952 0.99,5.678 1.179,7.823c0.191,2.166 0.261,4.474 0.088,6.713c-0.171,2.216 -0.578,4.364 -1.364,6.212c-0.771,1.814 -1.961,3.496 -3.354,5.029c-1.428,1.573 -3.074,2.987 -4.742,4.218c-2.018,1.49 -4.631,2.979 -7.381,4.341c-2.673,1.325 -5.475,2.527 -8.007,3.488c-1.9,0.721 -3.981,1.33 -6.065,1.857c-3.421,0.864 -6.853,1.505 -9.554,2.028c-2.89,0.558 -7.354,0.585 -9.551,0.908c-0.703,0.103 -1.25,0.254 -1.602,0.406c-0.923,0.4 -1.253,1.016 -1.413,1.475c-0.197,0.565 -0.186,1.156 0.095,1.766c0.174,0.377 0.649,0.962 1.477,1.428l1.439,0.816Z"/><path d="M34.008,175.443c-1.127,1.321 -1.121,3.307 0.078,4.624c0.745,0.653 1.483,1.221 2.475,1.144c0.342,-0.026 0.728,0.022 1.117,-0.142c0.324,-0.136 1.247,-0.319 1.866,-1.323c0.191,-0.312 0.752,-1.403 0.752,-1.403c-0,0 -0.127,0.124 -0.159,0.169l2.154,-3.061c1.045,-1.132 2.399,-2.614 4.022,-3.671c1.338,-0.872 2.784,-1.573 4.197,-1.359c1.959,0.452 3.674,1.267 5.139,2.424c1.524,1.202 2.691,2.795 3.809,4.49c0.567,0.903 1.528,2.918 2.304,4.197c0.481,0.793 1.039,1.313 1.399,1.643c1.234,1.134 2.567,0.792 3.448,0.597c0.995,-0.22 1.973,-1.074 2.482,-3.102c0.234,-1.831 -0.994,-3.515 -2.776,-3.874c-0.894,-1.01 -1.895,-2.285 -2.49,-2.895c-1.72,-1.847 -3.567,-3.421 -5.613,-4.698c-2.072,-1.293 -4.297,-2.345 -6.888,-2.799c-1.921,-0.482 -3.983,-0.058 -6.021,0.712c-2.6,0.984 -5.105,2.694 -6.892,4.056l-3.215,2.937c-0.197,0.177 -1.454,0.941 -1.188,1.334Zm28.397,3.396c-0.147,0.251 -0.254,0.556 -0.258,0.942c0.043,-0.333 0.131,-0.649 0.258,-0.942Zm4.817,-1.089l0.008,0.007c0.029,0.027 0.098,0.042 0.098,0.042l-0.106,-0.049Zm-28.729,-3.029c0.279,0.168 0.538,0.38 0.768,0.633c-0.208,-0.288 -0.476,-0.481 -0.768,-0.633Zm-0.858,-0.375c-0.298,-0.12 -0.654,-0.17 -1.066,-0.132c0.359,-0.011 0.719,0.033 1.066,0.132Z"/><path d="M53.599,193.066c0.185,-0.481 0.284,-0.907 0.549,-1.204c0.111,-0.126 0.128,-0.33 0.283,-0.376c0.373,-0.11 0.824,-0.044 1.401,0.113c0.436,0.205 0.747,0.606 1.049,1.002c0.022,0.029 0.042,0.059 0.06,0.089c-0.041,0.06 -0.079,0.121 -0.115,0.184c-0.016,0.061 -0.046,0.129 -0.014,0.138c0.108,0.032 0.185,0.005 0.242,-0.05c0.087,0.293 0.079,0.62 0.133,0.927c-0.027,-0.188 -0.098,-0.435 -0.295,-0.498c-0.209,-0.066 -0.334,0.272 -0.394,0.372c-0.119,0.195 -0.116,0.364 -0.156,0.445c-0.14,0.284 -0.03,0.533 -0.072,0.693c-0.113,0.429 0.145,0.743 0.157,1.017c0.01,0.24 0.2,0.39 0.246,0.586c0.165,0.708 0.856,0.905 1.261,1.322c0.528,0.545 1.328,0.34 2.217,0.452c0.318,0.04 0.604,-0.229 1.023,-0.309c0.279,-0.053 0.493,-0.414 0.967,-0.695c0.094,-0.056 0.228,-0.381 0.741,-0.889c0.155,-0.268 0.271,-0.548 0.348,-0.834c0.423,-0.592 0.031,-2.803 -0.684,-3.799c-0.67,-1.008 -1.387,-1.958 -2.426,-2.635c-0.974,-0.635 -1.958,-1.244 -3.066,-1.431c-1.921,-0.716 -3.295,-0.517 -4.536,-0.138c-1.223,0.374 -2.235,1.229 -3.587,2.533c-0.187,0.168 -0.525,0.387 -0.856,0.663c-0.397,0.331 -0.615,0.77 -0.901,1.132c-0.429,0.542 -0.371,1.19 -0.516,1.743c-0.065,0.247 0.048,0.48 0.03,0.726c-0.077,1.009 0.726,1.672 1.542,2.641c1.57,1.126 3.759,0.765 4.884,-0.806c0.672,-0.937 0.814,-2.094 0.485,-3.114Zm-1.031,-1.563c-0.066,-0.087 -0.147,-0.162 -0.26,-0.206c0.091,0.065 0.178,0.133 0.26,0.206Z"/><g id="ReadingEyes"><path d="M163.115,158.125c-0,-1.405 2.114,-2.259 3.607,-2.875c4.211,-1.738 8.559,-3.048 12.779,-4.861c2.807,-1.207 5.11,-0.6 7.914,-1.263c0.562,-0.133 0.725,-0.682 0.725,-0.36"/><path d="M185.9,146.131c-1.556,0.496 -2.981,0.629 -4.49,1.071c-0.913,0.268 -1.853,0.54 -2.812,1.084c-0.953,0.495 -1.887,1.001 -2.87,1.417c-0.663,0.281 -1.34,0.526 -2.023,0.75c-1.309,0.428 -2.626,0.79 -3.954,1.143c-1.373,0.364 -2.729,0.677 -4.099,1.062c-1.391,0.358 -3.023,1.024 -4.153,1.817c-1.279,0.897 -1.674,2.251 -1.884,3.65c-0,1.932 1.568,3.5 3.5,3.5c1.535,0 2.84,-0.99 3.311,-2.366c0.433,-0.252 0.899,-1.145 1.365,-1.418c1.997,-1.072 3.964,-2.12 6.044,-3.015c1.056,-0.455 2.129,-0.874 3.218,-1.255c1.108,-0.388 2.235,-0.694 3.351,-1.08c0.643,-0.196 1.241,-0.223 1.82,-0.243c2.007,-0.071 3.773,0.338 5.961,0.134c0.328,-0.024 0.648,-0.124 0.94,-0.258c1.453,-0.424 2.515,-1.768 2.515,-3.358c-0.233,-1.397 -0.552,-2.091 -0.862,-2.354c-1.04,-0.881 -1.979,-1.603 -3.242,-1.179c-0.232,0.078 -1.119,0.593 -1.636,0.898Zm-19.288,12.082c0.006,-0.029 0.007,-0.058 0.003,-0.088l-0.003,0.088Zm18.213,-8.327l0.028,0.083l0.035,0.089c-0.024,-0.055 -0.045,-0.112 -0.063,-0.172Zm-0.148,-0.613c-0.024,-0.165 -0.037,-0.335 -0.037,-0.507c-0.034,0.202 -0.003,0.368 0.037,0.507Z"/><path d="M164.019,164.249c-0,-0.899 3.623,-2.784 4.32,-3.058c5.173,-2.037 10.623,-4.136 16.016,-5.408c1.608,-0.38 3.251,-0.67 4.868,-1.075c0.706,-0.176 2.154,-0.36 2.154,-0.36c0,0 -1.913,0.761 -2.522,0.179"/><path d="M185.794,152.828l-1.98,0.664c-1.657,0.503 -3.283,1.139 -4.958,1.705c-1.087,0.367 -2.188,0.706 -3.295,1.029c-2.775,0.81 -5.55,1.525 -8.26,2.329c-0.674,0.174 -3.383,1.318 -4.853,2.29c-1.538,1.017 -1.817,2.538 -1.929,3.404c-0,1.932 1.568,3.5 3.5,3.5c1.278,0 2.397,-0.686 3.007,-1.711c0.755,0.111 1.992,-2.017 2.35,-2.211c1.49,-0.769 2.962,-1.574 4.511,-2.297c1.51,-0.706 3.042,-1.373 4.612,-1.935c0.833,-0.299 1.678,-0.558 2.529,-0.777c1.285,-0.331 2.58,-0.536 3.867,-0.745l2.634,-0.298c0.39,0.202 0.82,0.344 1.315,0.347c0.584,0.003 1.255,0.032 1.893,-0.168c0.936,-0.295 1.805,-0.677 1.805,-0.677c1.475,-0.586 2.284,-2.178 1.888,-3.715c-0.396,-1.538 -1.874,-2.54 -3.449,-2.341l-0.583,0.164c-1.334,-0.655 -2.993,-0.407 -4.074,0.724c-0.211,0.221 -0.388,0.463 -0.53,0.719Zm-18.277,11.496c0.005,-0.026 0.005,-0.051 0.002,-0.075l-0.002,0.075Zm23.679,-12.397l0.077,0.069c-0.022,-0.026 -0.047,-0.049 -0.077,-0.069Z"/><path d="M174.098,152.724c-1.166,-0.588 -3.131,1.831 -2.522,3.059c1.249,2.518 6.237,0.995 8.102,0.368c1.308,-0.439 3.43,0.044 4.32,-0.901c0.682,-0.726 1.285,-1.606 1.977,-2.336c1.06,-1.118 -2.171,-2.344 -3.237,-2.344c-1.349,-0 -3.062,0.654 -4.32,1.253c-0.874,0.416 -2.88,0.37 -2.88,0.37c0,-0 0.688,0.038 0.904,-0.18"/><path d="M177.899,148.83c-1.179,-0.539 -2.595,-0.389 -3.639,0.448l-0.007,0.004l0.001,0c-0.103,0.082 -0.202,0.17 -0.296,0.266c0.079,-0.105 0.18,-0.191 0.295,-0.266c-1.428,-0.134 -2.988,0.272 -4.105,1.661c-1.487,1.849 -2.236,4.574 -1.212,6.149c0.993,1.556 2.423,2.562 4.372,2.664c2.417,0.127 5.587,-0.924 7.058,-1.557c0.983,-0.37 2.459,-0.221 3.473,-0.562c0.649,-0.218 1.205,-0.536 1.636,-0.998l2.064,-2.242c1.193,-1.108 1.035,-2.33 0.383,-3.53c-0.75,-1.38 -3.893,-2.718 -5.184,-2.827c-0.77,-0.078 -1.622,0.049 -2.508,0.194c-0.799,0.13 -1.596,0.358 -2.331,0.596Zm-4.903,7.216c-0.16,-0.053 -0.318,-0.118 -0.473,-0.196c0.149,0.099 0.307,0.162 0.473,0.196Zm10.052,-2.864c-0.124,-0.054 -0.233,-0.089 -0.31,-0.082c-0.445,0.045 -0.902,0.298 -1.382,0.51c-0.17,0.076 -0.336,0.16 -0.498,0.249c0.104,-0.004 0.208,-0.006 0.313,-0.008c0.516,-0.006 1.219,-0.436 1.453,-0.123l0.424,-0.546Zm1.261,-1.621l0.101,-0.13c-0.036,0.043 -0.07,0.087 -0.101,0.13Zm-8.535,-2.783c-0.181,-0.1 -0.42,-0.083 -0.73,0.084c-0.278,0.15 -0.558,0.264 -0.784,0.416l-0.006,0.004c0.497,0.046 0.978,0.158 1.419,0.317c0.208,0.105 0.401,0.227 0.578,0.366c-0.044,-0.533 -0.164,-0.946 -0.399,-1.134c-0.077,-0.009 -0.156,-0.013 -0.236,-0.015c0,-0 0.061,-0.017 0.158,-0.038Z"/><path d="M232.481,140.751c-1.854,-0 5.198,-4.554 6.295,-5.22c2.725,-1.655 7.036,-1.157 9.901,-2.164c1.224,-0.431 2.88,0.095 2.88,-0.352"/><path d="M235.92,141.395c0.304,-0.514 0.65,-1.119 1.075,-1.522c1.227,-1.162 2.497,-2.187 2.897,-2.504c0.621,-0.41 1.345,-0.74 2.148,-0.864c2.57,-0.394 5.393,0.11 7.611,-0.368c0.072,-0.012 0.074,0.15 0.147,0.159c0.227,0.026 0.424,0.13 0.618,0.175c0.654,0.151 1.199,0.093 1.567,0.097c0.587,0.007 0.977,-0.351 1.363,-0.5c0.314,-0.121 0.477,-0.414 0.724,-0.591c0.747,-0.535 0.778,-1.455 0.987,-2.462c-0,-1.932 -1.568,-3.5 -3.5,-3.5c-0.238,0 -0.469,0.024 -0.694,0.069c-0.547,-0.332 -2.231,0.479 -3.16,1.013c-0.687,0.374 -1.441,0.737 -2.314,0.96c-1.436,0.367 -2.941,0.666 -4.367,1.01c-1.207,0.29 -2.361,0.575 -3.362,1.126c-1.051,0.44 -6.349,3.102 -7.791,4.307c-1.483,1.238 -1.064,2.795 -0.992,3.57c0.031,0.338 0.272,0.59 0.393,0.903c0.318,0.821 1.304,1.416 3.211,1.778c1.711,-0 3.137,-1.232 3.439,-2.856Zm-3.175,-4.134c-0.082,-0.019 -0.169,-0.029 -0.264,-0.01c0.089,-0 0.177,0.003 0.264,0.01Zm15.376,-4.911c-0.071,0.209 -0.115,0.426 -0.064,0.665c-0,-0.227 0.022,-0.449 0.064,-0.665Zm0.557,-1.324c-0.125,0.147 -0.222,0.307 -0.283,0.489c0.081,-0.171 0.176,-0.335 0.283,-0.489Z"/><path d="M235.182,146.513c-1.148,-0 4.682,-2.709 5.76,-3.067c3.198,-1.062 6.706,-2.514 10.078,-2.514c0.657,-0 6.147,-1.239 5.57,-1.794c-0.26,-0.25 -1.528,-0.061 -1.976,-0.372"/><path d="M251.119,138.582c-0.041,0.021 -0.075,0.034 -0.099,0.037c-0.801,0.074 -1.591,0.215 -2.396,0.384c-1.167,0.244 -2.336,0.575 -3.52,0.887c-1.669,0.44 -3.347,0.819 -4.944,1.203c-0.975,0.171 -5.178,1.53 -6.629,2.195c-1.146,0.526 -1.47,1.446 -1.681,1.779c-0.522,0.825 -0.236,1.649 -0.155,2.351c0.107,0.927 0.934,2.173 3.487,2.595c0.915,-0 1.749,-0.352 2.373,-0.929c1.08,0.112 3.542,-2.969 4.168,-3.284c1.823,-0.757 3.681,-1.805 5.677,-2.319c1.201,-0.31 2.434,-0.319 3.62,-0.236c0.647,0.089 5.114,-0.442 6.658,-0.973c0.891,-0.307 1.277,-0.958 1.573,-1.296c0.402,-0.458 0.399,-1.02 0.512,-1.493c0.214,-0.892 -0.274,-1.687 -0.985,-2.623c-0.261,-0.344 -0.741,-0.511 -1.257,-0.792c-0.364,-0.198 -1.503,-1.034 -1.845,-0.637c-1.427,-0.454 -3.042,0.048 -3.939,1.342c-0.384,0.554 -0.586,1.181 -0.618,1.809Zm-15.511,4.458c-0.126,-0.033 -0.267,-0.054 -0.426,-0.027c0.144,-0 0.287,0.009 0.426,0.027Zm20.944,-7.186l0.055,0.036c-0.015,-0.015 -0.033,-0.027 -0.055,-0.036Z"/><path d="M247.593,134.268c-1.589,0 -2.825,0.037 -4.14,0.903c-4.076,2.686 1.039,7.396 4.687,6.482c1.614,-0.404 6.003,-1.56 6.831,-3.237c1.535,-3.106 -4.839,-5.229 -6.831,-5.229"/><path d="M245.34,131.088c-0.373,0.076 -0.733,0.174 -1.085,0.309c-0.825,0.315 -1.656,0.634 -2.437,1.292c-1.715,1.425 -2.516,2.865 -2.514,4.341c0.002,1.114 0.222,2.232 0.903,3.228c1.658,2.424 5.429,4.349 8.431,3.385c1.197,-0.266 3.74,-0.947 5.617,-1.814c1.359,-0.628 2.335,-1.503 2.847,-2.36c1.232,-1.98 0.557,-3.851 -0.81,-5.591c-1.878,-2.39 -6.324,-3.969 -8.152,-4.191c-1.145,-0 -2.162,0.55 -2.8,1.401Zm4.711,5.67c-0.632,0.625 -1.5,1.01 -2.458,1.01c-0.671,-0.084 -1.229,-0.279 -1.803,-0.208c-0.225,0.028 -0.468,-0.025 -0.702,0.092c-0.079,0.04 -0.195,0.073 -0.276,0.092c0.125,0.286 0.132,0.804 0.414,1.036c0.687,0.567 1.579,1.045 2.415,0.883c0.746,-0.195 2.145,-0.53 3.424,-1.09c0.448,-0.197 0.825,-0.683 1.157,-1.012c-0.133,-0.099 -0.273,-0.218 -0.418,-0.288c-0.54,-0.261 -1.162,-0.423 -1.753,-0.515Z"/><path d="M182.515,172.74c-0.033,-0.039 -0.069,-0.077 -0.106,-0.114c-0.785,-0.776 -2.052,-0.768 -2.828,0.017c-0.129,0.163 -0.993,1.031 -1.257,1.473c-0.32,0.536 -0.459,0.976 -0.429,1.256c0.077,0.735 0.733,2.375 2.62,1.736c1.225,-0.416 4.268,-2.176 4.433,-2.327c0.714,-0.603 1.506,-1.312 2.387,-2.027c0.529,-0.43 1.088,-0.862 1.66,-1.294c1.433,-1.079 2.904,-2.193 4.204,-3.345c1.386,-1.23 2.532,-2.497 3.309,-3.765c0.477,-0.995 0.056,-2.191 -0.939,-2.668c-0.996,-0.477 -2.191,-0.056 -2.668,0.94c-0.656,1.783 -2.08,3.75 -3.82,5.512c-0.862,0.872 -1.777,1.705 -2.705,2.427c-1.059,0.824 -2.139,1.483 -3.034,2.095c-0.042,0.026 -0.377,0.045 -0.827,0.084Z"/><path d="M181.753,129.97c0.536,-0.675 -1.041,-2.141 -2.035,-3.011c-0.988,-0.873 -2.854,-2.755 -4.548,-4.075c-0.978,-0.761 -1.909,-1.355 -2.652,-1.57c-1.765,-0.526 -3.411,-0.59 -4.946,-0.325c-1.639,0.283 -3.146,0.945 -4.523,1.887c-1.528,1.044 -2.885,2.429 -4.055,3.99c-1.738,2.319 -3.043,5.02 -3.784,7.522c-0.277,0.913 -0.371,1.858 -0.396,2.806c-0.051,1.957 0.351,3.92 0.267,5.512c-0,1.104 0.896,2 2,2c1.104,0 2,-0.896 2,-2c-0.086,-1.633 -0.708,-3.592 -0.857,-5.594c-0.048,-0.649 -0.058,-1.301 0.072,-1.943c0.393,-1.876 1.087,-3.921 2.139,-5.778c1.024,-1.807 2.342,-3.463 3.946,-4.597c1.067,-0.755 2.263,-1.276 3.555,-1.452c1.177,-0.161 2.431,0.003 3.751,0.484c0.639,0.239 1.411,0.977 2.219,1.786c1.346,1.348 2.669,2.979 3.432,3.796c0.214,0.23 0.281,0.519 0.371,0.781c0.119,0.346 0.21,0.69 0.318,1.01c0.22,0.65 0.551,1.197 0.985,1.66c0.581,0.62 1.433,1.038 2.82,1.117c1.104,-0 2,-0.896 2,-2c0,-1.104 -0.896,-2 -2,-2c-0.024,0.001 -0.051,-0.002 -0.079,-0.006Z"/><path d="M244.985,125c-0.659,-0.898 -2.092,-3.042 -2.429,-4.047c-0.751,-2.288 -1.717,-5.183 -3.073,-7.634c-1.037,-1.874 -2.283,-3.504 -3.842,-4.477c-0.585,-0.371 -1.377,-1.13 -2.184,-1.454c-0.605,-0.244 -1.221,-0.313 -1.822,-0.11c-1.685,0.535 -3.045,1.347 -4.173,2.335c-1.798,1.574 -2.961,3.648 -3.74,6.015c-1.647,5.005 -1.437,11.385 -1.651,16.505c0,1.104 0.896,2 2,2c1.104,0 2,-0.896 2,-2c-0.203,-4.865 -1.063,-10.912 0.19,-15.759c0.421,-1.63 1.079,-3.12 2.118,-4.327c0.972,-1.129 2.275,-1.999 3.968,-2.553c0.212,-0.064 0.38,0.156 0.579,0.298c0.507,0.362 0.971,0.831 1.351,1.097c1.165,0.828 2.029,2.176 2.729,3.687c1.096,2.363 1.725,5.136 2.245,7.313c0.297,1.28 1.764,4.128 2.459,5.3c0.243,0.409 0.465,0.665 0.561,0.769c0.569,0.617 1.196,0.582 1.464,0.592c0.587,0.02 1.033,-0.258 1.424,-0.631c0.262,-0.25 0.51,-0.684 0.547,-1.382c0,-0.617 -0.28,-1.17 -0.721,-1.537Zm-2.991,0.504c-0.168,0.249 -0.312,0.578 -0.288,1.033c0,-0.378 0.105,-0.731 0.288,-1.033Zm0.731,-0.709c-0.132,0.069 -0.253,0.155 -0.362,0.261c0.11,-0.1 0.231,-0.188 0.362,-0.261Z"/><path d="M238.655,156.194c0.959,-0.104 1.915,-0.161 2.898,-0.145c1.222,0.02 2.443,0.084 3.675,0.182c1.272,0.101 2.538,0.209 3.8,0.282c0.696,0.04 1.389,0.08 2.081,0.099c1.077,0.03 2.144,0.013 3.22,-0.135c1.397,-0.151 2.93,-0.624 4.061,-1.436c1.045,-0.751 1.621,-1.87 1.788,-3.358c-0,-1.103 -0.896,-2 -2,-2c-1.104,0 -2,0.897 -2,2c0.015,0.132 0.105,0.244 0.069,0.352c-0.082,0.247 -0.185,0.489 -0.394,0.658c-0.598,0.483 -1.371,0.826 -2.092,1.049c-1.401,0.367 -2.827,0.56 -4.269,0.476c-1.399,-0.082 -2.79,-0.382 -4.174,-0.693c-2.249,-0.505 -4.436,-1.111 -6.663,-1.331c-1.104,-0 -2,0.896 -2,2c-0,1.103 0.896,2 2,2Z"/></g><g id="ReadingMouth"><path d="M191.346,221.461c-0.014,0.482 -0.206,1.531 -0.461,1.774c-1.476,1.406 0.715,4.931 1.249,6.554c0.567,1.726 2.858,5.729 4.056,6.873c0.423,0.404 1.972,0.359 1.569,0.783c-0.812,0.857 -2.925,0.219 -4.067,0.781c-2.865,1.411 -7.009,1.3 -10.844,1.489c-1.307,-1.26 -1.663,-1.472 -3.666,-2.434c-0.955,-0.459 -1.058,-1.854 -2.034,-2.182c-1.338,-0.449 -2.865,-0.476 -4.21,-0.932l-0.615,-0.112c7.096,-6.978 16.087,-14.36 24.651,-17.38l-5.628,4.786Z" style="fill:#420a12"/><path d="M191.346,221.461c-0.014,0.482 -0.206,1.531 -0.461,1.774c-1.476,1.406 0.715,4.931 1.249,6.554c0.567,1.726 2.858,5.729 4.056,6.873c0.423,0.404 1.972,0.359 1.569,0.783c-0.812,0.857 -2.925,0.219 -4.067,0.781c-2.865,1.411 -7.009,1.3 -10.844,1.489c-1.307,-1.26 -1.663,-1.472 -3.666,-2.434c-0.955,-0.459 -1.058,-1.854 -2.034,-2.182c-1.338,-0.449 -2.865,-0.476 -4.21,-0.932l-0.615,-0.112c7.096,-6.978 16.087,-14.36 24.651,-17.38l-5.628,4.786Zm-4.663,4.101c0.123,0.771 0.351,1.589 0.695,2.388c0.482,1.119 1.146,2.212 1.429,2.934c0.38,0.986 1.232,2.625 2.23,4.162c0.22,0.338 0.444,0.673 0.67,0.996c-0.779,0.314 -1.651,0.526 -2.577,0.671c-1.728,0.27 -3.599,0.36 -5.431,0.485c-0.449,-0.379 -0.831,-0.657 -1.279,-0.925c-0.509,-0.305 -1.106,-0.603 -2.04,-1.031c-0.176,-0.281 -0.716,-1.121 -1.08,-1.475c-0.396,-0.386 -0.853,-0.692 -1.411,-0.874l-0.62,-0.137c2.584,-2.24 5.34,-4.439 8.199,-6.389c0.403,-0.275 0.808,-0.544 1.215,-0.805Z"/><path d="M172.323,234.055l0.615,0.112c1.345,0.456 2.872,0.483 4.21,0.932c0.976,0.328 1.079,1.723 2.034,2.182c2.003,0.962 2.359,1.174 3.666,2.434c-1.692,0.066 -3.324,0.2 -4.76,0.545c-3.164,0.762 -7.196,1.465 -9.991,2.808c-0.337,0.162 -2.013,1.383 -2.652,0.774c-0.178,-0.169 0.831,-2.053 1.095,-2.183c1.878,-0.925 3.181,-5.068 4.839,-6.717l0.944,-0.887Z" style="fill:#782e31"/><path d="M172.323,234.055l0.615,0.112c1.345,0.456 2.872,0.483 4.21,0.932c0.976,0.328 1.079,1.723 2.034,2.182c2.003,0.962 2.359,1.174 3.666,2.434c-1.692,0.066 -3.324,0.2 -4.76,0.545c-3.164,0.762 -7.196,1.465 -9.991,2.808c-0.337,0.162 -2.013,1.383 -2.652,0.774c-0.178,-0.169 0.831,-2.053 1.095,-2.183c1.878,-0.925 3.181,-5.068 4.839,-6.717l0.944,-0.887Zm1.204,4.152c-0.248,0.267 -0.494,0.571 -0.739,0.896l1.136,-0.282c0.412,-0.106 0.824,-0.211 1.236,-0.317l0.549,-0.145l-0.04,-0.047c-0.698,-0.094 -1.424,-0.051 -2.142,-0.105Zm-1.711,-0.281l0.011,-0.003l-0.15,-0.033l0.139,0.036Z"/></g><path d="M72.115,111.366c1.959,0.829 4.027,4.175 5.262,5.747c3.765,4.792 6.936,9.958 10.009,15.222c1.199,2.054 4.555,4.31 4.312,6.926c-0.281,3.029 -3.88,3.48 -6.232,3c-0.205,-0.042 -3.113,-0.788 -3.148,-0.51c-0.36,2.809 2.321,7.616 2.953,10.426c0.326,1.448 1.276,3.219 0.003,4.368c-6.915,6.24 -18.062,3.248 -26.288,6.38c-2.89,1.1 -6.162,1.464 -8.972,2.651c-6.341,2.678 -11.797,9.59 -19.154,4.9c-1.326,-0.846 -2.886,-1.607 -4.123,-2.558c-0.87,-0.667 -1.25,-1.845 -1.831,-2.739c-5.381,-8.276 -0.059,-14.068 0.48,-22.54c0.209,-3.287 -1.477,-8.221 0.538,-11.085c0.425,-0.604 -2.42,-1.934 -2.735,-2.199c-1.655,-1.393 -2.483,-3.402 -2.612,-5.587c-0.252,-4.243 1.329,-5.097 3.73,-7.897c0.611,-0.712 1.401,-2.862 2.195,-3.309c3.394,-1.906 8.787,-2.001 12.522,-2.02c6.425,-0.034 12.872,-0.504 19.126,-1.912c3.571,-0.804 8.054,-1.892 11.741,-1.132c1.542,0.317 4.906,1.699 2.391,2.949"/><path d="M23.1,132.081c-0.258,0.789 -0.4,1.638 -0.446,2.527c-0.135,2.61 0.642,5.633 0.523,7.891c-0.34,6.192 -3.142,11.007 -2.681,16.328c0.203,2.35 0.953,4.8 2.703,7.462c0.419,0.642 0.743,1.423 1.202,2.072c0.312,0.443 0.673,0.84 1.1,1.166l4.27,2.657c3.546,2.275 6.734,2.298 9.773,1.328c3.841,-1.225 7.415,-4.371 11.295,-5.984c0.507,-0.21 1.032,-0.388 1.567,-0.549c2.411,-0.726 5.006,-1.132 7.359,-2.008c5.652,-2.081 12.664,-1.197 18.725,-2.514c3.118,-0.678 6.002,-1.886 8.464,-4.051c0.908,-0.797 1.316,-1.746 1.454,-2.76c0.171,-1.263 -0.362,-2.758 -0.631,-4.033c-0.36,-1.721 -1.448,-4.184 -2.18,-6.498c1.886,0.274 4.152,0.058 5.841,-0.844c1.698,-0.907 2.907,-2.436 3.158,-4.741c0.156,-1.436 -0.258,-2.832 -1.037,-4.166c-0.96,-1.646 -2.756,-3.156 -3.547,-4.562c-1.82,-3.246 -3.68,-6.453 -5.682,-9.57c-1.359,-2.114 -2.787,-4.183 -4.311,-6.195c-0.862,-1.138 -2.126,-3.116 -3.478,-4.583c0.21,-0.822 0.164,-1.631 -0.148,-2.419c-0.275,-0.696 -0.767,-1.452 -1.576,-2.071c-1.1,-0.84 -3.025,-1.567 -4.24,-1.794c-1.805,-0.337 -3.758,-0.346 -5.731,-0.124c-2.555,0.289 -5.148,0.931 -7.395,1.478c-2.99,0.727 -6.027,1.234 -9.09,1.571c-3.104,0.342 -6.229,0.52 -9.352,0.59c-2.35,0.051 -5.32,0.144 -8.089,0.643c-2.108,0.38 -4.107,0.983 -5.718,1.92c-0.453,0.263 -0.959,0.698 -1.4,1.323c-0.548,0.779 -1.036,2.095 -1.466,2.61c-1.716,2.063 -3.002,3.278 -3.679,5.082c-0.447,1.189 -0.69,2.618 -0.542,4.651c0.1,1.387 0.416,2.717 0.974,3.919c0.593,1.276 1.435,2.421 2.563,3.347c0.122,0.1 0.831,0.532 1.448,0.901Zm45.575,-21.358c-1.02,-0.166 -2.107,-0.173 -3.206,-0.089c-2.282,0.174 -4.604,0.685 -6.62,1.102c-3.273,0.679 -6.59,1.12 -9.929,1.373c-3.284,0.25 -6.586,0.328 -9.881,0.289c-2.098,-0.023 -4.75,-0.049 -7.235,0.319c-1.357,0.202 -2.665,0.499 -3.75,1.031c-0.27,0.474 -1.325,2.302 -1.777,2.813c-1.128,1.277 -2.086,2.069 -2.699,3.08c-0.436,0.721 -0.604,1.582 -0.54,2.981c0.037,0.782 0.179,1.538 0.477,2.222c0.263,0.608 0.632,1.165 1.14,1.621c0.251,0.143 1.286,0.74 1.856,1.146c0.65,0.463 1.147,0.972 1.387,1.377c0.65,1.095 0.533,2.092 -0.06,2.912c-0.57,0.789 -0.639,1.839 -0.629,2.935c0.024,2.381 0.532,4.959 0.385,6.945c-0.378,5.191 -2.538,9.363 -2.943,13.728c-0.219,2.369 0.186,4.799 1.962,7.562l1.359,2.239l3.978,2.458c2.304,1.46 4.368,1.489 6.331,0.844c3.729,-1.224 7.15,-4.375 10.909,-5.987c0.633,-0.273 1.287,-0.507 1.955,-0.719c2.312,-0.735 4.809,-1.148 7.062,-2.026c5.772,-2.27 13,-1.595 19.207,-3.101c2.183,-0.529 4.219,-1.374 5.941,-2.882c-0.114,-0.394 -0.445,-1.549 -0.589,-2.154c-0.448,-1.856 -1.842,-4.586 -2.592,-7.016c-0.492,-1.593 -0.709,-3.1 -0.571,-4.322c0.078,-0.702 0.81,-2.545 3.169,-2.45c0.859,0.035 3.063,0.54 3.252,0.575c0.604,0.114 1.333,0.12 2.001,-0.024c0.337,-0.072 0.745,-0.122 0.775,-0.513c0.03,-0.394 -0.341,-0.676 -0.61,-1.025c-1.119,-1.455 -2.657,-2.821 -3.43,-4.099c-1.557,-2.564 -3.139,-5.101 -4.804,-7.581c-1.637,-2.437 -3.36,-4.812 -5.222,-7.098c-0.624,-0.766 -1.46,-1.965 -2.385,-3.072c-0.531,-0.636 -1.037,-1.302 -1.597,-1.527c-1.543,-0.652 -2.375,-2.284 -2.077,-3.867Zm1.96,-3.363l0.089,-0.048c-0.031,0.015 -0.061,0.031 -0.089,0.048Z"/><path d="M198.731,34.591c-2.882,0.003 -5.59,4.971 -7.573,6.789c-6.436,5.898 -13.503,11.052 -19.992,16.935c-1.955,1.771 -3.84,3.625 -5.603,5.589c-0.469,0.522 -1.646,1.913 -2.502,1.739c-2.206,-0.447 -4.174,-4.795 -4.002,-6.786c0.065,-0.758 0.338,-1.476 0.581,-2.189c0.137,-0.404 0.498,-1.629 0.379,-1.22c-0.973,3.349 -5.565,6.157 -7.684,8.788c-7.866,9.767 -15.015,19.895 -27.787,23.773c-1.968,0.598 -6.66,3.043 -8.176,1.001c-1.648,-2.219 0.901,-5.721 2.254,-7.397c0.071,-0.087 1.415,-1.862 1.507,-1.81c0.59,0.334 -3.382,4.68 -3.649,4.938c-5.13,4.961 -11.11,9.105 -16.631,13.616c-7.523,6.148 -17.169,10.588 -26.681,12.729c-0.999,0.225 -3.121,-0.142 -3.461,-1.279c-0.157,-0.525 -0.613,-1.751 -0.425,-2.299c0.102,-0.296 1.138,-2.094 0.771,-1.139c-3.292,8.576 -16.072,11.248 -24.214,11.038c-1.776,-0.046 -3.789,0.481 -5.502,-0.189c-2.184,-0.853 -2.889,-2.299 -4.191,-4.098c-0.195,-0.27 -0.565,-1.968 -0.868,-1.989c-1.345,-0.093 -2.919,1.366 -3.995,1.951c-2.747,1.494 -5.344,3.277 -8.508,3.048c-4.419,-0.319 -8.911,1.606 -13.528,1.282c-1.699,-0.119 -4.454,-0.826 -5.11,-2.798c-3.225,-9.693 6.404,-18.566 13.669,-23.452c2.577,-1.734 5.026,-3.492 7.909,-4.679c0.919,-0.379 1.796,-0.729 2.672,-1.189c0.486,-0.256 2,-0.871 1.465,-0.75c-3.108,0.7 -5.667,3.68 -9.146,3.739c-4.429,0.077 -1.942,-7.084 -0.674,-8.587c1.775,-2.102 4.188,-3.585 6.262,-5.357c4.268,-3.646 7.767,-7.509 12.998,-9.858c3.295,-1.48 6.699,-1.953 10.091,-3.07c0.54,-0.178 2.831,-0.568 3.17,-1.05c0.125,-0.178 -4.72,-3.188 -5.044,-4.157c-1.218,-3.643 2.363,-9.166 4.617,-11.837c4.084,-4.838 10.295,-6.758 16.094,-8.747c1.878,-0.645 4.967,-2.207 7.063,-2.01c3.03,0.284 5.746,2.071 8.649,2.756c0.226,0.054 2.358,0.751 2.481,0.66c0.241,-0.18 0.354,-1.892 0.439,-2.199c0.593,-2.141 1.333,-4.424 2.285,-6.437c1.534,-3.244 6.294,-6.782 9.632,-8.218c7.895,-3.395 14.424,-1.723 22.456,-0.393c1.049,0.173 2.405,0.058 3.353,0.59c0.728,0.408 3.109,3.648 4.301,2.517c2.208,-2.093 3.425,-6.684 5.139,-9.306c3.285,-5.024 11.035,-9.352 17.104,-9.859c3.112,-0.259 10.258,-0.562 12.929,0.829c3.465,1.806 8.102,5.9 11.86,6.655c1.181,0.237 4.521,-3.836 5.508,-4.559c3.596,-2.63 10.198,-2.965 13.781,-0.161c7.221,5.653 6.078,14.721 3.619,22.5c-1.227,3.882 -1.284,7.155 -5.191,7.007"/><path d="M127.907,19.718c-0.329,-0.293 -0.672,-0.603 -0.871,-0.795c-0.461,-0.444 -0.869,-0.756 -1.136,-0.903c-0.535,-0.296 -1.131,-0.501 -1.767,-0.622c-0.812,-0.155 -1.715,-0.137 -2.467,-0.257c-5.058,-0.807 -9.546,-1.725 -14.115,-1.545c-3.159,0.124 -6.357,0.745 -9.782,2.242c-2.17,0.948 -4.889,2.695 -7.095,4.715c-1.657,1.517 -3.023,3.19 -3.766,4.782c-0.507,1.086 -0.96,2.245 -1.361,3.421c-0.374,1.094 -0.705,2.202 -0.999,3.279l-0.058,-0.016c-1.966,-0.454 -3.841,-1.443 -5.797,-2.078c-1.039,-0.337 -2.096,-0.592 -3.185,-0.688c-0.898,-0.08 -1.932,0.045 -3.003,0.325c-1.777,0.466 -3.704,1.372 -5.038,1.837c-3.593,1.253 -7.335,2.493 -10.667,4.358c-2.39,1.337 -4.575,2.986 -6.384,5.148c-1.442,1.721 -3.375,4.525 -4.456,7.349c-0.894,2.336 -1.184,4.696 -0.529,6.63c0.142,0.42 0.599,1.13 1.406,1.835c0.313,0.273 0.69,0.572 1.093,0.874c-2.105,0.646 -4.212,1.091 -6.29,1.736c-1.08,0.335 -2.152,0.72 -3.213,1.202c-2.235,1.013 -4.176,2.278 -5.99,3.687c-2.579,2.004 -4.892,4.304 -7.484,6.53c-1.454,1.248 -3.074,2.356 -4.525,3.631c-0.699,0.615 -1.362,1.265 -1.96,1.977c-1.106,1.316 -2.889,6.052 -2.087,8.83c0.201,0.7 0.511,1.325 0.958,1.828l-0.663,0.447c-4.55,3.053 -9.95,7.616 -12.907,12.934c-2.203,3.962 -3.085,8.332 -1.586,12.854c0.418,1.266 1.333,2.247 2.506,2.936c1.38,0.81 3.134,1.191 4.416,1.285c1.02,0.074 2.035,0.051 3.045,-0.032c3.556,-0.292 7.039,-1.47 10.476,-1.212c1.587,0.12 3.062,-0.158 4.479,-0.666c1.784,-0.639 3.47,-1.673 5.206,-2.611l1.843,-1.098c0.102,0.25 0.192,0.45 0.243,0.521c0.876,1.218 1.528,2.274 2.433,3.142c0.711,0.682 1.559,1.263 2.717,1.719c0.732,0.289 1.502,0.431 2.291,0.48c1.31,0.081 2.688,-0.159 3.949,-0.121c5.13,0.154 11.992,-0.785 17.473,-3.45c2.091,-1.017 3.979,-2.285 5.533,-3.82c0.342,0.267 0.737,0.494 1.175,0.672c1.23,0.501 2.785,0.579 3.721,0.373c4.922,-1.083 9.88,-2.76 14.586,-4.953c4.743,-2.211 9.227,-4.95 13.163,-8.133c3.883,-3.139 7.988,-6.099 11.874,-9.282c0.241,-0.197 0.481,-0.396 0.72,-0.595l0.15,0.216c1.039,1.418 2.729,2.049 4.79,1.888c2.172,-0.171 4.949,-1.427 6.384,-1.854c5.462,-1.622 9.98,-4.306 13.974,-7.61c5.79,-4.788 10.444,-10.923 15.349,-16.936c0.103,-0.126 0.211,-0.252 0.326,-0.378c-0.244,-0.917 -0.021,-3.047 0.943,-6.986c-0.07,1.283 0.359,3.189 1.169,4.952c-0.778,0.693 -1.516,1.369 -2.112,2.034c0.305,1.152 1.347,0.39 2.582,-1.105l-0.129,-0.233c-0.074,-0.145 -0.148,-0.291 -0.221,-0.437l-0.12,-0.259c1.137,-1.015 2.361,-2.068 3.353,-3.184c-0.915,1.45 -1.953,2.989 -2.883,4.113c0.114,0.208 0.234,0.411 0.36,0.608c1.204,1.886 2.893,3.165 4.484,3.499c0.777,0.164 1.631,0.082 2.495,-0.281c1.139,-0.479 2.445,-1.81 3.011,-2.432c0.847,-0.931 1.725,-1.834 2.624,-2.716c0.907,-0.889 1.838,-1.754 2.784,-2.6c5.199,-4.647 10.763,-8.825 16.08,-13.293c1.369,-1.15 2.721,-2.32 4.048,-3.519c0.974,-0.88 2.127,-2.425 3.366,-3.887c0.68,-0.803 2.35,-1.185 2.113,-1.936c1.831,-0.114 3.281,-1.637 3.279,-3.496c-0,-0.844 -0.3,-1.618 -0.799,-2.222c0.201,-0.742 0.408,-1.532 0.66,-2.348c1.616,-5.25 2.613,-11.025 1.45,-16.153c-0.849,-3.743 -2.766,-7.187 -6.335,-9.939c-2.352,-1.816 -5.654,-2.704 -8.98,-2.598c-3.213,0.102 -6.408,1.1 -8.665,2.774c-0.503,0.373 -1.565,1.49 -2.678,2.618c-0.367,0.371 -0.904,0.849 -1.283,1.177c-0.634,-0.227 -1.289,-0.554 -1.957,-0.923c-2.843,-1.571 -5.801,-3.867 -8.197,-5.096c-1.141,-0.585 -2.893,-1.002 -4.895,-1.186c-3.336,-0.307 -7.462,-0.085 -9.669,0.114c-3.392,0.305 -7.256,1.64 -10.721,3.641c-3.524,2.034 -6.627,4.737 -8.475,7.606c-1.198,1.857 -2.168,4.653 -3.374,6.937c-0.133,0.251 -0.266,0.496 -0.406,0.728Zm66.2,12.729c0.103,-0.204 0.276,-0.565 0.363,-0.823c0.36,-1.073 0.651,-2.337 1.084,-3.673c1.121,-3.456 2.005,-7.191 1.765,-10.709c-0.21,-3.077 -1.322,-5.976 -4.119,-8.197c-1.242,-0.986 -3.036,-1.35 -4.813,-1.317c-1.875,0.035 -3.773,0.504 -5.102,1.463c-0.895,0.645 -3.651,3.772 -5.229,4.59c-1.066,0.553 -2.033,0.616 -2.752,0.467c-1.473,-0.306 -3.067,-0.992 -4.673,-1.908c-2.769,-1.579 -5.634,-3.881 -7.968,-5.118c-0.846,-0.448 -2.307,-0.585 -3.873,-0.683c-2.709,-0.17 -5.709,-0.033 -7.421,0.098c-2.648,0.203 -5.659,1.255 -8.382,2.779c-2.724,1.524 -5.182,3.509 -6.629,5.691c-1.144,1.725 -2.053,4.348 -3.209,6.474c-0.705,1.298 -1.496,2.443 -2.391,3.282c-1.057,0.991 -2.324,1.243 -3.726,0.771c-1.18,-0.396 -3.382,-2.48 -3.843,-2.925l-2.397,-0.293c-4.682,-0.803 -8.828,-1.753 -13.067,-1.635c-2.561,0.071 -5.158,0.544 -7.948,1.725c-1.479,0.626 -3.27,1.715 -4.872,3.002c-1.512,1.216 -2.884,2.586 -3.532,3.938c-0.443,0.926 -0.838,1.915 -1.192,2.918c-0.357,1.014 -0.674,2.042 -0.957,3.04c-0.026,0.194 -0.235,1.717 -0.401,2.201c-0.248,0.724 -0.664,1.148 -0.956,1.364c-0.202,0.149 -0.99,0.665 -2.198,0.408c-0.615,-0.132 -2.099,-0.618 -2.287,-0.663c-2.095,-0.506 -4.099,-1.552 -6.181,-2.251c-0.697,-0.234 -1.403,-0.424 -2.135,-0.497c-0.584,-0.057 -1.275,0.126 -1.985,0.344c-1.484,0.455 -3.002,1.144 -4.101,1.514c-3.355,1.133 -6.859,2.225 -9.975,3.931c-1.923,1.053 -3.698,2.341 -5.161,4.059c-1.024,1.204 -2.352,3.045 -3.293,5.003c-0.73,1.518 -1.325,3.094 -1.032,4.411c0.464,0.358 3.008,2.317 3.859,2.958c0.422,0.318 0.699,0.582 0.812,0.716c1.01,1.204 0.455,2.268 0.143,2.708c-0.247,0.348 -0.764,0.808 -1.552,1.115c-0.852,0.331 -2.297,0.6 -2.719,0.737c-2.399,0.78 -4.803,1.243 -7.172,1.96c-0.915,0.277 -1.825,0.593 -2.725,0.994c-1.927,0.857 -3.599,1.937 -5.165,3.138c-2.538,1.946 -4.808,4.194 -7.356,6.359c-1.448,1.231 -3.061,2.321 -4.505,3.58c-0.546,0.475 -1.066,0.976 -1.534,1.528c-0.401,0.473 -0.909,1.703 -1.193,2.956c-0.142,0.625 -0.231,1.26 -0.168,1.814c0.028,0.245 0.122,0.463 0.431,0.458c0.508,-0.009 0.989,-0.109 1.451,-0.263c0.907,-0.506 1.841,-0.97 2.822,-1.373l0.034,-0.015c1.457,-0.825 2.884,-1.685 4.429,-2.031c0.992,-0.222 1.502,0.165 1.637,0.25c0.934,0.59 1.245,1.41 0.792,2.498c-0.07,0.168 -0.269,0.641 -0.897,1.009c-0.247,0.145 -1.227,0.562 -1.609,0.762l-2.845,1.267l-0.064,0.027c-0.655,0.393 -1.319,0.776 -2.012,1.078c-0.225,0.099 -0.452,0.19 -0.682,0.272l-0.268,0.156c-1.541,0.911 -3.007,1.941 -4.52,2.961c-4.069,2.744 -8.95,6.785 -11.588,11.552c-1.634,2.955 -2.38,6.198 -1.256,9.563c0.146,0.437 0.595,0.652 1.03,0.847c0.755,0.338 1.615,0.486 2.268,0.53c3.56,0.239 7.035,-0.936 10.466,-1.262c1.027,-0.098 2.049,-0.13 3.069,-0.059c0.968,0.067 1.863,-0.13 2.726,-0.444c1.583,-0.578 3.065,-1.533 4.605,-2.376c0.774,-0.424 1.803,-1.269 2.825,-1.735c0.79,-0.36 1.592,-0.533 2.343,-0.484c0.522,0.035 1.281,0.273 1.833,1.139c0.231,0.362 0.651,1.565 0.773,1.923c0.638,0.895 1.112,1.697 1.793,2.343c0.341,0.322 0.751,0.589 1.304,0.803c0.435,0.168 0.904,0.189 1.378,0.185c1.138,-0.008 2.306,-0.19 3.388,-0.167c4.515,0.098 10.553,-0.741 15.356,-3.126c2.325,-1.155 4.363,-2.672 5.685,-4.683c0.028,-0.238 0.078,-0.454 0.144,-0.645c0.106,-0.302 0.854,-1.661 1.152,-2.034c0.579,-0.727 1.24,-0.868 1.486,-0.91c0.714,-0.122 1.297,0.06 1.775,0.412c0.394,0.29 0.92,0.792 0.956,1.796c0.005,0.143 0.021,0.536 -0.231,1.185c-0.152,0.389 -0.319,0.768 -0.503,1.137l0.007,0.024l0.09,0.312c0.242,0.064 0.66,0.158 0.838,0.117c4.577,-1.054 9.181,-2.664 13.546,-4.752c4.354,-2.084 8.467,-4.648 12.067,-7.621c3.84,-3.171 7.907,-6.162 11.747,-9.381c1.495,-1.254 2.955,-2.544 4.351,-3.895c0.684,-1.264 1.527,-2.413 2.179,-3.21c0.062,-0.076 1.028,-1.327 1.452,-1.781c1.427,-1.532 3.176,-0.819 3.447,-0.664c0.82,0.471 2.122,1.972 0.924,4.155c-0.587,1.067 -2.381,3.143 -3.383,4.254c-0.155,0.316 -0.286,0.64 -0.37,0.962c-0.012,0.048 -0.029,0.096 -0.045,0.143c0.487,-0.083 1.313,-0.239 1.837,-0.417c1.298,-0.441 2.535,-0.986 3.333,-1.234c4.67,-1.45 8.509,-3.816 11.902,-6.693c5.446,-4.618 9.759,-10.536 14.35,-16.308c1.46,-1.836 4.091,-3.77 5.915,-5.897c0.466,-0.543 0.876,-1.088 1.088,-1.674l0.077,-0.248c0.023,-0.075 0.038,-0.122 0.042,-0.133c3.51,-10.348 7.626,-5.146 5.928,1.693l-0.061,0.219l-0.005,0.017c-0.032,0.107 -0.306,1.036 -0.406,1.338l-0.412,1.462c-0.04,0.502 0.283,1.239 0.637,1.953c0.101,0.204 0.257,0.44 0.422,0.664c0.906,-1.023 1.845,-2.017 2.807,-2.987c0.965,-0.972 1.954,-1.918 2.962,-2.844c5.182,-4.764 10.737,-9.063 16.04,-13.647c1.291,-1.115 2.566,-2.249 3.816,-3.411c0.461,-0.428 0.96,-1.026 1.492,-1.693c-0.145,-0.406 -0.216,-0.845 -0.199,-1.301c0.073,-1.931 1.7,-3.438 3.63,-3.365c0.119,0.006 0.257,-0.055 0.342,-0.047Z"/><path d="M66.188,186.516c-0.052,0.349 -0.079,0.685 -0.063,0.97c0.089,1.633 0.941,2.69 1.928,3.241c0.618,0.345 1.323,0.567 2.09,0.66c-0.451,0.716 -1.004,1.658 -1.386,2.518c-0.568,1.277 -0.746,2.499 -0.636,3.294c0.219,1.578 1.081,2.63 2.567,3.117c1.048,0.343 2.224,0.43 3.471,0.283c-0.454,0.841 -0.858,1.629 -1.207,2.34c-0.152,0.308 -1.047,1.903 -1.621,3.527c-0.462,1.307 -0.693,2.643 -0.586,3.669c0.196,1.881 1.163,3.211 2.989,3.791c1.14,0.362 2.352,0.481 3.602,0.386l-0.014,0.071c-0.14,0.952 0.065,1.713 0.367,2.269c0.443,0.817 1.135,1.423 2.2,1.663c0.219,0.049 0.444,0.084 0.673,0.106c-0.506,1.31 -0.986,2.888 -0.901,3.976c0.143,1.829 1.079,3.058 2.767,3.549c1.199,0.349 2.456,0.366 3.726,0.098c-0.084,0.71 -0.051,1.339 0.054,1.764c0.379,1.542 1.398,2.253 2.638,2.403c2.088,0.254 4.529,-0.992 6.64,-3.443c0.723,-0.84 1.431,-1.817 2.098,-2.838c-0.147,1.081 -0.277,2.165 -0.381,3.254c-0.255,2.687 -0.354,5.407 -0.174,8.193c0.041,0.636 0.223,4.413 0.907,6.358c0.739,2.098 2.279,2.877 3.512,2.836c0.106,-0.003 0.211,-0.011 0.314,-0.023l-0.249,2.909c-0.078,0.879 -0.432,2.666 -0.312,3.468c0.133,0.889 0.552,1.485 0.976,1.853c0.181,0.158 0.382,0.307 0.606,0.427c-0.067,0.154 -0.13,0.307 -0.19,0.46c-1.175,2.987 -1.029,5.748 0.272,7.593c0.591,0.839 1.457,1.431 2.584,1.589c0.299,0.716 0.693,1.26 1.107,1.604c0.392,0.325 0.798,0.538 1.213,0.647c0.016,1.139 0.131,2.415 0.493,3.268c0.518,1.219 1.403,1.937 2.485,2.156c1.344,0.271 2.627,0.041 3.807,-0.604c0.007,1.051 0.086,2.32 0.345,3.371c0.329,1.331 0.982,2.366 1.777,2.925c2.453,1.726 5.03,1.064 7.329,-1.246c1.234,-1.24 2.39,-3.033 3.367,-4.809c-0.283,1.796 -0.483,3.514 -0.381,5.004c0.04,0.584 0.452,3.749 1.129,4.684c0.694,0.957 1.597,1.223 2.476,1.092l0.148,-0.025c-0.195,0.996 -0.413,2.316 -0.347,3.265c0.073,1.073 0.482,1.878 0.982,2.354c0.705,0.671 1.436,0.849 2.112,0.809c0.614,-0.036 1.255,-0.279 1.838,-0.827c0.434,-0.407 0.867,-1.182 1.263,-2.015l-0.001,0.048c-0.011,0.565 0.035,2.1 0.286,3.26c0.215,0.996 0.645,1.776 1.069,2.179c1.25,1.189 2.659,1.208 4.055,0.427c1.46,-0.817 2.938,-3.056 3.319,-3.661c2.095,-3.325 3.779,-6.869 5.705,-10.283c0.597,-1.058 1.218,-2.104 1.886,-3.123c-0.531,1.535 -1.04,2.878 -1.165,3.434c-0.233,1.027 -0.76,3.555 -0.654,4.138c0.185,1.007 0.815,1.448 1.319,1.651c0.46,0.186 1.572,0.525 2.61,-0.773c0.336,-0.42 0.653,-0.859 0.953,-1.313l-0.009,0.127c-0.025,0.482 -0.207,3.004 0.197,4.305c0.414,1.335 1.329,1.977 2.298,2.081c1.44,0.155 3.042,-0.525 4.533,-1.851c-0.062,0.693 -0.165,2.273 0.025,3.222c0.252,1.262 1.041,1.927 1.716,2.144c1.293,0.415 2.686,0.054 3.95,-0.967c1.62,-1.309 3.075,-3.855 3.567,-4.672c0.665,-1.104 1.266,-2.238 1.813,-3.397l-0.012,0.76c-0.007,0.824 0.083,2.985 0.66,4.393c0.555,1.355 1.537,2.155 2.703,2.292c1.193,0.141 2.318,-0.329 3.26,-1.274c1.204,-1.209 2.089,-3.385 2.465,-4.164c1.103,-2.287 2.122,-4.613 3.099,-6.958c1.426,-3.424 2.762,-6.887 4.146,-10.321l-0.497,6.993c-0.021,0.843 0.247,5.756 1.563,7.846c0.548,0.87 1.264,1.407 2.038,1.631c0.945,0.274 2.162,0.184 3.524,-1.028c2.177,-1.936 3.806,-4.809 5.036,-8.014c0.099,0.738 0.282,1.585 0.596,2.224c0.55,1.119 1.443,1.772 2.511,1.886c2.125,0.226 4.069,-0.896 5.627,-2.914c2.345,-3.037 3.861,-8.246 4.48,-10.241l0.893,-3.028c0.048,0.248 0.103,0.469 0.164,0.658c0.744,2.281 2.335,2.586 3.701,1.961c1.864,-0.853 3.583,-2.57 5.078,-4.752c2.7,-3.94 4.749,-9.454 6.271,-12.484l2.073,-4.399c0.097,2.612 -0.21,5.519 0.037,7.284c0.034,0.243 0.561,3.192 1.08,3.918c0.533,0.747 1.216,0.991 1.785,1.037c0.586,0.046 1.23,-0.084 1.838,-0.671c1.946,-1.881 3.266,-4.681 4.121,-7.916c1.598,-6.051 1.593,-13.708 2.312,-18.324c0.221,-1.417 0.342,-2.237 0.494,-2.981c0.023,-0.115 0.047,-0.228 0.073,-0.341c0.37,-0.903 0.759,-1.801 1.101,-2.714c0.318,-0.849 0.596,-1.71 0.796,-2.596c0.288,-1.281 -0.267,-1.916 -0.376,-2.061c-0.189,-0.25 -1.023,-0.858 -1.939,-0.888c0.097,-1.474 0.17,-2.944 0.231,-4.404c0.027,-0.649 0.595,-4.294 0.415,-6.448c-0.131,-1.57 -0.785,-2.644 -1.407,-3.113c-0.683,-0.514 -1.45,-0.765 -2.263,-0.73c0.008,-0.109 0.015,-0.217 0.021,-0.324c0.123,-2.477 -0.676,-4.45 -2.231,-5.449c-1.814,-1.166 -4.36,-0.897 -6.974,0.656c-1.368,0.814 -2.789,1.967 -4.087,3.153c-0.167,-0.2 -0.352,-0.377 -0.55,-0.533c-1.575,-1.234 -3.939,-1.223 -6.462,0.048c-0.986,0.496 -2.017,1.18 -3.005,1.918c-0.388,-0.83 -0.988,-1.494 -1.765,-1.942c-1.073,-0.619 -2.707,-0.931 -5.057,-0.195l-0.218,0.086c-0.002,-0.834 -0.158,-1.567 -0.443,-2.138c-0.778,-1.559 -2.677,-3.056 -6.74,-1.56c-2.361,0.869 -4.568,2.168 -6.654,3.69c-0.676,0.493 -1.34,1.011 -1.991,1.544c-0.665,-0.409 -1.505,-0.631 -2.567,-0.575c-3.849,0.202 -7.522,2.095 -10.863,4.782c-0.633,0.51 -1.255,1.048 -1.864,1.607c-0.223,-0.335 -0.492,-0.641 -0.807,-0.914c-0.982,-0.851 -2.391,-1.229 -3.998,-1.015c-1.893,0.253 -4.173,1.422 -5.127,2.03c-2.408,1.535 -4.691,3.326 -6.892,5.238l-0.442,0.388c-2.857,0.107 -5.764,1.357 -8.533,3.317c-1.383,0.978 -2.736,2.141 -4.035,3.383c-0.515,-1.084 -1.377,-1.623 -2.283,-1.834c-1.38,-0.321 -2.868,-0.161 -4.343,0.384c-2.255,0.834 -4.523,2.683 -5.921,3.844c-2.548,2.117 -4.829,4.475 -6.884,7.022c-1.164,1.442 -2.254,2.945 -3.279,4.5c-0.623,0.317 -1.231,0.718 -1.814,1.186c-1.872,1.504 -3.509,3.79 -4.615,5.342c-0.801,1.124 -1.558,2.277 -2.288,3.447c-0.21,-0.249 -0.441,-0.47 -0.691,-0.661c-0.282,-0.719 -0.814,-1.084 -1.241,-1.28c-0.47,-0.217 -1.627,-0.682 -2.754,0.47c-0.863,0.161 -1.797,0.534 -2.639,0.969c0.889,-4.302 1.898,-8.571 2.493,-12.967c0.203,-1.496 -0.56,-2.134 -0.68,-2.258c-0.342,-0.356 -3.169,-1.785 -4.23,0.935c-0.109,0.28 -0.345,1.09 -0.546,1.774c0.316,-2.25 0.654,-4.497 1.013,-6.74c0.134,-0.834 0.698,-1.872 0.996,-2.813c0.285,-0.9 0.405,-1.757 0.334,-2.48c-0.126,-1.272 -0.712,-2.309 -1.949,-3.014c-1.237,-0.704 -2.198,-0.411 -2.92,0.039c-0.485,0.303 -0.975,0.811 -1.228,1.634c-0.132,0.428 -0.171,1.873 -0.176,2.085l-1.062,5.674c-0.399,2.14 -0.824,4.269 -1.293,6.386c0.045,-0.912 0.116,-1.818 0.206,-2.719c0.597,-6.004 2.005,-11.833 2.631,-17.923c0.113,-1.099 -0.285,-1.683 -0.445,-1.928c-0.676,-1.039 -1.601,-1.363 -2.645,-1.252c-0.422,0.045 -1.265,0.205 -1.97,1.134c-0.139,0.182 -0.434,0.796 -0.7,1.331l-0.112,-0.035c-0.761,-0.212 -1.834,-0.173 -2.936,0.494c-1.062,0.644 -2.468,2.233 -2.697,2.483c-1.44,1.575 -2.76,3.258 -3.907,5.048l-0.174,0.28c-0.77,0.693 -1.59,1.358 -2.433,1.914c-0.346,0.227 -0.69,0.45 -1.032,0.638c0.263,-0.562 0.5,-0.99 0.561,-1.108c0.918,-1.763 2.019,-3.386 3.235,-4.92c2.165,-1.958 4.065,-4.058 5.069,-4.975l2.395,-2.255c0.511,-0.479 1.809,-1.268 2.308,-1.757c0.558,-0.547 0.828,-1.101 0.949,-1.487c0.341,-1.087 0.11,-2 -0.443,-2.756c-0.302,-0.413 -0.821,-0.99 -1.836,-1.212c0.226,-0.981 -0.049,-1.669 -0.267,-2.091c-0.579,-1.125 -1.586,-2.012 -3.423,-1.598c-1.846,0.42 -3.789,1.526 -5.645,3.071c-2.278,1.897 -4.474,4.47 -6.26,6.679c-0.854,0.554 -1.739,1.071 -2.633,1.504c-0.867,0.422 -1.734,0.794 -2.572,0.971c0.408,-0.962 0.873,-2.053 0.955,-2.218c1.441,-2.898 3.902,-7.234 6.848,-10.911c1.131,-0.848 2.097,-1.608 2.794,-2.117l4.295,-3.361c0.483,-0.387 1.677,-1.333 1.905,-1.627c0.735,-0.95 0.741,-1.841 0.692,-2.344c-0.094,-0.963 -0.525,-1.733 -1.302,-2.305c-0.355,-0.262 -1.279,-0.987 -2.953,-0.491c-3.231,0.956 -6.532,3.613 -9.428,7.015l-0.229,0.272c-1.15,0.852 -2.447,1.758 -3.775,2.534c1.122,-1.53 2.333,-3.068 3.617,-4.538c1.675,-1.917 3.476,-3.718 5.376,-5.218c0.143,-0.113 0.225,-0.19 0.262,-0.225c2.104,-1.967 0.658,-4.071 0.47,-4.344c-0.461,-0.672 -1.509,-1.884 -3.602,-1.344c-0.082,0.021 -0.508,0.111 -1.076,0.493c-0.178,0.119 -0.791,0.562 -1.035,0.748l-2.602,1.975c-0.812,0.592 -2.351,1.84 -4.064,2.949c0.121,-0.225 0.247,-0.449 0.376,-0.67c0.258,-0.439 0.521,-0.876 0.797,-1.277l0.243,-0.229c0.495,-0.465 1.743,-1.588 2.043,-1.93c0.671,-0.762 0.809,-1.452 0.858,-1.712c0.204,-1.095 -0.102,-1.917 -0.501,-2.523c-0.408,-0.619 -0.987,-1.132 -1.841,-1.394c0.074,-0.1 0.143,-0.202 0.205,-0.307c0.157,-0.268 0.291,-0.548 0.396,-0.843c0.883,-2.474 -0.582,-3.66 -1.21,-4.12c-0.709,-0.518 -1.853,-1.048 -3.401,-0.435c-0.24,0.095 -0.592,0.264 -0.979,0.561c-0.347,0.266 -0.99,0.913 -1.293,1.189l-2.356,2.427c-0.905,1.067 -4.363,5.174 -5.295,8.078c-0.679,2.116 -0.331,3.927 0.64,5.182c0.642,0.829 1.554,1.428 2.677,1.611Zm170.649,13.331c-0.215,-0.054 -0.46,0.141 -0.745,0.254c-1.056,0.42 -2.187,1.248 -3.282,2.165c-1.424,1.195 -2.767,2.563 -3.784,3.654c-0.128,0.43 -0.279,0.861 -0.451,1.285c-0.676,1.668 -1.666,3.205 -2.673,4.128c-1.072,0.984 -2.248,1.386 -3.297,1.311c-0.777,-0.055 -1.339,-0.4 -1.751,-0.914c-0.295,-0.369 -0.769,-1.096 -0.448,-2.234c0.048,-0.171 0.196,-0.556 0.499,-1.042c0.722,-1.159 2.796,-3.946 2.986,-4.151l0.451,-0.492l0.068,-0.326l0.043,-0.237c-0.107,0.032 -0.213,0.067 -0.302,0.105c-0.778,0.331 -1.602,0.858 -2.408,1.442c-1.491,1.08 -2.908,2.365 -3.896,3.285c-0.604,1.347 -1.405,2.62 -2.272,3.567c-1.449,1.582 -3.158,2.261 -4.546,2.085c-1.745,-0.222 -2.198,-1.312 -2.315,-2.274c-0.057,-0.466 -0.013,-1.108 0.412,-1.785c0.242,-0.386 1.003,-1.061 1.337,-1.415l3.036,-2.949l0.064,-0.058l0.045,-0.126c0.145,-0.447 0.214,-1.088 0.245,-1.502c-0.213,0.031 -0.472,0.079 -0.695,0.15l-1.433,0.553l-3.346,2.5c-0.281,0.411 -0.552,0.769 -0.794,1.05c-0.037,0.042 -2.626,2.758 -3.78,3.404c-1.91,1.07 -3.264,0.095 -3.83,-0.766c-0.336,-0.511 -0.878,-2.079 0.499,-3.641c0.766,-0.869 2.705,-2.447 3.813,-3.329c0.503,-0.943 1.052,-2.248 1.44,-3.222c-1.791,0.71 -3.462,1.738 -5.054,2.909c-1.06,0.781 -2.085,1.625 -3.082,2.495c-0.079,1.015 -0.3,1.985 -0.585,2.676c-0.947,2.29 -2.831,5.052 -5.174,6.923c-1.841,1.47 -3.957,2.391 -6.116,2.404c-1.03,0.006 -1.698,-0.389 -2.159,-0.836c-0.652,-0.63 -1.126,-1.627 -0.799,-2.978c0.255,-1.055 1.588,-2.976 2.379,-3.793l3.27,-3.123c-0.97,0.566 -1.913,1.249 -2.83,1.993c-2.237,1.815 -4.308,4.018 -6.185,6.142c-0.817,1.719 -1.79,3.379 -2.871,4.968c-1.262,1.853 -2.669,3.611 -4.141,5.253c-0.68,0.758 -1.882,2.273 -3.15,3.16c-1.026,0.718 -2.122,1.094 -3.152,1.077c-1.804,-0.028 -2.522,-1.027 -2.858,-2.006c-0.189,-0.551 -0.274,-1.31 0.066,-2.188c0.291,-0.751 1.451,-2.139 2.004,-2.809l5.809,-6.349c0.996,-1.077 2.082,-2.333 3.25,-3.658c0.107,-0.23 0.211,-0.461 0.31,-0.694c0.142,-0.332 0.356,-0.827 0.529,-1.378c-0.685,0.263 -1.461,0.579 -1.747,0.763c-2.166,1.396 -4.214,3.027 -6.191,4.761c-0.236,0.208 -0.471,0.417 -0.705,0.627c-0.184,0.626 -0.509,1.387 -0.958,2.173c-1.07,1.87 -2.787,4.105 -2.842,4.173c-1.349,1.644 -2.794,3.183 -4.316,4.645c-1.494,1.437 -3.06,2.8 -4.677,4.118c-0.317,0.259 -2.589,2.284 -4.263,2.991c-1.205,0.508 -2.316,0.514 -3.132,0.244c-0.675,-0.224 -1.152,-0.554 -1.489,-0.936c-1.127,1.812 -2.388,3.64 -3.717,5.142c-1.933,2.184 -4.075,3.7 -6.14,4.159c-0.396,0.089 -0.75,0.118 -1.068,0.105c-0.833,1.354 -1.741,2.492 -2.401,3.063c-0.709,0.613 -2.738,1.632 -4.245,1.67c-1.318,0.033 -2.394,-0.384 -3.149,-1.198l-0.003,0.004c-0.592,0.983 -1.17,1.975 -1.743,2.969c0.223,0.234 0.423,0.549 0.554,0.977c0.09,0.298 0.095,1.621 0.029,2.154c-0.094,0.763 -0.215,1.404 -0.381,2.052c-0.151,0.593 -0.342,1.192 -0.592,1.904c-0.416,1.188 -1.157,3.529 -2.195,5.891c-0.291,1.945 -0.479,3.865 -0.602,5.641c-0.049,0.719 0.241,3.366 0.305,3.929c0.273,0.052 0.527,-0.194 0.8,-0.416c0.766,-0.62 1.48,-1.57 2.143,-2.603c1.762,-2.744 3.099,-6.087 3.55,-7.066l1.469,-3.387c0.149,-0.323 0.361,-1.061 0.531,-1.37c0.279,-0.506 0.631,-0.796 0.887,-0.954c0.694,-0.427 1.379,-0.446 2.027,-0.205c0.416,0.154 1.041,0.465 1.4,1.409c0.639,1.679 0.759,3.703 0.567,5.875c-0.31,3.511 -1.497,7.482 -1.439,10.562c0.082,-0.182 0.161,-0.369 0.238,-0.56c1.152,-2.857 1.811,-6.439 2.349,-7.957l1.431,-3.66c0.162,-0.378 0.504,-1.333 0.623,-1.584c1.101,-2.312 3.471,-0.852 3.752,-0.504c0.094,0.116 0.692,0.697 0.44,1.937c-0.11,0.544 -0.23,1.086 -0.36,1.626c0.229,-0.391 0.475,-0.707 0.714,-0.935c1.123,-1.066 2.123,-0.664 2.555,-0.457c0.53,0.255 1.147,0.757 1.243,1.806c0.036,0.397 -0.471,2.077 -0.646,2.777l-0.83,3.248c-0.636,2.856 -1.234,5.79 -1.633,8.738c-0.261,1.929 -0.437,3.864 -0.479,5.785c-0.003,0.153 0.026,0.495 0.068,0.881c0.368,-0.443 0.718,-0.877 0.813,-1.028c2.065,-3.263 3.721,-6.745 5.621,-10.096c0.853,-1.504 1.752,-2.982 2.75,-4.407c0.168,-0.239 2.842,-3.949 4.181,-4.903c1.385,-0.987 2.578,-0.562 3.205,0.007c0.367,0.333 0.686,0.911 0.851,1.683c0.343,-0.779 0.694,-1.537 1.013,-1.956c0.484,-0.636 1.042,-0.937 1.485,-1.053c0.903,-0.235 2.024,-0.164 2.775,1.391c0.415,0.859 0.488,1.764 0.307,2.697c-0.217,1.114 -0.94,2.299 -1.303,3.379c-0.644,1.914 -1.381,3.876 -1.907,5.872c-0.324,1.231 -0.567,2.475 -0.635,3.73c-0.008,0.149 -0.006,0.778 0,1.41c0.428,-0.36 0.85,-0.806 1.262,-1.292c1.838,-2.168 3.454,-5.077 4.308,-6.264l2.566,-3.68c0.148,-0.225 0.336,-0.783 0.477,-1.018c0.225,-0.372 0.484,-0.6 0.668,-0.727c0.718,-0.498 1.408,-0.465 2.001,-0.216c0.378,0.158 1.022,0.491 1.255,1.529c0.221,0.98 0.041,1.906 -0.423,2.791c-0.478,0.91 -1.46,1.749 -1.909,2.679c-0.734,1.525 -1.425,3.067 -1.994,4.649c-0.542,1.511 -0.972,3.059 -1.213,4.667c0.791,-1.001 1.412,-2.138 1.686,-2.592c1.113,-1.845 2.026,-3.784 2.809,-5.778c1.204,-3.071 2.098,-6.272 2.911,-9.468l0.69,-3.04c0.14,-0.652 0.199,-2.107 0.365,-2.762c0.129,-0.507 0.342,-0.86 0.513,-1.068c0.549,-0.666 1.216,-0.841 1.866,-0.772c0.429,0.046 1.146,0.209 1.698,1.15c0.312,0.534 0.506,1.325 0.508,2.219c0.003,1.266 -0.36,2.829 -0.393,3.097c-0.39,3.188 -0.888,6.41 -1.232,9.637c-0.224,2.096 -0.381,4.193 -0.398,6.283c-0.001,0.264 0.092,0.936 0.192,1.573c0.464,-0.789 1.037,-1.778 1.2,-2.118c1.07,-2.22 2.057,-4.479 3.004,-6.756c1.438,-3.46 2.785,-6.96 4.182,-10.43l2.936,-7.105c0.043,-0.089 1.209,-2.002 1.714,-2.717c1.442,-2.045 3.709,0.018 3.805,0.321c0.322,1.013 0.417,2.195 0.355,3.441c-0.112,2.214 -0.746,4.675 -0.924,6.447l-0.584,8.37c-0.01,0.449 0.534,3.399 0.799,4.811c1.509,-1.564 2.604,-3.754 3.494,-6.122c1.584,-4.216 2.469,-9.005 3.333,-12.477c0.018,-0.072 0.416,-3.263 0.979,-5.033c0.391,-1.229 1.065,-1.993 1.521,-2.255c0.868,-0.5 1.585,-0.36 2.151,-0.073c0.415,0.21 0.825,0.575 1.078,1.182c0.202,0.484 0.226,1.654 0.243,2.24l-0.219,3.442c-0.247,3.081 -0.821,6.255 -1.099,9.399c-0.113,1.274 -0.175,2.543 -0.138,3.798c0.006,0.202 0.096,0.743 0.175,1.178c0.144,-0.086 0.283,-0.198 0.421,-0.319c0.531,-0.468 0.997,-1.117 1.427,-1.84c1.602,-2.696 2.604,-6.365 3.073,-7.888l1.595,-5.453l0.992,-4.435c0.05,-0.254 0.206,-2.996 0.763,-4.527c0.368,-1.012 0.967,-1.683 1.528,-2.003c0.908,-0.517 1.66,-0.389 2.257,-0.102c0.456,0.22 0.902,0.61 1.188,1.257c0.265,0.601 0.273,2.065 0.393,2.795c0.103,0.624 0.289,4.95 0.398,7.705c0.772,-0.875 1.478,-1.963 2.153,-3.119c2.096,-3.595 3.717,-7.933 4.982,-10.468l2.865,-6.116c0.035,-0.067 0.748,-1.282 1.449,-2.106c0.516,-0.605 1.089,-1.017 1.506,-1.186c1.143,-0.466 2.083,-0.182 2.802,0.663c0.918,1.079 1.455,2.702 1.654,4.586c0.166,1.578 0.096,3.377 0.052,5.01c0.291,-1.003 0.525,-2.068 0.726,-3.162c0.388,-2.106 0.632,-4.319 0.821,-6.467c-0.785,-0.075 -1.459,-0.443 -1.522,-0.504c-0.093,-0.09 -0.905,-0.824 -0.649,-2.192c0.095,-0.506 0.543,-2.286 0.781,-2.989l0.31,-0.793c0.391,-1.62 0.705,-3.263 0.96,-4.919c0.671,-4.347 0.937,-8.778 1.103,-13.113c0.014,-0.35 0.119,-2.208 0.211,-3.806l-0.035,0.043c-0.191,0.246 -0.379,0.501 -0.561,0.759c-0.244,0.66 -0.456,1.194 -0.592,1.534l-1.421,3.196c-0.443,0.857 -1.168,2.579 -1.805,3.184c-0.6,0.569 -1.259,0.794 -1.863,0.816c-0.711,0.026 -1.491,-0.169 -2.192,-0.974c-0.421,-0.483 -0.808,-1.297 -0.574,-2.424c0.234,-1.126 1.852,-3.674 1.946,-3.832c0.272,-0.457 1.068,-1.851 2.091,-3.363c0.387,-1.06 0.838,-2.424 1.137,-3.786c0.185,-0.849 0.315,-1.695 0.295,-2.441c-0.006,-0.249 -0.087,-0.613 -0.122,-0.757Zm-121.813,62.292l-0.155,0.183c-0.819,0.908 -1.689,1.279 -2.249,1.406l-0.032,0.007c-0.002,0.511 0.013,1.245 0.027,1.831c0.142,-0.114 0.279,-0.251 0.417,-0.392c0.683,-0.694 1.274,-1.645 1.804,-2.662l0.188,-0.373Zm27.481,-36.516l-0.522,0.44c-2.211,1.855 -4.186,3.922 -5.967,6.15c-0.317,0.397 -0.628,0.8 -0.933,1.208c0.269,0.304 0.498,0.645 0.678,1.023l0.06,-0.057l4.17,-4.29c0.975,-1.627 1.828,-3.216 2.514,-4.474Z" style="fill-opacity:0.85"/><g id="Lentes"><path d="M44.42,169.653c0.844,-0.954 3.383,-1.043 4.55,-1.305c3.285,-0.74 7.053,-1.689 10.214,-2.915c12.769,-4.95 26.341,-7.418 39.697,-10.726c5.575,-1.38 14.532,-1.795 19.507,-4.95" style="fill:#fff;fill-opacity:0.45"/><path d="M46.609,172.383c0.525,0.747 2.347,-0.669 3.073,-0.874c2.004,-0.559 4.175,-1.198 6.288,-1.93c1.453,-0.503 2.877,-1.032 4.195,-1.616c4.968,-2.134 10.045,-3.953 15.245,-5.449c3.141,-0.903 6.314,-1.718 9.513,-2.432c4.83,-1.078 9.71,-1.923 14.553,-2.972c3.909,-0.769 9.386,-1.022 14.124,-2.029c2.499,-0.531 4.781,-1.317 6.663,-2.369c1.631,-1.035 2.115,-3.199 1.081,-4.83c-1.035,-1.631 -3.199,-2.116 -4.831,-1.081c-1.249,0.894 -2.816,1.607 -4.548,2.168c-4.547,1.474 -9.913,2.207 -13.679,3.336c-5.286,1.463 -10.573,2.92 -15.897,4.201c-5.401,1.299 -10.812,2.48 -16.139,3.967c-2.701,0.753 -5.388,1.528 -8.047,2.431c-1.524,0.509 -3.186,0.932 -4.864,1.308c-1.726,0.386 -3.462,0.696 -5.081,0.974c-1.062,0.18 -3.051,0.283 -4.388,0.767c-0.876,0.316 -1.542,0.844 -2.07,1.379c-1.281,1.445 -1.147,3.659 0.299,4.94c1.295,1.147 3.205,1.16 4.51,0.111Z"/><path d="M121.995,144.807c0.66,-0.148 -0.738,1.137 -1.037,1.743c-0.511,1.039 -0.738,2.295 -1.031,3.419c-0.997,3.809 -0.828,7.908 0.033,11.733c2.555,11.352 10.103,20.466 20.373,26.215c19.656,11.004 42.613,10.722 62.325,-0.17c8.03,-4.437 14.645,-9.553 17.599,-18.664c2.335,-7.202 0.629,-15.662 -1.731,-22.585c-5.101,-14.961 -16.395,-28.887 -33.049,-31.467c-12.265,-1.901 -25.114,2.913 -36.394,7.187c-10.114,3.832 -15.249,10.244 -21.729,18.254c-0.935,1.155 -6.286,5.736 -5.991,7.049" style="fill:#fff;fill-opacity:0.45"/><path d="M121.767,141.311c-0.171,0.015 -0.352,0.042 -0.541,0.082c-1.002,0.225 -1.807,0.861 -2.277,1.691c-0.48,0.086 -0.901,1.514 -1.101,1.935c-0.22,0.464 -0.411,0.952 -0.568,1.459c-0.267,0.861 -0.449,1.777 -0.658,2.627c-0.544,2.206 -0.768,4.488 -0.706,6.772c0.06,2.206 0.366,4.412 0.876,6.538c1.477,6.159 4.291,11.695 8.166,16.443c3.773,4.623 8.529,8.518 14.011,11.496c10.31,5.616 21.44,8.278 32.55,8.103c11.022,-0.174 22.031,-3.118 32.175,-8.834c4.181,-2.342 7.979,-4.873 11.126,-7.993c3.234,-3.206 5.798,-7.025 7.373,-11.919c1.009,-3.121 1.32,-6.459 1.167,-9.823c-0.221,-4.84 -1.415,-9.737 -2.872,-14.059c-2.604,-7.817 -6.853,-15.357 -12.588,-21.315c-5.837,-6.063 -13.22,-10.48 -22.042,-11.937c-5.206,-0.87 -10.523,-0.593 -15.801,0.33c-7.588,1.326 -15.093,4.026 -22.021,6.548c-4.312,1.567 -7.793,3.589 -10.873,5.967c-4.592,3.544 -8.249,7.931 -12.419,12.938c-0.428,0.512 -1.685,1.675 -2.977,2.951Zm1.599,9.081l-0.135,0.442c-0.445,1.608 -0.651,3.279 -0.654,4.957c-0.002,1.749 0.194,3.502 0.55,5.198c1.107,5.256 3.365,10.014 6.543,14.126c3.197,4.136 7.293,7.635 12.028,10.365c9.371,5.39 19.561,8.106 29.793,8.149c10.279,0.043 20.584,-2.586 30.13,-7.758c3.859,-2.102 7.393,-4.35 10.303,-7.187c2.806,-2.737 5.022,-6.022 6.397,-10.229c1.081,-3.33 1.215,-6.955 0.812,-10.544c-0.419,-3.73 -1.423,-7.421 -2.569,-10.744c-2.505,-7.178 -6.485,-14.108 -11.87,-19.514c-5.231,-5.252 -11.803,-9.041 -19.597,-10.169c-4.652,-0.664 -9.38,-0.286 -14.059,0.653c-7.232,1.45 -14.339,4.256 -20.908,6.844c-3.625,1.431 -6.537,3.223 -9.095,5.315c-4.142,3.386 -7.358,7.562 -11.071,12.287c-0.705,0.899 -3.476,6.573 -5.225,5.861c-0.215,0.785 -0.701,1.479 -1.373,1.948Z"/><path d="M203.618,128.835c-1.116,0.049 2.289,-2.809 2.664,-3.061c2.203,-1.477 4.666,-2.867 7.158,-3.791c4.768,-1.768 10.813,-3.095 15.893,-3.354c1.75,-0.089 3.148,-0.194 4.862,0.079c0.431,0.069 2.685,0.615 2.616,0.305" style="fill:#fff;fill-opacity:0.45"/><path d="M206.846,130.186c0.511,-0.479 0.978,-1.808 1.109,-1.919c0.964,-0.797 1.952,-1.602 3.027,-2.312c1.053,-0.696 2.134,-1.326 3.248,-1.843c1.149,-0.495 2.36,-1.006 3.648,-1.408c1.234,-0.385 2.519,-0.716 3.821,-0.943c2.649,-0.463 5.332,-0.525 7.769,-0.47c0.834,0.044 1.571,0.084 2.313,0.159c0.632,0.064 1.234,0.216 1.914,0.402c0.419,0.117 2.237,0.648 2.949,0.721c1.364,0.142 2.147,-0.673 2.595,-1.013c1.019,-0.775 1.117,-1.94 0.986,-3.316c-0.382,-1.699 -1.943,-2.83 -3.627,-2.725c-0.289,-0.36 -1.657,0.056 -1.903,0.046c-0.847,-0.042 -1.611,-0.062 -2.375,0.003c-1.018,0.086 -1.995,0.224 -3.122,0.4c-2.146,0.279 -4.413,0.778 -6.723,1.34c-1.309,0.318 -2.622,0.662 -3.926,0.984c-2.049,0.507 -4.065,0.967 -5.898,1.562c-1.393,0.394 -2.76,0.949 -4.128,1.534c-1.352,0.578 -2.653,1.221 -3.913,1.894c-0.309,0.161 -2.122,1.436 -3.192,2.379c-0.611,0.538 -0.93,1.141 -1.146,1.513c-0.844,1.451 -0.185,2.679 0.254,3.53c0.424,0.823 1.395,1.497 3.247,1.628c1.396,-0.062 2.566,-0.936 3.073,-2.146Zm-2.354,-4.74c-0.288,-0.11 -0.625,-0.173 -1.029,-0.108c0.355,-0.015 0.701,0.023 1.029,0.108Zm28.881,-5.782c0.001,0.038 0.009,0.077 0.023,0.117l-0.023,-0.117Z"/><path d="M232.127,119.733c-3.754,0.845 -4.005,5.172 -5.147,8.035c-3.766,9.45 -1.294,21.266 5.498,28.556c17.297,18.564 51.712,16.984 69.043,-0.115c5.233,-5.163 7.744,-12.293 10.535,-18.862c1.47,-3.457 5.574,-6.266 5.924,-10.112c0.567,-6.24 -3.838,-13.179 -7.007,-18.155c-2.128,-3.339 -3.908,-7.463 -6.832,-10.201c-4.038,-3.781 -9.068,-8.195 -14.531,-9.642c-13.044,-3.456 -26.331,5.824 -36.581,12.429c-6.144,3.959 -12.453,8.927 -17.636,14.089c-0.599,0.597 -4.859,3.526 -4.721,4.138" style="fill:#fff;fill-opacity:0.45"/><path d="M227.454,118.491c-0.179,0.182 -0.349,0.373 -0.51,0.572c-1.642,2.034 -2.181,5.13 -3.071,7.467c-2.022,5.311 -2.351,11.247 -1.165,16.871c1.181,5.603 3.815,10.892 7.652,14.897c9.264,9.691 22.926,14.103 36.59,13.753c13.537,-0.347 27.042,-5.326 36.039,-14.353c2.223,-2.212 3.987,-4.753 5.486,-7.459c2.146,-3.872 3.748,-8.087 5.442,-12.101c0.985,-2.305 3.215,-4.288 4.594,-6.53c0.806,-1.308 1.371,-2.689 1.514,-4.187c0.272,-2.823 -0.343,-5.781 -1.428,-8.672c-1.478,-3.942 -3.844,-7.76 -5.775,-10.846c-1.48,-2.367 -2.794,-5.112 -4.44,-7.51c-0.798,-1.164 -1.675,-2.249 -2.666,-3.197c-2.48,-2.374 -5.334,-4.975 -8.43,-7.029c-2.233,-1.482 -4.597,-2.671 -7.036,-3.346c-5.735,-1.598 -11.539,-0.952 -17.171,0.869c-7.846,2.538 -15.343,7.444 -21.701,11.413c-3.188,1.988 -6.417,4.239 -9.53,6.64c-3.129,2.413 -6.133,4.983 -8.851,7.606c-0.513,0.495 -3.563,2.574 -4.586,3.652c-0.473,0.499 -0.774,1.008 -0.957,1.49Zm7.945,2.482c-0.403,1.061 -1.314,1.907 -2.504,2.175c-0.664,0.138 -0.94,0.677 -1.186,1.218c-0.682,1.5 -1.043,3.251 -1.622,4.64c-1.713,4.115 -2.076,8.766 -1.276,13.201c0.816,4.527 2.794,8.842 5.785,12.143c8.015,8.825 20.128,12.936 32.281,12.882c12.376,-0.056 24.814,-4.4 33.175,-12.511c1.959,-1.916 3.511,-4.129 4.838,-6.485c2.1,-3.73 3.649,-7.807 5.306,-11.68c1.047,-2.478 3.373,-4.657 4.839,-7.073c0.464,-0.766 0.824,-1.56 0.9,-2.434c0.19,-2.223 -0.37,-4.538 -1.254,-6.801c-1.425,-3.648 -3.714,-7.148 -5.557,-9.99c-1.286,-1.983 -2.447,-4.249 -3.807,-6.326c-0.811,-1.24 -1.7,-2.407 -2.752,-3.371c-2.337,-2.141 -5.012,-4.498 -7.911,-6.331c-1.814,-1.148 -3.719,-2.08 -5.684,-2.578c-4.77,-1.198 -9.547,-0.47 -14.156,1.161c-7.338,2.597 -14.242,7.498 -20.133,11.416c-2.959,1.969 -5.952,4.186 -8.827,6.547c-2.861,2.35 -5.597,4.848 -8.064,7.385c-0.278,0.286 -1.348,1.812 -2.391,2.812Z"/></g></g></svg>