<?xml version="1.0" encoding="UTF-8" standalone="no"?><!DOCTYPE svg PUBLIC "-//W3C//DTD SVG 1.1//EN" "http://www.w3.org/Graphics/SVG/1.1/DTD/svg11.dtd"><svg width="100%" height="100%" viewBox="0 0 242 348" version="1.1" xmlns="http://www.w3.org/2000/svg" xmlns:xlink="http://www.w3.org/1999/xlink" xml:space="preserve" xmlns:serif="http://www.serif.com/" style="fill-rule:evenodd;clip-rule:evenodd;stroke-linejoin:round;stroke-miterlimit:2" fill-rule="evenodd" clip-rule="evenodd" stroke-linejoin="round" stroke-miterlimit="2" vector-effect="non-scaling-stroke"><g id="Ropa"><path d="M117.369,241.497c0.006,-0.024 -1.407,2.15 -2.041,2.911c-1.57,1.886 -2.896,4.63 -3.096,7.093c-0.66,8.145 -1.647,16.199 -2.11,24.378c-1.149,20.251 -0.221,35.174 6.614,53.757c1.113,3.026 3.158,11.096 -1.619,11.525c-4.501,0.404 -7.701,-2.217 -11.607,-3.799c-2.823,-1.143 -7.825,-1.019 -10.132,-3.103c-2.908,-2.626 -3.43,-10.328 -4.785,-13.867c-7.437,-19.433 -3.978,-45.375 6.684,-63.13c2.964,-4.935 7.4,-9.862 13.298,-10.954c3.915,-0.725 5.401,5.314 6.614,3.864" style="fill:#fff"/><path d="M112.133,244.473c-1.147,-0.634 -2.476,-0.938 -4.015,-0.63c-2.742,0.546 -5.214,1.777 -7.393,3.464c-3.034,2.348 -5.515,5.556 -7.398,8.784c-5.359,9.17 -8.853,20.405 -10.044,31.837c-1.193,11.448 -0.092,23.09 3.813,33.037c0.925,2.376 1.48,6.65 2.641,9.97c0.654,1.873 1.51,3.466 2.617,4.458c0.887,0.798 2.087,1.356 3.44,1.752c2.362,0.691 5.253,0.864 7.143,1.63c2.377,0.968 4.495,2.313 6.797,3.144c1.702,0.614 3.496,0.966 5.522,0.79c2.326,-0.196 3.592,-1.591 4.154,-3.573c0.858,-3.027 -0.332,-7.808 -1.147,-10.062c-3.317,-9.257 -5.173,-17.583 -6.007,-26.123c-0.823,-8.42 -0.647,-17.041 0.026,-26.949c0.166,-2.427 0.378,-4.842 0.616,-7.251c0.519,-5.255 1.156,-10.481 1.671,-15.743c0.231,0.015 0.457,0.003 0.679,-0.027c0.651,-0.091 1.328,-0.399 1.954,-1.126c0.93,-1.111 0.782,-2.768 -0.329,-3.697c-0.23,-0.192 -0.482,-0.338 -0.747,-0.438c0.358,-0.607 0.762,-1.17 1.183,-1.663c0.537,-0.627 1.587,-2.149 2.042,-2.812l0.078,-0.121c0.213,-0.269 0.376,-0.583 0.472,-0.934c0.021,-0.083 -3.109,-4.637 -4.911,-1.851c-0.368,0.569 -1.205,1.88 -1.643,2.42c-0.424,0.523 -0.834,1.1 -1.214,1.714Zm-2.036,4.775c-0.049,-0.044 -0.099,-0.087 -0.15,-0.128c-0.254,-0.203 -0.535,-0.412 -0.916,-0.347c-2.516,0.431 -4.723,1.698 -6.63,3.365c-2.058,1.8 -3.784,4.045 -5.174,6.295c-5.281,8.56 -8.852,19.123 -10.201,29.924c-1.357,10.856 -0.485,21.944 3.064,31.462c0.909,2.414 1.424,6.742 2.566,10.111c0.449,1.323 0.971,2.491 1.745,3.196c0.574,0.52 1.373,0.84 2.25,1.098c2.458,0.723 5.463,0.928 7.431,1.725c2.34,0.942 4.424,2.264 6.691,3.069c1.298,0.461 2.663,0.737 4.205,0.594c1.19,-0.113 1.469,-1.167 1.552,-2.324c0.175,-2.43 -0.731,-5.511 -1.322,-7.09c-3.583,-9.494 -5.611,-18.056 -6.645,-26.85c-1.012,-8.604 -1.064,-17.431 -0.602,-27.591c0.111,-2.473 0.272,-4.935 0.453,-7.393c0.42,-5.692 0.965,-11.355 1.353,-17.063c0.046,-0.672 0.159,-1.361 0.33,-2.053Z"/><path d="M74.904,219.442c-1.765,0.593 4.05,-4.213 4.995,-4.875c4.123,-2.891 9.615,-6.243 14.353,-7.852c4.697,-1.596 8.541,-5.004 13.79,-5.446c9.972,-0.84 20.759,7.742 25.396,16.148c1.196,2.166 -5.223,5.139 -6.261,6.205c-2.136,2.192 -4.321,4.345 -6.513,6.495c-5.077,4.982 -22.556,47.688 -27.394,45.407" style="fill:#fff"/><path d="M77.166,220.772c1.194,-0.197 3.576,-3.774 4.145,-4.192c1.968,-1.444 4.259,-3.013 6.636,-4.421c2.336,-1.383 4.746,-2.622 6.989,-3.433c3.321,-1.2 6.198,-3.296 9.462,-4.618c1.191,-0.482 2.438,-0.856 3.799,-0.992c4.625,-0.455 9.465,1.316 13.688,4.154c4.233,2.844 7.849,6.759 10.087,10.657c-0.507,0.004 -0.828,1.116 -1.538,1.642c-1.704,1.262 -3.791,2.399 -4.36,2.978l-6.551,6.408c-0.826,0.792 -1.971,2.476 -3.327,4.769c-4.829,8.163 -12.707,24.624 -18.584,33.848c-1.223,1.92 -2.357,3.5 -3.343,4.586c-0.321,0.354 -0.852,0.531 -1.014,0.741c-0.978,0.006 -1.914,0.561 -2.359,1.505c-0.618,1.31 -0.056,2.876 1.254,3.494c0.951,0.421 2.052,0.509 3.264,-0.095c1.059,-0.53 2.455,-1.842 3.906,-3.912c6.87,-9.801 18.472,-38.528 22.485,-42.611l6.475,-6.583c0.797,-0.823 4.671,-2.795 6.052,-4.643c0.866,-1.157 1.016,-2.327 0.443,-3.375c-2.384,-4.391 -6.372,-8.823 -11.039,-12.102c-4.852,-3.408 -10.449,-5.534 -15.85,-5.155c-1.735,0.118 -3.336,0.533 -4.87,1.093c-3.248,1.184 -6.145,3.136 -9.447,4.188c-2.036,0.648 -4.205,1.6 -6.363,2.693c-3.095,1.567 -6.156,3.441 -8.718,5.157c-0.814,0.545 -4.815,3.742 -5.786,4.926c-1.777,2.167 -0.112,3.889 0.716,4.334c0.361,0.194 1.12,0.492 2.322,0.118c0.624,-0.21 1.117,-0.632 1.426,-1.159Zm-2.599,-3.933c-0.153,0.014 -0.32,0.05 -0.499,0.115c0.165,-0.056 0.332,-0.094 0.499,-0.115Z"/><g id="Playera"><path d="M37.658,266.828c-2.549,-0.343 -5.589,-0.964 -7.26,-1.453c-1.333,-0.389 -4.051,-0.776 -3.603,-2.091c1.079,-3.168 6.062,-11.724 10.077,-16.916c4.359,-5.639 11.561,-12.269 16.081,-16.917c3.618,-3.72 7.679,-8.302 11.042,-10.972c2.726,-2.164 6.644,-3.939 9.138,-5.051c1.839,-0.821 4.133,-1.947 5.821,-1.622c0.398,0.077 0.835,0.213 1.273,0.401c1.971,0.306 4.022,1.235 5.881,1.855c3.311,1.104 7.399,2.809 10.572,5.098c3.311,2.389 7.601,6.81 9.294,9.234c1.026,1.47 0.808,3.518 0.861,5.31c0.074,2.486 -1.17,8.149 -0.417,9.609c0.752,1.461 3.392,-0.207 4.933,-0.845c1.58,-0.654 3.068,-2.55 4.543,-3.078c1.352,-0.485 4.22,-0.959 4.307,-0.094c0.087,0.865 -2.512,3.532 -3.785,5.286c-1.383,1.907 -3.113,4.033 -4.517,6.156c-1.553,2.35 -3.716,5.045 -4.803,7.941c-1.549,4.128 -3.62,11.085 -4.49,16.823c-0.944,6.222 -0.944,13.667 -1.175,20.511c-0.304,9.034 -0.713,26.205 -0.652,33.692c0.03,3.759 4.549,9.942 1.018,11.231c-6.353,2.318 -29.43,2.592 -39.133,2.679c-6.401,0.056 -12.696,-1.728 -19.083,-2.162c-7.083,-0.482 -18.831,0.755 -23.417,-0.729c-2.9,-0.938 -4.463,-5.149 -4.098,-8.176c0.587,-4.879 5.427,-13.95 7.622,-21.098c2.924,-9.52 6.623,-26.899 9.921,-36.019c1.079,-2.986 2.502,-5.822 4.049,-8.603Z" style="fill:#ffd78b"/><path d="M107.878,242.05c-0.013,-0.386 0.058,-0.903 0.103,-1.479c0.179,-2.319 0.687,-5.286 0.647,-6.921c-0.033,-1.355 0.05,-2.842 -0.248,-4.165c-0.173,-0.768 -0.464,-1.487 -0.911,-2.135c-0.933,-1.352 -2.623,-3.299 -4.524,-5.204c-1.683,-1.686 -3.534,-3.339 -5.156,-4.523c-1.635,-1.193 -3.501,-2.24 -5.391,-3.139c-1.943,-0.924 -3.911,-1.687 -5.669,-2.286c-1.312,-0.447 -2.719,-1.046 -4.127,-1.478c-0.659,-0.202 -1.32,-0.369 -1.973,-0.48c0.005,0.001 -1.294,-0.412 -1.294,-0.412c-0.803,-0.16 -1.704,-0.115 -2.645,0.088c-1.451,0.313 -3.038,1.041 -4.394,1.635c-1.593,0.698 -3.748,1.657 -5.829,2.807c-1.347,0.745 -2.662,1.573 -3.792,2.458c-1.154,0.904 -2.388,2.021 -3.659,3.249c-2.52,2.437 -5.192,5.331 -7.658,7.834c-3.187,3.232 -7.686,7.424 -11.617,11.572c-1.75,1.848 -3.388,3.688 -4.76,5.435c-2.225,2.835 -4.742,6.654 -6.776,10.091c-1.833,3.098 -3.265,5.906 -3.811,7.47c-0.474,1.359 -0.124,2.483 0.772,3.425c0.425,0.445 1.065,0.853 1.839,1.162c0.856,0.343 1.95,0.571 2.672,0.788c0.956,0.287 2.335,0.619 3.826,0.924l0.168,0.034c-0.185,0.376 -0.367,0.753 -0.545,1.132c-0.709,1.514 -1.358,3.053 -1.915,4.632c-1.049,2.973 -2.135,6.803 -3.22,10.956c-2.266,8.673 -4.538,18.785 -6.477,25.262c-1.601,5.351 -4.681,11.787 -6.349,16.722c-0.614,1.816 -1.046,3.449 -1.198,4.791c-0.248,2.187 0.302,4.873 1.538,6.947c0.979,1.643 2.366,2.904 4.029,3.431c1.287,0.407 3.074,0.644 5.159,0.742c5.564,0.26 13.463,-0.392 18.759,-0.065c4.435,0.277 8.829,1.211 13.243,1.716c1.99,0.228 3.983,0.373 5.985,0.344c6.309,-0.086 18.248,-0.285 27.611,-1.047c5.266,-0.428 9.74,-1.052 12.06,-1.909c1.608,-0.594 2.295,-1.739 2.389,-3.255c0.075,-1.211 -0.349,-2.776 -0.928,-4.411c-0.623,-1.757 -1.447,-3.622 -1.465,-5.095c-0.033,-3.183 0.009,-8.121 0.1,-13.438c0.124,-7.165 0.333,-15.015 0.504,-20.19c0.14,-4.016 0.2,-8.238 0.42,-12.298c0.151,-2.798 0.378,-5.518 0.762,-8.033c0.409,-2.653 1.082,-5.571 1.839,-8.338c0.849,-3.104 1.805,-6.018 2.615,-8.157c0.396,-1.043 0.948,-2.056 1.554,-3.034c1.011,-1.629 2.173,-3.163 3.111,-4.573l4.498,-6.082c0.909,-1.24 2.478,-2.935 3.303,-4.135c0.65,-0.945 0.863,-1.803 0.817,-2.287c-0.087,-0.896 -0.749,-1.76 -2.166,-1.952c-1.168,-0.159 -3.229,0.208 -4.383,0.616c-0.447,0.158 -0.899,0.401 -1.35,0.703c-1.072,0.717 -2.139,1.916 -3.278,2.382c-0.569,0.232 -1.285,0.602 -2.002,0.906c-0.234,0.1 -0.558,0.197 -0.813,0.267Zm9.497,-1.278c-0.764,0.949 -1.689,2.002 -2.293,2.843l-4.535,6.229c-0.947,1.441 -2.119,3.013 -3.138,4.679c-0.709,1.159 -1.345,2.362 -1.804,3.597c-0.825,2.219 -1.796,5.241 -2.657,8.458c-0.772,2.886 -1.457,5.928 -1.87,8.692c-0.393,2.611 -0.624,5.432 -0.774,8.335c-0.21,4.079 -0.262,8.322 -0.393,12.357c-0.178,5.187 -0.387,13.055 -0.533,20.236c-0.11,5.349 -0.186,10.318 -0.168,13.52c0.011,2.446 1.817,5.907 2.262,8.448c0.097,0.555 0.274,1.071 -0.229,1.252c-2.717,0.98 -8.584,1.53 -15.098,1.876c-8.504,0.452 -18.087,0.504 -23.497,0.525c-1.847,0.006 -3.685,-0.149 -5.518,-0.379c-4.474,-0.561 -8.922,-1.554 -13.42,-1.885c-4.618,-0.343 -11.212,0.025 -16.534,-0.086c-2.623,-0.054 -4.91,-0.207 -6.381,-0.693c-0.956,-0.316 -1.597,-1.263 -2.047,-2.296c-0.513,-1.179 -0.729,-2.539 -0.583,-3.679c0.139,-1.095 0.534,-2.418 1.056,-3.893c1.755,-4.957 4.948,-11.413 6.641,-16.79c2.044,-6.488 4.471,-16.628 6.882,-25.318c1.105,-3.983 2.207,-7.655 3.262,-10.502c0.523,-1.41 1.129,-2.783 1.787,-4.133c0.672,-1.375 1.401,-2.724 2.159,-4.06c0.422,-0.759 0.441,-1.677 0.052,-2.453c-0.389,-0.776 -1.136,-1.309 -1.996,-1.425c-1.126,-0.143 -2.351,-0.341 -3.503,-0.558c-1.319,-0.25 -2.54,-0.52 -3.387,-0.76l-1.29,-0.363c0.805,-1.764 2.127,-4.197 3.633,-6.724c1.674,-2.81 3.577,-5.728 5.301,-7.992c1.666,-2.189 3.766,-4.531 5.966,-6.846c3.438,-3.615 7.115,-7.161 9.821,-9.981c2.41,-2.512 5.018,-5.415 7.482,-7.861c1.14,-1.132 2.246,-2.164 3.285,-3c0.952,-0.766 2.065,-1.48 3.203,-2.129c1.944,-1.108 3.961,-2.033 5.451,-2.709c0.972,-0.442 2.078,-0.986 3.143,-1.308c0.522,-0.158 1.021,-0.293 1.46,-0.211l0.865,0.266c0.154,0.065 0.316,0.112 0.481,0.137c0.686,0.102 1.383,0.293 2.077,0.517c1.193,0.384 2.376,0.858 3.49,1.221c1.635,0.534 3.468,1.215 5.277,2.049c1.683,0.776 3.349,1.681 4.808,2.722c1.496,1.067 3.2,2.565 4.756,4.09c1.738,1.704 3.295,3.438 4.152,4.651c0.259,0.367 0.373,0.801 0.441,1.253c0.15,0.997 0.088,2.074 0.123,3.066c0.063,1.806 -0.578,5.312 -0.619,7.613c-0.021,1.213 0.151,2.185 0.442,2.743c0.489,0.94 1.26,1.405 2.232,1.505c1.355,0.139 3.529,-0.98 4.912,-1.559c0.427,-0.179 0.852,-0.422 1.269,-0.709c1.106,-0.761 2.13,-1.978 3.188,-2.363c0.217,-0.078 0.548,-0.152 0.908,-0.215Z"/></g><path d="M36.696,260.493c-0.715,-0 -2.234,2.424 -2.69,2.984c-3.336,4.095 -4.406,9.701 -5.816,14.635c-2.713,9.491 -6.426,18.414 -7.38,28.425c-0.668,7.004 0.428,13.98 0.624,20.939c0.083,2.934 -1.51,14.746 2.878,16.435c1.819,0.701 3.799,0.597 5.692,0.732c13.993,0.997 11.321,-8.953 12.883,-20.208c1.354,-9.757 3.08,-20.046 6.191,-29.38c2.55,-7.652 6.801,-14.101 9.632,-21.503c0.576,-1.506 3.413,-7.149 1.814,-7.149" style="fill:#fff"/><path d="M58.25,267.713c-0.083,0.33 -0.191,0.725 -0.3,1.034c-0.547,1.54 -1.3,3.199 -1.56,3.918c-1.885,5.183 -4.474,9.909 -6.679,14.906c-0.973,2.205 -1.878,4.458 -2.623,6.821c-1.215,3.831 -2.202,7.814 -3.031,11.855c-1.225,5.968 -2.109,12.057 -2.852,17.955c-0.84,6.459 -0.101,12.485 -2.337,16.096c-1.346,2.176 -3.923,3.16 -8.756,2.83c-1.114,-0.083 -2.259,-0.079 -3.381,-0.214c-0.635,-0.076 -1.263,-0.2 -1.868,-0.434c-0.492,-0.192 -0.812,-0.641 -1.078,-1.188c-0.464,-0.953 -0.706,-2.196 -0.843,-3.531c-0.406,-3.944 0.161,-8.635 0.125,-10.331c-0.088,-4.872 -0.623,-9.755 -0.672,-14.647c-0.02,-2.022 0.049,-4.045 0.267,-6.069c0.423,-3.87 1.273,-7.564 2.315,-11.191c1.617,-5.633 3.696,-11.101 5.413,-16.782c0.873,-2.87 1.626,-5.978 2.807,-8.856c0.711,-1.733 1.592,-3.372 2.79,-4.794c0.304,-0.36 2.359,-1.554 1.878,-2.248c0.863,-0.43 1.456,-1.321 1.456,-2.35c0,-1.449 -1.176,-2.625 -2.625,-2.625c-0.636,0.011 -1.614,0.279 -2.495,1.157c-0.804,0.801 -1.813,2.376 -2.177,2.838c-1.471,1.87 -2.552,3.992 -3.387,6.239c-1.137,3.06 -1.833,6.341 -2.647,9.381c-1.549,5.745 -3.46,11.288 -4.919,16.979c-0.99,3.866 -1.78,7.796 -2.114,11.899c-0.18,2.171 -0.197,4.336 -0.126,6.499c0.16,4.9 0.783,9.782 0.971,14.662c0.07,2.015 -0.57,8.129 0.336,12.442c0.558,2.661 1.761,4.668 3.623,5.379c0.848,0.324 1.724,0.504 2.613,0.606c1.17,0.135 2.361,0.129 3.522,0.208c6.48,0.482 9.764,-1.312 11.603,-4.209c2.457,-3.868 2.045,-10.326 3.07,-17.279c0.877,-5.786 1.883,-11.759 3.246,-17.598c0.905,-3.877 1.973,-7.691 3.253,-11.353c0.768,-2.186 1.684,-4.263 2.661,-6.295c2.415,-5.023 5.204,-9.761 7.3,-14.984c0.336,-0.833 1.376,-2.912 1.992,-4.633c0.456,-1.275 0.637,-2.442 0.573,-3.166c-0.089,-0.997 -0.557,-1.679 -1.094,-2.148c-0.494,-0.431 -1.139,-0.698 -1.976,-0.714c-1.449,0 -2.625,1.177 -2.625,2.625c-0,0.477 0.127,0.925 0.351,1.31Zm1.942,1.294c0.105,0.016 0.215,0.024 0.332,0.021c-0.113,0 -0.223,-0.007 -0.332,-0.021Z"/><g id="Manga"><path d="M70.678,214.725c-0.617,0.442 -1.504,0.649 -2.198,1.088c-3.601,2.274 -7.182,4.917 -10.549,7.536c-2.22,1.727 -3.805,4.171 -5.824,6.092c-3.583,3.406 -7.638,6.614 -10.813,10.424c-2.292,2.75 -4.305,5.841 -6.263,8.841c-2.357,3.613 -4.035,7.103 -5.451,11.176c-0.259,0.745 -1.657,2.833 -1.165,3.719c0.978,1.761 4.778,2.369 6.44,2.907c3.402,1.103 6.667,2.68 10.043,3.758c2.654,0.848 5.395,1.368 8,2.374c1.923,0.742 3.602,1.602 5.692,1.602c0.669,-0 1.584,0.163 2.11,-0.356c0.888,-0.877 1.241,-2.499 1.692,-3.62c0.666,-1.653 1.64,-3.169 2.22,-4.885c1.461,-4.327 3.908,-8.122 6.087,-12.046c1.078,-1.941 3.217,-4.674 5.056,-5.914c0.682,-0.461 3.25,-2.121 2.615,-1.741" style="fill:#ffd78b"/><path d="M76.605,243.737c-0.635,0.443 -1.839,1.268 -2.272,1.576c-0.885,0.629 -1.841,1.536 -2.726,2.574c-1.192,1.399 -2.289,3.006 -2.971,4.302c-1.27,2.412 -2.638,4.777 -3.828,7.238c-0.826,1.708 -1.574,3.457 -2.15,5.294l-2.083,4.814c-0.249,0.656 -0.458,1.485 -0.768,2.233c-0.073,0.174 -0.142,0.348 -0.229,0.503c-0.21,-0.123 -0.716,0.123 -0.988,0.128c-0.657,0.011 -1.265,-0.084 -1.855,-0.241c-1.074,-0.287 -2.099,-0.739 -3.208,-1.147c-0.83,-0.305 -1.672,-0.565 -2.52,-0.802c-1.864,-0.521 -3.758,-0.93 -5.613,-1.496l-10.068,-3.658c-0.955,-0.307 -2.635,-0.625 -4.047,-1.197c-0.567,-0.23 -1.109,-0.462 -1.409,-0.826c0.059,-0.19 0.199,-0.617 0.324,-0.884c0.333,-0.714 0.713,-1.391 0.843,-1.76c0.703,-1.97 1.466,-3.799 2.347,-5.57c0.879,-1.766 1.877,-3.47 3.035,-5.205c1.186,-1.763 2.389,-3.558 3.663,-5.291c0.834,-1.135 1.701,-2.24 2.608,-3.294c1.25,-1.449 2.636,-2.801 4.075,-4.109c2.237,-2.033 4.598,-3.955 6.789,-5.956c1.467,-1.34 2.724,-2.941 4.133,-4.371c0.513,-0.522 1.053,-1.012 1.639,-1.449c1.69,-1.254 3.432,-2.511 5.203,-3.727c1.754,-1.204 3.537,-2.361 5.322,-3.432c0.492,-0.295 1.095,-0.438 1.597,-0.68c0.27,-0.131 0.521,-0.283 0.758,-0.444c1.178,-0.844 1.449,-2.485 0.606,-3.663c-0.844,-1.178 -2.485,-1.449 -3.663,-0.606l-2.041,1.05c-1.817,1.208 -3.628,2.506 -5.407,3.85c-1.76,1.33 -3.49,2.7 -5.165,4.065c-0.745,0.604 -1.43,1.273 -2.076,1.984c-1.301,1.432 -2.44,3.031 -3.801,4.379c-2.463,2.436 -5.156,4.783 -7.621,7.296c-1.103,1.124 -2.165,2.276 -3.139,3.487c-0.93,1.152 -1.812,2.358 -2.664,3.591c-1.248,1.809 -2.432,3.673 -3.593,5.507c-1.198,1.879 -2.219,3.723 -3.122,5.625c-0.9,1.897 -1.685,3.848 -2.397,5.95c-0.212,0.618 -1.111,2.104 -1.292,3.187c-0.116,0.697 -0.016,1.31 0.248,1.781c0.447,0.797 1.262,1.472 2.294,1.986c1.618,0.806 3.829,1.247 5.01,1.632l10.019,3.858c1.862,0.621 3.769,1.078 5.639,1.66c0.752,0.234 1.496,0.493 2.229,0.79c1.2,0.486 2.311,1.007 3.479,1.359c0.899,0.272 1.83,0.44 2.841,0.457c0.605,0.01 1.359,0.072 1.999,-0.08c0.542,-0.129 1.022,-0.391 1.433,-0.781c0.419,-0.399 0.766,-0.904 1.063,-1.464c0.47,-0.883 0.778,-1.948 1.124,-2.763c0.477,-1.121 1.105,-2.17 1.64,-3.272c0.266,-0.546 0.509,-1.106 0.717,-1.684c0.584,-1.614 1.323,-3.141 2.125,-4.63c1.274,-2.362 2.721,-4.62 4.072,-6.93c0.495,-0.848 1.237,-1.857 2.053,-2.794c0.759,-0.87 1.593,-1.668 2.36,-2.159c0.507,-0.324 2.038,-1.266 2.571,-1.604c0.139,-0.088 0.234,-0.156 0.277,-0.187c1.919,-1.358 2.423,-7.366 -3.001,-4.31c-0.152,0.091 -0.292,0.195 -0.418,0.31Z"/></g></g><g id="Cara"><path id="Mechon" d="M150.662,27.818c-0.886,-3.938 7.607,-7.433 9.938,-8.571c3.038,-1.482 6.163,-2.571 9.284,-3.855c7.069,-2.907 17.237,-8.26 24.589,-2.732c2.079,1.563 4.413,7.982 3.897,10.466c-0.552,2.659 -2.239,4.699 -3.034,7.204c-0.689,2.172 2.51,1.936 2.092,4.161c-0.812,4.321 -6.777,5.941 -10.148,7.168c-1.104,0.402 -3.517,1.631 -4.804,1.365c-2.911,-0.602 -6.83,-5.125 -9.373,-6.649c-5.605,-3.357 -11.989,-4.528 -17.716,-7.322c-1.432,-0.697 -2.388,-2.219 -3.469,-2.809"/><path d="M152.262,29.898c0.267,0.254 0.548,0.503 0.853,0.718c0.372,0.261 0.757,0.503 1.172,0.692c4.126,1.892 8.553,2.975 12.824,4.581c1.683,0.632 3.34,1.345 4.935,2.251c1.7,0.972 4.034,3.278 6.254,4.831c1.334,0.933 2.645,1.625 3.806,1.843c0.637,0.121 1.453,0.067 2.316,-0.171c1.251,-0.345 2.669,-1.047 3.453,-1.348c2.1,-0.798 5.154,-1.777 7.459,-3.381c1.85,-1.289 3.249,-2.957 3.63,-5.135c0.138,-0.767 0.036,-1.378 -0.189,-1.891c-0.269,-0.615 -0.73,-1.1 -1.272,-1.512c-0.153,-0.117 -0.311,-0.228 -0.462,-0.342c-0.1,-0.075 -0.301,-0.076 -0.249,-0.242c0.541,-1.712 1.519,-3.197 2.237,-4.826c0.353,-0.802 0.653,-1.635 0.842,-2.528c0.305,-1.43 -0.134,-4.012 -1.014,-6.45c-0.883,-2.445 -2.216,-4.71 -3.408,-5.625c-3.298,-2.553 -7.131,-3.135 -11.065,-2.712c-5.347,0.574 -10.899,3.12 -15.288,4.826c-2.213,0.855 -4.425,1.615 -6.611,2.481c-0.969,0.385 -1.931,0.792 -2.888,1.233c-1.714,0.786 -6.427,2.718 -9.091,5.157c-1.957,1.792 -2.826,3.933 -2.405,6.046c0.319,1.414 1.724,2.303 3.138,1.985c0.385,-0.087 0.73,-0.254 1.023,-0.481Zm2.536,-4.631c0.494,0.544 1.002,1.175 1.688,1.532c3.924,2.03 8.183,3.273 12.261,5.029c1.853,0.797 3.672,1.685 5.413,2.783c1.74,1.091 4.105,3.585 6.368,5.302c0.819,0.621 1.592,1.157 2.319,1.321c0.285,0.064 0.667,-0.066 1.07,-0.186c1.042,-0.31 2.128,-0.805 2.767,-1.025c1.913,-0.665 4.71,-1.418 6.825,-2.807c1.152,-0.757 2.117,-1.689 2.383,-3.014c0.027,-0.139 -0.068,-0.203 -0.146,-0.27c-0.195,-0.168 -0.411,-0.319 -0.613,-0.476c-0.583,-0.457 -1.054,-0.978 -1.276,-1.638c-0.177,-0.528 -0.231,-1.158 0.024,-1.949c0.577,-1.815 1.602,-3.396 2.357,-5.127c0.267,-0.611 0.493,-1.246 0.631,-1.928c0.214,-1.061 -0.268,-2.945 -0.949,-4.74c-0.669,-1.765 -1.543,-3.469 -2.422,-4.117c-2.62,-1.913 -5.63,-2.228 -8.678,-1.797c-5,0.706 -10.091,3.386 -14.148,5.148c-2.162,0.944 -4.326,1.792 -6.46,2.746c-0.876,0.392 -1.746,0.805 -2.609,1.249c-1.098,0.569 -3.647,1.731 -5.812,3.22c-0.347,0.238 -0.681,0.487 -0.993,0.744Z"/><path d="M29.007,144.188c1.092,2.365 3.083,5.96 5.309,8.347c2.226,2.387 5.228,4.18 8.045,5.975c2.873,1.831 6.204,3.203 9.189,5.009c3.183,1.926 6.979,4.095 9.909,6.548c2.865,2.398 5.661,5.022 7.673,8.17c2.018,3.158 2.934,7.196 4.437,10.779c1.56,3.719 3.06,7.901 4.923,11.537c1.829,3.57 3.96,8.178 6.256,10.28c1.936,1.773 5.141,1.228 7.522,2.334c3.268,1.516 8.443,5.859 12.087,6.768c3.19,0.795 6.503,-0.993 9.775,-1.315c5.569,-0.547 17.223,-0.386 23.639,-1.969c5.391,-1.331 11.031,-5.13 14.859,-7.532c3.002,-1.884 5.704,-4.275 8.108,-6.88c2.468,-2.676 4.612,-6.016 6.705,-9.172c2.348,-3.545 5.418,-8.09 7.387,-12.093c1.872,-3.804 3.238,-8.61 4.43,-11.923c0.949,-2.638 2.384,-5.853 2.722,-7.957c0.249,-1.553 -0.249,-3.6 -0.696,-4.667c-0.34,-0.811 -2.793,-1.382 -1.987,-1.734c1.005,-0.439 5.377,-0.383 8.016,-0.9c3.331,-0.653 8.128,-1.547 11.973,-3.015c3.98,-1.52 8.829,-3.821 11.909,-6.105c2.688,-1.994 5.296,-4.592 6.567,-7.597c1.271,-3.006 1.369,-6.955 1.059,-10.438c-0.45,-5.06 -2.7,-14.32 -3.758,-19.924c-0.862,-4.565 -0.886,-9.373 -2.591,-13.694c-1.951,-4.944 -5.961,-10.714 -9.113,-15.97c-4.708,-7.848 -14.748,-24.353 -19.134,-31.12c-2.157,-3.329 -3.832,-7.363 -7.181,-9.487c-4.609,-2.923 -14.478,-6.182 -20.476,-8.054c-5.04,-1.572 -10.258,-2.699 -15.516,-3.176c-6.056,-0.549 -14.134,-0.844 -20.819,-0.119c-6.563,0.711 -13.006,2.454 -19.293,4.468c-7.46,2.389 -17.453,5.549 -25.468,9.866c-8.155,4.394 -16.918,10.682 -23.464,16.493c-6.041,5.363 -11.979,13.097 -15.808,18.369c-2.953,4.067 -5.69,9.523 -7.163,13.266c-1.141,2.899 -1.246,6.108 -1.675,9.193c-0.438,3.146 -1.052,6.443 -0.952,9.686c0.125,4.119 1.495,9.991 1.708,15.029c0.225,5.317 -0.506,13.09 -0.358,16.877c0.077,1.991 0.41,4.038 1.245,5.847Z" style="fill:#fff"/><path d="M182.86,155.877c0.971,-0.055 2.048,-0.112 3.036,-0.224c0.618,-0.069 1.207,-0.153 1.733,-0.257c2.074,-0.411 4.71,-0.916 7.337,-1.592c1.683,-0.433 3.362,-0.935 4.896,-1.524c2.378,-0.914 5.059,-2.101 7.505,-3.398c1.779,-0.943 3.434,-1.944 4.771,-2.94c1.697,-1.264 3.361,-2.757 4.716,-4.43c0.965,-1.192 1.776,-2.475 2.345,-3.829c0.574,-1.366 0.935,-2.906 1.13,-4.514c0.265,-2.192 0.225,-4.514 0.032,-6.668c-0.152,-1.689 -0.497,-3.836 -0.935,-6.161c-0.884,-4.694 -2.143,-10.132 -2.86,-13.909c-0.606,-3.194 -0.803,-6.507 -1.449,-9.689c-0.297,-1.459 -0.684,-2.893 -1.232,-4.279c-0.647,-1.642 -1.511,-3.373 -2.497,-5.146c-2.024,-3.64 -4.569,-7.466 -6.717,-11.052c-2.716,-4.544 -7.214,-11.982 -11.366,-18.764c-3.037,-4.961 -5.889,-9.572 -7.737,-12.44c-1.291,-2.003 -2.412,-4.255 -3.816,-6.208c-1.07,-1.489 -2.301,-2.809 -3.833,-3.786c-2.013,-1.284 -4.995,-2.64 -8.239,-3.917c-4.321,-1.701 -9.115,-3.272 -12.608,-4.372c-2.569,-0.811 -5.185,-1.508 -7.828,-2.067c-2.655,-0.561 -5.339,-0.98 -8.033,-1.234c-3.133,-0.296 -6.801,-0.526 -10.543,-0.585c-3.611,-0.058 -7.289,0.044 -10.629,0.394c-3.363,0.352 -6.697,0.97 -9.996,1.753c-3.262,0.774 -6.49,1.712 -9.679,2.719c-4.607,1.455 -10.172,3.197 -15.652,5.319c-3.521,1.364 -7.007,2.885 -10.191,4.583c-4.103,2.188 -8.358,4.846 -12.421,7.682c-4.165,2.908 -8.126,6.005 -11.51,8.979c-2.39,2.101 -4.766,4.559 -7.011,7.097c-3.565,4.029 -6.793,8.26 -9.204,11.546c-1.475,2.011 -2.901,4.35 -4.158,6.67c-1.372,2.534 -2.539,5.044 -3.347,7.069c-0.523,1.311 -0.862,2.678 -1.108,4.072c-0.329,1.864 -0.482,3.778 -0.751,5.646c-0.277,1.92 -0.617,3.895 -0.827,5.88c-0.148,1.402 -0.231,2.809 -0.195,4.208c0.026,0.991 0.118,2.077 0.248,3.227c0.411,3.647 1.241,7.989 1.383,11.833c0.038,1.004 0.037,2.099 0.016,3.238c-0.091,4.895 -0.568,10.562 -0.465,13.636c0.038,1.129 0.153,2.274 0.37,3.395c0.231,1.192 0.585,2.356 1.083,3.45c0.614,1.313 1.49,2.982 2.527,4.637c0.981,1.565 2.105,3.116 3.282,4.366c1.01,1.072 2.157,2.041 3.379,2.94c1.661,1.22 3.46,2.315 5.193,3.408c0.628,0.395 1.276,0.772 1.937,1.135c2.392,1.313 4.969,2.447 7.328,3.859c1.891,1.131 4.001,2.346 6.014,3.658c1.279,0.835 2.519,1.707 3.628,2.625c1.372,1.137 2.731,2.326 3.987,3.607c1.206,1.23 2.32,2.543 3.25,3.981c0.552,0.855 1.011,1.785 1.424,2.753c1.052,2.47 1.825,5.168 2.879,7.646c1.106,2.602 2.183,5.431 3.374,8.141c0.532,1.209 1.086,2.395 1.674,3.53c1.256,2.426 2.656,5.318 4.143,7.617c0.849,1.311 1.734,2.441 2.63,3.254c0.855,0.776 1.867,1.265 2.977,1.576c1.64,0.46 3.565,0.384 5.115,1.095c2.199,1.008 5.273,3.322 8.145,4.955c1.537,0.875 3.031,1.568 4.341,1.888c1.232,0.302 2.477,0.316 3.73,0.153c2.235,-0.291 4.5,-1.228 6.751,-1.459c3.856,-0.396 10.638,-0.465 16.567,-1.007c2.732,-0.25 5.29,-0.601 7.336,-1.115c2.21,-0.555 4.461,-1.492 6.622,-2.591c3.294,-1.676 6.38,-3.723 8.768,-5.234c1.577,-0.998 3.074,-2.127 4.492,-3.352c1.4,-1.21 2.723,-2.513 3.968,-3.872c1.044,-1.14 2.033,-2.393 2.984,-3.702c1.345,-1.854 2.615,-3.821 3.866,-5.724c1.416,-2.152 3.092,-4.671 4.633,-7.214c1.043,-1.722 2.024,-3.454 2.827,-5.098c0.743,-1.521 1.409,-3.195 2.016,-4.876c0.934,-2.592 1.726,-5.198 2.454,-7.24c0.627,-1.762 1.469,-3.78 2.063,-5.557c0.332,-0.995 0.589,-1.923 0.713,-2.71c0.141,-0.9 0.093,-1.934 -0.071,-2.912c-0.166,-0.991 -0.444,-1.921 -0.71,-2.572Zm-3.026,1.411c0.169,0.458 0.332,1.064 0.435,1.704c0.1,0.618 0.147,1.27 0.054,1.836c-0.102,0.63 -0.323,1.369 -0.593,2.164c-0.598,1.754 -1.444,3.743 -2.075,5.481c-0.738,2.034 -1.544,4.631 -2.493,7.212c-0.572,1.558 -1.198,3.111 -1.896,4.519c-0.769,1.55 -1.708,3.182 -2.705,4.803c-1.533,2.494 -3.203,4.961 -4.611,7.07c-1.234,1.848 -2.486,3.759 -3.813,5.558c-0.877,1.189 -1.786,2.327 -2.747,3.361c-1.157,1.245 -2.386,2.438 -3.686,3.545c-1.286,1.095 -2.642,2.103 -4.07,2.992c-2.316,1.441 -5.305,3.401 -8.497,4.995c-1.906,0.951 -3.885,1.771 -5.83,2.243c-1.883,0.456 -4.237,0.746 -6.749,0.953c-5.952,0.492 -12.755,0.501 -16.626,0.864c-2.286,0.214 -4.597,1.134 -6.868,1.409c-0.741,0.09 -1.477,0.097 -2.202,-0.087c-0.989,-0.252 -2.098,-0.819 -3.254,-1.49c-2.97,-1.724 -6.158,-4.134 -8.434,-5.203c-1.739,-0.817 -3.888,-0.843 -5.731,-1.377c-0.45,-0.13 -0.876,-0.3 -1.22,-0.618c-0.858,-0.793 -1.665,-2.011 -2.458,-3.369c-1.173,-2.013 -2.272,-4.331 -3.281,-6.321c-0.713,-1.408 -1.369,-2.901 -1.996,-4.416c-0.974,-2.351 -1.877,-4.753 -2.803,-6.988c-1.03,-2.491 -1.776,-5.198 -2.805,-7.681c-0.507,-1.223 -1.08,-2.395 -1.765,-3.478c-0.872,-1.379 -1.881,-2.668 -2.979,-3.886c-1.576,-1.75 -3.339,-3.35 -5.13,-4.864c-1.234,-1.044 -2.614,-2.041 -4.042,-2.993c-2.052,-1.368 -4.205,-2.64 -6.135,-3.821c-2.396,-1.467 -5.016,-2.659 -7.446,-4.025c-0.568,-0.32 -1.126,-0.65 -1.665,-0.998c-1.621,-1.045 -3.308,-2.087 -4.859,-3.252c-0.961,-0.722 -1.868,-1.493 -2.66,-2.351c-0.95,-1.028 -1.842,-2.309 -2.629,-3.593c-0.897,-1.464 -1.652,-2.939 -2.18,-4.099c-0.336,-0.718 -0.572,-1.485 -0.733,-2.27c-0.174,-0.85 -0.267,-1.719 -0.305,-2.577c-0.134,-3.01 0.285,-8.568 0.323,-13.366c0.01,-1.237 -0.004,-2.426 -0.056,-3.516c-0.049,-1.034 -0.143,-2.1 -0.266,-3.18c-0.476,-4.172 -1.403,-8.552 -1.519,-11.818c-0.042,-1.187 0.021,-2.384 0.135,-3.576c0.185,-1.927 0.498,-3.844 0.748,-5.708c0.245,-1.822 0.373,-3.688 0.675,-5.507c0.18,-1.079 0.421,-2.142 0.816,-3.159c0.734,-1.893 1.8,-4.239 3.054,-6.61c1.137,-2.148 2.426,-4.318 3.766,-6.183c2.314,-3.219 5.412,-7.365 8.84,-11.318c2.1,-2.42 4.322,-4.77 6.563,-6.778c3.246,-2.91 7.049,-5.945 11.054,-8.795c3.902,-2.777 7.994,-5.38 11.942,-7.529c3.033,-1.651 6.359,-3.131 9.718,-4.465c5.381,-2.136 10.848,-3.896 15.374,-5.367c3.094,-1.005 6.227,-1.944 9.394,-2.722c3.14,-0.77 6.314,-1.383 9.518,-1.742c3.201,-0.358 6.729,-0.478 10.192,-0.448c3.646,0.032 7.22,0.231 10.274,0.497c2.564,0.223 5.12,0.604 7.65,1.12c2.538,0.517 5.051,1.169 7.52,1.93c3.437,1.062 8.156,2.579 12.41,4.228c3.027,1.173 5.816,2.405 7.697,3.591c1.187,0.749 2.125,1.782 2.958,2.928c1.382,1.901 2.483,4.1 3.754,6.051c1.854,2.845 4.719,7.415 7.76,12.339c4.173,6.754 8.679,14.171 11.405,18.699c2.136,3.557 4.668,7.349 6.682,10.96c0.918,1.647 1.727,3.254 2.331,4.78c0.48,1.221 0.815,2.484 1.074,3.769c0.638,3.17 0.828,6.471 1.426,9.653c0.71,3.777 1.96,9.216 2.836,13.909c0.414,2.215 0.743,4.259 0.885,5.868c0.143,1.624 0.196,3.355 0.066,5.034c-0.129,1.662 -0.433,3.273 -1.023,4.66c-0.579,1.36 -1.471,2.621 -2.515,3.771c-1.072,1.18 -2.306,2.24 -3.557,3.164c-1.514,1.117 -3.474,2.234 -5.536,3.256c-2.004,0.993 -4.106,1.895 -6.006,2.615c-1.424,0.541 -2.985,0.998 -4.548,1.393c-2.566,0.648 -5.14,1.129 -7.165,1.521c-2.168,0.419 -5.516,0.439 -7.164,0.681c-0.527,0.078 -0.937,0.191 -1.201,0.305c-0.692,0.3 -0.94,0.761 -1.06,1.106c-0.147,0.424 -0.14,0.867 0.071,1.324c0.131,0.283 0.487,0.722 1.108,1.072l1.079,0.611Z"/><path d="M25.506,131.582c-0.845,0.991 -0.841,2.481 0.059,3.468c0.558,0.49 1.112,0.916 1.855,0.859c0.257,-0.02 0.547,0.016 0.838,-0.107c0.244,-0.102 0.936,-0.239 1.4,-0.993c0.143,-0.233 0.564,-1.052 0.564,-1.052c-0,0 -0.095,0.093 -0.12,0.127l1.616,-2.296c0.784,-0.849 1.8,-1.96 3.017,-2.753c1.003,-0.654 2.087,-1.18 3.147,-1.019c1.47,0.339 2.756,0.95 3.855,1.817c1.142,0.902 2.018,2.097 2.856,3.368c0.426,0.678 1.147,2.188 1.729,3.148c0.36,0.595 0.779,0.984 1.049,1.232c0.925,0.85 1.925,0.594 2.586,0.448c0.746,-0.165 1.479,-0.806 1.861,-2.327c0.176,-1.373 -0.745,-2.636 -2.081,-2.905c-0.671,-0.758 -1.422,-1.714 -1.868,-2.171c-1.29,-1.386 -2.675,-2.566 -4.21,-3.524c-1.554,-0.97 -3.222,-1.759 -5.166,-2.099c-1.441,-0.362 -2.987,-0.044 -4.516,0.534c-1.95,0.738 -3.828,2.021 -5.168,3.042l-2.412,2.203c-0.148,0.133 -1.091,0.706 -0.891,1Zm21.298,2.547c-0.111,0.189 -0.191,0.417 -0.194,0.707c0.032,-0.25 0.098,-0.487 0.194,-0.707Zm3.613,-0.817l0.005,0.006c0.022,0.02 0.074,0.031 0.074,0.031l-0.079,-0.037Zm-21.547,-2.271c0.209,0.126 0.403,0.285 0.576,0.474c-0.156,-0.216 -0.357,-0.36 -0.576,-0.474Zm-0.644,-0.282c-0.223,-0.089 -0.491,-0.127 -0.8,-0.099c0.27,-0.008 0.54,0.025 0.8,0.099Z"/><path d="M40.199,144.8c0.139,-0.362 0.214,-0.681 0.412,-0.904c0.083,-0.094 0.096,-0.247 0.212,-0.281c0.28,-0.083 0.618,-0.034 1.051,0.084c0.327,0.154 0.56,0.454 0.787,0.752c0.016,0.022 0.031,0.044 0.044,0.067c-0.03,0.044 -0.058,0.09 -0.086,0.138c-0.012,0.045 -0.034,0.096 -0.01,0.103c0.081,0.024 0.139,0.004 0.182,-0.038c0.065,0.22 0.059,0.466 0.099,0.696c-0.02,-0.141 -0.073,-0.327 -0.221,-0.373c-0.157,-0.05 -0.25,0.203 -0.296,0.278c-0.089,0.147 -0.086,0.273 -0.116,0.334c-0.105,0.213 -0.023,0.4 -0.054,0.52c-0.085,0.321 0.108,0.557 0.117,0.763c0.008,0.179 0.151,0.292 0.185,0.439c0.123,0.531 0.642,0.679 0.945,0.992c0.397,0.409 0.996,0.254 1.664,0.339c0.238,0.03 0.453,-0.172 0.767,-0.232c0.209,-0.04 0.369,-0.311 0.724,-0.521c0.071,-0.042 0.172,-0.286 0.556,-0.667c0.117,-0.201 0.204,-0.412 0.262,-0.626c0.317,-0.444 0.022,-2.102 -0.513,-2.849c-0.503,-0.756 -1.041,-1.469 -1.82,-1.977c-0.731,-0.475 -1.469,-0.932 -2.299,-1.073c-1.441,-0.536 -2.472,-0.387 -3.402,-0.103c-0.918,0.281 -1.676,0.921 -2.691,1.9c-0.14,0.126 -0.394,0.29 -0.642,0.497c-0.297,0.248 -0.461,0.577 -0.676,0.849c-0.321,0.406 -0.278,0.893 -0.387,1.307c-0.048,0.185 0.037,0.36 0.023,0.545c-0.058,0.756 0.544,1.254 1.157,1.981c1.177,0.844 2.818,0.573 3.662,-0.605c0.504,-0.702 0.611,-1.57 0.364,-2.335Zm-0.773,-1.173c-0.049,-0.065 -0.11,-0.121 -0.195,-0.154c0.068,0.048 0.133,0.1 0.195,0.154Z"/><g id="ReadingEyes"><path d="M122.336,118.594c0,-1.054 1.586,-1.695 2.705,-2.157c3.159,-1.303 6.42,-2.286 9.585,-3.646c2.105,-0.904 3.832,-0.449 5.935,-0.947c0.422,-0.099 0.544,-0.511 0.544,-0.27"/><path d="M139.425,109.599c-1.167,0.371 -2.236,0.471 -3.368,0.803c-0.685,0.2 -1.389,0.404 -2.109,0.813c-0.714,0.371 -1.415,0.75 -2.152,1.062c-0.497,0.211 -1.005,0.395 -1.517,0.563c-0.982,0.32 -1.97,0.592 -2.966,0.857c-1.03,0.273 -2.046,0.508 -3.074,0.797c-1.043,0.268 -2.267,0.768 -3.115,1.362c-0.959,0.673 -1.255,1.689 -1.413,2.738c0,1.449 1.176,2.625 2.625,2.625c1.151,-0 2.13,-0.743 2.483,-1.775c0.325,-0.189 0.675,-0.858 1.024,-1.063c1.498,-0.804 2.973,-1.59 4.533,-2.262c0.793,-0.341 1.597,-0.655 2.414,-0.941c0.831,-0.291 1.676,-0.52 2.513,-0.81c0.482,-0.147 0.931,-0.167 1.365,-0.182c1.506,-0.053 2.83,0.253 4.47,0.101c0.247,-0.019 0.487,-0.093 0.705,-0.194c1.09,-0.318 1.887,-1.326 1.887,-2.519c-0.175,-1.047 -0.414,-1.567 -0.647,-1.765c-0.779,-0.66 -1.484,-1.202 -2.431,-0.884c-0.174,0.058 -0.839,0.444 -1.227,0.674Zm-14.466,9.061c0.005,-0.022 0.005,-0.044 0.002,-0.066l-0.002,0.066Zm13.66,-6.246l0.021,0.063l0.026,0.066c-0.018,-0.041 -0.034,-0.083 -0.047,-0.129Zm-0.111,-0.459c-0.018,-0.124 -0.028,-0.251 -0.028,-0.381c-0.025,0.152 -0.002,0.277 0.028,0.381Z"/><path d="M123.014,123.187c0,-0.674 2.717,-2.088 3.24,-2.294c3.88,-1.528 7.967,-3.102 12.012,-4.056c1.206,-0.285 2.439,-0.503 3.651,-0.806c0.53,-0.132 1.616,-0.27 1.616,-0.27c-0,0 -1.435,0.571 -1.892,0.134"/><path d="M139.345,114.621l-1.484,0.498c-1.243,0.378 -2.463,0.854 -3.719,1.279c-0.815,0.275 -1.641,0.529 -2.471,0.772c-2.082,0.607 -4.162,1.144 -6.195,1.746c-0.505,0.131 -2.537,0.989 -3.64,1.718c-1.153,0.763 -1.363,1.903 -1.447,2.553c0,1.449 1.176,2.625 2.625,2.625c0.959,-0 1.798,-0.515 2.256,-1.283c0.566,0.083 1.494,-1.513 1.762,-1.659c1.118,-0.576 2.221,-1.18 3.384,-1.723c1.132,-0.529 2.281,-1.029 3.458,-1.451c0.625,-0.224 1.259,-0.419 1.897,-0.583c0.964,-0.248 1.935,-0.401 2.9,-0.558l1.976,-0.224c0.292,0.152 0.615,0.258 0.986,0.26c0.438,0.003 0.941,0.025 1.42,-0.126c0.702,-0.22 1.354,-0.507 1.354,-0.507c1.106,-0.44 1.713,-1.634 1.415,-2.787c-0.297,-1.153 -1.405,-1.905 -2.586,-1.755l-0.438,0.123c-1,-0.492 -2.244,-0.305 -3.055,0.543c-0.159,0.166 -0.291,0.347 -0.398,0.539Zm-13.707,8.622c0.003,-0.019 0.004,-0.038 0.001,-0.056l-0.001,0.056Zm17.759,-9.298l0.057,0.052c-0.016,-0.02 -0.035,-0.037 -0.057,-0.052Z"/><path d="M130.574,114.543c-0.875,-0.441 -2.349,1.374 -1.892,2.294c0.937,1.889 4.678,0.746 6.076,0.276c0.981,-0.329 2.573,0.034 3.24,-0.676c0.512,-0.544 0.964,-1.204 1.483,-1.751c0.795,-0.839 -1.628,-1.759 -2.428,-1.759c-1.012,0 -2.296,0.491 -3.239,0.94c-0.656,0.312 -2.16,0.278 -2.16,0.278c-0,-0 0.515,0.028 0.678,-0.135"/><path d="M133.424,111.622c-0.884,-0.404 -1.946,-0.291 -2.729,0.336l-0.005,0.004l0,-0c-0.077,0.061 -0.151,0.127 -0.222,0.199c0.06,-0.079 0.135,-0.143 0.222,-0.199c-1.071,-0.101 -2.241,0.204 -3.079,1.246c-1.115,1.386 -1.677,3.43 -0.909,4.611c0.745,1.167 1.817,1.921 3.279,1.998c1.812,0.096 4.19,-0.693 5.293,-1.168c0.738,-0.277 1.845,-0.165 2.605,-0.421c0.487,-0.164 0.904,-0.402 1.227,-0.749l1.548,-1.681c0.895,-0.831 0.777,-1.748 0.288,-2.648c-0.563,-1.035 -2.92,-2.038 -3.889,-2.12c-0.577,-0.059 -1.216,0.037 -1.88,0.145c-0.599,0.098 -1.197,0.269 -1.749,0.447Zm-3.677,5.413c-0.12,-0.04 -0.238,-0.089 -0.355,-0.148c0.112,0.075 0.231,0.122 0.355,0.148Zm7.539,-2.148c-0.093,-0.041 -0.175,-0.067 -0.233,-0.062c-0.334,0.034 -0.676,0.223 -1.036,0.383c-0.128,0.056 -0.252,0.119 -0.373,0.186c0.078,-0.003 0.156,-0.005 0.234,-0.006c0.388,-0.005 0.914,-0.327 1.09,-0.092l0.318,-0.409Zm0.946,-1.216l0.076,-0.098c-0.027,0.033 -0.053,0.065 -0.076,0.098Zm-6.402,-2.088c-0.135,-0.074 -0.315,-0.062 -0.547,0.064c-0.209,0.112 -0.419,0.198 -0.588,0.311l-0.005,0.004c0.373,0.034 0.734,0.118 1.065,0.237c0.156,0.079 0.301,0.171 0.433,0.275c-0.032,-0.4 -0.123,-0.71 -0.299,-0.851c-0.058,-0.006 -0.117,-0.01 -0.177,-0.011c0,-0 0.045,-0.013 0.118,-0.029Z"/><path d="M174.361,105.563c-1.391,-0 3.899,-3.415 4.721,-3.915c2.044,-1.241 5.277,-0.867 7.426,-1.623c0.918,-0.323 2.16,0.071 2.16,-0.264"/><path d="M176.94,106.046c0.228,-0.385 0.487,-0.839 0.806,-1.141c0.92,-0.871 1.873,-1.641 2.173,-1.878c0.466,-0.308 1.009,-0.556 1.611,-0.648c1.927,-0.296 4.045,0.082 5.708,-0.276c0.054,-0.009 0.056,0.113 0.11,0.119c0.171,0.02 0.318,0.098 0.464,0.131c0.491,0.113 0.899,0.07 1.175,0.073c0.44,0.005 0.733,-0.263 1.022,-0.375c0.236,-0.091 0.359,-0.311 0.544,-0.443c0.559,-0.401 0.583,-1.092 0.74,-1.847c-0,-1.448 -1.177,-2.625 -2.625,-2.625c-0.178,0 -0.352,0.018 -0.52,0.052c-0.411,-0.249 -1.674,0.359 -2.371,0.76c-0.515,0.28 -1.081,0.552 -1.735,0.72c-1.077,0.275 -2.206,0.499 -3.276,0.757c-0.905,0.218 -1.77,0.431 -2.521,0.845c-0.788,0.33 -4.762,2.326 -5.844,3.23c-1.111,0.929 -0.797,2.097 -0.743,2.677c0.023,0.254 0.204,0.443 0.295,0.677c0.238,0.617 0.977,1.063 2.408,1.334c1.283,-0 2.353,-0.923 2.579,-2.142Zm-2.381,-3.1c-0.062,-0.014 -0.127,-0.022 -0.198,-0.008c0.066,-0 0.132,0.002 0.198,0.008Zm11.532,-3.683c-0.053,0.156 -0.086,0.319 -0.048,0.498c-0,-0.17 0.016,-0.337 0.048,-0.498Zm0.418,-0.993c-0.094,0.11 -0.167,0.23 -0.213,0.366c0.061,-0.128 0.132,-0.251 0.213,-0.366Z"/><path d="M176.387,109.885c-0.862,-0 3.511,-2.032 4.319,-2.3c2.399,-0.797 5.03,-1.886 7.559,-1.886c0.493,-0 4.611,-0.929 4.177,-1.346c-0.195,-0.187 -1.146,-0.045 -1.482,-0.278"/><path d="M188.34,103.937c-0.032,0.015 -0.057,0.025 -0.075,0.027c-0.601,0.056 -1.193,0.162 -1.797,0.288c-0.875,0.183 -1.752,0.431 -2.64,0.665c-1.252,0.33 -2.51,0.615 -3.708,0.903c-0.731,0.128 -3.884,1.147 -4.972,1.646c-0.859,0.394 -1.102,1.084 -1.26,1.334c-0.392,0.619 -0.178,1.237 -0.117,1.763c0.081,0.696 0.7,1.63 2.616,1.947c0.686,-0 1.311,-0.264 1.779,-0.697c0.81,0.084 2.657,-2.227 3.126,-2.463c1.367,-0.568 2.761,-1.354 4.258,-1.74c0.901,-0.232 1.825,-0.238 2.715,-0.176c0.485,0.067 3.836,-0.332 4.993,-0.73c0.669,-0.23 0.958,-0.719 1.181,-0.972c0.3,-0.343 0.299,-0.765 0.383,-1.119c0.161,-0.67 -0.205,-1.266 -0.739,-1.968c-0.196,-0.258 -0.555,-0.383 -0.942,-0.594c-0.274,-0.149 -1.127,-0.776 -1.384,-0.478c-1.07,-0.341 -2.282,0.036 -2.954,1.007c-0.288,0.416 -0.44,0.886 -0.463,1.357Zm-11.634,3.343c-0.094,-0.025 -0.2,-0.04 -0.319,-0.02c0.108,-0 0.214,0.006 0.319,0.02Zm15.708,-5.39l0.041,0.027c-0.011,-0.011 -0.024,-0.02 -0.041,-0.027Z"/><path d="M185.695,100.701c-1.192,0 -2.119,0.027 -3.105,0.677c-3.057,2.015 0.779,5.547 3.515,4.862c1.211,-0.303 4.502,-1.17 5.123,-2.428c1.152,-2.33 -3.629,-3.922 -5.123,-3.922"/><path d="M184.005,98.316c-0.28,0.057 -0.549,0.13 -0.814,0.231c-0.618,0.237 -1.242,0.476 -1.828,0.97c-1.286,1.068 -1.887,2.149 -1.885,3.256c0.002,0.835 0.167,1.674 0.677,2.42c1.244,1.819 4.072,3.262 6.324,2.539c0.897,-0.2 2.805,-0.71 4.212,-1.36c1.019,-0.471 1.752,-1.128 2.136,-1.77c0.923,-1.485 0.418,-2.889 -0.608,-4.194c-1.409,-1.792 -4.743,-2.976 -6.114,-3.143c-0.859,0 -1.621,0.413 -2.1,1.051Zm3.533,4.253c-0.474,0.468 -1.125,0.757 -1.843,0.757c-0.503,-0.063 -0.922,-0.209 -1.353,-0.156c-0.168,0.021 -0.35,-0.019 -0.526,0.069c-0.059,0.03 -0.146,0.055 -0.207,0.069c0.093,0.214 0.099,0.603 0.31,0.777c0.516,0.425 1.185,0.784 1.812,0.663c0.559,-0.147 1.609,-0.398 2.567,-0.819c0.336,-0.147 0.62,-0.512 0.869,-0.758c-0.1,-0.074 -0.205,-0.164 -0.314,-0.216c-0.405,-0.196 -0.871,-0.317 -1.315,-0.386Z"/><path d="M136.886,129.555c-0.025,-0.029 -0.051,-0.058 -0.079,-0.085c-0.589,-0.582 -1.539,-0.577 -2.121,0.012c-0.097,0.122 -0.745,0.773 -0.943,1.105c-0.24,0.402 -0.344,0.732 -0.322,0.942c0.058,0.551 0.55,1.782 1.965,1.302c0.919,-0.312 3.201,-1.632 3.325,-1.745c0.535,-0.452 1.13,-0.984 1.79,-1.521c0.397,-0.322 0.816,-0.646 1.245,-0.97c1.075,-0.809 2.179,-1.644 3.153,-2.509c1.04,-0.922 1.899,-1.873 2.482,-2.823c0.358,-0.747 0.042,-1.644 -0.704,-2.001c-0.747,-0.358 -1.644,-0.042 -2.001,0.704c-0.492,1.338 -1.56,2.813 -2.865,4.134c-0.647,0.655 -1.333,1.279 -2.029,1.821c-0.794,0.618 -1.604,1.112 -2.276,1.571c-0.031,0.019 -0.282,0.034 -0.62,0.063Z"/><path d="M136.315,97.478c0.402,-0.507 -0.781,-1.606 -1.526,-2.259c-0.741,-0.654 -2.141,-2.066 -3.412,-3.056c-0.733,-0.571 -1.431,-1.017 -1.989,-1.178c-1.323,-0.394 -2.558,-0.442 -3.709,-0.243c-1.229,0.212 -2.36,0.709 -3.393,1.415c-1.145,0.783 -2.163,1.822 -3.041,2.993c-1.303,1.739 -2.282,3.764 -2.837,5.641c-0.209,0.685 -0.279,1.394 -0.297,2.105c-0.039,1.467 0.263,2.939 0.2,4.134c-0,0.827 0.672,1.5 1.5,1.5c0.827,-0 1.5,-0.673 1.5,-1.5c-0.065,-1.225 -0.532,-2.694 -0.643,-4.196c-0.036,-0.487 -0.044,-0.976 0.054,-1.458c0.294,-1.407 0.815,-2.94 1.604,-4.333c0.769,-1.355 1.757,-2.597 2.959,-3.448c0.801,-0.566 1.698,-0.956 2.667,-1.089c0.883,-0.12 1.823,0.002 2.813,0.363c0.479,0.18 1.058,0.733 1.664,1.34c1.01,1.011 2.002,2.234 2.575,2.847c0.16,0.173 0.21,0.389 0.278,0.586c0.089,0.259 0.157,0.517 0.239,0.757c0.165,0.488 0.413,0.898 0.738,1.245c0.436,0.466 1.075,0.778 2.115,0.838c0.828,-0 1.5,-0.672 1.5,-1.5c0,-0.828 -0.672,-1.5 -1.5,-1.5c-0.018,0.001 -0.039,-0.001 -0.059,-0.004Z"/><path d="M183.739,93.75c-0.494,-0.674 -1.569,-2.282 -1.822,-3.035c-0.563,-1.716 -1.287,-3.887 -2.305,-5.726c-0.778,-1.405 -1.712,-2.628 -2.882,-3.357c-0.438,-0.279 -1.032,-0.848 -1.637,-1.091c-0.454,-0.183 -0.916,-0.234 -1.367,-0.083c-1.263,0.402 -2.284,1.011 -3.129,1.751c-1.349,1.181 -2.221,2.737 -2.805,4.512c-1.236,3.754 -1.078,8.538 -1.239,12.379c0,0.828 0.672,1.5 1.5,1.5c0.828,-0 1.5,-0.672 1.5,-1.5c-0.152,-3.649 -0.797,-8.184 0.143,-11.819c0.316,-1.223 0.809,-2.341 1.589,-3.246c0.728,-0.846 1.706,-1.499 2.975,-1.914c0.159,-0.049 0.285,0.117 0.434,0.223c0.381,0.271 0.729,0.624 1.013,0.823c0.874,0.621 1.522,1.632 2.048,2.765c0.821,1.772 1.293,3.852 1.683,5.485c0.223,0.959 1.323,3.096 1.844,3.974c0.182,0.308 0.349,0.5 0.421,0.578c0.427,0.462 0.897,0.436 1.099,0.443c0.44,0.016 0.774,-0.193 1.067,-0.473c0.197,-0.187 0.383,-0.512 0.411,-1.036c-0,-0.463 -0.211,-0.878 -0.541,-1.153Zm-2.244,0.378c-0.125,0.187 -0.234,0.434 -0.215,0.775c-0,-0.283 0.078,-0.549 0.215,-0.775Zm0.549,-0.532c-0.099,0.052 -0.19,0.117 -0.272,0.196c0.083,-0.075 0.174,-0.141 0.272,-0.196Z"/><path d="M178.991,117.145c0.719,-0.077 1.437,-0.12 2.174,-0.108c0.916,0.015 1.832,0.062 2.756,0.136c0.954,0.076 1.904,0.157 2.85,0.212c0.522,0.03 1.042,0.059 1.561,0.074c0.807,0.022 1.607,0.01 2.415,-0.102c1.048,-0.113 2.197,-0.467 3.045,-1.076c0.784,-0.563 1.216,-1.403 1.341,-2.518c0,-0.828 -0.672,-1.5 -1.5,-1.5c-0.828,-0 -1.5,0.672 -1.5,1.5c0.012,0.099 0.079,0.182 0.052,0.263c-0.062,0.186 -0.138,0.367 -0.295,0.494c-0.449,0.362 -1.028,0.619 -1.569,0.786c-1.051,0.275 -2.121,0.421 -3.202,0.358c-1.049,-0.062 -2.093,-0.287 -3.131,-0.52c-1.686,-0.379 -3.327,-0.833 -4.997,-0.999c-0.828,0 -1.5,0.672 -1.5,1.5c0,0.828 0.672,1.5 1.5,1.5Z"/></g><g id="ReadingMouth"><path d="M143.51,166.096c-0.011,0.362 -0.155,1.148 -0.346,1.33c-1.107,1.055 0.536,3.698 0.936,4.916c0.426,1.294 2.144,4.296 3.042,5.155c0.317,0.303 1.479,0.269 1.178,0.587c-0.61,0.643 -2.194,0.164 -3.051,0.585c-2.149,1.059 -5.257,0.975 -8.133,1.117c-0.981,-0.945 -1.247,-1.104 -2.75,-1.825c-0.716,-0.344 -0.793,-1.391 -1.525,-1.637c-1.003,-0.337 -2.149,-0.357 -3.158,-0.699l-0.461,-0.084c5.322,-5.233 12.066,-10.77 18.489,-13.035l-4.221,3.59Z" style="fill:#420a12"/><path d="M143.51,166.096c-0.011,0.362 -0.155,1.148 -0.346,1.33c-1.107,1.055 0.536,3.698 0.936,4.916c0.426,1.294 2.144,4.296 3.042,5.155c0.317,0.303 1.479,0.269 1.178,0.587c-0.61,0.643 -2.194,0.164 -3.051,0.585c-2.149,1.059 -5.257,0.975 -8.133,1.117c-0.981,-0.945 -1.247,-1.104 -2.75,-1.825c-0.716,-0.344 -0.793,-1.391 -1.525,-1.637c-1.003,-0.337 -2.149,-0.357 -3.158,-0.699l-0.461,-0.084c5.322,-5.233 12.066,-10.77 18.489,-13.035l-4.221,3.59Zm-3.498,3.075c0.092,0.579 0.264,1.192 0.522,1.792c0.361,0.839 0.859,1.659 1.071,2.2c0.285,0.74 0.924,1.969 1.673,3.122c0.165,0.253 0.333,0.504 0.502,0.746c-0.584,0.236 -1.238,0.395 -1.932,0.503c-1.296,0.203 -2.7,0.271 -4.074,0.365c-0.337,-0.285 -0.623,-0.493 -0.959,-0.695c-0.382,-0.228 -0.83,-0.451 -1.53,-0.773c-0.132,-0.21 -0.537,-0.84 -0.81,-1.106c-0.297,-0.289 -0.64,-0.519 -1.058,-0.655l-0.465,-0.103c1.938,-1.68 4.004,-3.329 6.149,-4.792c0.302,-0.206 0.606,-0.407 0.911,-0.604Z"/><path d="M129.242,175.541l0.461,0.084c1.009,0.342 2.155,0.362 3.158,0.699c0.732,0.246 0.809,1.293 1.525,1.637c1.503,0.721 1.769,0.88 2.75,1.825c-1.269,0.049 -2.493,0.15 -3.57,0.409c-2.373,0.571 -5.397,1.099 -7.493,2.106c-0.253,0.121 -1.51,1.037 -1.989,0.58c-0.134,-0.127 0.623,-1.539 0.821,-1.637c1.408,-0.693 2.386,-3.801 3.629,-5.038l0.708,-0.665Z" style="fill:#782e31"/><path d="M129.242,175.541l0.461,0.084c1.009,0.342 2.155,0.362 3.158,0.699c0.732,0.246 0.809,1.293 1.525,1.637c1.503,0.721 1.769,0.88 2.75,1.825c-1.269,0.049 -2.493,0.15 -3.57,0.409c-2.373,0.571 -5.397,1.099 -7.493,2.106c-0.253,0.121 -1.51,1.037 -1.989,0.58c-0.134,-0.127 0.623,-1.539 0.821,-1.637c1.408,-0.693 2.386,-3.801 3.629,-5.038l0.708,-0.665Zm0.903,3.114c-0.186,0.2 -0.37,0.429 -0.554,0.672l0.852,-0.211c0.309,-0.079 0.618,-0.159 0.927,-0.238l0.412,-0.109l-0.03,-0.035c-0.524,-0.071 -1.068,-0.038 -1.607,-0.079Zm-1.283,-0.211l0.008,-0.002l-0.112,-0.025l0.104,0.027Z"/></g><path d="M54.086,83.525c1.47,0.621 3.02,3.131 3.947,4.31c2.823,3.594 5.202,7.468 7.506,11.416c0.9,1.541 3.417,3.233 3.234,5.195c-0.21,2.271 -2.91,2.61 -4.673,2.249c-0.154,-0.031 -2.335,-0.59 -2.362,-0.382c-0.269,2.107 1.741,5.712 2.216,7.82c0.244,1.086 0.956,2.414 0.002,3.275c-5.187,4.681 -13.547,2.437 -19.717,4.786c-2.167,0.825 -4.621,1.098 -6.728,1.988c-4.757,2.009 -8.849,7.192 -14.366,3.675c-0.995,-0.634 -2.164,-1.205 -3.093,-1.918c-0.651,-0.501 -0.937,-1.384 -1.372,-2.054c-4.036,-6.208 -0.045,-10.552 0.359,-16.906c0.157,-2.465 -1.107,-6.166 0.404,-8.314c0.318,-0.452 -1.815,-1.45 -2.052,-1.649c-1.24,-1.044 -1.861,-2.552 -1.958,-4.19c-0.189,-3.182 0.996,-3.823 2.797,-5.922c0.458,-0.535 1.051,-2.148 1.647,-2.482c2.545,-1.43 6.59,-1.501 9.391,-1.516c4.818,-0.025 9.654,-0.377 14.345,-1.434c2.678,-0.603 6.04,-1.418 8.806,-0.849c1.156,0.238 3.679,1.275 1.792,2.212"/><path d="M17.325,99.061c-0.193,0.592 -0.3,1.228 -0.335,1.895c-0.101,1.957 0.482,4.225 0.393,5.918c-0.255,4.645 -2.357,8.256 -2.011,12.246c0.153,1.763 0.715,3.6 2.027,5.597c0.315,0.481 0.557,1.067 0.901,1.554c0.235,0.332 0.505,0.629 0.826,0.874l3.202,1.993c2.659,1.706 5.05,1.724 7.33,0.996c2.881,-0.919 5.562,-3.278 8.471,-4.488c0.381,-0.158 0.774,-0.291 1.175,-0.412c1.809,-0.545 3.755,-0.849 5.52,-1.506c4.239,-1.561 9.497,-0.898 14.043,-1.886c2.339,-0.508 4.502,-1.414 6.349,-3.037c0.68,-0.598 0.986,-1.31 1.09,-2.071c0.128,-0.947 -0.271,-2.068 -0.473,-3.024c-0.27,-1.291 -1.086,-3.138 -1.635,-4.873c1.415,0.205 3.114,0.043 4.38,-0.633c1.274,-0.681 2.181,-1.828 2.369,-3.556c0.117,-1.077 -0.194,-2.125 -0.778,-3.125c-0.72,-1.235 -2.066,-2.367 -2.66,-3.422c-1.365,-2.434 -2.76,-4.839 -4.262,-7.177c-1.018,-1.586 -2.089,-3.137 -3.233,-4.646c-0.646,-0.854 -1.594,-2.337 -2.608,-3.437c0.157,-0.617 0.123,-1.224 -0.111,-1.815c-0.206,-0.522 -0.575,-1.089 -1.182,-1.553c-0.825,-0.63 -2.269,-1.176 -3.18,-1.346c-1.354,-0.252 -2.819,-0.259 -4.298,-0.092c-1.917,0.216 -3.861,0.697 -5.547,1.108c-2.242,0.545 -4.52,0.925 -6.818,1.178c-2.327,0.257 -4.671,0.391 -7.014,0.443c-1.762,0.038 -3.989,0.108 -6.066,0.482c-1.581,0.285 -3.08,0.737 -4.289,1.44c-0.339,0.197 -0.719,0.523 -1.049,0.992c-0.411,0.584 -0.778,1.571 -1.1,1.958c-1.287,1.547 -2.251,2.458 -2.759,3.811c-0.335,0.892 -0.518,1.964 -0.406,3.489c0.074,1.04 0.311,2.037 0.73,2.938c0.444,0.958 1.076,1.817 1.922,2.511c0.091,0.075 0.623,0.399 1.086,0.676Zm34.181,-16.018c-0.765,-0.126 -1.58,-0.131 -2.404,-0.068c-1.711,0.131 -3.453,0.514 -4.965,0.827c-2.455,0.509 -4.943,0.84 -7.447,1.03c-2.463,0.187 -4.939,0.246 -7.411,0.217c-1.573,-0.018 -3.562,-0.037 -5.426,0.239c-1.017,0.151 -1.999,0.374 -2.813,0.773c-0.202,0.356 -0.993,1.727 -1.332,2.11c-0.846,0.958 -1.565,1.552 -2.024,2.31c-0.328,0.541 -0.453,1.187 -0.406,2.236c0.028,0.586 0.135,1.153 0.358,1.666c0.198,0.456 0.474,0.874 0.856,1.216c0.187,0.107 0.964,0.555 1.391,0.859c0.488,0.348 0.86,0.73 1.04,1.033c0.488,0.821 0.4,1.569 -0.045,2.184c-0.427,0.592 -0.479,1.38 -0.471,2.201c0.017,1.786 0.399,3.72 0.288,5.209c-0.283,3.893 -1.903,7.022 -2.206,10.296c-0.165,1.777 0.139,3.6 1.471,5.671l1.019,1.68l2.983,1.843c1.729,1.096 3.277,1.117 4.749,0.634c2.797,-0.919 5.362,-3.282 8.181,-4.491c0.475,-0.205 0.966,-0.38 1.467,-0.54c1.734,-0.55 3.606,-0.86 5.296,-1.518c4.329,-1.703 9.75,-1.197 14.405,-2.326c1.638,-0.397 3.165,-1.031 4.456,-2.162c-0.085,-0.295 -0.333,-1.162 -0.442,-1.616c-0.336,-1.392 -1.381,-3.439 -1.944,-5.261c-0.369,-1.195 -0.531,-2.325 -0.428,-3.242c0.059,-0.526 0.607,-1.909 2.377,-1.837c0.644,0.026 2.297,0.404 2.439,0.431c0.453,0.085 1,0.09 1.501,-0.018c0.252,-0.054 0.558,-0.092 0.581,-0.385c0.023,-0.296 -0.256,-0.507 -0.457,-0.769c-0.84,-1.091 -1.993,-2.115 -2.573,-3.074c-1.168,-1.923 -2.354,-3.826 -3.603,-5.685c-1.228,-1.829 -2.52,-3.61 -3.916,-5.324c-0.468,-0.574 -1.095,-1.474 -1.789,-2.305c-0.398,-0.477 -0.778,-0.976 -1.198,-1.144c-1.157,-0.49 -1.781,-1.714 -1.558,-2.9Zm1.47,-2.523l0.067,-0.036c-0.023,0.012 -0.046,0.023 -0.067,0.036Z"/><path d="M149.049,25.943c-2.162,0.002 -4.193,3.729 -5.681,5.092c-4.826,4.423 -10.126,8.289 -14.994,12.701c-1.466,1.329 -2.879,2.719 -4.202,4.192c-0.351,0.392 -1.234,1.435 -1.876,1.305c-1.655,-0.336 -3.131,-3.597 -3.002,-5.09c0.049,-0.569 0.254,-1.107 0.436,-1.642c0.103,-0.303 0.373,-1.222 0.284,-0.915c-0.729,2.512 -4.173,4.618 -5.762,6.591c-5.9,7.325 -11.262,14.921 -20.841,17.83c-1.476,0.448 -4.995,2.282 -6.132,0.751c-1.236,-1.665 0.676,-4.292 1.691,-5.548c0.053,-0.066 1.06,-1.397 1.13,-1.358c0.442,0.251 -2.537,3.51 -2.737,3.704c-3.848,3.721 -8.332,6.828 -12.473,10.212c-5.643,4.611 -12.877,7.941 -20.011,9.547c-0.749,0.169 -2.341,-0.107 -2.595,-0.96c-0.118,-0.394 -0.461,-1.313 -0.319,-1.724c0.076,-0.222 0.853,-1.57 0.578,-0.854c-2.469,6.432 -12.055,8.436 -18.16,8.278c-1.333,-0.034 -2.842,0.361 -4.128,-0.141c-1.637,-0.64 -2.166,-1.725 -3.143,-3.074c-0.146,-0.202 -0.423,-1.476 -0.65,-1.492c-1.009,-0.069 -2.19,1.024 -2.997,1.463c-2.06,1.121 -4.007,2.458 -6.381,2.287c-3.314,-0.24 -6.683,1.204 -10.146,0.961c-1.274,-0.089 -3.341,-0.62 -3.833,-2.099c-2.418,-7.269 4.804,-13.924 10.252,-17.588c1.934,-1.301 3.77,-2.62 5.932,-3.51c0.69,-0.284 1.347,-0.546 2.004,-0.892c0.364,-0.191 1.501,-0.652 1.099,-0.562c-2.331,0.525 -4.25,2.76 -6.86,2.805c-3.321,0.057 -1.456,-5.314 -0.505,-6.441c1.331,-1.576 3.141,-2.689 4.697,-4.018c3.2,-2.734 5.825,-5.631 9.748,-7.393c2.471,-1.11 5.024,-1.465 7.568,-2.303c0.405,-0.133 2.123,-0.426 2.378,-0.787c0.094,-0.134 -3.54,-2.391 -3.783,-3.118c-0.914,-2.732 1.772,-6.875 3.463,-8.877c3.062,-3.629 7.721,-5.069 12.07,-6.561c1.409,-0.484 3.726,-1.655 5.297,-1.508c2.273,0.213 4.31,1.554 6.487,2.068c0.169,0.04 1.769,0.563 1.861,0.494c0.18,-0.134 0.265,-1.419 0.329,-1.649c0.445,-1.605 1,-3.318 1.713,-4.827c1.151,-2.433 4.722,-5.087 7.225,-6.164c5.921,-2.547 10.818,-1.292 16.842,-0.295c0.787,0.13 1.804,0.044 2.515,0.443c0.546,0.306 2.331,2.736 3.225,1.888c1.656,-1.57 2.569,-5.014 3.855,-6.98c2.463,-3.768 8.276,-7.014 12.827,-7.394c2.334,-0.195 7.694,-0.422 9.697,0.622c2.599,1.354 6.076,4.424 8.896,4.99c0.885,0.178 3.39,-2.877 4.131,-3.418c2.697,-1.973 7.647,-2.224 10.335,-0.121c5.416,4.239 4.558,11.04 2.714,16.874c-0.92,2.912 -0.963,5.367 -3.893,5.256"/><path d="M95.931,14.788c-0.248,-0.219 -0.505,-0.452 -0.654,-0.596c-0.346,-0.333 -0.652,-0.566 -0.852,-0.677c-0.401,-0.222 -0.848,-0.375 -1.325,-0.466c-0.609,-0.117 -1.286,-0.103 -1.851,-0.193c-3.793,-0.606 -7.159,-1.294 -10.586,-1.159c-2.369,0.093 -4.767,0.559 -7.336,1.682c-1.628,0.711 -3.667,2.021 -5.322,3.536c-1.242,1.137 -2.267,2.392 -2.824,3.586c-0.38,0.815 -0.72,1.684 -1.021,2.566c-0.28,0.82 -0.529,1.652 -0.749,2.459l-0.043,-0.012c-1.475,-0.34 -2.881,-1.082 -4.348,-1.558c-0.779,-0.253 -1.572,-0.444 -2.389,-0.517c-0.674,-0.059 -1.449,0.034 -2.252,0.245c-1.333,0.349 -2.778,1.029 -3.779,1.377c-2.695,0.94 -5.501,1.87 -8,3.268c-1.792,1.004 -3.432,2.24 -4.788,3.861c-1.082,1.291 -2.531,3.394 -3.342,5.512c-0.671,1.753 -0.888,3.522 -0.397,4.973c0.107,0.315 0.449,0.848 1.055,1.376c0.234,0.205 0.518,0.429 0.819,0.656c-1.578,0.484 -3.159,0.818 -4.717,1.302c-0.81,0.251 -1.614,0.54 -2.41,0.901c-1.676,0.76 -3.132,1.709 -4.492,2.765c-1.935,1.503 -3.669,3.229 -5.613,4.898c-1.091,0.936 -2.306,1.767 -3.394,2.724c-0.524,0.46 -1.021,0.948 -1.47,1.482c-0.83,0.987 -2.167,4.539 -1.566,6.623c0.152,0.525 0.384,0.993 0.719,1.371l-0.497,0.335c-3.413,2.29 -7.463,5.712 -9.68,9.7c-1.652,2.971 -2.314,6.249 -1.19,9.641c0.314,0.95 1,1.685 1.88,2.202c1.034,0.607 2.35,0.893 3.312,0.963c0.765,0.056 1.526,0.039 2.284,-0.023c2.667,-0.22 5.278,-1.103 7.857,-0.909c1.19,0.089 2.296,-0.119 3.359,-0.5c1.337,-0.479 2.602,-1.255 3.905,-1.958l1.382,-0.824c0.076,0.187 0.144,0.338 0.182,0.391c0.657,0.913 1.146,1.706 1.825,2.357c0.533,0.511 1.169,0.947 2.037,1.289c0.549,0.217 1.127,0.323 1.719,0.36c0.982,0.06 2.016,-0.119 2.961,-0.091c3.848,0.116 8.994,-0.589 13.105,-2.588c1.568,-0.762 2.984,-1.713 4.15,-2.865c0.256,0.201 0.553,0.371 0.881,0.505c0.923,0.376 2.089,0.434 2.791,0.279c3.691,-0.812 7.41,-2.07 10.939,-3.714c3.558,-1.658 6.921,-3.713 9.873,-6.1c2.912,-2.355 5.99,-4.575 8.905,-6.962c0.181,-0.148 0.361,-0.296 0.54,-0.446l0.113,0.162c0.779,1.063 2.046,1.537 3.592,1.416c1.629,-0.128 3.712,-1.071 4.788,-1.39c4.097,-1.217 7.485,-3.23 10.481,-5.708c4.342,-3.591 7.833,-8.192 11.511,-12.702c0.077,-0.095 0.159,-0.189 0.245,-0.284c-0.183,-0.687 -0.016,-2.285 0.707,-5.239c-0.052,0.962 0.269,2.392 0.877,3.714c-0.584,0.52 -1.137,1.027 -1.584,1.525c0.228,0.865 1.01,0.293 1.936,-0.828l-0.097,-0.175c-0.055,-0.109 -0.11,-0.218 -0.166,-0.328l-0.089,-0.194c0.852,-0.761 1.77,-1.551 2.515,-2.388c-0.686,1.087 -1.465,2.242 -2.163,3.085c0.085,0.156 0.176,0.308 0.27,0.456c0.903,1.414 2.17,2.374 3.363,2.624c0.583,0.123 1.223,0.062 1.871,-0.211c0.855,-0.359 1.834,-1.357 2.259,-1.824c0.635,-0.698 1.293,-1.375 1.968,-2.036c0.68,-0.667 1.378,-1.316 2.088,-1.951c3.899,-3.485 8.072,-6.619 12.06,-9.97c1.027,-0.862 2.041,-1.739 3.036,-2.639c0.73,-0.66 1.595,-1.819 2.524,-2.915c0.51,-0.602 1.763,-0.888 1.585,-1.452c1.373,-0.086 2.461,-1.228 2.46,-2.622c-0.001,-0.633 -0.226,-1.213 -0.6,-1.666c0.151,-0.557 0.306,-1.149 0.495,-1.762c1.212,-3.937 1.96,-8.268 1.087,-12.114c-0.636,-2.807 -2.074,-5.39 -4.751,-7.455c-1.764,-1.361 -4.24,-2.028 -6.735,-1.948c-2.41,0.076 -4.806,0.825 -6.498,2.08c-0.378,0.28 -1.174,1.118 -2.009,1.964c-0.275,0.278 -0.678,0.637 -0.962,0.883c-0.476,-0.17 -0.967,-0.415 -1.468,-0.692c-2.132,-1.179 -4.351,-2.901 -6.147,-3.822c-0.857,-0.439 -2.17,-0.752 -3.672,-0.89c-2.502,-0.23 -5.596,-0.064 -7.252,0.085c-2.544,0.23 -5.442,1.231 -8.041,2.731c-2.642,1.526 -4.97,3.553 -6.356,5.705c-0.898,1.392 -1.626,3.489 -2.53,5.203c-0.1,0.188 -0.2,0.371 -0.304,0.545Zm49.649,9.547c0.078,-0.153 0.207,-0.423 0.273,-0.617c0.27,-0.804 0.488,-1.752 0.813,-2.754c0.84,-2.592 1.503,-5.394 1.323,-8.033c-0.158,-2.307 -0.991,-4.482 -3.089,-6.148c-0.931,-0.739 -2.277,-1.011 -3.609,-0.987c-1.407,0.026 -2.83,0.378 -3.828,1.097c-0.671,0.484 -2.737,2.829 -3.921,3.443c-0.8,0.415 -1.525,0.462 -2.064,0.35c-1.104,-0.23 -2.3,-0.744 -3.505,-1.431c-2.076,-1.184 -4.225,-2.911 -5.976,-3.838c-0.634,-0.336 -1.73,-0.439 -2.904,-0.513c-2.032,-0.127 -4.282,-0.025 -5.566,0.074c-1.986,0.152 -4.245,0.941 -6.287,2.084c-2.043,1.143 -3.886,2.632 -4.972,4.268c-0.857,1.294 -1.54,3.261 -2.406,4.856c-0.529,0.973 -1.122,1.832 -1.794,2.462c-0.792,0.742 -1.742,0.931 -2.794,0.578c-0.885,-0.298 -2.536,-1.86 -2.882,-2.194l-1.798,-0.22c-3.511,-0.602 -6.621,-1.315 -9.8,-1.227c-1.921,0.054 -3.869,0.409 -5.961,1.295c-1.11,0.469 -2.453,1.286 -3.654,2.251c-1.134,0.912 -2.163,1.94 -2.649,2.953c-0.333,0.695 -0.629,1.436 -0.894,2.189c-0.268,0.76 -0.506,1.532 -0.718,2.28c-0.019,0.145 -0.176,1.288 -0.301,1.651c-0.186,0.543 -0.497,0.861 -0.717,1.023c-0.151,0.112 -0.742,0.499 -1.648,0.305c-0.461,-0.098 -1.574,-0.462 -1.716,-0.497c-1.571,-0.379 -3.073,-1.164 -4.635,-1.688c-0.523,-0.175 -1.053,-0.318 -1.602,-0.372c-0.438,-0.043 -0.956,0.094 -1.488,0.257c-1.114,0.342 -2.252,0.858 -3.076,1.136c-2.516,0.85 -5.144,1.669 -7.482,2.948c-1.442,0.79 -2.773,1.756 -3.87,3.045c-0.768,0.903 -1.764,2.283 -2.47,3.751c-0.547,1.139 -0.993,2.321 -0.774,3.309c0.348,0.269 2.256,1.737 2.895,2.218c0.316,0.239 0.524,0.437 0.609,0.538c0.757,0.902 0.341,1.701 0.107,2.031c-0.185,0.261 -0.573,0.606 -1.164,0.836c-0.64,0.248 -1.723,0.449 -2.04,0.552c-1.799,0.586 -3.602,0.933 -5.379,1.471c-0.686,0.207 -1.368,0.445 -2.044,0.745c-1.444,0.642 -2.699,1.453 -3.873,2.353c-1.903,1.46 -3.606,3.146 -5.517,4.77c-1.086,0.923 -2.295,1.74 -3.379,2.684c-0.409,0.357 -0.799,0.733 -1.15,1.146c-0.301,0.355 -0.682,1.278 -0.895,2.218c-0.107,0.468 -0.173,0.945 -0.126,1.36c0.021,0.184 0.092,0.347 0.323,0.344c0.381,-0.007 0.742,-0.082 1.088,-0.197c0.68,-0.38 1.382,-0.728 2.117,-1.03l0.026,-0.012c1.093,-0.619 2.163,-1.263 3.321,-1.523c0.744,-0.167 1.127,0.124 1.228,0.188c0.7,0.442 0.934,1.057 0.594,1.873c-0.053,0.126 -0.202,0.481 -0.673,0.757c-0.185,0.109 -0.92,0.421 -1.207,0.572l-2.133,0.95l-0.048,0.02c-0.492,0.295 -0.99,0.582 -1.509,0.809c-0.169,0.073 -0.339,0.142 -0.512,0.204l-0.201,0.117c-1.156,0.683 -2.255,1.456 -3.389,2.22c-3.052,2.058 -6.714,5.089 -8.691,8.665c-1.226,2.215 -1.786,4.648 -0.943,7.172c0.11,0.327 0.447,0.489 0.773,0.635c0.566,0.253 1.211,0.364 1.7,0.397c2.671,0.18 5.277,-0.702 7.851,-0.947c0.769,-0.073 1.536,-0.097 2.301,-0.043c0.726,0.05 1.397,-0.098 2.044,-0.334c1.188,-0.433 2.299,-1.149 3.454,-1.781c0.581,-0.319 1.353,-0.953 2.119,-1.301c0.593,-0.271 1.194,-0.401 1.757,-0.363c0.392,0.026 0.961,0.204 1.375,0.854c0.173,0.271 0.488,1.173 0.58,1.442c0.478,0.671 0.833,1.272 1.344,1.757c0.256,0.242 0.564,0.442 0.979,0.602c0.326,0.127 0.678,0.142 1.033,0.139c0.853,-0.006 1.729,-0.143 2.541,-0.125c3.386,0.073 7.915,-0.556 11.517,-2.345c1.744,-0.866 3.273,-2.004 4.263,-3.512c0.022,-0.178 0.059,-0.341 0.109,-0.483c0.079,-0.228 0.64,-1.247 0.863,-1.527c0.435,-0.544 0.931,-0.65 1.115,-0.682c0.536,-0.091 0.973,0.046 1.332,0.31c0.295,0.217 0.689,0.593 0.716,1.346c0.004,0.108 0.016,0.402 -0.173,0.889c-0.113,0.292 -0.239,0.576 -0.377,0.853l0.005,0.017l0.068,0.235c0.181,0.048 0.495,0.118 0.628,0.088c3.433,-0.791 6.886,-1.999 10.159,-3.565c3.266,-1.562 6.351,-3.485 9.051,-5.715c2.88,-2.379 5.93,-4.622 8.81,-7.036c1.122,-0.94 2.216,-1.908 3.263,-2.922c0.514,-0.947 1.146,-1.809 1.634,-2.406c0.047,-0.057 0.772,-0.996 1.09,-1.337c1.07,-1.148 2.382,-0.614 2.585,-0.497c0.615,0.353 1.592,1.479 0.693,3.116c-0.44,0.8 -1.786,2.357 -2.537,3.19c-0.117,0.237 -0.215,0.48 -0.278,0.722c-0.009,0.036 -0.021,0.071 -0.034,0.107c0.366,-0.062 0.986,-0.18 1.378,-0.313c0.974,-0.33 1.902,-0.74 2.5,-0.925c3.503,-1.088 6.382,-2.862 8.927,-5.02c4.084,-3.463 7.319,-7.902 10.762,-12.231c1.095,-1.377 3.068,-2.828 4.436,-4.423c0.35,-0.407 0.657,-0.816 0.816,-1.255l0.058,-0.186c0.017,-0.056 0.028,-0.091 0.031,-0.1c2.633,-7.761 5.72,-3.859 4.446,1.269l-0.045,0.165l-0.004,0.013c-0.024,0.08 -0.229,0.777 -0.304,1.003l-0.31,1.097c-0.03,0.376 0.213,0.929 0.478,1.464c0.076,0.154 0.193,0.331 0.316,0.499c0.68,-0.768 1.384,-1.513 2.106,-2.241c0.723,-0.729 1.466,-1.439 2.221,-2.133c3.887,-3.573 8.053,-6.797 12.031,-10.235c0.968,-0.837 1.924,-1.687 2.862,-2.558c0.345,-0.321 0.72,-0.77 1.118,-1.27c-0.109,-0.304 -0.162,-0.634 -0.149,-0.976c0.055,-1.448 1.275,-2.578 2.723,-2.523c0.089,0.004 0.193,-0.042 0.256,-0.036Z"/><path d="M49.641,139.887c-0.039,0.261 -0.059,0.513 -0.047,0.728c0.067,1.224 0.706,2.017 1.446,2.43c0.464,0.259 0.992,0.425 1.568,0.495c-0.339,0.537 -0.754,1.244 -1.041,1.889c-0.425,0.958 -0.559,1.874 -0.476,2.47c0.164,1.184 0.81,1.973 1.925,2.338c0.786,0.257 1.668,0.322 2.604,0.212c-0.341,0.631 -0.644,1.222 -0.906,1.755c-0.114,0.232 -0.785,1.428 -1.216,2.646c-0.346,0.98 -0.519,1.982 -0.439,2.751c0.147,1.411 0.872,2.409 2.241,2.844c0.856,0.271 1.765,0.36 2.702,0.289l-0.01,0.053c-0.106,0.715 0.048,1.285 0.275,1.702c0.332,0.613 0.851,1.068 1.65,1.247c0.164,0.037 0.332,0.064 0.505,0.08c-0.38,0.983 -0.74,2.166 -0.676,2.982c0.107,1.371 0.809,2.293 2.075,2.662c0.899,0.261 1.842,0.274 2.795,0.073c-0.064,0.532 -0.039,1.004 0.04,1.323c0.285,1.157 1.048,1.69 1.978,1.803c1.566,0.19 3.397,-0.745 4.98,-2.583c0.543,-0.63 1.073,-1.363 1.574,-2.128c-0.111,0.81 -0.208,1.623 -0.286,2.44c-0.191,2.015 -0.266,4.055 -0.13,6.145c0.03,0.477 0.167,3.309 0.68,4.768c0.554,1.574 1.709,2.158 2.634,2.127c0.08,-0.002 0.158,-0.008 0.235,-0.017l-0.186,2.182c-0.059,0.659 -0.324,1.999 -0.234,2.601c0.099,0.667 0.413,1.113 0.731,1.39c0.137,0.118 0.288,0.229 0.455,0.32c-0.05,0.115 -0.097,0.23 -0.142,0.344c-0.881,2.241 -0.772,4.311 0.204,5.696c0.443,0.629 1.093,1.072 1.938,1.191c0.224,0.538 0.519,0.946 0.83,1.203c0.294,0.244 0.598,0.404 0.91,0.485c0.012,0.854 0.098,1.812 0.37,2.451c0.388,0.915 1.052,1.453 1.863,1.617c1.008,0.204 1.97,0.031 2.856,-0.453c0.005,0.789 0.064,1.741 0.258,2.529c0.247,0.998 0.737,1.774 1.333,2.194c1.84,1.294 3.773,0.798 5.496,-0.935c0.926,-0.93 1.793,-2.275 2.526,-3.606c-0.212,1.346 -0.362,2.635 -0.286,3.752c0.031,0.438 0.339,2.812 0.847,3.513c0.521,0.718 1.198,0.918 1.857,0.819l0.111,-0.019c-0.146,0.748 -0.31,1.738 -0.261,2.45c0.056,0.804 0.362,1.408 0.737,1.765c0.529,0.503 1.078,0.636 1.585,0.607c0.46,-0.028 0.941,-0.21 1.378,-0.621c0.325,-0.305 0.65,-0.886 0.947,-1.511l-0.001,0.036c-0.008,0.424 0.026,1.575 0.214,2.445c0.162,0.747 0.485,1.332 0.803,1.634c0.937,0.892 1.994,0.906 3.041,0.32c1.095,-0.612 2.203,-2.291 2.489,-2.745c1.571,-2.494 2.834,-5.152 4.279,-7.713c0.448,-0.793 0.913,-1.577 1.414,-2.342c-0.398,1.151 -0.779,2.159 -0.874,2.576c-0.174,0.77 -0.57,2.666 -0.49,3.103c0.138,0.755 0.612,1.086 0.989,1.239c0.345,0.139 1.179,0.393 1.958,-0.58c0.251,-0.316 0.489,-0.645 0.715,-0.985l-0.007,0.095c-0.019,0.361 -0.155,2.253 0.147,3.229c0.311,1.001 0.998,1.483 1.724,1.561c1.08,0.116 2.281,-0.394 3.4,-1.389c-0.047,0.521 -0.124,1.705 0.018,2.417c0.19,0.946 0.781,1.446 1.287,1.608c0.97,0.311 2.015,0.041 2.963,-0.725c1.215,-0.982 2.306,-2.891 2.675,-3.504c0.499,-0.828 0.95,-1.679 1.36,-2.548l-0.009,0.57c-0.005,0.618 0.062,2.239 0.495,3.295c0.416,1.016 1.152,1.616 2.027,1.719c0.895,0.106 1.738,-0.247 2.445,-0.956c0.903,-0.907 1.567,-2.539 1.849,-3.123c0.827,-1.715 1.591,-3.46 2.324,-5.218c1.07,-2.568 2.072,-5.166 3.11,-7.741l-0.373,5.244c-0.015,0.633 0.185,4.318 1.172,5.885c0.411,0.653 0.949,1.056 1.529,1.224c0.709,0.205 1.621,0.138 2.643,-0.771c1.632,-1.453 2.854,-3.607 3.777,-6.011c0.074,0.554 0.211,1.189 0.447,1.668c0.412,0.839 1.082,1.329 1.883,1.414c1.594,0.17 3.052,-0.671 4.22,-2.185c1.759,-2.278 2.896,-6.185 3.36,-7.681l0.67,-2.271c0.036,0.186 0.077,0.352 0.123,0.494c0.558,1.71 1.751,1.939 2.776,1.47c1.398,-0.639 2.687,-1.927 3.808,-3.563c2.025,-2.956 3.562,-7.091 4.704,-9.364l1.554,-3.299c0.073,1.959 -0.157,4.139 0.028,5.463c0.026,0.183 0.421,2.394 0.81,2.939c0.4,0.56 0.912,0.743 1.339,0.777c0.439,0.035 0.922,-0.062 1.378,-0.503c1.459,-1.41 2.45,-3.511 3.091,-5.937c1.199,-4.538 1.195,-10.281 1.734,-13.742c0.166,-1.063 0.256,-1.678 0.37,-2.237c0.018,-0.086 0.036,-0.17 0.055,-0.255c0.278,-0.678 0.57,-1.351 0.826,-2.036c0.238,-0.636 0.447,-1.282 0.597,-1.947c0.216,-0.961 -0.2,-1.437 -0.282,-1.545c-0.141,-0.188 -0.767,-0.644 -1.454,-0.667c0.073,-1.105 0.127,-2.208 0.173,-3.303c0.02,-0.486 0.446,-3.22 0.311,-4.836c-0.098,-1.177 -0.588,-1.983 -1.055,-2.334c-0.512,-0.386 -1.087,-0.574 -1.698,-0.548c0.007,-0.081 0.012,-0.162 0.016,-0.243c0.093,-1.858 -0.506,-3.337 -1.673,-4.087c-1.36,-0.874 -3.27,-0.672 -5.23,0.493c-1.026,0.61 -2.092,1.475 -3.066,2.364c-0.125,-0.15 -0.263,-0.283 -0.412,-0.399c-1.181,-0.926 -2.954,-0.918 -4.847,0.035c-0.739,0.373 -1.512,0.885 -2.253,1.439c-0.291,-0.623 -0.741,-1.12 -1.324,-1.457c-0.804,-0.464 -2.03,-0.698 -3.793,-0.146l-0.163,0.065c-0.002,-0.626 -0.119,-1.176 -0.332,-1.604c-0.584,-1.169 -2.008,-2.292 -5.055,-1.17c-1.771,0.652 -3.427,1.626 -4.991,2.767c-0.507,0.371 -1.005,0.759 -1.493,1.158c-0.499,-0.306 -1.129,-0.472 -1.926,-0.431c-2.887,0.152 -5.641,1.572 -8.147,3.587c-0.475,0.382 -0.941,0.786 -1.398,1.205c-0.167,-0.251 -0.369,-0.48 -0.605,-0.685c-0.737,-0.639 -1.793,-0.922 -2.999,-0.761c-1.419,0.189 -3.129,1.066 -3.845,1.522c-1.806,1.152 -3.518,2.495 -5.168,3.928l-0.332,0.291c-2.143,0.081 -4.323,1.018 -6.4,2.488c-1.037,0.734 -2.052,1.606 -3.027,2.537c-0.386,-0.812 -1.032,-1.217 -1.712,-1.375c-1.034,-0.241 -2.15,-0.121 -3.257,0.288c-1.691,0.626 -3.392,2.012 -4.441,2.883c-1.911,1.588 -3.621,3.356 -5.162,5.267c-0.873,1.081 -1.691,2.208 -2.459,3.374c-0.468,0.238 -0.924,0.539 -1.361,0.89c-1.404,1.128 -2.632,2.843 -3.461,4.007c-0.601,0.842 -1.169,1.707 -1.716,2.585c-0.158,-0.187 -0.331,-0.353 -0.519,-0.496c-0.211,-0.539 -0.61,-0.813 -0.93,-0.96c-0.353,-0.163 -1.221,-0.512 -2.066,0.352c-0.647,0.121 -1.348,0.401 -1.979,0.727c0.666,-3.226 1.423,-6.428 1.87,-9.725c0.152,-1.122 -0.421,-1.6 -0.51,-1.694c-0.257,-0.267 -2.377,-1.338 -3.173,0.702c-0.082,0.21 -0.259,0.817 -0.409,1.331c0.237,-1.688 0.49,-3.374 0.759,-5.056c0.101,-0.625 0.524,-1.404 0.747,-2.109c0.214,-0.676 0.304,-1.319 0.25,-1.86c-0.094,-0.955 -0.533,-1.732 -1.461,-2.261c-0.928,-0.528 -1.649,-0.308 -2.19,0.03c-0.364,0.227 -0.732,0.608 -0.921,1.225c-0.099,0.321 -0.128,1.405 -0.132,1.564l-0.796,4.255c-0.3,1.605 -0.619,3.201 -0.97,4.789c0.034,-0.683 0.087,-1.363 0.154,-2.039c0.448,-4.503 1.504,-8.875 1.974,-13.442c0.085,-0.824 -0.214,-1.262 -0.334,-1.446c-0.507,-0.779 -1.201,-1.022 -1.984,-0.939c-0.317,0.034 -0.949,0.153 -1.478,0.851c-0.104,0.136 -0.325,0.596 -0.524,0.998l-0.084,-0.026c-0.572,-0.159 -1.376,-0.13 -2.202,0.37c-0.797,0.483 -1.852,1.674 -2.023,1.862c-1.08,1.182 -2.07,2.443 -2.93,3.786l-0.131,0.21c-0.577,0.52 -1.192,1.019 -1.825,1.435c-0.259,0.171 -0.517,0.338 -0.774,0.479c0.197,-0.421 0.375,-0.742 0.421,-0.831c0.688,-1.322 1.514,-2.539 2.426,-3.69c1.624,-1.468 3.049,-3.043 3.802,-3.731l1.796,-1.691c0.384,-0.359 1.357,-0.951 1.731,-1.318c0.419,-0.41 0.621,-0.826 0.712,-1.115c0.255,-0.815 0.083,-1.5 -0.332,-2.067c-0.227,-0.31 -0.616,-0.743 -1.377,-0.91c0.169,-0.735 -0.037,-1.251 -0.2,-1.568c-0.435,-0.843 -1.19,-1.508 -2.568,-1.198c-1.384,0.315 -2.842,1.144 -4.233,2.303c-1.709,1.423 -3.356,3.353 -4.696,5.009c-0.64,0.416 -1.304,0.803 -1.974,1.129c-0.651,0.316 -1.301,0.595 -1.929,0.728c0.306,-0.722 0.655,-1.54 0.716,-1.663c1.081,-2.175 2.926,-5.426 5.136,-8.184c0.848,-0.636 1.573,-1.206 2.095,-1.588l3.221,-2.521c0.363,-0.29 1.258,-0.999 1.429,-1.22c0.552,-0.712 0.557,-1.38 0.52,-1.758c-0.071,-0.722 -0.394,-1.299 -0.977,-1.728c-0.266,-0.197 -0.959,-0.741 -2.215,-0.369c-2.423,0.718 -4.898,2.71 -7.071,5.261l-0.171,0.204c-0.863,0.64 -1.836,1.319 -2.832,1.901c0.842,-1.148 1.75,-2.301 2.713,-3.403c1.256,-1.438 2.607,-2.789 4.032,-3.914c0.108,-0.085 0.169,-0.142 0.197,-0.169c1.578,-1.475 0.493,-3.053 0.352,-3.258c-0.345,-0.504 -1.132,-1.413 -2.701,-1.008c-0.062,0.016 -0.382,0.083 -0.808,0.37c-0.133,0.089 -0.593,0.422 -0.775,0.561l-1.952,1.481c-0.609,0.445 -1.763,1.38 -3.048,2.212c0.091,-0.169 0.185,-0.336 0.282,-0.502c0.193,-0.33 0.391,-0.657 0.597,-0.958l0.183,-0.172c0.371,-0.349 1.307,-1.191 1.532,-1.447c0.503,-0.572 0.607,-1.09 0.643,-1.285c0.154,-0.821 -0.076,-1.437 -0.375,-1.892c-0.306,-0.464 -0.74,-0.849 -1.381,-1.045c0.056,-0.075 0.107,-0.152 0.154,-0.231c0.117,-0.201 0.218,-0.411 0.297,-0.632c0.662,-1.855 -0.436,-2.745 -0.907,-3.09c-0.532,-0.389 -1.39,-0.786 -2.552,-0.326c-0.179,0.071 -0.443,0.198 -0.734,0.421c-0.26,0.199 -0.742,0.684 -0.97,0.892l-1.766,1.82c-0.679,0.8 -3.273,3.88 -3.972,6.059c-0.509,1.586 -0.248,2.944 0.48,3.886c0.482,0.622 1.165,1.071 2.008,1.208Zm127.987,9.998c-0.162,-0.04 -0.345,0.106 -0.559,0.191c-0.792,0.315 -1.641,0.935 -2.461,1.624c-1.069,0.896 -2.076,1.922 -2.839,2.74c-0.095,0.322 -0.209,0.646 -0.337,0.963c-0.508,1.252 -1.25,2.405 -2.005,3.097c-0.805,0.738 -1.686,1.039 -2.473,0.983c-0.583,-0.041 -1.005,-0.3 -1.313,-0.686c-0.221,-0.276 -0.577,-0.821 -0.337,-1.675c0.036,-0.128 0.147,-0.417 0.375,-0.782c0.542,-0.869 2.097,-2.959 2.239,-3.113l0.338,-0.369l0.051,-0.244l0.033,-0.178c-0.081,0.024 -0.16,0.051 -0.227,0.079c-0.583,0.248 -1.201,0.643 -1.806,1.081c-1.118,0.81 -2.181,1.774 -2.922,2.464c-0.452,1.01 -1.053,1.965 -1.704,2.675c-1.087,1.187 -2.368,1.696 -3.409,1.564c-1.309,-0.166 -1.649,-0.984 -1.736,-1.705c-0.043,-0.35 -0.01,-0.831 0.309,-1.34c0.181,-0.289 0.752,-0.795 1.002,-1.06l2.277,-2.212l0.048,-0.044l0.034,-0.094c0.109,-0.335 0.161,-0.816 0.184,-1.127c-0.16,0.023 -0.354,0.059 -0.521,0.113l-1.075,0.414l-2.51,1.875c-0.21,0.309 -0.413,0.577 -0.595,0.788c-0.028,0.032 -1.97,2.068 -2.835,2.553c-1.433,0.802 -2.448,0.071 -2.873,-0.574c-0.252,-0.384 -0.658,-1.56 0.374,-2.731c0.575,-0.652 2.029,-1.835 2.86,-2.497c0.377,-0.707 0.789,-1.686 1.08,-2.417c-1.343,0.533 -2.596,1.304 -3.79,2.182c-0.795,0.586 -1.564,1.219 -2.312,1.871c-0.059,0.762 -0.225,1.489 -0.439,2.007c-0.71,1.718 -2.123,3.79 -3.88,5.193c-1.381,1.102 -2.968,1.793 -4.587,1.802c-0.772,0.005 -1.274,-0.291 -1.619,-0.626c-0.489,-0.473 -0.845,-1.221 -0.6,-2.234c0.192,-0.791 1.192,-2.232 1.785,-2.845l2.452,-2.342c-0.727,0.425 -1.434,0.937 -2.122,1.495c-1.678,1.361 -3.231,3.013 -4.639,4.606c-0.613,1.29 -1.343,2.535 -2.154,3.726c-0.946,1.391 -2.001,2.709 -3.105,3.94c-0.51,0.569 -1.412,1.705 -2.362,2.37c-0.77,0.539 -1.592,0.821 -2.365,0.808c-1.352,-0.021 -1.891,-0.771 -2.143,-1.505c-0.142,-0.413 -0.205,-0.982 0.05,-1.641c0.218,-0.563 1.088,-1.604 1.502,-2.106l4.357,-4.762c0.747,-0.808 1.562,-1.75 2.438,-2.743c0.08,-0.173 0.158,-0.346 0.232,-0.521c0.107,-0.249 0.267,-0.62 0.397,-1.033c-0.514,0.197 -1.096,0.434 -1.31,0.572c-1.625,1.047 -3.161,2.27 -4.643,3.571c-0.177,0.155 -0.354,0.312 -0.53,0.47c-0.137,0.469 -0.381,1.04 -0.718,1.63c-0.802,1.402 -2.09,3.078 -2.131,3.129c-1.012,1.233 -2.096,2.388 -3.237,3.484c-1.121,1.077 -2.295,2.1 -3.508,3.089c-0.238,0.194 -1.942,1.713 -3.197,2.243c-0.904,0.381 -1.738,0.385 -2.349,0.182c-0.507,-0.167 -0.864,-0.415 -1.117,-0.702c-0.845,1.36 -1.791,2.73 -2.788,3.857c-1.449,1.638 -3.056,2.775 -4.604,3.12c-0.298,0.066 -0.564,0.088 -0.801,0.078c-0.625,1.016 -1.307,1.869 -1.802,2.297c-0.531,0.46 -2.053,1.225 -3.183,1.253c-0.988,0.024 -1.796,-0.288 -2.362,-0.898l-0.002,0.003c-0.445,0.736 -0.878,1.48 -1.308,2.227c0.168,0.175 0.318,0.411 0.416,0.732c0.068,0.223 0.071,1.216 0.022,1.615c-0.071,0.573 -0.162,1.054 -0.286,1.539c-0.113,0.445 -0.256,0.895 -0.444,1.428c-0.312,0.891 -0.867,2.647 -1.646,4.418c-0.219,1.459 -0.359,2.9 -0.451,4.232c-0.038,0.539 0.18,2.524 0.228,2.946c0.205,0.039 0.395,-0.146 0.6,-0.311c0.575,-0.466 1.11,-1.178 1.607,-1.953c1.322,-2.058 2.324,-4.565 2.662,-5.299l1.103,-2.541c0.111,-0.242 0.27,-0.796 0.398,-1.027c0.209,-0.38 0.473,-0.598 0.665,-0.716c0.521,-0.32 1.035,-0.334 1.52,-0.154c0.312,0.116 0.781,0.349 1.05,1.057c0.479,1.259 0.569,2.778 0.425,4.406c-0.232,2.634 -1.122,5.612 -1.078,7.922c0.061,-0.136 0.12,-0.277 0.178,-0.42c0.864,-2.143 1.358,-4.829 1.762,-5.968l1.073,-2.745c0.121,-0.283 0.377,-1 0.467,-1.188c0.826,-1.734 2.603,-0.638 2.814,-0.378c0.071,0.087 0.519,0.523 0.33,1.453c-0.082,0.408 -0.173,0.815 -0.27,1.22c0.172,-0.294 0.356,-0.531 0.536,-0.702c0.842,-0.799 1.592,-0.498 1.916,-0.342c0.397,0.19 0.86,0.568 0.932,1.354c0.027,0.298 -0.353,1.558 -0.484,2.082l-0.623,2.437c-0.477,2.141 -0.926,4.342 -1.225,6.553c-0.196,1.447 -0.328,2.898 -0.359,4.339c-0.003,0.115 0.019,0.371 0.051,0.661c0.276,-0.333 0.538,-0.658 0.61,-0.772c1.549,-2.447 2.791,-5.058 4.216,-7.571c0.639,-1.128 1.314,-2.237 2.062,-3.306c0.126,-0.179 2.132,-2.962 3.136,-3.677c1.039,-0.74 1.934,-0.421 2.403,0.005c0.276,0.25 0.515,0.684 0.638,1.263c0.258,-0.585 0.522,-1.153 0.761,-1.467c0.362,-0.477 0.781,-0.703 1.113,-0.79c0.677,-0.176 1.518,-0.123 2.082,1.043c0.311,0.644 0.365,1.323 0.229,2.023c-0.162,0.836 -0.704,1.724 -0.976,2.534c-0.483,1.436 -1.037,2.907 -1.431,4.404c-0.243,0.924 -0.425,1.857 -0.476,2.798c-0.006,0.111 -0.004,0.584 0,1.057c0.321,-0.27 0.637,-0.604 0.946,-0.969c1.379,-1.625 2.591,-3.808 3.232,-4.698l1.924,-2.76c0.111,-0.169 0.252,-0.587 0.358,-0.763c0.169,-0.28 0.363,-0.45 0.501,-0.546c0.538,-0.373 1.056,-0.348 1.501,-0.162c0.283,0.119 0.766,0.369 0.941,1.147c0.165,0.735 0.031,1.429 -0.318,2.094c-0.358,0.682 -1.095,1.311 -1.431,2.009c-0.551,1.144 -1.069,2.3 -1.495,3.487c-0.407,1.133 -0.73,2.294 -0.91,3.5c0.593,-0.751 1.059,-1.604 1.264,-1.944c0.835,-1.384 1.52,-2.838 2.107,-4.334c0.903,-2.303 1.573,-4.703 2.183,-7.101l0.518,-2.28c0.105,-0.489 0.148,-1.58 0.273,-2.071c0.097,-0.381 0.257,-0.645 0.385,-0.801c0.412,-0.5 0.912,-0.631 1.4,-0.579c0.321,0.034 0.859,0.157 1.273,0.862c0.234,0.4 0.38,0.994 0.381,1.664c0.003,0.95 -0.27,2.122 -0.294,2.323c-0.293,2.391 -0.667,4.808 -0.925,7.228c-0.167,1.572 -0.286,3.145 -0.298,4.712c-0.001,0.198 0.069,0.702 0.144,1.18c0.348,-0.592 0.777,-1.334 0.9,-1.588c0.802,-1.665 1.543,-3.36 2.253,-5.068c1.079,-2.594 2.088,-5.22 3.136,-7.822l2.202,-5.329c0.032,-0.067 0.907,-1.501 1.286,-2.038c1.081,-1.533 2.782,0.014 2.854,0.242c0.241,0.759 0.313,1.645 0.265,2.58c-0.083,1.66 -0.559,3.507 -0.692,4.835l-0.438,6.278c-0.008,0.337 0.4,2.549 0.599,3.608c1.132,-1.173 1.953,-2.816 2.621,-4.592c1.188,-3.162 1.851,-6.753 2.499,-9.357c0.013,-0.054 0.312,-2.448 0.735,-3.775c0.293,-0.922 0.799,-1.495 1.14,-1.691c0.652,-0.375 1.189,-0.27 1.613,-0.055c0.311,0.157 0.619,0.431 0.809,0.886c0.152,0.363 0.17,1.241 0.182,1.681l-0.164,2.581c-0.185,2.311 -0.615,4.691 -0.824,7.05c-0.085,0.955 -0.132,1.907 -0.104,2.847c0.005,0.152 0.072,0.558 0.131,0.885c0.109,-0.066 0.213,-0.149 0.316,-0.24c0.398,-0.351 0.748,-0.838 1.07,-1.38c1.202,-2.022 1.954,-4.774 2.305,-5.916l1.196,-4.09l0.744,-3.326c0.038,-0.19 0.155,-2.247 0.572,-3.395c0.277,-0.759 0.726,-1.262 1.147,-1.502c0.681,-0.388 1.245,-0.292 1.693,-0.077c0.342,0.165 0.676,0.457 0.89,0.943c0.199,0.45 0.205,1.548 0.296,2.096c0.077,0.468 0.216,3.712 0.298,5.779c0.579,-0.656 1.109,-1.473 1.614,-2.339c1.573,-2.697 2.788,-5.95 3.737,-7.851l2.149,-4.588c0.026,-0.05 0.561,-0.961 1.087,-1.579c0.387,-0.454 0.817,-0.762 1.129,-0.89c0.857,-0.349 1.562,-0.136 2.101,0.498c0.689,0.809 1.092,2.026 1.241,3.439c0.125,1.184 0.072,2.533 0.039,3.758c0.218,-0.752 0.394,-1.551 0.545,-2.371c0.291,-1.58 0.474,-3.24 0.615,-4.851c-0.589,-0.056 -1.094,-0.333 -1.141,-0.378c-0.07,-0.068 -0.679,-0.618 -0.487,-1.644c0.071,-0.38 0.407,-1.714 0.586,-2.241l0.232,-0.595c0.293,-1.216 0.529,-2.448 0.721,-3.69c0.503,-3.26 0.702,-6.583 0.827,-9.834c0.01,-0.263 0.089,-1.657 0.157,-2.855l-0.025,0.032c-0.144,0.185 -0.284,0.376 -0.421,0.569c-0.183,0.496 -0.342,0.896 -0.444,1.151l-1.066,2.397c-0.332,0.643 -0.876,1.934 -1.354,2.388c-0.45,0.427 -0.944,0.595 -1.397,0.612c-0.533,0.02 -1.118,-0.127 -1.644,-0.731c-0.316,-0.362 -0.606,-0.972 -0.43,-1.817c0.175,-0.845 1.388,-2.756 1.459,-2.875c0.204,-0.342 0.801,-1.388 1.568,-2.522c0.291,-0.795 0.629,-1.818 0.853,-2.839c0.139,-0.637 0.236,-1.271 0.221,-1.831c-0.004,-0.187 -0.065,-0.46 -0.091,-0.568Zm-91.36,46.719l-0.116,0.138c-0.614,0.681 -1.267,0.959 -1.687,1.054l-0.024,0.005c-0.001,0.383 0.009,0.934 0.02,1.373c0.107,-0.085 0.209,-0.188 0.313,-0.293c0.512,-0.521 0.956,-1.234 1.353,-1.997l0.141,-0.28Zm20.611,-27.386l-0.392,0.329c-1.658,1.391 -3.14,2.942 -4.475,4.613c-0.238,0.298 -0.471,0.6 -0.7,0.906c0.202,0.228 0.374,0.484 0.509,0.767l0.045,-0.043l3.127,-3.217c0.731,-1.22 1.371,-2.413 1.886,-3.355Z" style="fill-opacity:0.85"/><g id="Lentes"><path d="M33.315,127.239c0.633,-0.714 2.537,-0.781 3.413,-0.978c2.463,-0.555 5.29,-1.267 7.66,-2.186c9.577,-3.713 19.756,-5.564 29.773,-8.044c4.181,-1.036 10.899,-1.347 14.63,-3.714" style="fill:#fff;fill-opacity:0.45"/><path d="M34.957,129.287c0.394,0.56 1.76,-0.501 2.305,-0.655c1.502,-0.42 3.131,-0.899 4.715,-1.447c1.091,-0.378 2.158,-0.774 3.146,-1.213c3.727,-1.6 7.535,-2.964 11.434,-4.086c2.356,-0.678 4.736,-1.289 7.135,-1.824c3.622,-0.809 7.283,-1.443 10.915,-2.229c2.932,-0.577 7.04,-0.767 10.593,-1.522c1.874,-0.399 3.586,-0.988 4.997,-1.777c1.224,-0.776 1.587,-2.399 0.811,-3.623c-0.776,-1.223 -2.4,-1.586 -3.623,-0.81c-0.937,0.67 -2.112,1.205 -3.411,1.626c-3.41,1.105 -7.435,1.655 -10.26,2.502c-3.964,1.097 -7.929,2.19 -11.922,3.15c-4.051,0.975 -8.109,1.861 -12.105,2.976c-2.025,0.565 -4.04,1.146 -6.034,1.823c-1.144,0.381 -2.39,0.699 -3.649,0.981c-1.295,0.289 -2.596,0.522 -3.81,0.731c-0.797,0.134 -2.289,0.212 -3.292,0.575c-0.656,0.237 -1.156,0.633 -1.552,1.034c-0.961,1.084 -0.86,2.744 0.224,3.705c0.971,0.861 2.404,0.87 3.383,0.083Z"/><path d="M91.496,108.605c0.495,-0.111 -0.553,0.853 -0.777,1.308c-0.384,0.779 -0.554,1.721 -0.774,2.564c-0.747,2.857 -0.621,5.931 0.025,8.799c1.917,8.514 7.578,15.35 15.28,19.662c14.742,8.253 31.959,8.041 46.743,-0.128c6.023,-3.327 10.984,-7.165 13.2,-13.998c1.751,-5.401 0.472,-11.746 -1.299,-16.939c-3.825,-11.22 -12.296,-21.665 -24.786,-23.6c-9.199,-1.425 -18.836,2.185 -27.296,5.391c-7.585,2.874 -11.436,7.683 -16.297,13.69c-0.701,0.866 -4.714,4.302 -4.492,5.287" style="fill:#fff;fill-opacity:0.45"/><path d="M91.325,105.983c-0.128,0.011 -0.263,0.032 -0.405,0.061c-0.752,0.17 -1.356,0.647 -1.708,1.269c-0.36,0.065 -0.676,1.135 -0.826,1.451c-0.165,0.348 -0.308,0.714 -0.426,1.094c-0.2,0.646 -0.337,1.333 -0.494,1.971c-0.407,1.654 -0.576,3.366 -0.529,5.079c0.045,1.654 0.274,3.309 0.657,4.903c1.108,4.62 3.218,8.772 6.124,12.333c2.83,3.467 6.397,6.388 10.509,8.622c7.732,4.211 16.08,6.208 24.412,6.077c8.267,-0.131 16.524,-2.339 24.132,-6.626c3.135,-1.756 5.983,-3.655 8.344,-5.994c2.426,-2.405 4.349,-5.27 5.53,-8.94c0.757,-2.341 0.99,-4.844 0.875,-7.367c-0.166,-3.63 -1.061,-7.303 -2.154,-10.544c-1.953,-5.863 -5.14,-11.518 -9.441,-15.986c-4.378,-4.548 -9.915,-7.86 -16.532,-8.953c-3.904,-0.652 -7.891,-0.445 -11.85,0.247c-5.691,0.995 -11.32,3.02 -16.516,4.912c-3.234,1.175 -5.845,2.691 -8.155,4.474c-3.444,2.659 -6.186,5.948 -9.314,9.704c-0.321,0.384 -1.264,1.256 -2.233,2.213Zm1.199,6.811l-0.101,0.331c-0.334,1.206 -0.488,2.46 -0.49,3.718c-0.002,1.312 0.145,2.627 0.412,3.898c0.83,3.942 2.524,7.511 4.908,10.595c2.398,3.102 5.469,5.726 9.02,7.774c7.029,4.043 14.671,6.08 22.345,6.112c7.709,0.032 15.438,-1.94 22.598,-5.819c2.894,-1.576 5.545,-3.262 7.727,-5.39c2.105,-2.053 3.767,-4.517 4.798,-7.672c0.811,-2.498 0.911,-5.216 0.609,-7.908c-0.314,-2.797 -1.067,-5.565 -1.927,-8.058c-1.878,-5.384 -4.864,-10.58 -8.902,-14.635c-3.924,-3.939 -8.852,-6.781 -14.698,-7.627c-3.489,-0.498 -7.035,-0.214 -10.544,0.49c-5.425,1.087 -10.755,3.192 -15.682,5.133c-2.718,1.073 -4.902,2.417 -6.821,3.986c-3.107,2.539 -5.518,5.672 -8.303,9.216c-0.529,0.673 -2.607,4.929 -3.919,4.395c-0.161,0.589 -0.525,1.109 -1.03,1.461Z"/><path d="M152.713,96.626c-0.836,0.037 1.717,-2.106 1.999,-2.295c1.652,-1.108 3.499,-2.151 5.368,-2.844c3.576,-1.326 8.11,-2.321 11.92,-2.515c1.312,-0.067 2.361,-0.145 3.646,0.059c0.324,0.052 2.014,0.461 1.962,0.228" style="fill:#fff;fill-opacity:0.45"/><path d="M155.135,97.64c0.382,-0.36 0.733,-1.357 0.831,-1.44c0.723,-0.598 1.464,-1.201 2.271,-1.734c0.789,-0.521 1.6,-0.994 2.435,-1.382c0.862,-0.371 1.771,-0.755 2.737,-1.056c0.925,-0.289 1.889,-0.537 2.865,-0.707c1.987,-0.347 3.999,-0.394 5.827,-0.353c0.625,0.033 1.179,0.063 1.735,0.12c0.474,0.048 0.925,0.162 1.435,0.301c0.314,0.088 1.678,0.486 2.212,0.541c1.023,0.106 1.61,-0.505 1.946,-0.76c0.765,-0.582 0.838,-1.455 0.74,-2.487c-0.287,-1.274 -1.458,-2.122 -2.721,-2.044c-0.216,-0.269 -1.242,0.043 -1.426,0.035c-0.636,-0.031 -1.209,-0.047 -1.782,0.002c-0.764,0.064 -1.496,0.168 -2.342,0.3c-1.609,0.21 -3.309,0.584 -5.042,1.005c-0.982,0.238 -1.966,0.496 -2.944,0.738c-1.537,0.38 -3.049,0.725 -4.424,1.171c-1.045,0.296 -2.07,0.712 -3.096,1.151c-1.014,0.434 -1.99,0.916 -2.934,1.42c-0.232,0.121 -1.592,1.078 -2.395,1.785c-0.458,0.404 -0.697,0.856 -0.859,1.134c-0.633,1.089 -0.138,2.01 0.191,2.648c0.317,0.617 1.046,1.123 2.435,1.221c1.047,-0.047 1.924,-0.702 2.305,-1.609Zm-1.766,-3.556c-0.216,-0.082 -0.469,-0.129 -0.772,-0.08c0.267,-0.012 0.526,0.017 0.772,0.08Zm21.661,-4.336c0,0.028 0.006,0.057 0.017,0.088l-0.017,-0.088Z"/><path d="M174.095,89.8c-2.815,0.633 -3.004,3.879 -3.86,6.026c-2.825,7.088 -0.971,15.95 4.124,21.417c12.972,13.923 38.783,12.738 51.782,-0.086c3.924,-3.872 5.808,-9.22 7.901,-14.147c1.102,-2.593 4.181,-4.7 4.443,-7.584c0.425,-4.68 -2.878,-9.884 -5.255,-13.616c-1.596,-2.504 -2.931,-5.597 -5.124,-7.651c-3.029,-2.836 -6.801,-6.146 -10.899,-7.231c-9.783,-2.592 -19.748,4.368 -27.435,9.321c-4.608,2.97 -9.34,6.696 -13.227,10.567c-0.449,0.448 -3.644,2.645 -3.541,3.104" style="fill:#fff;fill-opacity:0.45"/><path d="M170.591,88.868c-0.135,0.136 -0.262,0.28 -0.383,0.43c-1.231,1.525 -1.635,3.847 -2.303,5.599c-1.517,3.984 -1.763,8.436 -0.874,12.653c0.886,4.203 2.861,8.17 5.739,11.173c6.948,7.269 17.194,10.578 27.442,10.315c10.153,-0.26 20.282,-3.994 27.03,-10.765c1.667,-1.659 2.99,-3.564 4.115,-5.594c1.609,-2.904 2.81,-6.065 4.081,-9.076c0.738,-1.728 2.411,-3.215 3.446,-4.897c0.604,-0.981 1.028,-2.017 1.135,-3.14c0.204,-2.117 -0.258,-4.336 -1.071,-6.504c-1.109,-2.957 -2.883,-5.82 -4.332,-8.135c-1.11,-1.775 -2.095,-3.834 -3.329,-5.632c-0.599,-0.873 -1.257,-1.687 -2,-2.398c-1.86,-1.781 -4.001,-3.731 -6.322,-5.272c-1.675,-1.111 -3.449,-2.003 -5.278,-2.509c-4.301,-1.199 -8.654,-0.714 -12.878,0.652c-5.884,1.903 -11.507,5.583 -16.276,8.559c-2.39,1.491 -4.812,3.179 -7.147,4.98c-2.347,1.81 -4.599,3.738 -6.638,5.705c-0.385,0.371 -2.673,1.93 -3.44,2.739c-0.354,0.374 -0.58,0.755 -0.717,1.117Zm5.958,1.862c-0.302,0.796 -0.985,1.43 -1.877,1.631c-0.499,0.104 -0.706,0.508 -0.89,0.914c-0.512,1.124 -0.782,2.438 -1.216,3.48c-1.286,3.086 -1.558,6.574 -0.958,9.901c0.612,3.394 2.096,6.631 4.339,9.107c6.011,6.618 15.096,9.702 24.211,9.661c9.282,-0.042 18.611,-3.3 24.881,-9.384c1.469,-1.437 2.633,-3.096 3.628,-4.863c1.575,-2.797 2.737,-5.855 3.98,-8.76c0.785,-1.858 2.529,-3.493 3.629,-5.304c0.348,-0.575 0.619,-1.171 0.675,-1.826c0.142,-1.668 -0.277,-3.404 -0.94,-5.101c-1.069,-2.736 -2.786,-5.361 -4.168,-7.492c-0.965,-1.488 -1.835,-3.187 -2.855,-4.745c-0.609,-0.93 -1.275,-1.805 -2.064,-2.528c-1.753,-1.606 -3.759,-3.374 -5.933,-4.749c-1.361,-0.86 -2.79,-1.56 -4.264,-1.933c-3.577,-0.898 -7.16,-0.353 -10.617,0.871c-5.503,1.947 -10.681,5.623 -15.099,8.562c-2.22,1.477 -4.464,3.139 -6.621,4.91c-2.145,1.762 -4.197,3.636 -6.048,5.539c-0.208,0.214 -1.011,1.359 -1.793,2.109Z"/></g></g></svg>