<?xml version="1.0" encoding="UTF-8" standalone="no"?>
<!DOCTYPE svg PUBLIC "-//W3C//DTD SVG 1.1//EN" "http://www.w3.org/Graphics/SVG/1.1/DTD/svg11.dtd">
<svg width="100%" height="100%" viewBox="0 0 236 325" version="1.1" xmlns="http://www.w3.org/2000/svg" xmlns:xlink="http://www.w3.org/1999/xlink" xml:space="preserve" xmlns:serif="http://www.serif.com/" style="fill-rule:evenodd;clip-rule:evenodd;stroke-linejoin:round;stroke-miterlimit:2;">
    <g transform="matrix(1,0,0,1,-393.457,-358.276)">
        <path d="M500.06,682.24C496.607,670.2 493.89,658.183 491.91,646.19C491.852,645.835 491.545,645.571 491.19,645.57C488.21,645.58 485.48,646.97 484.72,642.52C483.68,636.347 483.337,628.423 483.69,618.75C483.717,618.043 483.557,617.3 483.21,616.52C483.18,616.451 483.111,616.407 483.036,616.407C482.946,616.407 482.868,616.471 482.85,616.56C479.79,634.95 480.49,652.09 481.31,673C481.417,675.873 481.707,678.85 482.18,681.93C481.52,682.57 480.303,682.683 478.53,682.27C477.91,678.09 477.533,672.667 477.4,666C476.99,646.04 476.02,633.12 479.19,617.67C480.78,609.93 484.46,603.56 488.86,596.75C490.11,594.82 490.97,592.61 491.84,590.42C491.929,590.209 491.831,589.961 491.62,589.86L491.61,589.85C491.441,589.771 491.24,589.833 491.15,589.99C489.057,593.47 485.967,595.873 481.88,597.2C477.29,598.69 478.14,589.14 477.99,584.76C477.937,583.14 477.483,581.78 476.63,580.68C471.03,573.453 463.383,568.707 453.69,566.44C450.82,565.77 449.31,565.79 446.84,567.62C441.2,571.78 434.76,574.99 429.15,581.25C426.79,583.883 425.173,585.54 424.3,586.22C414.36,594.03 409.21,603.5 404.71,615.05C404.695,615.09 404.687,615.133 404.687,615.176C404.687,615.333 404.79,615.473 404.94,615.52L433.49,624.21C434.027,624.375 434.606,624.081 434.79,623.55C436.97,617.19 439.99,609.27 442.92,604.1C445.04,600.373 447.977,597.363 451.73,595.07C452.034,594.884 452.384,594.786 452.741,594.786C453.53,594.786 454.245,595.268 454.54,596L454.67,596.33C455.235,597.732 454.679,599.354 453.37,600.12C450.29,601.92 447.943,604.313 446.33,607.3C443.42,612.68 440.55,620.17 438.2,625.66C437.787,626.62 436.877,627.427 435.47,628.08C435.159,628.229 434.909,628.479 434.76,628.79C429.267,640.277 425.597,651.343 423.75,661.99C423.123,665.617 422.19,672.073 420.95,681.36C420.911,681.678 420.771,681.973 420.55,682.2L420.24,682.52L417.33,682.36C418.223,670.567 419.223,662.137 420.33,657.07C422.483,647.17 425.747,637.43 430.12,627.85C430.125,627.84 430.129,627.829 430.133,627.819C430.249,627.528 430.109,627.196 429.824,627.082C429.813,627.078 429.801,627.074 429.79,627.07L409.68,620.4C409.447,620.328 409.196,620.458 409.12,620.69C406.52,628.77 404.077,636.883 401.79,645.03C398.42,657 400.27,669.7 401.14,682.13C400.053,682.79 399.077,682.807 398.21,682.18C397.902,681.967 397.716,681.617 397.71,681.24C397.65,678.9 397.5,677.527 397.26,677.12C397.205,677.022 397.102,676.962 396.99,676.962C396.824,676.962 396.686,677.095 396.68,677.26L396.32,681.94C396.294,682.293 395.979,682.563 395.62,682.54L394.11,682.46C393.776,682.445 393.505,682.174 393.49,681.84C393.27,677.347 394.14,673.177 396.1,669.33C396.387,668.769 396.505,668.133 396.44,667.5C394.7,651.3 399.95,634.92 405.47,619.86C405.625,619.432 405.405,618.952 404.98,618.79L402.39,617.82C401.69,617.554 401.303,616.792 401.5,616.07C405.193,602.637 412.1,591.83 422.22,583.65C422.786,583.197 423.311,582.699 423.79,582.16C428.29,577.133 431.51,573.977 433.45,572.69C436.943,570.383 441.263,567.507 446.41,564.06C446.729,563.848 447.071,563.676 447.43,563.55C450.16,562.64 453.97,562.93 456.24,561.35C458.2,559.99 460.38,558.897 462.78,558.07C463.049,557.977 463.231,557.722 463.231,557.437C463.231,557.319 463.199,557.202 463.14,557.1C460.807,552.987 459.147,548.557 458.16,543.81C456.633,536.45 455.357,530.513 454.33,526C454.283,525.78 454.092,525.614 453.86,525.59C453.307,525.537 452.79,525.733 452.31,526.18C452.294,526.194 452.278,526.207 452.26,526.219C452.047,526.365 451.755,526.314 451.612,526.105C451.6,526.088 451.589,526.069 451.58,526.05C451.173,525.237 450.95,524.207 450.91,522.96C450.903,522.603 450.607,522.313 450.25,522.313C450.073,522.313 449.904,522.384 449.78,522.51L448.68,523.61C448.545,523.746 448.361,523.823 448.169,523.823C447.821,523.823 447.521,523.572 447.46,523.23C447.093,521.303 447.153,519.633 447.64,518.22C447.656,518.172 447.665,518.121 447.665,518.07C447.665,517.812 447.452,517.6 447.195,517.6C447.19,517.6 447.185,517.6 447.18,517.6C446.9,517.613 446.563,517.917 446.17,518.51C445.975,518.802 445.628,518.958 445.28,518.91C441.4,518.37 444.09,513.52 445.12,511.45C445.277,511.124 445.222,510.729 444.98,510.45C440.6,505.57 432.95,501.9 428.68,496.9C422.61,489.78 417.68,478.28 423.81,469.69C424.005,469.42 424.057,469.073 423.95,468.76C420.32,458.02 418.8,448.95 420.86,437.84C420.865,437.815 420.867,437.79 420.867,437.765C420.867,437.551 420.691,437.375 420.477,437.375C420.441,437.375 420.405,437.38 420.37,437.39C419.77,437.55 419.09,438.35 418.24,438.53C413.89,439.43 415.71,432.71 416.53,430.45C418.723,424.303 421.627,418.863 425.24,414.13C425.274,414.082 425.293,414.025 425.293,413.967C425.293,413.813 425.166,413.687 425.013,413.687C424.966,413.687 424.921,413.698 424.88,413.72C423.553,414.513 421.88,415.65 419.86,417.13C418.67,418.01 416.32,418.86 415.77,417.02C413.68,410.01 433.14,400.08 437.93,398.2C438.089,398.136 438.194,397.981 438.194,397.81C438.194,397.676 438.129,397.549 438.02,397.47C436.33,396.29 432.99,396.13 429.12,395.64C428.12,395.513 427.43,395.1 427.05,394.4C426.599,393.536 426.994,392.394 427.95,391.8C431.19,389.79 436.43,390.23 440.19,390.95C440.21,390.954 440.23,390.956 440.25,390.956C440.409,390.956 440.54,390.825 440.54,390.666C440.54,390.63 440.533,390.594 440.52,390.56C439.59,388.02 438.84,383.81 440.19,381.14C441.61,378.33 443.96,379.52 444.8,381.98C445.633,384.407 446.46,386.973 447.28,389.68C447.34,389.864 447.514,389.99 447.708,389.99C447.886,389.99 448.049,389.884 448.12,389.72C453,378.39 464.15,370.73 475.96,368.15C477.847,367.737 479.717,367.367 481.57,367.04C482.219,366.927 482.841,366.704 483.41,366.38C492.6,361.1 502.12,359.31 513.03,359.63C521.62,359.88 525.5,360.01 531.85,359.06C535.56,358.5 541.78,356.79 542.08,361.32C542.207,363.3 541.113,365.257 538.8,367.19C538.735,367.241 538.697,367.319 538.697,367.402C538.697,367.55 538.819,367.672 538.967,367.672C538.978,367.672 538.989,367.671 539,367.67C548.453,366.75 558.037,366.403 567.75,366.63C570.683,366.697 573.013,367.117 574.74,367.89C575.041,368.021 575.297,368.232 575.48,368.5C577.78,371.82 573.05,375.12 570.37,376.29C570.313,376.316 570.261,376.353 570.218,376.398C570.036,376.589 570.041,376.892 570.227,377.07C570.274,377.114 570.329,377.148 570.39,377.17C571.643,377.63 572.773,378.133 573.78,378.68C583.34,383.86 588.617,386.603 589.61,386.91C592.843,387.903 597.543,389.53 603.71,391.79C606.88,392.96 611.51,395.08 611.94,398.85C612.53,403.93 604.7,406.88 600.93,406.72C600.923,406.72 600.916,406.719 600.909,406.719C600.706,406.719 600.539,406.886 600.539,407.089C600.539,407.173 600.568,407.254 600.62,407.32C601.9,408.96 611.29,419.28 607.3,422.31C607.025,422.513 606.704,422.641 606.37,422.68C604.49,422.9 602.927,422.347 601.68,421.02C601.603,420.942 601.498,420.898 601.388,420.898C601.163,420.898 600.978,421.083 600.978,421.308C600.978,421.353 600.986,421.397 601,421.44C603.693,429.113 603.23,436.63 599.61,443.99C599.58,444.052 599.564,444.121 599.564,444.19C599.564,444.442 599.772,444.65 600.024,444.65C600.026,444.65 600.028,444.65 600.03,444.65C607.99,444.46 614.21,445.51 619.62,451.92C625.567,458.98 628.7,467.1 629.02,476.28C629.09,478.29 628.46,480.04 627.19,481.74C625.363,484.173 623.693,486.543 622.18,488.85C617.86,495.43 613.45,498.94 606.25,500.99C605.788,501.121 605.462,501.54 605.45,502.02C605.28,507.84 603.26,514.98 598.01,518.31C590.92,522.79 582.53,524.19 573.95,524.51C573.639,524.52 573.389,524.779 573.389,525.09C573.389,525.127 573.393,525.164 573.4,525.2C573.8,527.207 573.827,529.183 573.48,531.13C573.366,531.761 572.812,532.224 572.171,532.224C571.697,532.224 571.257,531.97 571.02,531.56L570.52,530.68C570.402,530.488 570.192,530.37 569.966,530.37C569.61,530.37 569.316,530.664 569.316,531.02C569.316,531.044 569.318,531.067 569.32,531.09C569.72,534.03 569.453,536.48 568.52,538.44C568.25,539.007 567.676,539.37 567.048,539.37C566.741,539.37 566.44,539.283 566.18,539.12C566.013,539.02 565.877,538.947 565.77,538.9C565.759,538.895 565.747,538.891 565.735,538.887C565.558,538.83 565.366,538.925 565.311,539.097C565.306,539.111 565.303,539.125 565.3,539.14L563.56,548.18C563.502,548.497 563.337,548.789 563.09,549.01C562.31,549.703 561.533,549.52 560.76,548.46C560.687,548.355 560.567,548.292 560.439,548.292C560.283,548.292 560.141,548.386 560.08,548.53C560.067,548.57 559.9,549.51 559.58,551.35C559.333,552.81 558.533,554.233 557.18,555.62C557.177,555.623 557.174,555.626 557.172,555.629C556.94,555.863 556.554,555.861 556.316,555.626C556.314,555.624 556.312,555.622 556.31,555.62C555.843,555.14 555.62,554.52 555.64,553.76C555.64,553.652 555.592,553.553 555.51,553.49C555.323,553.337 555.113,553.287 554.88,553.34C554.773,553.367 554.703,553.463 554.67,553.63C554.03,557.123 552.63,560.843 550.47,564.79C550.439,564.845 550.405,564.898 550.367,564.949C549.916,565.55 549.053,565.676 548.457,565.228C548.405,565.189 548.356,565.146 548.31,565.1L547.1,563.89C547.02,563.811 546.911,563.767 546.799,563.767C546.599,563.767 546.425,563.906 546.38,564.1C545.82,566.6 544.953,568.643 543.78,570.23C543.452,570.673 542.932,570.935 542.381,570.935C541.564,570.935 540.851,570.359 540.68,569.56L540.43,568.4C540.375,568.149 540.15,567.969 539.893,567.969C539.666,567.969 539.462,568.109 539.38,568.32C538.493,570.66 537.333,572.603 535.9,574.15C535.793,574.265 535.671,574.367 535.536,574.453C534.83,574.907 533.951,574.817 533.59,574.253C533.521,574.147 533.474,574.028 533.45,573.9C533.403,573.64 533.213,573.383 532.88,573.13C532.771,573.044 532.636,572.997 532.497,572.997C532.282,572.997 532.083,573.108 531.97,573.29L530.46,575.76C530.215,576.157 529.904,576.509 529.54,576.8C529.347,576.947 529.087,577.087 528.76,577.22C528.653,577.262 528.541,577.294 528.427,577.314C527.557,577.466 526.723,576.915 526.579,576.093C526.561,575.987 526.554,575.878 526.56,575.77C526.587,575.35 526.797,574.647 527.19,573.66C527.211,573.605 527.22,573.546 527.218,573.487C527.207,573.251 527.009,573.065 526.779,573.075C526.72,573.078 526.663,573.093 526.61,573.12L524.22,574.37C524.068,574.449 523.906,574.504 523.74,574.53C517.287,575.637 510.943,575.63 504.71,574.51C503.908,574.367 503.082,574.629 502.5,575.21L494.98,582.72C494.607,583.1 494.503,583.673 494.72,584.16C496.073,587.127 496.78,589.907 496.84,592.5C497.2,607.707 499.027,622.953 502.32,638.24C503.22,642.4 499.15,643.91 495.93,644.68C495.662,644.74 495.482,644.998 495.52,645.27C496.427,651.77 497.66,658.187 499.22,664.52C501.84,675.147 503.23,680.867 503.39,681.68C503.453,681.975 503.272,682.272 502.98,682.35C501.96,682.63 500.987,682.593 500.06,682.24ZM503.788,365.528C503.788,365.528 503.788,365.528 503.788,365.528C503.693,365.111 500.393,365.5 496.477,366.389C492.562,367.279 489.417,368.354 489.512,368.772C489.512,368.772 489.512,368.772 489.512,368.772C489.607,369.189 492.907,368.8 496.823,367.911C500.738,367.021 503.883,365.946 503.788,365.528ZM458.25,383.78L472.21,374.72C472.223,374.711 472.228,374.694 472.22,374.68C472.22,374.68 472.19,374.64 472.19,374.64C471.807,374.051 468.404,375.572 464.65,378.01L464.33,378.21C464.329,378.211 464.328,378.212 464.326,378.212C460.572,380.65 457.798,383.141 458.18,383.73L458.21,383.77C458.219,383.783 458.236,383.788 458.25,383.78ZM596.07,394.42L605.07,397.93C605.073,397.932 605.077,397.933 605.081,397.933C605.09,397.933 605.097,397.928 605.1,397.92L605.17,397.73C605.313,397.317 603.481,396.218 601.1,395.29L600.79,395.16C598.399,394.228 596.301,393.798 596.141,394.206C596.141,394.207 596.14,394.209 596.14,394.21L596.06,394.39C596.058,394.393 596.057,394.397 596.057,394.401C596.057,394.41 596.062,394.417 596.07,394.42ZM494.67,415.88C483.87,422.2 473.81,427.21 461.46,428.95C461.359,428.966 461.283,429.055 461.283,429.157C461.283,429.193 461.292,429.229 461.31,429.26C464.717,435.693 467.437,442.78 469.47,450.52C470.537,454.593 468.583,456.373 463.61,455.86C463.6,455.859 463.589,455.859 463.579,455.859C463.392,455.859 463.239,456.012 463.239,456.199C463.239,456.209 463.239,456.22 463.24,456.23L463.89,462.63C463.911,462.848 464.096,463.016 464.31,463.01C471.483,462.817 477.907,462.543 483.58,462.19C486.02,462.03 486.22,459.03 488.84,458.48C489.734,458.289 490.57,457.888 491.28,457.31C497.16,452.52 501.76,449.2 508.34,447.59C513.173,446.397 518.323,445.72 523.79,445.56C534.93,445.22 543.49,448.54 549.99,457.41C550.268,457.785 550.748,457.956 551.2,457.84C556.44,456.49 560.31,456.83 567.39,456.94C567.957,456.946 568.515,456.779 568.99,456.46C576.89,451.107 585.45,447.443 594.67,445.47C594.672,445.469 594.674,445.469 594.677,445.468C594.792,445.432 594.858,445.312 594.824,445.202C594.823,445.198 594.822,445.194 594.82,445.19C591.7,436.337 588.643,428.393 585.65,421.36C583.89,417.23 582.68,413.85 579.84,411.68C574.06,407.28 566.037,401.97 555.77,395.75C555.38,395.516 554.882,395.552 554.53,395.84L551.53,398.28C551.477,398.32 551.42,398.36 551.36,398.4L531.1,410C530.308,410.456 529.287,410.224 528.77,409.47C527.763,407.983 527.463,406.433 527.87,404.82C527.878,404.788 527.882,404.755 527.882,404.722C527.882,404.503 527.702,404.322 527.482,404.322C527.386,404.322 527.293,404.357 527.22,404.42C524.333,406.94 521.373,409.26 518.34,411.38C511.03,416.47 503.39,421.61 494.68,420.29C494.639,420.284 494.598,420.275 494.558,420.265C493.807,420.08 493.341,419.313 493.525,418.568C493.535,418.528 493.547,418.489 493.56,418.45C493.86,417.55 494.287,416.763 494.84,416.09C494.857,416.066 494.866,416.038 494.866,416.008C494.866,415.931 494.803,415.868 494.726,415.868C494.707,415.868 494.688,415.872 494.67,415.88ZM599.32,448.51C598.46,448.39 597.497,448.523 596.43,448.91C590.697,450.543 585.13,452.65 579.73,455.23C577.857,456.123 576.03,457.27 574.25,458.67C574.002,458.859 573.815,459.116 573.71,459.41C573.483,460.03 573.373,460.493 573.38,460.8C573.38,460.85 573.378,460.901 573.374,460.951C573.3,461.82 572.532,462.475 571.674,462.401C571.622,462.397 571.571,462.39 571.52,462.38C569.767,462.047 568.45,462.477 567.57,463.67C564.11,468.36 562.96,474.01 564.21,479.89C565.81,487.43 573.27,493.42 580.19,496.33C587.59,499.437 595.133,500.12 602.82,498.38C604.08,498.38 605.137,498.077 605.99,497.47C612.17,495.45 615.94,492.1 619.75,486.47C622.063,483.05 623.897,480.573 625.25,479.04C625.537,478.721 625.725,478.324 625.79,477.9C626.79,471.54 622.65,462.11 619.23,456.75C614.683,449.617 608.047,446.87 599.32,448.51ZM548.97,464.11C548.783,464.15 548.567,464.273 548.32,464.48C547.967,464.787 547.567,464.86 547.12,464.7C545.68,464.193 544.947,463.177 544.92,461.65C544.907,461.302 545.072,460.967 545.36,460.76L546.46,459.96C546.471,459.952 546.482,459.944 546.493,459.935C546.898,459.615 546.965,459.016 546.642,458.607C546.635,458.598 546.628,458.589 546.62,458.58C537.54,447.9 522.97,448.26 510.52,451.55C503.47,453.41 497.92,457.55 492.87,462.94C492.797,463.013 492.713,463.074 492.62,463.12L489.75,464.55C489.526,464.662 489.331,464.822 489.18,465.02C488.613,465.753 488.203,466.837 487.95,468.27C486.02,479.18 490.86,488.36 499.54,494.72C509.287,501.853 520.123,504.667 532.05,503.16C544.02,501.65 553.71,495.25 553.9,482.24C553.993,476.073 552.69,470.193 549.99,464.6C549.808,464.226 549.386,464.023 548.97,464.11ZM443.7,474.67C444.2,476.08 444.69,479.34 442.96,480.19C442.387,480.47 441.687,480.493 440.86,480.26C440.147,479.573 439.597,478.167 439.21,476.04C438.837,473.98 437.363,471.887 434.79,469.76C434.301,469.361 433.678,469.154 433.04,469.18C423.85,469.59 423.14,478.69 425.8,485.45C427.76,490.43 430.933,494.58 435.32,497.9C439.327,500.933 443.163,504.107 446.83,507.42L455.32,517.9C457.467,523.3 459.04,528.91 460.04,534.73L461.64,543.05C461.753,543.037 461.863,543.023 461.97,543.01C461.91,543.717 462.02,544.397 462.3,545.05C462.6,546.37 463.2,547.53 464.1,548.53C464.533,551.637 465.67,553.957 467.51,555.49C469.163,556.863 472.247,558.787 476.76,561.26L479,562.81C478.7,563.67 479.197,564.417 480.49,565.05C480.837,565.997 481.497,566.56 482.47,566.74C482.717,566.96 482.99,567.097 483.29,567.15L499.67,569.15C501.39,569.183 503.08,569.517 504.74,570.15C505.38,570.47 506.14,570.653 507.02,570.7L511.71,571.07L520.23,570.59C522.063,570.637 523.723,570.203 525.21,569.29C526.483,569.057 527.52,568.567 528.32,567.82L531.78,566.47C531.927,566.31 532.053,566.233 532.16,566.24C536.12,565.18 539.29,563.123 541.67,560.07C541.926,559.741 542.252,559.481 542.62,559.31C544.72,558.323 546.38,556.84 547.6,554.86C547.927,554.333 548.383,553.803 548.97,553.27C549.197,553.063 549.647,552.52 550.32,551.64C554.24,546.573 557.33,541.093 559.59,535.2L563.97,525.08C563.277,524.08 562.91,523.2 562.87,522.44C562.868,522.401 562.866,522.361 562.866,522.321C562.866,521.246 563.751,520.361 564.826,520.361C564.972,520.361 565.118,520.378 565.26,520.41C567.853,520.99 570.43,521.147 572.99,520.88C578.443,521.027 584.463,520.077 591.05,518.03C598.29,515.77 602.043,510.6 602.31,502.52C602.31,502.515 602.31,502.509 602.31,502.504C602.31,502.268 602.116,502.074 601.88,502.074C601.857,502.074 601.833,502.076 601.81,502.08C593.337,503.527 585.493,502.767 578.28,499.8C569.733,496.287 563.927,491.093 560.86,484.22C557.667,477.053 558.547,469.31 563.5,460.99C563.544,460.913 563.567,460.826 563.567,460.738C563.567,460.475 563.362,460.252 563.1,460.23C559.8,460.003 556.527,460.37 553.28,461.33C552.97,461.421 552.756,461.707 552.756,462.03C552.756,462.141 552.781,462.25 552.83,462.35C556.063,468.897 557.537,476.027 557.25,483.74C556.45,505.58 531.2,509.66 514.47,505.93C502.97,503.36 489.33,495.14 484.77,484.07C482.663,478.95 482.073,473.577 483,467.95C483.006,467.914 483.009,467.877 483.009,467.84C483.009,467.458 482.701,467.141 482.32,467.13C479.3,467.057 475.027,466.913 469.5,466.7C460.6,466.36 450.8,466.95 440.1,468.47C439.891,468.496 439.732,468.676 439.732,468.887C439.732,468.974 439.76,469.059 439.81,469.13L443.7,474.67ZM498.58,574.01C498.728,573.894 498.815,573.717 498.815,573.529C498.815,573.208 498.561,572.939 498.24,572.92L483.68,572.16C483.587,572.154 483.493,572.137 483.4,572.11C478.94,570.72 476.87,568.09 472.65,564.07C471.41,562.897 469.587,561.687 467.18,560.44C466.551,560.119 465.799,560.134 465.18,560.48L459.82,563.51C459.672,563.588 459.579,563.742 459.579,563.909C459.579,564.107 459.71,564.283 459.9,564.34C468.273,567 474.973,571.963 480,579.23C482.18,582.4 481.33,587.68 481.28,592.96C481.28,592.965 481.28,592.97 481.28,592.975C481.28,593.37 481.605,593.695 482,593.695C482.111,593.695 482.221,593.669 482.32,593.62C485.8,591.91 487.38,589.27 489.04,585.58C491.13,580.94 494.51,577.09 498.58,574.01ZM493.81,595.77C493.81,595.767 493.81,595.764 493.81,595.761C493.81,595.618 493.693,595.501 493.55,595.501C493.454,595.501 493.365,595.555 493.32,595.64L486.91,606.76C486.554,607.361 486.417,608.068 486.52,608.76C488.03,619.15 486.29,630.49 487.88,641.5C487.955,642.002 488.391,642.378 488.899,642.378C488.963,642.378 489.027,642.372 489.09,642.36L497.89,640.69C497.903,640.688 497.916,640.685 497.929,640.682C498.815,640.494 499.387,639.606 499.198,638.715C499.195,638.704 499.193,638.692 499.19,638.68C495.737,624.14 493.943,609.837 493.81,595.77Z" style="fill-rule:nonzero;"/>
        <g transform="matrix(0.975149,-0.221548,0.221548,0.975149,496.65,367.15)">
            <ellipse cx="0" cy="0" rx="7.32" ry="0.78" style="fill:rgb(122,127,112);"/>
        </g>
        <path d="M458.25,383.78C458.236,383.788 458.219,383.783 458.21,383.77L458.18,383.73C457.798,383.141 460.572,380.65 464.326,378.212C464.328,378.212 464.329,378.211 464.33,378.21L464.65,378.01C468.404,375.572 471.807,374.051 472.19,374.64C472.19,374.64 472.22,374.68 472.22,374.68C472.228,374.694 472.223,374.711 472.21,374.72L458.25,383.78Z" style="fill:rgb(122,127,112);fill-rule:nonzero;"/>
        <path d="M596.07,394.42C596.062,394.417 596.057,394.41 596.057,394.401C596.057,394.397 596.058,394.393 596.06,394.39L596.14,394.21C596.14,394.209 596.141,394.207 596.141,394.206C596.301,393.798 598.399,394.228 600.79,395.16L601.1,395.29C603.481,396.218 605.313,397.317 605.17,397.73L605.1,397.92C605.097,397.928 605.09,397.933 605.081,397.933C605.077,397.933 605.073,397.932 605.07,397.93L596.07,394.42Z" style="fill:rgb(122,127,112);fill-rule:nonzero;"/>
        <path d="M494.84,416.09C494.287,416.763 493.86,417.55 493.56,418.45C493.547,418.489 493.535,418.528 493.525,418.568C493.341,419.313 493.807,420.08 494.558,420.265C494.598,420.275 494.639,420.284 494.68,420.29C503.39,421.61 511.03,416.47 518.34,411.38C521.373,409.26 524.333,406.94 527.22,404.42C527.293,404.357 527.386,404.322 527.482,404.322C527.702,404.322 527.882,404.503 527.882,404.722C527.882,404.755 527.878,404.788 527.87,404.82C527.463,406.433 527.763,407.983 528.77,409.47C529.287,410.224 530.308,410.456 531.1,410L551.36,398.4C551.42,398.36 551.477,398.32 551.53,398.28L554.53,395.84C554.882,395.552 555.38,395.516 555.77,395.75C566.037,401.97 574.06,407.28 579.84,411.68C582.68,413.85 583.89,417.23 585.65,421.36C588.643,428.393 591.7,436.337 594.82,445.19C594.822,445.194 594.823,445.198 594.824,445.202C594.858,445.312 594.792,445.432 594.677,445.468C594.674,445.469 594.672,445.469 594.67,445.47C585.45,447.443 576.89,451.107 568.99,456.46C568.515,456.779 567.957,456.946 567.39,456.94C560.31,456.83 556.44,456.49 551.2,457.84C550.748,457.956 550.268,457.785 549.99,457.41C543.49,448.54 534.93,445.22 523.79,445.56C518.323,445.72 513.173,446.397 508.34,447.59C501.76,449.2 497.16,452.52 491.28,457.31C490.57,457.888 489.734,458.289 488.84,458.48C486.22,459.03 486.02,462.03 483.58,462.19C477.907,462.543 471.483,462.817 464.31,463.01C464.096,463.016 463.911,462.848 463.89,462.63L463.24,456.23C463.239,456.22 463.239,456.209 463.239,456.199C463.239,456.012 463.392,455.859 463.579,455.859C463.589,455.859 463.6,455.859 463.61,455.86C468.583,456.373 470.537,454.593 469.47,450.52C467.437,442.78 464.717,435.693 461.31,429.26C461.292,429.229 461.283,429.193 461.283,429.157C461.283,429.055 461.359,428.966 461.46,428.95C473.81,427.21 483.87,422.2 494.67,415.88C494.688,415.872 494.707,415.868 494.726,415.868C494.803,415.868 494.866,415.931 494.866,416.008C494.866,416.038 494.857,416.066 494.84,416.09Z" style="fill:rgb(253,253,253);fill-rule:nonzero;"/>
        <path d="M605.99,497.47C606.21,495.49 606.69,493.35 606.72,491.55C606.813,485.357 606.95,480.607 607.13,477.3C607.38,472.55 606.39,469.09 604.94,464.05C603.233,458.143 601.36,452.963 599.32,448.51C608.047,446.87 614.683,449.617 619.23,456.75C622.65,462.11 626.79,471.54 625.79,477.9C625.725,478.324 625.537,478.721 625.25,479.04C623.897,480.573 622.063,483.05 619.75,486.47C615.94,492.1 612.17,495.45 605.99,497.47Z" style="fill:white;fill-opacity:0.56;fill-rule:nonzero;"/>
        <path d="M599.32,448.51C601.36,452.963 603.233,458.143 604.94,464.05C606.39,469.09 607.38,472.55 607.13,477.3C606.95,480.607 606.813,485.357 606.72,491.55C606.69,493.35 606.21,495.49 605.99,497.47C605.137,498.077 604.08,498.38 602.82,498.38C602.993,490.86 603.32,483.417 603.8,476.05C603.96,473.663 603.83,471.683 603.41,470.11C601.817,464.13 599.49,457.063 596.43,448.91C597.497,448.523 598.46,448.39 599.32,448.51Z" style="fill:rgb(122,127,112);fill-rule:nonzero;"/>
        <path d="M596.43,448.91C599.49,457.063 601.817,464.13 603.41,470.11C603.83,471.683 603.96,473.663 603.8,476.05C603.32,483.417 602.993,490.86 602.82,498.38C595.133,500.12 587.59,499.437 580.19,496.33C573.27,493.42 565.81,487.43 564.21,479.89C562.96,474.01 564.11,468.36 567.57,463.67C568.45,462.477 569.767,462.047 571.52,462.38C571.571,462.39 571.622,462.397 571.674,462.401C572.532,462.475 573.3,461.82 573.374,460.951C573.378,460.901 573.38,460.85 573.38,460.8C573.373,460.493 573.483,460.03 573.71,459.41C573.815,459.116 574.002,458.859 574.25,458.67C576.03,457.27 577.857,456.123 579.73,455.23C585.13,452.65 590.697,450.543 596.43,448.91ZM590.61,466.19L585.15,468.08C584.303,468.374 583.732,469.177 583.732,470.073C583.732,470.311 583.772,470.546 583.85,470.77L584.43,472.44C585.356,475.11 588.049,476.639 590.4,475.83L591.27,475.53C591.272,475.529 591.275,475.528 591.277,475.528C593.629,474.713 594.804,471.844 593.88,469.17L593.3,467.5C593.009,466.648 592.203,466.073 591.304,466.073C591.067,466.073 590.833,466.112 590.61,466.19Z" style="fill:rgb(253,253,253);fill-rule:nonzero;"/>
        <path d="M549.99,464.6C552.69,470.193 553.993,476.073 553.9,482.24C553.71,495.25 544.02,501.65 532.05,503.16C520.123,504.667 509.287,501.853 499.54,494.72C490.86,488.36 486.02,479.18 487.95,468.27C488.203,466.837 488.613,465.753 489.18,465.02C489.331,464.822 489.526,464.662 489.75,464.55L492.62,463.12C492.713,463.074 492.797,463.013 492.87,462.94C497.92,457.55 503.47,453.41 510.52,451.55C522.97,448.26 537.54,447.9 546.62,458.58C546.628,458.589 546.635,458.598 546.642,458.607C546.965,459.016 546.898,459.615 546.493,459.935C546.482,459.944 546.471,459.952 546.46,459.96L545.36,460.76C545.072,460.967 544.907,461.302 544.92,461.65C544.947,463.177 545.68,464.193 547.12,464.7C547.567,464.86 547.967,464.787 548.32,464.48C548.567,464.273 548.783,464.15 548.97,464.11C549.386,464.023 549.808,464.226 549.99,464.6ZM522.05,472.13L519.72,468.92C519.696,468.887 519.671,468.855 519.645,468.823C518.986,468.023 517.781,467.911 516.977,468.574C516.947,468.598 516.918,468.624 516.89,468.65C514.837,470.577 513.81,472.89 513.81,475.59C513.82,480.6 523.2,479.4 522.47,473.21C522.424,472.817 522.279,472.445 522.05,472.13Z" style="fill:rgb(253,253,253);fill-rule:nonzero;"/>
        <path d="M572.99,520.88L566.85,520.23C566.838,520.229 566.825,520.227 566.813,520.226C566.068,520.126 565.536,519.436 565.635,518.696C565.636,518.684 565.638,518.672 565.64,518.66C565.913,516.933 565.437,515.43 564.21,514.15C563.96,513.894 563.655,513.702 563.32,513.59C562.127,513.197 560.467,513.593 558.34,514.78C557.673,515.154 556.854,514.989 556.5,514.41C555.78,513.243 554.253,513.307 551.92,514.6C551.107,515.045 550.081,514.816 549.54,514.07L548.65,512.84C548.283,512.34 547.661,512.091 547.05,512.2C545.91,512.4 545.317,512.13 545.27,511.39C544.96,506.64 537.43,509.47 534.9,510.79C534.651,510.924 534.359,510.953 534.09,510.87L531.97,510.23C531.588,510.111 531.185,510.077 530.79,510.13C527.77,510.523 525.067,511.4 522.68,512.76C522.369,512.935 521.992,512.943 521.68,512.78C521.253,512.567 520.857,512.073 520.49,511.3C520.354,511.001 520.042,510.817 519.71,510.84C516.95,511.013 515.083,511.35 514.11,511.85C511.39,513.257 509.68,513.983 508.98,514.03C506.107,514.223 503.39,515.13 500.83,516.75C500.476,516.976 500.01,516.939 499.69,516.66C497.99,515.14 495.777,514.93 493.05,516.03C489.223,517.577 486.14,519.56 483.8,521.98C480.9,524.98 477.19,526.07 474.87,529.42C474.8,529.521 474.713,529.61 474.614,529.684C474.115,530.052 473.399,529.94 473.028,529.437C472.955,529.337 472.898,529.227 472.86,529.11C472.647,528.457 472.297,528.007 471.81,527.76C471.537,527.627 471.057,527.777 470.37,528.21C469.763,528.59 469.187,528.813 468.64,528.88C468.623,528.882 468.605,528.883 468.588,528.883C468.358,528.883 468.168,528.694 468.168,528.463C468.168,528.4 468.182,528.337 468.21,528.28C469.37,525.947 470.413,523.62 471.34,521.3C471.813,520.12 471.827,519.01 471.38,517.97C471.336,517.866 471.28,517.768 471.212,517.678C470.725,517.028 469.746,516.928 469.044,517.455C468.948,517.527 468.859,517.609 468.78,517.7C468.633,517.873 468.513,517.96 468.42,517.96C468.401,517.959 468.383,517.957 468.365,517.954C468.193,517.919 468.079,517.753 468.113,517.586C468.117,517.567 468.122,517.548 468.13,517.53L470.5,511.3C470.936,510.177 470.484,508.89 469.44,508.28L469.2,508.14C469.132,508.099 469.062,508.063 468.99,508.032C468.088,507.642 467.028,508.059 466.64,508.955C466.608,509.028 466.582,509.103 466.56,509.18L464.25,517.39C464.226,517.477 464.154,517.546 464.06,517.57L464.06,517.56C463.962,517.546 463.887,517.461 463.887,517.362C463.887,517.351 463.888,517.341 463.89,517.33C464.45,513.337 465.56,509.293 467.22,505.2C467.74,503.913 467.397,502.82 466.19,501.92C465.92,501.718 465.56,501.683 465.26,501.83C464.72,502.09 463.177,502.677 460.63,503.59C459.343,504.043 457.04,505.723 453.72,508.63C453.706,508.642 453.687,508.646 453.67,508.64L453.28,508.52C453.255,508.513 453.231,508.502 453.209,508.489C453.069,508.403 453.026,508.213 453.115,508.068C453.128,508.047 453.143,508.027 453.16,508.01C456.227,504.943 459.803,502.413 463.89,500.42C464.823,499.967 465.307,499.023 465.34,497.59C465.347,497.284 465.159,497.003 464.87,496.89C463.703,496.45 463.16,495.71 463.24,494.67C463.245,494.608 463.246,494.546 463.244,494.484C463.216,493.541 462.44,492.787 461.524,492.814C461.462,492.816 461.401,492.821 461.34,492.83C457.48,493.36 452.18,496.9 448.67,499C448.611,499.038 448.542,499.058 448.472,499.058C448.269,499.058 448.102,498.891 448.102,498.688C448.102,498.605 448.129,498.525 448.18,498.46C451.593,493.833 456.083,490.397 461.65,488.15C462.827,487.671 463.405,486.313 462.93,485.14L462.89,485.06C462.399,483.845 461.046,483.202 459.8,483.59C456.66,484.55 453.723,486.043 450.99,488.07C450.945,488.104 450.89,488.123 450.833,488.123C450.69,488.123 450.573,488.006 450.573,487.863C450.573,487.831 450.579,487.8 450.59,487.77L450.71,487.44C450.729,487.388 450.765,487.346 450.81,487.32L458.45,481.92C458.852,481.633 459.052,481.133 458.96,480.64C458.02,475.91 453.39,479.22 450.66,480.73C450.59,480.764 450.507,480.742 450.47,480.68L450.46,480.68C450.448,480.606 450.474,480.53 450.53,480.48L453.63,477.51C453.927,477.222 453.969,476.757 453.73,476.42L452.68,474.98C452.444,474.652 452.448,474.208 452.69,473.89C453.837,472.377 453.487,471.037 451.64,469.87C451.373,469.706 451.047,469.669 450.75,469.77C448.017,470.69 445.667,472.323 443.7,474.67L439.81,469.13C439.76,469.059 439.732,468.974 439.732,468.887C439.732,468.676 439.891,468.496 440.1,468.47C450.8,466.95 460.6,466.36 469.5,466.7C475.027,466.913 479.3,467.057 482.32,467.13C482.701,467.141 483.009,467.458 483.009,467.84C483.009,467.877 483.006,467.914 483,467.95C482.073,473.577 482.663,478.95 484.77,484.07C489.33,495.14 502.97,503.36 514.47,505.93C531.2,509.66 556.45,505.58 557.25,483.74C557.537,476.027 556.063,468.897 552.83,462.35C552.781,462.25 552.756,462.141 552.756,462.03C552.756,461.707 552.97,461.421 553.28,461.33C556.527,460.37 559.8,460.003 563.1,460.23C563.362,460.252 563.567,460.475 563.567,460.738C563.567,460.826 563.544,460.913 563.5,460.99C558.547,469.31 557.667,477.053 560.86,484.22C563.927,491.093 569.733,496.287 578.28,499.8C585.493,502.767 593.337,503.527 601.81,502.08C601.833,502.076 601.857,502.074 601.88,502.074C602.116,502.074 602.31,502.268 602.31,502.504C602.31,502.509 602.31,502.515 602.31,502.52C602.043,510.6 598.29,515.77 591.05,518.03C584.463,520.077 578.443,521.027 572.99,520.88Z" style="fill:rgb(253,253,253);fill-rule:nonzero;"/>
        <path d="M590.61,466.19C590.833,466.112 591.067,466.073 591.304,466.073C592.203,466.073 593.009,466.648 593.3,467.5L593.88,469.17C594.804,471.844 593.629,474.713 591.277,475.528C591.275,475.528 591.272,475.529 591.27,475.53L590.4,475.83C588.049,476.639 585.356,475.11 584.43,472.44L583.85,470.77C583.772,470.546 583.732,470.311 583.732,470.073C583.732,469.177 584.303,468.374 585.15,468.08L590.61,466.19Z" style="fill:rgb(122,127,112);fill-rule:nonzero;"/>
        <path d="M522.47,473.21C523.2,479.4 513.82,480.6 513.81,475.59C513.81,472.89 514.837,470.577 516.89,468.65C516.918,468.624 516.947,468.598 516.977,468.574C517.781,467.911 518.986,468.023 519.645,468.823C519.671,468.855 519.696,468.887 519.72,468.92L522.05,472.13C522.279,472.445 522.424,472.817 522.47,473.21ZM517.25,470.3C516.07,471.747 515.44,473.47 515.36,475.47C515.357,475.532 515.358,475.594 515.362,475.655C515.422,476.586 516.242,477.302 517.178,477.242C517.239,477.238 517.3,477.23 517.36,477.22L518.51,477.01C519.878,476.773 520.906,475.607 520.97,474.22C521.043,472.707 520.223,471.343 518.51,470.13C518.113,469.847 517.558,469.922 517.25,470.3Z" style="fill:rgb(47,47,45);fill-rule:nonzero;"/>
        <path d="M440.86,480.26C441.56,482.767 442.61,484.48 444.01,485.4C444.308,485.595 444.397,485.997 444.21,486.3C443.64,487.21 442.66,488.04 442.58,489.32C442.44,491.58 443.55,493.01 445.91,493.61C446.154,493.676 446.324,493.898 446.324,494.151C446.324,494.273 446.284,494.393 446.21,494.49C443.3,498.28 441.02,501.97 446.94,504.41C447.237,504.53 447.462,504.777 447.55,505.08C447.983,506.58 447.743,507.36 446.83,507.42C443.163,504.107 439.327,500.933 435.32,497.9C430.933,494.58 427.76,490.43 425.8,485.45C423.14,478.69 423.85,469.59 433.04,469.18C433.678,469.154 434.301,469.361 434.79,469.76C437.363,471.887 438.837,473.98 439.21,476.04C439.597,478.167 440.147,479.573 440.86,480.26ZM434.16,485.64C433.913,486.427 434.007,487.257 434.44,488.13C435.003,489.273 436.385,489.775 437.55,489.26L437.81,489.16C438.873,488.692 439.435,487.503 439.12,486.39C438.147,482.957 435.973,481.057 432.6,480.69C429.99,480.41 425.35,484.05 428.87,487.11C429.107,487.314 429.426,487.389 429.72,487.31C430.8,487.03 431.81,486.24 432.75,484.94C432.848,484.8 432.989,484.695 433.152,484.64C433.568,484.501 434.024,484.723 434.162,485.134C434.218,485.298 434.217,485.476 434.16,485.64Z" style="fill:rgb(253,253,253);fill-rule:nonzero;"/>
        <path d="M572.99,520.88C570.43,521.147 567.853,520.99 565.26,520.41C565.118,520.378 564.972,520.361 564.826,520.361C563.751,520.361 562.866,521.246 562.866,522.321C562.866,522.361 562.868,522.401 562.87,522.44C562.91,523.2 563.277,524.08 563.97,525.08C562.843,524.36 561.547,525.277 560.08,527.83C559.622,528.632 558.641,528.984 557.79,528.65L557.75,528.64C557.157,528.408 556.765,527.833 556.765,527.197C556.765,526.995 556.804,526.796 556.88,526.61C558.26,523.25 561.1,521.17 562.23,517.59C562.249,517.534 562.258,517.476 562.258,517.417C562.256,517.121 562.006,516.879 561.704,516.881C561.645,516.881 561.586,516.891 561.53,516.91C557.95,518.07 555.49,522.06 553.61,523.12C552.423,523.793 551.353,523.927 550.4,523.52C550.361,523.503 550.323,523.485 550.287,523.464C549.595,523.082 549.368,522.148 549.785,521.394C549.808,521.352 549.833,521.31 549.86,521.27C550.373,520.49 551.113,519.683 552.08,518.85C552.145,518.791 552.183,518.707 552.183,518.62C552.183,518.456 552.053,518.319 551.89,518.31C551.763,518.303 551.617,518.323 551.45,518.37C551.117,518.463 550.843,518.603 550.63,518.79C548.463,520.657 546.713,521.967 545.38,522.72C544.526,523.202 543.477,523.195 542.63,522.7L541.82,522.24C541.279,521.93 540.945,521.353 540.945,520.73C540.945,520.107 541.279,519.53 541.82,519.22L546.4,516.57C546.525,516.502 546.603,516.37 546.603,516.228C546.603,516.014 546.427,515.838 546.213,515.838C546.199,515.838 546.184,515.838 546.17,515.84C543.07,516.08 540.3,518.68 538.44,519.96C537.613,520.524 536.473,520.328 535.89,519.52L535.44,518.9C535.424,518.878 535.409,518.856 535.395,518.834C534.89,518.056 535.11,517.003 535.883,516.501C535.905,516.487 535.927,516.473 535.95,516.46L540.52,513.83C540.664,513.743 540.752,513.587 540.752,513.419C540.752,513.156 540.535,512.939 540.272,512.939C540.238,512.939 540.204,512.943 540.17,512.95C538.383,513.403 536.813,514.247 535.46,515.48C531.68,518.93 530.03,523.94 523.58,521.33C523.437,521.272 523.303,521.194 523.182,521.099C522.469,520.54 522.34,519.498 522.895,518.79C522.991,518.668 523.104,518.56 523.23,518.47L526.68,515.96C526.748,515.913 526.789,515.836 526.789,515.754C526.789,515.617 526.676,515.504 526.539,515.504C526.508,515.504 526.478,515.509 526.45,515.52C521.99,517.01 518.84,521.71 516.35,523.84C514.41,525.493 512.347,526.737 510.16,527.57C509.583,527.789 508.93,527.647 508.5,527.21C507.113,525.817 507.13,524.537 508.55,523.37C511.47,520.983 514.437,518.703 517.45,516.53C517.581,516.434 517.659,516.281 517.659,516.118C517.659,515.838 517.429,515.608 517.149,515.608C517.112,515.608 517.076,515.612 517.04,515.62C515.17,516.06 512.93,517.4 511.51,518.83C507.197,523.19 502.047,526.593 496.06,529.04C495.4,529.313 494.873,529.137 494.48,528.51C494.339,528.289 494.094,528.154 493.831,528.154C493.669,528.154 493.511,528.205 493.38,528.3L487.84,532.31C487.638,532.46 487.394,532.547 487.14,532.56L484.99,532.64C484.744,532.653 484.508,532.748 484.32,532.91C482.96,534.09 481.563,534.84 480.13,535.16C479.808,535.231 479.473,535.181 479.19,535.02L477.35,533.96C477.309,533.936 477.266,533.916 477.221,533.9C476.803,533.749 476.337,533.964 476.187,534.377C476.17,534.423 476.158,534.471 476.15,534.52L475.68,537.33C475.647,537.561 475.569,537.785 475.45,537.99C473.13,542.07 470.33,546.58 470.53,550.76C470.54,551.027 470.763,551.241 471.03,551.241C471.187,551.241 471.336,551.166 471.43,551.04C474.257,547.453 476.457,544.37 478.03,541.79C478.35,541.263 478.57,540.99 478.69,540.97C478.785,540.957 478.882,540.951 478.978,540.951C480.168,540.951 481.148,541.93 481.148,543.121C481.148,543.303 481.125,543.484 481.08,543.66L478.74,552.8C478.737,552.81 478.736,552.82 478.736,552.83C478.736,552.89 478.785,552.94 478.846,552.94C478.847,552.94 478.849,552.94 478.85,552.94L479.57,552.91C479.586,552.91 479.6,552.896 479.6,552.88C480.54,549.893 481.757,547.23 483.25,544.89C483.744,544.121 484.697,543.782 485.55,544.07C486.03,544.223 485.997,545.01 485.45,546.43C485.422,546.503 485.408,546.581 485.408,546.659C485.408,546.975 485.639,547.247 485.95,547.3L488.15,547.67C488.194,547.677 488.237,547.686 488.28,547.698C488.99,547.887 489.42,548.623 489.233,549.328C489.221,549.372 489.207,549.417 489.19,549.46L484.29,562.46C484.269,562.508 484.257,562.561 484.257,562.614C484.257,562.822 484.429,562.994 484.637,562.994C484.762,562.994 484.879,562.933 484.95,562.83C488.6,558.1 492.1,552.92 496.87,550.88C497.217,550.728 497.629,550.846 497.85,551.16C498.803,552.487 499.79,552.64 500.81,551.62C501.212,551.224 501.868,551.224 502.27,551.62C503.317,552.653 503.403,553.97 502.53,555.57C500.543,559.19 498.953,561.9 497.76,563.7C497.615,563.92 497.664,564.215 497.87,564.37L497.89,564.38C498.154,564.592 498.547,564.552 498.77,564.29C500.523,562.243 502.35,560.297 504.25,558.45C505.17,557.56 505.78,556.54 507.06,556.44C507.166,556.431 507.273,556.437 507.377,556.457C508.088,556.591 508.551,557.354 508.401,558.146C508.379,558.261 508.345,558.373 508.3,558.48C507.253,560.947 505.753,563.22 503.8,565.3C503.553,565.56 503.43,565.897 503.43,566.31C503.43,566.313 503.43,566.316 503.43,566.318C503.43,566.466 503.552,566.588 503.7,566.588C503.771,566.588 503.839,566.56 503.89,566.51C508.19,562.44 509.71,557.79 511.44,551.9C511.604,551.357 512.108,550.983 512.675,550.983C512.897,550.983 513.116,551.04 513.31,551.15L513.55,551.29C514.506,551.834 514.961,552.978 514.64,554.03L510.37,568.06C510.353,568.098 510.344,568.139 510.344,568.18C510.344,568.34 510.475,568.471 510.635,568.471C510.749,568.471 510.853,568.404 510.9,568.3C514.68,562.26 518.607,556.357 522.68,550.59C523.39,549.57 524.24,549.05 525.42,549.4C525.92,549.553 526.225,550.068 526.12,550.58C525.08,555.51 522.95,561.19 522.83,566.26C522.83,566.267 522.829,566.274 522.829,566.281C522.829,566.517 523.024,566.711 523.259,566.711C523.399,566.711 523.529,566.643 523.61,566.53C527.17,561.73 528.46,557.96 531.76,550.26C532.151,549.346 533.205,548.9 534.12,549.26C534.887,549.56 535.14,550.413 534.88,551.82C534.087,556.107 532.913,560.92 531.36,566.26C531.333,566.347 531.473,566.417 531.78,566.47L528.32,567.82C528.88,566.713 529.15,565.65 529.13,564.63C529.127,564.528 529.042,564.446 528.94,564.446C528.881,564.446 528.826,564.474 528.79,564.52L525.21,569.29C523.723,570.203 522.063,570.637 520.23,570.59C519.157,566.603 519.35,562.673 520.81,558.8C520.813,558.793 520.815,558.785 520.815,558.778C520.815,558.756 520.801,558.736 520.78,558.73L520.54,558.64C520.443,558.601 520.333,558.641 520.29,558.73C518.47,562.21 515.98,566.92 513.13,569.57C512.637,570.03 512.163,570.53 511.71,571.07L507.02,570.7C507.833,569.933 507.917,569.017 507.27,567.95C507.268,567.947 507.267,567.944 507.265,567.942C507.117,567.704 506.804,567.628 506.571,567.773C506.567,567.775 506.564,567.778 506.56,567.78C505.667,568.36 505.06,569.15 504.74,570.15C503.08,569.517 501.39,569.183 499.67,569.15L499.86,568.13C499.865,568.103 499.867,568.076 499.867,568.049C499.867,567.785 499.65,567.569 499.387,567.569C499.375,567.569 499.362,567.569 499.35,567.57C496.27,567.79 494.25,565.19 492.24,563.13C491.961,562.84 491.904,562.402 492.1,562.06L493.99,558.69C494.05,558.574 494.038,558.436 493.96,558.34L493.95,558.33C493.871,558.268 493.755,558.277 493.68,558.35C492.22,559.77 491.39,561.48 489.82,562.57C488.38,563.577 486.85,564.913 485.23,566.58C484.75,567.07 484.06,567.02 483.47,566.78C482.797,566.327 482.463,566.313 482.47,566.74C481.497,566.56 480.837,565.997 480.49,565.05C480.743,564.07 480.807,563.1 480.68,562.14C480.655,561.946 480.488,561.799 480.293,561.799C480.233,561.799 480.174,561.813 480.12,561.84C479.72,562.04 479.347,562.363 479,562.81L476.76,561.26C474.94,558.267 474.717,554.913 476.09,551.2C475.99,551.287 475.987,551.2 476.08,550.94C476.093,550.893 476.093,550.887 476.08,550.92C475.987,551.16 475.99,551.253 476.09,551.2L471.44,554.89C471.18,555.099 470.838,555.18 470.51,555.11C467.197,554.363 465.897,552.247 466.61,548.76C466.617,548.727 466.62,548.693 466.62,548.658C466.62,548.399 466.419,548.181 466.16,548.16C465.407,548.113 464.72,548.237 464.1,548.53C463.2,547.53 462.6,546.37 462.3,545.05C462.76,544.677 462.74,543.977 462.24,542.95L462.13,542.61C462.104,542.533 462.031,542.481 461.95,542.481C461.869,542.481 461.796,542.533 461.77,542.61C461.73,542.723 461.687,542.87 461.64,543.05L460.04,534.73L460.56,529.75C460.591,529.429 460.469,529.11 460.23,528.89C456.88,525.83 459.17,518.02 460.02,514.33C460.031,514.285 460.03,514.239 460.019,514.195C459.979,514.047 459.82,513.958 459.667,513.999C459.624,514.011 459.584,514.031 459.55,514.06L455.32,517.9L446.83,507.42C447.743,507.36 447.983,506.58 447.55,505.08C447.462,504.777 447.237,504.53 446.94,504.41C441.02,501.97 443.3,498.28 446.21,494.49C446.284,494.393 446.324,494.273 446.324,494.151C446.324,493.898 446.154,493.676 445.91,493.61C443.55,493.01 442.44,491.58 442.58,489.32C442.66,488.04 443.64,487.21 444.21,486.3C444.397,485.997 444.308,485.595 444.01,485.4C442.61,484.48 441.56,482.767 440.86,480.26C441.687,480.493 442.387,480.47 442.96,480.19C444.69,479.34 444.2,476.08 443.7,474.67C445.667,472.323 448.017,470.69 450.75,469.77C451.047,469.669 451.373,469.706 451.64,469.87C453.487,471.037 453.837,472.377 452.69,473.89C452.448,474.208 452.444,474.652 452.68,474.98L453.73,476.42C453.969,476.757 453.927,477.222 453.63,477.51L450.53,480.48C450.474,480.53 450.448,480.606 450.46,480.68L450.47,480.68C450.507,480.742 450.59,480.764 450.66,480.73C453.39,479.22 458.02,475.91 458.96,480.64C459.052,481.133 458.852,481.633 458.45,481.92L450.81,487.32C450.765,487.346 450.729,487.388 450.71,487.44L450.59,487.77C450.579,487.8 450.573,487.831 450.573,487.863C450.573,488.006 450.69,488.123 450.833,488.123C450.89,488.123 450.945,488.104 450.99,488.07C453.723,486.043 456.66,484.55 459.8,483.59C461.046,483.202 462.399,483.845 462.89,485.06L462.93,485.14C463.405,486.313 462.827,487.671 461.65,488.15C456.083,490.397 451.593,493.833 448.18,498.46C448.129,498.525 448.102,498.605 448.102,498.688C448.102,498.891 448.269,499.058 448.472,499.058C448.542,499.058 448.611,499.038 448.67,499C452.18,496.9 457.48,493.36 461.34,492.83C461.401,492.821 461.462,492.816 461.524,492.814C462.44,492.787 463.216,493.541 463.244,494.484C463.246,494.546 463.245,494.608 463.24,494.67C463.16,495.71 463.703,496.45 464.87,496.89C465.159,497.003 465.347,497.284 465.34,497.59C465.307,499.023 464.823,499.967 463.89,500.42C459.803,502.413 456.227,504.943 453.16,508.01C453.143,508.027 453.128,508.047 453.115,508.068C453.026,508.213 453.069,508.403 453.209,508.489C453.231,508.502 453.255,508.513 453.28,508.52L453.67,508.64C453.687,508.646 453.706,508.642 453.72,508.63C457.04,505.723 459.343,504.043 460.63,503.59C463.177,502.677 464.72,502.09 465.26,501.83C465.56,501.683 465.92,501.718 466.19,501.92C467.397,502.82 467.74,503.913 467.22,505.2C465.56,509.293 464.45,513.337 463.89,517.33C463.888,517.341 463.887,517.351 463.887,517.362C463.887,517.461 463.962,517.546 464.06,517.56L464.06,517.57C464.154,517.546 464.226,517.477 464.25,517.39L466.56,509.18C466.582,509.103 466.608,509.028 466.64,508.955C467.028,508.059 468.088,507.642 468.99,508.032C469.062,508.063 469.132,508.099 469.2,508.14L469.44,508.28C470.484,508.89 470.936,510.177 470.5,511.3L468.13,517.53C468.122,517.548 468.117,517.567 468.113,517.586C468.079,517.753 468.193,517.919 468.365,517.954C468.383,517.957 468.401,517.959 468.42,517.96C468.513,517.96 468.633,517.873 468.78,517.7C468.859,517.609 468.948,517.527 469.044,517.455C469.746,516.928 470.725,517.028 471.212,517.678C471.28,517.768 471.336,517.866 471.38,517.97C471.827,519.01 471.813,520.12 471.34,521.3C470.413,523.62 469.37,525.947 468.21,528.28C468.182,528.337 468.168,528.4 468.168,528.463C468.168,528.694 468.358,528.883 468.588,528.883C468.605,528.883 468.623,528.882 468.64,528.88C469.187,528.813 469.763,528.59 470.37,528.21C471.057,527.777 471.537,527.627 471.81,527.76C472.297,528.007 472.647,528.457 472.86,529.11C472.898,529.227 472.955,529.337 473.028,529.437C473.399,529.94 474.115,530.052 474.614,529.684C474.713,529.61 474.8,529.521 474.87,529.42C477.19,526.07 480.9,524.98 483.8,521.98C486.14,519.56 489.223,517.577 493.05,516.03C495.777,514.93 497.99,515.14 499.69,516.66C500.01,516.939 500.476,516.976 500.83,516.75C503.39,515.13 506.107,514.223 508.98,514.03C509.68,513.983 511.39,513.257 514.11,511.85C515.083,511.35 516.95,511.013 519.71,510.84C520.042,510.817 520.354,511.001 520.49,511.3C520.857,512.073 521.253,512.567 521.68,512.78C521.992,512.943 522.369,512.935 522.68,512.76C525.067,511.4 527.77,510.523 530.79,510.13C531.185,510.077 531.588,510.111 531.97,510.23L534.09,510.87C534.359,510.953 534.651,510.924 534.9,510.79C537.43,509.47 544.96,506.64 545.27,511.39C545.317,512.13 545.91,512.4 547.05,512.2C547.661,512.091 548.283,512.34 548.65,512.84L549.54,514.07C550.081,514.816 551.107,515.045 551.92,514.6C554.253,513.307 555.78,513.243 556.5,514.41C556.854,514.989 557.673,515.154 558.34,514.78C560.467,513.593 562.127,513.197 563.32,513.59C563.655,513.702 563.96,513.894 564.21,514.15C565.437,515.43 565.913,516.933 565.64,518.66C565.638,518.672 565.636,518.684 565.635,518.696C565.536,519.436 566.068,520.126 566.813,520.226C566.825,520.227 566.838,520.229 566.85,520.23L572.99,520.88ZM492.261,521.702C492.126,521.522 491.867,521.486 491.687,521.621L487.055,525.112C486.876,525.247 486.839,525.506 486.974,525.686L486.999,525.718C487.134,525.898 487.393,525.934 487.573,525.799L492.205,522.308C492.384,522.173 492.421,521.914 492.286,521.734L492.261,521.702ZM467.773,544.222C467.537,543.877 467.008,543.824 466.601,544.103C466.601,544.103 466.601,544.103 466.601,544.103C466.193,544.382 466.052,544.894 466.287,545.238C466.287,545.238 466.287,545.238 466.287,545.239C466.523,545.583 467.052,545.636 467.459,545.357C467.459,545.357 467.459,545.357 467.459,545.357C467.867,545.078 468.008,544.566 467.773,544.222C467.773,544.222 467.773,544.222 467.773,544.222Z" style="fill:rgb(47,47,45);fill-rule:nonzero;"/>
        <path d="M517.25,470.3C517.558,469.922 518.113,469.847 518.51,470.13C520.223,471.343 521.043,472.707 520.97,474.22C520.906,475.607 519.878,476.773 518.51,477.01L517.36,477.22C517.3,477.23 517.239,477.238 517.178,477.242C516.242,477.302 515.422,476.586 515.362,475.655C515.358,475.594 515.357,475.532 515.36,475.47C515.44,473.47 516.07,471.747 517.25,470.3Z" style="fill:rgb(122,127,112);fill-rule:nonzero;"/>
        <path d="M434.16,485.64C434.217,485.476 434.218,485.298 434.162,485.134C434.024,484.723 433.568,484.501 433.152,484.64C432.989,484.695 432.848,484.8 432.75,484.94C431.81,486.24 430.8,487.03 429.72,487.31C429.426,487.389 429.107,487.314 428.87,487.11C425.35,484.05 429.99,480.41 432.6,480.69C435.973,481.057 438.147,482.957 439.12,486.39C439.435,487.503 438.873,488.692 437.81,489.16L437.55,489.26C436.385,489.775 435.003,489.273 434.44,488.13C434.007,487.257 433.913,486.427 434.16,485.64Z" style="fill-rule:nonzero;"/>
        <path d="M563.97,525.08L559.59,535.2C558.703,535.767 558.017,536.53 557.53,537.49C556.703,539.123 556.21,540.023 556.05,540.19C554.48,541.77 552.29,543.68 551.25,545.21C549.19,548.23 547.183,551.153 545.23,553.98C544.677,554.793 544.313,555.223 544.14,555.27C544.108,555.281 544.075,555.286 544.041,555.286C543.871,555.286 543.731,555.146 543.731,554.976C543.731,554.94 543.738,554.904 543.75,554.87C544.177,553.65 544.263,551.983 544.01,549.87C544.005,549.829 543.999,549.788 543.992,549.747C543.782,548.476 542.736,547.573 541.675,547.749C541.64,547.755 541.605,547.762 541.57,547.77C541.137,547.87 540.733,548.38 540.36,549.3C538.04,555.053 535.307,560.7 532.16,566.24C532.053,566.233 531.927,566.31 531.78,566.47C531.473,566.417 531.333,566.347 531.36,566.26C532.913,560.92 534.087,556.107 534.88,551.82C535.14,550.413 534.887,549.56 534.12,549.26C533.205,548.9 532.151,549.346 531.76,550.26C528.46,557.96 527.17,561.73 523.61,566.53C523.529,566.643 523.399,566.711 523.259,566.711C523.024,566.711 522.829,566.517 522.829,566.281C522.829,566.274 522.83,566.267 522.83,566.26C522.95,561.19 525.08,555.51 526.12,550.58C526.225,550.068 525.92,549.553 525.42,549.4C524.24,549.05 523.39,549.57 522.68,550.59C518.607,556.357 514.68,562.26 510.9,568.3C510.853,568.404 510.749,568.471 510.635,568.471C510.475,568.471 510.344,568.34 510.344,568.18C510.344,568.139 510.353,568.098 510.37,568.06L514.64,554.03C514.961,552.978 514.506,551.834 513.55,551.29L513.31,551.15C513.116,551.04 512.897,550.983 512.675,550.983C512.108,550.983 511.604,551.357 511.44,551.9C509.71,557.79 508.19,562.44 503.89,566.51C503.839,566.56 503.771,566.588 503.7,566.588C503.552,566.588 503.43,566.466 503.43,566.318C503.43,566.316 503.43,566.313 503.43,566.31C503.43,565.897 503.553,565.56 503.8,565.3C505.753,563.22 507.253,560.947 508.3,558.48C508.345,558.373 508.379,558.261 508.401,558.146C508.551,557.354 508.088,556.591 507.377,556.457C507.273,556.437 507.166,556.431 507.06,556.44C505.78,556.54 505.17,557.56 504.25,558.45C502.35,560.297 500.523,562.243 498.77,564.29C498.547,564.552 498.154,564.592 497.89,564.38L497.87,564.37C497.664,564.215 497.615,563.92 497.76,563.7C498.953,561.9 500.543,559.19 502.53,555.57C503.403,553.97 503.317,552.653 502.27,551.62C501.868,551.224 501.212,551.224 500.81,551.62C499.79,552.64 498.803,552.487 497.85,551.16C497.629,550.846 497.217,550.728 496.87,550.88C492.1,552.92 488.6,558.1 484.95,562.83C484.879,562.933 484.762,562.994 484.637,562.994C484.429,562.994 484.257,562.822 484.257,562.614C484.257,562.561 484.269,562.508 484.29,562.46L489.19,549.46C489.207,549.417 489.221,549.372 489.233,549.328C489.42,548.623 488.99,547.887 488.28,547.698C488.237,547.686 488.194,547.677 488.15,547.67L485.95,547.3C485.639,547.247 485.408,546.975 485.408,546.659C485.408,546.581 485.422,546.503 485.45,546.43C485.997,545.01 486.03,544.223 485.55,544.07C484.697,543.782 483.744,544.121 483.25,544.89C481.757,547.23 480.54,549.893 479.6,552.88C479.6,552.896 479.586,552.91 479.57,552.91L478.85,552.94C478.849,552.94 478.847,552.94 478.846,552.94C478.785,552.94 478.736,552.89 478.736,552.83C478.736,552.82 478.737,552.81 478.74,552.8L481.08,543.66C481.125,543.484 481.148,543.303 481.148,543.121C481.148,541.93 480.168,540.951 478.978,540.951C478.882,540.951 478.785,540.957 478.69,540.97C478.57,540.99 478.35,541.263 478.03,541.79C476.457,544.37 474.257,547.453 471.43,551.04C471.336,551.166 471.187,551.241 471.03,551.241C470.763,551.241 470.54,551.027 470.53,550.76C470.33,546.58 473.13,542.07 475.45,537.99C475.569,537.785 475.647,537.561 475.68,537.33L476.15,534.52C476.158,534.471 476.17,534.423 476.187,534.377C476.337,533.964 476.803,533.749 477.221,533.9C477.266,533.916 477.309,533.936 477.35,533.96L479.19,535.02C479.473,535.181 479.808,535.231 480.13,535.16C481.563,534.84 482.96,534.09 484.32,532.91C484.508,532.748 484.744,532.653 484.99,532.64L487.14,532.56C487.394,532.547 487.638,532.46 487.84,532.31L493.38,528.3C493.511,528.205 493.669,528.154 493.831,528.154C494.094,528.154 494.339,528.289 494.48,528.51C494.873,529.137 495.4,529.313 496.06,529.04C502.047,526.593 507.197,523.19 511.51,518.83C512.93,517.4 515.17,516.06 517.04,515.62C517.076,515.612 517.112,515.608 517.149,515.608C517.429,515.608 517.659,515.838 517.659,516.118C517.659,516.281 517.581,516.434 517.45,516.53C514.437,518.703 511.47,520.983 508.55,523.37C507.13,524.537 507.113,525.817 508.5,527.21C508.93,527.647 509.583,527.789 510.16,527.57C512.347,526.737 514.41,525.493 516.35,523.84C518.84,521.71 521.99,517.01 526.45,515.52C526.478,515.509 526.508,515.504 526.539,515.504C526.676,515.504 526.789,515.617 526.789,515.754C526.789,515.836 526.748,515.913 526.68,515.96L523.23,518.47C523.104,518.56 522.991,518.668 522.895,518.79C522.34,519.498 522.469,520.54 523.182,521.099C523.303,521.194 523.437,521.272 523.58,521.33C530.03,523.94 531.68,518.93 535.46,515.48C536.813,514.247 538.383,513.403 540.17,512.95C540.204,512.943 540.238,512.939 540.272,512.939C540.535,512.939 540.752,513.156 540.752,513.419C540.752,513.587 540.664,513.743 540.52,513.83L535.95,516.46C535.927,516.473 535.905,516.487 535.883,516.501C535.11,517.003 534.89,518.056 535.395,518.834C535.409,518.856 535.424,518.878 535.44,518.9L535.89,519.52C536.473,520.328 537.613,520.524 538.44,519.96C540.3,518.68 543.07,516.08 546.17,515.84C546.184,515.838 546.199,515.838 546.213,515.838C546.427,515.838 546.603,516.014 546.603,516.228C546.603,516.37 546.525,516.502 546.4,516.57L541.82,519.22C541.279,519.53 540.945,520.107 540.945,520.73C540.945,521.353 541.279,521.93 541.82,522.24L542.63,522.7C543.477,523.195 544.526,523.202 545.38,522.72C546.713,521.967 548.463,520.657 550.63,518.79C550.843,518.603 551.117,518.463 551.45,518.37C551.617,518.323 551.763,518.303 551.89,518.31C552.053,518.319 552.183,518.456 552.183,518.62C552.183,518.707 552.145,518.791 552.08,518.85C551.113,519.683 550.373,520.49 549.86,521.27C549.833,521.31 549.808,521.352 549.785,521.394C549.368,522.148 549.595,523.082 550.287,523.464C550.323,523.485 550.361,523.503 550.4,523.52C551.353,523.927 552.423,523.793 553.61,523.12C555.49,522.06 557.95,518.07 561.53,516.91C561.586,516.891 561.645,516.881 561.704,516.881C562.006,516.879 562.256,517.121 562.258,517.417C562.258,517.476 562.249,517.534 562.23,517.59C561.1,521.17 558.26,523.25 556.88,526.61C556.804,526.796 556.765,526.995 556.765,527.197C556.765,527.833 557.157,528.408 557.75,528.64L557.79,528.65C558.641,528.984 559.622,528.632 560.08,527.83C561.547,525.277 562.843,524.36 563.97,525.08ZM520.85,536.55C520.957,536.167 521.309,535.9 521.707,535.9C521.807,535.9 521.906,535.917 522,535.95C523.313,536.41 524.53,536.563 525.65,536.41C525.766,536.394 525.88,536.37 525.992,536.336C527.064,536.014 527.705,534.946 527.411,533.968C527.38,533.865 527.34,533.766 527.29,533.67C524.1,527.57 515.04,533.33 511.16,536.16C508.887,537.827 508.46,539.883 509.88,542.33C510.493,543.383 511.41,543.847 512.63,543.72C516.83,543.293 519.57,540.903 520.85,536.55Z" style="fill:rgb(253,253,253);fill-rule:nonzero;"/>
        <path d="M460.04,534.73C459.04,528.91 457.467,523.3 455.32,517.9L459.55,514.06C459.584,514.031 459.624,514.011 459.667,513.999C459.82,513.958 459.979,514.047 460.019,514.195C460.03,514.239 460.031,514.285 460.02,514.33C459.17,518.02 456.88,525.83 460.23,528.89C460.469,529.11 460.591,529.429 460.56,529.75L460.04,534.73Z" style="fill:white;fill-opacity:0.56;fill-rule:nonzero;"/>
        <g transform="matrix(0.798636,-0.601815,0.601815,0.798636,489.63,523.71)">
            <path d="M3.31,-0.02L3.31,0.02C3.31,0.246 3.126,0.43 2.9,0.43L-2.9,0.43C-3.126,0.43 -3.31,0.246 -3.31,0.02L-3.31,-0.02C-3.31,-0.246 -3.126,-0.43 -2.9,-0.43L2.9,-0.43C3.126,-0.43 3.31,-0.246 3.31,-0.02Z" style="fill:rgb(253,253,253);"/>
        </g>
        <path d="M520.85,536.55C519.57,540.903 516.83,543.293 512.63,543.72C511.41,543.847 510.493,543.383 509.88,542.33C508.46,539.883 508.887,537.827 511.16,536.16C515.04,533.33 524.1,527.57 527.29,533.67C527.34,533.766 527.38,533.865 527.411,533.968C527.705,534.946 527.064,536.014 525.992,536.336C525.88,536.37 525.766,536.394 525.65,536.41C524.53,536.563 523.313,536.41 522,535.95C521.906,535.917 521.807,535.9 521.707,535.9C521.309,535.9 520.957,536.167 520.85,536.55ZM513.25,540.12C514.063,539.72 514.567,539.323 514.76,538.93C514.79,538.867 514.809,538.8 514.816,538.731C514.85,538.403 514.613,538.106 514.291,538.073C514.22,538.066 514.149,538.072 514.08,538.09C513.387,538.263 512.963,538.83 512.81,539.79C512.807,539.807 512.806,539.824 512.806,539.841C512.806,540.011 512.946,540.151 513.116,540.151C513.162,540.151 513.208,540.14 513.25,540.12Z" style="fill-rule:nonzero;"/>
        <path d="M559.59,535.2C557.33,541.093 554.24,546.573 550.32,551.64C549.647,552.52 549.197,553.063 548.97,553.27C548.383,553.803 547.927,554.333 547.6,554.86C546.38,556.84 544.72,558.323 542.62,559.31C542.252,559.481 541.926,559.741 541.67,560.07C539.29,563.123 536.12,565.18 532.16,566.24C535.307,560.7 538.04,555.053 540.36,549.3C540.733,548.38 541.137,547.87 541.57,547.77C541.605,547.762 541.64,547.755 541.675,547.749C542.736,547.573 543.782,548.476 543.992,549.747C543.999,549.788 544.005,549.829 544.01,549.87C544.263,551.983 544.177,553.65 543.75,554.87C543.738,554.904 543.731,554.94 543.731,554.976C543.731,555.146 543.871,555.286 544.041,555.286C544.075,555.286 544.108,555.281 544.14,555.27C544.313,555.223 544.677,554.793 545.23,553.98C547.183,551.153 549.19,548.23 551.25,545.21C552.29,543.68 554.48,541.77 556.05,540.19C556.21,540.023 556.703,539.123 557.53,537.49C558.017,536.53 558.703,535.767 559.59,535.2Z" style="fill:rgb(47,47,45);fill-rule:nonzero;"/>
        <path d="M512.81,539.79C512.963,538.83 513.387,538.263 514.08,538.09C514.149,538.072 514.22,538.066 514.291,538.073C514.613,538.106 514.85,538.403 514.816,538.731C514.809,538.8 514.79,538.867 514.76,538.93C514.567,539.323 514.063,539.72 513.25,540.12C513.208,540.14 513.162,540.151 513.116,540.151C512.946,540.151 512.806,540.011 512.806,539.841C512.806,539.824 512.807,539.807 512.81,539.79Z" style="fill:rgb(253,253,253);fill-rule:nonzero;"/>
        <path d="M462.24,542.95C462.153,542.97 462.063,542.99 461.97,543.01C461.863,543.023 461.753,543.037 461.64,543.05C461.687,542.87 461.73,542.723 461.77,542.61C461.796,542.533 461.869,542.481 461.95,542.481C462.031,542.481 462.104,542.533 462.13,542.61L462.24,542.95Z" style="fill:rgb(122,127,112);fill-rule:nonzero;"/>
        <path d="M462.24,542.95C462.74,543.977 462.76,544.677 462.3,545.05C462.02,544.397 461.91,543.717 461.97,543.01C462.063,542.99 462.153,542.97 462.24,542.95Z" style="fill:white;fill-opacity:0.56;fill-rule:nonzero;"/>
        <g transform="matrix(0.825113,-0.564967,0.564967,0.825113,467.03,544.73)">
            <ellipse cx="0" cy="0" rx="0.9" ry="0.76" style="fill:rgb(122,127,112);"/>
        </g>
        <path d="M476.09,551.2C474.717,554.913 474.94,558.267 476.76,561.26C472.247,558.787 469.163,556.863 467.51,555.49C465.67,553.957 464.533,551.637 464.1,548.53C464.72,548.237 465.407,548.113 466.16,548.16C466.419,548.181 466.62,548.399 466.62,548.658C466.62,548.693 466.617,548.727 466.61,548.76C465.897,552.247 467.197,554.363 470.51,555.11C470.838,555.18 471.18,555.099 471.44,554.89L476.09,551.2Z" style="fill:rgb(253,253,253);fill-rule:nonzero;"/>
        <path d="M476.09,551.2C475.99,551.253 475.987,551.16 476.08,550.92C476.093,550.887 476.093,550.893 476.08,550.94C475.987,551.2 475.99,551.287 476.09,551.2Z" style="fill:rgb(122,127,112);fill-rule:nonzero;"/>
        <path d="M499.67,569.15L483.29,567.15C483.303,567.003 483.363,566.88 483.47,566.78C484.06,567.02 484.75,567.07 485.23,566.58C486.85,564.913 488.38,563.577 489.82,562.57C491.39,561.48 492.22,559.77 493.68,558.35C493.755,558.277 493.871,558.268 493.95,558.33L493.96,558.34C494.038,558.436 494.05,558.574 493.99,558.69L492.1,562.06C491.904,562.402 491.961,562.84 492.24,563.13C494.25,565.19 496.27,567.79 499.35,567.57C499.362,567.569 499.375,567.569 499.387,567.569C499.65,567.569 499.867,567.785 499.867,568.049C499.867,568.076 499.865,568.103 499.86,568.13L499.67,569.15Z" style="fill:rgb(253,253,253);fill-rule:nonzero;"/>
        <path d="M520.23,570.59L511.71,571.07C512.163,570.53 512.637,570.03 513.13,569.57C515.98,566.92 518.47,562.21 520.29,558.73C520.333,558.641 520.443,558.601 520.54,558.64L520.78,558.73C520.801,558.736 520.815,558.756 520.815,558.778C520.815,558.785 520.813,558.793 520.81,558.8C519.35,562.673 519.157,566.603 520.23,570.59Z" style="fill:rgb(253,253,253);fill-rule:nonzero;"/>
        <path d="M498.58,574.01C494.51,577.09 491.13,580.94 489.04,585.58C487.38,589.27 485.8,591.91 482.32,593.62C482.221,593.669 482.111,593.695 482,593.695C481.605,593.695 481.28,593.37 481.28,592.975C481.28,592.97 481.28,592.965 481.28,592.96C481.33,587.68 482.18,582.4 480,579.23C474.973,571.963 468.273,567 459.9,564.34C459.71,564.283 459.579,564.107 459.579,563.909C459.579,563.742 459.672,563.588 459.82,563.51L465.18,560.48C465.799,560.134 466.551,560.119 467.18,560.44C469.587,561.687 471.41,562.897 472.65,564.07C476.87,568.09 478.94,570.72 483.4,572.11C483.493,572.137 483.587,572.154 483.68,572.16L498.24,572.92C498.561,572.939 498.815,573.208 498.815,573.529C498.815,573.717 498.728,573.894 498.58,574.01Z" style="fill:rgb(253,253,253);fill-rule:nonzero;"/>
        <path d="M480.49,565.05C479.197,564.417 478.7,563.67 479,562.81C479.347,562.363 479.72,562.04 480.12,561.84C480.174,561.813 480.233,561.799 480.293,561.799C480.488,561.799 480.655,561.946 480.68,562.14C480.807,563.1 480.743,564.07 480.49,565.05Z" style="fill:rgb(253,253,253);fill-rule:nonzero;"/>
        <path d="M528.32,567.82C527.52,568.567 526.483,569.057 525.21,569.29L528.79,564.52C528.826,564.474 528.881,564.446 528.94,564.446C529.042,564.446 529.127,564.528 529.13,564.63C529.15,565.65 528.88,566.713 528.32,567.82Z" style="fill:rgb(253,253,253);fill-rule:nonzero;"/>
        <path d="M478.53,682.27C461.037,682.243 443.527,682.273 426,682.36C424.3,682.367 422.62,682.53 420.96,682.85C420.8,682.883 420.667,682.867 420.56,682.8C420.447,682.727 420.34,682.633 420.24,682.52L420.55,682.2C420.771,681.973 420.911,681.678 420.95,681.36C422.19,672.073 423.123,665.617 423.75,661.99C425.597,651.343 429.267,640.277 434.76,628.79C434.909,628.479 435.159,628.229 435.47,628.08C436.877,627.427 437.787,626.62 438.2,625.66C440.55,620.17 443.42,612.68 446.33,607.3C447.943,604.313 450.29,601.92 453.37,600.12C454.679,599.354 455.235,597.732 454.67,596.33L454.54,596C454.245,595.268 453.53,594.786 452.741,594.786C452.384,594.786 452.034,594.884 451.73,595.07C447.977,597.363 445.04,600.373 442.92,604.1C439.99,609.27 436.97,617.19 434.79,623.55C434.606,624.081 434.027,624.375 433.49,624.21L404.94,615.52C404.79,615.473 404.687,615.333 404.687,615.176C404.687,615.133 404.695,615.09 404.71,615.05C409.21,603.5 414.36,594.03 424.3,586.22C425.173,585.54 426.79,583.883 429.15,581.25C434.76,574.99 441.2,571.78 446.84,567.62C449.31,565.79 450.82,565.77 453.69,566.44C463.383,568.707 471.03,573.453 476.63,580.68C477.483,581.78 477.937,583.14 477.99,584.76C478.14,589.14 477.29,598.69 481.88,597.2C485.967,595.873 489.057,593.47 491.15,589.99C491.24,589.833 491.441,589.771 491.61,589.85L491.62,589.86C491.831,589.961 491.929,590.209 491.84,590.42C490.97,592.61 490.11,594.82 488.86,596.75C484.46,603.56 480.78,609.93 479.19,617.67C476.02,633.12 476.99,646.04 477.4,666C477.533,672.667 477.91,678.09 478.53,682.27Z" style="fill:rgb(249,211,142);fill-rule:nonzero;"/>
        <path d="M483.47,566.78C483.363,566.88 483.303,567.003 483.29,567.15C482.99,567.097 482.717,566.96 482.47,566.74C482.463,566.313 482.797,566.327 483.47,566.78Z" style="fill:rgb(122,127,112);fill-rule:nonzero;"/>
        <path d="M507.02,570.7C506.14,570.653 505.38,570.47 504.74,570.15C505.06,569.15 505.667,568.36 506.56,567.78C506.564,567.778 506.567,567.775 506.571,567.773C506.804,567.628 507.117,567.704 507.265,567.942C507.267,567.944 507.268,567.947 507.27,567.95C507.917,569.017 507.833,569.933 507.02,570.7Z" style="fill:rgb(253,253,253);fill-rule:nonzero;"/>
        <path d="M493.81,595.77C493.943,609.837 495.737,624.14 499.19,638.68C499.193,638.692 499.195,638.704 499.198,638.715C499.387,639.606 498.815,640.494 497.929,640.682C497.916,640.685 497.903,640.688 497.89,640.69L489.09,642.36C489.027,642.372 488.963,642.378 488.899,642.378C488.391,642.378 487.955,642.002 487.88,641.5C486.29,630.49 488.03,619.15 486.52,608.76C486.417,608.068 486.554,607.361 486.91,606.76L493.32,595.64C493.365,595.555 493.454,595.501 493.55,595.501C493.693,595.501 493.81,595.618 493.81,595.761C493.81,595.764 493.81,595.767 493.81,595.77Z" style="fill:rgb(249,211,142);fill-rule:nonzero;"/>
        <path d="M500.06,682.24C494.167,681.887 488.407,681.943 482.78,682.41C482.613,682.423 482.483,682.39 482.39,682.31C482.263,682.203 482.193,682.077 482.18,681.93C481.707,678.85 481.417,675.873 481.31,673C480.49,652.09 479.79,634.95 482.85,616.56C482.868,616.471 482.946,616.407 483.036,616.407C483.111,616.407 483.18,616.451 483.21,616.52C483.557,617.3 483.717,618.043 483.69,618.75C483.337,628.423 483.68,636.347 484.72,642.52C485.48,646.97 488.21,645.58 491.19,645.57C491.545,645.571 491.852,645.835 491.91,646.19C493.89,658.183 496.607,670.2 500.06,682.24Z" style="fill:rgb(253,253,253);fill-rule:nonzero;"/>
        <path d="M417.33,682.36L401.14,682.13C400.27,669.7 398.42,657 401.79,645.03C404.077,636.883 406.52,628.77 409.12,620.69C409.196,620.458 409.447,620.328 409.68,620.4L429.79,627.07C429.801,627.074 429.813,627.078 429.824,627.082C430.109,627.196 430.249,627.528 430.133,627.819C430.129,627.829 430.125,627.84 430.12,627.85C425.747,637.43 422.483,647.17 420.33,657.07C419.223,662.137 418.223,670.567 417.33,682.36Z" style="fill:rgb(253,253,253);fill-rule:nonzero;"/>
    </g>
</svg>
