<?xml version="1.0" encoding="UTF-8" standalone="no"?>
<!DOCTYPE svg PUBLIC "-//W3C//DTD SVG 1.1//EN" "http://www.w3.org/Graphics/SVG/1.1/DTD/svg11.dtd">
<svg width="100%" height="100%" viewBox="0 0 234 323" version="1.1" xmlns="http://www.w3.org/2000/svg" xmlns:xlink="http://www.w3.org/1999/xlink" xml:space="preserve" xmlns:serif="http://www.serif.com/" style="fill-rule:evenodd;clip-rule:evenodd;stroke-linejoin:round;stroke-miterlimit:2;">
    <g transform="matrix(1,0,0,1,-51.9361,-701.39)">
        <path d="M161.84,1024L158.37,1024L158.06,1023.63C154.653,1012.64 152.007,1001.47 150.12,990.12C150.06,989.752 149.711,989.492 149.33,989.53L146.43,989.82C146.182,989.846 145.932,989.801 145.71,989.69C142.27,988 142.49,980.46 142.45,976C142.417,971.913 142.483,967.327 142.65,962.24C142.657,962 142.577,961.457 142.41,960.61C142.402,960.579 142.386,960.551 142.364,960.528C142.295,960.457 142.184,960.451 142.117,960.516C142.093,960.538 142.077,960.568 142.07,960.6C140.55,967.18 139.5,974.57 139.46,981.94C139.387,994.6 139.49,1006.2 139.77,1016.75C139.837,1019.18 139.997,1021.59 140.25,1024L136.73,1024C136.463,1021.51 136.297,1019.01 136.23,1016.5C135.77,1000.12 135.653,988.787 135.88,982.5C136.28,971.45 137.51,959.59 142.06,950.77C143.26,948.443 145.867,944.053 149.88,937.6C150.36,936.833 150.717,935.97 150.95,935.01C150.956,934.983 150.959,934.955 150.959,934.927C150.959,934.719 150.788,934.547 150.579,934.547C150.535,934.547 150.491,934.555 150.45,934.57C150.057,934.717 149.493,935.38 148.76,936.56C146.88,939.58 143.59,941.42 140.34,941.92C139.958,941.978 139.567,941.908 139.23,941.72C137.59,940.78 136.767,939.6 136.76,938.18C136.733,932.1 136.72,928.903 136.72,928.59C136.694,927.364 136.308,926.171 135.61,925.16C129.87,916.82 120.03,911.7 110.47,909.88C109.557,909.707 108.407,910.083 107.02,911.01C100.033,915.69 95.797,918.53 94.31,919.53C91.21,921.62 89.49,923.85 86.03,927.78C85.611,928.253 85.163,928.701 84.69,929.12C78.683,934.44 74.87,938.317 73.25,940.75C69.403,946.51 66.153,952.677 63.5,959.25C63.496,959.261 63.492,959.271 63.488,959.282C63.281,959.849 63.574,960.484 64.136,960.688C64.147,960.692 64.159,960.696 64.17,960.7L90.87,969.56C91.989,969.927 93.213,969.316 93.59,968.2C95.677,962.053 97.883,956.637 100.21,951.95C102.99,946.37 106.553,942.33 110.9,939.83C110.96,939.796 111.021,939.765 111.084,939.737C112.058,939.307 113.211,939.751 113.638,940.72C113.665,940.782 113.689,940.845 113.71,940.91L113.74,941.01C114.191,942.397 113.677,943.926 112.48,944.76C108.433,947.6 105.34,951.33 103.2,955.95C101.273,960.11 98.857,965.38 95.95,971.76C95.847,971.983 95.652,972.157 95.41,972.24L93.69,972.81C93.317,972.933 93.048,973.257 93,973.64C92.887,974.4 91.277,978.567 88.17,986.14C83.17,998.34 81.6,1009.77 80.04,1024L76.25,1024C76.603,1019.83 77.02,1015.66 77.5,1011.49C79.053,998.11 82.73,985.317 88.53,973.11C88.558,973.053 88.572,972.99 88.572,972.927C88.572,972.748 88.458,972.589 88.29,972.53L67.71,965.71C67.71,965.71 67.709,965.71 67.709,965.71C67.547,965.658 67.372,965.745 67.322,965.902C67.322,965.905 67.321,965.907 67.32,965.91C64.693,974.677 62.573,981.657 60.96,986.85C56.95,999.8 57.61,1010.51 59.32,1024L56.25,1024L56,1021.76C55.997,1021.73 55.986,1021.69 55.968,1021.67C55.904,1021.57 55.769,1021.54 55.668,1021.61C55.641,1021.63 55.617,1021.65 55.6,1021.68C55.227,1022.31 55.117,1023.09 55.27,1024L51.95,1024C51.823,1020.29 52.563,1016.83 54.17,1013.63C54.477,1013.02 54.605,1012.34 54.54,1011.67C53.907,1004.62 54.427,997.68 56.1,990.84C58.273,981.953 60.777,973.467 63.61,965.38C63.613,965.371 63.617,965.361 63.62,965.352C63.843,964.68 63.47,963.943 62.793,963.718C62.786,963.715 62.778,963.712 62.77,963.71C60.357,962.963 59.503,961.567 60.21,959.52C63.057,951.307 66.603,944.367 70.85,938.7C75.12,933.02 80.96,928.7 85.6,923.26C87.727,920.76 89.323,919.13 90.39,918.37C98.55,912.59 103.603,909.15 105.55,908.05C106.863,907.303 109.383,906.69 113.11,906.21C113.32,906.184 113.522,906.108 113.7,905.99L121.55,900.95C121.771,900.809 121.905,900.564 121.905,900.302C121.905,900.113 121.835,899.931 121.71,899.79C120.477,898.403 119.513,896.783 118.82,894.93C115.82,886.88 113.73,878.59 111.18,870.77C111.091,870.488 110.827,870.296 110.532,870.296C110.449,870.296 110.367,870.311 110.29,870.34C109.243,870.753 108.363,870.453 107.65,869.44C107.502,869.228 107.441,868.97 107.48,868.72L107.85,866.48C107.853,866.462 107.854,866.445 107.854,866.427C107.854,866.246 107.705,866.097 107.524,866.097C107.454,866.097 107.386,866.119 107.33,866.16L105.39,867.57C105.181,867.72 104.93,867.801 104.672,867.801C104.05,867.801 103.52,867.329 103.45,866.71C103.283,865.19 103.34,863.927 103.62,862.92C103.632,862.877 103.638,862.832 103.638,862.788C103.638,862.513 103.412,862.288 103.138,862.288C103.088,862.288 103.038,862.295 102.99,862.31C101.717,862.737 100.92,862.813 100.6,862.54C99.726,861.799 99.384,860.567 99.73,859.41C100.223,857.783 100.703,856.467 101.17,855.46C101.585,854.576 101.281,853.508 100.46,852.97C97.153,850.823 94.22,848.797 91.66,846.89C81.61,839.42 72.74,825.12 81.3,813.4C81.524,813.097 81.528,812.683 81.31,812.38C81.197,812.233 81.06,812.07 80.9,811.89C80.667,811.63 80.513,811.403 80.44,811.21C76.91,801.32 75.42,791.56 77.98,781.78C77.989,781.747 77.993,781.713 77.993,781.679C77.993,781.46 77.812,781.279 77.593,781.279C77.562,781.279 77.53,781.283 77.5,781.29C76.65,781.48 76.13,782.39 75.09,782.38C66.36,782.27 80.79,760.29 82.67,757.68C82.706,757.623 82.725,757.556 82.725,757.489C82.725,757.291 82.562,757.129 82.365,757.129C82.3,757.129 82.236,757.147 82.18,757.18C80.07,758.63 78.21,760.28 76.06,761.27C74.21,762.12 72.16,761.14 72.61,759.04C74.11,752.13 89.18,744.22 95.58,741.39C95.625,741.371 95.665,741.342 95.697,741.305C95.811,741.171 95.791,740.965 95.654,740.847C95.618,740.816 95.575,740.793 95.53,740.78C93.037,740.113 90.457,739.597 87.79,739.23C86.683,739.077 85.79,738.663 85.11,737.99C85.067,737.947 85.026,737.903 84.988,737.856C84.395,737.129 84.502,736.046 85.225,735.456C85.271,735.418 85.32,735.383 85.37,735.35C88.58,733.27 93.55,733.62 97.1,734.4C97.14,734.409 97.181,734.414 97.222,734.414C97.524,734.414 97.772,734.165 97.772,733.864C97.772,733.812 97.765,733.76 97.75,733.71C97.04,731.26 95.9,724.18 99.02,722.95C99.036,722.944 99.051,722.938 99.067,722.933C99.954,722.627 101.034,723.392 101.459,724.626C101.466,724.647 101.473,724.669 101.48,724.69C102.36,727.47 103.253,730.327 104.16,733.26C104.215,733.458 104.397,733.596 104.603,733.596C104.782,733.596 104.945,733.492 105.02,733.33C110.173,723.003 118.423,716.143 129.77,712.75C132.21,712.023 135.147,711.287 138.58,710.54C139.203,710.407 139.803,710.185 140.36,709.88C145.5,707.14 151.21,705.117 157.49,703.81C166.67,701.9 177.09,704.22 186.3,702.8C188.9,702.4 191.417,701.993 193.85,701.58C202.44,700.12 199.13,707.46 196.15,710.82C196.109,710.867 196.086,710.928 196.086,710.991C196.086,711.134 196.203,711.251 196.346,711.251C196.354,711.251 196.362,711.251 196.37,711.25C203.75,710.49 212.46,710.077 222.5,710.01C225.04,710 231.01,709.94 232.47,711.77C235.34,715.37 230.45,718.66 227.46,719.77C227.43,719.78 227.401,719.795 227.377,719.816C227.267,719.907 227.255,720.076 227.35,720.19C227.37,720.214 227.394,720.234 227.42,720.25C236.05,725.31 244.16,729.57 253.27,732.45C258.46,734.09 267.18,736.38 269.02,741.26C271.07,746.7 262.35,750.08 258.27,750.22C258.232,750.221 258.194,750.229 258.159,750.243C257.99,750.309 257.904,750.498 257.968,750.662C257.982,750.698 258.003,750.731 258.03,750.76C261.343,754.52 263.67,758.02 265.01,761.26C267.11,766.31 261.68,768.09 259.02,764.4C258.931,764.288 258.795,764.223 258.653,764.223C258.395,764.223 258.183,764.435 258.183,764.693C258.183,764.736 258.188,764.779 258.2,764.82C260.767,772.513 260.327,779.937 256.88,787.09C256.855,787.143 256.842,787.202 256.842,787.261C256.842,787.472 257.009,787.648 257.22,787.66C265.66,788.03 272.02,788.74 277.5,796.25C282.12,802.59 288.99,817.9 283.08,825.16C282.613,825.733 281.11,827.933 278.57,831.76C274.66,837.65 269.95,841.31 263.33,843.66C262.904,843.809 262.593,844.182 262.52,844.63C262.507,844.697 262.18,846.263 261.54,849.33C259.4,859.67 252.06,863.48 242.67,865.21C242.629,865.217 242.589,865.228 242.549,865.242C242.141,865.387 241.925,865.846 242.072,866.26C242.085,866.298 242.101,866.335 242.12,866.37C242.987,867.99 243.247,869.187 242.9,869.96C242.752,870.29 242.443,870.523 242.08,870.58C241.533,870.673 240.903,870.55 240.19,870.21C240.147,870.192 240.101,870.182 240.055,870.182C239.868,870.182 239.715,870.336 239.715,870.522C239.715,870.566 239.723,870.609 239.74,870.65C240.547,872.463 240.977,874.56 241.03,876.94C241.03,876.953 241.031,876.966 241.031,876.979C241.031,877.753 240.394,878.389 239.621,878.389C239.394,878.389 239.171,878.334 238.97,878.23L237.24,877.34C237.154,877.297 237.06,877.274 236.964,877.274C236.629,877.274 236.354,877.549 236.354,877.884C236.354,877.98 236.377,878.074 236.42,878.16C237.007,879.307 237.267,880.573 237.2,881.96C237.1,883.94 236.11,884.81 234.28,883.65C234.212,883.605 234.132,883.581 234.05,883.581C233.819,883.581 233.63,883.771 233.63,884.001C233.63,884.045 233.637,884.088 233.65,884.13C234.48,886.89 234.27,892.91 232.18,894.72C232.018,894.863 231.827,894.967 231.619,895.026C230.854,895.242 230.045,894.786 229.826,894.016C229.768,893.809 229.755,893.592 229.79,893.38L230.19,890.97C230.232,890.696 230.043,890.436 229.77,890.39L229.5,890.35C229.432,890.338 229.364,890.38 229.34,890.45C226.58,899.37 225.183,903.863 225.15,903.93C224.55,905.27 223.987,906.18 223.46,906.66C223.345,906.764 223.217,906.854 223.081,906.929C222.141,907.439 220.949,907.089 220.441,906.154C220.367,906.017 220.309,905.871 220.27,905.72C220.01,904.713 220.127,903.567 220.62,902.28C220.631,902.252 220.636,902.222 220.636,902.192C220.636,902.079 220.559,901.979 220.45,901.95L220.44,901.95C220.417,901.944 220.393,901.941 220.368,901.941C220.221,901.941 220.096,902.053 220.08,902.2C219.72,905.147 219.007,907.933 217.94,910.56C217.673,911.193 217.051,911.606 216.364,911.606C215.426,911.606 214.654,910.834 214.654,909.896C214.654,909.797 214.663,909.698 214.68,909.6C214.773,909.093 214.763,908.663 214.65,908.31C214.584,908.079 214.371,907.919 214.131,907.919C213.872,907.919 213.647,908.105 213.6,908.36C212.747,912.213 211.3,915.687 209.26,918.78C209.115,919.004 208.921,919.195 208.69,919.34C208.003,919.753 207.293,919.89 206.56,919.75C206.525,919.743 206.49,919.734 206.455,919.724C205.746,919.513 205.369,918.642 205.622,917.796C205.633,917.757 205.646,917.718 205.66,917.68C206.247,916.093 206.977,914.52 207.85,912.96C207.976,912.726 207.891,912.431 207.66,912.3L207.65,912.29C207.449,912.177 207.188,912.242 207.05,912.44C205.99,914.007 204.93,916.137 203.87,918.83C203.29,920.31 202.12,921.89 200.82,922.66C200.563,922.812 200.27,922.892 199.971,922.892C199.055,922.892 198.301,922.138 198.301,921.222C198.301,920.953 198.366,920.688 198.49,920.45L199.94,917.64C199.957,917.608 199.966,917.573 199.966,917.537C199.966,917.416 199.866,917.317 199.746,917.317C199.734,917.317 199.722,917.318 199.71,917.32L199.32,917.4C199.225,917.419 199.144,917.478 199.1,917.56L195.76,923.82C195.173,924.922 193.786,925.353 192.67,924.78L192.4,924.64C191.942,924.404 191.653,923.929 191.653,923.414C191.653,923.17 191.718,922.931 191.84,922.72L193.23,920.32C193.245,920.291 193.253,920.26 193.253,920.227C193.253,920.118 193.163,920.027 193.053,920.027C193.042,920.027 193.031,920.028 193.02,920.03L191.85,920.25C191.845,920.25 191.84,920.255 191.84,920.26C191.14,922.073 189.85,923.887 187.97,925.7C187.183,926.46 186.413,926.72 185.66,926.48C185.57,926.451 185.483,926.415 185.399,926.372C184.475,925.902 184.131,924.698 184.637,923.706C184.682,923.617 184.733,923.532 184.79,923.45C185.25,922.783 185.52,922.267 185.6,921.9C185.607,921.866 185.611,921.831 185.611,921.796C185.611,921.511 185.376,921.276 185.091,921.276C184.924,921.276 184.768,921.356 184.67,921.49C183.32,923.36 181.36,926.74 178.92,926.31C178.861,926.3 178.802,926.286 178.743,926.271C177.737,926.001 177.112,925.02 177.359,924.098C177.373,924.045 177.39,923.992 177.41,923.94C177.563,923.527 177.89,922.93 178.39,922.15C178.439,922.076 178.466,921.989 178.466,921.9C178.466,921.653 178.263,921.45 178.016,921.45C177.944,921.45 177.874,921.467 177.81,921.5C174.98,922.88 174.83,926.36 170.7,925.73C170.609,925.716 170.52,925.692 170.434,925.659C169.664,925.355 169.341,924.316 169.719,923.356C169.759,923.254 169.806,923.155 169.86,923.06C170.62,921.74 171.053,920.957 171.16,920.71C171.179,920.665 171.189,920.617 171.189,920.569C171.189,920.371 171.026,920.209 170.829,920.209C170.819,920.209 170.81,920.209 170.8,920.21C170.34,920.25 169.883,920.5 169.43,920.96C167.803,922.613 166.437,923.71 165.33,924.25C165.083,924.372 164.81,924.435 164.535,924.435C163.547,924.435 162.735,923.623 162.735,922.635C162.735,922.199 162.893,921.778 163.18,921.45L165.01,919.35C165.047,919.31 165.047,919.246 165.01,919.2L164.85,918.97C164.721,918.793 164.472,918.748 164.29,918.87C160.51,921.477 157.293,924.237 154.64,927.15C154.404,927.409 154.324,927.773 154.43,928.1C155.357,931.167 155.877,934.55 155.99,938.25C156.37,950.657 156.94,959.077 157.7,963.51C158.62,968.87 159.697,975.073 160.93,982.12C161.65,986.23 157.68,987.79 154.46,988.58C154.15,988.654 153.945,988.955 153.99,989.27C155.45,1000.47 158.72,1012.46 161.84,1024ZM191.256,707.607C191.256,707.607 191.256,707.606 191.256,707.606C191.116,707.459 190.828,707.501 190.616,707.701C190.616,707.701 190.616,707.701 190.616,707.701C190.405,707.9 190.345,708.186 190.484,708.333C190.484,708.333 190.484,708.334 190.484,708.334C190.624,708.481 190.912,708.439 191.124,708.239C191.124,708.239 191.124,708.239 191.124,708.239C191.335,708.04 191.395,707.754 191.256,707.607ZM161.021,708.976C161.021,708.976 161.021,708.976 161.021,708.976C160.927,708.536 157.636,708.858 153.73,709.688C149.823,710.518 146.686,711.564 146.779,712.004C146.779,712.004 146.779,712.004 146.779,712.004C146.873,712.444 150.164,712.122 154.071,711.292C157.977,710.462 161.114,709.416 161.021,708.976ZM116,727.15L129.19,718.49C129.248,718.453 129.283,718.389 129.283,718.321C129.283,718.281 129.272,718.243 129.25,718.21L128.83,717.58C128.718,717.497 125.684,719.363 122.08,721.73L121.8,721.91C118.17,724.294 115.241,726.348 115.31,726.46L115.73,727.1C115.792,727.185 115.911,727.207 116,727.15ZM252.897,737.026C252.786,737.294 254.89,738.42 257.558,739.52C257.558,739.52 257.558,739.52 257.558,739.52C260.226,740.62 262.512,741.303 262.623,741.034C262.623,741.034 262.623,741.034 262.623,741.034C262.734,740.766 260.63,739.64 257.962,738.54C257.962,738.54 257.962,738.54 257.962,738.54C255.294,737.44 253.008,736.757 252.897,737.026C252.897,737.026 252.897,737.026 252.897,737.026ZM151.56,758.54C151.47,758.446 151.32,758.437 151.22,758.52C148.553,760.787 145.467,762.763 141.96,764.45C135.833,767.397 131.683,769.243 129.51,769.99C127.23,770.777 123.653,771.603 118.78,772.47C118.589,772.503 118.448,772.67 118.448,772.864C118.448,772.918 118.459,772.971 118.48,773.02C122.827,783.413 125.47,790.247 126.41,793.52C127.497,797.3 125.503,799.323 120.43,799.59C120.248,799.597 120.103,799.748 120.103,799.93C120.103,799.953 120.105,799.977 120.11,800C120.617,802.747 120.72,804.857 120.42,806.33C120.415,806.352 120.412,806.375 120.41,806.397C120.387,806.692 120.616,806.955 120.916,806.979C120.937,806.98 120.959,806.981 120.98,806.98L138.91,806.26C139.797,806.228 140.64,805.86 141.27,805.23L143.61,802.89C143.812,802.688 144.07,802.552 144.35,802.5L145.93,802.2C146.369,802.115 146.779,801.915 147.12,801.62C151.69,797.62 156.73,793.88 162.47,792.01C176.98,787.3 196.1,787.07 205.83,800.99C206.041,801.289 206.415,801.426 206.76,801.33C211.427,800.037 216.507,799.7 222,800.32C222.67,800.398 223.346,800.227 223.9,799.84C232.007,794.153 241.007,790.287 250.9,788.24C250.904,788.239 250.907,788.239 250.911,788.238C251.189,788.174 251.366,787.897 251.304,787.624C251.302,787.62 251.301,787.615 251.3,787.61C250.787,785.57 249.92,784.237 248.7,783.61C245.44,781.94 241.79,780.51 237.94,780.21C234.987,779.977 233.31,779.833 232.91,779.78C231.802,779.627 230.969,778.669 230.969,777.551C230.969,777.376 230.989,777.201 231.03,777.03L231.05,776.96C231.378,775.611 232.602,774.658 233.99,774.67C239.003,774.717 243.52,775.823 247.54,777.99C247.582,778.012 247.628,778.024 247.676,778.024C247.835,778.024 247.966,777.893 247.966,777.734C247.966,777.702 247.96,777.67 247.95,777.64C246.13,772.54 244.077,767.413 241.79,762.26C240.33,758.967 238.887,756.69 237.46,755.43C230.24,749.05 221.5,744.22 212.71,738.86C212.455,738.706 212.129,738.734 211.91,738.93C205.45,744.71 196.91,748.01 190.36,752.43C188.88,753.43 187.83,753.89 187.21,753.81C184.52,753.48 184.47,749.65 184.91,747.4C184.914,747.378 184.916,747.355 184.916,747.332C184.916,747.135 184.754,746.972 184.556,746.972C184.465,746.972 184.377,747.007 184.31,747.07C180.2,750.98 174.46,755.31 170.16,758.14C164.86,761.63 156.82,764.95 150.86,763.75C150.774,763.732 150.689,763.708 150.607,763.677C149.728,763.348 149.274,762.359 149.601,761.486C149.631,761.404 149.668,761.326 149.71,761.25C150.197,760.383 150.813,759.633 151.56,759C151.56,759 151.561,758.999 151.561,758.999C151.684,758.89 151.698,758.702 151.593,758.583C151.592,758.582 151.591,758.581 151.59,758.58L151.56,758.54ZM252.57,791.9C244.223,794.073 236.76,797.227 230.18,801.36C229.654,801.69 229.302,802.237 229.22,802.85C228.94,804.98 228.07,806.04 225.71,805.56C225.01,805.413 224.467,805.573 224.08,806.04C217.81,813.54 218.02,824.33 224.95,831.3C234.417,840.827 245.937,844.14 259.51,841.24C260.997,841.127 262.117,840.78 262.87,840.2C269.97,837.44 273.12,834.19 276.75,828.09C278.23,825.6 279.27,824.47 281.22,822.02C281.568,821.581 281.795,821.06 281.88,820.51C282.87,814.07 279.69,806.31 276.37,800.53C271.61,792.26 265.36,790.6 256.3,791.31L252.57,791.9ZM204.43,807.57C204.243,807.61 204.03,807.733 203.79,807.94C203.443,808.253 203.047,808.33 202.6,808.17C201.16,807.683 200.42,806.68 200.38,805.16C200.364,804.812 200.526,804.477 200.81,804.27L201.9,803.47C202.139,803.293 202.279,803.013 202.279,802.715C202.279,802.489 202.198,802.271 202.05,802.1C192.93,791.57 178.46,792.05 166.12,795.43C159.13,797.34 153.65,801.51 148.68,806.91C148.607,806.983 148.523,807.044 148.43,807.09L145.59,808.53C145.37,808.643 145.178,808.803 145.03,809C144.477,809.74 144.08,810.82 143.84,812.24C142.02,823.1 146.91,832.18 155.59,838.42C165.337,845.42 176.127,848.12 187.96,846.52C199.84,844.91 209.42,838.47 209.49,825.54C209.53,819.413 208.183,813.583 205.45,808.05C205.268,807.677 204.844,807.478 204.43,807.57ZM122.79,810.71L114.51,810.89L97.02,812.36C96.749,812.385 96.538,812.615 96.538,812.888C96.538,813 96.574,813.109 96.64,813.2L100.76,818.73C101.667,821.85 101.187,824.47 99.32,826.59C98.013,824.43 96.897,822.22 95.97,819.96C94.11,815.44 90.63,811.16 85.35,814.72C82.61,816.573 81.313,819.437 81.46,823.31C81.767,831.05 85.223,837.413 91.83,842.4C95.75,845.353 99.693,848.317 103.66,851.29C103.88,853.92 107,856.79 108.64,858.39C108.807,858.557 108.904,858.779 108.91,859.01L109.04,862.21C109.057,862.589 109.287,862.924 109.63,863.07C110.703,863.53 111.82,863.79 112.98,863.85L115.8,872.67C115.82,873.177 115.947,873.607 116.18,873.96L117.25,877.55L118.19,880.74L120.39,887.52C120.583,888.293 121.06,889.1 121.82,889.94C121.847,890.76 122.017,891.52 122.33,892.22C122.917,894.18 123.797,895.917 124.97,897.43C125.79,898.49 127.313,899.657 129.54,900.93C131.54,902.077 133.54,903.383 135.54,904.85L138.71,907.62C139.283,908.507 140.127,909.217 141.24,909.75C142.193,910.83 143.623,911.357 145.53,911.33C146.35,912.583 148.267,913.12 151.28,912.94C152.207,913.747 153.227,913.847 154.34,913.24L156.92,913.95L161.73,914.63L162.23,914.83L165.69,916.18C165.789,916.219 165.895,916.237 166,916.23L167.46,916.11C168.387,916.583 169.38,916.607 170.44,916.18L175.23,917.35C175.997,917.517 176.57,917.317 176.95,916.75C178.717,916.75 180.233,916.97 181.5,917.41C184.227,917.877 185.877,917.26 186.45,915.56C187.397,914.78 188.43,914.193 189.55,913.8L189.52,914.42C189.36,915.273 189.527,915.773 190.02,915.92C190.02,916.06 190.027,916.183 190.04,916.29C190.07,916.584 190.321,916.811 190.617,916.811C190.69,916.811 190.762,916.797 190.83,916.77C191.77,916.397 192.587,915.823 193.28,915.05L196.35,913.84C197.143,914.393 198.153,913.753 199.38,911.92C201.127,912.08 202.74,911.337 204.22,909.69C205.753,909.05 207.003,907.903 207.97,906.25C209.943,905.55 211.55,904.613 212.79,903.44C213.057,902.953 213.203,902.85 213.23,903.13C214.71,902.697 215.847,901.867 216.64,900.64C217.54,899.24 218.477,897.877 219.45,896.55C219.783,896.163 219.917,896.1 219.85,896.36C221.757,895.66 223.223,894.287 224.25,892.24C225.57,889.587 226.043,887.11 225.67,884.81C225.59,882.863 225.947,880.97 226.74,879.13C226.886,878.8 227.209,878.582 227.57,878.57L228.98,878.51C229.264,878.5 229.503,878.29 229.55,878.01L230.48,872.38C230.512,872.189 230.62,872.019 230.78,871.91C231.953,871.117 232.397,869.747 232.11,867.8C232.056,867.468 231.771,867.221 231.44,867.22L227,867.22C226.643,867.221 226.316,867.028 226.15,866.72C225.063,864.76 223.327,864.297 220.94,865.33C220.937,865.331 220.933,865.333 220.93,865.334C220.571,865.484 220.153,865.317 220.005,864.962C220.003,864.958 220.002,864.954 220,864.95L219.27,863.13C219.146,862.825 218.848,862.624 218.519,862.624C218.286,862.624 218.064,862.725 217.91,862.9L216.5,864.52C215.864,865.244 214.945,865.66 213.98,865.66L213.49,865.66C213.489,865.66 213.488,865.66 213.487,865.66C212.971,865.66 212.547,865.236 212.547,864.72C212.547,864.492 212.63,864.271 212.78,864.1L217.18,859.06C217.277,858.949 217.33,858.807 217.33,858.659C217.33,858.448 217.22,858.251 217.04,858.14L217.02,858.12C216.59,857.898 216.064,857.971 215.71,858.3C211.803,862 209.467,864.1 208.7,864.6C207.633,865.287 206.703,865.31 205.91,864.67C205.646,864.454 205.519,864.109 205.58,863.77L206.03,861.38L208.52,859.11C211.82,856.47 215.583,855.26 219.81,855.48C220.145,855.492 220.457,855.654 220.66,855.92C221.32,856.74 221.403,857.73 220.91,858.89C220.661,859.457 220.892,860.13 221.44,860.43C228.96,864.55 237.04,863.23 245.37,861.12C254.68,858.77 257,854.04 259.21,845.37C259.219,845.337 259.223,845.303 259.223,845.269C259.223,845.05 259.042,844.869 258.823,844.869C258.792,844.869 258.76,844.873 258.73,844.88C249.557,846.853 240.537,845.74 231.67,841.54C217.15,834.66 209.09,819.38 218.99,804.57C219.06,804.466 219.097,804.344 219.097,804.219C219.097,803.889 218.839,803.612 218.51,803.59C215.137,803.403 211.83,803.743 208.59,804.61C208.572,804.615 208.553,804.621 208.535,804.628C208.222,804.745 208.06,805.096 208.176,805.404C208.183,805.423 208.191,805.442 208.2,805.46C211.28,811.627 212.813,818.053 212.8,824.74C212.76,837.44 205.82,845.43 194.01,848.82C180.25,852.78 167.397,851.027 155.45,843.56C144.48,836.71 136.89,825.34 138.9,812.05C138.902,812.034 138.904,812.018 138.906,812.002C138.945,811.57 138.618,811.182 138.181,811.143C138.167,811.141 138.154,811.141 138.14,811.14L122.79,810.71ZM118.6,908.28C126.893,910.927 133.507,915.743 138.44,922.73C141.04,926.41 140.36,932.61 140.32,937.84C140.32,937.841 140.32,937.843 140.32,937.844C140.32,938.151 140.573,938.404 140.88,938.404C140.963,938.404 141.045,938.386 141.12,938.35C144.24,936.86 145.91,934.83 147.6,931.23C149.88,926.363 153.367,922.293 158.06,919.02C158.129,918.971 158.188,918.909 158.234,918.838C158.423,918.542 158.338,918.145 158.046,917.96C157.975,917.914 157.894,917.883 157.81,917.87C152.62,917.04 144.24,918.3 139,913.74C133.81,909.21 131.16,906.64 126.44,904.19C125.686,903.797 124.784,903.812 124.05,904.23L118.51,907.39C118.358,907.477 118.264,907.64 118.264,907.815C118.264,908.026 118.4,908.214 118.6,908.28ZM152.58,940.42C152.571,940.284 152.457,940.178 152.321,940.178C152.231,940.178 152.147,940.224 152.1,940.3L145.79,951.16C145.441,951.746 145.303,952.435 145.4,953.11C146.84,963.29 145.09,974.38 146.61,985.16C146.681,985.655 147.11,986.026 147.61,986.026C147.67,986.026 147.731,986.021 147.79,986.01L156.41,984.4C157.174,984.257 157.732,983.584 157.732,982.808C157.732,982.684 157.718,982.561 157.69,982.44C154.363,968.2 152.66,954.193 152.58,940.42Z" style="fill-rule:nonzero;"/>
        <g transform="matrix(0.727773,-0.685818,0.685818,0.727773,190.87,707.97)">
            <ellipse cx="0" cy="0" rx="0.53" ry="0.37" style="fill:rgb(47,47,45);"/>
        </g>
        <g transform="matrix(0.978148,-0.207912,0.207912,0.978148,153.9,710.49)">
            <ellipse cx="0" cy="0" rx="7.28" ry="0.82" style="fill:rgb(122,127,112);"/>
        </g>
        <path d="M151.56,759C150.813,759.633 150.197,760.383 149.71,761.25C149.668,761.326 149.631,761.404 149.601,761.486C149.274,762.359 149.728,763.348 150.607,763.677C150.689,763.708 150.774,763.732 150.86,763.75C156.82,764.95 164.86,761.63 170.16,758.14C174.46,755.31 180.2,750.98 184.31,747.07C184.377,747.007 184.465,746.972 184.556,746.972C184.754,746.972 184.916,747.135 184.916,747.332C184.916,747.355 184.914,747.378 184.91,747.4C184.47,749.65 184.52,753.48 187.21,753.81C187.83,753.89 188.88,753.43 190.36,752.43C196.91,748.01 205.45,744.71 211.91,738.93C212.129,738.734 212.455,738.706 212.71,738.86C221.5,744.22 230.24,749.05 237.46,755.43C238.887,756.69 240.33,758.967 241.79,762.26C244.077,767.413 246.13,772.54 247.95,777.64C247.96,777.67 247.966,777.702 247.966,777.734C247.966,777.893 247.835,778.024 247.676,778.024C247.628,778.024 247.582,778.012 247.54,777.99C243.52,775.823 239.003,774.717 233.99,774.67C232.602,774.658 231.378,775.611 231.05,776.96L231.03,777.03C230.989,777.201 230.969,777.376 230.969,777.551C230.969,778.669 231.802,779.627 232.91,779.78C233.31,779.833 234.987,779.977 237.94,780.21C241.79,780.51 245.44,781.94 248.7,783.61C249.92,784.237 250.787,785.57 251.3,787.61C251.301,787.615 251.302,787.62 251.304,787.624C251.366,787.897 251.189,788.174 250.911,788.238C250.907,788.239 250.904,788.239 250.9,788.24C241.007,790.287 232.007,794.153 223.9,799.84C223.346,800.227 222.67,800.398 222,800.32C216.507,799.7 211.427,800.037 206.76,801.33C206.415,801.426 206.041,801.289 205.83,800.99C196.1,787.07 176.98,787.3 162.47,792.01C156.73,793.88 151.69,797.62 147.12,801.62C146.779,801.915 146.369,802.115 145.93,802.2L144.35,802.5C144.07,802.552 143.812,802.688 143.61,802.89L141.27,805.23C140.64,805.86 139.797,806.228 138.91,806.26L120.98,806.98C120.959,806.981 120.937,806.98 120.916,806.979C120.616,806.955 120.387,806.692 120.41,806.397C120.412,806.375 120.415,806.352 120.42,806.33C120.72,804.857 120.617,802.747 120.11,800C120.105,799.977 120.103,799.953 120.103,799.93C120.103,799.748 120.248,799.597 120.43,799.59C125.503,799.323 127.497,797.3 126.41,793.52C125.47,790.247 122.827,783.413 118.48,773.02C118.459,772.971 118.448,772.918 118.448,772.864C118.448,772.67 118.589,772.503 118.78,772.47C123.653,771.603 127.23,770.777 129.51,769.99C131.683,769.243 135.833,767.397 141.96,764.45C145.467,762.763 148.553,760.787 151.22,758.52C151.32,758.437 151.47,758.446 151.56,758.54L151.59,758.58C151.591,758.581 151.592,758.582 151.593,758.583C151.698,758.702 151.684,758.89 151.561,758.999C151.561,758.999 151.56,759 151.56,759ZM151.21,787.44C151.221,787.459 151.233,787.478 151.245,787.497C151.753,788.279 152.811,788.507 153.588,788.002C153.609,787.988 153.63,787.974 153.65,787.96C161.53,782.347 170.36,779.393 180.14,779.1C180.212,779.098 180.285,779.092 180.356,779.083C181.598,778.929 182.491,777.776 182.336,776.529C182.327,776.459 182.315,776.389 182.3,776.32L182.27,776.19C181.928,774.668 180.56,773.58 179,773.59C168.66,773.703 159.52,777.397 151.58,784.67C150.824,785.361 150.653,786.496 151.17,787.38L151.21,787.44Z" style="fill:rgb(253,253,253);fill-rule:nonzero;"/>
        <path d="M151.21,787.44L151.17,787.38C150.653,786.496 150.824,785.361 151.58,784.67C159.52,777.397 168.66,773.703 179,773.59C180.56,773.58 181.928,774.668 182.27,776.19L182.3,776.32C182.315,776.389 182.327,776.459 182.336,776.529C182.491,777.776 181.598,778.929 180.356,779.083C180.285,779.092 180.212,779.098 180.14,779.1C170.36,779.393 161.53,782.347 153.65,787.96C153.63,787.974 153.609,787.988 153.588,788.002C152.811,788.507 151.753,788.279 151.245,787.497C151.233,787.478 151.221,787.459 151.21,787.44Z" style="fill-rule:nonzero;"/>
        <path d="M256.3,791.31C258.02,795.29 259.487,799.307 260.7,803.36C262.84,810.49 264.3,815.02 263.96,821.26C263.62,827.427 263.257,833.74 262.87,840.2C262.117,840.78 260.997,841.127 259.51,841.24C259.803,833.307 260.1,825.39 260.4,817.49C260.473,815.557 260.423,814.23 260.25,813.51C258.423,805.957 255.863,798.753 252.57,791.9L256.3,791.31Z" style="fill:rgb(122,127,112);fill-rule:nonzero;"/>
        <path d="M262.87,840.2C263.257,833.74 263.62,827.427 263.96,821.26C264.3,815.02 262.84,810.49 260.7,803.36C259.487,799.307 258.02,795.29 256.3,791.31C265.36,790.6 271.61,792.26 276.37,800.53C279.69,806.31 282.87,814.07 281.88,820.51C281.795,821.06 281.568,821.581 281.22,822.02C279.27,824.47 278.23,825.6 276.75,828.09C273.12,834.19 269.97,837.44 262.87,840.2Z" style="fill:white;fill-opacity:0.56;fill-rule:nonzero;"/>
        <path d="M252.57,791.9C255.863,798.753 258.423,805.957 260.25,813.51C260.423,814.23 260.473,815.557 260.4,817.49C260.1,825.39 259.803,833.307 259.51,841.24C245.937,844.14 234.417,840.827 224.95,831.3C218.02,824.33 217.81,813.54 224.08,806.04C224.467,805.573 225.01,805.413 225.71,805.56C228.07,806.04 228.94,804.98 229.22,802.85C229.302,802.237 229.654,801.69 230.18,801.36C236.76,797.227 244.223,794.073 252.57,791.9ZM244.394,808.771C244.394,808.771 244.394,808.771 244.394,808.771C241.964,808.8 239.999,811.641 240.04,815.064C240.082,818.487 242.116,821.279 244.546,821.25C244.546,821.249 244.546,821.249 244.546,821.249C246.976,821.22 248.941,818.379 248.9,814.956C248.858,811.533 246.824,808.741 244.394,808.77Z" style="fill:rgb(253,253,253);fill-rule:nonzero;"/>
        <path d="M204.43,807.57C204.844,807.478 205.268,807.677 205.45,808.05C208.183,813.583 209.53,819.413 209.49,825.54C209.42,838.47 199.84,844.91 187.96,846.52C176.127,848.12 165.337,845.42 155.59,838.42C146.91,832.18 142.02,823.1 143.84,812.24C144.08,810.82 144.477,809.74 145.03,809C145.178,808.803 145.37,808.643 145.59,808.53L148.43,807.09C148.523,807.044 148.607,806.983 148.68,806.91C153.65,801.51 159.13,797.34 166.12,795.43C178.46,792.05 192.93,791.57 202.05,802.1C202.198,802.271 202.279,802.489 202.279,802.715C202.279,803.013 202.139,803.293 201.9,803.47L200.81,804.27C200.526,804.477 200.364,804.812 200.38,805.16C200.42,806.68 201.16,807.683 202.6,808.17C203.047,808.33 203.443,808.253 203.79,807.94C204.03,807.733 204.243,807.61 204.43,807.57ZM173.233,811.554C170.661,811.384 168.348,814.189 168.11,817.769C167.873,821.348 169.794,824.435 172.367,824.606C172.367,824.606 172.367,824.606 172.367,824.606C174.939,824.776 177.252,821.971 177.49,818.392C177.727,814.812 175.806,811.725 173.233,811.554C173.233,811.554 173.233,811.554 173.233,811.554Z" style="fill:rgb(253,253,253);fill-rule:nonzero;"/>
        <path d="M208.52,859.11L208.2,858.8C208.327,857.847 208.04,857.327 207.34,857.24C207.157,857.221 206.973,857.252 206.81,857.33L203.15,859.15C203.113,859.167 203.073,859.176 203.033,859.176C202.879,859.176 202.753,859.049 202.753,858.896C202.753,858.84 202.769,858.786 202.8,858.74L203.48,857.61C203.588,857.43 203.644,857.224 203.644,857.015C203.644,856.378 203.121,855.855 202.484,855.855C202.302,855.855 202.123,855.898 201.96,855.98L193.75,860.2C193.643,860.25 193.513,860.206 193.46,860.1L193.45,860.09C193.393,859.986 193.433,859.852 193.54,859.79C194.78,859.05 195.807,858.093 196.62,856.92C196.728,856.763 196.785,856.578 196.785,856.388C196.785,855.964 196.499,855.59 196.09,855.48C195.03,855.193 193.973,855.253 192.92,855.66C190.507,856.587 188.163,857.813 185.89,859.34C185.777,859.412 185.626,859.38 185.55,859.27L185.53,859.25C185.435,859.11 185.471,858.915 185.61,858.81C186.457,858.177 187.023,857.343 187.31,856.31C187.404,855.971 187.203,855.612 186.86,855.51C184.08,854.71 181.9,855.71 178.81,856.89C178.733,856.92 178.653,856.937 178.571,856.941C178.149,856.96 177.785,856.625 177.765,856.198C177.761,856.118 177.77,856.037 177.79,855.96C177.903,855.553 177.957,855.347 177.95,855.34C177.839,854.636 177.12,854.113 176.27,854.12C173.43,854.133 170.773,854.473 168.3,855.14C168.248,855.154 168.194,855.161 168.14,855.161C167.794,855.161 167.51,854.876 167.51,854.531C167.51,854.455 167.524,854.381 167.55,854.31L167.68,853.95C167.75,853.765 167.786,853.568 167.786,853.37C167.786,852.472 167.048,851.732 166.15,851.73C162.87,851.723 160.307,852.113 158.46,852.9C158.406,852.922 158.348,852.933 158.289,852.933C158.047,852.933 157.844,852.742 157.83,852.5C157.83,852.407 157.907,852.24 158.06,852C158.104,851.934 158.14,851.863 158.168,851.789C158.405,851.169 158.035,850.443 157.348,850.181C157.267,850.15 157.184,850.126 157.1,850.11C153.5,849.417 150.547,850.213 148.24,852.5C148.129,852.606 147.981,852.665 147.827,852.665C147.498,852.665 147.227,852.394 147.227,852.065C147.227,852.009 147.235,851.954 147.25,851.9C147.88,849.8 146.17,847.84 144.11,848.84C140.163,850.76 137.307,852.99 135.54,855.53C132.913,859.31 131.46,861.46 131.18,861.98C130.934,862.435 130.384,862.641 129.9,862.46L128.83,862.05C128.486,861.922 128.098,862 127.83,862.25C126.71,863.283 126.147,864.013 126.14,864.44C126.135,864.529 126.06,864.6 125.97,864.6C125.925,864.6 125.882,864.582 125.85,864.55L125.28,863.99C125.261,863.973 125.257,863.941 125.27,863.91C126.03,861.797 126.703,859.337 127.29,856.53C127.71,854.53 127.18,853.303 125.7,852.85C125.056,852.659 124.366,852.985 124.11,853.6L120.81,861.56C120.783,861.64 120.699,861.691 120.61,861.68L120.61,861.67C120.511,861.637 120.457,861.529 120.49,861.43C122.543,855.037 123.57,851.833 123.57,851.82C124.09,850.567 124.35,849.323 124.35,848.09C124.35,848.088 124.35,848.085 124.35,848.083C124.35,847.364 123.759,846.773 123.04,846.773C122.879,846.773 122.72,846.802 122.57,846.86C121.483,847.273 120.497,847.513 119.61,847.58C116.33,847.82 112.69,850.58 110.43,852.75C110.367,852.826 110.274,852.87 110.175,852.87C109.994,852.87 109.845,852.721 109.845,852.54C109.845,852.463 109.871,852.389 109.92,852.33C112.07,849.09 115.37,847.77 119.25,846.29C121.51,845.42 123.7,843.09 121.19,841.02C120.943,840.818 120.8,840.513 120.8,840.19L120.8,838.7C120.801,838.23 120.467,837.817 120,837.71C114.68,836.55 110.5,841.47 105.8,843.24C105.757,843.255 105.712,843.262 105.666,843.262C105.442,843.262 105.256,843.077 105.256,842.852C105.256,842.752 105.293,842.655 105.36,842.58L111.25,836.45C111.409,836.284 111.588,836.143 111.78,836.03L118.91,831.97C118.95,831.947 118.989,831.924 119.027,831.899C119.975,831.273 120.238,829.975 119.61,829.023C119.584,828.984 119.558,828.947 119.53,828.91L119.37,828.72C118.38,827.469 116.608,827.124 115.22,827.91L107.78,832.13C107.684,832.185 107.567,832.177 107.49,832.11L107.48,832.1C107.389,831.979 107.411,831.802 107.53,831.7C109.29,830.173 111.553,828.583 114.32,826.93C116.18,825.82 116.6,822.99 114.31,822.29C114.009,822.198 113.691,822.191 113.39,822.27C111.237,822.81 109.42,823.64 107.94,824.76C107.841,824.836 107.697,824.818 107.62,824.72L107.61,824.71C107.526,824.61 107.535,824.462 107.63,824.38C108.937,823.22 110.04,821.7 110.94,819.82C110.986,819.725 111.009,819.62 111.009,819.514C111.009,819.22 110.826,818.954 110.55,818.85C109.243,818.377 108.843,817.437 109.35,816.03C109.411,815.858 109.446,815.677 109.453,815.494C109.491,814.557 108.8,813.757 107.923,813.721C107.75,813.714 107.577,813.738 107.41,813.79C104.65,814.65 102.433,816.297 100.76,818.73L96.64,813.2C96.574,813.109 96.538,813 96.538,812.888C96.538,812.615 96.749,812.385 97.02,812.36L114.51,810.89L122.79,810.71L138.14,811.14C138.154,811.141 138.167,811.141 138.181,811.143C138.618,811.182 138.945,811.57 138.906,812.002C138.904,812.018 138.902,812.034 138.9,812.05C136.89,825.34 144.48,836.71 155.45,843.56C167.397,851.027 180.25,852.78 194.01,848.82C205.82,845.43 212.76,837.44 212.8,824.74C212.813,818.053 211.28,811.627 208.2,805.46C208.191,805.442 208.183,805.423 208.176,805.404C208.06,805.096 208.222,804.745 208.535,804.628C208.553,804.621 208.572,804.615 208.59,804.61C211.83,803.743 215.137,803.403 218.51,803.59C218.839,803.612 219.097,803.889 219.097,804.219C219.097,804.344 219.06,804.466 218.99,804.57C209.09,819.38 217.15,834.66 231.67,841.54C240.537,845.74 249.557,846.853 258.73,844.88C258.76,844.873 258.792,844.869 258.823,844.869C259.042,844.869 259.223,845.05 259.223,845.269C259.223,845.303 259.219,845.337 259.21,845.37C257,854.04 254.68,858.77 245.37,861.12C237.04,863.23 228.96,864.55 221.44,860.43C220.892,860.13 220.661,859.457 220.91,858.89C221.403,857.73 221.32,856.74 220.66,855.92C220.457,855.654 220.145,855.492 219.81,855.48C215.583,855.26 211.82,856.47 208.52,859.11Z" style="fill:rgb(253,253,253);fill-rule:nonzero;"/>
        <g transform="matrix(-0.012217,-0.999925,0.999925,-0.012217,244.47,815.01)">
            <ellipse cx="0" cy="0" rx="6.24" ry="4.43"/>
        </g>
        <path d="M122.79,810.71L114.51,810.89L122.79,810.71Z" style="fill:rgb(122,127,112);fill-rule:nonzero;"/>
        <g transform="matrix(0.0662739,-0.997801,0.997801,0.0662739,172.8,818.08)">
            <ellipse cx="0" cy="0" rx="6.54" ry="4.7"/>
        </g>
        <path d="M99.32,826.59C99.673,827.79 100.277,828.957 101.13,830.09C101.314,830.325 101.301,830.663 101.1,830.89C100.353,831.737 99.927,832.307 99.82,832.6C99.1,834.62 99.79,837.22 102.19,837.4C102.543,837.427 102.82,837.5 103.02,837.62C103.206,837.727 103.32,837.926 103.32,838.14C103.32,838.245 103.293,838.349 103.24,838.44C101.45,841.53 97.36,845.41 102.63,848.02C102.847,848.125 103.084,848.176 103.32,848.17L104.21,848.13C104.246,848.128 104.283,848.131 104.318,848.137C104.583,848.186 104.76,848.448 104.71,848.718C104.704,848.753 104.694,848.787 104.68,848.82L103.66,851.29C99.693,848.317 95.75,845.353 91.83,842.4C85.223,837.413 81.767,831.05 81.46,823.31C81.313,819.437 82.61,816.573 85.35,814.72C90.63,811.16 94.11,815.44 95.97,819.96C96.897,822.22 98.013,824.43 99.32,826.59ZM91.11,829.88L90.91,831.22C90.908,831.234 90.906,831.248 90.904,831.262C90.763,832.4 91.587,833.453 92.73,833.595C92.743,833.597 92.757,833.599 92.77,833.6C95.64,833.88 96.41,831.77 95.57,829.64C94.63,827.28 93.037,825.75 90.79,825.05C88.21,824.25 86.45,825.6 84.85,827.52C83.72,828.87 84.88,831.05 86.36,831.37C86.749,831.457 87.16,831.332 87.44,831.04L89.38,829.04C89.57,828.841 89.834,828.728 90.11,828.728C90.664,828.728 91.12,829.184 91.12,829.738C91.12,829.785 91.117,829.833 91.11,829.88Z" style="fill:rgb(253,253,253);fill-rule:nonzero;"/>
        <path d="M208.2,858.8C207.113,859.527 206.293,860.437 205.74,861.53L201.89,865.21C201.837,865.269 201.772,865.317 201.7,865.35C200.62,865.91 199.573,866.193 198.56,866.2C198.459,866.201 198.359,866.19 198.261,866.166C197.594,866.007 197.177,865.323 197.337,864.651C197.36,864.554 197.395,864.459 197.44,864.37L198.92,861.49C198.934,861.464 198.941,861.435 198.941,861.405C198.941,861.307 198.86,861.225 198.761,861.225C198.737,861.225 198.712,861.23 198.69,861.24C196.02,862.34 193.49,864.64 191.45,865.97C189.81,867.03 188.78,866.98 187.67,865.51C187.369,865.111 187.407,864.545 187.76,864.19L191.63,860.31C191.657,860.279 191.672,860.239 191.672,860.198C191.672,860.105 191.595,860.028 191.502,860.028C191.481,860.028 191.46,860.032 191.44,860.04C189.533,860.953 187.403,862.33 185.05,864.17C184.59,864.523 182.72,865.52 179.44,867.16C179.14,867.306 178.791,867.317 178.48,867.19C177.72,866.877 177.097,866.247 176.61,865.3C176.464,865.012 176.534,864.659 176.78,864.45L181.71,860.16C181.781,860.099 181.822,860.01 181.822,859.916C181.822,859.759 181.706,859.623 181.55,859.6C181.063,859.52 179.433,860.37 176.66,862.15C175.567,862.843 173.037,863.907 169.07,865.34C168.29,865.613 167.37,865.233 166.31,864.2C166.077,863.971 166.051,863.599 166.25,863.34C167.59,861.633 168.923,860.433 170.25,859.74C171.903,858.873 172.873,858.287 173.16,857.98C173.202,857.934 173.226,857.874 173.226,857.811C173.226,857.674 173.113,857.561 172.976,857.561C172.953,857.561 172.931,857.564 172.91,857.57C170.077,858.337 167.623,859.323 165.55,860.53C163.603,861.657 161.69,862.203 159.81,862.17C158.23,862.143 157.17,861.47 156.63,860.15C156.513,859.858 156.613,859.523 156.87,859.35L160.57,856.83C160.636,856.782 160.664,856.698 160.64,856.62L160.54,856.32C160.527,856.302 160.507,856.294 160.49,856.3L143.91,861.76C143.832,861.785 143.751,861.798 143.669,861.798C143.236,861.798 142.879,861.441 142.879,861.008C142.879,860.995 142.879,860.983 142.88,860.97L142.91,860.52C142.91,860.511 142.911,860.502 142.911,860.493C142.911,860.213 142.68,859.983 142.401,859.983C142.226,859.983 142.063,860.073 141.97,860.22C140.257,862.987 138.05,866.677 135.35,871.29C135.307,871.364 135.258,871.434 135.205,871.501C134.617,872.232 133.539,872.356 132.816,871.775C132.75,871.721 132.688,871.663 132.63,871.6C132.317,871.253 132.15,870.627 132.13,869.72C132.097,867.667 132.063,866.41 132.03,865.95C131.997,865.558 131.666,865.253 131.273,865.253C130.974,865.253 130.703,865.428 130.58,865.7L127.74,872.15C127.656,872.343 127.506,872.497 127.32,872.58C127.007,872.727 126.78,872.92 126.64,873.16C126.623,873.194 126.615,873.232 126.615,873.27C126.615,873.407 126.727,873.52 126.865,873.52C126.913,873.52 126.96,873.506 127,873.48L129.42,871.73C129.602,871.602 129.848,871.615 130.01,871.76C131.163,872.773 131.43,874.087 130.81,875.7C130.41,876.733 130.253,877.45 130.34,877.85C130.372,878.019 130.522,878.142 130.694,878.142C130.843,878.142 130.977,878.049 131.03,877.91C131.977,875.643 132.99,874.637 134.07,874.89C135.065,875.117 135.754,875.958 135.67,876.84C135.197,881.78 133.837,887.037 131.59,892.61C131.297,893.343 131.243,894.057 131.43,894.75C131.467,894.89 131.595,894.989 131.74,894.989C131.849,894.989 131.951,894.933 132.01,894.84C132.03,894.813 132.543,893.35 133.55,890.45C134.03,889.07 134.92,888.06 136.02,886.83C136.218,886.606 136.368,886.34 136.46,886.05L137.61,882.25C137.696,881.966 137.926,881.751 138.21,881.69C139.99,881.28 140.98,882.52 140.88,884.37C140.533,890.57 139.823,896.327 138.75,901.64C138.747,901.653 138.746,901.666 138.746,901.679C138.746,901.783 138.832,901.869 138.936,901.869C138.997,901.869 139.054,901.839 139.09,901.79C141.11,898.96 140.15,893.37 142.7,889.86C142.795,889.727 142.909,889.609 143.037,889.508C143.789,888.919 144.894,889.056 145.487,889.812C145.587,889.939 145.669,890.08 145.73,890.23L145.98,890.85C146,890.903 146.007,890.958 146,891.01L145.17,906.24C145.17,906.249 145.169,906.257 145.169,906.266C145.169,906.535 145.391,906.756 145.659,906.756C145.847,906.756 146.018,906.648 146.1,906.48C148.133,902.22 149.46,899.513 150.08,898.36C150.86,896.907 151.707,896.017 152.62,895.69C152.812,895.621 153.015,895.585 153.22,895.585C154.191,895.585 154.99,896.384 154.99,897.355C154.99,897.444 154.983,897.532 154.97,897.62L153.39,908.1C153.383,908.121 153.38,908.143 153.38,908.165C153.38,908.28 153.475,908.375 153.59,908.375C153.681,908.375 153.762,908.316 153.79,908.23C155.457,904.91 156.913,902.133 158.16,899.9C158.657,899.017 159.728,898.65 160.58,899.07C161.767,899.657 162.177,900.653 161.81,902.06C160.957,905.313 160.333,907.987 159.94,910.08C159.936,910.101 159.934,910.123 159.934,910.145C159.934,910.342 160.097,910.505 160.294,910.505C160.412,910.505 160.523,910.447 160.59,910.35C162.29,907.803 163.953,905.14 165.58,902.36C165.601,902.323 165.624,902.288 165.648,902.253C166.078,901.643 166.919,901.485 167.511,901.903C167.545,901.927 167.578,901.953 167.61,901.98C168.337,902.607 168.567,903.457 168.3,904.53C167.827,906.45 166.96,908.93 165.7,911.97C165.683,912.003 165.674,912.04 165.674,912.078C165.674,912.209 165.783,912.318 165.914,912.318C165.986,912.318 166.054,912.286 166.1,912.23C168.82,909.17 171.167,905.647 173.14,901.66C173.214,901.513 173.317,901.382 173.443,901.275C173.953,900.843 174.727,900.903 175.156,901.409C175.263,901.535 175.342,901.682 175.39,901.84C175.697,902.82 175.73,903.96 175.49,905.26C175.217,906.753 174.537,909.387 173.45,913.16C173.432,913.216 173.423,913.274 173.423,913.333C173.423,913.64 173.675,913.893 173.983,913.893C174.2,913.893 174.398,913.767 174.49,913.57L180.14,902.7C180.349,902.294 180.768,902.039 181.225,902.039C181.596,902.039 181.949,902.209 182.18,902.5C182.54,903.007 182.643,903.77 182.49,904.79C181.97,908.217 181.23,911.613 180.27,914.98C180.262,915.007 180.258,915.036 180.258,915.064C180.258,915.229 180.393,915.364 180.558,915.364C180.619,915.364 180.68,915.345 180.73,915.31C181.583,914.703 182.53,913.45 183.57,911.55C185.13,908.71 186.813,905.503 188.62,901.93C188.692,901.79 188.787,901.663 188.902,901.555C189.449,901.04 190.32,901.062 190.831,901.605C190.94,901.721 191.028,901.854 191.09,902C191.39,902.687 191.47,903.43 191.33,904.23C190.757,907.417 190.163,910.607 189.55,913.8C188.43,914.193 187.397,914.78 186.45,915.56L186.88,911.16C186.88,911.155 186.88,911.15 186.88,911.145C186.88,911.014 186.772,910.905 186.64,910.905C186.553,910.905 186.472,910.953 186.43,911.03L185.23,913.36C185.17,913.466 185.096,913.567 185.01,913.66L181.5,917.41C180.233,916.97 178.717,916.75 176.95,916.75L176.74,915.21C176.723,915.076 176.608,914.974 176.472,914.974C176.384,914.974 176.3,915.017 176.25,915.09C175.697,915.837 175.357,916.59 175.23,917.35L170.44,916.18C170.933,914.92 171.153,913.633 171.1,912.32C171.095,912.187 170.984,912.08 170.85,912.08C170.771,912.08 170.697,912.117 170.65,912.18C170.59,912.267 170.573,912.49 170.6,912.85C170.627,913.143 170.41,913.453 169.95,913.78C168.977,914.48 168.147,915.257 167.46,916.11L166,916.23C165.895,916.237 165.789,916.219 165.69,916.18L162.23,914.83C163.19,914.897 163.57,914.347 163.37,913.18C163.368,913.167 163.365,913.155 163.362,913.142C163.311,912.957 163.113,912.847 162.922,912.9C162.911,912.903 162.901,912.906 162.89,912.91C161.89,913.297 161.503,913.87 161.73,914.63L156.92,913.95L157.3,908.9C157.304,908.871 157.3,908.843 157.29,908.816C157.255,908.724 157.145,908.679 157.048,908.716C157.023,908.726 156.999,908.741 156.98,908.76C155.767,910.013 154.887,911.507 154.34,913.24C153.227,913.847 152.207,913.747 151.28,912.94C149.5,910.57 150.53,905.29 150.67,902.51C150.666,902.447 150.613,902.397 150.55,902.397C150.502,902.397 150.459,902.426 150.44,902.47C149.36,905.83 148.58,909 145.53,911.33C143.623,911.357 142.193,910.83 141.24,909.75C141.233,908.817 140.84,908.043 140.06,907.43C139.487,906.977 139.037,907.04 138.71,907.62L135.54,904.85L135.91,894.09C135.911,894.082 135.911,894.074 135.911,894.067C135.911,893.951 135.817,893.857 135.701,893.857C135.619,893.857 135.544,893.905 135.51,893.98C134.62,895.76 132.02,900.46 129.71,899.95C124.99,898.89 126.84,893.32 128.04,890.23C128.04,890.229 128.041,890.229 128.041,890.228C128.077,890.136 128.028,890.029 127.931,889.99C127.931,889.99 127.93,889.99 127.93,889.99L127.93,889.98C127.82,889.941 127.698,889.989 127.65,890.09C126.977,891.43 126.093,892.597 125,893.59C124.762,893.804 124.399,893.817 124.14,893.62L122.33,892.22C122.017,891.52 121.847,890.76 121.82,889.94C122.013,888.12 121.537,887.313 120.39,887.52L118.19,880.74C118.29,879.26 118.09,877.843 117.59,876.49L118,874.97C118.088,874.662 118.02,874.33 117.82,874.08C117.353,873.493 116.807,873.453 116.18,873.96C115.947,873.607 115.82,873.177 115.8,872.67C116.26,871.497 116.113,870.093 115.36,868.46C115.27,868.259 115.248,868.037 115.3,867.83L117.15,859.95C117.153,859.934 117.155,859.918 117.155,859.902C117.155,859.765 117.042,859.652 116.905,859.652C116.865,859.652 116.825,859.662 116.79,859.68C114.997,860.647 113.727,862.037 112.98,863.85C111.82,863.79 110.703,863.53 109.63,863.07C109.287,862.924 109.057,862.589 109.04,862.21L108.91,859.01C108.904,858.779 108.807,858.557 108.64,858.39C107,856.79 103.88,853.92 103.66,851.29L104.68,848.82C104.694,848.787 104.704,848.753 104.71,848.718C104.76,848.448 104.583,848.186 104.318,848.137C104.283,848.131 104.246,848.128 104.21,848.13L103.32,848.17C103.084,848.176 102.847,848.125 102.63,848.02C97.36,845.41 101.45,841.53 103.24,838.44C103.293,838.349 103.32,838.245 103.32,838.14C103.32,837.926 103.206,837.727 103.02,837.62C102.82,837.5 102.543,837.427 102.19,837.4C99.79,837.22 99.1,834.62 99.82,832.6C99.927,832.307 100.353,831.737 101.1,830.89C101.301,830.663 101.314,830.325 101.13,830.09C100.277,828.957 99.673,827.79 99.32,826.59C101.187,824.47 101.667,821.85 100.76,818.73C102.433,816.297 104.65,814.65 107.41,813.79C107.577,813.738 107.75,813.714 107.923,813.721C108.8,813.757 109.491,814.557 109.453,815.494C109.446,815.677 109.411,815.858 109.35,816.03C108.843,817.437 109.243,818.377 110.55,818.85C110.826,818.954 111.009,819.22 111.009,819.514C111.009,819.62 110.986,819.725 110.94,819.82C110.04,821.7 108.937,823.22 107.63,824.38C107.535,824.462 107.526,824.61 107.61,824.71L107.62,824.72C107.697,824.818 107.841,824.836 107.94,824.76C109.42,823.64 111.237,822.81 113.39,822.27C113.691,822.191 114.009,822.198 114.31,822.29C116.6,822.99 116.18,825.82 114.32,826.93C111.553,828.583 109.29,830.173 107.53,831.7C107.411,831.802 107.389,831.979 107.48,832.1L107.49,832.11C107.567,832.177 107.684,832.185 107.78,832.13L115.22,827.91C116.608,827.124 118.38,827.469 119.37,828.72L119.53,828.91C119.558,828.947 119.584,828.984 119.61,829.023C120.238,829.975 119.975,831.273 119.027,831.899C118.989,831.924 118.95,831.947 118.91,831.97L111.78,836.03C111.588,836.143 111.409,836.284 111.25,836.45L105.36,842.58C105.293,842.655 105.256,842.752 105.256,842.852C105.256,843.077 105.442,843.262 105.666,843.262C105.712,843.262 105.757,843.255 105.8,843.24C110.5,841.47 114.68,836.55 120,837.71C120.467,837.817 120.801,838.23 120.8,838.7L120.8,840.19C120.8,840.513 120.943,840.818 121.19,841.02C123.7,843.09 121.51,845.42 119.25,846.29C115.37,847.77 112.07,849.09 109.92,852.33C109.871,852.389 109.845,852.463 109.845,852.54C109.845,852.721 109.994,852.87 110.175,852.87C110.274,852.87 110.367,852.826 110.43,852.75C112.69,850.58 116.33,847.82 119.61,847.58C120.497,847.513 121.483,847.273 122.57,846.86C122.72,846.802 122.879,846.773 123.04,846.773C123.759,846.773 124.35,847.364 124.35,848.083C124.35,848.085 124.35,848.088 124.35,848.09C124.35,849.323 124.09,850.567 123.57,851.82C123.57,851.833 122.543,855.037 120.49,861.43C120.457,861.529 120.511,861.637 120.61,861.67L120.61,861.68C120.699,861.691 120.783,861.64 120.81,861.56L124.11,853.6C124.366,852.985 125.056,852.659 125.7,852.85C127.18,853.303 127.71,854.53 127.29,856.53C126.703,859.337 126.03,861.797 125.27,863.91C125.257,863.941 125.261,863.973 125.28,863.99L125.85,864.55C125.882,864.582 125.925,864.6 125.97,864.6C126.06,864.6 126.135,864.529 126.14,864.44C126.147,864.013 126.71,863.283 127.83,862.25C128.098,862 128.486,861.922 128.83,862.05L129.9,862.46C130.384,862.641 130.934,862.435 131.18,861.98C131.46,861.46 132.913,859.31 135.54,855.53C137.307,852.99 140.163,850.76 144.11,848.84C146.17,847.84 147.88,849.8 147.25,851.9C147.235,851.954 147.227,852.009 147.227,852.065C147.227,852.394 147.498,852.665 147.827,852.665C147.981,852.665 148.129,852.606 148.24,852.5C150.547,850.213 153.5,849.417 157.1,850.11C157.184,850.126 157.267,850.15 157.348,850.181C158.035,850.443 158.405,851.169 158.168,851.789C158.14,851.863 158.104,851.934 158.06,852C157.907,852.24 157.83,852.407 157.83,852.5C157.844,852.742 158.047,852.933 158.289,852.933C158.348,852.933 158.406,852.922 158.46,852.9C160.307,852.113 162.87,851.723 166.15,851.73C167.048,851.732 167.786,852.472 167.786,853.37C167.786,853.568 167.75,853.765 167.68,853.95L167.55,854.31C167.524,854.381 167.51,854.455 167.51,854.531C167.51,854.876 167.794,855.161 168.14,855.161C168.194,855.161 168.248,855.154 168.3,855.14C170.773,854.473 173.43,854.133 176.27,854.12C177.12,854.113 177.839,854.636 177.95,855.34C177.957,855.347 177.903,855.553 177.79,855.96C177.77,856.037 177.761,856.118 177.765,856.198C177.785,856.625 178.149,856.96 178.571,856.941C178.653,856.937 178.733,856.92 178.81,856.89C181.9,855.71 184.08,854.71 186.86,855.51C187.203,855.612 187.404,855.971 187.31,856.31C187.023,857.343 186.457,858.177 185.61,858.81C185.471,858.915 185.435,859.11 185.53,859.25L185.55,859.27C185.626,859.38 185.777,859.412 185.89,859.34C188.163,857.813 190.507,856.587 192.92,855.66C193.973,855.253 195.03,855.193 196.09,855.48C196.499,855.59 196.785,855.964 196.785,856.388C196.785,856.578 196.728,856.763 196.62,856.92C195.807,858.093 194.78,859.05 193.54,859.79C193.433,859.852 193.393,859.986 193.45,860.09L193.46,860.1C193.513,860.206 193.643,860.25 193.75,860.2L201.96,855.98C202.123,855.898 202.302,855.855 202.484,855.855C203.121,855.855 203.644,856.378 203.644,857.015C203.644,857.224 203.588,857.43 203.48,857.61L202.8,858.74C202.769,858.786 202.753,858.84 202.753,858.896C202.753,859.049 202.879,859.176 203.033,859.176C203.073,859.176 203.113,859.167 203.15,859.15L206.81,857.33C206.973,857.252 207.157,857.221 207.34,857.24C208.04,857.327 208.327,857.847 208.2,858.8Z" style="fill:rgb(47,47,45);fill-rule:nonzero;"/>
        <path d="M91.11,829.88C91.117,829.833 91.12,829.785 91.12,829.738C91.12,829.184 90.664,828.728 90.11,828.728C89.834,828.728 89.57,828.841 89.38,829.04L87.44,831.04C87.16,831.332 86.749,831.457 86.36,831.37C84.88,831.05 83.72,828.87 84.85,827.52C86.45,825.6 88.21,824.25 90.79,825.05C93.037,825.75 94.63,827.28 95.57,829.64C96.41,831.77 95.64,833.88 92.77,833.6C92.757,833.599 92.743,833.597 92.73,833.595C91.587,833.453 90.763,832.4 90.904,831.262C90.906,831.248 90.908,831.234 90.91,831.22L91.11,829.88Z" style="fill-rule:nonzero;"/>
        <path d="M205.74,861.53C205.833,861.483 205.93,861.433 206.03,861.38L205.58,863.77C205.519,864.109 205.646,864.454 205.91,864.67C206.703,865.31 207.633,865.287 208.7,864.6C209.467,864.1 211.803,862 215.71,858.3C216.064,857.971 216.59,857.898 217.02,858.12L217.04,858.14C217.22,858.251 217.33,858.448 217.33,858.659C217.33,858.807 217.277,858.949 217.18,859.06L212.78,864.1C212.63,864.271 212.547,864.492 212.547,864.72C212.547,865.236 212.971,865.66 213.487,865.66C213.488,865.66 213.489,865.66 213.49,865.66L213.98,865.66C214.945,865.66 215.864,865.244 216.5,864.52L217.91,862.9C218.064,862.725 218.286,862.624 218.519,862.624C218.848,862.624 219.146,862.825 219.27,863.13L220,864.95C220.002,864.954 220.003,864.958 220.005,864.962C220.153,865.317 220.571,865.484 220.93,865.334C220.933,865.333 220.937,865.331 220.94,865.33C223.327,864.297 225.063,864.76 226.15,866.72C226.316,867.028 226.643,867.221 227,867.22L231.44,867.22C231.771,867.221 232.056,867.468 232.11,867.8C232.397,869.747 231.953,871.117 230.78,871.91C230.62,872.019 230.512,872.189 230.48,872.38L229.55,878.01C229.503,878.29 229.264,878.5 228.98,878.51L227.57,878.57C227.209,878.582 226.886,878.8 226.74,879.13C225.947,880.97 225.59,882.863 225.67,884.81C225.67,885.303 225.607,885.677 225.48,885.93C225.392,886.106 225.212,886.218 225.015,886.218C224.81,886.218 224.624,886.097 224.54,885.91C224.467,885.743 224.39,885.52 224.31,885.24C224.217,884.893 223.88,884.793 223.3,884.94C220.39,885.65 220.46,890.51 220.11,893.49L219.74,893.82C219.733,893.826 219.726,893.831 219.719,893.836C219.576,893.938 219.377,893.908 219.278,893.769C219.272,893.76 219.266,893.75 219.26,893.74L219.06,893.38C218.773,892.62 218.36,892.21 217.82,892.15C216.784,892.023 215.802,892.694 215.54,893.71C215.3,894.643 215.06,895.73 214.82,896.97C214.313,897.297 213.8,897.487 213.28,897.54C209.74,897.41 208.87,902.77 207.97,906.25C207.003,907.903 205.753,909.05 204.22,909.69C205.29,906.48 206.86,902.85 206.65,899.56C206.598,898.815 205.97,898.23 205.223,898.23C204.624,898.23 204.085,898.607 203.88,899.17L199.38,911.92C198.153,913.753 197.143,914.393 196.35,913.84C197.18,909.8 198.85,906.01 198.93,901.96C198.93,901.947 198.931,901.935 198.931,901.922C198.931,901.193 198.33,900.592 197.601,900.592C197.089,900.592 196.62,900.888 196.4,901.35L190.02,914.58C189.989,914.647 189.922,914.689 189.848,914.689C189.796,914.689 189.746,914.668 189.71,914.63C189.657,914.57 189.593,914.5 189.52,914.42L189.55,913.8C190.163,910.607 190.757,907.417 191.33,904.23C191.47,903.43 191.39,902.687 191.09,902C191.028,901.854 190.94,901.721 190.831,901.605C190.32,901.062 189.449,901.04 188.902,901.555C188.787,901.663 188.692,901.79 188.62,901.93C186.813,905.503 185.13,908.71 183.57,911.55C182.53,913.45 181.583,914.703 180.73,915.31C180.68,915.345 180.619,915.364 180.558,915.364C180.393,915.364 180.258,915.229 180.258,915.064C180.258,915.036 180.262,915.007 180.27,914.98C181.23,911.613 181.97,908.217 182.49,904.79C182.643,903.77 182.54,903.007 182.18,902.5C181.949,902.209 181.596,902.039 181.225,902.039C180.768,902.039 180.349,902.294 180.14,902.7L174.49,913.57C174.398,913.767 174.2,913.893 173.983,913.893C173.675,913.893 173.423,913.64 173.423,913.333C173.423,913.274 173.432,913.216 173.45,913.16C174.537,909.387 175.217,906.753 175.49,905.26C175.73,903.96 175.697,902.82 175.39,901.84C175.342,901.682 175.263,901.535 175.156,901.409C174.727,900.903 173.953,900.843 173.443,901.275C173.317,901.382 173.214,901.513 173.14,901.66C171.167,905.647 168.82,909.17 166.1,912.23C166.054,912.286 165.986,912.318 165.914,912.318C165.783,912.318 165.674,912.209 165.674,912.078C165.674,912.04 165.683,912.003 165.7,911.97C166.96,908.93 167.827,906.45 168.3,904.53C168.567,903.457 168.337,902.607 167.61,901.98C167.578,901.953 167.545,901.927 167.511,901.903C166.919,901.485 166.078,901.643 165.648,902.253C165.624,902.288 165.601,902.323 165.58,902.36C163.953,905.14 162.29,907.803 160.59,910.35C160.523,910.447 160.412,910.505 160.294,910.505C160.097,910.505 159.934,910.342 159.934,910.145C159.934,910.123 159.936,910.101 159.94,910.08C160.333,907.987 160.957,905.313 161.81,902.06C162.177,900.653 161.767,899.657 160.58,899.07C159.728,898.65 158.657,899.017 158.16,899.9C156.913,902.133 155.457,904.91 153.79,908.23C153.762,908.316 153.681,908.375 153.59,908.375C153.475,908.375 153.38,908.28 153.38,908.165C153.38,908.143 153.383,908.121 153.39,908.1L154.97,897.62C154.983,897.532 154.99,897.444 154.99,897.355C154.99,896.384 154.191,895.585 153.22,895.585C153.015,895.585 152.812,895.621 152.62,895.69C151.707,896.017 150.86,896.907 150.08,898.36C149.46,899.513 148.133,902.22 146.1,906.48C146.018,906.648 145.847,906.756 145.659,906.756C145.391,906.756 145.169,906.535 145.169,906.266C145.169,906.257 145.17,906.249 145.17,906.24L146,891.01C146.007,890.958 146,890.903 145.98,890.85L145.73,890.23C145.669,890.08 145.587,889.939 145.487,889.812C144.894,889.056 143.789,888.919 143.037,889.508C142.909,889.609 142.795,889.727 142.7,889.86C140.15,893.37 141.11,898.96 139.09,901.79C139.054,901.839 138.997,901.869 138.936,901.869C138.832,901.869 138.746,901.783 138.746,901.679C138.746,901.666 138.747,901.653 138.75,901.64C139.823,896.327 140.533,890.57 140.88,884.37C140.98,882.52 139.99,881.28 138.21,881.69C137.926,881.751 137.696,881.966 137.61,882.25L136.46,886.05C136.368,886.34 136.218,886.606 136.02,886.83C134.92,888.06 134.03,889.07 133.55,890.45C132.543,893.35 132.03,894.813 132.01,894.84C131.951,894.933 131.849,894.989 131.74,894.989C131.595,894.989 131.467,894.89 131.43,894.75C131.243,894.057 131.297,893.343 131.59,892.61C133.837,887.037 135.197,881.78 135.67,876.84C135.754,875.958 135.065,875.117 134.07,874.89C132.99,874.637 131.977,875.643 131.03,877.91C130.977,878.049 130.843,878.142 130.694,878.142C130.522,878.142 130.372,878.019 130.34,877.85C130.253,877.45 130.41,876.733 130.81,875.7C131.43,874.087 131.163,872.773 130.01,871.76C129.848,871.615 129.602,871.602 129.42,871.73L127,873.48C126.96,873.506 126.913,873.52 126.865,873.52C126.727,873.52 126.615,873.407 126.615,873.27C126.615,873.232 126.623,873.194 126.64,873.16C126.78,872.92 127.007,872.727 127.32,872.58C127.506,872.497 127.656,872.343 127.74,872.15L130.58,865.7C130.703,865.428 130.974,865.253 131.273,865.253C131.666,865.253 131.997,865.558 132.03,865.95C132.063,866.41 132.097,867.667 132.13,869.72C132.15,870.627 132.317,871.253 132.63,871.6C132.688,871.663 132.75,871.721 132.816,871.775C133.539,872.356 134.617,872.232 135.205,871.501C135.258,871.434 135.307,871.364 135.35,871.29C138.05,866.677 140.257,862.987 141.97,860.22C142.063,860.073 142.226,859.983 142.401,859.983C142.68,859.983 142.911,860.213 142.911,860.493C142.911,860.502 142.91,860.511 142.91,860.52L142.88,860.97C142.879,860.983 142.879,860.995 142.879,861.008C142.879,861.441 143.236,861.798 143.669,861.798C143.751,861.798 143.832,861.785 143.91,861.76L160.49,856.3C160.507,856.294 160.527,856.302 160.54,856.32L160.64,856.62C160.664,856.698 160.636,856.782 160.57,856.83L156.87,859.35C156.613,859.523 156.513,859.858 156.63,860.15C157.17,861.47 158.23,862.143 159.81,862.17C161.69,862.203 163.603,861.657 165.55,860.53C167.623,859.323 170.077,858.337 172.91,857.57C172.931,857.564 172.953,857.561 172.976,857.561C173.113,857.561 173.226,857.674 173.226,857.811C173.226,857.874 173.202,857.934 173.16,857.98C172.873,858.287 171.903,858.873 170.25,859.74C168.923,860.433 167.59,861.633 166.25,863.34C166.051,863.599 166.077,863.971 166.31,864.2C167.37,865.233 168.29,865.613 169.07,865.34C173.037,863.907 175.567,862.843 176.66,862.15C179.433,860.37 181.063,859.52 181.55,859.6C181.706,859.623 181.822,859.759 181.822,859.916C181.822,860.01 181.781,860.099 181.71,860.16L176.78,864.45C176.534,864.659 176.464,865.012 176.61,865.3C177.097,866.247 177.72,866.877 178.48,867.19C178.791,867.317 179.14,867.306 179.44,867.16C182.72,865.52 184.59,864.523 185.05,864.17C187.403,862.33 189.533,860.953 191.44,860.04C191.46,860.032 191.481,860.028 191.502,860.028C191.595,860.028 191.672,860.105 191.672,860.198C191.672,860.239 191.657,860.279 191.63,860.31L187.76,864.19C187.407,864.545 187.369,865.111 187.67,865.51C188.78,866.98 189.81,867.03 191.45,865.97C193.49,864.64 196.02,862.34 198.69,861.24C198.712,861.23 198.737,861.225 198.761,861.225C198.86,861.225 198.941,861.307 198.941,861.405C198.941,861.435 198.934,861.464 198.92,861.49L197.44,864.37C197.395,864.459 197.36,864.554 197.337,864.651C197.177,865.323 197.594,866.007 198.261,866.166C198.359,866.19 198.459,866.201 198.56,866.2C199.573,866.193 200.62,865.91 201.7,865.35C201.772,865.317 201.837,865.269 201.89,865.21L205.74,861.53ZM153.76,866.66C154.66,866.54 155.327,866.307 155.76,865.96C156.066,865.713 156.245,865.341 156.245,864.948C156.245,864.407 155.907,863.92 155.4,863.73C151.13,862.16 146.74,866.01 144.93,869.64C144.75,870.007 144.718,870.426 144.84,870.81C145.073,871.537 145.57,871.99 146.33,872.17C146.707,872.256 147.101,872.12 147.34,871.82L148.99,869.74C148.996,869.733 149.002,869.725 149.008,869.718C149.186,869.524 149.488,869.506 149.679,869.68C149.686,869.686 149.693,869.693 149.7,869.7C156.48,876.66 164.8,881.22 174.66,883.38C184.72,885.58 196.6,885.39 206.42,881.12C207.371,880.71 207.917,879.689 207.73,878.67L207.72,878.57C207.589,877.834 206.942,877.292 206.194,877.292C206.019,877.292 205.845,877.322 205.68,877.38C192.747,881.913 180.04,881.743 167.56,876.87C161.893,874.663 157.133,871.76 153.28,868.16C153.103,867.995 153.002,867.764 153.002,867.523C153.002,867.088 153.329,866.716 153.76,866.66ZM180.39,892.94C182.82,893.14 187.65,893.21 188.64,891.12C188.697,891.002 188.737,890.876 188.756,890.746C188.866,890.019 188.341,889.328 187.592,889.215C187.462,889.195 187.33,889.193 187.2,889.21C184.567,889.557 182.39,889.66 180.67,889.52C178.957,889.38 176.827,888.927 174.28,888.16C174.156,888.123 174.028,888.104 173.898,888.102C173.141,888.092 172.51,888.688 172.5,889.423C172.498,889.55 172.515,889.677 172.55,889.8C173.19,892.03 177.96,892.74 180.39,892.94Z" style="fill:rgb(253,253,253);fill-rule:nonzero;"/>
        <path d="M208.2,858.8L208.52,859.11L206.03,861.38C205.93,861.433 205.833,861.483 205.74,861.53C206.293,860.437 207.113,859.527 208.2,858.8Z" style="fill:rgb(122,127,112);fill-rule:nonzero;"/>
        <path d="M115.8,872.67L112.98,863.85C113.727,862.037 114.997,860.647 116.79,859.68C116.825,859.662 116.865,859.652 116.905,859.652C117.042,859.652 117.155,859.765 117.155,859.902C117.155,859.918 117.153,859.934 117.15,859.95L115.3,867.83C115.248,868.037 115.27,868.259 115.36,868.46C116.113,870.093 116.26,871.497 115.8,872.67Z" style="fill:rgb(253,253,253);fill-rule:nonzero;"/>
        <path d="M153.76,866.66C153.329,866.716 153.002,867.088 153.002,867.523C153.002,867.764 153.103,867.995 153.28,868.16C157.133,871.76 161.893,874.663 167.56,876.87C180.04,881.743 192.747,881.913 205.68,877.38C205.845,877.322 206.019,877.292 206.194,877.292C206.942,877.292 207.589,877.834 207.72,878.57L207.73,878.67C207.917,879.689 207.371,880.71 206.42,881.12C196.6,885.39 184.72,885.58 174.66,883.38C164.8,881.22 156.48,876.66 149.7,869.7C149.693,869.693 149.686,869.686 149.679,869.68C149.488,869.506 149.186,869.524 149.008,869.718C149.002,869.725 148.996,869.733 148.99,869.74L147.34,871.82C147.101,872.12 146.707,872.256 146.33,872.17C145.57,871.99 145.073,871.537 144.84,870.81C144.718,870.426 144.75,870.007 144.93,869.64C146.74,866.01 151.13,862.16 155.4,863.73C155.907,863.92 156.245,864.407 156.245,864.948C156.245,865.341 156.066,865.713 155.76,865.96C155.327,866.307 154.66,866.54 153.76,866.66Z" style="fill-rule:nonzero;"/>
        <path d="M117.59,876.49C117.59,876.877 117.477,877.23 117.25,877.55L116.18,873.96C116.807,873.453 117.353,873.493 117.82,874.08C118.02,874.33 118.088,874.662 118,874.97L117.59,876.49Z" style="fill:white;fill-opacity:0.56;fill-rule:nonzero;"/>
        <path d="M117.59,876.49C118.09,877.843 118.29,879.26 118.19,880.74L117.25,877.55C117.477,877.23 117.59,876.877 117.59,876.49Z" style="fill:rgb(122,127,112);fill-rule:nonzero;"/>
        <path d="M225.67,884.81C226.043,887.11 225.57,889.587 224.25,892.24C223.223,894.287 221.757,895.66 219.85,896.36C219.763,895.22 219.85,894.263 220.11,893.49C220.46,890.51 220.39,885.65 223.3,884.94C223.88,884.793 224.217,884.893 224.31,885.24C224.39,885.52 224.467,885.743 224.54,885.91C224.624,886.097 224.81,886.218 225.015,886.218C225.212,886.218 225.392,886.106 225.48,885.93C225.607,885.677 225.67,885.303 225.67,884.81Z" style="fill:rgb(47,47,45);fill-rule:nonzero;"/>
        <path d="M121.82,889.94C121.06,889.1 120.583,888.293 120.39,887.52C121.537,887.313 122.013,888.12 121.82,889.94Z" style="fill:white;fill-opacity:0.56;fill-rule:nonzero;"/>
        <path d="M180.67,889.52C182.39,889.66 184.567,889.557 187.2,889.21C187.33,889.193 187.462,889.195 187.592,889.215C188.341,889.328 188.866,890.019 188.756,890.746C188.737,890.876 188.697,891.002 188.64,891.12C187.65,893.21 182.82,893.14 180.39,892.94C177.96,892.74 173.19,892.03 172.55,889.8C172.515,889.677 172.498,889.55 172.5,889.423C172.51,888.688 173.141,888.092 173.898,888.102C174.028,888.104 174.156,888.123 174.28,888.16C176.827,888.927 178.957,889.38 180.67,889.52Z" style="fill-rule:nonzero;"/>
        <path d="M135.54,904.85C133.54,903.383 131.54,902.077 129.54,900.93C127.313,899.657 125.79,898.49 124.97,897.43C123.797,895.917 122.917,894.18 122.33,892.22L124.14,893.62C124.399,893.817 124.762,893.804 125,893.59C126.093,892.597 126.977,891.43 127.65,890.09C127.698,889.989 127.82,889.941 127.93,889.98L127.93,889.99C127.93,889.99 127.931,889.99 127.931,889.99C128.028,890.029 128.077,890.136 128.041,890.228C128.041,890.229 128.04,890.229 128.04,890.23C126.84,893.32 124.99,898.89 129.71,899.95C132.02,900.46 134.62,895.76 135.51,893.98C135.544,893.905 135.619,893.857 135.701,893.857C135.817,893.857 135.911,893.951 135.911,894.067C135.911,894.074 135.911,894.082 135.91,894.09L135.54,904.85Z" style="fill:rgb(253,253,253);fill-rule:nonzero;"/>
        <path d="M219.06,893.38C218.953,894.153 218.823,894.937 218.67,895.73C218.603,896.063 218.633,896.29 218.76,896.41C218.907,896.543 219.137,896.59 219.45,896.55C218.477,897.877 217.54,899.24 216.64,900.64C215.847,901.867 214.71,902.697 213.23,903.13C214.23,901.17 214.76,899.117 214.82,896.97C215.06,895.73 215.3,894.643 215.54,893.71C215.802,892.694 216.784,892.023 217.82,892.15C218.36,892.21 218.773,892.62 219.06,893.38Z" style="fill:rgb(47,47,45);fill-rule:nonzero;"/>
        <path d="M220.11,893.49C219.85,894.263 219.763,895.22 219.85,896.36C219.917,896.1 219.783,896.163 219.45,896.55C219.137,896.59 218.907,896.543 218.76,896.41C218.633,896.29 218.603,896.063 218.67,895.73C218.823,894.937 218.953,894.153 219.06,893.38L219.26,893.74C219.266,893.75 219.272,893.76 219.278,893.769C219.377,893.908 219.576,893.938 219.719,893.836C219.726,893.831 219.733,893.826 219.74,893.82L220.11,893.49Z" style="fill:rgb(122,127,112);fill-rule:nonzero;"/>
        <path d="M214.82,896.97C214.76,899.117 214.23,901.17 213.23,903.13C213.203,902.85 213.057,902.953 212.79,903.44L213.28,897.54C213.8,897.487 214.313,897.297 214.82,896.97Z" style="fill:rgb(180,209,220);fill-rule:nonzero;"/>
        <path d="M213.28,897.54L212.79,903.44C211.55,904.613 209.943,905.55 207.97,906.25C208.87,902.77 209.74,897.41 213.28,897.54Z" style="fill:rgb(47,47,45);fill-rule:nonzero;"/>
        <path d="M204.22,909.69C202.74,911.337 201.127,912.08 199.38,911.92L203.88,899.17C204.085,898.607 204.624,898.23 205.223,898.23C205.97,898.23 206.598,898.815 206.65,899.56C206.86,902.85 205.29,906.48 204.22,909.69Z" style="fill:rgb(47,47,45);fill-rule:nonzero;"/>
        <path d="M196.35,913.84L193.28,915.05L193.38,914.51C193.384,914.489 193.385,914.467 193.385,914.446C193.385,914.232 193.209,914.056 192.995,914.056C192.887,914.056 192.784,914.101 192.71,914.18C191.943,915.02 191.047,915.6 190.02,915.92C189.527,915.773 189.36,915.273 189.52,914.42C189.593,914.5 189.657,914.57 189.71,914.63C189.746,914.668 189.796,914.689 189.848,914.689C189.922,914.689 189.989,914.647 190.02,914.58L196.4,901.35C196.62,900.888 197.089,900.592 197.601,900.592C198.33,900.592 198.931,901.193 198.931,901.922C198.931,901.935 198.93,901.947 198.93,901.96C198.85,906.01 197.18,909.8 196.35,913.84Z" style="fill:rgb(47,47,45);fill-rule:nonzero;"/>
        <path d="M151.28,912.94C148.267,913.12 146.35,912.583 145.53,911.33C148.58,909 149.36,905.83 150.44,902.47C150.459,902.426 150.502,902.397 150.55,902.397C150.613,902.397 150.666,902.447 150.67,902.51C150.53,905.29 149.5,910.57 151.28,912.94Z" style="fill:rgb(253,253,253);fill-rule:nonzero;"/>
        <path d="M118.6,908.28C118.4,908.214 118.264,908.026 118.264,907.815C118.264,907.64 118.358,907.477 118.51,907.39L124.05,904.23C124.784,903.812 125.686,903.797 126.44,904.19C131.16,906.64 133.81,909.21 139,913.74C144.24,918.3 152.62,917.04 157.81,917.87C157.894,917.883 157.975,917.914 158.046,917.96C158.338,918.145 158.423,918.542 158.234,918.838C158.188,918.909 158.129,918.971 158.06,919.02C153.367,922.293 149.88,926.363 147.6,931.23C145.91,934.83 144.24,936.86 141.12,938.35C141.045,938.386 140.963,938.404 140.88,938.404C140.573,938.404 140.32,938.151 140.32,937.844C140.32,937.843 140.32,937.841 140.32,937.84C140.36,932.61 141.04,926.41 138.44,922.73C133.507,915.743 126.893,910.927 118.6,908.28Z" style="fill:rgb(253,253,253);fill-rule:nonzero;"/>
        <path d="M141.24,909.75C140.127,909.217 139.283,908.507 138.71,907.62C139.037,907.04 139.487,906.977 140.06,907.43C140.84,908.043 141.233,908.817 141.24,909.75Z" style="fill:rgb(253,253,253);fill-rule:nonzero;"/>
        <path d="M156.92,913.95L154.34,913.24C154.887,911.507 155.767,910.013 156.98,908.76C156.999,908.741 157.023,908.726 157.048,908.716C157.145,908.679 157.255,908.724 157.29,908.816C157.3,908.843 157.304,908.871 157.3,908.9L156.92,913.95Z" style="fill:rgb(253,253,253);fill-rule:nonzero;"/>
        <path d="M136.73,1024L80.04,1024C81.6,1009.77 83.17,998.34 88.17,986.14C91.277,978.567 92.887,974.4 93,973.64C93.048,973.257 93.317,972.933 93.69,972.81L95.41,972.24C95.652,972.157 95.847,971.983 95.95,971.76C98.857,965.38 101.273,960.11 103.2,955.95C105.34,951.33 108.433,947.6 112.48,944.76C113.677,943.926 114.191,942.397 113.74,941.01L113.71,940.91C113.689,940.845 113.665,940.782 113.638,940.72C113.211,939.751 112.058,939.307 111.084,939.737C111.021,939.765 110.96,939.796 110.9,939.83C106.553,942.33 102.99,946.37 100.21,951.95C97.883,956.637 95.677,962.053 93.59,968.2C93.213,969.316 91.989,969.927 90.87,969.56L64.17,960.7C64.159,960.696 64.147,960.692 64.136,960.688C63.574,960.484 63.281,959.849 63.488,959.282C63.492,959.271 63.496,959.261 63.5,959.25C66.153,952.677 69.403,946.51 73.25,940.75C74.87,938.317 78.683,934.44 84.69,929.12C85.163,928.701 85.611,928.253 86.03,927.78C89.49,923.85 91.21,921.62 94.31,919.53C95.797,918.53 100.033,915.69 107.02,911.01C108.407,910.083 109.557,909.707 110.47,909.88C120.03,911.7 129.87,916.82 135.61,925.16C136.308,926.171 136.694,927.364 136.72,928.59C136.72,928.903 136.733,932.1 136.76,938.18C136.767,939.6 137.59,940.78 139.23,941.72C139.567,941.908 139.958,941.978 140.34,941.92C143.59,941.42 146.88,939.58 148.76,936.56C149.493,935.38 150.057,934.717 150.45,934.57C150.491,934.555 150.535,934.547 150.579,934.547C150.788,934.547 150.959,934.719 150.959,934.927C150.959,934.955 150.956,934.983 150.95,935.01C150.717,935.97 150.36,936.833 149.88,937.6C145.867,944.053 143.26,948.443 142.06,950.77C137.51,959.59 136.28,971.45 135.88,982.5C135.653,988.787 135.77,1000.12 136.23,1016.5C136.297,1019.01 136.463,1021.51 136.73,1024Z" style="fill:rgb(249,211,142);fill-rule:nonzero;"/>
        <path d="M186.45,915.56C185.877,917.26 184.227,917.877 181.5,917.41L185.01,913.66C185.096,913.567 185.17,913.466 185.23,913.36L186.43,911.03C186.472,910.953 186.553,910.905 186.64,910.905C186.772,910.905 186.88,911.014 186.88,911.145C186.88,911.15 186.88,911.155 186.88,911.16L186.45,915.56Z" style="fill:rgb(253,253,253);fill-rule:nonzero;"/>
        <path d="M170.44,916.18C169.38,916.607 168.387,916.583 167.46,916.11C168.147,915.257 168.977,914.48 169.95,913.78C170.41,913.453 170.627,913.143 170.6,912.85C170.573,912.49 170.59,912.267 170.65,912.18C170.697,912.117 170.771,912.08 170.85,912.08C170.984,912.08 171.095,912.187 171.1,912.32C171.153,913.633 170.933,914.92 170.44,916.18Z" style="fill:rgb(253,253,253);fill-rule:nonzero;"/>
        <path d="M162.23,914.83L161.73,914.63C161.503,913.87 161.89,913.297 162.89,912.91C162.901,912.906 162.911,912.903 162.922,912.9C163.113,912.847 163.311,912.957 163.362,913.142C163.365,913.155 163.368,913.167 163.37,913.18C163.57,914.347 163.19,914.897 162.23,914.83Z" style="fill:rgb(253,253,253);fill-rule:nonzero;"/>
        <path d="M193.28,915.05C192.587,915.823 191.77,916.397 190.83,916.77C190.762,916.797 190.69,916.811 190.617,916.811C190.321,916.811 190.07,916.584 190.04,916.29C190.027,916.183 190.02,916.06 190.02,915.92C191.047,915.6 191.943,915.02 192.71,914.18C192.784,914.101 192.887,914.056 192.995,914.056C193.209,914.056 193.385,914.232 193.385,914.446C193.385,914.467 193.384,914.489 193.38,914.51L193.28,915.05Z" style="fill:rgb(180,209,220);fill-rule:nonzero;"/>
        <path d="M176.95,916.75C176.57,917.317 175.997,917.517 175.23,917.35C175.357,916.59 175.697,915.837 176.25,915.09C176.3,915.017 176.384,914.974 176.472,914.974C176.608,914.974 176.723,915.076 176.74,915.21L176.95,916.75Z" style="fill:rgb(180,209,220);fill-rule:nonzero;"/>
        <path d="M152.58,940.42C152.66,954.193 154.363,968.2 157.69,982.44C157.718,982.561 157.732,982.684 157.732,982.808C157.732,983.584 157.174,984.257 156.41,984.4L147.79,986.01C147.731,986.021 147.67,986.026 147.61,986.026C147.11,986.026 146.681,985.655 146.61,985.16C145.09,974.38 146.84,963.29 145.4,953.11C145.303,952.435 145.441,951.746 145.79,951.16L152.1,940.3C152.147,940.224 152.231,940.178 152.321,940.178C152.457,940.178 152.571,940.284 152.58,940.42Z" style="fill:rgb(249,211,142);fill-rule:nonzero;"/>
        <path d="M158.06,1023.63C157.62,1023.7 157.353,1023.82 157.26,1024L140.25,1024C139.997,1021.59 139.837,1019.18 139.77,1016.75C139.49,1006.2 139.387,994.6 139.46,981.94C139.5,974.57 140.55,967.18 142.07,960.6C142.077,960.568 142.093,960.538 142.117,960.516C142.184,960.451 142.295,960.457 142.364,960.528C142.386,960.551 142.402,960.579 142.41,960.61C142.577,961.457 142.657,962 142.65,962.24C142.483,967.327 142.417,971.913 142.45,976C142.49,980.46 142.27,988 145.71,989.69C145.932,989.801 146.182,989.846 146.43,989.82L149.33,989.53C149.711,989.492 150.06,989.752 150.12,990.12C152.007,1001.47 154.653,1012.64 158.06,1023.63Z" style="fill:rgb(253,253,253);fill-rule:nonzero;"/>
        <path d="M76.25,1024L59.32,1024C57.61,1010.51 56.95,999.8 60.96,986.85C62.573,981.657 64.693,974.677 67.32,965.91C67.321,965.907 67.322,965.905 67.322,965.902C67.372,965.745 67.547,965.658 67.709,965.71C67.709,965.71 67.71,965.71 67.71,965.71L88.29,972.53C88.458,972.589 88.572,972.748 88.572,972.927C88.572,972.99 88.558,973.053 88.53,973.11C82.73,985.317 79.053,998.11 77.5,1011.49C77.02,1015.66 76.603,1019.83 76.25,1024Z" style="fill:rgb(253,253,253);fill-rule:nonzero;"/>
        <path d="M56.25,1024L55.27,1024C55.117,1023.09 55.227,1022.31 55.6,1021.68C55.617,1021.65 55.641,1021.63 55.668,1021.61C55.769,1021.54 55.904,1021.57 55.968,1021.67C55.986,1021.69 55.997,1021.73 56,1021.76L56.25,1024Z" style="fill:rgb(249,211,142);fill-rule:nonzero;"/>
        <path d="M158.06,1023.63L158.37,1024L157.26,1024C157.353,1023.82 157.62,1023.7 158.06,1023.63Z" style="fill:rgb(249,211,142);fill-rule:nonzero;"/>
    </g>
</svg>
