<?xml version="1.0" encoding="UTF-8" standalone="no"?>
<!DOCTYPE svg PUBLIC "-//W3C//DTD SVG 1.1//EN" "http://www.w3.org/Graphics/SVG/1.1/DTD/svg11.dtd">
<svg width="100%" height="100%" viewBox="0 0 235 325" version="1.1" xmlns="http://www.w3.org/2000/svg" xmlns:xlink="http://www.w3.org/1999/xlink" xml:space="preserve" xmlns:serif="http://www.serif.com/" style="fill-rule:evenodd;clip-rule:evenodd;stroke-linejoin:round;stroke-miterlimit:2;">
    <g transform="matrix(1,0,0,1,-736.096,-358.682)">
        <path d="M842.68,682.12C838.9,670.14 836.223,658.363 834.65,646.79C834.645,646.753 834.638,646.715 834.629,646.679C834.471,646.006 833.792,645.581 833.124,645.737C833.086,645.746 833.048,645.757 833.01,645.77C830.19,646.723 828.523,646.29 828.01,644.47C825.91,637.09 826.26,627.16 826.44,617.93C826.439,617.886 826.425,617.844 826.398,617.809C826.328,617.718 826.192,617.703 826.096,617.776C826.061,617.803 826.035,617.839 826.02,617.88C824.32,624.307 823.447,630.747 823.4,637.2C823.327,648.233 823.44,660.467 823.74,673.9C823.8,676.44 824.28,679.51 824.47,682.33L820.99,682.35C820.443,678.87 820.123,675.92 820.03,673.5C819.523,660.64 819.473,647.253 819.88,633.34C820.08,626.64 821.417,619.547 823.89,612.06C825.95,605.84 829.31,601.32 832.4,595.92C833.553,593.907 834.37,592.163 834.85,590.69C834.861,590.655 834.867,590.619 834.867,590.582C834.867,590.384 834.704,590.222 834.507,590.222C834.405,590.222 834.308,590.265 834.24,590.34C833.313,591.373 832.31,592.74 831.23,594.44C830.15,596.14 826.21,598.35 823.72,598.39C818.13,598.5 822.37,585.75 818.91,581.36C813.637,574.653 806.233,569.983 796.7,567.35C794.007,566.603 791.773,566.837 790,568.05C788.013,569.41 784.01,572.223 777.99,576.49C775.79,578.043 773.073,580.663 769.84,584.35C769.327,584.937 767.107,587.043 763.18,590.67C756.4,596.93 751.38,606.46 747.5,615.48C747.499,615.484 747.497,615.487 747.496,615.491C747.383,615.777 747.521,616.103 747.802,616.213C747.808,616.216 747.814,616.218 747.82,616.22C755.687,619.087 764.187,621.907 773.32,624.68C774.073,624.907 775.093,625.107 776.38,625.28C777.017,625.367 777.632,624.977 777.83,624.36C780.277,616.493 783.32,609.383 786.96,603.03C788.2,600.87 790.673,598.5 794.38,595.92C794.746,595.667 795.181,595.531 795.626,595.531C796.359,595.531 797.045,595.899 797.45,596.51L797.48,596.56C798.285,597.772 798.022,599.417 796.88,600.31C792.18,603.98 789.69,607.17 786.83,613.07C785.003,616.837 782.87,621.64 780.43,627.48C780.226,627.97 779.822,628.349 779.32,628.52L778.71,628.73C778.179,628.916 777.74,629.304 777.49,629.81C771.23,642.81 767.39,655.17 765.51,669.22C764.917,673.667 764.283,678.16 763.61,682.7L759.85,682.3C761.163,669.413 762.4,660.5 763.56,655.56C765.693,646.447 768.72,637.59 772.64,628.99C772.676,628.908 772.695,628.819 772.695,628.73C772.695,628.452 772.515,628.204 772.25,628.12L751.86,621.35C751.834,621.341 751.806,621.337 751.778,621.337C751.665,621.337 751.564,621.411 751.53,621.52C747.5,633.71 743.25,646.2 742.48,658.2C742.01,665.45 743.18,674.5 743.54,682.6C742.42,682.887 741.39,682.81 740.45,682.37C740.183,682.245 740.001,681.986 739.97,681.69L739.64,678.44C739.635,678.407 739.622,678.376 739.601,678.35C739.54,678.273 739.429,678.257 739.356,678.314C739.329,678.336 739.309,678.366 739.3,678.4C738.927,679.533 738.79,680.577 738.89,681.53C738.893,681.561 738.895,681.593 738.895,681.624C738.895,682.086 738.54,682.476 738.08,682.52L737.02,682.63C737.012,682.631 737.004,682.631 736.996,682.632C736.553,682.663 736.163,682.319 736.131,681.871C736.131,681.864 736.13,681.857 736.13,681.85C735.87,676.75 737.15,673.63 738.6,669.51C738.765,669.048 738.836,668.555 738.81,668.06C738.443,660.233 738.79,653.74 739.85,648.58C741.117,642.387 743.793,633.033 747.88,620.52C747.979,620.22 747.853,619.889 747.58,619.73L744.98,618.23C744.305,617.84 743.987,617.029 744.22,616.29C747.88,604.67 753.927,594.917 762.36,587.03C766.98,582.72 768.21,581.36 771.73,577.51C776.11,572.72 783.02,568.73 789.12,565.02C789.774,564.617 790.496,564.339 791.25,564.2C793.95,563.687 795.39,563.397 795.57,563.33C795.936,563.177 796.29,563.003 796.63,562.81L804.61,558.35C804.808,558.237 804.885,557.99 804.78,557.8C800.04,548.92 798.04,538.13 796.28,531.52C795.767,529.593 795.013,527.907 794.02,526.46C793.873,526.245 793.62,526.126 793.36,526.15C793.013,526.177 792.747,526.293 792.56,526.5C792.508,526.555 792.445,526.598 792.376,526.626C792.106,526.733 791.792,526.591 791.68,526.31C791.651,526.237 791.637,526.158 791.64,526.08C791.713,524.267 791.733,523.187 791.7,522.84C791.681,522.663 791.53,522.527 791.352,522.527C791.228,522.527 791.113,522.593 791.05,522.7L790.15,524.26C790.079,524.381 789.989,524.49 789.882,524.581C789.361,525.028 788.569,524.97 788.126,524.453C788.034,524.346 787.961,524.223 787.91,524.09C787.503,523.05 787.457,521.61 787.77,519.77C787.775,519.743 787.777,519.715 787.777,519.688C787.777,519.43 787.565,519.218 787.307,519.218C787.291,519.218 787.276,519.218 787.26,519.22L785.19,519.43C785.147,519.434 785.103,519.436 785.06,519.436C784.297,519.436 783.67,518.809 783.67,518.046C783.67,517.898 783.694,517.751 783.74,517.61L785.68,511.76C785.823,511.341 785.672,510.875 785.31,510.62C776.05,503.92 771.71,501.59 766.61,494.39C762.12,488.04 760.07,477.63 764.78,470.6C765.076,470.16 765.147,469.603 764.97,469.1C761.03,458.053 760.05,447.89 762.03,438.61C762.045,438.541 762.042,438.47 762.022,438.402C761.956,438.182 761.715,438.056 761.489,438.125C761.422,438.145 761.36,438.181 761.31,438.23C758.89,440.67 755.83,438.86 756.61,435.66C758.443,428.16 761.897,421.183 766.97,414.73C767.02,414.663 767.047,414.581 767.047,414.497C767.047,414.283 766.871,414.107 766.657,414.107C766.576,414.107 766.496,414.132 766.43,414.18C763.27,416.52 760.77,419.02 758.45,418.42C757.375,418.139 756.725,417.003 757.01,415.9C758.19,411.36 763.88,407.46 767.8,405.03C771.687,402.623 775.527,400.46 779.32,398.54C779.416,398.49 779.476,398.391 779.476,398.283C779.476,398.148 779.382,398.03 779.25,398C774.09,396.91 770.73,396.65 769.06,395.51C768.988,395.461 768.919,395.407 768.856,395.348C768.19,394.727 768.156,393.664 768.781,392.994C768.839,392.931 768.903,392.873 768.97,392.82C771.98,390.48 777.97,391.12 781.61,391.69C781.633,391.694 781.656,391.696 781.679,391.696C781.915,391.696 782.109,391.501 782.109,391.266C782.109,391.212 782.099,391.16 782.08,391.11C780.91,388.12 779.97,383.05 782.61,380.6C783.22,380.033 784.152,380.003 784.75,380.53C786.63,382.19 787.47,386.58 788.4,389.98C788.464,390.207 788.674,390.365 788.91,390.365C789.115,390.365 789.303,390.246 789.39,390.06C791.13,386.133 793.763,382.62 797.29,379.52C804.543,373.153 812.99,369.363 822.63,368.15C823.073,368.097 823.503,367.965 823.9,367.76C830.15,364.54 835.03,362.62 841.06,361.25C847.63,359.76 853.9,360.41 863.05,360.44C869.3,360.46 873.93,359.49 879.49,358.74C881.62,358.45 884.1,359.21 883.81,361.87C883.44,365.39 881.72,365.99 880.52,367.85C880.496,367.889 880.479,367.932 880.469,367.977C880.42,368.197 880.555,368.417 880.77,368.465C880.816,368.475 880.863,368.477 880.91,368.47C888.557,367.503 896.943,367.143 906.07,367.39C909.12,367.47 921.21,366.92 916.83,373.69C915.763,375.35 914.167,376.45 912.04,376.99C911.989,377.003 911.94,377.026 911.898,377.057C911.723,377.189 911.69,377.446 911.825,377.626C911.857,377.667 911.896,377.703 911.94,377.73C922.54,384.057 933.697,388.99 945.41,392.53C950.22,393.99 957.83,399.48 950.76,404.87C948.367,406.69 945.593,407.61 942.44,407.63C942.304,407.632 942.193,407.744 942.193,407.88C942.193,407.943 942.217,408.004 942.26,408.05C944.65,410.71 951.22,418.97 949.42,422.66C948.1,425.37 944.64,422.85 943.14,421.85C943.081,421.812 943.013,421.791 942.943,421.791C942.746,421.791 942.583,421.954 942.583,422.151C942.583,422.188 942.589,422.225 942.6,422.26C945.16,430.16 944.763,437.713 941.41,444.92C941.379,444.984 941.363,445.054 941.363,445.125C941.363,445.383 941.575,445.595 941.833,445.595C941.855,445.595 941.878,445.593 941.9,445.59C956.73,443.67 964.54,454.55 968.59,466.98C970.38,472.5 972.16,478.93 967.77,483.97C964.89,487.28 962.74,492.01 960.04,494.71C956.67,498.07 952.66,500.1 948.11,501.91C947.789,502.039 947.563,502.334 947.52,502.68C946.43,512.19 943.5,518.39 933.83,521.86C927.397,524.167 921.76,525.427 916.92,525.64C916.908,525.64 916.896,525.641 916.884,525.642C916.551,525.674 916.303,525.979 916.336,526.318C916.337,526.329 916.338,526.339 916.34,526.35C916.593,528.023 916.387,529.813 915.72,531.72C915.529,532.27 915.008,532.642 914.425,532.642C913.882,532.642 913.388,532.318 913.17,531.82L912.73,530.83C912.682,530.73 912.58,530.666 912.469,530.666C912.32,530.666 912.193,530.781 912.18,530.93C912.02,534.323 911.863,536.58 911.71,537.7C911.553,538.796 910.742,539.636 909.77,539.71C909.443,539.73 908.903,539.49 908.15,538.99C908.036,538.916 907.903,538.876 907.767,538.876C907.383,538.876 907.067,539.192 907.067,539.576C907.067,539.597 907.068,539.619 907.07,539.64C907.37,542.7 906.873,545.893 905.58,549.22C905.369,549.752 904.851,550.104 904.279,550.104C903.782,550.104 903.321,549.839 903.07,549.41L902.62,548.62C902.561,548.509 902.445,548.439 902.319,548.439C902.133,548.439 901.979,548.592 901.979,548.779C901.979,548.786 901.98,548.793 901.98,548.8C902.047,551.773 901.34,554.06 899.86,555.66C899.804,555.72 899.743,555.773 899.676,555.82C899.151,556.189 898.42,556.068 898.057,555.552C898.011,555.486 897.971,555.415 897.94,555.34C897.767,554.927 897.547,554.687 897.28,554.62C897.235,554.609 897.19,554.604 897.144,554.604C896.863,554.604 896.621,554.812 896.58,555.09C896.047,558.95 894.743,562.447 892.67,565.58C892.444,565.919 892.062,566.124 891.655,566.124C891.174,566.124 890.736,565.839 890.54,565.4L889.95,564.07C889.932,564.032 889.906,563.997 889.874,563.968C889.747,563.855 889.553,563.863 889.443,563.985C889.414,564.018 889.392,564.057 889.38,564.1C888.5,566.98 888.38,569.1 885.29,570.42C885.166,570.473 885.031,570.501 884.896,570.501C884.381,570.501 883.946,570.103 883.9,569.59L883.7,567.69C883.681,567.53 883.543,567.408 883.382,567.408C883.271,567.408 883.168,567.466 883.11,567.56L878.79,575.04C878.683,575.229 878.532,575.388 878.35,575.506C877.723,575.911 876.872,575.726 876.464,575.095C876.346,574.913 876.273,574.705 876.25,574.49L876.13,573.28C876.119,573.178 876.082,573.081 876.023,572.997C875.835,572.727 875.461,572.658 875.196,572.844C875.111,572.903 875.043,572.985 875,573.08C873.96,575.27 873.21,576.84 871.39,577.9C870.45,578.453 869.733,578.357 869.24,577.61C868.74,576.85 868.8,575.957 869.42,574.93C869.447,574.882 869.463,574.828 869.466,574.773C869.479,574.576 869.332,574.404 869.14,574.391C869.086,574.388 869.031,574.398 868.98,574.42L865.83,575.82C865.637,575.906 865.433,575.97 865.22,576.01C859.453,577.043 853.633,576.843 847.76,575.41C845.08,574.75 840.09,580.66 838.17,582.96C837.725,583.492 837.599,584.226 837.84,584.88C840.04,590.7 839.84,596.02 840.18,604.17C840.65,615.33 842.5,626.13 844.66,636.61C844.747,637.043 844.853,638.207 844.98,640.1C845.049,641.132 844.608,642.134 843.8,642.78C842.2,644.053 840.477,644.813 838.63,645.06C838.424,645.085 838.276,645.279 838.3,645.49C839.62,657.67 842.7,668.77 846.43,681.61C846.449,681.676 846.459,681.745 846.459,681.813C846.459,682.193 846.167,682.513 845.79,682.55C844.083,682.73 843.047,682.587 842.68,682.12ZM845.208,366.288C845.208,366.288 845.208,366.288 845.208,366.288C845.108,365.827 841.916,366.126 838.137,366.95C838.137,366.95 838.137,366.95 838.137,366.95C834.358,367.774 831.331,368.831 831.432,369.292C831.432,369.292 831.432,369.292 831.432,369.292C831.532,369.753 834.724,369.454 838.503,368.63C838.503,368.63 838.503,368.63 838.503,368.63C842.282,367.806 845.309,366.749 845.208,366.288ZM799.88,384.46L813.22,375.7C813.281,375.662 813.319,375.594 813.319,375.522C813.319,375.478 813.305,375.436 813.28,375.4L813.11,375.15C813.109,375.148 813.108,375.146 813.107,375.144C812.884,374.805 809.656,376.526 805.955,378.956C805.954,378.958 805.952,378.959 805.95,378.96L805.75,379.09C802.052,381.519 799.194,383.796 799.417,384.136C799.418,384.137 799.419,384.139 799.42,384.14L799.59,384.4C799.653,384.496 799.784,384.523 799.88,384.46ZM937.6,395.06L946.97,398.88C947.019,398.901 947.077,398.879 947.1,398.83L947.15,398.7C947.15,398.699 947.15,398.699 947.151,398.698C947.329,398.261 945.704,397.179 943.55,396.3L941.85,395.6C939.697,394.722 937.78,394.359 937.602,394.795C937.601,394.797 937.601,394.798 937.6,394.8L937.54,394.93C937.536,394.941 937.533,394.954 937.533,394.966C937.533,395.008 937.56,395.046 937.6,395.06ZM835.47,416.91C835.478,416.89 835.483,416.868 835.483,416.845C835.483,416.752 835.406,416.675 835.313,416.675C835.276,416.675 835.24,416.688 835.21,416.71C825.71,423.27 815.243,427.663 803.81,429.89C803.79,429.894 803.769,429.9 803.749,429.906C803.463,430.001 803.304,430.31 803.397,430.592C803.403,430.612 803.411,430.631 803.42,430.65C805.613,435.437 808.07,442.06 810.79,450.52C811.9,453.97 809.83,457.85 805.92,456.43C805.823,456.394 805.719,456.375 805.615,456.375C805.138,456.375 804.745,456.768 804.745,457.245C804.745,457.338 804.76,457.431 804.79,457.52C805.283,459.04 805.433,460.57 805.24,462.11C805.236,462.14 805.234,462.17 805.232,462.2C805.193,462.913 805.743,463.53 806.45,463.568C806.48,463.57 806.51,463.57 806.54,463.57C814.947,463.41 820.83,463.207 824.19,462.96C825.01,462.9 825.943,462.22 826.99,460.92C827.324,460.507 827.754,460.187 828.24,459.99L831.3,458.76C831.399,458.72 831.494,458.666 831.58,458.6C837.88,453.31 841.52,450.45 848.99,448.51C856.33,446.603 863.74,446.007 871.22,446.72C879.013,447.467 885.58,451.31 890.92,458.25C891.199,458.608 891.663,458.769 892.1,458.66C896.567,457.573 900.46,457.167 903.78,457.44C905.7,457.6 907.293,457.64 908.56,457.56C909.089,457.527 909.599,457.343 910.03,457.03C917.97,451.31 926.71,447.663 936.25,446.09C936.475,446.058 936.644,445.862 936.644,445.635C936.644,445.575 936.633,445.515 936.61,445.46L924.8,416.1C924.674,415.788 924.513,415.492 924.32,415.22C923.147,413.533 921.703,412.077 919.99,410.85C914.137,406.657 906.603,401.8 897.39,396.28C897.204,396.166 896.964,396.182 896.79,396.32C892.783,399.453 888.233,402.31 883.14,404.89C879.22,406.87 876.49,408.72 872.98,410.91C872.065,411.484 870.859,411.323 870.12,410.53C868.553,408.843 868.23,406.993 869.15,404.98C869.179,404.916 869.189,404.845 869.178,404.776C869.148,404.575 868.953,404.436 868.747,404.467C868.678,404.477 868.614,404.506 868.56,404.55C864.56,408.057 860.157,411.577 855.35,415.11C849.61,419.33 843.12,421.39 835.88,421.29C835.096,421.281 834.457,420.634 834.457,419.85C834.457,419.676 834.488,419.503 834.55,419.34L835.47,416.91ZM941.01,449.11C940.023,449.083 938.94,449.28 937.76,449.7C930.54,451.32 923.53,454.077 916.73,457.97C915.143,458.877 914.517,460.053 914.85,461.5C914.94,461.891 914.781,462.299 914.45,462.52C913.417,463.22 912.37,463.293 911.31,462.74C910.641,462.391 909.809,462.583 909.36,463.19C900.19,475.55 904.72,487.61 917.2,495.09C925.373,499.997 934.623,501.337 944.95,499.11C946.27,498.91 947.3,498.547 948.04,498.02C950.967,497.1 953.543,495.75 955.77,493.97C959.68,490.85 962.35,485.31 965.65,481.4C967.19,479.57 967.54,477.44 967.2,475.26C966.113,468.447 963.707,462.193 959.98,456.5C955.807,450.12 949.483,447.657 941.01,449.11ZM889.83,464.86C889.643,464.9 889.427,465.027 889.18,465.24C888.827,465.547 888.427,465.62 887.98,465.46C886.533,464.953 885.797,463.937 885.77,462.41C885.756,462.062 885.918,461.728 886.2,461.52L887.3,460.71C887.312,460.702 887.323,460.693 887.334,460.684C887.739,460.364 887.805,459.764 887.481,459.356C887.474,459.347 887.467,459.338 887.46,459.33C878.33,448.66 863.74,449.07 851.28,452.4C844.22,454.28 838.68,458.45 833.63,463.86C833.56,463.932 833.479,463.993 833.39,464.04L830.51,465.48C830.29,465.593 830.099,465.754 829.95,465.95C829.383,466.69 828.973,467.777 828.72,469.21C826.82,480.15 831.7,489.33 840.41,495.67C850.197,502.79 861.06,505.577 873,504.03C884.99,502.48 894.67,496.04 894.82,483.01C894.9,476.83 893.577,470.943 890.85,465.35C890.668,464.976 890.246,464.773 889.83,464.86ZM784.05,474.82C784.103,476.713 784.117,478.643 784.09,480.61C784.083,481.717 783.217,482.103 781.49,481.77C780.717,479.517 779.9,477.153 779.04,474.68C777.69,470.81 774.39,468.74 770.43,470.57C767.123,472.103 765.433,474.987 765.36,479.22C765.28,483.907 766.617,488.203 769.37,492.11C771.823,495.597 774.197,498.147 776.49,499.76C781.65,503.4 785.64,505.58 787.96,509C788.713,510.493 789.94,511.92 791.64,513.28C791.858,513.452 792.044,513.658 792.19,513.89L795.58,519.07C796.953,521.463 797.82,523.463 798.18,525.07C798.713,527.45 799.133,529.057 799.44,529.89C799.693,530.443 800.053,530.887 800.52,531.22L801.32,534.71L802.74,542.37L803.3,544.97L805.25,549.62C806.123,553.207 807.977,555.727 810.81,557.18C812.623,558.113 813.74,558.73 814.16,559.03C815.107,559.69 816.16,560.423 817.32,561.23C817.947,561.997 819.02,562.697 820.54,563.33C820.647,564.103 820.937,564.72 821.41,565.18C822.55,567.147 823.84,568.087 825.28,568L840.87,569.86L846.19,570.17C846.85,571.083 847.57,571.257 848.35,570.69L853.87,572.27C856.603,572.563 859.193,572.43 861.64,571.87L866.99,570.29C868.75,570.157 869.817,569.397 870.19,568.01L872.71,567.49C873.137,567.737 873.503,567.473 873.81,566.7C876.25,566.48 878.243,565.597 879.79,564.05C879.91,563.93 879.947,563.773 879.9,563.58L880.65,562.99C882.89,562.13 884.72,560.827 886.14,559.08C886.351,558.822 886.61,558.608 886.9,558.45C891.67,555.88 893.63,551.71 896.42,546.3C897.25,544.7 899.09,543.82 899.43,542.64C899.657,541.873 900.203,540.91 901.07,539.75C902.95,537.23 902.66,533.07 905.67,531.21C905.918,531.053 906.119,530.828 906.25,530.56C907.563,527.867 907.157,525.667 905.03,523.96C904.763,523.742 904.627,523.402 904.67,523.06C904.817,521.773 905.527,520.923 906.8,520.51C916.7,522.817 926.27,521.72 935.51,517.22C941.07,514.51 943.37,509.34 944.01,503.51C944.011,503.498 944.012,503.486 944.012,503.474C944.012,503.293 943.863,503.144 943.682,503.144C943.661,503.144 943.64,503.146 943.62,503.15C936.653,504.383 929.797,503.983 923.05,501.95C907.01,497.12 894.65,483.37 902.14,465.86C902.72,464.507 903.55,463.183 904.63,461.89C904.727,461.775 904.78,461.629 904.78,461.478C904.78,461.146 904.521,460.866 904.19,460.84C900.617,460.513 897.133,460.883 893.74,461.95C893.724,461.955 893.708,461.961 893.692,461.967C893.381,462.091 893.226,462.444 893.347,462.75C893.354,462.767 893.362,462.784 893.37,462.8C899.22,474.57 901.7,493.06 889.34,501.59C874.81,511.61 853.12,509.12 839.12,499.9C828.04,492.6 821.56,481.8 823.81,468.5C823.811,468.493 823.812,468.487 823.813,468.48C823.835,468.261 823.679,468.064 823.466,468.042C823.457,468.041 823.449,468.04 823.44,468.04C812.007,467.547 805.947,467.293 805.26,467.28C799.387,467.227 791.303,467.783 781.01,468.95C780.986,468.953 780.962,468.958 780.94,468.966C780.758,469.028 780.657,469.224 780.717,469.4C780.725,469.425 780.736,469.448 780.75,469.47L784.05,474.82ZM841.26,574.6C841.412,574.483 841.501,574.301 841.501,574.109C841.501,573.78 841.239,573.505 840.91,573.49L826.07,572.87C825.977,572.863 825.883,572.847 825.79,572.82C821.23,571.45 819.1,568.8 814.76,564.75C813.487,563.563 811.617,562.35 809.15,561.11C808.506,560.791 807.744,560.814 807.12,561.17L801.69,564.31C801.546,564.391 801.456,564.545 801.456,564.711C801.456,564.912 801.588,565.091 801.78,565.15C810.333,567.777 817.207,572.763 822.4,580.11C824.65,583.31 823.84,588.7 823.85,594.07C823.85,594.125 823.857,594.181 823.87,594.235C823.962,594.63 824.36,594.88 824.749,594.788C824.805,594.775 824.859,594.756 824.91,594.73C828.44,592.96 830.02,590.25 831.67,586.48C833.75,581.73 837.15,577.78 841.26,574.6ZM836.39,596.77C836.39,596.767 836.39,596.764 836.39,596.761C836.39,596.618 836.273,596.501 836.13,596.501C836.034,596.501 835.945,596.555 835.9,596.64L829.61,607.67C829.26,608.267 829.125,608.966 829.23,609.65C830.77,619.92 829.1,631.15 830.72,642.03C830.795,642.527 831.226,642.898 831.729,642.898C831.793,642.898 831.857,642.892 831.92,642.88L840.62,641.19C840.631,641.188 840.641,641.186 840.652,641.183C841.526,640.995 842.088,640.115 841.898,639.236C841.896,639.224 841.893,639.212 841.89,639.2C838.417,624.827 836.583,610.683 836.39,596.77Z" style="fill-rule:nonzero;"/>
        <g transform="matrix(0.977046,-0.21303,0.21303,0.977046,838.32,367.79)">
            <ellipse cx="0" cy="0" rx="7.05" ry="0.86" style="fill:rgb(122,127,112);"/>
        </g>
        <path d="M937.6,395.06C937.56,395.046 937.533,395.008 937.533,394.966C937.533,394.954 937.536,394.941 937.54,394.93L937.6,394.8C937.601,394.798 937.601,394.797 937.602,394.795C937.78,394.359 939.697,394.722 941.85,395.6L943.55,396.3C945.704,397.179 947.329,398.261 947.151,398.698C947.15,398.699 947.15,398.699 947.15,398.7L947.1,398.83C947.077,398.879 947.019,398.901 946.97,398.88L937.6,395.06Z" style="fill:rgb(122,127,112);fill-rule:nonzero;"/>
        <path d="M835.47,416.91L834.55,419.34C834.488,419.503 834.457,419.676 834.457,419.85C834.457,420.634 835.096,421.281 835.88,421.29C843.12,421.39 849.61,419.33 855.35,415.11C860.157,411.577 864.56,408.057 868.56,404.55C868.614,404.506 868.678,404.477 868.747,404.467C868.953,404.436 869.148,404.575 869.178,404.776C869.189,404.845 869.179,404.916 869.15,404.98C868.23,406.993 868.553,408.843 870.12,410.53C870.859,411.323 872.065,411.484 872.98,410.91C876.49,408.72 879.22,406.87 883.14,404.89C888.233,402.31 892.783,399.453 896.79,396.32C896.964,396.182 897.204,396.166 897.39,396.28C906.603,401.8 914.137,406.657 919.99,410.85C921.703,412.077 923.147,413.533 924.32,415.22C924.513,415.492 924.674,415.788 924.8,416.1L936.61,445.46C936.633,445.515 936.644,445.575 936.644,445.635C936.644,445.862 936.475,446.058 936.25,446.09C926.71,447.663 917.97,451.31 910.03,457.03C909.599,457.343 909.089,457.527 908.56,457.56C907.293,457.64 905.7,457.6 903.78,457.44C900.46,457.167 896.567,457.573 892.1,458.66C891.663,458.769 891.199,458.608 890.92,458.25C885.58,451.31 879.013,447.467 871.22,446.72C863.74,446.007 856.33,446.603 848.99,448.51C841.52,450.45 837.88,453.31 831.58,458.6C831.494,458.666 831.399,458.72 831.3,458.76L828.24,459.99C827.754,460.187 827.324,460.507 826.99,460.92C825.943,462.22 825.01,462.9 824.19,462.96C820.83,463.207 814.947,463.41 806.54,463.57C806.51,463.57 806.48,463.57 806.45,463.568C805.743,463.53 805.193,462.913 805.232,462.2C805.234,462.17 805.236,462.14 805.24,462.11C805.433,460.57 805.283,459.04 804.79,457.52C804.76,457.431 804.745,457.338 804.745,457.245C804.745,456.768 805.138,456.375 805.615,456.375C805.719,456.375 805.823,456.394 805.92,456.43C809.83,457.85 811.9,453.97 810.79,450.52C808.07,442.06 805.613,435.437 803.42,430.65C803.411,430.631 803.403,430.612 803.397,430.592C803.304,430.31 803.463,430.001 803.749,429.906C803.769,429.9 803.79,429.894 803.81,429.89C815.243,427.663 825.71,423.27 835.21,416.71C835.24,416.688 835.276,416.675 835.313,416.675C835.406,416.675 835.483,416.752 835.483,416.845C835.483,416.868 835.478,416.89 835.47,416.91Z" style="fill:rgb(253,253,253);fill-rule:nonzero;"/>
        <path d="M948.04,498.02C948.173,490.627 948.36,483.287 948.6,476C948.66,474.073 948.59,472.697 948.39,471.87C946.537,464.09 944.077,456.503 941.01,449.11C949.483,447.657 955.807,450.12 959.98,456.5C963.707,462.193 966.113,468.447 967.2,475.26C967.54,477.44 967.19,479.57 965.65,481.4C962.35,485.31 959.68,490.85 955.77,493.97C953.543,495.75 950.967,497.1 948.04,498.02Z" style="fill:white;fill-opacity:0.56;fill-rule:nonzero;"/>
        <path d="M941.01,449.11C944.077,456.503 946.537,464.09 948.39,471.87C948.59,472.697 948.66,474.073 948.6,476C948.36,483.287 948.173,490.627 948.04,498.02C947.3,498.547 946.27,498.91 944.95,499.11C944.71,491.39 944.83,483.72 945.31,476.1C945.47,473.58 945.15,470.98 944.47,468.8C942.85,463.587 940.613,457.22 937.76,449.7C938.94,449.28 940.023,449.083 941.01,449.11Z" style="fill:rgb(122,127,112);fill-rule:nonzero;"/>
        <path d="M937.76,449.7C940.613,457.22 942.85,463.587 944.47,468.8C945.15,470.98 945.47,473.58 945.31,476.1C944.83,483.72 944.71,491.39 944.95,499.11C934.623,501.337 925.373,499.997 917.2,495.09C904.72,487.61 900.19,475.55 909.36,463.19C909.809,462.583 910.641,462.391 911.31,462.74C912.37,463.293 913.417,463.22 914.45,462.52C914.781,462.299 914.94,461.891 914.85,461.5C914.517,460.053 915.143,458.877 916.73,457.97C923.53,454.077 930.54,451.32 937.76,449.7ZM930.31,466.73L925.61,468.7C924.467,469.176 923.917,470.506 924.39,471.65L925.36,473.96C926.441,476.537 929.323,477.822 931.75,476.81L931.77,476.8C934.195,475.784 935.305,472.829 934.23,470.25L933.27,467.94C932.919,467.102 932.094,466.553 931.186,466.553C930.885,466.553 930.587,466.613 930.31,466.73Z" style="fill:rgb(253,253,253);fill-rule:nonzero;"/>
        <path d="M889.83,464.86C890.246,464.773 890.668,464.976 890.85,465.35C893.577,470.943 894.9,476.83 894.82,483.01C894.67,496.04 884.99,502.48 873,504.03C861.06,505.577 850.197,502.79 840.41,495.67C831.7,489.33 826.82,480.15 828.72,469.21C828.973,467.777 829.383,466.69 829.95,465.95C830.099,465.754 830.29,465.593 830.51,465.48L833.39,464.04C833.479,463.993 833.56,463.932 833.63,463.86C838.68,458.45 844.22,454.28 851.28,452.4C863.74,449.07 878.33,448.66 887.46,459.33C887.467,459.338 887.474,459.347 887.481,459.356C887.805,459.764 887.739,460.364 887.334,460.684C887.323,460.693 887.312,460.702 887.3,460.71L886.2,461.52C885.918,461.728 885.756,462.062 885.77,462.41C885.797,463.937 886.533,464.953 887.98,465.46C888.427,465.62 888.827,465.547 889.18,465.24C889.427,465.027 889.643,464.9 889.83,464.86ZM858.386,469.575C855.949,469.353 853.698,471.877 853.398,475.166C853.099,478.455 854.858,481.343 857.294,481.565C859.731,481.787 861.982,479.263 862.282,475.974C862.581,472.685 860.822,469.797 858.386,469.575Z" style="fill:rgb(253,253,253);fill-rule:nonzero;"/>
        <path d="M906.8,520.51C906.68,519.61 906.617,518.773 906.61,518C906.58,515.54 905.29,514.16 902.89,514.28C902.724,514.287 902.562,514.32 902.41,514.38L898.21,515.98C897.822,516.134 897.371,516.007 897.11,515.67C896.637,515.063 896.217,514.677 895.85,514.51C895.486,514.347 895.08,514.305 894.69,514.39C893.923,514.563 893.027,514.81 892,515.13C891.206,515.378 890.335,515.062 889.88,514.36C889.733,514.133 889.453,513.837 889.04,513.47C888.806,513.261 888.476,513.195 888.18,513.3C887.533,513.52 886.997,513.513 886.57,513.28C886.289,513.124 886.102,512.84 886.07,512.52C885.923,510.967 885.23,510.133 883.99,510.02C881.437,509.78 878.75,510.227 875.93,511.36C875.513,511.529 875.057,511.571 874.62,511.48C871.08,510.76 867.333,511.387 863.38,513.36C863.376,513.362 863.372,513.364 863.367,513.366C863.089,513.496 862.755,513.379 862.627,513.106C862.625,513.1 862.622,513.095 862.62,513.09C862.093,511.863 861.423,511.28 860.61,511.34C856.84,511.63 854.11,513.06 851.09,514.57C850.764,514.727 850.383,514.716 850.07,514.54C847.79,513.26 841.31,515.11 838.94,515.78C838.613,515.878 838.257,515.79 838.01,515.55C837.777,515.337 837.57,514.923 837.39,514.31C837.304,513.999 837.062,513.754 836.75,513.66C833.8,512.76 830.94,514.58 828.02,516.32C827.552,516.602 826.995,516.692 826.47,516.57C825.29,516.303 824.36,516.43 823.68,516.95C820.97,519.02 819.83,520.61 816.61,522.44C815.03,523.347 813.837,524.873 813.03,527.02C812.755,527.764 812.13,528.329 811.36,528.53L810.77,528.68C810.714,528.695 810.656,528.702 810.597,528.702C810.224,528.702 809.917,528.395 809.917,528.022C809.917,527.932 809.935,527.843 809.97,527.76C809.977,527.733 810.897,525.857 812.73,522.13C813.637,520.283 813.413,518.88 812.06,517.92C810.97,517.15 810.01,518.12 809.21,518.7C809.129,518.757 809.033,518.792 808.933,518.799C808.638,518.82 808.378,518.599 808.357,518.309C808.35,518.209 808.372,518.108 808.42,518.02L811.23,512.56C811.705,511.644 811.526,510.514 810.79,509.78L809.72,508.71C809.493,508.483 809.185,508.356 808.865,508.356C808.397,508.356 807.969,508.627 807.77,509.05L806,512.74C805.8,512.587 805.703,512.327 805.71,511.96C806.33,509.93 808.63,505.21 807.79,503.29C807.535,502.708 806.902,502.381 806.28,502.51C803,503.19 800.337,504.22 798.29,505.6C798.21,505.653 798.133,505.713 798.06,505.78L793.96,509.65C793.887,509.718 793.773,509.718 793.7,509.65L793.49,509.44C793.321,509.272 793.313,508.996 793.47,508.81C797,504.6 801.66,503.16 805.1,500.68C805.585,500.331 805.873,499.768 805.873,499.171C805.873,498.779 805.75,498.397 805.52,498.08L804.85,497.17C804.597,496.82 804.463,496.399 804.47,495.97C804.47,495.663 804.44,495.27 804.38,494.79C804.327,494.29 803.91,493.977 803.13,493.85C801.583,493.603 800.53,493.637 799.97,493.95C793.963,497.263 790.6,499.097 789.88,499.45C789.796,499.497 789.7,499.521 789.604,499.521C789.291,499.521 789.034,499.264 789.034,498.951C789.034,498.791 789.102,498.638 789.22,498.53L795.98,491.76C796.099,491.647 796.234,491.553 796.38,491.48L802.81,488.42C803.559,488.062 803.981,487.242 803.84,486.42C803.09,482.1 798.78,484.34 796.16,485.69C794.58,486.497 792.967,487.427 791.32,488.48C791.278,488.508 791.228,488.523 791.177,488.523C791.075,488.523 790.982,488.463 790.94,488.37L790.84,488.13C790.822,488.096 790.831,488.056 790.86,488.04C790.86,488.04 790.86,488.04 790.86,488.04L798.63,482.4C799.373,481.858 799.641,480.866 799.27,480.03L799.12,479.68C798.718,478.782 797.65,478.372 796.75,478.77L791.58,481.07C791.565,481.078 791.548,481.081 791.531,481.081C791.471,481.081 791.421,481.032 791.421,480.971C791.421,480.935 791.439,480.9 791.47,480.88C792.51,480.033 793.277,479.283 793.77,478.63C794.463,477.71 794.39,476.943 793.55,476.33C793.095,475.999 792.911,475.406 793.1,474.88C793.38,474.127 793.607,473.583 793.78,473.25C793.828,473.158 793.869,473.062 793.9,472.963C794.215,471.97 793.584,470.87 792.501,470.527C792.396,470.493 792.289,470.468 792.18,470.45C790.627,470.21 789.22,470.63 787.96,471.71C786.68,472.81 785.377,473.847 784.05,474.82L780.75,469.47C780.736,469.448 780.725,469.425 780.717,469.4C780.657,469.224 780.758,469.028 780.94,468.966C780.962,468.958 780.986,468.953 781.01,468.95C791.303,467.783 799.387,467.227 805.26,467.28C805.947,467.293 812.007,467.547 823.44,468.04C823.449,468.04 823.457,468.041 823.466,468.042C823.679,468.064 823.835,468.261 823.813,468.48C823.812,468.487 823.811,468.493 823.81,468.5C821.56,481.8 828.04,492.6 839.12,499.9C853.12,509.12 874.81,511.61 889.34,501.59C901.7,493.06 899.22,474.57 893.37,462.8C893.362,462.784 893.354,462.767 893.347,462.75C893.226,462.444 893.381,462.091 893.692,461.967C893.708,461.961 893.724,461.955 893.74,461.95C897.133,460.883 900.617,460.513 904.19,460.84C904.521,460.866 904.78,461.146 904.78,461.478C904.78,461.629 904.727,461.775 904.63,461.89C903.55,463.183 902.72,464.507 902.14,465.86C894.65,483.37 907.01,497.12 923.05,501.95C929.797,503.983 936.653,504.383 943.62,503.15C943.64,503.146 943.661,503.144 943.682,503.144C943.863,503.144 944.012,503.293 944.012,503.474C944.012,503.486 944.011,503.498 944.01,503.51C943.37,509.34 941.07,514.51 935.51,517.22C926.27,521.72 916.7,522.817 906.8,520.51Z" style="fill:rgb(253,253,253);fill-rule:nonzero;"/>
        <path d="M930.31,466.73C930.587,466.613 930.885,466.553 931.186,466.553C932.094,466.553 932.919,467.102 933.27,467.94L934.23,470.25C935.305,472.829 934.195,475.784 931.77,476.8L931.75,476.81C929.323,477.822 926.441,476.537 925.36,473.96L924.39,471.65C923.917,470.506 924.467,469.176 925.61,468.7L930.31,466.73Z" style="fill:rgb(122,127,112);fill-rule:nonzero;"/>
        <g transform="matrix(0.0906326,-0.995884,0.995884,0.0906326,857.84,475.57)">
            <ellipse cx="0" cy="0" rx="6.02" ry="4.46"/>
        </g>
        <path d="M781.49,481.77C782.59,482.61 782.93,483.11 782.85,484.62C782.797,485.433 783.34,486.013 784.48,486.36C784.701,486.425 784.854,486.629 784.854,486.859C784.854,487.038 784.762,487.205 784.61,487.3C781.55,489.27 782.86,494.54 786.61,494.6C786.87,494.605 787.08,494.82 787.08,495.08C787.08,495.18 787.049,495.278 786.99,495.36C785.35,497.593 784.443,499.593 784.27,501.36C784.189,502.214 784.586,503.045 785.3,503.52L788.31,505.51C788.496,505.639 788.622,505.837 788.66,506.06C788.847,507.1 788.613,508.08 787.96,509C785.64,505.58 781.65,503.4 776.49,499.76C774.197,498.147 771.823,495.597 769.37,492.11C766.617,488.203 765.28,483.907 765.36,479.22C765.433,474.987 767.123,472.103 770.43,470.57C774.39,468.74 777.69,470.81 779.04,474.68C779.9,477.153 780.717,479.517 781.49,481.77ZM774.99,486.2L774.76,487.52C774.74,487.638 774.729,487.757 774.729,487.876C774.729,488.92 775.515,489.81 776.55,489.94C779.39,490.29 780.21,488.2 779.42,486.06C778.547,483.693 777,482.137 774.78,481.39C772.24,480.53 770.46,481.83 768.82,483.71C767.67,485.02 768.77,487.21 770.23,487.57C770.616,487.665 771.026,487.552 771.31,487.27L773.29,485.32C773.404,485.208 773.543,485.125 773.696,485.077C774.224,484.91 774.795,485.204 774.96,485.727C775.008,485.88 775.018,486.042 774.99,486.2Z" style="fill:rgb(253,253,253);fill-rule:nonzero;"/>
        <path d="M805.71,511.96L803.88,518.28C803.876,518.315 803.892,518.347 803.92,518.36L804.17,518.45C804.196,518.458 804.222,518.462 804.249,518.462C804.366,518.462 804.469,518.383 804.5,518.27L806,512.74L807.77,509.05C807.969,508.627 808.397,508.356 808.865,508.356C809.185,508.356 809.493,508.483 809.72,508.71L810.79,509.78C811.526,510.514 811.705,511.644 811.23,512.56L808.42,518.02C808.372,518.108 808.35,518.209 808.357,518.309C808.378,518.599 808.638,518.82 808.933,518.799C809.033,518.792 809.129,518.757 809.21,518.7C810.01,518.12 810.97,517.15 812.06,517.92C813.413,518.88 813.637,520.283 812.73,522.13C810.897,525.857 809.977,527.733 809.97,527.76C809.935,527.843 809.917,527.932 809.917,528.022C809.917,528.395 810.224,528.702 810.597,528.702C810.656,528.702 810.714,528.695 810.77,528.68L811.36,528.53C812.13,528.329 812.755,527.764 813.03,527.02C813.837,524.873 815.03,523.347 816.61,522.44C819.83,520.61 820.97,519.02 823.68,516.95C824.36,516.43 825.29,516.303 826.47,516.57C826.995,516.692 827.552,516.602 828.02,516.32C830.94,514.58 833.8,512.76 836.75,513.66C837.062,513.754 837.304,513.999 837.39,514.31C837.57,514.923 837.777,515.337 838.01,515.55C838.257,515.79 838.613,515.878 838.94,515.78C841.31,515.11 847.79,513.26 850.07,514.54C850.383,514.716 850.764,514.727 851.09,514.57C854.11,513.06 856.84,511.63 860.61,511.34C861.423,511.28 862.093,511.863 862.62,513.09C862.622,513.095 862.625,513.1 862.627,513.106C862.755,513.379 863.089,513.496 863.367,513.366C863.372,513.364 863.376,513.362 863.38,513.36C867.333,511.387 871.08,510.76 874.62,511.48C875.057,511.571 875.513,511.529 875.93,511.36C878.75,510.227 881.437,509.78 883.99,510.02C885.23,510.133 885.923,510.967 886.07,512.52C886.102,512.84 886.289,513.124 886.57,513.28C886.997,513.513 887.533,513.52 888.18,513.3C888.476,513.195 888.806,513.261 889.04,513.47C889.453,513.837 889.733,514.133 889.88,514.36C890.335,515.062 891.206,515.378 892,515.13C893.027,514.81 893.923,514.563 894.69,514.39C895.08,514.305 895.486,514.347 895.85,514.51C896.217,514.677 896.637,515.063 897.11,515.67C897.371,516.007 897.822,516.134 898.21,515.98L902.41,514.38C902.562,514.32 902.724,514.287 902.89,514.28C905.29,514.16 906.58,515.54 906.61,518C906.617,518.773 906.68,519.61 906.8,520.51C905.527,520.923 904.817,521.773 904.67,523.06C904.627,523.402 904.763,523.742 905.03,523.96C907.157,525.667 907.563,527.867 906.25,530.56C906.119,530.828 905.918,531.053 905.67,531.21C902.66,533.07 902.95,537.23 901.07,539.75C900.203,540.91 899.657,541.873 899.43,542.64C899.09,543.82 897.25,544.7 896.42,546.3C893.63,551.71 891.67,555.88 886.9,558.45C886.61,558.608 886.351,558.822 886.14,559.08C884.72,560.827 882.89,562.13 880.65,562.99C881.217,562.183 881.537,561.393 881.61,560.62C881.611,560.607 881.612,560.594 881.612,560.581C881.612,560.334 881.409,560.131 881.162,560.131C881.059,560.131 880.96,560.166 880.88,560.23C880.047,560.903 879.507,561.83 879.26,563.01C879.17,563.45 879.49,563.65 879.9,563.58C879.947,563.773 879.91,563.93 879.79,564.05C878.243,565.597 876.25,566.48 873.81,566.7C876.737,561.307 879.417,555.84 881.85,550.3C882.123,549.68 882.313,549.313 882.42,549.2C882.517,549.103 882.627,549.019 882.747,548.951C883.477,548.538 884.421,548.803 884.837,549.538C884.905,549.658 884.956,549.787 884.99,549.92C885.63,552.447 885.513,555.27 884.64,558.39C884.633,558.413 884.63,558.437 884.63,558.461C884.63,558.604 884.747,558.721 884.89,558.721C884.979,558.721 885.062,558.676 885.11,558.6L892.4,547.63C892.48,547.504 892.574,547.386 892.68,547.28L895.06,544.9C895.177,544.789 895.261,544.647 895.3,544.49C895.88,542.26 895.74,541.69 897.59,540.38C901.58,537.53 902.41,531.78 904.33,528.79C904.39,528.691 904.43,528.582 904.45,528.47L904.96,525.4C904.964,525.372 904.966,525.343 904.966,525.314C904.966,525.002 904.709,524.744 904.396,524.744C904.223,524.744 904.058,524.824 903.95,524.96L901.12,528.61C900.774,529.057 900.239,529.319 899.673,529.319C899.222,529.319 898.786,529.152 898.45,528.85L898.42,528.82C897.819,528.194 897.747,527.222 898.25,526.52L903.57,519.11C903.655,518.992 903.701,518.851 903.701,518.706C903.701,518.327 903.389,518.016 903.011,518.016C902.95,518.016 902.889,518.024 902.83,518.04C900.237,518.733 897.743,520.657 895.35,523.81C894.595,524.805 893.175,525.043 892.13,524.35L891.31,523.81C890.94,523.564 890.717,523.147 890.717,522.703C890.717,522.334 890.87,521.981 891.14,521.73L894.07,518.99C894.071,518.989 894.072,518.989 894.073,518.988C894.086,518.978 894.091,518.962 894.084,518.954C894.083,518.952 894.082,518.951 894.08,518.95L893.93,518.77C893.766,518.57 893.471,518.526 893.25,518.67L886.18,523.34C885.371,523.878 884.314,523.878 883.51,523.34L882.81,522.88C882.361,522.58 882.09,522.074 882.09,521.533C882.09,520.989 882.365,520.479 882.82,520.18L886.37,517.83C886.496,517.744 886.604,517.636 886.69,517.51C886.783,517.363 886.833,517.247 886.84,517.16C886.84,517.152 886.841,517.144 886.841,517.136C886.841,516.928 886.669,516.756 886.461,516.756C886.427,516.756 886.393,516.761 886.36,516.77C883.413,517.563 881.063,518.843 879.31,520.61C879.294,520.627 879.277,520.643 879.26,520.659C878.57,521.302 877.469,521.261 876.822,520.567C876.808,520.551 876.794,520.536 876.78,520.52C875.407,518.947 875.673,517.62 877.58,516.54C879.993,515.173 881.22,514.45 881.26,514.37C881.277,514.336 881.288,514.299 881.294,514.261C881.328,514.044 881.173,513.837 880.951,513.803C880.914,513.797 880.877,513.796 880.84,513.8C879.147,514 877.527,514.663 875.98,515.79C874.23,517.08 873.25,519.59 871.58,520.67C869.307,522.137 867.08,522.797 864.9,522.65C863.84,522.579 863.006,521.687 863.006,520.625C863.006,520.087 863.22,519.57 863.6,519.19L866.32,516.47C866.359,516.438 866.381,516.39 866.381,516.339C866.381,516.246 866.305,516.169 866.211,516.169C866.183,516.169 866.155,516.176 866.13,516.19C864.203,517.01 862.527,518.15 861.1,519.61C858.607,522.163 855.683,524.427 852.33,526.4C851.978,526.607 851.577,526.717 851.168,526.717C850.355,526.717 849.6,526.283 849.19,525.58L849.16,525.54C848.62,524.533 848.913,523.268 849.84,522.6L858.33,516.51C858.482,516.399 858.572,516.222 858.572,516.033C858.572,515.71 858.306,515.443 857.982,515.443C857.895,515.443 857.809,515.463 857.73,515.5C853.81,517.38 850.09,520.91 844.96,522.2C844.646,522.283 844.311,522.236 844.03,522.07C842.94,521.42 842.69,520.13 841.19,520.3C838.397,520.62 835.447,521.337 832.34,522.45C829.86,523.34 828.37,525.01 826.59,526.51C826.491,526.593 826.381,526.663 826.263,526.718C825.547,527.052 824.693,526.758 824.371,526.067C824.317,525.95 824.279,525.827 824.26,525.7C824.207,525.34 824.107,525.09 823.96,524.95C823.718,524.717 823.333,524.708 823.08,524.93C821.787,526.057 819.553,527.45 816.38,529.11C814.84,529.917 814.15,531.213 814.31,533C814.334,533.288 814.554,533.525 814.84,533.57L815.84,533.74C816.154,533.792 816.39,534.062 816.4,534.38C816.56,538.77 814.25,542.65 812.67,546.6C811.937,548.433 811.677,549.903 811.89,551.01C811.916,551.158 812.045,551.267 812.195,551.267C812.285,551.267 812.371,551.228 812.43,551.16C814.743,548.627 816.943,545.473 819.03,541.7C819.063,541.64 819.099,541.582 819.139,541.525C819.699,540.732 820.786,540.521 821.548,541.059C821.601,541.096 821.652,541.137 821.7,541.18C822.267,541.687 822.513,542.547 822.44,543.76C822.287,546.433 821.587,549.62 820.34,553.32C820.328,553.353 820.345,553.391 820.38,553.41L820.6,553.53C820.606,553.533 820.612,553.536 820.618,553.539C820.818,553.631 821.059,553.539 821.154,553.335C821.156,553.33 821.158,553.325 821.16,553.32C822.04,551.267 822.957,548.973 823.91,546.44C824.31,545.38 825.013,544.85 826.02,544.85C827.42,544.857 827.853,545.683 827.32,547.33C827.316,547.343 827.312,547.356 827.309,547.37C827.238,547.663 827.416,547.961 827.704,548.031C827.719,548.035 827.735,548.038 827.75,548.04L830.16,548.44C830.67,548.524 831.049,548.969 831.049,549.486C831.049,549.67 831.001,549.85 830.91,550.01C828.823,553.763 827.157,557.993 825.91,562.7C825.903,562.73 825.899,562.761 825.899,562.792C825.899,563.006 826.075,563.182 826.289,563.182C826.405,563.182 826.516,563.13 826.59,563.04L833.38,554.48C833.698,554.076 834.079,553.722 834.51,553.43L837.45,551.44C837.798,551.208 838.25,551.197 838.61,551.41C839.103,551.703 839.563,552.187 839.99,552.86C840.1,553.033 840.291,553.138 840.496,553.138C840.619,553.138 840.739,553.1 840.84,553.03C841.58,552.503 842.013,552.173 842.14,552.04C842.27,551.904 842.426,551.796 842.598,551.724C843.297,551.434 844.119,551.786 844.418,552.505C844.491,552.681 844.529,552.87 844.53,553.06C844.53,554.067 844.443,554.717 844.27,555.01C842.163,558.583 840.243,561.987 838.51,565.22C838.494,565.247 838.486,565.278 838.486,565.31C838.486,565.409 838.567,565.49 838.666,565.49C838.717,565.49 838.766,565.468 838.8,565.43L847.16,557.07C847.564,556.665 848.177,556.542 848.71,556.76L849.09,556.91C849.577,557.12 849.894,557.601 849.894,558.132C849.894,558.394 849.816,558.651 849.67,558.87C846.89,563.05 845.46,565.33 845.38,565.71C845.374,565.736 845.371,565.763 845.371,565.79C845.371,565.987 845.534,566.15 845.731,566.15C845.824,566.15 845.913,566.114 845.98,566.05C849.19,562.91 850.84,558.35 852.79,552.76C853.016,552.111 853.632,551.673 854.32,551.673C854.624,551.673 854.922,551.758 855.18,551.92L855.25,551.96C856.229,552.571 856.675,553.773 856.33,554.87L852.28,567.68C852.267,567.72 852.261,567.762 852.261,567.805C852.261,568.035 852.451,568.225 852.681,568.225C852.766,568.225 852.85,568.199 852.92,568.15C853.2,567.963 853.503,567.607 853.83,567.08C857.563,561.193 861.053,555.943 864.3,551.33C864.767,550.677 865.307,550.403 865.92,550.51C865.932,550.512 865.944,550.515 865.956,550.517C866.821,550.695 867.383,551.575 867.199,552.467C867.196,552.481 867.193,552.496 867.19,552.51C866.123,557.103 865.267,561.057 864.62,564.37C864.387,565.603 864.29,566.653 864.33,567.52C864.336,567.763 864.537,567.959 864.78,567.959C864.934,567.959 865.078,567.88 865.16,567.75C867.727,563.843 870.273,558.62 872.8,552.08C873.127,551.229 873.97,550.682 874.88,550.73L874.94,550.74C874.979,550.742 875.018,550.745 875.057,550.751C875.78,550.848 876.296,551.51 876.2,552.217C876.195,552.255 876.189,552.293 876.18,552.33L872.71,567.49L870.19,568.01C870.277,567.85 870.32,567.69 870.32,567.53C870.317,567.318 870.142,567.146 869.93,567.146C869.867,567.146 869.806,567.161 869.75,567.19C868.303,567.997 867.383,569.03 866.99,570.29L861.64,571.87C861.047,567.61 861.4,563.403 862.7,559.25C862.713,559.203 862.67,559.133 862.57,559.04C862.563,559.034 862.554,559.031 862.544,559.031C862.53,559.031 862.517,559.038 862.51,559.05C860.15,563.923 857.27,568.33 853.87,572.27L848.35,570.69C848.523,570.017 848.48,569.423 848.22,568.91C848.078,568.63 847.747,568.496 847.45,568.6C846.87,568.793 846.45,569.317 846.19,570.17L840.87,569.86L841.47,568.8C841.503,568.744 841.523,568.681 841.528,568.616C841.55,568.37 841.361,568.15 841.109,568.128C841.045,568.122 840.981,568.13 840.92,568.15C837.41,569.38 837.39,566.31 834.73,565.72C833.812,565.513 833.154,564.691 833.154,563.749C833.154,563.426 833.231,563.107 833.38,562.82L834.88,559.91C834.902,559.865 834.914,559.816 834.914,559.767C834.914,559.591 834.769,559.447 834.594,559.447C834.52,559.447 834.447,559.473 834.39,559.52C832.743,560.92 831.033,562.797 829.26,565.15C829.128,565.335 828.965,565.494 828.78,565.62L825.28,568C823.84,568.087 822.55,567.147 821.41,565.18C821.957,564.66 822.063,564.05 821.73,563.35C821.57,563.017 821.307,562.887 820.94,562.96C820.787,562.993 820.653,563.117 820.54,563.33C819.02,562.697 817.947,561.997 817.32,561.23C816.54,558.317 816.483,554.93 817.15,551.07C817.152,551.064 817.152,551.058 817.152,551.052C817.152,551.013 817.121,550.982 817.082,550.982C817.056,550.982 817.032,550.996 817.02,551.02C815.607,552.953 813.847,554.323 811.74,555.13C811.405,555.255 811.041,555.293 810.68,555.24C807.84,554.78 807.83,551.83 807.71,549.4C807.694,549.082 807.462,548.813 807.15,548.75C805.67,548.457 805.037,548.747 805.25,549.62L803.3,544.97C805.333,545.59 805.147,544.723 802.74,542.37L801.32,534.71L802.25,530.54C802.303,530.319 802.177,530.09 801.96,530.01C801.533,529.857 801.05,530.017 800.51,530.49L799.86,529.46C798.23,524.58 799.22,519.77 800.6,514.98C800.608,514.953 800.611,514.925 800.611,514.897C800.611,514.727 800.471,514.587 800.301,514.587C800.223,514.587 800.147,514.617 800.09,514.67L795.58,519.07L792.19,513.89C792.044,513.658 791.858,513.452 791.64,513.28C789.94,511.92 788.713,510.493 787.96,509C788.613,508.08 788.847,507.1 788.66,506.06C788.622,505.837 788.496,505.639 788.31,505.51L785.3,503.52C784.586,503.045 784.189,502.214 784.27,501.36C784.443,499.593 785.35,497.593 786.99,495.36C787.049,495.278 787.08,495.18 787.08,495.08C787.08,494.82 786.87,494.605 786.61,494.6C782.86,494.54 781.55,489.27 784.61,487.3C784.762,487.205 784.854,487.038 784.854,486.859C784.854,486.629 784.701,486.425 784.48,486.36C783.34,486.013 782.797,485.433 782.85,484.62C782.93,483.11 782.59,482.61 781.49,481.77C783.217,482.103 784.083,481.717 784.09,480.61C784.117,478.643 784.103,476.713 784.05,474.82C785.377,473.847 786.68,472.81 787.96,471.71C789.22,470.63 790.627,470.21 792.18,470.45C792.289,470.468 792.396,470.493 792.501,470.527C793.584,470.87 794.215,471.97 793.9,472.963C793.869,473.062 793.828,473.158 793.78,473.25C793.607,473.583 793.38,474.127 793.1,474.88C792.911,475.406 793.095,475.999 793.55,476.33C794.39,476.943 794.463,477.71 793.77,478.63C793.277,479.283 792.51,480.033 791.47,480.88C791.439,480.9 791.421,480.935 791.421,480.971C791.421,481.032 791.471,481.081 791.531,481.081C791.548,481.081 791.565,481.078 791.58,481.07L796.75,478.77C797.65,478.372 798.718,478.782 799.12,479.68L799.27,480.03C799.641,480.866 799.373,481.858 798.63,482.4L790.86,488.04C790.86,488.04 790.86,488.04 790.86,488.04C790.831,488.056 790.822,488.096 790.84,488.13L790.94,488.37C790.982,488.463 791.075,488.523 791.177,488.523C791.228,488.523 791.278,488.508 791.32,488.48C792.967,487.427 794.58,486.497 796.16,485.69C798.78,484.34 803.09,482.1 803.84,486.42C803.981,487.242 803.559,488.062 802.81,488.42L796.38,491.48C796.234,491.553 796.099,491.647 795.98,491.76L789.22,498.53C789.102,498.638 789.034,498.791 789.034,498.951C789.034,499.264 789.291,499.521 789.604,499.521C789.7,499.521 789.796,499.497 789.88,499.45C790.6,499.097 793.963,497.263 799.97,493.95C800.53,493.637 801.583,493.603 803.13,493.85C803.91,493.977 804.327,494.29 804.38,494.79C804.44,495.27 804.47,495.663 804.47,495.97C804.463,496.399 804.597,496.82 804.85,497.17L805.52,498.08C805.75,498.397 805.873,498.779 805.873,499.171C805.873,499.768 805.585,500.331 805.1,500.68C801.66,503.16 797,504.6 793.47,508.81C793.313,508.996 793.321,509.272 793.49,509.44L793.7,509.65C793.773,509.718 793.887,509.718 793.96,509.65L798.06,505.78C798.133,505.713 798.21,505.653 798.29,505.6C800.337,504.22 803,503.19 806.28,502.51C806.902,502.381 807.535,502.708 807.79,503.29C808.63,505.21 806.33,509.93 805.71,511.96Z" style="fill:rgb(47,47,45);fill-rule:nonzero;"/>
        <path d="M774.99,486.2C775.018,486.042 775.008,485.88 774.96,485.727C774.795,485.204 774.224,484.91 773.696,485.077C773.543,485.125 773.404,485.208 773.29,485.32L771.31,487.27C771.026,487.552 770.616,487.665 770.23,487.57C768.77,487.21 767.67,485.02 768.82,483.71C770.46,481.83 772.24,480.53 774.78,481.39C777,482.137 778.547,483.693 779.42,486.06C780.21,488.2 779.39,490.29 776.55,489.94C775.515,489.81 774.729,488.92 774.729,487.876C774.729,487.757 774.74,487.638 774.76,487.52L774.99,486.2Z" style="fill-rule:nonzero;"/>
        <path d="M805.71,511.96C805.703,512.327 805.8,512.587 806,512.74L804.5,518.27C804.469,518.383 804.366,518.462 804.249,518.462C804.222,518.462 804.196,518.458 804.17,518.45L803.92,518.36C803.892,518.347 803.876,518.315 803.88,518.28L805.71,511.96Z" style="fill:rgb(122,127,112);fill-rule:nonzero;"/>
        <path d="M873.81,566.7C873.503,567.473 873.137,567.737 872.71,567.49L876.18,552.33C876.189,552.293 876.195,552.255 876.2,552.217C876.296,551.51 875.78,550.848 875.057,550.751C875.018,550.745 874.979,550.742 874.94,550.74L874.88,550.73C873.97,550.682 873.127,551.229 872.8,552.08C870.273,558.62 867.727,563.843 865.16,567.75C865.078,567.88 864.934,567.959 864.78,567.959C864.537,567.959 864.336,567.763 864.33,567.52C864.29,566.653 864.387,565.603 864.62,564.37C865.267,561.057 866.123,557.103 867.19,552.51C867.193,552.496 867.196,552.481 867.199,552.467C867.383,551.575 866.821,550.695 865.956,550.517C865.944,550.515 865.932,550.512 865.92,550.51C865.307,550.403 864.767,550.677 864.3,551.33C861.053,555.943 857.563,561.193 853.83,567.08C853.503,567.607 853.2,567.963 852.92,568.15C852.85,568.199 852.766,568.225 852.681,568.225C852.451,568.225 852.261,568.035 852.261,567.805C852.261,567.762 852.267,567.72 852.28,567.68L856.33,554.87C856.675,553.773 856.229,552.571 855.25,551.96L855.18,551.92C854.922,551.758 854.624,551.673 854.32,551.673C853.632,551.673 853.016,552.111 852.79,552.76C850.84,558.35 849.19,562.91 845.98,566.05C845.913,566.114 845.824,566.15 845.731,566.15C845.534,566.15 845.371,565.987 845.371,565.79C845.371,565.763 845.374,565.736 845.38,565.71C845.46,565.33 846.89,563.05 849.67,558.87C849.816,558.651 849.894,558.394 849.894,558.132C849.894,557.601 849.577,557.12 849.09,556.91L848.71,556.76C848.177,556.542 847.564,556.665 847.16,557.07L838.8,565.43C838.766,565.468 838.717,565.49 838.666,565.49C838.567,565.49 838.486,565.409 838.486,565.31C838.486,565.278 838.494,565.247 838.51,565.22C840.243,561.987 842.163,558.583 844.27,555.01C844.443,554.717 844.53,554.067 844.53,553.06C844.529,552.87 844.491,552.681 844.418,552.505C844.119,551.786 843.297,551.434 842.598,551.724C842.426,551.796 842.27,551.904 842.14,552.04C842.013,552.173 841.58,552.503 840.84,553.03C840.739,553.1 840.619,553.138 840.496,553.138C840.291,553.138 840.1,553.033 839.99,552.86C839.563,552.187 839.103,551.703 838.61,551.41C838.25,551.197 837.798,551.208 837.45,551.44L834.51,553.43C834.079,553.722 833.698,554.076 833.38,554.48L826.59,563.04C826.516,563.13 826.405,563.182 826.289,563.182C826.075,563.182 825.899,563.006 825.899,562.792C825.899,562.761 825.903,562.73 825.91,562.7C827.157,557.993 828.823,553.763 830.91,550.01C831.001,549.85 831.049,549.67 831.049,549.486C831.049,548.969 830.67,548.524 830.16,548.44L827.75,548.04C827.735,548.038 827.719,548.035 827.704,548.031C827.416,547.961 827.238,547.663 827.309,547.37C827.312,547.356 827.316,547.343 827.32,547.33C827.853,545.683 827.42,544.857 826.02,544.85C825.013,544.85 824.31,545.38 823.91,546.44C822.957,548.973 822.04,551.267 821.16,553.32C821.158,553.325 821.156,553.33 821.154,553.335C821.059,553.539 820.818,553.631 820.618,553.539C820.612,553.536 820.606,553.533 820.6,553.53L820.38,553.41C820.345,553.391 820.328,553.353 820.34,553.32C821.587,549.62 822.287,546.433 822.44,543.76C822.513,542.547 822.267,541.687 821.7,541.18C821.652,541.137 821.601,541.096 821.548,541.059C820.786,540.521 819.699,540.732 819.139,541.525C819.099,541.582 819.063,541.64 819.03,541.7C816.943,545.473 814.743,548.627 812.43,551.16C812.371,551.228 812.285,551.267 812.195,551.267C812.045,551.267 811.916,551.158 811.89,551.01C811.677,549.903 811.937,548.433 812.67,546.6C814.25,542.65 816.56,538.77 816.4,534.38C816.39,534.062 816.154,533.792 815.84,533.74L814.84,533.57C814.554,533.525 814.334,533.288 814.31,533C814.15,531.213 814.84,529.917 816.38,529.11C819.553,527.45 821.787,526.057 823.08,524.93C823.333,524.708 823.718,524.717 823.96,524.95C824.107,525.09 824.207,525.34 824.26,525.7C824.279,525.827 824.317,525.95 824.371,526.067C824.693,526.758 825.547,527.052 826.263,526.718C826.381,526.663 826.491,526.593 826.59,526.51C828.37,525.01 829.86,523.34 832.34,522.45C835.447,521.337 838.397,520.62 841.19,520.3C842.69,520.13 842.94,521.42 844.03,522.07C844.311,522.236 844.646,522.283 844.96,522.2C850.09,520.91 853.81,517.38 857.73,515.5C857.809,515.463 857.895,515.443 857.982,515.443C858.306,515.443 858.572,515.71 858.572,516.033C858.572,516.222 858.482,516.399 858.33,516.51L849.84,522.6C848.913,523.268 848.62,524.533 849.16,525.54L849.19,525.58C849.6,526.283 850.355,526.717 851.168,526.717C851.577,526.717 851.978,526.607 852.33,526.4C855.683,524.427 858.607,522.163 861.1,519.61C862.527,518.15 864.203,517.01 866.13,516.19C866.155,516.176 866.183,516.169 866.211,516.169C866.305,516.169 866.381,516.246 866.381,516.339C866.381,516.39 866.359,516.438 866.32,516.47L863.6,519.19C863.22,519.57 863.006,520.087 863.006,520.625C863.006,521.687 863.84,522.579 864.9,522.65C867.08,522.797 869.307,522.137 871.58,520.67C873.25,519.59 874.23,517.08 875.98,515.79C877.527,514.663 879.147,514 880.84,513.8C880.877,513.796 880.914,513.797 880.951,513.803C881.173,513.837 881.328,514.044 881.294,514.261C881.288,514.299 881.277,514.336 881.26,514.37C881.22,514.45 879.993,515.173 877.58,516.54C875.673,517.62 875.407,518.947 876.78,520.52C876.794,520.536 876.808,520.551 876.822,520.567C877.469,521.261 878.57,521.302 879.26,520.659C879.277,520.643 879.294,520.627 879.31,520.61C881.063,518.843 883.413,517.563 886.36,516.77C886.393,516.761 886.427,516.756 886.461,516.756C886.669,516.756 886.841,516.928 886.841,517.136C886.841,517.144 886.84,517.152 886.84,517.16C886.833,517.247 886.783,517.363 886.69,517.51C886.604,517.636 886.496,517.744 886.37,517.83L882.82,520.18C882.365,520.479 882.09,520.989 882.09,521.533C882.09,522.074 882.361,522.58 882.81,522.88L883.51,523.34C884.314,523.878 885.371,523.878 886.18,523.34L893.25,518.67C893.471,518.526 893.766,518.57 893.93,518.77L894.08,518.95C894.082,518.951 894.083,518.952 894.084,518.954C894.091,518.962 894.086,518.978 894.073,518.988C894.072,518.989 894.071,518.989 894.07,518.99L891.14,521.73C890.87,521.981 890.717,522.334 890.717,522.703C890.717,523.147 890.94,523.564 891.31,523.81L892.13,524.35C893.175,525.043 894.595,524.805 895.35,523.81C897.743,520.657 900.237,518.733 902.83,518.04C902.889,518.024 902.95,518.016 903.011,518.016C903.389,518.016 903.701,518.327 903.701,518.706C903.701,518.851 903.655,518.992 903.57,519.11L898.25,526.52C897.747,527.222 897.819,528.194 898.42,528.82L898.45,528.85C898.786,529.152 899.222,529.319 899.673,529.319C900.239,529.319 900.774,529.057 901.12,528.61L903.95,524.96C904.058,524.824 904.223,524.744 904.396,524.744C904.709,524.744 904.966,525.002 904.966,525.314C904.966,525.343 904.964,525.372 904.96,525.4L904.45,528.47C904.43,528.582 904.39,528.691 904.33,528.79C902.41,531.78 901.58,537.53 897.59,540.38C895.74,541.69 895.88,542.26 895.3,544.49C895.261,544.647 895.177,544.789 895.06,544.9L892.68,547.28C892.574,547.386 892.48,547.504 892.4,547.63L885.11,558.6C885.062,558.676 884.979,558.721 884.89,558.721C884.747,558.721 884.63,558.604 884.63,558.461C884.63,558.437 884.633,558.413 884.64,558.39C885.513,555.27 885.63,552.447 884.99,549.92C884.956,549.787 884.905,549.658 884.837,549.538C884.421,548.803 883.477,548.538 882.747,548.951C882.627,549.019 882.517,549.103 882.42,549.2C882.313,549.313 882.123,549.68 881.85,550.3C879.417,555.84 876.737,561.307 873.81,566.7ZM843.05,523.37C843.071,523.281 843.082,523.19 843.082,523.099C843.082,522.479 842.589,521.961 841.97,521.93C837.39,521.69 832.44,523.13 831,527.94C830.944,528.132 830.922,528.332 830.938,528.532C831.007,529.429 831.797,530.111 832.689,530.042C832.887,530.027 833.08,529.975 833.26,529.89C833.947,529.563 834.54,528.95 835.04,528.05C835.172,527.811 835.424,527.662 835.697,527.662C835.953,527.662 836.193,527.794 836.33,528.01C841.52,536.29 853.16,540.09 862.54,540.96C869.407,541.593 875.59,540.53 881.09,537.77C881.774,537.425 882.254,536.771 882.38,536.01L882.46,535.53C882.47,535.467 882.475,535.402 882.475,535.338C882.475,534.663 881.92,534.108 881.245,534.108C881.114,534.108 880.984,534.129 880.86,534.17C873.707,536.563 867.46,537.333 862.12,536.48C854.47,535.26 844.42,532.5 839.89,526.2C839.849,526.145 839.818,526.084 839.798,526.019C839.696,525.695 839.884,525.343 840.214,525.239C840.277,525.219 840.344,525.209 840.41,525.21C841.877,525.23 842.757,524.617 843.05,523.37Z" style="fill:rgb(253,253,253);fill-rule:nonzero;"/>
        <path d="M799.86,529.46C799.753,529.62 799.613,529.763 799.44,529.89C799.133,529.057 798.713,527.45 798.18,525.07C797.82,523.463 796.953,521.463 795.58,519.07L800.09,514.67C800.147,514.617 800.223,514.587 800.301,514.587C800.471,514.587 800.611,514.727 800.611,514.897C800.611,514.925 800.608,514.953 800.6,514.98C799.22,519.77 798.23,524.58 799.86,529.46Z" style="fill:rgb(253,253,253);fill-rule:nonzero;"/>
        <path d="M843.05,523.37C842.757,524.617 841.877,525.23 840.41,525.21C840.344,525.209 840.277,525.219 840.214,525.239C839.884,525.343 839.696,525.695 839.798,526.019C839.818,526.084 839.849,526.145 839.89,526.2C844.42,532.5 854.47,535.26 862.12,536.48C867.46,537.333 873.707,536.563 880.86,534.17C880.984,534.129 881.114,534.108 881.245,534.108C881.92,534.108 882.475,534.663 882.475,535.338C882.475,535.402 882.47,535.467 882.46,535.53L882.38,536.01C882.254,536.771 881.774,537.425 881.09,537.77C875.59,540.53 869.407,541.593 862.54,540.96C853.16,540.09 841.52,536.29 836.33,528.01C836.193,527.794 835.953,527.662 835.697,527.662C835.424,527.662 835.172,527.811 835.04,528.05C834.54,528.95 833.947,529.563 833.26,529.89C833.08,529.975 832.887,530.027 832.689,530.042C831.797,530.111 831.007,529.429 830.938,528.532C830.922,528.332 830.944,528.132 831,527.94C832.44,523.13 837.39,521.69 841.97,521.93C842.589,521.961 843.082,522.479 843.082,523.099C843.082,523.19 843.071,523.281 843.05,523.37Z" style="fill-rule:nonzero;"/>
        <path d="M800.51,530.49L800.52,531.22C800.053,530.887 799.693,530.443 799.44,529.89C799.613,529.763 799.753,529.62 799.86,529.46L800.51,530.49Z" style="fill:rgb(122,127,112);fill-rule:nonzero;"/>
        <path d="M801.32,534.71L800.52,531.22L800.51,530.49C801.05,530.017 801.533,529.857 801.96,530.01C802.177,530.09 802.303,530.319 802.25,530.54L801.32,534.71Z" style="fill:white;fill-opacity:0.56;fill-rule:nonzero;"/>
        <path d="M803.3,544.97L802.74,542.37C805.147,544.723 805.333,545.59 803.3,544.97Z" style="fill:rgb(180,209,220);fill-rule:nonzero;"/>
        <path d="M817.32,561.23C816.16,560.423 815.107,559.69 814.16,559.03C813.74,558.73 812.623,558.113 810.81,557.18C807.977,555.727 806.123,553.207 805.25,549.62C805.037,548.747 805.67,548.457 807.15,548.75C807.462,548.813 807.694,549.082 807.71,549.4C807.83,551.83 807.84,554.78 810.68,555.24C811.041,555.293 811.405,555.255 811.74,555.13C813.847,554.323 815.607,552.953 817.02,551.02C817.032,550.996 817.056,550.982 817.082,550.982C817.121,550.982 817.152,551.013 817.152,551.052C817.152,551.058 817.152,551.064 817.15,551.07C816.483,554.93 816.54,558.317 817.32,561.23Z" style="fill:rgb(253,253,253);fill-rule:nonzero;"/>
        <path d="M861.64,571.87C859.193,572.43 856.603,572.563 853.87,572.27C857.27,568.33 860.15,563.923 862.51,559.05C862.517,559.038 862.53,559.031 862.544,559.031C862.554,559.031 862.563,559.034 862.57,559.04C862.67,559.133 862.713,559.203 862.7,559.25C861.4,563.403 861.047,567.61 861.64,571.87Z" style="fill:rgb(253,253,253);fill-rule:nonzero;"/>
        <path d="M840.87,569.86L825.28,568L828.78,565.62C828.965,565.494 829.128,565.335 829.26,565.15C831.033,562.797 832.743,560.92 834.39,559.52C834.447,559.473 834.52,559.447 834.594,559.447C834.769,559.447 834.914,559.591 834.914,559.767C834.914,559.816 834.902,559.865 834.88,559.91L833.38,562.82C833.231,563.107 833.154,563.426 833.154,563.749C833.154,564.691 833.812,565.513 834.73,565.72C837.39,566.31 837.41,569.38 840.92,568.15C840.981,568.13 841.045,568.122 841.109,568.128C841.361,568.15 841.55,568.37 841.528,568.616C841.523,568.681 841.503,568.744 841.47,568.8L840.87,569.86Z" style="fill:rgb(253,253,253);fill-rule:nonzero;"/>
        <path d="M880.65,562.99L879.9,563.58C879.49,563.65 879.17,563.45 879.26,563.01C879.507,561.83 880.047,560.903 880.88,560.23C880.96,560.166 881.059,560.131 881.162,560.131C881.409,560.131 881.612,560.334 881.612,560.581C881.612,560.594 881.611,560.607 881.61,560.62C881.537,561.393 881.217,562.183 880.65,562.99Z" style="fill:rgb(122,127,112);fill-rule:nonzero;"/>
        <path d="M841.26,574.6C837.15,577.78 833.75,581.73 831.67,586.48C830.02,590.25 828.44,592.96 824.91,594.73C824.859,594.756 824.805,594.775 824.749,594.788C824.36,594.88 823.962,594.63 823.87,594.235C823.857,594.181 823.85,594.125 823.85,594.07C823.84,588.7 824.65,583.31 822.4,580.11C817.207,572.763 810.333,567.777 801.78,565.15C801.588,565.091 801.456,564.912 801.456,564.711C801.456,564.545 801.546,564.391 801.69,564.31L807.12,561.17C807.744,560.814 808.506,560.791 809.15,561.11C811.617,562.35 813.487,563.563 814.76,564.75C819.1,568.8 821.23,571.45 825.79,572.82C825.883,572.847 825.977,572.863 826.07,572.87L840.91,573.49C841.239,573.505 841.501,573.78 841.501,574.109C841.501,574.301 841.412,574.483 841.26,574.6Z" style="fill:rgb(253,253,253);fill-rule:nonzero;"/>
        <path d="M821.41,565.18C820.937,564.72 820.647,564.103 820.54,563.33C820.653,563.117 820.787,562.993 820.94,562.96C821.307,562.887 821.57,563.017 821.73,563.35C822.063,564.05 821.957,564.66 821.41,565.18Z" style="fill:rgb(253,253,253);fill-rule:nonzero;"/>
        <path d="M820.99,682.35C803.73,682.23 786.447,682.19 769.14,682.23C768.32,682.23 767.4,682.3 766.38,682.44C765.367,682.58 764.443,682.667 763.61,682.7C764.283,678.16 764.917,673.667 765.51,669.22C767.39,655.17 771.23,642.81 777.49,629.81C777.74,629.304 778.179,628.916 778.71,628.73L779.32,628.52C779.822,628.349 780.226,627.97 780.43,627.48C782.87,621.64 785.003,616.837 786.83,613.07C789.69,607.17 792.18,603.98 796.88,600.31C798.022,599.417 798.285,597.772 797.48,596.56L797.45,596.51C797.045,595.899 796.359,595.531 795.626,595.531C795.181,595.531 794.746,595.667 794.38,595.92C790.673,598.5 788.2,600.87 786.96,603.03C783.32,609.383 780.277,616.493 777.83,624.36C777.632,624.977 777.017,625.367 776.38,625.28C775.093,625.107 774.073,624.907 773.32,624.68C764.187,621.907 755.687,619.087 747.82,616.22C747.814,616.218 747.808,616.216 747.802,616.213C747.521,616.103 747.383,615.777 747.496,615.491C747.497,615.487 747.499,615.484 747.5,615.48C751.38,606.46 756.4,596.93 763.18,590.67C767.107,587.043 769.327,584.937 769.84,584.35C773.073,580.663 775.79,578.043 777.99,576.49C784.01,572.223 788.013,569.41 790,568.05C791.773,566.837 794.007,566.603 796.7,567.35C806.233,569.983 813.637,574.653 818.91,581.36C822.37,585.75 818.13,598.5 823.72,598.39C826.21,598.35 830.15,596.14 831.23,594.44C832.31,592.74 833.313,591.373 834.24,590.34C834.308,590.265 834.405,590.222 834.507,590.222C834.704,590.222 834.867,590.384 834.867,590.582C834.867,590.619 834.861,590.655 834.85,590.69C834.37,592.163 833.553,593.907 832.4,595.92C829.31,601.32 825.95,605.84 823.89,612.06C821.417,619.547 820.08,626.64 819.88,633.34C819.473,647.253 819.523,660.64 820.03,673.5C820.123,675.92 820.443,678.87 820.99,682.35Z" style="fill:rgb(249,211,142);fill-rule:nonzero;"/>
        <path d="M870.19,568.01C869.817,569.397 868.75,570.157 866.99,570.29C867.383,569.03 868.303,567.997 869.75,567.19C869.806,567.161 869.867,567.146 869.93,567.146C870.142,567.146 870.317,567.318 870.32,567.53C870.32,567.69 870.277,567.85 870.19,568.01Z" style="fill:rgb(253,253,253);fill-rule:nonzero;"/>
        <path d="M848.35,570.69C847.57,571.257 846.85,571.083 846.19,570.17C846.45,569.317 846.87,568.793 847.45,568.6C847.747,568.496 848.078,568.63 848.22,568.91C848.48,569.423 848.523,570.017 848.35,570.69Z" style="fill:rgb(253,253,253);fill-rule:nonzero;"/>
        <path d="M836.39,596.77C836.583,610.683 838.417,624.827 841.89,639.2C841.893,639.212 841.896,639.224 841.898,639.236C842.088,640.115 841.526,640.995 840.652,641.183C840.641,641.186 840.631,641.188 840.62,641.19L831.92,642.88C831.857,642.892 831.793,642.898 831.729,642.898C831.226,642.898 830.795,642.527 830.72,642.03C829.1,631.15 830.77,619.92 829.23,609.65C829.125,608.966 829.26,608.267 829.61,607.67L835.9,596.64C835.945,596.555 836.034,596.501 836.13,596.501C836.273,596.501 836.39,596.618 836.39,596.761C836.39,596.764 836.39,596.767 836.39,596.77Z" style="fill:rgb(249,211,142);fill-rule:nonzero;"/>
        <path d="M842.68,682.12L824.47,682.33C824.28,679.51 823.8,676.44 823.74,673.9C823.44,660.467 823.327,648.233 823.4,637.2C823.447,630.747 824.32,624.307 826.02,617.88C826.035,617.839 826.061,617.803 826.096,617.776C826.192,617.703 826.328,617.718 826.398,617.809C826.425,617.844 826.439,617.886 826.44,617.93C826.26,627.16 825.91,637.09 828.01,644.47C828.523,646.29 830.19,646.723 833.01,645.77C833.048,645.757 833.086,645.746 833.124,645.737C833.792,645.581 834.471,646.006 834.629,646.679C834.638,646.715 834.645,646.753 834.65,646.79C836.223,658.363 838.9,670.14 842.68,682.12Z" style="fill:rgb(253,253,253);fill-rule:nonzero;"/>
        <path d="M759.85,682.3C754.403,681.713 748.967,681.813 743.54,682.6C743.18,674.5 742.01,665.45 742.48,658.2C743.25,646.2 747.5,633.71 751.53,621.52C751.564,621.411 751.665,621.337 751.778,621.337C751.806,621.337 751.834,621.341 751.86,621.35L772.25,628.12C772.515,628.204 772.695,628.452 772.695,628.73C772.695,628.819 772.676,628.908 772.64,628.99C768.72,637.59 765.693,646.447 763.56,655.56C762.4,660.5 761.163,669.413 759.85,682.3Z" style="fill:rgb(253,253,253);fill-rule:nonzero;"/>
    </g>
</svg>
