<?xml version="1.0" encoding="UTF-8" standalone="no"?>
<!DOCTYPE svg PUBLIC "-//W3C//DTD SVG 1.1//EN" "http://www.w3.org/Graphics/SVG/1.1/DTD/svg11.dtd">
<svg width="100%" height="100%" viewBox="0 0 230 320" version="1.1" xmlns="http://www.w3.org/2000/svg" xmlns:xlink="http://www.w3.org/1999/xlink" xml:space="preserve" xmlns:serif="http://www.serif.com/" style="fill-rule:evenodd;clip-rule:evenodd;stroke-linejoin:round;stroke-miterlimit:2;">
    <g transform="matrix(1,0,0,1,-737.739,-22.0331)">
        <path d="M855.38,340.66C851.447,329.653 848.393,318.557 846.22,307.37C846.217,307.354 846.213,307.338 846.208,307.322C846.12,307.022 845.806,306.846 845.511,306.932C845.494,306.937 845.477,306.943 845.46,306.95L841.19,308.67C840.826,308.816 840.604,309.191 840.65,309.58C841.677,317.967 842.377,323.017 842.75,324.73C843.903,329.917 845.023,335.233 846.11,340.68C845.09,341.053 843.863,341.09 842.43,340.79C837.47,321.11 834.22,299.25 836.7,279.39C836.907,277.763 837.263,276.123 837.77,274.47C837.953,273.876 838.506,273.468 839.127,273.468C839.675,273.468 840.175,273.785 840.41,274.28C840.49,274.44 840.503,274.77 840.45,275.27C839.383,285.983 839.25,295.767 840.05,304.62C840.059,304.767 840.182,304.883 840.329,304.883C840.367,304.883 840.405,304.875 840.44,304.86L849.01,301.42C849.254,301.318 849.381,301.046 849.3,300.8C844.57,286.2 842.45,266.45 840.53,256.5C839.91,253.3 839.017,250.443 837.85,247.93C837.798,247.809 837.678,247.731 837.547,247.731C837.4,247.731 837.271,247.829 837.23,247.97C835.26,253.91 833.96,258.75 827.5,260.96C820.58,263.31 818.25,257.19 817.07,251.57C816.07,246.77 814.98,243.09 812.1,240.63C805.49,234.98 795.25,228.08 799.71,219.17C799.734,219.122 799.748,219.069 799.752,219.015C799.768,218.79 799.601,218.593 799.382,218.577C799.327,218.573 799.272,218.581 799.22,218.6C792.887,220.773 787.287,224.043 782.42,228.41C773.24,236.66 764.62,244.77 758.79,255.29C752.29,267.02 748.95,275.88 743.18,290.45C743.139,290.554 743.118,290.664 743.118,290.775C743.118,291.147 743.351,291.481 743.7,291.61C755.11,295.71 766.37,299.28 778,300.25C778.445,300.288 778.849,299.976 778.92,299.54C780.56,289.52 783.303,279.637 787.15,269.89C787.73,268.43 788.463,267.113 789.35,265.94C789.398,265.877 789.451,265.817 789.508,265.761C790.068,265.212 790.931,265.17 791.418,265.668C791.467,265.717 791.511,265.772 791.55,265.83C791.89,266.33 791.897,266.983 791.57,267.79C787.277,278.443 784.143,289.65 782.17,301.41C781.897,303.063 780.92,303.897 779.24,303.91C778.193,303.923 777.13,303.857 776.05,303.71C775.539,303.642 775.054,303.982 774.94,304.49C772.32,316.53 770.437,328.673 769.29,340.92C767.697,341.113 766.587,340.987 765.96,340.54C766.873,328.22 768.69,315.923 771.41,303.65C771.412,303.642 771.413,303.635 771.415,303.627C771.47,303.33 771.266,303.04 770.964,302.984C770.956,302.982 770.948,302.981 770.94,302.98C763.82,301.907 756.653,300.097 749.44,297.55C749.381,297.529 749.318,297.518 749.255,297.518C749.001,297.518 748.779,297.693 748.72,297.94C745.03,314.89 742.76,325.63 741.36,340.76C740.5,341.08 739.46,341.12 738.24,340.88C737.933,340.816 737.718,340.533 737.74,340.22C739.02,325.587 741.597,311.177 745.47,296.99C745.591,296.523 745.374,296.031 744.95,295.81L740.48,293.5C739.517,293.009 739.055,291.874 739.4,290.85C742.733,280.87 746.9,270.717 751.9,260.39C754.807,254.39 757.62,249.633 760.34,246.12C765.68,239.213 771.807,232.72 778.72,226.64C785.93,220.3 793.28,216.38 802.18,214.38C802.499,214.309 802.728,214.024 802.728,213.697C802.728,213.62 802.715,213.543 802.69,213.47L795.12,191.41C794.946,190.898 794.474,190.541 793.93,190.51L792.33,190.42C791.961,190.4 791.669,190.09 791.669,189.721C791.669,189.707 791.669,189.694 791.67,189.68L791.86,186.31C791.866,186.234 791.849,186.159 791.811,186.094C791.707,185.913 791.468,185.853 791.283,185.96C791.218,185.998 791.165,186.054 791.13,186.12L790.29,187.74C790.048,188.215 789.558,188.515 789.025,188.515C788.476,188.515 787.974,188.197 787.74,187.7C787.18,186.52 787.137,184.897 787.61,182.83C787.614,182.808 787.616,182.786 787.616,182.764C787.616,182.578 787.463,182.424 787.276,182.424C787.21,182.424 787.145,182.444 787.09,182.48C786.083,183.213 785.277,183.513 784.67,183.38C784.657,183.377 784.644,183.374 784.63,183.371C783.643,183.138 783.055,181.992 783.329,180.834C783.333,180.819 783.336,180.805 783.34,180.79C783.647,179.617 784.177,178.107 784.93,176.26C785.329,175.267 784.976,174.124 784.09,173.54C779.923,170.78 776.29,168.22 773.19,165.86C764.31,159.12 759.2,148.1 762.55,136.95C762.88,135.85 763.79,135.12 764.36,134.2C764.592,133.83 764.633,133.372 764.47,132.97C760.68,123.47 758.99,111.91 761.7,101.8C761.705,101.78 761.707,101.76 761.707,101.74C761.707,101.597 761.59,101.48 761.447,101.48C761.371,101.48 761.299,101.513 761.25,101.57C759.91,103.117 758.4,103.283 756.72,102.07C756.417,101.848 756.229,101.503 756.21,101.13C755.84,93.84 761.75,84.11 766,78.22C766.041,78.158 766.062,78.086 766.062,78.012C766.062,77.803 765.891,77.632 765.682,77.632C765.611,77.632 765.541,77.652 765.48,77.69C763.667,78.917 762.103,80.09 760.79,81.21C759.742,82.097 758.172,82.118 757.02,81.26C756.58,80.933 756.4,80.347 756.48,79.5C757.12,73.03 773.03,64.94 778.36,62.06C778.544,61.963 778.66,61.772 778.66,61.564C778.66,61.287 778.454,61.05 778.18,61.01C776.327,60.71 773.437,60.18 769.51,59.42C769.432,59.405 769.356,59.385 769.28,59.362C768.254,59.04 767.649,58.013 767.939,57.086C767.961,57.016 767.988,56.947 768.02,56.88C769.61,53.5 778.08,54.26 781.11,54.95C781.129,54.954 781.148,54.956 781.168,54.956C781.316,54.956 781.438,54.834 781.438,54.686C781.438,54.653 781.432,54.621 781.42,54.59C780.51,52.28 778.75,43.63 783.46,43.69C783.8,43.696 784.123,43.837 784.36,44.08C786.39,46.19 787.26,51.59 787.95,53.36C788.03,53.568 788.231,53.706 788.454,53.706C788.669,53.706 788.865,53.578 788.95,53.38C793.85,42.18 805.81,34.93 817.02,32.23C818.54,31.87 820.48,31.47 822.84,31.03C823.311,30.937 823.766,30.775 824.19,30.55C831.577,26.59 838.693,24.31 845.54,23.71C847.72,23.517 852.783,23.503 860.73,23.67C867.01,23.8 871.04,23.26 877.73,22.19C879.35,21.923 880.68,21.997 881.72,22.41C882.074,22.551 882.363,22.819 882.53,23.16C884,26.16 882.24,29.45 879.66,31.29C879.6,31.331 879.564,31.399 879.564,31.472C879.564,31.592 879.664,31.692 879.784,31.692C879.793,31.692 879.801,31.691 879.81,31.69C889.41,30.57 899.35,30.217 909.63,30.63C912.243,30.73 914.173,31.087 915.42,31.7C915.719,31.849 915.961,32.091 916.11,32.39C918.11,36.51 914.68,39.06 911.1,40.27C911.058,40.283 911.018,40.304 910.984,40.332C910.83,40.456 910.808,40.688 910.935,40.846C910.962,40.879 910.994,40.908 911.03,40.93C919,45.83 928.4,50.39 937.72,53.51C941.79,54.87 957.94,59.86 950.93,66.93C948.35,69.523 945.25,70.85 941.63,70.91C941.397,70.914 941.207,71.107 941.207,71.34C941.207,71.447 941.248,71.551 941.32,71.63C944.34,75.07 948.07,79.96 948.63,84.4C948.91,86.68 946.6,87.57 944.76,86.84C943.96,86.52 943.137,85.893 942.29,84.96C942.218,84.884 942.118,84.841 942.014,84.841C941.805,84.841 941.634,85.012 941.634,85.221C941.634,85.244 941.636,85.267 941.64,85.29C942.98,91.78 944.28,98.07 942.04,103.81C941.087,106.257 940.53,107.713 940.37,108.18C940.347,108.244 940.336,108.312 940.336,108.38C940.336,108.707 940.603,108.977 940.93,108.98C947.54,108.96 953.11,110.95 957.5,116.01C963.373,122.783 966.667,130.7 967.38,139.76C967.78,144.81 963.9,149.19 960.38,154.39C957.14,159.183 952.52,162.557 946.52,164.51C946.051,164.66 945.723,165.088 945.7,165.58C945.33,173.26 942.42,179.8 935.69,183.39C932.357,185.17 929.083,186.247 925.87,186.62C925.489,186.664 925.198,186.991 925.198,187.375C925.198,187.42 925.202,187.465 925.21,187.51L926.1,192.16C926.112,192.224 926.119,192.289 926.119,192.354C926.119,192.914 925.658,193.374 925.099,193.374C924.936,193.374 924.775,193.335 924.63,193.26L922.86,192.34C922.804,192.309 922.74,192.292 922.676,192.292C922.467,192.292 922.296,192.464 922.296,192.672C922.296,192.727 922.307,192.781 922.33,192.83C923.29,195.137 923.603,197.667 923.27,200.42C923.194,201.094 922.617,201.609 921.939,201.609C921.642,201.609 921.354,201.511 921.12,201.33L919.92,200.41C919.86,200.364 919.794,200.328 919.723,200.303C919.355,200.173 918.948,200.364 918.82,200.726C918.794,200.798 918.781,200.873 918.78,200.95C918.68,205.103 918.08,209.25 916.98,213.39C916.808,214.031 916.223,214.48 915.56,214.48C915.038,214.48 914.553,214.201 914.29,213.75L913.37,212.15C913.288,212.006 913.135,211.917 912.97,211.917C912.72,211.917 912.514,212.12 912.51,212.37C912.443,214.577 911.913,216.543 910.92,218.27C909.51,220.7 909.28,222.3 908.29,224.76C907.783,226.013 906.92,226.58 905.7,226.46C905.379,226.43 905.105,226.215 905,225.91L904.4,224.18C904.381,224.127 904.347,224.079 904.304,224.042C904.169,223.929 903.969,223.942 903.859,224.072C903.821,224.117 903.797,224.172 903.79,224.23C903.43,226.343 902.477,228.747 900.93,231.44C900.908,231.478 900.883,231.515 900.857,231.55C900.514,231.998 899.865,232.088 899.421,231.748C899.385,231.721 899.352,231.692 899.32,231.66L898.7,231.04C898.557,230.897 898.364,230.817 898.162,230.817C897.835,230.817 897.542,231.029 897.44,231.34C896.34,234.72 895.81,238.03 892.84,238.93C892.805,238.942 892.768,238.947 892.731,238.947C892.539,238.945 892.382,238.781 892.384,238.584C892.384,238.549 892.39,238.514 892.4,238.48C892.807,237.16 892.983,235.717 892.93,234.15C892.923,233.952 892.758,233.793 892.56,233.793C892.463,233.793 892.369,233.831 892.3,233.9L891.73,234.46C891.634,234.557 891.58,234.69 891.58,234.83C891.62,238.21 891.63,241.18 888.28,241.66C887.912,241.708 887.55,241.545 887.35,241.24C886.99,240.68 886.707,240.01 886.5,239.23C886.461,239.069 886.316,238.955 886.15,238.955C886.015,238.955 885.892,239.03 885.83,239.15C884.9,240.87 884.35,243.78 881.77,243.83C881.759,243.83 881.748,243.83 881.737,243.83C880.871,243.83 880.157,243.117 880.157,242.25C880.157,242.22 880.158,242.19 880.16,242.16L880.25,240.39C880.251,240.378 880.251,240.365 880.251,240.353C880.251,240.079 880.026,239.853 879.751,239.853C879.574,239.853 879.41,239.947 879.32,240.1C877.873,242.46 876.253,244.527 874.46,246.3C873.782,246.98 872.727,247.131 871.88,246.67C870.153,245.73 870.217,244.147 872.07,241.92C872.116,241.864 872.141,241.794 872.141,241.722C872.141,241.578 872.041,241.452 871.9,241.42L871.34,241.29C871.304,241.283 871.265,241.299 871.24,241.33C869.12,243.9 866.42,247.88 863.84,246.95C863.822,246.943 863.804,246.937 863.786,246.929C862.952,246.594 862.532,245.652 862.858,244.843C862.865,244.825 862.872,244.807 862.88,244.79C863.007,244.51 863.4,243.773 864.06,242.58C864.091,242.525 864.107,242.463 864.107,242.4C864.107,242.197 863.94,242.03 863.737,242.03C863.735,242.03 863.732,242.03 863.73,242.03C861.23,242.02 858.78,247.66 855.21,246.48C855.151,246.461 855.094,246.438 855.038,246.411C854.31,246.063 854.012,245.149 854.377,244.387C854.405,244.33 854.436,244.274 854.47,244.22C855.177,243.1 855.697,242.253 856.03,241.68C856.104,241.563 856.144,241.427 856.144,241.288C856.144,240.888 855.815,240.558 855.414,240.558C855.217,240.558 855.027,240.638 854.89,240.78C853.85,241.773 852.993,242.633 852.32,243.36C851.2,244.59 849.88,245.27 848.66,244.11C848.368,243.837 848.211,243.449 848.23,243.05C848.27,242.05 848.463,241.24 848.81,240.62C848.889,240.478 848.931,240.319 848.931,240.157C848.931,239.636 848.502,239.207 847.981,239.207C847.864,239.207 847.749,239.228 847.64,239.27C844.693,240.397 842.133,242.08 839.96,244.32C839.83,244.45 839.805,244.653 839.9,244.81C841.973,248.257 843.423,252.073 844.25,256.26C845.463,262.42 846.343,268.04 846.89,273.12C847.67,280.393 849.673,289.63 852.9,300.83C853.38,302.51 852.553,303.723 850.42,304.47C849.737,304.71 849.335,305.427 849.49,306.13C852.03,317.817 855.227,329.203 859.08,340.29C859.097,340.339 859.106,340.39 859.106,340.442C859.106,340.655 858.958,340.842 858.75,340.89C857.557,341.163 856.433,341.087 855.38,340.66ZM845.202,29.436C845.099,28.964 841.728,29.286 837.734,30.15C833.739,31.014 830.536,32.113 830.638,32.584C830.638,32.584 830.638,32.584 830.638,32.584C830.741,33.056 834.112,32.734 838.106,31.87C842.101,31.006 845.304,29.907 845.202,29.436C845.202,29.436 845.202,29.436 845.202,29.436ZM799.26,48.02L813.05,38.75C813.057,38.746 813.061,38.738 813.06,38.73L813.03,38.69C813.029,38.689 813.029,38.688 813.028,38.688C812.616,38.073 809.231,39.613 805.53,42.1L805.2,42.32C805.198,42.321 805.196,42.323 805.194,42.324C801.492,44.811 798.786,47.364 799.199,47.979C799.199,47.979 799.2,47.98 799.2,47.98L799.23,48.02C799.234,48.024 799.239,48.027 799.245,48.027C799.251,48.027 799.256,48.024 799.26,48.02ZM937.018,58.282C936.914,58.548 938.888,59.573 941.39,60.554C943.893,61.535 946.038,62.123 946.142,61.858C946.246,61.592 944.272,60.567 941.77,59.586C939.267,58.605 937.122,58.017 937.018,58.282ZM856.84,110.69C856.875,110.859 857.04,110.971 857.21,110.94C868.43,108.87 881.6,111.59 888.85,121.46C889.151,121.876 889.676,122.068 890.17,121.94C894.523,120.873 898.55,120.487 902.25,120.78C903.97,120.92 905.173,121 905.86,121.02C906.379,121.04 906.888,120.892 907.31,120.6C914.74,115.5 923.78,111.27 932.59,109.38C932.795,109.33 932.941,109.144 932.941,108.933C932.941,108.711 932.779,108.518 932.56,108.48L916.41,105.81C914.993,105.575 913.854,104.496 913.54,103.09L913.47,102.79C913.448,102.676 913.437,102.559 913.437,102.443C913.437,101.439 914.263,100.613 915.267,100.613C915.321,100.613 915.376,100.615 915.43,100.62C921.15,101.153 927.063,102.303 933.17,104.07C933.211,104.082 933.254,104.088 933.297,104.088C933.544,104.088 933.747,103.885 933.747,103.638C933.747,103.577 933.734,103.516 933.71,103.46L923.73,79.28C923.597,78.968 923.422,78.675 923.21,78.41C921.73,76.577 920.483,75.29 919.47,74.55C912.857,69.737 905.233,64.77 896.6,59.65C896.323,59.487 895.972,59.511 895.72,59.71C891.4,63.123 886.263,66.297 880.31,69.23C879.291,69.729 878.309,70.304 877.37,70.95C874.76,72.74 870.31,76.58 868.37,72.89C867.5,71.24 867.83,70.16 867.93,68.37C867.933,68.338 867.929,68.307 867.919,68.277C867.878,68.157 867.742,68.094 867.618,68.137C867.589,68.146 867.563,68.161 867.54,68.18C862.867,72.373 857.603,76.323 851.75,80.03C846.703,83.223 841.14,84.67 835.06,84.37C834.369,84.34 833.816,83.763 833.816,83.071C833.816,83.037 833.817,83.004 833.82,82.97C833.92,81.583 834.387,80.45 835.22,79.57C835.262,79.534 835.286,79.481 835.286,79.425C835.286,79.32 835.2,79.234 835.095,79.234C835.049,79.234 835.005,79.25 834.97,79.28C825.003,86.4 814.113,90.963 802.3,92.97C802.196,92.989 802.119,93.081 802.119,93.186C802.119,93.219 802.126,93.251 802.14,93.28C804.653,98.78 807.13,105.17 809.57,112.45C811.38,117.85 810.06,120.44 804.27,120C804.263,120 804.256,119.999 804.249,119.999C804.09,119.999 803.959,120.13 803.959,120.289C803.959,120.296 803.96,120.303 803.96,120.31L804.67,127.31C804.691,127.534 804.885,127.706 805.11,127.7C814.51,127.6 820.887,127.38 824.24,127.04C824.813,126.98 825.467,126.52 826.2,125.66C827.53,124.11 827.88,123.96 829.65,123.45C830.19,123.299 830.689,123.025 831.11,122.65C835.7,118.59 842.24,113.94 848.59,112.68C848.712,112.667 848.806,112.563 848.806,112.44C848.806,112.308 848.697,112.199 848.565,112.199C848.557,112.199 848.548,112.199 848.54,112.2C845.15,112.15 840.42,112.83 836.75,110.89C836.442,110.723 836.276,110.374 836.34,110.03C836.633,108.557 837.367,107.837 838.54,107.87C847.473,108.163 856.7,105.753 866.22,100.64C867.304,100.058 868.668,100.409 869.33,101.44L869.35,101.47C869.931,102.381 869.727,103.598 868.88,104.27C865.193,107.183 861.24,109.22 857.02,110.38C856.894,110.414 856.815,110.542 856.84,110.67L856.84,110.69ZM936.71,112.91C928.997,114.163 921.63,116.887 914.61,121.08C913.03,122.02 912.137,123.38 911.93,125.16C911.927,125.182 911.924,125.203 911.921,125.225C911.792,125.993 911.005,126.511 910.177,126.373C910.155,126.369 910.132,126.365 910.11,126.36C908.9,126.1 907.93,126.09 907.08,127.27C903.72,131.923 902.307,136.417 902.84,140.75C903.493,146.017 905.643,150.247 909.29,153.44C918.89,161.847 930.1,164.78 942.92,162.24L946.14,160.97C955.1,158.23 958.45,151.73 963.48,143C963.626,142.741 963.737,142.462 963.81,142.17C964.123,140.85 964.117,139.21 963.79,137.25C962.463,129.297 959.113,122.467 953.74,116.76C950.627,113.453 946.097,112.057 940.15,112.57C939.477,112.43 938.33,112.543 936.71,112.91ZM845.76,162.34C845.847,160.513 846.35,159.297 847.27,158.69C847.448,158.572 847.658,158.509 847.872,158.509C848.47,158.509 848.962,159.001 848.962,159.599C848.962,159.619 848.961,159.64 848.96,159.66L848.74,163.65C848.722,164.013 848.936,164.348 849.27,164.48C855.637,166.973 861.947,168.027 868.2,167.64C879.58,166.93 890.89,161.72 892.59,149.56C893.557,142.653 892.317,135.72 888.87,128.76C888.709,128.438 888.393,128.225 888.04,128.2C887.787,128.173 887.5,128.257 887.18,128.45C886.687,128.737 886.227,128.763 885.8,128.53C883.85,127.48 883.83,125.89 885.08,124.2C885.464,123.682 885.439,122.964 885.02,122.48C881.587,118.507 877.34,116.097 872.28,115.25C860.14,113.22 847.23,115.4 837.62,123.35C837.1,123.777 835.543,125.313 832.95,127.96C832.844,128.06 832.726,128.147 832.6,128.22L829.64,129.93C829.292,130.136 829.035,130.465 828.92,130.85C824.55,145.78 833.51,155.46 845.23,162.61C845.255,162.625 845.281,162.637 845.308,162.646C845.491,162.704 845.688,162.605 845.745,162.427C845.754,162.399 845.759,162.37 845.76,162.34ZM783.6,138.31C783.467,139.077 783.723,140.09 784.37,141.35C784.514,141.631 784.58,141.946 784.56,142.26C784.413,144.66 783.49,145.883 781.79,145.93C781.517,145.703 781.263,145.45 781.03,145.17C780.81,144.91 780.677,144.6 780.63,144.24C780.07,139.98 777.38,132.72 771.99,133.74C762.16,135.6 763.81,148.27 767.59,154.26C772.32,161.75 777.57,164.88 784.78,169.71C785.753,170.357 786.783,171.383 787.87,172.79L792.83,178.62C792.863,178.66 792.897,178.703 792.93,178.75L796.17,183.41L800.2,194.73C800.073,195.25 800.383,195.98 801.13,196.92L802.04,198.88C802.413,202.207 803.367,205.36 804.9,208.34C805.127,209.16 805.477,209.927 805.95,210.64C806.017,211.353 806.75,212.223 808.15,213.25C807.957,213.57 807.987,213.9 808.24,214.24C808.947,215.2 809.807,216.457 810.82,218.01C811.753,219.683 813.41,220.757 815.79,221.23C817.99,222.357 820.03,223.973 821.91,226.08C822.843,227.713 823.933,228.63 825.18,228.83C825.66,229.743 826.533,230.34 827.8,230.62C829.24,231.047 830.34,231.73 831.1,232.67C834.94,233.783 838.89,234.38 842.95,234.46L847.26,234.75L848.25,235.32L854.99,236.64C855.45,236.853 855.91,236.947 856.37,236.92C858.457,237.833 860.58,238.253 862.74,238.18C864.287,238.44 865.877,238.267 867.51,237.66C869.497,238.393 871.3,238.387 872.92,237.64C873.727,237.713 874.39,237.543 874.91,237.13L876.28,237.12C876.608,237.12 876.928,237.037 877.21,236.88C879.683,235.453 882.323,234.467 885.13,233.92C885.55,233.84 886.153,233.437 886.94,232.71C887.413,232.423 887.61,232.13 887.53,231.83L888.24,230.97C890.607,230.577 892.327,229.807 893.4,228.66C896.62,225.247 899.737,222.11 902.75,219.25C903.87,218.19 904.797,216.88 905.53,215.32C905.596,215.194 905.681,215.076 905.78,214.97L907.92,212.83C908.257,212.493 908.525,212.092 908.71,211.65L910.48,207.38C910.573,207.161 910.697,206.956 910.85,206.77L913.95,203.05C914.296,202.632 914.518,202.126 914.59,201.59C914.857,199.55 915.69,197.387 917.09,195.1C917.277,194.793 917.587,193.807 918.02,192.14C918.047,192.02 918.083,191.903 918.13,191.79C918.843,190.07 918.69,188.813 917.67,188.02C917.38,187.794 917.016,187.684 916.65,187.71C913.71,187.963 910.823,187.653 907.99,186.78C906.817,186.273 905.727,186.09 904.72,186.23C904.381,186.273 904.08,186.478 903.91,186.78L901.91,190.24C901.59,190.787 900.879,190.976 900.33,190.66L900.01,190.48C899.618,190.253 899.376,189.834 899.376,189.381C899.376,189.156 899.436,188.934 899.55,188.74L901.12,186C901.147,185.955 901.161,185.904 901.161,185.851C901.161,185.692 901.03,185.561 900.871,185.561C900.814,185.561 900.758,185.578 900.71,185.61C899.477,186.417 897.923,187.623 896.05,189.23C895.95,189.316 895.84,189.391 895.723,189.454C894.934,189.873 893.968,189.625 893.585,188.903C893.529,188.798 893.487,188.686 893.46,188.57C893.173,187.29 893.71,186.21 895.07,185.33C897.243,183.93 899.167,182.43 900.84,180.83C900.347,179.817 900.963,178.9 902.69,178.08C903.583,178.787 904.16,179.857 904.42,181.29C904.47,181.583 904.67,181.832 904.95,181.95C911.42,184.69 917.29,184.52 924.13,183.52C934.07,182.08 941.47,177.02 942.31,166.31C942.311,166.293 942.311,166.276 942.31,166.259C942.297,166.024 942.098,165.84 941.868,165.853C941.848,165.854 941.829,165.856 941.81,165.86C929.123,168.18 917.833,165.51 907.94,157.85C897.68,149.91 894.9,135.71 902.86,125.18C902.881,125.152 902.898,125.122 902.912,125.091C903.005,124.874 902.908,124.621 902.696,124.53C902.662,124.515 902.627,124.505 902.59,124.5C898.903,123.92 895.443,124.193 892.21,125.32C891.892,125.429 891.677,125.731 891.677,126.067C891.677,126.19 891.705,126.31 891.76,126.42C894.387,131.78 895.823,137.837 896.07,144.59C897.01,169.84 868.64,174.84 850.19,169.05C850.163,169.042 850.136,169.038 850.108,169.038C849.954,169.038 849.828,169.164 849.828,169.318C849.828,169.346 849.832,169.373 849.84,169.4C850.687,172.373 851.123,175.083 851.15,177.53C851.18,180.27 849.17,184.29 845.84,184.05C840.49,183.65 839.93,177.14 841.59,173.35C842.203,171.95 842.983,169.977 843.93,167.43C844.094,166.992 843.903,166.498 843.49,166.29C830.23,159.56 820.92,148.28 823.45,132.58C823.451,132.576 823.451,132.571 823.452,132.567C823.472,132.398 823.345,132.242 823.171,132.221C823.167,132.221 823.164,132.22 823.16,132.22C808.873,131.027 794.663,131.21 780.53,132.77C780.348,132.789 780.208,132.945 780.208,133.128C780.208,133.2 780.23,133.27 780.27,133.33L783.6,138.31ZM845.74,180.84C847.547,181.02 848.347,179.487 848.14,176.24C848.013,174.22 847.81,171.67 847.53,168.59C847.51,168.397 847.467,168.27 847.4,168.21C847.293,168.103 847.16,168.043 847,168.03C846.84,168.01 846.697,168.04 846.57,168.12C846.497,168.173 846.43,168.293 846.37,168.48C845.497,171.447 844.8,173.907 844.28,175.86C843.447,179 843.933,180.66 845.74,180.84ZM840.78,238.17C837.34,237.843 834.413,237.617 832,237.49C825.79,237.17 821.07,231.57 816.57,227.06C813.05,223.54 808.88,221.98 805.51,217.61C805.421,217.495 805.284,217.428 805.139,217.428C804.989,217.428 804.848,217.5 804.76,217.62C796.76,228.42 811.84,233.5 816.1,239.48C817.947,242.073 819.007,244.007 819.28,245.28C820.233,249.78 821,252.873 821.58,254.56C822.607,257.52 824.58,258.32 827.5,256.96C832.59,254.6 831.87,249.63 834.37,245.56C835.943,242.993 838.147,240.8 840.98,238.98C841.107,238.899 841.184,238.759 841.184,238.609C841.184,238.381 841.007,238.189 840.78,238.17Z" style="fill-rule:nonzero;"/>
        <g transform="matrix(0.977416,-0.211325,0.211325,0.977416,837.92,31.01)">
            <ellipse cx="0" cy="0" rx="7.45" ry="0.88" style="fill:rgb(122,127,112);"/>
        </g>
        <path d="M857.02,110.38C861.24,109.22 865.193,107.183 868.88,104.27C869.727,103.598 869.931,102.381 869.35,101.47L869.33,101.44C868.668,100.409 867.304,100.058 866.22,100.64C856.7,105.753 847.473,108.163 838.54,107.87C837.367,107.837 836.633,108.557 836.34,110.03C836.276,110.374 836.442,110.723 836.75,110.89C840.42,112.83 845.15,112.15 848.54,112.2C848.548,112.199 848.557,112.199 848.565,112.199C848.697,112.199 848.806,112.308 848.806,112.44C848.806,112.563 848.712,112.667 848.59,112.68C842.24,113.94 835.7,118.59 831.11,122.65C830.689,123.025 830.19,123.299 829.65,123.45C827.88,123.96 827.53,124.11 826.2,125.66C825.467,126.52 824.813,126.98 824.24,127.04C820.887,127.38 814.51,127.6 805.11,127.7C804.885,127.706 804.691,127.534 804.67,127.31L803.96,120.31C803.96,120.303 803.959,120.296 803.959,120.289C803.959,120.13 804.09,119.999 804.249,119.999C804.256,119.999 804.263,120 804.27,120C810.06,120.44 811.38,117.85 809.57,112.45C807.13,105.17 804.653,98.78 802.14,93.28C802.126,93.251 802.119,93.219 802.119,93.186C802.119,93.081 802.196,92.989 802.3,92.97C814.113,90.963 825.003,86.4 834.97,79.28C835.005,79.25 835.049,79.234 835.095,79.234C835.2,79.234 835.286,79.32 835.286,79.425C835.286,79.481 835.262,79.534 835.22,79.57C834.387,80.45 833.92,81.583 833.82,82.97C833.817,83.004 833.816,83.037 833.816,83.071C833.816,83.763 834.369,84.34 835.06,84.37C841.14,84.67 846.703,83.223 851.75,80.03C857.603,76.323 862.867,72.373 867.54,68.18C867.563,68.161 867.589,68.146 867.618,68.137C867.742,68.094 867.878,68.157 867.919,68.277C867.929,68.307 867.933,68.338 867.93,68.37C867.83,70.16 867.5,71.24 868.37,72.89C870.31,76.58 874.76,72.74 877.37,70.95C878.309,70.304 879.291,69.729 880.31,69.23C886.263,66.297 891.4,63.123 895.72,59.71C895.972,59.511 896.323,59.487 896.6,59.65C905.233,64.77 912.857,69.737 919.47,74.55C920.483,75.29 921.73,76.577 923.21,78.41C923.422,78.675 923.597,78.968 923.73,79.28L933.71,103.46C933.734,103.516 933.747,103.577 933.747,103.638C933.747,103.885 933.544,104.088 933.297,104.088C933.254,104.088 933.211,104.082 933.17,104.07C927.063,102.303 921.15,101.153 915.43,100.62C915.376,100.615 915.321,100.613 915.267,100.613C914.263,100.613 913.437,101.439 913.437,102.443C913.437,102.559 913.448,102.676 913.47,102.79L913.54,103.09C913.854,104.496 914.993,105.575 916.41,105.81L932.56,108.48C932.779,108.518 932.941,108.711 932.941,108.933C932.941,109.144 932.795,109.33 932.59,109.38C923.78,111.27 914.74,115.5 907.31,120.6C906.888,120.892 906.379,121.04 905.86,121.02C905.173,121 903.97,120.92 902.25,120.78C898.55,120.487 894.523,120.873 890.17,121.94C889.676,122.068 889.151,121.876 888.85,121.46C881.6,111.59 868.43,108.87 857.21,110.94C857.04,110.971 856.875,110.859 856.84,110.69L856.84,110.67C856.815,110.542 856.894,110.414 857.02,110.38Z" style="fill:rgb(253,253,253);fill-rule:nonzero;"/>
        <path d="M940.15,112.57C942.35,118.39 944.293,124.2 945.98,130C946.847,132.967 947.28,135.217 947.28,136.75C947.267,141.33 946.887,149.403 946.14,160.97L942.92,162.24L943.59,136.27C944.157,134.79 944.05,133.683 943.27,132.95L936.71,112.91C938.33,112.543 939.477,112.43 940.15,112.57Z" style="fill:rgb(122,127,112);fill-rule:nonzero;"/>
        <path d="M946.14,160.97C946.887,149.403 947.267,141.33 947.28,136.75C947.28,135.217 946.847,132.967 945.98,130C944.293,124.2 942.35,118.39 940.15,112.57C946.097,112.057 950.627,113.453 953.74,116.76C959.113,122.467 962.463,129.297 963.79,137.25C964.117,139.21 964.123,140.85 963.81,142.17C963.737,142.462 963.626,142.741 963.48,143C958.45,151.73 955.1,158.23 946.14,160.97Z" style="fill:white;fill-opacity:0.56;fill-rule:nonzero;"/>
        <path d="M936.71,112.91L943.27,132.95L912.88,133.44C912.817,133.441 912.754,133.446 912.692,133.456C911.932,133.569 911.398,134.274 911.51,135.017C911.519,135.079 911.532,135.14 911.55,135.2L911.64,135.53C911.847,136.322 912.549,136.894 913.37,136.94L923.86,137.52C923.891,137.522 923.922,137.526 923.952,137.533C924.246,137.6 924.434,137.893 924.368,138.181C924.362,138.212 924.352,138.241 924.34,138.27C923.133,141.117 923.22,143.683 924.6,145.97C924.638,146.033 924.658,146.104 924.658,146.178C924.658,146.397 924.478,146.578 924.258,146.578C924.232,146.578 924.206,146.575 924.18,146.57C921.373,146.017 918.81,144.803 916.49,142.93C916.077,142.597 915.673,142.603 915.28,142.95C915.04,143.157 914.977,143.403 915.09,143.69C915.67,145.123 916.487,146.38 917.54,147.46C917.79,147.717 918.097,147.918 918.44,148.05C926.68,151.14 934.62,152.29 940.98,145.35C941.225,145.086 941.362,144.738 941.362,144.378C941.362,143.774 940.979,143.232 940.41,143.03C939,142.51 935.5,146.52 932.35,146.59C932.136,146.589 931.961,146.414 931.961,146.2C931.961,146.141 931.974,146.083 932,146.03C933.07,143.9 933.82,140.82 932.81,138.83C932.637,138.503 932.537,138.233 932.51,138.02C932.505,137.989 932.503,137.958 932.503,137.927C932.503,137.616 932.741,137.352 933.05,137.32L943.59,136.27L942.92,162.24C930.1,164.78 918.89,161.847 909.29,153.44C905.643,150.247 903.493,146.017 902.84,140.75C902.307,136.417 903.72,131.923 907.08,127.27C907.93,126.09 908.9,126.1 910.11,126.36C910.132,126.365 910.155,126.369 910.177,126.373C911.005,126.511 911.792,125.993 911.921,125.225C911.924,125.203 911.927,125.182 911.93,125.16C912.137,123.38 913.03,122.02 914.61,121.08C921.63,116.887 928.997,114.163 936.71,112.91ZM918.21,148.71C918.149,148.686 918.084,148.673 918.018,148.673C917.732,148.673 917.498,148.908 917.498,149.193C917.498,149.279 917.519,149.364 917.56,149.44C920.27,154.25 926.99,156.15 932.1,155.63C932.452,155.596 932.724,155.297 932.724,154.943C932.724,154.919 932.723,154.894 932.72,154.87L932.67,154.39C932.624,153.952 932.269,153.606 931.83,153.57C929.03,153.37 927.14,153.02 926.16,152.52C922.74,150.78 920.09,149.51 918.21,148.71Z" style="fill:rgb(253,253,253);fill-rule:nonzero;"/>
        <path d="M845.76,162.34C845.759,162.37 845.754,162.399 845.745,162.427C845.688,162.605 845.491,162.704 845.308,162.646C845.281,162.637 845.255,162.625 845.23,162.61C833.51,155.46 824.55,145.78 828.92,130.85C829.035,130.465 829.292,130.136 829.64,129.93L832.6,128.22C832.726,128.147 832.844,128.06 832.95,127.96C835.543,125.313 837.1,123.777 837.62,123.35C847.23,115.4 860.14,113.22 872.28,115.25C877.34,116.097 881.587,118.507 885.02,122.48C885.439,122.964 885.464,123.682 885.08,124.2C883.83,125.89 883.85,127.48 885.8,128.53C886.227,128.763 886.687,128.737 887.18,128.45C887.5,128.257 887.787,128.173 888.04,128.2C888.393,128.225 888.709,128.438 888.87,128.76C892.317,135.72 893.557,142.653 892.59,149.56C890.89,161.72 879.58,166.93 868.2,167.64C861.947,168.027 855.637,166.973 849.27,164.48C848.936,164.348 848.722,164.013 848.74,163.65L848.96,159.66C848.961,159.64 848.962,159.619 848.962,159.599C848.962,159.001 848.47,158.509 847.872,158.509C847.658,158.509 847.448,158.572 847.27,158.69C846.35,159.297 845.847,160.513 845.76,162.34ZM866.69,148.41C868.023,145.617 868.19,142.777 867.19,139.89C867.186,139.878 867.182,139.865 867.178,139.852C867.067,139.462 867.292,139.05 867.678,138.941C867.692,138.937 867.706,138.933 867.72,138.93L876.4,137.07C877.463,136.835 878.157,135.788 877.95,134.73L877.94,134.67C877.816,133.824 877.083,133.19 876.228,133.19C876.104,133.19 875.981,133.204 875.86,133.23C864.573,135.717 853.39,137.087 842.31,137.34C841.304,137.363 840.445,138.099 840.27,139.09L840.27,139.13C840.274,140.29 841.23,141.243 842.39,141.243C842.427,141.243 842.463,141.242 842.5,141.24L857.6,140.48C857.629,140.478 857.658,140.479 857.687,140.482C857.993,140.514 858.217,140.797 858.185,141.108C858.182,141.135 858.177,141.163 858.17,141.19C857.203,144.71 858.02,147.81 860.62,150.49C860.667,150.535 860.693,150.598 860.693,150.663C860.693,150.781 860.607,150.882 860.49,150.9C856.05,151.64 850.74,151.24 847.01,148.71C845.93,147.983 845.093,147.45 844.5,147.11C844.336,147.015 844.149,146.965 843.96,146.965C843.556,146.965 843.185,147.191 843,147.55L842.83,147.88C842.524,148.467 842.685,149.197 843.21,149.6C849.137,154.167 855.573,155.587 862.52,153.86C865.567,153.1 867.78,152.337 869.16,151.57C871.52,150.27 875.69,146.68 873.89,143.87C873.754,143.656 873.518,143.526 873.265,143.526C873.042,143.526 872.83,143.627 872.69,143.8C870.8,146.14 869.37,148.09 867.04,148.82C867.006,148.829 866.971,148.832 866.935,148.829C866.771,148.816 866.647,148.675 866.66,148.516C866.663,148.479 866.673,148.443 866.69,148.41ZM870.54,151.96L857.63,158.65C857.612,158.659 857.603,158.681 857.61,158.7C857.61,158.7 857.622,158.723 857.623,158.725C858.304,160.04 861.444,159.785 864.58,158.16L866.13,157.35C869.266,155.723 871.283,153.304 870.6,151.99L870.59,151.98C870.581,151.962 870.559,151.953 870.54,151.96Z" style="fill:rgb(253,253,253);fill-rule:nonzero;"/>
        <path d="M902.69,178.08C899.737,177.113 897.047,177.497 894.62,179.23C894.344,179.423 893.972,179.406 893.72,179.19C892.293,177.983 890.763,178.08 889.13,179.48C887.13,181.193 886.103,182.07 886.05,182.11C885.985,182.154 885.908,182.178 885.83,182.178C885.616,182.178 885.44,182.002 885.44,181.788C885.44,181.714 885.461,181.642 885.5,181.58L886.76,179.64C886.848,179.506 886.919,179.361 886.971,179.21C887.312,178.213 886.769,177.111 885.767,176.768C885.616,176.716 885.459,176.683 885.3,176.67C882.16,176.4 878.91,179.37 876.18,181.77C876.134,181.81 876.062,181.81 876.01,181.77L875.78,181.59C875.778,181.589 875.777,181.588 875.775,181.586C875.715,181.539 875.707,181.446 875.759,181.382C875.759,181.381 875.76,181.381 875.76,181.38L877.53,179.14C877.725,178.89 877.831,178.583 877.831,178.266C877.831,177.487 877.19,176.846 876.411,176.846C876.247,176.846 876.084,176.875 875.93,176.93C872.777,178.083 869.997,179.737 867.59,181.89C867.521,181.959 867.427,181.997 867.329,181.997C867.126,181.997 866.959,181.83 866.959,181.627C866.959,181.577 866.97,181.527 866.99,181.48L867.67,179.67C867.742,179.481 867.779,179.28 867.779,179.078C867.779,178.167 867.03,177.418 866.119,177.418C866.093,177.418 866.066,177.419 866.04,177.42C864.13,177.51 862.34,179.23 859.49,181.28C859.368,181.368 859.221,181.415 859.07,181.415C858.675,181.415 858.35,181.09 858.35,180.695C858.35,180.693 858.35,180.62 858.35,180.62C858.334,179.786 857.644,179.109 856.81,179.109C856.355,179.109 855.922,179.311 855.63,179.66L850.69,185.62C850.677,185.633 850.655,185.644 850.63,185.65C850.19,185.79 849.903,185.613 849.77,185.12C849.708,184.901 849.507,184.748 849.279,184.748C849.124,184.748 848.977,184.819 848.88,184.94L846.29,188.22C846.165,188.38 845.973,188.474 845.77,188.474C845.451,188.474 845.176,188.243 845.12,187.93L844.94,186.98C844.886,186.709 844.647,186.513 844.371,186.513C844.277,186.513 844.184,186.536 844.1,186.58C839.93,188.79 838.6,192.64 836.89,195.02C836.822,195.112 836.714,195.167 836.6,195.167C836.404,195.167 836.242,195.006 836.24,194.81L836.24,193.53C836.24,193.527 836.24,193.524 836.24,193.521C836.24,193.093 835.888,192.741 835.46,192.741C835.268,192.741 835.083,192.812 834.94,192.94C830.5,196.827 827.723,201.717 826.61,207.61C826.463,208.417 826.13,209.203 825.61,209.97C825.597,209.991 825.575,210.004 825.55,210.004C825.511,210.004 825.48,209.973 825.48,209.934C825.48,209.933 825.48,209.931 825.48,209.93L825.48,201.93C825.478,201.624 825.384,201.326 825.21,201.074C824.736,200.388 823.786,200.21 823.104,200.68C822.851,200.855 822.658,201.102 822.55,201.39L816.72,216.86C816.631,217.091 816.408,217.245 816.16,217.245C815.836,217.245 815.568,216.983 815.56,216.66C815.52,215.187 815.8,213.67 816.4,212.11C817.84,208.357 818.82,205.29 819.34,202.91C819.543,201.963 819.19,200.977 818.43,200.37L817.53,199.66C817.23,199.424 817.069,199.055 817.1,198.68C817.24,197.1 817.34,195.89 817.4,195.05C817.48,193.87 817.183,193.073 816.51,192.66C814.88,191.66 813.35,193.07 811.96,193.72C811.908,193.745 811.852,193.758 811.794,193.758C811.586,193.758 811.414,193.586 811.414,193.378C811.414,193.341 811.42,193.305 811.43,193.27C812.17,190.603 812.877,187.683 813.55,184.51C813.75,183.59 813.403,182.857 812.51,182.31C811.714,181.822 810.666,182.008 810.08,182.74C809.893,182.98 809.587,183.56 809.16,184.48C809.097,184.615 808.94,184.68 808.8,184.63L808.56,184.54C808.552,184.537 808.547,184.53 808.547,184.521C808.547,184.517 808.548,184.513 808.55,184.51L811.26,176.45C811.625,175.365 811.268,174.16 810.37,173.45L809.78,172.98C809.563,172.803 809.291,172.707 809.01,172.707C808.483,172.707 808.013,173.048 807.85,173.55L805.21,181.68C805.182,181.775 805.083,181.836 804.98,181.82L804.97,181.82C804.863,181.79 804.796,181.684 804.82,181.58C805.413,178.26 806.48,174.577 808.02,170.53C808.55,169.12 808.23,166.45 806.13,166.89C803.13,167.537 800.497,168.53 798.23,169.87C798.13,169.93 798.036,170.004 797.95,170.09L793.91,174.08C793.906,174.084 793.901,174.088 793.897,174.092C793.796,174.177 793.646,174.167 793.565,174.07C793.56,174.064 793.555,174.057 793.55,174.05L793.36,173.8C793.283,173.686 793.287,173.539 793.37,173.44C796.83,169.05 802.17,167.06 805.32,165.13C805.419,165.07 805.512,165.001 805.598,164.924C806.307,164.293 806.421,163.247 805.852,162.609C805.783,162.531 805.705,162.461 805.62,162.4C805.047,161.993 804.807,161.22 804.9,160.08C804.958,159.288 804.46,158.527 803.67,158.2C800.95,157.1 799.8,158.32 797.52,159.36C795.54,160.267 793.02,161.667 789.96,163.56C789.909,163.59 789.852,163.605 789.793,163.605C789.612,163.605 789.463,163.456 789.463,163.275C789.463,163.209 789.483,163.145 789.52,163.09C792.72,158.323 796.947,154.97 802.2,153.03C803.467,152.564 804.243,151.37 804.02,150.23C803.92,149.73 803.49,149.127 802.73,148.42C802.437,148.152 802.042,148.018 801.64,148.05C797.78,148.38 794.21,150.81 790.96,152.93C790.824,153.013 790.645,152.978 790.55,152.85L790.39,152.63C790.36,152.592 790.369,152.534 790.41,152.5L798.95,146.31C799.36,146.013 799.603,145.537 799.603,145.03C799.603,144.696 799.497,144.37 799.3,144.1L798.7,143.26C798.158,142.512 797.136,142.276 796.32,142.71L791.7,145.15C791.61,145.198 791.498,145.186 791.42,145.12L791.41,145.11C791.404,145.027 791.429,144.948 791.48,144.89L794.06,142.02C794.416,141.628 794.394,141.015 794.01,140.65C792.857,139.563 792.677,138.37 793.47,137.07C793.823,136.503 793.863,135.997 793.59,135.55C792.81,134.26 791.69,133.85 790.06,134.43C787.78,135.25 785.627,136.543 783.6,138.31L780.27,133.33C780.23,133.27 780.208,133.2 780.208,133.128C780.208,132.945 780.348,132.789 780.53,132.77C794.663,131.21 808.873,131.027 823.16,132.22C823.164,132.22 823.167,132.221 823.171,132.221C823.345,132.242 823.472,132.398 823.452,132.567C823.451,132.571 823.451,132.576 823.45,132.58C820.92,148.28 830.23,159.56 843.49,166.29C843.903,166.498 844.094,166.992 843.93,167.43C842.983,169.977 842.203,171.95 841.59,173.35C839.93,177.14 840.49,183.65 845.84,184.05C849.17,184.29 851.18,180.27 851.15,177.53C851.123,175.083 850.687,172.373 849.84,169.4C849.832,169.373 849.828,169.346 849.828,169.318C849.828,169.164 849.954,169.038 850.108,169.038C850.136,169.038 850.163,169.042 850.19,169.05C868.64,174.84 897.01,169.84 896.07,144.59C895.823,137.837 894.387,131.78 891.76,126.42C891.705,126.31 891.677,126.19 891.677,126.067C891.677,125.731 891.892,125.429 892.21,125.32C895.443,124.193 898.903,123.92 902.59,124.5C902.627,124.505 902.662,124.515 902.696,124.53C902.908,124.621 903.005,124.874 902.912,125.091C902.898,125.122 902.881,125.152 902.86,125.18C894.9,135.71 897.68,149.91 907.94,157.85C917.833,165.51 929.123,168.18 941.81,165.86C941.829,165.856 941.848,165.854 941.868,165.853C942.098,165.84 942.297,166.024 942.31,166.259C942.311,166.276 942.311,166.293 942.31,166.31C941.47,177.02 934.07,182.08 924.13,183.52C917.29,184.52 911.42,184.69 904.95,181.95C904.67,181.832 904.47,181.583 904.42,181.29C904.16,179.857 903.583,178.787 902.69,178.08Z" style="fill:rgb(253,253,253);fill-rule:nonzero;"/>
        <path d="M943.27,132.95C944.05,133.683 944.157,134.79 943.59,136.27L933.05,137.32C932.741,137.352 932.503,137.616 932.503,137.927C932.503,137.958 932.505,137.989 932.51,138.02C932.537,138.233 932.637,138.503 932.81,138.83C933.82,140.82 933.07,143.9 932,146.03C931.974,146.083 931.961,146.141 931.961,146.2C931.961,146.414 932.136,146.589 932.35,146.59C935.5,146.52 939,142.51 940.41,143.03C940.979,143.232 941.362,143.774 941.362,144.378C941.362,144.738 941.225,145.086 940.98,145.35C934.62,152.29 926.68,151.14 918.44,148.05C918.097,147.918 917.79,147.717 917.54,147.46C916.487,146.38 915.67,145.123 915.09,143.69C914.977,143.403 915.04,143.157 915.28,142.95C915.673,142.603 916.077,142.597 916.49,142.93C918.81,144.803 921.373,146.017 924.18,146.57C924.206,146.575 924.232,146.578 924.258,146.578C924.478,146.578 924.658,146.397 924.658,146.178C924.658,146.104 924.638,146.033 924.6,145.97C923.22,143.683 923.133,141.117 924.34,138.27C924.352,138.241 924.362,138.212 924.368,138.181C924.434,137.893 924.246,137.6 923.952,137.533C923.922,137.526 923.891,137.522 923.86,137.52L913.37,136.94C912.549,136.894 911.847,136.322 911.64,135.53L911.55,135.2C911.532,135.14 911.519,135.079 911.51,135.017C911.398,134.274 911.932,133.569 912.692,133.456C912.754,133.446 912.817,133.441 912.88,133.44L943.27,132.95Z" style="fill-rule:nonzero;"/>
        <path d="M867.04,148.82C869.37,148.09 870.8,146.14 872.69,143.8C872.83,143.627 873.042,143.526 873.265,143.526C873.518,143.526 873.754,143.656 873.89,143.87C875.69,146.68 871.52,150.27 869.16,151.57C867.78,152.337 865.567,153.1 862.52,153.86C855.573,155.587 849.137,154.167 843.21,149.6C842.685,149.197 842.524,148.467 842.83,147.88L843,147.55C843.185,147.191 843.556,146.965 843.96,146.965C844.149,146.965 844.336,147.015 844.5,147.11C845.093,147.45 845.93,147.983 847.01,148.71C850.74,151.24 856.05,151.64 860.49,150.9C860.607,150.882 860.693,150.781 860.693,150.663C860.693,150.598 860.667,150.535 860.62,150.49C858.02,147.81 857.203,144.71 858.17,141.19C858.177,141.163 858.182,141.135 858.185,141.108C858.217,140.797 857.993,140.514 857.687,140.482C857.658,140.479 857.629,140.478 857.6,140.48L842.5,141.24C842.463,141.242 842.427,141.243 842.39,141.243C841.23,141.243 840.274,140.29 840.27,139.13L840.27,139.09C840.445,138.099 841.304,137.363 842.31,137.34C853.39,137.087 864.573,135.717 875.86,133.23C875.981,133.204 876.104,133.19 876.228,133.19C877.083,133.19 877.816,133.824 877.94,134.67L877.95,134.73C878.157,135.788 877.463,136.835 876.4,137.07L867.72,138.93C867.706,138.933 867.692,138.937 867.678,138.941C867.292,139.05 867.067,139.462 867.178,139.852C867.182,139.865 867.186,139.878 867.19,139.89C868.19,142.777 868.023,145.617 866.69,148.41C866.673,148.443 866.663,148.479 866.66,148.516C866.647,148.675 866.771,148.816 866.935,148.829C866.971,148.832 867.006,148.829 867.04,148.82Z" style="fill-rule:nonzero;"/>
        <path d="M781.79,145.93C782.17,146.663 782.43,147.537 782.57,148.55C782.609,148.852 782.763,149.125 783,149.31L784.27,150.32C784.579,150.568 784.637,151.022 784.4,151.34C782.19,154.21 782.67,157.87 786.42,158.6C786.682,158.646 786.874,158.876 786.874,159.142C786.874,159.224 786.856,159.306 786.82,159.38C786.27,160.52 783.69,164.24 784.34,166.54C784.418,166.832 784.591,167.089 784.83,167.27L788.08,169.85C788.159,169.909 788.221,169.989 788.26,170.08C788.667,170.94 788.537,171.843 787.87,172.79C786.783,171.383 785.753,170.357 784.78,169.71C777.57,164.88 772.32,161.75 767.59,154.26C763.81,148.27 762.16,135.6 771.99,133.74C777.38,132.72 780.07,139.98 780.63,144.24C780.677,144.6 780.81,144.91 781.03,145.17C781.263,145.45 781.517,145.703 781.79,145.93ZM774.71,150.32L774.43,151.65C774.426,151.669 774.422,151.687 774.419,151.706C774.204,152.843 774.967,153.957 776.11,154.173C776.123,154.175 776.137,154.178 776.15,154.18C779.03,154.64 779.94,152.56 779.22,150.35C778.427,147.91 776.917,146.267 774.69,145.42C772.15,144.45 770.28,145.7 768.54,147.54C767.32,148.83 768.35,151.1 769.82,151.51C770.209,151.628 770.636,151.529 770.94,151.25L773.02,149.35C773.209,149.174 773.457,149.077 773.715,149.077C774.274,149.077 774.735,149.537 774.735,150.097C774.735,150.172 774.726,150.247 774.71,150.32Z" style="fill:rgb(253,253,253);fill-rule:nonzero;"/>
        <path d="M902.69,178.08C900.963,178.9 900.347,179.817 900.84,180.83C899.1,180.217 897.687,180.38 896.6,181.32C895.16,182.56 893.293,184.06 891,185.82C890.824,185.952 890.615,186.044 890.393,186.087C889.682,186.224 888.999,185.827 888.88,185.207C888.842,185.013 888.863,184.81 888.94,184.62C889,184.467 888.93,184.31 888.73,184.15C888.631,184.071 888.508,184.028 888.381,184.028C888.197,184.028 888.024,184.119 887.92,184.27C886.63,186.1 883.74,188.2 881.04,187.48C880.996,187.468 880.952,187.454 880.909,187.438C880.122,187.145 879.714,186.261 880.005,185.48C880.021,185.436 880.04,185.392 880.06,185.35C880.793,183.843 881.897,182.57 883.37,181.53C883.51,181.427 883.55,181.237 883.46,181.1L883.45,181.09C883.355,180.945 883.162,180.9 883.02,180.99C880.613,182.51 878.257,184.4 875.95,186.66C874.45,188.13 870.63,191.01 868.55,190.24C868.534,190.234 868.519,190.228 868.504,190.222C867.918,189.973 867.658,189.245 867.928,188.609C867.935,188.592 867.942,188.576 867.95,188.56C868.77,186.827 869.87,185.237 871.25,183.79C871.298,183.738 871.325,183.67 871.325,183.599C871.325,183.445 871.199,183.319 871.045,183.319C871.037,183.319 871.028,183.319 871.02,183.32C870.58,183.373 870.127,183.66 869.66,184.18C867.467,186.607 864.9,189.287 861.96,192.22C860.69,193.49 858.57,194.68 857.17,193.13C856.656,192.567 856.688,191.503 857.25,190.53C857.577,189.963 859.077,187.917 861.75,184.39C861.773,184.355 861.786,184.314 861.786,184.272C861.786,184.157 861.691,184.062 861.576,184.062C861.557,184.062 861.538,184.065 861.52,184.07C860.667,184.33 859.963,184.823 859.41,185.55C855.463,190.757 852.593,194.5 850.8,196.78C849.727,198.147 848.627,198.837 847.5,198.85C846.86,198.857 846.433,198.663 846.22,198.27C846.087,198.023 846.007,197.577 845.98,196.93C845.976,196.877 845.961,196.825 845.935,196.778C845.84,196.611 845.629,196.548 845.467,196.64C845.419,196.666 845.379,196.704 845.35,196.75L840.96,203.37C840.654,203.828 840.138,204.104 839.588,204.104C839.058,204.104 838.56,203.849 838.25,203.42L837.68,202.64C837.643,202.59 837.6,202.546 837.551,202.509C837.271,202.297 836.869,202.349 836.66,202.624C836.622,202.674 836.591,202.73 836.57,202.79C835.05,206.93 833.11,210.72 830.75,214.16C830.673,214.271 830.632,214.402 830.632,214.536C830.632,214.864 830.876,215.144 831.2,215.19C832.747,215.397 833.397,216.43 833.15,218.29C832.577,222.497 831.913,226.107 831.16,229.12C831.16,229.121 831.159,229.122 831.159,229.123C831.153,229.144 831.161,229.165 831.177,229.169C831.178,229.17 831.179,229.17 831.18,229.17L831.43,229.24C831.488,229.257 831.55,229.232 831.58,229.18L838.79,215.21C839.015,214.767 839.471,214.487 839.967,214.487C840.279,214.487 840.582,214.598 840.82,214.8C842.43,216.14 842.94,217.79 841.27,219.1C839.32,220.64 837.42,225.68 835.56,229.81C834.76,231.597 833.273,232.55 831.1,232.67C830.34,231.73 829.24,231.047 827.8,230.62C827.807,229.46 827.407,228.47 826.6,227.65C826.597,227.647 826.593,227.643 826.59,227.64C826.387,227.44 826.052,227.445 825.848,227.652C825.845,227.655 825.843,227.657 825.84,227.66C825.573,227.94 825.353,228.33 825.18,228.83C823.933,228.63 822.843,227.713 821.91,226.08C821.017,221.88 821.057,217.9 822.03,214.14C822.032,214.129 822.033,214.119 822.033,214.108C822.033,214.004 821.947,213.918 821.843,213.918C821.776,213.918 821.714,213.953 821.68,214.01L819.42,218.38C819.256,218.702 819.016,218.98 818.72,219.19L815.79,221.23C813.41,220.757 811.753,219.683 810.82,218.01L810.79,212.95C810.79,212.949 810.79,212.948 810.79,212.947C810.79,212.684 810.573,212.467 810.31,212.467C810.293,212.467 810.277,212.468 810.26,212.47C809.473,212.55 808.77,212.81 808.15,213.25C806.75,212.223 806.017,211.353 805.95,210.64C806.45,208.92 806.1,208.153 804.9,208.34C803.367,205.36 802.413,202.207 802.04,198.88L803.88,194.73C803.899,194.688 803.909,194.643 803.909,194.597C803.909,194.456 803.815,194.33 803.68,194.29L803.32,194.18C803.042,194.098 802.745,194.21 802.6,194.45L801.13,196.92C800.383,195.98 800.073,195.25 800.2,194.73C799.667,190.363 799.55,187.31 799.85,185.57C800.21,183.45 800.7,181.27 801.32,179.03C801.336,178.976 801.337,178.918 801.322,178.864C801.277,178.7 801.101,178.603 800.931,178.65C800.878,178.664 800.829,178.692 800.79,178.73L796.17,183.41L792.93,178.75C792.897,178.703 792.863,178.66 792.83,178.62L787.87,172.79C788.537,171.843 788.667,170.94 788.26,170.08C788.221,169.989 788.159,169.909 788.08,169.85L784.83,167.27C784.591,167.089 784.418,166.832 784.34,166.54C783.69,164.24 786.27,160.52 786.82,159.38C786.856,159.306 786.874,159.224 786.874,159.142C786.874,158.876 786.682,158.646 786.42,158.6C782.67,157.87 782.19,154.21 784.4,151.34C784.637,151.022 784.579,150.568 784.27,150.32L783,149.31C782.763,149.125 782.609,148.852 782.57,148.55C782.43,147.537 782.17,146.663 781.79,145.93C783.49,145.883 784.413,144.66 784.56,142.26C784.58,141.946 784.514,141.631 784.37,141.35C783.723,140.09 783.467,139.077 783.6,138.31C785.627,136.543 787.78,135.25 790.06,134.43C791.69,133.85 792.81,134.26 793.59,135.55C793.863,135.997 793.823,136.503 793.47,137.07C792.677,138.37 792.857,139.563 794.01,140.65C794.394,141.015 794.416,141.628 794.06,142.02L791.48,144.89C791.429,144.948 791.404,145.027 791.41,145.11L791.42,145.12C791.498,145.186 791.61,145.198 791.7,145.15L796.32,142.71C797.136,142.276 798.158,142.512 798.7,143.26L799.3,144.1C799.497,144.37 799.603,144.696 799.603,145.03C799.603,145.537 799.36,146.013 798.95,146.31L790.41,152.5C790.369,152.534 790.36,152.592 790.39,152.63L790.55,152.85C790.645,152.978 790.824,153.013 790.96,152.93C794.21,150.81 797.78,148.38 801.64,148.05C802.042,148.018 802.437,148.152 802.73,148.42C803.49,149.127 803.92,149.73 804.02,150.23C804.243,151.37 803.467,152.564 802.2,153.03C796.947,154.97 792.72,158.323 789.52,163.09C789.483,163.145 789.463,163.209 789.463,163.275C789.463,163.456 789.612,163.605 789.793,163.605C789.852,163.605 789.909,163.59 789.96,163.56C793.02,161.667 795.54,160.267 797.52,159.36C799.8,158.32 800.95,157.1 803.67,158.2C804.46,158.527 804.958,159.288 804.9,160.08C804.807,161.22 805.047,161.993 805.62,162.4C805.705,162.461 805.783,162.531 805.852,162.609C806.421,163.247 806.307,164.293 805.598,164.924C805.512,165.001 805.419,165.07 805.32,165.13C802.17,167.06 796.83,169.05 793.37,173.44C793.287,173.539 793.283,173.686 793.36,173.8L793.55,174.05C793.555,174.057 793.56,174.064 793.565,174.07C793.646,174.167 793.796,174.177 793.897,174.092C793.901,174.088 793.906,174.084 793.91,174.08L797.95,170.09C798.036,170.004 798.13,169.93 798.23,169.87C800.497,168.53 803.13,167.537 806.13,166.89C808.23,166.45 808.55,169.12 808.02,170.53C806.48,174.577 805.413,178.26 804.82,181.58C804.796,181.684 804.863,181.79 804.97,181.82L804.98,181.82C805.083,181.836 805.182,181.775 805.21,181.68L807.85,173.55C808.013,173.048 808.483,172.707 809.01,172.707C809.291,172.707 809.563,172.803 809.78,172.98L810.37,173.45C811.268,174.16 811.625,175.365 811.26,176.45L808.55,184.51C808.548,184.513 808.547,184.517 808.547,184.521C808.547,184.53 808.552,184.537 808.56,184.54L808.8,184.63C808.94,184.68 809.097,184.615 809.16,184.48C809.587,183.56 809.893,182.98 810.08,182.74C810.666,182.008 811.714,181.822 812.51,182.31C813.403,182.857 813.75,183.59 813.55,184.51C812.877,187.683 812.17,190.603 811.43,193.27C811.42,193.305 811.414,193.341 811.414,193.378C811.414,193.586 811.586,193.758 811.794,193.758C811.852,193.758 811.908,193.745 811.96,193.72C813.35,193.07 814.88,191.66 816.51,192.66C817.183,193.073 817.48,193.87 817.4,195.05C817.34,195.89 817.24,197.1 817.1,198.68C817.069,199.055 817.23,199.424 817.53,199.66L818.43,200.37C819.19,200.977 819.543,201.963 819.34,202.91C818.82,205.29 817.84,208.357 816.4,212.11C815.8,213.67 815.52,215.187 815.56,216.66C815.568,216.983 815.836,217.245 816.16,217.245C816.408,217.245 816.631,217.091 816.72,216.86L822.55,201.39C822.658,201.102 822.851,200.855 823.104,200.68C823.786,200.21 824.736,200.388 825.21,201.074C825.384,201.326 825.478,201.624 825.48,201.93L825.48,209.93C825.48,209.931 825.48,209.933 825.48,209.934C825.48,209.973 825.511,210.004 825.55,210.004C825.575,210.004 825.597,209.991 825.61,209.97C826.13,209.203 826.463,208.417 826.61,207.61C827.723,201.717 830.5,196.827 834.94,192.94C835.083,192.812 835.268,192.741 835.46,192.741C835.888,192.741 836.24,193.093 836.24,193.521C836.24,193.524 836.24,193.527 836.24,193.53L836.24,194.81C836.242,195.006 836.404,195.167 836.6,195.167C836.714,195.167 836.822,195.112 836.89,195.02C838.6,192.64 839.93,188.79 844.1,186.58C844.184,186.536 844.277,186.513 844.371,186.513C844.647,186.513 844.886,186.709 844.94,186.98L845.12,187.93C845.176,188.243 845.451,188.474 845.77,188.474C845.973,188.474 846.165,188.38 846.29,188.22L848.88,184.94C848.977,184.819 849.124,184.748 849.279,184.748C849.507,184.748 849.708,184.901 849.77,185.12C849.903,185.613 850.19,185.79 850.63,185.65C850.655,185.644 850.677,185.633 850.69,185.62L855.63,179.66C855.922,179.311 856.355,179.109 856.81,179.109C857.644,179.109 858.334,179.786 858.35,180.62C858.35,180.62 858.35,180.693 858.35,180.695C858.35,181.09 858.675,181.415 859.07,181.415C859.221,181.415 859.368,181.368 859.49,181.28C862.34,179.23 864.13,177.51 866.04,177.42C866.066,177.419 866.093,177.418 866.119,177.418C867.03,177.418 867.779,178.167 867.779,179.078C867.779,179.28 867.742,179.481 867.67,179.67L866.99,181.48C866.97,181.527 866.959,181.577 866.959,181.627C866.959,181.83 867.126,181.997 867.329,181.997C867.427,181.997 867.521,181.959 867.59,181.89C869.997,179.737 872.777,178.083 875.93,176.93C876.084,176.875 876.247,176.846 876.411,176.846C877.19,176.846 877.831,177.487 877.831,178.266C877.831,178.583 877.725,178.89 877.53,179.14L875.76,181.38C875.76,181.381 875.759,181.381 875.759,181.382C875.707,181.446 875.715,181.539 875.775,181.586C875.777,181.588 875.778,181.589 875.78,181.59L876.01,181.77C876.062,181.81 876.134,181.81 876.18,181.77C878.91,179.37 882.16,176.4 885.3,176.67C885.459,176.683 885.616,176.716 885.767,176.768C886.769,177.111 887.312,178.213 886.971,179.21C886.919,179.361 886.848,179.506 886.76,179.64L885.5,181.58C885.461,181.642 885.44,181.714 885.44,181.788C885.44,182.002 885.616,182.178 885.83,182.178C885.908,182.178 885.985,182.154 886.05,182.11C886.103,182.07 887.13,181.193 889.13,179.48C890.763,178.08 892.293,177.983 893.72,179.19C893.972,179.406 894.344,179.423 894.62,179.23C897.047,177.497 899.737,177.113 902.69,178.08ZM811.385,208.764C811.127,208.709 810.814,209.141 810.691,209.72C810.567,210.3 810.678,210.822 810.935,210.876C810.935,210.876 810.935,210.876 810.936,210.876C811.193,210.931 811.506,210.499 811.63,209.92C811.753,209.34 811.642,208.818 811.385,208.764C811.385,208.764 811.385,208.764 811.385,208.764ZM829.712,209.611C829.712,209.611 829.712,209.611 829.712,209.611C829.405,209.622 829.174,210.253 829.2,211.01C829.2,211.01 829.2,211.01 829.2,211.01C829.227,211.766 829.501,212.38 829.808,212.369C829.808,212.369 829.808,212.369 829.808,212.369C830.115,212.358 830.346,211.727 830.32,210.97C830.32,210.97 830.32,210.97 830.32,210.97C830.293,210.214 830.019,209.6 829.712,209.611ZM826.42,218.4C826.567,218.427 826.89,217.437 827.39,215.43C827.477,215.09 827.38,214.893 827.1,214.84C826.82,214.787 826.657,214.933 826.61,215.28C826.33,217.333 826.267,218.373 826.42,218.4Z" style="fill:rgb(47,47,45);fill-rule:nonzero;"/>
        <path d="M774.71,150.32C774.726,150.247 774.735,150.172 774.735,150.097C774.735,149.537 774.274,149.077 773.715,149.077C773.457,149.077 773.209,149.174 773.02,149.35L770.94,151.25C770.636,151.529 770.209,151.628 769.82,151.51C768.35,151.1 767.32,148.83 768.54,147.54C770.28,145.7 772.15,144.45 774.69,145.42C776.917,146.267 778.427,147.91 779.22,150.35C779.94,152.56 779.03,154.64 776.15,154.18C776.137,154.178 776.123,154.175 776.11,154.173C774.967,153.957 774.204,152.843 774.419,151.706C774.422,151.687 774.426,151.669 774.43,151.65L774.71,150.32Z" style="fill-rule:nonzero;"/>
        <path d="M918.21,148.71C920.09,149.51 922.74,150.78 926.16,152.52C927.14,153.02 929.03,153.37 931.83,153.57C932.269,153.606 932.624,153.952 932.67,154.39L932.72,154.87C932.723,154.894 932.724,154.919 932.724,154.943C932.724,155.297 932.452,155.596 932.1,155.63C926.99,156.15 920.27,154.25 917.56,149.44C917.519,149.364 917.498,149.279 917.498,149.193C917.498,148.908 917.732,148.673 918.018,148.673C918.084,148.673 918.149,148.686 918.21,148.71Z" style="fill-rule:nonzero;"/>
        <path d="M870.54,151.96C870.559,151.953 870.581,151.962 870.59,151.98L870.6,151.99C871.283,153.304 869.266,155.723 866.13,157.35L864.58,158.16C861.444,159.785 858.304,160.04 857.623,158.725C857.622,158.723 857.61,158.7 857.61,158.7C857.603,158.681 857.612,158.659 857.63,158.65L870.54,151.96Z" style="fill-rule:nonzero;"/>
        <path d="M847,168.03C847.16,168.043 847.293,168.103 847.4,168.21C847.467,168.27 847.51,168.397 847.53,168.59C847.81,171.67 848.013,174.22 848.14,176.24C848.347,179.487 847.547,181.02 845.74,180.84C843.933,180.66 843.447,179 844.28,175.86C844.8,173.907 845.497,171.447 846.37,168.48C846.43,168.293 846.497,168.173 846.57,168.12C846.697,168.04 846.84,168.01 847,168.03Z" style="fill:rgb(253,253,253);fill-rule:nonzero;"/>
        <path d="M800.2,194.73L796.17,183.41L800.79,178.73C800.829,178.692 800.878,178.664 800.931,178.65C801.101,178.603 801.277,178.7 801.322,178.864C801.337,178.918 801.336,178.976 801.32,179.03C800.7,181.27 800.21,183.45 799.85,185.57C799.55,187.31 799.667,190.363 800.2,194.73Z" style="fill:rgb(253,253,253);fill-rule:nonzero;"/>
        <path d="M900.84,180.83C899.167,182.43 897.243,183.93 895.07,185.33C893.71,186.21 893.173,187.29 893.46,188.57C893.487,188.686 893.529,188.798 893.585,188.903C893.968,189.625 894.934,189.873 895.723,189.454C895.84,189.391 895.95,189.316 896.05,189.23C897.923,187.623 899.477,186.417 900.71,185.61C900.758,185.578 900.814,185.561 900.871,185.561C901.03,185.561 901.161,185.692 901.161,185.851C901.161,185.904 901.147,185.955 901.12,186L899.55,188.74C899.436,188.934 899.376,189.156 899.376,189.381C899.376,189.834 899.618,190.253 900.01,190.48L900.33,190.66C900.879,190.976 901.59,190.787 901.91,190.24L903.91,186.78C904.08,186.478 904.381,186.273 904.72,186.23C905.727,186.09 906.817,186.273 907.99,186.78C909.19,188.273 910.693,188.903 912.5,188.67C912.793,188.637 913.123,188.82 913.49,189.22C913.937,189.62 914.137,189.963 914.09,190.25C913.863,191.717 913.667,192.973 913.5,194.02L913.36,197.97C913.355,198.23 913.14,198.442 912.88,198.442C912.867,198.442 912.853,198.441 912.84,198.44C909.36,198.18 909.71,202.34 909.27,204.13C909.194,204.447 908.915,204.677 908.59,204.69C905.11,204.84 905.05,209.14 904.39,212.05C904.29,212.502 903.886,212.826 903.423,212.826C903.099,212.826 902.795,212.666 902.61,212.4C902.17,211.76 901.65,211.477 901.05,211.55C900.823,211.574 900.629,211.726 900.55,211.94L898.35,218.18C898.337,218.218 898.311,218.248 898.28,218.26C898.12,218.34 897.987,218.363 897.88,218.33C897.694,218.268 897.588,218.069 897.64,217.88C897.807,217.213 897.787,216.78 897.58,216.58C897.467,216.472 897.338,216.386 897.197,216.323C896.416,215.973 895.439,216.432 895.034,217.338C894.961,217.502 894.909,217.675 894.88,217.85C894.1,222.69 890.62,226.85 888.24,230.97L887.53,231.83C887.343,231.797 887.09,231.647 886.77,231.38C888.363,227.42 889.46,223.41 890.06,219.35C890.174,218.559 889.628,217.812 888.84,217.68L887.99,217.54C887.679,217.487 887.37,217.664 887.26,217.96L881.05,234.43C881.026,234.497 880.985,234.557 880.93,234.601C880.763,234.736 880.513,234.706 880.375,234.536C880.331,234.482 880.302,234.418 880.29,234.35C879.7,230.68 880.88,226.35 881.71,222.04C881.93,220.9 881.753,220.017 881.18,219.39C881.115,219.319 881.043,219.256 880.964,219.201C880.348,218.771 879.468,218.95 879.016,219.598C878.959,219.68 878.91,219.768 878.87,219.86C876.643,224.94 874.473,229.44 872.36,233.36C872.22,233.613 872.033,233.82 871.8,233.98C871.745,234.015 871.681,234.034 871.616,234.034C871.429,234.034 871.276,233.881 871.276,233.694C871.276,233.676 871.277,233.658 871.28,233.64C872.56,226.447 873.2,222.667 873.2,222.3C873.207,220.82 872.857,219.98 872.15,219.78C871.288,219.535 870.355,219.945 869.92,220.76C866.7,226.66 864.19,231.033 862.39,233.88C862.05,234.413 861.68,234.847 861.28,235.18C861.248,235.206 861.208,235.219 861.168,235.219C861.069,235.219 860.988,235.138 860.988,235.039C860.988,235.03 860.988,235.02 860.99,235.01L863.28,221.09C863.365,220.568 863.137,220.045 862.7,219.76L862.38,219.54C862.189,219.414 861.965,219.347 861.736,219.347C861.214,219.347 860.752,219.697 860.61,220.2C859.057,225.6 856.197,230.33 852.03,234.39C851.981,234.433 851.917,234.457 851.851,234.457C851.703,234.457 851.581,234.336 851.581,234.187C851.581,234.165 851.584,234.142 851.59,234.12C851.937,233.053 852.163,232.44 852.27,232.28C853.65,230.14 854.917,227.6 856.07,224.66C856.341,223.964 855.965,223.144 855.22,222.81C854.16,222.33 853.27,222.8 852.67,223.74C851.117,226.147 849.37,228.433 847.43,230.6C847.375,230.661 847.304,230.706 847.224,230.728C847.002,230.789 846.77,230.661 846.71,230.444C846.688,230.364 846.692,230.279 846.72,230.2C847.933,226.5 848.677,224.167 848.95,223.2C849.39,221.64 849.317,220.55 848.73,219.93C848.427,219.608 848.015,219.405 847.57,219.36C847.103,219.313 846.153,220.253 844.72,222.18C844.691,222.218 844.657,222.251 844.617,222.278C844.419,222.415 844.145,222.368 844.011,222.174C843.983,222.133 843.962,222.088 843.95,222.04L843.4,219.99C843.295,219.597 842.937,219.322 842.53,219.322C842.235,219.322 841.958,219.467 841.79,219.71C841.29,220.43 840.81,221.44 840.75,222.32C840.57,225.073 840.217,227.403 839.69,229.31C839.25,230.903 839.177,231.927 839.47,232.38C840.017,233.22 840.993,233.557 842.4,233.39C842.656,233.354 842.908,233.492 843.02,233.73C843.14,233.983 843.117,234.227 842.95,234.46C838.89,234.38 834.94,233.783 831.1,232.67C833.273,232.55 834.76,231.597 835.56,229.81C837.42,225.68 839.32,220.64 841.27,219.1C842.94,217.79 842.43,216.14 840.82,214.8C840.582,214.598 840.279,214.487 839.967,214.487C839.471,214.487 839.015,214.767 838.79,215.21L831.58,229.18C831.55,229.232 831.488,229.257 831.43,229.24L831.18,229.17C831.179,229.17 831.178,229.17 831.177,229.169C831.161,229.165 831.153,229.144 831.159,229.123C831.159,229.122 831.16,229.121 831.16,229.12C831.913,226.107 832.577,222.497 833.15,218.29C833.397,216.43 832.747,215.397 831.2,215.19C830.876,215.144 830.632,214.864 830.632,214.536C830.632,214.402 830.673,214.271 830.75,214.16C833.11,210.72 835.05,206.93 836.57,202.79C836.591,202.73 836.622,202.674 836.66,202.624C836.869,202.349 837.271,202.297 837.551,202.509C837.6,202.546 837.643,202.59 837.68,202.64L838.25,203.42C838.56,203.849 839.058,204.104 839.588,204.104C840.138,204.104 840.654,203.828 840.96,203.37L845.35,196.75C845.379,196.704 845.419,196.666 845.467,196.64C845.629,196.548 845.84,196.611 845.935,196.778C845.961,196.825 845.976,196.877 845.98,196.93C846.007,197.577 846.087,198.023 846.22,198.27C846.433,198.663 846.86,198.857 847.5,198.85C848.627,198.837 849.727,198.147 850.8,196.78C852.593,194.5 855.463,190.757 859.41,185.55C859.963,184.823 860.667,184.33 861.52,184.07C861.538,184.065 861.557,184.062 861.576,184.062C861.691,184.062 861.786,184.157 861.786,184.272C861.786,184.314 861.773,184.355 861.75,184.39C859.077,187.917 857.577,189.963 857.25,190.53C856.688,191.503 856.656,192.567 857.17,193.13C858.57,194.68 860.69,193.49 861.96,192.22C864.9,189.287 867.467,186.607 869.66,184.18C870.127,183.66 870.58,183.373 871.02,183.32C871.028,183.319 871.037,183.319 871.045,183.319C871.199,183.319 871.325,183.445 871.325,183.599C871.325,183.67 871.298,183.738 871.25,183.79C869.87,185.237 868.77,186.827 867.95,188.56C867.942,188.576 867.935,188.592 867.928,188.609C867.658,189.245 867.918,189.973 868.504,190.222C868.519,190.228 868.534,190.234 868.55,190.24C870.63,191.01 874.45,188.13 875.95,186.66C878.257,184.4 880.613,182.51 883.02,180.99C883.162,180.9 883.355,180.945 883.45,181.09L883.46,181.1C883.55,181.237 883.51,181.427 883.37,181.53C881.897,182.57 880.793,183.843 880.06,185.35C880.04,185.392 880.021,185.436 880.005,185.48C879.714,186.261 880.122,187.145 880.909,187.438C880.952,187.454 880.996,187.468 881.04,187.48C883.74,188.2 886.63,186.1 887.92,184.27C888.024,184.119 888.197,184.028 888.381,184.028C888.508,184.028 888.631,184.071 888.73,184.15C888.93,184.31 889,184.467 888.94,184.62C888.863,184.81 888.842,185.013 888.88,185.207C888.999,185.827 889.682,186.224 890.393,186.087C890.615,186.044 890.824,185.952 891,185.82C893.293,184.06 895.16,182.56 896.6,181.32C897.687,180.38 899.1,180.217 900.84,180.83ZM860.95,204.84C861.343,204.627 862.81,203.727 865.35,202.14C871.643,198.22 878.5,196.853 885.92,198.04C886.713,198.16 888.033,198.947 889.88,200.4C890.171,200.629 890.53,200.753 890.9,200.753C891.476,200.753 892.011,200.452 892.31,199.96L892.36,199.87C892.923,198.953 892.736,197.751 891.92,197.05C883.19,189.54 868.81,194.62 860.11,200.63C859.117,201.318 858.609,202.522 858.81,203.71L858.83,203.8C858.843,203.877 858.863,203.952 858.888,204.026C859.149,204.783 859.982,205.193 860.735,204.934C860.809,204.909 860.881,204.877 860.95,204.84ZM874.17,207.54L881.52,206.57C881.848,206.528 882.096,206.246 882.096,205.915C882.096,205.887 882.094,205.858 882.09,205.83L882.08,205.73C881.884,204.262 880.345,203.237 878.67,203.46L876.12,203.79C876.117,203.79 876.114,203.791 876.111,203.791C874.436,204.012 873.217,205.402 873.41,206.87L873.43,206.97C873.472,207.298 873.754,207.546 874.085,207.546C874.113,207.546 874.142,207.544 874.17,207.54Z" style="fill:rgb(253,253,253);fill-rule:nonzero;"/>
        <path d="M888.24,230.97C890.62,226.85 894.1,222.69 894.88,217.85C894.909,217.675 894.961,217.502 895.034,217.338C895.439,216.432 896.416,215.973 897.197,216.323C897.338,216.386 897.467,216.472 897.58,216.58C897.787,216.78 897.807,217.213 897.64,217.88C897.588,218.069 897.694,218.268 897.88,218.33C897.987,218.363 898.12,218.34 898.28,218.26C898.311,218.248 898.337,218.218 898.35,218.18L900.55,211.94C900.629,211.726 900.823,211.574 901.05,211.55C901.65,211.477 902.17,211.76 902.61,212.4C902.795,212.666 903.099,212.826 903.423,212.826C903.886,212.826 904.29,212.502 904.39,212.05C905.05,209.14 905.11,204.84 908.59,204.69C908.915,204.677 909.194,204.447 909.27,204.13C909.71,202.34 909.36,198.18 912.84,198.44C912.853,198.441 912.867,198.442 912.88,198.442C913.14,198.442 913.355,198.23 913.36,197.97L913.5,194.02C915.293,193.767 916.163,193.27 916.11,192.53C916.057,191.81 915.543,190.763 914.57,189.39C914.423,189.177 914.26,189.053 914.08,189.02C913.84,188.973 913.643,189.04 913.49,189.22C913.123,188.82 912.793,188.637 912.5,188.67C910.693,188.903 909.19,188.273 907.99,186.78C910.823,187.653 913.71,187.963 916.65,187.71C917.016,187.684 917.38,187.794 917.67,188.02C918.69,188.813 918.843,190.07 918.13,191.79C918.083,191.903 918.047,192.02 918.02,192.14C917.587,193.807 917.277,194.793 917.09,195.1C915.69,197.387 914.857,199.55 914.59,201.59C914.518,202.126 914.296,202.632 913.95,203.05L910.85,206.77C910.697,206.956 910.573,207.161 910.48,207.38L908.71,211.65C908.525,212.092 908.257,212.493 907.92,212.83L905.78,214.97C905.681,215.076 905.596,215.194 905.53,215.32C904.797,216.88 903.87,218.19 902.75,219.25C899.737,222.11 896.62,225.247 893.4,228.66C892.327,229.807 890.607,230.577 888.24,230.97Z" style="fill:rgb(47,47,45);fill-rule:nonzero;"/>
        <path d="M913.5,194.02C913.667,192.973 913.863,191.717 914.09,190.25C914.137,189.963 913.937,189.62 913.49,189.22C913.643,189.04 913.84,188.973 914.08,189.02C914.26,189.053 914.423,189.177 914.57,189.39C915.543,190.763 916.057,191.81 916.11,192.53C916.163,193.27 915.293,193.767 913.5,194.02Z" style="fill:rgb(122,127,112);fill-rule:nonzero;"/>
        <path d="M860.95,204.84C860.881,204.877 860.809,204.909 860.735,204.934C859.982,205.193 859.149,204.783 858.888,204.026C858.863,203.952 858.843,203.877 858.83,203.8L858.81,203.71C858.609,202.522 859.117,201.318 860.11,200.63C868.81,194.62 883.19,189.54 891.92,197.05C892.736,197.751 892.923,198.953 892.36,199.87L892.31,199.96C892.011,200.452 891.476,200.753 890.9,200.753C890.53,200.753 890.171,200.629 889.88,200.4C888.033,198.947 886.713,198.16 885.92,198.04C878.5,196.853 871.643,198.22 865.35,202.14C862.81,203.727 861.343,204.627 860.95,204.84Z" style="fill-rule:nonzero;"/>
        <path d="M802.04,198.88L801.13,196.92L802.6,194.45C802.745,194.21 803.042,194.098 803.32,194.18L803.68,194.29C803.815,194.33 803.909,194.456 803.909,194.597C803.909,194.643 803.899,194.688 803.88,194.73L802.04,198.88Z" style="fill:rgb(122,127,112);fill-rule:nonzero;"/>
        <path d="M874.17,207.54C874.142,207.544 874.113,207.546 874.085,207.546C873.754,207.546 873.472,207.298 873.43,206.97L873.41,206.87C873.217,205.402 874.436,204.012 876.111,203.791C876.114,203.791 876.117,203.79 876.12,203.79L878.67,203.46C880.345,203.237 881.884,204.262 882.08,205.73L882.09,205.83C882.094,205.858 882.096,205.887 882.096,205.915C882.096,206.246 881.848,206.528 881.52,206.57L874.17,207.54Z" style="fill-rule:nonzero;"/>
        <path d="M805.95,210.64C805.477,209.927 805.127,209.16 804.9,208.34C806.1,208.153 806.45,208.92 805.95,210.64Z" style="fill:rgb(180,209,220);fill-rule:nonzero;"/>
        <g transform="matrix(0.207912,-0.978148,0.978148,0.207912,811.16,209.82)">
            <ellipse cx="0" cy="0" rx="1.08" ry="0.48" style="fill:rgb(122,127,112);"/>
        </g>
        <g transform="matrix(-0.0348995,-0.999391,0.999391,-0.0348995,829.76,210.99)">
            <ellipse cx="0" cy="0" rx="1.38" ry="0.56" style="fill:rgb(253,253,253);"/>
        </g>
        <path d="M810.82,218.01C809.807,216.457 808.947,215.2 808.24,214.24C807.987,213.9 807.957,213.57 808.15,213.25C808.77,212.81 809.473,212.55 810.26,212.47C810.277,212.468 810.293,212.467 810.31,212.467C810.573,212.467 810.79,212.684 810.79,212.947C810.79,212.948 810.79,212.949 810.79,212.95L810.82,218.01Z" style="fill:rgb(253,253,253);fill-rule:nonzero;"/>
        <path d="M821.91,226.08C820.03,223.973 817.99,222.357 815.79,221.23L818.72,219.19C819.016,218.98 819.256,218.702 819.42,218.38L821.68,214.01C821.714,213.953 821.776,213.918 821.843,213.918C821.947,213.918 822.033,214.004 822.033,214.108C822.033,214.119 822.032,214.129 822.03,214.14C821.057,217.9 821.017,221.88 821.91,226.08Z" style="fill:rgb(253,253,253);fill-rule:nonzero;"/>
        <path d="M827.1,214.84C827.38,214.893 827.477,215.09 827.39,215.43C826.89,217.437 826.567,218.427 826.42,218.4C826.267,218.373 826.33,217.333 826.61,215.28C826.657,214.933 826.82,214.787 827.1,214.84Z" style="fill:rgb(253,253,253);fill-rule:nonzero;"/>
        <path d="M840.78,238.17C841.007,238.189 841.184,238.381 841.184,238.609C841.184,238.759 841.107,238.899 840.98,238.98C838.147,240.8 835.943,242.993 834.37,245.56C831.87,249.63 832.59,254.6 827.5,256.96C824.58,258.32 822.607,257.52 821.58,254.56C821,252.873 820.233,249.78 819.28,245.28C819.007,244.007 817.947,242.073 816.1,239.48C811.84,233.5 796.76,228.42 804.76,217.62C804.848,217.5 804.989,217.428 805.139,217.428C805.284,217.428 805.421,217.495 805.51,217.61C808.88,221.98 813.05,223.54 816.57,227.06C821.07,231.57 825.79,237.17 832,237.49C834.413,237.617 837.34,237.843 840.78,238.17Z" style="fill:rgb(253,253,253);fill-rule:nonzero;"/>
        <path d="M886.77,231.38C886.71,232.12 886.767,232.563 886.94,232.71C886.153,233.437 885.55,233.84 885.13,233.92C882.323,234.467 879.683,235.453 877.21,236.88C876.928,237.037 876.608,237.12 876.28,237.12L874.91,237.13C875.923,235.73 876.457,234.257 876.51,232.71C876.51,232.707 876.51,232.705 876.51,232.702C876.51,232.598 876.424,232.512 876.32,232.512C876.255,232.512 876.195,232.545 876.16,232.6L872.92,237.64C871.3,238.387 869.497,238.393 867.51,237.66C867.523,234.8 867.997,232.02 868.93,229.32C868.94,229.295 868.945,229.267 868.945,229.24C868.945,229.144 868.882,229.058 868.79,229.03L868.5,228.93C868.493,228.93 868.486,228.934 868.48,228.94L862.74,238.18C860.58,238.253 858.457,237.833 856.37,236.92C856.77,236.007 856.803,235.22 856.47,234.56C856.393,234.41 856.238,234.315 856.069,234.315C855.963,234.315 855.861,234.352 855.78,234.42C855.207,234.893 854.943,235.633 854.99,236.64L848.25,235.32C849.143,234.66 849.03,234.177 847.91,233.87C847.637,233.79 847.447,233.85 847.34,234.05C847.233,234.237 847.207,234.47 847.26,234.75L842.95,234.46C843.117,234.227 843.14,233.983 843.02,233.73C842.908,233.492 842.656,233.354 842.4,233.39C840.993,233.557 840.017,233.22 839.47,232.38C839.177,231.927 839.25,230.903 839.69,229.31C840.217,227.403 840.57,225.073 840.75,222.32C840.81,221.44 841.29,220.43 841.79,219.71C841.958,219.467 842.235,219.322 842.53,219.322C842.937,219.322 843.295,219.597 843.4,219.99L843.95,222.04C843.962,222.088 843.983,222.133 844.011,222.174C844.145,222.368 844.419,222.415 844.617,222.278C844.657,222.251 844.691,222.218 844.72,222.18C846.153,220.253 847.103,219.313 847.57,219.36C848.015,219.405 848.427,219.608 848.73,219.93C849.317,220.55 849.39,221.64 848.95,223.2C848.677,224.167 847.933,226.5 846.72,230.2C846.692,230.279 846.688,230.364 846.71,230.444C846.77,230.661 847.002,230.789 847.224,230.728C847.304,230.706 847.375,230.661 847.43,230.6C849.37,228.433 851.117,226.147 852.67,223.74C853.27,222.8 854.16,222.33 855.22,222.81C855.965,223.144 856.341,223.964 856.07,224.66C854.917,227.6 853.65,230.14 852.27,232.28C852.163,232.44 851.937,233.053 851.59,234.12C851.584,234.142 851.581,234.165 851.581,234.187C851.581,234.336 851.703,234.457 851.851,234.457C851.917,234.457 851.981,234.433 852.03,234.39C856.197,230.33 859.057,225.6 860.61,220.2C860.752,219.697 861.214,219.347 861.736,219.347C861.965,219.347 862.189,219.414 862.38,219.54L862.7,219.76C863.137,220.045 863.365,220.568 863.28,221.09L860.99,235.01C860.988,235.02 860.988,235.03 860.988,235.039C860.988,235.138 861.069,235.219 861.168,235.219C861.208,235.219 861.248,235.206 861.28,235.18C861.68,234.847 862.05,234.413 862.39,233.88C864.19,231.033 866.7,226.66 869.92,220.76C870.355,219.945 871.288,219.535 872.15,219.78C872.857,219.98 873.207,220.82 873.2,222.3C873.2,222.667 872.56,226.447 871.28,233.64C871.277,233.658 871.276,233.676 871.276,233.694C871.276,233.881 871.429,234.034 871.616,234.034C871.681,234.034 871.745,234.015 871.8,233.98C872.033,233.82 872.22,233.613 872.36,233.36C874.473,229.44 876.643,224.94 878.87,219.86C878.91,219.768 878.959,219.68 879.016,219.598C879.468,218.95 880.348,218.771 880.964,219.201C881.043,219.256 881.115,219.319 881.18,219.39C881.753,220.017 881.93,220.9 881.71,222.04C880.88,226.35 879.7,230.68 880.29,234.35C880.302,234.418 880.331,234.482 880.375,234.536C880.513,234.706 880.763,234.736 880.93,234.601C880.985,234.557 881.026,234.497 881.05,234.43L887.26,217.96C887.37,217.664 887.679,217.487 887.99,217.54L888.84,217.68C889.628,217.812 890.174,218.559 890.06,219.35C889.46,223.41 888.363,227.42 886.77,231.38Z" style="fill:rgb(47,47,45);fill-rule:nonzero;"/>
        <path d="M842.43,340.79L769.29,340.92C770.437,328.673 772.32,316.53 774.94,304.49C775.054,303.982 775.539,303.642 776.05,303.71C777.13,303.857 778.193,303.923 779.24,303.91C780.92,303.897 781.897,303.063 782.17,301.41C784.143,289.65 787.277,278.443 791.57,267.79C791.897,266.983 791.89,266.33 791.55,265.83C791.511,265.772 791.467,265.717 791.418,265.668C790.931,265.17 790.068,265.212 789.508,265.761C789.451,265.817 789.398,265.877 789.35,265.94C788.463,267.113 787.73,268.43 787.15,269.89C783.303,279.637 780.56,289.52 778.92,299.54C778.849,299.976 778.445,300.288 778,300.25C766.37,299.28 755.11,295.71 743.7,291.61C743.351,291.481 743.118,291.147 743.118,290.775C743.118,290.664 743.139,290.554 743.18,290.45C748.95,275.88 752.29,267.02 758.79,255.29C764.62,244.77 773.24,236.66 782.42,228.41C787.287,224.043 792.887,220.773 799.22,218.6C799.272,218.581 799.327,218.573 799.382,218.577C799.601,218.593 799.768,218.79 799.752,219.015C799.748,219.069 799.734,219.122 799.71,219.17C795.25,228.08 805.49,234.98 812.1,240.63C814.98,243.09 816.07,246.77 817.07,251.57C818.25,257.19 820.58,263.31 827.5,260.96C833.96,258.75 835.26,253.91 837.23,247.97C837.271,247.829 837.4,247.731 837.547,247.731C837.678,247.731 837.798,247.809 837.85,247.93C839.017,250.443 839.91,253.3 840.53,256.5C842.45,266.45 844.57,286.2 849.3,300.8C849.381,301.046 849.254,301.318 849.01,301.42L840.44,304.86C840.405,304.875 840.367,304.883 840.329,304.883C840.182,304.883 840.059,304.767 840.05,304.62C839.25,295.767 839.383,285.983 840.45,275.27C840.503,274.77 840.49,274.44 840.41,274.28C840.175,273.785 839.675,273.468 839.127,273.468C838.506,273.468 837.953,273.876 837.77,274.47C837.263,276.123 836.907,277.763 836.7,279.39C834.22,299.25 837.47,321.11 842.43,340.79Z" style="fill:rgb(249,211,142);fill-rule:nonzero;"/>
        <path d="M827.8,230.62C826.533,230.34 825.66,229.743 825.18,228.83C825.353,228.33 825.573,227.94 825.84,227.66C825.843,227.657 825.845,227.655 825.848,227.652C826.052,227.445 826.387,227.44 826.59,227.64C826.593,227.643 826.597,227.647 826.6,227.65C827.407,228.47 827.807,229.46 827.8,230.62Z" style="fill:rgb(253,253,253);fill-rule:nonzero;"/>
        <path d="M867.51,237.66C865.877,238.267 864.287,238.44 862.74,238.18L868.48,228.94C868.486,228.934 868.493,228.93 868.5,228.93L868.79,229.03C868.882,229.058 868.945,229.144 868.945,229.24C868.945,229.267 868.94,229.295 868.93,229.32C867.997,232.02 867.523,234.8 867.51,237.66Z" style="fill:rgb(253,253,253);fill-rule:nonzero;"/>
        <path d="M886.77,231.38C887.09,231.647 887.343,231.797 887.53,231.83C887.61,232.13 887.413,232.423 886.94,232.71C886.767,232.563 886.71,232.12 886.77,231.38Z" style="fill:rgb(122,127,112);fill-rule:nonzero;"/>
        <path d="M874.91,237.13C874.39,237.543 873.727,237.713 872.92,237.64L876.16,232.6C876.195,232.545 876.255,232.512 876.32,232.512C876.424,232.512 876.51,232.598 876.51,232.702C876.51,232.705 876.51,232.707 876.51,232.71C876.457,234.257 875.923,235.73 874.91,237.13Z" style="fill:rgb(253,253,253);fill-rule:nonzero;"/>
        <path d="M848.25,235.32L847.26,234.75C847.207,234.47 847.233,234.237 847.34,234.05C847.447,233.85 847.637,233.79 847.91,233.87C849.03,234.177 849.143,234.66 848.25,235.32Z" style="fill:rgb(122,127,112);fill-rule:nonzero;"/>
        <path d="M856.37,236.92C855.91,236.947 855.45,236.853 854.99,236.64C854.943,235.633 855.207,234.893 855.78,234.42C855.861,234.352 855.963,234.315 856.069,234.315C856.238,234.315 856.393,234.41 856.47,234.56C856.803,235.22 856.77,236.007 856.37,236.92Z" style="fill:rgb(180,209,220);fill-rule:nonzero;"/>
        <path d="M765.96,340.54L741.36,340.76C742.76,325.63 745.03,314.89 748.72,297.94C748.779,297.693 749.001,297.518 749.255,297.518C749.318,297.518 749.381,297.529 749.44,297.55C756.653,300.097 763.82,301.907 770.94,302.98C770.948,302.981 770.956,302.982 770.964,302.984C771.266,303.04 771.47,303.33 771.415,303.627C771.413,303.635 771.412,303.642 771.41,303.65C768.69,315.923 766.873,328.22 765.96,340.54Z" style="fill:rgb(253,253,253);fill-rule:nonzero;"/>
        <path d="M855.38,340.66L846.11,340.68C845.023,335.233 843.903,329.917 842.75,324.73C842.377,323.017 841.677,317.967 840.65,309.58C840.604,309.191 840.826,308.816 841.19,308.67L845.46,306.95C845.477,306.943 845.494,306.937 845.511,306.932C845.806,306.846 846.12,307.022 846.208,307.322C846.213,307.338 846.217,307.354 846.22,307.37C848.393,318.557 851.447,329.653 855.38,340.66Z" style="fill:rgb(253,253,253);fill-rule:nonzero;"/>
    </g>
</svg>
