<?xml version="1.0" encoding="UTF-8" standalone="no"?>
<!DOCTYPE svg PUBLIC "-//W3C//DTD SVG 1.1//EN" "http://www.w3.org/Graphics/SVG/1.1/DTD/svg11.dtd">
<svg width="100%" height="100%" viewBox="0 0 229 319" version="1.1" xmlns="http://www.w3.org/2000/svg" xmlns:xlink="http://www.w3.org/1999/xlink" xml:space="preserve" xmlns:serif="http://www.serif.com/" style="fill-rule:evenodd;clip-rule:evenodd;stroke-linejoin:round;stroke-miterlimit:2;">
    <g transform="matrix(1,0,0,1,-393.948,-23.102)">
        <path d="M514.53,341.05C514.077,341.003 513.637,340.877 513.21,340.67C513.01,340.543 512.837,340.263 512.69,339.83C508.603,327.79 505.913,315.457 504.62,302.83C504.619,302.821 504.617,302.812 504.616,302.804C504.57,302.567 504.342,302.408 504.11,302.453C504.1,302.455 504.09,302.457 504.08,302.46L492.36,305.63C492.063,305.713 491.86,305.987 491.87,306.29C492.337,317.757 493.587,329.29 495.62,340.89L492.45,341.02C491.83,340.14 491.423,339.127 491.23,337.98C487.62,316.77 486.93,293.34 491.48,271.99C491.84,270.31 492.453,268.807 493.32,267.48C493.361,267.418 493.408,267.36 493.46,267.307C493.936,266.821 494.75,266.835 495.264,267.338C495.321,267.394 495.373,267.455 495.42,267.52C495.647,267.84 495.713,268.227 495.62,268.68C493.26,280.01 492.54,289.63 491.77,301.12C491.77,301.132 491.77,301.143 491.77,301.155C491.781,301.341 491.939,301.486 492.12,301.475C492.133,301.474 492.147,301.472 492.16,301.47C498.173,300.37 503.833,298.663 509.14,296.35C509.436,296.224 509.594,295.89 509.51,295.57C506.97,286.2 505.49,278 503.92,265.61C502.82,256.877 501.733,250.537 500.66,246.59C500.053,244.337 499.537,242.773 499.11,241.9C499.103,241.885 499.095,241.87 499.086,241.855C498.908,241.553 498.508,241.453 498.201,241.634C498.187,241.642 498.173,241.651 498.16,241.66C494.69,244.11 492.83,245.41 491.63,249.38C489.99,254.87 486.28,258.31 480.23,258.19C472.88,258.06 472.8,249.19 471.8,243.98C471.27,241.25 469.9,238.1 468.19,236.6C460.37,229.74 448.39,220.53 457.69,209.18C457.76,209.098 457.799,208.994 457.799,208.887C457.799,208.64 457.596,208.437 457.349,208.437C457.312,208.437 457.276,208.441 457.24,208.45C449.83,210.16 442.8,215.29 437.25,220.51C431.51,225.917 426.58,231.143 422.46,236.19C417.82,241.877 413.693,248.937 410.08,257.37C406.187,266.463 402.22,276.887 398.18,288.64C398.082,288.928 398.222,289.247 398.5,289.37C410.213,294.503 422.413,297.46 435.1,298.24C435.549,298.261 435.944,297.939 436.01,297.5C437.417,287.84 439.537,278.72 442.37,270.14C443.303,267.32 444.593,264.56 446.24,261.86C446.257,261.832 446.275,261.804 446.295,261.777C446.719,261.184 447.575,261.058 448.191,261.499C448.218,261.518 448.244,261.539 448.27,261.56C448.803,262 448.91,262.607 448.59,263.38C443.8,274.96 441.42,287.15 439.27,300.08C439.099,301.12 438.188,301.89 437.13,301.89L432.67,301.89C432.193,301.891 431.785,302.247 431.72,302.72C430.94,308.23 429.71,313.8 429.05,319.82C428.283,326.76 427.513,333.82 426.74,341L423.12,340.65C424.087,327.517 425.827,314.527 428.34,301.68C428.341,301.676 428.341,301.673 428.342,301.669C428.365,301.517 428.263,301.374 428.117,301.352C428.111,301.351 428.106,301.35 428.1,301.35C420.167,300.59 412.49,298.84 405.07,296.1C405.029,296.085 404.986,296.077 404.942,296.077C404.768,296.077 404.616,296.2 404.58,296.37C401.53,311.12 398.68,325.91 397.67,340.9L394.38,340.92C394.379,340.92 394.379,340.92 394.378,340.92C394.142,340.92 393.948,340.726 393.948,340.49C393.948,340.477 393.949,340.463 393.95,340.45C394.63,331.343 395.943,321.177 397.89,309.95C398.73,305.13 399.867,300.203 401.3,295.17C401.387,294.87 401.226,294.547 400.93,294.43C398.603,293.51 396.673,292.393 395.14,291.08C394.45,290.485 394.182,289.533 394.46,288.67C397.193,280.217 400.163,271.867 403.37,263.62C407.58,252.81 412.62,241.91 420.14,233.14C430.82,220.68 441.92,208.26 456.83,205.29C456.837,205.289 456.844,205.287 456.851,205.286C457.182,205.208 457.391,204.876 457.315,204.55C457.313,204.543 457.312,204.537 457.31,204.53L454.39,193.73C454.301,193.415 454.068,193.159 453.76,193.04L452.92,192.72C452.312,192.494 451.849,191.987 451.68,191.36L450.83,188.2C450.758,187.953 450.53,187.781 450.273,187.781C449.989,187.781 449.745,187.99 449.7,188.27C449.4,190.36 446.21,190.26 445.94,187.69C445.833,186.67 445.823,185.793 445.91,185.06C445.913,185.036 445.914,185.013 445.914,184.989C445.914,184.632 445.62,184.339 445.264,184.339C445.209,184.339 445.154,184.346 445.1,184.36C444.507,184.52 443.783,184.523 442.93,184.37C442.377,184.27 442.103,183.757 442.11,182.83C442.13,180.87 442.58,179.023 443.46,177.29C443.758,176.714 443.611,176.002 443.11,175.59C440.403,173.323 437.25,171.003 433.65,168.63C425.063,162.963 420.5,155.107 419.96,145.06C419.76,141.32 420.637,138.153 422.59,135.56C422.845,135.225 422.913,134.783 422.77,134.39C419.21,124.6 417.11,113.17 419.68,102.98C419.69,102.942 419.695,102.902 419.695,102.863C419.695,102.599 419.478,102.383 419.215,102.383C419.099,102.383 418.987,102.424 418.9,102.5C417.993,103.313 417.01,103.63 415.95,103.45C413.74,103.08 414.03,99.83 414.42,98.47C416.367,91.65 419.54,85.297 423.94,79.41C423.992,79.341 424.019,79.257 424.019,79.171C424.019,78.951 423.839,78.771 423.619,78.771C423.545,78.771 423.473,78.791 423.41,78.83C421.41,80.06 418.5,83 416,82.85C415.939,82.846 415.879,82.839 415.82,82.829C414.83,82.658 414.17,81.628 414.357,80.547C414.368,80.48 414.383,80.415 414.4,80.35C414.827,78.717 415.717,77.21 417.07,75.83C422.743,70.077 429.31,65.84 436.77,63.12C436.881,63.076 436.954,62.969 436.954,62.85C436.954,62.76 436.912,62.675 436.84,62.62C436.22,62.18 435.723,61.927 435.35,61.86C431.32,61.21 427.11,60.87 425.96,59.63C425.919,59.586 425.881,59.539 425.846,59.49C425.237,58.638 425.63,57.296 426.719,56.517C426.781,56.472 426.845,56.43 426.91,56.39C429.7,54.7 435.73,55.43 438.95,56.16C438.969,56.165 438.989,56.167 439.009,56.166C439.13,56.161 439.225,56.053 439.219,55.927C439.219,55.908 439.215,55.888 439.21,55.87C438.48,53.64 437.17,46.66 439.66,44.96C441.12,43.96 442.25,44.32 443.05,46.04C444.103,48.313 445.02,51.14 445.8,54.52C445.852,54.729 446.041,54.877 446.256,54.877C446.429,54.877 446.588,54.782 446.67,54.63C452.143,43.99 460.697,37.09 472.33,33.93C472.359,33.921 472.378,33.894 472.378,33.863C472.378,33.852 472.376,33.84 472.37,33.83C472.31,33.717 472.24,33.683 472.16,33.73C474.7,33.01 477.17,32.44 479.57,32.02C480.122,31.92 480.664,31.77 481.19,31.57C483.97,30.5 486.76,28.77 489.52,27.84C496.06,25.64 501.323,24.56 505.31,24.6C510.303,24.66 515.237,24.713 520.11,24.76C525.96,24.82 531.85,23.48 536.46,23.13C539.01,22.94 540.9,23.68 540.84,26.49C540.793,28.657 539.59,30.647 537.23,32.46C537.173,32.507 537.14,32.578 537.14,32.652C537.14,32.789 537.253,32.902 537.39,32.902C537.4,32.902 537.41,32.901 537.42,32.9C548.62,31.32 559.637,31.043 570.47,32.07C574.08,32.42 575.58,34.86 573.45,37.94C572.37,39.513 570.853,40.613 568.9,41.24C568.652,41.319 568.483,41.551 568.483,41.811C568.483,42.048 568.623,42.264 568.84,42.36C572.68,44.1 576.887,46.27 581.46,48.87C585.02,50.897 590.347,53.053 597.44,55.34C601.97,56.8 607.86,58.95 609.87,63.04C610.021,63.349 610.103,63.687 610.11,64.03C610.19,69.28 603.09,71.86 598.88,71.8C598.879,71.8 598.879,71.8 598.878,71.8C598.708,71.8 598.568,71.94 598.568,72.11C598.568,72.188 598.597,72.263 598.65,72.32C601.01,74.85 607.37,82.54 606.49,86.29C606.412,86.61 606.245,86.898 606.01,87.12C603.98,89.01 601.5,87.64 599.85,85.96C599.78,85.886 599.683,85.845 599.582,85.845C599.379,85.845 599.212,86.012 599.212,86.215C599.212,86.254 599.218,86.293 599.23,86.33C601.797,94.497 601.3,102.35 597.74,109.89C597.724,109.923 597.711,109.958 597.702,109.994C597.623,110.302 597.815,110.622 598.128,110.703C598.162,110.711 598.196,110.717 598.23,110.72C605.403,111.187 611.067,114.537 615.22,120.77C619.26,126.84 621.69,133.95 622.2,140.65C622.413,143.483 621.463,146.867 619.35,150.8C615.137,158.64 609.713,163.623 603.08,165.75C602.716,165.865 602.449,166.19 602.4,166.58C601.17,177.51 596.01,185.52 584.39,187C584.346,187.006 584.303,187.016 584.261,187.03C583.902,187.15 583.704,187.54 583.823,187.894C583.837,187.938 583.857,187.98 583.88,188.02L585.65,191.08C585.757,191.266 585.814,191.477 585.814,191.691C585.814,192.128 585.579,192.533 585.2,192.75L583.85,193.54C583.687,193.633 583.502,193.683 583.314,193.683C582.899,193.683 582.519,193.444 582.34,193.07C582.007,192.377 581.79,192.003 581.69,191.95C581.642,191.926 581.589,191.913 581.535,191.913C581.349,191.913 581.195,192.066 581.195,192.253C581.195,192.296 581.204,192.34 581.22,192.38C582.373,195.053 582.91,197.887 582.83,200.88C582.824,201.073 582.783,201.262 582.709,201.439C582.371,202.243 581.418,202.622 580.599,202.277C580.418,202.201 580.253,202.094 580.11,201.96C579.863,201.727 579.537,201.493 579.13,201.26C579.069,201.224 578.999,201.205 578.927,201.205C578.708,201.205 578.527,201.385 578.527,201.605C578.527,201.62 578.528,201.635 578.53,201.65C578.983,206.857 578.657,211.333 577.55,215.08C577.347,215.736 576.737,216.186 576.05,216.186C575.255,216.186 574.578,215.581 574.49,214.79L574.22,212.17C574.201,211.993 574.057,211.853 573.88,211.84L573.58,211.83C573.473,211.818 573.375,211.894 573.36,212C572.14,218.44 571.18,222.933 570.48,225.48C570.1,226.84 569.507,227.923 568.7,228.73C568.617,228.813 568.525,228.887 568.427,228.95C567.67,229.437 566.644,229.21 566.155,228.448C566.093,228.351 566.041,228.248 566,228.14L565.48,226.77C565.435,226.65 565.319,226.57 565.19,226.57C565.061,226.57 564.945,226.65 564.9,226.77L561.92,234.67C561.824,234.923 561.669,235.15 561.468,235.333C560.77,235.968 559.677,235.919 559.045,235.225C558.862,235.025 558.73,234.783 558.66,234.52L558.47,233.81C558.426,233.655 558.284,233.548 558.124,233.548C557.986,233.548 557.86,233.627 557.8,233.75C557.26,234.883 555.653,238.033 552.98,243.2C552.253,244.62 551.027,245.017 549.3,244.39C549.007,244.279 548.83,243.98 548.88,243.68L549.42,240.39C549.426,240.363 549.429,240.335 549.429,240.308C549.429,240.105 549.262,239.938 549.059,239.938C548.912,239.938 548.779,240.025 548.72,240.16C546.533,244.293 545.13,246.81 544.51,247.71C543.597,249.023 542.513,249.49 541.26,249.11C541.225,249.099 541.19,249.087 541.156,249.074C540.394,248.777 540.01,247.91 540.305,247.154C540.319,247.118 540.334,247.084 540.35,247.05L542.05,243.45C542.05,243.45 542.05,243.449 542.05,243.449C542.085,243.368 542.052,243.275 541.976,243.243C541.974,243.242 541.972,243.241 541.97,243.24L541.63,243.12C541.485,243.06 541.316,243.106 541.22,243.23C538.667,246.577 537.27,248.413 537.03,248.74C536.017,250.14 534.843,250.76 533.51,250.6C533.456,250.594 533.403,250.585 533.35,250.574C532.405,250.377 531.787,249.45 531.981,248.521C531.992,248.47 532.005,248.42 532.02,248.37C532.407,247.143 532.893,246.163 533.48,245.43C533.546,245.348 533.582,245.246 533.582,245.141C533.582,244.988 533.506,244.845 533.38,244.76L533.17,244.62C533.143,244.597 533.099,244.601 533.07,244.63C532.05,245.67 530.68,247.2 528.96,249.22C528.187,250.14 527.103,250.437 525.71,250.11C525.125,249.972 524.708,249.446 524.708,248.845C524.708,248.689 524.736,248.535 524.79,248.39L525.74,245.88C525.783,245.762 525.783,245.634 525.739,245.517C525.638,245.245 525.326,245.106 525.048,245.209C524.932,245.252 524.833,245.334 524.77,245.44C523.803,247.18 522.517,248.36 520.91,248.98C520.769,249.034 520.619,249.062 520.468,249.062C519.794,249.062 519.238,248.507 519.238,247.832C519.238,247.811 519.239,247.791 519.24,247.77L519.34,246.12C519.34,246.111 519.341,246.103 519.341,246.094C519.341,245.82 519.115,245.594 518.841,245.594C518.664,245.594 518.5,245.688 518.41,245.84C517.09,248.09 515.76,250.87 512.5,249.41C512.466,249.395 512.432,249.378 512.399,249.36C511.769,249.015 511.536,248.208 511.884,247.573C511.901,247.541 511.92,247.51 511.94,247.48L514.08,244.26C514.133,244.18 514.161,244.086 514.161,243.99C514.161,243.785 514.032,243.601 513.84,243.53L513.6,243.43C513.451,243.375 513.283,243.419 513.18,243.54C511.79,245.2 509.37,248.6 507.2,247.15C507.102,247.084 507.007,247.012 506.918,246.934C506.026,246.153 505.798,244.934 506.413,244.232C506.475,244.161 506.544,244.097 506.62,244.04C506.987,243.767 507.42,243.25 507.92,242.49C507.938,242.461 507.953,242.429 507.964,242.397C508.036,242.178 507.919,241.94 507.705,241.87C507.671,241.858 507.636,241.852 507.6,241.85L504.11,241.66C504.097,241.659 504.084,241.659 504.071,241.659C503.682,241.659 503.361,241.979 503.361,242.369C503.361,242.448 503.374,242.526 503.4,242.6C504.387,245.5 505.223,248.83 505.91,252.59C506.043,253.337 507.247,262.06 509.52,278.76C509.827,280.973 511.16,286.573 513.52,295.56C513.598,295.854 513.591,296.169 513.5,296.47C512.66,299.27 510.2,299.67 508.63,300.77C508.305,300.997 508.134,301.385 508.19,301.77C509.71,312.657 510.963,320.073 511.95,324.02C513.257,329.28 514.687,334.69 516.24,340.25C516.325,340.573 516.156,340.91 515.85,341.03C515.463,341.183 515.023,341.19 514.53,341.05ZM502.56,31.06L502.28,29.85C502.26,29.776 502.193,29.724 502.116,29.724C502.1,29.724 502.085,29.726 502.07,29.73L497.69,30.76C492.194,32.059 487.747,33.462 487.83,33.87L487.85,33.93C487.85,33.931 487.85,33.932 487.851,33.932C487.946,34.338 492.555,33.601 498.059,32.3C498.059,32.3 498.06,32.3 498.06,32.3L502.44,31.26C502.526,31.236 502.579,31.147 502.56,31.06ZM457.02,48.71L470.78,39.67C470.869,39.611 470.895,39.491 470.84,39.4L470.56,38.98C470.396,38.76 467.146,40.627 463.35,43.12L463.13,43.26C459.339,45.75 456.339,47.989 456.47,48.23L456.74,48.65C456.777,48.708 456.841,48.743 456.909,48.743C456.949,48.743 456.987,48.732 457.02,48.71ZM593.979,58.912C593.979,58.912 593.979,58.912 593.979,58.912C593.874,59.171 595.964,60.264 598.609,61.333C598.609,61.333 598.609,61.333 598.609,61.333C601.254,62.402 603.517,63.067 603.621,62.808C603.621,62.808 603.621,62.808 603.621,62.808C603.726,62.549 601.636,61.456 598.991,60.387C598.991,60.387 598.991,60.387 598.991,60.387C596.346,59.318 594.083,58.653 593.979,58.912ZM493.16,80.47C483.18,87.423 472.223,91.91 460.29,93.93C460.276,93.933 460.262,93.936 460.248,93.94C460.07,93.996 459.969,94.185 460.023,94.357C460.028,94.372 460.033,94.386 460.04,94.4C463.42,101.913 466.2,109.303 468.38,116.57C469.45,120.12 465.14,121.62 462.36,120.86C462.314,120.847 462.266,120.841 462.218,120.841C461.927,120.841 461.688,121.08 461.688,121.371C461.688,121.387 461.688,121.404 461.69,121.42L462.41,128.52C462.457,128.919 462.804,129.218 463.2,129.2L481.79,128.45C482.423,128.425 483.006,128.092 483.35,127.56C485.04,124.91 487.48,125.23 489.47,123.46C490.577,122.467 491.71,121.65 492.87,121.01C493.214,120.818 493.358,120.391 493.2,120.03L492.68,118.87C492.625,118.746 492.597,118.613 492.597,118.478C492.597,118.085 492.836,117.729 493.2,117.58C495.207,116.753 497.317,116.26 499.53,116.1C501.197,115.973 505.057,114.743 511.11,112.41C516.61,110.29 520.5,105.44 524.89,100.89C525.208,100.556 525.716,100.478 526.12,100.7C526.887,101.127 527.493,101.647 527.94,102.26C528.235,102.665 528.277,103.206 528.05,103.66C526.477,106.8 524.35,109.41 521.67,111.49C521.633,111.521 521.603,111.559 521.582,111.603C521.503,111.766 521.569,111.963 521.727,112.039C521.771,112.061 521.82,112.071 521.87,112.07C531.817,111.943 539.607,115.653 545.24,123.2C545.535,123.597 546.06,123.756 546.53,123.59C551.383,121.89 556.553,121.56 562.04,122.6C562.44,122.682 562.857,122.583 563.18,122.33C567.107,119.257 571.053,116.893 575.02,115.24C575.168,115.174 575.264,115.027 575.264,114.865C575.264,114.732 575.199,114.607 575.09,114.53C571.523,112.11 568.857,109.043 567.09,105.33C566.601,104.295 566.963,103.043 567.93,102.43L568.03,102.37C568.031,102.369 568.032,102.369 568.032,102.368C568.961,101.784 570.208,102.07 570.796,103.004C570.797,103.006 570.799,103.008 570.8,103.01C573.77,107.8 576.95,109.66 580.47,112.36C580.82,112.633 581.268,112.743 581.7,112.66L592.34,110.64C592.343,110.639 592.346,110.639 592.349,110.638C592.471,110.606 592.546,110.483 592.515,110.366C592.514,110.361 592.512,110.355 592.51,110.35C589.163,100.07 585.75,90.847 582.27,82.68C580.82,79.26 579.23,77.44 576.39,75.38C568.497,69.667 561.14,64.793 554.32,60.76C553.974,60.549 553.527,60.582 553.21,60.84C545.89,66.74 536.1,71.09 529.29,75.39C528.558,75.853 527.595,75.739 526.99,75.12C525.437,73.5 525.13,71.537 526.07,69.23C526.089,69.185 526.095,69.136 526.086,69.089C526.061,68.954 525.925,68.865 525.785,68.891C525.739,68.899 525.695,68.92 525.66,68.95C520.413,73.85 514.513,78.17 507.96,81.91C503.233,84.603 498.177,85.717 492.79,85.25C492.447,85.224 492.139,85.029 491.97,84.73C491.443,83.81 491.917,82.477 493.39,80.73C493.414,80.7 493.428,80.663 493.43,80.624C493.435,80.526 493.363,80.44 493.27,80.435C493.23,80.433 493.192,80.445 493.16,80.47ZM597.56,114.07C596.847,114.55 596.123,114.687 595.39,114.48C593.177,114.22 590.977,114.4 588.79,115.02C588.603,115.075 588.473,115.247 588.473,115.442C588.473,115.645 588.613,115.822 588.81,115.87L595.25,117.51C597.04,118.24 597.54,119.69 596.19,121.17C591.61,122.08 584.98,119.56 580.78,117.85C580.459,117.722 580.101,117.722 579.78,117.85C575.8,119.417 572.37,121.29 569.49,123.47C568.717,124.05 568.3,124.693 568.24,125.4C568.02,127.72 567.03,128 565.03,127.66C564.389,127.556 563.741,127.823 563.36,128.35C555.84,138.73 559.32,151.58 569.81,158.18C575.51,161.767 581.677,163.773 588.31,164.2C588.769,164.227 589.18,163.903 589.26,163.45C589.513,161.997 589.94,160.963 590.54,160.35C590.606,160.283 590.676,160.222 590.751,160.165C591.608,159.517 592.85,159.692 593.502,160.554C593.557,160.626 593.606,160.702 593.65,160.78L595.12,163.39C595.316,163.74 595.693,163.949 596.09,163.93C597.523,163.863 598.68,163.5 599.56,162.84C600.92,162.827 601.91,162.583 602.53,162.11C610.86,159.23 615.39,151.83 618.47,144.07C619.243,142.117 619.297,139.803 618.63,137.13C615.99,126.61 610.01,113.99 597.56,114.07ZM511.01,162.41C511.084,162.301 511.123,162.172 511.123,162.04C511.123,161.678 510.825,161.38 510.463,161.38C510.425,161.38 510.387,161.383 510.35,161.39C506.49,162.05 499.69,161.73 497.11,157.82C495.63,155.56 496.85,151.63 499.55,150.84C501.137,150.38 502.367,150.323 503.24,150.67C506.493,151.97 509.773,152.63 513.08,152.65C513.546,152.65 513.93,152.266 513.93,151.8C513.93,151.676 513.903,151.553 513.85,151.44C511.96,147.43 512.51,141.34 517,139C518.9,138.01 520.55,139.35 521.49,140.82C523.097,143.327 523.59,146.197 522.97,149.43C522.964,149.462 522.963,149.495 522.965,149.528C522.98,149.746 523.168,149.915 523.381,149.9C523.415,149.898 523.448,149.891 523.48,149.88C526.06,149.02 530.51,148.4 531.43,151.98C533.03,158.27 520.9,160.5 517.73,162.06C517.433,162.207 517.263,162.531 517.31,162.86C517.33,163.02 517.57,163.397 518.03,163.99C518.203,164.213 518.275,164.499 518.23,164.78L517.73,167.78C517.671,168.141 517.923,168.488 518.29,168.55C524.717,169.597 531.1,168.63 537.44,165.65C551.91,158.85 550.78,142.51 545.14,129.79C545.023,129.532 544.773,129.359 544.49,129.34C544.33,129.327 544.13,129.423 543.89,129.63C542.81,130.55 541.08,129.41 540.52,128.43C539.94,127.4 540.86,126.5 541.49,125.95C541.753,125.717 541.903,125.382 541.903,125.03C541.903,124.728 541.792,124.435 541.59,124.21C536.97,118.99 531.023,116.223 523.75,115.91C520.177,115.757 517.64,115.903 516.14,116.35C515.801,116.443 515.472,116.577 515.16,116.75C511.113,118.937 507.867,120.183 505.42,120.49C500.807,121.063 497.367,122.513 495.1,124.84C492.913,127.093 490.333,129.287 487.36,131.42C487.08,131.621 486.87,131.908 486.76,132.24C481.34,148.3 493.41,161.51 507.91,165.93C508.283,166.043 508.69,165.896 508.91,165.57L511.01,162.41ZM442.43,140.32L443.19,143.58C443.267,143.896 443.228,144.226 443.08,144.51C442.393,145.81 441.26,146.48 439.68,146.52C437.98,142.91 437.56,138.07 433.79,135.78C430.57,133.83 426.4,136.06 424.48,138.82C423.633,140.04 423.203,141.89 423.19,144.37C423.13,152.1 427.39,159.84 433.42,164.1C439.373,168.307 443.557,171.357 445.97,173.25C446.823,174.79 448.307,176.4 450.42,178.08C451.85,179.22 452.36,181.05 453.54,182.46C453.933,182.927 454.253,183.44 454.5,184L458.15,191.89C458.23,192.957 458.44,193.52 458.78,193.58C458.627,195.033 459.057,196.423 460.07,197.75C460.117,199.71 460.3,200.987 460.62,201.58C461.8,203.78 462.613,206.11 463.06,208.57C463.105,208.81 463.225,209.027 463.4,209.19L466.79,212.32C466.457,213.053 466.697,213.62 467.51,214.02C469.657,216.2 471.12,217.65 471.9,218.37C472.113,218.57 472.403,218.597 472.77,218.45C472.943,218.85 473.217,219.18 473.59,219.44C474.55,220.447 475.543,221.057 476.57,221.27C477.603,222.857 479.003,224.103 480.77,225.01C482.37,228.337 484.513,230.403 487.2,231.21C487.509,231.302 487.793,231.463 488.03,231.68L490.01,233.5C490.168,233.638 490.353,233.737 490.55,233.79L497.05,235.43L501.53,236.86L511.55,238.7C511.49,239.253 511.87,239.523 512.69,239.51C514.58,240.27 516.47,240.1 518.41,240.76C519.803,241.227 521.227,241.22 522.68,240.74C523.93,240.33 524.7,241.3 525.94,241.24C526.313,241.42 526.893,241.497 527.68,241.47L535.81,240.5L537.73,240.25L538.74,240.37C539.055,240.409 539.381,240.372 539.69,240.26C542.443,239.26 544.85,237.863 546.91,236.07C547.923,235.937 548.673,235.32 549.16,234.22L551.67,235.25C552.023,236.437 552.71,236.09 553.73,234.21L554.45,232.42C554.536,232.188 554.658,231.972 554.81,231.78L558.96,226.33C559.02,226.251 559.094,226.183 559.18,226.13C561.86,224.28 564.3,220.47 566.23,218.33C566.586,217.927 566.858,217.458 567.03,216.95C568.323,213.07 570.247,209.397 572.8,205.93C573.026,205.632 573.207,205.302 573.34,204.95C574.127,202.87 574.54,201.643 574.58,201.27C574.833,198.69 575.057,197.017 575.25,196.25C575.338,195.887 575.666,195.629 576.04,195.63L577.32,195.63C577.321,195.63 577.321,195.63 577.322,195.63C577.525,195.63 577.692,195.463 577.692,195.26C577.692,195.247 577.691,195.233 577.69,195.22L577.1,189.34C577.099,189.334 577.099,189.328 577.098,189.322C577.054,188.946 576.704,188.674 576.322,188.718C576.318,188.719 576.314,188.719 576.31,188.72L573.83,189.05L568.66,188.51L564.43,187.31C564.278,187.27 564.129,187.206 563.99,187.12L555.9,182C555.754,181.914 555.599,181.85 555.44,181.81C553.467,181.323 552.053,180.533 551.2,179.44C552.1,178.81 552.76,178.4 553.71,179.27C554.003,179.543 554.247,179.707 554.44,179.76C554.75,179.837 555.076,179.802 555.36,179.66C556.48,179.1 557.607,178.84 558.74,178.88C559.115,178.892 559.456,179.111 559.63,179.45C564.24,188.59 582.06,184.83 589.28,181.9C591.493,181.007 593.347,179.72 594.84,178.04C594.878,177.998 594.899,177.943 594.899,177.886C594.899,177.76 594.795,177.656 594.669,177.656C594.642,177.656 594.615,177.661 594.59,177.67C591.14,178.89 587.28,177.4 587.82,173.08C588.04,171.313 588.257,169.737 588.47,168.35C588.473,168.327 588.475,168.303 588.475,168.279C588.475,168.009 588.26,167.783 587.99,167.77C575.89,167.16 563.44,161.77 557.63,151.17C553.083,142.877 553.493,134.633 558.86,126.44C558.921,126.344 558.954,126.232 558.954,126.117C558.954,125.809 558.717,125.549 558.41,125.52C554.97,125.24 551.697,125.55 548.59,126.45C548.177,126.57 547.89,126.951 547.89,127.382C547.89,127.53 547.924,127.677 547.99,127.81C553.16,138.43 555.28,154.04 546.56,163.14C539.49,170.51 529.17,172.23 518.79,172.13C518.268,172.124 517.798,172.456 517.63,172.95C516.94,174.92 515.83,176.98 513.78,177.54C508.62,178.94 507.32,174.58 507.4,170.29C507.406,169.958 507.208,169.653 506.9,169.52C506.19,169.22 505.22,169.43 504.24,169.02C488.83,162.53 478.29,151.56 481.08,133.7C481.084,133.674 481.087,133.647 481.087,133.62C481.087,133.352 480.868,133.132 480.6,133.13C476.66,133.103 470.627,132.967 462.5,132.72C455.973,132.52 448.157,133.08 439.05,134.4C439.025,134.404 439.001,134.411 438.978,134.42C438.799,134.489 438.707,134.689 438.775,134.863C438.784,134.887 438.796,134.909 438.81,134.93L442.43,140.32ZM513.63,162.54C509.72,163.39 509.88,170.02 510.32,173.91C510.375,174.415 510.688,174.863 511.15,175.1C512.29,175.687 513.21,175.447 513.91,174.38C515.85,171.427 516.37,167.6 515.47,162.9C515.405,162.556 515.458,162.2 515.62,161.89C517.3,158.82 520.88,158.08 525.13,156.59C525.986,156.291 526.724,155.719 527.23,154.96L528.12,153.62C528.206,153.491 528.251,153.339 528.251,153.184C528.251,152.751 527.895,152.394 527.461,152.394C527.393,152.394 527.326,152.403 527.26,152.42C523.913,153.333 519.78,154.227 514.86,155.1C510.893,155.807 506.707,155.3 502.3,153.58C502.054,153.484 501.792,153.434 501.527,153.434C500.653,153.434 499.865,153.975 499.55,154.79L499.54,154.82C499.09,155.975 499.54,157.298 500.6,157.94C503.72,159.81 506.86,159.14 511.69,159.12C511.998,159.114 512.286,159.279 512.44,159.55L513.86,162.01C513.87,162.027 513.878,162.044 513.885,162.062C513.956,162.246 513.867,162.454 513.688,162.523C513.669,162.531 513.65,162.536 513.63,162.54ZM590.33,161.58C591.54,164.77 590.93,170.43 590.74,174.16C590.739,174.187 590.738,174.214 590.739,174.241C590.753,174.855 591.265,175.349 591.874,175.335C591.903,175.335 591.931,175.333 591.96,175.33L593.16,175.21C593.898,175.136 594.473,174.526 594.5,173.79C594.673,169.343 593.81,165.29 591.91,161.63C591.643,161.117 591.29,160.867 590.85,160.88C590.817,160.881 590.785,160.884 590.752,160.89C590.456,160.945 590.254,161.216 590.304,161.492C590.31,161.522 590.319,161.551 590.33,161.58ZM597.45,172.05C598.017,171.103 598.357,169.683 598.47,167.79C598.51,167.197 598.15,166.927 597.39,166.98C597.079,167.001 596.838,167.273 596.85,167.59L597.03,171.94C597.04,172.059 597.14,172.151 597.259,172.151C597.336,172.151 597.407,172.113 597.45,172.05ZM494.17,238.29L488.25,237.56C488.15,237.547 488.053,237.52 487.96,237.48C484.673,236.033 482.427,234.6 481.22,233.18C476.42,227.56 473.24,222.6 466.77,221.48C466.369,221.411 466.026,221.154 465.85,220.79L461.84,212.59C461.628,212.153 461.183,211.874 460.697,211.874C460.149,211.874 459.66,212.229 459.49,212.75L458.43,215.96C457.828,217.772 458.055,219.76 459.05,221.39C460.95,224.49 462.743,226.747 464.43,228.16C467.417,230.667 469.71,232.773 471.31,234.48C475.82,239.28 475.57,245.18 476.62,250.33C477.247,253.45 478.76,254.867 481.16,254.58C487.05,253.87 487.76,249.15 489.5,244.5C489.586,244.275 489.715,244.071 489.88,243.9L494.47,239.14C494.508,239.101 494.54,239.057 494.563,239.008C494.682,238.761 494.573,238.457 494.321,238.336C494.273,238.313 494.222,238.298 494.17,238.29Z" style="fill-rule:nonzero;"/>
        <path d="M502.56,31.06C502.579,31.147 502.526,31.236 502.44,31.26L498.06,32.3C498.06,32.3 498.059,32.3 498.059,32.3C492.555,33.601 487.946,34.338 487.851,33.932C487.85,33.932 487.85,33.931 487.85,33.93L487.83,33.87C487.747,33.462 492.194,32.059 497.69,30.76L502.07,29.73C502.085,29.726 502.1,29.724 502.116,29.724C502.193,29.724 502.26,29.776 502.28,29.85L502.56,31.06Z" style="fill:rgb(122,127,112);fill-rule:nonzero;"/>
        <g transform="matrix(-0.927184,-0.374607,0.374607,-0.927184,598.8,60.86)">
            <ellipse cx="0" cy="0" rx="5.2" ry="0.51" style="fill:rgb(122,127,112);"/>
        </g>
        <path d="M493.16,80.47C493.192,80.445 493.23,80.433 493.27,80.435C493.363,80.44 493.435,80.526 493.43,80.624C493.428,80.663 493.414,80.7 493.39,80.73C491.917,82.477 491.443,83.81 491.97,84.73C492.139,85.029 492.447,85.224 492.79,85.25C498.177,85.717 503.233,84.603 507.96,81.91C514.513,78.17 520.413,73.85 525.66,68.95C525.695,68.92 525.739,68.899 525.785,68.891C525.925,68.865 526.061,68.954 526.086,69.089C526.095,69.136 526.089,69.185 526.07,69.23C525.13,71.537 525.437,73.5 526.99,75.12C527.595,75.739 528.558,75.853 529.29,75.39C536.1,71.09 545.89,66.74 553.21,60.84C553.527,60.582 553.974,60.549 554.32,60.76C561.14,64.793 568.497,69.667 576.39,75.38C579.23,77.44 580.82,79.26 582.27,82.68C585.75,90.847 589.163,100.07 592.51,110.35C592.512,110.355 592.514,110.361 592.515,110.366C592.546,110.483 592.471,110.606 592.349,110.638C592.346,110.639 592.343,110.639 592.34,110.64L581.7,112.66C581.268,112.743 580.82,112.633 580.47,112.36C576.95,109.66 573.77,107.8 570.8,103.01C570.799,103.008 570.797,103.006 570.796,103.004C570.208,102.07 568.961,101.784 568.032,102.368C568.032,102.369 568.031,102.369 568.03,102.37L567.93,102.43C566.963,103.043 566.601,104.295 567.09,105.33C568.857,109.043 571.523,112.11 575.09,114.53C575.199,114.607 575.264,114.732 575.264,114.865C575.264,115.027 575.168,115.174 575.02,115.24C571.053,116.893 567.107,119.257 563.18,122.33C562.857,122.583 562.44,122.682 562.04,122.6C556.553,121.56 551.383,121.89 546.53,123.59C546.06,123.756 545.535,123.597 545.24,123.2C539.607,115.653 531.817,111.943 521.87,112.07C521.82,112.071 521.771,112.061 521.727,112.039C521.569,111.963 521.503,111.766 521.582,111.603C521.603,111.559 521.633,111.521 521.67,111.49C524.35,109.41 526.477,106.8 528.05,103.66C528.277,103.206 528.235,102.665 527.94,102.26C527.493,101.647 526.887,101.127 526.12,100.7C525.716,100.478 525.208,100.556 524.89,100.89C520.5,105.44 516.61,110.29 511.11,112.41C505.057,114.743 501.197,115.973 499.53,116.1C497.317,116.26 495.207,116.753 493.2,117.58C492.836,117.729 492.597,118.085 492.597,118.478C492.597,118.613 492.625,118.746 492.68,118.87L493.2,120.03C493.358,120.391 493.214,120.818 492.87,121.01C491.71,121.65 490.577,122.467 489.47,123.46C487.48,125.23 485.04,124.91 483.35,127.56C483.006,128.092 482.423,128.425 481.79,128.45L463.2,129.2C462.804,129.218 462.457,128.919 462.41,128.52L461.69,121.42C461.688,121.404 461.688,121.387 461.688,121.371C461.688,121.08 461.927,120.841 462.218,120.841C462.266,120.841 462.314,120.847 462.36,120.86C465.14,121.62 469.45,120.12 468.38,116.57C466.2,109.303 463.42,101.913 460.04,94.4C460.033,94.386 460.028,94.372 460.023,94.357C459.969,94.185 460.07,93.996 460.248,93.94C460.262,93.936 460.276,93.933 460.29,93.93C472.223,91.91 483.18,87.423 493.16,80.47Z" style="fill:rgb(253,253,253);fill-rule:nonzero;"/>
        <path d="M602.53,162.11C604.043,154.077 604.747,146.04 604.64,138C604.607,136.04 604.407,134.45 604.04,133.23C603.38,131.05 602.093,126.813 600.18,120.52C599.53,118.37 598.48,116.24 597.56,114.07C610.01,113.99 615.99,126.61 618.63,137.13C619.297,139.803 619.243,142.117 618.47,144.07C615.39,151.83 610.86,159.23 602.53,162.11Z" style="fill:white;fill-opacity:0.56;fill-rule:nonzero;"/>
        <path d="M595.39,114.48C595.863,115.96 595.817,116.97 595.25,117.51L588.81,115.87C588.613,115.822 588.473,115.645 588.473,115.442C588.473,115.247 588.603,115.075 588.79,115.02C590.977,114.4 593.177,114.22 595.39,114.48Z" style="fill:rgb(253,253,253);fill-rule:nonzero;"/>
        <path d="M597.56,114.07C598.48,116.24 599.53,118.37 600.18,120.52C602.093,126.813 603.38,131.05 604.04,133.23C604.407,134.45 604.607,136.04 604.64,138C604.747,146.04 604.043,154.077 602.53,162.11C601.91,162.583 600.92,162.827 599.56,162.84C600.273,155.84 600.9,148.893 601.44,142C601.693,138.8 601.443,136.057 600.69,133.77C599.397,129.857 598.24,125.907 597.22,121.92C597.14,121.6 597.03,121.393 596.89,121.3C596.69,121.167 596.457,121.123 596.19,121.17C597.54,119.69 597.04,118.24 595.25,117.51C595.817,116.97 595.863,115.96 595.39,114.48C596.123,114.687 596.847,114.55 597.56,114.07Z" style="fill:rgb(122,127,112);fill-rule:nonzero;"/>
        <path d="M511.01,162.41L508.91,165.57C508.69,165.896 508.283,166.043 507.91,165.93C493.41,161.51 481.34,148.3 486.76,132.24C486.87,131.908 487.08,131.621 487.36,131.42C490.333,129.287 492.913,127.093 495.1,124.84C497.367,122.513 500.807,121.063 505.42,120.49C507.867,120.183 511.113,118.937 515.16,116.75C515.472,116.577 515.801,116.443 516.14,116.35C517.64,115.903 520.177,115.757 523.75,115.91C531.023,116.223 536.97,118.99 541.59,124.21C541.792,124.435 541.903,124.728 541.903,125.03C541.903,125.382 541.753,125.717 541.49,125.95C540.86,126.5 539.94,127.4 540.52,128.43C541.08,129.41 542.81,130.55 543.89,129.63C544.13,129.423 544.33,129.327 544.49,129.34C544.773,129.359 545.023,129.532 545.14,129.79C550.78,142.51 551.91,158.85 537.44,165.65C531.1,168.63 524.717,169.597 518.29,168.55C517.923,168.488 517.671,168.141 517.73,167.78L518.23,164.78C518.275,164.499 518.203,164.213 518.03,163.99C517.57,163.397 517.33,163.02 517.31,162.86C517.263,162.531 517.433,162.207 517.73,162.06C520.9,160.5 533.03,158.27 531.43,151.98C530.51,148.4 526.06,149.02 523.48,149.88C523.448,149.891 523.415,149.898 523.381,149.9C523.168,149.915 522.98,149.746 522.965,149.528C522.963,149.495 522.964,149.462 522.97,149.43C523.59,146.197 523.097,143.327 521.49,140.82C520.55,139.35 518.9,138.01 517,139C512.51,141.34 511.96,147.43 513.85,151.44C513.903,151.553 513.93,151.676 513.93,151.8C513.93,152.266 513.546,152.65 513.08,152.65C509.773,152.63 506.493,151.97 503.24,150.67C502.367,150.323 501.137,150.38 499.55,150.84C496.85,151.63 495.63,155.56 497.11,157.82C499.69,161.73 506.49,162.05 510.35,161.39C510.387,161.383 510.425,161.38 510.463,161.38C510.825,161.38 511.123,161.678 511.123,162.04C511.123,162.172 511.084,162.301 511.01,162.41Z" style="fill:rgb(253,253,253);fill-rule:nonzero;"/>
        <path d="M596.19,121.17C596.457,121.123 596.69,121.167 596.89,121.3C597.03,121.393 597.14,121.6 597.22,121.92C598.24,125.907 599.397,129.857 600.69,133.77C601.443,136.057 601.693,138.8 601.44,142C600.9,148.893 600.273,155.84 599.56,162.84C598.68,163.5 597.523,163.863 596.09,163.93C595.693,163.949 595.316,163.74 595.12,163.39L593.65,160.78C593.606,160.702 593.557,160.626 593.502,160.554C592.85,159.692 591.608,159.517 590.751,160.165C590.676,160.222 590.606,160.283 590.54,160.35C589.94,160.963 589.513,161.997 589.26,163.45C589.18,163.903 588.769,164.227 588.31,164.2C581.677,163.773 575.51,161.767 569.81,158.18C559.32,151.58 555.84,138.73 563.36,128.35C563.741,127.823 564.389,127.556 565.03,127.66C567.03,128 568.02,127.72 568.24,125.4C568.3,124.693 568.717,124.05 569.49,123.47C572.37,121.29 575.8,119.417 579.78,117.85C580.101,117.722 580.459,117.722 580.78,117.85C584.98,119.56 591.61,122.08 596.19,121.17ZM576.21,147.55C575.937,147.49 574.603,147.123 572.21,146.45C569.83,145.78 568.78,148.77 569.41,150.38C569.883,151.6 570.833,152.76 572.26,153.86C576.68,157.26 581.593,158.893 587,158.76C590.78,158.667 593.103,158.563 593.97,158.45C598.29,157.88 601.61,152.87 598.41,149.27C596.21,146.79 589.51,148.85 586.91,149.48C586.865,149.491 586.819,149.497 586.773,149.497C586.461,149.497 586.203,149.239 586.203,148.927C586.203,148.881 586.209,148.835 586.22,148.79C587.033,145.31 586.77,142.417 585.43,140.11C583.72,137.17 580.93,136.35 578.45,139C576.877,140.687 576.363,143.317 576.91,146.89C576.915,146.921 576.918,146.953 576.918,146.984C576.918,147.302 576.656,147.564 576.338,147.564C576.295,147.564 576.252,147.559 576.21,147.55Z" style="fill:rgb(253,253,253);fill-rule:nonzero;"/>
        <path d="M551.2,179.44C549.593,179.827 547.81,180.667 545.85,181.96C545.803,181.993 545.747,182.011 545.689,182.011C545.536,182.011 545.409,181.884 545.409,181.731C545.409,181.673 545.427,181.617 545.46,181.57L546.73,179.64C546.973,179.281 547.063,178.838 546.98,178.41C546.753,177.19 546.063,176.527 544.91,176.42C544.324,176.362 543.74,176.551 543.3,176.94L537.47,182.08C537.45,182.097 537.426,182.109 537.4,182.116C537.305,182.142 537.206,182.09 537.181,182C537.174,181.974 537.174,181.947 537.18,181.92C537.273,181.453 537.833,180.317 538.86,178.51C538.896,178.446 538.928,178.38 538.957,178.313C539.334,177.412 538.932,176.373 538.066,176.011C537.999,175.983 537.93,175.959 537.86,175.94C536.39,175.55 535.79,176.33 534.69,177.01C532.863,178.123 531.32,179.387 530.06,180.8C530.02,180.847 529.64,181.05 528.92,181.41C528.908,181.415 528.896,181.417 528.883,181.417C528.828,181.417 528.783,181.372 528.783,181.317C528.783,181.304 528.785,181.292 528.79,181.28L530.03,178.88C530.071,178.802 530.103,178.719 530.125,178.634C530.291,178.003 529.903,177.346 529.266,177.179C529.182,177.157 529.097,177.144 529.01,177.14C526.643,177.06 524.593,178.26 522.86,180.74C522.742,180.91 522.548,181.012 522.341,181.012C522.139,181.012 521.948,180.914 521.83,180.75L520.9,179.47C520.612,179.075 520.152,178.841 519.663,178.841C519.257,178.841 518.867,179.002 518.58,179.29L513.3,184.57C513.28,184.59 513.26,184.608 513.238,184.626C512.806,184.99 512.154,184.937 511.794,184.509C511.775,184.487 511.757,184.464 511.74,184.44C511.247,183.753 510.66,183.407 509.98,183.4C509.702,183.4 509.436,183.529 509.26,183.75L505.92,187.97C505.712,188.23 505.348,188.306 505.06,188.15C504.04,187.59 503.077,187.92 502.17,189.14C499.097,193.26 496.803,197.19 495.29,200.93C495.241,201.107 495.079,201.23 494.895,201.23C494.67,201.23 494.485,201.045 494.485,200.82C494.485,200.783 494.49,200.746 494.5,200.71L495.12,196.94C495.13,196.88 495.135,196.819 495.135,196.758C495.135,196.166 494.648,195.678 494.055,195.678C493.703,195.678 493.372,195.851 493.17,196.14C490.64,199.76 487.84,207.06 486.51,212.43C486.13,213.963 485.243,217.08 483.85,221.78C483.831,221.83 483.782,221.863 483.729,221.863C483.664,221.863 483.609,221.814 483.6,221.75C483.51,220.95 483.36,219.87 483.42,219.19C484.027,212.403 484.317,207.013 484.29,203.02C484.283,202.147 484.017,201.5 483.49,201.08C483.468,201.063 483.446,201.046 483.423,201.03C482.824,200.613 481.97,200.79 481.532,201.42C481.514,201.446 481.496,201.473 481.48,201.5C478.51,206.46 477.53,210.61 474.91,217.9C474.557,218.88 474.117,219.393 473.59,219.44C473.217,219.18 472.943,218.85 472.77,218.45C473.957,214.303 475.357,210.223 476.97,206.21C477.277,205.45 477.347,203.887 477.18,201.52C477.155,201.197 476.95,200.914 476.65,200.79C476.243,200.637 475.9,200.44 475.62,200.2C475.469,200.074 475.384,199.882 475.39,199.68L475.67,194.6C475.689,194.308 475.537,194.028 475.28,193.88C473.613,192.927 472.27,193.12 471.25,194.46C471.164,194.571 471.05,194.659 470.919,194.713C470.509,194.885 470.033,194.693 469.863,194.288C469.808,194.156 469.79,194.012 469.81,193.87C469.977,192.55 470.597,190.26 471.67,187C472.112,185.663 471.851,184.299 471.01,183.55C470.097,182.737 469.197,182.933 468.31,184.14C468.265,184.206 468.191,184.246 468.111,184.246C467.979,184.246 467.871,184.138 467.871,184.006C467.871,183.984 467.874,183.962 467.88,183.94L469.73,177.14C470.015,176.103 469.602,174.994 468.71,174.4L468.63,174.35C468.35,174.18 468.028,174.09 467.7,174.09C466.876,174.09 466.153,174.659 465.96,175.46L464.01,183.49C463.983,183.596 463.887,183.671 463.777,183.671C463.736,183.671 463.696,183.66 463.66,183.64L463.36,183.49C463.332,183.477 463.316,183.445 463.32,183.41C463.687,178.897 464.753,174.937 466.52,171.53C466.657,171.275 466.723,170.988 466.71,170.7C466.677,169.08 466.253,168.113 465.44,167.8C464.787,167.547 464.143,167.73 463.51,168.35C462.763,169.07 462.027,169.23 461.3,168.83C460.985,168.66 460.608,168.645 460.28,168.79C457.09,170.18 455.31,172.32 452.53,174.55C452.481,174.583 452.423,174.6 452.363,174.6C452.199,174.6 452.063,174.465 452.063,174.3C452.063,174.244 452.08,174.188 452.11,174.14C455.15,170.12 459.58,168.46 463.25,165.86C464.06,165.285 464.285,164.164 463.76,163.32C463.387,162.72 463.11,161.97 462.93,161.07C462.927,161.056 462.924,161.043 462.922,161.029C462.593,159.484 461.157,158.46 459.741,158.761C459.727,158.764 459.713,158.767 459.7,158.77C455.63,159.7 451.67,162.4 447.96,165C447.905,165.035 447.841,165.054 447.776,165.054C447.589,165.054 447.436,164.901 447.436,164.714C447.436,164.649 447.455,164.585 447.49,164.53C450.937,159.403 455.46,155.8 461.06,153.72C461.95,153.395 462.475,152.459 462.29,151.53C461.04,145.2 451.39,152.82 449.41,153.86C449.361,153.887 449.306,153.902 449.25,153.902C449.129,153.902 449.018,153.836 448.96,153.73L448.84,153.5C448.838,153.497 448.837,153.493 448.837,153.489C448.837,153.48 448.842,153.473 448.85,153.47L457.02,147.68C457.807,147.125 458.028,146.038 457.52,145.22C455.58,142.06 452.59,144.55 450.32,145.94C450.287,145.957 450.25,145.965 450.213,145.965C450.081,145.965 449.973,145.857 449.973,145.725C449.973,145.668 449.993,145.613 450.03,145.57L452.42,143.18C452.694,142.904 452.728,142.469 452.5,142.16L451.59,140.91C451.382,140.62 451.323,140.246 451.43,139.9L452.05,137.86C452.085,137.747 452.108,137.632 452.12,137.514C452.219,136.537 451.493,135.651 450.51,135.552C450.394,135.54 450.277,135.539 450.16,135.55C447.013,135.843 444.437,137.433 442.43,140.32L438.81,134.93C438.796,134.909 438.784,134.887 438.775,134.863C438.707,134.689 438.799,134.489 438.978,134.42C439.001,134.411 439.025,134.404 439.05,134.4C448.157,133.08 455.973,132.52 462.5,132.72C470.627,132.967 476.66,133.103 480.6,133.13C480.868,133.132 481.087,133.352 481.087,133.62C481.087,133.647 481.084,133.674 481.08,133.7C478.29,151.56 488.83,162.53 504.24,169.02C505.22,169.43 506.19,169.22 506.9,169.52C507.208,169.653 507.406,169.958 507.4,170.29C507.32,174.58 508.62,178.94 513.78,177.54C515.83,176.98 516.94,174.92 517.63,172.95C517.798,172.456 518.268,172.124 518.79,172.13C529.17,172.23 539.49,170.51 546.56,163.14C555.28,154.04 553.16,138.43 547.99,127.81C547.924,127.677 547.89,127.53 547.89,127.382C547.89,126.951 548.177,126.57 548.59,126.45C551.697,125.55 554.97,125.24 558.41,125.52C558.717,125.549 558.954,125.809 558.954,126.117C558.954,126.232 558.921,126.344 558.86,126.44C553.493,134.633 553.083,142.877 557.63,151.17C563.44,161.77 575.89,167.16 587.99,167.77C588.26,167.783 588.475,168.009 588.475,168.279C588.475,168.303 588.473,168.327 588.47,168.35C588.257,169.737 588.04,171.313 587.82,173.08C587.28,177.4 591.14,178.89 594.59,177.67C594.615,177.661 594.642,177.656 594.669,177.656C594.795,177.656 594.899,177.76 594.899,177.886C594.899,177.943 594.878,177.998 594.84,178.04C593.347,179.72 591.493,181.007 589.28,181.9C582.06,184.83 564.24,188.59 559.63,179.45C559.456,179.111 559.115,178.892 558.74,178.88C557.607,178.84 556.48,179.1 555.36,179.66C555.076,179.802 554.75,179.837 554.44,179.76C554.247,179.707 554.003,179.543 553.71,179.27C552.76,178.4 552.1,178.81 551.2,179.44ZM500.647,169.382C497.979,168.845 495.05,172.044 494.158,176.47C493.266,180.895 494.726,184.98 497.393,185.518C500.061,186.055 502.99,182.856 503.882,178.43C504.774,174.005 503.314,169.92 500.647,169.382Z" style="fill:rgb(253,253,253);fill-rule:nonzero;"/>
        <path d="M439.68,146.52C440.84,147.8 441.713,149.277 442.3,150.95C442.4,151.237 442.54,151.417 442.72,151.49C442.98,151.603 443.157,151.7 443.25,151.78C443.255,151.784 443.261,151.789 443.266,151.793C443.507,152.001 443.531,152.374 443.32,152.619C443.317,152.623 443.313,152.626 443.31,152.63C440.78,155.35 440.39,159.14 445.14,159.53C445.389,159.549 445.583,159.759 445.583,160.009C445.583,160.142 445.528,160.269 445.43,160.36C443.21,162.407 442.183,164.867 442.35,167.74C442.369,168.071 442.557,168.372 442.85,168.54L445.85,170.27C446.079,170.407 446.265,170.604 446.39,170.84C446.863,171.773 446.723,172.577 445.97,173.25C443.557,171.357 439.373,168.307 433.42,164.1C427.39,159.84 423.13,152.1 423.19,144.37C423.203,141.89 423.633,140.04 424.48,138.82C426.4,136.06 430.57,133.83 433.79,135.78C437.56,138.07 437.98,142.91 439.68,146.52ZM433.12,151.62L432.89,152.97C432.87,153.087 432.86,153.206 432.86,153.325C432.86,154.399 433.673,155.314 434.74,155.44C437.64,155.78 438.47,153.64 437.66,151.46C436.753,149.04 435.163,147.453 432.89,146.7C430.29,145.83 428.47,147.17 426.8,149.09C425.63,150.44 426.76,152.68 428.26,153.04C428.655,153.139 429.077,153.022 429.37,152.73L431.38,150.72C431.573,150.53 431.833,150.423 432.104,150.423C432.669,150.423 433.134,150.888 433.134,151.453C433.134,151.509 433.129,151.565 433.12,151.62Z" style="fill:rgb(253,253,253);fill-rule:nonzero;"/>
        <path d="M472.77,218.45C472.403,218.597 472.113,218.57 471.9,218.37C471.12,217.65 469.657,216.2 467.51,214.02C468.17,213.373 468.463,212.66 468.39,211.88C468.364,211.572 468.099,211.334 467.79,211.34C467.177,211.36 466.843,211.687 466.79,212.32L463.4,209.19C463.225,209.027 463.105,208.81 463.06,208.57C462.613,206.11 461.8,203.78 460.62,201.58C460.3,200.987 460.117,199.71 460.07,197.75C461.557,198.417 462.797,197.8 463.79,195.9C463.842,195.823 463.87,195.733 463.87,195.64C463.87,195.387 463.663,195.18 463.41,195.18C463.258,195.18 463.116,195.255 463.03,195.38L461.36,197.3C461.266,197.406 461.145,197.486 461.009,197.529C460.601,197.659 460.16,197.435 460.032,197.033C459.988,196.896 459.984,196.749 460.02,196.61C460.473,194.723 460.06,193.713 458.78,193.58C458.44,193.52 458.23,192.957 458.15,191.89C457.443,188.043 457.997,184.183 459.81,180.31C459.834,180.254 459.843,180.193 459.835,180.132C459.812,179.952 459.65,179.823 459.476,179.845C459.415,179.853 459.357,179.879 459.31,179.92L454.5,184C454.253,183.44 453.933,182.927 453.54,182.46C452.36,181.05 451.85,179.22 450.42,178.08C448.307,176.4 446.823,174.79 445.97,173.25C446.723,172.577 446.863,171.773 446.39,170.84C446.265,170.604 446.079,170.407 445.85,170.27L442.85,168.54C442.557,168.372 442.369,168.071 442.35,167.74C442.183,164.867 443.21,162.407 445.43,160.36C445.528,160.269 445.583,160.142 445.583,160.009C445.583,159.759 445.389,159.549 445.14,159.53C440.39,159.14 440.78,155.35 443.31,152.63C443.313,152.626 443.317,152.623 443.32,152.619C443.531,152.374 443.507,152.001 443.266,151.793C443.261,151.789 443.255,151.784 443.25,151.78C443.157,151.7 442.98,151.603 442.72,151.49C442.54,151.417 442.4,151.237 442.3,150.95C441.713,149.277 440.84,147.8 439.68,146.52C441.26,146.48 442.393,145.81 443.08,144.51C443.228,144.226 443.267,143.896 443.19,143.58L442.43,140.32C444.437,137.433 447.013,135.843 450.16,135.55C450.277,135.539 450.394,135.54 450.51,135.552C451.493,135.651 452.219,136.537 452.12,137.514C452.108,137.632 452.085,137.747 452.05,137.86L451.43,139.9C451.323,140.246 451.382,140.62 451.59,140.91L452.5,142.16C452.728,142.469 452.694,142.904 452.42,143.18L450.03,145.57C449.993,145.613 449.973,145.668 449.973,145.725C449.973,145.857 450.081,145.965 450.213,145.965C450.25,145.965 450.287,145.957 450.32,145.94C452.59,144.55 455.58,142.06 457.52,145.22C458.028,146.038 457.807,147.125 457.02,147.68L448.85,153.47C448.842,153.473 448.837,153.48 448.837,153.489C448.837,153.493 448.838,153.497 448.84,153.5L448.96,153.73C449.018,153.836 449.129,153.902 449.25,153.902C449.306,153.902 449.361,153.887 449.41,153.86C451.39,152.82 461.04,145.2 462.29,151.53C462.475,152.459 461.95,153.395 461.06,153.72C455.46,155.8 450.937,159.403 447.49,164.53C447.455,164.585 447.436,164.649 447.436,164.714C447.436,164.901 447.589,165.054 447.776,165.054C447.841,165.054 447.905,165.035 447.96,165C451.67,162.4 455.63,159.7 459.7,158.77C459.713,158.767 459.727,158.764 459.741,158.761C461.157,158.46 462.593,159.484 462.922,161.029C462.924,161.043 462.927,161.056 462.93,161.07C463.11,161.97 463.387,162.72 463.76,163.32C464.285,164.164 464.06,165.285 463.25,165.86C459.58,168.46 455.15,170.12 452.11,174.14C452.08,174.188 452.063,174.244 452.063,174.3C452.063,174.465 452.199,174.6 452.363,174.6C452.423,174.6 452.481,174.583 452.53,174.55C455.31,172.32 457.09,170.18 460.28,168.79C460.608,168.645 460.985,168.66 461.3,168.83C462.027,169.23 462.763,169.07 463.51,168.35C464.143,167.73 464.787,167.547 465.44,167.8C466.253,168.113 466.677,169.08 466.71,170.7C466.723,170.988 466.657,171.275 466.52,171.53C464.753,174.937 463.687,178.897 463.32,183.41C463.316,183.445 463.332,183.477 463.36,183.49L463.66,183.64C463.696,183.66 463.736,183.671 463.777,183.671C463.887,183.671 463.983,183.596 464.01,183.49L465.96,175.46C466.153,174.659 466.876,174.09 467.7,174.09C468.028,174.09 468.35,174.18 468.63,174.35L468.71,174.4C469.602,174.994 470.015,176.103 469.73,177.14L467.88,183.94C467.874,183.962 467.871,183.984 467.871,184.006C467.871,184.138 467.979,184.246 468.111,184.246C468.191,184.246 468.265,184.206 468.31,184.14C469.197,182.933 470.097,182.737 471.01,183.55C471.851,184.299 472.112,185.663 471.67,187C470.597,190.26 469.977,192.55 469.81,193.87C469.79,194.012 469.808,194.156 469.863,194.288C470.033,194.693 470.509,194.885 470.919,194.713C471.05,194.659 471.164,194.571 471.25,194.46C472.27,193.12 473.613,192.927 475.28,193.88C475.537,194.028 475.689,194.308 475.67,194.6L475.39,199.68C475.384,199.882 475.469,200.074 475.62,200.2C475.9,200.44 476.243,200.637 476.65,200.79C476.95,200.914 477.155,201.197 477.18,201.52C477.347,203.887 477.277,205.45 476.97,206.21C475.357,210.223 473.957,214.303 472.77,218.45Z" style="fill:rgb(47,47,45);fill-rule:nonzero;"/>
        <path d="M576.21,147.55C576.252,147.559 576.295,147.564 576.338,147.564C576.656,147.564 576.918,147.302 576.918,146.984C576.918,146.953 576.915,146.921 576.91,146.89C576.363,143.317 576.877,140.687 578.45,139C580.93,136.35 583.72,137.17 585.43,140.11C586.77,142.417 587.033,145.31 586.22,148.79C586.209,148.835 586.203,148.881 586.203,148.927C586.203,149.239 586.461,149.497 586.773,149.497C586.819,149.497 586.865,149.491 586.91,149.48C589.51,148.85 596.21,146.79 598.41,149.27C601.61,152.87 598.29,157.88 593.97,158.45C593.103,158.563 590.78,158.667 587,158.76C581.593,158.893 576.68,157.26 572.26,153.86C570.833,152.76 569.883,151.6 569.41,150.38C568.78,148.77 569.83,145.78 572.21,146.45C574.603,147.123 575.937,147.49 576.21,147.55ZM572.1,150.46C577.82,157.62 586.25,156.62 594.68,155.69C595.917,155.555 596.85,154.468 596.8,153.22L596.77,152.34C596.733,151.324 595.888,150.509 594.871,150.509C594.663,150.509 594.457,150.543 594.26,150.61C589.2,152.33 583.18,152.88 578.02,151.31C575.573,150.57 573.783,150.02 572.65,149.66C572.603,149.646 572.553,149.639 572.504,149.639C572.224,149.639 571.994,149.869 571.994,150.149C571.994,150.261 572.031,150.371 572.1,150.46Z" style="fill-rule:nonzero;"/>
        <path d="M433.12,151.62C433.129,151.565 433.134,151.509 433.134,151.453C433.134,150.888 432.669,150.423 432.104,150.423C431.833,150.423 431.573,150.53 431.38,150.72L429.37,152.73C429.077,153.022 428.655,153.139 428.26,153.04C426.76,152.68 425.63,150.44 426.8,149.09C428.47,147.17 430.29,145.83 432.89,146.7C435.163,147.453 436.753,149.04 437.66,151.46C438.47,153.64 437.64,155.78 434.74,155.44C433.673,155.314 432.86,154.399 432.86,153.325C432.86,153.206 432.87,153.087 432.89,152.97L433.12,151.62Z" style="fill-rule:nonzero;"/>
        <path d="M572.1,150.46C572.031,150.371 571.994,150.261 571.994,150.149C571.994,149.869 572.224,149.639 572.504,149.639C572.553,149.639 572.603,149.646 572.65,149.66C573.783,150.02 575.573,150.57 578.02,151.31C583.18,152.88 589.2,152.33 594.26,150.61C594.457,150.543 594.663,150.509 594.871,150.509C595.888,150.509 596.733,151.324 596.77,152.34L596.8,153.22C596.85,154.468 595.917,155.555 594.68,155.69C586.25,156.62 577.82,157.62 572.1,150.46Z" style="fill:rgb(180,209,220);fill-rule:nonzero;"/>
        <path d="M513.86,162.01L512.44,159.55C512.286,159.279 511.998,159.114 511.69,159.12C506.86,159.14 503.72,159.81 500.6,157.94C499.54,157.298 499.09,155.975 499.54,154.82L499.55,154.79C499.865,153.975 500.653,153.434 501.527,153.434C501.792,153.434 502.054,153.484 502.3,153.58C506.707,155.3 510.893,155.807 514.86,155.1C519.78,154.227 523.913,153.333 527.26,152.42C527.326,152.403 527.393,152.394 527.461,152.394C527.895,152.394 528.251,152.751 528.251,153.184C528.251,153.339 528.206,153.491 528.12,153.62L527.23,154.96C526.724,155.719 525.986,156.291 525.13,156.59C520.88,158.08 517.3,158.82 515.62,161.89C515.458,162.2 515.405,162.556 515.47,162.9C516.37,167.6 515.85,171.427 513.91,174.38C513.21,175.447 512.29,175.687 511.15,175.1C510.688,174.863 510.375,174.415 510.32,173.91C509.88,170.02 509.72,163.39 513.63,162.54C513.65,162.536 513.669,162.531 513.688,162.523C513.867,162.454 513.956,162.246 513.885,162.062C513.878,162.044 513.87,162.027 513.86,162.01Z" style="fill:rgb(180,209,220);fill-rule:nonzero;"/>
        <path d="M590.33,161.58C590.319,161.551 590.31,161.522 590.304,161.492C590.254,161.216 590.456,160.945 590.752,160.89C590.785,160.884 590.817,160.881 590.85,160.88C591.29,160.867 591.643,161.117 591.91,161.63C593.81,165.29 594.673,169.343 594.5,173.79C594.473,174.526 593.898,175.136 593.16,175.21L591.96,175.33C591.931,175.333 591.903,175.335 591.874,175.335C591.265,175.349 590.753,174.855 590.739,174.241C590.738,174.214 590.739,174.187 590.74,174.16C590.93,170.43 591.54,164.77 590.33,161.58Z" style="fill:rgb(180,209,220);fill-rule:nonzero;"/>
        <path d="M597.03,171.94L596.85,167.59C596.838,167.273 597.079,167.001 597.39,166.98C598.15,166.927 598.51,167.197 598.47,167.79C598.357,169.683 598.017,171.103 597.45,172.05C597.407,172.113 597.336,172.151 597.259,172.151C597.14,172.151 597.04,172.059 597.03,171.94Z" style="fill:white;fill-opacity:0.56;fill-rule:nonzero;"/>
        <path d="M500.647,169.382C503.314,169.92 504.774,174.005 503.882,178.43C502.99,182.856 500.061,186.055 497.393,185.518C494.726,184.98 493.266,180.895 494.158,176.47C495.05,172.044 497.979,168.845 500.647,169.382ZM496.63,181.41L499.83,182.02C499.852,182.024 499.874,182.026 499.896,182.026C500.059,182.026 500.2,181.91 500.23,181.75L500.91,178.17C501.61,174.497 501.339,171.315 500.31,171.12L500.19,171.09C499.16,170.905 497.739,173.769 497.04,177.44L496.36,181.01C496.356,181.032 496.354,181.054 496.354,181.076C496.354,181.239 496.47,181.38 496.63,181.41Z" style="fill-rule:nonzero;"/>
        <path d="M496.63,181.41C496.47,181.38 496.354,181.239 496.354,181.076C496.354,181.054 496.356,181.032 496.36,181.01L497.04,177.44C497.739,173.769 499.16,170.905 500.19,171.09L500.31,171.12C501.339,171.315 501.61,174.497 500.91,178.17L500.23,181.75C500.2,181.91 500.059,182.026 499.896,182.026C499.874,182.026 499.852,182.024 499.83,182.02L496.63,181.41Z" style="fill:rgb(180,209,220);fill-rule:nonzero;"/>
        <path d="M551.2,179.44C552.053,180.533 553.467,181.323 555.44,181.81C555.599,181.85 555.754,181.914 555.9,182L563.99,187.12C564.129,187.206 564.278,187.27 564.43,187.31L568.66,188.51C568.78,190.27 569.227,191.927 570,193.48C570.136,193.748 570.428,193.898 570.72,193.85C574.133,193.29 575.17,191.69 573.83,189.05L576.31,188.72C576.314,188.719 576.318,188.719 576.322,188.718C576.704,188.674 577.054,188.946 577.098,189.322C577.099,189.328 577.099,189.334 577.1,189.34L577.69,195.22C577.691,195.233 577.692,195.247 577.692,195.26C577.692,195.463 577.525,195.63 577.322,195.63C577.321,195.63 577.321,195.63 577.32,195.63L576.04,195.63C575.666,195.629 575.338,195.887 575.25,196.25C575.057,197.017 574.833,198.69 574.58,201.27C574.54,201.643 574.127,202.87 573.34,204.95C573.207,205.302 573.026,205.632 572.8,205.93C570.247,209.397 568.323,213.07 567.03,216.95C566.858,217.458 566.586,217.927 566.23,218.33C564.3,220.47 561.86,224.28 559.18,226.13C559.094,226.183 559.02,226.251 558.96,226.33L554.81,231.78C554.658,231.972 554.536,232.188 554.45,232.42L553.73,234.21C552.897,233.97 552.21,234.317 551.67,235.25L549.16,234.22C549.467,231.693 550.087,229.113 551.02,226.48C551.024,226.469 551.028,226.458 551.032,226.447C551.261,225.859 551.892,225.548 552.428,225.757C552.439,225.761 552.45,225.765 552.46,225.77C552.98,226.003 553.387,226.52 553.68,227.32C553.734,227.458 553.867,227.549 554.015,227.549C554.19,227.549 554.34,227.422 554.37,227.25L555.68,219.34C555.789,218.676 556.369,218.183 557.042,218.183C557.409,218.183 557.761,218.33 558.02,218.59L558.68,219.24C558.778,219.339 558.911,219.395 559.051,219.395C559.281,219.395 559.486,219.242 559.55,219.02C559.79,218.173 560.073,217.323 560.4,216.47C560.727,215.61 561.38,215.463 562.36,216.03C562.453,216.085 562.56,216.113 562.668,216.113C562.966,216.113 563.223,215.895 563.27,215.6C563.56,213.76 563.94,210.72 566.71,211.09C566.715,211.091 566.72,211.091 566.725,211.092C567.063,211.123 567.367,210.875 567.398,210.541C567.399,210.534 567.4,210.527 567.4,210.52L567.74,204.31C567.766,203.764 568.222,203.328 568.769,203.328C568.789,203.328 568.81,203.329 568.83,203.33L569.83,203.38C570.215,203.403 570.553,203.114 570.59,202.73C570.81,200.53 570.547,198.213 569.8,195.78C569.709,195.486 569.398,195.312 569.1,195.39L568.43,195.57C568.058,195.669 567.665,195.508 567.48,195.18L566.33,193.2C566.21,192.986 565.983,192.854 565.738,192.854C565.564,192.854 565.396,192.92 565.27,193.04C564.643,193.633 564.197,193.947 563.93,193.98C563.915,193.982 563.901,193.984 563.886,193.986C562.736,194.119 561.67,193.192 561.525,191.933C561.523,191.919 561.521,191.904 561.52,191.89C561.447,191.163 561.323,190.253 561.15,189.16C561.111,188.919 560.901,188.74 560.656,188.74C560.45,188.74 560.264,188.868 560.19,189.06C559.577,190.68 558.667,191.61 557.46,191.85C557.42,191.858 557.379,191.865 557.338,191.87C556.495,191.978 555.715,191.396 555.61,190.579C555.605,190.54 555.602,190.5 555.6,190.46C555.533,189.047 555.957,187.583 556.87,186.07C556.911,186.004 556.932,185.927 556.932,185.85C556.932,185.619 556.743,185.43 556.512,185.43C556.413,185.43 556.316,185.465 556.24,185.53C554.58,186.89 551.92,189.04 549.77,188.75C548.857,188.623 548.35,188.12 548.25,187.24C548.07,185.59 549.5,184.78 549.88,183.49C549.892,183.451 549.898,183.41 549.898,183.368C549.898,183.133 549.703,182.938 549.468,182.938C549.383,182.938 549.3,182.963 549.23,183.01C546.457,184.85 544.603,186.143 543.67,186.89C542.937,187.477 542.04,187.853 540.98,188.02C540.908,188.032 540.835,188.038 540.762,188.038C540.027,188.038 539.422,187.433 539.422,186.698C539.422,186.625 539.428,186.552 539.44,186.48L539.73,184.73C539.74,184.673 539.736,184.614 539.717,184.56C539.655,184.372 539.446,184.27 539.253,184.334C539.199,184.352 539.151,184.381 539.11,184.42C537.14,186.4 533.81,190.08 530.79,189.63C530.134,189.529 529.645,188.959 529.645,188.296C529.645,188.062 529.705,187.833 529.82,187.63L532.57,182.87C532.581,182.845 532.587,182.818 532.587,182.791C532.587,182.687 532.501,182.601 532.397,182.601C532.35,182.601 532.305,182.619 532.27,182.65C529.863,185.317 527.497,187.903 525.17,190.41C523.963,191.703 522.61,192.09 521.11,191.57C521.065,191.554 521.021,191.536 520.978,191.516C520.349,191.216 520.08,190.448 520.382,189.814C520.403,189.771 520.425,189.73 520.45,189.69C522.083,187.083 522.9,185.777 522.9,185.77C522.9,185.766 522.9,185.762 522.9,185.759C522.9,185.627 522.792,185.519 522.66,185.519C522.601,185.519 522.544,185.541 522.5,185.58C520.787,187.267 519.883,188.183 519.79,188.33C517.7,191.65 515.31,196.15 512.02,198.04C512.005,198.049 511.99,198.057 511.975,198.065C511.162,198.501 510.168,198.25 509.771,197.511C509.764,197.497 509.757,197.484 509.75,197.47C508.93,195.81 510.96,192.84 512.22,190.58C512.236,190.547 512.244,190.512 512.244,190.475C512.244,190.344 512.136,190.235 512.004,190.235C511.938,190.235 511.875,190.262 511.83,190.31L509.1,193.58C508.828,193.899 508.596,194.252 508.41,194.63C506.68,198.17 504.89,202.74 502.33,203.98C501.976,204.152 501.552,204.105 501.24,203.86L499.98,202.86C499.88,202.781 499.755,202.738 499.628,202.738C499.421,202.738 499.231,202.85 499.13,203.03L494.31,211.39C494.146,211.665 494.06,211.979 494.06,212.3L494.1,217.72C494.1,217.721 494.1,217.722 494.1,217.723C494.1,217.997 494.326,218.223 494.6,218.223C494.736,218.223 494.866,218.168 494.96,218.07L497.22,215.81C498.044,214.99 499.394,214.99 500.21,215.81L500.81,216.41C500.817,216.417 500.824,216.424 500.831,216.431C501.683,217.308 501.667,218.728 500.794,219.577C500.786,219.585 500.778,219.592 500.77,219.6C498.277,221.953 496.91,225.243 496.67,229.47C496.669,229.481 496.668,229.492 496.668,229.503C496.668,229.668 496.804,229.803 496.968,229.803C497.085,229.803 497.191,229.735 497.24,229.63L502.42,219.59C502.542,219.354 502.786,219.205 503.051,219.205C503.248,219.205 503.436,219.286 503.57,219.43C505.043,220.99 505.597,222.687 505.23,224.52C505.191,224.723 505.315,224.922 505.51,224.97L505.53,224.97C505.555,224.977 505.58,224.98 505.606,224.98C505.748,224.98 505.872,224.879 505.9,224.74C506.56,221.75 510.18,221.89 510.3,224.68C510.4,227.147 510.483,229.8 510.55,232.64C510.55,232.642 510.55,232.643 510.55,232.645C510.55,232.673 510.572,232.695 510.6,232.695C510.626,232.695 510.647,232.676 510.65,232.65C511.43,229.823 512.773,227.553 514.68,225.84C514.966,225.585 515.336,225.444 515.718,225.444C516.445,225.444 517.08,225.952 517.24,226.66C517.84,229.35 516.97,232.42 515.67,234.93C515.655,234.961 515.647,234.995 515.647,235.029C515.647,235.156 515.751,235.259 515.877,235.259C515.917,235.259 515.956,235.249 515.99,235.23C517.883,234.097 519.897,230.56 522.03,224.62C522.236,224.045 522.784,223.658 523.395,223.658C523.634,223.658 523.869,223.717 524.08,223.83L524.15,223.87C525.042,224.311 525.528,225.305 525.33,226.28L522.7,239.21C522.698,239.224 522.697,239.238 522.697,239.252C522.697,239.4 522.819,239.522 522.967,239.522C523.045,239.522 523.119,239.489 523.17,239.43C526.603,235.13 529.22,230.12 531.02,224.4C531.215,223.756 531.812,223.313 532.484,223.313C533.202,223.313 533.828,223.818 533.98,224.52C534.72,227.8 533.35,232.8 532.51,236.78C532.5,236.816 532.494,236.852 532.494,236.889C532.494,237.103 532.67,237.279 532.884,237.279C533.029,237.279 533.163,237.199 533.23,237.07C535.563,233.377 537.583,228.95 539.29,223.79C539.651,222.696 540.638,222.009 541.56,222.21C542.18,222.343 542.7,222.993 543.12,224.16C543.192,224.35 543.213,224.56 543.18,224.77L541.4,235.52C541.396,235.542 541.393,235.565 541.393,235.587C541.393,235.774 541.547,235.927 541.733,235.927C541.849,235.927 541.958,235.868 542.02,235.77C542.867,234.523 543.48,233.373 543.86,232.32C545.08,228.913 546.407,225.343 547.84,221.61C547.864,221.546 547.893,221.485 547.927,221.426C548.29,220.787 549.118,220.562 549.762,220.928C549.821,220.961 549.877,220.998 549.93,221.04L549.99,221.08C550.789,221.717 551.108,222.816 550.79,223.84L546.91,236.07C544.85,237.863 542.443,239.26 539.69,240.26C539.381,240.372 539.055,240.409 538.74,240.37L537.73,240.25C538.143,238.917 538.207,237.617 537.92,236.35C537.909,236.303 537.889,236.258 537.861,236.217C537.738,236.036 537.491,235.985 537.314,236.105C537.273,236.133 537.238,236.168 537.21,236.21C536.137,237.797 535.67,239.227 535.81,240.5L527.68,241.47C528.38,240.497 528.717,239.137 528.69,237.39C528.69,237.389 528.69,237.388 528.69,237.387C528.69,237.3 528.618,237.227 528.53,237.227C528.472,237.227 528.418,237.259 528.39,237.31L525.94,241.24C524.7,241.3 523.93,240.33 522.68,240.74C521.227,241.22 519.803,241.227 518.41,240.76C516.47,240.1 514.58,240.27 512.69,239.51C512.81,238.937 512.823,238.523 512.73,238.27C512.699,238.19 512.652,238.118 512.592,238.056C512.348,237.804 511.943,237.794 511.694,238.035C511.632,238.096 511.583,238.169 511.55,238.25C511.263,238.937 511.263,239.087 511.55,238.7L501.53,236.86C501.16,234.34 501.34,233.09 501.78,230.89C501.784,230.874 501.786,230.858 501.786,230.841C501.786,230.726 501.691,230.631 501.576,230.631C501.521,230.631 501.469,230.652 501.43,230.69C500.79,231.32 500.89,231.83 499.74,232.55C498.52,233.317 497.623,234.277 497.05,235.43L490.55,233.79C490.353,233.737 490.168,233.638 490.01,233.5L488.03,231.68C487.793,231.463 487.509,231.302 487.2,231.21C484.513,230.403 482.37,228.337 480.77,225.01C480.863,223.99 480.777,222.92 480.51,221.8C480.15,220.32 479.997,219.267 480.05,218.64C480.177,217.067 480.297,215.493 480.41,213.92C480.422,213.795 480.334,213.68 480.21,213.66L480.2,213.66C480.06,213.641 479.93,213.736 479.91,213.87C479.45,216.65 478.337,219.117 476.57,221.27C475.543,221.057 474.55,220.447 473.59,219.44C474.117,219.393 474.557,218.88 474.91,217.9C477.53,210.61 478.51,206.46 481.48,201.5C481.496,201.473 481.514,201.446 481.532,201.42C481.97,200.79 482.824,200.613 483.423,201.03C483.446,201.046 483.468,201.063 483.49,201.08C484.017,201.5 484.283,202.147 484.29,203.02C484.317,207.013 484.027,212.403 483.42,219.19C483.36,219.87 483.51,220.95 483.6,221.75C483.609,221.814 483.664,221.863 483.729,221.863C483.782,221.863 483.831,221.83 483.85,221.78C485.243,217.08 486.13,213.963 486.51,212.43C487.84,207.06 490.64,199.76 493.17,196.14C493.372,195.851 493.703,195.678 494.055,195.678C494.648,195.678 495.135,196.166 495.135,196.758C495.135,196.819 495.13,196.88 495.12,196.94L494.5,200.71C494.49,200.746 494.485,200.783 494.485,200.82C494.485,201.045 494.67,201.23 494.895,201.23C495.079,201.23 495.241,201.107 495.29,200.93C496.803,197.19 499.097,193.26 502.17,189.14C503.077,187.92 504.04,187.59 505.06,188.15C505.348,188.306 505.712,188.23 505.92,187.97L509.26,183.75C509.436,183.529 509.702,183.4 509.98,183.4C510.66,183.407 511.247,183.753 511.74,184.44C511.757,184.464 511.775,184.487 511.794,184.509C512.154,184.937 512.806,184.99 513.238,184.626C513.26,184.608 513.28,184.59 513.3,184.57L518.58,179.29C518.867,179.002 519.257,178.841 519.663,178.841C520.152,178.841 520.612,179.075 520.9,179.47L521.83,180.75C521.948,180.914 522.139,181.012 522.341,181.012C522.548,181.012 522.742,180.91 522.86,180.74C524.593,178.26 526.643,177.06 529.01,177.14C529.097,177.144 529.182,177.157 529.266,177.179C529.903,177.346 530.291,178.003 530.125,178.634C530.103,178.719 530.071,178.802 530.03,178.88L528.79,181.28C528.785,181.292 528.783,181.304 528.783,181.317C528.783,181.372 528.828,181.417 528.883,181.417C528.896,181.417 528.908,181.415 528.92,181.41C529.64,181.05 530.02,180.847 530.06,180.8C531.32,179.387 532.863,178.123 534.69,177.01C535.79,176.33 536.39,175.55 537.86,175.94C537.93,175.959 537.999,175.983 538.066,176.011C538.932,176.373 539.334,177.412 538.957,178.313C538.928,178.38 538.896,178.446 538.86,178.51C537.833,180.317 537.273,181.453 537.18,181.92C537.174,181.947 537.174,181.974 537.181,182C537.206,182.09 537.305,182.142 537.4,182.116C537.426,182.109 537.45,182.097 537.47,182.08L543.3,176.94C543.74,176.551 544.324,176.362 544.91,176.42C546.063,176.527 546.753,177.19 546.98,178.41C547.063,178.838 546.973,179.281 546.73,179.64L545.46,181.57C545.427,181.617 545.409,181.673 545.409,181.731C545.409,181.884 545.536,182.011 545.689,182.011C545.747,182.011 545.803,181.993 545.85,181.96C547.81,180.667 549.593,179.827 551.2,179.44ZM492.35,210.99C492.31,211.137 492.327,211.33 492.4,211.57C492.422,211.658 492.503,211.721 492.594,211.721C492.689,211.721 492.771,211.653 492.79,211.56C492.843,211.307 492.837,211.12 492.77,211C492.754,210.975 492.735,210.951 492.712,210.932C492.608,210.842 492.461,210.839 492.385,210.927C492.37,210.945 492.358,210.966 492.35,210.99ZM489.62,215.78L489.27,222.12C489.269,222.133 489.269,222.146 489.269,222.158C489.269,222.504 489.553,222.788 489.899,222.788C489.95,222.788 490.001,222.782 490.05,222.77C490.603,222.637 491,222.367 491.24,221.96C491.33,221.807 491.355,221.624 491.31,221.45L489.78,215.77C489.777,215.728 489.742,215.695 489.7,215.695C489.656,215.695 489.62,215.731 489.62,215.775C489.62,215.777 489.62,215.778 489.62,215.78ZM492.27,223.3C490.21,224.73 487.34,228.57 488.8,231.03C488.921,231.24 489.146,231.369 489.388,231.369C489.601,231.369 489.802,231.269 489.93,231.1C491.463,229.073 492.383,226.557 492.69,223.55C492.691,223.541 492.691,223.532 492.691,223.524C492.691,223.376 492.569,223.254 492.421,223.254C492.367,223.254 492.315,223.27 492.27,223.3ZM506.71,237.19L506.39,233.33C506.385,233.252 506.319,233.19 506.24,233.19C506.237,233.19 506.233,233.19 506.23,233.19L506.16,233.19C505.46,233.249 504.955,234.142 505.04,235.17L505.07,235.59C505.07,235.59 505.07,235.591 505.07,235.591C505.155,236.619 505.8,237.418 506.5,237.36C506.5,237.36 506.57,237.35 506.57,237.35C506.648,237.345 506.71,237.279 506.71,237.2C506.71,237.197 506.71,237.193 506.71,237.19ZM518.84,240.73C519.333,240.783 519.593,240.607 519.62,240.2C519.74,238.293 519.613,237.317 519.24,237.27C518.867,237.23 518.523,238.153 518.21,240.04C518.143,240.44 518.353,240.67 518.84,240.73Z" style="fill:rgb(47,47,45);fill-rule:nonzero;"/>
        <path d="M458.15,191.89L454.5,184L459.31,179.92C459.357,179.879 459.415,179.853 459.476,179.845C459.65,179.823 459.812,179.952 459.835,180.132C459.843,180.193 459.834,180.254 459.81,180.31C457.997,184.183 457.443,188.043 458.15,191.89Z" style="fill:white;fill-opacity:0.56;fill-rule:nonzero;"/>
        <path d="M549.16,234.22C548.673,235.32 547.923,235.937 546.91,236.07L550.79,223.84C551.108,222.816 550.789,221.717 549.99,221.08L549.93,221.04C549.877,220.998 549.821,220.961 549.762,220.928C549.118,220.562 548.29,220.787 547.927,221.426C547.893,221.485 547.864,221.546 547.84,221.61C546.407,225.343 545.08,228.913 543.86,232.32C543.48,233.373 542.867,234.523 542.02,235.77C541.958,235.868 541.849,235.927 541.733,235.927C541.547,235.927 541.393,235.774 541.393,235.587C541.393,235.565 541.396,235.542 541.4,235.52L543.18,224.77C543.213,224.56 543.192,224.35 543.12,224.16C542.7,222.993 542.18,222.343 541.56,222.21C540.638,222.009 539.651,222.696 539.29,223.79C537.583,228.95 535.563,233.377 533.23,237.07C533.163,237.199 533.029,237.279 532.884,237.279C532.67,237.279 532.494,237.103 532.494,236.889C532.494,236.852 532.5,236.816 532.51,236.78C533.35,232.8 534.72,227.8 533.98,224.52C533.828,223.818 533.202,223.313 532.484,223.313C531.812,223.313 531.215,223.756 531.02,224.4C529.22,230.12 526.603,235.13 523.17,239.43C523.119,239.489 523.045,239.522 522.967,239.522C522.819,239.522 522.697,239.4 522.697,239.252C522.697,239.238 522.698,239.224 522.7,239.21L525.33,226.28C525.528,225.305 525.042,224.311 524.15,223.87L524.08,223.83C523.869,223.717 523.634,223.658 523.395,223.658C522.784,223.658 522.236,224.045 522.03,224.62C519.897,230.56 517.883,234.097 515.99,235.23C515.956,235.249 515.917,235.259 515.877,235.259C515.751,235.259 515.647,235.156 515.647,235.029C515.647,234.995 515.655,234.961 515.67,234.93C516.97,232.42 517.84,229.35 517.24,226.66C517.08,225.952 516.445,225.444 515.718,225.444C515.336,225.444 514.966,225.585 514.68,225.84C512.773,227.553 511.43,229.823 510.65,232.65C510.647,232.676 510.626,232.695 510.6,232.695C510.572,232.695 510.55,232.673 510.55,232.645C510.55,232.643 510.55,232.642 510.55,232.64C510.483,229.8 510.4,227.147 510.3,224.68C510.18,221.89 506.56,221.75 505.9,224.74C505.872,224.879 505.748,224.98 505.606,224.98C505.58,224.98 505.555,224.977 505.53,224.97L505.51,224.97C505.315,224.922 505.191,224.723 505.23,224.52C505.597,222.687 505.043,220.99 503.57,219.43C503.436,219.286 503.248,219.205 503.051,219.205C502.786,219.205 502.542,219.354 502.42,219.59L497.24,229.63C497.191,229.735 497.085,229.803 496.968,229.803C496.804,229.803 496.668,229.668 496.668,229.503C496.668,229.492 496.669,229.481 496.67,229.47C496.91,225.243 498.277,221.953 500.77,219.6C500.778,219.592 500.786,219.585 500.794,219.577C501.667,218.728 501.683,217.308 500.831,216.431C500.824,216.424 500.817,216.417 500.81,216.41L500.21,215.81C499.394,214.99 498.044,214.99 497.22,215.81L494.96,218.07C494.866,218.168 494.736,218.223 494.6,218.223C494.326,218.223 494.1,217.997 494.1,217.723C494.1,217.722 494.1,217.721 494.1,217.72L494.06,212.3C494.06,211.979 494.146,211.665 494.31,211.39L499.13,203.03C499.231,202.85 499.421,202.738 499.628,202.738C499.755,202.738 499.88,202.781 499.98,202.86L501.24,203.86C501.552,204.105 501.976,204.152 502.33,203.98C504.89,202.74 506.68,198.17 508.41,194.63C508.596,194.252 508.828,193.899 509.1,193.58L511.83,190.31C511.875,190.262 511.938,190.235 512.004,190.235C512.136,190.235 512.244,190.344 512.244,190.475C512.244,190.512 512.236,190.547 512.22,190.58C510.96,192.84 508.93,195.81 509.75,197.47C509.757,197.484 509.764,197.497 509.771,197.511C510.168,198.25 511.162,198.501 511.975,198.065C511.99,198.057 512.005,198.049 512.02,198.04C515.31,196.15 517.7,191.65 519.79,188.33C519.883,188.183 520.787,187.267 522.5,185.58C522.544,185.541 522.601,185.519 522.66,185.519C522.792,185.519 522.9,185.627 522.9,185.759C522.9,185.762 522.9,185.766 522.9,185.77C522.9,185.777 522.083,187.083 520.45,189.69C520.425,189.73 520.403,189.771 520.382,189.814C520.08,190.448 520.349,191.216 520.978,191.516C521.021,191.536 521.065,191.554 521.11,191.57C522.61,192.09 523.963,191.703 525.17,190.41C527.497,187.903 529.863,185.317 532.27,182.65C532.305,182.619 532.35,182.601 532.397,182.601C532.501,182.601 532.587,182.687 532.587,182.791C532.587,182.818 532.581,182.845 532.57,182.87L529.82,187.63C529.705,187.833 529.645,188.062 529.645,188.296C529.645,188.959 530.134,189.529 530.79,189.63C533.81,190.08 537.14,186.4 539.11,184.42C539.151,184.381 539.199,184.352 539.253,184.334C539.446,184.27 539.655,184.372 539.717,184.56C539.736,184.614 539.74,184.673 539.73,184.73L539.44,186.48C539.428,186.552 539.422,186.625 539.422,186.698C539.422,187.433 540.027,188.038 540.762,188.038C540.835,188.038 540.908,188.032 540.98,188.02C542.04,187.853 542.937,187.477 543.67,186.89C544.603,186.143 546.457,184.85 549.23,183.01C549.3,182.963 549.383,182.938 549.468,182.938C549.703,182.938 549.898,183.133 549.898,183.368C549.898,183.41 549.892,183.451 549.88,183.49C549.5,184.78 548.07,185.59 548.25,187.24C548.35,188.12 548.857,188.623 549.77,188.75C551.92,189.04 554.58,186.89 556.24,185.53C556.316,185.465 556.413,185.43 556.512,185.43C556.743,185.43 556.932,185.619 556.932,185.85C556.932,185.927 556.911,186.004 556.87,186.07C555.957,187.583 555.533,189.047 555.6,190.46C555.602,190.5 555.605,190.54 555.61,190.579C555.715,191.396 556.495,191.978 557.338,191.87C557.379,191.865 557.42,191.858 557.46,191.85C558.667,191.61 559.577,190.68 560.19,189.06C560.264,188.868 560.45,188.74 560.656,188.74C560.901,188.74 561.111,188.919 561.15,189.16C561.323,190.253 561.447,191.163 561.52,191.89C561.521,191.904 561.523,191.919 561.525,191.933C561.67,193.192 562.736,194.119 563.886,193.986C563.901,193.984 563.915,193.982 563.93,193.98C564.197,193.947 564.643,193.633 565.27,193.04C565.396,192.92 565.564,192.854 565.738,192.854C565.983,192.854 566.21,192.986 566.33,193.2L567.48,195.18C567.665,195.508 568.058,195.669 568.43,195.57L569.1,195.39C569.398,195.312 569.709,195.486 569.8,195.78C570.547,198.213 570.81,200.53 570.59,202.73C570.553,203.114 570.215,203.403 569.83,203.38L568.83,203.33C568.81,203.329 568.789,203.328 568.769,203.328C568.222,203.328 567.766,203.764 567.74,204.31L567.4,210.52C567.4,210.527 567.399,210.534 567.398,210.541C567.367,210.875 567.063,211.123 566.725,211.092C566.72,211.091 566.715,211.091 566.71,211.09C563.94,210.72 563.56,213.76 563.27,215.6C563.223,215.895 562.966,216.113 562.668,216.113C562.56,216.113 562.453,216.085 562.36,216.03C561.38,215.463 560.727,215.61 560.4,216.47C560.073,217.323 559.79,218.173 559.55,219.02C559.486,219.242 559.281,219.395 559.051,219.395C558.911,219.395 558.778,219.339 558.68,219.24L558.02,218.59C557.761,218.33 557.409,218.183 557.042,218.183C556.369,218.183 555.789,218.676 555.68,219.34L554.37,227.25C554.34,227.422 554.19,227.549 554.015,227.549C553.867,227.549 553.734,227.458 553.68,227.32C553.387,226.52 552.98,226.003 552.46,225.77C552.45,225.765 552.439,225.761 552.428,225.757C551.892,225.548 551.261,225.859 551.032,226.447C551.028,226.458 551.024,226.469 551.02,226.48C550.087,229.113 549.467,231.693 549.16,234.22ZM560.84,210.12L561.1,209.98C562.087,209.41 562.597,208.259 562.36,207.14C561.48,203.047 559.533,199.833 556.52,197.5C548.06,190.96 535.48,192.5 525.82,196.13C516.76,199.54 509.65,203.57 504.1,210.89C504.1,210.89 504.099,210.891 504.099,210.891C503.428,211.779 503.609,213.065 504.5,213.74L504.52,213.75C505.461,214.448 506.804,214.269 507.53,213.35C509.877,210.377 511.46,208.593 512.28,208C517.827,204 523.95,200.97 530.65,198.91C540.97,195.73 556.33,196.16 558.87,209.23C558.994,209.849 559.543,210.299 560.174,210.299C560.408,210.299 560.638,210.237 560.84,210.12ZM547.35,206.66C546.93,203.8 543.85,203.38 541.21,203.22C536.097,202.913 531.27,204.257 526.73,207.25C526.304,207.531 526.046,208.009 526.046,208.519C526.046,208.818 526.135,209.111 526.3,209.36L526.33,209.41C526.812,210.135 527.786,210.364 528.54,209.93C533.67,206.93 540.21,205.49 545.74,207.89C545.886,207.953 546.043,207.986 546.202,207.986C546.838,207.986 547.362,207.462 547.362,206.826C547.362,206.77 547.358,206.715 547.35,206.66Z" style="fill:rgb(253,253,253);fill-rule:nonzero;"/>
        <path d="M573.83,189.05C575.17,191.69 574.133,193.29 570.72,193.85C570.428,193.898 570.136,193.748 570,193.48C569.227,191.927 568.78,190.27 568.66,188.51L573.83,189.05Z" style="fill:rgb(253,253,253);fill-rule:nonzero;"/>
        <path d="M558.87,209.23C556.33,196.16 540.97,195.73 530.65,198.91C523.95,200.97 517.827,204 512.28,208C511.46,208.593 509.877,210.377 507.53,213.35C506.804,214.269 505.461,214.448 504.52,213.75L504.5,213.74C503.609,213.065 503.428,211.779 504.099,210.891C504.099,210.891 504.1,210.89 504.1,210.89C509.65,203.57 516.76,199.54 525.82,196.13C535.48,192.5 548.06,190.96 556.52,197.5C559.533,199.833 561.48,203.047 562.36,207.14C562.597,208.259 562.087,209.41 561.1,209.98L560.84,210.12C560.638,210.237 560.408,210.299 560.174,210.299C559.543,210.299 558.994,209.849 558.87,209.23Z" style="fill-rule:nonzero;"/>
        <path d="M460.07,197.75C459.057,196.423 458.627,195.033 458.78,193.58C460.06,193.713 460.473,194.723 460.02,196.61C459.984,196.749 459.988,196.896 460.032,197.033C460.16,197.435 460.601,197.659 461.009,197.529C461.145,197.486 461.266,197.406 461.36,197.3L463.03,195.38C463.116,195.255 463.258,195.18 463.41,195.18C463.663,195.18 463.87,195.387 463.87,195.64C463.87,195.733 463.842,195.823 463.79,195.9C462.797,197.8 461.557,198.417 460.07,197.75Z" style="fill:rgb(122,127,112);fill-rule:nonzero;"/>
        <path d="M547.35,206.66C547.358,206.715 547.362,206.77 547.362,206.826C547.362,207.462 546.838,207.986 546.202,207.986C546.043,207.986 545.886,207.953 545.74,207.89C540.21,205.49 533.67,206.93 528.54,209.93C527.786,210.364 526.812,210.135 526.33,209.41L526.3,209.36C526.135,209.111 526.046,208.818 526.046,208.519C526.046,208.009 526.304,207.531 526.73,207.25C531.27,204.257 536.097,202.913 541.21,203.22C543.85,203.38 546.93,203.8 547.35,206.66Z" style="fill-rule:nonzero;"/>
        <path d="M492.45,341.02C492.09,341.433 491.39,341.383 490.35,340.87C490.015,340.699 489.641,340.613 489.26,340.62L426.74,341C427.513,333.82 428.283,326.76 429.05,319.82C429.71,313.8 430.94,308.23 431.72,302.72C431.785,302.247 432.193,301.891 432.67,301.89L437.13,301.89C438.188,301.89 439.099,301.12 439.27,300.08C441.42,287.15 443.8,274.96 448.59,263.38C448.91,262.607 448.803,262 448.27,261.56C448.244,261.539 448.218,261.518 448.191,261.499C447.575,261.058 446.719,261.184 446.295,261.777C446.275,261.804 446.257,261.832 446.24,261.86C444.593,264.56 443.303,267.32 442.37,270.14C439.537,278.72 437.417,287.84 436.01,297.5C435.944,297.939 435.549,298.261 435.1,298.24C422.413,297.46 410.213,294.503 398.5,289.37C398.222,289.247 398.082,288.928 398.18,288.64C402.22,276.887 406.187,266.463 410.08,257.37C413.693,248.937 417.82,241.877 422.46,236.19C426.58,231.143 431.51,225.917 437.25,220.51C442.8,215.29 449.83,210.16 457.24,208.45C457.276,208.441 457.312,208.437 457.349,208.437C457.596,208.437 457.799,208.64 457.799,208.887C457.799,208.994 457.76,209.098 457.69,209.18C448.39,220.53 460.37,229.74 468.19,236.6C469.9,238.1 471.27,241.25 471.8,243.98C472.8,249.19 472.88,258.06 480.23,258.19C486.28,258.31 489.99,254.87 491.63,249.38C492.83,245.41 494.69,244.11 498.16,241.66C498.173,241.651 498.187,241.642 498.201,241.634C498.508,241.453 498.908,241.553 499.086,241.855C499.095,241.87 499.103,241.885 499.11,241.9C499.537,242.773 500.053,244.337 500.66,246.59C501.733,250.537 502.82,256.877 503.92,265.61C505.49,278 506.97,286.2 509.51,295.57C509.594,295.89 509.436,296.224 509.14,296.35C503.833,298.663 498.173,300.37 492.16,301.47C492.147,301.472 492.133,301.474 492.12,301.475C491.939,301.486 491.781,301.341 491.77,301.155C491.77,301.143 491.77,301.132 491.77,301.12C492.54,289.63 493.26,280.01 495.62,268.68C495.713,268.227 495.647,267.84 495.42,267.52C495.373,267.455 495.321,267.394 495.264,267.338C494.75,266.835 493.936,266.821 493.46,267.307C493.408,267.36 493.361,267.418 493.32,267.48C492.453,268.807 491.84,270.31 491.48,271.99C486.93,293.34 487.62,316.77 491.23,337.98C491.423,339.127 491.83,340.14 492.45,341.02Z" style="fill:rgb(249,211,142);fill-rule:nonzero;"/>
        <path d="M492.35,210.99C492.358,210.966 492.37,210.945 492.385,210.927C492.461,210.839 492.608,210.842 492.712,210.932C492.735,210.951 492.754,210.975 492.77,211C492.837,211.12 492.843,211.307 492.79,211.56C492.771,211.653 492.689,211.721 492.594,211.721C492.503,211.721 492.422,211.658 492.4,211.57C492.327,211.33 492.31,211.137 492.35,210.99Z" style="fill:rgb(122,127,112);fill-rule:nonzero;"/>
        <path d="M467.51,214.02C466.697,213.62 466.457,213.053 466.79,212.32C466.843,211.687 467.177,211.36 467.79,211.34C468.099,211.334 468.364,211.572 468.39,211.88C468.463,212.66 468.17,213.373 467.51,214.02Z" style="fill:white;fill-opacity:0.56;fill-rule:nonzero;"/>
        <path d="M494.17,238.29C494.222,238.298 494.273,238.313 494.321,238.336C494.573,238.457 494.682,238.761 494.563,239.008C494.54,239.057 494.508,239.101 494.47,239.14L489.88,243.9C489.715,244.071 489.586,244.275 489.5,244.5C487.76,249.15 487.05,253.87 481.16,254.58C478.76,254.867 477.247,253.45 476.62,250.33C475.57,245.18 475.82,239.28 471.31,234.48C469.71,232.773 467.417,230.667 464.43,228.16C462.743,226.747 460.95,224.49 459.05,221.39C458.055,219.76 457.828,217.772 458.43,215.96L459.49,212.75C459.66,212.229 460.149,211.874 460.697,211.874C461.183,211.874 461.628,212.153 461.84,212.59L465.85,220.79C466.026,221.154 466.369,221.411 466.77,221.48C473.24,222.6 476.42,227.56 481.22,233.18C482.427,234.6 484.673,236.033 487.96,237.48C488.053,237.52 488.15,237.547 488.25,237.56L494.17,238.29Z" style="fill:rgb(253,253,253);fill-rule:nonzero;"/>
        <path d="M480.77,225.01C479.003,224.103 477.603,222.857 476.57,221.27C478.337,219.117 479.45,216.65 479.91,213.87C479.93,213.736 480.06,213.641 480.2,213.66L480.21,213.66C480.334,213.68 480.422,213.795 480.41,213.92C480.297,215.493 480.177,217.067 480.05,218.64C479.997,219.267 480.15,220.32 480.51,221.8C480.777,222.92 480.863,223.99 480.77,225.01Z" style="fill:rgb(253,253,253);fill-rule:nonzero;"/>
        <path d="M489.78,215.77L491.31,221.45C491.355,221.624 491.33,221.807 491.24,221.96C491,222.367 490.603,222.637 490.05,222.77C490.001,222.782 489.95,222.788 489.899,222.788C489.553,222.788 489.269,222.504 489.269,222.158C489.269,222.146 489.269,222.133 489.27,222.12L489.62,215.78C489.62,215.778 489.62,215.777 489.62,215.775C489.62,215.731 489.656,215.695 489.7,215.695C489.742,215.695 489.777,215.728 489.78,215.77Z" style="fill:rgb(253,253,253);fill-rule:nonzero;"/>
        <path d="M492.27,223.3C492.315,223.27 492.367,223.254 492.421,223.254C492.569,223.254 492.691,223.376 492.691,223.524C492.691,223.532 492.691,223.541 492.69,223.55C492.383,226.557 491.463,229.073 489.93,231.1C489.802,231.269 489.601,231.369 489.388,231.369C489.146,231.369 488.921,231.24 488.8,231.03C487.34,228.57 490.21,224.73 492.27,223.3Z" style="fill:rgb(253,253,253);fill-rule:nonzero;"/>
        <path d="M501.53,236.86L497.05,235.43C497.623,234.277 498.52,233.317 499.74,232.55C500.89,231.83 500.79,231.32 501.43,230.69C501.469,230.652 501.521,230.631 501.576,230.631C501.691,230.631 501.786,230.726 501.786,230.841C501.786,230.858 501.784,230.874 501.78,230.89C501.34,233.09 501.16,234.34 501.53,236.86Z" style="fill:rgb(253,253,253);fill-rule:nonzero;"/>
        <path d="M506.71,237.19C506.71,237.193 506.71,237.197 506.71,237.2C506.71,237.279 506.648,237.345 506.57,237.35C506.57,237.35 506.5,237.36 506.5,237.36C505.8,237.418 505.155,236.619 505.07,235.591C505.07,235.591 505.07,235.59 505.07,235.59L505.04,235.17C504.955,234.142 505.46,233.249 506.16,233.19L506.23,233.19C506.233,233.19 506.237,233.19 506.24,233.19C506.319,233.19 506.385,233.252 506.39,233.33L506.71,237.19Z" style="fill:rgb(253,253,253);fill-rule:nonzero;"/>
        <path d="M553.73,234.21C552.71,236.09 552.023,236.437 551.67,235.25C552.21,234.317 552.897,233.97 553.73,234.21Z" style="fill:rgb(180,209,220);fill-rule:nonzero;"/>
        <path d="M537.73,240.25L535.81,240.5C535.67,239.227 536.137,237.797 537.21,236.21C537.238,236.168 537.273,236.133 537.314,236.105C537.491,235.985 537.738,236.036 537.861,236.217C537.889,236.258 537.909,236.303 537.92,236.35C538.207,237.617 538.143,238.917 537.73,240.25Z" style="fill:rgb(253,253,253);fill-rule:nonzero;"/>
        <path d="M527.68,241.47C526.893,241.497 526.313,241.42 525.94,241.24L528.39,237.31C528.418,237.259 528.472,237.227 528.53,237.227C528.618,237.227 528.69,237.3 528.69,237.387C528.69,237.388 528.69,237.389 528.69,237.39C528.717,239.137 528.38,240.497 527.68,241.47Z" style="fill:rgb(253,253,253);fill-rule:nonzero;"/>
        <path d="M519.24,237.27C519.613,237.317 519.74,238.293 519.62,240.2C519.593,240.607 519.333,240.783 518.84,240.73C518.353,240.67 518.143,240.44 518.21,240.04C518.523,238.153 518.867,237.23 519.24,237.27Z" style="fill:rgb(253,253,253);fill-rule:nonzero;"/>
        <path d="M512.69,239.51C511.87,239.523 511.49,239.253 511.55,238.7C511.263,239.087 511.263,238.937 511.55,238.25C511.583,238.169 511.632,238.096 511.694,238.035C511.943,237.794 512.348,237.804 512.592,238.056C512.652,238.118 512.699,238.19 512.73,238.27C512.823,238.523 512.81,238.937 512.69,239.51Z" style="fill:rgb(180,209,220);fill-rule:nonzero;"/>
        <path d="M423.12,340.65L397.67,340.9C398.68,325.91 401.53,311.12 404.58,296.37C404.616,296.2 404.768,296.077 404.942,296.077C404.986,296.077 405.029,296.085 405.07,296.1C412.49,298.84 420.167,300.59 428.1,301.35C428.106,301.35 428.111,301.351 428.117,301.352C428.263,301.374 428.365,301.517 428.342,301.669C428.341,301.673 428.341,301.676 428.34,301.68C425.827,314.527 424.087,327.517 423.12,340.65Z" style="fill:rgb(253,253,253);fill-rule:nonzero;"/>
        <path d="M513.21,340.67C513.043,340.85 512.933,341.047 512.88,341.26C511.633,340.887 510.673,340.693 510,340.68C505.093,340.56 500.3,340.63 495.62,340.89C493.587,329.29 492.337,317.757 491.87,306.29C491.86,305.987 492.063,305.713 492.36,305.63L504.08,302.46C504.09,302.457 504.1,302.455 504.11,302.453C504.342,302.408 504.57,302.567 504.616,302.804C504.617,302.812 504.619,302.821 504.62,302.83C505.913,315.457 508.603,327.79 512.69,339.83C512.837,340.263 513.01,340.543 513.21,340.67Z" style="fill:rgb(253,253,253);fill-rule:nonzero;"/>
        <path d="M513.21,340.67C513.637,340.877 514.077,341.003 514.53,341.05C514.537,341.457 514.35,341.687 513.97,341.74C513.51,341.807 513.147,341.647 512.88,341.26C512.933,341.047 513.043,340.85 513.21,340.67Z" style="fill:rgb(249,211,142);fill-rule:nonzero;"/>
    </g>
</svg>
