<?xml version="1.0" encoding="UTF-8" standalone="no"?>
<!DOCTYPE svg PUBLIC "-//W3C//DTD SVG 1.1//EN" "http://www.w3.org/Graphics/SVG/1.1/DTD/svg11.dtd">
<svg width="100%" height="100%" viewBox="0 0 224 315" version="1.1" xmlns="http://www.w3.org/2000/svg" xmlns:xlink="http://www.w3.org/1999/xlink" xml:space="preserve" xmlns:serif="http://www.serif.com/" style="fill-rule:evenodd;clip-rule:evenodd;stroke-linejoin:round;stroke-miterlimit:2;">
    <g transform="matrix(1,0,0,1,-51.55,-26.4795)">
        <path d="M181.29,340.76C177.237,328.087 174.603,315.223 173.39,302.17C173.363,301.917 173.147,301.723 172.893,301.723C172.837,301.723 172.782,301.732 172.73,301.75C167.97,303.383 163.117,304.51 158.17,305.13C157.877,305.166 157.657,305.425 157.67,305.72C158.3,317.67 159.29,326.99 161.83,340.91C159.997,341.083 158.683,340.967 157.89,340.56C156.623,334.66 155.703,328.803 155.13,322.99C153.24,303.84 152.79,284.29 157.46,265.91C157.705,264.949 158.393,264.161 159.31,263.79L159.6,263.68C159.704,263.638 159.815,263.617 159.927,263.617C160.41,263.617 160.807,264.014 160.807,264.497C160.807,264.555 160.801,264.613 160.79,264.67C158.35,276.89 157.263,289.01 157.53,301.03C157.536,301.294 157.755,301.508 158.02,301.508C158.05,301.508 158.08,301.506 158.11,301.5C165.257,300.187 172.357,298.04 179.41,295.06C179.41,295.06 179.41,295.06 179.411,295.06C179.658,294.956 179.775,294.663 179.67,294.41C178.93,292.603 178.323,290.773 177.85,288.92C174.63,276.23 173.34,264.02 170.2,249.34C170.111,248.922 169.753,248.613 169.33,248.59L167.34,248.49C166.712,248.457 166.213,247.931 166.213,247.302C166.213,247.158 166.239,247.015 166.29,246.88L167.18,244.52C167.315,244.166 167.153,243.762 166.81,243.6C165.24,242.85 163.65,244.34 162.52,245.6C162.271,245.875 161.925,246.041 161.56,246.06C160.7,246.113 159.92,245.84 159.22,245.24C159,245.051 158.878,244.77 158.89,244.48L158.98,242.86C158.981,242.849 158.981,242.838 158.981,242.827C158.981,242.509 158.719,242.247 158.401,242.247C158.346,242.247 158.292,242.255 158.24,242.27C155.19,243.13 153.62,249.43 152.78,251.21C151.2,254.597 148.673,256.74 145.2,257.64C133.72,260.62 134.05,245.98 132.41,239.82C131.75,237.32 130.893,235.507 129.84,234.38C123.93,228.08 117.69,223.9 116.36,214.77C115.907,211.71 116.053,209.527 116.8,208.22C119.347,203.753 120.68,201.397 120.8,201.15C120.87,201.001 120.906,200.839 120.906,200.675C120.906,200.061 120.4,199.555 119.786,199.555C119.75,199.555 119.715,199.557 119.68,199.56C108.96,200.57 97.61,210.33 90.9,217.66C83.6,225.63 78.44,231.59 74.13,240.13C66.43,255.4 61.11,272.44 55.8,288.55C55.643,289.036 55.877,289.566 56.34,289.77C69.353,295.557 82.687,298.377 96.34,298.23C96.794,298.226 97.174,297.867 97.21,297.41C97.85,289.063 99.24,280.8 101.38,272.62C103.053,266.22 104.74,261.233 106.44,257.66C106.771,256.961 107.577,256.61 108.32,256.84L108.36,256.86C108.924,257.035 109.31,257.559 109.31,258.15C109.31,258.296 109.287,258.441 109.24,258.58C104.887,271.62 102.003,285.097 100.59,299.01C100.417,300.73 99.563,301.63 98.03,301.71C96.677,301.783 94.927,301.9 92.78,302.06C92.365,302.088 92.028,302.416 91.99,302.83L87.98,340.76C86.113,341.04 84.95,340.97 84.49,340.55C85.077,327.47 86.463,314.73 88.65,302.33C88.654,302.306 88.656,302.283 88.656,302.259C88.656,302.036 88.482,301.848 88.26,301.83C79.473,301.177 71.1,299.35 63.14,296.35C63.131,296.347 63.122,296.344 63.113,296.341C62.981,296.306 62.842,296.39 62.805,296.528C62.803,296.535 62.801,296.543 62.8,296.55C60.393,311.163 58.493,325.877 57.1,340.69C56.14,341.097 55.11,341.187 54.01,340.96C53.699,340.896 53.483,340.606 53.51,340.29C54.637,325.337 56.563,310.507 59.29,295.8C59.35,295.462 59.183,295.123 58.88,294.97L52.81,291.84C51.804,291.32 51.315,290.139 51.66,289.06C55.153,278.153 58.08,269.343 60.44,262.63C64.227,251.883 67.893,243.37 71.44,237.09C77.053,227.157 84.557,217.86 93.95,209.2C101.323,202.4 109.187,198.033 117.54,196.1C117.544,196.099 117.548,196.098 117.552,196.097C117.919,196.005 118.146,195.631 118.055,195.27C118.054,195.263 118.052,195.256 118.05,195.25L116.68,190.19C116.564,189.763 116.167,189.471 115.73,189.49C115.077,189.523 114.5,189.783 114,190.27C113.912,190.356 113.809,190.426 113.697,190.477C113.183,190.711 112.576,190.501 112.353,190.012C112.304,189.905 112.276,189.789 112.27,189.67C112.197,188.237 112.157,187.467 112.15,187.36C112.123,187.058 111.866,186.823 111.562,186.823C111.475,186.823 111.389,186.843 111.31,186.88C110.463,187.3 109.75,187.447 109.17,187.32C108.834,187.245 108.558,187.004 108.44,186.68C107.927,185.247 108.07,183.843 108.87,182.47C108.901,182.417 108.918,182.357 108.918,182.296C108.918,182.11 108.764,181.956 108.578,181.956C108.527,181.956 108.476,181.968 108.43,181.99C107.29,182.53 106.323,182.643 105.53,182.33C105.186,182.197 104.959,181.862 104.96,181.49C104.973,179.35 105.643,177.343 106.97,175.47C106.972,175.467 106.974,175.464 106.976,175.461C107.29,175.011 107.182,174.385 106.736,174.074C106.734,174.073 106.732,174.071 106.73,174.07C103.377,171.757 100.78,170.01 98.94,168.83C90.927,163.69 86.27,156.427 84.97,147.04C84.41,142.973 85.44,139.07 88.06,135.33C88.298,134.991 88.361,134.556 88.23,134.16C85.02,124.31 82.92,111.38 86.22,101.24C86.236,101.195 86.243,101.148 86.243,101.1C86.243,100.864 86.049,100.67 85.813,100.67C85.718,100.67 85.625,100.702 85.55,100.76C84.25,101.733 82.96,101.877 81.68,101.19C81.361,101.015 81.147,100.693 81.11,100.33C80.46,93.13 87.1,83.09 91.23,77.43C91.405,77.2 91.37,76.868 91.15,76.68L91.13,76.66C91.009,76.559 90.827,76.568 90.71,76.68C88.93,78.387 86.897,79.537 84.61,80.13C84.548,80.146 84.484,80.159 84.421,80.168C83.363,80.328 82.36,79.585 82.199,78.522C82.19,78.458 82.183,78.394 82.18,78.33C81.86,71.77 100.05,63.33 105.21,61.49C105.335,61.447 105.42,61.329 105.42,61.197C105.42,61.06 105.33,60.94 105.2,60.9C102.48,59.953 99.777,59.233 97.09,58.74C95.42,58.44 93.38,56.97 95.27,55.17C97.58,52.98 104.61,53.8 107.61,54.41C107.634,54.414 107.658,54.416 107.682,54.416C107.901,54.416 108.082,54.236 108.082,54.016C108.082,53.984 108.078,53.952 108.07,53.92C107.4,51.31 106.75,46.74 108.23,44.22C108.248,44.189 108.266,44.159 108.286,44.129C108.908,43.179 110.254,42.943 111.269,43.607C111.3,43.627 111.33,43.648 111.36,43.67C113.12,44.93 114.14,50.17 114.8,52.94C114.862,53.217 115.111,53.416 115.395,53.416C115.625,53.416 115.837,53.286 115.94,53.08C122.12,40.74 135.51,34.48 148.78,33.33C149.613,33.257 150.877,32.813 152.57,32C157.54,29.6 162.51,28.43 168.81,27.3C171.523,26.82 175.32,26.783 180.2,27.19C183.42,27.457 187.233,27.65 191.64,27.77C196.9,27.91 202.63,26.84 207,26.5C209.387,26.32 210.633,27.327 210.74,29.52C210.853,31.96 209.823,33.927 207.65,35.42C207.57,35.474 207.522,35.564 207.522,35.661C207.522,35.82 207.653,35.951 207.812,35.951C207.818,35.951 207.824,35.95 207.83,35.95C217.417,35.377 226.717,35.507 235.73,36.34C238.44,36.59 242.87,36.86 243.56,40.02C244.17,42.87 239.79,45.49 237.69,46.14C237.65,46.153 237.612,46.173 237.578,46.198C237.401,46.328 237.359,46.576 237.485,46.749C237.511,46.785 237.543,46.815 237.58,46.84C237.64,46.887 241.507,49.54 249.18,54.8C256.29,59.66 264.97,61.82 271.37,67.16C274.72,69.95 275.58,73.88 271.51,76.53C269.11,78.097 266.35,78.807 263.23,78.66C263.227,78.66 263.223,78.66 263.22,78.66C263.028,78.66 262.87,78.818 262.87,79.01C262.87,79.086 262.895,79.159 262.94,79.22C265.17,82.05 270.23,90.27 269.24,93.64C268.68,95.533 267.443,96.207 265.53,95.66C265.228,95.568 264.953,95.403 264.73,95.18L263.33,93.78C263.248,93.702 263.139,93.658 263.026,93.658C262.784,93.658 262.586,93.856 262.586,94.098C262.586,94.119 262.587,94.139 262.59,94.16C263.477,100.007 263.217,105.593 261.81,110.92C261.57,111.83 260.77,113.34 260.59,114.46C260.542,114.776 260.688,115.092 260.96,115.26C270.16,120.92 278.4,138.91 273.99,149.22C271.16,155.86 266.96,161.58 260.63,164.98C260.343,165.139 260.136,165.411 260.06,165.73C259.86,166.543 259.617,167.75 259.33,169.35C258.217,175.543 255.247,180.32 250.42,183.68C250.091,183.908 249.881,184.276 249.85,184.68C249.48,189.52 249.76,192.39 247.13,195.13C246.517,195.77 246.333,196.727 246.58,198C247.033,200.367 247.293,202.277 247.36,203.73C247.361,203.743 247.361,203.757 247.361,203.77C247.367,204.434 246.83,204.985 246.172,204.99C246.158,204.99 246.144,204.99 246.13,204.99C243.16,204.92 243.01,202.9 242.48,200.56C242.441,200.386 242.272,200.269 242.09,200.29L242.06,200.31C241.961,200.359 241.899,200.457 241.9,200.56L241.93,212.56C241.93,212.585 241.93,212.61 241.928,212.635C241.893,213.078 241.495,213.413 241.047,213.378C241.024,213.376 241.002,213.374 240.98,213.37L239.07,213.05C239.057,213.048 239.044,213.046 239.03,213.046C238.833,213.034 238.662,213.192 238.65,213.395C238.65,213.407 238.65,213.418 238.65,213.43C238.74,216.09 239,223.16 236.02,224.9C235.853,224.999 235.663,225.051 235.47,225.051C234.878,225.051 234.39,224.563 234.39,223.971C234.39,223.97 234.39,221.08 234.39,221.08C234.39,220.926 234.264,220.8 234.11,220.8L233.82,220.8C233.644,220.8 233.5,220.944 233.5,221.12C233.527,224.6 232.917,228.013 231.67,231.36C231.458,231.924 230.915,232.3 230.313,232.3C229.797,232.3 229.319,232.025 229.06,231.58L228.33,230.32C228.274,230.228 228.173,230.172 228.066,230.172C227.931,230.172 227.81,230.261 227.77,230.39C226.977,232.977 226.22,235.173 225.5,236.98C225.16,237.84 224.337,238.35 223.03,238.51C222.629,238.559 222.256,238.284 222.19,237.89C222.137,237.583 221.933,237.207 221.58,236.76C221.546,236.716 221.504,236.679 221.457,236.652C221.252,236.534 220.985,236.609 220.864,236.818C220.837,236.865 220.819,236.917 220.81,236.97C220.54,238.83 218.24,247.39 214.97,246.53C214.654,246.443 214.407,246.196 214.32,245.88L213.93,244.44C213.873,244.221 213.673,244.066 213.446,244.066C213.216,244.066 213.014,244.226 212.96,244.45C212.41,246.84 211.58,249.49 208.55,249.03C208.529,249.027 208.508,249.023 208.488,249.019C207.614,248.856 207.014,248.087 207.158,247.316C207.162,247.297 207.166,247.279 207.17,247.26C207.263,246.867 207.473,246.317 207.8,245.61C207.828,245.548 207.842,245.481 207.842,245.414C207.842,245.18 207.671,244.978 207.44,244.94L207.14,244.89C206.996,244.861 206.851,244.942 206.8,245.08C205.76,247.71 204.27,249.05 202.2,250.87C201.687,251.323 201.137,251.477 200.55,251.33C200.481,251.313 200.413,251.291 200.347,251.265C199.476,250.917 199.08,249.829 199.469,248.856C199.499,248.782 199.532,248.71 199.57,248.64C199.963,247.9 200.16,247.51 200.16,247.47C200.162,247.448 200.163,247.426 200.163,247.404C200.163,247.02 199.847,246.704 199.463,246.704C199.297,246.704 199.137,246.763 199.01,246.87C197.097,248.543 195.44,250.1 194.04,251.54C193.44,252.167 192.553,252.467 191.38,252.44C190.493,252.414 189.778,251.678 189.778,250.791C189.778,250.7 189.785,250.609 189.8,250.52L190.18,248.26C190.187,248.222 190.19,248.183 190.19,248.145C190.19,247.794 189.902,247.505 189.55,247.505C189.382,247.505 189.22,247.571 189.1,247.69C187.27,249.45 184.86,253.25 182.28,252.14C180.53,251.39 181.41,248.86 182.32,247.77C182.507,247.545 182.519,247.223 182.35,246.99L182.13,246.7C182.095,246.646 182.035,246.614 181.971,246.614C181.931,246.614 181.892,246.627 181.86,246.65L177.3,249.96C176.71,250.39 175.887,250.326 175.37,249.81L174.69,249.13C174.684,249.124 174.678,249.118 174.672,249.112C174.185,248.606 174.204,247.786 174.714,247.295C174.719,247.29 174.725,247.285 174.73,247.28C175.117,246.92 175.423,246.413 175.65,245.76C175.66,245.733 175.667,245.706 175.671,245.677C175.702,245.455 175.539,245.245 175.311,245.214C175.284,245.21 175.257,245.209 175.23,245.21C174.297,245.27 173.697,245.503 173.43,245.91C173.245,246.202 173.191,246.558 173.28,246.89C174.293,250.57 174.867,252.78 175,253.52C177.79,269.75 179.34,281.56 183.51,294.72C183.824,295.714 183.46,296.805 182.61,297.41C181.21,298.41 179.527,299.197 177.56,299.77C177.128,299.898 176.848,300.322 176.9,300.77C178.433,314.237 181.07,327.31 184.81,339.99C184.898,340.286 184.738,340.602 184.45,340.7C183.61,341 182.557,341.02 181.29,340.76ZM172.725,32.465C172.725,32.465 172.725,32.465 172.725,32.465C172.653,32.026 169.382,32.191 165.479,32.831C161.576,33.47 158.423,34.357 158.495,34.795C158.495,34.795 158.495,34.795 158.495,34.795C158.567,35.234 161.838,35.069 165.741,34.429C169.644,33.79 172.797,32.903 172.725,32.465ZM126.47,48L139.46,40.41C139.512,40.38 139.53,40.312 139.5,40.26L139.48,40.23C139.478,40.227 139.476,40.223 139.474,40.22C139.128,39.628 135.94,40.837 132.411,42.899C132.411,42.899 132.41,42.9 132.41,42.9L132.1,43.09C128.585,45.144 125.972,47.32 126.3,47.92L126.32,47.96C126.35,48.012 126.418,48.03 126.47,48ZM162.52,81.73C162.537,81.708 162.546,81.68 162.546,81.652C162.546,81.581 162.487,81.522 162.416,81.522C162.393,81.522 162.37,81.528 162.35,81.54C150.717,88.327 138.17,92.407 124.71,93.78C124.617,93.788 124.546,93.866 124.546,93.959C124.546,93.984 124.55,94.008 124.56,94.03C127.027,100.49 129.153,107.51 130.94,115.09C131.82,118.803 130.67,120.883 127.49,121.33C126.45,121.48 125.64,121.28 124.49,121.24C124.485,121.24 124.48,121.24 124.475,121.24C124.316,121.242 124.187,121.371 124.189,121.524C124.189,121.53 124.19,121.535 124.19,121.54L124.6,131.94C124.611,132.179 124.815,132.37 125.06,132.37L142.78,132.37C143.44,132.37 144.051,132.019 144.38,131.45C145.427,129.623 146.79,127.973 148.47,126.5C148.809,126.208 148.905,125.718 148.7,125.32C147.42,122.81 148.9,122.15 151.12,121.62C160.753,119.32 167.273,117.447 170.68,116C175.78,113.827 179.68,109.967 182.38,104.42C182.91,103.332 184.194,102.821 185.32,103.25L185.36,103.27C186.555,103.722 187.208,105.034 186.85,106.26C185.957,109.287 184.28,112.023 181.82,114.47C181.74,114.55 181.696,114.659 181.696,114.772C181.696,114.991 181.863,115.177 182.08,115.2C189.92,116.06 195.9,117.69 200.31,124.46C200.478,124.718 200.819,124.802 201.08,124.65C207.393,121.037 213.997,120.59 220.89,123.31C221.246,123.45 221.653,123.33 221.87,123.02C224.04,119.97 226.94,118.43 229.99,116.55C230.165,116.443 230.272,116.252 230.272,116.047C230.272,115.89 230.21,115.741 230.1,115.63C227.09,112.54 224.88,110.73 223.57,106.19C223.23,105.012 223.739,103.742 224.8,103.12L224.83,103.1C225.126,102.927 225.462,102.836 225.804,102.836C226.576,102.836 227.277,103.3 227.58,104.01C229.227,107.857 231.737,110.973 235.11,113.36C235.612,113.71 236.242,113.83 236.84,113.69C241.887,112.483 247.123,112.007 252.55,112.26C252.557,112.26 252.564,112.26 252.571,112.26C252.823,112.26 253.031,112.053 253.031,111.8C253.031,111.767 253.027,111.733 253.02,111.7C250.927,103.087 248.437,94.59 245.55,86.21C245.21,85.21 244.42,84.087 243.18,82.84C236.88,76.527 230.333,70.797 223.54,65.65C223.385,65.529 223.161,65.537 223.01,65.67C221.057,67.483 218.883,69.007 216.49,70.24C211.183,72.973 205.913,75.803 200.68,78.73C198.6,79.89 197.92,80.07 196.45,78.17C195.417,76.837 195.287,75.13 196.06,73.05C196.074,73.012 196.081,72.972 196.081,72.932C196.081,72.74 195.923,72.582 195.731,72.582C195.65,72.582 195.572,72.609 195.51,72.66C190.87,76.53 184.61,80.76 179.64,83.42C174.233,86.313 168.727,87.663 163.12,87.47C162.02,87.43 161.27,87.287 160.87,87.04C160.85,87.028 160.83,87.015 160.81,87.002C160.05,86.491 159.847,85.441 160.361,84.676C160.374,84.657 160.387,84.638 160.4,84.62L162.52,81.73ZM259.47,65.77L267.41,69.89L267.51,69.69C267.675,69.345 266.297,68.278 264.45,67.32L263.28,66.71C263.279,66.709 263.278,66.709 263.277,66.708C261.421,65.746 259.749,65.235 259.572,65.576C259.571,65.578 259.571,65.579 259.57,65.58L259.47,65.77ZM254.58,116.36C254.538,116.158 254.368,116.005 254.16,115.98C250.393,115.613 246.343,115.707 242.01,116.26C241.781,116.283 241.605,116.478 241.605,116.708C241.605,116.907 241.738,117.084 241.93,117.14L255.32,121.21C255.329,121.212 255.338,121.214 255.347,121.214C255.413,121.218 255.47,121.172 255.473,121.111C255.474,121.101 255.473,121.09 255.47,121.08L254.58,116.36ZM155.84,161.63L155.86,161.37C155.886,160.909 155.702,160.457 155.36,160.14L152.36,157.41C152.261,157.317 152.18,157.209 152.12,157.09C149.85,152.51 153.27,150.22 157.35,150.4C158.377,150.447 159.82,150.777 161.68,151.39C165.16,152.543 168.997,152.937 173.19,152.57C173.204,152.569 173.217,152.567 173.231,152.565C173.518,152.518 173.716,152.248 173.67,151.966C173.667,151.951 173.664,151.935 173.66,151.92C172.73,148.31 172.99,142.97 176.65,141.24C179.41,139.93 181.64,142.58 181.97,145.23C182.143,146.63 182.1,148.133 181.84,149.74C181.834,149.778 181.832,149.816 181.832,149.854C181.832,150.276 182.179,150.624 182.602,150.624C182.73,150.624 182.857,150.592 182.97,150.53C185.46,149.12 189.62,145.81 190.73,149.71C191.05,150.823 190.69,152.49 189.65,154.71C188.34,157.51 184.15,160.37 180.58,161.4C175.62,162.83 171.69,165.92 166.45,162.79C165.641,162.306 164.594,162.471 163.98,163.18L163.08,164.21C163.018,164.281 162.964,164.358 162.918,164.44C162.551,165.096 162.794,165.94 163.454,166.309C163.536,166.355 163.621,166.392 163.71,166.42C171.157,168.753 177.417,169.59 182.49,168.93C200.37,166.59 206.15,145.23 200.06,130.9C199.939,130.62 199.705,130.408 199.42,130.32C198.58,130.05 197.98,130.4 197.1,129.77C196.613,129.423 196.683,128.75 197.31,127.75C197.688,127.159 197.626,126.384 197.16,125.86C192.353,120.48 186.037,118.067 178.21,118.62C177.857,118.646 177.517,118.771 177.23,118.98C171.26,123.23 164.11,125.16 156.59,125.84C155.674,125.918 154.818,126.319 154.18,126.97C148.01,133.27 144.3,139.72 146.06,148.5C147.12,153.8 150.117,158.297 155.05,161.99C155.136,162.057 155.242,162.093 155.351,162.093C155.609,162.093 155.826,161.888 155.84,161.63ZM261.23,160.04C264.95,158.69 268.67,152.49 270.46,148.94C273.37,143.17 271.99,138.38 269.64,132.38C267.593,127.147 264.58,122.657 260.6,118.91C260.572,118.884 260.542,118.861 260.51,118.841C260.253,118.683 259.909,118.769 259.748,119.031C259.729,119.062 259.713,119.095 259.7,119.13C259.253,120.377 259.167,121.59 259.44,122.77C261.74,132.59 263.51,138.77 262.57,146.78C261.763,153.593 261.157,157.873 260.75,159.62C260.743,159.648 260.74,159.676 260.74,159.704C260.74,159.902 260.903,160.064 261.1,160.064C261.144,160.064 261.189,160.056 261.23,160.04ZM255.89,124.8C249.977,125.053 244.177,123.91 238.49,121.37C237.1,120.75 236.13,119.56 235.11,119.07C234.712,118.881 234.247,118.884 233.85,119.08C230.183,120.84 227.77,122.45 226.61,123.91C224.877,126.097 223.447,127.847 222.32,129.16C222.101,129.419 221.919,129.708 221.78,130.02C213.57,147.99 227.35,162.95 244.85,164.45C245.33,164.496 245.767,164.144 245.83,163.66C245.957,162.653 245.933,161.89 245.76,161.37C245.632,160.996 245.233,160.781 244.85,160.88C239.32,162.32 232.49,159.18 228.43,155.78C227.773,155.228 227.262,154.528 226.94,153.74L224.95,148.78C224.865,148.568 224.822,148.342 224.822,148.113C224.822,147.126 225.635,146.313 226.622,146.313C226.906,146.313 227.187,146.381 227.44,146.51L233.98,149.88C234.05,149.915 234.127,149.934 234.205,149.934C234.48,149.934 234.705,149.708 234.705,149.434C234.705,149.409 234.704,149.384 234.7,149.36C234.26,146.57 234.72,140.96 238.31,140.48C239.617,140.307 240.74,140.827 241.68,142.04C243.547,144.433 243.957,147.15 242.91,150.19C242.877,150.286 242.86,150.388 242.86,150.49C242.86,150.995 243.275,151.41 243.78,151.41C243.844,151.41 243.907,151.403 243.97,151.39C248.83,150.36 254.97,148.13 258.08,151.15C258.129,151.197 258.194,151.224 258.261,151.224C258.394,151.224 258.507,151.122 258.52,150.99C259.4,142.33 258.677,133.713 256.35,125.14C256.291,124.934 256.1,124.793 255.89,124.8ZM115.08,136.6C114.98,136.413 114.767,136.35 114.44,136.41C114.272,136.442 114.119,136.534 114.01,136.67C112.397,138.637 110.567,139.947 108.52,140.6C108.145,140.722 107.883,141.061 107.86,141.45L107.67,145.02C107.651,145.319 107.506,145.599 107.27,145.79C107.037,145.983 106.787,146.103 106.52,146.15C105.24,145.803 104.547,145.257 104.44,144.51C103.62,138.76 97.38,130.57 91.36,137.17C88.707,140.083 87.733,143.54 88.44,147.54C90.61,159.82 99.01,165.27 109.37,171.01C109.69,171.59 109.977,171.737 110.23,171.45C110.77,172.177 111.427,172.62 112.2,172.78L112.13,174.25C112.117,174.497 112.184,174.742 112.32,174.95L117.96,183.47L119.15,185.72C119.51,185.86 119.6,186.223 119.42,186.81C119.361,186.994 119.344,187.189 119.37,187.38C119.797,190.153 120.853,192.653 122.54,194.88C122.787,195.713 123.22,196.367 123.84,196.84C124.373,199.267 125.47,200.867 127.13,201.64C126.743,202.3 126.777,202.93 127.23,203.53C128.343,206.517 130.147,209.01 132.64,211.01C132.327,212.87 132.777,214.317 133.99,215.35C134.038,215.389 134.098,215.41 134.16,215.41C134.305,215.41 134.425,215.294 134.43,215.15L134.54,209.69C135.8,213.217 137.83,215.937 140.63,217.85C139.73,219.79 139.84,221.373 140.96,222.6L144.48,225.99C144.72,226.343 144.763,226.51 144.61,226.49C145.13,228.297 146.31,229.663 148.15,230.59C148.477,230.75 149.203,230.813 150.33,230.78C150.79,230.767 151.243,230.913 151.69,231.22L151.65,233.17C151.645,233.479 151.845,233.757 152.14,233.85L153.32,234.21C153.358,234.221 153.398,234.227 153.437,234.227C153.662,234.227 153.847,234.042 153.847,233.817C153.847,233.791 153.845,233.765 153.84,233.74C153.253,230.853 153.153,227.793 153.54,224.56C153.541,224.553 153.541,224.547 153.542,224.54C153.57,224.163 153.287,223.829 152.915,223.801C152.907,223.801 152.898,223.8 152.89,223.8L151.72,223.75C148.087,222.803 146.64,218.54 147.38,210.96L152.77,193.4C152.815,193.249 152.888,193.108 152.985,192.985C153.425,192.423 154.267,192.338 154.849,192.795C154.976,192.894 155.085,193.014 155.17,193.15C155.35,193.437 155.48,193.837 155.56,194.35C156.1,197.983 156.527,201.63 156.84,205.29L156.96,205.79L157.79,211.25C157.836,211.557 158.103,211.786 158.413,211.786C158.586,211.786 158.751,211.715 158.87,211.59L165.37,204.59L160.97,214.2C160.957,214.227 160.943,214.253 160.927,214.278C160.734,214.578 160.332,214.668 160.037,214.478C160.01,214.461 159.984,214.441 159.96,214.42L158.87,213.47C158.792,213.402 158.692,213.365 158.589,213.365C158.353,213.365 158.159,213.559 158.159,213.795C158.159,213.807 158.159,213.818 158.16,213.83C158.267,214.97 158.177,216.24 157.89,217.64C156.917,222.453 156.907,227.347 157.86,232.32C157.888,232.477 158.026,232.592 158.185,232.592C158.329,232.592 158.457,232.498 158.5,232.36L161.86,221.47C162.042,220.893 162.581,220.498 163.186,220.498C163.466,220.498 163.739,220.582 163.97,220.74L164.08,220.82C164.941,221.357 165.375,222.384 165.16,223.38C163.67,230.18 162.82,232.74 163.64,237.78C163.666,237.956 163.818,238.088 163.996,238.088C164.021,238.088 164.046,238.085 164.07,238.08C164.377,238.013 164.52,237.82 164.5,237.5C164.74,237.473 164.943,237.473 165.11,237.5C165.27,237.52 165.433,237.623 165.6,237.81C167.65,240.11 171.61,240.73 174.37,241.61C174.658,241.695 174.962,241.698 175.25,241.62C176.93,241.16 178.383,241.467 179.61,242.54C180.25,242.84 180.78,242.89 181.2,242.69L182.34,242.87C182.536,242.901 182.712,243.018 182.82,243.19C183.167,243.73 183.657,243.97 184.29,243.91L186.57,244.44C189.057,243.92 191.047,243.817 192.54,244.13C193.1,244.717 194.173,244.597 195.76,243.77L201.06,243.17C202.353,243.117 203.203,242.63 203.61,241.71L206.52,240.7C207.727,240.487 208.623,239.963 209.21,239.13C211.223,238.737 212.703,237.957 213.65,236.79C214.317,236.67 214.893,236.42 215.38,236.04L223.28,228.99C223.525,228.771 223.738,228.512 223.91,228.22C224.65,226.98 225.817,225.643 227.41,224.21C229.077,222.703 230.067,220.72 230.38,218.26C230.527,217.093 230.943,214.767 231.63,211.28C231.69,210.967 231.753,210.737 231.82,210.59C231.888,210.44 232.038,210.344 232.202,210.344C232.416,210.344 232.598,210.507 232.62,210.72L232.76,212.14C232.776,212.474 233.055,212.741 233.39,212.741C233.736,212.741 234.021,212.456 234.021,212.11C234.021,212.1 234.02,212.09 234.02,212.08L234.17,203.31C233.997,202.817 233.98,202.39 234.12,202.03C234.307,201.537 234.647,201.36 235.14,201.5C235.56,201.62 235.883,201.933 236.11,202.44C236.171,202.59 236.318,202.688 236.48,202.688C236.695,202.688 236.874,202.515 236.88,202.3L237.17,197.11C237.177,196.941 237.24,196.782 237.35,196.66L241.28,192.17C241.389,192.036 241.443,191.867 241.43,191.7L241.1,188.48C241.062,188.115 240.751,187.834 240.384,187.834C240.352,187.834 240.321,187.836 240.29,187.84C235.19,188.52 230.11,188.633 225.05,188.18C224.21,187.86 223.443,187.827 222.75,188.08C222.39,187.773 222.057,187.62 221.75,187.62C221.377,187.62 221.183,187.83 221.17,188.25C221.163,188.543 221.233,188.867 221.38,189.22L221.59,196.3C220.5,197.94 218.59,197.85 218.2,195.78C217.887,194.153 217.48,191.313 216.98,187.26C216.905,186.672 216.545,186.159 216.02,185.89L215.49,185.61C215.433,185.582 215.37,185.568 215.307,185.568C215.076,185.568 214.887,185.758 214.887,185.988C214.887,186.005 214.888,186.023 214.89,186.04L215.74,192.31C215.749,192.373 215.753,192.437 215.753,192.501C215.753,193.263 215.126,193.891 214.363,193.891C214.251,193.891 214.139,193.877 214.03,193.85L213.77,193.79C212.681,193.466 211.94,192.44 211.97,191.3L211.44,183.98C209.84,183.327 208.767,182.457 208.22,181.37C208.367,178.697 209.303,177.203 211.03,176.89C211.509,176.805 211.995,177.009 212.27,177.41C218.64,186.58 237.67,186.51 246.26,181.42C247.239,180.842 247.795,179.741 247.68,178.61L246.64,168.38C246.625,168.192 246.464,168.044 246.27,168.04C236.763,167.933 228.907,164.683 222.7,158.29C214.11,149.44 212.71,137.91 218.48,127.25C218.542,127.134 218.575,127.004 218.575,126.872C218.575,126.525 218.35,126.216 218.02,126.11C212.62,124.463 207.687,125.043 203.22,127.85C202.911,128.044 202.809,128.45 202.99,128.76C208.54,138.54 206.26,154.2 199.72,162.94C191.15,174.4 176.43,174.48 163.72,170.43C163.669,170.414 163.616,170.406 163.563,170.406C163.278,170.406 163.043,170.641 163.043,170.926C163.043,170.954 163.045,170.982 163.05,171.01C163.94,176.32 164.62,183.39 161.28,187.71C158.97,190.69 154.67,190.54 152.31,187.52C149.02,183.3 154.11,171.42 155.3,167.73C155.4,167.426 155.28,167.091 155.01,166.92C144.217,159.973 139.82,150.25 141.82,137.75C141.827,137.71 141.83,137.67 141.83,137.629C141.83,137.229 141.5,136.899 141.1,136.899C141.09,136.899 141.08,136.9 141.07,136.9C133.437,137.12 125.75,136.913 118.01,136.28C116.917,136.193 115.94,136.3 115.08,136.6ZM257.13,156.95C255.33,158.463 253.17,159.523 250.65,160.13C250.588,160.145 250.525,160.153 250.461,160.154C250.033,160.161 249.676,159.86 249.669,159.487C249.668,159.431 249.675,159.375 249.69,159.32C249.75,159.107 249.947,158.92 250.28,158.76C253.027,157.413 255.12,155.983 256.56,154.47C256.776,154.242 256.896,153.939 256.896,153.626C256.896,153.043 256.481,152.536 255.91,152.42C254.79,152.2 253.737,152.217 252.75,152.47C249.11,153.41 246.207,153.967 244.04,154.14C238.22,154.627 233.027,153.25 228.46,150.01C228.382,149.959 228.291,149.933 228.199,149.933C227.935,149.933 227.719,150.149 227.719,150.413C227.719,150.508 227.747,150.601 227.8,150.68C232.78,157.55 238.61,158.18 246.57,159.21C247.558,159.336 248.319,160.164 248.36,161.16L248.47,164.04C248.47,164.05 248.471,164.06 248.472,164.071C248.496,164.278 248.69,164.428 248.903,164.404C248.912,164.403 248.921,164.402 248.93,164.4L255.71,163.11C256.422,162.977 256.979,162.408 257.1,161.69L257.81,157.34C257.813,157.319 257.815,157.297 257.815,157.276C257.815,157.046 257.625,156.856 257.395,156.856C257.298,156.856 257.205,156.889 257.13,156.95ZM187.4,151.82C180.23,154.75 172.12,156.73 163.44,154.75C159.727,153.903 157.723,153.467 157.43,153.44C157.418,153.439 157.406,153.437 157.393,153.436C155.952,153.297 154.674,154.136 154.562,155.293C154.561,155.302 154.561,155.311 154.56,155.32C154.527,155.733 155.367,156.537 157.08,157.73C157.709,158.163 158.098,158.872 158.13,159.64L158.28,163.43C158.318,164.258 159.009,164.919 159.838,164.919C160.478,164.919 161.056,164.525 161.29,163.93C163.51,158.2 165.65,159.74 170.43,161.42C170.969,161.608 171.555,161.619 172.1,161.45C179.21,159.23 184.15,157.78 188.02,152.62C188.076,152.547 188.112,152.461 188.124,152.371C188.16,152.088 187.953,151.825 187.664,151.788C187.575,151.776 187.484,151.787 187.4,151.82ZM251.19,177.83C253.63,174.837 255.267,171.193 256.1,166.9C256.103,166.885 256.104,166.871 256.104,166.856C256.104,166.73 256,166.626 255.874,166.626C255.859,166.626 255.845,166.627 255.83,166.63L250.34,167.67C249.954,167.741 249.683,168.099 249.72,168.49L250.65,177.67C250.655,177.709 250.667,177.746 250.686,177.78C250.768,177.93 250.953,177.988 251.098,177.909C251.134,177.889 251.165,177.863 251.19,177.83ZM160.32,169.63C160.286,169.426 160.206,169.233 160.086,169.065C159.654,168.464 158.799,168.327 158.194,168.763C158.026,168.883 157.888,169.039 157.79,169.22C157.723,169.347 156.777,172.263 154.95,177.97C154.377,179.757 154.097,181.653 154.11,183.66C154.13,186.39 156.04,187.72 158.51,186.49C162.49,184.51 161.09,174.15 160.32,169.63ZM244.22,187.1C244.007,187.687 244.217,188.293 244.85,188.92C244.854,188.924 244.858,188.928 244.863,188.932C245.084,189.137 245.438,189.12 245.647,188.895C245.651,188.89 245.656,188.885 245.66,188.88C245.84,188.673 246.02,188.323 246.2,187.83C246.38,187.33 246.47,186.943 246.47,186.67C246.47,186.665 246.47,186.659 246.47,186.654C246.456,186.347 246.197,186.105 245.896,186.118C245.887,186.119 245.879,186.119 245.87,186.12C244.983,186.187 244.433,186.513 244.22,187.1ZM153.66,201.11C151.5,206.11 148.2,214.38 149.69,219.71C149.775,220.019 150.021,220.257 150.33,220.33C155.3,221.54 155.74,214.36 155.26,211.23C154.753,207.937 154.367,204.587 154.1,201.18C154.089,201.062 153.989,200.972 153.871,200.972C153.78,200.972 153.696,201.026 153.66,201.11ZM152.72,240.52L151.34,241.32C151.106,241.454 150.84,241.525 150.57,241.525C149.72,241.525 149.02,240.825 149.02,239.975C149.02,239.916 149.023,239.858 149.03,239.8C149.11,239.087 148.973,238.313 148.62,237.48C148.548,237.31 148.378,237.2 148.19,237.2L146.44,237.2C146.126,237.198 145.851,236.989 145.77,236.69L144.22,230.93C144.201,230.862 144.176,230.795 144.146,230.731C143.863,230.142 143.151,229.888 142.567,230.168C142.501,230.199 142.439,230.237 142.38,230.28L141.09,231.22C140.862,231.383 140.589,231.471 140.309,231.471C139.747,231.471 139.242,231.118 139.05,230.59C138.683,229.563 138.61,228.253 138.83,226.66C138.837,226.607 138.841,226.554 138.841,226.5C138.841,225.842 138.299,225.3 137.641,225.3C137.64,225.3 135.48,225.3 135.48,225.3C135.119,225.301 134.795,225.081 134.67,224.75C134.177,223.45 134.017,222.133 134.19,220.8C134.233,220.456 133.997,220.135 133.66,220.08L130.98,219.64C129.873,219.457 129.024,218.538 128.93,217.42C128.783,215.733 128.683,214.603 128.63,214.03C128.42,211.87 125.95,209.17 124.59,207.41C124.35,207.097 124.013,206.323 123.58,205.09C123.522,204.926 123.367,204.816 123.193,204.816C123.023,204.816 122.87,204.921 122.81,205.08C122.137,206.913 121.333,208.543 120.4,209.97C117.37,214.61 122.88,222.23 126.28,225.47C129.64,228.69 133.37,232.33 135.35,236.75C137.12,240.68 137.19,246.48 138.11,250.34C139.74,257.19 147.32,253.95 148.99,249.66C150.383,246.087 151.787,243.21 153.2,241.03C153.239,240.971 153.259,240.903 153.259,240.832C153.259,240.635 153.097,240.472 152.899,240.472C152.836,240.472 152.775,240.489 152.72,240.52Z" style="fill-rule:nonzero;"/>
        <g transform="matrix(0.986856,-0.161604,0.161604,0.986856,165.61,33.63)">
            <ellipse cx="0" cy="0" rx="7.21" ry="0.81" style="fill:rgb(122,127,112);"/>
        </g>
        <path d="M162.52,81.73L160.4,84.62C160.387,84.638 160.374,84.657 160.361,84.676C159.847,85.441 160.05,86.491 160.81,87.002C160.83,87.015 160.85,87.028 160.87,87.04C161.27,87.287 162.02,87.43 163.12,87.47C168.727,87.663 174.233,86.313 179.64,83.42C184.61,80.76 190.87,76.53 195.51,72.66C195.572,72.609 195.65,72.582 195.731,72.582C195.923,72.582 196.081,72.74 196.081,72.932C196.081,72.972 196.074,73.012 196.06,73.05C195.287,75.13 195.417,76.837 196.45,78.17C197.92,80.07 198.6,79.89 200.68,78.73C205.913,75.803 211.183,72.973 216.49,70.24C218.883,69.007 221.057,67.483 223.01,65.67C223.161,65.537 223.385,65.529 223.54,65.65C230.333,70.797 236.88,76.527 243.18,82.84C244.42,84.087 245.21,85.21 245.55,86.21C248.437,94.59 250.927,103.087 253.02,111.7C253.027,111.733 253.031,111.767 253.031,111.8C253.031,112.053 252.823,112.26 252.571,112.26C252.564,112.26 252.557,112.26 252.55,112.26C247.123,112.007 241.887,112.483 236.84,113.69C236.242,113.83 235.612,113.71 235.11,113.36C231.737,110.973 229.227,107.857 227.58,104.01C227.277,103.3 226.576,102.836 225.804,102.836C225.462,102.836 225.126,102.927 224.83,103.1L224.8,103.12C223.739,103.742 223.23,105.012 223.57,106.19C224.88,110.73 227.09,112.54 230.1,115.63C230.21,115.741 230.272,115.89 230.272,116.047C230.272,116.252 230.165,116.443 229.99,116.55C226.94,118.43 224.04,119.97 221.87,123.02C221.653,123.33 221.246,123.45 220.89,123.31C213.997,120.59 207.393,121.037 201.08,124.65C200.819,124.802 200.478,124.718 200.31,124.46C195.9,117.69 189.92,116.06 182.08,115.2C181.863,115.177 181.696,114.991 181.696,114.772C181.696,114.659 181.74,114.55 181.82,114.47C184.28,112.023 185.957,109.287 186.85,106.26C187.208,105.034 186.555,103.722 185.36,103.27L185.32,103.25C184.194,102.821 182.91,103.332 182.38,104.42C179.68,109.967 175.78,113.827 170.68,116C167.273,117.447 160.753,119.32 151.12,121.62C148.9,122.15 147.42,122.81 148.7,125.32C148.905,125.718 148.809,126.208 148.47,126.5C146.79,127.973 145.427,129.623 144.38,131.45C144.051,132.019 143.44,132.37 142.78,132.37L125.06,132.37C124.815,132.37 124.611,132.179 124.6,131.94L124.19,121.54C124.19,121.535 124.189,121.53 124.189,121.524C124.187,121.371 124.316,121.242 124.475,121.24C124.48,121.24 124.485,121.24 124.49,121.24C125.64,121.28 126.45,121.48 127.49,121.33C130.67,120.883 131.82,118.803 130.94,115.09C129.153,107.51 127.027,100.49 124.56,94.03C124.55,94.008 124.546,93.984 124.546,93.959C124.546,93.866 124.617,93.788 124.71,93.78C138.17,92.407 150.717,88.327 162.35,81.54C162.37,81.528 162.393,81.522 162.416,81.522C162.487,81.522 162.546,81.581 162.546,81.652C162.546,81.68 162.537,81.708 162.52,81.73Z" style="fill:rgb(253,253,253);fill-rule:nonzero;"/>
        <path d="M255.32,121.21L241.93,117.14C241.738,117.084 241.605,116.907 241.605,116.708C241.605,116.478 241.781,116.283 242.01,116.26C246.343,115.707 250.393,115.613 254.16,115.98C254.368,116.005 254.538,116.158 254.58,116.36L255.47,121.08C255.473,121.09 255.474,121.101 255.473,121.111C255.47,121.172 255.413,121.218 255.347,121.214C255.338,121.214 255.329,121.212 255.32,121.21Z" style="fill:rgb(253,253,253);fill-rule:nonzero;"/>
        <path d="M155.05,161.99C150.117,158.297 147.12,153.8 146.06,148.5C144.3,139.72 148.01,133.27 154.18,126.97C154.818,126.319 155.674,125.918 156.59,125.84C164.11,125.16 171.26,123.23 177.23,118.98C177.517,118.771 177.857,118.646 178.21,118.62C186.037,118.067 192.353,120.48 197.16,125.86C197.626,126.384 197.688,127.159 197.31,127.75C196.683,128.75 196.613,129.423 197.1,129.77C197.98,130.4 198.58,130.05 199.42,130.32C199.705,130.408 199.939,130.62 200.06,130.9C206.15,145.23 200.37,166.59 182.49,168.93C177.417,169.59 171.157,168.753 163.71,166.42C163.621,166.392 163.536,166.355 163.454,166.309C162.794,165.94 162.551,165.096 162.918,164.44C162.964,164.358 163.018,164.281 163.08,164.21L163.98,163.18C164.594,162.471 165.641,162.306 166.45,162.79C171.69,165.92 175.62,162.83 180.58,161.4C184.15,160.37 188.34,157.51 189.65,154.71C190.69,152.49 191.05,150.823 190.73,149.71C189.62,145.81 185.46,149.12 182.97,150.53C182.857,150.592 182.73,150.624 182.602,150.624C182.179,150.624 181.832,150.276 181.832,149.854C181.832,149.816 181.834,149.778 181.84,149.74C182.1,148.133 182.143,146.63 181.97,145.23C181.64,142.58 179.41,139.93 176.65,141.24C172.99,142.97 172.73,148.31 173.66,151.92C173.664,151.935 173.667,151.951 173.67,151.966C173.716,152.248 173.518,152.518 173.231,152.565C173.217,152.567 173.204,152.569 173.19,152.57C168.997,152.937 165.16,152.543 161.68,151.39C159.82,150.777 158.377,150.447 157.35,150.4C153.27,150.22 149.85,152.51 152.12,157.09C152.18,157.209 152.261,157.317 152.36,157.41L155.36,160.14C155.702,160.457 155.886,160.909 155.86,161.37L155.84,161.63C155.826,161.888 155.609,162.093 155.351,162.093C155.242,162.093 155.136,162.057 155.05,161.99ZM173.1,166.49L173.65,168.06C173.718,168.257 173.905,168.389 174.113,168.389C174.17,168.389 174.226,168.379 174.28,168.36L178.86,166.76C178.861,166.76 178.862,166.759 178.864,166.759C181.602,165.8 183.672,164.487 183.45,163.85L183.39,163.68C183.389,163.678 183.388,163.675 183.388,163.673C183.165,163.036 180.728,163.301 177.99,164.26L173.41,165.87C173.21,165.936 173.075,166.124 173.075,166.335C173.075,166.388 173.083,166.44 173.1,166.49Z" style="fill:rgb(253,253,253);fill-rule:nonzero;"/>
        <path d="M260.75,159.62C261.157,157.873 261.763,153.593 262.57,146.78C263.51,138.77 261.74,132.59 259.44,122.77C259.167,121.59 259.253,120.377 259.7,119.13C259.713,119.095 259.729,119.062 259.748,119.031C259.909,118.769 260.253,118.683 260.51,118.841C260.542,118.861 260.572,118.884 260.6,118.91C264.58,122.657 267.593,127.147 269.64,132.38C271.99,138.38 273.37,143.17 270.46,148.94C268.67,152.49 264.95,158.69 261.23,160.04C261.189,160.056 261.144,160.064 261.1,160.064C260.903,160.064 260.74,159.902 260.74,159.704C260.74,159.676 260.743,159.648 260.75,159.62Z" style="fill:white;fill-opacity:0.56;fill-rule:nonzero;"/>
        <path d="M256.35,125.14C258.677,133.713 259.4,142.33 258.52,150.99C258.507,151.122 258.394,151.224 258.261,151.224C258.194,151.224 258.129,151.197 258.08,151.15C254.97,148.13 248.83,150.36 243.97,151.39C243.907,151.403 243.844,151.41 243.78,151.41C243.275,151.41 242.86,150.995 242.86,150.49C242.86,150.388 242.877,150.286 242.91,150.19C243.957,147.15 243.547,144.433 241.68,142.04C240.74,140.827 239.617,140.307 238.31,140.48C234.72,140.96 234.26,146.57 234.7,149.36C234.704,149.384 234.705,149.409 234.705,149.434C234.705,149.708 234.48,149.934 234.205,149.934C234.127,149.934 234.05,149.915 233.98,149.88L227.44,146.51C227.187,146.381 226.906,146.313 226.622,146.313C225.635,146.313 224.822,147.126 224.822,148.113C224.822,148.342 224.865,148.568 224.95,148.78L226.94,153.74C227.262,154.528 227.773,155.228 228.43,155.78C232.49,159.18 239.32,162.32 244.85,160.88C245.233,160.781 245.632,160.996 245.76,161.37C245.933,161.89 245.957,162.653 245.83,163.66C245.767,164.144 245.33,164.496 244.85,164.45C227.35,162.95 213.57,147.99 221.78,130.02C221.919,129.708 222.101,129.419 222.32,129.16C223.447,127.847 224.877,126.097 226.61,123.91C227.77,122.45 230.183,120.84 233.85,119.08C234.247,118.884 234.712,118.881 235.11,119.07C236.13,119.56 237.1,120.75 238.49,121.37C244.177,123.91 249.977,125.053 255.89,124.8C256.1,124.793 256.291,124.934 256.35,125.14Z" style="fill:rgb(253,253,253);fill-rule:nonzero;"/>
        <path d="M208.22,181.37L203.01,185.97C202.979,185.997 202.939,186.012 202.898,186.012C202.805,186.012 202.728,185.935 202.728,185.842C202.728,185.821 202.732,185.8 202.74,185.78C203.207,184.427 203.627,183.007 204,181.52C204.193,180.74 204.28,180.307 204.26,180.22C204.221,180.063 204.158,179.913 204.073,179.776C203.616,179.033 202.625,178.8 201.877,179.26C201.74,179.344 201.616,179.449 201.51,179.57L194.32,187.81C194.312,187.819 194.301,187.824 194.29,187.824C194.279,187.824 194.268,187.819 194.26,187.81L194.03,187.61C193.945,187.538 193.928,187.412 193.99,187.32C195.257,185.38 196.257,183.367 196.99,181.28C197.003,181.243 197.014,181.206 197.024,181.168C197.214,180.436 196.762,179.675 196.024,179.484C195.986,179.475 195.948,179.467 195.91,179.46C195.077,179.313 194.397,179.533 193.87,180.12C191.15,183.1 189.333,185.08 188.42,186.06C188.387,186.11 188.33,186.14 188.27,186.14C188.171,186.14 188.09,186.059 188.09,185.96C188.09,185.924 188.1,185.89 188.12,185.86C188.58,184.793 188.92,184.067 189.14,183.68C189.627,182.827 189.737,182.22 189.47,181.86C189.092,181.366 188.504,181.076 187.882,181.076C187.367,181.076 186.872,181.274 186.5,181.63C184.5,183.523 183.07,184.91 182.21,185.79C182.166,185.835 182.113,185.872 182.055,185.898C181.801,186.014 181.498,185.904 181.384,185.655C181.357,185.597 181.342,185.534 181.34,185.47C181.307,184.79 181.193,184.323 181,184.07C180.959,184.017 180.914,183.967 180.865,183.921C180.304,183.396 179.358,183.482 178.77,184.111C178.72,184.164 178.673,184.221 178.63,184.28C175.363,188.847 173.177,191.987 172.07,193.7C172.069,193.702 172.068,193.704 172.067,193.706C172.046,193.738 171.999,193.745 171.962,193.721C171.961,193.721 171.961,193.72 171.96,193.72L171.69,193.48C171.579,193.384 171.546,193.227 171.61,193.1C172.23,191.833 172.33,190.74 171.91,189.82C171.714,189.388 171.282,189.11 170.808,189.11C170.514,189.11 170.231,189.216 170.01,189.41C168.897,190.39 167.077,193.563 164.55,198.93C164.521,198.987 164.462,199.023 164.398,199.023C164.305,199.023 164.228,198.946 164.228,198.853C164.228,198.845 164.229,198.838 164.23,198.83L164.95,194.49C164.959,194.439 164.963,194.388 164.963,194.337C164.963,193.838 164.552,193.427 164.053,193.427C164.002,193.427 163.951,193.431 163.9,193.44C162.873,193.607 162.117,194.16 161.63,195.1C159.923,198.393 158.487,201.793 157.32,205.3L156.84,205.29C156.527,201.63 156.1,197.983 155.56,194.35C155.48,193.837 155.35,193.437 155.17,193.15C155.085,193.014 154.976,192.894 154.849,192.795C154.267,192.338 153.425,192.423 152.985,192.985C152.888,193.108 152.815,193.249 152.77,193.4L147.38,210.96C147.327,211.033 147.277,211.097 147.23,211.15C147.217,211.165 147.202,211.18 147.187,211.193C146.995,211.365 146.698,211.351 146.53,211.163C146.516,211.146 146.502,211.128 146.49,211.11C146.35,210.897 146.297,210.69 146.33,210.49C146.763,208.277 146.843,206.42 146.57,204.92C146.451,204.272 145.881,203.796 145.222,203.796C144.904,203.796 144.595,203.907 144.35,204.11C142.06,206 141.33,209.02 140.09,212.36C140.032,212.516 139.882,212.62 139.715,212.62C139.519,212.62 139.35,212.475 139.32,212.28C139.147,211.053 139.247,209.67 139.62,208.13C140.307,205.35 140.87,202.297 141.31,198.97C141.512,197.493 140.489,196.1 139.01,195.84C138.37,195.727 137.713,196.137 137.04,197.07C136.287,198.103 135.763,199.18 135.47,200.3C135.461,200.346 135.412,200.377 135.36,200.37L135.1,200.32C134.99,200.307 134.906,200.212 134.906,200.102C134.906,200.088 134.907,200.074 134.91,200.06C135.39,197.607 136.037,195.15 136.85,192.69C137.47,190.81 137.02,190.02 135.54,189.12C135.228,188.935 134.832,188.963 134.55,189.19C133.637,189.917 132.927,190.777 132.42,191.77C132.361,191.898 132.209,191.956 132.08,191.9L132.07,191.9C131.957,191.849 131.9,191.722 131.94,191.61C133.2,187.837 133.903,184.45 134.05,181.45C134.051,181.429 134.052,181.407 134.052,181.386C134.052,180.738 133.519,180.206 132.872,180.206C132.575,180.206 132.288,180.318 132.07,180.52C131.21,181.307 130.51,182.44 129.97,183.92C128.73,187.293 127.33,190.573 125.77,193.76C125.53,193.673 125.333,193.567 125.18,193.44C126.667,190.253 127.923,186.983 128.95,183.63C130.1,179.89 131.38,178.01 132.77,175.07C132.791,175.025 132.811,174.98 132.829,174.934C133.196,173.976 132.69,172.877 131.707,172.5C131.658,172.481 131.609,172.465 131.56,172.45C131.087,172.31 130.527,172.563 129.88,173.21C128.02,175.07 126.63,177.537 125.71,180.61C125.681,180.777 125.535,180.9 125.365,180.9C125.173,180.9 125.015,180.742 125.015,180.55C125.015,180.53 125.017,180.51 125.02,180.49C125.29,176.71 127.12,173.8 129.29,169.69C129.686,168.933 129.445,167.996 128.74,167.56C127.78,166.967 126.733,166.907 125.6,167.38C122.633,168.613 119.887,170.433 117.36,172.84C117.292,172.901 117.188,172.901 117.12,172.84L116.92,172.67C116.769,172.538 116.747,172.308 116.87,172.15C119.43,168.84 123.67,166.65 127.11,163.64C127.759,163.068 127.915,162.108 127.48,161.36L126.13,159.02C125.953,158.708 125.608,158.522 125.24,158.54C122.347,158.687 119.503,159.687 116.71,161.54C116.635,161.588 116.549,161.614 116.46,161.614C116.207,161.614 116,161.406 116,161.154C116,161.098 116.01,161.042 116.03,160.99C117.2,158.05 121.53,155.22 124.29,153.68C124.617,153.493 124.806,153.129 124.77,152.75C124.737,152.403 124.533,152.087 124.16,151.8C123.938,151.63 123.889,151.312 124.05,151.09C124.303,150.723 124.437,150.383 124.45,150.07C124.452,149.969 124.442,149.868 124.42,149.77C124.249,149.011 123.39,148.547 122.518,148.744C122.405,148.769 122.295,148.805 122.19,148.85C119.81,149.89 117.093,151.81 114.04,154.61C114.029,154.62 114.017,154.631 114.005,154.64C113.727,154.863 113.317,154.821 113.098,154.547C113.088,154.535 113.079,154.523 113.07,154.51L113,154.42C112.767,154.097 112.834,153.642 113.15,153.4C114.763,152.127 116.973,150.587 119.78,148.78C121.25,147.84 122.17,145.15 120.18,144.33C119.647,144.103 118.32,144.32 116.2,144.98C116.17,144.99 116.138,144.995 116.106,144.995C115.942,144.995 115.806,144.86 115.806,144.695C115.806,144.628 115.829,144.563 115.87,144.51C117.637,142.157 117.373,139.52 115.08,136.6C115.94,136.3 116.917,136.193 118.01,136.28C125.75,136.913 133.437,137.12 141.07,136.9C141.08,136.9 141.09,136.899 141.1,136.899C141.5,136.899 141.83,137.229 141.83,137.629C141.83,137.67 141.827,137.71 141.82,137.75C139.82,150.25 144.217,159.973 155.01,166.92C155.28,167.091 155.4,167.426 155.3,167.73C154.11,171.42 149.02,183.3 152.31,187.52C154.67,190.54 158.97,190.69 161.28,187.71C164.62,183.39 163.94,176.32 163.05,171.01C163.045,170.982 163.043,170.954 163.043,170.926C163.043,170.641 163.278,170.406 163.563,170.406C163.616,170.406 163.669,170.414 163.72,170.43C176.43,174.48 191.15,174.4 199.72,162.94C206.26,154.2 208.54,138.54 202.99,128.76C202.809,128.45 202.911,128.044 203.22,127.85C207.687,125.043 212.62,124.463 218.02,126.11C218.35,126.216 218.575,126.525 218.575,126.872C218.575,127.004 218.542,127.134 218.48,127.25C212.71,137.91 214.11,149.44 222.7,158.29C228.907,164.683 236.763,167.933 246.27,168.04C246.464,168.044 246.625,168.192 246.64,168.38L247.68,178.61C247.795,179.741 247.239,180.842 246.26,181.42C237.67,186.51 218.64,186.58 212.27,177.41C211.995,177.009 211.509,176.805 211.03,176.89C209.303,177.203 208.367,178.697 208.22,181.37Z" style="fill:rgb(253,253,253);fill-rule:nonzero;"/>
        <path d="M106.52,146.15C106.367,148.743 106.98,150.143 108.36,150.35C108.668,150.395 108.899,150.662 108.899,150.973C108.899,151.066 108.879,151.157 108.84,151.24L107.31,154.53C107.185,154.793 107.12,155.08 107.12,155.37C107.127,157.397 107.94,158.33 109.56,158.17C109.633,158.162 109.706,158.168 109.776,158.19C110.053,158.276 110.209,158.58 110.121,158.863C110.1,158.932 110.066,158.995 110.02,159.05C108.693,160.61 108.117,161.77 108.29,162.53C108.395,162.963 108.738,163.298 109.17,163.39L112.1,164.02C112.423,164.092 112.655,164.382 112.655,164.713C112.655,164.885 112.593,165.051 112.48,165.18L109.19,168.95C108.979,169.193 108.907,169.529 109,169.84L109.37,171.01C99.01,165.27 90.61,159.82 88.44,147.54C87.733,143.54 88.707,140.083 91.36,137.17C97.38,130.57 103.62,138.76 104.44,144.51C104.547,145.257 105.24,145.803 106.52,146.15ZM92.14,149.14C91.977,149.401 91.89,149.703 91.89,150.01C91.89,150.91 92.63,151.65 93.53,151.65C93.875,151.65 94.211,151.542 94.49,151.34L96.36,149.98C96.607,149.801 96.905,149.705 97.21,149.705C98.005,149.705 98.66,150.359 98.66,151.155C98.66,151.156 98.66,151.158 98.66,151.16L98.64,152.97C98.64,152.981 98.64,152.991 98.64,153.002C98.646,154.231 99.667,155.237 100.902,155.23C100.911,155.23 100.921,155.23 100.93,155.23L100.95,155.23C100.967,155.23 100.984,155.231 101.001,155.231C102.03,155.231 102.883,154.399 102.91,153.37C103.03,149.13 100.977,146.61 96.75,145.81C96.375,145.739 95.989,145.799 95.66,145.98C94.113,146.807 92.94,147.86 92.14,149.14Z" style="fill:rgb(253,253,253);fill-rule:nonzero;"/>
        <path d="M115.08,136.6C117.373,139.52 117.637,142.157 115.87,144.51C115.829,144.563 115.806,144.628 115.806,144.695C115.806,144.86 115.942,144.995 116.106,144.995C116.138,144.995 116.17,144.99 116.2,144.98C118.32,144.32 119.647,144.103 120.18,144.33C122.17,145.15 121.25,147.84 119.78,148.78C116.973,150.587 114.763,152.127 113.15,153.4C112.834,153.642 112.767,154.097 113,154.42L113.07,154.51C113.079,154.523 113.088,154.535 113.098,154.547C113.317,154.821 113.727,154.863 114.005,154.64C114.017,154.631 114.029,154.62 114.04,154.61C117.093,151.81 119.81,149.89 122.19,148.85C122.295,148.805 122.405,148.769 122.518,148.744C123.39,148.547 124.249,149.011 124.42,149.77C124.442,149.868 124.452,149.969 124.45,150.07C124.437,150.383 124.303,150.723 124.05,151.09C123.889,151.312 123.938,151.63 124.16,151.8C124.533,152.087 124.737,152.403 124.77,152.75C124.806,153.129 124.617,153.493 124.29,153.68C121.53,155.22 117.2,158.05 116.03,160.99C116.01,161.042 116,161.098 116,161.154C116,161.406 116.207,161.614 116.46,161.614C116.549,161.614 116.635,161.588 116.71,161.54C119.503,159.687 122.347,158.687 125.24,158.54C125.608,158.522 125.953,158.708 126.13,159.02L127.48,161.36C127.915,162.108 127.759,163.068 127.11,163.64C123.67,166.65 119.43,168.84 116.87,172.15C116.747,172.308 116.769,172.538 116.92,172.67L117.12,172.84C117.188,172.901 117.292,172.901 117.36,172.84C119.887,170.433 122.633,168.613 125.6,167.38C126.733,166.907 127.78,166.967 128.74,167.56C129.445,167.996 129.686,168.933 129.29,169.69C127.12,173.8 125.29,176.71 125.02,180.49C125.017,180.51 125.015,180.53 125.015,180.55C125.015,180.742 125.173,180.9 125.365,180.9C125.535,180.9 125.681,180.777 125.71,180.61C126.63,177.537 128.02,175.07 129.88,173.21C130.527,172.563 131.087,172.31 131.56,172.45C131.609,172.465 131.658,172.481 131.707,172.5C132.69,172.877 133.196,173.976 132.829,174.934C132.811,174.98 132.791,175.025 132.77,175.07C131.38,178.01 130.1,179.89 128.95,183.63C127.923,186.983 126.667,190.253 125.18,193.44C124.933,194.12 124.623,194.503 124.25,194.59C123.41,194.25 122.84,194.347 122.54,194.88C120.853,192.653 119.797,190.153 119.37,187.38C119.344,187.189 119.361,186.994 119.42,186.81C119.6,186.223 119.51,185.86 119.15,185.72L120.94,180.52C120.952,180.488 120.958,180.454 120.958,180.419C120.958,180.26 120.827,180.129 120.668,180.129C120.616,180.129 120.565,180.143 120.52,180.17C119.14,180.937 118.287,182.037 117.96,183.47L112.32,174.95C112.184,174.742 112.117,174.497 112.13,174.25L112.2,172.78C112.713,172.733 112.993,172.59 113.04,172.35C113.056,172.27 113.064,172.189 113.064,172.108C113.064,171.428 112.504,170.868 111.824,170.868C111.799,170.868 111.775,170.869 111.75,170.87C111.297,170.903 110.79,171.097 110.23,171.45C109.977,171.737 109.69,171.59 109.37,171.01L109,169.84C108.907,169.529 108.979,169.193 109.19,168.95L112.48,165.18C112.593,165.051 112.655,164.885 112.655,164.713C112.655,164.382 112.423,164.092 112.1,164.02L109.17,163.39C108.738,163.298 108.395,162.963 108.29,162.53C108.117,161.77 108.693,160.61 110.02,159.05C110.066,158.995 110.1,158.932 110.121,158.863C110.209,158.58 110.053,158.276 109.776,158.19C109.706,158.168 109.633,158.162 109.56,158.17C107.94,158.33 107.127,157.397 107.12,155.37C107.12,155.08 107.185,154.793 107.31,154.53L108.84,151.24C108.879,151.157 108.899,151.066 108.899,150.973C108.899,150.662 108.668,150.395 108.36,150.35C106.98,150.143 106.367,148.743 106.52,146.15C106.787,146.103 107.037,145.983 107.27,145.79C107.506,145.599 107.651,145.319 107.67,145.02L107.86,141.45C107.883,141.061 108.145,140.722 108.52,140.6C110.567,139.947 112.397,138.637 114.01,136.67C114.119,136.534 114.272,136.442 114.44,136.41C114.767,136.35 114.98,136.413 115.08,136.6Z" style="fill:rgb(47,47,45);fill-rule:nonzero;"/>
        <path d="M92.14,149.14C92.94,147.86 94.113,146.807 95.66,145.98C95.989,145.799 96.375,145.739 96.75,145.81C100.977,146.61 103.03,149.13 102.91,153.37C102.883,154.399 102.03,155.231 101.001,155.231C100.984,155.231 100.967,155.23 100.95,155.23L100.93,155.23C100.921,155.23 100.911,155.23 100.902,155.23C99.667,155.237 98.646,154.231 98.64,153.002C98.64,152.991 98.64,152.981 98.64,152.97L98.66,151.16C98.66,151.158 98.66,151.156 98.66,151.155C98.66,150.359 98.005,149.705 97.21,149.705C96.905,149.705 96.607,149.801 96.36,149.98L94.49,151.34C94.211,151.542 93.875,151.65 93.53,151.65C92.63,151.65 91.89,150.91 91.89,150.01C91.89,149.703 91.977,149.401 92.14,149.14Z" style="fill-rule:nonzero;"/>
        <path d="M257.13,156.95C257.205,156.889 257.298,156.856 257.395,156.856C257.625,156.856 257.815,157.046 257.815,157.276C257.815,157.297 257.813,157.319 257.81,157.34L257.1,161.69C256.979,162.408 256.422,162.977 255.71,163.11L248.93,164.4C248.921,164.402 248.912,164.403 248.903,164.404C248.69,164.428 248.496,164.278 248.472,164.071C248.471,164.06 248.47,164.05 248.47,164.04L248.36,161.16C248.319,160.164 247.558,159.336 246.57,159.21C238.61,158.18 232.78,157.55 227.8,150.68C227.747,150.601 227.719,150.508 227.719,150.413C227.719,150.149 227.935,149.933 228.199,149.933C228.291,149.933 228.382,149.959 228.46,150.01C233.027,153.25 238.22,154.627 244.04,154.14C246.207,153.967 249.11,153.41 252.75,152.47C253.737,152.217 254.79,152.2 255.91,152.42C256.481,152.536 256.896,153.043 256.896,153.626C256.896,153.939 256.776,154.242 256.56,154.47C255.12,155.983 253.027,157.413 250.28,158.76C249.947,158.92 249.75,159.107 249.69,159.32C249.675,159.375 249.668,159.431 249.669,159.487C249.676,159.86 250.033,160.161 250.461,160.154C250.525,160.153 250.588,160.145 250.65,160.13C253.17,159.523 255.33,158.463 257.13,156.95Z" style="fill:rgb(180,209,220);fill-rule:nonzero;"/>
        <path d="M187.4,151.82C187.484,151.787 187.575,151.776 187.664,151.788C187.953,151.825 188.16,152.088 188.124,152.371C188.112,152.461 188.076,152.547 188.02,152.62C184.15,157.78 179.21,159.23 172.1,161.45C171.555,161.619 170.969,161.608 170.43,161.42C165.65,159.74 163.51,158.2 161.29,163.93C161.056,164.525 160.478,164.919 159.838,164.919C159.009,164.919 158.318,164.258 158.28,163.43L158.13,159.64C158.098,158.872 157.709,158.163 157.08,157.73C155.367,156.537 154.527,155.733 154.56,155.32C154.561,155.311 154.561,155.302 154.562,155.293C154.674,154.136 155.952,153.297 157.393,153.436C157.406,153.437 157.418,153.439 157.43,153.44C157.723,153.467 159.727,153.903 163.44,154.75C172.12,156.73 180.23,154.75 187.4,151.82Z" style="fill:rgb(180,209,220);fill-rule:nonzero;"/>
        <path d="M173.1,166.49C173.083,166.44 173.075,166.388 173.075,166.335C173.075,166.124 173.21,165.936 173.41,165.87L177.99,164.26C180.728,163.301 183.165,163.036 183.388,163.673C183.388,163.675 183.389,163.678 183.39,163.68L183.45,163.85C183.672,164.487 181.602,165.8 178.864,166.759C178.862,166.759 178.861,166.76 178.86,166.76L174.28,168.36C174.226,168.379 174.17,168.389 174.113,168.389C173.905,168.389 173.718,168.257 173.65,168.06L173.1,166.49Z" style="fill-rule:nonzero;"/>
        <path d="M250.65,177.67L249.72,168.49C249.683,168.099 249.954,167.741 250.34,167.67L255.83,166.63C255.845,166.627 255.859,166.626 255.874,166.626C256,166.626 256.104,166.73 256.104,166.856C256.104,166.871 256.103,166.885 256.1,166.9C255.267,171.193 253.63,174.837 251.19,177.83C251.165,177.863 251.134,177.889 251.098,177.909C250.953,177.988 250.768,177.93 250.686,177.78C250.667,177.746 250.655,177.709 250.65,177.67Z" style="fill:rgb(253,253,253);fill-rule:nonzero;"/>
        <path d="M160.32,169.63C161.09,174.15 162.49,184.51 158.51,186.49C156.04,187.72 154.13,186.39 154.11,183.66C154.097,181.653 154.377,179.757 154.95,177.97C156.777,172.263 157.723,169.347 157.79,169.22C157.888,169.039 158.026,168.883 158.194,168.763C158.799,168.327 159.654,168.464 160.086,169.065C160.206,169.233 160.286,169.426 160.32,169.63Z" style="fill:rgb(180,209,220);fill-rule:nonzero;"/>
        <path d="M112.2,172.78C111.427,172.62 110.77,172.177 110.23,171.45C110.79,171.097 111.297,170.903 111.75,170.87C111.775,170.869 111.799,170.868 111.824,170.868C112.504,170.868 113.064,171.428 113.064,172.108C113.064,172.189 113.056,172.27 113.04,172.35C112.993,172.59 112.713,172.733 112.2,172.78Z" style="fill:rgb(253,253,253);fill-rule:nonzero;"/>
        <path d="M208.22,181.37C208.767,182.457 209.84,183.327 211.44,183.98C211.013,185 210.82,186.11 210.86,187.31C210.913,189.197 210.23,190.577 208.81,191.45C208.606,191.573 208.372,191.638 208.133,191.638C207.415,191.638 206.823,191.047 206.823,190.328C206.823,190.259 206.829,190.189 206.84,190.12L207.37,186.96C207.373,186.94 207.374,186.92 207.374,186.9C207.374,186.669 207.185,186.48 206.954,186.48C206.844,186.48 206.739,186.523 206.66,186.6C204.49,188.79 203.01,191.78 199.62,192.37C199.603,192.373 199.585,192.375 199.568,192.377C199.11,192.425 198.693,192.083 198.644,191.62C198.642,191.603 198.641,191.587 198.64,191.57L198.53,188.82C198.527,188.773 198.516,188.727 198.498,188.683C198.411,188.476 198.173,188.375 197.97,188.461C197.926,188.479 197.885,188.506 197.85,188.54L192.94,193.15C192.88,193.203 192.81,193.25 192.73,193.29C191.377,193.943 190.177,194.013 189.13,193.5C188.838,193.358 188.652,193.06 188.652,192.736C188.652,192.606 188.682,192.477 188.74,192.36L191.4,187C191.411,186.972 191.403,186.939 191.38,186.92L191.26,186.82C191.193,186.767 191.096,186.776 191.04,186.84L182.17,197.01C181.974,197.232 181.721,197.395 181.44,197.48C180.547,197.733 179.837,197.803 179.31,197.69C179.283,197.684 179.256,197.677 179.229,197.669C178.598,197.479 178.234,196.809 178.421,196.184C178.43,196.156 178.439,196.128 178.45,196.1L179.65,192.9C179.662,192.869 179.669,192.835 179.669,192.801C179.669,192.653 179.547,192.531 179.399,192.531C179.318,192.531 179.241,192.568 179.19,192.63C176.723,195.657 174.367,199.153 172.12,203.12C171.693,203.873 170.89,204.297 169.71,204.39C169.689,204.392 169.668,204.393 169.647,204.393C168.737,204.424 167.962,203.677 167.931,202.739C167.93,202.716 167.93,202.693 167.93,202.67C167.937,201.797 167.88,201.2 167.76,200.88C167.701,200.725 167.552,200.622 167.386,200.622C167.228,200.622 167.084,200.715 167.02,200.86L165.37,204.59L158.87,211.59C158.751,211.715 158.586,211.786 158.413,211.786C158.103,211.786 157.836,211.557 157.79,211.25L156.96,205.79C157.107,205.663 157.227,205.5 157.32,205.3C158.487,201.793 159.923,198.393 161.63,195.1C162.117,194.16 162.873,193.607 163.9,193.44C163.951,193.431 164.002,193.427 164.053,193.427C164.552,193.427 164.963,193.838 164.963,194.337C164.963,194.388 164.959,194.439 164.95,194.49L164.23,198.83C164.229,198.838 164.228,198.845 164.228,198.853C164.228,198.946 164.305,199.023 164.398,199.023C164.462,199.023 164.521,198.987 164.55,198.93C167.077,193.563 168.897,190.39 170.01,189.41C170.231,189.216 170.514,189.11 170.808,189.11C171.282,189.11 171.714,189.388 171.91,189.82C172.33,190.74 172.23,191.833 171.61,193.1C171.546,193.227 171.579,193.384 171.69,193.48L171.96,193.72C171.961,193.72 171.961,193.721 171.962,193.721C171.999,193.745 172.046,193.738 172.067,193.706C172.068,193.704 172.069,193.702 172.07,193.7C173.177,191.987 175.363,188.847 178.63,184.28C178.673,184.221 178.72,184.164 178.77,184.111C179.358,183.482 180.304,183.396 180.865,183.921C180.914,183.967 180.959,184.017 181,184.07C181.193,184.323 181.307,184.79 181.34,185.47C181.342,185.534 181.357,185.597 181.384,185.655C181.498,185.904 181.801,186.014 182.055,185.898C182.113,185.872 182.166,185.835 182.21,185.79C183.07,184.91 184.5,183.523 186.5,181.63C186.872,181.274 187.367,181.076 187.882,181.076C188.504,181.076 189.092,181.366 189.47,181.86C189.737,182.22 189.627,182.827 189.14,183.68C188.92,184.067 188.58,184.793 188.12,185.86C188.1,185.89 188.09,185.924 188.09,185.96C188.09,186.059 188.171,186.14 188.27,186.14C188.33,186.14 188.387,186.11 188.42,186.06C189.333,185.08 191.15,183.1 193.87,180.12C194.397,179.533 195.077,179.313 195.91,179.46C195.948,179.467 195.986,179.475 196.024,179.484C196.762,179.675 197.214,180.436 197.024,181.168C197.014,181.206 197.003,181.243 196.99,181.28C196.257,183.367 195.257,185.38 193.99,187.32C193.928,187.412 193.945,187.538 194.03,187.61L194.26,187.81C194.268,187.819 194.279,187.824 194.29,187.824C194.301,187.824 194.312,187.819 194.32,187.81L201.51,179.57C201.616,179.449 201.74,179.344 201.877,179.26C202.625,178.8 203.616,179.033 204.073,179.776C204.158,179.913 204.221,180.063 204.26,180.22C204.28,180.307 204.193,180.74 204,181.52C203.627,183.007 203.207,184.427 202.74,185.78C202.732,185.8 202.728,185.821 202.728,185.842C202.728,185.935 202.805,186.012 202.898,186.012C202.939,186.012 202.979,185.997 203.01,185.97L208.22,181.37Z" style="fill:rgb(47,47,45);fill-rule:nonzero;"/>
        <path d="M119.15,185.72L117.96,183.47C118.287,182.037 119.14,180.937 120.52,180.17C120.565,180.143 120.616,180.129 120.668,180.129C120.827,180.129 120.958,180.26 120.958,180.419C120.958,180.454 120.952,180.488 120.94,180.52L119.15,185.72Z" style="fill:rgb(253,253,253);fill-rule:nonzero;"/>
        <path d="M147.38,210.96C146.64,218.54 148.087,222.803 151.72,223.75L151.69,231.22C151.243,230.913 150.79,230.767 150.33,230.78C149.203,230.813 148.477,230.75 148.15,230.59C146.31,229.663 145.13,228.297 144.61,226.49C145.03,227.063 145.32,227.25 145.48,227.05C145.987,226.41 146.13,225.793 145.91,225.2C145.717,224.687 145.403,224.57 144.97,224.85C144.623,225.07 144.46,225.45 144.48,225.99L140.96,222.6C141.547,220.953 141.747,219.137 141.56,217.15C141.548,216.989 141.412,216.862 141.251,216.862C141.152,216.862 141.058,216.91 141,216.99C140.853,217.183 140.73,217.47 140.63,217.85C137.83,215.937 135.8,213.217 134.54,209.69C133.413,209.903 132.78,210.343 132.64,211.01C130.147,209.01 128.343,206.517 127.23,203.53C128.31,203.617 128.833,203.097 128.8,201.97C128.799,201.944 128.797,201.918 128.793,201.893C128.741,201.557 128.426,201.322 128.095,201.373C128.07,201.377 128.045,201.383 128.02,201.39L127.13,201.64C125.47,200.867 124.373,199.267 123.84,196.84C124.44,196.8 124.817,196.147 124.97,194.88C125.263,194.62 125.53,194.247 125.77,193.76C127.33,190.573 128.73,187.293 129.97,183.92C130.51,182.44 131.21,181.307 132.07,180.52C132.288,180.318 132.575,180.206 132.872,180.206C133.519,180.206 134.052,180.738 134.052,181.386C134.052,181.407 134.051,181.429 134.05,181.45C133.903,184.45 133.2,187.837 131.94,191.61C131.9,191.722 131.957,191.849 132.07,191.9L132.08,191.9C132.209,191.956 132.361,191.898 132.42,191.77C132.927,190.777 133.637,189.917 134.55,189.19C134.832,188.963 135.228,188.935 135.54,189.12C137.02,190.02 137.47,190.81 136.85,192.69C136.037,195.15 135.39,197.607 134.91,200.06C134.907,200.074 134.906,200.088 134.906,200.102C134.906,200.212 134.99,200.307 135.1,200.32L135.36,200.37C135.412,200.377 135.461,200.346 135.47,200.3C135.763,199.18 136.287,198.103 137.04,197.07C137.713,196.137 138.37,195.727 139.01,195.84C140.489,196.1 141.512,197.493 141.31,198.97C140.87,202.297 140.307,205.35 139.62,208.13C139.247,209.67 139.147,211.053 139.32,212.28C139.35,212.475 139.519,212.62 139.715,212.62C139.882,212.62 140.032,212.516 140.09,212.36C141.33,209.02 142.06,206 144.35,204.11C144.595,203.907 144.904,203.796 145.222,203.796C145.881,203.796 146.451,204.272 146.57,204.92C146.843,206.42 146.763,208.277 146.33,210.49C146.297,210.69 146.35,210.897 146.49,211.11C146.502,211.128 146.516,211.146 146.53,211.163C146.698,211.351 146.995,211.365 147.187,211.193C147.202,211.18 147.217,211.165 147.23,211.15C147.277,211.097 147.327,211.033 147.38,210.96Z" style="fill:rgb(47,47,45);fill-rule:nonzero;"/>
        <path d="M211.44,183.98L211.97,191.3C211.94,192.44 212.681,193.466 213.77,193.79L214.03,193.85C214.139,193.877 214.251,193.891 214.363,193.891C215.126,193.891 215.753,193.263 215.753,192.501C215.753,192.437 215.749,192.373 215.74,192.31L214.89,186.04C214.888,186.023 214.887,186.005 214.887,185.988C214.887,185.758 215.076,185.568 215.307,185.568C215.37,185.568 215.433,185.582 215.49,185.61L216.02,185.89C216.545,186.159 216.905,186.672 216.98,187.26C217.48,191.313 217.887,194.153 218.2,195.78C218.59,197.85 220.5,197.94 221.59,196.3C222.06,195.75 222.38,195.05 222.38,194.37C222.4,194.81 222.45,195.14 222.75,195.46L223.96,201.76C224.051,202.222 224.46,202.559 224.931,202.559C225.193,202.559 225.445,202.455 225.63,202.27L226.81,201.09C226.896,201.005 227.012,200.958 227.133,200.958C227.367,200.958 227.566,201.137 227.59,201.37C227.79,203.57 228.25,205.17 229.83,206.82C230.703,207.733 231.153,208.99 231.18,210.59C231.186,210.895 231.058,211.188 230.83,211.39C229.85,212.263 229.36,213.513 229.36,215.14C229.36,215.677 228.927,216.124 228.39,216.14C227.183,216.193 226.41,216.753 226.07,217.82C225.537,219.5 225.017,221.52 224.51,223.88C224.467,224.083 224.287,224.229 224.08,224.229C223.899,224.229 223.736,224.118 223.67,223.95L223.08,222.49C222.961,222.187 222.706,221.955 222.39,221.86C221.27,221.54 220.393,221.777 219.76,222.57C219.57,222.805 219.449,223.089 219.41,223.39C218.79,227.897 217.447,232.113 215.38,236.04C214.893,236.42 214.317,236.67 213.65,236.79L215.38,226.89C215.391,226.827 215.396,226.764 215.396,226.701C215.396,226.097 214.9,225.601 214.296,225.601C214.175,225.601 214.055,225.621 213.94,225.66C213.333,225.873 212.957,226.16 212.81,226.52C211.163,230.613 209.963,234.817 209.21,239.13C208.623,239.963 207.727,240.487 206.52,240.7C207.147,237.393 207.767,234.137 208.38,230.93C208.66,229.457 208.673,227.937 208.42,226.37C208.368,226.036 208.104,225.772 207.77,225.72C206.55,225.527 205.76,226.037 205.4,227.25C203.967,232.15 201.947,236.287 199.34,239.66C199.291,239.729 199.212,239.771 199.127,239.771C198.985,239.771 198.867,239.653 198.867,239.511C198.867,239.483 198.872,239.456 198.88,239.43C199.98,235.24 201.47,230.76 200.51,227.18C200.412,226.83 200.061,226.611 199.71,226.68C198.737,226.867 198.007,227.497 197.52,228.57C195.393,233.21 193.247,237.633 191.08,241.84C191.054,241.888 191.019,241.931 190.977,241.966C190.803,242.109 190.546,242.087 190.406,241.918C190.37,241.875 190.345,241.824 190.33,241.77C190.043,240.79 190.137,239.387 190.61,237.56C191.517,234.087 192.073,230.9 192.28,228C192.287,227.897 192.281,227.795 192.261,227.694C192.131,227.038 191.449,226.611 190.749,226.75C190.642,226.771 190.538,226.805 190.44,226.85C190.153,226.983 189.953,227.213 189.84,227.54C187.973,233.12 185.093,238.17 181.2,242.69C180.78,242.89 180.25,242.84 179.61,242.54C181.61,239.18 184.29,236.12 185.11,232.37C185.138,232.245 185.152,232.117 185.152,231.989C185.152,231.152 184.552,230.427 183.73,230.27C183.017,230.13 182.397,230.417 181.87,231.13C181.35,231.837 179.337,234.96 175.83,240.5C175.759,240.641 175.613,240.73 175.455,240.73C175.224,240.73 175.035,240.541 175.035,240.31C175.035,240.244 175.05,240.179 175.08,240.12L179.3,228.92C179.386,228.687 179.41,228.435 179.37,228.19C179.243,227.416 178.506,226.882 177.738,227.008C177.492,227.048 177.262,227.152 177.07,227.31C175.17,228.857 173.653,231.047 172.52,233.88C172.519,233.882 172.518,233.884 172.517,233.886C172.423,234.109 172.167,234.216 171.95,234.124C171.947,234.123 171.943,234.122 171.94,234.12L171.92,234.11C171.853,234.078 171.822,233.999 171.85,233.93C172.817,231.617 173.323,229.21 173.37,226.71C173.37,226.704 173.37,226.699 173.37,226.693C173.37,225.892 172.711,225.233 171.91,225.233C171.543,225.233 171.19,225.371 170.92,225.62C169.993,226.48 169.217,227.62 168.59,229.04C167.33,231.9 165.967,234.72 164.5,237.5C164.52,237.82 164.377,238.013 164.07,238.08C164.046,238.085 164.021,238.088 163.996,238.088C163.818,238.088 163.666,237.956 163.64,237.78C162.82,232.74 163.67,230.18 165.16,223.38C165.375,222.384 164.941,221.357 164.08,220.82L163.97,220.74C163.739,220.582 163.466,220.498 163.186,220.498C162.581,220.498 162.042,220.893 161.86,221.47L158.5,232.36C158.457,232.498 158.329,232.592 158.185,232.592C158.026,232.592 157.888,232.477 157.86,232.32C156.907,227.347 156.917,222.453 157.89,217.64C158.177,216.24 158.267,214.97 158.16,213.83C158.159,213.818 158.159,213.807 158.159,213.795C158.159,213.559 158.353,213.365 158.589,213.365C158.692,213.365 158.792,213.402 158.87,213.47L159.96,214.42C159.984,214.441 160.01,214.461 160.037,214.478C160.332,214.668 160.734,214.578 160.927,214.278C160.943,214.253 160.957,214.227 160.97,214.2L165.37,204.59L167.02,200.86C167.084,200.715 167.228,200.622 167.386,200.622C167.552,200.622 167.701,200.725 167.76,200.88C167.88,201.2 167.937,201.797 167.93,202.67C167.93,202.693 167.93,202.716 167.931,202.739C167.962,203.677 168.737,204.424 169.647,204.393C169.668,204.393 169.689,204.392 169.71,204.39C170.89,204.297 171.693,203.873 172.12,203.12C174.367,199.153 176.723,195.657 179.19,192.63C179.241,192.568 179.318,192.531 179.399,192.531C179.547,192.531 179.669,192.653 179.669,192.801C179.669,192.835 179.662,192.869 179.65,192.9L178.45,196.1C178.439,196.128 178.43,196.156 178.421,196.184C178.234,196.809 178.598,197.479 179.229,197.669C179.256,197.677 179.283,197.684 179.31,197.69C179.837,197.803 180.547,197.733 181.44,197.48C181.721,197.395 181.974,197.232 182.17,197.01L191.04,186.84C191.096,186.776 191.193,186.767 191.26,186.82L191.38,186.92C191.403,186.939 191.411,186.972 191.4,187L188.74,192.36C188.682,192.477 188.652,192.606 188.652,192.736C188.652,193.06 188.838,193.358 189.13,193.5C190.177,194.013 191.377,193.943 192.73,193.29C192.81,193.25 192.88,193.203 192.94,193.15L197.85,188.54C197.885,188.506 197.926,188.479 197.97,188.461C198.173,188.375 198.411,188.476 198.498,188.683C198.516,188.727 198.527,188.773 198.53,188.82L198.64,191.57C198.641,191.587 198.642,191.603 198.644,191.62C198.693,192.083 199.11,192.425 199.568,192.377C199.585,192.375 199.603,192.373 199.62,192.37C203.01,191.78 204.49,188.79 206.66,186.6C206.739,186.523 206.844,186.48 206.954,186.48C207.185,186.48 207.374,186.669 207.374,186.9C207.374,186.92 207.373,186.94 207.37,186.96L206.84,190.12C206.829,190.189 206.823,190.259 206.823,190.328C206.823,191.047 207.415,191.638 208.133,191.638C208.372,191.638 208.606,191.573 208.81,191.45C210.23,190.577 210.913,189.197 210.86,187.31C210.82,186.11 211.013,185 211.44,183.98ZM167.96,216.31C168.533,216.67 169.51,216.983 170.89,217.25C171.396,217.35 171.897,217.03 172.02,216.53L172.66,213.93C172.693,213.773 172.769,213.628 172.88,213.51C181.767,204.083 192.903,200.07 206.29,201.47C210.997,201.97 214.997,203.937 218.29,207.37C218.777,207.877 219.61,209.637 220.79,212.65C220.825,212.74 220.869,212.827 220.92,212.909C221.378,213.644 222.364,213.871 223.104,213.41C223.184,213.36 223.26,213.303 223.33,213.24L223.39,213.18C224.336,212.329 224.628,210.958 224.11,209.8C218.67,197.64 207.99,196 195.66,197.37C184.29,198.64 173.61,204.47 167.55,214.55C167.187,215.147 167.37,215.935 167.96,216.31ZM198.78,210.52C201.86,210.17 203.75,210.82 206.2,211.05C206.326,211.061 206.452,211.056 206.576,211.033C207.315,210.897 207.814,210.186 207.68,209.458C207.657,209.333 207.617,209.213 207.56,209.1C206.35,206.65 201.03,206.78 198.39,207.07C195.74,207.37 190.53,208.44 189.89,211.09C189.859,211.214 189.847,211.341 189.852,211.468C189.884,212.208 190.529,212.79 191.28,212.757C191.406,212.752 191.53,212.729 191.65,212.69C193.99,211.92 195.69,210.87 198.78,210.52Z" style="fill:rgb(253,253,253);fill-rule:nonzero;"/>
        <path d="M246.2,187.83C246.02,188.323 245.84,188.673 245.66,188.88C245.656,188.885 245.651,188.89 245.647,188.895C245.438,189.12 245.084,189.137 244.863,188.932C244.858,188.928 244.854,188.924 244.85,188.92C244.217,188.293 244.007,187.687 244.22,187.1C244.433,186.513 244.983,186.187 245.87,186.12C245.879,186.119 245.887,186.119 245.896,186.118C246.197,186.105 246.456,186.347 246.47,186.654C246.47,186.659 246.47,186.665 246.47,186.67C246.47,186.943 246.38,187.33 246.2,187.83Z" style="fill:rgb(253,253,253);fill-rule:nonzero;"/>
        <path d="M222.75,188.08C222.977,188.36 222.857,188.737 222.39,189.21L221.38,189.22C221.233,188.867 221.163,188.543 221.17,188.25C221.183,187.83 221.377,187.62 221.75,187.62C222.057,187.62 222.39,187.773 222.75,188.08Z" style="fill:rgb(253,253,253);fill-rule:nonzero;"/>
        <path d="M234.17,203.31C233.29,203.89 232.713,203.337 232.44,201.65C232.15,199.83 231.53,191.14 228.14,191.68C227.58,191.773 227.187,192.29 226.96,193.23C226.922,193.387 226.781,193.498 226.62,193.498C226.482,193.498 226.356,193.416 226.3,193.29L224.26,188.7C224.236,188.647 224.223,188.589 224.223,188.53C224.223,188.305 224.408,188.12 224.633,188.12C224.635,188.12 224.638,188.12 224.64,188.12C224.76,188.12 224.897,188.14 225.05,188.18C230.11,188.633 235.19,188.52 240.29,187.84C240.321,187.836 240.352,187.834 240.384,187.834C240.751,187.834 241.062,188.115 241.1,188.48L241.43,191.7C241.443,191.867 241.389,192.036 241.28,192.17L237.35,196.66C237.24,196.782 237.177,196.941 237.17,197.11L236.88,202.3C236.874,202.515 236.695,202.688 236.48,202.688C236.318,202.688 236.171,202.59 236.11,202.44C235.883,201.933 235.56,201.62 235.14,201.5C234.647,201.36 234.307,201.537 234.12,202.03C233.98,202.39 233.997,202.817 234.17,203.31Z" style="fill:rgb(253,253,253);fill-rule:nonzero;"/>
        <path d="M225.05,188.18C224.897,188.14 224.76,188.12 224.64,188.12C224.638,188.12 224.635,188.12 224.633,188.12C224.408,188.12 224.223,188.305 224.223,188.53C224.223,188.589 224.236,188.647 224.26,188.7L226.3,193.29C226.356,193.416 226.482,193.498 226.62,193.498C226.781,193.498 226.922,193.387 226.96,193.23C227.187,192.29 227.58,191.773 228.14,191.68C231.53,191.14 232.15,199.83 232.44,201.65C232.713,203.337 233.29,203.89 234.17,203.31L234.02,212.08C234.02,212.09 234.021,212.1 234.021,212.11C234.021,212.456 233.736,212.741 233.39,212.741C233.055,212.741 232.776,212.474 232.76,212.14L232.62,210.72C232.598,210.507 232.416,210.344 232.202,210.344C232.038,210.344 231.888,210.44 231.82,210.59C231.753,210.737 231.69,210.967 231.63,211.28C230.943,214.767 230.527,217.093 230.38,218.26C230.067,220.72 229.077,222.703 227.41,224.21C225.817,225.643 224.65,226.98 223.91,228.22C223.738,228.512 223.525,228.771 223.28,228.99L215.38,236.04C217.447,232.113 218.79,227.897 219.41,223.39C219.449,223.089 219.57,222.805 219.76,222.57C220.393,221.777 221.27,221.54 222.39,221.86C222.706,221.955 222.961,222.187 223.08,222.49L223.67,223.95C223.736,224.118 223.899,224.229 224.08,224.229C224.287,224.229 224.467,224.083 224.51,223.88C225.017,221.52 225.537,219.5 226.07,217.82C226.41,216.753 227.183,216.193 228.39,216.14C228.927,216.124 229.36,215.677 229.36,215.14C229.36,213.513 229.85,212.263 230.83,211.39C231.058,211.188 231.186,210.895 231.18,210.59C231.153,208.99 230.703,207.733 229.83,206.82C228.25,205.17 227.79,203.57 227.59,201.37C227.566,201.137 227.367,200.958 227.133,200.958C227.012,200.958 226.896,201.005 226.81,201.09L225.63,202.27C225.445,202.455 225.193,202.559 224.931,202.559C224.46,202.559 224.051,202.222 223.96,201.76L222.75,195.46L222.39,189.21C222.857,188.737 222.977,188.36 222.75,188.08C223.443,187.827 224.21,187.86 225.05,188.18Z" style="fill:rgb(47,47,45);fill-rule:nonzero;"/>
        <path d="M222.39,189.21L222.75,195.46C222.45,195.14 222.4,194.81 222.38,194.37C222.38,195.05 222.06,195.75 221.59,196.3L221.38,189.22L222.39,189.21Z" style="fill:rgb(122,127,112);fill-rule:nonzero;"/>
        <path d="M125.18,193.44C125.333,193.567 125.53,193.673 125.77,193.76C125.53,194.247 125.263,194.62 124.97,194.88C124.75,194.713 124.51,194.617 124.25,194.59C124.623,194.503 124.933,194.12 125.18,193.44Z" style="fill:rgb(180,209,220);fill-rule:nonzero;"/>
        <path d="M124.25,194.59C124.51,194.617 124.75,194.713 124.97,194.88C124.817,196.147 124.44,196.8 123.84,196.84C123.22,196.367 122.787,195.713 122.54,194.88C122.84,194.347 123.41,194.25 124.25,194.59Z" style="fill:white;fill-opacity:0.56;fill-rule:nonzero;"/>
        <path d="M167.96,216.31C167.37,215.935 167.187,215.147 167.55,214.55C173.61,204.47 184.29,198.64 195.66,197.37C207.99,196 218.67,197.64 224.11,209.8C224.628,210.958 224.336,212.329 223.39,213.18L223.33,213.24C223.26,213.303 223.184,213.36 223.104,213.41C222.364,213.871 221.378,213.644 220.92,212.909C220.869,212.827 220.825,212.74 220.79,212.65C219.61,209.637 218.777,207.877 218.29,207.37C214.997,203.937 210.997,201.97 206.29,201.47C192.903,200.07 181.767,204.083 172.88,213.51C172.769,213.628 172.693,213.773 172.66,213.93L172.02,216.53C171.897,217.03 171.396,217.35 170.89,217.25C169.51,216.983 168.533,216.67 167.96,216.31Z" style="fill-rule:nonzero;"/>
        <path d="M157.89,340.56C157.75,340.793 157.577,340.953 157.37,341.04C157.203,341.113 156.973,341.09 156.68,340.97C156.233,340.783 155.673,340.687 155,340.68C132.44,340.547 110.1,340.573 87.98,340.76L91.99,302.83C92.028,302.416 92.365,302.088 92.78,302.06C94.927,301.9 96.677,301.783 98.03,301.71C99.563,301.63 100.417,300.73 100.59,299.01C102.003,285.097 104.887,271.62 109.24,258.58C109.287,258.441 109.31,258.296 109.31,258.15C109.31,257.559 108.924,257.035 108.36,256.86L108.32,256.84C107.577,256.61 106.771,256.961 106.44,257.66C104.74,261.233 103.053,266.22 101.38,272.62C99.24,280.8 97.85,289.063 97.21,297.41C97.174,297.867 96.794,298.226 96.34,298.23C82.687,298.377 69.353,295.557 56.34,289.77C55.877,289.566 55.643,289.036 55.8,288.55C61.11,272.44 66.43,255.4 74.13,240.13C78.44,231.59 83.6,225.63 90.9,217.66C97.61,210.33 108.96,200.57 119.68,199.56C119.715,199.557 119.75,199.555 119.786,199.555C120.4,199.555 120.906,200.061 120.906,200.675C120.906,200.839 120.87,201.001 120.8,201.15C120.68,201.397 119.347,203.753 116.8,208.22C116.053,209.527 115.907,211.71 116.36,214.77C117.69,223.9 123.93,228.08 129.84,234.38C130.893,235.507 131.75,237.32 132.41,239.82C134.05,245.98 133.72,260.62 145.2,257.64C148.673,256.74 151.2,254.597 152.78,251.21C153.62,249.43 155.19,243.13 158.24,242.27C158.292,242.255 158.346,242.247 158.401,242.247C158.719,242.247 158.981,242.509 158.981,242.827C158.981,242.838 158.981,242.849 158.98,242.86L158.89,244.48C158.878,244.77 159,245.051 159.22,245.24C159.92,245.84 160.7,246.113 161.56,246.06C161.925,246.041 162.271,245.875 162.52,245.6C163.65,244.34 165.24,242.85 166.81,243.6C167.153,243.762 167.315,244.166 167.18,244.52L166.29,246.88C166.239,247.015 166.213,247.158 166.213,247.302C166.213,247.931 166.712,248.457 167.34,248.49L169.33,248.59C169.753,248.613 170.111,248.922 170.2,249.34C173.34,264.02 174.63,276.23 177.85,288.92C178.323,290.773 178.93,292.603 179.67,294.41C179.775,294.663 179.658,294.956 179.411,295.06C179.41,295.06 179.41,295.06 179.41,295.06C172.357,298.04 165.257,300.187 158.11,301.5C158.08,301.506 158.05,301.508 158.02,301.508C157.755,301.508 157.536,301.294 157.53,301.03C157.263,289.01 158.35,276.89 160.79,264.67C160.801,264.613 160.807,264.555 160.807,264.497C160.807,264.014 160.41,263.617 159.927,263.617C159.815,263.617 159.704,263.638 159.6,263.68L159.31,263.79C158.393,264.161 157.705,264.949 157.46,265.91C152.79,284.29 153.24,303.84 155.13,322.99C155.703,328.803 156.623,334.66 157.89,340.56Z" style="fill:rgb(249,211,142);fill-rule:nonzero;"/>
        <path d="M153.66,201.11C153.696,201.026 153.78,200.972 153.871,200.972C153.989,200.972 154.089,201.062 154.1,201.18C154.367,204.587 154.753,207.937 155.26,211.23C155.74,214.36 155.3,221.54 150.33,220.33C150.021,220.257 149.775,220.019 149.69,219.71C148.2,214.38 151.5,206.11 153.66,201.11Z" style="fill:rgb(180,209,220);fill-rule:nonzero;"/>
        <path d="M127.23,203.53C126.777,202.93 126.743,202.3 127.13,201.64L128.02,201.39C128.045,201.383 128.07,201.377 128.095,201.373C128.426,201.322 128.741,201.557 128.793,201.893C128.797,201.918 128.799,201.944 128.8,201.97C128.833,203.097 128.31,203.617 127.23,203.53Z" style="fill:rgb(122,127,112);fill-rule:nonzero;"/>
        <path d="M152.72,240.52C152.775,240.489 152.836,240.472 152.899,240.472C153.097,240.472 153.259,240.635 153.259,240.832C153.259,240.903 153.239,240.971 153.2,241.03C151.787,243.21 150.383,246.087 148.99,249.66C147.32,253.95 139.74,257.19 138.11,250.34C137.19,246.48 137.12,240.68 135.35,236.75C133.37,232.33 129.64,228.69 126.28,225.47C122.88,222.23 117.37,214.61 120.4,209.97C121.333,208.543 122.137,206.913 122.81,205.08C122.87,204.921 123.023,204.816 123.193,204.816C123.367,204.816 123.522,204.926 123.58,205.09C124.013,206.323 124.35,207.097 124.59,207.41C125.95,209.17 128.42,211.87 128.63,214.03C128.683,214.603 128.783,215.733 128.93,217.42C129.024,218.538 129.873,219.457 130.98,219.64L133.66,220.08C133.997,220.135 134.233,220.456 134.19,220.8C134.017,222.133 134.177,223.45 134.67,224.75C134.795,225.081 135.119,225.301 135.48,225.3C135.48,225.3 137.64,225.3 137.641,225.3C138.299,225.3 138.841,225.842 138.841,226.5C138.841,226.554 138.837,226.607 138.83,226.66C138.61,228.253 138.683,229.563 139.05,230.59C139.242,231.118 139.747,231.471 140.309,231.471C140.589,231.471 140.862,231.383 141.09,231.22L142.38,230.28C142.439,230.237 142.501,230.199 142.567,230.168C143.151,229.888 143.863,230.142 144.146,230.731C144.176,230.795 144.201,230.862 144.22,230.93L145.77,236.69C145.851,236.989 146.126,237.198 146.44,237.2L148.19,237.2C148.378,237.2 148.548,237.31 148.62,237.48C148.973,238.313 149.11,239.087 149.03,239.8C149.023,239.858 149.02,239.916 149.02,239.975C149.02,240.825 149.72,241.525 150.57,241.525C150.84,241.525 151.106,241.454 151.34,241.32L152.72,240.52Z" style="fill:rgb(253,253,253);fill-rule:nonzero;"/>
        <path d="M157.32,205.3C157.227,205.5 157.107,205.663 156.96,205.79L156.84,205.29L157.32,205.3Z" style="fill:rgb(122,127,112);fill-rule:nonzero;"/>
        <path d="M198.39,207.07C201.03,206.78 206.35,206.65 207.56,209.1C207.617,209.213 207.657,209.333 207.68,209.458C207.814,210.186 207.315,210.897 206.576,211.033C206.452,211.056 206.326,211.061 206.2,211.05C203.75,210.82 201.86,210.17 198.78,210.52C195.69,210.87 193.99,211.92 191.65,212.69C191.53,212.729 191.406,212.752 191.28,212.757C190.529,212.79 189.884,212.208 189.852,211.468C189.847,211.341 189.859,211.214 189.89,211.09C190.53,208.44 195.74,207.37 198.39,207.07Z" style="fill-rule:nonzero;"/>
        <path d="M134.54,209.69L134.43,215.15C134.425,215.294 134.305,215.41 134.16,215.41C134.098,215.41 134.038,215.389 133.99,215.35C132.777,214.317 132.327,212.87 132.64,211.01C132.78,210.343 133.413,209.903 134.54,209.69Z" style="fill:rgb(253,253,253);fill-rule:nonzero;"/>
        <path d="M140.96,222.6C139.84,221.373 139.73,219.79 140.63,217.85C140.73,217.47 140.853,217.183 141,216.99C141.058,216.91 141.152,216.862 141.251,216.862C141.412,216.862 141.548,216.989 141.56,217.15C141.747,219.137 141.547,220.953 140.96,222.6Z" style="fill:rgb(122,127,112);fill-rule:nonzero;"/>
        <path d="M151.69,231.22L151.72,223.75L152.89,223.8C152.898,223.8 152.907,223.801 152.915,223.801C153.287,223.829 153.57,224.163 153.542,224.54C153.541,224.547 153.541,224.553 153.54,224.56C153.153,227.793 153.253,230.853 153.84,233.74C153.845,233.765 153.847,233.791 153.847,233.817C153.847,234.042 153.662,234.227 153.437,234.227C153.398,234.227 153.358,234.221 153.32,234.21L152.14,233.85C151.845,233.757 151.645,233.479 151.65,233.17L151.69,231.22Z" style="fill:white;fill-opacity:0.56;fill-rule:nonzero;"/>
        <path d="M144.61,226.49C144.763,226.51 144.72,226.343 144.48,225.99C144.46,225.45 144.623,225.07 144.97,224.85C145.403,224.57 145.717,224.687 145.91,225.2C146.13,225.793 145.987,226.41 145.48,227.05C145.32,227.25 145.03,227.063 144.61,226.49Z" style="fill:rgb(122,127,112);fill-rule:nonzero;"/>
        <path d="M179.61,242.54C178.383,241.467 176.93,241.16 175.25,241.62C174.962,241.698 174.658,241.695 174.37,241.61C171.61,240.73 167.65,240.11 165.6,237.81C165.433,237.623 165.27,237.52 165.11,237.5C164.943,237.473 164.74,237.473 164.5,237.5C165.967,234.72 167.33,231.9 168.59,229.04C169.217,227.62 169.993,226.48 170.92,225.62C171.19,225.371 171.543,225.233 171.91,225.233C172.711,225.233 173.37,225.892 173.37,226.693C173.37,226.699 173.37,226.704 173.37,226.71C173.323,229.21 172.817,231.617 171.85,233.93C171.822,233.999 171.853,234.078 171.92,234.11L171.94,234.12C171.943,234.122 171.947,234.123 171.95,234.124C172.167,234.216 172.423,234.109 172.517,233.886C172.518,233.884 172.519,233.882 172.52,233.88C173.653,231.047 175.17,228.857 177.07,227.31C177.262,227.152 177.492,227.048 177.738,227.008C178.506,226.882 179.243,227.416 179.37,228.19C179.41,228.435 179.386,228.687 179.3,228.92L175.08,240.12C175.05,240.179 175.035,240.244 175.035,240.31C175.035,240.541 175.224,240.73 175.455,240.73C175.613,240.73 175.759,240.641 175.83,240.5C179.337,234.96 181.35,231.837 181.87,231.13C182.397,230.417 183.017,230.13 183.73,230.27C184.552,230.427 185.152,231.152 185.152,231.989C185.152,232.117 185.138,232.245 185.11,232.37C184.29,236.12 181.61,239.18 179.61,242.54Z" style="fill:rgb(47,47,45);fill-rule:nonzero;"/>
        <path d="M206.52,240.7L203.61,241.71C203.797,241.157 203.84,240.72 203.74,240.4C203.674,240.187 203.476,240.04 203.253,240.04C203.144,240.04 203.038,240.075 202.95,240.14C201.757,240.98 201.127,241.99 201.06,243.17L195.76,243.77L195.73,239.54C195.725,239.445 195.646,239.369 195.55,239.369C195.49,239.369 195.433,239.4 195.4,239.45L192.54,244.13C191.047,243.817 189.057,243.92 186.57,244.44L187.74,241.33C187.752,241.297 187.735,241.259 187.7,241.24L187.47,241.13C187.319,241.056 187.133,241.113 187.05,241.26C186.39,242.46 185.47,243.343 184.29,243.91C183.657,243.97 183.167,243.73 182.82,243.19C182.712,243.018 182.536,242.901 182.34,242.87L181.2,242.69C185.093,238.17 187.973,233.12 189.84,227.54C189.953,227.213 190.153,226.983 190.44,226.85C190.538,226.805 190.642,226.771 190.749,226.75C191.449,226.611 192.131,227.038 192.261,227.694C192.281,227.795 192.287,227.897 192.28,228C192.073,230.9 191.517,234.087 190.61,237.56C190.137,239.387 190.043,240.79 190.33,241.77C190.345,241.824 190.37,241.875 190.406,241.918C190.546,242.087 190.803,242.109 190.977,241.966C191.019,241.931 191.054,241.888 191.08,241.84C193.247,237.633 195.393,233.21 197.52,228.57C198.007,227.497 198.737,226.867 199.71,226.68C200.061,226.611 200.412,226.83 200.51,227.18C201.47,230.76 199.98,235.24 198.88,239.43C198.872,239.456 198.867,239.483 198.867,239.511C198.867,239.653 198.985,239.771 199.127,239.771C199.212,239.771 199.291,239.729 199.34,239.66C201.947,236.287 203.967,232.15 205.4,227.25C205.76,226.037 206.55,225.527 207.77,225.72C208.104,225.772 208.368,226.036 208.42,226.37C208.673,227.937 208.66,229.457 208.38,230.93C207.767,234.137 207.147,237.393 206.52,240.7Z" style="fill:rgb(47,47,45);fill-rule:nonzero;"/>
        <path d="M213.65,236.79C212.703,237.957 211.223,238.737 209.21,239.13C209.963,234.817 211.163,230.613 212.81,226.52C212.957,226.16 213.333,225.873 213.94,225.66C214.055,225.621 214.175,225.601 214.296,225.601C214.9,225.601 215.396,226.097 215.396,226.701C215.396,226.764 215.391,226.827 215.38,226.89L213.65,236.79Z" style="fill:rgb(47,47,45);fill-rule:nonzero;"/>
        <path d="M195.76,243.77C194.173,244.597 193.1,244.717 192.54,244.13L195.4,239.45C195.433,239.4 195.49,239.369 195.55,239.369C195.646,239.369 195.725,239.445 195.73,239.54L195.76,243.77Z" style="fill:rgb(253,253,253);fill-rule:nonzero;"/>
        <path d="M203.61,241.71C203.203,242.63 202.353,243.117 201.06,243.17C201.127,241.99 201.757,240.98 202.95,240.14C203.038,240.075 203.144,240.04 203.253,240.04C203.476,240.04 203.674,240.187 203.74,240.4C203.84,240.72 203.797,241.157 203.61,241.71Z" style="fill:white;fill-opacity:0.56;fill-rule:nonzero;"/>
        <path d="M186.57,244.44L184.29,243.91C185.47,243.343 186.39,242.46 187.05,241.26C187.133,241.113 187.319,241.056 187.47,241.13L187.7,241.24C187.735,241.259 187.752,241.297 187.74,241.33L186.57,244.44Z" style="fill:rgb(122,127,112);fill-rule:nonzero;"/>
        <path d="M84.49,340.55L57.1,340.69C58.493,325.877 60.393,311.163 62.8,296.55C62.801,296.543 62.803,296.535 62.805,296.528C62.842,296.39 62.981,296.306 63.113,296.341C63.122,296.344 63.131,296.347 63.14,296.35C71.1,299.35 79.473,301.177 88.26,301.83C88.482,301.848 88.656,302.036 88.656,302.259C88.656,302.283 88.654,302.306 88.65,302.33C86.463,314.73 85.077,327.47 84.49,340.55Z" style="fill:rgb(253,253,253);fill-rule:nonzero;"/>
        <path d="M181.29,340.76L161.83,340.91C159.29,326.99 158.3,317.67 157.67,305.72C157.657,305.425 157.877,305.166 158.17,305.13C163.117,304.51 167.97,303.383 172.73,301.75C172.782,301.732 172.837,301.723 172.893,301.723C173.147,301.723 173.363,301.917 173.39,302.17C174.603,315.223 177.237,328.087 181.29,340.76Z" style="fill:rgb(253,253,253);fill-rule:nonzero;"/>
    </g>
</svg>
