<?xml version="1.0" encoding="UTF-8" standalone="no"?>
<!DOCTYPE svg PUBLIC "-//W3C//DTD SVG 1.1//EN" "http://www.w3.org/Graphics/SVG/1.1/DTD/svg11.dtd">
<svg width="100%" height="100%" viewBox="0 0 234 324" version="1.1" xmlns="http://www.w3.org/2000/svg" xmlns:xlink="http://www.w3.org/1999/xlink" xml:space="preserve" xmlns:serif="http://www.serif.com/" style="fill-rule:evenodd;clip-rule:evenodd;stroke-linejoin:round;stroke-miterlimit:2;">
    <g transform="matrix(1,0,0,1,-735.675,-700.484)">
        <path d="M845.9,1024L842.29,1024C842.17,1023.88 842.087,1023.77 842.04,1023.67C838.467,1012.26 835.863,1000.86 834.23,989.47C834.227,989.449 834.223,989.428 834.219,989.407C834.11,988.903 833.61,988.577 833.111,988.685C833.09,988.689 833.07,988.694 833.05,988.7C830.217,989.507 828.48,989.017 827.84,987.23C827.213,985.463 826.837,983.983 826.71,982.79C825.997,975.863 825.843,968.44 826.25,960.52C826.253,960.516 826.244,960.507 826.23,960.5L825.92,960.45C825.775,960.43 825.639,960.522 825.61,960.66C824.163,967.273 823.41,972.303 823.35,975.75C823.11,989.063 823.213,1003.56 823.66,1019.25C823.693,1020.44 823.947,1022.03 824.42,1024L820.53,1024C819.537,1008.64 819.27,993.267 819.73,977.88C820.06,966.71 822.53,955.08 828.62,945.35C831.407,940.89 833.403,937.353 834.61,934.74C834.643,934.671 834.653,934.593 834.637,934.519C834.597,934.331 834.405,934.211 834.212,934.252C834.138,934.267 834.071,934.305 834.02,934.36C832.54,936.027 831.533,937.15 831,937.73C828.86,940.07 826.25,941.23 823.17,941.21C822.761,941.21 822.367,941.044 822.08,940.75C820.02,938.64 820.57,933.32 820.53,928.1C820.523,927.683 820.449,927.271 820.31,926.88C819.717,925.2 818.897,923.783 817.85,922.63C811.903,916.037 804.447,911.74 795.48,909.74C793.613,909.327 792.02,909.567 790.7,910.46C787.847,912.393 783.923,914.963 778.93,918.17C776.33,919.837 773.877,922.057 771.57,924.83C767.45,929.77 761.54,933.95 757.69,938.94C753.303,944.613 749.82,951.25 747.24,958.85C747.217,958.914 747.206,958.982 747.206,959.05C747.206,959.309 747.374,959.54 747.62,959.62L775.37,968.82C776.064,969.053 776.828,968.687 777.08,968C779.98,960.16 782.99,952.48 787.33,945.61C788.63,943.55 790.953,941.41 794.3,939.19C794.652,938.956 795.066,938.832 795.488,938.832C796.277,938.832 797.005,939.266 797.38,939.96L797.44,940.08C798.103,941.303 797.794,942.839 796.71,943.71C793.37,946.4 790.71,948.43 788.86,951.87C785.6,957.91 782.7,964.173 780.16,970.66C779.78,971.627 778.977,972.273 777.75,972.6C777.422,972.688 777.153,972.92 777.02,973.23C772.5,983.71 769.53,990.39 767.16,999.67C765.39,1006.62 764.59,1015.94 763.57,1024L759.62,1024C760.18,1018.93 760.777,1013.86 761.41,1008.79C762.223,1002.26 763.147,997.253 764.18,993.76C766.213,986.893 768.9,979.693 772.24,972.16C772.264,972.105 772.277,972.046 772.277,971.986C772.277,971.804 772.162,971.641 771.99,971.58L751.18,964.68C751.178,964.679 751.176,964.679 751.175,964.678C751.075,964.648 750.969,964.702 750.941,964.796C750.941,964.798 750.94,964.799 750.94,964.8C748.24,973.58 745.993,981.127 744.2,987.44C741.85,995.69 741.21,1002.89 742.09,1012.31C742.45,1016.21 742.8,1020.11 743.14,1024L739.77,1024L739.43,1020.23C739.431,1020.15 739.401,1020.08 739.347,1020.03C739.237,1019.92 739.055,1019.93 738.944,1020.04C738.892,1020.09 738.861,1020.17 738.86,1020.24L738.6,1024L736.04,1024C735.387,1021.51 735.61,1018.89 736.71,1016.16C737.17,1015.01 737.633,1013.8 738.1,1012.51C738.278,1012.02 738.346,1011.5 738.3,1010.98C737.593,1001.99 738.513,993.197 741.06,984.61C741.787,982.163 743.487,976.423 746.16,967.39C746.48,966.317 746.88,965.303 747.36,964.35C747.574,963.931 747.423,963.413 747.02,963.18L743.91,961.39C743.466,961.134 743.257,960.599 743.41,960.11C746.07,951.463 749.96,943.787 755.08,937.08C759.07,931.86 764.75,927.77 769.14,922.64C774.54,916.32 782.32,911.49 790.6,906.89C790.633,906.87 790.674,906.853 790.72,906.84L795.61,905.92C795.796,905.88 795.974,905.813 796.14,905.72L805.36,900.51C805.655,900.341 805.838,900.026 805.838,899.686C805.838,899.465 805.761,899.25 805.62,899.08C804.347,897.56 803.5,896.273 803.08,895.22C800.16,887.887 797.407,879.637 794.82,870.47C794.566,869.566 793.682,868.976 792.75,869.09C792.683,869.097 792.557,869.12 792.37,869.16C791.937,869.25 791.501,869.004 791.36,868.59C791.093,867.81 791.043,866.973 791.21,866.08C791.214,866.06 791.216,866.04 791.216,866.019C791.216,865.849 791.076,865.709 790.906,865.709C790.797,865.709 790.696,865.767 790.64,865.86C790.04,866.82 789.2,867.327 788.12,867.38C787.732,867.397 787.377,867.145 787.26,866.77C786.727,865.123 786.767,863.56 787.38,862.08C787.407,862.02 787.42,861.955 787.42,861.89C787.42,861.632 787.208,861.42 786.95,861.42C786.87,861.42 786.79,861.441 786.72,861.48C785.56,862.11 783.02,862.62 783.04,860.38C783.06,858.19 783.74,856.8 784.74,854.77C785.121,854.007 784.877,853.067 784.17,852.58C772.29,844.49 758.43,834 761.69,818.02C762.137,815.827 763.017,813.97 764.33,812.45C764.489,812.269 764.528,812.01 764.43,811.79C760.543,802.763 759.193,793.38 760.38,783.64C760.527,782.387 760.757,781.343 761.07,780.51C761.085,780.474 761.093,780.435 761.093,780.395C761.093,780.231 760.957,780.095 760.793,780.095C760.731,780.095 760.671,780.114 760.62,780.15C758.32,781.67 755.16,781.8 755.55,778.49C756.41,771.4 759.96,765.97 763.98,759.22C764.287,758.7 764.95,757.9 765.97,756.82C766.018,756.762 766.045,756.689 766.045,756.614C766.045,756.439 765.9,756.294 765.725,756.294C765.667,756.294 765.61,756.31 765.56,756.34C762.713,758.247 760.563,759.577 759.11,760.33C758.337,760.73 757.647,760.783 757.04,760.49C755.984,759.972 755.452,758.804 755.81,757.79C758.49,750.14 771.31,743.94 778.65,740.48C778.73,740.442 778.781,740.361 778.781,740.272C778.781,740.18 778.725,740.096 778.64,740.06C775.893,738.993 773.287,738.393 770.82,738.26C769.11,738.17 767.41,737.65 767.69,735.83C768.29,731.85 777.75,732.87 780.58,733.55C780.615,733.558 780.651,733.562 780.688,733.562C780.956,733.562 781.178,733.341 781.178,733.072C781.178,733.017 781.168,732.962 781.15,732.91C780.22,730.3 778.97,723.22 782.63,721.93C782.631,721.93 782.631,721.929 782.632,721.929C783.399,721.662 784.251,722.078 784.52,722.85C784.52,722.85 784.52,722.85 784.52,722.85L787.69,732.08C787.767,732.294 787.971,732.437 788.198,732.437C788.401,732.437 788.588,732.322 788.68,732.14C793.82,721.69 802.29,715.32 813.33,711.7C815.363,711.033 817.06,710.6 818.42,710.4C820.767,710.047 822.267,709.743 822.92,709.49C823.279,709.357 823.627,709.196 823.96,709.01C829.94,705.643 836.543,703.443 843.77,702.41C849.18,701.64 857.04,702.48 862.76,702.42C867.16,702.367 872.157,701.777 877.75,700.65C879.67,700.263 881.103,700.553 882.05,701.52C884.27,703.78 881.74,707.73 879.7,709.69C879.635,709.754 879.598,709.841 879.598,709.933C879.598,710.119 879.752,710.273 879.938,710.273C879.952,710.273 879.966,710.272 879.98,710.27C890.153,709.123 899.91,708.73 909.25,709.09C911.87,709.19 915.26,709.18 916.4,711.62C917.99,715.05 913.3,717.69 910.49,718.6C910.455,718.61 910.422,718.627 910.394,718.65C910.275,718.748 910.26,718.929 910.361,719.052C910.383,719.079 910.41,719.102 910.44,719.12C917.133,722.887 922.63,725.783 926.93,727.81C931.81,730.11 938.74,732.08 942.8,733.44C947.16,734.9 954.41,738.19 952.19,743.4C950.61,747.1 945.28,749 941.24,749.35C941.135,749.363 941.055,749.453 941.055,749.558C941.055,749.611 941.075,749.661 941.11,749.7C943.34,751.88 954.02,764.55 945.78,765.41C945.516,765.436 945.25,765.369 945.03,765.22L942.35,763.45C942.275,763.404 942.189,763.379 942.102,763.379C941.844,763.379 941.632,763.591 941.632,763.849C941.632,763.904 941.641,763.958 941.66,764.01C944.21,770.4 944.81,779.28 940.65,785.15C940.575,785.255 940.534,785.382 940.534,785.511C940.534,785.851 940.814,786.131 941.154,786.131C941.166,786.131 941.178,786.131 941.19,786.13C950.77,785.537 958.007,789.37 962.9,797.63C966.133,803.097 968.15,808.887 968.95,815C969.35,818.07 969.01,821.17 966.61,823.91C964.06,826.84 961.71,831.88 958.78,834.76C955.533,837.973 951.713,840.37 947.32,841.95C946.625,842.197 946.149,842.841 946.12,843.57C945.627,853.81 940.45,860.297 930.59,863.03C928.91,863.497 927.667,863.85 926.86,864.09C926.837,864.097 926.815,864.106 926.794,864.116C926.572,864.225 926.482,864.501 926.593,864.728C926.604,864.749 926.616,864.77 926.63,864.79C927.55,866.097 928.09,867.603 928.25,869.31C928.259,869.397 928.255,869.486 928.239,869.572C928.145,870.062 927.66,870.388 927.165,870.293C927.08,870.277 926.997,870.249 926.92,870.21L924.89,869.16C924.806,869.12 924.714,869.098 924.621,869.098C924.281,869.098 924.001,869.378 924.001,869.718C924.001,869.861 924.05,869.999 924.14,870.11C925.847,872.117 926.51,874.44 926.13,877.08C926.084,877.413 925.786,877.659 925.45,877.64C923.977,877.553 922.93,876.947 922.31,875.82C922.256,875.704 922.139,875.63 922.011,875.63C921.83,875.63 921.681,875.779 921.681,875.96C921.681,875.997 921.687,876.035 921.7,876.07C922.293,878.09 922.633,880.06 922.72,881.98C922.78,883.253 922.42,883.983 921.64,884.17C920.9,884.337 920.033,884.08 919.04,883.4C918.985,883.363 918.921,883.343 918.855,883.343C918.674,883.343 918.525,883.492 918.525,883.673C918.525,883.692 918.527,883.711 918.53,883.73C919.177,887.143 919.203,890.663 918.61,894.29C918.45,895.242 917.589,895.93 916.62,895.88L915.93,895.84C915.19,895.803 914.601,895.183 914.601,894.442C914.601,894.364 914.607,894.287 914.62,894.21L915.17,890.86C915.17,890.859 915.171,890.857 915.171,890.856C915.203,890.683 915.083,890.514 914.905,890.481C914.903,890.481 914.902,890.48 914.9,890.48L914.58,890.43C914.512,890.418 914.444,890.46 914.42,890.53C912.98,895.91 911.75,900.64 910.73,904.72C910.51,905.627 910.017,906.517 909.25,907.39C909.215,907.429 909.179,907.467 909.142,907.503C908.435,908.186 907.343,908.218 906.722,907.574C906.69,907.541 906.659,907.506 906.63,907.47C905.99,906.663 905.737,905.72 905.87,904.64C905.41,907.42 904.57,912.35 902.32,913.65C902.094,913.78 901.838,913.848 901.578,913.848C900.761,913.848 900.088,913.175 900.088,912.358C900.088,912.332 900.089,912.306 900.09,912.28L900.23,909.8C900.231,909.792 900.231,909.784 900.231,909.776C900.231,909.6 900.086,909.456 899.911,909.456C899.764,909.456 899.635,909.557 899.6,909.7C898.9,912.38 896.01,923.24 892.39,922.06C891.511,921.772 891.042,920.753 891.35,919.8C891.777,918.473 892.277,917.227 892.85,916.06C892.855,916.049 892.859,916.039 892.863,916.027C892.909,915.887 892.836,915.734 892.7,915.69C892.687,915.685 892.674,915.682 892.66,915.68L892.2,915.61C892.178,915.604 892.153,915.616 892.14,915.64C890.147,919.9 888.737,922.817 887.91,924.39C887.07,925.997 886.18,927.023 885.24,927.47C885.026,927.573 884.791,927.627 884.554,927.627C883.687,927.627 882.974,926.914 882.974,926.047C882.974,925.934 882.986,925.821 883.01,925.71C883.383,924.01 884.11,922.42 885.19,920.94C885.204,920.92 885.217,920.898 885.226,920.875C885.295,920.708 885.21,920.512 885.038,920.44C885.016,920.431 884.993,920.424 884.97,920.42L884.51,920.35C884.45,920.338 884.389,920.367 884.36,920.42L879.82,928.43C879.238,929.454 877.977,929.89 876.9,929.44L876.7,929.36C876.678,929.35 876.655,929.34 876.633,929.329C875.738,928.886 875.364,927.79 875.804,926.9C875.815,926.876 875.827,926.853 875.84,926.83L876.92,924.85C876.955,924.79 876.974,924.722 876.974,924.652C876.974,924.438 876.798,924.262 876.584,924.262C876.5,924.262 876.417,924.289 876.35,924.34C874.59,925.6 873.89,928.87 872.42,929.57C870.207,930.623 868.807,930.483 868.22,929.15C868.126,928.942 868.133,928.702 868.24,928.5L869.64,925.78C869.677,925.711 869.697,925.634 869.697,925.556C869.697,925.298 869.485,925.086 869.227,925.086C869.144,925.086 869.062,925.108 868.99,925.15C867.87,925.763 866.83,926.96 865.87,928.74C865.699,929.043 865.459,929.303 865.17,929.5C864.19,930.153 863.16,930.347 862.08,930.08C861.726,929.992 861.469,929.678 861.45,929.31C861.383,927.823 861.557,926.507 861.97,925.36C861.999,925.277 862.013,925.19 862.013,925.102C862.013,924.669 861.657,924.312 861.223,924.312C860.974,924.312 860.739,924.43 860.59,924.63L857.88,928.35C857.73,928.566 857.522,928.735 857.28,928.84C856.053,929.413 855.04,929.567 854.24,929.3C853.477,929.04 853.101,928.063 853.4,927.12C853.793,925.88 854.233,924.66 854.72,923.46C854.757,923.372 854.776,923.278 854.776,923.183C854.776,922.788 854.451,922.463 854.056,922.463C853.866,922.463 853.685,922.537 853.55,922.67L850.57,925.54C850.517,925.587 850.466,925.63 850.42,925.67C848.98,926.77 846.4,926.13 846.35,923.9C846.337,923.32 846.47,922.563 846.75,921.63C846.773,921.554 846.784,921.476 846.784,921.397C846.784,920.952 846.419,920.587 845.974,920.587C845.804,920.587 845.638,920.64 845.5,920.74L838.49,925.82C838.038,926.153 837.828,926.73 837.96,927.28C838.89,931.03 839.62,934.87 839.65,938.88C839.757,951.873 841.343,964.997 844.41,978.25C844.69,979.44 844.92,981.62 844.95,982.99C844.975,984.062 844.456,985.081 843.57,985.7C841.817,986.92 840.09,987.63 838.39,987.83C838.382,987.831 838.373,987.832 838.365,987.833C837.887,987.9 837.548,988.345 837.615,988.817C837.616,988.828 837.618,988.839 837.62,988.85C839.667,1000.76 842.427,1012.48 845.9,1024ZM844.442,708.074C844.442,708.074 844.442,708.074 844.442,708.074C844.349,707.634 841.026,707.956 837.081,708.788C833.135,709.619 829.965,710.665 830.058,711.106C830.058,711.106 830.058,711.106 830.058,711.106C830.151,711.546 833.474,711.224 837.419,710.392C841.365,709.561 844.535,708.515 844.442,708.074ZM799.07,726.49L812.3,717.7C812.363,717.654 812.381,717.567 812.34,717.5L812.25,717.36C811.957,716.958 808.731,718.611 805.09,721.03C805.09,721.03 804.938,721.131 804.938,721.132C801.282,723.56 798.501,725.901 798.778,726.317C798.778,726.318 798.87,726.45 798.87,726.45C798.916,726.513 799.003,726.531 799.07,726.49ZM936.64,736.66L946.51,740.47C946.546,740.484 946.586,740.466 946.6,740.43L946.61,740.4C946.61,740.399 946.611,740.399 946.611,740.398C946.808,739.886 945.269,738.808 943.202,738.011C943.201,738.01 940.74,737.06 940.74,737.06C938.672,736.262 936.808,736.027 936.611,736.538C936.61,736.539 936.61,736.539 936.61,736.54L936.6,736.57C936.586,736.606 936.604,736.646 936.64,736.66ZM835.44,757.08C835.364,756.987 835.25,756.933 835.131,756.933C835.035,756.933 834.943,756.968 834.87,757.03C831.67,759.73 827.78,762.12 823.2,764.2C817.64,766.72 812.867,768.597 808.88,769.83C806.34,770.61 804.33,770.62 802.54,771.14C802.283,771.213 802.104,771.45 802.104,771.717C802.104,771.804 802.123,771.891 802.16,771.97C804.693,777.55 807.273,784.26 809.9,792.1C811.13,795.79 808.21,798.84 804.43,798.04C804.357,798.025 804.283,798.019 804.209,798.023C803.749,798.049 803.391,798.444 803.417,798.899C803.421,798.974 803.435,799.049 803.46,799.12C804.033,800.82 804.18,802.533 803.9,804.26C803.892,804.313 803.888,804.367 803.888,804.421C803.888,805.002 804.366,805.481 804.948,805.481C804.962,805.481 804.976,805.481 804.99,805.48C813.05,805.16 819.153,804.843 823.3,804.53C825.9,804.34 826.44,801.2 829.45,800.52C830.339,800.317 831.153,799.87 831.8,799.23C837.28,793.79 844.05,790.273 852.11,788.68C865.95,785.96 880.96,786.74 889.59,799.1C889.795,799.387 890.153,799.516 890.48,799.42C895.593,797.92 900.783,797.593 906.05,798.44C906.461,798.511 906.883,798.425 907.23,798.2C916.19,792.61 924.48,788.13 934.79,786.33C935.036,786.29 935.218,786.076 935.218,785.827C935.218,785.752 935.202,785.678 935.17,785.61L932.42,779.89C932.316,779.668 932.145,779.48 931.93,779.35C927.157,776.503 922.163,775.673 916.95,776.86C916.776,776.899 916.598,776.919 916.419,776.919C915.118,776.919 914.038,775.87 914,774.57L913.99,774.32C913.945,772.665 915.115,771.206 916.74,770.89C921.68,769.943 925.773,770.26 929.02,771.84C929.081,771.869 929.148,771.885 929.215,771.885C929.462,771.885 929.665,771.681 929.665,771.435C929.665,771.375 929.653,771.315 929.63,771.26L923.58,757.42C923.54,757.333 923.493,757.25 923.44,757.17C921.327,754.25 917.807,751.223 912.88,748.09C903.56,742.157 897.977,738.72 896.13,737.78C895.88,737.654 895.574,737.703 895.37,737.9C890.99,742.24 885.19,744.84 878.87,748.06C876.41,749.31 874.17,751.29 872.04,752.54C871.242,753.011 870.258,752.976 869.55,752.45C868.117,751.377 867.757,749.36 868.47,746.4C868.478,746.372 868.482,746.344 868.482,746.315C868.482,746.145 868.342,746.005 868.172,746.005C868.098,746.005 868.026,746.032 867.97,746.08C864.39,748.92 861.077,751.483 858.03,753.77C850.54,759.4 844.4,762.68 835.14,762.55C835.09,762.549 835.04,762.547 834.99,762.543C833.913,762.46 833.084,761.641 833.154,760.727C833.158,760.685 833.163,760.642 833.17,760.6C833.37,759.433 834.097,758.457 835.35,757.67C835.466,757.602 835.537,757.477 835.537,757.342C835.537,757.254 835.506,757.168 835.45,757.1L835.44,757.08ZM936.67,790.06C930.35,791.46 924.58,793.55 919.36,796.33C916.48,797.87 913.01,799.2 912.65,802.45C912.582,803.032 912.065,803.466 911.48,803.43L909.03,803.29C908.572,803.265 908.131,803.486 907.87,803.87C902.34,812.03 901.39,821.17 907.98,828.76C911.44,832.747 915.49,835.69 920.13,837.59C927.797,840.737 935.573,841.36 943.46,839.46C944.72,839.327 945.793,839.03 946.68,838.57C949.827,837.363 952.597,835.677 954.99,833.51C958.68,830.16 961.34,824.7 964.66,821.1C964.898,820.842 965.081,820.54 965.2,820.21C967.38,813.99 963.5,804.92 959.72,798.77C955.333,791.63 948.907,788.577 940.44,789.61C939.027,789.43 937.77,789.58 936.67,790.06ZM888.35,805.57C888.163,805.617 887.95,805.743 887.71,805.95C887.363,806.257 886.967,806.333 886.52,806.18C885.08,805.7 884.337,804.7 884.29,803.18C884.272,802.834 884.43,802.499 884.71,802.29L885.8,801.48C886.038,801.303 886.179,801.023 886.179,800.726C886.179,800.495 886.094,800.272 885.94,800.1C876.76,789.61 862.27,790.16 849.93,793.61C842.94,795.55 837.48,799.75 832.53,805.18C832.46,805.252 832.379,805.313 832.29,805.36L829.45,806.82C829.229,806.936 829.037,807.1 828.89,807.3C828.337,808.033 827.943,809.117 827.71,810.55C825.94,821.43 830.88,830.49 839.6,836.7C849.393,843.66 860.213,846.31 872.06,844.65C883.94,842.98 893.49,836.48 893.5,823.54C893.507,817.407 892.13,811.577 889.37,806.05C889.188,805.677 888.764,805.478 888.35,805.57ZM783.07,810.7C782.757,810.58 782.47,810.583 782.21,810.71L781.72,810.89C781.08,810.83 780.53,810.877 780.07,811.03C780.051,811.036 780.033,811.043 780.015,811.052C779.807,811.152 779.72,811.409 779.823,811.621C779.831,811.638 779.84,811.654 779.85,811.67L783.54,817.14C784.02,820.03 784.98,823.74 781.28,824.33C780.5,822.823 779.827,821.163 779.26,819.35C778.807,817.883 778.36,816.713 777.92,815.84C776.68,813.41 774.94,811.81 772.01,812.09C761.55,813.09 763.84,827.19 767.84,833.16C770.313,836.86 772.347,839.33 773.94,840.57C778.467,844.117 783,847.637 787.54,851.13C788.753,852.843 790.063,854.48 791.47,856.04C791.983,856.607 792.657,858.027 793.49,860.3C793.997,861.693 795.117,862.99 796.85,864.19L800.67,876.33C800.617,877.37 800.88,878.27 801.46,879.03C801.767,882.077 802.667,884.727 804.16,886.98C805.053,889.167 805.793,891.38 806.38,893.62C806.967,895.867 808.667,897.767 811.48,899.32C812.507,900.353 813.567,901.03 814.66,901.35L821.47,906.56C821.657,906.993 821.9,907.38 822.2,907.72C824.6,910.573 827.22,911.873 830.06,911.62L834.54,912.39L840.25,914.05C840.523,914.97 840.943,915.333 841.51,915.14C841.878,915.019 842.129,914.673 842.129,914.285C842.129,913.871 841.843,913.507 841.44,913.41C840.94,913.29 840.573,913.39 840.34,913.71L838.73,912.46C838.703,911.807 838.803,911.157 839.03,910.51C840.623,909.023 841.727,907.443 842.34,905.77C842.52,905.266 843.001,904.928 843.536,904.928C844.188,904.928 844.739,905.431 844.8,906.08L845.72,915.14C845.742,915.326 845.901,915.467 846.087,915.467C846.208,915.467 846.321,915.408 846.39,915.31L849.16,911.14C849.401,910.777 849.808,910.558 850.243,910.558C850.783,910.558 851.27,910.895 851.46,911.4C852.1,913.053 851.82,914.807 850.62,916.66C850.453,916.904 850.496,917.242 850.72,917.45C851.54,918.21 852.643,918.687 854.03,918.88C854.045,918.882 854.06,918.883 854.075,918.883C854.273,918.883 854.435,918.72 854.435,918.523C854.435,918.477 854.427,918.432 854.41,918.39L853.68,916.6C853.544,916.264 853.53,915.889 853.64,915.54L855.66,908.9C855.798,908.446 856.236,908.145 856.71,908.18C860.62,908.46 864.8,910.14 868.79,910.37C874.13,910.683 879.08,909.627 883.64,907.2C883.776,907.127 883.928,907.089 884.083,907.089C884.599,907.089 885.023,907.513 885.023,908.029C885.023,908.135 885.005,908.24 884.97,908.34C884.477,909.74 883.447,911.073 881.88,912.34C881.694,912.488 881.569,912.702 881.53,912.94L880.8,917.39C880.795,917.417 880.793,917.444 880.793,917.471C880.793,917.728 881.005,917.941 881.263,917.941C881.32,917.941 881.377,917.93 881.43,917.91C882.55,917.47 883.593,916.667 884.56,915.5C886.587,915.693 888.223,914.943 889.47,913.25C890.903,912.17 892.033,910.883 892.86,909.39C894.607,909.343 896.293,907.893 897.92,905.04C899.727,903.28 900.717,900.513 900.89,896.74C900.963,895.073 901.47,893.753 902.41,892.78C902.61,892.573 902.885,892.456 903.173,892.456C903.754,892.456 904.233,892.935 904.233,893.516C904.233,893.571 904.228,893.626 904.22,893.68L903.79,896.3C903.786,896.326 903.784,896.352 903.784,896.378C903.784,896.641 904,896.858 904.264,896.858C904.394,896.858 904.52,896.804 904.61,896.71C905.19,896.09 905.51,895.33 905.57,894.43C905.797,890.903 906.257,887.85 906.95,885.27C906.957,885.246 906.964,885.221 906.972,885.197C907.233,884.394 908.066,883.934 908.817,884.178C908.838,884.185 908.859,884.192 908.88,884.2C909.647,884.487 910.077,885.327 910.17,886.72C910.181,886.865 910.303,886.979 910.449,886.979C910.473,886.979 910.497,886.976 910.52,886.97C910.64,886.943 910.723,886.87 910.77,886.75C910.837,886.557 910.877,886.04 910.89,885.2C910.89,885.198 910.889,885.197 910.889,885.195C910.889,885.184 910.899,885.174 910.91,885.174C910.919,885.174 910.928,885.181 910.93,885.19C910.95,885.21 910.96,885.24 910.96,885.28C910.96,885.307 910.97,885.331 910.989,885.346C911.028,885.378 911.092,885.365 911.131,885.318C911.149,885.295 911.16,885.267 911.16,885.24C911.28,883.66 911.383,882.087 911.47,880.52C911.557,878.867 912.383,877.967 913.95,877.82C914.463,877.767 914.849,877.319 914.82,876.81C914.707,874.97 914.897,873.223 915.39,871.57C915.597,870.883 916.307,870.627 917.52,870.8C917.535,870.802 917.55,870.803 917.564,870.803C917.74,870.803 917.884,870.659 917.884,870.483C917.884,870.465 917.883,870.448 917.88,870.43L917.12,866.45C917.062,866.126 916.9,865.831 916.66,865.61C916.14,865.137 915.6,864.97 915.04,865.11C914.723,865.187 914.387,865.152 914.09,865.01C912.62,864.31 909.41,861.9 908.37,864.48C907.49,866.68 906.59,867.71 904.65,867.88C904.066,867.934 903.572,868.34 903.41,868.9C899.06,883.51 891.97,904.24 873.97,906.13C860.19,907.58 847.38,900.43 839.56,889.21C833.693,880.797 829.95,871.48 828.33,861.26C828.285,860.959 828.014,860.735 827.7,860.74L823.92,860.82C824.013,861.62 823.54,861.027 822.5,859.04C824.92,856.453 828.293,855.617 832.62,856.53C833.063,856.622 833.486,856.795 833.87,857.04C836.197,858.547 838.097,859.597 839.57,860.19C859.92,868.46 881.87,870.56 903.28,864.83C906.27,864.03 905.4,862.75 906.57,860.96C906.863,860.507 907.63,859.523 908.87,858.01C908.93,857.935 908.964,857.842 908.966,857.747C908.973,857.5 908.771,857.291 908.519,857.284C908.423,857.281 908.329,857.308 908.25,857.36C906.517,858.6 904.873,860.057 903.32,861.73C902.58,862.53 901.58,862.9 900.61,862.74C900.523,862.726 900.438,862.703 900.356,862.67C899.677,862.402 899.362,861.568 899.657,860.823C899.693,860.731 899.738,860.643 899.79,860.56C901.823,857.28 904.7,855.213 908.42,854.36C908.833,854.262 909.27,854.414 909.54,854.75C911.053,856.597 911.63,858.55 911.27,860.61C911.265,860.641 911.262,860.672 911.262,860.703C911.262,860.993 911.482,861.238 911.77,861.27C918.21,862.037 924.403,861.477 930.35,859.59C938.043,857.143 942.147,851.853 942.66,843.72C942.66,843.715 942.66,843.71 942.66,843.706C942.66,843.541 942.525,843.406 942.36,843.406C942.343,843.406 942.327,843.407 942.31,843.41C929.51,845.7 914.53,842.1 905.87,832.88C898.25,824.77 895.95,812.09 903.16,802.43C903.189,802.393 903.212,802.352 903.229,802.308C903.331,802.048 903.197,801.748 902.932,801.643C902.89,801.626 902.845,801.615 902.8,801.61C899.307,801.25 895.953,801.577 892.74,802.59C892.725,802.595 892.71,802.6 892.696,802.606C892.356,802.747 892.19,803.137 892.328,803.472C892.335,803.488 892.342,803.504 892.35,803.52C897.7,814.2 899.79,830.19 890.94,839.58C885.36,845.49 875.61,848.39 867.29,848.71C855.15,849.17 844.3,845.7 834.74,838.3C826.04,831.56 820.91,821.12 822.86,810.15C822.865,810.12 822.867,810.09 822.867,810.06C822.867,809.759 822.621,809.511 822.32,809.51C818.327,809.47 812.137,809.297 803.75,808.99C799.037,808.817 792.143,809.387 783.07,810.7ZM834.67,865.43C835.22,867.481 836.577,869.221 838.43,870.25C850.763,877.103 863.787,880.237 877.5,879.65C882.347,879.45 887.157,878.643 891.93,877.23C892.168,877.159 892.374,876.999 892.51,876.78L896.67,869.87C896.674,869.864 896.676,869.857 896.676,869.85C896.676,869.828 896.658,869.81 896.636,869.81C896.634,869.81 896.632,869.81 896.63,869.81C881.25,873.93 863.38,872.05 848.47,867.5C843.53,866 839.213,864.16 835.52,861.98C835.404,861.91 835.276,861.865 835.142,861.847C834.598,861.774 834.09,862.165 834.016,862.714C833.998,862.846 834.006,862.981 834.04,863.11L834.67,865.43ZM860.78,900.76C865.38,902.213 870.087,902.643 874.9,902.05C875.138,902.025 875.32,901.822 875.32,901.583C875.32,901.472 875.281,901.365 875.21,901.28C871.73,897.067 867.753,894.253 863.28,892.84C858.807,891.427 853.937,891.443 848.67,892.89C848.468,892.947 848.327,893.132 848.327,893.343C848.327,893.475 848.382,893.601 848.48,893.69C852.08,896.95 856.18,899.307 860.78,900.76ZM801.21,907.24C801.208,907.244 801.207,907.248 801.205,907.252C801.168,907.361 801.223,907.48 801.327,907.516C801.331,907.517 801.335,907.519 801.34,907.52C809.733,910.153 816.71,915.063 822.27,922.25C823.63,924.01 824.283,925.853 824.23,927.78C824.103,932.547 824.033,935.673 824.02,937.16C824.02,937.163 824.02,937.167 824.02,937.17C824.02,937.527 824.313,937.82 824.67,937.82C824.756,937.82 824.841,937.803 824.92,937.77C830.92,935.3 830.91,930.1 834.17,925.59C836.01,923.05 837.86,920.977 839.72,919.37C839.829,919.275 839.891,919.138 839.891,918.993C839.891,918.719 839.666,918.493 839.391,918.493C839.336,918.493 839.282,918.502 839.23,918.52L835.28,919.87C835.187,919.902 835.09,919.919 834.991,919.92C834.498,919.922 834.089,919.514 834.086,919.014C834.086,918.918 834.101,918.822 834.13,918.73C834.277,918.27 834.313,917.743 834.24,917.15C834.196,916.807 833.9,916.546 833.55,916.54C831.983,916.527 830.537,916.767 829.21,917.26C828.655,917.468 828.029,917.401 827.52,917.08L823.07,914.28C822.97,914.213 822.877,914.14 822.79,914.06C817.84,909.09 814.35,905.74 808.96,903.25C808.529,903.047 808.019,903.101 807.64,903.39C805.887,904.697 803.91,905.793 801.71,906.68C801.49,906.767 801.323,906.953 801.21,907.24ZM859.61,920.12C860.803,921.047 862.43,921.23 864.49,920.67C865.817,920.897 867.1,920.79 868.34,920.35C868.73,920.212 869.031,919.896 869.15,919.5L870.48,915.12C870.498,915.065 870.507,915.007 870.507,914.948C870.507,914.657 870.28,914.412 869.99,914.39L865.47,914.05C864.817,913.277 864.023,913.027 863.09,913.3C861.263,912.62 859.553,911.63 857.96,910.33C857.941,910.315 857.919,910.304 857.896,910.296C857.781,910.258 857.657,910.316 857.62,910.425C857.612,910.449 857.609,910.475 857.61,910.5L857.68,918.94C857.686,919.18 857.805,919.406 858,919.55C858.227,919.757 858.763,919.947 859.61,920.12ZM877.96,913.32L873.74,914.12C873.485,914.168 873.299,914.392 873.299,914.651C873.299,914.738 873.32,914.823 873.36,914.9C874.147,916.353 874.16,918.01 873.4,919.87C873.372,919.935 873.358,920.005 873.358,920.075C873.358,920.36 873.593,920.595 873.878,920.595C873.902,920.595 873.926,920.593 873.95,920.59C875.41,920.39 876.48,918.86 876.61,917.42C876.737,916.093 877.273,914.877 878.22,913.77C878.246,913.738 878.265,913.701 878.275,913.662C878.314,913.513 878.229,913.36 878.085,913.322C878.045,913.311 878.002,913.311 877.96,913.32ZM836.07,940.33C836.072,940.317 836.073,940.303 836.073,940.29C836.073,940.153 835.96,940.04 835.823,940.04C835.72,940.04 835.627,940.104 835.59,940.2L829.45,950.99C829.111,951.575 828.984,952.261 829.09,952.93C830.61,962.96 828.99,973.94 830.58,984.58C830.581,984.584 830.581,984.588 830.582,984.593C830.677,985.133 831.196,985.5 831.731,985.406C831.741,985.404 831.75,985.402 831.76,985.4L840.26,983.74C841.005,983.591 841.546,982.931 841.546,982.171C841.546,982.043 841.531,981.915 841.5,981.79C838.087,967.75 836.277,953.93 836.07,940.33Z" style="fill-rule:nonzero;"/>
        <path d="M799.07,726.49C799.003,726.531 798.916,726.513 798.87,726.45C798.87,726.45 798.778,726.318 798.778,726.317C798.501,725.901 801.282,723.56 804.938,721.132C804.938,721.131 805.09,721.03 805.09,721.03C808.731,718.611 811.957,716.958 812.25,717.36L812.34,717.5C812.381,717.567 812.363,717.654 812.3,717.7L799.07,726.49Z" style="fill:rgb(249,211,142);fill-rule:nonzero;"/>
        <path d="M936.64,736.66C936.604,736.646 936.586,736.606 936.6,736.57L936.61,736.54C936.61,736.539 936.61,736.539 936.611,736.538C936.808,736.027 938.672,736.262 940.74,737.06C940.74,737.06 943.201,738.01 943.202,738.011C945.269,738.808 946.808,739.886 946.611,740.398C946.611,740.399 946.61,740.399 946.61,740.4L946.6,740.43C946.586,740.466 946.546,740.484 946.51,740.47L936.64,736.66Z" style="fill:rgb(122,127,112);fill-rule:nonzero;"/>
        <path d="M835.44,757.08L835.45,757.1C835.506,757.168 835.537,757.254 835.537,757.342C835.537,757.477 835.466,757.602 835.35,757.67C834.097,758.457 833.37,759.433 833.17,760.6C833.163,760.642 833.158,760.685 833.154,760.727C833.084,761.641 833.913,762.46 834.99,762.543C835.04,762.547 835.09,762.549 835.14,762.55C844.4,762.68 850.54,759.4 858.03,753.77C861.077,751.483 864.39,748.92 867.97,746.08C868.026,746.032 868.098,746.005 868.172,746.005C868.342,746.005 868.482,746.145 868.482,746.315C868.482,746.344 868.478,746.372 868.47,746.4C867.757,749.36 868.117,751.377 869.55,752.45C870.258,752.976 871.242,753.011 872.04,752.54C874.17,751.29 876.41,749.31 878.87,748.06C885.19,744.84 890.99,742.24 895.37,737.9C895.574,737.703 895.88,737.654 896.13,737.78C897.977,738.72 903.56,742.157 912.88,748.09C917.807,751.223 921.327,754.25 923.44,757.17C923.493,757.25 923.54,757.333 923.58,757.42L929.63,771.26C929.653,771.315 929.665,771.375 929.665,771.435C929.665,771.681 929.462,771.885 929.215,771.885C929.148,771.885 929.081,771.869 929.02,771.84C925.773,770.26 921.68,769.943 916.74,770.89C915.115,771.206 913.945,772.665 913.99,774.32L914,774.57C914.038,775.87 915.118,776.919 916.419,776.919C916.598,776.919 916.776,776.899 916.95,776.86C922.163,775.673 927.157,776.503 931.93,779.35C932.145,779.48 932.316,779.668 932.42,779.89L935.17,785.61C935.202,785.678 935.218,785.752 935.218,785.827C935.218,786.076 935.036,786.29 934.79,786.33C924.48,788.13 916.19,792.61 907.23,798.2C906.883,798.425 906.461,798.511 906.05,798.44C900.783,797.593 895.593,797.92 890.48,799.42C890.153,799.516 889.795,799.387 889.59,799.1C880.96,786.74 865.95,785.96 852.11,788.68C844.05,790.273 837.28,793.79 831.8,799.23C831.153,799.87 830.339,800.317 829.45,800.52C826.44,801.2 825.9,804.34 823.3,804.53C819.153,804.843 813.05,805.16 804.99,805.48C804.976,805.481 804.962,805.481 804.948,805.481C804.366,805.481 803.888,805.002 803.888,804.421C803.888,804.367 803.892,804.313 803.9,804.26C804.18,802.533 804.033,800.82 803.46,799.12C803.435,799.049 803.421,798.974 803.417,798.899C803.391,798.444 803.749,798.049 804.209,798.023C804.283,798.019 804.357,798.025 804.43,798.04C808.21,798.84 811.13,795.79 809.9,792.1C807.273,784.26 804.693,777.55 802.16,771.97C802.123,771.891 802.104,771.804 802.104,771.717C802.104,771.45 802.283,771.213 802.54,771.14C804.33,770.62 806.34,770.61 808.88,769.83C812.867,768.597 817.64,766.72 823.2,764.2C827.78,762.12 831.67,759.73 834.87,757.03C834.943,756.968 835.035,756.933 835.131,756.933C835.25,756.933 835.364,756.987 835.44,757.08ZM863.28,774.48C863.15,770.72 857.95,770.38 855.16,770.63C846.967,771.383 840.113,775.467 834.6,782.88C833.603,784.212 833.452,786.005 834.21,787.49L834.31,787.69C834.625,788.309 835.264,788.7 835.959,788.7C836.518,788.7 837.049,788.446 837.4,788.01C843.913,779.923 851.783,776.22 861.01,776.9C861.046,776.903 861.083,776.904 861.119,776.905C862.287,776.921 863.263,775.883 863.281,774.605C863.282,774.563 863.281,774.521 863.28,774.48Z" style="fill:rgb(253,253,253);fill-rule:nonzero;"/>
        <path d="M863.28,774.48C863.281,774.521 863.282,774.563 863.281,774.605C863.263,775.883 862.287,776.921 861.119,776.905C861.083,776.904 861.046,776.903 861.01,776.9C851.783,776.22 843.913,779.923 837.4,788.01C837.049,788.446 836.518,788.7 835.959,788.7C835.264,788.7 834.625,788.309 834.31,787.69L834.21,787.49C833.452,786.005 833.603,784.212 834.6,782.88C840.113,775.467 846.967,771.383 855.16,770.63C857.95,770.38 863.15,770.72 863.28,774.48Z" style="fill-rule:nonzero;"/>
        <path d="M940.44,789.61C941.933,794.403 943.523,799.133 945.21,803.8C946.983,808.713 947.787,813.777 947.62,818.99C947.427,825.43 947.113,831.957 946.68,838.57C945.793,839.03 944.72,839.327 943.46,839.46C943.53,833.46 943.73,827.64 944.19,821.75C944.523,817.47 944.18,813.323 943.16,809.31C941.587,803.103 939.423,796.687 936.67,790.06C937.77,789.58 939.027,789.43 940.44,789.61Z" style="fill:rgb(122,127,112);fill-rule:nonzero;"/>
        <path d="M946.68,838.57C947.113,831.957 947.427,825.43 947.62,818.99C947.787,813.777 946.983,808.713 945.21,803.8C943.523,799.133 941.933,794.403 940.44,789.61C948.907,788.577 955.333,791.63 959.72,798.77C963.5,804.92 967.38,813.99 965.2,820.21C965.081,820.54 964.898,820.842 964.66,821.1C961.34,824.7 958.68,830.16 954.99,833.51C952.597,835.677 949.827,837.363 946.68,838.57Z" style="fill:white;fill-opacity:0.56;fill-rule:nonzero;"/>
        <path d="M936.67,790.06C939.423,796.687 941.587,803.103 943.16,809.31C944.18,813.323 944.523,817.47 944.19,821.75C943.73,827.64 943.53,833.46 943.46,839.46C935.573,841.36 927.797,840.737 920.13,837.59C915.49,835.69 911.44,832.747 907.98,828.76C901.39,821.17 902.34,812.03 907.87,803.87C908.131,803.486 908.572,803.265 909.03,803.29L911.48,803.43C912.065,803.466 912.582,803.032 912.65,802.45C913.01,799.2 916.48,797.87 919.36,796.33C924.58,793.55 930.35,791.46 936.67,790.06ZM928.74,811.84C931.76,810.02 935.65,811.33 939.06,812.51C939.348,812.608 939.659,812.629 939.96,812.57L940.29,812.51C940.906,812.394 941.357,811.85 941.357,811.223C941.357,810.814 941.166,810.428 940.84,810.18C937.707,807.78 934.333,806.88 930.72,807.48C924.033,808.6 918.7,811.857 914.72,817.25C913.827,818.463 913.833,819.673 914.74,820.88C914.76,820.907 914.781,820.934 914.802,820.959C915.401,821.675 916.485,821.768 917.205,821.167C917.231,821.145 917.256,821.123 917.28,821.1C922.447,816.253 928.607,814.99 935.76,817.31C937.48,817.863 939.203,819.33 940.93,821.71C941.133,821.986 941.456,822.149 941.799,822.149C942.27,822.149 942.69,821.84 942.83,821.39L943.09,820.54C943.384,819.573 943.173,818.52 942.53,817.74C939.02,813.43 934.06,812.38 928.85,812.26C928.731,812.25 928.639,812.15 928.639,812.031C928.639,811.954 928.677,811.883 928.74,811.84Z" style="fill:rgb(253,253,253);fill-rule:nonzero;"/>
        <path d="M888.35,805.57C888.764,805.478 889.188,805.677 889.37,806.05C892.13,811.577 893.507,817.407 893.5,823.54C893.49,836.48 883.94,842.98 872.06,844.65C860.213,846.31 849.393,843.66 839.6,836.7C830.88,830.49 825.94,821.43 827.71,810.55C827.943,809.117 828.337,808.033 828.89,807.3C829.037,807.1 829.229,806.936 829.45,806.82L832.29,805.36C832.379,805.313 832.46,805.252 832.53,805.18C837.48,799.75 842.94,795.55 849.93,793.61C862.27,790.16 876.76,789.61 885.94,800.1C886.094,800.272 886.179,800.495 886.179,800.726C886.179,801.023 886.038,801.303 885.8,801.48L884.71,802.29C884.43,802.499 884.272,802.834 884.29,803.18C884.337,804.7 885.08,805.7 886.52,806.18C886.967,806.333 887.363,806.257 887.71,805.95C887.95,805.743 888.163,805.617 888.35,805.57ZM858.4,814.51C858.557,814.532 858.675,814.668 858.675,814.827C858.675,814.978 858.568,815.109 858.42,815.14C858.007,815.227 856.6,815.5 854.2,815.96C848.873,816.98 844.427,819.717 840.86,824.17C840.606,824.487 840.468,824.882 840.468,825.288C840.468,825.845 840.728,826.372 841.17,826.71L841.23,826.76C842.056,827.425 843.278,827.304 843.95,826.49L846.43,823.47C846.569,823.305 846.735,823.166 846.92,823.06C853.3,819.387 859.967,818.543 866.92,820.53C867.667,820.743 869.067,821.513 871.12,822.84C871.408,823.025 871.758,823.087 872.09,823.01C875.55,822.22 873.68,818.6 872.14,817.08C866.38,811.407 859.047,809.417 850.14,811.11C848.49,811.42 843.37,812.88 843.72,815.09C843.73,815.152 843.744,815.213 843.762,815.273C844.013,816.103 844.988,816.553 845.923,816.271C845.99,816.251 846.056,816.227 846.12,816.2C850.08,814.527 854.173,813.963 858.4,814.51Z" style="fill:rgb(253,253,253);fill-rule:nonzero;"/>
        <path d="M822.5,859.04C824.747,854.467 829.153,851.563 835.72,850.33C835.731,850.329 835.742,850.328 835.753,850.328C835.895,850.328 836.013,850.445 836.013,850.588C836.013,850.686 835.957,850.776 835.87,850.82C834.617,851.353 833.63,852.15 832.91,853.21C832.899,853.226 832.888,853.242 832.877,853.259C832.345,854.078 832.563,855.177 833.359,855.694C833.372,855.703 833.386,855.712 833.4,855.72C833.767,855.94 834.467,856 835.5,855.9C839.66,855.493 842.873,854.933 845.14,854.22C845.195,854.197 845.26,854.218 845.29,854.27L845.49,854.62C845.51,854.653 845.52,854.69 845.52,854.729C845.52,854.821 845.459,854.904 845.37,854.93C842.557,855.743 841.37,856.943 841.81,858.53C841.988,859.157 842.567,859.588 843.21,859.57C845.697,859.523 847.55,859.257 848.77,858.77C850.917,857.91 854.327,856.827 859,855.52C859.017,855.514 859.037,855.522 859.05,855.54L859.24,855.79C859.243,855.794 859.246,855.799 859.248,855.804C859.275,855.858 859.249,855.926 859.19,855.956C859.187,855.957 859.183,855.959 859.18,855.96C856.86,856.84 853.7,858.61 851.95,860.77C851.932,860.792 851.915,860.815 851.898,860.838C851.474,861.439 851.679,862.323 852.351,862.798C852.377,862.816 852.403,862.833 852.43,862.85C854.38,864.08 858.42,861.57 862.14,859.67C865.56,857.92 869.65,856.82 871.81,855.77C871.874,855.738 871.938,855.704 871.999,855.667C872.977,855.079 873.389,853.942 872.912,853.147C872.881,853.096 872.847,853.047 872.81,853C872.557,852.68 871.943,852.58 870.97,852.7C868.657,852.98 865.75,853.913 862.25,855.5C862.135,855.548 862,855.495 861.95,855.38L861.95,855.37C861.9,855.243 861.958,855.099 862.08,855.05C863.26,854.543 863.663,853.753 863.29,852.68C863.123,852.18 862.653,851.967 861.88,852.04C858.673,852.36 855.63,852.833 852.75,853.46C852.728,853.465 852.705,853.467 852.683,853.467C852.507,853.467 852.363,853.323 852.363,853.147C852.363,853.088 852.379,853.03 852.41,852.98C852.963,852.067 853.097,851.367 852.81,850.88C852.59,850.493 851.95,850.223 850.89,850.07C849.223,849.83 847.157,849.947 844.69,850.42C844.655,850.427 844.619,850.43 844.584,850.43C844.276,850.43 844.024,850.177 844.024,849.87C844.024,849.812 844.032,849.755 844.05,849.7C844.557,848.06 844.107,847.183 842.7,847.07C840.98,846.93 839.417,846.843 838.01,846.81C837.037,846.79 836.48,846.337 836.34,845.45C836.336,845.426 836.331,845.401 836.325,845.377C836.205,844.927 835.665,844.673 835.13,844.816C835.103,844.823 835.076,844.831 835.05,844.84C833.73,845.307 832.237,846.017 830.57,846.97C830.488,847.017 830.395,847.043 830.3,847.043C830.01,847.043 829.769,846.809 829.76,846.52C829.687,844.753 828.757,844.06 826.97,844.44C820.06,845.93 816.82,852.4 814.14,859.18C813.78,860.08 813.383,860.707 812.95,861.06C812.31,861.587 812.143,862.223 812.45,862.97C812.47,863.021 812.484,863.074 812.49,863.128C812.529,863.46 812.292,863.766 811.965,863.804C811.91,863.81 811.855,863.809 811.8,863.8L811.07,863.68C810.775,863.625 810.476,863.772 810.34,864.04L808.68,867.27C808.618,867.39 808.495,867.465 808.36,867.465C808.162,867.465 808,867.303 808,867.105C808,867.103 808,867.102 808,867.1C808.02,864.82 808.543,862.527 809.57,860.22C810.4,858.35 811.67,853.36 809.1,852.22C808.795,852.087 808.437,852.194 808.26,852.47C806.627,855.023 805.36,858.12 804.46,861.76C804.456,861.789 804.43,861.811 804.401,861.811C804.397,861.811 804.394,861.811 804.39,861.81L804.09,861.76C804.084,861.759 804.078,861.758 804.072,861.757C803.976,861.736 803.915,861.635 803.937,861.533C803.938,861.529 803.939,861.524 803.94,861.52C805.08,857.44 806.27,853.357 807.51,849.27C807.977,847.75 807.643,846.63 806.51,845.91C806.227,845.728 805.874,845.691 805.56,845.81C804.8,846.09 802.83,846.783 799.65,847.89C797.757,848.543 795.883,850.15 794.03,852.71C794.018,852.733 793.99,852.745 793.96,852.74L793.31,852.63C793.167,852.605 793.061,852.48 793.061,852.334C793.061,852.276 793.078,852.219 793.11,852.17C796.02,847.85 799.98,846.37 804.76,844.17C805.058,844.034 805.301,843.802 805.45,843.51C806.063,842.303 805.833,841.403 804.76,840.81C804.472,840.647 804.281,840.352 804.25,840.02C804.19,839.42 804.187,838.903 804.24,838.47C804.246,838.418 804.25,838.365 804.251,838.312C804.281,837.254 803.416,836.358 802.336,836.328C802.28,836.326 802.225,836.327 802.17,836.33C800.21,836.43 798.477,836.977 796.97,837.97C794.01,839.91 791.477,841.383 789.37,842.39C789.327,842.41 789.28,842.42 789.233,842.42C789.052,842.42 788.903,842.271 788.903,842.09C788.903,842.03 788.919,841.971 788.95,841.92C790.203,839.94 791.72,838.103 793.5,836.41C796,834.03 799.76,832.52 802.31,830.94C804.47,829.6 803.38,828.05 802.06,826.55C801.811,826.264 801.435,826.127 801.07,826.19C797.32,826.84 794.63,828.76 790.87,831.28C790.689,831.399 790.442,831.349 790.32,831.17L790.31,831.16C790.216,831.018 790.247,830.827 790.38,830.73C792.4,829.183 794.947,827.413 798.02,825.42C799.01,824.769 799.388,823.51 798.9,822.49C798.347,821.363 797.3,821.043 795.76,821.53C794.093,822.057 792.477,822.623 790.91,823.23C790.874,823.248 790.835,823.258 790.795,823.258C790.656,823.258 790.542,823.144 790.542,823.005C790.542,822.91 790.596,822.823 790.68,822.78C791.627,822.16 792.573,821.403 793.52,820.51C793.526,820.504 793.533,820.498 793.539,820.491C794.319,819.728 794.367,818.493 793.646,817.756C793.641,817.751 793.635,817.745 793.63,817.74C793.497,817.6 793.303,817.347 793.05,816.98C792.857,816.708 792.823,816.354 792.96,816.05C793.393,815.07 793.167,814.027 792.28,812.92C789.89,809.95 785.09,815.7 783.54,817.14L779.85,811.67C779.84,811.654 779.831,811.638 779.823,811.621C779.72,811.409 779.807,811.152 780.015,811.052C780.033,811.043 780.051,811.036 780.07,811.03C780.53,810.877 781.08,810.83 781.72,810.89C782.24,811.017 782.69,810.953 783.07,810.7C792.143,809.387 799.037,808.817 803.75,808.99C812.137,809.297 818.327,809.47 822.32,809.51C822.621,809.511 822.867,809.759 822.867,810.06C822.867,810.09 822.865,810.12 822.86,810.15C820.91,821.12 826.04,831.56 834.74,838.3C844.3,845.7 855.15,849.17 867.29,848.71C875.61,848.39 885.36,845.49 890.94,839.58C899.79,830.19 897.7,814.2 892.35,803.52C892.342,803.504 892.335,803.488 892.328,803.472C892.19,803.137 892.356,802.747 892.696,802.606C892.71,802.6 892.725,802.595 892.74,802.59C895.953,801.577 899.307,801.25 902.8,801.61C902.845,801.615 902.89,801.626 902.932,801.643C903.197,801.748 903.331,802.048 903.229,802.308C903.212,802.352 903.189,802.393 903.16,802.43C895.95,812.09 898.25,824.77 905.87,832.88C914.53,842.1 929.51,845.7 942.31,843.41C942.327,843.407 942.343,843.406 942.36,843.406C942.525,843.406 942.66,843.541 942.66,843.706C942.66,843.71 942.66,843.715 942.66,843.72C942.147,851.853 938.043,857.143 930.35,859.59C924.403,861.477 918.21,862.037 911.77,861.27C911.482,861.238 911.262,860.993 911.262,860.703C911.262,860.672 911.265,860.641 911.27,860.61C911.63,858.55 911.053,856.597 909.54,854.75C909.27,854.414 908.833,854.262 908.42,854.36C904.7,855.213 901.823,857.28 899.79,860.56C899.738,860.643 899.693,860.731 899.657,860.823C899.362,861.568 899.677,862.402 900.356,862.67C900.438,862.703 900.523,862.726 900.61,862.74C901.58,862.9 902.58,862.53 903.32,861.73C904.873,860.057 906.517,858.6 908.25,857.36C908.329,857.308 908.423,857.281 908.519,857.284C908.771,857.291 908.973,857.5 908.966,857.747C908.964,857.842 908.93,857.935 908.87,858.01C907.63,859.523 906.863,860.507 906.57,860.96C905.4,862.75 906.27,864.03 903.28,864.83C881.87,870.56 859.92,868.46 839.57,860.19C838.097,859.597 836.197,858.547 833.87,857.04C833.486,856.795 833.063,856.622 832.62,856.53C828.293,855.617 824.92,856.453 822.5,859.04ZM878.05,858.03C876.543,859.043 875.443,860.2 874.75,861.5C874.634,861.719 874.574,861.963 874.574,862.21C874.574,863.035 875.245,863.717 876.07,863.73C877.7,863.75 879.86,862.49 881.36,861.13C883.707,858.997 886.297,857.377 889.13,856.27C889.91,855.97 890.303,855.143 890.31,853.79C890.31,853.448 890.032,853.165 889.69,853.16C885.06,853.12 883.15,856.36 879.3,857.47C879.3,857.47 879.3,857.47 879.3,857.47C879.214,857.489 879.129,857.438 879.111,857.358C879.111,857.355 879.11,857.353 879.11,857.35L879.1,857.35C879.1,857.349 879.1,857.349 879.1,857.348C879.07,857.203 879.161,857.06 879.301,857.032C879.304,857.031 879.307,857.031 879.31,857.03C880.823,856.783 881.833,856.023 882.34,854.75C882.357,854.707 882.372,854.663 882.386,854.619C882.646,853.763 882.182,852.853 881.357,852.603C881.315,852.59 881.273,852.579 881.23,852.57C880.27,852.377 879.463,852.463 878.81,852.83C873.3,855.9 867.52,857.28 862.94,861.55C862.605,861.858 862.414,862.294 862.414,862.749C862.414,863.51 862.947,864.175 863.69,864.34C866.83,865.06 872.81,860.36 875.75,858.29C876.243,857.943 876.963,857.723 877.91,857.63C877.915,857.63 877.919,857.63 877.924,857.63C878.045,857.63 878.144,857.729 878.144,857.85C878.144,857.921 878.109,857.989 878.05,858.03ZM894.56,857.47L893.24,860.02C893.157,860.181 893.113,860.359 893.113,860.54C893.113,861.16 893.623,861.67 894.243,861.67C894.245,861.67 894.248,861.67 894.25,861.67C895.23,861.67 896.03,861.517 896.65,861.21C896.894,861.091 897.109,860.921 897.28,860.71C898.847,858.803 900.663,857.357 902.73,856.37C903.342,856.075 903.684,855.404 903.56,854.74L903.47,854.28C903.37,853.759 902.91,853.379 902.38,853.379C902.183,853.379 901.99,853.431 901.82,853.53L896.83,856.41C896.777,856.44 896.717,856.456 896.657,856.456C896.465,856.456 896.307,856.298 896.307,856.106C896.307,856.074 896.311,856.041 896.32,856.01C896.42,855.637 896.59,855.303 896.83,855.01C896.984,854.821 897.068,854.585 897.068,854.341C897.068,853.76 896.589,853.281 896.008,853.281C895.845,853.281 895.685,853.319 895.54,853.39C890.92,855.69 888.34,856.983 887.8,857.27C886.153,858.157 885.01,859.313 884.37,860.74C884.323,860.847 884.288,860.958 884.267,861.073C884.118,861.877 884.653,862.66 885.451,862.808C885.566,862.829 885.683,862.836 885.8,862.83C887.14,862.757 888.363,862.133 889.47,860.96C891.27,859.06 892.83,857.76 894.15,857.06C894.193,857.037 894.241,857.024 894.289,857.024C894.454,857.023 894.59,857.163 894.59,857.333C894.591,857.38 894.58,857.427 894.56,857.47Z" style="fill:rgb(253,253,253);fill-rule:nonzero;"/>
        <path d="M928.74,811.84C928.677,811.883 928.639,811.954 928.639,812.031C928.639,812.15 928.731,812.25 928.85,812.26C934.06,812.38 939.02,813.43 942.53,817.74C943.173,818.52 943.384,819.573 943.09,820.54L942.83,821.39C942.69,821.84 942.27,822.149 941.799,822.149C941.456,822.149 941.133,821.986 940.93,821.71C939.203,819.33 937.48,817.863 935.76,817.31C928.607,814.99 922.447,816.253 917.28,821.1C917.256,821.123 917.231,821.145 917.205,821.167C916.485,821.768 915.401,821.675 914.802,820.959C914.781,820.934 914.76,820.907 914.74,820.88C913.833,819.673 913.827,818.463 914.72,817.25C918.7,811.857 924.033,808.6 930.72,807.48C934.333,806.88 937.707,807.78 940.84,810.18C941.166,810.428 941.357,810.814 941.357,811.223C941.357,811.85 940.906,812.394 940.29,812.51L939.96,812.57C939.659,812.629 939.348,812.608 939.06,812.51C935.65,811.33 931.76,810.02 928.74,811.84Z" style="fill-rule:nonzero;"/>
        <path d="M783.07,810.7L782.21,810.71C782.47,810.583 782.757,810.58 783.07,810.7Z" style="fill:rgb(47,47,45);fill-rule:nonzero;"/>
        <path d="M858.4,814.51C854.173,813.963 850.08,814.527 846.12,816.2C846.056,816.227 845.99,816.251 845.923,816.271C844.988,816.553 844.013,816.103 843.762,815.273C843.744,815.213 843.73,815.152 843.72,815.09C843.37,812.88 848.49,811.42 850.14,811.11C859.047,809.417 866.38,811.407 872.14,817.08C873.68,818.6 875.55,822.22 872.09,823.01C871.758,823.087 871.408,823.025 871.12,822.84C869.067,821.513 867.667,820.743 866.92,820.53C859.967,818.543 853.3,819.387 846.92,823.06C846.735,823.166 846.569,823.305 846.43,823.47L843.95,826.49C843.278,827.304 842.056,827.425 841.23,826.76L841.17,826.71C840.728,826.372 840.468,825.845 840.468,825.288C840.468,824.882 840.606,824.487 840.86,824.17C844.427,819.717 848.873,816.98 854.2,815.96C856.6,815.5 858.007,815.227 858.42,815.14C858.568,815.109 858.675,814.978 858.675,814.827C858.675,814.668 858.557,814.532 858.4,814.51Z" style="fill-rule:nonzero;"/>
        <path d="M782.21,810.71L783.07,810.7C782.69,810.953 782.24,811.017 781.72,810.89L782.21,810.71Z" style="fill:rgb(180,209,220);fill-rule:nonzero;"/>
        <path d="M781.28,824.33C782.12,824.577 782.52,825.18 782.48,826.14C782.36,828.91 785.49,828.38 783.09,831.95C781.59,834.18 783.53,836.57 785.82,836.88C786.166,836.926 786.427,837.225 786.427,837.574C786.427,837.75 786.36,837.921 786.24,838.05C784.38,840.05 783.507,842.373 783.62,845.02C783.633,845.383 783.767,845.732 784,846.01C784.78,846.963 785.793,847.607 787.04,847.94C787.35,848.021 787.594,848.261 787.68,848.57C787.967,849.543 787.92,850.397 787.54,851.13C783,847.637 778.467,844.117 773.94,840.57C772.347,839.33 770.313,836.86 767.84,833.16C763.84,827.19 761.55,813.09 772.01,812.09C774.94,811.81 776.68,813.41 777.92,815.84C778.36,816.713 778.807,817.883 779.26,819.35C779.827,821.163 780.5,822.823 781.28,824.33ZM774.25,828.94L774.02,830.32C774.017,830.336 774.015,830.352 774.013,830.369C773.845,831.547 774.681,832.656 775.865,832.824C775.88,832.826 775.895,832.828 775.91,832.83C778.88,833.17 779.72,830.99 778.88,828.76C777.947,826.293 776.32,824.68 774,823.92C771.34,823.04 769.49,824.41 767.79,826.38C766.6,827.76 767.76,830.04 769.29,830.4C769.693,830.498 770.122,830.377 770.42,830.08L772.47,828.03C772.667,827.832 772.935,827.721 773.214,827.721C773.79,827.721 774.264,828.195 774.264,828.771C774.264,828.828 774.259,828.884 774.25,828.94Z" style="fill:rgb(253,253,253);fill-rule:nonzero;"/>
        <path d="M822.5,859.04C823.54,861.027 824.013,861.62 823.92,860.82C823.073,864.013 821.78,866.53 820.04,868.37C819.806,868.616 819.659,868.936 819.62,869.28C819.36,871.4 819.65,874.49 818.24,876.49C818.195,876.556 818.143,876.616 818.084,876.671C817.636,877.091 816.918,877.064 816.494,876.611C816.44,876.553 816.391,876.489 816.35,876.42C815.63,875.24 815.237,873.77 815.17,872.01C815.083,869.763 815.187,867.77 815.48,866.03C815.486,866.007 815.474,865.979 815.45,865.96L814.8,865.62C814.795,865.618 814.79,865.615 814.785,865.613C814.708,865.585 814.622,865.62 814.595,865.692C814.593,865.698 814.591,865.704 814.59,865.71L813.09,871.69C813.051,871.856 812.946,871.997 812.8,872.08L812.54,872.25C812.28,872.51 812.01,873.08 812.57,873.19C812.75,873.223 812.937,873.17 813.13,873.03C813.657,873.07 814.1,874.32 814.46,876.78C814.51,877.16 814.836,877.448 815.22,877.45L817.38,877.45C817.407,877.45 817.433,877.451 817.46,877.453C817.984,877.495 818.381,877.967 818.339,878.497C818.337,878.521 818.334,878.546 818.33,878.57L815.59,895.18C815.578,895.229 815.608,895.281 815.66,895.3L815.92,895.38C815.949,895.389 815.979,895.394 816.01,895.394C816.141,895.394 816.256,895.306 816.29,895.18C817.977,889.513 819.357,884.687 820.43,880.7C820.783,879.393 821.577,878.857 822.81,879.09C823.149,879.153 823.436,879.373 823.58,879.68C824.367,881.38 824.687,883.157 824.54,885.01C824.14,889.93 824.193,894.713 824.7,899.36C824.715,899.489 824.83,899.586 824.96,899.58L824.97,899.58C825.103,899.53 825.197,899.405 825.21,899.26L826.05,887.06C826.053,887.012 826.06,886.965 826.07,886.919C826.183,886.404 826.704,886.075 827.224,886.189C827.27,886.2 827.316,886.213 827.36,886.23L827.84,886.41C828.679,886.721 829.237,887.531 829.23,888.43L829.23,900.51C829.23,900.515 829.23,900.52 829.23,900.525C829.23,901.057 829.668,901.495 830.2,901.495C830.659,901.495 831.058,901.169 831.15,900.72C831.357,899.787 831.897,899.353 832.77,899.42C832.774,899.42 832.777,899.42 832.781,899.421C833.185,899.453 833.493,899.807 833.461,900.207C833.461,900.211 833.46,900.216 833.46,900.22C833.1,904.18 831.967,907.98 830.06,911.62C827.22,911.873 824.6,910.573 822.2,907.72C822.66,907.487 822.463,907.06 821.61,906.44C820.09,902.79 819.73,899.05 820.09,895.09C820.09,895.089 820.09,895.089 820.09,895.088C820.09,895.011 820.027,894.948 819.95,894.948C819.912,894.948 819.876,894.963 819.85,894.99L814.66,901.35C813.567,901.03 812.507,900.353 811.48,899.32L811.09,892.29C811.085,892.08 810.911,891.909 810.7,891.909C810.584,891.909 810.474,891.961 810.4,892.05L808.91,893.76C808.756,893.935 808.534,894.035 808.302,894.035C808.012,894.035 807.744,893.88 807.6,893.63L805.85,890.61C805.714,890.372 805.668,890.095 805.72,889.83C806.013,888.217 805.493,887.267 804.16,886.98C802.667,884.727 801.767,882.077 801.46,879.03L800.85,876.22C801.163,875.613 801.253,875.163 801.12,874.87C798.693,869.67 798.513,864.437 800.58,859.17C800.606,859.124 800.62,859.073 800.62,859.02C800.62,858.855 800.485,858.72 800.32,858.72C800.213,858.72 800.114,858.777 800.06,858.87C798.773,860.457 797.703,862.23 796.85,864.19C795.117,862.99 793.997,861.693 793.49,860.3C792.657,858.027 791.983,856.607 791.47,856.04C790.063,854.48 788.753,852.843 787.54,851.13C787.92,850.397 787.967,849.543 787.68,848.57C787.594,848.261 787.35,848.021 787.04,847.94C785.793,847.607 784.78,846.963 784,846.01C783.767,845.732 783.633,845.383 783.62,845.02C783.507,842.373 784.38,840.05 786.24,838.05C786.36,837.921 786.427,837.75 786.427,837.574C786.427,837.225 786.166,836.926 785.82,836.88C783.53,836.57 781.59,834.18 783.09,831.95C785.49,828.38 782.36,828.91 782.48,826.14C782.52,825.18 782.12,824.577 781.28,824.33C784.98,823.74 784.02,820.03 783.54,817.14C785.09,815.7 789.89,809.95 792.28,812.92C793.167,814.027 793.393,815.07 792.96,816.05C792.823,816.354 792.857,816.708 793.05,816.98C793.303,817.347 793.497,817.6 793.63,817.74C793.635,817.745 793.641,817.751 793.646,817.756C794.367,818.493 794.319,819.728 793.539,820.491C793.533,820.498 793.526,820.504 793.52,820.51C792.573,821.403 791.627,822.16 790.68,822.78C790.596,822.823 790.542,822.91 790.542,823.005C790.542,823.144 790.656,823.258 790.795,823.258C790.835,823.258 790.874,823.248 790.91,823.23C792.477,822.623 794.093,822.057 795.76,821.53C797.3,821.043 798.347,821.363 798.9,822.49C799.388,823.51 799.01,824.769 798.02,825.42C794.947,827.413 792.4,829.183 790.38,830.73C790.247,830.827 790.216,831.018 790.31,831.16L790.32,831.17C790.442,831.349 790.689,831.399 790.87,831.28C794.63,828.76 797.32,826.84 801.07,826.19C801.435,826.127 801.811,826.264 802.06,826.55C803.38,828.05 804.47,829.6 802.31,830.94C799.76,832.52 796,834.03 793.5,836.41C791.72,838.103 790.203,839.94 788.95,841.92C788.919,841.971 788.903,842.03 788.903,842.09C788.903,842.271 789.052,842.42 789.233,842.42C789.28,842.42 789.327,842.41 789.37,842.39C791.477,841.383 794.01,839.91 796.97,837.97C798.477,836.977 800.21,836.43 802.17,836.33C802.225,836.327 802.28,836.326 802.336,836.328C803.416,836.358 804.281,837.254 804.251,838.312C804.25,838.365 804.246,838.418 804.24,838.47C804.187,838.903 804.19,839.42 804.25,840.02C804.281,840.352 804.472,840.647 804.76,840.81C805.833,841.403 806.063,842.303 805.45,843.51C805.301,843.802 805.058,844.034 804.76,844.17C799.98,846.37 796.02,847.85 793.11,852.17C793.078,852.219 793.061,852.276 793.061,852.334C793.061,852.48 793.167,852.605 793.31,852.63L793.96,852.74C793.99,852.745 794.018,852.733 794.03,852.71C795.883,850.15 797.757,848.543 799.65,847.89C802.83,846.783 804.8,846.09 805.56,845.81C805.874,845.691 806.227,845.728 806.51,845.91C807.643,846.63 807.977,847.75 807.51,849.27C806.27,853.357 805.08,857.44 803.94,861.52C803.939,861.524 803.938,861.529 803.937,861.533C803.915,861.635 803.976,861.736 804.072,861.757C804.078,861.758 804.084,861.759 804.09,861.76L804.39,861.81C804.394,861.811 804.397,861.811 804.401,861.811C804.43,861.811 804.456,861.789 804.46,861.76C805.36,858.12 806.627,855.023 808.26,852.47C808.437,852.194 808.795,852.087 809.1,852.22C811.67,853.36 810.4,858.35 809.57,860.22C808.543,862.527 808.02,864.82 808,867.1C808,867.102 808,867.103 808,867.105C808,867.303 808.162,867.465 808.36,867.465C808.495,867.465 808.618,867.39 808.68,867.27L810.34,864.04C810.476,863.772 810.775,863.625 811.07,863.68L811.8,863.8C811.855,863.809 811.91,863.81 811.965,863.804C812.292,863.766 812.529,863.46 812.49,863.128C812.484,863.074 812.47,863.021 812.45,862.97C812.143,862.223 812.31,861.587 812.95,861.06C813.383,860.707 813.78,860.08 814.14,859.18C816.82,852.4 820.06,845.93 826.97,844.44C828.757,844.06 829.687,844.753 829.76,846.52C829.769,846.809 830.01,847.043 830.3,847.043C830.395,847.043 830.488,847.017 830.57,846.97C832.237,846.017 833.73,845.307 835.05,844.84C835.076,844.831 835.103,844.823 835.13,844.816C835.665,844.673 836.205,844.927 836.325,845.377C836.331,845.401 836.336,845.426 836.34,845.45C836.48,846.337 837.037,846.79 838.01,846.81C839.417,846.843 840.98,846.93 842.7,847.07C844.107,847.183 844.557,848.06 844.05,849.7C844.032,849.755 844.024,849.812 844.024,849.87C844.024,850.177 844.276,850.43 844.584,850.43C844.619,850.43 844.655,850.427 844.69,850.42C847.157,849.947 849.223,849.83 850.89,850.07C851.95,850.223 852.59,850.493 852.81,850.88C853.097,851.367 852.963,852.067 852.41,852.98C852.379,853.03 852.363,853.088 852.363,853.147C852.363,853.323 852.507,853.467 852.683,853.467C852.705,853.467 852.728,853.465 852.75,853.46C855.63,852.833 858.673,852.36 861.88,852.04C862.653,851.967 863.123,852.18 863.29,852.68C863.663,853.753 863.26,854.543 862.08,855.05C861.958,855.099 861.9,855.243 861.95,855.37L861.95,855.38C862,855.495 862.135,855.548 862.25,855.5C865.75,853.913 868.657,852.98 870.97,852.7C871.943,852.58 872.557,852.68 872.81,853C872.847,853.047 872.881,853.096 872.912,853.147C873.389,853.942 872.977,855.079 871.999,855.667C871.938,855.704 871.874,855.738 871.81,855.77C869.65,856.82 865.56,857.92 862.14,859.67C858.42,861.57 854.38,864.08 852.43,862.85C852.403,862.833 852.377,862.816 852.351,862.798C851.679,862.323 851.474,861.439 851.898,860.838C851.915,860.815 851.932,860.792 851.95,860.77C853.7,858.61 856.86,856.84 859.18,855.96C859.183,855.959 859.187,855.957 859.19,855.956C859.249,855.926 859.275,855.858 859.248,855.804C859.246,855.799 859.243,855.794 859.24,855.79L859.05,855.54C859.037,855.522 859.017,855.514 859,855.52C854.327,856.827 850.917,857.91 848.77,858.77C847.55,859.257 845.697,859.523 843.21,859.57C842.567,859.588 841.988,859.157 841.81,858.53C841.37,856.943 842.557,855.743 845.37,854.93C845.459,854.904 845.52,854.821 845.52,854.729C845.52,854.69 845.51,854.653 845.49,854.62L845.29,854.27C845.26,854.218 845.195,854.197 845.14,854.22C842.873,854.933 839.66,855.493 835.5,855.9C834.467,856 833.767,855.94 833.4,855.72C833.386,855.712 833.372,855.703 833.359,855.694C832.563,855.177 832.345,854.078 832.877,853.259C832.888,853.242 832.899,853.226 832.91,853.21C833.63,852.15 834.617,851.353 835.87,850.82C835.957,850.776 836.013,850.686 836.013,850.588C836.013,850.445 835.895,850.328 835.753,850.328C835.742,850.328 835.731,850.329 835.72,850.33C829.153,851.563 824.747,854.467 822.5,859.04ZM821.89,852.91L825.41,848.88C825.447,848.833 825.471,848.776 825.478,848.716C825.496,848.547 825.377,848.393 825.213,848.375C825.154,848.369 825.093,848.381 825.04,848.41C823.207,849.45 822.057,850.897 821.59,852.75C821.584,852.781 821.585,852.813 821.595,852.843C821.624,852.937 821.721,852.992 821.81,852.965C821.841,852.955 821.869,852.936 821.89,852.91Z" style="fill:rgb(47,47,45);fill-rule:nonzero;"/>
        <path d="M774.25,828.94C774.259,828.884 774.264,828.828 774.264,828.771C774.264,828.195 773.79,827.721 773.214,827.721C772.935,827.721 772.667,827.832 772.47,828.03L770.42,830.08C770.122,830.377 769.693,830.498 769.29,830.4C767.76,830.04 766.6,827.76 767.79,826.38C769.49,824.41 771.34,823.04 774,823.92C776.32,824.68 777.947,826.293 778.88,828.76C779.72,830.99 778.88,833.17 775.91,832.83C775.895,832.828 775.88,832.826 775.865,832.824C774.681,832.656 773.845,831.547 774.013,830.369C774.015,830.352 774.017,830.336 774.02,830.32L774.25,828.94Z" style="fill-rule:nonzero;"/>
        <path d="M821.59,852.75C822.057,850.897 823.207,849.45 825.04,848.41C825.093,848.381 825.154,848.369 825.213,848.375C825.377,848.393 825.496,848.547 825.478,848.716C825.471,848.776 825.447,848.833 825.41,848.88L821.89,852.91C821.869,852.936 821.841,852.955 821.81,852.965C821.721,852.992 821.624,852.937 821.595,852.843C821.585,852.813 821.584,852.781 821.59,852.75Z" style="fill:rgb(253,253,253);fill-rule:nonzero;"/>
        <path d="M877.91,857.63C876.963,857.723 876.243,857.943 875.75,858.29C872.81,860.36 866.83,865.06 863.69,864.34C862.947,864.175 862.414,863.51 862.414,862.749C862.414,862.294 862.605,861.858 862.94,861.55C867.52,857.28 873.3,855.9 878.81,852.83C879.463,852.463 880.27,852.377 881.23,852.57C881.273,852.579 881.315,852.59 881.357,852.603C882.182,852.853 882.646,853.763 882.386,854.619C882.372,854.663 882.357,854.707 882.34,854.75C881.833,856.023 880.823,856.783 879.31,857.03C879.307,857.031 879.304,857.031 879.301,857.032C879.161,857.06 879.07,857.203 879.1,857.348C879.1,857.349 879.1,857.349 879.1,857.35L879.11,857.35C879.11,857.353 879.111,857.355 879.111,857.358C879.129,857.438 879.214,857.489 879.3,857.47C879.3,857.47 879.3,857.47 879.3,857.47C883.15,856.36 885.06,853.12 889.69,853.16C890.032,853.165 890.31,853.448 890.31,853.79C890.303,855.143 889.91,855.97 889.13,856.27C886.297,857.377 883.707,858.997 881.36,861.13C879.86,862.49 877.7,863.75 876.07,863.73C875.245,863.717 874.574,863.035 874.574,862.21C874.574,861.963 874.634,861.719 874.75,861.5C875.443,860.2 876.543,859.043 878.05,858.03C878.109,857.989 878.144,857.921 878.144,857.85C878.144,857.729 878.045,857.63 877.924,857.63C877.919,857.63 877.915,857.63 877.91,857.63Z" style="fill:rgb(47,47,45);fill-rule:nonzero;"/>
        <path d="M894.56,857.47C894.58,857.427 894.591,857.38 894.59,857.333C894.59,857.163 894.454,857.023 894.289,857.024C894.241,857.024 894.193,857.037 894.15,857.06C892.83,857.76 891.27,859.06 889.47,860.96C888.363,862.133 887.14,862.757 885.8,862.83C885.683,862.836 885.566,862.829 885.451,862.808C884.653,862.66 884.118,861.877 884.267,861.073C884.288,860.958 884.323,860.847 884.37,860.74C885.01,859.313 886.153,858.157 887.8,857.27C888.34,856.983 890.92,855.69 895.54,853.39C895.685,853.319 895.845,853.281 896.008,853.281C896.589,853.281 897.068,853.76 897.068,854.341C897.068,854.585 896.984,854.821 896.83,855.01C896.59,855.303 896.42,855.637 896.32,856.01C896.311,856.041 896.307,856.074 896.307,856.106C896.307,856.298 896.465,856.456 896.657,856.456C896.717,856.456 896.777,856.44 896.83,856.41L901.82,853.53C901.99,853.431 902.183,853.379 902.38,853.379C902.91,853.379 903.37,853.759 903.47,854.28L903.56,854.74C903.684,855.404 903.342,856.075 902.73,856.37C900.663,857.357 898.847,858.803 897.28,860.71C897.109,860.921 896.894,861.091 896.65,861.21C896.03,861.517 895.23,861.67 894.25,861.67C894.248,861.67 894.245,861.67 894.243,861.67C893.623,861.67 893.113,861.16 893.113,860.54C893.113,860.359 893.157,860.181 893.24,860.02L894.56,857.47Z" style="fill:rgb(47,47,45);fill-rule:nonzero;"/>
        <path d="M800.85,876.22C800.79,876.253 800.73,876.29 800.67,876.33L796.85,864.19C797.703,862.23 798.773,860.457 800.06,858.87C800.114,858.777 800.213,858.72 800.32,858.72C800.485,858.72 800.62,858.855 800.62,859.02C800.62,859.073 800.606,859.124 800.58,859.17C798.513,864.437 798.693,869.67 801.12,874.87C801.253,875.163 801.163,875.613 800.85,876.22Z" style="fill:rgb(253,253,253);fill-rule:nonzero;"/>
        <path d="M897.92,905.04C897.953,902.953 898.093,900.857 898.34,898.75C898.387,898.33 898.39,898.107 898.35,898.08C898.274,898.027 898.195,897.98 898.111,897.94C897.301,897.55 896.322,897.876 895.944,898.662C895.906,898.742 895.874,898.825 895.85,898.91L892.86,909.39C892.033,910.883 890.903,912.17 889.47,913.25L890.3,905.69C890.303,905.663 890.304,905.635 890.304,905.608C890.304,905.18 889.952,904.828 889.524,904.828C889.506,904.828 889.488,904.829 889.47,904.83C887.877,904.937 886.897,905.893 886.53,907.7C885.977,910.393 885.32,912.993 884.56,915.5C883.593,916.667 882.55,917.47 881.43,917.91C881.377,917.93 881.32,917.941 881.263,917.941C881.005,917.941 880.793,917.728 880.793,917.471C880.793,917.444 880.795,917.417 880.8,917.39L881.53,912.94C881.569,912.702 881.694,912.488 881.88,912.34C883.447,911.073 884.477,909.74 884.97,908.34C885.005,908.24 885.023,908.135 885.023,908.029C885.023,907.513 884.599,907.089 884.083,907.089C883.928,907.089 883.776,907.127 883.64,907.2C879.08,909.627 874.13,910.683 868.79,910.37C864.8,910.14 860.62,908.46 856.71,908.18C856.236,908.145 855.798,908.446 855.66,908.9L853.64,915.54C853.53,915.889 853.544,916.264 853.68,916.6L854.41,918.39C854.427,918.432 854.435,918.477 854.435,918.523C854.435,918.72 854.273,918.883 854.075,918.883C854.06,918.883 854.045,918.882 854.03,918.88C852.643,918.687 851.54,918.21 850.72,917.45C850.496,917.242 850.453,916.904 850.62,916.66C851.82,914.807 852.1,913.053 851.46,911.4C851.27,910.895 850.783,910.558 850.243,910.558C849.808,910.558 849.401,910.777 849.16,911.14L846.39,915.31C846.321,915.408 846.208,915.467 846.087,915.467C845.901,915.467 845.742,915.326 845.72,915.14L844.8,906.08C844.739,905.431 844.188,904.928 843.536,904.928C843.001,904.928 842.52,905.266 842.34,905.77C841.727,907.443 840.623,909.023 839.03,910.51C838.937,910.577 838.85,910.627 838.77,910.66C838.747,910.67 838.723,910.675 838.698,910.675C838.624,910.675 838.557,910.629 838.53,910.56L838.33,910.02L838.07,900.56C838.04,899.36 837.213,898.323 836.06,898.04L835.94,898C835.866,897.982 835.792,897.969 835.716,897.961C834.849,897.871 834.063,898.489 833.976,899.329C833.969,899.403 833.967,899.476 833.97,899.55L834.54,912.39L830.06,911.62C831.967,907.98 833.1,904.18 833.46,900.22C833.46,900.216 833.461,900.211 833.461,900.207C833.493,899.807 833.185,899.453 832.781,899.421C832.777,899.42 832.774,899.42 832.77,899.42C831.897,899.353 831.357,899.787 831.15,900.72C831.058,901.169 830.659,901.495 830.2,901.495C829.668,901.495 829.23,901.057 829.23,900.525C829.23,900.52 829.23,900.515 829.23,900.51L829.23,888.43C829.237,887.531 828.679,886.721 827.84,886.41L827.36,886.23C827.316,886.213 827.27,886.2 827.224,886.189C826.704,886.075 826.183,886.404 826.07,886.919C826.06,886.965 826.053,887.012 826.05,887.06L825.21,899.26C825.197,899.405 825.103,899.53 824.97,899.58L824.96,899.58C824.83,899.586 824.715,899.489 824.7,899.36C824.193,894.713 824.14,889.93 824.54,885.01C824.687,883.157 824.367,881.38 823.58,879.68C823.436,879.373 823.149,879.153 822.81,879.09C821.577,878.857 820.783,879.393 820.43,880.7C819.357,884.687 817.977,889.513 816.29,895.18C816.256,895.306 816.141,895.394 816.01,895.394C815.979,895.394 815.949,895.389 815.92,895.38L815.66,895.3C815.608,895.281 815.578,895.229 815.59,895.18L818.33,878.57C818.334,878.546 818.337,878.521 818.339,878.497C818.381,877.967 817.984,877.495 817.46,877.453C817.433,877.451 817.407,877.45 817.38,877.45L815.22,877.45C814.836,877.448 814.51,877.16 814.46,876.78C814.1,874.32 813.657,873.07 813.13,873.03L813,872.33C812.987,872.279 812.958,872.236 812.92,872.21C812.793,872.123 812.667,872.137 812.54,872.25L812.8,872.08C812.946,871.997 813.051,871.856 813.09,871.69L814.59,865.71C814.591,865.704 814.593,865.698 814.595,865.692C814.622,865.62 814.708,865.585 814.785,865.613C814.79,865.615 814.795,865.618 814.8,865.62L815.45,865.96C815.474,865.979 815.486,866.007 815.48,866.03C815.187,867.77 815.083,869.763 815.17,872.01C815.237,873.77 815.63,875.24 816.35,876.42C816.391,876.489 816.44,876.553 816.494,876.611C816.918,877.064 817.636,877.091 818.084,876.671C818.143,876.616 818.195,876.556 818.24,876.49C819.65,874.49 819.36,871.4 819.62,869.28C819.659,868.936 819.806,868.616 820.04,868.37C821.78,866.53 823.073,864.013 823.92,860.82L827.7,860.74C828.014,860.735 828.285,860.959 828.33,861.26C829.95,871.48 833.693,880.797 839.56,889.21C847.38,900.43 860.19,907.58 873.97,906.13C891.97,904.24 899.06,883.51 903.41,868.9C903.572,868.34 904.066,867.934 904.65,867.88C906.59,867.71 907.49,866.68 908.37,864.48C909.41,861.9 912.62,864.31 914.09,865.01C914.387,865.152 914.723,865.187 915.04,865.11C915.6,864.97 916.14,865.137 916.66,865.61C916.9,865.831 917.062,866.126 917.12,866.45L917.88,870.43C917.883,870.448 917.884,870.465 917.884,870.483C917.884,870.659 917.74,870.803 917.564,870.803C917.55,870.803 917.535,870.802 917.52,870.8C916.307,870.627 915.597,870.883 915.39,871.57C914.897,873.223 914.707,874.97 914.82,876.81C914.849,877.319 914.463,877.767 913.95,877.82C912.383,877.967 911.557,878.867 911.47,880.52C911.383,882.087 911.28,883.66 911.16,885.24C911.16,885.267 911.149,885.295 911.131,885.318C911.092,885.365 911.028,885.378 910.989,885.346C910.97,885.331 910.96,885.307 910.96,885.28C910.96,885.24 910.95,885.21 910.93,885.19C910.928,885.181 910.919,885.174 910.91,885.174C910.899,885.174 910.889,885.184 910.889,885.195C910.889,885.197 910.89,885.198 910.89,885.2C910.877,886.04 910.837,886.557 910.77,886.75C910.723,886.87 910.64,886.943 910.52,886.97C910.497,886.976 910.473,886.979 910.449,886.979C910.303,886.979 910.181,886.865 910.17,886.72C910.077,885.327 909.647,884.487 908.88,884.2C908.859,884.192 908.838,884.185 908.817,884.178C908.066,883.934 907.233,884.394 906.972,885.197C906.964,885.221 906.957,885.246 906.95,885.27C906.257,887.85 905.797,890.903 905.57,894.43C905.51,895.33 905.19,896.09 904.61,896.71C904.52,896.804 904.394,896.858 904.264,896.858C904,896.858 903.784,896.641 903.784,896.378C903.784,896.352 903.786,896.326 903.79,896.3L904.22,893.68C904.228,893.626 904.233,893.571 904.233,893.516C904.233,892.935 903.754,892.456 903.173,892.456C902.885,892.456 902.61,892.573 902.41,892.78C901.47,893.753 900.963,895.073 900.89,896.74C900.717,900.513 899.727,903.28 897.92,905.04Z" style="fill:rgb(253,253,253);fill-rule:nonzero;"/>
        <path d="M834.67,865.43L834.04,863.11C834.006,862.981 833.998,862.846 834.016,862.714C834.09,862.165 834.598,861.774 835.142,861.847C835.276,861.865 835.404,861.91 835.52,861.98C839.213,864.16 843.53,866 848.47,867.5C863.38,872.05 881.25,873.93 896.63,869.81C896.632,869.81 896.634,869.81 896.636,869.81C896.658,869.81 896.676,869.828 896.676,869.85C896.676,869.857 896.674,869.864 896.67,869.87L892.51,876.78C892.374,876.999 892.168,877.159 891.93,877.23C887.157,878.643 882.347,879.45 877.5,879.65C863.787,880.237 850.763,877.103 838.43,870.25C836.577,869.221 835.22,867.481 834.67,865.43Z" style="fill:rgb(253,253,253);fill-rule:nonzero;"/>
        <path d="M813.13,873.03C812.937,873.17 812.75,873.223 812.57,873.19C812.01,873.08 812.28,872.51 812.54,872.25C812.667,872.137 812.793,872.123 812.92,872.21C812.958,872.236 812.987,872.279 813,872.33L813.13,873.03Z" style="fill:rgb(180,209,220);fill-rule:nonzero;"/>
        <path d="M800.85,876.22L801.46,879.03C800.88,878.27 800.617,877.37 800.67,876.33C800.73,876.29 800.79,876.253 800.85,876.22Z" style="fill:rgb(122,127,112);fill-rule:nonzero;"/>
        <path d="M811.48,899.32C808.667,897.767 806.967,895.867 806.38,893.62C805.793,891.38 805.053,889.167 804.16,886.98C805.493,887.267 806.013,888.217 805.72,889.83C805.668,890.095 805.714,890.372 805.85,890.61L807.6,893.63C807.744,893.88 808.012,894.035 808.302,894.035C808.534,894.035 808.756,893.935 808.91,893.76L810.4,892.05C810.474,891.961 810.584,891.909 810.7,891.909C810.911,891.909 811.085,892.08 811.09,892.29L811.48,899.32Z" style="fill:rgb(253,253,253);fill-rule:nonzero;"/>
        <path d="M863.28,892.84C867.753,894.253 871.73,897.067 875.21,901.28C875.281,901.365 875.32,901.472 875.32,901.583C875.32,901.822 875.138,902.025 874.9,902.05C870.087,902.643 865.38,902.213 860.78,900.76C856.18,899.307 852.08,896.95 848.48,893.69C848.382,893.601 848.327,893.475 848.327,893.343C848.327,893.132 848.468,892.947 848.67,892.89C853.937,891.443 858.807,891.427 863.28,892.84Z" style="fill:rgb(253,253,253);fill-rule:nonzero;"/>
        <path d="M821.61,906.44C821.63,906.567 821.583,906.607 821.47,906.56L814.66,901.35L819.85,894.99C819.876,894.963 819.912,894.948 819.95,894.948C820.027,894.948 820.09,895.011 820.09,895.088C820.09,895.089 820.09,895.089 820.09,895.09C819.73,899.05 820.09,902.79 821.61,906.44Z" style="fill:rgb(253,253,253);fill-rule:nonzero;"/>
        <path d="M838.33,910.02C838.163,911.027 838.297,911.84 838.73,912.46L840.34,913.71C840.313,913.823 840.283,913.937 840.25,914.05L834.54,912.39L833.97,899.55C833.967,899.476 833.969,899.403 833.976,899.329C834.063,898.489 834.849,897.871 835.716,897.961C835.792,897.969 835.866,897.982 835.94,898L836.06,898.04C837.213,898.323 838.04,899.36 838.07,900.56L838.33,910.02Z" style="fill:rgb(47,47,45);fill-rule:nonzero;"/>
        <path d="M897.92,905.04C896.293,907.893 894.607,909.343 892.86,909.39L895.85,898.91C895.874,898.825 895.906,898.742 895.944,898.662C896.322,897.876 897.301,897.55 898.111,897.94C898.195,897.98 898.274,898.027 898.35,898.08C898.39,898.107 898.387,898.33 898.34,898.75C898.093,900.857 897.953,902.953 897.92,905.04Z" style="fill:rgb(47,47,45);fill-rule:nonzero;"/>
        <path d="M801.21,907.24C801.323,906.953 801.49,906.767 801.71,906.68C803.91,905.793 805.887,904.697 807.64,903.39C808.019,903.101 808.529,903.047 808.96,903.25C814.35,905.74 817.84,909.09 822.79,914.06C822.877,914.14 822.97,914.213 823.07,914.28L827.52,917.08C828.029,917.401 828.655,917.468 829.21,917.26C830.537,916.767 831.983,916.527 833.55,916.54C833.9,916.546 834.196,916.807 834.24,917.15C834.313,917.743 834.277,918.27 834.13,918.73C834.101,918.822 834.086,918.918 834.086,919.014C834.089,919.514 834.498,919.922 834.991,919.92C835.09,919.919 835.187,919.902 835.28,919.87L839.23,918.52C839.282,918.502 839.336,918.493 839.391,918.493C839.666,918.493 839.891,918.719 839.891,918.993C839.891,919.138 839.829,919.275 839.72,919.37C837.86,920.977 836.01,923.05 834.17,925.59C830.91,930.1 830.92,935.3 824.92,937.77C824.841,937.803 824.756,937.82 824.67,937.82C824.313,937.82 824.02,937.527 824.02,937.17C824.02,937.167 824.02,937.163 824.02,937.16C824.033,935.673 824.103,932.547 824.23,927.78C824.283,925.853 823.63,924.01 822.27,922.25C816.71,915.063 809.733,910.153 801.34,907.52C801.335,907.519 801.331,907.517 801.327,907.516C801.223,907.48 801.168,907.361 801.205,907.252C801.207,907.248 801.208,907.244 801.21,907.24Z" style="fill:rgb(253,253,253);fill-rule:nonzero;"/>
        <path d="M889.47,913.25C888.223,914.943 886.587,915.693 884.56,915.5C885.32,912.993 885.977,910.393 886.53,907.7C886.897,905.893 887.877,904.937 889.47,904.83C889.488,904.829 889.506,904.828 889.524,904.828C889.952,904.828 890.304,905.18 890.304,905.608C890.304,905.635 890.303,905.663 890.3,905.69L889.47,913.25Z" style="fill:rgb(47,47,45);fill-rule:nonzero;"/>
        <path d="M822.2,907.72C821.9,907.38 821.657,906.993 821.47,906.56C821.583,906.607 821.63,906.567 821.61,906.44C822.463,907.06 822.66,907.487 822.2,907.72Z" style="fill:rgb(122,127,112);fill-rule:nonzero;"/>
        <path d="M820.53,1024L763.57,1024C764.59,1015.94 765.39,1006.62 767.16,999.67C769.53,990.39 772.5,983.71 777.02,973.23C777.153,972.92 777.422,972.688 777.75,972.6C778.977,972.273 779.78,971.627 780.16,970.66C782.7,964.173 785.6,957.91 788.86,951.87C790.71,948.43 793.37,946.4 796.71,943.71C797.794,942.839 798.103,941.303 797.44,940.08L797.38,939.96C797.005,939.266 796.277,938.832 795.488,938.832C795.066,938.832 794.652,938.956 794.3,939.19C790.953,941.41 788.63,943.55 787.33,945.61C782.99,952.48 779.98,960.16 777.08,968C776.828,968.687 776.064,969.053 775.37,968.82L747.62,959.62C747.374,959.54 747.206,959.309 747.206,959.05C747.206,958.982 747.217,958.914 747.24,958.85C749.82,951.25 753.303,944.613 757.69,938.94C761.54,933.95 767.45,929.77 771.57,924.83C773.877,922.057 776.33,919.837 778.93,918.17C783.923,914.963 787.847,912.393 790.7,910.46C792.02,909.567 793.613,909.327 795.48,909.74C804.447,911.74 811.903,916.037 817.85,922.63C818.897,923.783 819.717,925.2 820.31,926.88C820.449,927.271 820.523,927.683 820.53,928.1C820.57,933.32 820.02,938.64 822.08,940.75C822.367,941.044 822.761,941.21 823.17,941.21C826.25,941.23 828.86,940.07 831,937.73C831.533,937.15 832.54,936.027 834.02,934.36C834.071,934.305 834.138,934.267 834.212,934.252C834.405,934.211 834.597,934.331 834.637,934.519C834.653,934.593 834.643,934.671 834.61,934.74C833.403,937.353 831.407,940.89 828.62,945.35C822.53,955.08 820.06,966.71 819.73,977.88C819.27,993.267 819.537,1008.64 820.53,1024Z" style="fill:rgb(249,211,142);fill-rule:nonzero;"/>
        <path d="M839.03,910.51C838.803,911.157 838.703,911.807 838.73,912.46C838.297,911.84 838.163,911.027 838.33,910.02L838.53,910.56C838.557,910.629 838.624,910.675 838.698,910.675C838.723,910.675 838.747,910.67 838.77,910.66C838.85,910.627 838.937,910.577 839.03,910.51Z" style="fill:rgb(122,127,112);fill-rule:nonzero;"/>
        <path d="M863.09,913.3L859.61,920.12C858.763,919.947 858.227,919.757 858,919.55C857.805,919.406 857.686,919.18 857.68,918.94L857.61,910.5C857.609,910.475 857.612,910.449 857.62,910.425C857.657,910.316 857.781,910.258 857.896,910.296C857.919,910.304 857.941,910.315 857.96,910.33C859.553,911.63 861.263,912.62 863.09,913.3Z" style="fill:rgb(253,253,253);fill-rule:nonzero;"/>
        <path d="M840.25,914.05C840.283,913.937 840.313,913.823 840.34,913.71C840.573,913.39 840.94,913.29 841.44,913.41C841.843,913.507 842.129,913.871 842.129,914.285C842.129,914.673 841.878,915.019 841.51,915.14C840.943,915.333 840.523,914.97 840.25,914.05Z" style="fill:rgb(180,209,220);fill-rule:nonzero;"/>
        <path d="M865.47,914.05L864.49,920.67C862.43,921.23 860.803,921.047 859.61,920.12L863.09,913.3C864.023,913.027 864.817,913.277 865.47,914.05Z" style="fill:rgb(47,47,45);fill-rule:nonzero;"/>
        <path d="M878.22,913.77C877.273,914.877 876.737,916.093 876.61,917.42C876.48,918.86 875.41,920.39 873.95,920.59C873.926,920.593 873.902,920.595 873.878,920.595C873.593,920.595 873.358,920.36 873.358,920.075C873.358,920.005 873.372,919.935 873.4,919.87C874.16,918.01 874.147,916.353 873.36,914.9C873.32,914.823 873.299,914.738 873.299,914.651C873.299,914.392 873.485,914.168 873.74,914.12L877.96,913.32C878.002,913.311 878.045,913.311 878.085,913.322C878.229,913.36 878.314,913.513 878.275,913.662C878.265,913.701 878.246,913.738 878.22,913.77Z" style="fill:rgb(253,253,253);fill-rule:nonzero;"/>
        <path d="M864.49,920.67L865.47,914.05L869.99,914.39C870.28,914.412 870.507,914.657 870.507,914.948C870.507,915.007 870.498,915.065 870.48,915.12L869.15,919.5C869.031,919.896 868.73,920.212 868.34,920.35C867.1,920.79 865.817,920.897 864.49,920.67Z" style="fill:rgb(253,253,253);fill-rule:nonzero;"/>
        <path d="M836.07,940.33C836.277,953.93 838.087,967.75 841.5,981.79C841.531,981.915 841.546,982.043 841.546,982.171C841.546,982.931 841.005,983.591 840.26,983.74L831.76,985.4C831.75,985.402 831.741,985.404 831.731,985.406C831.196,985.5 830.677,985.133 830.582,984.593C830.581,984.588 830.581,984.584 830.58,984.58C828.99,973.94 830.61,962.96 829.09,952.93C828.984,952.261 829.111,951.575 829.45,950.99L835.59,940.2C835.627,940.104 835.72,940.04 835.823,940.04C835.96,940.04 836.073,940.153 836.073,940.29C836.073,940.303 836.072,940.317 836.07,940.33Z" style="fill:rgb(249,211,142);fill-rule:nonzero;"/>
        <path d="M842.04,1023.67C841.72,1023.75 841.54,1023.86 841.5,1024L824.42,1024C823.947,1022.03 823.693,1020.44 823.66,1019.25C823.213,1003.56 823.11,989.063 823.35,975.75C823.41,972.303 824.163,967.273 825.61,960.66C825.639,960.522 825.775,960.43 825.92,960.45L826.23,960.5C826.244,960.507 826.253,960.516 826.25,960.52C825.843,968.44 825.997,975.863 826.71,982.79C826.837,983.983 827.213,985.463 827.84,987.23C828.48,989.017 830.217,989.507 833.05,988.7C833.07,988.694 833.09,988.689 833.111,988.685C833.61,988.577 834.11,988.903 834.219,989.407C834.223,989.428 834.227,989.449 834.23,989.47C835.863,1000.86 838.467,1012.26 842.04,1023.67Z" style="fill:rgb(253,253,253);fill-rule:nonzero;"/>
        <path d="M759.62,1024L743.14,1024C742.8,1020.11 742.45,1016.21 742.09,1012.31C741.21,1002.89 741.85,995.69 744.2,987.44C745.993,981.127 748.24,973.58 750.94,964.8C750.94,964.799 750.941,964.798 750.941,964.796C750.969,964.702 751.075,964.648 751.175,964.678C751.176,964.679 751.178,964.679 751.18,964.68L771.99,971.58C772.162,971.641 772.277,971.804 772.277,971.986C772.277,972.046 772.264,972.105 772.24,972.16C768.9,979.693 766.213,986.893 764.18,993.76C763.147,997.253 762.223,1002.26 761.41,1008.79C760.777,1013.86 760.18,1018.93 759.62,1024Z" style="fill:rgb(253,253,253);fill-rule:nonzero;"/>
        <path d="M739.77,1024L738.6,1024L738.86,1020.24C738.861,1020.17 738.892,1020.09 738.944,1020.04C739.055,1019.93 739.237,1019.92 739.347,1020.03C739.401,1020.08 739.431,1020.15 739.43,1020.23L739.77,1024Z" style="fill:rgb(249,211,142);fill-rule:nonzero;"/>
    </g>
</svg>
