<?xml version="1.0" encoding="UTF-8" standalone="no"?>
<!DOCTYPE svg PUBLIC "-//W3C//DTD SVG 1.1//EN" "http://www.w3.org/Graphics/SVG/1.1/DTD/svg11.dtd">
<svg width="100%" height="100%" viewBox="0 0 229 324" version="1.1" xmlns="http://www.w3.org/2000/svg" xmlns:xlink="http://www.w3.org/1999/xlink" xml:space="preserve" xmlns:serif="http://www.serif.com/" style="fill-rule:evenodd;clip-rule:evenodd;stroke-linejoin:round;stroke-miterlimit:2;">
    <g transform="matrix(1,0,0,1,-55.1688,-359.393)">
        <path d="M173.95,682.24C169.96,670.87 166.37,659.62 164.41,647.81C164.408,647.801 164.406,647.793 164.404,647.784C164.361,647.637 164.209,647.549 164.066,647.591C164.057,647.593 164.049,647.596 164.04,647.6L158.66,649.76C158.484,649.831 158.377,650.012 158.4,650.2C159.74,660.753 161.653,671.483 164.14,682.39C162.973,682.177 161.763,682.19 160.51,682.43C156.83,668.757 154.61,654.527 153.85,639.74C153.483,632.74 153.803,625.053 154.81,616.68C154.909,615.86 155.447,615.157 156.21,614.85L156.68,614.66C156.756,614.629 156.836,614.607 156.917,614.594C157.497,614.505 158.049,614.912 158.14,615.498C158.152,615.578 158.156,615.659 158.15,615.74C157.37,625.553 157.27,635.263 157.85,644.87C157.853,644.911 157.859,644.952 157.868,644.993C157.964,645.421 158.392,645.695 158.814,645.6C158.857,645.59 158.899,645.577 158.94,645.56L166.53,642.51C167.124,642.274 167.43,641.603 167.22,641C164.653,633.68 162.943,627.08 162.09,621.2C160.263,608.573 159.223,601.43 158.97,599.77C158.383,595.837 157.427,592.3 156.1,589.16C156.061,589.073 156.004,588.996 155.931,588.934C155.668,588.709 155.27,588.738 155.049,588.996C154.987,589.069 154.943,589.156 154.92,589.25L153.47,595.05C153.43,595.223 153.366,595.391 153.28,595.55C151.14,599.47 147.753,601.637 143.12,602.05C136.67,602.64 135.19,595.08 134.67,590.23C133.95,583.38 128.87,580.12 124.7,576.8C122.44,575.007 120.64,573.083 119.3,571.03C117.193,567.823 116.753,564.367 117.98,560.66C117.991,560.631 117.996,560.6 117.996,560.568C117.996,560.42 117.874,560.298 117.726,560.298C117.69,560.298 117.654,560.306 117.62,560.32C107.38,564.19 101.93,569.09 93.18,577.36C86.06,584.09 80.09,590.84 76.45,597.76C70.957,608.227 65.993,619.78 61.56,632.42C61.403,632.865 61.614,633.36 62.04,633.55C72.727,638.383 83.94,641.237 95.68,642.11C96.191,642.15 96.655,641.799 96.75,641.3C98.9,630.25 102.09,616.62 107.39,607.28C107.701,606.73 108.3,606.404 108.93,606.44L109.25,606.46C109.302,606.463 109.354,606.47 109.405,606.481C109.963,606.601 110.324,607.154 110.206,607.706C110.195,607.759 110.179,607.81 110.16,607.86C105.713,619.367 102.253,631.53 99.78,644.35C99.607,645.244 98.795,645.881 97.89,645.83L93.5,645.59C93.039,645.569 92.627,645.883 92.53,646.33C89.95,658.577 88.073,670.563 86.9,682.29C85.54,682.71 84.313,682.703 83.22,682.27C84.2,669.723 86.183,657.427 89.17,645.38C89.179,645.347 89.183,645.313 89.183,645.278C89.183,645.067 89.02,644.889 88.81,644.87C81.277,644.243 74.03,642.473 67.07,639.56C67.02,639.539 66.967,639.528 66.912,639.528C66.722,639.528 66.557,639.663 66.52,639.85C65.64,644.517 64.73,648.813 63.79,652.74C61.49,662.28 59.833,672.123 58.82,682.27C57.833,682.53 56.773,682.563 55.64,682.37C55.356,682.324 55.151,682.067 55.17,681.78C55.297,679.753 55.443,678.09 55.61,676.79C57.277,663.897 59.807,651.287 63.2,638.96C63.283,638.657 63.161,638.334 62.9,638.16C61.347,637.127 60.447,636.573 60.2,636.5C57.88,635.813 57.217,634.09 58.21,631.33C64.52,613.86 71.3,594.73 84.69,580.6C90.263,574.72 95.343,569.9 99.93,566.14C106.2,561.01 111.81,558.57 119.34,556.16C119.349,556.157 119.359,556.154 119.368,556.15C119.779,555.997 119.993,555.537 119.842,555.131C119.838,555.121 119.834,555.11 119.83,555.1C118.57,552.03 116.91,548.08 115.81,544C114.277,538.287 112.607,533.113 110.8,528.48C110.793,528.462 110.785,528.444 110.776,528.426C110.637,528.152 110.293,528.043 110.015,528.185C109.999,528.193 109.984,528.201 109.97,528.21C109.457,528.537 108.967,528.62 108.5,528.46C108.171,528.343 107.937,528.047 107.9,527.7L107.65,525.21C107.614,524.944 107.384,524.743 107.115,524.743C106.88,524.743 106.671,524.896 106.6,525.12C106.48,525.567 106.207,525.98 105.78,526.36C105.373,526.72 104.867,526.67 104.26,526.21C102.46,524.82 103.89,522.43 103.92,520.91C103.92,520.908 103.92,520.905 103.92,520.903C103.92,520.7 103.753,520.533 103.55,520.533C103.487,520.533 103.425,520.549 103.37,520.58C102.297,521.18 101.443,521.383 100.81,521.19C100.424,521.076 100.146,520.734 100.11,520.33C99.943,518.357 100.367,516.38 101.38,514.4C101.801,513.591 101.541,512.581 100.78,512.07C100.607,511.95 97.183,509.513 90.51,504.76C81.67,498.46 75.68,486.31 79.42,475.54C79.89,474.19 80.77,473.67 81.31,472.62C81.481,472.297 81.496,471.91 81.35,471.57C77.44,462.16 75.35,449.87 78.39,439.87C78.398,439.841 78.402,439.811 78.402,439.781C78.402,439.6 78.253,439.451 78.072,439.451C77.999,439.451 77.928,439.475 77.87,439.52C74.39,442.3 71.83,439.79 72.77,436.01C74.59,428.76 78.71,422.33 82.66,415.95C82.706,415.882 82.727,415.801 82.72,415.719C82.702,415.523 82.521,415.376 82.319,415.394C82.237,415.402 82.16,415.435 82.1,415.49C80.15,417.2 76.07,420.72 74.1,419.54C73.105,418.949 72.65,417.771 73.02,416.75C75.72,409.35 88.37,403.12 95.3,399.69C95.416,399.633 95.49,399.514 95.49,399.385C95.49,399.236 95.392,399.104 95.25,399.06C92.717,398.24 89.917,397.7 86.85,397.44C85.91,397.36 85.137,396.797 84.53,395.75C84.366,395.462 84.351,395.111 84.49,394.81C86.23,391.03 94.05,391.93 97.51,392.53C97.533,392.534 97.556,392.537 97.579,392.537C97.777,392.537 97.939,392.374 97.939,392.177C97.939,392.137 97.933,392.098 97.92,392.06C96.753,388.42 96.697,385.11 97.75,382.13C97.889,381.733 98.203,381.422 98.6,381.29C102.43,380.06 103.34,387.61 104.17,391.12C104.189,391.198 104.225,391.271 104.275,391.334C104.462,391.57 104.807,391.613 105.04,391.429C105.104,391.379 105.155,391.314 105.19,391.24C110.31,380.833 118.81,373.953 130.69,370.6C131.79,370.287 134.757,369.597 139.59,368.53C139.902,368.464 140.205,368.349 140.49,368.19C145.843,365.183 151.587,363.08 157.72,361.88C163.87,360.68 171.93,361.42 178.98,361.35C183.7,361.303 188.96,360.707 194.76,359.56C196.307,359.253 197.493,359.37 198.32,359.91C199.355,360.587 199.801,362.011 199.42,363.42C198.873,365.413 197.71,367.193 195.93,368.76C195.867,368.817 195.831,368.898 195.831,368.983C195.831,369.147 195.967,369.283 196.131,369.283C196.144,369.283 196.157,369.282 196.17,369.28C202.483,368.353 209.98,367.95 218.66,368.07C219.133,368.077 221.217,368.097 224.91,368.13C228.56,368.16 234.81,368.52 233.1,373.62C232.35,375.88 229.23,377.24 227.2,378.29C227.087,378.348 227.015,378.465 227.015,378.593C227.015,378.724 227.091,378.844 227.21,378.9C232.87,381.667 238.197,384.39 243.19,387.07C245.17,388.14 248.96,389.61 251.73,390.42C255.79,391.6 274.5,396.48 267.61,404.38C265.07,407.293 261.827,408.623 257.88,408.37C257.877,408.37 257.874,408.37 257.87,408.37C257.684,408.37 257.53,408.523 257.53,408.71C257.53,408.795 257.562,408.877 257.62,408.94C259.99,411.38 267.29,420.39 265.06,423.78C264.375,424.823 262.855,425.173 261.45,424.61C260.51,424.23 259.597,423.673 258.71,422.94C258.643,422.886 258.559,422.857 258.473,422.857C258.264,422.857 258.093,423.028 258.093,423.237C258.093,423.275 258.099,423.313 258.11,423.35C260.757,431.283 260.293,438.907 256.72,446.22C256.692,446.277 256.67,446.338 256.657,446.401C256.565,446.824 256.843,447.249 257.272,447.342C257.334,447.355 257.397,447.361 257.46,447.36C266.28,447.16 272.72,450.84 277.51,458.39C281.4,464.51 285.08,473.87 283.59,481.17C283.343,482.397 282.72,483.783 281.72,485.33C279.74,488.41 276.7,493.82 273.84,496.42C270.973,499.02 267.407,501.153 263.14,502.82C262.608,503.024 262.248,503.53 262.23,504.1C262.123,507.493 261.25,510.893 259.61,514.3C256.48,520.82 249.58,523.71 242.67,524.99C242.318,525.057 242.061,525.368 242.061,525.727C242.061,525.858 242.095,525.986 242.16,526.1C242.853,527.28 243.287,528.503 243.46,529.77C243.505,530.14 243.276,530.492 242.92,530.6C241.913,530.893 241.087,530.753 240.44,530.18C240.396,530.138 240.337,530.115 240.276,530.115C240.144,530.115 240.036,530.223 240.036,530.355C240.036,530.37 240.037,530.385 240.04,530.4C240.45,533.05 242.68,536.43 240.37,538.72C240.14,538.957 239.777,539.014 239.48,538.86L237.9,538.04C237.814,537.995 237.718,537.972 237.62,537.972C237.286,537.972 237.01,538.248 237.01,538.582C237.01,538.618 237.014,538.654 237.02,538.69L237.69,542.21C237.782,542.698 237.583,543.199 237.18,543.5L236.25,544.17C235.889,544.43 235.658,544.836 235.62,545.28C235.433,547.373 235.14,549.533 234.74,551.76C234.587,552.607 234.14,553.33 233.4,553.93C233.139,554.144 232.812,554.26 232.475,554.26C231.775,554.26 231.169,553.758 231.04,553.07L230.86,552.07C230.841,551.955 230.788,551.849 230.707,551.766C230.489,551.543 230.122,551.541 229.894,551.764C229.811,551.844 229.754,551.948 229.73,552.06C228.65,556.94 227.71,562.14 225.29,566.02C225.017,566.45 224.541,566.712 224.032,566.712C223.323,566.712 222.707,566.206 222.57,565.51L222.37,564.46C222.355,564.371 222.311,564.291 222.245,564.231C222.079,564.079 221.814,564.094 221.659,564.264C221.599,564.33 221.561,564.412 221.55,564.5C221.297,566.987 220.403,569.187 218.87,571.1C218.599,571.441 218.186,571.64 217.75,571.64C217.395,571.64 217.053,571.508 216.79,571.27C216.483,570.997 216.28,570.593 216.18,570.06C216.159,569.958 216.069,569.883 215.964,569.883C215.883,569.883 215.808,569.928 215.77,570L211.43,578.41C211.331,578.594 211.191,578.752 211.02,578.87C210.44,579.257 209.61,579.433 208.53,579.4C208.52,579.4 208.51,579.399 208.499,579.399C208.127,579.373 207.842,579.042 207.868,578.664C207.868,578.656 207.869,578.648 207.87,578.64C208.017,577.22 208.483,575.753 209.27,574.24C209.287,574.205 209.296,574.166 209.296,574.126C209.296,574 209.204,573.891 209.08,573.87L208.35,573.75C208.339,573.749 208.327,573.757 208.32,573.77C206.953,577.77 205.37,581.073 203.57,583.68C203.372,583.968 203.067,584.169 202.72,584.24C201.607,584.467 200.633,584.15 199.8,583.29C199.544,583.027 199.483,582.627 199.65,582.3L200.92,579.84C200.996,579.685 200.938,579.498 200.79,579.42L200.4,579.22C200.356,579.196 200.299,579.209 200.27,579.25L195.34,586.11C195.174,586.339 194.919,586.485 194.64,586.51C193.62,586.59 192.75,586.257 192.03,585.51C191.779,585.255 191.719,584.864 191.88,584.54L192.83,582.71C192.851,582.672 192.862,582.629 192.862,582.585C192.862,582.442 192.745,582.325 192.602,582.325C192.585,582.325 192.567,582.326 192.55,582.33L191.63,582.5C191.56,582.513 191.501,582.553 191.47,582.61C190.04,584.88 188.59,588.27 185.48,587.48C184.853,587.327 184.52,586.87 184.48,586.11C184.42,585.07 184.767,584.13 185.52,583.29C185.529,583.28 185.537,583.27 185.545,583.26C185.716,583.039 185.671,582.713 185.446,582.539C185.437,582.532 185.429,582.526 185.42,582.52L185.18,582.37C185.069,582.295 184.921,582.308 184.83,582.4C183,584.28 181.44,587.22 178.61,585.81C178.295,585.652 178.102,585.322 178.12,584.97L178.2,583.56C178.2,583.555 178.2,583.549 178.2,583.544C178.2,583.231 177.943,582.974 177.63,582.974C177.414,582.974 177.216,583.097 177.12,583.29C175.853,586.037 173.913,587.337 171.3,587.19C170.906,587.164 170.542,586.971 170.3,586.66C168.94,584.94 171.05,583.84 171.83,582.48C171.874,582.395 171.897,582.301 171.897,582.206C171.897,581.882 171.631,581.616 171.307,581.616C171.16,581.616 171.019,581.671 170.91,581.77L167.6,585.08C167.393,585.286 167.116,585.411 166.82,585.43C165.44,585.53 164.47,585 163.91,583.84C163.772,583.547 163.787,583.203 163.95,582.92L165.26,580.64C165.308,580.563 165.333,580.474 165.333,580.383C165.333,580.114 165.112,579.893 164.843,579.893C164.737,579.893 164.635,579.927 164.55,579.99L158.91,584.08C158.321,584.51 158.136,585.317 158.48,585.96C160.6,589.98 161.72,595.01 162.47,599.76C164.54,612.8 166.12,628.13 171.15,641.75C171.362,642.328 171.264,642.977 170.89,643.47C170.277,644.277 169.463,644.947 168.45,645.48C167.992,645.716 167.745,646.23 167.85,646.73C170.323,658.57 173.557,670.167 177.55,681.52C177.648,681.8 177.512,682.111 177.24,682.23C176.22,682.683 175.123,682.687 173.95,682.24ZM161.185,367.005C161.083,366.544 157.751,366.885 153.804,367.76C153.804,367.76 153.804,367.76 153.804,367.76C149.857,368.635 146.693,369.735 146.795,370.195C146.795,370.195 146.795,370.195 146.795,370.195C146.897,370.656 150.229,370.315 154.176,369.44C154.176,369.44 154.176,369.44 154.176,369.44C158.123,368.565 161.287,367.465 161.185,367.005C161.185,367.005 161.185,367.005 161.185,367.005ZM115.49,385.43L129.42,376.43C129.453,376.408 129.473,376.37 129.473,376.331C129.473,376.305 129.465,376.28 129.45,376.26L129.43,376.23C129.429,376.229 129.429,376.228 129.428,376.227C129.065,375.665 125.65,377.218 121.864,379.668C121.863,379.668 121.861,379.669 121.86,379.67C121.86,379.67 121.549,379.87 121.549,379.871C117.763,382.32 114.946,384.798 115.31,385.36C115.31,385.36 115.31,385.36 115.31,385.36L115.33,385.4C115.367,385.45 115.437,385.463 115.49,385.43ZM262,399.72L262.29,399.03C262.325,398.937 262.281,398.831 262.19,398.79L262.01,398.71C257.151,396.658 253.081,395.144 252.991,395.356C252.991,395.357 252.99,395.359 252.99,395.36L252.88,395.61C252.801,395.826 256.725,397.689 261.58,399.74L261.75,399.82C261.774,399.83 261.799,399.836 261.825,399.836C261.901,399.836 261.97,399.79 262,399.72ZM184.86,405.86C184.865,405.844 184.867,405.828 184.867,405.812C184.867,405.719 184.79,405.642 184.697,405.642C184.658,405.642 184.62,405.656 184.59,405.68C178.743,410.373 173.757,414.15 169.63,417.01C164.283,420.71 158.24,422.493 151.5,422.36C150.692,422.347 150.034,421.679 150.034,420.87C150.034,420.579 150.12,420.293 150.28,420.05L152.42,416.84C152.437,416.813 152.445,416.782 152.445,416.751C152.445,416.658 152.369,416.581 152.275,416.581C152.241,416.581 152.208,416.591 152.18,416.61C142.287,424.03 131.183,428.843 118.87,431.05C118.666,431.087 118.517,431.266 118.517,431.473C118.517,431.538 118.532,431.602 118.56,431.66C121.487,438.033 124.27,445.467 126.91,453.96C127.04,454.368 127.029,454.808 126.88,455.21C125.97,457.64 123.57,458.52 120.94,458.44C120.936,458.44 120.932,458.44 120.928,458.44C120.703,458.44 120.518,458.625 120.518,458.85C120.518,458.863 120.519,458.877 120.52,458.89L121.2,465.58C121.221,465.843 121.451,466.047 121.72,466.04L140.3,465.29C140.721,465.271 141.119,465.08 141.4,464.76L143.21,462.68C143.374,462.496 143.58,462.352 143.81,462.26L146.39,461.22C146.768,461.068 147.119,460.855 147.43,460.59C151.677,456.99 155.003,454.593 157.41,453.4C165.14,449.56 176.06,447.98 184.82,448.89C193.94,449.84 199.74,452.99 205.46,460.46C205.701,460.773 206.112,460.905 206.49,460.79C211.343,459.317 216.557,458.89 222.13,459.51C222.56,459.561 222.993,459.447 223.34,459.19C231.733,453.077 241.003,449.25 251.15,447.71C251.477,447.656 251.72,447.371 251.72,447.039C251.72,446.972 251.71,446.904 251.69,446.84C251.29,445.573 250.71,444.627 249.95,444C249.726,443.822 249.467,443.692 249.19,443.62C242.243,441.813 235.373,441.07 228.58,441.39C228.562,441.391 228.544,441.391 228.527,441.392C227.364,441.412 226.39,440.476 226.37,439.319C226.37,439.299 226.37,439.28 226.37,439.26L226.37,439.2C226.389,437.957 227.343,436.917 228.57,436.8C235.11,436.18 241.57,436.743 247.95,438.49C247.984,438.499 248.019,438.503 248.054,438.503C248.279,438.503 248.464,438.318 248.464,438.093C248.464,438.037 248.452,437.982 248.43,437.93C247.497,435.783 246.323,432.59 244.91,428.35C244.723,427.81 243.393,424.63 240.92,418.81C239.8,416.177 238.3,414.167 236.42,412.78C229.28,407.513 221.367,402.34 212.68,397.26C212.47,397.14 212.205,397.164 212.02,397.32C209.52,399.42 206.67,401.383 203.47,403.21C198.663,405.943 193.557,408.863 188.15,411.97C187.584,412.296 186.873,412.245 186.36,411.84C184.527,410.38 184.027,408.387 184.86,405.86ZM253.57,451.15C244.217,453.063 236.303,456.047 229.83,460.1C228.837,460.72 228.133,462.153 227.72,464.4C227.649,464.781 227.283,465.04 226.9,464.98L224.77,464.63C224.36,464.563 223.948,464.734 223.71,465.07C216.16,475.61 218.68,487.04 228.88,494.36C238.153,501.013 248.417,503.04 259.67,500.44C261.083,500.153 262.203,499.727 263.03,499.16C267.717,497.387 271.187,494.89 273.44,491.67C275.34,488.957 277.257,486.197 279.19,483.39C280.417,481.603 280.95,479.88 280.79,478.22C280.223,472.167 278.327,466.37 275.1,460.83C270.89,453.61 265.17,450.27 256.86,450.63C256.06,450.543 254.963,450.717 253.57,451.15ZM204.65,466.57C204.243,466.677 203.827,466.873 203.4,467.16C203.104,467.354 202.735,467.395 202.41,467.27C201.397,466.903 200.667,466.16 200.22,465.04C200.073,464.664 200.146,464.236 200.41,463.93L201.39,462.81C201.821,462.316 201.816,461.572 201.38,461.09C193.09,452.01 182.75,451.85 170.86,453.66C162.14,454.99 155.45,459.03 149.73,465.15C149.564,465.329 149.376,465.487 149.17,465.62L145.95,467.81C145.857,467.876 145.773,467.957 145.7,468.05C143.53,470.91 143.88,479.1 144.81,482.24C146.55,488.167 150.033,493.093 155.26,497.02C166.733,505.633 179.5,508.15 193.56,504.57C196.647,503.79 199.693,502.187 202.7,499.76C212.69,491.71 209.88,476.6 205.08,466.77C205.004,466.609 204.822,466.524 204.65,466.57ZM100.52,477.54C101.213,481.693 100.65,484.073 98.83,484.68C97.897,482.913 97.107,481.123 96.46,479.31C95.487,476.59 94.633,474.877 93.9,474.17C91.667,472.01 89.103,471.697 86.21,473.23C84.62,474.08 82.62,476.38 82.35,477.96C81.083,485.653 83.163,492.417 88.59,498.25C92.47,502.42 98.45,505.75 103.99,510.42C104.663,511.84 105.713,513.127 107.14,514.28C107.286,514.399 107.414,514.534 107.52,514.68L112.68,521.85C114.173,524.85 115.237,528.037 115.87,531.41C115.883,531.496 115.907,531.584 115.94,531.67L118.42,538.52L120.18,545.2C120.32,546.047 120.68,546.587 121.26,546.82C121.407,546.973 121.47,547.167 121.45,547.4C121.597,548.607 122.137,549.853 123.07,551.14C123.137,551.813 123.3,552.247 123.56,552.44C124.34,554.62 125.673,556.317 127.56,557.53L129.59,559.5C129.805,559.709 130.08,559.848 130.38,559.9C131.567,560.107 132.617,560.477 133.53,561.01L137.5,564.79C139.593,567.27 142.057,569.377 144.89,571.11C145.297,571.357 145.633,571.383 145.9,571.19C145.847,571.883 146.12,572.273 146.72,572.36C151.033,572.98 155.313,573.86 159.56,575L169.46,576.94C169.747,577.487 170.333,577.833 171.22,577.98C173.347,577.66 175.183,577.917 176.73,578.75L183.25,579.01C183.637,579.383 184.153,579.403 184.8,579.07L185.54,579.03C186.5,579.037 187.217,578.853 187.69,578.48C188.67,578.34 189.537,578.04 190.29,577.58C192.403,578.213 194.163,578.027 195.57,577.02C196.87,576.613 197.89,575.84 198.63,574.7C199.877,574.72 200.77,574.447 201.31,573.88L203.63,571.97C206.283,571.243 208.593,569.833 210.56,567.74C210.749,567.538 210.871,567.287 210.91,567.02L211.15,565.56C211.189,565.327 211.306,565.115 211.48,564.96C212.047,564.42 212.217,563.737 211.99,562.91C212.47,561.203 212.927,559.457 213.36,557.67C213.853,555.623 214.8,554.543 216.2,554.43L215.16,561.81C215.141,561.965 215.202,562.117 215.32,562.21C215.807,562.597 216.397,562.307 217.09,561.34C218.47,558.08 220.55,555.583 223.33,553.85C223.963,553.45 224.387,552.887 224.6,552.16C225.033,550.68 225.843,549.173 227.03,547.64C227.198,547.421 227.437,547.275 227.7,547.23L229.54,546.88C229.945,546.8 230.265,546.484 230.35,546.08L231.28,541.53C231.293,541.464 231.317,541.4 231.35,541.34L233.76,536.08C233.963,535.628 234.042,535.128 233.99,534.63C233.757,532.623 234.26,530.68 235.5,528.8C235.633,528.598 235.705,528.36 235.705,528.118C235.705,527.633 235.421,527.191 234.98,526.99C233.42,526.27 232.39,526.32 231.89,527.14L225.84,526.89C225.479,526.878 225.156,526.66 225.01,526.33L224.43,525.03C224.3,524.73 224.025,524.516 223.7,524.46L220.45,523.93C220.082,523.866 219.713,524.049 219.54,524.38L217.97,527.42C217.912,527.544 217.818,527.648 217.7,527.72C216.3,528.64 215.11,528.143 214.13,526.23C214.007,526.003 213.724,525.91 213.49,526.02C212.87,526.333 212.32,526.467 211.84,526.42C211.502,526.389 211.241,526.102 211.241,525.763C211.241,525.59 211.309,525.423 211.43,525.3L216.47,520.26C216.586,520.141 216.65,519.981 216.65,519.815C216.65,519.464 216.361,519.175 216.01,519.175C215.921,519.175 215.832,519.194 215.75,519.23C212.83,520.55 211.56,522.18 209.86,525.16C209.06,526.56 207.87,527.15 206.46,526.6C206.138,526.476 205.908,526.184 205.86,525.84C205.533,523.353 206.3,521.74 208.16,521C209.027,520.66 209.887,520.1 210.74,519.32C213.11,517.15 220.52,513.11 220.46,519.5C220.453,519.895 220.693,520.255 221.06,520.4C229.71,523.76 240.4,523.41 248.97,519.66C255.097,516.98 258.367,512.013 258.78,504.76C258.781,504.75 258.781,504.741 258.781,504.731C258.781,504.473 258.569,504.261 258.311,504.261C258.28,504.261 258.25,504.264 258.22,504.27C244.06,506.87 228.41,502.75 219.38,491.09C215,485.45 213.627,479.08 215.26,471.98C215.91,469.14 217.55,466.25 219.23,463.45C219.27,463.383 219.292,463.306 219.292,463.228C219.292,463.007 219.121,462.82 218.9,462.8C215.393,462.5 211.817,462.857 208.17,463.87C207.977,463.925 207.844,464.102 207.844,464.303C207.844,464.364 207.856,464.424 207.88,464.48C214.92,480.78 216.45,500.74 195.51,507.47C182.837,511.543 170.23,510.303 157.69,503.75C146.99,498.16 138.73,487.58 139.17,475.37C139.257,472.863 139.373,471.32 139.52,470.74C139.53,470.7 139.535,470.658 139.535,470.617C139.535,470.343 139.31,470.117 139.035,470.117C139.017,470.117 138.998,470.118 138.98,470.12C136.64,470.387 132.387,470.303 126.22,469.87C119.99,469.43 114.13,470.12 106.58,470.33C103.05,470.43 100.45,471 97.36,471.42C97.211,471.439 97.098,471.567 97.098,471.718C97.098,471.771 97.113,471.824 97.14,471.87L100.52,477.54ZM218.059,523.239C217.921,523.034 217.122,523.327 216.289,523.886C215.456,524.446 214.883,525.076 215.021,525.281C215.021,525.281 215.021,525.281 215.021,525.281C215.159,525.486 215.958,525.193 216.791,524.634C217.624,524.074 218.197,523.444 218.059,523.239C218.059,523.239 218.059,523.239 218.059,523.239ZM159.02,578.67L144.49,576.27C144.279,576.237 144.078,576.159 143.9,576.04C140.753,573.907 138.977,572.61 138.57,572.15C134.277,567.31 129.82,563.73 125.2,561.41C124.971,561.295 124.8,561.088 124.73,560.84L124.47,559.85C124.415,559.657 124.238,559.522 124.037,559.522C123.941,559.522 123.847,559.553 123.77,559.61C115.16,566.09 127.63,574.49 132.1,578.24C137.57,582.83 137.91,587.67 139.1,593.66C139.51,595.74 140.81,598.73 143.42,598.41C149.58,597.67 150.08,593.23 151.37,588.23C151.529,587.595 151.799,586.989 152.17,586.44C153.983,583.707 156.317,581.333 159.17,579.32C159.266,579.253 159.323,579.143 159.323,579.025C159.323,578.849 159.194,578.698 159.02,578.67Z" style="fill-rule:nonzero;"/>
        <g transform="matrix(0.976296,-0.21644,0.21644,0.976296,153.99,368.6)">
            <ellipse cx="0" cy="0" rx="7.37" ry="0.86" style="fill:rgb(122,127,112);"/>
        </g>
        <path d="M262,399.72C261.97,399.79 261.901,399.836 261.825,399.836C261.799,399.836 261.774,399.83 261.75,399.82L261.58,399.74C256.725,397.689 252.801,395.826 252.88,395.61L252.99,395.36C252.99,395.359 252.991,395.357 252.991,395.356C253.081,395.144 257.151,396.658 262.01,398.71L262.19,398.79C262.281,398.831 262.325,398.937 262.29,399.03L262,399.72Z" style="fill:rgb(122,127,112);fill-rule:nonzero;"/>
        <path d="M184.86,405.86C184.027,408.387 184.527,410.38 186.36,411.84C186.873,412.245 187.584,412.296 188.15,411.97C193.557,408.863 198.663,405.943 203.47,403.21C206.67,401.383 209.52,399.42 212.02,397.32C212.205,397.164 212.47,397.14 212.68,397.26C221.367,402.34 229.28,407.513 236.42,412.78C238.3,414.167 239.8,416.177 240.92,418.81C243.393,424.63 244.723,427.81 244.91,428.35C246.323,432.59 247.497,435.783 248.43,437.93C248.452,437.982 248.464,438.037 248.464,438.093C248.464,438.318 248.279,438.503 248.054,438.503C248.019,438.503 247.984,438.499 247.95,438.49C241.57,436.743 235.11,436.18 228.57,436.8C227.343,436.917 226.389,437.957 226.37,439.2L226.37,439.26C226.37,439.28 226.37,439.299 226.37,439.319C226.39,440.476 227.364,441.412 228.527,441.392C228.544,441.391 228.562,441.391 228.58,441.39C235.373,441.07 242.243,441.813 249.19,443.62C249.467,443.692 249.726,443.822 249.95,444C250.71,444.627 251.29,445.573 251.69,446.84C251.71,446.904 251.72,446.972 251.72,447.039C251.72,447.371 251.477,447.656 251.15,447.71C241.003,449.25 231.733,453.077 223.34,459.19C222.993,459.447 222.56,459.561 222.13,459.51C216.557,458.89 211.343,459.317 206.49,460.79C206.112,460.905 205.701,460.773 205.46,460.46C199.74,452.99 193.94,449.84 184.82,448.89C176.06,447.98 165.14,449.56 157.41,453.4C155.003,454.593 151.677,456.99 147.43,460.59C147.119,460.855 146.768,461.068 146.39,461.22L143.81,462.26C143.58,462.352 143.374,462.496 143.21,462.68L141.4,464.76C141.119,465.08 140.721,465.271 140.3,465.29L121.72,466.04C121.451,466.047 121.221,465.843 121.2,465.58L120.52,458.89C120.519,458.877 120.518,458.863 120.518,458.85C120.518,458.625 120.703,458.44 120.928,458.44C120.932,458.44 120.936,458.44 120.94,458.44C123.57,458.52 125.97,457.64 126.88,455.21C127.029,454.808 127.04,454.368 126.91,453.96C124.27,445.467 121.487,438.033 118.56,431.66C118.532,431.602 118.517,431.538 118.517,431.473C118.517,431.266 118.666,431.087 118.87,431.05C131.183,428.843 142.287,424.03 152.18,416.61C152.208,416.591 152.241,416.581 152.275,416.581C152.369,416.581 152.445,416.658 152.445,416.751C152.445,416.782 152.437,416.813 152.42,416.84L150.28,420.05C150.12,420.293 150.034,420.579 150.034,420.87C150.034,421.679 150.692,422.347 151.5,422.36C158.24,422.493 164.283,420.71 169.63,417.01C173.757,414.15 178.743,410.373 184.59,405.68C184.62,405.656 184.658,405.642 184.697,405.642C184.79,405.642 184.867,405.719 184.867,405.812C184.867,405.828 184.865,405.844 184.86,405.86ZM151.32,447.03L185.33,441.03C185.57,440.99 185.748,440.78 185.748,440.537C185.748,440.508 185.745,440.479 185.74,440.45L185.46,438.91C185.153,437.143 179.948,436.56 173.93,437.62L160.87,439.92C160.867,439.92 160.865,439.921 160.862,439.921C154.844,440.983 150.148,443.31 150.459,445.076C150.46,445.077 150.46,445.079 150.46,445.08L150.74,446.62C150.78,446.86 150.99,447.038 151.233,447.038C151.262,447.038 151.291,447.035 151.32,447.03Z" style="fill:rgb(253,253,253);fill-rule:nonzero;"/>
        <path d="M151.32,447.03C151.291,447.035 151.262,447.038 151.233,447.038C150.99,447.038 150.78,446.86 150.74,446.62L150.46,445.08C150.46,445.079 150.46,445.077 150.459,445.076C150.148,443.31 154.844,440.983 160.862,439.921C160.865,439.921 160.867,439.92 160.87,439.92L173.93,437.62C179.948,436.56 185.153,437.143 185.46,438.91L185.74,440.45C185.745,440.479 185.748,440.508 185.748,440.537C185.748,440.78 185.57,440.99 185.33,441.03L151.32,447.03Z" style="fill-rule:nonzero;"/>
        <path d="M256.86,450.63C259.247,457.123 261.273,463.653 262.94,470.22C263.547,472.6 263.803,475.527 263.71,479C263.53,485.593 263.303,492.313 263.03,499.16C262.203,499.727 261.083,500.153 259.67,500.44C259.757,494.287 259.947,488.14 260.24,482C260.42,478.173 260.37,475.173 260.09,473C259.67,469.707 258.947,466.793 257.92,464.26C255.747,458.907 254.297,454.537 253.57,451.15C254.963,450.717 256.06,450.543 256.86,450.63Z" style="fill:rgb(122,127,112);fill-rule:nonzero;"/>
        <path d="M263.03,499.16C263.303,492.313 263.53,485.593 263.71,479C263.803,475.527 263.547,472.6 262.94,470.22C261.273,463.653 259.247,457.123 256.86,450.63C265.17,450.27 270.89,453.61 275.1,460.83C278.327,466.37 280.223,472.167 280.79,478.22C280.95,479.88 280.417,481.603 279.19,483.39C277.257,486.197 275.34,488.957 273.44,491.67C271.187,494.89 267.717,497.387 263.03,499.16Z" style="fill:white;fill-opacity:0.56;fill-rule:nonzero;"/>
        <path d="M253.57,451.15C254.297,454.537 255.747,458.907 257.92,464.26C258.947,466.793 259.67,469.707 260.09,473C260.37,475.173 260.42,478.173 260.24,482C259.947,488.14 259.757,494.287 259.67,500.44C248.417,503.04 238.153,501.013 228.88,494.36C218.68,487.04 216.16,475.61 223.71,465.07C223.948,464.734 224.36,464.563 224.77,464.63L226.9,464.98C227.283,465.04 227.649,464.781 227.72,464.4C228.133,462.153 228.837,460.72 229.83,460.1C236.303,456.047 244.217,453.063 253.57,451.15ZM257.151,465.791C257.154,465.746 257.156,465.701 257.156,465.655C257.156,464.714 256.421,463.921 255.482,463.851L232.766,462.143C231.776,462.068 230.9,462.822 230.825,463.812L230.749,464.829C230.746,464.874 230.744,464.919 230.744,464.965C230.744,465.906 231.479,466.699 232.418,466.77L255.134,468.478C256.124,468.552 257,467.798 257.075,466.808L257.151,465.791ZM243.462,470.841C240.999,470.79 238.913,473.586 238.841,477.036C238.769,480.486 240.736,483.367 243.198,483.419C245.661,483.47 247.747,480.674 247.819,477.224C247.891,473.774 245.924,470.893 243.462,470.841Z" style="fill:rgb(253,253,253);fill-rule:nonzero;"/>
        <path d="M204.65,466.57C204.822,466.524 205.004,466.609 205.08,466.77C209.88,476.6 212.69,491.71 202.7,499.76C199.693,502.187 196.647,503.79 193.56,504.57C179.5,508.15 166.733,505.633 155.26,497.02C150.033,493.093 146.55,488.167 144.81,482.24C143.88,479.1 143.53,470.91 145.7,468.05C145.773,467.957 145.857,467.876 145.95,467.81L149.17,465.62C149.376,465.487 149.564,465.329 149.73,465.15C155.45,459.03 162.14,454.99 170.86,453.66C182.75,451.85 193.09,452.01 201.38,461.09C201.816,461.572 201.821,462.316 201.39,462.81L200.41,463.93C200.146,464.236 200.073,464.664 200.22,465.04C200.667,466.16 201.397,466.903 202.41,467.27C202.735,467.395 203.104,467.354 203.4,467.16C203.827,466.873 204.243,466.677 204.65,466.57ZM187.797,464.121C187.624,462.91 186.486,462.055 185.275,462.228L158.643,466.018C157.432,466.19 156.577,467.329 156.749,468.54L156.764,468.639C156.936,469.85 158.074,470.705 159.285,470.532L185.917,466.742C187.128,466.57 187.983,465.431 187.811,464.22L187.797,464.121ZM174.246,472.175C171.839,472.078 169.744,474.872 169.604,478.364C169.604,478.364 169.603,478.364 169.603,478.364C169.463,481.856 171.328,484.808 173.734,484.905C173.734,484.905 173.734,484.905 173.734,484.905C176.141,485.002 178.236,482.208 178.376,478.716C178.376,478.716 178.377,478.716 178.377,478.716C178.517,475.224 176.652,472.272 174.246,472.175C174.246,472.175 174.246,472.175 174.246,472.175Z" style="fill:rgb(253,253,253);fill-rule:nonzero;"/>
        <g transform="matrix(0.990024,-0.140901,0.140901,0.990024,172.28,466.38)">
            <path d="M15.68,-0.05L15.68,0.05C15.68,1.281 14.681,2.28 13.45,2.28L-13.45,2.28C-14.681,2.28 -15.68,1.281 -15.68,0.05L-15.68,-0.05C-15.68,-1.281 -14.681,-2.28 -13.45,-2.28L13.45,-2.28C14.681,-2.28 15.68,-1.281 15.68,-0.05Z"/>
        </g>
        <g transform="matrix(0.997185,0.0749787,-0.0749787,0.997185,243.95,465.31)">
            <path d="M13.2,-0.51L13.2,0.51C13.2,1.509 12.389,2.32 11.39,2.32L-11.39,2.32C-12.389,2.32 -13.2,1.509 -13.2,0.51L-13.2,-0.51C-13.2,-1.509 -12.389,-2.32 -11.39,-2.32L11.39,-2.32C12.389,-2.32 13.2,-1.509 13.2,-0.51Z"/>
        </g>
        <path d="M231.89,527.14L230.38,537.02C230.334,537.344 230.035,537.575 229.71,537.54C228.437,537.413 227.73,537.917 227.59,539.05C227.237,541.903 226.877,543.653 226.51,544.3C226.44,544.419 226.312,544.493 226.173,544.493C226.061,544.493 225.954,544.445 225.88,544.36C225.04,543.42 223.21,543.61 222.96,545C222.793,545.9 222.467,547.337 221.98,549.31C221.979,549.316 221.977,549.322 221.976,549.327C221.807,549.969 221.197,550.374 220.624,550.224C220.619,550.223 220.615,550.221 220.61,550.22C219.977,550.047 219.4,550.263 218.88,550.87C218.3,551.55 217.89,552.837 217.65,554.73C217.317,555.35 216.833,555.25 216.2,554.43C214.8,554.543 213.853,555.623 213.36,557.67C212.927,559.457 212.47,561.203 211.99,562.91L211.49,563.75C211.434,563.841 211.334,563.897 211.226,563.897C211.056,563.897 210.916,563.757 210.916,563.587C210.916,563.571 210.918,563.555 210.92,563.54C211.127,562.3 211.203,561.05 211.15,559.79C211.147,559.714 211.136,559.639 211.119,559.565C210.953,558.86 210.193,558.427 209.435,558.604C209.355,558.623 209.276,558.649 209.2,558.68C208.94,558.787 208.75,559.017 208.63,559.37C207.303,563.483 205.637,567.683 203.63,571.97L201.31,573.88C202.823,569.46 203.837,565.133 204.35,560.9C204.359,560.825 204.364,560.749 204.364,560.674C204.364,559.67 203.538,558.844 202.534,558.844C202.483,558.844 202.431,558.846 202.38,558.85C201.947,558.89 201.623,559.15 201.41,559.63C199.623,563.637 198.127,566.987 196.92,569.68C196.18,571.333 195.773,573.037 195.7,574.79C195.113,574.71 194.787,574.287 194.72,573.52C194.6,572.08 194.56,571.28 194.6,571.12C195.273,568.227 195.703,565.09 195.89,561.71C195.892,561.681 195.893,561.651 195.893,561.622C195.893,560.804 195.22,560.132 194.403,560.132C193.916,560.132 193.458,560.37 193.18,560.77L192.51,561.74C192.278,562.071 192.099,562.439 191.98,562.83C190.607,567.243 188.773,571.173 186.48,574.62C186.418,574.709 186.317,574.763 186.208,574.763C186.027,574.763 185.878,574.614 185.878,574.433C185.878,574.422 185.879,574.411 185.88,574.4C186.08,572.413 186.59,568.997 187.41,564.15C187.623,562.87 187.403,561.823 186.75,561.01C186.427,560.611 185.941,560.379 185.428,560.379C184.906,560.379 184.412,560.619 184.09,561.03C183.443,561.863 182.973,562.67 182.68,563.45C180.927,568.09 178.63,572.383 175.79,576.33C175.745,576.391 175.673,576.427 175.597,576.427C175.466,576.427 175.357,576.319 175.357,576.187C175.357,576.161 175.362,576.135 175.37,576.11C176.93,571.557 177.73,567.13 177.77,562.83C177.777,561.71 177.58,560.997 177.18,560.69C177.112,560.637 177.039,560.592 176.962,560.553C176.254,560.202 175.353,560.556 174.965,561.337C174.923,561.422 174.888,561.51 174.86,561.6C173.393,566.367 171.023,570.56 167.75,574.18C167.661,574.285 167.53,574.346 167.392,574.346C167.134,574.346 166.922,574.134 166.922,573.876C166.922,573.812 166.935,573.749 166.96,573.69L170.81,564.18C170.887,563.987 170.927,563.78 170.927,563.572C170.927,562.673 170.186,561.932 169.287,561.932C168.926,561.932 168.576,562.051 168.29,562.27C166.81,563.46 164.7,567.67 162.6,571.3C162.554,571.39 162.479,571.46 162.387,571.5C162.165,571.595 161.902,571.488 161.804,571.261C161.765,571.169 161.756,571.067 161.78,570.97C162.55,567.65 164.59,562.51 163.13,559.27C162.894,558.735 162.361,558.387 161.776,558.387C161.222,558.387 160.713,558.698 160.46,559.19L157.19,565.54C157.154,565.601 157.089,565.638 157.018,565.638C156.908,565.638 156.818,565.548 156.818,565.438C156.818,565.429 156.819,565.419 156.82,565.41C157.41,562.53 159.86,554.14 154.33,554.16C154.008,554.16 153.741,554.423 153.73,554.75L153.49,561.66C153.483,562.019 153.436,562.378 153.35,562.73C152.577,566.037 152.177,568.99 152.15,571.59C152.139,572.095 152.54,572.523 153.05,572.55L155.41,572.68C155.933,572.71 156.417,572.397 156.6,571.91L157.85,568.59C157.888,568.47 158,568.389 158.126,568.389C158.263,568.389 158.382,568.486 158.41,568.62C158.643,569.5 158.637,570.857 158.39,572.69C158.347,573.011 158.482,573.33 158.74,573.52C159.32,573.96 159.593,574.453 159.56,575C155.313,573.86 151.033,572.98 146.72,572.36C146.12,572.273 145.847,571.883 145.9,571.19C150.64,567.15 151.16,562.03 151.59,555.83C151.591,555.807 151.592,555.783 151.592,555.76C151.592,555.151 151.091,554.65 150.482,554.65C150.411,554.65 150.34,554.656 150.27,554.67L149.75,554.79C149.073,554.947 148.555,555.501 148.44,556.19L146.77,566.31C146.723,566.61 146.462,566.834 146.157,566.834C145.838,566.834 145.569,566.588 145.54,566.27C145.21,563.15 146.38,557.74 145.93,552.93C145.6,549.26 146.95,546.77 148.65,542C148.721,541.809 148.905,541.681 149.109,541.681C149.282,541.681 149.442,541.772 149.53,541.92L149.84,542.46C149.879,542.526 149.924,542.588 149.974,542.646C150.411,543.145 151.179,543.199 151.674,542.766C151.731,542.716 151.783,542.66 151.83,542.6C154.73,538.84 156.23,535.14 158.96,531.63C158.987,531.59 160.717,529.413 164.15,525.1C164.19,525.049 164.261,525.032 164.32,525.06L164.55,525.18C164.569,525.19 164.587,525.201 164.604,525.213C164.835,525.371 164.891,525.695 164.729,525.93C164.717,525.948 164.704,525.964 164.69,525.98L158.09,533.28C158.037,533.333 157.996,533.394 157.97,533.46C157.17,535.193 157.573,536.537 159.18,537.49C159.511,537.691 159.929,537.691 160.26,537.49C161.647,536.643 162.767,535.687 163.62,534.62C166.433,531.107 169.92,526.977 174.08,522.23C174.086,522.224 174.097,522.22 174.11,522.22L174.56,522.39C174.647,522.425 174.705,522.51 174.705,522.604C174.705,522.653 174.689,522.7 174.66,522.74C172.64,525.38 171.103,527.563 170.05,529.29C169.443,530.277 169.517,531.12 170.27,531.82C171.239,532.719 172.758,532.688 173.65,531.75C176.23,529.023 178.457,526.143 180.33,523.11C180.597,522.683 181.06,522.313 181.72,522L182.3,522.05L179.56,526.57C179.551,526.585 179.543,526.599 179.535,526.614C179.296,527.065 179.467,527.631 179.913,527.867C179.928,527.875 179.944,527.883 179.96,527.89C181.813,528.73 183.273,528.41 184.34,526.93C184.6,526.57 186.253,524.653 189.3,521.18C189.631,520.796 190.023,520.471 190.46,520.22L197.2,516.33C197.577,516.112 197.81,515.709 197.81,515.274C197.81,514.818 197.555,514.399 197.15,514.19L195.93,513.56C195.776,513.476 195.593,513.455 195.42,513.5C192.413,514.2 190.267,515.607 188.98,517.72C188.853,517.927 188.603,518.127 188.23,518.32C187.777,518.56 187.483,518.69 187.35,518.71C187.33,518.713 187.31,518.715 187.291,518.715C187.088,518.715 186.921,518.548 186.921,518.345C186.921,518.28 186.938,518.216 186.97,518.16C187.41,517.407 187.637,516.877 187.65,516.57C187.65,516.554 187.651,516.538 187.651,516.522C187.651,515.655 186.938,514.942 186.071,514.942C185.893,514.942 185.717,514.972 185.55,515.03C182.803,515.983 180.55,517.913 178.79,520.82C178.739,520.911 178.642,520.967 178.537,520.967C178.459,520.967 178.385,520.936 178.33,520.88L178.15,520.7C178.132,520.681 178.128,520.653 178.14,520.63C179.093,518.93 179.157,517.713 178.33,516.98C175.99,514.9 172.93,519.02 171.08,520.52C171.003,520.582 170.908,520.616 170.809,520.616C170.623,520.616 170.458,520.496 170.4,520.32C169.03,516.03 164.26,520.71 162.29,522.53C161.999,522.797 161.585,522.892 161.2,522.78L160.03,522.42C159.595,522.287 159.12,522.361 158.74,522.62C156.727,523.993 155.227,525.767 154.24,527.94C154.1,528.253 153.99,528.413 153.91,528.42C153.703,528.433 153.53,528.35 153.39,528.17C152.47,526.97 150.66,527.76 149.96,528.55C146.413,532.577 143.703,537.75 141.83,544.07C141.786,544.2 141.664,544.288 141.527,544.288C141.386,544.288 141.26,544.195 141.22,544.06L140.5,541.39C140.359,540.856 139.872,540.482 139.321,540.482C138.973,540.482 138.641,540.631 138.41,540.89C135.07,544.64 134.1,551.06 133.08,554.59C132.88,555.283 132.68,555.743 132.48,555.97C132.427,556.033 132.348,556.07 132.266,556.07C132.131,556.07 132.014,555.973 131.99,555.84C131.48,553.14 133.56,548.27 134.94,544.96C135.707,543.12 135.93,541.28 135.61,539.44C135.553,539.1 135.343,538.805 135.04,538.64C134.553,538.38 134.06,537.957 133.56,537.37C133.354,537.119 133.287,536.785 133.38,536.48C133.89,534.74 134.26,532.19 132.56,530.94C131.73,530.325 130.431,530.548 129.54,531.46C128.907,532.107 128.483,532.493 128.27,532.62C128.185,532.668 128.09,532.694 127.992,532.694C127.685,532.694 127.432,532.441 127.432,532.134C127.432,532.075 127.442,532.016 127.46,531.96L130.25,523.08C130.341,522.775 130.334,522.45 130.23,522.15C129.843,521.037 128.947,520.453 127.54,520.4C127.186,520.388 126.848,520.535 126.62,520.8C126.013,521.513 125.623,521.873 125.45,521.88C125.449,521.88 125.447,521.88 125.446,521.88C125.418,521.88 125.396,521.858 125.396,521.83C125.396,521.823 125.397,521.816 125.4,521.81L128.07,514.22C128.491,513.023 127.981,511.684 126.87,511.07L126.65,510.95C126.403,510.806 126.122,510.731 125.836,510.731C125.117,510.731 124.48,511.209 124.28,511.9L121.8,520.56C121.788,520.615 121.739,520.655 121.683,520.655C121.672,520.655 121.661,520.653 121.65,520.65L121.18,520.5C121.179,520.5 121.178,520.5 121.177,520.5C121.166,520.5 121.157,520.491 121.157,520.48C121.157,520.477 121.158,520.473 121.16,520.47L124.67,506.99C124.709,506.844 124.729,506.693 124.729,506.542C124.729,505.587 123.943,504.802 122.989,504.802C122.68,504.802 122.377,504.884 122.11,505.04L121.08,505.63C120.942,505.709 120.788,505.757 120.63,505.77C117.14,506.06 114.09,508.73 111.09,511.13C111.063,511.15 111.031,511.163 110.997,511.169C110.883,511.187 110.775,511.113 110.758,511.005C110.752,510.97 110.756,510.933 110.77,510.9C111.81,508.13 117.72,505.37 121.35,503.33C121.465,503.266 121.575,503.19 121.675,503.104C122.401,502.484 122.55,501.449 122.005,500.811C121.93,500.724 121.845,500.646 121.75,500.58C121.257,500.24 121.097,499.42 121.27,498.12C121.315,497.787 121.228,497.449 121.03,497.18C118.03,493.21 108.68,500.49 106.29,501.79C106.233,501.819 106.169,501.834 106.105,501.834C105.88,501.834 105.695,501.649 105.695,501.424C105.695,501.323 105.732,501.225 105.8,501.15L111.58,495.21C111.799,494.985 112.048,494.793 112.32,494.64L119.79,490.5C120.312,490.209 120.636,489.657 120.636,489.059C120.636,488.621 120.461,488.2 120.15,487.89L119.41,487.15C118.484,486.218 117.051,485.994 115.89,486.6L107.86,490.79C107.814,490.814 107.757,490.806 107.72,490.77L107.69,490.73C107.689,490.728 107.687,490.726 107.686,490.724C107.537,490.493 107.601,490.184 107.827,490.038C107.831,490.035 107.836,490.033 107.84,490.03L114.83,485.65C115.819,485.025 116.19,483.743 115.69,482.68L115.64,482.57C115.085,481.442 113.719,480.951 112.58,481.47C110.787,482.29 109.72,482.77 109.38,482.91C109.351,482.921 109.321,482.926 109.29,482.926C109.147,482.926 109.03,482.809 109.03,482.666C109.03,482.605 109.051,482.547 109.09,482.5L111.24,480.16C111.277,480.12 111.311,480.077 111.341,480.031C111.661,479.552 111.526,478.892 111.042,478.57C110.997,478.54 110.949,478.513 110.9,478.49C110.62,478.357 110.26,478.063 109.82,477.61C109.575,477.353 109.537,476.958 109.73,476.66C110.663,475.187 110.643,473.917 109.67,472.85C109.037,472.157 108.197,472.04 107.15,472.5C104.477,473.667 102.267,475.347 100.52,477.54L97.14,471.87C97.113,471.824 97.098,471.771 97.098,471.718C97.098,471.567 97.211,471.439 97.36,471.42C100.45,471 103.05,470.43 106.58,470.33C114.13,470.12 119.99,469.43 126.22,469.87C132.387,470.303 136.64,470.387 138.98,470.12C138.998,470.118 139.017,470.117 139.035,470.117C139.31,470.117 139.535,470.343 139.535,470.617C139.535,470.658 139.53,470.7 139.52,470.74C139.373,471.32 139.257,472.863 139.17,475.37C138.73,487.58 146.99,498.16 157.69,503.75C170.23,510.303 182.837,511.543 195.51,507.47C216.45,500.74 214.92,480.78 207.88,464.48C207.856,464.424 207.844,464.364 207.844,464.303C207.844,464.102 207.977,463.925 208.17,463.87C211.817,462.857 215.393,462.5 218.9,462.8C219.121,462.82 219.292,463.007 219.292,463.228C219.292,463.306 219.27,463.383 219.23,463.45C217.55,466.25 215.91,469.14 215.26,471.98C213.627,479.08 215,485.45 219.38,491.09C228.41,502.75 244.06,506.87 258.22,504.27C258.25,504.264 258.28,504.261 258.311,504.261C258.569,504.261 258.781,504.473 258.781,504.731C258.781,504.741 258.781,504.75 258.78,504.76C258.367,512.013 255.097,516.98 248.97,519.66C240.4,523.41 229.71,523.76 221.06,520.4C220.693,520.255 220.453,519.895 220.46,519.5C220.52,513.11 213.11,517.15 210.74,519.32C209.887,520.1 209.027,520.66 208.16,521C206.3,521.74 205.533,523.353 205.86,525.84C205.908,526.184 206.138,526.476 206.46,526.6C207.87,527.15 209.06,526.56 209.86,525.16C211.56,522.18 212.83,520.55 215.75,519.23C215.832,519.194 215.921,519.175 216.01,519.175C216.361,519.175 216.65,519.464 216.65,519.815C216.65,519.981 216.586,520.141 216.47,520.26L211.43,525.3C211.309,525.423 211.241,525.59 211.241,525.763C211.241,526.102 211.502,526.389 211.84,526.42C212.32,526.467 212.87,526.333 213.49,526.02C213.724,525.91 214.007,526.003 214.13,526.23C215.11,528.143 216.3,528.64 217.7,527.72C217.818,527.648 217.912,527.544 217.97,527.42L219.54,524.38C219.713,524.049 220.082,523.866 220.45,523.93L223.7,524.46C224.025,524.516 224.3,524.73 224.43,525.03L225.01,526.33C225.156,526.66 225.479,526.878 225.84,526.89L231.89,527.14ZM197.8,524.29C198.16,524.663 198.637,525.003 199.23,525.31C199.554,525.478 199.942,525.47 200.26,525.29L205.47,522.28C205.862,522.052 206.133,521.659 206.21,521.21L207.02,516.3C207.028,516.251 207.033,516.202 207.034,516.152C207.045,515.598 206.593,515.133 206.033,515.123C205.986,515.122 205.938,515.124 205.89,515.13C204.17,515.35 202.983,516.067 202.33,517.28C201.05,519.65 199.2,521.22 197.72,523.36C197.524,523.649 197.557,524.039 197.8,524.29ZM201.98,516.87C201.58,516.23 201.037,515.997 200.35,516.17C195.257,517.457 191.413,520.05 188.82,523.95C188.627,524.239 188.523,524.58 188.523,524.928C188.523,525.654 188.973,526.309 189.65,526.57L189.77,526.61C190.933,527.007 192.222,526.716 193.09,525.86L201.95,517.15C202.026,517.076 202.039,516.958 201.98,516.87ZM189.23,536.01C181.61,536.817 176.107,537.59 172.72,538.33C171.593,538.575 170.803,539.587 170.87,540.7C170.98,542.46 172.5,542.59 174.07,542.39C179.857,541.643 185.07,541.023 189.71,540.53C194.35,540.043 199.577,539.56 205.39,539.08C206.97,538.96 208.43,538.51 208.17,536.77C208.007,535.666 207.025,534.837 205.87,534.83C202.403,534.817 196.857,535.21 189.23,536.01Z" style="fill:rgb(253,253,253);fill-rule:nonzero;"/>
        <g transform="matrix(0.0209424,-0.999781,0.999781,0.0209424,243.33,477.13)">
            <ellipse cx="0" cy="0" rx="6.29" ry="4.49"/>
        </g>
        <path d="M182.3,522.05C182.513,521.963 182.677,521.86 182.79,521.74C182.829,521.693 182.85,521.635 182.85,521.574C182.85,521.431 182.733,521.314 182.59,521.314C182.559,521.314 182.529,521.319 182.5,521.33C182.24,521.43 181.98,521.653 181.72,522C181.06,522.313 180.597,522.683 180.33,523.11C178.457,526.143 176.23,529.023 173.65,531.75C172.758,532.688 171.239,532.719 170.27,531.82C169.517,531.12 169.443,530.277 170.05,529.29C171.103,527.563 172.64,525.38 174.66,522.74C174.689,522.7 174.705,522.653 174.705,522.604C174.705,522.51 174.647,522.425 174.56,522.39L174.11,522.22C174.097,522.22 174.086,522.224 174.08,522.23C169.92,526.977 166.433,531.107 163.62,534.62C162.767,535.687 161.647,536.643 160.26,537.49C159.929,537.691 159.511,537.691 159.18,537.49C157.573,536.537 157.17,535.193 157.97,533.46C157.996,533.394 158.037,533.333 158.09,533.28L164.69,525.98C164.704,525.964 164.717,525.948 164.729,525.93C164.891,525.695 164.835,525.371 164.604,525.213C164.587,525.201 164.569,525.19 164.55,525.18L164.32,525.06C164.261,525.032 164.19,525.049 164.15,525.1C160.717,529.413 158.987,531.59 158.96,531.63C156.23,535.14 154.73,538.84 151.83,542.6C151.783,542.66 151.731,542.716 151.674,542.766C151.179,543.199 150.411,543.145 149.974,542.646C149.924,542.588 149.879,542.526 149.84,542.46L149.53,541.92C149.442,541.772 149.282,541.681 149.109,541.681C148.905,541.681 148.721,541.809 148.65,542C146.95,546.77 145.6,549.26 145.93,552.93C146.38,557.74 145.21,563.15 145.54,566.27C145.569,566.588 145.838,566.834 146.157,566.834C146.462,566.834 146.723,566.61 146.77,566.31L148.44,556.19C148.555,555.501 149.073,554.947 149.75,554.79L150.27,554.67C150.34,554.656 150.411,554.65 150.482,554.65C151.091,554.65 151.592,555.151 151.592,555.76C151.592,555.783 151.591,555.807 151.59,555.83C151.16,562.03 150.64,567.15 145.9,571.19C145.633,571.383 145.297,571.357 144.89,571.11C142.057,569.377 139.593,567.27 137.5,564.79C137.127,561.25 137.257,557.857 137.89,554.61C137.892,554.598 137.894,554.586 137.894,554.574C137.894,554.475 137.812,554.394 137.714,554.394C137.651,554.394 137.593,554.426 137.56,554.48L133.53,561.01C132.617,560.477 131.567,560.107 130.38,559.9C130.08,559.848 129.805,559.709 129.59,559.5L127.56,557.53C127.06,554.977 127.177,552.347 127.91,549.64C127.997,549.32 128.013,549.073 127.96,548.9C127.93,548.818 127.851,548.763 127.763,548.763C127.679,548.763 127.603,548.813 127.57,548.89C126.583,551.563 125.247,552.747 123.56,552.44C123.3,552.247 123.137,551.813 123.07,551.14C123.63,548.527 123.09,547.28 121.45,547.4C121.47,547.167 121.407,546.973 121.26,546.82C121.14,545.547 120.78,545.007 120.18,545.2L118.42,538.52C118.133,536.547 118.327,534.76 119,533.16C119.014,533.128 119.024,533.094 119.029,533.059C119.061,532.836 118.9,532.626 118.672,532.593C118.638,532.588 118.604,532.587 118.57,532.59C118.437,532.603 118.233,532.817 117.96,533.23C117.876,533.354 117.736,533.428 117.587,533.428C117.394,533.428 117.221,533.304 117.16,533.12C115.433,527.86 115.527,522.793 117.44,517.92C117.457,517.882 117.466,517.84 117.466,517.798C117.466,517.634 117.33,517.498 117.166,517.498C117.084,517.498 117.007,517.532 116.95,517.59L112.68,521.85L107.52,514.68C107.414,514.534 107.286,514.399 107.14,514.28C105.713,513.127 104.663,511.84 103.99,510.42C104.57,509.713 104.79,508.913 104.65,508.02C104.602,507.682 104.37,507.4 104.05,507.29C102.983,506.923 102.11,506.48 101.43,505.96C100.364,505.136 100.038,503.651 100.66,502.45L103.39,497.14C103.436,497.053 103.46,496.956 103.46,496.858C103.46,496.574 103.258,496.327 102.98,496.27C98.68,495.35 99.79,492.35 101.34,489.43C101.482,489.171 101.428,488.842 101.21,488.63C99.997,487.443 99.203,486.127 98.83,484.68C100.65,484.073 101.213,481.693 100.52,477.54C102.267,475.347 104.477,473.667 107.15,472.5C108.197,472.04 109.037,472.157 109.67,472.85C110.643,473.917 110.663,475.187 109.73,476.66C109.537,476.958 109.575,477.353 109.82,477.61C110.26,478.063 110.62,478.357 110.9,478.49C110.949,478.513 110.997,478.54 111.042,478.57C111.526,478.892 111.661,479.552 111.341,480.031C111.311,480.077 111.277,480.12 111.24,480.16L109.09,482.5C109.051,482.547 109.03,482.605 109.03,482.666C109.03,482.809 109.147,482.926 109.29,482.926C109.321,482.926 109.351,482.921 109.38,482.91C109.72,482.77 110.787,482.29 112.58,481.47C113.719,480.951 115.085,481.442 115.64,482.57L115.69,482.68C116.19,483.743 115.819,485.025 114.83,485.65L107.84,490.03C107.836,490.033 107.831,490.035 107.827,490.038C107.601,490.184 107.537,490.493 107.686,490.724C107.687,490.726 107.689,490.728 107.69,490.73L107.72,490.77C107.757,490.806 107.814,490.814 107.86,490.79L115.89,486.6C117.051,485.994 118.484,486.218 119.41,487.15L120.15,487.89C120.461,488.2 120.636,488.621 120.636,489.059C120.636,489.657 120.312,490.209 119.79,490.5L112.32,494.64C112.048,494.793 111.799,494.985 111.58,495.21L105.8,501.15C105.732,501.225 105.695,501.323 105.695,501.424C105.695,501.649 105.88,501.834 106.105,501.834C106.169,501.834 106.233,501.819 106.29,501.79C108.68,500.49 118.03,493.21 121.03,497.18C121.228,497.449 121.315,497.787 121.27,498.12C121.097,499.42 121.257,500.24 121.75,500.58C121.845,500.646 121.93,500.724 122.005,500.811C122.55,501.449 122.401,502.484 121.675,503.104C121.575,503.19 121.465,503.266 121.35,503.33C117.72,505.37 111.81,508.13 110.77,510.9C110.756,510.933 110.752,510.97 110.758,511.005C110.775,511.113 110.883,511.187 110.997,511.169C111.031,511.163 111.063,511.15 111.09,511.13C114.09,508.73 117.14,506.06 120.63,505.77C120.788,505.757 120.942,505.709 121.08,505.63L122.11,505.04C122.377,504.884 122.68,504.802 122.989,504.802C123.943,504.802 124.729,505.587 124.729,506.542C124.729,506.693 124.709,506.844 124.67,506.99L121.16,520.47C121.158,520.473 121.157,520.477 121.157,520.48C121.157,520.491 121.166,520.5 121.177,520.5C121.178,520.5 121.179,520.5 121.18,520.5L121.65,520.65C121.661,520.653 121.672,520.655 121.683,520.655C121.739,520.655 121.788,520.615 121.8,520.56L124.28,511.9C124.48,511.209 125.117,510.731 125.836,510.731C126.122,510.731 126.403,510.806 126.65,510.95L126.87,511.07C127.981,511.684 128.491,513.023 128.07,514.22L125.4,521.81C125.397,521.816 125.396,521.823 125.396,521.83C125.396,521.858 125.418,521.88 125.446,521.88C125.447,521.88 125.449,521.88 125.45,521.88C125.623,521.873 126.013,521.513 126.62,520.8C126.848,520.535 127.186,520.388 127.54,520.4C128.947,520.453 129.843,521.037 130.23,522.15C130.334,522.45 130.341,522.775 130.25,523.08L127.46,531.96C127.442,532.016 127.432,532.075 127.432,532.134C127.432,532.441 127.685,532.694 127.992,532.694C128.09,532.694 128.185,532.668 128.27,532.62C128.483,532.493 128.907,532.107 129.54,531.46C130.431,530.548 131.73,530.325 132.56,530.94C134.26,532.19 133.89,534.74 133.38,536.48C133.287,536.785 133.354,537.119 133.56,537.37C134.06,537.957 134.553,538.38 135.04,538.64C135.343,538.805 135.553,539.1 135.61,539.44C135.93,541.28 135.707,543.12 134.94,544.96C133.56,548.27 131.48,553.14 131.99,555.84C132.014,555.973 132.131,556.07 132.266,556.07C132.348,556.07 132.427,556.033 132.48,555.97C132.68,555.743 132.88,555.283 133.08,554.59C134.1,551.06 135.07,544.64 138.41,540.89C138.641,540.631 138.973,540.482 139.321,540.482C139.872,540.482 140.359,540.856 140.5,541.39L141.22,544.06C141.26,544.195 141.386,544.288 141.527,544.288C141.664,544.288 141.786,544.2 141.83,544.07C143.703,537.75 146.413,532.577 149.96,528.55C150.66,527.76 152.47,526.97 153.39,528.17C153.53,528.35 153.703,528.433 153.91,528.42C153.99,528.413 154.1,528.253 154.24,527.94C155.227,525.767 156.727,523.993 158.74,522.62C159.12,522.361 159.595,522.287 160.03,522.42L161.2,522.78C161.585,522.892 161.999,522.797 162.29,522.53C164.26,520.71 169.03,516.03 170.4,520.32C170.458,520.496 170.623,520.616 170.809,520.616C170.908,520.616 171.003,520.582 171.08,520.52C172.93,519.02 175.99,514.9 178.33,516.98C179.157,517.713 179.093,518.93 178.14,520.63C178.128,520.653 178.132,520.681 178.15,520.7L178.33,520.88C178.385,520.936 178.459,520.967 178.537,520.967C178.642,520.967 178.739,520.911 178.79,520.82C180.55,517.913 182.803,515.983 185.55,515.03C185.717,514.972 185.893,514.942 186.071,514.942C186.938,514.942 187.651,515.655 187.651,516.522C187.651,516.538 187.65,516.554 187.65,516.57C187.637,516.877 187.41,517.407 186.97,518.16C186.938,518.216 186.921,518.28 186.921,518.345C186.921,518.548 187.088,518.715 187.291,518.715C187.31,518.715 187.33,518.713 187.35,518.71C187.483,518.69 187.777,518.56 188.23,518.32C188.603,518.127 188.853,517.927 188.98,517.72C190.267,515.607 192.413,514.2 195.42,513.5C195.593,513.455 195.776,513.476 195.93,513.56L197.15,514.19C197.555,514.399 197.81,514.818 197.81,515.274C197.81,515.709 197.577,516.112 197.2,516.33L190.46,520.22C190.023,520.471 189.631,520.796 189.3,521.18C186.253,524.653 184.6,526.57 184.34,526.93C183.273,528.41 181.813,528.73 179.96,527.89C179.944,527.883 179.928,527.875 179.913,527.867C179.467,527.631 179.296,527.065 179.535,526.614C179.543,526.599 179.551,526.585 179.56,526.57L182.3,522.05ZM141.87,558.58L142.95,547.95L142.78,547.94C142.779,547.94 142.778,547.94 142.778,547.94C142.369,547.898 141.801,550.136 141.52,552.9L141.47,553.44C141.19,556.198 141.293,558.505 141.7,558.56L141.87,558.58Z" style="fill:rgb(47,47,45);fill-rule:nonzero;"/>
        <g transform="matrix(0.0401318,-0.999194,0.999194,0.0401318,173.99,478.54)">
            <ellipse cx="0" cy="0" rx="6.37" ry="4.39"/>
        </g>
        <path d="M98.83,484.68C99.203,486.127 99.997,487.443 101.21,488.63C101.428,488.842 101.482,489.171 101.34,489.43C99.79,492.35 98.68,495.35 102.98,496.27C103.258,496.327 103.46,496.574 103.46,496.858C103.46,496.956 103.436,497.053 103.39,497.14L100.66,502.45C100.038,503.651 100.364,505.136 101.43,505.96C102.11,506.48 102.983,506.923 104.05,507.29C104.37,507.4 104.602,507.682 104.65,508.02C104.79,508.913 104.57,509.713 103.99,510.42C98.45,505.75 92.47,502.42 88.59,498.25C83.163,492.417 81.083,485.653 82.35,477.96C82.62,476.38 84.62,474.08 86.21,473.23C89.103,471.697 91.667,472.01 93.9,474.17C94.633,474.877 95.487,476.59 96.46,479.31C97.107,481.123 97.897,482.913 98.83,484.68ZM91.23,488.43L90.99,489.79C90.969,489.912 90.958,490.035 90.958,490.158C90.958,491.228 91.76,492.141 92.82,492.28C95.74,492.65 96.6,490.51 95.79,488.31C94.903,485.87 93.32,484.26 91.04,483.48C88.43,482.58 86.59,483.91 84.89,485.83C83.7,487.18 84.82,489.44 86.32,489.81C86.716,489.914 87.142,489.8 87.44,489.51L89.49,487.51C89.607,487.399 89.748,487.316 89.903,487.268C90.448,487.099 91.034,487.404 91.201,487.944C91.25,488.101 91.26,488.268 91.23,488.43Z" style="fill:rgb(253,253,253);fill-rule:nonzero;"/>
        <path d="M91.23,488.43C91.26,488.268 91.25,488.101 91.201,487.944C91.034,487.404 90.448,487.099 89.903,487.268C89.748,487.316 89.607,487.399 89.49,487.51L87.44,489.51C87.142,489.8 86.716,489.914 86.32,489.81C84.82,489.44 83.7,487.18 84.89,485.83C86.59,483.91 88.43,482.58 91.04,483.48C93.32,484.26 94.903,485.87 95.79,488.31C96.6,490.51 95.74,492.65 92.82,492.28C91.76,492.141 90.958,491.228 90.958,490.158C90.958,490.035 90.969,489.912 90.99,489.79L91.23,488.43Z" style="fill-rule:nonzero;"/>
        <path d="M197.8,524.29C197.557,524.039 197.524,523.649 197.72,523.36C199.2,521.22 201.05,519.65 202.33,517.28C202.983,516.067 204.17,515.35 205.89,515.13C205.938,515.124 205.986,515.122 206.033,515.123C206.593,515.133 207.045,515.598 207.034,516.152C207.033,516.202 207.028,516.251 207.02,516.3L206.21,521.21C206.133,521.659 205.862,522.052 205.47,522.28L200.26,525.29C199.942,525.47 199.554,525.478 199.23,525.31C198.637,525.003 198.16,524.663 197.8,524.29Z" style="fill:rgb(47,47,45);fill-rule:nonzero;"/>
        <path d="M201.98,516.87C202.039,516.958 202.026,517.076 201.95,517.15L193.09,525.86C192.222,526.716 190.933,527.007 189.77,526.61L189.65,526.57C188.973,526.309 188.523,525.654 188.523,524.928C188.523,524.58 188.627,524.239 188.82,523.95C191.413,520.05 195.257,517.457 200.35,516.17C201.037,515.997 201.58,516.23 201.98,516.87Z" style="fill:rgb(47,47,45);fill-rule:nonzero;"/>
        <path d="M118.42,538.52L115.94,531.67C115.907,531.584 115.883,531.496 115.87,531.41C115.237,528.037 114.173,524.85 112.68,521.85L116.95,517.59C117.007,517.532 117.084,517.498 117.166,517.498C117.33,517.498 117.466,517.634 117.466,517.798C117.466,517.84 117.457,517.882 117.44,517.92C115.527,522.793 115.433,527.86 117.16,533.12C117.221,533.304 117.394,533.428 117.587,533.428C117.736,533.428 117.876,533.354 117.96,533.23C118.233,532.817 118.437,532.603 118.57,532.59C118.604,532.587 118.638,532.588 118.672,532.593C118.9,532.626 119.061,532.836 119.029,533.059C119.024,533.094 119.014,533.128 119,533.16C118.327,534.76 118.133,536.547 118.42,538.52Z" style="fill:rgb(253,253,253);fill-rule:nonzero;"/>
        <path d="M182.3,522.05L181.72,522C181.98,521.653 182.24,521.43 182.5,521.33C182.529,521.319 182.559,521.314 182.59,521.314C182.733,521.314 182.85,521.431 182.85,521.574C182.85,521.635 182.829,521.693 182.79,521.74C182.677,521.86 182.513,521.963 182.3,522.05Z" style="fill:rgb(122,127,112);fill-rule:nonzero;"/>
        <g transform="matrix(0.830012,-0.557745,0.557745,0.830012,216.54,524.26)">
            <ellipse cx="0" cy="0" rx="1.83" ry="0.45" style="fill:white;fill-opacity:0.56;"/>
        </g>
        <path d="M217.09,561.34C217.09,559.28 218.22,556.91 217.65,554.73C217.89,552.837 218.3,551.55 218.88,550.87C219.4,550.263 219.977,550.047 220.61,550.22C220.615,550.221 220.619,550.223 220.624,550.224C221.197,550.374 221.807,549.969 221.976,549.327C221.977,549.322 221.979,549.316 221.98,549.31C222.467,547.337 222.793,545.9 222.96,545C223.21,543.61 225.04,543.42 225.88,544.36C225.954,544.445 226.061,544.493 226.173,544.493C226.312,544.493 226.44,544.419 226.51,544.3C226.877,543.653 227.237,541.903 227.59,539.05C227.73,537.917 228.437,537.413 229.71,537.54C230.035,537.575 230.334,537.344 230.38,537.02L231.89,527.14C232.39,526.32 233.42,526.27 234.98,526.99C235.421,527.191 235.705,527.633 235.705,528.118C235.705,528.36 235.633,528.598 235.5,528.8C234.26,530.68 233.757,532.623 233.99,534.63C234.042,535.128 233.963,535.628 233.76,536.08L231.35,541.34C231.317,541.4 231.293,541.464 231.28,541.53L230.35,546.08C230.265,546.484 229.945,546.8 229.54,546.88L227.7,547.23C227.437,547.275 227.198,547.421 227.03,547.64C225.843,549.173 225.033,550.68 224.6,552.16C224.387,552.887 223.963,553.45 223.33,553.85C220.55,555.583 218.47,558.08 217.09,561.34Z" style="fill:rgb(47,47,45);fill-rule:nonzero;"/>
        <path d="M189.71,540.53C185.07,541.023 179.857,541.643 174.07,542.39C172.5,542.59 170.98,542.46 170.87,540.7C170.803,539.587 171.593,538.575 172.72,538.33C176.107,537.59 181.61,536.817 189.23,536.01C196.857,535.21 202.403,534.817 205.87,534.83C207.025,534.837 208.007,535.666 208.17,536.77C208.43,538.51 206.97,538.96 205.39,539.08C199.577,539.56 194.35,540.043 189.71,540.53Z" style="fill:rgb(47,47,45);fill-rule:nonzero;"/>
        <path d="M121.26,546.82C120.68,546.587 120.32,546.047 120.18,545.2C120.78,545.007 121.14,545.547 121.26,546.82Z" style="fill:rgb(122,127,112);fill-rule:nonzero;"/>
        <path d="M123.07,551.14C122.137,549.853 121.597,548.607 121.45,547.4C123.09,547.28 123.63,548.527 123.07,551.14Z" style="fill:rgb(253,253,253);fill-rule:nonzero;"/>
        <path d="M141.87,558.58L141.7,558.56C141.293,558.505 141.19,556.198 141.47,553.44L141.52,552.9C141.801,550.136 142.369,547.898 142.778,547.94C142.778,547.94 142.779,547.94 142.78,547.94L142.95,547.95L141.87,558.58Z" style="fill:white;fill-opacity:0.56;fill-rule:nonzero;"/>
        <path d="M127.56,557.53C125.673,556.317 124.34,554.62 123.56,552.44C125.247,552.747 126.583,551.563 127.57,548.89C127.603,548.813 127.679,548.763 127.763,548.763C127.851,548.763 127.93,548.818 127.96,548.9C128.013,549.073 127.997,549.32 127.91,549.64C127.177,552.347 127.06,554.977 127.56,557.53Z" style="fill:rgb(253,253,253);fill-rule:nonzero;"/>
        <path d="M137.5,564.79L133.53,561.01L137.56,554.48C137.593,554.426 137.651,554.394 137.714,554.394C137.812,554.394 137.894,554.475 137.894,554.574C137.894,554.586 137.892,554.598 137.89,554.61C137.257,557.857 137.127,561.25 137.5,564.79Z" style="fill:rgb(253,253,253);fill-rule:nonzero;"/>
        <path d="M195.7,574.79L195.57,577.02C194.163,578.027 192.403,578.213 190.29,577.58C190.723,576.807 190.793,575.883 190.5,574.81C190.493,574.784 190.482,574.759 190.468,574.736C190.384,574.594 190.202,574.545 190.065,574.626C190.041,574.641 190.019,574.659 190,574.68C188.847,575.867 188.077,577.133 187.69,578.48C187.217,578.853 186.5,579.037 185.54,579.03C185.667,578.81 185.69,578.667 185.61,578.6C185.437,578.473 185.25,578.453 185.05,578.54C184.777,578.673 184.693,578.85 184.8,579.07C184.153,579.403 183.637,579.383 183.25,579.01C182.677,577.777 182.45,576.79 182.57,576.05C182.797,574.683 182.897,573.37 182.87,572.11C182.868,571.996 182.774,571.903 182.66,571.903C182.593,571.903 182.529,571.936 182.49,571.99C182.483,572.003 181.943,573.037 180.87,575.09C179.917,576.917 178.537,578.137 176.73,578.75C175.183,577.917 173.347,577.66 171.22,577.98L172.46,573.89C172.47,573.858 172.472,573.824 172.465,573.791C172.442,573.684 172.331,573.615 172.218,573.639C172.186,573.646 172.156,573.66 172.13,573.68C171.123,574.527 170.233,575.613 169.46,576.94L159.56,575C159.593,574.453 159.32,573.96 158.74,573.52C158.482,573.33 158.347,573.011 158.39,572.69C158.637,570.857 158.643,569.5 158.41,568.62C158.382,568.486 158.263,568.389 158.126,568.389C158,568.389 157.888,568.47 157.85,568.59L156.6,571.91C156.417,572.397 155.933,572.71 155.41,572.68L153.05,572.55C152.54,572.523 152.139,572.095 152.15,571.59C152.177,568.99 152.577,566.037 153.35,562.73C153.436,562.378 153.483,562.019 153.49,561.66L153.73,554.75C153.741,554.423 154.008,554.16 154.33,554.16C159.86,554.14 157.41,562.53 156.82,565.41C156.819,565.419 156.818,565.429 156.818,565.438C156.818,565.548 156.908,565.638 157.018,565.638C157.089,565.638 157.154,565.601 157.19,565.54L160.46,559.19C160.713,558.698 161.222,558.387 161.776,558.387C162.361,558.387 162.894,558.735 163.13,559.27C164.59,562.51 162.55,567.65 161.78,570.97C161.756,571.067 161.765,571.169 161.804,571.261C161.902,571.488 162.165,571.595 162.387,571.5C162.479,571.46 162.554,571.39 162.6,571.3C164.7,567.67 166.81,563.46 168.29,562.27C168.576,562.051 168.926,561.932 169.287,561.932C170.186,561.932 170.927,562.673 170.927,563.572C170.927,563.78 170.887,563.987 170.81,564.18L166.96,573.69C166.935,573.749 166.922,573.812 166.922,573.876C166.922,574.134 167.134,574.346 167.392,574.346C167.53,574.346 167.661,574.285 167.75,574.18C171.023,570.56 173.393,566.367 174.86,561.6C174.888,561.51 174.923,561.422 174.965,561.337C175.353,560.556 176.254,560.202 176.962,560.553C177.039,560.592 177.112,560.637 177.18,560.69C177.58,560.997 177.777,561.71 177.77,562.83C177.73,567.13 176.93,571.557 175.37,576.11C175.362,576.135 175.357,576.161 175.357,576.187C175.357,576.319 175.466,576.427 175.597,576.427C175.673,576.427 175.745,576.391 175.79,576.33C178.63,572.383 180.927,568.09 182.68,563.45C182.973,562.67 183.443,561.863 184.09,561.03C184.412,560.619 184.906,560.379 185.428,560.379C185.941,560.379 186.427,560.611 186.75,561.01C187.403,561.823 187.623,562.87 187.41,564.15C186.59,568.997 186.08,572.413 185.88,574.4C185.879,574.411 185.878,574.422 185.878,574.433C185.878,574.614 186.027,574.763 186.208,574.763C186.317,574.763 186.418,574.709 186.48,574.62C188.773,571.173 190.607,567.243 191.98,562.83C192.099,562.439 192.278,562.071 192.51,561.74L193.18,560.77C193.458,560.37 193.916,560.132 194.403,560.132C195.22,560.132 195.893,560.804 195.893,561.622C195.893,561.651 195.892,561.681 195.89,561.71C195.703,565.09 195.273,568.227 194.6,571.12C194.56,571.28 194.6,572.08 194.72,573.52C194.787,574.287 195.113,574.71 195.7,574.79Z" style="fill:rgb(47,47,45);fill-rule:nonzero;"/>
        <path d="M217.65,554.73C218.22,556.91 217.09,559.28 217.09,561.34C216.397,562.307 215.807,562.597 215.32,562.21C215.202,562.117 215.141,561.965 215.16,561.81L216.2,554.43C216.833,555.25 217.317,555.35 217.65,554.73Z" style="fill:rgb(122,127,112);fill-rule:nonzero;"/>
        <path d="M211.99,562.91C212.217,563.737 212.047,564.42 211.48,564.96C211.306,565.115 211.189,565.327 211.15,565.56L210.91,567.02C210.871,567.287 210.749,567.538 210.56,567.74C208.593,569.833 206.283,571.243 203.63,571.97C205.637,567.683 207.303,563.483 208.63,559.37C208.75,559.017 208.94,558.787 209.2,558.68C209.276,558.649 209.355,558.623 209.435,558.604C210.193,558.427 210.953,558.86 211.119,559.565C211.136,559.639 211.147,559.714 211.15,559.79C211.203,561.05 211.127,562.3 210.92,563.54C210.918,563.555 210.916,563.571 210.916,563.587C210.916,563.757 211.056,563.897 211.226,563.897C211.334,563.897 211.434,563.841 211.49,563.75L211.99,562.91Z" style="fill:rgb(47,47,45);fill-rule:nonzero;"/>
        <path d="M201.31,573.88C200.77,574.447 199.877,574.72 198.63,574.7C198.67,574.34 198.59,574.097 198.39,573.97C198.217,573.857 197.973,573.897 197.66,574.09C197.007,574.503 196.353,574.737 195.7,574.79C195.773,573.037 196.18,571.333 196.92,569.68C198.127,566.987 199.623,563.637 201.41,559.63C201.623,559.15 201.947,558.89 202.38,558.85C202.431,558.846 202.483,558.844 202.534,558.844C203.538,558.844 204.364,559.67 204.364,560.674C204.364,560.749 204.359,560.825 204.35,560.9C203.837,565.133 202.823,569.46 201.31,573.88Z" style="fill:rgb(47,47,45);fill-rule:nonzero;"/>
        <path d="M159.02,578.67C159.194,578.698 159.323,578.849 159.323,579.025C159.323,579.143 159.266,579.253 159.17,579.32C156.317,581.333 153.983,583.707 152.17,586.44C151.799,586.989 151.529,587.595 151.37,588.23C150.08,593.23 149.58,597.67 143.42,598.41C140.81,598.73 139.51,595.74 139.1,593.66C137.91,587.67 137.57,582.83 132.1,578.24C127.63,574.49 115.16,566.09 123.77,559.61C123.847,559.553 123.941,559.522 124.037,559.522C124.238,559.522 124.415,559.657 124.47,559.85L124.73,560.84C124.8,561.088 124.971,561.295 125.2,561.41C129.82,563.73 134.277,567.31 138.57,572.15C138.977,572.61 140.753,573.907 143.9,576.04C144.078,576.159 144.279,576.237 144.49,576.27L159.02,578.67Z" style="fill:rgb(253,253,253);fill-rule:nonzero;"/>
        <path d="M160.51,682.43L86.9,682.29C88.073,670.563 89.95,658.577 92.53,646.33C92.627,645.883 93.039,645.569 93.5,645.59L97.89,645.83C98.795,645.881 99.607,645.244 99.78,644.35C102.253,631.53 105.713,619.367 110.16,607.86C110.179,607.81 110.195,607.759 110.206,607.706C110.324,607.154 109.963,606.601 109.405,606.481C109.354,606.47 109.302,606.463 109.25,606.46L108.93,606.44C108.3,606.404 107.701,606.73 107.39,607.28C102.09,616.62 98.9,630.25 96.75,641.3C96.655,641.799 96.191,642.15 95.68,642.11C83.94,641.237 72.727,638.383 62.04,633.55C61.614,633.36 61.403,632.865 61.56,632.42C65.993,619.78 70.957,608.227 76.45,597.76C80.09,590.84 86.06,584.09 93.18,577.36C101.93,569.09 107.38,564.19 117.62,560.32C117.654,560.306 117.69,560.298 117.726,560.298C117.874,560.298 117.996,560.42 117.996,560.568C117.996,560.6 117.991,560.631 117.98,560.66C116.753,564.367 117.193,567.823 119.3,571.03C120.64,573.083 122.44,575.007 124.7,576.8C128.87,580.12 133.95,583.38 134.67,590.23C135.19,595.08 136.67,602.64 143.12,602.05C147.753,601.637 151.14,599.47 153.28,595.55C153.366,595.391 153.43,595.223 153.47,595.05L154.92,589.25C154.943,589.156 154.987,589.069 155.049,588.996C155.27,588.738 155.668,588.709 155.931,588.934C156.004,588.996 156.061,589.073 156.1,589.16C157.427,592.3 158.383,595.837 158.97,599.77C159.223,601.43 160.263,608.573 162.09,621.2C162.943,627.08 164.653,633.68 167.22,641C167.43,641.603 167.124,642.274 166.53,642.51L158.94,645.56C158.899,645.577 158.857,645.59 158.814,645.6C158.392,645.695 157.964,645.421 157.868,644.993C157.859,644.952 157.853,644.911 157.85,644.87C157.27,635.263 157.37,625.553 158.15,615.74C158.156,615.659 158.152,615.578 158.14,615.498C158.049,614.912 157.497,614.505 156.917,614.594C156.836,614.607 156.756,614.629 156.68,614.66L156.21,614.85C155.447,615.157 154.909,615.86 154.81,616.68C153.803,625.053 153.483,632.74 153.85,639.74C154.61,654.527 156.83,668.757 160.51,682.43Z" style="fill:rgb(249,211,142);fill-rule:nonzero;"/>
        <path d="M183.25,579.01L176.73,578.75C178.537,578.137 179.917,576.917 180.87,575.09C181.943,573.037 182.483,572.003 182.49,571.99C182.529,571.936 182.593,571.903 182.66,571.903C182.774,571.903 182.868,571.996 182.87,572.11C182.897,573.37 182.797,574.683 182.57,576.05C182.45,576.79 182.677,577.777 183.25,579.01Z" style="fill:white;fill-opacity:0.56;fill-rule:nonzero;"/>
        <path d="M171.22,577.98C170.333,577.833 169.747,577.487 169.46,576.94C170.233,575.613 171.123,574.527 172.13,573.68C172.156,573.66 172.186,573.646 172.218,573.639C172.331,573.615 172.442,573.684 172.465,573.791C172.472,573.824 172.47,573.858 172.46,573.89L171.22,577.98Z" style="fill:rgb(253,253,253);fill-rule:nonzero;"/>
        <path d="M198.63,574.7C197.89,575.84 196.87,576.613 195.57,577.02L195.7,574.79C196.353,574.737 197.007,574.503 197.66,574.09C197.973,573.897 198.217,573.857 198.39,573.97C198.59,574.097 198.67,574.34 198.63,574.7Z" style="fill:rgb(253,253,253);fill-rule:nonzero;"/>
        <path d="M190.29,577.58C189.537,578.04 188.67,578.34 187.69,578.48C188.077,577.133 188.847,575.867 190,574.68C190.019,574.659 190.041,574.641 190.065,574.626C190.202,574.545 190.384,574.594 190.468,574.736C190.482,574.759 190.493,574.784 190.5,574.81C190.793,575.883 190.723,576.807 190.29,577.58Z" style="fill:rgb(253,253,253);fill-rule:nonzero;"/>
        <path d="M185.54,579.03L184.8,579.07C184.693,578.85 184.777,578.673 185.05,578.54C185.25,578.453 185.437,578.473 185.61,578.6C185.69,578.667 185.667,578.81 185.54,579.03Z" style="fill:rgb(122,127,112);fill-rule:nonzero;"/>
        <path d="M83.22,682.27L58.82,682.27C59.833,672.123 61.49,662.28 63.79,652.74C64.73,648.813 65.64,644.517 66.52,639.85C66.557,639.663 66.722,639.528 66.912,639.528C66.967,639.528 67.02,639.539 67.07,639.56C74.03,642.473 81.277,644.243 88.81,644.87C89.02,644.889 89.183,645.067 89.183,645.278C89.183,645.313 89.179,645.347 89.17,645.38C86.183,657.427 84.2,669.723 83.22,682.27Z" style="fill:rgb(253,253,253);fill-rule:nonzero;"/>
        <path d="M173.95,682.24L164.14,682.39C161.653,671.483 159.74,660.753 158.4,650.2C158.377,650.012 158.484,649.831 158.66,649.76L164.04,647.6C164.049,647.596 164.057,647.593 164.066,647.591C164.209,647.549 164.361,647.637 164.404,647.784C164.406,647.793 164.408,647.801 164.41,647.81C166.37,659.62 169.96,670.87 173.95,682.24Z" style="fill:rgb(253,253,253);fill-rule:nonzero;"/>
    </g>
</svg>
