<?xml version="1.0" encoding="UTF-8" standalone="no"?>
<!DOCTYPE svg PUBLIC "-//W3C//DTD SVG 1.1//EN" "http://www.w3.org/Graphics/SVG/1.1/DTD/svg11.dtd">
<svg width="100%" height="100%" viewBox="0 0 234 324" version="1.1" xmlns="http://www.w3.org/2000/svg" xmlns:xlink="http://www.w3.org/1999/xlink" xml:space="preserve" xmlns:serif="http://www.serif.com/" style="fill-rule:evenodd;clip-rule:evenodd;stroke-linejoin:round;stroke-miterlimit:2;">
    <g transform="matrix(1,0,0,1,-393.492,-700.697)">
        <path d="M503.2,1024L499.36,1024C496.067,1012.69 493.577,1001.24 491.89,989.64C491.844,989.318 491.56,989.082 491.24,989.1C490.733,989.127 489.917,989.2 488.79,989.32C485.42,989.68 484.41,985.74 484.21,982.97C483.657,975.203 483.463,968.46 483.63,962.74C483.643,962.14 483.657,961.523 483.67,960.89C483.67,960.863 483.647,960.84 483.62,960.84L483.36,960.83C483.225,960.819 483.1,960.918 483.07,961.06C481.717,968.48 480.983,975.213 480.87,981.26C480.657,992.46 480.843,1004.54 481.43,1017.5C481.53,1019.71 481.79,1021.87 482.21,1024L478.47,1024C477.97,1020.13 477.603,1014.71 477.37,1007.75C476.74,988.82 476.19,973.22 480.9,956.42C482.63,950.24 486.23,945.68 490.84,938.09C491.287,937.357 491.843,936.107 492.51,934.34C492.606,934.085 492.482,933.795 492.23,933.68L492.22,933.67C492.002,933.571 491.742,933.654 491.63,933.86C489.63,937.433 486.81,939.883 483.17,941.21C476.84,943.5 478.21,933.65 478.22,930.27C478.23,926.79 477.75,925.58 475.65,923.06C469.96,916.26 462.26,912.24 453.89,910.17C451.91,909.68 449.53,909.69 447.98,910.74C444.42,913.16 440.223,915.953 435.39,919.12C433.537,920.327 430.967,922.893 427.68,926.82C426.635,928.071 425.491,929.242 424.26,930.32C418.76,935.15 414.67,939.53 411.33,945.6C408.543,950.673 406.377,955.32 404.83,959.54C404.811,959.591 404.802,959.645 404.802,959.699C404.802,959.902 404.936,960.082 405.13,960.14L433.13,968.66C433.787,968.862 434.497,968.513 434.74,967.87C437.3,961.037 439.847,954.96 442.38,949.64C444.427,945.327 447.663,941.857 452.09,939.23C452.397,939.05 452.747,938.954 453.103,938.954C453.961,938.954 454.728,939.506 455,940.32L455.05,940.49C455.51,941.881 454.984,943.418 453.77,944.23C450.857,946.177 448.893,947.9 447.88,949.4C445.14,953.447 442.343,959.387 439.49,967.22C438.643,969.533 437.287,971.303 435.42,972.53C435.047,972.779 434.75,973.121 434.56,973.52C429.58,984.073 426.097,994.26 424.11,1004.08C423.083,1009.14 422.077,1015.78 421.09,1024L417.29,1024C418.01,1018.23 418.743,1012.46 419.49,1006.7C421.11,994.28 425.17,983.71 430.05,972.32C430.078,972.255 430.093,972.184 430.093,972.113C430.093,971.89 429.951,971.691 429.74,971.62L409.5,964.91C409.209,964.811 408.889,964.969 408.79,965.26C406.71,971.44 404.533,978.513 402.26,986.48C398.54,999.5 399.45,1009.23 400.71,1024L397.6,1024L397.02,1020.49C397.002,1020.42 396.938,1020.37 396.865,1020.37C396.792,1020.37 396.728,1020.42 396.71,1020.49L396.26,1024L393.51,1024C393.357,1019.99 394.173,1016.13 395.96,1012.41C396.117,1012.07 396.183,1011.7 396.15,1011.33C395.397,1003.16 396.12,994.913 398.32,986.58C400.227,979.36 402.46,971.927 405.02,964.28C405.058,964.167 405.077,964.049 405.077,963.931C405.077,963.381 404.665,962.911 404.12,962.84C401.78,962.54 401.013,961.203 401.82,958.83C404.567,950.743 408.223,943.607 412.79,937.42C416.72,932.09 422.29,928.54 426.65,923.06C428.537,920.7 429.913,919.187 430.78,918.52C435.493,914.92 440.677,911.32 446.33,907.72C447.292,907.107 448.377,906.711 449.51,906.56L453.42,906.04C453.559,906.02 453.691,905.976 453.81,905.91L462.86,900.83C463.039,900.726 463.149,900.535 463.149,900.328C463.149,900.219 463.118,900.112 463.06,900.02L460.75,896.31C460.637,896.13 460.54,895.943 460.46,895.75C458.64,891.383 457.03,886.69 455.63,881.67C454.11,876.23 453.177,872.993 452.83,871.96C452.323,870.46 451.493,869.647 450.34,869.52C450.049,869.49 449.809,869.271 449.75,868.98L449.23,866.24C449.206,866.102 449.085,866.001 448.944,866.001C448.852,866.001 448.765,866.045 448.71,866.12C447.983,867.08 447.377,867.563 446.89,867.57C446.796,867.571 446.703,867.566 446.61,867.554C445.381,867.392 444.524,866.081 444.713,864.651C444.726,864.546 444.746,864.442 444.77,864.34C444.957,863.587 445.087,862.967 445.16,862.48C445.164,862.455 445.167,862.43 445.167,862.404C445.167,862.163 444.968,861.964 444.727,861.964C444.687,861.964 444.648,861.97 444.61,861.98C443.603,862.273 442.69,862.363 441.87,862.25C441.253,862.163 440.806,861.597 440.86,860.97C441.073,858.703 441.687,856.743 442.7,855.09C443.088,854.464 442.91,853.632 442.3,853.22C440.993,852.347 437.183,849.533 430.87,844.78C421.51,837.73 415,824.19 421.88,813.13C422.051,812.857 422.091,812.523 421.99,812.22C421.103,809.62 420.093,805.657 418.96,800.33C417.46,793.31 417.54,786.713 419.2,780.54C419.209,780.509 419.213,780.478 419.213,780.446C419.213,780.259 419.06,780.106 418.873,780.106C418.855,780.106 418.838,780.107 418.82,780.11C418.8,780.11 418.42,780.35 417.68,780.83C414.74,782.74 412.91,780.18 413.47,777.39C414.88,770.34 419.11,763.16 423.39,757.17C423.439,757.096 423.466,757.009 423.466,756.92C423.466,756.674 423.262,756.47 423.016,756.47C422.924,756.47 422.835,756.498 422.76,756.55C420.13,758.48 417.47,761.12 414.84,760.76C414.812,760.756 414.784,760.752 414.756,760.746C413.861,760.574 413.282,759.621 413.472,758.635C413.477,758.607 413.483,758.578 413.49,758.55C415.26,751.16 429.58,743.8 436.15,740.89C436.343,740.803 436.467,740.61 436.467,740.398C436.467,740.144 436.288,739.923 436.04,739.87C433.047,739.243 430.303,738.787 427.81,738.5C426.643,738.367 425.783,737.887 425.23,737.06C424.754,736.357 424.983,735.336 425.75,734.75C428.81,732.38 434.44,733.03 438.09,733.58C438.134,733.587 438.179,733.589 438.223,733.584C438.507,733.556 438.717,733.294 438.688,733.005C438.684,732.962 438.674,732.92 438.66,732.88C437.54,729.86 436.75,724.53 439.59,722.22C439.888,721.976 440.262,721.843 440.647,721.843C441.248,721.843 441.804,722.167 442.1,722.69C443.44,725.09 444.45,728.243 445.13,732.15C445.177,732.44 445.429,732.655 445.722,732.655C445.958,732.655 446.174,732.515 446.27,732.3C452.51,718.5 465.57,712.63 479.43,709.76C480.239,709.588 481.02,709.298 481.75,708.9C490.9,703.88 500.57,701.84 511.04,702.27C513.893,702.39 517.09,702.46 520.63,702.48C525.62,702.5 530.62,701.37 535.26,700.79C537.173,700.55 538.467,700.773 539.14,701.46C541.77,704.13 539.01,708 536.76,710.19C536.727,710.22 536.702,710.257 536.688,710.299C536.639,710.439 536.719,710.596 536.864,710.646C536.904,710.66 536.948,710.665 536.99,710.66C545.577,709.52 554.25,709.027 563.01,709.18C565.93,709.23 573.94,708.95 574.24,712.98C574.47,716.01 571.08,718.19 568.42,718.96C568.236,719.013 568.108,719.182 568.108,719.373C568.108,719.538 568.202,719.688 568.35,719.76C571.39,721.22 576.077,723.61 582.41,726.93C589.63,730.71 597.41,732.32 604.69,735.55C607.6,736.84 610.82,739.56 609.96,743.24C608.91,747.67 602.9,748.8 599.22,749.54C599.037,749.575 598.903,749.737 598.903,749.923C598.903,750.018 598.938,750.109 599,750.18C602.03,753.68 606.73,759 606.68,763.07C606.662,764.102 605.836,765.027 604.68,765.31C602.8,765.77 601.29,765.27 600.15,763.81C600.074,763.72 599.962,763.667 599.844,763.667C599.624,763.667 599.444,763.848 599.444,764.067C599.444,764.106 599.449,764.143 599.46,764.18C601.873,771.713 601.36,779.15 597.92,786.49C597.907,786.517 597.897,786.545 597.891,786.574C597.845,786.783 597.984,786.993 598.198,787.04C598.225,787.046 598.252,787.05 598.28,787.05C603.48,787.083 606.603,787.267 607.65,787.6C618.01,790.84 624.19,802.3 626.44,812.29C627.5,816.95 627.33,821.41 624,825.46C623.2,826.427 621.967,828.213 620.3,830.82C617.14,835.75 613.43,839.32 608.24,841.48C606.527,842.187 605.32,842.703 604.62,843.03C604.198,843.222 603.906,843.62 603.85,844.08C603.05,850.42 601.57,855.99 596.38,859.66C592.88,862.127 588.587,863.827 583.5,864.76C583.329,864.795 583.205,864.947 583.205,865.122C583.205,865.177 583.217,865.231 583.24,865.28C583.86,866.57 585.12,868.71 583.91,869.61C583.377,870.01 582.387,869.867 580.94,869.18C580.9,869.161 580.855,869.152 580.81,869.154C580.662,869.159 580.545,869.282 580.55,869.424C580.552,869.469 580.566,869.512 580.59,869.55C581.823,871.657 582.247,873.97 581.86,876.49C581.76,877.124 581.208,877.596 580.566,877.596C580.336,877.596 580.109,877.535 579.91,877.42L578.18,876.42C578.124,876.387 578.061,876.369 577.996,876.369C577.798,876.369 577.636,876.532 577.636,876.729C577.636,876.763 577.64,876.797 577.65,876.83C578.19,878.777 578.32,880.45 578.04,881.85C577.78,883.123 576.803,883.583 575.11,883.23C575.095,883.227 575.079,883.226 575.064,883.226C574.894,883.221 574.751,883.353 574.747,883.518C574.746,883.535 574.747,883.553 574.75,883.57C575.15,886.26 575.36,892.16 572.65,893.99C572.435,894.134 572.182,894.21 571.923,894.21C571.204,894.21 570.613,893.619 570.613,892.9C570.613,892.83 570.619,892.76 570.63,892.69L571.1,889.86C571.11,889.803 571.102,889.745 571.077,889.693C571.01,889.555 570.837,889.499 570.694,889.568C570.642,889.593 570.599,889.632 570.57,889.68C569.397,891.78 568.547,893.893 568.02,896.02C567.15,899.59 566.64,904.03 564.37,905.49C564.135,905.643 563.86,905.724 563.58,905.724C562.784,905.724 562.13,905.07 562.13,904.274C562.13,904.263 562.13,904.251 562.13,904.24L562.19,900.9C562.19,900.884 562.176,900.87 562.16,900.87L561.9,900.86C561.771,900.853 561.655,900.943 561.63,901.07C561.21,903.48 560.53,908.35 558.51,909.99C558.399,910.08 558.277,910.157 558.148,910.219C557.278,910.638 556.236,910.303 555.838,909.477C555.779,909.354 555.736,909.224 555.71,909.09C555.677,908.957 555.653,908.48 555.64,907.66C555.63,907.395 555.419,907.18 555.16,907.17L554.78,907.15C554.682,907.143 554.595,907.208 554.58,907.3C553.98,911.2 552.61,914.49 550.47,917.17C549.857,917.937 549.237,918.277 548.61,918.19C548.571,918.185 548.531,918.178 548.493,918.169C547.689,917.994 547.176,917.166 547.357,916.335C547.366,916.293 547.377,916.251 547.39,916.21C547.817,914.803 548.21,913.637 548.57,912.71C548.621,912.581 548.564,912.432 548.44,912.37L548.05,912.16C548.022,912.145 547.99,912.138 547.958,912.138C547.874,912.138 547.798,912.191 547.77,912.27C546.59,915.323 545.32,917.943 543.96,920.13C543.943,920.157 543.926,920.185 543.907,920.211C543.191,921.27 541.723,921.546 540.655,920.823C540.63,920.806 540.605,920.788 540.58,920.77C540.227,920.51 540.173,919.88 540.42,918.88C540.62,918.06 541.043,917.04 541.69,915.82C541.71,915.783 541.72,915.741 541.72,915.699C541.72,915.564 541.615,915.451 541.48,915.44L540.74,915.4C540.735,915.4 540.73,915.405 540.73,915.41C539.343,919.077 537.757,921.683 535.97,923.23C535.057,924.023 534.003,923.993 532.81,923.14C532.524,922.933 532.43,922.545 532.59,922.23L534.35,918.82C534.388,918.754 534.408,918.678 534.408,918.602C534.408,918.36 534.209,918.162 533.968,918.162C533.837,918.162 533.714,918.22 533.63,918.32C533.323,918.667 532.017,920.447 529.71,923.66C528.863,924.833 527.913,925.427 526.86,925.44C526.791,925.441 526.723,925.436 526.655,925.425C525.897,925.301 525.396,924.45 525.545,923.541C525.559,923.459 525.577,923.379 525.6,923.3C525.927,922.18 526.307,921.173 526.74,920.28C526.76,920.241 526.77,920.197 526.77,920.153C526.77,920 526.644,919.873 526.49,919.873C526.47,919.873 526.45,919.876 526.43,919.88L525.96,919.97C525.825,919.996 525.708,920.067 525.63,920.17L522.63,924.08C521.889,925.049 520.555,925.368 519.45,924.84L519.23,924.73C518.735,924.442 518.429,923.911 518.429,923.338C518.429,923.001 518.534,922.673 518.73,922.4C519.51,921.32 519.903,920.757 519.91,920.71C519.918,920.667 519.922,920.624 519.922,920.581C519.922,920.203 519.611,919.891 519.232,919.891C519.032,919.891 518.841,919.978 518.71,920.13L515.11,924.14C514.939,924.33 514.723,924.478 514.48,924.57C512.913,925.17 511.713,924.893 510.88,923.74C510.679,923.461 510.66,923.089 510.83,922.79L512.63,919.68C512.668,919.608 512.689,919.527 512.689,919.445C512.689,919.171 512.463,918.945 512.189,918.945C512.089,918.945 511.992,918.975 511.91,919.03C511.177,919.557 509.847,920.633 507.92,922.26C506.68,923.313 505.693,923.423 504.96,922.59C504.01,921.51 504.61,920.2 505.31,919.23C505.346,919.179 505.365,919.119 505.365,919.057C505.365,918.892 505.23,918.757 505.065,918.757C505.01,918.757 504.957,918.772 504.91,918.8C501.89,920.72 498.973,923.223 496.16,926.31C495.613,926.914 495.409,927.756 495.62,928.54C497.19,934.46 497.27,938.85 497.49,946.64C497.81,957.71 499.8,968.61 502.27,980.22C502.89,983.11 502.66,985 500.21,986.48C498.743,987.36 497.47,987.877 496.39,988.03C495.848,988.104 495.44,988.573 495.44,989.12C495.44,989.17 495.443,989.22 495.45,989.27C497.09,1001.1 499.673,1012.67 503.2,1024ZM501.553,708.314C501.553,708.314 501.553,708.314 501.553,708.314C501.458,707.858 498.251,708.13 494.448,708.918C494.448,708.918 494.448,708.918 494.448,708.918C490.645,709.705 487.593,710.729 487.687,711.186C487.687,711.186 487.687,711.186 487.687,711.186C487.782,711.642 490.989,711.37 494.792,710.582C494.792,710.582 494.792,710.582 494.792,710.582C498.595,709.795 501.647,708.771 501.553,708.314ZM456.72,726.6L470.66,717.44C470.709,717.406 470.722,717.34 470.69,717.29L470.68,717.26C470.68,717.259 470.679,717.258 470.678,717.258C470.347,716.753 466.943,718.395 463.137,720.895C463.135,720.897 463.132,720.898 463.13,720.9L462.88,721.06C459.075,723.56 456.216,726.032 456.547,726.536C456.548,726.537 456.57,726.57 456.57,726.57C456.604,726.619 456.67,726.632 456.72,726.6ZM593.833,736.339C593.833,736.339 593.833,736.339 593.833,736.339C593.71,736.644 595.946,737.835 598.786,738.977C601.626,740.118 604.064,740.807 604.187,740.501C604.187,740.501 604.187,740.501 604.187,740.501C604.31,740.196 602.074,739.005 599.234,737.863C596.394,736.722 593.956,736.033 593.833,736.339ZM492.36,758.2C488.373,760.967 483.367,763.657 477.34,766.27C471,769.03 466.03,771.03 459.8,771.63C459.534,771.655 459.329,771.881 459.329,772.148C459.329,772.24 459.354,772.33 459.4,772.41C462.39,777.41 464.47,784.1 467.37,792.1C468.9,796.32 465.8,799.2 461.69,798.22C461.67,798.215 461.649,798.211 461.628,798.209C461.431,798.194 461.256,798.348 461.24,798.55C461.238,798.57 461.238,798.59 461.24,798.61L461.76,805.36C461.787,805.709 462.09,805.977 462.44,805.96L481.18,805.21C481.971,805.178 482.716,804.824 483.24,804.23L485.05,802.15C485.194,801.979 485.38,801.849 485.59,801.77C487.403,801.09 489.81,799.523 492.81,797.07C498.01,792.837 504.16,790.163 511.26,789.05C525.29,786.86 538.83,787.71 547.48,799.99C547.706,800.311 548.116,800.449 548.49,800.33C553.437,798.737 558.693,798.337 564.26,799.13C564.815,799.207 565.377,799.079 565.84,798.77C574.193,793.283 582.947,789.477 592.1,787.35C592.395,787.283 592.607,787.019 592.607,786.716C592.607,786.642 592.594,786.569 592.57,786.5L591.2,782.5C591.074,782.13 590.772,781.843 590.39,781.73C589.48,781.46 588.79,781.4 587.76,780.85C582.24,777.86 578.72,776.05 573.43,776.1C573.344,776.1 573.258,776.095 573.172,776.084C572.248,775.964 571.574,775.194 571.68,774.378C571.69,774.3 571.707,774.224 571.73,774.15C572.03,773.21 572.8,772.57 573.81,772.47C579.44,771.89 584.17,774 588.76,777.06C588.816,777.1 588.883,777.122 588.952,777.122C589.133,777.122 589.282,776.973 589.282,776.792C589.282,776.743 589.271,776.694 589.25,776.65L580.97,757.99C580.437,756.8 579.633,755.748 578.62,754.92C575.92,752.72 572.523,750.173 568.43,747.28C563.57,743.84 559.09,741.81 553.96,738.34C553.647,738.128 553.227,738.149 552.93,738.39C549.143,741.617 544.567,744.487 539.2,747C535.69,748.65 531.7,751.15 529.15,753.16C528.835,753.407 528.408,753.468 528.03,753.32C525.27,752.2 525.5,749.4 525.63,746.91C525.63,746.906 525.63,746.903 525.63,746.899C525.63,746.685 525.454,746.509 525.24,746.509C525.149,746.509 525.06,746.541 524.99,746.6C516.17,754.32 505.22,763.5 492.57,762.93C491.709,762.892 491.022,762.173 491.022,761.312C491.022,761.113 491.059,760.916 491.13,760.73C491.377,760.083 491.88,759.347 492.64,758.52C492.686,758.48 492.713,758.421 492.713,758.36C492.713,758.243 492.617,758.147 492.5,758.147C492.449,758.147 492.399,758.166 492.36,758.2ZM594.14,790.98C586.687,792.927 579.527,795.94 572.66,800.02C571.986,800.421 571.468,801.038 571.19,801.77L570.46,803.71C570.295,804.156 569.855,804.445 569.38,804.42L566.91,804.28C566.403,804.255 565.919,804.48 565.62,804.88C556.87,816.62 561.93,829.12 573.52,835.95C582.087,840.997 591.243,842.477 600.99,840.39L604.48,839.18C614.25,836.06 618.22,827.46 622.99,821.21C623.221,820.914 623.384,820.565 623.47,820.19C625.31,812.53 619.46,801.38 614.7,795.87C610.12,790.58 603.99,789.8 597.33,790.49C596.21,790.33 595.147,790.493 594.14,790.98ZM546.53,806.15C543.52,809.03 540.21,804.87 543.49,802.53C543.775,802.323 543.943,801.992 543.943,801.64C543.943,801.389 543.857,801.145 543.7,800.95C534.97,790.32 522.42,791.09 509.57,793.8C501.84,795.44 495.76,800.04 490.56,805.52C490.117,805.983 489.596,806.369 489.02,806.66L487.21,807.57C486.866,807.748 486.612,808.064 486.51,808.44C483.723,818.7 486.02,827.267 493.4,834.14C502.793,842.887 514.027,846.793 527.1,845.86C533.83,845.37 540.94,842.86 545.68,838.39C554.58,830 551.44,816.06 547.1,806.26C547.092,806.241 547.082,806.223 547.07,806.205C546.964,806.045 546.741,806.004 546.577,806.113C546.56,806.124 546.545,806.136 546.53,806.15ZM441.67,817.55L442.46,820.77C442.48,820.856 442.49,820.944 442.49,821.03C442.437,823.07 441.183,824.047 438.73,823.96C438.117,822.667 437.613,821.26 437.22,819.74C436.24,815.95 433.25,811.43 428.67,812.71C420.37,815.04 421.61,826.15 424.88,832.15C427.293,836.597 429.91,839.813 432.73,841.8C436.897,844.733 440.973,847.76 444.96,850.88L454.08,862.81L455.9,870.08C455.913,870.12 455.927,870.16 455.94,870.2L459.25,879.79C459.517,882.497 460.22,884.767 461.36,886.6L462.12,888.71L462.8,892.27L466.27,897.38C466.758,898.105 467.392,898.719 468.13,899.18L477.02,904.82C477.953,906.28 478.937,907.113 479.97,907.32C480.077,908.04 480.56,908.64 481.42,909.12C482.26,910.547 483.673,911.287 485.66,911.34C488.133,912.207 490.35,912.637 492.31,912.63C493.537,912.957 494.367,912.933 494.8,912.56C495.753,912.96 496.557,913.173 497.21,913.2L501.8,913.66L502.22,914.11L509.05,915.2C510.17,916.02 511.053,915.8 511.7,914.54C514.07,913.78 514.34,916.17 516.82,916.39C519.373,916.617 521.913,916.673 524.44,916.56C525.44,916.307 526.22,915.977 526.78,915.57L530.83,914.9C532.07,914.887 533.047,914.443 533.76,913.57C533.816,913.498 533.846,913.41 533.846,913.318C533.846,913.093 533.661,912.908 533.436,912.908C533.424,912.908 533.412,912.909 533.4,912.91C532.633,912.99 531.887,913.293 531.16,913.82C530.927,913.307 530.83,912.773 530.87,912.22C531.017,912.133 531.16,912.01 531.3,911.85C533.753,908.31 535.657,904.543 537.01,900.55C537.087,900.318 537.223,900.11 537.405,899.947C537.984,899.425 538.892,899.476 539.417,900.059C539.581,900.241 539.695,900.462 539.75,900.7C539.917,901.42 539.813,902.38 539.44,903.58C538.573,906.36 538.247,909.407 538.46,912.72L545.02,908.85L548.39,906.43C551.557,904.53 553.99,902.86 555.69,901.42C557.79,899.647 559.533,897.27 560.92,894.29L561.73,893.66C562.963,893.82 563.957,893.653 564.71,893.16C564.974,892.987 565.163,892.715 565.24,892.4L566.83,885.78C566.897,885.3 566.913,884.793 566.88,884.26C566.74,882 567.353,879.813 568.72,877.7C568.953,877.34 569.227,877.177 569.54,877.21C569.973,877.257 570.26,877.25 570.4,877.19C570.719,877.045 570.921,876.721 570.91,876.37C570.77,873.557 571.473,871.413 573.02,869.94C573.29,869.684 573.42,869.311 573.37,868.94C573.27,868.16 573.373,867.357 573.68,866.53C573.692,866.495 573.698,866.457 573.698,866.42C573.698,866.233 573.545,866.08 573.358,866.08C573.356,866.08 573.353,866.08 573.35,866.08L568.8,866.27C568.488,866.283 568.197,866.1 568.07,865.81L567.35,864.14C567.657,862.087 569.863,861.53 573.97,862.47C574.39,862.57 575.053,862.403 575.96,861.97C583.58,861.86 595.56,859.54 598.61,851.37C599.397,849.263 600.05,846.953 600.57,844.44C600.574,844.422 600.575,844.404 600.575,844.386C600.575,844.238 600.454,844.116 600.305,844.116C600.29,844.116 600.275,844.117 600.26,844.12C588.673,846.02 578.213,843.94 568.88,837.88C557,830.17 552.43,815.15 561.15,803.23C561.205,803.152 561.234,803.06 561.234,802.965C561.234,802.738 561.065,802.543 560.84,802.51C557.347,802.07 553.917,802.457 550.55,803.67C550.222,803.788 550.002,804.102 550.002,804.451C550.002,804.564 550.025,804.676 550.07,804.78C553.34,812.28 555.3,819.21 554.33,827.42C553.883,831.193 552.94,834.263 551.5,836.63C545.27,846.84 530.87,850.43 519.67,849.54C500.63,848.01 476.46,833.91 480.82,810.94C480.828,810.897 480.833,810.853 480.833,810.809C480.833,810.45 480.548,810.15 480.19,810.13C475.67,809.93 469.53,809.797 461.77,809.73C455.87,809.677 448.043,810.287 438.29,811.56C438.273,811.562 438.256,811.566 438.24,811.57C438.028,811.626 437.898,811.842 437.953,812.049C437.957,812.067 437.963,812.083 437.97,812.1C438.67,813.907 439.903,815.723 441.67,817.55ZM459.7,907.94C468.027,910.553 474.68,915.35 479.66,922.33C482.29,926.01 481.64,932.23 481.63,937.47C481.63,937.471 481.63,937.473 481.63,937.474C481.63,937.781 481.883,938.034 482.19,938.034C482.273,938.034 482.355,938.016 482.43,937.98C485.55,936.47 487.22,934.43 488.89,930.81C491.15,925.917 494.627,921.817 499.32,918.51C499.487,918.39 499.587,918.196 499.587,917.99C499.587,917.681 499.364,917.414 499.06,917.36C493.85,916.55 485.46,917.86 480.18,913.31C474.95,908.8 472.28,906.23 467.54,903.8C466.779,903.408 465.874,903.427 465.14,903.85L459.6,907.05C459.45,907.138 459.358,907.299 459.358,907.473C459.358,907.686 459.497,907.876 459.7,907.94ZM493.93,940.2C493.926,940.061 493.81,939.948 493.67,939.948C493.581,939.948 493.498,939.994 493.45,940.07L487.15,950.91C486.804,951.496 486.67,952.185 486.77,952.86C488.2,963.01 486.46,974.07 487.97,984.83C487.971,984.834 487.971,984.839 487.972,984.843C488.064,985.39 488.584,985.765 489.125,985.674C489.133,985.673 489.142,985.672 489.15,985.67L497.75,984.07C497.764,984.067 497.777,984.065 497.791,984.062C498.656,983.881 499.218,983.017 499.036,982.147C499.034,982.138 499.032,982.129 499.03,982.12C495.71,967.907 494.01,953.933 493.93,940.2Z" style="fill-rule:nonzero;"/>
        <g transform="matrix(0.979223,-0.202787,0.202787,0.979223,494.62,709.75)">
            <ellipse cx="0" cy="0" rx="7.08" ry="0.85" style="fill:rgb(122,127,112);"/>
        </g>
        <path d="M456.72,726.6C456.67,726.632 456.604,726.619 456.57,726.57C456.57,726.57 456.548,726.537 456.547,726.536C456.216,726.032 459.075,723.56 462.88,721.06L463.13,720.9C463.132,720.898 463.135,720.897 463.137,720.895C466.943,718.395 470.347,716.753 470.678,717.258C470.679,717.258 470.68,717.259 470.68,717.26L470.69,717.29C470.722,717.34 470.709,717.406 470.66,717.44L456.72,726.6Z" style="fill:rgb(249,211,142);fill-rule:nonzero;"/>
        <g transform="matrix(-0.927836,-0.372988,0.372988,-0.927836,599.01,738.42)">
            <ellipse cx="0" cy="0" rx="5.58" ry="0.6" style="fill:rgb(122,127,112);"/>
        </g>
        <path d="M492.36,758.2C492.399,758.166 492.449,758.147 492.5,758.147C492.617,758.147 492.713,758.243 492.713,758.36C492.713,758.421 492.686,758.48 492.64,758.52C491.88,759.347 491.377,760.083 491.13,760.73C491.059,760.916 491.022,761.113 491.022,761.312C491.022,762.173 491.709,762.892 492.57,762.93C505.22,763.5 516.17,754.32 524.99,746.6C525.06,746.541 525.149,746.509 525.24,746.509C525.454,746.509 525.63,746.685 525.63,746.899C525.63,746.903 525.63,746.906 525.63,746.91C525.5,749.4 525.27,752.2 528.03,753.32C528.408,753.468 528.835,753.407 529.15,753.16C531.7,751.15 535.69,748.65 539.2,747C544.567,744.487 549.143,741.617 552.93,738.39C553.227,738.149 553.647,738.128 553.96,738.34C559.09,741.81 563.57,743.84 568.43,747.28C572.523,750.173 575.92,752.72 578.62,754.92C579.633,755.748 580.437,756.8 580.97,757.99L589.25,776.65C589.271,776.694 589.282,776.743 589.282,776.792C589.282,776.973 589.133,777.122 588.952,777.122C588.883,777.122 588.816,777.1 588.76,777.06C584.17,774 579.44,771.89 573.81,772.47C572.8,772.57 572.03,773.21 571.73,774.15C571.707,774.224 571.69,774.3 571.68,774.378C571.574,775.194 572.248,775.964 573.172,776.084C573.258,776.095 573.344,776.1 573.43,776.1C578.72,776.05 582.24,777.86 587.76,780.85C588.79,781.4 589.48,781.46 590.39,781.73C590.772,781.843 591.074,782.13 591.2,782.5L592.57,786.5C592.594,786.569 592.607,786.642 592.607,786.716C592.607,787.019 592.395,787.283 592.1,787.35C582.947,789.477 574.193,793.283 565.84,798.77C565.377,799.079 564.815,799.207 564.26,799.13C558.693,798.337 553.437,798.737 548.49,800.33C548.116,800.449 547.706,800.311 547.48,799.99C538.83,787.71 525.29,786.86 511.26,789.05C504.16,790.163 498.01,792.837 492.81,797.07C489.81,799.523 487.403,801.09 485.59,801.77C485.38,801.849 485.194,801.979 485.05,802.15L483.24,804.23C482.716,804.824 481.971,805.178 481.18,805.21L462.44,805.96C462.09,805.977 461.787,805.709 461.76,805.36L461.24,798.61C461.238,798.59 461.238,798.57 461.24,798.55C461.256,798.348 461.431,798.194 461.628,798.209C461.649,798.211 461.67,798.215 461.69,798.22C465.8,799.2 468.9,796.32 467.37,792.1C464.47,784.1 462.39,777.41 459.4,772.41C459.354,772.33 459.329,772.24 459.329,772.148C459.329,771.881 459.534,771.655 459.8,771.63C466.03,771.03 471,769.03 477.34,766.27C483.367,763.657 488.373,760.967 492.36,758.2ZM494.5,783.69C494.967,783.77 495.35,783.677 495.65,783.41C500.477,779.063 505.777,776.12 511.55,774.58C511.93,774.473 513.513,774.29 516.3,774.03C517.133,773.957 517.61,773.55 517.73,772.81C517.931,771.607 517.251,770.464 516.19,770.22C515.15,769.98 513.827,769.98 512.22,770.22C505.13,771.28 497.6,775.41 493.5,781.65C493.449,781.727 493.407,781.809 493.375,781.894C493.121,782.566 493.503,783.343 494.221,783.615C494.312,783.649 494.405,783.674 494.5,783.69Z" style="fill:rgb(253,253,253);fill-rule:nonzero;"/>
        <path d="M494.5,783.69C494.405,783.674 494.312,783.649 494.221,783.615C493.503,783.343 493.121,782.566 493.375,781.894C493.407,781.809 493.449,781.727 493.5,781.65C497.6,775.41 505.13,771.28 512.22,770.22C513.827,769.98 515.15,769.98 516.19,770.22C517.251,770.464 517.931,771.607 517.73,772.81C517.61,773.55 517.133,773.957 516.3,774.03C513.513,774.29 511.93,774.473 511.55,774.58C505.777,776.12 500.477,779.063 495.65,783.41C495.35,783.677 494.967,783.77 494.5,783.69Z" style="fill-rule:nonzero;"/>
        <path d="M597.33,790.49C599.403,795.763 601.29,801.097 602.99,806.49C604.637,811.723 605.39,815.477 605.25,817.75C604.837,824.777 604.58,831.92 604.48,839.18L600.99,840.39C601.243,832.67 601.477,825.03 601.69,817.47C601.75,815.23 601.627,813.563 601.32,812.47C599.747,806.923 597.353,799.76 594.14,790.98C595.147,790.493 596.21,790.33 597.33,790.49Z" style="fill:rgb(122,127,112);fill-rule:nonzero;"/>
        <path d="M604.48,839.18C604.58,831.92 604.837,824.777 605.25,817.75C605.39,815.477 604.637,811.723 602.99,806.49C601.29,801.097 599.403,795.763 597.33,790.49C603.99,789.8 610.12,790.58 614.7,795.87C619.46,801.38 625.31,812.53 623.47,820.19C623.384,820.565 623.221,820.914 622.99,821.21C618.22,827.46 614.25,836.06 604.48,839.18Z" style="fill:white;fill-opacity:0.56;fill-rule:nonzero;"/>
        <path d="M594.14,790.98C597.353,799.76 599.747,806.923 601.32,812.47C601.627,813.563 601.75,815.23 601.69,817.47C601.477,825.03 601.243,832.67 600.99,840.39C591.243,842.477 582.087,840.997 573.52,835.95C561.93,829.12 556.87,816.62 565.62,804.88C565.919,804.48 566.403,804.255 566.91,804.28L569.38,804.42C569.855,804.445 570.295,804.156 570.46,803.71L571.19,801.77C571.468,801.038 571.986,800.421 572.66,800.02C579.527,795.94 586.687,792.927 594.14,790.98ZM585.561,806.77C582.177,806.794 579.418,810.61 579.45,815.223C579.482,819.837 582.294,823.613 585.679,823.59C589.063,823.566 591.822,819.75 591.79,815.137C591.758,810.523 588.946,806.747 585.561,806.77Z" style="fill:rgb(253,253,253);fill-rule:nonzero;"/>
        <path d="M546.53,806.15C546.545,806.136 546.56,806.124 546.577,806.113C546.741,806.004 546.964,806.045 547.07,806.205C547.082,806.223 547.092,806.241 547.1,806.26C551.44,816.06 554.58,830 545.68,838.39C540.94,842.86 533.83,845.37 527.1,845.86C514.027,846.793 502.793,842.887 493.4,834.14C486.02,827.267 483.723,818.7 486.51,808.44C486.612,808.064 486.866,807.748 487.21,807.57L489.02,806.66C489.596,806.369 490.117,805.983 490.56,805.52C495.76,800.04 501.84,795.44 509.57,793.8C522.42,791.09 534.97,790.32 543.7,800.95C543.857,801.145 543.943,801.389 543.943,801.64C543.943,801.992 543.775,802.323 543.49,802.53C540.21,804.87 543.52,809.03 546.53,806.15ZM513.189,808.621C509.53,808.679 506.583,812.788 506.661,817.725C506.661,817.725 506.661,817.725 506.661,817.725C506.738,822.661 509.813,826.676 513.471,826.619C513.471,826.619 513.471,826.619 513.471,826.619C517.13,826.561 520.077,822.452 519.999,817.515C519.999,817.515 519.999,817.515 519.999,817.515C519.922,812.579 516.847,808.564 513.189,808.621C513.189,808.621 513.189,808.621 513.189,808.621Z" style="fill:rgb(253,253,253);fill-rule:nonzero;"/>
        <path d="M575.96,861.97C571.76,862.263 567.88,861.743 564.32,860.41C563.908,860.254 563.661,859.83 563.73,859.4C564.143,856.96 563.533,855.657 561.9,855.49C558.647,855.15 556.117,855.823 554.31,857.51C554.051,857.755 553.675,857.833 553.34,857.71L551.91,857.17C551.529,857.024 551.097,857.101 550.79,857.37C550.063,858.017 548.473,858.633 546.02,859.22C546.015,859.221 546.01,859.221 546.005,859.221C545.939,859.221 545.885,859.167 545.885,859.101C545.885,859.06 545.906,859.022 545.94,859C547.107,858.387 547.643,857.787 547.55,857.2C547.538,857.122 547.518,857.046 547.492,856.972C547.205,856.178 546.163,855.814 545.182,856.167C545.092,856.199 545.005,856.237 544.92,856.28C543.267,857.107 541.907,857.637 540.84,857.87C540.827,857.873 540.813,857.875 540.799,857.875C540.701,857.875 540.619,857.793 540.619,857.695C540.619,857.643 540.642,857.594 540.68,857.56C541.827,856.527 542.2,855.803 541.8,855.39C541.26,854.843 540.567,854.677 539.72,854.89C537.047,855.57 534.367,856.64 531.68,858.1C531.639,858.119 531.595,858.129 531.55,858.129C531.38,858.129 531.24,857.989 531.24,857.819C531.24,857.737 531.272,857.658 531.33,857.6C531.863,857.14 532.35,856.487 532.79,855.64C532.954,855.334 532.863,854.952 532.58,854.76C531.513,854.04 530.443,853.853 529.37,854.2C525.903,855.34 524.153,855.917 524.12,855.93C524.094,855.94 524.066,855.948 524.038,855.952C523.811,855.991 523.593,855.841 523.555,855.619C523.55,855.59 523.548,855.56 523.55,855.53L523.62,854.08C523.633,853.756 523.412,853.467 523.1,853.4C521.86,853.127 520.573,853.073 519.24,853.24C515.867,853.667 514.023,853.947 513.71,854.08C513.668,854.098 513.623,854.108 513.578,854.108C513.397,854.108 513.248,853.959 513.248,853.778C513.248,853.765 513.249,853.752 513.25,853.74L513.41,852.46C513.41,852.46 513.41,852.459 513.41,852.459C513.456,852.083 513.19,851.737 512.819,851.691C512.816,851.691 512.813,851.69 512.81,851.69C509.42,851.26 507.91,851.99 505.18,852.47C505.152,852.475 505.123,852.477 505.094,852.477C504.815,852.477 504.584,852.247 504.584,851.967C504.584,851.861 504.618,851.757 504.68,851.67C505.46,850.563 505.667,849.833 505.3,849.48C505.24,849.433 505.177,849.393 505.11,849.36C502.823,848.373 500.36,848.36 497.72,849.32C497.692,849.331 497.663,849.34 497.634,849.348C497.1,849.495 496.538,849.172 496.389,848.633C496.382,848.606 496.375,848.578 496.37,848.55C495.77,845.34 491.41,847.67 488.91,848.59C488.836,848.618 488.757,848.632 488.678,848.632C488.358,848.632 488.081,848.403 488.02,848.09L487.77,846.78C487.646,846.121 487.065,845.64 486.394,845.64C486.207,845.64 486.022,845.677 485.85,845.75C484.937,846.137 484.14,846.66 483.46,847.32C483.189,847.578 482.812,847.696 482.44,847.64C481.94,847.56 481.443,847.41 480.95,847.19C480.151,846.823 479.167,846.975 478.42,847.58C474.26,850.96 472.25,856.44 469.47,861L468.8,861.03C468.553,860.65 468.27,860.427 467.95,860.36C467.617,860.287 467.313,860.417 467.04,860.75C466.687,861.183 466.413,861.443 466.22,861.53C466.144,861.567 466.06,861.586 465.975,861.586C465.668,861.586 465.415,861.334 465.415,861.026C465.415,860.909 465.452,860.795 465.52,860.7C467.32,858.14 468.073,855.347 467.78,852.32C467.742,851.949 467.492,851.632 467.14,851.51C466.32,851.223 465.557,851.26 464.85,851.62C464.803,851.644 464.751,851.656 464.698,851.656C464.525,851.656 464.377,851.523 464.36,851.35C464.23,849.8 467.28,847.58 464.57,845.81C464.286,845.629 463.945,845.555 463.61,845.6C458.05,846.42 455.34,848.77 451.18,852.81C451.134,852.85 451.062,852.85 451.01,852.81L450.82,852.64C450.692,852.528 450.674,852.333 450.78,852.2C453.75,848.38 458.13,845.99 462.26,843.97C462.432,843.886 462.593,843.779 462.74,843.653C463.572,842.938 463.741,841.75 463.115,841.022C463.006,840.895 462.876,840.787 462.73,840.7C461.917,840.227 461.58,839.24 461.72,837.74C461.724,837.693 461.727,837.647 461.727,837.6C461.727,836.808 461.082,836.153 460.29,836.14C458.143,836.113 456.143,836.75 454.29,838.05C451.683,839.89 449.22,841.337 446.9,842.39C446.841,842.42 446.775,842.432 446.709,842.424C446.519,842.404 446.379,842.225 446.4,842.029C446.407,841.964 446.432,841.902 446.47,841.85C449.883,837.223 454.377,833.653 459.95,831.14C459.997,831.119 460.043,831.096 460.089,831.072C461.182,830.499 461.66,829.223 461.147,828.247C461.126,828.207 461.104,828.168 461.08,828.13C460.853,827.77 460.333,827.43 459.52,827.11C458.807,826.83 458.18,826.75 457.64,826.87C455.333,827.41 452.413,828.887 448.88,831.3C448.842,831.324 448.793,831.32 448.76,831.29L448.43,831C448.425,830.995 448.42,830.991 448.415,830.986C448.338,830.901 448.34,830.77 448.421,830.696C448.427,830.69 448.433,830.685 448.44,830.68C450.847,828.873 453.237,827.227 455.61,825.74C455.751,825.652 455.882,825.549 456.003,825.434C456.97,824.51 457.012,822.959 456.095,821.999C455.981,821.88 455.856,821.773 455.72,821.68C455.373,821.44 454.67,821.443 453.61,821.69C452.503,821.943 451.117,822.557 449.45,823.53C449.414,823.549 449.374,823.559 449.333,823.559C449.196,823.559 449.083,823.446 449.083,823.309C449.083,823.251 449.103,823.195 449.14,823.15L451.91,819.97C451.953,819.921 451.991,819.867 452.025,819.811C452.343,819.279 452.164,818.577 451.627,818.256C451.571,818.223 451.511,818.194 451.45,818.17L450.78,817.92C450.387,817.77 450.132,817.386 450.15,816.97C450.163,816.437 450.297,815.933 450.55,815.46C450.641,815.291 450.705,815.107 450.741,814.917C450.921,813.952 450.32,813.018 449.409,812.847C449.228,812.813 449.043,812.811 448.86,812.84C446.207,813.273 443.81,814.843 441.67,817.55C439.903,815.723 438.67,813.907 437.97,812.1C437.963,812.083 437.957,812.067 437.953,812.049C437.898,811.842 438.028,811.626 438.24,811.57C438.256,811.566 438.273,811.562 438.29,811.56C448.043,810.287 455.87,809.677 461.77,809.73C469.53,809.797 475.67,809.93 480.19,810.13C480.548,810.15 480.833,810.45 480.833,810.809C480.833,810.853 480.828,810.897 480.82,810.94C476.46,833.91 500.63,848.01 519.67,849.54C530.87,850.43 545.27,846.84 551.5,836.63C552.94,834.263 553.883,831.193 554.33,827.42C555.3,819.21 553.34,812.28 550.07,804.78C550.025,804.676 550.002,804.564 550.002,804.451C550.002,804.102 550.222,803.788 550.55,803.67C553.917,802.457 557.347,802.07 560.84,802.51C561.065,802.543 561.234,802.738 561.234,802.965C561.234,803.06 561.205,803.152 561.15,803.23C552.43,815.15 557,830.17 568.88,837.88C578.213,843.94 588.673,846.02 600.26,844.12C600.275,844.117 600.29,844.116 600.305,844.116C600.454,844.116 600.575,844.238 600.575,844.386C600.575,844.404 600.574,844.422 600.57,844.44C600.05,846.953 599.397,849.263 598.61,851.37C595.56,859.54 583.58,861.86 575.96,861.97Z" style="fill:rgb(253,253,253);fill-rule:nonzero;"/>
        <path d="M585.561,806.77C588.946,806.747 591.758,810.523 591.79,815.137C591.822,819.75 589.063,823.566 585.679,823.59C582.294,823.613 579.482,819.837 579.45,815.223C579.418,810.61 582.177,806.794 585.561,806.77ZM586.514,809.65C586.514,809.65 586.514,809.65 586.514,809.65C585.866,809.663 585.346,810.291 585.36,811.043C585.375,811.794 585.919,812.402 586.566,812.39C586.566,812.39 586.566,812.39 586.566,812.39C587.214,812.377 587.734,811.749 587.72,810.997C587.705,810.246 587.161,809.638 586.514,809.65Z" style="fill-rule:nonzero;"/>
        <path d="M513.189,808.621C513.189,808.621 513.189,808.621 513.189,808.621C516.847,808.564 519.922,812.579 519.999,817.515C519.999,817.515 519.999,817.515 519.999,817.515C520.077,822.452 517.13,826.561 513.471,826.619C513.471,826.619 513.471,826.619 513.471,826.619C509.813,826.676 506.738,822.661 506.661,817.725C506.661,817.725 506.661,817.725 506.661,817.725C506.583,812.788 509.53,808.679 513.189,808.621ZM514.422,811.778C513.846,811.89 513.502,812.651 513.66,813.464C513.66,813.464 513.66,813.464 513.66,813.464C513.818,814.277 514.422,814.854 514.998,814.742C515.574,814.63 515.918,813.869 515.76,813.056C515.76,813.056 515.76,813.056 515.76,813.056C515.602,812.243 514.998,811.666 514.422,811.778Z" style="fill-rule:nonzero;"/>
        <g transform="matrix(-0.0191974,-0.999816,0.999816,-0.0191974,586.54,811.02)">
            <ellipse cx="0" cy="0" rx="1.37" ry="1.18" style="fill:rgb(253,253,253);"/>
        </g>
        <g transform="matrix(-0.190809,-0.981627,0.981627,-0.190809,514.71,813.26)">
            <ellipse cx="0" cy="0" rx="1.51" ry="1.07" style="fill:rgb(253,253,253);"/>
        </g>
        <path d="M438.73,823.96L441.85,829.25C442.019,829.53 442.011,829.882 441.83,830.15C440.17,832.62 439.36,835.83 443.53,836.81C443.838,836.881 444.058,837.157 444.058,837.473C444.058,837.603 444.02,837.73 443.95,837.84C441.89,841.08 438.94,844.63 443.64,847.2C443.845,847.312 444.062,847.387 444.28,847.42L445.72,847.66C445.986,847.702 446.184,847.934 446.184,848.203C446.184,848.285 446.165,848.366 446.13,848.44L444.96,850.88C440.973,847.76 436.897,844.733 432.73,841.8C429.91,839.813 427.293,836.597 424.88,832.15C421.61,826.15 420.37,815.04 428.67,812.71C433.25,811.43 436.24,815.95 437.22,819.74C437.613,821.26 438.117,822.667 438.73,823.96ZM432.04,829.07C431.767,829.863 431.833,830.707 432.24,831.6C432.765,832.777 434.15,833.333 435.35,832.85L435.62,832.75C436.711,832.312 437.317,831.125 437.03,829.99C436.157,826.49 434.02,824.5 430.62,824.02C427.99,823.65 423.18,827.18 426.64,830.39C426.872,830.603 427.191,830.689 427.49,830.62C428.597,830.373 429.647,829.607 430.64,828.32C430.743,828.189 430.885,828.093 431.045,828.044C431.471,827.916 431.925,828.156 432.052,828.576C432.101,828.738 432.096,828.91 432.04,829.07Z" style="fill:rgb(253,253,253);fill-rule:nonzero;"/>
        <path d="M468.8,861.03C468.813,861.21 468.913,861.313 469.1,861.34C469.207,861.353 469.297,861.327 469.37,861.26C469.443,861.187 469.477,861.1 469.47,861C472.25,856.44 474.26,850.96 478.42,847.58C479.167,846.975 480.151,846.823 480.95,847.19C481.443,847.41 481.94,847.56 482.44,847.64C482.812,847.696 483.189,847.578 483.46,847.32C484.14,846.66 484.937,846.137 485.85,845.75C486.022,845.677 486.207,845.64 486.394,845.64C487.065,845.64 487.646,846.121 487.77,846.78L488.02,848.09C488.081,848.403 488.358,848.632 488.678,848.632C488.757,848.632 488.836,848.618 488.91,848.59C491.41,847.67 495.77,845.34 496.37,848.55C496.375,848.578 496.382,848.606 496.389,848.633C496.538,849.172 497.1,849.495 497.634,849.348C497.663,849.34 497.692,849.331 497.72,849.32C500.36,848.36 502.823,848.373 505.11,849.36C505.177,849.393 505.24,849.433 505.3,849.48C505.667,849.833 505.46,850.563 504.68,851.67C504.618,851.757 504.584,851.861 504.584,851.967C504.584,852.247 504.815,852.477 505.094,852.477C505.123,852.477 505.152,852.475 505.18,852.47C507.91,851.99 509.42,851.26 512.81,851.69C512.813,851.69 512.816,851.691 512.819,851.691C513.19,851.737 513.456,852.083 513.41,852.459C513.41,852.459 513.41,852.46 513.41,852.46L513.25,853.74C513.249,853.752 513.248,853.765 513.248,853.778C513.248,853.959 513.397,854.108 513.578,854.108C513.623,854.108 513.668,854.098 513.71,854.08C514.023,853.947 515.867,853.667 519.24,853.24C520.573,853.073 521.86,853.127 523.1,853.4C523.412,853.467 523.633,853.756 523.62,854.08L523.55,855.53C523.548,855.56 523.55,855.59 523.555,855.619C523.593,855.841 523.811,855.991 524.038,855.952C524.066,855.948 524.094,855.94 524.12,855.93C524.153,855.917 525.903,855.34 529.37,854.2C530.443,853.853 531.513,854.04 532.58,854.76C532.863,854.952 532.954,855.334 532.79,855.64C532.35,856.487 531.863,857.14 531.33,857.6C531.272,857.658 531.24,857.737 531.24,857.819C531.24,857.989 531.38,858.129 531.55,858.129C531.595,858.129 531.639,858.119 531.68,858.1C534.367,856.64 537.047,855.57 539.72,854.89C540.567,854.677 541.26,854.843 541.8,855.39C542.2,855.803 541.827,856.527 540.68,857.56C540.642,857.594 540.619,857.643 540.619,857.695C540.619,857.793 540.701,857.875 540.799,857.875C540.813,857.875 540.827,857.873 540.84,857.87C541.907,857.637 543.267,857.107 544.92,856.28C545.005,856.237 545.092,856.199 545.182,856.167C546.163,855.814 547.205,856.178 547.492,856.972C547.518,857.046 547.538,857.122 547.55,857.2C547.643,857.787 547.107,858.387 545.94,859C545.906,859.022 545.885,859.06 545.885,859.101C545.885,859.167 545.939,859.221 546.005,859.221C546.01,859.221 546.015,859.221 546.02,859.22C548.473,858.633 550.063,858.017 550.79,857.37C551.097,857.101 551.529,857.024 551.91,857.17L553.34,857.71C553.675,857.833 554.051,857.755 554.31,857.51C556.117,855.823 558.647,855.15 561.9,855.49C563.533,855.657 564.143,856.96 563.73,859.4C563.661,859.83 563.908,860.254 564.32,860.41C567.88,861.743 571.76,862.263 575.96,861.97C575.053,862.403 574.39,862.57 573.97,862.47C569.863,861.53 567.657,862.087 567.35,864.14C565.33,863.94 563.903,864.57 563.07,866.03C562.905,866.338 562.582,866.532 562.232,866.532C561.711,866.532 561.282,866.103 561.282,865.582C561.282,865.521 561.288,865.46 561.3,865.4L561.52,864.08C561.526,864.044 561.528,864.007 561.528,863.971C561.528,863.581 561.208,863.261 560.818,863.261C560.606,863.261 560.405,863.356 560.27,863.52L558.12,866.22C557.424,867.093 556.185,867.336 555.21,866.79L555.19,866.78C554.69,866.524 554.375,866.007 554.375,865.446C554.375,865.036 554.543,864.643 554.84,864.36L560.42,859.08C560.544,858.97 560.615,858.812 560.615,858.646C560.615,858.328 560.353,858.066 560.035,858.066C559.969,858.066 559.903,858.078 559.84,858.1C557.72,858.787 555.963,860.103 554.57,862.05C553.28,863.86 552.13,864.7 550.08,865.07C550.038,865.077 549.996,865.081 549.953,865.081C549.536,865.081 549.193,864.738 549.193,864.321C549.193,864.171 549.237,864.025 549.32,863.9L550.5,862.13C550.554,862.049 550.583,861.954 550.583,861.857C550.583,861.588 550.362,861.367 550.093,861.367C549.996,861.367 549.901,861.396 549.82,861.45C548.04,862.637 546.597,863.75 545.49,864.79C544.33,865.89 543.08,866.07 541.75,865.38C541.733,865.371 541.716,865.362 541.699,865.352C541.178,865.048 541.003,864.365 541.31,863.839C541.319,863.822 541.329,863.806 541.34,863.79L542.63,861.84C542.658,861.801 542.674,861.754 542.674,861.705C542.674,861.579 542.57,861.475 542.444,861.475C542.408,861.475 542.372,861.484 542.34,861.5C540.127,862.587 538.057,863.88 536.13,865.38C535.39,865.953 534.357,866.203 533.03,866.13C532.299,866.094 531.718,865.483 531.718,864.752C531.718,864.439 531.824,864.135 532.02,863.89L534.44,860.83C534.471,860.786 534.487,860.734 534.487,860.681C534.487,860.538 534.37,860.421 534.227,860.421C534.179,860.421 534.131,860.435 534.09,860.46C531.17,862.49 524.11,867.86 521.95,865.31C521.442,864.709 521.459,863.818 521.99,863.25C523.403,861.743 525.023,860.363 526.85,859.11C526.881,859.087 526.907,859.059 526.927,859.026C527.007,858.894 526.968,858.723 526.841,858.646C526.807,858.626 526.769,858.614 526.73,858.61C525.903,858.53 525.237,858.66 524.73,859C521.22,861.37 517.68,862.98 513.88,864.83C513.12,865.197 512.45,865.247 511.87,864.98C511.84,864.966 511.811,864.952 511.783,864.937C510.953,864.499 510.62,863.477 511.044,862.671C511.059,862.644 511.074,862.617 511.09,862.59C512.39,860.44 517.22,858.26 519.03,857.19C519.124,857.132 519.181,857.029 519.181,856.919C519.181,856.743 519.036,856.599 518.861,856.599C518.85,856.599 518.84,856.599 518.83,856.6C513.72,857.32 507.45,862.57 502.51,861.4C502.367,861.366 502.23,861.311 502.104,861.237C501.415,860.829 501.185,859.922 501.596,859.228C501.67,859.102 501.762,858.989 501.87,858.89C503.283,857.603 505.113,856.523 507.36,855.65C507.475,855.6 507.528,855.465 507.48,855.35L507.34,855.02C507.324,854.991 507.286,854.978 507.25,854.99C504.383,856.137 501.23,857.25 497.79,858.33C495.777,858.963 494.39,858.593 493.63,857.22C493.464,856.918 493.472,856.551 493.65,856.26C494.637,854.693 496.36,853.553 498.82,852.84C498.827,852.838 498.834,852.836 498.841,852.833C498.986,852.781 499.06,852.615 499.006,852.465C499.004,852.46 499.002,852.455 499,852.45L498.83,852.06C498.79,851.98 498.692,851.944 498.61,851.98L493.06,854.69C489.453,852.943 485.47,852.583 481.11,853.61C481.483,853.11 481.607,852.757 481.48,852.55C481.398,852.418 481.253,852.337 481.098,852.337C480.969,852.337 480.845,852.393 480.76,852.49C479.093,854.357 477.953,856.363 477.34,858.51C476.893,859.477 476.787,860.393 477.02,861.26C477.207,861.98 477.547,862.323 478.04,862.29C478.447,862.263 478.887,861.973 479.36,861.42C478.24,864.907 476.86,868.093 475.22,870.98C475.182,871.048 475.138,871.111 475.087,871.17C474.647,871.681 473.84,871.719 473.3,871.254C473.238,871.201 473.181,871.143 473.13,871.08C472.963,870.88 472.897,870.6 472.93,870.24C473.083,868.78 473.397,867.087 473.87,865.16C473.888,865.094 473.897,865.026 473.897,864.958C473.897,864.53 473.545,864.178 473.117,864.178C472.876,864.178 472.648,864.289 472.5,864.48C472.187,864.88 471.737,865.28 471.15,865.68C471.137,865.689 471.124,865.697 471.111,865.705C470.891,865.828 470.606,865.745 470.48,865.52C470.473,865.507 470.466,865.494 470.46,865.48L469.92,864.27C469.869,864.153 469.754,864.077 469.626,864.077C469.469,864.077 469.333,864.194 469.31,864.35C469.057,866.05 468.387,867.917 467.3,869.95C467.273,869.994 467.258,870.045 467.258,870.097C467.258,870.251 467.385,870.377 467.538,870.377C467.605,870.377 467.669,870.353 467.72,870.31L470.39,868.37C470.553,868.252 470.75,868.189 470.951,868.189C471.314,868.189 471.648,868.395 471.81,868.72C473.13,871.41 471.23,874.8 470.69,876.71C470.683,876.739 470.679,876.768 470.679,876.798C470.679,876.995 470.842,877.158 471.039,877.158C471.154,877.158 471.262,877.103 471.33,877.01L472.71,874.92C472.983,874.517 473.44,874.274 473.927,874.274C474.649,874.274 475.27,874.806 475.38,875.52C475.72,877.78 475.61,880.03 475.05,882.27C473.117,890.003 472.017,894.363 471.75,895.35C471.717,895.487 471.796,895.627 471.93,895.67L472.17,895.74C472.42,895.814 472.687,895.693 472.79,895.46C474.39,891.773 476.293,887.867 478.5,883.74C479.153,882.52 479.93,882.087 480.83,882.44C481.189,882.589 481.443,882.912 481.5,883.29C482.18,887.88 480.75,892.9 479.48,900.05C479.47,900.12 479.507,900.188 479.57,900.21L479.83,900.28C479.865,900.291 479.902,900.297 479.94,900.297C480.111,900.297 480.261,900.177 480.3,900.01C481.48,895.143 482.383,891.753 483.01,889.84C483.27,889.053 483.73,888.69 484.39,888.75C486.22,888.92 486.68,891.11 486.57,892.82C486.243,898.167 486.073,901.893 486.06,904C486.053,905.053 486.12,905.79 486.26,906.21C486.309,906.343 486.437,906.432 486.579,906.432C486.705,906.432 486.821,906.362 486.88,906.25L492.15,895.56C492.405,895.047 492.93,894.722 493.502,894.722C494.034,894.722 494.528,895.003 494.8,895.46C495.84,897.22 494.76,902.82 494.69,904.41C494.69,904.417 494.69,904.423 494.69,904.43C494.69,904.649 494.87,904.83 495.09,904.83C495.164,904.83 495.237,904.809 495.3,904.77C495.67,904.53 497.02,901.24 498.24,899.99C498.967,899.25 499.353,898.87 499.4,898.85C499.638,898.748 499.894,898.696 500.153,898.696C501.122,898.696 501.946,899.428 502.06,900.39C502.42,903.343 501.96,906.193 500.68,908.94C500.657,908.995 500.678,909.06 500.73,909.09L500.97,909.21C501.005,909.228 501.043,909.237 501.082,909.237C501.18,909.237 501.27,909.179 501.31,909.09C502.37,906.863 503.543,904.7 504.83,902.6C505.57,901.393 506.47,900.81 507.53,900.85C507.594,900.852 507.657,900.859 507.719,900.872C508.483,901.022 508.965,901.898 508.785,902.813C508.771,902.886 508.752,902.959 508.73,903.03C507.95,905.53 506.01,908.82 506.4,912.14C506.422,912.286 506.549,912.395 506.697,912.395C506.793,912.395 506.884,912.348 506.94,912.27L513.66,902.14C513.897,901.782 514.299,901.565 514.728,901.565C515.43,901.565 516.008,902.143 516.008,902.845C516.008,902.917 516.002,902.989 515.99,903.06L514.53,911.92C514.515,911.994 514.525,912.071 514.559,912.138C514.643,912.304 514.854,912.37 515.025,912.283C515.092,912.249 515.146,912.195 515.18,912.13L520.63,901.56C520.876,901.087 521.367,900.789 521.9,900.79L522.4,900.78C522.402,900.78 522.404,900.78 522.405,900.78C523.135,900.78 523.735,901.38 523.735,902.11C523.735,902.239 523.717,902.367 523.68,902.49L520.45,913.09C520.433,913.15 520.429,913.214 520.437,913.276C520.47,913.526 520.699,913.706 520.943,913.674C521.006,913.665 521.066,913.644 521.12,913.61C524.11,911.75 526.98,905.87 529.4,901.54C529.668,901.067 530.171,900.774 530.714,900.774C531.298,900.774 531.831,901.112 532.08,901.64C532.16,901.813 532.163,902.263 532.09,902.99C531.81,905.75 531.397,908.483 530.85,911.19L530.87,912.22C530.83,912.773 530.927,913.307 531.16,913.82C530.713,914.107 530.603,914.467 530.83,914.9L526.78,915.57L527.59,910.61C527.598,910.552 527.59,910.492 527.566,910.437C527.497,910.276 527.311,910.198 527.155,910.266C527.1,910.289 527.053,910.329 527.02,910.38L523.51,915.67C523.499,915.686 523.49,915.702 523.481,915.718C523.354,915.961 523.453,916.268 523.701,916.398C523.717,916.406 523.733,916.413 523.75,916.42C523.93,916.493 524.16,916.54 524.44,916.56C521.913,916.673 519.373,916.617 516.82,916.39C514.34,916.17 514.07,913.78 511.7,914.54C512.22,913.927 512.487,913.393 512.5,912.94C512.5,912.939 512.5,912.937 512.5,912.936C512.5,912.722 512.324,912.546 512.11,912.546C512.055,912.546 512,912.557 511.95,912.58C510.73,913.167 509.763,914.04 509.05,915.2L502.22,914.11L503.18,914C503.428,913.97 503.626,913.772 503.66,913.52C503.713,913.16 503.55,912.83 503.17,912.53C502.87,912.29 502.577,912.31 502.29,912.59C502.043,912.837 501.88,913.193 501.8,913.66L497.21,913.2C497.05,911.62 497.207,910.09 497.68,908.61C497.69,908.574 497.695,908.537 497.695,908.5C497.695,908.275 497.51,908.09 497.285,908.09C497.158,908.09 497.038,908.149 496.96,908.25C496.047,909.563 495.327,911 494.8,912.56C494.367,912.933 493.537,912.957 492.31,912.63L491.39,902.57C491.372,902.426 491.248,902.316 491.102,902.316C490.968,902.316 490.851,902.409 490.82,902.54C490.193,906.28 488.473,909.213 485.66,911.34C483.673,911.287 482.26,910.547 481.42,909.12C481.92,908.087 481.983,907.13 481.61,906.25C481.537,906.077 481.366,905.963 481.177,905.963C481.086,905.963 480.996,905.99 480.92,906.04C480.52,906.3 480.203,906.727 479.97,907.32C478.937,907.113 477.953,906.28 477.02,904.82C476.133,900.927 476.137,897.17 477.03,893.55C477.031,893.541 477.032,893.532 477.032,893.523C477.032,893.43 476.955,893.353 476.862,893.353C476.805,893.353 476.751,893.382 476.72,893.43C475.63,895.46 473.75,899.34 471.29,899.84C470.957,899.905 470.614,899.874 470.3,899.75C468.473,899.043 467.563,897.593 467.57,895.4C467.577,894.587 467.667,893.267 467.84,891.44C467.841,891.429 467.841,891.419 467.841,891.408C467.841,891.199 467.67,891.028 467.461,891.028C467.337,891.028 467.221,891.088 467.15,891.19L465.97,892.97C465.869,893.127 465.695,893.221 465.508,893.221C465.353,893.221 465.204,893.155 465.1,893.04C464.3,892.18 463.533,891.923 462.8,892.27L462.12,888.71C463.48,887.73 463.227,887.027 461.36,886.6C460.22,884.767 459.517,882.497 459.25,879.79C459.55,878.737 459.523,877.967 459.17,877.48C458.55,876.627 458.627,875.43 459.4,873.89C459.41,873.868 459.419,873.846 459.424,873.823C459.471,873.637 459.361,873.446 459.181,873.4C459.158,873.394 459.134,873.391 459.11,873.39C458.01,873.33 457.35,872.767 457.13,871.7C456.11,866.713 456.607,862.237 458.62,858.27C458.639,858.241 458.645,858.206 458.639,858.173C458.625,858.097 458.547,858.048 458.466,858.063C458.433,858.069 458.402,858.086 458.38,858.11L454.08,862.81L444.96,850.88L446.13,848.44C446.165,848.366 446.184,848.285 446.184,848.203C446.184,847.934 445.986,847.702 445.72,847.66L444.28,847.42C444.062,847.387 443.845,847.312 443.64,847.2C438.94,844.63 441.89,841.08 443.95,837.84C444.02,837.73 444.058,837.603 444.058,837.473C444.058,837.157 443.838,836.881 443.53,836.81C439.36,835.83 440.17,832.62 441.83,830.15C442.011,829.882 442.019,829.53 441.85,829.25L438.73,823.96C441.183,824.047 442.437,823.07 442.49,821.03C442.49,820.944 442.48,820.856 442.46,820.77L441.67,817.55C443.81,814.843 446.207,813.273 448.86,812.84C449.043,812.811 449.228,812.813 449.409,812.847C450.32,813.018 450.921,813.952 450.741,814.917C450.705,815.107 450.641,815.291 450.55,815.46C450.297,815.933 450.163,816.437 450.15,816.97C450.132,817.386 450.387,817.77 450.78,817.92L451.45,818.17C451.511,818.194 451.571,818.223 451.627,818.256C452.164,818.577 452.343,819.279 452.025,819.811C451.991,819.867 451.953,819.921 451.91,819.97L449.14,823.15C449.103,823.195 449.083,823.251 449.083,823.309C449.083,823.446 449.196,823.559 449.333,823.559C449.374,823.559 449.414,823.549 449.45,823.53C451.117,822.557 452.503,821.943 453.61,821.69C454.67,821.443 455.373,821.44 455.72,821.68C455.856,821.773 455.981,821.88 456.095,821.999C457.012,822.959 456.97,824.51 456.003,825.434C455.882,825.549 455.751,825.652 455.61,825.74C453.237,827.227 450.847,828.873 448.44,830.68C448.433,830.685 448.427,830.69 448.421,830.696C448.34,830.77 448.338,830.901 448.415,830.986C448.42,830.991 448.425,830.995 448.43,831L448.76,831.29C448.793,831.32 448.842,831.324 448.88,831.3C452.413,828.887 455.333,827.41 457.64,826.87C458.18,826.75 458.807,826.83 459.52,827.11C460.333,827.43 460.853,827.77 461.08,828.13C461.104,828.168 461.126,828.207 461.147,828.247C461.66,829.223 461.182,830.499 460.089,831.072C460.043,831.096 459.997,831.119 459.95,831.14C454.377,833.653 449.883,837.223 446.47,841.85C446.432,841.902 446.407,841.964 446.4,842.029C446.379,842.225 446.519,842.404 446.709,842.424C446.775,842.432 446.841,842.42 446.9,842.39C449.22,841.337 451.683,839.89 454.29,838.05C456.143,836.75 458.143,836.113 460.29,836.14C461.082,836.153 461.727,836.808 461.727,837.6C461.727,837.647 461.724,837.693 461.72,837.74C461.58,839.24 461.917,840.227 462.73,840.7C462.876,840.787 463.006,840.895 463.115,841.022C463.741,841.75 463.572,842.938 462.74,843.653C462.593,843.779 462.432,843.886 462.26,843.97C458.13,845.99 453.75,848.38 450.78,852.2C450.674,852.333 450.692,852.528 450.82,852.64L451.01,852.81C451.062,852.85 451.134,852.85 451.18,852.81C455.34,848.77 458.05,846.42 463.61,845.6C463.945,845.555 464.286,845.629 464.57,845.81C467.28,847.58 464.23,849.8 464.36,851.35C464.377,851.523 464.525,851.656 464.698,851.656C464.751,851.656 464.803,851.644 464.85,851.62C465.557,851.26 466.32,851.223 467.14,851.51C467.492,851.632 467.742,851.949 467.78,852.32C468.073,855.347 467.32,858.14 465.52,860.7C465.452,860.795 465.415,860.909 465.415,861.026C465.415,861.334 465.668,861.586 465.975,861.586C466.06,861.586 466.144,861.567 466.22,861.53C466.413,861.443 466.687,861.183 467.04,860.75C467.313,860.417 467.617,860.287 467.95,860.36C468.27,860.427 468.553,860.65 468.8,861.03ZM519.2,916.13C519.28,916.117 519.603,915.833 520.17,915.28C520.253,915.207 520.308,915.108 520.327,915C520.373,914.735 520.188,914.478 519.918,914.432C519.809,914.413 519.697,914.43 519.6,914.48C519.587,914.487 519.323,914.813 518.81,915.46C518.755,915.533 518.725,915.622 518.725,915.714C518.725,915.944 518.914,916.134 519.145,916.134C519.163,916.134 519.182,916.132 519.2,916.13Z" style="fill:rgb(47,47,45);fill-rule:nonzero;"/>
        <path d="M432.04,829.07C432.096,828.91 432.101,828.738 432.052,828.576C431.925,828.156 431.471,827.916 431.045,828.044C430.885,828.093 430.743,828.189 430.64,828.32C429.647,829.607 428.597,830.373 427.49,830.62C427.191,830.689 426.872,830.603 426.64,830.39C423.18,827.18 427.99,823.65 430.62,824.02C434.02,824.5 436.157,826.49 437.03,829.99C437.317,831.125 436.711,832.312 435.62,832.75L435.35,832.85C434.15,833.333 432.765,832.777 432.24,831.6C431.833,830.707 431.767,829.863 432.04,829.07Z" style="fill-rule:nonzero;"/>
        <path d="M481.11,853.61L477.34,858.51C477.953,856.363 479.093,854.357 480.76,852.49C480.845,852.393 480.969,852.337 481.098,852.337C481.253,852.337 481.398,852.418 481.48,852.55C481.607,852.757 481.483,853.11 481.11,853.61Z" style="fill:white;fill-opacity:0.56;fill-rule:nonzero;"/>
        <path d="M567.35,864.14L568.07,865.81C568.197,866.1 568.488,866.283 568.8,866.27L573.35,866.08C573.353,866.08 573.356,866.08 573.358,866.08C573.545,866.08 573.698,866.233 573.698,866.42C573.698,866.457 573.692,866.495 573.68,866.53C573.373,867.357 573.27,868.16 573.37,868.94C573.42,869.311 573.29,869.684 573.02,869.94C571.473,871.413 570.77,873.557 570.91,876.37C570.921,876.721 570.719,877.045 570.4,877.19C570.26,877.25 569.973,877.257 569.54,877.21C569.227,877.177 568.953,877.34 568.72,877.7C567.353,879.813 566.74,882 566.88,884.26C566.913,884.793 566.897,885.3 566.83,885.78L566.5,885.99C566.463,886.015 566.423,886.033 566.381,886.045C566.164,886.104 565.935,885.969 565.875,885.747C565.864,885.706 565.859,885.663 565.86,885.62L565.92,884.6C565.921,884.585 565.921,884.571 565.921,884.556C565.921,883.93 565.406,883.416 564.781,883.416C564.364,883.416 563.979,883.644 563.78,884.01C562.747,885.977 562.137,888.127 561.95,890.46C561.41,891.207 560.973,891.49 560.64,891.31C559.953,890.457 559.323,890.263 558.75,890.73C557.95,891.383 557.283,892.623 556.75,894.45C555.817,895.87 555.247,896.213 555.04,895.48C554.04,895.027 553.1,895.443 552.22,896.73C551.827,897.31 551.39,898.34 550.91,899.82C550.19,902.033 549.35,904.237 548.39,906.43L545.02,908.85L547.62,898.59C547.638,898.519 547.647,898.446 547.647,898.373C547.647,897.922 547.307,897.537 546.86,897.48C545.1,897.26 544.6,898.19 544.19,899.89C543.237,903.85 541.327,908.127 538.46,912.72C538.247,909.407 538.573,906.36 539.44,903.58C539.813,902.38 539.917,901.42 539.75,900.7C539.695,900.462 539.581,900.241 539.417,900.059C538.892,899.476 537.984,899.425 537.405,899.947C537.223,900.11 537.087,900.318 537.01,900.55C535.657,904.543 533.753,908.31 531.3,911.85L530.85,911.19C531.397,908.483 531.81,905.75 532.09,902.99C532.163,902.263 532.16,901.813 532.08,901.64C531.831,901.112 531.298,900.774 530.714,900.774C530.171,900.774 529.668,901.067 529.4,901.54C526.98,905.87 524.11,911.75 521.12,913.61C521.066,913.644 521.006,913.665 520.943,913.674C520.699,913.706 520.47,913.526 520.437,913.276C520.429,913.214 520.433,913.15 520.45,913.09L523.68,902.49C523.717,902.367 523.735,902.239 523.735,902.11C523.735,901.38 523.135,900.78 522.405,900.78C522.404,900.78 522.402,900.78 522.4,900.78L521.9,900.79C521.367,900.789 520.876,901.087 520.63,901.56L515.18,912.13C515.146,912.195 515.092,912.249 515.025,912.283C514.854,912.37 514.643,912.304 514.559,912.138C514.525,912.071 514.515,911.994 514.53,911.92L515.99,903.06C516.002,902.989 516.008,902.917 516.008,902.845C516.008,902.143 515.43,901.565 514.728,901.565C514.299,901.565 513.897,901.782 513.66,902.14L506.94,912.27C506.884,912.348 506.793,912.395 506.697,912.395C506.549,912.395 506.422,912.286 506.4,912.14C506.01,908.82 507.95,905.53 508.73,903.03C508.752,902.959 508.771,902.886 508.785,902.813C508.965,901.898 508.483,901.022 507.719,900.872C507.657,900.859 507.594,900.852 507.53,900.85C506.47,900.81 505.57,901.393 504.83,902.6C503.543,904.7 502.37,906.863 501.31,909.09C501.27,909.179 501.18,909.237 501.082,909.237C501.043,909.237 501.005,909.228 500.97,909.21L500.73,909.09C500.678,909.06 500.657,908.995 500.68,908.94C501.96,906.193 502.42,903.343 502.06,900.39C501.946,899.428 501.122,898.696 500.153,898.696C499.894,898.696 499.638,898.748 499.4,898.85C499.353,898.87 498.967,899.25 498.24,899.99C497.02,901.24 495.67,904.53 495.3,904.77C495.237,904.809 495.164,904.83 495.09,904.83C494.87,904.83 494.69,904.649 494.69,904.43C494.69,904.423 494.69,904.417 494.69,904.41C494.76,902.82 495.84,897.22 494.8,895.46C494.528,895.003 494.034,894.722 493.502,894.722C492.93,894.722 492.405,895.047 492.15,895.56L486.88,906.25C486.821,906.362 486.705,906.432 486.579,906.432C486.437,906.432 486.309,906.343 486.26,906.21C486.12,905.79 486.053,905.053 486.06,904C486.073,901.893 486.243,898.167 486.57,892.82C486.68,891.11 486.22,888.92 484.39,888.75C483.73,888.69 483.27,889.053 483.01,889.84C482.383,891.753 481.48,895.143 480.3,900.01C480.261,900.177 480.111,900.297 479.94,900.297C479.902,900.297 479.865,900.291 479.83,900.28L479.57,900.21C479.507,900.188 479.47,900.12 479.48,900.05C480.75,892.9 482.18,887.88 481.5,883.29C481.443,882.912 481.189,882.589 480.83,882.44C479.93,882.087 479.153,882.52 478.5,883.74C476.293,887.867 474.39,891.773 472.79,895.46C472.687,895.693 472.42,895.814 472.17,895.74L471.93,895.67C471.796,895.627 471.717,895.487 471.75,895.35C472.017,894.363 473.117,890.003 475.05,882.27C475.61,880.03 475.72,877.78 475.38,875.52C475.27,874.806 474.649,874.274 473.927,874.274C473.44,874.274 472.983,874.517 472.71,874.92L471.33,877.01C471.262,877.103 471.154,877.158 471.039,877.158C470.842,877.158 470.679,876.995 470.679,876.798C470.679,876.768 470.683,876.739 470.69,876.71C471.23,874.8 473.13,871.41 471.81,868.72C471.648,868.395 471.314,868.189 470.951,868.189C470.75,868.189 470.553,868.252 470.39,868.37L467.72,870.31C467.669,870.353 467.605,870.377 467.538,870.377C467.385,870.377 467.258,870.251 467.258,870.097C467.258,870.045 467.273,869.994 467.3,869.95C468.387,867.917 469.057,866.05 469.31,864.35C469.333,864.194 469.469,864.077 469.626,864.077C469.754,864.077 469.869,864.153 469.92,864.27L470.46,865.48C470.466,865.494 470.473,865.507 470.48,865.52C470.606,865.745 470.891,865.828 471.111,865.705C471.124,865.697 471.137,865.689 471.15,865.68C471.737,865.28 472.187,864.88 472.5,864.48C472.648,864.289 472.876,864.178 473.117,864.178C473.545,864.178 473.897,864.53 473.897,864.958C473.897,865.026 473.888,865.094 473.87,865.16C473.397,867.087 473.083,868.78 472.93,870.24C472.897,870.6 472.963,870.88 473.13,871.08C473.181,871.143 473.238,871.201 473.3,871.254C473.84,871.719 474.647,871.681 475.087,871.17C475.138,871.111 475.182,871.048 475.22,870.98C476.86,868.093 478.24,864.907 479.36,861.42L480.83,857.19C480.867,857.065 480.997,856.988 481.13,857.01L481.42,857.06C481.657,857.098 481.833,857.304 481.833,857.544C481.833,857.604 481.822,857.664 481.8,857.72L480.79,860.41C480.757,860.499 480.744,860.594 480.751,860.689C480.779,861.039 481.086,861.304 481.43,861.276C481.526,861.269 481.618,861.239 481.7,861.19L485.72,858.87C485.795,858.828 485.88,858.806 485.966,858.806C486.24,858.806 486.466,859.031 486.466,859.306C486.466,859.33 486.464,859.355 486.46,859.38C485.51,865.36 486.73,870.13 489.15,876.19C494.03,888.4 506.14,895.73 519.01,896.59C527.71,897.18 534.55,894.8 542.41,891.9C543.483,891.507 544.447,890.807 545.3,889.8C545.345,889.748 545.383,889.689 545.41,889.625C545.561,889.278 545.396,888.866 545.044,888.713C544.982,888.686 544.917,888.668 544.85,888.66C544.497,888.62 544.097,888.457 543.65,888.17C543.35,887.98 543.224,887.602 543.35,887.27C544.723,883.777 545.703,881.69 546.29,881.01C549.257,877.55 550.85,875.68 551.07,875.4C551.43,875.001 551.889,874.707 552.4,874.55L557.73,872.88C558.862,872.528 559.646,871.485 559.67,870.3L559.68,870.05C559.68,870.049 559.68,870.047 559.68,870.046C559.68,869.333 559.093,868.746 558.38,868.746C558.223,868.746 558.067,868.774 557.92,868.83C537.14,876.7 511.54,869.46 493.15,859.08C492.383,858.647 491.627,858.077 490.88,857.37C490.719,857.219 490.627,857.007 490.627,856.786C490.627,856.525 490.755,856.279 490.97,856.13L493.06,854.69L498.61,851.98C498.692,851.944 498.79,851.98 498.83,852.06L499,852.45C499.002,852.455 499.004,852.46 499.006,852.465C499.06,852.615 498.986,852.781 498.841,852.833C498.834,852.836 498.827,852.838 498.82,852.84C496.36,853.553 494.637,854.693 493.65,856.26C493.472,856.551 493.464,856.918 493.63,857.22C494.39,858.593 495.777,858.963 497.79,858.33C501.23,857.25 504.383,856.137 507.25,854.99C507.286,854.978 507.324,854.991 507.34,855.02L507.48,855.35C507.528,855.465 507.475,855.6 507.36,855.65C505.113,856.523 503.283,857.603 501.87,858.89C501.762,858.989 501.67,859.102 501.596,859.228C501.185,859.922 501.415,860.829 502.104,861.237C502.23,861.311 502.367,861.366 502.51,861.4C507.45,862.57 513.72,857.32 518.83,856.6C518.84,856.599 518.85,856.599 518.861,856.599C519.036,856.599 519.181,856.743 519.181,856.919C519.181,857.029 519.124,857.132 519.03,857.19C517.22,858.26 512.39,860.44 511.09,862.59C511.074,862.617 511.059,862.644 511.044,862.671C510.62,863.477 510.953,864.499 511.783,864.937C511.811,864.952 511.84,864.966 511.87,864.98C512.45,865.247 513.12,865.197 513.88,864.83C517.68,862.98 521.22,861.37 524.73,859C525.237,858.66 525.903,858.53 526.73,858.61C526.769,858.614 526.807,858.626 526.841,858.646C526.968,858.723 527.007,858.894 526.927,859.026C526.907,859.059 526.881,859.087 526.85,859.11C525.023,860.363 523.403,861.743 521.99,863.25C521.459,863.818 521.442,864.709 521.95,865.31C524.11,867.86 531.17,862.49 534.09,860.46C534.131,860.435 534.179,860.421 534.227,860.421C534.37,860.421 534.487,860.538 534.487,860.681C534.487,860.734 534.471,860.786 534.44,860.83L532.02,863.89C531.824,864.135 531.718,864.439 531.718,864.752C531.718,865.483 532.299,866.094 533.03,866.13C534.357,866.203 535.39,865.953 536.13,865.38C538.057,863.88 540.127,862.587 542.34,861.5C542.372,861.484 542.408,861.475 542.444,861.475C542.57,861.475 542.674,861.579 542.674,861.705C542.674,861.754 542.658,861.801 542.63,861.84L541.34,863.79C541.329,863.806 541.319,863.822 541.31,863.839C541.003,864.365 541.178,865.048 541.699,865.352C541.716,865.362 541.733,865.371 541.75,865.38C543.08,866.07 544.33,865.89 545.49,864.79C546.597,863.75 548.04,862.637 549.82,861.45C549.901,861.396 549.996,861.367 550.093,861.367C550.362,861.367 550.583,861.588 550.583,861.857C550.583,861.954 550.554,862.049 550.5,862.13L549.32,863.9C549.237,864.025 549.193,864.171 549.193,864.321C549.193,864.738 549.536,865.081 549.953,865.081C549.996,865.081 550.038,865.077 550.08,865.07C552.13,864.7 553.28,863.86 554.57,862.05C555.963,860.103 557.72,858.787 559.84,858.1C559.903,858.078 559.969,858.066 560.035,858.066C560.353,858.066 560.615,858.328 560.615,858.646C560.615,858.812 560.544,858.97 560.42,859.08L554.84,864.36C554.543,864.643 554.375,865.036 554.375,865.446C554.375,866.007 554.69,866.524 555.19,866.78L555.21,866.79C556.185,867.336 557.424,867.093 558.12,866.22L560.27,863.52C560.405,863.356 560.606,863.261 560.818,863.261C561.208,863.261 561.528,863.581 561.528,863.971C561.528,864.007 561.526,864.044 561.52,864.08L561.3,865.4C561.288,865.46 561.282,865.521 561.282,865.582C561.282,866.103 561.711,866.532 562.232,866.532C562.582,866.532 562.905,866.338 563.07,866.03C563.903,864.57 565.33,863.94 567.35,864.14Z" style="fill:rgb(253,253,253);fill-rule:nonzero;"/>
        <path d="M493.06,854.69L490.97,856.13C490.755,856.279 490.627,856.525 490.627,856.786C490.627,857.007 490.719,857.219 490.88,857.37C491.627,858.077 492.383,858.647 493.15,859.08C511.54,869.46 537.14,876.7 557.92,868.83C558.067,868.774 558.223,868.746 558.38,868.746C559.093,868.746 559.68,869.333 559.68,870.046C559.68,870.047 559.68,870.049 559.68,870.05L559.67,870.3C559.646,871.485 558.862,872.528 557.73,872.88L552.4,874.55C551.889,874.707 551.43,875.001 551.07,875.4C550.85,875.68 549.257,877.55 546.29,881.01C545.703,881.69 544.723,883.777 543.35,887.27C543.224,887.602 543.35,887.98 543.65,888.17C544.097,888.457 544.497,888.62 544.85,888.66C544.917,888.668 544.982,888.686 545.044,888.713C545.396,888.866 545.561,889.278 545.41,889.625C545.383,889.689 545.345,889.748 545.3,889.8C544.447,890.807 543.483,891.507 542.41,891.9C534.55,894.8 527.71,897.18 519.01,896.59C506.14,895.73 494.03,888.4 489.15,876.19C486.73,870.13 485.51,865.36 486.46,859.38C486.464,859.355 486.466,859.33 486.466,859.306C486.466,859.031 486.24,858.806 485.966,858.806C485.88,858.806 485.795,858.828 485.72,858.87L481.7,861.19C481.618,861.239 481.526,861.269 481.43,861.276C481.086,861.304 480.779,861.039 480.751,860.689C480.744,860.594 480.757,860.499 480.79,860.41L481.8,857.72C481.822,857.664 481.833,857.604 481.833,857.544C481.833,857.304 481.657,857.098 481.42,857.06L481.13,857.01C480.997,856.988 480.867,857.065 480.83,857.19L479.36,861.42C478.887,861.973 478.447,862.263 478.04,862.29C477.547,862.323 477.207,861.98 477.02,861.26C476.787,860.393 476.893,859.477 477.34,858.51L481.11,853.61C485.47,852.583 489.453,852.943 493.06,854.69ZM493.55,876.89C499.617,887.037 508.607,892.413 520.52,893.02C526.947,893.347 532.983,892.047 538.63,889.12C538.824,889.019 538.958,888.829 538.99,888.61C539.617,883.81 541.91,879.697 545.87,876.27C545.916,876.23 545.951,876.179 545.974,876.122C546.051,875.929 545.959,875.708 545.77,875.633C545.713,875.61 545.651,875.602 545.59,875.61C528.74,877.45 510.96,873.09 496.23,865.07C494.22,863.97 491.71,861.85 490.6,861.41C490.562,861.394 490.522,861.384 490.481,861.378C490.22,861.344 489.977,861.535 489.941,861.801C489.936,861.841 489.936,861.881 489.94,861.92L490.93,869.46C490.969,869.755 491.083,870.034 491.26,870.27C492.12,871.397 493.39,872.373 495.07,873.2C500.39,875.827 504.717,878.033 508.05,879.82C508.293,879.948 508.446,880.201 508.446,880.475C508.446,880.749 508.293,881.002 508.05,881.13C507.97,881.177 507.807,881.177 507.56,881.13C502.987,880.363 498.47,878.79 494.01,876.41C493.958,876.384 493.899,876.37 493.841,876.372C493.649,876.376 493.494,876.533 493.498,876.72C493.5,876.78 493.518,876.839 493.55,876.89Z" style="fill-rule:nonzero;"/>
        <path d="M459.25,879.79L455.94,870.2C455.927,870.16 455.913,870.12 455.9,870.08L454.08,862.81L458.38,858.11C458.402,858.086 458.433,858.069 458.466,858.063C458.547,858.048 458.625,858.097 458.639,858.173C458.645,858.206 458.639,858.241 458.62,858.27C456.607,862.237 456.11,866.713 457.13,871.7C457.35,872.767 458.01,873.33 459.11,873.39C459.134,873.391 459.158,873.394 459.181,873.4C459.361,873.446 459.471,873.637 459.424,873.823C459.419,873.846 459.41,873.868 459.4,873.89C458.627,875.43 458.55,876.627 459.17,877.48C459.523,877.967 459.55,878.737 459.25,879.79Z" style="fill:rgb(253,253,253);fill-rule:nonzero;"/>
        <path d="M469.47,861C469.477,861.1 469.443,861.187 469.37,861.26C469.297,861.327 469.207,861.353 469.1,861.34C468.913,861.313 468.813,861.21 468.8,861.03L469.47,861Z" style="fill:rgb(122,127,112);fill-rule:nonzero;"/>
        <path d="M493.55,876.89C493.518,876.839 493.5,876.78 493.498,876.72C493.494,876.533 493.649,876.376 493.841,876.372C493.899,876.37 493.958,876.384 494.01,876.41C498.47,878.79 502.987,880.363 507.56,881.13C507.807,881.177 507.97,881.177 508.05,881.13C508.293,881.002 508.446,880.749 508.446,880.475C508.446,880.201 508.293,879.948 508.05,879.82C504.717,878.033 500.39,875.827 495.07,873.2C493.39,872.373 492.12,871.397 491.26,870.27C491.083,870.034 490.969,869.755 490.93,869.46L489.94,861.92C489.936,861.881 489.936,861.841 489.941,861.801C489.977,861.535 490.22,861.344 490.481,861.378C490.522,861.384 490.562,861.394 490.6,861.41C491.71,861.85 494.22,863.97 496.23,865.07C510.96,873.09 528.74,877.45 545.59,875.61C545.651,875.602 545.713,875.61 545.77,875.633C545.959,875.708 546.051,875.929 545.974,876.122C545.951,876.179 545.916,876.23 545.87,876.27C541.91,879.697 539.617,883.81 538.99,888.61C538.958,888.829 538.824,889.019 538.63,889.12C532.983,892.047 526.947,893.347 520.52,893.02C508.607,892.413 499.617,887.037 493.55,876.89Z" style="fill:rgb(253,253,253);fill-rule:nonzero;"/>
        <path d="M566.83,885.78L565.24,892.4C565.163,892.715 564.974,892.987 564.71,893.16C563.957,893.653 562.963,893.82 561.73,893.66L561.95,890.46C562.137,888.127 562.747,885.977 563.78,884.01C563.979,883.644 564.364,883.416 564.781,883.416C565.406,883.416 565.921,883.93 565.921,884.556C565.921,884.571 565.921,884.585 565.92,884.6L565.86,885.62C565.859,885.663 565.864,885.706 565.875,885.747C565.935,885.969 566.164,886.104 566.381,886.045C566.423,886.033 566.463,886.015 566.5,885.99L566.83,885.78Z" style="fill:rgb(47,47,45);fill-rule:nonzero;"/>
        <path d="M462.12,888.71L461.36,886.6C463.227,887.027 463.48,887.73 462.12,888.71Z" style="fill:white;fill-opacity:0.56;fill-rule:nonzero;"/>
        <path d="M560.64,891.31C560,893.59 560.093,894.583 560.92,894.29C559.533,897.27 557.79,899.647 555.69,901.42C553.99,902.86 551.557,904.53 548.39,906.43C549.35,904.237 550.19,902.033 550.91,899.82C551.39,898.34 551.827,897.31 552.22,896.73C553.1,895.443 554.04,895.027 555.04,895.48L554.68,900.57C554.679,900.584 554.678,900.598 554.678,900.611C554.678,900.836 554.863,901.021 555.088,901.021C555.257,901.021 555.409,900.917 555.47,900.76C556.283,898.813 556.71,896.71 556.75,894.45C557.283,892.623 557.95,891.383 558.75,890.73C559.323,890.263 559.953,890.457 560.64,891.31Z" style="fill:rgb(47,47,45);fill-rule:nonzero;"/>
        <path d="M561.95,890.46L561.73,893.66L560.92,894.29C560.093,894.583 560,893.59 560.64,891.31C560.973,891.49 561.41,891.207 561.95,890.46Z" style="fill:rgb(122,127,112);fill-rule:nonzero;"/>
        <path d="M477.02,904.82L468.13,899.18C467.392,898.719 466.758,898.105 466.27,897.38L462.8,892.27C463.533,891.923 464.3,892.18 465.1,893.04C465.204,893.155 465.353,893.221 465.508,893.221C465.695,893.221 465.869,893.127 465.97,892.97L467.15,891.19C467.221,891.088 467.337,891.028 467.461,891.028C467.67,891.028 467.841,891.199 467.841,891.408C467.841,891.419 467.841,891.429 467.84,891.44C467.667,893.267 467.577,894.587 467.57,895.4C467.563,897.593 468.473,899.043 470.3,899.75C470.614,899.874 470.957,899.905 471.29,899.84C473.75,899.34 475.63,895.46 476.72,893.43C476.751,893.382 476.805,893.353 476.862,893.353C476.955,893.353 477.032,893.43 477.032,893.523C477.032,893.532 477.031,893.541 477.03,893.55C476.137,897.17 476.133,900.927 477.02,904.82Z" style="fill:rgb(253,253,253);fill-rule:nonzero;"/>
        <path d="M556.75,894.45C556.71,896.71 556.283,898.813 555.47,900.76C555.409,900.917 555.257,901.021 555.088,901.021C554.863,901.021 554.678,900.836 554.678,900.611C554.678,900.598 554.679,900.584 554.68,900.57L555.04,895.48C555.247,896.213 555.817,895.87 556.75,894.45Z" style="fill:rgb(180,209,220);fill-rule:nonzero;"/>
        <path d="M545.02,908.85L538.46,912.72C541.327,908.127 543.237,903.85 544.19,899.89C544.6,898.19 545.1,897.26 546.86,897.48C547.307,897.537 547.647,897.922 547.647,898.373C547.647,898.446 547.638,898.519 547.62,898.59L545.02,908.85Z" style="fill:rgb(47,47,45);fill-rule:nonzero;"/>
        <path d="M492.31,912.63C490.35,912.637 488.133,912.207 485.66,911.34C488.473,909.213 490.193,906.28 490.82,902.54C490.851,902.409 490.968,902.316 491.102,902.316C491.248,902.316 491.372,902.426 491.39,902.57L492.31,912.63Z" style="fill:rgb(253,253,253);fill-rule:nonzero;"/>
        <path d="M459.7,907.94C459.497,907.876 459.358,907.686 459.358,907.473C459.358,907.299 459.45,907.138 459.6,907.05L465.14,903.85C465.874,903.427 466.779,903.408 467.54,903.8C472.28,906.23 474.95,908.8 480.18,913.31C485.46,917.86 493.85,916.55 499.06,917.36C499.364,917.414 499.587,917.681 499.587,917.99C499.587,918.196 499.487,918.39 499.32,918.51C494.627,921.817 491.15,925.917 488.89,930.81C487.22,934.43 485.55,936.47 482.43,937.98C482.355,938.016 482.273,938.034 482.19,938.034C481.883,938.034 481.63,937.781 481.63,937.474C481.63,937.473 481.63,937.471 481.63,937.47C481.64,932.23 482.29,926.01 479.66,922.33C474.68,915.35 468.027,910.553 459.7,907.94Z" style="fill:rgb(253,253,253);fill-rule:nonzero;"/>
        <path d="M481.42,909.12C480.56,908.64 480.077,908.04 479.97,907.32C480.203,906.727 480.52,906.3 480.92,906.04C480.996,905.99 481.086,905.963 481.177,905.963C481.366,905.963 481.537,906.077 481.61,906.25C481.983,907.13 481.92,908.087 481.42,909.12Z" style="fill:rgb(253,253,253);fill-rule:nonzero;"/>
        <path d="M497.21,913.2C496.557,913.173 495.753,912.96 494.8,912.56C495.327,911 496.047,909.563 496.96,908.25C497.038,908.149 497.158,908.09 497.285,908.09C497.51,908.09 497.695,908.275 497.695,908.5C497.695,908.537 497.69,908.574 497.68,908.61C497.207,910.09 497.05,911.62 497.21,913.2Z" style="fill:rgb(253,253,253);fill-rule:nonzero;"/>
        <path d="M478.47,1024L421.09,1024C422.077,1015.78 423.083,1009.14 424.11,1004.08C426.097,994.26 429.58,984.073 434.56,973.52C434.75,973.121 435.047,972.779 435.42,972.53C437.287,971.303 438.643,969.533 439.49,967.22C442.343,959.387 445.14,953.447 447.88,949.4C448.893,947.9 450.857,946.177 453.77,944.23C454.984,943.418 455.51,941.881 455.05,940.49L455,940.32C454.728,939.506 453.961,938.954 453.103,938.954C452.747,938.954 452.397,939.05 452.09,939.23C447.663,941.857 444.427,945.327 442.38,949.64C439.847,954.96 437.3,961.037 434.74,967.87C434.497,968.513 433.787,968.862 433.13,968.66L405.13,960.14C404.936,960.082 404.802,959.902 404.802,959.699C404.802,959.645 404.811,959.591 404.83,959.54C406.377,955.32 408.543,950.673 411.33,945.6C414.67,939.53 418.76,935.15 424.26,930.32C425.491,929.242 426.635,928.071 427.68,926.82C430.967,922.893 433.537,920.327 435.39,919.12C440.223,915.953 444.42,913.16 447.98,910.74C449.53,909.69 451.91,909.68 453.89,910.17C462.26,912.24 469.96,916.26 475.65,923.06C477.75,925.58 478.23,926.79 478.22,930.27C478.21,933.65 476.84,943.5 483.17,941.21C486.81,939.883 489.63,937.433 491.63,933.86C491.742,933.654 492.002,933.571 492.22,933.67L492.23,933.68C492.482,933.795 492.606,934.085 492.51,934.34C491.843,936.107 491.287,937.357 490.84,938.09C486.23,945.68 482.63,950.24 480.9,956.42C476.19,973.22 476.74,988.82 477.37,1007.75C477.603,1014.71 477.97,1020.13 478.47,1024Z" style="fill:rgb(249,211,142);fill-rule:nonzero;"/>
        <path d="M526.78,915.57C526.22,915.977 525.44,916.307 524.44,916.56C524.16,916.54 523.93,916.493 523.75,916.42C523.733,916.413 523.717,916.406 523.701,916.398C523.453,916.268 523.354,915.961 523.481,915.718C523.49,915.702 523.499,915.686 523.51,915.67L527.02,910.38C527.053,910.329 527.1,910.289 527.155,910.266C527.311,910.198 527.497,910.276 527.566,910.437C527.59,910.492 527.598,910.552 527.59,910.61L526.78,915.57Z" style="fill:rgb(253,253,253);fill-rule:nonzero;"/>
        <path d="M530.85,911.19L531.3,911.85C531.16,912.01 531.017,912.133 530.87,912.22L530.85,911.19Z" style="fill:rgb(122,127,112);fill-rule:nonzero;"/>
        <path d="M502.22,914.11L501.8,913.66C501.88,913.193 502.043,912.837 502.29,912.59C502.577,912.31 502.87,912.29 503.17,912.53C503.55,912.83 503.713,913.16 503.66,913.52C503.626,913.772 503.428,913.97 503.18,914L502.22,914.11Z" style="fill:rgb(253,253,253);fill-rule:nonzero;"/>
        <path d="M511.7,914.54C511.053,915.8 510.17,916.02 509.05,915.2C509.763,914.04 510.73,913.167 511.95,912.58C512,912.557 512.055,912.546 512.11,912.546C512.324,912.546 512.5,912.722 512.5,912.936C512.5,912.937 512.5,912.939 512.5,912.94C512.487,913.393 512.22,913.927 511.7,914.54Z" style="fill:rgb(253,253,253);fill-rule:nonzero;"/>
        <path d="M530.83,914.9C530.603,914.467 530.713,914.107 531.16,913.82C531.887,913.293 532.633,912.99 533.4,912.91C533.412,912.909 533.424,912.908 533.436,912.908C533.661,912.908 533.846,913.093 533.846,913.318C533.846,913.41 533.816,913.498 533.76,913.57C533.047,914.443 532.07,914.887 530.83,914.9Z" style="fill:white;fill-opacity:0.56;fill-rule:nonzero;"/>
        <path d="M518.81,915.46C519.323,914.813 519.587,914.487 519.6,914.48C519.697,914.43 519.809,914.413 519.918,914.432C520.188,914.478 520.373,914.735 520.327,915C520.308,915.108 520.253,915.207 520.17,915.28C519.603,915.833 519.28,916.117 519.2,916.13C519.182,916.132 519.163,916.134 519.145,916.134C518.914,916.134 518.725,915.944 518.725,915.714C518.725,915.622 518.755,915.533 518.81,915.46Z" style="fill:rgb(122,127,112);fill-rule:nonzero;"/>
        <path d="M493.93,940.2C494.01,953.933 495.71,967.907 499.03,982.12C499.032,982.129 499.034,982.138 499.036,982.147C499.218,983.017 498.656,983.881 497.791,984.062C497.777,984.065 497.764,984.067 497.75,984.07L489.15,985.67C489.142,985.672 489.133,985.673 489.125,985.674C488.584,985.765 488.064,985.39 487.972,984.843C487.971,984.839 487.971,984.834 487.97,984.83C486.46,974.07 488.2,963.01 486.77,952.86C486.67,952.185 486.804,951.496 487.15,950.91L493.45,940.07C493.498,939.994 493.581,939.948 493.67,939.948C493.81,939.948 493.926,940.061 493.93,940.2Z" style="fill:rgb(249,211,142);fill-rule:nonzero;"/>
        <path d="M499.36,1024L482.21,1024C481.79,1021.87 481.53,1019.71 481.43,1017.5C480.843,1004.54 480.657,992.46 480.87,981.26C480.983,975.213 481.717,968.48 483.07,961.06C483.1,960.918 483.225,960.819 483.36,960.83L483.62,960.84C483.647,960.84 483.67,960.863 483.67,960.89C483.657,961.523 483.643,962.14 483.63,962.74C483.463,968.46 483.657,975.203 484.21,982.97C484.41,985.74 485.42,989.68 488.79,989.32C489.917,989.2 490.733,989.127 491.24,989.1C491.56,989.082 491.844,989.318 491.89,989.64C493.577,1001.24 496.067,1012.69 499.36,1024Z" style="fill:rgb(253,253,253);fill-rule:nonzero;"/>
        <path d="M417.29,1024L400.71,1024C399.45,1009.23 398.54,999.5 402.26,986.48C404.533,978.513 406.71,971.44 408.79,965.26C408.889,964.969 409.209,964.811 409.5,964.91L429.74,971.62C429.951,971.691 430.093,971.89 430.093,972.113C430.093,972.184 430.078,972.255 430.05,972.32C425.17,983.71 421.11,994.28 419.49,1006.7C418.743,1012.46 418.01,1018.23 417.29,1024Z" style="fill:rgb(253,253,253);fill-rule:nonzero;"/>
        <path d="M397.6,1024L396.26,1024L396.71,1020.49C396.728,1020.42 396.792,1020.37 396.865,1020.37C396.938,1020.37 397.002,1020.42 397.02,1020.49L397.6,1024Z" style="fill:rgb(122,127,112);fill-rule:nonzero;"/>
    </g>
</svg>
