<svg aria-hidden="true" style="position: absolute; width: 0; height: 0; overflow: hidden;" version="1.1" xmlns="http://www.w3.org/2000/svg" xmlns:xlink="http://www.w3.org/1999/xlink">
<defs>
<symbol id="icon-heart" viewBox="0 0 16 16">
<path d="M11.75 1c-1.624 0-3.034 0.911-3.75 2.249-0.716-1.338-2.126-2.249-3.75-2.249-2.347 0-4.25 1.903-4.25 4.25 0 5.75 8 9.75 8 9.75s8-4 8-9.75c0-2.347-1.903-4.25-4.25-4.25z"></path>
</symbol>
<symbol id="icon-arrow-right" viewBox="0 0 16 16">
<path d="M9.707 13.707l5-5c0.391-0.39 0.391-1.024 0-1.414l-5-5c-0.391-0.391-1.024-0.391-1.414 0s-0.391 1.024 0 1.414l3.293 3.293h-9.586c-0.552 0-1 0.448-1 1s0.448 1 1 1h9.586l-3.293 3.293c-0.195 0.195-0.293 0.451-0.293 0.707s0.098 0.512 0.293 0.707c0.391 0.391 1.024 0.391 1.414 0z"></path>
</symbol>
<symbol id="icon-arrow-left" viewBox="0 0 16 16">
<path d="M6.293 13.707l-5-5c-0.391-0.39-0.391-1.024 0-1.414l5-5c0.391-0.391 1.024-0.391 1.414 0s0.391 1.024 0 1.414l-3.293 3.293h9.586c0.552 0 1 0.448 1 1s-0.448 1-1 1h-9.586l3.293 3.293c0.195 0.195 0.293 0.451 0.293 0.707s-0.098 0.512-0.293 0.707c-0.391 0.391-1.024 0.391-1.414 0z"></path>
</symbol>
<symbol id="icon-home" viewBox="0 0 16 16">
<path d="M16 8.5l-8-8-8 8 1.5 1.5 1.5-1.5v7.5h4v-3h2v3h4v-7.5l1.5 1.5 1.5-1.5zM12 15h-2v-3h-4v3h-2v-7.5l4-4 4 4v7.5z"></path>
</symbol>
<symbol id="icon-envelop" viewBox="0 0 16 16">
<path d="M14.5 2h-13c-0.825 0-1.5 0.675-1.5 1.5v9c0 0.825 0.675 1.5 1.5 1.5h13c0.825 0 1.5-0.675 1.5-1.5v-9c0-0.825-0.675-1.5-1.5-1.5zM14 5l-6 4.5-6-4.5v-1l6 3 6-3v1z"></path>
</symbol>
<symbol id="icon-twitter" viewBox="0 0 16 16">
<path d="M16 3.538c-0.588 0.263-1.222 0.438-1.884 0.516 0.678-0.406 1.197-1.050 1.444-1.816-0.634 0.375-1.338 0.65-2.084 0.797-0.6-0.638-1.453-1.034-2.397-1.034-1.813 0-3.281 1.469-3.281 3.281 0 0.256 0.028 0.506 0.084 0.747-2.728-0.138-5.147-1.444-6.766-3.431-0.281 0.484-0.444 1.050-0.444 1.65 0 1.138 0.578 2.144 1.459 2.731-0.538-0.016-1.044-0.166-1.488-0.409 0 0.013 0 0.028 0 0.041 0 1.591 1.131 2.919 2.634 3.219-0.275 0.075-0.566 0.116-0.866 0.116-0.212 0-0.416-0.022-0.619-0.059 0.419 1.303 1.631 2.253 3.066 2.281-1.125 0.881-2.538 1.406-4.078 1.406-0.266 0-0.525-0.016-0.784-0.047 1.456 0.934 3.181 1.475 5.034 1.475 6.037 0 9.341-5.003 9.341-9.341 0-0.144-0.003-0.284-0.009-0.425 0.641-0.459 1.197-1.038 1.637-1.697z"></path>
</symbol>
<symbol id="icon-github" viewBox="0 0 16 16">
<path d="M8 0.198c-4.418 0-8 3.582-8 8 0 3.535 2.292 6.533 5.471 7.591 0.4 0.074 0.547-0.174 0.547-0.385 0-0.191-0.008-0.821-0.011-1.489-2.226 0.484-2.695-0.944-2.695-0.944-0.364-0.925-0.888-1.171-0.888-1.171-0.726-0.497 0.055-0.486 0.055-0.486 0.803 0.056 1.226 0.824 1.226 0.824 0.714 1.223 1.872 0.869 2.328 0.665 0.072-0.517 0.279-0.87 0.508-1.070-1.777-0.202-3.645-0.888-3.645-3.954 0-0.873 0.313-1.587 0.824-2.147-0.083-0.202-0.357-1.015 0.077-2.117 0 0 0.672-0.215 2.201 0.82 0.638-0.177 1.322-0.266 2.002-0.269 0.68 0.003 1.365 0.092 2.004 0.269 1.527-1.035 2.198-0.82 2.198-0.82 0.435 1.102 0.162 1.916 0.079 2.117 0.513 0.56 0.823 1.274 0.823 2.147 0 3.073-1.872 3.749-3.653 3.947 0.287 0.248 0.543 0.735 0.543 1.481 0 1.070-0.009 1.932-0.009 2.195 0 0.213 0.144 0.462 0.55 0.384 3.177-1.059 5.466-4.057 5.466-7.59 0-4.418-3.582-8-8-8z"></path>
</symbol>
<symbol id="icon-linkedin" viewBox="0 0 16 16">
<path d="M6 6h2.767v1.418h0.040c0.385-0.691 1.327-1.418 2.732-1.418 2.921 0 3.461 1.818 3.461 4.183v4.817h-2.885v-4.27c0-1.018-0.021-2.329-1.5-2.329-1.502 0-1.732 1.109-1.732 2.255v4.344h-2.883v-9z"></path>
<path d="M1 6h3v9h-3v-9z"></path>
<path d="M4 3.5c0 0.828-0.672 1.5-1.5 1.5s-1.5-0.672-1.5-1.5c0-0.828 0.672-1.5 1.5-1.5s1.5 0.672 1.5 1.5z"></path>
</symbol>
<symbol id="icon-knife" viewBox="0 0 20 20">
<path d="M3.5 17c-0.132 0-0.261-0.053-0.353-0.147s-0.147-0.222-0.147-0.353 0.053-0.26 0.147-0.353c0.093-0.093 0.222-0.147 0.353-0.147s0.26 0.053 0.353 0.147c0.093 0.093 0.147 0.222 0.147 0.353s-0.053 0.261-0.147 0.353c-0.093 0.093-0.222 0.147-0.353 0.147z"></path>
<path d="M16.5 17c-0.132 0-0.261-0.053-0.353-0.147s-0.147-0.222-0.147-0.353 0.053-0.261 0.147-0.353c0.093-0.093 0.222-0.147 0.353-0.147s0.261 0.053 0.353 0.147c0.093 0.093 0.147 0.222 0.147 0.353s-0.053 0.261-0.147 0.353c-0.093 0.093-0.222 0.147-0.353 0.147z"></path>
<path d="M16.5 11h-7.677l1.591-3.413c1.282-2.749 0.088-6.027-2.66-7.309-0.063-0.029-0.128-0.044-0.193-0.047-0.114-0.004-0.225 0.031-0.316 0.098-0.026 0.019-0.050 0.041-0.072 0.065s-0.042 0.051-0.059 0.080c-0.009 0.014-0.017 0.030-0.024 0.045l-6.762 14.501c-0.001 0.003-0.002 0.005-0.003 0.008-0.208 0.448-0.325 0.946-0.325 1.471 0 1.93 1.57 3.5 3.5 3.5h13c1.93 0 3.5-1.57 3.5-3.5v-2c0-1.93-1.57-3.5-3.5-3.5zM16.5 12c1.209 0 2.219 0.862 2.45 2.003-0.632-0.62-1.497-1.003-2.45-1.003h-8.609l0.466-1h8.143zM9.508 7.165l-2.721 5.835h-3.287c-0.433 0-0.848 0.079-1.231 0.224l5.504-11.803c1.931 1.176 2.712 3.648 1.735 5.744zM16.5 19h-13c-1.378 0-2.5-1.122-2.5-2.5s1.122-2.5 2.5-2.5h3.603c0.001 0 0.002 0 0.002 0s0.002-0 0.003-0h9.391c1.378 0 2.5 1.122 2.5 2.5s-1.122 2.5-2.5 2.5z"></path>
</symbol>
<symbol id="icon-graduation-hat" viewBox="0 0 20 20">
<path d="M18.658 7.026l-9-3c-0.103-0.034-0.214-0.034-0.316 0l-9 3c-0.204 0.068-0.342 0.259-0.342 0.474s0.138 0.406 0.342 0.474l2.658 0.886v2.64c0 0.133 0.053 0.26 0.146 0.354 0.088 0.088 2.194 2.146 6.354 2.146 1.513 0 2.924-0.272 4.195-0.809 0.254-0.107 0.373-0.401 0.266-0.655s-0.401-0.373-0.655-0.266c-1.147 0.485-2.427 0.73-3.805 0.73-1.945 0-3.376-0.504-4.234-0.926-0.635-0.313-1.060-0.629-1.266-0.799v-2.081l5.342 1.781c0.051 0.017 0.105 0.026 0.158 0.026s0.107-0.009 0.158-0.026l5.342-1.781v0.892c-0.582 0.206-1 0.762-1 1.414 0 0.611 0.367 1.137 0.892 1.371l-0.877 3.508c-0.037 0.149-0.004 0.308 0.091 0.429s0.24 0.192 0.394 0.192h2c0.154 0 0.299-0.071 0.394-0.192s0.128-0.28 0.091-0.429l-0.877-3.508c0.525-0.234 0.892-0.76 0.892-1.371 0-0.652-0.418-1.208-1-1.414v-1.226l2.658-0.886c0.204-0.068 0.342-0.259 0.342-0.474s-0.138-0.406-0.342-0.474zM15.5 11c0.276 0 0.5 0.224 0.5 0.5s-0.224 0.5-0.5 0.5-0.5-0.224-0.5-0.5 0.224-0.5 0.5-0.5zM15.14 16l0.36-1.438 0.36 1.438h-0.719zM15.46 7.986l-5.877-0.98c-0.273-0.045-0.53 0.139-0.575 0.411s0.139 0.53 0.411 0.575l4.014 0.669-3.932 1.311-7.419-2.473 7.419-2.473 7.419 2.473-1.459 0.486z"></path>
</symbol>
<symbol id="icon-contact" viewBox="0 0 20 20">
<path d="M16.5 1h-13c-0.827 0-1.5 0.673-1.5 1.5v1.5h-0.5c-0.276 0-0.5 0.224-0.5 0.5s0.224 0.5 0.5 0.5h0.5v1h-0.5c-0.276 0-0.5 0.224-0.5 0.5s0.224 0.5 0.5 0.5h0.5v1h-0.5c-0.276 0-0.5 0.224-0.5 0.5s0.224 0.5 0.5 0.5h0.5v1h-0.5c-0.276 0-0.5 0.224-0.5 0.5s0.224 0.5 0.5 0.5h0.5v1h-0.5c-0.276 0-0.5 0.224-0.5 0.5s0.224 0.5 0.5 0.5h0.5v1h-0.5c-0.276 0-0.5 0.224-0.5 0.5s0.224 0.5 0.5 0.5h0.5v1h-0.5c-0.276 0-0.5 0.224-0.5 0.5s0.224 0.5 0.5 0.5h0.5v1.5c0 0.827 0.673 1.5 1.5 1.5h13c0.827 0 1.5-0.673 1.5-1.5v-16c0-0.827-0.673-1.5-1.5-1.5zM17 18.5c0 0.276-0.224 0.5-0.5 0.5h-13c-0.276 0-0.5-0.224-0.5-0.5v-1.5h1.5c0.276 0 0.5-0.224 0.5-0.5s-0.224-0.5-0.5-0.5h-1.5v-1h1.5c0.276 0 0.5-0.224 0.5-0.5s-0.224-0.5-0.5-0.5h-1.5v-1h1.5c0.276 0 0.5-0.224 0.5-0.5s-0.224-0.5-0.5-0.5h-1.5v-1h1.5c0.276 0 0.5-0.224 0.5-0.5s-0.224-0.5-0.5-0.5h-1.5v-1h1.5c0.276 0 0.5-0.224 0.5-0.5s-0.224-0.5-0.5-0.5h-1.5v-1h1.5c0.276 0 0.5-0.224 0.5-0.5s-0.224-0.5-0.5-0.5h-1.5v-1h1.5c0.276 0 0.5-0.224 0.5-0.5s-0.224-0.5-0.5-0.5h-1.5v-1.5c0-0.276 0.224-0.5 0.5-0.5h13c0.276 0 0.5 0.224 0.5 0.5v16z"></path>
<path d="M11.114 15.129c-0 0-0 0-0.001 0-0.992 0-3.346-0.015-3.769-0.154-0.432-0.142-0.65-0.622-0.554-1.223 0.103-0.647 0.533-1.324 1.149-1.811 0.542-0.428 1.513-0.939 3.060-0.94h0.005c1.214 0 2.264 0.318 3.037 0.921 0.623 0.486 1.046 1.139 1.16 1.793 0.106 0.609-0.103 1.102-0.532 1.256-0.12 0.043-0.332 0.092-1.342 0.127-0.596 0.021-1.382 0.032-2.213 0.032zM7.767 14.040c0.423 0.046 1.677 0.089 3.347 0.089 0 0 0.001 0 0.001 0 1.783 0 2.771-0.047 3.116-0.086 0.003-0.141-0.049-0.434-0.28-0.779-0.317-0.472-1.121-1.264-2.945-1.264h-0.004c-1.818 0.001-2.626 0.791-2.946 1.262-0.232 0.342-0.288 0.634-0.287 0.777z"></path>
<path d="M11 10c-1.103 0-2-0.897-2-2s0.897-2 2-2c1.103 0 2 0.897 2 2s-0.897 2-2 2zM11 7c-0.551 0-1 0.449-1 1s0.449 1 1 1 1-0.449 1-1-0.449-1-1-1z"></path>
</symbol>
<symbol id="icon-dna" viewBox="0 0 20 20">
<path d="M7.065 8.372c0.697-0.567 1.682-0.998 2.635-1.414 1.014-0.444 2.062-0.902 2.865-1.554 0.965-0.784 1.435-1.734 1.435-2.904v-1c0-0.276-0.224-0.5-0.5-0.5s-0.5 0.224-0.5 0.5v1c0 0.122-0.007 0.24-0.021 0.354l-7.358-1.839c-0.039-0.010-0.079-0.015-0.121-0.015-0.276 0-0.5 0.224-0.5 0.5v1c0 1.891 1.25 2.862 2.191 3.428 0.081 0.049 0.17 0.072 0.257 0.072 0.17 0 0.335-0.086 0.429-0.242 0.142-0.237 0.066-0.544-0.171-0.686-1.196-0.72-1.706-1.489-1.706-2.572v-0.36l6.663 1.666c-0.173 0.295-0.414 0.566-0.728 0.821-0.697 0.567-1.682 0.998-2.635 1.414-1.014 0.444-2.062 0.902-2.865 1.554-0.965 0.784-1.435 1.734-1.435 2.904 0 1.891 1.25 2.862 2.191 3.428 0.081 0.049 0.17 0.072 0.257 0.072 0.17 0 0.335-0.086 0.429-0.242 0.142-0.237 0.066-0.544-0.171-0.686-1.196-0.72-1.706-1.489-1.706-2.572 0-0.122 0.007-0.24 0.021-0.354l6.642 1.661c-0.173 0.295-0.414 0.566-0.728 0.821-0.697 0.567-1.682 0.998-2.635 1.414-1.014 0.444-2.062 0.902-2.865 1.554-0.965 0.784-1.435 1.734-1.435 2.904v1c0 0.276 0.224 0.5 0.5 0.5s0.5-0.224 0.5-0.5v-1c0-0.122 0.007-0.24 0.021-0.354l7.358 1.839c0.039 0.010 0.079 0.015 0.121 0.015 0.276 0 0.5-0.224 0.5-0.5v-1c0-1.891-1.25-2.862-2.191-3.428-0.237-0.142-0.544-0.066-0.686 0.171s-0.066 0.544 0.171 0.686c1.196 0.72 1.706 1.489 1.706 2.572v0.36l-6.663-1.666c0.173-0.295 0.414-0.566 0.728-0.821 0.697-0.567 1.682-0.998 2.635-1.414 1.014-0.444 2.062-0.902 2.865-1.554 0.965-0.784 1.435-1.734 1.435-2.904 0-1.891-1.25-2.862-2.191-3.428-0.237-0.142-0.544-0.066-0.686 0.171s-0.066 0.544 0.171 0.686c1.196 0.72 1.706 1.489 1.706 2.572 0 0.122-0.007 0.24-0.021 0.354l-6.643-1.661c0.173-0.295 0.414-0.566 0.729-0.822z"></path>
</symbol>
<symbol id="icon-beaker" viewBox="0 0 20 20">
<path d="M16.534 15.745l-4.534-8.371v-4.773c0.603-0.246 1-0.609 1-1.101 0-1.036-1.758-1.5-3.5-1.5s-3.5 0.464-3.5 1.5c0 0.492 0.397 0.855 1 1.101v4.773l-4.534 8.371c-0.594 1.097-0.651 2.154-0.16 2.978s1.448 1.277 2.695 1.277h9c1.247 0 2.204-0.454 2.695-1.277s0.434-1.881-0.16-2.978zM9.5 1c1.382 0 2.22 0.315 2.455 0.5-0.235 0.185-1.073 0.5-2.455 0.5s-2.22-0.315-2.455-0.5c0.235-0.185 1.073-0.5 2.455-0.5zM9.5 3c0.514 0 1.029-0.040 1.5-0.124v4.622c-0 0.018 0.001 0.035 0.003 0.053 0 0.003 0.001 0.005 0.001 0.008 0.002 0.013 0.003 0.027 0.006 0.040 0.002 0.008 0.004 0.016 0.006 0.024s0.004 0.015 0.006 0.023 0.009 0.027 0.015 0.041c0.001 0.002 0.001 0.004 0.002 0.006 0.007 0.016 0.015 0.032 0.023 0.048l3.39 6.259c-0.726-0.013-1.222-0.321-1.873-0.879-0.418-0.358-0.962-0.804-1.58-1.186-0.035-1.073-0.917-1.935-1.998-1.935-0.758 0-1.419 0.424-1.758 1.048-0.43 0.054-0.851 0.155-1.257 0.3l1.954-3.608c0.008-0.015 0.016-0.031 0.023-0.047 0.001-0.003 0.002-0.005 0.003-0.008 0.005-0.013 0.010-0.025 0.014-0.038 0.002-0.008 0.004-0.016 0.006-0.024s0.004-0.015 0.006-0.023 0.005-0.028 0.006-0.042c0-0.002 0.001-0.004 0.001-0.007 0.002-0.018 0.003-0.035 0.003-0.053v-4.622c0.471 0.083 0.986 0.124 1.5 0.124zM9 11c0.551 0 1 0.449 1 1s-0.449 1-1 1-1-0.449-1-1 0.449-1 1-1zM15.836 18.211c-0.303 0.509-0.955 0.789-1.836 0.789h-9c-0.881 0-1.533-0.28-1.836-0.789s-0.239-1.216 0.181-1.99l1.802-3.327c0.56-0.39 1.191-0.659 1.856-0.794 0.052 1.056 0.928 1.9 1.997 1.9 0.753 0 1.41-0.418 1.751-1.034 0.449 0.303 0.853 0.636 1.177 0.914 0.807 0.692 1.519 1.12 2.572 1.12 0.16 0 0.319-0.011 0.476-0.033l0.679 1.254c0.419 0.774 0.484 1.481 0.181 1.99z"></path>
<path d="M6.5 15c-0.827 0-1.5 0.673-1.5 1.5s0.673 1.5 1.5 1.5 1.5-0.673 1.5-1.5-0.673-1.5-1.5-1.5zM6.5 17c-0.276 0-0.5-0.224-0.5-0.5s0.224-0.5 0.5-0.5 0.5 0.224 0.5 0.5-0.224 0.5-0.5 0.5z"></path>
<path d="M9.5 15c-0.132 0-0.26 0.053-0.353 0.147s-0.147 0.222-0.147 0.353 0.053 0.261 0.147 0.353c0.093 0.093 0.222 0.147 0.353 0.147s0.261-0.053 0.353-0.147c0.093-0.093 0.147-0.222 0.147-0.353s-0.053-0.261-0.147-0.353c-0.093-0.093-0.222-0.147-0.353-0.147z"></path>
</symbol>
<symbol id="icon-briefcase" viewBox="0 0 20 20">
<path d="M18.5 5h-4.5v-1.5c0-0.827-0.673-1.5-1.5-1.5h-5c-0.827 0-1.5 0.673-1.5 1.5v1.5h-4.5c-0.827 0-1.5 0.673-1.5 1.5v11c0 0.827 0.673 1.5 1.5 1.5h17c0.827 0 1.5-0.673 1.5-1.5v-11c0-0.827-0.673-1.5-1.5-1.5zM7 3.5c0-0.276 0.224-0.5 0.5-0.5h5c0.276 0 0.5 0.224 0.5 0.5v1.5h-6v-1.5zM1.5 6h17c0.276 0 0.5 0.224 0.5 0.5v7.5h-2v-0.5c0-0.276-0.224-0.5-0.5-0.5h-2c-0.276 0-0.5 0.224-0.5 0.5v0.5h-8v-0.5c0-0.276-0.224-0.5-0.5-0.5h-2c-0.276 0-0.5 0.224-0.5 0.5v0.5h-2v-7.5c0-0.276 0.224-0.5 0.5-0.5zM16 14v1h-1v-1h1zM5 14v1h-1v-1h1zM18.5 18h-17c-0.276 0-0.5-0.224-0.5-0.5v-2.5h2v0.5c0 0.276 0.224 0.5 0.5 0.5h2c0.276 0 0.5-0.224 0.5-0.5v-0.5h8v0.5c0 0.276 0.224 0.5 0.5 0.5h2c0.276 0 0.5-0.224 0.5-0.5v-0.5h2v2.5c0 0.276-0.224 0.5-0.5 0.5z"></path>
</symbol>
<symbol id="icon-swim" viewBox="0 0 20 20">
<path d="M13 9c-1.103 0-2-0.897-2-2s0.897-2 2-2 2 0.897 2 2-0.897 2-2 2zM13 6c-0.551 0-1 0.449-1 1s0.449 1 1 1 1-0.449 1-1-0.449-1-1-1z"></path>
<path d="M5.5 9c-0.162 0-0.32-0.078-0.417-0.223-0.153-0.23-0.091-0.54 0.139-0.693l3-2c0.221-0.147 0.518-0.096 0.677 0.116l1.5 2c0.166 0.221 0.121 0.534-0.1 0.7s-0.534 0.121-0.7-0.1l-1.216-1.622-2.606 1.738c-0.085 0.057-0.182 0.084-0.277 0.084z"></path>
<path d="M17.5 13c-0.152 0-0.301-0.069-0.4-0.199v0c-0.014-0.018-1.392-1.801-3.601-1.801-1.144 0-2.19 0.465-3.297 0.957-1.154 0.513-2.347 1.043-3.703 1.043-2.719 0-4.333-2.11-4.4-2.2-0.166-0.221-0.121-0.534 0.1-0.7s0.534-0.121 0.7 0.1c0.013 0.017 1.391 1.8 3.6 1.8 1.144 0 2.19-0.465 3.297-0.957 1.154-0.513 2.347-1.043 3.703-1.043 2.719 0 4.333 2.11 4.4 2.2 0.166 0.221 0.121 0.534-0.1 0.7-0.090 0.067-0.195 0.1-0.3 0.1z"></path>
<path d="M17.5 16c-0.152 0-0.301-0.069-0.4-0.199v0c-0.014-0.018-1.392-1.801-3.601-1.801-1.144 0-2.19 0.465-3.297 0.957-1.154 0.513-2.347 1.043-3.703 1.043-2.719 0-4.333-2.11-4.4-2.2-0.166-0.221-0.121-0.534 0.1-0.7s0.534-0.121 0.7 0.1c0.013 0.017 1.391 1.8 3.6 1.8 1.144 0 2.19-0.465 3.297-0.957 1.154-0.513 2.347-1.043 3.703-1.043 2.719 0 4.333 2.11 4.4 2.2 0.166 0.221 0.121 0.534-0.1 0.7-0.090 0.067-0.195 0.1-0.3 0.1z"></path>
</symbol>
<symbol id="icon-glasses" viewBox="0 0 20 20">
<path d="M19.5 9h-0.627c-0.445-1.723-2.013-3-3.873-3-1.668 0-3.101 1.027-3.7 2.482-0.35-0.3-0.804-0.482-1.3-0.482s-0.95 0.182-1.3 0.482c-0.599-1.455-2.032-2.482-3.7-2.482-1.86 0-3.428 1.277-3.873 3h-0.627c-0.276 0-0.5 0.224-0.5 0.5s0.224 0.5 0.5 0.5h0.5c0 2.206 1.794 4 4 4s4-1.794 4-4c0-0.551 0.449-1 1-1s1 0.449 1 1c0 2.206 1.794 4 4 4s4-1.794 4-4h0.5c0.276 0 0.5-0.224 0.5-0.5s-0.224-0.5-0.5-0.5zM5 13c-1.654 0-3-1.346-3-3s1.346-3 3-3 3 1.346 3 3-1.346 3-3 3zM15 13c-1.654 0-3-1.346-3-3s1.346-3 3-3 3 1.346 3 3-1.346 3-3 3z"></path>
</symbol>
<symbol id="icon-code" viewBox="0 0 20 20">
<path d="M5 15c-0.128 0-0.256-0.049-0.354-0.146l-4-4c-0.195-0.195-0.195-0.512 0-0.707l4-4c0.195-0.195 0.512-0.195 0.707 0s0.195 0.512 0 0.707l-3.646 3.646 3.646 3.646c0.195 0.195 0.195 0.512 0 0.707-0.098 0.098-0.226 0.146-0.354 0.146z"></path>
<path d="M15 15c-0.128 0-0.256-0.049-0.354-0.146-0.195-0.195-0.195-0.512 0-0.707l3.646-3.646-3.646-3.646c-0.195-0.195-0.195-0.512 0-0.707s0.512-0.195 0.707 0l4 4c0.195 0.195 0.195 0.512 0 0.707l-4 4c-0.098 0.098-0.226 0.146-0.354 0.146z"></path>
<path d="M7.5 15c-0.091 0-0.182-0.025-0.265-0.076-0.234-0.146-0.305-0.455-0.159-0.689l5-8c0.146-0.234 0.455-0.305 0.689-0.159s0.305 0.455 0.159 0.689l-5 8c-0.095 0.152-0.258 0.235-0.424 0.235z"></path>
</symbol>
<symbol id="icon-link" viewBox="0 0 20 20">
<path d="M10.682 12.998c-0.943 0-1.886-0.359-2.604-1.077-0.195-0.195-0.195-0.512 0-0.707s0.512-0.195 0.707 0c1.046 1.046 2.747 1.046 3.793 0l3.636-3.636c1.046-1.046 1.046-2.747 0-3.793s-2.747-1.046-3.793 0l-3.068 3.068c-0.195 0.195-0.512 0.195-0.707 0s-0.195-0.512 0-0.707l3.068-3.068c1.436-1.436 3.772-1.436 5.207 0s1.436 3.772 0 5.207l-3.636 3.636c-0.718 0.718-1.661 1.077-2.604 1.077z"></path>
<path d="M4.682 18.998c-0.943 0-1.886-0.359-2.604-1.077-1.436-1.436-1.436-3.772 0-5.207l3.636-3.636c1.436-1.436 3.772-1.436 5.207 0 0.195 0.195 0.195 0.512 0 0.707s-0.512 0.195-0.707 0c-1.046-1.046-2.747-1.046-3.793 0l-3.636 3.636c-1.046 1.046-1.046 2.747 0 3.793s2.747 1.046 3.793 0l3.068-3.068c0.195-0.195 0.512-0.195 0.707 0s0.195 0.512 0 0.707l-3.068 3.068c-0.718 0.718-1.661 1.077-2.604 1.077z"></path>
</symbol>
<symbol id="icon-check" viewBox="0 0 20 20">
<path d="M5.5 17.5c-0.128 0-0.256-0.049-0.354-0.146l-5-5c-0.195-0.195-0.195-0.512 0-0.707s0.512-0.195 0.707 0l4.646 4.646 13.646-13.646c0.195-0.195 0.512-0.195 0.707 0s0.195 0.512 0 0.707l-14 14c-0.098 0.098-0.226 0.146-0.354 0.146z"></path>
</symbol>
</defs>
</svg>
