<?xml version="1.0" encoding="UTF-8" standalone="no"?><!DOCTYPE svg PUBLIC "-//W3C//DTD SVG 1.1//EN" "http://www.w3.org/Graphics/SVG/1.1/DTD/svg11.dtd"><svg width="100%" height="100%" viewBox="0 0 593 339" version="1.1" xmlns="http://www.w3.org/2000/svg" xmlns:xlink="http://www.w3.org/1999/xlink" xml:space="preserve" xmlns:serif="http://www.serif.com/" style="fill-rule:evenodd;clip-rule:evenodd;stroke-linecap:square;stroke-miterlimit:1"><polygon points="2.83,263.32 5.48,238.74 23.29,213.54 47.67,195.5 69.18,176.76 88.46,152.37 90.13,172.49 87.9,197.19 90.55,219.32 91.88,229.19 103.47,204.36 117.96,179.87 137.63,165.2 161.44,146.84 187.5,130.37 211.8,113.97 228.43,104.16 225.63,125.91 224.65,152.81 239.32,141.31 257.06,124.59 276.48,103.28 289.75,83.73 300.78,58.84 306.86,45.07 316.85,52.17 321.18,66.19 327.4,76 334.45,64.81 345,45.32 367.77,24.64 387.11,9.74 407.65,2.83 426.71,4.84 414.14,23.7 398.5,48.53 399.33,71.16 404.78,88 424.62,75.81 436.77,53.31 444.52,64.56 448.16,102.15 439.01,124.34 422.21,149.37 449.52,145.79 469.88,128.61 479.45,110.89 478.82,140.37 470.32,172.3 456.19,195.5 480.52,191.36 497.69,179.77 516.95,155.97 519.19,171.23 500.19,196.13 488.73,212.22 473.69,234.26 467.64,263.07 476.79,273.94 495.53,262.98 509.14,239.42 513.5,250.67 515.9,270.8 503.05,288.15 483.78,303.93 457.38,320.78 391.3,331.59 292.54,331.21 211.59,329.39 118.56,324.55 70.23,316.75 12.19,282.12 2.83,263.32 2.83,263.32" style="fill:#c88b00;stroke:#662500;stroke-width:4px"><animate id="flama-1" begin="0; flama-3.begin + 400ms" fill="freeze" attributeName="points" dur="400ms" to="2.83,263.32 5.48,238.74 23.29,213.54 47.67,195.5 69.18,176.76 88.46,152.37 90.13,172.49 87.9,197.19 90.55,219.32 91.88,229.19 103.47,204.36 117.96,179.87 137.63,165.2 161.44,146.84 187.5,130.37 211.8,113.97 228.43,104.16 225.63,125.91 224.65,152.81 239.32,141.31 257.06,124.59 276.48,103.28 289.75,83.73 300.78,58.84 306.86,45.07 316.85,52.17 321.18,66.19 327.4,76 334.45,64.81 345,45.32 367.77,24.64 387.11,9.74 407.65,2.83 426.71,4.84 414.14,23.7 398.5,48.53 399.33,71.16 404.78,88 424.62,75.81 436.77,53.31 444.52,64.56 448.16,102.15 439.01,124.34 422.21,149.37 449.52,145.79 469.88,128.61 479.45,110.89 478.82,140.37 470.32,172.3 456.19,195.5 480.52,191.36 497.69,179.77 516.95,155.97 519.19,171.23 500.19,196.13 488.73,212.22 473.69,234.26 467.64,263.07 476.79,273.94 495.53,262.98 509.14,239.42 513.5,250.67 515.9,270.8 503.05,288.15 483.78,303.93 457.38,320.78 391.3,331.59 292.54,331.21 211.59,329.39 118.56,324.55 70.23,316.75 12.19,282.12 2.83,263.32 2.83,263.32"/><animate id="flama-2" begin="flama-1.begin + 400ms" fill="freeze" attributeName="points" dur="400ms" to="11.02,250.86 13.63,214.48 28.71,196.31 33.45,218.81 47.62,234.7 54.82,200.13 85,168.64 101.84,161.53 119.69,159.12 102.7,189.91 113.95,219.92 134.41,182.35 166.84,156.43 193.98,142.97 214.19,129.67 231.84,119.39 248.38,119.09 212.3,159.24 208.15,178.56 223.75,166.94 263.77,152.67 271.14,111.74 295.08,71.88 338.6,28.2 322.48,75.81 327.67,98.74 341.34,118.84 347.09,66.17 368.82,40.34 396.67,10.07 449.51,6.12 411.54,36.91 398.24,59.03 401.96,83.67 429.37,73.91 454.33,52.16 482.9,56.11 451.28,94.39 440.9,113.6 439.84,153.25 467.28,129.32 513.53,107.38 475.83,150.37 478.48,205.21 491.95,189.74 509.83,169.35 554.12,156.4 533.41,189.63 516.9,209.8 504.23,232.51 502.79,248.4 522.95,235.32 535.45,223.53 552.49,220.37 589.92,228.4 555.89,231.98 532.31,248.86 514.73,268.62 500.63,302.38 520.92,297.07 532.22,284.81 532.36,300.86 519.7,318.3 475.15,330.62 436.45,329.61 372.16,331.92 329.18,335.21 261.1,331.95 196.14,330.38 109,319.09 70.23,316.75 20.97,278.12 11.02,250.86 11.02,250.86"/><animate id="flama-3" begin="flama-2.begin + 400ms" fill="freeze" attributeName="points" dur="400ms" to="2.83,263.32 5.48,238.74 24.79,192.14 62.49,165.1 54.45,185.05 87.14,151.14 128.45,134.47 105.32,163.78 107.83,190.29 120.51,212.03 133.8,160.59 174.17,109.99 166.18,159.49 200.9,124.88 245.05,87.72 273.88,80.79 246.04,134.36 287.55,107.79 306.27,79.83 325.94,41.85 331.46,77.79 343.29,107.51 356.32,59.67 384.03,33.27 431.53,19.42 392.47,75.13 387.95,92.17 385.73,118.83 409.61,92.74 428.57,81.43 452.41,74.46 437.95,94.14 426.1,118.4 442.24,108.36 466.13,83.38 493.6,84.77 509.71,97.52 537.57,111.26 477.72,109.45 442.57,139.68 437.18,155.11 493.19,125.79 520.74,130.59 562.08,158.93 510.96,154.02 485.24,163.81 467.26,185.97 471.02,202.55 485.39,185.16 500.56,181.26 518.99,182.39 536.7,184.89 576.75,223.52 525.63,220.9 503.19,223.72 495.33,238.37 525.76,241.21 554.79,265.5 515.47,265.19 481.03,278.72 469.8,299.38 494.59,297.52 521.01,293.34 537.18,298.18 507.47,316.05 462.82,331.7 391.3,331.59 292.54,331.21 211.59,329.39 118.56,324.55 70.23,316.75 12.19,282.12 2.83,263.32 2.83,263.32"/></polygon></svg>