<?xml version="1.0" standalone="no"?>
<!DOCTYPE svg PUBLIC "-//W3C//DTD SVG 20010904//EN"
 "http://www.w3.org/TR/2001/REC-SVG-20010904/DTD/svg10.dtd">
<svg version="1.0" xmlns="http://www.w3.org/2000/svg"
 width="800.000000pt" height="800.000000pt" viewBox="0 0 800.000000 800.000000"
 preserveAspectRatio="xMidYMid meet">
<metadata>
Created by potrace 1.14, written by Peter Selinger 2001-2017
</metadata>
<g transform="translate(0.000000,800.000000) scale(0.100000,-0.100000)"
fill="#000000" stroke="none">
<path d="M4085 7636 c-185 -44 -300 -111 -395 -229 -42 -53 -46 -56 -66 -42
-39 25 -340 133 -417 149 -152 32 -302 15 -437 -50 -108 -51 -168 -101 -215
-177 -22 -37 -43 -66 -47 -67 -4 0 -34 17 -67 38 -106 69 -137 72 -396 37
-245 -33 -362 -82 -486 -206 -92 -92 -132 -165 -137 -255 l-4 -61 -78 -6
c-105 -8 -218 -47 -348 -120 -59 -32 -150 -81 -203 -107 -135 -68 -212 -163
-226 -279 -5 -47 -6 -48 -69 -75 -96 -42 -234 -137 -297 -205 -30 -33 -70 -91
-89 -128 -30 -62 -33 -75 -33 -164 0 -94 1 -98 31 -136 43 -52 122 -90 219
-105 44 -6 81 -12 83 -14 2 -1 -2 -31 -8 -67 -14 -80 -1 -158 36 -213 23 -33
24 -41 15 -83 -5 -25 -13 -75 -17 -111 -7 -74 -33 -150 -92 -265 -81 -162 -90
-248 -42 -397 27 -86 34 -96 100 -163 l72 -72 -16 -47 c-9 -26 -16 -60 -16
-76 0 -16 -7 -59 -16 -97 -25 -106 -22 -230 9 -344 77 -278 160 -391 507 -694
279 -244 415 -394 494 -545 45 -85 62 -148 81 -289 43 -311 110 -630 172 -811
59 -174 116 -237 263 -295 51 -20 83 -45 181 -140 229 -220 262 -237 488 -242
118 -3 206 -12 390 -43 312 -51 435 -64 553 -56 110 7 269 45 437 106 315 113
437 192 727 473 l161 156 6 -40 c7 -50 39 -87 83 -95 26 -5 44 0 78 20 96 56
160 167 249 431 65 192 92 255 147 342 33 51 38 97 15 127 -19 25 -19 40 0
102 l14 49 238 1 c228 0 244 1 389 32 278 58 445 134 569 257 102 102 151 216
191 449 l9 49 90 38 c188 81 306 184 469 409 49 69 109 137 147 169 123 105
149 160 149 315 0 107 -12 161 -86 401 -75 242 -103 295 -243 468 -105 129
-241 211 -401 243 -67 13 -111 15 -210 10 -69 -4 -140 -8 -159 -9 l-33 -2
-124 364 c-68 200 -122 367 -119 371 2 4 39 12 82 19 247 37 357 91 414 203
24 47 29 140 10 176 -11 20 -9 28 16 59 100 125 113 160 113 292 0 227 -72
354 -245 437 -110 53 -194 67 -365 61 -139 -5 -640 -68 -792 -100 -38 -8 -68
-13 -68 -11 0 1 9 40 20 86 34 141 22 257 -38 376 -104 206 -382 290 -588 177
l-61 -33 -89 89 c-53 54 -109 100 -139 114 -135 67 -407 102 -540 71z m1364
-1347 c244 -138 468 -287 549 -363 52 -48 75 -95 147 -301 197 -561 275 -786
275 -789 0 -3 -71 -28 -157 -57 -261 -86 -367 -131 -633 -269 l-105 -55 -215
-7 c-118 -3 -242 -9 -276 -12 l-61 -6 -46 57 c-147 183 -380 308 -652 350
-164 25 -602 4 -794 -38 -158 -34 -307 -108 -504 -249 -76 -54 -153 -102 -170
-105 -47 -10 -111 -50 -126 -78 -26 -49 -94 -62 -381 -77 -113 -6 -222 -13
-242 -17 l-38 -6 0 65 0 65 49 6 c169 20 239 162 162 332 -17 37 -49 125 -70
194 -21 70 -55 169 -75 221 -20 52 -37 99 -39 104 -1 5 43 16 98 26 198 35
293 67 548 186 98 46 186 86 196 89 12 3 34 -4 56 -19 50 -34 101 -40 241 -26
247 24 424 93 644 254 53 38 65 43 81 33 22 -14 56 2 134 63 46 37 51 45 35
70 -7 11 -24 2 -89 -48 -44 -34 -82 -62 -85 -62 -26 0 45 201 83 236 14 13 31
24 36 24 6 0 17 -27 23 -60 7 -32 16 -61 20 -64 4 -2 34 11 66 30 32 19 61 32
64 29 3 -3 -18 -30 -47 -59 l-54 -54 29 -28 c56 -52 124 -67 187 -41 18 8 84
45 148 84 64 38 270 146 457 239 208 103 343 176 347 187 12 32 58 18 184 -54z
m-1255 -114 c-4 -8 -11 -15 -16 -15 -6 0 -5 6 2 15 7 8 14 15 16 15 2 0 1 -7
-2 -15z m2866 -1544 c69 -27 126 -72 206 -164 92 -106 121 -160 191 -359 73
-207 98 -318 88 -386 -6 -43 -14 -55 -94 -132 -49 -47 -121 -130 -162 -185
-103 -142 -146 -190 -214 -242 -60 -45 -164 -103 -186 -103 -15 0 -6 416 12
585 14 132 6 271 -20 380 -18 74 -182 572 -195 594 -27 43 270 53 374 12z
m-2680 -51 c46 -11 117 -36 157 -56 76 -36 223 -146 223 -166 0 -6 -9 -21 -20
-33 -22 -23 -36 -99 -26 -138 8 -33 73 -94 114 -108 19 -6 52 -8 74 -5 38 6
39 6 58 -37 51 -114 90 -327 90 -483 0 -316 -151 -511 -477 -618 -281 -92
-601 -100 -879 -20 -104 30 -285 114 -375 174 -313 211 -477 470 -482 765 -3
161 30 247 107 279 18 7 68 47 112 87 199 185 333 271 489 313 86 23 286 53
460 70 93 9 292 -4 375 -24z m2208 -237 c142 -416 149 -453 127 -712 -8 -100
-15 -249 -15 -330 0 -81 -3 -182 -6 -224 l-7 -76 -46 -8 c-80 -13 -301 -7
-394 11 -349 67 -649 285 -747 543 -28 72 -38 223 -20 306 16 79 71 184 119
230 23 21 41 43 41 47 0 5 28 7 63 4 56 -5 66 -3 104 22 44 29 58 51 68 108 9
43 7 41 130 107 91 49 466 208 491 209 6 0 47 -107 92 -237z m-1273 -125 c-40
-65 -83 -160 -96 -214 -17 -69 -23 -71 -38 -12 -11 43 -52 155 -77 214 -3 7
14 18 43 27 68 22 81 25 141 26 l53 1 -26 -42z m-3215 -148 c140 -8 281 -24
415 -45 l30 -5 -3 -87 c-7 -166 45 -376 130 -532 203 -370 637 -652 1128 -733
98 -16 404 -16 500 1 198 34 361 86 515 164 85 43 114 65 196 146 78 79 102
111 136 181 45 91 68 169 79 263 l7 59 41 -79 c130 -248 376 -447 679 -548
185 -61 247 -70 498 -70 l226 0 -13 -61 c-25 -118 -53 -175 -119 -240 -101
-102 -248 -164 -493 -209 -114 -21 -163 -25 -337 -25 l-204 0 -31 30 c-24 23
-30 38 -30 71 0 133 -140 197 -293 135 -58 -24 -59 -24 -90 -6 -48 27 -86 32
-143 17 -50 -13 -51 -13 -85 15 -19 16 -50 33 -69 38 -28 8 -39 18 -52 49 -19
46 -64 78 -123 86 -47 7 -175 -17 -242 -46 -42 -18 -53 -19 -96 -8 -72 17
-183 5 -271 -29 -71 -28 -73 -28 -95 -10 -67 53 -186 44 -346 -27 -58 -26
-115 -45 -136 -45 -60 0 -151 -20 -211 -47 l-57 -25 -43 20 c-64 30 -101 35
-165 22 -111 -23 -279 -115 -401 -218 -35 -29 -89 -67 -120 -83 -31 -16 -85
-52 -119 -80 -62 -50 -62 -50 -102 -38 -23 7 -41 14 -41 16 0 2 19 47 41 99
23 53 44 114 46 135 6 45 -14 84 -53 101 -31 14 -30 27 5 83 38 59 47 112 28
157 -16 38 -64 88 -84 88 -16 0 -16 17 -2 58 15 43 -4 106 -41 133 -26 20 -28
25 -23 73 9 87 -38 146 -128 161 -37 6 -38 8 -41 53 l-3 47 -40 -3 c-38 -2
-36 0 48 43 107 55 130 85 124 161 -4 65 -34 107 -91 129 -40 15 -44 21 -50
58 -14 83 -75 137 -155 137 -36 0 -53 38 -38 86 13 43 1 97 -29 134 l-26 30
69 1 c37 0 91 7 118 14 65 16 79 17 275 5z m-680 -25 c0 -2 -27 -22 -59 -45
l-60 -40 -21 29 -20 30 52 10 c29 5 62 12 73 14 31 7 35 7 35 2z m-377 -97
c32 -43 52 -104 72 -219 9 -52 22 -106 30 -121 16 -33 6 -36 -21 -7 -10 12
-45 34 -76 50 -78 39 -139 39 -237 -1 -85 -35 -91 -32 -91 39 0 54 36 212 55
237 12 17 110 39 232 53 7 0 23 -14 36 -31z m-102 -624 c55 -58 149 -70 208
-26 l27 20 12 -45 c7 -25 26 -58 42 -74 l29 -30 -28 -42 c-16 -23 -35 -61 -42
-85 l-14 -43 -115 104 c-110 99 -217 213 -208 222 4 5 50 23 59 24 3 1 16 -11
30 -25z m3371 -1083 c24 -42 79 -57 136 -38 46 16 45 17 56 -36 16 -71 155
-91 230 -33 21 15 39 26 40 25 2 -2 11 -19 20 -37 18 -35 66 -62 109 -62 46 0
127 50 167 104 34 44 120 110 120 91 0 -17 -28 -56 -82 -112 -98 -103 -108
-168 -36 -229 26 -21 40 -25 75 -22 24 2 43 1 43 -1 0 -2 -15 -24 -33 -50 -19
-25 -69 -103 -111 -172 -46 -74 -90 -133 -108 -145 -17 -10 -79 -82 -138 -159
-59 -77 -117 -149 -129 -159 l-21 -19 0 60 c0 46 -5 67 -21 87 -29 37 -64 49
-104 36 -48 -16 -80 -56 -115 -145 -31 -79 -151 -307 -158 -301 -1 2 15 59 38
126 49 150 51 190 11 231 -67 66 -147 23 -201 -109 -63 -150 -180 -367 -187
-346 -4 11 41 158 86 284 17 47 31 98 31 113 0 36 -25 74 -61 93 -78 40 -109
8 -377 -380 -34 -49 -62 -84 -62 -78 0 7 19 63 41 125 23 61 46 127 51 145 18
66 -31 142 -93 142 -28 0 -89 -43 -89 -63 0 -7 -14 -41 -30 -76 -25 -51 -33
-62 -48 -56 -54 24 -80 18 -134 -31 -29 -27 -66 -60 -82 -74 l-29 -25 13 25
c7 14 29 49 49 79 30 45 36 63 36 107 0 82 -53 125 -129 103 -22 -7 -40 -5
-64 7 -21 10 -44 13 -62 9 -45 -10 -134 -81 -237 -188 -51 -53 -93 -91 -93
-84 0 7 32 77 70 156 74 154 77 174 37 218 -11 13 -27 25 -36 28 -9 2 -22 18
-29 33 -23 52 -85 73 -143 48 -13 -6 -17 1 -22 36 -8 58 -43 88 -102 88 -52 0
-61 -8 -171 -158 -42 -57 -78 -101 -81 -98 -9 8 16 65 63 141 40 67 97 180
108 217 4 15 10 16 31 8 63 -24 155 -7 215 40 19 15 55 30 79 34 58 9 134 47
193 97 46 38 47 39 107 33 72 -8 132 12 266 87 84 47 105 52 105 25 0 -22 57
-67 96 -77 65 -14 130 11 241 95 54 41 118 95 143 120 24 25 47 46 51 46 4 0
11 -9 14 -20 15 -48 105 -75 195 -58 63 11 128 44 185 93 22 19 42 34 45 35 3
0 12 -13 22 -29z m-2122 -1171 l0 -39 -34 22 -33 22 31 17 c17 9 32 17 34 18
1 0 2 -18 2 -40z m625 -300 c25 -8 35 -18 35 -32 0 -19 -4 -20 -46 -14 -26 3
-69 6 -96 6 l-49 0 43 51 42 50 18 -25 c11 -13 34 -30 53 -36z m884 -131 c-16
-9 -90 -21 -97 -15 -2 3 20 38 49 78 l54 72 3 -63 c2 -42 -1 -67 -9 -72z"/>
</g>
</svg>
