<?xml version="1.0" encoding="UTF-8" standalone="no"?><!DOCTYPE svg PUBLIC "-//W3C//DTD SVG 1.1//EN" "http://www.w3.org/Graphics/SVG/1.1/DTD/svg11.dtd"><svg width="100%" height="100%" viewBox="0 0 593 339" version="1.1" xmlns="http://www.w3.org/2000/svg" xmlns:xlink="http://www.w3.org/1999/xlink" xml:space="preserve" xmlns:serif="http://www.serif.com/" style="fill-rule:evenodd;clip-rule:evenodd;stroke-linecap:square;stroke-miterlimit:1;"><path id="flama-1" d="M2.828,263.321l2.655,-24.577l17.811,-25.208l24.374,-18.04l21.513,-18.733l19.277,-24.389l1.676,20.115l-2.236,24.703l2.655,22.128l1.328,9.868l11.592,-24.83l14.485,-24.491l19.67,-14.67l23.817,-18.355l26.053,-16.469l24.305,-16.407l16.623,-9.806l-2.793,21.748l-0.978,26.906l14.668,-11.503l17.739,-16.722l19.418,-21.31l13.27,-19.549l11.035,-24.893l6.076,-13.765l9.987,7.102l4.331,14.017l6.216,9.808l7.054,-11.19l10.547,-19.487l22.77,-20.681l19.346,-14.897l20.534,-6.916l19.068,2.013l-12.571,18.859l-15.646,24.828l0.838,22.631l5.449,16.845l19.835,-12.195l12.153,-22.504l7.752,11.253l3.633,37.589l-9.149,22.191l-16.798,25.033l27.309,-3.58l20.358,-17.178l9.571,-17.727l-0.629,29.481l-8.495,31.934l-14.136,23.195l24.331,-4.133l17.174,-11.594l19.256,-23.804l2.239,15.267l-18.997,24.893l-11.456,16.091l-15.046,22.042l-6.045,28.813l9.149,10.873l18.736,-10.961l13.612,-23.568l4.355,11.257l2.409,20.129l-12.852,17.351l-19.275,15.778l-26.402,16.845l-66.072,10.812l-98.761,-0.378l-80.949,-1.823l-93.034,-4.84l-48.332,-7.793l-58.041,-34.636l-9.359,-18.796Z" style="fill:#c88b00;stroke:#662500;stroke-width:4px;"/><path id="flama-2" d="M11.021,250.858l2.609,-36.378l15.078,-18.171l4.745,22.501l14.171,15.893l7.193,-34.572l30.182,-31.492l16.84,-7.11l17.853,-2.406l-16.993,30.787l11.249,30.012l20.459,-37.575l32.431,-25.922l27.141,-13.458l20.21,-13.296l17.651,-10.283l16.539,-0.296l-36.08,40.148l-4.146,19.321l15.595,-11.618l40.022,-14.278l7.373,-40.927l23.932,-39.862l43.526,-43.676l-16.126,47.607l5.195,22.935l13.673,20.102l5.749,-52.67l21.726,-25.839l27.852,-30.263l52.835,-3.952l-37.965,30.785l-13.305,22.128l3.727,24.641l27.407,-9.769l24.956,-21.743l28.571,3.946l-31.613,38.277l-10.383,19.218l-1.06,39.649l27.438,-23.933l46.249,-21.94l-37.693,42.994l2.65,54.84l13.47,-15.47l17.875,-20.398l44.287,-12.948l-20.705,33.228l-16.508,20.178l-12.676,22.707l-1.437,15.891l20.164,-13.086l12.5,-11.788l17.031,-3.159l37.436,8.031l-34.027,3.58l-23.587,16.879l-17.573,19.758l-14.106,33.759l20.295,-5.307l11.293,-12.262l0.14,16.052l-12.66,17.443l-44.546,12.318l-38.704,-1.014l-64.291,2.311l-42.98,3.299l-68.072,-3.269l-64.965,-1.562l-87.138,-11.289l-38.772,-2.342l-49.258,-38.637l-9.949,-27.258Z" style="fill:none;stroke:#000;stroke-width:4px;"/><path id="flama-3" d="M2.828,263.321l2.655,-24.577l19.308,-46.602l37.698,-27.038l-8.038,19.942l32.684,-33.906l41.313,-16.675l-23.133,29.318l2.518,26.504l12.677,21.747l13.286,-51.444l40.372,-50.595l-7.989,49.492l34.719,-34.602l44.15,-37.168l28.836,-6.922l-27.846,53.57l41.516,-26.576l18.719,-27.963l19.667,-37.979l5.52,35.948l11.833,29.719l13.031,-47.846l27.707,-26.398l47.494,-13.852l-39.056,55.713l-4.522,17.041l-2.216,26.657l23.876,-26.093l18.964,-11.31l23.84,-6.97l-14.459,19.682l-11.851,24.261l16.136,-10.039l23.895,-24.983l27.468,1.394l16.111,12.745l27.858,13.744l-59.847,-1.808l-35.15,30.23l-5.392,15.431l56.014,-29.326l27.543,4.8l41.347,28.346l-51.129,-4.915l-25.714,9.795l-17.978,22.161l3.754,16.572l14.374,-17.387l15.164,-3.901l18.434,1.135l17.713,2.493l40.049,38.63l-51.12,-2.614l-22.44,2.817l-7.863,14.649l30.436,2.843l29.029,24.286l-39.321,-0.31l-34.443,13.536l-11.23,20.656l24.792,-1.86l26.419,-4.174l16.168,4.839l-29.704,17.867l-44.652,15.646l-71.518,-0.11l-98.761,-0.378l-80.949,-1.823l-93.034,-4.84l-48.332,-7.793l-58.041,-34.636l-9.359,-18.796Z" style="fill:none;stroke:#000;stroke-width:4px;"/></svg>