<?xml version="1.0" encoding="UTF-8" standalone="no"?>
<!DOCTYPE svg PUBLIC "-//W3C//DTD SVG 1.1//EN" "http://www.w3.org/Graphics/SVG/1.1/DTD/svg11.dtd">
<svg width="100%" height="100%" viewBox="0 0 204 361" version="1.1" xmlns="http://www.w3.org/2000/svg" xmlns:xlink="http://www.w3.org/1999/xlink" xml:space="preserve" xmlns:serif="http://www.serif.com/" style="fill-rule:evenodd;clip-rule:evenodd;stroke-linejoin:round;stroke-miterlimit:2;">
    <g transform="matrix(1,0,0,1,-38.6,-478.005)">
        <path d="M236.69,831.19C238.65,815.92 237.41,800.91 235.84,786.26C235.838,786.233 235.833,786.207 235.827,786.181C235.757,785.882 235.448,785.695 235.144,785.767C235.119,785.773 235.094,785.781 235.07,785.79C227.61,788.677 219.903,790.75 211.95,792.01C211.667,792.058 211.456,792.303 211.45,792.59C211.377,806.197 210.627,819.843 209.2,833.53L204.69,834.77C206.997,812.45 207.603,790.437 206.51,768.73C206.474,767.977 206.865,767.264 207.52,766.89L208.05,766.58C208.263,766.456 208.505,766.391 208.752,766.391C209.493,766.391 210.112,766.98 210.15,767.72L211.12,786.89C211.121,786.902 211.122,786.915 211.123,786.927C211.16,787.281 211.487,787.542 211.847,787.504C211.858,787.503 211.869,787.502 211.88,787.5C222.293,785.8 232.257,782.723 241.77,778.27C242.102,778.116 242.294,777.756 242.24,777.39C239.09,756.62 234.68,732.12 217.98,719.02C217.067,718.307 214.94,716.763 211.6,714.39C211.297,714.173 210.901,714.131 210.56,714.28C210.227,714.427 209.867,714.797 209.48,715.39C209.28,715.693 208.941,715.875 208.578,715.875C208.191,715.875 207.832,715.667 207.64,715.33L206.72,713.73C206.642,713.603 206.503,713.525 206.353,713.525C206.146,713.525 205.966,713.675 205.93,713.88C205.343,717.647 204.533,722.1 203.5,727.24C202.513,732.16 200.37,737.157 197.07,742.23C196.492,743.113 195.36,743.464 194.39,743.06L194.34,743.04C194.278,743.014 194.217,742.985 194.159,742.951C193.446,742.54 193.196,741.619 193.605,740.911C193.639,740.851 193.678,740.794 193.72,740.74C196.173,737.547 197.583,733.717 197.95,729.25C197.95,729.245 197.945,729.24 197.94,729.24L197.69,729.19C197.565,729.162 197.436,729.23 197.39,729.35L194.55,737.21C194.547,737.218 194.544,737.226 194.541,737.233C194.185,738.172 193.123,738.652 192.19,738.298C192.183,738.295 192.177,738.293 192.17,738.29L192.12,738.27C191.238,737.968 190.76,736.998 191.06,736.121C191.06,736.12 191.06,736.12 191.06,736.12C192.587,731.687 193.38,727.133 193.44,722.46C193.445,722.25 193.275,722.071 193.06,722.06L193.05,722.06C192.81,722.048 192.601,722.231 192.58,722.47C192.253,725.903 191.203,729.13 189.43,732.15C189.037,732.816 188.253,733.153 187.5,732.98L187.43,732.97C187.401,732.963 187.373,732.956 187.344,732.947C186.716,732.752 186.357,732.079 186.55,731.455C186.559,731.426 186.569,731.398 186.58,731.37C187.39,729.32 188.65,726.51 188.83,723.78C189.27,717.16 188.59,712.75 187.12,705.67C187.105,705.592 187.071,705.52 187.02,705.46C186.856,705.268 186.56,705.247 186.364,705.414C186.305,705.464 186.259,705.528 186.23,705.6C181.34,718.38 168.9,725.02 155.5,726.68C147.047,727.72 139.093,726.257 131.64,722.29C131.589,722.263 131.533,722.249 131.476,722.249C131.284,722.249 131.126,722.407 131.126,722.599C131.126,722.651 131.137,722.703 131.16,722.75C132.733,726.197 134.143,728.873 135.39,730.78C137.75,734.38 139.43,733.73 142.74,734.44C143.298,734.562 143.699,735.061 143.699,735.632C143.699,735.789 143.669,735.944 143.61,736.09L143.29,736.85C142.943,737.685 142.028,738.147 141.15,737.93C135.18,736.46 131.7,733.66 126.89,729.59C126.83,729.542 126.755,729.516 126.678,729.516C126.492,729.516 126.338,729.67 126.338,729.856C126.338,729.867 126.339,729.879 126.34,729.89C126.4,730.403 126.58,730.9 126.88,731.38C129.167,735.033 131.1,737.993 132.68,740.26C132.872,740.541 132.944,740.89 132.88,741.23C132.693,742.183 132.137,742.823 131.21,743.15C130.999,743.23 130.756,743.192 130.57,743.05L127.1,740.33C127.027,740.264 126.931,740.227 126.832,740.227C126.613,740.227 126.432,740.408 126.432,740.627C126.432,740.706 126.456,740.784 126.5,740.85L127.51,742.6C127.673,742.883 127.759,743.203 127.759,743.529C127.759,744.292 127.29,744.981 126.58,745.26C125.08,745.847 123.473,745.88 121.76,745.36C121.472,745.271 121.161,745.42 121.05,745.7L121.04,745.72C120.958,745.981 121.072,746.264 121.31,746.39L125.65,748.76C126.114,749.011 126.404,749.498 126.404,750.026C126.404,750.368 126.282,750.7 126.06,750.96L126.02,751.01C125.428,751.761 124.37,751.978 123.53,751.52L120.9,750.08C120.517,749.869 120.067,749.826 119.66,749.96C117.31,750.72 116.99,752.59 113.98,751.27C107.673,748.503 101.993,744.51 96.94,739.29C88.88,730.963 82.077,721.823 76.53,711.87C76.528,711.867 76.527,711.864 76.525,711.862C76.361,711.576 75.988,711.479 75.697,711.646C75.695,711.647 75.692,711.649 75.69,711.65C73.257,713.083 71.067,714.92 69.12,717.16C54.33,734.18 45.71,755.88 40.23,777.87C40.131,778.258 40.308,778.668 40.66,778.86C52.95,785.6 65.9,790.52 80.21,791.15C80.577,791.169 80.908,790.919 80.99,790.56L86.67,765.06C86.894,764.06 87.869,763.399 88.88,763.56L88.98,763.58C89.837,763.715 90.475,764.461 90.475,765.329C90.475,765.447 90.463,765.564 90.44,765.68C88.593,774.76 86.783,783.623 85.01,792.27C84.523,794.63 83.137,795.723 80.85,795.55C80.583,795.528 80.338,795.703 80.28,795.96C77.387,808.233 75.497,820.65 74.61,833.21L70.31,833C70.91,820.413 72.747,808.193 75.82,796.34C75.824,796.323 75.828,796.305 75.832,796.287C75.911,795.861 75.629,795.447 75.209,795.369C75.189,795.365 75.17,795.362 75.15,795.36C64.89,794.167 55.013,791.197 45.52,786.45C45.455,786.416 45.383,786.399 45.309,786.399C45.094,786.399 44.906,786.55 44.86,786.76C41.66,801.593 39.573,816.64 38.6,831.9C37.393,832.193 36.373,832.273 35.54,832.14C35.076,832.06 34.743,831.64 34.77,831.17C35.643,815.403 37.81,800.093 41.27,785.24C41.419,784.59 41.141,783.916 40.58,783.57C37.64,781.72 35.72,781.35 36.56,777.22C38.073,769.793 40.467,761.713 43.74,752.98C48.66,739.853 55.35,727.82 63.81,716.88C63.982,716.661 63.942,716.337 63.72,716.16C57.19,711.13 54.87,703.5 54.95,695.38C54.977,692.627 55.003,689.843 55.03,687.03C55.11,679.837 53.367,672.557 49.8,665.19C47.2,659.82 44.75,655.45 42.63,649.87C37.657,636.73 35.677,623 36.69,608.68C38.34,585.4 38.68,574.08 40.99,556.98C43.13,541.19 48.31,527.56 56.45,514.43C62.29,505.03 69.94,498.07 77.99,491.04C88.317,482.02 100.173,476.967 113.56,475.88C113.998,475.847 114.429,475.753 114.84,475.6C120.71,473.44 129.41,473.63 132.28,480.38C133.12,482.353 134.04,484.007 135.04,485.34C135.108,485.429 135.187,485.508 135.275,485.576C135.834,486.01 136.648,485.91 137.079,485.356C137.149,485.265 137.206,485.166 137.25,485.06L139.36,480C139.446,479.796 139.572,479.612 139.73,479.46C147.87,472.03 162.6,478.78 169.75,484.82C180.057,493.52 189.243,505.16 197.31,519.74C204.55,532.84 209.657,545.167 212.63,556.72C213.2,558.96 213.4,560.73 214.05,562.29C214.188,562.613 214.397,562.9 214.66,563.13C219.74,567.42 220.73,573.35 220.89,579.87C220.923,581.21 221.173,583.053 221.64,585.4C225.53,604.85 227.13,624.77 226.51,644.74C225.91,664.11 229.93,681.88 236.08,700.41C237.267,703.983 239.07,707.967 241.49,712.36C243.843,716.647 246.893,719.21 250.64,720.05C251.264,720.194 251.71,720.754 251.71,721.395C251.71,721.62 251.655,721.841 251.55,722.04L251.43,722.26C250.775,723.392 249.366,723.866 248.16,723.36L238.42,719.31C238.361,719.285 238.297,719.272 238.233,719.272C237.97,719.272 237.753,719.489 237.753,719.752C237.753,719.806 237.762,719.859 237.78,719.91C239.3,724.25 241.42,724.97 244.66,727.24C244.958,727.452 245.136,727.796 245.136,728.162C245.136,728.406 245.057,728.644 244.91,728.84C242.9,731.54 238.96,728.47 236.82,727.24C236.475,727.039 236.055,727.012 235.69,727.17L232.57,728.48C232.361,728.567 232.225,728.771 232.225,728.997C232.225,729.089 232.247,729.179 232.29,729.26C240.46,744.24 243.85,761.15 246.55,778.19C246.719,779.254 246.212,780.316 245.28,780.85L240.03,783.88C239.728,784.056 239.558,784.399 239.6,784.75C241.42,800.34 242.7,815.35 240.83,831.03C240.786,831.348 240.568,831.613 240.27,831.71C239.003,832.11 237.81,831.937 236.69,831.19ZM123.197,478.156C123.097,478.452 124.208,479.099 125.657,479.59C127.107,480.081 128.382,480.241 128.483,479.945C128.583,479.648 127.472,479.001 126.023,478.51C124.573,478.019 123.298,477.859 123.197,478.156ZM99.744,483.143C99.698,483.059 99.61,483.006 99.514,483.006C99.471,483.006 99.429,483.016 99.391,483.037L84.973,490.768C84.848,490.835 84.8,490.994 84.867,491.119L84.876,491.137C84.922,491.221 85.01,491.274 85.106,491.274C85.149,491.274 85.191,491.264 85.229,491.243L99.647,483.513C99.772,483.445 99.82,483.286 99.753,483.161L99.744,483.143ZM169.94,494.08C165.23,488.68 156.7,483.02 149.19,483.47C149.026,483.48 148.895,483.616 148.89,483.78L148.89,483.79C148.89,483.969 149.031,484.119 149.21,484.13C158.21,484.8 163.04,489.15 169.78,494.25C169.798,494.26 169.819,494.266 169.84,494.266C169.906,494.266 169.96,494.212 169.96,494.146C169.96,494.122 169.953,494.1 169.94,494.08ZM112.29,484.97C112.197,485.077 112.167,485.2 112.2,485.34C112.227,485.453 112.317,485.51 112.47,485.51C112.623,485.503 112.72,485.467 112.76,485.4C112.796,485.336 112.812,485.26 112.804,485.183C112.786,484.997 112.636,484.858 112.472,484.874C112.403,484.881 112.339,484.915 112.29,484.97ZM116.681,485.38C116.681,485.38 116.681,485.38 116.681,485.38C116.539,485.761 116.969,486.277 117.632,486.524C117.632,486.524 117.632,486.524 117.632,486.524C118.295,486.77 118.958,486.66 119.099,486.28C119.099,486.28 119.099,486.28 119.099,486.28C119.241,485.899 118.811,485.383 118.148,485.136C118.148,485.136 118.148,485.136 118.148,485.136C117.485,484.89 116.822,485 116.681,485.38ZM143.11,488.02C143.11,487.817 142.943,487.65 142.74,487.65C142.537,487.65 142.37,487.817 142.37,488.02C142.37,488.223 142.537,488.39 142.74,488.39C142.943,488.39 143.11,488.223 143.11,488.02ZM132.285,488.12C132.284,488.12 132.284,488.12 132.284,488.12C132.168,488.259 132.431,488.675 132.867,489.042C133.304,489.41 133.759,489.598 133.875,489.46C133.876,489.46 133.876,489.46 133.876,489.46C133.992,489.321 133.729,488.905 133.293,488.538C132.856,488.17 132.401,487.982 132.285,488.12ZM85.12,497.24C81.41,499.95 77.31,503.29 75.02,507.05C75.016,507.062 75.014,507.075 75.014,507.088C75.014,507.159 75.073,507.218 75.144,507.218C75.167,507.218 75.19,507.212 75.21,507.2C79.07,503.3 82.547,500.217 85.64,497.95C88.733,495.683 92.727,493.303 97.62,490.81C97.66,490.787 97.685,490.744 97.685,490.698C97.685,490.626 97.626,490.568 97.555,490.568C97.546,490.568 97.538,490.568 97.53,490.57C93.25,491.63 88.83,494.53 85.12,497.24ZM135.92,495.5L137.38,498.35C137.504,498.591 137.553,498.863 137.52,499.13C137.127,502.517 135.253,504.96 131.9,506.46C130.05,507.29 127.44,506.79 125.64,508.03C122.007,510.55 116.9,514.933 110.32,521.18C109.047,522.4 108,522.353 107.18,521.04C107.171,521.026 107.162,521.013 107.153,521C106.953,520.732 106.571,520.673 106.307,520.87C106.294,520.879 106.282,520.889 106.27,520.9C81.39,542.23 72.18,574.12 69.07,605.44C68.84,607.76 68.3,609.21 66.56,610.44C65.934,610.884 65.084,610.864 64.48,610.39C60.95,607.62 57.69,605.22 53.14,607.82C45.61,612.12 46.24,622.12 50.15,628.78C52.51,632.78 55.923,635.817 60.39,637.89C60.678,638.025 61.026,637.952 61.24,637.71C61.407,637.53 61.783,637.02 62.37,636.18C65.45,631.79 70.91,632.49 74.35,636.28C74.691,636.654 75.189,636.844 75.69,636.79L76.17,636.75C76.654,636.7 77.13,636.909 77.42,637.3C87.967,651.613 101.843,661.51 119.05,666.99C134.14,671.81 149.01,673.66 163.42,665.98C181.46,656.36 193.37,636.89 197.72,617.26C200.21,606.03 201.36,593.52 199,582.14C194.86,562.21 187.56,542.75 174.37,527.14C174.107,526.826 173.977,526.42 174.01,526.01C174.023,525.843 174.073,525.673 174.16,525.5C174.379,525.063 174.324,524.538 174.02,524.16C170.347,519.593 166.733,515.997 163.18,513.37C159.73,510.81 153,508.08 149.87,506.82C148.85,506.407 146.793,504.977 143.7,502.53C142.52,501.59 142.18,500.057 142.68,497.93C142.789,497.479 142.584,497.008 142.18,496.78C140.333,495.72 139.78,494.47 140.52,493.03C140.591,492.893 140.629,492.741 140.629,492.586C140.629,492.139 140.316,491.748 139.88,491.65L138.59,491.37C138.582,491.368 138.575,491.367 138.567,491.365C137.96,491.242 137.357,491.644 137.233,492.257C137.232,492.261 137.231,492.266 137.23,492.27C137.063,493.143 136.677,493.893 136.07,494.52C135.819,494.777 135.759,495.17 135.92,495.5ZM164.97,499.12C167.46,501.01 169.44,503.03 171.66,504.5C171.693,504.529 171.736,504.546 171.78,504.546C171.879,504.546 171.961,504.464 171.961,504.365C171.961,504.313 171.939,504.264 171.9,504.23C169.847,501.917 167.743,499.94 165.59,498.3C163.443,496.66 160.983,495.157 158.21,493.79C158.18,493.77 158.146,493.76 158.11,493.76C158.011,493.76 157.93,493.841 157.93,493.94C157.93,494 157.96,494.057 158.01,494.09C160.02,495.84 162.49,497.22 164.97,499.12ZM114.232,499.916C114.232,499.916 114.232,499.915 114.232,499.915C114.122,499.745 113.114,500.198 111.999,500.919C111.999,500.919 111.999,500.919 111.999,500.919C110.884,501.64 110.058,502.374 110.168,502.544C110.168,502.544 110.168,502.545 110.168,502.545C110.278,502.715 111.286,502.262 112.401,501.541C112.401,501.541 112.401,501.541 112.401,501.541C113.516,500.82 114.342,500.086 114.232,499.916ZM131.07,501.7C131.07,501.376 130.804,501.11 130.48,501.11C130.156,501.11 129.89,501.376 129.89,501.7C129.89,502.024 130.156,502.29 130.48,502.29C130.804,502.29 131.07,502.024 131.07,501.7ZM157.139,505.318C157.223,505.133 157.14,504.912 156.955,504.828L151.036,502.143C150.851,502.059 150.63,502.142 150.546,502.327L150.521,502.382C150.437,502.567 150.52,502.788 150.705,502.872L156.625,505.557C156.809,505.641 157.03,505.558 157.114,505.373L157.139,505.318ZM125.539,502.632C125.539,502.632 125.539,502.632 125.539,502.632C125.437,502.45 124.55,502.751 123.574,503.299C122.598,503.846 121.879,504.447 121.981,504.628C121.981,504.628 121.981,504.628 121.981,504.628C122.083,504.81 122.97,504.509 123.946,503.961C124.922,503.414 125.641,502.813 125.539,502.632ZM88.48,510.04C84.72,513.007 81.683,515.923 79.37,518.79C79.32,518.848 79.293,518.922 79.293,518.998C79.293,519.147 79.396,519.276 79.54,519.31C79.593,519.317 79.68,519.263 79.8,519.15C83.047,516.023 86.17,513.277 89.17,510.91C92.163,508.537 95.557,506.133 99.35,503.7C99.49,503.607 99.56,503.533 99.56,503.48C99.556,503.307 99.413,503.168 99.24,503.168C99.192,503.168 99.144,503.179 99.1,503.2C95.78,504.787 92.24,507.067 88.48,510.04ZM166.529,510.291C166.456,510.387 167.244,511.124 168.275,511.924C169.307,512.724 170.217,513.304 170.291,513.209C170.364,513.113 169.576,512.376 168.545,511.576C167.513,510.776 166.603,510.196 166.529,510.291ZM93.635,521.821C93.455,521.644 91.945,522.889 90.291,524.578C88.637,526.267 87.424,527.803 87.604,527.979C87.604,527.979 87.604,527.979 87.605,527.979C87.785,528.156 89.295,526.911 90.949,525.222C92.603,523.533 93.816,521.997 93.636,521.821C93.636,521.821 93.636,521.821 93.636,521.821ZM79.343,523.715C79.343,523.715 79.343,523.715 79.343,523.715C79.184,523.572 77.734,524.914 76.131,526.688C76.131,526.688 76.131,526.689 76.131,526.689C74.527,528.463 73.338,530.042 73.497,530.185C73.497,530.185 73.497,530.185 73.497,530.185C73.656,530.328 75.106,528.986 76.709,527.212C76.709,527.212 76.709,527.211 76.709,527.211C78.313,525.437 79.502,523.858 79.343,523.715ZM53.95,540.28C52.083,545.547 50.65,550.577 49.65,555.37C49.497,556.083 49.457,556.78 49.53,557.46C49.541,557.516 49.591,557.557 49.648,557.557C49.698,557.557 49.742,557.526 49.76,557.48C51.587,550.787 53.307,545.167 54.92,540.62C56.527,536.073 58.723,530.623 61.51,524.27C61.514,524.258 61.516,524.246 61.516,524.233C61.516,524.167 61.462,524.113 61.396,524.113C61.368,524.113 61.341,524.123 61.32,524.14C60.833,524.627 60.427,525.193 60.1,525.84C57.867,530.193 55.817,535.007 53.95,540.28ZM60.35,558.39L66.61,537.28C66.615,537.266 66.617,537.251 66.617,537.236C66.617,537.172 66.573,537.115 66.51,537.1L66.45,537.08C66.448,537.079 66.445,537.078 66.443,537.078C65.796,536.886 63.881,541.394 62.202,547.064C62.201,547.066 61.989,547.782 61.989,547.784C60.309,553.454 59.46,558.277 60.107,558.469C60.108,558.469 60.18,558.49 60.18,558.49C60.254,558.509 60.331,558.464 60.35,558.39ZM76.244,547.661C76.336,547.468 76.253,547.233 76.059,547.142L76.005,547.116C75.953,547.091 75.896,547.078 75.838,547.078C75.687,547.078 75.55,547.165 75.486,547.301L70.596,557.599C70.504,557.792 70.587,558.027 70.781,558.118L70.835,558.144C70.887,558.169 70.944,558.182 71.002,558.182C71.153,558.182 71.29,558.095 71.355,557.959L76.244,547.661ZM209.45,560.14C209.683,560.053 209.69,559.75 209.47,559.23C208.07,555.863 207.287,554.21 207.12,554.27C206.973,554.33 207.513,556.077 208.74,559.51C208.927,560.043 209.163,560.253 209.45,560.14ZM204.981,560.012C204.981,560.012 204.981,560.012 204.981,560.012C204.835,559.766 204.444,559.727 204.114,559.923C204.114,559.923 204.114,559.923 204.114,559.923C203.784,560.12 203.633,560.483 203.779,560.728C203.779,560.728 203.779,560.728 203.779,560.728C203.925,560.974 204.316,561.013 204.646,560.817C204.646,560.817 204.646,560.817 204.646,560.817C204.976,560.62 205.127,560.257 204.981,560.012ZM71.11,563.24L70.58,568.09C70.58,568.093 70.58,568.097 70.58,568.1C70.58,568.168 70.632,568.225 70.7,568.23L70.75,568.24C70.751,568.24 70.751,568.24 70.752,568.24C71.313,568.301 71.894,567.254 72.04,565.92L72.07,565.68C72.07,565.679 72.07,565.678 72.07,565.677C72.215,564.341 71.873,563.191 71.311,563.13C71.311,563.13 71.31,563.13 71.31,563.13L71.25,563.12C71.247,563.12 71.243,563.12 71.24,563.12C71.172,563.12 71.115,563.172 71.11,563.24ZM205.7,593.29C207.767,592.203 209.713,592.12 211.54,593.04C211.953,593.241 212.455,593.103 212.7,592.72C216.973,585.967 218.063,578.863 215.97,571.41C213.81,563.75 205.78,562.04 201.05,568.9C200.662,569.452 200.548,570.153 200.74,570.8C202.873,577.873 204.237,585.207 204.83,592.8C204.833,592.842 204.841,592.884 204.853,592.925C204.944,593.241 205.276,593.427 205.587,593.336C205.626,593.325 205.664,593.309 205.7,593.29ZM57.11,573.99C57.197,573.583 57.19,573.263 57.09,573.03C57.065,572.972 57.027,572.93 56.979,572.909C56.819,572.837 56.585,573.004 56.462,573.279C56.425,573.361 56.4,573.447 56.39,573.53C56.377,573.61 56.427,573.783 56.54,574.05C56.587,574.16 56.696,574.232 56.816,574.232C56.958,574.232 57.082,574.13 57.11,573.99ZM44.735,582.347C44.735,582.342 44.735,582.338 44.735,582.334C44.735,582.053 44.508,581.821 44.228,581.814L44.208,581.814C44.204,581.813 44.2,581.813 44.195,581.813C43.915,581.813 43.682,582.04 43.676,582.321L43.065,607.313C43.065,607.318 43.065,607.322 43.065,607.326C43.065,607.607 43.292,607.839 43.572,607.846L43.592,607.846C43.596,607.847 43.6,607.847 43.605,607.847C43.885,607.847 44.118,607.62 44.124,607.339L44.735,582.347ZM52.95,587.2C52.978,586.899 52.754,586.629 52.454,586.6L52.414,586.597C52.114,586.568 51.843,586.792 51.815,587.092L50.29,603.22C50.262,603.521 50.486,603.791 50.786,603.82L50.826,603.824C51.126,603.852 51.397,603.628 51.425,603.328L52.95,587.2ZM209.815,596.113C207.687,595.454 205.361,596.771 204.662,599.029C203.962,601.288 205.138,603.689 207.266,604.347C209.393,605.006 211.719,603.689 212.418,601.431C213.118,599.172 211.942,596.771 209.815,596.113ZM58.339,600.909C58.155,600.629 57.612,600.657 57.135,600.97C56.658,601.283 56.417,601.771 56.601,602.051C56.785,602.331 57.328,602.303 57.805,601.99C58.282,601.677 58.523,601.189 58.339,600.909ZM64.14,603.59C64.147,603.577 64.07,602.74 63.91,601.08C63.895,600.905 63.747,600.77 63.571,600.77C63.481,600.77 63.394,600.806 63.33,600.87C62.65,601.543 62.437,602.41 62.69,603.47C62.765,603.819 63.076,604.071 63.433,604.071C63.744,604.071 64.026,603.88 64.14,603.59ZM214.47,606.47C214.477,606.477 214.484,606.484 214.492,606.491C214.581,606.563 214.717,606.546 214.794,606.453C214.8,606.446 214.805,606.438 214.81,606.43C214.883,606.31 214.867,606.153 214.76,605.96C214.731,605.911 214.679,605.881 214.622,605.881C214.569,605.881 214.52,605.907 214.49,605.95C214.363,606.163 214.357,606.337 214.47,606.47ZM221.21,629.84L221.85,629.81C221.945,629.805 222.02,629.725 222.02,629.63C222.02,629.627 222.02,629.623 222.02,629.62L221.49,620.06C221.49,620.059 221.49,620.057 221.49,620.056C221.117,613.39 220.608,607.916 220.361,607.93C220.361,607.93 220.26,607.94 220.26,607.94C220.013,607.954 220.117,613.45 220.49,620.116C220.49,620.117 220.49,620.119 220.49,620.12L221.02,629.67C221.025,629.765 221.105,629.84 221.2,629.84C221.203,629.84 221.207,629.84 221.21,629.84ZM72.61,641.41C72.61,638.941 70.579,636.91 68.11,636.91C65.641,636.91 63.61,638.941 63.61,641.41C63.61,643.879 65.641,645.91 68.11,645.91C70.579,645.91 72.61,643.879 72.61,641.41ZM51.015,637.041C50.937,637.118 51.137,637.448 51.458,637.771C51.779,638.094 52.107,638.296 52.185,638.219C52.263,638.142 52.063,637.812 51.742,637.489C51.421,637.166 51.093,636.964 51.015,637.041ZM221.828,638.111C221.828,637.848 221.612,637.631 221.349,637.63L221.289,637.63C221.025,637.63 220.808,637.846 220.808,638.109L220.792,646.989C220.792,647.252 221.008,647.469 221.271,647.47L221.331,647.47C221.595,647.47 221.812,647.254 221.812,646.991L221.828,638.111ZM45.765,642.144C45.684,641.94 45.45,641.838 45.246,641.919L45.209,641.934C45.057,641.994 44.956,642.142 44.956,642.306C44.956,642.356 44.966,642.406 44.984,642.453L49.895,654.856C49.976,655.06 50.21,655.162 50.414,655.081L50.451,655.066C50.603,655.006 50.704,654.858 50.704,654.694C50.704,654.644 50.694,654.594 50.676,654.547L45.765,642.144ZM201.146,644.676C200.866,644.663 200.336,650.797 199.971,658.265C199.605,665.733 199.535,671.89 199.814,671.904C199.814,671.904 199.814,671.904 199.814,671.904C200.094,671.917 200.624,665.783 200.989,658.315C201.355,650.847 201.425,644.69 201.146,644.676C201.146,644.676 201.146,644.676 201.146,644.676ZM189.47,648.71C189.617,648.523 189.657,648.3 189.59,648.04C189.584,648.011 189.571,647.987 189.552,647.968C189.471,647.886 189.295,647.928 189.163,648.059C189.135,648.087 189.11,648.118 189.09,648.15C189.03,648.237 189.003,648.373 189.01,648.56C189.018,648.697 189.133,648.804 189.27,648.804C189.347,648.804 189.421,648.77 189.47,648.71ZM64.236,648.784C64.093,648.943 64.284,649.352 64.659,649.69C64.659,649.69 64.659,649.69 64.659,649.69C65.034,650.028 65.461,650.175 65.604,650.016C65.604,650.016 65.604,650.016 65.604,650.016C65.747,649.857 65.556,649.448 65.181,649.11C65.181,649.11 65.181,649.11 65.181,649.11C64.806,648.772 64.379,648.625 64.236,648.784C64.236,648.784 64.236,648.784 64.236,648.784ZM56.334,649.148C56.334,649.148 56.334,649.148 56.334,649.148C56.153,649.273 56.32,649.829 56.701,650.378C56.701,650.378 56.702,650.378 56.702,650.378C57.083,650.928 57.546,651.277 57.726,651.152C57.726,651.152 57.726,651.152 57.726,651.152C57.907,651.027 57.74,650.471 57.359,649.922C57.359,649.922 57.358,649.922 57.358,649.922C56.977,649.372 56.514,649.023 56.334,649.148ZM209.892,651.524C209.892,651.524 209.892,651.524 209.892,651.524C209.65,651.517 209.325,655.558 209.17,660.476C209.17,660.476 209.17,660.476 209.17,660.476C209.016,665.394 209.087,669.448 209.328,669.456C209.328,669.456 209.328,669.456 209.328,669.456C209.57,669.463 209.895,665.422 210.05,660.504C210.05,660.504 210.05,660.504 210.05,660.504C210.204,655.586 210.133,651.532 209.892,651.524ZM219.02,679.52C220.247,685.02 221.787,689.723 223.64,693.63C223.704,693.76 223.836,693.842 223.981,693.842C224.087,693.842 224.188,693.798 224.26,693.72C224.3,693.667 224.293,693.547 224.24,693.36C222.58,688.327 221.263,683.62 220.29,679.24C219.317,674.86 218.51,670.04 217.87,664.78C217.843,664.587 217.8,664.473 217.74,664.44C217.693,664.42 217.642,664.409 217.59,664.409C217.382,664.409 217.21,664.581 217.21,664.789C217.21,664.789 217.21,664.79 217.21,664.79C217.19,669.117 217.793,674.027 219.02,679.52ZM85.185,664.979C85.185,664.979 85.185,664.979 85.185,664.979C85.039,665.086 85.427,665.865 86.044,666.705C86.044,666.705 86.044,666.705 86.044,666.705C86.661,667.545 87.289,668.148 87.435,668.041C87.435,668.041 87.435,668.041 87.435,668.041C87.581,667.934 87.193,667.155 86.576,666.315C86.576,666.315 86.576,666.315 86.576,666.315C85.959,665.475 85.331,664.872 85.185,664.979ZM127.92,674.96C128.89,682.79 128.03,693.33 119.95,697.16C119.688,697.282 119.564,697.591 119.67,697.86L126.35,714.05C126.403,714.17 126.47,714.28 126.55,714.38C127.19,715.2 128.407,716.087 130.2,717.04C143.18,723.96 156.287,724.2 169.52,717.76C175.887,714.653 180.187,709.823 182.42,703.27C182.606,702.729 182.361,702.128 181.85,701.87C177.963,699.937 175.533,696.813 174.56,692.5C172.76,684.56 171.613,676.347 171.12,667.86C171.116,667.81 171.106,667.76 171.09,667.713C170.986,667.4 170.647,667.228 170.34,667.331C170.291,667.347 170.243,667.371 170.2,667.4C157.473,675.993 143.54,678.373 128.4,674.54C128.378,674.535 128.355,674.531 128.332,674.529C128.119,674.515 127.931,674.674 127.917,674.882C127.915,674.908 127.916,674.934 127.92,674.96ZM184.23,684.21L183.57,668.57L183.42,668.57C183.419,668.57 183.419,668.57 183.418,668.57C182.985,668.588 182.774,672.058 182.95,676.256C182.95,676.258 182.95,676.259 182.95,676.26L182.97,676.6C183.146,680.798 183.647,684.238 184.08,684.22L184.23,684.21ZM106.76,678.64C106.607,678.253 106.173,677.747 105.46,677.12C105.42,677.089 105.371,677.072 105.32,677.072C105.194,677.072 105.09,677.176 105.09,677.302C105.09,677.325 105.093,677.348 105.1,677.37C105.367,678.143 105.763,678.697 106.29,679.03C106.342,679.064 106.402,679.081 106.464,679.081C106.639,679.081 106.784,678.937 106.784,678.761C106.784,678.72 106.776,678.679 106.76,678.64ZM199.119,678.778C199.093,678.491 198.849,678.268 198.561,678.268C198.544,678.268 198.528,678.269 198.511,678.27L198.471,678.274C198.165,678.301 197.936,678.575 197.963,678.881L199.741,698.802C199.767,699.089 200.011,699.312 200.299,699.312C200.316,699.312 200.332,699.311 200.349,699.31L200.389,699.306C200.695,699.279 200.924,699.005 200.897,698.699L199.119,678.778ZM72.356,685.96C72.219,686.03 72.592,687.032 73.181,688.178C73.77,689.325 74.368,690.21 74.504,690.14C74.641,690.07 74.268,689.068 73.679,687.922C73.09,686.775 72.492,685.89 72.356,685.96ZM59.5,700.47C59.89,702.67 61.08,707.11 62.97,709.17C63.033,709.249 63.128,709.296 63.229,709.296C63.41,709.296 63.559,709.147 63.559,708.966C63.559,708.919 63.549,708.873 63.53,708.83C62.44,706 61.3,703.02 60.81,700.24C60.33,697.46 60.4,694.27 60.48,691.23C60.48,691.224 60.481,691.218 60.481,691.212C60.481,691.031 60.332,690.882 60.151,690.882C60.012,690.882 59.887,690.969 59.84,691.1C58.75,693.68 59.12,698.26 59.5,700.47ZM68.83,691.88C68.88,691.884 68.928,691.876 68.972,691.856C69.132,691.782 69.194,691.57 69.109,691.386C69.085,691.334 69.051,691.287 69.01,691.25C68.917,691.17 68.783,691.127 68.61,691.12C68.601,691.12 68.592,691.12 68.583,691.121C68.462,691.134 68.373,691.238 68.385,691.353C68.386,691.362 68.388,691.371 68.39,691.38C68.47,691.693 68.617,691.86 68.83,691.88ZM88.18,702.06L83.31,693.76C83.301,693.742 83.279,693.733 83.26,693.74L83.07,693.86C82.709,694.085 83.199,695.611 84.16,697.25L85.54,699.61C85.541,699.612 85.542,699.613 85.543,699.615C86.509,701.262 87.608,702.438 87.977,702.222C87.978,702.221 87.979,702.221 87.98,702.22L88.17,702.11C88.185,702.098 88.189,702.077 88.18,702.06ZM96.233,694.407C96.153,694.156 95.881,694.015 95.63,694.096L95.592,694.108C95.393,694.171 95.258,694.357 95.258,694.565C95.258,694.614 95.265,694.664 95.281,694.711L96.807,699.493C96.887,699.744 97.159,699.885 97.41,699.805L97.448,699.792C97.647,699.729 97.782,699.543 97.782,699.335C97.782,699.286 97.775,699.236 97.76,699.189L96.233,694.407ZM184.59,699.05C184.603,699.03 184.633,698.95 184.68,698.81C184.693,698.771 184.689,698.728 184.67,698.69C184.55,698.463 184.417,698.51 184.27,698.83C184.262,698.853 184.257,698.876 184.257,698.9C184.257,699.01 184.347,699.1 184.457,699.1C184.506,699.1 184.553,699.083 184.59,699.05ZM68.788,701.91C68.787,701.91 68.787,701.91 68.787,701.91C68.436,702.077 68.685,703.344 69.339,704.716C69.339,704.716 69.339,704.716 69.339,704.716C69.993,706.087 70.821,707.078 71.173,706.91C71.173,706.91 71.173,706.91 71.173,706.91C71.524,706.743 71.275,705.476 70.621,704.104C70.621,704.104 70.621,704.104 70.621,704.104C69.967,702.733 69.139,701.742 68.788,701.91ZM98.49,703.57C98.177,703.677 98.13,704.017 98.35,704.59C99.77,708.277 100.56,710.093 100.72,710.04C100.907,709.973 100.383,708.063 99.15,704.31C98.957,703.723 98.737,703.477 98.49,703.57ZM92.81,711.71L102.79,727.38L103.11,727.18C103.359,727.023 103.508,726.798 103.44,726.68L93.72,711.43C93.646,711.315 93.38,711.351 93.13,711.51L92.81,711.71ZM123.698,718.774C123.564,718.594 123.305,718.556 123.124,718.69L123.092,718.713C122.911,718.848 122.873,719.107 123.007,719.287L126.942,724.586C127.076,724.766 127.335,724.804 127.516,724.67L127.548,724.646C127.729,724.512 127.767,724.253 127.633,724.073L123.698,718.774ZM232.42,721.13C233.573,722.57 234.267,723.197 234.5,723.01C234.72,722.837 234.253,722.03 233.1,720.59C231.953,719.15 231.263,718.52 231.03,718.7C230.803,718.88 231.267,719.69 232.42,721.13ZM227.902,722.722C227.698,722.922 228.04,723.605 228.659,724.235C229.278,724.864 229.955,725.218 230.158,725.018C230.158,725.018 230.158,725.018 230.159,725.018C230.362,724.818 230.02,724.135 229.401,723.506C228.782,722.876 228.105,722.522 227.902,722.722C227.902,722.722 227.902,722.722 227.902,722.722ZM97.449,727.713C97.352,727.601 97.18,727.588 97.068,727.684L97.007,727.736C96.895,727.833 96.882,728.005 96.978,728.117L105.711,738.307C105.808,738.419 105.98,738.432 106.092,738.336L106.153,738.284C106.265,738.187 106.278,738.015 106.182,737.903L97.449,727.713ZM110.738,730.262C110.738,730.262 110.738,730.262 110.738,730.262C110.517,730.459 112.453,732.991 115.027,735.87C117.602,738.749 119.902,740.956 120.122,740.758C120.122,740.758 120.122,740.758 120.122,740.758C120.343,740.561 118.407,738.029 115.833,735.15C113.258,732.271 110.958,730.064 110.738,730.262ZM115.315,748.116C115.357,748.041 115.38,747.956 115.38,747.87C115.38,747.69 115.283,747.523 115.126,747.435L107.606,743.18C107.531,743.138 107.446,743.115 107.36,743.115C107.18,743.115 107.013,743.212 106.925,743.369L106.905,743.404C106.863,743.479 106.84,743.564 106.84,743.65C106.84,743.83 106.937,743.997 107.094,744.085L114.614,748.34C114.689,748.382 114.774,748.405 114.86,748.405C115.04,748.405 115.207,748.308 115.295,748.151L115.315,748.116Z" style="fill:rgb(1,1,1);fill-rule:nonzero;"/>
        <g transform="matrix(-0.94721,-0.320613,0.320613,-0.94721,125.84,479.05)">
            <ellipse cx="0" cy="0" rx="2.79" ry="0.57" style="fill:rgb(114,171,157);"/>
        </g>
        <g transform="matrix(0.881303,-0.472551,0.472551,0.881303,92.31,487.14)">
            <path d="M8.44,-0.01L8.44,0.01C8.44,0.153 8.323,0.27 8.18,0.27L-8.18,0.27C-8.323,0.27 -8.44,0.153 -8.44,0.01L-8.44,-0.01C-8.44,-0.153 -8.323,-0.27 -8.18,-0.27L8.18,-0.27C8.323,-0.27 8.44,-0.153 8.44,-0.01Z" style="fill:white;"/>
        </g>
        <path d="M169.94,494.08C169.953,494.1 169.96,494.122 169.96,494.146C169.96,494.212 169.906,494.266 169.84,494.266C169.819,494.266 169.798,494.26 169.78,494.25C163.04,489.15 158.21,484.8 149.21,484.13C149.031,484.119 148.89,483.969 148.89,483.79L148.89,483.78C148.895,483.616 149.026,483.48 149.19,483.47C156.7,483.02 165.23,488.68 169.94,494.08Z" style="fill:white;fill-rule:nonzero;"/>
        <path d="M112.29,484.97C112.339,484.915 112.403,484.881 112.472,484.874C112.636,484.858 112.786,484.997 112.804,485.183C112.812,485.26 112.796,485.336 112.76,485.4C112.72,485.467 112.623,485.503 112.47,485.51C112.317,485.51 112.227,485.453 112.2,485.34C112.167,485.2 112.197,485.077 112.29,484.97Z" style="fill:rgb(114,171,157);fill-rule:nonzero;"/>
        <g transform="matrix(-0.937282,-0.348572,0.348572,-0.937282,117.89,485.83)">
            <ellipse cx="0" cy="0" rx="1.29" ry="0.74" style="fill:white;"/>
        </g>
        <circle cx="142.74" cy="488.02" r="0.37" style="fill:rgb(114,171,157);"/>
        <g transform="matrix(-0.764921,-0.644124,0.644124,-0.764921,133.08,488.79)">
            <ellipse cx="0" cy="0" rx="1.04" ry="0.33" style="fill:rgb(114,171,157);"/>
        </g>
        <path d="M85.12,497.24C88.83,494.53 93.25,491.63 97.53,490.57C97.538,490.568 97.546,490.568 97.555,490.568C97.626,490.568 97.685,490.626 97.685,490.698C97.685,490.744 97.66,490.787 97.62,490.81C92.727,493.303 88.733,495.683 85.64,497.95C82.547,500.217 79.07,503.3 75.21,507.2C75.19,507.212 75.167,507.218 75.144,507.218C75.073,507.218 75.014,507.159 75.014,507.088C75.014,507.075 75.016,507.062 75.02,507.05C77.31,503.29 81.41,499.95 85.12,497.24Z" style="fill:white;fill-rule:nonzero;"/>
        <path d="M135.92,495.5C135.759,495.17 135.819,494.777 136.07,494.52C136.677,493.893 137.063,493.143 137.23,492.27C137.231,492.266 137.232,492.261 137.233,492.257C137.357,491.644 137.96,491.242 138.567,491.365C138.575,491.367 138.582,491.368 138.59,491.37L139.88,491.65C140.316,491.748 140.629,492.139 140.629,492.586C140.629,492.741 140.591,492.893 140.52,493.03C139.78,494.47 140.333,495.72 142.18,496.78C142.584,497.008 142.789,497.479 142.68,497.93C142.18,500.057 142.52,501.59 143.7,502.53C146.793,504.977 148.85,506.407 149.87,506.82C153,508.08 159.73,510.81 163.18,513.37C166.733,515.997 170.347,519.593 174.02,524.16C174.324,524.538 174.379,525.063 174.16,525.5C174.073,525.673 174.023,525.843 174.01,526.01C173.977,526.42 174.107,526.826 174.37,527.14C187.56,542.75 194.86,562.21 199,582.14C201.36,593.52 200.21,606.03 197.72,617.26C193.37,636.89 181.46,656.36 163.42,665.98C149.01,673.66 134.14,671.81 119.05,666.99C101.843,661.51 87.967,651.613 77.42,637.3C77.13,636.909 76.654,636.7 76.17,636.75L75.69,636.79C75.189,636.844 74.691,636.654 74.35,636.28C70.91,632.49 65.45,631.79 62.37,636.18C61.783,637.02 61.407,637.53 61.24,637.71C61.026,637.952 60.678,638.025 60.39,637.89C55.923,635.817 52.51,632.78 50.15,628.78C46.24,622.12 45.61,612.12 53.14,607.82C57.69,605.22 60.95,607.62 64.48,610.39C65.084,610.864 65.934,610.884 66.56,610.44C68.3,609.21 68.84,607.76 69.07,605.44C72.18,574.12 81.39,542.23 106.27,520.9C106.282,520.889 106.294,520.879 106.307,520.87C106.571,520.673 106.953,520.732 107.153,521C107.162,521.013 107.171,521.026 107.18,521.04C108,522.353 109.047,522.4 110.32,521.18C116.9,514.933 122.007,510.55 125.64,508.03C127.44,506.79 130.05,507.29 131.9,506.46C135.253,504.96 137.127,502.517 137.52,499.13C137.553,498.863 137.504,498.591 137.38,498.35L135.92,495.5ZM156.65,557.45C152.88,556.95 149.16,555.65 145.76,554.07C144.82,553.63 143.65,553.7 142.92,554.49C142.234,555.219 142.119,556.28 142.65,556.99C145.27,560.51 151.86,562.48 155.91,563.02C159.96,563.55 166.84,563.36 170.28,560.63C170.975,560.083 171.141,559.031 170.67,558.15C170.17,557.2 169.06,556.83 168.04,557.01C164.34,557.66 160.41,557.94 156.65,557.45ZM97.03,573.41C93.81,575.75 90.04,577.45 86.31,578.7C85.28,579.05 84.44,579.94 84.46,581.07C84.467,582.117 85.145,583.003 86.06,583.16C90.59,583.95 97.03,580.7 100.49,578.18C103.96,575.67 109.05,570.56 109.7,566C109.828,565.082 109.193,564.167 108.2,563.84C107.14,563.47 106.03,563.99 105.38,564.86C103.04,568.02 100.25,571.07 97.03,573.41ZM167.39,580.13C167.39,576.707 164.573,573.89 161.15,573.89C157.727,573.89 154.91,576.707 154.91,580.13C154.91,583.553 157.727,586.37 161.15,586.37C164.573,586.37 167.39,583.553 167.39,580.13ZM163.54,590.65C160.74,591.05 157.787,590.62 154.68,589.36C154.527,589.298 154.363,589.266 154.198,589.266C153.651,589.266 153.161,589.614 152.98,590.13C152.773,590.723 152.91,591.24 153.39,591.68C155.91,593.99 160.91,594.35 164.01,593.9C167.11,593.45 171.81,591.71 173.58,588.77C173.913,588.217 173.897,587.687 173.53,587.18C173.288,586.842 172.897,586.641 172.481,586.641C172.19,586.641 171.908,586.739 171.68,586.92C169.053,589 166.34,590.243 163.54,590.65ZM109.44,599.17L111.39,595.34C111.738,594.663 111.767,593.863 111.47,593.16C111.103,592.067 110.24,590.703 108.88,589.07C105.76,585.33 100.64,587.2 99.62,591.67C99.053,594.13 99.747,596.743 101.7,599.51C101.921,599.829 102.235,600.073 102.6,600.21C104.813,601.063 106.867,600.957 108.76,599.89C109.053,599.72 109.29,599.47 109.44,599.17ZM104.28,605.46C101.613,605.967 98.76,605.677 95.72,604.59C95.587,604.543 95.448,604.519 95.307,604.519C94.762,604.519 94.278,604.878 94.12,605.4C93.947,605.98 94.1,606.47 94.58,606.87C97.1,608.99 101.91,609.12 104.87,608.57C107.82,608.01 112.26,606.15 113.84,603.26C114.14,602.713 114.103,602.203 113.73,601.73C113.495,601.427 113.133,601.249 112.75,601.249C112.452,601.249 112.165,601.356 111.94,601.55C109.507,603.657 106.953,604.96 104.28,605.46ZM140.46,630.47C135.687,631.803 131.577,634.207 128.13,637.68C126.95,638.86 125.61,640.53 127.34,642.11C127.582,642.334 127.9,642.458 128.23,642.458C128.626,642.458 129.001,642.279 129.25,641.97C132.283,638.223 136.37,635.633 141.51,634.2C146.643,632.767 151.477,632.867 156.01,634.5C156.154,634.553 156.307,634.58 156.46,634.58C157.044,634.58 157.56,634.191 157.72,633.63C158.38,631.38 156.37,630.64 154.75,630.24C150.003,629.06 145.24,629.137 140.46,630.47Z" style="fill:white;fill-rule:nonzero;"/>
        <path d="M164.97,499.12C162.49,497.22 160.02,495.84 158.01,494.09C157.96,494.057 157.93,494 157.93,493.94C157.93,493.841 158.011,493.76 158.11,493.76C158.146,493.76 158.18,493.77 158.21,493.79C160.983,495.157 163.443,496.66 165.59,498.3C167.743,499.94 169.847,501.917 171.9,504.23C171.939,504.264 171.961,504.313 171.961,504.365C171.961,504.464 171.879,504.546 171.78,504.546C171.736,504.546 171.693,504.529 171.66,504.5C169.44,503.03 167.46,501.01 164.97,499.12Z" style="fill:white;fill-rule:nonzero;"/>
        <g transform="matrix(0.83962,-0.543174,0.543174,0.83962,112.2,501.23)">
            <ellipse cx="0" cy="0" rx="2.42" ry="0.37" style="fill:white;"/>
        </g>
        <circle cx="130.48" cy="501.7" r="0.59" style="fill:rgb(114,171,157);"/>
        <g transform="matrix(0.910684,0.413104,-0.413104,0.910684,153.83,503.85)">
            <path d="M3.62,-0.03L3.62,0.03C3.62,0.234 3.454,0.4 3.25,0.4L-3.25,0.4C-3.454,0.4 -3.62,0.234 -3.62,0.03L-3.62,-0.03C-3.62,-0.234 -3.454,-0.4 -3.25,-0.4L3.25,-0.4C3.454,-0.4 3.62,-0.234 3.62,-0.03Z" style="fill:white;"/>
        </g>
        <g transform="matrix(0.872069,-0.489382,0.489382,0.872069,123.76,503.63)">
            <ellipse cx="0" cy="0" rx="2.04" ry="0.38" style="fill:rgb(114,171,157);"/>
        </g>
        <path d="M88.48,510.04C92.24,507.067 95.78,504.787 99.1,503.2C99.144,503.179 99.192,503.168 99.24,503.168C99.413,503.168 99.556,503.307 99.56,503.48C99.56,503.533 99.49,503.607 99.35,503.7C95.557,506.133 92.163,508.537 89.17,510.91C86.17,513.277 83.047,516.023 79.8,519.15C79.68,519.263 79.593,519.317 79.54,519.31C79.396,519.276 79.293,519.147 79.293,518.998C79.293,518.922 79.32,518.848 79.37,518.79C81.683,515.923 84.72,513.007 88.48,510.04Z" style="fill:white;fill-rule:nonzero;"/>
        <g transform="matrix(-0.790155,-0.612907,0.612907,-0.790155,168.41,511.75)">
            <ellipse cx="0" cy="0" rx="2.38" ry="0.22" style="fill:white;"/>
        </g>
        <g transform="matrix(0.699663,-0.714473,0.714473,0.699663,90.62,524.9)">
            <ellipse cx="0" cy="0" rx="4.31" ry="0.46" style="fill:white;"/>
        </g>
        <g transform="matrix(0.670427,-0.741976,0.741976,0.670427,76.42,526.95)">
            <ellipse cx="0" cy="0" rx="4.36" ry="0.39" style="fill:white;"/>
        </g>
        <path d="M53.95,540.28C55.817,535.007 57.867,530.193 60.1,525.84C60.427,525.193 60.833,524.627 61.32,524.14C61.341,524.123 61.368,524.113 61.396,524.113C61.462,524.113 61.516,524.167 61.516,524.233C61.516,524.246 61.514,524.258 61.51,524.27C58.723,530.623 56.527,536.073 54.92,540.62C53.307,545.167 51.587,550.787 49.76,557.48C49.742,557.526 49.698,557.557 49.648,557.557C49.591,557.557 49.541,557.516 49.53,557.46C49.457,556.78 49.497,556.083 49.65,555.37C50.65,550.577 52.083,545.547 53.95,540.28Z" style="fill:white;fill-rule:nonzero;"/>
        <path d="M60.35,558.39C60.331,558.464 60.254,558.509 60.18,558.49C60.18,558.49 60.108,558.469 60.107,558.469C59.46,558.277 60.309,553.454 61.989,547.784C61.989,547.782 62.201,547.066 62.202,547.064C63.881,541.394 65.796,536.886 66.443,537.078C66.445,537.078 66.448,537.079 66.45,537.08L66.51,537.1C66.573,537.115 66.617,537.172 66.617,537.236C66.617,537.251 66.615,537.266 66.61,537.28L60.35,558.39Z" style="fill:white;fill-rule:nonzero;"/>
        <g transform="matrix(0.903335,0.428935,-0.428935,0.903335,73.42,552.63)">
            <path d="M0.42,-5.7L0.42,5.7C0.42,5.915 0.245,6.09 0.03,6.09L-0.03,6.09C-0.245,6.09 -0.42,5.915 -0.42,5.7L-0.42,-5.7C-0.42,-5.915 -0.245,-6.09 -0.03,-6.09L0.03,-6.09C0.245,-6.09 0.42,-5.915 0.42,-5.7Z" style="fill:white;"/>
        </g>
        <path d="M156.65,557.45C160.41,557.94 164.34,557.66 168.04,557.01C169.06,556.83 170.17,557.2 170.67,558.15C171.141,559.031 170.975,560.083 170.28,560.63C166.84,563.36 159.96,563.55 155.91,563.02C151.86,562.48 145.27,560.51 142.65,556.99C142.119,556.28 142.234,555.219 142.92,554.49C143.65,553.7 144.82,553.63 145.76,554.07C149.16,555.65 152.88,556.95 156.65,557.45Z" style="fill:rgb(1,1,1);fill-rule:nonzero;"/>
        <path d="M207.12,554.27C207.287,554.21 208.07,555.863 209.47,559.23C209.69,559.75 209.683,560.053 209.45,560.14C209.163,560.253 208.927,560.043 208.74,559.51C207.513,556.077 206.973,554.33 207.12,554.27Z" style="fill:rgb(114,171,157);fill-rule:nonzero;"/>
        <g transform="matrix(0.85896,-0.512043,0.512043,0.85896,204.38,560.37)">
            <ellipse cx="0" cy="0" rx="0.7" ry="0.52" style="fill:rgb(114,171,157);"/>
        </g>
        <path d="M71.11,563.24C71.115,563.172 71.172,563.12 71.24,563.12C71.243,563.12 71.247,563.12 71.25,563.12L71.31,563.13C71.31,563.13 71.311,563.13 71.311,563.13C71.873,563.191 72.215,564.341 72.07,565.677C72.07,565.678 72.07,565.679 72.07,565.68L72.04,565.92C71.894,567.254 71.313,568.301 70.752,568.24C70.751,568.24 70.751,568.24 70.75,568.24L70.7,568.23C70.632,568.225 70.58,568.168 70.58,568.1C70.58,568.097 70.58,568.093 70.58,568.09L71.11,563.24Z" style="fill:white;fill-rule:nonzero;"/>
        <path d="M97.03,573.41C100.25,571.07 103.04,568.02 105.38,564.86C106.03,563.99 107.14,563.47 108.2,563.84C109.193,564.167 109.828,565.082 109.7,566C109.05,570.56 103.96,575.67 100.49,578.18C97.03,580.7 90.59,583.95 86.06,583.16C85.145,583.003 84.467,582.117 84.46,581.07C84.44,579.94 85.28,579.05 86.31,578.7C90.04,577.45 93.81,575.75 97.03,573.41Z" style="fill:rgb(1,1,1);fill-rule:nonzero;"/>
        <path d="M205.7,593.29C205.664,593.309 205.626,593.325 205.587,593.336C205.276,593.427 204.944,593.241 204.853,592.925C204.841,592.884 204.833,592.842 204.83,592.8C204.237,585.207 202.873,577.873 200.74,570.8C200.548,570.153 200.662,569.452 201.05,568.9C205.78,562.04 213.81,563.75 215.97,571.41C218.063,578.863 216.973,585.967 212.7,592.72C212.455,593.103 211.953,593.241 211.54,593.04C209.713,592.12 207.767,592.203 205.7,593.29Z" style="fill:white;fill-rule:nonzero;"/>
        <path d="M56.54,574.05C56.427,573.783 56.377,573.61 56.39,573.53C56.4,573.447 56.425,573.361 56.462,573.279C56.585,573.004 56.819,572.837 56.979,572.909C57.027,572.93 57.065,572.972 57.09,573.03C57.19,573.263 57.197,573.583 57.11,573.99C57.082,574.13 56.958,574.232 56.816,574.232C56.696,574.232 56.587,574.16 56.54,574.05Z" style="fill:rgb(114,171,157);fill-rule:nonzero;"/>
        <path d="M167.39,580.13C167.39,583.553 164.573,586.37 161.15,586.37C157.727,586.37 154.91,583.553 154.91,580.13C154.91,576.707 157.727,573.89 161.15,573.89C164.573,573.89 167.39,576.707 167.39,580.13ZM160.913,577.401C160.459,577.595 160.287,578.228 160.532,578.803C160.778,579.378 161.353,579.692 161.807,579.499C162.261,579.305 162.433,578.672 162.188,578.097C161.942,577.522 161.367,577.208 160.913,577.401Z" style="fill:rgb(1,1,1);fill-rule:nonzero;"/>
        <g transform="matrix(-0.392337,-0.919821,0.919821,-0.392337,161.36,578.45)">
            <ellipse cx="0" cy="0" rx="1.14" ry="0.9" style="fill:white;"/>
        </g>
        <g transform="matrix(0.999701,0.0244322,-0.0244322,0.999701,43.9,594.83)">
            <path d="M0.53,-12.5L0.53,12.5C0.53,12.787 0.297,13.02 0.01,13.02L-0.01,13.02C-0.297,13.02 -0.53,12.787 -0.53,12.5L-0.53,-12.5C-0.53,-12.787 -0.297,-13.02 -0.01,-13.02L0.01,-13.02C0.297,-13.02 0.53,-12.787 0.53,-12.5Z" style="fill:rgb(114,171,157);"/>
        </g>
        <g transform="matrix(0.995562,0.0941083,-0.0941083,0.995562,51.62,595.21)">
            <path d="M0.57,-8.1L0.57,8.1C0.57,8.404 0.324,8.65 0.02,8.65L-0.02,8.65C-0.324,8.65 -0.57,8.404 -0.57,8.1L-0.57,-8.1C-0.57,-8.404 -0.324,-8.65 -0.02,-8.65L0.02,-8.65C0.324,-8.65 0.57,-8.404 0.57,-8.1Z" style="fill:rgb(114,171,157);"/>
        </g>
        <path d="M164.01,593.9C160.91,594.35 155.91,593.99 153.39,591.68C152.91,591.24 152.773,590.723 152.98,590.13C153.161,589.614 153.651,589.266 154.198,589.266C154.363,589.266 154.527,589.298 154.68,589.36C157.787,590.62 160.74,591.05 163.54,590.65C166.34,590.243 169.053,589 171.68,586.92C171.908,586.739 172.19,586.641 172.481,586.641C172.897,586.641 173.288,586.842 173.53,587.18C173.897,587.687 173.913,588.217 173.58,588.77C171.81,591.71 167.11,593.45 164.01,593.9Z" style="fill:rgb(1,1,1);fill-rule:nonzero;"/>
        <path d="M108.76,599.89C106.867,600.957 104.813,601.063 102.6,600.21C102.235,600.073 101.921,599.829 101.7,599.51C99.747,596.743 99.053,594.13 99.62,591.67C100.64,587.2 105.76,585.33 108.88,589.07C110.24,590.703 111.103,592.067 111.47,593.16C111.767,593.863 111.738,594.663 111.39,595.34L109.44,599.17C109.29,599.47 109.053,599.72 108.76,599.89ZM104.595,590.308C104.595,590.308 104.595,590.308 104.595,590.308C104.356,590.058 103.823,590.174 103.415,590.564C103.415,590.564 103.415,590.565 103.415,590.565C103.006,590.955 102.867,591.482 103.105,591.732C103.105,591.732 103.105,591.732 103.105,591.732C103.344,591.982 103.877,591.866 104.285,591.476C104.285,591.476 104.285,591.475 104.285,591.475C104.694,591.085 104.833,590.558 104.595,590.308Z" style="fill:rgb(1,1,1);fill-rule:nonzero;"/>
        <g transform="matrix(0.722967,-0.690882,0.690882,0.722967,103.85,591.02)">
            <ellipse cx="0" cy="0" rx="1.03" ry="0.63" style="fill:white;"/>
        </g>
        <g transform="matrix(0.295708,-0.955278,0.955278,0.295708,208.54,600.23)">
            <ellipse cx="0" cy="0" rx="4.31" ry="4.06" style="fill:white;"/>
        </g>
        <g transform="matrix(0.835807,-0.549023,0.549023,0.835807,57.47,601.48)">
            <ellipse cx="0" cy="0" rx="1.04" ry="0.61" style="fill:white;"/>
        </g>
        <path d="M64.14,603.59C64.026,603.88 63.744,604.071 63.433,604.071C63.076,604.071 62.765,603.819 62.69,603.47C62.437,602.41 62.65,601.543 63.33,600.87C63.394,600.806 63.481,600.77 63.571,600.77C63.747,600.77 63.895,600.905 63.91,601.08C64.07,602.74 64.147,603.577 64.14,603.59Z" style="fill:white;fill-rule:nonzero;"/>
        <path d="M104.28,605.46C106.953,604.96 109.507,603.657 111.94,601.55C112.165,601.356 112.452,601.249 112.75,601.249C113.133,601.249 113.495,601.427 113.73,601.73C114.103,602.203 114.14,602.713 113.84,603.26C112.26,606.15 107.82,608.01 104.87,608.57C101.91,609.12 97.1,608.99 94.58,606.87C94.1,606.47 93.947,605.98 94.12,605.4C94.278,604.878 94.762,604.519 95.307,604.519C95.448,604.519 95.587,604.543 95.72,604.59C98.76,605.677 101.613,605.967 104.28,605.46Z" style="fill:rgb(1,1,1);fill-rule:nonzero;"/>
        <path d="M214.47,606.47C214.357,606.337 214.363,606.163 214.49,605.95C214.52,605.907 214.569,605.881 214.622,605.881C214.679,605.881 214.731,605.911 214.76,605.96C214.867,606.153 214.883,606.31 214.81,606.43C214.805,606.438 214.8,606.446 214.794,606.453C214.717,606.546 214.581,606.563 214.492,606.491C214.484,606.484 214.477,606.477 214.47,606.47Z" style="fill:rgb(114,171,157);fill-rule:nonzero;"/>
        <path d="M221.21,629.84C221.207,629.84 221.203,629.84 221.2,629.84C221.105,629.84 221.025,629.765 221.02,629.67L220.49,620.12C220.49,620.119 220.49,620.117 220.49,620.116C220.117,613.45 220.013,607.954 220.26,607.94C220.26,607.94 220.361,607.93 220.361,607.93C220.608,607.916 221.117,613.39 221.49,620.056C221.49,620.057 221.49,620.059 221.49,620.06L222.02,629.62C222.02,629.623 222.02,629.627 222.02,629.63C222.02,629.725 221.945,629.805 221.85,629.81L221.21,629.84Z" style="fill:rgb(114,171,157);fill-rule:nonzero;"/>
        <path d="M141.51,634.2C136.37,635.633 132.283,638.223 129.25,641.97C129.001,642.279 128.626,642.458 128.23,642.458C127.9,642.458 127.582,642.334 127.34,642.11C125.61,640.53 126.95,638.86 128.13,637.68C131.577,634.207 135.687,631.803 140.46,630.47C145.24,629.137 150.003,629.06 154.75,630.24C156.37,630.64 158.38,631.38 157.72,633.63C157.56,634.191 157.044,634.58 156.46,634.58C156.307,634.58 156.154,634.553 156.01,634.5C151.477,632.867 146.643,632.767 141.51,634.2Z" style="fill:rgb(1,1,1);fill-rule:nonzero;"/>
        <circle cx="68.11" cy="641.41" r="4.5" style="fill:white;"/>
        <g transform="matrix(-0.704634,-0.709571,0.709571,-0.704634,51.6,637.63)">
            <ellipse cx="0" cy="0" rx="0.83" ry="0.2" style="fill:white;"/>
        </g>
        <g transform="matrix(0.999998,0.00174533,-0.00174533,0.999998,221.31,642.55)">
            <path d="M0.51,-4.44L0.51,4.44C0.51,4.705 0.295,4.92 0.03,4.92L-0.03,4.92C-0.295,4.92 -0.51,4.705 -0.51,4.44L-0.51,-4.44C-0.51,-4.705 -0.295,-4.92 -0.03,-4.92L0.03,-4.92C0.295,-4.92 0.51,-4.705 0.51,-4.44Z" style="fill:rgb(114,171,157);"/>
        </g>
        <g transform="matrix(0.929776,-0.368125,0.368125,0.929776,47.83,648.5)">
            <path d="M0.42,-6.67L0.42,6.67C0.42,6.891 0.241,7.07 0.02,7.07L-0.02,7.07C-0.241,7.07 -0.42,6.891 -0.42,6.67L-0.42,-6.67C-0.42,-6.891 -0.241,-7.07 -0.02,-7.07L0.02,-7.07C0.241,-7.07 0.42,-6.891 0.42,-6.67Z" style="fill:white;"/>
        </g>
        <g transform="matrix(0.0488498,-0.998806,0.998806,0.0488498,200.48,658.29)">
            <ellipse cx="0" cy="0" rx="13.63" ry="0.51" style="fill:white;"/>
        </g>
        <path d="M189.01,648.56C189.003,648.373 189.03,648.237 189.09,648.15C189.11,648.118 189.135,648.087 189.163,648.059C189.295,647.928 189.471,647.886 189.552,647.968C189.571,647.987 189.584,648.011 189.59,648.04C189.657,648.3 189.617,648.523 189.47,648.71C189.421,648.77 189.347,648.804 189.27,648.804C189.133,648.804 189.018,648.697 189.01,648.56Z" style="fill:rgb(114,171,157);fill-rule:nonzero;"/>
        <g transform="matrix(-0.743145,-0.669131,0.669131,-0.743145,64.92,649.4)">
            <ellipse cx="0" cy="0" rx="0.92" ry="0.39" style="fill:white;"/>
        </g>
        <g transform="matrix(-0.570714,-0.821149,0.821149,-0.570714,57.03,650.15)">
            <ellipse cx="0" cy="0" rx="1.22" ry="0.4" style="fill:white;"/>
        </g>
        <g transform="matrix(0.0314108,-0.999507,0.999507,0.0314108,209.61,660.49)">
            <ellipse cx="0" cy="0" rx="8.97" ry="0.44" style="fill:white;"/>
        </g>
        <path d="M219.02,679.52C217.793,674.027 217.19,669.117 217.21,664.79C217.21,664.79 217.21,664.789 217.21,664.789C217.21,664.581 217.382,664.409 217.59,664.409C217.642,664.409 217.693,664.42 217.74,664.44C217.8,664.473 217.843,664.587 217.87,664.78C218.51,670.04 219.317,674.86 220.29,679.24C221.263,683.62 222.58,688.327 224.24,693.36C224.293,693.547 224.3,693.667 224.26,693.72C224.188,693.798 224.087,693.842 223.981,693.842C223.836,693.842 223.704,693.76 223.64,693.63C221.787,689.723 220.247,685.02 219.02,679.52Z" style="fill:rgb(114,171,157);fill-rule:nonzero;"/>
        <g transform="matrix(-0.592013,-0.805928,0.805928,-0.592013,86.31,666.51)">
            <ellipse cx="0" cy="0" rx="1.9" ry="0.33" style="fill:rgb(114,171,157);"/>
        </g>
        <path d="M127.92,674.96C127.916,674.934 127.915,674.908 127.917,674.882C127.931,674.674 128.119,674.515 128.332,674.529C128.355,674.531 128.378,674.535 128.4,674.54C143.54,678.373 157.473,675.993 170.2,667.4C170.243,667.371 170.291,667.347 170.34,667.331C170.647,667.228 170.986,667.4 171.09,667.713C171.106,667.76 171.116,667.81 171.12,667.86C171.613,676.347 172.76,684.56 174.56,692.5C175.533,696.813 177.963,699.937 181.85,701.87C182.361,702.128 182.606,702.729 182.42,703.27C180.187,709.823 175.887,714.653 169.52,717.76C156.287,724.2 143.18,723.96 130.2,717.04C128.407,716.087 127.19,715.2 126.55,714.38C126.47,714.28 126.403,714.17 126.35,714.05L119.67,697.86C119.564,697.591 119.688,697.282 119.95,697.16C128.03,693.33 128.89,682.79 127.92,674.96Z" style="fill:white;fill-rule:nonzero;"/>
        <path d="M184.23,684.21L184.08,684.22C183.647,684.238 183.146,680.798 182.97,676.6L182.95,676.26C182.95,676.259 182.95,676.258 182.95,676.256C182.774,672.058 182.985,668.588 183.418,668.57C183.419,668.57 183.419,668.57 183.42,668.57L183.57,668.57L184.23,684.21Z" style="fill:white;fill-rule:nonzero;"/>
        <path d="M106.76,678.64C106.776,678.679 106.784,678.72 106.784,678.761C106.784,678.937 106.639,679.081 106.464,679.081C106.402,679.081 106.342,679.064 106.29,679.03C105.763,678.697 105.367,678.143 105.1,677.37C105.093,677.348 105.09,677.325 105.09,677.302C105.09,677.176 105.194,677.072 105.32,677.072C105.371,677.072 105.42,677.089 105.46,677.12C106.173,677.747 106.607,678.253 106.76,678.64Z" style="fill:white;fill-rule:nonzero;"/>
        <g transform="matrix(0.996041,-0.0888943,0.0888943,0.996041,199.43,688.79)">
            <path d="M0.58,-10L0.58,10C0.58,10.309 0.329,10.56 0.02,10.56L-0.02,10.56C-0.329,10.56 -0.58,10.309 -0.58,10L-0.58,-10C-0.58,-10.309 -0.329,-10.56 -0.02,-10.56L0.02,-10.56C0.329,-10.56 0.58,-10.309 0.58,-10Z" style="fill:rgb(114,171,157);"/>
        </g>
        <g transform="matrix(-0.457098,-0.889416,0.889416,-0.457098,73.43,688.05)">
            <ellipse cx="0" cy="0" rx="2.35" ry="0.28" style="fill:rgb(114,171,157);"/>
        </g>
        <path d="M59.5,700.47C59.12,698.26 58.75,693.68 59.84,691.1C59.887,690.969 60.012,690.882 60.151,690.882C60.332,690.882 60.481,691.031 60.481,691.212C60.481,691.218 60.48,691.224 60.48,691.23C60.4,694.27 60.33,697.46 60.81,700.24C61.3,703.02 62.44,706 63.53,708.83C63.549,708.873 63.559,708.919 63.559,708.966C63.559,709.147 63.41,709.296 63.229,709.296C63.128,709.296 63.033,709.249 62.97,709.17C61.08,707.11 59.89,702.67 59.5,700.47Z" style="fill:rgb(114,171,157);fill-rule:nonzero;"/>
        <path d="M68.83,691.88C68.617,691.86 68.47,691.693 68.39,691.38C68.388,691.371 68.386,691.362 68.385,691.353C68.373,691.238 68.462,691.134 68.583,691.121C68.592,691.12 68.601,691.12 68.61,691.12C68.783,691.127 68.917,691.17 69.01,691.25C69.051,691.287 69.085,691.334 69.109,691.386C69.194,691.57 69.132,691.782 68.972,691.856C68.928,691.876 68.88,691.884 68.83,691.88Z" style="fill:rgb(114,171,157);fill-rule:nonzero;"/>
        <path d="M88.18,702.06C88.189,702.077 88.185,702.098 88.17,702.11L87.98,702.22C87.979,702.221 87.978,702.221 87.977,702.222C87.608,702.438 86.509,701.262 85.543,699.615C85.542,699.613 85.541,699.612 85.54,699.61L84.16,697.25C83.199,695.611 82.709,694.085 83.07,693.86L83.26,693.74C83.279,693.733 83.301,693.742 83.31,693.76L88.18,702.06Z" style="fill:white;fill-rule:nonzero;"/>
        <g transform="matrix(0.952661,-0.304033,0.304033,0.952661,96.52,696.95)">
            <path d="M0.5,-2.51L0.5,2.51C0.5,2.775 0.285,2.99 0.02,2.99L-0.02,2.99C-0.285,2.99 -0.5,2.775 -0.5,2.51L-0.5,-2.51C-0.5,-2.775 -0.285,-2.99 -0.02,-2.99L0.02,-2.99C0.285,-2.99 0.5,-2.775 0.5,-2.51Z" style="fill:white;"/>
        </g>
        <path d="M184.59,699.05C184.553,699.083 184.506,699.1 184.457,699.1C184.347,699.1 184.257,699.01 184.257,698.9C184.257,698.876 184.262,698.853 184.27,698.83C184.417,698.51 184.55,698.463 184.67,698.69C184.689,698.728 184.693,698.771 184.68,698.81C184.633,698.95 184.603,699.03 184.59,699.05Z" style="fill:rgb(114,171,157);fill-rule:nonzero;"/>
        <g transform="matrix(-0.430511,-0.902585,0.902585,-0.430511,69.98,704.41)">
            <ellipse cx="0" cy="0" rx="2.77" ry="0.71" style="fill:rgb(114,171,157);"/>
        </g>
        <path d="M98.49,703.57C98.737,703.477 98.957,703.723 99.15,704.31C100.383,708.063 100.907,709.973 100.72,710.04C100.56,710.093 99.77,708.277 98.35,704.59C98.13,704.017 98.177,703.677 98.49,703.57Z" style="fill:rgb(114,171,157);fill-rule:nonzero;"/>
        <path d="M204.69,834.77C189.123,836.057 176.81,836.943 167.75,837.43C138.597,839.01 109.523,838.117 80.53,834.75C78.29,834.49 76.317,833.977 74.61,833.21C75.497,820.65 77.387,808.233 80.28,795.96C80.338,795.703 80.583,795.528 80.85,795.55C83.137,795.723 84.523,794.63 85.01,792.27C86.783,783.623 88.593,774.76 90.44,765.68C90.463,765.564 90.475,765.447 90.475,765.329C90.475,764.461 89.837,763.715 88.98,763.58L88.88,763.56C87.869,763.399 86.894,764.06 86.67,765.06L80.99,790.56C80.908,790.919 80.577,791.169 80.21,791.15C65.9,790.52 52.95,785.6 40.66,778.86C40.308,778.668 40.131,778.258 40.23,777.87C45.71,755.88 54.33,734.18 69.12,717.16C71.067,714.92 73.257,713.083 75.69,711.65C75.692,711.649 75.695,711.647 75.697,711.646C75.988,711.479 76.361,711.576 76.525,711.862C76.527,711.864 76.528,711.867 76.53,711.87C82.077,721.823 88.88,730.963 96.94,739.29C101.993,744.51 107.673,748.503 113.98,751.27C116.99,752.59 117.31,750.72 119.66,749.96C120.067,749.826 120.517,749.869 120.9,750.08L123.53,751.52C124.37,751.978 125.428,751.761 126.02,751.01L126.06,750.96C126.282,750.7 126.404,750.368 126.404,750.026C126.404,749.498 126.114,749.011 125.65,748.76L121.31,746.39C121.072,746.264 120.958,745.981 121.04,745.72L121.05,745.7C121.161,745.42 121.472,745.271 121.76,745.36C123.473,745.88 125.08,745.847 126.58,745.26C127.29,744.981 127.759,744.292 127.759,743.529C127.759,743.203 127.673,742.883 127.51,742.6L126.5,740.85C126.456,740.784 126.432,740.706 126.432,740.627C126.432,740.408 126.613,740.227 126.832,740.227C126.931,740.227 127.027,740.264 127.1,740.33L130.57,743.05C130.756,743.192 130.999,743.23 131.21,743.15C132.137,742.823 132.693,742.183 132.88,741.23C132.944,740.89 132.872,740.541 132.68,740.26C131.1,737.993 129.167,735.033 126.88,731.38C126.58,730.9 126.4,730.403 126.34,729.89C126.339,729.879 126.338,729.867 126.338,729.856C126.338,729.67 126.492,729.516 126.678,729.516C126.755,729.516 126.83,729.542 126.89,729.59C131.7,733.66 135.18,736.46 141.15,737.93C142.028,738.147 142.943,737.685 143.29,736.85L143.61,736.09C143.669,735.944 143.699,735.789 143.699,735.632C143.699,735.061 143.298,734.562 142.74,734.44C139.43,733.73 137.75,734.38 135.39,730.78C134.143,728.873 132.733,726.197 131.16,722.75C131.137,722.703 131.126,722.651 131.126,722.599C131.126,722.407 131.284,722.249 131.476,722.249C131.533,722.249 131.589,722.263 131.64,722.29C139.093,726.257 147.047,727.72 155.5,726.68C168.9,725.02 181.34,718.38 186.23,705.6C186.259,705.528 186.305,705.464 186.364,705.414C186.56,705.247 186.856,705.268 187.02,705.46C187.071,705.52 187.105,705.592 187.12,705.67C188.59,712.75 189.27,717.16 188.83,723.78C188.65,726.51 187.39,729.32 186.58,731.37C186.569,731.398 186.559,731.426 186.55,731.455C186.357,732.079 186.716,732.752 187.344,732.947C187.373,732.956 187.401,732.963 187.43,732.97L187.5,732.98C188.253,733.153 189.037,732.816 189.43,732.15C191.203,729.13 192.253,725.903 192.58,722.47C192.601,722.231 192.81,722.048 193.05,722.06L193.06,722.06C193.275,722.071 193.445,722.25 193.44,722.46C193.38,727.133 192.587,731.687 191.06,736.12C191.06,736.12 191.06,736.12 191.06,736.121C190.76,736.998 191.238,737.968 192.12,738.27L192.17,738.29C192.177,738.293 192.183,738.295 192.19,738.298C193.123,738.652 194.185,738.172 194.541,737.233C194.544,737.226 194.547,737.218 194.55,737.21L197.39,729.35C197.436,729.23 197.565,729.162 197.69,729.19L197.94,729.24C197.945,729.24 197.95,729.245 197.95,729.25C197.583,733.717 196.173,737.547 193.72,740.74C193.678,740.794 193.639,740.851 193.605,740.911C193.196,741.619 193.446,742.54 194.159,742.951C194.217,742.985 194.278,743.014 194.34,743.04L194.39,743.06C195.36,743.464 196.492,743.113 197.07,742.23C200.37,737.157 202.513,732.16 203.5,727.24C204.533,722.1 205.343,717.647 205.93,713.88C205.966,713.675 206.146,713.525 206.353,713.525C206.503,713.525 206.642,713.603 206.72,713.73L207.64,715.33C207.832,715.667 208.191,715.875 208.578,715.875C208.941,715.875 209.28,715.693 209.48,715.39C209.867,714.797 210.227,714.427 210.56,714.28C210.901,714.131 211.297,714.173 211.6,714.39C214.94,716.763 217.067,718.307 217.98,719.02C234.68,732.12 239.09,756.62 242.24,777.39C242.294,777.756 242.102,778.116 241.77,778.27C232.257,782.723 222.293,785.8 211.88,787.5C211.869,787.502 211.858,787.503 211.847,787.504C211.487,787.542 211.16,787.281 211.123,786.927C211.122,786.915 211.121,786.902 211.12,786.89L210.15,767.72C210.112,766.98 209.493,766.391 208.752,766.391C208.505,766.391 208.263,766.456 208.05,766.58L207.52,766.89C206.865,767.264 206.474,767.977 206.51,768.73C207.603,790.437 206.997,812.45 204.69,834.77Z" style="fill:rgb(114,171,157);fill-rule:nonzero;"/>
        <path d="M92.81,711.71L93.13,711.51C93.38,711.351 93.646,711.315 93.72,711.43L103.44,726.68C103.508,726.798 103.359,727.023 103.11,727.18L102.79,727.38L92.81,711.71Z" style="fill:rgb(114,171,157);fill-rule:nonzero;"/>
        <g transform="matrix(0.802817,-0.596225,0.596225,0.802817,125.32,721.68)">
            <path d="M0.43,-3.3L0.43,3.3C0.43,3.526 0.246,3.71 0.02,3.71L-0.02,3.71C-0.246,3.71 -0.43,3.526 -0.43,3.3L-0.43,-3.3C-0.43,-3.526 -0.246,-3.71 -0.02,-3.71L0.02,-3.71C0.246,-3.71 0.43,-3.526 0.43,-3.3Z" style="fill:rgb(114,171,157);"/>
        </g>
        <path d="M231.03,718.7C231.263,718.52 231.953,719.15 233.1,720.59C234.253,722.03 234.72,722.837 234.5,723.01C234.267,723.197 233.573,722.57 232.42,721.13C231.267,719.69 230.803,718.88 231.03,718.7Z" style="fill:rgb(114,171,157);fill-rule:nonzero;"/>
        <g transform="matrix(-0.700909,-0.71325,0.71325,-0.700909,229.03,723.87)">
            <ellipse cx="0" cy="0" rx="1.61" ry="0.52" style="fill:rgb(114,171,157);"/>
        </g>
        <g transform="matrix(0.759271,-0.650774,0.650774,0.759271,101.58,733.01)">
            <path d="M0.31,-6.71L0.31,6.71C0.31,6.859 0.189,6.98 0.04,6.98L-0.04,6.98C-0.189,6.98 -0.31,6.859 -0.31,6.71L-0.31,-6.71C-0.31,-6.859 -0.189,-6.98 -0.04,-6.98L0.04,-6.98C0.189,-6.98 0.31,-6.859 0.31,-6.71Z" style="fill:rgb(114,171,157);"/>
        </g>
        <g transform="matrix(-0.666532,-0.745476,0.745476,-0.666532,115.43,735.51)">
            <ellipse cx="0" cy="0" rx="7.04" ry="0.54" style="fill:rgb(114,171,157);"/>
        </g>
        <g transform="matrix(0.870356,0.492424,-0.492424,0.870356,111.11,745.76)">
            <path d="M4.82,-0.02L4.82,0.02C4.82,0.296 4.596,0.52 4.32,0.52L-4.32,0.52C-4.596,0.52 -4.82,0.296 -4.82,0.02L-4.82,-0.02C-4.82,-0.296 -4.596,-0.52 -4.32,-0.52L4.32,-0.52C4.596,-0.52 4.82,-0.296 4.82,-0.02Z" style="fill:rgb(114,171,157);"/>
        </g>
        <path d="M236.69,831.19C227.423,830.897 218.26,831.677 209.2,833.53C210.627,819.843 211.377,806.197 211.45,792.59C211.456,792.303 211.667,792.058 211.95,792.01C219.903,790.75 227.61,788.677 235.07,785.79C235.094,785.781 235.119,785.773 235.144,785.767C235.448,785.695 235.757,785.882 235.827,786.181C235.833,786.207 235.838,786.233 235.84,786.26C237.41,800.91 238.65,815.92 236.69,831.19Z" style="fill:white;fill-rule:nonzero;"/>
        <path d="M70.31,833C63.99,833.12 57.637,833.14 51.25,833.06C46.877,833.007 42.66,832.62 38.6,831.9C39.573,816.64 41.66,801.593 44.86,786.76C44.906,786.55 45.094,786.399 45.309,786.399C45.383,786.399 45.455,786.416 45.52,786.45C55.013,791.197 64.89,794.167 75.15,795.36C75.17,795.362 75.189,795.365 75.209,795.369C75.629,795.447 75.911,795.861 75.832,796.287C75.828,796.305 75.824,796.323 75.82,796.34C72.747,808.193 70.91,820.413 70.31,833Z" style="fill:white;fill-rule:nonzero;"/>
    </g>
</svg>
