<?xml version="1.0" encoding="UTF-8" standalone="no"?>
<!DOCTYPE svg PUBLIC "-//W3C//DTD SVG 1.1//EN" "http://www.w3.org/Graphics/SVG/1.1/DTD/svg11.dtd">
<svg width="100%" height="100%" viewBox="0 0 217 363" version="1.1" xmlns="http://www.w3.org/2000/svg" xmlns:xlink="http://www.w3.org/1999/xlink" xml:space="preserve" xmlns:serif="http://www.serif.com/" style="fill-rule:evenodd;clip-rule:evenodd;stroke-linejoin:round;stroke-miterlimit:2;">
    <g transform="matrix(1,0,0,1,-34.9195,-54.8753)">
        <path d="M236.67,410.52C237.977,400.327 238.283,391.487 237.59,384C236.77,375.187 236.2,369.013 235.88,365.48C235.878,365.456 235.874,365.432 235.869,365.408C235.804,365.124 235.521,364.944 235.243,365.007C235.218,365.013 235.194,365.021 235.17,365.03C227.53,368.023 219.713,370.113 211.72,371.3C211.507,371.33 211.348,371.515 211.35,371.73C211.503,385.437 210.71,399.167 208.97,412.92C207.523,413.587 206.077,413.803 204.63,413.57C206.457,397.817 207.223,382.047 206.93,366.26C206.783,358.507 206.657,352.287 206.55,347.6C206.526,346.629 207.228,345.777 208.19,345.61L208.27,345.6C208.299,345.595 208.329,345.591 208.358,345.588C209.242,345.492 210.047,346.136 210.142,347.014C210.146,347.046 210.148,347.078 210.15,347.11L211.1,365.97C211.117,366.369 211.45,366.688 211.849,366.688C211.886,366.688 211.923,366.685 211.96,366.68C222.28,365.22 232.207,362.087 241.74,357.28C242.162,357.066 242.401,356.604 242.33,356.14C240.27,342.84 237.78,331.08 232.97,319.03C228.38,307.52 222,300.13 211.53,293.58C211.14,293.335 210.622,293.426 210.34,293.79L209.59,294.75C209.372,295.029 209.038,295.192 208.684,295.192C208.275,295.192 207.896,294.974 207.69,294.62L206.58,292.69C206.516,292.588 206.404,292.526 206.284,292.526C206.117,292.526 205.972,292.646 205.94,292.81C204.33,303.3 202.95,312.51 196.85,321.49C196.42,322.118 195.599,322.361 194.89,322.07L194.46,321.89C193.927,321.666 193.578,321.141 193.578,320.562C193.578,320.26 193.673,319.965 193.85,319.72C196.25,316.453 197.66,312.77 198.08,308.67C198.08,308.664 198.081,308.658 198.081,308.652C198.081,308.526 197.977,308.422 197.851,308.422C197.76,308.422 197.677,308.476 197.64,308.56L194.36,316.45C194.075,317.131 193.33,317.504 192.62,317.32L192.36,317.25C191.677,317.083 191.192,316.467 191.192,315.764C191.192,315.571 191.229,315.379 191.3,315.2C192.767,311.487 193.643,307.13 193.93,302.13C193.941,301.902 193.809,301.691 193.6,301.6L193.34,301.49C193.32,301.482 193.299,301.476 193.278,301.471C193.037,301.415 192.794,301.562 192.74,301.797C192.735,301.818 192.732,301.839 192.73,301.86C192.43,305.52 191.363,308.813 189.53,311.74C189.11,312.413 188.28,312.716 187.53,312.47L187.48,312.45C186.97,312.281 186.624,311.801 186.624,311.264C186.624,311.09 186.66,310.919 186.73,310.76C190.56,302.15 189.2,294.22 187.14,285.34C187.091,285.145 186.914,285.006 186.713,285.006C186.539,285.006 186.38,285.11 186.31,285.27C183.02,292.74 176.91,298.96 169.33,302.4C157.063,307.973 144.78,308.057 132.48,302.65C132.396,302.612 132.304,302.592 132.211,302.592C131.854,302.592 131.561,302.885 131.561,303.242C131.561,303.357 131.592,303.47 131.65,303.57L136.14,311.35C136.756,312.416 137.81,313.158 139.02,313.38L142.74,314.06C142.821,314.075 142.901,314.097 142.979,314.126C143.73,314.402 144.123,315.244 143.848,315.991C143.819,316.07 143.783,316.147 143.74,316.22L143.64,316.41C143.06,317.372 141.891,317.823 140.81,317.5C135.523,315.92 130.883,313.043 126.89,308.87C126.82,308.788 126.717,308.741 126.609,308.741C126.406,308.741 126.239,308.908 126.239,309.111C126.239,309.17 126.253,309.228 126.28,309.28C127.833,312.833 129.883,316.26 132.43,319.56C132.889,320.168 132.885,321.012 132.42,321.61L132.05,322.07C131.766,322.434 131.329,322.647 130.867,322.647C130.486,322.647 130.118,322.501 129.84,322.24L126.75,319.34C126.727,319.315 126.688,319.311 126.66,319.33L126.27,319.56C126.175,319.613 126.116,319.713 126.116,319.822C126.116,319.9 126.146,319.974 126.2,320.03C127.087,320.917 127.64,321.83 127.86,322.77C127.947,323.138 127.842,323.529 127.58,323.81C125.94,325.537 123.943,325.807 121.59,324.62C121.586,324.618 121.581,324.615 121.577,324.613C121.428,324.543 121.245,324.611 121.173,324.765C121.172,324.766 121.171,324.768 121.17,324.77L120.98,325.23C120.865,325.501 120.995,325.82 121.27,325.94L124.84,327.5C125.77,327.909 126.284,328.929 126.06,329.92L126,330.17C125.872,330.744 125.358,331.155 124.77,331.155C124.606,331.155 124.442,331.123 124.29,331.06L120.6,329.52C120.184,329.35 119.711,329.383 119.32,329.61L117.47,330.68C116.622,331.167 115.596,331.244 114.68,330.89C110.467,329.257 106.46,326.82 102.66,323.58C91.913,314.427 83.267,303.623 76.72,291.17C76.715,291.161 76.71,291.152 76.705,291.143C76.514,290.822 76.097,290.712 75.781,290.9C75.771,290.906 75.76,290.913 75.75,290.92C70.06,294.64 63.99,301.85 60.7,307.23C51.04,323.043 44.247,339.89 40.32,357.77C40.267,358.026 40.384,358.288 40.61,358.42C52.417,365.2 65.427,369.327 79.64,370.8C80.365,370.872 81.037,370.383 81.19,369.67L86.74,344.43C86.968,343.393 87.961,342.692 89.02,342.82L89.12,342.83C89.149,342.833 89.178,342.837 89.207,342.842C90.123,342.99 90.754,343.861 90.607,344.77C90.602,344.8 90.596,344.83 90.59,344.86C86.97,361.42 85.03,370.467 84.77,372C84.57,373.18 83.143,374.22 80.49,375.12C80.311,375.176 80.174,375.324 80.13,375.51C77.237,387.483 75.373,399.773 74.54,412.38L70.21,412.37C70.717,399.79 72.507,387.617 75.58,375.85C75.601,375.773 75.611,375.694 75.611,375.615C75.611,375.153 75.259,374.76 74.8,374.71C64.62,373.477 54.937,370.57 45.75,365.99C45.725,365.977 45.7,365.966 45.674,365.957C45.358,365.846 45.005,366.018 44.893,366.339C44.883,366.366 44.876,366.393 44.87,366.42C41.643,381.32 39.533,396.3 38.54,411.36C37.347,411.733 36.297,411.703 35.39,411.27C35.094,411.131 34.909,410.827 34.92,410.5C35.393,395.153 37.52,379.953 41.3,364.9C41.478,364.167 41.107,363.403 40.42,363.09C39.013,362.45 37.793,361.58 36.76,360.48C36.454,360.155 36.298,359.715 36.33,359.27C36.557,356.437 37.037,353.683 37.77,351.01C42.8,332.67 49.7,315.62 60.67,300.07C61.54,298.83 63.1,297.63 63.93,296.48C64.121,296.219 64.077,295.849 63.83,295.64C58.337,291.053 55.407,284.65 55.04,276.43C55.007,275.703 54.987,272.397 54.98,266.51C54.973,259.23 53.357,252.27 50.13,245.63C46.36,237.87 44.23,234.03 42.07,227.91C37.617,215.323 35.793,202.277 36.6,188.77C37.093,180.53 37.927,169.11 39.1,154.51C40.02,142.9 41.22,130.7 44.64,120.31C46.993,113.17 50.433,105.547 54.96,97.44C60.9,86.79 70.65,77.7 79.54,70.55C89.68,62.39 101.14,57.64 113.92,56.3C114.365,56.253 114.802,56.153 115.22,56C119.547,54.433 123.847,54.503 128.12,56.21C131.26,57.46 132.34,60.96 134.47,65.23C134.863,66.023 135.653,66.49 136.84,66.63C137.133,66.664 137.403,66.448 137.44,66.15C138.12,61.16 140.42,57.81 145.48,57.24C156.98,55.93 166.93,62.41 175.01,70.34C192.39,87.41 206.35,113.35 212.26,136.65C212.87,139.06 212.81,141.66 214.65,143.37C217.803,146.303 219.71,150.137 220.37,154.87C220.74,157.46 220.86,161.45 221.59,165.2C224.597,180.453 226.23,195.137 226.49,209.25C226.64,217.58 225.89,230.63 227,240.58C228.29,252.19 235.67,296.88 250.25,299.14C250.304,299.148 250.359,299.16 250.412,299.173C251.288,299.4 251.824,300.303 251.599,301.174C251.585,301.227 251.569,301.279 251.55,301.33L251.47,301.55C251.119,302.518 250.095,303.081 249.09,302.86C245.33,302.013 241.797,300.673 238.49,298.84C238.432,298.808 238.367,298.791 238.302,298.791C238.088,298.791 237.912,298.967 237.912,299.181C237.912,299.222 237.918,299.262 237.93,299.3C238.93,302.5 240.96,303.93 244.3,306.14C244.453,306.241 244.587,306.368 244.696,306.515C245.218,307.221 245.052,308.242 244.329,308.777C244.178,308.889 244.009,308.974 243.83,309.03C241.89,309.64 238.61,307.74 236.84,306.89C236.582,306.771 236.304,306.7 236.02,306.68C234.827,306.607 233.767,306.97 232.84,307.77C232.583,307.993 232.508,308.365 232.66,308.67C240.38,323.75 243.64,339.28 246.53,356.02C246.93,358.347 246.09,360.01 244.01,361.01C243.263,361.37 241.983,362.01 240.17,362.93C239.746,363.145 239.501,363.61 239.56,364.09C241.62,379.48 242.72,394.72 240.78,410.14C240.738,410.459 240.521,410.726 240.22,410.83C239.093,411.223 237.91,411.12 236.67,410.52ZM123.266,58.579C123.155,58.912 124.213,59.566 125.609,60.028C125.609,60.028 125.609,60.028 125.609,60.028C127.005,60.489 128.244,60.595 128.355,60.261C128.465,59.928 127.407,59.274 126.011,58.812C126.011,58.812 126.011,58.812 126.011,58.812C124.615,58.351 123.376,58.245 123.266,58.579ZM99.229,64.125C99.186,64.044 99.1,63.993 99.008,63.993C98.967,63.993 98.927,64.003 98.891,64.022L85.205,71.299C85.124,71.342 85.072,71.427 85.072,71.52C85.072,71.56 85.082,71.601 85.102,71.637L85.111,71.655C85.154,71.736 85.24,71.787 85.332,71.787C85.373,71.787 85.413,71.777 85.449,71.758L99.135,64.481C99.216,64.438 99.268,64.353 99.268,64.26C99.268,64.22 99.258,64.179 99.238,64.143L99.229,64.125ZM170.16,75C165.42,69.55 156.83,63.8 149.26,64.22C149.094,64.23 148.96,64.364 148.95,64.53L148.95,64.54C148.949,64.721 149.089,64.874 149.27,64.89C158.36,65.6 163.21,70.01 169.99,75.18C170.013,75.202 170.043,75.214 170.075,75.214C170.143,75.214 170.199,75.158 170.199,75.09C170.199,75.056 170.185,75.023 170.16,75ZM112.48,66.08C112.653,65.9 112.717,65.737 112.67,65.59C112.657,65.545 112.632,65.508 112.597,65.483C112.495,65.409 112.334,65.453 112.241,65.582C112.21,65.624 112.189,65.672 112.18,65.72C112.173,65.78 112.197,65.883 112.25,66.03C112.27,66.085 112.323,66.121 112.381,66.121C112.418,66.121 112.454,66.106 112.48,66.08ZM118.92,66.32C118.76,66.113 118.257,65.86 117.41,65.56C117.35,65.54 117.287,65.53 117.223,65.53C116.899,65.53 116.633,65.796 116.633,66.12C116.633,66.167 116.639,66.214 116.65,66.26C116.723,66.56 117.263,66.877 118.27,67.21C118.328,67.229 118.388,67.238 118.449,67.238C118.767,67.238 119.029,66.976 119.029,66.658C119.029,66.537 118.991,66.419 118.92,66.32ZM142.85,68.07C142.81,68.062 142.77,68.061 142.73,68.066C142.506,68.093 142.347,68.312 142.376,68.552C142.381,68.596 142.393,68.639 142.41,68.68C142.523,68.94 142.663,69.057 142.83,69.03C142.847,69.027 142.863,69.023 142.879,69.018C143.12,68.941 143.246,68.654 143.159,68.382C143.154,68.365 143.147,68.347 143.14,68.33C143.08,68.19 142.983,68.103 142.85,68.07ZM133.6,69.56C132.96,68.893 132.53,68.497 132.31,68.37C132.263,68.337 132.207,68.319 132.149,68.319C131.996,68.319 131.869,68.446 131.869,68.599C131.869,68.657 131.887,68.713 131.92,68.76C132.22,69.26 132.703,69.643 133.37,69.91C133.401,69.927 133.436,69.936 133.472,69.936C133.587,69.936 133.682,69.842 133.682,69.726C133.682,69.661 133.652,69.6 133.6,69.56ZM85.64,77.54C81.92,80.21 77.8,83.49 75.47,87.22C75.464,87.235 75.461,87.251 75.461,87.266C75.461,87.338 75.52,87.396 75.591,87.396C75.62,87.396 75.647,87.387 75.67,87.37C79.55,83.517 83.043,80.477 86.15,78.25C89.257,76.017 93.257,73.68 98.15,71.24C98.18,71.215 98.197,71.179 98.197,71.14C98.197,71.068 98.138,71.01 98.067,71.01C98.065,71.01 98.062,71.01 98.06,71.01C93.79,72.02 89.36,74.87 85.64,77.54ZM135.96,75.96L137.41,78.79C137.534,79.031 137.583,79.303 137.55,79.57C137.15,82.943 135.28,85.373 131.94,86.86C130.1,87.69 127.5,87.19 125.71,88.42C122.09,90.927 117,95.283 110.44,101.49C109.167,102.703 108.12,102.657 107.3,101.35C107.293,101.339 107.285,101.328 107.277,101.317C107.077,101.048 106.696,100.989 106.432,101.185C106.421,101.193 106.41,101.201 106.4,101.21C81.59,122.41 72.38,154.16 69.24,185.34C69.01,187.65 68.47,189.09 66.73,190.31C66.107,190.752 65.261,190.732 64.66,190.26C61.15,187.5 57.91,185.1 53.37,187.68C45.87,191.96 46.48,201.92 50.37,208.55C52.71,212.537 56.103,215.567 60.55,217.64C60.841,217.777 61.19,217.703 61.4,217.46C61.567,217.28 61.94,216.773 62.52,215.94C65.6,211.57 71.03,212.28 74.45,216.05C74.787,216.425 75.281,216.618 75.78,216.57L76.26,216.53C76.739,216.482 77.211,216.691 77.5,217.08C87.987,231.347 101.79,241.22 118.91,246.7C133.94,251.52 148.74,253.38 163.1,245.75C181.08,236.2 192.96,216.84 197.33,197.29C199.83,186.11 200.99,173.66 198.65,162.33C194.56,142.47 187.32,123.08 174.21,107.52C173.947,107.206 173.817,106.8 173.85,106.39C173.863,106.223 173.913,106.053 174,105.88C174.216,105.444 174.161,104.923 173.86,104.55C170.207,99.997 166.613,96.407 163.08,93.78C159.65,91.24 152.95,88.51 149.84,87.24C148.82,86.833 146.773,85.41 143.7,82.97C142.527,82.03 142.193,80.503 142.7,78.39C142.814,77.936 142.608,77.459 142.2,77.23C140.353,76.177 139.803,74.933 140.55,73.5C140.568,73.465 140.584,73.428 140.597,73.391C140.777,72.896 140.521,72.342 140.031,72.165C139.991,72.151 139.951,72.139 139.91,72.13L138.63,71.84C138.552,71.823 138.472,71.815 138.391,71.815C137.848,71.815 137.378,72.206 137.28,72.74C137.107,73.613 136.717,74.36 136.11,74.98C135.857,75.238 135.797,75.633 135.96,75.96ZM164.62,79.71C167.1,81.54 169.1,83.5 171.31,84.92C171.338,84.936 171.369,84.945 171.402,84.945C171.5,84.945 171.582,84.864 171.582,84.765C171.582,84.723 171.567,84.682 171.54,84.65C169.48,82.403 167.377,80.487 165.23,78.9C163.077,77.313 160.62,75.867 157.86,74.56C157.842,74.554 157.824,74.552 157.806,74.552C157.707,74.552 157.626,74.633 157.626,74.732C157.626,74.775 157.641,74.817 157.67,74.85C159.68,76.55 162.14,77.88 164.62,79.71ZM114.486,80.275C114.378,80.11 113.24,80.652 111.964,81.478C111.964,81.478 111.964,81.478 111.964,81.478C110.689,82.303 109.727,83.119 109.834,83.285C109.834,83.285 109.834,83.285 109.834,83.285C109.942,83.45 111.08,82.908 112.356,82.082C112.356,82.082 112.356,82.082 112.356,82.082C113.631,81.257 114.593,80.441 114.486,80.275C114.486,80.275 114.486,80.275 114.486,80.275ZM131.38,81.78C131.293,81.553 131.023,81.49 130.57,81.59C130.19,81.663 130,81.913 130,82.34C129.993,82.54 130.027,82.667 130.1,82.72C130.213,82.806 130.346,82.862 130.487,82.883C130.937,82.948 131.362,82.636 131.427,82.191C131.447,82.052 131.431,81.911 131.38,81.78ZM157.04,85.853C157.126,85.663 157.042,85.436 156.852,85.349L151.161,82.743C151.111,82.721 151.057,82.709 151.002,82.709C150.854,82.709 150.719,82.796 150.657,82.931L150.64,82.967C150.554,83.157 150.638,83.384 150.828,83.471L156.519,86.077C156.569,86.099 156.623,86.111 156.678,86.111C156.826,86.111 156.961,86.024 157.023,85.889L157.04,85.853ZM125.793,83.193C125.793,83.193 125.793,83.193 125.793,83.193C125.669,82.992 124.68,83.377 123.603,84.044C123.603,84.044 123.603,84.045 123.603,84.045C122.526,84.712 121.742,85.427 121.867,85.627C121.867,85.627 121.867,85.627 121.867,85.627C121.991,85.828 122.98,85.443 124.057,84.776C124.057,84.776 124.057,84.775 124.057,84.775C125.134,84.108 125.918,83.393 125.793,83.193ZM88.69,90.29C84.957,93.17 81.937,96.01 79.63,98.81C79.583,98.867 79.558,98.939 79.558,99.012C79.558,99.155 79.653,99.281 79.79,99.32C79.843,99.327 79.93,99.277 80.05,99.17C83.277,96.123 86.38,93.45 89.36,91.15C92.333,88.857 95.7,86.53 99.46,84.17C99.593,84.083 99.663,84.013 99.67,83.96C99.663,83.789 99.521,83.652 99.35,83.652C99.305,83.652 99.261,83.662 99.22,83.68C95.927,85.207 92.417,87.41 88.69,90.29ZM165.721,90.276C165.721,90.276 165.721,90.276 165.721,90.276C165.601,90.419 166.627,91.473 167.992,92.611C167.992,92.611 167.992,92.611 167.992,92.611C169.358,93.749 170.579,94.567 170.699,94.424C170.699,94.424 170.699,94.424 170.699,94.424C170.819,94.281 169.793,93.227 168.428,92.089C168.428,92.089 168.428,92.089 168.428,92.089C167.062,90.951 165.841,90.133 165.721,90.276ZM93.471,102.033C93.301,101.87 91.824,103.124 90.2,104.812C90.2,104.812 90.2,104.812 90.2,104.812C88.576,106.5 87.379,108.023 87.549,108.187C87.549,108.187 87.549,108.187 87.549,108.187C87.719,108.35 89.196,107.096 90.82,105.408C90.82,105.408 90.82,105.408 90.82,105.408C92.444,103.72 93.641,102.197 93.471,102.033C93.471,102.033 93.471,102.033 93.471,102.033ZM79.299,103.895C79.14,103.753 77.655,105.15 76.009,106.99C74.364,108.83 73.142,110.462 73.301,110.605C73.46,110.747 74.945,109.35 76.591,107.51C78.236,105.67 79.458,104.038 79.299,103.895ZM54,120.61C52.153,125.823 50.73,130.8 49.73,135.54C49.583,136.247 49.543,136.937 49.61,137.61C49.621,137.666 49.671,137.707 49.728,137.707C49.778,137.707 49.822,137.676 49.84,137.63C51.653,131.01 53.36,125.45 54.96,120.95C56.553,116.45 58.733,111.057 61.5,104.77C61.504,104.758 61.506,104.746 61.506,104.733C61.506,104.667 61.452,104.613 61.386,104.613C61.358,104.613 61.331,104.623 61.31,104.64C60.83,105.12 60.427,105.683 60.1,106.33C57.887,110.63 55.853,115.39 54,120.61ZM66.167,117.134C66.167,117.134 66.167,117.134 66.167,117.134C65.773,117.015 63.992,121.774 62.222,127.674C60.451,133.575 59.319,138.528 59.713,138.646C59.713,138.646 59.713,138.646 59.713,138.646C60.107,138.765 61.888,134.006 63.658,128.106C65.429,122.205 66.561,117.252 66.167,117.134ZM76.508,127.488C76.609,127.281 76.522,127.028 76.315,126.927L76.297,126.918C76.09,126.817 75.836,126.904 75.735,127.111L70.712,137.412C70.611,137.619 70.698,137.872 70.905,137.973L70.923,137.982C71.13,138.083 71.384,137.996 71.485,137.789L76.508,127.488ZM207.208,135.099C207.208,135.099 207.208,135.099 207.208,135.099C207.063,135.15 207.333,136.286 207.806,137.614C207.806,137.614 207.806,137.614 207.806,137.614C208.279,138.942 208.787,139.993 208.932,139.941C208.932,139.941 208.932,139.941 208.932,139.941C209.077,139.89 208.807,138.754 208.334,137.426C208.334,137.426 208.334,137.426 208.334,137.426C207.861,136.098 207.353,135.047 207.208,135.099ZM203.76,140.4C203.46,140.48 203.277,140.597 203.21,140.75C203.191,140.796 203.18,140.844 203.177,140.894C203.162,141.156 203.388,141.387 203.678,141.403C203.733,141.406 203.787,141.402 203.84,141.39C204,141.35 204.117,141.2 204.19,140.94C204.199,140.906 204.204,140.871 204.206,140.835C204.216,140.599 204.057,140.398 203.854,140.39C203.823,140.389 203.791,140.392 203.76,140.4ZM70.98,145.61C70.907,146.75 70.87,147.423 70.87,147.63C70.88,147.825 71.044,147.981 71.24,147.981C71.353,147.981 71.46,147.929 71.53,147.84C71.917,147.28 72.14,146.56 72.2,145.68C72.253,144.807 72.127,144.067 71.82,143.46C71.755,143.342 71.63,143.268 71.495,143.268C71.314,143.268 71.158,143.401 71.13,143.58C71.103,143.787 71.053,144.463 70.98,145.61ZM205.66,173.5C207.707,172.407 209.647,172.31 211.48,173.21C211.89,173.41 212.389,173.271 212.63,172.89C216.83,166.143 217.86,159.067 215.72,151.66C213.52,144.05 205.52,142.42 200.85,149.28C200.474,149.834 200.371,150.531 200.57,151.17C202.743,158.183 204.153,165.47 204.8,173.03C204.827,173.332 205.084,173.567 205.388,173.567C205.482,173.567 205.576,173.544 205.66,173.5ZM56.82,154.44C56.98,154.32 57.053,154.14 57.04,153.9C57.035,153.788 56.942,153.699 56.83,153.699C56.791,153.699 56.753,153.71 56.72,153.73C56.527,153.837 56.413,153.967 56.38,154.12C56.371,154.161 56.37,154.204 56.378,154.246C56.408,154.408 56.557,154.518 56.708,154.49C56.749,154.482 56.787,154.465 56.82,154.44ZM44.729,161.569C44.736,161.311 44.53,161.093 44.273,161.086L44.233,161.085C44.228,161.084 44.224,161.084 44.219,161.084C43.966,161.084 43.757,161.289 43.75,161.541L43.031,187.271C43.024,187.529 43.23,187.747 43.487,187.754L43.528,187.755C43.532,187.756 43.536,187.756 43.541,187.756C43.794,187.756 44.003,187.551 44.011,187.299L44.729,161.569ZM52.83,167.535C52.832,167.517 52.833,167.499 52.833,167.481C52.833,167.205 52.621,166.971 52.346,166.944L52.306,166.94C52.289,166.938 52.271,166.937 52.253,166.937C51.977,166.937 51.743,167.149 51.715,167.423L50.15,183.105C50.148,183.123 50.147,183.141 50.147,183.159C50.147,183.435 50.359,183.669 50.634,183.696L50.674,183.7C50.691,183.702 50.709,183.703 50.727,183.703C51.003,183.703 51.237,183.491 51.265,183.217L52.83,167.535ZM210.123,176.302C210.123,176.302 210.123,176.302 210.123,176.302C208.115,175.503 205.775,176.573 204.939,178.673C204.104,180.773 205.068,183.159 207.077,183.958C207.077,183.958 207.077,183.958 207.077,183.958C209.085,184.757 211.425,183.687 212.261,181.587C213.096,179.487 212.132,177.101 210.123,176.302ZM58.344,181.171C58.344,181.171 58.344,181.171 58.344,181.171C58.147,180.881 57.607,180.899 57.149,181.211C57.149,181.211 57.149,181.211 57.149,181.211C56.692,181.524 56.478,182.019 56.676,182.309C56.676,182.309 56.676,182.309 56.676,182.309C56.873,182.599 57.413,182.581 57.871,182.269C57.871,182.269 57.871,182.269 57.871,182.269C58.328,181.956 58.542,181.461 58.344,181.171ZM63.87,181.35C63.8,181.176 63.631,181.061 63.443,181.061C63.276,181.061 63.121,181.153 63.04,181.3C62.173,182.913 62.31,183.86 63.45,184.14C63.49,184.15 63.53,184.154 63.571,184.154C63.843,184.154 64.071,183.941 64.09,183.67C64.15,182.663 64.077,181.89 63.87,181.35ZM220.529,186.255C220.519,186.054 220.35,185.894 220.149,185.894C220.143,185.894 220.136,185.894 220.13,185.894L220.09,185.896C219.882,185.907 219.719,186.087 219.73,186.295L220.891,209.226C220.901,209.426 221.07,209.586 221.271,209.586C221.277,209.586 221.284,209.586 221.29,209.586L221.33,209.584C221.538,209.573 221.701,209.393 221.69,209.185L220.529,186.255ZM52.31,217.91C51.823,217.323 51.547,217.02 51.48,217C51.455,216.993 51.428,216.99 51.402,216.99C51.237,216.99 51.102,217.125 51.102,217.29C51.102,217.359 51.126,217.426 51.17,217.48C51.563,217.913 51.87,218.167 52.09,218.24C52.107,218.244 52.125,218.247 52.143,218.247C52.258,218.247 52.353,218.152 52.353,218.037C52.353,217.991 52.338,217.946 52.31,217.91ZM72.472,219.712C71.797,217.446 69.29,216.163 66.919,216.87C66.919,216.87 66.919,216.87 66.919,216.87C64.548,217.576 63.152,220.023 63.828,222.288C63.828,222.288 63.828,222.288 63.828,222.288C64.503,224.554 67.01,225.837 69.381,225.13C69.381,225.13 69.381,225.13 69.381,225.13C71.752,224.424 73.148,221.977 72.472,219.712C72.472,219.712 72.472,219.712 72.472,219.712ZM221.865,217.862C221.865,217.861 221.865,217.861 221.865,217.86C221.865,217.57 221.627,217.331 221.337,217.33L221.317,217.33C221.026,217.329 220.786,217.567 220.785,217.858L220.755,226.618C220.755,226.619 220.755,226.619 220.755,226.62C220.755,226.91 220.993,227.149 221.283,227.15L221.303,227.15C221.594,227.151 221.834,226.913 221.835,226.622L221.865,217.862ZM45.759,221.602C45.705,221.464 45.547,221.395 45.409,221.45L45.167,221.545C45.064,221.585 44.996,221.685 44.996,221.796C44.996,221.83 45.003,221.864 45.015,221.895L50.161,234.958C50.215,235.096 50.373,235.165 50.511,235.11L50.753,235.015C50.856,234.975 50.924,234.875 50.924,234.764C50.924,234.73 50.917,234.696 50.905,234.665L45.759,221.602ZM201.383,224.229C201.383,224.229 201.383,224.229 201.383,224.229C201.093,224.214 200.527,230.431 200.131,238.002C200.131,238.002 200.131,238.002 200.131,238.002C199.734,245.573 199.646,251.816 199.937,251.831C199.937,251.831 199.937,251.831 199.937,251.831C200.227,251.846 200.793,245.629 201.189,238.058C201.189,238.058 201.189,238.058 201.189,238.058C201.586,230.487 201.674,224.244 201.383,224.229ZM189.34,227.25C189.073,227.37 189.017,227.65 189.17,228.09C189.188,228.139 189.229,228.177 189.28,228.19C189.48,228.23 189.637,228.143 189.75,227.93C189.78,227.872 189.8,227.806 189.809,227.739C189.841,227.483 189.702,227.251 189.5,227.226C189.447,227.219 189.392,227.227 189.34,227.25ZM64.235,228.615C64.106,228.772 64.34,229.182 64.754,229.525C64.754,229.525 64.754,229.525 64.754,229.525C65.168,229.868 65.616,230.021 65.745,229.865C65.874,229.708 65.64,229.298 65.226,228.955C65.226,228.955 65.226,228.955 65.226,228.955C64.812,228.612 64.364,228.459 64.235,228.615ZM56.543,229.16C56.543,229.16 56.543,229.16 56.543,229.16C56.369,229.266 56.533,229.854 56.904,230.463C56.904,230.463 56.904,230.463 56.904,230.463C57.276,231.071 57.724,231.485 57.897,231.38C57.897,231.38 57.897,231.38 57.897,231.38C58.071,231.274 57.907,230.686 57.536,230.077C57.536,230.077 57.536,230.077 57.536,230.077C57.164,229.469 56.716,229.055 56.543,229.16ZM209.975,231.055C209.689,231.046 209.313,235.32 209.14,240.523C208.968,245.726 209.06,250.015 209.345,250.025C209.345,250.025 209.345,250.025 209.345,250.025C209.631,250.034 210.007,245.76 210.18,240.557C210.352,235.354 210.26,231.065 209.975,231.055C209.975,231.055 209.975,231.055 209.975,231.055ZM218.94,259.27C220.14,264.85 221.67,269.627 223.53,273.6C223.541,273.625 223.554,273.648 223.57,273.669C223.694,273.837 223.938,273.871 224.11,273.744C224.128,273.731 224.145,273.716 224.16,273.7C224.2,273.647 224.19,273.523 224.13,273.33C222.49,268.217 221.19,263.437 220.23,258.99C219.263,254.543 218.473,249.653 217.86,244.32C217.833,244.12 217.793,244.003 217.74,243.97C217.717,243.96 217.693,243.953 217.669,243.948C217.459,243.903 217.251,244.034 217.208,244.238C217.202,244.265 217.2,244.293 217.2,244.32C217.153,248.707 217.733,253.69 218.94,259.27ZM85.238,244.924C85.093,245.023 85.462,245.82 86.056,246.69C86.056,246.69 86.056,246.69 86.056,246.69C86.649,247.56 87.257,248.195 87.402,248.096C87.402,248.096 87.402,248.096 87.402,248.096C87.547,247.997 87.178,247.2 86.584,246.33C86.584,246.33 86.584,246.33 86.584,246.33C85.991,245.46 85.383,244.825 85.238,244.924C85.238,244.924 85.238,244.924 85.238,244.924ZM127.93,254.59C128.91,262.42 128.07,272.94 120.01,276.77C119.739,276.888 119.609,277.206 119.72,277.48L126.43,293.63C126.48,293.749 126.544,293.86 126.62,293.96C127.26,294.78 128.477,295.663 130.27,296.61C143.243,303.503 156.33,303.723 169.53,297.27C175.883,294.157 180.17,289.33 182.39,282.79C182.576,282.249 182.331,281.648 181.82,281.39C177.933,279.457 175.5,276.34 174.52,272.04C172.713,264.113 171.56,255.917 171.06,247.45C171.057,247.397 171.046,247.345 171.029,247.295C170.924,246.983 170.586,246.811 170.279,246.915C170.226,246.932 170.176,246.958 170.13,246.99C157.437,255.583 143.53,257.98 128.41,254.18C128.388,254.175 128.366,254.171 128.343,254.17C128.13,254.155 127.943,254.314 127.928,254.522C127.927,254.545 127.927,254.568 127.93,254.59ZM184.18,263.39L183.48,247.91C183.48,247.905 183.475,247.9 183.47,247.9L183.28,247.9C183.278,247.9 183.277,247.9 183.275,247.9C182.837,247.92 182.631,251.355 182.82,255.509C182.82,255.509 182.82,255.51 182.82,255.51L182.84,255.87C183.028,260.014 183.542,263.413 183.98,263.41L184.17,263.4C184.175,263.4 184.18,263.395 184.18,263.39ZM105.029,256.308C105.029,256.308 105.029,256.308 105.029,256.308C104.846,256.474 105.139,257.099 105.677,257.692C105.677,257.692 105.677,257.692 105.677,257.692C106.215,258.286 106.808,258.637 106.991,258.472C106.991,258.472 106.991,258.472 106.991,258.472C107.174,258.306 106.881,257.681 106.343,257.088C106.343,257.088 106.343,257.088 106.343,257.088C105.805,256.494 105.212,256.143 105.029,256.308ZM199.072,258.596C199.043,258.279 198.758,258.043 198.441,258.072L198.401,258.076C198.085,258.105 197.848,258.39 197.878,258.707L199.668,278.004C199.697,278.321 199.982,278.557 200.299,278.528L200.339,278.524C200.655,278.495 200.892,278.21 200.862,277.893L199.072,258.596ZM72,265.4L75.14,271.64L75.31,271.55C75.67,271.357 75.585,270.444 75.12,269.52L73.7,266.68C73.7,266.679 73.699,266.679 73.699,266.678C73.231,265.747 72.543,265.132 72.175,265.317C72.173,265.318 72.172,265.319 72.17,265.32L72,265.4ZM59.72,279.89C60.11,282.11 61.33,286.59 63.25,288.68C63.313,288.742 63.399,288.776 63.487,288.776C63.674,288.776 63.827,288.623 63.827,288.436C63.827,288.4 63.821,288.364 63.81,288.33C62.7,285.47 61.54,282.46 61.04,279.65C60.55,276.84 60.61,273.61 60.68,270.55C60.68,270.55 60.68,270.55 60.68,270.55C60.68,270.363 60.527,270.21 60.34,270.21C60.206,270.21 60.085,270.288 60.03,270.41C58.94,273.03 59.33,277.66 59.72,279.89ZM83.601,273.516C83.511,273.362 83.346,273.268 83.169,273.268C83.08,273.268 82.993,273.291 82.917,273.335L82.882,273.356C82.645,273.493 82.564,273.802 82.702,274.039L87.279,281.904C87.369,282.058 87.534,282.152 87.711,282.152C87.8,282.152 87.887,282.129 87.963,282.085L87.998,282.065C88.235,281.927 88.316,281.618 88.178,281.381L83.601,273.516ZM95.911,273.795C95.84,273.585 95.641,273.442 95.419,273.442C95.362,273.442 95.306,273.451 95.252,273.469L95.233,273.476C95.022,273.547 94.88,273.746 94.88,273.968C94.88,274.025 94.889,274.081 94.907,274.135L96.549,278.985C96.62,279.195 96.819,279.338 97.041,279.338C97.098,279.338 97.154,279.329 97.208,279.311L97.227,279.304C97.438,279.233 97.58,279.034 97.58,278.812C97.58,278.755 97.571,278.699 97.553,278.645L95.911,273.795ZM69.646,281.794C69.54,281.605 69.34,281.488 69.123,281.488C69.02,281.488 68.919,281.514 68.829,281.564L68.777,281.594C68.588,281.7 68.471,281.9 68.471,282.117C68.471,282.22 68.497,282.321 68.547,282.411L70.554,285.986C70.66,286.175 70.86,286.292 71.077,286.292C71.18,286.292 71.281,286.266 71.371,286.216L71.423,286.186C71.612,286.08 71.729,285.88 71.729,285.663C71.729,285.56 71.703,285.459 71.653,285.369L69.646,281.794ZM98.112,282.758C97.929,282.819 98.275,284.359 98.878,286.171C99.48,287.982 100.126,289.423 100.308,289.362C100.308,289.362 100.308,289.362 100.309,289.362C100.491,289.301 100.145,287.761 99.542,285.95C98.94,284.138 98.294,282.697 98.112,282.758C98.112,282.758 98.112,282.758 98.112,282.758ZM93.629,290.75C93.548,290.626 93.379,290.591 93.255,290.672L93.054,290.803C92.978,290.853 92.932,290.938 92.932,291.029C92.932,291.081 92.947,291.133 92.976,291.177L102.591,305.87C102.672,305.994 102.841,306.029 102.965,305.948L103.166,305.817C103.242,305.767 103.288,305.682 103.288,305.591C103.288,305.539 103.273,305.487 103.244,305.443L93.629,290.75ZM122.716,297.793C122.716,297.793 122.716,297.793 122.716,297.793C122.562,297.908 123.485,299.405 124.76,301.11C126.035,302.814 127.21,304.122 127.364,304.007C127.364,304.007 127.364,304.007 127.364,304.007C127.518,303.892 126.595,302.395 125.32,300.69C124.045,298.986 122.87,297.678 122.716,297.793ZM230.982,297.644C230.796,297.798 231.496,298.948 232.532,300.192C233.568,301.435 234.573,302.331 234.758,302.176C234.944,302.022 234.244,300.872 233.208,299.628C232.172,298.385 231.167,297.489 230.982,297.644ZM228.275,302.019C228.275,302.019 228.275,302.019 228.275,302.019C228.064,302.227 228.385,302.9 228.985,303.509C228.985,303.509 228.986,303.509 228.986,303.509C229.586,304.119 230.254,304.449 230.465,304.241C230.465,304.241 230.465,304.241 230.465,304.241C230.676,304.033 230.355,303.36 229.755,302.751C229.755,302.751 229.754,302.751 229.754,302.751C229.154,302.141 228.486,301.811 228.275,302.019ZM97.307,306.523C97.213,306.415 97.047,306.404 96.94,306.498L96.789,306.629C96.681,306.722 96.67,306.888 96.763,306.996L106.013,317.637C106.107,317.745 106.273,317.756 106.38,317.663L106.531,317.531C106.639,317.438 106.65,317.272 106.557,317.164L97.307,306.523ZM111.571,309.872C111.477,309.765 111.311,309.755 111.204,309.849L110.95,310.075C110.843,310.169 110.833,310.335 110.927,310.442L119.409,320.028C119.503,320.135 119.669,320.145 119.776,320.051L120.03,319.825C120.137,319.731 120.147,319.565 120.053,319.458L111.571,309.872ZM115.667,327.361C115.705,327.292 115.726,327.213 115.726,327.133C115.726,326.963 115.633,326.805 115.484,326.722L107.682,322.398C107.456,322.273 107.168,322.356 107.043,322.581L107.033,322.599C106.995,322.668 106.974,322.747 106.974,322.827C106.974,322.997 107.067,323.155 107.217,323.238L115.018,327.562C115.244,327.687 115.532,327.604 115.657,327.379L115.667,327.361Z" style="fill:rgb(1,1,1);fill-rule:nonzero;"/>
        <g transform="matrix(-0.949425,-0.313992,0.313992,-0.949425,125.81,59.42)">
            <ellipse cx="0" cy="0" rx="2.68" ry="0.64" style="fill:rgb(114,171,157);"/>
        </g>
        <g transform="matrix(0.882948,-0.469472,0.469472,0.882948,92.17,67.89)">
            <path d="M8,-0.01L8,0.01C8,0.148 7.888,0.26 7.75,0.26L-7.75,0.26C-7.888,0.26 -8,0.148 -8,0.01L-8,-0.01C-8,-0.148 -7.888,-0.26 -7.75,-0.26L7.75,-0.26C7.888,-0.26 8,-0.148 8,-0.01Z" style="fill:white;"/>
        </g>
        <path d="M170.16,75C170.185,75.023 170.199,75.056 170.199,75.09C170.199,75.158 170.143,75.214 170.075,75.214C170.043,75.214 170.013,75.202 169.99,75.18C163.21,70.01 158.36,65.6 149.27,64.89C149.089,64.874 148.949,64.721 148.95,64.54L148.95,64.53C148.96,64.364 149.094,64.23 149.26,64.22C156.83,63.8 165.42,69.55 170.16,75Z" style="fill:white;fill-rule:nonzero;"/>
        <path d="M112.25,66.03C112.197,65.883 112.173,65.78 112.18,65.72C112.189,65.672 112.21,65.624 112.241,65.582C112.334,65.453 112.495,65.409 112.597,65.483C112.632,65.508 112.657,65.545 112.67,65.59C112.717,65.737 112.653,65.9 112.48,66.08C112.454,66.106 112.418,66.121 112.381,66.121C112.323,66.121 112.27,66.085 112.25,66.03Z" style="fill:rgb(114,171,157);fill-rule:nonzero;"/>
        <path d="M118.92,66.32C118.991,66.419 119.029,66.537 119.029,66.658C119.029,66.976 118.767,67.238 118.449,67.238C118.388,67.238 118.328,67.229 118.27,67.21C117.263,66.877 116.723,66.56 116.65,66.26C116.639,66.214 116.633,66.167 116.633,66.12C116.633,65.796 116.899,65.53 117.223,65.53C117.287,65.53 117.35,65.54 117.41,65.56C118.257,65.86 118.76,66.113 118.92,66.32Z" style="fill:white;fill-rule:nonzero;"/>
        <path d="M142.85,68.07C142.983,68.103 143.08,68.19 143.14,68.33C143.147,68.347 143.154,68.365 143.159,68.382C143.246,68.654 143.12,68.941 142.879,69.018C142.863,69.023 142.847,69.027 142.83,69.03C142.663,69.057 142.523,68.94 142.41,68.68C142.393,68.639 142.381,68.596 142.376,68.552C142.347,68.312 142.506,68.093 142.73,68.066C142.77,68.061 142.81,68.062 142.85,68.07Z" style="fill:white;fill-rule:nonzero;"/>
        <path d="M133.37,69.91C132.703,69.643 132.22,69.26 131.92,68.76C131.887,68.713 131.869,68.657 131.869,68.599C131.869,68.446 131.996,68.319 132.149,68.319C132.207,68.319 132.263,68.337 132.31,68.37C132.53,68.497 132.96,68.893 133.6,69.56C133.652,69.6 133.682,69.661 133.682,69.726C133.682,69.842 133.587,69.936 133.472,69.936C133.436,69.936 133.401,69.927 133.37,69.91Z" style="fill:rgb(114,171,157);fill-rule:nonzero;"/>
        <path d="M85.64,77.54C89.36,74.87 93.79,72.02 98.06,71.01C98.062,71.01 98.065,71.01 98.067,71.01C98.138,71.01 98.197,71.068 98.197,71.14C98.197,71.179 98.18,71.215 98.15,71.24C93.257,73.68 89.257,76.017 86.15,78.25C83.043,80.477 79.55,83.517 75.67,87.37C75.647,87.387 75.62,87.396 75.591,87.396C75.52,87.396 75.461,87.338 75.461,87.266C75.461,87.251 75.464,87.235 75.47,87.22C77.8,83.49 81.92,80.21 85.64,77.54Z" style="fill:white;fill-rule:nonzero;"/>
        <path d="M135.96,75.96C135.797,75.633 135.857,75.238 136.11,74.98C136.717,74.36 137.107,73.613 137.28,72.74C137.378,72.206 137.848,71.815 138.391,71.815C138.472,71.815 138.552,71.823 138.63,71.84L139.91,72.13C139.951,72.139 139.991,72.151 140.031,72.165C140.521,72.342 140.777,72.896 140.597,73.391C140.584,73.428 140.568,73.465 140.55,73.5C139.803,74.933 140.353,76.177 142.2,77.23C142.608,77.459 142.814,77.936 142.7,78.39C142.193,80.503 142.527,82.03 143.7,82.97C146.773,85.41 148.82,86.833 149.84,87.24C152.95,88.51 159.65,91.24 163.08,93.78C166.613,96.407 170.207,99.997 173.86,104.55C174.161,104.923 174.216,105.444 174,105.88C173.913,106.053 173.863,106.223 173.85,106.39C173.817,106.8 173.947,107.206 174.21,107.52C187.32,123.08 194.56,142.47 198.65,162.33C200.99,173.66 199.83,186.11 197.33,197.29C192.96,216.84 181.08,236.2 163.1,245.75C148.74,253.38 133.94,251.52 118.91,246.7C101.79,241.22 87.987,231.347 77.5,217.08C77.211,216.691 76.739,216.482 76.26,216.53L75.78,216.57C75.281,216.618 74.787,216.425 74.45,216.05C71.03,212.28 65.6,211.57 62.52,215.94C61.94,216.773 61.567,217.28 61.4,217.46C61.19,217.703 60.841,217.777 60.55,217.64C56.103,215.567 52.71,212.537 50.37,208.55C46.48,201.92 45.87,191.96 53.37,187.68C57.91,185.1 61.15,187.5 64.66,190.26C65.261,190.732 66.107,190.752 66.73,190.31C68.47,189.09 69.01,187.65 69.24,185.34C72.38,154.16 81.59,122.41 106.4,101.21C106.41,101.201 106.421,101.193 106.432,101.185C106.696,100.989 107.077,101.048 107.277,101.317C107.285,101.328 107.293,101.339 107.3,101.35C108.12,102.657 109.167,102.703 110.44,101.49C117,95.283 122.09,90.927 125.71,88.42C127.5,87.19 130.1,87.69 131.94,86.86C135.28,85.373 137.15,82.943 137.55,79.57C137.583,79.303 137.534,79.031 137.41,78.79L135.96,75.96ZM140.1,144.28L136.89,136.76C136.854,136.669 136.765,136.609 136.667,136.609C136.634,136.609 136.601,136.616 136.57,136.63L136.28,136.76C136.279,136.76 136.279,136.76 136.278,136.761C135.067,137.277 134.739,139.268 135.55,141.17C135.55,141.17 135.99,142.2 135.99,142.2C136.802,144.1 138.465,145.238 139.675,144.722C139.677,144.721 139.678,144.721 139.68,144.72L139.97,144.6C140.061,144.564 140.121,144.475 140.121,144.377C140.121,144.344 140.114,144.311 140.1,144.28ZM156.73,141.65C152.88,140.96 149.11,139.44 145.69,137.65C144.75,137.15 143.54,137.16 142.76,137.94C142.024,138.653 141.855,139.732 142.36,140.49C144.88,144.25 151.56,146.6 155.7,147.35C159.84,148.1 166.93,148.24 170.6,145.6C171.34,145.068 171.56,143.996 171.12,143.07C170.65,142.06 169.53,141.63 168.47,141.76C164.64,142.25 160.58,142.35 156.73,141.65ZM97.95,156.37C94.63,158.7 90.77,160.36 86.95,161.58C85.9,161.91 85.03,162.8 85.03,163.95C85.017,165.019 85.691,165.935 86.62,166.11C91.22,166.99 97.83,163.78 101.4,161.28C104.97,158.78 110.23,153.66 110.97,149.03C111.123,148.1 110.496,147.155 109.49,146.8C108.4,146.41 107.27,146.93 106.6,147.8C104.16,150.98 101.27,154.04 97.95,156.37ZM116.53,147.36L115.62,154.49C115.602,154.648 115.713,154.794 115.87,154.82L116.03,154.84C116.032,154.84 116.034,154.84 116.036,154.841C117.286,155.001 118.479,153.855 118.68,152.3C118.68,152.3 118.94,150.25 118.94,150.249C119.139,148.693 118.274,147.281 117.022,147.12C117.021,147.12 116.86,147.1 116.86,147.1C116.699,147.082 116.551,147.199 116.53,147.36ZM166.76,162.55C166.745,162.165 167.006,161.82 167.38,161.73L172.22,160.57C172.244,160.564 172.267,160.558 172.291,160.551C173.138,160.303 173.633,159.406 173.387,158.563C173.379,158.535 173.37,158.508 173.36,158.48L173.32,158.36C173.318,158.354 173.316,158.348 173.314,158.342C173.03,157.483 172.085,157.011 171.22,157.297C171.217,157.298 171.213,157.299 171.21,157.3C165.11,159.38 156.39,160.03 150.9,156.03C150.89,156.023 150.88,156.015 150.869,156.008C150.167,155.52 149.184,155.7 148.692,156.407C148.685,156.418 148.677,156.429 148.67,156.44L148.64,156.5C148.141,157.266 148.297,158.294 149,158.87C150.093,159.777 151.56,160.527 153.4,161.12C153.922,161.288 154.265,161.793 154.23,162.34C153.53,172.41 167.22,173.54 166.76,162.55ZM98.34,179.87C102.93,189.87 114.61,182.64 109.41,173.99C109.128,173.516 109.207,172.906 109.6,172.52C110.967,171.16 111.933,169.827 112.5,168.52C112.867,167.685 112.537,166.694 111.74,166.24L111.68,166.2C111.67,166.194 111.659,166.188 111.649,166.183C110.89,165.776 109.932,166.061 109.528,166.816C109.522,166.827 109.516,166.838 109.51,166.85C106.43,172.91 98.37,176.3 91.99,177.22C91.986,177.221 91.983,177.221 91.979,177.222C91.079,177.359 90.451,178.209 90.587,179.104C90.588,179.109 90.589,179.115 90.59,179.12L90.61,179.25C90.614,179.278 90.618,179.306 90.623,179.333C90.786,180.196 91.635,180.771 92.503,180.607C92.528,180.602 92.554,180.596 92.58,180.59L97.41,179.42C97.786,179.328 98.179,179.517 98.34,179.87ZM162.13,175.36C159.617,175.047 157.323,174.287 155.25,173.08C155.048,172.963 154.819,172.901 154.586,172.901C153.862,172.901 153.266,173.497 153.266,174.221C153.266,174.388 153.298,174.554 153.36,174.71C154.38,177.27 159.38,178.23 161.74,178.52C164.1,178.81 169.18,179.09 170.79,176.84C170.947,176.618 171.031,176.352 171.031,176.08C171.031,175.356 170.435,174.76 169.711,174.76C169.589,174.76 169.467,174.777 169.35,174.81C167.05,175.483 164.643,175.667 162.13,175.36ZM108.4,187.78C106.313,189.227 104.09,190.187 101.73,190.66C101.109,190.777 100.655,191.325 100.655,191.957C100.655,192.466 100.95,192.932 101.41,193.15C103.88,194.39 108.26,191.76 110.22,190.4C112.18,189.04 116.17,185.86 115.88,183.11C115.814,182.437 115.242,181.918 114.566,181.918C114.107,181.918 113.68,182.158 113.44,182.55C112.167,184.59 110.487,186.333 108.4,187.78ZM140.29,209.97C133.3,211.7 127.02,216.31 123.83,222.98C123.445,223.795 123.725,224.777 124.48,225.26L124.59,225.34C124.596,225.344 124.603,225.348 124.609,225.352C125.339,225.808 126.314,225.587 126.767,224.861C126.771,224.854 126.776,224.847 126.78,224.84C127.38,223.847 128.053,222.833 128.8,221.8C131.773,217.673 135.907,214.957 141.2,213.65C146.493,212.343 151.413,212.827 155.96,215.1C157.107,215.667 158.177,216.25 159.17,216.85C159.177,216.855 159.185,216.859 159.192,216.863C159.931,217.295 160.897,217.039 161.331,216.295C161.334,216.29 161.337,216.285 161.34,216.28L161.4,216.15C161.842,215.37 161.631,214.371 160.91,213.83C154.99,209.41 147.29,208.25 140.29,209.97Z" style="fill:white;fill-rule:nonzero;"/>
        <path d="M164.62,79.71C162.14,77.88 159.68,76.55 157.67,74.85C157.641,74.817 157.626,74.775 157.626,74.732C157.626,74.633 157.707,74.552 157.806,74.552C157.824,74.552 157.842,74.554 157.86,74.56C160.62,75.867 163.077,77.313 165.23,78.9C167.377,80.487 169.48,82.403 171.54,84.65C171.567,84.682 171.582,84.723 171.582,84.765C171.582,84.864 171.5,84.945 171.402,84.945C171.369,84.945 171.338,84.936 171.31,84.92C169.1,83.5 167.1,81.54 164.62,79.71Z" style="fill:white;fill-rule:nonzero;"/>
        <g transform="matrix(0.83962,-0.543174,0.543174,0.83962,112.16,81.78)">
            <ellipse cx="0" cy="0" rx="2.77" ry="0.36" style="fill:white;"/>
        </g>
        <path d="M131.38,81.78C131.431,81.911 131.447,82.052 131.427,82.191C131.362,82.636 130.937,82.948 130.487,82.883C130.346,82.862 130.213,82.806 130.1,82.72C130.027,82.667 129.993,82.54 130,82.34C130,81.913 130.19,81.663 130.57,81.59C131.023,81.49 131.293,81.553 131.38,81.78Z" style="fill:rgb(114,171,157);fill-rule:nonzero;"/>
        <g transform="matrix(0.909236,0.416281,-0.416281,0.909236,153.84,84.41)">
            <path d="M3.51,-0.02L3.51,0.02C3.51,0.23 3.34,0.4 3.13,0.4L-3.13,0.4C-3.34,0.4 -3.51,0.23 -3.51,0.02L-3.51,-0.02C-3.51,-0.23 -3.34,-0.4 -3.13,-0.4L3.13,-0.4C3.34,-0.4 3.51,-0.23 3.51,-0.02Z" style="fill:white;"/>
        </g>
        <g transform="matrix(0.849893,-0.526956,0.526956,0.849893,123.83,84.41)">
            <ellipse cx="0" cy="0" rx="2.31" ry="0.43" style="fill:rgb(114,171,157);"/>
        </g>
        <path d="M88.69,90.29C92.417,87.41 95.927,85.207 99.22,83.68C99.261,83.662 99.305,83.652 99.35,83.652C99.521,83.652 99.663,83.789 99.67,83.96C99.663,84.013 99.593,84.083 99.46,84.17C95.7,86.53 92.333,88.857 89.36,91.15C86.38,93.45 83.277,96.123 80.05,99.17C79.93,99.277 79.843,99.327 79.79,99.32C79.653,99.281 79.558,99.155 79.558,99.012C79.558,98.939 79.583,98.867 79.63,98.81C81.937,96.01 84.957,93.17 88.69,90.29Z" style="fill:white;fill-rule:nonzero;"/>
        <g transform="matrix(-0.768284,-0.64011,0.64011,-0.768284,168.21,92.35)">
            <ellipse cx="0" cy="0" rx="3.24" ry="0.34" style="fill:white;"/>
        </g>
        <g transform="matrix(0.693402,-0.720551,0.720551,0.693402,90.51,105.11)">
            <ellipse cx="0" cy="0" rx="4.27" ry="0.43" style="fill:white;"/>
        </g>
        <g transform="matrix(0.666532,-0.745476,0.745476,0.666532,76.3,107.25)">
            <ellipse cx="0" cy="0" rx="4.5" ry="0.39" style="fill:white;"/>
        </g>
        <path d="M54,120.61C55.853,115.39 57.887,110.63 60.1,106.33C60.427,105.683 60.83,105.12 61.31,104.64C61.331,104.623 61.358,104.613 61.386,104.613C61.452,104.613 61.506,104.667 61.506,104.733C61.506,104.746 61.504,104.758 61.5,104.77C58.733,111.057 56.553,116.45 54.96,120.95C53.36,125.45 51.653,131.01 49.84,137.63C49.822,137.676 49.778,137.707 49.728,137.707C49.671,137.707 49.621,137.666 49.61,137.61C49.543,136.937 49.583,136.247 49.73,135.54C50.73,130.8 52.153,125.823 54,120.61Z" style="fill:white;fill-rule:nonzero;"/>
        <g transform="matrix(0.287361,-0.957822,0.957822,0.287361,62.94,127.89)">
            <ellipse cx="0" cy="0" rx="11.23" ry="0.75" style="fill:white;"/>
        </g>
        <g transform="matrix(0.898794,0.438371,-0.438371,0.898794,73.61,132.45)">
            <path d="M0.43,-5.73L0.43,5.73C0.43,5.962 0.242,6.15 0.01,6.15L-0.01,6.15C-0.242,6.15 -0.43,5.962 -0.43,5.73L-0.43,-5.73C-0.43,-5.962 -0.242,-6.15 -0.01,-6.15L0.01,-6.15C0.242,-6.15 0.43,-5.962 0.43,-5.73Z" style="fill:white;"/>
        </g>
        <g transform="matrix(-0.335452,-0.942057,0.942057,-0.335452,208.07,137.52)">
            <ellipse cx="0" cy="0" rx="2.57" ry="0.28" style="fill:rgb(114,171,157);"/>
        </g>
        <path d="M140.1,144.28C140.114,144.311 140.121,144.344 140.121,144.377C140.121,144.475 140.061,144.564 139.97,144.6L139.68,144.72C139.678,144.721 139.677,144.721 139.675,144.722C138.465,145.238 136.802,144.1 135.99,142.2C135.99,142.2 135.55,141.17 135.55,141.17C134.739,139.268 135.067,137.277 136.278,136.761C136.279,136.76 136.279,136.76 136.28,136.76L136.57,136.63C136.601,136.616 136.634,136.609 136.667,136.609C136.765,136.609 136.854,136.669 136.89,136.76L140.1,144.28Z" style="fill:rgb(1,1,1);fill-rule:nonzero;"/>
        <path d="M156.73,141.65C160.58,142.35 164.64,142.25 168.47,141.76C169.53,141.63 170.65,142.06 171.12,143.07C171.56,143.996 171.34,145.068 170.6,145.6C166.93,148.24 159.84,148.1 155.7,147.35C151.56,146.6 144.88,144.25 142.36,140.49C141.855,139.732 142.024,138.653 142.76,137.94C143.54,137.16 144.75,137.15 145.69,137.65C149.11,139.44 152.88,140.96 156.73,141.65Z" style="fill:rgb(1,1,1);fill-rule:nonzero;"/>
        <path d="M203.76,140.4C203.791,140.392 203.823,140.389 203.854,140.39C204.057,140.398 204.216,140.599 204.206,140.835C204.204,140.871 204.199,140.906 204.19,140.94C204.117,141.2 204,141.35 203.84,141.39C203.787,141.402 203.733,141.406 203.678,141.403C203.388,141.387 203.162,141.156 203.177,140.894C203.18,140.844 203.191,140.796 203.21,140.75C203.277,140.597 203.46,140.48 203.76,140.4Z" style="fill:rgb(114,171,157);fill-rule:nonzero;"/>
        <path d="M72.2,145.68C72.14,146.56 71.917,147.28 71.53,147.84C71.46,147.929 71.353,147.981 71.24,147.981C71.044,147.981 70.88,147.825 70.87,147.63C70.87,147.423 70.907,146.75 70.98,145.61C71.053,144.463 71.103,143.787 71.13,143.58C71.158,143.401 71.314,143.268 71.495,143.268C71.63,143.268 71.755,143.342 71.82,143.46C72.127,144.067 72.253,144.807 72.2,145.68Z" style="fill:white;fill-rule:nonzero;"/>
        <path d="M205.66,173.5C205.576,173.544 205.482,173.567 205.388,173.567C205.084,173.567 204.827,173.332 204.8,173.03C204.153,165.47 202.743,158.183 200.57,151.17C200.371,150.531 200.474,149.834 200.85,149.28C205.52,142.42 213.52,144.05 215.72,151.66C217.86,159.067 216.83,166.143 212.63,172.89C212.389,173.271 211.89,173.41 211.48,173.21C209.647,172.31 207.707,172.407 205.66,173.5Z" style="fill:white;fill-rule:nonzero;"/>
        <path d="M101.4,161.28C97.83,163.78 91.22,166.99 86.62,166.11C85.691,165.935 85.017,165.019 85.03,163.95C85.03,162.8 85.9,161.91 86.95,161.58C90.77,160.36 94.63,158.7 97.95,156.37C101.27,154.04 104.16,150.98 106.6,147.8C107.27,146.93 108.4,146.41 109.49,146.8C110.496,147.155 111.123,148.1 110.97,149.03C110.23,153.66 104.97,158.78 101.4,161.28Z" style="fill:rgb(1,1,1);fill-rule:nonzero;"/>
        <path d="M116.53,147.36C116.551,147.199 116.699,147.082 116.86,147.1C116.86,147.1 117.021,147.12 117.022,147.12C118.274,147.281 119.139,148.693 118.94,150.249C118.94,150.25 118.68,152.3 118.68,152.3C118.479,153.855 117.286,155.001 116.036,154.841C116.034,154.84 116.032,154.84 116.03,154.84L115.87,154.82C115.713,154.794 115.602,154.648 115.62,154.49L116.53,147.36Z" style="fill:rgb(1,1,1);fill-rule:nonzero;"/>
        <path d="M56.82,154.44C56.787,154.465 56.749,154.482 56.708,154.49C56.557,154.518 56.408,154.408 56.378,154.246C56.37,154.204 56.371,154.161 56.38,154.12C56.413,153.967 56.527,153.837 56.72,153.73C56.753,153.71 56.791,153.699 56.83,153.699C56.942,153.699 57.035,153.788 57.04,153.9C57.053,154.14 56.98,154.32 56.82,154.44Z" style="fill:rgb(114,171,157);fill-rule:nonzero;"/>
        <path d="M166.76,162.55C167.22,173.54 153.53,172.41 154.23,162.34C154.265,161.793 153.922,161.288 153.4,161.12C151.56,160.527 150.093,159.777 149,158.87C148.297,158.294 148.141,157.266 148.64,156.5L148.67,156.44C148.677,156.429 148.685,156.418 148.692,156.407C149.184,155.7 150.167,155.52 150.869,156.008C150.88,156.015 150.89,156.023 150.9,156.03C156.39,160.03 165.11,159.38 171.21,157.3C171.213,157.299 171.217,157.298 171.22,157.297C172.085,157.011 173.03,157.483 173.314,158.342C173.316,158.348 173.318,158.354 173.32,158.36L173.36,158.48C173.37,158.508 173.379,158.535 173.387,158.563C173.633,159.406 173.138,160.303 172.291,160.551C172.267,160.558 172.244,160.564 172.22,160.57L167.38,161.73C167.006,161.82 166.745,162.165 166.76,162.55ZM160.6,162.71C160.56,162.57 160.447,162.447 160.26,162.34C160.232,162.325 160.202,162.313 160.17,162.306C159.989,162.264 159.807,162.37 159.767,162.542C159.76,162.57 159.758,162.6 159.76,162.63C159.773,162.75 159.863,162.873 160.03,163C160.074,163.034 160.127,163.059 160.182,163.072C160.375,163.118 160.565,163.02 160.605,162.855C160.616,162.808 160.615,162.758 160.6,162.71Z" style="fill:rgb(1,1,1);fill-rule:nonzero;"/>
        <g transform="matrix(0.99961,0.0279216,-0.0279216,0.99961,43.88,174.42)">
            <path d="M0.49,-12.87L0.49,12.87C0.49,13.129 0.279,13.34 0.02,13.34L-0.02,13.34C-0.279,13.34 -0.49,13.129 -0.49,12.87L-0.49,-12.87C-0.49,-13.129 -0.279,-13.34 -0.02,-13.34L0.02,-13.34C0.279,-13.34 0.49,-13.129 0.49,-12.87Z" style="fill:rgb(114,171,157);"/>
        </g>
        <path d="M160.6,162.71C160.615,162.758 160.616,162.808 160.605,162.855C160.565,163.02 160.375,163.118 160.182,163.072C160.127,163.059 160.074,163.034 160.03,163C159.863,162.873 159.773,162.75 159.76,162.63C159.758,162.6 159.76,162.57 159.767,162.542C159.807,162.37 159.989,162.264 160.17,162.306C160.202,162.313 160.232,162.325 160.26,162.34C160.447,162.447 160.56,162.57 160.6,162.71Z" style="fill:white;fill-rule:nonzero;"/>
        <path d="M97.41,179.42L92.58,180.59C92.554,180.596 92.528,180.602 92.503,180.607C91.635,180.771 90.786,180.196 90.623,179.333C90.618,179.306 90.614,179.278 90.61,179.25L90.59,179.12C90.589,179.115 90.588,179.109 90.587,179.104C90.451,178.209 91.079,177.359 91.979,177.222C91.983,177.221 91.986,177.221 91.99,177.22C98.37,176.3 106.43,172.91 109.51,166.85C109.516,166.838 109.522,166.827 109.528,166.816C109.932,166.061 110.89,165.776 111.649,166.183C111.659,166.188 111.67,166.194 111.68,166.2L111.74,166.24C112.537,166.694 112.867,167.685 112.5,168.52C111.933,169.827 110.967,171.16 109.6,172.52C109.207,172.906 109.128,173.516 109.41,173.99C114.61,182.64 102.93,189.87 98.34,179.87C98.179,179.517 97.786,179.328 97.41,179.42ZM105.12,176.57C105.103,176.522 105.077,176.478 105.044,176.44C104.879,176.249 104.562,176.249 104.342,176.44C104.299,176.478 104.261,176.522 104.23,176.57C104.123,176.75 104.127,176.963 104.24,177.21C104.252,177.237 104.267,177.262 104.285,177.286C104.42,177.466 104.675,177.506 104.851,177.374C104.872,177.358 104.892,177.34 104.91,177.32C105.137,177.053 105.207,176.803 105.12,176.57Z" style="fill:rgb(1,1,1);fill-rule:nonzero;"/>
        <g transform="matrix(0.995056,0.0993197,-0.0993197,0.995056,51.49,175.32)">
            <path d="M0.56,-7.88L0.56,7.88C0.56,8.178 0.318,8.42 0.02,8.42L-0.02,8.42C-0.318,8.42 -0.56,8.178 -0.56,7.88L-0.56,-7.88C-0.56,-8.178 -0.318,-8.42 -0.02,-8.42L0.02,-8.42C0.318,-8.42 0.56,-8.178 0.56,-7.88Z" style="fill:rgb(114,171,157);"/>
        </g>
        <path d="M162.13,175.36C164.643,175.667 167.05,175.483 169.35,174.81C169.467,174.777 169.589,174.76 169.711,174.76C170.435,174.76 171.031,175.356 171.031,176.08C171.031,176.352 170.947,176.618 170.79,176.84C169.18,179.09 164.1,178.81 161.74,178.52C159.38,178.23 154.38,177.27 153.36,174.71C153.298,174.554 153.266,174.388 153.266,174.221C153.266,173.497 153.862,172.901 154.586,172.901C154.819,172.901 155.048,172.963 155.25,173.08C157.323,174.287 159.617,175.047 162.13,175.36Z" style="fill:rgb(1,1,1);fill-rule:nonzero;"/>
        <g transform="matrix(0.369747,-0.929133,0.929133,0.369747,208.6,180.13)">
            <ellipse cx="0" cy="0" rx="4.12" ry="3.94" style="fill:white;"/>
        </g>
        <path d="M105.12,176.57C105.207,176.803 105.137,177.053 104.91,177.32C104.892,177.34 104.872,177.358 104.851,177.374C104.675,177.506 104.42,177.466 104.285,177.286C104.267,177.262 104.252,177.237 104.24,177.21C104.127,176.963 104.123,176.75 104.23,176.57C104.261,176.522 104.299,176.478 104.342,176.44C104.562,176.249 104.879,176.249 105.044,176.44C105.077,176.478 105.103,176.522 105.12,176.57Z" style="fill:white;fill-rule:nonzero;"/>
        <g transform="matrix(0.826098,-0.563526,0.563526,0.826098,57.51,181.74)">
            <ellipse cx="0" cy="0" rx="1.01" ry="0.64" style="fill:white;"/>
        </g>
        <path d="M63.87,181.35C64.077,181.89 64.15,182.663 64.09,183.67C64.071,183.941 63.843,184.154 63.571,184.154C63.53,184.154 63.49,184.15 63.45,184.14C62.31,183.86 62.173,182.913 63.04,181.3C63.121,181.153 63.276,181.061 63.443,181.061C63.631,181.061 63.8,181.176 63.87,181.35Z" style="fill:white;fill-rule:nonzero;"/>
        <path d="M110.22,190.4C108.26,191.76 103.88,194.39 101.41,193.15C100.95,192.932 100.655,192.466 100.655,191.957C100.655,191.325 101.109,190.777 101.73,190.66C104.09,190.187 106.313,189.227 108.4,187.78C110.487,186.333 112.167,184.59 113.44,182.55C113.68,182.158 114.107,181.918 114.566,181.918C115.242,181.918 115.814,182.437 115.88,183.11C116.17,185.86 112.18,189.04 110.22,190.4Z" style="fill:rgb(1,1,1);fill-rule:nonzero;"/>
        <g transform="matrix(0.998719,-0.0505929,0.0505929,0.998719,220.71,197.74)">
            <path d="M0.4,-11.48L0.4,11.48C0.4,11.69 0.23,11.86 0.02,11.86L-0.02,11.86C-0.23,11.86 -0.4,11.69 -0.4,11.48L-0.4,-11.48C-0.4,-11.69 -0.23,-11.86 -0.02,-11.86L0.02,-11.86C0.23,-11.86 0.4,-11.69 0.4,-11.48Z" style="fill:rgb(114,171,157);"/>
        </g>
        <path d="M141.2,213.65C135.907,214.957 131.773,217.673 128.8,221.8C128.053,222.833 127.38,223.847 126.78,224.84C126.776,224.847 126.771,224.854 126.767,224.861C126.314,225.587 125.339,225.808 124.609,225.352C124.603,225.348 124.596,225.344 124.59,225.34L124.48,225.26C123.725,224.777 123.445,223.795 123.83,222.98C127.02,216.31 133.3,211.7 140.29,209.97C147.29,208.25 154.99,209.41 160.91,213.83C161.631,214.371 161.842,215.37 161.4,216.15L161.34,216.28C161.337,216.285 161.334,216.29 161.331,216.295C160.897,217.039 159.931,217.295 159.192,216.863C159.185,216.859 159.177,216.855 159.17,216.85C158.177,216.25 157.107,215.667 155.96,215.1C151.413,212.827 146.493,212.343 141.2,213.65Z" style="fill:rgb(1,1,1);fill-rule:nonzero;"/>
        <path d="M52.09,218.24C51.87,218.167 51.563,217.913 51.17,217.48C51.126,217.426 51.102,217.359 51.102,217.29C51.102,217.125 51.237,216.99 51.402,216.99C51.428,216.99 51.455,216.993 51.48,217C51.547,217.02 51.823,217.323 52.31,217.91C52.338,217.946 52.353,217.991 52.353,218.037C52.353,218.152 52.258,218.247 52.143,218.247C52.125,218.247 52.107,218.244 52.09,218.24Z" style="fill:white;fill-rule:nonzero;"/>
        <g transform="matrix(0.958323,-0.285688,0.285688,0.958323,68.15,221)">
            <ellipse cx="0" cy="0" rx="4.51" ry="4.31" style="fill:white;"/>
        </g>
        <g transform="matrix(0.999994,0.00349065,-0.00349065,0.999994,221.31,222.24)">
            <path d="M0.54,-4.38L0.54,4.38C0.54,4.673 0.303,4.91 0.01,4.91L-0.01,4.91C-0.303,4.91 -0.54,4.673 -0.54,4.38L-0.54,-4.38C-0.54,-4.673 -0.303,-4.91 -0.01,-4.91L0.01,-4.91C0.303,-4.91 0.54,-4.673 0.54,-4.38Z" style="fill:rgb(114,171,157);"/>
        </g>
        <g transform="matrix(0.930418,-0.366501,0.366501,0.930418,47.96,228.28)">
            <path d="M0.4,-7.02L0.4,7.02C0.4,7.169 0.279,7.29 0.13,7.29L-0.13,7.29C-0.279,7.29 -0.4,7.169 -0.4,7.02L-0.4,-7.02C-0.4,-7.169 -0.279,-7.29 -0.13,-7.29L0.13,-7.29C0.279,-7.29 0.4,-7.169 0.4,-7.02Z" style="fill:white;"/>
        </g>
        <g transform="matrix(0.052336,-0.99863,0.99863,0.052336,200.66,238.03)">
            <ellipse cx="0" cy="0" rx="13.82" ry="0.53" style="fill:white;"/>
        </g>
        <path d="M189.34,227.25C189.392,227.227 189.447,227.219 189.5,227.226C189.702,227.251 189.841,227.483 189.809,227.739C189.8,227.806 189.78,227.872 189.75,227.93C189.637,228.143 189.48,228.23 189.28,228.19C189.229,228.177 189.188,228.139 189.17,228.09C189.017,227.65 189.073,227.37 189.34,227.25Z" style="fill:white;fill-rule:nonzero;"/>
        <g transform="matrix(-0.770513,-0.637424,0.637424,-0.770513,64.99,229.24)">
            <ellipse cx="0" cy="0" rx="0.98" ry="0.37" style="fill:white;"/>
        </g>
        <g transform="matrix(-0.52101,-0.853551,0.853551,-0.52101,57.22,230.27)">
            <ellipse cx="0" cy="0" rx="1.3" ry="0.37" style="fill:white;"/>
        </g>
        <g transform="matrix(0.0331552,-0.99945,0.99945,0.0331552,209.66,240.54)">
            <ellipse cx="0" cy="0" rx="9.49" ry="0.52" style="fill:rgb(114,171,157);"/>
        </g>
        <path d="M220.23,258.99C221.19,263.437 222.49,268.217 224.13,273.33C224.19,273.523 224.2,273.647 224.16,273.7C224.145,273.716 224.128,273.731 224.11,273.744C223.938,273.871 223.694,273.837 223.57,273.669C223.554,273.648 223.541,273.625 223.53,273.6C221.67,269.627 220.14,264.85 218.94,259.27C217.733,253.69 217.153,248.707 217.2,244.32C217.2,244.293 217.202,244.265 217.208,244.238C217.251,244.034 217.459,243.903 217.669,243.948C217.693,243.953 217.717,243.96 217.74,243.97C217.793,244.003 217.833,244.12 217.86,244.32C218.473,249.653 219.263,254.543 220.23,258.99Z" style="fill:rgb(114,171,157);fill-rule:nonzero;"/>
        <g transform="matrix(-0.563526,-0.826098,0.826098,-0.563526,86.32,246.51)">
            <ellipse cx="0" cy="0" rx="1.92" ry="0.32" style="fill:white;"/>
        </g>
        <path d="M127.93,254.59C127.927,254.568 127.927,254.545 127.928,254.522C127.943,254.314 128.13,254.155 128.343,254.17C128.366,254.171 128.388,254.175 128.41,254.18C143.53,257.98 157.437,255.583 170.13,246.99C170.176,246.958 170.226,246.932 170.279,246.915C170.586,246.811 170.924,246.983 171.029,247.295C171.046,247.345 171.057,247.397 171.06,247.45C171.56,255.917 172.713,264.113 174.52,272.04C175.5,276.34 177.933,279.457 181.82,281.39C182.331,281.648 182.576,282.249 182.39,282.79C180.17,289.33 175.883,294.157 169.53,297.27C156.33,303.723 143.243,303.503 130.27,296.61C128.477,295.663 127.26,294.78 126.62,293.96C126.544,293.86 126.48,293.749 126.43,293.63L119.72,277.48C119.609,277.206 119.739,276.888 120.01,276.77C128.07,272.94 128.91,262.42 127.93,254.59Z" style="fill:white;fill-rule:nonzero;"/>
        <path d="M184.18,263.39C184.18,263.395 184.175,263.4 184.17,263.4L183.98,263.41C183.542,263.413 183.028,260.014 182.84,255.87L182.82,255.51C182.82,255.51 182.82,255.509 182.82,255.509C182.631,251.355 182.837,247.92 183.275,247.9C183.277,247.9 183.278,247.9 183.28,247.9L183.47,247.9C183.475,247.9 183.48,247.905 183.48,247.91L184.18,263.39Z" style="fill:white;fill-rule:nonzero;"/>
        <g transform="matrix(-0.671721,-0.740805,0.740805,-0.671721,106.01,257.39)">
            <ellipse cx="0" cy="0" rx="1.46" ry="0.45" style="fill:rgb(114,171,157);"/>
        </g>
        <g transform="matrix(0.995725,-0.0923706,0.0923706,0.995725,199.37,268.3)">
            <path d="M0.6,-9.69L0.6,9.69C0.6,10.01 0.34,10.27 0.02,10.27L-0.02,10.27C-0.34,10.27 -0.6,10.01 -0.6,9.69L-0.6,-9.69C-0.6,-10.01 -0.34,-10.27 -0.02,-10.27L0.02,-10.27C0.34,-10.27 0.6,-10.01 0.6,-9.69Z" style="fill:rgb(114,171,157);"/>
        </g>
        <path d="M72,265.4L72.17,265.32C72.172,265.319 72.173,265.318 72.175,265.317C72.543,265.132 73.231,265.747 73.699,266.678C73.699,266.679 73.7,266.679 73.7,266.68L75.12,269.52C75.585,270.444 75.67,271.357 75.31,271.55L75.14,271.64L72,265.4Z" style="fill:rgb(114,171,157);fill-rule:nonzero;"/>
        <path d="M59.72,279.89C59.33,277.66 58.94,273.03 60.03,270.41C60.085,270.288 60.206,270.21 60.34,270.21C60.527,270.21 60.68,270.363 60.68,270.55C60.68,270.55 60.68,270.55 60.68,270.55C60.61,273.61 60.55,276.84 61.04,279.65C61.54,282.46 62.7,285.47 63.81,288.33C63.821,288.364 63.827,288.4 63.827,288.436C63.827,288.623 63.674,288.776 63.487,288.776C63.399,288.776 63.313,288.742 63.25,288.68C61.33,286.59 60.11,282.11 59.72,279.89Z" style="fill:rgb(114,171,157);fill-rule:nonzero;"/>
        <g transform="matrix(0.864275,-0.50302,0.50302,0.864275,85.44,277.71)">
            <path d="M0.52,-4.55L0.52,4.55C0.52,4.826 0.296,5.05 0.02,5.05L-0.02,5.05C-0.296,5.05 -0.52,4.826 -0.52,4.55L-0.52,-4.55C-0.52,-4.826 -0.296,-5.05 -0.02,-5.05L0.02,-5.05C0.296,-5.05 0.52,-4.826 0.52,-4.55Z" style="fill:white;"/>
        </g>
        <g transform="matrix(0.94721,-0.320613,0.320613,0.94721,96.23,276.39)">
            <path d="M0.53,-2.56L0.53,2.56C0.53,2.847 0.297,3.08 0.01,3.08L-0.01,3.08C-0.297,3.08 -0.53,2.847 -0.53,2.56L-0.53,-2.56C-0.53,-2.847 -0.297,-3.08 -0.01,-3.08L0.01,-3.08C0.297,-3.08 0.53,-2.847 0.53,-2.56Z" style="fill:white;"/>
        </g>
        <g transform="matrix(0.872069,-0.489382,0.489382,0.872069,70.1,283.89)">
            <path d="M0.63,-2.05L0.63,2.05C0.63,2.381 0.361,2.65 0.03,2.65L-0.03,2.65C-0.361,2.65 -0.63,2.381 -0.63,2.05L-0.63,-2.05C-0.63,-2.381 -0.361,-2.65 -0.03,-2.65L0.03,-2.65C0.361,-2.65 0.63,-2.381 0.63,-2.05Z" style="fill:rgb(114,171,157);"/>
        </g>
        <g transform="matrix(-0.315649,-0.948876,0.948876,-0.315649,99.21,286.06)">
            <ellipse cx="0" cy="0" rx="3.48" ry="0.35" style="fill:rgb(114,171,157);"/>
        </g>
        <path d="M204.63,413.57C203.177,414.077 201.633,414.4 200,414.54C179.26,416.3 157.1,417.89 137.29,417.74C118.843,417.607 99.437,416.223 79.07,413.59C77.137,413.337 75.627,412.933 74.54,412.38C75.373,399.773 77.237,387.483 80.13,375.51C80.174,375.324 80.311,375.176 80.49,375.12C83.143,374.22 84.57,373.18 84.77,372C85.03,370.467 86.97,361.42 90.59,344.86C90.596,344.83 90.602,344.8 90.607,344.77C90.754,343.861 90.123,342.99 89.207,342.842C89.178,342.837 89.149,342.833 89.12,342.83L89.02,342.82C87.961,342.692 86.968,343.393 86.74,344.43L81.19,369.67C81.037,370.383 80.365,370.872 79.64,370.8C65.427,369.327 52.417,365.2 40.61,358.42C40.384,358.288 40.267,358.026 40.32,357.77C44.247,339.89 51.04,323.043 60.7,307.23C63.99,301.85 70.06,294.64 75.75,290.92C75.76,290.913 75.771,290.906 75.781,290.9C76.097,290.712 76.514,290.822 76.705,291.143C76.71,291.152 76.715,291.161 76.72,291.17C83.267,303.623 91.913,314.427 102.66,323.58C106.46,326.82 110.467,329.257 114.68,330.89C115.596,331.244 116.622,331.167 117.47,330.68L119.32,329.61C119.711,329.383 120.184,329.35 120.6,329.52L124.29,331.06C124.442,331.123 124.606,331.155 124.77,331.155C125.358,331.155 125.872,330.744 126,330.17L126.06,329.92C126.284,328.929 125.77,327.909 124.84,327.5L121.27,325.94C120.995,325.82 120.865,325.501 120.98,325.23L121.17,324.77C121.171,324.768 121.172,324.766 121.173,324.765C121.245,324.611 121.428,324.543 121.577,324.613C121.581,324.615 121.586,324.618 121.59,324.62C123.943,325.807 125.94,325.537 127.58,323.81C127.842,323.529 127.947,323.138 127.86,322.77C127.64,321.83 127.087,320.917 126.2,320.03C126.146,319.974 126.116,319.9 126.116,319.822C126.116,319.713 126.175,319.613 126.27,319.56L126.66,319.33C126.688,319.311 126.727,319.315 126.75,319.34L129.84,322.24C130.118,322.501 130.486,322.647 130.867,322.647C131.329,322.647 131.766,322.434 132.05,322.07L132.42,321.61C132.885,321.012 132.889,320.168 132.43,319.56C129.883,316.26 127.833,312.833 126.28,309.28C126.253,309.228 126.239,309.17 126.239,309.111C126.239,308.908 126.406,308.741 126.609,308.741C126.717,308.741 126.82,308.788 126.89,308.87C130.883,313.043 135.523,315.92 140.81,317.5C141.891,317.823 143.06,317.372 143.64,316.41L143.74,316.22C143.783,316.147 143.819,316.07 143.848,315.991C144.123,315.244 143.73,314.402 142.979,314.126C142.901,314.097 142.821,314.075 142.74,314.06L139.02,313.38C137.81,313.158 136.756,312.416 136.14,311.35L131.65,303.57C131.592,303.47 131.561,303.357 131.561,303.242C131.561,302.885 131.854,302.592 132.211,302.592C132.304,302.592 132.396,302.612 132.48,302.65C144.78,308.057 157.063,307.973 169.33,302.4C176.91,298.96 183.02,292.74 186.31,285.27C186.38,285.11 186.539,285.006 186.713,285.006C186.914,285.006 187.091,285.145 187.14,285.34C189.2,294.22 190.56,302.15 186.73,310.76C186.66,310.919 186.624,311.09 186.624,311.264C186.624,311.801 186.97,312.281 187.48,312.45L187.53,312.47C188.28,312.716 189.11,312.413 189.53,311.74C191.363,308.813 192.43,305.52 192.73,301.86C192.732,301.839 192.735,301.818 192.74,301.797C192.794,301.562 193.037,301.415 193.278,301.471C193.299,301.476 193.32,301.482 193.34,301.49L193.6,301.6C193.809,301.691 193.941,301.902 193.93,302.13C193.643,307.13 192.767,311.487 191.3,315.2C191.229,315.379 191.192,315.571 191.192,315.764C191.192,316.467 191.677,317.083 192.36,317.25L192.62,317.32C193.33,317.504 194.075,317.131 194.36,316.45L197.64,308.56C197.677,308.476 197.76,308.422 197.851,308.422C197.977,308.422 198.081,308.526 198.081,308.652C198.081,308.658 198.08,308.664 198.08,308.67C197.66,312.77 196.25,316.453 193.85,319.72C193.673,319.965 193.578,320.26 193.578,320.562C193.578,321.141 193.927,321.666 194.46,321.89L194.89,322.07C195.599,322.361 196.42,322.118 196.85,321.49C202.95,312.51 204.33,303.3 205.94,292.81C205.972,292.646 206.117,292.526 206.284,292.526C206.404,292.526 206.516,292.588 206.58,292.69L207.69,294.62C207.896,294.974 208.275,295.192 208.684,295.192C209.038,295.192 209.372,295.029 209.59,294.75L210.34,293.79C210.622,293.426 211.14,293.335 211.53,293.58C222,300.13 228.38,307.52 232.97,319.03C237.78,331.08 240.27,342.84 242.33,356.14C242.401,356.604 242.162,357.066 241.74,357.28C232.207,362.087 222.28,365.22 211.96,366.68C211.923,366.685 211.886,366.688 211.849,366.688C211.45,366.688 211.117,366.369 211.1,365.97L210.15,347.11C210.148,347.078 210.146,347.046 210.142,347.014C210.047,346.136 209.242,345.492 208.358,345.588C208.329,345.591 208.299,345.595 208.27,345.6L208.19,345.61C207.228,345.777 206.526,346.629 206.55,347.6C206.657,352.287 206.783,358.507 206.93,366.26C207.223,382.047 206.457,397.817 204.63,413.57Z" style="fill:rgb(114,171,157);fill-rule:nonzero;"/>
        <g transform="matrix(0.836764,-0.547563,0.547563,0.836764,98.11,298.31)">
            <path d="M0.39,-8.78L0.39,8.78C0.39,8.929 0.269,9.05 0.12,9.05L-0.12,9.05C-0.269,9.05 -0.39,8.929 -0.39,8.78L-0.39,-8.78C-0.39,-8.929 -0.269,-9.05 -0.12,-9.05L0.12,-9.05C0.269,-9.05 0.39,-8.929 0.39,-8.78Z" style="fill:rgb(114,171,157);"/>
        </g>
        <g transform="matrix(-0.599024,-0.800731,0.800731,-0.599024,125.04,300.9)">
            <ellipse cx="0" cy="0" rx="3.88" ry="0.35" style="fill:rgb(114,171,157);"/>
        </g>
        <g transform="matrix(-0.64011,-0.768284,0.768284,-0.64011,232.87,299.91)">
            <ellipse cx="0" cy="0" rx="2.95" ry="0.44" style="fill:rgb(114,171,157);"/>
        </g>
        <g transform="matrix(-0.702153,-0.712026,0.712026,-0.702153,229.37,303.13)">
            <ellipse cx="0" cy="0" rx="1.56" ry="0.54" style="fill:rgb(114,171,157);"/>
        </g>
        <g transform="matrix(0.75471,-0.656059,0.656059,0.75471,101.66,312.08)">
            <path d="M0.36,-7.05L0.36,7.05C0.36,7.193 0.243,7.31 0.1,7.31L-0.1,7.31C-0.243,7.31 -0.36,7.193 -0.36,7.05L-0.36,-7.05C-0.36,-7.193 -0.243,-7.31 -0.1,-7.31L0.1,-7.31C0.243,-7.31 0.36,-7.193 0.36,-7.05Z" style="fill:rgb(114,171,157);"/>
        </g>
        <g transform="matrix(0.748956,-0.66262,0.66262,0.748956,115.49,314.95)">
            <path d="M0.43,-6.4L0.43,6.4C0.43,6.543 0.313,6.66 0.17,6.66L-0.17,6.66C-0.313,6.66 -0.43,6.543 -0.43,6.4L-0.43,-6.4C-0.43,-6.543 -0.313,-6.66 -0.17,-6.66L0.17,-6.66C0.313,-6.66 0.43,-6.543 0.43,-6.4Z" style="fill:rgb(114,171,157);"/>
        </g>
        <g transform="matrix(0.87462,0.48481,-0.48481,0.87462,111.35,324.98)">
            <path d="M4.93,-0.01L4.93,0.01C4.93,0.269 4.719,0.48 4.46,0.48L-4.46,0.48C-4.719,0.48 -4.93,0.269 -4.93,0.01L-4.93,-0.01C-4.93,-0.269 -4.719,-0.48 -4.46,-0.48L4.46,-0.48C4.719,-0.48 4.93,-0.269 4.93,-0.01Z" style="fill:rgb(114,171,157);"/>
        </g>
        <path d="M236.67,410.52C228.03,410.413 222.047,410.703 218.72,411.39C215.487,412.057 212.237,412.567 208.97,412.92C210.71,399.167 211.503,385.437 211.35,371.73C211.348,371.515 211.507,371.33 211.72,371.3C219.713,370.113 227.53,368.023 235.17,365.03C235.194,365.021 235.218,365.013 235.243,365.007C235.521,364.944 235.804,365.124 235.869,365.408C235.874,365.432 235.878,365.456 235.88,365.48C236.2,369.013 236.77,375.187 237.59,384C238.283,391.487 237.977,400.327 236.67,410.52Z" style="fill:white;fill-rule:nonzero;"/>
        <path d="M70.21,412.37C62.837,412.217 55.38,412.12 47.84,412.08C46.693,412.073 45.143,411.93 43.19,411.65C41.63,411.43 40.08,411.333 38.54,411.36C39.533,396.3 41.643,381.32 44.87,366.42C44.876,366.393 44.883,366.366 44.893,366.339C45.005,366.018 45.358,365.846 45.674,365.957C45.7,365.966 45.725,365.977 45.75,365.99C54.937,370.57 64.62,373.477 74.8,374.71C75.259,374.76 75.611,375.153 75.611,375.615C75.611,375.694 75.601,375.773 75.58,375.85C72.507,387.617 70.717,399.79 70.21,412.37Z" style="fill:white;fill-rule:nonzero;"/>
    </g>
</svg>
