<?xml version="1.0" encoding="UTF-8" standalone="no"?>
<!DOCTYPE svg PUBLIC "-//W3C//DTD SVG 1.1//EN" "http://www.w3.org/Graphics/SVG/1.1/DTD/svg11.dtd">
<svg width="100%" height="100%" viewBox="0 0 217 365" version="1.1" xmlns="http://www.w3.org/2000/svg" xmlns:xlink="http://www.w3.org/1999/xlink" xml:space="preserve" xmlns:serif="http://www.serif.com/" style="fill-rule:evenodd;clip-rule:evenodd;stroke-linejoin:round;stroke-miterlimit:2;">
    <g transform="matrix(1,0,0,1,-287.58,-894.604)">
        <path d="M489.81,1251.6C491.47,1236.42 490.39,1221.58 488.87,1206.71C488.866,1206.67 488.858,1206.62 488.848,1206.58C488.726,1206.09 488.219,1205.79 487.724,1205.91C487.682,1205.92 487.64,1205.93 487.6,1205.95C480.113,1208.98 472.583,1211.03 465.01,1212.12C464.743,1212.16 464.542,1212.39 464.54,1212.66C464.553,1226.32 463.737,1240.11 462.09,1254.04C460.797,1254.57 459.337,1254.76 457.71,1254.61C458.823,1242.24 459.487,1233.96 459.7,1229.75C460.293,1218.4 460.237,1204.65 459.53,1188.51C459.482,1187.44 460.195,1186.48 461.23,1186.21L461.33,1186.18C461.47,1186.14 461.616,1186.12 461.762,1186.12C462.588,1186.12 463.278,1186.78 463.32,1187.6L464.31,1206.88C464.322,1207.18 464.571,1207.42 464.87,1207.42C464.9,1207.42 464.93,1207.41 464.96,1207.41C475.287,1205.81 485.16,1202.87 494.58,1198.59C495.037,1198.38 495.308,1197.9 495.25,1197.4C493.703,1184.75 490.797,1172.69 486.53,1161.22C482.21,1149.6 474.833,1140.69 464.4,1134.48C464.388,1134.47 464.376,1134.47 464.363,1134.46C463.928,1134.23 463.38,1134.39 463.15,1134.82C463.143,1134.83 463.136,1134.85 463.13,1134.86C462.51,1136.13 461.793,1136.39 460.98,1135.63C460.9,1135.56 460.827,1135.49 460.76,1135.41C460.733,1135.38 460.557,1134.93 460.23,1134.05C460.143,1133.83 459.928,1133.68 459.689,1133.68C459.413,1133.68 459.173,1133.88 459.12,1134.15C458.5,1137.87 457.567,1142.58 456.32,1148.29C455.2,1153.44 452.987,1158.15 449.68,1162.44C449.257,1162.99 448.513,1163.18 447.87,1162.92L447.46,1162.75C446.894,1162.52 446.523,1161.96 446.523,1161.35C446.523,1161.02 446.631,1160.69 446.83,1160.43C449.37,1157.07 450.787,1153.38 451.08,1149.35C451.08,1149.34 451.081,1149.34 451.081,1149.33C451.081,1149.15 450.936,1149.01 450.761,1149.01C450.626,1149.01 450.506,1149.09 450.46,1149.22L447.81,1156.8C447.48,1157.76 446.478,1158.32 445.49,1158.11L445.42,1158.1C445.384,1158.09 445.348,1158.08 445.313,1158.07C444.509,1157.85 444.033,1157 444.257,1156.19C444.267,1156.16 444.278,1156.12 444.29,1156.09C446.13,1150.94 446.887,1146.27 446.56,1142.07C446.56,1142.07 446.56,1142.07 446.56,1142.07C446.56,1141.85 446.384,1141.67 446.17,1141.67C445.958,1141.67 445.783,1141.85 445.78,1142.06C445.29,1146.25 444.61,1149.91 441.98,1152.72C441.533,1153.19 441.05,1153.3 440.53,1153.05C440.528,1153.05 440.526,1153.05 440.524,1153.05C439.807,1152.7 439.521,1151.79 439.889,1151.02C439.89,1151.02 439.89,1151.02 439.89,1151.02C443.78,1143.05 442.53,1134.15 440.19,1125.6C440.176,1125.55 440.152,1125.51 440.12,1125.47C439.998,1125.33 439.785,1125.31 439.648,1125.43C439.609,1125.46 439.579,1125.5 439.56,1125.55C430.29,1146.71 404.31,1151.64 384.84,1142.77C384.804,1142.75 384.764,1142.74 384.724,1142.74C384.576,1142.74 384.454,1142.87 384.454,1143.01C384.454,1143.05 384.463,1143.09 384.48,1143.13C386.033,1146.46 387.79,1149.49 389.75,1152.23C390.543,1153.34 392.5,1154.1 395.62,1154.49C396.317,1154.57 396.849,1155.17 396.849,1155.87C396.849,1156.06 396.812,1156.24 396.74,1156.41L396.58,1156.8C396.145,1157.84 394.979,1158.4 393.89,1158.08C388.617,1156.55 384.027,1153.75 380.12,1149.67C380.045,1149.6 379.944,1149.56 379.839,1149.56C379.62,1149.56 379.439,1149.74 379.439,1149.95C379.439,1150.02 379.457,1150.09 379.49,1150.15L385.44,1160.44C385.835,1161.13 385.72,1162 385.16,1162.57L384.89,1162.83C384.616,1163.11 384.243,1163.26 383.855,1163.26C383.467,1163.26 383.094,1163.11 382.82,1162.83L379.89,1159.9C379.815,1159.82 379.712,1159.78 379.605,1159.78C379.385,1159.78 379.205,1159.96 379.205,1160.18C379.205,1160.23 379.213,1160.28 379.23,1160.32C379.343,1160.63 379.6,1161.03 380,1161.53C381.29,1163.14 380.93,1164.67 378.77,1165.31C377.437,1165.7 376.07,1165.65 374.67,1165.14C374.622,1165.12 374.571,1165.12 374.519,1165.12C374.267,1165.12 374.059,1165.32 374.059,1165.58C374.059,1165.58 374.06,1165.59 374.06,1165.6L374.07,1165.85C374.088,1166.17 374.28,1166.45 374.57,1166.59L378.35,1168.32C378.355,1168.32 378.36,1168.33 378.365,1168.33C379.203,1168.72 379.565,1169.74 379.167,1170.59C379.164,1170.59 379.162,1170.6 379.16,1170.6L379.15,1170.64C379.143,1170.65 379.137,1170.67 379.13,1170.69C378.755,1171.49 377.78,1171.85 376.969,1171.47C376.956,1171.46 376.943,1171.46 376.93,1171.45L373.71,1169.86C373.349,1169.68 372.924,1169.69 372.58,1169.89C372.293,1170.06 371.827,1170.33 371.18,1170.7C369.633,1171.6 367.983,1171.62 366.23,1170.77C360.477,1167.96 355.637,1164.63 351.71,1160.78C342.783,1152.01 335.317,1142.31 329.31,1131.68C329.309,1131.68 329.307,1131.67 329.306,1131.67C329.158,1131.43 328.839,1131.35 328.6,1131.49C328.597,1131.5 328.593,1131.5 328.59,1131.5C325.93,1133.19 323.65,1135.12 321.75,1137.27C315.357,1144.5 310.113,1152.43 306.02,1161.05C300.467,1172.74 296.143,1185.05 293.05,1198C292.937,1198.47 293.145,1198.96 293.56,1199.21C305.92,1206.44 319.017,1210.61 332.85,1211.7C333.393,1211.74 333.889,1211.37 334.01,1210.84L339.72,1185.39C339.897,1184.6 340.606,1184.03 341.418,1184.03C341.561,1184.03 341.702,1184.05 341.84,1184.08L341.91,1184.1C342.876,1184.33 343.501,1185.29 343.32,1186.27C341.753,1194.46 340.02,1202.91 338.12,1211.64C337.52,1214.39 336.66,1215.71 333.91,1215.95C333.409,1215.99 332.988,1216.36 332.87,1216.85C330.11,1228.74 328.303,1241.07 327.45,1253.85C325.617,1253.96 324.183,1253.79 323.15,1253.34C323.597,1240.82 325.397,1228.57 328.55,1216.6C328.566,1216.54 328.574,1216.48 328.574,1216.41C328.574,1216.05 328.3,1215.74 327.94,1215.7C317.567,1214.41 307.747,1211.47 298.48,1206.88C298.451,1206.87 298.421,1206.85 298.39,1206.84C297.976,1206.7 297.518,1206.92 297.376,1207.33C297.365,1207.36 297.357,1207.39 297.35,1207.42C294.197,1222.17 292.103,1237.12 291.07,1252.29C289.943,1252.69 288.943,1252.69 288.07,1252.28C287.772,1252.14 287.58,1251.84 287.58,1251.51C287.567,1246.88 287.997,1240.9 288.87,1233.59C290.077,1223.56 291.67,1214.24 293.65,1205.64C293.766,1205.16 293.586,1204.65 293.19,1204.34L289.63,1201.56C289.21,1201.23 288.978,1200.71 289.01,1200.18C289.163,1197.68 289.463,1195.53 289.91,1193.72C293.05,1181.03 297.663,1168.62 303.75,1156.49C307.257,1149.5 311.623,1142.97 316.85,1136.91C317.086,1136.64 317.072,1136.23 316.82,1135.98C315.83,1134.99 314.16,1133.82 313.29,1132.67C308.17,1125.95 307.69,1118.77 307.9,1110.07C308.1,1101.87 306.74,1094.04 303.2,1086.76C300.26,1080.71 298.46,1076.95 297.8,1075.48C291.547,1061.48 288.75,1046.65 289.41,1031C289.703,1023.96 290.383,1013.46 291.45,999.5C292.23,989.26 293.33,979.93 294.75,971.51C296.86,958.97 302.4,946.23 308.65,935.89C311.543,931.103 315.093,926.57 319.3,922.29C324.92,916.57 329.803,912.133 333.95,908.98C343.75,901.533 354.56,897.253 366.38,896.14C366.825,896.1 367.262,895.999 367.68,895.84C373.14,893.8 380.33,893.94 384.16,898.9C384.353,899.153 384.517,899.424 384.65,899.71C385.95,902.56 387.19,906.34 389.79,906.24C390.167,906.222 390.475,905.93 390.51,905.56C390.95,900.68 393.423,897.81 397.93,896.95C411.77,894.3 424.04,905.2 432.6,914.68C448.64,932.41 461.83,958.18 466.67,981.32C466.794,981.895 467.078,982.425 467.49,982.85C467.89,983.263 468.457,983.817 469.19,984.51C472.99,988.11 473.53,995.14 473.7,1000.31C473.747,1001.63 474.02,1003.62 474.52,1006.29C476.893,1018.92 478.4,1030.16 479.04,1040.01C479.413,1045.73 479.51,1053.29 479.33,1062.7C479.17,1070.71 479.33,1076.74 479.81,1080.79C481.59,1095.86 485.293,1110.63 490.92,1125.12C493.22,1131.04 496.83,1138.65 503.41,1140.24C504.208,1140.43 504.712,1141.24 504.53,1142.05L504.46,1142.37C504.272,1143.2 503.474,1143.76 502.63,1143.65C498.59,1143.14 494.46,1140.64 491.41,1139.46C491.36,1139.44 491.307,1139.43 491.254,1139.43C491.013,1139.43 490.814,1139.63 490.814,1139.87C490.814,1139.92 490.823,1139.97 490.84,1140.02C492.03,1143.35 494.06,1144.65 497.69,1147.21C498.027,1147.45 498.228,1147.83 498.228,1148.24C498.228,1148.55 498.115,1148.85 497.91,1149.08C495.73,1151.52 492.59,1149.18 489.5,1147.61C489.197,1147.45 488.84,1147.44 488.53,1147.57L485.46,1148.86C485.294,1148.93 485.185,1149.09 485.185,1149.27C485.185,1149.34 485.204,1149.41 485.24,1149.48C493.21,1164.59 497.3,1180.96 499.57,1198.02C499.743,1199.33 499.257,1200.36 498.11,1201.13C496.55,1202.18 494.933,1203.04 493.26,1203.73C492.779,1203.93 492.486,1204.43 492.54,1204.95C493.48,1213.85 494.14,1221.01 494.52,1226.44C495.007,1233.37 494.753,1241.65 493.76,1251.28C493.729,1251.58 493.531,1251.84 493.25,1251.95C491.937,1252.46 490.79,1252.35 489.81,1251.6ZM375.89,898.451C375.793,898.748 376.927,899.389 378.403,899.872C378.403,899.872 378.403,899.872 378.403,899.872C379.879,900.354 381.173,900.506 381.27,900.209C381.27,900.209 381.27,900.209 381.27,900.209C381.367,899.912 380.233,899.271 378.757,898.788C378.757,898.788 378.757,898.788 378.757,898.788C377.281,898.306 375.987,898.154 375.89,898.451C375.89,898.451 375.89,898.451 375.89,898.451ZM423.33,914.55C418.59,909.15 410.01,903.49 402.48,903.95C402.31,903.96 402.175,904.1 402.17,904.27L402.17,904.28C402.17,904.463 402.317,904.615 402.5,904.62C411.53,905.27 416.39,909.63 423.17,914.73C423.192,914.75 423.221,914.76 423.25,914.76C423.316,914.76 423.37,914.706 423.37,914.64C423.37,914.606 423.356,914.573 423.33,914.55ZM351.947,904.15C351.885,904.034 351.738,903.99 351.622,904.053L338.521,911.107C338.405,911.17 338.361,911.316 338.423,911.432L338.433,911.45C338.495,911.566 338.642,911.61 338.758,911.547L351.859,904.493C351.975,904.43 352.019,904.284 351.957,904.168L351.947,904.15ZM366.14,905.39C366.14,905.116 365.914,904.89 365.64,904.89C365.366,904.89 365.14,905.116 365.14,905.39C365.14,905.664 365.366,905.89 365.64,905.89C365.914,905.89 366.14,905.664 366.14,905.39ZM369.603,905.483C369.435,905.918 369.878,906.5 370.584,906.773C370.584,906.773 370.584,906.773 370.584,906.773C371.29,907.046 372.01,906.912 372.178,906.477C372.345,906.042 371.902,905.46 371.196,905.187C371.196,905.187 371.196,905.187 371.196,905.187C370.49,904.914 369.77,905.048 369.603,905.483ZM396.33,908.19C396.33,907.938 396.122,907.73 395.87,907.73C395.618,907.73 395.41,907.938 395.41,908.19C395.41,908.442 395.618,908.65 395.87,908.65C396.122,908.65 396.33,908.442 396.33,908.19ZM384.791,908.335C384.657,908.487 384.952,908.971 385.445,909.407C385.938,909.843 386.454,910.077 386.589,909.925C386.589,909.925 386.589,909.925 386.589,909.925C386.723,909.773 386.428,909.289 385.935,908.853C385.442,908.417 384.926,908.183 384.791,908.335C384.791,908.335 384.791,908.335 384.791,908.335ZM338.63,917.37C334.86,920.03 330.68,923.31 328.31,927.04C328.303,927.056 328.3,927.073 328.3,927.091C328.3,927.162 328.358,927.221 328.43,927.221C328.455,927.221 328.479,927.213 328.5,927.2C332.44,923.347 335.983,920.31 339.13,918.09C342.277,915.863 346.327,913.54 351.28,911.12C351.318,911.096 351.342,911.054 351.342,911.009C351.342,910.938 351.283,910.879 351.212,910.879C351.208,910.879 351.204,910.88 351.2,910.88C346.88,911.87 342.4,914.7 338.63,917.37ZM388.96,915.51L390.42,918.36C390.544,918.601 390.593,918.873 390.56,919.14C390.16,922.533 388.28,924.977 384.92,926.47C383.07,927.3 380.46,926.81 378.66,928.05C375.027,930.57 369.913,934.953 363.32,941.2C362.04,942.42 360.99,942.373 360.17,941.06C360.162,941.047 360.153,941.034 360.143,941.021C359.944,940.753 359.562,940.693 359.298,940.889C359.285,940.899 359.272,940.909 359.26,940.92C334.34,962.26 325.11,994.19 321.99,1025.55C321.76,1027.87 321.22,1029.32 319.47,1030.55C318.844,1030.99 317.994,1030.97 317.39,1030.5C313.86,1027.72 310.59,1025.32 306.04,1027.92C298.5,1032.23 299.12,1042.24 303.04,1048.9C305.393,1052.91 308.81,1055.95 313.29,1058.03C313.578,1058.16 313.926,1058.09 314.14,1057.85C314.307,1057.67 314.683,1057.16 315.27,1056.32C318.35,1051.92 323.81,1052.63 327.26,1056.42C327.598,1056.8 328.096,1056.99 328.6,1056.94L329.08,1056.9C329.562,1056.85 330.038,1057.06 330.33,1057.45C340.89,1071.78 354.777,1081.7 371.99,1087.19C387.11,1092.02 401.99,1093.87 416.42,1086.19C434.48,1076.57 446.41,1057.08 450.78,1037.43C453.28,1026.19 454.43,1013.66 452.07,1002.27C447.94,982.31 440.64,962.83 427.44,947.2C427.178,946.887 427.048,946.481 427.08,946.07C427.093,945.903 427.143,945.733 427.23,945.56C427.449,945.123 427.394,944.598 427.09,944.22C423.417,939.64 419.8,936.033 416.24,933.4C412.79,930.84 406.05,928.11 402.92,926.84C401.9,926.427 399.84,924.993 396.74,922.54C395.56,921.6 395.223,920.067 395.73,917.94C395.841,917.484 395.636,917.008 395.23,916.78C393.377,915.727 392.82,914.477 393.56,913.03C393.628,912.895 393.664,912.746 393.664,912.595C393.664,912.15 393.354,911.76 392.92,911.66L391.63,911.37C391.551,911.353 391.47,911.344 391.39,911.344C390.845,911.344 390.372,911.735 390.27,912.27C390.097,913.15 389.71,913.903 389.11,914.53C388.859,914.787 388.799,915.18 388.96,915.51ZM418.06,919.48C420.54,921.37 422.52,923.38 424.74,924.85C424.768,924.866 424.799,924.875 424.832,924.875C424.93,924.875 425.012,924.794 425.012,924.695C425.012,924.653 424.997,924.612 424.97,924.58C422.923,922.273 420.827,920.303 418.68,918.67C416.527,917.03 414.067,915.53 411.3,914.17C411.27,914.15 411.236,914.14 411.2,914.14C411.101,914.14 411.02,914.221 411.02,914.32C411.02,914.38 411.05,914.437 411.1,914.47C413.11,916.22 415.57,917.59 418.06,919.48ZM365.46,921.16C363.993,922.033 363.333,922.587 363.48,922.82C363.613,923.047 364.41,922.723 365.87,921.85C367.33,920.977 367.99,920.42 367.85,920.18C367.717,919.96 366.92,920.287 365.46,921.16ZM384.039,921.342C383.735,921.116 383.264,921.227 382.996,921.589C382.728,921.95 382.757,922.433 383.061,922.658C383.365,922.884 383.836,922.773 384.104,922.411C384.372,922.05 384.343,921.567 384.039,921.342ZM410.68,925.11L403.85,922.1L403.78,922.26C403.624,922.639 404.926,923.58 406.67,924.35L407.11,924.55C407.111,924.55 407.112,924.551 407.113,924.551C408.864,925.324 410.443,925.65 410.609,925.273C410.609,925.272 410.61,925.271 410.61,925.27L410.68,925.11ZM341.7,930.12C337.927,933.12 334.88,936.067 332.56,938.96C332.514,939.018 332.489,939.091 332.489,939.165C332.489,939.309 332.583,939.437 332.72,939.48C332.78,939.487 332.87,939.433 332.99,939.32C336.25,936.16 339.383,933.383 342.39,930.99C345.403,928.597 348.817,926.17 352.63,923.71C352.77,923.617 352.843,923.543 352.85,923.49C352.84,923.316 352.695,923.179 352.521,923.179C352.472,923.179 352.424,923.189 352.38,923.21C349.033,924.817 345.473,927.12 341.7,930.12ZM378.831,922.997C378.72,922.808 377.811,923.132 376.818,923.715C376.818,923.715 376.818,923.715 376.818,923.715C375.824,924.298 375.098,924.933 375.209,925.123C375.209,925.123 375.209,925.123 375.209,925.123C375.32,925.312 376.229,924.988 377.222,924.405C377.222,924.405 377.222,924.405 377.222,924.405C378.216,923.822 378.942,923.187 378.831,922.997C378.831,922.997 378.831,922.997 378.831,922.997ZM418.931,929.756C418.81,929.905 419.807,930.919 421.139,932.002C422.472,933.084 423.668,933.853 423.789,933.704C423.91,933.555 422.913,932.541 421.581,931.458C420.248,930.376 419.052,929.607 418.931,929.756ZM346.166,941.989C346.166,941.989 346.166,941.989 346.166,941.989C346.012,941.841 344.46,943.205 342.729,945.01C342.729,945.01 342.729,945.01 342.729,945.01C340.997,946.815 339.7,948.423 339.854,948.571C339.854,948.571 339.854,948.571 339.854,948.571C340.008,948.719 341.56,947.355 343.291,945.55C343.291,945.55 343.291,945.55 343.291,945.55C345.023,943.745 346.32,942.137 346.166,941.989ZM332.606,943.679C332.446,943.537 330.886,945.018 329.149,946.96C327.413,948.902 326.115,950.618 326.274,950.761C326.434,950.903 327.994,949.422 329.731,947.48C331.467,945.538 332.765,943.822 332.606,943.679ZM306.77,960.34C304.923,965.533 303.503,970.49 302.51,975.21C302.363,975.91 302.323,976.597 302.39,977.27C302.401,977.326 302.451,977.367 302.508,977.367C302.558,977.367 302.602,977.336 302.62,977.29C304.427,970.697 306.127,965.16 307.72,960.68C309.313,956.2 311.49,950.833 314.25,944.58C314.258,944.564 314.262,944.546 314.262,944.528C314.262,944.462 314.208,944.408 314.142,944.408C314.112,944.408 314.082,944.419 314.06,944.44C313.58,944.927 313.177,945.487 312.85,946.12C310.643,950.407 308.617,955.147 306.77,960.34ZM313.07,978.71L319.43,957.36C319.433,957.349 319.435,957.337 319.435,957.325C319.435,957.272 319.4,957.225 319.35,957.21L319.3,957.2C318.632,957.005 316.655,961.63 314.92,967.45L314.82,967.8C313.085,973.619 312.206,978.573 312.87,978.78L312.92,978.79C312.931,978.793 312.943,978.795 312.955,978.795C313.008,978.795 313.055,978.76 313.07,978.71ZM328.934,967.802C328.96,967.748 328.974,967.69 328.974,967.63C328.974,967.482 328.889,967.345 328.756,967.28L328.72,967.262C328.666,967.236 328.608,967.223 328.548,967.223C328.4,967.223 328.263,967.308 328.198,967.441L323.526,976.978C323.5,977.032 323.486,977.09 323.486,977.15C323.486,977.298 323.571,977.435 323.704,977.5L323.74,977.518C323.794,977.544 323.852,977.557 323.912,977.557C324.06,977.557 324.197,977.472 324.262,977.339L328.934,967.802ZM461.9,980.06C462.153,979.987 462.203,979.717 462.05,979.25C461.07,976.277 460.513,974.81 460.38,974.85C460.233,974.89 460.573,976.423 461.4,979.45C461.527,979.917 461.693,980.12 461.9,980.06ZM457.259,980.562C457.111,980.325 456.759,980.273 456.48,980.448C456.201,980.622 456.093,980.961 456.241,981.198C456.241,981.198 456.241,981.198 456.241,981.198C456.389,981.435 456.741,981.487 457.02,981.313C457.299,981.138 457.407,980.799 457.259,980.562C457.259,980.562 457.259,980.562 457.259,980.562ZM323.8,983.06L323.44,987.4C323.439,987.407 323.439,987.413 323.439,987.42C323.439,987.505 323.506,987.575 323.59,987.58L323.67,987.58C324.303,987.632 324.907,986.681 325.01,985.47C325.01,985.47 325.03,985.23 325.03,985.229C325.132,984.016 324.694,982.973 324.06,982.92L323.98,982.91C323.973,982.909 323.967,982.909 323.96,982.909C323.875,982.909 323.805,982.976 323.8,983.06ZM458.67,1013.51C460.723,1012.41 462.67,1012.31 464.51,1013.21C464.929,1013.41 465.433,1013.27 465.67,1012.88C469.877,1006.09 470.9,998.983 468.74,991.55C466.51,983.91 458.47,982.29 453.8,989.18C453.422,989.737 453.319,990.438 453.52,991.08C455.713,998.127 457.14,1005.45 457.8,1013.04C457.804,1013.08 457.811,1013.12 457.822,1013.15C457.917,1013.47 458.25,1013.65 458.56,1013.56C458.598,1013.54 458.635,1013.53 458.67,1013.51ZM309.87,994.08C309.95,993.853 309.98,993.66 309.96,993.5C309.942,993.367 309.827,993.266 309.692,993.266C309.581,993.266 309.48,993.335 309.44,993.44C309.313,993.767 309.34,994.01 309.52,994.17C309.531,994.18 309.543,994.188 309.556,994.196C309.661,994.256 309.794,994.223 309.851,994.123C309.859,994.11 309.866,994.095 309.87,994.08ZM296.02,1027.86L296.58,1027.87C296.583,1027.87 296.587,1027.87 296.59,1027.87C296.68,1027.87 296.755,1027.8 296.76,1027.71L296.76,1027.62C296.993,1012.82 297.033,1000.59 296.85,1000.45L296.63,1000.45C296.629,1000.45 296.628,1000.45 296.627,1000.45C296.44,1000.45 296.094,1012.7 295.86,1027.6C295.86,1027.6 295.86,1027.69 295.86,1027.69C295.86,1027.78 295.931,1027.86 296.02,1027.86ZM303.57,1023.82C303.923,1023.86 304.643,1018.75 305.73,1008.49C305.823,1007.62 305.693,1007.17 305.34,1007.13C304.98,1007.1 304.753,1007.51 304.66,1008.37C303.573,1018.64 303.21,1023.79 303.57,1023.82ZM463.138,1016.48C463.138,1016.48 463.138,1016.48 463.138,1016.48C461.113,1015.7 458.765,1016.81 457.938,1018.94C457.938,1018.94 457.938,1018.94 457.938,1018.94C457.111,1021.07 458.097,1023.47 460.122,1024.26C460.122,1024.26 460.122,1024.26 460.122,1024.26C462.147,1025.04 464.495,1023.94 465.322,1021.8C465.322,1021.8 465.322,1021.8 465.322,1021.8C466.149,1019.67 465.163,1017.27 463.138,1016.48ZM310.853,1021.62C310.643,1021.3 310.095,1021.29 309.638,1021.6C309.181,1021.9 308.978,1022.41 309.187,1022.72C309.397,1023.04 309.945,1023.05 310.402,1022.75C310.859,1022.44 311.062,1021.93 310.853,1021.62ZM315.85,1021.62C315.363,1021.67 315.017,1022.32 315.083,1023.08C315.149,1023.83 315.604,1024.42 316.09,1024.38C316.577,1024.33 316.923,1023.68 316.857,1022.92C316.791,1022.17 316.336,1021.58 315.85,1021.62ZM473.191,1028.9C473.191,1028.9 473.191,1028.9 473.191,1028.9C472.846,1028.92 472.864,1033.74 473.231,1039.57C473.231,1039.57 473.231,1039.57 473.231,1039.57C473.598,1045.4 474.184,1050.18 474.529,1050.16C474.529,1050.16 474.529,1050.16 474.529,1050.16C474.874,1050.14 474.856,1045.32 474.489,1039.49C474.489,1039.49 474.489,1039.49 474.489,1039.49C474.122,1033.66 473.536,1028.88 473.191,1028.9ZM325.25,1061.53C325.25,1059.18 323.313,1057.24 320.96,1057.24C318.607,1057.24 316.67,1059.18 316.67,1061.53C316.67,1063.88 318.607,1065.82 320.96,1065.82C323.313,1065.82 325.25,1063.88 325.25,1061.53ZM304.1,1057.85C304.627,1058.42 304.917,1058.72 304.97,1058.73C304.992,1058.73 305.014,1058.74 305.036,1058.74C305.222,1058.74 305.376,1058.58 305.376,1058.4C305.376,1058.33 305.356,1058.27 305.32,1058.21C305.273,1058.14 304.927,1057.94 304.28,1057.61C304.254,1057.59 304.222,1057.58 304.19,1057.58C304.108,1057.58 304.04,1057.65 304.04,1057.73C304.04,1057.78 304.062,1057.82 304.1,1057.85ZM475.062,1058.68C475.062,1058.37 474.805,1058.11 474.492,1058.11C474.492,1058.11 474.451,1058.11 474.451,1058.11C474.139,1058.11 473.882,1058.37 473.882,1058.68C473.882,1058.68 473.882,1058.68 473.882,1058.68L473.898,1067.44C473.898,1067.75 474.155,1068.01 474.468,1068.01C474.468,1068.01 474.509,1068.01 474.509,1068.01C474.821,1068.01 475.078,1067.75 475.078,1067.44C475.078,1067.44 475.078,1067.44 475.078,1067.44L475.062,1058.68ZM298.508,1062.15C298.453,1062.01 298.316,1061.91 298.163,1061.91C298.118,1061.91 298.072,1061.92 298.03,1061.94L297.993,1061.95C297.85,1062.01 297.756,1062.14 297.756,1062.3C297.756,1062.34 297.764,1062.39 297.781,1062.43L302.612,1074.95C302.667,1075.09 302.804,1075.19 302.957,1075.19C303.002,1075.19 303.048,1075.18 303.09,1075.16L303.127,1075.15C303.27,1075.09 303.364,1074.96 303.364,1074.8C303.364,1074.76 303.356,1074.71 303.339,1074.67L298.508,1062.15ZM454.477,1065.75C454.486,1065.5 454.295,1065.3 454.053,1065.29L454.013,1065.29C453.772,1065.28 453.566,1065.47 453.558,1065.71L452.623,1091.19C452.614,1091.44 452.805,1091.64 453.047,1091.65L453.087,1091.65C453.328,1091.66 453.534,1091.47 453.543,1091.23L454.477,1065.75ZM442.779,1068C442.642,1067.92 442.417,1068.04 442.28,1068.27C442.28,1068.27 442.28,1068.27 442.28,1068.27C442.144,1068.5 442.144,1068.76 442.281,1068.84C442.281,1068.84 442.281,1068.84 442.281,1068.84C442.418,1068.92 442.643,1068.8 442.78,1068.57C442.78,1068.57 442.78,1068.57 442.78,1068.57C442.916,1068.34 442.916,1068.08 442.779,1068C442.779,1068 442.779,1068 442.779,1068ZM317.169,1069.03C317.025,1069.21 317.269,1069.64 317.708,1069.98C317.708,1069.98 317.708,1069.98 317.708,1069.98C318.148,1070.32 318.628,1070.44 318.771,1070.26C318.771,1070.26 318.771,1070.26 318.771,1070.26C318.915,1070.07 318.671,1069.64 318.232,1069.3C318.232,1069.3 318.232,1069.3 318.232,1069.3C317.792,1068.96 317.312,1068.84 317.169,1069.03C317.169,1069.03 317.169,1069.03 317.169,1069.03ZM309.033,1069.53C308.859,1069.65 309.089,1070.27 309.543,1070.91C309.996,1071.54 310.513,1071.96 310.687,1071.84C310.861,1071.71 310.631,1071.09 310.177,1070.45C309.724,1069.82 309.207,1069.4 309.033,1069.53ZM463.333,1072.32C463.338,1072.12 463.18,1071.96 462.982,1071.95L462.942,1071.95C462.939,1071.95 462.936,1071.95 462.933,1071.95C462.739,1071.95 462.578,1072.11 462.573,1072.3L462.127,1089.32C462.122,1089.52 462.28,1089.68 462.478,1089.69L462.518,1089.69C462.521,1089.69 462.524,1089.69 462.527,1089.69C462.721,1089.69 462.882,1089.53 462.887,1089.34L463.333,1072.32ZM472.2,1099.56C473.393,1104.95 474.893,1109.57 476.7,1113.41C476.759,1113.54 476.892,1113.63 477.038,1113.63C477.147,1113.63 477.25,1113.58 477.32,1113.5C477.353,1113.45 477.343,1113.34 477.29,1113.15C475.677,1108.21 474.397,1103.59 473.45,1099.29C472.503,1094.99 471.72,1090.26 471.1,1085.1C471.073,1084.91 471.033,1084.79 470.98,1084.76C470.933,1084.74 470.882,1084.73 470.83,1084.73C470.627,1084.73 470.46,1084.89 470.46,1085.1C470.46,1085.1 470.46,1085.1 470.46,1085.1C470.433,1089.35 471.013,1094.17 472.2,1099.56ZM338.616,1085.59C338.616,1085.59 338.616,1085.59 338.616,1085.59C338.495,1085.68 338.862,1086.36 339.429,1087.08C339.429,1087.08 339.429,1087.08 339.429,1087.08C339.997,1087.81 340.563,1088.33 340.684,1088.23C340.684,1088.23 340.684,1088.23 340.684,1088.23C340.805,1088.14 340.438,1087.46 339.871,1086.74C339.871,1086.74 339.871,1086.74 339.871,1086.74C339.303,1086.01 338.737,1085.49 338.616,1085.59ZM381.02,1095.04C381.98,1102.89 381.1,1113.43 373.01,1117.25C372.748,1117.37 372.624,1117.68 372.73,1117.95L379.39,1134.16C379.443,1134.28 379.51,1134.39 379.59,1134.49C380.23,1135.32 381.447,1136.21 383.24,1137.16C396.213,1144.11 409.323,1144.37 422.57,1137.94C428.95,1134.84 433.263,1130.02 435.51,1123.47C435.696,1122.93 435.451,1122.33 434.94,1122.07C431.053,1120.12 428.627,1116.99 427.66,1112.68C425.873,1104.73 424.74,1096.51 424.26,1088.02C424.257,1087.97 424.247,1087.91 424.23,1087.86C424.126,1087.55 423.788,1087.38 423.481,1087.48C423.431,1087.5 423.384,1087.52 423.34,1087.55C410.587,1096.13 396.64,1098.49 381.5,1094.63C381.478,1094.62 381.456,1094.62 381.434,1094.62C381.221,1094.61 381.033,1094.76 381.018,1094.97C381.017,1094.99 381.017,1095.02 381.02,1095.04ZM437.43,1103.85L436.93,1088.74C436.93,1088.74 436.726,1088.74 436.724,1088.74C436.286,1088.76 436.035,1092.1 436.17,1096.15C436.17,1096.15 436.17,1096.16 436.17,1096.16L436.19,1096.5C436.324,1100.54 436.792,1103.85 437.23,1103.86L437.43,1103.85ZM358.392,1096.92C358.392,1096.92 358.392,1096.92 358.392,1096.92C358.21,1097.04 358.367,1097.6 358.739,1098.14C358.739,1098.14 358.739,1098.14 358.739,1098.14C359.111,1098.69 359.567,1099.05 359.748,1098.92C359.748,1098.92 359.748,1098.92 359.748,1098.92C359.93,1098.8 359.773,1098.25 359.401,1097.7C359.401,1097.7 359.401,1097.7 359.401,1097.7C359.029,1097.15 358.573,1096.8 358.392,1096.92ZM452.305,1098.54C452.279,1098.26 452.024,1098.05 451.74,1098.07L451.7,1098.08C451.416,1098.1 451.204,1098.36 451.229,1098.64L453.015,1118.26C453.041,1118.54 453.296,1118.76 453.58,1118.73L453.62,1118.73C453.904,1118.7 454.116,1118.44 454.09,1118.16L452.305,1098.54ZM325.295,1105.68C325.103,1105.78 325.485,1106.93 326.141,1108.25C326.797,1109.55 327.494,1110.55 327.686,1110.46C327.877,1110.36 327.495,1109.2 326.839,1107.89C326.183,1106.59 325.486,1105.59 325.295,1105.68ZM312.47,1120.07C312.86,1122.3 314.07,1126.79 315.99,1128.88C316.055,1128.96 316.15,1129 316.251,1129C316.438,1129 316.591,1128.85 316.591,1128.66C316.591,1128.61 316.581,1128.57 316.56,1128.52C315.45,1125.66 314.28,1122.65 313.79,1119.84C313.3,1117.03 313.36,1113.8 313.43,1110.73C313.43,1110.73 313.43,1110.73 313.43,1110.73C313.43,1110.54 313.277,1110.39 313.09,1110.39C312.956,1110.39 312.835,1110.47 312.78,1110.59C311.69,1113.21 312.07,1117.84 312.47,1120.07ZM321.58,1110.64C321.562,1110.65 321.544,1110.66 321.527,1110.67C321.311,1110.81 321.265,1111.13 321.424,1111.37C321.435,1111.39 321.447,1111.4 321.46,1111.42C321.66,1111.65 322.28,1111.63 322.37,1111.3C322.443,1111.03 322.36,1110.84 322.12,1110.71C321.9,1110.6 321.72,1110.57 321.58,1110.64ZM349.562,1113.81C349.462,1113.51 349.131,1113.35 348.829,1113.45L348.772,1113.46C348.47,1113.57 348.304,1113.9 348.405,1114.2L349.958,1118.87C350.058,1119.17 350.389,1119.34 350.691,1119.23L350.748,1119.21C351.05,1119.12 351.216,1118.78 351.115,1118.48L349.562,1113.81ZM337.113,1114.06C336.967,1113.8 336.63,1113.7 336.366,1113.85L336.331,1113.87C336.067,1114.01 335.969,1114.35 336.114,1114.61L339.987,1121.66C340.133,1121.92 340.47,1122.02 340.734,1121.87L340.769,1121.86C341.033,1121.71 341.131,1121.37 340.986,1121.11L337.113,1114.06ZM322.491,1122.02C322.393,1121.82 322.192,1121.7 321.973,1121.7C321.883,1121.7 321.793,1121.72 321.713,1121.76L321.659,1121.79C321.463,1121.89 321.34,1122.09 321.34,1122.31C321.34,1122.4 321.361,1122.49 321.402,1122.57L323.289,1126.32C323.387,1126.52 323.588,1126.64 323.807,1126.64C323.897,1126.64 323.987,1126.62 324.067,1126.58L324.121,1126.55C324.317,1126.45 324.44,1126.25 324.44,1126.03C324.44,1125.94 324.419,1125.85 324.378,1125.77L322.491,1122.02ZM351.934,1123.07C351.883,1122.91 351.737,1122.8 351.573,1122.8C351.533,1122.8 351.493,1122.81 351.455,1122.82L351.436,1122.83C351.238,1122.89 351.128,1123.11 351.192,1123.31L353.306,1129.81C353.357,1129.97 353.503,1130.08 353.667,1130.08C353.707,1130.08 353.747,1130.07 353.785,1130.06L353.804,1130.05C354.002,1129.99 354.112,1129.77 354.048,1129.57L351.934,1123.07ZM346.746,1131.63C346.663,1131.51 346.494,1131.48 346.371,1131.56L346.14,1131.72C346.066,1131.77 346.022,1131.85 346.022,1131.94C346.022,1132 346.038,1132.05 346.068,1132.09L355.714,1146.29C355.797,1146.41 355.966,1146.44 356.089,1146.36L356.32,1146.2C356.394,1146.15 356.438,1146.07 356.438,1145.98C356.438,1145.92 356.422,1145.87 356.392,1145.83L346.746,1131.63ZM483.332,1138.41C483.134,1138.58 483.936,1139.82 485.109,1141.16C485.109,1141.16 485.109,1141.16 485.109,1141.16C486.282,1142.49 487.411,1143.45 487.608,1143.27C487.806,1143.1 487.004,1141.86 485.831,1140.52C485.831,1140.52 485.831,1140.52 485.831,1140.52C484.658,1139.19 483.529,1138.23 483.332,1138.41ZM376.34,1139.06L376.46,1139.35C376.482,1139.41 376.538,1139.45 376.6,1139.45C376.662,1139.45 376.718,1139.41 376.74,1139.35C376.793,1139.23 376.767,1139.08 376.66,1138.9C376.627,1138.85 376.57,1138.82 376.509,1138.82C376.41,1138.82 376.329,1138.9 376.329,1139C376.329,1139.02 376.333,1139.04 376.34,1139.06ZM380.35,1144.59C380.537,1144.46 380.473,1144.18 380.16,1143.75C378.133,1141 377.05,1139.67 376.91,1139.76C376.79,1139.85 377.67,1141.32 379.55,1144.17C379.843,1144.62 380.11,1144.76 380.35,1144.59ZM480.531,1142.97C480.315,1143.18 480.787,1144.02 481.576,1144.82C482.366,1145.63 483.193,1146.12 483.409,1145.91C483.625,1145.7 483.153,1144.87 482.364,1144.06C481.574,1143.25 480.747,1142.76 480.531,1142.97ZM350.31,1147.48C350.31,1147.48 350.31,1147.48 350.31,1147.48C350.12,1147.64 352.012,1150.14 354.503,1153C356.993,1155.87 359.199,1158.09 359.39,1157.92C359.39,1157.92 359.39,1157.92 359.39,1157.92C359.58,1157.76 357.688,1155.26 355.197,1152.4C352.707,1149.53 350.501,1147.31 350.31,1147.48ZM365.055,1150.54C365,1150.48 364.922,1150.45 364.841,1150.45C364.768,1150.45 364.699,1150.47 364.645,1150.52L364.394,1150.75C364.334,1150.81 364.3,1150.88 364.3,1150.96C364.3,1151.04 364.327,1151.11 364.376,1151.16L372.885,1160.48C372.94,1160.54 373.018,1160.57 373.099,1160.57C373.172,1160.57 373.241,1160.55 373.295,1160.5L373.546,1160.27C373.606,1160.21 373.64,1160.14 373.64,1160.06C373.64,1159.98 373.613,1159.91 373.565,1159.86L365.055,1150.54ZM368.172,1167.65C368.307,1167.41 368.221,1167.1 367.983,1166.97L361.02,1163.03C360.945,1162.98 360.86,1162.96 360.773,1162.96C360.594,1162.96 360.427,1163.06 360.338,1163.21L360.329,1163.23C360.193,1163.47 360.279,1163.78 360.517,1163.91L367.48,1167.85C367.555,1167.9 367.64,1167.92 367.727,1167.92C367.906,1167.92 368.073,1167.82 368.162,1167.66L368.172,1167.65Z" style="fill:rgb(1,1,1);fill-rule:nonzero;"/>
        <g transform="matrix(-0.950516,-0.310676,0.310676,-0.950516,378.58,899.33)">
            <ellipse cx="0" cy="0" rx="2.83" ry="0.57" style="fill:rgb(114,171,157);"/>
        </g>
        <path d="M423.33,914.55C423.356,914.573 423.37,914.606 423.37,914.64C423.37,914.706 423.316,914.76 423.25,914.76C423.221,914.76 423.192,914.75 423.17,914.73C416.39,909.63 411.53,905.27 402.5,904.62C402.317,904.615 402.17,904.463 402.17,904.28L402.17,904.27C402.175,904.1 402.31,903.96 402.48,903.95C410.01,903.49 418.59,909.15 423.33,914.55Z" style="fill:white;fill-rule:nonzero;"/>
        <g transform="matrix(0.880477,-0.474088,0.474088,0.880477,345.19,907.8)">
            <path d="M7.68,-0.01L7.68,0.01C7.68,0.142 7.572,0.25 7.44,0.25L-7.44,0.25C-7.572,0.25 -7.68,0.142 -7.68,0.01L-7.68,-0.01C-7.68,-0.142 -7.572,-0.25 -7.44,-0.25L7.44,-0.25C7.572,-0.25 7.68,-0.142 7.68,-0.01Z" style="fill:white;"/>
        </g>
        <circle cx="365.64" cy="905.39" r="0.5" style="fill:rgb(114,171,157);"/>
        <g transform="matrix(-0.932954,-0.359997,0.359997,-0.932954,370.89,905.98)">
            <ellipse cx="0" cy="0" rx="1.38" ry="0.85" style="fill:rgb(114,171,157);"/>
        </g>
        <circle cx="395.87" cy="908.19" r="0.46" style="fill:white;"/>
        <g transform="matrix(-0.748956,-0.66262,0.66262,-0.748956,385.69,909.13)">
            <ellipse cx="0" cy="0" rx="1.2" ry="0.37" style="fill:rgb(114,171,157);"/>
        </g>
        <path d="M338.63,917.37C342.4,914.7 346.88,911.87 351.2,910.88C351.204,910.88 351.208,910.879 351.212,910.879C351.283,910.879 351.342,910.938 351.342,911.009C351.342,911.054 351.318,911.096 351.28,911.12C346.327,913.54 342.277,915.863 339.13,918.09C335.983,920.31 332.44,923.347 328.5,927.2C328.479,927.213 328.455,927.221 328.43,927.221C328.358,927.221 328.3,927.162 328.3,927.091C328.3,927.073 328.303,927.056 328.31,927.04C330.68,923.31 334.86,920.03 338.63,917.37Z" style="fill:white;fill-rule:nonzero;"/>
        <path d="M388.96,915.51C388.799,915.18 388.859,914.787 389.11,914.53C389.71,913.903 390.097,913.15 390.27,912.27C390.372,911.735 390.845,911.344 391.39,911.344C391.47,911.344 391.551,911.353 391.63,911.37L392.92,911.66C393.354,911.76 393.664,912.15 393.664,912.595C393.664,912.746 393.628,912.895 393.56,913.03C392.82,914.477 393.377,915.727 395.23,916.78C395.636,917.008 395.841,917.484 395.73,917.94C395.223,920.067 395.56,921.6 396.74,922.54C399.84,924.993 401.9,926.427 402.92,926.84C406.05,928.11 412.79,930.84 416.24,933.4C419.8,936.033 423.417,939.64 427.09,944.22C427.394,944.598 427.449,945.123 427.23,945.56C427.143,945.733 427.093,945.903 427.08,946.07C427.048,946.481 427.178,946.887 427.44,947.2C440.64,962.83 447.94,982.31 452.07,1002.27C454.43,1013.66 453.28,1026.19 450.78,1037.43C446.41,1057.08 434.48,1076.57 416.42,1086.19C401.99,1093.87 387.11,1092.02 371.99,1087.19C354.777,1081.7 340.89,1071.78 330.33,1057.45C330.038,1057.06 329.562,1056.85 329.08,1056.9L328.6,1056.94C328.096,1056.99 327.598,1056.8 327.26,1056.42C323.81,1052.63 318.35,1051.92 315.27,1056.32C314.683,1057.16 314.307,1057.67 314.14,1057.85C313.926,1058.09 313.578,1058.16 313.29,1058.03C308.81,1055.95 305.393,1052.91 303.04,1048.9C299.12,1042.24 298.5,1032.23 306.04,1027.92C310.59,1025.32 313.86,1027.72 317.39,1030.5C317.994,1030.97 318.844,1030.99 319.47,1030.55C321.22,1029.32 321.76,1027.87 321.99,1025.55C325.11,994.19 334.34,962.26 359.26,940.92C359.272,940.909 359.285,940.899 359.298,940.889C359.562,940.693 359.944,940.753 360.143,941.021C360.153,941.034 360.162,941.047 360.17,941.06C360.99,942.373 362.04,942.42 363.32,941.2C369.913,934.953 375.027,930.57 378.66,928.05C380.46,926.81 383.07,927.3 384.92,926.47C388.28,924.977 390.16,922.533 390.56,919.14C390.593,918.873 390.544,918.601 390.42,918.36L388.96,915.51ZM409.32,971.7C404.68,972.16 400.56,974.023 396.96,977.29C396.082,978.086 395.888,979.405 396.5,980.42C397.66,982.37 399.26,981.62 400.95,980.58C404.057,978.647 407.03,977.537 409.87,977.25C412.723,976.97 415.86,977.47 419.28,978.75C421.14,979.45 422.86,979.87 423.62,977.73C424.026,976.61 423.574,975.348 422.55,974.74C418.377,972.247 413.967,971.233 409.32,971.7ZM345.23,991.55C341.37,993.943 338.357,997.813 336.19,1003.16C335.59,1004.63 335.92,1005.72 337.18,1006.44C338.219,1007.03 339.557,1006.68 340.16,1005.65C342.38,1001.87 344.16,998.85 348.2,996.34C352.24,993.84 355.74,993.6 360.12,993.31C361.307,993.225 362.219,992.183 362.15,990.99C362.07,989.537 361.24,988.75 359.66,988.63C353.907,988.19 349.097,989.163 345.23,991.55ZM427.39,998.4C429.03,996.65 431.6,995.19 432.62,992.78C432.734,992.504 432.764,992.201 432.707,991.907C432.547,991.094 431.752,990.556 430.944,990.714C430.651,990.772 430.381,990.917 430.17,991.13L424.94,996.36C424.463,996.838 423.727,996.963 423.11,996.67C415.27,992.93 407.13,996.45 403.46,1003.95C403.356,1004.16 403.311,1004.39 403.33,1004.62C403.403,1005.47 403.847,1006.05 404.66,1006.36C405.199,1006.56 405.813,1006.39 406.17,1005.93L409.08,1002.21C409.253,1001.98 409.454,1001.78 409.68,1001.61C415.89,996.78 421.62,998.74 427.17,1003.65C427.356,1003.82 427.597,1003.91 427.846,1003.91C428.165,1003.91 428.467,1003.75 428.66,1003.5C430.13,1001.56 432.94,1001.07 435.33,999.6C436.039,999.163 436.298,998.243 435.92,997.5L435.88,997.4C435.878,997.396 435.876,997.392 435.874,997.388C435.506,996.64 434.591,996.325 433.848,996.691C433.842,996.694 433.836,996.697 433.83,996.7L428.26,999.56C428.124,999.633 427.969,999.66 427.818,999.639C427.421,999.583 427.141,999.207 427.198,998.805C427.219,998.653 427.286,998.512 427.39,998.4ZM345.66,1020.34C345.576,1020.7 345.265,1020.96 344.9,1020.98L337.54,1021.36C337.021,1021.38 336.608,1021.82 336.608,1022.34C336.608,1022.51 336.654,1022.68 336.74,1022.83L337.04,1023.35C337.463,1024.08 338.264,1024.51 339.11,1024.47L344.77,1024.19C345.091,1024.17 345.392,1024.35 345.53,1024.64C345.683,1024.96 345.927,1025.24 346.26,1025.49C346.464,1025.64 346.711,1025.72 346.964,1025.72C347.496,1025.72 347.967,1025.36 348.11,1024.85C348.81,1022.33 349.35,1020.57 350.88,1018.79C355.14,1013.84 360.357,1013.22 366.53,1016.93C366.767,1017.07 367.039,1017.15 367.316,1017.15C368.044,1017.15 368.675,1016.63 368.81,1015.91L368.82,1015.83C369.05,1014.61 368.432,1013.38 367.32,1012.84C359.667,1009.11 353.173,1010.22 347.84,1016.16C347.464,1016.59 346.884,1016.77 346.33,1016.65L339.07,1015.03C338.962,1015.01 338.853,1015 338.743,1015C337.903,1015 337.213,1015.69 337.213,1016.52C337.213,1017.01 337.446,1017.47 337.84,1017.76C339.71,1019.1 343.07,1019.15 345.28,1019.36C345.546,1019.38 345.752,1019.61 345.752,1019.88C345.752,1019.92 345.748,1019.95 345.74,1019.99L345.66,1020.34ZM391.64,1038.82C381.673,1041.48 371.72,1042.73 361.78,1042.57C360.569,1042.55 359.549,1043.51 359.49,1044.72C359.41,1046.14 359.68,1047.57 360.3,1049C367.01,1064.47 383.1,1076.28 400.4,1071.67C417.7,1067.05 425.78,1048.8 423.89,1032.04C423.717,1030.49 423.24,1029.12 422.46,1027.93C421.806,1026.92 420.449,1026.6 419.41,1027.21C410.87,1032.29 401.613,1036.16 391.64,1038.82Z" style="fill:white;fill-rule:nonzero;"/>
        <path d="M418.06,919.48C415.57,917.59 413.11,916.22 411.1,914.47C411.05,914.437 411.02,914.38 411.02,914.32C411.02,914.221 411.101,914.14 411.2,914.14C411.236,914.14 411.27,914.15 411.3,914.17C414.067,915.53 416.527,917.03 418.68,918.67C420.827,920.303 422.923,922.273 424.97,924.58C424.997,924.612 425.012,924.653 425.012,924.695C425.012,924.794 424.93,924.875 424.832,924.875C424.799,924.875 424.768,924.866 424.74,924.85C422.52,923.38 420.54,921.37 418.06,919.48Z" style="fill:white;fill-rule:nonzero;"/>
        <path d="M365.46,921.16C366.92,920.287 367.717,919.96 367.85,920.18C367.99,920.42 367.33,920.977 365.87,921.85C364.41,922.723 363.613,923.047 363.48,922.82C363.333,922.587 363.993,922.033 365.46,921.16Z" style="fill:white;fill-rule:nonzero;"/>
        <g transform="matrix(0.596225,-0.802817,0.802817,0.596225,383.55,922)">
            <ellipse cx="0" cy="0" rx="0.82" ry="0.69" style="fill:rgb(114,171,157);"/>
        </g>
        <path d="M410.68,925.11L410.61,925.27C410.61,925.271 410.609,925.272 410.609,925.273C410.443,925.65 408.864,925.324 407.113,924.551C407.112,924.551 407.111,924.55 407.11,924.55L406.67,924.35C404.926,923.58 403.624,922.639 403.78,922.26L403.85,922.1L410.68,925.11Z" style="fill:white;fill-rule:nonzero;"/>
        <path d="M341.7,930.12C345.473,927.12 349.033,924.817 352.38,923.21C352.424,923.189 352.472,923.179 352.521,923.179C352.695,923.179 352.84,923.316 352.85,923.49C352.843,923.543 352.77,923.617 352.63,923.71C348.817,926.17 345.403,928.597 342.39,930.99C339.383,933.383 336.25,936.16 332.99,939.32C332.87,939.433 332.78,939.487 332.72,939.48C332.583,939.437 332.489,939.309 332.489,939.165C332.489,939.091 332.514,939.018 332.56,938.96C334.88,936.067 337.927,933.12 341.7,930.12Z" style="fill:white;fill-rule:nonzero;"/>
        <g transform="matrix(0.862514,-0.506034,0.506034,0.862514,377.02,924.06)">
            <ellipse cx="0" cy="0" rx="2.1" ry="0.4" style="fill:rgb(114,171,157);"/>
        </g>
        <g transform="matrix(-0.776046,-0.630676,0.630676,-0.776046,421.36,931.73)">
            <ellipse cx="0" cy="0" rx="3.13" ry="0.35" style="fill:white;"/>
        </g>
        <g transform="matrix(0.692143,-0.72176,0.72176,0.692143,343.01,945.28)">
            <ellipse cx="0" cy="0" rx="4.56" ry="0.39" style="fill:white;"/>
        </g>
        <g transform="matrix(0.666532,-0.745476,0.745476,0.666532,329.44,947.22)">
            <ellipse cx="0" cy="0" rx="4.75" ry="0.39" style="fill:white;"/>
        </g>
        <path d="M306.77,960.34C308.617,955.147 310.643,950.407 312.85,946.12C313.177,945.487 313.58,944.927 314.06,944.44C314.082,944.419 314.112,944.408 314.142,944.408C314.208,944.408 314.262,944.462 314.262,944.528C314.262,944.546 314.258,944.564 314.25,944.58C311.49,950.833 309.313,956.2 307.72,960.68C306.127,965.16 304.427,970.697 302.62,977.29C302.602,977.336 302.558,977.367 302.508,977.367C302.451,977.367 302.401,977.326 302.39,977.27C302.323,976.597 302.363,975.91 302.51,975.21C303.503,970.49 304.923,965.533 306.77,960.34Z" style="fill:white;fill-rule:nonzero;"/>
        <path d="M313.07,978.71C313.055,978.76 313.008,978.795 312.955,978.795C312.943,978.795 312.931,978.793 312.92,978.79L312.87,978.78C312.206,978.573 313.085,973.619 314.82,967.8L314.92,967.45C316.655,961.63 318.632,957.005 319.3,957.2L319.35,957.21C319.4,957.225 319.435,957.272 319.435,957.325C319.435,957.337 319.433,957.349 319.43,957.36L313.07,978.71Z" style="fill:white;fill-rule:nonzero;"/>
        <g transform="matrix(0.898028,0.439939,-0.439939,0.898028,326.23,972.39)">
            <path d="M0.41,-5.31L0.41,5.31C0.41,5.525 0.235,5.7 0.02,5.7L-0.02,5.7C-0.235,5.7 -0.41,5.525 -0.41,5.31L-0.41,-5.31C-0.41,-5.525 -0.235,-5.7 -0.02,-5.7L0.02,-5.7C0.235,-5.7 0.41,-5.525 0.41,-5.31Z" style="fill:white;"/>
        </g>
        <path d="M409.32,971.7C413.967,971.233 418.377,972.247 422.55,974.74C423.574,975.348 424.026,976.61 423.62,977.73C422.86,979.87 421.14,979.45 419.28,978.75C415.86,977.47 412.723,976.97 409.87,977.25C407.03,977.537 404.057,978.647 400.95,980.58C399.26,981.62 397.66,982.37 396.5,980.42C395.888,979.405 396.082,978.086 396.96,977.29C400.56,974.023 404.68,972.16 409.32,971.7Z" style="fill:rgb(1,1,1);fill-rule:nonzero;"/>
        <path d="M461.9,980.06C461.693,980.12 461.527,979.917 461.4,979.45C460.573,976.423 460.233,974.89 460.38,974.85C460.513,974.81 461.07,976.277 462.05,979.25C462.203,979.717 462.153,979.987 461.9,980.06Z" style="fill:rgb(114,171,157);fill-rule:nonzero;"/>
        <g transform="matrix(0.848048,-0.529919,0.529919,0.848048,456.75,980.88)">
            <ellipse cx="0" cy="0" rx="0.6" ry="0.51" style="fill:rgb(114,171,157);"/>
        </g>
        <path d="M323.8,983.06C323.805,982.976 323.875,982.909 323.96,982.909C323.967,982.909 323.973,982.909 323.98,982.91L324.06,982.92C324.694,982.973 325.132,984.016 325.03,985.229C325.03,985.23 325.01,985.47 325.01,985.47C324.907,986.681 324.303,987.632 323.67,987.58L323.59,987.58C323.506,987.575 323.439,987.505 323.439,987.42C323.439,987.413 323.439,987.407 323.44,987.4L323.8,983.06Z" style="fill:white;fill-rule:nonzero;"/>
        <path d="M458.67,1013.51C458.635,1013.53 458.598,1013.54 458.56,1013.56C458.25,1013.65 457.917,1013.47 457.822,1013.15C457.811,1013.12 457.804,1013.08 457.8,1013.04C457.14,1005.45 455.713,998.127 453.52,991.08C453.319,990.438 453.422,989.737 453.8,989.18C458.47,982.29 466.51,983.91 468.74,991.55C470.9,998.983 469.877,1006.09 465.67,1012.88C465.433,1013.27 464.929,1013.41 464.51,1013.21C462.67,1012.31 460.723,1012.41 458.67,1013.51Z" style="fill:white;fill-rule:nonzero;"/>
        <path d="M345.23,991.55C349.097,989.163 353.907,988.19 359.66,988.63C361.24,988.75 362.07,989.537 362.15,990.99C362.219,992.183 361.307,993.225 360.12,993.31C355.74,993.6 352.24,993.84 348.2,996.34C344.16,998.85 342.38,1001.87 340.16,1005.65C339.557,1006.68 338.219,1007.03 337.18,1006.44C335.92,1005.72 335.59,1004.63 336.19,1003.16C338.357,997.813 341.37,993.943 345.23,991.55Z" style="fill:rgb(1,1,1);fill-rule:nonzero;"/>
        <path d="M427.39,998.4C427.286,998.512 427.219,998.653 427.198,998.805C427.141,999.207 427.421,999.583 427.818,999.639C427.969,999.66 428.124,999.633 428.26,999.56L433.83,996.7C433.836,996.697 433.842,996.694 433.848,996.691C434.591,996.325 435.506,996.64 435.874,997.388C435.876,997.392 435.878,997.396 435.88,997.4L435.92,997.5C436.298,998.243 436.039,999.163 435.33,999.6C432.94,1001.07 430.13,1001.56 428.66,1003.5C428.467,1003.75 428.165,1003.91 427.846,1003.91C427.597,1003.91 427.356,1003.82 427.17,1003.65C421.62,998.74 415.89,996.78 409.68,1001.61C409.454,1001.78 409.253,1001.98 409.08,1002.21L406.17,1005.93C405.813,1006.39 405.199,1006.56 404.66,1006.36C403.847,1006.05 403.403,1005.47 403.33,1004.62C403.311,1004.39 403.356,1004.16 403.46,1003.95C407.13,996.45 415.27,992.93 423.11,996.67C423.727,996.963 424.463,996.838 424.94,996.36L430.17,991.13C430.381,990.917 430.651,990.772 430.944,990.714C431.752,990.556 432.547,991.094 432.707,991.907C432.764,992.201 432.734,992.504 432.62,992.78C431.6,995.19 429.03,996.65 427.39,998.4Z" style="fill:rgb(1,1,1);fill-rule:nonzero;"/>
        <path d="M309.52,994.17C309.34,994.01 309.313,993.767 309.44,993.44C309.48,993.335 309.581,993.266 309.692,993.266C309.827,993.266 309.942,993.367 309.96,993.5C309.98,993.66 309.95,993.853 309.87,994.08C309.866,994.095 309.859,994.11 309.851,994.123C309.794,994.223 309.661,994.256 309.556,994.196C309.543,994.188 309.531,994.18 309.52,994.17Z" style="fill:rgb(114,171,157);fill-rule:nonzero;"/>
        <path d="M296.02,1027.86C295.931,1027.86 295.86,1027.78 295.86,1027.69C295.86,1027.69 295.86,1027.6 295.86,1027.6C296.094,1012.7 296.44,1000.45 296.627,1000.45C296.628,1000.45 296.629,1000.45 296.63,1000.45L296.85,1000.45C297.033,1000.59 296.993,1012.82 296.76,1027.62L296.76,1027.71C296.755,1027.8 296.68,1027.87 296.59,1027.87C296.587,1027.87 296.583,1027.87 296.58,1027.87L296.02,1027.86Z" style="fill:rgb(114,171,157);fill-rule:nonzero;"/>
        <path d="M305.34,1007.13C305.693,1007.17 305.823,1007.62 305.73,1008.49C304.643,1018.75 303.923,1023.86 303.57,1023.82C303.21,1023.79 303.573,1018.64 304.66,1008.37C304.753,1007.51 304.98,1007.1 305.34,1007.13Z" style="fill:rgb(114,171,157);fill-rule:nonzero;"/>
        <path d="M345.28,1019.36C343.07,1019.15 339.71,1019.1 337.84,1017.76C337.446,1017.47 337.213,1017.01 337.213,1016.52C337.213,1015.69 337.903,1015 338.743,1015C338.853,1015 338.962,1015.01 339.07,1015.03L346.33,1016.65C346.884,1016.77 347.464,1016.59 347.84,1016.16C353.173,1010.22 359.667,1009.11 367.32,1012.84C368.432,1013.38 369.05,1014.61 368.82,1015.83L368.81,1015.91C368.675,1016.63 368.044,1017.15 367.316,1017.15C367.039,1017.15 366.767,1017.07 366.53,1016.93C360.357,1013.22 355.14,1013.84 350.88,1018.79C349.35,1020.57 348.81,1022.33 348.11,1024.85C347.967,1025.36 347.496,1025.72 346.964,1025.72C346.711,1025.72 346.464,1025.64 346.26,1025.49C345.927,1025.24 345.683,1024.96 345.53,1024.64C345.392,1024.35 345.091,1024.17 344.77,1024.19L339.11,1024.47C338.264,1024.51 337.463,1024.08 337.04,1023.35L336.74,1022.83C336.654,1022.68 336.608,1022.51 336.608,1022.34C336.608,1021.82 337.021,1021.38 337.54,1021.36L344.9,1020.98C345.265,1020.96 345.576,1020.7 345.66,1020.34L345.74,1019.99C345.748,1019.95 345.752,1019.92 345.752,1019.88C345.752,1019.61 345.546,1019.38 345.28,1019.36Z" style="fill:rgb(1,1,1);fill-rule:nonzero;"/>
        <g transform="matrix(0.361625,-0.932324,0.932324,0.361625,461.63,1020.37)">
            <ellipse cx="0" cy="0" rx="4.17" ry="3.96" style="fill:white;"/>
        </g>
        <g transform="matrix(0.832921,-0.553392,0.553392,0.832921,310.02,1022.17)">
            <ellipse cx="0" cy="0" rx="1" ry="0.69" style="fill:rgb(114,171,157);"/>
        </g>
        <g transform="matrix(-0.0871557,-0.996195,0.996195,-0.0871557,315.97,1023)">
            <ellipse cx="0" cy="0" rx="1.38" ry="0.89" style="fill:rgb(114,171,157);"/>
        </g>
        <path d="M400.4,1071.67C383.1,1076.28 367.01,1064.47 360.3,1049C359.68,1047.57 359.41,1046.14 359.49,1044.72C359.549,1043.51 360.569,1042.55 361.78,1042.57C371.72,1042.73 381.673,1041.48 391.64,1038.82C401.613,1036.16 410.87,1032.29 419.41,1027.21C420.449,1026.6 421.806,1026.92 422.46,1027.93C423.24,1029.12 423.717,1030.49 423.89,1032.04C425.78,1048.8 417.7,1067.05 400.4,1071.67ZM363.95,1046.91C365.07,1050.03 372.96,1051.27 376.04,1051.53C388.36,1052.57 405.04,1048.16 415.48,1039.98C417.57,1038.35 420.55,1034.62 420,1031.74C419.956,1031.53 419.767,1031.37 419.549,1031.37C419.465,1031.37 419.382,1031.4 419.31,1031.44C402.75,1041.7 383.54,1046.06 364.3,1046.4C364.094,1046.4 363.927,1046.57 363.927,1046.78C363.927,1046.82 363.935,1046.87 363.95,1046.91ZM397.48,1059.3C392.54,1060.77 387.53,1063.04 384.03,1066.61C383.907,1066.73 383.837,1066.9 383.837,1067.07C383.837,1067.37 384.036,1067.62 384.32,1067.7C389.753,1069.21 394.977,1069.21 399.99,1067.71C405.01,1066.22 409.38,1063.35 413.1,1059.11C413.206,1058.99 413.265,1058.84 413.265,1058.68C413.265,1058.37 413.044,1058.1 412.74,1058.04C407.86,1056.97 402.43,1057.82 397.48,1059.3Z" style="fill:rgb(1,1,1);fill-rule:nonzero;"/>
        <g transform="matrix(-0.0627905,-0.998027,0.998027,-0.0627905,473.86,1039.53)">
            <ellipse cx="0" cy="0" rx="10.65" ry="0.63" style="fill:rgb(114,171,157);"/>
        </g>
        <path d="M363.95,1046.91C363.935,1046.87 363.927,1046.82 363.927,1046.78C363.927,1046.57 364.094,1046.4 364.3,1046.4C383.54,1046.06 402.75,1041.7 419.31,1031.44C419.382,1031.4 419.465,1031.37 419.549,1031.37C419.767,1031.37 419.956,1031.53 420,1031.74C420.55,1034.62 417.57,1038.35 415.48,1039.98C405.04,1048.16 388.36,1052.57 376.04,1051.53C372.96,1051.27 365.07,1050.03 363.95,1046.91Z" style="fill:white;fill-rule:nonzero;"/>
        <circle cx="320.96" cy="1061.53" r="4.29" style="fill:white;"/>
        <path d="M304.28,1057.61C304.927,1057.94 305.273,1058.14 305.32,1058.21C305.356,1058.27 305.376,1058.33 305.376,1058.4C305.376,1058.58 305.222,1058.74 305.036,1058.74C305.014,1058.74 304.992,1058.73 304.97,1058.73C304.917,1058.72 304.627,1058.42 304.1,1057.85C304.062,1057.82 304.04,1057.78 304.04,1057.73C304.04,1057.65 304.108,1057.58 304.19,1057.58C304.222,1057.58 304.254,1057.59 304.28,1057.61Z" style="fill:white;fill-rule:nonzero;"/>
        <path d="M399.99,1067.71C394.977,1069.21 389.753,1069.21 384.32,1067.7C384.036,1067.62 383.837,1067.37 383.837,1067.07C383.837,1066.9 383.907,1066.73 384.03,1066.61C387.53,1063.04 392.54,1060.77 397.48,1059.3C402.43,1057.82 407.86,1056.97 412.74,1058.04C413.044,1058.1 413.265,1058.37 413.265,1058.68C413.265,1058.84 413.206,1058.99 413.1,1059.11C409.38,1063.35 405.01,1066.22 399.99,1067.71Z" style="fill:white;fill-rule:nonzero;"/>
        <g transform="matrix(0.999998,-0.00174533,0.00174533,0.999998,474.48,1063.06)">
            <path d="M0.59,-4.38L0.59,4.38C0.59,4.695 0.335,4.95 0.02,4.95L-0.02,4.95C-0.335,4.95 -0.59,4.695 -0.59,4.38L-0.59,-4.38C-0.59,-4.695 -0.335,-4.95 -0.02,-4.95L0.02,-4.95C0.335,-4.95 0.59,-4.695 0.59,-4.38Z" style="fill:rgb(114,171,157);"/>
        </g>
        <g transform="matrix(0.932954,-0.359997,0.359997,0.932954,300.56,1068.55)">
            <path d="M0.39,-6.71L0.39,6.71C0.39,6.914 0.224,7.08 0.02,7.08L-0.02,7.08C-0.224,7.08 -0.39,6.914 -0.39,6.71L-0.39,-6.71C-0.39,-6.914 -0.224,-7.08 -0.02,-7.08L0.02,-7.08C0.224,-7.08 0.39,-6.914 0.39,-6.71Z" style="fill:white;"/>
        </g>
        <g transform="matrix(0.999328,0.0366437,-0.0366437,0.999328,453.55,1078.47)">
            <path d="M0.46,-12.75L0.46,12.75C0.46,12.993 0.263,13.19 0.02,13.19L-0.02,13.19C-0.263,13.19 -0.46,12.993 -0.46,12.75L-0.46,-12.75C-0.46,-12.993 -0.263,-13.19 -0.02,-13.19L0.02,-13.19C0.263,-13.19 0.46,-12.993 0.46,-12.75Z" style="fill:white;"/>
        </g>
        <g transform="matrix(0.509041,-0.860742,0.860742,0.509041,442.53,1068.42)">
            <ellipse cx="0" cy="0" rx="0.49" ry="0.29" style="fill:rgb(114,171,157);"/>
        </g>
        <g transform="matrix(-0.793353,-0.608761,0.608761,-0.793353,317.97,1069.64)">
            <ellipse cx="0" cy="0" rx="1.01" ry="0.43" style="fill:white;"/>
        </g>
        <g transform="matrix(-0.582123,-0.813101,0.813101,-0.582123,309.86,1070.68)">
            <ellipse cx="0" cy="0" rx="1.42" ry="0.39" style="fill:white;"/>
        </g>
        <g transform="matrix(0.999657,0.0261769,-0.0261769,0.999657,462.73,1080.82)">
            <path d="M0.38,-8.51L0.38,8.51C0.38,8.709 0.219,8.87 0.02,8.87L-0.02,8.87C-0.219,8.87 -0.38,8.709 -0.38,8.51L-0.38,-8.51C-0.38,-8.709 -0.219,-8.87 -0.02,-8.87L0.02,-8.87C0.219,-8.87 0.38,-8.709 0.38,-8.51Z" style="fill:white;"/>
        </g>
        <path d="M472.2,1099.56C471.013,1094.17 470.433,1089.35 470.46,1085.1C470.46,1085.1 470.46,1085.1 470.46,1085.1C470.46,1084.89 470.627,1084.73 470.83,1084.73C470.882,1084.73 470.933,1084.74 470.98,1084.76C471.033,1084.79 471.073,1084.91 471.1,1085.1C471.72,1090.26 472.503,1094.99 473.45,1099.29C474.397,1103.59 475.677,1108.21 477.29,1113.15C477.343,1113.34 477.353,1113.45 477.32,1113.5C477.25,1113.58 477.147,1113.63 477.038,1113.63C476.892,1113.63 476.759,1113.54 476.7,1113.41C474.893,1109.57 473.393,1104.95 472.2,1099.56Z" style="fill:white;fill-rule:nonzero;"/>
        <g transform="matrix(-0.615661,-0.788011,0.788011,-0.615661,339.65,1086.91)">
            <ellipse cx="0" cy="0" rx="1.68" ry="0.28" style="fill:rgb(114,171,157);"/>
        </g>
        <path d="M381.02,1095.04C381.017,1095.02 381.017,1094.99 381.018,1094.97C381.033,1094.76 381.221,1094.61 381.434,1094.62C381.456,1094.62 381.478,1094.62 381.5,1094.63C396.64,1098.49 410.587,1096.13 423.34,1087.55C423.384,1087.52 423.431,1087.5 423.481,1087.48C423.788,1087.38 424.126,1087.55 424.23,1087.86C424.247,1087.91 424.257,1087.97 424.26,1088.02C424.74,1096.51 425.873,1104.73 427.66,1112.68C428.627,1116.99 431.053,1120.12 434.94,1122.07C435.451,1122.33 435.696,1122.93 435.51,1123.47C433.263,1130.02 428.95,1134.84 422.57,1137.94C409.323,1144.37 396.213,1144.11 383.24,1137.16C381.447,1136.21 380.23,1135.32 379.59,1134.49C379.51,1134.39 379.443,1134.28 379.39,1134.16L372.73,1117.95C372.624,1117.68 372.748,1117.37 373.01,1117.25C381.1,1113.43 381.98,1102.89 381.02,1095.04Z" style="fill:white;fill-rule:nonzero;"/>
        <path d="M437.43,1103.85L437.23,1103.86C436.792,1103.85 436.324,1100.54 436.19,1096.5L436.17,1096.16C436.17,1096.16 436.17,1096.15 436.17,1096.15C436.035,1092.1 436.286,1088.76 436.724,1088.74C436.726,1088.74 436.93,1088.74 436.93,1088.74L437.43,1103.85Z" style="fill:white;fill-rule:nonzero;"/>
        <g transform="matrix(-0.560639,-0.82806,0.82806,-0.560639,359.07,1097.92)">
            <ellipse cx="0" cy="0" rx="1.21" ry="0.4" style="fill:white;"/>
        </g>
        <g transform="matrix(0.995884,-0.0906326,0.0906326,0.995884,452.66,1108.4)">
            <path d="M0.54,-9.85L0.54,9.85C0.54,10.137 0.307,10.37 0.02,10.37L-0.02,10.37C-0.307,10.37 -0.54,10.137 -0.54,9.85L-0.54,-9.85C-0.54,-10.137 -0.307,-10.37 -0.02,-10.37L0.02,-10.37C0.307,-10.37 0.54,-10.137 0.54,-9.85Z" style="fill:white;"/>
        </g>
        <g transform="matrix(-0.447759,-0.894154,0.894154,-0.447759,326.49,1108.07)">
            <ellipse cx="0" cy="0" rx="2.67" ry="0.39" style="fill:rgb(114,171,157);"/>
        </g>
        <path d="M312.47,1120.07C312.07,1117.84 311.69,1113.21 312.78,1110.59C312.835,1110.47 312.956,1110.39 313.09,1110.39C313.277,1110.39 313.43,1110.54 313.43,1110.73C313.43,1110.73 313.43,1110.73 313.43,1110.73C313.36,1113.8 313.3,1117.03 313.79,1119.84C314.28,1122.65 315.45,1125.66 316.56,1128.52C316.581,1128.57 316.591,1128.61 316.591,1128.66C316.591,1128.85 316.438,1129 316.251,1129C316.15,1129 316.055,1128.96 315.99,1128.88C314.07,1126.79 312.86,1122.3 312.47,1120.07Z" style="fill:rgb(114,171,157);fill-rule:nonzero;"/>
        <path d="M321.58,1110.64C321.72,1110.57 321.9,1110.6 322.12,1110.71C322.36,1110.84 322.443,1111.03 322.37,1111.3C322.28,1111.63 321.66,1111.65 321.46,1111.42C321.447,1111.4 321.435,1111.39 321.424,1111.37C321.265,1111.13 321.311,1110.81 321.527,1110.67C321.544,1110.66 321.562,1110.65 321.58,1110.64Z" style="fill:rgb(114,171,157);fill-rule:nonzero;"/>
        <g transform="matrix(0.948876,-0.315649,0.315649,0.948876,349.76,1116.34)">
            <path d="M0.61,-2.46L0.61,2.46C0.61,2.78 0.35,3.04 0.03,3.04L-0.03,3.04C-0.35,3.04 -0.61,2.78 -0.61,2.46L-0.61,-2.46C-0.61,-2.78 -0.35,-3.04 -0.03,-3.04L0.03,-3.04C0.35,-3.04 0.61,-2.78 0.61,-2.46Z" style="fill:white;"/>
        </g>
        <g transform="matrix(0.876307,-0.481754,0.481754,0.876307,338.55,1117.86)">
            <path d="M0.57,-4.02L0.57,4.02C0.57,4.324 0.324,4.57 0.02,4.57L-0.02,4.57C-0.324,4.57 -0.57,4.324 -0.57,4.02L-0.57,-4.02C-0.57,-4.324 -0.324,-4.57 -0.02,-4.57L0.02,-4.57C0.324,-4.57 0.57,-4.324 0.57,-4.02Z" style="fill:white;"/>
        </g>
        <g transform="matrix(0.893371,-0.449319,0.449319,0.893371,322.89,1124.17)">
            <path d="M0.61,-2.1L0.61,2.1C0.61,2.42 0.35,2.68 0.03,2.68L-0.03,2.68C-0.35,2.68 -0.61,2.42 -0.61,2.1L-0.61,-2.1C-0.61,-2.42 -0.35,-2.68 -0.03,-2.68L0.03,-2.68C0.35,-2.68 0.61,-2.42 0.61,-2.1Z" style="fill:rgb(114,171,157);"/>
        </g>
        <g transform="matrix(0.951057,-0.309017,0.309017,0.951057,352.62,1126.44)">
            <path d="M0.39,-3.42L0.39,3.42C0.39,3.63 0.22,3.8 0.01,3.8L-0.01,3.8C-0.22,3.8 -0.39,3.63 -0.39,3.42L-0.39,-3.42C-0.39,-3.63 -0.22,-3.8 -0.01,-3.8L0.01,-3.8C0.22,-3.8 0.39,-3.63 0.39,-3.42Z" style="fill:rgb(114,171,157);"/>
        </g>
        <path d="M457.71,1254.61C457.497,1255.16 456.863,1255.46 455.81,1255.51C429.55,1256.81 400.6,1260 376.75,1258.55C367.603,1258 358.437,1257.46 349.25,1256.92C343.123,1256.57 335.857,1255.54 327.45,1253.85C328.303,1241.07 330.11,1228.74 332.87,1216.85C332.988,1216.36 333.409,1215.99 333.91,1215.95C336.66,1215.71 337.52,1214.39 338.12,1211.64C340.02,1202.91 341.753,1194.46 343.32,1186.27C343.501,1185.29 342.876,1184.33 341.91,1184.1L341.84,1184.08C341.702,1184.05 341.561,1184.03 341.418,1184.03C340.606,1184.03 339.897,1184.6 339.72,1185.39L334.01,1210.84C333.889,1211.37 333.393,1211.74 332.85,1211.7C319.017,1210.61 305.92,1206.44 293.56,1199.21C293.145,1198.96 292.937,1198.47 293.05,1198C296.143,1185.05 300.467,1172.74 306.02,1161.05C310.113,1152.43 315.357,1144.5 321.75,1137.27C323.65,1135.12 325.93,1133.19 328.59,1131.5C328.593,1131.5 328.597,1131.5 328.6,1131.49C328.839,1131.35 329.158,1131.43 329.306,1131.67C329.307,1131.67 329.309,1131.68 329.31,1131.68C335.317,1142.31 342.783,1152.01 351.71,1160.78C355.637,1164.63 360.477,1167.96 366.23,1170.77C367.983,1171.62 369.633,1171.6 371.18,1170.7C371.827,1170.33 372.293,1170.06 372.58,1169.89C372.924,1169.69 373.349,1169.68 373.71,1169.86L376.93,1171.45C376.943,1171.46 376.956,1171.46 376.969,1171.47C377.78,1171.85 378.755,1171.49 379.13,1170.69C379.137,1170.67 379.143,1170.65 379.15,1170.64L379.16,1170.6C379.162,1170.6 379.164,1170.59 379.167,1170.59C379.565,1169.74 379.203,1168.72 378.365,1168.33C378.36,1168.33 378.355,1168.32 378.35,1168.32L374.57,1166.59C374.28,1166.45 374.088,1166.17 374.07,1165.85L374.06,1165.6C374.06,1165.59 374.059,1165.58 374.059,1165.58C374.059,1165.32 374.267,1165.12 374.519,1165.12C374.571,1165.12 374.622,1165.12 374.67,1165.14C376.07,1165.65 377.437,1165.7 378.77,1165.31C380.93,1164.67 381.29,1163.14 380,1161.53C379.6,1161.03 379.343,1160.63 379.23,1160.32C379.213,1160.28 379.205,1160.23 379.205,1160.18C379.205,1159.96 379.385,1159.78 379.605,1159.78C379.712,1159.78 379.815,1159.82 379.89,1159.9L382.82,1162.83C383.094,1163.11 383.467,1163.26 383.855,1163.26C384.243,1163.26 384.616,1163.11 384.89,1162.83L385.16,1162.57C385.72,1162 385.835,1161.13 385.44,1160.44L379.49,1150.15C379.457,1150.09 379.439,1150.02 379.439,1149.95C379.439,1149.74 379.62,1149.56 379.839,1149.56C379.944,1149.56 380.045,1149.6 380.12,1149.67C384.027,1153.75 388.617,1156.55 393.89,1158.08C394.979,1158.4 396.145,1157.84 396.58,1156.8L396.74,1156.41C396.812,1156.24 396.849,1156.06 396.849,1155.87C396.849,1155.17 396.317,1154.57 395.62,1154.49C392.5,1154.1 390.543,1153.34 389.75,1152.23C387.79,1149.49 386.033,1146.46 384.48,1143.13C384.463,1143.09 384.454,1143.05 384.454,1143.01C384.454,1142.87 384.576,1142.74 384.724,1142.74C384.764,1142.74 384.804,1142.75 384.84,1142.77C404.31,1151.64 430.29,1146.71 439.56,1125.55C439.579,1125.5 439.609,1125.46 439.648,1125.43C439.785,1125.31 439.998,1125.33 440.12,1125.47C440.152,1125.51 440.176,1125.55 440.19,1125.6C442.53,1134.15 443.78,1143.05 439.89,1151.02C439.89,1151.02 439.89,1151.02 439.889,1151.02C439.521,1151.79 439.807,1152.7 440.524,1153.05C440.526,1153.05 440.528,1153.05 440.53,1153.05C441.05,1153.3 441.533,1153.19 441.98,1152.72C444.61,1149.91 445.29,1146.25 445.78,1142.06C445.783,1141.85 445.958,1141.67 446.17,1141.67C446.384,1141.67 446.56,1141.85 446.56,1142.07C446.56,1142.07 446.56,1142.07 446.56,1142.07C446.887,1146.27 446.13,1150.94 444.29,1156.09C444.278,1156.12 444.267,1156.16 444.257,1156.19C444.033,1157 444.509,1157.85 445.313,1158.07C445.348,1158.08 445.384,1158.09 445.42,1158.1L445.49,1158.11C446.478,1158.32 447.48,1157.76 447.81,1156.8L450.46,1149.22C450.506,1149.09 450.626,1149.01 450.761,1149.01C450.936,1149.01 451.081,1149.15 451.081,1149.33C451.081,1149.34 451.08,1149.34 451.08,1149.35C450.787,1153.38 449.37,1157.07 446.83,1160.43C446.631,1160.69 446.523,1161.02 446.523,1161.35C446.523,1161.96 446.894,1162.52 447.46,1162.75L447.87,1162.92C448.513,1163.18 449.257,1162.99 449.68,1162.44C452.987,1158.15 455.2,1153.44 456.32,1148.29C457.567,1142.58 458.5,1137.87 459.12,1134.15C459.173,1133.88 459.413,1133.68 459.689,1133.68C459.928,1133.68 460.143,1133.83 460.23,1134.05C460.557,1134.93 460.733,1135.38 460.76,1135.41C460.827,1135.49 460.9,1135.56 460.98,1135.63C461.793,1136.39 462.51,1136.13 463.13,1134.86C463.136,1134.85 463.143,1134.83 463.15,1134.82C463.38,1134.39 463.928,1134.23 464.363,1134.46C464.376,1134.47 464.388,1134.47 464.4,1134.48C474.833,1140.69 482.21,1149.6 486.53,1161.22C490.797,1172.69 493.703,1184.75 495.25,1197.4C495.308,1197.9 495.037,1198.38 494.58,1198.59C485.16,1202.87 475.287,1205.81 464.96,1207.41C464.93,1207.41 464.9,1207.42 464.87,1207.42C464.571,1207.42 464.322,1207.18 464.31,1206.88L463.32,1187.6C463.278,1186.78 462.588,1186.12 461.762,1186.12C461.616,1186.12 461.47,1186.14 461.33,1186.18L461.23,1186.21C460.195,1186.48 459.482,1187.44 459.53,1188.51C460.237,1204.65 460.293,1218.4 459.7,1229.75C459.487,1233.96 458.823,1242.24 457.71,1254.61Z" style="fill:rgb(114,171,157);fill-rule:nonzero;"/>
        <g transform="matrix(0.827081,-0.562083,0.562083,0.827081,351.23,1138.96)">
            <path d="M0.41,-8.58L0.41,8.58C0.41,8.729 0.289,8.85 0.14,8.85L-0.14,8.85C-0.289,8.85 -0.41,8.729 -0.41,8.58L-0.41,-8.58C-0.41,-8.729 -0.289,-8.85 -0.14,-8.85L0.14,-8.85C0.289,-8.85 0.41,-8.729 0.41,-8.58Z" style="fill:rgb(114,171,157);"/>
        </g>
        <g transform="matrix(-0.660002,-0.751264,0.751264,-0.660002,485.47,1140.84)">
            <ellipse cx="0" cy="0" rx="3.24" ry="0.48" style="fill:rgb(114,171,157);"/>
        </g>
        <path d="M376.34,1139.06C376.333,1139.04 376.329,1139.02 376.329,1139C376.329,1138.9 376.41,1138.82 376.509,1138.82C376.57,1138.82 376.627,1138.85 376.66,1138.9C376.767,1139.08 376.793,1139.23 376.74,1139.35C376.718,1139.41 376.662,1139.45 376.6,1139.45C376.538,1139.45 376.482,1139.41 376.46,1139.35L376.34,1139.06Z" style="fill:rgb(114,171,157);fill-rule:nonzero;"/>
        <path d="M380.35,1144.59C380.11,1144.76 379.843,1144.62 379.55,1144.17C377.67,1141.32 376.79,1139.85 376.91,1139.76C377.05,1139.67 378.133,1141 380.16,1143.75C380.473,1144.18 380.537,1144.46 380.35,1144.59Z" style="fill:rgb(114,171,157);fill-rule:nonzero;"/>
        <g transform="matrix(-0.698415,-0.715693,0.715693,-0.698415,481.97,1144.44)">
            <ellipse cx="0" cy="0" rx="2.06" ry="0.55" style="fill:rgb(114,171,157);"/>
        </g>
        <g transform="matrix(-0.656059,-0.75471,0.75471,-0.656059,354.85,1152.7)">
            <ellipse cx="0" cy="0" rx="6.92" ry="0.46" style="fill:rgb(114,171,157);"/>
        </g>
        <g transform="matrix(0.738455,-0.674302,0.674302,0.738455,368.97,1155.51)">
            <path d="M0.46,-6.31L0.46,6.31C0.46,6.47 0.33,6.6 0.17,6.6L-0.17,6.6C-0.33,6.6 -0.46,6.47 -0.46,6.31L-0.46,-6.31C-0.46,-6.47 -0.33,-6.6 -0.17,-6.6L0.17,-6.6C0.33,-6.6 0.46,-6.47 0.46,-6.31Z" style="fill:rgb(114,171,157);"/>
        </g>
        <g transform="matrix(0.870356,0.492424,-0.492424,0.870356,364.25,1165.44)">
            <path d="M4.5,-0.01L4.5,0.01C4.5,0.286 4.276,0.51 4,0.51L-4,0.51C-4.276,0.51 -4.5,0.286 -4.5,0.01L-4.5,-0.01C-4.5,-0.286 -4.276,-0.51 -4,-0.51L4,-0.51C4.276,-0.51 4.5,-0.286 4.5,-0.01Z" style="fill:rgb(114,171,157);"/>
        </g>
        <path d="M489.81,1251.6C480.517,1251.22 471.277,1252.03 462.09,1254.04C463.737,1240.11 464.553,1226.32 464.54,1212.66C464.542,1212.39 464.743,1212.16 465.01,1212.12C472.583,1211.03 480.113,1208.98 487.6,1205.95C487.64,1205.93 487.682,1205.92 487.724,1205.91C488.219,1205.79 488.726,1206.09 488.848,1206.58C488.858,1206.62 488.866,1206.67 488.87,1206.71C490.39,1221.58 491.47,1236.42 489.81,1251.6Z" style="fill:white;fill-rule:nonzero;"/>
        <path d="M323.15,1253.34C312.56,1253.52 301.61,1253.65 291.07,1252.29C292.103,1237.12 294.197,1222.17 297.35,1207.42C297.357,1207.39 297.365,1207.36 297.376,1207.33C297.518,1206.92 297.976,1206.7 298.39,1206.84C298.421,1206.85 298.451,1206.87 298.48,1206.88C307.747,1211.47 317.567,1214.41 327.94,1215.7C328.3,1215.74 328.574,1216.05 328.574,1216.41C328.574,1216.48 328.566,1216.54 328.55,1216.6C325.397,1228.57 323.597,1240.82 323.15,1253.34Z" style="fill:white;fill-rule:nonzero;"/>
    </g>
</svg>
