<?xml version="1.0" encoding="UTF-8" standalone="no"?>
<!DOCTYPE svg PUBLIC "-//W3C//DTD SVG 1.1//EN" "http://www.w3.org/Graphics/SVG/1.1/DTD/svg11.dtd">
<svg width="100%" height="100%" viewBox="0 0 200 356" version="1.1" xmlns="http://www.w3.org/2000/svg" xmlns:xlink="http://www.w3.org/1999/xlink" xml:space="preserve" xmlns:serif="http://www.serif.com/" style="fill-rule:evenodd;clip-rule:evenodd;stroke-linejoin:round;stroke-miterlimit:2;">
    <g transform="matrix(1,0,0,1,-38.52,-898.291)">
        <path d="M236.91,1251.42C237.697,1242.78 238.033,1236.71 237.92,1233.2C237.627,1224.42 236.87,1215.44 235.65,1206.26C235.629,1206.07 235.465,1205.92 235.272,1205.92C235.224,1205.92 235.175,1205.93 235.13,1205.95C227.603,1208.81 219.91,1210.9 212.05,1212.22C211.74,1212.27 211.51,1212.55 211.51,1212.86C211.49,1226.53 210.71,1240.24 209.17,1254L204.7,1255.13C207.187,1232.96 207.747,1211.08 206.38,1189.5C206.313,1188.36 206.57,1187.49 207.15,1186.9C207.226,1186.82 207.309,1186.75 207.396,1186.69C208.157,1186.13 209.17,1186.2 209.641,1186.84C209.696,1186.91 209.743,1186.99 209.78,1187.08C209.933,1187.43 210.033,1187.9 210.08,1188.48C210.527,1194.51 210.82,1200.63 210.96,1206.82C210.96,1206.84 210.962,1206.86 210.964,1206.88C211.006,1207.32 211.397,1207.64 211.828,1207.6C211.849,1207.6 211.869,1207.59 211.89,1207.59C222.003,1205.84 231.987,1202.83 241.84,1198.58C242.281,1198.39 242.537,1197.92 242.46,1197.44C240.38,1184.41 237.9,1172.02 232.85,1159.63C228.17,1148.12 221.62,1140.69 211.47,1134.45C211.138,1134.25 210.701,1134.32 210.46,1134.63L209.45,1135.92C209.249,1136.17 208.942,1136.32 208.619,1136.32C208.191,1136.32 207.804,1136.06 207.64,1135.67L206.86,1133.81C206.793,1133.65 206.636,1133.55 206.463,1133.55C206.256,1133.55 206.077,1133.7 206.04,1133.9C204.07,1144.74 203.02,1153.32 196.68,1162.63C196.244,1163.27 195.414,1163.52 194.7,1163.22L194.21,1163.01C193.64,1162.77 193.267,1162.21 193.267,1161.6C193.267,1161.26 193.377,1160.94 193.58,1160.67C196.033,1157.44 197.49,1153.63 197.95,1149.24C197.953,1149.2 197.942,1149.15 197.919,1149.11C197.858,1149.01 197.726,1148.97 197.627,1149.03C197.587,1149.05 197.557,1149.09 197.54,1149.13L193.98,1157.68C193.731,1158.29 193.042,1158.6 192.42,1158.39L192.08,1158.27C191.371,1158.08 190.875,1157.43 190.875,1156.7C190.875,1156.5 190.91,1156.3 190.98,1156.12C192.66,1151.72 193.543,1146.99 193.63,1141.94C193.638,1141.8 193.536,1141.66 193.39,1141.63L193.13,1141.58C193.092,1141.57 193.052,1141.57 193.013,1141.57C192.755,1141.57 192.532,1141.76 192.49,1142.01C191.68,1146.72 191.47,1149.26 189.13,1152.5C189.094,1152.55 189.055,1152.6 189.013,1152.65C188.429,1153.3 187.456,1153.4 186.858,1152.87C186.817,1152.83 186.777,1152.79 186.74,1152.75C186.333,1152.27 186.263,1151.69 186.53,1151.02C187.137,1149.51 187.627,1148.33 188,1147.5C188.311,1146.81 188.497,1146.07 188.55,1145.31C188.963,1139.6 188.98,1135.72 188.6,1133.65C188.353,1132.33 187.803,1129.66 186.95,1125.64C186.935,1125.58 186.905,1125.52 186.863,1125.47C186.719,1125.3 186.462,1125.27 186.294,1125.41C186.243,1125.45 186.204,1125.51 186.18,1125.57C183.353,1132.62 178.497,1137.97 171.61,1141.63C158.837,1148.42 145.863,1148.91 132.69,1143.1C132.601,1143.06 132.504,1143.04 132.406,1143.04C132.022,1143.04 131.706,1143.36 131.706,1143.74C131.706,1143.86 131.739,1143.98 131.8,1144.09L136.11,1151.56C136.721,1152.61 137.744,1153.36 138.93,1153.63L143.11,1154.56C143.697,1154.69 144.117,1155.22 144.117,1155.82C144.117,1155.99 144.084,1156.15 144.02,1156.31L143.91,1156.58C143.457,1157.66 142.296,1158.28 141.15,1158.05C135.41,1156.9 131.3,1153.54 127.02,1149.47C126.935,1149.38 126.818,1149.33 126.695,1149.33C126.448,1149.33 126.245,1149.53 126.245,1149.78C126.245,1149.87 126.271,1149.96 126.32,1150.03L132.45,1160.65C132.788,1161.24 132.736,1161.97 132.32,1162.5L132.03,1162.88C131.661,1163.35 130.976,1163.43 130.51,1163.07L126.92,1160.26C126.865,1160.22 126.8,1160.2 126.732,1160.2C126.557,1160.2 126.412,1160.34 126.412,1160.52C126.412,1160.57 126.425,1160.62 126.45,1160.67L127.72,1162.87C127.869,1163.13 127.947,1163.42 127.947,1163.72C127.947,1164.45 127.48,1165.1 126.79,1165.34C124.99,1165.95 123.197,1165.98 121.41,1165.43C121.405,1165.43 121.401,1165.43 121.396,1165.43C121.2,1165.38 120.995,1165.5 120.942,1165.7C120.942,1165.7 120.941,1165.71 120.94,1165.71L120.86,1166.09C120.786,1166.4 120.984,1166.72 121.3,1166.8C122.82,1167.19 124.163,1167.7 125.33,1168.32C126.25,1168.81 126.647,1169.9 126.22,1170.78C125.92,1171.4 125.29,1171.68 124.33,1171.63C122.27,1171.5 121.15,1168.42 118.56,1170.57C117.03,1171.83 115.52,1171.79 114.05,1171.2C107.983,1168.77 102.513,1165.07 97.64,1160.09C89.213,1151.48 82.117,1142.01 76.35,1131.67C76.257,1131.5 76.079,1131.4 75.886,1131.4C75.772,1131.4 75.661,1131.43 75.57,1131.5C69.3,1136.31 63.29,1143.46 59.37,1150.13C50.483,1165.26 44.09,1181.44 40.19,1198.65C40.118,1198.97 40.271,1199.29 40.56,1199.44C53.03,1206.09 65.68,1211.06 80,1211.7C80.485,1211.72 80.919,1211.39 81.02,1210.92L86.73,1185.53C86.943,1184.57 87.865,1183.92 88.84,1184.05L88.9,1184.05C89.724,1184.17 90.342,1184.88 90.342,1185.71C90.342,1185.82 90.331,1185.93 90.31,1186.04C88.683,1194.24 86.82,1203.37 84.72,1213.44C84.496,1214.51 83.565,1215.37 82.34,1215.66C81.767,1215.79 81.227,1215.97 80.72,1216.2C80.361,1216.36 80.099,1216.69 80.01,1217.07C77.343,1229.01 75.52,1241.29 74.54,1253.91L70.39,1253.57C70.89,1241.18 72.683,1228.97 75.77,1216.94C75.791,1216.86 75.802,1216.77 75.802,1216.68C75.802,1216.16 75.4,1215.72 74.88,1215.67C64.573,1214.56 54.73,1211.62 45.35,1206.83C45.333,1206.82 45.316,1206.81 45.299,1206.81C45.066,1206.73 44.808,1206.84 44.727,1207.07C44.72,1207.09 44.714,1207.11 44.71,1207.13C41.663,1222.05 39.6,1237.13 38.52,1252.38C37.247,1252.8 36.153,1252.76 35.24,1252.27C34.96,1252.12 34.789,1251.82 34.8,1251.49C35.547,1235.85 37.717,1220.46 41.31,1205.33C41.412,1204.9 41.221,1204.45 40.84,1204.22L37.33,1202.1C36.512,1201.61 36.051,1200.68 36.15,1199.72C36.477,1196.69 37.413,1192.52 38.96,1187.21C42.953,1173.49 48.27,1160.97 54.91,1149.65C57.803,1144.72 60.857,1140.54 64.07,1137.1C64.078,1137.09 64.085,1137.08 64.093,1137.07C64.289,1136.84 64.26,1136.49 64.028,1136.29C64.019,1136.28 64.01,1136.28 64,1136.27C57.79,1131.63 54.78,1122.77 54.94,1115.75C55.053,1110.62 55.11,1107.64 55.11,1106.81C55.1,1097.26 52.03,1089.77 46.88,1079.63C41.087,1068.21 37.693,1056.16 36.7,1043.49C36.267,1037.96 36.35,1031.13 36.95,1023C38.42,1003.18 39.05,986.24 42.56,968.05C44.6,957.48 49.32,947.6 54.8,937.53C60.62,926.83 71.01,917 80.92,909.21C90.053,902.03 100.297,897.733 111.65,896.32C116.05,895.77 119.22,894.14 123.98,894.82C130.05,895.68 131.61,899.23 133.73,904.24C134.29,905.57 135.39,906.43 136.76,906.46C137.119,906.464 137.434,906.217 137.51,905.87C138.61,900.76 139.8,897.72 145.38,896.86C158.19,894.9 169.78,904.01 177.97,912.78C194.23,930.17 206.34,953.82 212.78,976.95C213.067,977.977 213.373,979.54 213.7,981.64C213.758,982.031 213.933,982.396 214.2,982.69L217.29,986.05C217.33,986.09 217.363,986.133 217.39,986.18C220.23,991.04 220.7,995.63 220.81,1000.79C220.83,1001.7 221.15,1003.74 221.77,1006.9C224.51,1020.82 226.093,1035.02 226.52,1049.5C226.8,1058.93 225.92,1071.4 227.06,1081.61C227.7,1087.39 228.55,1092.58 229.61,1097.17C231.76,1106.49 234.37,1116.1 237.41,1124.04C239.76,1130.16 243.89,1139.31 250.68,1140.12C250.744,1140.13 250.807,1140.14 250.869,1140.15C251.585,1140.34 252.019,1141.09 251.829,1141.81C251.814,1141.87 251.794,1141.93 251.77,1141.99L251.56,1142.49C251.239,1143.26 250.461,1143.74 249.64,1143.67C246.13,1143.39 241.11,1140.54 238.53,1139.54C238.479,1139.52 238.424,1139.51 238.369,1139.51C238.122,1139.51 237.919,1139.71 237.919,1139.96C237.919,1139.99 237.923,1140.03 237.93,1140.06C238.597,1142.73 240.7,1144.97 244.24,1146.77C244.304,1146.8 244.366,1146.84 244.425,1146.88C245.149,1147.38 245.332,1148.38 244.832,1149.11C244.792,1149.17 244.748,1149.23 244.7,1149.28L244.64,1149.35C243.837,1150.25 242.517,1150.49 241.45,1149.93L236.81,1147.53C236.568,1147.41 236.291,1147.4 236.05,1147.5L232.7,1148.91C232.694,1148.91 232.687,1148.91 232.681,1148.92C232.486,1149.01 232.401,1149.24 232.492,1149.44C232.495,1149.45 232.497,1149.45 232.5,1149.46C240.42,1164.59 244.67,1181.49 246.67,1198.63C246.758,1199.38 246.46,1200.13 245.88,1200.62C244.14,1202.08 242.217,1203.17 240.11,1203.89C239.699,1204.03 239.442,1204.45 239.5,1204.88C241.58,1219.92 242.8,1235.75 240.76,1251.39C240.698,1251.86 240.3,1252.23 239.82,1252.25C237.967,1252.32 236.997,1252.05 236.91,1251.42ZM122.883,898.47C122.781,898.789 123.891,899.435 125.344,899.901C126.796,900.367 128.075,900.488 128.177,900.17C128.177,900.17 128.177,900.17 128.177,900.17C128.279,899.851 127.169,899.205 125.717,898.739C124.264,898.273 122.985,898.152 122.883,898.47C122.883,898.47 122.883,898.47 122.883,898.47ZM170.27,914.76C165.49,909.27 156.82,903.5 149.19,903.94C149.024,903.955 148.894,904.094 148.89,904.26C148.889,904.441 149.029,904.594 149.21,904.61C158.36,905.31 163.26,909.75 170.1,914.94C170.123,914.962 170.153,914.974 170.185,914.974C170.253,914.974 170.309,914.918 170.309,914.85C170.309,914.816 170.295,914.783 170.27,914.76ZM99.19,904.036C99.144,903.954 99.057,903.903 98.963,903.903C98.918,903.903 98.875,903.914 98.836,903.936L85.65,911.336C85.526,911.405 85.481,911.565 85.551,911.689L85.57,911.724C85.616,911.806 85.703,911.857 85.797,911.857C85.842,911.857 85.885,911.846 85.924,911.824L99.11,904.424C99.234,904.355 99.279,904.195 99.209,904.071L99.19,904.036ZM113.16,905.4C113.06,905.293 112.903,905.22 112.69,905.18C112.679,905.178 112.667,905.177 112.655,905.177C112.551,905.177 112.465,905.263 112.465,905.367C112.465,905.392 112.47,905.417 112.48,905.44C112.587,905.7 112.687,905.843 112.78,905.87C112.836,905.889 112.897,905.894 112.957,905.884C113.135,905.855 113.261,905.702 113.235,905.545C113.227,905.491 113.2,905.44 113.16,905.4ZM116.663,905.556C116.663,905.556 116.663,905.556 116.663,905.556C116.504,905.923 116.94,906.472 117.63,906.77C117.63,906.77 117.63,906.77 117.63,906.77C118.32,907.068 119.018,907.012 119.177,906.644C119.177,906.644 119.177,906.644 119.177,906.644C119.336,906.277 118.9,905.728 118.21,905.43C118.21,905.43 118.21,905.43 118.21,905.43C117.52,905.132 116.822,905.188 116.663,905.556ZM143.49,908.41C143.529,908.354 143.55,908.288 143.55,908.22C143.55,908.042 143.407,907.895 143.23,907.89C142.983,907.87 142.78,907.93 142.62,908.07C142.593,908.094 142.57,908.122 142.551,908.154C142.462,908.305 142.501,908.496 142.638,908.577C142.666,908.593 142.697,908.605 142.73,908.61C143.097,908.657 143.35,908.59 143.49,908.41ZM131.73,908.24C131.596,908.392 131.905,908.888 132.415,909.338C132.926,909.787 133.456,910.032 133.59,909.88C133.724,909.728 133.415,909.232 132.905,908.782C132.394,908.333 131.864,908.088 131.73,908.24ZM85.46,917.6C81.75,920.25 77.63,923.5 75.3,927.2C75.282,927.227 75.274,927.26 75.278,927.294C75.286,927.366 75.347,927.42 75.415,927.413C75.449,927.409 75.48,927.39 75.5,927.36C79.373,923.533 82.863,920.517 85.97,918.31C89.07,916.103 93.063,913.793 97.95,911.38C97.984,911.37 98.011,911.348 98.025,911.317C98.054,911.256 98.024,911.18 97.958,911.149C97.927,911.134 97.892,911.131 97.86,911.14C93.61,912.13 89.18,914.96 85.46,917.6ZM135.9,915.65L137.36,918.49C137.484,918.731 137.533,919.003 137.5,919.27C137.107,922.663 135.233,925.107 131.88,926.6C130.03,927.43 127.42,926.94 125.63,928.18C121.997,930.707 116.89,935.09 110.31,941.33C109.037,942.55 107.987,942.507 107.16,941.2C107.151,941.186 107.142,941.173 107.133,941.16C106.933,940.892 106.551,940.833 106.287,941.03C106.274,941.039 106.262,941.049 106.25,941.06C81.38,962.4 72.19,994.3 69.09,1025.63C68.86,1027.95 68.32,1029.4 66.58,1030.63C65.954,1031.07 65.104,1031.05 64.5,1030.58C60.97,1027.81 57.71,1025.41 53.15,1028.01C45.63,1032.32 46.26,1042.32 50.18,1048.98C52.533,1052.97 55.947,1056.01 60.42,1058.08C60.708,1058.21 61.056,1058.14 61.27,1057.9C61.437,1057.72 61.813,1057.21 62.4,1056.37C65.48,1051.98 70.94,1052.68 74.38,1056.46C74.718,1056.84 75.216,1057.03 75.72,1056.98L76.2,1056.94C76.684,1056.89 77.16,1057.1 77.45,1057.49C88.003,1071.8 101.883,1081.69 119.09,1087.17C134.2,1091.98 149.07,1093.82 163.47,1086.13C181.51,1076.5 193.41,1057.03 197.76,1037.39C200.25,1026.16 201.39,1013.65 199.02,1002.27C194.88,982.34 187.56,962.88 174.37,947.27C174.107,946.956 173.977,946.55 174.01,946.14C174.023,945.973 174.073,945.803 174.16,945.63C174.379,945.193 174.324,944.668 174.02,944.29C170.34,939.723 166.723,936.127 163.17,933.5C159.72,930.95 152.98,928.22 149.85,926.96C148.83,926.547 146.773,925.117 143.68,922.67C142.5,921.73 142.163,920.197 142.67,918.07C142.779,917.619 142.574,917.148 142.17,916.92C140.317,915.86 139.76,914.61 140.5,913.17C140.571,913.033 140.609,912.881 140.609,912.726C140.609,912.279 140.296,911.888 139.86,911.79L138.57,911.51C138.491,911.493 138.41,911.484 138.33,911.484C137.785,911.484 137.312,911.875 137.21,912.41C137.043,913.29 136.657,914.043 136.05,914.67C135.799,914.927 135.739,915.32 135.9,915.65ZM158.13,914.37L171.83,924.99L172.13,924.6C172.132,924.599 172.133,924.597 172.134,924.596C172.289,924.396 169.389,921.884 165.71,919.03L165.42,918.81C161.741,915.956 158.586,913.771 158.43,913.97L158.13,914.37ZM114.547,920.028C114.547,920.028 114.547,920.028 114.547,920.028C114.434,919.852 113.327,920.359 112.095,921.15C110.862,921.941 109.941,922.737 110.053,922.912C110.053,922.912 110.053,922.912 110.053,922.912C110.166,923.088 111.273,922.581 112.505,921.79C113.738,920.999 114.659,920.203 114.547,920.028ZM131.29,922C131.29,921.66 131.01,921.38 130.67,921.38C130.33,921.38 130.05,921.66 130.05,922C130.05,922.34 130.33,922.62 130.67,922.62C131.01,922.62 131.29,922.34 131.29,922ZM157.109,925.609C157.196,925.414 157.108,925.181 156.913,925.093L150.783,922.339C150.588,922.251 150.355,922.339 150.268,922.535L150.251,922.571C150.164,922.766 150.252,922.999 150.447,923.087L156.577,925.841C156.772,925.929 157.005,925.841 157.092,925.646L157.109,925.609ZM125.754,922.952C125.624,922.722 124.582,923.061 123.444,923.702C123.444,923.702 123.444,923.702 123.444,923.702C122.307,924.343 121.477,925.059 121.606,925.288C121.606,925.288 121.606,925.288 121.607,925.288C121.736,925.518 122.778,925.179 123.916,924.538C123.916,924.538 123.916,924.538 123.916,924.538C125.053,923.897 125.883,923.181 125.754,922.952C125.754,922.952 125.754,922.952 125.754,922.952ZM79.32,939.46L99.51,923.28C99.526,923.271 99.536,923.254 99.536,923.236C99.536,923.223 99.53,923.209 99.52,923.2L99.35,922.99C99.349,922.988 99.347,922.985 99.346,922.983C99.102,922.679 94.406,926.031 88.943,930.407C88.942,930.408 88.941,930.409 88.94,930.41L88.59,930.7C83.154,935.055 78.868,938.895 79.07,939.23L79.25,939.45C79.266,939.472 79.298,939.476 79.32,939.46ZM165.969,929.855C165.968,929.855 165.968,929.855 165.968,929.855C165.848,930.005 166.847,931.01 168.181,932.083C169.515,933.155 170.711,933.915 170.832,933.765C170.832,933.765 170.832,933.765 170.832,933.765C170.952,933.615 169.953,932.61 168.619,931.537C167.285,930.465 166.089,929.705 165.969,929.855ZM62.48,934.5C62.627,934.287 62.67,934.103 62.61,933.95C62.604,933.929 62.584,933.915 62.562,933.915C62.555,933.915 62.547,933.917 62.54,933.92C62.5,933.933 62.4,934.073 62.24,934.34C62.226,934.37 62.223,934.404 62.23,934.437C62.247,934.518 62.323,934.571 62.398,934.555C62.431,934.548 62.46,934.528 62.48,934.5ZM93.048,942.292C93.047,942.292 93.047,942.292 93.047,942.292C92.884,942.137 91.401,943.431 89.763,945.158C89.763,945.158 89.763,945.158 89.763,945.158C88.124,946.885 86.91,948.433 87.073,948.588C87.073,948.588 87.073,948.588 87.073,948.588C87.236,948.743 88.719,947.449 90.357,945.722C90.357,945.722 90.357,945.722 90.357,945.722C91.996,943.995 93.21,942.447 93.048,942.292ZM79.54,943.709C79.362,943.554 77.849,944.988 76.187,946.887C74.525,948.785 73.303,950.475 73.48,950.631C73.658,950.786 75.171,949.352 76.833,947.453C78.495,945.555 79.717,943.865 79.54,943.709ZM53.91,960.61C52.083,965.83 50.683,970.81 49.71,975.55C49.563,976.257 49.527,976.947 49.6,977.62C49.611,977.676 49.661,977.717 49.718,977.717C49.768,977.717 49.812,977.686 49.83,977.64C51.61,971.013 53.29,965.45 54.87,960.95C56.443,956.443 58.6,951.047 61.34,944.76C61.344,944.748 61.346,944.736 61.346,944.723C61.346,944.657 61.292,944.603 61.226,944.603C61.198,944.603 61.171,944.613 61.15,944.63C60.67,945.117 60.267,945.68 59.94,946.32C57.747,950.633 55.737,955.397 53.91,960.61ZM60.4,978.49L66.5,957.87C66.503,957.859 66.505,957.847 66.505,957.835C66.505,957.782 66.47,957.735 66.42,957.72L66.36,957.7C66.358,957.699 66.356,957.698 66.353,957.698C65.717,957.509 63.829,961.959 62.171,967.556C62.171,967.557 62.039,968.002 62.039,968.004C60.381,973.6 59.541,978.361 60.177,978.549C60.178,978.549 60.25,978.57 60.25,978.57C60.261,978.573 60.273,978.575 60.285,978.575C60.338,978.575 60.385,978.54 60.4,978.49ZM76.138,967.928C76.164,967.874 76.177,967.814 76.177,967.755C76.177,967.601 76.089,967.46 75.95,967.394L75.914,967.377C75.86,967.351 75.801,967.337 75.741,967.337C75.587,967.337 75.447,967.426 75.38,967.564L70.662,977.413C70.636,977.466 70.623,977.526 70.623,977.585C70.623,977.739 70.711,977.88 70.85,977.946L70.886,977.963C70.94,977.989 70.999,978.003 71.059,978.003C71.213,978.003 71.353,977.914 71.42,977.775L76.138,967.928ZM209.43,980.17C209.643,980.09 209.653,979.807 209.46,979.32C208.207,976.18 207.503,974.64 207.35,974.7C207.217,974.753 207.693,976.377 208.78,979.57C208.947,980.07 209.163,980.27 209.43,980.17ZM204.37,981.32C204.617,981.24 204.803,981.053 204.93,980.76C205.14,980.26 204.32,980.06 204,980.31C203.78,980.483 203.673,980.67 203.68,980.87C203.68,980.895 203.682,980.92 203.686,980.945C203.731,981.21 204.004,981.388 204.291,981.339C204.318,981.335 204.344,981.328 204.37,981.32ZM71.07,983.15L70.57,987.68C70.569,987.687 70.569,987.693 70.569,987.7C70.569,987.779 70.631,987.845 70.71,987.85L70.78,987.85C71.401,987.92 72.011,987.094 72.13,986.02L72.23,985.11C72.23,985.108 72.23,985.106 72.231,985.104C72.349,984.029 71.935,983.089 71.314,983.02C71.313,983.02 71.311,983.02 71.31,983.02L71.24,983.02C71.233,983.019 71.226,983.019 71.219,983.019C71.144,983.019 71.079,983.075 71.07,983.15ZM205.65,1013.38C207.697,1012.31 209.63,1012.22 211.45,1013.13C211.86,1013.33 212.359,1013.19 212.6,1012.81C216.833,1006.1 217.903,999.05 215.81,991.65C213.66,984.04 205.68,982.37 200.99,989.18C200.606,989.73 200.495,990.428 200.69,991.07C202.817,998.083 204.18,1005.36 204.78,1012.91C204.805,1013.21 205.063,1013.45 205.368,1013.45C205.467,1013.45 205.563,1013.43 205.65,1013.38ZM56.69,994.42C56.71,994.443 56.733,994.463 56.759,994.478C56.883,994.55 57.041,994.512 57.11,994.394C57.125,994.368 57.135,994.34 57.14,994.31C57.22,993.897 57.203,993.597 57.09,993.41C57.065,993.373 57.033,993.342 56.996,993.318C56.842,993.222 56.632,993.277 56.53,993.44C56.505,993.48 56.488,993.524 56.48,993.57C56.42,993.91 56.49,994.193 56.69,994.42ZM52.61,1007.05L51.79,1006.97C51.783,1006.97 51.776,1006.97 51.769,1006.97C51.677,1006.97 51.6,1007.04 51.59,1007.13L51.18,1011.34C50.487,1018.41 50.135,1024.25 50.4,1024.3L50.6,1024.32C50.871,1024.3 51.659,1018.51 52.35,1011.46L52.77,1007.25C52.771,1007.24 52.771,1007.24 52.771,1007.23C52.771,1007.14 52.701,1007.06 52.61,1007.05ZM43.23,1027.8L43.87,1027.81C43.965,1027.81 44.045,1027.74 44.05,1027.64L44.06,1026.52C44.196,1016.78 44.138,1008.75 43.93,1008.71L43.69,1008.71C43.689,1008.71 43.689,1008.71 43.688,1008.71C43.48,1008.71 43.196,1016.74 43.06,1026.5L43.05,1027.62C43.05,1027.72 43.131,1027.8 43.23,1027.8ZM212.86,1020.05C212.86,1017.77 210.982,1015.89 208.7,1015.89C206.418,1015.89 204.54,1017.77 204.54,1020.05C204.54,1022.33 206.418,1024.21 208.7,1024.21C210.982,1024.21 212.86,1022.33 212.86,1020.05ZM58.146,1021.58C58.146,1021.58 58.146,1021.58 58.146,1021.58C57.932,1021.33 57.437,1021.39 57.05,1021.72C56.662,1022.06 56.52,1022.53 56.734,1022.78C56.734,1022.78 56.734,1022.78 56.734,1022.78C56.948,1023.03 57.443,1022.97 57.831,1022.64C58.218,1022.3 58.36,1021.83 58.146,1021.58ZM62.25,1022.96C62.29,1023.47 62.58,1023.91 63.12,1024.26C63.201,1024.31 63.294,1024.34 63.39,1024.34C63.6,1024.34 63.788,1024.21 63.86,1024.01C63.92,1023.85 63.93,1023.46 63.89,1022.85C63.843,1022.23 63.78,1021.85 63.7,1021.7C63.614,1021.53 63.442,1021.43 63.256,1021.43C63.136,1021.43 63.021,1021.47 62.93,1021.55C62.443,1021.98 62.217,1022.45 62.25,1022.96ZM220.32,1030.12C220.018,1030.13 220.019,1034.59 220.321,1039.99C220.623,1045.39 221.119,1049.82 221.42,1049.81C221.722,1049.79 221.721,1045.33 221.419,1039.93C221.117,1034.53 220.621,1030.1 220.32,1030.12ZM72.58,1061.51C72.58,1059.05 70.553,1057.02 68.09,1057.02C65.627,1057.02 63.6,1059.05 63.6,1061.51C63.6,1063.97 65.627,1066 68.09,1066C70.553,1066 72.58,1063.97 72.58,1061.51ZM52.33,1058.27C51.837,1057.79 51.447,1057.5 51.16,1057.41C51.132,1057.4 51.103,1057.4 51.074,1057.41C50.972,1057.43 50.903,1057.52 50.921,1057.62C50.927,1057.65 50.94,1057.68 50.96,1057.7C51.413,1058.28 51.787,1058.62 52.08,1058.71C52.104,1058.72 52.128,1058.72 52.153,1058.72C52.296,1058.72 52.413,1058.6 52.413,1058.46C52.413,1058.39 52.383,1058.32 52.33,1058.27ZM221.868,1058.35C221.87,1058.1 221.66,1057.88 221.402,1057.88L221.362,1057.88C221.104,1057.88 220.89,1058.09 220.888,1058.35L220.812,1067.07C220.81,1067.32 221.02,1067.54 221.278,1067.54L221.318,1067.54C221.576,1067.54 221.79,1067.33 221.792,1067.07L221.868,1058.35ZM45.653,1062.39C45.598,1062.25 45.46,1062.16 45.308,1062.16C45.262,1062.16 45.217,1062.17 45.174,1062.18L45.155,1062.19C45.013,1062.25 44.92,1062.38 44.92,1062.54C44.92,1062.58 44.928,1062.63 44.945,1062.67L49.747,1074.99C49.802,1075.13 49.94,1075.22 50.092,1075.22C50.138,1075.22 50.183,1075.21 50.226,1075.2L50.245,1075.19C50.387,1075.13 50.48,1075 50.48,1074.85C50.48,1074.8 50.472,1074.75 50.455,1074.71L45.653,1062.39ZM200.939,1065.68C200.682,1065.67 200.235,1071.5 199.95,1078.59C199.666,1085.68 199.643,1091.53 199.901,1091.54C200.158,1091.55 200.605,1085.72 200.89,1078.63C201.174,1071.54 201.197,1065.69 200.939,1065.68ZM189.24,1068.92C189.38,1068.93 189.517,1068.86 189.65,1068.71C189.674,1068.68 189.695,1068.66 189.714,1068.63C189.877,1068.37 189.817,1068.03 189.58,1067.88C189.555,1067.86 189.528,1067.85 189.5,1067.84C189.353,1067.79 189.19,1067.91 189.01,1068.2C188.991,1068.23 188.975,1068.26 188.961,1068.3C188.864,1068.55 188.951,1068.82 189.156,1068.9C189.183,1068.91 189.211,1068.92 189.24,1068.92ZM64.126,1069.13C64.024,1069.29 64.308,1069.66 64.754,1069.94C65.201,1070.22 65.652,1070.31 65.754,1070.15C65.754,1070.15 65.754,1070.15 65.754,1070.15C65.856,1069.99 65.572,1069.62 65.126,1069.34C64.679,1069.06 64.228,1068.97 64.126,1069.13C64.126,1069.13 64.126,1069.13 64.126,1069.13ZM56.253,1069.64C56.062,1069.77 56.246,1070.38 56.661,1071C56.661,1071 56.661,1071 56.661,1071C57.076,1071.62 57.575,1072.03 57.767,1071.9C57.767,1071.9 57.767,1071.9 57.767,1071.9C57.958,1071.77 57.774,1071.16 57.359,1070.54C57.359,1070.54 57.359,1070.54 57.359,1070.54C56.944,1069.92 56.445,1069.51 56.253,1069.64C56.253,1069.64 56.253,1069.64 56.253,1069.64ZM209.819,1071.83C209.567,1071.83 209.247,1075.84 209.11,1080.73C208.974,1085.61 209.069,1089.64 209.321,1089.65C209.573,1089.65 209.893,1085.64 210.03,1080.75C210.166,1075.87 210.071,1071.84 209.819,1071.83ZM219.13,1099.43C220.317,1104.82 221.813,1109.43 223.62,1113.26C223.681,1113.39 223.812,1113.47 223.955,1113.47C224.06,1113.47 224.16,1113.43 224.23,1113.35C224.27,1113.3 224.263,1113.19 224.21,1113C222.603,1108.07 221.327,1103.45 220.38,1099.16C219.433,1094.87 218.653,1090.14 218.04,1084.99C218.02,1084.8 217.98,1084.69 217.92,1084.66C217.873,1084.64 217.822,1084.63 217.77,1084.63C217.567,1084.63 217.4,1084.8 217.4,1085C217.4,1085 217.4,1085 217.4,1085C217.373,1089.24 217.95,1094.05 219.13,1099.43ZM85.369,1085.43C85.232,1085.53 85.611,1086.3 86.209,1087.12C86.209,1087.12 86.209,1087.12 86.209,1087.12C86.807,1087.95 87.413,1088.55 87.551,1088.45C87.551,1088.45 87.551,1088.45 87.551,1088.45C87.688,1088.35 87.309,1087.59 86.711,1086.76C86.711,1086.76 86.711,1086.76 86.711,1086.76C86.113,1085.93 85.507,1085.33 85.369,1085.43C85.369,1085.43 85.369,1085.43 85.369,1085.43ZM127.89,1095.04C128.85,1102.85 127.97,1113.37 119.9,1117.17C119.638,1117.29 119.514,1117.6 119.62,1117.87L126.26,1134.04C126.313,1134.16 126.38,1134.27 126.46,1134.37C127.093,1135.19 128.303,1136.08 130.09,1137.03C143.03,1143.96 156.103,1144.22 169.31,1137.81C175.677,1134.72 179.977,1129.91 182.21,1123.38C182.395,1122.85 182.155,1122.25 181.65,1121.99C177.77,1120.05 175.35,1116.93 174.39,1112.63C172.61,1104.7 171.483,1096.5 171.01,1088.04C171.007,1087.99 170.997,1087.93 170.98,1087.88C170.876,1087.57 170.537,1087.39 170.23,1087.49C170.177,1087.51 170.126,1087.54 170.08,1087.57C157.367,1096.12 143.463,1098.47 128.37,1094.62C128.336,1094.61 128.301,1094.61 128.266,1094.61C128.058,1094.61 127.886,1094.78 127.886,1094.99C127.886,1095 127.887,1095.02 127.89,1095.04ZM184.1,1103.2L183.56,1089.13L183.39,1089.13C183.388,1089.13 183.387,1089.13 183.385,1089.13C182.974,1089.15 182.755,1092.26 182.9,1096.02C182.9,1096.03 182.9,1096.03 182.9,1096.03L182.92,1096.37C183.065,1100.12 183.52,1103.2 183.93,1103.2L184.1,1103.2ZM105.202,1096.92C105.027,1097.05 105.23,1097.62 105.651,1098.17C106.073,1098.73 106.563,1099.07 106.738,1098.94C106.913,1098.81 106.71,1098.24 106.289,1097.69C105.867,1097.13 105.377,1096.79 105.202,1096.92ZM199.083,1098.8C199.059,1098.55 198.846,1098.35 198.595,1098.35C198.579,1098.35 198.564,1098.35 198.548,1098.36L198.488,1098.36C198.221,1098.39 198.022,1098.63 198.047,1098.89L199.937,1118.52C199.961,1118.77 200.174,1118.97 200.425,1118.97C200.441,1118.97 200.456,1118.97 200.472,1118.96L200.532,1118.96C200.799,1118.93 200.998,1118.69 200.973,1118.42L199.083,1098.8ZM75.54,1111.89C75.293,1110.9 74.463,1109.02 73.05,1106.25C72.957,1106.06 72.75,1105.97 72.43,1105.96C72.428,1105.96 72.425,1105.96 72.423,1105.96C72.242,1105.96 72.093,1106.11 72.093,1106.29C72.093,1106.35 72.109,1106.41 72.14,1106.46L75.33,1111.98C75.341,1112.01 75.361,1112.03 75.386,1112.04C75.442,1112.06 75.508,1112.03 75.533,1111.97C75.543,1111.94 75.546,1111.91 75.54,1111.89ZM59.66,1120.23C60.06,1122.45 61.29,1126.92 63.2,1128.99C63.264,1129.06 63.351,1129.09 63.443,1129.09C63.629,1129.09 63.783,1128.94 63.783,1128.75C63.783,1128.71 63.775,1128.67 63.76,1128.63C62.65,1125.79 61.48,1122.8 60.98,1120C60.48,1117.2 60.54,1113.98 60.6,1110.93C60.595,1110.75 60.443,1110.6 60.26,1110.6C60.127,1110.6 60.005,1110.68 59.95,1110.8C58.87,1113.4 59.27,1118.02 59.66,1120.23ZM69.53,1111.22C69.53,1110.91 69.273,1110.65 68.96,1110.65C68.647,1110.65 68.39,1110.91 68.39,1111.22C68.39,1111.53 68.647,1111.79 68.96,1111.79C69.273,1111.79 69.53,1111.53 69.53,1111.22ZM82.902,1113.54C82.902,1113.54 82.902,1113.54 82.902,1113.54C82.605,1113.71 83.52,1115.81 84.928,1118.18C86.337,1120.55 87.741,1122.36 88.038,1122.18C88.038,1122.18 88.038,1122.18 88.038,1122.18C88.335,1122.01 87.42,1119.91 86.012,1117.54C84.603,1115.17 83.199,1113.36 82.902,1113.54ZM96.688,1114.28C96.61,1114.04 96.382,1113.87 96.125,1113.87C96.065,1113.87 96.005,1113.88 95.947,1113.9L95.909,1113.91C95.664,1113.99 95.497,1114.21 95.497,1114.47C95.497,1114.53 95.506,1114.59 95.525,1114.65L97.012,1119.34C97.09,1119.58 97.318,1119.75 97.575,1119.75C97.635,1119.75 97.695,1119.74 97.753,1119.72L97.791,1119.71C98.036,1119.63 98.203,1119.4 98.203,1119.15C98.203,1119.09 98.194,1119.03 98.175,1118.97L96.688,1114.28ZM69.591,1122.16C69.493,1121.97 69.298,1121.85 69.085,1121.85C68.994,1121.85 68.903,1121.88 68.822,1121.92L68.769,1121.95C68.581,1122.04 68.462,1122.24 68.462,1122.45C68.462,1122.54 68.484,1122.63 68.527,1122.71L70.549,1126.6C70.647,1126.79 70.842,1126.91 71.055,1126.91C71.146,1126.91 71.237,1126.88 71.318,1126.84L71.371,1126.81C71.559,1126.72 71.678,1126.52 71.678,1126.31C71.678,1126.22 71.656,1126.13 71.613,1126.05L69.591,1122.16ZM99.137,1123.55C99.102,1123.44 99.002,1123.37 98.891,1123.37C98.863,1123.37 98.835,1123.37 98.809,1123.38L98.581,1123.46C98.475,1123.49 98.403,1123.59 98.403,1123.7C98.403,1123.73 98.407,1123.76 98.416,1123.79L100.363,1129.67C100.398,1129.78 100.498,1129.85 100.609,1129.85C100.637,1129.85 100.665,1129.85 100.691,1129.84L100.919,1129.76C101.025,1129.73 101.097,1129.63 101.097,1129.52C101.097,1129.49 101.093,1129.46 101.084,1129.43L99.137,1123.55ZM93.792,1131.62C93.742,1131.55 93.658,1131.5 93.567,1131.5C93.514,1131.5 93.462,1131.52 93.418,1131.55L93.218,1131.68C93.094,1131.76 93.06,1131.93 93.141,1132.06L102.808,1146.71C102.858,1146.79 102.942,1146.84 103.033,1146.84C103.086,1146.84 103.138,1146.82 103.182,1146.79L103.382,1146.66C103.506,1146.58 103.54,1146.41 103.459,1146.29L93.792,1131.62ZM123.316,1138.84C123.316,1138.84 123.316,1138.84 123.316,1138.84C123.12,1138.99 123.99,1140.46 125.243,1142.1C126.495,1143.74 127.688,1144.97 127.884,1144.82C127.884,1144.82 127.884,1144.82 127.884,1144.82C128.08,1144.67 127.21,1143.19 125.958,1141.56C124.705,1139.92 123.512,1138.69 123.316,1138.84ZM230.945,1138.65C230.779,1138.78 231.44,1139.92 232.409,1141.18C232.409,1141.18 232.409,1141.18 232.409,1141.18C233.377,1142.44 234.31,1143.38 234.475,1143.25C234.475,1143.25 234.475,1143.25 234.475,1143.25C234.641,1143.12 233.98,1141.98 233.012,1140.72C233.011,1140.72 233.011,1140.72 233.011,1140.72C232.043,1139.46 231.11,1138.52 230.945,1138.65C230.945,1138.65 230.945,1138.65 230.945,1138.65ZM228.35,1142.97C228.142,1143.14 228.43,1143.83 228.99,1144.49C229.549,1145.14 230.181,1145.53 230.39,1145.35C230.598,1145.18 230.31,1144.49 229.75,1143.84C229.191,1143.18 228.559,1142.79 228.35,1142.97ZM97.57,1147.71C97.473,1147.6 97.301,1147.59 97.189,1147.68L97.128,1147.74C97.068,1147.79 97.034,1147.86 97.034,1147.94C97.034,1148.01 97.057,1148.07 97.099,1148.12L105.351,1157.75C105.447,1157.86 105.619,1157.87 105.731,1157.78L105.792,1157.72C105.852,1157.67 105.886,1157.6 105.886,1157.52C105.886,1157.45 105.863,1157.39 105.821,1157.34L97.57,1147.71ZM111.484,1150.38C111.383,1150.27 111.211,1150.26 111.102,1150.36L110.793,1150.65C110.684,1150.75 110.677,1150.92 110.777,1151.03L119.576,1160.6C119.677,1160.71 119.849,1160.72 119.958,1160.62L120.267,1160.33C120.376,1160.23 120.383,1160.06 120.283,1159.95L111.484,1150.38ZM115.42,1167.93C115.458,1167.86 115.478,1167.78 115.478,1167.7C115.478,1167.54 115.388,1167.38 115.243,1167.3L107.726,1163.08C107.658,1163.04 107.58,1163.02 107.501,1163.02C107.335,1163.02 107.181,1163.11 107.1,1163.26L107.08,1163.29C107.042,1163.36 107.022,1163.44 107.022,1163.52C107.022,1163.68 107.112,1163.84 107.257,1163.92L114.774,1168.14C114.842,1168.18 114.92,1168.2 114.999,1168.2C115.165,1168.2 115.319,1168.11 115.4,1167.96L115.42,1167.93Z" style="fill:rgb(1,1,1);fill-rule:nonzero;"/>
        <g transform="matrix(-0.952129,-0.305695,0.305695,-0.952129,125.53,899.32)">
            <ellipse cx="0" cy="0" rx="2.78" ry="0.61" style="fill:rgb(114,171,157);"/>
        </g>
        <path d="M170.27,914.76C170.295,914.783 170.309,914.816 170.309,914.85C170.309,914.918 170.253,914.974 170.185,914.974C170.153,914.974 170.123,914.962 170.1,914.94C163.26,909.75 158.36,905.31 149.21,904.61C149.029,904.594 148.889,904.441 148.89,904.26C148.894,904.094 149.024,903.955 149.19,903.94C156.82,903.5 165.49,909.27 170.27,914.76Z" style="fill:white;fill-rule:nonzero;"/>
        <g transform="matrix(0.872069,-0.489382,0.489382,0.872069,92.38,907.88)">
            <path d="M7.82,-0.02L7.82,0.02C7.82,0.163 7.703,0.28 7.56,0.28L-7.56,0.28C-7.703,0.28 -7.82,0.163 -7.82,0.02L-7.82,-0.02C-7.82,-0.163 -7.703,-0.28 -7.56,-0.28L7.56,-0.28C7.703,-0.28 7.82,-0.163 7.82,-0.02Z" style="fill:white;"/>
        </g>
        <path d="M113.16,905.4C113.2,905.44 113.227,905.491 113.235,905.545C113.261,905.702 113.135,905.855 112.957,905.884C112.897,905.894 112.836,905.889 112.78,905.87C112.687,905.843 112.587,905.7 112.48,905.44C112.47,905.417 112.465,905.392 112.465,905.367C112.465,905.263 112.551,905.177 112.655,905.177C112.667,905.177 112.679,905.178 112.69,905.18C112.903,905.22 113.06,905.293 113.16,905.4Z" style="fill:rgb(114,171,157);fill-rule:nonzero;"/>
        <g transform="matrix(-0.917755,-0.397148,0.397148,-0.917755,117.92,906.1)">
            <ellipse cx="0" cy="0" rx="1.37" ry="0.73" style="fill:rgb(114,171,157);"/>
        </g>
        <path d="M143.49,908.41C143.35,908.59 143.097,908.657 142.73,908.61C142.697,908.605 142.666,908.593 142.638,908.577C142.501,908.496 142.462,908.305 142.551,908.154C142.57,908.122 142.593,908.094 142.62,908.07C142.78,907.93 142.983,907.87 143.23,907.89C143.407,907.895 143.55,908.042 143.55,908.22C143.55,908.288 143.529,908.354 143.49,908.41Z" style="fill:rgb(114,171,157);fill-rule:nonzero;"/>
        <g transform="matrix(-0.750111,-0.661312,0.661312,-0.750111,132.66,909.06)">
            <ellipse cx="0" cy="0" rx="1.24" ry="0.37" style="fill:rgb(114,171,157);"/>
        </g>
        <path d="M85.46,917.6C89.18,914.96 93.61,912.13 97.86,911.14C97.892,911.131 97.927,911.134 97.958,911.149C98.024,911.18 98.054,911.256 98.025,911.317C98.011,911.348 97.984,911.37 97.95,911.38C93.063,913.793 89.07,916.103 85.97,918.31C82.863,920.517 79.373,923.533 75.5,927.36C75.48,927.39 75.449,927.409 75.415,927.413C75.347,927.42 75.286,927.366 75.278,927.294C75.274,927.26 75.282,927.227 75.3,927.2C77.63,923.5 81.75,920.25 85.46,917.6Z" style="fill:white;fill-rule:nonzero;"/>
        <path d="M135.9,915.65C135.739,915.32 135.799,914.927 136.05,914.67C136.657,914.043 137.043,913.29 137.21,912.41C137.312,911.875 137.785,911.484 138.33,911.484C138.41,911.484 138.491,911.493 138.57,911.51L139.86,911.79C140.296,911.888 140.609,912.279 140.609,912.726C140.609,912.881 140.571,913.033 140.5,913.17C139.76,914.61 140.317,915.86 142.17,916.92C142.574,917.148 142.779,917.619 142.67,918.07C142.163,920.197 142.5,921.73 143.68,922.67C146.773,925.117 148.83,926.547 149.85,926.96C152.98,928.22 159.72,930.95 163.17,933.5C166.723,936.127 170.34,939.723 174.02,944.29C174.324,944.668 174.379,945.193 174.16,945.63C174.073,945.803 174.023,945.973 174.01,946.14C173.977,946.55 174.107,946.956 174.37,947.27C187.56,962.88 194.88,982.34 199.02,1002.27C201.39,1013.65 200.25,1026.16 197.76,1037.39C193.41,1057.03 181.51,1076.5 163.47,1086.13C149.07,1093.82 134.2,1091.98 119.09,1087.17C101.883,1081.69 88.003,1071.8 77.45,1057.49C77.16,1057.1 76.684,1056.89 76.2,1056.94L75.72,1056.98C75.216,1057.03 74.718,1056.84 74.38,1056.46C70.94,1052.68 65.48,1051.98 62.4,1056.37C61.813,1057.21 61.437,1057.72 61.27,1057.9C61.056,1058.14 60.708,1058.21 60.42,1058.08C55.947,1056.01 52.533,1052.97 50.18,1048.98C46.26,1042.32 45.63,1032.32 53.15,1028.01C57.71,1025.41 60.97,1027.81 64.5,1030.58C65.104,1031.05 65.954,1031.07 66.58,1030.63C68.32,1029.4 68.86,1027.95 69.09,1025.63C72.19,994.3 81.38,962.4 106.25,941.06C106.262,941.049 106.274,941.039 106.287,941.03C106.551,940.833 106.933,940.892 107.133,941.16C107.142,941.173 107.151,941.186 107.16,941.2C107.987,942.507 109.037,942.55 110.31,941.33C116.89,935.09 121.997,930.707 125.63,928.18C127.42,926.94 130.03,927.43 131.88,926.6C135.233,925.107 137.107,922.663 137.5,919.27C137.533,919.003 137.484,918.731 137.36,918.49L135.9,915.65ZM141.52,980.4C141.521,980.401 141.521,980.402 141.522,980.403C142.125,981.548 143.561,981.996 144.701,981.395C144.704,981.393 144.707,981.392 144.71,981.39C152.3,977.39 157.91,974.23 166.62,978.1C166.646,978.112 166.673,978.123 166.7,978.133C167.641,978.498 168.714,978.028 169.077,977.092C169.089,977.062 169.1,977.031 169.11,977L169.16,976.85C169.533,975.725 169.047,974.483 168.01,973.91C159.863,969.397 151.29,970.397 142.29,976.91C141.212,977.682 140.865,979.146 141.48,980.32L141.52,980.4ZM92.11,992.39C88.297,994.743 85.32,998.557 83.18,1003.83C82.587,1005.28 82.913,1006.36 84.16,1007.07C85.185,1007.65 86.506,1007.3 87.1,1006.29C89.29,1002.57 91.04,999.58 95.03,997.12C99.02,994.66 102.47,994.43 106.78,994.14C107.95,994.06 108.853,993.037 108.79,991.86C108.71,990.427 107.89,989.65 106.33,989.53C100.657,989.09 95.917,990.043 92.11,992.39ZM167.85,995.25C167.57,993.66 165.94,991.63 164.15,991.96C162.717,992.227 161.52,992.367 160.56,992.38C157.41,992.4 155.83,994.78 156.02,997.67C156.233,1000.95 157.567,1003.16 160.02,1004.29C161.173,1004.83 162.317,1004.79 163.45,1004.16C167.077,1002.14 168.543,999.17 167.85,995.25ZM111.4,1016.41C112.23,1015.96 112.749,1015.09 112.749,1014.15C112.749,1013.36 112.388,1012.62 111.77,1012.13C110.17,1010.88 108.71,1008.18 107.22,1007.63C102.47,1005.88 98.16,1010.34 99.85,1015.07C100.183,1015.98 100.433,1017.1 100.6,1018.42C100.655,1018.86 100.844,1019.26 101.14,1019.58C102.687,1021.25 104.733,1021.84 107.28,1021.35C108.333,1021.15 109.222,1020.28 109.58,1019.1C110,1017.73 110.607,1016.84 111.4,1016.41ZM139.26,1042.85C131.207,1044.85 124.037,1046.15 117.75,1046.74C113.223,1047.16 110.857,1047.39 110.65,1047.44C110.341,1047.5 110.046,1047.63 109.79,1047.83C108.49,1048.8 108.353,1050.14 109.38,1051.85C116.82,1064.26 130.63,1069.78 145.06,1066.2C159.5,1062.61 169.12,1051.27 169.88,1036.82C169.993,1034.83 169.247,1033.71 167.64,1033.46C167.322,1033.41 167,1033.43 166.7,1033.52C166.493,1033.57 164.293,1034.47 160.1,1036.22C154.267,1038.64 147.32,1040.85 139.26,1042.85Z" style="fill:white;fill-rule:nonzero;"/>
        <path d="M158.13,914.37L158.43,913.97C158.586,913.771 161.741,915.956 165.42,918.81L165.71,919.03C169.389,921.884 172.289,924.396 172.134,924.596C172.133,924.597 172.132,924.599 172.13,924.6L171.83,924.99L158.13,914.37Z" style="fill:white;fill-rule:nonzero;"/>
        <g transform="matrix(0.841511,-0.54024,0.54024,0.841511,112.3,921.47)">
            <ellipse cx="0" cy="0" rx="2.67" ry="0.38" style="fill:rgb(114,171,157);"/>
        </g>
        <circle cx="130.67" cy="922" r="0.62" style="fill:rgb(114,171,157);"/>
        <g transform="matrix(0.91212,0.409923,-0.409923,0.91212,153.68,924.09)">
            <path d="M3.75,-0.02L3.75,0.02C3.75,0.235 3.575,0.41 3.36,0.41L-3.36,0.41C-3.575,0.41 -3.75,0.235 -3.75,0.02L-3.75,-0.02C-3.75,-0.235 -3.575,-0.41 -3.36,-0.41L3.36,-0.41C3.575,-0.41 3.75,-0.235 3.75,-0.02Z" style="fill:white;"/>
        </g>
        <g transform="matrix(0.871214,-0.490904,0.490904,0.871214,123.68,924.12)">
            <ellipse cx="0" cy="0" rx="2.38" ry="0.48" style="fill:rgb(114,171,157);"/>
        </g>
        <path d="M79.32,939.46C79.298,939.476 79.266,939.472 79.25,939.45L79.07,939.23C78.868,938.895 83.154,935.055 88.59,930.7L88.94,930.41C88.941,930.409 88.942,930.408 88.943,930.407C94.406,926.031 99.102,922.679 99.346,922.983C99.347,922.985 99.349,922.988 99.35,922.99L99.52,923.2C99.53,923.209 99.536,923.223 99.536,923.236C99.536,923.254 99.526,923.271 99.51,923.28L79.32,939.46Z" style="fill:white;fill-rule:nonzero;"/>
        <g transform="matrix(-0.779338,-0.626604,0.626604,-0.779338,168.4,931.81)">
            <ellipse cx="0" cy="0" rx="3.12" ry="0.35" style="fill:white;"/>
        </g>
        <path d="M62.24,934.34C62.4,934.073 62.5,933.933 62.54,933.92C62.547,933.917 62.555,933.915 62.562,933.915C62.584,933.915 62.604,933.929 62.61,933.95C62.67,934.103 62.627,934.287 62.48,934.5C62.46,934.528 62.431,934.548 62.398,934.555C62.323,934.571 62.247,934.518 62.23,934.437C62.223,934.404 62.226,934.37 62.24,934.34Z" style="fill:rgb(114,171,157);fill-rule:nonzero;"/>
        <g transform="matrix(0.688355,-0.725374,0.725374,0.688355,90.06,945.44)">
            <ellipse cx="0" cy="0" rx="4.34" ry="0.41" style="fill:white;"/>
        </g>
        <g transform="matrix(0.658689,-0.752415,0.752415,0.658689,76.51,947.17)">
            <ellipse cx="0" cy="0" rx="4.6" ry="0.43" style="fill:white;"/>
        </g>
        <path d="M53.91,960.61C55.737,955.397 57.747,950.633 59.94,946.32C60.267,945.68 60.67,945.117 61.15,944.63C61.171,944.613 61.198,944.603 61.226,944.603C61.292,944.603 61.346,944.657 61.346,944.723C61.346,944.736 61.344,944.748 61.34,944.76C58.6,951.047 56.443,956.443 54.87,960.95C53.29,965.45 51.61,971.013 49.83,977.64C49.812,977.686 49.768,977.717 49.718,977.717C49.661,977.717 49.611,977.676 49.6,977.62C49.527,976.947 49.563,976.257 49.71,975.55C50.683,970.81 52.083,965.83 53.91,960.61Z" style="fill:white;fill-rule:nonzero;"/>
        <path d="M60.4,978.49C60.385,978.54 60.338,978.575 60.285,978.575C60.273,978.575 60.261,978.573 60.25,978.57C60.25,978.57 60.178,978.549 60.177,978.549C59.541,978.361 60.381,973.6 62.039,968.004C62.039,968.002 62.171,967.557 62.171,967.556C63.829,961.959 65.717,957.509 66.353,957.698C66.356,957.698 66.358,957.699 66.36,957.7L66.42,957.72C66.47,957.735 66.505,957.782 66.505,957.835C66.505,957.847 66.503,957.859 66.5,957.87L60.4,978.49Z" style="fill:white;fill-rule:nonzero;"/>
        <g transform="matrix(0.901833,0.432086,-0.432086,0.901833,73.4,972.67)">
            <path d="M0.42,-5.46L0.42,5.46C0.42,5.681 0.241,5.86 0.02,5.86L-0.02,5.86C-0.241,5.86 -0.42,5.681 -0.42,5.46L-0.42,-5.46C-0.42,-5.681 -0.241,-5.86 -0.02,-5.86L0.02,-5.86C0.241,-5.86 0.42,-5.681 0.42,-5.46Z" style="fill:white;"/>
        </g>
        <path d="M141.52,980.4L141.48,980.32C140.865,979.146 141.212,977.682 142.29,976.91C151.29,970.397 159.863,969.397 168.01,973.91C169.047,974.483 169.533,975.725 169.16,976.85L169.11,977C169.1,977.031 169.089,977.062 169.077,977.092C168.714,978.028 167.641,978.498 166.7,978.133C166.673,978.123 166.646,978.112 166.62,978.1C157.91,974.23 152.3,977.39 144.71,981.39C144.707,981.392 144.704,981.393 144.701,981.395C143.561,981.996 142.125,981.548 141.522,980.403C141.521,980.402 141.521,980.401 141.52,980.4Z" style="fill:rgb(1,1,1);fill-rule:nonzero;"/>
        <path d="M209.43,980.17C209.163,980.27 208.947,980.07 208.78,979.57C207.693,976.377 207.217,974.753 207.35,974.7C207.503,974.64 208.207,976.18 209.46,979.32C209.653,979.807 209.643,980.09 209.43,980.17Z" style="fill:rgb(114,171,157);fill-rule:nonzero;"/>
        <path d="M204.37,981.32C204.344,981.328 204.318,981.335 204.291,981.339C204.004,981.388 203.731,981.21 203.686,980.945C203.682,980.92 203.68,980.895 203.68,980.87C203.673,980.67 203.78,980.483 204,980.31C204.32,980.06 205.14,980.26 204.93,980.76C204.803,981.053 204.617,981.24 204.37,981.32Z" style="fill:rgb(114,171,157);fill-rule:nonzero;"/>
        <path d="M71.07,983.15C71.079,983.075 71.144,983.019 71.219,983.019C71.226,983.019 71.233,983.019 71.24,983.02L71.31,983.02C71.311,983.02 71.313,983.02 71.314,983.02C71.935,983.089 72.349,984.029 72.231,985.104C72.23,985.106 72.23,985.108 72.23,985.11L72.13,986.02C72.011,987.094 71.401,987.92 70.78,987.85L70.71,987.85C70.631,987.845 70.569,987.779 70.569,987.7C70.569,987.693 70.569,987.687 70.57,987.68L71.07,983.15Z" style="fill:white;fill-rule:nonzero;"/>
        <path d="M205.65,1013.38C205.563,1013.43 205.467,1013.45 205.368,1013.45C205.063,1013.45 204.805,1013.21 204.78,1012.91C204.18,1005.36 202.817,998.083 200.69,991.07C200.495,990.428 200.606,989.73 200.99,989.18C205.68,982.37 213.66,984.04 215.81,991.65C217.903,999.05 216.833,1006.1 212.6,1012.81C212.359,1013.19 211.86,1013.33 211.45,1013.13C209.63,1012.22 207.697,1012.31 205.65,1013.38Z" style="fill:white;fill-rule:nonzero;"/>
        <path d="M92.11,992.39C95.917,990.043 100.657,989.09 106.33,989.53C107.89,989.65 108.71,990.427 108.79,991.86C108.853,993.037 107.95,994.06 106.78,994.14C102.47,994.43 99.02,994.66 95.03,997.12C91.04,999.58 89.29,1002.57 87.1,1006.29C86.506,1007.3 85.185,1007.65 84.16,1007.07C82.913,1006.36 82.587,1005.28 83.18,1003.83C85.32,998.557 88.297,994.743 92.11,992.39Z" style="fill:rgb(1,1,1);fill-rule:nonzero;"/>
        <path d="M164.15,991.96C165.94,991.63 167.57,993.66 167.85,995.25C168.543,999.17 167.077,1002.14 163.45,1004.16C162.317,1004.79 161.173,1004.83 160.02,1004.29C157.567,1003.16 156.233,1000.95 156.02,997.67C155.83,994.78 157.41,992.4 160.56,992.38C161.52,992.367 162.717,992.227 164.15,991.96ZM162.027,995.516C161.588,995.636 161.349,996.187 161.499,996.738C161.499,996.738 161.499,996.738 161.499,996.738C161.649,997.288 162.133,997.643 162.573,997.524C162.573,997.524 162.573,997.524 162.573,997.524C163.012,997.404 163.251,996.853 163.101,996.302C163.101,996.302 163.101,996.302 163.101,996.302C162.951,995.752 162.467,995.397 162.027,995.516C162.027,995.516 162.027,995.516 162.027,995.516Z" style="fill:rgb(1,1,1);fill-rule:nonzero;"/>
        <path d="M56.69,994.42C56.49,994.193 56.42,993.91 56.48,993.57C56.488,993.524 56.505,993.48 56.53,993.44C56.632,993.277 56.842,993.222 56.996,993.318C57.033,993.342 57.065,993.373 57.09,993.41C57.203,993.597 57.22,993.897 57.14,994.31C57.135,994.34 57.125,994.368 57.11,994.394C57.041,994.512 56.883,994.55 56.759,994.478C56.733,994.463 56.71,994.443 56.69,994.42Z" style="fill:rgb(114,171,157);fill-rule:nonzero;"/>
        <g transform="matrix(-0.262189,-0.965016,0.965016,-0.262189,162.3,996.52)">
            <ellipse cx="0" cy="0" rx="1.04" ry="0.83" style="fill:white;"/>
        </g>
        <path d="M52.61,1007.05C52.701,1007.06 52.771,1007.14 52.771,1007.23C52.771,1007.24 52.771,1007.24 52.77,1007.25L52.35,1011.46C51.659,1018.51 50.871,1024.3 50.6,1024.32L50.4,1024.3C50.135,1024.25 50.487,1018.41 51.18,1011.34L51.59,1007.13C51.6,1007.04 51.677,1006.97 51.769,1006.97C51.776,1006.97 51.783,1006.97 51.79,1006.97L52.61,1007.05Z" style="fill:rgb(114,171,157);fill-rule:nonzero;"/>
        <path d="M111.4,1016.41C110.607,1016.84 110,1017.73 109.58,1019.1C109.222,1020.28 108.333,1021.15 107.28,1021.35C104.733,1021.84 102.687,1021.25 101.14,1019.58C100.844,1019.26 100.655,1018.86 100.6,1018.42C100.433,1017.1 100.183,1015.98 99.85,1015.07C98.16,1010.34 102.47,1005.88 107.22,1007.63C108.71,1008.18 110.17,1010.88 111.77,1012.13C112.388,1012.62 112.749,1013.36 112.749,1014.15C112.749,1015.09 112.23,1015.96 111.4,1016.41ZM103.874,1009.82C103.874,1009.82 103.874,1009.82 103.874,1009.82C103.705,1009.63 103.096,1009.89 102.523,1010.41C102.523,1010.41 102.523,1010.41 102.523,1010.41C101.951,1010.92 101.618,1011.5 101.786,1011.68C101.786,1011.68 101.786,1011.68 101.786,1011.68C101.955,1011.87 102.564,1011.61 103.137,1011.09C103.137,1011.09 103.137,1011.09 103.137,1011.09C103.709,1010.58 104.042,1010 103.874,1009.82ZM106.819,1018.53C106.805,1018.33 106.528,1018.18 106.205,1018.2C105.882,1018.22 105.628,1018.41 105.641,1018.61C105.655,1018.81 105.932,1018.96 106.255,1018.94C106.578,1018.92 106.832,1018.73 106.819,1018.53Z" style="fill:rgb(1,1,1);fill-rule:nonzero;"/>
        <path d="M43.23,1027.8C43.131,1027.8 43.05,1027.72 43.05,1027.62L43.06,1026.5C43.196,1016.74 43.48,1008.71 43.688,1008.71C43.689,1008.71 43.689,1008.71 43.69,1008.71L43.93,1008.71C44.138,1008.75 44.196,1016.78 44.06,1026.52L44.05,1027.64C44.045,1027.74 43.965,1027.81 43.87,1027.81L43.23,1027.8Z" style="fill:rgb(114,171,157);fill-rule:nonzero;"/>
        <g transform="matrix(0.745476,-0.666532,0.666532,0.745476,102.83,1010.75)">
            <ellipse cx="0" cy="0" rx="1.4" ry="0.46" style="fill:white;"/>
        </g>
        <circle cx="208.7" cy="1020.05" r="4.16" style="fill:white;"/>
        <g transform="matrix(0.997684,-0.0680153,0.0680153,0.997684,106.23,1018.57)">
            <ellipse cx="0" cy="0" rx="0.59" ry="0.37" style="fill:white;"/>
        </g>
        <g transform="matrix(0.759271,-0.650774,0.650774,0.759271,57.44,1022.18)">
            <ellipse cx="0" cy="0" rx="0.93" ry="0.6" style="fill:white;"/>
        </g>
        <path d="M63.89,1022.85C63.93,1023.46 63.92,1023.85 63.86,1024.01C63.788,1024.21 63.6,1024.34 63.39,1024.34C63.294,1024.34 63.201,1024.31 63.12,1024.26C62.58,1023.91 62.29,1023.47 62.25,1022.96C62.217,1022.45 62.443,1021.98 62.93,1021.55C63.021,1021.47 63.136,1021.43 63.256,1021.43C63.442,1021.43 63.614,1021.53 63.7,1021.7C63.78,1021.85 63.843,1022.23 63.89,1022.85Z" style="fill:white;fill-rule:nonzero;"/>
        <g transform="matrix(-0.0558215,-0.998441,0.998441,-0.0558215,220.87,1039.96)">
            <ellipse cx="0" cy="0" rx="9.86" ry="0.55" style="fill:rgb(114,171,157);"/>
        </g>
        <path d="M145.06,1066.2C130.63,1069.78 116.82,1064.26 109.38,1051.85C108.353,1050.14 108.49,1048.8 109.79,1047.83C110.046,1047.63 110.341,1047.5 110.65,1047.44C110.857,1047.39 113.223,1047.16 117.75,1046.74C124.037,1046.15 131.207,1044.85 139.26,1042.85C147.32,1040.85 154.267,1038.64 160.1,1036.22C164.293,1034.47 166.493,1033.57 166.7,1033.52C167,1033.43 167.322,1033.41 167.64,1033.46C169.247,1033.71 169.993,1034.83 169.88,1036.82C169.12,1051.27 159.5,1062.61 145.06,1066.2ZM140.23,1046.6C130.63,1048.98 121.867,1050.4 113.94,1050.85C113.731,1050.86 113.567,1051.04 113.567,1051.25C113.567,1051.33 113.592,1051.41 113.64,1051.48C120.74,1061.08 132.16,1065.38 144.15,1062.4C156.15,1059.43 164.24,1050.29 166.03,1038.49C166.033,1038.47 166.034,1038.45 166.034,1038.43C166.034,1038.21 165.853,1038.04 165.634,1038.04C165.577,1038.04 165.522,1038.05 165.47,1038.07C158.25,1041.38 149.837,1044.22 140.23,1046.6Z" style="fill:rgb(1,1,1);fill-rule:nonzero;"/>
        <path d="M144.15,1062.4C132.16,1065.38 120.74,1061.08 113.64,1051.48C113.592,1051.41 113.567,1051.33 113.567,1051.25C113.567,1051.04 113.731,1050.86 113.94,1050.85C121.867,1050.4 130.63,1048.98 140.23,1046.6C149.837,1044.22 158.25,1041.38 165.47,1038.07C165.522,1038.05 165.577,1038.04 165.634,1038.04C165.853,1038.04 166.034,1038.21 166.034,1038.43C166.034,1038.45 166.033,1038.47 166.03,1038.49C164.24,1050.29 156.15,1059.43 144.15,1062.4Z" style="fill:white;fill-rule:nonzero;"/>
        <circle cx="68.09" cy="1061.51" r="4.49" style="fill:white;"/>
        <path d="M52.08,1058.71C51.787,1058.62 51.413,1058.28 50.96,1057.7C50.94,1057.68 50.927,1057.65 50.921,1057.62C50.903,1057.52 50.972,1057.43 51.074,1057.41C51.103,1057.4 51.132,1057.4 51.16,1057.41C51.447,1057.5 51.837,1057.79 52.33,1058.27C52.383,1058.32 52.413,1058.39 52.413,1058.46C52.413,1058.6 52.296,1058.72 52.153,1058.72C52.128,1058.72 52.104,1058.72 52.08,1058.71Z" style="fill:white;fill-rule:nonzero;"/>
        <g transform="matrix(0.999962,0.00872654,-0.00872654,0.999962,221.34,1062.71)">
            <path d="M0.49,-4.36L0.49,4.36C0.49,4.619 0.279,4.83 0.02,4.83L-0.02,4.83C-0.279,4.83 -0.49,4.619 -0.49,4.36L-0.49,-4.36C-0.49,-4.619 -0.279,-4.83 -0.02,-4.83L0.02,-4.83C0.279,-4.83 0.49,-4.619 0.49,-4.36Z" style="fill:rgb(114,171,157);"/>
        </g>
        <g transform="matrix(0.931691,-0.363251,0.363251,0.931691,47.7,1068.69)">
            <path d="M0.38,-6.61L0.38,6.61C0.38,6.814 0.214,6.98 0.01,6.98L-0.01,6.98C-0.214,6.98 -0.38,6.814 -0.38,6.61L-0.38,-6.61C-0.38,-6.814 -0.214,-6.98 -0.01,-6.98L0.01,-6.98C0.214,-6.98 0.38,-6.814 0.38,-6.61Z" style="fill:white;"/>
        </g>
        <g transform="matrix(0.0401318,-0.999194,0.999194,0.0401318,200.42,1078.61)">
            <ellipse cx="0" cy="0" rx="12.94" ry="0.47" style="fill:white;"/>
        </g>
        <path d="M189.24,1068.92C189.211,1068.92 189.183,1068.91 189.156,1068.9C188.951,1068.82 188.864,1068.55 188.961,1068.3C188.975,1068.26 188.991,1068.23 189.01,1068.2C189.19,1067.91 189.353,1067.79 189.5,1067.84C189.528,1067.85 189.555,1067.86 189.58,1067.88C189.817,1068.03 189.877,1068.37 189.714,1068.63C189.695,1068.66 189.674,1068.68 189.65,1068.71C189.517,1068.86 189.38,1068.93 189.24,1068.92Z" style="fill:white;fill-rule:nonzero;"/>
        <g transform="matrix(-0.848048,-0.529919,0.529919,-0.848048,64.94,1069.64)">
            <ellipse cx="0" cy="0" rx="0.96" ry="0.35" style="fill:white;"/>
        </g>
        <g transform="matrix(-0.556296,-0.830984,0.830984,-0.556296,57.01,1070.77)">
            <ellipse cx="0" cy="0" rx="1.36" ry="0.42" style="fill:white;"/>
        </g>
        <g transform="matrix(0.0279216,-0.99961,0.99961,0.0279216,209.57,1080.74)">
            <ellipse cx="0" cy="0" rx="8.91" ry="0.46" style="fill:rgb(114,171,157);"/>
        </g>
        <path d="M219.13,1099.43C217.95,1094.05 217.373,1089.24 217.4,1085C217.4,1085 217.4,1085 217.4,1085C217.4,1084.8 217.567,1084.63 217.77,1084.63C217.822,1084.63 217.873,1084.64 217.92,1084.66C217.98,1084.69 218.02,1084.8 218.04,1084.99C218.653,1090.14 219.433,1094.87 220.38,1099.16C221.327,1103.45 222.603,1108.07 224.21,1113C224.263,1113.19 224.27,1113.3 224.23,1113.35C224.16,1113.43 224.06,1113.47 223.955,1113.47C223.812,1113.47 223.681,1113.39 223.62,1113.26C221.813,1109.43 220.317,1104.82 219.13,1099.43Z" style="fill:white;fill-rule:nonzero;"/>
        <g transform="matrix(-0.586372,-0.810042,0.810042,-0.586372,86.46,1086.94)">
            <ellipse cx="0" cy="0" rx="1.86" ry="0.31" style="fill:rgb(114,171,157);"/>
        </g>
        <path d="M127.89,1095.04C127.887,1095.02 127.886,1095 127.886,1094.99C127.886,1094.78 128.058,1094.61 128.266,1094.61C128.301,1094.61 128.336,1094.61 128.37,1094.62C143.463,1098.47 157.367,1096.12 170.08,1087.57C170.126,1087.54 170.177,1087.51 170.23,1087.49C170.537,1087.39 170.876,1087.57 170.98,1087.88C170.997,1087.93 171.007,1087.99 171.01,1088.04C171.483,1096.5 172.61,1104.7 174.39,1112.63C175.35,1116.93 177.77,1120.05 181.65,1121.99C182.155,1122.25 182.395,1122.85 182.21,1123.38C179.977,1129.91 175.677,1134.72 169.31,1137.81C156.103,1144.22 143.03,1143.96 130.09,1137.03C128.303,1136.08 127.093,1135.19 126.46,1134.37C126.38,1134.27 126.313,1134.16 126.26,1134.04L119.62,1117.87C119.514,1117.6 119.638,1117.29 119.9,1117.17C127.97,1113.37 128.85,1102.85 127.89,1095.04Z" style="fill:white;fill-rule:nonzero;"/>
        <path d="M184.1,1103.2L183.93,1103.2C183.52,1103.2 183.065,1100.12 182.92,1096.37L182.9,1096.03C182.9,1096.03 182.9,1096.03 182.9,1096.02C182.755,1092.26 182.974,1089.15 183.385,1089.13C183.387,1089.13 183.388,1089.13 183.39,1089.13L183.56,1089.13L184.1,1103.2Z" style="fill:white;fill-rule:nonzero;"/>
        <g transform="matrix(-0.604599,-0.79653,0.79653,-0.604599,105.97,1097.93)">
            <ellipse cx="0" cy="0" rx="1.27" ry="0.4" style="fill:white;"/>
        </g>
        <g transform="matrix(0.995396,-0.0958458,0.0958458,0.995396,199.51,1108.66)">
            <path d="M0.52,-9.86L0.52,9.86C0.52,10.13 0.3,10.35 0.03,10.35L-0.03,10.35C-0.3,10.35 -0.52,10.13 -0.52,9.86L-0.52,-9.86C-0.52,-10.13 -0.3,-10.35 -0.03,-10.35L0.03,-10.35C0.3,-10.35 0.52,-10.13 0.52,-9.86Z" style="fill:white;"/>
        </g>
        <path d="M75.33,1111.98L72.14,1106.46C72.109,1106.41 72.093,1106.35 72.093,1106.29C72.093,1106.11 72.242,1105.96 72.423,1105.96C72.425,1105.96 72.428,1105.96 72.43,1105.96C72.75,1105.97 72.957,1106.06 73.05,1106.25C74.463,1109.02 75.293,1110.9 75.54,1111.89C75.546,1111.91 75.543,1111.94 75.533,1111.97C75.508,1112.03 75.442,1112.06 75.386,1112.04C75.361,1112.03 75.341,1112.01 75.33,1111.98Z" style="fill:rgb(114,171,157);fill-rule:nonzero;"/>
        <path d="M60.98,1120C61.48,1122.8 62.65,1125.79 63.76,1128.63C63.775,1128.67 63.783,1128.71 63.783,1128.75C63.783,1128.94 63.629,1129.09 63.443,1129.09C63.351,1129.09 63.264,1129.06 63.2,1128.99C61.29,1126.92 60.06,1122.45 59.66,1120.23C59.27,1118.02 58.87,1113.4 59.95,1110.8C60.005,1110.68 60.127,1110.6 60.26,1110.6C60.443,1110.6 60.595,1110.75 60.6,1110.93C60.54,1113.98 60.48,1117.2 60.98,1120Z" style="fill:rgb(114,171,157);fill-rule:nonzero;"/>
        <circle cx="68.96" cy="1111.22" r="0.57" style="fill:rgb(114,171,157);"/>
        <g transform="matrix(-0.510543,-0.859852,0.859852,-0.510543,85.47,1117.86)">
            <ellipse cx="0" cy="0" rx="5.03" ry="0.63" style="fill:white;"/>
        </g>
        <g transform="matrix(0.953191,-0.30237,0.30237,0.953191,96.85,1116.81)">
            <path d="M0.61,-2.46L0.61,2.46C0.61,2.786 0.346,3.05 0.02,3.05L-0.02,3.05C-0.346,3.05 -0.61,2.786 -0.61,2.46L-0.61,-2.46C-0.61,-2.786 -0.346,-3.05 -0.02,-3.05L0.02,-3.05C0.346,-3.05 0.61,-2.786 0.61,-2.46Z" style="fill:white;"/>
        </g>
        <g transform="matrix(0.887011,-0.461749,0.461749,0.887011,70.07,1124.38)">
            <path d="M0.6,-2.19L0.6,2.19C0.6,2.505 0.345,2.76 0.03,2.76L-0.03,2.76C-0.345,2.76 -0.6,2.505 -0.6,2.19L-0.6,-2.19C-0.6,-2.505 -0.345,-2.76 -0.03,-2.76L0.03,-2.76C0.345,-2.76 0.6,-2.505 0.6,-2.19Z" style="fill:rgb(114,171,157);"/>
        </g>
        <g transform="matrix(0.949425,-0.313992,0.313992,0.949425,99.75,1126.61)">
            <path d="M0.38,-3.1L0.38,3.1C0.38,3.243 0.263,3.36 0.12,3.36L-0.12,3.36C-0.263,3.36 -0.38,3.243 -0.38,3.1L-0.38,-3.1C-0.38,-3.243 -0.263,-3.36 -0.12,-3.36L0.12,-3.36C0.263,-3.36 0.38,-3.243 0.38,-3.1Z" style="fill:rgb(114,171,157);"/>
        </g>
        <path d="M204.7,1255.13C191.74,1256.17 178.747,1257.08 165.72,1257.85C152.407,1258.64 140.42,1258.89 129.76,1258.59C117.767,1258.26 105.787,1257.58 93.82,1256.56C87.207,1255.99 80.78,1255.11 74.54,1253.91C75.52,1241.29 77.343,1229.01 80.01,1217.07C80.099,1216.69 80.361,1216.36 80.72,1216.2C81.227,1215.97 81.767,1215.79 82.34,1215.66C83.565,1215.37 84.496,1214.51 84.72,1213.44C86.82,1203.37 88.683,1194.24 90.31,1186.04C90.331,1185.93 90.342,1185.82 90.342,1185.71C90.342,1184.88 89.724,1184.17 88.9,1184.05L88.84,1184.05C87.865,1183.92 86.943,1184.57 86.73,1185.53L81.02,1210.92C80.919,1211.39 80.485,1211.72 80,1211.7C65.68,1211.06 53.03,1206.09 40.56,1199.44C40.271,1199.29 40.118,1198.97 40.19,1198.65C44.09,1181.44 50.483,1165.26 59.37,1150.13C63.29,1143.46 69.3,1136.31 75.57,1131.5C75.661,1131.43 75.772,1131.4 75.886,1131.4C76.079,1131.4 76.257,1131.5 76.35,1131.67C82.117,1142.01 89.213,1151.48 97.64,1160.09C102.513,1165.07 107.983,1168.77 114.05,1171.2C115.52,1171.79 117.03,1171.83 118.56,1170.57C121.15,1168.42 122.27,1171.5 124.33,1171.63C125.29,1171.68 125.92,1171.4 126.22,1170.78C126.647,1169.9 126.25,1168.81 125.33,1168.32C124.163,1167.7 122.82,1167.19 121.3,1166.8C120.984,1166.72 120.786,1166.4 120.86,1166.09L120.94,1165.71C120.941,1165.71 120.942,1165.7 120.942,1165.7C120.995,1165.5 121.2,1165.38 121.396,1165.43C121.401,1165.43 121.405,1165.43 121.41,1165.43C123.197,1165.98 124.99,1165.95 126.79,1165.34C127.48,1165.1 127.947,1164.45 127.947,1163.72C127.947,1163.42 127.869,1163.13 127.72,1162.87L126.45,1160.67C126.425,1160.62 126.412,1160.57 126.412,1160.52C126.412,1160.34 126.557,1160.2 126.732,1160.2C126.8,1160.2 126.865,1160.22 126.92,1160.26L130.51,1163.07C130.976,1163.43 131.661,1163.35 132.03,1162.88L132.32,1162.5C132.736,1161.97 132.788,1161.24 132.45,1160.65L126.32,1150.03C126.271,1149.96 126.245,1149.87 126.245,1149.78C126.245,1149.53 126.448,1149.33 126.695,1149.33C126.818,1149.33 126.935,1149.38 127.02,1149.47C131.3,1153.54 135.41,1156.9 141.15,1158.05C142.296,1158.28 143.457,1157.66 143.91,1156.58L144.02,1156.31C144.084,1156.15 144.117,1155.99 144.117,1155.82C144.117,1155.22 143.697,1154.69 143.11,1154.56L138.93,1153.63C137.744,1153.36 136.721,1152.61 136.11,1151.56L131.8,1144.09C131.739,1143.98 131.706,1143.86 131.706,1143.74C131.706,1143.36 132.022,1143.04 132.406,1143.04C132.504,1143.04 132.601,1143.06 132.69,1143.1C145.863,1148.91 158.837,1148.42 171.61,1141.63C178.497,1137.97 183.353,1132.62 186.18,1125.57C186.204,1125.51 186.243,1125.45 186.294,1125.41C186.462,1125.27 186.719,1125.3 186.863,1125.47C186.905,1125.52 186.935,1125.58 186.95,1125.64C187.803,1129.66 188.353,1132.33 188.6,1133.65C188.98,1135.72 188.963,1139.6 188.55,1145.31C188.497,1146.07 188.311,1146.81 188,1147.5C187.627,1148.33 187.137,1149.51 186.53,1151.02C186.263,1151.69 186.333,1152.27 186.74,1152.75C186.777,1152.79 186.817,1152.83 186.858,1152.87C187.456,1153.4 188.429,1153.3 189.013,1152.65C189.055,1152.6 189.094,1152.55 189.13,1152.5C191.47,1149.26 191.68,1146.72 192.49,1142.01C192.532,1141.76 192.755,1141.57 193.013,1141.57C193.052,1141.57 193.092,1141.57 193.13,1141.58L193.39,1141.63C193.536,1141.66 193.638,1141.8 193.63,1141.94C193.543,1146.99 192.66,1151.72 190.98,1156.12C190.91,1156.3 190.875,1156.5 190.875,1156.7C190.875,1157.43 191.371,1158.08 192.08,1158.27L192.42,1158.39C193.042,1158.6 193.731,1158.29 193.98,1157.68L197.54,1149.13C197.557,1149.09 197.587,1149.05 197.627,1149.03C197.726,1148.97 197.858,1149.01 197.919,1149.11C197.942,1149.15 197.953,1149.2 197.95,1149.24C197.49,1153.63 196.033,1157.44 193.58,1160.67C193.377,1160.94 193.267,1161.26 193.267,1161.6C193.267,1162.21 193.64,1162.77 194.21,1163.01L194.7,1163.22C195.414,1163.52 196.244,1163.27 196.68,1162.63C203.02,1153.32 204.07,1144.74 206.04,1133.9C206.077,1133.7 206.256,1133.55 206.463,1133.55C206.636,1133.55 206.793,1133.65 206.86,1133.81L207.64,1135.67C207.804,1136.06 208.191,1136.32 208.619,1136.32C208.942,1136.32 209.249,1136.17 209.45,1135.92L210.46,1134.63C210.701,1134.32 211.138,1134.25 211.47,1134.45C221.62,1140.69 228.17,1148.12 232.85,1159.63C237.9,1172.02 240.38,1184.41 242.46,1197.44C242.537,1197.92 242.281,1198.39 241.84,1198.58C231.987,1202.83 222.003,1205.84 211.89,1207.59C211.869,1207.59 211.849,1207.6 211.828,1207.6C211.397,1207.64 211.006,1207.32 210.964,1206.88C210.962,1206.86 210.96,1206.84 210.96,1206.82C210.82,1200.63 210.527,1194.51 210.08,1188.48C210.033,1187.9 209.933,1187.43 209.78,1187.08C209.743,1186.99 209.696,1186.91 209.641,1186.84C209.17,1186.2 208.157,1186.13 207.396,1186.69C207.309,1186.75 207.226,1186.82 207.15,1186.9C206.57,1187.49 206.313,1188.36 206.38,1189.5C207.747,1211.08 207.187,1232.96 204.7,1255.13Z" style="fill:rgb(114,171,157);fill-rule:nonzero;"/>
        <g transform="matrix(0.834848,-0.550481,0.550481,0.834848,98.3,1139.17)">
            <path d="M0.39,-8.78L0.39,8.78C0.39,8.929 0.269,9.05 0.12,9.05L-0.12,9.05C-0.269,9.05 -0.39,8.929 -0.39,8.78L-0.39,-8.78C-0.39,-8.929 -0.269,-9.05 -0.12,-9.05L0.12,-9.05C0.269,-9.05 0.39,-8.929 0.39,-8.78Z" style="fill:rgb(114,171,157);"/>
        </g>
        <g transform="matrix(-0.607376,-0.794415,0.794415,-0.607376,125.6,1141.83)">
            <ellipse cx="0" cy="0" rx="3.76" ry="0.45" style="fill:rgb(114,171,157);"/>
        </g>
        <g transform="matrix(-0.608761,-0.793353,0.793353,-0.608761,232.71,1140.95)">
            <ellipse cx="0" cy="0" rx="2.9" ry="0.38" style="fill:rgb(114,171,157);"/>
        </g>
        <g transform="matrix(-0.649448,-0.760406,0.760406,-0.649448,229.37,1144.16)">
            <ellipse cx="0" cy="0" rx="1.57" ry="0.5" style="fill:rgb(114,171,157);"/>
        </g>
        <g transform="matrix(0.759271,-0.650774,0.650774,0.759271,101.46,1152.73)">
            <path d="M0.31,-6.34L0.31,6.34C0.31,6.489 0.189,6.61 0.04,6.61L-0.04,6.61C-0.189,6.61 -0.31,6.489 -0.31,6.34L-0.31,-6.34C-0.31,-6.489 -0.189,-6.61 -0.04,-6.61L0.04,-6.61C0.189,-6.61 0.31,-6.489 0.31,-6.34Z" style="fill:rgb(114,171,157);"/>
        </g>
        <g transform="matrix(0.736097,-0.676876,0.676876,0.736097,115.53,1155.49)">
            <path d="M0.48,-6.5L0.48,6.5C0.48,6.649 0.359,6.77 0.21,6.77L-0.21,6.77C-0.359,6.77 -0.48,6.649 -0.48,6.5L-0.48,-6.5C-0.48,-6.649 -0.359,-6.77 -0.21,-6.77L0.21,-6.77C0.359,-6.77 0.48,-6.649 0.48,-6.5Z" style="fill:rgb(114,171,157);"/>
        </g>
        <g transform="matrix(0.872069,0.489382,-0.489382,0.872069,111.25,1165.61)">
            <path d="M4.77,-0.02L4.77,0.02C4.77,0.274 4.564,0.48 4.31,0.48L-4.31,0.48C-4.564,0.48 -4.77,0.274 -4.77,0.02L-4.77,-0.02C-4.77,-0.274 -4.564,-0.48 -4.31,-0.48L4.31,-0.48C4.564,-0.48 4.77,-0.274 4.77,-0.02Z" style="fill:rgb(114,171,157);"/>
        </g>
        <path d="M236.91,1251.42C229.69,1251.5 224.47,1251.68 221.25,1251.97C218.53,1252.21 214.503,1252.89 209.17,1254C210.71,1240.24 211.49,1226.53 211.51,1212.86C211.51,1212.55 211.74,1212.27 212.05,1212.22C219.91,1210.9 227.603,1208.81 235.13,1205.95C235.175,1205.93 235.224,1205.92 235.272,1205.92C235.465,1205.92 235.629,1206.07 235.65,1206.26C236.87,1215.44 237.627,1224.42 237.92,1233.2C238.033,1236.71 237.697,1242.78 236.91,1251.42Z" style="fill:white;fill-rule:nonzero;"/>
        <path d="M70.39,1253.57C64.817,1253.46 59.187,1253.4 53.5,1253.39C48.433,1253.38 43.44,1253.04 38.52,1252.38C39.6,1237.13 41.663,1222.05 44.71,1207.13C44.714,1207.11 44.72,1207.09 44.727,1207.07C44.808,1206.84 45.066,1206.73 45.299,1206.81C45.316,1206.81 45.333,1206.82 45.35,1206.83C54.73,1211.62 64.573,1214.56 74.88,1215.67C75.4,1215.72 75.802,1216.16 75.802,1216.68C75.802,1216.77 75.791,1216.86 75.77,1216.94C72.683,1228.97 70.89,1241.18 70.39,1253.57Z" style="fill:white;fill-rule:nonzero;"/>
    </g>
</svg>
