<?xml version="1.0" encoding="UTF-8" standalone="no"?>
<!DOCTYPE svg PUBLIC "-//W3C//DTD SVG 1.1//EN" "http://www.w3.org/Graphics/SVG/1.1/DTD/svg11.dtd">
<svg width="100%" height="100%" viewBox="0 0 218 365" version="1.1" xmlns="http://www.w3.org/2000/svg" xmlns:xlink="http://www.w3.org/1999/xlink" xml:space="preserve" xmlns:serif="http://www.serif.com/" style="fill-rule:evenodd;clip-rule:evenodd;stroke-linejoin:round;stroke-miterlimit:2;">
    <g transform="matrix(1,0,0,1,-539.849,-894.415)">
        <path d="M742.12,1251.54C743.67,1235.85 742.81,1221.48 741.06,1206.28C741.031,1206.05 740.83,1205.87 740.593,1205.87C740.534,1205.87 740.475,1205.88 740.42,1205.9C732.827,1208.96 725.067,1211.07 717.14,1212.22C716.838,1212.26 716.612,1212.53 716.61,1212.83C716.617,1226.48 715.9,1240.19 714.46,1253.98L710.2,1254.8C710.06,1254.53 709.997,1254.35 710.01,1254.25C711.463,1240.41 712.21,1226.66 712.25,1213C712.263,1207.71 712.103,1199.51 711.77,1188.4C711.741,1187.38 712.445,1186.48 713.44,1186.26L713.48,1186.25C713.599,1186.22 713.72,1186.21 713.842,1186.21C714.744,1186.21 715.497,1186.93 715.54,1187.83L716.46,1206.92C716.48,1207.34 716.83,1207.67 717.249,1207.67C717.296,1207.67 717.344,1207.67 717.39,1207.66C727.85,1205.77 737.71,1202.74 746.97,1198.58C747.477,1198.36 747.78,1197.82 747.71,1197.27C745.77,1181.35 741.7,1163.86 733.28,1149.96C729.09,1143.04 723.26,1138.97 717.05,1134.44C716.725,1134.2 716.261,1134.27 716.01,1134.59L715.18,1135.64C714.966,1135.91 714.637,1136.08 714.289,1136.08C713.885,1136.08 713.512,1135.86 713.31,1135.51L712.32,1133.78C712.237,1133.64 712.087,1133.56 711.927,1133.56C711.716,1133.56 711.53,1133.7 711.48,1133.91C710.827,1136.85 709.77,1141.73 708.31,1148.54C707.337,1153.07 705.19,1157.73 701.87,1162.52C701.57,1162.95 701.073,1163.22 700.545,1163.22C700.188,1163.22 699.842,1163.1 699.56,1162.88L699.41,1162.77C698.993,1162.45 698.748,1161.95 698.748,1161.42C698.748,1161.03 698.883,1160.65 699.13,1160.35C701.497,1157.44 702.913,1153.8 703.38,1149.44C703.38,1149.43 703.381,1149.43 703.381,1149.42C703.381,1149.31 703.29,1149.22 703.181,1149.22C703.153,1149.22 703.125,1149.23 703.1,1149.24C702.9,1149.32 702.73,1149.53 702.59,1149.86C702.23,1150.66 701.377,1153.04 700.03,1156.99C699.706,1157.94 698.721,1158.52 697.73,1158.34L697.6,1158.32C696.861,1158.19 696.318,1157.54 696.318,1156.79C696.318,1156.6 696.353,1156.41 696.42,1156.23C698.06,1151.86 698.897,1146.99 698.93,1141.61C698.93,1141.58 698.905,1141.55 698.87,1141.54L698.62,1141.48C698.589,1141.47 698.558,1141.47 698.526,1141.47C698.307,1141.47 698.12,1141.63 698.09,1141.85C697.49,1145.99 696.86,1149.9 694.18,1152.98C694.072,1153.11 693.941,1153.21 693.796,1153.29C693.138,1153.64 692.305,1153.38 691.951,1152.72C691.873,1152.57 691.822,1152.41 691.8,1152.25C691.767,1152 691.817,1151.73 691.95,1151.46C695.69,1143.72 694.94,1133.78 692.59,1125.89C692.549,1125.76 692.429,1125.67 692.294,1125.67C692.171,1125.67 692.059,1125.75 692.01,1125.86C688.837,1133.45 683.397,1139.05 675.69,1142.66C662.99,1148.61 650.24,1148.66 637.44,1142.8C637.385,1142.77 637.324,1142.76 637.263,1142.76C637.06,1142.77 636.902,1142.95 636.912,1143.16C636.915,1143.22 636.931,1143.28 636.96,1143.33L641.85,1151.8C642.346,1152.67 643.186,1153.28 644.16,1153.5L648.14,1154.39C648.755,1154.53 649.195,1155.08 649.195,1155.71C649.195,1155.95 649.131,1156.18 649.01,1156.39L648.88,1156.62C648.332,1157.58 647.207,1158.05 646.15,1157.77C640.32,1156.21 636.64,1153.58 632.32,1149.35C632.263,1149.29 632.185,1149.25 632.102,1149.24C631.906,1149.21 631.724,1149.36 631.7,1149.56C631.689,1149.64 631.707,1149.73 631.75,1149.8L638,1160.63C638.272,1161.1 638.228,1161.69 637.89,1162.12L637.68,1162.39C637.419,1162.73 637.016,1162.92 636.59,1162.92C636.282,1162.92 635.983,1162.82 635.74,1162.63L632.32,1159.96C632.254,1159.9 632.171,1159.88 632.085,1159.88C631.882,1159.88 631.715,1160.04 631.715,1160.25C631.715,1160.31 631.734,1160.38 631.77,1160.44L632.93,1162.45C633.082,1162.72 633.162,1163.02 633.162,1163.32C633.162,1164.02 632.753,1164.65 632.12,1164.93C630.52,1165.64 628.89,1165.73 627.23,1165.2C627.177,1165.18 627.121,1165.17 627.065,1165.17C626.796,1165.17 626.575,1165.39 626.575,1165.66C626.575,1165.82 626.651,1165.97 626.78,1166.06C627.62,1166.71 628.913,1167.39 630.66,1168.1C630.704,1168.12 630.748,1168.14 630.791,1168.16C631.773,1168.63 632.208,1169.8 631.755,1170.73C631.735,1170.77 631.713,1170.81 631.69,1170.85C631.443,1171.26 630.87,1171.48 629.97,1171.51C629.27,1171.52 628.19,1171.04 626.73,1170.06C626.416,1169.85 626.034,1169.77 625.67,1169.84C623.71,1170.21 622.51,1171.98 620.29,1171.18C614.403,1169.05 608.923,1165.45 603.85,1160.38C595.123,1151.67 587.923,1142.19 582.25,1131.95C582.064,1131.61 581.649,1131.47 581.3,1131.62C579.08,1132.57 577.147,1133.96 575.5,1135.79C559.75,1153.29 550.94,1175.59 545.35,1198.21C545.301,1198.41 545.387,1198.62 545.56,1198.72C557.42,1205.89 570.5,1210.22 584.8,1211.73C585.593,1211.81 586.328,1211.28 586.5,1210.51L592.14,1185.35C592.306,1184.59 592.984,1184.04 593.762,1184.04C593.931,1184.04 594.099,1184.07 594.26,1184.12L594.38,1184.16C595.313,1184.42 595.895,1185.36 595.7,1186.3C593.24,1198.34 591.37,1207.27 590.09,1213.09C589.817,1214.32 588.653,1215.24 586.6,1215.87C585.962,1216.07 585.474,1216.59 585.32,1217.24C582.467,1229.13 580.637,1241.27 579.83,1253.66L575.62,1253.39C576.093,1240.82 577.91,1228.52 581.07,1216.49C581.074,1216.47 581.078,1216.46 581.081,1216.44C581.163,1216.02 580.89,1215.61 580.475,1215.53C580.457,1215.53 580.439,1215.52 580.42,1215.52C569.953,1214.23 559.987,1211.2 550.52,1206.43C550.465,1206.4 550.404,1206.39 550.342,1206.39C550.157,1206.39 549.997,1206.52 549.96,1206.7C546.753,1221.83 544.613,1237.05 543.54,1252.36C542.307,1252.71 541.23,1252.68 540.31,1252.27C540.019,1252.14 539.837,1251.84 539.85,1251.52C540.497,1235.75 542.643,1220.19 546.29,1204.84C546.326,1204.66 546.26,1204.48 546.12,1204.37L542.37,1201.44C541.557,1200.8 541.173,1199.76 541.38,1198.74C543.467,1188.43 546.55,1178.41 550.63,1168.68C555.54,1156.95 561.18,1145.95 569.44,1136.87C569.565,1136.73 569.635,1136.55 569.635,1136.37C569.635,1136.13 569.526,1135.91 569.34,1135.77C563.86,1131.61 560.89,1125.55 560.43,1117.58C560.15,1112.77 560.97,1107.33 560.28,1102.44C559.413,1096.35 557.72,1090.81 555.2,1085.8C552.393,1080.24 550.463,1076.19 549.41,1073.64C543.723,1059.97 541.237,1045.76 541.95,1031C542.557,1018.44 543.507,1004.94 544.8,990.5C545.267,985.307 546.007,979.607 547.02,973.4C549.41,958.75 555.27,945 562.91,933.17C569.02,923.7 577.07,916.46 586.93,908.71C595.477,901.983 606.013,897.803 618.54,896.17C619.224,896.084 619.893,895.912 620.53,895.66C623.723,894.38 627.12,894.087 630.72,894.78C635.3,895.66 637.06,899.44 638.98,903.76C639.413,904.747 640.397,905.57 641.93,906.23C641.984,906.252 642.041,906.263 642.099,906.263C642.313,906.263 642.498,906.11 642.54,905.9C643.193,902.3 644.297,899.96 645.85,898.88C654.04,893.18 667.48,898.89 674.49,904.55C690.49,917.47 702.28,936.91 710.43,955.34C714.177,963.8 717.037,972.603 719.01,981.75C719.095,982.156 719.285,982.532 719.56,982.84C720,983.34 720.497,983.797 721.05,984.21C724.99,987.16 725.65,993.95 725.88,998.75C725.973,1000.7 726.3,1003.02 726.86,1005.72C730,1020.82 731.597,1036.41 731.65,1052.5C731.67,1060.13 731,1074.63 732.48,1084.45C734.887,1100.45 738.917,1115.17 744.57,1128.62C745.01,1129.67 746.407,1131.88 748.76,1135.26C750.493,1137.76 752.947,1139.37 756.12,1140.1C756.222,1140.12 756.321,1140.16 756.416,1140.2C757.125,1140.54 757.433,1141.39 757.099,1142.1C757.053,1142.19 756.996,1142.29 756.93,1142.37L756.59,1142.8C755.967,1143.6 754.877,1143.89 753.94,1143.5L744.26,1139.47C744.171,1139.43 744.075,1139.41 743.978,1139.41C743.572,1139.41 743.238,1139.75 743.238,1140.15C743.238,1140.26 743.259,1140.36 743.3,1140.45C744.547,1143.21 746.653,1145.23 749.62,1146.51C749.68,1146.54 749.738,1146.57 749.795,1146.6C750.54,1147.04 750.792,1148.02 750.352,1148.76C750.318,1148.81 750.281,1148.87 750.24,1148.92L749.9,1149.35C749.352,1150.05 748.391,1150.3 747.56,1149.96L741.61,1147.48C741.316,1147.36 740.982,1147.36 740.68,1147.48L737.99,1148.61C737.806,1148.68 737.685,1148.87 737.685,1149.06C737.685,1149.14 737.704,1149.22 737.74,1149.29C740.44,1154.61 742.17,1158.3 742.93,1160.37C747.197,1171.92 750.2,1184.42 751.94,1197.85C752.18,1199.7 751.483,1201.03 749.85,1201.85C748.163,1202.7 746.707,1203.37 745.48,1203.87C745.011,1204.06 744.725,1204.54 744.79,1205.05C746.81,1220.98 747.68,1235.11 746.16,1251.26C746.129,1251.58 745.912,1251.86 745.61,1251.95C744.363,1252.36 743.2,1252.23 742.12,1251.54ZM628.506,898.206C628.506,898.206 628.506,898.206 628.506,898.206C628.411,898.475 629.427,899.082 630.757,899.55C630.757,899.55 630.757,899.55 630.757,899.55C632.087,900.019 633.259,900.183 633.354,899.914C633.354,899.914 633.354,899.914 633.354,899.914C633.449,899.645 632.433,899.038 631.103,898.57C631.103,898.57 631.103,898.57 631.103,898.569C629.773,898.101 628.601,897.937 628.506,898.206ZM675.35,914.54C670.63,909.17 662.1,903.55 654.61,904.01C654.446,904.02 654.315,904.156 654.31,904.32L654.31,904.33C654.31,904.509 654.451,904.659 654.63,904.67C663.61,905.32 668.45,909.65 675.18,914.72C675.203,914.742 675.233,914.754 675.265,914.754C675.333,914.754 675.389,914.698 675.389,914.63C675.389,914.596 675.375,914.563 675.35,914.54ZM603.677,904.367C603.609,904.241 603.45,904.193 603.325,904.261L590.839,910.984C590.714,911.051 590.666,911.21 590.734,911.336L590.743,911.353C590.811,911.479 590.97,911.527 591.095,911.459L603.581,904.736C603.706,904.669 603.754,904.51 603.686,904.384L603.677,904.367ZM618.94,905.37C618.8,904.99 618.627,904.843 618.42,904.93C618.33,904.965 618.254,905.026 618.202,905.106C618.061,905.321 618.13,905.62 618.355,905.767C618.437,905.821 618.533,905.85 618.63,905.85C618.677,905.85 618.763,905.78 618.89,905.64C618.957,905.567 618.976,905.462 618.94,905.37ZM622.81,906.67C623.25,906.89 623.837,906.92 624.57,906.76C624.753,906.725 624.886,906.563 624.886,906.377C624.886,906.273 624.844,906.173 624.77,906.1C624.21,905.533 623.68,905.227 623.18,905.18C623.031,905.17 622.883,905.204 622.755,905.277C622.389,905.488 622.267,905.974 622.486,906.355C622.563,906.488 622.675,906.598 622.81,906.67ZM648.29,907.86C648.157,907.847 648.007,907.877 647.84,907.95C647.801,907.967 647.765,907.991 647.736,908.022C647.615,908.149 647.623,908.357 647.754,908.481C647.785,908.511 647.821,908.534 647.86,908.55C648.04,908.63 648.23,908.61 648.43,908.49C648.532,908.429 648.595,908.318 648.595,908.198C648.595,908.025 648.463,907.878 648.29,907.86ZM636.758,908.213C636.758,908.213 636.758,908.213 636.758,908.213C636.659,908.358 637.116,908.842 637.771,909.285C638.425,909.728 639.044,909.973 639.142,909.827C639.142,909.827 639.142,909.827 639.142,909.827C639.241,909.682 638.784,909.198 638.129,908.755C637.475,908.312 636.856,908.067 636.758,908.213ZM590.73,917.38C586.94,920.06 582.75,923.36 580.37,927.12C580.363,927.136 580.36,927.153 580.36,927.171C580.36,927.242 580.418,927.301 580.49,927.301C580.515,927.301 580.539,927.293 580.56,927.28C584.52,923.4 588.08,920.34 591.24,918.1C594.4,915.867 598.47,913.53 603.45,911.09C603.48,911.065 603.497,911.029 603.497,910.99C603.497,910.918 603.438,910.86 603.367,910.86C603.365,910.86 603.362,910.86 603.36,910.86C599.03,911.85 594.52,914.7 590.73,917.38ZM641.2,915.55L642.66,918.39C642.787,918.63 642.84,918.902 642.81,919.17C642.41,922.563 640.533,925.01 637.18,926.51C635.33,927.34 632.72,926.85 630.92,928.09C627.287,930.617 622.177,935.003 615.59,941.25C614.31,942.47 613.26,942.423 612.44,941.11C612.433,941.099 612.425,941.088 612.417,941.077C612.217,940.808 611.835,940.75 611.571,940.946C611.557,940.957 611.543,940.968 611.53,940.98C586.64,962.33 577.43,994.26 574.33,1025.61C574.1,1027.93 573.56,1029.38 571.82,1030.61C571.194,1031.05 570.344,1031.03 569.74,1030.56C566.2,1027.79 562.94,1025.38 558.39,1027.99C550.85,1032.3 551.49,1042.31 555.41,1048.97C557.763,1052.97 561.18,1056.01 565.66,1058.08C565.948,1058.21 566.296,1058.14 566.51,1057.9C566.677,1057.72 567.05,1057.21 567.63,1056.37C570.72,1051.98 576.18,1052.68 579.62,1056.46C579.958,1056.84 580.456,1057.03 580.96,1056.98L581.44,1056.94C581.922,1056.89 582.398,1057.1 582.69,1057.49C593.257,1071.81 607.15,1081.71 624.37,1087.19C639.48,1092.01 654.37,1093.85 668.78,1086.16C686.84,1076.53 698.75,1057.04 703.1,1037.39C705.59,1026.15 706.73,1013.63 704.37,1002.24C700.22,982.29 692.9,962.81 679.7,947.2C679.437,946.886 679.307,946.48 679.34,946.07C679.353,945.903 679.403,945.733 679.49,945.56C679.709,945.123 679.654,944.598 679.35,944.22C675.67,939.647 672.05,936.043 668.49,933.41C665.04,930.86 658.3,928.13 655.16,926.86C654.14,926.453 652.083,925.023 648.99,922.57C647.81,921.637 647.47,920.107 647.97,917.98C648.084,917.526 647.878,917.049 647.47,916.82C645.617,915.76 645.063,914.51 645.81,913.07C645.881,912.934 645.918,912.782 645.918,912.628C645.918,912.178 645.6,911.785 645.16,911.69L643.87,911.4C643.795,911.385 643.718,911.377 643.641,911.377C643.093,911.377 642.619,911.771 642.52,912.31C642.347,913.19 641.957,913.943 641.35,914.57C641.099,914.827 641.039,915.22 641.2,915.55ZM663.28,914.25L677.51,924.78L677.86,924.3C677.888,924.112 674.839,921.686 671.06,918.89L670.79,918.69C667.013,915.895 663.803,913.69 663.63,913.77L663.28,914.25ZM620.366,919.96C620.232,919.746 619.104,920.207 617.866,920.98C617.866,920.98 617.866,920.98 617.866,920.98C616.629,921.753 615.72,922.566 615.854,922.78C615.854,922.78 615.854,922.78 615.854,922.78C615.988,922.994 617.116,922.533 618.354,921.76C618.354,921.76 618.354,921.76 618.354,921.76C619.591,920.987 620.5,920.174 620.366,919.96C620.366,919.96 620.366,919.96 620.366,919.96ZM634.97,922.31C635.137,922.77 635.497,922.85 636.05,922.55C636.55,922.277 636.67,921.967 636.41,921.62C636.306,921.488 636.163,921.388 636,921.335C635.567,921.194 635.1,921.418 634.966,921.83C634.916,921.985 634.917,922.153 634.97,922.31ZM662.261,925.284C662.282,925.234 662.293,925.181 662.293,925.128C662.293,924.973 662.201,924.832 662.059,924.77L656.648,922.418C656.599,922.396 656.546,922.385 656.493,922.385C656.338,922.385 656.197,922.478 656.135,922.62L656.119,922.657C656.098,922.706 656.087,922.759 656.087,922.812C656.087,922.967 656.179,923.108 656.321,923.17L661.732,925.522C661.781,925.544 661.834,925.555 661.887,925.555C662.042,925.555 662.183,925.462 662.245,925.32L662.261,925.284ZM631.191,922.855C631.08,922.672 630.05,923.088 628.909,923.776C627.767,924.465 626.919,925.182 627.029,925.365C627.14,925.548 628.17,925.132 629.311,924.444C630.453,923.755 631.301,923.038 631.191,922.855ZM594.22,930.12C590.387,933.133 587.287,936.093 584.92,939C584.87,939.06 584.842,939.135 584.842,939.213C584.842,939.359 584.939,939.489 585.08,939.53C585.14,939.537 585.23,939.483 585.35,939.37C588.67,936.197 591.86,933.41 594.92,931.01C597.98,928.61 601.447,926.177 605.32,923.71C605.46,923.617 605.533,923.54 605.54,923.48C605.53,923.306 605.385,923.169 605.211,923.169C605.162,923.169 605.114,923.179 605.07,923.2C601.677,924.807 598.06,927.113 594.22,930.12ZM671.07,929.497C670.967,929.625 671.934,930.576 673.212,931.604C674.49,932.632 675.627,933.372 675.73,933.244C675.73,933.244 675.73,933.244 675.73,933.244C675.833,933.115 674.866,932.164 673.588,931.136C672.31,930.108 671.173,929.368 671.07,929.496C671.07,929.496 671.07,929.496 671.07,929.497ZM568.79,932.59C567.883,933.603 567.427,934.117 567.42,934.13C567.419,934.14 567.419,934.149 567.419,934.159C567.419,934.312 567.545,934.439 567.699,934.439C567.785,934.439 567.867,934.399 567.92,934.33C568.613,933.343 568.96,932.787 568.96,932.66C568.959,932.606 568.914,932.561 568.86,932.561C568.834,932.561 568.809,932.572 568.79,932.59ZM598.816,942.186C598.665,942.034 597.126,943.315 595.405,945.023C593.685,946.732 592.393,948.263 592.544,948.415C592.695,948.566 594.234,947.285 595.955,945.577C597.675,943.868 598.967,942.337 598.816,942.186ZM584.826,944.392C584.879,944.333 584.908,944.257 584.908,944.179C584.908,944.088 584.869,944.001 584.801,943.94L584.771,943.914C584.713,943.861 584.637,943.832 584.558,943.832C584.467,943.832 584.38,943.871 584.319,943.939L579.054,949.828C579.001,949.887 578.972,949.963 578.972,950.041C578.972,950.132 579.011,950.219 579.079,950.28L579.109,950.307C579.167,950.359 579.243,950.388 579.322,950.388C579.413,950.388 579.5,950.349 579.561,950.281L584.826,944.392ZM559.12,960.69C557.287,965.977 555.883,971.017 554.91,975.81C554.763,976.523 554.727,977.223 554.8,977.91C554.813,977.963 554.862,978.001 554.916,978.001C554.968,978.001 555.013,977.968 555.03,977.92C556.823,971.22 558.51,965.59 560.09,961.03C561.677,956.47 563.847,951.007 566.6,944.64C566.608,944.624 566.612,944.606 566.612,944.588C566.612,944.522 566.558,944.468 566.492,944.468C566.462,944.468 566.432,944.479 566.41,944.5C565.923,944.993 565.517,945.567 565.19,946.22C562.983,950.587 560.96,955.41 559.12,960.69ZM565.74,978.33L572.06,957.88C572.08,957.809 572.04,957.734 571.97,957.71C571.97,957.71 571.909,957.69 571.909,957.69C571.291,957.498 569.657,960.974 568.29,965.39L566.87,970C565.506,974.405 564.889,978.191 565.5,978.4L565.56,978.42C565.575,978.425 565.591,978.428 565.606,978.428C565.667,978.428 565.722,978.388 565.74,978.33ZM581.547,967.515C581.576,967.456 581.591,967.392 581.591,967.327C581.591,967.168 581.5,967.022 581.358,966.951L581.34,966.942C581.134,966.84 580.88,966.925 580.777,967.131L575.913,976.886C575.884,976.944 575.869,977.008 575.869,977.073C575.869,977.232 575.96,977.378 576.102,977.449L576.12,977.458C576.326,977.56 576.58,977.475 576.683,977.269L581.547,967.515ZM714.28,980.2C714.533,980.1 714.567,979.82 714.38,979.36C713.173,976.38 712.507,974.917 712.38,974.97C712.233,975.023 712.683,976.567 713.73,979.6C713.897,980.073 714.08,980.273 714.28,980.2ZM709.54,981.3C709.613,981.107 709.64,980.93 709.62,980.77C709.617,980.725 709.604,980.682 709.582,980.644C709.499,980.501 709.306,980.457 709.155,980.545C709.113,980.569 709.078,980.602 709.05,980.64C708.923,980.807 708.903,981 708.99,981.22C709.006,981.263 709.03,981.303 709.062,981.338C709.179,981.468 709.366,981.494 709.476,981.395C709.505,981.37 709.526,981.337 709.54,981.3ZM576.28,982.87L575.88,987.59C575.88,987.593 575.88,987.597 575.88,987.6C575.88,987.684 575.946,987.755 576.03,987.76L576.11,987.77C576.764,987.82 577.386,986.851 577.49,985.62L577.54,985.08C577.643,983.846 577.189,982.785 576.533,982.73C576.532,982.73 576.531,982.73 576.53,982.73L576.45,982.72C576.447,982.72 576.443,982.72 576.44,982.72C576.356,982.72 576.285,982.786 576.28,982.87ZM710.98,1013.41C713.013,1012.32 714.943,1012.23 716.77,1013.13C717.183,1013.33 717.682,1013.19 717.92,1012.8C722.107,1006.07 723.133,999.02 721,991.64C718.8,984.06 710.82,982.43 706.18,989.26C705.799,989.812 705.692,990.509 705.89,991.15C708.057,998.143 709.463,1005.41 710.11,1012.94C710.135,1013.24 710.393,1013.48 710.698,1013.48C710.797,1013.48 710.893,1013.46 710.98,1013.41ZM562.31,994.23C562.543,994.03 562.607,993.733 562.5,993.34C562.464,993.229 562.36,993.152 562.243,993.152C562.154,993.152 562.07,993.196 562.02,993.27C561.853,993.523 561.81,993.8 561.89,994.1C561.92,994.213 562.024,994.292 562.141,994.292C562.203,994.292 562.263,994.27 562.31,994.23ZM548.54,1028.02L549.46,1028.04C549.581,1028.04 549.68,1027.94 549.68,1027.82L549.69,1027.68C550.017,1012.05 550.057,999.183 549.777,999.178C549.775,999.178 549.772,999.178 549.77,999.18L549.43,999.17C549.149,999.367 548.654,1012.16 548.33,1027.65L548.32,1027.79C548.32,1027.79 548.32,1027.8 548.32,1027.8C548.32,1027.92 548.419,1028.02 548.54,1028.02C548.54,1028.02 548.54,1028.02 548.54,1028.02ZM557.89,1006.84C557.53,1006.81 556.85,1010.62 556.383,1015.29C555.917,1019.97 555.83,1023.84 556.19,1023.88C556.55,1023.91 557.23,1020.1 557.697,1015.43C558.163,1010.75 558.25,1006.88 557.89,1006.84ZM713.289,1016.12C713.288,1016.12 713.288,1016.12 713.288,1016.12C711.081,1016.37 709.481,1018.51 709.745,1020.86C709.745,1020.86 709.745,1020.86 709.745,1020.86C710.009,1023.22 712.044,1024.95 714.252,1024.7C714.252,1024.7 714.252,1024.7 714.252,1024.7C716.459,1024.45 718.059,1022.31 717.795,1019.96C717.795,1019.96 717.795,1019.96 717.795,1019.96C717.531,1017.6 715.496,1015.87 713.289,1016.12ZM561.63,1022.51C561.652,1022.57 561.681,1022.62 561.718,1022.67C561.993,1023.02 562.62,1022.99 563.107,1022.61C563.173,1022.56 563.234,1022.5 563.29,1022.44C563.503,1022.2 563.547,1021.98 563.42,1021.78C563.408,1021.76 563.394,1021.74 563.38,1021.73C563.097,1021.4 562.478,1021.46 562.008,1021.87C561.981,1021.89 561.955,1021.92 561.93,1021.94C561.677,1022.18 561.577,1022.37 561.63,1022.51ZM567.26,1023.15C567.32,1023.85 567.67,1024.3 568.31,1024.49C568.357,1024.5 568.406,1024.51 568.455,1024.51C568.714,1024.51 568.935,1024.32 568.97,1024.06C568.99,1023.91 568.977,1023.56 568.93,1022.99C568.877,1022.43 568.827,1022.08 568.78,1021.94C568.71,1021.73 568.51,1021.58 568.286,1021.58C568.204,1021.58 568.123,1021.6 568.05,1021.64C567.457,1021.94 567.193,1022.44 567.26,1023.15ZM725.559,1029.01C725.559,1029.01 725.559,1029.01 725.559,1029.01C725.279,1029.03 725.289,1033.62 725.581,1039.18C725.581,1039.18 725.581,1039.18 725.581,1039.18C725.872,1044.74 726.342,1049.3 726.621,1049.29C726.621,1049.29 726.621,1049.29 726.621,1049.29C726.901,1049.27 726.891,1044.68 726.599,1039.12C726.599,1039.12 726.599,1039.12 726.599,1039.12C726.308,1033.56 725.838,1029 725.559,1029.01ZM556.1,1057.32C556.006,1057.41 556.294,1057.86 556.738,1058.32C556.738,1058.32 556.738,1058.32 556.738,1058.32C557.183,1058.77 557.626,1059.07 557.72,1058.98C557.72,1058.98 557.72,1058.98 557.72,1058.98C557.814,1058.89 557.526,1058.44 557.082,1057.98C557.082,1057.98 557.082,1057.98 557.082,1057.98C556.637,1057.53 556.194,1057.23 556.1,1057.32C556.1,1057.32 556.1,1057.32 556.1,1057.32ZM577.6,1061.53C577.6,1059.13 575.627,1057.16 573.23,1057.16C570.833,1057.16 568.86,1059.13 568.86,1061.53C568.86,1063.93 570.833,1065.9 573.23,1065.9C575.627,1065.9 577.6,1063.93 577.6,1061.53ZM726.994,1058.12C726.993,1057.88 726.799,1057.69 726.564,1057.69C726.564,1057.69 726.523,1057.69 726.523,1057.69C726.287,1057.69 726.094,1057.88 726.094,1058.12C726.094,1058.12 726.094,1058.12 726.094,1058.12L726.126,1067.22C726.127,1067.46 726.321,1067.65 726.556,1067.65C726.556,1067.65 726.597,1067.65 726.597,1067.65C726.833,1067.65 727.026,1067.45 727.026,1067.22C727.026,1067.22 727.026,1067.22 727.026,1067.22L726.994,1058.12ZM550.948,1061.88C550.875,1061.69 550.659,1061.59 550.47,1061.66L550.433,1061.68C550.243,1061.75 550.148,1061.97 550.221,1062.16L555.232,1075.14C555.305,1075.33 555.521,1075.43 555.71,1075.36L555.747,1075.34C555.937,1075.27 556.032,1075.05 555.959,1074.86L550.948,1061.88ZM706.391,1065.16C706.391,1065.16 706.391,1065.16 706.391,1065.16C706.056,1065.15 705.51,1071.11 705.181,1078.36C705.181,1078.36 705.181,1078.36 705.181,1078.36C704.851,1085.62 704.855,1091.6 705.189,1091.62C705.189,1091.62 705.189,1091.62 705.189,1091.62C705.524,1091.63 706.07,1085.67 706.399,1078.42C706.399,1078.42 706.399,1078.42 706.399,1078.42C706.729,1071.16 706.725,1065.18 706.391,1065.16ZM694.77,1069.06C694.997,1068.82 695.173,1068.57 695.3,1068.31C695.321,1068.27 695.332,1068.22 695.332,1068.17C695.332,1067.99 695.188,1067.85 695.012,1067.85C694.951,1067.85 694.891,1067.87 694.84,1067.9C694.5,1068.1 694.31,1068.41 694.27,1068.84C694.27,1068.85 694.269,1068.85 694.269,1068.86C694.269,1069.02 694.4,1069.15 694.559,1069.15C694.639,1069.15 694.715,1069.12 694.77,1069.06ZM569.59,1069.08C569.59,1069.08 569.59,1069.08 569.59,1069.08C569.453,1069.27 569.692,1069.68 570.12,1070C570.548,1070.31 571.013,1070.42 571.15,1070.24C571.15,1070.24 571.15,1070.24 571.15,1070.24C571.287,1070.05 571.048,1069.64 570.62,1069.32C570.192,1069.01 569.727,1068.9 569.59,1069.08ZM561.365,1069.23C561.365,1069.23 561.364,1069.23 561.364,1069.23C561.175,1069.36 561.451,1070.09 561.975,1070.84C561.975,1070.84 561.976,1070.84 561.976,1070.84C562.5,1071.59 563.087,1072.1 563.275,1071.97C563.275,1071.97 563.276,1071.97 563.276,1071.97C563.465,1071.84 563.189,1071.11 562.665,1070.36C562.665,1070.36 562.664,1070.36 562.664,1070.36C562.14,1069.61 561.553,1069.1 561.365,1069.23ZM715.2,1090.7L715.84,1072.25C715.84,1072.25 715.84,1072.24 715.84,1072.24C715.84,1072.18 715.792,1072.12 715.73,1072.12C715.73,1072.12 715.68,1072.12 715.68,1072.12C715.06,1072.1 714.455,1074.8 714.34,1078.1C714.34,1078.1 714.34,1078.1 714.34,1078.1L714.1,1084.76C713.985,1088.06 714.401,1090.79 715.02,1090.81L715.07,1090.81C715.073,1090.81 715.077,1090.81 715.08,1090.81C715.143,1090.81 715.195,1090.76 715.2,1090.7ZM685.86,1079.27C686.087,1079.2 686.267,1079.08 686.4,1078.91C686.428,1078.88 686.452,1078.84 686.47,1078.8C686.554,1078.61 686.52,1078.41 686.395,1078.36C686.369,1078.34 686.34,1078.34 686.31,1078.34C685.97,1078.37 685.7,1078.49 685.5,1078.72C685.444,1078.78 685.413,1078.86 685.413,1078.95C685.413,1079.13 685.566,1079.29 685.753,1079.29C685.789,1079.29 685.825,1079.28 685.86,1079.27ZM724.51,1099.55C725.743,1105 727.287,1109.66 729.14,1113.53C729.204,1113.66 729.336,1113.74 729.481,1113.74C729.587,1113.74 729.688,1113.7 729.76,1113.62C729.8,1113.57 729.79,1113.45 729.73,1113.26C728.07,1108.27 726.75,1103.61 725.77,1099.26C724.783,1094.91 723.963,1090.13 723.31,1084.92C723.283,1084.73 723.243,1084.61 723.19,1084.58C723.143,1084.56 723.092,1084.55 723.04,1084.55C722.832,1084.55 722.66,1084.72 722.66,1084.93C722.66,1084.93 722.66,1084.93 722.66,1084.93C722.66,1089.22 723.277,1094.1 724.51,1099.55ZM590.94,1085.04C590.94,1085.04 590.94,1085.04 590.94,1085.04C590.81,1085.12 591.123,1085.85 591.633,1086.66C591.633,1086.66 591.633,1086.66 591.633,1086.66C592.143,1087.47 592.67,1088.06 592.8,1087.98C592.8,1087.98 592.8,1087.98 592.8,1087.98C592.93,1087.9 592.617,1087.17 592.107,1086.36C592.107,1086.36 592.107,1086.36 592.107,1086.36C591.597,1085.55 591.07,1084.96 590.94,1085.04ZM633.65,1095.12C634.63,1102.95 633.78,1113.48 625.72,1117.3C625.449,1117.42 625.319,1117.74 625.43,1118.01L632.13,1134.17C632.18,1134.29 632.244,1134.4 632.32,1134.5C632.96,1135.32 634.177,1136.2 635.97,1137.15C648.937,1144.06 662.023,1144.29 675.23,1137.84C681.59,1134.73 685.883,1129.9 688.11,1123.36C688.296,1122.82 688.051,1122.22 687.54,1121.96C683.653,1120.03 681.223,1116.91 680.25,1112.61C678.45,1104.68 677.3,1096.48 676.8,1088.01C676.797,1087.96 676.786,1087.9 676.769,1087.85C676.664,1087.54 676.325,1087.37 676.019,1087.47C675.97,1087.49 675.923,1087.51 675.88,1087.54C663.173,1096.13 649.257,1098.52 634.13,1094.71C634.108,1094.7 634.086,1094.7 634.063,1094.7C633.85,1094.68 633.663,1094.84 633.648,1095.05C633.647,1095.08 633.647,1095.1 633.65,1095.12ZM690.15,1104.04L689.53,1088.67C689.525,1088.61 689.472,1088.56 689.41,1088.56L689.37,1088.56C689.367,1088.56 689.365,1088.56 689.362,1088.56C688.77,1088.58 688.421,1092.05 688.59,1096.25C688.59,1096.25 688.59,1096.25 688.59,1096.25L688.61,1096.56C688.777,1100.74 689.399,1104.17 689.99,1104.17L690.03,1104.16C690.096,1104.16 690.15,1104.11 690.15,1104.04ZM610.849,1097.2C610.849,1097.2 610.849,1097.2 610.849,1097.2C610.64,1097.4 610.888,1098 611.399,1098.53C611.909,1099.06 612.502,1099.33 612.711,1099.12C612.711,1099.12 612.711,1099.12 612.711,1099.12C612.92,1098.92 612.672,1098.32 612.161,1097.79C611.651,1097.26 611.058,1096.99 610.849,1097.2ZM704.79,1098.75C704.762,1098.41 704.459,1098.16 704.121,1098.18L704.081,1098.19C703.761,1098.21 703.513,1098.49 703.513,1098.81C703.513,1098.82 703.513,1098.84 703.515,1098.86L705.15,1118.33C705.178,1118.67 705.481,1118.92 705.819,1118.89L705.859,1118.89C706.179,1118.87 706.427,1118.6 706.427,1118.27C706.427,1118.26 706.427,1118.24 706.425,1118.22L704.79,1098.75ZM577.79,1106.06C577.59,1106.15 577.61,1106.43 577.85,1106.88C579.383,1109.79 580.223,1111.2 580.37,1111.13C580.497,1111.07 579.87,1109.55 578.49,1106.57C578.27,1106.1 578.037,1105.93 577.79,1106.06ZM564.97,1120.32C565.37,1122.49 566.58,1126.86 568.46,1128.88C568.523,1128.95 568.613,1128.99 568.707,1128.99C568.888,1128.99 569.037,1128.84 569.037,1128.66C569.037,1128.62 569.028,1128.57 569.01,1128.53C567.91,1125.75 566.76,1122.82 566.26,1120.09C565.76,1117.35 565.81,1114.2 565.86,1111.21C565.86,1111.2 565.861,1111.2 565.861,1111.19C565.861,1111.01 565.712,1110.86 565.531,1110.86C565.392,1110.86 565.267,1110.95 565.22,1111.08C564.17,1113.64 564.58,1118.15 564.97,1120.32ZM574.56,1110.88C574.34,1110.83 574.147,1110.86 573.98,1110.97C573.82,1111.09 573.813,1111.26 573.96,1111.47C574.06,1111.62 574.247,1111.65 574.52,1111.58C574.587,1111.56 574.649,1111.53 574.699,1111.48C574.846,1111.34 574.857,1111.11 574.724,1110.97C574.68,1110.93 574.623,1110.89 574.56,1110.88ZM601.659,1113.81C601.601,1113.62 601.426,1113.49 601.229,1113.49C601.184,1113.49 601.139,1113.5 601.096,1113.51L601.057,1113.52C600.87,1113.58 600.741,1113.76 600.741,1113.95C600.741,1114 600.748,1114.04 600.762,1114.09L602.421,1119.41C602.479,1119.6 602.654,1119.73 602.851,1119.73C602.896,1119.73 602.941,1119.72 602.984,1119.71L603.023,1119.7C603.21,1119.64 603.339,1119.46 603.339,1119.27C603.339,1119.22 603.332,1119.18 603.318,1119.13L601.659,1113.81ZM593.78,1121.98L588.97,1113.91C588.961,1113.9 588.944,1113.89 588.93,1113.9L588.73,1114.01C588.728,1114.01 588.726,1114.01 588.724,1114.01C588.357,1114.23 588.787,1115.64 589.677,1117.14C589.678,1117.14 589.679,1117.14 589.68,1117.14C589.68,1117.14 591.28,1119.82 591.28,1119.82C592.171,1121.31 593.206,1122.36 593.573,1122.14C593.576,1122.14 593.578,1122.14 593.58,1122.14L593.77,1122.02C593.783,1122.01 593.788,1121.99 593.78,1121.98ZM690.63,1118.5C690.631,1118.46 690.62,1118.41 690.6,1118.37C690.528,1118.24 690.345,1118.19 690.195,1118.27C690.154,1118.3 690.118,1118.33 690.09,1118.36C689.97,1118.51 689.937,1118.66 689.99,1118.79C690.004,1118.83 690.027,1118.86 690.055,1118.89C690.173,1119 690.374,1118.99 690.5,1118.86C690.529,1118.83 690.553,1118.8 690.57,1118.76C690.61,1118.66 690.63,1118.57 690.63,1118.5ZM575.048,1122.1C574.902,1121.82 574.549,1121.71 574.266,1121.86L574.213,1121.88C574.021,1121.98 573.9,1122.18 573.9,1122.4C573.9,1122.49 573.922,1122.58 573.965,1122.66L575.972,1126.54C576.118,1126.82 576.471,1126.93 576.754,1126.78L576.807,1126.76C576.999,1126.66 577.12,1126.46 577.12,1126.24C577.12,1126.15 577.098,1126.06 577.055,1125.98L575.048,1122.1ZM603.976,1123.72C603.976,1123.72 603.976,1123.72 603.976,1123.72C603.838,1123.78 604.258,1125.25 604.907,1126.99C604.907,1126.99 604.907,1126.99 604.907,1126.99C605.556,1128.72 606.205,1130.11 606.344,1130.06C606.344,1130.06 606.344,1130.06 606.344,1130.06C606.482,1130 606.062,1128.53 605.413,1126.8C605.413,1126.8 605.413,1126.8 605.413,1126.8C604.764,1125.06 604.115,1123.67 603.976,1123.72ZM599.13,1131.33C599.081,1131.26 599.001,1131.22 598.915,1131.22C598.862,1131.22 598.811,1131.23 598.768,1131.26L598.454,1131.48C598.336,1131.56 598.306,1131.72 598.386,1131.84L608.451,1146.59C608.499,1146.66 608.579,1146.7 608.665,1146.7C608.718,1146.7 608.769,1146.69 608.812,1146.66L609.126,1146.44C609.244,1146.36 609.274,1146.2 609.194,1146.08L599.13,1131.33ZM725.01,1134.12C725.01,1133.98 724.893,1133.86 724.75,1133.86C724.607,1133.86 724.49,1133.98 724.49,1134.12C724.49,1134.26 724.607,1134.38 724.75,1134.38C724.893,1134.38 725.01,1134.26 725.01,1134.12ZM629.194,1138.43C629.07,1138.24 628.819,1138.2 628.638,1138.32L628.605,1138.34C628.424,1138.47 628.376,1138.72 628.5,1138.9L632.726,1145.1C632.85,1145.28 633.101,1145.32 633.282,1145.2L633.315,1145.18C633.496,1145.05 633.544,1144.8 633.42,1144.62L629.194,1138.43ZM736.008,1138.25C735.825,1138.4 736.521,1139.55 737.548,1140.8C737.548,1140.8 737.548,1140.8 737.548,1140.8C738.575,1142.05 739.57,1142.96 739.752,1142.81C739.752,1142.81 739.752,1142.81 739.753,1142.81C739.935,1142.66 739.239,1141.51 738.212,1140.26C738.212,1140.26 738.212,1140.26 738.212,1140.26C737.185,1139.01 736.19,1138.1 736.008,1138.25C736.008,1138.25 736.008,1138.25 736.008,1138.25ZM733.636,1142.99C733.462,1143.16 733.832,1143.82 734.454,1144.47C735.076,1145.11 735.731,1145.5 735.904,1145.33C735.904,1145.33 735.904,1145.33 735.904,1145.33C736.078,1145.16 735.708,1144.5 735.086,1143.85C734.464,1143.21 733.809,1142.82 733.636,1142.99C733.636,1142.99 733.636,1142.99 733.636,1142.99ZM603.087,1147.6C603.086,1147.6 603.086,1147.6 603.086,1147.6C602.954,1147.71 604.918,1150.21 607.438,1153.13C607.438,1153.13 607.438,1153.13 607.438,1153.13C609.957,1156.05 612.14,1158.36 612.274,1158.24C612.274,1158.24 612.274,1158.24 612.274,1158.24C612.406,1158.13 610.442,1155.63 607.922,1152.71C607.922,1152.71 607.922,1152.71 607.922,1152.71C605.403,1149.79 603.22,1147.48 603.086,1147.6ZM617.227,1150.19C617.126,1150.08 616.954,1150.07 616.846,1150.17L616.523,1150.47C616.468,1150.52 616.437,1150.59 616.437,1150.67C616.437,1150.74 616.463,1150.8 616.509,1150.85L625.413,1160.43C625.514,1160.54 625.686,1160.55 625.795,1160.45L626.117,1160.15C626.172,1160.1 626.203,1160.03 626.203,1159.95C626.203,1159.88 626.177,1159.82 626.131,1159.77L617.227,1150.19ZM620.91,1167.71C621.035,1167.49 620.957,1167.21 620.737,1167.08L613.277,1162.84C613.208,1162.8 613.129,1162.78 613.05,1162.78C612.884,1162.78 612.731,1162.87 612.65,1163.02L612.63,1163.05C612.505,1163.27 612.583,1163.55 612.803,1163.68L620.263,1167.92C620.332,1167.96 620.411,1167.98 620.49,1167.98C620.656,1167.98 620.809,1167.89 620.89,1167.74L620.91,1167.71Z" style="fill:rgb(1,1,1);fill-rule:nonzero;"/>
        <g transform="matrix(-0.943223,-0.332161,0.332161,-0.943223,630.93,899.06)">
            <ellipse cx="0" cy="0" rx="2.57" ry="0.52" style="fill:rgb(114,171,157);"/>
        </g>
        <path d="M675.35,914.54C675.375,914.563 675.389,914.596 675.389,914.63C675.389,914.698 675.333,914.754 675.265,914.754C675.233,914.754 675.203,914.742 675.18,914.72C668.45,909.65 663.61,905.32 654.63,904.67C654.451,904.659 654.31,904.509 654.31,904.33L654.31,904.32C654.315,904.156 654.446,904.02 654.61,904.01C662.1,903.55 670.63,909.17 675.35,914.54Z" style="fill:white;fill-rule:nonzero;"/>
        <g transform="matrix(0.880477,-0.474088,0.474088,0.880477,597.21,907.86)">
            <path d="M7.35,-0.01L7.35,0.01C7.35,0.153 7.233,0.27 7.09,0.27L-7.09,0.27C-7.233,0.27 -7.35,0.153 -7.35,0.01L-7.35,-0.01C-7.35,-0.153 -7.233,-0.27 -7.09,-0.27L7.09,-0.27C7.233,-0.27 7.35,-0.153 7.35,-0.01Z" style="fill:white;"/>
        </g>
        <path d="M618.89,905.64C618.763,905.78 618.677,905.85 618.63,905.85C618.533,905.85 618.437,905.821 618.355,905.767C618.13,905.62 618.061,905.321 618.202,905.106C618.254,905.026 618.33,904.965 618.42,904.93C618.627,904.843 618.8,904.99 618.94,905.37C618.976,905.462 618.957,905.567 618.89,905.64Z" style="fill:rgb(114,171,157);fill-rule:nonzero;"/>
        <path d="M622.81,906.67C622.675,906.598 622.563,906.488 622.486,906.355C622.267,905.974 622.389,905.488 622.755,905.277C622.883,905.204 623.031,905.17 623.18,905.18C623.68,905.227 624.21,905.533 624.77,906.1C624.844,906.173 624.886,906.273 624.886,906.377C624.886,906.563 624.753,906.725 624.57,906.76C623.837,906.92 623.25,906.89 622.81,906.67Z" style="fill:rgb(114,171,157);fill-rule:nonzero;"/>
        <path d="M648.29,907.86C648.463,907.878 648.595,908.025 648.595,908.198C648.595,908.318 648.532,908.429 648.43,908.49C648.23,908.61 648.04,908.63 647.86,908.55C647.821,908.534 647.785,908.511 647.754,908.481C647.623,908.357 647.615,908.149 647.736,908.022C647.765,907.991 647.801,907.967 647.84,907.95C648.007,907.877 648.157,907.847 648.29,907.86Z" style="fill:rgb(114,171,157);fill-rule:nonzero;"/>
        <g transform="matrix(-0.82806,-0.560639,0.560639,-0.82806,637.95,909.02)">
            <ellipse cx="0" cy="0" rx="1.44" ry="0.32" style="fill:rgb(114,171,157);"/>
        </g>
        <path d="M591.24,918.1C588.08,920.34 584.52,923.4 580.56,927.28C580.539,927.293 580.515,927.301 580.49,927.301C580.418,927.301 580.36,927.242 580.36,927.171C580.36,927.153 580.363,927.136 580.37,927.12C582.75,923.36 586.94,920.06 590.73,917.38C594.52,914.7 599.03,911.85 603.36,910.86C603.362,910.86 603.365,910.86 603.367,910.86C603.438,910.86 603.497,910.918 603.497,910.99C603.497,911.029 603.48,911.065 603.45,911.09C598.47,913.53 594.4,915.867 591.24,918.1Z" style="fill:white;fill-rule:nonzero;"/>
        <path d="M641.2,915.55C641.039,915.22 641.099,914.827 641.35,914.57C641.957,913.943 642.347,913.19 642.52,912.31C642.619,911.771 643.093,911.377 643.641,911.377C643.718,911.377 643.795,911.385 643.87,911.4L645.16,911.69C645.6,911.785 645.918,912.178 645.918,912.628C645.918,912.782 645.881,912.934 645.81,913.07C645.063,914.51 645.617,915.76 647.47,916.82C647.878,917.049 648.084,917.526 647.97,917.98C647.47,920.107 647.81,921.637 648.99,922.57C652.083,925.023 654.14,926.453 655.16,926.86C658.3,928.13 665.04,930.86 668.49,933.41C672.05,936.043 675.67,939.647 679.35,944.22C679.654,944.598 679.709,945.123 679.49,945.56C679.403,945.733 679.353,945.903 679.34,946.07C679.307,946.48 679.437,946.886 679.7,947.2C692.9,962.81 700.22,982.29 704.37,1002.24C706.73,1013.63 705.59,1026.15 703.1,1037.39C698.75,1057.04 686.84,1076.53 668.78,1086.16C654.37,1093.85 639.48,1092.01 624.37,1087.19C607.15,1081.71 593.257,1071.81 582.69,1057.49C582.398,1057.1 581.922,1056.89 581.44,1056.94L580.96,1056.98C580.456,1057.03 579.958,1056.84 579.62,1056.46C576.18,1052.68 570.72,1051.98 567.63,1056.37C567.05,1057.21 566.677,1057.72 566.51,1057.9C566.296,1058.14 565.948,1058.21 565.66,1058.08C561.18,1056.01 557.763,1052.97 555.41,1048.97C551.49,1042.31 550.85,1032.3 558.39,1027.99C562.94,1025.38 566.2,1027.79 569.74,1030.56C570.344,1031.03 571.194,1031.05 571.82,1030.61C573.56,1029.38 574.1,1027.93 574.33,1025.61C577.43,994.26 586.64,962.33 611.53,940.98C611.543,940.968 611.557,940.957 611.571,940.946C611.835,940.75 612.217,940.808 612.417,941.077C612.425,941.088 612.433,941.099 612.44,941.11C613.26,942.423 614.31,942.47 615.59,941.25C622.177,935.003 627.287,930.617 630.92,928.09C632.72,926.85 635.33,927.34 637.18,926.51C640.533,925.01 642.41,922.563 642.81,919.17C642.84,918.902 642.787,918.63 642.66,918.39L641.2,915.55ZM663.95,967.51C659.33,967.303 655.023,968.543 651.03,971.23C650.049,971.883 649.665,973.152 650.12,974.24C650.99,976.32 652.66,975.81 654.47,975.02C657.79,973.573 660.867,972.913 663.7,973.04C666.533,973.173 669.537,974.113 672.71,975.86C674.44,976.81 676.06,977.47 677.11,975.47C677.665,974.431 677.404,973.133 676.49,972.39C672.757,969.35 668.577,967.723 663.95,967.51ZM671.491,980.822C670.66,980.507 669.43,981.686 668.766,983.435C668.766,983.435 668.766,983.435 668.766,983.435C668.101,985.184 668.238,986.882 669.069,987.198C669.069,987.198 669.069,987.198 669.069,987.198C669.9,987.513 671.13,986.334 671.794,984.585C671.794,984.585 671.794,984.585 671.794,984.585C672.459,982.836 672.322,981.138 671.491,980.822C671.491,980.822 671.491,980.822 671.491,980.822ZM597.16,984.39C593.1,986.897 590.15,990.457 588.31,995.07C587.857,996.197 588.27,997.499 589.29,998.16C591.24,999.43 592.37,998.02 593.45,996.3C595.437,993.133 597.673,990.78 600.16,989.24C602.647,987.707 605.753,986.76 609.48,986.4C611.5,986.21 613.26,985.82 613,983.51C612.866,982.301 611.883,981.348 610.67,981.25C605.723,980.837 601.22,981.883 597.16,984.39ZM679.031,985.112C678.755,984.829 678.376,984.67 677.981,984.67C677.597,984.67 677.227,984.821 676.953,985.09L673.88,988.098C673.598,988.375 673.439,988.754 673.439,989.149C673.439,989.533 673.59,989.902 673.859,990.177L673.929,990.249C674.205,990.531 674.584,990.69 674.979,990.69C675.363,990.69 675.733,990.539 676.007,990.27L679.08,987.262C679.362,986.985 679.521,986.606 679.521,986.211C679.521,985.827 679.37,985.458 679.101,985.183L679.031,985.112ZM665.284,990.113C660.885,990.56 657.652,994.732 658.121,999.355C658.591,1003.98 662.597,1007.41 666.996,1006.97C671.395,1006.52 674.628,1002.35 674.159,997.726C673.689,993.103 669.683,989.667 665.284,990.113ZM682.357,994.192C682.056,993.344 680.447,993.128 678.793,993.714C677.138,994.3 676.023,995.48 676.324,996.328C676.624,997.176 678.233,997.392 679.887,996.806C681.542,996.22 682.657,995.04 682.357,994.192ZM596.356,1000.42C595.803,1001.15 596.492,1002.62 597.882,1003.68C599.272,1004.74 600.871,1005.02 601.424,1004.3C601.977,1003.57 601.288,1002.1 599.898,1001.04C598.508,999.978 596.909,999.699 596.356,1000.42ZM609.48,1003.71C604.955,1004.11 601.585,1008.39 602.013,1013.19C602.441,1017.98 606.516,1021.6 611.04,1021.2C615.565,1020.79 618.935,1016.51 618.507,1011.71C618.079,1006.92 614.004,1003.3 609.48,1003.71ZM598.891,1009.35C598.917,1009.24 598.929,1009.12 598.929,1009.01C598.929,1008.31 598.444,1007.7 597.764,1007.55L593.417,1006.55C592.615,1006.37 591.804,1006.88 591.62,1007.68L591.588,1007.82C591.563,1007.93 591.551,1008.04 591.551,1008.15C591.551,1008.85 592.036,1009.46 592.716,1009.61L597.063,1010.61C597.865,1010.79 598.676,1010.28 598.86,1009.48L598.891,1009.35ZM694.32,1012.56C694.632,1011.81 694.272,1010.93 693.522,1010.62L693.43,1010.58C692.681,1010.27 691.807,1010.63 691.495,1011.38L689.22,1016.85C688.908,1017.59 689.268,1018.47 690.018,1018.78L690.11,1018.82C690.859,1019.13 691.733,1018.77 692.045,1018.02L694.32,1012.56ZM687.253,1012.73C687.532,1011.99 687.15,1011.14 686.406,1010.87L686.312,1010.83C686.149,1010.77 685.976,1010.74 685.802,1010.74C685.199,1010.74 684.656,1011.11 684.444,1011.68L681.967,1018.27C681.688,1019.01 682.07,1019.86 682.814,1020.13L682.908,1020.17C683.071,1020.23 683.244,1020.26 683.418,1020.26C684.021,1020.26 684.564,1019.89 684.776,1019.32L687.253,1012.73ZM680.237,1013.38C680.305,1013.2 680.341,1013.01 680.341,1012.83C680.341,1012.21 679.959,1011.64 679.382,1011.42L679.27,1011.38C678.499,1011.07 677.615,1011.46 677.313,1012.23L674.423,1019.6C674.355,1019.78 674.319,1019.97 674.319,1020.15C674.319,1020.77 674.701,1021.34 675.278,1021.56L675.39,1021.61C676.161,1021.91 677.045,1021.52 677.347,1020.75L680.237,1013.38ZM599.285,1015.44C599.285,1015.44 599.285,1015.44 599.285,1015.44C599.136,1014.53 597.534,1014.03 595.737,1014.33C595.737,1014.33 595.737,1014.33 595.737,1014.33C593.94,1014.63 592.585,1015.62 592.735,1016.52C592.735,1016.52 592.735,1016.52 592.735,1016.52C592.884,1017.43 594.486,1017.93 596.283,1017.63C596.283,1017.63 596.283,1017.63 596.283,1017.63C598.08,1017.33 599.435,1016.34 599.285,1015.44ZM617,1041.47C612.97,1042.22 614.37,1047.26 615.37,1050.13C620.55,1065.08 634.23,1075.8 650.38,1073.2C668.06,1070.36 675.31,1053.65 675.14,1037.51C675.09,1033.45 674.78,1026.56 669.19,1028.39C652.897,1033.7 635.5,1038.06 617,1041.47ZM602.396,1032.27C602.456,1032.11 602.486,1031.94 602.486,1031.77C602.486,1031.19 602.125,1030.67 601.581,1030.46L601.488,1030.43C600.769,1030.16 599.955,1030.52 599.683,1031.24L597.004,1038.33C596.944,1038.49 596.914,1038.66 596.914,1038.83C596.914,1039.41 597.275,1039.93 597.819,1040.14L597.912,1040.17C598.631,1040.44 599.445,1040.08 599.717,1039.36L602.396,1032.27ZM608.999,1032.41C609.068,1032.24 609.103,1032.06 609.103,1031.88C609.103,1031.3 608.75,1030.78 608.215,1030.56L608.122,1030.52C607.4,1030.23 606.565,1030.58 606.273,1031.31L604.041,1036.83C603.972,1037 603.937,1037.18 603.937,1037.36C603.937,1037.94 604.29,1038.46 604.825,1038.68L604.918,1038.72C605.64,1039.01 606.475,1038.66 606.767,1037.93L608.999,1032.41ZM595.578,1033.28C595.864,1032.56 595.502,1031.72 594.778,1031.44L594.703,1031.41C593.978,1031.12 593.147,1031.49 592.862,1032.21L590.062,1039.32C589.776,1040.04 590.138,1040.88 590.862,1041.16L590.937,1041.19C591.662,1041.47 592.493,1041.11 592.778,1040.39L595.578,1033.28ZM653.88,1077.86C651.72,1078.37 649.61,1078.32 647.55,1077.71C647.545,1077.71 647.54,1077.71 647.535,1077.71C646.849,1077.51 646.113,1077.96 645.905,1078.7C645.903,1078.71 645.902,1078.71 645.9,1078.72C644.97,1082.22 653.14,1081.46 654.64,1081.11C656.14,1080.76 663.79,1077.8 661.4,1075.08C661.396,1075.08 661.391,1075.07 661.387,1075.07C660.872,1074.5 660.013,1074.42 659.483,1074.9C659.479,1074.9 659.474,1074.91 659.47,1074.91C657.897,1076.37 656.033,1077.35 653.88,1077.86Z" style="fill:white;fill-rule:nonzero;"/>
        <path d="M663.28,914.25L663.63,913.77C663.803,913.69 667.013,915.895 670.79,918.69L671.06,918.89C674.839,921.686 677.888,924.112 677.86,924.3L677.51,924.78L663.28,914.25Z" style="fill:white;fill-rule:nonzero;"/>
        <g transform="matrix(0.848048,-0.529919,0.529919,0.848048,618.11,921.37)">
            <ellipse cx="0" cy="0" rx="2.66" ry="0.46" style="fill:white;"/>
        </g>
        <path d="M634.97,922.31C634.917,922.153 634.916,921.985 634.966,921.83C635.1,921.418 635.567,921.194 636,921.335C636.163,921.388 636.306,921.488 636.41,921.62C636.67,921.967 636.55,922.277 636.05,922.55C635.497,922.85 635.137,922.77 634.97,922.31Z" style="fill:rgb(114,171,157);fill-rule:nonzero;"/>
        <g transform="matrix(0.91706,0.398749,-0.398749,0.91706,659.19,923.97)">
            <path d="M3.34,-0.02L3.34,0.02C3.34,0.235 3.165,0.41 2.95,0.41L-2.95,0.41C-3.165,0.41 -3.34,0.235 -3.34,0.02L-3.34,-0.02C-3.34,-0.235 -3.165,-0.41 -2.95,-0.41L2.95,-0.41C3.165,-0.41 3.34,-0.235 3.34,-0.02Z" style="fill:white;"/>
        </g>
        <g transform="matrix(0.856267,-0.516533,0.516533,0.856267,629.11,924.11)">
            <ellipse cx="0" cy="0" rx="2.43" ry="0.39" style="fill:rgb(114,171,157);"/>
        </g>
        <path d="M594.22,930.12C598.06,927.113 601.677,924.807 605.07,923.2C605.114,923.179 605.162,923.169 605.211,923.169C605.385,923.169 605.53,923.306 605.54,923.48C605.533,923.54 605.46,923.617 605.32,923.71C601.447,926.177 597.98,928.61 594.92,931.01C591.86,933.41 588.67,936.197 585.35,939.37C585.23,939.483 585.14,939.537 585.08,939.53C584.939,939.489 584.842,939.359 584.842,939.213C584.842,939.135 584.87,939.06 584.92,939C587.287,936.093 590.387,933.133 594.22,930.12Z" style="fill:white;fill-rule:nonzero;"/>
        <g transform="matrix(-0.779338,-0.626604,0.626604,-0.779338,673.4,931.37)">
            <ellipse cx="0" cy="0" rx="2.99" ry="0.3" style="fill:white;"/>
        </g>
        <path d="M568.96,932.66C568.96,932.787 568.613,933.343 567.92,934.33C567.867,934.399 567.785,934.439 567.699,934.439C567.545,934.439 567.419,934.312 567.419,934.159C567.419,934.149 567.419,934.14 567.42,934.13C567.427,934.117 567.883,933.603 568.79,932.59C568.809,932.572 568.834,932.561 568.86,932.561C568.914,932.561 568.959,932.606 568.96,932.66Z" style="fill:rgb(114,171,157);fill-rule:nonzero;"/>
        <g transform="matrix(0.709571,-0.704634,0.704634,0.709571,595.68,945.3)">
            <ellipse cx="0" cy="0" rx="4.42" ry="0.39" style="fill:white;"/>
        </g>
        <g transform="matrix(0.745476,0.666532,-0.666532,0.745476,581.94,947.11)">
            <path d="M0.34,-3.95L0.34,3.95C0.34,4.127 0.197,4.27 0.02,4.27L-0.02,4.27C-0.197,4.27 -0.34,4.127 -0.34,3.95L-0.34,-3.95C-0.34,-4.127 -0.197,-4.27 -0.02,-4.27L0.02,-4.27C0.197,-4.27 0.34,-4.127 0.34,-3.95Z" style="fill:white;"/>
        </g>
        <path d="M559.12,960.69C560.96,955.41 562.983,950.587 565.19,946.22C565.517,945.567 565.923,944.993 566.41,944.5C566.432,944.479 566.462,944.468 566.492,944.468C566.558,944.468 566.612,944.522 566.612,944.588C566.612,944.606 566.608,944.624 566.6,944.64C563.847,951.007 561.677,956.47 560.09,961.03C558.51,965.59 556.823,971.22 555.03,977.92C555.013,977.968 554.968,978.001 554.916,978.001C554.862,978.001 554.813,977.963 554.8,977.91C554.727,977.223 554.763,976.523 554.91,975.81C555.883,971.017 557.287,965.977 559.12,960.69Z" style="fill:white;fill-rule:nonzero;"/>
        <path d="M565.74,978.33C565.722,978.388 565.667,978.428 565.606,978.428C565.591,978.428 565.575,978.425 565.56,978.42L565.5,978.4C564.889,978.191 565.506,974.405 566.87,970L568.29,965.39C569.657,960.974 571.291,957.498 571.909,957.69C571.909,957.69 571.97,957.71 571.97,957.71C572.04,957.734 572.08,957.809 572.06,957.88L565.74,978.33Z" style="fill:white;fill-rule:nonzero;"/>
        <g transform="matrix(0.894934,0.446198,-0.446198,0.894934,578.73,972.2)">
            <path d="M0.43,-5.45L0.43,5.45C0.43,5.682 0.242,5.87 0.01,5.87L-0.01,5.87C-0.242,5.87 -0.43,5.682 -0.43,5.45L-0.43,-5.45C-0.43,-5.682 -0.242,-5.87 -0.01,-5.87L0.01,-5.87C0.242,-5.87 0.43,-5.682 0.43,-5.45Z" style="fill:white;"/>
        </g>
        <path d="M663.95,967.51C668.577,967.723 672.757,969.35 676.49,972.39C677.404,973.133 677.665,974.431 677.11,975.47C676.06,977.47 674.44,976.81 672.71,975.86C669.537,974.113 666.533,973.173 663.7,973.04C660.867,972.913 657.79,973.573 654.47,975.02C652.66,975.81 650.99,976.32 650.12,974.24C649.665,973.152 650.049,971.883 651.03,971.23C655.023,968.543 659.33,967.303 663.95,967.51Z" style="fill:rgb(1,1,1);fill-rule:nonzero;"/>
        <path d="M714.28,980.2C714.08,980.273 713.897,980.073 713.73,979.6C712.683,976.567 712.233,975.023 712.38,974.97C712.507,974.917 713.173,976.38 714.38,979.36C714.567,979.82 714.533,980.1 714.28,980.2Z" style="fill:rgb(114,171,157);fill-rule:nonzero;"/>
        <path d="M709.54,981.3C709.526,981.337 709.505,981.37 709.476,981.395C709.366,981.494 709.179,981.468 709.062,981.338C709.03,981.303 709.006,981.263 708.99,981.22C708.903,981 708.923,980.807 709.05,980.64C709.078,980.602 709.113,980.569 709.155,980.545C709.306,980.457 709.499,980.501 709.582,980.644C709.604,980.682 709.617,980.725 709.62,980.77C709.64,980.93 709.613,981.107 709.54,981.3Z" style="fill:rgb(114,171,157);fill-rule:nonzero;"/>
        <g transform="matrix(0.355107,-0.934826,0.934826,0.355107,670.28,984.01)">
            <ellipse cx="0" cy="0" rx="3.41" ry="1.62" style="fill:rgb(1,1,1);"/>
        </g>
        <path d="M597.16,984.39C601.22,981.883 605.723,980.837 610.67,981.25C611.883,981.348 612.866,982.301 613,983.51C613.26,985.82 611.5,986.21 609.48,986.4C605.753,986.76 602.647,987.707 600.16,989.24C597.673,990.78 595.437,993.133 593.45,996.3C592.37,998.02 591.24,999.43 589.29,998.16C588.27,997.499 587.857,996.197 588.31,995.07C590.15,990.457 593.1,986.897 597.16,984.39Z" style="fill:rgb(1,1,1);fill-rule:nonzero;"/>
        <path d="M576.28,982.87C576.285,982.786 576.356,982.72 576.44,982.72C576.443,982.72 576.447,982.72 576.45,982.72L576.53,982.73C576.531,982.73 576.532,982.73 576.533,982.73C577.189,982.785 577.643,983.846 577.54,985.08L577.49,985.62C577.386,986.851 576.764,987.82 576.11,987.77L576.03,987.76C575.946,987.755 575.88,987.684 575.88,987.6C575.88,987.597 575.88,987.593 575.88,987.59L576.28,982.87Z" style="fill:white;fill-rule:nonzero;"/>
        <g transform="matrix(0.714473,-0.699663,0.699663,0.714473,676.48,987.68)">
            <path d="M3.62,-0.05L3.62,0.05C3.62,0.861 2.961,1.52 2.15,1.52L-2.15,1.52C-2.961,1.52 -3.62,0.861 -3.62,0.05L-3.62,-0.05C-3.62,-0.861 -2.961,-1.52 -2.15,-1.52L2.15,-1.52C2.961,-1.52 3.62,-0.861 3.62,-0.05Z" style="fill:rgb(1,1,1);"/>
        </g>
        <path d="M710.98,1013.41C710.893,1013.46 710.797,1013.48 710.698,1013.48C710.393,1013.48 710.135,1013.24 710.11,1012.94C709.463,1005.41 708.057,998.143 705.89,991.15C705.692,990.509 705.799,989.812 706.18,989.26C710.82,982.43 718.8,984.06 721,991.64C723.133,999.02 722.107,1006.07 717.92,1012.8C717.682,1013.19 717.183,1013.33 716.77,1013.13C714.943,1012.23 713.013,1012.32 710.98,1013.41Z" style="fill:white;fill-rule:nonzero;"/>
        <path d="M665.284,990.113C669.683,989.667 673.689,993.103 674.159,997.726C674.628,1002.35 671.395,1006.52 666.996,1006.97C662.597,1007.41 658.591,1003.98 658.121,999.355C657.652,994.732 660.885,990.56 665.284,990.113ZM669,996.12C669,994.825 667.935,993.76 666.64,993.76C665.345,993.76 664.28,994.825 664.28,996.12C664.28,997.415 665.345,998.48 666.64,998.48C667.935,998.48 669,997.415 669,996.12Z" style="fill:rgb(1,1,1);fill-rule:nonzero;"/>
        <path d="M561.89,994.1C561.81,993.8 561.853,993.523 562.02,993.27C562.07,993.196 562.154,993.152 562.243,993.152C562.36,993.152 562.464,993.229 562.5,993.34C562.607,993.733 562.543,994.03 562.31,994.23C562.263,994.27 562.203,994.292 562.141,994.292C562.024,994.292 561.92,994.213 561.89,994.1Z" style="fill:rgb(114,171,157);fill-rule:nonzero;"/>
        <g transform="matrix(0.942641,-0.333807,0.333807,0.942641,679.34,995.26)">
            <ellipse cx="0" cy="0" rx="3.2" ry="1.64" style="fill:rgb(1,1,1);"/>
        </g>
        <circle cx="666.64" cy="996.12" r="2.36" style="fill:white;"/>
        <path d="M548.54,1028.02C548.54,1028.02 548.54,1028.02 548.54,1028.02C548.419,1028.02 548.32,1027.92 548.32,1027.8C548.32,1027.8 548.32,1027.79 548.32,1027.79L548.33,1027.65C548.654,1012.16 549.149,999.367 549.43,999.17L549.77,999.18C549.772,999.178 549.775,999.178 549.777,999.178C550.057,999.183 550.017,1012.05 549.69,1027.68L549.68,1027.82C549.68,1027.94 549.581,1028.04 549.46,1028.04L548.54,1028.02Z" style="fill:rgb(114,171,157);fill-rule:nonzero;"/>
        <g transform="matrix(-0.794415,-0.607376,0.607376,-0.794415,598.89,1002.36)">
            <ellipse cx="0" cy="0" rx="3.19" ry="1.66" style="fill:rgb(1,1,1);"/>
        </g>
        <path d="M609.48,1003.71C614.004,1003.3 618.079,1006.92 618.507,1011.71C618.935,1016.51 615.565,1020.79 611.041,1021.2C606.516,1021.6 602.441,1017.98 602.013,1013.19C601.585,1008.39 604.955,1004.11 609.48,1003.71ZM613.69,1009.58C613.69,1008.32 612.656,1007.29 611.4,1007.29C610.144,1007.29 609.11,1008.32 609.11,1009.58C609.11,1010.84 610.144,1011.87 611.4,1011.87C612.656,1011.87 613.69,1010.84 613.69,1009.58Z" style="fill:rgb(1,1,1);fill-rule:nonzero;"/>
        <g transform="matrix(0.974761,0.22325,-0.22325,0.974761,595.24,1008.58)">
            <path d="M3.73,-0.07L3.73,0.07C3.73,0.898 3.058,1.57 2.23,1.57L-2.23,1.57C-3.058,1.57 -3.73,0.898 -3.73,0.07L-3.73,-0.07C-3.73,-0.898 -3.058,-1.57 -2.23,-1.57L2.23,-1.57C3.058,-1.57 3.73,-0.898 3.73,-0.07Z" style="fill:rgb(1,1,1);"/>
        </g>
        <g transform="matrix(0.0993197,-0.995056,0.995056,0.0993197,557.04,1015.36)">
            <ellipse cx="0" cy="0" rx="8.56" ry="0.66" style="fill:rgb(114,171,157);"/>
        </g>
        <circle cx="611.4" cy="1009.58" r="2.29" style="fill:white;"/>
        <g transform="matrix(0.92321,0.384295,-0.384295,0.92321,691.77,1014.7)">
            <path d="M1.53,-2.96L1.53,2.96C1.53,3.777 0.867,4.44 0.05,4.44L-0.05,4.44C-0.867,4.44 -1.53,3.777 -1.53,2.96L-1.53,-2.96C-1.53,-3.777 -0.867,-4.44 -0.05,-4.44L0.05,-4.44C0.867,-4.44 1.53,-3.777 1.53,-2.96Z" style="fill:rgb(1,1,1);"/>
        </g>
        <g transform="matrix(0.93606,0.351842,-0.351842,0.93606,684.61,1015.5)">
            <path d="M1.5,-3.52L1.5,3.52C1.5,4.32 0.85,4.97 0.05,4.97L-0.05,4.97C-0.85,4.97 -1.5,4.32 -1.5,3.52L-1.5,-3.52C-1.5,-4.32 -0.85,-4.97 -0.05,-4.97L0.05,-4.97C0.85,-4.97 1.5,-4.32 1.5,-3.52Z" style="fill:rgb(1,1,1);"/>
        </g>
        <g transform="matrix(0.931056,0.364877,-0.364877,0.931056,677.33,1016.49)">
            <path d="M1.57,-3.96L1.57,3.96C1.57,4.793 0.893,5.47 0.06,5.47L-0.06,5.47C-0.893,5.47 -1.57,4.793 -1.57,3.96L-1.57,-3.96C-1.57,-4.793 -0.893,-5.47 -0.06,-5.47L0.06,-5.47C0.893,-5.47 1.57,-4.793 1.57,-3.96Z" style="fill:rgb(1,1,1);"/>
        </g>
        <g transform="matrix(0.986572,-0.163326,0.163326,0.986572,596.01,1015.98)">
            <ellipse cx="0" cy="0" rx="3.32" ry="1.67" style="fill:rgb(1,1,1);"/>
        </g>
        <g transform="matrix(-0.111469,-0.993768,0.993768,-0.111469,713.77,1020.41)">
            <ellipse cx="0" cy="0" rx="4.32" ry="4.05" style="fill:white;"/>
        </g>
        <path d="M561.63,1022.51C561.577,1022.37 561.677,1022.18 561.93,1021.94C561.955,1021.92 561.981,1021.89 562.008,1021.87C562.478,1021.46 563.097,1021.4 563.38,1021.73C563.394,1021.74 563.408,1021.76 563.42,1021.78C563.547,1021.98 563.503,1022.2 563.29,1022.44C563.234,1022.5 563.173,1022.56 563.107,1022.61C562.62,1022.99 561.993,1023.02 561.718,1022.67C561.681,1022.62 561.652,1022.57 561.63,1022.51Z" style="fill:rgb(114,171,157);fill-rule:nonzero;"/>
        <path d="M568.93,1022.99C568.977,1023.56 568.99,1023.91 568.97,1024.06C568.935,1024.32 568.714,1024.51 568.455,1024.51C568.406,1024.51 568.357,1024.5 568.31,1024.49C567.67,1024.3 567.32,1023.85 567.26,1023.15C567.193,1022.44 567.457,1021.94 568.05,1021.64C568.123,1021.6 568.204,1021.58 568.286,1021.58C568.51,1021.58 568.71,1021.73 568.78,1021.94C568.827,1022.08 568.877,1022.43 568.93,1022.99Z" style="fill:white;fill-rule:nonzero;"/>
        <path d="M615.37,1050.13C614.37,1047.26 612.97,1042.22 617,1041.47C635.5,1038.06 652.897,1033.7 669.19,1028.39C674.78,1026.56 675.09,1033.45 675.14,1037.51C675.31,1053.65 668.06,1070.36 650.38,1073.2C634.23,1075.8 620.55,1065.08 615.37,1050.13ZM619.17,1044.74C618.79,1044.8 618.64,1045 618.72,1045.34C618.773,1045.61 618.967,1045.85 619.3,1046.06C630.7,1053.26 652.42,1046.69 663.02,1040.99C666.01,1039.38 669.84,1036.33 670.37,1032.94C670.374,1032.91 670.376,1032.88 670.376,1032.85C670.376,1032.5 670.088,1032.21 669.736,1032.21C669.67,1032.21 669.603,1032.22 669.54,1032.24C652.587,1037.87 635.797,1042.03 619.17,1044.74ZM649.55,1060.07C644.477,1061.55 640.207,1064.02 636.74,1067.47C636.634,1067.58 636.574,1067.72 636.574,1067.87C636.574,1068.11 636.73,1068.33 636.96,1068.4C642.347,1070.22 647.413,1070.44 652.16,1069.05C656.913,1067.67 661.073,1064.77 664.64,1060.34C664.721,1060.24 664.764,1060.12 664.764,1059.99C664.764,1059.72 664.578,1059.49 664.32,1059.44C659.547,1058.39 654.623,1058.6 649.55,1060.07Z" style="fill:rgb(1,1,1);fill-rule:nonzero;"/>
        <g transform="matrix(-0.052336,-0.99863,0.99863,-0.052336,726.09,1039.15)">
            <ellipse cx="0" cy="0" rx="10.15" ry="0.51" style="fill:rgb(114,171,157);"/>
        </g>
        <g transform="matrix(0.935444,0.353475,-0.353475,0.935444,599.7,1035.3)">
            <path d="M1.45,-3.79L1.45,3.79C1.45,4.563 0.823,5.19 0.05,5.19L-0.05,5.19C-0.823,5.19 -1.45,4.563 -1.45,3.79L-1.45,-3.79C-1.45,-4.563 -0.823,-5.19 -0.05,-5.19L0.05,-5.19C0.823,-5.19 1.45,-4.563 1.45,-3.79Z" style="fill:rgb(1,1,1);"/>
        </g>
        <g transform="matrix(0.927184,0.374607,-0.374607,0.927184,606.52,1034.62)">
            <path d="M1.47,-2.98L1.47,2.98C1.47,3.764 0.834,4.4 0.05,4.4L-0.05,4.4C-0.834,4.4 -1.47,3.764 -1.47,2.98L-1.47,-2.98C-1.47,-3.764 -0.834,-4.4 -0.05,-4.4L0.05,-4.4C0.834,-4.4 1.47,-3.764 1.47,-2.98Z" style="fill:rgb(1,1,1);"/>
        </g>
        <g transform="matrix(0.930418,0.366501,-0.366501,0.930418,592.82,1036.3)">
            <path d="M1.46,-3.82L1.46,3.82C1.46,4.604 0.824,5.24 0.04,5.24L-0.04,5.24C-0.824,5.24 -1.46,4.604 -1.46,3.82L-1.46,-3.82C-1.46,-4.604 -0.824,-5.24 -0.04,-5.24L0.04,-5.24C0.824,-5.24 1.46,-4.604 1.46,-3.82Z" style="fill:rgb(1,1,1);"/>
        </g>
        <path d="M619.17,1044.74C635.797,1042.03 652.587,1037.87 669.54,1032.24C669.603,1032.22 669.67,1032.21 669.736,1032.21C670.088,1032.21 670.376,1032.5 670.376,1032.85C670.376,1032.88 670.374,1032.91 670.37,1032.94C669.84,1036.33 666.01,1039.38 663.02,1040.99C652.42,1046.69 630.7,1053.26 619.3,1046.06C618.967,1045.85 618.773,1045.61 618.72,1045.34C618.64,1045 618.79,1044.8 619.17,1044.74Z" style="fill:white;fill-rule:nonzero;"/>
        <g transform="matrix(-0.698415,-0.715693,0.715693,-0.698415,556.91,1058.15)">
            <ellipse cx="0" cy="0" rx="1.16" ry="0.24" style="fill:white;"/>
        </g>
        <circle cx="573.23" cy="1061.53" r="4.37" style="fill:white;"/>
        <g transform="matrix(0.999994,-0.00349065,0.00349065,0.999994,726.56,1062.67)">
            <path d="M0.45,-4.55L0.45,4.55C0.45,4.787 0.257,4.98 0.02,4.98L-0.02,4.98C-0.257,4.98 -0.45,4.787 -0.45,4.55L-0.45,-4.55C-0.45,-4.787 -0.257,-4.98 -0.02,-4.98L0.02,-4.98C0.257,-4.98 0.45,-4.787 0.45,-4.55Z" style="fill:rgb(114,171,157);"/>
        </g>
        <path d="M652.16,1069.05C647.413,1070.44 642.347,1070.22 636.96,1068.4C636.73,1068.33 636.574,1068.11 636.574,1067.87C636.574,1067.72 636.634,1067.58 636.74,1067.47C640.207,1064.02 644.477,1061.55 649.55,1060.07C654.623,1058.6 659.547,1058.39 664.32,1059.44C664.578,1059.49 664.764,1059.72 664.764,1059.99C664.764,1060.12 664.721,1060.24 664.64,1060.34C661.073,1064.77 656.913,1067.67 652.16,1069.05Z" style="fill:white;fill-rule:nonzero;"/>
        <g transform="matrix(0.932954,-0.359997,0.359997,0.932954,553.09,1068.51)">
            <path d="M0.39,-6.96L0.39,6.96C0.39,7.164 0.224,7.33 0.02,7.33L-0.02,7.33C-0.224,7.33 -0.39,7.164 -0.39,6.96L-0.39,-6.96C-0.39,-7.164 -0.224,-7.33 -0.02,-7.33L0.02,-7.33C0.224,-7.33 0.39,-7.164 0.39,-6.96Z" style="fill:white;"/>
        </g>
        <g transform="matrix(0.045363,-0.998971,0.998971,0.045363,705.79,1078.39)">
            <ellipse cx="0" cy="0" rx="13.24" ry="0.61" style="fill:rgb(114,171,157);"/>
        </g>
        <path d="M694.27,1068.84C694.31,1068.41 694.5,1068.1 694.84,1067.9C694.891,1067.87 694.951,1067.85 695.012,1067.85C695.188,1067.85 695.332,1067.99 695.332,1068.17C695.332,1068.22 695.321,1068.27 695.3,1068.31C695.173,1068.57 694.997,1068.82 694.77,1069.06C694.715,1069.12 694.639,1069.15 694.559,1069.15C694.4,1069.15 694.269,1069.02 694.269,1068.86C694.269,1068.85 694.27,1068.85 694.27,1068.84Z" style="fill:rgb(114,171,157);fill-rule:nonzero;"/>
        <g transform="matrix(-0.803857,-0.594823,0.594823,-0.803857,570.37,1069.66)">
            <ellipse cx="0" cy="0" rx="0.97" ry="0.42" style="fill:white;"/>
        </g>
        <g transform="matrix(-0.572146,-0.820152,0.820152,-0.572146,562.32,1070.6)">
            <ellipse cx="0" cy="0" rx="1.67" ry="0.42" style="fill:white;"/>
        </g>
        <path d="M715.2,1090.7C715.195,1090.76 715.143,1090.81 715.08,1090.81C715.077,1090.81 715.073,1090.81 715.07,1090.81L715.02,1090.81C714.401,1090.79 713.985,1088.06 714.1,1084.76L714.34,1078.1C714.34,1078.1 714.34,1078.1 714.34,1078.1C714.455,1074.8 715.06,1072.1 715.68,1072.12C715.68,1072.12 715.73,1072.12 715.73,1072.12C715.792,1072.12 715.84,1072.18 715.84,1072.24C715.84,1072.24 715.84,1072.25 715.84,1072.25L715.2,1090.7Z" style="fill:rgb(114,171,157);fill-rule:nonzero;"/>
        <path d="M654.64,1081.11C653.14,1081.46 644.97,1082.22 645.9,1078.72C645.902,1078.71 645.903,1078.71 645.905,1078.7C646.113,1077.96 646.849,1077.51 647.535,1077.71C647.54,1077.71 647.545,1077.71 647.55,1077.71C649.61,1078.32 651.72,1078.37 653.88,1077.86C656.033,1077.35 657.897,1076.37 659.47,1074.91C659.474,1074.91 659.479,1074.9 659.483,1074.9C660.013,1074.42 660.872,1074.5 661.387,1075.07C661.391,1075.07 661.396,1075.08 661.4,1075.08C663.79,1077.8 656.14,1080.76 654.64,1081.11Z" style="fill:rgb(1,1,1);fill-rule:nonzero;"/>
        <path d="M685.5,1078.72C685.7,1078.49 685.97,1078.37 686.31,1078.34C686.34,1078.34 686.369,1078.34 686.395,1078.36C686.52,1078.41 686.554,1078.61 686.47,1078.8C686.452,1078.84 686.428,1078.88 686.4,1078.91C686.267,1079.08 686.087,1079.2 685.86,1079.27C685.825,1079.28 685.789,1079.29 685.753,1079.29C685.566,1079.29 685.413,1079.13 685.413,1078.95C685.413,1078.86 685.444,1078.78 685.5,1078.72Z" style="fill:rgb(114,171,157);fill-rule:nonzero;"/>
        <path d="M724.51,1099.55C723.277,1094.1 722.66,1089.22 722.66,1084.93C722.66,1084.93 722.66,1084.93 722.66,1084.93C722.66,1084.72 722.832,1084.55 723.04,1084.55C723.092,1084.55 723.143,1084.56 723.19,1084.58C723.243,1084.61 723.283,1084.73 723.31,1084.92C723.963,1090.13 724.783,1094.91 725.77,1099.26C726.75,1103.61 728.07,1108.27 729.73,1113.26C729.79,1113.45 729.8,1113.57 729.76,1113.62C729.688,1113.7 729.587,1113.74 729.481,1113.74C729.336,1113.74 729.204,1113.66 729.14,1113.53C727.287,1109.66 725.743,1105 724.51,1099.55Z" style="fill:rgb(114,171,157);fill-rule:nonzero;"/>
        <g transform="matrix(-0.534352,-0.845262,0.845262,-0.534352,591.87,1086.51)">
            <ellipse cx="0" cy="0" rx="1.74" ry="0.28" style="fill:rgb(114,171,157);"/>
        </g>
        <path d="M633.65,1095.12C633.647,1095.1 633.647,1095.08 633.648,1095.05C633.663,1094.84 633.85,1094.68 634.063,1094.7C634.086,1094.7 634.108,1094.7 634.13,1094.71C649.257,1098.52 663.173,1096.13 675.88,1087.54C675.923,1087.51 675.97,1087.49 676.019,1087.47C676.325,1087.37 676.664,1087.54 676.769,1087.85C676.786,1087.9 676.797,1087.96 676.8,1088.01C677.3,1096.48 678.45,1104.68 680.25,1112.61C681.223,1116.91 683.653,1120.03 687.54,1121.96C688.051,1122.22 688.296,1122.82 688.11,1123.36C685.883,1129.9 681.59,1134.73 675.23,1137.84C662.023,1144.29 648.937,1144.06 635.97,1137.15C634.177,1136.2 632.96,1135.32 632.32,1134.5C632.244,1134.4 632.18,1134.29 632.13,1134.17L625.43,1118.01C625.319,1117.74 625.449,1117.42 625.72,1117.3C633.78,1113.48 634.63,1102.95 633.65,1095.12Z" style="fill:white;fill-rule:nonzero;"/>
        <path d="M690.15,1104.04C690.15,1104.11 690.096,1104.16 690.03,1104.16L689.99,1104.17C689.399,1104.17 688.777,1100.74 688.61,1096.56L688.59,1096.25C688.59,1096.25 688.59,1096.25 688.59,1096.25C688.421,1092.05 688.77,1088.58 689.362,1088.56C689.365,1088.56 689.367,1088.56 689.37,1088.56L689.41,1088.56C689.472,1088.56 689.525,1088.61 689.53,1088.67L690.15,1104.04Z" style="fill:rgb(114,171,157);fill-rule:nonzero;"/>
        <g transform="matrix(-0.694658,-0.71934,0.71934,-0.694658,611.78,1098.16)">
            <ellipse cx="0" cy="0" rx="1.34" ry="0.53" style="fill:rgb(114,171,157);"/>
        </g>
        <g transform="matrix(0.996493,-0.0836778,0.0836778,0.996493,704.97,1108.54)">
            <path d="M0.64,-9.77L0.64,9.77C0.64,10.112 0.362,10.39 0.02,10.39L-0.02,10.39C-0.362,10.39 -0.64,10.112 -0.64,9.77L-0.64,-9.77C-0.64,-10.112 -0.362,-10.39 -0.02,-10.39L0.02,-10.39C0.362,-10.39 0.64,-10.112 0.64,-9.77Z" style="fill:rgb(114,171,157);"/>
        </g>
        <path d="M577.79,1106.06C578.037,1105.93 578.27,1106.1 578.49,1106.57C579.87,1109.55 580.497,1111.07 580.37,1111.13C580.223,1111.2 579.383,1109.79 577.85,1106.88C577.61,1106.43 577.59,1106.15 577.79,1106.06Z" style="fill:rgb(114,171,157);fill-rule:nonzero;"/>
        <path d="M564.97,1120.32C564.58,1118.15 564.17,1113.64 565.22,1111.08C565.267,1110.95 565.392,1110.86 565.531,1110.86C565.712,1110.86 565.861,1111.01 565.861,1111.19C565.861,1111.2 565.86,1111.2 565.86,1111.21C565.81,1114.2 565.76,1117.35 566.26,1120.09C566.76,1122.82 567.91,1125.75 569.01,1128.53C569.028,1128.57 569.037,1128.62 569.037,1128.66C569.037,1128.84 568.888,1128.99 568.707,1128.99C568.613,1128.99 568.523,1128.95 568.46,1128.88C566.58,1126.86 565.37,1122.49 564.97,1120.32Z" style="fill:rgb(114,171,157);fill-rule:nonzero;"/>
        <path d="M574.56,1110.88C574.623,1110.89 574.68,1110.93 574.724,1110.97C574.857,1111.11 574.846,1111.34 574.699,1111.48C574.649,1111.53 574.587,1111.56 574.52,1111.58C574.247,1111.65 574.06,1111.62 573.96,1111.47C573.813,1111.26 573.82,1111.09 573.98,1110.97C574.147,1110.86 574.34,1110.83 574.56,1110.88Z" style="fill:rgb(114,171,157);fill-rule:nonzero;"/>
        <g transform="matrix(0.954761,-0.297375,0.297375,0.954761,602.04,1116.61)">
            <path d="M0.47,-2.79L0.47,2.79C0.47,3.038 0.268,3.24 0.02,3.24L-0.02,3.24C-0.268,3.24 -0.47,3.038 -0.47,2.79L-0.47,-2.79C-0.47,-3.038 -0.268,-3.24 -0.02,-3.24L0.02,-3.24C0.268,-3.24 0.47,-3.038 0.47,-2.79Z" style="fill:white;"/>
        </g>
        <path d="M593.78,1121.98C593.788,1121.99 593.783,1122.01 593.77,1122.02L593.58,1122.14C593.578,1122.14 593.576,1122.14 593.573,1122.14C593.206,1122.36 592.171,1121.31 591.28,1119.82C591.28,1119.82 589.68,1117.14 589.68,1117.14C589.679,1117.14 589.678,1117.14 589.677,1117.14C588.787,1115.64 588.357,1114.23 588.724,1114.01C588.726,1114.01 588.728,1114.01 588.73,1114.01L588.93,1113.9C588.944,1113.89 588.961,1113.9 588.97,1113.91L593.78,1121.98Z" style="fill:white;fill-rule:nonzero;"/>
        <path d="M690.63,1118.5C690.63,1118.57 690.61,1118.66 690.57,1118.76C690.553,1118.8 690.529,1118.83 690.5,1118.86C690.374,1118.99 690.173,1119 690.055,1118.89C690.027,1118.86 690.004,1118.83 689.99,1118.79C689.937,1118.66 689.97,1118.51 690.09,1118.36C690.118,1118.33 690.154,1118.3 690.195,1118.27C690.345,1118.19 690.528,1118.24 690.6,1118.37C690.62,1118.41 690.631,1118.46 690.63,1118.5Z" style="fill:rgb(114,171,157);fill-rule:nonzero;"/>
        <g transform="matrix(0.887815,-0.4602,0.4602,0.887815,575.51,1124.32)">
            <path d="M0.61,-2.18L0.61,2.18C0.61,2.5 0.35,2.76 0.03,2.76L-0.03,2.76C-0.35,2.76 -0.61,2.5 -0.61,2.18L-0.61,-2.18C-0.61,-2.5 -0.35,-2.76 -0.03,-2.76L0.03,-2.76C0.35,-2.76 0.61,-2.5 0.61,-2.18Z" style="fill:rgb(114,171,157);"/>
        </g>
        <g transform="matrix(-0.350207,-0.936672,0.936672,-0.350207,605.16,1126.89)">
            <ellipse cx="0" cy="0" rx="3.38" ry="0.27" style="fill:rgb(114,171,157);"/>
        </g>
        <path d="M710.2,1254.8C709.933,1255.19 709.617,1255.4 709.25,1255.43C688.957,1256.85 670.833,1257.89 654.88,1258.55C638.81,1259.21 622.52,1258.28 606.27,1257.22C599.57,1256.78 593.21,1255.97 586.53,1255.17C584.11,1254.88 581.877,1254.38 579.83,1253.66C580.637,1241.27 582.467,1229.13 585.32,1217.24C585.474,1216.59 585.962,1216.07 586.6,1215.87C588.653,1215.24 589.817,1214.32 590.09,1213.09C591.37,1207.27 593.24,1198.34 595.7,1186.3C595.895,1185.36 595.313,1184.42 594.38,1184.16L594.26,1184.12C594.099,1184.07 593.931,1184.04 593.762,1184.04C592.984,1184.04 592.306,1184.59 592.14,1185.35L586.5,1210.51C586.328,1211.28 585.593,1211.81 584.8,1211.73C570.5,1210.22 557.42,1205.89 545.56,1198.72C545.387,1198.62 545.301,1198.41 545.35,1198.21C550.94,1175.59 559.75,1153.29 575.5,1135.79C577.147,1133.96 579.08,1132.57 581.3,1131.62C581.649,1131.47 582.064,1131.61 582.25,1131.95C587.923,1142.19 595.123,1151.67 603.85,1160.38C608.923,1165.45 614.403,1169.05 620.29,1171.18C622.51,1171.98 623.71,1170.21 625.67,1169.84C626.034,1169.77 626.416,1169.85 626.73,1170.06C628.19,1171.04 629.27,1171.52 629.97,1171.51C630.87,1171.48 631.443,1171.26 631.69,1170.85C631.713,1170.81 631.735,1170.77 631.755,1170.73C632.208,1169.8 631.773,1168.63 630.791,1168.16C630.748,1168.14 630.704,1168.12 630.66,1168.1C628.913,1167.39 627.62,1166.71 626.78,1166.06C626.651,1165.97 626.575,1165.82 626.575,1165.66C626.575,1165.39 626.796,1165.17 627.065,1165.17C627.121,1165.17 627.177,1165.18 627.23,1165.2C628.89,1165.73 630.52,1165.64 632.12,1164.93C632.753,1164.65 633.162,1164.02 633.162,1163.32C633.162,1163.02 633.082,1162.72 632.93,1162.45L631.77,1160.44C631.734,1160.38 631.715,1160.31 631.715,1160.25C631.715,1160.04 631.882,1159.88 632.085,1159.88C632.171,1159.88 632.254,1159.9 632.32,1159.96L635.74,1162.63C635.983,1162.82 636.282,1162.92 636.59,1162.92C637.016,1162.92 637.419,1162.73 637.68,1162.39L637.89,1162.12C638.228,1161.69 638.272,1161.1 638,1160.63L631.75,1149.8C631.707,1149.73 631.689,1149.64 631.7,1149.56C631.724,1149.36 631.906,1149.21 632.102,1149.24C632.185,1149.25 632.263,1149.29 632.32,1149.35C636.64,1153.58 640.32,1156.21 646.15,1157.77C647.207,1158.05 648.332,1157.58 648.88,1156.62L649.01,1156.39C649.131,1156.18 649.195,1155.95 649.195,1155.71C649.195,1155.08 648.755,1154.53 648.14,1154.39L644.16,1153.5C643.186,1153.28 642.346,1152.67 641.85,1151.8L636.96,1143.33C636.931,1143.28 636.915,1143.22 636.912,1143.16C636.902,1142.95 637.06,1142.77 637.263,1142.76C637.324,1142.76 637.385,1142.77 637.44,1142.8C650.24,1148.66 662.99,1148.61 675.69,1142.66C683.397,1139.05 688.837,1133.45 692.01,1125.86C692.059,1125.75 692.171,1125.67 692.294,1125.67C692.429,1125.67 692.549,1125.76 692.59,1125.89C694.94,1133.78 695.69,1143.72 691.95,1151.46C691.817,1151.73 691.767,1152 691.8,1152.25C691.822,1152.41 691.873,1152.57 691.951,1152.72C692.305,1153.38 693.138,1153.64 693.796,1153.29C693.941,1153.21 694.072,1153.11 694.18,1152.98C696.86,1149.9 697.49,1145.99 698.09,1141.85C698.12,1141.63 698.307,1141.47 698.526,1141.47C698.558,1141.47 698.589,1141.47 698.62,1141.48L698.87,1141.54C698.905,1141.55 698.93,1141.58 698.93,1141.61C698.897,1146.99 698.06,1151.86 696.42,1156.23C696.353,1156.41 696.318,1156.6 696.318,1156.79C696.318,1157.54 696.861,1158.19 697.6,1158.32L697.73,1158.34C698.721,1158.52 699.706,1157.94 700.03,1156.99C701.377,1153.04 702.23,1150.66 702.59,1149.86C702.73,1149.53 702.9,1149.32 703.1,1149.24C703.125,1149.23 703.153,1149.22 703.181,1149.22C703.29,1149.22 703.381,1149.31 703.381,1149.42C703.381,1149.43 703.38,1149.43 703.38,1149.44C702.913,1153.8 701.497,1157.44 699.13,1160.35C698.883,1160.65 698.748,1161.03 698.748,1161.42C698.748,1161.95 698.993,1162.45 699.41,1162.77L699.56,1162.88C699.842,1163.1 700.188,1163.22 700.545,1163.22C701.073,1163.22 701.57,1162.95 701.87,1162.52C705.19,1157.73 707.337,1153.07 708.31,1148.54C709.77,1141.73 710.827,1136.85 711.48,1133.91C711.53,1133.7 711.716,1133.56 711.927,1133.56C712.087,1133.56 712.237,1133.64 712.32,1133.78L713.31,1135.51C713.512,1135.86 713.885,1136.08 714.289,1136.08C714.637,1136.08 714.966,1135.91 715.18,1135.64L716.01,1134.59C716.261,1134.27 716.725,1134.2 717.05,1134.44C723.26,1138.97 729.09,1143.04 733.28,1149.96C741.7,1163.86 745.77,1181.35 747.71,1197.27C747.78,1197.82 747.477,1198.36 746.97,1198.58C737.71,1202.74 727.85,1205.77 717.39,1207.66C717.344,1207.67 717.296,1207.67 717.249,1207.67C716.83,1207.67 716.48,1207.34 716.46,1206.92L715.54,1187.83C715.497,1186.93 714.744,1186.21 713.842,1186.21C713.72,1186.21 713.599,1186.22 713.48,1186.25L713.44,1186.26C712.445,1186.48 711.741,1187.38 711.77,1188.4C712.103,1199.51 712.263,1207.71 712.25,1213C712.21,1226.66 711.463,1240.41 710.01,1254.25C709.997,1254.35 710.06,1254.53 710.2,1254.8Z" style="fill:rgb(114,171,157);fill-rule:nonzero;"/>
        <g transform="matrix(0.826098,-0.563526,0.563526,0.826098,603.79,1138.96)">
            <path d="M0.45,-8.93L0.45,8.93C0.45,9.073 0.333,9.19 0.19,9.19L-0.19,9.19C-0.333,9.19 -0.45,9.073 -0.45,8.93L-0.45,-8.93C-0.45,-9.073 -0.333,-9.19 -0.19,-9.19L0.19,-9.19C0.333,-9.19 0.45,-9.073 0.45,-8.93Z" style="fill:rgb(114,171,157);"/>
        </g>
        <circle cx="724.75" cy="1134.12" r="0.26" style="fill:rgb(114,171,157);"/>
        <g transform="matrix(0.826098,-0.563526,0.563526,0.826098,630.96,1141.76)">
            <path d="M0.42,-3.75L0.42,3.75C0.42,3.971 0.241,4.15 0.02,4.15L-0.02,4.15C-0.241,4.15 -0.42,3.971 -0.42,3.75L-0.42,-3.75C-0.42,-3.971 -0.241,-4.15 -0.02,-4.15L0.02,-4.15C0.241,-4.15 0.42,-3.971 0.42,-3.75Z" style="fill:rgb(114,171,157);"/>
        </g>
        <g transform="matrix(-0.634731,-0.772734,0.772734,-0.634731,737.88,1140.53)">
            <ellipse cx="0" cy="0" rx="2.95" ry="0.43" style="fill:rgb(114,171,157);"/>
        </g>
        <g transform="matrix(-0.695913,-0.718126,0.718126,-0.695913,734.77,1144.16)">
            <ellipse cx="0" cy="0" rx="1.63" ry="0.44" style="fill:rgb(114,171,157);"/>
        </g>
        <g transform="matrix(-0.653421,-0.756995,0.756995,-0.653421,607.68,1152.92)">
            <ellipse cx="0" cy="0" rx="7.03" ry="0.32" style="fill:rgb(114,171,157);"/>
        </g>
        <g transform="matrix(0.732543,-0.680721,0.680721,0.732543,621.32,1155.31)">
            <path d="M0.49,-6.54L0.49,6.54C0.49,6.689 0.369,6.81 0.22,6.81L-0.22,6.81C-0.369,6.81 -0.49,6.689 -0.49,6.54L-0.49,-6.54C-0.49,-6.689 -0.369,-6.81 -0.22,-6.81L0.22,-6.81C0.369,-6.81 0.49,-6.689 0.49,-6.54Z" style="fill:rgb(114,171,157);"/>
        </g>
        <g transform="matrix(0.869495,0.493942,-0.493942,0.869495,616.77,1165.38)">
            <path d="M4.75,-0.02L4.75,0.02C4.75,0.274 4.544,0.48 4.29,0.48L-4.29,0.48C-4.544,0.48 -4.75,0.274 -4.75,0.02L-4.75,-0.02C-4.75,-0.274 -4.544,-0.48 -4.29,-0.48L4.29,-0.48C4.544,-0.48 4.75,-0.274 4.75,-0.02Z" style="fill:rgb(114,171,157);"/>
        </g>
        <path d="M742.12,1251.54C738.827,1251.54 735.53,1251.6 732.23,1251.71C726.27,1251.92 720.37,1252.97 714.46,1253.98C715.9,1240.19 716.617,1226.48 716.61,1212.83C716.612,1212.53 716.838,1212.26 717.14,1212.22C725.067,1211.07 732.827,1208.96 740.42,1205.9C740.475,1205.88 740.534,1205.87 740.593,1205.87C740.83,1205.87 741.031,1206.05 741.06,1206.28C742.81,1221.48 743.67,1235.85 742.12,1251.54Z" style="fill:white;fill-rule:nonzero;"/>
        <path d="M575.62,1253.39C566.453,1253.44 558.83,1253.36 552.75,1253.16C550.243,1253.08 547.173,1252.81 543.54,1252.36C544.613,1237.05 546.753,1221.83 549.96,1206.7C549.997,1206.52 550.157,1206.39 550.342,1206.39C550.404,1206.39 550.465,1206.4 550.52,1206.43C559.987,1211.2 569.953,1214.23 580.42,1215.52C580.439,1215.52 580.457,1215.53 580.475,1215.53C580.89,1215.61 581.163,1216.02 581.081,1216.44C581.078,1216.46 581.074,1216.47 581.07,1216.49C577.91,1228.52 576.093,1240.82 575.62,1253.39Z" style="fill:white;fill-rule:nonzero;"/>
    </g>
</svg>
