<?xml version="1.0" encoding="UTF-8" standalone="no"?>
<!DOCTYPE svg PUBLIC "-//W3C//DTD SVG 1.1//EN" "http://www.w3.org/Graphics/SVG/1.1/DTD/svg11.dtd">
<svg width="100%" height="100%" viewBox="0 0 218 365" version="1.1" xmlns="http://www.w3.org/2000/svg" xmlns:xlink="http://www.w3.org/1999/xlink" xml:space="preserve" xmlns:serif="http://www.serif.com/" style="fill-rule:evenodd;clip-rule:evenodd;stroke-linejoin:round;stroke-miterlimit:2;">
    <g transform="matrix(1,0,0,1,-539.829,-474.175)">
        <path d="M742.18,831.38C742.8,823.65 743.42,815.55 742.96,808.15C742.54,801.363 741.933,794.01 741.14,786.09C741.107,785.776 740.839,785.534 740.523,785.534C740.443,785.534 740.364,785.55 740.29,785.58C732.683,788.62 724.98,790.683 717.18,791.77C716.878,791.814 716.652,792.075 716.65,792.38C716.65,805.78 715.877,819.527 714.33,833.62L709.84,834.61C712.193,812.563 712.82,790.5 711.72,768.42C711.669,767.394 712.363,766.47 713.36,766.24L713.42,766.23C713.463,766.221 713.505,766.213 713.549,766.207C714.44,766.083 715.274,766.71 715.397,767.596C715.403,767.641 715.408,767.685 715.41,767.73L716.49,786.48C716.491,786.493 716.492,786.507 716.494,786.52C716.548,786.961 716.951,787.28 717.387,787.227C717.401,787.225 717.416,787.223 717.43,787.22C727.903,785.32 737.69,782.413 746.79,778.5C747.379,778.254 747.732,777.637 747.65,777C746.223,765.993 743.713,755.12 740.12,744.38C737.06,735.25 732.21,726.2 724.86,720.15C723.873,719.337 721.307,717.367 717.16,714.24C717.061,714.167 716.952,714.113 716.84,714.08C716.407,713.96 715.863,714.39 715.21,715.37C714.979,715.723 714.585,715.937 714.163,715.937C713.717,715.937 713.303,715.697 713.08,715.31L712.2,713.8C712.123,713.659 711.975,713.571 711.814,713.571C711.6,713.571 711.415,713.728 711.38,713.94C710.36,719.6 709.18,725.15 707.84,730.59C707.133,733.45 705.23,737.377 702.13,742.37C701.723,743.025 700.895,743.29 700.19,742.99L699.77,742.82C699.2,742.583 698.827,742.024 698.827,741.407C698.827,741.089 698.926,740.779 699.11,740.52C701.69,736.887 703.167,733.003 703.54,728.87C703.54,728.865 703.54,728.861 703.54,728.856C703.54,728.746 703.45,728.656 703.34,728.656C703.264,728.656 703.193,728.701 703.16,728.77L699.73,737C699.457,737.658 698.756,738.041 698.05,737.92L697.8,737.88C697.763,737.874 697.726,737.866 697.689,737.856C696.902,737.657 696.417,736.85 696.615,736.068C696.625,736.028 696.637,735.989 696.65,735.95C698.117,731.65 698.897,726.89 698.99,721.67C698.991,721.625 698.958,721.583 698.91,721.57L698.57,721.5C698.542,721.493 698.514,721.49 698.485,721.49C698.305,721.49 698.149,721.622 698.12,721.8C697.43,725.79 696.94,728.8 694.38,732.32C693.907,732.967 693.347,733.143 692.7,732.85C692.699,732.85 692.699,732.85 692.698,732.849C692.095,732.587 691.789,731.933 692.02,731.4C695.61,723.09 695.11,714.49 692.75,705.75C692.688,705.531 692.487,705.379 692.259,705.379C692.055,705.379 691.87,705.502 691.79,705.69C688.377,713.61 682.72,719.32 674.82,722.82C662.327,728.353 649.867,728.353 637.44,722.82C637.404,722.804 637.365,722.796 637.326,722.796C637.172,722.796 637.046,722.922 637.046,723.076C637.046,723.115 637.054,723.154 637.07,723.19C639.14,727.86 641.9,734.43 647.87,734.41C647.874,734.41 647.878,734.41 647.882,734.41C648.606,734.41 649.202,735.006 649.202,735.73C649.202,735.828 649.191,735.925 649.17,736.02L649.11,736.3C648.862,737.392 647.809,738.122 646.7,737.97C641.14,737.21 636.19,732.88 632.31,729.46C632.241,729.406 632.157,729.377 632.07,729.377C631.856,729.377 631.68,729.553 631.68,729.767C631.68,729.827 631.693,729.886 631.72,729.94L637.98,740.78C638.325,741.378 638.117,742.154 637.52,742.5L637.24,742.66C636.618,743.017 635.84,742.961 635.28,742.52L632.26,740.16C632.198,740.111 632.122,740.084 632.043,740.084C631.851,740.084 631.693,740.242 631.693,740.434C631.693,740.496 631.709,740.557 631.74,740.61L632.9,742.63C633.065,742.915 633.152,743.238 633.152,743.567C633.152,744.337 632.677,745.031 631.96,745.31C630.747,745.783 629.247,745.817 627.46,745.41C627.394,745.389 627.325,745.378 627.255,745.378C626.886,745.378 626.583,745.681 626.583,746.05C626.583,746.341 626.772,746.601 627.05,746.69L631.02,748.35C631.023,748.351 631.025,748.352 631.028,748.353C631.783,748.666 632.145,749.549 631.83,750.309C631.83,750.309 631.83,750.31 631.83,750.31L631.63,750.8C631.324,751.531 630.472,751.882 629.74,751.58L625.69,749.89C625.42,749.776 625.112,749.795 624.86,749.94C624.433,750.18 624.027,750.453 623.64,750.76C622.6,751.589 621.195,751.786 619.99,751.27C612.917,748.23 606.71,743.757 601.37,737.85C594.837,730.623 590.477,725.323 588.29,721.95C586.163,718.657 584.073,715.2 582.02,711.58C582.018,711.577 582.016,711.573 582.014,711.57C581.829,711.253 581.411,711.146 581.089,711.335C581.086,711.336 581.083,711.338 581.08,711.34C578.927,712.647 577.037,714.173 575.41,715.92C571.177,720.46 567.707,724.99 565,729.51C555.9,744.703 549.477,760.86 545.73,777.98C545.641,778.367 545.828,778.766 546.18,778.94C558.7,785.35 570.96,790.17 585,791.35C585.623,791.4 586.193,790.98 586.33,790.37L591.99,765.24C592.221,764.203 593.209,763.497 594.27,763.61L594.4,763.62C595.244,763.693 595.899,764.407 595.899,765.254C595.899,765.374 595.886,765.493 595.86,765.61C593.913,774.377 592.113,782.827 590.46,790.96C589.92,793.61 589.04,795.17 586.42,795.38C585.919,795.429 585.5,795.791 585.38,796.28C582.48,808.42 580.66,820.747 579.92,833.26L575.53,833C576.037,820.413 577.827,808.23 580.9,796.45C580.921,796.372 580.931,796.293 580.931,796.212C580.931,795.752 580.586,795.359 580.13,795.3C569.983,793.9 560.24,790.9 550.9,786.3C550.814,786.259 550.72,786.238 550.625,786.238C550.326,786.238 550.064,786.448 550,786.74C546.707,801.567 544.593,816.673 543.66,832.06C542.573,832.387 541.51,832.433 540.47,832.2C540.085,832.114 539.815,831.759 539.83,831.36C540.697,815.467 542.903,799.83 546.45,784.45C546.569,783.932 546.297,783.4 545.81,783.2L543.05,782.05C541.899,781.573 541.233,780.345 541.46,779.12C544.92,759.95 553.19,740.3 563.63,724.14C563.897,723.727 565.787,721.307 569.3,716.88C569.506,716.624 569.484,716.247 569.25,716.01C568.28,714.98 566.85,714.09 565.82,712.7C561.813,707.307 560.043,701.493 560.51,695.26C561.417,683.1 559.293,672.31 554.14,662.89C545.02,646.217 540.953,628.593 541.94,610.02C542.533,598.907 543.483,585.403 544.79,569.51C545.503,560.863 546.863,552.47 548.87,544.33C550.87,536.22 554.99,527.18 558.99,519.51C565.62,506.8 574.93,498.14 585.92,489.19C594.44,482.25 607.24,476.71 618.3,476.07C618.879,476.037 619.44,475.873 619.94,475.59C624.04,473.29 633.24,473.56 636.41,478.14C636.576,478.38 636.724,478.634 636.85,478.9L638.64,482.69C638.74,482.909 638.867,483.114 639.02,483.3C639.82,484.287 640.87,485.133 642.17,485.84C642.271,485.895 642.385,485.925 642.501,485.925C642.866,485.925 643.171,485.635 643.19,485.27C643.54,479 647.46,476.26 653.58,476.28C663.36,476.32 673.12,482.1 679.85,488.91C688.13,497.283 695.27,506.733 701.27,517.26C709.11,531.01 715.89,546.05 718.7,561.09C718.778,561.54 718.983,561.96 719.29,562.3C719.657,562.72 720.14,563.203 720.74,563.75C724.96,567.62 725.73,573.25 725.79,578.69C725.797,579.81 726.05,581.683 726.55,584.31C729.357,599.03 730.99,612.347 731.45,624.26C731.59,627.96 731.627,638.04 731.56,654.5C731.547,658.027 732.067,662.667 733.12,668.42C735.6,681.96 738.923,694.12 743.09,704.9C745.18,710.33 749.24,718.42 755.85,719.77C756.583,719.92 757.113,720.57 757.113,721.318C757.113,721.528 757.071,721.736 756.99,721.93L756.72,722.58C756.455,723.216 755.83,723.633 755.141,723.633C754.914,723.633 754.689,723.588 754.48,723.5L744.28,719.25C744.211,719.222 744.137,719.208 744.062,719.208C743.744,719.208 743.482,719.469 743.482,719.788C743.482,719.836 743.488,719.883 743.5,719.93C744.34,723.07 746.35,724.37 749.63,726.47C749.686,726.506 749.74,726.545 749.791,726.588C750.445,727.132 750.532,728.121 749.984,728.778C749.942,728.828 749.897,728.876 749.85,728.92L749.59,729.17C749.046,729.719 748.218,729.885 747.5,729.59L741.48,727.08C741.154,726.946 740.783,726.949 740.45,727.09L738.04,728.1C737.767,728.213 737.588,728.48 737.588,728.775C737.588,728.891 737.616,729.006 737.67,729.11C745.07,743.21 748.87,758.55 751.52,774.75C751.78,776.317 751.917,777.513 751.93,778.34C751.943,779.332 751.414,780.256 750.55,780.75L745.56,783.64C745.003,783.961 744.688,784.587 744.76,785.23C746.69,801.38 747.88,815.19 746.23,830.8C746.2,831.117 745.989,831.39 745.69,831.5C744.65,831.88 743.48,831.84 742.18,831.38ZM628.296,478.085C628.296,478.085 628.296,478.085 628.296,478.085C628.201,478.366 629.303,478.996 630.737,479.481C630.737,479.481 630.737,479.481 630.737,479.482C632.171,479.967 633.429,480.135 633.524,479.855C633.524,479.855 633.524,479.855 633.524,479.855C633.619,479.574 632.517,478.944 631.083,478.459C631.083,478.459 631.083,478.459 631.083,478.459C629.649,477.973 628.391,477.805 628.296,478.085ZM605.429,483.265C605.365,483.144 605.212,483.096 605.091,483.16L590.867,490.66C590.745,490.724 590.698,490.876 590.762,490.998L590.771,491.015C590.835,491.136 590.988,491.184 591.109,491.12L605.333,483.62C605.455,483.556 605.502,483.404 605.438,483.283L605.429,483.265ZM674.98,493.92C670.38,488.64 662.03,483.08 654.68,483.5C654.516,483.51 654.385,483.646 654.38,483.81L654.38,483.82C654.385,483.995 654.525,484.14 654.7,484.15C663.51,484.82 668.23,489.09 674.82,494.1C674.842,494.12 674.871,494.13 674.9,494.13C674.966,494.13 675.02,494.076 675.02,494.01C675.02,493.976 675.006,493.943 674.98,493.92ZM617.88,484.98C617.85,485.53 618.53,485.53 618.76,485.2C618.887,485.02 618.913,484.837 618.84,484.65C618.63,484.08 617.91,484.53 617.88,484.98ZM622.239,485.293C622.108,485.678 622.557,486.182 623.233,486.411C623.233,486.411 623.233,486.411 623.233,486.411C623.908,486.64 624.571,486.511 624.701,486.127C624.832,485.742 624.383,485.238 623.707,485.009C623.707,485.009 623.707,485.009 623.707,485.009C623.032,484.78 622.369,484.909 622.239,485.293ZM637.025,487.568C637.025,487.568 637.025,487.568 637.025,487.568C636.876,487.778 637.284,488.327 637.928,488.784C638.573,489.24 639.226,489.443 639.375,489.232C639.375,489.232 639.375,489.232 639.375,489.232C639.524,489.022 639.116,488.473 638.472,488.016C637.827,487.56 637.174,487.357 637.025,487.568ZM648.43,487.7C648.4,487.652 648.357,487.612 648.305,487.588C648.161,487.519 647.988,487.577 647.922,487.716C647.898,487.766 647.89,487.824 647.9,487.88C647.913,487.993 647.987,488.11 648.12,488.23C648.161,488.269 648.215,488.291 648.272,488.291C648.382,488.291 648.475,488.209 648.49,488.1C648.51,487.933 648.49,487.8 648.43,487.7ZM591.07,497.08C587.34,499.68 583.2,502.89 580.85,506.56C580.836,506.584 580.83,506.613 580.833,506.642C580.84,506.713 580.9,506.766 580.966,506.759C580.994,506.756 581.02,506.742 581.04,506.72C584.947,502.94 588.457,499.963 591.57,497.79C594.69,495.617 598.697,493.35 603.59,490.99C603.612,490.979 603.63,490.961 603.64,490.939C603.669,490.88 603.64,490.805 603.576,490.774C603.556,490.764 603.533,490.759 603.51,490.76C599.25,491.7 594.81,494.48 591.07,497.08ZM641.32,495.32L642.78,498.17C642.904,498.411 642.953,498.683 642.92,498.95C642.52,502.337 640.64,504.777 637.28,506.27C635.43,507.1 632.82,506.6 631.02,507.84C627.387,510.36 622.273,514.737 615.68,520.97C614.4,522.19 613.35,522.143 612.53,520.83C612.522,520.817 612.513,520.804 612.503,520.791C612.304,520.523 611.922,520.463 611.658,520.659C611.645,520.669 611.632,520.679 611.62,520.69C586.71,541.99 577.46,573.89 574.31,605.22C574.08,607.54 573.54,608.99 571.79,610.22C571.164,610.664 570.314,610.644 569.71,610.17C566.18,607.39 562.92,604.98 558.37,607.58C550.83,611.87 551.45,621.88 555.35,628.54C557.703,632.547 561.117,635.59 565.59,637.67C565.878,637.805 566.226,637.732 566.44,637.49C566.607,637.31 566.983,636.8 567.57,635.96C570.65,631.57 576.11,632.28 579.55,636.07C579.888,636.447 580.386,636.64 580.89,636.59L581.37,636.55C581.854,636.5 582.33,636.709 582.62,637.1C593.153,651.433 607.023,661.353 624.23,666.86C639.33,671.7 654.2,673.56 668.62,665.9C686.68,656.3 698.61,636.84 702.99,617.2C705.5,605.97 706.67,593.46 704.32,582.07C700.2,562.13 692.92,542.65 679.75,527.01C679.489,526.699 679.36,526.297 679.39,525.89C679.403,525.723 679.453,525.553 679.54,525.38C679.759,524.943 679.704,524.418 679.4,524.04C675.733,519.46 672.123,515.853 668.57,513.22C665.12,510.66 658.39,507.92 655.26,506.65C654.24,506.237 652.183,504.807 649.09,502.36C647.917,501.42 647.583,499.887 648.09,497.76C648.204,497.306 647.998,496.829 647.59,496.6C645.737,495.54 645.183,494.29 645.93,492.85C646.001,492.713 646.039,492.561 646.039,492.406C646.039,491.959 645.726,491.568 645.29,491.47L644,491.18C643.921,491.163 643.84,491.154 643.76,491.154C643.215,491.154 642.742,491.545 642.64,492.08C642.467,492.96 642.077,493.713 641.47,494.34C641.219,494.597 641.159,494.99 641.32,495.32ZM670.24,498.83C672.74,500.72 674.74,502.73 676.98,504.19C677.008,504.206 677.039,504.215 677.072,504.215C677.17,504.215 677.252,504.134 677.252,504.035C677.252,503.993 677.237,503.952 677.21,503.92C675.143,501.613 673.027,499.643 670.86,498.01C668.693,496.377 666.213,494.883 663.42,493.53C663.398,493.521 663.374,493.516 663.35,493.516C663.251,493.516 663.17,493.597 663.17,493.696C663.17,493.747 663.192,493.796 663.23,493.83C665.25,495.57 667.73,496.95 670.24,498.83ZM620.346,499.657C620.231,499.464 619.1,499.92 617.841,500.667C616.581,501.415 615.64,502.19 615.754,502.383C615.869,502.576 617,502.12 618.259,501.373C619.519,500.625 620.46,499.85 620.346,499.657ZM636.009,501.072C636.009,501.072 636.009,501.072 636.009,501.072C635.821,500.857 635.446,500.874 635.178,501.109C634.909,501.344 634.843,501.713 635.031,501.928C635.031,501.928 635.031,501.928 635.031,501.928C635.219,502.143 635.594,502.126 635.862,501.891C636.131,501.656 636.197,501.287 636.009,501.072ZM662.25,504.935C662.272,504.886 662.284,504.833 662.284,504.779C662.284,504.635 662.201,504.504 662.071,504.444L656.379,501.789C656.33,501.767 656.277,501.755 656.223,501.755C656.079,501.755 655.948,501.838 655.887,501.969L655.87,502.005C655.848,502.054 655.836,502.107 655.836,502.161C655.836,502.305 655.919,502.436 656.049,502.496L661.741,505.151C661.79,505.173 661.843,505.185 661.897,505.185C662.041,505.185 662.172,505.102 662.233,504.972L662.25,504.935ZM627.35,504.69C627.437,504.843 628.38,504.427 630.18,503.44C630.667,503.18 630.837,502.93 630.69,502.69C630.543,502.45 630.24,502.48 629.78,502.78C628.067,503.907 627.257,504.543 627.35,504.69ZM594.23,509.9C590.483,512.833 587.453,515.72 585.14,518.56C585.092,518.617 585.066,518.69 585.066,518.765C585.066,518.904 585.157,519.028 585.29,519.07C585.35,519.083 585.44,519.033 585.56,518.92C588.8,515.827 591.917,513.107 594.91,510.76C597.903,508.42 601.29,506.05 605.07,503.65C605.21,503.557 605.283,503.483 605.29,503.43C605.286,503.257 605.143,503.118 604.97,503.118C604.922,503.118 604.874,503.129 604.83,503.15C601.517,504.717 597.983,506.967 594.23,509.9ZM671.783,509.925C671.783,509.925 671.783,509.925 671.783,509.925C671.676,510.057 672.481,510.886 673.565,511.761C674.65,512.636 675.63,513.247 675.737,513.115C675.737,513.115 675.737,513.115 675.737,513.115C675.844,512.983 675.039,512.154 673.955,511.279C672.87,510.404 671.89,509.793 671.783,509.925ZM598.922,522.004C599.045,521.879 599.044,521.675 598.919,521.551L598.905,521.537C598.845,521.478 598.764,521.445 598.68,521.445C598.594,521.445 598.512,521.48 598.452,521.54L592.638,527.436C592.515,527.561 592.516,527.765 592.641,527.889L592.656,527.903C592.715,527.962 592.796,527.995 592.88,527.995C592.966,527.995 593.048,527.96 593.108,527.9L598.922,522.004ZM559.21,540.19C557.343,545.53 555.91,550.627 554.91,555.48C554.763,556.2 554.727,556.907 554.8,557.6C554.811,557.656 554.861,557.697 554.918,557.697C554.968,557.697 555.012,557.666 555.03,557.62C556.857,550.84 558.577,545.143 560.19,540.53C561.803,535.923 564.01,530.4 566.81,523.96C566.814,523.948 566.816,523.936 566.816,523.923C566.816,523.857 566.762,523.803 566.696,523.803C566.668,523.803 566.641,523.813 566.62,523.83C566.127,524.323 565.713,524.9 565.38,525.56C563.14,529.973 561.083,534.85 559.21,540.19ZM584.856,523.534C584.691,523.381 583.203,524.716 581.559,526.491C579.915,528.266 578.699,529.853 578.864,530.006C579.029,530.159 580.517,528.824 582.161,527.049C583.805,525.274 585.021,523.687 584.856,523.534ZM565.77,558.16L572.21,537.08C572.23,537.009 572.19,536.934 572.12,536.91L572.05,536.89C571.371,536.696 569.368,541.26 567.61,547.01L567.5,547.35C565.741,553.104 564.847,558.012 565.52,558.23L565.59,558.25C565.605,558.255 565.621,558.258 565.636,558.258C565.697,558.258 565.752,558.218 565.77,558.16ZM581.607,547.449C581.633,547.395 581.646,547.336 581.646,547.276C581.646,547.122 581.558,546.982 581.42,546.915L581.384,546.898C581.329,546.872 581.27,546.858 581.21,546.858C581.057,546.858 580.916,546.947 580.85,547.085L576.053,557.051C576.027,557.105 576.014,557.164 576.014,557.224C576.014,557.378 576.102,557.518 576.24,557.585L576.276,557.602C576.331,557.628 576.39,557.642 576.45,557.642C576.603,557.642 576.744,557.553 576.81,557.415L581.607,547.449ZM714.17,559.75C714.437,559.663 714.483,559.383 714.31,558.91C713.223,555.837 712.613,554.32 712.48,554.36C712.327,554.413 712.713,556 713.64,559.12C713.787,559.607 713.963,559.817 714.17,559.75ZM709.15,560.16C708.93,560.06 708.76,560.16 708.64,560.46C708.627,560.505 708.627,560.551 708.64,560.59C708.687,560.737 708.82,560.77 709.04,560.69C709.079,560.676 709.117,560.655 709.15,560.628C709.287,560.517 709.326,560.335 709.236,560.224C709.214,560.196 709.184,560.174 709.15,560.16ZM576.29,562.82L576.05,567.69C576.05,567.693 576.05,567.697 576.05,567.7C576.05,567.779 576.112,567.845 576.19,567.85L576.28,567.85C576.958,567.884 577.572,566.824 577.64,565.5C577.64,565.5 577.66,565.16 577.66,565.16C577.727,563.834 577.223,562.715 576.544,562.68C576.543,562.68 576.541,562.68 576.54,562.68L576.45,562.67C576.447,562.67 576.443,562.67 576.44,562.67C576.358,562.67 576.29,562.737 576.29,562.82C576.29,562.82 576.29,562.82 576.29,562.82ZM710.83,593.3C712.903,592.193 714.867,592.097 716.72,593.01C717.138,593.215 717.647,593.072 717.89,592.68C722.15,585.84 723.197,578.667 721.03,571.16C718.8,563.45 710.69,561.79 705.96,568.74C705.575,569.302 705.468,570.01 705.67,570.66C707.87,577.773 709.297,585.16 709.95,592.82C709.976,593.129 710.237,593.37 710.548,593.37C710.646,593.37 710.743,593.346 710.83,593.3ZM562,574.21C562.043,574.365 562.186,574.473 562.347,574.473C562.476,574.473 562.596,574.403 562.66,574.29C562.833,573.99 562.857,573.667 562.73,573.32C562.714,573.274 562.69,573.232 562.659,573.194C562.53,573.038 562.305,573.008 562.161,573.127C562.127,573.155 562.1,573.19 562.08,573.23C561.92,573.53 561.893,573.857 562,574.21ZM548.51,607.87L549.59,607.89C549.711,607.89 549.81,607.791 549.81,607.67L549.81,607.46C549.81,607.459 549.81,607.458 549.81,607.458C550.052,592.061 549.93,579.386 549.541,579.38C549.541,579.38 549.44,579.38 549.44,579.38C549.051,579.393 548.532,592.055 548.29,607.44L548.29,607.65C548.29,607.771 548.389,607.87 548.51,607.87ZM558.376,587.363C558.41,587.025 558.16,586.719 557.821,586.685L557.761,586.679C557.741,586.677 557.72,586.676 557.7,586.676C557.383,586.676 557.114,586.919 557.083,587.234L555.524,602.857C555.49,603.195 555.74,603.501 556.079,603.535L556.139,603.541C556.159,603.543 556.18,603.544 556.2,603.544C556.517,603.544 556.786,603.301 556.817,602.986L558.376,587.363ZM717.99,600.16C717.99,597.845 716.085,595.94 713.77,595.94C711.455,595.94 709.55,597.845 709.55,600.16C709.55,602.475 711.455,604.38 713.77,604.38C716.085,604.38 717.99,602.475 717.99,600.16ZM563.281,600.848C563.073,600.593 562.573,600.649 562.172,600.974C562.172,600.974 562.172,600.974 562.172,600.974C561.772,601.298 561.612,601.776 561.819,602.032C561.819,602.032 561.819,602.032 561.819,602.032C562.027,602.287 562.527,602.231 562.928,601.906C562.928,601.906 562.928,601.906 562.928,601.906C563.328,601.582 563.488,601.104 563.281,600.848C563.281,600.848 563.281,600.848 563.281,600.848ZM567.36,602.47C567.367,603.163 567.61,603.657 568.09,603.95C568.176,604.004 568.276,604.033 568.377,604.033C568.599,604.033 568.799,603.896 568.88,603.69C568.907,603.61 568.917,603.197 568.91,602.45C568.903,601.697 568.88,601.283 568.84,601.21C568.754,601.015 568.559,600.888 568.346,600.888C568.245,600.888 568.146,600.916 568.06,600.97C567.58,601.277 567.347,601.777 567.36,602.47ZM725.333,607.096C725.333,607.096 725.333,607.096 725.333,607.096C725.053,607.112 725.098,612.186 725.431,618.338C725.431,618.338 725.431,618.338 725.431,618.338C725.764,624.489 726.268,629.539 726.547,629.524C726.547,629.524 726.547,629.524 726.547,629.524C726.827,629.508 726.782,624.434 726.449,618.282C726.449,618.282 726.449,618.282 726.449,618.282C726.116,612.131 725.612,607.081 725.333,607.096ZM577.62,641.35C577.62,638.947 575.643,636.97 573.24,636.97C570.837,636.97 568.86,638.947 568.86,641.35C568.86,643.753 570.837,645.73 573.24,645.73C575.643,645.73 577.62,643.753 577.62,641.35ZM557.47,638.11C557.037,637.557 556.757,637.263 556.63,637.23C556.606,637.223 556.581,637.22 556.556,637.22C556.402,637.22 556.276,637.346 556.276,637.5C556.276,637.57 556.302,637.638 556.35,637.69C556.763,638.123 557.06,638.37 557.24,638.43C557.273,638.444 557.309,638.448 557.344,638.442C557.452,638.425 557.527,638.318 557.509,638.204C557.503,638.17 557.49,638.138 557.47,638.11ZM726.86,638.26C726.86,638.063 726.697,637.9 726.5,637.9L726.48,637.9C726.283,637.9 726.12,638.063 726.12,638.26L726.12,646.76C726.12,646.957 726.283,647.12 726.48,647.12L726.5,647.12C726.697,647.12 726.86,646.957 726.86,646.76L726.86,638.26ZM551.111,641.844C551.052,641.695 550.908,641.596 550.748,641.596C550.699,641.596 550.651,641.605 550.605,641.623L550.568,641.638C550.419,641.696 550.32,641.841 550.32,642.001C550.32,642.05 550.33,642.098 550.347,642.143L555.149,654.396C555.208,654.545 555.352,654.644 555.512,654.644C555.561,654.644 555.609,654.635 555.655,654.617L555.692,654.602C555.841,654.544 555.94,654.399 555.94,654.239C555.94,654.19 555.93,654.142 555.913,654.097L551.111,641.844ZM706.821,646.024C706.821,646.017 706.822,646.011 706.822,646.004C706.822,645.765 706.631,645.565 706.392,645.554L706.352,645.553C706.345,645.552 706.338,645.552 706.332,645.552C706.092,645.552 705.893,645.743 705.882,645.982L704.739,671.156C704.739,671.163 704.738,671.169 704.738,671.176C704.738,671.415 704.929,671.615 705.168,671.626L705.208,671.628C705.215,671.628 705.222,671.628 705.228,671.628C705.468,671.628 705.667,671.437 705.678,671.198L706.821,646.024ZM695.15,647.83C695.152,647.793 695.146,647.757 695.132,647.724C695.076,647.581 694.899,647.515 694.741,647.578C694.704,647.593 694.669,647.614 694.64,647.64C694.347,647.907 694.193,648.16 694.18,648.4C694.177,648.453 694.185,648.507 694.203,648.558C694.274,648.754 694.485,648.86 694.67,648.794C694.719,648.776 694.763,648.747 694.8,648.71C695.02,648.49 695.137,648.197 695.15,647.83ZM569.632,648.904C569.493,649.081 569.68,649.464 570.047,649.752C570.413,650.041 570.829,650.132 570.968,649.956C571.107,649.779 570.92,649.396 570.553,649.108C570.187,648.819 569.771,648.728 569.632,648.904ZM561.43,649.093C561.271,649.21 561.528,649.833 562,650.474C562,650.474 562,650.474 562,650.474C562.472,651.114 562.992,651.544 563.15,651.427C563.15,651.427 563.15,651.427 563.15,651.427C563.309,651.31 563.052,650.687 562.58,650.046C562.58,650.046 562.58,650.046 562.58,650.046C562.108,649.406 561.588,648.976 561.43,649.093C561.43,649.093 561.43,649.093 561.43,649.093ZM714.06,670.02L715.1,670.05C715.103,670.05 715.107,670.05 715.11,670.05C715.184,670.05 715.245,669.993 715.25,669.92L715.52,661.11C715.681,655.977 715.546,651.737 715.22,651.69L715.1,651.68C715.098,651.68 715.097,651.68 715.095,651.68C714.766,651.669 714.362,655.906 714.2,661.066C714.2,661.067 714.2,661.069 714.2,661.07L713.93,669.87C713.93,669.873 713.93,669.877 713.93,669.88C713.93,669.954 713.987,670.015 714.06,670.02ZM590.325,664.686C590.325,664.686 590.325,664.686 590.325,664.686C590.189,664.787 590.62,665.608 591.281,666.504C591.941,667.4 592.598,668.055 592.735,667.954C592.735,667.954 592.735,667.954 592.735,667.954C592.871,667.853 592.44,667.032 591.779,666.136C591.119,665.24 590.462,664.585 590.325,664.686ZM724.45,679.65C725.71,685.09 727.273,689.743 729.14,693.61C729.202,693.744 729.337,693.829 729.484,693.829C729.594,693.829 729.698,693.782 729.77,693.7C729.803,693.647 729.79,693.527 729.73,693.34C728.05,688.36 726.707,683.7 725.7,679.36C724.7,675.02 723.86,670.243 723.18,665.03C723.153,664.837 723.11,664.723 723.05,664.69C723.005,664.672 722.958,664.663 722.91,664.663C722.703,664.663 722.532,664.833 722.53,665.04C722.543,669.333 723.183,674.203 724.45,679.65ZM633.53,675.05C634.55,682.87 633.74,693.41 625.69,697.27C625.423,697.392 625.298,697.708 625.41,697.98L632.18,714.12C632.233,714.24 632.3,714.35 632.38,714.45C633.02,715.27 634.24,716.15 636.04,717.09C649.047,723.937 662.14,724.107 675.32,717.6C681.673,714.46 685.947,709.613 688.14,703.06C688.326,702.519 688.081,701.918 687.57,701.66C683.67,699.747 681.223,696.64 680.23,692.34C678.39,684.407 677.203,676.207 676.67,667.74C676.667,667.687 676.656,667.634 676.639,667.583C676.533,667.272 676.193,667.101 675.887,667.205C675.835,667.223 675.785,667.248 675.74,667.28C663.067,675.933 649.157,678.383 634.01,674.63C633.987,674.624 633.964,674.621 633.94,674.619C633.727,674.606 633.54,674.766 633.527,674.974C633.525,674.999 633.526,675.025 633.53,675.05ZM689.71,683.95L689.47,668.21C689.47,668.21 689.47,668.21 689.47,668.209C689.47,668.155 689.425,668.109 689.37,668.109C689.367,668.109 689.363,668.11 689.36,668.11L689.32,668.11C688.742,668.15 688.323,671.658 688.39,675.9L688.39,676.3C688.457,680.561 688.991,684.059 689.572,684.05C689.575,684.05 689.577,684.05 689.58,684.05L689.62,684.05C689.671,684.045 689.71,684.001 689.71,683.95ZM611.048,676.718C610.871,676.839 611.029,677.382 611.398,677.92C611.767,678.459 612.216,678.803 612.392,678.682C612.569,678.561 612.411,678.018 612.042,677.48C611.673,676.941 611.224,676.597 611.048,676.718ZM704.617,678.463C704.588,678.145 704.318,677.899 703.999,677.899C703.98,677.899 703.962,677.9 703.943,677.902L703.903,677.905C703.564,677.936 703.311,678.24 703.342,678.579L705.144,698.377C705.172,698.695 705.442,698.941 705.761,698.941C705.78,698.941 705.798,698.94 705.817,698.938L705.857,698.935C706.196,698.904 706.449,698.6 706.418,698.261L704.617,678.463ZM565.03,700.31C565.42,702.48 566.62,706.85 568.49,708.87C568.552,708.936 568.639,708.974 568.73,708.974C568.911,708.974 569.06,708.825 569.06,708.644C569.06,708.605 569.053,708.566 569.04,708.53C567.95,705.75 566.81,702.82 566.32,700.08C565.83,697.34 565.88,694.19 565.94,691.2C565.936,691.022 565.788,690.877 565.61,690.877C565.481,690.877 565.364,690.953 565.31,691.07C564.25,693.62 564.64,698.14 565.03,700.31ZM575.04,691.32C575.04,691.068 574.832,690.86 574.58,690.86C574.328,690.86 574.12,691.068 574.12,691.32C574.12,691.572 574.328,691.78 574.58,691.78C574.832,691.78 575.04,691.572 575.04,691.32ZM588.092,693.522C588.092,693.522 588.092,693.522 588.092,693.522C587.821,693.689 588.794,695.762 590.246,698.115C590.246,698.115 590.247,698.115 590.247,698.115C591.699,700.467 593.118,702.265 593.388,702.098C593.388,702.098 593.388,702.098 593.388,702.098C593.659,701.931 592.686,699.858 591.234,697.505C591.234,697.505 591.233,697.505 591.233,697.505C589.781,695.153 588.362,693.355 588.092,693.522ZM601.679,693.863C601.603,693.623 601.342,693.487 601.101,693.564L601.063,693.576C600.873,693.636 600.742,693.814 600.742,694.014C600.742,694.061 600.75,694.108 600.764,694.153L602.421,699.377C602.497,699.617 602.758,699.753 602.999,699.676L603.037,699.664C603.227,699.604 603.358,699.426 603.358,699.226C603.358,699.179 603.35,699.132 603.336,699.087L601.679,693.863ZM690.64,698.74C690.64,698.66 690.623,698.597 690.59,698.55C690.555,698.503 690.513,698.462 690.466,698.428C690.23,698.258 689.907,698.297 689.749,698.515C689.718,698.559 689.695,698.608 689.68,698.66C689.633,698.84 689.75,698.983 690.03,699.09C690.053,699.099 690.077,699.106 690.101,699.112C690.342,699.167 690.581,699.031 690.631,698.812C690.636,698.788 690.639,698.764 690.64,698.74ZM574.213,701.861C573.856,702.055 574.149,703.289 574.86,704.594C574.86,704.594 574.86,704.594 574.86,704.594C575.572,705.899 576.451,706.814 576.807,706.619C576.807,706.619 576.807,706.619 576.807,706.619C577.164,706.425 576.871,705.191 576.16,703.886C576.16,703.886 576.16,703.886 576.16,703.886C575.448,702.581 574.569,701.666 574.213,701.861C574.213,701.861 574.213,701.861 574.213,701.861ZM606.1,709.75C606.353,709.67 606.38,709.34 606.18,708.76C604.907,705.013 604.177,703.17 603.99,703.23C603.83,703.283 604.287,705.21 605.36,709.01C605.533,709.603 605.78,709.85 606.1,709.75ZM598.95,711.09L598.48,711.4C598.41,711.45 598.392,711.548 598.44,711.62L608.59,726.89C608.68,727.027 608.919,727.032 609.12,726.9C609.319,726.767 609.409,726.547 609.32,726.41L599.17,711.13C599.12,711.06 599.022,711.042 598.95,711.09ZM736.22,718.205C736.22,718.205 736.22,718.205 736.22,718.205C736.043,718.344 736.745,719.547 737.776,720.872C737.776,720.872 737.776,720.872 737.776,720.872C738.808,722.196 739.802,723.173 739.98,723.035C739.98,723.035 739.98,723.035 739.98,723.035C740.157,722.896 739.455,721.693 738.424,720.368C738.424,720.368 738.424,720.368 738.424,720.368C737.392,719.044 736.398,718.067 736.22,718.205ZM628.558,718.649C628.398,718.773 629.381,720.328 630.736,722.095C632.092,723.862 633.34,725.214 633.502,725.091C633.662,724.967 632.679,723.412 631.324,721.645C629.968,719.878 628.72,718.526 628.558,718.649ZM733.434,722.81C733.259,722.985 733.597,723.611 734.181,724.198C734.181,724.198 734.181,724.198 734.181,724.198C734.766,724.784 735.391,725.124 735.566,724.95C735.566,724.95 735.566,724.95 735.566,724.95C735.741,724.775 735.403,724.149 734.819,723.562C734.819,723.562 734.819,723.562 734.819,723.562C734.234,722.976 733.609,722.636 733.434,722.81C733.434,722.81 733.434,722.81 733.434,722.81ZM603.205,727.301C603.154,727.24 603.078,727.204 602.998,727.204C602.935,727.204 602.873,727.227 602.824,727.268L602.763,727.319C602.702,727.371 602.667,727.446 602.667,727.526C602.667,727.59 602.69,727.651 602.731,727.7L611.555,738.179C611.606,738.24 611.682,738.276 611.762,738.276C611.825,738.276 611.887,738.253 611.936,738.212L611.997,738.16C612.058,738.109 612.093,738.034 612.093,737.954C612.093,737.89 612.07,737.829 612.029,737.78L603.205,727.301ZM626.09,740.31L616.96,729.88C616.945,729.868 616.925,729.868 616.91,729.88L616.88,729.9C616.477,730.277 617.607,732.253 619.39,734.29L622.04,737.32C623.83,739.363 625.642,740.742 626.06,740.38L626.09,740.36C626.102,740.345 626.102,740.325 626.09,740.31ZM621.318,748.05C621.452,747.817 621.371,747.515 621.138,747.381L613.371,742.915C613.137,742.781 612.836,742.862 612.702,743.095L612.682,743.13C612.548,743.363 612.629,743.665 612.862,743.799L620.63,748.265C620.863,748.399 621.164,748.318 621.298,748.085L621.318,748.05Z" style="fill:rgb(1,1,1);fill-rule:nonzero;"/>
        <g transform="matrix(-0.94721,-0.320613,0.320613,-0.94721,630.91,478.97)">
            <ellipse cx="0" cy="0" rx="2.76" ry="0.54" style="fill:rgb(114,171,157);"/>
        </g>
        <g transform="matrix(0.884581,-0.466387,0.466387,0.884581,598.1,487.14)">
            <path d="M8.29,-0.01L8.29,0.01C8.29,0.148 8.178,0.26 8.04,0.26L-8.04,0.26C-8.178,0.26 -8.29,0.148 -8.29,0.01L-8.29,-0.01C-8.29,-0.148 -8.178,-0.26 -8.04,-0.26L8.04,-0.26C8.178,-0.26 8.29,-0.148 8.29,-0.01Z" style="fill:white;"/>
        </g>
        <path d="M674.98,493.92C675.006,493.943 675.02,493.976 675.02,494.01C675.02,494.076 674.966,494.13 674.9,494.13C674.871,494.13 674.842,494.12 674.82,494.1C668.23,489.09 663.51,484.82 654.7,484.15C654.525,484.14 654.385,483.995 654.38,483.82L654.38,483.81C654.385,483.646 654.516,483.51 654.68,483.5C662.03,483.08 670.38,488.64 674.98,493.92Z" style="fill:white;fill-rule:nonzero;"/>
        <path d="M618.76,485.2C618.53,485.53 617.85,485.53 617.88,484.98C617.91,484.53 618.63,484.08 618.84,484.65C618.913,484.837 618.887,485.02 618.76,485.2Z" style="fill:rgb(114,171,157);fill-rule:nonzero;"/>
        <g transform="matrix(-0.94721,-0.320613,0.320613,-0.94721,623.47,485.71)">
            <ellipse cx="0" cy="0" rx="1.3" ry="0.74" style="fill:white;"/>
        </g>
        <g transform="matrix(-0.816138,-0.577858,0.577858,-0.816138,638.2,488.4)">
            <ellipse cx="0" cy="0" rx="1.44" ry="0.47" style="fill:rgb(114,171,157);"/>
        </g>
        <path d="M648.43,487.7C648.49,487.8 648.51,487.933 648.49,488.1C648.475,488.209 648.382,488.291 648.272,488.291C648.215,488.291 648.161,488.269 648.12,488.23C647.987,488.11 647.913,487.993 647.9,487.88C647.89,487.824 647.898,487.766 647.922,487.716C647.988,487.577 648.161,487.519 648.305,487.588C648.357,487.612 648.4,487.652 648.43,487.7Z" style="fill:rgb(114,171,157);fill-rule:nonzero;"/>
        <path d="M591.07,497.08C594.81,494.48 599.25,491.7 603.51,490.76C603.533,490.759 603.556,490.764 603.576,490.774C603.64,490.805 603.669,490.88 603.64,490.939C603.63,490.961 603.612,490.979 603.59,490.99C598.697,493.35 594.69,495.617 591.57,497.79C588.457,499.963 584.947,502.94 581.04,506.72C581.02,506.742 580.994,506.756 580.966,506.759C580.9,506.766 580.84,506.713 580.833,506.642C580.83,506.613 580.836,506.584 580.85,506.56C583.2,502.89 587.34,499.68 591.07,497.08Z" style="fill:white;fill-rule:nonzero;"/>
        <path d="M641.32,495.32C641.159,494.99 641.219,494.597 641.47,494.34C642.077,493.713 642.467,492.96 642.64,492.08C642.742,491.545 643.215,491.154 643.76,491.154C643.84,491.154 643.921,491.163 644,491.18L645.29,491.47C645.726,491.568 646.039,491.959 646.039,492.406C646.039,492.561 646.001,492.713 645.93,492.85C645.183,494.29 645.737,495.54 647.59,496.6C647.998,496.829 648.204,497.306 648.09,497.76C647.583,499.887 647.917,501.42 649.09,502.36C652.183,504.807 654.24,506.237 655.26,506.65C658.39,507.92 665.12,510.66 668.57,513.22C672.123,515.853 675.733,519.46 679.4,524.04C679.704,524.418 679.759,524.943 679.54,525.38C679.453,525.553 679.403,525.723 679.39,525.89C679.36,526.297 679.489,526.699 679.75,527.01C692.92,542.65 700.2,562.13 704.32,582.07C706.67,593.46 705.5,605.97 702.99,617.2C698.61,636.84 686.68,656.3 668.62,665.9C654.2,673.56 639.33,671.7 624.23,666.86C607.023,661.353 593.153,651.433 582.62,637.1C582.33,636.709 581.854,636.5 581.37,636.55L580.89,636.59C580.386,636.64 579.888,636.447 579.55,636.07C576.11,632.28 570.65,631.57 567.57,635.96C566.983,636.8 566.607,637.31 566.44,637.49C566.226,637.732 565.878,637.805 565.59,637.67C561.117,635.59 557.703,632.547 555.35,628.54C551.45,621.88 550.83,611.87 558.37,607.58C562.92,604.98 566.18,607.39 569.71,610.17C570.314,610.644 571.164,610.664 571.79,610.22C573.54,608.99 574.08,607.54 574.31,605.22C577.46,573.89 586.71,541.99 611.62,520.69C611.632,520.679 611.645,520.669 611.658,520.659C611.922,520.463 612.304,520.523 612.503,520.791C612.513,520.804 612.522,520.817 612.53,520.83C613.35,522.143 614.4,522.19 615.68,520.97C622.273,514.737 627.387,510.36 631.02,507.84C632.82,506.6 635.43,507.1 637.28,506.27C640.64,504.777 642.52,502.337 642.92,498.95C642.953,498.683 642.904,498.411 642.78,498.17L641.32,495.32ZM663.26,550.08C658.673,550.007 654.443,551.36 650.57,554.14C649.618,554.817 649.277,556.086 649.76,557.15C650.68,559.18 652.33,558.63 654.09,557.8C657.337,556.26 660.363,555.513 663.17,555.56C665.983,555.6 668.987,556.44 672.18,558.08C673.92,558.97 675.54,559.57 676.53,557.56C677.043,556.512 676.74,555.235 675.81,554.53C672.023,551.63 667.84,550.147 663.26,550.08ZM673.362,565.009C672.606,564.632 671.409,565.474 670.712,566.873C670.712,566.873 670.712,566.873 670.712,566.873C670.014,568.272 670.062,569.734 670.818,570.111C671.574,570.488 672.771,569.646 673.468,568.247C673.468,568.247 673.468,568.247 673.468,568.247C674.166,566.848 674.118,565.386 673.362,565.009ZM596.97,569.58C592.99,572.293 590.177,576.017 588.53,580.75C588.124,581.907 588.601,583.202 589.66,583.82C591.68,585.01 592.76,583.54 593.77,581.76C595.63,578.473 597.777,576 600.21,574.34C602.65,572.68 605.74,571.587 609.48,571.06C611.51,570.77 613.26,570.3 612.9,567.99C612.71,566.778 611.676,565.862 610.45,565.82C605.443,565.62 600.95,566.873 596.97,569.58ZM681.369,567.674C681.368,567.674 681.368,567.674 681.368,567.674C680.787,567.024 678.892,567.755 677.17,569.295C677.17,569.295 677.17,569.295 677.17,569.295C675.449,570.834 674.51,572.636 675.092,573.286C675.092,573.286 675.092,573.286 675.092,573.286C675.673,573.936 677.568,573.205 679.29,571.665C679.29,571.665 679.29,571.665 679.29,571.665C681.011,570.126 681.95,568.324 681.369,567.674ZM664.98,572.22C658.5,573.06 660.15,581.72 664.17,583.94C670.41,587.36 676.48,574.99 669.88,572.17C669.173,571.877 667.54,571.893 664.98,572.22ZM595.341,587.319C595.341,587.32 595.341,587.32 595.341,587.32C594.958,588.146 596.014,589.462 597.681,590.236C597.681,590.236 597.681,590.236 597.681,590.236C599.348,591.009 601.035,590.966 601.419,590.141C601.419,590.14 601.419,590.14 601.419,590.14C601.802,589.314 600.746,587.998 599.079,587.224C599.079,587.224 599.079,587.224 599.079,587.224C597.412,586.451 595.725,586.494 595.341,587.319ZM616.48,596.04C617.333,595.603 617.872,594.721 617.872,593.762C617.872,592.989 617.522,592.256 616.92,591.77C615.35,590.51 613.94,587.79 612.46,587.22C607.75,585.4 603.38,589.78 605,594.52C605.313,595.44 605.543,596.557 605.69,597.87C605.738,598.308 605.92,598.717 606.21,599.04C607.723,600.727 609.757,601.347 612.31,600.9C613.359,600.713 614.255,599.864 614.63,598.7C615.07,597.34 615.687,596.453 616.48,596.04ZM599.334,594.89C599.337,594.855 599.338,594.821 599.338,594.786C599.338,594.118 598.818,593.554 598.152,593.5L593.527,593.128C593.492,593.126 593.458,593.124 593.423,593.124C592.754,593.124 592.191,593.644 592.137,594.311L592.126,594.45C592.123,594.485 592.122,594.519 592.122,594.554C592.122,595.222 592.642,595.786 593.308,595.84L597.934,596.212C597.968,596.214 598.002,596.216 598.037,596.216C598.706,596.216 599.269,595.696 599.323,595.029L599.334,594.89ZM648.87,632.86C642.317,634.827 635.69,634.28 628.99,631.22C627.64,630.61 626.88,630.71 626.14,631.9C625.699,632.588 625.853,633.502 626.49,633.98C632.61,638.57 643.21,638.6 649.98,636.57C656.74,634.55 665.58,628.69 668.17,621.5C668.439,620.751 668.066,619.903 667.32,619.57C666.05,618.98 665.36,619.32 664.57,620.57C660.65,626.803 655.417,630.9 648.87,632.86Z" style="fill:white;fill-rule:nonzero;"/>
        <path d="M670.24,498.83C667.73,496.95 665.25,495.57 663.23,493.83C663.192,493.796 663.17,493.747 663.17,493.696C663.17,493.597 663.251,493.516 663.35,493.516C663.374,493.516 663.398,493.521 663.42,493.53C666.213,494.883 668.693,496.377 670.86,498.01C673.027,499.643 675.143,501.613 677.21,503.92C677.237,503.952 677.252,503.993 677.252,504.035C677.252,504.134 677.17,504.215 677.072,504.215C677.039,504.215 677.008,504.206 676.98,504.19C674.74,502.73 672.74,500.72 670.24,498.83Z" style="fill:white;fill-rule:nonzero;"/>
        <g transform="matrix(0.859852,-0.510543,0.510543,0.859852,618.05,501.02)">
            <ellipse cx="0" cy="0" rx="2.67" ry="0.41" style="fill:white;"/>
        </g>
        <g transform="matrix(0.752415,-0.658689,0.658689,0.752415,635.52,501.5)">
            <ellipse cx="0" cy="0" rx="0.65" ry="0.52" style="fill:white;"/>
        </g>
        <g transform="matrix(0.906308,0.422618,-0.422618,0.906308,659.06,503.47)">
            <path d="M3.51,-0.02L3.51,0.02C3.51,0.224 3.344,0.39 3.14,0.39L-3.14,0.39C-3.344,0.39 -3.51,0.224 -3.51,0.02L-3.51,-0.02C-3.51,-0.224 -3.344,-0.39 -3.14,-0.39L3.14,-0.39C3.344,-0.39 3.51,-0.224 3.51,-0.02Z" style="fill:white;"/>
        </g>
        <path d="M630.69,502.69C630.837,502.93 630.667,503.18 630.18,503.44C628.38,504.427 627.437,504.843 627.35,504.69C627.257,504.543 628.067,503.907 629.78,502.78C630.24,502.48 630.543,502.45 630.69,502.69Z" style="fill:rgb(114,171,157);fill-rule:nonzero;"/>
        <path d="M594.23,509.9C597.983,506.967 601.517,504.717 604.83,503.15C604.874,503.129 604.922,503.118 604.97,503.118C605.143,503.118 605.286,503.257 605.29,503.43C605.283,503.483 605.21,503.557 605.07,503.65C601.29,506.05 597.903,508.42 594.91,510.76C591.917,513.107 588.8,515.827 585.56,518.92C585.44,519.033 585.35,519.083 585.29,519.07C585.157,519.028 585.066,518.904 585.066,518.765C585.066,518.69 585.092,518.617 585.14,518.56C587.453,515.72 590.483,512.833 594.23,509.9Z" style="fill:white;fill-rule:nonzero;"/>
        <g transform="matrix(-0.778243,-0.627963,0.627963,-0.778243,673.76,511.52)">
            <ellipse cx="0" cy="0" rx="2.54" ry="0.31" style="fill:white;"/>
        </g>
        <g transform="matrix(0.712026,0.702153,-0.702153,0.712026,595.78,524.72)">
            <path d="M0.33,-4.14L0.33,4.14C0.33,4.317 0.187,4.46 0.01,4.46L-0.01,4.46C-0.187,4.46 -0.33,4.317 -0.33,4.14L-0.33,-4.14C-0.33,-4.317 -0.187,-4.46 -0.01,-4.46L0.01,-4.46C0.187,-4.46 0.33,-4.317 0.33,-4.14Z" style="fill:white;"/>
        </g>
        <path d="M560.19,540.53C558.577,545.143 556.857,550.84 555.03,557.62C555.012,557.666 554.968,557.697 554.918,557.697C554.861,557.697 554.811,557.656 554.8,557.6C554.727,556.907 554.763,556.2 554.91,555.48C555.91,550.627 557.343,545.53 559.21,540.19C561.083,534.85 563.14,529.973 565.38,525.56C565.713,524.9 566.127,524.323 566.62,523.83C566.641,523.813 566.668,523.803 566.696,523.803C566.762,523.803 566.816,523.857 566.816,523.923C566.816,523.936 566.814,523.948 566.81,523.96C564.01,530.4 561.803,535.923 560.19,540.53Z" style="fill:white;fill-rule:nonzero;"/>
        <g transform="matrix(0.679441,-0.73373,0.73373,0.679441,581.86,526.77)">
            <ellipse cx="0" cy="0" rx="4.41" ry="0.41" style="fill:white;"/>
        </g>
        <path d="M565.77,558.16C565.752,558.218 565.697,558.258 565.636,558.258C565.621,558.258 565.605,558.255 565.59,558.25L565.52,558.23C564.847,558.012 565.741,553.104 567.5,547.35L567.61,547.01C569.368,541.26 571.371,536.696 572.05,536.89L572.12,536.91C572.19,536.934 572.23,537.009 572.21,537.08L565.77,558.16Z" style="fill:white;fill-rule:nonzero;"/>
        <g transform="matrix(0.901077,0.433659,-0.433659,0.901077,578.83,552.25)">
            <path d="M0.42,-5.53L0.42,5.53C0.42,5.751 0.241,5.93 0.02,5.93L-0.02,5.93C-0.241,5.93 -0.42,5.751 -0.42,5.53L-0.42,-5.53C-0.42,-5.751 -0.241,-5.93 -0.02,-5.93L0.02,-5.93C0.241,-5.93 0.42,-5.751 0.42,-5.53Z" style="fill:white;"/>
        </g>
        <path d="M663.26,550.08C667.84,550.147 672.023,551.63 675.81,554.53C676.74,555.235 677.043,556.512 676.53,557.56C675.54,559.57 673.92,558.97 672.18,558.08C668.987,556.44 665.983,555.6 663.17,555.56C660.363,555.513 657.337,556.26 654.09,557.8C652.33,558.63 650.68,559.18 649.76,557.15C649.277,556.086 649.618,554.817 650.57,554.14C654.443,551.36 658.673,550.007 663.26,550.08Z" style="fill:rgb(1,1,1);fill-rule:nonzero;"/>
        <path d="M714.17,559.75C713.963,559.817 713.787,559.607 713.64,559.12C712.713,556 712.327,554.413 712.48,554.36C712.613,554.32 713.223,555.837 714.31,558.91C714.483,559.383 714.437,559.663 714.17,559.75Z" style="fill:rgb(114,171,157);fill-rule:nonzero;"/>
        <path d="M709.15,560.16C709.184,560.174 709.214,560.196 709.236,560.224C709.326,560.335 709.287,560.517 709.15,560.628C709.117,560.655 709.079,560.676 709.04,560.69C708.82,560.77 708.687,560.737 708.64,560.59C708.627,560.551 708.627,560.505 708.64,560.46C708.76,560.16 708.93,560.06 709.15,560.16Z" style="fill:rgb(114,171,157);fill-rule:nonzero;"/>
        <path d="M576.29,562.82C576.29,562.82 576.29,562.82 576.29,562.82C576.29,562.737 576.358,562.67 576.44,562.67C576.443,562.67 576.447,562.67 576.45,562.67L576.54,562.68C576.541,562.68 576.543,562.68 576.544,562.68C577.223,562.715 577.727,563.834 577.66,565.16C577.66,565.16 577.64,565.5 577.64,565.5C577.572,566.824 576.958,567.884 576.28,567.85L576.19,567.85C576.112,567.845 576.05,567.779 576.05,567.7C576.05,567.697 576.05,567.693 576.05,567.69L576.29,562.82Z" style="fill:white;fill-rule:nonzero;"/>
        <path d="M709.95,592.82C709.297,585.16 707.87,577.773 705.67,570.66C705.468,570.01 705.575,569.302 705.96,568.74C710.69,561.79 718.8,563.45 721.03,571.16C723.197,578.667 722.15,585.84 717.89,592.68C717.647,593.072 717.138,593.215 716.72,593.01C714.867,592.097 712.903,592.193 710.83,593.3C710.743,593.346 710.646,593.37 710.548,593.37C710.237,593.37 709.976,593.129 709.95,592.82Z" style="fill:white;fill-rule:nonzero;"/>
        <g transform="matrix(0.446198,-0.894934,0.894934,0.446198,672.09,567.56)">
            <ellipse cx="0" cy="0" rx="2.85" ry="1.54" style="fill:rgb(1,1,1);"/>
        </g>
        <path d="M596.97,569.58C600.95,566.873 605.443,565.62 610.45,565.82C611.676,565.862 612.71,566.778 612.9,567.99C613.26,570.3 611.51,570.77 609.48,571.06C605.74,571.587 602.65,572.68 600.21,574.34C597.777,576 595.63,578.473 593.77,581.76C592.76,583.54 591.68,585.01 589.66,583.82C588.601,583.202 588.124,581.907 588.53,580.75C590.177,576.017 592.99,572.293 596.97,569.58Z" style="fill:rgb(1,1,1);fill-rule:nonzero;"/>
        <g transform="matrix(0.745476,-0.666532,0.666532,0.745476,678.23,570.48)">
            <ellipse cx="0" cy="0" rx="4.21" ry="1.59" style="fill:rgb(1,1,1);"/>
        </g>
        <path d="M664.98,572.22C667.54,571.893 669.173,571.877 669.88,572.17C676.48,574.99 670.41,587.36 664.17,583.94C660.15,581.72 658.5,573.06 664.98,572.22ZM667.175,575.68C666.72,575.69 666.356,576.239 666.37,576.897C666.384,577.556 666.77,578.089 667.225,578.08C667.68,578.07 668.044,577.521 668.03,576.863C668.016,576.204 667.63,575.671 667.175,575.68Z" style="fill:rgb(1,1,1);fill-rule:nonzero;"/>
        <path d="M562,574.21C561.893,573.857 561.92,573.53 562.08,573.23C562.1,573.19 562.127,573.155 562.161,573.127C562.305,573.008 562.53,573.038 562.659,573.194C562.69,573.232 562.714,573.274 562.73,573.32C562.857,573.667 562.833,573.99 562.66,574.29C562.596,574.403 562.476,574.473 562.347,574.473C562.186,574.473 562.043,574.365 562,574.21Z" style="fill:rgb(114,171,157);fill-rule:nonzero;"/>
        <g transform="matrix(-0.0209424,-0.999781,0.999781,-0.0209424,667.2,576.88)">
            <ellipse cx="0" cy="0" rx="1.2" ry="0.83" style="fill:white;"/>
        </g>
        <path d="M548.51,607.87C548.389,607.87 548.29,607.771 548.29,607.65L548.29,607.44C548.532,592.055 549.051,579.393 549.44,579.38C549.44,579.38 549.541,579.38 549.541,579.38C549.93,579.386 550.052,592.061 549.81,607.458C549.81,607.458 549.81,607.459 549.81,607.46L549.81,607.67C549.81,607.791 549.711,607.89 549.59,607.89L548.51,607.87Z" style="fill:rgb(114,171,157);fill-rule:nonzero;"/>
        <g transform="matrix(0.995056,0.0993197,-0.0993197,0.995056,556.95,595.11)">
            <path d="M0.65,-7.85L0.65,7.85C0.65,8.192 0.372,8.47 0.03,8.47L-0.03,8.47C-0.372,8.47 -0.65,8.192 -0.65,7.85L-0.65,-7.85C-0.65,-8.192 -0.372,-8.47 -0.03,-8.47L0.03,-8.47C0.372,-8.47 0.65,-8.192 0.65,-7.85Z" style="fill:rgb(114,171,157);"/>
        </g>
        <g transform="matrix(-0.907044,-0.421036,0.421036,-0.907044,598.38,588.73)">
            <ellipse cx="0" cy="0" rx="3.35" ry="1.66" style="fill:rgb(1,1,1);"/>
        </g>
        <path d="M616.48,596.04C615.687,596.453 615.07,597.34 614.63,598.7C614.255,599.864 613.359,600.713 612.31,600.9C609.757,601.347 607.723,600.727 606.21,599.04C605.92,598.717 605.738,598.308 605.69,597.87C605.543,596.557 605.313,595.44 605,594.52C603.38,589.78 607.75,585.4 612.46,587.22C613.94,587.79 615.35,590.51 616.92,591.77C617.522,592.256 617.872,592.989 617.872,593.762C617.872,594.721 617.333,595.603 616.48,596.04ZM609.408,589.46C609.408,589.46 609.407,589.46 609.407,589.46C609.161,589.258 608.553,589.59 608.061,590.193C607.568,590.797 607.366,591.459 607.612,591.66C607.612,591.66 607.613,591.66 607.613,591.66C607.859,591.862 608.467,591.53 608.96,590.927C609.452,590.323 609.654,589.661 609.408,589.46ZM611.878,597.878C611.774,597.607 611.356,597.51 610.951,597.665C610.951,597.665 610.951,597.665 610.951,597.665C610.546,597.82 610.298,598.17 610.402,598.442C610.506,598.713 610.924,598.81 611.329,598.655C611.329,598.655 611.329,598.655 611.329,598.655C611.734,598.5 611.982,598.15 611.878,597.878Z" style="fill:rgb(1,1,1);fill-rule:nonzero;"/>
        <g transform="matrix(0.632029,-0.774944,0.774944,0.632029,608.51,590.56)">
            <ellipse cx="0" cy="0" rx="1.42" ry="0.58" style="fill:white;"/>
        </g>
        <g transform="matrix(0.996779,0.0801989,-0.0801989,0.996779,595.73,594.67)">
            <path d="M3.61,-0.07L3.61,0.07C3.61,0.782 3.032,1.36 2.32,1.36L-2.32,1.36C-3.032,1.36 -3.61,0.782 -3.61,0.07L-3.61,-0.07C-3.61,-0.782 -3.032,-1.36 -2.32,-1.36L2.32,-1.36C3.032,-1.36 3.61,-0.782 3.61,-0.07Z" style="fill:rgb(1,1,1);"/>
        </g>
        <circle cx="713.77" cy="600.16" r="4.22" style="fill:white;"/>
        <g transform="matrix(0.934204,-0.356738,0.356738,0.934204,611.14,598.16)">
            <ellipse cx="0" cy="0" rx="0.79" ry="0.53" style="fill:white;"/>
        </g>
        <g transform="matrix(0.777146,-0.62932,0.62932,0.777146,562.55,601.44)">
            <ellipse cx="0" cy="0" rx="0.94" ry="0.6" style="fill:rgb(114,171,157);"/>
        </g>
        <path d="M568.91,602.45C568.917,603.197 568.907,603.61 568.88,603.69C568.799,603.896 568.599,604.033 568.377,604.033C568.276,604.033 568.176,604.004 568.09,603.95C567.61,603.657 567.367,603.163 567.36,602.47C567.347,601.777 567.58,601.277 568.06,600.97C568.146,600.916 568.245,600.888 568.346,600.888C568.559,600.888 568.754,601.015 568.84,601.21C568.88,601.283 568.903,601.697 568.91,602.45Z" style="fill:white;fill-rule:nonzero;"/>
        <g transform="matrix(-0.0540788,-0.998537,0.998537,-0.0540788,725.94,618.31)">
            <ellipse cx="0" cy="0" rx="11.23" ry="0.51" style="fill:rgb(114,171,157);"/>
        </g>
        <path d="M649.98,636.57C643.21,638.6 632.61,638.57 626.49,633.98C625.853,633.502 625.699,632.588 626.14,631.9C626.88,630.71 627.64,630.61 628.99,631.22C635.69,634.28 642.317,634.827 648.87,632.86C655.417,630.9 660.65,626.803 664.57,620.57C665.36,619.32 666.05,618.98 667.32,619.57C668.066,619.903 668.439,620.751 668.17,621.5C665.58,628.69 656.74,634.55 649.98,636.57Z" style="fill:rgb(1,1,1);fill-rule:nonzero;"/>
        <circle cx="573.24" cy="641.35" r="4.38" style="fill:white;"/>
        <path d="M557.24,638.43C557.06,638.37 556.763,638.123 556.35,637.69C556.302,637.638 556.276,637.57 556.276,637.5C556.276,637.346 556.402,637.22 556.556,637.22C556.581,637.22 556.606,637.223 556.63,637.23C556.757,637.263 557.037,637.557 557.47,638.11C557.49,638.138 557.503,638.17 557.509,638.204C557.527,638.318 557.452,638.425 557.344,638.442C557.309,638.448 557.273,638.444 557.24,638.43Z" style="fill:rgb(114,171,157);fill-rule:nonzero;"/>
        <path d="M726.86,638.26L726.86,646.76C726.86,646.959 726.699,647.12 726.5,647.12L726.48,647.12C726.281,647.12 726.12,646.959 726.12,646.76L726.12,638.26C726.12,638.061 726.281,637.9 726.48,637.9L726.5,637.9C726.699,637.9 726.86,638.061 726.86,638.26Z" style="fill:rgb(114,171,157);"/>
        <g transform="matrix(0.931056,-0.364877,0.364877,0.931056,553.13,648.12)">
            <path d="M0.41,-6.58L0.41,6.58C0.41,6.795 0.235,6.97 0.02,6.97L-0.02,6.97C-0.235,6.97 -0.41,6.795 -0.41,6.58L-0.41,-6.58C-0.41,-6.795 -0.235,-6.97 -0.02,-6.97L0.02,-6.97C0.235,-6.97 0.41,-6.795 0.41,-6.58Z" style="fill:white;"/>
        </g>
        <g transform="matrix(0.998971,0.045363,-0.045363,0.998971,705.78,658.59)">
            <path d="M0.47,-12.6L0.47,12.6C0.47,12.848 0.268,13.05 0.02,13.05L-0.02,13.05C-0.268,13.05 -0.47,12.848 -0.47,12.6L-0.47,-12.6C-0.47,-12.848 -0.268,-13.05 -0.02,-13.05L0.02,-13.05C0.268,-13.05 0.47,-12.848 0.47,-12.6Z" style="fill:white;"/>
        </g>
        <path d="M695.15,647.83C695.137,648.197 695.02,648.49 694.8,648.71C694.763,648.747 694.719,648.776 694.67,648.794C694.485,648.86 694.274,648.754 694.203,648.558C694.185,648.507 694.177,648.453 694.18,648.4C694.193,648.16 694.347,647.907 694.64,647.64C694.669,647.614 694.704,647.593 694.741,647.578C694.899,647.515 695.076,647.581 695.132,647.724C695.146,647.757 695.152,647.793 695.15,647.83Z" style="fill:rgb(114,171,157);fill-rule:nonzero;"/>
        <g transform="matrix(-0.785857,-0.618408,0.618408,-0.785857,570.3,649.43)">
            <ellipse cx="0" cy="0" rx="0.85" ry="0.41" style="fill:white;"/>
        </g>
        <g transform="matrix(-0.593419,-0.804894,0.804894,-0.593419,562.29,650.26)">
            <ellipse cx="0" cy="0" rx="1.45" ry="0.36" style="fill:white;"/>
        </g>
        <path d="M714.06,670.02C713.987,670.015 713.93,669.954 713.93,669.88C713.93,669.877 713.93,669.873 713.93,669.87L714.2,661.07C714.2,661.069 714.2,661.067 714.2,661.066C714.362,655.906 714.766,651.669 715.095,651.68C715.097,651.68 715.098,651.68 715.1,651.68L715.22,651.69C715.546,651.737 715.681,655.977 715.52,661.11L715.25,669.92C715.245,669.993 715.184,670.05 715.11,670.05C715.107,670.05 715.103,670.05 715.1,670.05L714.06,670.02Z" style="fill:rgb(114,171,157);fill-rule:nonzero;"/>
        <g transform="matrix(-0.593419,-0.804894,0.804894,-0.593419,591.53,666.32)">
            <ellipse cx="0" cy="0" rx="2.03" ry="0.31" style="fill:rgb(114,171,157);"/>
        </g>
        <path d="M724.45,679.65C723.183,674.203 722.543,669.333 722.53,665.04C722.532,664.833 722.703,664.663 722.91,664.663C722.958,664.663 723.005,664.672 723.05,664.69C723.11,664.723 723.153,664.837 723.18,665.03C723.86,670.243 724.7,675.02 725.7,679.36C726.707,683.7 728.05,688.36 729.73,693.34C729.79,693.527 729.803,693.647 729.77,693.7C729.698,693.782 729.594,693.829 729.484,693.829C729.337,693.829 729.202,693.744 729.14,693.61C727.273,689.743 725.71,685.09 724.45,679.65Z" style="fill:rgb(114,171,157);fill-rule:nonzero;"/>
        <path d="M633.53,675.05C633.526,675.025 633.525,674.999 633.527,674.974C633.54,674.766 633.727,674.606 633.94,674.619C633.964,674.621 633.987,674.624 634.01,674.63C649.157,678.383 663.067,675.933 675.74,667.28C675.785,667.248 675.835,667.223 675.887,667.205C676.193,667.101 676.533,667.272 676.639,667.583C676.656,667.634 676.667,667.687 676.67,667.74C677.203,676.207 678.39,684.407 680.23,692.34C681.223,696.64 683.67,699.747 687.57,701.66C688.081,701.918 688.326,702.519 688.14,703.06C685.947,709.613 681.673,714.46 675.32,717.6C662.14,724.107 649.047,723.937 636.04,717.09C634.24,716.15 633.02,715.27 632.38,714.45C632.3,714.35 632.233,714.24 632.18,714.12L625.41,697.98C625.298,697.708 625.423,697.392 625.69,697.27C633.74,693.41 634.55,682.87 633.53,675.05Z" style="fill:white;fill-rule:nonzero;"/>
        <path d="M689.71,683.95C689.71,684.001 689.671,684.045 689.62,684.05L689.58,684.05C689.577,684.05 689.575,684.05 689.572,684.05C688.991,684.059 688.457,680.561 688.39,676.3L688.39,675.9C688.323,671.658 688.742,668.15 689.32,668.11L689.36,668.11C689.363,668.11 689.367,668.109 689.37,668.109C689.425,668.109 689.47,668.155 689.47,668.209C689.47,668.21 689.47,668.21 689.47,668.21L689.71,683.95Z" style="fill:white;fill-rule:nonzero;"/>
        <g transform="matrix(-0.564967,-0.825113,0.825113,-0.564967,611.72,677.7)">
            <ellipse cx="0" cy="0" rx="1.19" ry="0.39" style="fill:white;"/>
        </g>
        <g transform="matrix(0.995884,-0.0906326,0.0906326,0.995884,704.88,688.42)">
            <path d="M0.64,-9.94L0.64,9.94C0.64,10.282 0.362,10.56 0.02,10.56L-0.02,10.56C-0.362,10.56 -0.64,10.282 -0.64,9.94L-0.64,-9.94C-0.64,-10.282 -0.362,-10.56 -0.02,-10.56L0.02,-10.56C0.362,-10.56 0.64,-10.282 0.64,-9.94Z" style="fill:rgb(114,171,157);"/>
        </g>
        <path d="M565.03,700.31C564.64,698.14 564.25,693.62 565.31,691.07C565.364,690.953 565.481,690.877 565.61,690.877C565.788,690.877 565.936,691.022 565.94,691.2C565.88,694.19 565.83,697.34 566.32,700.08C566.81,702.82 567.95,705.75 569.04,708.53C569.053,708.566 569.06,708.605 569.06,708.644C569.06,708.825 568.911,708.974 568.73,708.974C568.639,708.974 568.552,708.936 568.49,708.87C566.62,706.85 565.42,702.48 565.03,700.31Z" style="fill:rgb(114,171,157);fill-rule:nonzero;"/>
        <circle cx="574.58" cy="691.32" r="0.46" style="fill:rgb(114,171,157);"/>
        <g transform="matrix(-0.525472,-0.850811,0.850811,-0.525472,590.74,697.81)">
            <ellipse cx="0" cy="0" rx="5.04" ry="0.58" style="fill:white;"/>
        </g>
        <g transform="matrix(0.953191,-0.30237,0.30237,0.953191,602.05,696.62)">
            <path d="M0.48,-2.74L0.48,2.74C0.48,2.994 0.274,3.2 0.02,3.2L-0.02,3.2C-0.274,3.2 -0.48,2.994 -0.48,2.74L-0.48,-2.74C-0.48,-2.994 -0.274,-3.2 -0.02,-3.2L0.02,-3.2C0.274,-3.2 0.48,-2.994 0.48,-2.74Z" style="fill:white;"/>
        </g>
        <path d="M690.64,698.74C690.639,698.764 690.636,698.788 690.631,698.812C690.581,699.031 690.342,699.167 690.101,699.112C690.077,699.106 690.053,699.099 690.03,699.09C689.75,698.983 689.633,698.84 689.68,698.66C689.695,698.608 689.718,698.559 689.749,698.515C689.907,698.297 690.23,698.258 690.466,698.428C690.513,698.462 690.555,698.503 690.59,698.55C690.623,698.597 690.64,698.66 690.64,698.74Z" style="fill:rgb(114,171,157);fill-rule:nonzero;"/>
        <g transform="matrix(-0.478692,-0.877983,0.877983,-0.478692,575.51,704.24)">
            <ellipse cx="0" cy="0" rx="2.71" ry="0.74" style="fill:rgb(114,171,157);"/>
        </g>
        <path d="M606.1,709.75C605.78,709.85 605.533,709.603 605.36,709.01C604.287,705.21 603.83,703.283 603.99,703.23C604.177,703.17 604.907,705.013 606.18,708.76C606.38,709.34 606.353,709.67 606.1,709.75Z" style="fill:rgb(114,171,157);fill-rule:nonzero;"/>
        <path d="M709.84,834.61C696.627,835.823 683.263,836.79 669.75,837.51C642.71,838.963 615.303,838.083 587.53,834.87C584.603,834.53 582.067,833.993 579.92,833.26C580.66,820.747 582.48,808.42 585.38,796.28C585.5,795.791 585.919,795.429 586.42,795.38C589.04,795.17 589.92,793.61 590.46,790.96C592.113,782.827 593.913,774.377 595.86,765.61C595.886,765.493 595.899,765.374 595.899,765.254C595.899,764.407 595.244,763.693 594.4,763.62L594.27,763.61C593.209,763.497 592.221,764.203 591.99,765.24L586.33,790.37C586.193,790.98 585.623,791.4 585,791.35C570.96,790.17 558.7,785.35 546.18,778.94C545.828,778.766 545.641,778.367 545.73,777.98C549.477,760.86 555.9,744.703 565,729.51C567.707,724.99 571.177,720.46 575.41,715.92C577.037,714.173 578.927,712.647 581.08,711.34C581.083,711.338 581.086,711.336 581.089,711.335C581.411,711.146 581.829,711.253 582.014,711.57C582.016,711.573 582.018,711.577 582.02,711.58C584.073,715.2 586.163,718.657 588.29,721.95C590.477,725.323 594.837,730.623 601.37,737.85C606.71,743.757 612.917,748.23 619.99,751.27C621.195,751.786 622.6,751.589 623.64,750.76C624.027,750.453 624.433,750.18 624.86,749.94C625.112,749.795 625.42,749.776 625.69,749.89L629.74,751.58C630.472,751.882 631.324,751.531 631.63,750.8L631.83,750.31C631.83,750.31 631.83,750.309 631.83,750.309C632.145,749.549 631.783,748.666 631.028,748.353C631.025,748.352 631.023,748.351 631.02,748.35L627.05,746.69C626.772,746.601 626.583,746.341 626.583,746.05C626.583,745.681 626.886,745.378 627.255,745.378C627.325,745.378 627.394,745.389 627.46,745.41C629.247,745.817 630.747,745.783 631.96,745.31C632.677,745.031 633.152,744.337 633.152,743.567C633.152,743.238 633.065,742.915 632.9,742.63L631.74,740.61C631.709,740.557 631.693,740.496 631.693,740.434C631.693,740.242 631.851,740.084 632.043,740.084C632.122,740.084 632.198,740.111 632.26,740.16L635.28,742.52C635.84,742.961 636.618,743.017 637.24,742.66L637.52,742.5C638.117,742.154 638.325,741.378 637.98,740.78L631.72,729.94C631.693,729.886 631.68,729.827 631.68,729.767C631.68,729.553 631.856,729.377 632.07,729.377C632.157,729.377 632.241,729.406 632.31,729.46C636.19,732.88 641.14,737.21 646.7,737.97C647.809,738.122 648.862,737.392 649.11,736.3L649.17,736.02C649.191,735.925 649.202,735.828 649.202,735.73C649.202,735.006 648.606,734.41 647.882,734.41C647.878,734.41 647.874,734.41 647.87,734.41C641.9,734.43 639.14,727.86 637.07,723.19C637.054,723.154 637.046,723.115 637.046,723.076C637.046,722.922 637.172,722.796 637.326,722.796C637.365,722.796 637.404,722.804 637.44,722.82C649.867,728.353 662.327,728.353 674.82,722.82C682.72,719.32 688.377,713.61 691.79,705.69C691.87,705.502 692.055,705.379 692.259,705.379C692.487,705.379 692.688,705.531 692.75,705.75C695.11,714.49 695.61,723.09 692.02,731.4C691.789,731.933 692.095,732.587 692.698,732.849C692.699,732.85 692.699,732.85 692.7,732.85C693.347,733.143 693.907,732.967 694.38,732.32C696.94,728.8 697.43,725.79 698.12,721.8C698.149,721.622 698.305,721.49 698.485,721.49C698.514,721.49 698.542,721.493 698.57,721.5L698.91,721.57C698.958,721.583 698.991,721.625 698.99,721.67C698.897,726.89 698.117,731.65 696.65,735.95C696.637,735.989 696.625,736.028 696.615,736.068C696.417,736.85 696.902,737.657 697.689,737.856C697.726,737.866 697.763,737.874 697.8,737.88L698.05,737.92C698.756,738.041 699.457,737.658 699.73,737L703.16,728.77C703.193,728.701 703.264,728.656 703.34,728.656C703.45,728.656 703.54,728.746 703.54,728.856C703.54,728.861 703.54,728.865 703.54,728.87C703.167,733.003 701.69,736.887 699.11,740.52C698.926,740.779 698.827,741.089 698.827,741.407C698.827,742.024 699.2,742.583 699.77,742.82L700.19,742.99C700.895,743.29 701.723,743.025 702.13,742.37C705.23,737.377 707.133,733.45 707.84,730.59C709.18,725.15 710.36,719.6 711.38,713.94C711.415,713.728 711.6,713.571 711.814,713.571C711.975,713.571 712.123,713.659 712.2,713.8L713.08,715.31C713.303,715.697 713.717,715.937 714.163,715.937C714.585,715.937 714.979,715.723 715.21,715.37C715.863,714.39 716.407,713.96 716.84,714.08C716.952,714.113 717.061,714.167 717.16,714.24C721.307,717.367 723.873,719.337 724.86,720.15C732.21,726.2 737.06,735.25 740.12,744.38C743.713,755.12 746.223,765.993 747.65,777C747.732,777.637 747.379,778.254 746.79,778.5C737.69,782.413 727.903,785.32 717.43,787.22C717.416,787.223 717.401,787.225 717.387,787.227C716.951,787.28 716.548,786.961 716.494,786.52C716.492,786.507 716.491,786.493 716.49,786.48L715.41,767.73C715.408,767.685 715.403,767.641 715.397,767.596C715.274,766.71 714.44,766.083 713.549,766.207C713.505,766.213 713.463,766.221 713.42,766.23L713.36,766.24C712.363,766.47 711.669,767.394 711.72,768.42C712.82,790.5 712.193,812.563 709.84,834.61Z" style="fill:rgb(114,171,157);fill-rule:nonzero;"/>
        <path d="M598.95,711.09C599.022,711.042 599.12,711.06 599.17,711.13L609.32,726.41C609.409,726.547 609.319,726.767 609.12,726.9C608.919,727.032 608.68,727.027 608.59,726.89L598.44,711.62C598.392,711.548 598.41,711.45 598.48,711.4L598.95,711.09Z" style="fill:rgb(114,171,157);fill-rule:nonzero;"/>
        <g transform="matrix(-0.614285,-0.789084,0.789084,-0.614285,738.1,720.62)">
            <ellipse cx="0" cy="0" rx="3.06" ry="0.41" style="fill:rgb(114,171,157);"/>
        </g>
        <g transform="matrix(-0.608761,-0.793353,0.793353,-0.608761,631.03,721.87)">
            <ellipse cx="0" cy="0" rx="4.06" ry="0.37" style="fill:rgb(114,171,157);"/>
        </g>
        <g transform="matrix(-0.705872,-0.70834,0.70834,-0.705872,734.5,723.88)">
            <ellipse cx="0" cy="0" rx="1.51" ry="0.45" style="fill:rgb(114,171,157);"/>
        </g>
        <g transform="matrix(0.764921,-0.644124,0.644124,0.764921,607.38,732.74)">
            <path d="M0.31,-6.85L0.31,6.85C0.31,6.999 0.189,7.12 0.04,7.12L-0.04,7.12C-0.189,7.12 -0.31,6.999 -0.31,6.85L-0.31,-6.85C-0.31,-6.999 -0.189,-7.12 -0.04,-7.12L0.04,-7.12C0.189,-7.12 0.31,-6.999 0.31,-6.85Z" style="fill:rgb(114,171,157);"/>
        </g>
        <path d="M626.09,740.31C626.102,740.325 626.102,740.345 626.09,740.36L626.06,740.38C625.642,740.742 623.83,739.363 622.04,737.32L619.39,734.29C617.607,732.253 616.477,730.277 616.88,729.9L616.91,729.88C616.925,729.868 616.945,729.868 616.96,729.88L626.09,740.31Z" style="fill:rgb(114,171,157);fill-rule:nonzero;"/>
        <g transform="matrix(0.866897,0.498488,-0.498488,0.866897,617,745.59)">
            <path d="M4.97,-0.02L4.97,0.02C4.97,0.29 4.75,0.51 4.48,0.51L-4.48,0.51C-4.75,0.51 -4.97,0.29 -4.97,0.02L-4.97,-0.02C-4.97,-0.29 -4.75,-0.51 -4.48,-0.51L4.48,-0.51C4.75,-0.51 4.97,-0.29 4.97,-0.02Z" style="fill:rgb(114,171,157);"/>
        </g>
        <path d="M742.18,831.38C732.953,830.913 723.67,831.66 714.33,833.62C715.877,819.527 716.65,805.78 716.65,792.38C716.652,792.075 716.878,791.814 717.18,791.77C724.98,790.683 732.683,788.62 740.29,785.58C740.364,785.55 740.443,785.534 740.523,785.534C740.839,785.534 741.107,785.776 741.14,786.09C741.933,794.01 742.54,801.363 742.96,808.15C743.42,815.55 742.8,823.65 742.18,831.38Z" style="fill:white;fill-rule:nonzero;"/>
        <path d="M575.53,833C569.777,832.993 564.017,832.977 558.25,832.95C553.39,832.93 548.527,832.633 543.66,832.06C544.593,816.673 546.707,801.567 550,786.74C550.064,786.448 550.326,786.238 550.625,786.238C550.72,786.238 550.814,786.259 550.9,786.3C560.24,790.9 569.983,793.9 580.13,795.3C580.586,795.359 580.931,795.752 580.931,796.212C580.931,796.293 580.921,796.372 580.9,796.45C577.827,808.23 576.037,820.413 575.53,833Z" style="fill:white;fill-rule:nonzero;"/>
    </g>
</svg>
