<?xml version="1.0" encoding="UTF-8" standalone="no"?>
<!DOCTYPE svg PUBLIC "-//W3C//DTD SVG 1.1//EN" "http://www.w3.org/Graphics/SVG/1.1/DTD/svg11.dtd">
<svg width="100%" height="100%" viewBox="0 0 218 363" version="1.1" xmlns="http://www.w3.org/2000/svg" xmlns:xlink="http://www.w3.org/1999/xlink" xml:space="preserve" xmlns:serif="http://www.serif.com/" style="fill-rule:evenodd;clip-rule:evenodd;stroke-linejoin:round;stroke-miterlimit:2;">
    <g transform="matrix(1,0,0,1,-539.959,-54.8369)">
        <path d="M742.02,410.89C743.83,394.77 742.83,380.75 741.16,365.31C741.132,365.08 740.935,364.906 740.703,364.906C740.644,364.906 740.585,364.918 740.53,364.94C733.15,367.893 725.42,369.953 717.34,371.12C717.02,371.164 716.777,371.437 716.77,371.76C716.55,385.44 716.16,396.55 714.42,413L709.95,414.1C712.377,392.033 712.963,370.003 711.71,348.01C711.646,346.941 712.394,345.978 713.45,345.77L713.52,345.76C713.629,345.739 713.74,345.729 713.852,345.729C714.793,345.729 715.578,346.48 715.62,347.42L716.45,365.93C716.471,366.343 716.816,366.671 717.229,366.671C717.273,366.671 717.317,366.667 717.36,366.66C727.893,364.793 737.907,361.63 747.4,357.17C747.744,357.003 747.94,356.628 747.88,356.25C745.41,340.8 742.13,325.44 735,311.97C731.753,305.85 727.153,300.713 721.2,296.56C720.3,295.927 718.987,294.957 717.26,293.65C717.114,293.538 716.935,293.478 716.751,293.478C716.462,293.478 716.194,293.626 716.04,293.87C715.247,295.15 714.35,295.507 713.35,294.94C713.057,294.78 712.84,294.493 712.7,294.08C712.533,293.567 712.393,293.22 712.28,293.04C712.2,292.901 712.051,292.814 711.89,292.814C711.679,292.814 711.494,292.963 711.45,293.17C709.13,303.31 708.39,312.27 702.43,321.2C701.881,322.02 700.831,322.36 699.9,322.02L699.66,321.93C699.136,321.739 698.785,321.238 698.785,320.68C698.785,320.387 698.882,320.102 699.06,319.87C701.533,316.643 702.903,312.933 703.17,308.74C703.174,308.72 703.176,308.7 703.176,308.68C703.176,308.504 703.031,308.359 702.855,308.359C702.702,308.359 702.569,308.469 702.54,308.62L699.96,316.2C699.662,317.078 698.705,317.566 697.82,317.29L697.73,317.26C697.078,317.096 696.618,316.506 696.618,315.834C696.618,315.669 696.646,315.506 696.7,315.35C698.253,310.817 698.99,306.223 698.91,301.57C698.91,301.568 698.91,301.566 698.91,301.564C698.91,301.41 698.784,301.284 698.63,301.284C698.504,301.284 698.393,301.369 698.36,301.49C697.19,305.23 696.95,309.13 693.96,312.33C693.72,312.591 693.381,312.739 693.026,312.739C692.367,312.739 691.812,312.227 691.76,311.57C691.747,311.397 691.8,311.187 691.92,310.94C693.26,308.173 694.037,305.617 694.25,303.27C694.817,297.017 694.273,290.943 692.62,285.05C692.585,284.902 692.451,284.796 692.299,284.796C692.162,284.796 692.038,284.882 691.99,285.01C688.737,292.837 683.203,298.553 675.39,302.16C662.943,307.907 650.43,307.91 637.85,302.17C637.797,302.144 637.739,302.131 637.681,302.131C637.467,302.131 637.291,302.307 637.291,302.521C637.291,302.572 637.301,302.623 637.32,302.67C638.607,306.023 640.39,309.05 642.67,311.75C642.961,312.093 643.314,312.375 643.71,312.58C644.957,313.233 646.297,313.553 647.73,313.54C647.737,313.54 647.744,313.54 647.751,313.54C648.64,313.54 649.371,314.271 649.371,315.16C649.371,315.568 649.217,315.961 648.94,316.26C647.84,317.44 646.5,317.71 644.92,317.07C640.287,315.203 636.067,312.34 632.26,308.48C632.185,308.406 632.084,308.364 631.978,308.364C631.759,308.364 631.578,308.545 631.578,308.764C631.578,308.818 631.589,308.871 631.61,308.92C633.217,312.713 635.347,316.277 638,319.61C638.427,320.141 638.432,320.904 638.01,321.44L637.75,321.76C637.443,322.155 636.971,322.386 636.471,322.386C636.108,322.386 635.755,322.264 635.47,322.04L632.23,319.51C632.157,319.441 632.06,319.402 631.96,319.402C631.745,319.402 631.567,319.58 631.567,319.795C631.567,319.903 631.612,320.006 631.69,320.08L632.81,321.36C633.038,321.614 633.181,321.932 633.22,322.27C633.44,324.15 632.41,325.117 630.13,325.17C628.617,325.203 627.657,325.107 627.25,324.88C627.187,324.848 627.117,324.831 627.047,324.831C626.8,324.831 626.597,325.035 626.597,325.281C626.597,325.391 626.637,325.498 626.71,325.58C627.03,325.907 628.513,326.717 631.16,328.01C631.193,328.026 631.226,328.044 631.258,328.062C631.988,328.487 632.237,329.442 631.809,330.176C631.79,330.208 631.771,330.24 631.75,330.27L631.74,330.29C631.189,331.145 630.046,331.42 629.16,330.91L626.39,329.33C625.995,329.102 625.502,329.106 625.1,329.34L622.84,330.64C622.184,331.022 621.392,331.109 620.66,330.88C614.83,329.03 609.16,324.51 604.72,320.3C595.467,311.533 587.913,301.71 582.06,290.83C581.95,290.622 581.692,290.538 581.48,290.64C579.64,291.52 578.037,292.697 576.67,294.17C571.15,300.07 567.22,304.84 563.42,311.44C554.97,326.12 549.89,341.07 545.38,357.19C545.241,357.688 545.472,358.22 545.93,358.46C558.24,364.95 571,369.42 584.89,370.61C585.63,370.678 586.313,370.179 586.48,369.45L592.08,344.56C592.313,343.537 593.301,342.855 594.34,343L594.43,343.01C595.277,343.116 595.919,343.844 595.919,344.697C595.919,344.819 595.906,344.941 595.88,345.06C592.58,359.94 590.663,368.803 590.13,371.65C589.757,373.663 588.467,374.753 586.26,374.92C585.876,374.95 585.55,375.224 585.45,375.6C582.25,387.55 580.6,399.96 579.79,412.7L575.56,412.22C576.14,399.72 577.86,387.533 580.72,375.66C580.722,375.65 580.725,375.639 580.727,375.629C580.809,375.209 580.536,374.797 580.121,374.715C580.111,374.713 580.1,374.712 580.09,374.71C569.903,373.13 560.047,370.083 550.52,365.57C550.47,365.547 550.416,365.535 550.36,365.535C550.184,365.535 550.029,365.658 549.99,365.83C546.763,380.69 544.64,395.78 543.62,411.1C542.52,411.607 541.453,411.653 540.42,411.24C540.132,411.12 539.948,410.832 539.96,410.52C540.593,394.693 542.753,379.187 546.44,364C546.579,363.425 546.276,362.828 545.73,362.6L542.84,361.4C541.742,360.944 541.114,359.76 541.35,358.59C545.283,339.197 552.49,321.063 562.97,304.19C564.62,301.54 566.99,298.98 569.12,296.39C569.329,296.14 569.298,295.762 569.05,295.55C563.323,290.583 560.45,283.99 560.43,275.77C560.42,271.15 560.94,265.82 560.35,261.74C559.47,255.653 558.013,250.577 555.98,246.51C552.433,239.41 550.457,235.387 550.05,234.44C543.59,219.34 540.94,203.437 542.1,186.73C543.61,165.05 544.26,145.16 548.83,125.32C550.57,117.75 554.76,108.48 558.48,101.3C562.193,94.12 567.053,87.54 573.06,81.56C578.62,76.013 583.227,71.88 586.88,69.16C596.86,61.727 607.727,57.497 619.48,56.47C619.902,56.431 620.307,56.304 620.67,56.1C622.037,55.327 624.47,54.907 627.97,54.84C634.27,54.72 636.21,58.11 638.53,63.02C639.117,64.273 640.427,65.523 642.46,66.77C642.526,66.811 642.602,66.832 642.68,66.832C642.908,66.832 643.096,66.647 643.1,66.42C643.2,61.6 645.09,58.06 649.95,57.28C660.36,55.62 671.06,61.36 678.57,68.45C683.037,72.677 686.3,76.08 688.36,78.66C703.42,97.593 713.597,118.463 718.89,141.27C719.054,141.984 719.402,142.64 719.9,143.17C723.387,146.89 725.33,150.85 725.73,155.05C726.257,160.55 726.853,164.943 727.52,168.23C728.14,171.317 728.673,174.56 729.12,177.96C731.007,192.407 731.827,206.667 731.58,220.74C731.44,228.933 731.473,234.107 731.68,236.26C732.7,246.7 734.62,256.29 737.28,266.26C740.17,277.06 742.7,286.43 748.76,294.45C750.547,296.81 753.053,298.43 756.28,299.31C756.877,299.474 757.295,300.021 757.295,300.641C757.295,300.944 757.195,301.239 757.01,301.48L756.82,301.71C756.003,302.715 754.611,303.066 753.41,302.57L743.95,298.63C743.885,298.604 743.815,298.59 743.744,298.59C743.443,298.59 743.194,298.838 743.194,299.14C743.194,299.184 743.2,299.227 743.21,299.27C743.537,300.61 744.183,301.82 745.15,302.9C745.336,303.106 745.548,303.284 745.78,303.43C747.787,304.697 749.123,305.57 749.79,306.05C749.884,306.118 749.969,306.196 750.045,306.284C750.589,306.915 750.512,307.889 749.872,308.441C749.782,308.518 749.685,308.585 749.58,308.64C745.75,310.65 742.49,304.15 737.92,307.68C737.644,307.888 737.57,308.279 737.75,308.58C739.07,310.78 741.05,314.47 742.18,317.38C747.053,330.033 750.337,343.257 752.03,357.05C752.182,358.284 751.582,359.494 750.51,360.11L745.16,363.2C744.879,363.361 744.73,363.68 744.79,363.99C745.33,367.103 746.007,373.503 746.82,383.19C747.58,392.263 747.387,401.337 746.24,410.41C746.198,410.71 745.972,410.956 745.67,411.03C744.457,411.317 743.24,411.27 742.02,410.89ZM628.793,58.309C628.793,58.309 628.793,58.309 628.793,58.309C628.679,58.595 629.658,59.258 630.962,59.78C632.266,60.302 633.433,60.496 633.547,60.211C633.547,60.211 633.547,60.211 633.547,60.211C633.661,59.925 632.682,59.262 631.378,58.74C630.074,58.218 628.907,58.024 628.793,58.309ZM675.77,75.12C670.95,69.6 662.22,63.8 654.54,64.25C654.37,64.26 654.235,64.4 654.23,64.57L654.23,64.58C654.23,64.765 654.376,64.919 654.56,64.93C663.77,65.62 668.71,70.08 675.6,75.3C675.623,75.322 675.653,75.334 675.685,75.334C675.753,75.334 675.809,75.278 675.809,75.21C675.809,75.176 675.795,75.143 675.77,75.12ZM604.521,64.324C604.478,64.244 604.393,64.193 604.302,64.193C604.26,64.193 604.219,64.204 604.182,64.224L590.93,71.419C590.849,71.463 590.799,71.547 590.799,71.639C590.799,71.681 590.809,71.722 590.829,71.758L590.839,71.776C590.882,71.856 590.967,71.907 591.058,71.907C591.1,71.907 591.141,71.896 591.178,71.876L604.43,64.681C604.511,64.637 604.561,64.553 604.561,64.461C604.561,64.419 604.551,64.378 604.531,64.342L604.521,64.324ZM622.377,66.098C622.304,66.424 622.733,66.802 623.327,66.935C623.327,66.935 623.327,66.935 623.327,66.935C623.921,67.068 624.47,66.909 624.543,66.582C624.543,66.582 624.543,66.582 624.543,66.582C624.616,66.256 624.187,65.878 623.593,65.745C623.593,65.745 623.593,65.745 623.593,65.745C622.999,65.612 622.45,65.771 622.377,66.098C622.377,66.098 622.377,66.098 622.377,66.098ZM590.83,77.8C587.12,80.38 583.01,83.56 580.66,87.2C580.643,87.221 580.634,87.248 580.634,87.275C580.634,87.341 580.689,87.396 580.755,87.396C580.792,87.396 580.827,87.379 580.85,87.35C584.737,83.61 588.227,80.663 591.32,78.51C594.42,76.357 598.403,74.113 603.27,71.78C603.319,71.763 603.352,71.717 603.352,71.665C603.352,71.598 603.297,71.543 603.23,71.543C603.216,71.543 603.203,71.546 603.19,71.55C598.96,72.48 594.54,75.22 590.83,77.8ZM641.38,75.72L642.83,78.57C642.952,78.808 643.001,79.076 642.97,79.34C642.563,82.72 640.687,85.153 637.34,86.64C635.49,87.46 632.89,86.96 631.09,88.19C627.463,90.69 622.357,95.043 615.77,101.25C614.497,102.463 613.45,102.413 612.63,101.1C612.623,101.089 612.615,101.078 612.608,101.068C612.409,100.799 612.027,100.738 611.762,100.934C611.751,100.942 611.741,100.951 611.73,100.96C586.84,122.15 577.56,153.94 574.36,185.17C574.12,187.48 573.58,188.93 571.84,190.15C571.212,190.596 570.361,190.575 569.76,190.1C566.25,187.32 563.01,184.91 558.46,187.49C550.94,191.76 551.54,201.74 555.42,208.39C557.753,212.39 561.147,215.43 565.6,217.51C565.891,217.647 566.24,217.573 566.45,217.33C566.617,217.15 566.993,216.643 567.58,215.81C570.67,211.44 576.11,212.16 579.53,215.94C579.867,216.315 580.361,216.508 580.86,216.46L581.34,216.43C581.821,216.384 582.292,216.593 582.58,216.98C593.06,231.287 606.87,241.2 624.01,246.72C639.06,251.58 653.88,253.46 668.28,245.85C686.3,236.31 698.24,216.93 702.64,197.36C705.17,186.17 706.35,173.7 704.03,162.34C699.97,142.45 692.74,123.01 679.64,107.4C679.377,107.086 679.247,106.68 679.28,106.27C679.293,106.103 679.347,105.933 679.44,105.76C679.656,105.324 679.601,104.803 679.3,104.43C675.647,99.857 672.053,96.257 668.52,93.63C665.09,91.07 658.38,88.32 655.26,87.05C654.247,86.637 652.2,85.203 649.12,82.75C647.947,81.817 647.613,80.29 648.12,78.17C648.236,77.719 648.034,77.242 647.63,77.01C645.783,75.95 645.233,74.703 645.98,73.27C645.998,73.234 646.014,73.198 646.028,73.16C646.208,72.666 645.953,72.112 645.463,71.933C645.426,71.92 645.388,71.909 645.35,71.9L644.06,71.6C644.057,71.599 644.054,71.599 644.051,71.598C643.444,71.472 642.84,71.873 642.713,72.485C642.712,72.49 642.711,72.495 642.71,72.5C642.53,73.373 642.137,74.123 641.53,74.75C641.282,75.007 641.222,75.396 641.38,75.72ZM670.3,79.6C672.85,81.5 674.9,83.53 677.18,85C677.212,85.027 677.253,85.041 677.295,85.041C677.394,85.041 677.476,84.959 677.476,84.86C677.476,84.806 677.452,84.754 677.41,84.72C675.297,82.387 673.133,80.4 670.92,78.76C668.707,77.113 666.18,75.613 663.34,74.26C663.31,74.24 663.276,74.23 663.24,74.23C663.141,74.23 663.06,74.311 663.06,74.41C663.06,74.47 663.09,74.527 663.14,74.56C665.21,76.32 667.74,77.7 670.3,79.6ZM620.273,80.214C620.273,80.214 620.273,80.213 620.273,80.213C620.165,80.029 619.009,80.503 617.713,81.264C617.713,81.264 617.713,81.264 617.713,81.264C616.416,82.024 615.438,82.802 615.547,82.986C615.547,82.986 615.547,82.987 615.547,82.987C615.655,83.171 616.811,82.697 618.107,81.936C618.107,81.936 618.107,81.936 618.107,81.936C619.404,81.176 620.382,80.398 620.273,80.214ZM636.215,81.545C636.215,81.545 636.215,81.545 636.215,81.545C635.951,81.273 635.453,81.322 635.11,81.654C635.11,81.654 635.11,81.654 635.11,81.654C634.767,81.987 634.702,82.484 634.965,82.755C634.965,82.755 634.965,82.755 634.965,82.755C635.229,83.027 635.727,82.978 636.07,82.646C636.07,82.646 636.07,82.646 636.07,82.646C636.413,82.313 636.478,81.816 636.215,81.545ZM656.043,82.54C656.043,82.54 656.043,82.54 656.043,82.54C655.935,82.762 657.329,83.671 659.132,84.554C660.935,85.437 662.508,85.982 662.617,85.76C662.617,85.76 662.617,85.76 662.617,85.76C662.725,85.538 661.331,84.629 659.528,83.746C657.725,82.863 656.152,82.318 656.043,82.54ZM631.494,83.001C631.358,82.763 630.274,83.122 629.092,83.796C627.911,84.47 627.05,85.22 627.186,85.459C627.322,85.697 628.406,85.338 629.588,84.664C630.769,83.99 631.63,83.24 631.494,83.001ZM594.23,90.39C590.43,93.317 587.353,96.2 585,99.04C584.949,99.098 584.921,99.173 584.921,99.25C584.921,99.395 585.02,99.523 585.16,99.56C585.213,99.573 585.303,99.523 585.43,99.41C588.717,96.317 591.877,93.603 594.91,91.27C597.943,88.937 601.373,86.573 605.2,84.18C605.34,84.093 605.413,84.02 605.42,83.96C605.416,83.787 605.273,83.648 605.1,83.648C605.052,83.648 605.004,83.659 604.96,83.68C601.607,85.227 598.03,87.463 594.23,90.39ZM671.16,90.02C670.967,90.267 671.097,90.567 671.55,90.92C674.49,93.18 676.01,94.247 676.11,94.12C676.223,93.98 674.873,92.707 672.06,90.3C671.62,89.92 671.32,89.827 671.16,90.02ZM598.888,102.162C598.888,102.162 598.888,102.162 598.888,102.162C598.733,102.006 597.302,103.173 595.718,104.746C595.718,104.746 595.718,104.746 595.718,104.746C594.134,106.319 592.957,107.742 593.112,107.898C593.112,107.898 593.112,107.898 593.112,107.898C593.267,108.054 594.698,106.887 596.282,105.314C596.282,105.314 596.282,105.314 596.282,105.314C597.866,103.741 599.043,102.318 598.888,102.162ZM584.913,103.937C584.74,103.777 583.242,105.109 581.594,106.888C581.594,106.888 581.594,106.888 581.594,106.888C579.947,108.667 578.734,110.263 578.907,110.423C578.907,110.423 578.907,110.423 578.907,110.423C579.08,110.583 580.578,109.251 582.226,107.472C582.226,107.472 582.226,107.472 582.226,107.472C583.873,105.693 585.086,104.097 584.913,103.937C584.913,103.937 584.913,103.937 584.913,103.937ZM559.36,120.56C557.507,125.827 556.083,130.853 555.09,135.64C554.943,136.353 554.903,137.053 554.97,137.74C554.983,137.793 555.032,137.831 555.086,137.831C555.138,137.831 555.183,137.798 555.2,137.75C557.02,131.063 558.73,125.447 560.33,120.9C561.93,116.347 564.12,110.897 566.9,104.55C566.908,104.534 566.912,104.516 566.912,104.498C566.912,104.432 566.858,104.378 566.792,104.378C566.762,104.378 566.732,104.389 566.71,104.41C566.223,104.903 565.813,105.473 565.48,106.12C563.26,110.473 561.22,115.287 559.36,120.56ZM565.6,138.53L572.21,117.44C572.213,117.429 572.215,117.417 572.215,117.405C572.215,117.352 572.18,117.305 572.13,117.29L572.08,117.27C572.079,117.27 572.078,117.269 572.077,117.269C571.418,117.062 569.451,121.437 567.72,126.96C567.72,126.96 567.35,128.15 567.35,128.15C565.62,133.671 564.739,138.383 565.399,138.59C565.399,138.59 565.4,138.59 565.4,138.59L565.45,138.61C565.461,138.613 565.473,138.615 565.485,138.615C565.538,138.615 565.585,138.58 565.6,138.53ZM581.691,127.44C581.78,127.257 581.703,127.034 581.52,126.946L581.484,126.928C581.434,126.904 581.378,126.891 581.322,126.891C581.181,126.891 581.051,126.972 580.99,127.099L575.949,137.48C575.86,137.663 575.937,137.886 576.12,137.975L576.156,137.992C576.206,138.016 576.262,138.029 576.318,138.029C576.459,138.029 576.589,137.948 576.651,137.821L581.691,127.44ZM714.26,139.98C714.54,139.88 714.577,139.573 714.37,139.06C713.063,135.787 712.34,134.177 712.2,134.23C712.04,134.29 712.527,135.99 713.66,139.33C713.833,139.843 714.033,140.06 714.26,139.98ZM709.55,140.36C709.53,140.321 709.503,140.286 709.47,140.257C709.319,140.122 709.08,140.139 708.941,140.295C708.911,140.329 708.887,140.368 708.87,140.41C708.757,140.677 708.767,140.873 708.9,141C709.127,141.213 709.32,141.2 709.48,140.96C709.62,140.747 709.643,140.547 709.55,140.36ZM576.33,143.35L575.96,148.23C575.96,148.233 575.96,148.237 575.96,148.24C575.96,148.319 576.022,148.385 576.1,148.39L576.18,148.4C576.807,148.438 577.397,147.447 577.49,146.2L577.54,145.58C577.634,144.331 577.197,143.263 576.57,143.21L576.49,143.21C576.487,143.21 576.483,143.21 576.48,143.21C576.401,143.21 576.335,143.272 576.33,143.35ZM710.7,173.45C712.753,172.357 714.7,172.263 716.54,173.17C716.956,173.369 717.458,173.226 717.7,172.84C721.933,166.06 722.977,158.947 720.83,151.5C718.62,143.85 710.58,142.2 705.88,149.09C705.502,149.647 705.399,150.348 705.6,150.99C707.773,158.05 709.183,165.377 709.83,172.97C709.834,173.01 709.841,173.05 709.853,173.088C709.946,173.404 710.278,173.588 710.589,173.496C710.627,173.485 710.665,173.469 710.7,173.45ZM561.97,153.87C561.83,154.09 561.823,154.333 561.95,154.6C561.989,154.7 562.085,154.766 562.193,154.766C562.335,154.766 562.453,154.649 562.453,154.506C562.453,154.494 562.452,154.482 562.45,154.47L562.43,153.99C562.422,153.859 562.312,153.755 562.18,153.755C562.095,153.755 562.016,153.798 561.97,153.87ZM548.71,187.65L549.41,187.66C549.505,187.66 549.585,187.585 549.59,187.49L549.6,187.35C549.6,187.348 549.6,187.345 549.6,187.343C549.904,172.852 549.95,160.924 549.704,160.919C549.702,160.919 549.701,160.919 549.7,160.92L549.54,160.92C549.292,161.021 548.842,172.911 548.54,187.33L548.53,187.47C548.53,187.569 548.611,187.65 548.71,187.65ZM558.357,167.387C558.359,167.369 558.36,167.351 558.36,167.333C558.36,167.096 558.18,166.893 557.944,166.866L557.905,166.862C557.648,166.832 557.413,167.018 557.384,167.274L555.623,182.493C555.621,182.511 555.62,182.529 555.62,182.547C555.62,182.784 555.8,182.987 556.036,183.014L556.075,183.018C556.332,183.048 556.567,182.862 556.596,182.606L558.357,167.387ZM715.681,176.473C713.791,175.435 711.352,176.19 710.276,178.147C710.276,178.147 710.276,178.147 710.276,178.147C709.2,180.103 709.87,182.568 711.759,183.607C711.759,183.607 711.759,183.607 711.759,183.607C713.649,184.645 716.088,183.89 717.164,181.933C717.164,181.933 717.164,181.933 717.164,181.933C718.24,179.977 717.57,177.512 715.681,176.473C715.681,176.473 715.681,176.473 715.681,176.473ZM562.991,180.98C562.777,180.744 562.317,180.807 561.971,181.12C561.625,181.432 561.516,181.884 561.729,182.12C561.943,182.356 562.403,182.293 562.749,181.98C563.095,181.668 563.204,181.216 562.991,180.98ZM567.17,182.5C567.13,183.047 567.377,183.577 567.91,184.09C567.985,184.159 568.084,184.197 568.186,184.197C568.357,184.197 568.51,184.09 568.57,183.93C568.59,183.877 568.633,183.437 568.7,182.61C568.76,181.79 568.783,181.35 568.77,181.29C568.731,181.1 568.562,180.963 568.369,180.963C568.283,180.963 568.2,180.99 568.13,181.04C567.53,181.467 567.21,181.953 567.17,182.5ZM725.878,189.395C725.869,189.221 725.723,189.082 725.549,189.082C725.543,189.082 725.537,189.082 725.531,189.083L725.511,189.084C725.337,189.093 725.199,189.239 725.199,189.413C725.199,189.419 725.199,189.425 725.199,189.431L726.182,208.185C726.191,208.359 726.337,208.498 726.511,208.498C726.517,208.498 726.523,208.498 726.529,208.497L726.549,208.496C726.723,208.487 726.861,208.341 726.861,208.167C726.861,208.161 726.861,208.155 726.861,208.149L725.878,189.395ZM555.828,216.744C555.671,216.905 555.963,217.447 556.474,217.944C556.985,218.441 557.535,218.718 557.692,218.556C557.849,218.395 557.557,217.853 557.046,217.356C556.535,216.859 555.985,216.582 555.828,216.744ZM577.73,220.98C577.73,218.605 575.775,216.65 573.4,216.65C571.025,216.65 569.07,218.605 569.07,220.98C569.07,223.355 571.025,225.31 573.4,225.31C575.775,225.31 577.73,223.355 577.73,220.98ZM726.881,218.003C726.882,217.789 726.708,217.612 726.494,217.61C726.494,217.61 726.432,217.61 726.431,217.61C726.218,217.61 726.042,217.784 726.041,217.997L725.979,226.837C725.978,227.051 726.152,227.228 726.366,227.23C726.366,227.23 726.428,227.23 726.429,227.23C726.642,227.23 726.818,227.056 726.819,226.843L726.881,218.003ZM550.81,221.449C550.737,221.265 550.526,221.174 550.342,221.247L550.305,221.261C550.168,221.315 550.078,221.449 550.078,221.596C550.078,221.641 550.086,221.686 550.103,221.729L555.33,234.931C555.403,235.115 555.614,235.206 555.798,235.134L555.835,235.119C555.972,235.065 556.062,234.931 556.062,234.784C556.062,234.739 556.054,234.694 556.037,234.652L550.81,221.449ZM706.788,225.211C706.788,225.205 706.788,225.199 706.788,225.193C706.788,224.969 706.609,224.783 706.386,224.773L706.346,224.772C706.116,224.762 705.918,224.943 705.908,225.173L704.793,250.729C704.792,250.735 704.792,250.741 704.792,250.747C704.792,250.971 704.971,251.157 705.194,251.167L705.234,251.168C705.464,251.178 705.662,250.997 705.672,250.767L706.788,225.211ZM694.64,228.03C694.653,228.017 694.67,227.933 694.69,227.78C694.69,227.777 694.69,227.775 694.69,227.772C694.69,227.684 694.618,227.612 694.53,227.612C694.513,227.612 694.496,227.615 694.48,227.62C694.427,227.64 694.37,227.703 694.31,227.81C694.296,227.837 694.289,227.868 694.289,227.898C694.289,228.008 694.38,228.098 694.489,228.098C694.547,228.098 694.602,228.073 694.64,228.03ZM569.858,228.397C569.646,228.595 569.811,229.121 570.223,229.562C570.635,230.003 571.149,230.202 571.362,230.003C571.574,229.805 571.409,229.279 570.997,228.838C570.585,228.397 570.071,228.198 569.858,228.397ZM561.569,228.988C561.569,228.988 561.569,228.988 561.569,228.988C561.425,229.08 561.66,229.707 562.089,230.377C562.517,231.047 562.988,231.523 563.131,231.432C563.131,231.432 563.131,231.432 563.131,231.432C563.275,231.34 563.04,230.713 562.611,230.043C562.183,229.373 561.712,228.897 561.569,228.988ZM715.2,250.31L715.78,231.88C715.78,231.814 715.726,231.76 715.66,231.76L715.6,231.76C715.032,231.764 714.473,234.713 714.36,238.31L714.18,243.81C714.18,243.81 714.18,243.81 714.18,243.811C714.066,247.424 714.442,250.412 715.012,250.43C715.015,250.43 715.017,250.43 715.02,250.43L715.08,250.43C715.146,250.43 715.2,250.376 715.2,250.31ZM724.4,259.23C725.627,264.623 727.157,269.24 728.99,273.08C729.051,273.21 729.182,273.293 729.325,273.293C729.43,273.293 729.53,273.248 729.6,273.17C729.64,273.117 729.63,272.997 729.57,272.81C727.93,267.87 726.623,263.247 725.65,258.94C724.677,254.64 723.867,249.907 723.22,244.74C723.193,244.547 723.153,244.433 723.1,244.4C723.053,244.379 723.002,244.368 722.95,244.368C722.747,244.368 722.58,244.535 722.58,244.738C722.58,244.742 722.58,244.746 722.58,244.75C722.573,249.003 723.18,253.83 724.4,259.23ZM590.369,244.849C590.24,244.942 590.635,245.714 591.245,246.56C591.854,247.405 592.462,248.024 592.591,247.931C592.72,247.838 592.325,247.066 591.715,246.22C591.106,245.375 590.498,244.756 590.369,244.849ZM633.7,254.58C634.7,262.38 633.88,272.89 625.84,276.73C625.573,276.852 625.448,277.168 625.56,277.44L632.29,293.55C632.343,293.669 632.41,293.78 632.49,293.88C633.13,294.693 634.343,295.57 636.13,296.51C649.097,303.363 662.16,303.553 675.32,297.08C681.653,293.96 685.92,289.13 688.12,282.59C688.303,282.055 688.059,281.458 687.55,281.2C683.67,279.287 681.237,276.183 680.25,271.89C678.43,263.983 677.257,255.803 676.73,247.35C676.726,247.299 676.716,247.248 676.699,247.2C676.593,246.888 676.254,246.718 675.947,246.822C675.899,246.838 675.853,246.861 675.81,246.89C663.157,255.503 649.277,257.927 634.17,254.16C634.139,254.152 634.108,254.148 634.076,254.148C633.868,254.148 633.696,254.32 633.696,254.528C633.696,254.546 633.698,254.563 633.7,254.58ZM689.81,263.21L689.19,247.74C689.185,247.716 689.164,247.7 689.14,247.7L689.11,247.7C689.108,247.7 689.107,247.7 689.105,247.7C688.546,247.723 688.224,251.157 688.39,255.31L688.41,255.73C688.577,259.875 689.172,263.269 689.73,263.26L689.76,263.26C689.787,263.26 689.81,263.237 689.81,263.21ZM611.033,256.491C610.85,256.621 610.982,257.126 611.326,257.608C611.67,258.09 612.104,258.38 612.287,258.249C612.287,258.249 612.287,258.249 612.287,258.249C612.47,258.119 612.338,257.614 611.994,257.132C611.65,256.65 611.216,256.36 611.033,256.491C611.033,256.491 611.033,256.491 611.033,256.491ZM704.748,258.797C704.718,258.458 704.431,258.194 704.09,258.194C704.071,258.194 704.052,258.195 704.033,258.197L703.993,258.2C703.632,258.232 703.361,258.555 703.393,258.916L705.052,277.883C705.082,278.222 705.369,278.486 705.71,278.486C705.729,278.486 705.748,278.485 705.767,278.483L705.807,278.479C706.168,278.448 706.439,278.125 706.407,277.765L704.748,258.797ZM578.094,265.757C577.981,265.813 578.247,266.583 578.684,267.462C579.121,268.342 579.573,269.019 579.686,268.963C579.686,268.963 579.686,268.963 579.686,268.963C579.799,268.907 579.533,268.137 579.096,267.258C578.659,266.378 578.207,265.701 578.094,265.757C578.094,265.757 578.094,265.757 578.094,265.757ZM580.43,270.34C580.417,270.147 580.37,269.99 580.29,269.87C580.258,269.823 580.206,269.796 580.149,269.796C580.056,269.796 579.979,269.872 579.979,269.966C579.979,269.97 579.98,269.975 579.98,269.98C580.007,270.147 580.047,270.293 580.1,270.42C580.121,270.492 580.188,270.542 580.263,270.542C580.356,270.542 580.433,270.465 580.433,270.372C580.433,270.361 580.432,270.35 580.43,270.34ZM574.69,270.78C574.697,270.76 574.677,270.577 574.63,270.23C574.622,270.104 574.516,270.005 574.39,270.005C574.258,270.005 574.15,270.113 574.15,270.245C574.15,270.25 574.15,270.255 574.15,270.26C574.137,270.547 574.153,270.733 574.2,270.82C574.248,270.905 574.338,270.959 574.436,270.959C574.55,270.959 574.652,270.887 574.69,270.78ZM565.09,279.85C565.48,281.95 566.67,286.21 568.5,288.17C568.56,288.251 568.656,288.299 568.757,288.299C568.932,288.299 569.077,288.155 569.077,287.979C569.077,287.927 569.064,287.876 569.04,287.83C567.96,285.13 566.83,282.28 566.34,279.61C565.85,276.95 565.89,273.88 565.94,270.97C565.94,270.967 565.94,270.964 565.94,270.961C565.94,270.785 565.796,270.641 565.62,270.641C565.487,270.641 565.366,270.725 565.32,270.85C564.3,273.34 564.7,277.73 565.09,279.85ZM589.026,273.545C588.939,273.4 588.782,273.311 588.614,273.311C588.527,273.311 588.442,273.335 588.367,273.38L588.333,273.4C588.188,273.487 588.099,273.643 588.099,273.812C588.099,273.899 588.123,273.984 588.168,274.059L592.594,281.455C592.681,281.6 592.838,281.689 593.006,281.689C593.093,281.689 593.178,281.665 593.253,281.62L593.287,281.6C593.432,281.513 593.521,281.357 593.521,281.188C593.521,281.101 593.497,281.016 593.452,280.942L589.026,273.545ZM601.747,273.826C601.685,273.639 601.508,273.513 601.311,273.513C601.262,273.513 601.212,273.521 601.165,273.537L601.108,273.556C600.921,273.619 600.795,273.795 600.795,273.992C600.795,274.042 600.803,274.091 600.819,274.138L602.433,278.934C602.495,279.121 602.672,279.247 602.869,279.247C602.918,279.247 602.968,279.239 603.015,279.223L603.072,279.204C603.259,279.141 603.385,278.965 603.385,278.768C603.385,278.718 603.377,278.669 603.361,278.622L601.747,273.826ZM574.43,281.768C574.43,281.768 574.43,281.769 574.43,281.769C574.056,281.976 574.321,283.181 575.018,284.438C575.018,284.438 575.018,284.438 575.018,284.438C575.715,285.695 576.596,286.559 576.97,286.352C576.97,286.352 576.97,286.351 576.97,286.351C577.344,286.144 577.079,284.939 576.382,283.682C576.382,283.682 576.382,283.682 576.382,283.682C575.685,282.425 574.804,281.561 574.43,281.768ZM604.031,282.444C603.892,282.474 603.921,283.165 604.096,283.975C604.271,284.784 604.53,285.426 604.669,285.396C604.808,285.366 604.779,284.675 604.604,283.865C604.429,283.056 604.17,282.414 604.031,282.444ZM604.972,285.911C604.808,285.973 604.947,286.751 605.281,287.633C605.614,288.516 606.024,289.191 606.188,289.129C606.352,289.067 606.213,288.289 605.879,287.407C605.546,286.524 605.136,285.849 604.972,285.911ZM609.18,305.57L598.93,290.25L598.89,290.27C598.414,290.621 600.284,294.284 603.04,298.4L603.21,298.66C603.211,298.661 603.211,298.662 603.212,298.663C605.977,302.793 608.657,305.92 609.149,305.591C609.149,305.59 609.18,305.57 609.18,305.57ZM736.169,297.547C736.169,297.547 736.169,297.547 736.169,297.547C736.022,297.662 736.706,298.779 737.683,300.02C737.683,300.02 737.683,300.02 737.683,300.02C738.66,301.262 739.584,302.189 739.731,302.073C739.731,302.073 739.731,302.073 739.731,302.073C739.878,301.958 739.194,300.841 738.217,299.6C738.217,299.6 738.217,299.6 738.217,299.6C737.24,298.358 736.316,297.431 736.169,297.547ZM628.928,298.447C628.748,298.582 629.5,299.887 630.593,301.337C631.685,302.787 632.732,303.869 632.912,303.734C633.092,303.598 632.34,302.293 631.247,300.843C630.155,299.393 629.108,298.311 628.928,298.446ZM733.511,302.482C733.355,302.659 733.678,303.201 734.226,303.683C734.774,304.165 735.353,304.415 735.509,304.238C735.665,304.061 735.342,303.519 734.794,303.037C734.246,302.555 733.667,302.305 733.511,302.482ZM603.143,306.515C603.093,306.458 603.021,306.425 602.946,306.425C602.883,306.425 602.823,306.447 602.776,306.488L602.624,306.618C602.516,306.711 602.504,306.877 602.597,306.985L611.817,317.705C611.867,317.762 611.939,317.795 612.014,317.795C612.077,317.795 612.137,317.773 612.184,317.732L612.336,317.602C612.444,317.509 612.456,317.343 612.363,317.235L603.143,306.515ZM617.161,309.621C617.112,309.565 617.041,309.533 616.967,309.533C616.903,309.533 616.841,309.556 616.794,309.599L616.51,309.851C616.454,309.9 616.422,309.971 616.422,310.045C616.422,310.109 616.446,310.171 616.488,310.218L625.119,319.94C625.168,319.995 625.239,320.027 625.313,320.027C625.377,320.027 625.439,320.004 625.486,319.961L625.77,319.709C625.826,319.66 625.858,319.589 625.858,319.515C625.858,319.451 625.834,319.389 625.792,319.342L617.161,309.621ZM621.041,327.283C621.156,327.077 621.083,326.813 620.877,326.697L613.315,322.436C613.25,322.4 613.178,322.381 613.104,322.381C612.949,322.381 612.805,322.465 612.729,322.6L612.719,322.617C612.604,322.823 612.677,323.087 612.883,323.203L620.445,327.464C620.51,327.5 620.582,327.519 620.656,327.519C620.811,327.519 620.955,327.435 621.031,327.3L621.041,327.283Z" style="fill:rgb(1,1,1);fill-rule:nonzero;"/>
        <g transform="matrix(-0.928486,-0.371368,0.371368,-0.928486,631.17,59.26)">
            <ellipse cx="0" cy="0" rx="2.56" ry="0.56" style="fill:rgb(114,171,157);"/>
        </g>
        <path d="M675.6,75.3C668.71,70.08 663.77,65.62 654.56,64.93C654.376,64.919 654.23,64.765 654.23,64.58L654.23,64.57C654.235,64.4 654.37,64.26 654.54,64.25C662.22,63.8 670.95,69.6 675.77,75.12C675.795,75.143 675.809,75.176 675.809,75.21C675.809,75.278 675.753,75.334 675.685,75.334C675.653,75.334 675.623,75.322 675.6,75.3Z" style="fill:white;fill-rule:nonzero;"/>
        <g transform="matrix(0.878817,-0.477159,0.477159,0.878817,597.68,68.05)">
            <path d="M7.79,-0.01L7.79,0.01C7.79,0.148 7.678,0.26 7.54,0.26L-7.54,0.26C-7.678,0.26 -7.79,0.148 -7.79,0.01L-7.79,-0.01C-7.79,-0.148 -7.678,-0.26 -7.54,-0.26L7.54,-0.26C7.678,-0.26 7.79,-0.148 7.79,-0.01Z" style="fill:white;"/>
        </g>
        <g transform="matrix(-0.975917,-0.218143,0.218143,-0.975917,623.46,66.34)">
            <ellipse cx="0" cy="0" rx="1.11" ry="0.61" style="fill:white;"/>
        </g>
        <path d="M590.83,77.8C594.54,75.22 598.96,72.48 603.19,71.55C603.203,71.546 603.216,71.543 603.23,71.543C603.297,71.543 603.352,71.598 603.352,71.665C603.352,71.717 603.319,71.763 603.27,71.78C598.403,74.113 594.42,76.357 591.32,78.51C588.227,80.663 584.737,83.61 580.85,87.35C580.827,87.379 580.792,87.396 580.755,87.396C580.689,87.396 580.634,87.341 580.634,87.275C580.634,87.248 580.643,87.221 580.66,87.2C583.01,83.56 587.12,80.38 590.83,77.8Z" style="fill:white;fill-rule:nonzero;"/>
        <path d="M641.38,75.72C641.222,75.396 641.282,75.007 641.53,74.75C642.137,74.123 642.53,73.373 642.71,72.5C642.711,72.495 642.712,72.49 642.713,72.485C642.84,71.873 643.444,71.472 644.051,71.598C644.054,71.599 644.057,71.599 644.06,71.6L645.35,71.9C645.388,71.909 645.426,71.92 645.463,71.933C645.953,72.112 646.208,72.666 646.028,73.16C646.014,73.198 645.998,73.234 645.98,73.27C645.233,74.703 645.783,75.95 647.63,77.01C648.034,77.242 648.236,77.719 648.12,78.17C647.613,80.29 647.947,81.817 649.12,82.75C652.2,85.203 654.247,86.637 655.26,87.05C658.38,88.32 665.09,91.07 668.52,93.63C672.053,96.257 675.647,99.857 679.3,104.43C679.601,104.803 679.656,105.324 679.44,105.76C679.347,105.933 679.293,106.103 679.28,106.27C679.247,106.68 679.377,107.086 679.64,107.4C692.74,123.01 699.97,142.45 704.03,162.34C706.35,173.7 705.17,186.17 702.64,197.36C698.24,216.93 686.3,236.31 668.28,245.85C653.88,253.46 639.06,251.58 624.01,246.72C606.87,241.2 593.06,231.287 582.58,216.98C582.292,216.593 581.821,216.384 581.34,216.43L580.86,216.46C580.361,216.508 579.867,216.315 579.53,215.94C576.11,212.16 570.67,211.44 567.58,215.81C566.993,216.643 566.617,217.15 566.45,217.33C566.24,217.573 565.891,217.647 565.6,217.51C561.147,215.43 557.753,212.39 555.42,208.39C551.54,201.74 550.94,191.76 558.46,187.49C563.01,184.91 566.25,187.32 569.76,190.1C570.361,190.575 571.212,190.596 571.84,190.15C573.58,188.93 574.12,187.48 574.36,185.17C577.56,153.94 586.84,122.15 611.73,100.96C611.741,100.951 611.751,100.942 611.762,100.934C612.027,100.738 612.409,100.799 612.608,101.068C612.615,101.078 612.623,101.089 612.63,101.1C613.45,102.413 614.497,102.463 615.77,101.25C622.357,95.043 627.463,90.69 631.09,88.19C632.89,86.96 635.49,87.46 637.34,86.64C640.687,85.153 642.563,82.72 642.97,79.34C643.001,79.076 642.952,78.808 642.83,78.57L641.38,75.72ZM662.48,131.78C658,131.693 653.86,133 650.06,135.7C649.13,136.361 648.796,137.601 649.27,138.64C650.16,140.63 651.76,140.1 653.49,139.29C656.67,137.797 659.633,137.077 662.38,137.13C665.127,137.183 668.06,138.017 671.18,139.63C672.87,140.51 674.46,141.1 675.42,139.14C675.928,138.122 675.642,136.875 674.74,136.18C671.047,133.333 666.96,131.867 662.48,131.78ZM598.14,151.93C594.327,154.397 591.587,157.847 589.92,162.28C589.515,163.363 589.936,164.593 590.92,165.2C592.8,166.37 593.85,165.01 594.84,163.35C596.673,160.29 598.757,158.003 601.09,156.49C603.43,154.977 606.37,154.013 609.91,153.6C611.83,153.38 613.5,152.98 613.21,150.78C613.055,149.635 612.104,148.75 610.95,148.68C606.23,148.38 601.96,149.463 598.14,151.93ZM665.45,152.52C658.88,153.11 660.2,161.92 664.17,164.32C670.33,168.02 676.95,155.78 670.4,152.67C669.7,152.343 668.05,152.293 665.45,152.52ZM614.9,178.98C615.3,177.707 615.99,176.76 616.97,176.14C617.671,175.692 618.096,174.916 618.096,174.084C618.096,173.471 617.865,172.88 617.45,172.43C615.67,170.52 613.77,167.32 610.96,167.38C607.727,167.453 605.757,169.18 605.05,172.56C604.923,173.18 605.287,175.117 606.14,178.37C606.263,178.831 606.53,179.238 606.9,179.53C609.253,181.397 611.56,181.667 613.82,180.34C614.335,180.037 614.72,179.553 614.9,178.98ZM644.73,211.01C641.81,211.91 633.26,216.53 633.81,220.29C633.843,220.517 633.921,220.735 634.039,220.932C634.523,221.741 635.58,222.013 636.381,221.534C636.571,221.42 636.738,221.269 636.87,221.09C639.19,217.883 642.177,215.717 645.83,214.59C649.49,213.47 653.18,213.583 656.9,214.93C657.115,215.008 657.343,215.041 657.57,215.028C658.501,214.974 659.223,214.155 659.168,213.213C659.155,212.979 659.094,212.75 658.99,212.54C657.32,209.13 647.65,210.11 644.73,211.01Z" style="fill:white;fill-rule:nonzero;"/>
        <path d="M670.92,78.76C673.133,80.4 675.297,82.387 677.41,84.72C677.452,84.754 677.476,84.806 677.476,84.86C677.476,84.959 677.394,85.041 677.295,85.041C677.253,85.041 677.212,85.027 677.18,85C674.9,83.53 672.85,81.5 670.3,79.6C667.74,77.7 665.21,76.32 663.14,74.56C663.09,74.527 663.06,74.47 663.06,74.41C663.06,74.311 663.141,74.23 663.24,74.23C663.276,74.23 663.31,74.24 663.34,74.26C666.18,75.613 668.707,77.113 670.92,78.76Z" style="fill:white;fill-rule:nonzero;"/>
        <g transform="matrix(0.862514,-0.506034,0.506034,0.862514,617.91,81.6)">
            <ellipse cx="0" cy="0" rx="2.74" ry="0.39" style="fill:rgb(114,171,157);"/>
        </g>
        <g transform="matrix(0.718126,-0.695913,0.695913,0.718126,635.59,82.15)">
            <ellipse cx="0" cy="0" rx="0.87" ry="0.69" style="fill:rgb(114,171,157);"/>
        </g>
        <g transform="matrix(-0.898028,-0.439939,0.439939,-0.898028,659.33,84.15)">
            <ellipse cx="0" cy="0" rx="3.66" ry="0.45" style="fill:white;"/>
        </g>
        <g transform="matrix(0.868632,-0.495459,0.495459,0.868632,629.34,84.23)">
            <ellipse cx="0" cy="0" rx="2.48" ry="0.5" style="fill:rgb(114,171,157);"/>
        </g>
        <path d="M594.23,90.39C598.03,87.463 601.607,85.227 604.96,83.68C605.004,83.659 605.052,83.648 605.1,83.648C605.273,83.648 605.416,83.787 605.42,83.96C605.413,84.02 605.34,84.093 605.2,84.18C601.373,86.573 597.943,88.937 594.91,91.27C591.877,93.603 588.717,96.317 585.43,99.41C585.303,99.523 585.213,99.573 585.16,99.56C585.02,99.523 584.921,99.395 584.921,99.25C584.921,99.173 584.949,99.098 585,99.04C587.353,96.2 590.43,93.317 594.23,90.39Z" style="fill:white;fill-rule:nonzero;"/>
        <path d="M671.16,90.02C671.32,89.827 671.62,89.92 672.06,90.3C674.873,92.707 676.223,93.98 676.11,94.12C676.01,94.247 674.49,93.18 671.55,90.92C671.097,90.567 670.967,90.267 671.16,90.02Z" style="fill:white;fill-rule:nonzero;"/>
        <g transform="matrix(0.709571,-0.704634,0.704634,0.709571,596,105.03)">
            <ellipse cx="0" cy="0" rx="4.07" ry="0.4" style="fill:white;"/>
        </g>
        <g transform="matrix(0.679441,-0.73373,0.73373,0.679441,581.91,107.18)">
            <ellipse cx="0" cy="0" rx="4.42" ry="0.43" style="fill:white;"/>
        </g>
        <path d="M559.36,120.56C561.22,115.287 563.26,110.473 565.48,106.12C565.813,105.473 566.223,104.903 566.71,104.41C566.732,104.389 566.762,104.378 566.792,104.378C566.858,104.378 566.912,104.432 566.912,104.498C566.912,104.516 566.908,104.534 566.9,104.55C564.12,110.897 561.93,116.347 560.33,120.9C558.73,125.447 557.02,131.063 555.2,137.75C555.183,137.798 555.138,137.831 555.086,137.831C555.032,137.831 554.983,137.793 554.97,137.74C554.903,137.053 554.943,136.353 555.09,135.64C556.083,130.853 557.507,125.827 559.36,120.56Z" style="fill:white;fill-rule:nonzero;"/>
        <path d="M565.6,138.53C565.585,138.58 565.538,138.615 565.485,138.615C565.473,138.615 565.461,138.613 565.45,138.61L565.4,138.59C565.4,138.59 565.399,138.59 565.399,138.59C564.739,138.383 565.62,133.671 567.35,128.15C567.35,128.15 567.72,126.96 567.72,126.96C569.451,121.437 571.418,117.062 572.077,117.269C572.078,117.269 572.079,117.27 572.08,117.27L572.13,117.29C572.18,117.305 572.215,117.352 572.215,117.405C572.215,117.417 572.213,117.429 572.21,117.44L565.6,138.53Z" style="fill:white;fill-rule:nonzero;"/>
        <g transform="matrix(0.899558,0.436802,-0.436802,0.899558,578.82,132.46)">
            <path d="M0.39,-5.77L0.39,5.77C0.39,5.974 0.224,6.14 0.02,6.14L-0.02,6.14C-0.224,6.14 -0.39,5.974 -0.39,5.77L-0.39,-5.77C-0.39,-5.974 -0.224,-6.14 -0.02,-6.14L0.02,-6.14C0.224,-6.14 0.39,-5.974 0.39,-5.77Z" style="fill:white;"/>
        </g>
        <path d="M662.48,131.78C666.96,131.867 671.047,133.333 674.74,136.18C675.642,136.875 675.928,138.122 675.42,139.14C674.46,141.1 672.87,140.51 671.18,139.63C668.06,138.017 665.127,137.183 662.38,137.13C659.633,137.077 656.67,137.797 653.49,139.29C651.76,140.1 650.16,140.63 649.27,138.64C648.796,137.601 649.13,136.361 650.06,135.7C653.86,133 658,131.693 662.48,131.78Z" style="fill:rgb(1,1,1);fill-rule:nonzero;"/>
        <path d="M714.26,139.98C714.033,140.06 713.833,139.843 713.66,139.33C712.527,135.99 712.04,134.29 712.2,134.23C712.34,134.177 713.063,135.787 714.37,139.06C714.577,139.573 714.54,139.88 714.26,139.98Z" style="fill:rgb(114,171,157);fill-rule:nonzero;"/>
        <path d="M709.55,140.36C709.643,140.547 709.62,140.747 709.48,140.96C709.32,141.2 709.127,141.213 708.9,141C708.767,140.873 708.757,140.677 708.87,140.41C708.887,140.368 708.911,140.329 708.941,140.295C709.08,140.139 709.319,140.122 709.47,140.257C709.503,140.286 709.53,140.321 709.55,140.36Z" style="fill:rgb(114,171,157);fill-rule:nonzero;"/>
        <path d="M576.33,143.35C576.335,143.272 576.401,143.21 576.48,143.21C576.483,143.21 576.487,143.21 576.49,143.21L576.57,143.21C577.197,143.263 577.634,144.331 577.54,145.58L577.49,146.2C577.397,147.447 576.807,148.438 576.18,148.4L576.1,148.39C576.022,148.385 575.96,148.319 575.96,148.24C575.96,148.237 575.96,148.233 575.96,148.23L576.33,143.35Z" style="fill:white;fill-rule:nonzero;"/>
        <path d="M710.7,173.45C710.665,173.469 710.627,173.485 710.589,173.496C710.278,173.588 709.946,173.404 709.853,173.088C709.841,173.05 709.834,173.01 709.83,172.97C709.183,165.377 707.773,158.05 705.6,150.99C705.399,150.348 705.502,149.647 705.88,149.09C710.58,142.2 718.62,143.85 720.83,151.5C722.977,158.947 721.933,166.06 717.7,172.84C717.458,173.226 716.956,173.369 716.54,173.17C714.7,172.263 712.753,172.357 710.7,173.45Z" style="fill:white;fill-rule:nonzero;"/>
        <path d="M601.09,156.49C598.757,158.003 596.673,160.29 594.84,163.35C593.85,165.01 592.8,166.37 590.92,165.2C589.936,164.593 589.515,163.363 589.92,162.28C591.587,157.847 594.327,154.397 598.14,151.93C601.96,149.463 606.23,148.38 610.95,148.68C612.104,148.75 613.055,149.635 613.21,150.78C613.5,152.98 611.83,153.38 609.91,153.6C606.37,154.013 603.43,154.977 601.09,156.49Z" style="fill:rgb(1,1,1);fill-rule:nonzero;"/>
        <path d="M665.45,152.52C668.05,152.293 669.7,152.343 670.4,152.67C676.95,155.78 670.33,168.02 664.17,164.32C660.2,161.92 658.88,153.11 665.45,152.52ZM667.377,156.284C666.918,156.324 666.582,156.838 666.633,157.423C666.684,158.008 667.104,158.456 667.563,158.416C667.563,158.416 667.563,158.416 667.563,158.416C668.022,158.376 668.358,157.862 668.307,157.277C668.256,156.692 667.836,156.244 667.377,156.284C667.377,156.284 667.377,156.284 667.377,156.284Z" style="fill:rgb(1,1,1);fill-rule:nonzero;"/>
        <path d="M561.97,153.87C562.016,153.798 562.095,153.755 562.18,153.755C562.312,153.755 562.422,153.859 562.43,153.99L562.45,154.47C562.452,154.482 562.453,154.494 562.453,154.506C562.453,154.649 562.335,154.766 562.193,154.766C562.085,154.766 561.989,154.7 561.95,154.6C561.823,154.333 561.83,154.09 561.97,153.87Z" style="fill:rgb(114,171,157);fill-rule:nonzero;"/>
        <g transform="matrix(-0.0871557,-0.996195,0.996195,-0.0871557,667.47,157.35)">
            <ellipse cx="0" cy="0" rx="1.07" ry="0.84" style="fill:white;"/>
        </g>
        <path d="M548.71,187.65C548.611,187.65 548.53,187.569 548.53,187.47L548.54,187.33C548.842,172.911 549.292,161.021 549.54,160.92L549.7,160.92C549.701,160.919 549.702,160.919 549.704,160.919C549.95,160.924 549.904,172.852 549.6,187.343C549.6,187.345 549.6,187.348 549.6,187.35L549.59,187.49C549.585,187.585 549.505,187.66 549.41,187.66L548.71,187.65Z" style="fill:white;fill-rule:nonzero;"/>
        <g transform="matrix(0.993373,0.114937,-0.114937,0.993373,556.99,174.94)">
            <path d="M0.49,-7.66L0.49,7.66C0.49,7.919 0.279,8.13 0.02,8.13L-0.02,8.13C-0.279,8.13 -0.49,7.919 -0.49,7.66L-0.49,-7.66C-0.49,-7.919 -0.279,-8.13 -0.02,-8.13L0.02,-8.13C0.279,-8.13 0.49,-7.919 0.49,-7.66Z" style="fill:white;"/>
        </g>
        <path d="M613.82,180.34C611.56,181.667 609.253,181.397 606.9,179.53C606.53,179.238 606.263,178.831 606.14,178.37C605.287,175.117 604.923,173.18 605.05,172.56C605.757,169.18 607.727,167.453 610.96,167.38C613.77,167.32 615.67,170.52 617.45,172.43C617.865,172.88 618.096,173.471 618.096,174.084C618.096,174.916 617.671,175.692 616.97,176.14C615.99,176.76 615.3,177.707 614.9,178.98C614.72,179.553 614.335,180.037 613.82,180.34ZM609.83,170.281C609.602,170.067 609.071,170.256 608.655,170.7C608.654,170.7 608.654,170.7 608.654,170.7C608.238,171.144 608.082,171.685 608.31,171.899C608.31,171.899 608.31,171.899 608.31,171.899C608.538,172.113 609.069,171.924 609.486,171.48C609.486,171.48 609.486,171.48 609.486,171.48C609.902,171.036 610.058,170.495 609.83,170.281C609.83,170.281 609.83,170.281 609.83,170.281ZM612.304,178.416C612.304,178.416 612.304,178.416 612.304,178.416C612.277,178.243 612.006,178.138 611.702,178.184C611.702,178.184 611.702,178.184 611.702,178.184C611.398,178.23 611.17,178.41 611.196,178.584C611.196,178.584 611.196,178.584 611.196,178.584C611.223,178.757 611.494,178.862 611.798,178.816C611.798,178.816 611.798,178.816 611.798,178.816C612.102,178.77 612.33,178.59 612.304,178.416Z" style="fill:rgb(1,1,1);fill-rule:nonzero;"/>
        <g transform="matrix(0.684547,-0.728969,0.728969,0.684547,609.07,171.09)">
            <ellipse cx="0" cy="0" rx="1.11" ry="0.57" style="fill:white;"/>
        </g>
        <g transform="matrix(0.481754,-0.876307,0.876307,0.481754,713.72,180.04)">
            <ellipse cx="0" cy="0" rx="4.07" ry="3.93" style="fill:white;"/>
        </g>
        <g transform="matrix(0.988756,-0.149535,0.149535,0.988756,611.75,178.5)">
            <ellipse cx="0" cy="0" rx="0.56" ry="0.32" style="fill:white;"/>
        </g>
        <g transform="matrix(0.741976,-0.670427,0.670427,0.741976,562.36,181.55)">
            <ellipse cx="0" cy="0" rx="0.85" ry="0.58" style="fill:rgb(114,171,157);"/>
        </g>
        <path d="M568.7,182.61C568.633,183.437 568.59,183.877 568.57,183.93C568.51,184.09 568.357,184.197 568.186,184.197C568.084,184.197 567.985,184.159 567.91,184.09C567.377,183.577 567.13,183.047 567.17,182.5C567.21,181.953 567.53,181.467 568.13,181.04C568.2,180.99 568.283,180.963 568.369,180.963C568.562,180.963 568.731,181.1 568.77,181.29C568.783,181.35 568.76,181.79 568.7,182.61Z" style="fill:white;fill-rule:nonzero;"/>
        <g transform="matrix(0.99863,-0.052336,0.052336,0.99863,726.03,198.79)">
            <path d="M0.34,-9.39L0.34,9.39C0.34,9.572 0.192,9.72 0.01,9.72L-0.01,9.72C-0.192,9.72 -0.34,9.572 -0.34,9.39L-0.34,-9.39C-0.34,-9.572 -0.192,-9.72 -0.01,-9.72L0.01,-9.72C0.192,-9.72 0.34,-9.572 0.34,-9.39Z" style="fill:rgb(114,171,157);"/>
        </g>
        <path d="M645.83,214.59C642.177,215.717 639.19,217.883 636.87,221.09C636.738,221.269 636.571,221.42 636.381,221.534C635.58,222.013 634.523,221.741 634.039,220.932C633.921,220.735 633.843,220.517 633.81,220.29C633.26,216.53 641.81,211.91 644.73,211.01C647.65,210.11 657.32,209.13 658.99,212.54C659.094,212.75 659.155,212.979 659.168,213.213C659.223,214.155 658.501,214.974 657.57,215.028C657.343,215.041 657.115,215.008 656.9,214.93C653.18,213.583 649.49,213.47 645.83,214.59Z" style="fill:rgb(1,1,1);fill-rule:nonzero;"/>
        <g transform="matrix(-0.716911,-0.697165,0.697165,-0.716911,556.76,217.65)">
            <ellipse cx="0" cy="0" rx="1.3" ry="0.41" style="fill:white;"/>
        </g>
        <circle cx="573.4" cy="220.98" r="4.33" style="fill:white;"/>
        <g transform="matrix(0.999976,0.00698126,-0.00698126,0.999976,726.43,222.42)">
            <path d="M0.42,-4.42L0.42,4.42C0.42,4.635 0.245,4.81 0.03,4.81L-0.03,4.81C-0.245,4.81 -0.42,4.635 -0.42,4.42L-0.42,-4.42C-0.42,-4.635 -0.245,-4.81 -0.03,-4.81L0.03,-4.81C0.245,-4.81 0.42,-4.635 0.42,-4.42Z" style="fill:rgb(114,171,157);"/>
        </g>
        <g transform="matrix(0.929776,-0.368125,0.368125,0.929776,553.07,228.19)">
            <path d="M0.38,-7.1L0.38,7.1C0.38,7.299 0.219,7.46 0.02,7.46L-0.02,7.46C-0.219,7.46 -0.38,7.299 -0.38,7.1L-0.38,-7.1C-0.38,-7.299 -0.219,-7.46 -0.02,-7.46L0.02,-7.46C0.219,-7.46 0.38,-7.299 0.38,-7.1Z" style="fill:white;"/>
        </g>
        <g transform="matrix(0.999048,0.0436194,-0.0436194,0.999048,705.79,237.97)">
            <path d="M0.44,-12.79L0.44,12.79C0.44,13.022 0.252,13.21 0.02,13.21L-0.02,13.21C-0.252,13.21 -0.44,13.022 -0.44,12.79L-0.44,-12.79C-0.44,-13.022 -0.252,-13.21 -0.02,-13.21L0.02,-13.21C0.252,-13.21 0.44,-13.022 0.44,-12.79Z" style="fill:white;"/>
        </g>
        <path d="M694.64,228.03C694.602,228.073 694.547,228.098 694.489,228.098C694.38,228.098 694.289,228.008 694.289,227.898C694.289,227.868 694.296,227.837 694.31,227.81C694.37,227.703 694.427,227.64 694.48,227.62C694.496,227.615 694.513,227.612 694.53,227.612C694.618,227.612 694.69,227.684 694.69,227.772C694.69,227.775 694.69,227.777 694.69,227.78C694.67,227.933 694.653,228.017 694.64,228.03Z" style="fill:rgb(114,171,157);fill-rule:nonzero;"/>
        <g transform="matrix(-0.683274,-0.730162,0.730162,-0.683274,570.61,229.2)">
            <ellipse cx="0" cy="0" rx="1.1" ry="0.53" style="fill:white;"/>
        </g>
        <g transform="matrix(-0.538771,-0.842452,0.842452,-0.538771,562.35,230.21)">
            <ellipse cx="0" cy="0" rx="1.45" ry="0.31" style="fill:white;"/>
        </g>
        <path d="M715.2,250.31C715.2,250.376 715.146,250.43 715.08,250.43L715.02,250.43C715.017,250.43 715.015,250.43 715.012,250.43C714.442,250.412 714.066,247.424 714.18,243.811C714.18,243.81 714.18,243.81 714.18,243.81L714.36,238.31C714.473,234.713 715.032,231.764 715.6,231.76L715.66,231.76C715.726,231.76 715.78,231.814 715.78,231.88L715.2,250.31Z" style="fill:rgb(114,171,157);fill-rule:nonzero;"/>
        <path d="M724.4,259.23C723.18,253.83 722.573,249.003 722.58,244.75C722.58,244.746 722.58,244.742 722.58,244.738C722.58,244.535 722.747,244.368 722.95,244.368C723.002,244.368 723.053,244.379 723.1,244.4C723.153,244.433 723.193,244.547 723.22,244.74C723.867,249.907 724.677,254.64 725.65,258.94C726.623,263.247 727.93,267.87 729.57,272.81C729.63,272.997 729.64,273.117 729.6,273.17C729.53,273.248 729.43,273.293 729.325,273.293C729.182,273.293 729.051,273.21 728.99,273.08C727.157,269.24 725.627,264.623 724.4,259.23Z" style="fill:rgb(114,171,157);fill-rule:nonzero;"/>
        <g transform="matrix(-0.584958,-0.811064,0.811064,-0.584958,591.48,246.39)">
            <ellipse cx="0" cy="0" rx="1.9" ry="0.29" style="fill:white;"/>
        </g>
        <path d="M633.7,254.58C633.698,254.563 633.696,254.546 633.696,254.528C633.696,254.32 633.868,254.148 634.076,254.148C634.108,254.148 634.139,254.152 634.17,254.16C649.277,257.927 663.157,255.503 675.81,246.89C675.853,246.861 675.899,246.838 675.947,246.822C676.254,246.718 676.593,246.888 676.699,247.2C676.716,247.248 676.726,247.299 676.73,247.35C677.257,255.803 678.43,263.983 680.25,271.89C681.237,276.183 683.67,279.287 687.55,281.2C688.059,281.458 688.303,282.055 688.12,282.59C685.92,289.13 681.653,293.96 675.32,297.08C662.16,303.553 649.097,303.363 636.13,296.51C634.343,295.57 633.13,294.693 632.49,293.88C632.41,293.78 632.343,293.669 632.29,293.55L625.56,277.44C625.448,277.168 625.573,276.852 625.84,276.73C633.88,272.89 634.7,262.38 633.7,254.58Z" style="fill:white;fill-rule:nonzero;"/>
        <path d="M689.81,263.21C689.81,263.237 689.787,263.26 689.76,263.26L689.73,263.26C689.172,263.269 688.577,259.875 688.41,255.73L688.39,255.31C688.224,251.157 688.546,247.723 689.105,247.7C689.107,247.7 689.108,247.7 689.11,247.7L689.14,247.7C689.164,247.7 689.185,247.716 689.19,247.74L689.81,263.21Z" style="fill:white;fill-rule:nonzero;"/>
        <g transform="matrix(-0.580703,-0.814116,0.814116,-0.580703,611.66,257.37)">
            <ellipse cx="0" cy="0" rx="1.08" ry="0.41" style="fill:white;"/>
        </g>
        <g transform="matrix(0.996195,-0.0871557,0.0871557,0.996195,704.9,268.34)">
            <path d="M0.68,-9.52L0.68,9.52C0.68,9.884 0.384,10.18 0.02,10.18L-0.02,10.18C-0.384,10.18 -0.68,9.884 -0.68,9.52L-0.68,-9.52C-0.68,-9.884 -0.384,-10.18 -0.02,-10.18L0.02,-10.18C0.384,-10.18 0.68,-9.884 0.68,-9.52Z" style="fill:rgb(114,171,157);"/>
        </g>
        <g transform="matrix(-0.444635,-0.895712,0.895712,-0.444635,578.89,267.36)">
            <ellipse cx="0" cy="0" rx="1.79" ry="0.23" style="fill:rgb(114,171,157);"/>
        </g>
        <path d="M580.43,270.34C580.432,270.35 580.433,270.361 580.433,270.372C580.433,270.465 580.356,270.542 580.263,270.542C580.188,270.542 580.121,270.492 580.1,270.42C580.047,270.293 580.007,270.147 579.98,269.98C579.98,269.975 579.979,269.97 579.979,269.966C579.979,269.872 580.056,269.796 580.149,269.796C580.206,269.796 580.258,269.823 580.29,269.87C580.37,269.99 580.417,270.147 580.43,270.34Z" style="fill:rgb(114,171,157);fill-rule:nonzero;"/>
        <path d="M574.69,270.78C574.652,270.887 574.55,270.959 574.436,270.959C574.338,270.959 574.248,270.905 574.2,270.82C574.153,270.733 574.137,270.547 574.15,270.26C574.15,270.255 574.15,270.25 574.15,270.245C574.15,270.113 574.258,270.005 574.39,270.005C574.516,270.005 574.622,270.104 574.63,270.23C574.677,270.577 574.697,270.76 574.69,270.78Z" style="fill:rgb(114,171,157);fill-rule:nonzero;"/>
        <path d="M565.09,279.85C564.7,277.73 564.3,273.34 565.32,270.85C565.366,270.725 565.487,270.641 565.62,270.641C565.796,270.641 565.94,270.785 565.94,270.961C565.94,270.964 565.94,270.967 565.94,270.97C565.89,273.88 565.85,276.95 566.34,279.61C566.83,282.28 567.96,285.13 569.04,287.83C569.064,287.876 569.077,287.927 569.077,287.979C569.077,288.155 568.932,288.299 568.757,288.299C568.656,288.299 568.56,288.251 568.5,288.17C566.67,286.21 565.48,281.95 565.09,279.85Z" style="fill:rgb(114,171,157);fill-rule:nonzero;"/>
        <g transform="matrix(0.858065,-0.513541,0.513541,0.858065,590.81,277.5)">
            <path d="M0.5,-4.31L0.5,4.31C0.5,4.575 0.285,4.79 0.02,4.79L-0.02,4.79C-0.285,4.79 -0.5,4.575 -0.5,4.31L-0.5,-4.31C-0.5,-4.575 -0.285,-4.79 -0.02,-4.79L0.02,-4.79C0.285,-4.79 0.5,-4.575 0.5,-4.31Z" style="fill:white;"/>
        </g>
        <g transform="matrix(0.947768,-0.318959,0.318959,0.947768,602.09,276.38)">
            <path d="M0.49,-2.53L0.49,2.53C0.49,2.784 0.284,2.99 0.03,2.99L-0.03,2.99C-0.284,2.99 -0.49,2.784 -0.49,2.53L-0.49,-2.53C-0.49,-2.784 -0.284,-2.99 -0.03,-2.99L0.03,-2.99C0.284,-2.99 0.49,-2.784 0.49,-2.53Z" style="fill:white;"/>
        </g>
        <g transform="matrix(-0.48481,-0.87462,0.87462,-0.48481,575.7,284.06)">
            <ellipse cx="0" cy="0" rx="2.62" ry="0.78" style="fill:rgb(114,171,157);"/>
        </g>
        <g transform="matrix(-0.211325,-0.977416,0.977416,-0.211325,604.35,283.92)">
            <ellipse cx="0" cy="0" rx="1.51" ry="0.26" style="fill:rgb(114,171,157);"/>
        </g>
        <path d="M709.95,414.1C689.61,415.9 672.877,417.01 659.75,417.43C637.59,418.15 615.78,416.92 593.73,414.78C588.85,414.313 584.203,413.62 579.79,412.7C580.6,399.96 582.25,387.55 585.45,375.6C585.55,375.224 585.876,374.95 586.26,374.92C588.467,374.753 589.757,373.663 590.13,371.65C590.663,368.803 592.58,359.94 595.88,345.06C595.906,344.941 595.919,344.819 595.919,344.697C595.919,343.844 595.277,343.116 594.43,343.01L594.34,343C593.301,342.855 592.313,343.537 592.08,344.56L586.48,369.45C586.313,370.179 585.63,370.678 584.89,370.61C571,369.42 558.24,364.95 545.93,358.46C545.472,358.22 545.241,357.688 545.38,357.19C549.89,341.07 554.97,326.12 563.42,311.44C567.22,304.84 571.15,300.07 576.67,294.17C578.037,292.697 579.64,291.52 581.48,290.64C581.692,290.538 581.95,290.622 582.06,290.83C587.913,301.71 595.467,311.533 604.72,320.3C609.16,324.51 614.83,329.03 620.66,330.88C621.392,331.109 622.184,331.022 622.84,330.64L625.1,329.34C625.502,329.106 625.995,329.102 626.39,329.33L629.16,330.91C630.046,331.42 631.189,331.145 631.74,330.29L631.75,330.27C631.771,330.24 631.79,330.208 631.809,330.176C632.237,329.442 631.988,328.487 631.258,328.062C631.226,328.044 631.193,328.026 631.16,328.01C628.513,326.717 627.03,325.907 626.71,325.58C626.637,325.498 626.597,325.391 626.597,325.281C626.597,325.035 626.8,324.831 627.047,324.831C627.117,324.831 627.187,324.848 627.25,324.88C627.657,325.107 628.617,325.203 630.13,325.17C632.41,325.117 633.44,324.15 633.22,322.27C633.181,321.932 633.038,321.614 632.81,321.36L631.69,320.08C631.612,320.006 631.567,319.903 631.567,319.795C631.567,319.58 631.745,319.402 631.96,319.402C632.06,319.402 632.157,319.441 632.23,319.51L635.47,322.04C635.755,322.264 636.108,322.386 636.471,322.386C636.971,322.386 637.443,322.155 637.75,321.76L638.01,321.44C638.432,320.904 638.427,320.141 638,319.61C635.347,316.277 633.217,312.713 631.61,308.92C631.589,308.871 631.578,308.818 631.578,308.764C631.578,308.545 631.759,308.364 631.978,308.364C632.084,308.364 632.185,308.406 632.26,308.48C636.067,312.34 640.287,315.203 644.92,317.07C646.5,317.71 647.84,317.44 648.94,316.26C649.217,315.961 649.371,315.568 649.371,315.16C649.371,314.271 648.64,313.54 647.751,313.54C647.744,313.54 647.737,313.54 647.73,313.54C646.297,313.553 644.957,313.233 643.71,312.58C643.314,312.375 642.961,312.093 642.67,311.75C640.39,309.05 638.607,306.023 637.32,302.67C637.301,302.623 637.291,302.572 637.291,302.521C637.291,302.307 637.467,302.131 637.681,302.131C637.739,302.131 637.797,302.144 637.85,302.17C650.43,307.91 662.943,307.907 675.39,302.16C683.203,298.553 688.737,292.837 691.99,285.01C692.038,284.882 692.162,284.796 692.299,284.796C692.451,284.796 692.585,284.902 692.62,285.05C694.273,290.943 694.817,297.017 694.25,303.27C694.037,305.617 693.26,308.173 691.92,310.94C691.8,311.187 691.747,311.397 691.76,311.57C691.812,312.227 692.367,312.739 693.026,312.739C693.381,312.739 693.72,312.591 693.96,312.33C696.95,309.13 697.19,305.23 698.36,301.49C698.393,301.369 698.504,301.284 698.63,301.284C698.784,301.284 698.91,301.41 698.91,301.564C698.91,301.566 698.91,301.568 698.91,301.57C698.99,306.223 698.253,310.817 696.7,315.35C696.646,315.506 696.618,315.669 696.618,315.834C696.618,316.506 697.078,317.096 697.73,317.26L697.82,317.29C698.705,317.566 699.662,317.078 699.96,316.2L702.54,308.62C702.569,308.469 702.702,308.359 702.855,308.359C703.031,308.359 703.176,308.504 703.176,308.68C703.176,308.7 703.174,308.72 703.17,308.74C702.903,312.933 701.533,316.643 699.06,319.87C698.882,320.102 698.785,320.387 698.785,320.68C698.785,321.238 699.136,321.739 699.66,321.93L699.9,322.02C700.831,322.36 701.881,322.02 702.43,321.2C708.39,312.27 709.13,303.31 711.45,293.17C711.494,292.963 711.679,292.814 711.89,292.814C712.051,292.814 712.2,292.901 712.28,293.04C712.393,293.22 712.533,293.567 712.7,294.08C712.84,294.493 713.057,294.78 713.35,294.94C714.35,295.507 715.247,295.15 716.04,293.87C716.194,293.626 716.462,293.478 716.751,293.478C716.935,293.478 717.114,293.538 717.26,293.65C718.987,294.957 720.3,295.927 721.2,296.56C727.153,300.713 731.753,305.85 735,311.97C742.13,325.44 745.41,340.8 747.88,356.25C747.94,356.628 747.744,357.003 747.4,357.17C737.907,361.63 727.893,364.793 717.36,366.66C717.317,366.667 717.273,366.671 717.229,366.671C716.816,366.671 716.471,366.343 716.45,365.93L715.62,347.42C715.578,346.48 714.793,345.729 713.852,345.729C713.74,345.729 713.629,345.739 713.52,345.76L713.45,345.77C712.394,345.978 711.646,346.941 711.71,348.01C712.963,370.003 712.377,392.033 709.95,414.1Z" style="fill:rgb(114,171,157);fill-rule:nonzero;"/>
        <g transform="matrix(-0.353475,-0.935444,0.935444,-0.353475,605.58,287.52)">
            <ellipse cx="0" cy="0" rx="1.72" ry="0.32" style="fill:rgb(114,171,157);"/>
        </g>
        <path d="M609.18,305.57C609.18,305.57 609.149,305.59 609.149,305.591C608.657,305.92 605.977,302.793 603.212,298.663C603.211,298.662 603.211,298.661 603.21,298.66L603.04,298.4C600.284,294.284 598.414,290.621 598.89,290.27L598.93,290.25L609.18,305.57Z" style="fill:rgb(114,171,157);fill-rule:nonzero;"/>
        <g transform="matrix(-0.618408,-0.785857,0.785857,-0.618408,737.95,299.81)">
            <ellipse cx="0" cy="0" rx="2.88" ry="0.34" style="fill:rgb(114,171,157);"/>
        </g>
        <g transform="matrix(-0.601815,-0.798636,0.798636,-0.601815,630.92,301.09)">
            <ellipse cx="0" cy="0" rx="3.31" ry="0.41" style="fill:rgb(114,171,157);"/>
        </g>
        <g transform="matrix(-0.751264,-0.660002,0.660002,-0.751264,734.51,303.36)">
            <ellipse cx="0" cy="0" rx="1.33" ry="0.43" style="fill:rgb(114,171,157);"/>
        </g>
        <g transform="matrix(0.758134,-0.652098,0.652098,0.758134,607.48,312.11)">
            <path d="M0.36,-7.07L0.36,7.07C0.36,7.213 0.243,7.33 0.1,7.33L-0.1,7.33C-0.243,7.33 -0.36,7.213 -0.36,7.07L-0.36,-7.07C-0.36,-7.213 -0.243,-7.33 -0.1,-7.33L0.1,-7.33C0.243,-7.33 0.36,-7.213 0.36,-7.07Z" style="fill:rgb(114,171,157);"/>
        </g>
        <g transform="matrix(0.747798,-0.663926,0.663926,0.747798,621.14,314.78)">
            <path d="M0.45,-6.5L0.45,6.5C0.45,6.643 0.333,6.76 0.19,6.76L-0.19,6.76C-0.333,6.76 -0.45,6.643 -0.45,6.5L-0.45,-6.5C-0.45,-6.643 -0.333,-6.76 -0.19,-6.76L0.19,-6.76C0.333,-6.76 0.45,-6.643 0.45,-6.5Z" style="fill:rgb(114,171,157);"/>
        </g>
        <g transform="matrix(0.871214,0.490904,-0.490904,0.871214,616.88,324.95)">
            <path d="M4.77,-0.01L4.77,0.01C4.77,0.247 4.577,0.44 4.34,0.44L-4.34,0.44C-4.577,0.44 -4.77,0.247 -4.77,0.01L-4.77,-0.01C-4.77,-0.247 -4.577,-0.44 -4.34,-0.44L4.34,-0.44C4.577,-0.44 4.77,-0.247 4.77,-0.01Z" style="fill:rgb(114,171,157);"/>
        </g>
        <path d="M742.02,410.89C732.747,410.397 723.547,411.1 714.42,413C716.16,396.55 716.55,385.44 716.77,371.76C716.777,371.437 717.02,371.164 717.34,371.12C725.42,369.953 733.15,367.893 740.53,364.94C740.585,364.918 740.644,364.906 740.703,364.906C740.935,364.906 741.132,365.08 741.16,365.31C742.83,380.75 743.83,394.77 742.02,410.89Z" style="fill:white;fill-rule:nonzero;"/>
        <path d="M575.56,412.22C568.787,412.253 561.977,412.213 555.13,412.1C553.177,412.073 551.257,411.957 549.37,411.75C547.45,411.55 545.533,411.333 543.62,411.1C544.64,395.78 546.763,380.69 549.99,365.83C550.029,365.658 550.184,365.535 550.36,365.535C550.416,365.535 550.47,365.547 550.52,365.57C560.047,370.083 569.903,373.13 580.09,374.71C580.1,374.712 580.111,374.713 580.121,374.715C580.536,374.797 580.809,375.209 580.727,375.629C580.725,375.639 580.722,375.65 580.72,375.66C577.86,387.533 576.14,399.72 575.56,412.22Z" style="fill:white;fill-rule:nonzero;"/>
    </g>
</svg>
