<?xml version="1.0" encoding="UTF-8" standalone="no"?>
<!DOCTYPE svg PUBLIC "-//W3C//DTD SVG 1.1//EN" "http://www.w3.org/Graphics/SVG/1.1/DTD/svg11.dtd">
<svg width="100%" height="100%" viewBox="0 0 217 365" version="1.1" xmlns="http://www.w3.org/2000/svg" xmlns:xlink="http://www.w3.org/1999/xlink" xml:space="preserve" xmlns:serif="http://www.serif.com/" style="fill-rule:evenodd;clip-rule:evenodd;stroke-linejoin:round;stroke-miterlimit:2;">
    <g transform="matrix(1,0,0,1,-287.486,-474.313)">
        <path d="M489.91,831.33C491.33,814.59 490.44,801.39 488.83,786.08C488.798,785.793 488.553,785.572 488.263,785.572C488.194,785.572 488.125,785.585 488.06,785.61C480.547,788.53 472.887,790.593 465.08,791.8C464.754,791.853 464.511,792.134 464.51,792.46C464.443,806.127 463.637,819.877 462.09,833.71L457.74,834.4C459.407,818.913 460.143,803.447 459.95,788C459.87,781.573 459.727,775.093 459.52,768.56C459.496,767.798 459.893,767.084 460.55,766.71L461.12,766.38C461.216,766.325 461.318,766.281 461.425,766.249C462.166,766.03 462.956,766.455 463.174,767.191C463.206,767.298 463.225,767.409 463.23,767.52L464.2,786.65C464.201,786.662 464.202,786.674 464.203,786.686C464.245,787.073 464.594,787.358 464.976,787.316C464.99,787.315 465.005,787.313 465.02,787.31C475.027,785.657 484.82,782.66 494.4,778.32C494.905,778.093 495.206,777.56 495.14,777.01C493.587,763.623 490.343,750.9 485.41,738.84C481.077,728.233 474.047,720.027 464.32,714.22C464.317,714.218 464.313,714.216 464.31,714.214C463.96,714.009 463.5,714.132 463.292,714.486C463.291,714.488 463.291,714.489 463.29,714.49C462.923,715.137 462.49,715.553 461.99,715.74C461.593,715.889 461.142,715.728 460.93,715.36L460.05,713.83C460.016,713.773 459.971,713.724 459.917,713.685C459.707,713.536 459.413,713.581 459.267,713.787C459.228,713.841 459.202,713.904 459.19,713.97C456.97,726 456.17,733.52 449.76,742.63C449.341,743.225 448.556,743.45 447.88,743.17L447.47,743C447.412,742.976 447.356,742.948 447.301,742.917C446.577,742.504 446.323,741.564 446.739,740.835C446.769,740.781 446.803,740.73 446.84,740.68C449.207,737.487 450.677,733.7 451.25,729.32C451.271,729.144 451.158,728.979 450.99,728.94L450.67,728.87C450.635,728.866 450.603,728.882 450.59,728.91L447.71,737.14C447.704,737.156 447.699,737.172 447.693,737.188C447.352,738.079 446.334,738.531 445.437,738.189C445.421,738.183 445.406,738.176 445.39,738.17L445.31,738.14C445.309,738.14 445.308,738.139 445.307,738.139C444.42,737.787 443.977,736.772 444.326,735.89C444.327,735.887 444.329,735.883 444.33,735.88C446.03,731.607 446.813,726.91 446.68,721.79C446.681,721.761 446.664,721.735 446.64,721.73L446.3,721.66C446.276,721.655 446.251,721.652 446.226,721.652C446.059,721.652 445.915,721.775 445.89,721.94C445.2,726.42 444.82,729.59 441.84,732.81C441.63,733.037 441.334,733.166 441.025,733.166C440.653,733.166 440.305,732.98 440.1,732.67C439.42,731.65 440.43,729.89 441.27,727.78C441.469,727.288 441.61,726.775 441.69,726.25C442.783,719.223 442.277,712.313 440.17,705.52C440.134,705.384 440.011,705.289 439.87,705.289C439.741,705.289 439.625,705.369 439.58,705.49C436.74,712.623 431.913,717.98 425.1,721.56C411.727,728.587 398.193,728.937 384.5,722.61C384.477,722.598 384.451,722.591 384.424,722.591C384.337,722.591 384.264,722.663 384.264,722.751C384.264,722.775 384.27,722.798 384.28,722.82C386.04,726.93 388.92,733.76 393.86,734.4C394.787,734.52 395.417,734.603 395.75,734.65C396.362,734.733 396.823,735.261 396.823,735.879C396.823,736.04 396.791,736.2 396.73,736.35L396.49,736.92C396.147,737.75 395.263,738.232 394.38,738.07C388.5,736.99 384.17,733.35 379.77,729.35C379.701,729.292 379.615,729.26 379.525,729.26C379.316,729.26 379.145,729.432 379.145,729.64C379.145,729.703 379.16,729.765 379.19,729.82L385.74,740.56C385.87,740.775 385.93,741.027 385.91,741.28C385.85,742.293 385.23,742.97 384.05,743.31C383.759,743.39 383.445,743.305 383.23,743.09L380.24,740.11C380.16,740.023 380.025,740.006 379.92,740.07L379.68,740.21C379.569,740.272 379.5,740.389 379.5,740.516C379.5,740.612 379.54,740.704 379.61,740.77C380.4,741.56 381.7,743.23 380.76,744.47C379.35,746.33 376.99,746.08 374.97,745.45C374.925,745.437 374.878,745.43 374.831,745.43C374.562,745.43 374.341,745.651 374.341,745.92C374.341,746.062 374.403,746.197 374.51,746.29C374.93,746.65 376.31,747.35 378.65,748.39C378.664,748.396 378.679,748.403 378.693,748.41C379.505,748.797 379.856,749.78 379.471,750.587C379.464,750.601 379.457,750.616 379.45,750.63L379.32,750.86C378.967,751.478 378.203,751.742 377.55,751.47L373.63,749.84C373.303,749.7 372.92,749.771 372.66,750.02C371.673,750.96 370.643,751.497 369.57,751.63C369.221,751.67 368.869,751.628 368.54,751.51C357.03,747.35 348.87,738.66 341.21,729.16C336.897,723.807 333.017,718.023 329.57,711.81C329.43,711.553 329.16,711.393 328.868,711.393C328.708,711.393 328.552,711.441 328.42,711.53C322.27,715.74 316.8,722.42 312.8,729.05C303.653,744.25 297.11,760.48 293.17,777.74C293.053,778.25 293.285,778.781 293.74,779.04C305.427,785.773 318.25,789.88 332.21,791.36C333.12,791.457 333.967,790.845 334.16,789.95L339.55,765.23C339.773,764.221 340.728,763.535 341.75,763.65L341.82,763.66C341.843,763.663 341.865,763.666 341.887,763.67C342.824,763.825 343.467,764.718 343.313,765.649C343.309,765.673 343.305,765.697 343.3,765.72C341.647,773.753 339.82,782.537 337.82,792.07C337.36,794.243 336.133,795.373 334.14,795.46C333.632,795.485 333.199,795.84 333.08,796.33C330.187,808.37 328.333,820.657 327.52,833.19L323.05,833.05C323.723,820.263 325.507,807.96 328.4,796.14C328.403,796.129 328.405,796.118 328.407,796.108C328.468,795.784 328.248,795.467 327.919,795.405C327.909,795.403 327.9,795.401 327.89,795.4C317.517,794.073 307.567,791.03 298.04,786.27C297.972,786.235 297.897,786.217 297.82,786.217C297.593,786.217 297.396,786.378 297.35,786.6C294.157,801.507 292.073,816.65 291.1,832.03C290.133,832.343 289.103,832.38 288.01,832.14C287.707,832.074 287.489,831.806 287.49,831.5C287.463,828.107 287.56,825.277 287.78,823.01C289.253,807.963 291.157,795.757 293.49,786.39C293.897,784.77 293.457,783.59 292.17,782.85C291.263,782.323 290.43,781.697 289.67,780.97C289.428,780.742 289.297,780.417 289.31,780.08C289.417,777.54 289.843,774.783 290.59,771.81C295.38,752.84 303.99,732.18 316.57,717.04C316.781,716.792 316.755,716.415 316.51,716.2C307.96,708.75 307.85,700.21 308.11,689.34C308.28,682.23 306.73,674.21 304.04,668.2C304.02,668.167 302.203,664.347 298.59,656.74C292.623,644.173 289.58,631.177 289.46,617.75C289.34,603.42 290.94,585.34 292.28,568.9C292.68,564.04 293.46,558.34 294.62,551.8C297.22,537.1 303.64,523.09 311.81,510.81C313.757,507.883 316.63,504.507 320.43,500.68C333.71,487.31 347.78,477.32 367.01,475.73C367.421,475.69 367.825,475.589 368.21,475.43C369.857,474.717 371.623,474.347 373.51,474.32C378.64,474.24 382.36,474.77 384.84,479.28C385.82,481.05 386.24,484.14 389.07,485.79C389.219,485.875 389.388,485.92 389.56,485.92C390.05,485.92 390.471,485.555 390.54,485.07C392.2,473.11 406.15,475.47 413.72,479.06C422.1,483.03 428.54,489.59 434.43,496.45C439.863,502.777 444.823,509.96 449.31,518C457.75,533.113 463.56,547.537 466.74,561.27C466.916,562.034 467.308,562.735 467.87,563.29C472.82,568.17 473.52,573.8 473.68,580.78C473.7,581.419 473.774,582.054 473.9,582.68C476.98,597.88 478.787,611.72 479.32,624.2C479.81,635.44 478.57,650.43 480.12,662.29C481.96,676.39 485.38,690.25 490.38,703.87C492.49,709.63 496.79,718.17 503.38,720.09C503.99,720.266 504.414,720.829 504.414,721.464C504.414,721.723 504.343,721.978 504.21,722.2L503.99,722.55C503.422,723.454 502.271,723.819 501.28,723.41L491.75,719.44C491.678,719.408 491.6,719.392 491.521,719.392C491.208,719.392 490.951,719.649 490.951,719.962C490.951,720.033 490.964,720.104 490.99,720.17C492.15,723.26 494.03,724.39 497.5,727.13C497.521,727.146 497.541,727.163 497.56,727.18C498.101,727.662 498.131,728.524 497.628,729.089C497.609,729.11 497.59,729.13 497.57,729.15C495.79,730.92 491.55,728.26 489.95,727.24C489.618,727.033 489.204,726.999 488.84,727.15L485.37,728.61C485.356,728.616 485.342,728.622 485.328,728.629C485.055,728.769 484.946,729.113 485.088,729.391C485.095,729.404 485.102,729.417 485.11,729.43C487.523,733.29 489.597,737.71 491.33,742.69C495.317,754.143 497.993,766.033 499.36,778.36C499.469,779.318 498.997,780.254 498.16,780.74L493.33,783.52C492.796,783.83 492.497,784.433 492.57,785.05C494.51,801.16 495.29,815.08 493.83,831C493.801,831.322 493.556,831.585 493.24,831.63C492.167,831.79 491.057,831.69 489.91,831.33ZM375.98,478.083C375.894,478.344 377.006,478.949 378.443,479.425C379.881,479.9 381.134,480.077 381.22,479.817C381.22,479.817 381.22,479.817 381.22,479.817C381.306,479.556 380.194,478.951 378.757,478.475C377.319,478 376.066,477.823 375.98,478.083C375.98,478.083 375.98,478.083 375.98,478.083ZM353.357,483.067C353.288,482.936 353.123,482.885 352.992,482.954L338.237,490.733C338.149,490.78 338.093,490.872 338.093,490.972C338.093,491.016 338.104,491.059 338.124,491.098L338.143,491.133C338.212,491.264 338.377,491.315 338.508,491.246L353.263,483.467C353.351,483.42 353.407,483.328 353.407,483.228C353.407,483.184 353.396,483.141 353.376,483.102L353.357,483.067ZM423.15,494.37C418.42,488.89 409.84,483.11 402.26,483.5C402.09,483.51 401.955,483.65 401.95,483.82L401.95,483.83C401.949,484.011 402.089,484.164 402.27,484.18C411.36,484.91 416.21,489.35 422.98,494.54C423.003,494.563 423.033,494.575 423.065,494.575C423.131,494.575 423.185,494.521 423.185,494.455C423.185,494.423 423.173,494.393 423.15,494.37ZM365.104,484.937C365.068,485.303 365.375,485.637 365.785,485.677C366.194,485.717 366.561,485.449 366.596,485.083C366.632,484.717 366.325,484.383 365.915,484.343C365.506,484.303 365.139,484.571 365.104,484.937ZM369.612,485.131C369.612,485.131 369.612,485.131 369.612,485.131C369.499,485.504 370.033,486 370.795,486.23C370.795,486.23 370.795,486.23 370.795,486.23C371.556,486.46 372.276,486.342 372.388,485.969C372.388,485.969 372.388,485.969 372.388,485.969C372.501,485.596 371.967,485.1 371.205,484.87C371.205,484.87 371.205,484.87 371.205,484.87C370.444,484.64 369.724,484.758 369.612,485.131ZM395.28,487.68C395.313,487.82 395.367,487.98 395.44,488.16C395.458,488.204 395.485,488.243 395.519,488.274C395.65,488.392 395.857,488.379 395.978,488.244C396.011,488.208 396.035,488.166 396.05,488.12C396.11,487.94 396.07,487.74 395.93,487.52C395.891,487.462 395.836,487.414 395.771,487.381C395.59,487.289 395.377,487.338 395.301,487.49C395.272,487.547 395.264,487.613 395.28,487.68ZM384.637,487.924C384.526,488.087 384.923,488.554 385.518,488.958C385.518,488.958 385.518,488.958 385.518,488.958C386.112,489.362 386.692,489.56 386.803,489.396C386.803,489.396 386.803,489.396 386.803,489.396C386.914,489.233 386.517,488.766 385.922,488.362C385.922,488.362 385.922,488.362 385.922,488.362C385.328,487.958 384.748,487.76 384.637,487.924C384.637,487.924 384.637,487.924 384.637,487.924ZM338.77,496.9C335.02,499.56 330.86,502.84 328.5,506.57C328.494,506.585 328.491,506.601 328.491,506.616C328.491,506.688 328.55,506.746 328.621,506.746C328.65,506.746 328.677,506.737 328.7,506.72C332.62,502.873 336.147,499.84 339.28,497.62C342.413,495.4 346.447,493.08 351.38,490.66C351.42,490.637 351.445,490.594 351.445,490.548C351.445,490.476 351.386,490.418 351.315,490.418C351.306,490.418 351.298,490.418 351.29,490.42C347,491.41 342.53,494.24 338.77,496.9ZM388.93,495.34L390.39,498.19C390.514,498.431 390.563,498.703 390.53,498.97C390.13,502.363 388.25,504.807 384.89,506.3C383.04,507.13 380.43,506.63 378.63,507.87C374.99,510.39 369.873,514.77 363.28,521.01C362,522.23 360.95,522.183 360.13,520.87C360.122,520.857 360.113,520.844 360.103,520.831C359.904,520.563 359.522,520.503 359.258,520.699C359.245,520.709 359.232,520.719 359.22,520.73C334.29,542.05 325.04,573.97 321.89,605.32C321.66,607.64 321.12,609.09 319.37,610.32C318.744,610.764 317.894,610.744 317.29,610.27C313.76,607.49 310.5,605.08 305.94,607.68C298.4,611.98 299.02,621.99 302.93,628.66C305.283,632.667 308.697,635.71 313.17,637.79C313.458,637.925 313.806,637.852 314.02,637.61C314.187,637.43 314.563,636.92 315.15,636.08C318.24,631.69 323.7,632.4 327.14,636.19C327.478,636.567 327.976,636.76 328.48,636.71L328.96,636.67C329.442,636.62 329.918,636.829 330.21,637.22C340.757,651.56 354.637,661.483 371.85,666.99C386.96,671.83 401.84,673.69 416.27,666.02C434.34,656.41 446.28,636.94 450.66,617.29C453.17,606.05 454.33,593.53 451.98,582.14C447.86,562.18 440.57,542.69 427.39,527.05C427.128,526.737 426.998,526.331 427.03,525.92C427.043,525.753 427.093,525.583 427.18,525.41C427.399,524.973 427.344,524.448 427.04,524.07C423.367,519.49 419.753,515.883 416.2,513.25C412.75,510.69 406.01,507.95 402.88,506.68C401.86,506.267 399.803,504.833 396.71,502.38C395.53,501.44 395.193,499.907 395.7,497.78C395.811,497.324 395.606,496.848 395.2,496.62C393.347,495.56 392.793,494.31 393.54,492.87C393.611,492.733 393.649,492.581 393.649,492.426C393.649,491.979 393.336,491.588 392.9,491.49L391.61,491.2C391.531,491.183 391.45,491.174 391.37,491.174C390.825,491.174 390.352,491.565 390.25,492.1C390.077,492.98 389.687,493.733 389.08,494.36C388.829,494.617 388.769,495.01 388.93,495.34ZM417.91,498.89C420.38,500.73 422.36,502.7 424.56,504.12C424.585,504.132 424.612,504.138 424.639,504.138C424.738,504.138 424.819,504.057 424.819,503.958C424.819,503.923 424.809,503.889 424.79,503.86C422.743,501.6 420.653,499.673 418.52,498.08C416.387,496.487 413.947,495.03 411.2,493.71C411.182,493.704 411.164,493.702 411.146,493.702C411.047,493.702 410.966,493.783 410.966,493.882C410.966,493.925 410.981,493.967 411.01,494C413,495.71 415.45,497.05 417.91,498.89ZM367.742,499.641C367.742,499.641 367.742,499.641 367.742,499.641C367.609,499.427 366.379,499.945 365.018,500.789C365.018,500.789 365.018,500.789 365.018,500.789C363.656,501.633 362.645,502.504 362.778,502.719C362.778,502.719 362.778,502.719 362.778,502.719C362.911,502.933 364.141,502.415 365.502,501.571C365.502,501.571 365.502,501.571 365.502,501.571C366.864,500.727 367.875,499.856 367.742,499.641ZM383.11,501.07C382.75,501.617 382.747,501.947 383.1,502.06C383.231,502.1 383.374,502.108 383.513,502.081C383.928,502.001 384.212,501.638 384.143,501.277C384.119,501.154 384.056,501.04 383.96,500.95C383.647,500.65 383.363,500.69 383.11,501.07ZM403.739,502.01C403.638,502.218 405.072,503.128 406.916,504.028C408.76,504.927 410.36,505.497 410.461,505.29C410.461,505.29 410.461,505.29 410.462,505.289C410.562,505.082 409.128,504.172 407.284,503.272C405.44,502.373 403.84,501.803 403.739,502.01C403.739,502.01 403.739,502.01 403.739,502.01ZM378.917,502.443C378.805,502.255 377.734,502.68 376.546,503.386C375.357,504.092 374.471,504.828 374.583,505.017C374.695,505.205 375.766,504.78 376.954,504.074C378.143,503.368 379.029,502.632 378.917,502.443ZM341.7,509.86C337.873,512.847 334.78,515.783 332.42,518.67C332.374,518.728 332.349,518.801 332.349,518.875C332.349,519.019 332.443,519.147 332.58,519.19C332.633,519.203 332.723,519.15 332.85,519.03C336.157,515.883 339.333,513.123 342.38,510.75C345.433,508.37 348.89,505.96 352.75,503.52C352.89,503.427 352.96,503.35 352.96,503.29C352.948,503.118 352.803,502.983 352.631,502.983C352.586,502.983 352.541,502.992 352.5,503.01C349.12,504.597 345.52,506.88 341.7,509.86ZM320.26,507.31C320.553,506.97 320.7,506.793 320.7,506.78C320.7,506.776 320.7,506.771 320.7,506.767C320.7,506.625 320.583,506.507 320.44,506.507C320.368,506.507 320.299,506.537 320.25,506.59C319.97,506.89 319.827,507.057 319.82,507.09C319.813,507.113 319.81,507.136 319.81,507.16C319.81,507.297 319.923,507.41 320.06,507.41C320.139,507.41 320.213,507.373 320.26,507.31ZM419.519,510.116C419.519,510.116 419.519,510.116 419.519,510.116C419.432,510.222 420.263,511.051 421.361,511.953C421.361,511.953 421.361,511.953 421.361,511.953C422.459,512.855 423.434,513.51 423.521,513.404C423.521,513.404 423.521,513.404 423.521,513.404C423.608,513.298 422.777,512.469 421.679,511.567C421.679,511.567 421.679,511.567 421.679,511.567C420.581,510.665 419.606,510.01 419.519,510.116ZM316.19,512.04C316.03,512.16 315.93,512.29 315.89,512.43C315.878,512.463 315.871,512.499 315.871,512.535C315.871,512.699 316.007,512.835 316.171,512.835C316.249,512.835 316.324,512.804 316.38,512.75C316.487,512.643 316.567,512.5 316.62,512.32C316.626,512.297 316.629,512.274 316.629,512.25C316.629,512.102 316.507,511.98 316.359,511.98C316.298,511.98 316.238,512.001 316.19,512.04ZM346.385,521.901C346.319,521.835 346.23,521.798 346.137,521.798C346.045,521.798 345.956,521.835 345.89,521.9L340.422,527.35C340.286,527.485 340.285,527.709 340.421,527.845L340.435,527.859C340.501,527.925 340.59,527.962 340.683,527.962C340.775,527.962 340.864,527.925 340.93,527.86L346.398,522.41C346.534,522.275 346.535,522.051 346.399,521.915L346.385,521.901ZM332.36,524.109C332.41,524.052 332.438,523.978 332.438,523.902C332.438,523.814 332.401,523.73 332.335,523.671L332.32,523.658C332.263,523.607 332.19,523.579 332.113,523.579C332.025,523.579 331.941,523.617 331.882,523.683L326.6,529.611C326.55,529.668 326.522,529.742 326.522,529.818C326.522,529.906 326.559,529.99 326.625,530.049L326.64,530.062C326.697,530.113 326.77,530.141 326.847,530.141C326.935,530.141 327.019,530.103 327.078,530.037L332.36,524.109ZM306.89,540.01C305.003,545.297 303.55,550.34 302.53,555.14C302.377,555.853 302.337,556.553 302.41,557.24C302.421,557.296 302.471,557.337 302.528,557.337C302.578,557.337 302.622,557.306 302.64,557.26C304.493,550.553 306.233,544.92 307.86,540.36C309.487,535.8 311.71,530.337 314.53,523.97C314.534,523.958 314.536,523.946 314.536,523.933C314.536,523.867 314.482,523.813 314.416,523.813C314.388,523.813 314.361,523.823 314.34,523.84C313.853,524.327 313.44,524.897 313.1,525.55C310.847,529.91 308.777,534.73 306.89,540.01ZM313.06,558.33L319.67,537.26C319.675,537.245 319.677,537.229 319.677,537.214C319.677,537.148 319.633,537.089 319.57,537.07L319.49,537.05C319.49,537.05 319.489,537.05 319.489,537.05C318.824,536.841 316.789,541.418 314.98,547.19L314.89,547.5C313.086,553.258 312.144,558.17 312.8,558.4L312.88,558.43C312.957,558.45 313.036,558.405 313.06,558.33ZM328.951,547.936C329.051,547.728 328.961,547.476 328.753,547.376L328.735,547.368C328.527,547.269 328.274,547.358 328.175,547.566L323.569,557.224C323.469,557.432 323.559,557.684 323.767,557.784L323.785,557.792C323.993,557.891 324.246,557.802 324.345,557.594L328.951,547.936ZM460.15,555.23C460.15,555.243 460.213,555.46 460.34,555.88C460.382,556.006 460.501,556.091 460.634,556.091C460.759,556.091 460.872,556.015 460.92,555.9C461,555.693 460.953,555.437 460.78,555.13C460.72,555.023 460.606,554.956 460.483,554.956C460.322,554.956 460.182,555.072 460.15,555.23ZM460.942,556.828C460.733,556.896 460.786,557.647 461.059,558.493C461.333,559.338 461.729,559.979 461.938,559.912C462.147,559.844 462.094,559.093 461.821,558.247C461.547,557.402 461.151,556.761 460.942,556.828ZM457.1,560.1C456.92,560.067 456.743,560.177 456.57,560.43C456.551,560.459 456.535,560.49 456.522,560.522C456.432,560.752 456.525,561.007 456.729,561.087C456.758,561.099 456.789,561.106 456.82,561.11C457.04,561.13 457.217,561.02 457.35,560.78C457.362,560.758 457.372,560.735 457.381,560.712C457.474,560.466 457.378,560.198 457.167,560.118C457.145,560.11 457.123,560.104 457.1,560.1ZM323.76,563.24L323.5,567.95C323.5,567.953 323.5,567.957 323.5,567.96C323.5,568.044 323.566,568.115 323.65,568.12L323.73,568.12C323.732,568.12 323.733,568.12 323.735,568.12C324.381,568.155 324.97,567.126 325.04,565.84L325.06,565.5C325.13,564.214 324.656,563.126 324.01,563.09L323.93,563.08C323.927,563.08 323.923,563.08 323.92,563.08C323.832,563.08 323.76,563.152 323.76,563.24C323.76,563.24 323.76,563.24 323.76,563.24ZM458.55,593.44C460.623,592.333 462.587,592.237 464.44,593.15C464.858,593.355 465.367,593.212 465.61,592.82C469.863,585.987 470.907,578.82 468.74,571.32C466.51,563.62 458.41,561.96 453.69,568.91C453.308,569.47 453.201,570.174 453.4,570.82C455.593,577.927 457.017,585.307 457.67,592.96C457.696,593.269 457.957,593.51 458.268,593.51C458.366,593.51 458.463,593.486 458.55,593.44ZM309.8,573.93C309.913,573.697 309.94,573.453 309.88,573.2C309.871,573.17 309.858,573.141 309.839,573.116C309.748,572.992 309.565,572.97 309.432,573.067C309.404,573.088 309.38,573.112 309.36,573.14C309.187,573.387 309.17,573.633 309.31,573.88C309.324,573.905 309.341,573.929 309.362,573.95C309.475,574.069 309.654,574.085 309.757,573.987C309.774,573.97 309.789,573.951 309.8,573.93ZM295.64,607.93L296.54,607.95C296.666,607.95 296.77,607.846 296.77,607.72L296.77,607.52C297.065,592.13 297.074,579.457 296.79,579.43L296.47,579.42C296.47,579.42 296.469,579.42 296.469,579.42C296.184,579.414 295.706,592.085 295.41,607.49L295.41,607.69C295.41,607.693 295.41,607.697 295.41,607.7C295.41,607.826 295.514,607.93 295.64,607.93C295.64,607.93 295.64,607.93 295.64,607.93ZM303.49,603.87C304.117,603.937 304.937,598.857 305.95,588.63C306.07,587.417 305.857,586.78 305.31,586.72C304.763,586.66 304.42,587.24 304.28,588.46C303.127,598.667 302.863,603.803 303.49,603.87ZM462.961,596.21C460.873,595.483 458.514,596.727 457.734,598.965C456.955,601.203 458.032,603.643 460.119,604.37C462.207,605.097 464.566,603.853 465.346,601.615C466.125,599.377 465.048,596.937 462.961,596.21ZM310.65,601.156C310.65,601.156 310.65,601.156 310.65,601.156C310.419,600.809 309.827,600.792 309.338,601.118C309.338,601.118 309.338,601.118 309.338,601.118C308.85,601.443 308.638,601.997 308.87,602.344C308.87,602.344 308.87,602.344 308.87,602.344C309.101,602.691 309.693,602.708 310.182,602.382C310.182,602.382 310.182,602.382 310.182,602.382C310.67,602.057 310.882,601.503 310.65,601.156ZM314.92,602.74C314.947,603.38 315.247,603.84 315.82,604.12C315.894,604.156 315.976,604.175 316.059,604.175C316.294,604.175 316.505,604.023 316.58,603.8C316.627,603.667 316.637,603.29 316.61,602.67C316.583,602.05 316.54,601.673 316.48,601.54C316.392,601.342 316.194,601.215 315.978,601.215C315.88,601.215 315.784,601.241 315.7,601.29C315.153,601.617 314.893,602.1 314.92,602.74ZM474.21,629.9L474.94,629.86C475.041,629.855 475.121,629.771 475.121,629.67C475.121,629.663 475.121,629.657 475.12,629.65L474.77,623.89C474.211,614.749 473.527,607.22 473.25,607.16L473.13,607.16C473.128,607.159 473.126,607.159 473.124,607.159C472.85,607.176 473.088,614.755 473.65,623.948C473.65,623.949 473.65,623.949 473.65,623.95L474,629.72C474.005,629.821 474.089,629.901 474.19,629.901C474.197,629.901 474.203,629.901 474.21,629.9ZM325.26,641.38C325.26,638.972 323.278,636.99 320.87,636.99C318.462,636.99 316.48,638.972 316.48,641.38C316.48,643.788 318.462,645.77 320.87,645.77C323.278,645.77 325.26,643.788 325.26,641.38ZM474.898,638.084C474.9,637.854 474.712,637.662 474.482,637.66C474.482,637.66 474.44,637.66 474.438,637.66C474.209,637.66 474.02,637.847 474.018,638.076L473.942,646.876C473.94,647.106 474.128,647.298 474.358,647.3C474.358,647.3 474.4,647.3 474.402,647.3C474.631,647.3 474.82,647.113 474.822,646.884L474.898,638.084ZM305.35,638.25C305.303,638.163 305.15,638.03 304.89,637.85C304.85,637.824 304.803,637.81 304.755,637.81C304.617,637.81 304.505,637.923 304.505,638.06C304.505,638.098 304.513,638.136 304.53,638.17C304.643,638.383 304.793,638.537 304.98,638.63C305.018,638.648 305.059,638.657 305.101,638.657C305.254,638.657 305.381,638.531 305.381,638.377C305.381,638.333 305.37,638.289 305.35,638.25ZM298.61,642.218C298.555,642.078 298.418,641.985 298.266,641.985C298.22,641.985 298.173,641.994 298.13,642.011L298.093,642.025C297.904,642.1 297.81,642.317 297.885,642.506L302.73,654.742C302.785,654.882 302.922,654.975 303.074,654.975C303.12,654.975 303.167,654.966 303.21,654.949L303.247,654.935C303.436,654.86 303.53,654.643 303.455,654.454L298.61,642.218ZM454.09,645.514C453.816,645.501 453.315,651.326 452.981,658.416C452.646,665.506 452.597,671.351 452.87,671.366C453.144,671.379 453.645,665.554 453.979,658.464C454.314,651.374 454.363,645.529 454.09,645.514ZM442.78,648.6C442.78,648.593 442.8,648.413 442.84,648.06C442.842,648.034 442.839,648.007 442.833,647.982C442.8,647.86 442.677,647.785 442.561,647.816C442.535,647.823 442.511,647.834 442.49,647.85C442.23,648.037 442.087,648.173 442.06,648.26C442.037,648.339 442.039,648.423 442.067,648.501C442.14,648.708 442.375,648.816 442.587,648.741C442.664,648.714 442.731,648.665 442.78,648.6ZM317.041,648.796C316.899,648.978 317.139,649.404 317.572,649.741C318.005,650.078 318.478,650.206 318.619,650.024C318.761,649.842 318.521,649.416 318.088,649.079C317.655,648.742 317.182,648.614 317.041,648.796ZM309.006,649.033C308.837,649.155 309.093,649.801 309.572,650.463C310.051,651.125 310.585,651.569 310.754,651.447C310.923,651.325 310.667,650.679 310.188,650.017C309.709,649.355 309.175,648.911 309.006,649.033ZM462.895,651.423C462.654,651.417 462.349,655.46 462.22,660.379C462.091,665.297 462.184,669.35 462.425,669.357C462.666,669.363 462.971,665.32 463.1,660.402C463.229,655.483 463.136,651.43 462.895,651.423ZM472.1,679.55C473.34,685.03 474.893,689.717 476.76,693.61C476.824,693.74 476.956,693.822 477.101,693.822C477.207,693.822 477.308,693.778 477.38,693.7C477.42,693.647 477.41,693.527 477.35,693.34C475.683,688.327 474.357,683.637 473.37,679.27C472.377,674.903 471.553,670.097 470.9,664.85C470.873,664.657 470.83,664.543 470.77,664.51C470.725,664.492 470.678,664.483 470.63,664.483C470.423,664.483 470.252,664.653 470.25,664.86C470.243,669.18 470.86,674.077 472.1,679.55ZM338.265,664.827C338.124,664.931 338.534,665.724 339.173,666.581C339.173,666.581 339.173,666.581 339.173,666.581C339.813,667.439 340.455,668.058 340.595,667.954C340.595,667.954 340.595,667.954 340.595,667.954C340.736,667.849 340.326,667.056 339.687,666.199C339.687,666.199 339.687,666.199 339.687,666.199C339.047,665.341 338.405,664.722 338.265,664.826C338.265,664.826 338.265,664.826 338.265,664.827ZM380.99,674.98C382.01,682.84 381.2,693.43 373.11,697.31C372.843,697.432 372.718,697.748 372.83,698.02L379.63,714.24C379.683,714.359 379.75,714.47 379.83,714.57C380.477,715.39 381.703,716.273 383.51,717.22C396.577,724.1 409.733,724.27 422.98,717.73C429.36,714.577 433.653,709.707 435.86,703.12C436.043,702.579 435.794,701.979 435.28,701.72C431.367,699.793 428.91,696.67 427.91,692.35C426.063,684.383 424.87,676.143 424.33,667.63C424.309,667.317 424.045,667.07 423.731,667.07C423.614,667.07 423.498,667.105 423.4,667.17C410.667,675.863 396.69,678.327 381.47,674.56C381.447,674.554 381.424,674.551 381.4,674.549C381.187,674.536 381,674.696 380.987,674.904C380.985,674.929 380.986,674.955 380.99,674.98ZM436.896,668.981C436.891,668.833 436.766,668.715 436.618,668.719L436.338,668.728C436.19,668.733 436.072,668.858 436.077,669.007L436.544,683.879C436.549,684.027 436.674,684.145 436.822,684.141L437.102,684.132C437.25,684.127 437.368,684.002 437.364,683.854L436.896,668.981ZM358.299,677.044C358.299,677.044 358.299,677.044 358.299,677.044C358.131,677.177 358.323,677.704 358.724,678.212C359.125,678.72 359.593,679.029 359.761,678.896C359.761,678.896 359.761,678.896 359.761,678.896C359.929,678.763 359.737,678.236 359.336,677.728C358.935,677.22 358.467,676.911 358.299,677.044ZM452.243,678.523C452.219,678.256 451.993,678.049 451.725,678.049C451.709,678.049 451.694,678.05 451.679,678.051L451.659,678.053C451.392,678.077 451.185,678.303 451.185,678.571C451.185,678.586 451.186,678.602 451.187,678.617L452.977,698.677C453.001,698.944 453.227,699.151 453.495,699.151C453.511,699.151 453.526,699.15 453.541,699.149L453.561,699.147C453.828,699.123 454.035,698.897 454.035,698.629C454.035,698.614 454.034,698.598 454.033,698.583L452.243,678.523ZM325.264,685.793C325.097,685.887 325.549,687.011 326.265,688.282C326.981,689.553 327.708,690.522 327.876,690.427C328.043,690.333 327.591,689.209 326.875,687.938C326.159,686.667 325.432,685.698 325.264,685.793ZM312.44,700.31C312.83,702.52 314.02,706.98 315.92,709.05C315.983,709.112 316.069,709.146 316.157,709.146C316.344,709.146 316.497,708.993 316.497,708.806C316.497,708.77 316.491,708.734 316.48,708.7C315.39,705.86 314.24,702.87 313.76,700.08C313.27,697.29 313.34,694.09 313.42,691.05C313.41,690.871 313.26,690.729 313.081,690.729C312.955,690.729 312.839,690.799 312.78,690.91C311.69,693.5 312.06,698.1 312.44,700.31ZM321.56,690.87C321.544,690.876 321.528,690.883 321.514,690.893C321.412,690.966 321.408,691.141 321.507,691.279C321.52,691.297 321.534,691.314 321.55,691.33C321.77,691.543 321.953,691.593 322.1,691.48C322.293,691.32 322.287,691.153 322.08,690.98C321.927,690.847 321.753,690.81 321.56,690.87ZM349.386,694.16C349.298,693.911 349.022,693.78 348.774,693.867L348.717,693.888C348.469,693.975 348.337,694.252 348.425,694.5L350.054,699.1C350.142,699.349 350.418,699.48 350.666,699.393L350.723,699.372C350.971,699.285 351.103,699.008 351.015,698.76L349.386,694.16ZM336.754,694.342C336.616,694.105 336.308,694.023 336.07,694.16L336.036,694.18C335.882,694.27 335.786,694.435 335.786,694.613C335.786,694.701 335.81,694.788 335.854,694.864L339.966,701.958C340.104,702.195 340.412,702.277 340.65,702.14L340.684,702.12C340.838,702.03 340.934,701.865 340.934,701.687C340.934,701.599 340.91,701.512 340.866,701.436L336.754,694.342ZM322.635,702.108C322.498,701.833 322.159,701.719 321.884,701.856L321.848,701.874C321.573,702.011 321.46,702.35 321.597,702.625L323.605,706.652C323.742,706.927 324.081,707.041 324.356,706.904L324.392,706.886C324.667,706.749 324.78,706.41 324.643,706.135L322.635,702.108ZM351.625,703.327C351.625,703.327 351.625,703.327 351.625,703.327C351.422,703.395 351.749,704.937 352.35,706.743C352.35,706.743 352.35,706.743 352.35,706.743C352.951,708.549 353.612,709.98 353.815,709.913C353.815,709.913 353.815,709.913 353.815,709.913C354.018,709.845 353.691,708.303 353.09,706.497C353.09,706.497 353.09,706.497 353.09,706.497C352.489,704.691 351.828,703.26 351.625,703.327ZM356.6,726.67L346.6,711.32C346.6,711.315 346.595,711.31 346.59,711.31C346.585,711.31 346.58,711.315 346.58,711.32L346.43,711.42C346.062,711.668 347.97,715.263 350.66,719.39L350.86,719.69C350.86,719.691 350.861,719.691 350.861,719.692C353.554,723.823 356.077,727.023 356.449,726.781C356.449,726.78 356.6,726.68 356.6,726.68C356.602,726.677 356.602,726.673 356.6,726.67ZM376.573,718.744C376.511,718.658 376.411,718.606 376.304,718.606C376.236,718.606 376.169,718.627 376.113,718.667L376.08,718.691C375.994,718.752 375.942,718.853 375.942,718.959C375.942,719.028 375.963,719.095 376.003,719.151L379.987,724.736C380.049,724.822 380.149,724.874 380.256,724.874C380.324,724.874 380.391,724.853 380.447,724.813L380.48,724.79C380.566,724.728 380.618,724.627 380.618,724.521C380.618,724.452 380.597,724.385 380.557,724.329L376.573,718.744ZM483.907,718.811C483.907,718.811 483.907,718.811 483.907,718.811C483.723,718.975 484.38,720.021 485.363,721.129C485.363,721.129 485.363,721.129 485.364,721.129C486.347,722.236 487.308,723.013 487.493,722.849C487.493,722.849 487.493,722.849 487.493,722.849C487.677,722.685 487.02,721.639 486.037,720.531C486.037,720.531 486.037,720.531 486.037,720.531C485.053,719.424 484.092,718.647 483.907,718.811ZM480.96,722.716C480.707,722.968 481.041,723.718 481.7,724.379C482.358,725.039 483.107,725.376 483.36,725.124C483.613,724.872 483.279,724.122 482.62,723.461C481.962,722.801 481.213,722.464 480.96,722.716ZM350.223,727.265C350.046,727.413 351.922,729.952 354.378,732.889C356.834,735.827 359,738.122 359.177,737.975C359.354,737.827 357.478,735.288 355.022,732.351C352.566,729.413 350.4,727.118 350.223,727.265ZM363.963,730.348C363.769,730.526 365.684,732.952 368.205,735.723C370.727,738.494 372.962,740.629 373.157,740.452C373.351,740.274 371.436,737.848 368.915,735.077C366.393,732.306 364.158,730.171 363.963,730.348ZM368.556,747.806C368.671,747.606 368.6,747.348 368.4,747.234L361.016,743.022C360.816,742.908 360.558,742.979 360.443,743.179L360.424,743.214C360.309,743.414 360.38,743.672 360.58,743.787L367.964,747.998C368.164,748.112 368.422,748.041 368.537,747.841L368.556,747.806Z" style="fill:rgb(1,1,1);fill-rule:nonzero;"/>
        <g transform="matrix(-0.949425,-0.313992,0.313992,-0.949425,378.6,478.95)">
            <ellipse cx="0" cy="0" rx="2.76" ry="0.5" style="fill:rgb(114,171,157);"/>
        </g>
        <g transform="matrix(0.884581,-0.466387,0.466387,0.884581,345.75,487.1)">
            <path d="M8.61,-0.02L8.61,0.02C8.61,0.169 8.489,0.29 8.34,0.29L-8.34,0.29C-8.489,0.29 -8.61,0.169 -8.61,0.02L-8.61,-0.02C-8.61,-0.169 -8.489,-0.29 -8.34,-0.29L8.34,-0.29C8.489,-0.29 8.61,-0.169 8.61,-0.02Z" style="fill:white;"/>
        </g>
        <path d="M423.15,494.37C423.173,494.393 423.185,494.423 423.185,494.455C423.185,494.521 423.131,494.575 423.065,494.575C423.033,494.575 423.003,494.563 422.98,494.54C416.21,489.35 411.36,484.91 402.27,484.18C402.089,484.164 401.949,484.011 401.95,483.83L401.95,483.82C401.955,483.65 402.09,483.51 402.26,483.5C409.84,483.11 418.42,488.89 423.15,494.37Z" style="fill:white;fill-rule:nonzero;"/>
        <g transform="matrix(-0.995227,-0.0975829,0.0975829,-0.995227,365.85,485.01)">
            <ellipse cx="0" cy="0" rx="0.75" ry="0.67" style="fill:rgb(114,171,157);"/>
        </g>
        <g transform="matrix(-0.957319,-0.289032,0.289032,-0.957319,371,485.55)">
            <ellipse cx="0" cy="0" rx="1.45" ry="0.71" style="fill:white;"/>
        </g>
        <path d="M395.28,487.68C395.264,487.613 395.272,487.547 395.301,487.49C395.377,487.338 395.59,487.289 395.771,487.381C395.836,487.414 395.891,487.462 395.93,487.52C396.07,487.74 396.11,487.94 396.05,488.12C396.035,488.166 396.011,488.208 395.978,488.244C395.857,488.379 395.65,488.392 395.519,488.274C395.485,488.243 395.458,488.204 395.44,488.16C395.367,487.98 395.313,487.82 395.28,487.68Z" style="fill:rgb(114,171,157);fill-rule:nonzero;"/>
        <g transform="matrix(-0.827081,-0.562083,0.562083,-0.827081,385.72,488.66)">
            <ellipse cx="0" cy="0" rx="1.31" ry="0.36" style="fill:rgb(114,171,157);"/>
        </g>
        <path d="M338.77,496.9C342.53,494.24 347,491.41 351.29,490.42C351.298,490.418 351.306,490.418 351.315,490.418C351.386,490.418 351.445,490.476 351.445,490.548C351.445,490.594 351.42,490.637 351.38,490.66C346.447,493.08 342.413,495.4 339.28,497.62C336.147,499.84 332.62,502.873 328.7,506.72C328.677,506.737 328.65,506.746 328.621,506.746C328.55,506.746 328.491,506.688 328.491,506.616C328.491,506.601 328.494,506.585 328.5,506.57C330.86,502.84 335.02,499.56 338.77,496.9Z" style="fill:white;fill-rule:nonzero;"/>
        <path d="M389.08,494.36C389.687,493.733 390.077,492.98 390.25,492.1C390.352,491.565 390.825,491.174 391.37,491.174C391.45,491.174 391.531,491.183 391.61,491.2L392.9,491.49C393.336,491.588 393.649,491.979 393.649,492.426C393.649,492.581 393.611,492.733 393.54,492.87C392.793,494.31 393.347,495.56 395.2,496.62C395.606,496.848 395.811,497.324 395.7,497.78C395.193,499.907 395.53,501.44 396.71,502.38C399.803,504.833 401.86,506.267 402.88,506.68C406.01,507.95 412.75,510.69 416.2,513.25C419.753,515.883 423.367,519.49 427.04,524.07C427.344,524.448 427.399,524.973 427.18,525.41C427.093,525.583 427.043,525.753 427.03,525.92C426.998,526.331 427.128,526.737 427.39,527.05C440.57,542.69 447.86,562.18 451.98,582.14C454.33,593.53 453.17,606.05 450.66,617.29C446.28,636.94 434.34,656.41 416.27,666.02C401.84,673.69 386.96,671.83 371.85,666.99C354.637,661.483 340.757,651.56 330.21,637.22C329.918,636.829 329.442,636.62 328.96,636.67L328.48,636.71C327.976,636.76 327.478,636.567 327.14,636.19C323.7,632.4 318.24,631.69 315.15,636.08C314.563,636.92 314.187,637.43 314.02,637.61C313.806,637.852 313.458,637.925 313.17,637.79C308.697,635.71 305.283,632.667 302.93,628.66C299.02,621.99 298.4,611.98 305.94,607.68C310.5,605.08 313.76,607.49 317.29,610.27C317.894,610.744 318.744,610.764 319.37,610.32C321.12,609.09 321.66,607.64 321.89,605.32C325.04,573.97 334.29,542.05 359.22,520.73C359.232,520.719 359.245,520.709 359.258,520.699C359.522,520.503 359.904,520.563 360.103,520.831C360.113,520.844 360.122,520.857 360.13,520.87C360.95,522.183 362,522.23 363.28,521.01C369.873,514.77 374.99,510.39 378.63,507.87C380.43,506.63 383.04,507.13 384.89,506.3C388.25,504.807 390.13,502.363 390.53,498.97C390.563,498.703 390.514,498.431 390.39,498.19L388.93,495.34C388.769,495.01 388.829,494.617 389.08,494.36ZM393.4,560.98C393.834,561.757 394.657,562.24 395.547,562.24C395.972,562.24 396.39,562.13 396.76,561.92C404.57,557.51 410.34,554.04 419.55,557.82C419.782,557.916 420.031,557.965 420.282,557.965C421.126,557.965 421.876,557.408 422.12,556.6L422.17,556.44C422.528,555.253 421.983,553.967 420.88,553.4C412.233,548.933 403.307,550.24 394.1,557.32C393.002,558.159 392.685,559.694 393.36,560.9L393.4,560.98ZM344.95,572.84C341.09,575.267 338.09,579.173 335.95,584.56C335.363,586.04 335.707,587.137 336.98,587.85C338.025,588.432 339.361,588.069 339.96,587.04C342.16,583.23 343.93,580.17 347.97,577.63C352,575.09 355.52,574.83 359.91,574.49C361.095,574.395 361.999,573.352 361.93,572.16C361.843,570.7 361.003,569.917 359.41,569.81C353.63,569.403 348.81,570.413 344.95,572.84ZM414.28,572.02C407.21,571.41 408.16,580.28 411.5,583.36C412.78,584.53 414.97,585.11 416.41,584.24C419.703,582.233 421.323,579.443 421.27,575.87C421.237,573.417 420.123,571.94 417.93,571.44C417.565,571.355 417.186,571.376 416.84,571.5C415.74,571.9 414.887,572.073 414.28,572.02ZM364.71,596.39C364.865,596.308 365.011,596.211 365.147,596.099C366.23,595.206 366.39,593.583 365.5,592.503C365.387,592.366 365.259,592.241 365.12,592.13C363.55,590.88 362.12,588.17 360.64,587.61C355.93,585.82 351.6,590.22 353.24,594.94C353.56,595.853 353.797,596.967 353.95,598.28C354.002,598.716 354.187,599.122 354.48,599.44C356,601.113 358.03,601.72 360.57,601.26C361.62,601.069 362.512,600.215 362.88,599.05C363.307,597.69 363.917,596.803 364.71,596.39ZM394.88,633.02C389.607,634.667 383.797,634.743 377.45,633.25C376.619,633.052 375.767,633.531 375.51,634.34C374.99,635.96 375.64,636.987 377.46,637.42C383.913,638.947 390.127,638.777 396.1,636.91C402.067,635.037 407.267,631.63 411.7,626.69C412.947,625.297 412.893,624.083 411.54,623.05C410.869,622.535 409.899,622.627 409.33,623.26C404.963,628.113 400.147,631.367 394.88,633.02Z" style="fill:white;fill-rule:nonzero;"/>
        <path d="M417.91,498.89C415.45,497.05 413,495.71 411.01,494C410.981,493.967 410.966,493.925 410.966,493.882C410.966,493.783 411.047,493.702 411.146,493.702C411.164,493.702 411.182,493.704 411.2,493.71C413.947,495.03 416.387,496.487 418.52,498.08C420.653,499.673 422.743,501.6 424.79,503.86C424.809,503.889 424.819,503.923 424.819,503.958C424.819,504.057 424.738,504.138 424.639,504.138C424.612,504.138 424.585,504.132 424.56,504.12C422.36,502.7 420.38,500.73 417.91,498.89Z" style="fill:white;fill-rule:nonzero;"/>
        <g transform="matrix(0.849893,-0.526956,0.526956,0.849893,365.26,501.18)">
            <ellipse cx="0" cy="0" rx="2.92" ry="0.46" style="fill:white;"/>
        </g>
        <path d="M383.11,501.07C383.363,500.69 383.647,500.65 383.96,500.95C384.056,501.04 384.119,501.154 384.143,501.277C384.212,501.638 383.928,502.001 383.513,502.081C383.374,502.108 383.231,502.1 383.1,502.06C382.747,501.947 382.75,501.617 383.11,501.07Z" style="fill:white;fill-rule:nonzero;"/>
        <g transform="matrix(-0.898794,-0.438371,0.438371,-0.898794,407.1,503.65)">
            <ellipse cx="0" cy="0" rx="3.74" ry="0.42" style="fill:white;"/>
        </g>
        <g transform="matrix(0.859852,-0.510543,0.510543,0.859852,376.75,503.73)">
            <ellipse cx="0" cy="0" rx="2.52" ry="0.4" style="fill:rgb(114,171,157);"/>
        </g>
        <path d="M341.7,509.86C345.52,506.88 349.12,504.597 352.5,503.01C352.541,502.992 352.586,502.983 352.631,502.983C352.803,502.983 352.948,503.118 352.96,503.29C352.96,503.35 352.89,503.427 352.75,503.52C348.89,505.96 345.433,508.37 342.38,510.75C339.333,513.123 336.157,515.883 332.85,519.03C332.723,519.15 332.633,519.203 332.58,519.19C332.443,519.147 332.349,519.019 332.349,518.875C332.349,518.801 332.374,518.728 332.42,518.67C334.78,515.783 337.873,512.847 341.7,509.86Z" style="fill:white;fill-rule:nonzero;"/>
        <path d="M319.82,507.09C319.827,507.057 319.97,506.89 320.25,506.59C320.299,506.537 320.368,506.507 320.44,506.507C320.583,506.507 320.7,506.625 320.7,506.767C320.7,506.771 320.7,506.776 320.7,506.78C320.7,506.793 320.553,506.97 320.26,507.31C320.213,507.373 320.139,507.41 320.06,507.41C319.923,507.41 319.81,507.297 319.81,507.16C319.81,507.136 319.813,507.113 319.82,507.09Z" style="fill:rgb(114,171,157);fill-rule:nonzero;"/>
        <g transform="matrix(-0.772734,-0.634731,0.634731,-0.772734,421.52,511.76)">
            <ellipse cx="0" cy="0" rx="2.59" ry="0.25" style="fill:white;"/>
        </g>
        <path d="M316.62,512.32C316.567,512.5 316.487,512.643 316.38,512.75C316.324,512.804 316.249,512.835 316.171,512.835C316.007,512.835 315.871,512.699 315.871,512.535C315.871,512.499 315.878,512.463 315.89,512.43C315.93,512.29 316.03,512.16 316.19,512.04C316.238,512.001 316.298,511.98 316.359,511.98C316.507,511.98 316.629,512.102 316.629,512.25C316.629,512.274 316.626,512.297 316.62,512.32Z" style="fill:rgb(114,171,157);fill-rule:nonzero;"/>
        <g transform="matrix(0.70834,-0.705872,0.705872,0.70834,343.41,524.88)">
            <path d="M4.21,-0.01L4.21,0.01C4.21,0.203 4.053,0.36 3.86,0.36L-3.86,0.36C-4.053,0.36 -4.21,0.203 -4.21,0.01L-4.21,-0.01C-4.21,-0.203 -4.053,-0.36 -3.86,-0.36L3.86,-0.36C4.053,-0.36 4.21,-0.203 4.21,-0.01Z" style="fill:white;"/>
        </g>
        <g transform="matrix(0.746638,0.66523,-0.66523,0.746638,329.48,526.86)">
            <path d="M0.32,-3.97L0.32,3.97C0.32,4.141 0.181,4.28 0.01,4.28L-0.01,4.28C-0.181,4.28 -0.32,4.141 -0.32,3.97L-0.32,-3.97C-0.32,-4.141 -0.181,-4.28 -0.01,-4.28L0.01,-4.28C0.181,-4.28 0.32,-4.141 0.32,-3.97Z" style="fill:white;"/>
        </g>
        <path d="M306.89,540.01C308.777,534.73 310.847,529.91 313.1,525.55C313.44,524.897 313.853,524.327 314.34,523.84C314.361,523.823 314.388,523.813 314.416,523.813C314.482,523.813 314.536,523.867 314.536,523.933C314.536,523.946 314.534,523.958 314.53,523.97C311.71,530.337 309.487,535.8 307.86,540.36C306.233,544.92 304.493,550.553 302.64,557.26C302.622,557.306 302.578,557.337 302.528,557.337C302.471,557.337 302.421,557.296 302.41,557.24C302.337,556.553 302.377,555.853 302.53,555.14C303.55,550.34 305.003,545.297 306.89,540.01Z" style="fill:white;fill-rule:nonzero;"/>
        <path d="M313.06,558.33C313.036,558.405 312.957,558.45 312.88,558.43L312.8,558.4C312.144,558.17 313.086,553.258 314.89,547.5L314.98,547.19C316.789,541.418 318.824,536.841 319.489,537.05C319.489,537.05 319.49,537.05 319.49,537.05L319.57,537.07C319.633,537.089 319.677,537.148 319.677,537.214C319.677,537.229 319.675,537.245 319.67,537.26L313.06,558.33Z" style="fill:white;fill-rule:nonzero;"/>
        <g transform="matrix(0.902585,0.430511,-0.430511,0.902585,326.26,552.58)">
            <path d="M0.43,-5.35L0.43,5.35C0.43,5.582 0.242,5.77 0.01,5.77L-0.01,5.77C-0.242,5.77 -0.43,5.582 -0.43,5.35L-0.43,-5.35C-0.43,-5.582 -0.242,-5.77 -0.01,-5.77L0.01,-5.77C0.242,-5.77 0.43,-5.582 0.43,-5.35Z" style="fill:white;"/>
        </g>
        <path d="M393.4,560.98L393.36,560.9C392.685,559.694 393.002,558.159 394.1,557.32C403.307,550.24 412.233,548.933 420.88,553.4C421.983,553.967 422.528,555.253 422.17,556.44L422.12,556.6C421.876,557.408 421.126,557.965 420.282,557.965C420.031,557.965 419.782,557.916 419.55,557.82C410.34,554.04 404.57,557.51 396.76,561.92C396.39,562.13 395.972,562.24 395.547,562.24C394.657,562.24 393.834,561.757 393.4,560.98Z" style="fill:rgb(1,1,1);fill-rule:nonzero;"/>
        <path d="M460.78,555.13C460.953,555.437 461,555.693 460.92,555.9C460.872,556.015 460.759,556.091 460.634,556.091C460.501,556.091 460.382,556.006 460.34,555.88C460.213,555.46 460.15,555.243 460.15,555.23C460.182,555.072 460.322,554.956 460.483,554.956C460.606,554.956 460.72,555.023 460.78,555.13Z" style="fill:rgb(114,171,157);fill-rule:nonzero;"/>
        <g transform="matrix(-0.307357,-0.951594,0.951594,-0.307357,461.44,558.37)">
            <ellipse cx="0" cy="0" rx="1.62" ry="0.4" style="fill:rgb(114,171,157);"/>
        </g>
        <path d="M457.1,560.1C457.123,560.104 457.145,560.11 457.167,560.118C457.378,560.198 457.474,560.466 457.381,560.712C457.372,560.735 457.362,560.758 457.35,560.78C457.217,561.02 457.04,561.13 456.82,561.11C456.789,561.106 456.758,561.099 456.729,561.087C456.525,561.007 456.432,560.752 456.522,560.522C456.535,560.49 456.551,560.459 456.57,560.43C456.743,560.177 456.92,560.067 457.1,560.1Z" style="fill:rgb(114,171,157);fill-rule:nonzero;"/>
        <path d="M323.76,563.24C323.76,563.24 323.76,563.24 323.76,563.24C323.76,563.152 323.832,563.08 323.92,563.08C323.923,563.08 323.927,563.08 323.93,563.08L324.01,563.09C324.656,563.126 325.13,564.214 325.06,565.5L325.04,565.84C324.97,567.126 324.381,568.155 323.735,568.12C323.733,568.12 323.732,568.12 323.73,568.12L323.65,568.12C323.566,568.115 323.5,568.044 323.5,567.96C323.5,567.957 323.5,567.953 323.5,567.95L323.76,563.24Z" style="fill:white;fill-rule:nonzero;"/>
        <path d="M458.55,593.44C458.463,593.486 458.366,593.51 458.268,593.51C457.957,593.51 457.696,593.269 457.67,592.96C457.017,585.307 455.593,577.927 453.4,570.82C453.201,570.174 453.308,569.47 453.69,568.91C458.41,561.96 466.51,563.62 468.74,571.32C470.907,578.82 469.863,585.987 465.61,592.82C465.367,593.212 464.858,593.355 464.44,593.15C462.587,592.237 460.623,592.333 458.55,593.44Z" style="fill:white;fill-rule:nonzero;"/>
        <path d="M347.97,577.63C343.93,580.17 342.16,583.23 339.96,587.04C339.361,588.069 338.025,588.432 336.98,587.85C335.707,587.137 335.363,586.04 335.95,584.56C338.09,579.173 341.09,575.267 344.95,572.84C348.81,570.413 353.63,569.403 359.41,569.81C361.003,569.917 361.843,570.7 361.93,572.16C361.999,573.352 361.095,574.395 359.91,574.49C355.52,574.83 352,575.09 347.97,577.63Z" style="fill:rgb(1,1,1);fill-rule:nonzero;"/>
        <path d="M414.28,572.02C414.887,572.073 415.74,571.9 416.84,571.5C417.186,571.376 417.565,571.355 417.93,571.44C420.123,571.94 421.237,573.417 421.27,575.87C421.323,579.443 419.703,582.233 416.41,584.24C414.97,585.11 412.78,584.53 411.5,583.36C408.16,580.28 407.21,571.41 414.28,572.02ZM415.299,575.554C414.845,575.684 414.612,576.281 414.783,576.877C414.783,576.877 414.783,576.877 414.783,576.877C414.954,577.473 415.468,577.856 415.921,577.726C415.921,577.726 415.921,577.726 415.922,577.726C416.375,577.596 416.608,576.999 416.437,576.403C416.437,576.403 416.437,576.403 416.437,576.403C416.266,575.807 415.752,575.424 415.299,575.554C415.299,575.554 415.299,575.554 415.298,575.554Z" style="fill:rgb(1,1,1);fill-rule:nonzero;"/>
        <path d="M309.8,573.93C309.789,573.951 309.774,573.97 309.757,573.987C309.654,574.085 309.475,574.069 309.362,573.95C309.341,573.929 309.324,573.905 309.31,573.88C309.17,573.633 309.187,573.387 309.36,573.14C309.38,573.112 309.404,573.088 309.432,573.067C309.565,572.97 309.748,572.992 309.839,573.116C309.858,573.141 309.871,573.17 309.88,573.2C309.94,573.453 309.913,573.697 309.8,573.93Z" style="fill:rgb(114,171,157);fill-rule:nonzero;"/>
        <g transform="matrix(-0.275637,-0.961262,0.961262,-0.275637,415.61,576.64)">
            <ellipse cx="0" cy="0" rx="1.13" ry="0.86" style="fill:white;"/>
        </g>
        <path d="M295.64,607.93C295.64,607.93 295.64,607.93 295.64,607.93C295.514,607.93 295.41,607.826 295.41,607.7C295.41,607.697 295.41,607.693 295.41,607.69L295.41,607.49C295.706,592.085 296.184,579.414 296.469,579.42C296.469,579.42 296.47,579.42 296.47,579.42L296.79,579.43C297.074,579.457 297.065,592.13 296.77,607.52L296.77,607.72C296.77,607.846 296.666,607.95 296.54,607.95L295.64,607.93Z" style="fill:rgb(114,171,157);fill-rule:nonzero;"/>
        <path d="M305.31,586.72C305.857,586.78 306.07,587.417 305.95,588.63C304.937,598.857 304.117,603.937 303.49,603.87C302.863,603.803 303.127,598.667 304.28,588.46C304.42,587.24 304.763,586.66 305.31,586.72Z" style="fill:rgb(114,171,157);fill-rule:nonzero;"/>
        <path d="M364.71,596.39C363.917,596.803 363.307,597.69 362.88,599.05C362.512,600.215 361.62,601.069 360.57,601.26C358.03,601.72 356,601.113 354.48,599.44C354.187,599.122 354.002,598.716 353.95,598.28C353.797,596.967 353.56,595.853 353.24,594.94C351.6,590.22 355.93,585.82 360.64,587.61C362.12,588.17 363.55,590.88 365.12,592.13C365.259,592.241 365.387,592.366 365.5,592.503C366.39,593.583 366.23,595.206 365.147,596.099C365.011,596.211 364.865,596.308 364.71,596.39ZM357.338,589.915C357.338,589.915 357.338,589.915 357.338,589.915C357.162,589.719 356.608,589.926 356.109,590.373C356.109,590.373 356.109,590.373 356.109,590.373C355.611,590.82 355.346,591.349 355.522,591.545C355.522,591.545 355.522,591.545 355.522,591.545C355.698,591.741 356.252,591.534 356.751,591.087C356.751,591.087 356.751,591.087 356.751,591.087C357.249,590.64 357.514,590.111 357.338,589.915ZM360.202,598.274C360.148,598.022 359.755,597.89 359.332,597.98C358.908,598.071 358.604,598.353 358.658,598.606C358.658,598.606 358.658,598.606 358.658,598.606C358.712,598.858 359.105,598.99 359.529,598.9C359.952,598.809 360.256,598.527 360.202,598.274C360.202,598.274 360.202,598.274 360.202,598.274Z" style="fill:rgb(1,1,1);fill-rule:nonzero;"/>
        <g transform="matrix(0.744312,-0.667833,0.667833,0.744312,356.43,590.73)">
            <ellipse cx="0" cy="0" rx="1.22" ry="0.48" style="fill:white;"/>
        </g>
        <g transform="matrix(0.328867,-0.944376,0.944376,0.328867,461.54,600.29)">
            <ellipse cx="0" cy="0" rx="4.32" ry="4.03" style="fill:white;"/>
        </g>
        <g transform="matrix(0.977783,-0.209619,0.209619,0.977783,359.43,598.44)">
            <ellipse cx="0" cy="0" rx="0.79" ry="0.47" style="fill:white;"/>
        </g>
        <g transform="matrix(0.831954,-0.554844,0.554844,0.831954,309.76,601.75)">
            <ellipse cx="0" cy="0" rx="1.07" ry="0.76" style="fill:rgb(114,171,157);"/>
        </g>
        <path d="M316.61,602.67C316.637,603.29 316.627,603.667 316.58,603.8C316.505,604.023 316.294,604.175 316.059,604.175C315.976,604.175 315.894,604.156 315.82,604.12C315.247,603.84 314.947,603.38 314.92,602.74C314.893,602.1 315.153,601.617 315.7,601.29C315.784,601.241 315.88,601.215 315.978,601.215C316.194,601.215 316.392,601.342 316.48,601.54C316.54,601.673 316.583,602.05 316.61,602.67Z" style="fill:white;fill-rule:nonzero;"/>
        <path d="M474.21,629.9C474.203,629.901 474.197,629.901 474.19,629.901C474.089,629.901 474.005,629.821 474,629.72L473.65,623.95C473.65,623.949 473.65,623.949 473.65,623.948C473.088,614.755 472.85,607.176 473.124,607.159C473.126,607.159 473.128,607.159 473.13,607.16L473.25,607.16C473.527,607.22 474.211,614.749 474.77,623.89L475.12,629.65C475.121,629.657 475.121,629.663 475.121,629.67C475.121,629.771 475.041,629.855 474.94,629.86L474.21,629.9Z" style="fill:rgb(114,171,157);fill-rule:nonzero;"/>
        <path d="M396.1,636.91C390.127,638.777 383.913,638.947 377.46,637.42C375.64,636.987 374.99,635.96 375.51,634.34C375.767,633.531 376.619,633.052 377.45,633.25C383.797,634.743 389.607,634.667 394.88,633.02C400.147,631.367 404.963,628.113 409.33,623.26C409.899,622.627 410.869,622.535 411.54,623.05C412.893,624.083 412.947,625.297 411.7,626.69C407.267,631.63 402.067,635.037 396.1,636.91Z" style="fill:rgb(1,1,1);fill-rule:nonzero;"/>
        <circle cx="320.87" cy="641.38" r="4.39" style="fill:white;"/>
        <g transform="matrix(0.999962,0.00872654,-0.00872654,0.999962,474.42,642.48)">
            <path d="M0.44,-4.4L0.44,4.4C0.44,4.632 0.252,4.82 0.02,4.82L-0.02,4.82C-0.252,4.82 -0.44,4.632 -0.44,4.4L-0.44,-4.4C-0.44,-4.632 -0.252,-4.82 -0.02,-4.82L0.02,-4.82C0.252,-4.82 0.44,-4.632 0.44,-4.4Z" style="fill:rgb(114,171,157);"/>
        </g>
        <path d="M304.98,638.63C304.793,638.537 304.643,638.383 304.53,638.17C304.513,638.136 304.505,638.098 304.505,638.06C304.505,637.923 304.617,637.81 304.755,637.81C304.803,637.81 304.85,637.824 304.89,637.85C305.15,638.03 305.303,638.163 305.35,638.25C305.37,638.289 305.381,638.333 305.381,638.377C305.381,638.531 305.254,638.657 305.101,638.657C305.059,638.657 305.018,638.648 304.98,638.63Z" style="fill:rgb(114,171,157);fill-rule:nonzero;"/>
        <g transform="matrix(0.929776,-0.368125,0.368125,0.929776,300.67,648.48)">
            <path d="M0.39,-6.58L0.39,6.58C0.39,6.784 0.224,6.95 0.02,6.95L-0.02,6.95C-0.224,6.95 -0.39,6.784 -0.39,6.58L-0.39,-6.58C-0.39,-6.784 -0.224,-6.95 -0.02,-6.95L0.02,-6.95C0.224,-6.95 0.39,-6.784 0.39,-6.58Z" style="fill:white;"/>
        </g>
        <g transform="matrix(0.0471065,-0.99889,0.99889,0.0471065,453.48,658.44)">
            <ellipse cx="0" cy="0" rx="12.94" ry="0.5" style="fill:white;"/>
        </g>
        <path d="M442.06,648.26C442.087,648.173 442.23,648.037 442.49,647.85C442.511,647.834 442.535,647.823 442.561,647.816C442.677,647.785 442.8,647.86 442.833,647.982C442.839,648.007 442.842,648.034 442.84,648.06C442.8,648.413 442.78,648.593 442.78,648.6C442.731,648.665 442.664,648.714 442.587,648.741C442.375,648.816 442.14,648.708 442.067,648.501C442.039,648.423 442.037,648.339 442.06,648.26Z" style="fill:rgb(114,171,157);fill-rule:nonzero;"/>
        <g transform="matrix(-0.789084,-0.614285,0.614285,-0.789084,317.83,649.41)">
            <ellipse cx="0" cy="0" rx="1" ry="0.42" style="fill:white;"/>
        </g>
        <g transform="matrix(-0.586372,-0.810042,0.810042,-0.586372,309.88,650.24)">
            <ellipse cx="0" cy="0" rx="1.49" ry="0.38" style="fill:white;"/>
        </g>
        <g transform="matrix(0.0261769,-0.999657,0.999657,0.0261769,462.66,660.39)">
            <ellipse cx="0" cy="0" rx="8.97" ry="0.44" style="fill:white;"/>
        </g>
        <path d="M472.1,679.55C470.86,674.077 470.243,669.18 470.25,664.86C470.252,664.653 470.423,664.483 470.63,664.483C470.678,664.483 470.725,664.492 470.77,664.51C470.83,664.543 470.873,664.657 470.9,664.85C471.553,670.097 472.377,674.903 473.37,679.27C474.357,683.637 475.683,688.327 477.35,693.34C477.41,693.527 477.42,693.647 477.38,693.7C477.308,693.778 477.207,693.822 477.101,693.822C476.956,693.822 476.824,693.74 476.76,693.61C474.893,689.717 473.34,685.03 472.1,679.55Z" style="fill:white;fill-rule:nonzero;"/>
        <g transform="matrix(-0.597625,-0.801776,0.801776,-0.597625,339.43,666.39)">
            <ellipse cx="0" cy="0" rx="1.95" ry="0.32" style="fill:white;"/>
        </g>
        <path d="M380.99,674.98C380.986,674.955 380.985,674.929 380.987,674.904C381,674.696 381.187,674.536 381.4,674.549C381.424,674.551 381.447,674.554 381.47,674.56C396.69,678.327 410.667,675.863 423.4,667.17C423.498,667.105 423.614,667.07 423.731,667.07C424.045,667.07 424.309,667.317 424.33,667.63C424.87,676.143 426.063,684.383 427.91,692.35C428.91,696.67 431.367,699.793 435.28,701.72C435.794,701.979 436.043,702.579 435.86,703.12C433.653,709.707 429.36,714.577 422.98,717.73C409.733,724.27 396.577,724.1 383.51,717.22C381.703,716.273 380.477,715.39 379.83,714.57C379.75,714.47 379.683,714.359 379.63,714.24L372.83,698.02C372.718,697.748 372.843,697.432 373.11,697.31C381.2,693.43 382.01,682.84 380.99,674.98Z" style="fill:white;fill-rule:nonzero;"/>
        <g transform="matrix(0.999507,-0.0314108,0.0314108,0.999507,436.72,676.43)">
            <path d="M0.41,-7.44L0.41,7.44C0.41,7.589 0.289,7.71 0.14,7.71L-0.14,7.71C-0.289,7.71 -0.41,7.589 -0.41,7.44L-0.41,-7.44C-0.41,-7.589 -0.289,-7.71 -0.14,-7.71L0.14,-7.71C0.289,-7.71 0.41,-7.589 0.41,-7.44Z" style="fill:white;"/>
        </g>
        <g transform="matrix(-0.619779,-0.784776,0.784776,-0.619779,359.03,677.97)">
            <ellipse cx="0" cy="0" rx="1.18" ry="0.39" style="fill:white;"/>
        </g>
        <g transform="matrix(0.996041,-0.0888943,0.0888943,0.996041,452.61,688.6)">
            <path d="M0.53,-10.07L0.53,10.07C0.53,10.357 0.297,10.59 0.01,10.59L-0.01,10.59C-0.297,10.59 -0.53,10.357 -0.53,10.07L-0.53,-10.07C-0.53,-10.357 -0.297,-10.59 -0.01,-10.59L0.01,-10.59C0.297,-10.59 0.53,-10.357 0.53,-10.07Z" style="fill:white;"/>
        </g>
        <g transform="matrix(-0.490904,-0.871214,0.871214,-0.490904,326.57,688.11)">
            <ellipse cx="0" cy="0" rx="2.66" ry="0.35" style="fill:rgb(114,171,157);"/>
        </g>
        <path d="M312.44,700.31C312.06,698.1 311.69,693.5 312.78,690.91C312.839,690.799 312.955,690.729 313.081,690.729C313.26,690.729 313.41,690.871 313.42,691.05C313.34,694.09 313.27,697.29 313.76,700.08C314.24,702.87 315.39,705.86 316.48,708.7C316.491,708.734 316.497,708.77 316.497,708.806C316.497,708.993 316.344,709.146 316.157,709.146C316.069,709.146 315.983,709.112 315.92,709.05C314.02,706.98 312.83,702.52 312.44,700.31Z" style="fill:rgb(114,171,157);fill-rule:nonzero;"/>
        <path d="M321.56,690.87C321.753,690.81 321.927,690.847 322.08,690.98C322.287,691.153 322.293,691.32 322.1,691.48C321.953,691.593 321.77,691.543 321.55,691.33C321.534,691.314 321.52,691.297 321.507,691.279C321.408,691.141 321.412,690.966 321.514,690.893C321.528,690.883 321.544,690.876 321.56,690.87Z" style="fill:rgb(114,171,157);fill-rule:nonzero;"/>
        <g transform="matrix(0.942641,-0.333807,0.333807,0.942641,349.72,696.63)">
            <path d="M0.51,-2.44L0.51,2.44C0.51,2.705 0.295,2.92 0.03,2.92L-0.03,2.92C-0.295,2.92 -0.51,2.705 -0.51,2.44L-0.51,-2.44C-0.51,-2.705 -0.295,-2.92 -0.03,-2.92L0.03,-2.92C0.295,-2.92 0.51,-2.705 0.51,-2.44Z" style="fill:rgb(114,171,157);"/>
        </g>
        <g transform="matrix(0.865151,-0.501511,0.501511,0.865151,338.36,698.15)">
            <path d="M0.52,-4.1L0.52,4.1C0.52,4.376 0.296,4.6 0.02,4.6L-0.02,4.6C-0.296,4.6 -0.52,4.376 -0.52,4.1L-0.52,-4.1C-0.52,-4.376 -0.296,-4.6 -0.02,-4.6L0.02,-4.6C0.296,-4.6 0.52,-4.376 0.52,-4.1Z" style="fill:rgb(114,171,157);"/>
        </g>
        <g transform="matrix(0.894934,-0.446198,0.446198,0.894934,323.12,704.38)">
            <path d="M0.58,-2.25L0.58,2.25C0.58,2.559 0.329,2.81 0.02,2.81L-0.02,2.81C-0.329,2.81 -0.58,2.559 -0.58,2.25L-0.58,-2.25C-0.58,-2.559 -0.329,-2.81 -0.02,-2.81L0.02,-2.81C0.329,-2.81 0.58,-2.559 0.58,-2.25Z" style="fill:rgb(114,171,157);"/>
        </g>
        <g transform="matrix(-0.315649,-0.948876,0.948876,-0.315649,352.72,706.62)">
            <ellipse cx="0" cy="0" rx="3.47" ry="0.39" style="fill:rgb(114,171,157);"/>
        </g>
        <path d="M457.74,834.4C456.027,834.82 452.987,835.21 448.62,835.57C439.993,836.29 431.363,836.917 422.73,837.45C392.63,839.29 362.617,838.347 332.69,834.62C330.743,834.38 329.02,833.903 327.52,833.19C328.333,820.657 330.187,808.37 333.08,796.33C333.199,795.84 333.632,795.485 334.14,795.46C336.133,795.373 337.36,794.243 337.82,792.07C339.82,782.537 341.647,773.753 343.3,765.72C343.305,765.697 343.309,765.673 343.313,765.649C343.467,764.718 342.824,763.825 341.887,763.67C341.865,763.666 341.843,763.663 341.82,763.66L341.75,763.65C340.728,763.535 339.773,764.221 339.55,765.23L334.16,789.95C333.967,790.845 333.12,791.457 332.21,791.36C318.25,789.88 305.427,785.773 293.74,779.04C293.285,778.781 293.053,778.25 293.17,777.74C297.11,760.48 303.653,744.25 312.8,729.05C316.8,722.42 322.27,715.74 328.42,711.53C328.552,711.441 328.708,711.393 328.868,711.393C329.16,711.393 329.43,711.553 329.57,711.81C333.017,718.023 336.897,723.807 341.21,729.16C348.87,738.66 357.03,747.35 368.54,751.51C368.869,751.628 369.221,751.67 369.57,751.63C370.643,751.497 371.673,750.96 372.66,750.02C372.92,749.771 373.303,749.7 373.63,749.84L377.55,751.47C378.203,751.742 378.967,751.478 379.32,750.86L379.45,750.63C379.457,750.616 379.464,750.601 379.471,750.587C379.856,749.78 379.505,748.797 378.693,748.41C378.679,748.403 378.664,748.396 378.65,748.39C376.31,747.35 374.93,746.65 374.51,746.29C374.403,746.197 374.341,746.062 374.341,745.92C374.341,745.651 374.562,745.43 374.831,745.43C374.878,745.43 374.925,745.437 374.97,745.45C376.99,746.08 379.35,746.33 380.76,744.47C381.7,743.23 380.4,741.56 379.61,740.77C379.54,740.704 379.5,740.612 379.5,740.516C379.5,740.389 379.569,740.272 379.68,740.21L379.92,740.07C380.025,740.006 380.16,740.023 380.24,740.11L383.23,743.09C383.445,743.305 383.759,743.39 384.05,743.31C385.23,742.97 385.85,742.293 385.91,741.28C385.93,741.027 385.87,740.775 385.74,740.56L379.19,729.82C379.16,729.765 379.145,729.703 379.145,729.64C379.145,729.432 379.316,729.26 379.525,729.26C379.615,729.26 379.701,729.292 379.77,729.35C384.17,733.35 388.5,736.99 394.38,738.07C395.263,738.232 396.147,737.75 396.49,736.92L396.73,736.35C396.791,736.2 396.823,736.04 396.823,735.879C396.823,735.261 396.362,734.733 395.75,734.65C395.417,734.603 394.787,734.52 393.86,734.4C388.92,733.76 386.04,726.93 384.28,722.82C384.27,722.798 384.264,722.775 384.264,722.751C384.264,722.663 384.337,722.591 384.424,722.591C384.451,722.591 384.477,722.598 384.5,722.61C398.193,728.937 411.727,728.587 425.1,721.56C431.913,717.98 436.74,712.623 439.58,705.49C439.625,705.369 439.741,705.289 439.87,705.289C440.011,705.289 440.134,705.384 440.17,705.52C442.277,712.313 442.783,719.223 441.69,726.25C441.61,726.775 441.469,727.288 441.27,727.78C440.43,729.89 439.42,731.65 440.1,732.67C440.305,732.98 440.653,733.166 441.025,733.166C441.334,733.166 441.63,733.037 441.84,732.81C444.82,729.59 445.2,726.42 445.89,721.94C445.915,721.775 446.059,721.652 446.226,721.652C446.251,721.652 446.276,721.655 446.3,721.66L446.64,721.73C446.664,721.735 446.681,721.761 446.68,721.79C446.813,726.91 446.03,731.607 444.33,735.88C444.329,735.883 444.327,735.887 444.326,735.89C443.977,736.772 444.42,737.787 445.307,738.139C445.308,738.139 445.309,738.14 445.31,738.14L445.39,738.17C445.406,738.176 445.421,738.183 445.437,738.189C446.334,738.531 447.352,738.079 447.693,737.188C447.699,737.172 447.704,737.156 447.71,737.14L450.59,728.91C450.603,728.882 450.635,728.866 450.67,728.87L450.99,728.94C451.158,728.979 451.271,729.144 451.25,729.32C450.677,733.7 449.207,737.487 446.84,740.68C446.803,740.73 446.769,740.781 446.739,740.835C446.323,741.564 446.577,742.504 447.301,742.917C447.356,742.948 447.412,742.976 447.47,743L447.88,743.17C448.556,743.45 449.341,743.225 449.76,742.63C456.17,733.52 456.97,726 459.19,713.97C459.202,713.904 459.228,713.841 459.267,713.787C459.413,713.581 459.707,713.536 459.917,713.685C459.971,713.724 460.016,713.773 460.05,713.83L460.93,715.36C461.142,715.728 461.593,715.889 461.99,715.74C462.49,715.553 462.923,715.137 463.29,714.49C463.291,714.489 463.291,714.488 463.292,714.486C463.5,714.132 463.96,714.009 464.31,714.214C464.313,714.216 464.317,714.218 464.32,714.22C474.047,720.027 481.077,728.233 485.41,738.84C490.343,750.9 493.587,763.623 495.14,777.01C495.206,777.56 494.905,778.093 494.4,778.32C484.82,782.66 475.027,785.657 465.02,787.31C465.005,787.313 464.99,787.315 464.976,787.316C464.594,787.358 464.245,787.073 464.203,786.686C464.202,786.674 464.201,786.662 464.2,786.65L463.23,767.52C463.225,767.409 463.206,767.298 463.174,767.191C462.956,766.455 462.166,766.03 461.425,766.249C461.318,766.281 461.216,766.325 461.12,766.38L460.55,766.71C459.893,767.084 459.496,767.798 459.52,768.56C459.727,775.093 459.87,781.573 459.95,788C460.143,803.447 459.407,818.913 457.74,834.4Z" style="fill:rgb(114,171,157);fill-rule:nonzero;"/>
        <path d="M356.6,726.67C356.602,726.673 356.602,726.677 356.6,726.68C356.6,726.68 356.449,726.78 356.449,726.781C356.077,727.023 353.554,723.823 350.861,719.692C350.861,719.691 350.86,719.691 350.86,719.69L350.66,719.39C347.97,715.263 346.062,711.668 346.43,711.42L346.58,711.32C346.58,711.315 346.585,711.31 346.59,711.31C346.595,711.31 346.6,711.315 346.6,711.32L356.6,726.67Z" style="fill:rgb(114,171,157);fill-rule:nonzero;"/>
        <g transform="matrix(0.814116,-0.580703,0.580703,0.814116,378.28,721.74)">
            <path d="M0.35,-3.43L0.35,3.43C0.35,3.612 0.202,3.76 0.02,3.76L-0.02,3.76C-0.202,3.76 -0.35,3.612 -0.35,3.43L-0.35,-3.43C-0.35,-3.612 -0.202,-3.76 -0.02,-3.76L0.02,-3.76C0.202,-3.76 0.35,-3.612 0.35,-3.43Z" style="fill:rgb(114,171,157);"/>
        </g>
        <g transform="matrix(-0.663926,-0.747798,0.747798,-0.663926,485.7,720.83)">
            <ellipse cx="0" cy="0" rx="2.7" ry="0.45" style="fill:rgb(114,171,157);"/>
        </g>
        <g transform="matrix(-0.705872,-0.70834,0.70834,-0.705872,482.16,723.92)">
            <ellipse cx="0" cy="0" rx="1.7" ry="0.65" style="fill:rgb(114,171,157);"/>
        </g>
        <g transform="matrix(-0.64145,-0.767165,0.767165,-0.64145,354.7,732.62)">
            <ellipse cx="0" cy="0" rx="6.98" ry="0.42" style="fill:rgb(114,171,157);"/>
        </g>
        <g transform="matrix(-0.673013,-0.739631,0.739631,-0.673013,368.56,735.4)">
            <ellipse cx="0" cy="0" rx="6.83" ry="0.48" style="fill:rgb(114,171,157);"/>
        </g>
        <g transform="matrix(0.868632,0.495459,-0.495459,0.868632,364.49,745.51)">
            <path d="M4.67,-0.02L4.67,0.02C4.67,0.252 4.482,0.44 4.25,0.44L-4.25,0.44C-4.482,0.44 -4.67,0.252 -4.67,0.02L-4.67,-0.02C-4.67,-0.252 -4.482,-0.44 -4.25,-0.44L4.25,-0.44C4.482,-0.44 4.67,-0.252 4.67,-0.02Z" style="fill:rgb(114,171,157);"/>
        </g>
        <path d="M489.91,831.33C480.703,830.77 471.43,831.563 462.09,833.71C463.637,819.877 464.443,806.127 464.51,792.46C464.511,792.134 464.754,791.853 465.08,791.8C472.887,790.593 480.547,788.53 488.06,785.61C488.125,785.585 488.194,785.572 488.263,785.572C488.553,785.572 488.798,785.793 488.83,786.08C490.44,801.39 491.33,814.59 489.91,831.33Z" style="fill:white;fill-rule:nonzero;"/>
        <path d="M323.05,833.05C316.137,833.15 309.203,833.147 302.25,833.04C298.59,832.987 294.873,832.65 291.1,832.03C292.073,816.65 294.157,801.507 297.35,786.6C297.396,786.378 297.593,786.217 297.82,786.217C297.897,786.217 297.972,786.235 298.04,786.27C307.567,791.03 317.517,794.073 327.89,795.4C327.9,795.401 327.909,795.403 327.919,795.405C328.248,795.467 328.468,795.784 328.407,796.108C328.405,796.118 328.403,796.129 328.4,796.14C325.507,807.96 323.723,820.263 323.05,833.05Z" style="fill:white;fill-rule:nonzero;"/>
    </g>
</svg>
