<?xml version="1.0" encoding="UTF-8" standalone="no"?>
<!DOCTYPE svg PUBLIC "-//W3C//DTD SVG 1.1//EN" "http://www.w3.org/Graphics/SVG/1.1/DTD/svg11.dtd">
<svg width="100%" height="100%" viewBox="0 0 218 363" version="1.1" xmlns="http://www.w3.org/2000/svg" xmlns:xlink="http://www.w3.org/1999/xlink" xml:space="preserve" xmlns:serif="http://www.serif.com/" style="fill-rule:evenodd;clip-rule:evenodd;stroke-linejoin:round;stroke-miterlimit:2;">
    <g transform="matrix(1,0,0,1,-287.46,-54.8352)">
        <path d="M489.84,410.63C491.187,395.057 490.82,379.877 488.74,365.09C488.708,364.842 488.494,364.655 488.244,364.655C488.181,364.655 488.119,364.667 488.06,364.69C480.647,367.577 473.003,369.66 465.13,370.94C464.718,371.009 464.415,371.367 464.42,371.78C464.493,385.613 463.733,399.38 462.14,413.08C460.733,413.5 459.283,413.677 457.79,413.61C460.157,391.863 460.757,369.967 459.59,347.92C459.547,347.107 460.022,346.351 460.77,346.04L461.21,345.85C461.29,345.816 461.373,345.79 461.458,345.77C462.276,345.583 463.105,346.106 463.293,346.93C463.313,347.015 463.325,347.102 463.33,347.19L464.26,365.58C464.261,365.595 464.262,365.61 464.264,365.626C464.321,366.127 464.776,366.493 465.272,366.437C465.288,366.435 465.304,366.433 465.32,366.43C475.573,364.697 485.253,361.66 494.36,357.32C494.942,357.041 495.279,356.408 495.19,355.76C493.38,343.25 491.08,331.95 486.43,319.82C482.037,308.327 474.7,299.587 464.42,293.6C464.109,293.424 463.715,293.501 463.5,293.78L462.5,295.05C462.301,295.302 461.997,295.449 461.676,295.449C461.256,295.449 460.875,295.197 460.71,294.81L460.07,293.28C459.993,293.086 459.805,292.957 459.596,292.957C459.341,292.957 459.123,293.148 459.09,293.4C458.263,298.287 457.233,303.317 456,308.49C454.873,313.237 452.773,317.65 449.7,321.73C449.254,322.322 448.458,322.538 447.78,322.25L447.37,322.08C446.826,321.854 446.469,321.32 446.469,320.731C446.469,320.422 446.567,320.12 446.75,319.87C449.29,316.397 450.753,312.517 451.14,308.23C451.141,308.218 451.142,308.207 451.142,308.195C451.142,307.992 450.975,307.825 450.772,307.825C450.612,307.825 450.47,307.928 450.42,308.08L447.71,316.04C447.399,316.934 446.444,317.449 445.52,317.22L445.45,317.2C444.756,317.024 444.266,316.394 444.266,315.678C444.266,315.505 444.294,315.334 444.35,315.17C445.763,311.063 446.573,306.623 446.78,301.85C446.787,301.753 446.719,301.664 446.62,301.64L446.36,301.58C446.356,301.579 446.352,301.578 446.348,301.577C446.068,301.52 445.79,301.707 445.732,301.992C445.731,301.995 445.731,301.997 445.73,302C445.07,305.91 444.43,309.38 441.7,312.11C441.638,312.172 441.57,312.229 441.497,312.279C440.882,312.701 440.049,312.573 439.651,311.994C439.603,311.924 439.562,311.849 439.53,311.77C439.23,311.05 441.79,305.83 441.95,304C442.437,298.687 442.38,294.683 441.78,291.99C441.22,289.423 440.753,287.163 440.38,285.21C440.331,284.98 440.126,284.814 439.891,284.814C439.69,284.814 439.508,284.935 439.43,285.12C436.59,292.38 431.64,297.66 424.46,301.38C411.573,308.073 398.35,308.277 384.79,301.99C384.749,301.969 384.704,301.958 384.658,301.958C384.499,301.958 384.368,302.089 384.368,302.248C384.368,302.294 384.379,302.339 384.4,302.38C385.927,305.66 387.77,308.713 389.93,311.54C390.87,312.767 392.727,313.44 395.5,313.56C396.284,313.591 396.911,314.245 396.911,315.029C396.911,315.182 396.887,315.334 396.84,315.48L396.77,315.7C396.431,316.774 395.35,317.451 394.23,317.29C388.82,316.49 383.8,312.42 379.63,308.56C379.56,308.496 379.469,308.461 379.374,308.461C379.166,308.461 378.994,308.632 378.994,308.841C378.994,308.878 378.999,308.915 379.01,308.95C379.237,309.677 379.567,310.37 380,311.03C383.093,315.75 384.96,318.633 385.6,319.68C386.107,320.513 385.89,321.38 384.95,322.28C384.4,322.806 383.519,322.797 382.98,322.26L380.01,319.29C379.915,319.203 379.773,319.186 379.66,319.25L379.38,319.41C379.367,319.417 379.355,319.426 379.343,319.435C379.194,319.547 379.167,319.766 379.283,319.919C379.292,319.93 379.301,319.94 379.31,319.95C380.057,320.717 380.637,321.583 381.05,322.55C381.26,323.035 381.106,323.606 380.68,323.92C378.19,325.76 377.08,325.13 374.56,324.79C374.521,324.783 374.482,324.779 374.443,324.779C374.086,324.779 373.793,325.073 373.793,325.429C373.793,325.702 373.964,325.947 374.22,326.04L378.55,327.84C379.106,328.07 379.47,328.615 379.47,329.217C379.47,329.642 379.288,330.047 378.97,330.33L378.58,330.68C377.833,331.354 376.697,331.392 375.9,330.77L373.94,329.24C373.615,328.981 373.163,328.949 372.81,329.16L370.19,330.67C369.631,330.993 368.956,331.059 368.34,330.85C359.06,327.68 350.78,319.75 343.79,311.72C338.677,305.847 333.93,298.993 329.55,291.16C329.548,291.157 329.547,291.154 329.545,291.151C329.359,290.828 328.936,290.717 328.608,290.905C328.605,290.907 328.603,290.908 328.6,290.91C322.08,294.8 316.23,302.59 312.41,309.02C303.61,323.853 297.173,339.877 293.1,357.09C292.963,357.656 293.221,358.249 293.73,358.54C305.55,365.213 318.323,369.34 332.05,370.92C332.839,371.017 333.582,370.495 333.76,369.72L339.58,344.29C339.813,343.267 340.831,342.606 341.86,342.81L341.96,342.83C341.974,342.833 341.988,342.835 342.002,342.838C342.974,343.043 343.604,344.016 343.398,344.993C343.396,345.005 343.393,345.018 343.39,345.03C341.343,353.937 339.343,363.043 337.39,372.35C337.158,373.438 336.214,374.274 335.04,374.43C332.11,374.82 332.52,376.86 332.05,379.02C329.657,389.893 328.13,400.917 327.47,412.09C326.07,412.523 324.59,412.533 323.03,412.12C323.637,399.62 325.39,387.433 328.29,375.56C328.293,375.55 328.295,375.539 328.297,375.528C328.358,375.2 328.134,374.877 327.8,374.815C327.79,374.813 327.78,374.811 327.77,374.81C317.457,373.41 307.63,370.377 298.29,365.71C298.227,365.679 298.158,365.663 298.088,365.663C297.875,365.663 297.688,365.812 297.64,366.02C294.287,380.94 292.123,396 291.15,411.2C289.923,411.667 288.87,411.677 287.99,411.23C287.665,411.065 287.459,410.731 287.46,410.37C287.467,406.803 287.92,401.2 288.82,393.56C290,383.513 291.657,373.957 293.79,364.89C293.994,364.039 293.588,363.15 292.81,362.74C290.79,361.69 288.45,360.46 289.06,357.6C293.113,338.527 300.233,320.81 310.42,304.45C312,301.91 314.78,298.32 316.68,296.41C316.914,296.177 316.956,295.81 316.78,295.53C316.693,295.39 316.007,294.773 314.72,293.68C308.17,288.12 307.74,276.65 308.19,268.86C308.56,262.31 306.79,253.11 304.11,247.63C300.157,239.537 297.913,234.863 297.38,233.61C291.26,219.217 288.667,204.013 289.6,188C290.75,168.02 291.71,151.68 294.11,136.07C294.817,131.47 295.47,128.1 296.07,125.96C299.563,113.493 304.353,102.723 310.44,93.65C315.9,85.497 323.477,77.663 333.17,70.15C344.01,61.75 355.4,57.167 367.34,56.4C367.823,56.367 368.3,56.249 368.75,56.05C372.3,54.44 378.64,54.15 382.07,56.92C383.603,58.153 384.563,59.213 384.95,60.1C386.29,63.2 386.99,65.89 389.71,66.68C390.076,66.789 390.472,66.598 390.62,66.24C391.16,64.95 391.12,62.05 392.56,60.43C396.2,56.3 403.5,56.48 408.14,57.86C419.35,61.21 428.18,69.16 435.48,78.26C450.813,97.353 461.263,118.66 466.83,142.18C466.937,142.62 467.49,143.337 468.49,144.33C473.06,148.83 473.61,155.43 473.67,161.57C473.677,162.148 473.744,162.725 473.87,163.29C477.343,178.65 479.213,194.387 479.48,210.5C479.62,218.95 478.8,231.63 479.99,241.17C481.73,255.103 485.077,268.92 490.03,282.62C491.66,287.14 494.07,291.73 496.81,295.29C498.537,297.53 500.76,298.88 503.48,299.34C504.126,299.451 504.602,300.016 504.602,300.671C504.602,300.958 504.51,301.238 504.34,301.47L504.14,301.72C503.313,302.753 501.892,303.118 500.67,302.61L491.8,298.92C491.71,298.883 491.613,298.864 491.516,298.864C491.104,298.864 490.766,299.203 490.766,299.614C490.766,299.663 490.77,299.712 490.78,299.76C491.33,302.54 494.57,304.53 497.06,306C497.561,306.297 497.87,306.838 497.87,307.42C497.87,307.777 497.754,308.124 497.54,308.41L497.31,308.74C496.93,309.281 496.219,309.486 495.61,309.23L489.17,306.55C488.808,306.402 488.393,306.464 488.09,306.71C487.437,307.25 486.513,307.543 485.32,307.59C485.111,307.596 484.942,307.77 484.942,307.98C484.942,308.058 484.966,308.135 485.01,308.2C486.943,311.053 488.597,314.25 489.97,317.79C494.43,329.303 497.483,341.483 499.13,354.33C499.55,357.6 500.15,358.81 497.48,360.5C497.107,360.74 495.68,361.487 493.2,362.74C492.802,362.944 492.571,363.376 492.62,363.82C493.487,371.307 494.123,378.49 494.53,385.37C494.99,393.01 494.723,401.343 493.73,410.37C493.694,410.672 493.481,410.924 493.19,411.01C491.883,411.377 490.767,411.25 489.84,410.63ZM376.247,58.487C376.129,58.824 377.144,59.49 378.495,59.964C379.847,60.437 381.055,60.549 381.173,60.213C381.173,60.213 381.173,60.213 381.173,60.213C381.291,59.876 380.276,59.21 378.925,58.737C377.573,58.263 376.365,58.151 376.247,58.487C376.247,58.487 376.247,58.487 376.247,58.487ZM351.54,65.13C352.067,64.93 352.353,64.813 352.4,64.78C352.43,64.758 352.454,64.728 352.469,64.694C352.518,64.584 352.463,64.451 352.348,64.4C352.314,64.385 352.277,64.378 352.24,64.38C351.727,64.4 351.39,64.497 351.23,64.67C351.188,64.722 351.165,64.786 351.165,64.853C351.165,65.012 351.296,65.143 351.455,65.143C351.484,65.143 351.513,65.138 351.54,65.13ZM423.43,75.07C418.66,69.57 410.01,63.77 402.38,64.19C402.214,64.2 402.08,64.334 402.07,64.5L402.07,64.51C402.07,64.695 402.216,64.849 402.4,64.86C411.54,65.58 416.43,70.03 423.26,75.25C423.283,75.272 423.313,75.284 423.345,75.284C423.413,75.284 423.469,75.228 423.469,75.16C423.469,75.126 423.455,75.093 423.43,75.07ZM350.55,65.147C350.504,65.058 350.411,65.002 350.311,65.002C350.267,65.002 350.224,65.013 350.186,65.033L338.534,71.151C338.403,71.22 338.352,71.384 338.42,71.515L338.43,71.533C338.476,71.622 338.569,71.678 338.669,71.678C338.713,71.678 338.756,71.667 338.794,71.647L350.446,65.529C350.577,65.46 350.628,65.296 350.56,65.165L350.55,65.147ZM369.628,66.043C369.628,66.043 369.628,66.043 369.628,66.043C369.529,66.437 369.999,66.899 370.67,67.068C371.34,67.236 371.973,67.051 372.072,66.657C372.072,66.657 372.072,66.657 372.072,66.657C372.171,66.263 371.701,65.801 371.03,65.632C370.36,65.464 369.727,65.649 369.628,66.043ZM395.83,68.73C396.063,68.697 396.193,68.593 396.22,68.42C396.238,68.308 396.162,68.2 396.05,68.18C395.89,68.14 395.757,68.157 395.65,68.23C395.567,68.278 395.515,68.367 395.515,68.464C395.515,68.612 395.637,68.734 395.785,68.734C395.8,68.734 395.815,68.732 395.83,68.73ZM338.8,77.57C335.1,80.13 331,83.3 328.66,86.92C328.643,86.941 328.634,86.968 328.634,86.995C328.634,87.061 328.689,87.116 328.755,87.116C328.792,87.116 328.827,87.099 328.85,87.07C332.723,83.35 336.203,80.42 339.29,78.28C342.377,76.14 346.343,73.91 351.19,71.59C351.239,71.573 351.272,71.527 351.272,71.475C351.272,71.408 351.217,71.353 351.15,71.353C351.136,71.353 351.123,71.356 351.11,71.36C346.9,72.28 342.5,75.01 338.8,77.57ZM388.99,75.76L390.44,78.61C390.562,78.848 390.611,79.116 390.58,79.38C390.18,82.767 388.303,85.2 384.95,86.68C383.11,87.51 380.51,87.01 378.71,88.24C375.083,90.747 369.98,95.107 363.4,101.32C362.127,102.54 361.08,102.493 360.26,101.18C360.253,101.169 360.245,101.158 360.238,101.148C360.039,100.879 359.657,100.818 359.392,101.014C359.381,101.022 359.371,101.031 359.36,101.04C334.49,122.26 325.24,154.07 322.07,185.31C321.84,187.62 321.3,189.06 319.56,190.29C318.932,190.736 318.081,190.715 317.48,190.24C313.97,187.46 310.72,185.06 306.17,187.64C298.66,191.92 299.26,201.9 303.15,208.55C305.497,212.543 308.897,215.58 313.35,217.66C313.641,217.797 313.99,217.723 314.2,217.48C314.367,217.3 314.743,216.793 315.33,215.96C318.41,211.58 323.85,212.3 327.28,216.08C327.617,216.455 328.111,216.648 328.61,216.6L329.09,216.56C329.571,216.514 330.042,216.723 330.33,217.11C340.83,231.41 354.653,241.313 371.8,246.82C386.86,251.65 401.69,253.52 416.07,245.89C434.09,236.33 446.01,216.94 450.39,197.36C452.91,186.16 454.07,173.68 451.74,162.33C447.66,142.43 440.41,123 427.29,107.4C427.029,107.089 426.9,106.687 426.93,106.28C426.943,106.113 426.993,105.943 427.08,105.77C427.3,105.331 427.245,104.805 426.94,104.43C423.287,99.863 419.69,96.267 416.15,93.64C412.71,91.09 406,88.35 402.88,87.08C401.867,86.667 399.82,85.237 396.74,82.79C395.56,81.85 395.223,80.32 395.73,78.2C395.841,77.752 395.64,77.281 395.24,77.05C393.393,75.99 392.843,74.743 393.59,73.31C393.61,73.272 393.627,73.233 393.641,73.193C393.821,72.698 393.567,72.145 393.077,71.966C393.036,71.951 392.993,71.939 392.95,71.93L391.66,71.64C391.657,71.639 391.654,71.639 391.651,71.638C391.044,71.512 390.44,71.913 390.313,72.525C390.312,72.53 390.311,72.535 390.31,72.54C390.137,73.413 389.747,74.163 389.14,74.79C388.892,75.047 388.832,75.436 388.99,75.76ZM417.86,79.6C420.34,81.46 422.32,83.46 424.54,84.9C424.565,84.912 424.592,84.918 424.619,84.918C424.718,84.918 424.799,84.837 424.799,84.738C424.799,84.703 424.789,84.669 424.77,84.64C422.717,82.353 420.617,80.4 418.47,78.78C416.323,77.16 413.87,75.683 411.11,74.35C411.092,74.344 411.074,74.342 411.056,74.342C410.957,74.342 410.876,74.423 410.876,74.522C410.876,74.565 410.891,74.607 410.92,74.64C412.92,76.37 415.38,77.73 417.86,79.6ZM431.3,80.05C431.259,80.013 431.207,79.993 431.152,79.993C431.031,79.993 430.932,80.092 430.932,80.213C430.932,80.263 430.949,80.311 430.98,80.35C431,80.377 431.093,80.403 431.26,80.43C431.27,80.432 431.28,80.434 431.291,80.434C431.362,80.434 431.421,80.375 431.421,80.304C431.421,80.299 431.42,80.295 431.42,80.29C431.407,80.177 431.367,80.097 431.3,80.05ZM367.758,80.318C367.758,80.318 367.758,80.318 367.758,80.318C367.641,80.132 366.561,80.604 365.366,81.362C365.366,81.362 365.366,81.362 365.366,81.362C364.171,82.121 363.284,82.897 363.402,83.082C363.402,83.082 363.402,83.082 363.402,83.082C363.519,83.268 364.599,82.796 365.794,82.038C365.794,82.038 365.794,82.038 365.794,82.038C366.989,81.279 367.876,80.503 367.758,80.318ZM384.09,82.23C384.09,81.917 383.833,81.66 383.52,81.66C383.207,81.66 382.95,81.917 382.95,82.23C382.95,82.543 383.207,82.8 383.52,82.8C383.833,82.8 384.09,82.543 384.09,82.23ZM410.318,85.736C410.402,85.557 410.324,85.341 410.145,85.257L404.078,82.415C403.899,82.331 403.683,82.409 403.599,82.588L403.582,82.624C403.498,82.803 403.576,83.019 403.755,83.103L409.823,85.945C410.001,86.029 410.217,85.951 410.301,85.772L410.318,85.736ZM378.757,83.229C378.656,83.06 377.739,83.417 376.726,84.021C375.713,84.625 374.962,85.261 375.063,85.431C375.164,85.6 376.081,85.243 377.094,84.639C378.107,84.035 378.858,83.399 378.757,83.229ZM341.51,90.56C337.777,93.467 334.757,96.327 332.45,99.14C332.403,99.197 332.378,99.269 332.378,99.342C332.378,99.485 332.473,99.611 332.61,99.65C332.663,99.657 332.75,99.603 332.87,99.49C336.103,96.43 339.207,93.743 342.18,91.43C345.16,89.11 348.533,86.763 352.3,84.39C352.44,84.303 352.51,84.23 352.51,84.17C352.498,84.003 352.358,83.872 352.191,83.872C352.146,83.872 352.101,83.882 352.06,83.9C348.76,85.44 345.243,87.66 341.51,90.56ZM418.625,90.225C418.502,90.381 419.569,91.427 420.987,92.543C422.406,93.659 423.673,94.45 423.796,94.295C423.918,94.139 422.851,93.093 421.433,91.977C420.014,90.861 418.747,90.07 418.624,90.225ZM346.03,101.98L340.34,107.74L340.54,107.94C340.541,107.941 340.542,107.942 340.543,107.943C340.722,108.12 342.034,107.086 343.447,105.653C343.448,105.652 343.449,105.651 343.45,105.65L343.98,105.11C343.981,105.109 343.982,105.108 343.982,105.108C345.396,103.674 346.411,102.349 346.232,102.172C346.231,102.171 346.03,101.98 346.03,101.98ZM306.96,120.55C305.093,125.837 303.66,130.877 302.66,135.67C302.507,136.39 302.467,137.093 302.54,137.78C302.553,137.833 302.602,137.871 302.656,137.871C302.708,137.871 302.753,137.838 302.77,137.79C304.597,131.083 306.317,125.453 307.93,120.9C309.537,116.34 311.737,110.877 314.53,104.51C314.534,104.498 314.536,104.486 314.536,104.473C314.536,104.407 314.482,104.353 314.416,104.353C314.388,104.353 314.361,104.363 314.34,104.38C313.853,104.867 313.443,105.437 313.11,106.09C310.877,110.45 308.827,115.27 306.96,120.55ZM332.084,104.125C331.924,103.983 330.544,105.282 329.027,107.002C327.511,108.722 326.395,110.254 326.556,110.396C326.716,110.537 328.096,109.238 329.613,107.518C331.129,105.798 332.245,104.266 332.084,104.125ZM313.14,138.74L319.79,117.38C319.795,117.365 319.797,117.349 319.797,117.334C319.797,117.268 319.753,117.209 319.69,117.19L319.61,117.16C318.929,116.949 316.87,121.585 315.05,127.43L314.94,127.77C313.122,133.606 312.184,138.585 312.86,138.81L312.95,138.84C312.965,138.845 312.981,138.847 312.996,138.847C313.062,138.847 313.121,138.803 313.14,138.74ZM328.875,127.839C328.901,127.786 328.915,127.727 328.915,127.667C328.915,127.519 328.83,127.383 328.696,127.317L328.661,127.3C328.468,127.205 328.233,127.286 328.139,127.478L323.405,137.141C323.379,137.194 323.365,137.253 323.365,137.313C323.365,137.461 323.45,137.597 323.584,137.663L323.62,137.68C323.812,137.775 324.047,137.694 324.141,137.502L328.875,127.839ZM461.87,140.03C462.057,139.97 462.077,139.72 461.93,139.28C460.963,136.467 460.41,135.08 460.27,135.12C460.143,135.16 460.493,136.61 461.32,139.47C461.447,139.917 461.63,140.103 461.87,140.03ZM457.281,140.477C457.142,140.267 456.828,140.226 456.585,140.387C456.343,140.548 456.259,140.853 456.399,141.063C456.538,141.273 456.852,141.314 457.095,141.153C457.337,140.992 457.421,140.687 457.281,140.477ZM323.88,143.33L323.45,148.09C323.45,148.093 323.45,148.097 323.45,148.1C323.45,148.168 323.502,148.225 323.57,148.23L323.64,148.24C324.25,148.287 324.845,147.269 324.96,145.98L324.99,145.68C325.105,144.389 324.7,143.28 324.09,143.22L324.02,143.21C324.017,143.21 324.013,143.21 324.01,143.21C323.942,143.21 323.885,143.262 323.88,143.33ZM458.67,173.56C460.71,172.46 462.643,172.353 464.47,173.24C464.883,173.438 465.382,173.295 465.62,172.91C469.78,166.157 470.773,159.09 468.6,151.71C466.37,144.13 458.37,142.54 453.75,149.41C453.376,149.965 453.276,150.662 453.48,151.3C455.68,158.293 457.12,165.557 457.8,173.09C457.825,173.394 458.083,173.632 458.388,173.632C458.487,173.632 458.583,173.607 458.67,173.56ZM296.41,160.17L295.67,188.12C295.67,188.125 295.675,188.13 295.68,188.13L295.8,188.14C295.801,188.14 295.801,188.14 295.802,188.14C296.29,188.153 296.704,187.676 296.72,187.084C296.72,187.082 296.72,187.081 296.72,187.08L297.4,161.27C297.4,161.268 297.4,161.265 297.4,161.263C297.416,160.671 297.028,160.174 296.54,160.16L296.42,160.16C296.415,160.16 296.41,160.165 296.41,160.17ZM305.949,167.83C305.952,167.806 305.953,167.783 305.953,167.76C305.953,167.468 305.733,167.219 305.443,167.184L305.383,167.177C305.36,167.174 305.337,167.173 305.314,167.173C305.022,167.173 304.773,167.393 304.738,167.683L302.871,183.11C302.868,183.134 302.867,183.157 302.867,183.18C302.867,183.472 303.087,183.721 303.377,183.756L303.437,183.763C303.46,183.766 303.483,183.767 303.506,183.767C303.798,183.767 304.047,183.547 304.082,183.257L305.949,167.83ZM465.58,180.26C465.58,178.038 463.752,176.21 461.53,176.21C459.308,176.21 457.48,178.038 457.48,180.26C457.48,182.482 459.308,184.31 461.53,184.31C463.752,184.31 465.58,182.482 465.58,180.26ZM310.827,181.352C310.57,180.943 309.9,180.895 309.342,181.245C309.342,181.245 309.342,181.245 309.342,181.245C308.785,181.594 308.537,182.219 308.793,182.628C308.793,182.628 308.793,182.628 308.794,182.628C309.05,183.037 309.72,183.085 310.278,182.735C310.278,182.735 310.278,182.735 310.278,182.735C310.835,182.386 311.083,181.761 310.827,181.352C310.827,181.352 310.827,181.352 310.826,181.352ZM315.903,181.331C315.371,181.352 314.959,182.04 314.991,182.857C314.991,182.857 314.991,182.857 314.991,182.857C315.022,183.674 315.485,184.329 316.017,184.309C316.017,184.309 316.017,184.309 316.017,184.309C316.549,184.288 316.961,183.6 316.929,182.783C316.929,182.783 316.929,182.783 316.929,182.783C316.898,181.966 316.435,181.311 315.903,181.331C315.903,181.331 315.903,181.331 315.903,181.331ZM467.83,186.35C467.93,186.19 467.933,185.907 467.84,185.5C467.832,185.462 467.814,185.427 467.79,185.397C467.702,185.291 467.54,185.28 467.43,185.371C467.401,185.395 467.377,185.426 467.36,185.46C467.26,185.68 467.25,185.95 467.33,186.27C467.339,186.303 467.355,186.335 467.375,186.363C467.466,186.487 467.639,186.517 467.758,186.43C467.787,186.408 467.812,186.381 467.83,186.35ZM473.004,186.584C472.697,186.604 472.782,191.828 473.191,198.156C473.6,204.484 474.189,209.675 474.496,209.656C474.803,209.636 474.718,204.412 474.309,198.084C473.9,191.756 473.311,186.565 473.004,186.584ZM325.41,220.99C325.41,218.604 323.446,216.64 321.06,216.64C318.674,216.64 316.71,218.604 316.71,220.99C316.71,223.376 318.674,225.34 321.06,225.34C323.446,225.34 325.41,223.376 325.41,220.99ZM305.12,217.55C305.073,217.463 304.89,217.303 304.57,217.07C304.534,217.041 304.49,217.025 304.444,217.025C304.334,217.025 304.244,217.115 304.244,217.225C304.244,217.266 304.256,217.306 304.28,217.34C304.447,217.6 304.613,217.777 304.78,217.87C304.819,217.896 304.865,217.909 304.912,217.909C305.044,217.909 305.152,217.801 305.152,217.669C305.152,217.628 305.141,217.586 305.12,217.55ZM474.852,217.839C474.852,217.582 474.64,217.37 474.382,217.37C474.382,217.37 474.361,217.37 474.361,217.37C474.104,217.37 473.892,217.583 473.892,217.841L473.908,226.721C473.908,226.978 474.12,227.19 474.378,227.19C474.378,227.19 474.399,227.19 474.399,227.19C474.656,227.19 474.868,226.977 474.868,226.719L474.852,217.839ZM298.185,221.373C297.951,221.467 298.984,224.608 300.473,228.331C301.962,232.054 303.38,235.041 303.615,234.947C303.849,234.853 302.816,231.712 301.327,227.989C299.838,224.266 298.42,221.279 298.185,221.373ZM454.267,224.352C453.966,224.339 453.462,230.436 453.151,237.857C452.839,245.278 452.832,251.395 453.133,251.408C453.434,251.421 453.938,245.324 454.25,237.903C454.561,230.482 454.568,224.365 454.267,224.352ZM442.95,227.56C442.963,227.484 442.951,227.407 442.916,227.339C442.825,227.163 442.602,227.096 442.422,227.189C442.352,227.225 442.296,227.281 442.26,227.35C442.12,227.59 442.087,227.86 442.16,228.16C442.169,228.201 442.186,228.24 442.212,228.273C442.31,228.405 442.503,228.43 442.64,228.328C442.672,228.304 442.699,228.274 442.72,228.24C442.853,228.02 442.93,227.793 442.95,227.56ZM317.239,228.456C317.073,228.638 317.279,229.101 317.697,229.482C318.114,229.863 318.594,230.027 318.761,229.845C318.927,229.662 318.721,229.199 318.303,228.818C317.886,228.437 317.406,228.273 317.239,228.456ZM309.202,229.151C309.038,229.271 309.25,229.843 309.671,230.419C309.671,230.419 309.671,230.419 309.671,230.419C310.093,230.994 310.574,231.369 310.738,231.249C310.738,231.249 310.738,231.249 310.738,231.249C310.902,231.129 310.69,230.557 310.269,229.982C310.269,229.981 310.269,229.981 310.269,229.981C309.847,229.406 309.366,229.031 309.202,229.151C309.202,229.151 309.202,229.151 309.202,229.151ZM462.924,230.874C462.667,230.867 462.331,235.034 462.18,240.106C462.03,245.178 462.118,249.358 462.376,249.366C462.376,249.366 462.376,249.366 462.376,249.366C462.633,249.373 462.969,245.206 463.12,240.134C463.27,235.062 463.182,230.882 462.924,230.874C462.924,230.874 462.924,230.874 462.924,230.874ZM472.11,259.19C473.33,264.637 474.863,269.297 476.71,273.17C476.774,273.3 476.906,273.382 477.051,273.382C477.157,273.382 477.258,273.338 477.33,273.26C477.37,273.207 477.36,273.087 477.3,272.9C475.653,267.913 474.34,263.25 473.36,258.91C472.387,254.563 471.58,249.783 470.94,244.57C470.907,244.377 470.863,244.267 470.81,244.24C470.765,244.222 470.718,244.213 470.67,244.213C470.466,244.213 470.297,244.377 470.29,244.58C470.277,248.873 470.883,253.743 472.11,259.19ZM338.316,244.542C338.316,244.542 338.316,244.542 338.316,244.542C338.203,244.621 338.618,245.415 339.235,246.303C339.235,246.303 339.235,246.303 339.235,246.303C339.851,247.19 340.452,247.856 340.564,247.778C340.564,247.778 340.564,247.778 340.564,247.778C340.677,247.699 340.262,246.905 339.645,246.017C339.645,246.017 339.645,246.017 339.645,246.017C339.029,245.13 338.428,244.464 338.316,244.542ZM381.12,254.57C382.12,262.39 381.31,272.92 373.26,276.77C372.998,276.892 372.874,277.201 372.98,277.47L379.72,293.61C379.773,293.729 379.84,293.84 379.92,293.94C380.56,294.753 381.78,295.633 383.58,296.58C396.56,303.433 409.64,303.617 422.82,297.13C429.167,294.003 433.443,289.167 435.65,282.62C435.834,282.076 435.585,281.474 435.07,281.22C431.183,279.3 428.743,276.193 427.75,271.9C425.923,263.973 424.747,255.777 424.22,247.31C424.216,247.259 424.206,247.208 424.189,247.16C424.083,246.848 423.744,246.678 423.437,246.782C423.389,246.798 423.343,246.821 423.3,246.85C410.627,255.483 396.727,257.917 381.6,254.15C381.577,254.144 381.554,254.141 381.531,254.139C381.317,254.126 381.13,254.285 381.117,254.493C381.115,254.519 381.116,254.545 381.12,254.57ZM437.41,263.5L436.97,247.93L436.81,247.93C436.386,247.98 436.134,251.413 436.25,255.56L436.26,255.92C436.376,260.086 436.823,263.51 437.25,263.51L437.41,263.5ZM358.471,256.483C358.471,256.483 358.47,256.483 358.47,256.483C358.309,256.615 358.51,257.133 358.915,257.63C358.915,257.63 358.916,257.63 358.916,257.63C359.321,258.128 359.788,258.428 359.949,258.297C359.949,258.297 359.95,258.297 359.95,258.297C360.111,258.165 359.91,257.647 359.505,257.15C359.505,257.15 359.504,257.15 359.504,257.15C359.099,256.652 358.632,256.352 358.471,256.483ZM452.454,258.378C452.425,258.072 452.15,257.844 451.844,257.873L451.804,257.877C451.498,257.906 451.27,258.181 451.299,258.487L453.106,277.602C453.135,277.908 453.41,278.136 453.716,278.107L453.756,278.103C454.062,278.074 454.29,277.799 454.261,277.493L452.454,258.378ZM326.33,267.54C327.03,268.873 327.447,269.503 327.58,269.43C327.713,269.357 327.43,268.653 326.73,267.32C326.03,265.987 325.613,265.357 325.48,265.43C325.34,265.497 325.623,266.2 326.33,267.54ZM312.61,279.88C313,282.07 314.2,286.47 316.09,288.52C316.153,288.591 316.243,288.632 316.337,288.632C316.518,288.632 316.667,288.483 316.667,288.302C316.667,288.256 316.658,288.212 316.64,288.17C315.54,285.37 314.4,282.41 313.91,279.65C313.42,276.89 313.48,273.72 313.55,270.71C313.55,270.704 313.551,270.698 313.551,270.692C313.551,270.511 313.402,270.362 313.221,270.362C313.082,270.362 312.957,270.449 312.91,270.58C311.84,273.15 312.22,277.7 312.61,279.88ZM321.552,270.415C321.441,270.513 321.475,270.736 321.628,270.909C321.78,271.081 321.997,271.143 322.108,271.045C322.108,271.045 322.108,271.045 322.108,271.045C322.219,270.947 322.185,270.724 322.033,270.551C321.88,270.379 321.663,270.317 321.552,270.415C321.552,270.415 321.552,270.415 321.552,270.415ZM349.404,273.69C349.33,273.465 349.119,273.312 348.882,273.312C348.824,273.312 348.766,273.321 348.71,273.339L348.672,273.352C348.447,273.426 348.294,273.637 348.294,273.874C348.294,273.933 348.303,273.991 348.321,274.046L349.796,278.53C349.87,278.755 350.081,278.908 350.318,278.908C350.376,278.908 350.434,278.899 350.49,278.881L350.528,278.868C350.753,278.794 350.906,278.583 350.906,278.346C350.906,278.287 350.897,278.229 350.879,278.174L349.404,273.69ZM336.903,273.732C336.815,273.581 336.654,273.489 336.48,273.489C336.393,273.489 336.307,273.512 336.232,273.556L336.215,273.566C336.065,273.653 335.972,273.815 335.972,273.989C335.972,274.076 335.995,274.161 336.039,274.236L340.277,281.489C340.365,281.639 340.526,281.731 340.7,281.731C340.787,281.731 340.873,281.708 340.948,281.664L340.965,281.654C341.115,281.567 341.208,281.405 341.208,281.231C341.208,281.144 341.185,281.059 341.141,280.984L336.903,273.732ZM324.04,286.47L324.89,286.02C324.967,285.981 325.015,285.901 325.015,285.815C325.015,285.779 325.007,285.743 324.99,285.71L323.3,282.56C322.902,281.815 322.356,281.319 322.09,281.46L321.81,281.61C321.81,281.61 321.809,281.61 321.809,281.611C321.543,281.753 321.651,282.483 322.049,283.228C322.049,283.229 322.05,283.229 322.05,283.23L323.73,286.38C323.791,286.489 323.93,286.529 324.04,286.47ZM351.395,282.159C351.195,282.219 351.516,283.876 352.106,285.83C352.106,285.83 352.106,285.83 352.106,285.83C352.696,287.783 353.346,289.341 353.545,289.281C353.545,289.281 353.545,289.281 353.545,289.281C353.745,289.221 353.424,287.564 352.834,285.61C352.834,285.61 352.834,285.61 352.834,285.61C352.244,283.657 351.594,282.099 351.395,282.159C351.395,282.159 351.395,282.159 351.395,282.159ZM346.79,290.718C346.74,290.643 346.655,290.597 346.565,290.597C346.512,290.597 346.46,290.613 346.416,290.642L346.166,290.808C346.091,290.858 346.045,290.943 346.045,291.033C346.045,291.086 346.061,291.138 346.09,291.183L355.83,305.842C355.88,305.917 355.965,305.963 356.055,305.963C356.108,305.963 356.16,305.947 356.204,305.918L356.454,305.752C356.529,305.702 356.575,305.617 356.575,305.527C356.575,305.474 356.559,305.422 356.53,305.377L346.79,290.718ZM375.759,297.47C375.759,297.47 375.759,297.47 375.759,297.47C375.575,297.6 376.449,299.16 377.695,300.926C377.695,300.926 377.695,300.926 377.695,300.926C378.941,302.692 380.117,304.039 380.301,303.91C380.301,303.91 380.301,303.91 380.301,303.91C380.485,303.78 379.611,302.22 378.365,300.454C378.365,300.454 378.365,300.454 378.365,300.454C377.119,298.688 375.943,297.341 375.759,297.47ZM485.17,300.28C486.443,301.82 487.203,302.487 487.45,302.28C487.69,302.087 487.173,301.217 485.9,299.67C484.627,298.13 483.867,297.463 483.62,297.67C483.38,297.863 483.897,298.733 485.17,300.28ZM480.993,301.592C480.801,301.755 481.236,302.592 481.959,303.447C482.681,304.302 483.434,304.871 483.627,304.708C483.819,304.545 483.384,303.708 482.661,302.853C481.939,301.998 481.186,301.429 480.993,301.592ZM350.442,306.343C350.345,306.23 350.174,306.217 350.061,306.313L349.924,306.43C349.811,306.526 349.798,306.698 349.894,306.81L359.038,317.517C359.135,317.63 359.306,317.643 359.419,317.547L359.556,317.43C359.669,317.334 359.682,317.162 359.586,317.05L350.442,306.343ZM364.833,309.748C364.735,309.637 364.562,309.627 364.452,309.726L364.347,309.819C364.237,309.918 364.227,310.09 364.325,310.2L372.907,319.832C373.005,319.943 373.178,319.953 373.288,319.854L373.393,319.761C373.503,319.662 373.513,319.49 373.415,319.38L364.833,309.748ZM368.353,327.147C368.478,326.922 368.395,326.633 368.169,326.509L360.605,322.333C360.535,322.295 360.457,322.275 360.378,322.275C360.207,322.275 360.049,322.368 359.966,322.518L359.947,322.553C359.822,322.778 359.905,323.067 360.131,323.191L367.695,327.367C367.765,327.405 367.843,327.425 367.922,327.425C368.093,327.425 368.251,327.332 368.334,327.182L368.353,327.147Z" style="fill:rgb(1,1,1);fill-rule:nonzero;"/>
        <g transform="matrix(-0.943801,-0.330514,0.330514,-0.943801,378.71,59.35)">
            <ellipse cx="0" cy="0" rx="2.61" ry="0.65" style="fill:rgb(114,171,157);"/>
        </g>
        <path d="M351.23,64.67C351.39,64.497 351.727,64.4 352.24,64.38C352.277,64.378 352.314,64.385 352.348,64.4C352.463,64.451 352.518,64.584 352.469,64.694C352.454,64.728 352.43,64.758 352.4,64.78C352.353,64.813 352.067,64.93 351.54,65.13C351.513,65.138 351.484,65.143 351.455,65.143C351.296,65.143 351.165,65.012 351.165,64.853C351.165,64.786 351.188,64.722 351.23,64.67Z" style="fill:rgb(114,171,157);fill-rule:nonzero;"/>
        <path d="M423.43,75.07C423.455,75.093 423.469,75.126 423.469,75.16C423.469,75.228 423.413,75.284 423.345,75.284C423.313,75.284 423.283,75.272 423.26,75.25C416.43,70.03 411.54,65.58 402.4,64.86C402.216,64.849 402.07,64.695 402.07,64.51L402.07,64.5C402.08,64.334 402.214,64.2 402.38,64.19C410.01,63.77 418.66,69.57 423.43,75.07Z" style="fill:white;fill-rule:nonzero;"/>
        <g transform="matrix(0.885394,-0.464842,0.464842,0.885394,344.49,68.34)">
            <path d="M6.85,-0.01L6.85,0.01C6.85,0.159 6.729,0.28 6.58,0.28L-6.58,0.28C-6.729,0.28 -6.85,0.159 -6.85,0.01L-6.85,-0.01C-6.85,-0.159 -6.729,-0.28 -6.58,-0.28L6.58,-0.28C6.729,-0.28 6.85,-0.159 6.85,-0.01Z" style="fill:white;"/>
        </g>
        <g transform="matrix(-0.969872,-0.243615,0.243615,-0.969872,370.85,66.35)">
            <ellipse cx="0" cy="0" rx="1.26" ry="0.74" style="fill:rgb(114,171,157);"/>
        </g>
        <path d="M395.83,68.73C395.815,68.732 395.8,68.734 395.785,68.734C395.637,68.734 395.515,68.612 395.515,68.464C395.515,68.367 395.567,68.278 395.65,68.23C395.757,68.157 395.89,68.14 396.05,68.18C396.162,68.2 396.238,68.308 396.22,68.42C396.193,68.593 396.063,68.697 395.83,68.73Z" style="fill:rgb(114,171,157);fill-rule:nonzero;"/>
        <path d="M338.8,77.57C342.5,75.01 346.9,72.28 351.11,71.36C351.123,71.356 351.136,71.353 351.15,71.353C351.217,71.353 351.272,71.408 351.272,71.475C351.272,71.527 351.239,71.573 351.19,71.59C346.343,73.91 342.377,76.14 339.29,78.28C336.203,80.42 332.723,83.35 328.85,87.07C328.827,87.099 328.792,87.116 328.755,87.116C328.689,87.116 328.634,87.061 328.634,86.995C328.634,86.968 328.643,86.941 328.66,86.92C331,83.3 335.1,80.13 338.8,77.57Z" style="fill:white;fill-rule:nonzero;"/>
        <path d="M388.99,75.76C388.832,75.436 388.892,75.047 389.14,74.79C389.747,74.163 390.137,73.413 390.31,72.54C390.311,72.535 390.312,72.53 390.313,72.525C390.44,71.913 391.044,71.512 391.651,71.638C391.654,71.639 391.657,71.639 391.66,71.64L392.95,71.93C392.993,71.939 393.036,71.951 393.077,71.966C393.567,72.145 393.821,72.698 393.641,73.193C393.627,73.233 393.61,73.272 393.59,73.31C392.843,74.743 393.393,75.99 395.24,77.05C395.64,77.281 395.841,77.752 395.73,78.2C395.223,80.32 395.56,81.85 396.74,82.79C399.82,85.237 401.867,86.667 402.88,87.08C406,88.35 412.71,91.09 416.15,93.64C419.69,96.267 423.287,99.863 426.94,104.43C427.245,104.805 427.3,105.331 427.08,105.77C426.993,105.943 426.943,106.113 426.93,106.28C426.9,106.687 427.029,107.089 427.29,107.4C440.41,123 447.66,142.43 451.74,162.33C454.07,173.68 452.91,186.16 450.39,197.36C446.01,216.94 434.09,236.33 416.07,245.89C401.69,253.52 386.86,251.65 371.8,246.82C354.653,241.313 340.83,231.41 330.33,217.11C330.042,216.723 329.571,216.514 329.09,216.56L328.61,216.6C328.111,216.648 327.617,216.455 327.28,216.08C323.85,212.3 318.41,211.58 315.33,215.96C314.743,216.793 314.367,217.3 314.2,217.48C313.99,217.723 313.641,217.797 313.35,217.66C308.897,215.58 305.497,212.543 303.15,208.55C299.26,201.9 298.66,191.92 306.17,187.64C310.72,185.06 313.97,187.46 317.48,190.24C318.081,190.715 318.932,190.736 319.56,190.29C321.3,189.06 321.84,187.62 322.07,185.31C325.24,154.07 334.49,122.26 359.36,101.04C359.371,101.031 359.381,101.022 359.392,101.014C359.657,100.818 360.039,100.879 360.238,101.148C360.245,101.158 360.253,101.169 360.26,101.18C361.08,102.493 362.127,102.54 363.4,101.32C369.98,95.107 375.083,90.747 378.71,88.24C380.51,87.01 383.11,87.51 384.95,86.68C388.303,85.2 390.18,82.767 390.58,79.38C390.611,79.116 390.562,78.848 390.44,78.61L388.99,75.76ZM409.34,138.8C405.5,138.25 401.72,136.88 398.27,135.22C397.32,134.77 396.13,134.81 395.38,135.62C394.674,136.352 394.543,137.427 395.07,138.16C397.69,141.79 404.39,143.88 408.52,144.47C412.64,145.07 419.65,144.96 423.2,142.22C423.91,141.666 424.088,140.6 423.62,139.7C423.13,138.71 422,138.33 420.96,138.5C417.18,139.11 413.17,139.35 409.34,138.8ZM349.88,154.91C346.59,157.22 342.77,158.87 338.99,160.08C337.94,160.41 337.08,161.29 337.08,162.43C337.068,163.488 337.738,164.395 338.66,164.57C343.22,165.44 349.77,162.26 353.3,159.77C356.83,157.29 362.05,152.22 362.78,147.63C362.928,146.705 362.305,145.769 361.31,145.42C360.23,145.03 359.11,145.54 358.44,146.41C356.03,149.56 353.17,152.6 349.88,154.91ZM420.25,157.98L425.69,155.7C426.114,155.523 426.392,155.107 426.392,154.648C426.392,154.494 426.36,154.342 426.3,154.2L426.11,153.73C425.755,152.883 424.764,152.477 423.91,152.83C416.843,155.763 410,156.037 403.38,153.65C403.219,153.594 403.049,153.566 402.879,153.566C402.04,153.566 401.349,154.256 401.349,155.096C401.349,155.512 401.519,155.912 401.82,156.2C402.767,157.093 404.277,157.71 406.35,158.05C406.681,158.106 406.952,158.343 407.05,158.66C407.157,159.013 407.183,159.527 407.13,160.2C406.67,166.05 413.39,169.57 417.8,165.59C419.907,163.69 420.623,161.347 419.95,158.56C419.894,158.323 420.021,158.076 420.25,157.98ZM351.22,176.87C352.69,181.87 358.52,183.88 362.02,179.49C364.087,176.903 364.19,173.8 362.33,170.18C362.122,169.776 362.161,169.286 362.43,168.92L364.13,166.59C364.357,166.28 364.479,165.905 364.479,165.521C364.479,164.907 364.166,164.333 363.65,164L363.56,163.94C363.543,163.928 363.526,163.916 363.509,163.904C362.779,163.417 361.774,163.621 361.284,164.356C361.273,164.374 361.261,164.392 361.25,164.41L359.58,167.13C359.5,167.256 359.403,167.367 359.29,167.46C354.857,171.173 349.667,173.453 343.72,174.3C342.795,174.434 342.126,175.279 342.21,176.21L342.21,176.29C342.213,176.327 342.217,176.364 342.223,176.401C342.352,177.275 343.172,177.888 344.041,177.76C344.077,177.755 344.114,177.748 344.15,177.74L350.4,176.38C350.754,176.304 351.113,176.518 351.22,176.87ZM414.73,172.46C412.237,172.247 409.95,171.577 407.87,170.45C407.678,170.344 407.461,170.288 407.242,170.288C406.528,170.288 405.942,170.875 405.942,171.588C405.942,171.775 405.982,171.96 406.06,172.13C407.15,174.62 412.12,175.39 414.46,175.6C416.8,175.8 421.83,175.9 423.34,173.63C423.487,173.414 423.565,173.159 423.565,172.898C423.565,172.185 422.979,171.598 422.265,171.598C422.121,171.598 421.977,171.623 421.84,171.67C419.593,172.417 417.223,172.68 414.73,172.46ZM359.14,186.76C356.773,187.66 354.393,188.057 352,187.95C351.98,187.949 351.96,187.949 351.94,187.949C351.216,187.949 350.62,188.545 350.62,189.269C350.62,189.653 350.788,190.019 351.08,190.27C353.18,192.07 358.05,190.59 360.27,189.74C362.5,188.9 367.13,186.78 367.51,184.04C367.519,183.978 367.523,183.916 367.523,183.853C367.523,183.129 366.927,182.533 366.203,182.533C365.858,182.533 365.527,182.669 365.28,182.91C363.56,184.577 361.513,185.86 359.14,186.76ZM392.97,209.27C388.197,210.557 384.12,213.21 380.74,217.23C380.007,218.103 379.647,219 379.66,219.92C379.663,220.173 379.725,220.421 379.84,220.645C380.251,221.44 381.246,221.754 382.045,221.342C382.273,221.225 382.469,221.056 382.62,220.85C385.607,216.83 389.39,214.2 393.97,212.96C398.543,211.72 403.137,212.083 407.75,214.05C407.983,214.15 408.235,214.195 408.488,214.182C409.387,214.135 410.088,213.362 410.041,212.469C410.028,212.216 409.955,211.97 409.83,211.75C409.377,210.95 408.613,210.36 407.54,209.98C402.593,208.213 397.737,207.977 392.97,209.27Z" style="fill:white;fill-rule:nonzero;"/>
        <path d="M417.86,79.6C415.38,77.73 412.92,76.37 410.92,74.64C410.891,74.607 410.876,74.565 410.876,74.522C410.876,74.423 410.957,74.342 411.056,74.342C411.074,74.342 411.092,74.344 411.11,74.35C413.87,75.683 416.323,77.16 418.47,78.78C420.617,80.4 422.717,82.353 424.77,84.64C424.789,84.669 424.799,84.703 424.799,84.738C424.799,84.837 424.718,84.918 424.619,84.918C424.592,84.918 424.565,84.912 424.54,84.9C422.32,83.46 420.34,81.46 417.86,79.6Z" style="fill:white;fill-rule:nonzero;"/>
        <path d="M431.3,80.05C431.367,80.097 431.407,80.177 431.42,80.29C431.42,80.295 431.421,80.299 431.421,80.304C431.421,80.375 431.362,80.434 431.291,80.434C431.28,80.434 431.27,80.432 431.26,80.43C431.093,80.403 431,80.377 430.98,80.35C430.949,80.311 430.932,80.263 430.932,80.213C430.932,80.092 431.031,79.993 431.152,79.993C431.207,79.993 431.259,80.013 431.3,80.05Z" style="fill:rgb(114,171,157);fill-rule:nonzero;"/>
        <g transform="matrix(0.844328,-0.535827,0.535827,0.844328,365.58,81.7)">
            <ellipse cx="0" cy="0" rx="2.58" ry="0.4" style="fill:white;"/>
        </g>
        <circle cx="383.52" cy="82.23" r="0.57" style="fill:rgb(114,171,157);"/>
        <g transform="matrix(0.905569,0.424199,-0.424199,0.905569,406.95,84.18)">
            <path d="M3.71,-0.02L3.71,0.02C3.71,0.219 3.549,0.38 3.35,0.38L-3.35,0.38C-3.549,0.38 -3.71,0.219 -3.71,0.02L-3.71,-0.02C-3.71,-0.219 -3.549,-0.38 -3.35,-0.38L3.35,-0.38C3.549,-0.38 3.71,-0.219 3.71,-0.02Z" style="fill:white;"/>
        </g>
        <g transform="matrix(0.85896,-0.512043,0.512043,0.85896,376.91,84.33)">
            <ellipse cx="0" cy="0" rx="2.15" ry="0.36" style="fill:rgb(114,171,157);"/>
        </g>
        <path d="M341.51,90.56C345.243,87.66 348.76,85.44 352.06,83.9C352.101,83.882 352.146,83.872 352.191,83.872C352.358,83.872 352.498,84.003 352.51,84.17C352.51,84.23 352.44,84.303 352.3,84.39C348.533,86.763 345.16,89.11 342.18,91.43C339.207,93.743 336.103,96.43 332.87,99.49C332.75,99.603 332.663,99.657 332.61,99.65C332.473,99.611 332.378,99.485 332.378,99.342C332.378,99.269 332.403,99.197 332.45,99.14C334.757,96.327 337.777,93.467 341.51,90.56Z" style="fill:white;fill-rule:nonzero;"/>
        <g transform="matrix(-0.785857,-0.618408,0.618408,-0.785857,421.21,92.26)">
            <ellipse cx="0" cy="0" rx="3.29" ry="0.36" style="fill:white;"/>
        </g>
        <path d="M346.03,101.98C346.03,101.98 346.231,102.171 346.232,102.172C346.411,102.349 345.396,103.674 343.982,105.108C343.982,105.108 343.981,105.109 343.98,105.11L343.45,105.65C343.449,105.651 343.448,105.652 343.447,105.653C342.034,107.086 340.722,108.12 340.543,107.943C340.542,107.942 340.541,107.941 340.54,107.94L340.34,107.74L346.03,101.98Z" style="fill:white;fill-rule:nonzero;"/>
        <path d="M306.96,120.55C308.827,115.27 310.877,110.45 313.11,106.09C313.443,105.437 313.853,104.867 314.34,104.38C314.361,104.363 314.388,104.353 314.416,104.353C314.482,104.353 314.536,104.407 314.536,104.473C314.536,104.486 314.534,104.498 314.53,104.51C311.737,110.877 309.537,116.34 307.93,120.9C306.317,125.453 304.597,131.083 302.77,137.79C302.753,137.838 302.708,137.871 302.656,137.871C302.602,137.871 302.553,137.833 302.54,137.78C302.467,137.093 302.507,136.39 302.66,135.67C303.66,130.877 305.093,125.837 306.96,120.55Z" style="fill:white;fill-rule:nonzero;"/>
        <g transform="matrix(0.661312,-0.750111,0.750111,0.661312,329.32,107.26)">
            <ellipse cx="0" cy="0" rx="4.18" ry="0.39" style="fill:white;"/>
        </g>
        <path d="M313.14,138.74C313.121,138.803 313.062,138.847 312.996,138.847C312.981,138.847 312.965,138.845 312.95,138.84L312.86,138.81C312.184,138.585 313.122,133.606 314.94,127.77L315.05,127.43C316.87,121.585 318.929,116.949 319.61,117.16L319.69,117.19C319.753,117.209 319.797,117.268 319.797,117.334C319.797,117.349 319.795,117.365 319.79,117.38L313.14,138.74Z" style="fill:white;fill-rule:nonzero;"/>
        <g transform="matrix(0.898028,0.439939,-0.439939,0.898028,326.14,132.49)">
            <path d="M0.41,-5.38L0.41,5.38C0.41,5.595 0.235,5.77 0.02,5.77L-0.02,5.77C-0.235,5.77 -0.41,5.595 -0.41,5.38L-0.41,-5.38C-0.41,-5.595 -0.235,-5.77 -0.02,-5.77L0.02,-5.77C0.235,-5.77 0.41,-5.595 0.41,-5.38Z" style="fill:white;"/>
        </g>
        <path d="M409.34,138.8C413.17,139.35 417.18,139.11 420.96,138.5C422,138.33 423.13,138.71 423.62,139.7C424.088,140.6 423.91,141.666 423.2,142.22C419.65,144.96 412.64,145.07 408.52,144.47C404.39,143.88 397.69,141.79 395.07,138.16C394.543,137.427 394.674,136.352 395.38,135.62C396.13,134.81 397.32,134.77 398.27,135.22C401.72,136.88 405.5,138.25 409.34,138.8Z" style="fill:rgb(1,1,1);fill-rule:nonzero;"/>
        <path d="M461.87,140.03C461.63,140.103 461.447,139.917 461.32,139.47C460.493,136.61 460.143,135.16 460.27,135.12C460.41,135.08 460.963,136.467 461.93,139.28C462.077,139.72 462.057,139.97 461.87,140.03Z" style="fill:rgb(114,171,157);fill-rule:nonzero;"/>
        <g transform="matrix(0.832921,-0.553392,0.553392,0.832921,456.84,140.77)">
            <ellipse cx="0" cy="0" rx="0.53" ry="0.46" style="fill:rgb(114,171,157);"/>
        </g>
        <path d="M323.88,143.33C323.885,143.262 323.942,143.21 324.01,143.21C324.013,143.21 324.017,143.21 324.02,143.21L324.09,143.22C324.7,143.28 325.105,144.389 324.99,145.68L324.96,145.98C324.845,147.269 324.25,148.287 323.64,148.24L323.57,148.23C323.502,148.225 323.45,148.168 323.45,148.1C323.45,148.097 323.45,148.093 323.45,148.09L323.88,143.33Z" style="fill:white;fill-rule:nonzero;"/>
        <path d="M458.67,173.56C458.583,173.607 458.487,173.632 458.388,173.632C458.083,173.632 457.825,173.394 457.8,173.09C457.12,165.557 455.68,158.293 453.48,151.3C453.276,150.662 453.376,149.965 453.75,149.41C458.37,142.54 466.37,144.13 468.6,151.71C470.773,159.09 469.78,166.157 465.62,172.91C465.382,173.295 464.883,173.438 464.47,173.24C462.643,172.353 460.71,172.46 458.67,173.56Z" style="fill:white;fill-rule:nonzero;"/>
        <path d="M349.88,154.91C353.17,152.6 356.03,149.56 358.44,146.41C359.11,145.54 360.23,145.03 361.31,145.42C362.305,145.769 362.928,146.705 362.78,147.63C362.05,152.22 356.83,157.29 353.3,159.77C349.77,162.26 343.22,165.44 338.66,164.57C337.738,164.395 337.068,163.488 337.08,162.43C337.08,161.29 337.94,160.41 338.99,160.08C342.77,158.87 346.59,157.22 349.88,154.91Z" style="fill:rgb(1,1,1);fill-rule:nonzero;"/>
        <path d="M419.95,158.56C420.623,161.347 419.907,163.69 417.8,165.59C413.39,169.57 406.67,166.05 407.13,160.2C407.183,159.527 407.157,159.013 407.05,158.66C406.952,158.343 406.681,158.106 406.35,158.05C404.277,157.71 402.767,157.093 401.82,156.2C401.519,155.912 401.349,155.512 401.349,155.096C401.349,154.256 402.04,153.566 402.879,153.566C403.049,153.566 403.219,153.594 403.38,153.65C410,156.037 416.843,155.763 423.91,152.83C424.764,152.477 425.755,152.883 426.11,153.73L426.3,154.2C426.36,154.342 426.392,154.494 426.392,154.648C426.392,155.107 426.114,155.523 425.69,155.7L420.25,157.98C420.021,158.076 419.894,158.323 419.95,158.56ZM412.456,159.274C412.411,159.616 412.7,159.942 413.097,159.994C413.097,159.994 413.097,159.994 413.097,159.995C413.494,160.047 413.858,159.809 413.904,159.467C413.904,159.467 413.904,159.467 413.904,159.467C413.949,159.124 413.66,158.798 413.263,158.746C413.263,158.746 413.263,158.746 413.263,158.746C412.866,158.693 412.502,158.931 412.456,159.273C412.456,159.273 412.456,159.273 412.456,159.274Z" style="fill:rgb(1,1,1);fill-rule:nonzero;"/>
        <g transform="matrix(-0.991216,-0.132256,0.132256,-0.991216,413.18,159.37)">
            <ellipse cx="0" cy="0" rx="0.73" ry="0.63" style="fill:white;"/>
        </g>
        <path d="M296.41,160.17C296.41,160.165 296.415,160.16 296.42,160.16L296.54,160.16C297.028,160.174 297.416,160.671 297.4,161.263C297.4,161.265 297.4,161.268 297.4,161.27L296.72,187.08C296.72,187.081 296.72,187.082 296.72,187.084C296.704,187.676 296.29,188.153 295.802,188.14C295.801,188.14 295.801,188.14 295.8,188.14L295.68,188.13C295.675,188.13 295.67,188.125 295.67,188.12L296.41,160.17Z" style="fill:rgb(114,171,157);fill-rule:nonzero;"/>
        <path d="M350.4,176.38L344.15,177.74C344.114,177.748 344.077,177.755 344.041,177.76C343.172,177.888 342.352,177.275 342.223,176.401C342.217,176.364 342.213,176.327 342.21,176.29L342.21,176.21C342.126,175.279 342.795,174.434 343.72,174.3C349.667,173.453 354.857,171.173 359.29,167.46C359.403,167.367 359.5,167.256 359.58,167.13L361.25,164.41C361.261,164.392 361.273,164.374 361.284,164.356C361.774,163.621 362.779,163.417 363.509,163.904C363.526,163.916 363.543,163.928 363.56,163.94L363.65,164C364.166,164.333 364.479,164.907 364.479,165.521C364.479,165.905 364.357,166.28 364.13,166.59L362.43,168.92C362.161,169.286 362.122,169.776 362.33,170.18C364.19,173.8 364.087,176.903 362.02,179.49C358.52,183.88 352.69,181.87 351.22,176.87C351.113,176.518 350.754,176.304 350.4,176.38ZM357.871,173.227C357.871,173.227 357.871,173.227 357.871,173.227C357.663,173.001 357.167,173.114 356.771,173.478C356.771,173.478 356.771,173.478 356.771,173.478C356.375,173.842 356.221,174.327 356.429,174.553C356.429,174.553 356.429,174.553 356.429,174.553C356.637,174.779 357.133,174.666 357.529,174.302C357.529,174.302 357.529,174.302 357.529,174.302C357.925,173.938 358.079,173.453 357.871,173.227Z" style="fill:rgb(1,1,1);fill-rule:nonzero;"/>
        <g transform="matrix(0.992757,0.120137,-0.120137,0.992757,304.41,175.47)">
            <path d="M0.61,-7.77L0.61,7.77C0.61,8.09 0.35,8.35 0.03,8.35L-0.03,8.35C-0.35,8.35 -0.61,8.09 -0.61,7.77L-0.61,-7.77C-0.61,-8.09 -0.35,-8.35 -0.03,-8.35L0.03,-8.35C0.35,-8.35 0.61,-8.09 0.61,-7.77Z" style="fill:rgb(114,171,157);"/>
        </g>
        <path d="M414.73,172.46C417.223,172.68 419.593,172.417 421.84,171.67C421.977,171.623 422.121,171.598 422.265,171.598C422.979,171.598 423.565,172.185 423.565,172.898C423.565,173.159 423.487,173.414 423.34,173.63C421.83,175.9 416.8,175.8 414.46,175.6C412.12,175.39 407.15,174.62 406.06,172.13C405.982,171.96 405.942,171.775 405.942,171.588C405.942,170.875 406.528,170.288 407.242,170.288C407.461,170.288 407.678,170.344 407.87,170.45C409.95,171.577 412.237,172.247 414.73,172.46Z" style="fill:rgb(1,1,1);fill-rule:nonzero;"/>
        <g transform="matrix(0.736097,-0.676876,0.676876,0.736097,357.15,173.89)">
            <ellipse cx="0" cy="0" rx="0.98" ry="0.56" style="fill:white;"/>
        </g>
        <circle cx="461.53" cy="180.26" r="4.05" style="fill:white;"/>
        <g transform="matrix(0.847122,-0.531399,0.531399,0.847122,309.81,181.99)">
            <ellipse cx="0" cy="0" rx="1.2" ry="0.88" style="fill:rgb(114,171,157);"/>
        </g>
        <g transform="matrix(-0.0383878,-0.999263,0.999263,-0.0383878,315.96,182.82)">
            <ellipse cx="0" cy="0" rx="1.49" ry="0.97" style="fill:rgb(114,171,157);"/>
        </g>
        <path d="M359.14,186.76C361.513,185.86 363.56,184.577 365.28,182.91C365.527,182.669 365.858,182.533 366.203,182.533C366.927,182.533 367.523,183.129 367.523,183.853C367.523,183.916 367.519,183.978 367.51,184.04C367.13,186.78 362.5,188.9 360.27,189.74C358.05,190.59 353.18,192.07 351.08,190.27C350.788,190.019 350.62,189.653 350.62,189.269C350.62,188.545 351.216,187.949 351.94,187.949C351.96,187.949 351.98,187.949 352,187.95C354.393,188.057 356.773,187.66 359.14,186.76Z" style="fill:rgb(1,1,1);fill-rule:nonzero;"/>
        <path d="M467.83,186.35C467.812,186.381 467.787,186.408 467.758,186.43C467.639,186.517 467.466,186.487 467.375,186.363C467.355,186.335 467.339,186.303 467.33,186.27C467.25,185.95 467.26,185.68 467.36,185.46C467.377,185.426 467.401,185.395 467.43,185.371C467.54,185.28 467.702,185.291 467.79,185.397C467.814,185.427 467.832,185.462 467.84,185.5C467.933,185.907 467.93,186.19 467.83,186.35Z" style="fill:rgb(114,171,157);fill-rule:nonzero;"/>
        <g transform="matrix(-0.0645323,-0.997916,0.997916,-0.0645323,473.75,198.12)">
            <ellipse cx="0" cy="0" rx="11.56" ry="0.56" style="fill:rgb(114,171,157);"/>
        </g>
        <path d="M393.97,212.96C389.39,214.2 385.607,216.83 382.62,220.85C382.469,221.056 382.273,221.225 382.045,221.342C381.246,221.754 380.251,221.44 379.84,220.645C379.725,220.421 379.663,220.173 379.66,219.92C379.647,219 380.007,218.103 380.74,217.23C384.12,213.21 388.197,210.557 392.97,209.27C397.737,207.977 402.593,208.213 407.54,209.98C408.613,210.36 409.377,210.95 409.83,211.75C409.955,211.97 410.028,212.216 410.041,212.469C410.088,213.362 409.387,214.135 408.488,214.182C408.235,214.195 407.983,214.15 407.75,214.05C403.137,212.083 398.543,211.72 393.97,212.96Z" style="fill:rgb(1,1,1);fill-rule:nonzero;"/>
        <circle cx="321.06" cy="220.99" r="4.35" style="fill:white;"/>
        <path d="M304.78,217.87C304.613,217.777 304.447,217.6 304.28,217.34C304.256,217.306 304.244,217.266 304.244,217.225C304.244,217.115 304.334,217.025 304.444,217.025C304.49,217.025 304.534,217.041 304.57,217.07C304.89,217.303 305.073,217.463 305.12,217.55C305.141,217.586 305.152,217.628 305.152,217.669C305.152,217.801 305.044,217.909 304.912,217.909C304.865,217.909 304.819,217.896 304.78,217.87Z" style="fill:rgb(114,171,157);fill-rule:nonzero;"/>
        <g transform="matrix(0.999998,-0.00174533,0.00174533,0.999998,474.38,222.28)">
            <path d="M0.48,-4.44L0.48,4.44C0.48,4.699 0.269,4.91 0.01,4.91L-0.01,4.91C-0.269,4.91 -0.48,4.699 -0.48,4.44L-0.48,-4.44C-0.48,-4.699 -0.269,-4.91 -0.01,-4.91L0.01,-4.91C0.269,-4.91 0.48,-4.699 0.48,-4.44Z" style="fill:rgb(114,171,157);"/>
        </g>
        <g transform="matrix(-0.371368,-0.928486,0.928486,-0.371368,300.9,228.16)">
            <ellipse cx="0" cy="0" rx="7.31" ry="0.46" style="fill:white;"/>
        </g>
        <g transform="matrix(0.0418757,-0.999123,0.999123,0.0418757,453.7,237.88)">
            <ellipse cx="0" cy="0" rx="13.54" ry="0.55" style="fill:white;"/>
        </g>
        <path d="M442.95,227.56C442.93,227.793 442.853,228.02 442.72,228.24C442.699,228.274 442.672,228.304 442.64,228.328C442.503,228.43 442.31,228.405 442.212,228.273C442.186,228.24 442.169,228.201 442.16,228.16C442.087,227.86 442.12,227.59 442.26,227.35C442.296,227.281 442.352,227.225 442.422,227.189C442.602,227.096 442.825,227.163 442.916,227.339C442.951,227.407 442.963,227.484 442.95,227.56Z" style="fill:rgb(114,171,157);fill-rule:nonzero;"/>
        <g transform="matrix(-0.738455,-0.674302,0.674302,-0.738455,318,229.15)">
            <ellipse cx="0" cy="0" rx="1.03" ry="0.45" style="fill:white;"/>
        </g>
        <g transform="matrix(-0.590606,-0.80696,0.80696,-0.590606,309.97,230.2)">
            <ellipse cx="0" cy="0" rx="1.3" ry="0.37" style="fill:white;"/>
        </g>
        <g transform="matrix(0.0296662,-0.99956,0.99956,0.0296662,462.65,240.12)">
            <ellipse cx="0" cy="0" rx="9.25" ry="0.47" style="fill:white;"/>
        </g>
        <path d="M472.11,259.19C470.883,253.743 470.277,248.873 470.29,244.58C470.297,244.377 470.466,244.213 470.67,244.213C470.718,244.213 470.765,244.222 470.81,244.24C470.863,244.267 470.907,244.377 470.94,244.57C471.58,249.783 472.387,254.563 473.36,258.91C474.34,263.25 475.653,267.913 477.3,272.9C477.36,273.087 477.37,273.207 477.33,273.26C477.258,273.338 477.157,273.382 477.051,273.382C476.906,273.382 476.774,273.3 476.71,273.17C474.863,269.297 473.33,264.637 472.11,259.19Z" style="fill:rgb(114,171,157);fill-rule:nonzero;"/>
        <g transform="matrix(-0.570714,-0.821149,0.821149,-0.570714,339.44,246.16)">
            <ellipse cx="0" cy="0" rx="1.97" ry="0.25" style="fill:white;"/>
        </g>
        <path d="M381.12,254.57C381.116,254.545 381.115,254.519 381.117,254.493C381.13,254.285 381.317,254.126 381.531,254.139C381.554,254.141 381.577,254.144 381.6,254.15C396.727,257.917 410.627,255.483 423.3,246.85C423.343,246.821 423.389,246.798 423.437,246.782C423.744,246.678 424.083,246.848 424.189,247.16C424.206,247.208 424.216,247.259 424.22,247.31C424.747,255.777 425.923,263.973 427.75,271.9C428.743,276.193 431.183,279.3 435.07,281.22C435.585,281.474 435.834,282.076 435.65,282.62C433.443,289.167 429.167,294.003 422.82,297.13C409.64,303.617 396.56,303.433 383.58,296.58C381.78,295.633 380.56,294.753 379.92,293.94C379.84,293.84 379.773,293.729 379.72,293.61L372.98,277.47C372.874,277.201 372.998,276.892 373.26,276.77C381.31,272.92 382.12,262.39 381.12,254.57Z" style="fill:white;fill-rule:nonzero;"/>
        <path d="M437.41,263.5L437.25,263.51C436.823,263.51 436.376,260.086 436.26,255.92L436.25,255.56C436.134,251.413 436.386,247.98 436.81,247.93L436.97,247.93L437.41,263.5Z" style="fill:white;fill-rule:nonzero;"/>
        <g transform="matrix(-0.632029,-0.774944,0.774944,-0.632029,359.21,257.39)">
            <ellipse cx="0" cy="0" rx="1.17" ry="0.38" style="fill:white;"/>
        </g>
        <g transform="matrix(0.995562,-0.0941083,0.0941083,0.995562,452.78,267.99)">
            <path d="M0.58,-9.6L0.58,9.6C0.58,9.909 0.329,10.16 0.02,10.16L-0.02,10.16C-0.329,10.16 -0.58,9.909 -0.58,9.6L-0.58,-9.6C-0.58,-9.909 -0.329,-10.16 -0.02,-10.16L0.02,-10.16C0.329,-10.16 0.58,-9.909 0.58,-9.6Z" style="fill:white;"/>
        </g>
        <path d="M325.48,265.43C325.613,265.357 326.03,265.987 326.73,267.32C327.43,268.653 327.713,269.357 327.58,269.43C327.447,269.503 327.03,268.873 326.33,267.54C325.623,266.2 325.34,265.497 325.48,265.43Z" style="fill:rgb(114,171,157);fill-rule:nonzero;"/>
        <path d="M312.61,279.88C312.22,277.7 311.84,273.15 312.91,270.58C312.957,270.449 313.082,270.362 313.221,270.362C313.402,270.362 313.551,270.511 313.551,270.692C313.551,270.698 313.55,270.704 313.55,270.71C313.48,273.72 313.42,276.89 313.91,279.65C314.4,282.41 315.54,285.37 316.64,288.17C316.658,288.212 316.667,288.256 316.667,288.302C316.667,288.483 316.518,288.632 316.337,288.632C316.243,288.632 316.153,288.591 316.09,288.52C314.2,286.47 313,282.07 312.61,279.88Z" style="fill:rgb(114,171,157);fill-rule:nonzero;"/>
        <g transform="matrix(-0.661312,-0.750111,0.750111,-0.661312,321.83,270.73)">
            <ellipse cx="0" cy="0" rx="0.42" ry="0.27" style="fill:rgb(114,171,157);"/>
        </g>
        <g transform="matrix(0.949972,-0.312335,0.312335,0.949972,349.6,276.11)">
            <path d="M0.57,-2.36L0.57,2.36C0.57,2.664 0.324,2.91 0.02,2.91L-0.02,2.91C-0.324,2.91 -0.57,2.664 -0.57,2.36L-0.57,-2.36C-0.57,-2.664 -0.324,-2.91 -0.02,-2.91L0.02,-2.91C0.324,-2.91 0.57,-2.664 0.57,-2.36Z" style="fill:rgb(114,171,157);"/>
        </g>
        <g transform="matrix(0.863396,-0.504528,0.504528,0.863396,338.59,277.61)">
            <path d="M0.5,-4.2L0.5,4.2C0.5,4.47 0.28,4.69 0.01,4.69L-0.01,4.69C-0.28,4.69 -0.5,4.47 -0.5,4.2L-0.5,-4.2C-0.5,-4.47 -0.28,-4.69 -0.01,-4.69L0.01,-4.69C0.28,-4.69 0.5,-4.47 0.5,-4.2Z" style="fill:white;"/>
        </g>
        <path d="M324.04,286.47C323.93,286.529 323.791,286.489 323.73,286.38L322.05,283.23C322.05,283.229 322.049,283.229 322.049,283.228C321.651,282.483 321.543,281.753 321.809,281.611C321.809,281.61 321.81,281.61 321.81,281.61L322.09,281.46C322.356,281.319 322.902,281.815 323.3,282.56L324.99,285.71C325.007,285.743 325.015,285.779 325.015,285.815C325.015,285.901 324.967,285.981 324.89,286.02L324.04,286.47Z" style="fill:rgb(114,171,157);fill-rule:nonzero;"/>
        <g transform="matrix(-0.289032,-0.957319,0.957319,-0.289032,352.47,285.72)">
            <ellipse cx="0" cy="0" rx="3.72" ry="0.38" style="fill:rgb(114,171,157);"/>
        </g>
        <path d="M457.79,413.61C456.523,414.123 455.01,414.443 453.25,414.57C445.29,415.17 435.127,415.863 422.76,416.65C410.393,417.443 400.21,417.82 392.21,417.78C370.677,417.68 349.527,416.113 328.76,413.08C328.3,413.013 327.87,412.683 327.47,412.09C328.13,400.917 329.657,389.893 332.05,379.02C332.52,376.86 332.11,374.82 335.04,374.43C336.214,374.274 337.158,373.438 337.39,372.35C339.343,363.043 341.343,353.937 343.39,345.03C343.393,345.018 343.396,345.005 343.398,344.993C343.604,344.016 342.974,343.043 342.002,342.838C341.988,342.835 341.974,342.833 341.96,342.83L341.86,342.81C340.831,342.606 339.813,343.267 339.58,344.29L333.76,369.72C333.582,370.495 332.839,371.017 332.05,370.92C318.323,369.34 305.55,365.213 293.73,358.54C293.221,358.249 292.963,357.656 293.1,357.09C297.173,339.877 303.61,323.853 312.41,309.02C316.23,302.59 322.08,294.8 328.6,290.91C328.603,290.908 328.605,290.907 328.608,290.905C328.936,290.717 329.359,290.828 329.545,291.151C329.547,291.154 329.548,291.157 329.55,291.16C333.93,298.993 338.677,305.847 343.79,311.72C350.78,319.75 359.06,327.68 368.34,330.85C368.956,331.059 369.631,330.993 370.19,330.67L372.81,329.16C373.163,328.949 373.615,328.981 373.94,329.24L375.9,330.77C376.697,331.392 377.833,331.354 378.58,330.68L378.97,330.33C379.288,330.047 379.47,329.642 379.47,329.217C379.47,328.615 379.106,328.07 378.55,327.84L374.22,326.04C373.964,325.947 373.793,325.702 373.793,325.429C373.793,325.073 374.086,324.779 374.443,324.779C374.482,324.779 374.521,324.783 374.56,324.79C377.08,325.13 378.19,325.76 380.68,323.92C381.106,323.606 381.26,323.035 381.05,322.55C380.637,321.583 380.057,320.717 379.31,319.95C379.301,319.94 379.292,319.93 379.283,319.919C379.167,319.766 379.194,319.547 379.343,319.435C379.355,319.426 379.367,319.417 379.38,319.41L379.66,319.25C379.773,319.186 379.915,319.203 380.01,319.29L382.98,322.26C383.519,322.797 384.4,322.806 384.95,322.28C385.89,321.38 386.107,320.513 385.6,319.68C384.96,318.633 383.093,315.75 380,311.03C379.567,310.37 379.237,309.677 379.01,308.95C378.999,308.915 378.994,308.878 378.994,308.841C378.994,308.632 379.166,308.461 379.374,308.461C379.469,308.461 379.56,308.496 379.63,308.56C383.8,312.42 388.82,316.49 394.23,317.29C395.35,317.451 396.431,316.774 396.77,315.7L396.84,315.48C396.887,315.334 396.911,315.182 396.911,315.029C396.911,314.245 396.284,313.591 395.5,313.56C392.727,313.44 390.87,312.767 389.93,311.54C387.77,308.713 385.927,305.66 384.4,302.38C384.379,302.339 384.368,302.294 384.368,302.248C384.368,302.089 384.499,301.958 384.658,301.958C384.704,301.958 384.749,301.969 384.79,301.99C398.35,308.277 411.573,308.073 424.46,301.38C431.64,297.66 436.59,292.38 439.43,285.12C439.508,284.935 439.69,284.814 439.891,284.814C440.126,284.814 440.331,284.98 440.38,285.21C440.753,287.163 441.22,289.423 441.78,291.99C442.38,294.683 442.437,298.687 441.95,304C441.79,305.83 439.23,311.05 439.53,311.77C439.562,311.849 439.603,311.924 439.651,311.994C440.049,312.573 440.882,312.701 441.497,312.279C441.57,312.229 441.638,312.172 441.7,312.11C444.43,309.38 445.07,305.91 445.73,302C445.731,301.997 445.731,301.995 445.732,301.992C445.79,301.707 446.068,301.52 446.348,301.577C446.352,301.578 446.356,301.579 446.36,301.58L446.62,301.64C446.719,301.664 446.787,301.753 446.78,301.85C446.573,306.623 445.763,311.063 444.35,315.17C444.294,315.334 444.266,315.505 444.266,315.678C444.266,316.394 444.756,317.024 445.45,317.2L445.52,317.22C446.444,317.449 447.399,316.934 447.71,316.04L450.42,308.08C450.47,307.928 450.612,307.825 450.772,307.825C450.975,307.825 451.142,307.992 451.142,308.195C451.142,308.207 451.141,308.218 451.14,308.23C450.753,312.517 449.29,316.397 446.75,319.87C446.567,320.12 446.469,320.422 446.469,320.731C446.469,321.32 446.826,321.854 447.37,322.08L447.78,322.25C448.458,322.538 449.254,322.322 449.7,321.73C452.773,317.65 454.873,313.237 456,308.49C457.233,303.317 458.263,298.287 459.09,293.4C459.123,293.148 459.341,292.957 459.596,292.957C459.805,292.957 459.993,293.086 460.07,293.28L460.71,294.81C460.875,295.197 461.256,295.449 461.676,295.449C461.997,295.449 462.301,295.302 462.5,295.05L463.5,293.78C463.715,293.501 464.109,293.424 464.42,293.6C474.7,299.587 482.037,308.327 486.43,319.82C491.08,331.95 493.38,343.25 495.19,355.76C495.279,356.408 494.942,357.041 494.36,357.32C485.253,361.66 475.573,364.697 465.32,366.43C465.304,366.433 465.288,366.435 465.272,366.437C464.776,366.493 464.321,366.127 464.264,365.626C464.262,365.61 464.261,365.595 464.26,365.58L463.33,347.19C463.325,347.102 463.313,347.015 463.293,346.93C463.105,346.106 462.276,345.583 461.458,345.77C461.373,345.79 461.29,345.816 461.21,345.85L460.77,346.04C460.022,346.351 459.547,347.107 459.59,347.92C460.757,369.967 460.157,391.863 457.79,413.61Z" style="fill:rgb(114,171,157);fill-rule:nonzero;"/>
        <g transform="matrix(0.832921,-0.553392,0.553392,0.832921,351.31,298.28)">
            <path d="M0.42,-8.8L0.42,8.8C0.42,8.949 0.299,9.07 0.15,9.07L-0.15,9.07C-0.299,9.07 -0.42,8.949 -0.42,8.8L-0.42,-8.8C-0.42,-8.949 -0.299,-9.07 -0.15,-9.07L0.15,-9.07C0.299,-9.07 0.42,-8.949 0.42,-8.8Z" style="fill:rgb(114,171,157);"/>
        </g>
        <g transform="matrix(-0.576432,-0.817145,0.817145,-0.576432,378.03,300.69)">
            <ellipse cx="0" cy="0" rx="3.94" ry="0.41" style="fill:rgb(114,171,157);"/>
        </g>
        <path d="M485.17,300.28C483.897,298.733 483.38,297.863 483.62,297.67C483.867,297.463 484.627,298.13 485.9,299.67C487.173,301.217 487.69,302.087 487.45,302.28C487.203,302.487 486.443,301.82 485.17,300.28Z" style="fill:rgb(114,171,157);fill-rule:nonzero;"/>
        <g transform="matrix(-0.645458,-0.763796,0.763796,-0.645458,482.31,303.15)">
            <ellipse cx="0" cy="0" rx="2.04" ry="0.46" style="fill:rgb(114,171,157);"/>
        </g>
        <g transform="matrix(0.760406,-0.649448,0.649448,0.760406,354.74,311.93)">
            <path d="M0.36,-7.04L0.36,7.04C0.36,7.189 0.239,7.31 0.09,7.31L-0.09,7.31C-0.239,7.31 -0.36,7.189 -0.36,7.04L-0.36,-7.04C-0.36,-7.189 -0.239,-7.31 -0.09,-7.31L0.09,-7.31C0.239,-7.31 0.36,-7.189 0.36,-7.04Z" style="fill:rgb(114,171,157);"/>
        </g>
        <g transform="matrix(0.746638,-0.66523,0.66523,0.746638,368.87,314.79)">
            <path d="M0.34,-6.45L0.34,6.45C0.34,6.599 0.219,6.72 0.07,6.72L-0.07,6.72C-0.219,6.72 -0.34,6.599 -0.34,6.45L-0.34,-6.45C-0.34,-6.599 -0.219,-6.72 -0.07,-6.72L0.07,-6.72C0.219,-6.72 0.34,-6.599 0.34,-6.45Z" style="fill:rgb(114,171,157);"/>
        </g>
        <g transform="matrix(0.875465,0.483282,-0.483282,0.875465,364.15,324.85)">
            <path d="M4.79,-0.02L4.79,0.02C4.79,0.279 4.579,0.49 4.32,0.49L-4.32,0.49C-4.579,0.49 -4.79,0.279 -4.79,0.02L-4.79,-0.02C-4.79,-0.279 -4.579,-0.49 -4.32,-0.49L4.32,-0.49C4.579,-0.49 4.79,-0.279 4.79,-0.02Z" style="fill:rgb(114,171,157);"/>
        </g>
        <path d="M489.84,410.63C480.527,410.297 471.293,411.113 462.14,413.08C463.733,399.38 464.493,385.613 464.42,371.78C464.415,371.367 464.718,371.009 465.13,370.94C473.003,369.66 480.647,367.577 488.06,364.69C488.119,364.667 488.181,364.655 488.244,364.655C488.494,364.655 488.708,364.842 488.74,365.09C490.82,379.877 491.187,395.057 489.84,410.63Z" style="fill:white;fill-rule:nonzero;"/>
        <path d="M323.03,412.12C314.857,412.193 306.7,412.14 298.56,411.96C296.3,411.91 293.72,411.18 291.15,411.2C292.123,396 294.287,380.94 297.64,366.02C297.688,365.812 297.875,365.663 298.088,365.663C298.158,365.663 298.227,365.679 298.29,365.71C307.63,370.377 317.457,373.41 327.77,374.81C327.78,374.811 327.79,374.813 327.8,374.815C328.134,374.877 328.358,375.2 328.297,375.528C328.295,375.539 328.293,375.55 328.29,375.56C325.39,387.433 323.637,399.62 323.03,412.12Z" style="fill:white;fill-rule:nonzero;"/>
    </g>
</svg>
