<?xml version="1.0" encoding="UTF-8" standalone="no"?><!DOCTYPE svg PUBLIC "-//W3C//DTD SVG 1.1//EN" "http://www.w3.org/Graphics/SVG/1.1/DTD/svg11.dtd"><svg width="100%" height="100%" viewBox="0 0 2000 150" version="1.1" xmlns="http://www.w3.org/2000/svg" xmlns:xlink="http://www.w3.org/1999/xlink" xml:space="preserve" xmlns:serif="http://www.serif.com/" style="fill-rule:evenodd;clip-rule:evenodd;stroke-linecap:round;stroke-linejoin:round;stroke-miterlimit:1.5;"><g id="Cloud2.Duration:700ms.Effect:Loop"><path d="M-2.954,92.009l17.612,17.931l23.378,21.524l20.33,10.291l46.564,8.245l34.925,0l22.401,-3.749l32.997,-8.639l28.775,-12.088l32.962,-19.066l25.828,20.989l16.533,7.307l18.876,6.823l20.143,2.414l16.177,1.242l21.281,-1.672l15.75,-3.164l16.029,-4.892l13.648,-8.057l28.558,-21.246l7.061,6.713l7.06,4.336l12.493,3.905l12.129,0.539l14.457,-0.679l14.324,-0.677l14.007,-1.524l8.878,-6.083l11.088,-8.505l6.093,-7.952l9.732,6.032l13.6,5.117l14.612,5.081l14.393,3.309l16.569,4.389l23.563,4.778l26.215,-0.848l26.458,-1.656l33.443,-4.839l89.77,-28.889l8.593,11.545l15.545,7.513l19.62,9.922l23.848,3.506l18.347,0.197l30.339,-1.864l20.624,-3.79l23.77,-9.202l16.228,-6.886l18.879,-8.581l17.919,15.218l15.182,7.21l15.325,5.449l15.576,3.982l20.429,3.578l15.757,1.01l28.194,-2.218l25.405,-5.212l18.556,-7.249l39.431,-19.854l9.115,6.83l7.051,7.556l16.134,5.016l21.07,3.996l21.657,3.458l23.021,0.536l25.329,-1.693l29.309,-6.495l19.42,-9.096l23.889,-11.337l7.191,10.09l10.065,10.704l28.084,10.074l33.378,7.971l19.838,-0l33.842,-2.901l20.141,-4.267l28.439,-6.147l18.27,-9.694l27.092,-14.752l14.434,12.903l22.586,11.395l26.563,6.482l26.098,5.939l37.025,2.372l35.856,-0.527l39.46,-6.33l43.164,-9.688l34.253,-17.098l34.789,-28.354l39.924,22.088l34.052,17.576l44.966,3.62l73.952,2.045l48.914,-18.146l27.68,-37.417l16.657,-36.419l-24.649,-52.47l-27.025,-39.9l-21.69,-13.795l14.674,-20.499l7.488,-23.636l-15.012,-24.66l-12.817,-31.192l-25.888,-8.903l-35.553,-5.647l-37.828,-9.183l-35.8,1.227l-35.703,6.859l-40.231,33.054l-34.566,-11.803l-25.384,-17.956l-31.913,-14.472l-25.074,-0.903l-25.223,7.278l-17.953,10.104l-17.266,15.128l-21.697,10.358l-10.213,12.064l-13.964,7.763l-15.741,-19.738l-37.615,-28.264l-44.811,-19.372l-31.843,-2.055l-44.321,4.432l-27.901,9.096l-28.805,8.109l-28.864,17.575l-21.301,10.811l-21.91,12.432l-41.467,-26.599l-46.673,-7.811l-27.753,-7.904l-27.364,-0.355l-37.886,1.588l-24.758,8.483l-22.429,7.874l-19.464,14.892l-21.419,7.933l-18.335,14.916l-18.452,-23.131l-35.175,-26.492l-26.229,-9.034l-32.279,-3.847l-23.369,-4.232l-37.733,-8.166l-29.248,2.332l-28.741,17.941l-30.536,21.7l-14.648,10.518l-31.529,-18.602l-32.444,-17.512l-27.364,-15.476l-36.492,-0l-49.958,1.607l-46.945,5.03l-25.579,10.782l-27.517,14.867l-27.28,17.795l-22.199,6.452l-28.256,-30.587l-37.178,-16.533l-20.739,-6.433l-34.537,-1.217l-16.922,7.669l-15.954,12.443l-14.701,11.721l-11.025,11.001l-16.019,23.288l-19.641,-28.722l-37.118,-9.531l-31.884,-11.77l-32.628,-6.389l-24.781,3.014l-34.353,5.114l-21.242,11.541l-35.021,8.805l-19.168,14.39l-30.253,12.053l-38.654,-9.813l-35.027,-12.238l-43.878,-8.566l-33.81,-5.819l-40.889,-8.44l-27.641,-6.111l-19.238,-7.548l-33.857,-2.547l-25.556,13.285l-31.372,20.935l-23.295,-23.122l-33.408,-6.876l-39.323,-0l-30.341,19.289l-26.766,24.617l-21.408,21.783l-21.49,28.001l-2.907,20.882l-7.728,17.419l7.604,22.201l-19.428,25.586l-15.534,48.966l-1.347,26.501l0,31.654l1.247,26.75l24.905,19.694l55.489,12.53l55.329,-3.565l38.017,-6.501l59.778,-36.105l14.961,25.031l21.508,16.762l28.77,3.847l37.869,10.957l40.433,-9.998l31.098,-8.006l23.694,-12.393l25.194,-10.061l17.597,-9.555l19.501,-7.978Z" style="fill:#6a5b46;stroke:#282118;stroke-width:1px;"/><path d="M256.99,106.458l25.828,20.989l16.533,7.307l18.876,6.823l20.143,2.414l16.177,1.242l21.281,-1.672l15.75,-3.164l16.029,-4.892l13.648,-8.057l28.558,-21.246l7.061,6.713l7.06,4.336l12.493,3.905l12.129,0.539l14.457,-0.679l14.324,-0.677l14.007,-1.524l8.878,-6.083l11.088,-8.505l6.093,-7.952l9.732,6.032l13.6,5.117l14.612,5.081l14.393,3.309l16.569,4.389l23.563,4.778l26.215,-0.848l26.458,-1.656l33.443,-4.839l89.77,-28.889l8.593,11.545l15.545,7.513l19.62,9.922l23.848,3.506l18.347,0.197l30.339,-1.864l20.624,-3.79l23.77,-9.202l16.228,-6.886l18.879,-8.581l17.919,15.218l15.182,7.21l15.325,5.449l15.576,3.982l20.429,3.578l15.757,1.01l28.194,-2.218l25.405,-5.212l18.556,-7.249l39.431,-19.854l9.115,6.83l7.051,7.556l16.134,5.016l21.07,3.996l21.657,3.458l23.021,0.536l25.329,-1.693l29.309,-6.495l19.42,-9.096l23.889,-11.337l7.191,10.09l10.065,10.704l28.084,10.074l33.378,7.971l19.838,-0l33.842,-2.901l20.141,-4.267l28.439,-6.147l18.27,-9.694l27.092,-14.752l14.434,12.903l22.586,11.395l26.563,6.482l26.098,5.939l37.025,2.372l35.856,-0.527l39.46,-6.33l43.164,-9.688l34.253,-17.098l34.789,-28.354l39.924,22.088l34.052,17.576l44.966,3.62l73.952,2.045l48.914,-18.146l27.68,-37.417l16.657,-36.419l-24.649,-52.47l-27.025,-39.9l-21.69,-13.795l14.674,-20.499l7.488,-23.636l-15.012,-24.66l-12.817,-31.192l-25.888,-8.903l-35.553,-5.647l-37.828,-9.183l-35.8,1.227l-35.703,6.859l-40.231,33.054l-34.566,-11.803l-25.384,-17.956l-31.913,-14.472l-25.074,-0.903l-25.223,7.278l-17.953,10.104l-17.266,15.128l-21.697,10.358l-10.213,12.064l-13.964,7.763l-15.741,-19.738l-37.615,-28.264l-44.811,-19.372l-31.843,-2.055l-44.321,4.432l-27.901,9.096l-28.805,8.109l-28.864,17.575l-21.301,10.811l-21.91,12.432l-41.467,-26.599l-46.673,-7.811l-27.753,-7.904l-27.364,-0.355l-37.886,1.588l-24.758,8.483l-22.429,7.874l-19.464,14.892l-21.419,7.933l-18.335,14.916l-18.452,-23.131l-35.175,-26.492l-26.229,-9.034l-32.279,-3.847l-23.369,-4.232l-37.733,-8.166l-29.248,2.332l-28.741,17.941l-30.536,21.7l-14.648,10.518l-31.529,-18.602l-32.444,-17.512l-27.364,-15.476l-36.492,-0l-49.958,1.607l-46.945,5.03l-25.579,10.782l-27.517,14.867l-27.28,17.795l-22.199,6.452l-28.256,-30.587l-37.178,-16.533l-20.739,-6.433l-34.537,-1.217l-16.922,7.669l-15.954,12.443l-14.701,11.721l-11.025,11.001l-16.019,23.288l-19.641,-28.722l-37.118,-9.531l-31.884,-11.77l-32.628,-6.389l-24.781,3.014l-34.353,5.114l-21.242,11.541l-35.021,8.805l-19.168,14.39l-30.253,12.053l-38.654,-9.813l-35.027,-12.238l-43.878,-8.566l-33.81,-5.819l-40.889,-8.44l-27.641,-6.111l-19.238,-7.548l-33.857,-2.547l-25.556,13.285l-31.372,20.935l-23.295,-23.122l-33.408,-6.876l-39.323,-0l-30.341,19.289l-26.766,24.617l-21.408,21.783l-21.49,28.001l-2.907,20.882l-7.728,17.419l7.604,22.201l-19.428,25.586l-15.534,48.966l-1.347,26.501l0,31.654l1.247,26.75l24.905,19.694l55.489,12.53l55.329,-3.565l38.017,-6.501l59.778,-36.105l14.961,25.031l21.508,16.762l28.77,3.847l37.869,10.957l40.433,-9.998l31.098,-8.006l23.694,-12.393l25.194,-10.061l17.597,-9.555l19.501,-7.978l17.612,17.931l23.378,21.524l20.33,10.291l46.564,8.245l34.925,0l22.401,-3.749l32.997,-8.639l28.775,-12.088l32.962,-19.066Z" style="fill:#6a5b46;stroke:#282118;stroke-width:1px;"/></g><g id="Cloud.Duration:900ms.Effect:Loop"><path d="M93.789,11.758l-40.49,10.289l-36.69,12.832l-45.961,8.982l-35.415,6.101l-42.83,8.849l-28.953,6.409l-20.153,7.914l-35.464,2.671l-26.769,-13.93l-32.862,-21.951l-24.401,24.244l-34.994,7.21l-41.19,-0l-31.781,-20.226l-28.038,-25.811l-22.423,-22.84l-22.511,-29.36l-3.045,-21.895l-8.096,-18.265l7.966,-23.278l-20.35,-26.828l-16.272,-51.342l-1.411,-27.788l0,-33.19l1.306,-28.048l26.088,-20.649l58.123,-13.138l57.956,3.738l39.822,6.816l62.616,37.857l15.672,-26.245l22.529,-17.576l30.136,-4.033l39.667,-11.489l42.353,10.483l32.574,8.394l24.819,12.995l26.391,10.55l18.431,10.018l20.427,8.365l18.449,-18.802l24.488,-22.567l21.296,-10.791l48.774,-8.645l36.583,-0l23.465,3.931l34.563,9.058l30.142,12.674l34.527,19.992l27.054,-22.008l17.318,-7.661l19.772,-7.154l21.099,-2.532l16.945,-1.302l22.292,1.754l16.498,3.317l16.79,5.13l14.296,8.447l29.914,22.277l7.396,-7.039l7.395,-4.546l13.087,-4.095l12.705,-0.565l15.143,0.712l15.004,0.71l14.672,1.598l9.3,6.378l11.614,8.918l6.382,8.338l10.194,-6.324l14.246,-5.367l15.306,-5.327l15.076,-3.47l17.356,-4.601l24.681,-5.01l27.46,0.889l27.714,1.736l35.031,5.074l94.032,30.292l9.002,-12.106l16.282,-7.878l20.552,-10.403l24.98,-3.676l19.218,-0.207l31.78,1.955l21.603,3.974l24.899,9.648l16.999,7.22l19.775,8.998l18.769,-15.957l15.903,-7.56l16.053,-5.714l16.315,-4.174l21.399,-3.752l16.505,-1.059l29.533,2.325l26.611,5.466l19.437,7.6l41.304,20.818l9.547,-7.162l7.386,-7.923l16.9,-5.259l22.071,-4.19l22.685,-3.625l24.114,-0.562l26.531,1.775l30.701,6.81l20.342,9.537l25.023,11.887l7.533,-10.58l10.542,-11.223l29.418,-10.563l34.963,-8.357l20.78,0l35.448,3.041l21.098,4.475l29.79,6.445l19.136,10.164l28.379,15.468l15.119,-13.529l23.658,-11.948l27.824,-6.797l27.338,-6.227l38.782,-2.487l37.56,0.552l41.333,6.638l45.213,10.158l35.88,17.928l36.441,29.73l41.819,-23.16l35.668,-18.429l47.102,-3.795l77.462,-2.145l51.237,19.026l28.994,39.233l17.449,38.186l-25.82,55.017l-28.309,41.836l-22.719,14.465l15.37,21.494l7.844,24.782l-15.725,25.857l-13.425,32.706l-27.117,9.335l-37.241,5.921l-39.625,9.628l-37.499,-1.286l-37.399,-7.192l-42.14,-34.658l-36.207,12.376l-26.59,18.827l-33.428,15.175l-26.265,0.947l-26.42,-7.632l-18.805,-10.594l-18.086,-15.862l-22.728,-10.861l-10.697,-12.65l-14.627,-8.139l-16.489,20.695l-39.4,29.636l-46.94,20.312l-33.354,2.155l-46.425,-4.646l-29.226,-9.539l-30.173,-8.501l-30.234,-18.428l-22.313,-11.336l-22.949,-13.036l-43.437,27.89l-48.889,8.19l-29.071,8.287l-28.662,0.373l-39.686,-1.665l-25.933,-8.894l-23.494,-8.257l-20.388,-15.615l-22.436,-8.317l-19.205,-15.64l-19.329,24.254l-36.845,27.777l-27.474,9.472l-33.812,4.034l-24.479,4.437l-39.524,8.563l-30.636,-2.446l-30.106,-18.811l-31.986,-22.753l-15.343,-11.029l-33.026,19.505l-33.985,18.362l-28.663,16.227l-38.224,0l-52.331,-1.685l-49.173,-5.274l-26.794,-11.305l-28.823,-15.589l-28.576,-18.658l-23.253,-6.766l-29.597,32.072l-38.943,17.335l-21.724,6.745l-36.177,1.277l-17.726,-8.042l-16.711,-13.047l-15.399,-12.29l-11.549,-11.535l-16.779,-24.417l-20.573,30.116l-38.881,9.992l-33.397,12.342l-34.177,6.699l-25.958,-3.161l-35.985,-5.361l-22.25,-12.101l-36.684,-9.232l-20.078,-15.089l-31.689,-12.638Z" style="fill:#6a5b46;stroke:#282118;stroke-width:1px;"/><path d="M598.066,22.093l-29.597,32.072l-38.943,17.335l-21.724,6.745l-36.177,1.277l-17.726,-8.042l-16.711,-13.047l-15.399,-12.29l-11.549,-11.535l-16.779,-24.417l-20.573,30.116l-38.881,9.992l-33.397,12.342l-34.177,6.699l-25.958,-3.161l-35.985,-5.361l-22.25,-12.101l-36.684,-9.232l-20.078,-15.089l-31.689,-12.638l-40.49,10.289l-36.69,12.832l-45.961,8.982l-35.415,6.101l-42.83,8.849l-28.953,6.409l-20.153,7.914l-35.464,2.671l-26.769,-13.93l-32.862,-21.951l-24.401,24.244l-34.994,7.21l-41.19,-0l-31.781,-20.226l-28.038,-25.811l-22.423,-22.84l-22.511,-29.36l-3.045,-21.895l-8.096,-18.265l7.966,-23.278l-20.35,-26.828l-16.272,-51.342l-1.411,-27.788l0,-33.19l1.306,-28.048l26.088,-20.649l58.123,-13.138l57.956,3.738l39.822,6.816l62.616,37.857l15.672,-26.245l22.529,-17.576l30.136,-4.033l39.667,-11.489l42.353,10.483l32.574,8.394l24.819,12.995l26.391,10.55l18.431,10.018l20.427,8.365l18.449,-18.802l24.488,-22.567l21.296,-10.791l48.774,-8.645l36.583,-0l23.465,3.931l34.563,9.058l30.142,12.674l34.527,19.992l27.054,-22.008l17.318,-7.661l19.772,-7.154l21.099,-2.532l16.945,-1.302l22.292,1.754l16.498,3.317l16.79,5.13l14.296,8.447l29.914,22.277l7.396,-7.039l7.395,-4.546l13.087,-4.095l12.705,-0.565l15.143,0.712l15.004,0.71l14.672,1.598l9.3,6.378l11.614,8.918l6.382,8.338l10.194,-6.324l14.246,-5.367l15.306,-5.327l15.076,-3.47l17.356,-4.601l24.681,-5.01l27.46,0.889l27.714,1.736l35.031,5.074l94.032,30.292l9.002,-12.106l16.282,-7.878l20.552,-10.403l24.98,-3.676l19.218,-0.207l31.78,1.955l21.603,3.974l24.899,9.648l16.999,7.22l19.775,8.998l18.769,-15.957l15.903,-7.56l16.053,-5.714l16.315,-4.174l21.399,-3.752l16.505,-1.059l29.533,2.325l26.611,5.466l19.437,7.6l41.304,20.818l9.547,-7.162l7.386,-7.923l16.9,-5.259l22.071,-4.19l22.685,-3.625l24.114,-0.562l26.531,1.775l30.701,6.81l20.342,9.537l25.023,11.887l7.533,-10.58l10.542,-11.223l29.418,-10.563l34.963,-8.357l20.78,0l35.448,3.041l21.098,4.475l29.79,6.445l19.136,10.164l28.379,15.468l15.119,-13.529l23.658,-11.948l27.824,-6.797l27.338,-6.227l38.782,-2.487l37.56,0.552l41.333,6.638l45.213,10.158l35.88,17.928l36.441,29.73l41.819,-23.16l35.668,-18.429l47.102,-3.795l77.462,-2.145l51.237,19.026l28.994,39.233l17.449,38.186l-25.82,55.017l-28.309,41.836l-22.719,14.465l15.37,21.494l7.844,24.782l-15.725,25.857l-13.425,32.706l-27.117,9.335l-37.241,5.921l-39.625,9.628l-37.499,-1.286l-37.399,-7.192l-42.14,-34.658l-36.207,12.376l-26.59,18.827l-33.428,15.175l-26.265,0.947l-26.42,-7.632l-18.805,-10.594l-18.086,-15.862l-22.728,-10.861l-10.697,-12.65l-14.627,-8.139l-16.489,20.695l-39.4,29.636l-46.94,20.312l-33.354,2.155l-46.425,-4.646l-29.226,-9.539l-30.173,-8.501l-30.234,-18.428l-22.313,-11.336l-22.949,-13.036l-43.437,27.89l-48.889,8.19l-29.071,8.287l-28.662,0.373l-39.686,-1.665l-25.933,-8.894l-23.494,-8.257l-20.388,-15.615l-22.436,-8.317l-19.205,-15.64l-19.329,24.254l-36.845,27.777l-27.474,9.472l-33.812,4.034l-24.479,4.437l-39.524,8.563l-30.636,-2.446l-30.106,-18.811l-31.986,-22.753l-15.343,-11.029l-33.026,19.505l-33.985,18.362l-28.663,16.227l-38.224,0l-52.331,-1.685l-49.173,-5.274l-26.794,-11.305l-28.823,-15.589l-28.576,-18.658l-23.253,-6.766Z" style="fill:#6a5b46;stroke:#282118;stroke-width:1px;"/></g></svg>