<?xml version="1.0" encoding="UTF-8" standalone="no"?><!DOCTYPE svg PUBLIC "-//W3C//DTD SVG 1.1//EN" "http://www.w3.org/Graphics/SVG/1.1/DTD/svg11.dtd"><svg width="100%" height="100%" viewBox="0 0 375 169" version="1.1" xmlns="http://www.w3.org/2000/svg" xmlns:xlink="http://www.w3.org/1999/xlink" xml:space="preserve" xmlns:serif="http://www.serif.com/" style="fill-rule:evenodd;clip-rule:evenodd;stroke-linecap:round;stroke-linejoin:round;stroke-miterlimit:1.5;"><path d="M88.443,4.174l-6.44,0.196l-18.538,0.3l-18.552,1.395l-11.203,0.92l-13.45,0.782l-10.48,3.781l0,11.333l1.099,27.529l-0.481,8.905l0.73,20.515l1.909,22.353l-0.679,17.009l-0.301,29.073l1.087,17.53l8.701,4.173l18.611,0.181l24.928,0.175l16.448,0.282l3.866,-0.658l-0.796,-13.656l-0.373,-21.621l-0.883,-14.734l0.359,-32.728l1.392,-40.559l0.785,-20.071l2.261,-22.405Z" style="fill:#80865f;stroke:#3a4212;stroke-width:0.75px;"/><g id="DoorFire.Effect:Loop.Duration:700ms"><path d="M-77.448,114.857l4.369,-3.387l5.697,-4.804l2.686,-18.235l3.052,-6.262l11.641,-16.175l6.208,-11.839l-0.304,-10.53l-3.914,-15.052l5.544,2.845l3.158,3.136l4.292,3.476l2.306,2.822l0.943,3.857l0.521,8.276l0.602,8.065l-0.048,9.529l3.075,-8.495l2.693,-5.224l4.807,-4.681l5.436,-4.222l4.335,-4.559l2.496,-4.22l2.708,-4.294l3.809,-5.564l1.526,7.89l2.024,10.671l3.043,9.613l3.332,10.458l5.945,8.278l3.134,6.639l1.018,9.195l1.895,8.258l2.305,-8.317l3.278,-7.219l2.914,-6.43l2.693,-4.331l3.666,-5.528l5.898,-5.728l5.307,-5.356l10.248,-7.607l0.975,2.782l0.256,2.124l0.239,2.054l0.625,2.266l0.738,1.767l1.177,1.675l1.492,1.116l1.547,0.55l3.583,-1.972l3.575,-6.376l1.408,-6.288l-0.154,-7.305l0,-14.075l1.347,-6.462l11.447,-6.031l0.52,5.303l-0.517,6.483l0.399,8.084l2.36,8.637l1.971,4.262l2.053,3.734l3.45,5.125l2.317,1.352l1.838,-1.383l0.852,-2.345l0.343,-2.697l0,-2.092l-0.132,-2.457l-0.743,-2.246l-0.931,-2.088l-1.487,-2.037l4.351,1.397l5.62,3.359l4.598,3.463l1.876,2.95l2.966,4.815l2.006,3.967l1.575,4.262l1.153,4.312l2.561,-2.312l2.415,-2.447l3.726,-2.208l3.398,-1.718l5.41,-0.709l3.871,-0.652l5.082,-0.279l2.663,0.344l-5.041,4.744l-2.667,6.374l-2.079,7.758l-0.826,4.941l-0.961,7.859l-0.707,5.983l-1.081,7.159l0.664,6.759l2.51,0.33l2.622,-0.109l1.528,-0.033l1.803,-0.598l2.284,-1.724l3.425,-2.986l1.761,-2.591l1.827,-3.552l0.187,7.876l0.464,4l0.611,6.224l0,4.057l-2.063,6.295l-3.335,4.255l-3.964,3.406l-3.54,3.281l0.062,2.181l2.257,2.222l4.344,1.728l7.266,-1.202l4.362,-1.208l2.88,-2.512l4.605,-3.337l2.171,-3.284l0.978,8.621l-0.1,3.515l-1.308,4.207l-1.238,4.937l-1.625,3.888l-1.903,3.909l-0.799,4.471l0.528,5.511l2.697,-0.228l2.289,-0.115l1.523,-0.36l2.026,-0.5l1.499,-0.717l1.612,-0.965l1.831,-1.302l1.008,-1.683l-0.528,3.764l-0.322,4.43l-1.446,4.097l-9.081,7.939l-5.041,3l-5.479,2.732l-6.103,1.138l-9.755,-0.552l0.324,1.272l0.882,1.282l0.859,1.17l0.978,0.853l1.008,0.743l0.557,0.398l0.46,0.166l0.236,0.252l-6.214,0.451l-2.288,-0.692l-4.596,-0.805l-2.915,-0.593l-3.756,-0.492l-2.333,-0.398l-2.811,-0.531l-5.649,-1.694l0.115,1.81l0.666,0.767l0.958,0.774l0.925,0.808l1.016,1.001l1.007,0.497l0.928,0.279l1.836,1.057l-8.757,0.66l-6.93,0.612l-5.521,-0.222l-4.489,-0.74l-5.772,-1.522l-3.314,-0.8l-6.292,-1.985l-5.2,-0.9l0.244,1.176l0.529,1.037l0.92,1.23l1.265,1.214l0.544,0.917l1.048,0.993l0.756,1.441l2.164,0.943l-10.897,0.131l-7.159,0.047l-7.945,-0.896l-3.133,-0.588l-7.127,-0.636l-5.555,-1.912l-4.598,-1.312l-4.453,-2.184l-0.592,1.853l0.296,1.427l0.638,0.927l0.806,1.165l0.735,0.698l0.677,1.026l0.818,0.999l1.384,0.827l-3.024,0.614l-4.879,-0l-3.998,-0.92l-2.519,-1.007l-2.262,-1.412l-2.3,-1.701l-3.123,-3.015l-2.244,-1.034l-2.636,1.227l-3.669,2.913l-2.736,1.281l-3.429,0.623l-3.675,0.423l-4.404,0.546l-3.482,-0.496l-2.62,-1.285l1.57,-0.556l1.201,-0.419l0.885,-0.673l0.862,-0.844l0.422,-0.93l0.6,-1.3l0.214,-1.411l-0,-1.537l-3.676,1.818l-3.225,0.632l-4.08,1.636l-6.215,2.63l-3.36,1.031l-4.626,1.108l-3.452,0.322l-2.156,-0.562l2.127,-0.934l1.598,-1.288l0.826,-1.568l0.879,-1.405l0.2,-1.519l0.071,-1.362l0,-1.086l-0.263,-1.568l-3.824,1.661l-2.757,1.25l-3.637,1.954l-4.137,0.705l-3.58,1.827l-5.635,0.936l-5.15,0.036l-4.35,0.078l1.256,-0.941l0.986,-0.613l1.958,-1.011l1.014,-0.849l0.672,-0.66l0.6,-0.948l0.139,-1.068l0.075,-1.117l-5.612,0.419l-2.894,1.994l-2.871,0.754l-3.698,1.657l-5.548,1.326l-6.337,0.216l-5.889,0.126l-5.64,-0.784l1.342,-0.888l1.611,-0.866l1.951,-1.042l1.462,-0.801l0.494,-0.625l0.268,-0.894l0.033,-0.87l-0.128,-0.903l-6.538,1.016l-2.399,0.175l-2.049,0.189l-1.884,0.414l-4.382,0.242l-4.525,-0.282l-3.802,-0.235l-3.665,-0.376l0.72,-0.635l1.002,-0.744l0.581,-0.466l0.641,-0.692l0.713,-0.632l0.779,-0.805l0.775,-0.668l1.314,-1.684l-1.682,0.289l-2.606,1.121l-1.955,0.826l-3.298,0.417l-3.007,0.992l-2.149,0.138l-1.35,-0.138l-2.495,-0.217l0.849,-0.931l0.302,-0.88l0.369,-1.026l0.186,-0.965l0.271,-0.823l0.207,-1.206l0.045,-1.127l0.01,-2.2l-5.339,-1.046l-4.211,-1.219l-4.066,-1.829l-2.919,-0.876l-2.478,-0.639l-2.091,-0.528l-3.018,-1.047l-3.982,-3.124l-4.576,-13.402l-2.034,-6.115l0.095,-10.696l4.531,4.671l3.642,3.727l0.456,-0.869l0.827,-2.284l1.041,-2.144l1.489,-2.568l1.419,-2.128l1.582,-2.126l1.444,-1.066l3.736,0.153l4.988,0.16l2.031,-3.465l2.06,-4.541l1.469,-10.165l1.54,-8.514l3.789,-8.966l10.846,-12.254l3.442,-5.259l3.174,-8.643l10.003,-7.565l3.521,-5.589l0.341,11.14l0.15,6.064l0.385,8.109l4.367,8.716l2.935,4.555l3.074,5.581l3.674,4.549l2.037,2.137Z" style="fill:#f6be00;stroke:#77410e;stroke-width:0.75px;"/><path d="M-30.695,70.579l3.075,-8.495l2.693,-5.224l4.807,-4.681l5.436,-4.222l4.335,-4.559l2.496,-4.22l2.708,-4.294l3.809,-5.564l1.526,7.89l2.024,10.671l3.043,9.613l3.332,10.458l5.945,8.278l3.134,6.639l1.018,9.195l1.895,8.258l2.305,-8.317l3.278,-7.219l2.914,-6.43l2.693,-4.331l3.666,-5.528l5.898,-5.728l5.307,-5.356l10.248,-7.607l0.975,2.782l0.256,2.124l0.239,2.054l0.625,2.266l0.738,1.767l1.177,1.675l1.492,1.116l1.547,0.55l3.583,-1.972l3.575,-6.376l1.408,-6.288l-0.154,-7.305l0,-14.075l1.347,-6.462l11.447,-6.031l0.52,5.303l-0.517,6.483l0.399,8.084l2.36,8.637l1.971,4.262l2.053,3.734l3.45,5.125l2.317,1.352l1.838,-1.383l0.852,-2.345l0.343,-2.697l0,-2.092l-0.132,-2.457l-0.743,-2.246l-0.931,-2.088l-1.487,-2.037l4.351,1.397l5.62,3.359l4.598,3.463l1.876,2.95l2.966,4.815l2.006,3.967l1.575,4.262l1.153,4.312l2.561,-2.312l2.415,-2.447l3.726,-2.208l3.398,-1.718l5.41,-0.709l3.871,-0.652l5.082,-0.279l2.663,0.344l-5.041,4.744l-2.667,6.374l-2.079,7.758l-0.826,4.941l-0.961,7.859l-0.707,5.983l-1.081,7.159l0.664,6.759l2.51,0.33l2.622,-0.109l1.528,-0.033l1.803,-0.598l2.284,-1.724l3.425,-2.986l1.761,-2.591l1.827,-3.552l0.187,7.876l0.464,4l0.611,6.224l0,4.057l-2.063,6.295l-3.335,4.255l-3.964,3.406l-3.54,3.281l0.062,2.181l2.257,2.222l4.344,1.728l7.266,-1.202l4.362,-1.208l2.88,-2.512l4.605,-3.337l2.171,-3.284l0.978,8.621l-0.1,3.515l-1.308,4.207l-1.238,4.937l-1.625,3.888l-1.903,3.909l-0.799,4.471l0.528,5.511l2.697,-0.228l2.289,-0.115l1.523,-0.36l2.026,-0.5l1.499,-0.717l1.612,-0.965l1.831,-1.302l1.008,-1.683l-0.528,3.764l-0.322,4.43l-1.446,4.097l-9.081,7.939l-5.041,3l-5.479,2.732l-6.103,1.138l-9.755,-0.552l0.324,1.272l0.882,1.282l0.859,1.17l0.978,0.853l1.008,0.743l0.557,0.398l0.46,0.166l0.236,0.252l-6.214,0.451l-2.288,-0.692l-4.596,-0.805l-2.915,-0.593l-3.756,-0.492l-2.333,-0.398l-2.811,-0.531l-5.649,-1.694l0.115,1.81l0.666,0.767l0.958,0.774l0.925,0.808l1.016,1.001l1.007,0.497l0.928,0.279l1.836,1.057l-8.757,0.66l-6.93,0.612l-5.521,-0.222l-4.489,-0.74l-5.772,-1.522l-3.314,-0.8l-6.292,-1.985l-5.2,-0.9l0.244,1.176l0.529,1.037l0.92,1.23l1.265,1.214l0.544,0.917l1.048,0.993l0.756,1.441l2.164,0.943l-10.897,0.131l-7.159,0.047l-7.945,-0.896l-3.133,-0.588l-7.127,-0.636l-5.555,-1.912l-4.598,-1.312l-4.453,-2.184l-0.592,1.853l0.296,1.427l0.638,0.927l0.806,1.165l0.735,0.698l0.677,1.026l0.818,0.999l1.384,0.827l-3.024,0.614l-4.879,-0l-3.998,-0.92l-2.519,-1.007l-2.262,-1.412l-2.3,-1.701l-3.123,-3.015l-2.244,-1.034l-2.636,1.227l-3.669,2.913l-2.736,1.281l-3.429,0.623l-3.675,0.423l-4.404,0.546l-3.482,-0.496l-2.62,-1.285l1.57,-0.556l1.201,-0.419l0.885,-0.673l0.862,-0.844l0.422,-0.93l0.6,-1.3l0.214,-1.411l-0,-1.537l-3.676,1.818l-3.225,0.632l-4.08,1.636l-6.215,2.63l-3.36,1.031l-4.626,1.108l-3.452,0.322l-2.156,-0.562l2.127,-0.934l1.598,-1.288l0.826,-1.568l0.879,-1.405l0.2,-1.519l0.071,-1.362l0,-1.086l-0.263,-1.568l-3.824,1.661l-2.757,1.25l-3.637,1.954l-4.137,0.705l-3.58,1.827l-5.635,0.936l-5.15,0.036l-4.35,0.078l1.256,-0.941l0.986,-0.613l1.958,-1.011l1.014,-0.849l0.672,-0.66l0.6,-0.948l0.139,-1.068l0.075,-1.117l-5.612,0.419l-2.894,1.994l-2.871,0.754l-3.698,1.657l-5.548,1.326l-6.337,0.216l-5.889,0.126l-5.64,-0.784l1.342,-0.888l1.611,-0.866l1.951,-1.042l1.462,-0.801l0.494,-0.625l0.268,-0.894l0.033,-0.87l-0.128,-0.903l-6.538,1.016l-2.399,0.175l-2.049,0.189l-1.884,0.414l-4.382,0.242l-4.525,-0.282l-3.802,-0.235l-3.665,-0.376l0.72,-0.635l1.002,-0.744l0.581,-0.466l0.641,-0.692l0.713,-0.632l0.779,-0.805l0.775,-0.668l1.314,-1.684l-1.682,0.289l-2.606,1.121l-1.955,0.826l-3.298,0.417l-3.007,0.992l-2.149,0.138l-1.35,-0.138l-2.495,-0.217l0.849,-0.931l0.302,-0.88l0.369,-1.026l0.186,-0.965l0.271,-0.823l0.207,-1.206l0.045,-1.127l0.01,-2.2l-5.339,-1.046l-4.211,-1.219l-4.066,-1.829l-2.919,-0.876l-2.478,-0.639l-2.091,-0.528l-3.018,-1.047l-3.982,-3.124l-4.576,-13.402l-2.034,-6.115l0.095,-10.696l4.531,4.671l3.642,3.727l0.456,-0.869l0.827,-2.284l1.041,-2.144l1.489,-2.568l1.419,-2.128l1.582,-2.126l1.444,-1.066l3.736,0.153l4.988,0.16l2.031,-3.465l2.06,-4.541l1.469,-10.165l1.54,-8.514l3.789,-8.966l10.846,-12.254l3.442,-5.259l3.174,-8.643l10.003,-7.565l3.521,-5.589l0.341,11.14l0.15,6.064l0.385,8.109l4.367,8.716l2.935,4.555l3.074,5.581l3.674,4.549l2.037,2.137l4.369,-3.387l5.697,-4.804l2.686,-18.235l3.052,-6.262l11.641,-16.175l6.208,-11.839l-0.304,-10.53l-3.914,-15.052l5.544,2.845l3.158,3.136l4.292,3.476l2.306,2.822l0.943,3.857l0.521,8.276l0.602,8.065l-0.048,9.529Z" style="fill:#f6be00;stroke:#77410e;stroke-width:0.75px;"/></g><g id="DoorFireInside.Effect:Loop.Duration:700ms"><path d="M-76.147,127.243l7.618,-2.585l4.98,-3.771l3.453,-7.068l2.732,-8.031l3.81,-7.021l4.143,-7.275l4.422,-6.706l4.418,-10.607l-0.459,10.607l1.103,4.339l0.782,4.568l0.586,4.556l0.979,3.619l1.619,3.273l1.385,3.562l1.28,3.342l2.419,-6.24l1.688,-5.921l1.699,-3.974l1.542,-4.167l1.384,-3.739l3.006,-5.453l4.675,-5.31l7.294,-6.148l1.626,3.817l1.037,4.919l3.675,6.685l3.554,5.429l1.675,3.763l1.597,6.314l1.963,6.334l0.054,10.369l5.143,0.34l7.13,-2.125l6.982,-4.893l6.056,-4.121l5.217,-6.231l4.246,-6.168l4.232,-6.331l2.82,-7.167l0.968,4.253l0.298,1.794l0.877,1.858l0.876,1.883l-0,1.558l0.542,1.837l0.898,1.536l0.66,2.186l4.249,-4.785l2.599,-3.071l4.338,-6.29l3.789,-4.453l3.548,-4.375l3.526,-4.407l3.317,-5.039l2.899,-3.966l1.608,4.657l1.47,3.279l2.849,2.51l2.442,3.01l2.693,1.739l1.778,1.998l1.377,1.635l3.98,3.412l0.742,-2.258l1.037,-2.757l1.516,-2.842l1.483,-2.893l0.547,-2.828l0.66,-2.076l0.887,-3.39l2.596,2.029l0.358,2.042l1.645,4.129l2.721,3.501l0.679,2.895l1.042,2.121l1.478,2.327l0.399,2.185l1.386,-2.185l0.666,-1.508l1.113,-2.026l2.055,-1.081l2.569,-1.23l1.683,-1.044l1.99,-0.325l4.074,-0.563l-0.519,3.576l-1.42,4.201l-0.057,3.565l-0.594,4.543l-0.309,6.206l0.056,6.646l0.298,6.299l0,7.71l3.962,0.021l1.45,0.042l2.167,-0l1.385,-0.16l1.863,0.346l1.421,-0.293l1.965,-0.598l2.244,-0.131l-0.158,3.703l-2.189,4.431l-5.072,6.145l-3.879,5.369l-1.844,3.163l-1.817,1.665l-1.339,1.632l-1.328,2.212l3.672,1.899l3.705,1.453l6.522,1.733l3.427,0.944l3.98,2.255l2.635,0.031l3.705,-0.45l2.687,-0.577l-1.224,3.838l-1.932,4.365l0,2.747l-0.042,3.292l-0.269,3.529l-0.532,2.749l-0.251,1.947l-0.133,1.705l2.218,0.702l1.798,-0.051l0.804,-0.342l0.926,-0.195l0.878,-0.047l1.003,-0.035l0.993,-0.053l1.317,-0.045l1.417,1.825l0.552,1.082l0.555,0.594l0.788,1.141l0.523,1.059l0.575,0.968l1.131,1.881l-0.32,0.279l-5.041,3l-5.479,2.732l-6.103,1.138l-9.755,-0.552l0.324,1.272l0.882,1.282l0.859,1.17l0.978,0.853l1.008,0.743l0.557,0.398l0.46,0.166l0.236,0.252l-6.214,0.451l-2.288,-0.692l-4.596,-0.805l-2.915,-0.593l-3.756,-0.492l-2.333,-0.398l-2.811,-0.531l-5.649,-1.694l0.115,1.81l0.666,0.767l0.958,0.774l0.925,0.808l1.016,1.001l1.007,0.497l0.928,0.279l1.836,1.057l-8.757,0.66l-6.93,0.612l-5.521,-0.222l-4.489,-0.74l-5.772,-1.522l-3.314,-0.8l-6.292,-1.985l-5.2,-0.9l0.244,1.176l0.529,1.037l0.92,1.23l1.265,1.214l0.544,0.917l1.048,0.993l0.756,1.441l2.164,0.943l-10.897,0.131l-7.159,0.047l-7.945,-0.896l-3.133,-0.588l-7.127,-0.636l-5.555,-1.912l-4.598,-1.312l-4.453,-2.184l-0.592,1.853l0.296,1.427l0.638,0.927l0.806,1.165l0.735,0.698l0.677,1.026l0.818,0.999l1.384,0.827l-3.024,0.614l-4.879,-0l-3.998,-0.92l-2.519,-1.007l-2.262,-1.412l-2.3,-1.701l-3.123,-3.015l-2.244,-1.034l-2.636,1.227l-3.669,2.913l-2.736,1.281l-3.429,0.623l-3.675,0.423l-4.404,0.546l-3.482,-0.496l-2.62,-1.285l1.57,-0.556l1.201,-0.419l0.885,-0.673l0.862,-0.844l0.422,-0.93l0.6,-1.3l0.214,-1.411l-0,-1.537l-3.676,1.818l-3.225,0.632l-4.08,1.636l-6.215,2.63l-3.36,1.031l-4.626,1.108l-3.452,0.322l-2.156,-0.562l2.127,-0.934l1.598,-1.288l0.826,-1.568l0.879,-1.405l0.2,-1.519l0.071,-1.362l0,-1.086l-0.263,-1.568l-3.824,1.661l-2.757,1.25l-3.637,1.954l-4.137,0.705l-3.58,1.827l-5.635,0.936l-5.15,0.036l-4.35,0.078l1.256,-0.941l0.986,-0.613l1.958,-1.011l1.014,-0.849l0.672,-0.66l0.6,-0.948l0.139,-1.068l0.075,-1.117l-5.612,0.419l-2.894,1.994l-2.871,0.754l-3.698,1.657l-5.548,1.326l-6.337,0.216l-5.889,0.126l-5.64,-0.784l1.342,-0.888l1.611,-0.866l1.951,-1.042l1.462,-0.801l0.494,-0.625l0.268,-0.894l0.033,-0.87l-0.128,-0.903l-6.538,1.016l-2.399,0.175l-2.049,0.189l-1.884,0.414l-4.382,0.242l-4.525,-0.282l-3.802,-0.235l-3.665,-0.376l0.72,-0.635l1.002,-0.744l0.581,-0.466l0.641,-0.692l0.713,-0.632l0.779,-0.805l0.775,-0.668l1.314,-1.684l-1.682,0.289l-2.606,1.121l-1.955,0.826l-3.298,0.417l-3.007,0.992l-2.149,0.138l-1.35,-0.138l-2.495,-0.217l0.849,-0.931l0.302,-0.88l0.369,-1.026l0.186,-0.965l0.271,-0.823l0.207,-1.206l0.045,-1.127l0.01,-2.2l-5.462,-0.647l-3.715,-0.975l-3.948,-2.481l-4.148,-1.933l-6.058,-6.678l-0.791,-6.915l0.623,-4.696l3.957,4.026l3.492,1.213l3.981,0.888l1.335,-3.382l-0.747,-5.451l-0.155,-2.352l1.706,-2.405l1.858,-1.207l2.705,-0.426l1.959,0.28l1.728,0.019l1.41,0.115l1.163,-0.497l2.613,0.009l2.891,-0.361l4.973,-1.929l-1.84,-4.827l-3.513,-6.828l0,-4.976l2.408,-11.228l4.662,-8.273l2.282,-3.923l4.381,-7.417l4.813,-7.668l2.798,9.103l5.489,6.902l2.812,3.003l2.494,4.234l3.719,2.489l3.342,3.455l2.219,2.471l3.239,2.549Z" style="fill:#fceb4b;stroke:#915d00;stroke-width:0.75px;"/><path d="M-33.296,112.045l2.419,-6.24l1.688,-5.921l1.699,-3.974l1.542,-4.167l1.384,-3.739l3.006,-5.453l4.675,-5.31l7.294,-6.148l1.626,3.817l1.037,4.919l3.675,6.685l3.554,5.429l1.675,3.763l1.597,6.314l1.963,6.334l0.054,10.369l5.143,0.34l7.13,-2.125l6.982,-4.893l6.056,-4.121l5.217,-6.231l4.246,-6.168l4.232,-6.331l2.82,-7.167l0.968,4.253l0.298,1.794l0.877,1.858l0.876,1.883l-0,1.558l0.542,1.837l0.898,1.536l0.66,2.186l4.249,-4.785l2.599,-3.071l4.338,-6.29l3.789,-4.453l3.548,-4.375l3.526,-4.407l3.317,-5.039l2.899,-3.966l1.608,4.657l1.47,3.279l2.849,2.51l2.442,3.01l2.693,1.739l1.778,1.998l1.377,1.635l3.98,3.412l0.742,-2.258l1.037,-2.757l1.516,-2.842l1.483,-2.893l0.547,-2.828l0.66,-2.076l0.887,-3.39l2.596,2.029l0.358,2.042l1.645,4.129l2.721,3.501l0.679,2.895l1.042,2.121l1.478,2.327l0.399,2.185l1.386,-2.185l0.666,-1.508l1.113,-2.026l2.055,-1.081l2.569,-1.23l1.683,-1.044l1.99,-0.325l4.074,-0.563l-0.519,3.576l-1.42,4.201l-0.057,3.565l-0.594,4.543l-0.309,6.206l0.056,6.646l0.298,6.299l0,7.71l3.962,0.021l1.45,0.042l2.167,-0l1.385,-0.16l1.863,0.346l1.421,-0.293l1.965,-0.598l2.244,-0.131l-0.158,3.703l-2.189,4.431l-5.072,6.145l-3.879,5.369l-1.844,3.163l-1.817,1.665l-1.339,1.632l-1.328,2.212l3.672,1.899l3.705,1.453l6.522,1.733l3.427,0.944l3.98,2.255l2.635,0.031l3.705,-0.45l2.687,-0.577l-1.224,3.838l-1.932,4.365l0,2.747l-0.042,3.292l-0.269,3.529l-0.532,2.749l-0.251,1.947l-0.133,1.705l2.218,0.702l1.798,-0.051l0.804,-0.342l0.926,-0.195l0.878,-0.047l1.003,-0.035l0.993,-0.053l1.317,-0.045l1.417,1.825l0.552,1.082l0.555,0.594l0.788,1.141l0.523,1.059l0.575,0.968l1.131,1.881l-0.32,0.279l-5.041,3l-5.479,2.732l-6.103,1.138l-9.755,-0.552l0.324,1.272l0.882,1.282l0.859,1.17l0.978,0.853l1.008,0.743l0.557,0.398l0.46,0.166l0.236,0.252l-6.214,0.451l-2.288,-0.692l-4.596,-0.805l-2.915,-0.593l-3.756,-0.492l-2.333,-0.398l-2.811,-0.531l-5.649,-1.694l0.115,1.81l0.666,0.767l0.958,0.774l0.925,0.808l1.016,1.001l1.007,0.497l0.928,0.279l1.836,1.057l-8.757,0.66l-6.93,0.612l-5.521,-0.222l-4.489,-0.74l-5.772,-1.522l-3.314,-0.8l-6.292,-1.985l-5.2,-0.9l0.244,1.176l0.529,1.037l0.92,1.23l1.265,1.214l0.544,0.917l1.048,0.993l0.756,1.441l2.164,0.943l-10.897,0.131l-7.159,0.047l-7.945,-0.896l-3.133,-0.588l-7.127,-0.636l-5.555,-1.912l-4.598,-1.312l-4.453,-2.184l-0.592,1.853l0.296,1.427l0.638,0.927l0.806,1.165l0.735,0.698l0.677,1.026l0.818,0.999l1.384,0.827l-3.024,0.614l-4.879,-0l-3.998,-0.92l-2.519,-1.007l-2.262,-1.412l-2.3,-1.701l-3.123,-3.015l-2.244,-1.034l-2.636,1.227l-3.669,2.913l-2.736,1.281l-3.429,0.623l-3.675,0.423l-4.404,0.546l-3.482,-0.496l-2.62,-1.285l1.57,-0.556l1.201,-0.419l0.885,-0.673l0.862,-0.844l0.422,-0.93l0.6,-1.3l0.214,-1.411l-0,-1.537l-3.676,1.818l-3.225,0.632l-4.08,1.636l-6.215,2.63l-3.36,1.031l-4.626,1.108l-3.452,0.322l-2.156,-0.562l2.127,-0.934l1.598,-1.288l0.826,-1.568l0.879,-1.405l0.2,-1.519l0.071,-1.362l0,-1.086l-0.263,-1.568l-3.824,1.661l-2.757,1.25l-3.637,1.954l-4.137,0.705l-3.58,1.827l-5.635,0.936l-5.15,0.036l-4.35,0.078l1.256,-0.941l0.986,-0.613l1.958,-1.011l1.014,-0.849l0.672,-0.66l0.6,-0.948l0.139,-1.068l0.075,-1.117l-5.612,0.419l-2.894,1.994l-2.871,0.754l-3.698,1.657l-5.548,1.326l-6.337,0.216l-5.889,0.126l-5.64,-0.784l1.342,-0.888l1.611,-0.866l1.951,-1.042l1.462,-0.801l0.494,-0.625l0.268,-0.894l0.033,-0.87l-0.128,-0.903l-6.538,1.016l-2.399,0.175l-2.049,0.189l-1.884,0.414l-4.382,0.242l-4.525,-0.282l-3.802,-0.235l-3.665,-0.376l0.72,-0.635l1.002,-0.744l0.581,-0.466l0.641,-0.692l0.713,-0.632l0.779,-0.805l0.775,-0.668l1.314,-1.684l-1.682,0.289l-2.606,1.121l-1.955,0.826l-3.298,0.417l-3.007,0.992l-2.149,0.138l-1.35,-0.138l-2.495,-0.217l0.849,-0.931l0.302,-0.88l0.369,-1.026l0.186,-0.965l0.271,-0.823l0.207,-1.206l0.045,-1.127l0.01,-2.2l-5.462,-0.647l-3.715,-0.975l-3.948,-2.481l-4.148,-1.933l-6.058,-6.678l-0.791,-6.915l0.623,-4.696l3.957,4.026l3.492,1.213l3.981,0.888l1.335,-3.382l-0.747,-5.451l-0.155,-2.352l1.706,-2.405l1.858,-1.207l2.705,-0.426l1.959,0.28l1.728,0.019l1.41,0.115l1.163,-0.497l2.613,0.009l2.891,-0.361l4.973,-1.929l-1.84,-4.827l-3.513,-6.828l0,-4.976l2.408,-11.228l4.662,-8.273l2.282,-3.923l4.381,-7.417l4.813,-7.668l2.798,9.103l5.489,6.902l2.812,3.003l2.494,4.234l3.719,2.489l3.342,3.455l2.219,2.471l3.239,2.549l7.618,-2.585l4.98,-3.771l3.453,-7.068l2.732,-8.031l3.81,-7.021l4.143,-7.275l4.422,-6.706l4.418,-10.607l-0.459,10.607l1.103,4.339l0.782,4.568l0.586,4.556l0.979,3.619l1.619,3.273l1.385,3.562l1.28,3.342Z" style="fill:#fceb4b;stroke:#915d00;stroke-width:0.75px;"/></g><path d="M118.865,-3.941l-122.895,0l0,174.547l16.52,0l-0.437,-22.341l0.301,-29.073l0.679,-17.009l-1.909,-22.353l-0.729,-20.515l0.481,-8.905l-1.099,-27.529l-0,-11.333l10.477,-3.781l13.447,-0.782l11.2,-0.92l18.547,-1.395l18.533,-0.3l6.439,-0.196l-2.261,22.405l-0.784,20.071l-1.392,40.559l-0.359,32.728l0.882,14.734l0.374,21.621l-0.06,14.314l34.045,0l-0,3.094l295.025,0l-0,-183.702l-295.025,-0l-0,6.061Z" style="fill:#bfd57b;stroke:#290d00;stroke-width:1px;"/><g><path d="M282.566,23.903l0.502,17.356l0.316,24.945l0.398,11.987l0.28,6.711l7.335,0.668l21.464,-0.386l16.668,-0.936l7.95,-2.123l1.602,-10.547l-0.288,-11.282l0.062,-16.682l-1.179,-18.464l0,-18.727l-1.671,-4.21l-10.624,-0l-9.147,0.277l-15.535,2.109l-13.141,0.185l-3.608,0.113l-0.343,8.484l-1.041,10.522Z" style="fill:#0b1d02;stroke:#0b1d02;stroke-width:1px;"/><path d="M282.566,23.153l0.502,17.356l0.316,24.945l0.398,11.987l0.28,6.711l7.335,0.668l21.464,-0.386l16.668,-0.936l7.95,-2.123l1.602,-10.547l-0.288,-11.282l0.062,-16.682l-1.179,-18.464l0,-18.727l-1.671,-4.21l-10.624,-0l-9.147,0.277l-15.535,2.109l-13.141,0.185l-3.608,0.113l-0.343,8.484l-1.041,10.522Z" style="fill:#7c8570;stroke:#0b1d02;stroke-width:1px;"/><path d="M291.861,17.869l-0.528,20.375l-0.055,17.411l0.682,12.172l0.943,4.827l9.116,0.753l15.661,1.112l9.051,0.041l2.947,-0.737l-0.045,-9.738l0.208,-17.418l0.613,-19.961l-0.353,-9.312l-2.234,-3.572l-12.22,0.466l-17.512,-0l-3.318,0.044l-2.622,0.667l-0.334,2.87Z" style="fill:#95a592;stroke:#0b1d02;stroke-width:1px;"/><path d="M299.521,42.92c0.359,-2.037 3.16,-4.222 4.369,-5.738c1.801,-2.258 2.601,-5.026 4.338,-7.265c0.614,-0.791 1.166,-1.831 1.561,-2.751c0.067,-0.156 0.456,-0.831 0.126,-0.831" style="fill:none;stroke:#0b1d02;stroke-width:1px;"/><path d="M302.887,59.08c-0,-2.369 2.383,-5.057 3.382,-7.061c2.411,-4.836 5.082,-9.614 8.032,-14.124c1.557,-2.379 3.905,-4.669 5.056,-7.28c0.616,-1.397 0.296,-1.613 0.296,-2.98c0,-0.105 -0.047,-1.348 0.041,-1.348" style="fill:none;stroke:#0b1d02;stroke-width:1px;"/><path d="M312.598,59.457c0,-3.371 3.531,-6.627 5.036,-9.343c0.775,-1.398 1.874,-2.355 1.874,-3.973" style="fill:none;stroke:#0b1d02;stroke-width:1px;"/><path d="M317.535,60.756c0.692,-2.221 2.885,-5.111 4.266,-6.958c0.225,-0.301 1.257,-1.15 1.257,-1.587" style="fill:none;stroke:#0b1d02;stroke-width:1px;"/><path d="M319.464,69.779c0.144,-1.188 1.396,-2.296 2.067,-3.275c1.725,-2.517 3.711,-5.501 5.797,-7.618" style="fill:none;stroke:#0b1d02;stroke-width:1px;"/></g><path d="M88.443,4.174l-2.261,22.405l-0.785,20.071l-1.392,40.559l-0.359,32.728l0.883,14.734l0.373,21.621l0.305,14.483l14.694,-0l0.526,-26.774l-1.743,-16.908l-0.43,-46.202l0.948,-18.328l-0.089,-16.028l1.217,-19.695l0.644,-14.343l-0.644,-8.684l-11.887,0.361Z" style="fill:#290d00;"/></svg>