<?xml version="1.0" encoding="UTF-8" standalone="no"?><!DOCTYPE svg PUBLIC "-//W3C//DTD SVG 1.1//EN" "http://www.w3.org/Graphics/SVG/1.1/DTD/svg11.dtd"><svg width="100%" height="100%" viewBox="0 0 225 113" version="1.1" xmlns="http://www.w3.org/2000/svg" xmlns:xlink="http://www.w3.org/1999/xlink" xml:space="preserve" xmlns:serif="http://www.serif.com/" style="fill-rule:evenodd;clip-rule:evenodd;stroke-linecap:square;stroke-miterlimit:1;"><g id="FlameBottomRight.Effect:Loop.Duration:500ms"><path d="M17.109,127.319l0,-3.738l-0.098,-3.99l0.432,-4.27l1.249,-3.742l2.16,-4.393l3.295,-5.355l3.157,-3.043l4.596,-3.237l6.241,-4.029l4.591,-4.1l3.351,-3.016l3.404,-3.911l3.318,-4.034l2.986,-4.237l0.96,-3.01l0.748,5.478l0.425,3.539l0.932,3.839l-0.072,4.848l-0.099,4.604l-0.455,3.105l-1.413,3.606l-1.432,2.141l2.772,-0.233l2.994,-1.953l3.308,-6.666l4.668,-6.111l3.842,-4.71l4.638,-3.504l4.216,-2.514l5.537,-3.816l6.337,-4.496l6.721,-5.228l7.933,-4.946l7.592,-4.92l3.535,-1.784l3.588,-0.114l-1.736,2.605l-0.782,2.586l-0.258,4.946l0,4.576l8.376,-3.258l6.361,-3.781l3.406,-3.421l5.692,-6.837l2.815,-4.696l3.507,-4.79l3.996,-5.501l3.257,-5.114l3.261,-5.296l4.518,-3.43l-1.145,4.605l0.079,3.261l0.727,3.78l0.665,4.001l1.134,3.581l0.594,-0.342l1.735,-5.081l2.423,-4.755l3.865,-6.444l4.175,-4.713l3.815,-4.017l3.829,-3.259l5.942,-5.197l3.324,-1.213l6.812,-1.645l3.23,0.768l-2.112,2.155l-1.578,2.828l-0.343,6.284l-0.148,4.127l0.441,7.372l1.046,4.654l1.375,4.175l1.319,4.222l2.343,3.005l0.914,2.412l0.342,2.358l0.448,-4.994l2.166,-3.862l5.364,-4.283l9.581,-2.265l4.382,-0l4.522,0.204l-2.251,3.342l-1.41,5.362l-0.031,4.8l0.787,7.52l0.369,5.515l0.884,5.827l4.234,-5.03l6.179,-4.621l8.986,-0.166l5.931,1.267l-2.996,2.097l-0.981,6.453l0.127,6.472l0.765,8.084l0.391,2.614l6.628,-4.441l6.169,-2.537l4.095,0.277l2.692,0.571l-2.888,5.717l-1.203,7.076l-0.045,5.633l2.355,6.694l2.27,-3.179l3.645,-3.515l7.014,-4.185l8.834,-2.129l-4.683,5.269l-2.64,6.129l-1.311,6.243l-0.869,7.701l-0.094,6.004l-0.179,7.027l2.99,-4.305l5.255,-1.737l8.351,2.159l-4.867,1.602l-2.253,2.281l-4.679,7.45l-2.659,5.77l-4.925,7.575l-8.872,6.644l-9.293,3.974l-7.813,4.377l-9.25,4.078l-11.302,2.83l-12.113,2.021l-10.479,0.552l-17.779,1.446l-30.052,-0.939l-12.037,1.096l-11.286,0.171l-12.91,-0.303l-11.274,-0.572l-10.349,-0.747l-11.481,-0.285l-13.634,-2.44l-13.559,-2.918l-14.057,-5.13l-12.665,-4.665l-10.899,-3.937l-6.931,-3.257l-9.485,-4.618l-5.115,-4.504l-6.389,-5.576l-2.546,-3.499l-1.939,-4.594l-0.693,-2.083l0.693,-2.553l4.764,4.636l6.248,3.318l4.874,0.42Z" style="fill:#f6be00;stroke:#77410e;stroke-width:0.75px;"/><path d="M56.751,69.214l0.748,5.478l0.425,3.539l0.932,3.839l-0.072,4.848l-0.099,4.604l-0.455,3.105l-1.413,3.606l-1.432,2.141l2.772,-0.233l2.994,-1.953l3.308,-6.666l4.668,-6.111l3.842,-4.71l4.638,-3.504l4.216,-2.514l5.537,-3.816l6.337,-4.496l6.721,-5.228l7.933,-4.946l7.592,-4.92l3.535,-1.784l3.588,-0.114l-1.736,2.605l-0.782,2.586l-0.258,4.946l0,4.576l8.376,-3.258l6.361,-3.781l3.406,-3.421l5.692,-6.837l2.815,-4.696l3.507,-4.79l3.996,-5.501l3.257,-5.114l3.261,-5.296l4.518,-3.43l-1.145,4.605l0.079,3.261l0.727,3.78l0.665,4.001l1.134,3.581l0.594,-0.342l1.735,-5.081l2.423,-4.755l3.865,-6.444l4.175,-4.713l3.815,-4.017l3.829,-3.259l5.942,-5.197l3.324,-1.213l6.812,-1.645l3.23,0.768l-2.112,2.155l-1.578,2.828l-0.343,6.284l-0.148,4.127l0.441,7.372l1.046,4.654l1.375,4.175l1.319,4.222l2.343,3.005l0.914,2.412l0.342,2.358l0.448,-4.994l2.166,-3.862l5.364,-4.283l9.581,-2.265l4.382,-0l4.522,0.204l-2.251,3.342l-1.41,5.362l-0.031,4.8l0.787,7.52l0.369,5.515l0.884,5.827l4.234,-5.03l6.179,-4.621l8.986,-0.166l5.931,1.267l-2.996,2.097l-0.981,6.453l0.127,6.472l0.765,8.084l0.391,2.614l6.628,-4.441l6.169,-2.537l4.095,0.277l2.692,0.571l-2.888,5.717l-1.203,7.076l-0.045,5.633l2.355,6.694l2.27,-3.179l3.645,-3.515l7.014,-4.185l8.834,-2.129l-4.683,5.269l-2.64,6.129l-1.311,6.243l-0.869,7.701l-0.094,6.004l-0.179,7.027l2.99,-4.305l5.255,-1.737l8.351,2.159l-4.867,1.602l-2.253,2.281l-4.679,7.45l-2.659,5.77l-4.925,7.575l-8.872,6.644l-9.293,3.974l-7.813,4.377l-9.25,4.078l-11.302,2.83l-12.113,2.021l-10.479,0.552l-17.779,1.446l-30.052,-0.939l-12.037,1.096l-11.286,0.171l-12.91,-0.303l-11.274,-0.572l-10.349,-0.747l-11.481,-0.285l-13.634,-2.44l-13.559,-2.918l-14.057,-5.13l-12.665,-4.665l-10.899,-3.937l-6.931,-3.257l-9.485,-4.618l-5.115,-4.504l-6.389,-5.576l-2.546,-3.499l-1.939,-4.594l-0.693,-2.083l0.693,-2.553l4.764,4.636l6.248,3.318l4.874,0.42l0,-3.738l-0.098,-3.99l0.432,-4.27l1.249,-3.742l2.16,-4.393l3.295,-5.355l3.157,-3.043l4.596,-3.237l6.241,-4.029l4.591,-4.1l3.351,-3.016l3.404,-3.911l3.318,-4.034l2.986,-4.237l0.96,-3.01Z" style="fill:#f6be00;stroke:#77410e;stroke-width:0.75px;"/></g><g id="FlameBottomRighInside.Effect:Loop.Duration:500ms"><path d="M20.184,128.491l0.201,-4.714l0.457,-2.414l0.695,-2.677l1.535,-3.738l1.421,-2.667l1.832,-2.997l2.775,-3.452l4.138,-2.517l1.89,-1.32l3.834,-2.198l2.579,-2.528l3.816,-2.796l2.718,-2.538l2.024,-1.94l0.213,-1.068l0.047,2.206l0.032,1.272l-0.259,1.394l-0.595,2.443l-0.88,3.172l-0.301,5.069l0.836,2.96l3.263,1.338l3.537,0.173l4.173,-1.356l1.515,-1.472l3.589,-3.053l2.241,-3.928l1.838,-2.9l2.784,-3.469l2.255,-2.774l4.464,-3.411l5.961,-4.184l4.302,-2.334l5.566,-3.808l3.902,-2.207l5.559,-4.402l4.195,-2.622l3.537,-2.42l1.305,-1.087l-0.425,2.653l-0.077,2.841l0.771,2.347l0.883,2.017l1.212,1.573l0.868,0.994l4.235,-1.431l2.829,-1.321l4.794,-1.67l3.263,-1.824l4.598,-2.423l4.494,-3.869l5.571,-5.287l4.469,-4.429l2.791,-5.477l2.134,-4.781l1.781,-2.583l1.042,-1.54l0.582,2.102l1.415,2.371l1.385,2.532l2.109,2.056l1.799,1.769l1.339,0.919l1.978,0.786l2.393,-6.222l1.416,-4.501l3.524,-6.401l3.43,-6.346l1.47,-1.747l2.951,-3.554l4.223,-2.557l4.743,-1.847l2.355,-0.448l-1.226,2.508l-0.597,2.222l-0.789,4.21l0.75,2.965l0.861,4.054l0.638,3.597l1.019,2.52l1.627,3.252l1.632,1.922l1.177,2.178l1.041,2.028l1.36,2.04l1.589,2.184l1.167,1.766l0.724,1.436l1.137,1.795l0.714,1.852l2.208,-3.084l1.78,-2.458l0.589,-2.634l1.101,-2.817l2.941,-4.309l3.298,-1.938l5.962,-1.328l-0.259,1.606l-0.036,3.845l-0.123,3.445l0.55,3.292l-0.031,3.151l0.644,3.949l0.799,4.054l1.043,3.131l1.685,3.044l1.475,1.608l0.593,1.433l2.22,-2.716l2.795,-3.115l4.047,-3.067l3.465,-1.896l2.158,-0.935l2.189,0.056l-0.242,3.182l0.204,4.181l0.25,5.16l0.771,4.914l0.965,3.165l1.766,3.686l1.463,2.836l3.497,-1.437l3.354,-2.605l3.483,-1.669l2.921,-0.72l-1.687,4.16l-0.237,3.332l0.371,4.31l1.365,4.801l1.641,3.604l1.402,3.166l1.483,1.399l3,-1.913l2.945,-2.337l3.52,-3.631l1.308,-0.834l-2.525,7.185l-0.212,1.792l0.104,2.908l-0.307,3.366l0.35,7.034l-0.183,2.68l0.597,2.932l0.719,1.657l0.827,1.069l1.01,0.705l0.398,-1.146l1.433,-0.584l-0.662,2.515l-0.862,2.792l-8.165,6.935l-4.234,3.7l-5.901,2.011l-6.567,3.078l-11.596,3.861l-9.357,2.423l-13.436,1.467l-9.026,1.08l-11.638,1.493l-19.846,1.211l-12.189,-0.176l-21.052,0.951l-17.015,-0.239l-17.857,-0.45l-14.507,-0.284l-12.915,-1.125l-13.208,-2.905l-15.095,-3.466l-21.269,-8.337l-6.99,-3.588l-8.755,-4.425l-3.6,-3.392l0.732,-6.062Z" style="fill:#fceb4b;stroke:#915d00;stroke-width:0.75px;stroke-linecap:round;stroke-linejoin:round;stroke-miterlimit:1.5;"/><path d="M50.312,88.927l0.047,2.206l0.032,1.272l-0.259,1.394l-0.595,2.443l-0.88,3.172l-0.301,5.069l0.836,2.96l3.263,1.338l3.537,0.173l4.173,-1.356l1.515,-1.472l3.589,-3.053l2.241,-3.928l1.838,-2.9l2.784,-3.469l2.255,-2.774l4.464,-3.411l5.961,-4.184l4.302,-2.334l5.566,-3.808l3.902,-2.207l5.559,-4.402l4.195,-2.622l3.537,-2.42l1.305,-1.087l-0.425,2.653l-0.077,2.841l0.771,2.347l0.883,2.017l1.212,1.573l0.868,0.994l4.235,-1.431l2.829,-1.321l4.794,-1.67l3.263,-1.824l4.598,-2.423l4.494,-3.869l5.571,-5.287l4.469,-4.429l2.791,-5.477l2.134,-4.781l1.781,-2.583l1.042,-1.54l0.582,2.102l1.415,2.371l1.385,2.532l2.109,2.056l1.799,1.769l1.339,0.919l1.978,0.786l2.393,-6.222l1.416,-4.501l3.524,-6.401l3.43,-6.346l1.47,-1.747l2.951,-3.554l4.223,-2.557l4.743,-1.847l2.355,-0.448l-1.226,2.508l-0.597,2.222l-0.789,4.21l0.75,2.965l0.861,4.054l0.638,3.597l1.019,2.52l1.627,3.252l1.632,1.922l1.177,2.178l1.041,2.028l1.36,2.04l1.589,2.184l1.167,1.766l0.724,1.436l1.137,1.795l0.714,1.852l2.208,-3.084l1.78,-2.458l0.589,-2.634l1.101,-2.817l2.941,-4.309l3.298,-1.938l5.962,-1.328l-0.259,1.606l-0.036,3.845l-0.123,3.445l0.55,3.292l-0.031,3.151l0.644,3.949l0.799,4.054l1.043,3.131l1.685,3.044l1.475,1.608l0.593,1.433l2.22,-2.716l2.795,-3.115l4.047,-3.067l3.465,-1.896l2.158,-0.935l2.189,0.056l-0.242,3.182l0.204,4.181l0.25,5.16l0.771,4.914l0.965,3.165l1.766,3.686l1.463,2.836l3.497,-1.437l3.354,-2.605l3.483,-1.669l2.921,-0.72l-1.687,4.16l-0.237,3.332l0.371,4.31l1.365,4.801l1.641,3.604l1.402,3.166l1.483,1.399l3,-1.913l2.945,-2.337l3.52,-3.631l1.308,-0.834l-2.525,7.185l-0.212,1.792l0.104,2.908l-0.307,3.366l0.35,7.034l-0.183,2.68l0.597,2.932l0.719,1.657l0.827,1.069l1.01,0.705l0.398,-1.146l1.433,-0.584l-0.662,2.515l-0.862,2.792l-8.165,6.935l-4.234,3.7l-5.901,2.011l-6.567,3.078l-11.596,3.861l-9.357,2.423l-13.436,1.467l-9.026,1.08l-11.638,1.493l-19.846,1.211l-12.189,-0.176l-21.052,0.951l-17.015,-0.239l-17.857,-0.45l-14.507,-0.284l-12.915,-1.125l-13.208,-2.905l-15.095,-3.466l-21.269,-8.337l-6.99,-3.588l-8.755,-4.425l-3.6,-3.392l0.732,-6.062l0.201,-4.714l0.457,-2.414l0.695,-2.677l1.535,-3.738l1.421,-2.667l1.832,-2.997l2.775,-3.452l4.138,-2.517l1.89,-1.32l3.834,-2.198l2.579,-2.528l3.816,-2.796l2.718,-2.538l2.024,-1.94l0.213,-1.068Z" style="fill:#fceb4b;stroke:#915d00;stroke-width:0.75px;stroke-linecap:round;stroke-linejoin:round;stroke-miterlimit:1.5;"/></g><g id="Line.Effect:Default.Duration:1000ms.Type:Line"><path d="M209.648,107.644c6.921,-5.66 6.873,-11.801 6.873,-19.837" style="fill:none;stroke:#77410e;stroke-width:0.75px;stroke-linecap:round;stroke-linejoin:round;stroke-miterlimit:1.5;"/><path d="M211.898,105.394c6.921,-5.66 6.873,-11.801 6.873,-19.837" style="fill:none;stroke:#77410e;stroke-width:0.75px;stroke-linecap:round;stroke-linejoin:round;stroke-miterlimit:1.5;"/></g><g id="Line1.Effect:Default.Duration:1000ms.Type:Line"><path d="M218.658,104.348c-0,-1.502 1.187,-3.053 1.609,-4.493c0.894,-3.051 1.769,-6.201 1.298,-9.367c-0.183,-1.226 -0.211,-3.017 -0.573,-4.173c-0.04,-0.13 -0.076,-0.997 -0.197,-0.997" style="fill:none;stroke:#77410e;stroke-width:0.75px;stroke-linecap:round;stroke-linejoin:round;stroke-miterlimit:1.5;"/><path d="M220.158,100.598c-0,-1.502 1.187,-3.053 1.609,-4.493c0.894,-3.051 1.769,-6.201 1.298,-9.367c-0.183,-1.226 -0.211,-3.017 -0.573,-4.173c-0.04,-0.13 -0.076,-0.997 -0.197,-0.997" style="fill:none;stroke:#77410e;stroke-width:0.75px;stroke-linecap:round;stroke-linejoin:round;stroke-miterlimit:1.5;"/></g></svg>