<svg xmlns="http://www.w3.org/2000/svg" xml:space="preserve" style="fill-rule:evenodd;clip-rule:evenodd;stroke-linecap:round;stroke-linejoin:round;stroke-miterlimit:1.5" viewBox="0 0 229 413"><path d="m191.396 407.588-9.934.886a62 62 0 0 0-5.254.445c-.593.073-5.722.227-11.738 1.072l-17.883 1.596.48-.603c2.44-7.01 5.53-14.34 7.55-20.92q3.72-12.15 6.63-24.49a.57.57 0 0 1 .66-.42q21.03 4.43 42.19.17a.472.472 0 0 1 .55.57 262 262 0 0 1-12.49 38.59c-.43 1.04-.809 2.154-.761 3.104m-144.631-4.092-26.818-3.532q4.409-20.577 11.16-42.03l.004-.01a.275.275 0 0 1 .348-.173l.008.003q10.6 4.07 21.18 5.7l.004.001c.39.061.66.438.597.833l-.001.006-6.08 36.72q-.267 1.425-.402 2.482m53.502-149.172-.003-.061c0-.346.285-.63.63-.63l.043.001c16.13 1.07 32.19-1.85 46.87-8.34a.44.44 0 0 1 .61.32c1.02 5.52 1.23 11.67 8.18 13.38a.5.5 0 0 0 .15 0l.84-.14a.904.904 0 0 1 1.054.887.9.9 0 0 1-.314.683q-19.55 16.93-45.69 16.8-5.01-.02-10.52-2.06-7.23-2.69-7.05-10.13a.41.41 0 0 1 .39-.4c5.54-.43 5.29-5.43 4.81-10.31m-71.73-52.2a.528.528 0 0 1-.74.44c-6.2-2.84-10.33-9.91-13.12-15.93-2.77-5.98-4.33-14.95 1.45-19.37a1.328 1.328 0 0 1 2.09.7 2073 2073 0 0 0 7.85 27.28c.57 1.95 2.49 6.54 2.47 6.88" style="fill:#fff"/><path d="m119.057 75.014.13.23a.14.14 0 0 1-.04.19q-1.9 1.31-1.15 2.43c1.65 2.51 4.76 1.61 7.05 1.1a1.37 1.37 0 0 1 .99.15c4.33 2.48 9.59-1.23 13.42-3.96.35-.25.53-.67.92-1.08l.04-.037a.617.617 0 0 1 .866.074l.034.043.88 1.25a1.72 1.72 0 0 0 2.52.33q10.46-8.82 18.52-19.58a.392.392 0 0 1 .67.07q5.24 11.11 5.41 11.19.02.01 1.16 1.48c.174.225.252.508.22.79l-.22 2.11a.8.8 0 0 0 .08.46 46 46 0 0 1 2.33 5.63c.58 1.72 1.16 2.03 2.72 2.1.431.017.81.304.95.72 5.5 16.41 8.79 25.9 10.68 38.24q.411 2.66 2.67 4.11c.376.248.627.645.69 1.09l2.94 22.6a.8.8 0 0 0 .05.21l1.86 4.71a.82.82 0 0 0 .42.46c2.13 1.01 3.24-.46 3.55-2.43.65-4.05 3.6-9.39 7.26-11.19q5.64-2.78 11.31 1.89 4.041 3.32 4.41 10.26.81 15.45-11 26.21-4.92 4.49-10.5 3.64a1.4 1.4 0 0 1-.97-.64q-1.36-2.15-2.77-2.36c-3.32-.49-3.79 2.29-2.69 4.66.136.284.171.609.1.92q-7.54 34.04-36.67 51.03-33.279 19.41-71.91 11.82c-15.05-2.95-29.13-9.86-38.15-20.74-7.62-9.18-12.6-20.05-16.68-32.3q-6.36-19.09-10.27-40.56-1.17-6.39-1.2-11.4 0-1.16-.97-11.46c-.95-10.09-.39-18.33 2.81-27.23q.8-2.23 2.21-3.34 5.46-4.31 7.06-5.84a.74.74 0 0 1 1.05.03q2.45 2.62 5.29 1.51 5.92-2.33 8.17-3.59a.726.726 0 0 1 .9.15q1.55 1.72 4.42-.06 4.49-2.79 7.3-4.9a.64.64 0 0 1 .87.09q2.09 2.39 6.29 1.23c6.49-1.79 9.44-3.33 15.43-4.39q5.52-.99 11.43-5.28.76-.55 1.25.14c2.16 2.94 8.13 1.25 11.3.47a.412.412 0 0 1 .48.55q-.23.57-.65 1.1-.51.63-.43 1.02.1.48.58 1c.666.717 1.753.854 2.55.32a458 458 0 0 1 11.67-7.53l.006-.004a.256.256 0 0 1 .35.087zm6.983 71.059c-1.315-.717-2.582-.82-3.54.319-1.668 1.982-1.554 4.172-.57 6.053-.286 3.019 1.876 6.157 5.867 6.142 2.273-.008 6.293-3.368 4.869-5.486-.152-.226-.768-1.142-1.645-2.263-.299-.885-.72-1.379-1.2-1.583-.473-1.743-1.681-3.164-3.781-3.182m-71.882 14.506-2.111-2.143c-.576 5.31.32 6.208 3.218 8.705.228.364.483.677.76.919.341.343.744.624 1.218.814l.515.474c4.889 4.552 10.165-7.426 1.556-9.48-1.599-3.663-4.776-5.624-5.156.711m75.059 39.675-.06-.09a2.072 2.072 0 0 0-3.09-.42c-9.11 7.98-20.8 12.43-32.93 10.58q-1.64-.25-5.63-1.98l-.047-.02a2.487 2.487 0 0 0-3.226 1.358l-.017.042-.08.2-.001.003a2.6 2.6 0 0 0 1.476 3.345l.005.002c14.84 5.74 31.85 1.01 43.2-9.6a2.68 2.68 0 0 0 .4-3.42m1.37-84.91q-6.08-.77-15.04 1.95a3.27 3.27 0 0 0-2.31 3.21v.16q.002.069.009.138a2.175 2.175 0 0 0 2.501 1.932q.01 0 5.33-1.7 3.831-1.22 9.12-.8 5.3.41 8.89 2.21 4.99 2.5 5.01 2.5.068.023.137.039a2.175 2.175 0 0 0 2.663-1.699l.02-.15a3.27 3.27 0 0 0-1.79-3.54q-8.42-4.07-14.54-4.25m82.25 35.6c-.94-2.44-4.13-3.21-6.66-2.42-4.74 1.49-6.04 6.01-6.25 10.45l-.002.052a1.986 1.986 0 0 0 1.921 2.028h.061l.06-.01a2.15 2.15 0 0 0 2.13-2.03q.15-3.17.94-4.47 2.25-3.67 4.92-1.46c.252.208.554.344.876.394.997.156 1.948-.549 2.107-1.563a1.9 1.9 0 0 0-.103-.971m-167.51-14.26c3.45-1.96 6.75-3.34 10.83-3.03 2.2.17 4.2-.83 3.44-3.23a2.535 2.535 0 0 0-2.39-1.77q-8.07-.04-14.41 3.55-6.35 3.6-10.47 10.54a2.535 2.535 0 0 0 .29 2.96c1.67 1.88 3.56.69 4.55-1.29 1.82-3.66 4.71-5.77 8.16-7.73" style="fill:#fff"/><path d="m1382.95 419.38 4.28 5.45 3.47 5.88c.01.01.01.02.02.03.15.217.45.271.67.119l.03-.019c1.72-1.37 3.75-1.98 6.2-1.32 2.78.74 6.75.47 9.86 2.26.88.504 1.28 1.569.96 2.53l-.15.44c-.01.039-.03.078-.04.116a1.55 1.55 0 0 1-2.02.806c-.04-.016-.07-.033-.11-.052q-2.835-1.47-4.98-1.73a.2.2 0 0 0-.1.011c-.1.041-.14.157-.1.258q.015.049.06.081c1.14.887 3.54 2.577 7.21 5.07 6.85 4.66 11.98 12.08 17.54 20.94 10.74 17.07 16.21 38.62 17.72 58.76.14 1.873.02 6.993-.37 15.36-.25 5.247-.78 9.117-1.61 11.61a.93.93 0 0 0 .24.96c8.95 8.67 7.37 23.25 2.41 33.51-4 7.68-10.55 15.11-19.56 16.32a.79.79 0 0 0-.67.61c-.23.967-1.45 4.097-3.67 9.39q-2.94 7.02-5.67 10.44a444 444 0 0 0-7.28 9.4c-8.75 11.52-19.81 20.96-33.08 26.97a.6.6 0 0 0-.34.67l2.08 9.28q2.46 1.56 4.92 1.61 2.775.06 3.75.34a144 144 0 0 1 20.34 7.56c15.77 7.247 27.1 18.827 34.01 34.74 2.92 6.74 5.19 14.883 6.8 24.43l1.36 13.08.32 12.67-.84 9.75-3.95 2.4a.83.83 0 0 0-.39.7v19.16l-.2 8.01a406 406 0 0 0-1.36 15.65c-.12 1.85-.61 3.44-2.18 4.28-1.45.767-2.94.133-4.46-1.9a312 312 0 0 0 2.33-42.46c0-.036 0-.071-.01-.106-.06-.379-.44-.635-.82-.569a1 1 0 0 0-.1.025l-3.66 1.25a.97.97 0 0 0-.62.69q-3.315 15.64-9.84 33.07a978 978 0 0 0-3.99 10.88l-.9 1.22c-1.09.68-2.07.907-2.96.68-2.78-.7-2.11-3.14-1.23-5.27 5.14-12.48 9.3-25.343 12.49-38.59.01-.036.01-.072.01-.109a.47.47 0 0 0-.56-.461c-14.11 2.84-28.17 2.783-42.19-.17a.566.566 0 0 0-.66.42 387 387 0 0 1-6.63 24.49c-2.02 6.58-5.11 13.91-7.55 20.92l-1.25 1.57q-3.45 1.43-4.92-2.46a302 302 0 0 0 14.82-45.78.804.804 0 0 0-.55-.96c-3.27-.98-5.63-2.82-4.75-6.77a467 467 0 0 0 6.49-35.46 2.233 2.233 0 0 1 2.83-1.83l.15.04a2.91 2.91 0 0 1 2.06 3.17c-1.98 14.927-3.88 26.2-5.69 33.82-.15.63.22 1.282.85 1.48q12.93 3.96 26.28 3.62c12.91-.33 25.14-2.07 36.87-7.58.57-.27.94-.839.96-1.47.51-17.27-1.01-34.02-7.02-50.39q-7.2-19.62-24.78-30.45c-7.41-4.56-15.38-8.13-23.9-10.71a.53.53 0 0 0-.54.16c-5.05 5.973-11.03 10.67-17.93 14.09-14.38 7.11-33.39 11.7-48.47 4.8q-8.775-4.01-9.45-13.3a.47.47 0 0 0-.64-.4c-11.09 4.56-21.26 11.69-28.95 21.44-5.77 7.32-10.4 15.21-14.56 22.76-1.15 2.093-5.71 10.957-13.67 26.59-1.7 3.347-3.46 7.14-5.29 11.38-.15.345.01.753.35.92q13.2 6.28 27.54 8.37c.17.029.34-.091.38-.27 2.45-15.34 3.68-22.22 4.93-33.51a2.866 2.866 0 0 1 2.86-2.54h.17a2.38 2.38 0 0 1 2.34 2.37c0 .077 0 .154-.01.23-1.09 11-2.17 20.21-3.25 27.63-2.28 15.62-5.28 34.467-9.01 56.54-3.33.687-5.2.013-5.63-2.02q-.255-1.15.48-5.05l6.08-36.72v-.006a.73.73 0 0 0-.6-.833v-.001q-10.575-1.63-21.18-5.7l-.01-.003c-.14-.05-.29.028-.35.173v.01q-7.215 22.94-11.76 44.88l-.03.135a2.796 2.796 0 0 1-3.39 2.005c-.05-.012-.09-.026-.14-.04l-.25-.08c-1.66-.528-2.64-2.272-2.21-3.95l7.14-28.34 2.6-8.74 2.52-8.19v-.014a.497.497 0 0 0-.35-.622c0-.002 0-.003-.01-.004-2.74-.66-7.53-3.1-6.07-6.61 1.09-2.593 3.17-6.963 6.26-13.11l5.79-11.33c6.4-12.76 12.96-25.72 20.91-36.65q15.285-20.99 40.02-27.97c.47-.133 1.25-.2 2.32-.2h.01c.4 0 .72-.325.72-.72v-.02l-.14-4.54a.88.88 0 0 0-.8-.85q-18.72-1.64-34.95-10.82c-13.23-7.49-21.57-19.14-27.77-32.71a.92.92 0 0 0-.71-.53c-7.21-1.03-12.88-5.92-16.82-11.77-5.91-8.78-11.29-23.39-2.86-32.43a.79.79 0 0 0 .14-.88l-2.67-5.56-3.01-8.03c-2.57-7.473-4.4-15.047-5.48-22.72l-.11-9.26c-.08-7.38.51-14.72 1.76-22.02a.8.8 0 0 0-.02-.35l-.42-1.37a.9.9 0 0 1-.01-.49c3.16-12.35 5.74-22.05 12.51-32.14.22-.341.23-.779.02-1.12-.05-.067-.19-.16-.44-.28-.02-.013-.05-.026-.07-.041a.825.825 0 0 1-.27-1.136.3.3 0 0 1 .05-.073l9.2-11.75c.09-.112.16-.238.2-.37.38-1.16.71-1.887.98-2.18q11.595-12.46 25.29-21.89 1.26-.87 4.62-2.82c10.64-6.17 24.15-12.16 36.77-15.03 11.98-2.73 21.96-3.81 34.05-2.38l2.7.46 3.99.98c.01.004.03.007.04.009.31.054.61-.16.66-.473.01-.015.01-.031.01-.046l.07-.62c.01-.122.04-.242.07-.36a2.023 2.023 0 0 1 2.84-1.23l8.97 4.51q.06.032.12.032c.12 0 .23-.104.23-.23a.25.25 0 0 0-.07-.162l-2.07-2.32a1.4 1.4 0 0 1-.3-.62c-.23-1.307.24-2.197 1.43-2.67.3-.115.64-.112.94.01q1.8.72 3.06 1.95c2.43 2.387 5.58 5.543 9.43 9.47.1.112.25.175.4.175a.554.554 0 0 0 .46-.855c-1.27-2.053-.78-3.653 1.46-4.8.31-.151.67-.155.98-.01a10.6 10.6 0 0 1 3.19 2.42m-28.47 4.2c-2.36-4.53-9.31-5.81-13.77-5.21a.47.47 0 0 0-.4.465c0 .142.06.276.17.365l7.13 5.59c.76.596 1.85.562 2.58-.08q2.505-2.2 4.02-.91c.03.023.07.035.11.035.09 0 .18-.082.18-.18a.2.2 0 0 0-.02-.075m-85.21 62.48c-.99 2.147-2.51 4.047-4.55 5.7a.31.31 0 0 0-.07.4l.04.07c.1.149.29.202.44.12 6.12-3.43 10.63-8.92 17.18-10.91 6.26-1.9 10.17-3.437 11.72-4.61a1.434 1.434 0 0 1 1.87.13l2.08 2.08c.3.3.77.365 1.14.16 3.39-1.913 7.89-3.973 13.51-6.18 3.84-1.51 6.59-3.41 8.96-6.28.1-.123.16-.279.16-.441 0-.373-.31-.68-.68-.68-.07 0-.14.011-.2.031l-18.15 5.48a4.046 4.046 0 0 1-4.66-1.83l-.17-.29c-.05-.094-.1-.191-.14-.291a2.295 2.295 0 0 1 1.62-3.049c4.1-.93 7.79-2.28 11.95-5.51a25.2 25.2 0 0 1 10.04-4.76c.56-.13 1.02-.547 1.21-1.1l1.09-3.25a.98.98 0 0 1 .55-.58l3.27-1.37a.4.4 0 0 0 .19-.15.406.406 0 0 0-.12-.56.43.43 0 0 0-.23-.07c-2.4-.02-4.99.573-7.78 1.78-4.97 2.14-8.45 3.987-10.45 5.54a1.26 1.26 0 0 1-.96.25q-1.02-.14-1.5-1.23a.3.3 0 0 0-.05-.086c-.25-.413-.84-.519-1.3-.236q-.045.029-.09.062c-1.79 1.34-3.6 2.98-5.41 4.92-.42.449-1.04.656-1.65.55q-1.38-.23-2.79-1.11a.783.783 0 0 0-1.02.18l-1.16 1.48a6.9 6.9 0 0 1-1.8 1.62c-1.45.907-3.11 2.007-5 3.3-.62.42-1.27.52-1.94.3-.1-.032-.19-.072-.29-.12a1.94 1.94 0 0 1-.66-2.87c2.18-2.92 5.32-5.787 9.43-8.6a.17.17 0 0 0 .08-.143.2.2 0 0 0-.04-.107l-.22-.25a.4.4 0 0 0-.52-.06c-6.97 4.84-13.86 9.1-19.57 15.62q-2.115 2.41-6.03 4.67c-.66.377-1.25.868-1.73 1.45-1.73 2.09-3.63 4.58-5.66 6.08-2.77 2.04-5.22 4.963-7.37 8.77-2.01 3.57-6.89 4.55-8.99 6.73-.49.507-1.24.666-1.9.4l-.99-.4a.92.92 0 0 1-.58-.854c0-.314.17-.607.43-.776 1.6-1.04 2.98-1.72 4.61-3.24 2.51-2.333 4.37-4.017 5.6-5.05 3.04-2.6 5.29-5.93 7.15-8.64.51-.76.78-1.663.75-2.58l-.02-.65c-.01-.285.08-.567.25-.8a13.1 13.1 0 0 1 5.18-4.13c.27-.12.53-.271.76-.45 3.48-2.72 6.54-5.003 9.17-6.85 2.5-1.76 5.24-5.86 8.37-7.65 4.9-2.813 10.68-6.29 17.33-10.43 2.01-1.26 4.42-1.867 7.22-1.82.56.007 1.11-.165 1.56-.49 1.15-.84 12.36-8.04 12.36-8.06v-.045c0-.081-.08-.142-.17-.134-.01.002-.03.005-.04.009-1.79.647-3.32.95-4.57.91-3.34-.11-5.47 1.51-8.78 2.31a2.04 2.04 0 0 1-2.42-1.35l-.11-.26a1.673 1.673 0 0 1 1.07-2.19l10.27-3.1c.05-.013.1-.023.16-.03 4.03-.167 9.84-1.11 17.42-2.83q3.165-.71 5.19-1.8c.18-.096.3-.288.3-.496 0-.244-.16-.46-.39-.534l-1.31-.44a2.56 2.56 0 0 0-2.04.17c-2.81 1.49-10.48 2.3-12.99-1.29-.05-.076-.1-.157-.14-.242a1.615 1.615 0 0 1 1.04-2.228q2.4-.64 4.35.65c.33.224.76.254 1.13.08 1.86-.9 4.53-1.447 8.02-1.64.22-.01.4-.183.41-.4l.01-.33v-.04c0-.32-.26-.585-.58-.59q-10.455-.15-21.15 1.33c-.94.127-1.59.437-1.94.93a.381.381 0 0 0 .31.6q.675.02 4.08.1a1.544 1.544 0 0 1 1.44 2q-.39 1.19-2.19 1.54-6.72 1.3-14.79 4.24a.61.61 0 0 0-.41.585c0 .189.08.367.23.485l1.21.95c.28.224.45.565.45.926 0 .396-.2.766-.53.984-2.79 1.813-6.86 4.56-12.2 8.24-2.67 1.83-4.02 3.29-6.04 5.25-1.84 1.77-4.07 1.66-5.07 4.46a2.316 2.316 0 0 1-2.9 1.42q-.975-.32-.99-1.51c-.01-1.193.53-2.01 1.64-2.45 2.04-.81 3.03-2.61 4.34-3.89q7.005-6.85 13.41-10.88c.01-.005.02-.01.02-.016a.344.344 0 0 0 .08-.482c-.01-.008-.01-.015-.02-.022l-.25-.28a.27.27 0 0 0-.33-.06l-10.7 5.48c-.53.269-.98.66-1.33 1.14-1.49 2.007-3.03 3.78-4.64 5.32-4.72 4.51-5.74 5.78-10.09 10.44-1.86 2-3.35 3.823-4.46 5.47-1.93 2.847-4.29 5.807-7.09 8.88-.65.708-1.74.816-2.51.25l-.1-.08a2.07 2.07 0 0 1-.29-2.86l13.28-16.98a.35.35 0 0 0 .06-.197.34.34 0 0 0-.54-.273 494 494 0 0 1-7.23 5.73c-2 1.55-3.44 3.39-5.32 5.39-2.01 2.15-5.8 3.53-7.81 6.46q-1.785 2.61-3.06 3.86c-4.85 4.79-5.86 8.68-9.17 16.49-.86 2.02-.79 3.69-.17 5.68.03.103.05.211.05.319 0 .517-.37.964-.88 1.061q-2.58.51-3.27 3.15c-.46 1.76-1.29 4.12-1.69 6.21-1.88 9.98-2.62 20.413-2.21 31.3.07 1.947.39 3.533.95 4.76.16.346.52.555.9.52q1.02-.1 1.71.46a.709.709 0 0 0 1.15-.55c.01-4.37-1.79-9.35-.93-15.11 0-.024.01-.047.01-.071.16-.747.85-1.246 1.54-1.104.03.004.05.009.07.015q.075.02.72.65c.08.087.49 1.063 1.22 2.93.06.169.22.282.4.282.22 0 .4-.16.43-.372.64-3.92.23-9.39 2.29-12.74 2.34-3.81 4.19-7.61 6.36-11.69a1.8 1.8 0 0 1 .92-.82c1.24-.49 2.21-.38 3.34-1.17a90 90 0 0 0 6.14-4.69c2.7-2.25 4.95-3.4 8.08-4.98 1.95-.993 3.82-2.963 5.6-5.91a2.07 2.07 0 0 1 1.77-1h.5c.57 0 1.03.465 1.03 1.03 0 .148-.03.295-.09.43m161.74 55.43c-.43.207-.71.477-.83.81q-.195.55.45.86c1.05.5 1.56.12 1.54-1.14 1.15-2.273 1.67-4.127 1.58-5.56-.38-5.713-.24-11.46.43-17.24.05-.445.05-.898-.01-1.35l-1.03-7.88a.6.6 0 0 1 .06-.319.57.57 0 0 1 .76-.256c.1.05.18.128.23.225l2.48 4.5c.08.152.13.315.15.48l1.7 16.68c.01.073.06.13.13.13h.01a.087.087 0 0 0 .08-.09c.59-8.78.99-14.01-1.33-19.79-.38-.962-.63-1.975-.74-3.01-.31-3.1-.65-6.48-1.58-9.27-1.62-4.88-2.32-9.2-4.35-14.63-3.98-10.64-6.69-19.19-12.29-25.63-5.15-5.93-8.78-13.25-16.11-17.38-2.8-1.58-5.96-4.36-9.39-5.81a7.8 7.8 0 0 0-1.89-.54l-3.8-.58a.94.94 0 0 1-.74-.59c-1-2.6-1.14-4.82-3.14-6.73a.27.27 0 0 0-.18-.067.27.27 0 0 0-.27.27c0 .022 0 .045.01.067.41 1.473.54 3.017.37 4.63a.93.93 0 0 1-.51.75c-2.02 1.06-3.12-.41-3.84-2.38-.42-1.153-1.12-2.247-2.11-3.28a1.74 1.74 0 0 0-1.82-.44l-2.51.85-.08.025a1.35 1.35 0 0 1-1.64-.943c-.01-.031-.01-.061-.02-.092-.35-1.747-1.38-2.88-3.11-3.4q-4.725-1.44-9.42-3.04a.3.3 0 0 0-.09-.014c-.16 0-.3.136-.3.3 0 .076.03.149.08.204 2.15 2.213 3.73 4.913 4.76 8.1a1.82 1.82 0 0 1-1.02 2.23l-1.54.64a1.465 1.465 0 0 1-1.99-1.03l-.89-3.86a.754.754 0 0 0-.73-.589c-.19 0-.36.067-.5.189l-2.14 1.91c-.86.767-2.16.809-3.06.1l-1.79-1.41a1.92 1.92 0 0 0-2.28-.06l-11.77 8.26a.44.44 0 0 0-.2.378.45.45 0 0 0 .6.422l8.33-2.83a.63.63 0 0 1 .64.13c.42.393.75.903.98 1.53a.618.618 0 0 0 1.03.21q2.085-2.22 4.29-.41c.03.023.06.047.08.072.79.737.7 2.142-.21 3.113l-.09.095c-1.61 1.58-3.1 3.08-4.48 4.5a.77.77 0 0 0-.16.83l1.67 3.99q.045.1.12.176c.22.211.56.211.77-.001a.6.6 0 0 0 .12-.185l2.54-6.4c.15-.379.42-.701.76-.92.91-.575 2.12-.31 2.69.588.22.346.33.752.3 1.162q-.24 4.03-2.91 8.97c-.73 1.347-3.24 3.79-7.55 7.33-.45.373-2.8 2.063-7.03 5.07-2.44 1.74-5.74 4.08-5.41 7.33q.015.16.09.305c.22.443.76.631 1.19.415.1-.047.19-.112.26-.19l9.92-10.57a.5.5 0 0 1 .19-.13l2.83-.96c.26-.092.49-.251.67-.46q4.995-6.02 11.76-10.53c2.56-1.7 6.02-5.11 7.54-6.69.21-.22.23-.554.06-.79q-2.355-3.2-1.74-7.91c.04-.366.23-.699.51-.93.51-.4 1.4-.713 2.68-.94 1.99-.34 4.13 2.81 5.24 4.31q.075.11.15.229c.61 1.081.21 2.472-.87 3.084q-.12.065-.24.117l-2.11.89a.7.7 0 0 0-.17.102.73.73 0 0 0-.13 1.017q.06.081.15.141.855.62 1.23 1.65c.06.168.04.351-.07.48l-6.83 8.71a.733.733 0 0 0 .88 1.11l12.34-5.81c.2-.094.35-.275.4-.49l1.45-5.89c.05-.2 0-.413-.14-.57l-1.51-1.69a.91.91 0 0 1-.18-.88q1.02-3.07 3.9-3.25c.37-.026.74.114.99.38q7.065 7.4 9.54 10.56 3.93 5.01 3.54 12.22c-.02.354.06.706.22 1.02l4.15 8.1c.11.214.06.481-.13.64-1.62 1.35-2.87 4.13-5.56 2.29a.26.26 0 0 0-.14-.04c-.13 0-.25.113-.25.25q0 .058.03.11c1.6 3.173 2.92 6.917 3.95 11.23q1.425 5.9 6.21 16.27c1.58 3.42 2.26 7.77 3.73 12.03q2.325 6.74 2.4 6.97c.06.209.25.353.47.353.27 0 .49-.221.49-.49v-13.196a.513.513 0 0 0-.66-.487c-.75.233-1.39.327-1.91.28-.56-.053-1.01-.683-1.36-1.89-.5-1.773-.77-2.92-.82-3.44-.86-9.39-3.35-16.25-6.62-24.48-.22-.547-.34-1.433-.37-2.66v-.031c0-.916.75-1.67 1.67-1.67.54 0 1.05.261 1.36.701q2.235 3.14 2.91 7.45c.69 4.467 1.67 8.867 2.93 13.2 1.06 3.67 1.52 6.73 2.37 9.95.01.02.03.033.05.033a.05.05 0 0 0 .03-.013l3.49-3.49a.52.52 0 0 0 .14-.47q-1.53-6.72-2.97-15.68-1.11-6.89-4.02-12.49a3.2 3.2 0 0 1-.25-.66l-2.75-11.26a1.086 1.086 0 0 1 1.05-1.34c.15 0 .29.031.43.09l.28.09a3.4 3.4 0 0 1 2.11 2.02l2.15 5.62c.52 1.357.91 2.76 1.16 4.19 1.05 5.86 1.74 11.14 4.27 17.1.58 1.369.91 2.832.98 4.32.15 3.167.04 6.703-.32 10.61q-.06.65-.84 1.97c-.17.273-.25.591-.23.91.24 4-.22 8.66.02 11.94.33 4.453.29 7.37-.1 8.75-.36 1.227-.8 2.847-1.31 4.86a4 4 0 0 0-.02 1.92l2.56 11.24c.05.238.26.411.5.411.27 0 .5-.218.51-.491l.87-14.6c.04-.725.52-1.356 1.21-1.59l.69-.23a.906.906 0 0 1 1.19.84c.05 4.753 1.65 9.163 4.78 13.23.04.054.1.087.17.087.11 0 .21-.093.21-.207l.88-14.87c.03-.51.46-.914.97-.914.32 0 .62.159.8.424.94 1.36 1.45 3.037 1.52 5.03.17 4.707.29 9.427.34 14.16M1279.7 434.03l13.53-4.6.01-.004a.57.57 0 0 0 .33-.731c-.01-.005-.01-.01-.01-.015l-.13-.31a1.29 1.29 0 0 0-1.74-.67l-12.21 5.69c-.02.005-.04.031-.04.06l-.04.33v.032a.23.23 0 0 0 .3.218m52.97-1.753c-.23-.417-3.52.961-7.27 3.053-3.76 2.092-6.66 4.156-6.43 4.573s3.52-.961 7.27-3.053c3.76-2.092 6.66-4.156 6.43-4.573m-69.06 12.673a.38.38 0 0 0-.1.247.36.36 0 0 0 .54.313l12.22-7.05a.13.13 0 0 0 .06-.111c0-.071-.06-.13-.13-.13l-.01.001c-4.75.533-8.95 2.777-12.58 6.73m75.7-6.5c-2.91 1.06-7.94 2.51-10.79.98a.64.64 0 0 0-.3-.076c-.33 0-.61.25-.65.576l-.47 4.51v.007c-.02.235.15.448.39.472l.01.001c.5.033 1.05.513 1.64 1.44.01.021.03.04.04.059.21.261.6.301.87.089.02-.015.03-.031.05-.048 2.64-2.633 5.85-4.967 9.62-7 .23-.127.35-.4.27-.65v-.02a.53.53 0 0 0-.5-.373.5.5 0 0 0-.18.033m41.61 8.81a.74.74 0 0 0 1.21.73l3.22-2.87c.45-.404.53-1.086.18-1.58l-1.82-2.6a.728.728 0 0 0-1.3.25zm-7.29 23.74c3.4-3.407 5.53-6.65 6.4-9.73q1.635-5.77 2.37-7.43a.2.2 0 0 0 .02-.082.22.22 0 0 0-.22-.212c-.03 0-.06.005-.08.014l-1.58.67a1.17 1.17 0 0 1-1.58-.793.5.5 0 0 1-.03-.177l-.23-2.56a.674.674 0 0 0-.67-.602c-.2 0-.39.093-.52.252-.01.007-1.55 1.09-4.64 3.25-.52.36-2.21.943-5.06 1.75q-4.095 1.17-6.84 4.68c-1.89 2.42-3.33 3.74-5.31 5.55a.48.48 0 0 0-.17.354.464.464 0 0 0 .66.416l3.09-1.3a.893.893 0 0 1 1.22.827.87.87 0 0 1-.15.493c-1.62 2.36-3.75 4.13-5.38 6.49-1.4 2.013-2.89 3.543-4.48 4.59-2.49 1.647-4.19 2.95-5.08 3.91a.7.7 0 0 0-.18.452c0 .367.31.67.68.67l.04-.002 3-.24a3.96 3.96 0 0 0 2.66-1.34c1.99-2.253 4.49-3.83 7.51-4.73a.32.32 0 0 0 .21-.293.316.316 0 0 0-.27-.307l-.79-.08c-.54-.06-.98-.467-1.08-1-.27-1.433.1-2.69 1.09-3.77 1.55-1.693 3.15-3.747 4.81-6.16q2.01-2.93 6.3-6.65.075-.063.15-.114a1.33 1.33 0 0 1 1.83.403c.04.052.06.105.09.161.53 1.14.52 2.793-.02 4.96-.11.461.17.933.63 1.05l1.93.47a1.606 1.606 0 0 1 1.12 2.117c-.02.055-.04.11-.07.163l-1.8 3.58a.263.263 0 0 0 .23.384c.07 0 .14-.03.19-.084m-34.22-17.82c-2.47 1.34-4.95 1.413-7.43.22a.69.69 0 0 0-.7.06q-4.77 3.33-7.95 7.45c-.01.018-.03.036-.04.055a1.16 1.16 0 0 0 .29 1.607l.06.038 3.39 2.06c.51.305 1.14.297 1.64-.02q6.765-4.32 11.01-11.18a.2.2 0 0 0 .03-.101c0-.115-.09-.213-.19-.216a.2.2 0 0 0-.11.027m19.2 2.87a.84.84 0 0 0 .22-.562c0-.456-.38-.83-.83-.83-.16 0-.32.046-.45.132-4.37 2.987-7.85 6.043-10.45 9.17-2.97 3.59-5.3 5.28-9.47 9.18q-4.515 4.21-7.68 6.18a112 112 0 0 1-9.55 5.31.66.66 0 0 0-.39.6c0 .353.29.647.64.66 2.62.17 4.61-.06 7.32-1.1a27 27 0 0 1 4.51-1.31 3.4 3.4 0 0 0 1.45-.67c.67-.533 1.35-1.043 2.06-1.53 2.24-1.54 5.45-2.34 7.63-3.42.21-.099.41-.238.57-.41l5.4-5.39a.72.72 0 0 0 .16-.79c-1.1-2.68.41-3.83 1.71-5.88 2.45-3.84 4.83-6.953 7.15-9.34m28.45 7.05a1.5 1.5 0 0 0-.04 1.8l2.26 3.23c.11.152.29.242.47.242.32 0 .58-.262.58-.58v-.042l-.57-7.1a.356.356 0 0 0-.35-.319c-.1 0-.2.047-.27.129zm-47.89 22.85v-.007c-.08-.121-.24-.16-.35-.087-.01.002-.01.003-.01.004a445 445 0 0 0-11.67 7.53c-.8.534-1.88.397-2.55-.32-.32-.347-.51-.68-.58-1-.05-.26.09-.6.43-1.02.28-.353.5-.72.65-1.1q.03-.073.03-.152a.415.415 0 0 0-.51-.398c-3.17.78-9.14 2.47-11.3-.47-.33-.46-.74-.507-1.25-.14q-5.91 4.29-11.43 5.28c-5.99 1.06-8.94 2.6-15.43 4.39-2.8.773-4.9.363-6.29-1.23a.64.64 0 0 0-.87-.09c-1.87 1.407-4.31 3.04-7.3 4.9-1.91 1.187-3.39 1.207-4.42.06a.73.73 0 0 0-.9-.15c-1.5.84-4.22 2.037-8.17 3.59-1.89.74-3.66.237-5.29-1.51a.744.744 0 0 0-1.05-.03c-1.07 1.02-3.42 2.967-7.06 5.84-.94.74-1.68 1.853-2.21 3.34-3.2 8.9-3.76 17.14-2.81 27.23.65 6.867.97 10.687.97 11.46q.03 5.01 1.2 11.4c2.61 14.313 6.03 27.833 10.27 40.56 4.08 12.25 9.06 23.12 16.68 32.3 9.02 10.88 23.1 17.79 38.15 20.74q38.625 7.59 71.91-11.82c19.42-11.327 31.64-28.337 36.67-51.03.07-.311.04-.636-.1-.92-1.1-2.37-.63-5.15 2.69-4.66.94.14 1.86.927 2.77 2.36.22.343.57.576.97.64q5.58.85 10.5-3.64c7.87-7.173 11.54-15.91 11-26.21q-.375-6.94-4.41-10.26-5.67-4.67-11.31-1.89c-3.66 1.8-6.61 7.14-7.26 11.19-.31 1.97-1.42 3.44-3.55 2.43a.84.84 0 0 1-.42-.46l-1.86-4.71a.7.7 0 0 1-.05-.21l-2.94-22.6a1.58 1.58 0 0 0-.69-1.09q-2.265-1.45-2.67-4.11c-1.89-12.34-5.18-21.83-10.68-38.24a1.05 1.05 0 0 0-.95-.72c-1.56-.07-2.14-.38-2.72-2.1a46 46 0 0 0-2.33-5.63.8.8 0 0 1-.08-.46l.22-2.11c.03-.282-.05-.565-.22-.79a90 90 0 0 0-1.16-1.48c-.11-.053-1.92-3.783-5.41-11.19a.39.39 0 0 0-.36-.229c-.12 0-.24.059-.31.159-5.37 7.173-11.55 13.7-18.52 19.58a1.72 1.72 0 0 1-2.52-.33l-.88-1.25-.03-.043c-.23-.258-.62-.292-.87-.074-.01.012-.03.024-.04.037-.39.41-.57.83-.92 1.08-3.83 2.73-9.09 6.44-13.42 3.96a1.37 1.37 0 0 0-.99-.15c-2.29.51-5.4 1.41-7.05-1.1-.5-.747-.12-1.557 1.15-2.43a.14.14 0 0 0 .04-.19zm-15.39-13.71c-2.74.767-4.79 1.647-6.16 2.64q-7.185 5.24-14.55 7.09c-.55.133-2.05.807-4.52 2.02a.78.78 0 0 0-.44.701c0 .412.33.757.74.779 4.34.23 10.27-.81 14.74-3.93 1.04-.727 4.14-2.417 9.31-5.07q2.94-1.52 1.62-3.92a.646.646 0 0 0-.74-.31m-51.29 21.118a.92.92 0 0 0-1.25-.356l-6.47 3.599a.92.92 0 0 0-.47.803c0 .157.04.311.11.448l.04.07c.17.291.47.472.81.472.15 0 .31-.04.44-.116l6.47-3.599a.92.92 0 0 0 .47-.803 1 1 0 0 0-.11-.448zm164.41 49.569c-.22-.178-.59-.083-.83.209-.24.293-.26.68-.05.857.22.178.59.083.83-.209.24-.293.26-.68.05-.857m-203.6 19.739c-.39.099-.22 2.15.38 4.544.6 2.395 1.42 4.283 1.82 4.184.39-.099.22-2.15-.38-4.544-.6-2.395-1.42-4.283-1.82-4.184m15.35 50.394c.02-.34-1.9-4.93-2.47-6.88-2.36-7.967-4.98-17.06-7.85-27.28a1.34 1.34 0 0 0-1.28-.974c-.29 0-.58.096-.81.274-5.78 4.42-4.22 13.39-1.45 19.37 2.79 6.02 6.92 13.09 13.12 15.93q.045.02.09.032c.28.071.56-.102.63-.383a.3.3 0 0 0 .02-.089m71.73 52.2c.48 4.88.73 9.88-4.81 10.31a.41.41 0 0 0-.39.4q-.18 7.44 7.05 10.13c3.67 1.36 7.18 2.047 10.52 2.06q26.145.13 45.69-16.8c.2-.171.31-.421.31-.683a.9.9 0 0 0-1.05-.887l-.84.14a.5.5 0 0 1-.15 0c-6.95-1.71-7.16-7.86-8.18-13.38a.44.44 0 0 0-.61-.32c-14.68 6.49-30.74 9.41-46.87 8.34l-.04-.001a.63.63 0 0 0-.63.63z" style="fill:#010101;fill-rule:nonzero" transform="translate(-1220.11 -410.936)"/><path d="M1354.21 423.8q-1.515-1.29-4.02.91c-.73.642-1.82.676-2.58.08l-7.13-5.59a.47.47 0 0 1-.17-.365c0-.233.17-.432.4-.465 4.46-.6 11.41.68 13.77 5.21.01.023.02.049.02.075 0 .098-.09.18-.18.18a.2.2 0 0 1-.11-.035m-84.94 62.26c.06-.135.09-.282.09-.43 0-.565-.46-1.03-1.03-1.03h-.5c-.72.001-1.4.381-1.77 1-1.78 2.947-3.65 4.917-5.6 5.91-3.13 1.58-5.38 2.73-8.08 4.98a90 90 0 0 1-6.14 4.69c-1.13.79-2.1.68-3.34 1.17a1.8 1.8 0 0 0-.92.82c-2.17 4.08-4.02 7.88-6.36 11.69-2.06 3.35-1.65 8.82-2.29 12.74a.43.43 0 0 1-.43.372.42.42 0 0 1-.4-.282c-.73-1.867-1.14-2.843-1.22-2.93q-.645-.63-.72-.65a.4.4 0 0 0-.07-.015c-.69-.142-1.38.357-1.54 1.104 0 .024-.01.047-.01.071-.86 5.76.94 10.74.93 15.11a.709.709 0 0 1-1.15.55q-.69-.56-1.71-.46a.9.9 0 0 1-.9-.52c-.56-1.227-.88-2.813-.95-4.76-.41-10.887.33-21.32 2.21-31.3.4-2.09 1.23-4.45 1.69-6.21q.69-2.64 3.27-3.15c.51-.097.88-.544.88-1.061 0-.108-.02-.216-.05-.319-.62-1.99-.69-3.66.17-5.68 3.31-7.81 4.32-11.7 9.17-16.49q1.275-1.25 3.06-3.86c2.01-2.93 5.8-4.31 7.81-6.46 1.88-2 3.32-3.84 5.32-5.39q3.3-2.56 7.23-5.73a.339.339 0 0 1 .54.273c0 .07-.02.139-.06.197l-13.28 16.98a2.07 2.07 0 0 0 .29 2.86l.1.08c.77.566 1.86.458 2.51-.25 2.8-3.073 5.16-6.033 7.09-8.88 1.11-1.647 2.6-3.47 4.46-5.47 4.35-4.66 5.37-5.93 10.09-10.44 1.61-1.54 3.15-3.313 4.64-5.32.35-.48.8-.871 1.33-1.14l10.7-5.48a.27.27 0 0 1 .33.06l.25.28c.01.007.01.014.02.022.11.149.08.366-.08.482 0 .006-.01.011-.02.016q-6.405 4.03-13.41 10.88c-1.31 1.28-2.3 3.08-4.34 3.89-1.11.44-1.65 1.257-1.64 2.45q.015 1.19.99 1.51a2.316 2.316 0 0 0 2.9-1.42c1-2.8 3.23-2.69 5.07-4.46 2.02-1.96 3.37-3.42 6.04-5.25 5.34-3.68 9.41-6.427 12.2-8.24.33-.218.53-.588.53-.984 0-.361-.17-.702-.45-.926l-1.21-.95a.61.61 0 0 1-.23-.485c0-.263.16-.498.41-.585q8.07-2.94 14.79-4.24 1.8-.35 2.19-1.54a1.544 1.544 0 0 0-1.44-2q-3.405-.08-4.08-.1a.381.381 0 0 1-.31-.6c.35-.493 1-.803 1.94-.93q10.695-1.48 21.15-1.33c.32.005.58.27.58.59v.04l-.01.33a.426.426 0 0 1-.41.4c-3.49.193-6.16.74-8.02 1.64-.37.174-.8.144-1.13-.08q-1.95-1.29-4.35-.65a1.615 1.615 0 0 0-1.04 2.228c.04.085.09.166.14.242 2.51 3.59 10.18 2.78 12.99 1.29a2.56 2.56 0 0 1 2.04-.17l1.31.44c.23.074.39.29.39.534 0 .208-.12.4-.3.496q-2.025 1.09-5.19 1.8c-7.58 1.72-13.39 2.663-17.42 2.83a1 1 0 0 0-.16.03l-10.27 3.1a1.673 1.673 0 0 0-1.07 2.19l.11.26a2.04 2.04 0 0 0 2.42 1.35c3.31-.8 5.44-2.42 8.78-2.31 1.25.04 2.78-.263 4.57-.91.01-.004.03-.007.04-.009.09-.008.17.053.17.134v.045c0 .02-11.21 7.22-12.36 8.06-.45.325-1 .497-1.56.49-2.8-.047-5.21.56-7.22 1.82-6.65 4.14-12.43 7.617-17.33 10.43-3.13 1.79-5.87 5.89-8.37 7.65-2.63 1.847-5.69 4.13-9.17 6.85-.23.179-.49.33-.76.45-2.07.927-3.8 2.303-5.18 4.13-.17.233-.26.515-.25.8l.02.65c.03.917-.24 1.82-.75 2.58-1.86 2.71-4.11 6.04-7.15 8.64-1.23 1.033-3.09 2.717-5.6 5.05-1.63 1.52-3.01 2.2-4.61 3.24a.94.94 0 0 0-.43.776c0 .375.23.714.58.854l.99.4c.66.266 1.41.107 1.9-.4 2.1-2.18 6.98-3.16 8.99-6.73 2.15-3.807 4.6-6.73 7.37-8.77 2.03-1.5 3.93-3.99 5.66-6.08a6.3 6.3 0 0 1 1.73-1.45q3.915-2.26 6.03-4.67c5.71-6.52 12.6-10.78 19.57-15.62a.4.4 0 0 1 .52.06l.22.25c.02.03.04.068.04.107 0 .058-.03.112-.08.143-4.11 2.813-7.25 5.68-9.43 8.6a1.94 1.94 0 0 0 .66 2.87c.1.048.19.088.29.12.67.22 1.32.12 1.94-.3 1.89-1.293 3.55-2.393 5-3.3a6.9 6.9 0 0 0 1.8-1.62l1.16-1.48a.783.783 0 0 1 1.02-.18q1.41.88 2.79 1.11c.61.106 1.23-.101 1.65-.55 1.81-1.94 3.62-3.58 5.41-4.92q.045-.033.09-.062c.46-.283 1.05-.177 1.3.236.02.027.04.056.05.086q.48 1.09 1.5 1.23c.34.051.69-.039.96-.25 2-1.553 5.48-3.4 10.45-5.54 2.79-1.207 5.38-1.8 7.78-1.78.08 0 .16.025.23.07.19.124.24.377.12.56a.4.4 0 0 1-.19.15l-3.27 1.37a.98.98 0 0 0-.55.58l-1.09 3.25c-.19.553-.65.97-1.21 1.1-3.7.84-7.05 2.427-10.04 4.76-4.16 3.23-7.85 4.58-11.95 5.51a2.295 2.295 0 0 0-1.62 3.049c.04.1.09.197.14.291l.17.29a4.046 4.046 0 0 0 4.66 1.83l18.15-5.48c.06-.02.13-.031.2-.031.37 0 .68.307.68.68 0 .162-.06.318-.16.441-2.37 2.87-5.12 4.77-8.96 6.28-5.62 2.207-10.12 4.267-13.51 6.18a.96.96 0 0 1-1.14-.16l-2.08-2.08c-.5-.501-1.3-.556-1.87-.13-1.55 1.173-5.46 2.71-11.72 4.61-6.55 1.99-11.06 7.48-17.18 10.91a.34.34 0 0 1-.44-.12l-.04-.07a.31.31 0 0 1 .07-.4c2.04-1.653 3.56-3.553 4.55-5.7m-24.22-12.63-.17-.09-.09-.044c-1-.455-2.2-.004-2.65 1-.02.027-.03.056-.04.084-1.47 3.667-2.96 6.803-4.48 9.41-.6 1.027-1.49 4.253-2.66 9.68-.03.103-.04.21-.04.318a1.05 1.05 0 0 0 1.39.952l.26-.09a2.76 2.76 0 0 0 1.78-1.99c.76-3.26 2.74-5.66 3.56-8.85.5-1.953 1.79-4.463 3.86-7.53a1.964 1.964 0 0 0-.72-2.85m-7.53 23.54c-.01-.01-.02-.02-.02-.03-.84-.96-2.39-1.004-3.43-.097l-.03.027c-2.1 1.89-3.64 7.63-5.65 13.06-1.16 3.11-1.52 5.86-1.02 8.98q.015.128.06.252c.33 1.199 1.58 1.913 2.76 1.582q.12-.035.24-.084.135-.05.48-.49c.2-.261.32-.57.35-.89q.33-3.88.42-7.14c.16-5.79 3.2-8.17 5.37-11.94.86-1.507 1.02-2.583.47-3.23" style="fill:#261609;fill-rule:nonzero" transform="translate(-1220.11 -410.936)"/><path d="M1432.17 542.02c-.23-.413-.62-.59-1.16-.53-.05-4.733-.17-9.453-.34-14.16-.07-1.993-.58-3.67-1.52-5.03a.97.97 0 0 0-.8-.424c-.51 0-.94.404-.97.914l-.88 14.87c0 .114-.1.207-.21.207a.21.21 0 0 1-.17-.087c-3.13-4.067-4.73-8.477-4.78-13.23a.906.906 0 0 0-1.19-.84l-.69.23c-.69.234-1.17.865-1.21 1.59l-.87 14.6a.514.514 0 0 1-.51.491.516.516 0 0 1-.5-.411l-2.56-11.24a4 4 0 0 1 .02-1.92c.51-2.013.95-3.633 1.31-4.86.39-1.38.43-4.297.1-8.75-.24-3.28.22-7.94-.02-11.94-.02-.319.06-.637.23-.91q.78-1.32.84-1.97c.36-3.907.47-7.443.32-10.61-.07-1.488-.4-2.951-.98-4.32-2.53-5.96-3.22-11.24-4.27-17.1a22.6 22.6 0 0 0-1.16-4.19l-2.15-5.62a3.4 3.4 0 0 0-2.11-2.02l-.28-.09c-.14-.059-.28-.09-.43-.09a1.086 1.086 0 0 0-1.05 1.34l2.75 11.26c.06.226.14.447.25.66q2.91 5.6 4.02 12.49 1.44 8.96 2.97 15.68a.52.52 0 0 1-.14.47l-3.49 3.49a.05.05 0 0 1-.03.013.06.06 0 0 1-.05-.033c-.85-3.22-1.31-6.28-2.37-9.95a104 104 0 0 1-2.93-13.2q-.675-4.31-2.91-7.45c-.31-.44-.82-.701-1.36-.701-.92 0-1.67.754-1.67 1.67v.031c.03 1.227.15 2.113.37 2.66 3.27 8.23 5.76 15.09 6.62 24.48.05.52.32 1.667.82 3.44.35 1.207.8 1.837 1.36 1.89.52.047 1.16-.047 1.91-.28a.513.513 0 0 1 .66.487v13.196c0 .269-.22.49-.49.49a.49.49 0 0 1-.47-.353q-.075-.23-2.4-6.97c-1.47-4.26-2.15-8.61-3.73-12.03q-4.785-10.37-6.21-16.27c-1.03-4.313-2.35-8.057-3.95-11.23a.2.2 0 0 1-.03-.11c0-.137.12-.25.25-.25.05 0 .1.014.14.04 2.69 1.84 3.94-.94 5.56-2.29a.52.52 0 0 0 .13-.64l-4.15-8.1a2 2 0 0 1-.22-1.02q.39-7.21-3.54-12.22-2.475-3.16-9.54-10.56a1.25 1.25 0 0 0-.99-.38q-2.88.18-3.9 3.25a.91.91 0 0 0 .18.88l1.51 1.69c.14.157.19.37.14.57l-1.45 5.89a.73.73 0 0 1-.4.49l-12.34 5.81q-.15.065-.3.065a.733.733 0 0 1-.58-1.175l6.83-8.71a.48.48 0 0 0 .07-.48 3.44 3.44 0 0 0-1.23-1.65.6.6 0 0 1-.15-.141.73.73 0 0 1 .13-1.017.7.7 0 0 1 .17-.102l2.11-.89q.12-.052.24-.117c1.08-.612 1.48-2.003.87-3.084q-.075-.119-.15-.229c-1.11-1.5-3.25-4.65-5.24-4.31-1.28.227-2.17.54-2.68.94-.28.231-.47.564-.51.93q-.615 4.71 1.74 7.91c.17.236.15.57-.06.79-1.52 1.58-4.98 4.99-7.54 6.69q-6.765 4.51-11.76 10.53a1.6 1.6 0 0 1-.67.46l-2.83.96a.5.5 0 0 0-.19.13l-9.92 10.57a.8.8 0 0 1-.26.19c-.43.216-.97.028-1.19-.415a.8.8 0 0 1-.09-.305c-.33-3.25 2.97-5.59 5.41-7.33 4.23-3.007 6.58-4.697 7.03-5.07 4.31-3.54 6.82-5.983 7.55-7.33q2.67-4.94 2.91-8.97c.03-.41-.08-.816-.3-1.162-.57-.898-1.78-1.163-2.69-.588-.34.219-.61.541-.76.92l-2.54 6.4a.6.6 0 0 1-.12.185.546.546 0 0 1-.89-.175l-1.67-3.99a.77.77 0 0 1 .16-.83c1.38-1.42 2.87-2.92 4.48-4.5l.09-.095c.91-.971 1-2.376.21-3.113a.5.5 0 0 0-.08-.072q-2.205-1.81-4.29.41a.618.618 0 0 1-1.03-.21c-.23-.627-.56-1.137-.98-1.53a.63.63 0 0 0-.64-.13l-8.33 2.83a.45.45 0 0 1-.6-.422.44.44 0 0 1 .2-.378l11.77-8.26a1.92 1.92 0 0 1 2.28.06l1.79 1.41c.9.709 2.2.667 3.06-.1l2.14-1.91a.75.75 0 0 1 .5-.189c.35 0 .65.246.73.589l.89 3.86a1.465 1.465 0 0 0 1.99 1.03l1.54-.64a1.82 1.82 0 0 0 1.02-2.23c-1.03-3.187-2.61-5.887-4.76-8.1a.3.3 0 0 1-.08-.204c0-.164.14-.3.3-.3q.045 0 .09.014 4.695 1.6 9.42 3.04c1.73.52 2.76 1.653 3.11 3.4.01.031.01.061.02.092.19.705.93 1.131 1.64.943l.08-.025 2.51-.85c.64-.22 1.35-.048 1.82.44.99 1.033 1.69 2.127 2.11 3.28.72 1.97 1.82 3.44 3.84 2.38a.93.93 0 0 0 .51-.75 12.3 12.3 0 0 0-.37-4.63c-.01-.022-.01-.045-.01-.067 0-.149.12-.27.27-.27q.105.001.18.067c2 1.91 2.14 4.13 3.14 6.73.12.316.41.541.74.59l3.8.58c.65.1 1.29.281 1.89.54 3.43 1.45 6.59 4.23 9.39 5.81 7.33 4.13 10.96 11.45 16.11 17.38 5.6 6.44 8.31 14.99 12.29 25.63 2.03 5.43 2.73 9.75 4.35 14.63.93 2.79 1.27 6.17 1.58 9.27.11 1.035.36 2.048.74 3.01 2.32 5.78 1.92 11.01 1.33 19.79 0 .046-.03.085-.08.09h-.01c-.07 0-.12-.057-.13-.13l-1.7-16.68a1.4 1.4 0 0 0-.15-.48l-2.48-4.5a.5.5 0 0 0-.23-.225.57.57 0 0 0-.76.256.6.6 0 0 0-.06.319l1.03 7.88c.06.452.06.905.01 1.35a95 95 0 0 0-.43 17.24c.09 1.433-.43 3.287-1.58 5.56m-5.42-53.74 4.66 13.7c.15.484.6.817 1.1.817.63 0 1.15-.519 1.15-1.15 0-.052 0-.105-.01-.157-1.12-10.41-4.86-18.13-9.66-28.91a16.3 16.3 0 0 0-2.23-3.63 33.8 33.8 0 0 1-5.32-9.05.474.474 0 0 0-.59-.28l-.27.09a.725.725 0 0 0-.46.89q1.215 3.89 3.99 8.95c1.86 3.367 3.21 7.417 4.06 12.15.19 1.041.22 2.106.1 3.16-.95 8.04-.92 17.6 1.13 25.2.19.726.85 1.237 1.6 1.237.9 0 1.65-.745 1.65-1.65 0-.052-.01-.105-.01-.157l-1.69-21.05v-.04a.41.41 0 0 1 .8-.12m-147.05-54.25a.23.23 0 0 1-.3-.218v-.032l.04-.33c0-.029.02-.055.04-.06l12.21-5.69a1.29 1.29 0 0 1 1.74.67l.13.31c0 .005 0 .01.01.015a.57.57 0 0 1-.33.731l-.01.004z" style="fill:#261609;fill-rule:nonzero" transform="translate(-1220.11 -410.936)"/><ellipse rx="7.84" ry=".87" style="fill:#261609" transform="rotate(-29.1 101.31 -191.06)"/><path d="M1263.61 444.95c3.63-3.953 7.83-6.197 12.58-6.73l.01-.001c.07 0 .13.059.13.13 0 .045-.02.087-.06.111l-12.22 7.05a.36.36 0 0 1-.54-.313c0-.092.04-.18.1-.247m75.7-6.5a.5.5 0 0 1 .18-.033c.23 0 .43.153.5.373v.02c.08.25-.04.523-.27.65-3.77 2.033-6.98 4.367-9.62 7-.02.017-.03.033-.05.048a.624.624 0 0 1-.87-.089c-.01-.019-.03-.038-.04-.059-.59-.927-1.14-1.407-1.64-1.44l-.01-.001a.436.436 0 0 1-.39-.472v-.007l.47-4.51a.66.66 0 0 1 .65-.576c.1 0 .21.026.3.076 2.85 1.53 7.88.08 10.79-.98m41.61 8.81 1.49-6.07a.728.728 0 0 1 1.3-.25l1.82 2.6c.35.494.27 1.176-.18 1.58l-3.22 2.87a.74.74 0 0 1-1.21-.73m-7.71 23.44 1.8-3.58a1.606 1.606 0 0 0-1.05-2.28l-1.93-.47a.876.876 0 0 1-.63-1.05c.54-2.167.55-3.82.02-4.96-.03-.056-.05-.109-.09-.161a1.33 1.33 0 0 0-1.83-.403q-.075.051-.15.114-4.29 3.72-6.3 6.65c-1.66 2.413-3.26 4.467-4.81 6.16-.99 1.08-1.36 2.337-1.09 3.77.1.533.54.94 1.08 1l.79.08c.15.021.27.153.27.307 0 .132-.09.25-.21.293-3.02.9-5.52 2.477-7.51 4.73a3.96 3.96 0 0 1-2.66 1.34l-3 .24-.04.002a.68.68 0 0 1-.68-.67c0-.167.07-.329.18-.452.89-.96 2.59-2.263 5.08-3.91 1.59-1.047 3.08-2.577 4.48-4.59 1.63-2.36 3.76-4.13 5.38-6.49a.87.87 0 0 0 .15-.493.893.893 0 0 0-1.22-.827l-3.09 1.3a.464.464 0 0 1-.66-.416.48.48 0 0 1 .17-.354c1.98-1.81 3.42-3.13 5.31-5.55q2.745-3.51 6.84-4.68c2.85-.807 4.54-1.39 5.06-1.75 3.09-2.16 4.63-3.243 4.64-3.25a.67.67 0 0 1 .52-.252c.35 0 .63.262.67.602l.23 2.56q0 .09.03.177a1.17 1.17 0 0 0 1.58.793l1.58-.67a.2.2 0 0 1 .08-.014.22.22 0 0 1 .22.212c0 .028-.01.056-.02.082q-.735 1.66-2.37 7.43c-.87 3.08-3 6.323-6.4 9.73a.26.26 0 0 1-.19.084.263.263 0 0 1-.23-.384m-33.8-17.52a.2.2 0 0 1 .11-.027c.1.003.19.101.19.216q0 .053-.03.101-4.245 6.86-11.01 11.18c-.5.317-1.13.325-1.64.02l-3.39-2.06-.06-.038a1.16 1.16 0 0 1-.29-1.607c.01-.019.03-.037.04-.055q3.18-4.12 7.95-7.45c.2-.147.47-.17.7-.06 2.48 1.193 4.96 1.12 7.43-.22m19.2 2.87c-2.32 2.387-4.7 5.5-7.15 9.34-1.3 2.05-2.81 3.2-1.71 5.88.11.273.05.585-.16.79l-5.4 5.39c-.16.172-.36.311-.57.41-2.18 1.08-5.39 1.88-7.63 3.42-.71.487-1.39.997-2.06 1.53-.42.335-.92.565-1.45.67-1.55.307-3.05.743-4.51 1.31-2.71 1.04-4.7 1.27-7.32 1.1a.67.67 0 0 1-.64-.66c0-.258.15-.493.39-.6a112 112 0 0 0 9.55-5.31q3.165-1.97 7.68-6.18c4.17-3.9 6.5-5.59 9.47-9.18 2.6-3.127 6.08-6.183 10.45-9.17a.8.8 0 0 1 .45-.132c.45 0 .83.374.83.83 0 .208-.08.409-.22.562" style="fill:#261609;fill-rule:nonzero" transform="translate(-1220.11 -410.936)"/><path d="M1426.75 488.28a.41.41 0 0 0-.8.12v.04l1.69 21.05c0 .052.01.105.01.157 0 .905-.75 1.65-1.65 1.65-.75 0-1.41-.511-1.6-1.237-2.05-7.6-2.08-17.16-1.13-25.2.12-1.054.09-2.119-.1-3.16-.85-4.733-2.2-8.783-4.06-12.15q-2.775-5.06-3.99-8.95a.725.725 0 0 1 .46-.89l.27-.09c.24-.079.5.045.59.28a33.8 33.8 0 0 0 5.32 9.05 16.3 16.3 0 0 1 2.23 3.63c4.8 10.78 8.54 18.5 9.66 28.91a1.156 1.156 0 0 1-1.14 1.307c-.5 0-.95-.333-1.1-.817z" style="fill:#010101;fill-rule:nonzero" transform="translate(-1220.11 -410.936)"/><path d="m1387.06 463.1 2.08-2.64a.36.36 0 0 1 .27-.129c.18 0 .33.139.35.319l.57 7.1v.042c0 .318-.26.58-.58.58-.18 0-.36-.09-.47-.242l-2.26-3.23a1.5 1.5 0 0 1 .04-1.8m-62.54 9.45q1.32 2.4-1.62 3.92c-5.17 2.653-8.27 4.343-9.31 5.07-4.47 3.12-10.4 4.16-14.74 3.93a.786.786 0 0 1-.74-.779c0-.298.17-.571.44-.701 2.47-1.213 3.97-1.887 4.52-2.02q7.365-1.85 14.55-7.09c1.37-.993 3.42-1.873 6.16-2.64.29-.082.59.047.74.31" style="fill:#261609;fill-rule:nonzero" transform="translate(-1220.11 -410.936)"/><path d="M1245.05 473.43a1.964 1.964 0 0 1 .72 2.85c-2.07 3.067-3.36 5.577-3.86 7.53-.82 3.19-2.8 5.59-3.56 8.85a2.76 2.76 0 0 1-1.78 1.99l-.26.09a1.05 1.05 0 0 1-1.39-.952c0-.108.01-.215.04-.318 1.17-5.427 2.06-8.653 2.66-9.68 1.52-2.607 3.01-5.743 4.48-9.41.01-.028.02-.057.04-.084a2.007 2.007 0 0 1 2.65-1l.09.044z" style="fill:#010101;fill-rule:nonzero" transform="translate(-1220.11 -410.936)"/><path d="M4.62-.04v.08a.92.92 0 0 1-.92.92h-7.4a.92.92 0 0 1-.92-.92v-.08a.92.92 0 0 1 .92-.92h7.4a.92.92 0 0 1 .92.92" style="fill:#261609" transform="rotate(-29.1 187.354 -50.804)"/><path d="M1237.52 496.97c.55.647.39 1.723-.47 3.23-2.17 3.77-5.21 6.15-5.37 11.94q-.09 3.26-.42 7.14c-.03.32-.15.629-.35.89q-.345.44-.48.49-.12.05-.24.084c-1.18.331-2.43-.383-2.76-1.582a1 1 0 0 1-.06-.252c-.5-3.12-.14-5.87 1.02-8.98 2.01-5.43 3.55-11.17 5.65-13.06l.03-.027c1.04-.907 2.59-.863 3.43.097 0 .01.01.02.02.03m113.18 29.31c4.08.12 8.93 1.537 14.54 4.25a3.28 3.28 0 0 1 1.79 3.54l-.02.15-.03.138a2.173 2.173 0 0 1-2.63 1.561c-.05-.011-.09-.024-.14-.039q-.015 0-5.01-2.5c-2.39-1.2-5.36-1.937-8.89-2.21q-5.295-.42-9.12.8c-3.55 1.133-5.32 1.7-5.33 1.7-.05.007-.09.013-.14.018a2.173 2.173 0 0 1-2.36-1.951c-.01-.045-.01-.091-.01-.137v-.16a3.276 3.276 0 0 1 2.31-3.21c5.97-1.813 10.99-2.463 15.04-1.95" style="fill:#010101;fill-rule:nonzero" transform="translate(-1220.11 -410.936)"/><path d="M1272.16 569.372c-.72 6.609.85 6.382 5.71 10.912 5.39 5.02 11.25-10.063-1.55-9.771-4.49.103-1.11 12.546 2.82 8.026 4.39-5.061-4.69-18.334-4.9-6.127-.01.739-.14 8.213 5.18 7.641.52-.056.46-3.505.33-4.109-.32-1.48-3.71-2.866-4.09-3.02m69.01-13.766a5.608 5.608 0 0 0 3.24 10.365c2.27-.008 6.29-3.368 4.87-5.486-.54-.809-7.02-10.446-10.17-6.709-6.01 7.153 11.17 17.019 8.74 5.255-1.5-7.274-9.07 3.563-4.4 4.016 4.16.402 4.81-10.005-1.19-9.577" style="fill:#ebebeb;stroke:#000;stroke-width:3.5px" transform="translate(-1220.11 -410.936)"/><path d="M1265.44 547.62c-3.45 1.96-6.34 4.07-8.16 7.73-.99 1.98-2.88 3.17-4.55 1.29a2.53 2.53 0 0 1-.29-2.96q4.125-6.94 10.47-10.54c4.23-2.393 9.03-3.577 14.41-3.55a2.54 2.54 0 0 1 2.39 1.77c.76 2.4-1.24 3.4-3.44 3.23-4.08-.31-7.38 1.07-10.83 3.03m167.51 14.26c.12.308.15.644.1.971-.16 1.014-1.11 1.719-2.11 1.563-.32-.05-.62-.186-.87-.394q-2.67-2.21-4.92 1.46c-.53.867-.84 2.357-.94 4.47a2.15 2.15 0 0 1-2.13 2.03l-.06.01-.06-.001a1.98 1.98 0 0 1-1.92-2.027v-.052c.21-4.44 1.51-8.96 6.25-10.45 2.53-.79 5.72-.02 6.66 2.42" style="fill:#010101;fill-rule:nonzero" transform="translate(-1220.11 -410.936)"/><ellipse rx="4.5" ry=".74" style="fill:#261609" transform="rotate(255.9 68.011 72.476)"/><path d="M1349.33 611.19a2.666 2.666 0 0 1-.4 3.42c-11.35 10.61-28.36 15.34-43.2 9.6v-.002a2.6 2.6 0 0 1-1.48-3.345v-.003l.08-.2c.01-.014.01-.028.02-.042a2.48 2.48 0 0 1 3.22-1.358l.05.02c2.66 1.153 4.54 1.813 5.63 1.98 12.13 1.85 23.82-2.6 32.93-10.58.38-.329.86-.511 1.36-.511.7 0 1.35.35 1.73.931z" style="fill:#010101;fill-rule:nonzero" transform="translate(-1220.11 -410.936)"/><path d="m1361.01 821.03-36.3 1.82c-5.4-.2-10.8-.37-16.21-.51-12.33-.32-24.36-1.427-36.07-3.32 3.73-22.073 6.73-40.92 9.01-56.54 1.08-7.42 2.16-16.63 3.25-27.63.01-.076.01-.153.01-.23a2.38 2.38 0 0 0-2.34-2.37h-.17a2.866 2.866 0 0 0-2.86 2.54c-1.25 11.29-2.48 18.17-4.93 33.51a.34.34 0 0 1-.38.27q-14.34-2.09-27.54-8.37a.717.717 0 0 1-.35-.92c1.83-4.24 3.59-8.033 5.29-11.38 7.96-15.633 12.52-24.497 13.67-26.59 4.16-7.55 8.79-15.44 14.56-22.76 7.69-9.75 17.86-16.88 28.95-21.44a.47.47 0 0 1 .64.4q.675 9.29 9.45 13.3c15.08 6.9 34.09 2.31 48.47-4.8 6.9-3.42 12.88-8.117 17.93-14.09a.53.53 0 0 1 .54-.16c8.52 2.58 16.49 6.15 23.9 10.71q17.58 10.83 24.78 30.45c6.01 16.37 7.53 33.12 7.02 50.39-.02.631-.39 1.2-.96 1.47-11.73 5.51-23.96 7.25-36.87 7.58q-13.35.34-26.28-3.62c-.63-.198-1-.85-.85-1.48 1.81-7.62 3.71-18.893 5.69-33.82a2.91 2.91 0 0 0-2.06-3.17l-.15-.04a2.233 2.233 0 0 0-2.83 1.83 467 467 0 0 1-6.49 35.46c-.88 3.95 1.48 5.79 4.75 6.77.41.12.65.547.55.96a302 302 0 0 1-14.82 45.78m73.06-5.02-7.53 1.52-9.18 1.26a978 978 0 0 1 3.99-10.88q6.525-17.43 9.84-33.07a.97.97 0 0 1 .62-.69l3.66-1.25a1 1 0 0 1 .1-.025c.38-.066.76.19.82.569.01.035.01.07.01.106.19 14.14-.58 28.293-2.33 42.46" style="fill:#ff6662;fill-rule:nonzero" transform="translate(-1220.11 -410.936)"/></svg>