<svg xmlns="http://www.w3.org/2000/svg" xml:space="preserve" style="fill-rule:evenodd;clip-rule:evenodd;stroke-linejoin:round;stroke-miterlimit:2" viewBox="0 0 695 655"><path d="M444.36 98.433c0-12.127 27.228-16.782 34.818-18.582 9.897-2.347 19.755-3.482 29.77-5.164 22.651-3.873 56.021-12.87 73.938 8.215 5.086 5.986 7.668 26.329 4.538 33.292-3.403 7.433-9.663 12.284-13.653 19.13-3.482 5.907 6.064 7.316 3.365 13.575-5.243 12.166-23.786 12.949-34.505 14.318-3.482.47-11.384 2.465-14.983.86-8.137-3.716-16.665-19.56-23.12-25.702-14.201-13.574-32.157-21.203-47.14-33.174-3.717-3.012-5.517-8.098-8.294-10.562"/><path d="M444.321 113.103c1.526 1.135 3.13 2.152 4.303 3.013 11.189 8.176 23.668 14.122 35.444 21.516 4.342 2.739 8.606 5.594 12.557 9.076 5.086 4.499 11.658 14.71 18.113 20.656 2.934 2.7 5.83 4.812 8.685 6.024 2.347.94 5.516 1.565 8.998 1.37 4.068-.274 8.841-1.448 11.462-1.878 8.333-1.291 20.851-2.621 29.653-7.785 5.164-3.013 9.35-7.081 11.62-12.714 2.425-5.83 1.408-14.632-1.253-16.822 2.191-2.817 4.617-5.399 6.73-8.255 1.72-2.347 3.324-4.812 4.576-7.59 2.074-4.42 2.7-13.144 1.682-21.75-1.017-8.685-3.872-17.018-7.08-20.93-8.646-10.719-20.5-15.413-33.41-17.095-16.47-2.152-34.973 1.408-49.409 3.325l-30.788 4.147c-5.907 1.134-21.907 3.794-32.078 9.31-9.35 5.086-14.045 13.067-14.436 21.712 0 8.098 6.533 14.67 14.631 14.67m123.895 33.8c-1.37-2.034-3.482-5.476-3.716-7.784-.235-2.348.078-5.047 1.877-8.098 2.974-5.086 7.12-9.154 10.563-13.849 1.017-1.37 1.956-2.856 2.66-4.538 1.135-2.504.665-7.511-.039-12.362-.704-4.695-1.76-9.428-3.56-11.502-5.75-6.376-13.418-8.606-21.555-9.154-14.749-.978-30.867 3.834-43.542 6.494l-28.792 6.181c-2.074.587-6.064 3.756-10.328 6.573 8.45 6.533 17.604 12.127 26.171 18.621 5.086 3.834 10.015 7.902 14.514 12.558 4.382 4.538 9.663 13.614 15.179 20.382 1.33 1.603 2.425 3.168 3.716 4.029 1.683-.117 7.981-.665 10.054-.86 4.969-.51 11.776-.744 17.996-2.309 3.403-.9 6.846-1.878 8.802-4.381"/><path d="M1.465 11.074c.042.196.131.499.257.716.127.216.322.401.503.583.184.186.411.345.604.531.207.198.455.425.633.659.174.228.34.472.437.742.098.271.099.589.151.883.054.305.096.644.175.948.076.299.158.681.295.877.115.166.365.179.525.302.219.169.534.582.792.712.226.113.504.035.755.066.427.053 1.298.262 1.806.251.427-.008.914-.198 1.242-.314.257-.09.5-.224.724-.379.23-.159.447-.373.657-.574.236-.226.543-.515.759-.782.204-.254.388-.591.533-.82.116-.181.278-.398.339-.55a.75.75 0 0 0 .026-.362c-.012-.067-.186-.151-.119-.164.082-.016.409.062.616.068.261.007.636.021.949-.024.324-.047.726-.137.996-.257.235-.104.474-.254.621-.458.146-.204.22-.499.255-.765.052-.387.04-1.12.055-1.558.012-.357.092-.718.037-1.071-.063-.403-.266-.904-.414-1.351a118 118 0 0 0-.91-2.657c-.105-.286-.163-.617-.378-.833-.296-.297-.981-.708-1.399-.949a5.8 5.8 0 0 0-1.11-.5c-.445-.144-1.046-.302-1.56-.361-.504-.057-1.016-.035-1.522.009-.6.054-1.402.122-2.076.31-.686.192-1.449.516-2.038.841-.544.3-1.12.78-1.496 1.111a5 5 0 0 0-.761.874c-.135.198-.197.437-.281.661-.086.228-.188.465-.235.71-.06.311-.057.774-.126 1.156-.073.402-.259.973-.311 1.259-.028.151-.038.31-.006.46" style="fill:#fff" transform="translate(-19.65 -73.737)scale(39.1206)"/><path d="m486.063 500.202 9.428 1.134c6.455.157 14.592.43 22.807.157 5.399-.196 10.837-.548 15.844-1.33 7.746-1.135 16.587-2.895 24.763-5.125 6.064-1.682 11.776-3.6 16.51-5.712 6.102-2.738 12.283-6.22 17.604-10.445 3.912-3.09 7.432-6.611 10.21-10.523s5.007-8.529 6.768-13.497c2.308-6.494 3.795-13.614 4.694-20.343.665-5.164 1.096-11.814 1.33-19.09.509-14.358.392-31.14.783-42.681.313-9.78 1.917-19.678 2.112-29.458.118-4.694-.117-9.389-.821-14.044-.86-5.399-2.27-11.228-4.03-17.252-3.56-12.05-8.489-24.998-12.44-36.97L566.338 170.65c-2.973-8.098-5.046-17.057-8.92-24.763-2.034-4.108-4.576-7.864-7.823-11.15-5.203-5.242-13.262-11.423-22.182-17.487-11.619-7.941-24.724-15.804-34.308-21.399a254 254 0 0 0-21.947-11.501c-7.55-3.482-15.296-6.572-23.199-9.154a403 403 0 0 0-30.866-8.88c-10.719-2.622-21.75-4.813-31.961-6.064-10.29-1.252-20.695-1.683-31.101-1.565-10.21.078-20.421.665-30.553 1.486-14.553 1.174-32.158 2.582-49.762 5.125-11.462 1.682-22.885 3.834-33.565 6.729-13.693 3.716-28.128 8.724-42.133 14.396-14.357 5.79-28.245 12.323-40.334 18.817-8.606 4.656-17.447 10.406-25.936 16.47-13.301 9.545-25.742 19.873-35.13 28.01-5.869 5.047-11.815 11.15-17.253 17.292-5.868 6.728-11.11 13.496-14.983 19.051-1.995 2.895-3.717 6.025-5.203 9.233-2.895 6.22-4.969 12.87-7.433 19.247-2.113 5.516-4.46 11.15-6.455 16.9-1.447 4.264-2.7 8.607-3.6 12.988l-5.359 45.302-12.714 49.135c-.704 3.678-1.173 7.473-1.29 11.267-.157 4.186.156 8.372 1.016 12.401v.04c1.174 5.28 3.13 12.362 5.79 19.208 1.8 4.577 3.873 9.076 6.181 12.949 2.465 4.146 5.438 8.059 8.724 11.814 4.186 4.773 8.841 9.272 13.34 13.731l24.099 20.773c4.772 4.5 10.093 9.35 15.1 14.436 3.052 3.13 5.986 6.298 8.49 9.545 3.168 4.069 6.259 8.255 9.036 12.636 2.504 4.03 4.773 8.255 6.416 12.675.939 2.543 1.643 5.243 2.152 8.02 1.486 7.942 1.995 16.353 3.481 24.294 1.565 8.411 2.895 17.409 4.656 26.172a180 180 0 0 0 2.699 11.814c2.152 8.098 4.42 17.722 7.394 25.585 1.8 4.93 3.912 9.272 6.259 12.558a25.8 25.8 0 0 0 6.377 6.337c2.816 1.917 6.024 3.404 9.389 4.734 2.542.978 5.32 1.682 7.472 3.286 5.672 4.303 13.066 12.988 20.303 19.521 4.382 3.951 8.724 7.237 12.754 9.233 4.029 1.995 8.293 3.012 12.753 3.403 6.69.626 13.927-.665 20.616.117 11.58 1.33 31.493 5.516 49.253 7.785 8.45 1.057 16.47 1.722 23.042 1.526 7.199-.195 14.788-1.526 22.22-3.442 10.915-2.817 21.478-6.847 29.615-9.78a122 122 0 0 0 16-7.199c5.086-2.738 9.976-5.79 14.67-9.076 3.952-2.777 7.786-5.907 11.58-9.271 5.203-4.617 10.29-9.585 15.218-14.397 5.634-5.437 12.206-11.775 18.426-18.308 4.303-4.46 8.411-8.998 11.932-13.419 3.247-4.107 6.416-8.723 9.389-13.379 4.42-7.002 8.45-14.161 11.932-19.677 3.012-4.773 6.807-10.172 9.702-15.023 1.799-2.934 3.247-5.711 4.185-8.137.978-2.425 1.604-5.242 1.878-8.098.196-1.8.235-3.638.196-5.32m-18.7-.704c.04.939.04 1.995 0 3.09-.117 1.409-.313 2.856-.782 4.03-.665 1.604-1.682 3.403-2.856 5.32-2.934 4.734-6.729 9.976-9.702 14.631-3.52 5.438-7.628 12.519-12.127 19.443-2.621 4.069-5.399 8.059-8.294 11.58-3.208 3.95-6.963 7.98-10.875 11.97-6.142 6.26-12.636 12.324-18.152 17.527-4.773 4.538-9.702 9.271-14.71 13.614-3.247 2.777-6.533 5.36-9.897 7.667-4.069 2.778-8.333 5.36-12.714 7.629-4.304 2.23-8.724 4.186-13.262 5.75-7.668 2.622-17.565 6.338-27.815 8.842-5.868 1.408-11.854 2.425-17.487 2.504-5.633.078-12.44-.666-19.678-1.722-17.8-2.543-37.751-7.08-49.37-8.645-6.142-.783-12.714-.079-19.012-.313-2.348-.079-4.617-.313-6.69-1.37-2.347-1.212-4.773-3.325-7.316-5.711-7.667-7.16-15.53-16.47-21.594-21.204-1.878-1.486-3.99-2.738-6.22-3.833-2.465-1.213-5.125-2.191-7.668-3.247-1.487-.626-3.09-.94-3.951-2.191-1.722-2.543-2.973-6.142-4.186-10.054-2.034-6.572-3.677-14.005-5.281-20.382-1.096-4.499-1.996-9.154-2.778-13.849-1.29-7.55-2.308-15.218-3.52-22.377-1.33-8.02-1.722-16.43-3.052-24.411-.704-4.264-1.722-8.45-3.09-12.401-1.761-4.93-3.991-9.702-6.573-14.318-3.56-6.416-7.824-12.558-12.206-18.387-3.051-4.108-6.611-8.137-10.327-12.05-5.125-5.437-10.641-10.68-15.57-15.49l-23.199-20.774c-3.951-4.03-8.098-8.098-11.736-12.44-2.074-2.465-3.951-5.008-5.516-7.707-1.878-3.286-3.443-7.237-4.734-11.11a103 103 0 0 1-3.403-12.715c-.43-1.8-.587-3.677-.548-5.555.04-2.23.274-4.498.665-6.69l11.697-49.409 4.46-45.145c.587-3.247 1.486-6.494 2.504-9.623 1.76-5.477 3.912-10.837 5.829-16.079 1.877-5.125 3.442-10.484 5.476-15.57 1.057-2.66 2.27-5.242 3.834-7.628 3.286-4.93 7.785-10.954 12.832-16.9 4.577-5.36 9.545-10.72 14.514-15.14 8.763-7.864 20.42-17.917 32.9-27.19 7.511-5.593 15.374-10.953 23.042-15.256 11.267-6.377 24.216-12.714 37.634-18.426 13.066-5.516 26.563-10.445 39.355-14.122 9.78-2.817 20.304-4.969 30.827-6.69 17.057-2.739 34.153-4.342 48.314-5.712 9.624-.939 19.326-1.643 28.989-1.877 9.545-.196 19.051.039 28.48 1.056 9.467 1.017 19.716 2.934 29.653 5.242 10.563 2.425 20.812 5.32 29.497 8.059a196 196 0 0 1 21.242 8.059 239 239 0 0 1 20.46 10.367c9.311 5.36 22.064 12.831 33.41 20.381 7.863 5.243 15.022 10.485 19.599 15.062 2.62 2.582 4.42 5.79 5.907 9.193 2.778 6.416 4.538 13.536 6.964 20.03 3.599 9.545 8.997 24.802 14.67 41.194 7.824 22.573 16.157 47.258 21.203 62.32 3.325 10.131 7.433 20.968 10.758 31.335 2.27 7.08 4.186 13.927 5.164 20.186.548 3.677.665 7.355.587 11.071-.235 9.702-1.839 19.482-2.19 29.223-.431 11.54-.353 28.323-.9 42.642-.274 6.65-.626 12.714-1.252 17.408-.626 4.656-1.604 9.546-3.013 14.201-1.369 4.342-3.13 8.45-5.555 11.814-2.308 3.247-5.477 6.025-8.92 8.45-3.716 2.582-7.784 4.734-11.853 6.494-4.968 2.191-11.227 4.069-17.721 5.634-6.377 1.526-13.028 2.777-18.935 3.599-4.381.626-9.115.9-13.81 1.017-7.863.196-15.648-.117-21.79-.313-6.572-.235-16.313-2.386-21.242-2.777-2.113-.157-3.756-.04-4.851.156-3.912.704-5.672 2.856-6.69 4.499-1.29 2.034-1.76 4.42-1.212 7.08.273 1.213.86 2.778 2.151 4.343.509.665 2.113 2.152 3.208 3.09"/><path d="M31.168 315.161c-5.437 4.421-7.041 12.284-3.442 18.583 2.777 3.168 4.85 6.768 9.115 6.963 1.408.078 2.895.9 4.616.43 1.409-.39 5.516.235 8.607-3.52.547-.705 2.464-3.13 2.464-3.13s-.939.509-1.095.704l5.281-6.024c2.504-2.035 5.477-4.93 9.194-6.573 2.386-1.056 4.772-2.425 7.002-1.643a23.8 23.8 0 0 1 8.528 7.12c2.387 3.247 3.287 7.198 4.5 11.189.586 2.425 1.29 7.393 2.073 10.758.665 2.856 2.308 4.655 3.051 6.024.978 1.722 2.739 2.27 3.756 3.208 2.816 2.621 6.298 1.76 9.271 2.074 3.756.39 6.573-2.582 10.563-6.181.9-.822 1.095-2.308 2.034-3.756 2.034-5.555.47-11.58-3.482-15.492-1.525-2.347-5.203-5.242-6.259-6.65-3.52-5.164-7.237-9.702-11.697-13.692-4.499-4.069-9.232-7.903-15.335-10.29-4.656-2.581-10.289-2.581-16.118-2.112-6.846.587-13.81 3.013-19.013 4.969l-9.506 4.499c-.665.313-4.342 1.29-4.108 2.542m58.603 24.685c-.313.43-.587.9-.665 1.526.196-.548.43-1.017.665-1.526m-37.634-22.26c.391.51.743 1.057 1.095 1.644-.234-.665-.665-1.174-1.095-1.643m-5.399-4.342c1.526.705 2.935 1.722 4.186 2.974-.978-1.565-2.425-2.426-4.186-2.974m-6.65-1.408-1.33.078c.47-.078.9-.156 1.33-.078"/><path d="M69.468 382.175c.625 1.33 2.386 2.034 2.855 3.52.705 2.152 3.482 1.605 5.047 3.326.43.509 1.213.117 1.76.587.94.821 2.308-.235 3.6.43 1.369.665 2.699-1.173 4.968-.939.9.079 1.33-1.252 2.738-1.408.43-.04.743-1.526 3.404-2.504 5.28-5.711 5.164-14.474-.079-20.03-.86-1.682-1.877-3.246-3.56-4.537-2.66-2.074-4.733-4.617-7.863-5.516-4.812-3.482-8.92-3.247-12.714-3.326-3.795-.078-6.768 1.839-11.932 3.99-.156.04-.274-.312-.508-.234-.978.235-1.643.86-2.7 1.213-1.369.469-1.8 1.76-2.934 2.347-2.425 1.29-1.917 4.107-3.325 5.868-1.604 2.034.235 4.342-.313 6.846-.156.665.509 1.135.43 1.8-.078.821.783 1.251.822 2.112.04 1.408 1.682 1.878 2.112 3.404 4.695 5.28 12.284 6.376 18.192 3.051m26.993-7.785c-.079.548-.313 1.056-.196 1.682s.196 1.33.196 2.034c.313-.743.665-1.33.43-1.877-.313-.665-.391-1.252-.43-1.839m-.118-3.247c-.039.782-.195 1.604.079 2.425l.039.196c.039-1.017.234-1.917-.118-2.621m-23.394-1.37c.274.314.587.627.783.47.117-.078.117.157.195.352.04-.234 0-.43-.156-.626-.235-.117-.548-.156-.822-.195m-.547-4.576c-.04 0-.079 0-.079.039zm1.486-4.734c-.117-.352-.313-.665-.704-.821.274.273.47.547.704.821m77.42-162.391c3.912 2.817 6.807 11.189 8.724 15.257 5.907 12.402 10.328 25.35 14.513 38.456 1.604 5.125 7.864 11.736 6.025 17.37-2.112 6.533-10.25 5.75-15.179 3.52-.43-.195-6.455-3.286-6.69-2.699-2.19 6.025 1.33 17.917 1.33 24.411 0 3.365 1.213 7.707-2.15 9.624-18.31 10.289-41.351-1.8-60.99 1.017-6.924.978-14.279.157-21.047 1.37-15.296 2.777-30.71 15.256-44.597 1.29-2.504-2.503-5.555-4.968-7.785-7.667-1.604-1.878-1.839-4.656-2.66-6.925-7.746-20.89 6.806-30.983 12.205-49.37 2.074-7.12.822-18.817 6.69-24.098 1.212-1.135-4.382-5.477-4.93-6.22-2.973-3.873-3.794-8.685-3.012-13.575 1.565-9.467 5.477-10.563 12.128-15.531 1.721-1.252 4.499-5.594 6.494-6.181 8.41-2.504 20.303-.04 28.519 1.76 14.161 3.09 28.597 5.243 43.032 5.243 8.255 0 18.66-.157 26.407 3.325 3.247 1.486 9.975 6.18 3.794 7.707"/><path d="M27.726 220.411a25 25 0 0 0-1.017 3.052c-1.526 5.711-1.252 12.753-2.621 17.682-3.756 13.653-12.245 23.12-13.85 35.209-.742 5.868-.312 12.244 2.544 19.717.626 1.643.978 3.599 1.682 5.28.626 1.487 1.408 2.896 2.465 4.108l8.293 8.216c5.633 5.75 11.54 8.176 17.526 8.88 11.11 1.33 23.003-5.438 34.661-7.394l20.773-1.056c13.34-1.643 28.05 3.951 41.86 4.186 8.019.157 15.726-1.252 23.002-5.125 3.56-1.917 5.555-4.733 6.807-7.941 1.213-3.169.86-7.355.978-10.837.04-2.308-.274-5.28-.626-8.45 3.012.313 6.103.157 8.88-.587 5.908-1.525 10.641-5.516 13.106-12.44 1.095-3.09 1.173-6.298.704-9.624-.743-5.163-4.93-10.875-6.22-15.374-2.308-8.176-4.734-16.313-7.511-24.333a224 224 0 0 0-6.416-16.313c-1.017-2.347-2.347-5.986-3.951-9.39.508-1.916.587-3.872.234-5.906-.469-2.7-1.447-5.83-3.872-8.646-2.66-3.051-7.59-6.455-10.954-7.824-4.42-1.839-9.311-3.012-14.436-3.482-6.063-.587-12.362-.391-17.839-.235-6.65.235-13.34-.039-20.03-.665-6.846-.665-13.653-1.682-20.42-2.934-5.438-1.017-12.363-2.269-18.974-2.464-5.477-.157-10.797.234-15.335 1.721a14.9 14.9 0 0 0-5.634 3.325c-1.564 1.448-4.616 5.203-4.616 5.203s.313-.274.47-.39c-5.32 4.185-9.037 6.571-11.658 10.679-1.839 2.856-3.404 6.455-4.147 11.893-.509 3.716-.509 7.354.313 10.836.86 3.756 2.386 7.355 4.89 10.484zm108.99-20.812a50 50 0 0 0-2.543-.391c-4.186-.509-8.45-.587-12.245-.743a180 180 0 0 1-23.277-2.23c-7.472-1.213-14.944-2.817-22.298-4.656-3.717-.938-8.255-2.112-12.832-2.738-2.895-.391-5.79-.704-8.372-.391-1.369 1.447-3.716 3.873-4.772 4.577-3.052 2.152-5.595 2.856-7.16 5.046-.586.783-.938 1.878-1.251 3.443-.196 1.135-.352 2.308-.157 3.404.157.821.352 1.643.822 2.308 1.565 1.721 5.868 6.533 6.455 8.45 1.525 4.812.234 8.567-2.817 11.188-.978.86-1.213 2.27-1.565 3.678-1.173 5.359-1.408 11.423-2.816 15.804-3.482 11.267-10.407 19.326-13.536 28.754-1.409 4.342-1.722 9.076.43 15.022.47 1.33 1.213 4.03 1.408 4.656l7.081 6.924c3.365 3.325 6.846 4.186 10.367 3.834 8.724-.9 17.683-6.181 26.602-7.864l21.36-1.72c13.966-2.309 29.77 2.62 44.363 2.229 3.247-.078 6.416-.587 9.428-1.721a108 108 0 0 0-.117-2.074c-.157-5.085-2.465-13.34-2.622-19.677-.039-3.247.47-6.181 1.291-8.646.9-2.7 5.32-9.467 14.592-7.12.43.117.94.274 1.487.47a31 31 0 0 1-1.643-3.795c-2.23-6.299-4.538-12.519-7.003-18.7-2.425-5.946-5.085-11.814-8.058-17.526-1.291-2.543-7.707-7.667-5.477-10.132a14.62 14.62 0 0 1-5.125-9.663m10.64-17.33c.431-.157.861-.274 1.292-.391-.47.117-.9.234-1.291.39"/><path d="M467.95 91.861c-6.338-1.408-14.788 8.176-20.03 11.188-17.095 9.78-35.17 17.644-52.382 27.385-5.164 2.895-10.25 6.064-15.1 9.506-1.292.9-4.578 3.404-6.377 2.582-4.617-2.073-6.807-12.597-5.438-16.9.508-1.643 1.486-3.09 2.386-4.538.47-.821 1.878-3.325 1.408-2.504-3.794 6.886-15.296 10.798-21.242 15.531-22.142 17.605-42.915 36.343-72.92 38.534-4.617.352-16.158 3.404-18.505-1.839-2.504-5.711 4.851-12.127 8.646-15.14.195-.156 4.03-3.403 4.225-3.246 1.134 1.017-9.78 8.606-10.485 9.037-13.77 8.41-28.949 14.552-43.345 21.75-19.6 9.78-43.033 14.788-65.019 14.788-2.308 0-6.807-1.878-6.963-4.538-.078-1.252-.509-4.147.196-5.281.352-.587 3.52-4.03 2.269-2.113-11.502 17.253-40.96 16.783-58.76 12.284-3.873-.978-8.567-.821-12.01-3.13-4.381-2.973-5.203-6.493-7.198-11.11-.274-.665-.274-4.577-.9-4.811-2.934-.861-7.12 1.564-9.78 2.347-6.768 1.917-13.379 4.538-20.225 2.464-9.546-2.895-20.382-.86-30.397-3.873-3.677-1.095-9.389-4.029-9.858-8.684-2.308-22.925 23.277-37.673 41.702-44.833 6.534-2.542 12.793-5.203 19.717-6.376 2.19-.391 4.303-.704 6.455-1.291 1.213-.313 4.851-.94 3.6-.94-7.199 0-14.28 5.321-21.987 3.717-9.78-2.034-.743-16.548 2.778-19.247 4.968-3.716 10.993-5.79 16.43-8.685 11.19-5.907 20.813-12.675 33.488-15.218 7.98-1.643 15.726-1.017 23.707-1.76 1.29-.157 6.533.156 7.511-.743.352-.352-8.802-9.35-9.037-11.658-.86-8.607 9.741-19.013 16.04-23.747 11.384-8.645 25.976-9.78 39.746-11.266 4.42-.509 12.01-2.426 16.51-.94 6.532 2.113 11.618 7.395 17.682 10.368.469.195 4.811 2.817 5.124 2.66.626-.274 1.722-3.99 2.074-4.616 2.347-4.42 5.125-9.076 8.215-13.027 4.968-6.377 17.174-11.815 25.233-13.301 19.052-3.56 32.587 3.325 49.605 10.25 2.23.899 5.281 1.33 7.08 2.933 1.409 1.291 5.047 9.585 8.216 7.707 5.907-3.52 10.875-13.027 15.922-17.956 9.741-9.428 28.91-15.1 42.524-13.223 7.003.978 22.847 3.873 28.05 8.254 6.728 5.673 14.905 16.979 22.807 20.5 2.465 1.095 11.853-6.181 14.357-7.316 9.233-3.99 23.903-1.447 30.397 6.494 13.105 16 6.103 35.404-3.169 51.287-4.616 7.942-6.377 15.1-14.905 12.87M93.722 363.788c-.039.86 0 1.643.079 2.348.43 3.442 1.838 6.259 3.872 8.45-.39.469-.704.938-1.017 1.408-1.917 3.09-2.816 6.142-3.012 8.41-.509 6.26 1.917 11.033 7.198 14.163l.118.078c-1.448 1.8-3.326 4.303-4.695 6.768-1.643 2.973-2.66 6.024-2.973 8.567-.782 6.846 1.643 12.323 7.668 15.805a26 26 0 0 0 4.381 2.034c.078.822.235 1.565.43 2.269.626 2.23 1.722 4.264 3.404 5.907-.939 1.878-1.643 3.717-1.878 5.282-.939 6.728 1.526 11.853 7.198 14.983a20.3 20.3 0 0 0 4.695 1.877c.391 5.869 3.677 9.272 8.215 10.876 4.108 1.487 9.037 1.37 14.2-.822a111 111 0 0 0-2.112 10.25c-.195 1.174-1.212 6.885-1.33 11.502-.078 3.52.392 6.65 1.174 8.684 1.174 2.973 2.895 5.086 4.968 6.416l-.47 1.487c-.703 2.19-2.464 6.572-2.62 8.645a13 13 0 0 0 .43 4.42c-4.968 7.864-5.672 15.923-3.13 22.104 1.526 3.677 4.265 6.729 8.372 8.333.196.313.391.587.587.86.352.47.743.9 1.135 1.291-.274 2.191-.392 4.382-.079 6.064.86 4.616 3.482 7.746 7.042 9.35q2.64 1.173 5.281 1.408c-.078.9-.117 1.8-.078 2.621.078 4.343 1.526 7.942 3.6 10.25 4.81 5.281 10.6 6.337 16.9 4.303 1.642-.547 3.364-1.369 5.124-2.464-.196 3.286-.196 8.41.704 10.523s2.19 3.638 3.638 4.616c-.43 1.291-.782 2.582-.978 3.678-.547 3.677.352 6.69 1.683 8.645 1.995 3.052 4.538 4.264 7.041 4.656a10.6 10.6 0 0 0 3.834-.079v.196c.196 2.582 1.017 4.694 1.917 6.025 2.465 3.677 5.712 5.085 9.35 5.163 2.269.079 4.89-.586 7.394-1.995 3.207-1.8 6.455-5.007 7.433-5.985l9.036-9.898c.665 2.27 2.113 3.717 3.443 4.617.978.665 2.895 1.877 5.399 1.76-.118 2.347.273 4.46.86 5.907 1.213 2.817 3.247 4.616 5.868 5.516 2.113.704 4.46.9 6.925.509-.157 1.408-.196 2.7-.04 3.599.666 3.208 2.465 5.203 4.46 6.377 3.717 2.19 8.294 2.23 12.91-.04 3.286-1.643 6.768-4.811 9.115-7.12.078 1.291.313 2.504.704 3.482 1.252 3.404 3.6 5.673 6.65 6.729 3.678 1.29 7.551.743 11.229-1.565 3.599-2.308 7.08-7.08 8.45-8.802 3.599-4.538 7.041-9.232 10.406-13.966l1.682-2.386c-.47 4.577-.665 10.445.587 14.005 1.134 3.208 3.13 5.438 5.516 6.729 2.816 1.564 6.807 2.386 12.088-.51 3.873-2.15 7.472-5.28 10.758-8.997 1.37 2.347 3.364 3.951 5.868 4.812 5.83 1.995 12.05.352 17.722-4.342 6.494-5.36 12.362-15.297 15.179-20.226l.117.118c2.269 1.995 5.086 2.934 8.567 2.19 5.164-1.056 10.524-4.303 15.531-8.958 5.947-5.477 11.502-13.066 16.04-19.091-.04 2.543 0 8.098.782 9.897 1.408 3.404 3.912 4.93 6.103 5.595 2.269.704 4.93.782 7.863-1.017 5.83-3.521 10.68-9.585 14.592-17.057 6.572-12.636 10.484-29.653 14.397-39.55l4.146-8.92 5.438-8.568c2.27-4.773.548-7.746.235-8.41-.274-.627-1.213-1.84-2.582-3.013a403 403 0 0 0 1.839-6.494c.39-1.487 3.52-9.506 4.225-14.553.743-5.203-.9-9.115-2.582-11.11a14.3 14.3 0 0 0-2.7-2.426c.04-.39.118-.782.157-1.173.547-5.438-1.017-9.976-4.225-13.262-3.678-3.717-8.998-5.399-15.414-4.382-3.873.587-8.372 2.426-12.753 4.656-3.169-3.013-7.629-4.5-13.106-4.069-2.503.196-5.398 1.017-8.371 2.074-.626-.979-1.409-1.84-2.27-2.66-2.073-1.918-5.124-3.639-9.662-4.147-.078-.43-.157-.822-.235-1.213-1.33-5.438-5.79-12.362-19.6-10.563-6.102.783-12.048 2.66-17.838 5.164-.822.352-1.604.704-2.426 1.096-1.447-.783-3.168-1.37-5.203-1.722-7.51-1.29-15.374-.078-23.08 2.817-2.348.86-4.656 1.917-6.964 3.051-2.621-2.777-6.416-4.655-11.11-5.085-5.125-.47-11.815 1.212-14.67 2.23-6.025 2.151-11.894 4.89-17.683 7.98-6.886-.9-14.436.509-22.025 3.638a74 74 0 0 0-5.947 2.817c-1.134-1.134-2.425-1.995-3.794-2.66-3.912-1.878-8.45-2.465-13.223-1.839-6.103.783-12.792 3.99-16.94 6.103-7.002 3.56-13.535 7.824-19.677 12.675a126 126 0 0 0-8.528 7.355 32.5 32.5 0 0 0-4.42 1.76c-5.4 2.621-10.72 7.237-14.28 10.445l-2.073 2.074a17.7 17.7 0 0 0-3.951-1.956 17.5 17.5 0 0 0-3.678-.861c2.778-6.064 5.516-12.127 7.863-18.387 2.152-5.79-.43-8.997-.782-9.584-.509-.86-3.13-3.247-6.416-4.382l.704-1.917c.626-1.564 2.27-3.286 3.247-5.007 1.487-2.504 2.348-5.007 2.622-7.237.586-4.538-.666-8.568-4.421-12.01-1.995-1.84-3.951-2.739-5.79-3.013l1.408-3.99c1.448-4.303.313-6.963-.117-8.098-1.408-3.795-3.834-5.907-6.885-6.924l.039-.118c2.347-4.03 2.269-7.941.704-11.462-.939-2.23-2.856-5.712-8.333-7.316q-3.403-.997-6.69-.586v-9.311c-3.324 0-7.002.743-10.757 2.073l.43-.195 11.345-5.399c1.565-.782 5.438-2.777 6.26-3.443 3.794-3.168 4.615-6.728 4.89-8.763.508-4.068-.51-7.628-3.17-10.68-1.095-1.29-3.794-4.655-9.897-4.772.548-3.443-.509-6.338-.704-7.003-1.096-3.403-4.225-10.132-14.084-9.663-.234.04-1.056.04-2.269.313a15.4 15.4 0 0 0-.782-3.207c-.274-.783-.626-1.526-1.017-2.27 4.108-8.176-.274-13.653-2.27-15.922-2.425-2.738-6.571-5.985-13.378-4.89-1.252.196-6.22 2.426-8.177 3.521l-7.12 4.656c-2.816 2.151-13.457 10.484-17.37 17.134-3.872 6.65-3.794 13.028-1.447 17.957.978 2.112 2.27 3.912 3.834 5.36m284.994 117.05c-3.56 3.794-8.215 7.51-13.223 9.936-5.868 2.856-12.166 3.95-17.995 2.66-5.751-1.291-8.02-4.812-9.037-8.333a90 90 0 0 1-7.55 7.903c-3.873 3.638-8.06 6.924-12.284 9.975-2.113 1.487-5.986 4.46-9.585 5.947-3.795 1.565-7.55 1.878-10.797 1.056-6.69-1.604-8.724-5.829-9.31-9.82-.783.51-1.527.979-2.309 1.448-4.147 2.504-8.411 4.773-12.753 6.964-.94.43-7.824 4.146-12.402 4.929-4.264.782-7.863-.04-10.445-1.409-2.464 2.309-5.046 4.5-7.628 6.338-6.455 4.655-13.145 7.237-18.974 7.237-2.386 2.191-4.694 3.912-6.337 4.812-1.722.9-5.399 2.23-8.998 2.465-3.52.274-6.885-.391-9.35-1.604l-.352-.157-1.056 1.096c-.274 1.565-.704 3.442-1.056 4.42l-4.5 9.115c-1.486 2.387-4.224 7.042-7.628 11.698a134 134 0 0 0-3.09 8.88c4.46-4.734 8.215-10.171 9.506-11.854l4.93-6.728c.508-.705 1.447-2.348 2.033-3.013 1.526-1.721 3.17-2.503 4.304-2.895 3.208-1.095 5.985-.547 8.371 1.018 1.526 1.017 3.756 2.777 4.343 6.846.195 1.525.274 3.051.195 4.655 6.338-6.416 13.85.86 14.67 2.386.157.313.94 1.448 1.096 3.286 1.878.353 3.208 1.33 3.99 1.956 1.917 1.526 3.99 4.108 3.443 8.411-.157 1.096-2.347 5.36-3.208 7.12l-3.403 6.65c-2.465 5.165-4.851 10.485-6.964 15.923 2.543-2.973 5.086-5.946 7.707-8.841 2.7-2.973 5.516-5.868 8.528-8.607.509-.47 9.037-7.863 12.793-9.428 5.242-2.23 8.997-.313 11.11 1.956 1.995-1.37 3.912-1.839 5.398-1.878 3.639-.117 7.942.978 9.468 7.511.665 2.974.313 5.83-.9 8.607-1.095 2.504-3.364 4.93-4.812 7.276-1.487 2.426-3.051 4.89-4.538 7.433 1.37-1.408 2.582-2.62 3.443-3.403l7.354-6.69c-.117.118-.39.43-.39.43s4.185-4.185 5.046-4.537c3.325-1.37 6.103-.587 8.293.938.352.274.744.587 1.174.979l.665-1.291 2.934-6.22c.665-1.409 1.526-4.656 2.23-6.025.9-1.722 1.995-2.817 2.777-3.443 2.778-2.151 5.595-2.23 8.138-1.37 1.643.549 4.342 1.761 5.672 5.908.47 1.487.665 3.404.391 5.516-.43 3.365-2.582 7.98-2.816 8.724-2.348 6.533-4.93 13.066-7.199 19.678l2.113-2.934c4.85-6.886 9.545-13.888 14.318-20.812l10.132-14.397c.157-.195 3.951-4.186 5.555-5.633 7.629-6.885 14.67 3.912 14.788 5.203.235 2.816-.157 5.946-1.056 9.115-1.37 4.89-3.99 10.054-5.282 13.927l-5.32 17.839-.04.274c1.018-1.33 1.996-2.739 2.974-4.186 5.477-8.333 9.702-18.309 13.262-25.39.078-.195 3.638-9.623 6.103-12.87 1.8-2.387 3.912-3.521 5.398-3.99 3.834-1.174 6.534.039 8.49 1.643 1.447 1.212 2.738 2.973 3.207 5.555.274 1.486-.273 4.85-.586 6.533l-2.308 7.863c-1.644 5.32-3.756 10.68-5.673 16.079 2.073-3.208 3.677-6.22 4.616-7.864l6.142-11.07 4.264-9.038c.235-.586 2.113-6.885 4.186-10.17 1.995-3.052 4.538-4.735 6.65-5.36 3.952-1.213 6.73 0 8.803 1.604 1.526 1.251 2.934 3.09 3.482 5.79.313 1.72-.352 5.476-.47 7.393 0 .548-.313 2.347-.704 4.655 5.047-6.024 9.467-12.714 12.792-16.782l9.35-12.089c.157-.156 2.66-2.855 4.93-4.577 2.112-1.604 4.303-2.425 5.75-2.66 2.27-.391 4.225-.156 5.868.626.118-.274.196-.548.313-.821.509-1.135 2.543-5.164 3.521-6.73l.86-1.29c1.605-3.247 3.052-6.612 4.382-9.976 1.917-4.968 3.6-10.015 5.125-15.14-.626.587-1.213 1.096-1.76 1.37-2.582 1.408-5.125 1.643-7.316 1.212-2.738-.508-5.555-1.877-7.55-5.555-1.174-2.19-2.074-5.633-.196-9.702 1.252-2.738 6.69-8.371 7.042-8.724.704-.782 2.621-2.816 5.086-5.163l.313-.626 1.29-2.465 1.018-1.995c-3.013 1.565-5.947 3.403-8.333 5.046-.43.705-.86 1.409-1.33 2.074-3.482 4.968-8.215 8.958-12.088 10.406-3.247 1.213-6.338 1.252-9.037.43-3.13-.939-5.125-2.895-6.338-5.398-.43-.9-.939-2.152-1.056-3.756-2.19 2.073-4.46 3.795-6.65 4.812-4.5 2.19-8.803 2.269-12.245 1.017-6.573-2.386-7.511-6.963-7.198-10.836-1.683.938-3.326 1.76-4.421 2.073-8.372 2.465-12.675-2.738-14.123-6.572-.039-.157-.117-.352-.156-.509"/><path d="M2.074 9.876c.06-.043.204-.016.273-.016.194 0 .418-.006.611-.035.781-.116 1.576-.083 2.369-.1.331-.007.84.083 1.16-.032" style="fill:#fff;fill-opacity:.45" transform="translate(-19.65 -73.737)scale(39.1206)"/><path d="M66.025 326.585c1.056 1.095 4.773-.861 6.142-1.018 4.812-.469 10.015-.978 15.14-1.76 3.599-.548 7.12-1.134 10.445-1.917 7.315-1.682 14.63-3.13 22.064-4.108 7.51-.978 15.1-1.682 22.69-1.995a289 289 0 0 1 18.425-.117c9.39.274 18.661 1.056 28.01 1.408 9.077.626 21.204 3.247 32.236 3.873 6.494.352 12.558-.352 17.878-1.682 7.629-2.7 11.58-11.11 8.88-18.739-2.738-7.628-11.149-11.619-18.777-8.88-3.638 1.721-8.137 2.856-12.988 3.286-9.702.86-19.913.548-27.658 1.408-9.233.744-18.426 1.604-27.659 1.917-8.763.313-17.526.352-26.25.313-13.457-.039-26.797-.313-40.216.822-3.442.195-7.12.078-10.836-.078-3.912-.157-7.785-.548-11.384-.9-2.739-.274-7.629-1.096-11.228-.783-3.208.235-5.75 1.76-8.02 3.052-6.572 4.733-8.058 13.927-3.325 20.499 3.834 5.281 10.524 7.276 16.43 5.399"/><path d="M244.532 281.713h-.039c-3.951 0-7.55 1.565-10.171 4.108-1.409-.196-3.443 3.677-4.264 4.734l-5.4 9.584c-2.464 5.125-4.302 10.602-5.32 16.235-.977 5.32-1.447 10.797-1.29 16.157.39 15.218 4.107 29.653 10.875 42.759 6.455 12.597 15.492 24.098 26.759 33.722 20.773 17.878 44.793 29.418 70.221 34.504 25.076 5.008 51.483 3.873 77.302-4.068 13.067-3.952 24.92-8.842 34.935-16.47 6.885-5.242 12.949-11.736 17.878-20.186 3.99-6.768 6.494-14.397 7.903-22.338 1.995-11.15 1.838-22.886.782-33.488-1.8-19.09-7.59-38.416-17.448-54.964-10.21-17.135-24.92-31.257-44.52-39.394-11.5-4.812-23.863-7.003-36.499-7.785-17.682-1.018-35.873 1.017-52.695 3.012-10.954 1.252-20.147 4.107-28.675 7.98-12.323 5.556-23.003 13.536-35.17 22.612-.86.665-2.817 1.839-5.164 3.286m4.93 32.783c-1.213 2.426-2.191 5.008-2.817 7.668a49 49 0 0 0-1.37 10.367c-.312 11.188 1.878 21.947 6.338 31.805 4.577 10.093 11.267 19.326 19.717 27.267 17.135 16.079 37.282 26.993 58.876 32.157 21.869 5.203 45.106 4.695 67.992-1.565 9.193-2.582 17.76-5.555 25.272-10.132 7.042-4.303 13.105-9.976 17.878-17.956 3.756-6.299 5.672-13.692 6.494-21.204.86-8.137.43-16.47-.43-24.059-1.956-16.43-7.199-32.978-16.157-46.984-8.49-13.262-20.46-24.02-36.148-29.888-9.428-3.481-19.482-4.694-29.653-4.85-16.352-.196-33.018 2.66-48.431 5.241-8.02 1.33-14.71 3.795-20.812 6.925-10.367 5.32-19.013 12.87-29.028 21.242-1.839 1.526-9.976 11.736-13.38 9.859a14.5 14.5 0 0 1-4.342 4.107"/><path d="M11.545 9.596c-.063-.011.165-.129.189-.139.142-.055.299-.102.45-.122.291-.039.648-.037.937.012.099.018.179.029.272.066.024.01.144.069.144.051" style="fill:#fff;fill-opacity:.45" transform="translate(-19.65 -73.737)scale(39.1206)"/><path d="M445.73 306.829c1.682-1.057 3.364-2.152 5.242-3.013 2.425-1.134 4.811-2.23 7.315-2.934 2.66-.626 5.438-1.369 8.372-1.682 2.817-.274 5.712-.391 8.607-.156 5.868.47 11.384 2.308 16.47 3.912 1.72.626 3.168 1.252 4.694 1.917 1.056.47 1.838 1.33 2.934 2.034.978.665 5.281 3.13 7.042 3.912 2.934 1.33 5.398 0 7.041-.04 2.191-.038 3.521-1.72 5.125-2.425.9-.39 1.291-1.29 2.034-1.8 3.052-2.033 2.973-5.867 3.99-10.053 0-8.098-6.61-14.67-14.67-14.67-.586 0-1.173.039-1.76.078-1.76-.352-3.364-.704-5.047-.822-2.503-.117-4.811-.195-7.589-.156l-39.786 1.095c-2.816-.039-5.633.352-8.528.587-4.264.391-8.294 1.135-12.362 1.917-.939.117-6.338 2.23-9.858 3.756-2.543 1.095-3.795 3.13-4.89 4.107-3.013 2.66-2.504 6.22-3.052 8.607-.274 1.095.274 2.151.274 3.247-.04 4.147 3.403 6.768 7.746 10.328 1.017.821 2.62.821 4.342 1.525 7.081 1.252 13.888-2.777 16.313-9.271m-1.213.782-.587.352c.039-.039.274-.156.391 0l.04.078zm50.856-13.184c-.156.666-.312 1.33-.117 2.074 0-.704.04-1.408.117-2.074m2.582-6.415c-1.212 1.252-2.073 2.66-2.19 4.538a14.8 14.8 0 0 1 2.19-4.538m-57.35 1.76-.587-.391c.43.196.782.47 1.095.782zm-3.404-1.839c-.743-.39-1.565-.743-2.62-.704.938.157 1.799.391 2.62.704"/><path d="m484.38 286.173-.273.235c-5.086 4.147-8.333 11.266-11.736 16.548-7.59 11.775-11.58 25.858-11.58 40.02-.04 14.044 3.482 28.05 10.64 39.59 16.588 26.954 45.81 44.128 77.577 50.114 31.1 5.907 64.431 1.29 89.508-14.866 6.26-3.99 11.697-8.959 16.548-14.475 6.729-7.55 12.44-16.157 18.19-24.294 3.209-4.42 8.999-7.51 13.028-11.618 2.856-2.935 5.086-6.182 6.338-9.976 2.23-6.65 2.386-14.084 1.408-21.595-1.291-9.702-4.616-19.6-7.394-27.58-2.034-6.024-3.56-12.792-5.985-18.973-1.252-3.247-2.778-6.338-4.617-9.194-4.381-6.69-9.506-14.083-15.413-20.42-4.499-4.773-9.506-8.881-14.944-11.854-12.636-6.964-26.68-8.646-40.999-7.511-19.012 1.525-38.455 8.528-54.886 14.044-8.215 2.738-16.665 6.103-24.959 9.82-8.332 3.755-16.47 7.94-24.02 12.4-1.408.822-9.35 3.913-12.244 5.751-1.8 1.174-3.17 2.504-4.186 3.834m17.957 23.942c.743 2.582-4.968 6.142-6.846 8.685-5.203 7.198-8.176 15.96-8.646 24.92-.547 9.271 1.174 18.7 5.516 26.601 12.323 22.26 35.483 36.774 60.755 42.603 26.132 5.985 54.495 3.012 76.128-9.976 4.93-3.012 9.194-6.846 13.027-11.071 6.377-7.042 11.737-15.14 17.253-22.73 3.599-5.085 9.936-8.88 14.474-13.613.978-1.017 1.839-2.074 2.23-3.365 1.33-4.264 1.135-9.036.391-13.81-1.33-8.45-4.655-16.938-7.276-23.863-1.878-5.007-3.325-10.523-5.32-15.765-1.057-2.778-2.348-5.438-3.99-7.746-3.991-5.634-8.607-11.854-13.928-17.096-3.09-3.012-6.455-5.672-10.132-7.472-9.037-4.46-18.974-4.85-28.91-3.56-16.979 2.23-34.035 9.78-48.47 15.492-7.277 2.895-14.71 6.337-21.986 10.093a225 225 0 0 0-20.617 12.206c-.626.43-2.895 2.503-5.203 4.146a14.7 14.7 0 0 1-8.45 5.32"/></svg>