<svg xmlns="http://www.w3.org/2000/svg" xml:space="preserve" style="fill-rule:evenodd;clip-rule:evenodd;stroke-linejoin:round;stroke-miterlimit:2" viewBox="0 0 307 289"><path d="M209.03 43.644c0-5.382 12.07-7.441 15.436-8.238 4.386-1.04 8.77-1.54 13.206-2.295 10.047-1.713 24.84-5.698 32.785 3.647 2.247 2.642 3.403 11.674 2.004 14.755-1.497 3.297-4.29 5.456-6.056 8.482-1.532 2.623 2.697 3.253 1.502 6.025-2.322 5.383-10.555 5.744-15.3 6.352-1.553.199-5.051 1.092-6.648.369-3.61-1.636-7.383-8.667-10.246-11.394-6.307-6.01-14.267-9.402-20.9-14.712-1.657-1.327-2.456-3.587-3.69-4.671"/><path d="M210.502 46.819c.272.408.565.814.899 1.183a10 10 0 0 0 1.322 1.244c4.813 3.669 10.254 6.374 15.34 9.714 2.003 1.315 3.95 2.727 5.759 4.373 1.927 1.762 4.288 5.446 6.72 8.115 1.462 1.605 2.966 2.89 4.41 3.513.795.343 1.872.512 3.064.455 1.728-.082 3.778-.58 4.886-.742 2.966-.423 7.225-.802 10.693-2.214 2.785-1.134 5.092-2.893 6.226-5.615.404-.957.45-1.782.308-2.516-.17-.88-.628-1.645-1.212-2.34-.164-.195-.337-.387-.501-.58-.108-.125-.37-.186-.253-.387 1.206-2.068 2.913-3.713 4.323-5.622.695-.941 1.328-1.935 1.836-3.043.816-1.77 1-5.256.57-8.686-.432-3.44-1.503-6.775-2.786-8.315-3.542-4.287-8.357-6.166-13.6-6.768-7.121-.82-15.09.866-21.298 1.8-3.13.465-6.228.805-9.326 1.292a76 76 0 0 0-4.118.758c-2.46.519-9.156 1.653-13.335 4.045-3.071 1.757-4.83 4.288-4.9 7.16a3.502 3.502 0 0 0 4.973 3.176m4.654-5.282c.484.853.96 1.82 1.748 2.487 4.509 3.789 9.685 6.654 14.476 10.132 2.177 1.58 4.283 3.268 6.225 5.206 1.944 1.929 4.29 5.866 6.73 8.762.884 1.047 1.733 1.97 2.63 2.396.353.168.888.11 1.448.072 1.445-.098 3.004-.424 3.899-.523 2.682-.304 6.54-.465 9.7-1.652 1.719-.647 3.247-1.578 3.982-3.223.076-.172-.03-.284-.11-.394-.205-.275-.443-.535-.66-.8-.623-.763-1.084-1.58-1.18-2.502-.075-.74.039-1.575.603-2.53 1.282-2.191 3.078-3.947 4.567-5.977.527-.718 1.006-1.478 1.386-2.323.589-1.318.513-3.91.154-6.444-.353-2.492-.992-4.965-1.946-6.064-2.847-3.257-6.671-4.547-10.761-4.88-6.711-.545-14.118 1.449-19.911 2.553-3.088.595-6.152 1.064-9.207 1.68a71 71 0 0 0-3.76.86c-1.595.42-5.251 1.184-8.503 2.487-.52.209-1.03.433-1.51.677"/><path d="M54.97 162.886c.728 3.397 2.265 8.656 4.461 12.413s5.577 6.968 8.715 10.129c3.2 3.222 7.132 5.982 10.485 9.205 3.576 3.438 7.879 7.372 10.972 11.421 3.024 3.958 5.893 8.189 7.588 12.873 1.701 4.699 1.709 10.22 2.615 15.32.94 5.295 1.666 11.175 3.025 16.45 1.334 5.18 2.756 11.798 5.127 15.205 1.999 2.872 6.327 3.102 9.101 5.237 3.807 2.931 9.266 10.094 13.74 12.344 3.916 1.969 8.75.613 13.1 1.153 7.405.919 22.516 4.542 31.326 4.361 7.402-.152 15.851-3.442 21.534-5.445 4.457-1.572 8.672-3.891 12.561-6.576 3.995-2.757 7.762-6.473 11.408-9.967 4.093-3.922 9.417-8.936 13.151-13.566 3.549-4.4 6.733-10.251 9.254-14.212 2.007-3.153 4.816-6.914 5.871-9.552.779-1.948.731-4.757.462-6.276-.205-1.154-3.228-2.615-2.077-2.837 1.435-.277 7.106 1.076 10.69 1.176 4.525.127 11.026.369 16.458-.415 5.622-.811 12.604-2.384 17.278-4.453 4.081-1.806 8.233-4.421 10.767-7.959s3.817-8.645 4.435-13.267c.897-6.714.682-19.418.946-27.016.216-6.191 1.593-12.452.641-18.573-1.09-7.003-4.616-15.681-7.178-23.441-3.825-11.588-12.051-35.997-15.774-46.085-1.831-4.961-2.828-10.699-6.563-14.443-5.139-5.152-17.021-12.282-24.276-16.473-6.095-3.521-12.553-6.515-19.252-8.675-7.717-2.488-18.138-5.238-27.046-6.253-8.745-.996-17.637-.616-26.405.162-10.403.923-24.327 2.107-36.017 5.376-11.895 3.326-25.135 8.94-35.351 14.581-9.429 5.207-19.419 13.527-25.943 19.265-5.032 4.424-10.19 10.721-13.203 15.158-2.332 3.436-3.409 7.58-4.87 11.467-1.491 3.964-3.255 8.073-4.076 12.32-1.042 5.395-.981 13.435-2.179 20.05-1.265 6.983-4.492 16.879-5.409 21.849-.482 2.612-.649 5.372-.092 7.969" style="fill:#fff" transform="translate(-38.266 -3.5)"/><path d="M213.408 219.649c1.279.213 2.697.454 4.015.598.824.09 1.615.154 2.329.173 2.818.073 6.395.188 10.01.078 2.316-.07 4.648-.232 6.815-.55 3.36-.491 7.196-1.25 10.758-2.221 2.589-.705 5.036-1.523 7.066-2.426 2.578-1.148 5.18-2.603 7.433-4.382 1.604-1.268 3.034-2.7 4.172-4.294 1.146-1.608 2.067-3.505 2.79-5.541.988-2.773 1.616-5.805 1.995-8.663.298-2.243.477-5.136.588-8.29.225-6.363.18-13.806.354-18.93.147-4.331.86-8.697.952-13.026.042-1.985-.042-3.963-.35-5.927-.36-2.326-.977-4.83-1.74-7.425-1.567-5.328-3.756-11.05-5.501-16.344a3091 3091 0 0 0-9.288-27.735c-2.498-7.343-4.857-14.176-6.422-18.45-1.092-2.982-1.891-6.24-3.145-9.191-.956-2.25-2.171-4.327-3.878-6.047-2.242-2.26-5.723-4.897-9.57-7.51-5.122-3.477-10.898-6.924-15.12-9.377a111 111 0 0 0-9.576-4.982 95 95 0 0 0-10.087-3.958 184 184 0 0 0-13.544-3.85c-4.68-1.131-9.494-2.076-13.941-2.6-4.478-.525-8.995-.698-13.516-.646-4.47.052-8.943.327-13.386.703-6.42.542-14.168 1.18-21.918 2.335-4.98.742-9.96 1.7-14.598 2.976-5.978 1.644-12.291 3.856-18.406 6.356-6.27 2.562-12.33 5.43-17.602 8.308-3.724 2.033-7.535 4.534-11.2 7.178-5.815 4.197-11.254 8.755-15.352 12.324-2.507 2.183-5.048 4.809-7.361 7.458-2.527 2.894-4.78 5.817-6.425 8.215-1.064 1.552-1.905 3.232-2.633 4.972-.974 2.329-1.734 4.773-2.632 7.124-.922 2.416-1.942 4.886-2.797 7.407-.603 1.78-1.123 3.586-1.486 5.416-.257 1.297-.455 2.737-.623 4.27-.532 4.865-.725 10.755-1.665 15.798a79 79 0 0 1-.928 4.216c-1.553 6.34-3.833 13.573-4.598 17.6a29 29 0 0 0-.513 4.526 20.5 20.5 0 0 0 .398 4.805 59 59 0 0 0 1.929 6.77c.818 2.325 1.825 4.67 2.99 6.64 1 1.692 2.208 3.288 3.535 4.815 1.802 2.074 3.822 4.025 5.757 5.954a50 50 0 0 0 2.187 2.044c2.726 2.408 5.747 4.638 8.402 7.165 2.129 2.026 4.517 4.224 6.75 6.52 1.42 1.46 2.778 2.958 3.95 4.477 1.453 1.88 2.873 3.825 4.13 5.859 1.21 1.954 2.274 3.988 3.062 6.13.469 1.275.794 2.619 1.047 3.999.646 3.522.86 7.257 1.506 10.789.676 3.709 1.248 7.703 2.005 11.577.337 1.729.71 3.434 1.142 5.083.925 3.523 1.898 7.695 3.16 11.12.72 1.954 1.54 3.685 2.467 5.004.886 1.26 2.058 2.192 3.412 2.922 1.997 1.078 4.524 1.543 6.332 2.922 2.564 1.956 5.885 5.865 9.143 8.83 1.744 1.589 3.484 2.927 5.095 3.729 1.514.752 3.128 1.135 4.806 1.29 2.992.276 6.214-.28 9.209.08 5.132.613 13.974 2.51 21.845 3.54 3.627.476 7.057.769 9.869.699 3.037-.074 6.239-.633 9.372-1.43 4.776-1.215 9.39-2.975 12.939-4.241a50.4 50.4 0 0 0 6.824-3.044 64 64 0 0 0 6.296-3.875c1.69-1.177 3.345-2.517 4.965-3.941 2.293-2.018 4.522-4.205 6.706-6.314 2.472-2.385 5.389-5.17 8.139-8.027 1.86-1.934 3.645-3.9 5.17-5.803 1.412-1.761 2.769-3.744 4.05-5.753 1.975-3.097 3.768-6.256 5.312-8.698 1.333-2.108 3.019-4.487 4.31-6.624.725-1.198 1.33-2.33 1.723-3.317.447-1.13.687-2.488.76-3.808.075-1.338-.015-2.63-.17-3.554m-4.35.95c.086.644.12 1.48.068 2.344-.052.832-.181 1.694-.467 2.404-.32.788-.821 1.686-1.407 2.64-1.29 2.107-2.973 4.447-4.303 6.523-1.556 2.429-3.365 5.57-5.355 8.65-1.201 1.859-2.47 3.696-3.791 5.324-1.453 1.79-3.153 3.638-4.924 5.455-2.725 2.795-5.62 5.515-8.07 7.846-2.145 2.042-4.334 4.16-6.586 6.113-1.49 1.289-3.005 2.504-4.557 3.567a59 59 0 0 1-5.834 3.532 45.4 45.4 0 0 1-6.17 2.699c-3.435 1.197-7.897 2.872-12.515 4.009-2.758.68-5.572 1.167-8.241 1.21-2.583.043-5.73-.27-9.058-.735-7.886-1.104-16.737-3.085-21.88-3.746-3.036-.391-6.311.129-9.346-.18-.99-.1-1.95-.305-2.84-.757-1.211-.617-2.488-1.68-3.795-2.891-3.36-3.113-6.8-7.181-9.446-9.237-2.024-1.572-4.812-2.236-7.053-3.471-.546-.301-1.051-.646-1.405-1.16-.885-1.283-1.578-3.104-2.211-5.103-.937-2.961-1.687-6.3-2.416-9.182-.516-2.041-.932-4.176-1.304-6.33-.578-3.342-1.05-6.731-1.6-9.91-.61-3.541-.788-7.282-1.398-10.813-.301-1.74-.704-3.432-1.277-5.041-.731-2.05-1.667-4.021-2.737-5.927-1.54-2.738-3.363-5.335-5.25-7.83-1.298-1.72-2.802-3.42-4.38-5.076-2.27-2.381-4.697-4.666-6.862-6.768-2.687-2.61-5.745-4.927-8.506-7.416a43 43 0 0 1-1.874-1.785c-1.803-1.834-3.691-3.684-5.368-5.653-1.04-1.221-1.993-2.49-2.772-3.838-.933-1.616-1.72-3.543-2.366-5.444a52 52 0 0 1-1.636-5.97 13.6 13.6 0 0 1-.29-3.167 22 22 0 0 1 .359-3.441c.707-3.955 2.88-11.062 4.335-17.292.375-1.607.705-3.157.957-4.59a65 65 0 0 0 .584-4.214c.603-5.566.68-11.535 1.486-15.817.293-1.558.725-3.095 1.223-4.613.805-2.452 1.774-4.854 2.645-7.205.852-2.3 1.564-4.69 2.49-6.966.55-1.351 1.175-2.663 1.986-3.871 1.51-2.246 3.583-4.987 5.91-7.703 2.107-2.461 4.419-4.906 6.709-6.94 3.952-3.51 9.197-7.995 14.813-12.132 3.44-2.534 7.019-4.94 10.522-6.896 5.074-2.834 10.91-5.668 16.955-8.203 5.889-2.47 11.973-4.657 17.738-6.296 4.429-1.258 9.189-2.211 13.949-2.962 7.624-1.202 15.252-1.891 21.57-2.478 4.319-.401 8.669-.706 13.017-.79 4.309-.083 8.617.05 12.89.522 4.269.47 8.893 1.348 13.389 2.402a179 179 0 0 1 13.218 3.654 90 90 0 0 1 9.623 3.698c3.15 1.417 6.228 3 9.217 4.713 4.16 2.389 9.853 5.744 14.905 9.135 3.593 2.412 6.86 4.832 8.959 6.925 1.326 1.32 2.243 2.94 2.99 4.675 1.242 2.877 2.03 6.06 3.113 8.97 1.577 4.243 3.965 11.027 6.48 18.322a2783 2783 0 0 1 9.358 27.664c1.738 5.252 3.92 10.927 5.482 16.213.713 2.41 1.294 4.739 1.632 6.9.268 1.729.334 3.47.294 5.217-.098 4.312-.82 8.66-.972 12.975-.183 5.12-.15 12.56-.384 18.923-.111 3.002-.281 5.757-.568 7.89-.29 2.156-.728 4.423-1.39 6.569-.653 2.125-1.521 4.13-2.694 5.762-1.151 1.6-2.68 2.979-4.376 4.169-1.74 1.22-3.656 2.239-5.554 3.074-2.295 1.01-5.172 1.888-8.154 2.614a92 92 0 0 1-8.578 1.643c-2.011.286-4.175.423-6.324.479-3.527.093-7.016-.036-9.766-.12-2.942-.09-7.303-1.044-9.517-1.211-.71-.054-1.275-.027-1.653.044-.987.188-1.445.716-1.702 1.128a2.3 2.3 0 0 0-.295 1.744c.087.406.422 1.08 1.127 1.718z"/><path d="M15.842 141.964a3.5 3.5 0 0 0-.94 4.529c.583.8 1.178 1.517 2.163 1.659.339.05.706.18 1.12.107.347-.062 1.287-.037 2.112-.882.255-.261 1.042-1.202 1.042-1.202s-.151.092-.193.13l2.774-2.513c1.268-.876 2.915-2.024 4.73-2.7 1.497-.555 3.062-.922 4.393-.403 1.812.872 3.307 2.044 4.482 3.494 1.222 1.507 2.01 3.318 2.729 5.217.355 1.006.85 3.182 1.326 4.6.295.88.725 1.509 1.004 1.91.955 1.378 2.33 1.337 3.233 1.34 1.019.004 2.16-.614 3.102-2.481a3.5 3.5 0 0 0-1.856-4.39c-.651-1.181-1.348-2.644-1.794-3.37-1.272-2.18-2.73-4.12-4.444-5.816-1.737-1.717-3.677-3.232-6.105-4.244-1.768-.892-3.873-.931-6.03-.627-2.753.388-5.572 1.506-7.615 2.442l-3.782 2.16c-.231.129-1.625.599-1.451 1.04m26.957 9.55a1.84 1.84 0 0 0-.458.863c.114-.316.27-.604.458-.862m4.939-.004.006.009a.3.3 0 0 0 .086.062zm-27.363-9.265c.235.225.442.489.61.786a2.1 2.1 0 0 0-.61-.786m-1.766-.918c.353.068.694.19 1.01.363-.262-.182-.6-.31-1.01-.363m12.474 22.132c.286-.43.477-.822.8-1.055.136-.098.198-.293.359-.304.388-.026.813.138 1.34.418.382.295.598.755.805 1.209q.022.05.039.099-.08.074-.153.154c-.03.056-.073.116-.043.132.098.055.179.045.247.004.02.305-.06.623-.075.934.016-.19 0-.446-.177-.55-.19-.111-.386.19-.467.275-.16.165-.193.33-.25.4-.198.247-.146.514-.222.66-.205.394-.022.758-.071 1.028-.042.235.11.424.112.625.005.727.636 1.07.939 1.567.396.648 1.22.623 2.065.928.3.109.639-.091 1.065-.077.284.009.572-.296 1.096-.466.104-.033.306-.322.918-.704q.316-.344.523-.738c.543-.484.646-2.728.167-3.856-.432-1.131-.923-2.215-1.788-3.104-.811-.833-1.637-1.643-2.676-2.07-1.717-1.12-3.102-1.227-4.395-1.13-1.276.096-2.45.708-4.056 1.683-.22.123-.598.262-.981.459-.46.235-.77.616-1.128.906-.537.435-.623 1.08-.886 1.588-.117.226-.058.479-.13.715-.297.967.34 1.79.924 2.915a3.503 3.503 0 0 0 4.942.287 3.5 3.5 0 0 0 1.157-2.932m-.663-1.752a.6.6 0 0 0-.208-.258q.112.126.208.258m121.8-15.845a3.47 3.47 0 0 0 .037-1.822c-.747-1.842-1.68-2.788-2.994-2.891-.69-.053-1.507-.192-2.306.228-.883.463-2.015 1.388-2.406 1.856-1.081 1.23-3.058 4.905-3.185 7.758-.093 2.116.449 3.847 2.098 4.654a5.5 5.5 0 0 0 1.85.584c.69.086 1.404.077 2.089.064a8.2 8.2 0 0 0 1.827-.15c.618-.118 1.209-.343 1.874-.686 2.14-1.023 3.475-3.418 3.57-5.461.073-1.566-.681-2.977-2.454-4.134m-2.976 4.988c-.341.063-1.034.403-1.402.337a3.5 3.5 0 0 1-1.797.293c-.04.27.022.615-.182.634h-.021q.143.058.296.079c.419.055.85.044 1.265.05a3.4 3.4 0 0 0 .869-.114c.217-.063.399-.208.62-.361.26-.191.29-.587.352-.918m-.104-.675a.3.3 0 0 0 .064-.082zM248.1 140.1c-.957-.052-3.002.368-4.411 1.027-1.665.778-2.17 2.338-2.386 3.757 0 1.252.659 2.35 1.649 2.969-.05.654.018 1.29.3 1.898.237.53.525 1.056 1.042 1.437.784.578 2.049 1.028 3.499 1.07 2.518.074 5.287-.954 5.948-2.191 1.362-2.043 1.104-4.31.234-6.184a3.5 3.5 0 0 0-.05-2.705 3.5 3.5 0 0 0-4.614-1.79c-.508.317-.896.537-1.211.713m1.868 6.303-.08.058c-.27.22-.62.468-.961.766.548.024 1.08.167 1.36.426.069-.452-.085-.887-.32-1.25M148.292 236.19c1.324-.158 2.547-.016 3.392.81a3.5 3.5 0 0 0 4.92-.55 3.5 3.5 0 0 0-.55-4.918c-2.1-1.344-4.527-1.844-7.195-1.307-4.063.818-8.641 3.604-11.322 5.294-1.391.768-3.277 1.91-4.121 3.425-.52.93-.737 1.989-.466 3.239.567 3.059 2.474 3.897 4.528 3.994 3.268.154 8.08-3.566 9.338-5.172 1.18-1.463 1.594-3.235 1.499-4.591a4 4 0 0 0-.023-.223m-7.107 2.304c-.614.27-1.18.529-1.676.75-.66.327-1.551.684-2.188 1.253-.204.184-.407.39-.328.69.062.203.309.347.347.464a.2.2 0 0 0 .008-.053c-.007-.092.176-.065.272-.095.32-.097.627-.303.953-.507 1.048-.656 2.01-1.691 2.612-2.502m1.549.712q.057.03.128.043z"/><path d="M67.092 87.822c1.73 1.239 3.01 4.957 3.87 6.762 2.622 5.502 4.58 11.238 6.422 17.049.719 2.268 3.497 5.205 2.686 7.704-.94 2.893-4.55 2.543-6.738 1.558-.191-.086-2.865-1.452-2.96-1.19-.968 2.663.59 7.94.59 10.822 0 1.484.539 3.42-.955 4.26-8.117 4.57-18.335-.798-27.048.45-3.061.44-6.333.076-9.335.617-6.775 1.22-13.616 6.764-19.762.573-1.11-1.117-2.463-2.202-3.462-3.401-.701-.842-.813-2.074-1.184-3.074-3.431-9.256 3.032-13.738 5.419-21.884.926-3.161.365-8.346 2.96-10.697.547-.496-1.937-2.418-2.186-2.746-1.308-1.722-1.674-3.864-1.321-6.024.687-4.195 2.417-4.681 5.374-6.885.752-.56 1.996-2.485 2.868-2.746 3.73-1.114 9.012-.022 12.66.779 6.275 1.378 12.668 2.336 19.079 2.336 3.66 0 8.273-.076 11.703 1.475 1.435.648 4.413 2.735 1.685 3.402"/><path d="M14.724 97.265a9.7 9.7 0 0 0-.99 2.368c-.705 2.516-.611 5.636-1.223 7.812-1.692 5.967-5.483 10.049-6.202 15.34-.318 2.338-.124 4.893.998 7.875.268.718.412 1.55.717 2.285.208.5.472.967.817 1.379l3.583 3.53c2.959 2.998 6.064 3.72 9.242 3.443 4.016-.353 8.195-2.636 12.333-3.358a17 17 0 0 1 1.65-.191c2.512-.18 5.133-.005 7.62-.343 5.97-.79 12.618 1.614 18.82 1.66 3.19.024 6.27-.521 9.148-2.092 1.06-.58 1.667-1.415 2.024-2.374.445-1.195.253-2.77.27-4.072.027-1.76-.493-4.401-.7-6.818 1.78.68 4.039.968 5.884.459 1.857-.512 3.372-1.738 4.123-3.932.467-1.366.37-2.82-.096-4.292-.576-1.817-1.996-3.685-2.46-5.23-1.061-3.566-2.171-7.103-3.44-10.584a98 98 0 0 0-2.845-6.991c-.591-1.3-1.39-3.507-2.387-5.235a3.85 3.85 0 0 0 .388-2.392 4.85 4.85 0 0 0-1.084-2.367c-.888-1.061-2.606-2.193-3.742-2.681-1.687-.725-3.59-1.164-5.564-1.38-2.556-.28-5.226-.223-7.54-.182-3.075.052-6.15-.121-9.212-.464a108 108 0 0 1-9.253-1.48c-2.304-.466-5.221-1.027-8.033-1.148-2.14-.093-4.222.056-6 .617-.5.157-1.09.47-1.656.983-.705.639-1.471 1.816-2.003 2.225-2.128 1.635-3.65 2.538-4.706 4.149-.697 1.062-1.248 2.403-1.55 4.419-.207 1.375-.191 2.742.089 4.037.298 1.375.868 2.677 1.765 3.828.097.125.694.7 1.215 1.197m49.153-10.826c-.958-.386-2.017-.631-3.108-.791-2.264-.331-4.642-.343-6.7-.38a78 78 0 0 1-9.99-.84c-3.257-.478-6.495-1.127-9.702-1.89-2.041-.482-4.623-1.09-7.128-1.276-1.368-.102-2.71-.1-3.885.182-.368.403-1.798 1.954-2.351 2.354-1.381.998-2.49 1.56-3.31 2.412-.584.607-.936 1.41-1.182 2.789-.136.77-.162 1.54-.023 2.273.124.65.362 1.275.757 1.832.213.194 1.092 1.004 1.559 1.525.532.595.905 1.2 1.05 1.648.394 1.21.06 2.158-.698 2.828-.73.645-1.027 1.654-1.257 2.725-.501 2.328-.571 4.955-1.151 6.86-1.51 4.98-4.533 8.577-5.886 12.747-.734 2.262-.872 4.722.253 7.807l.834 2.484 3.34 3.27c1.928 1.932 3.935 2.413 5.992 2.216 3.907-.376 7.936-2.7 11.957-3.446a21 21 0 0 1 2.066-.272c2.416-.21 4.943-.064 7.334-.425 6.13-.947 13.033 1.3 19.419 1.194 2.246-.037 4.418-.415 6.429-1.507a62 62 0 0 1-.101-2.231c-.03-1.91-.79-4.878-.988-7.414-.13-1.662-.01-3.18.392-4.342.23-.667 1.349-2.305 3.63-1.694.83.223 2.87 1.199 3.047 1.275.564.244 1.273.41 1.957.417.344.003.754.044.869-.331.116-.378-.185-.734-.37-1.133-.772-1.666-1.973-3.337-2.447-4.753-.955-2.843-1.941-5.666-3.021-8.451-1.061-2.737-2.22-5.433-3.535-8.072-.44-.884-.993-2.238-1.652-3.521-.378-.737-.726-1.497-1.223-1.84a3.5 3.5 0 0 1-1.177-4.23m2.65-2.85.099-.027a1 1 0 0 0-.098.027"/><path d="M207.48 40.733c-2.813-.631-6.546 3.622-8.88 4.96-7.574 4.339-15.6 7.816-23.224 12.13-2.295 1.299-4.542 2.693-6.693 4.22-.572.408-2.026 1.507-2.823 1.149-2.054-.921-3.02-5.595-2.414-7.5.23-.725.654-1.365 1.048-2.008.222-.363.843-1.48.638-1.107-1.685 3.054-6.781 4.785-9.427 6.886-9.82 7.8-19.02 16.11-32.33 17.09-2.051.15-7.166 1.505-8.197-.82-1.12-2.527 2.137-5.384 3.825-6.721.088-.07 1.788-1.506 1.867-1.435.502.455-4.327 3.823-4.644 4.016-6.095 3.713-12.838 6.442-19.216 9.63-8.69 4.346-19.075 6.558-28.825 6.558-1.025 0-3.014-.824-3.096-2.008-.037-.547-.214-1.843.09-2.336.165-.266 1.57-1.793 1.003-.942-5.095 7.643-18.151 7.443-26.047 5.45-1.722-.435-3.802-.363-5.327-1.393-1.943-1.312-2.313-2.877-3.188-4.92-.131-.305-.12-2.042-.41-2.13-1.292-.385-3.148.69-4.326 1.026-3.008.854-5.933 2.024-8.97 1.105-4.241-1.282-9.046-.39-13.48-1.72-1.63-.49-4.163-1.785-4.37-3.853C-.952 65.896 10.39 59.355 18.55 56.183c2.895-1.125 5.67-2.302 8.743-2.827.98-.168 1.913-.316 2.869-.573.529-.143 2.142-.41 1.594-.41-3.187 0-6.337 2.345-9.745 1.639-4.337-.898-.338-7.338 1.229-8.525 2.193-1.661 4.873-2.578 7.286-3.851 4.964-2.62 9.226-5.62 14.845-6.762 3.54-.72 6.965-.435 10.519-.78.566-.054 2.887.068 3.324-.327.16-.147-3.905-4.147-4.008-5.164-.388-3.821 4.319-8.423 7.104-10.533 5.047-3.823 11.528-4.332 17.622-5 1.975-.215 5.33-1.061 7.332-.41 2.894.944 5.15 3.284 7.833 4.59.208.102 2.136 1.25 2.275 1.189.274-.123.76-1.77.91-2.05 1.05-1.957 2.274-4.023 3.644-5.777 2.209-2.828 7.63-5.234 11.202-5.902 8.448-1.578 14.45 1.488 21.995 4.549.985.4 2.333.585 3.14 1.312.622.558 2.233 4.242 3.644 3.4 2.613-1.556 4.81-5.768 7.058-7.95 4.307-4.18 12.819-6.7 18.85-5.86 3.094.43 10.133 1.704 12.432 3.648 2.984 2.523 6.608 7.535 10.11 9.097 1.099.49 5.252-2.75 6.375-3.237 4.085-1.776 10.599-.654 13.479 2.87 5.803 7.1 2.696 15.695-1.411 22.744-2.05 3.518-2.825 6.699-6.603 5.696"/><path d="M83.069 163.335a5 5 0 0 0-.274.933c-.272 1.612.327 2.83 1.169 3.584a5.7 5.7 0 0 0 1.894 1.104c-.597.599-1.344 1.397-1.906 2.152-.834 1.121-1.276 2.274-1.343 3.073-.133 1.588.476 2.804 1.819 3.605.948.565 2.076.908 3.325 1.038a66 66 0 0 0-1.692 2.019c-.216.267-1.439 1.627-2.356 3.085-.738 1.173-1.256 2.426-1.378 3.45-.222 1.878.43 3.388 2.083 4.355 1.034.604 2.19.986 3.429 1.168l-.028.066c-.347.898-.313 1.686-.141 2.294.253.894.795 1.638 1.781 2.105q.304.145.634.252c-.782 1.167-1.597 2.601-1.753 3.681-.262 1.816.381 3.22 1.92 4.07 1.093.604 2.316.897 3.614.914-.239.674-.345 1.295-.336 1.733.032 1.588.869 2.505 2.046 2.924 1.982.706 4.637.026 7.235-1.901.89-.66 1.794-1.459 2.67-2.308a81 81 0 0 0-1.087 3.091c-.839 2.566-1.533 5.197-1.969 7.955-.1.629-.752 4.354-.511 6.402.259 2.209 1.591 3.308 2.802 3.538q.157.03.312.046l-.882 2.784c-.269.84-1.006 2.506-1.066 3.314-.066.897.212 1.57.545 2.023.142.194.306.383.498.55q-.15.202-.287.406c-1.802 2.657-2.266 5.382-1.402 7.468.392.948 1.107 1.715 2.172 2.118.134.764.399 1.381.727 1.807q.468.604 1.041.898c-.234 1.114-.402 2.385-.236 3.296.238 1.304.943 2.198 1.95 2.649 1.252.561 2.554.617 3.848.248-.225 1.027-.427 2.282-.405 3.364.028 1.371.439 2.524 1.091 3.244 2.014 2.223 4.674 2.143 7.424.394 1.477-.939 2.998-2.434 4.341-3.951-.67 1.689-1.243 3.322-1.47 4.797-.089.579-.383 3.757.072 4.818.467 1.086 1.289 1.544 2.176 1.609l.15.008c-.409.929-.912 2.169-1.057 3.11-.163 1.062.058 1.938.442 2.511.54.81 1.215 1.144 1.883 1.254.607.099 1.286.003 1.975-.403.512-.303 1.104-.963 1.674-1.689l-.011.046c-.136.55-.428 2.057-.438 3.244-.009 1.019.24 1.874.565 2.361.959 1.434 2.329 1.762 3.862 1.307 1.604-.476 3.537-2.336 4.042-2.842 2.774-2.785 5.195-5.872 7.825-8.78a55 55 0 0 1 2.526-2.632c-.855 1.381-1.647 2.579-1.892 3.094-.452.951-1.522 3.302-1.546 3.893-.042 1.023.477 1.592.924 1.901.408.282 1.418.858 2.716-.181q.628-.505 1.218-1.072l-.036.123c-.131.464-.862 2.884-.754 4.243.11 1.393.863 2.22 1.785 2.534 1.371.468 3.082.156 4.829-.81-.213.663-.661 2.182-.684 3.149-.031 1.286.593 2.109 1.203 2.468 1.171.689 2.609.643 4.067-.075 1.867-.921 3.846-3.085 4.505-3.775a38 38 0 0 0 2.515-2.915l-.179.738c-.187.803-.574 2.931-.321 4.431.244 1.444 1.026 2.44 2.134 2.83 1.133.399 2.333.188 3.46-.528 1.441-.914 2.782-2.843 3.32-3.52a139 139 0 0 0 4.551-6.108c2.143-3.026 4.208-6.112 6.312-9.158l-2.021 6.713c-.205.818-1.024 5.67-.199 7.998.344.97.925 1.651 1.631 2.039.862.475 2.068.655 3.664-.229 2.548-1.411 4.769-3.856 6.673-6.712-.065.742-.073 1.608.092 2.3.291 1.213 1.019 2.046 2.036 2.392 2.024.688 4.166.02 6.129-1.607 2.956-2.448 5.578-7.197 6.621-9.007l1.536-2.757a5 5 0 0 0 .016.677c.225 2.389 1.71 3.036 3.179 2.726 2.006-.422 4.06-1.72 5.998-3.52 3.5-3.251 6.71-8.18 8.86-10.802l2.988-3.837c-.478 2.57-1.416 5.339-1.563 7.115-.02.245-.154 3.237.193 4.06.356.845.969 1.233 1.514 1.403.561.174 1.218.189 1.94-.251 2.311-1.407 4.215-3.849 5.759-6.817 2.888-5.552 4.565-13.024 6.28-17.368.528-1.334.825-2.108 1.137-2.801q.072-.16.146-.316c.559-.8 1.137-1.59 1.671-2.406.496-.758.957-1.537 1.346-2.358.563-1.187.161-1.928.086-2.093-.129-.285-.809-1.061-1.696-1.292.418-1.417.812-2.835 1.192-4.246.169-.627 1.524-4.058 1.821-6.2.217-1.56-.184-2.752-.688-3.345-.554-.652-1.247-1.065-2.048-1.209q.048-.157.092-.312c.664-2.39.318-4.49-.98-5.806-1.513-1.536-4.056-1.833-6.947-.892-1.514.493-3.154 1.306-4.68 2.178a3.6 3.6 0 0 0-.42-.64c-1.266-1.55-3.574-2.059-6.315-1.373-1.07.267-2.226.708-3.352 1.212a4.3 4.3 0 0 0-1.296-2.283c-.91-.839-2.436-1.503-4.891-1.302l-.231.037c.181-.814.19-1.563.038-2.183-.417-1.692-1.941-3.569-6.233-3.003-2.494.33-4.933 1.112-7.302 2.139-.769.333-1.53.692-2.282 1.068-.559-.544-1.329-.945-2.378-1.124-3.8-.648-7.799.392-11.648 2.28q-1.096.539-2.172 1.157a4.5 4.5 0 0 0-.586-1.068c-.771-1.047-2.063-1.725-3.678-1.869-1.901-.169-4.383.471-5.447.855-2.687.969-5.307 2.214-7.874 3.596l-.517.281c-2.81-.522-5.921.058-9.053 1.362-1.564.651-3.14 1.488-4.68 2.414-.264-1.17-.987-1.886-1.824-2.291-1.275-.616-2.762-.787-4.321-.579-2.383.319-5.002 1.624-6.621 2.45-2.951 1.506-5.694 3.305-8.258 5.338a58 58 0 0 0-4.187 3.67c-.678.173-1.359.43-2.031.759-2.157 1.056-4.255 2.927-5.675 4.198a68 68 0 0 0-2.99 2.86 4.3 4.3 0 0 0-.529-.797c-.117-.763-.555-1.236-.929-1.521-.411-.315-1.438-1.023-2.79-.147-.877-.032-1.87.127-2.787.366 1.811-4.001 3.733-7.944 5.28-12.103.526-1.414-.078-2.204-.167-2.352-.256-.422-2.7-2.437-4.333-.017-.168.25-.576.988-.922 1.612a354 354 0 0 1 2.469-6.354c.313-.784 1.092-1.673 1.589-2.525.476-.816.781-1.626.87-2.346.157-1.27-.187-2.409-1.239-3.369-1.052-.959-2.054-.884-2.857-.603-.54.189-1.13.577-1.557 1.324-.223.388-.578 1.79-.63 1.996l-2.281 5.302c-.86 2-1.742 3.983-2.665 5.946q.369-1.319.798-2.608c1.901-5.726 4.555-11.104 6.504-16.907.352-1.047.091-1.704-.011-1.979-.431-1.162-1.263-1.681-2.305-1.802-.422-.049-1.279-.078-2.172.674-.175.147-.598.68-.974 1.144l-.102-.058c-.696-.374-1.752-.572-2.973-.163-1.178.395-2.898 1.636-3.177 1.83a37.3 37.3 0 0 0-4.919 4.066l-.232.235c-.903.507-1.849.976-2.794 1.332a15 15 0 0 1-1.147.396c.38-.489.705-.855.791-.957 1.283-1.519 2.713-2.86 4.236-4.089 2.543-1.434 4.857-3.066 6.038-3.741l2.832-1.673c.604-.355 2.043-.84 2.638-1.207.665-.411 1.049-.893 1.252-1.243.571-.985.547-1.926.173-2.786-.204-.469-.583-1.146-1.524-1.586a2.9 2.9 0 0 0 .198-2.098c-.318-1.225-1.106-2.311-2.988-2.311-1.893.005-4.032.657-6.182 1.756-2.639 1.35-5.346 3.379-7.574 5.141-.955.353-1.932.663-2.899.89-.939.22-1.866.393-2.722.382.609-.85 1.302-1.812 1.418-1.954 2.043-2.512 5.396-6.2 9.077-9.141 1.29-.579 2.4-1.108 3.191-1.452l4.928-2.336c.557-.271 1.929-.931 2.216-1.168.927-.765 1.128-1.633 1.191-2.135q.182-1.44-.764-2.534c-.289-.334-1.031-1.244-2.773-1.128-3.362.223-7.166 2.09-10.739 4.772l-.283.216c-1.31.579-2.773 1.178-4.24 1.642a69 69 0 0 1 4.526-3.632c2.055-1.502 4.207-2.864 6.391-3.91.164-.079.261-.135.305-.161 2.485-1.458 1.536-3.828 1.413-4.136-.302-.756-1.059-2.169-3.219-2.102-.084.003-.52-.003-1.158.245-.2.077-.896.375-1.174.503l-2.973 1.354c-.922.4-2.697 1.279-4.612 1.985q.251-.29.514-.571c.348-.372.701-.74 1.058-1.071l.287-.17c.585-.344 2.049-1.166 2.417-1.434.822-.596 1.108-1.239 1.213-1.482.44-1.023.322-1.892.066-2.571-.262-.693-.714-1.321-1.49-1.764q.142-.122.267-.255.32-.34.572-.735c1.404-2.22.236-3.699-.275-4.285-.578-.662-1.578-1.43-3.224-1.172-.254.04-.635.128-1.078.332-.396.183-1.165.674-1.522.877l-2.832 1.849c-1.116.842-5.393 4.09-6.94 6.719-1.127 1.915-1.185 3.757-.513 5.195.444.95 1.201 1.735 2.257 2.16m133.099 44.118c-1.903.299-3.759.935-5.569 1.728a48 48 0 0 0-3.555 1.757c-.3.973-.729 1.871-1.159 2.482-1.427 2.027-3.871 4.308-6.567 5.618-2.12 1.03-4.386 1.463-6.496 1.001-1.005-.22-1.571-.752-1.922-1.289-.498-.758-.741-1.835-.126-3.081.481-.973 2.203-2.555 3.154-3.178l3.877-2.329c-1.071.34-2.141.799-3.199 1.324-2.581 1.279-5.086 2.973-7.383 4.633a37 37 0 0 1-3.893 4.216 50 50 0 0 1-5.193 4.215c-.829.59-2.335 1.804-3.767 2.391-1.158.475-2.311.601-3.312.359-1.753-.424-2.234-1.557-2.347-2.585-.064-.58.02-1.338.545-2.12.449-.669 1.886-1.768 2.572-2.301l7.062-4.918c1.208-.832 2.543-1.819 3.974-2.854q.232-.301.455-.609c.211-.293.529-.729.819-1.228-.727.105-1.553.243-1.873.36-2.42.886-4.776 2.028-7.085 3.286q-.414.225-.826.456c-.317.57-.801 1.242-1.412 1.91-1.454 1.588-3.62 3.392-3.689 3.446a54 54 0 0 1-5.23 3.584 77 77 0 0 1-5.468 2.99c-.366.183-3.027 1.66-4.816 1.981-1.287.232-2.372-.007-3.109-.45-.61-.366-1.002-.793-1.246-1.24-1.498 1.52-3.13 3.027-4.757 4.201-2.365 1.706-4.788 2.714-6.903 2.709a4 4 0 0 1-1.065-.133c-1.11 1.139-2.246 2.048-3.015 2.461-.826.442-3.03.991-4.508.697-1.293-.258-2.252-.901-2.81-1.861l-.003.004c-.794.828-1.576 1.669-2.353 2.514.167.276.293.628.326 1.074.023.31-.263 1.602-.445 2.108a16 16 0 0 1-.822 1.918 23 23 0 0 1-.996 1.728c-.667 1.067-1.903 3.188-3.435 5.264a72 72 0 0 0-1.826 5.372c-.207.69-.504 3.336-.566 3.9.255.111.557-.074.872-.23.884-.438 1.789-1.207 2.662-2.069 2.322-2.29 4.36-5.258 5.015-6.114l2.178-2.982c.216-.282.585-.955.819-1.22.383-.432.79-.638 1.075-.735.77-.264 1.443-.132 2.022.245.372.241.913.682 1.056 1.681.255 1.779-.073 3.78-.737 5.857-1.074 3.358-3.104 6.971-3.723 9.988q.178-.24.354-.494c1.752-2.534 3.181-5.884 4.04-7.247l2.2-3.256c.241-.333.784-1.19.956-1.409 1.581-2.013 3.573-.068 3.771.333.066.134.522.832.004 1.987a46 46 0 0 1-.71 1.507c.31-.331.619-.587.903-.756 1.33-.793 2.217-.181 2.593.116.461.364.952.99.815 2.034-.051.396-.915 1.924-1.239 2.567l-1.524 2.987c-1.247 2.646-2.475 5.378-3.512 8.166a52 52 0 0 0-1.738 5.539 9 9 0 0 0-.127.874c.456-.352.893-.698 1.019-.825 2.732-2.729 5.112-5.763 7.701-8.614 1.162-1.28 2.365-2.525 3.652-3.696.215-.196 3.639-3.228 5.155-3.865 1.568-.658 2.639.019 3.125.711.285.406.47 1.04.46 1.829.506-.685 1.016-1.347 1.419-1.686.611-.513 1.222-.685 1.68-.7.932-.032 2.01.284 2.402 1.966.216.929.087 1.828-.294 2.698-.456 1.04-1.421 2.036-2.013 3.01-1.048 1.727-2.199 3.479-3.15 5.31-.587 1.13-1.097 2.291-1.439 3.5a44 44 0 0 0-.309 1.375 11 11 0 0 0 1.514-.983c2.27-1.711 4.485-4.194 5.579-5.164l3.312-3.027c.193-.188.499-.691.689-.888.301-.314.604-.479.811-.563.81-.329 1.475-.144 2 .229.334.237.889.703.888 1.767 0 1.005-.378 1.868-1.026 2.63-.666.783-1.808 1.385-2.45 2.195-1.051 1.326-2.065 2.678-2.967 4.097-.861 1.355-1.621 2.77-2.208 4.286.991-.802 1.847-1.776 2.214-2.158 1.491-1.555 2.808-3.247 4.009-5.02 1.85-2.732 3.425-5.657 4.92-8.597l1.341-2.815c.28-.605.656-2.011.962-2.614a2.8 2.8 0 0 1 .736-.929c.681-.529 1.37-.554 1.99-.343.408.139 1.072.456 1.403 1.495.188.589.203 1.403.009 2.276-.275 1.236-.973 2.681-1.064 2.935-1.08 3.024-2.274 6.058-3.319 9.131-.678 1.995-1.293 4.007-1.768 6.042-.059.257-.116.934-.158 1.577.626-.668 1.402-1.507 1.636-1.803 1.531-1.93 2.99-3.918 4.414-5.931 2.163-3.059 4.246-6.179 6.371-9.257l4.425-6.286c.061-.078 1.619-1.687 2.269-2.275 1.856-1.678 3.614.833 3.642 1.15.091 1.059-.075 2.232-.41 3.435-.595 2.134-1.755 4.397-2.317 6.086l-2.409 8.037c-.109.436-.226 3.434-.276 4.869 1.815-1.195 3.365-3.09 4.753-5.205 2.471-3.765 4.386-8.242 5.991-11.44.034-.066 1.123-3.092 2.061-4.695.652-1.113 1.477-1.71 1.98-1.866.956-.297 1.625-.003 2.114.401.358.296.679.742.792 1.39.091.517-.143 1.664-.255 2.239l-.969 3.31c-.918 2.951-2.175 5.922-3.138 8.928a32 32 0 0 0-.968 3.674c-.038.199-.07.747-.089 1.189.161-.053.321-.132.481-.22.621-.339 1.219-.87 1.797-1.481 2.155-2.278 3.939-5.638 4.73-7.02l2.754-4.97 1.942-4.109c.104-.236.859-2.877 1.738-4.248.582-.907 1.314-1.43 1.932-1.619.999-.305 1.704-.015 2.224.396.397.315.745.793.882 1.488.127.644-.187 2.074-.23 2.812-.036.632-.805 4.893-1.304 7.605.946-.684 1.874-1.591 2.785-2.57 2.835-3.047 5.369-6.923 7.16-9.118l4.139-5.338c.048-.057 1.011-1.086 1.876-1.736.636-.477 1.286-.752 1.73-.826 1.217-.203 2.071.28 2.587 1.262.658 1.255.826 2.955.607 4.837-.185 1.577-.649 3.316-1.05 4.899a33 33 0 0 0 1.403-2.924c.841-1.97 1.565-4.075 2.221-6.13-.75-.245-1.326-.753-1.374-.826-.071-.108-.701-1.002-.151-2.281.203-.473 1.031-2.11 1.418-2.743l.476-.707a60 60 0 0 0 2.018-4.587c1.609-4.094 2.842-8.358 3.956-12.551.09-.339.601-2.128 1.041-3.667l-.043.035q-.36.298-.714.616a61 61 0 0 1-.914 1.367l-2.089 2.806c-.62.739-1.705 2.259-2.46 2.71-.711.423-1.403.497-1.997.387-.699-.131-1.417-.492-1.924-1.432-.305-.564-.504-1.443-.028-2.491.476-1.047 2.614-3.178 2.74-3.311.366-.386 1.449-1.571 2.778-2.822.611-.948 1.351-2.18 1.941-3.444.368-.787.68-1.583.825-2.315.048-.245.049-.618.047-.766-.198-.1-.48.037-.782.084-1.123.178-2.409.737-3.678 1.392-1.652.853-3.263 1.892-4.495 2.733-.219.391-.46.779-.721 1.154-1.027 1.479-2.33 2.761-3.515 3.441-1.262.724-2.497.858-3.505.555a2.37 2.37 0 0 1-1.507-1.277c-.206-.424-.509-1.238.053-2.278.085-.156.314-.499.717-.907.959-.972 3.594-3.235 3.824-3.394l.548-.381.138-.302.095-.222a3 3 0 0 0-.319.036c-.831.151-1.75.485-2.665.878-1.692.726-3.357 1.668-4.523 2.349-.884 1.181-1.946 2.248-2.999 2.98-1.762 1.226-3.578 1.513-4.894 1.036-1.654-.6-1.856-1.763-1.759-2.726a2.7 2.7 0 0 1 .795-1.652c.32-.324 1.211-.815 1.614-1.086l3.61-2.21.075-.044.071-.112c.241-.404.449-1.014.57-1.412a4.5 4.5 0 0 0-.711-.006l-1.52.224-3.813 1.705c-.365.339-.707.628-1.006.85-.044.033-3.167 2.113-4.435 2.49-2.098.624-3.204-.624-3.568-1.588-.216-.573-.4-2.222 1.286-3.442.939-.68 3.177-1.794 4.452-2.411.697-.809 1.519-1.962 2.112-2.827m-102.066 40.385-.191.144c-.998.707-1.929.877-2.503.878l-.033-.001a82 82 0 0 0-.376 1.793c.164-.08.328-.184.493-.291.819-.527 1.605-1.325 2.345-2.201zm34.831-29.588-.606.314c-2.565 1.324-4.946 2.907-7.172 4.69q-.595.477-1.176.973.296.535.437 1.147l.071-.042 5.01-3.27c1.309-1.373 2.49-2.736 3.436-3.812" style="fill-opacity:.85" transform="translate(-38.266 -3.5)"/><path d="M65.537 142.102c1.033-.744 3.529-.274 4.726-.274 3.367 0 7.252-.098 10.604-.599 13.545-2.025 27.328-1.451 41.084-1.745 5.741-.122 14.571 1.441 20.118-.545" style="fill:#fff;fill-opacity:.45" transform="translate(-38.266 -3.5)"/><path d="M28.807 141.746c.348.844 2.437-.136 3.19-.177 2.077-.106 4.336-.252 6.558-.502 1.528-.172 3.033-.374 4.447-.655 5.316-.99 10.669-1.65 16.07-1.967a162 162 0 0 1 9.815-.283c4.948.009 9.896.256 14.85.297 3.983.108 9.382 1.064 14.225 1.122 2.555.03 4.953-.234 7.02-.847a3.5 3.5 0 0 0-2.36-6.59c-1.415.597-3.1.949-4.913 1.116-4.76.439-10.155-.025-14.077.249-5.48.267-10.956.527-16.431.607-5.555.08-11.093.045-16.617.325-2.801.142-5.592.308-8.384.605-1.6.16-3.314.209-5.033.207-1.77-.002-3.53-.081-5.17-.165-1.077-.058-3.04-.394-4.45-.216-.924.116-1.69.485-2.322.89a3.5 3.5 0 0 0-.794 4.886 3.5 3.5 0 0 0 4.376 1.098"/><path d="M146.675 134.902c.676 0-.97.947-1.394 1.473-.728.902-1.224 2.077-1.758 3.109-1.809 3.497-2.545 7.533-2.545 11.453 0 11.637 5.362 22.186 14.118 30.05 16.759 15.053 39.217 19.82 60.84 13.524 8.809-2.565 16.386-6.103 21.269-14.343 3.86-6.512 4.054-15.141 3.272-22.413-1.69-15.716-9.649-31.783-25.33-37.958-11.548-4.548-25.14-2.674-37.084-.982-10.708 1.517-17.127 6.645-25.208 13.035-1.166.921-7.393 4.215-7.393 5.562" style="fill:#fff;fill-opacity:.45" transform="translate(-38.266 -3.5)"/><path d="M108.954 127.942a4 4 0 0 0-.545-.04 3.5 3.5 0 0 0-2.593 1.15c-.487-.021-1.212 1.279-1.5 1.646a11 11 0 0 0-.874 1.298c-.45.782-.828 1.636-1.22 2.419a25.4 25.4 0 0 0-2.176 6.45 32 32 0 0 0-.581 6.572c.088 6.334 1.617 12.352 4.355 17.835 2.665 5.34 6.45 10.184 11.144 14.293 8.825 7.743 19.098 12.785 29.975 15.055 10.79 2.25 22.178 1.797 33.33-1.551 4.593-1.367 8.854-3.002 12.61-5.354 3.859-2.417 7.2-5.58 9.81-10.01 1.67-2.822 2.708-6.01 3.297-9.325.848-4.771.758-9.81.286-14.347-.823-8.198-3.313-16.487-7.6-23.56-4.361-7.197-10.595-13.127-18.881-16.486-4.887-1.992-10.135-2.89-15.487-3.15-7.694-.372-15.61.614-22.922 1.553-4.551.58-8.391 1.789-11.918 3.432-5.258 2.45-9.79 5.925-14.957 9.894-.53.406-2.012 1.264-3.553 2.226m-.435 9.21-.228.4a18.7 18.7 0 0 0-1.727 4.694 25.3 25.3 0 0 0-.605 5.19 34.66 34.66 0 0 0 3.28 15.22c2.21 4.737 5.438 9.05 9.458 12.753 7.958 7.317 17.303 12.205 27.276 14.495 10.018 2.299 20.648 1.998 31.098-.951 4.226-1.203 8.168-2.62 11.629-4.75 3.34-2.052 6.223-4.771 8.488-8.572 1.786-3.012 2.713-6.518 3.108-10.11.41-3.73.242-7.551-.146-11.045-.867-7.553-3.228-15.187-7.294-21.644-3.95-6.273-9.53-11.413-16.885-14.225-4.393-1.67-9.088-2.34-13.86-2.452-7.373-.173-14.923 1.004-21.9 2.085-3.851.6-7.085 1.709-10.04 3.187-4.785 2.394-8.84 5.762-13.5 9.556-.885.722-4.834 5.649-6.384 4.57a3.5 3.5 0 0 1-1.768 1.599"/><path d="M229.812 137.249c-1.099-.197 2.85-2.238 3.272-2.401 2.474-.958 5.181-1.773 7.816-2.127 5.04-.677 11.229-.644 16.241.219 1.727.298 3.114.503 4.726 1.145.406.162 2.485 1.19 2.485.872" style="fill:#fff;fill-opacity:.45" transform="translate(-38.266 -3.5)"/><path d="M194.399 135.776c.603-.355 1.35-1.55 1.503-1.63 1.116-.565 2.257-1.133 3.462-1.59 1.179-.447 2.373-.825 3.573-1.084 1.229-.231 2.524-.463 3.868-.572a30 30 0 0 1 3.935-.081c2.686.13 5.317.659 7.683 1.248a47 47 0 0 1 2.22.663c.603.2 1.158.482 1.78.812.383.207 2.04 1.124 2.719 1.352 1.299.437 2.242-.185 2.753-.42 1.165-.531 1.517-1.646 1.69-3.017a3.5 3.5 0 0 0-2.94-3.455c-.202-.415-1.628-.31-1.865-.373-.817-.227-1.56-.415-2.318-.52-1.012-.14-1.995-.22-3.134-.295-2.155-.198-4.476-.21-6.853-.17-1.347.023-2.703.07-4.046.099-2.11.044-4.178.05-6.097.228-1.446.078-2.902.319-4.365.59a50 50 0 0 0-4.233.988c-.337.089-2.385.935-3.637 1.62-.714.39-1.158.909-1.45 1.224-1.142 1.23-.768 2.573-.527 3.5.232.896 1.032 1.767 2.81 2.3a3.5 3.5 0 0 0 3.469-1.417m28.19-4.44a.4.4 0 0 0-.003.12zm-29.445-.702a1.96 1.96 0 0 0-.981-.331c.35.063.68.176.98.33"/><path d="M259.624 134.631c-3.847 0-5.043 4.166-6.785 6.708-5.75 8.392-5.934 20.462-.909 29.066 12.797 21.91 46.718 27.928 67.382 15.053 6.239-3.887 10.255-10.292 14.421-16.087 2.193-3.05 6.815-4.889 8-8.564 1.924-5.963-.849-13.7-2.848-19.25-1.342-3.725-2.173-8.14-4.425-11.454-3.108-4.575-7.046-9.986-12.058-12.598-11.966-6.236-26.967-.101-38.417 4.091-6.864 2.513-14.11 5.974-20.3 9.872-.715.45-5.515 2.372-5.515 3" style="fill:#fff;fill-opacity:.45" transform="translate(-38.266 -3.5)"/><path d="M217.073 128.892a8 8 0 0 0-.623.447c-2.05 1.623-3.255 4.525-4.636 6.61-3.14 4.737-4.764 10.456-4.843 16.203-.078 5.725 1.329 11.464 4.193 16.213 6.909 11.49 19.268 18.795 32.675 21.455 13.283 2.634 27.552.744 38.313-6.087 2.654-1.67 4.932-3.761 6.99-6.071 2.944-3.307 5.432-7.067 7.967-10.611 1.467-2.032 4.078-3.477 5.916-5.361 1.074-1.1 1.928-2.323 2.396-3.752.886-2.695.936-5.716.513-8.774-.577-4.171-2.046-8.415-3.253-11.85-.924-2.634-1.602-5.601-2.681-8.302-.524-1.311-1.141-2.562-1.9-3.704-1.897-2.861-4.111-6.025-6.68-8.71-1.852-1.936-3.898-3.614-6.13-4.81-5.242-2.818-11.047-3.462-16.941-2.922-8.212.752-16.604 3.892-23.678 6.367a118 118 0 0 0-10.756 4.385c-3.582 1.666-7.077 3.514-10.305 5.476-.61.37-4.042 1.729-5.276 2.556a4.5 4.5 0 0 0-1.261 1.242m7.205 4.167a3.5 3.5 0 0 1-2.92 1.572c-.678-.011-1.066.454-1.425.928-.994 1.313-1.731 2.942-2.601 4.17-2.576 3.638-3.951 8.096-4.145 12.599-.198 4.595.784 9.24 2.977 13.117 5.88 10.37 16.795 17.04 28.663 19.657 12.087 2.664 25.175 1.159 35.113-4.92 2.332-1.437 4.332-3.255 6.144-5.262 2.868-3.178 5.274-6.815 7.742-10.23 1.566-2.187 4.313-3.802 6.274-5.837.622-.645 1.147-1.341 1.413-2.176.673-2.128.636-4.51.27-6.911-.588-3.872-2.053-7.79-3.227-10.966-.82-2.217-1.454-4.683-2.324-7.01-.52-1.387-1.13-2.72-1.944-3.891-1.81-2.603-3.902-5.49-6.327-7.915-1.52-1.518-3.172-2.846-4.98-3.763-4.39-2.216-9.21-2.556-14.065-1.977-7.73.922-15.541 4.187-22.15 6.715a111 111 0 0 0-10.05 4.449 99 99 0 0 0-9.488 5.433c-.334.218-1.712 1.472-2.95 2.218"/></svg>