<svg xmlns="http://www.w3.org/2000/svg" xml:space="preserve" style="fill-rule:evenodd;clip-rule:evenodd;stroke-linejoin:round;stroke-miterlimit:2" viewBox="0 0 344 451"><path d="M138.64 314.129c.009-.032-1.875 2.866-2.721 3.881-2.094 2.515-3.862 6.173-4.128 9.457-.88 10.861-2.195 21.599-2.814 32.505-1.531 27.001-.294 46.898 8.819 71.675 1.484 4.036 4.212 14.795-2.158 15.366-6.002.539-10.268-2.955-15.476-5.065-3.763-1.523-10.433-1.358-13.51-4.136-3.877-3.502-4.573-13.771-6.379-18.491-9.916-25.91-5.305-60.5 8.912-84.172 3.951-6.58 9.866-13.15 17.73-14.606 5.22-.967 7.201 7.086 8.819 5.152" style="fill:#fff" transform="translate(-.694 -3.5)"/><path d="M130.966 314.596c-1.53-.845-3.302-1.25-5.354-.84-3.656.729-6.952 2.37-9.858 4.619-4.045 3.13-7.353 7.409-9.863 11.712-7.145 12.227-11.805 27.207-13.393 42.45-1.59 15.264-.122 30.786 5.085 44.048 1.233 3.169 1.973 8.868 3.521 13.295.872 2.496 2.013 4.62 3.49 5.943 1.182 1.065 2.782 1.808 4.586 2.336 3.15.922 7.004 1.152 9.525 2.174 3.168 1.29 5.992 3.084 9.062 4.192 2.27.818 4.661 1.288 7.362 1.053 3.102-.261 4.79-2.121 5.54-4.764 1.143-4.036-.444-10.411-1.53-13.416-4.423-12.343-6.897-23.444-8.01-34.831-1.097-11.226-.863-22.72.035-35.932.222-3.236.505-6.455.822-9.667.691-7.007 1.54-13.975 2.228-20.992.307.02.61.005.904-.036.87-.121 1.771-.531 2.607-1.5a3.5 3.5 0 0 0-1.436-5.514 16 16 0 0 1 1.577-2.217c.716-.837 2.116-2.866 2.723-3.75l.105-.161c.283-.358.5-.778.628-1.246.03-.11-4.145-6.182-6.548-2.467-.49.758-1.606 2.507-2.19 3.226a22 22 0 0 0-1.618 2.285m-2.716 6.367a4 4 0 0 0-.2-.17c-.338-.271-.713-.55-1.22-.464-3.355.575-6.298 2.265-8.84 4.488-2.745 2.4-5.045 5.394-6.899 8.393-7.04 11.414-11.803 25.498-13.602 39.898-1.809 14.475-.646 29.26 4.086 41.95 1.211 3.219 1.9 8.99 3.421 13.482.598 1.764 1.294 3.32 2.327 4.26.765.693 1.83 1.12 3 1.464 3.277.964 7.283 1.239 9.908 2.3 3.12 1.256 5.898 3.019 8.921 4.093 1.73.615 3.551.982 5.606.792 1.587-.151 1.96-1.556 2.07-3.1.233-3.238-.975-7.347-1.762-9.453-4.778-12.658-7.482-24.074-8.86-35.8-1.35-11.471-1.419-23.241-.803-36.787.148-3.298.362-6.581.603-9.857.56-7.59 1.287-15.141 1.805-22.751.061-.896.212-1.815.44-2.738"/><path d="M82.02 284.722c-2.353.791 5.401-5.617 6.661-6.5 5.497-3.854 12.82-8.323 19.137-10.47 6.262-2.127 11.388-6.671 18.386-7.261 13.297-1.12 27.679 10.323 33.862 21.531 1.594 2.888-6.964 6.852-8.348 8.273-2.849 2.924-5.762 5.794-8.684 8.661-6.769 6.642-30.075 63.584-36.525 60.542" style="fill:#fff" transform="translate(-.694 -3.5)"/><path d="M84.343 282.995c1.592-.263 4.767-5.032 5.526-5.59 2.625-1.924 5.68-4.016 8.848-5.893 3.115-1.845 6.328-3.497 9.318-4.578 4.43-1.6 8.265-4.395 12.617-6.157 1.588-.643 3.25-1.141 5.066-1.324 6.166-.606 12.62 1.755 18.25 5.54 5.643 3.792 10.465 9.012 13.45 14.209-.676.006-1.104 1.488-2.05 2.189-2.274 1.683-5.057 3.198-5.815 3.97l-8.734 8.544c-1.102 1.058-2.628 3.302-4.437 6.36-6.438 10.884-16.943 32.83-24.778 45.13-1.63 2.56-3.143 4.667-4.457 6.115-.429.472-1.137.708-1.352.987a3.501 3.501 0 0 0-1.473 6.666c1.267.562 2.735.68 4.351-.127 1.413-.705 3.274-2.456 5.21-5.216 9.158-13.068 24.628-51.371 29.98-56.813l8.631-8.78c1.063-1.096 6.23-3.725 8.07-6.188 1.154-1.544 1.355-3.104.591-4.501-3.179-5.855-8.496-11.764-14.719-16.136-6.469-4.544-13.932-7.38-21.133-6.873-2.314.158-4.448.71-6.494 1.457-4.33 1.578-8.193 4.18-12.596 5.584-2.715.865-5.607 2.134-8.484 3.59-4.126 2.089-8.208 4.588-11.624 6.877-1.086.726-6.42 4.99-7.714 6.568-2.369 2.89-.15 5.185.955 5.779.481.259 1.492.655 3.095.156a3.48 3.48 0 0 0 1.902-1.545m-3.466-5.244a2.7 2.7 0 0 0-.665.154q.331-.11.665-.154"/><path d="M32.359 347.904c-3.399-.458-7.451-1.287-9.68-1.938-1.777-.519-5.401-1.035-4.804-2.788 1.439-4.223 8.083-15.631 13.436-22.555 5.813-7.518 15.414-16.358 21.442-22.556 4.823-4.959 10.239-11.068 14.723-14.629 3.634-2.886 8.859-5.252 12.183-6.735 2.453-1.094 5.511-2.595 7.762-2.162.53.102 1.112.284 1.697.534 2.628.408 5.362 1.647 7.841 2.474 4.414 1.472 9.866 3.745 14.096 6.797 4.415 3.185 10.135 9.08 12.392 12.312 1.369 1.96 1.077 4.69 1.149 7.08.098 3.315-1.561 10.865-.557 12.812 1.004 1.948 4.523-.276 6.578-1.127 2.106-.872 4.09-3.399 6.057-4.104 1.802-.646 5.626-1.279 5.743-.125s-3.35 4.71-5.047 7.048c-1.844 2.543-4.151 5.377-6.022 8.208-2.071 3.133-4.955 6.727-6.405 10.589-2.065 5.503-4.826 14.779-5.987 22.43-1.259 8.296-1.258 18.222-1.566 27.348-.406 12.045-.951 34.94-.87 44.923.041 5.012 6.066 13.256 1.358 14.974-8.47 3.091-39.24 3.457-52.177 3.571-8.535.076-16.928-2.303-25.444-2.882-9.445-.642-25.108 1.008-31.222-.971-3.868-1.252-5.951-6.866-5.465-10.902.783-6.505 7.236-18.6 10.163-28.131 3.898-12.692 8.83-35.865 13.227-48.025 1.44-3.981 3.337-7.763 5.399-11.47" style="fill:#ffd78b" transform="translate(-.694 -3.5)"/><path d="M125.292 311.366c-.018-.514.078-1.204.137-1.972.24-3.092.916-7.05.863-9.227-.044-1.808.067-3.791-.33-5.555-.23-1.023-.62-1.982-1.216-2.845-1.244-1.803-3.497-4.4-6.03-6.94-2.246-2.248-4.713-4.451-6.876-6.03-2.18-1.591-4.668-2.987-7.188-4.185a72 72 0 0 0-7.558-3.05c-1.75-.595-3.626-1.393-5.504-1.97a21 21 0 0 0-2.63-.64l-1.725-.548c-1.072-.214-2.272-.154-3.527.116-1.935.418-4.05 1.388-5.859 2.18-2.124.932-4.997 2.209-7.772 3.743-1.796.994-3.549 2.097-5.056 3.278-1.539 1.206-3.184 2.694-4.878 4.332-3.36 3.248-6.923 7.108-10.21 10.445-4.25 4.309-10.25 9.899-15.49 15.43-2.334 2.463-4.518 4.917-6.347 7.247-2.967 3.779-6.323 8.87-9.034 13.454-2.444 4.13-4.354 7.875-5.082 9.959-.632 1.813-.166 3.31 1.03 4.567.566.594 1.42 1.138 2.451 1.55 1.142.456 2.601.76 3.563 1.05 1.275.383 3.113.825 5.102 1.232l.223.045a87 87 0 0 0-.726 1.51 68 68 0 0 0-2.554 6.176c-1.398 3.965-2.846 9.07-4.293 14.608-3.022 11.564-6.05 25.047-8.636 33.683-2.135 7.134-6.24 15.716-8.465 22.296-.819 2.42-1.396 4.599-1.598 6.388-.33 2.916.403 6.497 2.051 9.262 1.305 2.19 3.155 3.873 5.372 4.575 1.716.543 4.1.858 6.88.989 7.418.348 17.95-.522 25.011-.086 5.913.369 11.771 1.615 17.657 2.288 2.653.303 5.31.497 7.98.459 8.412-.116 24.331-.381 36.814-1.396 7.022-.571 12.987-1.404 16.08-2.546 2.144-.792 3.061-2.32 3.186-4.34.1-1.615-.465-3.701-1.238-5.881-.83-2.343-1.929-4.83-1.952-6.794-.045-4.244.011-10.828.133-17.916.165-9.554.444-20.02.671-26.922.187-5.353.268-10.984.56-16.396.202-3.731.504-7.357 1.017-10.711.545-3.537 1.442-7.428 2.451-11.117 1.132-4.14 2.407-8.024 3.488-10.876.527-1.392 1.263-2.741 2.071-4.045 1.348-2.173 2.897-4.218 4.148-6.098l5.998-8.11c1.211-1.653 3.303-3.912 4.404-5.512.866-1.261 1.15-2.404 1.088-3.05-.114-1.194-.998-2.346-2.888-2.603-1.556-.211-4.305.278-5.843.822-.596.21-1.199.535-1.8.937-1.43.955-2.852 2.555-4.37 3.176-.759.31-1.714.802-2.67 1.208a9 9 0 0 1-1.084.356m12.663-1.705c-1.019 1.267-2.252 2.67-3.057 3.79l-6.047 8.307c-1.263 1.922-2.825 4.017-4.184 6.239-.945 1.545-1.794 3.149-2.406 4.795-1.1 2.959-2.394 6.988-3.542 11.278-1.03 3.847-1.943 7.904-2.494 11.59-.524 3.48-.83 7.242-1.03 11.113-.282 5.439-.35 11.096-.525 16.476-.238 6.916-.516 17.406-.712 26.98-.145 7.133-.247 13.758-.223 18.028.014 3.26 2.422 7.876 3.016 11.264.13.74.365 1.427-.306 1.669-3.623 1.306-11.445 2.04-20.13 2.502-11.338.602-24.116.67-31.329.699-2.464.009-4.914-.2-7.358-.505-5.965-.748-11.897-2.072-17.893-2.514-6.157-.457-14.949.034-22.045-.113-3.498-.073-6.547-.277-8.509-.925-1.275-.422-2.13-1.684-2.729-3.061-.683-1.572-.972-3.386-.778-4.906.187-1.46.713-3.223 1.41-5.191 2.34-6.61 6.596-15.217 8.854-22.387 2.724-8.65 5.961-22.17 9.175-33.756 1.474-5.311 2.943-10.207 4.35-14.003a61 61 0 0 1 2.383-5.51 100 100 0 0 1 2.877-5.415 3.5 3.5 0 0 0-2.59-5.17 80 80 0 0 1-4.67-.744c-1.76-.332-3.388-.693-4.517-1.014l-1.72-.483c1.073-2.352 2.836-5.596 4.843-8.965 2.232-3.747 4.77-7.638 7.068-10.657 2.222-2.917 5.021-6.041 7.955-9.127 4.584-4.821 9.486-9.55 13.094-13.31 3.214-3.347 6.691-7.218 9.976-10.48 1.521-1.51 2.995-2.885 4.38-4 1.27-1.021 2.753-1.973 4.271-2.838 2.592-1.478 5.281-2.711 7.268-3.612 1.297-.59 2.771-1.315 4.191-1.745.696-.211 1.361-.39 1.947-.281l1.153.355q.31.131.641.183c.915.136 1.844.39 2.77.689 1.59.512 3.168 1.144 4.653 1.628 2.18.712 4.623 1.62 7.036 2.732 2.244 1.035 4.465 2.242 6.411 3.63 1.994 1.422 4.266 3.419 6.341 5.453 2.317 2.27 4.393 4.584 5.536 6.2.346.49.497 1.069.588 1.67.2 1.33.117 2.767.164 4.09.083 2.408-.77 7.083-.825 10.15-.029 1.617.201 2.914.59 3.658.651 1.253 1.68 1.873 2.976 2.006 1.806.185 4.705-1.306 6.548-2.08a9.4 9.4 0 0 0 1.692-.943c1.475-1.016 2.84-2.638 4.25-3.151.29-.105.732-.203 1.212-.288"/><path d="M31.077 339.457c-.953 0-2.979 3.232-3.587 3.979-4.449 5.46-5.874 12.934-7.755 19.513-3.617 12.654-8.568 24.552-9.84 37.9-.89 9.339.571 18.639.833 27.918.11 3.912-2.015 19.662 3.837 21.914 2.425.934 5.064.795 7.589.975 18.657 1.33 15.095-11.936 17.177-26.943 1.806-13.01 4.107-26.729 8.255-39.174 3.401-10.202 9.068-18.801 12.842-28.671.768-2.008 4.552-9.531 2.419-9.531" style="fill:#fff" transform="translate(-.694 -3.5)"/><path d="M59.121 345.583c-.11.44-.254.967-.4 1.38-.729 2.053-1.733 4.265-2.08 5.223-2.513 6.91-5.966 13.212-8.906 19.875-1.297 2.94-2.503 5.944-3.496 9.094-1.62 5.108-2.936 10.419-4.042 15.806-1.633 7.958-2.81 16.077-3.803 23.94-1.12 8.614-.135 16.648-3.115 21.463-1.795 2.9-5.23 4.212-11.675 3.772-1.485-.11-3.012-.104-4.508-.284-.847-.102-1.684-.267-2.49-.58-.657-.255-1.084-.854-1.439-1.583-.617-1.271-.94-2.928-1.123-4.708-.54-5.258.214-11.514.167-13.775-.118-6.496-.83-13.007-.896-19.53-.028-2.695.065-5.393.356-8.091.564-5.16 1.697-10.086 3.086-14.922 2.157-7.511 4.93-14.801 7.217-22.375 1.164-3.828 2.168-7.971 3.744-11.81.948-2.31 2.122-4.495 3.72-6.39.404-.48 3.145-2.073 2.503-2.998a3.5 3.5 0 0 0-1.558-6.633c-.849.014-2.152.372-3.327 1.542-1.073 1.068-2.418 3.169-2.902 3.784-1.962 2.494-3.404 5.323-4.517 8.32-1.516 4.079-2.443 8.453-3.529 12.508-2.066 7.659-4.614 15.049-6.558 22.638-1.32 5.154-2.374 10.394-2.82 15.865-.239 2.894-.262 5.78-.168 8.665.214 6.533 1.045 13.043 1.295 19.549.094 2.687-.76 10.84.448 16.59.745 3.548 2.35 6.225 4.831 7.172 1.131.432 2.3.673 3.484.809 1.56.179 3.15.17 4.696.277 8.64.64 13.018-1.75 15.471-5.612 3.276-5.158 2.726-13.77 4.093-23.04 1.17-7.714 2.51-15.677 4.328-23.464 1.206-5.168 2.63-10.254 4.337-15.137 1.024-2.914 2.245-5.684 3.548-8.393 3.221-6.697 6.94-13.014 9.734-19.98.448-1.11 1.834-3.882 2.655-6.176.61-1.7.85-3.256.764-4.221a4.18 4.18 0 0 0-1.458-2.864c-.659-.575-1.519-.931-2.635-.952a3.502 3.502 0 0 0-3.032 5.246m2.59 1.725"/><path d="M76.385 278.433c-.822.589-2.004.865-2.93 1.45-4.801 3.032-9.576 6.557-14.065 10.049-2.961 2.302-5.073 5.561-7.766 8.122-4.776 4.541-10.183 8.819-14.417 13.899-3.055 3.667-5.74 7.787-8.351 11.788-3.143 4.817-5.38 9.47-7.268 14.901-.345.993-2.209 3.777-1.553 4.958 1.305 2.348 6.371 3.159 8.586 3.877 4.537 1.471 8.89 3.573 13.392 5.01 3.539 1.13 7.194 1.825 10.667 3.166 2.563.989 4.802 2.135 7.589 2.135.892 0 2.112.218 2.813-.474 1.183-1.169 1.655-3.332 2.256-4.827.887-2.204 2.187-4.225 2.96-6.513 1.948-5.769 5.211-10.83 8.116-16.062 1.438-2.588 4.289-6.232 6.741-7.885.909-.614 4.333-2.827 3.487-2.321" style="fill:#ffd78b" transform="translate(-.694 -3.5)"/><path d="M83.594 313.615c-.846.592-2.45 1.692-3.029 2.102-1.179.838-2.454 2.047-3.634 3.432-1.589 1.865-3.052 4.008-3.962 5.736-1.693 3.215-3.518 6.369-5.104 9.65-1.1 2.278-2.098 4.609-2.866 7.059l-2.778 6.418c-.332.875-.61 1.98-1.024 2.978-.097.233-.189.465-.306.67-.279-.163-.953.165-1.316.17a9 9 0 0 1-2.473-.32c-1.433-.383-2.799-.986-4.278-1.53a45 45 0 0 0-3.36-1.068c-2.485-.695-5.01-1.24-7.484-1.996l-13.424-4.877c-1.273-.41-3.513-.833-5.396-1.596-.756-.306-1.478-.615-1.879-1.101.08-.253.265-.823.432-1.18.445-.95.951-1.853 1.124-2.345.937-2.627 1.955-5.066 3.13-7.427a63 63 0 0 1 4.047-6.94c1.58-2.351 3.185-4.744 4.883-7.055a74 74 0 0 1 3.477-4.392c1.667-1.932 3.516-3.735 5.434-5.478 2.982-2.711 6.131-5.274 9.052-7.942 1.956-1.786 3.632-3.921 5.51-5.828a19 19 0 0 1 2.186-1.932 233 233 0 0 1 6.937-4.97 139 139 0 0 1 7.096-4.575c.656-.393 1.461-.584 2.13-.907a8 8 0 0 0 1.01-.592 3.5 3.5 0 0 0 .808-4.884 3.5 3.5 0 0 0-4.883-.808l-2.722 1.4a146 146 0 0 0-7.209 5.134 240 240 0 0 0-6.887 5.419 25 25 0 0 0-2.768 2.646c-1.734 1.91-3.254 4.042-5.068 5.838-3.285 3.249-6.874 6.378-10.162 9.728-1.47 1.499-2.886 3.035-4.185 4.65a80 80 0 0 0-3.552 4.789c-1.664 2.41-3.242 4.896-4.79 7.342a69 69 0 0 0-4.163 7.5 73 73 0 0 0-3.196 7.933c-.283.824-1.482 2.806-1.723 4.25-.155.929-.02 1.745.331 2.374.596 1.063 1.682 1.963 3.058 2.648 2.16 1.075 5.106 1.663 6.681 2.177l13.36 5.143c2.481.828 5.024 1.437 7.517 2.214 1.003.312 1.994.656 2.971 1.052 1.601.648 3.082 1.343 4.64 1.813 1.198.362 2.44.587 3.788.609.806.013 1.812.096 2.665-.107a4.1 4.1 0 0 0 1.91-1.041c.56-.532 1.022-1.206 1.42-1.952.625-1.177 1.035-2.598 1.497-3.684.635-1.494 1.473-2.893 2.187-4.362.355-.73.677-1.475.955-2.246.78-2.152 1.764-4.187 2.834-6.173 1.698-3.15 3.628-6.161 5.428-9.241.661-1.13 1.65-2.475 2.74-3.724 1.01-1.161 2.122-2.225 3.145-2.88.676-.431 2.718-1.687 3.427-2.138.186-.118.312-.208.37-.25 2.56-1.81 3.231-9.821-4.002-5.746q-.303.182-.557.413M246.602 43.644c0-5.382 12.071-7.441 15.436-8.238 4.386-1.04 8.77-1.54 13.206-2.295 10.047-1.713 24.84-5.698 32.785 3.647 2.247 2.642 3.403 11.674 2.004 14.755-1.497 3.297-4.289 5.456-6.056 8.482-1.532 2.623 2.697 3.253 1.502 6.025-2.322 5.383-10.555 5.744-15.3 6.352-1.553.199-5.05 1.092-6.648.369-3.61-1.636-7.383-8.667-10.246-11.394-6.307-6.01-14.267-9.402-20.9-14.712-1.657-1.327-2.456-3.587-3.689-4.671"/><path d="M248.074 46.819a10 10 0 0 0 .9 1.183 10 10 0 0 0 1.321 1.244c4.813 3.669 10.254 6.374 15.34 9.714 2.003 1.315 3.95 2.727 5.76 4.373 1.926 1.762 4.287 5.446 6.72 8.115 1.461 1.605 2.965 2.89 4.41 3.513.794.343 1.871.512 3.063.455 1.728-.082 3.778-.58 4.886-.742 2.966-.423 7.225-.802 10.693-2.214 2.785-1.134 5.092-2.893 6.226-5.615.404-.957.45-1.782.308-2.516-.17-.88-.628-1.645-1.212-2.34-.164-.195-.337-.387-.5-.58-.109-.125-.37-.186-.254-.387 1.206-2.068 2.913-3.713 4.323-5.622.695-.941 1.328-1.935 1.836-3.043.816-1.77 1.001-5.256.57-8.686-.432-3.44-1.503-6.775-2.786-8.315-3.542-4.287-8.357-6.166-13.599-6.768-7.122-.82-15.09.866-21.299 1.8-3.13.465-6.228.805-9.326 1.292a76 76 0 0 0-4.118.758c-2.459.519-9.156 1.653-13.335 4.045-3.07 1.757-4.829 4.288-4.899 7.16a3.502 3.502 0 0 0 4.972 3.176m4.654-5.282c.484.853.96 1.82 1.748 2.487 4.51 3.789 9.685 6.654 14.476 10.132 2.177 1.58 4.283 3.268 6.225 5.206 1.944 1.929 4.291 5.866 6.731 8.762.883 1.047 1.732 1.97 2.63 2.396.352.168.887.11 1.447.072 1.445-.098 3.004-.424 3.9-.523 2.681-.304 6.54-.465 9.7-1.652 1.718-.647 3.246-1.578 3.981-3.223.076-.172-.029-.284-.11-.394-.205-.275-.443-.535-.659-.8-.624-.763-1.085-1.58-1.18-2.502-.076-.74.038-1.575.602-2.53 1.282-2.191 3.078-3.947 4.567-5.977.527-.718 1.006-1.478 1.386-2.323.59-1.318.513-3.91.154-6.444-.353-2.492-.992-4.965-1.946-6.064-2.847-3.257-6.67-4.547-10.76-4.88-6.712-.545-14.119 1.449-19.912 2.553-3.088.595-6.152 1.064-9.207 1.68a71 71 0 0 0-3.76.86c-1.595.42-5.25 1.184-8.503 2.487-.52.209-1.029.433-1.51.677"/><path d="M54.97 162.886c.728 3.397 2.265 8.656 4.461 12.413s5.577 6.968 8.715 10.129c3.2 3.222 7.132 5.982 10.485 9.205 3.576 3.438 7.879 7.372 10.972 11.421 3.024 3.958 5.893 8.189 7.588 12.873 1.701 4.699 1.709 10.22 2.615 15.32.94 5.295 1.666 11.175 3.025 16.45 1.334 5.18 2.756 11.798 5.127 15.205 1.999 2.872 6.327 3.102 9.101 5.237 3.807 2.931 9.266 10.094 13.74 12.344 3.916 1.969 8.75.613 13.1 1.153 7.405.919 22.516 4.542 31.326 4.361 7.402-.152 15.851-3.442 21.534-5.445 4.457-1.572 8.672-3.891 12.561-6.576 3.995-2.757 7.762-6.473 11.408-9.967 4.093-3.922 9.417-8.936 13.151-13.566 3.549-4.4 6.733-10.251 9.254-14.212 2.007-3.153 4.816-6.914 5.871-9.552.779-1.948.731-4.757.462-6.276-.205-1.154-3.228-2.615-2.077-2.837 1.435-.277 7.106 1.076 10.69 1.176 4.525.127 11.026.369 16.458-.415 5.622-.811 12.604-2.384 17.278-4.453 4.081-1.806 8.233-4.421 10.767-7.959s3.817-8.645 4.435-13.267c.897-6.714.682-19.418.946-27.016.216-6.191 1.593-12.452.641-18.573-1.09-7.003-4.616-15.681-7.178-23.441-3.825-11.588-12.051-35.997-15.774-46.085-1.831-4.961-2.828-10.699-6.563-14.443-5.139-5.152-17.021-12.282-24.276-16.473-6.095-3.521-12.553-6.515-19.252-8.675-7.717-2.488-18.138-5.238-27.046-6.253-8.745-.996-17.637-.616-26.405.162-10.403.923-24.327 2.107-36.017 5.376-11.895 3.326-25.135 8.94-35.351 14.581-9.429 5.207-19.419 13.527-25.943 19.265-5.032 4.424-10.19 10.721-13.203 15.158-2.332 3.436-3.409 7.58-4.87 11.467-1.491 3.964-3.255 8.073-4.076 12.32-1.042 5.395-.981 13.435-2.179 20.05-1.265 6.983-4.492 16.879-5.409 21.849-.482 2.612-.649 5.372-.092 7.969" style="fill:#fff" transform="translate(-.694 -3.5)"/><path d="M250.98 219.649c1.28.213 2.697.454 4.015.598.824.09 1.615.154 2.33.173 2.817.073 6.394.188 10.01.078 2.315-.07 4.647-.232 6.814-.55 3.361-.491 7.196-1.25 10.758-2.221 2.59-.705 5.036-1.523 7.066-2.426 2.578-1.148 5.18-2.603 7.433-4.382 1.604-1.268 3.034-2.7 4.172-4.294 1.146-1.608 2.067-3.505 2.791-5.541.987-2.773 1.615-5.805 1.994-8.663.298-2.243.477-5.136.588-8.29.225-6.363.18-13.806.354-18.93.147-4.331.861-8.697.952-13.026.042-1.985-.042-3.963-.349-5.927-.36-2.326-.978-4.83-1.74-7.425-1.568-5.328-3.757-11.05-5.502-16.344a3091 3091 0 0 0-9.288-27.735c-2.498-7.343-4.857-14.176-6.422-18.45-1.092-2.982-1.89-6.24-3.145-9.191-.956-2.25-2.17-4.327-3.878-6.047-2.242-2.26-5.723-4.897-9.569-7.51-5.123-3.477-10.899-6.924-15.12-9.377a111 111 0 0 0-9.577-4.982 95 95 0 0 0-10.087-3.958 184 184 0 0 0-13.544-3.85c-4.679-1.131-9.494-2.076-13.94-2.6-4.479-.525-8.996-.698-13.517-.646-4.47.052-8.943.327-13.386.703-6.419.542-14.168 1.18-21.918 2.335-4.98.742-9.959 1.7-14.598 2.976-5.978 1.644-12.29 3.856-18.406 6.356-6.27 2.562-12.33 5.43-17.602 8.308-3.724 2.033-7.535 4.534-11.199 7.178-5.816 4.197-11.255 8.755-15.353 12.324-2.507 2.183-5.048 4.809-7.36 7.458-2.528 2.894-4.78 5.817-6.426 8.215-1.064 1.552-1.905 3.232-2.633 4.972-.974 2.329-1.734 4.773-2.632 7.124-.922 2.416-1.942 4.886-2.797 7.407-.603 1.78-1.123 3.586-1.486 5.416-.257 1.297-.455 2.737-.623 4.27-.532 4.865-.725 10.755-1.665 15.798a79 79 0 0 1-.928 4.216c-1.553 6.34-3.833 13.573-4.598 17.6a29 29 0 0 0-.513 4.526 20.5 20.5 0 0 0 .398 4.805 59 59 0 0 0 1.93 6.77c.817 2.325 1.824 4.67 2.99 6.64 1 1.692 2.207 3.288 3.534 4.815 1.802 2.074 3.822 4.025 5.757 5.954a50 50 0 0 0 2.187 2.044c2.726 2.408 5.747 4.638 8.402 7.165 2.13 2.026 4.517 4.224 6.75 6.52 1.42 1.46 2.778 2.958 3.951 4.477 1.452 1.88 2.872 3.825 4.13 5.859 1.21 1.954 2.273 3.988 3.061 6.13.47 1.275.794 2.619 1.047 3.999.646 3.522.861 7.257 1.506 10.789.676 3.709 1.248 7.703 2.005 11.577.337 1.729.71 3.434 1.142 5.083.925 3.523 1.898 7.695 3.16 11.12.72 1.954 1.54 3.685 2.467 5.004.886 1.26 2.058 2.192 3.412 2.922 1.997 1.078 4.524 1.543 6.332 2.922 2.564 1.956 5.885 5.865 9.143 8.83 1.744 1.589 3.484 2.927 5.095 3.729 1.514.752 3.128 1.135 4.806 1.29 2.992.276 6.214-.28 9.21.08 5.131.613 13.973 2.51 21.844 3.54 3.627.476 7.057.769 9.87.699 3.036-.074 6.238-.633 9.371-1.43 4.776-1.215 9.39-2.975 12.94-4.241a50.4 50.4 0 0 0 6.823-3.044 64 64 0 0 0 6.296-3.875c1.691-1.177 3.345-2.517 4.965-3.941 2.293-2.018 4.522-4.205 6.706-6.314 2.472-2.385 5.39-5.17 8.14-8.027 1.86-1.934 3.644-3.9 5.17-5.803 1.411-1.761 2.768-3.744 4.05-5.753 1.974-3.097 3.767-6.256 5.311-8.698 1.333-2.108 3.02-4.487 4.311-6.624.724-1.198 1.33-2.33 1.722-3.317.447-1.13.687-2.488.76-3.808.075-1.338-.015-2.63-.17-3.554m-4.349.95c.085.644.12 1.48.067 2.344-.052.832-.18 1.694-.467 2.404-.319.788-.82 1.686-1.407 2.64-1.29 2.107-2.973 4.447-4.303 6.523-1.556 2.429-3.365 5.57-5.355 8.65-1.2 1.859-2.469 3.696-3.79 5.324-1.454 1.79-3.154 3.638-4.925 5.455-2.725 2.795-5.619 5.515-8.069 7.846-2.146 2.042-4.335 4.16-6.587 6.113-1.489 1.289-3.005 2.504-4.557 3.567a59 59 0 0 1-5.834 3.532 45.4 45.4 0 0 1-6.169 2.699c-3.436 1.197-7.898 2.872-12.516 4.009-2.758.68-5.572 1.167-8.24 1.21-2.584.043-5.73-.27-9.059-.735-7.886-1.104-16.737-3.085-21.879-3.746-3.037-.391-6.312.129-9.347-.18-.99-.1-1.949-.305-2.839-.757-1.212-.617-2.489-1.68-3.796-2.891-3.359-3.113-6.799-7.181-9.446-9.237-2.024-1.572-4.812-2.236-7.053-3.471-.546-.301-1.05-.646-1.405-1.16-.885-1.283-1.578-3.104-2.21-5.103-.938-2.961-1.688-6.3-2.417-9.182-.516-2.041-.932-4.176-1.304-6.33-.578-3.342-1.05-6.731-1.599-9.91-.61-3.541-.789-7.282-1.399-10.813-.3-1.74-.704-3.432-1.277-5.041-.73-2.05-1.667-4.021-2.737-5.927-1.539-2.738-3.363-5.335-5.249-7.83-1.299-1.72-2.803-3.42-4.38-5.076-2.27-2.381-4.698-4.666-6.863-6.768-2.687-2.61-5.745-4.927-8.506-7.416a43 43 0 0 1-1.874-1.785c-1.803-1.834-3.69-3.684-5.368-5.653-1.039-1.221-1.993-2.49-2.772-3.838-.933-1.616-1.719-3.543-2.366-5.444a52 52 0 0 1-1.636-5.97 13.6 13.6 0 0 1-.289-3.167 22 22 0 0 1 .358-3.441c.707-3.955 2.88-11.062 4.335-17.292.375-1.607.705-3.157.957-4.59a65 65 0 0 0 .584-4.214c.603-5.566.681-11.535 1.486-15.817.293-1.558.725-3.095 1.223-4.613.805-2.452 1.774-4.854 2.645-7.205.852-2.3 1.564-4.69 2.491-6.966.55-1.351 1.174-2.663 1.985-3.871 1.51-2.246 3.583-4.987 5.91-7.703 2.107-2.461 4.42-4.906 6.71-6.94 3.951-3.51 9.196-7.995 14.812-12.132 3.44-2.534 7.02-4.94 10.522-6.896 5.074-2.834 10.911-5.668 16.955-8.203 5.89-2.47 11.973-4.657 17.738-6.296 4.43-1.258 9.19-2.211 13.95-2.962 7.623-1.202 15.251-1.891 21.57-2.478 4.318-.401 8.668-.706 13.016-.79 4.31-.083 8.617.05 12.89.522 4.27.47 8.893 1.348 13.39 2.402a179 179 0 0 1 13.217 3.654 90 90 0 0 1 9.623 3.698c3.151 1.417 6.228 3 9.217 4.713 4.16 2.389 9.853 5.744 14.905 9.135 3.593 2.412 6.861 4.832 8.96 6.925 1.325 1.32 2.242 2.94 2.99 4.675 1.241 2.877 2.03 6.06 3.112 8.97 1.577 4.243 3.965 11.027 6.48 18.322a2783 2783 0 0 1 9.358 27.664c1.738 5.252 3.921 10.927 5.482 16.213.713 2.41 1.294 4.739 1.632 6.9.268 1.729.334 3.47.294 5.217-.098 4.312-.819 8.66-.972 12.975-.183 5.12-.149 12.56-.384 18.923-.11 3.002-.28 5.757-.568 7.89-.289 2.156-.728 4.423-1.389 6.569-.654 2.125-1.522 4.13-2.695 5.762-1.15 1.6-2.68 2.979-4.376 4.169-1.739 1.22-3.656 2.239-5.554 3.074-2.295 1.01-5.172 1.888-8.154 2.614a92 92 0 0 1-8.578 1.643c-2.01.286-4.175.423-6.324.479-3.527.093-7.016-.036-9.766-.12-2.942-.09-7.303-1.044-9.517-1.211-.709-.054-1.275-.027-1.653.044-.987.188-1.445.716-1.702 1.128a2.3 2.3 0 0 0-.295 1.744c.087.406.422 1.08 1.127 1.718z"/><path d="M53.414 141.964a3.5 3.5 0 0 0-.94 4.529c.583.8 1.178 1.517 2.163 1.659.34.05.706.18 1.121.107.346-.062 1.286-.037 2.111-.882.255-.261 1.042-1.202 1.042-1.202s-.15.092-.193.13l2.774-2.513c1.268-.876 2.915-2.024 4.73-2.7 1.497-.555 3.062-.922 4.393-.403 1.812.872 3.307 2.044 4.482 3.494 1.222 1.507 2.011 3.318 2.73 5.217.354 1.006.85 3.182 1.325 4.6.295.88.725 1.509 1.004 1.91.955 1.378 2.33 1.337 3.233 1.34 1.02.004 2.161-.614 3.102-2.481a3.5 3.5 0 0 0-1.856-4.39c-.65-1.181-1.348-2.644-1.794-3.37-1.272-2.18-2.729-4.12-4.444-5.816-1.737-1.717-3.677-3.232-6.105-4.244-1.768-.892-3.873-.931-6.03-.627-2.753.388-5.572 1.506-7.615 2.442l-3.782 2.16c-.23.129-1.625.599-1.45 1.04m26.957 9.55a1.84 1.84 0 0 0-.458.863c.114-.316.27-.604.458-.862m4.94-.004.005.009a.3.3 0 0 0 .086.062zm-27.364-9.265c.235.225.442.489.611.786-.14-.327-.359-.573-.61-.786m-1.766-.918c.353.068.694.19 1.011.363-.263-.182-.6-.31-1.01-.363m12.471 22.132c.286-.43.477-.822.8-1.055.136-.098.198-.293.36-.304.387-.026.812.138 1.34.418.381.295.597.755.804 1.209q.022.05.04.099-.08.074-.154.154c-.029.056-.073.116-.043.132.098.055.18.045.247.004.02.305-.059.623-.075.934.016-.19.001-.446-.177-.55-.19-.111-.386.19-.467.275-.159.165-.193.33-.25.4-.198.247-.146.514-.222.66-.205.394-.022.758-.07 1.028-.043.235.11.424.111.625.005.727.636 1.07.94 1.567.395.648 1.22.623 2.064.928.301.109.64-.091 1.065-.077.284.009.572-.296 1.096-.466.104-.033.306-.322.918-.704q.316-.344.523-.738c.543-.484.646-2.728.167-3.856-.432-1.131-.923-2.215-1.788-3.104-.81-.833-1.637-1.643-2.676-2.07-1.717-1.12-3.102-1.227-4.395-1.13-1.276.096-2.45.708-4.056 1.683-.219.123-.598.262-.98.459-.46.235-.77.616-1.129.906-.537.435-.623 1.08-.886 1.588-.117.226-.058.479-.13.715-.297.967.341 1.79.924 2.915a3.503 3.503 0 0 0 4.942.287 3.5 3.5 0 0 0 1.157-2.932m-.663-1.752a.6.6 0 0 0-.208-.258q.112.126.208.258m121.8-15.845a3.47 3.47 0 0 0 .037-1.822c-.747-1.842-1.679-2.788-2.994-2.891-.69-.053-1.507-.192-2.306.228-.883.463-2.015 1.388-2.406 1.856-1.08 1.23-3.058 4.905-3.185 7.758-.093 2.116.45 3.847 2.098 4.654a5.5 5.5 0 0 0 1.85.584c.69.086 1.404.077 2.09.064a8.2 8.2 0 0 0 1.826-.15c.618-.118 1.21-.343 1.874-.686 2.14-1.023 3.475-3.418 3.57-5.461.073-1.566-.68-2.977-2.454-4.134m-2.976 4.988c-.34.063-1.034.403-1.402.337a3.5 3.5 0 0 1-1.797.293c-.039.27.022.615-.182.634h-.02q.142.058.295.079c.42.055.85.044 1.265.05.323-.008.603-.038.87-.114.216-.063.398-.208.62-.361.26-.191.29-.587.351-.918m-.104-.675a.3.3 0 0 0 .064-.082zm98.96-10.076c-.957-.052-3.002.368-4.41 1.027-1.666.778-2.17 2.338-2.387 3.757 0 1.252.66 2.35 1.65 2.969-.05.654.017 1.29.3 1.898.236.53.524 1.056 1.041 1.437.784.578 2.05 1.028 3.5 1.07 2.517.074 5.286-.954 5.947-2.191 1.362-2.043 1.104-4.31.234-6.184a3.5 3.5 0 0 0-.049-2.705 3.5 3.5 0 0 0-4.615-1.79c-.508.317-.896.537-1.21.713m1.868 6.303-.079.058c-.27.22-.62.468-.962.766.548.024 1.081.167 1.36.426.07-.452-.085-.887-.319-1.25M185.864 236.19c1.324-.158 2.547-.016 3.392.81a3.5 3.5 0 0 0 4.92-.55 3.5 3.5 0 0 0-.55-4.918c-2.099-1.344-4.527-1.844-7.195-1.307-4.063.818-8.64 3.604-11.322 5.294-1.39.768-3.277 1.91-4.12 3.425-.52.93-.738 1.989-.467 3.239.567 3.059 2.474 3.897 4.528 3.994 3.268.154 8.081-3.566 9.338-5.172 1.18-1.463 1.594-3.235 1.5-4.591a4 4 0 0 0-.024-.223m-7.107 2.304c-.614.27-1.179.529-1.676.75-.659.327-1.55.684-2.188 1.253-.204.184-.407.39-.328.69.062.203.31.347.347.464a.2.2 0 0 0 .008-.053c-.007-.092.176-.065.272-.095.321-.097.627-.303.953-.507 1.048-.656 2.01-1.691 2.612-2.502m1.55.712q.057.03.127.043z"/><path d="M104.664 87.822c1.73 1.239 3.011 4.957 3.871 6.762 2.621 5.502 4.58 11.238 6.421 17.049.72 2.268 3.497 5.205 2.686 7.704-.94 2.893-4.55 2.543-6.738 1.558-.19-.086-2.865-1.452-2.96-1.19-.968 2.663.591 7.94.591 10.822 0 1.484.538 3.42-.956 4.26-8.117 4.57-18.335-.798-27.048.45-3.06.44-6.333.076-9.335.617-6.775 1.22-13.616 6.764-19.762.573-1.109-1.117-2.463-2.202-3.462-3.401-.7-.842-.813-2.074-1.184-3.074-3.43-9.256 3.032-13.738 5.42-21.884.925-3.161.364-8.346 2.96-10.697.546-.496-1.938-2.418-2.187-2.746-1.308-1.722-1.674-3.864-1.32-6.024.686-4.195 2.416-4.681 5.373-6.885.752-.56 1.996-2.485 2.868-2.746 3.73-1.114 9.012-.022 12.66.779 6.275 1.378 12.668 2.336 19.08 2.336 3.66 0 8.272-.076 11.702 1.475 1.435.648 4.413 2.735 1.685 3.402"/><path d="M52.296 97.265a9.7 9.7 0 0 0-.99 2.368c-.705 2.516-.61 5.636-1.223 7.812-1.692 5.967-5.483 10.049-6.202 15.34-.318 2.338-.124 4.893.998 7.875.268.718.412 1.55.717 2.285.208.5.472.967.817 1.379l3.583 3.53c2.96 2.998 6.064 3.72 9.242 3.443 4.016-.353 8.195-2.636 12.333-3.358a17 17 0 0 1 1.65-.191c2.512-.18 5.133-.005 7.62-.343 5.971-.79 12.618 1.614 18.82 1.66 3.191.024 6.27-.521 9.148-2.092 1.06-.58 1.667-1.415 2.024-2.374.445-1.195.253-2.77.27-4.072.027-1.76-.493-4.401-.699-6.818 1.78.68 4.038.968 5.883.459 1.857-.512 3.372-1.738 4.123-3.932.467-1.366.37-2.82-.096-4.292-.576-1.817-1.996-3.685-2.459-5.23-1.062-3.566-2.172-7.103-3.44-10.584a98 98 0 0 0-2.846-6.991c-.59-1.3-1.39-3.507-2.387-5.235a3.85 3.85 0 0 0 .388-2.392 4.85 4.85 0 0 0-1.084-2.367c-.888-1.061-2.606-2.193-3.742-2.681-1.687-.725-3.59-1.164-5.564-1.38-2.556-.28-5.226-.223-7.539-.182-3.076.052-6.15-.121-9.213-.464-3.103-.35-6.19-.861-9.253-1.48-2.304-.466-5.22-1.027-8.033-1.148-2.14-.093-4.222.056-6 .617-.499.157-1.089.47-1.656.983-.705.639-1.47 1.816-2.003 2.225-2.128 1.635-3.649 2.538-4.706 4.149-.697 1.062-1.248 2.403-1.55 4.419-.207 1.375-.19 2.742.09 4.037.297 1.375.867 2.677 1.764 3.828.097.125.694.7 1.215 1.197m49.153-10.826c-.958-.386-2.017-.631-3.108-.791-2.264-.331-4.642-.343-6.7-.38a78 78 0 0 1-9.989-.84c-3.258-.478-6.496-1.127-9.703-1.89-2.04-.482-4.623-1.09-7.128-1.276-1.368-.102-2.709-.1-3.885.182-.368.403-1.798 1.954-2.35 2.354-1.382.998-2.49 1.56-3.31 2.412-.585.607-.937 1.41-1.183 2.789-.136.77-.162 1.54-.023 2.273.124.65.362 1.275.757 1.832.213.194 1.092 1.004 1.56 1.525.531.595.904 1.2 1.05 1.648.393 1.21.06 2.158-.699 2.828-.729.645-1.027 1.654-1.257 2.725-.5 2.328-.57 4.955-1.15 6.86-1.51 4.98-4.534 8.577-5.887 12.747-.734 2.262-.872 4.722.253 7.807l.834 2.484 3.341 3.27c1.927 1.932 3.934 2.413 5.991 2.216 3.907-.376 7.936-2.7 11.957-3.446a21 21 0 0 1 2.066-.272c2.416-.21 4.943-.064 7.334-.425 6.13-.947 13.033 1.3 19.42 1.194 2.245-.037 4.417-.415 6.428-1.507a62 62 0 0 1-.1-2.231c-.03-1.91-.79-4.878-.989-7.414-.13-1.662-.01-3.18.392-4.342.231-.667 1.35-2.305 3.63-1.694.831.223 2.87 1.199 3.047 1.275.564.244 1.273.41 1.957.417.344.003.754.044.87-.331.115-.378-.186-.734-.37-1.133-.773-1.666-1.974-3.337-2.448-4.753-.955-2.843-1.94-5.666-3.02-8.451-1.062-2.737-2.22-5.433-3.536-8.072-.44-.884-.993-2.238-1.652-3.521-.378-.737-.726-1.497-1.223-1.84a3.5 3.5 0 0 1-1.177-4.23m2.651-2.85.098-.027a1 1 0 0 0-.098.027"/><path d="M245.052 40.733c-2.813-.631-6.546 3.622-8.88 4.96-7.574 4.339-15.6 7.816-23.224 12.13-2.295 1.299-4.542 2.693-6.693 4.22-.572.408-2.026 1.507-2.823 1.149-2.054-.921-3.019-5.595-2.414-7.5.231-.725.654-1.365 1.048-2.008.222-.363.843-1.48.638-1.107-1.685 3.054-6.78 4.785-9.427 6.886-9.819 7.8-19.019 16.11-32.33 17.09-2.05.15-7.166 1.505-8.197-.82-1.12-2.527 2.137-5.384 3.825-6.721.088-.07 1.788-1.506 1.867-1.435.502.455-4.327 3.823-4.644 4.016-6.095 3.713-12.838 6.442-19.216 9.63-8.69 4.346-19.075 6.558-28.825 6.558-1.025 0-3.014-.824-3.096-2.008-.037-.547-.214-1.843.091-2.336.164-.266 1.57-1.793 1.002-.942-5.095 7.643-18.15 7.443-26.047 5.45-1.722-.435-3.802-.363-5.327-1.393-1.943-1.312-2.313-2.877-3.188-4.92-.13-.305-.119-2.042-.41-2.13-1.292-.385-3.148.69-4.326 1.026-3.008.854-5.933 2.024-8.97 1.105-4.24-1.282-9.046-.39-13.479-1.72-1.63-.49-4.164-1.785-4.37-3.853-1.017-10.164 10.325-16.705 18.486-19.877 2.895-1.125 5.671-2.302 8.743-2.827.98-.168 1.913-.316 2.87-.573.528-.143 2.141-.41 1.593-.41-3.187 0-6.337 2.345-9.745 1.639-4.337-.898-.338-7.338 1.23-8.525 2.192-1.661 4.872-2.578 7.285-3.851 4.964-2.62 9.226-5.62 14.845-6.762 3.54-.72 6.965-.435 10.52-.78.565-.054 2.886.068 3.323-.327.161-.147-3.905-4.147-4.008-5.164-.388-3.821 4.32-8.423 7.104-10.533 5.047-3.823 11.528-4.332 17.622-5 1.975-.215 5.331-1.061 7.332-.41 2.894.944 5.151 3.284 7.833 4.59.208.102 2.136 1.25 2.275 1.189.274-.123.761-1.77.911-2.05 1.05-1.957 2.273-4.023 3.643-5.777 2.21-2.828 7.631-5.234 11.202-5.902 8.448-1.578 14.451 1.488 21.995 4.549.985.4 2.333.585 3.141 1.312.621.558 2.232 4.242 3.643 3.4 2.613-1.556 4.81-5.768 7.058-7.95 4.307-4.18 12.82-6.7 18.851-5.86 3.093.43 10.132 1.704 12.431 3.648 2.984 2.523 6.608 7.535 10.11 9.097 1.1.49 5.252-2.75 6.375-3.237 4.085-1.776 10.6-.654 13.48 2.87 5.802 7.1 2.695 15.695-1.412 22.744-2.05 3.518-2.825 6.699-6.603 5.696"/><path d="M83.069 163.335a5 5 0 0 0-.274.933c-.272 1.612.327 2.83 1.169 3.584a5.7 5.7 0 0 0 1.894 1.104c-.597.599-1.344 1.397-1.906 2.152-.834 1.121-1.276 2.274-1.343 3.073-.133 1.588.476 2.804 1.819 3.605.948.565 2.076.908 3.325 1.038a66 66 0 0 0-1.692 2.019c-.216.267-1.439 1.627-2.356 3.085-.738 1.173-1.256 2.426-1.378 3.45-.222 1.878.43 3.388 2.083 4.355 1.034.604 2.19.986 3.429 1.168l-.028.066c-.347.898-.313 1.686-.141 2.294.253.894.795 1.638 1.781 2.105q.304.145.634.252c-.782 1.167-1.597 2.601-1.753 3.681-.262 1.816.381 3.22 1.92 4.07 1.093.604 2.316.897 3.614.914-.239.674-.345 1.295-.336 1.733.032 1.588.869 2.505 2.046 2.924 1.982.706 4.637.026 7.235-1.901.89-.66 1.794-1.459 2.67-2.308a81 81 0 0 0-1.087 3.091c-.839 2.566-1.533 5.197-1.969 7.955-.1.629-.752 4.354-.511 6.402.259 2.209 1.591 3.308 2.802 3.538q.157.03.312.046l-.882 2.784c-.269.84-1.006 2.506-1.066 3.314-.066.897.212 1.57.545 2.023.142.194.306.383.498.55q-.15.202-.287.406c-1.802 2.657-2.266 5.382-1.402 7.468.392.948 1.107 1.715 2.172 2.118.134.764.399 1.381.727 1.807q.468.604 1.041.898c-.234 1.114-.402 2.385-.236 3.296.238 1.304.943 2.198 1.95 2.649 1.252.561 2.554.617 3.848.248-.225 1.027-.427 2.282-.405 3.364.028 1.371.439 2.524 1.091 3.244 2.014 2.223 4.674 2.143 7.424.394 1.477-.939 2.998-2.434 4.341-3.951-.67 1.689-1.243 3.322-1.47 4.797-.089.579-.383 3.757.072 4.818.467 1.086 1.289 1.544 2.176 1.609l.15.008c-.409.929-.912 2.169-1.057 3.11-.163 1.062.058 1.938.442 2.511.54.81 1.215 1.144 1.883 1.254.607.099 1.286.003 1.975-.403.512-.303 1.104-.963 1.674-1.689l-.011.046c-.136.55-.428 2.057-.438 3.244-.009 1.019.24 1.874.565 2.361.959 1.434 2.329 1.762 3.862 1.307 1.604-.476 3.537-2.336 4.042-2.842 2.774-2.785 5.195-5.872 7.825-8.78a55 55 0 0 1 2.526-2.632c-.855 1.381-1.647 2.579-1.892 3.094-.452.951-1.522 3.302-1.546 3.893-.042 1.023.477 1.592.924 1.901.408.282 1.418.858 2.716-.181q.628-.505 1.218-1.072l-.036.123c-.131.464-.862 2.884-.754 4.243.11 1.393.863 2.22 1.785 2.534 1.371.468 3.082.156 4.829-.81-.213.663-.661 2.182-.684 3.149-.031 1.286.593 2.109 1.203 2.468 1.171.689 2.609.643 4.067-.075 1.867-.921 3.846-3.085 4.505-3.775a38 38 0 0 0 2.515-2.915l-.179.738c-.187.803-.574 2.931-.321 4.431.244 1.444 1.026 2.44 2.134 2.83 1.133.399 2.333.188 3.46-.528 1.441-.914 2.782-2.843 3.32-3.52a139 139 0 0 0 4.551-6.108c2.143-3.026 4.208-6.112 6.312-9.158l-2.021 6.713c-.205.818-1.024 5.67-.199 7.998.344.97.925 1.651 1.631 2.039.862.475 2.068.655 3.664-.229 2.548-1.411 4.769-3.856 6.673-6.712-.065.742-.073 1.608.092 2.3.291 1.213 1.019 2.046 2.036 2.392 2.024.688 4.166.02 6.129-1.607 2.956-2.448 5.578-7.197 6.621-9.007l1.536-2.757a5 5 0 0 0 .016.677c.225 2.389 1.71 3.036 3.179 2.726 2.006-.422 4.06-1.72 5.998-3.52 3.5-3.251 6.71-8.18 8.86-10.802l2.988-3.837c-.478 2.57-1.416 5.339-1.563 7.115-.02.245-.154 3.237.193 4.06.356.845.969 1.233 1.514 1.403.561.174 1.218.189 1.94-.251 2.311-1.407 4.215-3.849 5.759-6.817 2.888-5.552 4.565-13.024 6.28-17.368.528-1.334.825-2.108 1.137-2.801q.072-.16.146-.316c.559-.8 1.137-1.59 1.671-2.406.496-.758.957-1.537 1.346-2.358.563-1.187.161-1.928.086-2.093-.129-.285-.809-1.061-1.696-1.292.418-1.417.812-2.835 1.192-4.246.169-.627 1.524-4.058 1.821-6.2.217-1.56-.184-2.752-.688-3.345-.554-.652-1.247-1.065-2.048-1.209q.048-.157.092-.312c.664-2.39.318-4.49-.98-5.806-1.513-1.536-4.056-1.833-6.947-.892-1.514.493-3.154 1.306-4.68 2.178a3.6 3.6 0 0 0-.42-.64c-1.266-1.55-3.574-2.059-6.315-1.373-1.07.267-2.226.708-3.352 1.212a4.3 4.3 0 0 0-1.296-2.283c-.91-.839-2.436-1.503-4.891-1.302l-.231.037c.181-.814.19-1.563.038-2.183-.417-1.692-1.941-3.569-6.233-3.003-2.494.33-4.933 1.112-7.302 2.139-.769.333-1.53.692-2.282 1.068-.559-.544-1.329-.945-2.378-1.124-3.8-.648-7.799.392-11.648 2.28q-1.096.539-2.172 1.157a4.5 4.5 0 0 0-.586-1.068c-.771-1.047-2.063-1.725-3.678-1.869-1.901-.169-4.383.471-5.447.855-2.687.969-5.307 2.214-7.874 3.596l-.517.281c-2.81-.522-5.921.058-9.053 1.362-1.564.651-3.14 1.488-4.68 2.414-.264-1.17-.987-1.886-1.824-2.291-1.275-.616-2.762-.787-4.321-.579-2.383.319-5.002 1.624-6.621 2.45-2.951 1.506-5.694 3.305-8.258 5.338a58 58 0 0 0-4.187 3.67c-.678.173-1.359.43-2.031.759-2.157 1.056-4.255 2.927-5.675 4.198a68 68 0 0 0-2.99 2.86 4.3 4.3 0 0 0-.529-.797c-.117-.763-.555-1.236-.929-1.521-.411-.315-1.438-1.023-2.79-.147-.877-.032-1.87.127-2.787.366 1.811-4.001 3.733-7.944 5.28-12.103.526-1.414-.078-2.204-.167-2.352-.256-.422-2.7-2.437-4.333-.017-.168.25-.576.988-.922 1.612a354 354 0 0 1 2.469-6.354c.313-.784 1.092-1.673 1.589-2.525.476-.816.781-1.626.87-2.346.157-1.27-.187-2.409-1.239-3.369-1.052-.959-2.054-.884-2.857-.603-.54.189-1.13.577-1.557 1.324-.223.388-.578 1.79-.63 1.996l-2.281 5.302c-.86 2-1.742 3.983-2.665 5.946q.369-1.319.798-2.608c1.901-5.726 4.555-11.104 6.504-16.907.352-1.047.091-1.704-.011-1.979-.431-1.162-1.263-1.681-2.305-1.802-.422-.049-1.279-.078-2.172.674-.175.147-.598.68-.974 1.144l-.102-.058c-.696-.374-1.752-.572-2.973-.163-1.178.395-2.898 1.636-3.177 1.83a37.3 37.3 0 0 0-4.919 4.066l-.232.235c-.903.507-1.849.976-2.794 1.332a15 15 0 0 1-1.147.396c.38-.489.705-.855.791-.957 1.283-1.519 2.713-2.86 4.236-4.089 2.543-1.434 4.857-3.066 6.038-3.741l2.832-1.673c.604-.355 2.043-.84 2.638-1.207.665-.411 1.049-.893 1.252-1.243.571-.985.547-1.926.173-2.786-.204-.469-.583-1.146-1.524-1.586a2.9 2.9 0 0 0 .198-2.098c-.318-1.225-1.106-2.311-2.988-2.311-1.893.005-4.032.657-6.182 1.756-2.639 1.35-5.346 3.379-7.574 5.141-.955.353-1.932.663-2.899.89-.939.22-1.866.393-2.722.382.609-.85 1.302-1.812 1.418-1.954 2.043-2.512 5.396-6.2 9.077-9.141 1.29-.579 2.4-1.108 3.191-1.452l4.928-2.336c.557-.271 1.929-.931 2.216-1.168.927-.765 1.128-1.633 1.191-2.135q.182-1.44-.764-2.534c-.289-.334-1.031-1.244-2.773-1.128-3.362.223-7.166 2.09-10.739 4.772l-.283.216c-1.31.579-2.773 1.178-4.24 1.642a69 69 0 0 1 4.526-3.632c2.055-1.502 4.207-2.864 6.391-3.91.164-.079.261-.135.305-.161 2.485-1.458 1.536-3.828 1.413-4.136-.302-.756-1.059-2.169-3.219-2.102-.084.003-.52-.003-1.158.245-.2.077-.896.375-1.174.503l-2.973 1.354c-.922.4-2.697 1.279-4.612 1.985q.251-.29.514-.571c.348-.372.701-.74 1.058-1.071l.287-.17c.585-.344 2.049-1.166 2.417-1.434.822-.596 1.108-1.239 1.213-1.482.44-1.023.322-1.892.066-2.571-.262-.693-.714-1.321-1.49-1.764q.142-.122.267-.255.32-.34.572-.735c1.404-2.22.236-3.699-.275-4.285-.578-.662-1.578-1.43-3.224-1.172-.254.04-.635.128-1.078.332-.396.183-1.165.674-1.522.877l-2.832 1.849c-1.116.842-5.393 4.09-6.94 6.719-1.127 1.915-1.185 3.757-.513 5.195.444.95 1.201 1.735 2.257 2.16m133.099 44.118c-1.903.299-3.759.935-5.569 1.728a48 48 0 0 0-3.555 1.757c-.3.973-.729 1.871-1.159 2.482-1.427 2.027-3.871 4.308-6.567 5.618-2.12 1.03-4.386 1.463-6.496 1.001-1.005-.22-1.571-.752-1.922-1.289-.498-.758-.741-1.835-.126-3.081.481-.973 2.203-2.555 3.154-3.178l3.877-2.329c-1.071.34-2.141.799-3.199 1.324-2.581 1.279-5.086 2.973-7.383 4.633a37 37 0 0 1-3.893 4.216 50 50 0 0 1-5.193 4.215c-.829.59-2.335 1.804-3.767 2.391-1.158.475-2.311.601-3.312.359-1.753-.424-2.234-1.557-2.347-2.585-.064-.58.02-1.338.545-2.12.449-.669 1.886-1.768 2.572-2.301l7.062-4.918c1.208-.832 2.543-1.819 3.974-2.854q.232-.301.455-.609c.211-.293.529-.729.819-1.228-.727.105-1.553.243-1.873.36-2.42.886-4.776 2.028-7.085 3.286q-.414.225-.826.456c-.317.57-.801 1.242-1.412 1.91-1.454 1.588-3.62 3.392-3.689 3.446a54 54 0 0 1-5.23 3.584 77 77 0 0 1-5.468 2.99c-.366.183-3.027 1.66-4.816 1.981-1.287.232-2.372-.007-3.109-.45-.61-.366-1.002-.793-1.246-1.24-1.498 1.52-3.13 3.027-4.757 4.201-2.365 1.706-4.788 2.714-6.903 2.709a4 4 0 0 1-1.065-.133c-1.11 1.139-2.246 2.048-3.015 2.461-.826.442-3.03.991-4.508.697-1.293-.258-2.252-.901-2.81-1.861l-.003.004c-.794.828-1.576 1.669-2.353 2.514.167.276.293.628.326 1.074.023.31-.263 1.602-.445 2.108a16 16 0 0 1-.822 1.918 23 23 0 0 1-.996 1.728c-.667 1.067-1.903 3.188-3.435 5.264a72 72 0 0 0-1.826 5.372c-.207.69-.504 3.336-.566 3.9.255.111.557-.074.872-.23.884-.438 1.789-1.207 2.662-2.069 2.322-2.29 4.36-5.258 5.015-6.114l2.178-2.982c.216-.282.585-.955.819-1.22.383-.432.79-.638 1.075-.735.77-.264 1.443-.132 2.022.245.372.241.913.682 1.056 1.681.255 1.779-.073 3.78-.737 5.857-1.074 3.358-3.104 6.971-3.723 9.988q.178-.24.354-.494c1.752-2.534 3.181-5.884 4.04-7.247l2.2-3.256c.241-.333.784-1.19.956-1.409 1.581-2.013 3.573-.068 3.771.333.066.134.522.832.004 1.987a46 46 0 0 1-.71 1.507c.31-.331.619-.587.903-.756 1.33-.793 2.217-.181 2.593.116.461.364.952.99.815 2.034-.051.396-.915 1.924-1.239 2.567l-1.524 2.987c-1.247 2.646-2.475 5.378-3.512 8.166a52 52 0 0 0-1.738 5.539 9 9 0 0 0-.127.874c.456-.352.893-.698 1.019-.825 2.732-2.729 5.112-5.763 7.701-8.614 1.162-1.28 2.365-2.525 3.652-3.696.215-.196 3.639-3.228 5.155-3.865 1.568-.658 2.639.019 3.125.711.285.406.47 1.04.46 1.829.506-.685 1.016-1.347 1.419-1.686.611-.513 1.222-.685 1.68-.7.932-.032 2.01.284 2.402 1.966.216.929.087 1.828-.294 2.698-.456 1.04-1.421 2.036-2.013 3.01-1.048 1.727-2.199 3.479-3.15 5.31-.587 1.13-1.097 2.291-1.439 3.5a44 44 0 0 0-.309 1.375 11 11 0 0 0 1.514-.983c2.27-1.711 4.485-4.194 5.579-5.164l3.312-3.027c.193-.188.499-.691.689-.888.301-.314.604-.479.811-.563.81-.329 1.475-.144 2 .229.334.237.889.703.888 1.767 0 1.005-.378 1.868-1.026 2.63-.666.783-1.808 1.385-2.45 2.195-1.051 1.326-2.065 2.678-2.967 4.097-.861 1.355-1.621 2.77-2.208 4.286.991-.802 1.847-1.776 2.214-2.158 1.491-1.555 2.808-3.247 4.009-5.02 1.85-2.732 3.425-5.657 4.92-8.597l1.341-2.815c.28-.605.656-2.011.962-2.614a2.8 2.8 0 0 1 .736-.929c.681-.529 1.37-.554 1.99-.343.408.139 1.072.456 1.403 1.495.188.589.203 1.403.009 2.276-.275 1.236-.973 2.681-1.064 2.935-1.08 3.024-2.274 6.058-3.319 9.131-.678 1.995-1.293 4.007-1.768 6.042-.059.257-.116.934-.158 1.577.626-.668 1.402-1.507 1.636-1.803 1.531-1.93 2.99-3.918 4.414-5.931 2.163-3.059 4.246-6.179 6.371-9.257l4.425-6.286c.061-.078 1.619-1.687 2.269-2.275 1.856-1.678 3.614.833 3.642 1.15.091 1.059-.075 2.232-.41 3.435-.595 2.134-1.755 4.397-2.317 6.086l-2.409 8.037c-.109.436-.226 3.434-.276 4.869 1.815-1.195 3.365-3.09 4.753-5.205 2.471-3.765 4.386-8.242 5.991-11.44.034-.066 1.123-3.092 2.061-4.695.652-1.113 1.477-1.71 1.98-1.866.956-.297 1.625-.003 2.114.401.358.296.679.742.792 1.39.091.517-.143 1.664-.255 2.239l-.969 3.31c-.918 2.951-2.175 5.922-3.138 8.928a32 32 0 0 0-.968 3.674c-.038.199-.07.747-.089 1.189.161-.053.321-.132.481-.22.621-.339 1.219-.87 1.797-1.481 2.155-2.278 3.939-5.638 4.73-7.02l2.754-4.97 1.942-4.109c.104-.236.859-2.877 1.738-4.248.582-.907 1.314-1.43 1.932-1.619.999-.305 1.704-.015 2.224.396.397.315.745.793.882 1.488.127.644-.187 2.074-.23 2.812-.036.632-.805 4.893-1.304 7.605.946-.684 1.874-1.591 2.785-2.57 2.835-3.047 5.369-6.923 7.16-9.118l4.139-5.338c.048-.057 1.011-1.086 1.876-1.736.636-.477 1.286-.752 1.73-.826 1.217-.203 2.071.28 2.587 1.262.658 1.255.826 2.955.607 4.837-.185 1.577-.649 3.316-1.05 4.899a33 33 0 0 0 1.403-2.924c.841-1.97 1.565-4.075 2.221-6.13-.75-.245-1.326-.753-1.374-.826-.071-.108-.701-1.002-.151-2.281.203-.473 1.031-2.11 1.418-2.743l.476-.707a60 60 0 0 0 2.018-4.587c1.609-4.094 2.842-8.358 3.956-12.551.09-.339.601-2.128 1.041-3.667l-.043.035q-.36.298-.714.616a61 61 0 0 1-.914 1.367l-2.089 2.806c-.62.739-1.705 2.259-2.46 2.71-.711.423-1.403.497-1.997.387-.699-.131-1.417-.492-1.924-1.432-.305-.564-.504-1.443-.028-2.491.476-1.047 2.614-3.178 2.74-3.311.366-.386 1.449-1.571 2.778-2.822.611-.948 1.351-2.18 1.941-3.444.368-.787.68-1.583.825-2.315.048-.245.049-.618.047-.766-.198-.1-.48.037-.782.084-1.123.178-2.409.737-3.678 1.392-1.652.853-3.263 1.892-4.495 2.733-.219.391-.46.779-.721 1.154-1.027 1.479-2.33 2.761-3.515 3.441-1.262.724-2.497.858-3.505.555a2.37 2.37 0 0 1-1.507-1.277c-.206-.424-.509-1.238.053-2.278.085-.156.314-.499.717-.907.959-.972 3.594-3.235 3.824-3.394l.548-.381.138-.302.095-.222a3 3 0 0 0-.319.036c-.831.151-1.75.485-2.665.878-1.692.726-3.357 1.668-4.523 2.349-.884 1.181-1.946 2.248-2.999 2.98-1.762 1.226-3.578 1.513-4.894 1.036-1.654-.6-1.856-1.763-1.759-2.726a2.7 2.7 0 0 1 .795-1.652c.32-.324 1.211-.815 1.614-1.086l3.61-2.21.075-.044.071-.112c.241-.404.449-1.014.57-1.412a4.5 4.5 0 0 0-.711-.006l-1.52.224-3.813 1.705c-.365.339-.707.628-1.006.85-.044.033-3.167 2.113-4.435 2.49-2.098.624-3.204-.624-3.568-1.588-.216-.573-.4-2.222 1.286-3.442.939-.68 3.177-1.794 4.452-2.411.697-.809 1.519-1.962 2.112-2.827m-102.066 40.385-.191.144c-.998.707-1.929.877-2.503.878l-.033-.001a82 82 0 0 0-.376 1.793c.164-.08.328-.184.493-.291.819-.527 1.605-1.325 2.345-2.201zm34.831-29.588-.606.314c-2.565 1.324-4.946 2.907-7.172 4.69q-.595.477-1.176.973.296.535.437 1.147l.071-.042 5.01-3.27c1.309-1.373 2.49-2.736 3.436-3.812" style="fill-opacity:.85" transform="translate(-.694 -3.5)"/><path d="M65.537 142.102c1.033-.744 3.529-.274 4.726-.274 3.367 0 7.252-.098 10.604-.599 13.545-2.025 27.328-1.451 41.084-1.745 5.741-.122 14.571 1.441 20.118-.545" style="fill:#fff;fill-opacity:.45" transform="translate(-.694 -3.5)"/><path d="M66.38 141.746c.347.844 2.436-.136 3.19-.177 2.076-.106 4.335-.252 6.557-.502 1.528-.172 3.033-.374 4.447-.655 5.316-.99 10.67-1.65 16.07-1.967a162 162 0 0 1 9.815-.283c4.948.009 9.896.256 14.85.297 3.983.108 9.382 1.064 14.225 1.122 2.555.03 4.953-.234 7.021-.847a3.5 3.5 0 0 0-2.36-6.59c-1.416.597-3.1.949-4.914 1.116-4.759.439-10.155-.025-14.077.249-5.479.267-10.956.527-16.43.607-5.556.08-11.094.045-16.618.325-2.8.142-5.592.308-8.384.605-1.599.16-3.314.209-5.033.207-1.769-.002-3.53-.081-5.17-.165-1.077-.058-3.04-.394-4.45-.216-.924.116-1.69.485-2.322.89a3.5 3.5 0 0 0-.794 4.886 3.5 3.5 0 0 0 4.376 1.098"/><path d="M146.675 134.902c.676 0-.97.947-1.394 1.473-.728.902-1.224 2.077-1.758 3.109-1.809 3.497-2.545 7.533-2.545 11.453 0 11.637 5.362 22.186 14.118 30.05 16.759 15.053 39.217 19.82 60.84 13.524 8.809-2.565 16.386-6.103 21.269-14.343 3.86-6.512 4.054-15.141 3.272-22.413-1.69-15.716-9.649-31.783-25.33-37.958-11.548-4.548-25.14-2.674-37.084-.982-10.708 1.517-17.127 6.645-25.208 13.035-1.166.921-7.393 4.215-7.393 5.562" style="fill:#fff;fill-opacity:.45" transform="translate(-.694 -3.5)"/><path d="M146.526 127.942a4 4 0 0 0-.545-.04 3.5 3.5 0 0 0-2.593 1.15c-.487-.021-1.212 1.279-1.499 1.646a11 11 0 0 0-.875 1.298c-.45.782-.828 1.636-1.219 2.419a25.4 25.4 0 0 0-2.177 6.45 32 32 0 0 0-.58 6.572c.087 6.334 1.616 12.352 4.354 17.835 2.665 5.34 6.45 10.184 11.144 14.293 8.825 7.743 19.098 12.785 29.975 15.055 10.791 2.25 22.178 1.797 33.33-1.551 4.593-1.367 8.854-3.002 12.61-5.354 3.86-2.417 7.2-5.58 9.811-10.01 1.67-2.822 2.707-6.01 3.296-9.325.848-4.771.758-9.81.286-14.347-.823-8.198-3.313-16.487-7.599-23.56-4.362-7.197-10.596-13.127-18.882-16.486-4.887-1.992-10.135-2.89-15.487-3.15-7.694-.372-15.609.614-22.922 1.553-4.55.58-8.39 1.789-11.918 3.432-5.258 2.45-9.789 5.925-14.957 9.894-.53.406-2.012 1.264-3.553 2.226m-.435 9.21-.228.4a18.7 18.7 0 0 0-1.727 4.694 25.3 25.3 0 0 0-.605 5.19 34.66 34.66 0 0 0 3.281 15.22c2.21 4.737 5.437 9.05 9.457 12.753 7.958 7.317 17.303 12.205 27.276 14.495 10.018 2.299 20.648 1.998 31.098-.951 4.226-1.203 8.168-2.62 11.63-4.75 3.34-2.052 6.222-4.771 8.487-8.572 1.786-3.012 2.713-6.518 3.108-10.11.411-3.73.242-7.551-.146-11.045-.867-7.553-3.228-15.187-7.294-21.644-3.95-6.273-9.529-11.413-16.885-14.225-4.393-1.67-9.088-2.34-13.859-2.452-7.374-.173-14.924 1.004-21.9 2.085-3.852.6-7.086 1.709-10.04 3.187-4.786 2.394-8.84 5.762-13.5 9.556-.886.722-4.835 5.649-6.385 4.57a3.5 3.5 0 0 1-1.768 1.599"/><path d="M229.812 137.249c-1.099-.197 2.85-2.238 3.272-2.401 2.474-.958 5.181-1.773 7.816-2.127 5.04-.677 11.229-.644 16.241.219 1.727.298 3.114.503 4.726 1.145.406.162 2.485 1.19 2.485.872" style="fill:#fff;fill-opacity:.45" transform="translate(-.694 -3.5)"/><path d="M231.971 135.776c.603-.355 1.351-1.55 1.503-1.63 1.116-.565 2.257-1.133 3.462-1.59 1.18-.447 2.373-.825 3.573-1.084 1.23-.231 2.524-.463 3.868-.572a30 30 0 0 1 3.935-.081c2.686.13 5.317.659 7.683 1.248.803.225 1.514.427 2.221.663.602.2 1.157.482 1.78.812.382.207 2.04 1.124 2.718 1.352 1.3.437 2.242-.185 2.753-.42 1.165-.531 1.517-1.646 1.691-3.017a3.5 3.5 0 0 0-2.94-3.455c-.203-.415-1.629-.31-1.866-.373-.817-.227-1.559-.415-2.318-.52-1.012-.14-1.995-.22-3.134-.295-2.155-.198-4.476-.21-6.853-.17-1.347.023-2.703.07-4.046.099-2.11.044-4.178.05-6.097.228-1.446.078-2.902.319-4.365.59a50 50 0 0 0-4.233.988c-.337.089-2.385.935-3.637 1.62-.714.39-1.158.909-1.45 1.224-1.142 1.23-.768 2.573-.527 3.5.232.896 1.032 1.767 2.81 2.3a3.5 3.5 0 0 0 3.47-1.417m28.19-4.44a.4.4 0 0 0-.003.12zm-29.445-.702a1.96 1.96 0 0 0-.98-.331c.35.063.68.176.98.33"/><path d="M259.624 134.631c-3.847 0-5.043 4.166-6.785 6.708-5.75 8.392-5.934 20.462-.909 29.066 12.797 21.91 46.718 27.928 67.382 15.053 6.239-3.887 10.255-10.292 14.421-16.087 2.193-3.05 6.815-4.889 8-8.564 1.924-5.963-.849-13.7-2.848-19.25-1.342-3.725-2.173-8.14-4.425-11.454-3.108-4.575-7.046-9.986-12.058-12.598-11.966-6.236-26.967-.101-38.417 4.091-6.864 2.513-14.11 5.974-20.3 9.872-.715.45-5.515 2.372-5.515 3" style="fill:#fff;fill-opacity:.45" transform="translate(-.694 -3.5)"/><path d="M254.645 128.892a8 8 0 0 0-.623.447c-2.049 1.623-3.255 4.525-4.636 6.61-3.14 4.737-4.764 10.456-4.843 16.203-.078 5.725 1.33 11.464 4.193 16.213 6.91 11.49 19.268 18.795 32.675 21.455 13.283 2.634 27.552.744 38.313-6.087 2.654-1.67 4.932-3.761 6.99-6.071 2.944-3.307 5.432-7.067 7.967-10.611 1.467-2.032 4.078-3.477 5.916-5.361 1.074-1.1 1.928-2.323 2.396-3.752.886-2.695.936-5.716.513-8.774-.577-4.171-2.046-8.415-3.253-11.85-.924-2.634-1.602-5.601-2.68-8.302-.525-1.311-1.142-2.562-1.9-3.704-1.898-2.861-4.112-6.025-6.68-8.71-1.853-1.936-3.899-3.614-6.13-4.81-5.243-2.818-11.048-3.462-16.942-2.922-8.212.752-16.604 3.892-23.678 6.367a118 118 0 0 0-10.756 4.385c-3.582 1.666-7.077 3.514-10.305 5.476-.609.37-4.042 1.729-5.276 2.556a4.5 4.5 0 0 0-1.26 1.242m7.205 4.167a3.5 3.5 0 0 1-2.92 1.572c-.678-.011-1.066.454-1.425.928-.994 1.313-1.73 2.942-2.6 4.17-2.577 3.638-3.952 8.096-4.146 12.599-.198 4.595.784 9.24 2.977 13.117 5.881 10.37 16.795 17.04 28.663 19.657 12.087 2.664 25.175 1.159 35.113-4.92 2.332-1.437 4.332-3.255 6.144-5.262 2.868-3.178 5.274-6.815 7.742-10.23 1.566-2.187 4.313-3.802 6.274-5.837.622-.645 1.147-1.341 1.413-2.176.673-2.128.636-4.51.271-6.911-.589-3.872-2.054-7.79-3.228-10.966-.819-2.217-1.454-4.683-2.324-7.01-.519-1.387-1.13-2.72-1.944-3.891-1.81-2.603-3.902-5.49-6.327-7.915-1.519-1.518-3.172-2.846-4.98-3.763-4.39-2.216-9.21-2.556-14.065-1.977-7.729.922-15.54 4.187-22.149 6.715a111 111 0 0 0-10.05 4.449 99 99 0 0 0-9.489 5.433c-.334.218-1.712 1.472-2.95 2.218"/></svg>