<svg xmlns="http://www.w3.org/2000/svg" xml:space="preserve" style="fill-rule:evenodd;clip-rule:evenodd;stroke-linecap:round;stroke-linejoin:round;stroke-miterlimit:1.5" viewBox="0 0 271 422"><path d="M101.369 286.32q8.3 2.95 16.44 2 29.73-3.48 49.28-25.94a28.7 28.7 0 0 0 4.8-7.66.69.69 0 0 1 .77-.41c10.43 2.1 21.42 6.22 29.58 12.69q7.569 5.99 12.54 12.72c10.14 13.74 16.72 29.08 21.84 45.64a447 447 0 0 1 14.73 64.05q1.11 7.26 1.61 14.76-6.11 2.88-13.13 4.41l-8.53.2a.793.793 0 0 0-.77.79v9.28a1.435 1.435 0 0 1-1.11 1.4l-3.56.81a.643.643 0 0 1-.57-1.09q3.72-3.43 4.13-8.73a1.02 1.02 0 0 0-.91-1.08q-4.84-.5-9.87.55l-11.45 1.48-5.15-2.53q-.56-40.02-10.42-83.07a3.14 3.14 0 0 0-3.54-2.39l-.15.02-.083.015c-1.481.288-2.463 1.739-2.177 3.214l.02.091q9.36 41.43 10.42 83.05-.7-.04-1.39.35l-11.15 2.51q-6.08.04-11.92 1.48l-12.12 1.26-10.98 1.02-12.47 1.18a27.9 27.9 0 0 0-10.84-.03l-11.14-.83-11.5-1.41-12.52-1.09-11.53-1.1-11.74-.66-9.4-.99c-.514-.058-4.901-1.132-4.89-1.19.313-1.716 5.396-34.153 5.99-37.96q6.28-40.07 6.53-43.11.01-.116.01-.233a2.73 2.73 0 0 0-2.6-2.717l-.07-.01a3.047 3.047 0 0 0-3.14 2.64q-1.71 13.19-4.82 31.21-3.58 20.67-6.88 48.57c-.92 4.95-3.9 3.58-3.9 3.58a.864.864 0 0 0-.85-.86l-10.57-.05-10.85-.74c-2.89-3.38-2.39-7.36-3.55-11.33l13.94-49.92q2.26-8.32 7.18-24.21 5.43-17.53 16.38-30.91c8.4-10.28 20.85-18.69 32.73-25.07a.352.352 0 0 1 .52.306v.004c.04 7.92 5.74 13.47 12.8 16.04m28.73 45.52c-4.24-9.55-13.78-18.71-24.82-12.83-9.56 5.08-10.17 17.37-6.48 26.22 6.05 14.52 16.76 24.56 30.08 36.17q2.05 1.79 3.89.43 4.09-3.03 14.2-13.52 8.39-8.7 14.68-20.32 5.57-10.31 4.34-20.72c-1.81-15.27-17.85-16.83-27.33-7.05a41.5 41.5 0 0 0-7.96 11.62.33.33 0 0 1-.6 0" style="fill:#fcf4e2"/><path d="M100.459 251.48a.442.442 0 0 1 .55-.52c2.72.8 7.27 1.29 10.47 1.34q22.13.35 41.78-9.84a.528.528 0 0 1 .76.39c.46 3 1.43 8.21 5.17 9.07q1.08.25 2.31 1.09a2.5 2.5 0 0 0 1.23.41l2.29.14a.546.546 0 0 1 .44.82q-2.98 5.04-6.52 8.38-15.201 14.4-35.79 18.7c-8.9 1.87-21.18 1.92-27.18-5.93q-2.07-2.72-1.58-7.25a.98.98 0 0 1 .52-.76l4.57-2.34c.254-.131.469-.332.62-.58 2.01-3.41 1.13-9.6.36-13.12m112.002-72.646c2.282.317 3.87 2.666 3.518 5.203s-2.52 4.365-4.802 4.049c-2.282-.317-3.871-2.666-3.518-5.203.352-2.538 2.519-4.365 4.802-4.049M27.519 185.84q.014.059.014.121c0 .279-.23.51-.51.51l-.024-.001c-10.15-.5-16.58-9.95-19.55-18.93q-2.52-7.62-.68-14.91c1.63-6.47 7.83-12.05 14.82-8.82.586.271.957.87.94 1.52q-.34 10.14.58 19.45c.66 6.64 2.36 12.8 4.41 21.06" style="fill:#fff"/><path d="M74.759 39.5h.01a.342.342 0 0 1-.04.52q-1.51 1.1-.21 2.71a.44.44 0 0 1-.44.71q-2.37-.55-4.05 1.48c-2.26 2.75.34 5.14 2.65 7.08a204 204 0 0 0 21.55 15.78c23.57 14.98 49.54 29.65 76.25 42.09q23.92 11.15 32.86 15.14.113.052.205.136a.77.77 0 0 1 .052 1.081.8.8 0 0 1-.197.153c-2.22 1.2.07 3.5-.05 5.31q-.13 1.93.86 2.8a1 1 0 0 1 .24 1.16q-1.54 3.33 2.56 4.81c1.59.57 2.97-1.06 3.68-2.58 2.99-6.45 12.02-8.53 18.23-4.87 5.26 3.11 7.78 9.9 8.15 15.88.72 11.66-6.37 24.07-17.11 29.21a.82.82 0 0 1-1.04-.3q-3.22-5.17-9.53-3.36a.412.412 0 0 1-.51-.49l.42-1.69a2.22 2.22 0 0 0-1.62-2.67l-1.17-.29a1.756 1.756 0 0 0-2.07 1.14q-5.45 16.13-6.74 18.59-7.28 14.04-13.48 21.47-19.57 23.51-47.7 32.25-25.9 8.05-50.52-1.98-8.31-3.38-14.48-7-26-15.26-36.55-44.27-8.7-23.91-6.24-49.52c1.11-11.54 5.49-21.54 11.27-32.68a1802 1802 0 0 1 12.65-23.91c3.99-7.39 7.04-14.48 10.16-21.98q2.21-5.3 3.88-11.25a.88.88 0 0 0-.13-.74l-1.23-1.76a.86.86 0 0 1 .03-1.03l.38-.49a.69.69 0 0 0 0-.85q-1.071-1.36-1.44-3.59-.13-.75.21-1.03.205-.168.374-.376c.833-1.026.749-2.496-.188-3.257a2 2 0 0 0-.406-.257 47 47 0 0 0-.8-.14.51.51 0 0 1-.32-.82q1.359-1.73 1.92-3.44a1.08 1.08 0 0 1 1.15-.75l.8.08a.807.807 0 0 1 .68 1.07q-.29.84.5 1.5a.642.642 0 0 1-.16 1.08l-.5.21a.9.9 0 0 0-.54.7q-.48 3.12 2.02 3.47a.61.61 0 0 1 .52.66l-.07.64a1.437 1.437 0 0 0 1.422 1.576c.309 0 .61-.101.858-.286q1.49-1.12 2.65-2.8l.012-.016a.225.225 0 0 1 .317-.023zM64.468 150.256l.475-1.318c-16.858.908-6.799 16.595 1.173 12.467 4.322-2.239 3.956-10.132 1.587-10.604a45 45 0 0 0-3.235-.545m71.842-2.043c-.722.576-1.33 1.729-1.677 3.767-.481 2.819.395 4.152 1.653 4.719.55.386 1.414.482 2.365.357 1.389-.076 2.594-.511 2.607-.56l.078-.304c2.427-1.26 4.025-3.628.689-5.878-.012-.008-.214-.235-.546-.55-.224-.632-.567-1.185-1.072-1.588q.567-.045 1.226-.069l-1.281.026c-1.055-.802-2.792-.968-5.583.11zm8.399-30.753c-2.48-.56-17.16-2.4-16.93 2.93q.06 1.5 1.67 2.1c.29.115.611.139.92.07q6.729-1.48 13.2-.03t11.93 5.67c.248.194.548.309.86.33q1.71.14 2.41-1.18c2.48-4.73-11.58-9.33-14.06-9.89m-74.48 1.2q-4.31-1.32-7.87-.91c-7.17.81-15.12 4.81-19.28 10.94a2.194 2.194 0 0 0 .52 3l.08.05a2.43 2.43 0 0 0 3.24-.37c5.1-5.82 11.91-9.46 19.08-8.34q2.739.43 3.45.49c.302.033.607-.008.89-.12 2.47-.98 2.16-4.05-.11-4.74m151.75 29.58q.729.32 1.32.91.055.057.118.106c.647.517 1.642.363 2.203-.34q.053-.066.099-.136c2.26-3.5-2.83-5.69-5.66-5.32q-5.27.69-8.53 5.67-.81 1.24-.1 2.37l.028.044c.583.884 1.752 1.157 2.59.604l.042-.028q.35-.24 1.94-1.52a.65.65 0 0 1 1.05.512v.018q-.06 1.66-.72 3.35a1.8 1.8 0 0 0-.123.645c0 1.02.89 1.86 1.97 1.86.233 0 .464-.039.683-.115q2.34-.81 3.04-4.31a1 1 0 0 0 0-.44l-.64-3.34a.492.492 0 0 1 .69-.54m-114.73 60.35c8.34-.44 16.48-3.59 22.93-9.01a2.59 2.59 0 0 0 .4-3.53l-.09-.11a2.403 2.403 0 0 0-3.41-.41c-6.1 4.91-12.14 7.46-20.11 7.88-7.96.42-14.24-1.48-20.82-5.73a2.4 2.4 0 0 0-3.35.77l-.07.11a2.59 2.59 0 0 0 .76 3.47c6.98 4.72 15.41 6.99 23.76 6.56" style="fill:#fff"/><path d="M972.355 543.788c-16.858.908-6.8 16.595 1.172 12.467 4.322-2.239 3.957-10.132 1.587-10.604-6.89-1.374-10.586-1.218-8.119 5.443.449 1.213 5.046.281 5.923-.633.178-.186.071-5.361-1.133-5.092m77.255-2.412c-5.85.212-6.08 1.57-5.96 7.374.09 4.258 13-.687 6.36-5.167-.07-.044-5.96-6.769-7.4 1.666-1.24 7.291 6.6 4.641 6.63 4.516.21-.813 3.17-11.984-6.49-8.253" style="fill:#ebebeb;stroke:#000;stroke-width:3.5px" transform="translate(-907.411 -394.85)"/><path d="m1047.5 395.01 9.43 1.31c35.72 6.43 68.16 27.17 83.17 60.32q9.405 20.75 12.72 45.93c2.49 18.913 3.52 36.483 3.08 52.71-.43 11.347-.37 22.683.2 34.01.68 12.6 2.18 23.963 4.49 34.09.67 2.96 2.08 6.93 4.21 11.91q6.375 14.86 9.54 23.6c2.73 7.52 3.96 15.647 3.7 24.38l-.56 5.68c-1.01 6.267-2.68 12.2-5 17.8l-2.24 4.23-6.3 8.8a38 38 0 0 1-2.97 3.2c-1 .953-2.02 1.053-3.07.3l-4.89 3.87a.67.67 0 0 0-.24.71l1.45 5.4c2.46 7.6 4.41 15.363 5.86 23.29l2.64 12.66q2.595 14.68 3.96 25.71.255 1.93-.21 4.18c-.09.448-.32.854-.66 1.16-2.11 1.887-3.92 1.473-5.44-1.24-.33-5-.87-9.92-1.61-14.76a447 447 0 0 0-14.73-64.05c-5.12-16.56-11.7-31.9-21.84-45.64q-4.965-6.73-12.54-12.72c-8.16-6.47-19.15-10.59-29.58-12.69a.695.695 0 0 0-.77.41 28.9 28.9 0 0 1-4.8 7.66c-13.03 14.973-29.46 23.62-49.28 25.94q-8.145.95-16.44-2c-7.06-2.57-12.76-8.12-12.8-16.04v-.004a.352.352 0 0 0-.52-.306c-11.88 6.38-24.33 14.79-32.73 25.07q-10.95 13.38-16.38 30.91-4.92 15.89-7.18 24.21l-13.94 49.92q-.91 4.47-1.54 8.76-.5 3.43-4.34 2.47-2.27-1.04-2.15-3.71c1.37-6.2 2.58-12.58 4.3-18.53q7.25-25.05 14.36-50.14c1.52-5.4 3.27-10.36 5.2-16.11a.69.69 0 0 0-.24-.77c-.44-.33-.79-.37-1.14-.79q-4.1-4.85-6.47-9.77a1 1 0 0 0-.113-.183.92.92 0 0 0-1.437.013l-.53.68a1.9 1.9 0 0 0-.06 2.26l5.74 8.2a1.98 1.98 0 0 1-.06 2.36l-.35.45a2.256 2.256 0 0 1-3.44.11l-6.41-7.14-.52-.58q-6.62-9.7-8.59-21.31l-.77-3.49-.73-12.76 2.34-15.73a267 267 0 0 1 3.74-13.62q2.99-9.86 3.74-13.58c3.06-15.07 2.51-28.4 1.15-45.7a.92.92 0 0 0-.57-.77c-11.27-4.52-20.06-22.83-18.81-34.33.83-7.62 3.61-13.44 10.42-17.57a.66.66 0 0 0 .31-.64c-2.86-25.06-.64-51.35 8.48-75.06q4.7-12.2 13.01-21.91l8.8-7.74c6.12-3.89 13.9-7.84 21.38-7.13a.75.75 0 0 0 .76-.46q1.68-4.13 3.02-5.26 14.95-12.57 34.54-16.94c4.65-1.033 9.34-1.923 14.08-2.67l10.12-.99zm-47.38 12.28q-4.71 1.44-9.22 4.14-1.14.68-5.68 3.76a.34.34 0 0 0 .17.62l.99.06c.486.032.965-.13 1.33-.45q2.51-2.22 4.56-3.63.88-.6 8.12-4.04a.21.21 0 0 0 .1-.26v-.01a.31.31 0 0 0-.37-.19m106.1 51.21q.045.03.09.033c.08.002.15-.069.15-.156a.3.3 0 0 0-.02-.087c-3.72-5.72-8.13-12.36-13.17-17.16-5.23-4.967-7.87-7.477-7.94-7.53a147 147 0 0 0-22.2-13.65c-.49-.247-1.65-.597-3.49-1.05-2.06-.5-4.43.91-6.49.23-3.24-1.08-6.25-1.8-9.04-2.16a132.6 132.6 0 0 0-33.97-.05c-2.24.287-4.19.757-5.84 1.41a.27.27 0 0 0 .1.522l.03-.002q6.375-.8 13.53-1.05c5.63-.193 10.15-.05 13.57.43q11.235 1.57 20.7 4.38 5.805 1.72 17.13 6.4c4.77 1.97 8.07 4.48 13.27 7.64 5.82 3.54 10.03 8.45 15.86 13.5q.54.47 6.18 6.94c.44.507.96.977 1.55 1.41m-143.73-30.11q.73.09 1.4.51.88.56 1.3.33a3.82 3.82 0 0 0 1.77-1.97.473.473 0 0 0-.41-.65q-2.63-.13-4.21 1.3a.3.3 0 0 0-.06.079.277.277 0 0 0 .111.373.3.3 0 0 0 .099.028m19.68 5.96-.01-.009a.226.226 0 0 0-.318.023l-.012.016q-1.16 1.68-2.65 2.8a1.43 1.43 0 0 1-.857.286 1.437 1.437 0 0 1-1.423-1.576l.07-.64a.61.61 0 0 0-.52-.66q-2.5-.35-2.02-3.47a.9.9 0 0 1 .54-.7l.5-.21a.64.64 0 0 0 .16-1.08q-.79-.66-.5-1.5a.81.81 0 0 0-.68-1.07l-.8-.08a1.08 1.08 0 0 0-1.15.75q-.56 1.71-1.92 3.44a.512.512 0 0 0 .32.82q.76.13.8.14.22.104.407.257c.936.761 1.021 2.231.187 3.257a2.6 2.6 0 0 1-.374.376q-.34.28-.21 1.03.37 2.23 1.44 3.59a.69.69 0 0 1 0 .85l-.38.49a.86.86 0 0 0-.03 1.03l1.23 1.76a.88.88 0 0 1 .13.74 98 98 0 0 1-3.88 11.25c-3.12 7.5-6.17 14.59-10.16 21.98a1814 1814 0 0 0-12.65 23.91c-5.78 11.14-10.16 21.14-11.27 32.68q-2.46 25.61 6.24 49.52 10.55 29.01 36.55 44.27 6.17 3.62 14.48 7 24.615 10.03 50.52 1.98 28.125-8.74 47.7-32.25c4.13-4.953 8.63-12.11 13.48-21.47.86-1.64 3.11-7.837 6.74-18.59a1.754 1.754 0 0 1 2.07-1.14l1.17.29a2.215 2.215 0 0 1 1.62 2.67l-.42 1.69c-.01.031-.01.063-.01.095a.41.41 0 0 0 .52.395c4.21-1.207 7.38-.087 9.53 3.36a.82.82 0 0 0 1.04.3c10.74-5.14 17.83-17.55 17.11-29.21-.37-5.98-2.89-12.77-8.15-15.88-6.21-3.66-15.24-1.58-18.23 4.87-.71 1.52-2.09 3.15-3.68 2.58-2.73-.987-3.59-2.59-2.56-4.81a1.01 1.01 0 0 0-.24-1.16c-.66-.58-.95-1.513-.86-2.8.12-1.81-2.17-4.11.05-5.31.07-.04.14-.092.2-.153a.763.763 0 0 0-.06-1.081.7.7 0 0 0-.2-.136c-5.96-2.66-16.91-7.707-32.86-15.14-26.71-12.44-52.68-27.11-76.25-42.09a204 204 0 0 1-21.55-15.78c-2.31-1.94-4.91-4.33-2.65-7.08q1.68-2.03 4.05-1.48a.442.442 0 0 0 .44-.71q-1.3-1.61.21-2.71a.34.34 0 0 0 .04-.52zm97.79 16.26c.01.033 1.75 1.71 5.2 5.03.44.418.68.997.68 1.601 0 .7-.33 1.36-.89 1.779l-.12.08a2.725 2.725 0 0 1-3.62-.34c-7.56-8.24-14.72-12.27-25.76-19.16-9.84-6.15-20.32-10.1-31.83-10.85-5.26-.34-10.33-1.52-15.6-.31a.54.54 0 0 0-.42.518c0 .256.19.478.44.522l12.01 2.33c.35.07.72-.034.99-.28q1.77-1.61 4.44-.3c3.59 1.75 7.95 3.09 11.34 4.78 4.13 2.053 7.84 4.297 11.15 6.73q6.735 4.95 7.89 5.66c3.57 2.19 8.65 6.17 13.33 8.61 5.9 3.06 11.02 7.97 15.88 11.32 3.56 2.46 6.31 6.69 8.59 8.91 4.27 4.16 5.34 5.74 9.35 10.27 3.55 4 6.67 8.65 10.26 12.76.05.055.12.086.2.086a.27.27 0 0 0 .27-.27.3.3 0 0 0-.02-.096c-2.43-5.69-5.81-14.14-10.09-20.19-4.55-6.453-9.23-12.28-14.02-17.48a4.7 4.7 0 0 1-.58-.79c-1.29-2.213-2.24-4.097-2.86-5.65-.39-.967-2.27-2.867-5.66-5.7a.36.36 0 0 0-.55.43m-19.48 14.17a.374.374 0 0 0 .48-.353.34.34 0 0 0-.07-.217c-3.55-4.79-7.7-6.82-12.09-9.92-5.95-4.2-12.64-7.17-19.51-10.79a.155.155 0 0 0-.2.06l-.15.24a.35.35 0 0 0 .11.47c5.85 3.927 11.03 7.673 15.56 11.24 5.27 4.15 10.76 7.61 15.87 9.27m-31.26 7.21c-4.04-3.56-9.29-7.217-15.74-10.97-2.11-1.233-3.62-2.833-4.51-4.8-1.5-3.3-6.92-5.4-10.05-6.24-1.92-.51-3.52-1.43-4.92-2.17a2.9 2.9 0 0 0-.8-.28q-2.08-.41-4.01-1.83a.689.689 0 0 0-1.04.84c.49 1.1 1.73 2.16 2.93 2.63a27.4 27.4 0 0 1 9.61 6.3c.34.352.74.658 1.16.91l26.68 16.18c.11.063.24.071.35.02l.26-.11q.03-.014.06-.032a.286.286 0 0 0 .07-.397c-.02-.019-.03-.036-.05-.051m77.51-24.58a.388.388 0 0 0-.6.326q0 .116.06.214 2.835 4.66 7.41 12.62c4.68 8.153 8.69 17.637 12.02 28.45q.78 2.54.54 3.57c-.01.024-.01.05-.01.075a.283.283 0 0 0 .37.265l.42-.12c.12-.034.2-.143.21-.27.02-1.147-.18-2.597-.61-4.35q-1.575-6.46-2.97-9.99c-3.97-10.16-8.26-18.947-12.89-26.36-1.35-2.16-2.67-3.637-3.95-4.43m-18.29.8a.357.357 0 0 0-.01.49 188.6 188.6 0 0 1 20.23 26.37c1.43 2.24 2.1 4.36 3.54 6.36.07.081.18.102.27.05v-.002a.323.323 0 0 0 .12-.444v-.004c-.71-1.133-1-2.333-.88-3.6.3-3.06-2.05-6.86-3.61-9.04q-7.305-10.23-19.32-20.36c-.04-.04-.12-.036-.16.01zm-74.13 5.43-.06.3a.19.19 0 0 0 .08.18c5.91 4.433 11.82 8.887 17.71 13.36 3.97 3.03 8.09 4.99 11.01 7.62.07.064.14.131.2.203.75.862.72 2.127-.05 2.804q-.105.084-.21.153c-.52.327-.71.787-.58 1.38.07.313.26.587.54.76 7.56 4.81 15.26 8.11 22.18 10.96q.06.04.15.04c.15 0 .28-.126.28-.28a.3.3 0 0 0-.14-.24q-7.545-6.36-13.38-10.1c-6.1-3.91-13.07-11.04-19.54-15.03q-.27-.17-18.18-12.12s-.01.005-.01.01m115.39 2.934c-.45.198 1.29 5.099 3.84 10.857s5.02 10.332 5.46 10.135c.45-.198-1.29-5.099-3.84-10.857s-5.02-10.332-5.46-10.135m-181.73 2.256q-3.1 2.88-5.74 7.96c-2.67 5.15-5.9 11.43-7.76 17.01a.12.12 0 0 0-.01.08l.14 4.81a.32.32 0 0 0 .32.319.32.32 0 0 0 .3-.209c.31-.72.42-2.03.69-2.66 2.95-6.74 4.43-11.33 7.7-16.81q2.23-3.74 5.14-9.93a.493.493 0 0 0-.439-.709c-.127 0-.25.05-.341.139m146.9 29.29q-.075-.57-.36-.92c-3.16-3.71-5.65-7.04-9.62-10.67-4.01-3.66-7.2-7.21-11.31-10.03-4.52-3.107-8.13-5.77-10.82-7.99a.23.23 0 0 0-.14-.05c-.06 0-.12.03-.16.08l-.18.23a.43.43 0 0 0 .04.56c2.61 2.49 7.02 6.12 7.73 9.67.05.245.18.466.38.62l23.96 18.78a.298.298 0 0 0 .48-.238zm-133.85-23.87-.99-.53a.12.12 0 0 0-.16.04l-14.2 26.37c-2.85 5.293-4.94 9.783-4.631 9.95l.071.04c.314.157 2.913-4.062 5.76-9.35l14.2-26.36a.12.12 0 0 0-.05-.16m-8.44 1.76-.53-.29a.14.14 0 0 0-.19.06l-8.79 16.19c-.94 1.73-1.54 3.252-1.33 3.37.216.107 1.163-1.223 2.1-2.95l8.8-16.19a.14.14 0 0 0-.06-.19m178.61 15.64 3.9 16.26c.02.079.1.129.18.11l.07-.02.01-.002c.74-.179.49-3.952-.57-8.358l-.12-.48v-.005c-1.06-4.404-2.54-7.882-3.29-7.705l-.07.02a.15.15 0 0 0-.11.18m10.73 41.19-2.77-16.65a.85.85 0 0 0-.83-.705c-.21 0-.41.077-.56.215l-.21.2a2.37 2.37 0 0 0-.76 2.2c.59 3.2.61 6.527.07 9.98-.04.3-.21.571-.46.75l-1.46 1.02a.72.72 0 0 0-.3.588c0 .271.15.519.39.642l5.52 2.77a.95.95 0 0 0 1.38-.845c0-.055 0-.11-.01-.165m8.66 15.94c-.27-2.84-.75-6.23-.69-8.7.17-7.633-.78-15.36-2.87-23.18-.04-.123-.16-.199-.27-.17h-.01a.28.28 0 0 0-.22.31q1.41 10.46-.78 20.58c-.08.39-.01.798.21 1.13a24.84 24.84 0 0 1 3.94 10.21c.02.146.15.252.3.24l.04-.01c.2-.015.35-.181.35-.379zm-226.55-6.97a.32.32 0 0 0 .224.092c.181 0 .329-.158.329-.35a.36.36 0 0 0-.083-.232q-.11-.13-.37-.06a.33.33 0 0 0-.19.14q-.13.21.09.41m10.9 48.88c-2.05-8.26-3.75-14.42-4.41-21.06q-.92-9.31-.58-19.45a1.63 1.63 0 0 0-.94-1.52c-6.99-3.23-13.19 2.35-14.82 8.82q-1.84 7.29.68 14.91c2.97 8.98 9.4 18.43 19.55 18.93l.024.001a.513.513 0 0 0 .496-.631m215.46 24.22c.1-1.56.32-3.29.19-4.87-.71-8.42-1-16.42-.86-24 .13-7.17-.89-14.06.52-21.06 0-.02.01-.041.01-.062 0-.173-.14-.32-.31-.338l-.34-.04a.14.14 0 0 0-.14.09l-2.57 7.68c-.2.6-.28 1.233-.23 1.86a898 898 0 0 1 2.08 33.13q.105 2.65 1.08 7.64c.03.131.15.224.28.224.15 0 .27-.11.29-.254m-12.08-30.79 2.02.94c.19.084.41-.001.5-.19l.11-.22c.9-1.925 1.03-3.792.29-4.138-.01 0-.01-.003-.01-.003-.74-.346-2.09.953-2.99 2.878v.003l-.1.23a.38.38 0 0 0 .18.5m-18.44-.436c-2.28-.316-4.45 1.511-4.8 4.049-.35 2.537 1.24 4.886 3.52 5.203 2.28.316 4.45-1.511 4.8-4.049.35-2.537-1.24-4.886-3.52-5.203m3.55 22.646q.105-.051.21-.078a.947.947 0 0 1 1.13.709.8.8 0 0 1 .03.219c-.02 4.08-1.52 9.25-1.78 13.24-.8 12.23-1.25 20.63.89 31.08.13.624.32 1.225.59 1.79 1.83 3.86 3.02 7.637 3.59 11.33.51 3.29 1.72 5.83 3.07 9.53.74 2.05.64 4.76.73 7.57.03.973-.36 1.63-1.16 1.97-.02.007-.03.014-.05.022a.94.94 0 0 0-.42 1.239l.03.049 7.5 13a.47.47 0 0 0 .86-.1q1.725-5.65.84-11.99a102.7 102.7 0 0 0-6.4-24.11q-1.425-3.57-3.39-14.02c-.14-.765-.34-1.518-.61-2.25q-2.37-6.71-2.16-10.39c.47-8.29.23-11.8 1.29-17.86.54-3.067.28-6.173-.77-9.32a1.6 1.6 0 0 1-.07-.57l1.24-17.41v-.03a.41.41 0 0 0-.5-.4l-.04.01c-.38.141-.65.481-.7.88-.28 2.2-1.06 3.82-2.35 4.86-1 .82-1.66 1.48-1.99 1.98-.19.3-.29.648-.28 1l.15 7.73v.038c.03.201.21.346.41.32.01-.002.03-.004.04-.008.01 0 .04-.01.07-.03m-9.03 33.71c1.05-5.02.77-8.91.53-17.27-.07-2.427.31-6.643 1.12-12.65.42-3.15 1.51-7.23 1.39-11.19a1.47 1.47 0 0 0-1.17-1.39c-1.31-.26-2.51-1-3.62-2.22a.35.35 0 0 0-.56.05l-4.58 7.56c-.02.04-.05.082-.06.127a.62.62 0 0 0 .53.803l2.57.27a.634.634 0 0 0 .7-.56l.51-4.88c.08-.75.72-1.326 1.47-1.326.16 0 .32.026.47.076l.56.19a2.384 2.384 0 0 1 1.62 2.47c-.31 3.34-1 8.887-2.09 16.64q-1.62 11.55.18 23.29c.02.103.11.179.22.179.1 0 .19-.07.21-.169m-179.92-19.97h.005a.257.257 0 0 0 .265-.245V594.12a1.27 1.27 0 0 1 1.22-1.27l2.49-.08a.513.513 0 0 0 .46-.71l-1.95-4.65a1.294 1.294 0 0 0-1.36-.79l-2.29.3a.914.914 0 0 0-.79.97l1.48 21.99a.176.176 0 0 0 .16.17zm168.98-10.75-8.21 11.39a.5.5 0 0 0-.09.33c.03.413.21.687.52.82.6.24.95.863.85 1.49-.46 2.78-.91 5.29-1.34 7.53-.18.903-.48 1.777-.89 2.6-1.97 3.97-2.17 6.92-1.93 11.52.21 3.95 1.06 6.81 1.39 10.61.06.668.5 1.248 1.12 1.5l6.43 2.54c.04.016.09.025.13.026a.38.38 0 0 0 .4-.369c0-.047 0-.093-.02-.137l-2.01-5.9a4.5 4.5 0 0 0-1.05-1.69l-1.69-1.7c-.37-.361-.6-.84-.64-1.35q-.705-7.25.03-11.84c.98-6.107 1.54-9.683 1.67-10.73.68-5.23 2.43-8.76 4.79-14.25.48-1.107.68-1.897.61-2.37 0-.019-.02-.034-.04-.034q-.015 0-.03.014m37.66 1.36a.33.33 0 0 0-.28.32c0 10.53 2.24 21.79 3.29 30.19.36 2.85 1.44 8.2 2.7 12.15q1.785 5.57 4.17 12.94c1.58 4.88 2.19 8.46 2.99 13.03a.573.573 0 0 0 .89.36l.49-.34c.4-.281.59-.769.51-1.25-1.08-5.933-2.84-12.463-5.27-19.59-1.81-5.287-3.64-11.933-5.51-19.94-2.21-9.49-1.95-20.84-3.47-27.72a.22.22 0 0 0-.25-.18zm-193.95 101.3q1.03-1.29 1.41-2.75c.105-.401.112-.82.02-1.22a111 111 0 0 1-2.87-18.5c-.29-4.15 1.55-6.56 1.7-9.81.19-4.43.36-8.73 1.02-13.22q3.11-20.95-.35-41.7c-.53-3.19 2.29-5.49-1.27-8.19a.472.472 0 0 0-.75.35q-.11 2.21.78 4.45c.106.271.16.559.16.85q.01 7.5.2 11.39.36 7.18.01 10.74c-.82 8.35-2.22 14.86-4.5 23.77-1.25 4.86-1.84 11.87-2.07 16.16a65.3 65.3 0 0 0 1.33 17.11c.74 3.47 2.83 7.19 4.59 10.52a.4.4 0 0 0 .04.061.357.357 0 0 0 .55-.011m201.01-10.38c1.19-4.127 1.79-6.743 1.78-7.85-.01-1.967-.46-6.11-1.34-12.43-.39-2.83-1.6-6.09-2.18-7.97q-.99-3.17-1.47-6.01-1.395-8.14-4.59-15.17c-.7-1.54-1.18-3.7-1.4-5.16a669 669 0 0 1-3.31-25.51.14.14 0 0 0-.03-.087c-.06-.082-.17-.1-.26-.041a.5.5 0 0 0-.06.068c-.65 1.247-.98 2.607-1.01 4.08-.1 4.96.09 10.117.56 15.47.46 5.3 1.22 9.353 2.29 12.16q2.115 5.62 5.76 12.94c2.87 5.78 2.48 14.48 3.18 18.66.01.073.01.15.01.23l-.63 14.05c-.03.508.1 1.01.36 1.44.47.78.98 1.283 1.55 1.51a.585.585 0 0 0 .79-.38m-192.75-74.31a.72.72 0 0 0-1.22.61l1.25 9.59.001.012a.35.35 0 0 0 .394.289l.005-.001.44-.07a.51.51 0 0 0 .42-.55q-.43-4.46.3-6.77a1.98 1.98 0 0 0-.48-2zm129.02 4.51c-3.34 5.673-3.94 11.78-1.79 18.32q.375 1.12 2.85 4.47c.14.189.4.249.61.14l.26-.13a.56.56 0 0 0 .31-.499.6.6 0 0 0-.12-.341c-4.39-5.82-3.71-15.15-1.81-21.83 0-.014.01-.028.01-.041 0-.094-.08-.17-.17-.17-.06 0-.12.03-.15.081m70.17 4.23c-.09 7.68 2.18 14.63 4.8 21.8a1.31 1.31 0 0 0 1.65.78l.51-.17a.99.99 0 0 0 .67-.938c0-.11-.01-.218-.05-.322l-7.21-21.21a.195.195 0 0 0-.18-.129c-.1 0-.19.085-.19.189m-46.63 27.29-.03.035c-.2.304-.12.726.19.936l.03.019 5.57 3.38c.05.033.11.055.17.065.25.043.5-.136.54-.396a.5.5 0 0 0 0-.179 60 60 0 0 0-3.11-10.24c-.26-.625-.45-1.275-.58-1.94q-1.545-8.02-1.5-17.49a.65.65 0 0 0-1.05-.51l-.05.04a3 3 0 0 0-1.12 1.98q-1.365 10.71 1.71 20.42c.43 1.373.18 2.667-.77 3.88m-34.02-23.52-7.29 5.11a.62.62 0 0 0-.25.43q-.195 1.86.69 4.58a3.66 3.66 0 0 0 2.59 2.41l4.38 1.07q.15.037.3.037c.7 0 1.26-.569 1.26-1.26v-.097l-.96-11.93a.467.467 0 0 0-.46-.431c-.09 0-.18.028-.26.081m-145.55 72.73q.28-2.32 1.07-3.78a.66.66 0 0 0 .03-.57l-3.44-8.68a2 2 0 0 1-.15-.65q-1-16.99 2.96-33.35 1.65-6.8 1.97-9.89a889 889 0 0 0 1.05-10.23.487.487 0 0 0-.41-.52h-.02a.507.507 0 0 0-.57.4q-1.01 5.29-2.41 9.57c-2.17 6.62-3.64 14.06-5.5 19.89-.92 2.9-1.15 7.12-1.38 9.83-.62 7.19 1.08 14.46 3.11 21.5q0 .01.01.02l3.17 6.55a.27.27 0 0 0 .51-.09m79.46-56.2c.77 3.52 1.65 9.71-.36 13.12-.15.248-.37.449-.62.58l-4.57 2.34a.98.98 0 0 0-.52.76c-.33 3.02.2 5.437 1.58 7.25 6 7.85 18.28 7.8 27.18 5.93q20.595-4.3 35.79-18.7c2.36-2.227 4.53-5.02 6.52-8.38a.546.546 0 0 0-.44-.82l-2.29-.14a2.5 2.5 0 0 1-1.23-.41q-1.23-.84-2.31-1.09c-3.74-.86-4.71-6.07-5.17-9.07a.2.2 0 0 0-.02-.081.53.53 0 0 0-.66-.344c-.03.009-.05.021-.08.035-13.1 6.793-27.03 10.073-41.78 9.84-3.2-.05-7.75-.54-10.47-1.34a.443.443 0 0 0-.55.52m-17.73 1.46-1.44 13.7-.001.013a.15.15 0 0 0 .211.137q4.75-2.28 11.15-4.77c.59-.233 1.42-.753 2.47-1.56.35-.265.54-.704.48-1.15l-1.13-8.67a2.046 2.046 0 0 0-1.81-1.76l-3.73-.39a1.075 1.075 0 0 0-1.15 1.34q1.64 6.29.47 11.67a2.38 2.38 0 0 1-1.63 1.77l-1.39.42a.96.96 0 0 1-1.23-.98 32.4 32.4 0 0 0-.76-9.8.26.26 0 0 0-.252-.197.26.26 0 0 0-.258.227m-20.56 27.02 12.23-8.58a1.25 1.25 0 0 0 .53-1.11c-.12-1.73-.18-3.27.26-5.05a31.6 31.6 0 0 0 .81-10.64.52.52 0 0 0-.516-.459.52.52 0 0 0-.514.439l-1.21 9.02a7 7 0 0 1-.53 1.9l-3.18 7.32c-.26.589-.847.971-1.491.971a1.635 1.635 0 0 1-1.619-1.441q-.1-.86.13-1.98c1.2-5.94 2.61-12.17 1.37-16.52a.63.63 0 0 0-1.23.13c-.19 3.26-.34 6.69-1.3 9.75q-2.25 7.21-4.07 16.03a.21.21 0 0 0 .203.263.2.2 0 0 0 .127-.043m-5.04-23.98-.88 5.45a.8.8 0 0 1-.15.37l-1.03 1.42c-.311.43-.541.914-.68 1.43-2.67 9.57-4.87 16.18-2.99 24.41a.592.592 0 0 0 .96.33q1.89-1.6 3.19-3.39c1.24-1.7 3.8-2.95 4.56-4.48a.21.21 0 0 0-.3-.28q-2.22 1.32-3.11 2.59a1 1 0 0 1-.238.244 1.01 1.01 0 0 1-1.552-.544c-.92-3.08 1.51-10.81 2.54-13.99q.95-2.94.48-5.36c-.59-3.02.31-5.35-.15-8.2a.33.33 0 0 0-.325-.273.33.33 0 0 0-.325.273m202.8 52.18c1.27-1.973 2.12-3.827 2.56-5.56 3.94-15.54 2.43-30.277-4.52-44.21a.36.36 0 0 0-.32-.204c-.18 0-.33.13-.36.304-.13.667-.11 1.47.05 2.41 1.66 9.627 2.76 16.457 3.31 20.49 1 7.327.22 14.627-2.33 21.9-.24.691-.16 1.456.21 2.09q.495.85.84 2.67a.31.31 0 0 0 .56.11m-9.63-7.38c-.01.037-.01.074-.01.111 0 .494.41.9.9.9.34 0 .66-.194.81-.501 3.08-6.4 2.12-14.45 1.85-20.38-.09-2.213-.85-4.137-2.26-5.77a.47.47 0 0 0-.33-.147.45.45 0 0 0-.45.45v.047l1.41 10.11c.05.378.05.765 0 1.15zm-213.88 12.15-1.02-.25a1.47 1.47 0 0 1-.83-.55l-2.64-3.58a3.6 3.6 0 0 1-.45-.81 1235 1235 0 0 1-4.29-11.21 2.2 2.2 0 0 0-.55-.84.322.322 0 0 0-.541.232l.001.018c.12 3.92 1.63 7.66 3.38 10.48q.34.54 2.06 4.65 1.25 2.99 3.31 5.89a.592.592 0 0 0 .99-.06q.57-1.03.98-3.36a.53.53 0 0 0-.4-.61m218.74-3.78-4.78 11.76a.6.6 0 0 0-.01.4l.03.07c.11.12.26.19.42.19s.31-.07.42-.19a46 46 0 0 0 5.5-7.54q1.71-2.91-.36-4.95a.75.75 0 0 0-1.22.26" style="fill:#010101;fill-rule:nonzero" transform="translate(-907.411 -394.85)"/><path d="M1000.12 407.29c.15-.045.31.039.37.19v.01a.21.21 0 0 1-.1.26q-7.24 3.44-8.12 4.04-2.05 1.41-4.56 3.63c-.365.32-.844.482-1.33.45l-.99-.06a.34.34 0 0 1-.17-.62q4.54-3.08 5.68-3.76 4.51-2.7 9.22-4.14m106.1 51.21a9.4 9.4 0 0 1-1.55-1.41q-5.64-6.47-6.18-6.94c-5.83-5.05-10.04-9.96-15.86-13.5-5.2-3.16-8.5-5.67-13.27-7.64q-11.325-4.68-17.13-6.4-9.465-2.81-20.7-4.38c-3.42-.48-7.94-.623-13.57-.43q-7.155.25-13.53 1.05l-.03.002a.27.27 0 0 1-.1-.522c1.65-.653 3.6-1.123 5.84-1.41a132.6 132.6 0 0 1 33.97.05c2.79.36 5.8 1.08 9.04 2.16 2.06.68 4.43-.73 6.49-.23 1.84.453 3 .803 3.49 1.05a147 147 0 0 1 22.2 13.65c.07.053 2.71 2.563 7.94 7.53 5.04 4.8 9.45 11.44 13.17 17.16.01.026.02.056.02.087 0 .087-.07.158-.15.156a.2.2 0 0 1-.09-.033" style="fill:#261609;fill-rule:nonzero" transform="translate(-907.411 -394.85)"/><path d="M1080.51 450.18c3.39 2.833 5.27 4.733 5.66 5.7.62 1.553 1.57 3.437 2.86 5.65.17.286.36.551.58.79 4.79 5.2 9.47 11.027 14.02 17.48 4.28 6.05 7.66 14.5 10.09 20.19.01.031.02.063.02.096a.27.27 0 0 1-.27.27.27.27 0 0 1-.2-.086c-3.59-4.11-6.71-8.76-10.26-12.76-4.01-4.53-5.08-6.11-9.35-10.27-2.28-2.22-5.03-6.45-8.59-8.91-4.86-3.35-9.98-8.26-15.88-11.32-4.68-2.44-9.76-6.42-13.33-8.61q-1.155-.71-7.89-5.66c-3.31-2.433-7.02-4.677-11.15-6.73-3.39-1.69-7.75-3.03-11.34-4.78q-2.67-1.31-4.44.3c-.27.246-.64.35-.99.28l-12.01-2.33a.535.535 0 0 1-.44-.522c0-.249.18-.465.42-.518 5.27-1.21 10.34-.03 15.6.31 11.51.75 21.99 4.7 31.83 10.85 11.04 6.89 18.2 10.92 25.76 19.16a2.725 2.725 0 0 0 3.62.34l.12-.08c.56-.419.89-1.079.89-1.779a2.2 2.2 0 0 0-.68-1.601c-3.45-3.32-5.19-4.997-5.2-5.03a.36.36 0 0 1 .55-.43" style="fill:#261609;fill-rule:nonzero" transform="translate(-907.411 -394.85)"/><path d="M1060.48 464.78c-5.11-1.66-10.6-5.12-15.87-9.27-4.53-3.567-9.71-7.313-15.56-11.24a.35.35 0 0 1-.11-.47l.15-.24a.155.155 0 0 1 .2-.06c6.87 3.62 13.56 6.59 19.51 10.79 4.39 3.1 8.54 5.13 12.09 9.92.05.063.07.139.07.217a.374.374 0 0 1-.48.353m-31.26 7.21c.02.015.03.032.05.051a.286.286 0 0 1-.13.429l-.26.11a.38.38 0 0 1-.35-.02l-26.68-16.18a5.7 5.7 0 0 1-1.16-.91 27.4 27.4 0 0 0-9.61-6.3c-1.2-.47-2.44-1.53-2.93-2.63a.692.692 0 0 1 .628-.977c.148 0 .293.048.412.137q1.93 1.42 4.01 1.83c.278.053.548.147.8.28 1.4.74 3 1.66 4.92 2.17 3.13.84 8.55 2.94 10.05 6.24.89 1.967 2.4 3.567 4.51 4.8 6.45 3.753 11.7 7.41 15.74 10.97m77.51-24.58c1.28.793 2.6 2.27 3.95 4.43 4.63 7.413 8.92 16.2 12.89 26.36q1.395 3.53 2.97 9.99c.43 1.753.63 3.203.61 4.35a.3.3 0 0 1-.21.27l-.42.12a.283.283 0 0 1-.37-.265c0-.025 0-.051.01-.075q.24-1.03-.54-3.57c-3.33-10.813-7.34-20.297-12.02-28.45q-4.575-7.96-7.41-12.62a.4.4 0 0 1-.06-.214.388.388 0 0 1 .6-.326m-17.95.62q12.015 10.13 19.32 20.36c1.56 2.18 3.91 5.98 3.61 9.04-.12 1.267.17 2.467.88 3.6v.004c.09.151.04.352-.12.444v.002a.21.21 0 0 1-.27-.05c-1.44-2-2.11-4.12-3.54-6.36a188.6 188.6 0 0 0-20.23-26.37.357.357 0 0 1 .01-.49l.18-.17c.04-.046.12-.05.16-.01m-74.46 5.6q17.91 11.95 18.18 12.12c6.47 3.99 13.44 11.12 19.54 15.03q5.835 3.74 13.38 10.1c.08.051.14.142.14.24a.283.283 0 0 1-.43.24c-6.92-2.85-14.62-6.15-22.18-10.96a1.2 1.2 0 0 1-.54-.76c-.13-.593.06-1.053.58-1.38q.105-.069.21-.153c.77-.677.8-1.942.05-2.804a2 2 0 0 0-.2-.203c-2.92-2.63-7.04-4.59-11.01-7.62-5.89-4.473-11.8-8.927-17.71-13.36a.19.19 0 0 1-.08-.18l.06-.3c0-.005.01-.01.01-.01" style="fill:#261609;fill-rule:nonzero" transform="translate(-907.411 -394.85)"/><ellipse rx="11.48" ry=".89" style="fill:#261609" transform="rotate(246.1 136.964 -37.719)"/><path d="M947.97 458.83a.489.489 0 0 1 .78.57q-2.91 6.19-5.14 9.93c-3.27 5.48-4.75 10.07-7.7 16.81-.27.63-.38 1.94-.69 2.66a.32.32 0 0 1-.3.209.32.32 0 0 1-.32-.319l-.14-4.81a.12.12 0 0 1 .01-.08c1.86-5.58 5.09-11.86 7.76-17.01q2.64-5.08 5.74-7.96m146.9 29.29v.042a.298.298 0 0 1-.48.238l-23.96-18.78c-.2-.154-.33-.375-.38-.62-.71-3.55-5.12-7.18-7.73-9.67a.43.43 0 0 1-.04-.56l.18-.23c.04-.05.1-.08.16-.08.05 0 .1.018.14.05 2.69 2.22 6.3 4.883 10.82 7.99 4.11 2.82 7.3 6.37 11.31 10.03 3.97 3.63 6.46 6.96 9.62 10.67q.285.35.36.92m-133.85-23.87a.12.12 0 0 1 .05.16l-14.2 26.36c-2.847 5.288-5.446 9.507-5.76 9.35l-.071-.04c-.309-.167 1.781-4.657 4.631-9.95l14.2-26.37a.12.12 0 0 1 .16-.04zm-8.44 1.76a.14.14 0 0 1 .06.19l-8.8 16.19c-.937 1.727-1.884 3.057-2.1 2.95-.21-.118.39-1.64 1.33-3.37l8.79-16.19a.14.14 0 0 1 .19-.06zm178.61 15.64a.15.15 0 0 1 .11-.18l.07-.02c.75-.177 2.23 3.301 3.29 7.705v.005l.12.48c1.06 4.406 1.31 8.179.57 8.358l-.01.002-.07.02a.15.15 0 0 1-.18-.11zm10.73 41.19c.01.055.01.11.01.165a.95.95 0 0 1-1.38.845l-5.52-2.77a.72.72 0 0 1-.39-.642c0-.234.11-.453.3-.588l1.46-1.02c.25-.179.42-.45.46-.75.54-3.453.52-6.78-.07-9.98-.15-.817.14-1.653.76-2.2l.21-.2a.83.83 0 0 1 .56-.215c.41 0 .76.3.83.705zm8.66 15.94v.031c0 .198-.15.364-.35.379l-.04.01a.28.28 0 0 1-.3-.24 24.84 24.84 0 0 0-3.94-10.21c-.22-.332-.29-.74-.21-1.13q2.19-10.12.78-20.58a.28.28 0 0 1 .22-.31h.01c.11-.029.23.047.27.17 2.09 7.82 3.04 15.547 2.87 23.18-.06 2.47.42 5.86.69 8.7" style="fill:#261609;fill-rule:nonzero" transform="translate(-907.411 -394.85)"/><path d="M1052.12 512.31c2.48.56 16.54 5.16 14.06 9.89-.47.88-1.27 1.273-2.41 1.18a1.6 1.6 0 0 1-.86-.33c-3.64-2.813-7.62-4.703-11.93-5.67q-6.465-1.45-13.2.03c-.31.069-.63.045-.92-.07-1.07-.4-1.63-1.1-1.67-2.1-.23-5.33 14.45-3.49 16.93-2.93m-74.48 1.2c2.27.69 2.58 3.76.11 4.74a1.86 1.86 0 0 1-.89.12q-.71-.06-3.45-.49c-7.17-1.12-13.98 2.52-19.08 8.34a2.43 2.43 0 0 1-3.24.37l-.08-.05a2.195 2.195 0 0 1-.52-3c4.16-6.13 12.11-10.13 19.28-10.94q3.56-.41 7.87.91" style="fill:#010101;fill-rule:nonzero" transform="translate(-907.411 -394.85)"/><path d="M924.03 531.81q-.22-.2-.09-.41a.33.33 0 0 1 .19-.14q.26-.07.37.06a.36.36 0 0 1 .083.232c0 .192-.148.35-.329.35a.32.32 0 0 1-.224-.092" style="fill:#72ae9d;fill-rule:nonzero" transform="translate(-907.411 -394.85)"/><path d="M1129.39 543.09a.491.491 0 0 0-.69.54l.64 3.34c.03.145.03.295 0 .44-.47 2.333-1.48 3.77-3.04 4.31-.22.076-.45.115-.68.115-1.08 0-1.97-.84-1.97-1.86 0-.22.04-.438.12-.645q.66-1.69.72-3.35v-.018a.651.651 0 0 0-1.05-.512c-1.06.853-1.71 1.36-1.94 1.52-.01.01-.03.019-.04.028-.84.553-2.01.28-2.59-.604l-.03-.044c-.47-.753-.44-1.543.1-2.37 2.17-3.32 5.02-5.21 8.53-5.67 2.83-.37 7.92 1.82 5.66 5.32a1 1 0 0 1-.1.136c-.56.703-1.55.857-2.2.34a2 2 0 0 1-.12-.106 4.2 4.2 0 0 0-1.32-.91" style="fill:#010101;fill-rule:nonzero" transform="translate(-907.411 -394.85)"/><path d="M1150.39 604.91a.29.29 0 0 1-.29.254.29.29 0 0 1-.28-.224q-.975-4.99-1.08-7.64a898 898 0 0 0-2.08-33.13c-.05-.627.03-1.26.23-1.86l2.57-7.68a.14.14 0 0 1 .14-.09l.34.04c.17.018.31.165.31.338 0 .021-.01.042-.01.062-1.41 7-.39 13.89-.52 21.06-.14 7.58.15 15.58.86 24 .13 1.58-.09 3.31-.19 4.87m-12.08-30.79a.38.38 0 0 1-.18-.5l.1-.23v-.003c.9-1.925 2.25-3.224 2.99-2.878 0 0 0 .003.01.003.74.346.61 2.213-.29 4.138l-.11.22a.383.383 0 0 1-.5.19zm-14.89 22.21c-.03.02-.06.03-.07.03-.01.004-.03.006-.04.008a.37.37 0 0 1-.41-.32v-.038l-.15-7.73c-.01-.352.09-.7.28-1 .33-.5.99-1.16 1.99-1.98 1.29-1.04 2.07-2.66 2.35-4.86.05-.399.32-.739.7-.88l.04-.01q.045-.01.09-.01c.23 0 .41.185.41.41v.03l-1.24 17.41c-.01.192.01.385.07.57 1.05 3.147 1.31 6.253.77 9.32-1.06 6.06-.82 9.57-1.29 17.86q-.21 3.68 2.16 10.39c.27.732.47 1.485.61 2.25q1.965 10.45 3.39 14.02c3.13 7.833 5.26 15.87 6.4 24.11q.885 6.34-.84 11.99a.47.47 0 0 1-.86.1l-7.5-13-.03-.049a.94.94 0 0 1 .42-1.239c.02-.008.03-.015.05-.022.8-.34 1.19-.997 1.16-1.97-.09-2.81.01-5.52-.73-7.57-1.35-3.7-2.56-6.24-3.07-9.53-.57-3.693-1.76-7.47-3.59-11.33a8 8 0 0 1-.59-1.79c-2.14-10.45-1.69-18.85-.89-31.08.26-3.99 1.76-9.16 1.78-13.24a.8.8 0 0 0-.03-.219.947.947 0 0 0-1.13-.709q-.105.027-.21.078m-9.03 33.71a.214.214 0 0 1-.21.169c-.11 0-.2-.076-.22-.179q-1.8-11.74-.18-23.29c1.09-7.753 1.78-13.3 2.09-16.64a2.384 2.384 0 0 0-1.62-2.47l-.56-.19c-.15-.05-.31-.076-.47-.076-.75 0-1.39.576-1.47 1.326l-.51 4.88a.634.634 0 0 1-.7.56l-2.57-.27a.62.62 0 0 1-.53-.803c.01-.045.04-.087.06-.127l4.58-7.56a.35.35 0 0 1 .56-.05c1.11 1.22 2.31 1.96 3.62 2.22.66.134 1.15.713 1.17 1.39.12 3.96-.97 8.04-1.39 11.19-.81 6.007-1.19 10.223-1.12 12.65.24 8.36.52 12.25-.53 17.27M934 609.88l-1.48-21.99a.914.914 0 0 1 .79-.97l2.29-.3a1.294 1.294 0 0 1 1.36.79l1.95 4.65a.513.513 0 0 1-.46.71l-2.49.08a1.27 1.27 0 0 0-1.22 1.27v15.705a.257.257 0 0 1-.265.245h-.005l-.31-.02a.176.176 0 0 1-.16-.17" style="fill:#261609;fill-rule:nonzero" transform="translate(-907.411 -394.85)"/><path d="M1014.66 603.44c-8.35.43-16.78-1.84-23.76-6.56a2.59 2.59 0 0 1-.76-3.47l.07-.11a2.4 2.4 0 0 1 3.35-.77c6.58 4.25 12.86 6.15 20.82 5.73 7.97-.42 14.01-2.97 20.11-7.88.43-.343.96-.53 1.51-.53.74 0 1.45.348 1.9.94l.09.11a2.6 2.6 0 0 1-.4 3.53c-6.45 5.42-14.59 8.57-22.93 9.01" style="fill:#010101;fill-rule:nonzero" transform="translate(-907.411 -394.85)"/><path d="M1103.52 599.34c.07.473-.13 1.263-.61 2.37-2.36 5.49-4.11 9.02-4.79 14.25-.13 1.047-.69 4.623-1.67 10.73q-.735 4.59-.03 11.84c.04.51.27.989.64 1.35l1.69 1.7a4.5 4.5 0 0 1 1.05 1.69l2.01 5.9c.02.044.02.09.02.137a.38.38 0 0 1-.4.369.4.4 0 0 1-.13-.026l-6.43-2.54a1.8 1.8 0 0 1-1.12-1.5c-.33-3.8-1.18-6.66-1.39-10.61-.24-4.6-.04-7.55 1.93-11.52.41-.823.71-1.697.89-2.6.43-2.24.88-4.75 1.34-7.53.1-.627-.25-1.25-.85-1.49-.31-.133-.49-.407-.52-.82a.5.5 0 0 1 .09-.33l8.21-11.39q.015-.014.03-.014c.02 0 .04.015.04.034m38.1 1.49c1.52 6.88 1.26 18.23 3.47 27.72 1.87 8.007 3.7 14.653 5.51 19.94 2.43 7.127 4.19 13.657 5.27 19.59.08.481-.11.969-.51 1.25l-.49.34a.573.573 0 0 1-.89-.36c-.8-4.57-1.41-8.15-2.99-13.03q-2.385-7.37-4.17-12.94c-1.26-3.95-2.34-9.3-2.7-12.15-1.05-8.4-3.29-19.66-3.29-30.19 0-.158.12-.295.28-.32l.26-.03a.22.22 0 0 1 .25.18M947.16 701.98a.357.357 0 0 1-.55.011.4.4 0 0 1-.04-.061c-1.76-3.33-3.85-7.05-4.59-10.52a65.3 65.3 0 0 1-1.33-17.11c.23-4.29.82-11.3 2.07-16.16 2.28-8.91 3.68-15.42 4.5-23.77q.35-3.56-.01-10.74-.19-3.89-.2-11.39c0-.291-.054-.579-.16-.85q-.89-2.24-.78-4.45a.472.472 0 0 1 .75-.35c3.56 2.7.74 5 1.27 8.19q3.46 20.75.35 41.7c-.66 4.49-.83 8.79-1.02 13.22-.15 3.25-1.99 5.66-1.7 9.81a111 111 0 0 0 2.87 18.5c.092.4.085.819-.02 1.22q-.38 1.46-1.41 2.75m200.22-10c-.57-.227-1.08-.73-1.55-1.51-.26-.43-.39-.932-.36-1.44l.63-14.05c0-.08 0-.157-.01-.23-.7-4.18-.31-12.88-3.18-18.66q-3.645-7.32-5.76-12.94c-1.07-2.807-1.83-6.86-2.29-12.16-.47-5.353-.66-10.51-.56-15.47.03-1.473.36-2.833 1.01-4.08a.5.5 0 0 1 .06-.068c.09-.059.2-.041.26.041q.03.038.03.087c.94 8.513 2.04 17.017 3.31 25.51.22 1.46.7 3.62 1.4 5.16q3.195 7.03 4.59 15.17.48 2.84 1.47 6.01c.58 1.88 1.79 5.14 2.18 7.97.88 6.32 1.33 10.463 1.34 12.43.01 1.107-.59 3.723-1.78 7.85a.585.585 0 0 1-.79.38m-191.96-74.69 1.11 1.11c.521.522.706 1.295.48 2q-.73 2.31-.3 6.77a.51.51 0 0 1-.42.55l-.44.07-.005.001a.35.35 0 0 1-.394-.289l-.001-.012-1.25-9.59a.723.723 0 0 1 .713-.819.72.72 0 0 1 .507.209m129.02 4.51a.18.18 0 0 1 .15-.081c.09 0 .17.076.17.17 0 .013-.01.027-.01.041-1.9 6.68-2.58 16.01 1.81 21.83a.6.6 0 0 1 .12.341.56.56 0 0 1-.31.499l-.26.13a.484.484 0 0 1-.61-.14q-2.475-3.35-2.85-4.47c-2.15-6.54-1.55-12.647 1.79-18.32m70.17 4.23c0-.104.09-.189.19-.189.08 0 .15.052.18.129l7.21 21.21c.04.104.05.212.05.322a.99.99 0 0 1-.67.938l-.51.17a1.31 1.31 0 0 1-1.65-.78c-2.62-7.17-4.89-14.12-4.8-21.8m-46.63 27.29c.95-1.213 1.2-2.507.77-3.88q-3.075-9.71-1.71-20.42c.1-.781.5-1.494 1.12-1.98l.05-.04a.65.65 0 0 1 1.05.51q-.045 9.47 1.5 17.49c.13.665.32 1.315.58 1.94a60 60 0 0 1 3.11 10.24q.015.09 0 .179a.475.475 0 0 1-.54.396.5.5 0 0 1-.17-.065l-5.57-3.38-.03-.019a.684.684 0 0 1-.19-.936zm-34.02-23.52a.47.47 0 0 1 .26-.081c.24 0 .44.19.46.431l.96 11.93v.097a1.26 1.26 0 0 1-1.56 1.223l-4.38-1.07a3.66 3.66 0 0 1-2.59-2.41q-.885-2.72-.69-4.58a.62.62 0 0 1 .25-.43zm-145.55 72.73a.27.27 0 0 1-.51.09l-3.17-6.55q-.01-.01-.01-.02c-2.03-7.04-3.73-14.31-3.11-21.5.23-2.71.46-6.93 1.38-9.83 1.86-5.83 3.33-13.27 5.5-19.89q1.4-4.28 2.41-9.57a.507.507 0 0 1 .57-.4h.02c.253.041.433.27.41.52a889 889 0 0 1-1.05 10.23q-.32 3.09-1.97 9.89-3.96 16.36-2.96 33.35c.013.225.064.445.15.65l3.44 8.68c.076.19.065.4-.03.57q-.79 1.46-1.07 3.78m61.73-54.74a.26.26 0 0 1 .258-.227.26.26 0 0 1 .252.197 32.4 32.4 0 0 1 .76 9.8q-.006.087.003.175a.96.96 0 0 0 1.227.805l1.39-.42a2.38 2.38 0 0 0 1.63-1.77q1.17-5.38-.47-11.67a1.072 1.072 0 0 1 1.15-1.34l3.73.39c.93.098 1.69.829 1.81 1.76l1.13 8.67c.06.446-.13.885-.48 1.15-1.05.807-1.88 1.327-2.47 1.56q-6.4 2.49-11.15 4.77a.15.15 0 0 1-.211-.137l.001-.013zm-20.56 27.02a.2.2 0 0 1-.127.043.21.21 0 0 1-.203-.263q1.82-8.82 4.07-16.03c.96-3.06 1.11-6.49 1.3-9.75a.63.63 0 0 1 1.23-.13c1.24 4.35-.17 10.58-1.37 16.52q-.23 1.12-.13 1.98a1.635 1.635 0 0 0 1.619 1.441c.644 0 1.231-.382 1.491-.971l3.18-7.32a7 7 0 0 0 .53-1.9l1.21-9.02a.52.52 0 0 1 .514-.439c.262 0 .485.199.516.459a31.6 31.6 0 0 1-.81 10.64c-.44 1.78-.38 3.32-.26 5.05a1.25 1.25 0 0 1-.53 1.11zm-5.04-23.98a.33.33 0 0 1 .325-.273c.16 0 .297.116.325.273.46 2.85-.44 5.18.15 8.2q.47 2.42-.48 5.36c-1.03 3.18-3.46 10.91-2.54 13.99q.049.166.15.307c.323.45.956.557 1.402.237q.14-.102.238-.244.89-1.27 3.11-2.59a.21.21 0 0 1 .3.28c-.76 1.53-3.32 2.78-4.56 4.48q-1.3 1.79-3.19 3.39a.59.59 0 0 1-.96-.33c-1.88-8.23.32-14.84 2.99-24.41.139-.516.369-1 .68-1.43l1.03-1.42a.8.8 0 0 0 .15-.37zm202.24 52.07q-.345-1.82-.84-2.67a2.52 2.52 0 0 1-.21-2.09c2.55-7.273 3.33-14.573 2.33-21.9-.55-4.033-1.65-10.863-3.31-20.49-.16-.94-.18-1.743-.05-2.41a.365.365 0 0 1 .36-.304c.13 0 .26.08.32.204 6.95 13.933 8.46 28.67 4.52 44.21-.44 1.733-1.29 3.587-2.56 5.56a.31.31 0 0 1-.56-.11m-9.07-7.27 1.92-14.03c.05-.385.05-.772 0-1.15l-1.41-10.11v-.047c0-.247.2-.45.45-.45.12 0 .24.054.33.147 1.41 1.633 2.17 3.557 2.26 5.77.27 5.93 1.23 13.98-1.85 20.38a.9.9 0 0 1-.81.501c-.49 0-.9-.406-.9-.9 0-.037 0-.074.01-.111m-213.48 12.76q-.41 2.33-.98 3.36a.59.59 0 0 1-.99.06q-2.06-2.9-3.31-5.89-1.72-4.11-2.06-4.65c-1.75-2.82-3.26-6.56-3.38-10.48l-.001-.018a.322.322 0 0 1 .541-.232q.35.32.55.84 2.12 5.62 4.29 11.21.17.43.45.81l2.64 3.58c.2.272.494.466.83.55l1.02.25c.273.064.45.334.4.61m218.34-4.39a.75.75 0 0 1 1.22-.26q2.07 2.04.36 4.95a46 46 0 0 1-5.5 7.54.57.57 0 0 1-.42.19.57.57 0 0 1-.42-.19l-.03-.07a.6.6 0 0 1 .01-.4z" style="fill:#261609;fill-rule:nonzero" transform="translate(-907.411 -394.85)"/><path d="M1037.51 726.69c.05.117.17.193.3.193s.25-.076.3-.193c2-4.34 4.65-8.213 7.96-11.62 9.48-9.78 25.52-8.22 27.33 7.05.82 6.94-.63 13.847-4.34 20.72-4.19 7.747-9.09 14.52-14.68 20.32-6.74 6.993-11.47 11.5-14.2 13.52-1.23.907-2.52.763-3.89-.43-13.32-11.61-24.03-21.65-30.08-36.17-3.69-8.85-3.08-21.14 6.48-26.22 11.04-5.88 20.58 3.28 24.82 12.83m71.94 77.82c-.38 3.72-4.65 4.46-5.93.93-.71-27.747-4.18-55.43-10.42-83.05-.01-.03-.01-.06-.02-.091-.29-1.475.7-2.926 2.18-3.214l.08-.015.15-.02c1.62-.256 3.18.796 3.54 2.39 6.57 28.7 10.05 56.39 10.42 83.07m-147.05-8.83a467 467 0 0 1-1.04 8.81q-.42 3.22-3.11 3.13-2.39-.07-3.3-3.29 3.3-27.9 6.88-48.57 3.11-18.02 4.82-31.21a3.047 3.047 0 0 1 3.14-2.64l.07.01a2.73 2.73 0 0 1 2.59 2.95q-.25 3.04-6.53 43.11-.89 5.71-3.52 27.7" style="fill:#010101;fill-rule:nonzero" transform="translate(-907.411 -394.85)"/></svg>