<svg xmlns="http://www.w3.org/2000/svg" xml:space="preserve" style="fill-rule:evenodd;clip-rule:evenodd;stroke-linecap:round;stroke-linejoin:round;stroke-miterlimit:1.5" viewBox="0 0 315 522"><path d="m262.188 504.535-.028.029a.5.5 0 0 1-.706.017l-3.665-3.489a.5.5 0 0 1-.017-.707l.028-.029a.5.5 0 0 1 .706-.017l3.665 3.489a.5.5 0 0 1 .017.707m18.932 15.755q-.28.35-.9.22a.73.73 0 0 1-.36-.18q-2.48-2.25-2.08-2.75t3.12 1.47a.73.73 0 0 1 .25.31q.25.58-.03.93m-13.608-1.977 1.883 3.37a.64.64 0 0 1-.246.871l-.07.039a.644.644 0 0 1-.871-.246l-1.883-3.37a.64.64 0 0 1 .246-.871l.07-.039c.307-.171.7-.06.871.246m-16.548-10.674 7.485 19.299a.62.62 0 0 1-.353.802l-.038.015a.62.62 0 0 1-.802-.354l-7.486-19.299a.62.62 0 0 1 .354-.802l.038-.015a.62.62 0 0 1 .802.354m20.616 70.191.35.02c.095.005.17.089.17.19q.04 3.39.16 9.46c.11 6.2 2.07 11.62 4.16 17.48a.502.502 0 0 1-.87.47q-1.07-1.4-1.69-2.81-5.13-11.5-2.64-24.53a.346.346 0 0 1 .36-.28m13.838 17.177 3.001 6.235a.79.79 0 0 1-.369 1.055l-.054.026a.793.793 0 0 1-1.054-.37l-3.001-6.235a.79.79 0 0 1 .369-1.055l.054-.026a.793.793 0 0 1 1.054.37m-.874-16.946c.269-.159.773.188 1.117.769s.404 1.19.135 1.349-.773-.188-1.117-.769-.404-1.19-.135-1.349m5.756-7.271a.17.17 0 0 1 .23.08l1.09 2.32c3.161 6.749 5.591 12.382 5.382 12.479l-.002.001-.04.02c-.247.012-3.005-5.438-6.14-12.13l-1.09-2.32a.17.17 0 0 1 .08-.22zm19.067-29.649 2.892 5.051a.41.41 0 0 1-.152.559l-.034.02a.41.41 0 0 1-.56-.152l-2.892-5.051a.41.41 0 0 1 .152-.559l.034-.02a.41.41 0 0 1 .56.152m24.023-.311q-.12-.02-.23-.2-.07-.12.02-.27.15-.25.43-.03a.28.28 0 0 1 .114.225.28.28 0 0 1-.334.275m25.35 11.05q.06-.33.34-.33.116-.003.229.018c.55.107.915.643.809 1.186a1 1 0 0 1-.068.216.18.18 0 0 1-.1.11.8.8 0 0 1-.235.052c-.504.034-.95-.406-.989-.975a1.2 1.2 0 0 1 .014-.277m-21.741 5.747c.287-.229 1.151.369 1.915 1.325.763.956 1.154 1.931.867 2.161s-1.151-.369-1.915-1.325c-.763-.956-1.154-1.931-.867-2.161m-12.742 25.022 2.759 8.44a.653.653 0 0 1-.416.82l-.057.018a.654.654 0 0 1-.82-.415l-2.759-8.441a.653.653 0 0 1 .416-.82l.057-.018a.653.653 0 0 1 .82.416M312.78 595.24q.017.029.017.062a.12.12 0 0 1-.067.108l-.05.03c-.661.341-2.36-1.502-3.77-4.09l-2.39-4.37c-1.414-2.595-2.038-5.021-1.383-5.378l.003-.002.05-.03a.12.12 0 0 1 .16.05zm206.76 33.48a.06.06 0 0 1 .01.08l-.1.13c-.29.357-1.677-.272-3.074-1.395l-.006-.005-.25-.2c-1.395-1.122-2.306-2.34-2.02-2.7l.1-.13a.06.06 0 0 1 .045-.02.06.06 0 0 1 .045.02zm2.96-4.44-.16.12c-.367.238-1.696-1.042-2.95-2.84l-.14-.19-.002-.003c-1.259-1.804-1.998-3.496-1.638-3.747l.17-.11zm-50.14-64.468 2.734 30.639a.75.75 0 0 1-.68.813l-.04.004a.755.755 0 0 1-.814-.68l-2.734-30.639a.75.75 0 0 1 .68-.813l.04-.004a.755.755 0 0 1 .814.68m-20.666 29.214c.285-.175.69-.041.896.295.206.337.142.758-.144.933-.285.175-.69.041-.896-.295-.206-.337-.142-.758.144-.933m-7.664-7.096q-.31-.32-.19-.69a.391.391 0 0 1 .67-.13q.29.33.15.7a.377.377 0 0 1-.63.12m14.135-15.742c.164-.01.414 1.715.554 3.822s.12 3.85-.044 3.862c-.164.01-.414-1.715-.554-3.822s-.12-3.85.044-3.862m-7.575-9.058q.21 6.19.98 12.35l.003.037a.271.271 0 0 1-.423.223q-.29-.21-.41-.68a56.8 56.8 0 0 1-.79-23.84q.08-.48.36-.7a.271.271 0 0 1 .441.209l-.001.021q-.36 6.2-.16 12.38m-5.57-24.44a.35.35 0 0 1 .06-.43l1.03-1.03a.28.28 0 0 1 .45.3q-.92 2.26-1.54 1.16m12.54-14.68q-.66-.39-.23-1.02 1.66-2.48 2.14-2.19.49.29-.9 2.93-.36.67-1.01.28m16.64 33.53a.16.16 0 0 1-.16.16h-.01l-.2-.01h-.003c-.624-.024-.804-8.759-.397-19.35l.14-3.48c.407-10.585 1.255-19.277 1.88-19.26l.2.01a.16.16 0 0 1 .15.16zm26.8 10.4q-2.17-9.58-2.82-20.11-.09-1.58.28-2.59a.321.321 0 0 1 .62.06q1.74 13.25 3.78 22.22 2.03 8.96 6.18 21.66a.322.322 0 0 1-.53.33q-.77-.75-1.37-2.22-3.96-9.78-6.14-19.35m-13.23-11.92c0 .082-.068.15-.15.15h-.08c-.751-.019-1.265-6.594-1.14-14.57v-.263c.125-7.981.847-14.539 1.598-14.527h.082c.082 0 .15.068.15.15zm-.02-90.25q.26.34.02.72a.4.4 0 0 1-.116.123.367.367 0 0 1-.508-.093.35.35 0 0 1-.056-.15.96.96 0 0 1 .09-.57.4.4 0 0 1 .042-.062.337.337 0 0 1 .528.032m6.54-3.35q.17-.69 1.01-1.17a.43.43 0 0 1 .64.33q.05.5-.14 1.22-.18.73-.46 1.14a.43.43 0 0 1-.72-.02q-.51-.81-.33-1.5m10.36 35.14q-.5.02-.54-.51-1.31-16.47-1.1-28.1.1-5.87-.06-9.86c-.003-.099.035-.183.09-.2h.04q.01-.01.03 0c.058.009.104.089.11.19q.16 3.99.74 9.83 1.15 11.58 1.18 28.1 0 .53-.49.55m-17.86-100.74a.19.19 0 0 1-.25-.12l-.51-1.5c-2.798-8.173-4.9-14.966-4.656-15.049l.006-.001.11-.04.003-.001c.244-.084 2.747 6.574 5.546 14.748l.001.003.51 1.5a.19.19 0 0 1-.12.24zm-8.09 1.04q-.39-.51.52-1.58a.56.56 0 0 1 .68-.13q.52.27.53.96c.004.161-.029.323-.096.473-.229.516-.81.766-1.286.554a.9.9 0 0 1-.348-.277m-46.595-66.383-.025.031a.56.56 0 0 1-.787.087l-6.571-5.265a.56.56 0 0 1-.087-.787l.025-.031a.56.56 0 0 1 .787-.087l6.571 5.265a.56.56 0 0 1 .087.787m-8.615-21.007a144 144 0 0 0-10.99-7.25.29.29 0 0 1 .05-.53q.37-.11.84.1a60.5 60.5 0 0 1 11.04 6.38 60.3 60.3 0 0 1 9.47 8.56q.34.38.35.76c0 .16-.131.291-.29.291a.3.3 0 0 1-.19-.071 145 145 0 0 0-10.28-8.24m9.39-5.84a.38.38 0 0 1 .01.52h-.01a.236.236 0 0 1-.33.02c-9.76-8.04-19.78-15.95-32.41-15.67h-.011a.75.75 0 0 1-.749-.741v-.079a.77.77 0 0 1 .75-.76q7.72-.13 13.33 2.64 11 5.41 19.42 14.07m-41.625-10.86c.548-.007 1.007.548 1.015 1.228s-.436 1.245-.985 1.252-1.007-.548-1.015-1.228.436-1.245.985-1.252m8.575 14.87c0 .318-.262.58-.58.58a.583.583 0 0 1-.58-.58c0-.318.262-.58.58-.58s.58.262.58.58m2.99 5.78a.2.2 0 0 1 .27-.1l.1.04c6.484 2.9 11.689 5.575 11.532 5.926l-.002.004-.04.09c-.157.351-5.622-1.748-12.107-4.649l-.003-.001-.1-.04a.2.2 0 0 1-.1-.27zm-40.31-33.64a.19.19 0 0 1-.132-.181.19.19 0 0 1 .172-.189q4.57-.38 7.71 1.84a.53.53 0 0 1 .205.275.553.553 0 0 1-.695.685zm14.76 15.36q-.32-.24-1.35-.94a.43.43 0 0 1-.181-.35.432.432 0 0 1 .561-.41q.17.06 1.47 1.05 1.3 1 1.4 1.15a.432.432 0 0 1-.64.56 45 45 0 0 0-1.26-1.06m-2.104 17.96c.044.613-.55 1.162-1.316 1.217s-1.432-.404-1.476-1.017.55-1.162 1.316-1.217 1.432.404 1.476 1.017m-7.886 1.86a.2.2 0 0 1-.08.27l-2.8 1.52c-1.921 1.043-3.579 1.759-3.68 1.59l-.22-.4-.003-.005c-.095-.174 1.415-1.178 3.343-2.225l2.8-1.51a.2.2 0 0 1 .27.08zm-15.232-5.111c.184.331-1.466 1.602-3.653 2.814-2.188 1.213-4.14 1.939-4.323 1.608s1.466-1.602 3.653-2.814c2.188-1.213 4.14-1.939 4.323-1.608m5.592-20.179c.382.016.69.333.7.72l.01.29v.021c0 .318-.261.58-.58.58l-.03-.001-2.51-.15a.77.77 0 0 1-.72-.76v-.82a.522.522 0 0 1 .75-.46q1.06.52 2.38.58m-9.14.24a.7.7 0 0 1-.243-.129c-.256-.216-.304-.587-.106-.822a.5.5 0 0 1 .209-.149q1.19-.49 2.23.12a.52.52 0 0 1-.06.92q-.9.4-2.03.06m-29 1.41q5.44-2.81 11.11-5.09.73-.29 1.35-.11a.24.24 0 0 1 .03.46 161 161 0 0 0-12.03 5.62q-5.87 3.03-11.54 6.57a.24.24 0 0 1-.36-.28q.21-.61.86-1.04a129 129 0 0 1 10.58-6.13m-10.43 14.82c5.97-4.11 12.68-7.96 19.77-9.73h.014a.22.22 0 0 1 .126.4c-6.59 3.14-13.04 6.32-19.1 10.5-6.06 4.17-11.32 9.07-16.61 14.11a.22.22 0 0 1-.32-.27c4.18-6 10.16-10.9 16.12-15.01m12.537 33.383c.268.267-2.115 3.099-5.278 6.274-3.164 3.175-5.988 5.567-6.256 5.3s2.115-3.099 5.278-6.274c3.164-3.175 5.988-5.567 6.256-5.3m-7.527-15.773a99.2 99.2 0 0 1 16.95-10.4.271.271 0 0 1 .35.37q-.21.37-.61.62c-5.29 3.36-10.76 6.86-15.74 10.66-4.98 3.79-9.81 8.13-14.45 12.34a1.8 1.8 0 0 1-.76.43.27.27 0 0 1-.27-.44 99 99 0 0 1 14.53-13.58m-22.57 30.09a.1.1 0 0 1-.08.035.1.1 0 0 1-.08-.035l-.03-.02c-.456-.419.59-2.336 2.32-4.25l3.05-3.37c1.725-1.909 3.522-3.143 3.99-2.74l.03.03a.11.11 0 0 1 .01.15zm-7.192-35.041-9.999 13.126a.26.26 0 0 1-.364.049l-.064-.049a.26.26 0 0 1-.049-.364l9.999-13.126a.26.26 0 0 1 .364-.049l.064.049a.26.26 0 0 1 .049.364m3.662 89.211a.43.43 0 0 1-.822-.176l.002-.044.91-8.64a.28.28 0 0 1 .277-.243c.117 0 .222.073.263.183q.76 2.25 1.37 2.63c.37.203.528.658.36 1.04zm7.857-31.197-7.424 15.426a.644.644 0 0 1-.855.3l-.036-.018a.643.643 0 0 1-.299-.854l7.424-15.426a.644.644 0 0 1 .855-.3l.036.018a.643.643 0 0 1 .299.854M271.95 389.79a.09.09 0 0 1-.11.05c-1.178-.4.22-7.971 3.1-16.78l.12-.38c2.882-8.814 6.226-15.747 7.409-15.36a.09.09 0 0 1 .061.11zm-5.8 24.32q-.3-.08.64-4.37.25-1.15.78-1.01t.18 1.27q-1.3 4.19-1.6 4.11m11.7 39.58q.03.067.03.14a.34.34 0 0 1-.5.3l-2.8-1.41a.55.55 0 0 1-.22-.78l1.82-3a.63.63 0 0 1 .536-.3.633.633 0 0 1 .624.72 7.6 7.6 0 0 0 .51 4.33m-11.78-1.77-.044.002a.401.401 0 0 1-.326-.632q1.24-1.71 2.87-2.65a.41.41 0 0 1 .61.29q.17 1.03.02 2.02a.77.77 0 0 1-.66.64zm-4.6-22.42a.13.13 0 0 1 .12.13v.01l-1.3 15.78c-.401 4.882-.965 8.884-1.25 8.87l-.5-.04h-.004c-.284-.023-.188-4.063.214-8.95l1.3-15.78a.13.13 0 0 1 .13-.12h.01zm-13.92 29.84a.28.28 0 0 1-.28-.28v-.01l.01-.21c.446-25.543 1.179-46.621 1.63-46.87h.06c.448.054.448 21.212 0 46.9v.21a.28.28 0 0 1-.28.28zm15.65-97.09c3.19-9.16 6.22-16.97 10.98-24.44a.32.32 0 0 1 .42-.11h.02a.4.4 0 0 1 .16.51c-3.84 8.01-7.21 15.67-10.28 24.49-3.07 8.83-5.18 16.93-7.14 25.59a.4.4 0 0 1-.45.3l-.01-.01a.32.32 0 0 1-.26-.35c.91-8.81 3.37-16.81 6.56-25.98m217.69 76.54a.38.38 0 0 1-.59-.317v-.003c-.21-12.04-2.84-22.46-6.1-33.95a1.15 1.15 0 0 1 .13-.9c5.41-8.56 15.84-9.41 20.78.25 5.53 10.81 3.17 24.22-3.59 34.02a.7.7 0 0 1-.88.22q-4.9-2.43-9.75.68m8.651 4.037c2.799 1.763 3.558 5.666 1.681 8.646s-5.724 3.982-8.523 2.22-3.558-5.666-1.681-8.646 5.724-3.982 8.523-2.22M290.69 507.17c0 3.626-2.984 6.61-6.61 6.61s-6.61-2.984-6.61-6.61 2.984-6.61 6.61-6.61 6.61 2.984 6.61 6.61" style="fill:#fff" transform="translate(-233.51 -269.271)"/><path d="M370.39 554.57a.332.332 0 0 1 .41-.37c21.11 5.49 42.68 2.37 60.69-10.58a.562.562 0 0 1 .88.4c1.34 14.74 2.17 24.12 5.21 37.14q2.33 9.95 11.3 13.87c.27.113.419.411.35.7-2.08 8.95-8.58 16.02-16.48 20.67-11.41 6.71-23.43 8.63-36.31 7.4-10.13-.98-18.47-4.86-27.23-10.44a2.43 2.43 0 0 1-.95-1.14l-9.65-23.06a1.24 1.24 0 0 1 .61-1.59q7.59-3.65 9.83-11.81 2.87-10.48 1.34-21.19" style="fill:#fff" transform="translate(-233.51 -269.271)"/><path d="M383.68 293.56a.352.352 0 0 1 .52-.4q1.35.84 3.12.23a.784.784 0 0 1 .95 1.09q-2.26 4.5 2.99 7.49c.504.285.692.925.42 1.43q-2.08 3.91 1.04 5.71 1.42.83 2.77 2.27 2.54 2.72 4.77 3.65c9.7 4.03 18.84 7.57 26.42 14.79a117 117 0 0 1 9.55 10.26q.02.026.038.053a.65.65 0 0 1-.238.927q-.61.31-.72.8a.77.77 0 0 0 .12.64c2.87 3.99 8.04 9.23 11.2 14.05 10.98 16.75 17.46 34.2 23.08 53.99q4.51 15.87 4.5 29.47 0 5.04-.96 16.28-.91 10.7-5.69 26.32c-6.72 22.01-19.84 41.46-38.44 54.99q-8.33 6.06-16.2 8.66-13.59 4.5-25.58 3.6-34.29-2.59-63.27-22c-11.31-7.57-19.55-16.63-27.57-27.09q-.83-1.1-1.91-.04l-.041.037a.63.63 0 0 1-.879-.097l-.03-.04c-5.03-7.31-16.02-6.77-19.61 1.55l-.001.002a.48.48 0 0 1-.623.251l-.006-.003q-13.03-5.7-17.8-18.39c-3.55-9.46-2.03-22.23 8.9-26.11 5.27-1.87 9.04.03 12.69 3.61 4.06 3.99 7.28-.96 7.61-4.64a260.6 260.6 0 0 1 12.49-59.43q2.12-6.32 9.29-20.9c7.86-15.96 18.92-31.06 32.85-42.09a.388.388 0 0 1 .582.118.4.4 0 0 1 .028.072c.83 2.96 2.77 2.51 4.76.63q9.12-8.62 17.54-15.21a33.3 33.3 0 0 1 7.38-4.37 3 3 0 0 1 1.65-.2q2.91.5 5.24-1c4.06-2.61 7.61-5.87 7.22-11.04q-.08-1.07-1.7-1.96a.88.88 0 0 1-.4-1.07q.46-1.26-.22-2.48a.7.7 0 0 1 .41-1.01q2.51-.73 1.76-3.4m-40.735 143.578c-.797-3.513-3.115-6.03-7.885-4.4-3.005 1.027-5.398 6.697-2.323 9.603-1.015 3.103-.202 7.153 7.128 6.773 1.376-.072 2.603-2.554 3.134-5.594q.404-.083.824-.181c4.59-1.066 4.487-4.976-.878-6.201m76.334-26.838c-6.318-2.252-6.582 2.498-6.625 3.272-.131 2.359.287 4.218 1.053 5.612.566 2.606 2.397 4.791 5.25 4.862 2.239.056 3.928-1.464 5.01-3.401 1.54-1.311 2.668-3.312 2.87-5.917.513-6.613-4.624-7.079-7.558-4.428m10.161-25.02.07-.19a3.32 3.32 0 0 0-1.75-4.02q-11.6-5.44-19.83-3.44-10.36 2.52-20.28 9.63a3.59 3.59 0 0 0-1.1 4.55l.11.21.052.096c.862 1.529 2.825 2.081 4.35 1.222l.098-.058q5.03-3.05 12.29-6.32 11.46-5.15 22.4-.1a2.62 2.62 0 0 0 3.59-1.58m-86.8 23.71.02-.1c.289-1.626-.815-3.203-2.446-3.493l-.104-.017c-11.18-1.58-23.84 2.65-30.31 12.4q-2.11 3.17-5.03 9.96a2.635 2.635 0 0 0 1.55 3.52l.04.02a3.237 3.237 0 0 0 3.97-1.64q8.29-17.06 28.53-17.4a3.895 3.895 0 0 0 3.74-3.09zm49.25 91.95c8.97-2.81 16.64-7.59 22.85-15.02a2.92 2.92 0 0 0-.24-3.99l-.02-.02-.072-.064c-1.031-.88-2.6-.76-3.476.266l-.072.088c-5.28 6.79-12.31 10.86-20.63 13.47-8.32 2.6-16.41 3.27-24.62.69l-.104-.03c-1.305-.345-2.663.45-3.01 1.76l-.026.11v.02a2.92 2.92 0 0 0 2.07 3.42c9.35 2.56 18.37 2.11 27.35-.7m135.127 279.69c-19.405.473-21.528.727-40.478 3.272l1.151-8.692a535 535 0 0 0 2.29-48.99c.001-.508.381-.94.88-1q17.46-2.27 34.11-8.94l.035-.011a.32.32 0 0 1 .388.22l.007.041q2.37 19.8 2.55 40.99.105 13.036-.933 23.11m-240.005 2.293-47.617-.801.025-.022c.242-.216.418-.493.51-.8q.64-2.23.46-4.83.55-10.71 2.06-21.27 2.88-20.14 6.86-37.74a.39.39 0 0 1 .55-.26q21.51 10.44 44.72 13.08a.41.41 0 0 1 .35.51q-6.2 23.92-8.52 48.95-.19 2.045.602 3.183" style="fill:#fff" transform="translate(-233.51 -269.271)"/><path d="m675.74 286.56 6.56 1.78q6.49 2.79 5.22 9.16a.32.32 0 0 0 .09.28l6.94 6.39a.462.462 0 0 0 .75-.49q-1.58-4.5 1.73-8.74c4.75-6.09 11.71-7.29 19.21-6.03 21.08 3.57 36.49 20.04 48.92 36.1 17.67 22.82 29.59 48.4 38.44 76.38q1.54 4.86 1.4 8.32c-.013.375.129.735.39.99q1.13 1.12 2.27 2.15c6.56 5.92 7.46 13.97 7.31 22.37a7.6 7.6 0 0 0 .25 2.08c5.56 21.12 7.43 43.41 7.73 65.52l-.22 7.45-.3 27.11.55 8.41q.33 5.97.89 9.35a333 333 0 0 0 8.94 39.18 250 250 0 0 0 6.63 21.04c3.37 9.27 6.94 17.62 16.54 20.7q2.21.71 2.7 1.4c1.5 2.15-.77 4.32-2.99 4.21q-9.8-.46-16.97-7.42a.3.3 0 0 0-.49.34c2.21 4.98 4.64 7.39 8.48 11.34 1.21 1.23 1.87 2.7.49 4.07-1.29 1.29-2.94.94-4.49.29-3.84-1.61-6.94-3.67-10.5-4.19l-.026-.002a.21.21 0 0 0-.164.342q.39.46 4 2.78 1.69 1.08.68 2.94a1.97 1.97 0 0 1-2.35.93l-1.92-.65a.32.32 0 0 0-.38.45l2.15 4.17 2.27 5 6.95 18.56 4.55 17.42 1.4 6.51q1.31 8.81 2.68 17.65.56 3.6-2.54 5.29a54 54 0 0 1-6.29 2.91.85.85 0 0 0-.54.91l1.35 9.19.38 5.07.87 11.7.35 11.03.13 10.7-.14 11.55-.91 9.16-.012.099c-.228 1.641-1.859 2.791-3.614 2.547l-.104-.016-.13-.02a3.555 3.555 0 0 1-2.92-3.87q1.13-10.36 1.02-23.93-.18-21.19-2.55-40.99l-.007-.041a.32.32 0 0 0-.388-.22l-.035.011q-16.65 6.67-34.11 8.94c-.499.06-.879.492-.88 1a535 535 0 0 1-2.29 48.99l-1.52 11.48c-2.34 1.96-4.67 2-6.21-.76a1015 1015 0 0 0 3.32-42.76q.22-4.01.21-9.34c-.02-8.37.47-15.98.11-23.3l-.58-19.41a3.146 3.146 0 0 1 2.73-3.21l.17-.03q.077-.012.155-.019a2.566 2.566 0 0 1 2.785 2.469l.86 27.81.002.035a.6.6 0 0 0 .645.541l.043-.006c5.21-.8 13.64-2.01 20.55-4.4q2.45-.84 10.43-3.39 2.73-.87 12.45-5.37a.69.69 0 0 0 .37-.83c-.85-2.65-.53-5.58-1.09-8.65q-2.63-14.21-4.66-22.82-1.81-7.69-7.69-23.12c-2.6-6.83-6.83-13.4-10.52-19.13a35.4 35.4 0 0 0-5.17-6.32q-7.32-7.1-14.9-12.24a.913.913 0 0 0-1.37.46l-.42 1.24a.88.88 0 0 1-.51.53c-1.9.74-4.02-.05-3.91-2.27q.05-.91-.06-1.23a.361.361 0 0 0-.69.03c-1.07 5.2-2.05 8.24-2.81 13.1q-1.1 7.01-2.28 11.1-2.43 8.37-9.18 18.18a2.85 2.85 0 0 1-3.85.8l-.14-.09-.094-.062a2.536 2.536 0 0 1-.576-3.598q5.97-7.93 6.43-17.55l.001-.024a.25.25 0 0 0-.25-.25.25.25 0 0 0-.241.184l-4.35 12.98a2.64 2.64 0 0 1-3.28 1.68l-.17-.05a2.586 2.586 0 0 1-1.64-3.35q3.75-10.22 3.35-21.54a.336.336 0 0 0-.33-.32h-.01a.417.417 0 0 0-.42.39q-.53 8.57-4.9 16.47a2.5 2.5 0 0 1-2.99 1.15l-.1-.04-.058-.021a2.135 2.135 0 0 1-1.248-2.734l.026-.065q2.82-6.83 3.26-10.58.59-5.06.21-15.53a.5.5 0 0 0-.01-.1l-2.17-11.21a.47.47 0 0 0-.91-.06q-2.42 7.4-7.37 12.34-7.44 7.41-10.23 9.03-28.99 16.9-60.59 3.33a.3.3 0 0 0-.126-.026.32.32 0 0 0-.322.309q0 .066.028.127a72 72 0 0 0 5.85 11q3.13 4.82 8.14 5.11c5.82.33 3.99 6.87-1.34 5.8-7.48-1.52-14.55-7.02-20.31-12.48a.41.41 0 0 0-.68.24q-.07.46.22 1.14 2.71 6.39 7.72 12.11c2.16 2.48 3.59 5.34-.38 6.92-.79.309-1.69.124-2.29-.47l-4.46-4.46a.52.52 0 0 0-.74 0l-.29.28a.663.663 0 0 0 0 .93l2.88 2.87c.433.431.496 1.117.15 1.62q-1.51 2.23-3.39 3.28c-.334.184-.71.277-1.09.27q-2.48-.05-5.03-1.09a.326.326 0 0 0-.45.3v.52c.001.183.106.35.27.43l6.28 3.17a2.433 2.433 0 0 1 1.04 3.34l-.17.32a2.737 2.737 0 0 1-3.61 1.12l-5.05-2.54a.98.98 0 0 0-1.12.17q-3.46 3.33-7.91 1.83c-9.37-3.17-14.92-8.22-23.42-15.83-4.27-3.83-8.07-9.42-12.5-14.5-3.32-3.81-6.1-8.22-8.95-11.94-3.86-5.03-6.95-10.35-8.98-14.97l-.034-.069a1 1 0 0 0-1.416-.371 42.2 42.2 0 0 0-8.11 6.73q-6.63 7.05-11.56 13.92-5.29 7.35-13.3 23.7-3.71 7.57-9.01 21.2c-3.69 9.5-5.91 18.39-9.43 30.76-.14.499.075 1.032.52 1.29q26.38 15.16 56.7 17.35a1.35 1.35 0 0 0 1.41-1.06q3.82-17.99 8.85-36.91c1.03-3.89 6.28-2.81 5.41 1.27-2.26 10.56-3.68 15.64-5.57 25.39q-.58 2.94-2.99 14.64a1.9 1.9 0 0 1-.26.65c-1.72 2.69-3.65 1.96-5.85 2.58a.89.89 0 0 0-.63.66 442 442 0 0 0-6.57 35.03q-.21 1.45-.84 8.71a60 60 0 0 1-1.39 8.66q-.64-.29-2.02.56-4.18-.19-3.77-4.61 2.32-25.03 8.52-48.95a.41.41 0 0 0-.35-.51q-23.21-2.64-44.72-13.08a.39.39 0 0 0-.55.26q-3.98 17.6-6.86 37.74a236 236 0 0 0-2.06 21.27q.18 2.6-.46 4.83a1.74 1.74 0 0 1-.51.8q-2.86 2.51-5.66-.89l-.25-4.98.28-5.15a332 332 0 0 1 6.83-43.81l2.07-9.8.9-2.76a.964.964 0 0 0-.5-1.16c-3.54-1.67-7.38-3.88-6.3-8.53a270 270 0 0 1 10.81-35.31l1.46-3.59 2.79-6.57 2.47-5.32 6.01-12 3.93-6.85a119 119 0 0 1 12.8-18.05.513.513 0 0 0-.05-.71c-5-4.41-9.64-9.73-11.57-16.18-2.28-7.72-1.55-15.78-1.13-23.7q.41-7.05-.95-14.31a26.6 26.6 0 0 0-1.81-8.45c-2.88-10.18-8.54-19.3-13.25-28.71l-2.55-5.78-5.38-20.07-1.59-10.41q-2.06-15.22-.46-30.26.39-3.63.35-13.46l.57-5.07c1.12-10.73 1.22-21.47 2.21-32.2q1.43-15.45 3.68-25.89a186.4 186.4 0 0 1 13.51-40.06l3.98-7.73q2.78-4.93 5.59-9.87 3.53-6.18 13.96-18.05 3.36-3.82 13.2-12.2 7.61-6.48 14.61-10.32 11.59-6.34 22.96-10.2c4.63-1.58 11.88-3.47 16.61-2.01a.83.83 0 0 0 .86-.25c2.48-2.91 11.71-2.14 14.33-1.88m-2.23 5.22 7.26 2.43a.553.553 0 0 0 .695-.685.53.53 0 0 0-.205-.275q-3.14-2.22-7.71-1.84a.19.19 0 0 0-.172.189c0 .082.054.156.132.181m-43.01 11.54a129 129 0 0 0-10.58 6.13q-.65.43-.86 1.04a.24.24 0 0 0 .36.28q5.67-3.54 11.54-6.57 5.86-3.04 12.03-5.62a.24.24 0 0 0-.03-.46q-.62-.18-1.35.11a130 130 0 0 0-11.11 5.09m113.38 12.31q-8.42-8.66-19.42-14.07-5.61-2.77-13.33-2.64a.77.77 0 0 0-.75.76v.079a.75.75 0 0 0 .749.741h.011c12.63-.28 22.65 7.63 32.41 15.67.1.084.248.075.33-.02h.01a.38.38 0 0 0-.01-.52m-84.38-13.72q1.13.34 2.03-.06a.52.52 0 0 0 .06-.92q-1.04-.61-2.23-.12a.5.5 0 0 0-.209.149c-.198.235-.15.606.106.822q.11.09.243.129m9.14-.24q-1.32-.06-2.38-.58a.522.522 0 0 0-.75.46v.82a.77.77 0 0 0 .72.76l2.51.15.03.001c.319 0 .58-.262.58-.58v-.021l-.01-.29a.74.74 0 0 0-.7-.72m33.615 3.1c-.549.007-.993.572-.985 1.252s.467 1.235 1.015 1.228c.549-.007.993-.572.985-1.252s-.467-1.235-1.015-1.228m-13.985 2.37q.32.25 1.26 1.06a.43.43 0 0 0 .64-.56q-.1-.15-1.4-1.15-1.3-.99-1.47-1.05a.432.432 0 0 0-.561.41c0 .139.068.269.181.35q1.03.7 1.35.94m-68.2 11c-5.96 4.11-11.94 9.01-16.12 15.01a.22.22 0 0 0 .32.27c5.29-5.04 10.55-9.94 16.61-14.11 6.06-4.18 12.51-7.36 19.1-10.5a.22.22 0 0 0-.126-.4h-.014c-7.09 1.77-13.8 5.62-19.77 9.73m74.61-7.58q.75 2.67-1.76 3.4a.7.7 0 0 0-.41 1.01q.68 1.22.22 2.48a.88.88 0 0 0 .4 1.07q1.62.89 1.7 1.96c.39 5.17-3.16 8.43-7.22 11.04q-2.33 1.5-5.24 1a3 3 0 0 0-1.65.2 33.3 33.3 0 0 0-7.38 4.37q-8.42 6.59-17.54 15.21c-1.99 1.88-3.93 2.33-4.76-.63a.4.4 0 0 0-.028-.072.388.388 0 0 0-.582-.118c-13.93 11.03-24.99 26.13-32.85 42.09q-7.17 14.58-9.29 20.9a260.6 260.6 0 0 0-12.49 59.43c-.33 3.68-3.55 8.63-7.61 4.64-3.65-3.58-7.42-5.48-12.69-3.61-10.93 3.88-12.45 16.65-8.9 26.11q4.77 12.69 17.8 18.39l.006.003a.48.48 0 0 0 .623-.251l.001-.002c3.59-8.32 14.58-8.86 19.61-1.55l.03.04a.63.63 0 0 0 .879.097l.041-.037q1.08-1.06 1.91.04c8.02 10.46 16.26 19.52 27.57 27.09q28.98 19.41 63.27 22 11.99.9 25.58-3.6 7.87-2.6 16.2-8.66c18.6-13.53 31.72-32.98 38.44-54.99q4.78-15.62 5.69-26.32.96-11.24.96-16.28.01-13.6-4.5-29.47c-5.62-19.79-12.1-37.24-23.08-53.99-3.16-4.82-8.33-10.06-11.2-14.05a.77.77 0 0 1-.12-.64q.11-.49.72-.8a.65.65 0 0 0 .238-.927q-.018-.027-.038-.053a117 117 0 0 0-9.55-10.26c-7.58-7.22-16.72-10.76-26.42-14.79q-2.23-.93-4.77-3.65-1.35-1.44-2.77-2.27-3.12-1.8-1.04-5.71a1.07 1.07 0 0 0-.42-1.43q-5.25-2.99-2.99-7.49a.784.784 0 0 0-.95-1.09q-1.77.61-3.12-.23a.35.35 0 0 0-.52.4m39.81 10.91a145 145 0 0 1 10.28 8.24.292.292 0 0 0 .48-.219v-.001q-.01-.38-.35-.76a60.3 60.3 0 0 0-9.47-8.56 60.5 60.5 0 0 0-11.04-6.38q-.47-.21-.84-.1a.291.291 0 0 0-.05.53q5.67 3.38 10.99 7.25m-23.66-1.83a.583.583 0 0 0-.58-.58.583.583 0 0 0-.58.58c0 .318.262.58.58.58s.58-.262.58-.58m41.92 1.472c-.1.094.274.654.828 1.24s1.092.99 1.192.896-.274-.654-.828-1.24-1.092-.99-1.192-.896m-89.702.737c-.183-.331-2.135.395-4.323 1.608-2.187 1.212-3.837 2.483-3.653 2.814.183.331 2.135-.395 4.323-1.608 2.187-1.212 3.837-2.483 3.653-2.814m23.118 3.251c-.044-.613-.71-1.072-1.476-1.017s-1.36.604-1.316 1.217.71 1.072 1.476 1.017 1.36-.604 1.316-1.217m-61.086 10.65a99 99 0 0 0-14.53 13.58.27.27 0 0 0 .27.44 1.8 1.8 0 0 0 .76-.43c4.64-4.21 9.47-8.55 14.45-12.34 4.98-3.8 10.45-7.3 15.74-10.66q.4-.25.61-.62.03-.058.03-.123a.27.27 0 0 0-.38-.247 99.2 99.2 0 0 0-16.95 10.4m88.74-10.33-.45 1a.2.2 0 0 0 .1.27l.1.04.003.001c6.485 2.901 11.95 5 12.107 4.649l.04-.09.002-.004c.157-.351-5.048-3.026-11.532-5.926l-.1-.04a.2.2 0 0 0-.27.1m-35.54 1.54-.37-.68a.2.2 0 0 0-.27-.08l-2.8 1.51c-1.928 1.047-3.438 2.051-3.343 2.225l.003.005.22.4c.101.169 1.759-.547 3.68-1.59l2.8-1.52a.2.2 0 0 0 .08-.27m-82.962 3.839a.26.26 0 0 0-.049-.364l-.064-.049a.26.26 0 0 0-.364.049l-9.999 13.126a.26.26 0 0 0 .049.364l.064.049a.26.26 0 0 0 .364-.049zm70.612 5.541a.643.643 0 0 0-.64-.64.643.643 0 0 0-.64.64c0 .351.289.64.64.64s.64-.289.64-.64m77.175 6.137a.56.56 0 0 0-.087-.787l-6.571-5.265a.56.56 0 0 0-.787.087l-.025.031a.56.56 0 0 0 .087.787l6.571 5.265c.24.192.595.153.787-.087zm-110.498 9.046c-.268-.267-3.092 2.125-6.256 5.3-3.163 3.175-5.546 6.007-5.278 6.274s3.092-2.125 6.256-5.3c3.163-3.175 5.546-6.007 5.278-6.274M574.2 379.25c-3.19 9.17-5.65 17.17-6.56 25.98a.32.32 0 0 0 .26.35l.01.01a.4.4 0 0 0 .45-.3c1.96-8.66 4.07-16.76 7.14-25.59 3.07-8.82 6.44-16.48 10.28-24.49a.4.4 0 0 0-.16-.51h-.02a.32.32 0 0 0-.42.11c-4.76 7.47-7.79 15.28-10.98 24.44m28.31-13.41 9.21-10.2a.11.11 0 0 0-.01-.15l-.03-.03c-.468-.403-2.265.831-3.99 2.74l-3.05 3.37c-1.73 1.914-2.776 3.831-2.32 4.25l.03.02q.033.034.08.035.047-.001.08-.035m-19.56 40.95 10.58-32.36a.09.09 0 0 0-.06-.11h-.001c-1.184-.387-4.527 6.546-7.409 15.36l-.12.38c-2.88 8.809-4.278 16.38-3.1 16.78a.09.09 0 0 0 .11-.05m23.887-17.977a.643.643 0 0 0-.299-.854l-.036-.018a.644.644 0 0 0-.855.3l-7.424 15.426a.643.643 0 0 0 .299.854l.036.018a.644.644 0 0 0 .855-.3zM797.79 407.82l.64-.22a.19.19 0 0 0 .12-.24l-.51-1.5-.001-.003c-2.799-8.174-5.302-14.832-5.546-14.748l-.003.001-.11.04-.006.001c-.244.083 1.858 6.876 4.656 15.049l.51 1.5a.19.19 0 0 0 .25.12m-8.09 1.04a.9.9 0 0 0 .348.277c.476.212 1.057-.038 1.286-.554.067-.15.1-.312.096-.473q-.01-.69-.53-.96a.56.56 0 0 0-.68.13q-.91 1.07-.52 1.58m-190.72 11.15 2.36-5.25a.82.82 0 0 0-.36-1.04q-.61-.38-1.37-2.63a.28.28 0 0 0-.263-.183.28.28 0 0 0-.277.243l-.91 8.64-.002.044a.43.43 0 0 0 .822.176m183.81-6.19a.8.8 0 0 0 .1-.26.322.322 0 0 0-.49-.32q-.21.14-.15.46a.3.3 0 0 0 .295.247.3.3 0 0 0 .245-.127m9.1 41.97q4.85-3.11 9.75-.68a.7.7 0 0 0 .88-.22c6.76-9.8 9.12-23.21 3.59-34.02-4.94-9.66-15.37-8.81-20.78-.25a1.15 1.15 0 0 0-.13.9c3.26 11.49 5.89 21.91 6.1 33.95v.003a.382.382 0 0 0 .59.317m-214.74-24.68q.3.08 1.6-4.11.35-1.13-.18-1.27t-.78 1.01q-.94 4.29-.64 4.37m-18.6 45.23 1.14.02a.28.28 0 0 0 .28-.28v-.21c.448-25.688.448-46.846 0-46.9h-.06c-.451.249-1.184 21.327-1.63 46.87l-.01.21v.01c0 .154.126.28.28.28m13.92-29.84-1.28-.1h-.01a.13.13 0 0 0-.13.12l-1.3 15.78c-.402 4.887-.498 8.927-.214 8.95h.004l.5.04c.285.014.849-3.988 1.25-8.87l1.3-15.78v-.01a.13.13 0 0 0-.12-.13m228.071 13.327c-2.799-1.762-6.647-.76-8.523 2.22-1.877 2.98-1.118 6.883 1.681 8.646 2.799 1.762 6.647.76 8.523-2.22h.001c1.876-2.98 1.117-6.883-1.682-8.646M577.07 468.92l2.47-.33a.77.77 0 0 0 .66-.64q.15-.99-.02-2.02a.41.41 0 0 0-.61-.29q-1.63.94-2.87 2.65a.401.401 0 0 0 .326.632zm11.78 1.77a7.6 7.6 0 0 1-.51-4.33.633.633 0 0 0-.624-.72.63.63 0 0 0-.536.3l-1.82 3a.547.547 0 0 0 .22.78l2.8 1.41q.075.04.16.04a.34.34 0 0 0 .31-.48m226.8 37.87q.49-.02.49-.55-.03-16.52-1.18-28.1-.58-5.84-.74-9.83c-.006-.101-.052-.181-.11-.19q-.02-.01-.03 0h-.04c-.055.017-.093.101-.09.2q.16 3.99.06 9.86-.21 11.63 1.1 28.1.04.53.54.51m-10.36-35.14q-.18.69.33 1.5a.43.43 0 0 0 .72.02q.28-.41.46-1.14.19-.72.14-1.22a.43.43 0 0 0-.64-.33q-.84.48-1.01 1.17m-15.05 2.43a.3.3 0 0 0 .176-.028.306.306 0 0 0 .153-.403.3.3 0 0 0-.119-.129q-.19-.1-.29.23-.09.29.08.33m8.51.92a.337.337 0 0 0-.528-.032.4.4 0 0 0-.042.062.96.96 0 0 0-.09.57.35.35 0 0 0 .056.15c.11.164.339.206.508.093a.4.4 0 0 0 .116-.123q.24-.38-.02-.72m1 17.87q.08-.11-.01-.37l-.02-.051a.497.497 0 0 0-.7-.219q-.23.14-.13.48a.492.492 0 0 0 .86.16m-19.31 19.68q.05-.24-.12-.35-.32-.2-.61.05-.4.35-.29.51a.6.6 0 0 0 .155.149.566.566 0 0 0 .783-.155.5.5 0 0 0 .082-.204m-207.252 7.215a.497.497 0 0 0-.017-.707l-3.665-3.489a.5.5 0 0 0-.706.017l-.028.029a.497.497 0 0 0 .017.707l3.665 3.489a.5.5 0 0 0 .706-.017zm28.502 2.635c0-3.626-2.984-6.61-6.61-6.61s-6.61 2.984-6.61 6.61 2.984 6.61 6.61 6.61 6.61-2.984 6.61-6.61m214.263-5.016a.493.493 0 0 0-.49-.484h-.007l-.04.001a.49.49 0 0 0-.483.497l.195 13.958a.49.49 0 0 0 .489.484h.007l.04-.001a.49.49 0 0 0 .483-.497zm-253.989 5.485a.62.62 0 0 0-.802-.354l-.038.015a.62.62 0 0 0-.353.802l7.485 19.299a.62.62 0 0 0 .802.354l.038-.015a.62.62 0 0 0 .353-.802zM785.2 568.54l1.6-41.77a.16.16 0 0 0-.15-.16l-.2-.01c-.625-.017-1.473 8.675-1.88 19.26l-.14 3.48c-.407 10.591-.227 19.326.397 19.35h.003l.2.01h.01a.16.16 0 0 0 .16-.16m-178.58-41.32a.38.38 0 0 0-.32.11q-.15.14-.14.39.03.62.5.59a.52.52 0 0 0 .379-.152c.204-.207.192-.555-.027-.77a.58.58 0 0 0-.392-.168m161.94 7.79q.65.39 1.01-.28 1.39-2.64.9-2.93-.48-.29-2.14 2.19-.43.63.23 1.02m-166.44-1.77q-.1-.04-.26.02a.6.6 0 0 0-.148.091c-.168.141-.227.351-.131.464a.2.2 0 0 0 .109.065q.36.09.54-.13a.33.33 0 0 0-.11-.51m-10 4.05q.28-.35.03-.93a.73.73 0 0 0-.25-.31q-2.72-1.97-3.12-1.47t2.08 2.75a.73.73 0 0 0 .36.18q.62.13.9-.22m-13.608-1.976a.643.643 0 0 0-.871-.247l-.07.039a.64.64 0 0 0-.246.871l1.883 3.37a.644.644 0 0 0 .871.246l.07-.039a.64.64 0 0 0 .246-.871zM798.77 567.02l.46-29.06a.15.15 0 0 0-.15-.15h-.082c-.751-.012-1.473 6.546-1.598 14.527v.263c-.125 7.976.389 14.551 1.14 14.57h.08c.082 0 .15-.068.15-.15m-42.75-17.33q.62 1.1 1.54-1.16a.282.282 0 0 0-.265-.37.28.28 0 0 0-.185.07l-1.03 1.03a.35.35 0 0 0-.06.43M812 578.94q2.18 9.57 6.14 19.35.6 1.47 1.37 2.22a.322.322 0 0 0 .53-.33q-4.15-12.7-6.18-21.66-2.04-8.97-3.78-22.22a.32.32 0 0 0-.62-.06q-.37 1.01-.28 2.59.65 10.53 2.82 20.11m-167.61-21.11a.28.28 0 0 0 .334-.275.28.28 0 0 0-.114-.225q-.28-.22-.43.03-.09.15-.02.27.11.18.23.2m-24.023.311a.41.41 0 0 0-.56-.152l-.034.02a.41.41 0 0 0-.152.559l2.892 5.051a.41.41 0 0 0 .56.152l.034-.02a.41.41 0 0 0 .152-.559zm61.023 13.429q1.53 10.71-1.34 21.19-2.24 8.16-9.83 11.81a1.24 1.24 0 0 0-.61 1.59l9.65 23.06c.189.468.521.867.95 1.14 8.76 5.58 17.1 9.46 27.23 10.44 12.88 1.23 24.9-.69 36.31-7.4 7.9-4.65 14.4-11.72 16.48-20.67a.606.606 0 0 0-.35-.7q-8.97-3.92-11.3-13.87c-3.04-13.02-3.87-22.4-5.21-37.14a.562.562 0 0 0-.88-.4c-18.01 12.95-39.58 16.07-60.69 10.58a.332.332 0 0 0-.41.37m80.2 2.56q-.2-6.18.16-12.38l.001-.021a.271.271 0 0 0-.441-.209q-.28.22-.36.7a56.8 56.8 0 0 0 .79 23.84q.12.47.41.68a.271.271 0 0 0 .42-.26q-.77-6.16-.98-12.35m-91.85-5.25q-.024.137-.014.277c.039.569.485 1.009.989.975a.8.8 0 0 0 .235-.052.18.18 0 0 0 .1-.11q.046-.103.068-.216a1.02 1.02 0 0 0-1.038-1.204q-.28 0-.34.33m-21.741 5.747c-.287.23.104 1.205.867 2.161.764.956 1.628 1.554 1.915 1.325s-.104-1.205-.867-2.161c-.764-.956-1.628-1.554-1.915-1.325m135.361 2.185a.755.755 0 0 0-.814-.68l-.04.004a.75.75 0 0 0-.68.813l2.734 30.639a.755.755 0 0 0 .814.68l.04-.004a.75.75 0 0 0 .68-.813zm-14.195 6.377c-.164.011-.184 1.754-.044 3.861s.39 3.832.554 3.822v-.001c.164-.011.184-1.754.044-3.861s-.39-3.832-.554-3.822zM601.3 587.79l-.49.23c-.08.04-.116.138-.08.22l1.09 2.32c3.135 6.692 5.893 12.142 6.14 12.13l.04-.02.002-.001c.209-.097-2.221-5.73-5.382-12.479l-1.09-2.32a.17.17 0 0 0-.23-.08m-18.72 7.04a.346.346 0 0 0-.36.28q-2.49 13.03 2.64 24.53.62 1.41 1.69 2.81a.502.502 0 0 0 .9-.301.5.5 0 0 0-.03-.169c-2.09-5.86-4.05-11.28-4.16-17.48q-.12-6.07-.16-9.46c0-.101-.075-.185-.17-.19zm12.964.231c-.269.159-.208.768.135 1.349.344.581.848.928 1.117.769s.208-.768-.135-1.349c-.344-.581-.848-.928-1.117-.769m159.486 3.869a.377.377 0 0 0 .63-.12q.14-.37-.15-.7a.391.391 0 0 0-.67.13q-.12.37.19.69m-131.25 13.31-7.43-13.62a.12.12 0 0 0-.16-.05l-.05.03-.003.002c-.655.357-.031 2.783 1.383 5.378l2.39 4.37c1.41 2.588 3.109 4.431 3.77 4.09l.05-.03a.12.12 0 0 0 .05-.17m11.477-12.591a.653.653 0 0 0-.82-.416l-.057.018a.653.653 0 0 0-.416.82l2.759 8.441a.654.654 0 0 0 .82.415l.057-.018a.653.653 0 0 0 .416-.82zm127.437 6.377c-.286.175-.35.596-.144.933.206.336.611.47.896.295s.35-.596.144-.933c-.206-.336-.611-.47-.896-.295m-166.276 5.981a.793.793 0 0 0-1.054-.37l-.054.026a.79.79 0 0 0-.369 1.055l3.001 6.235a.793.793 0 0 0 1.054.37l.054-.026a.79.79 0 0 0 .369-1.055zm42.794 1.858a.39.39 0 0 0-.498-.236l-.113.04a.39.39 0 0 0-.236.498l3.663 10.288a.39.39 0 0 0 .498.236l.113-.04a.393.393 0 0 0 .237-.498zm160.878 1.355q-.09.36.11.59.042.049.098.081c.171.099.389.047.482-.114a.3.3 0 0 0 .04-.117q.05-.28-.2-.55a.306.306 0 0 0-.495.028.3.3 0 0 0-.035.082m-174.134.747c-.196.1-.174.54.048.975s.565.711.76.611.174-.54-.048-.975-.565-.711-.76-.611m159.733 5.693c-.264 0-.48.385-.479.851s.218.849.481.849c.264 0 .48-.385.479-.851s-.218-.849-.481-.849M637.56 637.31a131 131 0 0 0 7.37 10.22q.51.63 1.16.78a.25.25 0 0 0 .25-.4 170 170 0 0 1-7.93-11.16 169 169 0 0 1-7.01-11.76.25.25 0 0 0-.216-.125.25.25 0 0 0-.244.195q-.13.66.24 1.37a133 133 0 0 0 6.38 10.88m173.454-9.289c-.236.161-.224.595.026.962.251.367.651.537.886.376.236-.161.224-.595-.026-.962-.251-.367-.651-.537-.886-.376M682.1 645.89l-8.81-12.31-.17.12c-.319.249 1.344 3.143 3.69 6.42l.23.33.002.003c2.354 3.287 4.562 5.798 4.892 5.562l.006-.005zm151.4-4.61-4.72-6.77-.17.11c-.36.251.379 1.943 1.638 3.747l.002.003.14.19c1.254 1.798 2.583 3.078 2.95 2.84zm-169.04-4.42q-.43.13-.34.59a.36.36 0 0 0 .69.07q.12-.27 0-.51a.295.295 0 0 0-.35-.15m166.08 8.86-5.25-4.22a.06.06 0 0 0-.045-.02.06.06 0 0 0-.045.02l-.1.13c-.286.36.625 1.578 2.02 2.7l.25.2.006.005c1.397 1.123 2.784 1.752 3.074 1.395l.1-.13a.06.06 0 0 0-.01-.08m-187.73 11.34q3.29 3.94 6.95 7.54.47.46 1.01.52.015.003.03.002a.2.2 0 0 0 .13-.352 138 138 0 0 1-7.49-8.24 138 138 0 0 1-6.8-8.82.2.2 0 0 0-.37.1q-.03.54.34 1.09 2.9 4.23 6.2 8.16m20.82 3.27a118 118 0 0 1-6.7-8.26.231.231 0 0 0-.41.09q-.06.3.14.66a49 49 0 0 0 6 8.38 49.6 49.6 0 0 0 7.63 6.93q.33.24.64.22a.23.23 0 0 0 .216-.23.23.23 0 0 0-.076-.17q-3.9-3.64-7.44-7.62m-13.03 12.21 12.27 6.94a.21.21 0 0 0 .29-.08l.22-.4c.138-.249.138-.517 0-.6l-12.11-6.86c-.142-.081-.377.059-.52.31l-.23.4a.21.21 0 0 0 .08.29" style="fill:#010101;fill-rule:nonzero" transform="translate(-544.51 -286.271)"/><ellipse rx="1.47" ry=".25" style="fill:#fff" transform="rotate(226.6 112.357 -27.104)"/><path d="M740.44 402.28a2.62 2.62 0 0 1-3.59 1.58q-10.94-5.05-22.4.1-7.26 3.27-12.29 6.32l-.098.058c-1.525.859-3.488.307-4.35-1.222l-.052-.096-.11-.21a3.59 3.59 0 0 1 1.1-4.55q9.92-7.11 20.28-9.63 8.23-2 19.83 3.44a3.32 3.32 0 0 1 1.75 4.02z" style="fill:#010101;fill-rule:nonzero" transform="translate(-544.51 -286.271)"/><path d="M782.79 413.82a.3.3 0 0 1-.245.127.3.3 0 0 1-.295-.247q-.06-.32.15-.46a.322.322 0 0 1 .49.32.8.8 0 0 1-.1.26" style="fill:#fff;fill-rule:nonzero" transform="translate(-544.51 -286.271)"/><path d="m653.64 425.99-.04.16a3.895 3.895 0 0 1-3.74 3.09q-20.24.34-28.53 17.4a3.237 3.237 0 0 1-3.97 1.64l-.04-.02a2.635 2.635 0 0 1-1.55-3.52q2.92-6.79 5.03-9.96c6.47-9.75 19.13-13.98 30.31-12.4l.104.017c1.631.29 2.735 1.867 2.446 3.493z" style="fill:#010101;fill-rule:nonzero" transform="translate(-544.51 -286.271)"/><path d="M418.918 410.493c-7.726 1.562-6.661 13.386.039 13.553 5.617.14 7.776-9.635 5.554-11.051-11.421-7.277-11.804-.371-11.857.577-.679 12.233 13.416 11.038 14.183 1.156.791-10.191-11.838-5.783-9.139 2.131 1.632 4.787 10.417-2.323 2.776-6.661m-85.168 28.773c-2.485.628-6.83 10.733 4.559 10.143 3.953-.205 6.675-20.299-4.805-16.376-4.681 1.6-7.875 14.465 8.763 10.601 5.139-1.193 4.395-5.951-3.028-6.516-7.451-.567-6.256 6.291-6.417 7.487.648-.422 14.004-9.119 3.957-8.825-2.024.06-3.325 8.639-1.37 9.687" style="fill:#ebebeb;stroke:#000;stroke-width:3.5px" transform="translate(-233.51 -269.271)"/><path d="M790.24 475.85q-.17-.04-.08-.33.1-.33.29-.23.079.046.119.129a.306.306 0 0 1-.153.403.3.3 0 0 1-.176.028m9.51 18.79a.492.492 0 0 1-.86-.16q-.1-.34.13-.48l.043-.022a.497.497 0 0 1 .677.292q.09.26.01.37" style="fill:#fff;fill-rule:nonzero" transform="translate(-544.51 -286.271)"/><path d="M702.89 517.94c-8.98 2.81-18 3.26-27.35.7a2.92 2.92 0 0 1-2.07-3.42v-.02l.026-.11c.347-1.31 1.705-2.105 3.01-1.76l.104.03c8.21 2.58 16.3 1.91 24.62-.69 8.32-2.61 15.35-6.68 20.63-13.47q.035-.045.072-.088c.876-1.026 2.445-1.146 3.476-.266l.072.064.02.02a2.92 2.92 0 0 1 .24 3.99c-6.21 7.43-13.88 12.21-22.85 15.02" style="fill:#010101;fill-rule:nonzero" transform="translate(-544.51 -286.271)"/><path d="M.51-6.98V6.98c0 .27-.22.49-.49.49h-.04a.49.49 0 0 1-.49-.49V-6.98c0-.27.22-.49.49-.49h.04c.27 0 .49.22.49.49" style="fill:#fff" transform="rotate(-.8 17314.572 -19290.826)"/><path d="M602.23 533.75q-.18.22-.54.13a.2.2 0 0 1-.109-.065c-.096-.113-.037-.323.131-.464a.6.6 0 0 1 .148-.091q.16-.06.26-.02a.33.33 0 0 1 .11.51" style="fill:#72ae9d;fill-rule:nonzero" transform="translate(-544.51 -286.271)"/><path d="M.45-5.46V5.46a.39.39 0 0 1-.39.39h-.12a.39.39 0 0 1-.39-.39V-5.46a.39.39 0 0 1 .39-.39h.12a.39.39 0 0 1 .39.39" style="fill:#72ae9d" transform="rotate(-19.6 1011.664 -111.764)"/><path d="M800.09 615.22a.3.3 0 0 1 .035-.082.306.306 0 0 1 .495-.028q.25.27.2.55a.3.3 0 0 1-.04.117c-.093.161-.311.213-.482.114a.4.4 0 0 1-.098-.081q-.2-.23-.11-.59" style="fill:#72ae9d;fill-rule:nonzero" transform="translate(-544.51 -286.271)"/><ellipse rx=".89" ry=".4" style="fill:#72ae9d" transform="rotate(243 142.187 140.166)"/><path d="m790.96 802.93-3.54.81-6.04.73-12.41 1.08-12.28.99-10.72.65-30.76.76q-.93-.21-2.03-.08l-4.71.07-11.3-.12-12.22.2-9.73-.25-12.58-.63-13.94-.95-10.74-.7-23.88-2.63-10.88-2.07a60 60 0 0 0 1.39-8.66q.63-7.26.84-8.71a442 442 0 0 1 6.57-35.03.89.89 0 0 1 .63-.66c2.2-.62 4.13.11 5.85-2.58.126-.198.214-.419.26-.65q2.41-11.7 2.99-14.64c1.89-9.75 3.31-14.83 5.57-25.39.87-4.08-4.38-5.16-5.41-1.27q-5.03 18.92-8.85 36.91a1.35 1.35 0 0 1-1.41 1.06q-30.32-2.19-56.7-17.35a1.14 1.14 0 0 1-.52-1.29c3.52-12.37 5.74-21.26 9.43-30.76q5.3-13.63 9.01-21.2 8.01-16.35 13.3-23.7 4.93-6.87 11.56-13.92a42.2 42.2 0 0 1 8.11-6.73q.035-.023.071-.042a1 1 0 0 1 1.379.482c2.03 4.62 5.12 9.94 8.98 14.97 2.85 3.72 5.63 8.13 8.95 11.94 4.43 5.08 8.23 10.67 12.5 14.5 8.5 7.61 14.05 12.66 23.42 15.83q4.45 1.5 7.91-1.83a.98.98 0 0 1 1.12-.17l5.05 2.54a2.737 2.737 0 0 0 3.61-1.12l.17-.32a2.433 2.433 0 0 0-1.04-3.34l-6.28-3.17a.48.48 0 0 1-.27-.43v-.52q0-.033.006-.066a.326.326 0 0 1 .444-.234q2.55 1.04 5.03 1.09c.38.007.756-.086 1.09-.27q1.88-1.05 3.39-3.28a1.274 1.274 0 0 0-.15-1.62l-2.88-2.87a.663.663 0 0 1 0-.93l.29-.28a.52.52 0 0 1 .74 0l4.46 4.46c.6.594 1.5.779 2.29.47 3.97-1.58 2.54-4.44.38-6.92q-5.01-5.72-7.72-12.11-.29-.68-.22-1.14a.411.411 0 0 1 .68-.24c5.76 5.46 12.83 10.96 20.31 12.48 5.33 1.07 7.16-5.47 1.34-5.8q-5.01-.29-8.14-5.11a72 72 0 0 1-5.85-11 .3.3 0 0 1-.028-.127.32.32 0 0 1 .322-.309q.065 0 .126.026 31.6 13.57 60.59-3.33 2.79-1.62 10.23-9.03 4.95-4.94 7.37-12.34a.47.47 0 0 1 .91.06l2.17 11.21q.01.05.01.1.38 10.47-.21 15.53-.44 3.75-3.26 10.58l-.026.065a2.135 2.135 0 0 0 1.248 2.734l.058.021.1.04a2.5 2.5 0 0 0 2.99-1.15q4.37-7.9 4.9-16.47a.417.417 0 0 1 .42-.39h.01a.336.336 0 0 1 .33.32q.4 11.32-3.35 21.54a2.58 2.58 0 0 0 1.64 3.35l.17.05a2.64 2.64 0 0 0 3.28-1.68l4.35-12.98a.25.25 0 0 1 .241-.184c.137 0 .25.113.25.25l-.001.024q-.46 9.62-6.43 17.55l-.061.085a2.536 2.536 0 0 0 .731 3.575l.14.09a2.85 2.85 0 0 0 3.85-.8q6.75-9.81 9.18-18.18 1.18-4.09 2.28-11.1c.76-4.86 1.74-7.9 2.81-13.1a.361.361 0 0 1 .69-.03q.11.32.06 1.23c-.11 2.22 2.01 3.01 3.91 2.27a.88.88 0 0 0 .51-.53l.42-1.24a.913.913 0 0 1 1.37-.46q7.58 5.14 14.9 12.24a35.4 35.4 0 0 1 5.17 6.32c3.69 5.73 7.92 12.3 10.52 19.13q5.88 15.43 7.69 23.12 2.03 8.61 4.66 22.82c.56 3.07.24 6 1.09 8.65a.69.69 0 0 1-.37.83q-9.72 4.5-12.45 5.37-7.98 2.55-10.43 3.39c-6.91 2.39-15.34 3.6-20.55 4.4l-.043.006a.6.6 0 0 1-.645-.541l-.002-.035-.86-27.81a2.566 2.566 0 0 0-2.94-2.45l-.17.03a3.146 3.146 0 0 0-2.73 3.21l.58 19.41c.36 7.32-.13 14.93-.11 23.3q.01 5.33-.21 9.34a1015 1015 0 0 1-3.32 42.76" style="fill:#72ae9d;fill-rule:nonzero" transform="translate(-544.51 -286.271)"/><ellipse rx=".85" ry=".48" style="fill:#72ae9d" transform="rotate(-90.1 288.416 47.74)"/><path d="M638.41 636.75a170 170 0 0 0 7.93 11.16.25.25 0 0 1 .055.156.25.25 0 0 1-.305.244q-.65-.15-1.16-.78a131 131 0 0 1-7.37-10.22 133 133 0 0 1-6.38-10.88q-.37-.71-.24-1.37a.25.25 0 0 1 .244-.195.25.25 0 0 1 .216.125 169 169 0 0 0 7.01 11.76" style="fill:#72ae9d;fill-rule:nonzero" transform="translate(-544.51 -286.271)"/><ellipse rx=".81" ry=".52" style="fill:#72ae9d" transform="rotate(235.7 223.94 100.685)"/><path d="m682.1 645.89-.16.12-.006.005c-.33.236-2.538-2.275-4.892-5.562l-.002-.003-.23-.33c-2.346-3.277-4.009-6.171-3.69-6.42l.17-.12z" style="fill:#72ae9d;fill-rule:nonzero" transform="translate(-544.51 -286.271)"/><path d="M664.81 637.01q.12.24 0 .51a.36.36 0 0 1-.69-.07q-.09-.46.34-.59a.295.295 0 0 1 .35.15" style="fill:#222;fill-rule:nonzero" transform="translate(-544.51 -286.271)"/><path d="M642.81 657.06q-3.3-3.93-6.2-8.16-.37-.55-.34-1.09a.2.2 0 0 1 .37-.1 138 138 0 0 0 6.8 8.82q3.56 4.25 7.49 8.24a.2.2 0 0 1-.13.352l-.03-.002q-.54-.06-1.01-.52-3.66-3.6-6.95-7.54m20.82 3.27q3.54 3.98 7.44 7.62a.23.23 0 0 1 .076.17.23.23 0 0 1-.216.23q-.31.02-.64-.22a49.6 49.6 0 0 1-7.63-6.93 49 49 0 0 1-6-8.38q-.2-.36-.14-.66a.231.231 0 0 1 .41-.09 118 118 0 0 0 6.7 8.26m-13.03 12.21a.21.21 0 0 1-.08-.29l.23-.4c.143-.251.378-.391.52-.31l12.11 6.86c.138.083.138.351 0 .6l-.22.4a.21.21 0 0 1-.29.08z" style="fill:#72ae9d;fill-rule:nonzero" transform="translate(-544.51 -286.271)"/></svg>